<svg version="1.1" xmlns="http://www.w3.org/2000/svg" xmlns:xlink="http://www.w3.org/1999/xlink" width="57.12862" height="51.87574" viewBox="0,0,57.12862,51.87574"><g transform="translate(-210.50552,-156.73973)"><g fill="#ffffff" stroke="none" stroke-width="0.5" stroke-miterlimit="10"><path d="M240.86974,157.24597c0,-0.12708 0.0646,-0.18956 0.12812,-0.22028c0,-0.01198 0,-0.02397 0,-0.03595c0,0 0,-0.25 0.25,-0.25c0.25,0 0.25,0.25 0.25,0.25c0,0.08541 0,0.17083 0,0.25624l-0.37812,0.25c0,0 -0.25,0 -0.25,-0.25z"></path><path d="M267.63414,181.07611c0,0.25 -0.25,0.25 -0.25,0.25c-0.21353,0 -0.55518,0 -0.76871,0c0,0 -0.25,0 -0.25,-0.25c0,-0.25 0.25,-0.25 0.25,-0.25c0.21353,0 0.42706,0 0.6406,0h0.12812c0,0 0.25,0 0.25,0.25z"></path><path d="M212.15859,181.84483c0,0.25 -0.25,0.25 -0.25,0.25c-0.34165,0 -0.81142,0 -1.15307,0c0,0 -0.25,0 -0.25,-0.25c0,-0.25 0.25,-0.25 0.25,-0.25c0.34165,0 0.6833,0 1.02495,0h0.12812c0,0 0.25,0 0.25,0.25z"></path><path d="M239.84478,208.36547c0,-0.13807 0.11193,-0.25 0.25,-0.25c0.13807,0 0.25,0.11193 0.25,0.25c0,0.13807 -0.11193,0.25 -0.25,0.25c-0.13807,0 -0.25,-0.11193 -0.25,-0.25z"></path><path d="M240.73538,193.75366c-0.25,0 -0.25,-0.25 -0.25,-0.25c0,-0.08541 0,-0.29894 0,-0.38436c0,0 0,-0.25 0.25,-0.25c0.25,0 0.25,0.25 0.25,0.25c0,0.08541 0,0.17083 0,0.25624v0.12812c0,0 0,0.25 -0.25,0.25z"></path><path d="M218.96138,181.58859c0,-0.13807 0.11193,-0.25 0.25,-0.25c0.13807,0 0.25,0.11193 0.25,0.25c0,0.13807 -0.11193,0.25 -0.25,0.25c-0.13807,0 -0.25,-0.11193 -0.25,-0.25z"></path><path d="M253.80976,170.69847c0,-0.13807 0.11193,-0.25 0.25,-0.25c0.13807,0 0.25,0.11193 0.25,0.25c0,0.13807 -0.11193,0.25 -0.25,0.25c-0.13807,0 -0.25,-0.11193 -0.25,-0.25z"></path><path d="M256.62838,196.06604c0,-0.13807 0.11193,-0.25 0.25,-0.25c0.13807,0 0.25,0.11193 0.25,0.25c0,0.13807 -0.11193,0.25 -0.25,0.25c-0.13807,0 -0.25,-0.11193 -0.25,-0.25z"></path></g></g></svg>