<svg version="1.1" xmlns="http://www.w3.org/2000/svg" xmlns:xlink="http://www.w3.org/1999/xlink" width="272.31585" height="300.4352" viewBox="0,0,272.31585,300.4352"><g transform="translate(-135.24875,-34.52615)"><g stroke="none" stroke-miterlimit="10"><g fill="none" stroke-width="0"><path d=""></path><path d=""></path></g><g stroke-width="0.5"><path d="M295.49294,160.50103c-2.27526,0.01818 -3.56501,0.16203 -5.35969,-1.91331c-1.55467,-1.7978 -2.66658,-4.09487 -3.84822,-6.35759l-1.57563,-2.03184c-0.39153,-0.49479 -0.61894,-1.2535 -0.57088,-2.08974c0.03304,-0.57492 0.19123,-1.09852 0.43169,-1.51477c-0.64852,-2.86891 -0.96075,-5.8286 -0.68094,-7.92646c0.83646,-6.27123 4.36847,-13.33849 6.4436,-19.02434l0.14592,-1.37538c0,0 0.04894,-0.31535 0.18721,-0.70334c0.0198,-0.38849 0.11264,-0.82319 0.31689,-1.3004c0.95283,-2.22623 2.42472,-0.92511 2.42472,-0.92511c4.90361,4.34088 8.55759,8.76415 11.16914,16.40216l0.72437,2.3175c0.15289,0.34847 0.22493,0.73113 0.25808,1.0443c0.04003,0.3119 0.05952,0.71266 -0.00441,1.13109c-0.54699,9.25599 -1.91091,24.20212 -10.06184,24.26722z" fill="#baafcc"></path><path d="M218.33838,183.56698c4.2662,-2.33432 8.41796,-5.00337 12.62266,-7.47092c8.27131,-4.6027 17.70321,-3.57009 26.7251,-2.14194c3.83099,0.60644 8.02495,0.2978 11.23577,2.94412c2.41073,1.9869 3.97538,4.76841 6.00677,7.11616c0.63162,0.29068 0.91757,0.95544 0.91757,0.95544c3.63596,8.47558 11.4001,14.63089 14.34089,23.39409l0.36704,1.59286c0,0 0.02673,0.11902 0.03465,0.30128c0.38545,0.53401 0.34696,1.20386 0.34696,1.20386c-0.10519,1.83032 -0.21039,3.66062 -0.31558,5.49094c-0.10137,1.76376 -0.20005,3.52767 -0.30411,5.29127c-0.38732,6.56397 -3.74545,19.44824 -12.86252,17.21379c-2.60409,-0.63823 -5.07227,-2.55487 -7.43896,-3.7739c-4.30921,-2.50698 -9.16684,-7.03783 -10.6374,-11.81439l-0.46148,-1.04363c0,0 -0.01042,-0.02423 -0.02573,-0.06802c-0.01776,-0.04286 -0.02614,-0.06787 -0.02614,-0.06787c-2.08505,-6.29971 -7.06115,-11.18972 -9.91518,-17.19643c-2.86428,0.296 -5.6955,0.80292 -7.90482,2.58864l-1.27899,2.51898c-1.36471,4.76602 -5.74242,8.5875 -8.95562,12.11987c-2.93642,3.2281 -5.40052,6.80102 -9.37319,8.87477c-2.60728,1.36101 -5.65142,2.19228 -8.40867,3.23338l-1.11756,0.08685c0,0 -1.74712,-0.10041 -1.6467,-1.84753c0.10041,-1.74712 1.84753,-1.6467 1.84753,-1.6467l-0.31888,0.13275c0.39288,-0.14814 0.79431,-0.29189 1.20161,-0.43382c-3.66465,-0.61849 -7.86444,-1.32407 -10.88542,-3.70464c-3.56743,-2.81118 -4.34401,-6.8747 -4.10503,-11.07861c0.33695,-5.92725 1.56867,-11.32028 3.96762,-16.60781c0.43708,-4.12817 2.90467,-6.31012 5.72445,-9.16257c0.2231,-0.36911 0.55987,-0.56351 0.86697,-0.6655c0.00584,-0.00259 0.01171,-0.00515 0.01762,-0.0077c2.92508,-2.81816 6.12647,-4.33956 9.75879,-6.32705z" fill="#111732"></path><path d="M255.73048,169.93558c1.69775,0.42443 1.27331,2.12219 1.27331,2.12219l-0.53047,1.80926c-1.09981,1.83015 -2.00252,3.7359 -2.89536,5.64648c0.20165,0.02974 0.39072,0.09819 0.56195,0.19823c0.40458,-0.4411 0.82497,-0.87853 1.26202,-1.31584c0.98476,-0.98535 3.46714,-3.65343 4.6395,-3.46575c1.18047,0.18898 1.95799,3.79103 2.65047,4.77447c0.44437,0.63108 0.797,-1.33312 1.31244,-1.90761c0.64997,-0.72443 1.46348,-1.28524 2.23219,-1.88217c0.7876,-0.61161 1.64868,-1.12059 2.54877,-1.56257l-0.11668,-0.17501l1.98009,-1.32006c0.28167,-0.19377 0.62291,-0.30718 0.99063,-0.30718c0.9665,0 1.75,0.7835 1.75,1.75c0,0.10938 -0.01003,0.2164 -0.02923,0.32021l-0.32792,1.96748l-0.02096,-0.00349l0.00811,0.07215c-0.92805,3.71278 -2.03114,7.46197 -3.43756,11.03797c0.01344,0.62907 -0.24432,1.15227 -0.24432,1.15227c-4.28274,8.69246 -9.21111,16.7111 -13.17402,25.54787l-1.62646,1.36558c-0.2347,0.27699 -0.5237,0.43557 -0.76329,0.52579c-0.22517,0.09679 -0.51828,0.17696 -0.83127,0.14165c-2.43988,0.1683 -5.81115,0.29416 -8.03215,-0.49862c-0.98914,-0.35307 -1.57904,-0.84802 -2.09541,-1.3155c-3.17934,4.51818 -9.21295,6.02436 -11.93544,0.06328c-1.52169,-3.33184 -2.04198,-7.00331 -2.97828,-10.56572c-2.03075,-7.72658 -2.86059,-14.88388 -2.15817,-23.00057c0,0 0.16468,-1.90294 1.80304,-1.84536c0.31184,-0.95542 0.62781,-1.85438 0.78818,-2.09635c2.69103,-4.06035 9.41484,-5.70868 12.98163,-2.55222c0.17408,-0.33132 0.45063,-0.65892 0.88749,-0.81202c-0.09718,3.1934 -0.50557,6.79278 0.05094,9.82655c0.40323,2.19821 1.3364,2.93407 1.31867,5.24513l0.14569,0.21081l-0.09527,0.02722l0.65604,2.29614c0.08747,0.33483 0.27161,0.63057 0.52084,0.85562c0.5447,-0.83782 0.81778,-1.84637 1.27139,-2.74349c1.26117,-2.49422 1.40824,-5.46376 2.65121,-7.96804c1.56751,-3.15814 2.91673,-6.42942 4.74924,-9.48803l0.1362,-0.8574c0,0 0.42444,-1.69775 2.12219,-1.27332zM268.94654,178.41759c-0.76221,0.50143 -1.63956,0.95904 -2.33882,1.71874c-0.30676,0.33327 -0.51193,0.77244 -0.73415,1.18798c0.64611,0.38548 1.24068,0.86256 1.76732,1.45159c0.47479,-1.44128 0.90694,-2.89936 1.30564,-4.35831zM265.97377,186.87288l0.044,0.23031c-0.01244,-0.07849 -0.02713,-0.15524 -0.044,-0.23031z" fill="#6390d6"></path><path d="M333.47319,296.17525c1.05408,0.41879 4.37599,1.2768 4.49356,2.40848c0.14216,1.36833 -1.52951,2.28707 -2.29426,3.43061l-0.74818,0.07251c-0.08664,0.053 -0.17545,0.0961 -0.26322,0.13114c-0.43707,0.22917 -0.83255,0.22791 -1.16088,0.13095l-0.17897,-0.01029c-5.83787,-0.33552 -11.77817,-1.0499 -17.62399,-1.01559c-1.52405,0.00894 -3.05854,-0.21079 -4.57214,-0.03231c-1.16032,0.13682 -2.23845,0.8673 -3.40611,0.82701c-0.34426,-0.01188 -3.47572,-1.60438 -4.01574,-1.87349c0,0 -1.5663,-0.78051 -0.78579,-2.34681c0.35717,-0.71675 0.87889,-0.94206 1.33977,-0.97562c-0.09755,-0.23577 -0.14481,-0.49664 -0.12919,-0.76843c0.0211,-0.36712 0.15391,-0.70128 0.36352,-0.97137l0.91708,-1.21792c1.10676,-3.17623 2.24442,-2.38977 5.29573,-3.12233c5.00093,-1.20063 8.72545,-1.28098 13.77451,-0.26227c0,0 0.09066,0.01831 0.22607,0.06735l0.45756,0.09605c1.60098,0.80287 2.69149,1.23072 4.07272,2.52762c0.81761,0.76768 1.0518,1.30314 1.36829,1.84171c0.96103,0.32741 1.91638,0.68427 2.86967,1.06301z" fill="#baafcc"></path><path d="M232.72471,186.37189c-1.47254,-0.27259 -4.10689,0.70978 -5.58649,0.94894c-2.94465,0.47597 -5.8893,0.95194 -8.83396,1.42791c-0.73038,0.24311 -1.45819,0.49347 -2.18405,0.75075c-0.17635,0.18668 -0.59349,0.53784 -1.14704,0.41283c-4.15711,1.51866 -8.26135,3.25969 -12.43343,5.16028c-3.10184,1.41304 -5.87188,2.46491 -8.78099,4.30983c-2.56029,1.61958 -4.76896,3.62128 -7.22747,5.39155c-1.48302,1.06787 -3.64836,2.15873 -4.90062,3.50764c-1.20856,1.30184 -2.53832,3.54092 -3.19671,5.19191c-0.62804,1.57486 -0.51818,4.59416 -1.85379,5.80413c-1.75643,1.59122 -6.1014,0.69829 -8.17345,0.49728l-1.16069,0.18761c-2.37496,0.34894 -3.6621,-0.44683 -5.25613,-1.3923c-0.1695,0.36159 -0.50897,0.63585 -0.93294,0.70438c-0.23948,0.03871 -0.47406,0.00662 -0.68238,-0.08085l-1.7858,-0.71362l0.02764,-0.06916l-0.18779,-0.00849c-2.61922,-2.05392 -6.28386,-2.80422 -8.57079,-5.34672c-1.88517,-2.09584 -2.69612,-5.8134 -3.5726,-8.42529c-0.86997,-5.32312 -1.8812,-11.11346 -0.293,-16.44551c1.49219,-5.00969 6.17093,-11.38603 10.44875,-14.60241c-1.69974,-0.22172 -3.38603,-0.55944 -5.16669,-0.70092c-2.79767,-0.04021 -5.41498,-0.99131 -8.13823,-1.51424c-2.30881,-0.44335 -2.6437,0.29856 -4.50495,-1.26008c-1.58886,-1.33055 -2.7757,-5.53263 -3.06372,-8.65543c-0.34757,-1.2157 -0.44079,-2.44951 -0.12869,-3.60488c0.14737,-0.54558 0.44762,-1.07026 0.83154,-1.57779c-0.13084,-3.30126 0.48125,-6.43154 3.11964,-8.43577c0.7053,-1.28664 1.6344,-2.49702 2.84107,-3.61916c0.14164,-0.31039 0.3044,-0.60856 0.48606,-0.89546l0.2397,-0.45679c0.10596,-0.20736 0.26881,-0.38351 0.47153,-0.50493c3.10772,-3.65237 9.3857,-5.3354 12.78819,-7.6919c7.04514,-4.87933 14.37387,-7.33996 22.84727,-8.70958c0.58354,-0.09432 6.38162,-1.03803 8.5366,-1.36418c-0.96065,-1.70927 -1.15465,-3.81292 -0.57589,-6.76162c0.01357,-0.07894 0.02793,-0.16053 0.0431,-0.2445c0.05991,-0.65064 0.19724,-1.26863 0.40077,-1.85545c0.37126,-1.45513 0.92239,-3.01603 1.69271,-3.8745c0.45743,-0.50978 1.21526,-0.59575 1.88608,-0.81686c0.52813,-0.41757 1.08904,-0.80685 1.67034,-1.16949c2.29522,-2.02858 5.10527,-4.7462 7.83569,-5.83991c2.71144,-1.08611 5.7805,-0.73326 8.63459,-0.87009c0.66292,-0.33143 1.32359,-0.67233 2.02429,-0.87717c6.65128,-1.94445 14.32968,-1.41415 21.17361,-1.36866c4.10095,0.66299 8.53156,0.86216 12.56851,1.72403c2.79841,0.59745 5.30694,1.97105 8.01004,2.81221l0.78993,0.9997c3.29815,0.78205 6.04413,1.96944 9.162,3.31121c1.37815,0.59309 2.3477,0.58537 3.5638,1.59182c2.15769,1.78572 3.5488,4.63035 5.47272,6.55676c0.30259,0.30299 0.67775,0.51977 1.0706,0.71433l1.67783,-0.24182c3.6426,1.08507 6.84473,0.78672 10.01841,3.51662c3.66209,3.15 4.84384,7.80861 8.36448,11.04655c2.06803,4.31073 2.80278,8.11121 3.5664,12.83541c0.27092,1.67609 1.00143,3.86304 0.4291,5.55751c-0.2507,0.74222 -0.59329,1.7169 -1.07154,2.60167c0.0199,0.51465 -0.07002,0.89096 -0.07002,0.89096c-0.86026,3.60008 -1.36415,7.66965 -2.85944,11.08652c-2.76351,6.31488 -7.78513,10.34418 -12.52637,14.98245c-1.67426,1.63789 -3.2828,3.56069 -5.4611,4.4214c-5.89018,2.32739 -12.75898,2.81153 -18.95854,3.81362l-1.0046,0.16238c-0.57463,0.22332 -1.15207,0.19902 -1.62038,0.1007c-0.03825,-0.00647 -0.0763,-0.01368 -0.11413,-0.02161c-0.4663,-0.07873 -1.00541,-0.26369 -1.45548,-0.67138c-2.58757,-1.42777 -4.37363,-1.23152 -7.47223,-0.72323l-2.78027,0.0812c0,0 -1.49051,0.02736 -2.38942,-1.00719c-2.09802,0.11021 -4.29348,-0.26154 -6.57119,-0.68319z" fill="#721c67"></path><path d="M177.60415,258.08092c0.00476,-0.08282 0.01521,-0.16396 0.03093,-0.24307l0.35935,-1.95522l0.06835,0.01256c-0.00012,-0.09931 0.00301,-0.19885 0.00977,-0.29861c0.11775,-1.73771 2.06581,-3.53561 3.38771,-5.13105c1.06331,-1.77795 2.11006,-3.56079 3.17162,-5.33174c2.4252,-4.42006 4.75406,-8.88447 7.17862,-13.29797c1.36363,-2.48227 1.87178,-7.90769 4.7868,-9.26655c0.48931,-0.22809 4.01498,0.02334 4.82968,0.07017l0.74876,0.04304c0,0 0.00514,0.00029 0.01486,0.00114c2.95499,-0.6273 6.1375,-1.36176 8.97429,0.17656c1.24064,0.67277 2.0062,1.99331 2.89463,3.0899c1.51298,1.86747 3.92545,3.90659 4.91277,6.16939c1.00459,2.30237 1.33203,5.905 1.21106,8.37562l-0.05738,0.99835c0,0 -0.00548,0.09538 -0.03617,0.24029c-0.02716,0.14561 -0.05864,0.23582 -0.05864,0.23582c-1.78119,4.94506 -6.65662,8.6038 -9.68004,12.87418c-1.78392,2.51967 -2.73811,5.17908 -4.47999,7.79722c-0.94228,1.41631 -1.58309,1.33317 -2.33103,2.73019c-0.9882,1.84577 -1.39438,3.9588 -2.31938,5.83704c-1.0937,2.2208 -2.17595,3.39157 -2.95184,5.89936c-0.10638,0.6341 -0.21278,1.26819 -0.31916,1.90229c0.0166,0.2919 -0.05254,0.56124 -0.13604,0.77252c-0.07957,0.23503 -0.21698,0.51184 -0.45329,0.735c-2.74558,3.75369 -3.60364,7.98805 -4.48817,12.41985c-0.00063,0.02405 -0.00168,0.04954 -0.00326,0.07631l0.00591,0.00119c0,0 -0.00377,0.06565 -0.02258,0.17078c-0.04651,0.34388 -0.18893,0.79852 -0.59303,1.11419c-0.24687,0.21073 -0.59209,0.36282 -1.07455,0.36586c-0.48164,0.02832 -0.836,-0.10102 -1.09604,-0.29525c-0.42376,-0.28875 -0.59542,-0.73316 -0.66418,-1.07329c-0.02561,-0.10368 -0.03364,-0.16895 -0.03364,-0.16895c-0.21316,-1.73215 -0.23182,-3.49556 -0.60341,-5.20075c-0.23116,-1.06075 -2.72496,-2.29763 -3.51038,-2.95955c-1.06404,-0.89673 -1.79689,-2.1451 -2.86794,-3.03345c-0.68401,-0.56733 -1.77186,-0.1414 -2.65913,-0.19123c-4.00002,-0.22466 -7.48674,1.0543 -11.39672,0.83609l-0.24181,0.44397l-0.30525,1.51124c-0.15836,0.85399 -0.93105,1.47699 -1.82086,1.42585c-0.9649,-0.05545 -1.70216,-0.88263 -1.6467,-1.84753c0.00424,-0.07389 0.01302,-0.14643 0.02603,-0.21739l0.37444,-2.20688l0.06832,0.01159c-0.0042,-0.08691 -0.00651,-0.17401 -0.00677,-0.26135c-0.00013,-0.04424 1.74055,-3.54551 1.81945,-3.69187c1.83917,-3.41149 5.08919,-6.59618 6.57263,-10.10004c1.37483,-3.24732 2.84851,-6.33629 4.40895,-9.42331c-0.00108,-0.04711 -0.00028,-0.09463 0.00247,-0.1425z" fill="#a69cb5"></path><path d="M284.09931,118.60333c1.12167,1.34327 -0.2216,2.46493 -0.2216,2.46493l-0.46414,0.22992c-2.20807,4.03051 -5.13937,7.76658 -7.59821,11.6828c0.58662,0.50594 1.111,1.017 1.52887,1.53211c0.62862,0.77491 1.55215,1.646 1.98401,2.56196l0.08786,-0.00226c0.05476,-0.00198 0.11009,-0.00143 0.16589,0.00178c0.9649,0.05545 1.70216,0.88263 1.6467,1.84753c-0.04517,0.78592 -0.60231,1.42082 -1.32885,1.59934l-1.996,0.54027l-0.01457,-0.05382c-0.08589,0.03778 -0.17315,0.07295 -0.26192,0.10524c-2.49025,0.90579 -5.72876,-1.43878 -7.73516,-2.52008l-0.10976,-0.1943l-0.05613,0.06245l-1.57539,-1.41596c-0.1033,-0.09125 -0.19559,-0.19442 -0.27482,-0.30718c-1.77889,-1.52874 -3.15592,-3.52533 -3.93102,-6.05653h0.00001c0,0 -0.5027,-1.67624 1.17354,-2.17894c0.07802,-0.0234 0.1535,-0.04208 0.22651,-0.05642c0.21844,-0.77221 0.94984,-1.31704 1.78424,-1.26909c0.24338,0.01399 0.47228,0.07707 0.67762,0.17908l1.58972,0.74437l-0.04073,0.08701l0.26504,0.0389c0.96103,0.85064 2.20179,1.73037 3.44477,2.63256c2.40017,-3.74842 5.14758,-7.34981 7.27792,-11.24187l1.29067,-1.2354c0,0 1.34326,-1.12167 2.46493,0.2216z" fill="#6390d6"></path><path d="M183.90009,249.67003c-0.91892,-0.1261 -1.74096,-0.4351 -2.17333,-1.11016c-0.62102,-0.96961 0.27575,-2.2865 0.38851,-3.4324c0.40993,-4.16599 2.25341,-8.23968 4.74387,-11.71179c1.07719,-6.33668 2.6968,-12.5477 4.72297,-18.75632c1.26147,-3.86542 2.09332,-6.23457 4.55174,-9.57026c0.76213,-1.0341 1.27298,-2.41314 2.28876,-3.15189c0.74707,-2.32539 2.70766,-5.14937 3.9357,-5.82207c0.97155,-0.53221 3.53384,-0.26137 4.61129,-0.20168l1.9967,0.11476c0.9649,0.05545 1.70216,0.88263 1.6467,1.84753c-0.01767,0.30742 -0.11368,0.59175 -0.26751,0.83468c0.22562,0.20475 0.415,0.50745 0.51475,0.9517c0.043,0.19148 0.0597,0.3663 0.05546,0.52581c0.43714,6.94128 -0.28229,13.45147 -1.95848,20.19368c-0.55657,2.23869 -0.70143,4.18013 -1.72671,6.28686l0.00796,0.06865c0.08791,0.25707 0.10024,0.5152 0.08454,0.72934l0.00225,0.01943c0,0 -0.00576,0.10033 -0.03858,0.25152c-0.02961,0.15185 -0.06396,0.24629 -0.06396,0.24629c-0.27426,0.73589 -0.54852,1.47179 -0.82278,2.20769l-0.06731,1.49448c0,0 -0.00205,0.03554 -0.01062,0.09619c-0.0052,0.06104 -0.01116,0.09613 -0.01116,0.09613c-0.24155,1.36166 -0.61919,2.71649 -1.18116,3.98176c-0.00926,0.33995 -0.1359,0.62334 -0.29305,0.84622c-0.1741,0.31516 -0.46635,0.62851 -0.9558,0.75628c-0.98567,0.47996 -2.35233,0.89862 -3.62778,1.3751l-0.15175,0.75128l-0.03601,-0.00727l0.01588,0.09518c-0.73517,2.28 -2.91786,8.20944 -5.36173,9.00304c-0.17588,0.05712 -0.43848,0.0701 -0.76281,0.04967c-0.02272,0.91527 -0.90188,1.43108 -0.90188,1.43108l-1.92538,1.07537c-0.62591,0.05054 -5.45292,0.44132 -5.45875,0.43635c-0.21554,-0.18416 -0.33363,-0.41909 -0.39082,-0.68519c-0.41133,-0.08749 -1.21752,-0.37753 -1.37974,-1.31699zM185.52026,244.8005c-0.09045,0.22185 -0.18227,0.44381 -0.27584,0.6658c0.07435,-0.03574 0.15155,-0.06635 0.23109,-0.09141c0.01286,-0.19155 0.02774,-0.38307 0.04475,-0.57439z" fill="#baafcc"></path><path d="M291.79609,222.90252c1.69939,-0.41783 2.11722,1.28156 2.11722,1.28156c0.1063,0.44346 0.22437,0.85532 0.35289,1.2426c0.01385,0.03647 0.02659,0.07422 0.03812,0.11327c0.8977,2.6301 2.28357,4.12934 3.73153,6.76452c1.09258,1.98841 1.78877,3.923 2.81216,5.70915c1.25122,-0.96572 2.33737,0.25289 2.33737,0.25289l0.8095,1.09634c1.40409,3.94995 1.10069,7.9306 2.7822,11.83587c0,0 0.00005,0.0001 0.00013,0.0003l0.40083,0.93864c0.32993,0.67531 0.65985,1.35061 0.98978,2.02591c0.42133,2.13651 0.61139,5.47678 1.71409,7.37549c0.79635,1.37122 2.09708,2.5314 2.45091,4.07712c1.89207,8.26559 3.98447,16.08646 8.7684,23.28915c0.2541,0.27044 0.46995,0.66029 0.42574,1.18834c0.00811,0.33654 -0.08433,0.71358 -0.39918,1.06118c-0.27549,0.37955 -0.6255,0.54747 -0.95652,0.60868c-0.57481,0.17181 -1.04473,-0.019 -1.37032,-0.2518l-0.61563,-0.30988c-6.63443,-0.42418 -9.27713,5.13994 -13.51864,9.39243c-0.22782,0.36509 -0.56802,0.55522 -0.87522,0.65381c-0.29382,0.12543 -0.67086,0.20421 -1.07751,0.08272l-0.13509,-0.00776c-4.42102,-0.25409 -8.47737,-1.10306 -12.82938,-1.7462c0,0 -1.73085,-0.25818 -1.47267,-1.98903c0.08006,-0.5367 0.30171,-0.88217 0.56945,-1.10338c-0.12817,-2.20293 -0.8805,-3.90875 -0.90702,-6.17277c-0.03276,-2.79699 0.31773,-4.97483 -0.42753,-7.71432c-3.49746,-8.3039 -3.67675,-17.6751 -5.80926,-26.28921c-1.17651,-4.75242 -6.04444,-8.69331 -6.28791,-13.43551c-0.44955,-0.3404 -0.72668,-0.89146 -0.69189,-1.49671c0.01193,-0.20749 0.05953,-0.40446 0.13653,-0.58528l0.85541,-2.14692c0.18948,-1.14718 0.60433,-2.20123 1.16008,-3.19008c0.11809,-0.33111 0.25663,-0.65362 0.42664,-0.96285c0.6003,-1.09187 1.5948,-2.17484 2.76272,-3.16522c0.95008,-1.03059 1.91961,-2.02766 2.76095,-3.03997c1.48478,-1.78651 1.75038,-2.54819 4.12141,-3.56588c1.32283,-0.56778 2.34453,-0.54664 3.5469,-0.47113c0.07797,-0.50717 0.3745,-1.11783 1.30281,-1.34608z" fill="#a69cb5"></path><path d="M295.67476,251.02089c-0.75854,-0.28995 -1.24696,-1.21512 -1.85827,-1.79904c-0.17703,-0.1691 -0.34519,-0.34284 -0.50583,-0.52049l-1.74981,-0.09775c-0.52984,0.06536 -0.92108,-0.11378 -1.19988,-0.35244c-0.30218,-0.20546 -0.57668,-0.53396 -0.65413,-1.05838c-1.49811,-4.33632 -4.25164,-7.40418 -5.29379,-12.04035l-0.0253,-0.73342c0,0 0.03535,-0.61507 0.42904,-1.09434c-0.30217,-1.72764 -0.45703,-3.45812 -0.56877,-4.95983c-0.22035,-2.96122 -0.25248,-6.81352 -0.91525,-9.63013c-0.50878,-2.16219 -2.04651,-4.19623 -2.39503,-6.44825c-0.35545,-2.29678 -0.03729,-4.25186 -0.47778,-6.48257c-0.67559,-0.27368 -1.13387,-0.95457 -1.08972,-1.72276c0.02219,-0.38605 0.16791,-0.73567 0.39656,-1.01265l1.33558,-1.65953l0.0383,0.03082c0.07042,-0.10244 0.1462,-0.20166 0.22814,-0.29719c0.88173,-1.02803 4.24604,-2.33687 6.1529,-3.32631c0.0628,-0.21148 0.17656,-0.42425 0.36754,-0.61731c0.21069,-0.25957 0.52544,-0.48063 0.99512,-0.54488c0.46056,-0.1123 0.83442,-0.02195 1.12557,0.14237c0.48975,0.21618 0.72835,0.61359 0.84404,0.96879c2.18681,4.71484 4.83682,9.06141 6.70593,13.90203c1.75852,4.55421 2.80617,9.46642 4.66906,13.96313c0.70868,1.71062 1.19511,1.33017 2.58753,3.04742c1.23733,1.52599 1.99507,3.64742 2.9707,5.34864l-0.04537,0.28682l0.12494,-0.02805l0.38991,1.73637c0.04147,0.16682 0.05887,0.34264 0.04849,0.52327c-0.02118,0.36854 -0.15494,0.70388 -0.36595,0.97451c-0.06792,0.36585 -0.18953,0.73616 -0.28414,1.0725c-0.27573,0.98021 -0.70446,1.83221 -1.20334,2.62631c0.00943,0.02031 0.01876,0.04067 0.02796,0.06111c1.34622,2.98873 -0.52056,9.44029 -3.5834,10.81563c-0.41393,0.18587 -3.86871,-0.05686 -4.49435,-0.09282l-1.24795,-0.07172c0,0 -1.05667,-0.06073 -1.47924,-0.90949z" fill="#baafcc"></path><path d="M156.80218,301.95962c-0.78257,-0.04498 -1.41538,-0.59755 -1.59703,-1.31954c-0.00565,-0.00937 -0.01121,-0.01885 -0.01665,-0.02848c-0.56892,-1.00538 0.44359,-2.26756 0.68894,-3.39638c0.54861,-2.52405 2.26227,-3.90324 3.89538,-5.69399c0.41581,-0.56538 0.83639,-1.08449 1.26595,-1.57372c0.62163,-0.94921 0.6568,-1.46026 1.80065,-2.57611c0.15839,-0.15451 3.37964,-2.68221 3.90232,-2.75473l0.8286,-0.6135c-0.32635,-0.23862 -0.60043,-0.63684 -0.63581,-1.30063c-0.09314,-1.74752 1.65438,-1.84066 1.65438,-1.84066c4.62778,-0.24138 9.30839,0.27385 13.93524,0.53977l0.77553,0.04458c0.52883,-0.06466 0.91942,0.11432 1.19787,0.35269c0.30495,0.20734 0.58171,0.54 0.65621,1.07285c1.0355,3.03099 3.48619,4.63245 4.7023,7.75504l0.27343,1.63592c0,0 0.00919,0.06522 0.01135,0.17212c0.00666,0.10672 0.00288,0.17247 0.00288,0.17247c-0.00334,0.01761 -0.00653,0.0353 -0.00954,0.05307c-0.00569,0.07241 -0.01535,0.15155 -0.03089,0.23464c-0.08639,0.87755 0.0973,1.89364 -0.4918,2.51333c-0.77387,0.81405 -4.04332,1.03434 -5.21447,1.30355c-3.38334,0.77772 -6.12098,2.42596 -8.98907,4.23767l-0.37188,0.0732c-0.45826,0.20558 -0.9119,0.17952 -0.9119,0.17952c-0.61443,-0.03532 -1.22981,-0.07689 -1.84576,-0.11958c-3.02694,0.65231 -5.85999,1.12799 -8.67388,1.1019l-0.49851,0.5182c-0.34223,0.36005 -0.83469,0.5728 -1.36946,0.54206c-0.50726,-0.02916 -0.95161,-0.27158 -1.25093,-0.63518c-0.15007,0.0321 -0.30687,0.04483 -0.46749,0.0356c-0.47604,-0.02736 -0.89667,-0.24255 -1.19404,-0.56945z" fill="#baafcc"></path><path d="M240.25604,206.475c2.70551,0.00914 7.48724,-0.16819 9.93178,-1.54694c1.1452,-0.6459 2.08182,-1.62828 3.24247,-2.24599c1.30286,-0.69339 4.31438,-2.405 5.82479,-1.39388c0.07227,0.04838 1.55301,5.48045 1.68929,5.97635c0,0 0.02395,0.08782 0.0409,0.22887c0.02076,0.14054 0.02076,0.23158 0.02076,0.23158v1c0,4.62163 0.48741,9.53964 -0.30229,14.10985c-0.05439,0.31478 -0.94516,5.06124 -1.4812,5.84506c-1.2905,1.88702 -4.39861,2.9112 -6.2807,4.02386c-1.00499,0.59413 -1.87649,1.55884 -3.02581,1.7639c-0.81896,0.14613 -1.54907,-0.63131 -2.36319,-0.80237c-2.10154,-0.44156 -4.24838,-0.66558 -6.33937,-1.15077c-0.36362,-0.01279 -0.67324,-0.16164 -0.90143,-0.31844c-0.27822,-0.16638 -0.59305,-0.43881 -0.73919,-0.86289l-0.24432,-0.3742c-4.49861,-2.81213 -10.77537,-3.46065 -14.20511,-7.59753c-0.29707,-0.24669 -0.45119,-0.57698 -0.53116,-0.85329c-0.09005,-0.25574 -0.15434,-0.58879 -0.07908,-0.93889l0.01044,-0.59178c0.85142,-5.95471 1.49782,-11.96619 4.74841,-17.18001c0.68198,-1.09387 2.35638,-4.18743 3.82556,-4.31532c2.61405,-0.22753 5.15725,4.6804 6.15905,6.34245c0,0 0.1622,0.27034 0.23417,0.65037z" fill="#baafcc"></path><path d="M245.75604,239.475c-2.08334,0 -4.16666,0 -6.25,0h-1c0,0 -1.39899,0 -1.69528,-1.25084c-0.01817,0.00056 -0.03642,0.00084 -0.05472,0.00084c-0.91914,0 -1.67279,-0.70861 -1.74443,-1.60933l-0.24838,-2.73223l0.01681,-0.00153c-0.00752,-0.02582 -0.01493,-0.05169 -0.0222,-0.0776c-0.81773,-2.91234 0.69332,-6.4274 1.01131,-9.29312c0.26166,-2.35811 0.31443,-5.06584 1.08082,-7.35182c0.61869,-1.84542 2.43738,-3.67818 3.0085,-5.52428c0.65946,-2.13166 0.67824,-4.3806 1.07547,-6.5577c0.04766,-0.77946 0.07284,-1.56335 0.0721,-2.35237c0,0 0,-1.59558 1.52356,-1.73962c0.00917,-0.00544 0.01836,-0.01076 0.02758,-0.01597c0.30736,-0.21485 0.72783,-0.34586 1.28677,-0.21576c2.53785,0.31825 5.07152,0.66501 7.60966,0.98243c0.13977,-0.01677 0.29297,-0.01916 0.46087,-0.00389c0.56241,0.05113 0.92683,0.26724 1.16247,0.53654c0.24686,0.25906 0.42909,0.64155 0.42909,1.20628c0,0.12214 -0.00853,0.23576 -0.02439,0.34145c-0.76892,8.07456 -2.86527,16.08689 -4.77786,23.83298l0.05225,1.07556c0,0 0,0.02638 -0.00324,0.07265c-0.00062,0.04638 -0.00281,0.07268 -0.00281,0.07268c-0.25853,3.1003 -0.31131,6.26581 -1.04621,9.27911l-0.28517,0.19408c-0.35406,1.13148 -1.66258,1.13148 -1.66258,1.13148z" fill="#721c67"></path><path d="M245.62464,241.33744c-1.50475,-1.51371 -2.63734,-3.4881 -3.91257,-5.18743c0,0 -0.57047,-0.76063 -0.30978,-1.58106c-0.04022,-0.20248 -0.04022,-0.34394 -0.04022,-0.34394l0.03155,-0.69384c-0.0197,-0.02127 -0.03956,-0.04243 -0.05955,-0.0635c0.0247,-0.08429 0.04935,-0.16859 0.07394,-0.25291l0.0214,-0.47051c0.92117,-3.18696 0.86286,-6.5787 1.74766,-9.74174c1.36348,-4.87427 2.73522,-9.7312 3.6106,-14.73996c-0.17792,-0.23335 -0.35849,-0.46489 -0.54212,-0.69432c0,0 -1.09322,-1.36652 0.2733,-2.45974c0.60801,-0.48641 1.16192,-0.48587 1.58951,-0.33541c0.00596,-0.02949 0.0119,-0.05899 0.01785,-0.08848c0.05563,0.05696 0.11256,0.11273 0.17057,0.1675c0.42307,0.20629 0.6818,0.5297 0.6818,0.5297c0.03489,0.04363 0.06968,0.08734 0.10437,0.13111c0.56684,0.44254 1.15105,0.86973 1.60838,1.41656c0.94422,1.129 1.40153,2.24031 1.79202,3.39336c0.36318,0.5487 0.72481,1.09764 1.08919,1.6436c-0.06275,0.31492 -0.12555,0.62986 -0.18842,0.94479c0.03208,0.07775 0.06509,0.15584 0.09912,0.23428c2.26775,5.22644 6.37487,9.70556 9.61863,14.24935c1.90235,3.47156 4.87492,5.38258 7.48267,8.1726c4.27809,4.5771 8.18169,9.85689 11.68898,15.08542c1.97446,1.80244 3.24112,3.95696 5.37701,6.23143c2.25803,2.40454 5.36642,4.22311 7.19678,7.00339c1.96073,2.9783 4.16279,5.26487 6.39479,8.10272c1.74739,2.22169 2.91719,4.80559 4.74356,6.99195c6.01761,7.73555 10.45714,15.95803 16.73131,23.47719l0.93824,0.30508c0,0 0.53072,0.26536 0.81957,0.79608c1.55667,0.53814 1.074,2.14703 1.074,2.14703c-0.03771,0.12562 -0.07508,0.25115 -0.11212,0.3766c0.18915,1.11751 0.06663,2.59811 -0.20527,3.89815c0.39824,1.03883 -0.05584,2.46896 0.12264,3.46826c0.25361,1.41992 0.55187,2.8329 0.75164,4.26139c0.42371,3.02989 1.38153,6.57446 2.20192,9.52022c0.02749,0.09872 0.05793,0.19488 0.09084,0.28884c0.72004,0.79892 1.41974,1.55971 2.01956,2.25608c0.25983,0.26401 0.51539,0.66288 0.48678,1.1966c0.0024,0.07396 -0.00046,0.14984 -0.00982,0.22712l0.24275,0.08092c0.7151,0.21992 1.23488,0.88574 1.23488,1.67296c0,0.9665 -0.7835,1.75 -1.75,1.75h-1.75v-0.48867l-0.21379,-0.07126l-0.84005,0.20704c-0.0916,-0.21347 -0.18914,-0.42717 -0.29109,-0.64119c-0.02472,-0.00377 -0.04974,-0.00949 -0.0751,-0.01728c-1.43085,-0.43977 -2.04929,-2.28361 -3.39468,-2.93985c-2.21342,-1.07963 -4.25029,-1.75056 -6.36279,-3.06479l-0.88775,-1.20137c0,0 -0.38887,-0.77774 -0.07015,-1.51088c-0.1304,-0.06995 -0.26193,-0.1384 -0.39467,-0.20522c-4.37626,-2.20331 -10.16476,-2.31652 -14.96992,-2.31652c0,0 -0.0711,0 -0.18465,-0.01433c-0.34397,-0.02969 -0.80653,-0.14896 -1.14258,-0.53607c-0.21119,-0.22446 -0.37392,-0.54045 -0.41352,-0.98531l-0.71535,-0.74355c-1.42964,-2.1619 -1.7363,-4.91583 -3.21358,-6.94749c-1.18188,-1.62541 -3.05084,-2.60334 -4.0931,-4.39346c-1.03467,-1.77709 -1.57793,-3.90364 -2.70181,-5.67192c-0.71362,-1.1228 -1.93014,-1.85323 -2.70509,-2.93462c-1.1747,-1.63921 -2.13286,-3.52205 -3.30109,-5.21634c-0.24018,-0.23528 -0.37136,-0.52616 -0.44301,-0.77373c-0.04871,-0.13834 -0.08988,-0.2993 -0.10551,-0.47334c-0.17316,-0.40877 -0.34631,-0.81753 -0.51946,-1.2263c-1.40395,-2.1096 -3.6117,-3.51472 -4.95335,-5.66911c-1.16757,-1.87485 -1.79856,-4.14409 -2.8024,-6.09159c-1.05115,-2.03928 -3.22575,-2.73012 -4.09567,-4.96262c-0.25106,-0.6443 -0.05727,-1.39888 -0.27004,-2.05682c-0.57306,-1.77206 -2.2141,-3.12293 -3.10258,-4.67362c-1.46445,-2.55595 -2.58979,-4.18794 -4.56592,-6.4909c0,0 -0.66557,-0.77649 -0.3855,-1.65108c-0.24949,-0.3199 -0.49128,-0.64887 -0.72324,-0.98967c-0.72379,-1.06341 -0.85463,-2.44784 -1.52907,-3.54322c-0.72541,-1.17817 -2.31746,-1.51441 -3.51345,-2.21004c-2.12726,-3.5812 -5.52205,-6.10069 -7.93972,-9.47163c-0.6654,-0.92777 -1.25399,-1.90628 -1.80745,-2.90807c-0.18153,-0.15654 -0.35608,-0.31683 -0.52085,-0.48259z" fill="#f0bcd4"></path><path d="M266.65616,82.25256c0.27707,-0.33816 0.63029,-0.67151 1.07718,-1.02756c0,0 0.71182,-0.53387 1.38476,-0.1002l0.12468,-0.04987c0.15061,-0.06433 0.31643,-0.09993 0.49056,-0.09993c0.69036,0 1.25,0.55964 1.25,1.25c0,0.34518 -0.13991,0.65768 -0.36612,0.88388l-0.33338,0.33338c3.40968,-1.07334 7.10764,-0.35685 10.39028,1.56097c0.83145,0.33878 1.64204,0.74881 2.44971,1.2192c1.06228,0.34567 2.22935,0.40918 3.22538,0.91481c1.30651,0.66325 1.98482,1.77369 2.64139,2.8984c0.07877,0.06124 0.15665,0.12344 0.23368,0.18655c0.27839,0.15778 0.54777,0.32833 0.79491,0.53072c0.68644,0.56217 1.20702,1.31173 1.69485,2.09532c0.35862,0.46122 0.70332,0.93683 1.04126,1.41889c1.68776,1.46088 3.27402,2.83811 4.49981,4.98782c1.35917,1.58404 2.32966,3.31044 3.67255,4.90106c1.0559,1.25069 2.71555,1.975 3.42525,3.51306c0.45737,0.99122 0.27499,2.17559 0.58508,3.22228c0.10744,0.36266 0.24206,0.73459 0.39646,1.11214c0.22671,0.43246 0.42745,0.86906 0.59325,1.30582c0.69325,1.40824 1.53792,2.83622 2.17368,4.10669l0.05837,0.35783c0.51187,0.97733 0.7964,2.10167 0.8236,3.20118v1.25c0,0 0,1.16563 -1.1256,1.24568c-0.01437,0.86605 -0.48208,1.93343 -0.15783,2.96713c0.33565,1.07005 1.38594,1.82113 1.71929,2.89191c0.38779,1.24565 0.54929,3.3103 0.56415,4.64528v0.75881c0.07562,0.31793 -0.00771,0.59303 -0.12664,0.80287c-0.0955,0.21871 -0.26301,0.44787 -0.55684,0.57887c-2.20832,1.72698 -3.5957,4.09456 -5.79725,5.84471c-2.33785,1.8585 -5.34302,2.98114 -7.89362,4.3469c-1.58507,0.84875 -2.00162,1.95335 -3.8805,2.39357l-0.45079,0.15791c-0.34781,0.18833 -0.66057,0.16966 -0.91138,0.07856c-0.25553,-0.06242 -0.52212,-0.2168 -0.7068,-0.55611c-2.86216,-3.63515 -5.68101,-5.01447 -9.58334,-7.34277c-2.09587,-1.25049 -3.40076,-2.90213 -5.14221,-4.35232c-1.12568,-0.93741 -3.1655,-1.07226 -4.38874,-1.91744c-0.5417,-0.37428 -1.0849,-0.80488 -1.62792,-1.24657c0.32834,1.14324 0.62607,2.27626 1.0124,3.34079c0.36256,0.99903 1.36115,1.68238 1.72665,2.68034c1.43502,3.91816 0.98984,10.09676 -0.80498,13.74091l-0.11414,0.54674c-0.01373,0.40138 -0.19597,0.66367 -0.40675,0.83354c-0.18498,0.18647 -0.45373,0.33724 -0.83548,0.32081c-1.82069,0.24313 -3.60602,0.25898 -5.43398,0.48748l-1.16651,0.00212c-0.09666,0.00737 -0.20181,0.00494 -0.3162,-0.00936c-0.38906,-0.04863 -0.64083,-0.20405 -0.80315,-0.39447c-0.16882,-0.18469 -0.2918,-0.45379 -0.2918,-0.84588c0,-0.11352 0.01031,-0.21674 0.02906,-0.31058c0.45903,-3.69839 0.72094,-7.19568 0.72094,-10.93942c0,-1.2411 0.32948,-3.25899 0.02553,-4.49867c-0.22028,-0.89844 -0.6204,-1.64567 -1.02103,-2.41112c-0.50614,1.78798 -0.92597,3.5948 -1.58214,5.34347c-0.67634,1.80239 -1.66455,3.56907 -2.60288,5.308l0.25239,0.15143l-0.75,1.25l-0.02332,-0.01399l-0.01123,0.06836c-0.10233,0.1342 -0.24205,0.24422 -0.40252,0.32792l-0.72451,1.69052c-0.18473,0.4596 -0.63461,0.78408 -1.16028,0.78408c-0.35579,0 -0.67687,-0.14865 -0.90451,-0.38723l-0.63308,0.47713c-0.19134,0.23016 -0.44422,0.33322 -0.66574,0.37677c-0.2141,0.06255 -0.48213,0.08762 -0.75453,-0.02391c-0.86107,-0.13478 -2.86657,-0.44457 -3.19017,-0.82325c-1.49335,-1.74751 -0.42009,-4.27715 0.3131,-6.29669c-0.32527,0.17717 -0.66508,0.17717 -0.66508,0.17717c-0.66667,0 -1.83333,0 -2.5,0c-0.43412,0 -0.71747,-0.15077 -0.90242,-0.34758c-0.19681,-0.18494 -0.34758,-0.4683 -0.34758,-0.90242v-0.25c0,-4.73981 -1.94213,-8.23727 -3.89113,-12.48979c-0.5532,-1.20703 -1.56491,-2.18899 -2.30982,-3.22774c0.07685,2.24021 0.2155,4.46976 0.20096,6.71752c-0.00827,1.27895 0.27589,3.22613 -0.96623,4.22376c-0.82335,0.66128 -3.05146,0.52399 -4.03377,0.52624c0,0 -1.25,0 -1.25,-1.25c0,-0.4716 0.17793,-0.76528 0.39953,-0.94816c0.39883,-2.10502 0.97375,-4.16896 1.36661,-6.25207c0.60039,-3.18354 -0.26614,-6.84197 -0.26614,-10.04977v-0.75c0,-2.76887 -0.45691,-6.41084 0.29536,-9.08367c1.81606,-6.45256 5.43787,-11.81211 9.66623,-17.11903l0.65453,-1.18118c0.33333,-0.33333 0.66667,-0.66667 1,-1c2.46003,-2.41132 5.7123,-2.35256 8.54406,-3.96821c2.09541,-1.19553 4.35847,-2.86621 6.96665,-3.14182c0.24305,-0.02568 2.82881,0.00073 2.95684,0.03927c0.44126,0.13285 0.8114,0.33657 1.13894,0.56533c0.38817,-0.9694 1.25319,-1.75268 2.20021,-2.33313zM297.62455,105.19171c0.07862,0.10525 0.15969,0.20874 0.24299,0.31065c-0.05576,-0.16457 -0.11038,-0.32962 -0.16561,-0.49434c-0.02454,0.06218 -0.05033,0.12345 -0.07738,0.18369zM235.74228,135.43586c-0.0733,0.24902 -0.14385,0.50215 -0.21178,0.76135c0.21238,-0.16857 0.24676,-0.4445 0.21178,-0.76135z" fill="#111732"></path><path d="M251.22079,116.4132c-0.00528,-0.0003 -0.01055,-0.00062 -0.0158,-0.00096c-0.18225,0.26632 -0.49719,0.60641 -0.96938,0.73017c-0.30855,0.08308 -0.68339,0.07347 -1.12942,-0.11358c-0.44767,-0.1831 -0.71954,-0.44134 -0.87897,-0.71826c-0.25971,-0.44415 -0.22596,-0.93473 -0.15926,-1.25186c0.03663,-0.18014 0.0822,-0.29449 0.0822,-0.29449l0.00266,-0.00427c0.00949,-0.0256 0.01543,-0.03942 0.01543,-0.03942c0.09014,-0.20954 0.17807,-0.41626 0.26381,-0.62091c0.11675,-2.08072 0.33896,-5.98025 2.36486,-7.28596c0.53909,1.09839 1.11996,2.06437 1.75025,2.98716c0.01252,0.94874 0.00817,1.90549 0.10284,2.92418c0.08942,0.96217 -0.21618,2.20149 0.00684,3.11407c-0.26825,0.33846 -0.70993,0.61584 -1.43604,0.57411z" fill="#6390d6"></path><path d="M332.55001,329.2c0,3.25 -3.25,3.25 -3.25,3.25l-2.20702,-0.23245c-2.59882,-1.06675 -6.74829,-2.9491 -8.19987,-5.56411c-0.92364,-1.66393 0.592,-2.95999 -0.89121,-4.15535c-1.94227,-1.56533 -4.22321,-2.72555 -5.98825,-4.48831c-3.59556,-3.5909 -5.21675,-7.46614 -7.9336,-11.53091c-1.69054,-2.52928 -3.75736,-4.87161 -5.73529,-7.14948c-1.50586,-1.73422 -2.87054,-3.56152 -4.2169,-5.40641c-3.17617,-2.19222 -6.27644,-4.51441 -8.96442,-7.24652c-2.3252,-4.59976 -5.08107,-6.91672 -8.06178,-11.08879c-2.3783,-3.32888 -3.90318,-7.56657 -6.7191,-10.63928c-0.90435,-0.98682 -2.21652,-1.55614 -3.07334,-2.5845c-0.8912,-1.06962 -1.28514,-2.48045 -2.09205,-3.61501c-0.70463,-0.99076 -1.93232,-1.61525 -2.41981,-2.72901c-0.82098,-1.87568 -0.22716,-4.17014 -1.02286,-6.05668c-2.45728,-5.82604 -6.7748,-10.59785 -9.4078,-16.28759c-2.58435,-5.58461 -4.08969,-11.63392 -5.70222,-17.54432c0,0 -0.68949,-2.52814 1.43989,-3.6633c-0.00918,-0.05524 -0.01726,-0.11168 -0.0242,-0.16934c-0.1787,-0.87261 -0.01108,-1.55842 0.29707,-2.08683c0.42347,-0.86556 1.18267,-1.28667 1.82116,-1.49155c0.0473,-0.0185 0.07382,-0.02734 0.07382,-0.02734c5.95896,-1.97791 12.51304,-2.10852 18.31603,-4.43245c6.41711,-2.56986 11.37765,-7.07742 17.02806,-10.76423c1.528,-0.99699 4.26819,-1.52763 5.93993,-2.22271c5.6403,-2.34516 11.07576,-5.82114 15.8254,-9.62085c4.77278,-3.15624 8.50214,-7.56566 12.74167,-11.28998c2.85882,-2.5114 6.69187,-4.66552 9.37855,-7.38466c0.89089,-0.90165 1.17232,-2.3283 2.14724,-3.13836c3.39458,-2.82056 8.20694,-3.92393 11.65077,-6.62521c3.23239,-2.53543 5.3659,-6.50952 8.04486,-9.56774c1.65431,-1.88851 3.5473,-3.55379 5.32582,-5.32582c0.72647,-0.54826 1.45294,-1.09652 2.17941,-1.64477l1.64722,-1.10416c0,0 0.21296,-0.14197 0.5592,-0.28647c3.74365,-6.73172 6.99336,-13.7654 11.38422,-20.13131c2.34839,-3.40471 5.66992,-6.35466 8.13282,-9.80217c0.02503,-0.15271 0.05663,-0.30347 0.09675,-0.45162c0.44021,-1.62562 1.13768,-3.18404 1.45897,-4.83728c0.64026,-2.56341 1.5326,-5.07434 1.94517,-7.68408c0.52433,-3.3167 -0.02435,-7.23451 -0.02435,-10.6029c0,-2.86205 0.48786,-6.74488 0.02435,-9.6029c-0.66664,-4.11049 -2.36797,-8.28016 -2.98238,-12.3765c-0.50083,-3.33908 0.32052,-6.84974 -0.02615,-10.20035c-0.29385,-2.84013 -0.51582,-5.42886 -0.51582,-8.32025c0,0 0,-0.94364 0.50848,-1.81398c-0.00655,-0.55122 -0.00848,-1.11231 -0.00848,-1.68602c0,0 0,-3.25 3.25,-3.25c3.25,0 3.25,3.25 3.25,3.25c0,2.54671 -0.30456,5.18284 0.39112,7.66583c1.04946,3.74566 3.47631,6.75999 4.48867,10.45844c0.50594,1.84834 0.082,3.86493 0.55384,5.72227c0.54574,2.14824 1.77903,4.07154 2.42119,6.19295c0.69813,2.30633 0.93104,4.73877 1.12936,7.14027c0.16513,1.99963 1.52476,5.0172 1.91998,6.53683c0.11172,0.42956 0.20424,0.86004 0.28069,1.29135c0.04674,0.10589 0.08662,0.21215 0.12056,0.31741l0.59754,0.88642c0.3367,1.34718 0.6734,2.69436 1.0101,4.04154c1.02662,4.6718 3.45252,9.10674 4.06259,13.8496c0.46307,3.60004 -0.22861,7.45776 0.00853,11.07685c0.19755,3.01485 1.93241,5.73605 2.44697,8.65482c0.34981,1.98429 0.4549,4.00631 0.56551,6.01816c0.22522,4.09651 -1.72386,7.28577 -2.55845,11.27798c-0.99259,4.74797 -1.09096,9.83193 -2.62552,14.45667c-0.29972,0.90326 -0.74085,1.73944 -1.25251,2.54208c-0.03501,0.45909 -0.05938,0.91658 -0.06018,1.37054c0,0.00404 -0.00001,0.00808 -0.00002,0.01211c-0.01179,6.26277 -0.58393,13.22751 -1.99998,19.57858c0,0.46977 0,0.93954 0,1.4093c0,0.96101 0.00663,6.18014 -0.03141,6.45078c-0.2874,2.04479 -1.26072,3.95915 -1.50141,6.00996c-0.63265,5.39063 -0.8459,11.62974 -2.71457,16.78299c-0.32343,0.89193 -1.22893,1.46855 -1.65224,2.31765c-1.31839,2.64454 -2.64075,5.28711 -3.96269,7.92988c-1.64236,3.28333 -2.79587,6.80234 -4.52224,10.04229c-0.03011,0.0565 -0.06048,0.11287 -0.09109,0.1691c-0.77552,3.43416 -1.62176,6.85798 -2.66953,10.25788c-1.56623,5.08225 -3.25359,10.6108 -5.83528,15.24011c-0.52949,0.94945 -1.44413,1.63649 -2.03195,2.55097c-2.05227,3.1927 -2.65636,6.15846 -3.04886,9.87648c-1.14465,4.0331 -2.31749,8.6422 -4.29261,12.3467c-0.69554,1.30455 -1.82902,2.33621 -2.56379,3.61908c-1.61608,2.8216 -2.42483,6.07939 -4.19579,8.80645c-2.25634,3.47447 -6.54536,5.49909 -9.08882,8.61752c-3.76047,4.61055 -4.96106,11.28933 -9.43642,15.45299c-0.90899,0.84568 -2.29001,1.00515 -3.29978,1.7275c-3.72937,2.66787 -6.53863,5.93609 -9.46588,9.32765c0.28155,0.139 0.56807,0.26718 0.86138,0.38031l-0.20702,-0.23245c0,0 3.25,0 3.25,3.25z" fill-opacity="0.21176" fill="#f0bbd4"></path><path d="M252.47394,220.96714c-0.68534,-0.0297 -1.45454,-0.27933 -2.08661,-1.04354c-0.19198,-0.02721 -3.2025,-0.50442 -2.81222,-3.62671c0.40311,-3.2249 3.62802,-2.82179 3.62802,-2.82179c15.40784,1.92628 30.46809,1.6524 45.89494,0.48118c6.49512,-0.49311 12.83793,-0.5174 19.32444,-1.38558c6.69735,-2.93482 12.9357,-4.83166 19.72252,-7.40855c2.56541,-0.97406 4.59075,-3.10169 7.16316,-4.05711c1.16446,-0.43249 2.48659,-0.03253 3.72376,-0.14397c3.75403,-0.33813 8.94969,-1.85558 12.23993,-3.6294c7.70363,-4.15316 13.42551,-10.95711 20.85602,-15.41852c2.9635,-1.73935 3.58817,-3.40497 5.75867,-5.8898c0.54822,-0.62761 1.44725,-0.87637 2,-1.5c1.69327,-1.91042 3.17006,-4.54799 4.17008,-6.96712c0.0053,-0.07286 0.01481,-0.17054 0.03191,-0.2863c0.03147,-0.26196 0.07596,-0.42506 0.07596,-0.42506c0.7817,-2.85779 1.11014,-5.83843 2.04479,-8.64991c0.16953,-0.50997 0.48592,-0.96107 0.78358,-1.41823c0.20171,-1.00476 0.42567,-1.98938 0.67427,-2.94145c0.10278,-0.39364 0.21904,-0.7572 0.34225,-1.10026c0.26679,-4.89376 -1.20272,-10.38486 0.15853,-14.90255c0.49733,-1.65053 2.16426,-3.77161 3.31273,-5.29089c0.03199,-0.24783 0.0635,-0.49604 0.09444,-0.74469c0,0 0.01738,-0.13904 0.07379,-0.35578l-0.00185,-0.02935c0,0 0.03941,-0.15763 0.13584,-0.39359c0.22122,-0.59021 0.66277,-1.36846 1.51869,-1.78498c0.53068,-0.27795 1.2167,-0.41075 2.09553,-0.22976c0.88491,0.14847 1.47673,0.51996 1.87128,0.97074c0.64785,0.69742 0.77868,1.58259 0.77191,2.21286c0.00475,0.25486 -0.0154,0.41608 -0.0154,0.41608c-0.51681,4.11704 -1.69679,8.19512 -1.98308,12.32728c-0.15414,2.22475 0.02079,4.52474 -0.61668,6.66178c-0.49472,1.65851 -0.95849,3.30508 -1.37674,4.95452c-0.02712,0.13473 -0.05555,0.2681 -0.08534,0.40001c-0.02846,0.12602 -0.06448,0.2493 -0.10658,0.3704c-0.88713,3.62715 -1.54353,7.27925 -1.81465,11.11329c-0.75073,10.61624 -1.63232,22.69605 -5.61203,32.64534c-0.22073,1.14978 -0.18244,2.38136 -0.66218,3.44933c-0.4713,1.04918 -1.55271,1.72345 -2.11274,2.72807c-1.41319,2.53508 -1.26809,5.84798 -2.28078,8.50162c-1.03436,2.71041 -2.36629,5.29975 -3.66484,7.89396c-1.33877,2.67457 -3.85899,4.99529 -3.65925,8.05129v0.45399c0.05481,0.48299 -0.00972,0.93724 -0.09704,1.29032c-0.08272,0.36783 -0.23595,0.82192 -0.5198,1.24206c-2.8448,5.42561 -6.99321,9.99348 -9.71364,15.44152c-1.07037,2.14355 -1.46634,4.59121 -2.60591,6.69879c-2.15328,3.98236 -5.33021,8.12255 -6.75092,12.4607c-0.36327,1.10924 -0.076,2.37552 -0.48861,3.46736c-0.88526,2.34257 -3.02142,4.00627 -4.30947,6.15388c-2.52041,4.20237 -3.46399,9.6009 -4.87668,14.28212c-1.98862,2.56654 -4.41733,5.47034 -6.11692,8.20748c-2.14169,3.44914 -2.55866,7.31034 -5.37545,10.49808c-1.52559,1.7265 -3.21813,3.37166 -5.18695,4.56831c-1.67152,1.01595 -3.75879,1.27068 -5.35326,2.40374c-4.31205,3.06423 -12.00453,6.51298 -17.39357,3.19459c-1.90902,-1.17551 -2.94449,-3.39417 -4.5952,-4.91119c-0.73516,-0.67563 -4.22668,-2.63454 -5.10453,-3.20547c-5.31051,-3.45381 -7.09869,-5.89719 -10.57302,-11.11502c-2.39936,-4.82402 -6.0163,-8.4349 -9.25071,-12.63117c-2.85846,-3.70852 -4.96366,-8.4244 -6.90311,-12.66871c-0.74701,-1.63475 -0.92588,-3.48017 -1.56657,-5.15944c-0.70318,-1.84306 -2.71836,-2.98391 -3.42644,-4.8251c-1.38534,-3.60222 -0.97977,-8.12681 -3.23343,-11.5248c-0.58316,-0.87927 -4.88633,-4.30482 -5.16499,-4.58357c-0.53087,-0.53103 -0.75496,-1.33102 -1.32044,-1.82504c-0.7814,-0.68265 -1.9753,-0.84803 -2.64576,-1.63992c-3.0636,-3.61841 -2.98557,-6.63538 -3.64453,-10.94697c-2.31716,-3.16038 -2.87087,-8.03818 -3.26724,-12.0063c-0.1548,-1.54973 -0.02991,-2.79783 -0.09189,-4.0531z" fill-opacity="0.21176" fill="#f0bbd4"></path><path d="M265.70947,188.10893c4.79781,-1.36833 9.42708,-3.70746 14.22301,-5.04101c1.71565,-0.47705 3.00513,-0.75058 4.20459,-0.92007l3.65102,-1.82551c0.45163,-0.23778 0.96606,-0.37235 1.51192,-0.37235c1.79493,0 3.25,1.45507 3.25,3.25c0,1.2046 -0.65535,2.25612 -1.62897,2.8175l-2.05231,1.23139c-0.52041,0.64309 -1.06729,1.17623 -1.6394,1.63907c2.6291,4.31517 -3.05472,11.83051 -6.55659,13.75791c-0.88242,0.48568 -1.98353,0.37457 -2.94665,0.6694c-5.91701,1.81132 -11.59724,1.67722 -17.69311,1.64074l-2.63827,0.43971c-0.1928,0.03565 -0.39157,0.05429 -0.59469,0.05429c-1.79493,0 -3.25,-1.45507 -3.25,-3.25c0,-0.89746 0.36377,-1.70996 0.9519,-2.2981l2.5,-2.5l0.10563,0.10563c0.19355,-0.23155 0.402,-0.45122 0.62854,-0.6565c1.83095,-1.6591 4.91942,-0.93847 7.11975,-2.06253c0.18832,-0.0962 0.37533,-0.1935 0.56114,-0.2918c-4.7175,0.99946 -9.45659,1.45331 -14.61696,1.45331c-5.32181,0 -10.11004,0.65589 -14.94845,-1.62533l-2.12989,-0.42598c-1.51901,-0.27283 -2.67166,-1.60115 -2.67166,-3.19869c0,-1.59754 1.15265,-2.92587 2.67166,-3.19869l2.44096,-0.48819l0.01943,0.09714c0.09836,-0.04967 0.19757,-0.09786 0.2977,-0.14444c0.79134,-0.36811 1.7481,0.05746 2.6183,-0.00954c1.33974,-0.10315 2.65856,-0.42195 4,-0.5c6.35004,-0.36945 12.83654,-0.00628 19.20195,-0.00628h0.5c0,0 2.07577,0 2.90946,1.65893z" fill-opacity="0.46667" fill="#638fd6"></path></g><g fill-opacity="0.37255" fill="#2e1340" stroke-width="0.5"><path d="M182.28052,275.70155c-0.00927,0.49536 -0.20398,1.03049 -0.24097,1.52804c2.97473,0.72998 5.1656,2.35319 7.74168,5.34577c1.83254,3.18822 9.25332,13.95182 -1.80703,11.18528c-2.58958,-0.64773 -5.07369,-4.70752 -6.69467,-7.02545c-0.79738,-1.14022 -1.15367,-2.90392 -2.46523,-3.36837c-0.09719,-0.03441 -0.19597,-0.05339 -0.296,-0.06083c-0.06593,0.10307 -0.13855,0.20145 -0.21724,0.29454l-1.53977,1.84772c-2.88589,5.06055 -5.66513,9.18345 -10.04019,13.07523c-0.91348,0.81257 -1.76363,1.81983 -2.91826,2.22175c-0.1937,0.06743 -0.39091,0.11646 -0.5908,0.15142l-0.36643,0.24529l0.13367,0.11139l-1.65322,1.98387c-0.50435,0.61399 -1.26947,1.00563 -2.12605,1.00563c-1.43677,0 -2.61619,-1.10183 -2.73938,-2.50662l-0.33031,-3.30308l0.02244,-0.00224c-0.01116,-0.04472 -0.02205,-0.08952 -0.03267,-0.1344c-1.19147,-5.03527 2.06014,-12.30448 5.39765,-16.00778c0.97038,-1.07674 2.14656,-1.94279 3.28592,-2.84768c0.45394,-2.77419 4.42655,-6.8081 5.25932,-8.48975c1.87191,-3.78003 3.64722,-7.46974 5.74949,-11.15638c1.10275,-1.93383 1.2853,-4.28824 2.29848,-6.27047c0.6036,-1.1809 1.40427,-2.3489 2.32711,-3.48857c-0.29021,-1.15757 -0.04614,-2.59106 0.07186,-3.78058c0.12368,-1.24681 1.01379,-2.2924 1.47318,-3.45808c1.11936,-2.84035 2.48401,-5.57802 3.68758,-8.38372c1.74508,-4.06803 2.58166,-8.62924 4.32672,-12.65103c0.36788,-0.84784 0.74793,-1.7033 1.14005,-2.56211c0.15134,-1.40635 0.39097,-2.79296 0.75717,-4.14852c0.78566,-2.90826 2.68459,-5.66581 3.72049,-8.49748c0.65295,-1.78485 0.7462,-3.81384 1.75418,-5.42505c0.72635,-1.16103 1.90255,-1.85261 3.21454,-2.39269l0.82347,-0.98816c0.50435,-0.61399 1.26947,-1.00563 2.12605,-1.00563c0.16591,0 0.3284,0.01469 0.48621,0.04285c0.07988,-0.07815 0.15865,-0.15718 0.23591,-0.23739c0,0 1.94454,-1.94454 3.88909,0c1.94454,1.94454 0,3.88909 0,3.88909c-2.4169,2.2872 -2.4905,4.55386 -4.35237,7.29061c-1.57884,2.32072 -3.0682,4.8092 -4.45276,7.36706c-1.17352,2.93675 -2.19343,5.93894 -3.01209,8.95156c-0.00134,4.11046 0.48219,8.3267 0.28652,12.23751c-0.22012,4.39957 -2.22504,7.85783 -2.68066,12.17907l-1.27351,2.92615c0,0 -0.75705,1.5141 -2.27115,1.57246c-1.84459,6.37823 -4.63558,12.8858 -7.87223,18.2266c-0.07543,0.12446 -0.15317,0.24734 -0.23289,0.36887c-0.00004,1.69534 -0.0005,4.01656 -0.00289,4.14428z"></path><path d="M209.05392,104.35839c0.67994,-0.2167 1.35017,-0.41192 2.01214,-0.5866c4.58052,-2.03798 8.72518,-3.59768 13.96967,-3.79441c2.44545,-0.09173 5.08783,-0.91461 7.34142,0.03933c0.14734,0.06237 0.29224,0.12921 0.43498,0.19998l0.02768,-0.07612l2.68974,0.97809c1.08744,0.36683 1.87046,1.39515 1.87046,2.60634c0,1.01927 -0.55453,1.90903 -1.37836,2.38404l-1.13916,0.6835c0.09824,1.41202 0.23358,2.83145 -0.25504,4.1261c-0.3213,0.85133 -0.85501,1.64526 -1.51421,2.31658c0.12738,0.09633 0.24916,0.20048 0.36464,0.31307c1.11599,1.08803 1.69103,5.43095 1.80014,7.107c0.3107,4.77244 -1.11757,9.28603 -0.69504,13.78556c0.29047,-0.45266 0.63369,-0.86637 1.05278,-1.22263c0.05964,-0.0507 0.11997,-0.10041 0.18094,-0.14917l-0.03798,-0.03256l1.5558,-1.8151l-0.20568,-2.46814c-0.00805,-0.08572 -0.01217,-0.17259 -0.01217,-0.26041c0,-1.51878 1.23122,-2.75 2.75,-2.75c1.43677,0 2.61619,1.10183 2.73938,2.50662l0.31522,3.15215c0.84358,1.45167 1.69896,2.89143 2.58607,4.26166c0.19276,0.29773 0.40662,0.59293 0.63068,0.88877c1.44518,-0.32785 3.27072,-0.53332 4.44122,-0.97172c0.44182,-0.16548 1.58667,-0.78485 2.73931,-1.40156c1.17631,-4.49184 5.47855,-8.17218 10.40728,-7.76251c4.17333,0.34689 4.11081,1.68852 6.29715,4.36987c2.32256,2.84842 5.07007,5.50904 8.45362,7.00756l2.66079,0.29564c1.36454,0.13333 2.4367,1.26397 2.47805,2.65351c0.41708,0 0.83416,0 1.25124,0h2.66667c1.51878,0 2.75,1.23122 2.75,2.75c0,0.99193 -0.52518,1.8612 -1.31265,2.34492l-3.62761,2.30848l-0.03832,-0.06021c-0.1887,0.12765 -0.3841,0.24649 -0.58721,0.35519c-1.79749,0.96205 -4.06139,0.38281 -6.0984,0.46694c-2.75959,0.11398 -5.50432,-0.67803 -8.16083,-1.4339c-5.6241,-1.60025 -14.21648,-0.96117 -16.78803,-7.41956c-0.37415,0.27882 -0.76172,0.5259 -1.18285,0.68398c-1.14086,0.42823 -2.37273,0.55786 -3.57753,0.77504c0.01821,0.14919 0.02958,0.30089 0.03348,0.4553c0.06841,2.70661 -1.1951,6.18728 -3.22784,8.5172c1.03643,2.79162 2.48765,5.44098 5.06286,6.55462c3.16566,1.36897 6.33033,0.07562 9.54758,1.07396c1.66923,0.51798 4.28834,0.62512 4.74217,2.28871c4.02284,-0.03455 8.04064,-0.20752 12.06886,-0.28713l1.4503,-0.72515c0.38215,-0.2012 0.81744,-0.31507 1.27932,-0.31507c0.74573,0 1.42214,0.29683 1.91751,0.77879c0.21438,-0.05646 0.4369,-0.07863 0.6704,-0.05583l2.5853,-1.61581c0.43005,-0.27866 0.94285,-0.44048 1.49345,-0.44048c1.51878,0 2.75,1.23122 2.75,2.75c0,1.0004 -0.53418,1.87604 -1.33288,2.35723l-2.55361,1.596c-0.0493,0.03656 -0.0987,0.07305 -0.1482,0.10947c-0.77708,0.941 -1.87473,1.54433 -3.03187,2.03895c-2.57584,1.55999 -5.36135,2.78601 -8.3002,3.26424c-1.63033,1.0509 -3.35484,1.9642 -5.28568,2.82226c-1.40513,0.62443 -2.60644,1.72026 -4.08474,2.14325c-3.444,0.98545 -8.50694,-1.03443 -11.78666,-1.61691c-2.12839,-0.378 -4.33725,-0.91145 -6.12798,-2.12232c-2.98421,-2.01789 -5.00064,-4.88589 -6.94779,-7.80713c-0.27646,5.13945 0.22003,9.80393 2.64461,14.65579c0.35208,0.70455 0.72314,1.56644 1.1696,2.39932c2.51839,0.58845 5.11592,0.91586 7.54895,1.76365l2.1531,-0.02047c0,0 2.08628,0 2.62453,1.81716c1.84326,0.21378 3.72944,0.20432 5.55147,-0.10636c2.03788,-0.34748 3.9103,-1.76505 5.97502,-1.66202c0.00825,0.00041 0.0165,0.00083 0.02474,0.00126l-0.00103,-0.00568l3.61329,-0.65696c0.17626,-0.03546 0.35861,-0.05406 0.54531,-0.05406c1.51878,0 2.75,1.23122 2.75,2.75c0,1.15647 -0.71386,2.14622 -1.72497,2.55261l-1.98224,0.84953c-1.67007,1.4645 -3.86477,3.55182 -5.91255,4.22986c-1.45082,0.48038 -2.93113,0.40478 -4.39667,0.07089c-2.9763,-0.08587 -6.69022,-0.5346 -9.43692,0.73363c-0.22985,1.66797 -0.21331,3.25662 -0.21331,5.23014v2.66667c0,1.51878 -1.23122,2.75 -2.75,2.75c-1.18042,0 -2.18712,-0.74373 -2.5771,-1.78815l-1.30954,-3.27386l0.06153,-0.02461c-0.06252,-0.11248 -0.12238,-0.22669 -0.17935,-0.34279c-0.67146,-1.36862 -0.66367,-3.06757 -0.35195,-4.55981c0.38852,-1.85984 1.26454,-3.22213 2.44974,-4.21777c0.00417,-0.01647 0.00835,-0.03295 0.01256,-0.04944c-0.45552,0.00827 -0.90612,-0.01783 -1.34344,-0.1368c-0.47831,-0.13012 -0.92664,-0.28289 -1.34756,-0.45648c0.00118,0.0331 0.00177,0.06634 0.00177,0.09972c0,1.51878 -1.23122,2.75 -2.75,2.75h-1.83466l-2.19975,0.82491l-0.03095,-0.08254c-0.09116,0.06074 -0.18339,0.12005 -0.27678,0.17779c-0.27579,0.17052 -0.58583,0.26848 -0.91158,0.33192c-0.18835,1.06565 -0.4756,2.10963 -0.83253,3.04312c0.2612,3.40544 -0.62569,7.63962 -3.32948,7.70642c0.16979,0.579 0.30813,1.15551 0.42052,1.73113c0.65573,0.50262 1.07855,1.29389 1.07855,2.18393v3.66667c0.34448,1.62625 0.31338,3.30041 0.20386,4.97485c1.19182,0.50128 1.90421,1.46828 2.49256,2.55955l0.13713,0.01714c-0.00007,-0.07318 -0.00014,-0.14593 -0.00022,-0.21821c0,0 0,-2.75 2.75,-2.75c1.3886,0 2.07603,0.70116 2.41635,1.39539c0.18811,-0.04065 0.38338,-0.06206 0.58365,-0.06206c1.51878,0 2.75,1.23122 2.75,2.75v3.29402c2.18521,2.49658 4.97831,3.92879 7.25372,6.48914c2.39914,2.69958 2.92496,5.92751 5.11606,8.46497c1.44444,1.67277 3.56586,2.6702 5.00891,4.34417c1.8304,2.1233 3.11289,4.7666 5.16265,6.81004c5.40647,5.3898 10.69849,10.07766 13.77192,17.24901c1.45133,2.00882 3.00231,4.33759 4.83084,6.0216c0.87578,0.80656 2.03505,1.2912 2.83419,2.17376c0.22733,0.25107 2.68791,4.58882 2.99272,5.12224l0.62619,1.24435c1.93557,2.58913 3.8137,5.23428 5.60544,7.92469c0.98885,1.48481 1.41757,3.37922 2.69655,4.62287c1.4694,1.4288 3.52771,2.23082 4.81084,3.82901c2.10471,2.62151 2.67648,5.49153 4.70495,8.04777c1.98235,2.49812 4.91416,4.15983 6.73261,6.75441c0.73031,1.04202 1.01853,2.34612 1.71894,3.40846c2.16506,3.28388 5.52603,6.03021 7.91681,9.21616l1.42147,2.12457c0,0 0.47186,0.70779 0.49705,1.5985c0.72027,0.53465 1.43291,1.07868 2.11995,1.65452c0.49985,0.30867 1.00038,0.8178 1.14626,1.64582c0.14571,0.50748 0.1522,1.11554 -0.18874,1.77212c-0.26863,0.68933 -0.72993,1.08552 -1.20748,1.31073c-0.7833,0.47581 -1.55974,0.38497 -2.14107,0.17456l-2.97161,-0.63216c-1.03095,-0.66504 -2.06191,-1.33007 -3.09286,-1.99511c-2.64901,-3.70861 -6.63436,-5.3613 -10.93392,-6.71124c-2.25176,-0.70699 -4.79984,-0.50871 -6.90109,-1.58342c-0.99119,-0.50696 -1.46915,-1.67529 -2.25662,-2.46228c-1.09785,-1.09719 -2.55142,-1.88379 -3.39544,-3.18638c-0.62633,-0.96662 -0.40281,-2.28627 -0.84084,-3.35152c-0.7621,-1.85336 -2.41287,-3.2772 -3.06395,-5.17242c-0.27878,-0.81149 -0.38057,-1.68215 -0.51185,-2.54031c-1.20092,-1.04409 -2.40767,-2.08473 -3.36469,-3.28397c-3.89616,-4.88224 -7.44904,-11.50037 -10.09789,-17.2822c-0.23053,-0.2906 -0.47197,-0.575 -0.72704,-0.85164c-1.28423,-1.39283 -3.2278,-2.03263 -4.59767,-3.34132c-3.81288,-3.64259 -4.91475,-7.97693 -8.19111,-11.79364c-0.96738,-1.12692 -2.66197,-1.64353 -3.31432,-2.97777c-0.05093,-0.10416 -0.09937,-0.20919 -0.1455,-0.31503l-0.06251,0.04168l-1.97914,-2.96872c-0.30449,-0.44263 -0.48272,-0.97885 -0.48272,-1.55671c0,-0.94286 0.4745,-1.77489 1.19773,-2.27033c-0.1388,-0.17089 -0.28383,-0.33688 -0.43643,-0.49697c-0.71651,-0.75166 -4.63357,-3.44328 -5.4628,-4.47887c-1.63897,-2.04685 -2.85032,-5.65212 -5.00165,-7.3298c-0.92123,-0.7184 -2.21337,-0.83474 -3.15481,-1.52644c-3.01125,-2.21246 -5.18173,-5.44108 -7.05607,-8.66942c-0.31066,0.12169 -0.64885,0.1885 -1.00264,0.1885c-0.85993,0 -1.62767,-0.3947 -2.13195,-1.01283c-1.14008,0.04784 -2.47585,-0.6186 -4.03562,-2.37812c-1.30405,-1.47106 -0.34172,-3.89391 -0.49147,-5.87604l-2.69589,-0.75663c-0.33889,-0.35537 -0.7194,-0.68225 -1.10169,-1.00792c-1.01089,-0.05489 -1.9816,-0.18807 -2.75774,-0.77865c-1.94712,-1.48163 -4.92038,-6.38129 -2.27107,-8.98516c0.36459,-0.35834 0.77877,-0.65684 1.22803,-0.90437c0.06136,-2.53154 0.74539,-5.13483 1.25022,-7.35964l0.00384,-0.00496c-0.04452,-1.71943 -0.25334,-3.41016 -0.9049,-5.05342c0,0 -0.63302,-1.68806 0.49281,-2.84315c-0.61146,-0.50439 -1.00124,-1.2679 -1.00124,-2.12244v-3c0.01184,-1.03572 -0.36688,-2.15273 0.03551,-3.10717c0.05738,-0.1361 0.11723,-0.27091 0.17934,-0.40455l-0.07373,-0.02458l0.45287,-1.35861l-0.36406,-0.028c-1.36786,-0.09172 -2.46176,-1.18365 -2.55659,-2.55066c-4.21837,0.26541 -7.76428,1.16985 -11.14581,4.57187l-2.51246,1.80613c0,0 -2.23777,1.59841 -3.83617,-0.63936c-0.19508,-0.27312 -0.33302,-0.53671 -0.42486,-0.78903c-2.8301,1.25462 -5.6044,2.56459 -8.45284,3.98959c-0.91926,0.45988 -3.85387,1.56756 -4.88196,2.38648c-1.56179,1.24403 -2.70084,2.95638 -4.22503,4.24619c-1.40195,1.18637 -3.19363,1.88835 -4.49965,3.17957c-3.06795,3.03317 -4.45735,8.40906 -6.55688,12.08651c0,0 -1.36438,2.38767 -3.75205,1.02329c-0.90984,-0.51991 -1.27487,-1.18841 -1.37817,-1.81676c-0.4969,0.71273 -1.32271,1.17909 -2.25745,1.17909h-2.66667v-0.30579c-3.55796,0.81358 -7.35977,0.59808 -7.08331,-4.43183c0.12422,-2.25997 2.31259,-3.92232 3.80543,-5.6236c2.03917,-2.3239 4.83614,-4.05607 7.66645,-5.43059c2.0243,-1.87058 4.75396,-3.06227 6.82256,-4.71352c2.3796,-1.8995 4.3329,-4.76528 7.10061,-6.3044c1.15482,-0.64219 2.28002,-0.94781 3.42523,-1.21065c2.56637,-1.20589 5.22048,-2.07485 7.99581,-2.91544c0.76276,-0.36802 1.52659,-0.73255 2.30589,-1.06856c0.53268,-1.82897 2.62799,-1.82897 2.62799,-1.82897l-0.00776,0.02124c2.99156,-0.32011 5.38088,-1.49934 7.61892,-2.99775c0.12431,-0.35407 0.26769,-0.72968 0.4312,-1.12797c0.56999,-1.38849 2.25545,-1.99706 3.51189,-2.81814c1.193,-0.77962 2.80422,-1.40528 4.36782,-2.09122c1.98733,-1.41025 3.79697,-2.81679 5.24189,-4.53882c0.17327,-0.44369 0.35719,-0.88608 0.48324,-1.33159c0.12544,-0.44336 0.41936,-0.90002 0.66485,-1.35043c0.04583,-0.22994 0.08727,-0.4619 0.12445,-0.69552c-0.06751,-0.37023 -0.05558,-0.76296 -0.01679,-1.16344c-0.99727,-1.17293 -4.0035,-0.84649 -5.07686,-1.04304c-1.90202,-0.34829 -3.70188,-1.14291 -5.59882,-1.51789l-1.41278,-0.23401c0,0 -0.47728,-0.07955 -0.99807,-0.37211c-3.08241,0.24623 -6.13102,0.6773 -9.17267,1.26915c-1.02953,0.72819 -1.88146,1.32274 -1.95754,1.35042c-1.2624,0.45922 -2.4258,0.42968 -3.53629,0.14112h-0.56042c-8.90415,1.75987 -18.00252,2.00083 -26.14198,6.34127c-0.5038,0.26865 -4.43148,2.21262 -5.10979,2.53304c-1.62047,0.76548 -3.37503,3.2382 -4.87771,2.26157c-4.83556,-3.14274 -1.86438,-7.71085 0.54878,-9.95819c4.76121,-4.43404 14.14675,-5.35816 20.26318,-6.86713c3.30573,-1.42365 6.4278,-1.87159 9.8817,-2.72948c3.20588,-0.79628 6.15688,-2.58663 9.35667,-3.33902c0.77342,-0.18186 5.47933,-0.59154 6.79279,-0.70727c0.07732,-0.06348 0.15678,-0.12444 0.23881,-0.18238c0.33052,-0.23344 0.69171,-0.41562 1.06359,-0.57993c2.80833,-3.31255 4.83846,-7.10333 7.93315,-10.1337c0.08925,-0.08739 0.17511,-0.17438 0.25772,-0.26106c0.18194,-0.92633 0.27418,-1.86387 0.27016,-2.79439c-0.0048,-1.1111 -0.05061,-2.22338 0,-3.33333c0.03338,-0.73213 0.55986,-1.51933 0.25159,-2.18423c-0.31796,-0.68579 -1.33731,-0.74961 -1.86347,-1.29236c-0.58865,-0.60721 -0.78749,-1.54324 -1.4246,-2.09939c-1.52017,-1.327 -4.31994,-2.4347 -6.43362,-3.45171c-0.8322,-0.08209 -1.66429,-0.16544 -2.49633,-0.24913l-0.10138,-0.05857l-0.00746,0.04103l-1.14454,-0.2081c-0.46737,0.36696 -1.05656,0.58579 -1.69686,0.58579h-2.66667v-0.0712l-0.15208,0.06699c-1.14595,-0.13105 -2.41782,0.14528 -3.43786,-0.39315c-0.08695,-0.04589 -0.17296,-0.0932 -0.25811,-0.14183l-0.02158,0.06473l-2.93984,-0.97995c-1.12372,-0.34559 -1.94053,-1.39187 -1.94053,-2.62893c0,-0.16205 0.01402,-0.32083 0.0409,-0.47519c-1.00688,-0.93202 -2.1364,-1.80185 -2.45355,-3.08357c-0.55964,-2.26172 0.28404,-4.31613 1.70291,-6.0983c0.51488,-1.298 1.17101,-2.56253 1.60315,-3.30453c2.86714,-4.92308 5.70372,-6.75531 10.62614,-9.19588l0.24685,-0.00011l-0.02328,-0.0776l2.43878,-0.73163c0.26809,-0.08721 0.55425,-0.13434 0.85143,-0.13434c1.51878,0 2.75,1.23122 2.75,2.75c0,0.19067 -0.0194,0.3768 -0.05635,0.55654c0.7207,-0.21341 1.45618,-0.43282 2.21026,-0.67315zM259.85261,133.33708c3.59204,1.28051 7.04242,4.33191 10.17877,6.13147c0.18744,-0.10693 0.38053,-0.1849 0.56755,-0.24151c-0.79819,-0.64868 -1.5747,-1.35355 -2.34346,-2.12301c-0.74588,-0.74656 -3.31774,-5.2176 -4.91461,-5.20129c-1.44919,0.0148 -2.65478,0.58432 -3.48825,1.43434zM312.96247,320.50174c-0.01183,-0.01101 -0.02366,-0.02202 -0.03548,-0.03304c0.00097,0.00745 0.0019,0.0149 0.00281,0.02236c0.01089,0.00355 0.02178,0.00711 0.03267,0.01067zM171.56751,216.63912c0.07594,-0.13492 0.15103,-0.27108 0.22536,-0.40838c-0.08543,0.008 -0.172,0.01209 -0.25952,0.01209c-0.02457,0 -0.04907,-0.00032 -0.07349,-0.00096c0.04541,0.12831 0.08156,0.261 0.10765,0.39726z"></path><path d="M321.14221,288.6232c0.86963,2.60888 -1.73925,3.47851 -1.73925,3.47851l0.07492,-0.331l-3.88909,-3.88909c0,0 0.74332,-0.74332 1.77038,-0.85124l0.30454,-0.14643c0,0 2.60888,-0.86963 3.47851,1.73925z"></path><path d="M279.86545,213.1598l-0.24035,-1.03472c-1.41694,-4.05718 -1.03142,-6.12371 0.29936,-10.16855c0,0 0.00748,-0.02244 0.02313,-0.06246c0.17336,-0.54026 0.52968,-1.18266 1.26208,-1.54098c0.38281,-0.22324 0.86325,-0.35932 1.45692,-0.29895c0.27893,-0.74355 0.91748,-1.55435 2.37192,-1.63991c2.74525,-0.16149 2.90674,2.58377 2.90674,2.58377c0.29691,5.06832 0.94803,9.91267 2.30695,14.64058c0.24375,0.42272 0.47388,0.81633 0.6688,1.15653c1.263,2.28626 1.93487,4.70549 2.57513,7.17738c3.05462,6.23252 6.99261,12.50892 9.00456,19.06347l0.11598,2.45687c0,0 0,0.19365 -0.05139,0.47816c-0.09534,1.57762 0.40597,3.49492 -0.75407,4.46638c-1.66452,1.39393 -3.24283,1.58222 -4.66672,1.0885c0.09647,0.18892 0.18464,0.38235 0.26285,0.58125c0.49513,1.25915 0.78677,2.36475 0.95101,3.42172l0.65407,1.43896c0.17363,0.36053 0.27092,0.76475 0.27092,1.1917c0,0.1354 -0.00979,0.26852 -0.02869,0.39868l0.4755,1.18876c0.14152,0.33135 0.21985,0.69614 0.21985,1.07923c0,0.29298 -0.04582,0.57526 -0.13068,0.84007c0.57195,0.77862 1.13746,1.56001 1.69635,2.34331l1.40533,2.45224c0,0 1.36438,2.38767 -1.02329,3.75205c-2.38767,1.36438 -3.75205,-1.02329 -3.75205,-1.02329l-1.26134,-2.21443c-3.81756,-5.33768 -7.89538,-11.11166 -12.34471,-15.92253c-0.62925,-0.68038 -1.34502,-1.33224 -2.01741,-2.01222c-2.43199,-0.78702 -4.7927,-0.93228 -6.48728,-4.0661c-0.60631,-1.12126 -0.20363,-2.54199 -0.25159,-3.81577c-0.13555,-3.6002 -0.3185,-8.2268 2.53008,-11.00082c1.22537,-1.1933 2.4929,-1.58775 3.83475,-1.70977c-0.68444,-3.87252 -1.03036,-7.79773 -1.03149,-11.45607c-0.00022,-0.72226 -0.09919,-1.46227 -0.1801,-2.19905c-0.81803,-0.62158 -1.07112,-1.63398 -1.07112,-1.63398zM296.25946,242.76479c0.19753,0.32363 0.43285,0.62887 0.67454,0.93022c-0.17245,-0.48247 -0.36091,-0.93823 -0.56133,-1.37714c-0.0339,0.14952 -0.07156,0.29852 -0.11321,0.44692z"></path><path d="M248.53335,126.57616c-2.75,0 -2.75,-2.75 -2.75,-2.75v-0.33333c0,-5.34728 0.95181,-9.97398 2.05899,-15.2332c0,0 0.56653,-2.69101 3.25754,-2.12448c2.69101,0.56653 2.12448,3.25754 2.12448,3.25754c-1.03517,4.91695 -1.94101,9.12285 -1.94101,14.10014v0.33333c0,0 0,2.75 -2.75,2.75z"></path><path d="M298.2,139.07616c2.75,0 2.75,2.75 2.75,2.75v3c0,2.47814 0.79302,8.0689 -0.01338,10.27098c-0.03157,0.08621 -0.06455,0.17172 -0.09885,0.25657l0.05883,0.01177l-0.65668,3.28338c-0.23085,1.28532 -1.35482,2.26064 -2.70659,2.26064c-1.51878,0 -2.75,-1.23122 -2.75,-2.75c0,-1.77778 0,-6.88889 0,-8.66667c0,0 0,-0.86137 0.48208,-1.61995c0.09166,-1.27263 0.18459,-2.39928 0.18459,-3.04672v-3c0,0 0,-2.75 2.75,-2.75z"></path><path d="M253.65001,199.725c2.75,0 2.75,2.75 2.75,2.75v0.75c-0.00153,0.96643 -0.04767,1.93414 -0.03678,2.90021c1.99812,0.62357 1.77314,2.87343 1.77314,2.87343c-0.07878,0.77657 -0.15757,1.55313 -0.23635,2.3297v2.39666c0,1.51878 -1.23122,2.75 -2.75,2.75c-1.2112,0 -2.23951,-0.78302 -2.60634,-1.87046l-0.97809,-2.68974l0.05847,-0.02126c-0.04999,-0.08652 -0.09829,-0.17419 -0.14479,-0.26308c-0.7547,-1.44289 -0.57706,-6.88642 -0.57925,-8.40545v-0.75c0,0 0,-2.75 2.75,-2.75z"></path></g><g fill-opacity="0.37255" fill="#2e1340" stroke-width="0.5"><path d="M265.7,187.8c0,2.75 -2.75,2.75 -2.75,2.75h-0.66667c-3.66425,0 -7.3365,0.06803 -11,0c-0.65255,-0.01212 -1.6899,-0.50292 -2.25,-0.39479c0,0.85312 0,1.70625 0,2.55937c0.23731,0.75877 0.41463,1.49 0,2.08542c0,0.33333 0,0.66667 0,1l-0.17864,1.69166c-0.54254,-0.27443 -1.12401,-0.49695 -1.7087,-0.7152c-1.10947,0.91996 -2.35157,1.72101 -3.43402,2.6652l-0.17864,-3.64167c0,-0.33333 0,-0.66667 0,-1c-0.68294,-0.73047 -0.05264,-2.00139 0,-3c0,-0.71278 0,-1.42556 0,-2.13834c-0.3854,1.05327 -1.39658,1.80501 -2.58333,1.80501h-2.66667c-1.74987,0 -3.50478,-0.14379 -5.25,-0.02401c0,1.64689 0,3.29378 0,4.94067v2.66667c0,0.81003 -0.35023,1.53827 -0.90752,2.04154c0.10777,3.32762 0.23105,6.70753 -0.1089,9.9252c-0.31846,3.01428 -1.31476,5.43603 -1.2187,7.91939l0.29282,0.13014c1.61516,0.07504 3.07309,0.26619 3.70203,0.6852c0.98469,0.65602 1.45324,1.77904 1.91009,2.92734c0.00256,-0.00354 0.00512,-0.00707 0.00767,-0.0106l0.55735,-2.22938c0.27791,-1.22463 1.37312,-2.13883 2.68184,-2.13883c1.44437,0 2.62867,1.11353 2.74125,2.52895l0.33079,3.63874l-0.04456,0.00405c0.01951,0.07497 0.03812,0.15024 0.05579,0.22583c0.10671,0.45644 0.17662,0.90348 0.2184,1.34277c0.22693,0.05364 0.443,0.1354 0.64432,0.24139l2.61718,1.30859l-0.12614,0.25227l0.74637,0.17276c1.7446,2.63274 3.27038,5.97612 6.01609,7.75145c2.1756,1.40671 4.65049,2.56185 6.28594,4.57117c2.16988,2.66592 2.9058,6.24679 5.17712,8.8202c1.52664,1.72968 3.82609,2.7145 5.19911,4.56848c1.96888,2.65858 4.8755,7.21432 6.42645,11.1853c0.24701,0.1806 0.46276,0.40141 0.63763,0.65279l1.64536,2.30351l-0.07607,0.05433l0.19424,0.1256c2.48985,5.01752 6.06052,8.27034 9.11443,12.87692c0.9897,2.9289 2.42144,5.55786 4.09861,8.02369c1.27464,1.50106 2.53633,3.00177 3.66193,4.57658c0.25492,0.35666 0.49854,0.7235 0.73374,1.09805c1.90795,2.24978 3.9008,4.44782 5.7927,6.72342c2.65504,3.19352 4.35759,7.20771 7.41403,10.07431c2.47174,2.31823 5.24804,3.92463 7.5569,6.55888c1.37661,1.57061 1.91635,2.52023 2.74188,3.51607c2.9859,1.31442 5.53792,3.12541 8.17984,5.10389l1.34032,2.74601c0.34146,0.5346 0.72774,1.44878 0.28863,2.45246c-0.16362,0.49811 -0.5024,0.99719 -1.15645,1.35712c-0.61443,0.42404 -1.21233,0.50386 -1.73103,0.42744c-0.84005,-0.04308 -1.4153,-0.49778 -1.78446,-0.95308c-1.99014,-1.95817 -4.1551,-2.91181 -6.27625,-4.64451c-0.67029,-0.54754 -1.28795,-1.15073 -1.87563,-1.78541c-0.12855,-0.05004 -0.25817,-0.09897 -0.3889,-0.14675c-2.21349,-0.80902 -4.65426,-0.75329 -6.96262,-1.22821c-5.4828,-1.12802 -9.0982,-3.97403 -11.86155,-8.72747c-1.46079,-2.96821 -3.71621,-4.78649 -5.33333,-7.66667c-1.91487,-3.41049 -2.79082,-7.44762 -5.13619,-10.68487c-2.27335,-3.13785 -4.33435,-6.50261 -6.63012,-9.61735c-1.53723,-2.08562 -3.72211,-3.62616 -5.32787,-5.65948c-1.66622,-2.10988 -2.15215,-4.60039 -3.49703,-6.90619c-1.84702,-3.16674 -5.47624,-4.92149 -7.32349,-7.98394c-0.65334,-1.08315 -0.84639,-2.38409 -1.26959,-3.57613c0,0 -0.06712,-0.20136 -0.10812,-0.51084c-0.07139,-0.07111 -0.14096,-0.14423 -0.20851,-0.21958c-3.59586,-4.01079 -7.1159,-8.64929 -10.03214,-13.03472c-2.42999,-3.65422 -6.1809,-6.3283 -8.62569,-9.9392v0.41805c0,1.51878 -1.23122,2.75 -2.75,2.75c-1.51878,0 -2.75,-1.23122 -2.75,-2.75v-2.12511c-0.3406,-0.6191 -0.60449,-1.23331 -0.80748,-1.84809c-0.7629,-0.15708 -1.41043,-0.63013 -1.79975,-1.27634l-1.64143,-2.62629l0.12131,-0.07582c-0.15571,-0.19835 -0.30069,-0.4056 -0.43275,-0.62355c-0.44736,-0.73831 -0.59096,-1.57497 -0.53006,-2.44842c-0.42999,0.27855 -0.94269,0.44029 -1.49317,0.44029c-0.91114,0 -1.71879,-0.44312 -2.2192,-1.1256l-1.9808,-2.64106l0.03092,-0.02319l-0.09896,-0.07166c-0.66328,-1.1003 -1.54542,-2.09546 -1.98984,-3.3009c-0.05744,-0.1558 -0.11023,-0.31113 -0.15861,-0.46602c-0.61085,-0.50439 -1.00017,-1.26751 -1.00017,-2.12156c0,-0.63207 0.21324,-1.21433 0.57171,-1.67877c0.15927,-2.77271 1.1499,-5.47471 1.44471,-8.28797c0.40204,-3.83647 0.0975,-7.92723 0.00688,-11.8527l-0.17773,-0.24883l0.08623,-0.06159c-0.11907,-0.12373 -0.23429,-0.2515 -0.34512,-0.38389c-0.70571,-0.84302 -0.64461,-2.10705 -0.84645,-3.18777c-0.27895,-1.4936 -1.11137,-3.09127 -0.59301,-4.51954c0.36121,-0.99527 0.92685,-1.76363 1.63477,-2.35541c-1.11163,0.1835 -2.23117,0.30668 -3.36532,0.32646c-1.61049,-0.01703 -3.31364,0.18965 -5.04206,0.55987c-4.07392,2.0847 -8.36105,3.79962 -12.54101,5.66364c2.20855,1.25807 1.04275,3.58966 1.04275,3.58966c-3.33587,6.63557 -8.31364,12.56505 -10.84097,19.61366c0.1313,0.46125 0.1313,0.82317 0.1313,0.82317l-0.14112,1.53629c-2.72602,8.10078 -1.29455,17.0028 -4,25c-0.35902,1.06124 -1.29553,3.00634 -2.51323,4.74103c0.45668,0.89121 0.27666,1.88128 0.27666,1.88128c-1.19465,6.48893 -3.06161,13.34612 -5.88534,19.34839c-0.91568,1.94643 -2.02181,3.79748 -3.01796,5.70398c-0.33348,0.63824 -1.23744,1.44005 -1.23805,2.05341c1.04314,0.08148 1.81296,0.19318 1.86407,0.21303c1.23306,0.47902 3.87293,3.26056 4.84951,4.2447c0.75367,0.75951 1.89233,1.28039 2.25092,2.28851c0.04344,0.12212 0.08416,0.24492 0.1224,0.36834l0.08608,-0.04782l1.64241,2.95633c0.23548,0.40543 0.37033,0.87656 0.37033,1.37919c0,1.51878 -1.23122,2.75 -2.75,2.75c-0.85659,0 -1.6217,-0.39164 -2.12605,-1.00563l-1.5335,-1.8402c-2.14243,-1.79519 -3.76496,-3.96156 -5.96861,-5.68796c-0.25578,-0.20039 -0.53903,-0.37613 -0.83183,-0.54295c-1.62818,0.50993 -2.98847,2.73826 -4.8343,2.74428c-0.1042,0.31927 -0.21078,0.63274 -0.31266,0.93738c-0.3396,1.01547 -3.52756,3.93461 -4.38487,4.85717c-1.93713,2.08455 -3.68623,4.26756 -5.33908,6.57646l-1.25495,2.19615c-0.46685,0.85329 -1.37292,1.43197 -2.41415,1.43197c-1.51878,0 -2.75,-1.23122 -2.75,-2.75c0,-0.3266 0.05693,-0.6399 0.16142,-0.93052l1.31303,-3.9391l0.12297,0.04099c0.02407,-0.17024 0.05177,-0.34013 0.0835,-0.50964c0.17949,-0.95886 1.27537,-1.48011 1.84161,-2.27447c0.65272,-0.91568 1.07097,-1.99913 1.80932,-2.84727c1.23529,-1.41898 3.03953,-2.21742 4.54445,-3.35312c0.02772,-0.03019 0.0556,-0.06017 0.08365,-0.08992c-1.04769,-0.79101 -0.96776,-3.67716 -0.90381,-5.64988c0.08103,-2.49966 2.87232,-5.76025 3.79625,-8.10725c1.73914,-4.41785 4.60273,-8.69325 7.30542,-12.57497c1.69836,-2.43926 2.336,-5.7435 4.70591,-7.72202l0.66168,-0.92635c-0.48049,-0.71756 -0.94153,-1.47044 -1.49658,-2.05267c1.53161,-4.88588 4.67766,-9.08797 6.1072,-13.91802c0.89883,-3.03689 1.83627,-6.3976 2.61048,-9.47032c0.05293,-0.21005 0.10167,-0.421 0.1469,-0.63271c0.0783,-0.46333 0.1617,-0.92586 0.25117,-1.38743c0.38736,-2.51868 0.48264,-5.1047 1.33857,-7.55061c2.40313,-6.86725 7.05586,-12.64086 10.45141,-18.99883c-1.27102,0.96557 -2.54869,1.91941 -3.9453,2.68239c-0.03367,0.01839 -0.06758,0.03619 -0.10171,0.05342c-1.55935,1.20107 -3.13074,2.38314 -4.92932,3.29533c-1.66594,0.84491 -3.59995,1.59426 -5.48985,2.28149c-0.74993,0.62697 -1.47709,1.27536 -2.18321,1.93254c-1.20413,1.12068 -2.42714,2.22411 -3.6894,3.27942c-0.96913,1.95153 -1.61006,4.02092 -2.89764,6.22125l-0.21493,2.45195c0,0 -0.00034,0.00302 -0.00108,0.00885c-0.04355,0.5712 -0.24522,1.27869 -0.88487,1.79597c-0.37677,0.35739 -0.90985,0.62983 -1.66187,0.64734c-0.74759,0.08336 -1.31235,-0.11524 -1.73359,-0.41896c-0.70316,-0.42696 -0.99776,-1.10107 -1.11741,-1.66129c-0.00152,-0.00567 -0.00226,-0.00862 -0.00226,-0.00862c-0.56432,-2.32311 -1.24982,-4.07453 -0.69261,-6.55324c0.58483,-2.60159 2.43906,-4.4565 4.51942,-6.12155c1.3615,-2.06083 3.1804,-3.72561 5.10877,-5.35975c0.85044,-0.33061 1.73286,-0.65962 2.6241,-0.9945c2.35687,-1.88903 4.89942,-3.56818 7.66375,-4.82014c0.81088,-0.36724 1.749,-0.40742 2.5923,-0.6809c1.11348,-0.91174 2.23617,-1.81831 3.50219,-2.53275c0.53782,-0.30351 1.07956,-0.59867 1.62464,-0.88672c0.96794,-0.74274 1.94674,-1.4689 2.99458,-2.08592c4.00463,-2.35813 8.88972,-4.52341 13.778,-5.72679c2.69385,-1.47049 4.94534,-3.13191 7.34154,-5.1826c0.36708,-0.31415 1.09147,-0.15553 1.33031,-0.57553c0.155,-0.27255 -0.40737,-0.47839 -0.58343,-0.73783c-0.3996,-0.58883 -0.77565,-1.19321 -1.15593,-1.7948c-0.3379,-0.37586 -0.51934,-0.82116 -0.61676,-1.19101c-0.11323,-0.36472 -0.19531,-0.83762 -0.10861,-1.33462c0.05206,-1.50081 0.54583,-3.03989 0.15989,-4.4855c-0.30323,-1.13579 -1.94451,-1.32173 -2.92436,-1.97123c-2.39462,-1.58727 -4.71416,-2.91688 -6.99731,-4.38961l-0.12484,0.33291l-2.37749,-0.89156c-1.30446,0.54702 -2.6464,0.99743 -4.01736,1.32459c-2.11927,0.50573 -4.3585,0.53669 -6.41374,1.25989c-2.21759,0.78032 -5.76929,2.65225 -8.08201,3.10714c-1.09022,0.21444 -2.23927,-0.19388 -3.33333,0c-3.04263,0.5392 -6.01952,2.87424 -8.91945,3.89336c-4.89433,1.72 -10.06982,3.14127 -15.21658,3.79378c0,0 -2.72876,0.3411 -3.06986,-2.38767c-0.3411,-2.72876 2.38767,-3.06986 2.38767,-3.06986c4.77869,-0.58772 9.57114,-1.96436 14.11675,-3.53956c3.38542,-1.17315 6.17257,-3.38673 9.74721,-4.10664c1.08924,-0.21937 2.24042,0.20028 3.33333,0c0.38136,-0.06989 2.07759,-0.74703 3.73403,-1.42869c-0.00458,-0.06485 -0.0069,-0.13033 -0.0069,-0.19635c0,-1.30873 0.9142,-2.40393 2.13883,-2.68184l2.61086,-0.65271l0.00581,0.02326c0.02704,-0.01467 0.05417,-0.02919 0.0814,-0.04356c1.31188,-0.6924 2.87881,-0.55427 4.39614,-0.61903c1.37182,-0.34278 2.70651,-0.72002 4.07222,-1.14038c5.46719,-2.59375 10.14252,-7.93392 13.57806,-12.53573l1.9808,-2.64106c0.16171,-0.22055 0.3555,-0.41609 0.5745,-0.57977c0.01102,-1.96513 0.22804,-4.05832 0.22804,-5.79583c0.00913,-0.51753 0.00757,-0.98184 -0.0089,-1.40455c-3.85835,-2.49708 -7.05311,-5.42416 -11.37263,-7.42236c-5.77621,-2.67206 -14.90024,-2.03173 -20.86817,-0.5052c0,0 -2.66789,0.66697 -3.33486,-2.00092c-0.30361,-1.21444 0.0838,-2.01426 0.59603,-2.52529c-0.4223,-0.48344 -0.67814,-1.11601 -0.67814,-1.80835v-2.66667h0.27684c-0.05087,-0.38481 -0.06138,-0.7732 -0.01721,-1.16643c0.15231,-1.35614 1.8695,-2.01583 2.98516,-2.80173c0.63012,-0.44387 1.30753,-0.82281 2.01832,-1.14214c4.41109,-4.05474 9.66549,-4.97304 15.82022,-4.97304c0.9039,0 6.32428,-0.03415 6.83924,0.13119c2.09724,0.67337 4.05333,3.12852 5.75634,4.37903c0.44004,0.32312 0.89358,0.63881 1.34429,0.95993c0.736,0.26579 1.42736,0.60605 2.02144,1.06351c2.52113,1.9413 2.74558,3.19327 3.89239,5.7829c0.72879,1.6457 1.5333,3.39049 2.30759,5.19309c1.64018,2.30884 2.81145,4.38573 4.09174,6.93104c0.00569,-0.01312 0.01137,-0.02623 0.01705,-0.03935l0.26113,-0.17668l-0.10231,-0.07308l1.64536,-2.30351c0.49673,-0.71405 1.32332,-1.18142 2.25907,-1.18142c0.35499,0 0.69428,0.06726 1.0058,0.18974c0.50106,-0.52751 1.20922,-0.85641 1.9942,-0.85641c1.51878,0 2.75,1.23122 2.75,2.75v3c0,1.0528 -0.00832,2.11103 -0.01779,3.17277c2.51657,0.69801 4.87292,2.45763 7.38412,3.19105c2.44095,0.7129 4.85534,1.2865 7.27288,1.78565c0.23711,-0.80772 0.87808,-1.89947 2.61079,-1.89947c0.15919,0 0.30917,0.00922 0.45047,0.02658c-0.10315,-0.25103 -0.19448,-0.50912 -0.27309,-0.77451c-0.51655,-1.74395 -1.90471,-3.9795 -0.77101,-5.40179c2.68071,-3.36311 7.70659,-0.56557 9.91633,1.03759c3.08305,2.23675 4.35006,4.17467 7.91951,5.74201l0.09482,0.11363l0.02734,-0.04785l2.28698,1.30685c0.85329,0.46685 1.43197,1.37292 1.43197,2.41415c0,0.29679 -0.04702,0.58261 -0.13401,0.8504l1.80113,1.12571c0.79869,0.48119 1.33288,1.35683 1.33288,2.35723c0,1.51878 -1.23122,2.75 -2.75,2.75c-0.13036,0 -0.2586,-0.00907 -0.38413,-0.02662l-2.49661,-0.31208c-4.31517,-0.00888 -7.74969,-1.34627 -11.92414,-2.03537c-6.10136,-1.00719 -11.99523,-1.96944 -17.97811,-3.73976c-1.76325,-0.52174 -3.84165,-1.90709 -5.83986,-2.83985c0.04037,5.00309 0.3318,10.00853 1.61046,14.81776c0.37765,1.42039 1.24876,2.54993 1.87601,3.76075l2.68007,0.59557c1.25838,0.25235 2.20632,1.36361 2.20632,2.69626c0,0.51237 -0.14012,0.99201 -0.38414,1.4027c0.28052,0.08729 0.56062,0.16584 0.84013,0.23404c2.90193,0.70801 8.1027,0.32653 11.12468,-0.0328c4.16752,-0.49554 9.61303,-3.37287 13.80773,-2.68035c0.06522,0.01077 0.13019,0.02237 0.19494,0.03477v-0.04169h3.33333c1.51878,0 2.75,1.23122 2.75,2.75c0,1.41573 -1.0698,2.58159 -2.4451,2.73329l-2.01571,0.25196c-4.80125,4.44036 -9.69185,6.7277 -16.28919,6.76475c-6.99844,0 -15.26648,1.45514 -20.87079,-3.7344c-1.72746,-1.59961 -2.50007,-3.4032 -3.6028,-5.05328c-0.05112,-0.01339 -0.09441,-0.0278 -0.12924,-0.04324c-1.85145,-0.8208 -2.863,-1.93254 -3.39983,-3.22895c-0.70028,-0.36808 -1.43848,-0.66851 -2.12757,-1.05813c-0.23666,-0.13381 -0.44373,-0.69386 -0.63992,-0.50566c-0.3318,0.31829 -0.03383,0.94983 -0.24749,1.35695c-0.17129,0.32636 -0.37206,0.63477 -0.58706,0.93441c0.32166,0.89464 0.54273,1.63226 0.62194,1.98294c1.01159,4.47865 -0.27669,9.30601 0.93089,13.74763c0.03258,0.11985 0.07057,0.23617 0.11352,0.34927c0.36111,0.50545 0.75378,1.00156 1.00535,1.53947c0.34634,0.3683 0.73978,0.70713 1.14761,1.03869c1.10924,-0.0954 2.21018,-0.14941 3.28962,-0.15371l0.16102,0.08948l0.00919,-0.07356l2.63047,0.32881c1.3753,0.1517 2.4451,1.31756 2.4451,2.73329c0,1.30873 -0.9142,2.40393 -2.13883,2.68184l-1.27129,0.31782c0.90824,0.22854 1.63698,0.90885 1.93334,1.78807c0.0908,-0.71026 0.53672,-2.4544 2.72679,-2.4544c0.28624,0 0.54269,0.02979 0.77245,0.08318c0.26387,-0.10432 0.54834,-0.21203 0.85505,-0.32439c1.05596,-0.38684 2.24803,-0.07587 3.3725,-0.09213c3.66474,-0.05298 7.3348,0 11,0h0.66667c0,0 2.75,0 2.75,2.75zM310.04574,318.97779c-0.00403,0.00414 -0.00808,0.00827 -0.01216,0.01239c0.01313,0.0031 0.02626,0.00619 0.0394,0.00928c-0.00908,-0.00723 -0.01815,-0.01445 -0.02724,-0.02167zM207.01832,117.58875c0.98941,0.12547 1.96158,0.29129 2.90669,0.50139c-0.74006,-0.30789 -1.48712,-0.59378 -2.24215,-0.84822c-0.21665,0.15438 -0.44604,0.26605 -0.66455,0.34684zM223.6264,162.31588c-0.00274,-0.05223 -0.00509,-0.10438 -0.00701,-0.15642c-0.05165,0.01209 -0.10334,0.02394 -0.15505,0.03553c0.0543,0.04011 0.10833,0.08041 0.16206,0.1209zM241.09993,156.55403c0.17343,0.15291 0.35884,0.3029 0.5558,0.44989c-0.18408,-0.61552 -0.31118,-1.26481 -0.41078,-1.88504c-0.05807,0.48368 -0.11073,0.96351 -0.14502,1.43515z"></path><path d="M297.61667,157.8c-2.75,0 -2.75,-2.75 -2.75,-2.75c0,-1.77778 0,-3.88889 0,-5.66667c0,0 0,-2.75 2.75,-2.75c2.75,0 2.75,2.75 2.75,2.75c0,1.77778 0,3.55556 0,5.33333v0.33333c0,0 0,2.75 -2.75,2.75z"></path><path d="M248.2,114.71666c0,-1.51878 1.23122,-2.75 2.75,-2.75c1.51878,0 2.75,1.23122 2.75,2.75c0,1.51878 -1.23122,2.75 -2.75,2.75c-1.51878,0 -2.75,-1.23122 -2.75,-2.75z"></path><path d="M285.22373,249.69122c-0.64243,-0.89653 -1.23464,-1.66087 -1.76203,-2.37969c-2.91478,-1.44509 -6.14382,-1.95377 -7.16957,-6.13902c-1.56367,-6.38004 1.83846,-9.79706 7.25866,-10.37135c-1.09986,-2.57942 -2.12105,-5.18972 -2.90362,-7.88482c-1.27251,-4.38241 -1.58101,-8.98486 -2.69838,-13.44935l-0.65171,-2.60684c-0.06328,-0.23152 -0.09707,-0.47521 -0.09707,-0.7268c0,-1.31044 0.91659,-2.40679 2.14363,-2.68293c0.21009,-0.62363 0.69735,-1.24616 1.73674,-1.59262c2.60888,-0.86963 3.47851,1.73925 3.47851,1.73925c1.22424,3.67273 2.13277,7.95227 3.61564,11.52639c1.63347,3.93713 3.62336,7.82948 4.77382,11.99815c1.47343,5.33895 3.06597,10.92956 5.28575,16.16818l-0.00926,0.26398l0.07636,-0.01697l0.6538,2.9421c0.05121,0.20975 0.07835,0.42894 0.07835,0.65446c0,1.51878 -1.23122,2.75 -2.75,2.75c-0.41898,0 -0.81608,-0.0937 -1.17148,-0.26129l-0.33825,-0.15033c0.56796,1.23821 1.11876,2.5298 1.70405,3.91167c0.45637,1.07752 1.40335,2.97507 1.67495,4.75208l0.10693,0.17108c0.27866,0.43005 0.44048,0.94285 0.44048,1.49345c0,1.51878 -1.23122,2.75 -2.75,2.75c-0.71695,0 -1.36982,-0.27436 -1.85934,-0.72381c-1.13491,-0.36724 -2.28964,-1.06509 -3.26047,-1.60216c-2.31126,-1.27861 -2.26148,-3.83319 -3.30723,-5.79766c-0.82281,-1.54565 -1.7222,-3.08554 -2.29922,-4.73515z"></path></g><path d="M158.3,301.77617c-4,0 -4,-4 -4,-4l0.28609,-2.48556c0.77313,-1.89318 0.7228,-4.17854 1.94424,-5.81863c2.05807,-2.76346 6.41729,-3.8404 8.4303,-6.89777c2.59208,-3.93688 3.47654,-9.35173 5.09405,-13.70253c0,0 1.40449,-3.74532 5.14981,-2.34082c3.74532,1.40449 2.34082,5.14981 2.34082,5.14981c-1.88558,4.97826 -2.88344,10.79613 -5.90595,15.29747c-1.54306,2.29803 -4.70365,5.19284 -7.10741,6.61743c-0.44177,0.26181 -1.14955,0.0775 -1.46229,0.4848c-0.27145,0.35352 0.17363,0.90344 0.06451,1.33559c-0.24957,0.98843 -0.74684,1.89718 -1.12027,2.84578l0.28609,-0.48556c0,0 0,4 -4,4z" fill-opacity="0.1098" fill="#f6d1ff" stroke-width="0.5"></path><path d="M226.3,214.27617c4,0 4,4 4,4l-0.07217,2.74357c0.40104,2.26318 6.51891,2.06629 7.4006,2.928c0.04252,0.04156 0.08259,0.08446 0.12034,0.12862c0.58368,-0.47031 1.40251,-0.8002 2.55123,-0.8002c2.65281,0 3.54627,1.75934 3.84718,2.94443c2.4701,0.09846 3.41198,2.6886 3.41198,2.6886c0.88438,2.4327 1.20796,5.15347 2.66223,7.29478c2.6774,3.94229 6.74552,6.8801 9.42621,10.88279c1.94295,2.90113 2.74709,5.82124 4.20677,8.85464c1.25424,2.60647 3.84067,3.52913 5.65892,5.39572c2.21793,2.27689 3.22419,5.48554 5.03166,8.1002c0.62344,0.90186 1.65549,1.45323 2.3484,2.30289c2.3741,2.91116 3.40893,5.44253 6.29066,7.90327c0.80736,3.15542 1.43376,3.72307 3.31597,6.23269l0.8,2.9c0,0 0,4 -4,4l0.00001,-0.00001c-2.65086,0 -3.54496,-1.75677 -3.84652,-2.94183c-1.44778,-1.85586 -2.74804,-3.43445 -3.03751,-5.92548c-2.85614,-1.65879 -3.6907,-4.63788 -5.70934,-7.09673c-0.79998,-0.97444 -1.93335,-1.66097 -2.6516,-2.69711c-1.24988,-1.80307 -2.21589,-5.21154 -3.96834,-6.8998c-0.67422,-0.64952 -1.72455,-0.79925 -2.41893,-1.42717c-0.4066,-0.36769 -4.68973,-5.72561 -4.92215,-6.17711c-1.45307,-2.82275 -1.97617,-5.40529 -3.79323,-8.14536c-2.70701,-4.08208 -6.88545,-7.03535 -9.57379,-11.11721c-0.69892,-1.06121 -1.20671,-2.22171 -1.63544,-3.42253c-1.20045,1.35748 -2.95696,2.1222 -5.52315,1.70177c-0.96369,-0.15789 -4.47102,-5.8707 -5.19425,-7.98928c-1.05673,-0.19998 -2.04604,-0.77525 -3.0032,-1.27877c-1.33231,-0.70087 -2.808,-1.33019 -3.76785,-2.48991c-1.00486,-1.2141 -1.25502,-2.89137 -1.88252,-4.33705l-0.07217,-4.25643c0,0 0,-4 4,-4z" fill-opacity="0.1098" fill="#f6d1ff" stroke-width="0.5"></path><path d="M288.30386,222.30706c3.96911,-0.49614 4.46525,3.47297 4.46525,3.47297l0.52316,4.24759c-0.01839,3.68914 2.83468,8.00326 2,11.5c-0.01988,0.0833 -0.04103,0.16614 -0.06339,0.24855h0.07111v2.5c0,2.20914 -1.79086,4 -4,4c-1.79936,0 -3.32122,-1.18809 -3.8239,-2.82259l-0.90306,-2.70919c-0.61691,-1.22645 -1.23383,-2.45291 -1.85074,-3.67936c0,0 -1.50669,-3.01337 1.01098,-4.89184c-0.24862,-1.13397 -0.41959,-2.30687 -0.42554,-3.64847l-0.47684,-3.75241c0,0 -0.49614,-3.96911 3.47297,-4.46525z" fill-opacity="0.1098" fill="#f6d1ff" stroke-width="0.5"></path><path d="M184.53509,247.0709c-3.79473,-1.26491 -2.52982,-5.05964 -2.52982,-5.05964l0.33494,-0.80077c0.6534,-4.5279 1.81386,-8.69836 3.12849,-13.08371c0,0 1.14939,-3.83131 4.9807,-2.68191c3.83131,1.14939 2.68191,4.9807 2.68191,4.9807c-1.20357,4.00882 -2.2872,7.77901 -2.87151,11.91629l-0.66506,2.19923c0,0 -1.26491,3.79473 -5.05964,2.52982z" fill-opacity="0.1098" fill="#f6d1ff" stroke-width="0.5"></path><path d="M225.25609,155.85212c0.06378,-2.26135 0.3536,-4.5021 1.33232,-6.56729c0.35419,-0.74738 0.73823,-1.52256 1.16433,-2.26725c-0.0692,-0.49929 -0.02236,-0.98059 0.22727,-1.42786c4.25018,-7.61544 7.15288,-4.59413 12.41886,-2.4801c1.58563,0.63655 3.35562,0.93994 4.74934,1.92836c2.80721,1.99085 3.0112,3.98133 4.55439,6.63527c0.57152,0.98289 1.57014,1.74758 1.89213,2.83801c0.88834,3.0084 0.94295,6.53824 -0.49239,9.03283c0.83504,0.66067 1.67259,1.31451 2.50784,1.9648l2.857,1.90466c1.1028,0.71222 1.83282,1.95216 1.83282,3.36261c0,2.20914 -1.79086,4 -4,4c-0.74745,0 -1.44703,-0.20501 -2.04555,-0.56188l-3.2769,-1.87252c-7.49546,-1.46844 -11.73737,-7.62907 -15.40951,-13.56051c-0.08868,0.07354 -0.17713,0.14728 -0.26526,0.22121c-0.00867,5.99107 -0.18826,12.00358 0.07493,17.98485l0.20168,0.49783c1.58171,0.53359 2.72061,2.02931 2.72061,3.79102c0,2.20914 -1.79086,4 -4,4c-0.25,0 -0.49464,-0.02293 -0.73193,-0.06681l-2.92567,-0.48761l0.01814,-0.10887c-0.19881,-0.00302 -0.39797,-0.01362 -0.59753,-0.03278c-6.89076,-0.66142 -10.71243,-9.5673 -9.71137,-15.44466c0.55524,-3.25993 3.08719,-9.12587 5.3127,-11.84275c0.18898,-0.23071 0.80583,-0.7756 1.59174,-1.44057z" fill-opacity="0.1098" fill="#f6d1ff" stroke-width="0.5"></path><path d="M183.11465,210.09961c-0.12651,0.12265 -0.24914,0.24875 -0.36625,0.3797c-1.79624,2.00836 -3.61832,4.50275 -5.2484,6.69686c0,0 -2.4,3.2 -5.6,0.8c-3.2,-2.4 -0.8,-5.6 -0.8,-5.6c1.86466,-2.46758 3.78966,-4.69923 5.8449,-6.82109c0.40136,-1.55459 1.56014,-2.23951 2.50329,-2.54126c0.62522,-0.7208 1.21364,-1.59448 1.97512,-1.74909c0.44171,-0.39523 0.89019,-0.78962 1.34596,-1.18408l1.14876,0.4398l0.38197,-0.12732v-0.61696h2.5c2.20914,0 4,1.79086 4,4c0,1.79936 -1.18809,3.32122 -2.82259,3.8239l-2.53391,0.84464c-0.5374,0.49712 -1.08448,0.98344 -1.64471,1.45494z" fill-opacity="0.1098" fill="#f6d1ff" stroke-width="0.5"></path></g></g></svg>