<svg version="1.1" xmlns="http://www.w3.org/2000/svg" xmlns:xlink="http://www.w3.org/1999/xlink" width="108.59667" height="106.66667" viewBox="0,0,108.59667,106.66667"><g transform="translate(-197.77,-117.13333)"><g stroke="none" stroke-width="0.5" stroke-miterlimit="10"><path d="M238.92,162.13c-1.75,0 -1.75,-1.75 -1.75,-1.75v-1.6c0,-2.3536 -0.03479,-4.10201 0.6898,-6.3534c0,0 0.5534,-1.6602 2.21359,-1.1068c1.6602,0.5534 1.1068,2.21359 1.1068,2.21359c-0.64763,1.85602 -0.5102,3.26618 -0.5102,5.2466v1.6c0,0 0,1.75 -1.75,1.75z" fill="#ad4eab"></path><path d="M197.77,147.38c0,-0.9665 0.7835,-1.75 1.75,-1.75c0.9665,0 1.75,0.7835 1.75,1.75c0,0.9665 -0.7835,1.75 -1.75,1.75c-0.9665,0 -1.75,-0.7835 -1.75,-1.75z" fill="#ad4eab"></path><path d="M290.77,174.18c0,-1.0923 0.68179,-1.50282 1.19425,-1.6571c0.33895,-0.29053 0.67791,-0.58106 1.01686,-0.8716c0,0 1.3287,-1.13888 2.46758,0.18981c1.13888,1.3287 -0.18981,2.46758 -0.18981,2.46758c-0.46667,0.4 -0.93333,0.8 -1.4,1.2l-1.33888,0.4213c0,0 -1.75,0 -1.75,-1.75z" fill="#ad4eab"></path><path d="M272.52,139.33c-1.75,0 -1.75,-1.75 -1.75,-1.75c0,-1.6 0,-4.4 0,-6c0,0 0,-1.75 1.75,-1.75c1.75,0 1.75,1.75 1.75,1.75c0,1.6 0,3.2 0,4.8v1.2c0,0 0,1.75 -1.75,1.75z" fill="#ad4eab"></path><path d="M272.52,194.13c-1.75,0 -1.75,-1.75 -1.75,-1.75c0,-0.6 0,-1.4 0,-2c0,0 0,-1.75 1.75,-1.75c1.75,0 1.75,1.75 1.75,1.75c0,0.6 0,1.2 0,1.8v0.2c0,0 0,1.75 -1.75,1.75z" fill="#ad4eab"></path><path d="M203.57,182.98c0,-0.9665 0.7835,-1.75 1.75,-1.75c0.9665,0 1.75,0.7835 1.75,1.75c0,0.9665 -0.7835,1.75 -1.75,1.75c-0.9665,0 -1.75,-0.7835 -1.75,-1.75z" fill="#ad4eab"></path><path d="M280.50058,196.17611c-0.19612,0.98058 -1.1767,0.78446 -1.1767,0.78446l-1,-0.2c0,0 -0.98058,-0.19612 -0.78446,-1.1767c0.19612,-0.98058 1.1767,-0.78446 1.1767,-0.78446l1,0.2c0,0 0.98058,0.19612 0.78446,1.1767z" fill="#ad4eab"></path><path d="M272.32,204.78c-1,0 -1,-1 -1,-1c0,-0.33333 0,-1.06667 0,-1.4c0,0 0,-1 1,-1c1,0 1,1 1,1c0,0.33333 0,0.66667 0,1v0.4c0,0 0,1 -1,1z" fill="#ad4eab"></path><path d="M266.72,195.98c0,1 -1,1 -1,1l-0.39612,-0.01942c-0.33333,-0.06667 -0.66667,-0.13333 -1,-0.2c0,0 -0.98058,-0.19612 -0.78446,-1.1767c0.19612,-0.98058 1.1767,-0.78446 1.1767,-0.78446c0.33333,0.06667 0.66667,0.13333 1,0.2l0.00388,-0.01942c0,0 1,0 1,1z" fill="#ad4eab"></path><path d="M248.10058,170.17611c-0.19612,0.98058 -1.1767,0.78446 -1.1767,0.78446l-1,-0.2c0,0 -0.98058,-0.19612 -0.78446,-1.1767c0.19612,-0.98058 1.1767,-0.78446 1.1767,-0.78446l1,0.2c0,0 0.98058,0.19612 0.78446,1.1767z" fill="#ad4eab"></path><path d="M227.71465,168.58c-0.22702,0.16509 -0.76439,0.44448 -1.30176,-0.09289c-0.70711,-0.70711 0,-1.41421 0,-1.41421l0.90711,-0.49289c0.4,0 0.8,0 1.2,0c0,0 1,0 1,1c0,1 -1,1 -1,1c-0.26845,0 -0.5369,0 -0.80535,0z" fill="#ad4eab"></path><path d="M241.12,180.38c-1,0 -1,-1 -1,-1c0,-0.33333 0,-0.86667 0,-1.2c0,0 0,-1 1,-1c1,0 1,1 1,1c0,0.33333 0,0.66667 0,1v0.2c0,0 0,1 -1,1z" fill="#ad4eab"></path><path d="M282.12,148.38c0,1 -1,1 -1,1c-0.33333,0 -1.06667,0 -1.4,0c0,0 -1,0 -1,-1c0,-1 1,-1 1,-1c0.33333,0 0.66667,0 1,0h0.4c0,0 1,0 1,1z" fill="#ad4eab"></path><path d="M272.92,158.78c-1,0 -1,-1 -1,-1v-1c0,0 0,-1 1,-1c1,0 1,1 1,1v1c0,0 0,1 -1,1z" fill="#ad4eab"></path><path d="M260.12,150.18c0,-0.55228 0.44772,-1 1,-1c0.55228,0 1,0.44772 1,1c0,0.55228 -0.44772,1 -1,1c-0.55228,0 -1,-0.44772 -1,-1z" fill="#ad4eab"></path><path d="M213.53334,139.3c0,-0.55228 0.44772,-1 1,-1c0.55228,0 1,0.44772 1,1c0,0.55228 -0.44772,1 -1,1c-0.55228,0 -1,-0.44772 -1,-1z" fill="#e3b194"></path><path d="M220.03334,210.3c0,-0.27614 0.22386,-0.5 0.5,-0.5c0.27614,0 0.5,0.22386 0.5,0.5c0,0.27614 -0.22386,0.5 -0.5,0.5c-0.27614,0 -0.5,-0.22386 -0.5,-0.5z" fill="#e3b194"></path><path d="M221.36667,217.3c0,-0.27614 0.22386,-0.5 0.5,-0.5c0.27614,0 0.5,0.22386 0.5,0.5c0,0.27614 -0.22386,0.5 -0.5,0.5c-0.27614,0 -0.5,-0.22386 -0.5,-0.5z" fill="#e3b194"></path><path d="M254.36667,179.63333c0,-0.27614 0.22386,-0.5 0.5,-0.5c0.27614,0 0.5,0.22386 0.5,0.5c0,0.27614 -0.22386,0.5 -0.5,0.5c-0.27614,0 -0.5,-0.22386 -0.5,-0.5z" fill="#e3b194"></path><path d="M304.7,196.63333c0,-0.27614 0.22386,-0.5 0.5,-0.5c0.27614,0 0.5,0.22386 0.5,0.5c0,0.27614 -0.22386,0.5 -0.5,0.5c-0.27614,0 -0.5,-0.22386 -0.5,-0.5z" fill="#e3b194"></path><path d="M289.36667,223.3c0,-0.27614 0.22386,-0.5 0.5,-0.5c0.27614,0 0.5,0.22386 0.5,0.5c0,0.27614 -0.22386,0.5 -0.5,0.5c-0.27614,0 -0.5,-0.22386 -0.5,-0.5z" fill="#e3b194"></path><path d="M305.36667,142.96666c0,-0.27614 0.22386,-0.5 0.5,-0.5c0.27614,0 0.5,0.22386 0.5,0.5c0,0.27614 -0.22386,0.5 -0.5,0.5c-0.27614,0 -0.5,-0.22386 -0.5,-0.5z" fill="#e3b194"></path><path d="M258.7,117.63333c0,-0.27614 0.22386,-0.5 0.5,-0.5c0.27614,0 0.5,0.22386 0.5,0.5c0,0.27614 -0.22386,0.5 -0.5,0.5c-0.27614,0 -0.5,-0.22386 -0.5,-0.5z" fill="#e3b194"></path></g></g></svg>