<svg version="1.1" xmlns="http://www.w3.org/2000/svg" xmlns:xlink="http://www.w3.org/1999/xlink" width="204.2042" height="282.5" viewBox="0,0,204.2042,282.5"><defs><linearGradient x1="240" y1="0" x2="240" y2="122.56978" gradientUnits="userSpaceOnUse" id="color-1"><stop offset="0" stop-color="#7a017c"></stop><stop offset="1" stop-color="#0250b0"></stop></linearGradient><linearGradient x1="240" y1="241.2849" x2="240" y2="118.71511" gradientUnits="userSpaceOnUse" id="color-2"><stop offset="0" stop-color="#7a017c"></stop><stop offset="1" stop-color="#0250b0"></stop></linearGradient><linearGradient x1="178.35001" y1="-35.6" x2="178.35001" y2="241.38707" gradientUnits="userSpaceOnUse" id="color-3"><stop offset="0" stop-color="#ff0052" stop-opacity="0.1451"></stop><stop offset="1" stop-color="#ff0052" stop-opacity="0"></stop></linearGradient><linearGradient x1="187.18334" y1="-35.08706" x2="187.18334" y2="241.9" gradientUnits="userSpaceOnUse" id="color-4"><stop offset="0" stop-color="#ff0052" stop-opacity="0.1451"></stop><stop offset="1" stop-color="#ff0052" stop-opacity="0"></stop></linearGradient><linearGradient x1="225.85001" y1="-35.6" x2="225.85001" y2="246.9" gradientUnits="userSpaceOnUse" id="color-5"><stop offset="0" stop-color="#ff0052" stop-opacity="0.1451"></stop><stop offset="1" stop-color="#ff0052" stop-opacity="0"></stop></linearGradient><linearGradient x1="251.43334" y1="-35.59999" x2="251.43334" y2="246.9" gradientUnits="userSpaceOnUse" id="color-6"><stop offset="0" stop-color="#ff0052" stop-opacity="0.1451"></stop><stop offset="1" stop-color="#ff0052" stop-opacity="0"></stop></linearGradient><linearGradient x1="282.60001" y1="-35.59999" x2="282.60001" y2="246.9" gradientUnits="userSpaceOnUse" id="color-7"><stop offset="0" stop-color="#ff0052" stop-opacity="0.1451"></stop><stop offset="1" stop-color="#ff0052" stop-opacity="0"></stop></linearGradient><linearGradient x1="282.60001" y1="-35.59999" x2="282.60001" y2="246.9" gradientUnits="userSpaceOnUse" id="color-8"><stop offset="0" stop-color="#ff0052" stop-opacity="0.1451"></stop><stop offset="1" stop-color="#ff0052" stop-opacity="0"></stop></linearGradient><linearGradient x1="244.93334" y1="-35.60001" x2="244.93334" y2="234.4" gradientUnits="userSpaceOnUse" id="color-9"><stop offset="0" stop-color="#ff0052" stop-opacity="0.1451"></stop><stop offset="1" stop-color="#ff0052" stop-opacity="0"></stop></linearGradient></defs><g transform="translate(-137.8979,35.6)"><g stroke="none" stroke-width="0" stroke-miterlimit="10"><path d="M137.8979,23.90001v-59.5h204.2042v59.5z" fill="#79027c"></path><g><path d="M137.8979,122.56978v-122.56978h204.2042v122.56978z" fill="url(#color-1)"></path><path d="M342.1021,118.71511v122.56978h-204.2042v-122.56978z" fill="url(#color-2)"></path></g><path d="M169.51667,241.38707v-276.98706h17.66667v276.98706z" fill="url(#color-3)"></path><path d="M178.35001,241.9v-276.98706h17.66667v276.98706z" fill="url(#color-4)"></path><path d="M206.76667,246.9v-282.5h38.16667v282.5z" fill="url(#color-5)"></path><path d="M242.60001,246.9v-282.5h17.66667v282.5z" fill="url(#color-6)"></path><path d="M273.76667,246.9v-282.5h17.66667v282.5z" fill="url(#color-7)"></path><path d="M280.60001,246.9v-282.5h4v282.5z" fill="url(#color-8)"></path><path d="M236.10001,234.4v-270h17.66667v270z" fill="url(#color-9)"></path></g></g></svg>