<svg version="1.1" xmlns="http://www.w3.org/2000/svg" xmlns:xlink="http://www.w3.org/1999/xlink" width="463" height="463" viewBox="0,0,463,463"><defs><radialGradient cx="240" cy="180" r="70.875" gradientUnits="userSpaceOnUse" id="color-1"><stop offset="0" stop-color="#ffffff" stop-opacity="0.32941"></stop><stop offset="1" stop-color="#ffffff" stop-opacity="0"></stop></radialGradient><radialGradient cx="240" cy="180" r="40.5" gradientUnits="userSpaceOnUse" id="color-2"><stop offset="0" stop-color="#ffffff" stop-opacity="0.72549"></stop><stop offset="1" stop-color="#ffffff" stop-opacity="0"></stop></radialGradient><radialGradient cx="240" cy="180" r="21.75" gradientUnits="userSpaceOnUse" id="color-3"><stop offset="0" stop-color="#fefeff"></stop><stop offset="1" stop-color="#fefeff" stop-opacity="0"></stop></radialGradient><linearGradient x1="240" y1="180" x2="8.5" y2="180" gradientUnits="userSpaceOnUse" id="color-4"><stop offset="0" stop-color="#ffffff" stop-opacity="0.21961"></stop><stop offset="1" stop-color="#ffffff" stop-opacity="0"></stop></linearGradient><linearGradient x1="240" y1="180" x2="471.5" y2="180" gradientUnits="userSpaceOnUse" id="color-5"><stop offset="0" stop-color="#ffffff" stop-opacity="0.21961"></stop><stop offset="1" stop-color="#ffffff" stop-opacity="0"></stop></linearGradient><linearGradient x1="240" y1="180" x2="240" y2="411.5" gradientUnits="userSpaceOnUse" id="color-6"><stop offset="0" stop-color="#ffffff" stop-opacity="0.21961"></stop><stop offset="1" stop-color="#ffffff" stop-opacity="0"></stop></linearGradient><linearGradient x1="240" y1="180" x2="240" y2="-51.5" gradientUnits="userSpaceOnUse" id="color-7"><stop offset="0" stop-color="#ffffff" stop-opacity="0.21961"></stop><stop offset="1" stop-color="#ffffff" stop-opacity="0"></stop></linearGradient></defs><g transform="translate(-8.5,51.5)"><g stroke="none" stroke-width="0" stroke-miterlimit="10"><g><path d="M169.125,180c0,-39.14317 31.73183,-70.875 70.875,-70.875c39.14317,0 70.875,31.73183 70.875,70.875c0,39.14317 -31.73183,70.875 -70.875,70.875c-39.14317,0 -70.875,-31.73183 -70.875,-70.875z" fill="url(#color-1)"></path><path d="M199.5,180c0,-22.36753 18.13247,-40.5 40.5,-40.5c22.36753,0 40.5,18.13247 40.5,40.5c0,22.36753 -18.13247,40.5 -40.5,40.5c-22.36753,0 -40.5,-18.13247 -40.5,-40.5z" fill="url(#color-2)"></path><path d="M218.25,180c0,-12.01219 9.73781,-21.75 21.75,-21.75c12.01219,0 21.75,9.73781 21.75,21.75c0,12.01219 -9.73781,21.75 -21.75,21.75c-12.01219,0 -21.75,-9.73781 -21.75,-21.75z" fill="url(#color-3)"></path></g><g><path d="M8.5,182v-4h231.5v4z" fill="url(#color-4)"></path><path d="M240,182v-4h231.5v4z" fill="url(#color-5)"></path></g><g><path d="M242,411.5h-4v-231.5h4z" fill="url(#color-6)"></path><path d="M242,180h-4v-231.5h4z" fill="url(#color-7)"></path></g></g></g></svg>