<svg version="1.1" xmlns="http://www.w3.org/2000/svg" xmlns:xlink="http://www.w3.org/1999/xlink" width="501.5009" height="102.33333" viewBox="0,0,501.5009,102.33333"><defs><linearGradient x1="321.45" y1="180.3" x2="703.45001" y2="180.3" gradientUnits="userSpaceOnUse" id="color-1"><stop offset="0" stop-color="#ff0000" stop-opacity="0.61569"></stop><stop offset="1" stop-color="#ff0000" stop-opacity="0"></stop></linearGradient></defs><g transform="translate(-201.94909,-127.63333)"><g stroke-miterlimit="10"><path d="M201.9491,229.96666v-102.33333h184v102.33333z" fill="none" stroke="none" stroke-width="NaN"></path><path d="M512.44999,178.8c105.48639,0 191,0.67157 191,1.5c0,0.82843 -85.51361,1.5 -191,1.5c-105.48639,0 -191,-0.67157 -191,-1.5c0,-0.82843 85.51361,-1.5 191,-1.5z" fill="url(#color-1)" stroke="none" stroke-width="0"></path><g><path d="M294.36179,185.10251c-0.24123,0.23502 -0.46288,0.50293 -0.66514,0.83154c0,0 -0.32378,0.51806 -0.85447,0.32682c-1.57538,0.02485 -3.15009,0.05041 -4.72396,0.05206c-0.17082,0.03982 -0.32699,0.00005 -0.44742,-0.05607c-0.12475,-0.04544 -0.2632,-0.12766 -0.35583,-0.27641l-0.4871,-0.4871c0,0 -0.0864,-0.0864 -0.15458,-0.22432c-0.18089,-0.06247 -0.29143,-0.18314 -0.35897,-0.3073l-0.40994,-0.49296c-0.42468,-0.43178 -0.78711,-0.92903 -1.09179,-1.45575h-0.15439c-2.9289,0 -5.8578,0 -8.7867,0c-0.21448,0.04437 -0.38496,-0.01746 -0.51144,-0.10581c-0.15851,-0.08606 -0.31148,-0.24211 -0.34507,-0.52507l-0.1068,-0.31913c0,-0.2124 -0.00033,-0.42399 0.00083,-0.6347c-2.34855,0.526 -5.15187,0.27324 -7.82561,-0.01428l-0.69834,1.09739l-0.01895,-0.01206c-0.1295,0.24562 -0.28241,0.46687 -0.46353,0.63378c-0.58906,1.40954 -1.17545,2.7695 -1.91769,4.03575c0.3891,-0.09472 0.78004,-0.18105 1.17404,-0.25386l-0.05705,-0.15688l1.08367,-0.39406c0.0845,-0.03298 0.17646,-0.05109 0.27264,-0.05109c0.06926,0 0.13633,0.00939 0.2,0.02696c0.17371,0.04795 0.32214,0.15681 0.42087,0.30217c0.19864,0.13491 0.32913,0.36265 0.32913,0.62087c0,0.2552 -0.12747,0.48064 -0.32221,0.61611l-0.6543,0.46736c-1.04869,1.03853 -2.41022,1.72974 -3.68862,2.46025c-4.52265,2.82666 -10.34736,0.32771 -14.26207,-2.65764c-0.10467,-0.01465 -0.20993,-0.02863 -0.31583,-0.04186l-0.48579,-0.55829c-0.13649,-0.0999 -0.27031,-0.20313 -0.40132,-0.30975c0,0 -0.57617,-0.48013 -0.09603,-1.0563c0.35451,-0.42542 0.76137,-0.27497 0.95001,-0.16712c0.13953,0.03392 0.24968,0.11231 0.33045,0.19171c0.20196,0.17297 0.41274,0.34691 0.63148,0.52049c0.01264,0.00824 0.02531,0.01645 0.038,0.02463c1.67237,0.35948 3.24457,1.13509 4.9126,1.57904c0.05943,-0.18342 0.18762,-0.33589 0.35416,-0.42701l0.62155,-0.35517c0.68427,-0.69267 1.00513,-0.99532 1.52418,-1.15639l-0.04961,-0.13229l0.78382,-0.29393c0.03484,-0.014 0.07097,-0.02547 0.10817,-0.03416v-0.00003c0.56929,-0.46217 1.12484,-0.95526 1.66976,-1.46451c0.58048,-0.73549 1.13238,-1.51063 1.66655,-2.2717c-0.03668,-0.03361 -0.06921,-0.06986 -0.09724,-0.10889c-0.20774,-0.28917 0.16437,-0.64959 0.33794,-1.00296c-0.03964,-0.00027 -0.07944,-0.0004 -0.11943,-0.0004c0,0 -0.05925,0 -0.12006,0.02884c-1.1252,0 -2.2504,0 -3.3756,0c-0.0102,0.11738 -0.02195,0.23478 -0.0355,0.35223c0.03016,0.13864 0.06032,0.27729 0.09048,0.41593l0.00365,0.71865c0.03095,0.12974 0.02362,0.28366 -0.05872,0.45974c-0.04949,0.13131 -0.14011,0.27605 -0.30604,0.36587c-0.08339,0.05176 -0.16957,0.07845 -0.25257,0.08903c-0.1111,0.11316 -0.27878,0.19855 -0.53185,0.19855c-0.60072,0 -0.72029,-0.48115 -0.74409,-0.67269c-1.486,-0.58052 -3.50425,-0.72731 -4.95591,-0.72731h-0.9c0,0 -0.01526,0 -0.04142,-0.00218c-0.02625,-0.00073 -0.04141,-0.00241 -0.04141,-0.00241c-2.73826,-0.30793 -5.32276,-0.49541 -8.11718,-0.49541l-0.82825,-0.20921c-0.16221,-0.02034 -0.35372,-0.09096 -0.48474,-0.28884c-0.09102,-0.11109 -0.15734,-0.26246 -0.1433,-0.46456c-0.0073,-0.20245 0.06403,-0.35153 0.1587,-0.45953c0.13346,-0.18766 0.31984,-0.25368 0.47952,-0.27107c2.05704,-0.49533 4.21825,-0.34572 6.29794,-0.69712c3.05751,-0.51662 6.02451,-1.38578 9.09241,-1.78661c0.10155,-0.16869 0.28744,-0.32308 0.62773,-0.32308c0.75,0 0.75,0.75 0.75,0.75c0,0.46272 0.00587,0.92345 0.00413,1.38326c1.11697,-0.36973 2.35857,-0.67987 3.59909,-0.79221c-0.00563,-0.11206 -0.0091,-0.22025 -0.0091,-0.32307c0,0 0,-0.12018 0.04811,-0.26433c-0.59147,-0.84457 -1.20343,-1.71437 -1.85098,-2.53483l-0.00001,0.00001c-0.54492,-0.50925 -1.10047,-1.00234 -1.66976,-1.46451c-0.03719,-0.00869 -0.07332,-0.02015 -0.10816,-0.03415l-0.78382,-0.29394l0.04961,-0.13228c-0.51905,-0.16107 -0.83991,-0.46373 -1.52418,-1.15639l-0.62154,-0.35517c-0.16655,-0.09112 -0.29473,-0.24359 -0.35417,-0.42701c-1.66802,0.44395 -3.24023,1.21955 -4.91259,1.57903c-0.01269,0.00818 -0.02536,0.01639 -0.038,0.02463c-0.21873,0.17359 -0.42951,0.34752 -0.63148,0.52049c-0.08077,0.0794 -0.19092,0.15779 -0.33045,0.19171c-0.18865,0.10786 -0.59551,0.2583 -0.95002,-0.16711c-0.48014,-0.57617 0.09603,-1.05631 0.09603,-1.05631c0.13101,-0.10661 0.26483,-0.20984 0.40132,-0.30975l0.48579,-0.55829c0.1059,-0.01324 0.21116,-0.02721 0.31583,-0.04187c3.91472,-2.98535 9.73942,-5.4843 14.26208,-2.65764c1.2784,0.73051 2.63991,1.42173 3.68861,2.46025l0.6543,0.46735c0.19473,0.13547 0.3222,0.36091 0.3222,0.61611c0,0.25822 -0.1305,0.48595 -0.32913,0.62087c-0.09872,0.14536 -0.24716,0.25423 -0.42087,0.30217c-0.06367,0.01757 -0.13074,0.02696 -0.2,0.02696c-0.09618,0 -0.18812,-0.01811 -0.27263,-0.0511l-1.08367,-0.39406l0.05705,-0.15688c-0.39399,-0.07281 -0.78494,-0.15914 -1.17404,-0.25386c0.64993,1.10876 1.18037,2.28936 1.69773,3.5122c0.33668,0.30419 1.28458,1.35499 1.85494,2.36503c2.51771,0.09592 5.08798,0.46114 7.37944,0.50113c0.03722,-0.21869 0.08358,-0.43616 0.14128,-0.65234c-0.05664,-0.10039 -0.09294,-0.22909 -0.09294,-0.3941c0,-0.57 0.43319,-0.7068 0.64113,-0.73963c0.1247,-0.0898 0.2932,-0.15137 0.50986,-0.11037h0.39901c1.83966,0 5.40294,-0.46281 7.64305,0.1c0.15052,0 0.30104,0 0.45156,0c0.41422,-0.69054 0.96885,-1.24756 1.4882,-1.82992c-0.02133,-0.06959 -0.03281,-0.1435 -0.03281,-0.22008c0,-0.29941 0.17544,-0.55783 0.42912,-0.67809l0.4774,-0.2387c0.02275,-0.19592 0.1026,-0.33122 0.20203,-0.42466c0.22193,-0.20855 0.54145,-0.20855 0.54145,-0.20855c0.7396,0 1.4792,0 2.2188,0c0.25393,-0.03079 0.50551,-0.05303 0.74687,-0.06151c0.12256,-0.08721 0.27246,-0.13849 0.43433,-0.13849c0.19691,0 0.3761,0.07588 0.50991,0.2c0.25687,0 0.52111,0 0.79009,0c0.03333,0 0.86667,0 0.9,0c0.13556,0 0.27158,0 0.40774,0c-0.00156,0.0346 -0.00308,0.06917 -0.00458,0.10372c0.26286,0.12449 0.38466,0.39854 0.38466,0.39854c0.17978,0.4169 0.41448,0.80731 0.66692,1.19035c1.23885,-0.32556 2.48273,-0.52817 3.76835,-0.71713l0.30579,-0.00948c0.01492,-0.00072 0.0232,-0.00072 0.0232,-0.00072c0,0 0.00012,0 0.00036,0c2.27782,0.00811 4.47621,0.27143 6.66099,0.60545c0.11383,0.00057 0.22558,0.0009 0.3351,0.0009c0.98662,0 2.63206,-0.27372 3.54023,0.05709c0.12316,0.04486 0.24077,0.09323 0.35403,0.14426c0.19882,-0.0479 0.37135,-0.0289 0.37135,-0.0289c4.40431,0.48965 9.14395,0.93083 13.63835,1.84762c5.3468,-0.55435 11.69053,0.81677 16.48887,1.66116l0.02221,-0.01456c0,0 0.59198,0 0.78842,0.43519l0.62958,0.06936c0.42555,0.04137 0.75658,0.35933 0.75658,0.74544c0,0.27924 -0.17314,0.52284 -0.42996,0.65194c-0.10905,0.26203 -0.37926,0.45551 -0.70478,0.48716l-0.62958,0.06936c-0.19644,0.43519 -0.78842,0.43519 -0.78842,0.43519l-0.02221,-0.01456c-4.79835,0.84439 -11.14208,2.21551 -16.48887,1.66116c-4.4944,0.91679 -9.23404,1.35797 -13.63835,1.84762c0,0 -0.17253,0.019 -0.37135,-0.0289c-0.11326,0.05103 -0.23087,0.0994 -0.35403,0.14426c-0.80367,0.29274 -2.1847,0.11207 -3.1756,0.06662c-2.16616,0.32991 -4.34625,0.58878 -6.6044,0.59682c-0.00024,0 -0.00036,0 -0.00036,0c0,0 -0.00828,0 -0.0232,-0.00072l-0.30579,-0.00948c-1.46588,-0.21546 -2.87749,-0.44866 -4.28926,-0.86162c0,0 -0.23434,-0.06885 -0.40841,-0.24364zM305.62856,184.11162c0.09573,0 0.20773,0.00566 0.33127,0.01483c0.03494,-0.00548 0.06988,-0.01098 0.10482,-0.01649c-0.21936,0.00056 -0.4386,0.00095 -0.65771,0.0012c0.07352,0.00031 0.14739,0.00046 0.22161,0.00046zM261.09225,172.00792c-0.77156,-0.20596 -1.54831,-0.39199 -2.33976,-0.51767c-0.34341,-0.02896 -0.68862,-0.05075 -1.03439,-0.06481c0.03252,0.09508 0.06262,0.19252 0.09217,0.2929l0.17095,0.14246l-0.07571,0.09085c1.5049,0.66753 2.94761,1.69008 4.2187,2.86083c-0.33955,-0.93696 -0.67882,-1.875 -1.03197,-2.80456zM263.97096,175.50437c0.23781,0.65279 0.47892,1.30286 0.72922,1.94641c0.00496,0.00135 0.00993,0.00272 0.01489,0.00409c-0.0344,-0.09243 -0.06883,-0.18514 -0.10333,-0.27802c-0.01971,-0.04095 -0.03695,-0.08553 -0.04951,-0.13323c-0.1911,-0.51401 -0.38533,-1.03228 -0.59127,-1.53925zM260.94937,187.99204c0.35315,-0.92956 0.69242,-1.8676 1.03197,-2.80456c-1.27109,1.17074 -2.7138,2.1933 -4.2187,2.86083l0.07571,0.09085l-0.17096,0.14246c-0.02955,0.10038 -0.05964,0.19783 -0.09217,0.29291c0.34577,-0.01407 0.69098,-0.03586 1.03439,-0.06482c0.79145,-0.12567 1.5682,-0.31171 2.33976,-0.51767zM264.34423,183.15828c-0.00518,-0.00453 -0.01029,-0.0091 -0.01532,-0.0137c-0.16982,0.44822 -0.3361,0.899 -0.5008,1.3511c0.17901,-0.44066 0.34917,-0.88987 0.51612,-1.3374z" fill="#160831" stroke="#ff0000" stroke-width="1"></path><path d="M294.36179,185.10252c-0.24123,0.23502 -0.46288,0.50293 -0.66514,0.83154c0,0 -0.32378,0.51806 -0.85447,0.32682c-1.57538,0.02485 -3.15009,0.05041 -4.72396,0.05206c-0.17082,0.03982 -0.32699,0.00005 -0.44742,-0.05607c-0.12475,-0.04544 -0.2632,-0.12766 -0.35583,-0.27641l-0.4871,-0.4871c0,0 -0.0864,-0.0864 -0.15458,-0.22432c-0.18089,-0.06247 -0.29143,-0.18314 -0.35897,-0.3073l-0.40994,-0.49296c-0.42468,-0.43178 -0.78711,-0.92903 -1.09179,-1.45575h-0.15439c-2.9289,0 -5.8578,0 -8.7867,0c-0.21448,0.04437 -0.38496,-0.01746 -0.51144,-0.10581c-0.15851,-0.08606 -0.31148,-0.24211 -0.34507,-0.52507l-0.1068,-0.31913c0,-0.2124 -0.00033,-0.42399 0.00083,-0.6347c-2.34855,0.526 -5.15187,0.27324 -7.82561,-0.01428l-0.69834,1.09739l-0.01895,-0.01206c-0.1295,0.24562 -0.28241,0.46687 -0.46353,0.63378c-0.58906,1.40954 -1.17545,2.7695 -1.91769,4.03575c0.3891,-0.09472 0.78004,-0.18105 1.17404,-0.25386l-0.05705,-0.15688l1.08367,-0.39406c0.0845,-0.03298 0.17646,-0.05109 0.27264,-0.05109c0.06926,0 0.13633,0.00939 0.2,0.02696c0.17371,0.04795 0.32214,0.15681 0.42087,0.30217c0.19864,0.13491 0.32913,0.36265 0.32913,0.62087c0,0.2552 -0.12747,0.48064 -0.32221,0.61611l-0.6543,0.46736c-1.04869,1.03853 -2.41022,1.72974 -3.68862,2.46025c-4.52265,2.82666 -10.34736,0.32771 -14.26207,-2.65764c-0.10467,-0.01465 -0.20993,-0.02863 -0.31583,-0.04186l-0.48579,-0.55829c-0.13649,-0.0999 -0.27031,-0.20313 -0.40132,-0.30975c0,0 -0.57617,-0.48013 -0.09603,-1.0563c0.35451,-0.42542 0.76137,-0.27497 0.95001,-0.16712c0.13953,0.03392 0.24968,0.11231 0.33045,0.19171c0.20196,0.17297 0.41274,0.34691 0.63148,0.52049c0.01264,0.00824 0.02531,0.01645 0.038,0.02463c1.67237,0.35948 3.24457,1.13509 4.9126,1.57904c0.05943,-0.18342 0.18762,-0.33589 0.35416,-0.42701l0.62155,-0.35517c0.68427,-0.69267 1.00513,-0.99532 1.52418,-1.15639l-0.04961,-0.13229l0.78382,-0.29393c0.03484,-0.014 0.07097,-0.02547 0.10817,-0.03416v-0.00003c0.56929,-0.46217 1.12484,-0.95526 1.66976,-1.46451c0.58048,-0.73549 1.13238,-1.51063 1.66655,-2.2717c-0.03668,-0.03361 -0.06921,-0.06986 -0.09724,-0.10889c-0.20774,-0.28917 0.16437,-0.64959 0.33794,-1.00296c-0.03964,-0.00027 -0.07944,-0.0004 -0.11943,-0.0004c0,0 -0.05925,0 -0.12006,0.02884c-1.1252,0 -2.2504,0 -3.3756,0c-0.0102,0.11738 -0.02195,0.23478 -0.0355,0.35223c0.03016,0.13864 0.06032,0.27729 0.09048,0.41593l0.00365,0.71865c0.03095,0.12974 0.02362,0.28366 -0.05872,0.45974c-0.04949,0.13131 -0.14011,0.27605 -0.30604,0.36587c-0.08339,0.05176 -0.16957,0.07845 -0.25257,0.08903c-0.1111,0.11316 -0.27878,0.19855 -0.53185,0.19855c-0.60072,0 -0.72029,-0.48115 -0.74409,-0.67269c-1.486,-0.58052 -3.50425,-0.72731 -4.95591,-0.72731h-0.9c0,0 -0.01526,0 -0.04142,-0.00218c-0.02625,-0.00073 -0.04141,-0.00241 -0.04141,-0.00241c-2.73826,-0.30793 -5.32276,-0.49541 -8.11718,-0.49541l-0.82825,-0.20921c-0.16221,-0.02034 -0.35372,-0.09096 -0.48474,-0.28884c-0.09102,-0.11109 -0.15734,-0.26246 -0.1433,-0.46456c-0.0073,-0.20245 0.06403,-0.35153 0.1587,-0.45953c0.13346,-0.18766 0.31984,-0.25368 0.47952,-0.27107c2.05704,-0.49533 4.21825,-0.34572 6.29794,-0.69712c3.05751,-0.51662 6.02451,-1.38578 9.09241,-1.78661c0.10155,-0.16869 0.28744,-0.32308 0.62773,-0.32308c0.75,0 0.75,0.75 0.75,0.75c0,0.46272 0.00587,0.92345 0.00413,1.38326c1.11697,-0.36973 2.35857,-0.67987 3.59909,-0.79221c-0.00563,-0.11206 -0.0091,-0.22025 -0.0091,-0.32307c0,0 0,-0.12018 0.04811,-0.26433c-0.59147,-0.84457 -1.20343,-1.71437 -1.85098,-2.53483l-0.00001,0.00001c-0.54492,-0.50925 -1.10047,-1.00234 -1.66976,-1.46451c-0.03719,-0.00869 -0.07332,-0.02015 -0.10816,-0.03415l-0.78382,-0.29394l0.04961,-0.13228c-0.51905,-0.16107 -0.83991,-0.46373 -1.52418,-1.15639l-0.62154,-0.35517c-0.16655,-0.09112 -0.29473,-0.24359 -0.35417,-0.42701c-1.66802,0.44395 -3.24023,1.21955 -4.91259,1.57903c-0.01269,0.00818 -0.02536,0.01639 -0.038,0.02463c-0.21873,0.17359 -0.42951,0.34752 -0.63148,0.52049c-0.08077,0.0794 -0.19092,0.15779 -0.33045,0.19171c-0.18865,0.10786 -0.59551,0.2583 -0.95002,-0.16711c-0.48014,-0.57617 0.09603,-1.05631 0.09603,-1.05631c0.13101,-0.10661 0.26483,-0.20984 0.40132,-0.30975l0.48579,-0.55829c0.1059,-0.01324 0.21116,-0.02721 0.31583,-0.04187c3.91472,-2.98535 9.73942,-5.4843 14.26208,-2.65764c1.2784,0.73051 2.63991,1.42173 3.68861,2.46025l0.6543,0.46735c0.19473,0.13547 0.3222,0.36091 0.3222,0.61611c0,0.25822 -0.1305,0.48595 -0.32913,0.62087c-0.09872,0.14536 -0.24716,0.25423 -0.42087,0.30217c-0.06367,0.01757 -0.13074,0.02696 -0.2,0.02696c-0.09618,0 -0.18812,-0.01811 -0.27263,-0.0511l-1.08367,-0.39406l0.05705,-0.15688c-0.39399,-0.07281 -0.78494,-0.15914 -1.17404,-0.25386c0.64993,1.10876 1.18037,2.28936 1.69773,3.5122c0.33668,0.30419 1.28458,1.35499 1.85494,2.36503c2.51771,0.09592 5.08798,0.46114 7.37944,0.50113c0.03722,-0.21869 0.08358,-0.43616 0.14128,-0.65234c-0.05664,-0.10039 -0.09294,-0.22909 -0.09294,-0.3941c0,-0.57 0.43319,-0.7068 0.64113,-0.73963c0.1247,-0.0898 0.2932,-0.15137 0.50986,-0.11037h0.39901c1.83966,0 5.40294,-0.46281 7.64305,0.1c0.15052,0 0.30104,0 0.45156,0c0.41422,-0.69054 0.96885,-1.24756 1.4882,-1.82992c-0.02133,-0.06959 -0.03281,-0.1435 -0.03281,-0.22008c0,-0.29941 0.17544,-0.55783 0.42912,-0.67809l0.4774,-0.2387c0.02275,-0.19592 0.1026,-0.33122 0.20203,-0.42466c0.22193,-0.20855 0.54145,-0.20855 0.54145,-0.20855c0.7396,0 1.4792,0 2.2188,0c0.25393,-0.03079 0.50551,-0.05303 0.74687,-0.06151c0.12256,-0.08721 0.27246,-0.13849 0.43433,-0.13849c0.19691,0 0.3761,0.07588 0.50991,0.2c0.25687,0 0.52111,0 0.79009,0c0.03333,0 0.86667,0 0.9,0c0.13556,0 0.27158,0 0.40774,0c-0.00156,0.0346 -0.00308,0.06917 -0.00458,0.10372c0.26286,0.12449 0.38466,0.39854 0.38466,0.39854c0.17978,0.4169 0.41448,0.80731 0.66692,1.19035c1.23885,-0.32556 2.48273,-0.52817 3.76835,-0.71713l0.30579,-0.00948c0.01492,-0.00072 0.0232,-0.00072 0.0232,-0.00072c0,0 0.00012,0 0.00036,0c2.27782,0.00811 4.47621,0.27143 6.66099,0.60545c0.11383,0.00057 0.22558,0.0009 0.3351,0.0009c0.98662,0 2.63206,-0.27372 3.54023,0.05709c0.12316,0.04486 0.24077,0.09323 0.35403,0.14426c0.19882,-0.0479 0.37135,-0.0289 0.37135,-0.0289c4.40431,0.48965 9.14395,0.93083 13.63835,1.84762c5.3468,-0.55435 11.69053,0.81677 16.48887,1.66116l0.02221,-0.01456c0,0 0.59198,0 0.78842,0.43519l0.62958,0.06936c0.42555,0.04137 0.75658,0.35933 0.75658,0.74544c0,0.27924 -0.17314,0.52284 -0.42996,0.65194c-0.10905,0.26203 -0.37926,0.45551 -0.70478,0.48716l-0.62958,0.06936c-0.19644,0.43519 -0.78842,0.43519 -0.78842,0.43519l-0.02221,-0.01456c-4.79835,0.84439 -11.14208,2.21551 -16.48887,1.66116c-4.4944,0.91679 -9.23404,1.35797 -13.63835,1.84762c0,0 -0.17253,0.019 -0.37135,-0.0289c-0.11326,0.05103 -0.23087,0.0994 -0.35403,0.14426c-0.80367,0.29274 -2.1847,0.11207 -3.1756,0.06662c-2.16616,0.32991 -4.34625,0.58878 -6.6044,0.59682c-0.00024,0 -0.00036,0 -0.00036,0c0,0 -0.00828,0 -0.0232,-0.00072l-0.30579,-0.00948c-1.46588,-0.21546 -2.87749,-0.44866 -4.28926,-0.86162c0,0 -0.23434,-0.06885 -0.40841,-0.24364zM305.62856,184.11163c0.09573,0 0.20773,0.00566 0.33127,0.01483c0.03494,-0.00548 0.06988,-0.01098 0.10482,-0.01649c-0.21936,0.00056 -0.4386,0.00095 -0.65771,0.0012c0.07352,0.00031 0.14739,0.00046 0.22161,0.00046zM261.09225,172.00793c-0.77156,-0.20596 -1.54831,-0.39199 -2.33976,-0.51767c-0.34341,-0.02896 -0.68862,-0.05075 -1.03439,-0.06481c0.03252,0.09508 0.06262,0.19252 0.09217,0.2929l0.17095,0.14246l-0.07571,0.09085c1.5049,0.66753 2.94761,1.69008 4.2187,2.86083c-0.33955,-0.93696 -0.67882,-1.875 -1.03197,-2.80456zM263.97096,175.50438c0.23781,0.65279 0.47892,1.30286 0.72922,1.94641c0.00496,0.00135 0.00993,0.00272 0.01489,0.00409c-0.0344,-0.09243 -0.06883,-0.18514 -0.10333,-0.27802c-0.01971,-0.04095 -0.03695,-0.08553 -0.04951,-0.13323c-0.1911,-0.51401 -0.38533,-1.03228 -0.59127,-1.53925zM260.94937,187.99205c0.35315,-0.92956 0.69242,-1.8676 1.03197,-2.80456c-1.27109,1.17074 -2.7138,2.1933 -4.2187,2.86083l0.07571,0.09085l-0.17096,0.14246c-0.02955,0.10038 -0.05964,0.19783 -0.09217,0.29291c0.34577,-0.01407 0.69098,-0.03586 1.03439,-0.06482c0.79145,-0.12567 1.5682,-0.31171 2.33976,-0.51767zM264.34423,183.15829c-0.00518,-0.00453 -0.01029,-0.0091 -0.01532,-0.0137c-0.16982,0.44822 -0.3361,0.899 -0.5008,1.3511c0.17901,-0.44066 0.34917,-0.88987 0.51612,-1.3374z" fill="#160831" stroke="none" stroke-width="0.5"></path><path d="M272.69426,179.28239c0.19091,-0.09905 0.38541,-0.09905 0.38541,-0.09905c0.8445,0 1.67263,-0.05883 2.50213,-0.1066c-0.03558,-0.02791 -0.09155,-0.06016 -0.17136,-0.09753l-0.33943,-0.67122c-0.08176,-0.09946 -0.14168,-0.23598 -0.15218,-0.42335c-0.01677,-0.13727 -0.00508,-0.3068 0.09638,-0.46259c0.09396,-0.16042 0.24037,-0.24669 0.37065,-0.29308c0.17076,-0.07375 0.31855,-0.08172 0.44337,-0.05397c2.59472,0 5.52637,0 8.11545,0c1.18591,-0.35127 2.85179,-1.97596 3.83165,-2.79622c0.09261,-0.14636 0.22976,-0.22756 0.35345,-0.27262c0.11995,-0.0559 0.27537,-0.09558 0.44541,-0.05654c1.5243,-0.00716 3.08754,-0.11008 4.59028,0.13558l0.20448,0.12855c0.13722,0.04435 0.24532,0.1287 0.31765,0.19969l0.0099,0.00623c0,0 0.01996,0.01996 0.04826,0.056c0.02979,0.03482 0.04545,0.0583 0.04545,0.0583c0.16046,0.24112 0.32092,0.48223 0.48138,0.72334l0.25292,0.31555c2.60398,-0.03572 5.12762,-0.49786 7.76667,-0.49786h0.25c0,0 0.16821,0 0.3453,0.07966c2.63735,-0.15847 6.43941,-0.60308 8.15296,0.83762l0.41163,-0.03469c0.05501,-0.00759 0.09011,-0.00759 0.09011,-0.00759c1.34824,0 2.38218,0.22916 3.60628,0.44965c1.05878,-0.6801 5.47163,0.63633 6.51702,0.81056l0.36612,0.1148c1.6205,0 3.92332,0 5.51058,0c2.97025,0 6.61701,0.2604 9.29731,1.64506l0.68871,-0.01966c0.00906,-0.0004 0.01398,-0.0004 0.01398,-0.0004c1.04167,0 2.08333,0 3.125,0l0.53571,0.625c0.19809,0 0.39462,0 0.58929,0c0,0 0.75,0 0.75,0.75c0,0.75 -0.75,0.75 -0.75,0.75h-0.25c-1.8061,0 -3.61221,0 -5.41831,0c-0.22113,0.25 -0.58169,0.25 -0.58169,0.25h-0.25c-2.08843,0 -4.50417,0.22483 -6.88587,0.25297c-0.06073,0.35325 -0.36854,0.62203 -0.73913,0.62203c-0.04044,0 -0.08013,-0.0032 -0.11884,-0.00936l-0.82251,-0.1175c-2.94951,0.00339 -5.61125,-1.1272 -8.55865,-1.12314c-5.63135,0 -11.24012,-0.125 -16.875,-0.125c0,0 -0.22714,0 -0.43142,-0.125c-2.65016,0 -5.49713,0 -8.06858,0c-0.25,0 -0.5,0 -0.75,0c-4.62797,0 -9.25594,0 -13.8839,0c-0.06352,0.64999 -0.74527,0.64999 -0.74527,0.64999h-0.33333c-0.71451,0 -1.42901,0 -2.14352,0c-0.0903,0.01364 -0.18101,0.02648 -0.2721,0.03854c0.00022,-0.01285 0.00046,-0.02569 0.00071,-0.03854c-0.166,0 -0.33199,0 -0.49798,0c-0.00064,0.03216 -0.00123,0.06433 -0.00176,0.0965c-2.37239,0.23789 -4.94275,-0.02897 -7.00406,-0.63445c-0.26959,0.10613 -0.6609,0.07237 -1.20991,-0.11971c-3.00576,-0.03021 -6.04816,-0.12842 -9.03389,-0.11733h-0.13537c0.00682,0.04065 0.01037,0.08241 0.01037,0.125c0,0.41421 -0.33579,0.75 -0.75,0.75h-0.875c-0.28283,0 -0.5654,-0.00322 -0.84771,-0.00895c-1.3163,0.18875 -2.69686,0.13045 -4.02729,0.00895c-0.50244,-0.04589 -1.08635,-0.04745 -1.45506,-0.24449c-1.68924,-0.05073 -3.37173,-0.02465 -5.0498,0.2348c-0.68544,0.10598 -3.13396,0.9001 -3.45936,-0.26143c-0.15959,-0.56966 0.62259,-1.00614 0.93389,-1.50921c0,0 0.53033,-0.53033 1.06066,0c0.25092,0.25091 0.2644,0.50182 0.20896,0.69657c1.07216,-0.33862 3.25468,-0.79086 3.76071,-0.79124c0.81735,-0.00061 1.63232,0.02766 2.44662,0.06892c0.01658,-0.03488 0.03399,-0.07047 0.05225,-0.10679c0.38309,-0.76176 1.50946,-0.98379 2.75625,-1.04625c0.07675,-0.0265 0.15913,-0.04089 0.24488,-0.04089h0.7031c1.06823,-0.1829 1.84966,-0.42023 2.73271,-0.51352l-0.02884,-0.23069l0.98826,-0.12353c0.03423,-0.00479 0.06921,-0.00726 0.10476,-0.00726c0.41421,0 0.75,0.33579 0.75,0.75c0,0.05186 -0.00527,0.10249 -0.01529,0.15139c0.18373,0.049 0.37444,0.17937 0.4768,0.48644c0.01331,0.03992 0.02363,0.07836 0.03126,0.11534c2.11934,0.0149 4.24933,0.06912 6.37758,0.10019c-0.65876,-0.47085 -1.20671,-1.00026 -1.58047,-1.66098c-1.25983,-1.13818 -2.55635,-2.22023 -3.86444,-3.30444c-0.39751,-0.03002 -0.59626,-0.42753 -0.59626,-0.42753l-0.05671,-0.11344c-0.20905,-0.17323 -0.41828,-0.34675 -0.6276,-0.52081c0,0 -0.35559,-0.29633 -0.27527,-0.70275c-0.15307,-0.14361 -0.3145,-0.28506 -0.48062,-0.43762c-0.94969,0.07488 -2.1599,0.1621 -2.63722,-0.10308c-0.08264,-0.04591 -0.16004,-0.09153 -0.23236,-0.13683c-0.86586,0.15167 -1.70323,0.34564 -2.43397,0.72493c0,0 -0.67082,0.33541 -1.00623,-0.33541c-0.33541,-0.67082 0.33541,-1.00623 0.33541,-1.00623c0.50685,-0.2464 1.0409,-0.41728 1.58978,-0.55043c0.06125,-0.65375 0.74563,-0.65375 0.74563,-0.65375l0.35181,0.00953c0.36427,-0.30441 0.92117,-0.57066 1.53578,-0.79131c0.01359,-0.00752 0.02745,-0.01463 0.04154,-0.02131l0.73547,-0.36773l0.06169,0.12339c0.3396,-0.09499 0.67863,-0.17618 0.99686,-0.24247c2.21862,-0.71161 4.86777,0.05508 7.13524,1.0502c0.11087,0.01745 0.28615,0.06448 0.42551,0.19127c0.11273,0.05185 0.22435,0.10408 0.33474,0.15653c1.19866,0.31282 2.22044,0.85416 2.89889,1.75505l0.01103,0.06007l0.01726,-0.00863l0.36825,0.7365c0.05487,0.10423 0.08593,0.22294 0.08593,0.34891c0,0.41421 -0.33579,0.75 -0.75,0.75c-0.08907,0 -0.17452,-0.01552 -0.25378,-0.04402l-0.73339,-0.24446l0.07124,-0.21372c-0.71289,-0.22192 -1.31597,-0.57057 -1.91979,-0.94891c-0.41013,0.02027 -0.82705,0.02262 -1.24815,0.01303c0.03522,0.05811 0.07089,0.11594 0.10699,0.1735c0.29264,0.0197 0.5072,0.23426 0.5072,0.23426c1.32713,1.33569 1.71859,2.57038 2.61044,4.14057c0.3211,0.56532 0.96485,1.02383 1.28311,1.62771c1.1182,-0.02563 2.27511,-0.16841 3.28593,0.09878c0.73672,0.19474 1.32099,0.49758 1.94228,0.74566zM262.11512,174.56291c-0.26294,-0.32228 -0.5272,-0.64713 -0.78064,-0.98965l-0.04228,-0.99826c0,0 0,-0.07117 0.02192,-0.16966c-0.04234,-0.0784 -0.08393,-0.15718 -0.12476,-0.23634c-0.90324,-0.06599 -1.80897,-0.14834 -2.69261,-0.19079c0.18073,0.21628 0.34986,0.45308 0.50886,0.73461c0.94128,0.78089 1.87918,1.55527 2.80237,2.34726c0.02739,-0.14361 0.10228,-0.3643 0.30714,-0.49717z" fill-opacity="0.38824" fill="#ff0000" stroke="none" stroke-width="0.5"></path><path d="M285.27815,181.47992c-0.38049,-0.03619 -0.6781,-0.35664 -0.6781,-0.7466v0v-0.77778c0,-0.49157 -0.0383,-0.96197 -0.04913,-1.40155c-0.29465,-0.10112 -0.50643,-0.38061 -0.50643,-0.70956c0,-0.14015 0.03844,-0.27132 0.10535,-0.38354l0.72969,-1.27696l0.57445,-1.11363c0.12201,-0.24893 0.37791,-0.42032 0.67384,-0.42032c0.1049,0 0.20476,0.02153 0.29542,0.06042c0.27618,-0.20634 0.51713,-0.30663 0.72585,-0.32137c0.00507,-0.18164 0.00745,-0.36317 0.00651,-0.5446c0,0 0,-0.75 0.75,-0.75c0.75,0 0.75,0.75 0.75,0.75c-0.00832,1.94193 -0.32853,3.88058 -0.33698,5.85168l-0.03944,0.06748l0.02853,0.00571l-0.2195,1.09749c-0.06296,0.35054 -0.3695,0.61654 -0.73816,0.61654c-0.00781,0 -0.0156,-0.00012 -0.02336,-0.00036c-0.49586,0.13876 -1.57791,0.11147 -1.97664,0.11147z" fill-opacity="0.25882" fill="#160830" stroke="none" stroke-width="0.5"></path><path d="M249.4603,180.23962c0.18581,0.13651 0.30642,0.35658 0.30642,0.60483c0,0.41421 -0.33579,0.75 -0.75,0.75h-0.88889c-2.42087,0 -4.80029,0.33333 -7.22222,0.33333c0,0 -0.75,0 -0.75,-0.75c0,-0.36613 0.17873,-0.55353 0.36169,-0.64944c0.07124,-0.25128 0.27019,-0.44888 0.52227,-0.51822l1.09497,-0.32849l0.03734,0.12447c1.45649,-0.54271 2.96351,-0.67007 4.37854,-0.37475c0.53606,-0.10121 1.07441,-0.25244 1.6153,-0.49849l0.851,-0.06064c0,0 0.75,0 0.75,0.75c0,0.32906 -0.14436,0.51374 -0.30642,0.6174z" fill-opacity="0.25882" fill="#160830" stroke="none" stroke-width="0.5"></path><path d="M302.45811,181.83225c-1.65163,-0.27135 -3.30716,-0.57114 -4.99695,-0.57114c-0.67113,0 -2.7633,0.26655 -3.23326,-0.2586c-0.69363,-0.77509 0.10383,-4.66252 0.28024,-5.43782c0,0 0.16865,-0.73079 0.89944,-0.56215c0.14025,0.03236 0.24737,0.08543 0.32891,0.15006c3.62656,-1.64998 6.76382,-0.05816 10.50245,-0.05816h0.01546c0.22467,-0.04066 0.3962,0.02631 0.5212,0.12145c0.13439,0.0805 0.25995,0.21436 0.30595,0.43696c0.70292,1.71899 1.79552,3.21355 2.38668,4.97319c0.14767,0.43954 0.71517,0.93717 0.44877,1.31669c-0.95357,1.35849 -5.42506,0.38125 -6.76945,0.17941z" fill-opacity="0.25882" fill="#160830" stroke="none" stroke-width="0.5"></path><path d="M276.01669,182.2611c-0.67927,0 -0.74333,-0.61521 -0.74937,-0.73125c-0.26225,-0.11685 -0.44507,-0.37978 -0.44507,-0.68542v-0.88889c0.00113,-0.62919 0.03107,-1.26077 0.11865,-1.88384c0,0 0.05051,-0.35356 0.3258,-0.53786v-0.24496c0,-0.41421 0.33579,-0.75 0.75,-0.75c0.41421,0 0.75,0.33579 0.75,0.75v1c-0.00041,0.23104 -0.00146,0.43374 -0.00587,0.61471c0.07076,0.56416 0.00587,1.16808 0.00587,1.94085v0.66667c0,0 0,0.75 -0.75,0.75z" fill-opacity="0.25882" fill="#160830" stroke="none" stroke-width="0.5"></path><path d="M262.23751,179.95c0,0.02337 -0.00073,0.04601 -0.00214,0.06794c0.00142,0.01883 0.00214,0.03786 0.00214,0.05706c0,0.41421 -0.33579,0.75 -0.75,0.75h-0.80384c-0.82959,0.00258 -1.61252,0.12273 -2.44616,0.125c0,0 -0.23003,0 -0.4353,-0.12739c-0.38602,-0.03071 -0.6897,-0.35369 -0.6897,-0.74761c0,-0.02105 0.00087,-0.04189 0.00257,-0.0625c-0.0017,-0.02061 -0.00257,-0.04145 -0.00257,-0.0625c0,-0.41421 0.33579,-0.75 0.75,-0.75h0.71485c0.85069,-0.10775 1.30318,-0.17954 1.78544,-0.11456c0.00048,-0.00008 0.00095,-0.00016 0.00142,-0.00024l0.1233,-0.02055v-0.11465h0.75c0.26628,0 0.50014,0.13876 0.63323,0.34792c0.18472,0.09511 0.36677,0.28257 0.36677,0.65208z" fill-opacity="0.53333" fill="#150830" stroke="none" stroke-width="0.5"></path></g></g></g></svg>