<svg version="1.1" xmlns="http://www.w3.org/2000/svg" xmlns:xlink="http://www.w3.org/1999/xlink" width="74.07628" height="50.00882" viewBox="0,0,74.07628,50.00882"><g transform="translate(-204.85462,-154.64706)"><g stroke-miterlimit="10"><g fill="#ff0000" stroke-opacity="0.38039" stroke="#ff0000" stroke-width="4.5"><path d="M208.0366,180.00003l16.26345,-16.26346l47.66346,16.26346l-47.66346,16.26346z"></path><g><path d="M215.9116,175.49269v-8.05802l24.08841,-7.77885l-11.83188,15.83688z"></path><path d="M228.16813,184.50737l11.83189,15.83688l-24.08841,-7.77885v-8.05802z"></path></g></g><g fill="#ff0000" stroke="none" stroke-width="0"><path d="M208.03662,180.00003l16.26345,-16.26346l47.66346,16.26346l-47.66346,16.26346z"></path><g><path d="M215.91162,175.49269v-8.05802l24.08841,-7.77885l-11.83188,15.83688z"></path><path d="M228.16814,184.50737l11.83189,15.83688l-24.08841,-7.77885v-8.05802z"></path></g></g><path d="M272.32113,177.69032l1.4154,0.35095c0,0 0.37154,0.09288 0.6519,0.38148c0.25411,0.02332 0.51582,0.04943 0.78927,0.08361l1.25566,-0.00242c0,0 1.25,0 1.25,1.25c0,0.46993 -0.17667,0.76319 -0.39717,0.94621c-0.25491,0.80379 -1.18616,0.80379 -1.18616,0.80379c-1.80523,0 -4.47238,0 -6.40103,0l-0.04031,0.04037c-2.35818,0.04596 -4.68374,-0.14657 -7.02924,-0.22259c-7.54059,1.45839 -15.89568,0.39889 -23.54367,0.39889c-9.31239,0 -18.61993,0.42548 -27.89894,0.42855c-1.68473,-1.23795 -3.53548,-2.35257 -5.2639,-3.66229c0.33607,-0.37326 0.66197,-0.74645 0.97453,-1.11809c0.05031,-0.0012 0.09987,-0.00278 0.1486,-0.00476c0.36669,-0.84911 2.31344,-2.24155 2.867,-2.69276c0.44209,-0.46143 0.91156,-0.85903 1.39046,-1.23306c0.703,-0.67094 1.36673,-1.40217 1.87983,-2.19909c0,-1.55057 0,-3.10371 0,-4.48516c0,0 0,-1.12538 1.06781,-1.24052c0.20483,-0.25168 0.45651,-0.37751 0.45651,-0.37751c1.85865,-0.92067 3.5722,-0.78031 5.32354,-1.24595c1.06304,-0.93359 2.08807,-1.91454 3.34226,-2.81985c0,0 1.01717,-0.72655 1.74371,0.29062c0.18646,0.26104 0.25807,0.50295 0.26151,0.71834c0.04318,0.02159 0.08636,0.04318 0.12955,0.06477c5.06492,-1.51869 10.3075,-2.89913 15.09173,-5.03552c0.6586,-0.28194 1.30903,-0.58329 1.9529,-0.8977c0.11553,-0.19255 0.29686,-0.37414 0.58145,-0.46981c0.26127,-0.26359 0.53341,-0.52044 0.81887,-0.76927c0,0 0.94907,-0.81349 1.76256,0.13558c0.81349,0.94907 -0.13558,1.76256 -0.13558,1.76256c-0.45032,0.37773 -0.91224,0.7994 -1.37844,1.25625l-0.0427,0.07938c-0.02553,0.01275 -0.05107,0.02549 -0.07662,0.03821c-1.67067,1.656 -3.38828,3.75293 -4.81788,5.88976c-0.2489,0.4553 -0.50172,0.90643 -0.7732,1.33517c5.18885,2.57788 10.70016,4.75031 16.1744,6.6009c0.7709,0.26061 1.51852,0.57575 2.25645,0.91509c1.27592,0.21481 2.55229,0.44282 3.82654,0.7266c1.80419,0.54251 3.44424,1.35294 5.07593,2.15306c2.1817,0.86985 4.13295,1.58171 6.49646,1.8262z" fill-opacity="0.39608" fill="#290000" stroke="none" stroke-width="0.5"></path></g></g></svg>