<svg version="1.1" xmlns="http://www.w3.org/2000/svg" xmlns:xlink="http://www.w3.org/1999/xlink" width="49.4" height="30.7" viewBox="0,0,49.4,30.7"><g transform="translate(-196.56,-160.99)"><g stroke="none" stroke-width="0.5" stroke-miterlimit="10"><path d="M220.66,173.89c0,0.5 -0.5,0.5 -0.5,0.5c-0.15904,0 -0.33629,0 -0.5248,0c0.01425,0.43223 0.0248,0.86509 0.0248,1.3v0.6c0,0 0,0.5 -0.5,0.5c-0.5,0 -0.5,-0.5 -0.5,-0.5v-0.6c0,-0.43479 -0.01056,-0.86767 -0.02481,-1.3c-0.53337,0 -1.06489,0 -1.47519,0c0,0 -0.5,0 -0.5,-0.5c0,-0.5 0.5,-0.5 0.5,-0.5c0.47959,0 0.95917,0 1.43876,0c-0.02074,-0.56481 -0.03876,-1.13047 -0.03876,-1.7c0,0 0,-0.5 0.5,-0.5c0.5,0 0.5,0.5 0.5,0.5c0,0.56965 0.01802,1.13524 0.03877,1.7c0.02041,0 0.04082,0 0.06123,0h0.5c0,0 0.5,0 0.5,0.5z" fill="#ffffff"></path><path d="M237.51355,165.24355c-0.19398,0.19398 -0.38795,0.1751 -0.52354,0.11855c-0.01681,0.47505 -0.03001,0.95073 -0.03001,1.4279v0.3c0,0 0,0.5 -0.5,0.5c-0.5,0 -0.5,-0.5 -0.5,-0.5v-0.3c0,-0.53927 0.0173,-1.07699 0.03752,-1.61408c-0.54677,-0.01822 -1.1022,0.01408 -1.63752,0.01408c0,0 -0.5,0 -0.5,-0.5c0,-0.5 0.5,-0.5 0.5,-0.5c0.55572,0 1.1175,-0.0247 1.67483,-0.00667c0.01472,-0.43099 0.02559,-0.86194 0.02517,-1.29333c0,0 0,-0.5 0.5,-0.5c0.5,0 0.5,0.5 0.5,0.5c-0.00043,0.46268 -0.01321,0.92454 -0.0295,1.38638c0.04258,0.00726 0.0851,0.01503 0.12755,0.02333l0.3555,0.23674c0,0 0.35355,0.35355 0,0.70711z" fill="#ffffff"></path><path d="M231.86,176.79c0,-0.27614 0.22386,-0.5 0.5,-0.5c0.27614,0 0.5,0.22386 0.5,0.5c0,0.27614 -0.22386,0.5 -0.5,0.5c-0.27614,0 -0.5,-0.22386 -0.5,-0.5z" fill="#ffffff"></path><path d="M244.96,178.29c0,-0.27614 0.22386,-0.5 0.5,-0.5c0.27614,0 0.5,0.22386 0.5,0.5c0,0.27614 -0.22386,0.5 -0.5,0.5c-0.27614,0 -0.5,-0.22386 -0.5,-0.5z" fill="#ffffff"></path><path d="M234.7532,187.8078c0.04334,0.26002 -0.07326,0.4058 -0.1932,0.48553c0,0.09889 0,0.19778 0,0.29667v0.1c0,0 0,0.5 -0.5,0.5c-0.5,0 -0.5,-0.5 -0.5,-0.5c0,-0.06552 0,-0.13276 0,-0.20126c-0.13333,0.00042 -0.26667,0.00084 -0.4,0.00126c0,0 -0.5,0 -0.5,-0.5c0,-0.5 0.5,-0.5 0.5,-0.5c0.13333,0.0005 0.26667,0.00099 0.4,0.00149c0,-0.13816 0,-0.27312 0,-0.40149c0,0 0,-0.5 0.5,-0.5c0.5,0 0.5,0.5 0.5,0.5c0,0.12894 0,0.25788 0,0.38682c0.08843,0.06031 0.165,0.16179 0.1932,0.33098z" fill="#ffffff"></path><path d="M196.56,173.59c0,-0.27614 0.22386,-0.5 0.5,-0.5c0.27614,0 0.5,0.22386 0.5,0.5c0,0.27614 -0.22386,0.5 -0.5,0.5c-0.27614,0 -0.5,-0.22386 -0.5,-0.5z" fill="#ffffff"></path><path d="M209.66,161.49c0,-0.27614 0.22386,-0.5 0.5,-0.5c0.27614,0 0.5,0.22386 0.5,0.5c0,0.27614 -0.22386,0.5 -0.5,0.5c-0.27614,0 -0.5,-0.22386 -0.5,-0.5z" fill="#ffffff"></path><path d="M196.56,191.19c0,-0.27614 0.22386,-0.5 0.5,-0.5c0.27614,0 0.5,0.22386 0.5,0.5c0,0.27614 -0.22386,0.5 -0.5,0.5c-0.27614,0 -0.5,-0.22386 -0.5,-0.5z" fill="#ffffff"></path><path d="M218.4,181.725c-2.55151,0 -6.60301,0 -9.15452,0c-0.33822,-0.03511 -0.61118,-0.08256 -0.84548,-0.14562v0.14562h-2.5v0c-0.9665,0 -1.75,-0.7835 -1.75,-1.75c0,-0.9665 0.7835,-1.75 1.75,-1.75h2.5v0.48191c0.76234,-0.25352 1.52952,-0.40073 2.31159,-0.48191c1.92296,-0.1996 3.93597,0 6.18841,0c0.5,0 1,0 1.5,0v0c0.92019,0 6.07981,0 7,0c0,0 1.75,0 1.75,1.75c0,1.75 -1.75,1.75 -1.75,1.75c-2.33333,0 -4.66667,0 -7,0z" fill="#13072c"></path><path d="M204.5201,181.66495l0.00395,0.05565c-2.06435,0.29491 -4.03616,0.2544 -6.12406,0.2544c0,0 -1.75,0 -1.75,-1.75c0,-1.75 1.75,-1.75 1.75,-1.75c1.15648,0 2.26314,0.0128 3.3722,-0.02985c0.43843,-0.22015 0.8778,-0.22015 0.8778,-0.22015h1.75c0,0.02139 0,0.04277 0,0.06416l3.5,1.68584c-1.12663,0.56332 -2.25327,1.12663 -3.3799,1.68995z" fill="#895b61"></path></g></g></svg>