<svg version="1.1" xmlns="http://www.w3.org/2000/svg" xmlns:xlink="http://www.w3.org/1999/xlink" width="272" height="690.81152" viewBox="0,0,272,690.81152"><g transform="translate(-104,508)"><g stroke-miterlimit="10"><path d="M239.99999,179.99997l-24.65284,-49.66861l24.65284,-102.60461l24.65284,102.60461z" fill="#0a0610" stroke="#cbadff" stroke-width="2.5"></path><path d="M250.29644,127.01278c0.04799,-0.02303 0.09527,-0.04847 0.14187,-0.07623c-0.19664,-0.84458 -0.40558,-1.68782 -0.62512,-2.53018c-0.1283,1.63255 -0.11595,2.89388 0.48327,2.60641zM245.1716,161.54766c-0.07115,1.81676 -0.14158,3.63252 -0.21081,5.44721c0,0 -0.29065,7.61252 -4.0691,7.02692c-3.77845,-0.58557 -3.48779,-8.1981 -3.48779,-8.1981c0.94563,-24.74449 2.1525,-49.73907 2.27578,-74.6697c-1.69977,-7.37242 -2.61055,-15.07925 -1.77235,-23.37114c-0.28816,-1.64663 -0.45413,-3.28238 -0.20849,-4.89914c0.10991,-0.72346 0.23985,-1.42826 0.38655,-2.11743l-0.17344,-0.12332l0.82112,-4.68725l0.19015,-3.83097c0.16976,-3.9002 1.79505,-6.95927 3.77496,-6.95927c0.10205,0 0.20315,0.00812 0.30317,0.02407c0.10002,-0.01594 0.20112,-0.02407 0.30317,-0.02407c1.70472,0 3.14652,2.26778 3.62277,5.38762l1.13596,6.86588c1.16832,5.17506 1.85334,10.74177 2.76808,16.12069c2.44336,14.36764 7.41736,26.63036 9.20042,41.66432c0.87331,7.36332 0.2528,12.58187 -0.20003,19.83976c-0.00384,1.63187 -0.2337,3.60418 -1.10353,5.15546c-0.49244,1.06942 -1.20415,1.9414 -2.22809,2.08552c-0.59151,0.20834 -1.10904,0.12311 -1.55795,-0.14357c-1.64238,5.34163 -3.44119,10.24385 -5.22902,15.61257c-0.334,1.47246 -0.93832,2.99613 -2.03174,3.68948c-0.66758,0.58704 -1.4982,0.83142 -2.45462,0.13251c-0.01852,-0.00913 -0.03691,-0.01848 -0.05516,-0.02807z" fill-opacity="0.54118" fill="#514566" stroke="none" stroke-width="0.5"></path><path d="M104,180v-688h272v688z" fill="none" stroke="none" stroke-width="0"></path><path d="" fill="#9966ff" stroke="none" stroke-width="0.5"></path><path d="" fill="#cbadff" stroke="none" stroke-width="0.5"></path></g></g></svg>