<svg version="1.1" xmlns="http://www.w3.org/2000/svg" xmlns:xlink="http://www.w3.org/1999/xlink" width="1327.67216" height="552.71103" viewBox="0,0,1327.67216,552.71103"><g transform="translate(423.83608,332.4)"><g stroke="none" stroke-width="0" stroke-miterlimit="10"><g fill="#31ff0f"><path d="M240,220.31104c0,0 -24.16713,-19.96486 -28.87112,-29.75789c-0.53817,-1.12042 -2.03835,-6.88798 -2.53204,-13.8834c-0.90531,-12.82845 -0.65789,-36.98078 -0.65789,-36.98078c0,0 9.97904,10.37524 15.17186,8.55387c2.62444,-0.92052 4.72066,-0.25404 8.16106,-3.05799c3.74184,-3.04966 8.72813,-3.37973 8.72813,-3.37973z"></path><path d="M240,141.80511c0,0 4.98628,0.33008 8.72813,3.37973c3.4404,2.80396 5.53662,2.13748 8.16106,3.05799c5.19282,1.82137 15.17186,-8.55387 15.17186,-8.55387c0,0 0.24742,24.15233 -0.65789,36.98078c-0.4937,6.99542 -1.99387,12.76299 -2.53204,13.8834c-4.70399,9.79303 -28.87112,29.75789 -28.87112,29.75789z"></path></g><g><path d="M240,141.80512c0,0 4.98628,0.33008 8.72813,3.37973c3.4404,2.80396 5.53662,2.13748 8.16106,3.05799c5.19282,1.82137 15.17186,-8.55387 15.17186,-8.55387c0,0 0.24742,24.15233 -0.65789,36.98078c-0.4937,6.99542 -1.99387,12.76299 -2.53204,13.8834c-4.70399,9.79303 -28.87112,29.75789 -28.87112,29.75789z" fill-opacity="0.75686" fill="#0a060f"></path><path d="M240,141.80511c0,0 4.98628,0.33008 8.72813,3.37973c3.4404,2.80396 5.53662,2.13748 8.16106,3.05799c5.19282,1.82137 15.17186,-8.55387 15.17186,-8.55387c0,0 -0.75054,14.84153 -3.43719,29.29889c-1.3583,7.30931 -3.76979,15.26481 -5.69381,19.64043c-1.54984,3.52466 -4.2496,8.56609 -7.53036,13.09649c-6.85276,9.46294 -15.39969,18.37772 -15.39969,18.37772z" fill-opacity="0.64706" fill="#0a060f"></path></g><path d="M-423.83608,198.60001v-531h1327.67216v531z" fill="none"></path></g></g></svg>