<svg version="1.1" xmlns="http://www.w3.org/2000/svg" xmlns:xlink="http://www.w3.org/1999/xlink" width="270.80731" height="301.29853" viewBox="0,0,270.80731,301.29853"><g transform="translate(-115.61667,-5.76704)"><g stroke="none" stroke-width="0.5" stroke-miterlimit="10"><g><g><g><path d="M164.62878,190.33932c1.18505,-0.51267 2.33336,-1.45803 3.62178,-1.37374c1.10623,0.07239 2.43568,0.13394 3.55954,0.47698c-0.00606,-0.17394 -0.01149,-0.34795 -0.01626,-0.52194c0,0 -0.07268,-2.71769 2.64501,-2.79035c2.71769,-0.07268 2.79038,2.64501 2.79038,2.64501c0.18426,7.06218 1.59158,13.99178 4.44299,20.47705c2.42417,5.51359 7.24632,9.78323 10.82831,14.51491l0.75771,0.65416c2.35486,0.51009 3.98554,1.17402 6.43195,0.01413l2.14961,-0.65254c0,0 2.60601,-0.77444 3.38046,1.83159c0.39101,1.31582 -0.07976,2.16469 -0.64174,2.6827c-0.08602,0.91002 -0.64514,1.59876 -0.64514,1.59876c-3.71277,4.45306 -5.31042,11.41123 -7.41082,16.83548c-1.48413,3.83275 -3.00094,7.80908 -4.53248,11.5742c-1.48238,3.64423 -4.40444,6.41326 -5.59077,10.20496c-0.42159,1.34746 -0.26192,2.84416 -0.75155,4.16843c-0.40643,1.09922 -1.36377,1.91793 -1.88661,2.96679c-1.53941,3.08807 -2.76564,6.46651 -4.24643,9.61794c-0.52091,1.79346 -1.11243,3.56778 -1.76937,5.316l-2.45951,2.21128c0,0 -1.27184,0.81012 -2.52445,0.27647c-0.10848,0.09683 -0.22619,0.18623 -0.35282,0.26689c-0.91537,0.58308 -2.04711,0.54995 -2.90882,0.00855l-2.89155,-1.73326c-7.67624,-2.57254 -15.97076,-2.52999 -23.90624,-4.05058c-3.52978,-0.67636 -6.53916,-2.21038 -9.94137,-2.93361c-0.12101,0.03047 -0.24945,0.05569 -0.38579,0.075c-0.95749,0.13545 -1.62259,-0.11785 -2.08216,-0.50051c-0.17472,-0.05408 -0.37897,-0.1319 -0.58785,-0.24271l-2.71605,-0.21996c0,0 -2.33183,-1.39775 -0.93407,-3.72957c0.74694,-1.24609 1.76062,-1.42717 2.54266,-1.3256c0.05579,-0.03622 0.1117,-0.07246 0.16778,-0.1087c-0.33393,-2.51498 -0.60429,-5.1667 -0.47135,-7.34637c0.27094,-4.44191 1.86157,-9.46121 2.8268,-13.81838c1.09335,-4.93565 1.77755,-10.3253 3.76849,-15.02224c1.06075,-2.50245 2.64835,-4.77364 3.57233,-7.32978c1.38064,-3.81945 1.81591,-7.8278 3.60315,-11.53774c1.56055,-3.23935 2.88388,-5.53796 3.91364,-9.04088c2.88698,-6.97827 7.25399,-13.82211 11.12894,-20.32824l2.01777,-1.62556c0,0 0.96313,-0.61349 2.03859,-0.42105c1.08436,-0.67592 2.26248,-1.24361 3.46533,-1.76399z" fill="#c392ca"></path><path d="M127.75531,215.25882c7.02629,-8.89955 15.61296,-17.17864 24.50066,-24.15724c2.51794,-1.60448 4.41542,-2.68562 6.90462,-3.31635c2.24299,-1.22971 4.57878,-2.21873 7.3273,-2.7459l2.36419,-0.91633c1.13904,-0.46747 2.47447,-0.10784 3.21844,0.90423c0.30421,-0.0544 0.60594,-0.11733 0.90411,-0.19228l1.66793,-0.41775c0,0 2.63722,-0.6605 3.29773,1.97671c0.6605,2.63722 -1.97671,3.29773 -1.97671,3.29773l-1.66793,0.41775c-0.84219,0.21022 -2.99066,0.78303 -4.89353,1.18544c-0.09363,0.11974 -0.19191,0.23642 -0.29533,0.34972c-0.89432,0.97974 -2.58453,0.59903 -3.87678,0.89854l-0.11728,-0.0356l0.00515,0.04961l-0.14572,0.01514c0.2005,1.57961 -1.3006,2.53576 -1.3006,2.53576l-1.97551,1.22418c-3.23238,3.83457 -5.52479,7.79999 -8.18484,12.02673c-3.03781,4.82699 -6.67034,9.36704 -8.85365,14.7126c-0.39109,0.95756 -0.42488,2.05126 -0.90175,2.96912c-0.88367,1.70076 -2.44384,3.02042 -3.18176,4.78931c-1.19849,2.8729 -0.75472,6.19594 -1.41933,9.24982c0,0 -0.02215,0.0999 -0.07724,0.25659c-0.04843,0.1589 -0.08974,0.25251 -0.08974,0.25251l-0.03572,0.05681c-0.10332,0.22417 -0.25241,0.48672 -0.46098,0.73292l-0.07135,0.11345c-0.18219,2.36923 0.15213,4.80117 -0.37162,7.11894c-0.46394,2.05313 -1.96805,3.73862 -2.66468,5.72492c-1.29374,3.68898 -2.06378,8.43167 -2.7063,12.25127c-0.30024,1.78482 0.4601,3.59083 0.64154,5.39159c0.30897,3.0662 -0.08554,5.72568 0.38497,8.74155c0.0777,0.27348 0.11923,0.58788 0.11169,0.94935c-0.01673,0.80295 -0.26575,1.36375 -0.6083,1.75539c-0.33546,0.39777 -0.85225,0.72857 -1.64347,0.8663c-0.36809,0.06409 -0.6944,0.06877 -0.98347,0.02919l-1.65022,-0.03769c-0.2601,-0.02399 -0.51987,-0.05454 -0.77906,-0.09126l-0.84435,0.75912l-0.02039,-0.0227c-0.02828,0.03798 -0.05686,0.07578 -0.08581,0.11336c-0.817,1.06184 -1.98851,1.76786 -3.13124,2.5074c-1.35984,1.65712 -2.60633,3.39684 -3.92356,5.13694c-0.21147,0.56945 -0.44168,1.12861 -0.75258,1.63797c-0.49147,0.80524 -0.91593,1.88692 -1.47686,2.72968c1.57094,-21.61831 5.45661,-43.93301 5.88824,-64.88787c0.06851,-3.32619 0.97701,-7.98433 1.3761,-12.6939c0.81276,-1.47701 1.60768,-2.98756 2.57499,-4.21276z" fill="#9e63a7"></path><path d="M166.32841,285.13773l-0.0019,-0.00102c0.00135,-0.00393 0.0027,-0.00786 0.00407,-0.01178c0.17826,-1.05753 0.49606,-2.09781 1.09452,-3.1778c0.05915,-0.17174 0.11829,-0.34349 0.17745,-0.51521c6.22355,-10.47925 10.3259,-22.05671 16.15319,-32.65048c3.31084,-6.01897 4.53345,-15.20907 9.83258,-19.94095l1.98656,-2.84933c0.20375,-0.30699 0.47357,-0.5773 0.80434,-0.788c0.73613,-0.46889 1.61219,-0.5393 2.37521,-0.26732c0.55976,-0.32422 1.32276,-0.46786 2.31562,-0.05636c2.51149,1.04093 1.47058,3.55243 1.47058,3.55243c-2.69106,6.47357 -5.32835,12.48163 -8.65902,18.7462l-0.32531,0.16766l0.11087,0.1007l-0.71291,0.7849c0.33173,1.13614 -0.32153,2.22598 -0.32153,2.22598l-1.56273,2.60707c-1.13923,1.89409 -1.88539,4.01395 -3.09163,5.86609c-2.10156,3.22681 -4.8047,5.42623 -6.42393,9.02326c-1.50402,3.3411 -2.70595,6.83703 -4.4587,10.07578c-1.24914,2.30817 -3.3363,4.06772 -4.75328,6.27685c-0.00375,0.00585 -0.00749,0.01173 -0.01122,0.0176c-0.25239,0.74829 -0.50474,1.49656 -0.75713,2.24483l-0.64179,2.89387c-0.15065,0.67926 -0.56042,1.30105 -1.19362,1.70438c-1.26639,0.80664 -2.94693,0.43395 -3.75358,-0.83243c-0.40333,-0.63319 -0.51181,-1.36995 -0.36117,-2.0492l0.66595,-3.00286l0.01462,0.00324c0.00767,-0.04941 0.01563,-0.09877 0.02391,-0.14809z" fill="#4b1353"></path><path d="M233.77047,165.41419c2.33182,1.39775 0.9341,3.72958 0.9341,3.72958l-1.14983,1.90269c-0.89142,1.78202 -2.16932,3.37562 -2.88594,5.23484c-1.17734,3.05453 -1.30138,6.58909 -2.53687,9.66891c-0.81414,2.02947 -1.85584,3.9996 -2.31785,6.13695c-1.94247,5.17029 -4.70204,9.86334 -7.09339,14.81499c-3.46247,7.16958 -6.27367,14.62529 -9.56718,21.86618c-2.26129,4.97152 -5.31734,9.84529 -8.35779,14.56618c-1.24309,3.45778 -2.40499,6.96154 -3.74609,10.39902c-0.09198,0.28693 -0.18977,0.57622 -0.29497,0.86821c-0.31538,0.87549 -0.6918,1.70835 -1.10396,2.5167c-0.05072,0.11526 -0.10176,0.23039 -0.15312,0.3454c-0.50924,1.14049 -1.16364,2.17069 -1.85096,3.17618c-0.59319,0.99424 -1.1832,1.99275 -1.71685,3.03372c-1.41173,2.75375 -1.34441,6.0175 -2.53063,8.91375c-0.18877,0.46091 -2.39114,4.61432 -2.529,5.38333c-0.21195,1.18223 0.25355,2.43161 -0.01079,3.60324c-0.64661,2.86597 -2.71113,5.49364 -3.08204,8.52008c-0.31304,2.55421 0.27863,5.62793 0.55711,8.18878c0.12107,0.56811 0.11369,1.29631 -0.37879,1.97085c-0.26453,0.44574 -0.69833,0.8549 -1.40663,1.0623c-0.45564,0.18508 -0.87148,0.2242 -1.24153,0.17505c-0.10078,0.08758 -0.20932,0.1688 -0.32531,0.24269h-0.00005c-1.19802,0.7631 -2.76665,0.47075 -3.61546,-0.63513l-0.98244,-1.24819c-3.60885,-1.31247 -7.47503,-3.08027 -8.56563,-6.26689c-1.45934,-4.26407 3.54798,-9.92209 5.02929,-13.75876c1.23731,-3.20473 1.81039,-6.34257 3.79988,-9.24452c1.89127,-2.75867 4.52815,-5.0854 6.02096,-8.15044c2.11657,-4.34567 4.19021,-8.58749 6.49834,-12.74967c0.33937,-1.15291 0.71162,-2.27944 1.17453,-3.33753c0.4006,-0.91566 1.32088,-1.53477 1.73882,-2.44263c1.4506,-3.15104 1.66462,-6.98162 3.01931,-10.20373c1.21583,-2.89186 3.43393,-5.32148 5.43679,-7.83141l0.27798,-1.25344l0.05752,0.01276c0.00623,-0.09961 0.01372,-0.19924 0.02257,-0.29886c0.16156,-1.82063 1.22909,-3.40591 2.47896,-4.90179c0.27028,-0.65302 0.55498,-1.29797 0.85562,-1.93181c0.15813,-0.3334 0.34211,-0.65331 0.54178,-0.96492c1.38176,-3.98346 2.94743,-7.89318 4.59729,-11.77323c0.29598,-1.12516 0.66759,-2.23401 1.2034,-3.30191c0.21711,-0.4327 0.47687,-0.83926 0.7612,-1.2308c1.68923,-3.83819 3.42313,-7.66403 5.10398,-11.52067c0.14664,-0.63489 0.26435,-1.10168 0.33452,-1.29543c0.43099,-1.19 1.05999,-2.29894 1.6766,-3.41207c0.05884,-0.1411 0.11758,-0.28227 0.17616,-0.4235c0.81802,-1.97163 1.43063,-3.9739 2.03115,-5.97577c0.28805,-2.06084 0.4824,-4.14869 1.55937,-5.87702c0.05904,-0.09475 0.1197,-0.18821 0.18187,-0.28048l-0.05167,-0.02579l2.10505,-4.21459c0.18558,-0.38829 0.4653,-0.73671 0.83086,-1.00766c0.32548,-0.79023 0.6291,-1.60669 0.8801,-2.48346l0.133,-0.13554l-0.06658,-0.02939l1.17236,-2.65631c0.20735,-0.48897 0.55982,-0.92239 1.04164,-1.2293c0.05721,-0.03645 0.11529,-0.07047 0.1741,-0.10216c0.86174,-2.39639 1.83904,-4.75168 3.06217,-7.03241c1.68489,-3.14178 4.03069,-6.04355 5.56178,-9.25938c1.61847,-3.39939 1.66803,-7.1625 3.32966,-10.52833c1.29574,-2.62472 3.95796,-5.10484 4.83907,-7.93722c0.68458,-2.20062 0.51658,-4.62837 1.32947,-6.78491c1.16896,-3.10127 3.36198,-5.68565 5.14952,-8.43239c1.08279,-1.76933 1.54629,-3.84995 2.3485,-5.76292c2.35253,-5.60998 6.85159,-10.2625 9.42045,-15.73984c2.04684,-4.36428 3.36187,-7.89806 6.58446,-11.63997l0.08537,-0.06535c0.16378,-0.36956 0.32426,-0.74626 0.47943,-1.13265c1.86501,-4.64359 3.74979,-8.71734 6.33226,-12.98778c2.29207,-3.79021 2.38746,-8.16634 4.63174,-11.98358c2.05528,-3.49577 4.4152,-6.90766 6.54998,-10.43358l0.88316,-2.34532c0.1976,-0.54246 0.56882,-1.02652 1.09337,-1.36065c1.26639,-0.80664 2.94694,-0.43394 3.75359,0.83245c0.40333,0.63319 0.51182,1.36994 0.36119,2.04918l-1.16542,5.25502l-0.01689,-0.00375c-0.00046,0.02715 -0.00096,0.05432 -0.00153,0.08146c-0.07101,3.40797 -2.61235,7.32944 -4.12756,10.17703c-3.11976,5.86314 -6.31574,12.08142 -10.10484,17.5638c-0.97195,1.40629 -2.02706,2.81645 -2.57257,4.43655l-0.46926,1.0812c0,0 -0.14151,0.32068 -0.43809,0.6809c-0.09908,0.6979 -0.5113,1.23106 -0.84477,1.55883c-0.99423,1.99771 -2.00586,3.86266 -2.50807,6.21888c0,0 -0.48963,2.20779 -2.58934,2.14963c-0.31606,0.70767 -0.64517,1.44035 -1.00775,2.20687c-2.55217,5.39543 -7.06592,10.00431 -9.33229,15.54508c-0.88984,2.17551 -1.53964,4.47538 -2.73396,6.49979c-1.56522,2.4043 -3.6644,4.78702 -4.68545,7.50219c-0.76835,2.04312 -0.53377,4.36006 -1.20872,6.43588c-1.04808,3.22341 -3.65778,5.77954 -5.16239,8.74806c-1.65613,3.26746 -1.70729,7.08 -3.29203,10.45086c-1.55633,3.31035 -3.95379,6.28891 -5.68985,9.51154c-1.67456,3.10846 -2.84118,6.38396 -3.89835,9.70735l-0.0027,0.12934l-0.03813,-0.0008c-0.00354,0.01118 -0.00709,0.02235 -0.01062,0.03353c0.38196,0.03294 0.80335,0.16362 1.26067,0.43775z" fill="#641a70"></path></g><path d="M193.54979,264.95772c-0.25251,1.09771 -1.03208,2.00574 -1.45676,3.04899c-0.93601,2.29937 -1.39403,4.77708 -2.36077,7.06372c-0.85969,2.03341 -1.98818,3.98068 -3.08695,5.94264c-0.49652,1.95929 -0.97636,3.92903 -1.42289,5.91874c-0.32901,1.46605 -0.81756,2.78129 -1.23235,4.12338c0.07711,0.75727 0.21616,1.52636 -0.05018,2.21933c-0.0274,0.07128 -0.05549,0.14224 -0.08425,0.21288l0.05403,0.00982l-0.63385,3.4862c0.42016,0.76219 0.75094,1.53647 0.67404,2.37275c-0.50304,5.47006 -4.21034,6.32417 -7.80978,2.55789c-0.45322,-0.47422 -0.79031,-1.38379 -1.04769,-2.43778c-1.85333,-0.97631 -3.69924,-2.02812 -5.57448,-2.77319c-1.7094,-0.67917 -3.59847,-0.91437 -5.22623,-1.77094c-3.84127,-2.02138 -7.73822,-4.52806 -11.91829,-5.82852c-0.23991,-0.07464 -0.47986,-0.14691 -0.71983,-0.21686c-0.09106,-0.0104 -0.17643,-0.02141 -0.25534,-0.03327c-5.51922,-0.82917 -11.1692,-0.75212 -16.682,-1.66911c-0.59488,-0.09895 -1.16983,-0.22048 -1.73279,-0.35228c-2.08362,-0.08623 -4.59073,-0.20617 -6.17755,0.28767c-1.16329,0.36203 -2.58809,1.30761 -3.95994,2.35957l-1.20125,2.10219c-0.01525,0.02787 -0.03101,0.05542 -0.04728,0.08263c-0.05036,0.10086 -0.10074,0.20173 -0.1511,0.30259l-0.93971,2.8191c-0.31418,1.02156 -1.26533,1.76413 -2.38993,1.76413c-1.38071,0 -2.5,-1.11929 -2.5,-2.5c0,-0.29691 0.05176,-0.58173 0.14674,-0.84593l0.98155,-2.94464l0.10265,0.03422l-0.04064,-0.20036c0.02143,-0.04282 0.04286,-0.08564 0.06429,-0.12846c-1.11038,-2.88448 1.83717,-7.06183 2.09091,-10.16118c0.83574,-10.20848 -0.49532,-20.59122 0.22616,-30.79551c5.71491,-0.06757 11.85125,-0.08991 17.08652,1.81465c1.11475,0.40554 2.0006,1.28277 3.05891,1.8186c7.0599,3.57449 14.4522,6.55403 21.08342,10.76725c2.79521,1.77597 6.49286,2.87861 8.97686,5.10104c1.24886,1.11735 2.22852,2.53152 3.55815,3.55143l0.88789,0.41831c0.50667,1.31245 1.68556,2.29061 3.11455,2.51237c-0.19766,0.82719 -0.40285,1.63499 -0.65338,2.43648c-0.50984,1.09985 -0.97486,2.25239 -1.44411,3.40312c-0.28872,0.5141 -0.6173,1.0331 -0.99543,1.56034l0.09318,-0.17014c0,0 -1.68809,1.68809 -1.15188,3.76014c-0.16822,1.20144 0.05279,2.91 2.19145,3.97933c3.57771,1.78886 5.36656,-1.78886 5.36656,-1.78886c0.56776,-1.13552 1.06295,-2.35163 1.55223,-3.57022c0.9015,-1.61049 1.63237,-3.28717 2.25133,-5.00797c1.08712,-1.9562 2.36243,-3.83677 3.0822,-5.95197c0.6593,-1.93752 0.69197,-4.04958 1.33127,-5.99379c1.03315,-3.142 2.7878,-6.19509 4.71432,-9.16037c0.41923,2.19005 0.45512,5.61035 0.2574,6.46984z" fill-opacity="0.65098" fill="#160a1f"></path></g><path d="M125.7415,287.65285l-0.03096,0.03262l0.03733,0.016l-0.97731,2.28037c-0.36946,0.9192 -1.26922,1.56816 -2.32056,1.56816c-1.30616,0 -2.37835,-1.00167 -2.49034,-2.27875l-0.33058,-3.30583l0.02416,-0.00242c-0.01139,-0.04053 -0.02254,-0.08112 -0.03347,-0.1218c-0.29887,-1.1132 -0.00267,-2.30525 -0.0031,-3.45787c-0.00217,-5.92939 0.15879,-11.46207 1.07006,-17.33346c0.39884,-2.56974 0.7599,-5.14821 1.28947,-7.69422c0.27646,-1.32911 0.0022,-2.97828 0.93603,-3.96364c1.83245,-1.93359 6.33852,-1.51501 8.53777,-1.50867c10.33679,0.0298 18.86854,5.79687 26.52784,12.18785c5.44357,3.90701 10.93825,10.13378 11.30067,17.15681c0.1272,2.46497 0.36442,6.15056 -2.11894,7.90911c-1.8985,1.3444 -8.40163,0.41882 -10.70956,0.4129c-9.26956,-0.02377 -18.40419,-2.96788 -27.69454,-3.01873c-1.03879,0.25722 -2.05082,0.6438 -3.01396,1.12158z" fill-opacity="0.14902" fill="#843cbb"></path></g><path d="" fill="#290b2d"></path><g><path d="M201.73713,262.98197l2.86628,-0.31481c0.92634,-0.20653 1.85269,-0.41307 2.77903,-0.6196c3.02412,-0.8719 4.96626,-2.82346 7.9769,-3.66053c3.49899,-0.97285 7.47924,-1.00506 11.05361,-1.50165c3.77343,-0.52425 7.90774,-2.38849 11.32923,1.16818c0.05261,0.05469 0.17114,6.92255 0.06424,7.52584c-0.72882,4.11337 -3.01378,8.18204 -4.02676,12.12832c-0.76376,2.9754 -0.38143,6.8469 -0.52749,10.12379l1.75319,1.7175c-0.14055,3.09531 0.34001,10.42513 -3.54688,11.95999c-1.53139,0.60472 -3.213,-0.88283 -4.62943,-1.72223c-0.75806,-0.44924 -1.32514,-1.14603 -1.90975,-1.82007c-9.22843,0.00517 -18.84094,0.76779 -28.01274,-0.28868c-0.39114,0.02542 -0.83938,-0.05594 -1.34472,-0.30861c-0.01697,-0.00849 -0.03375,-0.01704 -0.05034,-0.02565c-0.38942,-0.18711 -0.82122,-0.49708 -1.08646,-1.00367c-0.27437,-0.5017 -0.29277,-1.03291 -0.23244,-1.46072c0.00203,-0.01858 0.00423,-0.03729 0.00658,-0.05612c0.06046,-0.48369 0.20344,-0.86128 0.39447,-1.15576c0.08595,-0.6876 0.1719,-1.37521 0.25785,-2.06281l0.06968,-2.74435c1.35518,-5.24935 0.32053,-10.94208 0.94102,-16.33977c0.06057,-0.52692 0.33053,-4.52933 1.31767,-5.19229v-2.19493v0c0,-1.38071 1.11929,-2.5 2.5,-2.5c0.55665,0 1.07081,0.18193 1.48626,0.48957c0.32679,-0.11381 0.57099,-0.14095 0.57099,-0.14095z" fill="#170619"></path><path d="M273.20952,256.63644c6.27173,-0.3525 12.28308,-0.54307 18.48857,0.6233c0.45762,-0.58427 1.16961,-0.95974 1.9693,-0.95974c1.05134,0 1.95111,0.64897 2.32056,1.56816l0.9773,2.28038l-0.03755,0.01609l0.05964,0.03716c0.00517,0.01378 0.01033,0.02755 0.01548,0.04133c0.00046,0.00059 0.00092,0.00118 0.00137,0.00177c0.28139,0.36685 0.71824,1.7374 1.14648,3.27181c1.96488,3.0602 2.91848,6.23795 3.94413,10.35193c0.63877,2.56215 1.39175,4.49864 1.64856,6.94808c1.24187,0.53873 1.40874,2.04056 1.40874,2.04056c0.36525,3.51409 2.5307,7.6548 0.64176,10.72503c-0.19658,1.08408 -1.09221,1.9247 -2.20306,2.03802c-0.06417,0.03712 -0.12962,0.0739 -0.19635,0.11033c-1.09263,0.59649 -2.48471,0.15735 -3.72706,0.23603h-0.33333c0,0 -0.40532,0 -0.88956,-0.16321c-3.62867,0.56434 -8.2663,-0.03771 -11.51208,-0.1521c-0.94833,0.08388 -1.88672,0.29366 -2.94689,0.77983l-0.53343,0.27154c0,0 -0.6742,0.3371 -1.4673,0.27089c-3.26635,1.85633 -6.47801,3.61401 -9.99926,5.12424l-2.16968,0.63707c-0.37654,0.16862 -0.76479,0.21847 -1.07414,0.22317c-0.32762,0.01456 -0.74677,-0.01622 -1.15493,-0.18633c-1.1321,-0.27026 -2.23953,-0.45936 -3.19537,-0.84418c-0.2344,0.03907 -0.39067,0.03907 -0.39067,0.03907l-3.83333,-2.5c0.13764,-1.34763 -0.23857,-2.85519 0.4129,-4.04289c0.3643,-0.66415 1.40946,-0.55459 2.09821,-0.89747c0.184,-0.22904 0.38005,-0.45357 0.58108,-0.67536c0.23195,-0.86492 -0.61211,-2.08529 -0.73955,-3.07419c-0.31073,-2.41116 -0.31874,-5.14329 -1.19735,-7.44272c-1.16868,-3.05856 -2.62763,-6.42059 -4.41953,-9.17382c-0.69693,-1.07082 -4.11802,-5.15376 -4.24552,-6.15514c-0.0244,-0.19161 -0.03715,-0.38288 -0.03994,-0.57386l-0.09766,0.01221l-0.32844,-2.62754c-0.01595,-0.11412 -0.0242,-0.2307 -0.0242,-0.34921c0,-1.38071 1.11929,-2.5 2.5,-2.5c0.47136,0 0.91226,0.13045 1.28855,0.35722l0.77178,-0.61591c3.25757,-0.71567 3.79837,-2.75645 6.89503,-4.17926c3.0903,-1.41989 6.35939,-0.71089 9.58677,-0.89228z" fill="#170619"></path><path d="M196.78338,167.07596c-4.28109,-0.12514 -7.10944,-2.93494 -8.73112,-6.60699c-3.94945,-2.95581 -8.32635,-5.83666 -10.82911,-9.66583c-1.07204,-1.64021 -2.58792,-3.38695 -2.40329,-5.28136c0.01819,-0.18654 0.04328,-0.37162 0.07466,-0.5554c-1.02059,-1.44532 -1.83924,-2.92616 -2.38339,-4.43435c-2.53488,-7.02587 5.05165,-14.50768 9.27029,-19.01695c2.1746,-2.32443 3.2406,-5.39647 5.51443,-7.6431c5.88209,-5.81175 12.98298,-11.12258 19.19082,-16.69481c0,0 2.41021,-2.16344 5.12614,-0.82323c0.7669,-0.55499 1.74222,-0.88723 2.80402,-0.88723c2.46914,0 4.47077,1.7967 4.47077,4.01303c0,0.29814 -0.03621,0.58868 -0.10492,0.86828l-1.1741,5.26945l-0.09871,-0.01772l0.03577,0.26072c-4.16,11.23697 -9.413,21.73296 -14.46909,32.54797c-0.15202,0.32518 -0.31955,0.64274 -0.49999,0.95398c-1.01072,5.61291 -0.97781,11.32304 -0.97599,17.00573l3.91257,2.34131c1.23259,0.71454 2.04853,1.95852 2.04853,3.37356c0,1.94473 -1.54109,3.56636 -3.58688,3.93462l-5.27896,1.05299l-0.0411,-0.16599c-0.60879,0.12617 -1.23109,0.19007 -1.87129,0.17136z" fill="#671b72"></path><path d="M285.89545,294.97775c0.40115,-0.98293 1.06319,-1.92151 1.72906,-2.5982c0.99791,-1.01412 2.83111,-0.52083 4.2491,-0.40438c1.75669,0.14427 5.19067,0.48049 6.74225,2.22963c0.03474,-0.00433 0.06924,-0.00863 0.1035,-0.01291c0.39929,-0.54312 1.0867,-1.01902 2.25814,-0.87259c0.96542,0.12068 1.50816,0.5701 1.81099,1.07412c0.25218,0.15709 0.49295,0.37199 0.67974,0.666c0.34168,0.49953 0.39968,1.05475 0.36457,1.50444c-0.01621,0.60907 -0.18475,1.06374 -0.42735,1.40317c-0.24662,0.56137 -0.49323,1.12273 -0.73985,1.6841c-0.27703,1.45028 -0.71137,2.8444 -1.45966,3.45272c-0.80499,0.65442 -5.90138,0.52949 -7.2052,0.52949c-5.55555,0 -13.77777,0 -19.33333,0c-1.38071,0 -2.5,-1.11929 -2.5,-2.5c0,-0.94658 0.52607,-1.77028 1.30179,-2.19469l2.2912,-1.30926l0.03728,0.06525c0.0982,-0.07807 0.19865,-0.15365 0.30157,-0.22644c0.92926,-0.65723 2.21973,-0.50492 3.32711,-0.76798c1.73295,-0.41167 3.32349,-1.34153 5.07172,-1.68249c0.09904,-0.01931 0.64894,-0.03189 1.39738,-0.03996z" fill="#99712b"></path><path d="M201.04058,300.87505c-1.47171,0.05239 -2.92942,0.09163 -4.3607,0.09163c0,0 -2.5,0 -2.5,-2.5c0,-2.5 2.5,-2.5 2.5,-2.5c6.63083,0 13.72283,-0.73673 20.30546,0.01873c1.77993,0.20428 3.54172,0.66667 5.33333,0.66667l0.26722,0.19057l0.03366,-0.13465l2.61593,0.65398c1.1133,0.25265 1.9444,1.24829 1.9444,2.43804c0,1.38071 -1.11929,2.5 -2.5,2.5h-3c-2.03847,0.54904 -4.22222,0 -6.33333,0c-3.66667,0 -7.33333,0 -11,0h-1c0,0 -1.71863,0 -2.30597,-1.42497z" fill="#99712b"></path><path d="M235.06872,270.49105c-3.69365,-0.03176 -7.38014,-0.14151 -11.03368,-0.76418c-6.81892,0.0046 -14.07397,-1.89108 -20.82207,-3.01901c-4.92008,-0.82238 -10.92755,-0.10973 -15.5191,-2.15888c-2.23955,-0.99948 -4.19257,-2.82931 -6.23844,-4.13062c-2.93472,-1.86668 -6.00896,-3.14278 -8.98209,-4.98867c-3.73475,-2.33479 -8.29082,-4.37831 -11.18308,-7.79851c-2.00289,-2.36848 -3.73733,-5.19046 -5.85844,-7.50422c-0.55275,-0.60295 -1.51126,-0.74275 -2.0354,-1.37074c-1.93594,-2.31952 -2.5489,-5.462 -4.20356,-7.92783c-3.05808,-4.55727 -6.54594,-9.17967 -7.91813,-14.55052c-0.25603,-0.3361 -0.40806,-0.75572 -0.40806,-1.21084c0,-0.4918 0.17751,-0.94215 0.47196,-1.29045l1.65826,-1.98992l0.06644,0.05536l0.07,-0.20328c2.74358,-2.21416 5.50267,-4.00696 8.35817,-6.02393c1.09186,-1.36482 2.30801,-2.09958 3.57256,-2.80573c0.21645,-0.24343 0.42873,-0.48784 0.63658,-0.73233c3.32413,-3.91008 7.05481,-7.7542 9.81469,-12.08764c0.89473,-1.40487 1.42805,-3.02608 2.37521,-4.39614c1.65843,-2.39891 3.97576,-4.31604 5.67463,-6.67805c2.47804,-3.44533 3.59205,-7.19736 6.47226,-10.50874c2.95581,-3.25039 5.15316,-6.88654 6.9366,-10.7273c0.31598,-0.96054 0.66818,-1.90739 1.09601,-2.8239c0.25807,-0.55284 0.5205,-1.10541 0.78614,-1.65792c1.8657,-4.88188 3.30473,-9.96844 4.95748,-14.92299c0.82159,-2.46292 1.90706,-4.77911 2.99754,-7.08678c0.74894,-3.18046 1.81485,-6.38506 2.82477,-9.4194c0,0 0.63246,-1.89737 2.52982,-1.26491c0.43722,0.14574 0.7401,0.35864 0.94735,0.60002c1.58199,-3.13041 2.65548,-6.18695 4.87351,-8.97063c2.15569,-2.70544 5.23215,-4.6494 7.2219,-7.51701c1.06901,-1.54065 1.5501,-3.4884 2.82116,-4.8671c2.47387,-2.68337 5.52755,-3.59069 8.35706,-5.6533c3.95403,-2.88234 7.0352,-6.60677 11.08459,-9.38938c2.95238,-1.68585 6.29611,-3.5687 9.65726,-4.26386c4.64706,-0.96112 9.99481,-0.70796 14.73805,-0.70804c3.84856,-0.00007 8.38146,-0.5916 12.16212,0.39567c6.48401,1.69322 13.06944,5.12198 17.84267,9.92688c1.61822,-0.07221 1.95637,1.61855 1.95637,1.61855c0.69698,3.48629 1.78312,6.79756 3.00876,10.05905c0.00998,-0.0001 0.02,-0.00015 0.03008,-0.00015c2,0 2,2 2,2l-0.21115,0.10557c1.08706,2.23016 1.47726,4.56572 1.74794,6.93022c0.72269,1.86491 1.41566,3.75128 2.03286,5.6822c1.48127,4.63413 1.05472,9.524 2.48151,14.09957c0.06027,0.1628 0.11545,0.32617 0.16441,0.49026c0.6845,1.76143 3.09469,4.18987 3.94223,5.87286c1.10418,2.76233 1.94593,5.54623 3.10124,8.27931l-0.06861,0.2747l0.12279,-0.01754l0.12826,0.8978c0.89184,0.55102 0.89184,1.71837 0.89184,1.71837c0,2.96633 -0.51945,6.43163 -0.02583,9.3463c0.37898,2.23775 1.78114,4.3199 2.29585,6.48781c1.52623,6.4283 3.20294,12.54902 5.59392,18.77418c1.56706,4.08001 2.55054,8.3279 4.33405,12.33517c1.55895,4.71484 4.03529,9.05379 6.25752,13.49545l0.18901,1.69583c1.34983,2.42654 2.82552,4.79271 4.34292,7.07437c0.53942,0.8111 2.28324,2.65543 2.72127,3.4182c0.96524,1.68083 1.32602,3.66957 2.32986,5.32764c1.39594,2.30571 4.03483,3.32789 5.36694,5.7236c1.27428,2.29171 2.33958,4.67989 3.6643,6.99585l0.09103,0.45793c0.12509,0.30648 0.16011,0.61319 0.16554,0.83278l0.00694,0.0349c0,0 0,0.05291 -0.00861,0.14152c-0.00401,0.08894 -0.01149,0.14132 -0.01149,0.14132c-0.24193,1.08902 -0.06129,2.371 -0.7258,3.26706c-0.60723,0.81883 -1.91772,0.76534 -2.72561,1.38705c-0.13671,0.1052 -0.27246,0.21198 -0.40734,0.3202l-1.45705,2.18557l-0.05128,-0.03418c-0.04478,0.09273 -0.09095,0.18486 -0.13863,0.27635c-1.17603,2.25701 -4.91249,3.92433 -6.87227,5.52795c-2.10655,1.72371 -3.9215,3.29979 -6.54354,4.31777c-1.32041,0.51264 -2.79175,0.71719 -3.98047,1.48739c-2.92501,1.89518 -5.85982,3.06211 -9.12609,4.21729c-1.65942,0.58689 -2.9873,1.78733 -4.66667,2.33333c-3.427,1.1142 -6.99504,0.21567 -10.49232,1.37787c-6.63153,0.96555 -13.27612,2.48989 -19.96121,3.04669c-2.87032,0.23907 -5.79677,-0.22481 -8.66667,0c-0.21199,0.01661 -0.42215,0.03581 -0.63073,0.05733c-0.22903,0.59602 -0.73517,1.05462 -1.36064,1.21802l-2.29082,0.65452l-0.00775,-0.02714c-0.03381,0.01861 -0.06776,0.03699 -0.10187,0.05513c-1.0895,0.57949 -3.50996,0.29713 -4.63138,0.37726c-5.87182,0.41958 -12.04309,0.734 -17.95022,0.33333c-3.2538,-0.2207 -6.32114,-1.71089 -9.52489,-1.66164h-1.66667c0,0 -0.87218,0 -1.46462,-0.57596z" fill="#290b2d"></path><path d="M338.71931,234.37711c-0.63825,-6.21951 -6.55583,-11.51603 -8.829,-17.35338c-2.07478,-5.32789 -2.93896,-10.87122 -4.18284,-16.36415c-1.01073,-1.77938 -2.8607,-3.01508 -3.76481,-4.85147c-0.81375,-1.65286 -0.9225,-3.80734 -1.11436,-5.61719c-2.58806,-4.30733 -4.94357,-8.5001 -7.19769,-13.00587l-0.52262,-1.84503c0,0 -0.39773,-1.59093 0.73957,-2.51789c-1.33524,-3.24417 -2.46031,-6.55549 -3.10744,-9.97572c-0.55458,-2.93108 -0.16624,-5.82925 -1.46519,-8.7072c-0.41701,-0.92392 -1.36196,-1.55438 -1.73699,-2.49613c-0.36072,-0.9058 -0.1223,-1.96455 -0.41033,-2.89602c-0.67405,-2.17981 -2.33046,-3.93824 -3.22851,-6.03572c-1.1176,-2.61025 -1.4175,-5.57948 -1.49972,-8.48064c-0.88404,-2.80521 -0.98008,-5.75755 -1.63082,-8.58227c-0.59774,-2.59465 -1.70142,-5.0959 -2.33995,-7.69506c-0.54977,-2.23785 -1.86775,-4.22115 -2.59328,-6.40835c-0.70852,-2.1359 -0.92085,-4.40561 -1.40912,-6.60235c0,0 -0.54233,-2.44047 1.89814,-2.98279c2.44047,-0.54233 2.98279,1.89814 2.98279,1.89814c1.18278,5.32365 2.92762,10.31378 4.30584,15.55513c0.46278,1.75994 1.59474,3.30271 2.01847,5.07245c0.32565,1.3601 0.50021,2.757 0.7003,4.15205c1.03492,0.70741 1.03492,2.09603 1.03492,2.09603c-0.00146,0.80946 -0.01566,1.66186 -0.01399,2.53212c0.64146,1.69253 1.84025,3.15036 2.49035,4.8445c0.86533,2.25502 0.53195,4.85137 1.37731,7.11396c0.39515,1.05761 1.46604,1.7577 1.91545,2.79342c1.47258,3.39371 2.54463,7.67606 3.45117,11.30606c1.97277,5.26072 2.02739,10.69944 3.95776,15.87591c1.16586,3.12636 3.37804,5.51349 4.88845,8.41021c0.55183,1.05832 1.12188,3.40714 1.65944,5.04986c0.09767,0.17547 0.19526,0.35097 0.29279,0.52652l0.76662,1.8651c1.40222,2.53667 3.37177,4.87983 4.41115,7.53326c0.34703,0.88592 0.14635,1.90703 0.38315,2.82855c0.6863,2.67086 3.08483,5.94521 4.30497,8.23646l0.43343,3.47466c0,0 0.1595,1.43553 -0.85511,2.24555c0.01671,0.06512 0.03633,0.12961 0.05939,0.19333c1.15648,3.19652 4.67673,6.91421 6.66931,9.70441c2.00351,2.8055 4.44165,5.06362 5.40816,8.55841c0.00284,0.01027 0.00561,0.02054 0.00832,0.03083c1.08459,0.69119 1.77499,1.66401 2.15946,2.78365c0.1666,0.13485 0.33321,0.2697 0.49981,0.40455l0.01462,0.88527l0.32513,-0.07225l0.65497,2.94736c0.04655,0.19068 0.07123,0.38994 0.07123,0.59496c0,1.26431 -0.93851,2.30941 -2.15687,2.47665c-0.61382,1.52657 -1.45165,2.85777 -2.32185,3.70082c-2.49118,2.41347 -7.09601,5.51145 -10.22017,7.05032c-1.42663,0.70272 -2.92592,1.06138 -4.442,1.34935l-0.1885,0.32988l-0.07035,-0.0402c-0.0571,0.13686 -0.11835,0.2722 -0.18429,0.40581c-0.4496,0.9109 -1.54367,1.32084 -2.3155,1.98127l-0.49936,0.51388c0,0 -1.76777,1.76777 -3.53553,0c-0.26408,-0.26408 -0.44926,-0.52816 -0.57322,-0.78634c-1.32281,0.77757 -2.66447,1.55377 -4.02439,2.29476c-1.71506,1.25764 -3.42353,2.52843 -5.44007,3.40412c-1.51843,0.46775 -3.03685,0.93549 -4.55528,1.40324l-3.09695,0.69025c0,0 -0.92531,0.20562 -1.76302,-0.20612c-4.97328,0.88 -10.02631,1.3012 -14.87159,2.53211c-4.68772,1.04183 -9.39613,1.41114 -14.08758,2.35236c-0.58973,0.11831 -8.47066,1.9821 -8.87058,2.0318c-3.8072,0.47312 -9.08213,0.45106 -12.92168,-0.00267c-1.81983,-0.21506 -3.51326,-1.1204 -5.33333,-1.33333c-4.6468,-0.54364 -9.63887,-0.2063 -14.44763,-0.04895c-0.18621,0.04426 -0.38049,0.06768 -0.58024,0.06768h-2.66667c-8.35122,0 -17.32101,0.95887 -25.60613,-0.01493c-3.29456,-0.38723 -5.87356,-1.52538 -8.7897,-2.88875c-4.4168,-2.06497 -8.91445,-2.76831 -13.11057,-5.38862c-4.0369,-1.78479 -8.36492,-3.36851 -12.09717,-5.72111c-2.85706,-1.80093 -4.82913,-4.32074 -7.23269,-6.54885c-0.15893,0.04065 -0.32549,0.06226 -0.49709,0.06226c-0.61217,0 -1.16011,-0.27504 -1.52697,-0.70829l-1.6868,-1.96794c-1.46452,-0.79195 -2.92497,-1.52083 -4.27727,-2.94783c-3.20221,-3.37908 -5.06054,-7.52331 -7.35112,-11.47753c-2.75133,-4.74962 -5.81567,-9.19019 -8.10042,-14.19724c0,0 -0.4241,-0.93302 -0.13183,-1.87581c-0.49209,-1.39686 -0.96393,-2.78717 -1.46491,-4.12311c0,0 -0.70225,-1.87266 1.17041,-2.57491c0.81403,-0.30526 1.4069,-0.12398 1.81707,0.17854c1.15734,-0.16986 1.88261,0.91805 1.88261,0.91805l0.83019,1.29712c1.10878,2.49583 2.10929,5.20168 3.31506,7.62675c1.29508,2.60467 3.39312,4.74699 4.80842,7.28832c1.21205,2.17637 2.19848,4.50744 3.71087,6.48691c0.44573,0.58339 0.97912,1.19932 1.55443,1.83973c0.33615,-0.16815 0.71549,-0.26277 1.11693,-0.26277c0.62635,0 1.1989,0.23034 1.63756,0.61093l2.31288,1.98247c1.89313,1.57786 3.74446,3.20196 5.61845,4.80159c1.46148,0.79244 2.93126,1.52657 4.39323,2.26537c1.31186,0.54413 2.63105,1.08923 3.88572,1.71628c1.79064,0.60963 3.34259,1.13657 3.53269,1.18259c1.30612,0.31621 2.71458,0.13463 3.99479,0.54332c6.95942,2.22169 13.29004,6.75225 19.92215,9.79058c3.15361,0.39559 6.36609,0.70056 9.35595,1.52712c2.60676,0.72065 5.16489,1.44843 7.68165,2.24643h1.3316c0.60361,0 1.15726,0.21392 1.58927,0.57008c4.95052,0.58687 9.89192,1.12827 14.87902,1.43356c6.33478,0.38779 12.34849,-3.26924 18.50319,-3.97732c6.57508,-1.19826 13.12796,-1.54959 19.72307,-2.34093c2.0419,-0.245 3.91172,-1.33393 5.94243,-1.6589c2.61445,-0.41839 5.64611,-0.07057 8.2236,-0.64806c6.66644,-1.49361 12.19415,-5.66915 18.54068,-8.19819c2.79005,-1.11181 6.0544,-1.79227 8.94635,-2.64438c3.26163,-1.88092 7.19321,-2.78915 10.33131,-4.82497c1.64919,-1.0699 3.10464,-2.43392 4.80812,-3.41509l2.32146,-1.16165zM208.28492,266.55859c-0.29623,-0.04618 -0.59239,-0.094 -0.88871,-0.14369c0.29146,0.05603 0.58745,0.10426 0.88871,0.14369z" fill="#51165a"></path><path d="M228.8876,65.63335l-3.24471,2.5c0,0 -1.07798,0 -1.91101,-0.5776l-1.59014,0.22898c-3.78107,0.34317 -6.6073,1.66101 -10.52329,1.33646c-1.70594,-0.14138 -7.44398,-1.30859 -8.82061,-2.00821c-3.12861,-1.59 -4.45571,-4.88162 -6.524,-7.28512c-0.73731,-0.8568 -1.78852,-1.54606 -2.26874,-2.53235c-0.50668,-1.04061 -0.39759,-2.23471 -0.59638,-3.35206c0,0 -0.20737,-1.4486 0.96252,-2.27023c1.22563,-2.26791 5.27598,-3.18404 7.6827,-4.02648c5.29128,-1.85213 10.35112,-4.02697 15.43742,-6.24944l1.52704,-0.16616c0.89504,-0.30293 1.65706,-0.11725 2.21562,0.16735c0.51438,0.20184 1.04859,0.55735 1.33468,1.18351c5.51734,7.0075 6.31892,14.65225 6.31892,23.05137z" fill="#671b72"></path><path d="M223.96089,119.30972c-4.01558,5.12661 -12.91121,11.41637 -19.74787,8.80004c-3.22017,-1.23233 -4.51447,-4.97684 -7.58339,-6.28435c-0.25353,-0.10802 -0.60319,-0.19788 -0.99006,-0.2735l-0.58083,0.87124c-0.31159,0.48248 -0.85407,0.80186 -1.47114,0.80186c-0.86021,0 -1.57547,-0.62066 -1.72237,-1.43859l-0.10856,-0.5428c-1.55692,-0.26756 -2.81325,-3.23326 -2.63749,-4.59956c0.04577,-0.35582 2.68637,-3.18707 3.03795,-3.67715c0.70876,-0.98796 1.21903,-2.13834 1.74194,-3.27078c0.68265,-2.10423 1.14965,-4.32889 2.13996,-6.28624c0.93334,-1.84475 2.65804,-3.64714 3.82203,-5.37517c0.13702,-0.298 0.27924,-0.59065 0.42867,-0.87617c0.82532,-1.57691 1.6801,-3.12589 2.54619,-4.66127c-0.0215,-1.56012 -0.23654,-4.35886 0.07745,-6.72471c-0.35362,-0.32021 -0.57576,-0.78295 -0.57576,-1.29758c0,-0.25857 0.05608,-0.50404 0.15674,-0.72492l0.73476,-1.71444l0.06788,0.02909l0.00188,-0.17327c2.93246,-4.39869 4.24096,-10.03419 8.0513,-13.9039c2.33484,-2.37122 5.47442,-5.69611 8.4039,-7.3013c1.85108,-1.01429 4.0035,-1.71777 6.07241,-2.42661c-1.24925,-1.60726 -3.05128,-1.99995 -4.52771,-3.60085c-2.49845,-2.70907 -2.75911,-6.41649 -2.74503,-9.99374c-2.68634,-1.26339 -6.63346,-2.45888 -8.00907,-5.11432c-1.99299,-3.84723 -0.57237,-10.12669 0.3088,-14.08932c-2.15451,-1.3573 -5.90144,-4.06148 -3.57565,-6.89704c0.79052,-0.96379 2.48588,-0.38826 3.72841,-0.28859c2.25196,0.18065 4.40777,1.42919 6.83136,1.01279v-0.06361h0.12382c-0.01395,-0.26771 0.00492,-0.53472 0.07014,-0.80077c0.23695,-0.96667 1.51677,-1.29094 2.31197,-1.88948c1.5311,-1.15245 3.17995,-1.75863 4.87092,-2.28503c0.7133,-0.45567 1.46093,-0.85666 2.266,-1.16603c1.86061,-0.71497 4.06012,-1.03825 5.84711,-1.93504c2.0979,-1.05281 3.08634,-1.563 5.23681,-1.65741c1.44612,-0.55314 2.86613,-1.14638 4.22541,-1.82381c2.59191,-1.29175 6.1698,-2.42285 9.1999,-1.64563c2.93191,0.75203 5.50556,2.88999 7.58537,4.96575l0.30643,0.90185c5.71066,1.00258 11.81455,5.19932 14.29451,10.60106c1.17999,2.57021 1.08885,5.43939 2.26079,8.02379l0.56103,1.65734c0,0 0.03543,0.10628 0.06146,0.27401c0.02834,0.16736 0.02834,0.27939 0.02834,0.27939c0,2.7545 -0.82425,7.09215 0.94255,9.50926c2.09606,2.86757 5.93007,4.36446 7.95362,7.18565c2.09678,2.92328 2.10383,6.16683 2.10383,9.55509v1.87771c0.08187,0.58274 0.16373,1.16549 0.2456,1.74823l-0.49395,0.0351c-0.00417,0.02956 -0.00881,0.05922 -0.01388,0.08895h0.51223v1.75c0,0.9665 -0.7835,1.75 -1.75,1.75c-0.64243,0 -1.20401,-0.34617 -1.50838,-0.86215c-1.31609,1.30114 -3.20057,1.80245 -4.68892,2.6672c-0.53107,0.30856 -4.15946,3.49896 -4.47899,3.83963c-3.63151,3.8718 -4.79036,10.96406 -5.33765,16.07572l-0.25365,1.77709c0,0 -0.24749,1.73241 -1.9799,1.48492c-0.3971,-0.05673 -0.69018,-0.19148 -0.90606,-0.3655c-1.12706,3.52301 -1.09215,7.44185 -1.09978,11.24752l0.23639,1.89112c0.01116,0.07988 0.01694,0.16149 0.01694,0.24445c0,0.9665 -0.7835,1.75 -1.75,1.75c-0.48325,0 -0.92075,-0.19588 -1.23744,-0.51256l-1.25,-1.25l0.05289,-0.05289c-0.09855,-0.07485 -0.19431,-0.15368 -0.28681,-0.23712c-0.48754,-0.43979 -0.25965,-1.33129 -0.64948,-1.85963c-0.43015,-0.58298 -1.48201,-0.65268 -1.71131,-1.33993c-0.42278,-1.2671 0.34738,-4.99412 0.61678,-6.34427c0.08852,-0.44365 0.15145,-1.1831 0.35885,-1.8435c-0.04167,0.04287 -0.08118,0.07939 -0.11719,0.10738c-0.58243,0.45268 -1.32542,0.67866 -1.88507,1.15922c-1.20006,1.03047 -2.38442,2.10503 -3.73856,2.92254c-2.04123,1.23232 -3.1781,1.98235 -4.46241,3.99484l-0.02303,0.01822l0.00682,0.00487l-1.23644,1.73102c-0.3161,0.45439 -0.84211,0.75181 -1.43759,0.75181c-0.89129,0 -1.62696,-0.66631 -1.73605,-1.52798l-0.24636,-1.72453l0.07113,-0.01016c-0.02156,-0.09655 -0.03924,-0.19405 -0.0525,-0.29263c-0.02899,0.0266 -0.05816,0.05336 -0.0875,0.08029c-2.80108,2.57048 -3.75932,5.92977 -7.40686,7.78561c-3.25811,1.6577 -10.20032,3.37664 -10.04185,7.9394v0.75c0,0 0,1.75 -1.75,1.75c-0.71495,0 -1.13781,-0.29209 -1.38792,-0.6376c-0.57856,0.95023 -1.106,1.80277 -1.23879,1.97231zM209.15579,81.21836c-0.02841,0.02575 -0.05678,0.0515 -0.08511,0.07726c0.00803,0.01278 0.0159,0.02568 0.0236,0.03868c0.02047,-0.0386 0.04098,-0.07724 0.06151,-0.11594z" fill="#400d48"></path><path d="M199.0459,55.62078c-1.23744,-1.23744 0,-2.47487 0,-2.47487l0.92084,-0.72073c1.29529,-0.51045 2.65666,-0.86619 4.0289,-1.10136c0,0 1.72619,-0.2877 2.01389,1.43849c0.2877,1.72619 -1.43849,2.01389 -1.43849,2.01389c-1.12697,0.18145 -2.24729,0.46803 -3.30443,0.89864l0.25417,-0.05406c0,0 -1.23744,1.23744 -2.47487,0z" fill="#331240"></path><g><path d="M299.92347,146.53038c0.37895,-3.01174 2.10739,-5.72931 2.62164,-8.72091c0.03441,-0.2002 0.06398,-0.39393 0.08904,-0.58203c-0.75688,-8.39713 -1.70075,-17.93103 -6.70493,-24.91291c-1.69209,-2.36083 -3.83783,-4.36202 -5.69223,-6.5976c0,0 -2.39375,-2.88659 0.49283,-5.28035c1.8065,-1.49808 3.41999,-0.92806 4.37451,-0.29175c8.90254,-0.07432 17.03894,-4.041 24.59229,-8.44834c2.68917,-1.56911 6.06691,-1.91506 8.78443,-3.39999c1.83717,-1.00389 3.26206,-2.62511 4.90441,-3.92343c2.41174,-1.90651 4.24078,-4.28226 6.50374,-6.21378c0.58725,-0.50125 1.66735,-0.34529 2.09488,-0.98819c0.52054,-0.78275 0.27806,-1.85937 0.41709,-2.78906c0.58202,-2.62828 0.70477,-5.36394 1.50338,-7.9347c0.25109,-0.80827 1.04456,-1.36486 1.33497,-2.15985c0.3595,-0.98412 0.09765,-2.15989 0.58235,-3.08876c1.75657,-3.36622 4.08915,-4.65018 6.48315,-7.40479c2.6658,-3.06734 3.70183,-7.10537 6.54279,-10.2221c2.94789,-3.23403 6.83595,-4.66149 10.7863,-6.16987l1.32042,-0.79223c-0.0365,-0.20003 -0.08204,-0.40335 -0.13785,-0.61054c0,0 -0.53281,-2.557 1.4249,-3.84766c0.40582,-0.5406 0.96273,-0.97814 1.63918,-1.24097c1.93048,-0.75006 4.10348,0.20686 4.85353,2.13734l1.08648,2.79635c1.67601,2.15726 1.04148,5.14807 1.02911,7.53622c-0.01132,2.18599 0.49417,4.3541 0.48466,6.54009c-0.00733,1.68643 -0.16175,3.37019 -0.33497,5.053c0.15442,3.48307 0.21515,6.95152 0.45641,10.40126c0.16409,2.34632 0.95069,4.62098 1.12951,6.96555c1.27839,6.82291 3.25235,13.58174 3.5276,20.60162c0.09236,2.35557 -0.84273,5.06442 -1.60937,7.54582c-0.43756,3.11823 -1.27683,6.19368 -1.77198,9.30803c-0.06843,0.30957 -0.13671,0.61774 -0.20497,0.92461c-0.11205,1.15758 -0.18832,2.34892 -0.22918,3.61973c-1.76241,4.20764 -2.38107,8.66517 -3.74214,13.01718l0.24484,0.27312c0,0 0.15722,3.21689 -2.801,3.83388l-0.23173,0.52623c-0.14491,0.32906 -0.33684,0.6374 -0.57098,0.91407c-0.56575,1.78421 -1.05622,3.26562 -2.65536,4.92231c-0.02878,0.02982 -0.05795,0.05915 -0.08749,0.08804c-0.98839,-0.51906 -2.18757,-0.62388 -3.3099,-0.18782c-0.17675,0.06867 -0.34584,0.14852 -0.50678,0.23843l-2.30941,1.2465c-2.16003,1.17281 -4.20755,2.54953 -6.21625,3.96597c-10.08403,7.86277 -21.42605,12.00075 -33.89729,14.5235c-5.00349,1.01213 -9.6051,1.6344 -14.68451,1.18088c-0.5715,-0.11144 -1.18699,-0.24435 -1.86613,-0.42024c-1.32052,-0.34201 -2.61726,-0.60168 -3.89977,-0.78291c-1.62949,-1.38752 -2.61732,-4.49642 -3.57456,-6.27128c0,0 -0.77197,-1.43024 -2.24343,-1.97528c-0.05191,-0.97051 -0.14309,-1.94196 -0.02224,-2.90238zM366.69174,132.68162c-0.31024,0.23017 -0.62189,0.45898 -0.93465,0.68661c0.01321,-0.00749 0.02644,-0.01497 0.03966,-0.02245c0.3498,-0.19633 0.64436,-0.41954 0.89499,-0.66416z" fill-opacity="0.39608" fill="#671c73"></path><path d="M333.44448,47.47874c-0.64336,-0.26856 -1.03399,-0.94972 -1.63218,-1.30777c-1.16919,-0.69982 -2.56031,-1.25907 -3.97722,-1.7549l-2.29267,0.11205c-0.7159,0.05179 -1.41525,-0.28813 -1.81408,-0.89471l-0.37826,0.46673c-0.21432,0.27469 -0.50324,0.49693 -0.85159,0.63228c-1.02959,0.40003 -2.18852,-0.11033 -2.58855,-1.13991c-0.08602,-0.2214 -0.12995,-0.44878 -0.13566,-0.67332l-0.11349,-2.32226l0.05917,-0.00289c-0.01716,-0.15167 -0.02697,-0.30449 -0.02816,-0.45868c-0.02852,-3.6746 3.19363,-6.11107 6.67384,-6.89107c1.88678,-3.07899 4.27327,-1.44108 6.41444,0.75486c0.9409,0.56442 1.5698,1.26785 1.91864,2.03578c2.31323,-1.14429 4.46679,-2.52342 6.85746,-3.61057c2.28406,-1.03867 5.28822,-1.48549 7.39545,-2.82176c6.48601,-4.11303 12.40067,-10.15935 20.51562,-10.37257l2.26381,-0.29057c1.01658,-0.26256 1.79809,-0.03259 2.37602,0.35254c0.61293,0.32442 1.18644,0.90098 1.44008,1.91721c0.01135,0.02921 0.0227,0.05841 0.03404,0.08762c2.6923,0.89034 5.11597,2.61499 7.32257,4.73037c2.10265,2.01573 3.22566,1.19095 3.51966,4.68182c0.03276,0.38901 -1.37151,6.61481 -1.40951,6.77704c-0.34917,1.49103 -0.70699,7.12398 -2.16562,7.66606c-1.33743,0.49703 -2.82528,-0.7257 -3.98994,-1.54991c-1.57674,-1.11582 -2.24861,-2.81506 -3.00351,-4.43909c-2.29169,0.73178 -4.73783,1.51624 -6.43531,2.81912l-0.00003,-0.00001c-0.70324,0.53976 -0.93325,1.51896 -1.52606,2.17808c-1.37148,1.52487 -3.07238,2.72909 -4.45336,4.24535c-1.26998,1.39441 -4.2163,5.83158 -5.68684,5.54927c-0.38253,-0.07344 -0.74596,-0.20273 -1.09036,-0.37744c-0.33423,0.43184 -0.62328,0.88835 -0.82329,1.39329c-0.56345,1.42243 -1.0385,2.87723 -1.50775,4.33428c2.11718,2.1361 0.04593,4.4202 0.04593,4.4202l-0.04308,-0.09695c-1.07734,1.99954 -1.79527,3.98299 -2.36909,6.00065c-0.23951,2.66331 -0.42081,5.3444 -1.2437,7.96524c-0.00292,0.1056 -0.00977,0.20567 -0.01896,0.29858l0.01086,0.00113c0,0 -0.01222,0.13089 -0.05806,0.33757c-0.03768,0.20832 -0.07705,0.33375 -0.07705,0.33375c-1.17172,3.70111 -1.87717,8.18151 -3.24838,12.27914c0.22918,4.54809 0.51749,9.14005 -2.41428,12.60302c-4.23356,5.00064 -10.84202,5.38365 -16.80636,5.67635c-1.74093,-0.07265 -3.53191,0.20279 -5.22279,-0.21796c-1.06391,-0.26474 -2.28735,-0.96845 -3.39836,-1.93343c-0.38051,0.13957 -0.77097,0.20343 -1.15452,0.199l-2.60084,0.03073c-0.91881,0.1433 -1.83762,0.2866 -2.75643,0.4299c0,0 -2.69378,0.41241 -3.52557,-1.98477l-1.88827,0.93847l-0.03225,-0.06489c-0.16681,0.09942 -0.33817,0.19222 -0.51468,0.27754c-3.19652,1.5453 -10.22798,1.08477 -13.9027,0.55179l-0.17366,-0.12877l-0.0225,0.08038l-3.17354,-0.88828c-0.9266,-0.24857 -1.73159,-0.90281 -2.13989,-1.84162c-0.66003,0.13722 -1.31947,0.30284 -1.96504,0.29871c-0.35643,0.51252 -0.8641,0.92806 -1.48976,1.17115c-1.30034,0.50523 -2.72764,0.11682 -3.60426,-0.86679l-2.39836,-2.56884l0.07066,-0.06597c-0.131,-0.10438 -0.25905,-0.21298 -0.38384,-0.32629c-1.30674,-1.18644 -1.53168,-3.18038 -2.29752,-4.77057l0.005,-0.12623l-0.04888,0.01899l-0.96576,-2.48565c-0.65005,-1.67308 0.17927,-3.55635 1.85236,-4.2064c0.18829,-0.07316 0.37923,-0.12757 0.57079,-0.16416c0.1056,-4.23041 0.02956,-9.38061 2.40779,-12.90996c1.9848,-2.94549 5.3434,-4.10277 8.47004,-5.32081c0.02493,-0.00971 0.04988,-0.0194 0.07487,-0.02908c0.0763,-0.50568 0.30526,-1.05441 0.76997,-1.62782c2.04627,-2.52493 4.5712,-0.47866 4.5712,-0.47866c0.14681,0.12846 0.28667,0.24687 0.42062,0.35593c4.65322,-1.05566 9.69984,-1.37354 14.14939,-0.42328c1.842,0.39339 3.86131,1.02895 5.8791,1.75434l0.00074,-0.02146l2.66964,0.09163c0.52509,-0.55017 1.1561,-1.05261 1.60776,-1.63863c1.74149,-2.2596 3.80927,-4.92865 5.97969,-6.79006c1.38527,-1.18805 5.43992,-2.61224 6.1493,-4.74356c0.32331,-0.9714 0.07197,-2.06555 0.34687,-3.05175c0.57207,-2.05231 1.98111,-3.77257 2.98235,-5.6532c0.35629,-0.66921 0.67835,-1.3596 0.97487,-2.06419c-0.00286,-0.00652 -0.00569,-0.01305 -0.00852,-0.01957c-0.32392,-0.14903 -0.64234,-0.30234 -0.95027,-0.43088z" fill="#671b72"></path><path d="M303.48143,69.95219c-0.23232,2.48918 -2.7215,2.25686 -2.7215,2.25686l-0.19662,-0.07815c-2.872,0.3403 -7.09559,1.34287 -9.41527,3.24875c-0.64959,0.53371 -0.95127,1.40351 -1.56574,1.97728c-1.82523,1.7043 -3.99854,3.28025 -4.92602,5.81651c-0.55916,1.52906 0.26815,3.48232 0.20628,4.94811c-0.04213,0.99799 -0.58408,1.9396 -0.58761,2.93848c-0.00641,1.81821 1.26082,3.44441 1.52004,5.24102c0.84906,0.45791 1.20859,1.38326 1.20859,1.38326c0.50765,1.36382 1.24753,2.66072 2.15994,3.79572l2.37117,1.26959c0.51362,0.27105 0.93567,0.72131 1.16251,1.30514c0.50004,1.28698 -0.13791,2.73565 -1.42489,3.23569l-2.79635,1.08647l-0.04303,-0.11074c-0.25909,0.11369 -0.52649,0.20858 -0.80433,0.27978c-2.55897,0.65571 -4.7511,-1.06061 -6.43194,-3.30137c-1.07164,-0.02019 -2.14599,-0.09676 -3.21541,-0.13567c-1.20632,-0.04389 -2.53064,0.69492 -3.61739,0.16946c-2.73667,-1.32318 -3.44369,-3.8893 -4.39564,-6.33939c-1.04987,-2.70214 -2.11174,-6.60589 -1.90831,-9.65296c-0.82544,-2.42037 -1.48533,-5.05262 -1.25283,-7.43675c0.21861,-2.24172 1.46149,-4.26688 2.3714,-6.32724c0.99437,-2.25162 2.80375,-7.84913 5.85308,-8.39628c0.24516,-0.044 0.49092,-0.07295 0.73716,-0.08936l-0.02611,-0.14924l3.30287,-0.57781c0.36425,-0.07114 0.73156,-0.05833 1.07802,0.02787c2.05444,-1.04573 4.29879,-1.79974 6.52791,-2.66258c1.36356,0.01104 2.57075,-0.1034 3.53733,-0.12682c2.11018,-0.5379 4.31911,-0.42757 5.68236,0.99009c0.80718,0.83941 1.73405,1.83251 2.3757,2.89936c0.57813,-0.10591 1.14401,-0.19461 1.69012,-0.26698l1.28764,0.06039c0,0 2.48918,0.23232 2.25685,2.7215z" fill="#170619"></path><path d="M349.01036,59.42774c-0.35262,-0.1121 -0.70447,-0.24074 -1.05328,-0.38186c-3.57506,-0.85026 -7.4022,-1.17957 -10.68115,-2.94813c-1.43815,0.53974 -2.87185,1.09142 -4.30277,1.65004l-2.48565,0.96576v0c-1.67308,0.65005 -3.55635,-0.17927 -4.2064,-1.85236c-0.38998,-1.00371 -0.24752,-2.08307 0.29013,-2.92642l1.74134,-2.79788l0.04101,0.02552c0.03987,-0.08937 0.08129,-0.17817 0.12437,-0.26638c0.77718,-1.5913 2.24141,-2.76947 3.59364,-3.91303c0.61096,-0.51668 1.2596,-0.96864 1.93766,-1.35835c5.94178,-3.93453 12.33062,-5.00631 19.34155,-3.20011c2.02373,0.52137 4.08291,1.23782 5.69236,2.42068c2.12934,0.44356 3.91201,1.69739 4.90706,4.55525c0.49183,1.41259 -0.15816,2.98735 -0.23725,4.48103c-1.29839,3.95936 -2.6137,9.30827 -7.23588,10.80049c-1.99111,0.64281 -4.43436,1.97126 -6.2158,0.87388c-1.35187,-0.83277 -1.2942,-3.62607 -1.25093,-6.12812z" fill="#170619"></path><path d="M344.63757,82.15557c0.49121,-1.79054 0.94026,-3.58817 1.3538,-5.38373c0.18671,-0.81071 1.2777,-6.28519 1.88214,-7.05945c0.04402,-0.05639 0.08859,-0.11231 0.13363,-0.16776l-0.05531,-0.02435l1.13992,-2.58855c0.38678,-0.87832 1.10863,-1.60908 2.07387,-1.98411c1.93048,-0.75006 4.10348,0.20686 4.85353,2.13733c0.18919,0.48693 0.26977,0.98929 0.25354,1.48035l-0.01488,1.49957c2.58096,0.1109 4.57587,2.756 6.03659,4.89198c0.79929,1.16878 0.25479,2.83029 0.1777,4.24414c-0.15405,2.82527 -1.88479,10.27094 -2.34367,12.03175c-0.32095,1.23154 -0.82731,2.40714 -1.24096,3.61071c-0.18826,0.53016 -0.38614,1.03719 -0.59349,1.52386c0.03154,0.11264 0.05917,0.22354 0.0824,0.3325c0.51713,2.4264 0.962,4.91176 0.87467,7.39112c-0.32659,9.27158 -10.20334,13.91296 -17.27452,16.99396c-1.10135,0.47987 -2.15809,1.2696 -3.35887,1.30658l-3.64254,1.41526c0.02146,0.39598 -0.03103,0.78371 -0.19262,1.1565c-2.16478,4.99427 -7.1891,5.71674 -11.69662,4.86578c-1.49727,-0.28267 -2.65863,-1.49959 -4.05308,-2.11378c-0.22934,-0.10102 -0.46524,-0.18993 -0.70543,-0.2708l-0.48381,4.03361c-0.13576,1.36025 -1.01299,2.59695 -2.37446,3.12593c-1.35808,0.52766 -2.8362,0.21053 -3.85448,-0.69604c-3.22993,-1.01517 -5.43985,-4.48302 -7.63396,-7.19517c-1.84125,0.52569 -3.81357,-0.42901 -4.5208,-2.24926c-0.36216,-0.93212 -1.62971,-4.19452 -1.99188,-5.12664c-0.40563,-0.25278 -1.25371,-2.70922 -2.03385,-5.23468c-0.77068,-1.98357 -1.54138,-3.96714 -2.31206,-5.95072c0,0 -0.55905,-1.43887 -0.03661,-2.82896c-0.96759,-4.7126 -1.44535,-11.19838 5.86406,-9.93526c5.1101,0.88307 6.97807,3.74441 8.71744,7.12201c2.47417,-1.40595 6.00958,-1.37088 9.10338,0.18033c1.1323,0.56772 2.14237,1.32892 3.1143,2.15052c2.02504,-1.1997 5.52435,-2.93818 6.80222,-2.59981c3.80649,1.00793 5.22589,2.42458 5.3967,4.37067c2.52162,-2.76537 5.13494,-5.58086 6.81207,-8.80032c0.91017,-4.81001 1.63381,-10.43516 4.52001,-14.23146c0.35874,-0.47186 0.7723,-0.94775 1.22194,-1.42363zM312.79291,109.13329c0.19872,0.48454 0.33464,1.0758 0.63415,1.47177c0.2134,-0.24702 0.45878,-0.46978 0.71933,-0.68128c-0.23422,-0.17626 -0.47124,-0.34881 -0.71172,-0.5168c-0.19126,-0.13359 -0.41218,-0.21187 -0.64176,-0.27369z" fill-opacity="0.87843" fill="#671c73"></path><path d="M380.29413,65.18096l0.72432,1.86423c0.02311,0.05947 0.04619,0.11892 0.06927,0.17838h0.00002c0.4912,0.68999 0.79727,1.58204 0.98198,2.57154c1.67288,4.49125 3.06274,9.01141 3.13462,13.86264c0.41722,8.58118 -1.31985,17.07488 -2.36994,25.54414c-0.43136,3.47903 -0.18251,6.96819 -1.15947,10.40442c-0.74523,2.62117 -2.51355,5.18117 -3.61565,7.66252c-1.76788,3.98035 -4.51082,6.91404 -7.38589,10.08456c-0.4712,0.51964 -0.75356,1.3386 -1.38027,1.61178c-0.07192,0.11995 -0.14324,0.23976 -0.21385,0.35945l-0.26746,0.11148l0.08807,0.08984l-1.78121,1.7462c-0.19363,0.19865 -0.43192,0.35999 -0.70737,0.46701c-0.07793,0.03028 -0.15661,0.05535 -0.23563,0.07536c-1.85653,1.8478 -3.0956,2.14946 -5.55947,3.13096l-2.85498,1.60627c-0.16923,0.09881 -0.34843,0.1856 -0.5369,0.25883c-1.93048,0.75006 -4.10348,-0.20686 -4.85353,-2.13734c-0.57113,-1.46996 -0.15255,-3.08053 0.93194,-4.09644l2.61583,-2.56442l1.2271,-5.01123l0.13617,0.03335c-0.03434,-2.37392 0.04145,-4.74398 0.30555,-7.09924c0.61634,-5.49637 2.16677,-10.89522 2.38855,-16.44054c0.20429,-5.10796 -0.45729,-9.7031 -0.4137,-14.75033c0.03897,-4.51217 0.20453,-8.78133 -0.21691,-13.10885c-0.81096,-1.95988 -1.59648,-3.92146 -2.08555,-5.93514c-0.53968,-2.22203 -0.60756,-4.5255 -0.78423,-6.81261c-1.00349,-3.35785 -2.08641,-6.68412 -3.12663,-10.06666c-0.39391,-1.28091 -1.26844,-2.47153 -1.27862,-3.81161c-0.03333,-4.38909 1.61861,-4.92786 4.39291,-7.60357c0.30923,-0.12529 0.61858,-0.25027 0.92803,-0.37496c0.22126,-0.45419 0.57418,-0.91283 1.107,-1.3547c0.46217,-0.38327 0.91171,-0.63116 1.34081,-0.77723c6.23546,6.26853 13.37089,12.20824 19.14273,19.08377c0.57946,0.16682 1.07712,0.59271 1.31235,1.19815z" fill-opacity="0.53333" fill="#18061a"></path><path d="M382.46698,75.87311c0.16255,0.51482 0.31042,1.04401 0.44317,1.5891c0.18139,0.54714 0.34534,1.09512 0.33742,1.59985c0.07385,0.41102 0.13982,0.83084 0.19773,1.26001l0.60599,2.41112c0.45395,1.70148 -0.43605,3.508 -2.11557,4.16055c-0.29583,0.11494 -0.59777,0.18692 -0.89893,0.219c-0.18029,1.66883 -0.41274,3.2986 -0.62318,4.81504c-0.22222,1.60132 0.2931,3.50015 -0.66187,4.80463c-1.32035,1.80357 -3.39779,4.20865 -5.57901,3.72026c-2.42463,-0.54289 -3.20158,-3.82379 -4.47716,-5.95976l-0.08038,2.34226c-0.01608,1.38684 -0.86119,2.68992 -2.23315,3.22297c-1.80178,0.70005 -3.82991,-0.19307 -4.52996,-1.99485l-1.08647,-2.79635l0.08103,-0.03148l-0.14613,-0.15088c-1.19626,-4.49313 -1.34472,-9.10396 -2.40243,-13.59619c-1.22815,-5.21616 -4.34348,-10.51101 -7.20465,-14.98474c0,0 -1.88275,-2.95047 1.06771,-4.83322c2.95046,-1.88275 4.83322,1.06771 4.83322,1.06771c0.43413,0.68171 0.87097,1.3784 1.30545,2.08805c-1.0142,-3.3355 -1.81287,-6.34295 -3.07938,-9.60264l-0.96576,-2.48565c-0.70005,-1.80178 0.19307,-3.82991 1.99485,-4.52996c1.08092,-0.41997 2.2433,-0.26656 3.15153,0.31244l2.79541,1.7398l-0.01095,0.01759c0.03093,0.0115 0.06184,0.02311 0.09269,0.03486c2.48967,0.94795 4.05313,2.87785 5.43549,4.94687l2.12746,1.1774l-0.0554,0.10011c0.13307,0.03491 0.26547,0.07335 0.39714,0.11569c1.36887,0.44023 2.18486,1.87365 3.20798,2.88402c3.84364,3.7957 8.09235,10.57424 8.07612,16.33638zM372.76871,75.58919c0.10444,0.65235 0.20138,1.30836 0.29429,1.96656l0.39891,0.04729c-0.19835,-0.67259 -0.42951,-1.34249 -0.6932,-2.01385z" fill-opacity="0.8549" fill="#18061a"></path><path d="M375.39596,55.78165c-1.66608,0.54207 -3.24437,-1.32771 -4.8968,-1.91006c-1.38771,-0.48906 -3.18269,-0.25625 -4.21768,-1.30206c-0.27121,-0.27404 -0.51273,-0.5511 -0.7266,-0.83068c-0.95922,-0.09514 -3.06575,-0.61149 -3.19742,-3.30565c-0.10888,-2.22794 1.27152,-3.10538 2.28715,-3.44878c0.13586,-0.41007 0.29608,-0.81711 0.47483,-1.21967l-0.49533,-0.13864l0.8875,-3.17074c0.27907,-1.04031 1.03296,-1.93826 2.11388,-2.35824c1.56188,-0.60684 3.29386,-0.01651 4.18338,1.3251c2.61407,-3.42803 5.29014,-4.41108 9.28701,0.72623c0.97806,1.25715 0.38864,3.18516 0.24957,4.77188c-0.11036,1.25919 -0.56362,3.04717 -1.26555,4.81633c0.17501,1.41392 -0.53382,2.82057 -1.81318,3.50841c-0.8462,1.24067 -1.8219,2.19527 -2.87078,2.53653z" fill-opacity="0.87843" fill="#671c73"></path><path d="M346.46026,44.46382c1.99762,-0.09762 2.09524,1.89999 2.09524,1.89999l0.08915,1.94972c0.08672,1.01486 0.78794,2.17344 0.26014,3.04458c-1.5582,2.57181 -6.21203,3.58105 -7.68721,-0.3046c-0.46696,-1.22999 1.3178,-2.27752 1.9767,-3.41628c0,0 0.57416,-0.63316 1.38569,-0.69631l-0.0197,-0.38186c0,0 -0.09763,-1.99762 1.89998,-2.09524z" fill="#99712b"></path><path d="M335.6466,49.98007c1.19669,1.29499 -0.03536,2.65366 -0.03536,2.65366l-1.47504,1.62663c-0.20607,0.23705 -0.47116,0.42889 -0.78426,0.55054c-1.02959,0.40003 -2.18852,-0.11033 -2.58855,-1.13991c-0.18147,-0.46707 -0.17559,-0.96075 -0.01888,-1.39812l1.01549,-2.88874c0,0 0.66328,-1.88681 2.5501,-1.22353c1.11723,0.39275 1.34036,1.21448 1.33651,1.81947z" fill="#99712b"></path><path d="M363.65855,57.3401l0.72432,1.86423c0.28259,0.78899 0.99779,1.54245 0.84778,2.36699c-0.03085,0.16955 -0.06929,0.33676 -0.11425,0.50196l0.10452,0.01565l-0.39204,2.61941c-0.09173,0.70142 -0.55355,1.33235 -1.2594,1.6066c-1.02959,0.40003 -2.18852,-0.11033 -2.58855,-1.13991c-0.24144,-0.62142 -1.2072,-3.10705 -1.44864,-3.72847c-0.14591,-0.37552 -0.39715,-0.88216 -0.67442,-1.44379l-1.80462,-0.56647l0.05685,-0.18109c-0.05867,-0.01379 -0.11688,-0.02897 -0.17458,-0.04565c-0.54217,0.12074 -1.76615,0.21184 -2.32107,-1.21639c-0.45307,-1.16611 0.10669,-1.88621 0.58945,-2.262c0.208,-1.90163 1.20775,-3.93534 2.2882,-4.18687c1.96147,-0.45663 3.38535,2.02657 4.37163,4.48894c1.27964,-0.01908 1.79481,1.30685 1.79481,1.30685z" fill="#99712b"></path><path d="M296.4225,69.2111c-1.22591,1.58024 -2.80615,0.35434 -2.80615,0.35434l-0.69623,-0.54326c-0.13395,0.09607 -0.28204,0.17703 -0.44279,0.23949c-0.59515,0.23123 -1.23351,0.15827 -1.74355,-0.14333l-1.83044,-1.06138l0.19906,-0.34328c-0.61233,-0.30095 -1.06942,-0.7166 -1.19578,-1.37663c-0.17312,-0.90422 0.5555,-1.66286 1.51863,-2.20162c0.20247,-0.41734 0.59616,-0.80843 1.34004,-0.98158c0.60772,-0.14145 1.06997,-0.04918 1.41837,0.14476c0.9527,0.12825 1.62768,1.41135 2.46638,2.01368l1.41813,1.09269c0,0 1.58023,1.22591 0.35433,2.80615z" fill="#99712b"></path><path d="M279.83053,72.22186c-0.00368,-1.26355 1.30706,-1.77282 1.30706,-1.77282l2.03827,0.01334c0.78752,0.50009 1.85396,0.71822 2.36256,1.50026c0.72169,1.1097 1.44924,2.54149 1.09556,3.81712c-0.31318,1.12954 -1.69604,1.68579 -2.75853,2.18084c-2.93843,1.3691 -5.44043,1.47056 -5.45322,-3.14705c-0.00274,-0.98917 0.77059,-1.77244 1.4083,-2.5917z" fill="#99712b"></path><path d="M275.18063,86.71305c0.57682,-0.82142 1.2764,-0.94113 1.83024,-0.85655c0.14519,-0.30849 0.40483,-0.61141 0.8398,-0.86963c1.71979,-1.02094 2.74074,0.69885 2.74074,0.69885c0.35898,1.23707 1.70075,2.58422 1.07695,3.7112c-0.6364,1.14975 -2.51318,0.76918 -3.76977,1.15378l-2.23055,-1.05154c0,0 -1.63675,-1.14936 -0.4874,-2.78612z" fill="#99712b"></path><path d="M369.27697,85.90878c-1.95291,-0.43142 -1.52149,-2.38433 -1.52149,-2.38433l0.47353,-2.00748c-0.06171,-0.4639 -0.13949,-0.93132 -0.23187,-1.40117c-0.7401,-0.05981 -1.41757,-0.5312 -1.70453,-1.26976l-0.72432,-1.86423l0.42177,-0.16388c-2.69793,-4.13107 -4.24446,-9.12856 -5.92597,-13.86558c-0.75293,-1.2191 -1.37318,-2.46284 -1.13538,-3.05934l-0.72432,-1.86423c-0.21379,-0.55024 -0.16755,-1.13742 0.07898,-1.62596c-0.09986,-0.26436 -0.20062,-0.52791 -0.30262,-0.79041c0,0 -0.72432,-1.86423 1.13991,-2.58855c1.86423,-0.72432 2.58855,1.13991 2.58855,1.13991c0.95037,2.44603 1.7846,4.99218 2.79339,7.43119c4.02077,6.05412 6.95144,13.78277 7.72218,20.10559l-0.56348,2.68675c0,0 -0.43142,1.95291 -2.38434,1.5215z" fill-opacity="0.45098" fill="#99712b"></path></g></g><g fill-opacity="0.37647" fill="#160a1f"><path d="M248.34232,138.07996c0.40502,1.11527 0.11717,2.91015 1.19101,3.36984c0,-0.53152 0,-0.98313 0,-0.98313c0,-1.65685 1.34315,-3 3,-3c1.295,0 2.39835,0.82052 2.81852,1.97004c0.50938,-0.39891 1.15099,-0.63671 1.84814,-0.63671c1.36547,0 2.51788,0.91227 2.88098,2.16057c1.00915,0.31494 1.86173,0.79219 2.32059,1.50044c1.00997,-2.31327 1.92203,-4.67311 2.68215,-7.1147l0.18967,-0.17627l-0.09001,-0.045l1.30427,-2.60854c0.48103,-1.01474 1.51474,-1.71649 2.71235,-1.71649c1.65685,0 3,1.34315 3,3v4h-0.09236c0.01834,0.19986 0.02904,0.40087 0.03109,0.6032c0.00155,0.153 -0.00754,0.30381 -0.02588,0.45273c0.14452,0.02828 0.28532,0.06694 0.42159,0.11517c0.47648,-0.31864 1.04931,-0.50443 1.66555,-0.50443c1.61848,0 2.93761,1.28164 2.99785,2.88538l0.20755,4.77355l0.12998,-0.13424l-0.09282,-0.03978l0.97276,-2.26978c0.44334,-1.10303 1.52306,-1.88179 2.78467,-1.88179c1.51397,0 2.766,1.12147 2.97069,2.579l0.32127,2.03473c0.30851,-0.09397 0.63534,-0.17896 0.98265,-0.25467c0.00713,-0.00155 0.01425,-0.00307 0.02138,-0.00454c0.24541,-1.24328 0.50152,-2.48525 0.78719,-3.72275l0.01841,-0.02304l-0.01202,-0.00301l0.65145,-2.60579c0.30317,-1.33596 1.49794,-2.33327 2.92565,-2.33327c0.25197,0 0.49668,0.03106 0.73052,0.08957c-0.03625,-0.93092 -0.06385,-1.85265 -0.06385,-2.75624v-3c0,-1.65685 1.34315,-3 3,-3c1.57928,0 2.87354,1.22032 2.99127,2.76944l0.34206,3.9337v-3.03648c0,-1.65685 1.34315,-3 3,-3c1.54443,0 2.81628,1.16705 2.98177,2.66738l0.29258,2.34066c1.47804,2.69131 1.71902,6.17457 2.32752,9.03847c0.68957,3.24547 1.66008,6.42744 2.33528,9.67593c0.30026,1.44462 1.62133,8.07915 0.31189,9.26296c-1.56786,1.41745 -4.1749,1.20096 -6.27163,0.93434c-0.28369,-0.03607 -0.70837,-0.17973 -1.21758,-0.39786l-0.71414,1.42829c-0.48103,1.01474 -1.51474,1.71649 -2.71235,1.71649c-1.65685,0 -3,-1.34315 -3,-3v-2.38702c-0.12913,-0.50073 -0.25189,-1.00188 -0.36881,-1.50353c-0.05019,0.09714 -0.10327,0.19309 -0.1595,0.28777c-0.06718,0.11313 -0.13653,0.22461 -0.20791,0.33456l0.0443,0.02385l-2.30412,4.27907c-0.49736,0.96897 -1.50657,1.63196 -2.67063,1.63196c-0.6638,0 -1.27724,-0.21559 -1.77414,-0.58057c-0.08852,0.13437 -0.18255,0.2656 -0.2827,0.39335c-0.1108,0.14133 -0.22866,0.27483 -0.35269,0.40151l0.04752,0.0396l-1.652,1.9824c-0.5502,0.6698 -1.38487,1.09705 -2.31933,1.09705c-1.49134,0 -2.72851,-1.08819 -2.96081,-2.51386c-0.01861,0.28552 -0.03182,0.49564 -0.03919,0.59893v2.5816c0,1.65685 -1.34315,3 -3,3c-0.24224,0 -0.47777,-0.02871 -0.70337,-0.08291c-0.14652,0.64751 -0.28831,1.29608 -0.4235,1.94612l-0.15851,0.22264l0.07081,0.02833l-1.97405,4.93512c-0.42543,1.13937 -1.52366,1.95071 -2.81138,1.95071c-1.4277,0 -2.62247,-0.99731 -2.92565,-2.33327l-1.17039,-4.68156c-0.51795,0.42584 -1.1811,0.6815 -1.90396,0.6815c-0.29145,0 -0.57319,-0.04156 -0.83962,-0.11908c-0.8827,0.22339 -1.69278,0.3645 -2.29238,0.44565c-0.72215,0.09774 -1.41912,0.1122 -2.09379,0.05593c-0.84472,0.59603 -1.72244,1.03901 -2.70255,0.9394c-2.94394,-0.29919 -4.16361,-2.09509 -4.63122,-4.30338c-0.45095,-0.35391 -0.89459,-0.72145 -1.33262,-1.09538l-0.27425,0.73132c-0.40837,1.17156 -1.5228,2.01221 -2.83358,2.01221c-0.83929,0 -1.59808,-0.34465 -2.14257,-0.90014c-0.49088,3.86811 -0.99899,7.73634 -1.25947,11.63272c-0.60282,9.01755 0.00459,18.29513 0.00459,27.3341c0,6.71817 -0.39395,12.93677 1.44345,19.42024c0.35613,3.17047 0.35556,6.38257 0.9983,9.49142l0.05826,1.58835c0,0 0,0.35817 -0.12376,0.827c0.49807,1.09835 0.99667,2.19306 1.10916,3.37739c0.22794,2.39978 -0.69275,5.87647 0.31277,8.21382c1.80053,4.18537 3.13993,8.11663 4.07219,12.64177c0.27183,0.35378 0.48499,0.82378 0.58883,1.44682c0.01606,0.09639 0.02847,0.19016 0.03743,0.28138c0.05495,0.48005 0.02121,1.05498 -0.26147,1.60462c-0.27825,0.55189 -0.72337,0.91734 -1.14392,1.15525c-0.07905,0.04641 -0.16217,0.09153 -0.24957,0.13523c-0.5524,0.2762 -1.04794,0.38182 -1.48662,0.37538c-6.98386,1.03659 -14.30504,0.44133 -21.35502,0.44133c-7.10992,0 -14.14643,0.04591 -21.21267,-0.50755c-2.8007,-0.21936 -4.16936,0.37947 -7.20344,-0.02145c-2.0854,-0.27557 -4.06171,-1.10941 -6.12474,-1.52016c-1.86425,-0.31757 -3.82033,-0.04694 -5.64842,-0.5311c-1.15923,-0.30702 -2.10189,-1.18437 -3.23847,-1.5668c-1.8171,-0.6114 -3.87302,-0.34517 -5.65406,-1.05478c-6.60974,-2.63349 -11.65061,-8.68577 -16.18457,-13.83256c-2.49106,-2.82776 -6.91341,-4.58664 -8.78559,-7.88841c-1.44877,-2.55504 -1.95869,-6.80772 -3.8292,-9.25233c-0.46558,-0.60848 -1.39199,-0.73901 -1.86788,-1.33945c-0.12819,-0.16174 -3.62014,-6.16724 -4.04913,-6.90362c-0.67643,-3.23452 0.01695,-6.68274 -2.10183,-9.28179l-1.01043,-3.07239c0,0 -0.5747,-2.29882 1.34045,-3.32112c0.09646,-0.65091 0.40198,-1.23367 0.84612,-1.67781l1.58353,-1.58353c0.18011,-0.24589 0.39292,-0.44637 0.60818,-0.60818l0.14162,-0.14162l0.02437,0.02437c0.04261,-0.02828 0.08502,-0.05511 0.12697,-0.08053c0.01003,-0.03724 0.02031,-0.07443 0.03085,-0.11159c0.24587,-0.86665 1.57257,-0.91908 2.20971,-1.55593c2.43252,-2.43138 4.13471,-6.02498 6.8668,-8.17342c0.7812,-0.61431 1.86652,-0.74391 2.66667,-1.33333c2.52648,-1.86112 4.24925,-5.89923 6.07703,-8.37641c1.27589,-1.7292 3.18269,-2.89235 4.85843,-4.23768c2.21553,-1.77868 2.88093,-4.95932 4.49342,-7.12164c1.04145,-1.39656 2.47487,-2.43082 3.86169,-3.5103c1.13345,-2.46443 2.72497,-4.59015 3.87047,-7.04c1.15968,-2.48016 2.05635,-5.11506 3.56567,-7.39936c0.3638,-0.55059 0.71828,-1.08144 1.06329,-1.60107l-2.14584,-0.95371l0.14646,-0.32954c-0.46621,-0.15689 -0.91435,-0.3588 -1.33708,-0.62401c-0.35442,-0.22235 -0.59495,-0.52464 -0.76128,-0.88042c-1.6007,-1.26512 -2.77115,-3.11706 -4.00356,-5.26007c-1.6753,-2.27651 -2.83314,-4.93276 -3.74212,-7.60911l0.043,-0.26295l-0.09211,0.01417l-0.31602,-2.05413c-2.10157,-3.26565 -3.28612,-6.71398 -1.33416,-10.53849c0.28733,-0.56298 5.3962,-5.00788 6.33379,-5.81159c0.16157,-0.1385 0.32732,-0.27612 0.49649,-0.41309c0.80141,-0.9949 1.6043,-1.97382 2.29236,-2.97487c1.61812,-2.35419 3.06801,-5.54374 4.92145,-7.66199c0.90979,-1.03977 4.32068,-3.13187 6.66241,-4.20611l1.30407,-2.28433c0,0 0.20764,-0.36336 0.60352,-0.7411c0.00044,-0.03478 0.00085,-0.06938 0.00121,-0.10381c0.01178,-1.1189 -0.19751,-2.27199 0.08025,-3.35593c1.17968,-4.60357 5.19325,-7.92781 7.89901,-11.76003c-0.6017,-0.54866 -0.97927,-1.33892 -0.97927,-2.21738v-2.66667h0.21822l-0.18642,-0.43564c0.63225,-1.68924 0.41847,-4.0343 1.89675,-5.06773c0.07867,-0.055 0.15654,-0.10871 0.23361,-0.16115c0.44128,-0.72576 1.07114,-1.35303 1.3949,-2.13891c0.40175,-0.97519 0.27771,-2.11988 0.70302,-3.08503c0.34298,-0.77831 1.2818,-1.21983 1.54971,-2.02707c0.30454,-0.9176 -0.31786,-2.02042 0.08525,-2.89918c0.08594,-0.18735 0.18322,-0.36959 0.29033,-0.54662l-1.57963,-0.39491l0.02971,-0.11885l-0.25985,0.05144c-0.2077,-0.08895 -0.41126,-0.1854 -0.61094,-0.28872c-0.80378,1.15066 -1.8398,1.56739 -2.93481,-1.3729l-2.04246,-1.27654c-0.8713,-0.52494 -1.45405,-1.48018 -1.45405,-2.57152c0,-1.65685 1.34315,-3 3,-3h0.4798c0.21981,-0.49074 0.47189,-0.962 0.73954,-1.40177c0.94388,-1.55082 2.87457,-2.21825 4.31059,-3.329c1.76061,-1.36182 3.16697,-3.18165 5.04927,-4.36962c0.51742,-0.32656 1.48032,0.16216 1.8,-0.35954c0.28997,-0.47321 -0.43633,-1.02085 -0.63711,-1.53825c-0.73781,-1.90134 -2.9531,-3.44289 -2.73901,-5.4711c0.04696,-0.44492 0.21126,-0.84499 0.44483,-1.21858c-1.02499,-2.27755 -1.43258,-4.86176 -1.11458,-7.64547c0.14121,-1.23616 -0.07484,-2.70023 0.32072,-3.84608c0.18833,-1.48901 0.52763,-2.96186 0.87958,-4.33703l-2.3057,-1.72928c-0.74453,-0.5459 -1.22793,-1.42697 -1.22793,-2.42095c0,-1.4277 0.99731,-2.62247 2.33327,-2.92565l2.60579,-0.65145l0.06621,0.26484c0.42956,-0.1452 0.87129,-0.24463 1.33036,-0.27888c1.32133,-0.09858 2.19993,1.48045 3.25159,2.28647c2.38482,1.8278 4.88996,4.57186 4.99201,7.64899c0.46922,0.52942 0.75411,1.22595 0.75411,1.98901v2.66667c0,1.97164 -0.64491,4.02048 -0.09592,5.91414c0.67244,2.31949 2.8473,5.82928 4.65281,7.42292c1.54693,1.3654 2.22916,0.67817 4.22828,1.54591c2.02068,0.8771 3.83844,2.02672 4.97546,3.87542c1.26909,0.20737 2.78574,-0.04501 3.69392,0.83257c2.9961,2.89515 3.46693,6.64127 0.77236,9.75256c-1.76759,2.04095 -2.74511,2.26995 -3.9233,2.42157c-0.0188,0.03455 -0.03826,0.06869 -0.05836,0.1024l-1.30719,2.28759l-0.10633,-0.06076l-0.03421,0.28342c-0.66138,0.79485 -1.32276,1.58969 -1.98414,2.38454c-1.2991,1.12189 -2.7121,2.03295 -4.09554,2.96222c-0.83525,1.43633 -1.51508,2.96398 -2.36151,4.39502c-1.90004,3.21239 -4.00468,7.20562 -6.24225,10.28212c-0.74577,1.02538 -1.85936,1.79547 -2.42575,2.92984c-0.5522,1.10595 -0.45239,2.43828 -0.84053,3.6119c-0.68275,2.06444 -2.21199,3.84939 -2.57575,5.99316c-0.89802,5.29243 0.16897,11.24797 0.33544,16.70153c0.57573,0.00507 1.15109,0.01437 1.72582,0.02861c0.61042,0.01513 1.25887,0.34109 1.8279,0.11964c0.11387,-0.04432 1.39665,-0.92817 2.64667,-1.8125c-0.07984,-0.33021 -0.17142,-0.6635 -0.12123,-0.98634c0.32273,-2.07615 0.88595,-4.10937 1.42721,-6.13954c0.87278,-3.27365 2.39855,-6.15947 3.94322,-9.03374c0.31105,-1.20598 0.70319,-2.39263 1.13836,-3.54602c0.378,-1.00187 0.39097,-2.24431 1.15016,-2.99946c0.09088,-0.0904 0.1831,-0.17919 0.27657,-0.26651l-0.07989,-0.05592l2.30926,-3.29894c0.53986,-0.79313 1.44999,-1.314 2.48177,-1.314c1.65685,0 3,1.34315 3,3c0,0.44326 -0.09613,0.86407 -0.26869,1.24272l-0.9542,2.22647c-0.75389,1.97982 -1.7443,3.81642 -2.75504,5.64125c1.26784,-0.39463 2.55875,-0.48002 3.65982,0.07203c0.84111,0.42172 1.17621,1.30111 1.29588,2.32222c1.43824,-0.72114 2.92204,-1.37214 4.17286,-2.09343c1.29816,-0.74859 2.48693,-1.72715 3.88991,-2.25369c0.87227,-0.32736 1.89985,0.0436 2.78375,-0.25092c1.37449,-0.45799 4.74288,-5.04543 5.48602,-5.78858l0.13194,-0.05402l-0.02948,-0.03537l1.98487,-1.65406c0.52246,-0.44167 1.19797,-0.70794 1.93568,-0.70794c1.65685,0 3,1.34315 3,3v2.66667h-0.11537c0.0213,0.26513 0.02486,0.53193 0.00652,0.8008c-0.10639,1.5595 -1.54578,2.71735 -2.31867,4.07602l-0.8892,1.79815c0,0 -1.34164,2.68328 -4.02492,1.34164c-0.53929,-0.26965 -0.916,-0.59349 -1.1737,-0.93884c-0.53323,0.41751 -1.08067,0.76757 -1.64229,1.01558c-0.03304,0.01459 -0.06633,0.02826 -0.09985,0.04107c-0.28924,5.85526 -2.82531,11.04709 -3.49398,16.86729c-0.59867,5.21094 -0.95534,10.45452 -1.16771,15.71054c1.22857,0.48545 1.72816,1.8177 1.72816,1.8177zM270.48215,165.24551c0.03131,0.18212 0.06311,0.36693 0.09522,0.55352c0.15353,-0.82696 0.31925,-1.64889 0.50518,-2.45278c-0.18187,0.59276 -0.36809,1.18362 -0.55954,1.7722c-0.01375,0.04227 -0.02737,0.08462 -0.04086,0.12706zM204.24763,122.07645c-0.02104,-0.01391 -0.04199,-0.02799 -0.06284,-0.04225c-0.05426,-0.03711 -0.10758,-0.07551 -0.16002,-0.11512c0.04439,0.27958 0.16522,0.51013 0.42347,0.65488c0.04801,0.02691 0.09744,0.05229 0.1482,0.07618c-0.12146,-0.1892 -0.23879,-0.38002 -0.34881,-0.5737zM209.71069,117.58568c-0.02509,-0.22571 -0.05046,-0.45308 -0.07598,-0.68197c-0.07836,0.23006 -0.1456,0.45993 -0.19562,0.68932c0.09052,-0.0025 0.18106,-0.00495 0.27161,-0.00736zM196.07587,117.2723c0.00256,0.01124 0.00569,0.02251 0.00942,0.03383c0.01956,0.05937 0.06043,0.08457 0.11471,0.0897v-0.17918h0.45711c-0.10324,-0.09256 -0.20232,-0.18826 -0.29739,-0.2869c-0.09651,0.1144 -0.19215,0.22844 -0.28385,0.34254zM190.66882,128.28171c-0.75832,0.53691 -1.09536,1.51608 -1.77661,2.14791c-2.02298,1.87621 -4.70475,3.33111 -3.77246,6.76445c0.98457,3.6259 3.20753,6.50115 5.60432,9.30637c0.05408,0.0633 0.11051,0.12556 0.16886,0.18697c2.20587,-7.39196 3.09695,-15.35799 6.77679,-22.1576c-2.34417,1.29272 -4.89796,2.26297 -7.00091,3.75189z"></path><path d="M193.23015,299.5576c-0.42426,-2.96985 2.54558,-3.39411 2.54558,-3.39411l1.75691,-0.23158c0.80141,-0.46524 1.66736,-0.46524 1.66736,-0.46524c1.18486,0.00241 2.36798,0.04991 3.54975,0.1273c2.59534,-0.15536 5.30608,-0.22644 7.40641,0.5524l4.56621,0.32616c1.56879,0.09754 2.81097,1.40078 2.81097,2.99414c0,1.65685 -1.34315,3 -3,3h-3.33333v-0.07834l-0.1659,0.07375c-0.63552,-0.06971 -1.27164,-0.14315 -1.90827,-0.21725c-0.20416,0.0141 -0.41673,-0.01946 -0.63349,-0.07382c-1.37538,-0.16022 -2.75296,-0.31879 -4.13174,-0.44479c-1.94394,-0.0026 -3.90257,0.07378 -5.82727,0.07378l-1.90907,0.30318c0,0 -2.96985,0.42426 -3.39411,-2.54558z"></path><path d="M275.59546,298.42732c0.27177,-1.45237 1.37705,-1.98522 2.15147,-2.18071c0.80978,-0.52371 1.80522,-0.66767 2.83995,-0.74517c0.06551,-0.04277 0.12969,-0.0877 0.19233,-0.13517c1.06919,-0.81018 1.60601,-2.39581 2.88244,-2.80849c0.23389,-0.07562 0.47015,-0.13859 0.70843,-0.19089l-0.03211,-0.10704l3.26654,-0.97996c0.29246,-0.09513 0.60464,-0.14656 0.92883,-0.14656c0.89342,0 1.69563,0.39054 2.24522,1.01023c0.50257,-0.50131 1.03944,-0.89964 1.7173,-0.92642c2.1737,-0.08586 5.06113,0.416 6.09635,2.32929c0.95644,1.76769 -0.72021,4.03199 -1.70713,5.78285c-1.86003,3.29981 -5.66498,3.87182 -9.54963,4.1207c-0.63914,1.19866 -1.51911,2.20811 -4.43556,2.66088c-1.00904,0.15665 -3.63191,-0.41187 -5.71807,-1.35067c-0.49085,-0.08552 -1.00809,-0.30629 -1.44771,-0.77935c-0.78801,-0.51892 -1.33689,-1.09982 -1.42314,-1.7058c-0.19024,-1.33657 0.41115,-2.67894 1.28449,-3.84771z"></path></g><g fill-opacity="0.37647" fill="#160a1f"><path d="M220.23218,36.44411c0.52407,1.48142 1.16953,2.9221 1.78424,4.36885c0.81065,1.9079 2.81784,3.06142 4.00028,4.76389c1.19545,0.38273 2.33609,0.97627 3.3541,1.70609c1.9743,1.41539 3.93788,3.74325 5.7798,5.98885l1.96241,1.17745c0.89872,0.51819 1.50366,1.48883 1.50366,2.60077c0,0.32896 -0.05295,0.64555 -0.15078,0.94172c0.5068,0.5372 0.81745,1.26146 0.81745,2.05828c0,0.94495 -0.43689,1.78787 -1.11971,2.33776l-3.64725,2.98411l-0.31125,-0.38041c-4.59934,5.44262 -9.70904,10.41096 -13.77202,16.4087c-1.87002,2.76052 -2.51457,4.09027 -3.95373,6.01996c-1.91502,5.58138 -4.27881,10.93776 -6.83591,16.28428c-2.57203,5.37773 -5.28766,10.39321 -4.09216,16.72282c0.27927,1.47857 1.47373,2.99045 2.68234,4.36788c2.84915,-0.94986 5.49288,-4.24368 7.59452,-5.82036c1.8074,-1.35593 4.74708,-2.80516 6.06935,-4.74351c2.65192,-3.88753 2.70014,-8.9551 4.54924,-13.15791c0.46363,-1.83604 1.1437,-3.62659 1.98585,-5.3231l0.59174,-2.36695c0.30317,-1.33596 1.49794,-2.33327 2.92565,-2.33327c1.56738,0 2.85402,1.202 2.98841,2.73449l0.33003,3.30033l-0.06083,0.00608c0.02652,0.08872 0.05176,0.17792 0.07562,0.26764c0.35671,1.34105 -0.28478,2.76273 -0.33582,4.14947c-0.0706,1.91804 -0.08278,3.8522 -0.14594,5.77676c1.36905,-0.96971 2.82129,-1.81346 4.54021,-2.61702c1.59095,-0.74374 3.37623,-1.19311 4.74067,-2.29882c1.56897,-1.27145 2.46787,-3.286 4.13087,-4.43173c0.99276,-0.68397 2.23339,-0.90857 3.35008,-1.36285l0.38927,-0.35383c0,0 2.49615,-1.6641 4.16025,0.83205c1.6641,2.49615 -0.83205,4.16025 -0.83205,4.16025l-1.61073,0.9795c-2.98417,0.95871 -3.2996,2.84836 -5.85238,4.87208c-0.05341,0.04234 -0.10712,0.08412 -0.16112,0.12536c-1.82527,6.60522 -3.97077,13.20447 -5.44752,19.85719c-0.82771,3.7288 -1.07918,7.78459 -1.36784,11.67798c1.3271,0.09818 2.414,1.05971 2.70114,2.325l0.227,0.90799c0.36237,-0.15529 0.76149,-0.24127 1.18069,-0.24127c0.76835,0 1.46924,0.28885 2,0.76389c0.53076,-0.47504 1.23165,-0.76389 2,-0.76389c0.3883,0 0.75938,0.07377 1.09997,0.20807c0.00002,-0.07491 0.00003,-0.14982 0.00003,-0.22474c0,0 0,-3 3,-3c3,0 3,3 3,3c0,0.83333 -0.00121,1.66669 -0.00436,2.5c0.00145,0 0.00291,0 0.00436,0c1.22986,0 2.28687,0.74006 2.75,1.79914c0.44551,-1.0188 1.44059,-1.74239 2.61044,-1.79596c0.4474,-1.3822 0.90257,-2.76526 1.36792,-4.15124l0.16924,-0.15315l-0.08089,-0.04044l1.47093,-2.94187c0.48103,-1.01474 1.51474,-1.71649 2.71235,-1.71649c0.97348,0 1.83867,0.46367 2.38676,1.18222l0.17159,-0.77395c0.27476,-1.37346 1.48736,-2.40827 2.94166,-2.40827c1.65685,0 3,1.34315 3,3v3.5h-0.02442c0.00759,0.04147 0.01486,0.08303 0.02183,0.12468c0.41172,2.46238 0.10003,5.09473 -0.49741,7.72429v1.98046c0.92442,-3.49169 1.79681,-6.99479 2.58775,-10.54971l0.03846,-0.06349l-0.0205,-0.00559l1.48285,-5.43713c0.32478,-1.30584 1.5051,-2.27352 2.91144,-2.27352c1.59336,0 2.8966,1.24218 2.99414,2.81097l0.42572,5.96005l-0.01459,0.00104c0.0063,0.02323 0.01257,0.04647 0.01881,0.06972c0.27495,1.02423 0.32049,2.0806 0.28624,3.14772c0.11375,0.10711 0.21274,0.22055 0.2988,0.33799c0.5387,-0.80071 1.45328,-1.32748 2.49089,-1.32748c0.00709,0 0.01416,0.00002 0.02124,0.00007c1.08316,-2.38735 2.1074,-4.79896 2.94046,-7.29812l0.17139,-0.15208l-0.08303,-0.04151l1.6376,-3.2752c0.48103,-1.01474 1.51474,-1.71649 2.71235,-1.71649c1.65685,0 3,1.34315 3,3c0,0.35629 -0.06211,0.69808 -0.17609,1.01512l-0.26242,0.78727c0.67663,0.21116 1.25036,0.65547 1.62714,1.2389l1.97419,2.96128l-0.08843,0.05895c0.1447,0.18643 0.28215,0.37886 0.41108,0.57834c0.70467,1.09024 0.44428,2.56442 0.50994,3.8609c0.22957,4.53296 -0.03811,6.88761 -0.32874,11.24083v2.92507c0,1.65685 -1.34315,3 -3,3c-1.58257,0 -2.87894,-1.22541 -2.99199,-2.77914l-0.33098,-3.97172l0.34871,-0.02906c0.00284,-0.19323 0.02102,-0.38528 0.05647,-0.57588c0.00509,-0.083 0.01014,-0.16601 0.01514,-0.24902c-0.01986,0.03401 -0.03899,0.06329 -0.05651,0.08514c-0.3572,0.4456 -0.82905,0.7908 -1.18491,1.23748c-0.0126,0.01582 -0.02519,0.03166 -0.03775,0.04751l-2.4085,5.11807c-0.46671,1.05061 -1.5193,1.78329 -2.74301,1.78329c-0.41968,0 -0.81924,-0.08618 -1.18194,-0.24181c-1.35099,0.64502 -2.81833,0.9304 -4.51033,1.09047c-0.53541,0.49726 -1.25272,0.80133 -2.04106,0.80133c-0.69982,0 -1.34367,-0.23962 -1.85398,-0.64129c-0.94593,-0.03272 -1.88006,-0.12548 -2.80786,-0.25311c-0.86525,3.12773 -2.82565,10.21593 -2.83522,10.23393c-0.023,0.04326 -0.04618,0.08641 -0.06954,0.12945l0.02051,0.00789l-2.12873,5.53471c-0.41509,1.15914 -1.52329,1.98843 -2.82518,1.98843c-0.7841,0 -1.49795,-0.30082 -2.03242,-0.79334c-0.54154,0.7815 -1.44478,1.29334 -2.46758,1.29334c-0.89602,0 -1.70029,-0.39282 -2.25,-1.01563c-0.54971,0.62282 -1.35398,1.01563 -2.25,1.01563c-1.65685,0 -3,-1.34315 -3,-3v-0.26389c-0.53076,0.47504 -1.23165,0.76389 -2,0.76389c-1.65685,0 -3,-1.34315 -3,-3c0,-0.0569 0,-3.6138 0,-3.67071c-0.31278,0.11055 -0.64936,0.17071 -1,0.17071c-1.23375,0 -2.29356,-0.74475 -2.75438,-1.8092c-1.78446,0.71173 -3.73372,-0.84401 -5.5033,-1.91325c-0.36103,0.15393 -0.7584,0.23912 -1.17566,0.23912c-0.45545,0 -0.8872,-0.10149 -1.27385,-0.2831c-0.41321,2.88549 -1.54644,5.7308 -2.59216,8.35868l-0.89518,2.38716c-0.08672,3.72298 0.09453,7.4988 0.09453,11.20393v0.33333c0,0 0,1.16069 -0.72196,2.03814c-0.45521,3.28494 -1.10358,6.54864 -1.28384,9.81494c-0.58119,10.53127 -0.20902,21.36373 0.98683,31.81008c0.53375,4.66254 0.74724,9.28279 1.3264,13.94349c0.22786,1.83365 0.40355,3.79611 1.36906,5.37155c1.0068,2.25978 2.34111,4.38081 3.16113,6.71487c0.58181,1.65601 0.87454,3.49934 1.93691,4.89656l0.91232,2.37978c0.06944,0.15311 0.13206,0.32002 0.18662,0.50189c0.29226,0.9742 0.15515,1.71719 -0.15378,2.27378c-0.2774,0.57296 -0.80612,1.11268 -1.77102,1.43431c-0.08012,0.02671 -0.15873,0.0504 -0.23586,0.07124c-1.96438,0.57126 -3.93749,0.92759 -5.92,1.14641l-1.40284,0.59486c-11.4008,7.04031 -25.646,1.25412 -37.63335,-1.04785c-4.85784,-0.93287 -9.97918,-1.86249 -14.6858,-3.4249c-4.198,-1.39357 -6.10591,-4.18719 -10.13827,-5.19959c-4.31801,-3.75205 -9.61083,-5.05082 -13.73522,-9.21302c-2.92116,-2.94793 -5.23601,-7.51486 -6.66643,-11.36916c-0.64726,-1.74407 -1.05899,-4.78841 -2.09696,-6.51657c-4.06697,-6.77122 -8.97006,-13.37555 -11.01104,-21.15987c0,0 -0.61133,-2.44531 1.52814,-3.41345c0.45798,-0.80365 1.20401,-1.23882 1.20401,-1.23882c5.24216,-3.03827 9.65406,-6.98755 14.19396,-10.99199c3.41759,-3.01451 6.82783,-5.61762 9.6176,-9.26021c3.35506,-4.38069 5.61024,-9.31185 8.44697,-14.00981c1.42052,-2.35254 3.62483,-4.16001 5.09375,-6.48263c1.62313,-2.56647 2.72504,-6.17042 4.11294,-8.94437c0.29851,-0.67001 0.54937,-1.36452 0.84603,-2.03548c-0.05678,-0.05324 -0.11466,-0.10405 -0.17383,-0.15199c-2.93569,-2.3784 -8.90412,-6.10646 -8.87292,-10.48479c0.00127,-0.17806 0.00663,-0.35569 0.01572,-0.53292l-0.09609,0.00601l-0.22081,-3.53289c-1.75224,-0.04949 -3.52576,-0.20002 -3.96461,-0.62296c-4.18161,-4.03003 -0.65463,-8.32386 1.80499,-11.53135c0.63786,-0.83181 1.27326,-1.65485 1.91199,-2.46512c0.71391,-1.71986 1.89255,-3.33724 2.49057,-4.46217c1.88892,-3.55319 4.65014,-6.19823 6.79463,-9.54801c2.49165,-3.89206 4.25494,-7.10888 7.85127,-10.19054l0.3757,-0.06823l-0.0579,-0.1158l2.61269,-1.30634c0.37448,-0.19716 0.79573,-0.31745 1.24277,-0.33988c0.03285,-0.45904 0.11139,-0.94416 0.26171,-1.47129c0.21166,-0.74227 0.6534,-1.38384 1.10364,-2.02397c0.4627,-2.47959 1.19791,-4.91952 2.49856,-7.29918c0.09502,-0.17385 0.44555,-0.65672 0.93879,-1.30871c-0.20751,-3.12888 1.46507,-6.78963 2.08142,-9.51991c0.22636,-1.00273 0.08231,-2.08906 0.44195,-3.05207c0.74798,-2.00291 2.29955,-3.64906 3.00077,-5.66882c0.42256,-1.21714 0.8359,-2.31088 1.2852,-3.30252c-0.04213,-0.00775 -0.08409,-0.01576 -0.12585,-0.02403c-1.82353,-0.36115 -4.6365,0.09581 -5.33417,-1.62726c-0.4544,-1.12225 -0.06885,-2.35853 0.59205,-3.51901c0.23542,-3.46888 3.53463,-5.93327 6.05577,-7.66824c1.39097,-0.95722 2.78695,-1.99541 4.34258,-2.63921c-0.25002,-0.50498 -0.44229,-1.0574 -0.68174,-1.55593c-0.61866,-1.28806 -1.10066,-2.63737 -1.6488,-3.95704l-1.23761,-2.16582c-0.26765,-0.44889 -0.42141,-0.97357 -0.42141,-1.53416c0,-0.40367 0.07973,-0.78872 0.2243,-1.14026c-0.05185,-0.16827 -0.09993,-0.33624 -0.14404,-0.50381c-1.08884,-4.13674 0.27174,-9.90242 0.9654,-13.87728c0,0 0.02764,-0.15662 0.10625,-0.39138l-1.72152,-1.4346c-0.6698,-0.5502 -1.09705,-1.38487 -1.09705,-2.31933c0,-1.65685 1.34315,-3 3,-3c0.14221,0 0.28211,0.0099 0.41905,0.02903l2.61972,0.32747l-0.08359,0.66873l1.37559,-0.18805c0.83843,1.2936 1.91235,2.46205 2.51528,3.8808c0.00755,0.01778 0.01503,0.0356 0.02243,0.05347c0.84651,1.40646 1.26321,3.14225 1.44237,4.52866c0.21283,1.64698 0.2937,3.35787 0.30465,5.09399zM192.40466,128.17132c-0.8766,0.86249 -1.44652,2.06832 -2.48525,2.72663c-1.11307,0.70542 -2.55742,0.68467 -3.75726,1.2296c-1.75696,0.79796 -5.38916,3.94309 -7.83262,3.52945c-0.40163,0.55471 -0.77894,1.12745 -1.18667,1.6778c-0.06501,0.08775 -0.16481,0.19884 -0.28163,0.3172c1.0456,-0.22489 2.45114,0.06467 2.75544,0.06467c0,0 3,0 3,3c0,0.52502 -0.09188,0.95817 -0.24349,1.3155l0.51612,1.16127c2.31399,2.61443 5.33655,5.01733 7.38477,7.88278c0.85231,-2.40421 1.35437,-4.36556 2.64913,-7.01395c0.82346,-1.68436 1.66584,-3.29811 2.44983,-4.90298c0.6507,-1.98066 1.22498,-3.97837 1.63143,-6.01161c0.10148,-0.50767 0.27006,-3.69934 0.45352,-5.87931c-0.91606,-0.26158 -1.65305,-0.94768 -1.9846,-1.83194c-0.92921,0.98347 -2.08574,1.76773 -3.06872,2.73489zM188.48486,124.27794c-0.55008,0.45617 -1.0766,0.93294 -1.58978,1.43087c0.59329,-0.40243 1.10963,-0.89519 1.58978,-1.43087z"></path><path d="M194.95,296.38333c0.12797,0 0.25049,0.00546 0.36778,0.01591c1.29892,-3.903 8.39388,-2.61693 11.47997,-2.30481l0.19542,0.11621l0.01777,-0.07107l2.60579,0.65145c1.33596,0.30317 2.33327,1.49794 2.33327,2.92565c0,0.99398 -0.4834,1.87505 -1.22793,2.42095l-2.63874,1.97905l-0.07096,-0.09461c-0.20294,0.17474 -0.41553,0.33878 -0.63977,0.48987c-1.19046,0.80213 -2.8418,0.42571 -4.27317,0.53435c-2.83117,0.21488 -5.71665,-0.00791 -8.52155,-0.35278l-2.6279,-3.31017c0,0 0,-3 3,-3z"></path><path d="M274.5259,303.23176c-1.18176,-2.75744 1.57568,-3.93919 1.57568,-3.93919l2.25285,-0.9641c2.17932,-1.0898 2.52896,-1.21306 4.359,-2.30247c1.28789,-1.45016 2.66653,-2.67147 3.64551,-3.36628l0.59567,0.07533l-0.06554,-0.26214l2.6014,-0.65035c0.25256,-0.06903 0.51841,-0.10589 0.79287,-0.10589c0.45479,0 0.88595,0.1012 1.27218,0.28231c0.44374,0.05328 0.92956,0.23027 1.44821,0.59333c2.4577,1.72039 0.73731,4.17808 0.73731,4.17808c-1.646,2.35053 -2.79783,5.08593 -4.78424,7.1568c-1.212,1.26352 -2.48955,3.35226 -4.225,3.12061c-3.01286,-0.40217 -4.59584,-1.39423 -5.22401,-2.68783l-1.04269,0.44748c0,0 -2.75744,1.18176 -3.93919,-1.57568z"></path></g><path d="M218.44404,300.26458c-0.35719,-0.12351 -0.79404,-0.42563 -0.79404,-1.16458c0,-1.25 1.25,-1.25 1.25,-1.25h1.25c2.17057,0 3.19592,-0.06463 4.28251,0.78998l0.21749,-0.28998l0.98836,0.74127c0.31022,0.22746 0.51164,0.59457 0.51164,1.00873c0,0.69036 -0.55964,1.25 -1.25,1.25h-2c-1.15526,-0.00266 -2.31546,-0.08007 -3.4555,-0.26701c0,0 -0.79142,-0.1319 -1.00046,-0.81841z" fill-opacity="0.78431" fill="#efd9ff"></path><path d="M301.15,295.35c0.12858,0 0.24394,0.01323 0.34743,0.03696c0.23668,-0.08325 0.5333,-0.09089 0.89497,0.06411c1.14893,0.4924 0.65653,1.64133 0.65653,1.64133c-1.12203,2.51026 -0.27816,4.27052 -2.65718,6.15681l-0.30349,-0.01964l0.01724,0.10342l-1.47677,0.24613c-0.07415,0.01371 -0.1506,0.02088 -0.22873,0.02088c-0.69036,0 -1.25,-0.55964 -1.25,-1.25c0,-0.24259 0.06911,-0.46904 0.1887,-0.66074l0.73943,-1.23238l0.32907,0.19744c0.60798,-1.11243 1.23669,-2.11393 1.51707,-3.54947l-0.02427,-0.50485c0,0 0,-1.25 1.25,-1.25z" fill-opacity="0.78431" fill="#efd9ff"></path><path d="M290.15,65.1c0,-0.69036 0.55964,-1.25 1.25,-1.25c0.69036,0 1.25,0.55964 1.25,1.25c0,0.69036 -0.55964,1.25 -1.25,1.25c-0.69036,0 -1.25,-0.55964 -1.25,-1.25z" fill-opacity="0.78431" fill="#efd9ff"></path><path d="M362.65,60.35c-1.25,0 -1.25,-1.25 -1.25,-1.25l0.02427,-0.00485c-0.37465,-1.87326 -0.89585,-3.53352 -2.91956,-4.05929c0,0 -1.18585,-0.39528 -0.79057,-1.58114c0.39528,-1.18585 1.58114,-0.79057 1.58114,-0.79057c2.87512,1.08308 3.99489,3.01294 4.58044,5.94071l0.02427,0.49515c0,0 0,1.25 -1.25,1.25z" fill-opacity="0.78431" fill="#efd9ff"></path><path d="M346.50472,50.28585c-1.18585,-0.39528 -0.79057,-1.58114 -0.79057,-1.58114l0.21013,-0.10957c-0.08333,-0.41667 -0.16667,-0.83333 -0.25,-1.25c0,0 -0.24515,-1.22573 0.98058,-1.47087c1.22573,-0.24515 1.47087,0.98058 1.47087,0.98058c0.08333,0.41667 0.16667,0.83333 0.25,1.25l-0.28987,1.39043c0,0 -0.39528,1.18585 -1.58114,0.79057z" fill-opacity="0.78431" fill="#efd9ff"></path><path d="M333.15,49.85c0,-0.69036 0.55964,-1.25 1.25,-1.25c0.69036,0 1.25,0.55964 1.25,1.25c0,0.69036 -0.55964,1.25 -1.25,1.25c-0.69036,0 -1.25,-0.55964 -1.25,-1.25z" fill-opacity="0.78431" fill="#efd9ff"></path><path d="M281.26612,71.46611c0.79031,-0.79031 1.58063,-0.16733 1.7391,-0.02657c0.18508,-0.19287 0.46659,-0.33955 0.89479,-0.33955c1.25,0 1.25,1.25 1.25,1.25c-0.21138,0.77925 0.08801,1.97661 -0.63413,2.33775c-0.78208,0.39112 -1.67266,-0.51059 -2.50899,-0.76588l-0.74076,-0.68798c0,0 -0.88388,-0.88388 0,-1.76777z" fill-opacity="0.78431" fill="#efd9ff"></path><path d="M281.35086,86.95382c0.03134,0.11568 0.04914,0.24703 0.04914,0.39618c0,1.25 -1.25,1.25 -1.25,1.25l-1.6606,-0.78576c-0.12483,-0.80501 -0.81582,-1.7303 -0.37449,-2.41502c0.42441,-0.65846 1.52339,-0.36614 2.28508,-0.54921c0,0 1.25,0 1.25,1.25c0,0.39775 -0.12656,0.66893 -0.29914,0.85382z" fill-opacity="0.78431" fill="#efd9ff"></path></g></g></svg>