<svg version="1.1" xmlns="http://www.w3.org/2000/svg" xmlns:xlink="http://www.w3.org/1999/xlink" width="64.50848" height="84.00646" viewBox="0,0,64.50848,84.00646"><g transform="translate(-224.59068,-137.83483)"><g stroke-miterlimit="10"><path d="M240,142.60388h48.09915v74.79224h-48.09915" fill="none" stroke="#834fea" stroke-width="2" stroke-linecap="butt"></path><path d="M240.07355,218.33355c-0.35355,0.35355 -0.70711,0 -0.70711,0l-0.4,-0.4c-0.45621,-0.55948 -1.53834,-0.25355 -2.24645,-0.25355c-2.58093,0 -5.67924,0.64651 -5.70133,-2.86897c-0.0301,-1.23831 -5.21716,0.09724 -6.16061,-2.23969c-1.53142,-3.79335 3.9162,-4.7052 6.18185,-4.68489c1.30046,-0.44893 2.53819,-1.83105 1.29007,-3.39359c-0.40022,-0.50104 -1.87904,-0.21286 -2.40998,-0.21286c-2.36826,0 -4.99882,0.22728 -5.09625,-2.76109c0.49895,-2.02795 1.52657,-3.55021 3.50491,-4.40085c0.75702,-0.3255 3.15051,-0.06704 3.29577,-1.00443c0.23216,-1.49816 -0.7295,-3.18826 -0.17877,-4.89175c0.28397,-0.80367 1.51072,-2.0843 1.92079,-2.39544c0.23918,-0.18148 2.19972,-0.3575 2.29161,-0.83779c0.40217,-2.10197 -0.08308,-2.88063 -1.97322,-3.62745c-0.47956,-0.18948 -0.97789,-0.32738 -1.46774,-0.48858l-0.25522,-0.01829c-2.38972,-0.84438 -1.63217,-2.64234 -1.06721,-4.33721c0.92602,-0.96315 1.55923,-1.32004 2.21662,-2.22516c2.25345,-3.10261 -3.56204,-5.31122 -5.06864,-6.29595c0,0 -0.14526,-0.09684 -0.20689,-0.26191l-0.21576,-0.15411c0,-3.62763 -0.32317,-7.66502 2.43713,-10.42533c0.85976,-0.2946 3.28181,-0.27974 3.82203,-1.2106c1.44154,-2.48396 -2.33744,-2.47606 -2.96478,-3.27172c-0.5322,-0.67498 0.03068,-2.40526 0.33199,-3.05992c0.0071,-0.01717 0.01484,-0.03344 0.02289,-0.04871c0.00118,-0.00246 0.00236,-0.00491 0.00353,-0.00733c0,0 0.01524,-0.03049 0.04573,-0.07156c0.03011,-0.04135 0.05466,-0.06499 0.05466,-0.06499l0.00446,-0.00406c0.01385,-0.01402 0.02908,-0.02806 0.04568,-0.04161l0.48434,-0.4411c1.69043,-0.36428 5.1428,0.49982 5.11234,-1.95307c0.16178,-1.73707 -2.68623,-1.86974 -3.17434,-3.24189c-1.23484,-3.47133 3.33873,-4.45811 5.67434,-4.45811c0,0 0.5,0 0.5,0.5c0,0.5 -0.5,0.5 -0.5,0.5c-1.8059,0 -5.52371,0.42628 -4.72566,3.14189c0.43006,1.46339 3.11816,1.32301 3.22566,3.55811c-0.03178,3.3477 -3.35275,2.4318 -5.64882,2.83916l-0.23859,0.25163c-1.57137,3.08811 2.13441,1.31398 2.68095,4.02912c0.6533,3.24549 -1.9714,3.19182 -4.23068,3.90542c-2.31127,2.31127 -1.99662,6.10008 -1.96513,9.16438c0.02351,0.01521 0.04644,0.03299 0.06791,0.05379c2.32274,1.54533 7.74168,3.62872 5.24307,7.64453c-0.53849,0.86547 -1.31895,1.36023 -2.18338,2.17484c-0.34615,1.03846 -1.13032,2.31804 0.47205,2.84359c0.03568,-0.00536 0.07011,-0.00675 0.1016,-0.00583l0.00102,-0.00062c0,0 0.03201,0 0.07982,0.0081c0.04792,0.00744 0.07829,0.01756 0.07829,0.01756c2.55195,0.85065 5.42957,2.14935 4.10383,5.46568c-0.72871,1.82285 -3.5216,0.98221 -4.1876,3.16677c-0.58202,1.68034 0.71493,4.29176 -0.28767,5.55888c-0.69954,0.88411 -1.35827,0.44342 -2.30658,0.57655c-2.13287,0.29942 -3.48922,2.02657 -3.98384,3.96755c-0.20476,3.26749 5.80954,0.47948 7.29377,2.22604c1.75812,2.06886 -0.00133,4.38877 -1.90993,5.00641c-0.89261,0.00655 -1.78756,0.02399 -2.68009,0.00646c-1.13928,-0.02239 -3.29429,1.89052 -2.73806,3.30866c1.03874,2.64831 5.37024,-0.49065 6.23162,2.52147c0.0126,4.00224 5.60037,0.65388 7.65999,2.51631l0.4,0.4c0,0 0.35355,0.35355 0,0.70711z" fill-opacity="0.33333" fill="#cbadff" stroke="none" stroke-width="0.5" stroke-linecap="butt"></path><g fill="none" stroke="#834fea" stroke-width="2" stroke-linecap="round"><path d="M236.78551,138.83483l3.44516,3.44516"></path><path d="M240,217.39612l-3.44517,3.44517"></path></g></g></g></svg>