<svg version="1.1" xmlns="http://www.w3.org/2000/svg" xmlns:xlink="http://www.w3.org/1999/xlink" width="211.70261" height="60.35318" viewBox="0,0,211.70261,60.35318"><g transform="translate(-134.14869,-229.09973)"><g stroke="none" stroke-width="0.5" stroke-miterlimit="10"><g><path d="M184.78738,257.55396c2.87717,-1.23187 5.02616,-4.05924 8.16926,-4.09436c2.50061,-1.29104 5.31067,-0.8461 7.91928,-1.26073c6.58248,-1.04628 13.44735,-0.1384 19.80158,-3.39406c4.35597,-1.12273 8.90554,-0.76247 13.34808,-0.68359c1.57591,-0.66991 3.16405,-1.24183 4.92743,-1.22708c4.02203,-1.27654 7.89849,-1.25576 11.98575,-1.25576c3.43754,0 6.55853,-0.08944 9.69745,2.1843h0.17439c4.46284,0 8.87741,0.31031 13.33311,0.31305c2.17479,0.24351 4.09223,1.43983 6.16899,1.8914c2.41947,0.52608 4.99547,-0.57057 7.41596,-0.00846c3.5188,0.81717 6.96957,2.26698 10.45698,3.11989c0.0603,-0.01113 0.09764,-0.01113 0.09764,-0.01113h0.6044c0.71813,0 1.43627,0.00564 2.15438,0.01508c1.43906,0.6223 2.96141,1.48292 4.43225,1.87226c3.21457,0.85093 6.58432,-0.06488 9.80208,1.2908c3.64459,1.5355 6.62918,5.10139 10.33025,6.26761c3.67232,2.94698 8.66379,3.03598 12.76838,3.03598c2.30244,0 4.81589,-0.62864 6.86044,1.06909c0.20528,0.12494 0.4312,0.36728 0.53533,0.83733c0.08113,0.2714 0.11696,0.61118 0.03064,1.01015c-0.05851,0.4109 -0.20209,0.6737 -0.36182,0.84178c-0.04978,0.06492 -0.10074,0.11782 -0.15218,0.16043c-1.09147,2.99829 -2.67789,2.64981 -4.68806,4.05849c-2.32841,1.63168 -4.83307,2.81358 -7.3454,4.11238c0,0 -0.06117,0.03158 -0.15772,0.05479c-0.09633,0.02528 -0.16082,0.02528 -0.16082,0.02528h-1.2088c-4.56988,0 -9.17307,-0.9084 -13.71955,0.28648c-2.64182,0.79946 -5.24645,2.3593 -7.87742,3.12585c-1.09799,0.31991 -2.84536,0.46296 -3.80519,1.14956c-0.34489,0.2467 -0.45309,1.02986 -0.80586,1.24817c-0.39034,0.24156 -0.86572,-0.19126 -1.26086,0.03082c-0.37937,0.21321 -0.56214,0.94369 -0.93006,1.20056c-2.37972,1.66138 -5.41319,2.16211 -7.96715,2.93637c-3.63345,0.02109 -7.48893,0.47341 -11.04042,-0.98285c-1.17206,-0.48058 -2.30589,-1.52549 -3.52429,-1.8381c-2.29568,-0.589 -4.75367,-0.39625 -7.129,-0.31797c-0.09803,0.02607 -0.16389,0.02607 -0.16389,0.02607l-0.13463,-0.0169c-0.3605,0.01021 -0.71885,0.0169 -1.07417,0.0169c0,0 -0.55111,0 -0.83806,-0.63138c-4.54355,-1.30915 -8.86182,0.31933 -13.46603,0.31933c-1.88992,0 -3.67865,0.35929 -5.54179,0.6165c-1.10129,0.15203 -2.60035,-0.47843 -3.65823,-0.04902c-0.82038,0.333 -1.55829,1.1652 -2.40193,1.29947c-3.63472,0.57853 -7.50738,0.00532 -11.16372,0.00532c-1.47384,-0.03464 -2.7226,-0.94142 -4.18386,-1.26665c-5.78285,-1.28705 -11.05482,-3.10196 -16.97007,-3.10196c0,0 -0.43345,0 -0.73169,-0.44039c-6.19313,4.12392 -13.96761,4.14764 -20.52816,2.00061h-0.29702c-3.80162,-0.06553 -7.44853,-3.74311 -11.24199,-4.7008c-2.22168,-0.56088 -4.36112,-0.76951 -6.50846,-1.24972l-1.54744,0.5992l-0.07359,-0.45591c-1.96145,1.11793 -4.03372,1.5143 -6.14979,1.85288c-1.89194,0.88613 -3.77681,1.74169 -5.70596,1.77006c-1.86574,0 -4.61027,0.82461 -6.36252,-0.08007c-1.07806,-0.55659 -1.46899,-2.19476 -2.66333,-2.43642c-2.41098,-0.48785 -4.65667,-1.17624 -7.07058,-1.8774c-2.28357,-0.6633 -4.56729,-1.35291 -6.84956,-1.94326c-0.69391,-0.17949 -1.47214,0.20923 -2.10321,-0.27238c-0.05825,-0.04446 -0.11488,-0.09253 -0.17008,-0.14381l-0.01152,0.03571l-1.18928,-0.92102c-0.34073,-0.25017 -0.57635,-0.78777 -0.57635,-1.41061c0,-0.86169 0.45099,-1.56022 1.00733,-1.56022h0.7752c0.0714,-0.08001 0.14276,-0.16012 0.21406,-0.24032c-0.00347,-0.15315 0.01057,-0.30479 0.04884,-0.45436c0.69873,-2.73138 2.8392,-3.04918 4.36562,-3.63c5.03126,-1.91445 10.97327,-0.66801 16.15315,-0.66801c2.44929,0 5.28897,0.57704 7.70739,0.01735c1.77395,-0.41055 3.31814,-1.85658 5.12684,-2.19892l1.06692,-0.00273c0,0 0.10491,0 0.24701,0.05244c4.41804,-2.52342 9.30581,-4.00548 13.7851,-5.92331z" fill="#316a70"></path><path d="M202.5869,274.97046h-1.2088c-4.27926,0 -8.59365,-0.33042 -12.06981,-4.09131c-1.61571,-0.1393 -3.06743,-0.69431 -4.44461,-1.61938c-0.587,0.1617 -1.16568,0.35819 -1.72166,0.64779c-3.217,1.6757 -6.33487,2.76941 -9.64491,4.04926c-0.15418,0.1787 -0.31105,0.35635 -0.47154,0.53171c-5.49603,2.90942 -11.58667,3.29032 -17.38025,3.29032h-1.00733c-3.78854,0 -7.51793,-0.96761 -11.2821,-0.93613h-1.00733c-0.55634,0 -1.00733,-0.69853 -1.00733,-1.56022c0,-0.51694 0.16232,-0.97516 0.41231,-1.25907l0.79648,-0.92523l0.01053,0.02174c0.0291,-0.04255 0.05897,-0.08401 0.08968,-0.12429c1.27676,-1.67441 2.98108,-1.15259 4.53879,-1.09623l0.2282,-0.42414l0.01437,0.01855c0.06628,-0.11749 0.13759,-0.22867 0.21492,-0.33229c0.59461,-0.79687 1.50016,-0.73615 2.26334,-1.02931c0.62355,-0.23951 1.28129,-0.41819 1.95993,-0.54352c0.06535,-0.05755 0.13179,-0.101 0.19488,-0.13383l0.56258,-0.38295c3.85383,-1.16682 7.73285,-1.59146 11.62403,-2.78642c4.23901,-2.18211 8.65784,-4.3727 12.78914,-6.81226c1.14517,-0.67622 2.32601,-0.79042 3.40767,-1.292c-0.22688,-1.17912 0.5344,-1.76869 0.5344,-1.76869l0.22415,-0.13487c1.15967,-1.3983 2.46311,-2.12746 3.73964,-3.16458l0.12679,-1.17833l0.00522,0.00135l-0.00243,-0.02612c0.0395,-0.30499 0.07444,-0.60253 0.1069,-0.89393c-0.08269,-0.55944 -0.10594,-1.16096 -0.09845,-1.66627c0.00924,-0.62382 0.20151,-1.14287 0.49453,-1.58315c0.1721,-1.00478 0.42692,-1.99428 0.87946,-3.04056c1.18711,-2.74465 3.13421,-2.78003 4.86395,-3.96165c0.73857,-0.50454 1.17727,-1.74173 1.87056,-2.38209c1.78622,-1.64985 3.83692,-2.31335 5.86463,-2.40586c1.09593,-1.42268 2.23399,-2.76285 3.39878,-4.21783c0.09207,-0.13369 0.19177,-0.2299 0.27461,-0.29574c0.09153,-0.0736 0.21467,-0.15177 0.35519,-0.18683l1.0047,-0.4003c2.2644,-3.39567 5.34254,-1.18368 7.77335,0.5455c0.97642,0.69458 2.25722,1.76061 3.14954,1.2875l0.6725,-0.77004c3.6903,-1.1173 4.15661,1.0761 6.49173,4.39865c0.59627,0.84841 1.75198,1.40654 2.87002,1.88783c0.17047,-0.0759 0.30471,-0.0759 0.30471,-0.0759c3.01068,0 5.39062,0.20599 8.26118,1.28004c1.38685,0.5189 2.52814,-0.15507 3.99049,0.69835c0.54317,0.317 1.0697,0.70018 1.58322,1.12983c7.27504,-0.126 15.03556,-1.13699 22.11471,1.28851c0.54125,-0.12215 1.05119,-0.13653 1.46237,0.03254l0.05598,-0.03939c0.46366,-0.43886 0.87091,-1.06915 1.36742,-1.41679c1.55283,-1.08723 3.00361,-1.13415 4.52213,-2.70764c1.35432,-1.40333 2.91521,-3.34191 4.52398,-3.95338c3.2101,-1.2201 6.7557,0.62658 9.79488,1.55587c2.51928,1.2974 5.05747,2.81616 7.40539,4.45222c2.50351,1.74449 5.38657,1.80859 7.80928,4.18893c2.2178,2.17901 3.66764,5.1683 6.1312,7.07346l0.23007,0.30012c0.25214,0.18751 0.38392,0.51668 0.45281,0.80955c0.08533,0.28365 0.14254,0.66261 0.0483,1.0732c-0.0118,0.15987 -0.02601,0.31333 -0.04257,0.4608h0.6741c0.29292,0 0.55665,0.19365 0.74071,0.50281c0.35815,0.12434 0.72079,0.27908 1.09254,0.47151c0.62873,0.32545 1.57178,0.14817 1.86515,1.06891c1.08803,3.41482 -1.82893,4.74533 -3.094,4.82172c-3.7123,-0.10262 -6.82641,5.20666 -10.09075,7.37028c-3.00591,1.99234 -6.70277,3.43785 -9.97277,3.85797c-1.93193,0.24821 -3.48005,-0.19511 -5.33218,0.91329c-7.55011,0.17745 -14.95334,1.23746 -22.46568,1.51949c-0.09678,0.04919 -0.21331,0.08865 -0.33894,0.08943c-3.78929,0.68611 -7.86906,0.13326 -11.58497,1.49022c-3.38155,1.23487 -7.0079,2.23374 -10.52636,2.23374c-8.28604,-0.0567 -16.55653,-0.12604 -24.74446,-2.20554c-2.70417,-0.71101 -5.41053,-1.23341 -8.10566,-1.83812c-0.1664,0.18811 -0.37146,0.29914 -0.59324,0.29914zM168.53914,273.09819c0,0.01333 -0.00007,0.02655 -0.00022,0.03965c0.03705,-0.01156 0.07407,-0.02319 0.11108,-0.03492c-0.03696,-0.00667 -0.07393,-0.01326 -0.11089,-0.0198c0.00002,0.00501 0.00003,0.01002 0.00003,0.01507zM307.33159,258.21181c0.04543,-0.00131 0.04693,-0.00886 0.01167,-0.02143c-0.00385,0.00724 -0.00774,0.01438 -0.01167,0.02143z" fill-opacity="0.97647" fill="#ad4eac"></path><g fill-opacity="0.23529" fill="#2f152f"><path d="M262.9701,242.05009c1.07448,-0.52008 2.14897,-1.04014 3.22346,-1.56022l1.43956,0.36298c0.05821,-0.34769 0.11853,-0.70061 0.18238,-1.05838c0.02613,-0.57516 0.16951,-1.20788 0.50747,-1.86999c0.23153,-0.50434 0.58627,-1.03806 1.10208,-1.26393c0.51063,-0.25253 0.99661,-0.11066 1.3694,0.11201c0.80067,0.40712 1.18822,1.15345 1.36409,1.90748l1.33678,2.61668c0.26254,4.92493 0.36882,10.03718 -0.658,14.81639c-0.37641,1.75197 -0.48038,3.96984 -1.4364,5.07288c-1.51775,1.75113 -4.21497,0.36777 -5.85249,0.02319c-1.35909,-0.28599 -2.67855,-0.61589 -3.97497,-0.99673c-0.28876,0.03944 -0.55652,-0.02144 -0.79123,-0.23967c-3.29697,-1.02914 -6.46511,-2.40186 -9.78296,-4.23695c0,0 -1.11522,-0.6169 -1.42406,-2.21146c-1.32327,-1.54188 -2.63857,-3.45433 -4.40153,-4.55198l-1.70821,-0.23063c0,0 -2.20513,-0.34155 -1.98462,-3.75699c0.01499,-0.23221 0.03916,-0.44706 0.07118,-0.64582c-0.04825,-0.06338 -0.09632,-0.12728 -0.14423,-0.19169c0,0 -1.65636,-2.28041 -0.18404,-4.84589c1.47231,-2.56547 3.12867,-0.28506 3.12867,-0.28506c0.65745,0.93511 1.37766,1.72259 2.14415,2.3809l2.68949,-1.48774l0.02876,0.12473c0.11114,-0.09555 0.22388,-0.18714 0.33837,-0.27434c0.80615,-0.61391 1.79701,-0.09532 2.69478,-0.04683c2.08165,0.11242 4.11928,0.30684 6.20887,0.31272l1.90211,-0.29461c0.08212,-0.01429 0.1656,-0.02163 0.25017,-0.02163c1.00766,0 1.85825,1.04165 2.12738,2.46768c0.05461,-0.03261 0.10851,-0.06149 0.16112,-0.08702c0.04603,-0.02731 0.07246,-0.0401 0.07246,-0.0401z"></path><path d="M138.65287,276.81699c-3.95733,-1.68069 -6.23321,-2.75586 -2.88293,-9.92866c0.38796,-0.83061 5.3971,-3.27939 6.04763,-3.42534c1.78454,-0.40035 3.57834,0.72424 5.34775,1.26208c2.70222,0.82136 5.82993,0.06296 8.58042,0.26351c0.96721,0.07052 1.89627,0.28986 2.81421,0.57296c5.71275,-2.46307 11.73251,-3.94412 17.30756,-6.93769c2.21443,-1.18905 4.1915,-3.12548 6.1824,-4.9924l0.43069,-4.12377c1.68235,-3.35444 3.37087,-4.5641 5.63442,-6.77951c1.26509,-1.23819 3.14786,-3.66687 4.47241,-4.57154c1.18751,-0.81105 2.41679,-1.87648 3.71392,-1.81031c0.9181,0.04683 1.78892,0.52511 2.65291,1.06564c1.12685,-1.05466 2.29139,-2.0587 3.56285,-3.03992l1.96009,-1.10903c0.36716,-0.37031 0.85221,-0.59829 1.47032,-0.40171c0.28666,0.04351 0.5962,0.17244 0.88463,0.4587c0.75106,-0.46569 1.42996,-0.82263 1.78258,-1.03761l0.41909,0.17678v-0.23871h2.21613c1.22393,0 2.21613,1.53678 2.21613,3.43248c0,0.88061 -0.2141,1.68376 -0.56608,2.2914l-1.60543,2.79741l-0.09707,-0.13365c-0.05778,0.17722 -0.11556,0.35443 -0.17334,0.53165l-0.3812,0.12275l0.0715,0.19936l-1.778,1.52994c-0.32672,0.29392 -0.70639,0.46224 -1.11144,0.46224c-0.33397,0 -0.6507,-0.11443 -0.93472,-0.31936c-1.92675,2.02746 -3.41453,4.26043 -5.4101,6.5194c-1.5369,1.73977 -3.54767,2.23916 -5.13994,3.85506c-1.99802,2.02767 -3.56576,5.2751 -5.7993,7.01016c-3.65667,2.84057 -7.965,4.51098 -11.92823,5.65662c-3.71065,1.07263 -7.27819,3.55912 -10.73826,5.78604c-1.45865,0.68083 -2.92352,1.33037 -4.39326,1.9514l-1.7739,0.37556c-4.30465,1.66111 -8.24891,2.86044 -12.71035,2.86582h-2.01466c-0.18033,0 -0.35563,-0.03336 -0.52347,-0.09631c-2.6671,0.29387 -5.62527,0.6847 -7.80595,-0.24145z"></path><path d="M248.25278,287.97379c-1.39857,0.54155 -2.11481,-0.67832 -2.4446,-1.59713c-0.21718,0.23896 -0.44659,0.46649 -0.68756,0.68087c-0.81469,0.72481 -1.70179,1.33034 -2.62729,1.5809c-1.12997,0.3059 -2.29405,0.04129 -3.44108,0.06193h-3.22346c-1.22393,0 -2.21613,-1.53678 -2.21613,-3.43248c0,-0.7533 0.15667,-1.44992 0.4223,-2.01595c0.05073,-0.59232 0.19898,-1.13695 0.41894,-1.59391l1.59729,-3.40172l0.0335,0.03774c0.02763,-0.06819 0.0558,-0.13591 0.08453,-0.20315h-0.13896c-1.22393,0 -2.21613,-1.53678 -2.21613,-3.43248c0,-0.07881 0.00172,-0.157 0.00509,-0.23448c-1.26941,-0.16436 -2.58669,-0.52921 -4.01348,-1.13479c-0.9214,-0.39108 -1.82729,-0.89522 -2.72701,-1.44449c-0.15245,0.22392 -0.32543,0.41463 -0.51413,0.56465l-2.57897,2.15088l-0.04119,-0.11848c-0.152,0.15037 -0.3077,0.29237 -0.46771,0.4246c-0.803,0.66358 -1.82338,0.22146 -2.72978,0.09364c-1.73295,-0.24439 -2.87727,-0.43265 -3.94978,-0.90709c0.31056,0.59074 0.49674,1.34458 0.49674,2.16577c0,1.8957 -0.9922,3.43248 -2.21613,3.43248c-0.1385,0 -0.27404,-0.01968 -0.40551,-0.05733l-2.37641,-0.61345l0.01035,-0.09613l-0.15518,0.05101c-1.279,-0.60858 -2.53827,-1.3781 -3.80131,-2.13491c-0.56497,1.45983 -1.77708,1.59393 -1.77708,1.59393c-0.74364,0.08223 -1.48586,0.21676 -2.22825,0.34041c0.74771,0.55148 1.2645,1.73267 1.2645,3.10079c0,1.59512 -0.70249,2.93609 -1.65441,3.32125l-2.77341,1.22733l-0.01367,-0.07408c-0.06933,0.05284 -0.13923,0.10416 -0.20973,0.15384c-0.95137,0.67048 -2.0827,0.292 -3.12695,0.36217c-2.42996,0.16329 -6.94038,1.11337 -8.28807,-3.39934c-0.17879,-0.59867 -0.31065,-1.16708 -0.39991,-1.70678c-0.38607,-0.07395 -0.76954,-0.18112 -1.15065,-0.31485l-0.03801,0.39249l-3.99591,-0.92837c-0.93543,-0.19294 -1.68642,-1.28965 -1.87501,-2.70476c-0.56979,0.15708 -1.16712,0.39256 -1.81165,0.71092c0,0 -0.98756,0.47065 -1.82152,-0.27523c-0.61608,0.64941 -1.24954,1.24565 -1.94149,1.67887c-1.03757,0.6496 -2.14158,1.24379 -3.2607,1.23891c-0.41966,-0.00183 -0.79503,-0.34256 -1.17407,-0.67175c-2.08693,0.89827 -4.18313,1.63325 -6.15608,1.91165c-1.42353,0.20087 -3.0157,0.99336 -4.36273,0.45773c-0.60512,0.05843 -1.20703,0.11267 -1.80127,0.17804l-0.079,-0.05878v0.06096h-2.01466c-1.22393,0 -2.21613,-1.53678 -2.21613,-3.43248c0,-1.75828 0.85355,-3.20777 1.95387,-3.4087l2.99134,-0.61776l0.00486,0.05649c0.04693,-0.02692 0.09401,-0.05328 0.14126,-0.07906c0.15194,-0.08289 2.54718,-0.00511 3.97688,0.01525c0.557,-0.13043 1.10466,-0.3001 1.63492,-0.52768c2.28233,-0.97954 2.77506,-2.24166 5.45084,-1.97158c0.16285,0.01644 0.31716,0.08706 0.46693,0.187c1.01253,-0.47177 2.0054,-0.9428 2.95029,-1.33734c0.90587,-0.37825 1.83698,-0.91137 2.7815,-1.48528c1.03865,-1.00622 2.06001,-1.86143 3.35905,-2.52327c1.65943,-0.84548 3.14526,-0.72832 4.69634,-1.13775c1.51664,-1.03281 3.03435,-1.59356 4.56599,-1.8215l0.0605,-0.06248l0.02176,0.05055c0.01894,-0.00267 0.03788,-0.00529 0.05681,-0.00786l0.119,-0.22452c3.81789,-2.39515 7.63221,-6.57167 11.69326,-7.82177c0.01131,-0.00348 0.02262,-0.00693 0.03394,-0.01035c0.80553,-4.27183 5.08064,-9.56376 7.24103,-9.9095c1.62464,-0.26001 3.84005,-0.91823 4.85105,1.06861c2.87743,5.65476 -1.51833,5.55807 -1.874,8.80549c-0.07113,0.64951 -0.04826,1.33361 0.01347,2.02909c0.71722,0.52279 1.35647,0.99019 1.77772,1.17996c1.91536,0.86293 4.15691,-0.02406 6.13258,0.58468c0.72475,0.22332 1.43674,0.52466 2.14053,0.87598c3.34789,1.01866 6.29575,2.9558 9.72668,4.49718c2.14065,0.96171 4.6002,0.86687 6.80044,1.16041l0.15515,0.18272l0.02039,-0.12633l2.37262,0.91872c0.98689,0.34688 1.72361,1.71389 1.72361,3.3474c0,0.43958 -0.05335,0.85985 -0.15057,1.24615c0.61833,0.02138 1.19078,0.17895 1.67564,0.49986c2.34183,1.54992 3.34942,3.92953 3.33471,6.36414c0.20962,0.28408 0.41923,0.56818 0.62886,0.85227l0.89209,2.99888c0,0 0.53749,3.32999 -1.61247,4.16249zM190.33699,273.61528c-0.01397,0.23712 -0.03274,0.48313 -0.05649,0.73837c0.03858,0.02724 0.07708,0.05478 0.11551,0.08263l0.10734,-0.58191l0.15016,0.06645c0.03098,-0.05946 0.06371,-0.11865 0.09825,-0.17704z"></path><path d="M285.06432,271.30766l2.07782,0.74231c3.18341,1.79711 6.50422,0.70702 9.59536,2.57315c2.52923,1.5269 3.18598,3.58784 6.03944,4.48008c0,0 0.06751,0.0224 0.17613,0.07776c0.42793,0.18263 0.9698,0.58194 1.29372,1.45495c0.22324,0.53704 0.35575,1.2491 0.2733,2.1858c-0.0461,0.94267 -0.272,1.59592 -0.56293,2.04859c-0.43482,0.7485 -1.01868,0.96309 -1.46182,1.0028c-0.1137,0.01887 -0.18274,0.01887 -0.18274,0.01887h-0.40293c-0.8253,-0.00768 -1.60229,0.13619 -2.35104,0.36943c-0.40639,0.72923 -1.00754,1.19078 -1.67828,1.19078h-1.07243c-1.53046,0.77684 -3.04771,1.60338 -4.75319,1.85556c-4.88997,0.72304 -11.34928,-1.11437 -13.87391,-8.71009c-0.13964,-0.42014 -0.23286,-0.86546 -0.30003,-1.32494l-1.23407,-0.27306c-1.09119,-0.21397 -1.93498,-1.65693 -1.93498,-3.40512c0,-1.8957 0.9922,-3.43248 2.21613,-3.43248h1.84635c0.1772,-0.11497 0.37934,-0.20584 0.60985,-0.26534c0.64884,-0.16749 1.13719,0.01302 1.50316,0.34971c0.64181,0.05103 1.28834,0.12482 1.93707,0.22075c0.7895,-1.65877 2.24003,-1.15952 2.24003,-1.15952z"></path><path d="M321.72067,266.62202c0.59835,-0.17622 1.12016,0.0442 1.12016,0.0442c2.8458,1.20536 5.49449,2.7662 8.2065,4.56627l0.04637,0.08182l0.01228,-0.03806l1.97172,1.52697c0.7496,0.55038 1.26799,1.7331 1.26799,3.10336c0,1.8957 -0.9922,3.43248 -2.21613,3.43248c-0.09906,0 -0.19661,-0.01007 -0.29223,-0.02958l-3.34368,-0.60928c-4.91156,0.87735 -9.70676,-2.28959 -14.11749,-5.06053l-0.14539,-0.30307l-0.05219,0.12125l-1.78459,-1.84273c-0.61099,-0.61117 -1.01544,-1.67519 -1.01544,-2.88553c0,-1.8957 0.9922,-3.43248 2.21613,-3.43248c0.05335,0 0.10625,0.00292 0.15866,0.00866l3.20304,0.31007l-0.00148,0.03683c0.04564,-0.00624 0.09134,-0.01198 0.13709,-0.01721c1.37501,-0.15715 2.99457,0.30269 4.62869,0.98657z"></path></g><path d="M258.3898,259.69032c-0.14088,-0.01302 -0.28009,-0.023 -0.41665,-0.0267c-1.63262,-0.04412 -3.37329,-0.14616 -4.82608,-1.30071c-0.79111,-0.62871 -1.18024,-2.07256 -1.85639,-2.96695c-1.72855,-2.28653 -3.41933,-3.8161 -4.88363,-5.97736c-1.3178,-0.39922 -2.82425,-0.93227 -3.13217,-1.35341c-0.11596,-0.15861 -0.22777,-0.32305 -0.33593,-0.49263l-0.05193,0.09831l-2.20178,-2.79022c-0.5044,-0.62917 -0.82714,-1.59359 -0.82714,-2.67477c0,-1.8957 0.9922,-3.43248 2.21613,-3.43248h2.21613c4.33744,0.0087 7.77179,1.55946 11.64536,3.6083c2.16915,-1.32637 5.22217,-2.19072 7.2445,-1.06763c1.5522,0.86201 3.75929,1.514 4.2352,3.95932c0.89261,4.58644 -1.86566,4.91852 -3.30053,6.16542c-0.06612,0.2969 -0.1578,0.57535 -0.27097,0.82905c-0.00086,0.00386 -0.00172,0.00771 -0.00258,0.01158c0.38553,1.06386 2.7297,2.50225 2.60782,4.13022c-0.17189,2.29619 -2.08306,3.31119 -3.12459,4.9668l-2.91693,0.17614c0,0 -1.47418,0 -2.01785,-1.86226z" fill-opacity="0.23529" fill="#2f152f"></path><path d="M166.83967,277.30407c-0.7008,-3.25634 1.4016,-4.34179 1.4016,-4.34179l1.8772,-0.96751c3.00317,-1.34648 5.71964,-0.89505 8.80481,-1.07792c1.4737,-0.08735 2.88221,-1.68682 4.33458,-1.44145c0.18476,-6.47338 4.96993,-7.82122 8.24841,-7.29873c1.2249,0.19521 2.81875,-0.35528 3.91204,0.29502c2.03089,-2.26281 4.36489,-4.98116 6.40109,-6.01857l2.76521,-2.75331c0.35106,-0.36166 0.77252,-0.57239 1.22574,-0.57239c1.22393,0 2.21613,1.53678 2.21613,3.43248c0,0.94785 -0.24804,1.80597 -0.64909,2.42712l-0.96796,1.49923c1.50551,1.25347 3.79972,0.97057 5.45462,1.43841c3.66873,1.03715 7.55845,1.95413 11.15791,3.45624l1.91908,0.59448c1.03579,0.28814 1.82177,1.69105 1.82177,3.3783c0,1.79334 -0.88793,3.26546 -2.02,3.41922l-4.00494,0.62031l-0.00313,-0.04844c-0.05721,0.02228 -0.11456,0.04387 -0.17205,0.06476c-1.17909,0.42824 -2.41903,-0.19355 -3.62736,-0.31996c-3.92924,-0.41106 -7.62852,-1.37196 -11.39286,-3.27281c-0.58033,-0.29305 -1.36383,-0.67549 -2.15249,-1.19227c-0.03566,1.3188 -0.41217,2.09839 -0.84483,2.55924c0.02738,0.21555 0.04173,0.43833 0.04173,0.66631c0,1.2381 -0.42322,2.3231 -1.05782,2.92687l-2.18466,2.15329l-0.06823,-0.16607c-0.15888,0.20344 -0.32568,0.39296 -0.50196,0.56581c-0.41421,0.40617 -0.89322,0.48509 -1.39552,0.44447l0.88031,0.49581c0.87633,0.45787 1.50734,1.74139 1.50734,3.25317c0,1.8957 -0.9922,3.43248 -2.21613,3.43248c-0.16464,0 -0.32509,-0.02781 -0.47949,-0.08056l-2.95301,-0.91476c-3.00976,0.18577 -7.79174,-2.21216 -10.57489,-4.08921c-1.05858,-0.71394 -2.81996,-0.83693 -3.42287,-2.12675c-2.93336,0.30127 -5.88832,-0.55727 -8.72793,0.82564l-1.74919,0.90475c0,0 -2.1024,1.08545 -2.80321,-2.17089z" fill-opacity="0.23529" fill="#2f152f"></path><path d="M140.06052,265.7729c3.97418,-1.84082 7.83201,-1.41413 11.95841,-1.41192c0.81362,0.00044 4.69144,-0.09459 5.35452,0.34754c0.04653,0.03103 0.09285,0.06268 0.13897,0.09492l0.0075,-0.05422l2.77871,0.92225c1.02184,0.30553 1.7936,1.69825 1.7936,3.37017c0,1.8957 -0.9922,3.43248 -2.21613,3.43248h-2.41759c-1.21337,0 -2.50655,-0.11011 -3.82917,-0.23252c-0.43629,0.23252 -0.80455,0.23252 -0.80455,0.23252l-0.26196,-0.19997c-3.36198,1.85832 -6.40168,3.41353 -10.01281,3.3204c-1.02028,-0.02631 -2.17657,0.64428 -3.05979,-0.14728c-0.16489,-0.14778 -0.32164,-0.31136 -0.47167,-0.488c-0.02869,-0.00104 -0.05799,-0.00278 -0.08782,-0.00532l-0.02759,0.06412l-0.07323,-0.07561c-0.55487,-0.07961 -1.25328,-0.45334 -1.65361,-1.70748l-0.05776,-0.05964c-0.61099,-0.61117 -1.01544,-1.67519 -1.01544,-2.88553c0,-1.54407 0.65824,-2.85001 1.5638,-3.28136l2.36911,-1.22315l0.00226,0.01052z" fill-opacity="0.23529" fill="#2f152f"></path><path d="M241.32789,281.78251c-0.071,0.18364 -0.12339,0.28798 -0.12339,0.28798c-0.24659,0.15717 -0.43347,0.27234 -0.56972,0.35389c0.30055,-0.14687 0.77469,-0.33978 1.18693,-0.36173c0.24975,-0.01331 -0.04804,-0.2549 -0.41337,-0.50249c-0.00704,0.02084 -0.01404,0.04113 -0.02096,0.06086l0.28395,0.21439c0,0 -0.13725,0 -0.34343,-0.0529zM239.77059,276.4927c0.61193,-1.52225 1.90072,-1.52225 1.90072,-1.52225l1.7635,0.72304c0.83898,1.21505 2.24552,1.91648 2.51693,3.64514c0.3747,2.38656 0.09701,5.24156 -0.80442,7.26224c-2.21627,4.96806 -8.84908,2.19274 -9.31759,-3.73017c-0.15169,-1.91766 1.25077,-3.34326 1.87616,-5.01489c0,0 0.8475,-1.68769 2.06471,-1.36311z" fill-opacity="0.23529" fill="#2f152f"></path><path d="M285.39495,276.39013c0.2199,0.39952 0.44748,0.79949 0.67756,1.18286c1.90597,0.99124 4.68899,0.82273 6.1852,2.21646c0.0043,0.00401 0.0086,0.00801 0.01289,0.01203l0.00109,-0.00562l1.96697,0.91398c0.93798,0.3996 1.62702,1.73011 1.62702,3.30988c0,1.8957 -0.9922,3.43248 -2.21613,3.43248h-2.01466v-0.16065l-0.21837,0.14395c-1.57596,-0.48819 -3.2894,0.05702 -4.79189,-0.8267c-1.05317,-0.61944 -2.1583,-1.9993 -3.19037,-3.57803c-0.81803,-0.40745 -1.46568,-0.78066 -1.65026,-1.01747c-0.80884,-1.03773 -1.10656,-2.76548 -1.65984,-4.14823l0.00261,-0.38686l-0.08346,0.03878l-0.58959,-3.04402c-0.07028,-0.33462 -0.10826,-0.6918 -0.10826,-1.06273c0,-1.8957 0.9922,-3.43248 2.21613,-3.43248c0.40504,0 0.78471,0.1683 1.11144,0.46224l1.778,1.52994c0,0 1.83097,1.57552 0.94392,4.42021z" fill-opacity="0.23529" fill="#2f152f"></path><path d="M327.45498,271.69877c0.61248,-0.28426 1.89247,-0.54007 2.62742,1.73663c0.99108,3.0701 -0.99108,4.60515 -0.99108,4.60515l-1.82863,0.60776c-4.15269,-1.28715 -8.08623,-3.44039 -12.19083,-5.02852c0,0 -2.14996,-0.83249 -1.61247,-4.16249c0.53749,-3.32999 2.68744,-2.4975 2.68744,-2.4975c3.81218,1.47725 7.47491,3.45914 11.30814,4.73897z" fill-opacity="0.23529" fill="#2f152f"></path><path d="M140.83343,267.51774c0.40259,-1.91493 1.84464,-2.19412 1.84464,-2.19412l3.19007,0.31796l2.19333,2.47067c0.56605,0.62186 0.93546,1.64494 0.93546,2.80164c0,1.89571 -0.99219,3.43248 -2.21613,3.43248h-2.05051c-1.03363,0.33022 -4.67144,1.64311 -5.72162,1.24565c-0.02841,-0.01075 -0.05676,-0.02178 -0.08505,-0.03307v0.0356h-2.21613c-1.22393,0 -2.21613,-1.53677 -2.21613,-3.43248c0,-1.7067 0.80421,-3.12248 1.85771,-3.38782c0.73871,-0.20803 3.65553,-1.02944 4.39423,-1.23747c0,0 0.03243,-0.00913 0.09011,-0.01905z" fill-opacity="0.09804" fill="#e3a3e3"></path><path d="M194.3761,262.19872c1.0959,0.4078 2.29731,0.3901 3.28769,1.22341c2.78814,2.34597 5.5644,5.95458 2.29879,11.39441c-0.82979,1.38226 -2.40644,0.62679 -3.62113,0.778c-2.79642,0.3481 -6.22226,-0.80188 -7.65913,-5.13456c-0.44732,-1.34884 -0.13203,-3.02586 -0.19805,-4.53879c0,0 0,-3.30344 2.09234,-3.42882c0.28271,-0.20263 0.59766,-0.3157 0.92965,-0.3157h2.61906v0.14952z" fill-opacity="0.09804" fill="#e3a3e3"></path><path d="M263.34894,250.97917c0.41832,0.57166 1.12377,0.81252 1.28174,1.62847c0.86924,4.48976 0.66521,10.19283 -3.8528,9.86186c-3.06766,-0.22472 -3.98491,-5.75368 -3.99544,-9.1418c-0.00312,-1.00298 0.8003,-1.84622 0.66513,-2.82712c-0.16659,-1.20887 -1.5448,-1.71024 -1.45976,-2.9393c0.3343,-4.83199 2.42025,-8.08521 5.37773,-6.7067c0.46871,-0.69793 1.23753,-1.29769 2.34798,-0.54522c2.03032,1.3758 1.14206,4.52049 1.14206,4.52049c-0.23284,0.81565 -0.46055,1.63491 -0.69124,2.45208l0.07118,0.85277c0,0 0,1.8636 -0.88657,2.84445z" fill-opacity="0.09804" fill="#e3a3e3"></path></g></g></g></svg>