<svg version="1.1" xmlns="http://www.w3.org/2000/svg" xmlns:xlink="http://www.w3.org/1999/xlink" width="242.12968" height="256.5186" viewBox="0,0,242.12968,256.5186"><g transform="translate(-186.68151,-41.77168)"><g stroke="none" stroke-miterlimit="10"><g stroke-width="0.5"><path d="M298.98333,179.05834v-1.5c0,-5.99122 -4.51742,-11.24792 -7.29449,-16.42716c-1.39524,-2.60213 -3.30561,-5.08272 -4.5387,-7.82717c-1.22371,-2.72357 -1.9747,-6.01668 -2.87271,-8.85528c-0.89181,-6.20832 -0.52099,-13.09503 0.48922,-19.24517c1.18846,-7.23535 2.14679,-14.07968 9.43905,-17.71296c5.56268,-2.77154 13.24883,-1.43227 19.27764,-1.43227c0,0 1.41382,0 1.69989,1.27079c0.95149,0.21657 1.23845,1.26876 1.23845,1.26876c1.31103,4.86805 3.938,7.01112 6.93853,10.8803c2.05402,2.64866 4.03062,5.78619 5.83891,8.62412c1.7886,2.80702 3.80106,6.24402 5.12397,9.29341c0.97268,2.24209 1.11584,4.76984 1.39743,7.19755c0.47418,4.08807 1.21468,7.96443 1.2584,12.10828c0.01785,0.23202 0.03523,0.4634 0.05199,0.69417c0.69832,0.22985 1.20244,0.88737 1.20244,1.66263v2c-0.01168,2.1064 -0.27505,6.58912 -1.75921,8.78857c-0.09561,0.40873 -0.20165,0.81819 -0.31896,1.22864l-0.02572,0.0315l0.01409,0.0047l-0.73724,2.21172c-0.13669,0.44447 -0.44565,0.81349 -0.84895,1.02914c-0.06449,0.11299 -0.1454,0.22808 -0.2453,0.34463c-1.13888,1.3287 -2.46758,0.18981 -2.46758,0.18981c-1.40374,-1.20673 -3.03064,-2.71117 -4.88035,-3.27379c-0.19045,1.44509 -1.73076,1.44509 -1.73076,1.44509h-1c-3.41394,0 -6.65982,0.24198 -9.85636,1.26768c-1.7392,0.76721 -3.45602,1.63948 -5.13617,2.56034c-1.77768,1.20486 -3.54849,2.54324 -5.33335,3.15808c-0.02762,0.00951 -0.05528,0.01882 -0.08299,0.02791l0.00875,0.01575l-2.22221,1.23456c-0.258,0.14985 -0.55781,0.23566 -0.87766,0.23566c-0.9665,0 -1.75,-0.7835 -1.75,-1.75c0,-0.13393 0.01505,-0.26435 0.04354,-0.38966c-0.04354,-0.2112 -0.04354,-0.36034 -0.04354,-0.36034z" fill="#5a1751"></path><path d="M232.23333,45.30834c0,-0.24837 0.04935,-0.4474 0.12844,-0.60687c-0.28142,-0.2595 -0.60078,-0.74354 -0.24648,-1.45215c0.55902,-1.11803 1.67705,-0.55902 1.67705,-0.55902c1.81679,0.91482 3.3783,2.12154 4.91969,3.39897c0.00979,-0.01352 0.01951,-0.02728 0.02915,-0.04129c0.67586,-0.98219 1.37805,-2.07639 2.44296,-2.61254c0.71164,-0.35829 2.79289,-1.10265 3.88643,-0.37757c0.15201,-0.04255 0.27553,-0.08219 0.35682,-0.11911c2.14761,-0.97536 6.37352,-1.57806 8.88961,-0.83508c0.79917,0.23599 1.89225,1.20949 2.68865,1.569c1.30986,0.59129 2.61897,1.22206 3.9308,1.85286c2.27727,0.27924 4.29777,0.36017 6.15178,2.27913c0.20712,0.04409 0.39639,0.11667 0.56121,0.19799c0.25941,0.11578 0.49288,0.27923 0.68927,0.4792c2.45381,2.47835 3.59229,4.78874 4.94442,7.89868c1.34221,3.08712 3.47144,5.38811 4.58473,8.71627l0.87792,1.70528c0,0 1.00623,2.01246 -1.00623,3.01869c-0.00261,0.0013 -0.00521,0.0026 -0.00782,0.0039c-1.71944,1.70161 -3.69029,3.52671 -5.93943,4.32497c3.99541,3.19173 8.68054,7.67935 8.93118,12.60132c0.12182,0.15642 0.21459,0.3676 0.25018,0.65231c0.00118,0.00942 0.00227,0.01877 0.00329,0.02806c0.03016,0.2139 0.02097,0.47951 -0.11622,0.73036c-0.13262,0.25329 -0.34852,0.40828 -0.54323,0.50183c-0.00829,0.00431 -0.01668,0.00858 -0.02517,0.01283c-0.25119,0.12559 -0.47416,0.16654 -0.66891,0.15453c-9.66231,1.15327 -19.23514,-0.03481 -28.53392,3.67562l-1.17718,0.24005c-2.80817,3.74049 -6.45206,6.31357 -10.54694,8.64019c-2.53847,1.4423 -4.17627,3.05388 -7.06123,3.8797c-6.73708,1.9285 -11.78677,-1.78807 -11.82083,-8.70812c0.01844,-4.16265 1.38004,-7.6608 2.01614,-11.70023c0.70794,-4.49562 -0.01614,-9.73689 -0.01614,-14.29977v-0.75c0,-4.56924 -0.02641,-8.8219 1.26751,-13.24002l0.11446,-1.56899c1.94628,-1.68188 2.69564,-4.20853 5.17992,-5.23453c1.19783,-1.18484 2.51314,-1.57764 3.9288,-1.69401c0.15716,-0.2147 0.38116,-0.37738 0.64137,-0.45741l1.25163,-0.41721c-0.48032,-0.25005 -1.0043,-0.49224 -1.59792,-0.72723l0.21424,0.0894c0,0 -1.25,0 -1.25,-1.25z" fill="#111732"></path><path d="M204.40376,206.95602c-1.36673,-1.29716 -2.41685,-3.0104 -3.58578,-4.47726c0,0 -0.52292,-0.65657 -0.31394,-1.38727c-0.04068,-0.17765 -0.04434,-0.30248 -0.04434,-0.30248l0.01003,-0.61309c-0.01793,-0.01827 -0.03599,-0.03642 -0.05417,-0.05451c0.01963,-0.07501 0.03923,-0.15004 0.05876,-0.22508l0.0068,-0.41576c0.73111,-2.83598 0.59262,-5.82755 1.29224,-8.64149c1.07813,-4.33629 2.16397,-8.65752 2.80793,-13.09999c-0.163,-0.20135 -0.32827,-0.40105 -0.49621,-0.5988c0,0 -0.99979,-1.17783 0.17805,-2.17759c0.52406,-0.44484 1.01288,-0.45859 1.39408,-0.33678c0.0045,-0.02618 0.00899,-0.05235 0.01349,-0.07852c0.05057,0.04885 0.10221,0.0966 0.15481,0.14343c0.37863,0.17119 0.61524,0.44995 0.61524,0.44995c0.03191,0.03761 0.06373,0.07528 0.09546,0.11303c0.51157,0.37597 1.03807,0.73798 1.45567,1.20879c0.8622,0.97206 1.29428,1.94099 1.66845,2.94849c0.33457,0.47488 0.66778,0.95003 1.00335,1.42246c-0.04728,0.27952 -0.09464,0.55904 -0.14203,0.83856c0.0303,0.06778 0.06145,0.13586 0.09347,0.20419c2.13529,4.55389 5.8746,8.40113 8.85367,12.32757c1.76783,3.01466 4.44,4.62477 6.81283,7.01993c3.89269,3.92931 7.47291,8.4883 10.70211,13.01223c1.78861,1.5399 2.96166,3.40866 4.90488,5.36096c2.05432,2.06396 4.84397,3.589 6.53055,5.9955c1.80668,2.5779 3.80858,4.53918 5.85103,6.98617c1.599,1.91569 2.69761,4.16585 4.3654,6.04834c5.50877,6.67183 9.63745,13.81389 15.36707,20.28817l0.83579,0.24515c0,0 0.47514,0.22056 0.74365,0.68148c1.38751,0.43493 1.00287,1.86708 1.00287,1.86708c-0.03006,0.11183 -0.05981,0.22355 -0.08928,0.3352c0.1956,0.9813 0.12548,2.291 -0.0811,3.44521c0.3781,0.90651 0.01409,2.18015 0.19723,3.05742c0.26024,1.2465 0.55969,2.48576 0.77264,3.74121c0.45166,2.66286 1.38786,5.7662 2.18741,8.34463c0.02679,0.08642 0.05611,0.17048 0.08757,0.25257c0.6559,0.68653 1.29288,1.33995 1.84006,1.93907c0.23608,0.2263 0.47182,0.57173 0.46026,1.04345c0.004,0.06521 0.00346,0.13223 -0.00283,0.20066l0.21629,0.0652c0.63669,0.17572 1.11244,0.74993 1.13266,1.44462c0.02481,0.85289 -0.64649,1.56439 -1.49938,1.5892l-1.54429,0.04491l-0.01256,-0.43125l-0.19049,-0.05739l-0.73601,0.20425c-0.08632,-0.18603 -0.17786,-0.3721 -0.27332,-0.55834c-0.02191,-0.0027 -0.04414,-0.00711 -0.06671,-0.01333c-1.27395,-0.35136 -1.86699,-1.96258 -3.07108,-2.50716c-1.98094,-0.89592 -3.79561,-1.43572 -5.69352,-2.54126l-0.81423,-1.03737c0,0 -0.36313,-0.67634 -0.10068,-1.33149c-0.11686,-0.05838 -0.23469,-0.11541 -0.35353,-0.17096c-3.91838,-1.83202 -9.02938,-1.78338 -13.26971,-1.66006c0,0 -0.06274,0.00183 -0.16332,-0.0079c-0.3043,-0.01738 -0.71555,-0.11077 -1.02202,-0.44374c-0.19214,-0.19266 -0.34383,-0.46732 -0.39019,-0.85887l-0.65034,-0.63779c-1.31707,-1.87109 -1.65836,-4.29344 -3.01412,-6.04837c-1.08467,-1.40402 -2.75902,-2.21903 -3.72471,-3.77198c-0.95864,-1.54165 -1.49262,-3.40429 -2.52978,-4.93586c-0.65856,-0.97251 -1.75081,-1.58585 -2.46242,-2.52026c-1.07869,-1.41638 -1.97253,-3.05331 -3.04693,-4.51846c-0.21799,-0.20146 -0.34119,-0.45478 -0.41078,-0.67141c-0.04653,-0.12084 -0.087,-0.26181 -0.10526,-0.41499c-0.1633,-0.35628 -0.32657,-0.71257 -0.48985,-1.06883c-1.29306,-1.82559 -3.27735,-3.00889 -4.51658,-4.8756c-1.07844,-1.62452 -1.69348,-3.61082 -2.62932,-5.30364c-0.97993,-1.77259 -2.91663,-2.32642 -3.7416,-4.2742c-0.2381,-0.56212 -0.08644,-1.23298 -0.2911,-1.80812c-0.55116,-1.54905 -2.03399,-2.69902 -2.85781,-4.04463c-1.3579,-2.21793 -2.39285,-3.62921 -4.19578,-5.61075c0,0 -0.60726,-0.66814 -0.38254,-1.4471c-0.22837,-0.2759 -0.4502,-0.55998 -0.66363,-0.85478c-0.666,-0.91984 -0.817,-2.13817 -1.44027,-3.08748c-0.67038,-1.02107 -2.0839,-1.27693 -3.15718,-1.8601c-1.96912,-3.10566 -5.02951,-5.24186 -7.24948,-8.15452c-0.61101,-0.80164 -1.15552,-1.65002 -1.66962,-2.51985c-0.16421,-0.13348 -0.32236,-0.27045 -0.47201,-0.41249z" fill="#f0bcd4"></path><path d="M209.88435,180.82314c0.02188,-0.08927 0.04349,-0.17846 0.06483,-0.26752c-0.07968,0.04117 -0.15785,0.08426 -0.23455,0.12919c-0.01196,0.03638 -0.024,0.07267 -0.03611,0.10892c0.06946,0.00681 0.13812,0.01665 0.20581,0.02938zM213.19523,176.57755c1.01883,0.20146 1.50332,0.76082 1.72609,1.32603c0.23399,0.44602 0.34736,1.02559 0.08678,1.72515c-1.2297,5.96431 -3.62655,12.58417 -6.26855,18.07056c-1.43901,2.98827 -3.12994,5.12494 -4.26113,8.3203l-0.18046,0.16561l0.0698,0.04182l-1.30544,2.17925c-0.38126,0.65578 -1.06978,1.1176 -1.88347,1.17549c-0.22051,0.01568 -0.43613,0.0007 -0.64266,-0.04133c-0.90029,0.63022 -2.05373,0.30136 -2.05373,0.30136l-0.17369,-0.05584l-1.96684,0.13993l-0.00249,-0.035c-0.02731,0.01316 -0.05465,0.02633 -0.08195,0.03949l-0.08452,-0.03361l-0.00001,0.0351l-2.93959,-0.00084c-1.24266,0.01108 -2.29539,-0.94698 -2.38477,-2.20355c-0.06351,-0.89284 0.37574,-1.70535 1.07723,-2.16009c-0.26895,-0.35415 -0.4415,-0.7879 -0.4754,-1.26458c-0.03949,-0.55512 0.11538,-1.07918 0.40679,-1.50552l1.32569,-1.97986c0.40001,-0.59698 0.78715,-1.19821 1.16443,-1.80282c1.03797,-1.84228 2.57631,-4.49856 2.84782,-5.02649c2.5405,-4.94007 4.2605,-11.8617 8.3231,-15.81171c0.01263,-0.04896 0.02509,-0.09806 0.0374,-0.14732c0,0 0.53834,-2.10192 2.5956,-1.77012c0.63415,-0.32692 1.31426,-0.59271 2.04645,-0.78779l2.98802,1.10448c0.00317,0.00062 0.00636,0.00124 0.00952,0.00187z" fill="#731d67"></path><path d="M336.12056,93.11293c0.58142,0.02243 0.98716,0.20747 1.27024,0.45863c0.609,-0.10829 1.30804,0.01422 1.92844,-0.06412c2.69566,-0.34042 5.10439,-0.32441 7.80278,-0.22032c10.4076,0.40146 20.79769,1.05244 31.21714,1.45436c3.58067,0.13812 7.16134,0.27624 10.74201,0.41436l1.7487,0.06745c0,0 1.27282,0.0491 1.74773,1.0847c1.25972,0.72838 0.81586,2.25166 0.81586,2.25166l-0.23499,0.7545c-0.31072,1.86656 -0.37852,3.68304 -0.4495,5.56203c0.08854,0.45927 -0.0335,0.87133 -0.19541,1.18646c-0.1954,0.47822 -0.60243,1.02613 -1.44843,1.14153l-0.96689,0.5002c-4.72052,-0.18209 -8.91474,0.2459 -13.24112,-0.48558l-0.0183,0.47448l-2.49814,-0.09636c-0.11312,-0.00436 -0.22368,-0.01805 -0.33097,-0.04027c-0.21489,0.10598 -0.43124,0.22026 -0.64931,0.34343c-3.75383,0.81646 -6.85776,2.87687 -10.43286,4.10794c-10.29651,3.54555 -20.49298,5.15899 -30.42347,-0.23176c0,0 -0.46135,-0.25335 -0.78073,-0.73679c-5.41593,0.1872 -10.77708,1.67657 -16.25376,1.78825c-6.95343,0.14179 -13.91275,-0.78299 -20.84927,-1.05056c0,0 -1.36078,-0.05249 -1.79329,-1.19371l-0.27777,-0.18489c-1.13265,-3.56854 -0.87805,-6.68608 0.4002,-10.16758c1.05386,-2.12443 1.32342,-3.13004 3.12589,-4.81164c5.92925,-5.53162 12.85567,-2.93846 19.89176,-2.33018c0.51197,0.04426 1.0248,0.08446 1.53833,0.12111c5.54059,0.07076 11.10972,0.36372 16.58771,0.57503l0.39831,0.01536c0.29917,-0.39286 0.79798,-0.71978 1.62911,-0.68772z" fill="#6390d6"></path><path d="M192.20048,174.75922c0,0 -0.61129,-1.36979 0.7585,-1.98108c1.36979,-0.61129 1.98108,0.7585 1.98108,0.7585c0.37499,0.84519 0.79391,1.67333 1.25658,2.47535c1.80879,0.35808 3.98627,0.5429 6.09278,0.49666c0.43193,-0.12051 0.84351,-0.27864 1.22804,-0.48274c2.02636,-1.07551 4.14093,-2.94144 5.97764,-4.34332l0.01508,-0.00477l-0.00302,-0.00413l1.28304,-0.93713c0.26711,-0.19863 0.60173,-0.31005 0.96021,-0.2943c0.82763,0.03636 1.46908,0.73676 1.43272,1.56439c-0.00602,0.1371 -0.03027,0.26909 -0.07029,0.39374l-0.57771,1.94388l-0.00835,-0.00248c-0.05011,0.32538 -0.12614,0.64347 -0.23861,0.94822l-0.02987,0.67988c0.08211,0.47045 0.05536,1.02381 -0.09294,1.91144c-0.31887,1.90868 -2.22983,6.06042 -0.74928,7.24976l0.70809,0.42774c0.08301,0.04139 0.15874,0.08846 0.2265,0.13682l0.00254,0.00153c0,0 0.08947,0.05918 0.20472,0.16979c0.11586,0.10999 0.17913,0.19661 0.17913,0.19661c0.00055,0.00082 0.00111,0.00165 0.00166,0.00249c0.06338,0.08059 0.12536,0.17338 0.17769,0.27738c2.43509,3.98187 -0.48674,7.35449 -2.50575,10.98676l-0.15899,0.86721c0,0 -0.25449,1.03412 -1.20596,1.14522c-0.49335,0.91601 -1.07882,1.66699 -1.7708,2.13971c-1.07417,0.73381 -4.7958,0.58376 -6.0021,0.24009c-0.37303,-0.10628 -0.73423,-0.22989 -1.06638,-0.36899c-0.03223,0.01013 -0.06395,0.01911 -0.09494,0.02705c-0.04351,0.01396 -0.06903,0.02005 -0.06903,0.02005c-0.01371,0.00152 -0.02763,0.00313 -0.04177,0.00482c-0.08537,0.01655 -0.16166,0.02542 -0.22263,0.03012c-1.57722,0.23258 -4.93102,1.0288 -4.60837,-1.89654c-1.2474,-0.5554 -2.29011,-1.38106 -3.36136,-2.52684c-0.48946,-0.36871 -0.96323,-0.73447 -1.41645,-1.08816c-1.40974,-1.53555 -2.32088,-2.64062 -2.58484,-3.92118c-0.07766,-0.22961 -0.14564,-0.4798 -0.20289,-0.75558c-0.38849,-1.8713 -0.57416,-8.27358 2.80015,-7.86252c0.55768,-2.22656 1.15379,-4.43902 1.29092,-6.50844c-0.04042,-0.24823 -0.00935,-0.53734 0.14952,-0.86488c0.10282,-0.25304 0.28473,-0.53408 0.60587,-0.7083c-0.08513,-0.18054 -0.16852,-0.36183 -0.25016,-0.54382z" fill="#baafcc"></path><path d="M215.73935,143.41812c0.94958,0.34519 2.05907,0.55648 2.73434,1.30804c3.35315,3.73201 0.10761,7.44225 -2.1707,10.32049c-1.40935,1.78046 -1.857,4.38358 -3.2846,6.12884c-0.44809,0.5478 -0.96972,1.02327 -1.51861,1.47235l0.06933,0.52947c-0.30193,6.87278 0.54147,17.08134 -8.33234,19.08569c-2.54623,0.57512 -6.148,-0.20302 -8.75783,-0.31768c-0.69392,-0.03048 -1.13627,-0.29138 -1.41807,-0.61896c-0.30161,-0.30945 -0.52271,-0.77297 -0.49222,-1.46689l0.08777,-1.99807c0.21417,-4.87494 0.0903,-9.5011 -0.11332,-14.35385c-0.04708,-1.12187 -0.26559,-2.48925 -0.08007,-3.53225c-0.37235,-0.24965 -0.74471,-0.4993 -1.11706,-0.74896l0.94073,-1.20023l-0.73919,-0.45422l1.32663,-2.15893c0.21127,-0.35901 0.53094,-0.64496 0.91204,-0.8148c0.61154,-3.98979 1.27836,-7.52671 4.36131,-10.83903c0.499,-0.53612 3.17605,-4.06948 3.64214,-4.11548c0.34923,-0.03447 0.69057,-0.00394 1.02656,0.0707l0.0301,-0.17721l1.9871,0.33754l-0.07887,0.46427c0.2497,0.14013 0.44088,0.29905 0.58566,0.46767c0.35638,0.17881 0.71417,0.34611 1.07669,0.4744l-0.12085,0.20332c3.14321,0.2977 6.69921,0.93628 9.44331,1.9338z" fill="#6390d6"></path><path d="M287.68025,243.2083c0.21329,-0.85406 0.46719,-1.75622 0.763,-2.63437c-0.20614,-0.03607 -0.4291,-0.12642 -0.6651,-0.29499c-1.2206,-0.87186 -0.34874,-2.09246 -0.34874,-2.09246c0.15786,-0.21995 0.31433,-0.43261 0.4706,-0.63874v-0.9894c0,-4.631 0.26877,-9.61815 -0.47032,-14.20308c-0.49741,-3.08568 -2.44933,-6.34186 -2.26031,-9.55664c0.00109,-0.01856 0.00228,-0.03711 0.00355,-0.05564l-0.01134,0.00142l-0.24707,-1.97653c-0.00957,-0.06847 -0.01452,-0.13842 -0.01452,-0.20953c0,-0.82843 0.67157,-1.5 1.5,-1.5c0.65504,0 1.21202,0.41988 1.41647,1.00518l0.7334,1.95186c1.64793,3.68613 2.37113,7.98991 3.30563,11.93031c0.7509,3.16625 0.77317,6.16461 2.88111,8.82046c0.34919,0.3351 0.44785,0.69799 0.43654,1.01839c0.02221,0.33336 -0.07351,0.71658 -0.44864,1.07512l-0.32125,0.38737c0.07063,2.61043 -1.2251,2.23324 -2.19286,4.04127c-0.86102,1.6086 -1.47937,3.90077 -1.86483,5.67043l-0.05381,0.06352l0.03126,0.01042l-0.48906,1.46719c-0.1885,0.61294 -0.7592,1.05847 -1.43396,1.05847c-0.82843,0 -1.5,-0.67157 -1.5,-1.5v-1.5c0,0 0,-0.97018 0.78025,-1.35004z" fill="#baafcc"></path><path d="M270.26783,233.13656c-3.11856,0.22807 -5.98083,1.25511 -9.20738,1.25511c-3.66157,0 -5.77661,0.28616 -8.03171,-3.19839c-0.48393,-2.88667 -0.89449,-6.02719 -0.56818,-8.98488c0.10516,-0.95313 1.03036,-2.91271 0.24717,-3.95877c-1.35085,-1.80427 -2.66642,-2.97178 -3.78924,-4.66713c-0.32163,0.25325 -0.65259,0.5049 -0.91212,0.82286c-0.43789,0.53648 -0.84601,1.10647 -1.23827,1.69514c0.2865,0.5325 0.13761,1.15499 0.13761,1.15499c-1.50828,6.19977 -5.43861,10.31433 -10.36887,13.85991c-0.93844,0.67488 -1.55788,1.80397 -2.56512,2.36004c-0.49853,0.27522 -3.29303,0.58066 -3.81477,0.65298c-4.56531,0.63274 -8.40504,1.40335 -12.81782,-0.40919c-0.93045,-0.64446 -1.8227,-1.195 -2.77562,-1.66023c-3.18092,-0.6153 -5.17295,-1.82222 -7.81749,-3.81788c-0.24186,-0.29991 -2.29939,-2.7955 -2.48679,-3.23785c-0.87705,-2.07024 -0.27843,-4.82987 -0.12108,-6.9679c0.25441,-3.45682 0.95616,-7.48063 2.55677,-10.59896c0.85847,-1.6725 2.91529,-2.83405 3.51374,-4.58006c0.68654,-2.00296 0.87212,-3.66406 2.05999,-5.5467c0,0 0.42934,-0.67313 1.13037,-0.70114c12.06215,-11.88788 29.27967,-11.30354 43.89901,-17.83258c2.67876,-0.54491 5.41417,-1.045 8.16345,-0.88089c3.47862,0.20765 5.9338,2.16755 8.46805,4.33665c5.96438,5.10501 7.96517,10.67256 10.03743,18.24793l0.02965,0.3555c0.33114,1.20378 0.48834,2.48342 1.04702,3.58975c0.45443,0.89991 1.55925,1.28057 2.08677,2.13581c0.35344,0.57302 0.31172,1.33294 0.5862,1.95142c1.96838,4.4354 6.58429,9.32312 3.50597,14.6682c-0.59651,1.03575 -1.52464,1.8186 -2.30409,2.71179c-1.30811,1.49898 -2.61071,2.63703 -4.26315,3.58265c-0.08774,0.19719 -0.21484,0.35593 -0.33724,0.47624c-0.15438,0.17161 -0.37492,0.35201 -0.66161,0.43018c-4.39912,2.20049 -8.61733,2.40649 -13.38861,2.75543z" fill="#111732"></path><path d="M222.97349,140.06776c1.63485,-1.05454 3.06051,-1.96613 5.1672,-1.14523c0.96766,0.37706 3.6391,3.76552 4.05989,4.41429c3.81551,5.88266 2.54807,13.30883 4.73779,19.84324c1.27533,3.83383 3.10178,7.60026 4.08117,11.50526c1.09866,4.38057 1.0487,8.9293 1.04716,13.43894c0.08437,-0.01556 0.16883,-0.03073 0.25337,-0.0455l1.05726,2.79025c0,0 -0.72867,0.72867 -1.58205,0.37413c-2.68108,0.65561 -5.28064,2.14908 -7.85466,3.08084c-4.68218,1.69487 -9.54343,3.74288 -14.46378,4.74686c-0.2094,0.57606 -0.76174,0.98751 -1.41017,0.98751h-2v-0.03101c-0.04903,0.00878 -0.0983,0.0167 -0.14781,0.02371c-7.12509,1.00922 -8.18519,-7.9425 -7.06207,-12.83733c0.5307,-2.3129 2.52525,-3.41566 4.32449,-4.6162l0.31688,-0.25398c0.24673,-1.64791 0.37693,-3.32349 0.57987,-4.96954c0.53451,-4.33547 1.91037,-8.55052 2.2424,-12.92198c0.32268,-4.24828 0.14857,-8.51262 0.50141,-12.76823c0,0 0.04815,-0.57781 0.44381,-0.98501c0.70707,-4.19092 1.83577,-8.13338 5.70783,-10.63101z" fill="#a69cb5"></path><path d="M288.44418,227.33747c1.47087,0.29417 1.1767,1.76505 1.1767,1.76505c-0.17103,0.85515 -0.32946,1.70205 -0.47589,2.54497c-0.03314,2.9159 -0.21276,5.89342 -0.00009,8.78713c0.07874,1.07143 0.75161,2.02117 0.97448,3.07212c0.73364,3.4596 1.48277,7.32229 2.01613,10.84355c0.38991,2.57419 0.33178,5.21855 0.75939,7.83433c0.00657,2.08605 0.02426,4.32212 0.16838,6.49782c0.83673,0.35945 0.83673,1.3759 0.83673,1.3759l-0.00917,0.58435c0.25024,2.2724 0.56556,4.63501 0.69718,6.95358c0.03377,0.30884 0.05554,0.62202 0.06184,0.94094l0.00015,0.77113c0,0 0,0.01414 -0.00137,0.03967c0.00064,0.06511 0.00108,0.13015 0.00132,0.19513c0.00003,0.00505 0.00005,0.01012 0.00005,0.01521c0,0.52094 -0.18092,0.86097 -0.4171,1.0829c-0.22193,0.23618 -0.56196,0.4171 -1.0829,0.4171c-1.65342,0 -4.42267,0 -6.19925,0l-0.32456,0.13888c-4.15328,3.55642 -7.20608,7.6316 -10.93402,11.43673c-0.18525,0.30335 -0.46529,0.47025 -0.71737,0.56207c-0.24069,0.11215 -0.55276,0.19168 -0.89412,0.11232h-0.31784c-0.40856,0.25 -0.86284,0.25 -0.86284,0.25l-0.52566,-0.07698c-0.60808,0.20269 -3.35152,1.16112 -3.73771,1.05367c-4.86195,-1.35272 -1.63799,-8.24787 -0.65965,-11.20104c0,0 0.05844,-0.17531 0.19582,-0.38235c-0.1275,-2.20957 -0.26296,-4.41726 -0.27228,-6.65045l-0.45628,-1.38128c-0.19856,-1.17574 -0.45956,-2.34116 -0.74945,-3.49777c-1.3819,-5.52762 -2.26242,-11.04238 -3.50807,-16.53394c-0.47767,-2.10586 -0.16617,-4.50893 -0.93793,-6.54451c-1.05425,-2.78069 -3.35591,-5.5837 -4.78563,-8.31238c-0.21147,-0.25623 -0.28566,-0.55764 -0.3039,-0.80934c-0.04656,-0.31589 -0.02294,-0.72892 0.27341,-1.08717l0.53029,-1.24777c0.81797,-0.65438 1.63595,-1.30876 2.45392,-1.96314c1.70124,-5.12911 7.12521,-9.15481 9.43576,-13.86845l0.08146,-0.05771l-0.03217,-0.02145l0.98709,-1.48064c0.26708,-0.41355 0.73206,-0.68731 1.26098,-0.68731c0.82843,0 1.5,0.67157 1.5,1.5c0,0.01016 -0.0001,0.0203 -0.0003,0.03041c0.03083,-0.01485 0.06201,-0.02449 0.09351,-0.02751c0.78377,-0.07516 1.58965,0.07756 2.34147,0.31146c3.83094,1.1919 7.47454,4.17402 11.17453,5.81492l0.96111,0.86748c0.07141,0.00616 0.14598,0.01679 0.22385,0.03236z" fill="#a69cb5"></path><path d="M196.48148,149.223c-1.46036,-1.426 -2.92924,-3.08372 -3.07541,-4.69662c-0.15565,-1.71756 0.58169,-3.07452 1.53156,-4.34257c0.22867,-3.05938 1.80949,-6.07569 3.69375,-8.80724c0.47845,-1.29643 1.08808,-2.53356 1.86465,-3.69191c0.18546,-0.49758 0.35345,-0.99862 0.42162,-1.52238l0.01089,-0.01586l-0.00812,-0.00135l0.24595,-1.47568c0.1074,-0.72302 0.73074,-1.27772 1.48364,-1.27772c0.34866,0 0.66954,0.11896 0.92426,0.3185l0.39578,-0.49472c0.27463,-0.34938 0.70109,-0.57378 1.17996,-0.57378c0.35488,0 0.68098,0.12324 0.93783,0.32926c0.62106,-0.54716 1.22655,-1.1122 1.81179,-1.69695c1.90141,-1.48777 3.08483,-1.8689 5.50038,-1.88231c1.92381,-0.01068 3.77244,-0.16947 5.60683,0.62823c2.13208,0.92715 2.8857,2.52261 3.95146,4.38804c2.23403,3.91028 3.72361,8.06127 5.88406,11.98788c1.27461,2.31659 2.54923,3.96546 3.57026,6.37417c0.13866,0.20602 0.23249,0.47959 0.2372,0.84287c0.01535,0.26687 -0.02477,0.5955 -0.22947,0.88888c-0.19638,0.29902 -0.4866,0.45832 -0.74008,0.54318c-0.12338,0.04751 -0.24012,0.07964 -0.35041,0.09879c-4.26405,2.70879 -8.35306,6.08092 -12.73337,8.51116c-3.32152,1.84281 -7.14523,1.88723 -10.74747,2.67379c-0.45443,0.16278 -0.82237,0.0906 -1.10381,-0.06124c-0.29116,-0.12095 -0.57524,-0.35599 -0.73674,-0.79895c-2.56205,-1.43995 -5.31441,-2.71028 -8.01349,-3.86846c-0.44082,-0.09752 -0.70417,-0.35288 -0.8615,-0.62318c-0.15693,-0.21131 -0.27455,-0.48746 -0.25781,-0.83405z" fill="#baafcc"></path><path d="M228.90816,255.76159l-0.16946,-0.02242l0.0132,0.0541l-1.69957,0.24635c-0.07617,0.01232 -0.15491,0.01872 -0.23579,0.01872c-0.82843,0 -1.56785,-0.67157 -1.65155,-1.5c-0.03625,-0.35883 0.05647,-0.68823 0.24055,-0.94637l1.63089,-2.33328l0.16698,0.12359c1.16051,-2.33142 2.40516,-4.61363 3.34239,-7.01476c0.24737,-0.63377 0.44623,-1.28405 0.61313,-1.94511c-0.51287,-0.44404 -0.58259,-1.13407 -0.58259,-1.13407l0.0038,-0.72434c0.53923,-2.2659 -0.63695,-6.55225 0.44804,-8.36351c0.07127,-0.11897 0.15074,-0.23067 0.23704,-0.33631l-0.04699,-0.03612l1.09201,-1.4912c0.24126,-0.3349 0.63702,-0.54852 1.10425,-0.54852c0.33368,0 0.65291,0.10895 0.92067,0.29322c0.11216,-0.02824 0.23086,-0.04322 0.35458,-0.04322c0.43395,0 0.84348,0.18427 1.14713,0.47884c0.11186,-0.40039 0.47568,-1.17001 1.59948,-0.94971c1.50059,0.29417 1.35502,1.76505 1.35502,1.76505c-0.59014,5.95801 -0.30583,11.99969 -0.67754,17.95242l0.03212,0.22682c0.15514,0.45252 0.06497,0.81014 -0.09201,1.07285c-0.11973,0.27094 -0.34253,0.53381 -0.75384,0.64642c-2.82488,1.50259 -5.36848,3.33413 -8.39195,4.51056z" fill="#baafcc"></path><path d="M188.02583,287.69257c0.05971,-0.90729 1.40237,-2.68422 1.96303,-3.48794l0.99712,-1.12362c0,0 0.28043,-0.31195 0.7234,-0.42832c1.09175,-3.79959 2.60227,-7.65188 4.1874,-10.81945c0.79855,-1.59574 2.3519,-2.7145 2.90878,-4.47261c2.02113,-6.38092 2.74645,-12.89032 3.22906,-19.64072c0.20563,-0.6397 0.41125,-1.27941 0.61688,-1.91911l0.06154,-0.9533c0,0 0.01565,-0.15822 0.08964,-0.36049c0.08779,-2.46788 0.04649,-4.96428 0.0688,-7.63619c-0.00096,-0.03914 -0.00053,-0.07723 0.00099,-0.11404c0.00003,-0.00358 0.00007,-0.00716 0.00009,-0.01075c0,0 0.00107,-0.10573 0.0311,-0.25774c0.02908,-0.15229 0.06704,-0.24743 0.06704,-0.24743l0.00245,-0.00572c0.0205,-0.05724 0.04517,-0.11611 0.07487,-0.17482l0.2229,-0.5205c1.95489,-3.1408 4.38613,-4.32012 7.48845,-5.69283c0.04306,-0.03924 0.0861,-0.07855 0.12913,-0.11794c-0.0234,-0.91625 0.91629,-1.2404 0.91629,-1.2404c0.08788,-0.02921 0.1749,-0.0557 0.26107,-0.07992c0.38011,-0.56581 0.74975,-1.13848 1.38438,-1.33081c0.14437,-0.04375 0.29171,-0.07086 0.44145,-0.08456l-0.0164,-0.06128l1.44734,-0.24535c0.08733,-0.01645 0.17819,-0.02505 0.27194,-0.02505c0.1861,0 0.36771,0.03389 0.53841,0.09584l0.10676,-0.07729c0.14508,-0.10878 0.31474,-0.18865 0.50199,-0.23184c0.23031,-0.06337 0.52373,-0.09125 0.83478,0.01306c0.71702,-0.27325 1.46304,0.27893 1.46304,0.27893c1.13977,0.84581 2.19128,1.75624 3.23327,2.69497c1.42003,0.55197 2.89729,0.80286 4.36051,1.72944c1.04979,0.66478 3.53079,2.7117 4.11005,4.65643c0.07454,0.05701 0.15135,0.11342 0.2307,0.16916l0.6604,0.58844c0.00838,0.00732 0.01668,0.01472 0.02491,0.0222c0.14193,0.12891 0.26288,0.28118 0.35524,0.44992c0.14796,0.24894 0.2745,0.58152 0.22122,0.94666c0.0029,0.04043 0.00293,0.06334 0.00293,0.06334c-0.00012,0.10121 -0.00026,0.2019 -0.00049,0.30209c0.82153,0.56504 1.55386,1.14749 1.66133,1.50448c0.22102,0.73422 -1.32651,3.27749 -1.77846,4.07507c-1.38236,3.0387 -2.06793,6.44764 -3.35402,9.51993c0.00315,1.05656 -0.04684,2.07365 -0.25184,2.94568c-0.34607,1.47211 -1.62824,2.5144 -2.06393,3.95459c-0.726,2.3998 -1.74919,4.62634 -2.63207,6.93114c-0.06967,0.92883 -0.16246,1.84121 -0.32224,2.7165c-0.40561,2.22193 -1.08022,3.84136 -1.1704,6.1134c0,0 -0.00282,0.06756 -0.02189,0.1718c-0.03197,0.21871 -0.1122,0.49244 -0.30507,0.71407c-0.02014,2.22881 0.10829,4.63342 1.0292,6.67765l0.09353,0.14245c0.34184,0.41942 0.40546,0.81136 0.35583,1.13348c-0.0155,0.31727 -0.14518,0.65607 -0.52399,0.92234c-2.65422,2.46159 -5.63755,4.25691 -7.23525,7.63832l-0.27212,1.20056c-0.02847,0.46571 -0.24328,0.74873 -0.49384,0.92073c-0.22683,0.19903 -0.55634,0.34012 -1.02676,0.26645c-7.02847,0 -14.05694,0 -21.08541,0h-0.27339c-0.41999,0.08875 -0.77345,-0.0349 -1.04426,-0.21161c-0.29057,-0.14955 -0.58347,-0.4048 -0.73684,-0.84044c-0.95079,-1.66562 -2.86808,-5.5136 -2.7606,-7.14705z" fill="#a69cb5"></path><path d="M210.13129,292.80088c0.44077,-1.89737 2.40203,-1.26491 2.40203,-1.26491l0.27907,0.12217c0.53604,-0.47481 1.30285,-0.47481 1.30285,-0.47481c0.08919,0 0.17838,0 0.26756,0c0.23323,-0.48849 0.68032,-0.84637 1.23995,-0.96092l1.75942,-0.39996c0.3841,-0.52618 -0.37583,-1.6312 -0.0947,-2.29477c0.07803,-0.18419 0.16935,-0.35958 0.27123,-0.52798l-0.10855,-0.05864l0.80734,-1.71629c0.27683,-0.62058 0.89327,-1.04143 1.65053,-1.04143c0.87385,0 1.67343,0.56043 2.02458,1.34147l0.80843,1.69826c1.51784,1.51432 2.79922,2.50448 2.9611,3.96027h1.41311c1.10457,0 2.09047,0.89543 2.20206,2c0.1116,1.10457 -0.69337,2 -1.79794,2c-0.15818,0 -0.77642,0 -1.43866,0c-0.32034,0.45723 -0.85398,0.75 -1.48557,0.75h-2c-2.16469,0.74671 -6.40638,0 -8.75,0l-2.19334,-0.60263c0,0 -1.96127,-0.63246 -1.5205,-2.52982zM221.35442,291.18334c-0.01038,-0.01135 -0.02075,-0.0227 -0.03115,-0.03403c-0.00675,0.01135 -0.01356,0.02269 -0.02039,0.03403c0.01718,0 0.03436,0 0.05154,0z" fill="#baafcc"></path><path d="M298.69175,292.84091c-0.90984,0.03425 -1.77697,0.0091 -2.29174,0.0091c-0.62438,0 -1.24876,0.00213 -1.87315,0.00599c-0.35567,0.04084 -0.72526,0.04144 -1.10246,0.00854c-5.68033,0.05247 -11.35948,0.22941 -17.02439,0.23547c0,0 -2,0 -2,-2c0,-2 2,-2 2,-2c0.14621,0.00017 0.29243,0.00016 0.43867,-0.00001c0.0089,-0.0111 0.01791,-0.0221 0.02704,-0.033l1.27806,-1.55009l0.01948,0.01606l0.01669,-0.0587c2.20374,-2.38503 4.51829,-4.49907 6.80586,-6.78848c0.83407,-0.74101 1.43123,-1.91034 2.5022,-2.22304c4.27591,-1.24848 4.83825,2.05123 7.25534,4.15554c1.40371,1.22207 3.16696,1.99862 4.5241,3.27221c0.14555,0.13659 0.31698,0.30834 0.50314,0.50767c1.24854,0.51185 2.52692,1.03008 2.61438,1.12865c1.00212,1.12941 2.44246,2.75354 1.84128,4.1386c-0.77952,1.79591 -3.46851,1.70407 -5.53448,1.17548zM292.90532,288.5689c-0.05846,-0.06714 -0.11746,-0.13512 -0.17765,-0.2003l-0.16564,0.11043c0.11175,0.0306 0.22793,0.06049 0.34329,0.08987zM292.43084,288.44208c0.01251,0.00364 0.02512,0.00726 0.0378,0.01088l-0.01785,-0.02678c-0.00664,0.00532 -0.01329,0.01062 -0.01995,0.0159z" fill="#baafcc"></path><path d="M400.37698,113.24411c-0.88366,-0.4807 -1.46675,-1.20008 -1.93701,-1.98619c-1.41521,-0.34404 -2.49557,-1.67062 -3.36012,-2.9644l-2.22419,0.88752l-0.02989,-0.0749c-0.08624,0.05757 -0.17399,0.11314 -0.2634,0.16651c-0.44266,0.26426 -0.97432,0.24338 -1.51154,0.21106c-2.09784,0.78142 -4.44507,2.09442 -6.1736,2.26535c-1.42841,0.14126 -3.34097,0.27263 -4.21873,-0.86307c-0.08944,-0.11572 -0.16327,-0.24126 -0.22268,-0.37526c-0.3706,-0.1204 -0.71699,-0.28528 -1.03228,-0.50356c-1.73764,-1.20301 -1.87257,-3.57121 -1.94237,-5.37624c-0.09554,-2.47022 0.00813,-5.07473 1.21938,-7.10514c-0.95518,-0.18235 -1.65961,-1.04008 -1.62099,-2.04142c0.0236,-0.61172 0.31955,-1.14865 0.76662,-1.49853l1.79633,-1.42336l0.06222,0.07852c0.17257,-0.15284 0.35772,-0.29147 0.5588,-0.41209c2.10613,-1.26336 3.94536,0.50533 5.59504,1.21657c0.22627,0.09755 0.45296,0.17412 0.67999,0.23405c1.17782,-0.18714 2.50435,0.0812 3.69196,-0.14208c0,0 1.23368,-0.22463 1.9252,0.65869c1.02349,0.3113 1.90292,0.655 2.83837,0.95853c0.39153,0.00132 0.77611,-0.01326 1.15166,-0.04855c-0.01971,-0.12609 -0.0276,-0.25592 -0.02249,-0.38827c0.02623,-0.68004 0.38906,-1.26765 0.9219,-1.60862l1.77461,-1.16697l0.04064,0.06179c1.06418,-1.49266 2.2337,-2.90043 3.5998,-4.1298l0.6209,-1.59673c0,0 0.00021,-0.00051 0.00065,-0.00152c0.14703,-0.39036 0.43251,-0.84348 0.9857,-1.07386c0.33611,-0.1725 0.76393,-0.2538 1.29223,-0.1121c0.53872,0.0946 0.89221,0.34893 1.12407,0.64721c0.40418,0.44241 0.47167,0.97368 0.44013,1.38963c-0.00003,0.00109 -0.00005,0.00165 -0.00005,0.00165c-0.00237,0.05872 -0.00488,0.11742 -0.00754,0.17608c0.2978,0.36442 0.46892,0.83483 0.44935,1.34208c-0.01441,0.37345 -0.13032,0.71902 -0.32015,1.01118l-0.37881,0.6073c-0.14804,1.25351 -0.34064,2.50007 -0.54425,3.75008c2.12043,-0.79653 3.8673,-1.29262 5.38206,0.15219c4.46478,0.02426 8.93561,-0.0127 13.40524,0.15971l1.99851,0.07709c1.10375,0.04258 1.964,0.97186 1.92142,2.0756c-0.02623,0.68004 -0.38906,1.26765 -0.9219,1.60862l-1.77461,1.16697l-0.02616,-0.03978c-0.06557,0.05773 -0.13254,0.11403 -0.20107,0.16877c-1.76988,1.4141 -4.68637,0.71456 -6.75527,1.16564l-1.70299,0.41743c0,0 -0.05605,0.0137 -0.15143,0.02693c-0.0946,0.01798 -0.15209,0.02291 -0.15209,0.02291c-0.48393,0.04163 -0.96786,0.08325 -1.45179,0.12487c-1.04199,2.90487 -2.85249,5.86138 -4.34408,8.56179c0.01507,0.40507 -0.12032,0.75001 -0.29303,1.02138c-0.17776,0.35798 -0.48251,0.72533 -1.00439,0.90295c-2.5215,1.53009 -6.796,3.17042 -9.65387,1.61577zM386.87605,99.09693l0.0434,0.05477c0.09021,-0.09123 0.18375,-0.17947 0.28111,-0.2643c0.15761,-0.13736 0.49613,-0.2737 0.92951,-0.40371c-0.31177,-0.00976 -0.62133,-0.01109 -0.92821,-0.00163c-0.0633,0.02284 -0.12804,0.04256 -0.19403,0.05898c-0.06055,0.20588 -0.11945,0.40243 -0.17637,0.59123z" fill="#baafcc"></path><path d="M258.35375,72.20467c0.65324,2.28356 0.71724,3.45861 -0.2441,4.85017l0.21255,0.12976l-0.89469,1.46556c-0.33028,0.55909 -1.03547,0.79178 -1.64113,0.5186c-0.41484,-0.18711 -0.68268,-0.56632 -0.74585,-0.98515l-0.24353,-1.46914c-0.25083,-0.98697 -0.34747,-2.71079 -0.85346,-3.56942c-0.37305,-0.63303 -1.53152,-0.98715 -1.39265,-1.70868c0.63649,-3.30719 3.46656,-1.95449 5.26925,-1.47766c0,0 1.24769,0.33002 0.91767,1.57771c-0.08222,0.31085 -0.2214,0.52377 -0.38406,0.66826z" fill="#6390d6"></path><path d="M193.26689,190.94796c-0.08223,-0.07337 -0.1625,-0.14872 -0.24067,-0.22608c-1.32629,-0.5324 -2.77774,-0.61361 -3.72829,-1.62661c-0.90992,-0.96971 -1.18346,-2.63744 -0.94283,-4.20062c-0.79432,-1.16121 -1.39186,-2.5166 -0.70562,-3.69466c0.71069,-1.22002 4.30401,-1.69996 5.56287,-1.50404c0.32964,0.0513 0.62745,0.11691 0.89912,0.19542c0.02058,-0.08641 0.04019,-0.16912 0.05869,-0.24792c0,0 0.3011,-1.28283 1.58394,-0.98173c1.28283,0.3011 0.98173,1.58394 0.98173,1.58394c-0.08925,0.38022 -0.16873,0.75865 -0.23999,1.13566c0.49209,0.51449 0.95108,1.10462 1.56526,1.72462c0.46049,0.28023 0.84305,0.61006 1.14497,1.00875c2.17813,1.68477 5.12721,3.12713 4.00921,6.58497c-0.25259,0.78124 -0.95737,1.33414 -1.43608,2.00121c-1.39237,0.20607 -2.5112,0.4358 -3.73301,0.4008c-0.20306,0.65499 -0.88151,1.05044 -1.55935,0.89134c-0.53044,-0.1245 -0.91014,-0.55333 -0.99768,-1.05832c-1.1323,-0.21214 -1.82768,-0.95001 -2.22225,-1.98677z" fill-opacity="0.99216" fill="#731d67"></path><path d="M217.21252,158.78705c-0.25459,-2.44235 -0.05725,-4.94858 -0.60785,-7.34164c-0.5547,-2.41087 -1.95336,-4.55874 -2.64827,-6.93299c-0.80059,-2.73529 -1.14532,-4.78772 -2.42017,-7.04097c-1.51754,-1.54704 -3.32726,-2.83911 -4.57818,-4.60583c-0.31675,-0.44735 -0.65533,-0.94173 -0.97376,-1.46275c-0.17125,0.04171 -0.35018,0.06382 -0.53428,0.06382c-0.79338,0 -1.49085,-0.41063 -1.89147,-1.03096l-1.31398,-1.97096l0.35334,-0.23556c-0.23711,-0.23795 -0.47421,-0.47591 -0.71132,-0.71386l0.47522,-0.88361l-0.37967,-0.12656l1.31693,-3.95078c0.28276,-0.91941 1.13881,-1.58771 2.15094,-1.58771c0.08472,0 0.16834,0.00468 0.25062,0.0138c1.33566,-3.47469 2.96075,-6.77571 4.75546,-10.13962c2.02883,-3.80274 3.48279,-7.19105 6.0594,-9.97095c-0.07932,-1.71902 1.72215,-2.16939 1.72215,-2.16939l1.10154,-0.27152c0.42439,-0.29218 0.87383,-0.57425 1.35146,-0.84584c0,0 0.76252,-0.42362 1.60177,-0.26856c4.61937,-2.47745 8.09848,-6.11939 12.8213,-8.44535c3.31264,-1.63145 6.68255,-1.42832 10.20037,-2.18643c5.98284,-1.28933 12.32764,-2.03846 18.46906,-2.04948c0.00013,0 0.00019,0 0.00019,0h2c7.76283,0.01203 15.30506,0.99636 22.94158,2.01686c4.38347,0.58578 10.30665,0.60234 14.30086,2.84165c1.24233,0.6965 2.73638,1.32367 3.74455,2.31308c0.20319,-0.04504 0.40637,-0.09008 0.60956,-0.13512l0.08981,0.01811l-0.00457,-0.03196l2.29502,-0.32786c0.11612,-0.01849 0.23519,-0.02809 0.35651,-0.02809c1.24264,0 2.25,1.00736 2.25,2.25c0,0.70084 -0.32043,1.32685 -0.82279,1.7395l-1.9868,1.65567l-0.03165,-0.03798c-0.05779,0.06518 -0.11683,0.12938 -0.17723,0.19251c-0.79846,0.83459 -1.89432,1.42902 -3.02704,2.02149c-4.04594,6.1586 -3.9545,13.49797 -3.9545,21.09547c0,5.46085 -0.40835,11.22015 0.62072,16.5476c0.37812,1.95753 1.51623,3.68917 2.19619,5.56336c0.89169,1.78754 1.87915,3.53903 3.03857,5.16579c0.09813,0.07821 0.15218,0.13226 0.15218,0.13226c0.00043,0.00044 0.00087,0.00088 0.0013,0.00132c0.00791,0.008 0.01583,0.01597 0.02377,0.02393c0.45257,0.05674 0.86334,0.2479 1.19107,0.53224l2.32381,1.99184l-0.04669,0.05448c0.09733,0.0598 0.19342,0.12191 0.28816,0.18657c0.19623,0.13392 0.35772,0.30026 0.4973,0.48736c0.32389,0.28431 0.62778,0.58888 0.90088,0.92492c0.60933,0.74974 0.9646,1.65565 1.30177,2.57512c1.49154,1.8968 2.86214,3.61985 4.10226,5.90238l0.00128,0.04936c0.89627,0.94467 1.72621,1.89703 2.17864,2.87294c0.11119,0.23985 0.7636,4.90581 0.87284,5.67034l0.02261,0.65153c0,0 0,0.05953 -0.00968,0.15921c-0.00451,0.10006 -0.01293,0.15898 -0.01293,0.15898l-0.32866,2.30059c-0.05908,0.46665 -0.26109,0.88873 -0.56078,1.221c0.09301,2.06502 0.14002,4.29244 -0.58269,5.99703c-0.97113,2.29052 -2.50927,3.2886 -4.09381,5.01378c-2.35083,2.55949 -4.2617,4.4349 -7.78987,5.33408c-7.63847,1.9467 -16.83253,-2.21493 -23.59348,2.33374c-4.44344,3.07378 -6.82634,8.12747 -11.87308,10.7933c-4.37487,2.31093 -11.15377,2.17291 -15.89813,1.21692c-1.48771,-0.29977 -2.75461,-0.89699 -4.06328,-1.41823c-0.37054,0.21678 -0.76311,0.46913 -1.19553,0.76171c0,0 -0.07434,0.04956 -0.20326,0.11411c-0.12623,0.06967 -0.20919,0.10285 -0.20919,0.10285l-1.61598,0.64567c-4.17784,1.77664 -7.18611,5.54945 -11.76725,6.46931c-2.40855,0.48362 -5.6487,0.04595 -8.11906,0.04595c-2.19264,0 -4.47595,0.55005 -6.5775,-0.07538c-2.55255,-0.75964 -3.57653,-2.16908 -5.34682,-3.91697c-1.37426,-1.38416 -3.26775,-2.9765 -3.8958,-4.93898c-0.12089,-0.37774 -0.09716,-4.63401 -0.09654,-5.31868c0.00633,-6.99709 2.6925,-13.58984 4.48374,-20.29911c-0.48135,-5.81729 -0.86522,-11.65038 -1.47122,-17.46385z" fill="#731d67"></path></g><path d="" fill="#6390d6" stroke-width="0.5"></path><g fill-opacity="0.37255" fill="#2e1340"><path d="M211.81335,288.458c1.40973,-1.43451 2.56969,-3.69065 3.60099,-4.51011c0.79066,-0.62825 1.82551,-0.86422 2.73827,-1.29634l2.20533,-0.98014c0.29078,-0.13711 0.61568,-0.21378 0.95849,-0.21378c1.24264,0 2.25,1.00736 2.25,2.25c0,0.18452 -0.02221,0.36385 -0.06411,0.53546l-0.48947,2.20263l-0.08259,-0.01835c-0.03311,0.20637 -0.07926,0.41084 -0.14147,0.61298c-0.51717,1.68055 -3.54753,3.18183 -4.92265,3.9074c-0.20344,0.10734 -0.41403,0.21344 -0.63107,0.31786c3.1002,0.22119 6.72874,-0.50529 9.45693,-0.80453l0.12443,0.05554v-0.05899h2.25c1.24264,0 2.25,1.00736 2.25,2.25c0,1.12935 -0.83206,2.06437 -1.91659,2.22546l-2.81278,0.4688c-0.97503,0.47494 -2.07068,0.85121 -3.80004,1.25597c-6.96539,1.63029 -15.72769,0.28642 -22.71611,-0.46367c-2.8787,-0.30898 -5.1257,0.06129 -7.966,-0.85203l-0.50401,-0.12187c-0.6709,-0.02756 -1.12605,-0.33739 -1.4297,-0.69393c-0.33931,-0.31803 -0.62551,-0.7831 -0.62519,-1.44708c-0.49607,-2.45743 -1.10845,-5.19869 -0.70575,-7.69838c0.80273,-4.98286 4.49388,-10.42337 7.42987,-14.27821c2.25439,-2.95991 2.84406,-7.14032 4.3713,-10.4712l0.1853,-2.13797c0.00052,-0.00643 0.00085,-0.00977 0.00085,-0.00977c0.53132,-5.30653 0.91013,-10.40963 1.76268,-15.60285c0.49377,-3.00774 -0.55752,-4.81119 1.37145,-7.69708c1.80936,-2.70694 5.65082,-5.04758 8.14042,-7.18453l1.74048,-1.49183c0.3948,-0.34253 0.91009,-0.54984 1.47381,-0.54984c0.02024,0 0.04043,0.00027 0.06055,0.0008c0.4621,-0.42471 1.18768,-0.75696 2.23,-0.35753c0.38637,-0.68259 1.11911,-1.14327 1.95945,-1.14327c1.24264,0 2.25,1.00736 2.25,2.25c0,0.09515 -0.00591,0.18891 -0.01737,0.28096l-0.24639,2.21751l-0.13573,-0.01508l0.08199,0.31363c-3.00138,7.59032 -3.67099,16.13829 -5.75,24c-0.87835,3.32147 -2.19436,6.36437 -3.64816,9.3332c-0.66549,2.15654 -1.43637,4.29697 -2.15613,6.34998c-0.78593,2.24179 -1.51939,2.35176 -1.92588,4.48047c-0.47288,2.4764 -0.69514,4.9773 -1.24167,7.46299c0.1996,0.63253 0.043,1.1787 -0.18861,1.58736c-0.17939,0.41084 -0.49996,0.84217 -1.0728,1.07178c-3.49389,2.62487 1.2454,3.88794 4.19666,4.91966c0.75929,-0.03688 1.44726,-0.11975 2.10101,-0.25209z" stroke-width="0.5"></path><path d="M230.83041,231.75734c0.0621,-0.55116 0.39978,-2.04971 2.23601,-2.04971c0.19114,0 0.36603,0.01623 0.52607,0.04595l0.07674,-0.05969c0.38379,-0.30444 0.86926,-0.48627 1.39719,-0.48627c1.24264,0 2.25,1.00736 2.25,2.25c0,0.18452 -0.02221,0.36385 -0.06411,0.53546l-0.48947,2.20263l-0.03995,-0.00888l0.01188,0.12139c-1.834,5.48633 -0.44979,12.97221 -3.77281,17.8278l-0.72591,2.41971c-0.26194,0.95232 -1.13408,1.65189 -2.16963,1.65189c-1.24264,0 -2.25,-1.00736 -2.25,-2.25c0,-0.22297 0.03243,-0.43838 0.09284,-0.64174l0.72257,-2.64942c-0.3757,-1.17314 0.42545,-2.35688 1.07552,-3.56393c0.74988,-3.08281 0.99647,-6.05317 1.07545,-9.16262c-1.10876,-0.13945 -1.96639,-1.08571 -1.96639,-2.23229c0,-0.3428 0.07666,-0.6677 0.21377,-0.95848l0.98015,-2.20533z" stroke-width="0.5"></path><path d="M259.57223,235.66564c3.11629,-5.71466 7.16877,-10.42524 10.58619,-15.90051c0,0 1.1925,-1.90799 3.1005,-0.7155c0.678,0.42375 0.96449,0.93784 1.05212,1.42457c0.50538,0.65203 0.50539,1.48343 0.50539,1.48343c0,4.20209 -0.3607,8.59545 -0.01095,12.77829c0.19203,2.29658 0.84749,4.54098 1.00709,6.84004c0.12018,1.73127 -0.39298,3.5077 -0.03674,5.20618c1.75334,8.35952 3.03493,17.00402 4.26799,25.60729l0.02256,2.31275c0.00005,0.0036 0.00005,0.00545 0.00005,0.00545c0,0.00002 0,0.00005 0,0.00007c-0.0022,2.04805 0.17206,4.07639 0.37383,6.10584c0.47613,-0.56314 0.99629,-1.09684 1.4264,-1.58011c2.10617,-2.36646 5.68496,-5.20658 9.20601,-3.53826c1.05861,0.50158 1.52918,1.77497 2.29377,2.66246l0.25243,1.17802c0.00122,0.00272 0.00243,0.00544 0.00365,0.00817c0.42584,0.95814 0.20674,1.66822 -0.14869,2.15337c-0.23194,0.40483 -0.62092,0.78966 -1.27323,0.94188c-2.55728,1.16372 -4.86536,2.69216 -6.9591,4.58604c0.07536,-0.00652 0.14664,-0.01141 0.21285,-0.01469c4.96155,-0.24535 9.91616,0.25367 14.86208,0.24721h3c1.24264,0 2.25,1.00736 2.25,2.25c0,0.68869 -0.30942,1.30512 -0.79683,1.71785l-1.73889,1.49048l-0.07924,-0.09244c-0.18419,0.18257 -0.38416,0.34888 -0.60442,0.49435c-1.20249,0.79415 -7.14195,0.13976 -8.78062,0.13976c-5.93734,0 -11.81833,0.5 -17.75,0.5c-1.8579,0 -6.57794,0.6876 -8.09073,-0.28206c-4.66776,-2.99191 -2.46584,-7.6193 -0.67124,-11.87283c0.58345,-1.19207 0.89631,-2.82633 0.29012,-3.49182c-0.38397,-0.42153 -3.51507,-1.79598 -4.31773,-2.06904c-1.49569,-0.01665 -2.99166,-0.02276 -4.48771,-0.02386c-0.93019,-0.13714 -1.9059,-0.24917 -2.86344,-0.29956c-0.0844,-0.24187 -0.18913,-0.46952 -0.36232,-0.64856c-1.46914,-1.51869 -4.63061,-3.00436 -5.20486,-5.12546c-1.13134,-1.89503 -2.45897,-3.26719 -3.78047,-4.8558c-2.23538,-2.6872 -2.79105,-6.81004 -5.40159,-9.41356c-1.27358,-1.27016 -3.04607,-1.67912 -4.39798,-2.72913c-0.27489,-0.2135 -0.46462,-0.44813 -0.61995,-0.69448c-0.31851,-4.10929 0.45047,-8.42896 1.20162,-12.18511c0,0 0.14861,-0.74301 0.70451,-1.28043c-0.15865,-0.30821 -0.2482,-0.6578 -0.2482,-1.02831c0,-0.02886 0.00055,-0.0576 0.00162,-0.0862c0.0002,-0.66718 0.24493,-1.57832 1.44967,-2.01791c0.0567,-0.02154 0.1145,-0.04084 0.17328,-0.05782c1.22804,-0.37215 1.97093,0.20942 2.37176,0.74309c0.1656,0.20358 0.29632,0.43666 0.38304,0.69015c0.32641,0.204 0.65281,0.40801 0.97922,0.61202c0.58768,0.20423 0.92714,0.61353 1.12323,1.01825c0.10849,0.17265 0.20216,0.3708 0.25925,0.59237c4.03941,5.48516 7.37319,11.27072 10.92288,17.07316c1.48729,2.43118 3.51147,4.64553 4.65549,7.2998c0.35008,0.81221 0.26813,1.77779 0.6631,2.56915c1.12194,2.24791 4.3182,2.81273 4.80297,5.60523c0.01542,0.0888 0.0288,0.17774 0.0403,0.26678l0.05871,-0.01958l0.73339,2.20018c0.07091,0.19723 0.11505,0.40724 0.12804,0.62562l1.00403,1.14746v-0.26174c0,0 0,-0.16717 0.04556,-0.41036c0.0111,-0.26189 0.02479,-0.4286 0.04163,-0.45992c0.099,-0.18412 0.21157,-0.35745 0.33533,-0.52189l-0.08052,-0.05032l0.5719,-0.91503c-0.29243,-0.36985 -0.63564,-0.71587 -0.7891,-1.15353c-0.77654,-2.21463 -1.46783,-5.10112 -2.05441,-7.43054c-1.39863,-5.55419 -1.86472,-11.45038 -3.48044,-16.92856c-0.93111,-3.15698 -3.0578,-5.72209 -4.39603,-8.71603c0,0 -0.91381,-2.05607 1.14227,-2.96989c0.23219,-0.10319 0.44981,-0.16851 0.65319,-0.2032z" stroke-width="0.5"></path><path d="M291.06642,242.70763c-2.25,0 -2.25,-2.25 -2.25,-2.25v-1c0.00745,-4.59851 -0.75,-9.13145 -0.75,-13.75c0,0 0,-2.25 2.25,-2.25c2.25,0 2.25,2.25 2.25,2.25c0,4.61989 0.74333,9.14516 0.75,13.75v1c0,0 0,2.25 -2.25,2.25z" stroke-width="0.5"></path><path d="M270.15685,120.33172c-1.32714,1.05049 -2.92236,1.88345 -4.20754,2.97191l-2.48354,2.95277c-0.41271,0.49743 -1.03558,0.81423 -1.73244,0.81423c-0.65968,0 -1.25305,-0.28389 -1.6646,-0.73617c-0.51026,0.83655 -0.95167,1.74353 -1.78912,2.84108c-0.90959,1.19209 -2.78218,1.73162 -3.18604,3.17569c-0.81486,2.91366 1.21582,6.53988 0.38976,9.46937v2.5c0,0.6621 -0.28598,1.25741 -0.74117,1.66913c0.13862,3.10842 1.60551,5.41369 2.42236,8.52869c0.98771,3.7666 2.04411,7.62891 2.75859,11.45064c0.85002,4.54675 0.25905,9.33038 1.24316,13.8063c1.56675,7.12588 3.32678,13.91544 5.77856,20.84595c0.17544,0.30359 0.28851,0.69491 0.28851,1.19929c0,0.01365 -0.00008,0.02722 -0.00025,0.04071c0.00785,0.39017 -0.06632,0.86514 -0.36834,1.28516c-0.29397,0.42569 -0.71632,0.65529 -1.08641,0.77913c-0.01265,0.00469 -0.0254,0.00933 -0.03825,0.01392c-0.47645,0.17016 -0.88404,0.19493 -1.22963,0.13108h-1.52713c-2.99497,0 -5.98995,0.0019 -8.98492,0.00058c-0.29574,0.14446 -0.52698,0.19584 -0.52698,0.19584c-1.65174,0.36589 -3.28717,0.8063 -4.91136,1.27973l-0.32673,-0.11132v0.13517h-0.21379c-0.01579,0.15796 -0.03159,0.31592 -0.04738,0.47388l-3.24631,-0.52351l-1.23136,0.07574c0.009,-0.08999 0.018,-0.17997 0.027,-0.26996l-0.03816,-0.00615c0,0 0,-0.2925 0.10546,-0.66658c0.01694,-0.16928 0.03388,-0.33856 0.05082,-0.50784c-0.10087,-0.25561 -0.15629,-0.53412 -0.15629,-0.82557c0,-0.45124 0.13283,-0.87145 0.36153,-1.22367c0.05209,-0.51981 0.10421,-1.03963 0.15635,-1.55944c1.28223,-8.18158 3.60219,-16.16028 4.49555,-24.46241c0.622,-5.78035 0.05832,-11.93566 -0.0458,-18.00475c-0.72328,-0.37416 -1.21763,-1.1292 -1.21763,-1.99971c0,-1.13515 0,-4.5203 0,-5.65545c-0.37907,-1.87701 -0.94964,-4.06218 -1.72871,-5.52348c-2.14892,-4.03072 -5.48022,-6.36845 -9.07682,-8.56925c-0.15679,3.66654 -0.6134,7.23574 -0.95152,10.92612c-0.42445,4.63261 -0.11773,9.3744 -0.50062,14.00759c-0.59734,7.22816 -1.98256,14.20394 -1.99888,21.48598l-0.25632,1.68736c0.38648,0.74587 0.21918,1.58234 0.21918,1.58234c-1.40667,7.00191 -0.72077,13.81267 -3.35856,20.62235c-0.2476,0.6392 -2.46625,5.47118 -2.53215,5.51169c-2.92807,1.79987 -5.04925,0.02058 -7.0398,-1.62552c-2.95607,-2.44455 -5.41412,-5.10603 -7.14237,-8.2323c-0.12461,0.02139 -0.25272,0.03254 -0.38344,0.03254c-0.07273,0 -0.14466,-0.00345 -0.21562,-0.0102l0.00977,0.20038c-0.84597,1.02409 -1.28858,2.62108 -2.53792,3.07228c-1.57628,0.56927 -3.5414,0.45224 -5.01599,-0.34419c-0.73688,-0.39799 0.24851,-1.82704 -0.25,-2.5c-0.26183,-0.35346 -0.7728,0.60113 -1.20732,0.53272c-0.05846,-0.0092 -0.11708,-0.02038 -0.17585,-0.03339c-0.14357,0.07572 -0.29656,0.15217 -0.45938,0.22936c-0.08738,0.16642 -0.18924,0.31541 -0.3067,0.44404c-1.18234,1.29475 -3.87476,-0.25828 -5.18045,0.91197c-0.44484,0.3987 -0.48165,1.09334 -0.72247,1.64001l-0.04818,0.0382l0.01811,0.01132l-1.22935,1.96697c-0.3937,0.65347 -1.11013,1.09053 -1.92864,1.09053c-1.24264,0 -2.25,-1.00736 -2.25,-2.25v-2.25c-0.51085,-2.31012 0.19537,-4.5378 1.59396,-6.14582c-1.45562,-1.32419 -3.65672,-4.04177 -4.44866,-5.33038c-0.64373,-1.04745 -1.53662,-2.19432 -1.39268,-3.41532c0.21129,-1.79232 0.69503,-2.95666 1.34169,-3.63696c-0.0239,-0.0482 -0.04674,-0.09758 -0.06847,-0.14819c-0.25809,-0.13541 -0.51752,-0.34336 -0.76724,-0.64856c-1.42479,-1.7414 0.31662,-3.16619 0.31662,-3.16619c0.18701,-0.15296 0.37401,-0.30592 0.56102,-0.45888c0.39967,-1.28164 1.02425,-1.55713 1.70504,-1.39464c0.17367,-0.14206 0.34735,-0.28411 0.52102,-0.42617l0.04953,-0.01313l-0.01183,-0.01577l1.98182,-1.48636c0.05684,-0.0436 0.11581,-0.08454 0.17675,-0.12265c-0.21186,-0.22285 -0.41878,-0.47167 -0.61985,-0.75616c-2.55336,-3.61279 -1.18955,-10.15486 -1.18706,-14.42117c0.33373,-4.36102 1.1985,-6.89402 2.94227,-10.82746l0.97914,-2.20306c0.0477,-0.11415 0.10454,-0.22354 0.1696,-0.32724c-1.03072,-1.04752 -1.44491,-2.92468 -1.83577,-4.37989c-0.31975,-1.19047 0.29701,-2.45016 0.54525,-3.65757c0.98349,-4.78363 3.56628,-9.55827 5.4487,-14.05083l0.14567,-0.12603l-0.05451,-0.03407l1.22935,-1.96697c0.32722,-0.54313 0.87738,-0.93676 1.5238,-1.05421c0.92202,-2.20256 2.42483,-4.28798 3.43957,-6.13187c3.01149,-5.4722 6.0033,-10.80005 9.30727,-16.09695c0,0 0.46175,-0.73881 1.27032,-1.00962l0.25314,-0.75941l0.11588,0.03863c0.05963,-0.24269 0.13957,-0.4804 0.2452,-0.71179c0.53577,-1.17367 2.16721,-1.40459 3.19655,-2.18241c3.53363,-2.67018 7.06234,-5.30877 11.08837,-7.20412c2.09751,-0.98745 4.34529,-1.4764 6.58766,-1.99351l0.00001,0.00005c0.08406,-0.06357 0.17091,-0.12277 0.26175,-0.17562c1.15812,-0.67375 2.49219,-1.21113 3.85471,-1.66364c0.27609,-0.19655 0.55917,-0.38418 0.85152,-0.56c3.77137,-2.26804 7.54185,-2.62198 11.54251,-4.05191l0.39038,0.12968v-0.16381h2.25c1.24264,0 2.25,1.00736 2.25,2.25c0,0.81851 -0.43706,1.53494 -1.09053,1.92864l-1.96697,1.22935l-0.02712,-0.04339c-0.08153,0.06609 -0.16516,0.12992 -0.25111,0.19126c-1.07657,0.76839 -2.53666,0.75059 -3.8092,1.11124c-1.82473,0.51715 -3.66508,0.93394 -5.49283,1.40159c-0.46458,0.58712 -1.15073,0.81583 -1.15073,0.81583l-0.59613,0.19239c-0.9112,0.3763 -1.8238,0.71304 -2.73562,1.02577c-1.79616,1.31056 -3.54138,2.70392 -5.29218,3.95656c-2.13881,1.53025 -4.39335,6.78544 -2.27901,9.35225c0.4125,0.50077 1.25238,0.48696 1.6895,0.96638l1.8109,1.20726c3.84151,-1.03722 7.76799,-2.33195 11.37742,-3.9329c7.29818,-2.43795 14.2099,-5.86648 21.95153,-6.64946l0.11208,0.03312v-0.03591h2.5c1.24264,0 2.25,1.00736 2.25,2.25c0,0.62132 -0.25184,1.18382 -0.65901,1.59099l-2,2l-0.04068,-0.04068c-0.10299,0.11618 -0.21084,0.22847 -0.32425,0.3363c-1.63466,1.55419 -6.35411,2.44043 -8.56224,3.41947c-2.45793,1.08979 -4.58034,2.70595 -7.04716,3.77032c-3.40245,1.46807 -6.23138,2.58233 -9.31711,4.76037c-1.56386,1.10384 -3.45564,2.22225 -4.32749,3.96816c0.03548,0.03994 0.05399,0.06373 0.05399,0.06373c0.43943,0.56915 2.27785,3.1534 3.13864,3.57568c1.24274,0.60965 3.02584,0.83824 4.82715,0.73393c1.02652,-0.68027 2.08212,-1.2807 3.26065,-1.84782c0.28578,-0.2615 0.73678,-0.5712 1.30782,-0.62424l1.43347,-0.71868c0,0 0.65903,-0.32952 1.4114,-0.23428c0.74687,-0.81376 1.48854,-1.63005 2.43224,-2.17959c2.51285,-1.46331 5.32943,-2.45443 7.87459,-3.98663l1.32016,-1.54018c0.41272,-0.48741 1.02915,-0.79682 1.71785,-0.79682c1.24264,0 2.25,1.00736 2.25,2.25c0,0.06592 -0.00283,0.13117 -0.00839,0.19565c0.27437,0.48391 0.34226,0.92255 0.29629,1.30435h0.7121c1.24264,0 2.25,1.00736 2.25,2.25c0,0.6887 -0.30942,1.30512 -0.79682,1.71785l-1.73889,1.49048l-0.1267,-0.14781c-0.3316,0.3172 -0.71192,0.55931 -1.16896,0.68316c-2.1141,0.5729 -3.18874,-0.11791 -3.74511,-1.23258zM215.89426,158.15626l-0.37778,-0.99293c-0.91843,-1.7173 -1.25695,-3.69159 -1.72445,-5.58212c-0.84468,-3.41584 -2.40342,-7.04372 -4.22774,-10.25247c-2.6796,2.48346 -5.35866,5.48342 -6.86527,8.74612c-0.00986,0.84933 0.09296,1.49597 -0.24197,2.51257c0.09054,-0.01109 0.18275,-0.01679 0.27629,-0.01679c1.24264,0 2.25,1.00736 2.25,2.25c0,0.31343 -0.06409,0.6119 -0.17988,0.88301l-0.98105,2.45262l-0.04321,-0.01728c-0.02069,0.08418 -0.04285,0.16808 -0.06659,0.2517c-0.06642,0.23388 -2.45299,3.12378 -2.48294,4.05843c-0.0218,0.68032 1.52195,3.79967 1.64055,4.16708c1.05837,3.27878 1.10657,7.52872 1.11312,10.95446c0.00152,0.79481 0.07475,2.88131 -0.11888,4.55365l0.06137,0.03836l-0.08216,0.13145c-0.0009,0.00697 -0.00181,0.01394 -0.00272,0.0209l0.39982,0.08529c0.67287,0.84633 1.34573,1.69266 2.0186,2.539c0,0 0.4953,0.63681 0.51141,1.44437c0.26331,0.5846 0.61546,1.87255 -0.78938,2.80911c-1.87211,1.24808 -3.12019,-0.62404 -3.12019,-0.62404l-0.10952,-0.30478c-0.76911,-0.67873 -1.38374,-1.50641 -1.89196,-2.4131l-0.4264,0.3198l-1.27664,-1.70219c-0.1144,-0.07678 -0.22606,-0.15939 -0.3353,-0.24676c-0.52799,-0.16229 -0.97321,-0.51363 -1.25664,-0.97504l-0.67147,-1.05516c-0.23033,-0.26101 -0.45858,-0.50717 -0.68991,-0.72108c-0.10296,-0.09521 -0.2059,-0.18566 -0.30875,-0.27213c-0.07871,0.27151 -0.2072,0.52187 -0.37493,0.74054l-1.48636,1.98182l-0.04031,-0.03023c-0.03339,0.06842 -0.06801,0.13634 -0.10396,0.20373c-0.28375,0.53198 -1.20593,0.31342 -1.66705,0.70186c-0.18977,0.15986 0.5128,-0.02039 0.74018,0.07893c0.76429,0.33385 1.54512,0.67879 2.19401,1.20275c0.75885,0.61276 4.16585,4.979 4.07547,5.32931c-0.18565,0.71954 -0.38523,1.32451 -0.59623,1.82877c0.61027,0.15884 1.30425,0.46781 2.08869,0.95794c0.70998,0.44361 1.49622,2.14917 1.95256,4.04574c0.49117,0.25803 0.99306,0.48585 1.52373,0.63021c0.97097,0.26414 2.18962,-0.10573 3.03845,0.35766l0.30198,-0.56467l1.48215,-0.92635c-0.27018,-2.64643 -0.51376,-5.29476 -0.77849,-7.94177c0,0 -0.20215,-2.02152 1.69863,-2.41484c0.11791,-0.92342 0.68375,-1.8539 0.89956,-2.77886l0.9269,0.45194l-0.10901,-0.66247l-0.27724,-0.36965l0.19264,-0.14448l-0.03514,-0.21352l1.47963,-0.92477c0.27775,-0.52148 0.55953,-1.0416 0.83823,-1.56294c0.22971,-4.38971 -0.17797,-9.42605 1.16742,-13.54094c0.63362,-1.93792 1.25586,-3.64598 2.15326,-4.3602c0.03729,-1.29855 0.0237,-2.58573 -0.0666,-3.82613c-0.85268,-0.37683 -1.2185,-1.2914 -1.2185,-1.2914z" stroke-width="0.5"></path><path d="M258.98333,73.57063c0,0.91667 0,1.83333 0,2.75v2.25c0,1.24264 -1.00736,2.25 -2.25,2.25c-0.74548,0 -1.40629,-0.36255 -1.81571,-0.92095l-1.48429,-1.97905l0.1136,-0.0852c-0.16087,-0.17357 -0.31111,-0.35719 -0.44814,-0.55329c-0.15058,-0.21549 -0.17247,-1.15335 -0.14211,-2.23576c-0.67718,-0.07646 -1.78867,-0.43902 -1.95959,-1.97728c-0.24847,-2.23624 1.98777,-2.48471 1.98777,-2.48471l0.99459,0.02338l-0.2104,-0.24547l1.74047,-1.49184c0.3948,-0.34253 0.91009,-0.54984 1.47381,-0.54984c1.24264,0 2.25,1.00736 2.25,2.25c0,0.51472 -0.17284,0.98907 -0.46364,1.36818l-0.20353,0.27138c0.41717,0.62885 0.41717,1.36044 0.41717,1.36044z" stroke-width="0.5"></path><path d="M278.32402,168.45297c-0.89546,-3.06839 -2.2073,-6.35853 -2.8024,-9.46907c-0.39277,-2.05299 -0.10889,-4.18133 -0.28334,-6.26426c-0.22548,-2.6922 -1.2512,-6.50983 -0.50328,-9.23536c0.00776,-0.02829 0.01562,-0.05656 0.02356,-0.08479l-0.01859,-0.00143l0.24848,-3.23022c0.07855,-1.17139 1.0536,-2.09721 2.24489,-2.09721c0.93541,0 1.7375,0.57082 2.07694,1.38313l0.97914,2.20306l-0.12984,0.05771l0.24556,0.26802c0.2647,2.26038 0.6439,4.92605 1.96953,6.8693c1.28007,1.87645 2.9685,3.51091 3.92241,5.57239c1.9203,4.14988 3.52838,8.83549 6.42236,12.51538c0.54386,0.69156 4.4231,4.55241 5.11835,5.60683c0.81992,1.24348 1.29902,2.68516 2.06447,3.96289c2.13629,3.56603 9.29975,8.33648 7.67671,13.34822c-0.36795,1.13617 -3.18459,0.89419 -5.29502,0.56619c-0.43581,0.14688 -0.8006,0.14688 -0.8006,0.14688h-1.25c-4.87137,0 -12.55776,1.37195 -14.66281,-4.37971c-0.04313,-0.11784 -0.06584,-0.83761 -0.07751,-1.7056c-3.86957,-4.5648 -5.4261,-10.06009 -7.16899,-16.03235z" stroke-width="0.25"></path><path d="M375.01648,99.41332c0,0 -1.0927,-1.96685 0.87416,-3.05955c1.96685,-1.0927 3.05955,0.87416 3.05955,0.87416c1.361,2.46464 1.94015,4.36701 3.54326,6.12177c0.6172,0.19456 1.24874,0.57658 1.87846,0.71198c2.08128,-0.35096 4.25275,-0.92417 6.23222,-0.83382c1.16913,-0.6903 1.91632,-1.38518 4.10085,-1.40706c1.15689,-0.01159 2.24691,0.55274 3.37037,0.8291l0.9197,0.86418c0.70123,0.30891 1.00536,0.92745 1.13726,1.40588c0.10346,0.31326 0.17793,0.72024 0.09519,1.14768c0.0353,0.64305 0.23385,1.2895 0.5716,1.83948c0.05139,-0.03187 0.10416,-0.06173 0.1582,-0.08947l3.2093,-1.72809l0.1515,0.28137c1.87659,-1.59713 3.77037,-3.14601 5.58863,-4.90556c0.74365,-0.71964 1.28637,-1.68603 2.08206,-2.32875c0.2039,-1.4298 1.7731,-1.76605 1.7731,-1.76605c2.95252,-0.63031 5.47295,-1.0456 8.47144,-1.04994h0.75c0,0 2.25,0 2.25,2.25c0,2.25 -2.25,2.25 -2.25,2.25h-0.75c-1.16633,-0.00189 -2.23217,0.06804 -3.28218,0.19446c-0.27486,1.80554 -2.21782,1.80554 -2.21782,1.80554l-0.75153,-0.01376c-0.80205,0.00667 -1.5295,0.31348 -2.216,0.79737c0.13947,0.2928 0.21753,0.62048 0.21753,0.96639c0,0.45049 -0.13239,0.87005 -0.36039,1.22191l-1.23161,1.97058l-0.01743,-0.01089l-0.01429,0.06021c-3.17094,4.45462 -8.9929,8.81791 -14.13372,3.92855c-0.96001,-0.91306 -1.87454,-1.96172 -2.37077,-3.19015c-0.12381,-0.30648 -0.17426,-0.62878 -0.18795,-0.95901l-1.70635,0.18959c-0.65922,0.26829 -1.31844,0.53658 -1.97766,0.80486c-3.60635,2.13621 -8.18563,4.328 -12.13894,1.92468c-1.0726,-0.65206 -2.26144,-1.33809 -2.87334,-2.4341c-0.36269,-0.64963 -0.1902,-1.40671 0.00326,-2.17778l-1.02652,0.87988l-0.04212,-0.04914c-0.08249,0.09093 -0.16788,0.17948 -0.25655,0.26536c-1.84081,1.78279 -6.29686,2.23093 -8.66789,2.76972c-2.21068,0.50235 -4.36781,1.03951 -6.50672,1.56981c-4.486,2.03185 -9.80091,4.09721 -14.51607,3.81485c-0.38205,0.69786 -1.12323,1.17109 -1.97493,1.17109c-0.18452,0 -0.36385,-0.02221 -0.53547,-0.06411l-2.20263,-0.48947l0.00303,-0.01365c-0.01837,0.00054 -0.03676,0.00101 -0.05515,0.00141c-2.2159,0.04801 -4.00021,-1.53438 -5.8578,-2.37116c-1.39852,-0.62999 -2.41498,-1.12949 -3.25613,-1.69535c-0.8681,0.62472 -1.9924,0.28743 -1.9924,0.28743c-1.1149,-0.65069 -2.98537,-0.78409 -3.73258,-1.68652c-1.87989,0.90372 -4.13807,1.25803 -6.377,1.57349c1.67799,1.99449 1.94391,5.15571 3.36081,7.18411c3.62233,5.18562 6.4379,10.33296 9.39174,15.98616c0.49923,0.95545 1.29528,1.76918 1.62738,2.79476c0.63274,1.95402 0.60214,4.08591 1.26072,6.03137c0.71846,2.19038 0.83195,4.47596 1.01897,6.72441c1.09649,0.59375 1.09649,1.9871 1.09649,1.9871l-0.03629,-0.15249c0.3511,1.9649 0.49279,3.83843 0.48675,5.68501l0.00585,0.02622c0,0 0.09592,0.47958 -0.02528,1.03628c-0.08962,2.72032 -0.47669,5.40873 -0.96146,8.27381c-0.25469,1.50528 0.37282,3.18459 -0.26326,4.57244c-0.06152,0.13422 -0.12647,0.26648 -0.19448,0.397l0.0651,0.02712l-1.22995,2.95187c-0.32706,0.83858 -1.14263,1.43274 -2.09698,1.43274c-0.86853,0 -1.62212,-0.49211 -1.99715,-1.21271l-1.2899,-2.36481c-1.90871,-1.28627 -4.76451,-0.25129 -6.6428,-1.14283c-0.28327,0.13602 -0.63454,0.22035 -1.07015,0.22035c-2.25,0 -2.25,-2.25 -2.25,-2.25c0.00803,-5.03474 -0.91716,-9.47395 -3.20841,-13.53411c-0.15822,-0.15692 -0.31653,-0.31366 -0.47373,-0.47103c-6.79651,-4.45519 -12.47808,-11.16079 -15.17971,-18.71859c-0.23823,-0.66644 -0.39939,-1.34601 -0.50664,-2.03385c-0.04526,-0.12045 -0.06432,-0.19671 -0.06432,-0.19671l-0.30601,-1.32182c-0.40817,-4.08681 -1.17681,-8.06813 -1.97299,-12.06115c-0.46247,-2.31943 -1.3372,-4.68091 -1.00913,-7.02314c0.33685,-2.40488 1.29662,-4.90417 2.39828,-7.2717c0.51851,-5.1591 2.95142,-10.10393 7.05028,-13.22356l0.10108,-0.01844l-0.02118,-0.03389l1.97058,-1.23161c0.35186,-0.228 0.77143,-0.36039 1.22191,-0.36039c1.24264,0 2.25,1.00736 2.25,2.25c0,0.52793 -0.18182,1.0134 -0.48627,1.39719l-1.73769,2.23417l-0.38948,-0.30293c-0.56649,1.11801 -1.17803,2.2213 -1.80271,3.32142c0.04021,0.09847 0.07365,0.20042 0.09973,0.30528l0.71216,2.61124c0.96626,2.49089 3.81795,1.43361 6.35426,1.43361c0.5497,0 1.10558,0.01251 1.66481,0.02957c3.22124,-0.58599 6.41359,-0.887 9.68651,-1.24586l1.57936,-0.35097l2.57474,-1.20154c0.29989,-0.14803 0.63752,-0.2312 0.99458,-0.2312c1.24264,0 2.25,1.00736 2.25,2.25c0,0.07781 -0.00395,0.15471 -0.01166,0.23049c0.59611,0.40536 1.11159,1.0003 1.72853,1.37697c0.47227,0.28834 0.94084,0.57002 1.40597,0.8496c4.41537,0.42606 8.87732,0.93293 13.28892,0.31852c3.383,-0.47116 5.91372,-2.57119 8.96356,-3.84859c3.73214,-1.56318 7.8317,-2.0601 11.83353,-2.49334c1.44606,-0.57414 2.92826,-1.02218 4.34333,-1.13985c-0.16517,-0.30942 -0.33728,-0.62621 -0.51902,-0.9511z" stroke-width="0.5"></path><path d="M401.32572,96.74999c-1.92936,-1.15762 -0.77174,-3.08697 -0.77174,-3.08697l0.80725,-1.34046c0.5,-0.75 1,-1.5 1.5,-2.25c0,0 1.24808,-1.87211 3.12019,-0.62404c1.87211,1.24808 0.62404,3.12019 0.62404,3.12019c-0.5,0.75 -1,1.5 -1.5,2.25l-0.69275,1.15954c0,0 -1.15762,1.92936 -3.08697,0.77174z" stroke-width="0.5"></path></g><g fill-opacity="0.37255" fill="#2e1340" stroke-width="0.5"><path d="M212.78144,203.12126l-2.40318,1.48595c-0.19379,0.1859 -0.43623,0.34647 -0.73955,0.45729l-1.27001,0.78528c-0.06997,-0.22217 -0.1477,-0.44315 -0.23058,-0.66333c-0.53938,-0.08561 -0.93243,-0.30594 -1.21884,-0.5816c-0.76928,-0.74038 -0.76928,-1.87985 -0.76928,-1.87985l0.17881,-1.67848c0.03292,-0.08105 0.06236,-0.16492 0.08925,-0.25086l-0.00942,-0.11305l0.04411,-0.00368c0.02142,-0.07577 0.04123,-0.15283 0.06004,-0.23071c-0.02161,-0.1976 -0.03334,-0.39672 -0.03356,-0.59762c-0.00126,-1.19982 1.25328,-2.04636 1.87992,-3.06954l0.04109,-0.02122c-0.00016,-0.0116 -0.00024,-0.02321 -0.00024,-0.03485c0,-0.05669 0.00189,-0.11294 0.0056,-0.16869l0.24871,-4.22812l0.0574,0.00338c-0.00718,-0.10958 -0.01276,-0.21935 -0.01661,-0.32934c-0.0509,-1.4552 2.10612,-5.41987 2.71882,-6.64527c0.61548,-1.23096 1.24626,-2.52355 1.8345,-3.83818c0.16413,-2.79673 0.35812,-5.58901 0.67452,-8.3694c0.02851,-0.25057 1.27715,-8.99832 1.63442,-9.54737c0.07804,-0.11993 0.15968,-0.23679 0.24458,-0.35087l-0.0614,-0.03582l0.42203,-0.72348c-0.32156,-0.42068 -0.51258,-0.94645 -0.51258,-1.51685v-2.55248c-3.17692,-6.03991 -5.57045,-12.54823 -6.12718,-19.35413c-0.31795,0.58138 -0.66115,1.14914 -0.99619,1.72094c-0.48813,0.83307 -0.98506,1.66104 -1.49015,2.48393c-1.09917,1.79077 -2.0534,3.71154 -2.61107,5.73738l-0.34332,0.25241l0.14804,0.0987l-1.47849,2.21774c-0.36665,0.56772 -0.95706,0.97737 -1.64649,1.10418c1.04682,1.90703 0.8521,3.76159 -0.5276,6.70348l-0.45071,2.92962c-0.16665,1.21902 -1.21206,2.15823 -2.47683,2.15823c-0.2826,0 -0.55425,-0.04689 -0.80759,-0.13331c0.35443,1.82809 0.92807,3.63847 1.26324,5.41454c0.53181,2.81809 0.54434,5.36605 0.54434,8.21877v1.5c0,0 0,2.5 -2.5,2.5c-0.48744,0 -0.87984,-0.09504 -1.19573,-0.24806c0.90617,1.86239 -0.91752,3.07818 -0.91752,3.07818c-0.49802,0.23595 -1.18423,0.25211 -1.49406,0.70785c-0.25124,0.36956 0.09195,0.88985 0.10421,1.33656c0.02058,0.74962 0.03405,1.56652 0.11079,2.38363c0.32709,0.16193 0.61367,0.39333 0.84045,0.67492l2.08989,2.55431c1.69155,1.03731 3.37611,2.08559 5.05417,3.15345l0.69505,0.86107c0.11149,0.11397 0.21217,0.23857 0.30038,0.37213l0.94672,1.17286c0,0 1.4531,2.03433 -0.58124,3.48743c-1.26947,0.90676 -2.3126,0.45551 -2.91754,-0.01199c-0.05161,0.83239 -0.53556,1.47766 -0.53556,1.47766c-1.20823,1.60312 -2.56542,3.09564 -3.98223,4.51777l0.40759,-0.16143c0,0 -0.60634,2.42536 -3.0317,1.81902c-2.42536,-0.60634 -1.81902,-3.0317 -1.81902,-3.0317l0.90759,-2.16143c1.09957,-1.09497 2.1599,-2.23822 3.11782,-3.4595c-1.38775,-0.76409 -2.43433,-2.48539 -3.21482,-3.84674c-2.55562,-2.44687 -3.76544,-5.84194 -3.38212,-10.05053c0.11226,-1.23254 -0.03736,-2.60507 0.60421,-3.66344c0.65318,-1.07754 2.00396,-1.5281 3.00594,-2.29215c0,0 1.34312,-0.89541 2.59034,-0.16796c-0.20359,-0.53222 -0.20359,-1.00192 -0.20359,-1.00192v-1.5c0,-8.68244 -3.76285,-16.68181 -0.29538,-25.24056c0.11953,-0.29504 0.33018,-0.65739 0.59952,-1.05812c-0.74827,-0.37033 -1.42874,-0.93438 -1.98317,-1.72583c-0.84735,-1.2096 -0.01589,-2.97453 0.27798,-4.42187c0.5641,-2.77825 1.94799,-5.60245 3.28792,-8.29994c0.60359,-2.91177 1.85284,-5.77075 3.09297,-8.0553l1.19019,-2.85645c0.3634,-0.93176 1.26959,-1.59194 2.32997,-1.59194c0.09395,0 0.18669,0.00518 0.27794,0.01528c1.08691,-1.25286 2.21702,-2.40491 2.73417,-3.37967c0.81997,-1.54552 0.71212,-3.47042 1.51308,-5.02588c1.24345,-2.41477 2.83004,-5.6075 4.44005,-7.81223c4.50807,-6.17329 9.84022,-11.72662 15.77605,-16.45751c1.62482,-0.66583 3.20858,-1.39001 4.79907,-2.10006c0.77195,-0.68058 1.5268,-1.34711 2.20427,-2.02c0.87031,-0.86443 1.4042,-2.13966 2.49078,-2.70889c1.62594,-0.85179 3.84462,-2.4675 5.32891,-1.38765c1.60172,1.16528 1.61972,4.05723 0.84795,5.88144c-0.71543,1.69104 -2.99843,2.13554 -4.61111,3.01345c-1.33291,0.72561 -2.79871,1.37521 -4.28592,1.98149c-1.43305,1.26999 -2.72266,2.66462 -3.12102,4.21975c-0.61424,2.39787 -0.36167,6.59158 2.28794,7.82765c0.83974,0.39175 1.85852,0.29949 2.68587,0.71677c1.25521,0.63308 2.3726,1.5001 3.51497,2.32721c0.081,-0.06334 0.16347,-0.12507 0.24751,-0.18506c1.02187,-0.72949 2.47015,-0.46871 3.67877,-0.80876c3.1235,-0.87881 6.69503,-1.54346 9.66012,-2.875c3.78773,-1.70096 7.44336,-3.12665 11.19817,-4.51353c0.88071,-0.53918 1.72976,-1.19668 2.73641,-1.31128c0.09883,-0.01125 0.19769,-0.02068 0.29658,-0.02841l-0.01271,-0.05507l3.19674,-0.73771c0.05374,-0.0136 0.10817,-0.02547 0.16324,-0.03553l0.84584,-0.21614c0,0 2.42536,-0.60634 3.0317,1.81902c0.60634,2.42536 -1.81902,3.0317 -1.81902,3.0317l-0.48164,0.11703l-1.75076,1.3617c-4.94862,4.83016 -10.92892,6.08511 -17.53168,7.27474c-3.13678,0.96879 -5.85959,1.81793 -8.85443,3.11773c-0.14067,0.06105 -3.92103,1.23248 -4.26004,1.83788c-0.26682,0.47649 0.2486,1.06996 0.27221,1.61556c0.15706,3.62853 3.09112,3.87499 5.95408,5.96637c0.70774,0.517 1.21174,1.31544 1.98992,1.71871c1.61168,0.83521 4.15628,-0.36147 6.21044,-1.51388c0.34912,-0.33832 0.72388,-0.65707 1.13378,-0.94931c2.97852,-2.12351 6.64274,-3.78603 10.17119,-5.33532c0.17928,-0.12531 0.35805,-0.25303 0.53632,-0.38336c1.15596,-0.84511 1.98763,-2.47923 3.4138,-2.6077c0.28317,-0.02551 0.56309,-0.02016 0.84047,0.0095v-0.15502h2.5c1.38071,0 2.5,1.11929 2.5,2.5c0,0.99801 -0.58479,1.85943 -1.43041,2.26029l-2.45156,1.22578l-0.00774,-0.01549l-0.03383,0.0358c-1.04498,0.47447 -2.12871,0.9473 -3.22657,1.42959c-2.28002,1.70915 -2.7987,1.83043 -5.73185,3.3001c-1.62595,0.81469 -3.49655,1.95693 -5.47605,2.98168c-1.208,1.3597 -2.11781,3.11969 -3.25335,4.42026c-2.0339,2.32947 -2.93795,2.71125 -3.42896,5.80921c0,0 -0.09831,0.5407 -0.45625,1.06899c0.86015,4.19068 2.21513,8.18004 3.25851,12.26535c1.23807,0.65359 1.23807,2.21845 1.23807,2.21845c0,5.68336 0.15098,11.35395 0.28701,17.02816c0.44642,0.34847 0.77145,0.84524 0.90103,1.41624l0.73732,2.94927l-0.04651,0.01163c0.02926,0.05871 0.05795,0.11774 0.08603,0.17713c0.91341,1.93133 0.28365,4.26484 0.51946,6.38822c0.20875,1.87969 0.3443,3.69834 0.42378,5.52846c1.01142,1.99793 2.22862,3.84632 3.09922,5.92647c1.34658,3.2174 1.24576,5.65945 1.49839,9.06676c-2.63959,0.51686 -5.56896,1.36155 -8.03783,0.69481c-0.30168,0.64524 -0.92598,1.31286 -2.2179,1.31286c-2.5,0 -2.5,-2.5 -2.5,-2.5l0.52662,-1.78485c0.10818,-0.13892 0.22273,-0.27467 0.34143,-0.40838c-0.40064,-1.00035 -0.08059,-2.21143 -0.11805,-3.30677c-0.13068,-3.82137 0,-7.67646 0,-11.5c0,-9.2428 -0.39819,-18.43941 -0.48388,-27.66244c-0.51612,-0.71429 -0.51612,-1.58756 -0.51612,-1.58756l0.04855,-0.00971c-1.0184,-5.21421 -2.94364,-10.21925 -4,-15.5c0,0 -0.01845,-0.09225 -0.0303,-0.24455c-0.01825,-0.15166 -0.01825,-0.24574 -0.01825,-0.24574l0.00856,0.00895c-0.00009,-0.01785 -0.00003,-0.03607 0.00019,-0.05463c-2.33074,-2.61074 -5.11605,-5.34615 -7.90222,-7.37869c-0.63651,-0.46434 -1.64756,-1.72034 -2.10357,-1.07785c-0.7215,1.01655 -0.15566,2.48851 -0.26339,3.73041c-0.01066,0.12285 -0.02191,0.24565 -0.03374,0.36839c0.79417,0.7395 0.79417,1.90342 0.79417,1.90342c0,8.40807 -0.08924,16.86709 -0.93675,25.24231c-1.32508,13.09453 -4.60773,26.07758 -6.71086,39.07606l-0.10239,1.28097c0,1.13355 0,2.2671 0,3.40065v2.75c0,1.38071 -1.11929,2.5 -2.5,2.5c-0.74166,0 -1.4079,-0.32296 -1.86573,-0.83592l-2.2425,-2.49167l0.03065,-0.02758c-0.06145,-0.05215 -0.12236,-0.10501 -0.18269,-0.15863c-1.57352,-1.39866 -1.49657,-3.46667 -2.954,-4.91652c-1.11687,-1.11106 -2.96262,-1.47163 -4.08027,-2.51857c-0.18317,0.64849 -0.574,1.09516 -0.574,1.09516zM256.66754,200.50742c-0.08132,-0.09282 -0.15487,-0.19517 -0.22202,-0.30526c-0.03374,0.05996 -0.06925,0.12131 -0.10636,0.18388c0.11282,0.03746 0.22298,0.07759 0.32838,0.12138z"></path><path d="M198.15,183.725c0,-1.38071 1.11929,-2.5 2.5,-2.5c1.38071,0 2.5,1.11929 2.5,2.5c0,1.38071 -1.11929,2.5 -2.5,2.5c-1.38071,0 -2.5,-1.11929 -2.5,-2.5z"></path><path d="M256.15,80.475c-2.5,0 -2.5,-2.5 -2.5,-2.5c0,-1.91667 0,-4.08333 0,-6c0,0 0,-2.5 2.5,-2.5c2.5,0 2.5,2.5 2.5,2.5c0,1.91667 0,3.83333 0,5.75v0.25c0,0 0,2.5 -2.5,2.5z"></path><path d="M419.15,99.975c0,2.5 -2.5,2.5 -2.5,2.5h-1.5625l-1.12981,2.71154l-0.07517,-0.03132c-0.02204,0.11002 -0.04627,0.21973 -0.07287,0.32912c-0.17091,0.70273 -3.92561,4.74513 -4.30141,5.16307l-1.34047,1.34536c0,0 -0.7522,0.7522 -1.76594,0.7846c-1.32728,0.65159 -2.81647,0.93863 -4.5076,0.64594c-3.14614,-0.54451 -4.57053,-3.54739 -6.95094,-4.88861c-1.03786,-0.58477 -2.36017,0.4041 -3.48195,0.80498c-0.78884,0.2819 -5.78207,2.49541 -6.32105,2.58677c-5.06606,0.85872 -7.16528,-1.65264 -8.51928,-5.13813c-0.06556,0.06224 -0.13449,0.12097 -0.2065,0.17587l-2.22966,1.73418l-0.07795,-0.10022c-0.13274,0.13877 -0.27125,0.27241 -0.4165,0.40007c-0.78232,0.68759 -2.03341,0.45215 -3.05011,0.67822l-1.88395,0.4739c0,0 -1.83579,0.45895 -2.71235,-1.01889c-2.06592,0.39857 -4.0995,0.89569 -5.96019,1.66259c-5.74777,2.369 -12.54993,6.5961 -19.15826,4.57367c-1.81764,-0.55627 -3.18173,-2.13825 -4.95533,-2.82207c-1.9845,-0.76513 -4.0332,-1.38882 -5.93824,-2.3346c0,0 -0.00215,-0.00108 -0.00629,-0.00323c-0.27602,0.13943 -0.58141,0.22918 -0.90442,0.25751l-2.12512,0.21251c-2.36007,1.22314 -4.7101,2.10539 -7.0428,2.58417c1.89194,2.08378 3.17833,4.68683 5.04218,6.77655c1.4467,1.62201 3.10463,3.1294 4.12928,5.04615c1.98728,3.71747 3.10406,7.69133 4.3549,11.6294c0.74948,1.10115 1.47356,2.24688 2.00565,3.61862c2.24164,5.77903 1.66022,11.90528 1.15454,17.86677c-0.47186,5.56278 0.21936,9.44367 -2.91293,14.28996c-0.17732,0.4712 -0.52866,0.93804 -1.19713,1.2336c-0.41682,0.23865 -0.95911,0.40056 -1.59235,0.25278c-0.64421,-0.08847 -1.09272,-0.43362 -1.39662,-0.80556c-0.39769,-0.39503 -0.58516,-0.81745 -0.64962,-1.21999c-2.89977,-1.50485 -5.77528,2.39783 -9.01696,-0.71551c-0.97449,-0.9359 -0.69744,-2.57759 -0.90198,-3.9477c-0.02252,-0.10171 -0.03803,-0.19459 -0.04871,-0.27428c-0.0043,-0.02057 -0.00874,-0.04106 -0.01333,-0.06147c0,0 -0.00373,-0.04108 -0.00497,-0.11318c-0.0053,-0.07191 -0.0053,-0.11316 -0.0053,-0.11316l0.00569,-0.00057c0.00038,-0.01669 0.00092,-0.03416 0.00164,-0.05235c-0.31412,-3.2081 -0.34137,-6.19991 -1.11503,-9.35262c-8.27074,-6.75682 -16.30682,-14.51557 -17.87356,-25.789c-0.90177,-6.48869 0.75983,-13.12256 0.73127,-19.55546c0,0 0,-0.59023 0.28679,-1.19712c0.11064,-3.41451 0.54459,-6.6448 2.22714,-9.92091c0.6174,-1.20216 0.77602,-2.83288 1.90176,-3.58059c0.19575,-0.13002 0.39845,-0.24484 0.60691,-0.34704l-0.05884,-0.09807l2.46477,-1.47886c0.38339,-0.2392 0.83629,-0.37741 1.32147,-0.37741c1.38071,0 2.5,1.11929 2.5,2.5c0,0.38813 -0.08845,0.7556 -0.24629,1.08336l-1.22779,2.70114c-0.74977,1.64852 -1.49398,3.25633 -2.25834,4.8476c0.96308,0.68472 1.91753,1.217 2.86745,1.61524c3.82979,-1.38942 9.25953,-2.90803 12.76903,-2.24551c0.032,0.00604 0.06398,0.01217 0.09594,0.01839v-0.02024h5c0.37929,0 0.73886,0.08447 1.06091,0.23562c1.08798,-0.58125 2.30712,0.02832 2.30712,0.02832c1.7765,0.89557 3.71232,1.43221 5.56176,2.1654c1.63456,0.64801 2.87618,2.1231 4.54467,2.67793c5.1196,1.70245 11.4487,-2.64134 15.84174,-4.42633c4.25993,-1.7309 9.20753,-2.23393 13.69351,-3.1324l2.44938,-0.48988c0.17418,-0.03842 0.35518,-0.05867 0.54091,-0.05867c0.12646,0 0.25072,0.00939 0.37213,0.02751c-0.00864,-0.03023 -0.01729,-0.06047 -0.02594,-0.0907c0,0 -0.6868,-2.40381 1.71701,-3.09061c2.40381,-0.6868 3.09061,1.71701 3.09061,1.71701c0.51926,1.82042 0.71379,3.7773 1.60436,5.44776c0.48278,0.90555 1.74563,0.74863 2.50154,0.53759c3.05705,-0.85351 5.64236,-2.95298 8.90846,-3.27643c1.25794,-0.12458 2.61347,-0.29778 3.78854,0.16818c2.13998,0.84859 3.64637,3.86134 6.04906,4.61139c0.8533,0.26638 1.73776,-0.16528 2.57512,-0.91455l0.31087,-0.30956c0.85482,-0.94886 1.42727,-1.82928 1.98856,-2.52104c0.6391,-0.96591 1.16188,-1.87244 1.49859,-2.38054l1.45378,-2.42296c0.19167,-0.33243 0.45764,-0.61663 0.7752,-0.82991c0.47931,-1.67314 2.3921,-1.67314 2.3921,-1.67314h2.75c0,0 2.5,0 2.5,2.5z"></path><path d="M401.15,91.725c0,-1.38071 1.11929,-2.5 2.5,-2.5c1.38071,0 2.5,1.11929 2.5,2.5c0,1.38071 -1.11929,2.5 -2.5,2.5c-1.38071,0 -2.5,-1.11929 -2.5,-2.5z"></path><path d="M288.15,186.725c0,-0.01326 0.00007,-0.02644 0.00021,-0.03956c-0.08348,-0.06461 -0.16508,-0.13218 -0.2446,-0.20298c-0.98529,-0.87732 -0.92902,-2.47343 -1.50259,-3.6615c-0.7734,-1.60201 -2.2154,-2.82356 -2.96748,-4.43569c-0.69366,-1.4869 -0.95147,-3.146 -1.57781,-4.66249c-1.89446,-4.58688 -4.42587,-8.79369 -5.41264,-13.77501c-0.68256,-3.44565 -0.19084,-7.33655 -0.54201,-10.84823l0.05346,-0.12453h-0.05656v-3c0,-1.38071 1.11929,-2.5 2.5,-2.5c1.33139,0 2.41969,1.04074 2.49575,2.35306l0.10333,1.54997c0.02761,0.0703 0.04036,0.11176 0.04036,0.11176c3.15483,10.25994 8.774,19.66932 11.83784,29.89806c1.19273,1.30974 2.55325,2.45401 3.59833,3.87919c0.92161,1.2568 2.75928,2.4908 2.40622,4.00878c-1.02788,4.41932 -4.61165,3.84709 -7.48184,3.94918h-0.75c0,0 -2.5,0 -2.5,-2.5z"></path><path d="M231.29366,254.40035c-2.42536,-0.60634 -1.81902,-3.0317 -1.81902,-3.0317l0.18776,-0.64242c0.64607,-6.37699 0.07888,-13.42978 2.4164,-19.42972c0,0 0.92848,-2.32119 3.24967,-1.39272c2.32119,0.92848 1.39272,3.24967 1.39272,3.24967c-2.22814,5.38401 -1.51129,12.27838 -2.0836,18.07028l-0.31224,1.35758c0,0 -0.60634,2.42536 -3.0317,1.81902z"></path><path d="M236.9,247.975c0,-0.86385 0.29849,-1.4292 0.68919,-1.7992c-0.0832,-0.40176 -0.14394,-0.80757 -0.17832,-1.21737l-0.24512,-2.45121c-0.01041,-0.09264 -0.01575,-0.18681 -0.01575,-0.28222c0,-0.2613 0.04009,-0.51324 0.11445,-0.75c-0.07436,-0.23676 -0.11445,-0.4887 -0.11445,-0.75c0,-1.38071 1.11929,-2.5 2.5,-2.5c0.99801,0 1.85943,0.58479 2.26029,1.43041l1.47578,2.95156c0.68099,0.76702 0.80055,1.90092 1.36234,2.7591c1.51439,2.31337 3.22164,4.49666 4.92679,6.67324c1.38247,1.76468 3.25741,3.10051 4.65816,4.85072c2.02222,2.52672 3.51103,5.47411 5.52026,8.02505c1.26526,1.60638 2.62929,3.24578 3.27884,5.18471c0.50705,1.51357 2.35986,3.57651 1.17222,4.64304c-3.92548,3.52514 -8.20776,1.26183 -11.219,-1.06771c-2.81998,-2.18158 -4.15218,-5.19592 -6.03288,-8.08932c-1.87233,-2.88052 -3.80083,-5.58323 -5.44505,-8.61301c-0.52491,-1.56892 -1.08637,-2.95145 -1.74119,-4.30482c-1.05441,-0.22917 -1.8606,-1.12363 -1.95689,-2.22171l-0.04508,-0.45079c-0.51665,-0.35196 -0.96458,-0.96225 -0.96458,-2.02046z"></path><path d="M300.75977,287.98005c0.4824,0.03491 2.39023,0.31101 2.39023,2.49495c0,2.5 -2.5,2.5 -2.5,2.5l-0.96837,-0.10543c-4.1656,-1.30342 -8.93065,-0.64457 -13.28163,-0.64457c-1.45386,0 -2.66677,0.26203 -3.62925,0.11881c-0.08945,0.25598 -0.18424,0.52644 -0.28578,0.81455l-1.58497,-0.29579v0.86244h-2.5c-1.23356,0 -2.25846,-0.89343 -2.4629,-2.0685c-2.51962,1.48518 -5.626,1.87069 -7.38739,-0.57548c-1.56924,-2.17932 0.40053,-5.35385 0.60658,-8.03365l0.06835,-1.92871c0.26917,-1.06282 0.45336,-2.07887 0.56689,-3.06237c-0.02167,-0.06148 -0.041,-0.12406 -0.0579,-0.18764l-1.37856,-4.74836c-1.93473,-3.69543 -2.05195,-8.78382 -3.07301,-12.77292c-1.56943,-6.13144 -3.16335,-12.08695 -4.21936,-18.2487c-0.04919,-0.16531 -0.09657,-0.33024 -0.14199,-0.49474c-0.24276,0.07859 -0.50179,0.12106 -0.77073,0.12106c-1.38071,0 -2.5,-1.11929 -2.5,-2.5c0,-0.41989 0.10352,-0.81561 0.28642,-1.16302l1.16768,-2.33536c0.18586,-0.56086 0.37427,-1.11961 0.56558,-1.67662l-0.22792,-1.36754c-0.02742,-0.14831 -0.04176,-0.30121 -0.04176,-0.45746c0,-1.13472 0.75599,-2.09288 1.79178,-2.39827c0.28814,-0.76141 0.58351,-1.52117 0.88703,-2.28021c0,0 0.82309,-2.05772 2.85675,-1.52335c0.40234,-0.95404 0.7804,-1.90151 1.09274,-2.83874l0.59439,-0.57468c0.24823,-0.58333 0.76833,-1.15138 1.8301,-1.34443c0.12727,-0.02314 0.24916,-0.0385 0.36588,-0.04682c0.37459,-0.03041 0.80813,0.00898 1.22524,0.21868c0.41803,0.20787 0.70967,0.53107 0.91009,0.84898c0.06337,0.09836 0.12422,0.20509 0.18207,0.32079c0.2203,0.4406 0.31037,0.83779 0.31299,1.19157c1.45718,8.83087 0.05089,18.14152 0.44837,27.06318c0.0197,0.44221 0.05912,0.88267 0.11037,1.32209c1.01309,5.1774 1.85617,10.39701 2.84352,15.55027c0.53431,2.78874 0.58368,5.35359 0.71392,8.10479c0.00581,0.01944 0.01104,0.03695 0.01566,0.05244c0.22358,1.22536 0.42002,2.45656 0.58244,3.69195c0.98841,0.66273 1.55525,2.16187 2.1979,3.22541c0.09056,0.14986 0.1848,0.3019 0.28009,0.45594c1.10769,-0.68112 2.07063,-1.36529 3.05938,-2.00048c1.04116,-1.58356 2.31392,-2.80614 3.62485,-3.04646c0.16378,-0.03002 0.32791,-0.05341 0.49236,-0.07093l-0.02427,-0.09708l2.94561,-0.7364c0.21047,-0.05753 0.43201,-0.08824 0.66073,-0.08824c1.38071,0 2.5,1.11929 2.5,2.5c0,0.85982 -0.43406,1.61825 -1.095,2.06814l-2.47134,1.72994l-0.08595,-0.12279l-0.22388,0.30787c-0.72188,0.24063 -1.43352,0.57491 -2.14089,0.96199c-0.22781,0.35533 -0.46691,0.78212 -0.70234,1.32898c-0.19199,0.44595 -0.36224,0.84881 -0.51661,1.22183c0.94222,-0.00001 1.66741,0.00403 1.73601,0.00403c4.80345,0 9.71455,-0.49774 14.35977,0.75505z"></path><path d="M289.9,240.225c-2.5,0 -2.5,-2.5 -2.5,-2.5l0.04033,0.19721c-0.64308,-3.60546 -0.58222,-7.14627 -0.78648,-10.80854c0,0 -0.13868,-2.49615 2.35748,-2.63483c2.49615,-0.13868 2.63483,2.35748 2.63483,2.35748c0.19027,3.43785 0.08583,6.8146 0.71352,10.19146l0.04033,0.69721c0,0 0,2.5 -2.5,2.5z"></path><path d="M225.89137,294.18261c-0.20761,2.49136 -2.69898,2.28375 -2.69898,2.28375l-2.89628,-0.24352c-2.62086,-0.00082 -5.49057,-0.02538 -8.21979,-0.40163c-0.28864,0.07939 -0.58065,0.13302 -0.87512,0.16462c-1.74963,1.29059 -3.73497,2.08752 -6.13303,1.71704c-1.22151,-0.18871 -2.43158,-0.74572 -3.61496,-1.4463c-1.27476,1.41083 -3.36466,2.59603 -4.82364,1.75068c-0.98814,-0.57254 -1.53741,-2.02959 -1.84309,-3.72431c-1.95232,-0.11088 -4.29552,-0.53991 -4.98849,-1.37864c-2.95876,-3.58113 0.53254,-7.56936 2.57355,-10.30162l0.34248,-1.18984c1.7403,-7.5385 3.36392,-15.15553 5.81505,-22.48076c1.36534,-4.08034 2.20879,-8.77256 4.43439,-12.58347c0.14419,-2.40925 0.32529,-4.99169 1.01873,-7.21381c-1.05648,-0.29213 -1.8322,-1.26038 -1.8322,-2.40982c0,-0.90176 0.47743,-1.692 1.19332,-2.13175l2.57178,-1.63659c2.29225,-2.14192 5.69022,-6.65726 9.35978,-6.51283l1.60492,-1.20369c0.42124,-0.32311 0.94829,-0.51515 1.5202,-0.51515c1.38071,0 2.5,1.11929 2.5,2.5c0,0.54748 -0.17599,1.05386 -0.47448,1.46566c0.71041,1.59468 -0.70063,3.47709 -1.18841,5.17198c-0.93867,3.26161 -1.50722,3.64728 -2.47981,6.44491c-2.75623,7.92825 -4.78321,16.12789 -8.34355,23.72831c-0.34727,0.74132 -0.58454,1.55334 -0.82352,2.36248c0.34997,0.43015 0.55976,0.97891 0.55976,1.57667c0,0.38488 -0.08697,0.74945 -0.24234,1.07512l-2.02968,4.5104l-0.0089,-0.004c-0.00286,0.01404 -0.00574,0.02807 -0.00863,0.0421c-0.04696,0.22798 -2.28436,4.54905 -2.40075,4.83309c-0.58373,1.42446 -1.52041,4.87352 -1.9018,6.2156c-0.08688,0.30573 -0.47649,1.43757 -0.68543,2.43518c3.27539,0.46948 6.04587,2.3035 9.21834,3.23985c0.06094,0.01799 0.12213,0.03562 0.18356,0.0529c1.20767,-1.19375 2.77321,-3.3932 3.88736,-4.44702c0.95116,-0.89966 1.78512,-1.56336 2.62057,-2.13559l1.82716,-2.51235c0.45293,-0.63856 1.19807,-1.05528 2.04054,-1.05528c1.38071,0 2.5,1.11929 2.5,2.5c0,0.54442 -0.17402,1.0482 -0.46948,1.45874l-1.73244,2.47491l-0.04485,-0.03139l-0.06342,0.0872l-0.02459,0.11737c-0.11571,0.11592 -0.23256,0.23885 -0.35052,0.36797c-0.15454,0.4636 -0.49774,0.79445 -0.91059,1.07856c-0.71121,0.894 -1.45611,1.92428 -2.22757,2.93152c1.08959,0.02179 2.16087,0.01759 3.17736,0.01727l3.10372,0.25648c0,0 2.49136,0.20761 2.28375,2.69898zM209.63229,238.97402c-0.09443,0.09173 -0.18346,0.18977 -0.2662,0.29516c-0.01269,0.01617 -0.02528,0.03248 -0.03776,0.04893c0.06138,0.01726 0.12181,0.03681 0.18118,0.05855c0.04068,-0.13427 0.08161,-0.26849 0.12278,-0.40265z"></path></g><path d="M194.17189,184.02446c-2.5,0 -2.5,-2.5 -2.5,-2.5v-2c0,-5.67978 0.34011,-11.33996 0.33333,-17c0,0 0,-2.5 2.5,-2.5c2.5,0 2.5,2.5 2.5,2.5c-0.00624,5.66383 -0.33333,11.31776 -0.33333,17v2c0,0 0,2.5 -2.5,2.5z" fill-opacity="0.1098" fill="#f6d1ff" stroke-width="0.5"></path><path d="M199.83855,132.3578c0.10587,0 0.20725,0.00448 0.30434,0.01307c0.33948,-0.97781 1.26893,-1.67974 2.36232,-1.67974c1.38071,0 2.5,1.11929 2.5,2.5l0,2.66667c-0.004,4.4587 0.40154,12.98127 -5.78846,14.13789c-2.92037,0.54568 -6.40517,-2.95465 -6.85687,-5.47864c-0.60763,-3.39531 2.49466,-6.9927 4.98296,-9.1681l-0.0043,-0.49115c0,0 0,-2.5 2.5,-2.5z" fill-opacity="0.1098" fill="#f6d1ff" stroke-width="0.5"></path><path d="M203.59522,251.95835c0.00701,-1.3478 -0.05861,-2.70433 0.0916,-4.04001c0.41093,-3.65418 1.33228,-6.28766 1.31841,-10.06054c0,0 0,-2.5 2.5,-2.5c1.53301,0 2.12597,0.94004 2.35533,1.66726c1.14467,0.68094 1.14467,2.16608 1.14467,2.16608l-0.07464,1.60634c-0.98861,3.95312 -1.42027,7.99344 -2.39958,11.91138c-0.01428,0.98981 -0.06215,1.9756 -0.23617,2.94779c-1.44496,8.07279 -3.78206,16.24705 -6.42905,24.02443c-0.96378,2.83177 -2.85525,5.07223 -4.18007,7.73295l-0.09498,0.08055l0.03449,0.02156l-1.64373,2.62996c-0.43745,0.72608 -1.23348,1.21171 -2.14294,1.21171c-1.38071,0 -2.5,-1.11929 -2.5,-2.5v-2.66667h0.02805c-0.00846,-0.04599 -0.01654,-0.09207 -0.02423,-0.13825c-0.339,-2.03552 0.95654,-4.92362 1.3986,-6.77878c2.03642,-8.54599 5.91435,-15.53923 9.47739,-23.42642c0.57232,-1.2669 1.01476,-2.56748 1.37684,-3.88933z" fill-opacity="0.1098" fill="#f6d1ff" stroke-width="0.5"></path><path d="M265.17189,231.69113c2.17118,0 2.45675,1.88561 2.49431,2.38163c1.00167,2.87865 1.24487,5.59302 1.93714,8.53696c1.06624,4.53428 3.38422,8.4356 4.34569,13.05436c1.3248,6.36411 1.10647,13.13172 -0.09153,19.60834c0.0383,0.52749 0.06958,1.05594 0.09333,1.58539h0.05439l0,5c0,1.38071 -1.11929,2.5 -2.5,2.5c-1.38071,0 -2.5,-1.11929 -2.5,-2.5v-2.79091c-0.00108,-0.80715 -0.02312,-1.61195 -0.06401,-2.41451c-0.22404,-0.78255 -0.25966,-1.6681 -0.19565,-2.59142c-0.59011,-5.9515 -2.10161,-11.78637 -3.65526,-17.5565c-1.56398,-5.8085 -4.02945,-11.29762 -4.08508,-17.31333c0,0 0,-2.33841 2.26158,-2.49208c-0.12666,-0.42671 -0.27011,-0.85817 -0.43574,-1.29678l-0.15918,-1.21114c0,0 0,-2.5 2.5,-2.5z" fill-opacity="0.1098" fill="#f6d1ff" stroke-width="0.5"></path><path d="M247.46261,252.44776c1.12414,2.15768 2.46071,4.21042 3.97596,6.1584c1.78013,2.28849 4.32536,4.07563 5.85611,6.5978c1.05258,1.73431 1.79744,3.65867 2.98236,5.30539l0.0272,0.12995l0.03825,-0.02186l1.31155,2.29521c0.22304,0.37408 0.35117,0.81131 0.35117,1.27847c0,1.38071 -1.11929,2.5 -2.5,2.5c-0.34826,0 -0.67989,-0.07121 -0.98112,-0.19986l-3.28069,-1.31228l0.04796,-0.1199c-0.26303,-0.09074 -0.52073,-0.19793 -0.77189,-0.32525c-0.93076,-0.4718 -1.17234,-1.65491 -1.6177,-2.65732c-0.94826,-0.56304 -1.18134,-1.72843 -1.18134,-1.72843l-0.00897,-0.05151c-1.14764,-1.52417 -2.32791,-3.02917 -3.67637,-4.3741c-0.92638,-0.92396 -2.20978,-1.45427 -3.08518,-2.42667c-2.14358,-2.38111 -2.28623,-5.76605 -3.93129,-8.36778c-2.17458,-3.43919 -3.41984,-5.78373 -4.83202,-9.66717l-0.95749,-2.23413c-0.1438,-0.31554 -0.22391,-0.66621 -0.22391,-1.0356c0,-1.38071 1.11929,-2.5 2.5,-2.5c0.85068,0 1.60213,0.42489 2.0537,1.07402l2.57999,3.61199c2.11363,-0.39518 2.76088,1.76229 2.76088,1.76229c0.37272,1.25532 0.81482,2.48074 1.32117,3.67629c0.30461,0.51202 0.59284,1.04757 0.86339,1.61037c0.15755,0.32773 0.2765,0.67123 0.37827,1.02168z" fill-opacity="0.1098" fill="#f6d1ff" stroke-width="0.5"></path><path d="M220.69118,229.24708c-0.22131,-0.09743 -0.44352,-0.19303 -0.66694,-0.2872c-0.06131,0.0045 -0.12323,0.00679 -0.18569,0.00679h-2.66667c-3.25385,-0.02846 -8.56925,-0.54299 -10.91408,-3.22513c-2.83095,-3.2382 -1.11408,-9.91455 0.28288,-13.25967c0,0 0.46057,-1.07467 1.48671,-1.43916c-0.01888,-0.61426 -0.01216,-1.21927 0.31115,-1.70853c0,-0.69284 0,-3.86751 0,-3.86751c0,-1.38071 1.11929,-2.5 2.5,-2.5c1.09705,0 2.02905,0.70662 2.36571,1.68954c0.1964,-0.13131 0.3963,-0.25627 0.59889,-0.37245c-0.14071,-0.13952 -0.28223,-0.28775 -0.42455,-0.44497c-0.89448,-0.98809 -0.30838,-2.64976 -0.37337,-3.98099c-0.00454,-0.09297 -0.00754,-0.26779 -0.00929,-0.50487c-0.05204,0.00323 -0.10452,0.00487 -0.15738,0.00487c-1.38071,0 -2.5,-1.11929 -2.5,-2.5v-5l0.05576,0c-0.47203,-2.52778 -0.53639,-5.0422 0.58387,-6.53235c1.059,-1.40867 2.63332,-3.19284 4.3803,-2.96068c0.66651,0.08858 1.24461,0.39306 1.76725,0.81787c0.62686,-2.15715 1.41043,-4.29719 2.33649,-6.43473c0.04572,-0.2002 0.09054,-0.40039 0.13453,-0.60055l-0.25192,-3.77886l0.01219,-0.00081c-0.00552,-0.02737 -0.01096,-0.05476 -0.01634,-0.08216c-1.02845,-5.24606 -0.0424,-10.80798 0.87133,-16.15176c-0.74211,-2.7865 -1.71635,-5.58775 -2.45203,-8.28485c0,0 -0.65779,-2.41191 1.75412,-3.0697c2.41191,-0.65779 3.0697,1.75412 3.0697,1.75412c0.16645,0.6104 0.34427,1.2264 0.52851,1.84663c0.12358,-0.0145 0.25441,-0.02217 0.39291,-0.02217c2.5,0 2.5,2.5 2.5,2.5l-0.01931,0.64342c-0.18748,1.48154 -0.44424,2.90445 -0.69971,4.31575c0.141,0.56269 0.27168,1.12439 0.38856,1.6841c0.96949,0.34401 1.66379,1.26929 1.66379,2.35673v4c0.92357,4.46993 0,10.42406 0,15c0,5.20114 0.22968,9.90726 -1.0882,14.99154c-0.18267,0.70473 -0.43587,1.55185 -0.75451,2.46757c-0.19138,1.42448 -0.46288,2.8696 -0.86874,4.36947c-0.44965,1.66168 -1.54033,6.32988 -3.53835,6.60236c-1.02884,0.14031 -1.84904,0.05291 -2.50598,-0.19766c0.00998,0.49036 0.02476,0.96553 0.08912,1.37559c0.18858,1.20159 -0.24971,4.15873 0.22606,5.60887c0.58214,1.77431 1.35342,3.48164 1.97108,5.2439c0.05516,0.15738 2.06717,4.65991 2.33097,5.01879c0.1514,0.20596 0.31852,0.39911 0.49752,0.58249c2.08034,1.095 3.97992,2.42162 5.98787,3.86096l0.11198,0.56567l0.21179,-0.12102l1.31155,2.29521c0.22304,0.37408 0.35117,0.81131 0.35117,1.27847c0,1.38071 -1.11929,2.5 -2.5,2.5c-0.55242,0 -1.06299,-0.17917 -1.47677,-0.48258l-2.30966,-1.64976l0.01474,-0.02064c-0.04246,-0.02101 -0.08476,-0.04245 -0.12688,-0.06432c-1.89793,-0.98584 -3.37768,-2.30842 -4.58214,-3.83563z" fill-opacity="0.1098" fill="#f6d1ff" stroke-width="0.5"></path><path d="M334.67189,107.13333c0,2.5 -2.5,2.5 -2.5,2.5h-1c-2.49913,-0.00378 -5.29312,-0.02483 -7.73528,0.59408c-1.90095,0.48175 -3.68146,1.46606 -5.62593,1.72052c-3.63895,0.47621 -7.63056,0.67977 -11.30546,0.6854c0,0 -2.5,0 -2.5,-2.5c0,-2.5 2.5,-2.5 2.5,-2.5c3.4989,0.00594 7.23038,-0.24027 10.69454,-0.64794c2.33477,-0.27476 2.63268,-1.01776 5.04074,-1.61281c2.84688,-0.70348 6.0194,-0.73528 8.93138,-0.73925h1c0,0 2.5,0 2.5,2.5z" fill-opacity="0.1098" fill="#f6d1ff" stroke-width="0.5"></path><path d="M329.83855,138.96666c2.5,0 2.5,2.5 2.5,2.5v0.33333c-0.00142,0.37846 0.00208,0.75304 0.00547,1.12458c0.78998,0.4201 1.32787,1.25161 1.32787,2.20875l0,1.54751l0.07539,-0.0116c0.138,-0.02361 0.27987,-0.03591 0.42461,-0.03591c1.38071,0 2.5,1.11929 2.5,2.5c0,0.23025 -0.03113,0.45322 -0.0894,0.66495c0.0607,0.08717 0.12008,0.17285 0.17811,0.2565c0.8097,1.16712 0.73314,2.75478 0.89912,4.16554c0.48445,4.11743 0.20826,9.11558 -1.42087,12.94531c-0.82603,1.94182 -0.89808,4.66812 -2.73297,5.71032c-0.26693,0.15161 -0.52829,0.15821 -0.78756,0.07114c-0.82034,0.77506 -2.19624,1.3584 -4.37716,1.6805c-1.70358,0.2516 -3.35776,-0.76637 -5.03665,-1.14955l-0.21131,-0.18736l-0.03936,0.07872l-2.61822,-1.30911c-0.84561,-0.40086 -1.43041,-1.26228 -1.43041,-2.26029c0,-1.09231 0.70054,-2.02101 1.67684,-2.36132l0.00239,-0.0009c0.00393,-0.34724 0.01287,-0.705 0.02535,-1.07154c0.04097,-1.20331 0.42167,-2.34282 0.89655,-3.46517c-0.45241,0.45243 -1.07743,0.73226 -1.7678,0.73226c-1.38071,0 -2.5,-1.11929 -2.5,-2.5c0,-0.55242 0.17917,-1.06299 0.48258,-1.47677l1.64976,-2.30966l0.04116,0.0294l0.02501,-0.11785c0.55238,-0.64491 1.17888,-1.52752 1.86486,-2.50092c1.19137,-2.82928 4.20928,-4.89749 5.47128,-7.60709c0.65279,-1.40158 0.47173,-3.90473 0.46535,-5.35045v-0.33333c0,0 0,-2.5 2.5,-2.5z" fill-opacity="0.1098" fill="#f6d1ff" stroke-width="0.5"></path><path d="M271.60632,223.23443c-1.55369,1.59305 -2.73536,3.51372 -4.19996,5.18905c-1.30411,0.95089 -2.36078,3.29712 -3.91234,2.85267c-0.39001,-0.11172 -0.73197,-0.30427 -1.03555,-0.55582c-0.03498,0.03283 -0.07028,0.06532 -0.10591,0.09745c-1.34991,1.21738 -3.1253,2.72055 -4.90964,2.37358c-1.47657,-0.28712 -1.57127,-2.56766 -2.43213,-3.8012c-0.55122,-0.78985 -1.43752,-1.36849 -1.79881,-2.26134c-1.15237,-2.84784 -0.54008,-7.3748 -0.54008,-10.32882c0,0 0,-1.24591 0.87955,-1.97863l0.15992,-0.79958c0.20987,-1.16847 1.23166,-2.05512 2.46053,-2.05512c0.39962,0 0.77734,0.09376 1.11236,0.26049c0.32016,-0.16028 0.72047,-0.26049 1.22097,-0.26049c1.48687,0 2.08943,0.88431 2.33361,1.60105c0.73953,0.63959 1.56952,1.22325 1.90245,2.11425c0.05072,0.13573 0.10067,0.27266 0.14957,0.41063c0.35888,0.03462 0.72269,0.05036 1.09032,0.05173c0.07918,-0.05452 0.15847,-0.10615 0.2378,-0.15473c0.81848,-0.50126 1.80017,-0.8034 2.8631,-0.97219c2.34761,-1.59404 5.37246,-2.62506 7.9258,-1.66635c1.23651,0.46428 2.87835,0.98561 3.74191,1.94892l0.08936,0.00002c0.00003,0 0.00006,0 0.00009,0c1.3804,0.00037 2.49931,1.11952 2.49931,2.5c0,1.27327 -0.95187,2.32422 -2.18283,2.48007l-3.16165,0.45166c-1.2831,1.07717 -3.2132,1.29839 -4.38775,2.5027z" fill-opacity="0.1098" fill="#f6d1ff" stroke-width="0.5"></path></g></g></svg>