<svg version="1.1" xmlns="http://www.w3.org/2000/svg" xmlns:xlink="http://www.w3.org/1999/xlink" width="224.95404" height="329.62504" viewBox="0,0,224.95404,329.62504"><g transform="translate(-128.666,-15.59998)"><g stroke-miterlimit="10"><g stroke-opacity="0.28235" stroke="#b39ed9" stroke-width="4.5"><path d="M278.46918,23.45543c-0.72134,1.9159 -1.07665,3.93378 -1.84924,5.85128c-0.26555,0.65908 -0.65304,1.16156 -1.05359,1.63247c-0.02303,0.03896 -0.04647,0.07766 -0.07031,0.11606c-0.17308,0.27876 -0.37661,0.6377 -0.61802,0.96471c-0.02202,0.09878 -0.06609,0.22497 -0.15428,0.3344c-0.29141,0.81098 -0.58958,1.62184 -0.90353,2.42274c1.60706,-0.82109 3.45529,-1.43054 5.0861,-1.61604l-0.04854,-0.29125l0.98606,-0.16434c0.04449,-0.00823 0.09037,-0.01253 0.13724,-0.01253c0.41422,0 0.75,0.33579 0.75,0.75c0,0.24849 -0.12085,0.46876 -0.30698,0.60524l-0.59567,0.44675c-0.04715,0.06233 -0.09547,0.12385 -0.14493,0.18454c0.03076,0.08197 0.04759,0.17075 0.04759,0.26347c0,0.24849 -0.12085,0.46876 -0.30698,0.60524l-0.65969,0.49476l-0.01985,-0.02647l-0.06271,0.08029c-3.69389,1.49099 -6.5815,3.28019 -9.79959,5.69105c-0.08661,0.10441 -0.21438,0.19247 -0.40292,0.22501c-0.9012,1.51647 -1.363,3.55069 -2.03059,5.10806c-1.11442,2.59972 -2.59342,4.72103 -3.58675,7.36805c-0.36356,0.84889 -0.7272,1.69774 -1.09095,2.54655c0.0005,0.03225 0.00009,0.06384 -0.00108,0.09461l0.00005,-0.00009c0,0 0,0.10831 -0.0291,0.26673c-0.02837,0.15854 -0.0664,0.25996 -0.0664,0.25996c-0.00015,0.0004 -0.0003,0.0008 -0.00045,0.0012c-0.01538,0.04613 -0.03321,0.09349 -0.0539,0.14129c-1.17561,3.06685 -2.82661,6.41958 -4.44777,9.27503l-0.20236,0.40763c0,0.93843 0,1.87687 0,2.81531c0.57319,0.33501 1.05487,0.76292 1.51659,1.45216c1.96805,-1.41817 3.76703,-3.24331 6.10907,-4.04233c6.26869,-2.13863 14.40071,-0.44938 19.43462,3.67069l0.61249,0.81953c2.89738,-2.85283 5.41131,-6.08491 8.42152,-8.78009c1.28638,-1.15176 2.89975,-1.28103 4.1942,-2.39473c1.23462,-1.23531 2.32481,-2.94467 3.88154,-3.80277c1.04269,-0.57476 2.30802,-0.70021 3.30894,-1.34496c1.8108,-1.16642 2.98836,-3.14042 4.76549,-4.37673c0.24059,-0.16737 0.48194,-0.33505 0.72389,-0.50306c0.1512,-1.18912 0.70525,-1.6549 1.46104,-1.73066c0.87585,-2.6251 1.0614,-5.29187 2.36104,-7.87575l0.14912,-0.74564c0.03539,-0.19703 0.14773,-0.36735 0.30481,-0.47874c0.01085,-0.29563 0.01669,-0.59155 0.01669,-0.88779c0,0 0,-0.75 0.75,-0.75c0.75,0 0.75,0.75 0.75,0.75c0,0.95094 -0.06234,1.90007 -0.15821,2.84761c0.45898,1.3754 0.69697,2.79325 0.88312,4.23374c0.86638,-0.64872 1.71979,-1.30834 2.55182,-1.98141c0.51877,-0.77094 1.09484,-1.52097 1.90196,-2.19855c0,0 0.56341,-0.46951 1.23062,-0.35798c0.35156,-0.54903 0.69919,-1.04618 1.0646,-1.50379c0.04902,-0.13624 0.14176,-0.28952 0.31721,-0.38185c1.01558,-1.17374 2.20479,-2.08625 3.99102,-2.97758l0.71225,-0.47483c0.12072,-0.08304 0.26696,-0.13165 0.42456,-0.13165c0.41422,0 0.75,0.33579 0.75,0.75c0,0.26446 -0.13688,0.49695 -0.34365,0.63049l-0.74032,0.49354l-0.01455,-0.02184l-0.02503,0.04648c-0.06559,0.0329 -0.13027,0.06576 -0.19406,0.09862c-0.28132,0.5592 -1.12595,0.90449 -1.58635,1.45795c-1.24659,1.49856 -2.01356,3.08658 -3.15359,4.50034c-0.14528,0.46249 -0.49624,0.76331 -0.49624,0.76331c-0.58949,0.49681 -1.18836,0.98848 -1.7949,1.47523c-0.63784,0.9703 -1.17619,1.98747 -2.03458,2.95351c2.32811,0.50111 4.48158,1.02864 6.96434,1.02864c0,0 0.47106,0 0.66654,0.37332l0.92861,0.13266c0.36929,0.04675 0.65485,0.36204 0.65485,0.74402c0,0.41421 -0.33578,0.75 -0.75,0.75h-0.77765c-1.74709,0.34913 -3.54322,0.47883 -5.34718,0.57681c-0.07931,0.22128 -0.25967,0.39445 -0.48546,0.46389l-0.7336,0.24453c-0.32269,0.10377 -0.64339,0.16657 -0.96308,0.20302c-0.77059,0.64301 -1.93135,1.30848 -2.41814,1.5787c-2.45961,1.3653 -4.6972,2.71652 -6.42391,5.11983l-0.27644,0.00933l0.0263,0.10522l-0.98369,0.24592c-0.05806,0.01587 -0.11895,0.02494 -0.18172,0.0263c-1.303,1.83532 -2.66949,3.62522 -3.70484,5.70102l-1.14475,0.88627c-1.66075,3.28851 -3.90155,7.83947 -6.30941,10.47605c-0.66271,0.72566 -1.69441,1.07759 -2.28476,1.86323c-1.20835,1.60805 -1.60185,3.71664 -2.97062,5.35917l-0.5666,1.00059c-0.01916,0.0483 -0.03772,0.097 -0.05569,0.14608c2.16331,2.28203 2.06093,5.45297 1.23019,8.55477c0.05478,0.02314 0.11039,0.04689 0.16683,0.07125c0.70179,0.3028 0.8245,1.18972 1.0082,2.01512c1.40988,0.29028 2.78073,0.72003 4.23719,1.40587c1.80597,0.85044 3.53401,2.51689 5.42213,3.12776c1.60305,0.51864 3.0064,1.0617 4.31142,1.72455c0.67576,-0.44782 1.48505,-0.04316 1.48505,-0.04316l1.58984,0.88098c1.42607,1.42607 2.10744,2.08839 2.55764,3.09494l0.29293,-0.16274l0.68327,1.22988l0.00549,-0.00141c7.1524,0.01376 14.37443,-3.86129 19.5885,-8.60764c1.56178,-1.42168 3.54544,-2.01591 4.85917,-3.65265c0,0 0.05321,-0.06385 0.14962,-0.14898l0.4585,-0.59311c2.48686,-1.39025 4.91064,-6.31408 7.86987,-6.52066c0.09868,-0.00689 0.19712,-0.00962 0.29537,-0.00874l-0.00708,-0.05666l1.57653,-0.19706c0.06847,-0.00957 0.13842,-0.01452 0.20952,-0.01452c0.82842,0 1.5,0.67158 1.5,1.5c0,0.46723 -0.21362,0.88457 -0.54852,1.15967l-1.1135,0.92791c-0.20763,0.24768 -0.39907,0.51037 -0.574,0.78416c0.02359,0.10565 0.03602,0.2155 0.03602,0.32826c0,0.27416 -0.07355,0.53114 -0.202,0.75229l-0.98677,1.77618l-0.02246,-0.01248c-0.00975,0.03345 -0.01983,0.06683 -0.03023,0.10014c-0.40598,1.30052 -1.63414,2.5218 -2.57142,3.80749c-0.42017,0.74197 -0.80409,1.48803 -1.13011,2.21553c-0.51063,1.13947 -0.76754,2.91025 -1.51491,4.0018c-0.7267,1.06136 -1.65597,1.89611 -2.59548,2.72241c-1.65074,2.053 -3.56984,3.90492 -5.71279,5.61052c-1.4835,1.18074 -2.50383,2.95502 -4.17974,3.9228c-0.81141,0.46856 -1.73672,0.8051 -2.66192,1.14138c-0.36407,0.21641 -0.75189,0.4094 -1.17466,0.56985c-0.59182,0.22462 -1.2001,0.38932 -1.81682,0.52187c-2.94199,2.312 -6.58256,3.28973 -9.97485,4.79789c0.98393,0.96299 1.81059,2.03121 2.87831,3.1892c0.95083,1.03123 1.84039,1.07944 2.59758,2.45944c0.83443,1.52077 0.91544,3.46829 2.04372,4.78585c0.88678,1.03555 2.1471,1.68254 3.17769,2.57509c0.75187,1.04308 1.26519,2.24992 2.0555,3.26418c1.17696,1.51048 3.01132,2.03691 4.23368,3.64282c0.23996,0.31527 0.45103,0.61612 0.64632,0.90512c0.71302,0.44888 1.42418,0.89414 2.06852,1.40859c1.35078,1.07849 2.17655,2.6859 3.24952,4.04107c1.26691,1.60011 3.20314,2.26657 4.53284,3.72352c0.89972,0.98583 1.7477,2.28781 2.47334,3.68859c0.27118,-0.10866 0.52768,-0.20328 0.75946,-0.28415l1.07434,-0.07697c0,0 1.5,0 1.5,1.5c0,0.66386 -0.29381,1.03391 -0.62135,1.24018c0.54237,0.81555 0.87509,1.84253 0.9977,3.09449c0.0926,0.94556 0.5083,2.04636 0.00191,2.85023c-1.0059,1.59685 -4.65756,1.60595 -6.27825,1.3151c-0.86626,-0.15546 -2.14839,0.05358 -2.72341,-0.50112c-0.4317,0.12944 -0.77593,0.22539 -0.93015,0.26057c-0.11602,0.02647 -0.23218,0.05248 -0.34846,0.07806c-0.72719,0.3093 -1.45479,0.61505 -2.18156,0.92283c-1.91764,0.97567 -3.95267,1.82437 -5.90797,2.68009c-0.72623,0.36736 -1.44809,0.7527 -2.16424,1.16193c-2.00377,1.14489 -4.01593,2.41277 -6.07636,3.44075c-1.75847,0.87733 -3.76071,1.44383 -5.64008,2.20831c-0.28477,0.14691 -0.56934,0.29179 -0.85374,0.43438c-0.16368,0.05475 -0.32715,0.11003 -0.49039,0.16584c-0.66946,0.33172 -1.30951,0.70805 -1.90125,1.15525c-4.86606,3.67753 -10.14221,6.33059 -15.17414,9.75446c-0.86356,0.58759 -1.77889,1.14561 -2.71133,1.68289l0.82013,0.81858c0.29822,0.18527 0.46295,0.46255 0.55395,0.71237c0.11214,0.24067 0.19166,0.55269 0.11234,0.89402c0.00056,0.51839 0.00172,1.06045 -0.02374,1.60567l0.17446,-0.01745l0.008,0.07993c0.12186,-0.02799 0.24489,-0.05155 0.36929,-0.06994c1.13797,-0.16826 2.17423,0.76961 3.29737,1.01828c5.79547,1.28319 10.03555,4.95835 15.83841,6.40906l1.06825,0.60714c0,0 1.162,0.77466 0.49609,1.95026c0.10974,0.20845 0.17185,0.44588 0.17185,0.69781c0,0.77221 -0.58353,1.40814 -1.33369,1.49089l-1.58025,0.19753l-0.00462,-0.03689l-0.08823,0.04557c-0.08349,-0.00046 -0.16667,0.0001 -0.24955,0.00165l-0.24021,0.21619l-0.17983,-0.19981c-0.02157,0.00127 -0.04311,0.00262 -0.06464,0.00402c-1.53058,1.64467 -3.29781,2.96646 -5.63196,3.88522c-2.06957,0.81461 -4.14857,0.22828 -6.18022,1.10054l-1.69768,1.13179c-0.24144,0.16609 -0.53392,0.2633 -0.84911,0.2633c-0.82842,0 -1.5,-0.67157 -1.5,-1.5c0,-0.33145 0.10751,-0.6378 0.28954,-0.88606l0.98986,-1.3858l0.06377,0.04555c0.06248,-0.11545 0.13158,-0.22763 0.20853,-0.3359c0.04704,-0.06618 0.38836,-0.23745 0.86366,-0.45328c0.05452,-0.37896 0.25071,-0.71215 0.53316,-0.94417l1.1912,-0.99267l0.11862,0.14235c0.60302,-0.8096 1.24469,-1.55194 2.03998,-2.45602c-3.69942,-1.08756 -6.62744,-3.52441 -10.26906,-4.50776c0.19326,2.4723 -0.36222,4.878 -2.36899,6.72609l-0.11221,0.27972c0,0 -0.62097,0.93147 -1.5947,0.64855c-0.0797,0.06304 -0.1608,0.12395 -0.2433,0.18261c-0.35899,0.87421 -0.75042,1.70751 -1.2117,2.45628l-0.49075,0.06494l0.08326,0.19428l-1.36952,0.58694c-0.18932,0.08628 -0.39973,0.13435 -0.62136,0.13435c-0.40277,0 -0.76846,-0.15875 -1.03793,-0.41709c-0.88851,0.26021 -1.53337,-0.54587 -1.53337,-0.54587l-0.93106,-1.19284c-0.16549,-0.29488 -0.32023,-0.59663 -0.46394,-0.90394c-0.52679,0.68293 -1.06353,1.34109 -1.63274,1.9579c-0.39429,1.19185 -0.84589,2.35309 -1.39139,3.46481c-0.18129,0.95654 -0.40558,1.89119 -0.716,2.7839c-0.37167,1.06884 -0.94621,2.05124 -1.54116,3.02444c-0.44139,2.3625 -0.90946,4.71831 -1.70839,6.97429c-0.50843,1.43567 -1.45481,4.39375 -2.78446,5.98541c5.6594,4.09172 11.01944,8.45777 16.3859,13.03357c0.06048,-0.00742 0.12207,-0.01125 0.18456,-0.01125c0.22854,0 0.44513,0.05111 0.63899,0.14252l1.47022,0.65343l-0.05115,0.11509l0.29115,0.01916c4.96118,4.85181 9.00191,9.60863 12.00797,15.93099c1.08892,2.29022 1.98856,4.56576 3.01585,6.86815c0.20834,0.46693 0.52247,0.94191 0.79215,1.43899c1.65803,1.13563 3.13463,2.14562 4.07443,4.36468l-0.06912,0.28366h0.09618v1.66666c0,0.10843 -0.01151,0.21418 -0.03337,0.31609c0.02093,0.31831 0.03192,0.65688 0.03337,1.01725v2c0,0 0,1.5 -1.5,1.5c-1.5,0 -1.5,-1.5 -1.5,-1.5v-2c0.00002,-0.0051 0.00757,-0.24408 0.01153,-0.57468l-0.74487,-0.55865l0.26089,-0.34785c-0.36237,-0.27143 -0.70468,-0.56601 -1.01821,-0.88488c-0.2264,0.13714 -0.49199,0.21607 -0.77601,0.21607c-0.54568,0 -1.02329,-0.29137 -1.28576,-0.72702l-0.81714,-1.30743c-1.37083,-2.15404 -3.10535,-4.18015 -4.36647,-6.38861c-0.05428,-0.09506 -0.10828,-0.19034 -0.16201,-0.28584l-0.26373,-0.14652l0.03977,-0.07159c-0.1352,-0.05863 -0.26703,-0.12546 -0.39476,-0.20229c-1.00883,-0.60678 -1.03601,-2.1561 -1.84451,-3.0118c-1.9539,-2.06795 -3.71143,-4.08889 -5.54254,-6.21404c-2.64479,-3.0695 -6.1805,-4.88188 -9.06032,-7.55517c-2.05039,-1.90334 -4.11701,-3.97413 -6.10235,-5.94021c-0.6144,-0.8192 -1.17933,-1.31446 -1.75756,-1.69342c-0.25465,0.45883 -0.56002,0.91812 -0.66966,1.40261c-0.2083,0.92054 -0.26204,1.97013 -0.26473,3.0251c0.01346,0.12902 0.02758,0.25769 0.04236,0.38611c0.43601,0.52695 0.83622,1.07523 1.11911,1.69357c1.67284,3.65649 1.38033,8.92047 1.38033,12.86157c0,0 0,1.25004 0,1.25012c-0.01243,7.06929 0.72298,14.26772 0.24623,21.3562c-0.22116,3.28818 -1.04597,6.65863 -0.99623,9.89367l-0.24998,1.15652c0.00088,4.161 0.03139,8.76118 -0.76938,12.83375c-0.66866,3.40069 -1.75919,6.73441 -2.79726,10.07861c0.06662,0.243 0.06662,0.43113 0.06662,0.43113l-0.00377,1.60633c-0.42483,2.94984 -1.3913,5.76031 -2.60886,8.41568c-0.37163,1.8541 -1.16631,3.59618 -1.13737,5.47799l-0.29479,0.84522c-0.02494,0.11275 -0.05071,0.18147 -0.05071,0.18147c-0.43865,1.15473 -0.94561,2.30592 -1.65449,3.31732v1.15599c0,0.82842 -0.67158,1.5 -1.5,1.5c-0.82842,0 -1.5,-0.67158 -1.5,-1.5v-1.75h0.14156l-0.07719,-0.18468c0.02342,-0.03722 0.04672,-0.07452 0.06991,-0.1119c-0.86824,-0.83504 0.31816,-2.33638 0.99637,-3.81567c0.42909,-0.93592 0.62397,-1.96446 0.88368,-2.96812c-0.59006,-0.20182 -1.01432,-0.76118 -1.01432,-1.41962c0,-0.09375 0.0086,-0.18549 0.02506,-0.27447l0.24536,-1.47213l0.08276,0.01379l-0.04266,-0.18896c0.35967,-0.85129 0.69528,-1.70817 1.00954,-2.57015c0.20391,-2.15155 1.28536,-4.5405 1.72138,-6.35819c1.13329,-4.72441 1.6153,-9.78019 2.21981,-14.58316c0.18335,-1.45678 0.43492,-2.89459 0.71252,-4.32459c0.00016,-2.88828 -0.07246,-5.78071 0.2852,-8.6558c0.75518,-6.07069 1.52819,-12.4103 -0.20124,-18.42424c0,0 -0.0225,-0.07874 -0.03858,-0.20468c-0.01914,-0.12552 -0.01914,-0.2074 -0.01914,-0.2074v-0.5c0,-5.58384 0.38393,-11.32707 0.00378,-16.89367c-0.00794,-0.11626 -0.02068,-0.23388 -0.03764,-0.35272c-0.4787,0.04215 -0.88696,-0.16197 -0.88696,-0.16197l-1,-0.5c-0.9512,-0.476 -3.39812,-1.61938 -3.87654,-2.33875c-0.25689,-0.38626 -0.37568,-1.12996 -0.38082,-2.01008c-1.34049,-2.74037 -0.28614,-3.9264 1.50689,-6.17985l0.41701,-0.52126c0.06336,-1.92966 0.12099,-3.89084 1.00983,-5.54307c-2.60873,-1.79052 -5.27134,-3.49398 -8.08719,-4.99609c-4.02439,-2.14682 -9.10493,-2.84481 -12.45081,-6.03009c-0.03458,-0.04999 -0.06896,-0.10018 -0.10311,-0.15057c-2.9386,-1.5644 -5.74938,-2.79474 -9.20049,-3.88349c-1.21224,-0.38243 -4.32527,-0.78647 -6.27878,-1.4924c-0.14472,0.47519 -0.51898,0.85035 -0.99363,0.99632l-1.96719,0.65573l-0.06296,-0.18887l-0.41138,0.26585c-0.95747,-0.46489 -2.38999,-0.4459 -2.87242,-1.39465c-0.60897,-1.19762 1.17455,-3.50707 1.79101,-4.4374c0,0 0.4642,-0.69629 1.21923,-0.70201l0.24262,-0.40435l0.17145,0.10287c0.18433,-0.21142 0.36429,-0.42711 0.54014,-0.64676c0.00114,-0.01492 0.00234,-0.02984 0.00363,-0.04476c0.19639,-2.27808 3.10365,-5.55007 4.30932,-7.45085c0.00636,-0.01004 0.01273,-0.02008 0.01909,-0.03012c0.08159,-0.18274 0.16245,-0.36578 0.24267,-0.549c-0.20851,-0.25763 -0.33339,-0.58571 -0.33339,-0.94296c0,-0.30032 0.08826,-0.58004 0.24026,-0.81461l0.80583,-1.28932c1.04875,-1.88717 2.0075,-6.34129 4.01756,-7.51344c0.02614,-0.04968 0.05165,-0.09963 0.07647,-0.14986l-0.21647,-0.07872l0.19478,-0.53563l-0.51242,-0.51242l1.33333,-1.33333c0.07474,-0.07474 0.15733,-0.14163 0.24643,-0.19932c-0.01257,-0.07815 -0.0191,-0.15833 -0.0191,-0.24002c0,-0.38483 0.14492,-0.7358 0.38316,-1.00134l0.48594,-0.54668l0.15813,-0.73795c0.09721,-0.50356 0.44625,-0.91738 0.91087,-1.10522c0.77427,-1.48597 1.58569,-2.94975 2.42634,-4.41516c-4.58711,-2.07757 -9.71543,-2.61098 -14.62625,-3.78412c-2.23039,-0.53281 -4.40488,-1.46722 -6.56974,-2.46146c-1.17578,1.5288 -2.11579,3.2122 -3.77139,4.46547c-2.59993,1.96813 -4.55057,4.26997 -6.74114,6.56472c-0.23132,0.45955 -0.48718,0.96445 -0.83009,1.55653c-0.56346,0.97288 -1.22116,1.87061 -1.87788,2.76948c0.29061,0.27356 0.47206,0.66179 0.47206,1.0924l-0.00011,-0.00007c0,0.12302 -0.01481,0.24257 -0.04274,0.35698l-0.39298,1.76842l-0.04075,-0.00905l0.01439,0.11075c-0.54593,1.45959 -1.56991,2.99081 -1.74915,4.55619c-0.21568,1.88351 0.63607,4.36775 0.00612,6.14045c-0.01406,0.03956 -0.02845,0.07897 -0.04317,0.11823l0.02787,0.00464l-0.39594,2.37568c-0.02711,0.18246 -0.08707,0.3542 -0.17367,0.50901c0.01764,0.82165 0.04928,1.88819 0.01373,2.96253c0.11251,0.21045 0.17629,0.45087 0.17629,0.70618v1.6h-0.08134l0.07011,0.18327c-0.19174,0.78601 -0.35577,1.44355 -0.526,2.01654l1.25477,-0.83652c0.24143,-0.16608 0.53392,-0.2633 0.84911,-0.2633c0.82843,0 1.5,0.67157 1.5,1.5c0,0.46723 -0.21362,0.88457 -0.54852,1.15967l-1.07908,0.89924c-1.69834,2.41678 -3.4951,4.8221 -5.06132,7.31364c-0.13617,0.3917 -0.40901,0.61797 -0.67879,0.74868c-0.27819,0.17481 -0.65567,0.2919 -1.11294,0.14651l-0.74602,-0.06324c-3.36098,-1.3248 -7.42893,-0.55286 -10.99871,-1.34021c0,0 -0.83627,-0.18584 -1.1044,-0.90862c-0.20862,0.04492 -0.42113,0.08892 -0.63694,0.13221c-0.90462,-0.72563 -0.48346,-1.34573 0.19042,-1.80326c-0.01529,-0.22794 -0.02337,-0.45621 -0.02369,-0.68462v-1.48358c-0.04889,-0.28894 -0.0599,-0.57891 -0.0276,-0.8564c0.02669,-0.22924 0.11013,-0.45462 0.23851,-0.67617c-0.00115,-0.01153 -0.00231,-0.02306 -0.00347,-0.03459c0,0 -0.04761,-0.47607 0.17982,-0.91736l0.15529,-1.39755l0.01418,0.00158c-0.002,-0.022 -0.00386,-0.04402 -0.0056,-0.06606c-0.24543,-3.1153 2.23887,-6.16865 3.28984,-8.92775c0.52746,-1.38472 0.9968,-2.72846 1.51194,-4.01803c0.18428,-1.05219 0.50266,-2.06793 1.27337,-2.79181c0.0492,-0.09215 0.09913,-0.18393 0.14983,-0.27532c-0.02793,-0.11441 -0.04274,-0.23396 -0.04274,-0.35697c0,-0.22163 0.04807,-0.43204 0.13435,-0.62136l0.58694,-1.36952l0.06825,0.02925c0.02606,-0.1079 0.05808,-0.21469 0.09704,-0.32019c0.2211,-0.59878 0.75989,-1.15312 1.44204,-1.68115c0.21242,-0.32351 0.41571,-0.65291 0.61028,-0.98668c2.53206,-2.25469 3.6209,-4.65513 5.86647,-7.07591c0.80918,-0.87232 2.02711,-1.30685 2.80597,-2.20633c3.07496,-3.55122 5.85242,-7.30129 9.23539,-10.6361c0.53623,-0.5286 1.12268,-0.95353 1.73295,-1.33109c-0.73133,-0.30186 -1.46542,-0.58215 -2.20401,-0.82788c-0.00001,0 -0.00001,-0.00001 -0.00001,-0.00001c0,0 -0.0038,-0.00127 -0.01095,-0.00387l-0.78553,-0.27751c-4.69936,-2.35676 -9.46153,-4.80586 -14.27158,-6.94314c-7.5999,-2.5333 -15.19021,-7.1908 -21.55184,-11.9942c-2.11264,-1.59516 -4.12942,-1.69407 -5.74202,-3.01714c-0.37108,-0.14991 -0.58274,-0.42705 -0.70346,-0.69442c-0.37718,-0.44657 -0.7252,-0.99894 -1.03899,-1.70185c0,0 -0.00545,-0.01272 -0.01408,-0.03623c-1.55175,-2.13346 -2.93475,-4.42566 -4.71484,-6.34315c-2.63793,-2.84154 -5.49783,-5.6287 -7.65238,-8.86052c-5.34298,-5.31694 -11.11663,-10.00111 -16.82605,-14.82064c-2.16155,-1.82464 -3.82363,-4.18382 -6.1044,-5.83117c-0.0365,-0.00002 -0.07301,0.00025 -0.10954,0.00083c0,0 -1.08984,0 -1.41159,-0.92896c-0.0197,-0.00986 -0.03944,-0.01966 -0.05923,-0.0294c0,0 -0.32788,-0.16394 -0.57842,-0.49182c-0.38517,-0.13747 -0.78902,-0.26532 -1.21845,-0.39308c0,0 -1.43674,-0.43103 -1.00572,-1.86777c0.43102,-1.43674 1.86776,-1.00571 1.86776,-1.00571c1.65068,0.49883 3.01865,1.05033 4.33635,1.92112c3.40609,0.67155 6.46818,2.86203 9.44301,4.61056c3.17706,1.8674 6.90678,2.88196 9.89661,5.06336c3.19513,2.33119 5.58302,4.10267 9.3482,5.25516c8.11548,5.02118 15.97502,10.31335 24.02865,15.39678c4.44486,1.79278 8.01331,4.3862 12.2828,6.65936c1.90832,1.01603 4.0798,1.41272 5.9267,2.6791c0.99293,0.68083 1.72325,1.70683 2.73598,2.35784c2.28527,1.46905 4.92447,2.17111 7.18106,3.7884c1.0393,0.51964 2.04095,1.12135 2.99196,1.78943c0.23296,-0.00089 0.39813,0.04041 0.39813,0.04041c0.00015,0.00004 0.0003,0.00007 0.00045,0.00011c2.58097,0.65465 4.27675,1.89805 6.36992,3.03696c0.00574,-0.01164 0.01164,-0.0232 0.01768,-0.03467l0.7365,-1.47301l0.05149,0.02574l0.04053,-0.18464c0.10139,-0.11766 0.19875,-0.23572 0.29244,-0.35414c0.04879,-0.81946 0.75024,-1.49124 1.11554,-2.23696c0.90153,-1.84036 1.92261,-3.47799 2.98661,-5.1752l0.05266,-0.39819c0.40069,-0.68276 0.84524,-1.23632 1.28412,-1.76808c1.44635,-2.43313 2.7441,-4.98081 4.01707,-7.36068c0.97705,-2.4193 1.85428,-4.92776 2.88046,-7.23624c0.97062,-2.18347 2.78482,-4.47722 3.57369,-6.73401c0.22625,-1.65883 0.6247,-3.29505 1.10875,-4.91704c0.07644,-0.31643 0.16063,-0.62939 0.25651,-0.937c0.11535,-0.37006 0.24619,-0.73582 0.39131,-1.09689c0.68222,-2.0336 1.4429,-4.0501 2.10805,-6.06635c-3.17445,-3.59914 -6.58544,-6.69211 -8.86896,-11.12677c-0.12713,-0.19137 -0.19626,-0.39708 -0.23384,-0.56421c-0.00808,-0.03268 -0.01574,-0.06724 -0.02262,-0.1034c-1.45616,-2.47853 -3.27928,-4.53219 -4.14985,-7.38c-1.05378,-3.4471 -0.67232,-7.49086 -0.67232,-11.06013c0,0 0,-1.5 1.5,-1.5c1.5,0 1.5,1.5 1.5,1.5c0,0.1415 -0.00047,0.28338 -0.00131,0.42561c0.76116,3.18055 3.00096,6.05563 3.94149,9.35501c0.24178,0.84816 0.57858,1.73882 1.21309,2.35138c0.23917,0.2309 0.5381,0.39972 0.78805,0.61729c1.35992,-4.78237 2.02448,-9.98567 4.94182,-14.22636c0.62016,-0.90148 1.49912,-1.86707 2.3761,-2.80724l0.39433,-1.31444c0.10155,-0.36919 0.34067,-0.6814 0.65877,-0.87806c-1.09803,-3.51929 -4.71742,-7.1127 -6.1779,-10.30249c0,0 -0.37043,-0.81495 0.09061,-1.47189l0.01972,-0.51262c0.13333,-0.53333 0.26667,-1.06667 0.4,-1.6c0,0 0.01157,-0.04626 0.03882,-0.12022l0.11403,-0.66019c3.35628,-5.82969 6.24279,-11.80647 10.0659,-17.30499c1.3528,-1.94565 3.43108,-3.30031 4.88004,-5.23676l0.05406,-0.25825c1.19948,-2.08304 2.46902,-4.14002 3.79857,-6.16239c-0.13218,-3.12443 -0.63516,-6.23063 -0.63516,-9.41379c0,0 0,-0.27516 0.16667,-0.49215v-0.50785c0,-0.41421 0.33578,-0.75 0.75,-0.75c0.36866,0 0.6752,0.26599 0.73816,0.61653l0.16394,0.81971l-0.00508,0.00101l0.00735,0.01086c0.00858,0.0522 0.01747,0.10496 0.02665,0.15828c1.32029,0.565 1.92823,2.89175 2.40859,4.33392c1.00333,-1.3749 2.03199,-2.72901 3.08249,-4.05935c0.44333,-0.92287 1.04077,-1.77681 1.39569,-2.73726c0,0 0.52668,-1.4045 1.93118,-0.87781c0.06994,0.02623 0.13509,0.05462 0.19575,0.08492c0.06549,-0.15512 0.13129,-0.31015 0.19754,-0.465c0.17663,-0.68624 0.37764,-1.34609 0.66709,-1.93245c0.21376,-0.43303 0.45348,-0.79646 0.70029,-1.12392c0.01526,-0.03924 0.03068,-0.07845 0.04627,-0.11761c0,0 0.08869,-0.22173 0.2911,-0.36491c0.24393,-0.4311 0.50294,-0.8559 0.78122,-1.27257c0.39681,-0.59416 0.52904,-1.09429 0.8587,-1.42256c0.05037,-0.23355 0.08596,-0.48704 0.10409,-0.76531l0.34708,-0.11737l-0.10185,-0.15277l0.74147,-0.49431c0.12072,-0.08304 0.26696,-0.13165 0.42456,-0.13165c0.41422,0 0.75,0.33579 0.75,0.75c0,0.17158 -0.05761,0.32969 -0.15454,0.45606l-0.66149,0.88199c-0.03013,1.63881 -1.20142,2.41261 -2.11479,3.51738zM334.46626,163.47319c1.06149,-0.39219 2.12091,-0.52217 3.17991,-0.74343c0.13263,-0.495 0.28938,-0.96608 0.4669,-1.43394l-0.01481,-0.00186l0.15865,-1.26919c-0.91006,-1.07949 -1.52673,-2.26567 -2.53089,-3.2841c-1.20461,-1.22173 -2.7817,-1.27817 -3.8984,-2.70851c-0.96641,-1.23784 -1.65142,-2.81336 -2.4951,-4.21286c-2.27704,-1.71068 -3.69709,-3.72993 -5.75735,-5.63165c-2.3229,-2.14416 -4.91694,-4.83637 -7.47658,-6.69879c-0.9835,-0.71561 -2.21689,-1.07861 -3.11762,-1.89594c-1.95427,-1.77334 -3.55782,-3.24491 -5.53253,-4.49186c-1.72069,1.45163 -3.25743,2.90222 -4.17393,5.35565l-0.42527,0.53398c-0.58165,2.24401 -1.4094,4.78157 -2.7817,6.64262c-0.81801,1.10935 -1.92825,1.83811 -3.03383,2.57491c-0.27149,0.77209 -0.46148,1.58863 -0.96328,2.22124c-1.28709,1.62263 -3.37666,2.19369 -5.04964,3.19915c-2.61639,1.57244 -4.99798,3.13621 -7.79321,4.00225c-1.12427,2.61683 -2.22389,5.10092 -3.65074,7.63551c-0.17924,0.31839 -0.37326,0.63238 -0.57502,0.94437c8.12905,0.31436 16.69463,0.76194 24.22331,-1.11561c0.27373,-0.19584 0.70933,-0.39943 1.22083,-0.24532c0.27882,0.05784 0.56842,0.2114 0.80662,0.5436c0.26881,0.30796 0.35195,0.62504 0.3444,0.90969c0.02825,0.45836 -0.18797,0.80159 -0.41016,1.02969c-2.18724,2.62903 -3.02576,6.02991 -5.14294,8.73107c-2.64325,3.37231 -5.09421,6.71679 -7.91619,9.74898c-0.20056,0.66402 -0.37895,1.33418 -0.55377,2.00439c0.92931,-1.01402 1.83664,-2.05979 2.99987,-2.79783c3.19554,-2.0275 6.91995,-3.03121 10.04531,-5.22809c5.02086,-2.51855 9.81296,-5.17156 14.94334,-7.47521c1.54009,-0.69153 2.93457,-1.79242 4.56952,-2.26547c0.51056,-0.14773 1.0305,-0.28124 1.55668,-0.40393c2.9099,-1.44183 5.77418,-3.06379 8.77762,-4.17348zM273.44014,212.13039c0.02973,-0.13113 0.06058,-0.26126 0.09251,-0.39045c-0.00478,0.00736 -0.00964,0.01474 -0.01457,0.02213c-0.26099,0.39148 -0.56291,0.57831 -0.8544,0.65034c-0.28883,0.08208 -0.64366,0.06967 -1.06449,-0.14075c-0.12701,-0.0635 -0.23598,-0.13302 -0.32919,-0.20684l-1.16026,-0.78247c-0.85724,-0.71574 -1.67574,-1.47834 -2.47046,-2.26332c-0.3001,-0.18527 -0.46564,-0.46357 -0.55695,-0.71422c-0.11215,-0.24069 -0.19168,-0.55276 -0.11232,-0.89412v-0.68068c0.00888,-1.40921 0.39639,-2.79051 0.61124,-4.18327c0.41217,-2.67196 0.19985,-4.72202 0.61165,-6.89c-0.56946,-0.05197 -0.98355,-0.46606 -0.98355,-0.46606l0.18984,0.08098c-3.88984,-1.94672 -8.69135,-4.32389 -12.99681,-5.06571c-0.62276,-0.1073 -1.23537,-0.19511 -1.84125,-0.27613c-0.5053,0.48322 -1.0116,0.96553 -1.51786,1.44787c-1.06384,1.22115 -2.0913,2.47518 -3.092,3.75208c-1.99673,3.14992 -4.04471,6.24892 -6.09103,9.33378c-0.86873,1.30962 -1.18629,2.92109 -1.9693,4.28369c-1.65682,2.88318 -3.50798,5.84779 -5.77552,8.33988c1.71079,0.50885 3.41188,1.10725 4.88615,1.92192c0.49612,0.27415 1.88387,1.51275 2.5466,1.77277c1.00792,0.39544 2.06877,0.69565 3.15065,0.95942c0.10327,-0.07396 0.22434,-0.13649 0.3663,-0.18145c0.36378,-0.15903 0.69812,-0.1263 0.97015,-0.02776c0.43574,0.10548 0.69315,0.36769 0.84522,0.64069c0.02409,0.02713 0.04839,0.05405 0.07291,0.08076c2.12587,0.46841 4.24816,0.95198 6.13385,1.87992c4.54976,2.23892 9.00521,3.97015 13.71107,5.85575c0.31272,0.20718 0.6243,0.41519 0.9348,0.62403c0.45335,-5.32454 2.69666,-10.48504 5.19771,-15.3976c0.14393,-1.07842 0.2919,-2.1263 0.5093,-3.08518zM254.00566,131.7387c-1.94915,2.14925 -3.07268,5.14155 -4.60392,7.56286c-2.91526,4.60986 -5.45788,8.94972 -7.91407,13.85219c-1.43746,2.86911 -3.32803,5.16346 -4.26661,8.28179c-0.99339,1.14429 -1.39855,2.69639 -1.93523,4.11351c-0.26435,0.69804 -0.6312,1.40832 -1.05666,2.11031c1.68497,0.47048 3.34176,0.96682 4.76148,1.75512c1.14018,0.63308 1.96317,1.71931 2.98986,2.52349c1.77526,1.39053 4.04224,2.25083 6.1959,3.19553c0.08196,-0.16663 0.16591,-0.33151 0.25208,-0.49446c0.69908,-1.32206 1.53571,-2.46917 2.24195,-3.79864c-0.68833,-1.42707 -1.25364,-2.86799 -1.6992,-4.36337c-0.76923,-1.47545 -1.42353,-2.97382 -1.92424,-4.47266c0,0 -0.45773,-1.3732 0.87503,-1.87136c0.18526,-0.2376 0.40791,-0.37011 0.62949,-0.43897c0.42663,-0.17609 0.8219,-0.08177 1.11028,0.05632c6.93122,2.63586 14.18426,2.76008 21.33362,4.31538l0.59066,-0.03127c0.053,-0.00445 0.08395,-0.00445 0.08395,-0.00445c0.27468,0 0.55048,0.00113 0.82734,0.00326c0.44945,-2.11364 1.16527,-4.1666 2.29521,-6.08948c0.21084,-0.3588 0.4537,-0.69519 0.72089,-1.01416c-0.1246,-0.20452 -0.24919,-0.40904 -0.37379,-0.61356c-5.55156,-4.50135 -12.28879,-8.28107 -16.31928,-14.35634c-1.93584,-2.91794 -2.38533,-7.47609 -3.38712,-10.7987c0,0 -0.1428,-0.47597 0.00996,-0.96219c-0.45782,0.49006 -0.93752,0.98845 -1.43758,1.53985zM199.77193,222.95593c-0.03576,0.00961 -0.07135,0.01925 -0.10678,0.0289c0.04594,0.01118 0.08876,0.0114 0.12778,-0.00203c-0.00714,-0.00894 -0.01413,-0.0179 -0.02099,-0.02687z" fill="#130c1f"></path><path d="M273.1056,113.09683l-1.37472,0.78555l-0.02622,-0.04588c-0.05178,0.04625 -0.10466,0.0914 -0.15874,0.13536c-0.76777,0.6241 -1.96706,0.42013 -2.82362,0.91538c-1.50419,0.86971 -2.52252,2.25644 -4.19473,2.89185c-1.13747,0.43222 -2.37877,0.56062 -3.60226,0.73187c-1.30314,0.56777 -2.69536,0.98637 -4.25569,1.16675c-2.88507,0.00393 -4.9886,-0.18586 -7.09266,-1.19543c-0.13099,-0.00147 -0.26111,-0.00227 -0.39029,-0.00227c-0.84104,-0.1059 -1.98561,0.33778 -2.52312,-0.31769c-2.80464,-3.42015 -0.34573,-4.26755 2.19383,-4.48064c0.1784,-0.01497 3.42931,0.76026 3.77517,0.81862c2.03975,0.3442 4.2888,0.38368 6.35412,0.37971l0.14767,-0.02299c2.4099,-1.00299 4.24984,-2.84766 6.58818,-4.02196c2.89127,-1.45199 5.17381,-2.61876 7.61064,-4.43025c0.03653,-0.07965 0.07385,-0.15901 0.11193,-0.23791c0.22915,-1.26566 -0.32824,-2.46567 0.88092,-3.64755c0.67268,-0.6575 1.79799,-0.55359 2.69699,-0.83038l0.16368,0.05298v-0.06194h1.6c0.82843,0 1.5,0.67157 1.5,1.5c0,0.51041 -0.25493,0.96128 -0.64441,1.23222l-1.38373,0.98838l-0.16231,-0.22723c-0.63907,0.66059 -1.27744,1.31001 -1.91749,2.11712c-0.15227,0.19201 -0.2883,0.4026 -0.41214,0.62685c-0.1392,0.52048 -0.31664,1.00732 -0.58786,1.37315c-0.00426,0.00574 -0.00851,0.01146 -0.01276,0.01717c-0.35062,0.98411 -0.63542,2.03139 -1.07735,2.87087l-0.27258,0.05766c-0.11792,0.36979 -0.37536,0.67729 -0.71044,0.86062z" fill="#b49fda"></path><path d="M284.89655,189.36008c0,0 1.11494,-1.00345 2.11839,0.11149c1.00345,1.11494 -0.11149,2.11839 -0.11149,2.11839c-0.28537,0.25637 -0.57205,0.51031 -0.86001,0.76203c0.28565,0.693 -0.56326,1.7493 -0.71696,2.58689c-0.55928,3.04776 -2.73303,7.21866 -6.08184,7.99601c-0.98481,0.2286 -1.861,0.22001 -2.60393,0.02092c-0.07837,0.01264 -0.15876,0.01921 -0.2407,0.01921c-0.63884,0 -1.18441,-0.39937 -1.40065,-0.96206c-1.03079,-1.05512 -1.36983,-2.77601 -0.78498,-4.72262c0.35724,-1.18904 1.29079,-2.12466 1.844,-3.23614c0,0 0.67082,-1.34164 2.01246,-0.67082c0.51424,0.25712 0.73282,0.61279 0.80685,0.95369c0.35507,-0.30932 0.72471,-0.59527 1.09455,-0.85216c1.67915,-1.32277 3.32515,-2.68284 4.92433,-4.12483z" fill="#b49fda"></path><path d="M200.86919,204.77765c0.05303,-0.11507 0.10697,-0.23003 0.16189,-0.34487l-0.28627,-0.07157l0.49239,-1.96956c0.15159,-0.66798 0.74897,-1.16664 1.46282,-1.16664c0.82843,0 1.5,0.67157 1.5,1.5v1.75h-0.12274l0.09867,0.26764c-0.90802,2.49634 -1.99087,4.94951 -2.51085,7.55415c-0.32724,1.63916 -0.05208,3.0566 -0.88238,4.61663c-0.60008,1.12748 -1.18608,1.74495 -1.88427,2.19971l0.01184,0.01421l-1.49244,1.2437c-0.26123,0.22084 -0.59899,0.35397 -0.96784,0.35397c-0.82843,0 -1.5,-0.67157 -1.5,-1.5v-1.75c0.01201,-4.40321 2.22901,-8.06212 4.15836,-11.92082c0,0 0.58694,-1.17387 1.76081,-0.77655z" fill="#b49fda"></path><path d="M196.3173,209.87842c0.53419,-2.73896 1.56937,-4.61779 1.56937,-7.4984c0,0 0,-1.5 1.5,-1.5c1.5,0 1.5,1.5 1.5,1.5c0,2.78416 -0.83779,4.77546 -1.44248,7.26686c0.04248,0.19377 0.04248,0.33314 0.04248,0.33314v0.4c-0.01199,2.19122 1.0134,4.83264 0.4,7v2c0,0.82843 -0.67157,1.5 -1.5,1.5c-0.82843,0 -1.5,-0.67157 -1.5,-1.5v-1.36401c-0.01116,-0.02342 -0.02267,-0.04707 -0.0345,-0.07094l-0.80971,-0.46269l0.15756,-0.27572c-1.89802,-0.91496 -2.92155,-2.31782 -3.31105,-5.14369l0.02773,-0.08295h-0.03002v-1.6v0c0,-0.82843 0.67157,-1.5 1.5,-1.5c0.51041,0 0.96128,0.25493 1.23222,0.64441l0.61823,0.86552c0.02131,-0.17445 0.04776,-0.34524 0.08019,-0.51153z" fill-opacity="0.96863" fill="#130c1f"></path></g><g stroke="none" stroke-width="0.5"><path d="M278.46918,23.45543c-0.72135,1.9159 -1.07666,3.93378 -1.84924,5.85129c-0.26555,0.65908 -0.65304,1.16156 -1.05359,1.63246c-0.02303,0.03897 -0.04646,0.07766 -0.07031,0.11607c-0.17308,0.27876 -0.37661,0.6377 -0.61802,0.96472c-0.02202,0.09878 -0.06609,0.22496 -0.15428,0.3344c-0.29141,0.81098 -0.58958,1.62184 -0.90353,2.42275c1.60706,-0.82109 3.45529,-1.43055 5.0861,-1.61604l-0.04854,-0.29125l0.98606,-0.16434c0.04449,-0.00823 0.09036,-0.01253 0.13724,-0.01253c0.41421,0 0.75,0.33579 0.75,0.75c0,0.24849 -0.12085,0.46876 -0.30698,0.60524l-0.59567,0.44675c-0.04715,0.06233 -0.09548,0.12384 -0.14493,0.18454c0.03076,0.08197 0.04758,0.17075 0.04758,0.26347c0,0.24849 -0.12085,0.46876 -0.30698,0.60524l-0.65968,0.49476l-0.01985,-0.02647l-0.0627,0.08029c-3.69389,1.49099 -6.5815,3.2802 -9.79959,5.69106c-0.0866,0.10441 -0.21439,0.19246 -0.40292,0.22501c-0.9012,1.51648 -1.363,3.55068 -2.03059,5.10805c-1.11442,2.59972 -2.59342,4.72103 -3.58675,7.36805c-0.36356,0.84889 -0.7272,1.69774 -1.09095,2.54655c0.0005,0.03225 0.00009,0.06384 -0.00108,0.09461l0.00005,-0.00009c0,0 0,0.10831 -0.0291,0.26673c-0.02837,0.15854 -0.0664,0.25996 -0.0664,0.25996c-0.00015,0.0004 -0.0003,0.0008 -0.00045,0.0012c-0.01538,0.04613 -0.03321,0.09349 -0.0539,0.14129c-1.17561,3.06685 -2.82661,6.41958 -4.44777,9.27503l-0.20236,0.40763c0,0.93843 0,1.87687 0,2.81531c0.57319,0.33501 1.05487,0.76292 1.51659,1.45216c1.96805,-1.41817 3.76703,-3.24331 6.10907,-4.04233c6.26869,-2.13863 14.40071,-0.44938 19.43462,3.67069l0.61249,0.81953c2.89738,-2.85283 5.41131,-6.08491 8.42152,-8.78009c1.28638,-1.15176 2.89975,-1.28103 4.1942,-2.39473c1.23462,-1.23531 2.32481,-2.94467 3.88154,-3.80277c1.04269,-0.57476 2.30802,-0.70021 3.30894,-1.34496c1.8108,-1.16642 2.98836,-3.14042 4.76549,-4.37673c0.24059,-0.16737 0.48194,-0.33504 0.72389,-0.50306c0.1512,-1.18912 0.70525,-1.6549 1.46103,-1.73066c0.87585,-2.6251 1.0614,-5.29187 2.36103,-7.87575l0.14913,-0.74564c0.03539,-0.19703 0.14773,-0.36735 0.3048,-0.47874c0.01085,-0.29563 0.01669,-0.59155 0.01669,-0.8878c0,0 0,-0.75 0.75,-0.75c0.75,0 0.75,0.75 0.75,0.75c0,0.95093 -0.06234,1.90007 -0.15821,2.84761c0.45898,1.3754 0.69697,2.79325 0.88312,4.23374c0.86638,-0.64872 1.7198,-1.30834 2.55182,-1.98141c0.51877,-0.77094 1.09484,-1.52097 1.90196,-2.19855c0,0 0.56341,-0.4695 1.23061,-0.35797c0.35156,-0.54903 0.6992,-1.04619 1.0646,-1.50379c0.04902,-0.13624 0.14176,-0.28952 0.31721,-0.38184c1.01559,-1.17373 2.2048,-2.08626 3.99101,-2.97758l0.71226,-0.47484c0.12072,-0.08304 0.26696,-0.13165 0.42456,-0.13165c0.41421,0 0.75,0.33579 0.75,0.75c0,0.26446 -0.13688,0.49695 -0.34365,0.63049l-0.74032,0.49355l-0.01456,-0.02184l-0.02502,0.04648c-0.06559,0.0329 -0.13027,0.06577 -0.19406,0.09861c-0.28132,0.5592 -1.12595,0.90449 -1.58635,1.45795c-1.24659,1.49855 -2.01357,3.08659 -3.15359,4.50034c-0.14527,0.46249 -0.49624,0.76331 -0.49624,0.76331c-0.58949,0.49681 -1.18836,0.98848 -1.7949,1.47523c-0.63784,0.97029 -1.17619,1.98747 -2.03458,2.95352c2.32811,0.5011 4.48158,1.02864 6.96433,1.02864c0,0 0.47106,0 0.66653,0.37332l0.92862,0.13266c0.36929,0.04675 0.65485,0.36204 0.65485,0.74402c0,0.41421 -0.33579,0.75 -0.75,0.75h-0.77765c-1.74709,0.34913 -3.54322,0.47883 -5.34719,0.57681c-0.07931,0.22128 -0.25967,0.39445 -0.48546,0.46389l-0.73359,0.24453c-0.3227,0.10377 -0.64339,0.16657 -0.96308,0.20302c-0.77059,0.64301 -1.93135,1.30849 -2.41814,1.5787c-2.4596,1.3653 -4.6972,2.71651 -6.42392,5.11983l-0.27644,0.00932l0.02631,0.10522l-0.98368,0.24592c-0.05807,0.01587 -0.11894,0.02494 -0.18172,0.02629c-1.30299,1.83531 -2.66949,3.62521 -3.70483,5.70101l-1.14475,0.88627c-1.66075,3.28851 -3.90155,7.83947 -6.30941,10.47605c-0.66271,0.72566 -1.69441,1.07759 -2.28476,1.86323c-1.20835,1.60805 -1.60185,3.71664 -2.97062,5.35917l-0.5666,1.00059c-0.01916,0.0483 -0.03772,0.097 -0.05569,0.14608c2.16331,2.28203 2.06093,5.45297 1.23019,8.55477c0.05478,0.02314 0.11039,0.04689 0.16683,0.07125c0.70179,0.3028 0.8245,1.18972 1.0082,2.01512c1.40988,0.29028 2.78073,0.72003 4.23719,1.40587c1.80597,0.85044 3.53401,2.51689 5.42213,3.12776c1.60305,0.51864 3.0064,1.0617 4.31142,1.72455c0.67576,-0.44782 1.48505,-0.04316 1.48505,-0.04316l1.58984,0.88098c1.42607,1.42607 2.10744,2.08839 2.55764,3.09494l0.29293,-0.16274l0.68327,1.22988l0.00549,-0.00141c7.1524,0.01376 14.37443,-3.86129 19.5885,-8.60764c1.56178,-1.42168 3.54544,-2.01591 4.85917,-3.65265c0,0 0.05321,-0.06385 0.14962,-0.14898l0.4585,-0.59311c2.48686,-1.39025 4.91064,-6.31408 7.86987,-6.52066c0.09868,-0.00689 0.19712,-0.00962 0.29537,-0.00874l-0.00708,-0.05666l1.57653,-0.19706c0.06847,-0.00957 0.13842,-0.01452 0.20952,-0.01452c0.82842,0 1.5,0.67158 1.5,1.5c0,0.46723 -0.21362,0.88457 -0.54852,1.15967l-1.1135,0.92791c-0.20763,0.24768 -0.39907,0.51037 -0.574,0.78416c0.02359,0.10565 0.03602,0.2155 0.03602,0.32826c0,0.27416 -0.07355,0.53114 -0.202,0.75229l-0.98677,1.77618l-0.02246,-0.01248c-0.00975,0.03345 -0.01983,0.06683 -0.03023,0.10014c-0.40598,1.30052 -1.63414,2.5218 -2.57142,3.80749c-0.42017,0.74197 -0.80409,1.48803 -1.13011,2.21553c-0.51063,1.13947 -0.76754,2.91025 -1.51491,4.0018c-0.7267,1.06136 -1.65597,1.89611 -2.59548,2.72241c-1.65074,2.053 -3.56984,3.90492 -5.71279,5.61052c-1.4835,1.18074 -2.50383,2.95502 -4.17974,3.9228c-0.81141,0.46856 -1.73672,0.8051 -2.66192,1.14138c-0.36407,0.21641 -0.75189,0.4094 -1.17466,0.56985c-0.59182,0.22462 -1.2001,0.38932 -1.81682,0.52187c-2.94199,2.312 -6.58256,3.28973 -9.97485,4.79789c0.98393,0.96299 1.81059,2.03121 2.87831,3.1892c0.95083,1.03123 1.84039,1.07944 2.59758,2.45944c0.83443,1.52077 0.91544,3.46829 2.04372,4.78585c0.88678,1.03555 2.1471,1.68254 3.17769,2.57509c0.75187,1.04308 1.26519,2.24992 2.0555,3.26418c1.17696,1.51048 3.01132,2.03691 4.23368,3.64282c0.23996,0.31527 0.45103,0.61612 0.64632,0.90512c0.71302,0.44888 1.42418,0.89414 2.06852,1.40859c1.35078,1.07849 2.17655,2.6859 3.24952,4.04107c1.26691,1.60011 3.20314,2.26657 4.53284,3.72352c0.89972,0.98583 1.7477,2.28781 2.47334,3.68859c0.27118,-0.10866 0.52768,-0.20328 0.75946,-0.28415l1.07434,-0.07697c0,0 1.5,0 1.5,1.5c0,0.66386 -0.29381,1.03391 -0.62135,1.24018c0.54237,0.81555 0.87509,1.84253 0.9977,3.09449c0.0926,0.94556 0.5083,2.04636 0.00191,2.85023c-1.0059,1.59685 -4.65756,1.60595 -6.27825,1.3151c-0.86626,-0.15546 -2.14839,0.05358 -2.72341,-0.50112c-0.4317,0.12944 -0.77593,0.22539 -0.93015,0.26057c-0.11602,0.02647 -0.23218,0.05248 -0.34846,0.07806c-0.72719,0.3093 -1.45479,0.61505 -2.18156,0.92283c-1.91764,0.97567 -3.95267,1.82437 -5.90797,2.68009c-0.72623,0.36736 -1.44809,0.7527 -2.16424,1.16193c-2.00377,1.14489 -4.01593,2.41277 -6.07636,3.44075c-1.75847,0.87733 -3.76071,1.44383 -5.64008,2.20831c-0.28477,0.14691 -0.56934,0.29179 -0.85374,0.43438c-0.16368,0.05475 -0.32715,0.11003 -0.49039,0.16584c-0.66946,0.33172 -1.30951,0.70805 -1.90125,1.15525c-4.86606,3.67753 -10.14221,6.33059 -15.17414,9.75446c-0.86356,0.58759 -1.77889,1.14561 -2.71133,1.68289l0.82013,0.81858c0.29822,0.18527 0.46295,0.46255 0.55395,0.71237c0.11214,0.24067 0.19166,0.55269 0.11234,0.89402c0.00056,0.51839 0.00172,1.06045 -0.02374,1.60567l0.17446,-0.01745l0.008,0.07993c0.12186,-0.02799 0.24489,-0.05155 0.36929,-0.06994c1.13797,-0.16826 2.17423,0.76961 3.29737,1.01828c5.79547,1.28319 10.03555,4.95835 15.83841,6.40906l1.06825,0.60714c0,0 1.162,0.77466 0.49609,1.95026c0.10974,0.20845 0.17185,0.44588 0.17185,0.69781c0,0.77221 -0.58353,1.40814 -1.33369,1.49089l-1.58025,0.19753l-0.00462,-0.03689l-0.08823,0.04557c-0.08349,-0.00046 -0.16667,0.0001 -0.24955,0.00165l-0.24021,0.21619l-0.17983,-0.19981c-0.02157,0.00127 -0.04311,0.00262 -0.06464,0.00402c-1.53058,1.64467 -3.29781,2.96646 -5.63196,3.88522c-2.06957,0.81461 -4.14857,0.22828 -6.18022,1.10054l-1.69768,1.13179c-0.24144,0.16609 -0.53392,0.2633 -0.84911,0.2633c-0.82842,0 -1.5,-0.67157 -1.5,-1.5c0,-0.33145 0.10751,-0.6378 0.28954,-0.88606l0.98986,-1.3858l0.06377,0.04555c0.06248,-0.11545 0.13158,-0.22763 0.20853,-0.3359c0.04704,-0.06618 0.38836,-0.23745 0.86366,-0.45328c0.05452,-0.37896 0.25071,-0.71215 0.53316,-0.94417l1.1912,-0.99267l0.11862,0.14235c0.60302,-0.8096 1.24469,-1.55194 2.03998,-2.45602c-3.69942,-1.08756 -6.62744,-3.52441 -10.26906,-4.50776c0.19326,2.4723 -0.36222,4.878 -2.36899,6.72609l-0.11221,0.27972c0,0 -0.62097,0.93147 -1.5947,0.64855c-0.0797,0.06304 -0.1608,0.12395 -0.2433,0.18261c-0.35899,0.87421 -0.75042,1.70751 -1.2117,2.45628l-0.49075,0.06494l0.08326,0.19428l-1.36952,0.58694c-0.18932,0.08628 -0.39973,0.13435 -0.62136,0.13435c-0.40277,0 -0.76846,-0.15875 -1.03793,-0.41709c-0.88851,0.26021 -1.53337,-0.54587 -1.53337,-0.54587l-0.93106,-1.19284c-0.16549,-0.29488 -0.32023,-0.59663 -0.46394,-0.90394c-0.52679,0.68293 -1.06353,1.34109 -1.63274,1.9579c-0.39429,1.19185 -0.84589,2.35309 -1.39139,3.46481c-0.18129,0.95654 -0.40558,1.89119 -0.716,2.7839c-0.37167,1.06884 -0.94621,2.05124 -1.54116,3.02444c-0.44139,2.3625 -0.90946,4.71831 -1.70839,6.97429c-0.50843,1.43567 -1.45481,4.39375 -2.78446,5.98541c5.6594,4.09172 11.01944,8.45777 16.3859,13.03357c0.06048,-0.00742 0.12207,-0.01125 0.18456,-0.01125c0.22854,0 0.44513,0.05111 0.63899,0.14252l1.47022,0.65343l-0.05115,0.11509l0.29115,0.01916c4.96118,4.85181 9.00191,9.60863 12.00797,15.93099c1.08892,2.29022 1.98856,4.56576 3.01585,6.86815c0.20834,0.46693 0.52247,0.94191 0.79215,1.43899c1.65803,1.13563 3.13463,2.14562 4.07443,4.36468l-0.06912,0.28366h0.09618v1.66666c0,0.10843 -0.01151,0.21418 -0.03337,0.31609c0.02093,0.31831 0.03192,0.65688 0.03337,1.01725v2c0,0 0,1.5 -1.5,1.5c-1.5,0 -1.5,-1.5 -1.5,-1.5v-2c0.00002,-0.0051 0.00757,-0.24408 0.01153,-0.57468l-0.74487,-0.55865l0.26089,-0.34785c-0.36237,-0.27143 -0.70468,-0.56601 -1.01821,-0.88488c-0.2264,0.13714 -0.49199,0.21607 -0.77601,0.21607c-0.54568,0 -1.02329,-0.29137 -1.28576,-0.72702l-0.81714,-1.30743c-1.37083,-2.15404 -3.10535,-4.18015 -4.36647,-6.38861c-0.05428,-0.09506 -0.10828,-0.19034 -0.16201,-0.28584l-0.26373,-0.14652l0.03977,-0.07159c-0.1352,-0.05863 -0.26703,-0.12546 -0.39476,-0.20229c-1.00883,-0.60678 -1.03601,-2.1561 -1.84451,-3.0118c-1.9539,-2.06795 -3.71143,-4.08889 -5.54254,-6.21404c-2.64479,-3.0695 -6.1805,-4.88188 -9.06032,-7.55517c-2.05039,-1.90334 -4.11701,-3.97413 -6.10235,-5.94021c-0.6144,-0.8192 -1.17933,-1.31446 -1.75756,-1.69342c-0.25465,0.45883 -0.56002,0.91812 -0.66966,1.40261c-0.2083,0.92054 -0.26204,1.97013 -0.26473,3.0251c0.01346,0.12902 0.02758,0.25769 0.04236,0.38611c0.43601,0.52695 0.83622,1.07523 1.11911,1.69357c1.67284,3.65649 1.38033,8.92047 1.38033,12.86157c0,0 0,1.25004 0,1.25012c-0.01243,7.06929 0.72298,14.26772 0.24623,21.3562c-0.22116,3.28818 -1.04597,6.65863 -0.99623,9.89367l-0.24998,1.15652c0.00088,4.161 0.03139,8.76118 -0.76938,12.83375c-0.66866,3.40069 -1.75919,6.73441 -2.79726,10.07861c0.06662,0.243 0.06662,0.43113 0.06662,0.43113l-0.00377,1.60633c-0.42483,2.94984 -1.3913,5.76031 -2.60886,8.41568c-0.37163,1.8541 -1.16631,3.59618 -1.13737,5.47799l-0.29479,0.84522c-0.02494,0.11275 -0.05071,0.18147 -0.05071,0.18147c-0.43865,1.15473 -0.94561,2.30592 -1.65449,3.31732v1.15599c0,0.82842 -0.67158,1.5 -1.5,1.5c-0.82842,0 -1.5,-0.67158 -1.5,-1.5v-1.75h0.14156l-0.07719,-0.18468c0.02342,-0.03722 0.04672,-0.07452 0.06991,-0.1119c-0.86824,-0.83504 0.31816,-2.33638 0.99637,-3.81567c0.42909,-0.93592 0.62397,-1.96446 0.88368,-2.96812c-0.59006,-0.20182 -1.01432,-0.76118 -1.01432,-1.41962c0,-0.09375 0.0086,-0.18549 0.02506,-0.27447l0.24536,-1.47213l0.08276,0.01379l-0.04266,-0.18896c0.35967,-0.85129 0.69528,-1.70817 1.00954,-2.57015c0.20391,-2.15155 1.28536,-4.5405 1.72138,-6.35819c1.13329,-4.72441 1.6153,-9.78019 2.21981,-14.58316c0.18335,-1.45678 0.43492,-2.89459 0.71252,-4.32459c0.00016,-2.88828 -0.07246,-5.78071 0.2852,-8.6558c0.75518,-6.07069 1.52819,-12.4103 -0.20124,-18.42424c0,0 -0.0225,-0.07874 -0.03858,-0.20468c-0.01914,-0.12552 -0.01914,-0.2074 -0.01914,-0.2074v-0.5c0,-5.58384 0.38393,-11.32707 0.00378,-16.89367c-0.00794,-0.11626 -0.02068,-0.23388 -0.03764,-0.35272c-0.4787,0.04215 -0.88696,-0.16197 -0.88696,-0.16197l-1,-0.5c-0.9512,-0.476 -3.39812,-1.61938 -3.87654,-2.33875c-0.25689,-0.38626 -0.37568,-1.12996 -0.38082,-2.01008c-1.34049,-2.74037 -0.28614,-3.9264 1.50689,-6.17985l0.41701,-0.52126c0.06336,-1.92966 0.12099,-3.89084 1.00983,-5.54307c-2.60873,-1.79052 -5.27134,-3.49398 -8.08719,-4.99609c-4.02439,-2.14682 -9.10493,-2.84481 -12.45081,-6.03009c-0.03458,-0.04999 -0.06896,-0.10018 -0.10311,-0.15057c-2.9386,-1.5644 -5.74938,-2.79474 -9.20049,-3.88349c-1.21224,-0.38243 -4.32527,-0.78647 -6.27878,-1.4924c-0.14472,0.47519 -0.51898,0.85035 -0.99363,0.99632l-1.96719,0.65573l-0.06296,-0.18887l-0.41138,0.26585c-0.95747,-0.46489 -2.38999,-0.4459 -2.87242,-1.39465c-0.60897,-1.19762 1.17455,-3.50707 1.79101,-4.4374c0,0 0.4642,-0.69629 1.21923,-0.70201l0.24262,-0.40435l0.17145,0.10287c0.18433,-0.21142 0.36429,-0.42711 0.54014,-0.64676c0.00114,-0.01492 0.00234,-0.02984 0.00363,-0.04476c0.19639,-2.27808 3.10365,-5.55007 4.30932,-7.45085c0.00636,-0.01004 0.01273,-0.02008 0.01909,-0.03012c0.08159,-0.18274 0.16245,-0.36578 0.24267,-0.549c-0.20851,-0.25763 -0.33339,-0.58571 -0.33339,-0.94296c0,-0.30032 0.08826,-0.58004 0.24026,-0.81461l0.80583,-1.28932c1.04875,-1.88717 2.0075,-6.34129 4.01756,-7.51344c0.02614,-0.04968 0.05165,-0.09963 0.07647,-0.14986l-0.21647,-0.07872l0.19478,-0.53563l-0.51242,-0.51242l1.33333,-1.33333c0.07474,-0.07474 0.15733,-0.14163 0.24643,-0.19932c-0.01257,-0.07815 -0.0191,-0.15833 -0.0191,-0.24002c0,-0.38483 0.14492,-0.7358 0.38316,-1.00134l0.48594,-0.54668l0.15813,-0.73795c0.09721,-0.50356 0.44625,-0.91738 0.91087,-1.10522c0.77427,-1.48597 1.58569,-2.94975 2.42634,-4.41516c-4.58711,-2.07757 -9.71543,-2.61098 -14.62625,-3.78412c-2.23039,-0.53281 -4.40488,-1.46722 -6.56974,-2.46146c-1.17578,1.5288 -2.11579,3.2122 -3.77139,4.46547c-2.59993,1.96813 -4.55057,4.26997 -6.74114,6.56472c-0.23132,0.45955 -0.48718,0.96445 -0.83009,1.55653c-0.56346,0.97288 -1.22116,1.87061 -1.87788,2.76948c0.29061,0.27356 0.47206,0.66179 0.47206,1.0924l-0.00011,-0.00007c0,0.12302 -0.01481,0.24257 -0.04274,0.35698l-0.39298,1.76842l-0.04075,-0.00905l0.01439,0.11075c-0.54593,1.45959 -1.56991,2.99081 -1.74915,4.55619c-0.21568,1.88351 0.63607,4.36775 0.00612,6.14045c-0.01406,0.03956 -0.02845,0.07897 -0.04317,0.11823l0.02787,0.00464l-0.39594,2.37568c-0.02711,0.18246 -0.08707,0.3542 -0.17367,0.50901c0.01764,0.82165 0.04928,1.88819 0.01373,2.96253c0.11251,0.21045 0.17629,0.45087 0.17629,0.70618v1.6h-0.08134l0.07011,0.18327c-0.19174,0.78601 -0.35577,1.44355 -0.526,2.01654l1.25477,-0.83652c0.24143,-0.16608 0.53392,-0.2633 0.84911,-0.2633c0.82843,0 1.5,0.67157 1.5,1.5c0,0.46723 -0.21362,0.88457 -0.54852,1.15967l-1.07908,0.89924c-1.69834,2.41678 -3.4951,4.8221 -5.06132,7.31364c-0.13617,0.3917 -0.40901,0.61797 -0.67879,0.74868c-0.27819,0.17481 -0.65567,0.2919 -1.11294,0.14651l-0.74602,-0.06324c-3.36098,-1.3248 -7.42893,-0.55286 -10.99871,-1.34021c0,0 -0.83627,-0.18584 -1.1044,-0.90862c-0.20862,0.04492 -0.42113,0.08892 -0.63694,0.13221c-0.90462,-0.72563 -0.48346,-1.34573 0.19042,-1.80326c-0.01529,-0.22794 -0.02337,-0.45621 -0.02369,-0.68462v-1.48358c-0.04889,-0.28894 -0.0599,-0.57891 -0.0276,-0.8564c0.02669,-0.22924 0.11013,-0.45462 0.23851,-0.67617c-0.00115,-0.01153 -0.00231,-0.02306 -0.00347,-0.03459c0,0 -0.04761,-0.47607 0.17982,-0.91736l0.15529,-1.39755l0.01418,0.00158c-0.002,-0.022 -0.00386,-0.04402 -0.0056,-0.06606c-0.24543,-3.1153 2.23887,-6.16865 3.28984,-8.92775c0.52746,-1.38472 0.9968,-2.72846 1.51194,-4.01803c0.18428,-1.05219 0.50266,-2.06793 1.27337,-2.79181c0.0492,-0.09215 0.09913,-0.18393 0.14983,-0.27532c-0.02793,-0.11441 -0.04274,-0.23396 -0.04274,-0.35697c0,-0.22163 0.04807,-0.43204 0.13435,-0.62136l0.58694,-1.36952l0.06825,0.02925c0.02606,-0.1079 0.05808,-0.21469 0.09704,-0.32019c0.2211,-0.59878 0.75989,-1.15312 1.44204,-1.68115c0.21242,-0.32351 0.41571,-0.65291 0.61028,-0.98668c2.53206,-2.25469 3.6209,-4.65513 5.86647,-7.07591c0.80918,-0.87232 2.02711,-1.30685 2.80597,-2.20633c3.07496,-3.55122 5.85242,-7.30129 9.23539,-10.6361c0.53623,-0.5286 1.12268,-0.95353 1.73295,-1.33109c-0.73133,-0.30186 -1.46542,-0.58215 -2.20401,-0.82788c-0.00001,0 -0.00001,-0.00001 -0.00001,-0.00001c0,0 -0.0038,-0.00127 -0.01095,-0.00387l-0.78553,-0.27751c-4.69936,-2.35676 -9.46153,-4.80586 -14.27158,-6.94314c-7.5999,-2.5333 -15.19021,-7.1908 -21.55184,-11.9942c-2.11264,-1.59516 -4.12942,-1.69407 -5.74202,-3.01714c-0.37108,-0.14991 -0.58274,-0.42705 -0.70346,-0.69442c-0.37718,-0.44657 -0.7252,-0.99894 -1.03899,-1.70185c0,0 -0.00545,-0.01272 -0.01408,-0.03623c-1.55175,-2.13346 -2.93475,-4.42566 -4.71484,-6.34315c-2.63793,-2.84154 -5.49783,-5.6287 -7.65238,-8.86052c-5.34298,-5.31694 -11.11663,-10.00111 -16.82605,-14.82064c-2.16155,-1.82464 -3.82363,-4.18382 -6.1044,-5.83117c-0.0365,-0.00002 -0.07301,0.00025 -0.10954,0.00083c0,0 -1.08984,0 -1.41159,-0.92896c-0.0197,-0.00986 -0.03944,-0.01966 -0.05923,-0.0294c0,0 -0.32788,-0.16394 -0.57842,-0.49182c-0.38517,-0.13747 -0.78902,-0.26532 -1.21845,-0.39308c0,0 -1.43674,-0.43103 -1.00572,-1.86777c0.43102,-1.43674 1.86776,-1.00571 1.86776,-1.00571c1.65068,0.49883 3.01865,1.05033 4.33635,1.92112c3.40609,0.67155 6.46818,2.86203 9.44301,4.61056c3.17706,1.8674 6.90678,2.88196 9.89661,5.06336c3.19513,2.33119 5.58302,4.10267 9.3482,5.25516c8.11548,5.02118 15.97502,10.31335 24.02865,15.39678c4.44486,1.79278 8.01331,4.3862 12.2828,6.65936c1.90832,1.01603 4.0798,1.41272 5.9267,2.6791c0.99293,0.68083 1.72325,1.70683 2.73598,2.35784c2.28527,1.46905 4.92447,2.17111 7.18106,3.7884c1.0393,0.51964 2.04095,1.12135 2.99196,1.78943c0.23296,-0.00089 0.39813,0.04041 0.39813,0.04041c0.00015,0.00004 0.0003,0.00007 0.00045,0.00011c2.58097,0.65465 4.27675,1.89805 6.36992,3.03696c0.00574,-0.01164 0.01164,-0.0232 0.01768,-0.03467l0.7365,-1.47301l0.05149,0.02574l0.04053,-0.18464c0.10139,-0.11766 0.19875,-0.23572 0.29244,-0.35414c0.04879,-0.81946 0.75024,-1.49124 1.11554,-2.23696c0.90153,-1.84036 1.92261,-3.47799 2.98661,-5.1752l0.05266,-0.39819c0.40069,-0.68276 0.84524,-1.23632 1.28412,-1.76808c1.44635,-2.43313 2.7441,-4.98081 4.01707,-7.36068c0.97705,-2.4193 1.85428,-4.92776 2.88046,-7.23624c0.97062,-2.18347 2.78482,-4.47722 3.57369,-6.73401c0.22625,-1.65883 0.6247,-3.29505 1.10875,-4.91704c0.07644,-0.31643 0.16063,-0.62939 0.25651,-0.937c0.11535,-0.37006 0.24619,-0.73582 0.39131,-1.09689c0.68222,-2.0336 1.4429,-4.0501 2.10805,-6.06635c-3.17445,-3.59914 -6.58544,-6.69211 -8.86896,-11.12677c-0.12713,-0.19137 -0.19626,-0.39708 -0.23384,-0.56421c-0.00808,-0.03268 -0.01574,-0.06724 -0.02262,-0.1034c-1.45616,-2.47853 -3.27928,-4.53219 -4.14985,-7.38c-1.05378,-3.4471 -0.67232,-7.49086 -0.67232,-11.06013c0,0 0,-1.5 1.5,-1.5c1.5,0 1.5,1.5 1.5,1.5c0,0.1415 -0.00047,0.28338 -0.00131,0.42561c0.76116,3.18055 3.00096,6.05563 3.94149,9.35501c0.24178,0.84816 0.57858,1.73882 1.21309,2.35138c0.23917,0.2309 0.5381,0.39972 0.78805,0.61729c1.35992,-4.78237 2.02448,-9.98567 4.94182,-14.22636c0.62016,-0.90148 1.49912,-1.86707 2.3761,-2.80724l0.39433,-1.31444c0.10155,-0.36919 0.34067,-0.6814 0.65877,-0.87806c-1.09803,-3.51929 -4.71742,-7.1127 -6.1779,-10.30249c0,0 -0.37043,-0.81495 0.09061,-1.47189l0.01972,-0.51262c0.13333,-0.53333 0.26667,-1.06667 0.4,-1.6c0,0 0.01157,-0.04626 0.03882,-0.12022l0.11403,-0.66019c3.35628,-5.82969 6.24279,-11.80647 10.0659,-17.30499c1.3528,-1.94565 3.43108,-3.30031 4.88004,-5.23676l0.05406,-0.25825c1.19949,-2.08305 2.46902,-4.14002 3.79857,-6.16239c-0.13218,-3.12442 -0.63516,-6.23063 -0.63516,-9.41379c0,0 0,-0.27516 0.16667,-0.49215v-0.50785c0,-0.41421 0.33579,-0.75 0.75,-0.75c0.36866,0 0.6752,0.266 0.73816,0.61654l0.16394,0.81971l-0.00508,0.00102l0.00736,0.01086c0.00858,0.0522 0.01747,0.10496 0.02665,0.15828c1.32029,0.56501 1.92823,2.89174 2.40859,4.33391c1.00333,-1.3749 2.032,-2.72901 3.08249,-4.05935c0.44333,-0.92287 1.04077,-1.77681 1.39569,-2.73726c0,0 0.52668,-1.4045 1.93118,-0.87781c0.06994,0.02623 0.13509,0.05463 0.19575,0.08493c0.06549,-0.15512 0.13128,-0.31015 0.19754,-0.465c0.17663,-0.68624 0.37765,-1.34609 0.66709,-1.93245c0.21376,-0.43303 0.45348,-0.79646 0.70028,-1.12393c0.01526,-0.03924 0.03068,-0.07844 0.04627,-0.1176c0,0 0.08869,-0.22173 0.2911,-0.36491c0.24393,-0.4311 0.50294,-0.85591 0.78122,-1.27258c0.39681,-0.59415 0.52905,-1.09429 0.85869,-1.42256c0.05037,-0.23355 0.08597,-0.48704 0.10409,-0.76531l0.34708,-0.11738l-0.10185,-0.15277l0.74147,-0.49431c0.12072,-0.08304 0.26696,-0.13165 0.42456,-0.13165c0.41421,0 0.75,0.33579 0.75,0.75c0,0.17157 -0.05761,0.32969 -0.15455,0.45606l-0.66149,0.88199c-0.03013,1.6388 -1.20142,2.41262 -2.11479,3.51738zM334.46626,163.47319c1.06149,-0.39219 2.12091,-0.52217 3.17991,-0.74343c0.13263,-0.495 0.28938,-0.96608 0.4669,-1.43394l-0.01481,-0.00186l0.15865,-1.26919c-0.91006,-1.07949 -1.52673,-2.26567 -2.53089,-3.2841c-1.20461,-1.22173 -2.7817,-1.27817 -3.8984,-2.70851c-0.96641,-1.23784 -1.65142,-2.81336 -2.4951,-4.21286c-2.27704,-1.71068 -3.69709,-3.72993 -5.75735,-5.63165c-2.3229,-2.14416 -4.91694,-4.83637 -7.47658,-6.69879c-0.9835,-0.71561 -2.21689,-1.07861 -3.11762,-1.89594c-1.95427,-1.77334 -3.55782,-3.24491 -5.53253,-4.49186c-1.72069,1.45163 -3.25743,2.90222 -4.17393,5.35565l-0.42527,0.53398c-0.58165,2.24401 -1.4094,4.78157 -2.7817,6.64262c-0.81801,1.10935 -1.92825,1.83811 -3.03383,2.57491c-0.27149,0.77209 -0.46148,1.58863 -0.96328,2.22124c-1.28709,1.62263 -3.37666,2.19369 -5.04964,3.19915c-2.61639,1.57244 -4.99798,3.13621 -7.79321,4.00225c-1.12427,2.61683 -2.22389,5.10092 -3.65074,7.63551c-0.17924,0.31839 -0.37326,0.63238 -0.57502,0.94437c8.12905,0.31436 16.69463,0.76194 24.22331,-1.11561c0.27373,-0.19584 0.70933,-0.39943 1.22083,-0.24532c0.27882,0.05784 0.56842,0.2114 0.80662,0.5436c0.26881,0.30796 0.35195,0.62504 0.3444,0.90969c0.02825,0.45836 -0.18797,0.80159 -0.41016,1.02969c-2.18724,2.62903 -3.02576,6.02991 -5.14294,8.73107c-2.64325,3.37231 -5.09421,6.71679 -7.91619,9.74898c-0.20056,0.66402 -0.37895,1.33418 -0.55377,2.00439c0.92931,-1.01402 1.83664,-2.05979 2.99987,-2.79783c3.19554,-2.0275 6.91995,-3.03121 10.04531,-5.22809c5.02086,-2.51855 9.81296,-5.17156 14.94334,-7.47521c1.54009,-0.69153 2.93457,-1.79242 4.56952,-2.26547c0.51056,-0.14773 1.0305,-0.28124 1.55668,-0.40393c2.9099,-1.44183 5.77418,-3.06379 8.77762,-4.17348zM273.44014,212.13039c0.02973,-0.13113 0.06058,-0.26126 0.09251,-0.39045c-0.00478,0.00736 -0.00964,0.01474 -0.01457,0.02213c-0.26099,0.39148 -0.56291,0.57831 -0.8544,0.65034c-0.28883,0.08208 -0.64366,0.06967 -1.06449,-0.14075c-0.12701,-0.0635 -0.23598,-0.13302 -0.32919,-0.20684l-1.16026,-0.78247c-0.85724,-0.71574 -1.67574,-1.47834 -2.47046,-2.26332c-0.3001,-0.18527 -0.46564,-0.46357 -0.55695,-0.71422c-0.11215,-0.24069 -0.19168,-0.55276 -0.11232,-0.89412v-0.68068c0.00888,-1.40921 0.39639,-2.79051 0.61124,-4.18327c0.41217,-2.67196 0.19985,-4.72202 0.61165,-6.89c-0.56946,-0.05197 -0.98355,-0.46606 -0.98355,-0.46606l0.18984,0.08098c-3.88984,-1.94672 -8.69135,-4.32389 -12.99681,-5.06571c-0.62276,-0.1073 -1.23537,-0.19511 -1.84125,-0.27613c-0.5053,0.48322 -1.0116,0.96553 -1.51786,1.44787c-1.06384,1.22115 -2.0913,2.47518 -3.092,3.75208c-1.99673,3.14992 -4.04471,6.24892 -6.09103,9.33378c-0.86873,1.30962 -1.18629,2.92109 -1.9693,4.28369c-1.65682,2.88318 -3.50798,5.84779 -5.77552,8.33988c1.71079,0.50885 3.41188,1.10725 4.88615,1.92192c0.49612,0.27415 1.88387,1.51275 2.5466,1.77277c1.00792,0.39544 2.06877,0.69565 3.15065,0.95942c0.10327,-0.07396 0.22434,-0.13649 0.3663,-0.18145c0.36378,-0.15903 0.69812,-0.1263 0.97015,-0.02776c0.43574,0.10548 0.69315,0.36769 0.84522,0.64069c0.02409,0.02713 0.04839,0.05405 0.07291,0.08076c2.12587,0.46841 4.24816,0.95198 6.13385,1.87992c4.54976,2.23892 9.00521,3.97015 13.71107,5.85575c0.31272,0.20718 0.6243,0.41519 0.9348,0.62403c0.45335,-5.32454 2.69666,-10.48504 5.19771,-15.3976c0.14393,-1.07842 0.2919,-2.1263 0.5093,-3.08518zM254.00566,131.7387c-1.94915,2.14925 -3.07268,5.14155 -4.60392,7.56286c-2.91526,4.60986 -5.45788,8.94972 -7.91407,13.85219c-1.43746,2.86911 -3.32803,5.16346 -4.26661,8.28179c-0.99339,1.14429 -1.39855,2.69639 -1.93523,4.11351c-0.26435,0.69804 -0.6312,1.40832 -1.05666,2.11031c1.68497,0.47048 3.34176,0.96682 4.76148,1.75512c1.14018,0.63308 1.96317,1.71931 2.98986,2.52349c1.77526,1.39053 4.04224,2.25083 6.1959,3.19553c0.08196,-0.16663 0.16591,-0.33151 0.25208,-0.49446c0.69908,-1.32206 1.53571,-2.46917 2.24195,-3.79864c-0.68833,-1.42707 -1.25364,-2.86799 -1.6992,-4.36337c-0.76923,-1.47545 -1.42353,-2.97382 -1.92424,-4.47266c0,0 -0.45773,-1.3732 0.87503,-1.87136c0.18526,-0.2376 0.40791,-0.37011 0.62949,-0.43897c0.42663,-0.17609 0.8219,-0.08177 1.11028,0.05632c6.93122,2.63586 14.18426,2.76008 21.33362,4.31538l0.59066,-0.03127c0.053,-0.00445 0.08395,-0.00445 0.08395,-0.00445c0.27468,0 0.55048,0.00113 0.82734,0.00326c0.44945,-2.11364 1.16527,-4.1666 2.29521,-6.08948c0.21084,-0.3588 0.4537,-0.69519 0.72089,-1.01416c-0.1246,-0.20452 -0.24919,-0.40904 -0.37379,-0.61356c-5.55156,-4.50135 -12.28879,-8.28107 -16.31928,-14.35634c-1.93584,-2.91794 -2.38533,-7.47609 -3.38712,-10.7987c0,0 -0.1428,-0.47597 0.00996,-0.96219c-0.45782,0.49006 -0.93752,0.98845 -1.43758,1.53985zM199.77193,222.95593c-0.03576,0.00961 -0.07135,0.01925 -0.10678,0.0289c0.04594,0.01118 0.08876,0.0114 0.12778,-0.00203c-0.00714,-0.00894 -0.01413,-0.0179 -0.02099,-0.02687z" fill="#130c1f"></path><path d="M268.72229,114.88724c-1.50419,0.86971 -2.52252,2.25644 -4.19473,2.89185c-1.13747,0.43222 -2.37877,0.56062 -3.60226,0.73187c-1.30314,0.56777 -2.69536,0.98637 -4.25569,1.16675c-2.88507,0.00393 -4.9886,-0.18586 -7.09266,-1.19543c-0.13099,-0.00147 -0.26111,-0.00227 -0.39029,-0.00227c-0.84104,-0.1059 -1.98561,0.33778 -2.52312,-0.31769c-1.60756,-1.96035 -1.48587,-3.07548 -0.61091,-3.71039l1.63448,1.11875c0,0 0.92357,0.38482 1.79557,0.02535c7.44224,3.20734 16.99552,-1.86612 22.04896,-7.88031c2.20543,0.35684 2.57358,-1.85207 2.57358,-1.85207l0.14734,-0.89846c0.16667,-0.77778 0.33333,-1.55556 0.5,-2.33333c0,0 0.03707,-0.17301 0.04191,-0.4324c0.65916,-0.31094 1.5151,-0.29084 2.22852,-0.51049l0.16368,0.05298v-0.06194h1.6c0.82843,0 1.5,0.67157 1.5,1.5c0,0.51041 -0.25493,0.96128 -0.64441,1.23222l-0.11178,0.07984c-0.40975,-0.55501 -1.0685,-0.91498 -1.81132,-0.91498c-1.24264,0 -2.25,1.00736 -2.25,2.25c0,0.29711 0.05759,0.58076 0.1622,0.84041c-0.08165,0.12975 -0.12178,0.21671 -0.12178,0.21671c-1.53827,3.36005 -3.60781,5.58253 -5.97787,7.71207c-0.28597,0.06318 -0.562,0.1479 -0.80943,0.29096z" fill="#b49fda"></path><path d="M284.89655,189.36008c0,0 1.11494,-1.00345 2.11839,0.11149c1.00345,1.11494 -0.11149,2.11839 -0.11149,2.11839c-0.28537,0.25637 -0.57205,0.51031 -0.86001,0.76203c0.28565,0.693 -0.56326,1.7493 -0.71696,2.58689c-0.55928,3.04776 -2.73303,7.21866 -6.08184,7.99601c-0.98481,0.2286 -1.861,0.22001 -2.60393,0.02092c-0.07837,0.01264 -0.15876,0.01921 -0.2407,0.01921c-0.63884,0 -1.18441,-0.39937 -1.40065,-0.96206c-1.03079,-1.05512 -1.36983,-2.77601 -0.78498,-4.72262c0.35724,-1.18904 1.29079,-2.12466 1.844,-3.23614c0,0 0.67082,-1.34164 2.01246,-0.67082c0.51424,0.25712 0.73282,0.61279 0.80685,0.95369c0.35507,-0.30932 0.72471,-0.59527 1.09455,-0.85216c1.67915,-1.32277 3.32515,-2.68284 4.92433,-4.12483z" fill="#b49fda"></path><path d="M200.86919,204.77765c0.05303,-0.11507 0.10697,-0.23003 0.16189,-0.34487l-0.28627,-0.07157l0.49239,-1.96956c0.15159,-0.66798 0.74897,-1.16664 1.46282,-1.16664c0.82843,0 1.5,0.67157 1.5,1.5v1.75h-0.12274l0.09867,0.26764c-0.90802,2.49634 -1.99087,4.94951 -2.51085,7.55415c-0.32724,1.63916 -0.05208,3.0566 -0.88238,4.61663c-0.60008,1.12748 -1.18608,1.74495 -1.88427,2.19971l0.01184,0.01421l-1.49244,1.2437c-0.26123,0.22084 -0.59899,0.35397 -0.96784,0.35397c-0.82843,0 -1.5,-0.67157 -1.5,-1.5v-1.75c0.01201,-4.40321 2.22901,-8.06212 4.15836,-11.92082c0,0 0.58694,-1.17387 1.76081,-0.77655z" fill="#b49fda"></path><path d="M196.3173,209.87842c0.53419,-2.73896 1.56937,-4.61779 1.56937,-7.4984c0,0 0,-1.5 1.5,-1.5c1.5,0 1.5,1.5 1.5,1.5c0,2.78416 -0.83779,4.77546 -1.44248,7.26686c0.04248,0.19377 0.04248,0.33314 0.04248,0.33314v0.4c-0.01199,2.19122 1.0134,4.83264 0.4,7v2c0,0.82843 -0.67157,1.5 -1.5,1.5c-0.82843,0 -1.5,-0.67157 -1.5,-1.5v-1.36401c-0.01116,-0.02342 -0.02267,-0.04707 -0.0345,-0.07094l-0.80971,-0.46269l0.15756,-0.27572c-1.89802,-0.91496 -2.92155,-2.31782 -3.31105,-5.14369l0.02773,-0.08295h-0.03002v-1.6v0c0,-0.82843 0.67157,-1.5 1.5,-1.5c0.51041,0 0.96128,0.25493 1.23222,0.64441l0.61823,0.86552c0.02131,-0.17445 0.04776,-0.34524 0.08019,-0.51153z" fill-opacity="0.96863" fill="#130c1f"></path></g><g fill-opacity="0.08235" fill="#b39ed9" stroke="none" stroke-width="0.5"><g><path d="M253.25725,83.15073c-2.5,0 -2.5,-2.5 -2.5,-2.5v-1.65139c-1.12683,-0.8186 -3.85395,-2.78491 -4.1776,-3.37058c-0.58818,-1.06436 -0.46862,-2.39161 -0.5693,-3.6035c-0.53054,-6.38607 2.62475,-10.52146 6.64445,-14.97781l1.00081,-1.50122c0.44514,-0.68925 1.2201,-1.14551 2.10163,-1.14551c1.38071,0 2.5,1.11929 2.5,2.5c0,0.48518 -0.13821,0.93808 -0.37741,1.32147l-0.19021,0.31702c-0.20118,0.6272 -0.58949,1.05081 -0.58949,1.05081c-0.03871,0.04206 -0.07778,0.0844 -0.11721,0.12702l-0.44756,0.74593c-1.07095,4.09751 -1.61417,8.84077 -1.05462,13.07471c0.10503,0.79473 0.73519,1.49593 0.71163,2.29722c-0.00158,0.05368 -0.00354,0.10732 -0.00586,0.16093l0.03672,-0.00612l0.49226,2.95354c0.02742,0.14831 0.04176,0.30121 0.04176,0.45746c0,0.88432 -0.45915,1.6614 -1.15206,2.10585c-0.2346,0.72385 -0.83112,1.64415 -2.34794,1.64415z"></path><path d="M302.00723,57.85002c1.38071,0 2.5,1.11929 2.5,2.5c0,1.34235 -1.05795,2.4376 -2.38553,2.49743l-1.6939,1.90565c-0.39476,0.52789 -3.03183,4.0696 -3.23582,4.2447c-0.97067,0.83318 -2.28474,1.19434 -3.26627,2.01471c-2.06294,1.72422 -3.27371,4.81901 -5.05129,6.80064c-0.57662,0.64281 -1.50518,0.94265 -1.99271,1.65539c-0.45831,0.67002 -0.61602,4.51873 -0.62633,4.77815c-0.02777,0.69924 0.37652,1.54696 0.19378,2.1746c0.00866,0.02631 0.01726,0.05264 0.02578,0.079l-0.17385,0.40046h0.20613v2.5c0,1.38071 -1.11929,2.5 -2.5,2.5c-0.7465,0 -1.41658,-0.32719 -1.87466,-0.84598c-0.05464,0.03334 -0.11193,0.06483 -0.172,0.09422c-0.40647,0.23704 -0.93402,0.36598 -1.60526,0.22852c-0.68026,-0.08185 -1.13997,-0.371 -1.45062,-0.72442c-0.52864,-0.51958 -0.65127,-1.17604 -0.64547,-1.69182c-0.00199,-0.03902 -0.00199,-0.06052 -0.00199,-0.06052l0.00736,-2.05826c-0.14348,-1.87871 -0.65496,-6.37328 0.08796,-7.95956c0.44742,-0.95533 1.8885,-1.00649 2.63691,-1.74995c1.05521,-1.04821 1.36005,-2.64616 2.08237,-3.94634c0,0 0.74612,-1.34301 2.12137,-1.33849c2.51589,-3.13077 5.16749,-5.50748 8.10606,-8.27302l0.00002,-0.00001c0.8067,-0.7592 1.35629,-1.86674 2.35609,-2.34376c0.06859,-0.03272 0.13745,-0.06472 0.20659,-0.09603l-0.02774,-0.04007l3.22414,-2.2321c0.39189,-0.27917 0.86776,-0.4481 1.38233,-0.46155c0.42862,-0.34506 0.97347,-0.55158 1.56656,-0.55158z"></path><path d="M341.57393,157.82923c0.43749,-0.07314 0.95461,-0.01365 1.55136,0.28472c2.23607,1.11803 1.11803,3.3541 1.11803,3.3541l-4.70945,1.41682c-1.12677,-1.46181 -2.69954,-2.54902 -3.78291,-4.04327c-1.07186,-1.47838 -1.63848,-3.28798 -2.74371,-4.74158c0,0 -0.09602,-0.12803 -0.20708,-0.34359c-0.11402,-0.21402 -0.16463,-0.36584 -0.16463,-0.36584l0.00148,-0.00546c-0.04172,-0.11392 -0.07972,-0.23825 -0.10913,-0.37054c-6.63823,-9.80321 -17.48918,-15.36895 -25.7884,-23.6468c0,0 -1.31625,-1.31625 -0.5414,-2.81297c-3.05988,1.43941 -6.61017,3.47393 -8.71078,5.59989c-2.09215,2.11741 -3.60492,4.54715 -5.34894,6.83306c-0.10789,2.07245 -0.30519,4.13406 -1.07141,6.11966c-0.84144,2.18051 -2.9345,3.95959 -4.51284,5.53204c-0.20848,0.48365 -0.56525,0.88836 -1.01303,1.15687c-0.51083,0.61488 -1.03639,1.20981 -1.73425,1.56622c-0.08703,0.04445 -0.17462,0.08751 -0.26273,0.12928l0.0234,0.03803l-1.92327,1.18355c-0.14517,0.72586 -0.29035,1.45173 -0.43552,2.17759l-0.50019,2.25341c-0.06394,0.31925 -0.1887,0.61653 -0.36166,0.87925c-0.3107,0.515 -0.86605,1.08866 -1.81076,1.14212c-0.64435,2.65791 -1.06266,5.29308 -1.05293,8.11638c0.24654,0.06245 0.49144,0.13061 0.73441,0.20514c2.77287,-0.5012 5.64233,-0.62857 7.78967,-0.63729c2.12034,0.03217 4.24589,0.36034 5.6525,1.12742c0.9635,-0.54723 1.93926,-1.09157 2.92702,-1.63904l2.11807,-1.64739c0.42644,-0.33827 0.96584,-0.5403 1.55244,-0.5403c1.38071,0 2.5,1.11929 2.5,2.5c0,0.22872 -0.03071,0.45026 -0.08824,0.66073l-0.7364,2.94561l-0.04899,-0.01225c-0.00919,0.09115 -0.0197,0.18225 -0.03165,0.27327c-0.46745,3.56145 -3.57033,5.91493 -6.05618,7.85315c-1.49788,1.1679 -2.52311,2.87307 -4.03304,4.02536c-4.51298,3.44402 -9.67086,4.99263 -15.25549,5.00413h-2.5c-0.89088,0 -1.67292,-0.46599 -2.11568,-1.16751l-1.48972,-0.40629c-0.78129,-0.19432 -1.41731,-0.75614 -1.71393,-1.49132c-0.2092,-0.04872 -0.40832,-0.12372 -0.59368,-0.22131l-2.95502,-1.47751l0.10796,-0.21592l-0.59179,-0.10077c-4.97059,-6.36857 -11.448,-10.22038 -12.86906,-18.78924c0,0 -0.08156,-0.53013 0.07643,-1.13706c-0.25285,-0.69527 -0.30806,-1.6857 0.73359,-2.6116c1.86852,-1.66091 3.52943,0.20761 3.52943,0.20761c1.05081,1.18626 2.144,2.2643 3.2748,3.2567c0.10552,0.03651 0.21014,0.07731 0.31378,0.12275c0.66879,0.29322 1.20207,0.7502 1.65546,1.30461c0.58772,-0.12385 1.0846,-0.03351 1.0846,-0.03351c2.65449,0.48484 5.33861,1.49739 8.0273,1.71978c0.95883,0.07931 1.94044,0.12632 2.92933,0.17944c0.15703,-0.48152 0.47439,-1.04854 1.11582,-1.37362c0.21534,-3.62646 1.04111,-7.07048 2.08232,-10.62839c-1.12393,-0.45552 -2.09179,-0.94151 -2.54319,-1.18892c-3.27462,-1.79482 -4.79236,-4.17869 -7.46536,-6.57561c-0.82873,-0.74314 -1.97729,-1.11493 -2.70679,-1.95569c-2.33168,-2.68726 -3.95543,-7.36194 -4.69571,-10.94063c-0.68262,-0.55888 -1.32841,-1.54292 -2.25579,-3.282c-0.85737,-1.60779 -0.57344,-3.60523 -1.0462,-5.36535l-0.58663,-1.46658c-0.70157,-0.79371 -1.37057,-1.62547 -2.26208,-2.1743c-1.08127,-0.66567 -2.75218,-0.57866 -3.43319,-1.65034c-0.57847,-0.91032 0.19953,-2.13995 0.18168,-3.23187c-1.31349,-1.50017 -2.42977,-3.16452 -3.70388,-4.69872c-0.79916,-0.96229 -3.67265,-3.39709 -4.2114,-4.29251c-0.74263,-1.23427 -1.63192,-5.20053 -2.19404,-6.63454c-1.17741,-3.00364 -2.54627,-5.99136 -3.75053,-9.00132c0,0 -0.92848,-2.32119 1.39272,-3.24967c2.32119,-0.92848 3.24967,1.39272 3.24967,1.39272c1.20271,3.00746 2.57628,5.99561 3.74947,8.99868c0.53726,1.37526 0.69317,2.90592 1.13281,4.31152c0.26156,-1.36229 0.63574,-2.70684 1.04795,-3.95007c0.08463,-1.0142 0.25437,-1.89488 0.54623,-2.41746c0.04005,-0.07172 0.08122,-0.14266 0.12344,-0.21288l-0.06566,-0.0197l0.73386,-2.4462c0.29105,-1.05813 1.2601,-1.83543 2.4107,-1.83543c1.38071,0 2.5,1.11929 2.5,2.5c0,0.01224 -0.00009,0.02446 -0.00026,0.03666c2.00026,0.30872 2.00026,2.46334 2.00026,2.46334c0,0.87215 -0.08158,1.569 -0.11615,2.17818c1.62882,-0.88117 3.27619,-1.56302 4.79678,-1.7901c0.07382,-0.01102 0.14768,-0.02075 0.22157,-0.02927l-0.00854,-0.03418l2.94561,-0.7364c0.21047,-0.05753 0.43201,-0.08824 0.66073,-0.08824c0.12181,0 0.24159,0.00871 0.35874,0.02555l1.97824,-0.98912c0.34741,-0.18291 0.74312,-0.28642 1.16302,-0.28642c0.60849,0 1.1662,0.21739 1.59971,0.57874c1.9573,-0.71197 4.23903,-0.88032 5.50216,0.25188c2.84511,2.55022 1.20839,5.60921 0.21932,8.09786c-2.15514,5.42267 -7.598,8.29734 -12.99695,9.93174l-2.39576,0.96097c0,0 -1.88526,0.7541 -2.93733,-0.79594c-0.0654,0.01365 -0.13076,0.02702 -0.19607,0.0401c0.40129,0.53243 0.77447,1.38641 0.26608,2.42717c0.68755,0.3755 1.14649,0.76999 1.5243,1.18004c0.28325,-0.11139 0.59175,-0.17256 0.91453,-0.17256c0.63486,0 1.21445,0.23664 1.65538,0.62653l1.99089,1.74202l-0.05773,0.06598l0.22957,0.0995c0.24351,0.31494 0.45789,0.60719 0.65888,0.88101c0.96109,0.40979 1.89938,0.92087 2.87097,1.5837c1.56148,0.37912 3.1143,0.74698 4.47629,1.39104c0.47943,0.22671 1.07012,0.42373 1.65255,0.64138c0.45447,-0.62491 1.1914,-1.03116 2.02321,-1.03116c0.34922,0 0.68172,0.0716 0.98361,0.20093c2.11165,-0.86832 5.77684,-0.99797 7.75338,-1.63233c6.68643,-2.14598 13.59008,-4.2048 20.53061,-5.49411c2.52287,-0.90405 5.10435,-2.40118 7.70976,-2.10892c0.63251,-0.18041 1.28247,-0.33262 1.95277,-0.45214l2.60676,-0.71093c0.22596,-0.06712 0.46529,-0.10316 0.71304,-0.10316c0.0325,0 0.06485,0.00062 0.09705,0.00185c2.01821,-0.64409 4.25278,-1.13609 6.38647,-1.81885c1.63555,-0.96801 4.02004,-2.8265 5.95908,-3.94614c0.31336,-0.76781 0.52854,-1.57888 0.70792,-2.09122c0,0 0.85436,-2.34948 3.20384,-1.49513c0.09699,0.03527 0.18853,0.07309 0.27489,0.11319c0.85287,-1.18129 1.21348,-2.76374 2.19628,-3.85945c0.13824,-0.15412 4.50511,-3.04251 5.37112,-3.61699l1.89797,-1.66073c0.44092,-0.38989 1.02051,-0.62653 1.65538,-0.62653c1.38071,0 2.5,1.11929 2.5,2.5v2.75h-0.1232c0.0165,0.26913 0.01409,0.53947 -0.01212,0.81134c-0.11951,1.23973 -1.41894,2.04901 -2.18647,3.02988c-1.12721,1.44052 -2.10734,3.03369 -3.47959,4.24308c-2.41998,2.13276 -5.66263,3.12177 -8.26039,4.96056c-2.63569,1.86563 -4.36106,3.73257 -7.48153,5.01483c-2.13732,0.87827 -4.57283,1.71919 -7.0283,2.36139c-1.32484,0.62896 -2.71096,1.24292 -4.13238,1.67549l-0.53635,0.31287l-0.03152,-0.05403c-0.0765,0.06351 -0.15387,0.12607 -0.23217,0.18762c-0.33462,0.263 -0.74694,0.37037 -1.17537,0.44954c0.43019,0.22269 0.69715,0.48966 0.69715,0.48966c8.60315,8.62765 19.69951,14.34258 26.56236,24.63102l0.36822,0.91526c0.96951,1.4163 1.55465,3.08415 2.55794,4.47991c0.52124,0.72514 1.16143,1.35132 1.81038,1.97079zM279.1436,175.74827c-0.11053,-0.05154 -0.2221,-0.10894 -0.33442,-0.17065c0.01289,0.04937 0.02559,0.09869 0.03808,0.14795c0.09881,0.00723 0.19759,0.01479 0.29634,0.02269zM293.23758,174.84631c-0.34773,0.20247 -0.69443,0.40558 -1.04042,0.60957c0.01162,0.07113 0.0212,0.1426 0.02878,0.21435c0.26887,-0.13227 0.52068,-0.28653 0.72762,-0.5006c0.10354,-0.10711 0.19782,-0.215 0.28402,-0.32332z"></path><path d="M266.29782,188.22831l1.82746,0.88564c0,0 0.73658,0.36829 1.15286,1.10487c0.05267,0.01955 0.1052,0.03954 0.15759,0.06l0.57152,-0.17881c0,0 2.5,0 2.5,2.5c0,2.5 -2.5,2.5 -2.5,2.5l-2.42848,-0.17881c-1.52918,-0.63038 -3.25085,-0.65757 -4.8184,-1.18536c-2.17007,-0.73066 -3.54296,-1.97281 -5.098,-3.00933c-1.13037,-0.35278 -2.2594,-0.70664 -3.38635,-1.06844c-0.8392,1.17302 -2.42976,0.90793 -2.42976,0.90793l-1.80737,-0.32142c-5.10538,-1.53374 -9.89073,-3.81551 -14.76183,-5.89457h-1.2698v-0.15148c-0.18923,0.03752 -0.38057,0.06623 -0.57438,0.08461c-0.76704,0.07273 -1.41944,-0.46196 -2.09377,-0.92033c-3.04028,-0.62239 -6.30443,-1.36196 -9.01826,-2.44479c-1.9281,-0.76932 -3.63221,-2.04259 -5.5725,-2.78062c-3.31668,-1.65724 -6.66313,-3.73839 -10.00247,-5.25109c-3.772,-1.7087 -7.97913,-2.29262 -11.77902,-4.01306c-3.47945,-1.57536 -6.15529,-4.45056 -9.52383,-6.01106c-0.79792,-0.36964 -1.74467,-0.358 -2.52563,-0.76224c-3.5791,-1.85261 -5.58811,-5.24829 -8.54388,-7.72333l-1.83963,-1.19104c-0.05848,-0.07587 -0.11728,-0.15141 -0.17639,-0.22665c-0.09792,-0.05589 -0.19703,-0.11064 -0.29736,-0.16417c0,0 -1.12193,-0.61196 -1.32395,-1.76296c-1.80227,-2.02659 -3.73793,-3.92273 -5.44052,-6.08119c-2.44196,-3.0958 -4.66533,-6.49385 -7.39229,-9.37891c-1.17995,-0.58511 -2.40061,-1.07767 -3.64741,-1.80737c-2.59158,-1.51673 -4.4114,-4.35149 -6.7762,-6.18524c-2.84862,-2.20891 -5.34346,-3.83851 -7.82235,-6.5474c0,0 -1.68168,-1.84985 0.16817,-3.53153c1.84985,-1.68168 3.53153,0.16817 3.53153,0.16817c0.68023,0.75392 1.36026,1.40582 2.04969,2.00413c0.60399,0.1291 1.03411,0.43018 1.03411,0.43018c4.54507,3.18932 9.45921,6.66569 13.51629,10.465c0.36524,0.34203 0.72166,0.693 1.07047,1.05158c1.29205,0.70187 2.53796,1.51162 3.70964,2.6761c0.84007,0.8349 1.42077,1.90433 2.25,2.75c1.86966,1.90674 4.43351,2.59241 6.33805,4.58874c2.19161,2.29724 4.32674,4.32333 6.76293,6.11834c1.29974,0.52484 2.51079,1.39523 3.67327,2.38289c0.04374,0.0248 0.0876,0.04955 0.13157,0.07425l0.0911,0.11682c0.82764,0.71693 1.63171,1.48644 2.42692,2.22484c0.98897,-0.00241 1.75703,0.6803 1.75703,0.6803c1.31851,1.17243 2.62713,2.38549 3.94314,3.59598c0.92875,0.61792 1.8567,1.23665 2.78115,1.85813c0.43227,0.1446 0.85058,0.31555 1.22708,0.56818c0.65706,0.44089 1.24319,0.95086 1.79927,1.48966c0.51899,0.35781 1.0359,0.71718 1.55022,1.07847c2.4259,1.70409 5.51609,2.71977 8.14913,4.03849c2.75636,1.38048 5.14143,3.26556 7.72202,4.8746c0.41297,0.25749 0.83708,0.50437 1.27038,0.7418c2.77243,1.25457 5.61194,2.45104 8.49071,3.55274c0.93081,0.32762 1.85136,0.64665 2.74682,0.96612l0.21275,0.12711c3.94601,1.40412 7.94705,2.60989 11.93321,3.5251c2.02447,0.34597 4.03104,0.87752 5.94167,1.63095l1.77766,0.76106c1.92118,0.76769 3.85396,1.4587 5.79472,2.10984c0.50724,-0.08284 0.91014,-0.01569 0.91014,-0.01569c2.17996,0.38693 4.44779,0.9241 6.27724,2.17112c0.10278,0.07006 0.20563,0.14728 0.30883,0.23001c1.76269,0.54943 3.52808,1.10482 5.29351,1.69315z"></path><path d="M196.03631,202.46988c0,0 0.38014,-2.47093 2.85107,-2.09079c2.47093,0.38014 2.09079,2.85107 2.09079,2.85107c-0.31939,2.05231 -0.73384,4.09753 -1.32636,6.08823l0.10543,-0.21837c0,0 0,1.35721 -1,2.07163c0,1.14279 0,2.28558 0,3.42837v2.25c0,0 0,2.5 -2.5,2.5c-1.43291,0 -2.04453,-0.82129 -2.30559,-1.52241c-0.10794,0.28633 -0.19668,0.56906 -0.26129,0.84679c-0.26129,1.12313 -0.09937,2.29038 0.00258,3.45288c0.19136,-0.02726 0.3143,-0.02726 0.3143,-0.02726l1.27366,0.01027c0.70161,-0.0468 1.40333,-0.09202 2.10512,-0.13615l1.86741,-1.03745c0.36858,-0.21408 0.79688,-0.33666 1.25381,-0.33666c1.38071,0 2.5,1.11929 2.5,2.5c0,0.64065 -0.24098,1.22501 -0.63723,1.6674l1.07128,0.08927c1.29477,0.09421 2.31595,1.17452 2.31595,2.49333c0,1.31307 -1.0123,2.3897 -2.29905,2.49204l-2.72461,0.24769c-3.84383,0.34598 -9.99644,1.60768 -12.43053,-2.56009c-0.70438,-1.20608 -0.19721,-2.78643 -0.29581,-4.17964c0,0 0,-1.11919 0.74884,-1.8599c0.0016,-1.63613 0.01337,-3.73809 0.06804,-3.96448c0.66908,-2.77038 2.9758,-5.6013 4.15721,-8.21013c0,0 0.30319,-0.66702 0.9424,-1.11471c0.17289,-0.50732 0.52534,-1.09851 1.24381,-1.40063c0.37321,-1.42396 0.64786,-2.8756 0.86878,-4.33029z"></path><path d="M277.75723,203.85002c1.7466,0 2.27296,1.22025 2.43158,1.95571c0.02302,0.01398 0.04583,0.02873 0.06842,0.04429h3c1.38071,0 2.5,1.11929 2.5,2.5c0,1.38071 -1.11929,2.5 -2.5,2.5h-2.26955c-0.64731,0.16143 -1.37427,0.33716 -2.14356,0.48884c-1.1623,2.48931 -2.1973,5.04288 -2.92936,7.6848c-0.20621,0.7442 -0.37082,1.47601 -0.5151,2.20145c0.28877,0.90336 -0.07124,1.80339 -0.07124,1.80339c-0.15734,0.39321 -0.3126,0.78703 -0.46616,1.18138c-0.24342,1.36074 -0.51917,2.72833 -0.97123,4.14344c-0.33133,1.03717 -0.14813,2.2991 -0.80849,3.1648c-0.06718,0.08807 -0.13642,0.17416 -0.20754,0.25844l0.06762,0.03757l-0.9197,1.65546c0.1305,0.403 0.25683,0.8073 0.37888,1.21279l0.30689,1.47808c0,0 0.02875,0.14374 0.03752,0.36857c0.01321,0.22461 -0.00137,0.37048 -0.00137,0.37048c-0.01286,0.12342 -0.02643,0.24709 -0.04069,0.37097c0.90301,0.5362 1.71207,1.36443 2.77791,1.95086c1.76424,0.97069 3.84896,1.5082 5.29295,2.91164c0.03067,0.02981 2.36861,3.60305 2.92715,3.97762c0.67466,0.45244 1.57265,0.46115 2.27989,0.86074c2.70059,1.52579 3.9742,4.15465 6.16837,6.04528c1.31468,1.13281 2.94159,1.86618 4.25307,3.00269l1.63807,2.17835c0,0 1.4531,2.03433 -0.58124,3.48743c-2.03433,1.4531 -3.48743,-0.58124 -3.48743,-0.58124l-0.86193,-1.32165c-1.2973,-1.1486 -2.94009,-1.85958 -4.24693,-2.99731c-1.42323,-1.23906 -2.33851,-2.98725 -3.74482,-4.24549c-2.34838,-2.10112 -4.49224,-2.20472 -6.59702,-4.86888c-2.08775,-2.6426 -2.53853,-2.43305 -5.48978,-4.09034c-0.47682,-0.26776 -0.89338,-0.62977 -1.29998,-1.00014c-0.35652,1.46211 -0.77825,2.91876 -1.24297,4.34098c0.10439,1.33483 0.38272,2.63759 0.74797,3.94448l1.88121,2.11636c0.39706,0.44256 0.63859,1.02753 0.63859,1.66891c0,0.05819 -0.00199,0.11592 -0.0059,0.17312c0.51317,0.54819 0.68126,1.22054 0.68126,1.22054c1.75227,7.06958 1.116,14.216 1.81454,21.38183c0.54275,5.56769 0.81453,10.90614 -0.28845,16.4648l-0.23547,1.42071c0,0 -0.01431,0.08587 -0.05362,0.2229c-0.03313,0.13865 -0.06288,0.22046 -0.06288,0.22046c-1.35329,3.72032 -2.06404,6.55826 -2.27847,10.12706c0.92898,0.72637 0.92898,2.01853 0.92898,2.01853l-0.17881,1.42848l-0.97837,2.44593c-0.35452,0.94948 -1.26971,1.62559 -2.34282,1.62559c-1.38071,0 -2.5,-1.11929 -2.5,-2.5v-2.5c0,-5.31133 0.79513,-9.20123 2.57186,-14.13692l0.22669,-1.35337c1.02552,-5.08279 0.68547,-9.94907 0.21155,-15.0352c-0.64174,-6.88723 0.02516,-13.841 -1.68546,-20.61817c0,0 -0.08623,-0.34494 -0.06358,-0.80717l-2.09035,-1.85809c-0.69994,-0.48845 -1.39988,-0.97691 -2.09982,-1.46536c-0.69596,-0.32407 -1.03551,-0.83811 -1.19205,-1.33984c-0.21345,-0.48754 -0.29348,-1.10767 0.03356,-1.81983l0.26641,-0.99452c0.32743,-0.80652 0.64673,-1.64476 0.95054,-2.5042c0.13527,-1.87983 0.48956,-3.8037 0.97429,-5.02969c0.17161,-0.43403 0.31537,-0.91083 0.47197,-1.38337c-0.07437,-0.01862 -0.11618,-0.03256 -0.11618,-0.03256l-3.10569,-1.24027c-2.13493,-1.89022 -4.30019,-2.75625 -6.70581,-4.27861c-1.43187,-0.90614 -2.49685,-2.366 -4.01596,-3.11676c-1.79369,-0.88647 -3.85368,-1.12885 -5.67237,-1.96284c-2.69433,-1.23553 -4.47498,-3.33093 -7.17254,-4.46612c-3.15591,-1.32808 -6.11384,-1.54539 -9.17223,-1.14322l-1.09462,0.82097c-0.42124,0.32311 -0.94829,0.51515 -1.5202,0.51515c-1.38071,0 -2.5,-1.11929 -2.5,-2.5c0,-0.32061 0.06035,-0.62712 0.17031,-0.90879l0.98021,-2.69556l0.10503,0.03819l0.01371,-0.31245c3.66598,-5.56184 7.05507,-11.25442 8.81883,-17.77917c0,0 0.59773,-2.19169 2.74285,-1.8268c0.49029,-0.50125 0.99848,-0.98447 1.5228,-1.44757c0,0 1.88144,-1.64626 3.5277,0.23518c1.64626,1.88144 -0.23518,3.5277 -0.23518,3.5277c-1.11948,0.96841 -2.165,2.04128 -3.04869,3.22877l-1.16218,2.10389c0,0 -0.00933,0.0168 -0.02783,0.04663c-1.59881,4.14569 -3.72066,8.04374 -6.10986,11.78725c2.06719,-0.00478 4.15373,0.28489 6.14044,0.8493c3.27615,0.93073 5.23273,2.48813 7.95534,4.3278c2.43492,1.64528 5.45135,1.81697 7.97456,3.08956c0.64967,0.32767 3.5741,2.80984 4.48404,3.38324c2.58926,1.63161 4.95573,2.69494 7.29419,4.72139l0.3909,0.07282c-0.40749,-1.26994 -0.862,-2.52545 -1.35836,-3.7629c0,0 -0.92848,-2.32119 1.39272,-3.24967c0.30128,-0.12051 0.57911,-0.18628 0.83448,-0.20948c0.80335,-2.21933 1.61744,-4.43046 2.4933,-6.62469c0.08263,-1.20268 0.13164,-2.41123 0.44316,-3.569c0.56326,-2.09337 1.31814,-4.14256 2.17636,-6.14847c-0.21186,-0.046 -0.42032,-0.10067 -0.62459,-0.16483c-1.517,0.30974 -2.47437,-1.12631 -2.47437,-1.12631l-0.81444,-1.41838c-0.78858,-2.63809 -3.25671,-6.81774 -1.69569,-9.59769c0.92279,-1.64335 2.47365,-3.7284 4.35443,-3.60669c3.98638,0.25798 3.49674,5.58105 3.48583,7.736c-0.00008,0.01553 -0.23436,1.27456 -0.06499,2.04801c0.25566,-0.70656 0.8646,-1.54801 2.31499,-1.54801z"></path><path d="M304.79402,205.82091c-0.72121,-0.22187 -1.27185,-0.87269 -1.97955,-1.15547c-2.45836,-0.98229 -5.19635,-1.85801 -7.79751,-2.36397c0,0 -2.45145,-0.49029 -1.96116,-2.94174c0.49029,-2.45145 2.94174,-1.96116 2.94174,-1.96116c3.69849,0.75645 7.84235,1.96691 11.08315,3.94364c1.28713,0.78509 3.38952,1.00778 3.79574,2.4597c0.03946,0.14104 0.06226,0.2885 0.07011,0.44134c0.2932,0.21497 0.56833,0.53184 0.79678,0.98874c1.11803,2.23607 -1.11803,3.3541 -1.11803,3.3541l-1.90393,0.94933c-0.33986,0.18401 -0.6576,0.49315 -0.98776,0.73201c-0.18937,0.23973 -0.36197,0.45789 -0.50831,0.64873l-0.44369,0.0954l0.1124,0.1686l-2.22156,1.48104c-0.40239,0.27681 -0.88987,0.43883 -1.41519,0.43883c-1.38071,0 -2.5,-1.11929 -2.5,-2.5c0,-0.69036 0.27982,-1.31536 0.73223,-1.76777l2,-2l0.06489,0.06489c0.06348,-0.09897 0.12921,-0.19667 0.19739,-0.29299c0.25621,-0.36196 0.63053,-0.59329 1.04227,-0.78324z"></path></g><g><path d="M283.82536,183.22915c0.60634,2.42536 -1.81902,3.0317 -1.81902,3.0317l-0.67786,0.14584c-0.64774,0.24677 -1.29926,0.48326 -1.9534,0.71251l-2.05617,1.82771c-0.44256,0.39706 -1.02753,0.63859 -1.66891,0.63859c-0.52858,0 -1.01885,-0.16404 -1.42267,-0.444c-2.18154,0.06528 -4.58693,-0.40596 -6.06488,-0.56731c-1.12462,-0.12278 -2.32049,0.0282 -3.37132,-0.39085c-5.76889,-2.30054 -8.69849,-9.37284 -11.12087,-15.32186c-0.62286,-0.85143 -1.2028,-1.71495 -1.73234,-2.57776c-0.7225,-0.13677 -2.03791,-0.63479 -2.03791,-2.44822c0,-2.5 2.5,-2.5 2.5,-2.5l0.3763,0.15191c0.10022,-0.06021 0.2087,-0.11764 0.32606,-0.1718c2.2699,-1.04765 3.31754,1.22225 3.31754,1.22225c0.10502,0.22843 0.20876,0.45824 0.31148,0.68921c0.25026,0.08822 0.48227,0.21515 0.68883,0.37359l1.76395,1.32296c0.8869,0.26343 1.73048,0.58133 2.44066,0.98247c3.74542,2.1156 7.09912,5.64686 10.55882,8.2707l0.24362,-1.46175c0.05584,-0.37591 0.19535,-0.72451 0.399,-1.02627l-0.13453,-1.39841c-1.29666,-4.84055 -0.29547,-7.29703 1.34359,-11.76619c0.79838,-2.1769 0.36468,-4.9341 0.36468,-7.18866c0,0 0,-0.65332 0.33398,-1.29201c-3.0695,-0.51143 -6.60691,-3.65695 -9.07525,-6.50376c-4.26529,-4.16887 -7.20873,-9.92771 -8.9033,-15.48587c0,0 -0.71837,-2.39457 1.6762,-3.11294c2.39457,-0.71837 3.11294,1.6762 3.11294,1.6762c0.18369,0.62462 0.39125,1.26578 0.6224,1.91654c0.4494,-0.43235 1.06018,-0.69817 1.73304,-0.69817c0.78951,0 1.49353,0.36597 1.9517,0.93752c0.0722,0.02975 0.1427,0.06278 0.21132,0.0989l2.45502,1.22751l-0.00717,0.01433c0.02623,0.00749 0.05243,0.0151 0.07861,0.02284c1.44522,0.42715 2.97867,1.33277 4.40863,2.5031c0.30137,-1.04216 1.26264,-1.8042 2.4019,-1.8042c0.88153,0 1.6565,0.45626 2.10163,1.14551l1.47849,2.21774l-0.06151,0.041l0.16041,0.12026c0.56074,1.21231 1.41167,2.81611 2.05884,4.48907c0.08615,-0.00898 0.1736,-0.01358 0.26213,-0.01358c1.38071,0 2.5,1.11929 2.5,2.5c0,0.41989 -0.10352,0.81561 -0.28642,1.16302l-0.90576,1.81152c0.00381,0.29009 -0.05339,0.57317 -0.19634,0.8461c-0.3527,0.67338 -0.71235,1.22455 -1.07551,1.66793c-0.17103,0.70949 -0.39479,1.46851 -0.66425,2.30201l0.08306,0.78298c0.04524,0.25414 0.04524,0.42645 0.04524,0.42645c0,0.83333 0,1.66667 0,2.5l-1.48154,-0.07408c0.0524,2.4831 0.1502,5.00143 -0.65377,7.38542c-1.33211,3.95009 -2.3386,4.98185 -1.15641,9.23381l0.27932,2.70609c0,0 0.10315,1.03147 -0.48759,1.83244v0.76966c0.33655,-0.03059 0.6731,-0.06118 1.00965,-0.09178l2.45813,-0.24581c0.09264,-0.01041 0.18681,-0.01575 0.28222,-0.01575c1.38071,0 2.5,1.11929 2.5,2.5c0,0.47208 -0.13085,0.9136 -0.35825,1.29027c0.22638,0.26975 0.41487,0.62844 0.53361,1.10339zM274.30931,184.71473c-0.04529,-0.19097 -0.19101,-0.32239 -0.36354,-0.43899c-0.03338,0.00743 -0.06701,0.0142 -0.10088,0.02028l-0.14676,0.02935c0.22919,0.19008 0.45943,0.4275 0.56274,0.4741l0.05223,-0.06715c-0.00105,-0.00553 -0.00231,-0.01139 -0.00378,-0.01759z"></path><path d="M245.18599,102.19053c0.32165,-0.6003 1.24453,-1.86775 3.06838,-1.20453c2.34948,0.85436 1.49513,3.20384 1.49513,3.20384c-0.43742,1.14821 -0.58938,2.38155 -0.71581,3.61359c0.05991,-0.05819 0.12126,-0.11515 0.18417,-0.17079c1.27819,-1.13054 6.24562,-1.33174 7.63114,-0.94747c0.67327,0.18673 1.25489,0.66008 1.82141,1.15623l2.83217,-1.0893l0.42931,1.1162c0.24689,-0.0186 0.49465,-0.0361 0.74342,-0.05233c0.21892,-0.0475 0.44088,-0.08184 0.66663,-0.09986l2.32697,-0.93079c0.30123,-0.12865 0.63286,-0.19986 0.98112,-0.19986c1.38071,0 2.5,1.11929 2.5,2.5c0,0.82831 -0.40283,1.56254 -1.02328,2.01746l-1.97672,1.48254l-0.09768,-0.13024l-0.19207,0.31776c-1.49231,0.52081 -2.89734,1.5064 -4.47692,1.56242c-0.49892,0.01769 -0.97075,-0.08272 -1.42638,-0.25694c-1.92,0.74079 -3.85652,1.42429 -5.94392,1.7305c-1.97258,0.28937 -7.38817,0.58685 -9.14607,-0.19692c-1.03388,-0.46096 -1.52626,-1.68027 -2.38664,-2.41589c-3.81832,-3.26466 -5.30398,-5.46244 -5.77902,-10.57278l-0.67917,-2.26389c-0.07928,-0.24372 -0.12213,-0.50387 -0.12213,-0.77403c0,-1.38071 1.11929,-2.5 2.5,-2.5c0.81137,0 1.53247,0.38653 1.9892,0.98549l1.30668,1.68002c1.25058,0.71179 2.461,1.49794 3.49009,2.43954z"></path><path d="M252.40001,85.33549c-2.5,0 -2.5,-2.5 -2.5,-2.5v-1c0.02329,-1.51455 0.26414,-2.80129 -0.62663,-4.18567c-1.51227,-2.35028 -3.03731,-1.26292 -3.8065,-4.73995c-0.68806,-3.11033 1.6026,-7.20669 2.98838,-9.77151c0,0 1.19713,-2.19474 3.39187,-0.99761c2.19474,1.19713 0.99761,3.39187 0.99761,3.39187c-0.68544,1.24271 -2.81001,4.58031 -2.51162,6.22849c0.271,1.49687 2.43642,1.94063 3.1935,3.26005c1.63243,2.84496 1.34122,3.92556 1.37337,6.81433v1c0,0 0,2.5 -2.5,2.5z"></path><path d="M282.91393,73.46744c0,0 1.11803,-2.23607 3.3541,-1.11803c2.23607,1.11803 1.11803,3.3541 1.11803,3.3541c-0.86734,1.7276 -1.83637,3.40847 -2.90594,5.01872l-0.43908,0.58884l0.32989,2.14427l-0.12372,0.01903c0.79718,1.68754 1.40984,3.43588 1.85424,5.62082l0.04855,1.24029c0,0 0,2.5 -2.5,2.5c-1.77586,0 -2.29025,-1.26147 -2.43924,-1.99226c-0.16591,0.0115 -0.34414,0.00757 -0.53555,-0.01476c-0.68784,-0.04389 -1.16773,-0.28909 -1.50254,-0.60987c-0.55046,-0.48334 -0.71631,-1.14342 -0.75446,-1.63769c-0.01821,-0.15147 -0.01821,-0.24542 -0.01821,-0.24542c0,-2.58333 0,-6.41667 0,-9c0,0 0,-2.5 2.5,-2.5c0.04626,0 0.09166,0.00086 0.13622,0.00254c0.67891,-1.09281 1.30489,-2.21967 1.87771,-3.37057z"></path><path d="M219.32061,179.07583c-1.24035,2.17061 -3.41096,0.93026 -3.41096,0.93026l-1.62769,-0.93454c-4.35844,-2.17977 -8.56533,-4.21911 -13.17019,-5.86358c-3.36371,-1.03449 -6.72876,-1.91087 -9.7761,-3.74586c-5.22591,-3.14685 -9.27703,-8.418 -13.6343,-12.54232c-6.49163,-6.14459 -13.56227,-11.7307 -20.22379,-17.72607c0,0 -1.85824,-1.67241 -0.18582,-3.53065c1.67241,-1.85824 3.53065,-0.18582 3.53065,-0.18582c6.67815,6.01033 13.77272,11.60787 20.27621,17.77393c4.11353,3.9001 7.92194,9.00548 12.8657,11.95768c2.69308,1.60819 5.75648,2.34066 8.7239,3.25414c4.82946,1.72493 9.25824,3.85123 13.82981,6.13642l1.87231,1.06546c0,0 2.17061,1.24035 0.93026,3.41096z"></path><path d="M289.28144,254.23175c-1.64626,1.88144 -3.5277,0.23518 -3.5277,0.23518l-2.12151,-1.86367c-2.0842,-2.37254 -4.30387,-5.9874 -7.03824,-7.63602c-1.46118,-0.88098 -3.19479,-1.19935 -4.79835,-1.78226c0,0 -0.2995,-0.10891 -0.64576,-0.3559c-0.3278,1.42774 -0.60064,2.88853 -0.76229,4.50517l-0.08954,0.22272c0.2407,0.44123 0.31162,0.83131 0.31162,0.83131c0.53051,3.5162 3.17984,6.26273 4.19181,9.75234c0.75639,2.60826 0.08146,5.3345 0.33841,7.97036c0.702,7.20129 0.5101,14.46098 0.5101,21.72451v1c0,0 0,2.5 -2.5,2.5c-2.5,0 -2.5,-2.5 -2.5,-2.5c0,0 0,-2.5 2.5,-2.5c2.5,0 2.5,2.5 2.5,2.5c0,4.70237 -0.3478,8.85102 -1.58809,13.40779l0.08809,0.59221c0,0 0,2.5 -2.5,2.5c-2.5,0 -2.5,-2.5 -2.5,-2.5l0.08809,-1.90779c1.13045,-4.13626 1.41191,-7.82226 1.41191,-12.09221v-1c0,-7.11581 0.16735,-14.22178 -0.4899,-21.27549c-0.20365,-2.18562 0.50872,-4.89612 -0.16159,-7.02964c-0.68767,-2.18877 -1.78257,-4.00591 -2.72806,-5.91582c-1.23768,-0.17334 -1.85652,-1.41101 -1.85652,-1.41101l-0.51393,-1.61803c0,-0.69333 0,-1.38666 0,-2.07999c-0.04216,-0.37153 0.00748,-0.72095 0.07465,-0.99255c0.0709,-0.31529 0.20916,-0.71297 0.47873,-1.0651c0.23113,-2.0885 0.61976,-3.98065 1.08149,-5.87511l-0.0029,-0.00118c-5.21351,-2.60767 -10.38201,-5.64685 -14.94628,-9.28596c-1.33569,-1.06495 -2.46589,-2.45975 -4.00912,-3.19229c-3.25245,-1.54387 -7.17343,-1.31987 -10.65994,-2.05499c-3.20555,-0.67588 -6.37048,-2.10069 -9.50183,-3.06338c0,0 -2.38945,-0.73521 -1.65423,-3.12466c0.73521,-2.38945 3.12466,-1.65423 3.12466,-1.65423c2.94699,0.9075 5.97655,2.31573 8.99817,2.93662c3.96311,0.81435 8.11738,0.68413 11.84006,2.44501c1.89157,0.89474 3.35917,2.49769 4.99088,3.80771c3.99348,3.20618 8.52362,5.89459 13.09553,8.22993c0.50994,-2.4169 0.09015,-5.38758 0.09015,-7.77982c0,0 0,-1.83675 1.57436,-2.36152c0.62563,-2.38655 1.39231,-4.66162 2.35445,-7.06696c0,0 0.92848,-2.32119 3.24967,-1.39272c2.32119,0.92848 1.39272,3.24967 1.39272,3.24967c-1.29497,3.23743 -2.18642,6.14519 -2.86974,9.56181l0.04855,0.00971c0,0 0,1.0252 -0.65651,1.76257c0.04384,1.90056 0.01219,3.82144 -0.4152,5.5819c-0.09619,0.39621 -0.19355,0.78417 -0.29113,1.16593c0.66574,-0.06041 1.2172,0.14012 1.2172,0.14012c0.8765,0.31883 4.95514,1.75741 5.70165,2.21774c3.15608,1.94619 5.5538,5.59966 7.96176,8.36398l1.87849,1.63633c0,0 1.88144,1.64626 0.23518,3.5277z"></path><path d="M283.4,208.83549c0,2.5 -2.5,2.5 -2.5,2.5l-1.49029,-0.04855c-1.14478,-0.25455 -2.07671,-0.52465 -2.84614,-0.83524c-1.40085,0.41903 -3.22905,0.00457 -4.63179,-0.43311c-3.02331,-0.94331 -4.01008,-6.52567 -4.27152,-8.95677c0,0 -0.22634,-2.48973 2.26339,-2.71607c2.48973,-0.22634 2.71607,2.26339 2.71607,2.26339c0.01161,0.17398 0.01472,0.34943 0.01529,0.52533c0.16,-0.03213 0.32552,-0.049 0.49498,-0.049c0.64138,0 1.22635,0.24153 1.66891,0.63859l2.242,1.99289l-0.25835,0.29065l0.76603,0.334c0.01309,0.37105 0.08264,0.76421 0.17384,1.16585c0.6504,0.26827 1.32509,0.65829 2.64787,0.87658l0.50971,-0.04855c0,0 2.5,0 2.5,2.5z"></path><path d="M303.63223,210.35325c-1.76777,-1.76777 0,-3.53553 0,-3.53553l1.03452,-0.76479c-2.77023,-0.93597 -5.45336,-2.04958 -8.19523,-3.14625c0,0 -2.32119,-0.92848 -1.39272,-3.24967c0.92848,-2.32119 3.24967,-1.39272 3.24967,-1.39272c3.56443,1.42587 7.01912,2.9005 10.72932,3.90928l1.18272,0.18491c0.3324,0.04527 0.64403,0.15588 0.92151,0.31846c0.0841,0.0449 0.16997,0.09585 0.25534,0.15355c0.44327,0.09201 0.91252,0.34267 1.36408,0.85874c1.64626,1.88144 -0.23518,3.5277 -0.23518,3.5277c-1.62039,1.34624 -3.60186,2.35238 -5.65597,2.82001l0.27748,0.31632c0,0 -1.76777,1.76777 -3.53553,0z"></path><path d="M333.9,155.33549c-2.42254,0 -2.4976,-2.34749 -2.49993,-2.49295c-0.36007,-0.5401 -0.72013,-1.0802 -1.0802,-1.6203c0,0 -0.01523,-0.02285 -0.04011,-0.06536l-0.36583,-0.20336c-1.17795,-2.54464 -2.6683,-3.12159 -4.72189,-5.04242c-5.57735,-5.2168 -12.07792,-8.61179 -17.17348,-14.42935c0,0 -1.64626,-1.88144 0.23518,-3.5277c1.88144,-1.64626 3.5277,0.23518 3.5277,0.23518c6.39542,7.31699 17.04136,11.1749 22.06581,19.56858c0.35717,0.22075 0.69229,0.55689 0.88474,1.06874c0.41604,0.62406 0.83208,1.24813 1.24813,1.87219l0.41987,2.13675c0,0 0,2.5 -2.5,2.5z"></path><path d="M190.66393,212.46745c0.8549,-1.14105 3.06521,-2.86677 4.47262,-2.85958c-0.04752,-2.00661 0.01344,-4.015 0.01344,-6.02239c0,0 0,-2.5 2.5,-2.5c2.5,0 2.5,2.5 2.5,2.5c0,2.16667 0.05219,4.33396 0,6.5c-0.02717,1.12737 0.4684,2.44276 -0.15974,3.37932c-1.60973,2.40011 -3.38518,4.13903 -4.56809,3.55906c0.06619,1.60166 -0.02217,3.20797 -0.02217,4.81163v1.75c0,0 0,0.51667 -0.23488,1.08024c0.39895,0.18052 0.84976,0.25532 1.29837,0.33458l1.17116,-1.19935c0,0 2.28453,-1.01535 3.29988,1.26918c1.01535,2.28453 -1.26918,3.29988 -1.26918,3.29988l-0.81389,-1.77482l0.48988,2.44938c0.03842,0.17418 0.05867,0.35518 0.05867,0.54091c0,1.38071 -1.11929,2.5 -2.5,2.5c-0.99801,0 -1.85943,-0.58479 -2.26029,-1.43041l-0.86237,-1.72475c-0.79649,-0.1743 -1.72789,-0.13237 -2.27168,-0.71173c-2.73202,-2.91072 -2.10565,-6.36313 -2.10565,-9.88312c0,0 0,-1.1303 0.76002,-1.87088c-0.02941,-1.77344 0.06294,-3.40858 0.50392,-3.99715z"></path></g><g><path d="M275.39367,157.72208c0.12673,-0.75707 0.27522,-1.5179 0.47584,-2.28009c-2.14813,-0.33846 -5.22261,-1.10597 -5.95811,-1.62773c-1.73869,-1.23342 -3.27761,-3.04372 -4.57804,-5.01784c-0.92149,-0.50109 -1.80392,-1.05178 -2.54104,-1.7865c-1.15478,-1.15102 -2.96655,-2.99344 -2.78652,-4.55848l-1.92243,-1.44183c-0.62044,-0.45492 -1.02328,-1.18914 -1.02328,-2.01746c0,-1.38071 1.11929,-2.5 2.5,-2.5c0.57191,0 1.09897,0.19204 1.5202,0.51515l1.9798,1.48485c0.442,0.34243 0.92515,0.6411 1.37998,0.96989c1.70246,-0.17204 2.42771,1.56857 2.42771,1.56857c0.26806,0.65042 0.5773,1.34353 0.92479,2.04942c1.01789,0.19553 2.23185,-0.00874 3.25432,0.20997c3.04373,0.65107 5.02922,0.72838 6.88252,3.62607c0.37181,0.58134 0.74325,1.67195 0.97468,2.89707c1.09396,0.2666 1.906,1.25297 1.906,2.42901c0,0.41713 -0.10216,0.8104 -0.28283,1.15616c-0.05179,0.31697 -0.16318,0.6139 -0.3223,0.87891c0.90288,0.95796 0.51703,2.37273 0.51703,2.37273c-1.02119,3.69657 -0.86865,7.18498 -2.54767,10.67481l-0.68804,2.5228c-0.27065,1.0882 -1.25425,1.8946 -2.4262,1.8946c-1.17195,0 -2.15555,-0.8064 -2.4262,-1.8946l-0.73571,-2.69761l0.36664,-0.09999c-0.69338,-1.77897 -0.47824,-3.35167 0.72408,-6.48628l0.5,-1.25c0,0 0.56204,-1.4051 1.90477,-1.59159z"></path><path d="M268.93078,187.33241c-0.85419,-0.2692 -1.44392,-0.54663 -1.86721,-0.84026h-1.00347v-0.04807l-0.12453,0.04496c-1.12641,-0.15242 -2.34726,0.01929 -3.37922,-0.45725c-6.16866,-2.84859 -7.81778,-10.24631 -11.49625,-15.03965c0,0 -1.5,-2 0.5,-3.5c2,-1.5 3.5,0.5 3.5,0.5c0.95212,1.2919 1.88181,3.26589 2.92427,5.309c0.43001,-0.34951 0.97841,-0.559 1.57573,-0.559c0.61475,0 1.17768,0.22189 1.61307,0.58995l2.98739,2.4895l-0.00417,0.00501c0.00907,0.0048 0.01813,0.0096 0.02719,0.01441c1.30252,0.69169 2.47454,1.64061 3.51376,2.70185c2.36542,0.90817 5.93732,2.32435 6.06283,4.5299c0.60748,0.04227 1.21561,0.0811 1.8177,0.15162l-0.23536,1.76777h0.96759v2.5c0,1.38071 -1.11929,2.5 -2.5,2.5c-0.74768,0 -1.4187,-0.32822 -1.87683,-0.84844l-1.64696,-1.85283c-0.45864,0.1239 -0.91315,0.18094 -1.35552,0.04153z"></path><path d="M253.46789,83.65406c-2.41191,0.65779 -3.0697,-1.75412 -3.0697,-1.75412l-0.61349,-2.37215c-0.86643,-1.27251 -1.89868,-2.43445 -2.99237,-3.51788c0,0 -1.76777,-1.76777 0,-3.53553c1.76777,-1.76777 3.53553,0 3.53553,0c1.50109,1.51302 2.83606,3.20169 4.00763,4.98212l0.88651,3.12785c0,0 0.65779,2.41191 -1.75412,3.0697z"></path><path d="M281.06009,93.74215c-2.5,0 -2.5,-2.5 -2.5,-2.5c0,-2.08333 0,-6.91667 0,-9c0,0 0,-2.5 2.5,-2.5c2.5,0 2.5,2.5 2.5,2.5c0,2.08333 0,4.16667 0,6.25v2.75c0,0 0,2.5 -2.5,2.5z"></path><path d="M267.07786,114.25992c-1.76777,1.76777 -3.53553,0 -3.53553,0l0.71498,-0.80809c-0.62237,0.1126 -1.28384,0.25235 -1.974,0.40495c-0.93419,0.97467 -1.87908,1.93458 -3.03946,2.59746c-0.78548,0.44871 -1.80216,0.01622 -2.71333,0.03147c-0.35029,0.03105 -0.70423,0.05977 -1.06027,0.08418c-3.0511,0.32453 -7.78811,1.30763 -10.1932,0.19884c-1.83338,-0.84522 -5.70377,-5.82565 -6.06346,-7.91406c-0.29375,-1.70555 -1.17903,-4.0704 0.14063,-5.19009c2.59253,-2.19967 7.03442,0.99948 8.60434,2.70097c0.96413,1.04493 0.8966,3.12468 2.22118,3.64134c0.69138,0.26967 1.48419,-0.01104 2.22629,-0.0129c3.87816,-0.00971 7.17095,-0.77003 10.95685,-1.46152l3.71498,2.19191c0,0 1.76777,1.76777 0,3.53553z"></path><path d="M232.32786,185.75992c-1.76777,1.76777 -3.53553,0 -3.53553,0l0.13102,0.06236c-4.04579,-2.72494 -8.69571,-3.33257 -13.22314,-4.98266c-5.42824,-1.9784 -10.13992,-5.21019 -15.74578,-6.74846c-5.63745,-2.59322 -11.29316,-6.00695 -15.84428,-10.26593c-1.29361,-1.21057 -2.2123,-2.78315 -3.5,-4c-1.2979,-1.22648 -3.11847,-1.76096 -4.54779,-2.83139c-2.261,-1.69328 -2.36831,-2.59614 -4.12645,-4.59719c-1.81577,-2.06664 -4.11891,-3.21459 -6.05512,-5.0525c-2.54845,-2.41908 -3.85287,-5.21139 -6.63243,-7.39983c0,0 -1.95217,-1.56174 -0.39043,-3.51391c1.56174,-1.95217 3.51391,-0.39043 3.51391,-0.39043c2.83091,2.29415 4.27649,5.16827 6.86757,7.60017c2.0653,1.93841 4.50257,3.25478 6.44488,5.4475c1.03126,1.16421 2.05373,2.95018 3.37355,3.90281c1.58902,1.14695 3.51327,1.83822 4.95221,3.16861c1.30088,1.20275 2.20292,2.79316 3.5,4c4.06839,3.78534 9.12723,6.90384 14.15572,9.23407c5.62385,1.52393 10.32183,4.78109 15.75422,6.75154c4.94597,1.79402 9.81373,2.56737 14.27686,5.51734l0.63102,0.56236c0,0 1.76777,1.76777 0,3.53553z"></path><path d="M196.31009,219.24215c-0.16233,0 -0.31411,-0.01054 -0.45604,-0.03025c0.06492,1.90107 0.20392,3.79489 0.43321,5.69314c0.08704,0.72061 0.15489,1.44907 0.34083,2.1507c0.39116,1.47599 2.4063,3.22987 1.38619,4.36606c-1.37409,1.53044 -4.16251,1.56442 -6.10576,0.89052c-1.30889,-0.45391 -1.37143,-2.41267 -1.93406,-3.67864c-2.38959,-5.37678 -1.41883,-12.38242 1.09956,-17.50956c0,0 0.33176,-0.66351 0.99527,-1.08695c6.3753,-5.82837 6.73625,0.82505 6.7408,5.45498v1.25c0,0 0,2.5 -2.5,2.5z"></path><path d="M270.72972,281.2019c-0.07851,-0.74712 -0.18907,-1.46521 -0.35047,-2.12575c-0.26462,-1.08297 -1.03439,-2.00421 -1.27062,-3.09372c-0.51327,-2.36721 -0.04855,-5.55512 -0.04855,-7.99029c0,0 0,-1.77787 1.49927,-2.33507c-0.01104,-3.71133 -0.17936,-7.77468 -2.50556,-10.92335c-0.5649,-0.76464 -1.65551,-1.08216 -2.11303,-1.9155c-0.66521,-1.21165 -1.02144,-2.61199 -1.1292,-3.99002c-0.10039,-1.28382 1.30543,-5.75827 1.59471,-6.77286c0,0 0.21156,-0.74045 0.81079,-1.28202c-0.47266,-0.27396 -0.93604,-0.54931 -1.37909,-0.76055c-2.24718,-1.07142 -4.06546,-3.80903 -6.14091,-5.17487c-1.13511,-0.74701 -4.04975,-1.56096 -5.17447,-2.07119c-0.73413,-0.33304 -1.44383,-0.71371 -2.13381,-1.12849c-1.56448,-0.45963 -3.07467,-1.06849 -4.28428,-2.20594l-2.69697,-1.47108c-0.80067,-0.4167 -1.34745,-1.25403 -1.34745,-2.21906c0,-1.38071 1.11929,-2.5 2.5,-2.5c0.18573,0 0.36673,0.02025 0.54091,0.05867l2.44938,0.48988l-0.05227,0.26134l0.5824,-0.09215c1.85548,1.33326 3.82639,2.41098 5.80579,3.44542c0.8411,0.22312 1.68758,0.43501 2.5013,0.72778c3.04117,1.09416 5.64519,3.00975 8.43601,4.54748c-0.00322,-0.5145 0.00402,-0.8819 -0.00326,-0.96207c0,0 -0.22634,-2.48973 2.26339,-2.71607c2.48973,-0.22634 2.71607,2.26339 2.71607,2.26339c0.07514,0.82654 0.35464,2.49133 0.50464,4.25929c4.41336,2.3112 8.53884,4.71473 12.27339,8.44928l-3.74169,4.50248c0,0 -2.48471,0.27608 -2.76079,-2.20863c-0.0565,-0.50847 0.00262,-0.92445 0.1324,-1.26449c-2.0296,-1.58989 -4.17132,-2.88787 -6.40027,-4.10017c-0.18173,0.32263 -0.41284,0.57397 -0.70331,0.73203c0.3744,0.86692 0.1097,1.79335 0.1097,1.79335c-0.49667,1.73454 -1.37267,3.42319 -1.40529,5.22714c-0.02308,1.27665 1.51995,2.05237 2.25777,3.09448c0.69467,0.98115 1.05867,2.15948 1.54288,3.25983c1.70885,3.8833 1.95083,7.05885 1.95083,11.23175v2.25c0,0 0,0.86654 -0.51016,1.57928c0.01016,0.10704 0.01016,0.17072 0.01016,0.17072l-0.03402,0.089c0.67597,4.06972 0.77021,7.95978 0.78233,12.03532c0.04677,0.7789 0.07851,1.56349 0.10794,2.33298c0.05968,0.38636 0.11004,0.77029 0.04333,1.12361c0.02716,0.67324 0.05752,1.32602 0.1003,1.94328l-0.10603,0.19343l0.09588,0.00872l-0.24769,2.72461c-0.10234,1.28675 -1.17897,2.29905 -2.49204,2.29905c-1.38071,0 -2.5,-1.11929 -2.5,-2.5v-4.25c-0.42071,-1.63005 -0.21232,-3.34003 -0.08036,-5.04024z"></path><path d="M305.04616,203.61019c-1.11803,2.23607 -3.3541,1.11803 -3.3541,1.11803l-1.66821,-0.84234c-1.48107,-0.89458 -3.03367,-1.68508 -4.64224,-2.32254c0,0 -2.32119,-0.92848 -1.39272,-3.24967c0.92848,-2.32119 3.24967,-1.39272 3.24967,-1.39272c1.85166,0.7466 3.64314,1.65466 5.35776,2.67746l1.33179,0.65766c0,0 2.23607,1.11803 1.11803,3.3541z"></path><path d="M277.3613,205.49369c0.3561,0.01656 2.44879,0.21116 2.44879,2.49846c0,2.5 -2.5,2.5 -2.5,2.5l-0.90779,-0.08809c-1.89496,-0.53473 -4.16193,0.06929 -5.82395,-0.98641c-1.17047,-0.74347 -1.60799,-2.25951 -2.41199,-3.38926c0,0 -1.28624,-2.14373 0.85749,-3.42997c2.14373,-1.28624 3.42997,0.85749 3.42997,0.85749c0.80751,2.212 2.45511,1.49638 4.90748,2.03778z"></path></g></g><path d="M249.44779,115.47457c0.48703,0.16321 0.96519,0.30889 1.43547,0.43682c2.86899,-0.01396 5.69355,-0.13621 8.48001,-0.94923c2.21021,-0.64488 3.84042,-0.45884 5.47838,-1.80127l0.24447,-0.29336c0.22925,-0.27908 0.57703,-0.4571 0.96639,-0.4571c0.69036,0 1.25,0.55964 1.25,1.25c0,0.30738 -0.11095,0.58884 -0.29498,0.80653l-0.82808,0.9937l-0.08661,-0.07218c-0.02121,0.02088 -0.04253,0.04144 -0.06397,0.06169l0.02578,0.14003c-0.05417,0.03657 -0.10859,0.07415 -0.16325,0.11264c0.22695,0.18216 0.41111,0.47779 0.41111,0.95759c0,1.25 -1.25,1.25 -1.25,1.25l-0.3955,-0.02977c-1.1982,0.26621 -2.4057,0.52581 -3.61617,0.74864c-1.28539,0.35322 -2.63436,0.52906 -4.00126,0.56215c-2.81512,0.24514 -5.60864,0.11118 -8.3008,-0.78217c-0.10193,0.00066 -0.20414,0.00104 -0.30664,0.00112l-0.01767,0.15904l-1.48501,-0.165c-0.6326,-0.06181 -1.12695,-0.59518 -1.12695,-1.24402c0,-0.69036 0.55964,-1.25 1.25,-1.25h0.98235c0.48854,-0.74398 1.41293,-0.43585 1.41293,-0.43585z" fill-opacity="0.8" fill="#ece1ff" stroke="none" stroke-width="0.5"></path><path d="M277.20092,193.91343c0.16655,-0.1467 0.95101,-0.75469 1.73548,0.02977c0.10381,0.10381 0.18324,0.20762 0.24258,0.31c0.17701,0.03484 0.35969,0.11687 0.52789,0.27633c0.21151,-0.0842 0.42803,-0.15114 0.64291,-0.22011c1.10251,-1.19762 2.32954,-2.30136 3.5771,-3.23117l0.16113,-0.00173l-0.02788,-0.06505l1.14127,-0.48911c0.15777,-0.0719 0.33311,-0.11195 0.5178,-0.11195c0.69036,0 1.25,0.55964 1.25,1.25c0,0.42534 -0.21244,0.80106 -0.53701,1.02685l-1.15311,0.82365l-0.1597,-0.22357c-0.05642,0.04325 -0.11233,0.08695 -0.16774,0.13107c-0.445,0.4562 -0.90814,0.87536 -1.38092,1.27498c-1.89815,1.9959 -3.2644,4.4216 -5.18891,6.21229l0.31754,0.37047l-1.16137,0.99546c-0.21933,0.1903 -0.50561,0.30547 -0.81878,0.30547c-0.49316,0 -0.91962,-0.28559 -1.12301,-0.7004c-0.41623,-0.09876 -0.7519,-0.40566 -0.89098,-0.80468l-0.48975,-1.30601l0.32165,-0.12062c-0.95468,-2.40717 -0.45021,-4.53984 2.66384,-5.73195z" fill-opacity="0.8" fill="#ece1ff" stroke="none" stroke-width="0.5"></path><path d="M200.05251,211.41042c-1.25,0 -1.25,-1.25 -1.25,-1.25v-0.33333c0.0358,-2.77807 1.59167,-4.79048 2.5894,-7.29757c0,0 0.46424,-1.1606 1.62483,-0.69636c1.1606,0.46424 0.69636,1.62483 0.69636,1.62483c-0.84014,2.09068 -2.45213,4.06976 -2.4106,6.36909v0.33333c0,0 0,1.25 -1.25,1.25z" fill-opacity="0.8" fill="#ece1ff" stroke="none" stroke-width="0.5"></path><path d="M195.88584,221.24376c-1.25,0 -1.25,-1.25 -1.25,-1.25v-1.33333c0,0 0,-1.25 1.25,-1.25c1.25,0 1.25,1.25 1.25,1.25v1.33333c0,0 0,1.25 -1.25,1.25z" fill-opacity="0.8" fill="#ece1ff" stroke="none" stroke-width="0.5"></path></g></g></svg>