<svg version="1.1" xmlns="http://www.w3.org/2000/svg" xmlns:xlink="http://www.w3.org/1999/xlink" width="225.21004" height="289.64872" viewBox="0,0,225.21004,289.64872"><g transform="translate(-102.44001,-23.19506)"><g stroke="none" stroke-width="0.5" stroke-miterlimit="10"><path d="" fill="#170619"></path><path d="" fill-opacity="0.37647" fill="#160a1f"></path><g><path d="M298.86143,67.91126c0.27543,0.85364 0.55409,1.64455 0.89865,2.21412c1.94547,3.21585 4.54099,9.10573 3.09311,13.03771c-1.93225,5.24735 -12.3997,5.74741 -16.54941,3.29975c-2.31544,-1.36574 -3.25103,-5.17792 -4.02141,-7.46004c-0.04629,-5.23706 1.83347,-8.57194 4.07016,-13.09841c0.8109,-1.64104 1.62907,-4.0627 3.99856,-4.38126c0.66963,-0.09003 1.39002,0.07895 2.12078,0.39958c0.29159,-0.46098 0.81855,-0.76881 1.42024,-0.76881c0.38011,0 0.73041,0.12286 1.01037,0.32958l1.46353,1.05659l-0.11923,0.15303l0.29719,-0.00446c0.42069,0.53101 0.84137,1.06202 1.26207,1.59302c0,0 0.51433,0.66013 0.31157,1.38769c0.20921,0.55827 0.39621,1.14882 0.57917,1.72573l0.09478,0.18387c0,0 0.04589,0.13252 0.06986,0.33229z" fill-opacity="0.98431" fill="#400d47"></path><path d="M315.60609,203.95608c-3.54177,0 -3.54177,-3.19885 -3.54177,-3.19885l0.0639,-2.06079c-1.195,-2.56833 -1.71065,-5.05579 -2.30644,-7.78102c-2.04329,-5.50413 -4.64629,-11.29771 -5.95477,-16.99651c-0.88501,-3.85448 -0.47786,-7.9501 -1.19987,-11.82519c-0.76542,-4.10812 -1.57681,-8.27304 -2.61761,-12.34951c-1.5849,-6.20759 -4.2673,-11.55188 -6.66145,-17.46887c0,0 -1.21038,-3.00626 2.11815,-4.09945c3.32854,-1.09319 4.53892,1.91307 4.53892,1.91307c2.46965,6.16846 5.26165,11.78402 6.91535,18.25167c1.07157,4.19096 1.92216,8.48202 2.69506,12.70818c0.69599,3.80558 0.28559,7.85776 1.16131,11.63307c1.29096,5.56554 3.87479,11.20751 5.85114,16.59145c0.65276,2.91566 1.23157,5.42719 2.41592,8.21325l0.0639,3.27064c0,0 0,3.19885 -3.54177,3.19885z" fill="#290b2d"></path><path d="M288.10301,255.31824c-9.54993,2.32855 -23.29105,12.47439 -30.8632,1.18736c-1.72458,-2.57065 -1.89115,-3.86366 -2.33516,-6.82393c-0.13548,-0.90331 -0.23863,-1.80688 -0.31707,-2.71114c-2.1894,3.65691 -5.53477,6.31022 -7.90326,9.83411c-7.00183,6.1585 -18.75022,10.49356 -28.20208,8.9676c-4.81353,-0.77712 -10.00272,-2.00666 -14.73343,-3.26681c-2.6058,-0.69412 -5.7775,-1.28682 -8.39946,-2.57774c-0.46585,0.01635 -2.32759,-0.03415 -2.93424,-1.82581c-0.55826,-0.43958 -1.04572,-1.09474 -1.57137,-1.54865c-2.5741,-2.22275 -2.63934,-2.63281 -4.05252,-5.10883c-0.94753,-0.53815 -1.92923,-1.0382 -2.63743,-1.84743c-3.0315,-3.46395 -4.75902,-11.32487 -5.23596,-15.75972c0,0 -0.19493,-1.94925 1.3271,-2.82061c0.00291,-0.14653 0.01384,-0.23401 0.01384,-0.23401c1.24689,-9.7959 6.52648,-19.20618 12.25453,-27.20065c2.53433,-3.5371 5.85799,-6.04324 8.81616,-9.1381c1.84361,-1.92879 3.49039,-4.06744 5.53208,-5.78518c5.66981,-4.77017 11.96877,-8.04614 16.98919,-13.48059c14.91741,-6.52131 32.93281,-5.75812 49.06888,-4.46785c0.36057,-0.07558 0.61644,-0.07558 0.61644,-0.07558c5.80807,0.00958 10.24102,1.17688 15.72004,2.77471c1.94078,0.56598 4.03899,0.77217 5.84536,1.65769c1.1351,-1.82246 3.35326,-1.08307 3.35326,-1.08307l1.63181,0.70255c1.69739,1.27344 3.64811,2.24835 5.13577,3.7615c2.28915,2.32839 2.81227,5.55159 4.5964,8.13639c0.63063,0.91365 1.61501,1.5572 2.19879,2.50147c0.58454,0.94549 1.06393,1.96282 1.47578,3.02215c0.63553,0.94601 1.2341,1.93058 1.7917,2.95941c1.95612,3.60926 2.55432,7.80953 3.93947,11.66975c0.12918,0.21406 0.25033,0.43223 0.36005,0.65622c1.25626,2.56466 1.56351,5.05983 2.02049,7.79298c0.01891,0.06309 0.03783,0.12619 0.05677,0.18931l0.04595,0.41208c0.01091,0.06237 0.02194,0.12486 0.0331,0.18748c0,0 0.02831,0.16042 0.03377,0.41231l0.01084,0.09728c0,0 0,0.11334 -0.02229,0.29545c-0.04651,0.57856 -0.24291,1.35307 -0.8896,1.91863c-0.12871,0.12253 -0.27558,0.23554 -0.44319,0.33391c0.17544,1.09554 -0.08226,2.23236 0.01223,3.34129c0.18708,2.19543 0.37599,4.31721 0.50438,6.40309c2.43789,0.30953 2.43789,2.90218 2.43789,2.90218l-0.00083,2.73547c-0.2882,5.53992 -1.05702,11.89174 -5.03331,16.3046c-1.86022,2.06446 -4.37691,3.21308 -7.00866,3.75506c-2.40934,0.95773 -4.34958,1.19036 -7.42375,1.18895l-3.52709,0.50387c-0.15133,0.02409 -0.30651,0.03661 -0.46462,0.03661c-1.31834,0 -2.43349,-0.87002 -2.80259,-2.06723c-3.02065,0.11902 -5.94709,0.43193 -9.02099,1.18143z" fill="#54115f"></path><path d="M305.8898,174.39925c0.91489,1.82093 0.36955,2.52088 0.78259,4.21072c0.42227,1.72765 1.64623,3.04993 2.2668,4.66656c0.6082,1.5844 0.90278,3.29485 1.66337,4.812c0.47522,0.94794 1.34215,2.20502 1.72282,3.49187c0.40469,0.44497 0.62313,0.94893 0.56113,1.50487c-0.05086,0.45614 -0.34058,0.80157 -0.73752,1.07783c-0.06042,0.10501 -0.12916,0.20879 -0.20683,0.31114c-0.26112,0.34411 -0.65745,0.39888 -1.10781,0.32681c-0.24437,0.09238 -0.48401,0.17716 -0.70171,0.25976c-2.03949,0.77381 -5.51938,-0.38185 -7.45926,-0.90957l-0.08868,-0.07432l-0.01466,0.03421l-0.09471,-0.04058c-4.44515,-0.0876 -9.03573,-2.68043 -13.32135,-3.25287c-6.91536,-0.9237 -15.24158,-0.18923 -22.13385,0.43548c-11.64984,0.02483 -23.43346,0.05616 -34.87063,2.51238c-5.93959,1.27558 -12.23298,4.43896 -18.37365,4.50334l0.0547,0.43762l-1.68103,0.21013c-0.07301,0.0102 -0.1476,0.01548 -0.22342,0.01548c-0.88334,0 -1.59943,-0.71608 -1.59943,-1.59943c0,-0.4982 0.22778,-0.9432 0.58488,-1.23654l1.19765,-0.99804c2.12691,-2.42562 4.67404,-4.26962 7.3293,-5.98804c-0.50642,0.18413 -1.01092,0.37579 -1.51337,0.5755l-0.21112,-0.02587l0.02014,0.08056l-3.13506,0.78376c-0.24687,0.06747 -0.50671,0.1035 -0.77498,0.1035c-1.61945,0 -2.93228,-1.31283 -2.93228,-2.93228c0,-0.31987 0.05122,-0.62779 0.1459,-0.91598c-2.01213,-4.3028 -3.29771,-8.83738 -3.3426,-13.59139l-0.00003,0.00001c0.46726,-6.00813 2.06755,-11.8263 2.9759,-17.73073c1.78575,-11.60752 2.35337,-23.74778 2.35337,-35.47098c0,-6.35891 0.17107,-12.49272 -1.73633,-18.59735c0,0 -0.86235,-2.80261 1.94028,-3.66496c0.54689,-0.16827 1.01988,-0.197 1.42702,-0.13422c0.3213,-1.2414 0.7273,-2.37883 1.19817,-3.44878c0.03794,-0.44293 0.0759,-0.88587 0.11387,-1.3288c0,0 0.14131,-1.64867 1.45012,-2.36288c1.50158,-4.40434 3.7874,-8.52288 6.32911,-11.58855c0.98566,-1.18885 2.04963,-2.22727 3.11391,-3.24169c0.68746,-1.12718 1.46376,-2.21255 2.41696,-3.22078c0.88851,-0.93981 1.82701,-1.82322 2.809,-2.64861c0.12243,-0.19793 0.2418,-0.40033 0.35782,-0.60759c1.83713,-1.87067 3.50811,-2.86436 5.76086,-4.15157l1.30495,-0.78297c0.20441,-0.12753 0.44587,-0.20121 0.70454,-0.20121c0.18614,0 0.36338,0.03816 0.5243,0.10708c0.46841,-0.35047 0.95286,-0.67958 1.45566,-0.98342c0,0 0.89799,-0.53879 1.5796,0.13478c7.08818,-2.33452 14.88831,-2.47628 22.08711,-0.10151c9.36175,4.67052 21.29626,10.75521 22.50527,22.16217c0.54014,0.74484 0.61853,1.60711 0.61853,1.60711c0.32258,3.60829 0.8283,7.22628 1.33954,10.81605c1.87136,0.60442 1.87136,2.77799 1.87136,2.77799l-0.00649,0.60466c0.14524,2.19983 0.34082,6.65401 0.93633,8.64095c0.79287,2.64545 2.20446,5.20798 2.26686,7.96899c0.00403,0.17837 0.01744,0.36105 0.03591,0.54635c1.83225,0.62186 1.83225,2.76504 1.83225,2.76504v0.26657c0,5.17776 -0.52635,11.03933 0.24461,16.16914c0.7348,4.88929 3.17933,9.16534 4.89128,13.64132l1.15938,2.08689l-0.13074,0.07264l0.30227,0.29353c1.54532,6.41277 2.89202,12.41657 1.46889,18.98211c-0.04688,0.21632 -0.09677,0.43431 -0.14995,0.65327c0.34986,0.39603 0.64727,0.79149 0.84315,1.18136z" fill="#1b071e"></path><path d="M164.30071,254.41753c-1.48219,1.30162 -2.43676,3.1718 -3.77692,4.58392c-2.02609,2.13487 -4.93208,4.54166 -7.36535,6.24748c-3.69373,2.58945 -7.44007,4.37231 -11.36982,6.0118c-0.54664,-0.1972 -1.08233,-0.09675 -1.08233,-0.09675c-0.26639,0.04998 -0.5322,0.10144 -0.79746,0.15414c-1.94227,-0.09576 -4.16191,0.08047 -4.98979,0.08047c-1.67073,0 -3.34146,-0.00018 -5.01219,-0.00035c-1.75595,-1.81828 -3.81798,-3.23043 -5.04917,-5.56961c-0.52349,-0.99461 -0.56784,-2.19146 -1.06628,-3.19885c-2.72118,-5.49972 -6.45084,-10.71483 -8.43455,-16.65458c-0.97816,-2.92887 -1.37485,-6.0926 -2.39997,-9.06581c-0.67849,-1.96785 -1.99928,-3.67318 -2.68007,-5.64024c-0.95557,-2.76103 -1.19405,-6.54431 -1.21518,-9.4528c0,0 0,-0.40862 0.15254,-0.92079c-0.23016,-3.34982 0.14698,-6.61071 0.38627,-10.19082c0.62887,-9.40859 1.92093,-19.99348 5.84967,-28.74243c3.08179,-6.86288 7.09513,-13.07193 9.80125,-20.11081c0,0 0.30612,-0.79591 1.01741,-1.36423l1.50617,-2.00823l0.11908,0.08931c0.07993,-0.17227 0.16719,-0.34156 0.26288,-0.50744c0.51698,-0.89622 6.5689,-3.59668 7.1868,-3.80944c1.96262,-0.6758 4.01634,-0.91313 6.09431,-1.00602c4.63975,-1.03418 9.43367,-1.41856 14.27929,-1.51263c0.61636,-0.12054 1.23586,-0.21981 1.86138,-0.27921l0.61521,-0.16691c10.5238,-7.60493 18.26292,-17.6509 26.75788,-27.35721c3.17369,-3.62624 5.5097,-7.65269 8.93861,-11.08162c1.22325,-1.22325 2.14484,-2.86183 3.67982,-3.65965c0.0864,-0.0449 0.17355,-0.08779 0.26141,-0.12879l-0.02891,-0.04337l2.36579,-1.57718c0.26836,-0.18461 0.56899,-0.3257 0.8917,-0.41306c0.0858,-0.58185 0.34251,-1.10806 0.71748,-1.52599l2.11666,-2.38125c0.32305,-0.74975 1.1811,-1.14594 1.63065,-1.8274c1.4088,-2.13562 2.79426,-4.28753 4.25747,-6.38624c1.43601,-2.05969 2.36999,-4.44045 3.80417,-6.5014c0.21976,-0.3158 1.57738,-1.8079 2.61253,-3.00256c0.41515,-0.56105 0.83901,-1.1116 1.27345,-1.649c1.30971,-2.58481 0.26718,-3.83917 2.73026,-6.27697c0.23041,-0.22806 0.4485,-0.43616 0.65618,-0.62595c3.37795,-6.60882 12.00719,-12.12197 17.57417,-15.76274l0.46645,0.0473l-0.06078,-0.20258l2.60043,-0.78013c0.28586,-0.09299 0.59099,-0.14324 0.90787,-0.14324c0.06494,0 0.12937,0.00211 0.19325,0.00627l3.39652,-0.72782c0.21682,-0.05111 0.44293,-0.07816 0.67537,-0.07816c1.61945,0 2.93228,1.31283 2.93228,2.93228c0,0.95167 -0.45336,1.79746 -1.1559,2.33316l-2.09053,1.62597c-1.34927,2.10148 -1.90429,4.32544 -2.085,6.62055v3.01545c0.28167,1.32101 0.25973,2.72123 0.16736,4.13816c0.038,0.61905 0.07251,1.2394 0.0962,1.86011c0.08041,2.10705 -0.25454,4.60449 0.39803,6.70752c1.18524,3.81962 7.18588,7.99456 5.23442,12.29879c-1.49312,8.03772 -3.33324,16.00489 -4.87484,24.02374c-0.41394,2.15317 -0.51843,4.37675 -1.14944,6.47657c-3.276,10.90135 -6.62983,21.71991 -10.33636,32.49165c-0.09854,0.13349 -0.19562,0.26806 -0.2913,0.40367c-0.04921,0.21479 -0.09888,0.34522 -0.09888,0.34522l-0.99131,2.60266c-4.89681,11.9422 -12.28049,21.98881 -20.25839,32.04831c-2.21019,2.78688 -4.23723,7.03317 -7.14218,9.61498c-0.17843,0.34329 -0.35235,0.55199 -0.35235,0.55199c-4.77959,5.73276 -9.34007,11.63 -14.13452,17.3346c-1.35636,1.61383 -2.10844,3.65658 -3.30685,5.39093c-3.30969,4.78984 -8.12571,9.52347 -12.46975,13.32457l-0.28037,0.28696c-3.09283,3.72058 -6.58556,5.67615 -10.12198,8.78176z" fill="#290b2d"></path><path d="M197.88255,208.22347c0.88412,-1.84977 1.96156,-3.60567 3.08092,-5.32333c0.54663,-0.83881 1.15249,-1.48656 1.76786,-2.07172l-0.10321,-0.33777c0,0 0,-2.93228 2.93228,-2.93228c0.00759,0 0.01517,0.00002 0.02273,0.00006l0.50667,-1.48001c2.86759,-6.16793 7.4485,-11.65645 11.11814,-17.41057c1.02159,-1.60189 1.40391,-3.54213 2.32362,-5.20461c3.07137,-5.55194 5.59255,-11.46886 8.89966,-16.90312l0.13534,-0.73833c1.78681,-5.98971 5.4277,-11.34216 6.64126,-17.4895c1.7057,-8.64034 2.103,-18.48149 5.18897,-26.82746c1.73695,-4.69756 3.5358,-9.45752 5.34473,-14.16356c0,0 1.05263,-2.73683 3.78946,-1.68421c0.92963,0.35755 1.42204,0.90942 1.667,1.48235c0.97931,1.03431 0.6985,2.57873 0.6985,2.57873c-1.32411,7.27241 -2.39605,14.59867 -3.73127,21.85481c-0.91762,4.98677 -3.36201,9.46599 -4.8855,14.21682c-0.79943,2.49289 -0.78957,5.3096 -1.23804,7.86461c-0.54361,3.09702 -1.58377,6.01881 -2.14089,9.11143l-0.24874,1.75614c0,0 -0.15825,1.10776 -0.96356,1.85689c-0.87153,3.13473 -1.91515,6.23829 -3.28287,9.10292c-1.54065,3.22688 -3.78753,6.10119 -5.3333,9.33398c-0.95868,2.00496 -1.11,4.35974 -2.21286,6.28914c-0.80901,1.41534 -2.17473,2.43796 -3.12083,3.7656c-2.13723,2.99909 -3.48417,6.21571 -5.87432,9.01927c-0.86582,2.37332 -1.80662,4.80118 -2.99387,6.92914c-1.09349,1.9599 -2.92948,3.40597 -4.26678,5.20833c-2.06275,2.78008 -3.13779,6.01021 -5.42746,8.64695c-1.28149,1.47574 -2.98848,2.5682 -4.15801,4.13417c-1.09377,1.46452 -2.43657,4.83957 -3.68723,6.12028c-0.85816,0.87878 -2.167,1.19854 -3.08634,2.01308c-1.74616,1.54712 -2.78859,4.15312 -4.26018,5.85608c-2.12713,2.46157 -5.04234,4.24428 -7.34199,6.55314c-0.71086,0.71086 -1.42171,1.42171 -2.13257,2.13257l-0.52732,0.75222c0,0 -0.74077,0.98769 -1.90186,1.20063c-2.44627,2.20846 -4.96482,4.3107 -7.41584,6.26601c-0.20909,0.1668 -0.42205,0.32819 -0.63819,0.48514c-6.04897,5.68532 -12.37983,11.03153 -19.32718,15.41384c-4.38184,2.76402 -10.73347,7.57258 -16.56793,6.6341l-0.56759,0.1419l-0.01465,-0.05862c-1.24828,0.42375 -2.60752,0.42223 -4.6362,-0.29887c-1.27425,-0.45294 -2.25269,-1.49698 -3.37902,-2.24547l-0.02842,-0.0422l-0.01027,0.01369l-2.10527,-1.57895c-0.72773,-0.53358 -1.20021,-1.39476 -1.20021,-2.3663c0,-1.01715 0.51789,-1.91334 1.30436,-2.43926c-0.72286,-0.42769 -1.12523,-1.07149 -1.12523,-1.07149l-0.82786,-1.32467c-1.36628,-1.70694 -2.01983,-3.5208 -2.87352,-5.37153c-0.31269,-0.5892 -0.6457,-1.16611 -1.02045,-1.71798c-0.65611,-0.96621 -1.9066,-1.50248 -2.38255,-2.56903c-0.48497,-1.08675 -0.25014,-2.36363 -0.42491,-3.54487c-0.28227,-0.57006 -0.53105,-1.14976 -0.73352,-1.74206c-0.05665,-0.16573 -0.41957,-1.93789 -0.77371,-3.69415c-0.79157,-2.3852 -1.69072,-4.76371 -2.45472,-7.05309c0,0 -0.05936,-0.17807 -0.10298,-0.45913c-0.04749,-0.28043 -0.04749,-0.46814 -0.04749,-0.46814l0.00414,0.00955c-0.00154,-0.04595 -0.00224,-0.09299 -0.00197,-0.14096c-1.78018,-6.48955 -3.69503,-12.54548 -3.73416,-19.32829c0.00683,-7.56599 1.96629,-13.53603 4.72168,-20.49797c1.97337,-4.98604 2.53725,-10.54256 4.23282,-15.63796c1.87887,-5.64619 5.62154,-9.95913 8.12455,-15.24061c0.90005,-1.89914 1.72346,-3.86892 2.96711,-5.56307c0,0 1.12564,-1.50086 2.77669,-1.2012c0.29769,-0.26544 0.54423,-0.40242 0.54423,-0.40242c0.81838,-0.4544 1.63678,-0.90879 2.45516,-1.36319l0.06879,-0.00487l-0.01212,-0.02424l2.61295,-1.30648c0.40748,-0.21454 0.87162,-0.33595 1.36412,-0.33595c1.61945,0 2.93228,1.31283 2.93228,2.93228c0,0.80973 -0.3282,1.5428 -0.85885,2.07343l-1.99016,1.99016c-1.54149,2.98706 -4.43814,4.05157 -6.20343,6.67004c-1.53245,2.2731 -3.12432,5.57991 -4.27299,8.07478c-0.54375,1.18103 -0.88093,4.40107 -1.18376,5.4607c-0.78261,2.73845 -1.799,5.67347 -2.70336,8.38464c-2.69806,8.0886 -4.64629,14.97114 -4.64629,23.59275c0,2.13257 0,4.26514 0,6.39771v0.79971c0,0 0,0.04839 -0.00622,0.13273c-0.00145,0.08456 -0.00582,0.13274 -0.00582,0.13274c-0.41422,4.55606 -1.1152,9.60756 -0.19645,14.22703c0.74164,0.86218 0.74164,2.03491 0.74164,2.03491l-0.0208,0.56891c0.03607,0.09902 0.07314,0.19772 0.11122,0.29611c0.39362,1.01682 1.18092,1.85029 1.57484,2.86699c2.15913,5.57281 2.73402,11.38912 7.6056,15.52024l1.99933,2.27509c0,0 1.14602,1.30974 0.66326,2.79407c0.58859,0.28589 1.15725,0.59649 1.64155,1.00614c2.33999,0.02513 5.12764,0.16357 7.33221,-0.64429c5.21287,-1.91024 10.53915,-5.76228 14.98305,-8.94826c3.88465,-2.78503 8.73655,-4.29183 12.65179,-7.07629c4.3407,-4.04832 8.52066,-8.29695 12.70363,-12.46531c0.27209,-0.35126 0.54595,-0.69973 0.82134,-1.04579l0.38574,-1.67154l0.17427,0.04022c0.02314,-0.26828 0.06158,-0.53578 0.11821,-0.80235c0.31723,-1.49324 2.08584,-2.22999 3.15697,-3.31767c3.03989,-3.0869 4.05658,-6.53025 7.91069,-9.16309c0.00002,-0.00004 0.00005,-0.00009 0.00007,-0.00013l-0.28001,0.01355c0,0 0.25973,-0.38959 0.72728,-0.75362c0.49714,-0.79697 1.03913,-1.56922 1.69505,-2.27945c0.10246,-0.11094 0.46812,-0.43788 0.95717,-0.86625c0.61427,-1.37976 0.85657,-2.9634 1.51216,-4.33503z" fill="#51165a"></path><path d="M299.41495,142.6877c0.06142,-0.03071 0.12211,-0.05925 0.18209,-0.08573c-0.00831,-1.36619 0.03367,-2.73583 -0.17524,-4.08226c-0.67376,-4.34237 -2.49994,-8.5766 -3.42565,-12.84036c-0.21087,-0.97124 0.06227,-2.01789 -0.20791,-2.97432c-0.79228,-2.80455 -3.04551,-5.59099 -3.78032,-8.44287c-0.96295,-3.73727 -0.61159,-8.53103 -0.61159,-12.40283c0,0 0,-2.93228 2.93228,-2.93228c0.79843,0 1.37946,0.2174 1.80228,0.53382c0.02119,-0.00045 0.04243,-0.00068 0.06372,-0.00068c1.17058,0 2.18095,0.68591 2.65113,1.67775l1.30445,2.60889l-0.03465,0.01733l0.07824,0.07372c3.80514,9.15466 5.39158,18.33326 6.12197,28.18635c0.18217,2.45765 1.28642,8.01849 0.83212,11.1805c0.68232,3.53814 1.33433,7.08411 1.9554,10.63873c0.05021,-0.00181 0.10132,-0.00274 0.15336,-0.00274c2.93228,0 2.93228,2.93228 2.93228,2.93228c0,2.55623 0.20813,4.87445 0.4865,7.22603c0.36529,0.70044 0.72223,1.40452 1.06488,2.11541c1.81903,3.77391 1.17408,8.03488 1.87284,12.0276c0.69993,3.99934 2.00474,7.87835 2.89739,11.82185c0.91296,4.03321 1.64328,7.60769 2.18115,11.7255c0.19197,1.46969 1.19162,4.54805 0.54639,6.02108c-0.03978,0.09084 -0.08118,0.18077 -0.12405,0.26986l0.08138,0.01627l-0.52249,2.61244c-0.24615,1.37052 -1.44462,2.41049 -2.886,2.41049c-1.61945,0 -2.93228,-1.31283 -2.93228,-2.93228v-2.57081c-0.17079,-2.08584 -1.20856,-4.01085 -1.77318,-6.02724c-0.53699,-1.91776 0.1888,-4.03463 -0.29113,-5.96746c-0.30659,-1.23475 -1.33425,-2.22112 -1.59943,-3.46543c-0.29449,-1.38184 0.10329,-2.83305 -0.04232,-4.2384c-0.18838,-1.81814 -1.49677,-3.34659 -2.0204,-5.09786c-1.12378,-3.75844 -1.17529,-7.97144 -1.53378,-11.89126c-1.70646,-0.43723 -2.02988,-2.37773 -2.02988,-2.37773l-0.27237,-1.63562c-0.31415,-2.04304 -0.6627,-4.0812 -1.03234,-6.11575c-0.93167,-1.86051 -1.81419,-3.75331 -2.5996,-5.71562c-0.6928,-3.40293 -2.40421,-4.96418 -3.47591,-8.29789l-0.08066,-0.06437c0,0 -1.31136,-2.62271 1.31136,-3.93407z" fill="#51165a"></path><path d="M277.40146,250.01563c4.70252,-2.2338 10.18622,-3.23526 14.89252,-5.58035c2.82819,-1.40926 7.35118,-3.75682 10.77865,-2.19554c2.01266,0.9168 3.13807,3.03208 3.84407,5.26717c0.81897,0.52009 1.36247,1.43513 1.36247,2.47713v2.66571h-0.25428l0.20499,0.53531c-0.07598,0.20443 -0.15173,0.40955 -0.22729,0.6153l0.00999,0.44882c0,0 0,1.42953 -0.99813,2.29232c-1.44338,4.05577 -2.88552,8.23527 -4.63147,12.05796c-0.13757,0.3012 -0.31954,0.5774 -0.51644,0.8453c-0.23978,1.39338 -0.42128,2.79229 -0.53009,3.9943c-0.15009,1.65797 -0.35869,3.857 -0.22172,5.91205c1.17041,1.38077 2.50374,2.66213 4.06931,3.53063c0.97882,0.54299 2.24489,0.59649 3.07667,1.34552c2.33053,2.09869 3.67409,6.65776 3.07384,10.43794c0.00651,0.02001 0.01312,0.03999 0.01979,0.05991l-0.14476,2.31554c0.00123,0.04153 0.00186,0.08369 0.00186,0.12646c0,1.15286 -0.45326,1.85246 -1.00337,2.27701c-0.46141,0.42845 -1.13252,0.74133 -2.10052,0.65527c-0.56244,0 -1.1249,0 -1.68734,0c-0.35886,0.07075 -0.74259,0.09565 -1.13146,0.11105c-0.10527,0.01954 -0.20949,0.04105 -0.31233,0.06517l-0.12077,0.03341c0,0 -0.01448,0.0029 -0.0416,0.00725c-0.00297,0.0008 -0.00595,0.00159 -0.00892,0.0024c0,0 -0.20903,0.038 -0.52479,0.03729c-0.15681,0.00033 -0.33711,-0.00879 -0.52973,-0.03601l-2.3771,0.5646c-9.83239,0.97045 -20.00175,0.28113 -29.88118,0.28113c-2.32831,0 -8.65434,0.98159 -10.30048,-1.21458c-0.15388,-0.20529 -0.26855,-0.42664 -0.35368,-0.6601l-0.21613,0.21613l-2.13257,-2.13257c-0.43709,-0.43709 -0.73683,-1.01153 -0.82893,-1.65302c-0.66841,-0.53745 -1.09619,-1.36198 -1.09619,-2.28641c0,-0.24908 0.03106,-0.49091 0.0895,-0.72182l0.74486,-3.22774c-0.25786,-2.46052 1.11633,-5.47327 1.63907,-7.63578c0.08649,-0.35776 0.17356,-0.71399 0.26129,-1.0688c0.20139,-2.51649 0.69921,-4.69096 1.38026,-6.85245c0.06164,-0.39364 0.12204,-0.78657 0.18122,-1.17863c0.14806,-0.98092 -0.2088,-2.02128 0.06267,-2.97545c0.47261,-1.6611 1.79615,-2.93479 2.73671,-4.39749c0.58116,-2.17806 1.0801,-4.40086 2.45996,-6.12448l1.30672,-3.13614c0.42624,-1.09288 1.48912,-1.8672 2.73286,-1.8672c0.25975,0 0.51161,0.03377 0.75143,0.09717c2.05452,-1.63576 4.29263,-3.28665 6.49054,-4.33072z" fill="#170619"></path><path d="M191.41436,254.2936l1.30388,-0.9731c1.18716,-0.9893 4.73349,-4.08542 5.88523,-4.22263c1.16211,-0.13845 2.13609,0.87882 3.22103,1.38595c2.60875,-0.17083 5.22384,0.18874 7.78082,1.00158c1.44203,0.07989 2.86755,0.20659 4.21992,0.54149c4.93353,1.22171 8.63096,4.23201 13.82503,4.16826c0,0 1.89659,0 2.63915,1.5253c0.03234,0.03455 0.06324,0.06975 0.09276,0.10551c0.39206,0.43407 0.66557,1.07497 0.61856,2.02122c-0.01044,0.20999 -0.03516,0.40495 -0.07208,0.58594c-1.12122,7.56673 -3.29837,15.0345 -5.36902,22.4977c0.38295,3.90365 0.81376,7.81758 0.77731,11.7043c-0.02162,2.30627 -0.11533,5.1112 -1.66371,7.12145c-2.05219,2.66435 -4.31114,3.16362 -6.83384,3.45584c-1.00425,0.8054 -2.38991,1.02667 -3.67423,1.41693c-12.43275,1.16957 -24.61813,-0.05391 -37.0334,-0.28323c-0.46569,-0.2748 -0.85048,-0.62442 -1.07954,-1.11805c-0.17547,-0.37813 -0.29919,-0.74461 -0.37772,-1.10022c-0.45979,-1.13004 -0.30417,-2.53083 -0.5344,-3.76185l0.37326,-0.51695l-0.28775,-0.05812l0.65229,-2.61244c0.15919,-0.69424 0.55852,-1.30366 1.10121,-1.73606c0.155,-0.96859 0.33241,-1.93476 1.0139,-2.59119c0.17753,-0.171 0.36151,-0.33317 0.55107,-0.48773l-0.1062,-0.10112l2.24197,-2.33836c0.17326,-0.60531 0.35509,-1.2079 0.5451,-1.81135l0.21088,-1.58532l0.06728,0.00563c-0.00474,-0.10913 -0.00683,-0.21875 -0.00606,-0.32888c0.00548,-0.77538 1.22112,-3.71597 2.24254,-6.07547c0.01553,-0.05078 0.03105,-0.10155 0.04655,-0.15233c0.08623,-0.54781 0.20105,-1.08299 0.47213,-1.5591c1.05813,-3.52468 2.05325,-7.05434 2.94836,-10.5959c0.86102,-3.40667 0.99651,-6.96446 1.85407,-10.41519c0,0 0.32834,-1.31503 1.42142,-1.98858c0.16554,-0.31656 0.37231,-0.57689 0.5538,-0.7705c0.21144,-0.2282 0.37842,-0.35342 0.37842,-0.35342z" fill="#170619"></path><path d="M257.37059,177.27223c-2.34449,-5.73174 4.05752,-10.98579 9.45684,-8.01771c1.39056,0.76442 1.78472,1.94389 2.44364,2.8583c0.60845,-1.01713 1.54825,-2.66764 2.44025,-3.33085c1.64255,-1.22124 5.74977,-2.20708 7.37188,-0.15701c1.06535,1.34641 0.13171,3.3133 -0.11298,4.67933c-0.48544,2.71002 -0.49625,4.82101 -1.1699,6.81046c-0.44297,2.28679 -3.47592,5.61463 -4.61945,7.44417l-0.04274,0.03005l0.0147,0.0105l-1.05389,1.47545c-0.2889,0.4153 -0.76965,0.68712 -1.3139,0.68712c-0.48887,0 -0.92651,-0.21932 -1.21989,-0.56495c-0.17657,0.09649 -0.3495,0.14692 -0.51426,0.16487c-0.29718,0.03532 -0.64413,-0.02659 -1.03286,-0.26955c-0.20345,-0.12715 -0.35731,-0.26576 -0.47187,-0.40951c-0.39906,-0.33254 -0.7981,-0.66508 -1.19716,-0.99763c0,0 -0.00292,-0.00243 -0.00836,-0.00721l-0.62293,-0.41083c-2.17446,-2.63239 -4.6806,-4.29152 -6.17811,-6.93592c-0.89696,-0.91355 -1.6903,-1.8888 -2.16899,-3.0591z" fill="#99712b"></path><path d="M302.66757,298.30998c0.42891,0.00001 0.85817,-0.00013 1.28781,-0.00014l0.01732,-0.20773l2.54401,0.212c0.82835,0.06028 1.48168,0.75142 1.48168,1.59516c0,0.88334 -0.71608,1.59943 -1.59943,1.59943h-2.34583c-4.00631,0 -7.97939,0.00922 -11.96233,-0.1692c-1.36329,0.01764 -2.72613,0.0388 -4.08889,0.06011c-0.31582,0.10909 -0.58282,0.10909 -0.58282,0.10909c-2.40598,0 -5.58612,0 -8.42541,0l-0.37761,0.21577l-0.08949,-0.15662l-0.29353,0.31376c-5.76837,0.14603 -11.26335,-0.3059 -16.96996,-1.0176c-1.34231,-0.06342 -2.7982,-0.31881 -3.05518,-1.22069c-1.03257,-3.62385 3.27643,-3.56453 4.82741,-3.67768c5.42755,-0.39594 10.60208,1.24185 15.92846,1.91767h0.35154c0.02899,0 0.05781,0.00077 0.08642,0.00229c0.3977,-0.00077 0.79542,-0.00154 1.19312,-0.00229h0.42651c0,0 0.52457,0 0.97288,0.30042c6.73675,-0.33473 14.18324,-1.13696 20.67333,0.12625z" fill="#99712b"></path><path d="M250.33276,56.33284c5.93657,-6.78837 17.33274,-11.2505 26.59791,-9.02083c6.50439,1.56527 6.02013,4.22207 9.35271,6.80536c2.25909,1.75116 5.33631,3.05049 6.10782,6.02114c0.94708,3.64666 -0.04715,8.79154 -0.21358,12.41621c-0.3435,0.52599 -0.3435,1.11962 -0.3435,1.11962c0,2.68931 0.23123,5.58889 0.33488,8.46374c-0.43888,0.91304 -0.87983,1.83855 -1.30509,2.79918c-0.67608,1.52723 -2.31183,2.66347 -2.61406,4.2979c-0.01567,0.08477 -0.02915,0.16968 -0.04059,0.2547l-0.05953,-0.0191l-0.25598,0.73922c-5.80665,6.2017 -13.73377,4.42669 -22.39404,3.98447c-3.0533,-0.1559 -8.69755,-9.8852 -9.22863,-12.41c-0.15586,-0.74095 -0.46908,-1.90862 -0.50215,-2.95571c-4.04627,-3.37799 -8.27242,-6.95028 -8.95112,-11.36509c-2.2965,-4.00235 1.18723,-8.46912 3.51495,-11.13083z" fill="#671b72"></path><path d="M220.67822,58.72169l0.82635,-0.38506c0.23481,-0.08281 0.45589,-0.16873 0.6644,-0.2578c1.79799,-1.98389 3.41846,-4.11441 4.81782,-6.36667c0.12417,-0.26471 0.25718,-0.53657 0.40186,-0.81572c0.61353,-1.18369 1.26364,-2.3414 1.92685,-3.48921c0.90628,-1.95447 1.64711,-3.97989 2.19872,-6.06269c0,0 0.01993,-0.07671 0.03546,-0.20283c0.51895,-0.6361 1.05923,-1.26066 1.61302,-1.87789c0.15061,-0.80449 0.31341,-1.60589 0.64681,-2.34565c1.61216,-3.5771 4.37709,-4.43988 6.92897,-7.03674c0.88378,-0.89935 1.41266,-2.1429 2.46048,-2.86067c1.96078,-1.34317 4.46927,-1.7199 6.70359,-2.58055c0,0 0.63329,-0.24384 1.44653,-0.24061c0.0315,-0.00428 0.0631,-0.00844 0.09479,-0.0125c3.7148,-0.47538 7.44055,0.41526 11.1318,0.54889c0.08324,0.10378 0.1633,0.21128 0.24004,0.32264c0.18785,0.2726 0.34028,0.56326 0.47335,0.86384c0.4051,0.27534 0.81474,0.48981 1.26204,0.39836c1.49624,-0.30589 2.69507,-1.49409 4.19197,-1.79704c2.37254,-0.48015 3.25933,0.24121 5.51756,-0.79992l0.70979,-0.2746c0.36291,-0.24726 0.75307,-0.28064 1.07859,-0.23917c0.33083,0.00901 0.71389,0.10317 1.03278,0.40858c4.48067,2.67151 7.69704,6.03809 10.32228,9.80848c3.26631,1.28623 5.83905,6.07253 7.42149,8.86389c3.64218,6.42461 7.61491,12.94928 7.13557,20.29712l0.03734,0.17969c0.02619,0.11427 0.03999,0.23303 0.03999,0.35487c0,0.28775 -0.07699,0.55819 -0.21219,0.79327c-0.0535,0.38714 -0.11979,0.77661 -0.19953,1.16853l-0.24367,0.74372c0,0 -0.53881,1.55598 -2.15526,1.03731c-0.142,-0.04556 -0.26736,-0.09913 -0.37792,-0.15894c-1.51712,0.62394 -2.72842,1.31532 -4.03262,2.3996l-0.88816,0.5333c-0.33003,0.31912 -0.72312,0.4118 -1.06269,0.41437c-0.33538,0.03707 -0.73457,-0.00805 -1.10081,-0.28176c-2.81176,-1.27306 -5.21695,-3.23881 -7.49843,-5.22377c-0.35014,-0.30463 -0.81088,-0.85554 -1.10853,-1.38899c-0.14726,0.3373 -0.30972,0.66223 -0.42061,0.87763c-1.16183,2.25682 -2.77989,4.2258 -4.81294,5.83227c-2.28702,1.80714 -2.81903,1.44793 -5.62283,2.65487c-3.34024,1.43786 -5.67423,3.33893 -9.43351,3.71968c-1.39239,-0.10026 -2.78827,-0.18317 -4.18455,-0.18213h-0.18932c0,0 -0.81501,0 -1.31769,-0.54258c-3.66429,0.63792 -7.4274,0.90705 -11.17741,0.90705h-0.39189c-1.9133,4.36792 1.31433,9.28767 1.33846,14.03242v0.77168c0.07507,0.30244 0.05573,0.66044 -0.17059,1.05426c-0.12937,0.28732 -0.35686,0.58915 -0.75689,0.76223c-0.38385,0.20419 -0.77119,0.19829 -1.08761,0.12552c-0.46123,-0.06175 -0.76971,-0.2603 -0.97602,-0.49829c-2.76094,-1.9716 -7.1527,-4.82148 -8.89617,-7.58992c-0.69207,-1.09892 -0.54337,-2.61333 -1.36941,-3.62286c-0.92686,-1.13274 -2.03948,-1.41301 -3.18419,-1.6681c-0.90574,1.20673 -2.25825,0.39302 -2.25825,0.39302l-1.84695,-1.17252c-1.13332,-1.92886 -1.02256,-3.50528 -1.99905,-5.32937c-1.09781,-2.05069 -2.74514,-3.75291 -3.80172,-5.86263c-0.25221,-0.50361 -0.51693,-0.95415 -0.73513,-1.37151c-0.30491,-0.35796 -0.59508,-0.72744 -0.87032,-1.10553c-0.00974,0.01265 -0.01947,0.02529 -0.02919,0.03794l-0.98592,0.74508c0,0 -1.41772,0.9098 -2.36287,-0.4549l0.00003,-0.00001c-0.17311,-0.24997 -0.26697,-0.48468 -0.30477,-0.70132c0.67959,-0.6831 1.30542,-1.40138 1.89019,-2.14632c0.51775,-0.42914 1.02669,-0.8688 1.52618,-1.31858c0.0219,-1.85649 1.95052,-2.78474 1.95052,-2.78474zM259.26323,33.06706l0.24791,0.30876c-0.06817,-0.11264 -0.15257,-0.21442 -0.24791,-0.30876z" fill="#400d48"></path><path d="M273.14359,87.6743c0.50319,0.10955 1.31097,0.4613 1.31097,1.5906c0,1.64015 -1.70388,1.64015 -1.70388,1.64015l-1.34838,-0.35941c-0.70995,-0.58154 -1.33233,-1.28975 -1.82305,-2.06857l-0.44879,-0.11829c0,0 -1.28395,-0.98873 -0.32026,-2.23775c0.08814,-0.43177 0.37234,-0.90264 1.12984,-1.1457c1.61643,-0.51866 2.15526,1.03731 2.15526,1.03731c0.17714,0.6193 0.5566,1.21038 1.04832,1.66166z" fill="#331240"></path><path d="M285.03333,89.99892c-1.3305,-1.02459 -0.2661,-2.30534 -0.2661,-2.30534l1.13592,-1.3668c0,0 1.0644,-1.28074 2.39492,-0.25614c1.3305,1.02459 0.2661,2.30534 0.2661,2.30534l-1.13592,1.3668c0,0 -1.0644,1.28074 -2.39492,0.25614z" fill="#331240"></path><g><g><path d="M307.45097,114.83277l-0.20857,0.64687c-0.5317,4.89333 -1.77819,7.44809 -4.92433,11.33073c-0.24826,0.30638 -0.60384,0.75915 -1.01824,1.27148c0.13514,2.45304 0.46172,4.75889 1.01435,7.32349l-0.00001,0.00001l-2.01283,3.71479c0,0 -1.41174,1.31029 -3.11295,0.80604c-0.54894,0.64955 -1.28774,1.27014 -2.25737,1.85397c-1.29533,0.77994 -3.07888,0.22094 -4.61831,0.33141h-0.28721c0,0 -0.55497,0 -1.19972,-0.21589c-1.29144,2.7389 -2.93101,5.24437 -5.22967,6.82399c-2.78127,1.91124 -6.7012,2.02815 -10.43934,1.84173c-0.24167,3.64872 -5.47615,3.05327 -9.14594,1.36455c-0.51005,-0.23471 -1.07395,-0.84837 -1.6296,-1.61867c-1.70272,-0.24414 -3.6511,-0.28998 -4.83449,-1.40875c-0.96862,-0.91574 -0.966,-2.3685 -1.05043,-3.71289l-1.35355,-0.16749l0.01104,-0.07685c-0.14381,0.00215 -0.2879,0.00135 -0.43228,-0.00267c-5.66167,-0.1576 -10.15838,-6.61388 -13.30808,-9.95253c-3.11481,-3.30168 -5.55062,-6.55926 -8.42221,-9.96626c-0.82874,-0.98325 -4.64115,-3.90852 -5.00794,-4.62172c-0.11918,-0.23174 -0.22238,-0.5146 -0.31174,-0.83726c-3.83797,-1.68488 -6.58455,-6.8883 -4.91196,-10.12603c-2.59398,0.71293 -5.78262,-0.31338 -8.16417,-1.77913c-0.21919,0.04466 -0.4469,0.0682 -0.68052,0.0682c-0.33192,0 -0.65188,-0.0475 -0.95244,-0.1356l-3.9981,-1.0791l0.06993,-0.22319l-0.57398,0.04248c-2.96314,-1.98039 -6.77829,-3.66379 -8.35474,-7.02781c-1.60682,-3.42881 -0.84294,-8.23389 -0.83838,-11.83619c0.00179,-1.41348 -0.49752,-2.90799 0.01077,-4.24042c0.02956,-0.07749 0.06029,-0.15446 0.09214,-0.23094l-0.05993,-0.00927l0.56589,-3.15131c0.11094,-0.69314 0.4832,-1.30714 1.02084,-1.75293c0.74608,-2.7613 2.78629,-5.43021 4.18649,-7.70079c0.8359,-1.35553 1.3154,-3.06556 2.69206,-3.96374c3.37763,-2.20365 10.48943,-1.07601 14.46853,-1.07601l0.72941,0.21147c0.95888,0.01025 1.65526,0.4873 2.10042,0.93811c0.35941,0.31906 0.7319,0.77128 0.88889,1.35663c3.01967,5.8353 6.32223,10.93752 10.53865,16.0487c0.20075,0.07438 0.37948,0.15935 0.53019,0.24084c0.25098,0.13363 0.54938,0.32459 0.82156,0.58265c2.80237,2.25866 5.93996,3.83691 8.67342,6.21154c1.53658,1.33487 2.64146,3.13615 4.41229,4.19186c2.12804,1.26868 4.74392,1.70371 6.89739,2.93486c3.86638,2.21044 7.23475,4.5838 11.02808,6.68047c0.78953,0.13433 1.57906,0.26867 2.3686,0.403l3.04229,0.84233c0,0 1.53479,0.42736 2.0904,1.68785c7.34357,-7.84873 13.25378,-16.8007 19.57233,-25.42165c-0.24265,-2.15226 -0.21556,-4.2611 0.13334,-6.52447c0.20678,-1.34143 -0.0415,-2.88592 0.79249,-3.99817c1.62581,-2.16823 3.23858,-2.26984 5.12315,-2.6478c2.05242,-2.13879 5.18093,-3.30896 8.46769,-3.3734c4.38383,-1.7121 9.06738,-2.57068 12.22628,1.71695c0.77422,1.05086 0.05501,2.55918 0.32591,3.80715c0.70894,3.26583 2.46739,6.49393 3.1772,9.78846c0.10316,0.47886 0.60085,4.11088 0.99026,6.99267c0.26031,1.07245 0.45336,2.18469 0.47583,3.45389v0.26657c0,0 0,0.14428 -0.03447,0.36882c-0.05988,0.49724 -0.24576,1.15773 -0.77009,1.68567c-0.2126,1.97959 -0.66193,4.17561 -1.98948,5.21053c-2.70053,2.10523 -5.17869,0.9463 -7.98781,1.23932c-0.93257,0.09728 -1.53828,0.24011 -2.04093,0.45875c-1.70495,2.77904 -3.79927,5.04542 -5.86779,7.67944c-0.89604,1.141 -1.5768,2.40536 -2.23062,3.68634c1.17295,1.10076 0.72216,2.77431 0.72216,2.77431z" fill="#671b72"></path><path d="M224.59083,105.96038c0.44542,-0.33562 0.93027,-0.62284 1.45721,-0.84808c-0.36643,-1.00923 0.07252,-1.91267 0.44477,-2.44051c1.38809,-6.10369 3.15458,-11.43141 3.21693,-17.79331c-0.01556,-0.21796 -0.00836,-0.45413 0.02609,-0.70998c0.12291,-0.91267 0.51572,-1.50327 0.997,-1.88406c0.43976,-0.37307 1.06883,-0.65072 1.96876,-0.68164c0.37403,-1.23223 1.594,-2.13544 3.04126,-2.13544c0.57743,0 1.11868,0.14378 1.58447,0.39488l2.53472,1.30699l-0.21198,0.35412l0.9997,0.2208c0.76453,1.42253 1.65817,2.85734 2.47849,4.32656l0.20625,-0.11486l1.69654,2.62438c0.30228,0.44968 0.47694,0.9809 0.47694,1.54997c0,0.35397 -0.06757,0.69331 -0.19142,1.00748c0.05609,0.21732 0.10648,0.43576 0.15062,0.65539c0.73639,3.66316 -0.24457,7.69053 -0.54056,11.32675c-0.26934,3.30907 0.6758,4.68424 -1.69982,7.86744c-1.25294,1.67885 -2.64041,2.61563 -4.18729,3.23867l0.01847,0.02939l-3.39985,1.84074c-0.47775,0.2695 -1.03861,0.4247 -1.63855,0.4247c-1.6872,0 -3.0655,-1.22754 -3.15471,-2.77285c-1.43993,1.69296 -3.03827,3.56166 -3.1117,3.59887c-1.86495,0.9451 -4.33868,1.8356 -6.27746,1.02855c-2.7118,-1.12883 -4.44411,-7.35897 -2.81626,-9.73933c1.78633,-2.6121 3.7432,-2.89708 5.9314,-2.67561z" fill="#170619"></path><path d="M303.37882,110.11606c-1.47121,-0.94689 -1.35717,-3.07607 -1.97921,-4.63422c-1.60672,-4.02474 -1.9309,-8.55375 -6.15042,-10.88028l-2.34399,-0.21755c-1.61386,-0.13136 -2.8797,-1.38895 -2.8797,-2.92096c0,-0.21345 0.02458,-0.42157 0.07123,-0.62205c-2.3118,-4.44502 -1.39235,-6.38336 1.93779,-7.16536c0.31531,-1.00611 1.14155,-2.02255 2.74213,-3.02222c3.56167,-2.22452 6.28036,1.13974 8.64322,2.42695c1.38787,0.75607 3.17106,0.96029 4.31376,2.01198c1.55832,1.43421 2.0344,2.73237 2.43639,4.13619c0.30335,0.39216 0.67171,0.82881 1.15186,1.33125c1.90955,1.99809 3.93953,4.21374 4.5117,6.83128c0.36307,1.66098 -0.02362,6.63984 -1.5686,8.12891c0.02612,0.6228 0.02929,1.22501 0.01122,1.79834l-2.193,2.96467c0,0 -0.11987,0.14834 -0.33952,0.34244c-0.36398,1.24647 -1.59141,2.16333 -3.04956,2.16333c-0.61314,0 -1.18547,-0.16211 -1.66997,-0.44267l-2.82757,-1.57464l0.1119,-0.17309c-0.3229,-0.13327 -0.63382,-0.29187 -0.92967,-0.48228z" fill="#170619"></path></g><path d="M239.06309,82.71376c0.45449,0.08584 0.7811,0.31319 0.7811,0.31319l1.60837,1.91931v1.70606c0,0.88334 -0.77152,1.59943 -1.72325,1.59943c-0.72469,0 -1.3449,-0.41519 -1.59958,-1.00327l-0.59851,-1.29617c-0.3213,-0.34947 -0.64261,-0.69894 -0.96391,-1.04841c0,0 -1.10321,-1.22871 0.22065,-2.25264c1.03147,-0.79779 1.92901,-0.22807 2.27513,0.06249z" fill="#99712b"></path><path d="M234.61098,91.80908c0.41795,-1.55167 2.08976,-1.16375 2.08976,-1.16375c2.50334,0.66808 7.62168,3.49996 5.43811,6.83286c-2.44639,3.73404 -5.81194,0.80098 -6.67006,-1.6848l-0.96214,-1.07159c-0.25371,-0.27855 -0.40666,-0.63869 -0.40666,-1.03199c0,-0.42801 0.18114,-0.81675 0.47614,-1.10379c-0.04865,-0.219 -0.04617,-0.4761 0.03486,-0.77693z" fill="#99712b"></path><path d="M231.56817,108.0425c-1.01233,-0.61395 -1.53206,-1.60323 -0.40032,-3.29078c0.07451,-0.11111 0.15337,-0.21308 0.23613,-0.30631c-0.06026,-0.19499 -0.08312,-0.42491 -0.05068,-0.6959c0.19031,-1.58965 1.90302,-1.41302 1.90302,-1.41302c0.06736,0.00766 0.13465,0.01589 0.20189,0.02468c0.78598,-0.52953 1.75709,-0.07887 1.75709,-0.07887l1.14824,0.79479c0.61446,0.21895 1.21399,0.47363 1.79279,0.75342l0.12315,0.46851l0.18881,-0.10013l0.90406,1.46841c0.15374,0.23933 0.24206,0.51905 0.24206,0.81793c0,0.52815 -0.27582,0.99652 -0.70106,1.28778c-0.15125,1.37793 -1.7115,1.37793 -1.7115,1.37793l-0.43831,-0.00207c-0.4502,0.27395 -1.0636,0.49196 -1.86934,0.62877c-2.67846,0.45478 -3.35155,-0.52177 -3.32606,-1.73513z" fill="#99712b"></path><path d="M224.31539,111.51336c0.45963,0.05953 1.51296,0.33235 1.51296,1.58281c0,1.59943 -1.72325,1.59943 -1.72325,1.59943l-2.09158,-0.66978c-0.38295,-0.4976 -0.7659,-0.9952 -1.14884,-1.4928c0,0 -1.00163,-1.30151 0.40065,-2.23116c1.40227,-0.92965 2.4039,0.37186 2.4039,0.37186c0.21539,0.27988 0.43078,0.55976 0.64617,0.83964z" fill="#99712b"></path><path d="M299.32141,81.9433c0.4413,-0.1793 1.0482,-0.23064 1.71029,0.28145c1.32385,1.02393 0.22065,2.25264 0.22065,2.25264c-0.02771,0.02601 -0.05384,0.05307 -0.07851,0.0811c-0.03189,0.26062 -0.12826,0.55956 -0.36656,0.813c-0.17868,0.81726 -0.09687,1.79503 -0.8091,2.19854c-4.73413,2.68211 -7.2471,-3.13957 -3.38567,-5.53872c0.7295,-0.45325 1.75112,-0.11818 2.62668,-0.17727z" fill="#99712b"></path><path d="M308.11037,90.73296c0.55774,0.25446 1.07185,0.53618 1.21521,1.04954c1.87767,6.72386 -10.61642,4.26399 -6.08758,-1.50335c0.5441,-0.69289 1.67928,-0.71503 2.51892,-1.07253c0,0 1.61353,-0.5616 2.21862,0.936c0.08721,0.21586 0.12834,0.41227 0.13484,0.59036z" fill="#99712b"></path><path d="M312.21672,98.2461c0.00934,0.00461 0.01868,0.00926 0.02801,0.01398c0.12382,-0.07254 0.24074,-0.15182 0.34838,-0.23998zM310.74638,98.11477c0.40307,-0.16469 0.8404,-0.12708 1.26761,0.04139c0.07335,-0.44068 0.38412,-1.37413 1.7006,-1.37413c1.72325,0 1.72325,1.59943 1.72325,1.59943l-0.60177,2.0674c-0.17081,0.13293 -0.3385,0.27292 -0.50427,0.41308c0.01018,0.85882 -1.27827,1.57227 -1.80791,2.37067l-0.30692,0.07372l0.05491,0.08919l-1.5821,0.83909c-0.25786,0.14269 -0.55923,0.22467 -0.88125,0.22467c-0.95173,0 -1.72325,-0.71608 -1.72325,-1.59943c0,-0.14633 0.02118,-0.28807 0.06082,-0.42272l0.45016,-1.67126l0.14821,0.03439c0.04896,-0.24394 0.12473,-0.48183 0.23775,-0.7113c0.09759,-0.19812 0.23299,-0.36353 0.39585,-0.5056l0.19555,-0.48397l0.25142,0.08751c0.15359,-0.4814 0.4236,-0.86876 0.92136,-1.07214z" fill="#99712b"></path></g><path d="M219.53233,301.53382c1.2247,-0.49381 2.61896,-1.19456 3.97755,-0.61471c0.09326,0.0398 0.18454,0.08298 0.27411,0.12915l0.01744,-0.04361l1.74255,0.69702c0.60745,0.22681 1.04001,0.81233 1.04001,1.49887c0,0.71949 -0.47507,1.32801 -1.12863,1.52901l-1.97426,0.65809c-3.21903,1.89487 -6.81949,2.95755 -10.5811,2.96661c-0.85353,-0.00232 -1.71208,0.02794 -2.57453,0.08111c-1.72312,0.69788 -3.37609,1.63879 -5.29786,2.02259c-4.59991,0.91866 -10.31218,1.05129 -15.50878,0.43682c-4.7257,0.1311 -9.87862,0.26087 -12.94176,-2.89597h-1.35246c-0.88334,0 -1.59943,-0.71608 -1.59943,-1.59943c0,-0.67366 0.41648,-1.25005 1.00601,-1.48573c0.01529,-0.06234 0.03294,-0.12442 0.0527,-0.1863l-0.31678,-0.06336l0.34961,-1.74809c0.13427,-0.74755 0.78797,-1.3148 1.57418,-1.3148c0.88334,0 1.59943,0.71608 1.59943,1.59943v0.58786c0.22193,0.01413 0.44347,0.03083 0.66466,0.04991c2.45587,-0.50349 5.10343,0.12904 7.64616,0.63729l1.5652,0.31304c7.96513,-0.05601 16.02128,-0.33003 23.90978,-1.04718c1.48661,-0.13515 2.91503,-0.50191 4.32071,-0.95422c0.06994,-0.0513 0.13949,-0.10309 0.20865,-0.15539l1.42171,-1.06628c0,0 1.00761,-0.75571 1.90514,-0.03174z" fill="#99712b"></path></g><g fill-opacity="0.37647" fill="#160a1f"><path d="M308.27457,189.80972c-0.59596,-0.65374 -0.3386,-1.67909 -0.26029,-2.62825c-1.02786,-6.38341 -4.74696,-13.00905 -6.76135,-18.8465c-1.7922,-5.19356 -2.07694,-10.09783 -3.05106,-15.38373c-0.83043,-4.50623 -1.81009,-8.61402 -1.91008,-13.17627c-0.23553,0.58948 -0.53235,1.16173 -0.88336,1.69147c-1.06172,1.60233 -4.94563,2.28742 -7.67875,2.08313c-4.81064,1.1352 -9.75319,2.50589 -14.07009,0.91516c-0.22462,0.55575 -0.60085,1.03398 -1.07743,1.38341l-2.10279,1.57709l-0.19438,-0.25917c-0.77385,0.96876 -1.61058,1.88092 -2.53211,2.70279l-0.37516,0.06651l0.07013,0.12623l-2.34834,1.30463c-0.47161,0.27392 -1.01963,0.43077 -1.6043,0.43077c-0.40299,0 -0.78858,-0.07452 -1.14373,-0.21054c-4.62993,0.55609 -7.92609,-2.39102 -9.62602,-6.44319c-5.80562,-4.09477 -11.5625,-7.33048 -16.40492,-12.80516c-1.69011,-1.91079 -3.37994,-4.22735 -4.87729,-6.49051c-0.14371,-0.09761 -0.28618,-0.19667 -0.42741,-0.29719c-0.43571,0.85566 -0.88922,1.70096 -1.40373,2.51075c-2.182,3.43423 -5.79832,5.67894 -7.81639,9.29999c-3.90213,7.00165 -8.40368,13.71171 -12.66336,20.48672c-2.356,3.7472 -2.8504,8.43729 -4.95303,12.34302c-3.18604,5.91822 -7.33521,11.04916 -11.12653,16.57153c-2.48345,3.30657 -5.59634,5.86549 -8.15613,9.00033c-1.79158,2.19405 -2.62835,5.08947 -4.52686,7.19169c-1.81937,2.01459 -3.82799,3.34044 -5.61771,5.08619c-0.20693,1.88038 -2.21238,2.54887 -2.21238,2.54887c-0.0278,0.00927 -0.05559,0.01853 -0.08337,0.02782c-0.03734,0.03691 -1.25587,1.22772 -2.78719,0.96719c-2.90647,1.03895 -5.7907,2.14252 -8.71906,3.1178c-1.28335,0.42741 -8.23654,2.42416 -10.27559,2.89576c-2.05728,0.47582 -4.15293,0.78003 -6.2021,1.28969c-5.0005,1.24373 -9.70512,4.48166 -14.72413,5.4033c-4.74278,0.87092 -9.26156,-0.45467 -13.68558,-1.91574c0.46842,0.47388 0.81838,1.18198 0.81838,2.24003c0,3.19885 -3.19885,3.19885 -3.19885,3.19885l-2.82565,-1.27954c-0.64886,-0.86542 -1.33152,-1.78344 -1.96679,-2.74698c-0.18167,0.26354 -0.367,0.52549 -0.55611,0.78578c-1.77571,-1.34697 -4.0496,-2.21462 -5.32712,-4.04093c-0.83025,-1.18691 -0.4214,-2.86922 -0.51755,-4.31451c-0.3439,-5.16911 1.18922,-9.39877 2.50525,-14.28893c2.04988,-7.61705 6.57653,-14.45549 10.43919,-21.28016c0.46266,-0.81745 0.91555,-1.63892 1.36241,-2.46231c2.92546,-8.0068 7.36447,-16.17328 13.8202,-21.69547c0.45968,-0.47633 0.93339,-0.94399 1.42243,-1.40225c0,0 0.60182,-0.55552 1.47752,-0.79986c1.97275,-1.3183 4.10935,-2.39769 6.42086,-3.17656c7.25855,-0.76199 14.32919,-0.56721 21.36337,-2.62071c3.41463,-3.33619 6.95488,-6.16947 10.56668,-9.22695c2.07514,-1.75665 2.94302,-3.83 4.76461,-5.84292c4.30045,-4.75218 8.38179,-9.48313 12.38569,-14.49359c3.15548,-3.94874 7.27112,-7.17111 10.33884,-11.12153c1.33996,-1.72552 2.07978,-3.84014 3.09348,-5.77794l-0.23566,-0.58914c-1.06479,-0.88864 -2.01617,-1.8592 -2.60695,-3.09105c-0.73139,-1.52504 -1.09703,-5.4173 -0.95983,-8.48056c-3.39228,-3.61578 0.28328,-10.0762 2.47878,-12.70363l1.7254,-1.43896c0,0 2.49789,-1.99831 4.49619,0.49958c1.06068,1.32584 0.85462,2.51094 0.42773,3.33117h1.33952v0c1.76667,0 3.19885,1.43218 3.19885,3.19885c0,1.07798 -0.53322,2.03142 -1.35028,2.61096l-2.89939,2.10864l-0.23863,-0.32812c-0.75926,0.69965 -1.58972,1.29802 -2.52555,1.7298c-0.08225,0.03795 -0.16467,0.0797 -0.24724,0.12468c-0.51032,1.56088 0.35645,3.37921 0.32625,5.05726c-0.00336,0.18667 -0.05959,0.38498 -0.10767,0.58041c0.53148,-0.31155 1.12469,-0.60116 1.77584,-0.86864c1.24325,-0.51068 2.67131,0.30481 4.00047,0.50431c3.31348,0.49733 9.6948,-0.20528 10.55831,4.78392c0.17142,0.99041 -0.30491,1.87105 -0.95189,2.72278c2.01795,1.6264 4.50831,3.75847 4.90832,4.09501l0.09766,0.39065l0.14229,-0.10671l1.58004,2.10672c0.41343,0.53899 0.65916,1.21338 0.65916,1.94516c0,0.20446 -0.01918,0.40444 -0.05585,0.59825c0.43719,0.74012 0.79263,1.54139 1.14822,2.34186c2.22399,-1.63234 3.80451,-2.90537 7.22511,-1.7402c1.66111,-1.94193 3.69797,-4.28236 6.4087,-4.57976c0.58591,-0.06428 1.21301,-0.12758 1.84226,-0.14736c0.41782,-0.62534 1.13874,-1.16622 2.37934,-1.26165c3.18943,-0.24534 3.43477,2.94409 3.43477,2.94409c0.05146,4.85269 6.43395,8.29492 10.60411,10.10253c4.62479,2.00468 9.51138,3.09268 14.12755,5.06454c2.75957,1.17879 5.16852,3.05204 7.82833,4.30916c2.88157,1.36192 5.68746,2.32978 8.51057,3.98392l0.69935,0.9566c3.5211,-0.60918 4.87066,1.61069 4.72233,4.26998c0.4532,-0.64937 1.23109,-1.20667 2.56627,-1.20667c0.92872,0 1.5878,0.26963 2.05554,0.65234c2.2096,0.58004 2.2096,3.07965 2.2096,3.07965l-0.00943,0.2878c0.17024,3.37725 1.85783,4.94783 2.37466,8.3111c0.63081,4.10507 -0.94798,8.84254 0.84034,12.79673c0.90805,2.00781 2.52661,3.67311 3.26002,5.75108c1.81605,5.14551 3.25439,10.77456 3.9091,16.19984c0.05631,0.46664 0.59196,6.50159 0.55239,6.64607c-0.01123,0.041 -0.02267,0.08191 -0.0343,0.12276h0.03666v3.732c0,1.76667 -1.43218,3.19885 -3.19885,3.19885c-1.76667,0 -3.19885,-1.43218 -3.19885,-3.19885v-3.44786c-0.00127,-0.05628 -0.00279,-0.1126 -0.00459,-0.16894z"></path><path d="M276.07589,105.72061c-0.49998,-1.84285 1.39152,-3.6319 2.61874,-5.09478c0.56921,-0.67852 1.47252,-0.94901 2.29322,-1.33202c0.25205,-0.42105 0.50483,-0.67384 0.50483,-0.67384l1.3122,-0.75632c1.78537,-1.97954 3.90543,-5.44586 4.95239,-7.01986c0,0 1.7744,-2.66161 4.43601,-0.8872c2.66161,1.7744 0.8872,4.43601 0.8872,4.43601c-0.16204,0.24256 -0.32419,0.48802 -0.4868,0.73567l1.0385,-0.90869c0.56418,-0.49888 1.30579,-0.80168 2.11812,-0.80168c1.76667,0 3.19885,1.43218 3.19885,3.19885c0,0.13528 -0.00839,0.26859 -0.0247,0.39945l-0.04846,0.43615c0.15572,0.82738 -0.02235,1.53966 -0.02235,1.53966l-0.25243,0.93337l-0.20477,1.8429l-0.21922,-0.02435c-0.05965,2.62689 -0.84789,5.07968 -3.41339,7.00837c-1.15638,0.86934 -2.67108,1.11229 -4.00661,1.66844l-0.60492,-0.22323v0.28094h-2.66571c-0.5597,0 -1.08583,-0.14375 -1.54348,-0.39633c-3.37171,0.97557 -8.8024,-0.43675 -9.86724,-4.36151z"></path><path d="M235.41758,60.69046c0.2087,0.01434 0.41556,0.03752 0.62078,0.06849v-0.1293h3.732c1.76667,0 3.19885,1.43218 3.19885,3.19885c0,1.48654 -1.01399,2.73626 -2.38806,3.0952l-3.52313,1.0066c-0.29021,0.123 -0.56476,0.3049 -0.8077,0.52635c0.32757,0.6115 0.65876,1.23786 1.00196,1.887c0.21233,-0.34342 0.46712,-0.6568 0.77112,-0.93117c2.42184,-2.18578 7.40384,2.21719 10.05931,2.4287c2.24782,0.17903 4.70695,0.2357 7.04635,0.1285c-0.16682,-0.45542 -0.23203,-1.01364 -0.12694,-1.69676c0.48641,-3.16166 3.64807,-2.67524 3.64807,-2.67524c2.52,0.38916 5.33705,0.61534 7.17734,1.36145l1.51387,-0.45416c1.64902,-0.54135 3.65695,-1.02625 5.09238,-2.11549c3.68675,-2.79759 2.15418,-8.51307 4.4232,-12.09066c0.00822,-0.01296 0.01644,-0.02591 0.02468,-0.03886l-0.00878,-0.00338l2.26983,-5.90158c0.4426,-1.23597 1.62426,-2.12023 3.01245,-2.12023c1.76667,0 3.19885,1.43218 3.19885,3.19885v2.93228c0,0.87467 -0.05972,1.79041 -0.10596,2.71668c2.20393,2.08721 4.08484,4.24595 5.35605,7.05975l1.62998,1.38994c0,0 2.05736,1.76345 0.76197,3.93783c0.0561,0.29165 0.06783,0.57655 0.01788,0.8515c0.44983,-1.22224 1.62457,-2.09401 3.00292,-2.09401c1.23068,0 2.29904,0.69498 2.83402,1.71389c1.5372,-0.68983 3.37289,-1.42923 4.96199,-1.19698c2.34848,-1.23961 7.59536,-2.56144 9.12733,-0.3797c2.2447,3.19673 1.30247,7.84882 -0.16257,11.26397c1.72514,2.73167 1.88376,6.46398 -0.87539,8.69234c-1.68785,1.36316 -4.26834,2.07355 -6.34568,1.44767c-0.99855,-0.30085 -1.74518,-2.28889 -2.47542,-3.97222c-1.38996,-0.17326 -2.503,-1.23827 -2.74857,-2.60445c-0.86471,-0.03019 -1.84385,0.11626 -2.63506,0.00418c-0.55866,0.93364 -1.57981,1.55872 -2.74695,1.55872c-1.37309,0 -2.5441,-0.86512 -2.99773,-2.08001l-1.03861,-2.59653l1.14244,-0.45698l-0.86086,-1.3833c-0.85471,-0.25904 -1.67702,-0.82782 -2.55448,-1.02725c-2.09754,-0.47673 -5.20402,-1.09001 -7.35451,-0.75354c-1.00785,0.15768 -2.0051,0.3663 -2.99105,0.61923c-0.35822,0.2792 -0.72836,0.54228 -1.10376,0.79084c-2.72242,1.8025 -6.53421,3.40635 -9.8145,4.69235l-0.15586,2.64961l-0.41422,-0.02436c0.14428,0.80264 0.32041,1.59805 0.55096,2.3813c0.25496,0.86615 1.22195,1.4668 1.32212,2.36413c0.21383,1.91567 0.95877,4.41508 -0.4144,5.76782c-1.49926,1.47695 -4.23345,1.37063 -6.26166,0.8089c-3.39209,-0.93946 -5.49899,-5.58126 -5.79894,-9.3513c-1.39056,-0.71903 -2.04868,-2.65813 -3.13365,-3.8862l-0.006,0.00382l-1.78708,-2.80826c-1.31381,-0.0317 -2.6022,-0.11874 -3.82651,-0.25754c-0.82055,-0.09302 -1.64536,-0.21505 -2.44793,-0.41469c0.09683,0.16079 0.18432,0.31892 0.26366,0.47471c0.89392,1.08365 1.68291,2.2398 2.41025,3.43612l0.04813,-0.04412l2.92543,3.19137c0.5262,0.57011 0.84766,1.33202 0.84766,2.16903c0,1.76667 -1.43218,3.19885 -3.19885,3.19885h-2.66571v-0.59645l-1.32182,0.31058c-1.14183,-1.21869 -2.58194,-2.21474 -3.42549,-3.65606c-0.78005,-1.33281 -0.58247,-3.08598 -1.0785,-4.53393c-0.08665,-0.09942 -0.17723,-0.19973 -0.27222,-0.30078c-1.06383,-1.13173 -2.3788,-2.12403 -3.74111,-3.09565c-3.47536,0.87628 -5.77418,-0.7511 -6.91027,-3.65672c-0.208,0.13685 -0.44743,0.26217 -0.72254,0.37222c-2.97006,1.18802 -4.15808,-1.78204 -4.15808,-1.78204l-1.11622,-2.79908c-0.28538,-1.00578 -0.62315,-2.33215 -0.82928,-3.74263c-0.42791,0.00585 -0.79101,0.01612 -1.01366,0.01803l-2.5065,0.25065c-0.11853,0.01332 -0.23903,0.02015 -0.36112,0.02015c-1.76667,0 -3.19885,-1.43218 -3.19885,-3.19885c0,-1.32017 0.79972,-2.45355 1.94115,-2.94212l2.86629,-1.30286l0.00924,0.02034c0.01937,-0.01674 0.03879,-0.03344 0.05825,-0.05009c0.53467,-0.4575 1.44137,-0.2504 1.99843,-0.68036c0.60962,-0.47053 0.88681,-1.25923 1.33021,-1.88884l0.09999,-0.05147l-0.03158,-0.02808l2.12194,-2.38718c0.5862,-0.66564 1.44479,-1.08561 2.40149,-1.08561c1.76667,0 3.19885,1.43218 3.19885,3.19885c0,0.33074 -0.05019,0.64975 -0.14337,0.94984l-0.59058,2.06705c0.23568,-0.05533 0.48141,-0.0846 0.73397,-0.0846c1.19039,0 2.22891,0.65022 2.77977,1.61487c0.54487,-0.30911 1.099,-0.52662 1.66429,-0.48776z"></path><path d="M264.1994,168.61484c0.09799,0.39196 0.1341,0.74677 0.1224,1.0676c2.09431,1.76012 0.50216,4.14836 0.50216,4.14836c-3.60981,4.67002 4.86359,5.54147 6.40663,9.52665c0.78152,2.01843 2.43301,4.91687 0.88767,6.43239c-5.96367,5.84861 -9.15034,-2.50218 -10.81669,-5.13148c-2.80549,-4.42675 -8.07226,-6.41249 -6.78422,-12.80376c0.24473,-1.21435 1.05667,-2.24089 1.585,-3.36133l4.21787,-2.20592c0,0 3.10335,-0.77584 3.87918,2.32751z"></path><path d="M205.95074,252.89852c-5.37772,2.13104 -10.63542,6.26045 -16.87511,3.72784c-7.83446,-3.17991 -10.40538,-14.68493 -5.71979,-21.43513c1.7225,-2.48149 4.83226,-4.53084 7.8627,-6.07035l0.83968,-1.25951l0.01464,0.00976c0.0117,-0.02769 0.02356,-0.05534 0.03561,-0.08292c2.1021,-4.81171 6.38551,-6.67999 9.48999,-10.33727c1.89502,-2.23246 2.61727,-5.64278 4.48695,-7.94253c1.24733,-1.53425 3.03441,-2.65923 3.98772,-4.39156c1.86679,-3.39226 3.10068,-7.32541 6.74931,-9.42691c3.83467,-2.20866 9.95764,-2.52987 14.47085,-2.57002c2.7782,-0.73559 5.57652,-1.30918 8.47707,-1.33725h0.44949c0.00048,-0.00133 0.00096,-0.00266 0.00144,-0.00399c2.44676,-6.73767 8.24805,-3.55077 12.66601,-0.00093l2.31911,0.63249c0.42775,0.10638 0.82148,0.29887 1.16171,0.55799c-0.44727,0.32085 -0.70578,0.64397 -0.70578,0.64397c-1.78453,2.23074 -3.24654,4.21567 -5.01732,5.90842c-1.03888,0.0163 -1.95752,0.52785 -2.53021,1.30892l-1.00965,1.34621c-0.50373,0.28689 -1.0387,0.55906 -1.61112,0.81607c-3.88957,1.74627 -8.70401,1.71369 -11.12159,6.03202c-0.1245,0.22238 -0.23732,0.44641 -0.33888,0.67167c-0.0608,-0.0458 -0.12154,-0.09169 -0.1822,-0.13767l-0.06503,0.21675l-1.72918,-0.51876c-0.58365,0.75023 -1.14546,1.50324 -1.68245,2.25055c-1.73746,2.41796 -3.95311,5.14456 -4.9196,8.01106c-0.79354,2.35354 -1.22131,4.8369 -2.20588,7.11714c-1.15787,2.6816 -2.7542,5.68568 -3.72866,8.77998c0.15905,0.9697 -0.15392,1.70353 -0.57778,2.23156c-0.33252,1.68503 -0.41039,3.38015 -0.06724,5.04892c0.3772,1.83435 3.67283,3.76192 4.92826,4.8886c2.34039,1.39398 4.22221,2.89172 6.75832,3.87317l0.98374,0.2701c0.89133,0.03873 1.52391,0.46479 1.95639,0.94097c0.47697,0.42189 0.90742,1.04048 0.965,1.91698c0.21217,0.70722 0.42434,1.41445 0.6365,2.12167l0.10515,2.58618l0.22126,1.10631c0.04916,0.22287 0.07508,0.45447 0.07508,0.69211c0,1.76667 -1.43218,3.19885 -3.19885,3.19885c-0.57035,0 -1.10582,-0.14927 -1.56952,-0.41086l-3.41248,-1.8375l0.04709,-0.08746c-0.23281,-0.10952 -0.46095,-0.22998 -0.68361,-0.36327c-1.40686,-0.84231 -1.63567,-2.87591 -2.75036,-4.07848c-0.55161,-0.59509 -1.17819,-1.12035 -1.85649,-1.59747c0.28631,0.80543 0.29529,1.86148 -0.67444,2.99282c-2.08178,2.42875 -4.51053,0.34697 -4.51053,0.34697l-2.25999,-2.00255c-0.76506,-0.93716 -1.53011,-1.87432 -2.29517,-2.81147c-0.69253,-0.73252 -1.28349,-1.4836 -1.78322,-2.25052c-1.58655,0.00078 -3.1628,0.136 -4.60692,0.70827z"></path><path d="M268.45317,209.81088c0.03011,0.03233 0.08957,0.18384 0.1697,0.42389c1.2638,-1.55654 0.82842,-4.57183 5.11207,-3.19222c5.46646,1.76055 3.78265,10.79181 0.95624,13.73905v2.18989c0,1.10095 -0.55618,2.07199 -1.4029,2.64749c-0.00198,0.74642 -0.0595,1.5124 0.03767,2.23006c0.55966,4.13321 2.56262,7.78788 6.6766,9.42665c2.00727,0.79959 5.62793,0.09063 7.75061,0.09063c6.52645,0 14.77678,-1.37137 20.90551,1.02501c4.28998,1.67742 7.47827,3.77931 8.13105,8.75022c0.18763,1.42886 -0.34069,2.86205 -0.51103,4.29308c-1.77223,1.33888 -3.10656,4.23726 -5.3167,4.01664c-2.03474,-0.20311 -2.49956,-3.2388 -3.67231,-4.91393c-1.35867,-1.94072 -2.77153,-4.53426 -5.01671,-5.67727c-1.3193,-0.67165 -2.95622,0.22319 -4.41708,0.46309c-2.0664,0.33933 -4.15074,0.55925 -6.22927,0.81388c-6.17166,0.75608 -11.46095,5.51384 -16.92463,8.84462c-0.65082,2.01019 -1.62081,3.83947 -2.89906,5.25479c-3.48431,3.85795 -10.24288,1.8509 -13.26095,-1.17434c-2.5882,-2.59436 -2.30967,-3.30469 -2.5742,-5.82298c-0.80106,-0.91175 -1.48451,-1.91423 -1.89074,-3.09026c-0.58609,-1.69674 -0.44445,-6.5197 -0.44499,-8.25084c-0.00005,-0.16657 -0.01216,-8.35903 0.03391,-8.72822c0.4932,-3.95298 1.79576,-8.04155 2.9811,-11.99719c-0.93472,-0.15095 -1.91243,-0.48083 -2.86131,-0.87407c0.41469,-1.29779 0.98743,-2.55265 1.69257,-3.73714c0.35947,-0.25278 0.69098,-0.52637 0.938,-0.85533c0.97515,-1.29867 2.04678,-2.57405 3.0302,-3.89675c1.70477,-1.49018 3.66028,-2.68318 5.75481,-3.4595c1.31728,0.27361 2.50756,0.6619 3.25183,1.46102z"></path><path d="M186.85302,303.53503c2.29399,0.46415 4.5321,1.01747 6.76433,1.75265l0.03528,-0.42337l3.1687,0.26405c1.65672,0.12055 2.96335,1.50284 2.96335,3.19031c0,1.3568 -0.84472,2.51631 -2.03695,2.9813l-3.13043,1.30434l-0.1856,-0.44543l-0.83928,0.6849c-5.77024,-1.31395 -10.77485,-2.66761 -16.73286,-2.65911c0,0 -2.59538,0 -3.11058,-2.33778c-0.70546,-0.58677 -1.15456,-1.4712 -1.15456,-2.46051c0,-1.52233 1.06342,-2.7963 2.48793,-3.11958l3.13394,-0.78348l0.02561,0.10246c0.11841,-0.06035 0.23817,-0.11842 0.35938,-0.174c1.0877,-0.49875 2.39314,-0.01597 3.5897,-0.02397h1.59943c0,0 2.45233,0 3.0626,2.14719z"></path><path d="M286.15375,298.18899c0,3.19885 -3.19885,3.19885 -3.19885,3.19885l-1.29377,-0.0516c-1.9714,0.31474 -3.62747,1.80396 -5.59664,2.13232c-3.82606,0.638 -10.82614,-1.76437 -14.45024,-2.3946c0,0 -3.15155,-0.54809 -2.60345,-3.69965c0.54809,-3.15155 3.69965,-2.60345 3.69965,-2.60345c1.16338,0.20234 8.57866,1.4643 10.42905,1.87187c0.60407,0.13306 1.17569,0.67333 1.77783,0.53181c0.83057,-0.19522 1.31469,-1.14235 2.11201,-1.44606c1.10718,-0.42173 2.3249,-0.45784 3.48734,-0.68675l2.43823,-0.0516c0,0 3.19885,0 3.19885,3.19885z"></path></g><g fill-opacity="0.37647" fill="#160a1f"><path d="M242.73992,190.03373c0.4514,-0.02273 0.96457,0.06263 1.5427,0.31041c2.94022,1.26009 1.68012,4.2003 1.68012,4.2003c-0.47659,1.0606 -1.03454,2.04958 -1.65901,2.97968c0.08636,0.12905 0.16752,0.26062 0.24385,0.39455c-0.55549,0.51475 -1.1145,1.01396 -1.66507,1.49707c-4.2516,5.09987 -10.50418,8.41797 -15.58354,12.67575l-2.11644,1.7637c-0.55709,0.47095 -1.27738,0.75487 -2.06399,0.75487c-0.6439,0 -1.24336,-0.19025 -1.74524,-0.5176c-0.86451,0.50453 -1.73447,1.00385 -2.60128,1.52299c-1.95492,2.53598 -3.54805,5.2234 -5.62911,7.90766c-0.91163,1.17587 -2.98608,3.16886 -3.6551,4.5221c-0.93528,1.89183 -1.58339,4.09507 -2.13429,6.33595c-0.13859,0.82812 -0.3168,1.62885 -0.5563,2.37907c-0.18059,0.79722 -0.35735,1.58691 -0.53892,2.35661l-0.72756,4.72909c-0.00814,0.05952 -0.01791,0.11851 -0.02927,0.17694c0.02129,0.08828 0.04362,0.17453 0.06703,0.25866c0.39311,1.41299 2.66668,1.23041 4.04587,1.72934c6.06197,2.193 11.26939,6.38069 17.28339,8.78002l3.06249,1.02083c1.30713,0.402 2.25726,1.61906 2.25726,3.05803c0,1.76667 -1.43218,3.19885 -3.19885,3.19885h-2.66571v-0.17557c-0.19954,0.04687 -0.40108,0.08653 -0.60492,0.11786c-1.08048,0.16606 -2.019,-0.84812 -3.06375,-1.16986c-4.82308,-1.48532 -10.36883,-4.31951 -15.38216,-4.92753c-2.86132,-0.34702 -6.18807,-0.10567 -9.07277,0.02121c-1.8873,0.08301 -5.66552,0.70968 -7.3892,0.06494c-1.81376,-0.67844 -4.4628,-3.92785 -5.7272,-5.32448c-0.90308,-0.99752 -2.1755,-1.75517 -2.71389,-2.98835c-0.60727,-1.39097 -0.52246,-3.00106 -0.56338,-4.51825c-0.21745,-8.06149 4.56029,-11.82043 8.51958,-18.03951c1.84792,-2.74331 4.30786,-4.77755 6.1539,-7.49828c2.10585,-3.10363 2.95771,-6.38535 5.94313,-8.93969c6.81849,-5.83392 14.23564,-10.68416 22.63782,-13.90588l0.17318,0.02175l-0.01859,-0.06814l2.8616,-0.78044c0.28912,-0.08588 0.59536,-0.132 0.91237,-0.132c0.47317,0 0.92236,0.10274 1.32646,0.28713c0.5667,-0.50994 1.3166,-0.82027 2.13897,-0.82027h1.1045c1.62129,-1.17903 3.30331,-2.19791 4.97501,-2.9491l1.90596,-0.51857c0,0 1.18269,-0.29567 2.27037,0.20815z"></path><path d="M267.48359,213.53716c0,0 1.88148,-2.58703 4.4685,-0.70555c2.58703,1.88148 0.70555,4.4685 0.70555,4.4685c-0.71086,0.97743 -1.42171,1.95485 -2.13257,2.93228l-0.99171,1.49236c0,0 -0.38403,0.57604 -1.06276,1.0135l-0.00755,0.10571l-0.06625,-0.00473l0.04918,0.17748c-1.21596,6.74301 -3.13589,12.98738 -3.33893,19.72429c0.04021,0.3755 0.08915,0.74621 0.14779,1.11062c2.49999,-1.01523 3.88006,1.46889 3.88006,1.46889l0.28204,1.27198c0.46608,-0.12776 0.92443,-0.26998 1.37631,-0.4244c0.5139,-0.68832 1.40284,-1.37569 2.84954,-1.14857c2.6577,-1.21617 5.17324,-2.71431 7.84742,-3.96568c4.54197,-2.12539 10.30062,-2.57071 15.38991,-1.78013c1.72405,-0.10972 3.38265,-0.14494 4.91245,-0.13028c3.20145,0.03069 5.5517,-0.35441 8.21281,2.35953c1.4858,1.51529 2.02534,5.38836 2.43447,7.45497l-0.11379,0.3152h0.12936v2.66571c0,1.76667 -1.43218,3.19885 -3.19885,3.19885c-1.05987,0 -1.99934,-0.51544 -2.58142,-1.30932l-2.3768,-3.16907l0.00913,-0.00685c-0.01342,-0.01176 -0.02684,-0.02354 -0.04024,-0.03535c-1.31861,-1.16141 -2.05439,-3.0542 -3.63866,-3.81426c-1.07271,-0.51463 -2.31523,-0.90618 -3.64621,-1.17409c-4.46044,0.36212 -9.00077,1.53047 -13.05541,3.35591c-0.18425,0.08296 -0.90371,0.49213 -1.72687,0.96323c0.57628,0.57852 0.93252,1.37642 0.93252,2.25752c0,1.52233 -1.06342,2.7963 -2.48793,3.11958l-3.13394,0.78348l-0.01852,-0.0741l-0.14238,0.10994c-0.67478,0.09576 -1.40068,0.21034 -2.15777,0.32135l-2.23025,2.43301l-0.05326,-0.04881c-0.10359,0.13567 -0.21126,0.26864 -0.32344,0.39863c-3.21341,3.72364 -7.31125,1.75138 -10.00382,-1.25207c-0.51487,-0.08481 -0.97815,-0.21326 -1.36637,-0.39739c-2.95239,-1.40026 -4.30848,-4.31454 -4.78072,-7.71434c-2.12515,-3.17734 -4.40336,-6.38524 -5.23639,-10.15728c-1.26272,-5.71766 1.69358,-11.22265 5.18702,-16.17795c-0.07003,-0.13438 -0.14817,-0.26601 -0.23322,-0.39517c0.22767,-0.21847 0.4575,-0.436 0.68916,-0.65275c2.78006,-1.78204 5.15135,-3.40253 7.09948,-6.36512c0.15,-0.13819 0.29949,-0.27675 0.44835,-0.41572l1.31568,-0.23921c0.13225,-0.0266 0.26746,-0.04505 0.40506,-0.0548c0.45808,-0.62985 0.91615,-1.25971 1.37423,-1.88956z"></path><path d="M182.97905,309.9488c-1.90663,0.05102 -3.80274,0.24172 -5.63613,0.58415c0,0 -3.14726,0.57223 -3.71949,-2.57502c-0.57223,-3.14726 2.57502,-3.71949 2.57502,-3.71949c0.42523,-0.07558 0.85134,-0.14437 1.2782,-0.20655c0.87666,-1.44447 2.75946,-1.44447 2.75946,-1.44447l3.24523,0.45586c0.33354,0.20526 0.67887,0.38242 1.02992,0.5405c2.60619,0.03652 5.21097,0.28751 7.78279,0.72138l0.27346,0.24203l0.05262,-0.13155l2.59653,1.03861c1.21489,0.45363 2.08001,1.62466 2.08001,2.99773c0,1.55812 -1.11399,2.85604 -2.58896,3.14078l-3.67163,0.78678l-0.03897,-0.18189c-0.27867,0.09556 -0.56212,0.17819 -0.85131,0.24532c-1.25786,0.29198 -2.4459,-0.83032 -3.68051,-1.20877c-1.18166,-0.36222 -2.35056,-0.78755 -3.48624,-1.28541z"></path><path d="M282.86604,299.12199c0,3.19885 -3.19885,3.19885 -3.19885,3.19885l-1.37481,-0.11272c-2.93706,-0.83527 -5.06208,-0.53682 -8.11452,-0.69097c-2.79064,-0.14092 -5.07192,-1.10492 -7.83779,-1.06232c0,0 -3.19885,0 -3.19885,-3.19885c0,-3.19885 3.19885,-3.19885 3.19885,-3.19885c2.91181,0.03154 5.29758,0.95815 8.15648,1.07025c3.45393,0.13544 6.09162,0.01425 9.47918,0.90845l-0.30853,-0.11272c0,0 3.19885,0 3.19885,3.19885z"></path><path d="M274.17161,190.5728c-1.01156,3.0347 -4.04626,2.02314 -4.04626,2.02314l-1.70746,-0.74219c-4.48613,-3.40809 -6.83527,-7.90083 -10.73889,-11.75971c0,0 -2.26193,-2.26193 0,-4.52386c2.26193,-2.26193 4.52386,0 4.52386,0c3.6493,3.68357 5.82277,8.04228 10.05366,11.16541l-0.10804,-0.20905c0,0 3.0347,1.01156 2.02314,4.04626z"></path><path d="M247.75443,140.66501c-0.58367,-0.30482 -1.1322,-0.65354 -1.57802,-1.13053c-0.81254,-0.86934 -1.38782,-1.79997 -1.77367,-2.77063c-4.50778,-1.72714 -8.54502,-7.12779 -11.79183,-9.75406c-1.86121,-1.50549 -6.02589,-5.13146 -5.72159,-7.70073c0.80961,-6.83556 6.68151,-5.64245 10.66439,-3.23885c0.05704,-0.08023 0.11867,-0.161 0.18515,-0.24226c2.02563,-2.47577 4.50142,-0.45014 4.50142,-0.45014c2.86506,2.36112 4.66532,5.34711 7.11298,7.89856c1.00589,0.2261 1.5764,0.83865 1.89996,1.46076c0.73744,0.34603 1.50952,0.64423 1.90751,1.31455c2.11492,3.56208 2.08449,6.5189 -0.89801,9.11644c0.20315,0.29751 0.42033,0.59033 0.59891,0.88375l2.90976,1.2124c1.19222,0.46499 2.03695,1.6245 2.03695,2.9813c0,1.67127 -1.28167,3.0432 -2.91574,3.1865l-2.63052,0.26305l-0.03292,-0.32915c-0.49811,0.11427 -1.00533,0.15667 -1.52575,0.09476c-1.35768,-0.16152 -2.20096,-1.49302 -2.94898,-2.79571z"></path><path d="M295.06619,92.96826c0.62735,3.13673 -2.50938,3.76408 -2.50938,3.76408l-0.3144,-0.12717c-0.19142,0.09493 -0.37298,0.20442 -0.54599,0.3266c0.09121,1.17726 -0.57077,2.17023 -0.57077,2.17023c-2.43554,3.65083 -4.04617,5.76011 -7.60521,8.38624l-0.21166,0.01957l0.04449,0.08008l-2.34834,1.30463c-0.47161,0.27392 -1.01963,0.43077 -1.6043,0.43077c-1.76667,0 -3.19885,-1.43218 -3.19885,-3.19885c0,-0.8407 0.32432,-1.60566 0.85466,-2.17659l3.19252,-3.45856l0.0112,0.01033c0.01085,-0.01898 0.02173,-0.03794 0.03265,-0.05688c0.0807,-0.14007 3.45076,-3.33566 3.84417,-3.98654c0.57865,-0.95736 0.60933,-2.23798 1.35857,-3.06866c0.92281,-1.02309 2.30353,-1.51226 3.45528,-2.26838l2.35131,-0.66031c0,0 3.13673,-0.62735 3.76408,2.50938z"></path><path d="M296.92121,70.78011c0.98062,-1.21507 2.23783,-2.3282 3.7084,-2.823c4.29881,-1.44643 7.47283,-0.56523 9.03869,3.97293c2.27347,6.58894 -5.81994,13.15117 -11.48367,9.30143c-1.5046,1.10604 -3.40724,1.30594 -6.10644,-0.39817c-1.62252,-1.02437 -2.82792,-2.99111 -3.25269,-5.09796h-3.29373c-2.67376,0 -5.79202,-0.29122 -8.66412,0.08059c-0.42202,0.65543 -0.88302,1.27821 -1.47208,1.77635c-2.43999,2.06338 -5.43137,3.42811 -8.5409,4.05001c-0.14204,0.12133 -0.2598,0.22115 -0.34849,0.29435c0,0 -1.92866,1.58832 -3.78069,0.25301c-0.16601,0.36037 -0.20019,0.91849 -0.12988,1.80849l0.01105,1.60034c0,0 0,3.19885 -3.19885,3.19885c-3.19885,0 -3.19885,-3.19885 -3.19885,-3.19885l0.01105,-2.13165c0.01943,-0.12917 0.03456,-0.25995 0.04649,-0.39191l-3.20423,-2.777c-0.39586,-0.33923 -0.70786,-0.7735 -0.90064,-1.26746c-0.56481,0.17031 -1.01752,0.17031 -1.01752,0.17031h-2.13257c-1.35082,0 -2.71362,-0.16791 -4.0645,-0.18376l0.67788,2.03364c0.12154,0.33805 0.18776,0.7025 0.18776,1.08241c0,1.76667 -1.43218,3.19885 -3.19885,3.19885c-0.60743,0 -1.17532,-0.1693 -1.65905,-0.46331l-3.15161,-1.83843l0.07723,-0.13239c-0.2868,-0.14027 -0.56508,-0.29874 -0.83292,-0.47952c-0.47594,-0.32123 -0.91359,-1.09159 -1.31484,-2.02903c-2.40231,0.10136 -4.71298,-0.49433 -7.05957,-2.87587c-1.22654,-1.24481 -2.67312,-2.6861 -2.8059,-4.42861c-0.58492,-7.6766 6.87236,-8.55008 11.20958,-4.47603c1.18624,1.11427 1.87689,2.29214 2.41761,3.55c0.03548,-0.01107 0.07151,-0.02184 0.1081,-0.03229c1.48085,-0.4231 2.45243,0.07046 3.06188,0.6961c1.75139,-0.02636 5.53991,-0.01947 6.3472,-0.01947h2.13257c0,0 2.35262,0 3.0227,2.01758c0.30764,-0.09844 0.63555,-0.15158 0.97586,-0.15158c0.10216,0 0.2032,0.00479 0.30292,0.01416l3.16159,0.26347l-0.01101,0.13212l0.35207,-0.08511c0.88401,0.27673 1.79913,0.47138 2.72612,0.57491c0.93499,-0.22038 1.93918,-0.36107 3.0258,-0.58137c0,0 0.0548,-0.00996 0.15124,-0.02002c1.82938,-1.52937 3.92851,-3.18169 5.79115,-4.02325c0.79594,-0.35962 1.61822,-0.64271 2.45923,-0.86504c1.37682,-2.73478 2.26851,-5.8903 6.26105,-6.0651c-0.00392,-3.36929 0.3044,-6.76879 0.3044,-10.1373v-2.93228c0,-1.76667 1.43218,-3.19885 3.19885,-3.19885c1.67127,0 3.0432,1.28167 3.1865,2.91574l0.23693,2.36928c0.3203,0.71495 0.57442,1.53961 0.78351,2.6378c0.38073,1.99967 0.85384,3.98068 1.29674,5.96751c0.16782,0.75284 -0.19684,1.62551 0.16201,2.30826c0.26629,0.50665 1.13915,0.39626 1.49507,0.84453c0.97666,1.23009 2.72642,2.46911 3.16598,3.87855c1.19435,0.42215 2.44994,1.64791 3.65861,2.08772c0.02327,0.00847 0.04654,0.01692 0.06982,0.02537z"></path><path d="M174.3346,138.50973c0.08733,-0.11788 0.17145,-0.22548 0.25207,-0.32017c1.15817,-1.3603 2.41655,-2.63587 3.68994,-3.89944c0.28744,-0.39675 0.57773,-0.79098 0.87043,-1.18316c2.30955,-3.43366 4.71218,-6.82095 7.56852,-9.68768c0.2757,-0.35988 0.55019,-0.72153 0.82314,-1.08533c1.75895,-2.34439 3.02318,-5.19498 4.80504,-7.47298c2.92999,-3.74584 6.97364,-7.45556 10.57284,-10.66547c0.41448,-0.57463 0.9952,-0.88924 1.50684,-1.06149c0.4826,-0.20512 1.10314,-0.35316 1.77208,-0.22023c-0.22791,-0.70437 -0.41088,-1.44285 -0.70909,-2.09384c0,0 -1.09319,-3.00626 1.91307,-4.09945c3.00626,-1.09319 4.09945,1.91307 4.09945,1.91307c0.06228,0.50955 -0.1541,1.15487 0.12569,1.55842l0.11282,-0.06268l0.09907,0.17831c0.33809,-0.2276 0.69852,-0.41859 1.08928,-0.55996c1.0608,-0.38378 2.17115,0.08216 3.28182,0.55388c0.45504,0.07402 0.87786,0.24405 1.24699,0.48861c0.14942,0.04838 0.2985,0.09106 0.44713,0.12596l2.91149,2.62735c0,0 2.04785,2.45742 -0.40957,4.50529c-0.19233,0.16027 -0.38214,0.29294 -0.56865,0.40136c1.06453,2.11224 1.61683,4.81225 1.72166,6.97395c0.55482,-0.08763 1.20872,-0.00839 1.96171,0.3681c2.86114,1.43057 1.43057,4.29171 1.43057,4.29171c-2.22222,4.43305 -5.11764,8.36307 -7.53827,12.66864c-1.2091,2.15064 -1.95569,4.56125 -3.32987,6.61036c-0.31262,0.46617 -0.64925,0.91038 -1.00196,1.34009c-0.10736,1.06497 -0.80409,1.87001 -0.96033,2.0385c-1.81603,3.14903 -3.45687,6.45958 -5.52409,9.44972c-1.37991,1.99599 -3.16728,3.70001 -4.45893,5.75421c-1.36321,2.168 -2.36747,4.56606 -3.88974,6.6255c-1.77676,2.40375 -4.42328,4.13128 -6.08601,6.60331c-1.59856,2.37664 -2.83846,5.02228 -4.72723,7.1755c-2.17452,2.47897 -4.14694,4.11631 -5.92714,6.94097c-4.25057,5.32388 -9.08165,11.00231 -15.05718,14.46093c-3.21169,1.85893 -6.95114,2.93722 -10.0565,5.01855c-6.45373,4.32552 -12.79657,7.57385 -20.25231,9.96986c-6.24514,2.00696 -15.25738,6.69146 -22.01139,3.69509c-1.58065,-0.70124 -2.76982,-2.07098 -4.15473,-3.10647c-1.1743,-12.95316 1.25974,-24.84351 6.86806,-36.48308c1.96807,-4.08457 3.87067,-8.80489 6.7856,-12.34504c2.49952,-3.03563 5.38724,-5.83715 8.14774,-8.71919c0.13547,-0.72517 0.51562,-1.36422 1.05151,-1.8282l2.11895,-1.85409l0.10105,0.11548c0.21325,-0.22654 0.4439,-0.43686 0.6964,-0.62686c1.36379,-1.02621 3.37857,-0.48928 5.06176,-0.77194c4.84079,-0.81294 10.26563,-0.22432 14.70022,-2.84514c2.7586,-1.63031 5.06856,-4.16305 7.70688,-5.95091c3.28341,-2.22501 7.26057,-3.53326 10.79583,-5.30239z"></path></g><path d="M226.28807,118.21555c-0.21331,-0.41422 -0.34742,-0.9351 -0.34742,-1.59009c0,-3.19885 3.19885,-3.19885 3.19885,-3.19885l2.96179,3.42568c1.90099,-0.9542 3.56528,0.71009 3.56528,0.71009c2.71076,2.76162 5.78924,4.15814 8.56118,6.96218c2.32468,2.35161 2.61977,4.96261 5.00336,6.90303l2.05733,1.543c0.79388,0.58208 1.30932,1.52156 1.30932,2.58142c0,1.76667 -1.43218,3.19885 -3.19885,3.19885h-2.66571v-0.26862c-0.37106,0.05366 -0.74572,0.07815 -1.12512,0.06422c-1.2629,-0.04635 -1.96746,-1.58762 -2.98077,-2.34279c-2.43113,-1.81177 -5.40465,-3.41211 -7.38478,-5.76555c-1.47219,-1.74974 -2.1507,-4.08703 -3.67079,-5.79531c-1.75229,-1.96925 -4.91458,-2.11776 -5.34716,-5.55196c-0.03805,-0.30205 -0.01082,-0.59276 0.06349,-0.8753z" fill-opacity="0.14902" fill="#843cbb"></path><path d="M256.32976,183.8014h0.26657c1.52745,0 3.43588,-0.23409 5.25597,-0.19648c-0.52881,-0.7794 -0.89846,-1.97689 0.07956,-3.44392c1.7744,-2.66161 4.43601,-0.8872 4.43601,-0.8872c0.90819,0.61595 2.02893,0.99916 2.72456,1.84786c1.31757,1.60749 3.67976,3.34256 3.18417,5.36108c-1.08595,4.42311 -6.3481,4.44777 -10.8448,4.08377l-5.21718,2.73281l-0.03409,-0.06509c-0.12659,0.08411 -0.2544,0.16656 -0.38355,0.24723c-1.33835,0.8359 -3.07505,0.72795 -4.63673,0.95396c-5.40361,0.78201 -10.98445,0.56432 -16.42275,0.56196c-0.41257,-0.00018 -3.31872,0.04442 -5.90457,-0.02407c-3.04231,1.14636 -6.06585,2.31954 -9.07812,3.32534c0,0 -3.0347,1.01156 -4.04626,-2.02314c-1.01156,-3.0347 2.02314,-4.04626 2.02314,-4.04626c1.76835,-0.58839 3.54005,-1.22589 5.31655,-1.87973c0.02142,-2.36312 1.33982,-4.71583 3.23481,-6.00029c0.56286,-0.38152 1.18741,-0.64207 1.84158,-0.83918c-0.48308,-2.06521 -0.57589,-4.36507 -0.58453,-6.63951c0,0 0,-3.19885 3.19885,-3.19885c3.19885,0 3.19885,3.19885 3.19885,3.19885c-0.00406,0.88442 -0.08844,1.77212 -0.01219,2.65326c0.10265,1.18633 0.27719,2.0908 0.53188,2.77866c4.59088,-0.52897 9.37856,-0.1376 13.89653,0.35665l1.14972,0.7593c2.05888,-0.04026 4.1323,0.09541 6.22221,0.45162c0.35678,-0.06866 0.60383,-0.06866 0.60383,-0.06866z" fill-opacity="0.14902" fill="#843cbb"></path><path d="M199.9203,263.71441c-2.34512,7.34457 -8.16895,17.38439 -4.9026,25.43545c0.62699,1.54542 2.44172,2.30661 3.39545,3.67475c0.60916,0.87384 0.69031,2.0606 1.35145,2.89579c0.58449,0.73838 2.55266,1.05024 3.36789,1.37375h3.08188c1.76667,0 3.19885,1.43218 3.19885,3.19885c0,1.67127 -1.28167,3.0432 -2.91574,3.1865l-2.51585,0.25159c-2.03378,0.3948 -4.11864,0.54947 -6.19032,0.55652c-1.26926,-0.14983 -2.4025,-0.3945 -3.41433,-0.73995c-0.47524,0.63143 -1.1789,1.08121 -1.98822,1.22657l-2.6076,0.52152l-0.02499,-0.12498c-0.1466,0.06522 -0.29523,0.12648 -0.4461,0.18328c-2.41048,0.90751 -7.87669,-1.30767 -10.04628,-2.32134c-1.58179,-0.73904 -3.80697,-0.93157 -4.6134,-2.48008c-0.88269,-1.69497 -0.14237,-3.87415 0.34147,-5.72292c0.38852,-1.48458 2.59437,-3.62374 3.44373,-5.01527c2.03915,-3.34078 4.13515,-6.96465 6.00713,-10.51424c-0.04304,-3.31987 0.44174,-6.69023 0.72345,-9.92671c0.34628,-3.97816 0.49183,-7.29658 2.5424,-10.91849c0.34124,-0.60275 0.74807,-1.16356 1.18958,-1.70071c-3.49528,-0.40575 -4.62379,-3.23878 -4.9694,-6.10342c-1.36291,-0.74733 -2.57814,-2.09195 -3.36109,-3.3301c-0.89378,-1.41342 0.06419,-3.37073 0.45823,-4.99595c1.18941,-4.90589 4.26534,-8.75627 7.58207,-12.32988c0.20159,-0.0912 0.40032,-0.19476 0.59743,-0.30526c2.14947,-4.30777 5.67508,-8.39692 8.21627,-12.20869l-0.10652,-0.03687c0,0 1.01156,-3.0347 4.04626,-2.02314c3.0347,1.01156 2.02314,4.04626 2.02314,4.04626l-0.63966,1.56255c-0.8546,1.2819 -1.68647,2.58567 -2.52197,3.88724c0.55686,0.16707 1.12907,0.54065 1.64768,1.25373c1.88148,2.58703 -0.70555,4.4685 -0.70555,4.4685c-0.76987,0.55277 -1.44431,1.03938 -2.02203,1.51865c-0.49424,1.70372 -1.62887,3.83754 -2.55354,5.68849c0.00095,0.06953 0.00242,0.13995 0.00441,0.21127c0.01439,0.51462 -0.2752,1.17207 0.08259,1.54225c0.45976,0.47568 1.30719,0.26093 1.91428,0.52378c0.77509,0.3356 5.68578,3.21546 5.85073,3.51685c2.68581,4.90759 0.89657,7.31952 -2.2574,8.36207c-0.39258,3.96684 -1.0194,7.8147 -2.26375,11.7118zM180.97599,297.17464c0.51583,-0.06204 1.04884,-0.00808 1.58906,0.11178c-0.0089,-0.79935 0.00834,-1.61502 0.03641,-2.37808c-0.14716,0.18734 -0.29265,0.37583 -0.43285,0.56796c-0.40752,0.55847 -0.70744,1.20793 -1.19263,1.69835zM194.99212,245.49574c0.004,0.2516 0.0101,0.50327 0.01798,0.75376c0.21458,-0.00335 0.42981,-0.00944 0.64371,-0.01711l0.18096,-0.32572c-0.04112,-0.024 -0.0823,-0.04734 -0.12354,-0.06993c-0.22959,-0.12571 -0.4714,-0.23686 -0.71909,-0.34099z" fill-opacity="0.14902" fill="#843cbb"></path><path d="M276.29136,297.17324l0.03125,0.18748c-0.35858,0 -0.71734,-0.00528 -1.07619,-0.013c-0.0709,0.90404 -0.51762,1.70246 -1.18402,2.23914l-2.91158,2.3822l-0.05544,-0.06775c-1.13716,1.10579 -2.57162,1.79152 -4.63591,1.59054c-3.51569,-0.34227 -6.49905,-1.94604 -6.40444,-5.1872c-0.19515,-0.15122 -0.38966,-0.31563 -0.5832,-0.49371c-1.23558,-1.13684 -0.6003,-3.309 -0.74292,-4.98194c-0.60897,-7.14261 0.29876,-15.3221 2.25573,-22.20474c0.99812,-3.51041 3.40858,-6.52821 4.99227,-9.80326c-0.75732,0.07163 -1.49314,0.02977 -2.18712,-0.16489c-1.39525,-0.39138 -2.03499,-2.0645 -3.01415,-3.13276c-3.58216,-3.90809 -4.10476,-8.0833 -5.17456,-13.07319c0,0 -0.67026,-3.12785 2.45759,-3.7981c1.39972,-0.29995 2.30729,0.16073 2.88288,0.76132c0.79412,0.44339 1.24869,1.12527 1.24869,1.12527l1.05934,2.30846c0.39745,5.04948 0.60291,5.42827 5.89636,4.57209c1.17713,-0.1904 2.30252,-1.02667 3.47904,-0.83258c0.18191,0.03001 0.36193,0.06677 0.54031,0.10941l0.01019,-0.10197l1.08861,0.10886c0.37802,-0.83905 1.17557,-1.72416 2.85823,-1.72416c3.19885,0 3.19885,3.19885 3.19885,3.19885l-0.22879,1.45459c-1.00697,2.51073 -2.22225,5.13176 -3.38947,7.82051c-0.12914,1.98468 -1.38477,3.98043 -1.76989,5.98612c-0.71012,3.69833 -1.55511,7.38955 -2.59874,11.01936c0.05962,2.37658 0.3805,5.45034 1.13577,7.56299c0.58361,1.63248 1.55095,5.3147 2.54083,6.64184c0.20218,0.27107 0.92182,0.06103 1.03275,0.29998h1.94469c1.76667,0 3.19885,1.43218 3.19885,3.19885c0,1.76667 -1.43218,3.19885 -3.19885,3.19885h-2.66571v-0.1942c-0.01041,0.00226 -0.02082,0.0045 -0.03125,0.00671z" fill-opacity="0.14902" fill="#843cbb"></path><path d="M260.45853,87.01136c-3.17415,0.39676 -3.57092,-2.77738 -3.57092,-2.77738l0.28698,-0.69492c-1.3039,-1.86287 -2.62751,-3.71204 -3.96499,-5.55094c0,0 -1.88148,-2.58703 0.70555,-4.4685c2.58703,-1.88148 4.4685,0.70555 4.4685,0.70555c1.36002,1.87017 2.706,3.75071 4.03215,5.64505l0.82012,3.57022c0,0 0.39676,3.17415 -2.77738,3.57092z" fill-opacity="0.14902" fill="#843cbb"></path><path d="M265.46432,171.44141c1.43057,-2.86114 4.29171,-1.43057 4.29171,-1.43057l0.32417,0.24536c1.79186,-2.21139 4.15969,-3.56545 6.41895,-2.33714c0.73063,0.39723 1.17361,1.09789 1.42491,1.93458c0.89938,1.01954 0.78826,2.46397 0.78826,2.46397c-0.11405,1.45256 -0.29574,6.40246 -1.28289,7.59134c-3.05128,3.67481 -7.15155,4.79439 -9.94945,-0.5377c-0.41871,-0.79794 -0.45853,-1.94991 -0.21034,-3.22697c-0.20638,-0.41862 -0.41844,-0.83 -0.6742,-1.18566l0.29944,0.7745c0,0 -2.86114,-1.43057 -1.43057,-4.29171z" fill-opacity="0.29804" fill="#efd9ff"></path><path d="M274.42865,172.07227c-0.07954,0 -0.15908,0 -0.23862,0h-1.33286c-0.73612,0 -1.33286,-0.59674 -1.33286,-1.33286c0,-0.49402 0.26877,-0.92526 0.66806,-1.15548l1.3119,-0.78714l0.02446,0.04076c0.0969,-0.06735 0.19844,-0.12853 0.30551,-0.18233c2.88911,-1.45201 3.76828,2.10204 3.82121,3.9502l-2.80847,0.40933c0,0 -0.40151,-0.40151 -0.41834,-0.94247z" fill-opacity="0.78431" fill="#efd9ff"></path><path d="M220.73364,301.97782c0.18176,-0.16266 0.3967,-0.25015 0.57532,-0.29721c0.23647,-0.07341 0.56678,-0.11981 0.89337,0.0205l1.33919,0.19131c1.44572,1.40487 2.94302,1.93696 0.48067,4.30254c-0.39831,0.38266 -2.62057,0.16697 -3.31846,0.22581c-3.2486,0.27389 -5.87713,0.65919 -8.72561,0.21688c-0.05518,0.00887 -0.11042,0.01788 -0.16573,0.02703v0.29259h-1.866c-0.73612,0 -1.33286,-0.59674 -1.33286,-1.33286c0,-0.66901 0.49289,-1.22289 1.13535,-1.31832l1.57781,-0.26297c3.21728,-0.53585 6.65602,-0.3863 9.40695,-2.06532z" fill-opacity="0.78431" fill="#efd9ff"></path><path d="M303.77943,300.82615c-0.00006,0 -0.00013,0 -0.00019,0c-0.01846,-0.00006 -1.33266,-0.00936 -1.33266,-1.33286c0,-1.3221 1.31143,-1.33277 1.3326,-1.33286c0.00009,0 0.00017,0 0.00026,0l2.66571,1.33286zM303.77918,298.16044c0.00017,0 0.00026,0 0.00026,0v2.66571c0,0 -0.00006,0 -0.00019,0c-2.5818,-0.00608 -5.12931,-0.26657 -7.73037,-0.26657c0,0 -1.33286,0 -1.33286,-1.33286c0,-1.33286 1.33286,-1.33286 1.33286,-1.33286c2.59544,0 5.15613,0.27352 7.73031,0.26657z" fill-opacity="0.78431" fill="#efd9ff"></path><path d="M298.18144,84.37035c0,-0.73612 0.59674,-1.33286 1.33286,-1.33286c0.73612,0 1.33286,0.59674 1.33286,1.33286c0,0.73612 -0.59674,1.33286 -1.33286,1.33286c-0.73612,0 -1.33286,-0.59674 -1.33286,-1.33286z" fill-opacity="0.78431" fill="#efd9ff"></path><path d="M305.64543,94.23348c-0.79971,-1.06628 0.26657,-1.866 0.26657,-1.866l1.05552,-0.79163c0.13142,-0.10081 0.28217,-0.17769 0.44572,-0.22412c0.38021,-0.12441 0.94395,-0.15197 1.41753,0.46479c0.01045,0.01344 0.02064,0.02708 0.03059,0.04092c0.45642,0.62741 0.26946,1.16051 0.04305,1.48948c-0.08947,0.14107 -0.20471,0.26418 -0.3391,0.36272l-1.05387,0.7904c0,0 -1.06628,0.79971 -1.866,-0.26657z" fill-opacity="0.78431" fill="#efd9ff"></path><path d="M312.04314,99.03176c0,-0.73612 0.59674,-1.33286 1.33286,-1.33286c0.73612,0 1.33286,0.59674 1.33286,1.33286c0,0.73612 -0.59674,1.33286 -1.33286,1.33286c-0.73612,0 -1.33286,-0.59674 -1.33286,-1.33286z" fill-opacity="0.78431" fill="#efd9ff"></path><path d="M238.20292,84.10378c0,-0.73612 0.59674,-1.33286 1.33286,-1.33286c0.73612,0 1.33286,0.59674 1.33286,1.33286c0,0.73612 -0.59674,1.33286 -1.33286,1.33286c-0.73612,0 -1.33286,-0.59674 -1.33286,-1.33286z" fill-opacity="0.78431" fill="#efd9ff"></path><path d="M237.93386,92.62854c0.04874,-0.26338 0.19943,-0.54205 0.53564,-0.7942c1.06628,-0.79971 1.866,0.26657 1.866,0.26657c0.29845,0.40434 0.59691,0.80867 0.89537,1.21299l0.01933,0.18049l0.05626,-0.0225l0.52191,1.30479c0.06859,0.16059 0.10655,0.3374 0.10655,0.52308c0,0.73612 -0.59674,1.33286 -1.33286,1.33286c-0.18567,0 -0.36247,-0.03797 -0.52308,-0.10655l-1.30479,-0.52191l-1.23028,-1.70774c0,0 -0.52275,-1.0455 0.38993,-1.66787z" fill-opacity="0.78431" fill="#efd9ff"></path><path d="M236.87007,107.82861c-1.33286,0 -1.33286,-1.33286 -1.33286,-1.33286l0.64711,0.34321c-0.44429,-0.26657 -0.88857,-0.53314 -1.33286,-0.79971c0,0 -1.14292,-0.68575 -0.45717,-1.82867c0.68575,-1.14292 1.82867,-0.45717 1.82867,-0.45717c0.44429,0.26657 0.88857,0.53314 1.33286,0.79971l0.64711,1.94263c0,0 0,1.33286 -1.33286,1.33286z" fill-opacity="0.78431" fill="#efd9ff"></path><path d="M161.16429,149.93108c1.64369,-2.06837 2.81907,-4.52211 4.68313,-6.39431c2.48031,-2.49115 5.84198,-4.04711 8.28852,-6.62244c1.16214,-1.22332 2.29371,-2.39599 3.42182,-3.52558c1.38507,-2.00058 2.81394,-3.97025 4.33381,-5.86842c1.67116,-2.08712 3.68317,-4.11402 5.79547,-6.05513l3.57716,-5.85353c0.60819,-1.03419 1.73259,-1.72833 3.01913,-1.72833c1.933,0 3.5,1.567 3.5,3.5c0,0.58785 -0.14492,1.14185 -0.40099,1.62823l-0.63193,1.26385c0.83089,0.63993 1.36625,1.64474 1.36625,2.77459c0,0.87689 -0.32247,1.67846 -0.8553,2.29259l-1.83174,2.13702c-1.41916,4.43534 -6.26795,8.49733 -8.99801,11.98363c-3.46379,4.42328 -6.38521,9.51176 -10.24693,13.6315c-0.93041,0.99257 -2.02829,1.80381 -3.12638,2.61647c-0.6149,0.72618 -1.26389,1.44314 -1.96677,2.147c-1.01067,1.01207 -2.19716,2.08349 -3.32282,3.22766c-1.24482,1.86606 -2.28672,3.86977 -3.56791,5.74144c-0.0476,0.08936 -0.10156,0.16921 -0.16387,0.23674c-0.14425,0.20605 -0.29167,0.41033 -0.44286,0.61249l-0.26439,0.08649l0.09518,0.09518l-2,2c-0.63338,0.63338 -1.50838,1.02513 -2.47487,1.02513c-0.84871,0 -1.62686,-0.30208 -2.2328,-0.80459l-0.68728,2.7491c-0.3537,1.55862 -1.7476,2.72215 -3.41326,2.72215c-1.933,0 -3.5,-1.567 -3.5,-3.5c0,-0.3202 0.043,-0.63036 0.12354,-0.92502l0.33029,-1.32116c-0.83314,-2.54603 -1.36497,-5.21079 -0.52074,-7.42655c0.87899,-2.30698 3.26124,-3.84817 5.77239,-5.18357c0.12851,-0.85777 0.56829,-1.61373 1.2007,-2.14924l1.84776,-1.58379c0.11004,-1.58223 2.2953,-2.27324 3.29369,-3.52958z" fill-opacity="0.14902" fill="#843cbb"></path></g></g></svg>