<svg version="1.1" xmlns="http://www.w3.org/2000/svg" xmlns:xlink="http://www.w3.org/1999/xlink" width="138.87196" height="292.63684" viewBox="0,0,138.87196,292.63684"><g transform="translate(-164.85077,-6.91317)"><g stroke="none" stroke-width="0.5" stroke-miterlimit="10"><g><path d="M281.47848,36.16594c0.33082,0.06616 0.55449,0.20375 0.70476,0.3694c1.57499,-1.2252 2.3425,-3.50865 2.30052,-5.62385c-0.04004,-0.19942 -0.0261,-0.43559 0.08021,-0.71171c0.07072,-0.21124 0.20347,-0.45309 0.45265,-0.61673c0.1504,-0.10494 0.31192,-0.15798 0.46573,-0.18028c0.02589,-0.17462 0.09605,-0.35673 0.23992,-0.52759c0.13466,-0.19821 0.3452,-0.37638 0.67441,-0.44898c0.31964,-0.10712 0.59185,-0.06266 0.8093,0.03802c0.36218,0.12427 0.55562,0.38833 0.65893,0.63495c2.62284,4.45881 2.07895,8.64305 -0.13615,12.79468l-0.08482,0.21205l-0.02443,-0.00977c-0.02993,0.05474 -0.06014,0.10948 -0.09064,0.16422l-0.00197,0.06943c-0.03077,0.03165 -0.06066,0.06288 -0.08974,0.09366c-0.31118,0.54837 -0.65043,1.09634 -1.01431,1.64449l-0.20923,1.04617c-0.0862,0.47994 -0.44635,0.86478 -0.91281,0.9869c-0.09657,0.17154 -0.19097,0.33505 -0.28014,0.48815l-0.05412,0.0399l0.01681,0.01261l-0.74127,0.98836c-0.22746,0.31022 -0.59457,0.51164 -1.00873,0.51164c-0.61444,0 -1.12533,-0.44333 -1.23027,-1.02756l-0.15308,-0.76538c-1.45169,-2.18175 -3.06296,-4.47171 -2.55143,-6.83464c-0.14426,-0.15792 -0.25773,-0.38109 -0.30266,-0.69564c-0.1458,-1.02062 0.67044,-1.3197 0.96095,-1.39318l0.05076,-0.27874c0,0 0.24515,-1.22573 1.47087,-0.98058z" fill-opacity="0.97647" fill="#ad4eac"></path><path d="M198.31262,237.54965c0,0 0.59201,-2.17072 2.76273,-1.5787c0.32419,0.08842 0.58676,0.21204 0.79889,0.3584c0.46891,-0.49294 1.43358,-1.16692 2.76672,-0.36704c1.46162,0.87697 1.1516,2.19686 0.91537,2.78528c1.2768,-0.35822 2.79178,-1.33749 3.90596,-0.63179c0.28096,0.17796 0.53147,0.36985 0.75407,0.57393c0.79683,-3.10801 2.6281,-5.20848 5.85018,-7.80944c1.59921,-2.45064 3.14963,-5.23829 5.9662,-6.52795c1.19547,-0.54739 2.58385,-0.50802 3.84548,-0.87825c11.48925,-3.3715 28.20121,-4.61192 37.46119,5.0918c3.02216,3.16698 4.92818,6.91514 6.45154,10.87967c2.77605,-0.00803 4.09926,0.75902 4.56402,1.94215c0.20498,-0.23743 0.42759,-0.45775 0.67656,-0.65264c0.05125,-0.04012 0.10283,-0.07974 0.15473,-0.11888l-0.01936,-0.0205l3.26814,-3.08658c0.40336,-0.38268 0.94842,-0.61745 1.54832,-0.61745c0.08691,0 0.17267,0.00493 0.25702,0.01452c0.00958,-0.0557 0.01933,-0.11137 0.02927,-0.16701c0,0 0.40249,-2.21371 2.6162,-1.81122c2.21371,0.40249 1.81122,2.6162 1.81122,2.6162c-0.91455,4.9317 -0.47065,9.94149 -1.91561,14.7864c0.0004,0.3476 -0.09538,0.66323 -0.21657,0.9233c-0.13733,0.37698 -0.3866,0.79567 -0.83905,1.07356c-1.2881,1.27139 -2.55806,2.47464 -4.00208,3.18473l0.10337,0.64883c1.68318,-0.3974 2.45456,1.29963 2.45456,1.29963c1.25996,2.80729 3.15908,4.99211 4.30349,7.87803c0.09553,0.24091 0.15778,0.4936 0.20826,0.75023c1.56838,1.71123 3.9888,2.85125 5.25999,4.72999c1.61927,2.39317 1.72862,4.68382 3.63825,6.85853l0.47625,0.47231c2.78268,0.04194 5.71379,0.31508 7.67963,2.67454c1.44742,1.73723 2.34436,3.60744 1.6176,5.16292c0.02497,0.69639 0.00437,1.41542 0.01819,2.1545v1.75c0,0.78142 -0.27138,1.29145 -0.62565,1.62435c-0.3329,0.35427 -0.84293,0.62565 -1.62435,0.62565c-0.00358,0 -0.00716,-0.00001 -0.01073,-0.00002c-5.99154,-0.00939 -12.01222,0.24391 -18.02319,0.24991c-0.4161,0.0734 -0.81104,0.00004 -1.11673,-0.10092c-0.32629,-0.08996 -0.71775,-0.26003 -1.03171,-0.58153c-0.92993,-0.60042 -2.02649,-1.05792 -2.5514,-2.00576c-0.32214,-0.5817 -0.26623,-4.71959 -0.26623,-5.81168v-0.01955l-0.43167,-0.48563l0.07236,-0.06432l-0.226,-0.12891c-1.36553,-2.43066 -3.25182,-4.90528 -4.26816,-7.50291c-0.81193,-2.07518 -1.45101,-4.23934 -2.10247,-6.40496c-1.33818,-2.2157 -2.71507,-4.41602 -3.97251,-6.75622c-0.20298,-0.06264 -0.32779,-0.12504 -0.32779,-0.12504l-0.68627,-0.35446c-1.20538,-0.75474 -4.97631,-2.89908 -5.01938,-4.24556c-0.04393,-1.37332 0.17508,-2.37907 0.57443,-3.09189c-0.08618,-0.39509 -0.12553,-0.79814 -0.10836,-1.20793c0.06768,-1.61494 1.57571,-2.99823 1.4958,-4.61262c0,0 0,-1.19794 0.8741,-1.84562c0.3011,-1.49896 0.80936,-2.95634 1.1199,-4.16558l0.06094,-0.07418l-0.03279,-0.01151l0.83962,-2.39256c-1.38114,-3.88385 -3.05374,-7.61751 -5.96784,-10.68479c-3.11498,-3.27872 -7.31318,-4.21137 -11.53288,-5.22888c-8.04024,-1.93876 -16.981,-1.14335 -24.66045,1.94244c-1.96679,0.79031 -3.46462,3.89587 -4.5338,5.47205c-2.81476,2.33048 -4.28726,3.54877 -4.86693,5.99807c0.71374,0.37723 1.20013,1.12709 1.20013,1.99055c0,0.3779 -0.09317,0.73405 -0.25778,1.04672l-1.33982,2.67964c-0.37749,4.22103 -1.4857,11.37955 -5.06758,14.08493c-1.15283,0.87073 -2.8414,1.35401 -4.68917,1.47571c-0.92689,0.46248 -1.95151,0.59891 -3.04419,-0.00006c-1.57264,4.85543 -3.04946,10.08615 -3.88167,15.08055c-0.45275,2.7171 -0.70044,5.41519 -1.57554,8.06421c-0.44821,1.35677 -1.11345,2.69964 -2.00852,3.83406c0.25733,0.16477 0.45839,0.37436 0.60815,0.56928c0.2093,0.24441 0.4251,0.58005 0.5145,0.99029c0.38442,0.90037 0.84983,1.79981 1.23514,2.64529c0.44621,0.30339 0.75151,0.67179 0.73111,1.19249c-0.00872,0.22271 -0.02804,0.43565 -0.05733,0.6391c0.25418,1.11463 0.0341,2.00904 -1.23109,2.49535c-0.00144,0.00134 -0.00287,0.00268 -0.00431,0.00401c-0.24595,0.97599 -1.12956,1.69845 -2.1819,1.69845h-2.5c-4.35515,0 -12.91491,1.6459 -15.51246,-2.99377c-0.83122,-1.48469 -0.12334,-4.06842 0.25315,-5.71303c0.0407,-0.27472 0.12689,-0.51852 0.21136,-0.70643c0.10709,-0.2421 0.28094,-0.54797 0.54902,-0.80771l1.55643,-1.93705c0.20157,-0.1129 0.38585,-0.2266 0.55477,-0.3418l0.47768,-2.13004c0.74948,-2.07072 1.17859,-4.27885 2.2021,-6.22873c0.08704,-0.16582 0.21568,-0.30337 0.36043,-0.42959c0.52573,-4.05782 0.8607,-8.28529 2.22922,-11.97031c0.67526,-1.81827 1.68792,-3.66258 2.91389,-5.38632c0.07117,-0.24143 0.14825,-0.48044 0.23167,-0.71613c-0.61826,-0.401 -1.02725,-1.09727 -1.02725,-1.88907c0,-1.24264 1.00736,-2.25 2.25,-2.25c0.21687,0 0.42657,0.03068 0.625,0.08794c0.19843,-0.05726 0.40813,-0.08794 0.625,-0.08794c0.10402,0 0.20639,0.00706 0.30665,0.02072c0.02596,-0.01998 0.0521,-0.03979 0.07841,-0.05942c0.1848,-0.1379 0.38301,-0.25048 0.59056,-0.34546l1.02438,-1.36584c0.58723,0 1.17445,0 1.76168,0c0.25945,-3.32229 2.01645,-7.10379 3.47119,-9.28507c0.48912,-2.10784 1.02214,-4.2013 1.59641,-6.30694zM272.12328,251.68982c0.04101,-0.01724 0.08202,-0.03572 0.123,-0.05538c-0.00856,-0.07975 -0.01295,-0.16075 -0.01295,-0.24278c0,-0.0393 0.00101,-0.07837 0.003,-0.11718c-0.10457,0.10532 -0.20906,0.2106 -0.31335,0.31591c0.06706,0.0327 0.13383,0.06586 0.2003,0.09942z" fill="#e5c1e4"></path><path d="M229.70186,95.81246c2.04346,-0.49933 4.09529,-0.70706 6.0978,-0.53422c4.62863,-0.10912 9.23397,0.45086 13.82636,1.0941c-6.80053,23.97499 -8.32967,49.69835 -7.44864,74.45762c0.15223,2.25662 0.3199,4.51084 0.49805,6.76347c-4.40558,0.43669 -8.84873,0.52769 -13.25694,0.28714c-12.03108,-0.65651 -23.79073,-3.37102 -35.73986,-4.61587l-0.78936,0.17202c-1.91136,0.277 -3.83077,0.49956 -5.75267,0.69126c-0.41525,0.09233 -0.8171,0.07295 -1.13209,0.02427c-0.33448,-0.04344 -0.75323,-0.1455 -1.14542,-0.3757l-1.30024,-0.5477c-3.07712,-0.6885 -7.04447,-1.76309 -9.0451,-4.55046c-0.64613,-0.90023 -0.51695,-2.16812 -0.9681,-3.18023c-0.99215,-2.22577 -2.37715,-1.96411 -3.07652,-4.78014c-0.28977,-1.16675 0.10948,-2.40223 0.19908,-3.60108c0.19771,-2.64567 0.1465,-6.5668 1.43937,-8.93055c0.55603,-1.01659 1.47223,-1.78094 2.28376,-2.61858l0.98657,-2.83666c2.10353,-2.46632 4.50377,-4.3297 6.72593,-6.61555c1.65188,-1.69922 2.6323,-3.70727 3.97739,-5.50727c0.00185,-0.02491 0.00403,-0.04987 0.00656,-0.07487c0.06114,-0.60458 0.31374,-1.14353 0.69158,-1.56279l1.8031,-2.05155c4.90618,-6.85686 12.28712,-11.25234 17.93309,-17.40981c1.51686,-1.65429 2.8526,-3.29997 4.23169,-4.84463c0.30934,-0.89894 0.74274,-1.78391 1.35755,-2.66328c1.18604,-1.69637 3.31268,-2.48699 5.04094,-3.62605c1.74779,-1.15192 2.29879,-2.84552 3.61407,-4.42725c1.35327,-1.6274 3.14284,-2.91022 4.77548,-4.21699l0.46135,-0.02591l-0.06213,-0.16364l2.73556,-1.03863c0.40045,-0.16173 0.84499,-0.23123 1.30453,-0.18475c1.51107,0.15281 2.61217,1.50166 2.45936,3.01273c-0.0517,0.51127 -0.24033,0.9756 -0.52582,1.36031l-1.53327,2.14803l-0.20033,-0.143c-0.149,0.37497 -0.30623,0.74783 -0.47266,1.11619z" fill="#30152f"></path><path d="M256.86666,102.21667c1.28105,-0.00083 7.24405,-0.02108 7.75813,0.10657c1.18388,0.29396 2.06722,1.30156 3.15288,1.85773c1.30094,0.66646 2.93446,0.80052 3.99652,1.80483c2.0313,1.92087 2.64117,4.92912 3.89143,7.42967c2.17147,4.34301 4.05205,8.68731 6.49665,12.79641c2.45104,-0.1099 2.76649,2.41369 2.76649,2.41369c0.92667,7.65606 5.91146,13.4406 6.67679,21.09413c0.2647,2.64709 0.47429,6.78792 -0.03302,9.4043c-0.60209,3.10523 -2.94044,5.14104 -3.76606,8.05279c-0.48779,1.72029 -0.49508,3.55303 -0.98076,5.27391c-0.95867,3.39681 -2.86067,6.87432 -4.07548,10.21159l-0.07008,0.07334l0.03282,0.01459l-1.30784,2.94263c-0.41487,0.99282 -1.3952,1.69049 -2.53848,1.69049c-1.51878,0 -2.75,-1.23122 -2.75,-2.75v-3c-0.09916,-0.47652 -0.12515,-1.28589 -0.10828,-2.24201c-0.1448,-0.33456 -0.22505,-0.70357 -0.22505,-1.09132c0,-0.30404 0.04934,-0.59655 0.14045,-0.86997l0.19998,-0.64995c0.11627,-1.84487 0.28412,-3.66116 0.34884,-4.49864l0.07267,-0.13078l-0.05092,-0.00926l0.09554,-0.52545c-2.87092,1.71602 -5.84304,3.29061 -8.71138,5.08259c-4.86978,2.44095 -10.02892,4.34262 -15.33731,5.71793c-0.38328,-2.11394 -0.75708,-4.23033 -1.11721,-6.35029c-3.32341,-24.25075 -4.39749,-49.73888 0.00803,-73.96588c1.81568,0.06697 3.62821,0.11753 5.43465,0.11636z" fill="#30152f"></path><path d="M274.69665,131.64707c0.43398,0.86487 1.29992,1.47709 1.68162,2.36628c0.82815,1.92922 0.98216,4.08248 1.48962,6.11968c1.36024,5.46059 2.21036,10.9502 3.46236,16.42503c1.14861,2.47394 2.512,4.87958 3.38105,7.51128c0.74329,2.25087 0.56739,4.71949 1.14488,7.01849c0.51356,2.04449 1.52666,3.98201 1.74406,6.07877c0.11467,1.10587 -0.28408,2.24652 -0.05714,3.33492c0.18276,0.87653 0.95041,1.53406 1.24841,2.3784c1.00529,2.84831 1.66467,5.82759 2.67534,8.69147c1.55091,4.39472 2.50406,8.91294 3.98827,13.29997c0.594,1.58665 1.40133,3.10907 1.782,4.75995c0.32113,1.39267 -0.1716,2.87946 -0.13609,4.30312c2.81185,6.83732 7.99192,14.10891 3.01353,21.11638c-0.77586,1.09209 -1.57063,2.23906 -2.67145,3.00249c-1.10215,0.76436 -2.44158,1.16864 -3.75244,1.45258c-0.21757,0.04713 -5.85208,0.0618 -6.16001,0.02352c-2.03576,-0.25305 -4.00548,-0.87178 -5.99287,-1.39547c-2.75997,3.38223 -5.90797,4.45527 -9.43597,6.92491c-3.2076,2.24536 -6.3104,5.79743 -10.27,6.75093c-2.48195,0.59767 -4.3078,-0.1106 -6.63213,-0.67521c0,0 -0.1121,-0.02802 -0.28459,-0.09556c-0.17492,-0.06098 -0.27827,-0.11265 -0.27827,-0.11265l-1.79149,-0.90636c-2.03152,-0.81698 -4.26951,-1.11368 -6.22377,-2.10132c-3.16449,-1.59927 -5.80906,-4.2106 -7.71644,-7.17284c-3.47399,1.921 -6.92587,3.46115 -10.93593,4.10275c-2.80662,0.44906 -5.96115,0.20456 -8.71662,0.93904c-4.20407,1.1206 -7.38601,3.36982 -12.05293,1.574c-1.05907,-0.40753 -1.85735,-1.30582 -2.81628,-1.91259c-5.17385,-3.27384 -7.66317,-6.76107 -8.3769,-12.06143l-3.08212,1.28422l-0.04551,-0.10922c-0.155,0.09304 -0.31252,0.1823 -0.47287,0.26735c-1.04236,0.55287 -2.35955,0.0356 -3.53932,0.0534h-3c-1.51878,0 -2.75,-1.23122 -2.75,-2.75c0,-0.13562 0.00982,-0.26894 0.02878,-0.3993c-0.60671,-0.22488 -1.17479,-0.47039 -1.68754,-0.73636c-1.45494,-0.75469 -3.18559,-1.44018 -3.9965,-2.86455c-1.67257,-2.93787 0.0409,-5.2957 1.18349,-7.69523c-0.3587,-2.31978 0.5386,-3.59084 1.28561,-5.85878c0.4442,-1.34861 1.70067,-5.96447 2.55894,-7.49494c0.39948,-0.71236 1.21317,-1.13898 1.5919,-1.86258c0.05133,-0.09806 0.09887,-0.1974 0.14299,-0.2979c0.02073,-0.04916 0.0414,-0.09834 0.06202,-0.14753c0.66904,-1.66333 0.46545,-3.62297 0.92944,-5.3745c0.92762,-3.50167 3.01655,-6.63955 4.02463,-10.084c0.33787,-1.15445 0.29643,-2.41329 0.73705,-3.53256c0.80209,-2.03749 2.50744,-3.6329 3.33135,-5.66166c0.56128,-1.38208 1.16697,-2.75335 1.78768,-4.12292c3.24227,-10.1146 7.09287,-19.82877 12.51106,-29.21189c1.86058,-5.30554 4.75998,-10.30229 7.09043,-15.46318c1.52215,-3.37088 1.95068,-7.35536 3.79147,-10.57461c0.12118,-0.21192 0.65505,-0.86704 1.2939,-1.62626c0.00204,-0.65445 0.23269,-1.25509 0.61628,-1.72625l2.65298,-3.31623l0.05454,0.04363c1.86382,-2.76824 3.08108,-6.85586 5.98349,-8.4253c0.1482,-0.08014 0.29931,-0.15171 0.45299,-0.21574l-0.04134,-0.07235l2.2914,-1.30937c0.41148,-0.24534 0.89244,-0.38629 1.40631,-0.38629c1.51878,0 2.75,1.23122 2.75,2.75c0,0.67623 -0.24408,1.29545 -0.64895,1.77437l-0.10509,0.12611c0.92784,-0.0009 1.83149,0.01675 2.6707,0.01619c7.64774,-0.00517 15.57532,2.12063 22.29126,5.80338c0.66339,-0.26983 1.32896,-0.17259 1.80914,-0.02088c0.36186,0.09654 0.79405,0.27355 1.16244,0.59808c3.86374,2.37661 7.56464,3.55842 9.89947,7.32293c0.19076,0.11411 0.35252,0.24855 0.48967,0.39451c0.43299,0.40688 0.76468,1.03025 0.76468,1.98532c0,2.13278 -0.58985,5.18122 0.41332,7.18041z" fill="#316a70"></path><path d="M264.98333,169.89167c-0.41667,0 -1.83333,0 -2.25,0c0,0 -1.25,0 -1.25,-1.25c0,-0.02092 0.00035,-0.04149 0.00104,-0.06172l-0.25104,-0.18828l0.02654,-0.03538l-0.09554,-0.0203c-0.24422,-0.24422 -0.476,-0.48844 -0.69646,-0.73439l-0.18911,-0.16547l0.02141,-0.02447c-0.3695,-0.42497 -0.70634,-0.8564 -1.01628,-1.30317c-1.2702,-1.255 -2.08771,-3.23602 -2.91351,-4.89775c-0.83629,-1.68284 -2.31303,-2.60347 -3.34674,-4.01813c-1.34533,-1.84113 -2.06035,-4.19346 -3.32762,-6.10345c-1.05606,-1.59166 -2.87256,-2.39897 -3.79485,-4.07184c-0.8842,-1.6038 -1.0451,-3.13932 -1.39357,-4.8805l-0.02427,-0.74515c0,0 0,-0.55921 0.37403,-0.92957c-0.25644,-1.04735 -0.38491,-2.13979 0.00793,-2.87945c0.76351,-1.43758 1.81214,-1.33569 3.07352,-1.65579c2.84315,-0.7215 6.90012,-1.13571 9.63434,0.36272c2.03245,1.11383 3.16631,3.35652 4.83711,4.83217c0.14249,-0.00166 0.27628,0.02406 0.3929,0.06022l-0.23042,-0.57606l0.24533,-0.09813c-0.35776,-0.80995 -0.33473,-1.52285 -0.33473,-3.11611v-1c0,0 0,-1.25 1.25,-1.25c1.25,0 1.25,1.25 1.25,1.25v0.01835c1,0.15443 1,1.23165 1,1.23165c0,0.69946 -0.00512,1.39892 -0.01375,2.09833c0.95481,-1.4896 1.85062,-2.98962 3.67694,-3.5521c0.82896,-0.25531 2.31485,-0.39211 3.20999,-0.29015c6.41234,0.73037 3.22262,8.06774 2.3496,11.75341c-0.27356,1.15489 -0.30182,2.4775 -1.04323,3.40427c0.04579,2.00785 -0.84051,3.18048 -1.5058,5.01619c-1.44224,3.97946 -3.29614,9.39977 -6.28985,12.45394l-0.01585,0.17513c0,0 -0.04662,0.09324 -0.13986,0.2124c-0.1664,0.97858 -1.22818,0.97858 -1.22818,0.97858z" fill-opacity="0.99216" fill="#301530"></path><path d="M282.85833,77.39167c9.78737,16.98878 -0.7106,41.75 -21.875,41.75c-15.41886,0 -27.71777,-14.0394 -25,-29.25c0,-4.69972 1.29682,-9.09656 3.55215,-12.85218c1.85829,-4.10219 4.61188,-7.59755 8.83929,-8.7401c3.70159,-2.16617 8.01009,-3.40772 12.60856,-3.40772c4.98998,0 9.6385,1.46195 13.54062,3.98091c3.10186,1.54571 5.69746,3.94195 8.33438,8.51909z" fill="#ba99b9"></path><path d="M217.41885,117.58503c-4.70942,-2.41228 -11.69736,-3.10769 -16.9269,-3.88286c-4.49858,-0.66682 -7.33225,-3.21697 -10.93371,-5.55533c-2.10638,-1.36763 -4.22328,-1.7829 -6.32529,-3.323l-1.46999,-0.7692c-2.99756,-2.40314 -5.74534,-5.49697 -7.67227,-8.71604c-0.34339,-0.57366 -0.23796,-1.35439 -0.60755,-1.91153c-0.22525,-0.33955 -0.47718,-0.67217 -0.7433,-1.00317c-5.77848,-4.97645 -5.09576,-12.22588 -4.90794,-19.2703c-0.29856,-0.42558 -0.29856,-0.93693 -0.29856,-0.93693l0.04479,-0.30286c-1.00076,-4.06926 -0.71145,-8.18753 -0.71145,-12.3638c0,-1.11111 0,-3.55556 0,-4.66667c0,-5.38289 -0.11583,-10.75494 0.33711,-16.10633c0.15117,-1.78607 -0.32822,-3.75171 0.02329,-5.51066c0.17891,-0.89527 1.46344,-3.38538 1.70678,-4.1602c1.01199,-3.22231 2.05472,-6.05999 3.81325,-8.99455c0,0 0.00652,-0.01086 0.01935,-0.02998c0.01179,-0.01978 0.01882,-0.03032 0.01882,-0.03032l1.33333,-2c1.25648,-1.87309 1.80957,-3.00339 3.75567,-4.42021c1.4148,-1.03002 3.59089,-1.30816 5.15919,-2.09151c3.8514,-1.92372 7.589,-3.4841 11.99988,-3.48956c0.71506,-0.00089 3.9105,-0.02325 4.24069,0.11418c2.31663,0.96422 1.92482,3.65275 4.38682,3.91495c0,0 0.04995,0.00999 0.1296,0.03549c0.28882,0.07795 0.65781,0.24994 0.88012,0.62938c0.15213,0.23354 0.24337,0.54403 0.19101,0.95402c-0.02906,0.4123 -0.17942,0.69886 -0.3744,0.89803c-0.2924,0.32848 -0.68796,0.42476 -0.98646,0.44455c-0.08311,0.00939 -0.13405,0.00939 -0.13405,0.00939h-0.33333c-1.85783,0 -3.71564,-0.00007 -5.57346,-0.0029c-1.03576,0.11593 -1.90843,0.40849 -2.67374,0.82705c-0.59944,0.46394 -1.20138,0.91861 -1.80694,1.3613c-1.21997,1.18322 -2.21362,2.68247 -3.40626,4.11148c-0.97174,1.87964 -1.83372,3.94096 -3.1456,5.26372c-1.67748,1.6914 -3.28769,3.90474 -4.56077,6.33079c-0.00691,1.84526 -0.33695,3.94608 0.03315,5.78599c0.99088,0.84974 1.17343,1.56566 0.93409,2.17052c0.00457,0.00604 0.00916,0.01208 0.01377,0.0181c0.22246,0.13643 0.42711,0.35915 0.56795,0.71413c0.11864,0.24986 0.20368,0.57891 0.1097,0.93866c-0.07683,0.36381 -0.30004,0.62009 -0.5179,0.79051c-0.27774,0.24827 -0.55349,0.35683 -0.80817,0.38293c-1.00497,0.34481 -2.03331,0.80041 -3.01528,1.32799c-0.05331,0.37649 -0.28288,1.19905 -1.27137,1.30233c-0.212,0.42994 -0.43336,0.85187 -0.65887,1.26944c0.78907,0.50961 0.5839,1.53546 0.5839,1.53546c-0.6954,3.3939 -1.2964,9.59853 -0.06325,12.85422c0.24375,0.64353 0.88327,1.114 1.03795,1.78453c0.30941,1.34127 -0.32117,2.87235 0.25712,4.12148c0.61052,1.31874 2.15694,2.69223 3.14628,3.68914l0.99688,1.64174c0.11052,0.15443 0.18302,0.31576 0.22954,0.44788c0.04654,0.13001 0.09139,0.29797 0.10377,0.48431c0.5765,3.80867 3.19975,4.93293 5.62068,7.69971c2.62035,2.99469 5.6426,5.39068 8.89251,7.48015c0.75782,-0.16849 1.3683,0.442 1.3683,0.442l0.99755,0.99755c0.00769,0.00766 0.01537,0.01531 0.02306,0.02297c2.70108,1.57938 5.52287,3.00526 8.374,4.43083c0.09251,0.07022 0.18806,0.13862 0.28648,0.20522c2.53064,-0.07012 5.26806,-0.59732 7.61088,-0.73157c0.40041,-0.10162 0.84617,-0.12195 1.30884,-0.1211c0.16885,-0.27891 0.32007,-0.56597 0.43945,-0.86746c1.20809,-3.05097 2.56302,-5.8034 4.05744,-8.79659c0,0 0.0538,-0.1076 0.1614,-0.24663c0.11834,-0.66137 0.74183,-1.03546 0.74183,-1.03546c2.28369,-1.37008 4.52538,-2.91516 7.17077,-3.52302c2.93729,-0.67494 5.42113,-0.28842 7.69176,0.66348c0.02298,0.03935 0.0371,0.06052 0.0371,0.06052c1.99331,2.97152 3.56336,4.15982 6.05519,6.44351c2.31621,2.12273 3.57825,5.12005 6.08285,7.06922c2.38996,1.85994 5.36449,2.80418 7.80599,4.43568c1.59956,1.06888 2.88025,2.62237 4.59852,3.48761c3.79956,1.91328 8.80092,2.80293 13.46072,2.54647c-0.18705,-0.25022 -0.29782,-0.56079 -0.29782,-0.89723c0,-0.82843 0.67157,-1.5 1.5,-1.5h1.68409c0.68834,-0.44361 1.71587,-1.11218 2.63721,-1.85795c-0.16232,-1.12521 -0.15463,-2.31527 -0.15463,-3.97538v-0.33333c0,0 0,-0.90251 0.70005,-1.30742c-0.70032,-1.63976 -2.8281,-2.52996 -1.59245,-4.91713c0.99199,-1.91644 2.583,-1.94659 4.07974,-1.16858c0.25584,-0.4613 0.74779,-0.77354 1.31266,-0.77354c0.49699,0 0.93752,0.2417 1.21047,0.61397l0.98953,1.31937l-0.03595,0.02696l0.11193,0.08444c1.73935,3.45928 2.23026,5.62887 2.22402,9.45526c-0.0017,1.04402 0.10638,2.74121 -0.40657,3.83972c2.32364,2.14322 3.9825,5.11441 3.01881,8.22734c-0.92457,2.98656 -3.9119,3.29144 -5.24515,5.49904c-0.02245,0.03717 -0.0447,0.07453 -0.0668,0.11206l0.06637,0.0885l-0.06212,0.04659c0.10342,0.11897 0.19911,0.24477 0.28514,0.37907c0.84841,1.3244 -0.10312,5.38318 -0.9477,6.4469c-0.40287,0.5074 -1.23247,0.51914 -1.66667,1c-1.66672,1.84587 -2.36188,4.35354 -4.49252,6.16063c-2.14777,1.82162 -4.97018,2.10248 -7.6682,2.62593c-0.59339,0.20518 -1.2009,0.41935 -1.8278,0.65969c-1.39984,0.53668 -2.50013,1.68508 -3.87455,2.28388c-2.22606,0.96984 -4.53246,0.97841 -6.75912,0.45979c-0.64022,0.00578 -1.2629,0.00337 -1.85313,0.00418c-3.16144,-0.02445 -4.89869,-1.64125 -7.71834,-2.38358c-0.59819,-0.15749 -3.77171,-0.68793 -3.96804,-0.78266c-0.57301,-0.27651 -0.79942,-1.03407 -1.35475,-1.34457c-1.25588,-0.70221 -2.77565,-0.9438 -3.90986,-1.82917c-1.71097,-1.33557 -3.2731,-2.93314 -5.00935,-4.28557c-0.2553,-0.34069 -0.5944,-0.54736 -0.91187,-0.67274c-0.29869,-0.20732 -0.60367,-0.40555 -0.91639,-0.59239c-0.12858,-0.07682 -0.25639,-0.1539 -0.38347,-0.23124c-0.09182,0.03325 -0.18407,0.06682 -0.27675,0.10077c-2.33026,-1.58066 -4.24173,-3.25795 -6.1644,-5.45957c-0.30846,-0.35321 -1.08017,-1.0526 -1.75977,-1.75876c-3.17372,0.29164 -6.42388,0.51009 -9.40816,-0.64215z" fill-opacity="0.97647" fill="#ad4eac"></path><path d="M248.28996,88.43173l-0.80662,-0.54006c-0.77518,-0.58139 -1.43902,-1.18213 -2.08139,-1.80778c-1.46137,2.10785 -3.70036,4.24389 -5.55996,5.85126c-2.45216,1.63901 -4.98323,3.70702 -7.99824,4.17747c-6.75363,1.0538 -9.66899,-4.6896 -8.5854,-10.55551c0.42486,-2.29994 1.82216,-4.32764 3.04472,-6.32153c0.02523,-0.04114 0.0502,-0.08246 0.07494,-0.12395c-0.78236,-1.43263 -1.62352,-4.7285 -0.58899,-5.78896c0.4063,-0.41648 0.95296,-0.60569 1.53788,-0.73832c0.07739,-0.73777 0.18817,-1.33881 0.31869,-1.55856c0.5444,-0.91656 1.96834,-0.89149 2.77729,-1.58578c0.65793,-0.56467 0.7836,-1.55402 1.28417,-2.26195c0.63133,-0.89285 1.44863,-1.50168 2.16475,-2.22942c0.18251,-0.30239 0.36548,-0.60459 0.54895,-0.90654c-0.12054,-0.27572 -0.18741,-0.58027 -0.18741,-0.90043c0,-0.26722 0.04658,-0.52356 0.13207,-0.76134l0.70615,-2.11846c0.60336,-2.66089 2.06741,-4.96958 2.70547,-7.56147c0.32342,-1.31377 -0.04369,-2.70575 -0.04369,-4.05874c0,0 0,-2.24675 2.24513,-2.25c0.08272,-0.20706 0.17917,-0.40848 0.29355,-0.60259c4.2888,-7.27832 12.80311,-9.03183 20.46285,-9.88365l1.74847,-0.01376c0,0 0.39742,0 0.8582,0.16702c1.59514,-0.49663 2.9961,-1.18879 4.36645,-2.08363c-0.05421,-0.64873 0.52535,-1.08339 0.52535,-1.08339c3.01745,-2.08449 5.50064,-1.0119 7.08983,1.96741c1.07976,-0.58741 3.4931,-0.58442 4.27604,-0.05516c0.66557,0.44992 0.89251,1.33606 1.33877,2.00408l0.01718,0.59993c3.591,1.08319 3.27817,3.50184 3.27817,7.23374v0.04998c0.62107,1.90804 1.17442,4.08732 2.29355,5.7619c0.30425,0.45526 0.90788,0.70137 1.1113,1.20976c0.21756,0.54373 -0.05065,1.18334 0.07509,1.75532c0.92249,4.19624 1.89707,8.86422 0.21824,13.07921l-0.19977,1.02284c-0.02581,1.08882 -0.35269,2.75237 -0.06255,3.72569c0.51903,1.74119 2.7853,3.07084 3.66624,4.55546c0.6632,1.11766 0.95253,3.42442 1.13534,4.66305l0.01256,1.17678c0,0 0,0.02543 -0.00363,0.06903c-0.00121,0.04374 -0.00402,0.06901 -0.00402,0.06901c-0.44136,3.90624 -2.02279,5.87845 -3.62432,9.17098l-0.13575,0.43685c-0.06012,0.39692 -0.26526,0.63694 -0.49137,0.78208c-0.22505,0.18138 -0.54658,0.30502 -0.98901,0.2c-0.83336,-0.03812 -1.81666,0.22505 -2.38578,-0.34407c-0.78782,-0.78782 -0.03794,-2.22816 -0.08279,-3.3414c-0.03793,-0.9413 -1.77264,0.64232 -2.67714,0.90569c-1.77479,0.51678 -3.42846,-0.13337 -4.96306,0.87369l-0.72517,0.09273c-0.07824,0.09769 -0.15648,0.19538 -0.23472,0.29307l-0.20296,1.01478c-0.10493,0.58424 -0.61583,1.02756 -1.23027,1.02756c-0.41416,0 -0.78127,-0.20142 -1.00873,-0.51164l-0.64649,-0.86199c-1.28197,-0.85692 -2.65073,-1.63522 -4.08993,-1.90065l-0.34102,0.0164c-1.17907,0.24783 -2.24278,0.90506 -3.40435,1.23065c-3.53375,0.9905 -7.74383,0.30918 -10.96024,-1.05687c-1.86042,-0.79015 -3.49728,-0.58967 -4.98008,-1.17842c-0.52807,0.12556 -1.01255,-0.19742 -1.01255,-0.19742z" fill="#e5c1e4"></path><path d="M239.23333,27.14167v1.25c-0.01491,2.7627 2.32489,5.5244 3.80258,7.82578c0.04051,0.0631 0.0801,0.12723 0.119,0.19213c0.15686,0.09742 0.3054,0.20298 0.43744,0.32402c1.30404,1.19547 3.6951,1.65821 5.27486,3.27418c2.46468,2.52116 2.96433,6.36466 0.11612,8.63388l-0.84603,0.21151c-0.36113,0.46818 -0.80969,0.86902 -1.36248,1.16512c-0.24651,0.13204 -0.58101,0.21977 -0.96926,0.26626c-0.21856,0.36374 -0.61697,0.60711 -1.07223,0.60711c-0.14845,0 -0.29086,-0.02588 -0.42297,-0.07337l-1.47232,-0.49077l0.05995,-0.17986c-0.45644,-0.08907 -0.85203,-0.25118 -1.25024,-0.53712c-0.64044,-0.29648 -1.13835,-0.67821 -1.34267,-1.1317c-0.03344,-0.07423 -0.06379,-0.14939 -0.09139,-0.22539l-0.05223,0.03134l-0.73943,-1.23238c-0.0285,-0.04568 -0.05413,-0.09333 -0.07665,-0.14271c-0.64792,-0.53036 -1.27108,-1.07604 -1.7903,-1.68085c-4.99125,-5.81401 -3.05845,-13.32924 -1.79748,-19.83232c0,0 0.24515,-1.22573 1.47087,-0.98058c1.22573,0.24515 0.98058,1.47087 0.98058,1.47087c-0.00166,0.00809 -0.00332,0.01619 -0.00498,0.02428c0.58507,0.10425 1.02926,0.61554 1.02926,1.23057z" fill-opacity="0.97647" fill="#ad4eac"></path><path d="M285.1,86.9c-1.25,0 -1.25,-1.25 -1.25,-1.25l0.01362,-0.35294c-0.03486,-0.05751 -0.06521,-0.11805 -0.09057,-0.18113l-0.44872,-1.04701c-0.96412,-1.33366 -3.00473,-2.16602 -3.59548,-3.72217c-0.01899,-0.05002 -0.03696,-0.1003 -0.054,-0.15083l-0.02622,0.01311l-0.82209,-1.64417c-0.09145,-0.1737 -0.14321,-0.37156 -0.14321,-0.58151c0,-0.69036 0.55964,-1.25 1.25,-1.25c0.34518,0 0.65768,0.13991 0.88388,0.36612l0.51531,0.51531c0.81079,-0.14504 1.89227,-0.00248 2.86779,0.23937c0.53717,-1.43601 2.8199,-1.9509 4.04082,-0.9897c0.07731,-0.05534 0.15264,-0.11327 0.2253,-0.17472c0,0 0.96028,-0.80023 1.76051,0.16005c0.80023,0.96028 -0.16005,1.76051 -0.16005,1.76051c-0.23532,0.19381 -0.6471,0.52453 -1.14641,0.86991c-0.30178,1.22676 -1.2314,1.52016 -2.26058,1.45562c0.00154,0.02128 0.00304,0.04249 0.00451,0.06363l0.4816,0.1204l-0.27347,1.09388l-0.02116,0.13403l0.15563,-0.01945l0.16422,1.31377c0.00797,0.05706 0.0121,0.11535 0.0121,0.1746c0,0.51953 -0.31694,0.96503 -0.76803,1.1537c-0.02927,0.14627 -0.06093,0.29631 -0.09507,0.4508l0.02977,0.22884c0,0 0,1.25 -1.25,1.25z" fill-opacity="0.18824" fill="#ad4eac"></path><path d="M278.61596,79.38963c-0.04015,-0.00647 -0.08031,-0.01293 -0.12046,-0.0194c0,0 -1.22023,-0.27116 -0.94907,-1.4914c0.27116,-1.22023 1.4914,-0.94907 1.4914,-0.94907c0.62646,0.16206 1.25292,0.32413 1.87938,0.48619l0.15682,0.39457l0.15291,-0.12743l0.31005,0.37206c0.2754,0.15217 0.48727,0.40523 0.58577,0.70933c0.14317,0.20333 0.22724,0.45127 0.22724,0.71884c0,0.69036 -0.55964,1.25 -1.25,1.25c-0.23358,0 -0.4522,-0.06407 -0.63923,-0.17559l-1.14761,-0.65578z" fill-opacity="0.35294" fill="#ad4eac"></path><path d="M287.07329,79.69006c-1.04006,-0.69338 -0.34669,-1.73344 -0.34669,-1.73344l0.57317,-0.7669c0.60814,-0.50235 1.17093,-1.06514 1.67329,-1.67329c0,0 0.80023,-0.96028 1.76051,-0.16005c0.96028,0.80023 0.16005,1.76051 0.16005,1.76051c-0.60419,0.7197 -1.27368,1.38919 -1.99338,1.99338l-0.0935,0.2331c0,0 -0.69338,1.04006 -1.73344,0.34669z" fill-opacity="0.35294" fill="#ad4eac"></path><path d="M255.10855,78.71059c-0.89205,0.35273 -2.05672,0.44082 -3.14875,0.26247c-1.35128,0.22127 -2.68249,-0.17106 -3.23708,-2.01175c-0.09238,-0.3066 -0.09403,-0.61304 -0.03198,-0.91402c0.00049,-0.0166 0.00114,-0.03328 0.00196,-0.05002c0.02799,-0.57552 0.39314,-1.1658 0.93528,-1.66881c0.36396,-0.44737 0.75505,-0.84602 1.0313,-1.16826c0,0 0.78188,-0.89358 1.69247,-0.1769c0.32704,-0.189 0.75589,-0.33281 1.30532,-0.41182c1.00814,-0.14499 1.84154,0.49332 2.38052,1.39909c0.42617,0.3178 0.85206,0.64652 1.32399,0.84226c0.50449,3.22502 0.2157,3.79314 -2.25303,3.89776z" fill-opacity="0.18824" fill="#ad4eac"></path><path d="M271.32862,70.83585c-1.18585,0.39528 -1.58114,-0.79057 -1.58114,-0.79057l-0.11153,-0.4326c-0.27651,-0.22928 -0.45262,-0.57542 -0.45262,-0.96269c0,-0.26064 0,-1.85461 0,-2.11525c-0.1585,-0.72505 -0.33612,-1.45128 -0.44348,-2.17978c-0.1233,-0.83669 -0.94954,-2.04938 -0.25011,-2.52482c3.95036,-2.68524 4.49201,3.95482 3.67352,5.70955c-0.03176,0.0681 -0.06595,0.13465 -0.10229,0.19984l0.04276,0.01603l-0.13599,0.36265c0.03159,0.45243 0.04553,0.82139 0.04892,1.03178l0.10252,0.10472c0,0 0.39528,1.18585 -0.79057,1.58114z" fill="#30152f"></path><path d="M286.93333,70.73333c-1.25,0 -1.25,-1.25 -1.25,-1.25v-1.02128c-0.16667,-0.31914 -0.16667,-0.64538 -0.16667,-0.64538v-0.5c0.00017,-0.0331 0.00077,-0.06616 0.00179,-0.09916c-0.00119,-0.02235 -0.00179,-0.04486 -0.00179,-0.0675c0,-0.94444 0,-3.22222 0,-4.16667c0,0 0,-1.25 1.25,-1.25c1.25,0 1.25,1.25 1.25,1.25c0,0.21672 0,0.43344 0,0.65016c0.17734,0.19119 0.29559,0.43795 0.32574,0.71125l0.16461,1.31688l-0.13928,0.01741l0.14035,0.28381c-0.06631,0.08159 -0.13262,0.16317 -0.19893,0.24476l0.12791,0.04797l-0.42041,1.1211v0.12795c0.16667,0.31914 0.16667,0.64538 0.16667,0.64538v1.33333c0,0 0,1.25 -1.25,1.25z" fill="#30152f"></path><path d="M290.23996,70.0234c-1.04006,-0.69338 -0.34669,-1.73344 -0.34669,-1.73344l1.21433,-1.45556c0.12001,-0.05143 0.24003,-0.10287 0.36004,-0.1543c-0.07547,-0.16094 -0.11764,-0.34059 -0.11764,-0.5301c0,-0.30738 0.11095,-0.58884 0.29498,-0.80653l0.82808,-0.9937l0.21479,0.17899l0.11541,-0.27378c-0.44334,-1.12219 -0.30259,-2.43401 -1.16353,-3.30474l-0.83333,-1c0,0 -0.33097,-0.39716 -0.31179,-0.8935c-1.11502,0.32922 -2.47058,1.36973 -3.26401,1.97442l-0.11343,0.67873c-0.27223,0.37666 -0.48325,0.75713 -0.64609,1.14234c-0.18247,1.82212 -0.45719,3.63193 -0.45441,5.46444v0.5c0,0 0,1.25 -1.25,1.25c-1.25,0 -1.25,-1.25 -1.25,-1.25c0,-0.64994 -0.01505,-1.27539 -0.02304,-1.8823c-0.16853,0.08465 -0.35885,0.1323 -0.56029,0.1323c-0.38936,0 -0.73714,-0.17802 -0.96639,-0.4571l-0.53801,-0.64562c-0.08636,0.00825 -0.16899,0.01412 -0.24836,0.01838c-0.43595,0.42265 -0.84241,0.87165 -1.16193,1.45451l-1.5853,0.62983c0,0 -0.11956,0 -0.28472,-0.03697c-0.18058,2.3204 -0.90029,4.71168 -1.43407,6.68626c-2.4156,2.88912 -7.08439,4.10488 -10.76196,2.82533c-0.46804,0.1152 -0.9116,-0.10657 -0.9116,-0.10657l-0.6582,-0.40082c-1.07639,-1.08233 -2.70848,-1.94012 -3.62354,-3.14389c-0.96677,-1.27179 -1.39288,-2.76021 -1.52564,-4.31267c-1.23093,0.58469 -1.85134,0.29036 -2.21353,-0.33675c-2.22862,1.30753 -5.32595,2.31925 -7.71647,2.6107l-1.01913,0.43677c-0.15777,0.0719 -0.33311,0.11195 -0.5178,0.11195c-0.69036,0 -1.25,-0.55964 -1.25,-1.25c0,-0.499 0.2924,-0.92971 0.7152,-1.13014l1.30911,-0.65456l0.0733,0.1466c0.00247,-0.00233 0.00495,-0.00466 0.00742,-0.00699l-0.0153,-0.0614c0.03166,-0.00414 0.06338,-0.00857 0.09514,-0.0133c1.47249,-1.36806 3.16511,-2.40938 5.26042,-2.68924l0.47137,-0.00765c0,0 0.33181,0 0.65353,0.17096c0.42747,-0.14704 0.84944,-0.26215 1.26314,-0.32883v-1.09213c0,-0.69036 0.55964,-1.25 1.25,-1.25c0.08889,0 0.17561,0.00928 0.25926,0.02692c0.11137,-0.10318 0.25618,-0.19605 0.44317,-0.27085c0.59253,-0.23701 1.00355,-0.05051 1.26396,0.18884c0.06167,-0.42939 0.12398,-0.84954 0.18109,-1.25686c3.58103,-6.43689 13.51051,-6.49631 17.41583,-0.09521c0.30425,0.49868 0.53053,1.02952 0.69214,1.58358c0.89266,-0.60213 1.61361,-0.79711 2.44015,-0.83038c1.22954,-0.95619 2.62252,-1.53233 3.48047,-0.43287c0.06365,-0.2728 0.14075,-0.54427 0.23395,-0.81512c0.00398,-0.04261 0.00791,-0.08524 0.01178,-0.12787c0,0 0.04513,-0.49641 0.39187,-0.83379c0.12992,-0.26008 0.27763,-0.52036 0.44547,-0.78147c-0.09175,-0.3387 -0.00399,-0.62827 0.12342,-0.84662c0.09984,-0.22218 0.27487,-0.45282 0.58174,-0.57868c1.93443,-1.38841 4.78903,-3.52598 7.25156,-2.3025c3.20909,1.59441 3.27467,4.91596 3.31364,7.97692c0.46105,0.87309 0.45763,2.15074 0.38212,2.9249c-0.03102,0.31804 -0.0803,0.63455 -0.14566,0.94909c0.08534,0.91807 0.13,1.84913 -0.04148,2.68999c-0.36068,1.76853 -1.79664,3.08468 -3.00726,4.29922l-0.91983,0.36536c-0.25003,0.16167 -0.60941,0.28462 -1.03571,0.11418c-0.23233,-0.06436 -0.47438,-0.20397 -0.64498,-0.48842c-0.19987,-0.2647 -0.23869,-0.54143 -0.21136,-0.78095c0.00128,-0.37181 0.16457,-0.63087 0.35598,-0.80693c1.04778,-1.43581 2.34392,-3.31455 2.88616,-5.01573c0.04568,-0.1433 0.08269,-0.28899 0.11369,-0.43619c-0.01581,-0.15328 -0.03279,-0.30622 -0.04987,-0.45823c-0.23003,0.30055 -0.55223,0.43864 -0.55223,0.43864c-0.38889,0.16667 -0.77778,0.33333 -1.16667,0.5l-0.119,0.54444c0,0 -0.69338,1.04006 -1.73344,0.34669zM263.51932,62.17652c0.01975,0.35501 -0.11039,0.64782 -0.11039,0.64782c-1.49356,3.18967 -1.04825,7.30582 0.75685,10.33917c1.916,3.21972 8.11366,3.09036 10.31968,0.42055c0.56782,-2.58459 1.70518,-5.79852 1.06465,-8.48019c-1.20412,-5.0412 -8.41177,-5.67253 -12.03079,-2.92733z" fill="#316a70"></path></g><g fill="#316a70"><path d="M300.04338,294.6c-1.25,0 -1.25,-1.25 -1.25,-1.25c0,-1 0,-2.25 0,-3.25c0,0 0,-1.25 1.25,-1.25c1.25,0 1.25,1.25 1.25,1.25c0,1 0,2 0,3v0.25c0,0 0,1.25 -1.25,1.25z"></path><path d="M294.79338,289.85c1.25,0 1.25,1.25 1.25,1.25c0,0.41667 0,1.33333 0,1.75c0,0 0,1.25 -1.25,1.25c-1.25,0 -1.25,-1.25 -1.25,-1.25c0,-0.41667 0,-0.83333 0,-1.25v-0.5c0,0 0,-1.25 1.25,-1.25z"></path><path d="M290.97923,291.70471c0.15341,0.46024 0.06866,0.8014 -0.09249,1.04658c0.34176,0.17049 0.767,0.53999 0.63963,1.3042c-0.2055,1.23299 -1.43849,1.02749 -1.43849,1.02749c-0.77442,-0.25765 -1.82847,-0.12387 -2.32325,-0.77294c-0.44576,-0.58475 0.03535,-1.47013 0.05302,-2.2052l1.58044,-1.19071c0,0 1.18585,-0.39528 1.58114,0.79057zM290.25493,292.71686l0.01418,-0.12172c-0.58013,0.38262 -0.61262,0.37027 -0.01418,0.12172z"></path><path d="M193.42726,293.96611c0.67636,0.67636 0.3176,1.35272 0.11185,1.63304c-0.00024,0.14716 -0.02001,0.24599 -0.02001,0.24599l-0.24546,1.22729c-0.10493,0.58424 -0.61583,1.02756 -1.23027,1.02756c-0.61444,0 -1.12533,-0.44333 -1.23027,-1.02756l-0.24546,-1.22729l1.09184,-1.87903c0,0 0.88388,-0.88388 1.76777,0z"></path><path d="M186.43866,293.16414c1.18585,0.39528 0.79057,1.58114 0.79057,1.58114l-0.18585,0.35472c-0.00146,0.06539 -0.00951,0.13167 -0.02346,0.19791c0.52346,0.35242 0.52346,1.05209 0.52346,1.05209v1.25c0,0.69036 -0.55964,1.25 -1.25,1.25c-0.53655,0 -0.99415,-0.33806 -1.17141,-0.8128l-0.48919,-1.22297l0.33425,-0.1337c-0.25167,-0.5022 -0.4153,-1.03014 -0.42365,-1.58054l0.31415,-1.14528c0,0 0.39528,-1.18585 1.58114,-0.79057z"></path><path d="M180.29338,298.6c-1.25,0 -1.25,-1.25 -1.25,-1.25c0,-0.5 0,-1.5 0,-2c0,0 0,-1.25 1.25,-1.25c1.25,0 1.25,1.25 1.25,1.25c0,0.5 0,1 0,1.5v0.5c0,0 0,1.25 -1.25,1.25z"></path></g><g fill-opacity="0.23529" fill="#2f152f"><path d="M226.55,245.27407c-2.2,-1.65 -0.55,-3.85 -0.55,-3.85l0.81233,-1.04772c0.85572,-1.4961 1.86083,-4.15699 3.24356,-6.26079c0.86578,-2.2581 2.05176,-4.43556 2.88623,-6.62908c1.61045,-4.23331 1.53912,-9.04261 2.20738,-13.50272c0.68142,-4.54798 2.69975,-8.83682 3.33261,-13.32864c0.40786,-2.89488 0.84887,-5.78542 1.3336,-8.66842c0.25336,-1.50688 0.34748,-5.83533 1.11265,-7.12082c0.05605,-0.09416 0.11308,-0.18764 0.17103,-0.28048l-0.05058,-0.02361l2.29978,-4.9281c0.42595,-0.96749 1.39314,-1.64297 2.51809,-1.64297c1.51878,0 2.75,1.23122 2.75,2.75v2.88594c0.82503,7.48287 -0.24942,14.85546 -1.36616,22.20436c-0.62772,4.13079 -0.42666,8.54534 -0.63725,12.71335c-0.17649,3.49297 0.00341,7.03119 0.00341,10.52968c0,2.45618 -0.5019,4.94963 -0.07357,7.36818c0.31648,1.78699 1.87988,3.1884 2.221,4.9708l1.29938,3.24846c0.14152,0.33135 0.21985,0.69614 0.21985,1.07923c0,1.51878 -1.23122,2.75 -2.75,2.75c-0.40632,0 -0.79207,-0.08812 -1.13916,-0.2463l-2.27746,-0.97605l0.02976,-0.06944l-0.22063,-0.0212c-1.90754,-1.21557 -2.27769,-1.82517 -4.39519,-2.04095c-1.11774,-0.1139 -2.35219,0.40463 -3.36983,-0.07152c-1.16673,-0.54591 -2.64939,-1.14524 -3.55329,-2.07017c-0.30722,-0.02237 -0.60808,-0.05553 -0.89993,-0.09978c-0.04005,0.06996 -0.08003,0.13989 -0.11994,0.2098l-1.18767,1.61895c0,0 -1.65,2.2 -3.85,0.55zM241.73306,239.92634c0.23111,0.04774 0.442,0.09784 0.63798,0.15137c-0.1056,-0.27846 -0.20241,-0.554 -0.29116,-0.82722c-0.10247,0.23426 -0.21637,0.4607 -0.34682,0.67584z"></path><path d="M291.61667,288.54648c0,0.12295 -0.0055,0.2404 -0.016,0.3526c0.28008,0.07835 0.56518,0.1551 0.8559,0.23074h2.4101c1.51878,0 2.75,1.23122 2.75,2.75c0,1.42744 -1.08757,2.60086 -2.47929,2.73684l-2.96702,0.32967l-0.005,-0.04504c-0.0487,0.01957 -0.09757,0.03879 -0.14661,0.05765c-1.84296,0.7088 -5.72649,0.55011 -8.23717,-0.85872c-2.38524,0.59245 -3.19045,-1.82319 -3.19045,-1.82319l0.16294,-0.10912c-1.91142,-2.33904 -2.62197,-4.28833 -2.96924,-6.40043c-1.09643,-1.7235 -2.08346,-3.62448 -3.27409,-5.60827c-1.15665,-1.92719 -2.72155,-3.6467 -3.53524,-5.74189c-1.16446,-2.9984 -1.87398,-6.31637 -3.01264,-9.36594c-0.0697,-0.18667 -0.14597,-0.37091 -0.22722,-0.5533c-1.66442,0.27603 -3.44042,0.14558 -4.31473,-0.41804c-1.42049,-0.91572 -2.05962,-2.76108 -2.56401,-4.37414c-2.48412,-7.94434 7.4203,-13.56818 12.76958,-17.31697c-0.51975,-0.50029 -0.84315,-1.20314 -0.84315,-1.98152c0,-0.25159 0.03378,-0.49528 0.09707,-0.7268l0.65171,-2.60684l0.08165,0.02041l-0.01986,-0.23137c0.62692,-1.47267 1.56369,-3.50066 1.92422,-5.06372c0.20134,-0.87289 -0.08485,-1.87446 0.33333,-2.66667c0.04287,-0.08121 0.08674,-0.16179 0.13155,-0.24179l-0.05855,-0.01952l0.65038,-1.95114c-0.65893,-5.70982 -1.03036,-11.40583 -0.35741,-17.09482c-0.00756,-0.24959 -0.01374,-0.49954 -0.01867,-0.74981c-0.00287,-0.01203 -0.00571,-0.02407 -0.00853,-0.03611c-0.26532,-1.13457 -0.00171,-2.33167 -0.07015,-3.49483c-0.30363,-5.16024 -1.01539,-10.32625 -1.64742,-15.45138c-0.0006,-0.0049 -0.00122,-0.00981 -0.00184,-0.01471c-0.05475,-0.27252 -0.11103,-0.54479 -0.16901,-0.81672c-0.62013,-2.22028 -2.42602,-4.50758 -2.14441,-6.71596c0.00867,-0.06797 0.01805,-0.13578 0.02813,-0.20343l-0.05521,0.00552l-0.32965,-3.29652c-0.01145,-0.1019 -0.01733,-0.20549 -0.01733,-0.31044c0,-1.51878 1.23122,-2.75 2.75,-2.75c1.41573,0 2.58159,1.0698 2.73329,2.4451l0.29589,2.36709c1.14345,2.86509 1.90416,5.91595 2.48879,8.98878c1.1021,0.35844 1.8987,1.39404 1.8987,2.6157v2.66667c0,1.51858 -0.04275,3.06147 -0.09555,4.6154c0.47001,1.36273 1.06418,2.69784 1.35974,4.10515c0.733,3.49025 1.08018,7.41721 1.17405,11.37503c0.81411,3.40668 0.88141,4.98949 1.22501,8.43409l0.00117,1.1862c0.12207,1.8071 0.32955,3.63313 1.06866,5.10225c0.87239,1.73404 5.30608,5.19413 4.07505,7.19106c-1.03161,1.67344 -3.52993,2.25619 -5.62638,2.02908c-0.64799,3.34552 -1.10669,6.7327 -1.94956,10.03404c-0.06957,0.27249 -0.14658,0.5417 -0.22991,0.80816c0.60944,0.50441 0.99773,1.26663 0.99773,2.11954c0,1.04123 -0.57868,1.9473 -1.43197,2.41415l-1.00782,0.5759l-1.1976,1.43712c-0.2109,0.25045 -0.37722,0.57208 -0.55496,0.87548c-0.17352,0.44253 -0.33454,0.89143 -0.47769,1.3492l-0.53421,0.29213l0.20887,0.17903l-1.98837,2.31976c-0.4996,0.59 -1.24341,0.96662 -2.07538,0.97379c0.13123,0.18909 0.23824,0.3471 0.31283,0.46738c2.31801,3.73798 4.61726,7.65919 6.21927,11.76895c0.48578,1.24621 0.72632,2.48652 0.87188,3.7113c1.62435,2.57899 3.36465,5.04541 5.31572,7.42892l1.25608,-0.0707c0,0 2.75,0 2.75,2.75z"></path><path d="M277.1379,63.53872c0,0 0.3411,-2.72876 3.06986,-2.38767c2.72876,0.3411 2.38767,3.06986 2.38767,3.06986l-0.02195,0.17561c1.21619,-1.37114 2.32917,-2.83824 3.42652,-4.30578c0,0 1.65,-2.2 3.85,-0.55c2.2,1.65 0.55,3.85 0.55,3.85c-1.35798,1.80562 -2.74415,3.60329 -4.27309,5.2665c-0.08146,0.23052 -0.19279,0.44694 -0.32933,0.6446c-0.17211,0.5586 -0.53856,1.23825 -1.31883,1.60002l-0.49948,0.59938l-0.36724,-0.30604c-0.34313,0.49022 -0.74888,0.92029 -1.25721,1.25186c-0.58696,0.38286 -1.2291,-0.00061 -1.89511,-0.46447c-0.44947,0.31997 -0.99928,0.50814 -1.59304,0.50814c-1.02418,0 -1.9176,-0.55988 -2.39087,-1.39028c-0.38601,0.00263 -0.76043,-0.04214 -1.10889,-0.20268c-1.07437,-0.49497 -1.60129,-1.74396 -2.45824,-2.55938c-0.45917,-0.43692 -0.88964,-0.82168 -1.2815,-1.18099h-2.09383c-3.01748,-0.81921 -11.00005,-1.19308 -2.56317,-7.54301c3.53445,-2.66016 7.96557,2.83637 9.8545,4.86201c0.06586,0.07063 0.11938,0.15374 0.16553,0.24395z"></path><path d="M286.96379,92.05826c0.7913,0.48287 1.31955,1.35432 1.31955,2.34915c0,0.36227 -0.07005,0.70819 -0.19735,1.02493l-0.97775,2.60732l-0.02249,-0.00843l-0.00046,0.06755c-0.88009,1.99679 -2.06111,3.90057 -3.53422,5.51045c-1.52408,1.66559 -2.68048,3.86634 -4.69882,4.87793c-2.89281,1.44986 -9.20325,0.58523 -11.8666,-1.13994c-0.18036,-0.11683 -0.33116,-0.26451 -0.46418,-0.43094c-1.86333,-0.93103 -3.61363,-2.14452 -5.20995,-3.24083c-0.51317,-0.35243 -1.0306,-0.69836 -1.55015,-1.04087c-1.15732,-0.39222 -2.31163,-0.8604 -3.48055,-1.44563c-3.85231,-1.92869 -5.2457,-2.88843 -7.55218,-5.84319c0.0662,0.92939 0.09775,1.90163 0.17927,2.82245l0.87034,2.61101c0.7769,1.77197 2.1486,3.22334 3.12265,4.89588c1.28634,2.20878 0.75044,5.42156 2.95514,6.87019c0.57336,0.37673 1.15079,0.7475 1.73213,1.11213h0.2785v0.06706c0.10305,-0.01895 0.20676,-0.03548 0.31118,-0.0494c0.79915,-0.10655 5.03132,1.04541 7.39184,2.00083c0.04826,-0.0061 0.09656,-0.01094 0.14491,-0.01428c4.06492,-0.28101 9.34846,-1.97185 13.37112,-1.33517c0.03815,0.00604 0.07625,0.01231 0.11429,0.01882v-0.02119h3c1.51878,0 2.75,1.23122 2.75,2.75c0,0.93575 -0.46737,1.76234 -1.18142,2.25907l-2.30351,1.64536l-0.04661,-0.06526l-0.13332,0.18343c-2.80312,1.40765 -5.20703,2.91231 -7.71265,4.80107c-0.92444,0.69685 -1.67855,1.7085 -2.76964,2.0954c-1.13307,0.40178 -2.40106,0.13277 -3.60284,0.16425c-6.62249,0.1735 -10.38592,-1.60636 -15.63945,-5.54213c-1.22079,-0.91458 -2.42867,-1.77689 -3.61582,-2.66304c0.14298,0.33948 0.29031,0.68018 0.4427,1.02261c0.52447,1.17858 1.66452,4.81416 2.35283,5.79182c1.01023,1.43491 2.88422,2.09748 4.27637,2.99173c1.92088,1.23387 4.33059,3.35674 6.55588,3.99114c1.76143,0.50216 5.68968,-0.34456 7.32986,-0.91751c1.81139,-0.63276 3.22282,-2.08349 4.85188,-3.09724c1.38438,-0.86148 3.08244,-1.18641 4.39753,-2.1459c0.07786,-0.06658 0.15526,-0.13271 0.23193,-0.19817c0.4506,-0.47959 0.60161,-1.28862 1.19163,-1.58097c0.0711,-0.03523 0.14251,-0.06968 0.21423,-0.1034l-0.04591,-0.05356l2.32169,-1.99002c0.48253,-0.41865 1.11234,-0.67202 1.80132,-0.67202c1.51878,0 2.75,1.23122 2.75,2.75c0,0.67623 -0.24408,1.29545 -0.64895,1.77437l-1.65511,1.98613l-0.08696,-0.07247l-0.06765,0.24296c-0.01758,0.01516 -0.38713,0.3335 -0.917,0.79025c-0.39798,0.7313 -1.21172,1.33665 -2.15295,1.85734c-0.98724,0.85261 -1.83881,1.58992 -1.87167,1.62469c-2.58179,2.73146 -2.86662,5.56369 -6.22985,7.79807c-2.20419,1.46436 -3.00003,0.96129 -5.22557,2.1261c-2.61158,1.36686 -4.89117,3.24925 -6.87656,5.40771c-3.51464,3.82103 -6.04392,7.91238 -9.31376,11.62902l0.35036,0.2002l-1.30685,2.28698c-0.46685,0.85329 -1.37292,1.43197 -2.41415,1.43197c-1.42744,0 -2.60086,-1.08757 -2.73684,-2.47929l-0.30924,-2.78318l-0.00938,-0.03752c-0.1932,0.04568 -0.3864,0.09137 -0.5796,0.13705l0.33036,-1.13401l-0.23471,-0.93884c-0.02752,-0.03065 -0.05505,-0.06131 -0.08257,-0.09196l-0.26043,-0.03255c-0.66382,0.07618 -1.2064,-0.07884 -1.2064,-0.07884l-0.91088,-0.64297c-2.66758,0.66544 -6.69532,0.89223 -9.19288,2.56977c-0.65409,2.60467 -1.38025,5.1847 -2.22825,7.71644c-2.38851,7.13106 -6.06907,13.89788 -8.27652,21.16283c-0.03925,0.12918 -0.07752,0.25899 -0.11485,0.38939c2.10016,0.88938 1.46529,3.21725 1.46529,3.21725c-1.32248,4.79859 -1.80051,9.73297 -2.98052,14.59103c-1.09461,4.50649 -2.55367,8.91925 -3.68011,13.38646c-0.71194,2.8234 -2.53274,5.46029 -3.3777,8.15068c-1.61983,5.15765 -1.5318,10.7592 -1.53144,16.11626c0.0263,0.34507 -0.01288,0.66526 -0.06532,0.91639c-0.0079,0.03916 -0.01675,0.07973 -0.02668,0.12149c0.3473,0.08885 0.57183,0.20112 0.57183,0.20112l2.6784,2.16075c1.28374,4.13885 2.48691,4.92685 -1.52082,9.1107c-0.84574,0.88291 -2.34806,0.69056 -3.49213,1.12174c-0.13072,0.04927 -0.25784,0.09998 -0.38168,0.15179c0.87408,4.27758 -3.39399,4.28447 -6.34273,4.99271l-0.17088,-0.05819v0.06351h-1.93927c-0.07273,0.64601 -0.31425,1.11316 -0.62552,1.45098c-0.86066,1.51959 -2.55552,4.51432 -3.25181,5.16699c-1.00618,0.94315 -2.58952,1.29597 -3.83904,2.04463c-0.39905,1.32607 -0.94509,2.28673 -2.18869,3.01618c-0.43887,1.44431 -0.52681,3.06086 -0.78575,4.40951c-0.56252,2.92975 -1.76763,5.43359 -2.33998,8.3677l0.0534,0.12735c0,0 0,0.33273 -0.11574,0.76671c0.44907,0.74503 0.44907,1.56662 0.44907,1.56662c0,1.07373 0.06007,5.91976 -0.25963,6.49976c-1.81929,3.30057 -4.01171,3.45403 -7.15704,3.25024c-1.50988,-0.09783 -3.36933,0.33188 -4.48662,-0.68839c-0.56625,-0.51708 -0.82499,-1.24081 -0.96784,-2.02728c-2.30828,-1.83122 -1.81196,-4.77184 -1.17437,-8.17499c0.45382,-2.42227 3.05803,-5.66402 4.20036,-7.81638c0.73452,-1.38396 1.43047,-2.79199 2.08247,-4.22098c0.00891,-0.069 0.01722,-0.13814 0.02492,-0.20742l0.13657,-0.14893c0.03142,-0.06981 0.06273,-0.13968 0.09394,-0.20959l-0.08909,-0.03959l0.53258,-1.19831c-2.13499,-3.46129 1.10475,-8.23323 2.88632,-10.99451c-0.1847,0.03912 -0.37624,0.05969 -0.57259,0.05969c-1.51878,0 -2.75,-1.23122 -2.75,-2.75c0,-0.6291 0.21124,-1.20886 0.56667,-1.67222l1.98333,-2.64444l0.2984,0.2238c0.95078,-1.79078 2.20139,-3.38237 4.10629,-4.56966c0.41115,-0.25626 3.72262,-0.78117 4.51743,-1.61535c1.03115,-1.08223 1.13823,-2.77372 1.88129,-4.07078c0.15278,-0.26669 0.34094,-0.51098 0.53804,-0.74943l0.92777,-2.47406c0.1466,-0.42058 0.39247,-0.79464 0.70954,-1.09411c0.30243,-2.29841 -0.05535,-5.14121 -0.1653,-7.30124c-0.00601,0.00106 -0.01205,0.0021 -0.0181,0.00312l0.01573,1.35341c0,0 -1.76224,-0.25175 -2.24851,-1.76798c-1.11258,-0.78342 -1.11258,-2.28771 -1.11258,-2.28771l0.03551,-3.10717c0.91899,-2.8477 1.98148,-5.34951 2.32957,-8.30951c1.45488,-7.9972 2.72811,-15.95029 5.08226,-23.70026c0.59797,-1.96855 0.35382,-4.14195 1.02712,-6.08602c0.60055,-1.73402 2.37523,-2.86703 3.0863,-4.55874c0.29704,-0.70669 0.00062,-1.55113 0.20164,-2.29089c0.80641,-2.96759 2.8737,-5.14303 4.18673,-7.82805c1.63521,-3.34385 2.4725,-7.01833 4.05088,-10.41236v-1.707c0.03071,-0.65361 0.04858,-1.30795 0.09213,-1.96083c0.01316,-0.19727 0.27559,-0.58811 0.07789,-0.58798c-1.80293,0.00121 -3.20606,1.23364 -4.2253,2.53362c-0.05014,0.07067 -0.0821,0.10903 -0.0821,0.10903l-0.01642,0.01837c-0.00275,0.0036 -0.00549,0.0072 -0.00823,0.0108c0,0 -0.01735,0.02024 -0.05062,0.05502l-1.25202,1.40039c-0.16434,0.74639 -0.32867,1.49279 -0.49301,2.23918c-3.08863,8.27347 -6.84488,16.29764 -10.05474,24.4919c-0.95453,2.43676 -1.12166,5.12467 -1.97518,7.59862c-1.89506,5.49287 -3.48057,11.11103 -5.31732,16.61954c-1.5171,4.54987 -3.78066,8.77771 -4.94385,13.47264c0,0 -0.66697,2.66789 -3.33486,2.00092c-2.66789,-0.66697 -2.00092,-3.33486 -2.00092,-3.33486c0.05962,-0.2366 0.12181,-0.47209 0.18636,-0.70657c-0.43512,0.28871 -0.95715,0.45688 -1.51846,0.45688c-1.51878,0 -2.75,-1.23122 -2.75,-2.75c0,-0.40632 0.08812,-0.79207 0.2463,-1.13916l0.97605,-2.27746l0.03657,0.01567l-0.00366,-0.08945c0.90654,-1.81126 1.6922,-3.52368 2.5554,-5.20531l0.29515,-1.05979c0,0 0.30463,-1.06619 1.20403,-1.65108c0.09466,-0.15712 0.19096,-0.3143 0.28906,-0.47159c-0.5989,-0.79307 -0.5989,-1.78851 -0.5989,-1.78851l0.0534,-1.20599c0.76716,-3.81611 1.64145,-7.28055 3.56826,-10.68651c1.53148,-3.58807 2.52297,-7.21672 3.89669,-10.76581c0.81633,-2.10904 0.38557,-4.15146 0.89897,-6.34946c0.75078,-3.2143 3.26118,-5.6971 4.45462,-8.70142c0.60721,-1.52856 0.7369,-3.22163 1.36533,-4.74159c1.0391,-2.51322 3.03822,-4.4585 3.90663,-7.09382c0.61814,-1.87582 0.65708,-3.92246 1.36852,-5.76491c0.89283,-2.3122 2.26633,-4.41356 3.23765,-6.69389c1.47246,-3.45685 2.44214,-7.08822 5.6276,-9.50853c0.03676,-0.02793 0.07369,-0.05557 0.11079,-0.08294l-0.01634,-0.01634l2.08874,-2.08874c0.9207,-3.58393 1.43322,-7.26945 2.56461,-10.78791c0.97298,-3.02583 2.77035,-5.69074 4.23906,-8.49944c-1.00429,0.00259 -1.77054,-1.07706 -2.74477,-1.3807c-0.89951,-0.28036 -1.93224,-0.01371 -2.8012,-0.37788c-3.34414,-1.4015 -4.42493,-2.46391 -6.82666,-3.07347c-0.26395,-0.04835 -0.52615,-0.09872 -0.78624,-0.15173c-0.28873,-0.05885 -0.58748,-0.11295 -0.89315,-0.16575c-0.35307,-0.04774 -0.7329,-0.08928 -1.1448,-0.12447l-0.79689,-0.2136c-1.40623,-0.2711 -2.82342,-0.65235 -3.99131,-1.43245c-0.38618,0.20676 -0.82748,0.32401 -1.29616,0.32401c-1.3902,0 -2.53947,-1.03157 -2.7241,-2.37102c-1.33101,0.23594 -2.64428,0.30086 -3.73887,0.1737c-3.38487,-0.39322 -8.14638,-1.6032 -6.78591,-7.02616c0.4182,-1.66699 2.75067,-2.15181 4.36261,-2.74796c1.00672,-0.37231 2.14628,-0.04647 3.2196,-0.05616c2.43461,-0.02198 4.73705,0.18877 7.01389,-0.09233c0.36065,-1.70379 0.60086,-3.41172 0.61357,-5.12075l0.3514,-0.39226l-0.22044,-0.08266l0.97746,-2.60655c0.37434,-1.07393 1.3959,-1.84452 2.59745,-1.84452c1.26628,0 2.33266,0.85586 2.65224,2.02066c2.1906,0.07719 4.41646,0.36668 6.55083,0.93977c1.99738,-0.07405 3.94461,-0.02851 5.56913,0.37493c0.03465,0.00861 0.06926,0.01734 0.10383,0.0262l0.00155,-0.02013l2.0231,0.15562c-0.64665,-1.12007 -0.12066,-2.43505 -0.12066,-2.43505l0.83231,-2.00972c0.96555,-1.68484 2.02304,-3.31919 3.1499,-4.90069c0,0 0.22427,-0.31397 0.6224,-0.6227c-0.23323,-4.48805 -0.32894,-9.34152 2.0232,-12.68071c0.71026,-1.00832 1.28481,-2.3977 2.46354,-2.76071c0.27436,-0.08449 0.55216,-0.14552 0.83271,-0.18785l-0.03771,-0.15084l2.60684,-0.65171c0.23152,-0.06328 0.47521,-0.09707 0.7268,-0.09707c0.07785,0 0.15495,0.00324 0.23117,0.00958c0.40077,-1.30873 0.68702,-2.6674 1.33294,-3.86921c0.47961,-0.89235 1.04573,-1.72205 1.63965,-2.52476c0.33894,-2.96357 0.53516,-5.82144 2.07524,-8.56333c0.51843,-0.92299 0.75317,-2.11856 1.61344,-2.7355c0.13343,-0.09569 0.2698,-0.18615 0.40874,-0.27203l-0.06169,-0.07402l0.54049,-0.45041c-0.2127,-0.25191 -0.36119,-0.45243 -0.39928,-0.57497c-0.00868,-0.02793 -0.01725,-0.05589 -0.02571,-0.08388l-0.02032,0.0127l-0.07927,-0.12683l-1.94339,-0.77736l0.16181,-0.40453l-1.00254,-0.12511c-2.14849,-4.05998 -2.22128,-5.64292 -2.22128,-10.02368c0,0 0,-2.75 2.75,-2.75c2.75,0 2.75,2.75 2.75,2.75c0,1.58922 -0.19851,3.10362 0.05531,4.59012c0.06431,-0.0045 0.12923,-0.00678 0.19469,-0.00678c0.85659,0 1.6217,0.39164 2.12605,1.00563l1.64167,1.97c0.26839,0.31749 0.46613,0.69663 0.56894,1.11316c0.54354,0.44121 0.73327,1.38388 1.17337,1.98059c1.93432,2.62258 3.41003,3.28746 2.10517,7.19771c-0.54434,1.63122 -2.05717,2.76428 -2.93201,4.24477c-0.651,1.10167 -1.23784,2.24027 -1.82473,3.37865c0.84364,1.57536 -0.49029,3.04268 -0.49029,3.04268c-0.97395,1.06631 -1.87879,2.1914 -2.72233,3.36406c-0.07145,0.12083 -0.15457,0.23985 -0.25126,0.35326c-4.50127,6.40004 -7.22893,14.16196 -9.42542,21.50948l1.54073,0.77037c0.93018,0.44095 1.57345,1.38851 1.57345,2.48632c0,0.15855 -0.01342,0.31397 -0.03918,0.46518l0.25813,0.14715c1.59962,-0.89628 3.46425,-1.23164 5.1023,-2.05562c1.35484,-0.68152 2.60068,-2.21486 3.80021,-3.58616c-0.4366,-0.91244 -0.66948,-1.90665 -0.71276,-2.90251c0.99716,2.07591 2.76942,4.24533 3.77009,5.46878c6.32965,7.73885 15.28697,11.0773 24.99789,11.08318c1.74797,0.00106 6.27843,0.63169 7.71352,-0.21674c1.36879,-0.80924 2.1167,-2.37348 3.17505,-3.56022c0.6217,-1.23019 2.4339,-4.11364 2.92041,-6.57496c0.49722,0.18646 0.98046,0.29234 1.43028,0.06968c0.3346,-0.16562 0.64491,-0.36057 0.93115,-0.58073c0,0.07572 0,0.15144 0,0.22716zM194.53268,184.74851c-0.06422,0.30972 -0.12834,0.61808 -0.19252,0.92517c0.67263,-1.62412 1.35907,-3.24414 2.04887,-4.86362c-0.82398,1.2952 -1.58246,2.6176 -1.85635,3.93845z"></path><path d=""></path><path d=""></path><path d="M192.63696,21.75212c-1.82696,1.1263 -3.93468,1.52602 -5.03456,3.66023c-0.48482,0.94076 -1.15111,4.15796 -1.42874,5.09726c-0.83832,2.83627 -2.02116,5.39138 -2.75528,8.25643l-0.29362,0.26505l0.12957,0.07404l-0.06521,0.11411c1.20164,1.63567 -0.23451,3.31118 -0.23451,3.31118c-2.02435,2.36164 -3.92775,4.77662 -6.21947,6.89473c-1.70072,1.57188 -2.22024,1.32396 -2.98343,3.34089c-2.19094,5.79008 -1.46446,13.70447 -1.47259,19.79345l-0.076,0.14457l0.06339,0.00704l-0.32967,2.96702c-0.13598,1.39172 -1.30941,2.47929 -2.73684,2.47929c-1.33949,0 -2.4553,-0.95768 -2.70008,-2.22569l-0.98888,-4.61477l0.05177,-0.01109c-0.03356,-0.09134 -0.06608,-0.18313 -0.09751,-0.2754c-0.08086,-0.23736 0.02918,-6.67314 -0.01189,-7.48606c-0.30009,-5.93922 -0.33675,-11.84541 -0.33675,-17.80365c0,-4.72535 -0.82395,-10.44887 0.42906,-15.05258c0.55584,-2.04224 1.67763,-3.76056 2.99924,-5.36119l0.29178,-1.45888l0.10535,0.02107c0.00176,-0.14855 0.00692,-0.29723 0.01586,-0.44605c0.06248,-1.04083 1.00255,-1.82876 1.52105,-2.73341c1.63969,-2.86085 3.46272,-4.33414 5.96049,-6.41489c2.67519,-2.22855 5.47786,-4.69735 8.70813,-6.09473c3.73608,-1.61619 12.41643,-1.86412 16.07397,0.14762c1.0409,0.57252 1.72641,1.63234 2.58962,2.44851l0.87672,1.13679c0.38377,0.31244 0.7084,0.78367 0.85646,1.49196c0.14371,0.49405 0.19633,1.11799 -0.0928,1.74649c-0.25132,0.64455 -0.73673,1.04008 -1.19197,1.27986c-0.58958,0.3711 -1.13476,0.47184 -1.613,0.42613c-4.01196,0.61428 -6.60424,2.77527 -10.00967,4.87468zM190.4733,16.6236c0.57924,-0.36003 1.14247,-0.71377 1.69731,-1.0574c-0.05393,-0.29212 -0.05393,-0.49212 -0.05393,-0.49212v-0.17088c-0.17566,0.07346 -0.34233,0.15937 -0.48345,0.27844c-0.19284,0.16271 -0.65467,0.75809 -1.15992,1.44196z"></path><path d="M284.52557,45.60858c-2.72876,-0.3411 -2.38767,-3.06986 -2.38767,-3.06986l0.35885,-2.83052c0.23401,-0.9429 0.46801,-1.88579 0.70202,-2.82869c0,0 0.66697,-2.66789 3.33486,-2.00092c2.66789,0.66697 2.00092,3.33486 2.00092,3.33486c-0.21044,0.83488 -0.42088,1.66976 -0.63132,2.50465l-0.30781,2.50281c0,0 -0.3411,2.72876 -3.06986,2.38767z"></path></g><g fill-opacity="0.23529" fill="#2f152f"><path d="M175.50341,289.67383l0.626,-2.46287c1.1063,-1.93486 1.40113,-4.23257 2.1726,-6.32361c0.98701,-2.67527 2.46822,-4.3539 2.83527,-7.34355c0.29082,-2.36877 -0.16452,-4.83671 0.43648,-7.14635c0.25592,-0.98348 1.0541,-1.74424 1.46448,-2.67393c2.12042,-4.80364 3.24386,-8.44683 7.40126,-11.95633c0,0 0.57112,-0.47593 1.36691,-0.63593c0.63653,-1.09134 1.38789,-2.13342 1.85293,-3.30384c0.03825,-0.09628 2.26741,-7.11111 2.66667,-7.33333c0.01277,-0.00711 0.02554,-0.01379 0.03833,-0.02005l-0.02531,-0.01085l0.97503,-2.27508c0.06425,-0.15985 0.14308,-0.31227 0.23484,-0.45561c-0.53501,-0.25992 -0.87017,-0.67116 -1.08013,-1.08438c-0.30594,-0.46539 -0.51969,-1.0863 -0.3521,-1.84666v-2.21157c0,-4.67998 0.07781,-9.00061 1.01338,-13.60431c-0.00369,-4.83016 1.29504,-9.12189 2.40787,-13.75217c0.96191,-4.00234 1.69518,-8.01417 3.07057,-11.89694c1.51372,-4.2733 3.88057,-8.30322 5.3227,-12.63614c0.33847,-1.01695 0.67958,-2.0338 1.02597,-3.04913c1.14145,-5.81107 2.40635,-11.39718 5.02494,-16.80514c-0.21881,-0.08657 -0.44679,-0.16459 -0.6863,-0.23275c-2.67925,-0.76243 -5.5868,2.8815 -6.88792,4.61602c-1.94083,2.58732 -4.17781,6.64276 -5.30955,9.68552c-0.66252,1.78122 -0.68708,3.75143 -1.29222,5.55296c-0.63827,1.90013 -2.02506,3.48822 -2.68339,5.3815c-0.38586,1.10969 -0.3008,2.3375 -0.60516,3.47226c-0.91506,3.41166 -2.90506,6.35941 -4.01887,9.73189c-0.5325,1.95438 -1.05444,3.91185 -1.54873,5.87625c-0.00044,0.03023 -0.00399,0.16398 -0.03256,0.35742c-0.02663,0.22165 -0.06427,0.35967 -0.06427,0.35967c-0.66463,2.43029 -0.98385,4.9479 -1.677,7.37021c-0.87107,3.04407 -2.483,5.93253 -3.33174,8.99446c-0.3986,1.43797 -0.96612,6.70034 -2.2853,7.41265c-1.78994,0.96651 -4.44185,1.13396 -6.10252,-0.04087c-2.65526,-1.87845 -1.61377,-7.40873 -0.83192,-9.75766c1.66603,-5.00531 5.73902,-9.46899 7.27672,-14.49927c0.88465,-2.89395 1.26352,-6.39575 2.00636,-9.35403c2.13885,-5.72821 3.98415,-11.20966 6.51077,-16.76824l0.10732,-0.08514l-0.04678,-0.02673l1.30685,-2.28698c0.33306,-0.60874 0.88965,-1.07772 1.55939,-1.29654c0.15446,-0.80855 0.33347,-1.60943 0.62311,-2.37707c0.19267,-0.51064 1.66395,-2.94604 2.40941,-4.24803c-1.61066,-1.25722 -0.66601,-3.26461 -0.66601,-3.26461c3.69929,-7.86004 6.4984,-15.99769 9.9675,-23.92828c3.07497,-7.02959 7.65892,-13.73655 9.87385,-21.08026c-0.09356,-0.14525 -0.17381,-0.29987 -0.23904,-0.46216l-0.97503,-2.27508l0.03593,-0.0154l-0.07877,-0.09058c-0.10547,-0.33624 -0.22192,-0.65701 -0.3475,-0.96552c-0.34362,-0.0815 -0.67949,-0.22593 -1.01296,-0.3975c-3.56998,-0.27898 -7.11661,-0.66618 -10.65014,-1.19761h-0.41891v-0.06369c-1.28155,-0.19695 -2.56143,-0.41307 -3.84013,-0.65008c0,0 -1.7342,-0.32516 -2.16394,-1.84367c-1.1054,-0.07301 -2.21481,-0.11109 -3.32927,-0.10923c0,0 -2.75,0 -2.75,-2.75c0,-2.75 2.75,-2.75 2.75,-2.75c2.67103,0.00399 5.31031,0.20635 7.93686,0.55851c-0.66511,-0.49185 -1.36379,-1.40011 -0.90421,-2.93205c0.79021,-2.63402 3.42423,-1.84382 3.42423,-1.84382c1.06916,0.32075 2.09083,0.64009 3.08491,0.96979c0.26267,-0.32809 0.50915,-0.66792 0.73111,-1.02558c0.07074,-0.54652 0.30192,-1.04271 0.64477,-1.4398c0.72294,-2.27929 0.57835,-4.99262 2.64145,-6.63694c1.27076,-1.01281 2.87072,-2.66146 4.38768,-2.62183c1.29146,-0.95984 2.62132,-1.8921 3.3136,-3.27623c1.29307,-2.58533 1.46552,-5.04666 3.25052,-7.37611c1.07085,-1.39748 2.91734,-2.04312 4.0482,-3.39249c2.72637,-3.25317 4.41092,-8.23025 6.69172,-11.88429l0.40526,-0.81053l0.02414,-0.59554c0.75138,-2.7372 0.94771,-4.14127 2.21608,-6.55058c1.10679,-2.10237 3.07497,-4.5461 3.72974,-6.87536c0.42424,-1.50918 -0.68531,-1.83695 -1.46942,-2.83653c-1.33418,-1.7008 -2.29107,-3.69661 -3.06487,-5.71503c0,0 -0.96559,-2.57491 1.60932,-3.54049c2.57491,-0.96559 3.54049,1.60932 3.54049,1.60932c0.95199,2.6133 3.4267,4.44846 4.28845,6.88786c1.91888,5.4319 -2.68444,11.18825 -4.84923,16.46193c0.04529,0.19798 0.06921,0.4041 0.06921,0.6158c0,0.34714 -0.06432,0.67925 -0.18169,0.98507l-0.4851,1.35827c-0.00201,0.10994 -0.03751,1.10326 -0.6652,1.86257l-0.49489,1.38568l-0.02311,-0.00825c-0.00579,0.03857 -0.01172,0.07713 -0.0178,0.11567c-0.21184,1.34313 -1.15025,2.46471 -1.68646,3.71425c-2.25612,5.25743 -5.52833,9.26634 -8.51771,14.02369c-0.24768,0.39416 -1.56275,3.95125 -1.61001,4.18609c-0.09068,0.45058 -0.09157,0.93565 -0.07135,1.42696c0.93231,-0.30652 1.92415,-0.4576 2.88964,-0.45789c1.61509,-0.00048 2.82239,2.24695 4.41713,1.99138c0.92138,-0.14766 1.62936,-0.91002 2.44404,-1.36504c0.34759,-0.19907 0.68312,-0.39395 1.00784,-0.58699c0.42588,-0.90804 0.83649,-1.71177 1.3241,-2.27324c0.38189,-0.58795 1.05776,-1.10823 2.2539,-1.10823c0.32919,0 0.61897,0.0394 0.87406,0.10878c0.52001,-0.50688 1.02196,-1.06128 1.51788,-1.68535c0.88593,1.328 1.87841,2.54257 2.53684,3.34758c0.29944,0.36611 0.60477,0.72237 0.91577,1.06889c-0.44928,0.50211 -0.90749,0.97112 -1.37863,1.41477c0.33206,1.54898 -0.32763,4.02606 -0.09339,5.33797c0.46782,2.62008 2.6033,4.91528 3.74758,7.24846c1.11337,2.27016 1.43332,4.51733 2.26939,6.59038c0.17956,0.14528 0.36338,0.28574 0.55178,0.42091c2.15426,1.54559 4.29606,1.61967 6.71657,2.22743c6.05729,1.52091 12.63363,1.14634 18.90853,0.40986c0.3475,1.9322 1.40134,3.86647 1.04249,5.79659c-0.90705,4.87875 -6.47307,5.83819 -10.27555,5.88037c-0.68271,0.00757 -6.27228,0.01108 -6.63182,-0.07357c-3.89031,-0.9159 -8.68667,-4.32204 -11.5723,-6.99417c-0.88545,-0.81994 -2.53109,-3.00193 -3.55629,-4.60535c-2.34194,-2.30586 -4.1885,-5.21629 -5.88324,-7.91863c-0.57041,-0.90955 -1.30801,-1.73925 -1.84392,-2.66508c-0.17117,4.27279 1.18654,8.06757 2.17633,12.26303c0.36814,1.56044 -0.20732,3.34001 0.48711,4.7851c0.80255,1.67008 2.90903,2.29013 4.20281,3.30658c2.19865,1.72735 4.15256,4.27731 6.44346,5.83996c4.46251,3.04394 10.03396,2.72283 15.02578,3.233c0.51177,0.0523 1.09233,0.01629 1.68267,-0.02698c0.80468,-0.90697 1.60935,-1.81393 2.41403,-2.7209c0,0 1.827,-2.05538 3.88238,-0.22838c2.05538,1.827 0.22838,3.88238 0.22838,3.88238c-0.20172,0.22648 -0.40345,0.45296 -0.60517,0.67944c-0.0769,0.66359 -0.39932,1.20457 -0.56763,1.4481l0.4341,0.57879l-0.55633,0.41725l0.26443,0.46428c0,0 -0.98534,1.64224 -2.68193,1.36347c-0.10901,0.08984 -0.21835,0.17954 -0.32798,0.26914c-0.08928,0.23421 -0.16542,0.46654 -0.22151,0.696c-2.86567,2.29782 -6.73032,5.05759 -9.56525,8.27426c-0.79858,1.0582 -1.54761,2.16002 -2.33696,3.22508c-0.55779,0.99378 -0.98091,2.02409 -1.22326,3.09082l0.08211,-0.00031c0,0 0,2.75 -2.75,2.75c-0.71445,0 -1.24329,-0.18561 -1.63473,-0.4604c-0.89929,1.27194 -1.39611,2.82109 -2.17682,4.1835c-0.08525,0.16629 -0.19152,0.33654 -0.32178,0.51023c-0.53501,0.71335 -1.12785,1.02192 -1.68476,1.1132c-0.55239,0.11556 -1.21659,0.04138 -1.97274,-0.43121c-0.24532,-0.15332 -0.4487,-0.31633 -0.61626,-0.48527l-1.49734,-1.24832c-0.56579,-0.79671 -2.64416,-5.4173 -3.6984,-5.67932c-1.74675,-0.43414 -3.59728,0.16425 -5.39716,0.16425c-3.54246,0 -7.41037,-0.21266 -10.63289,1.63611c-0.01091,0.00626 -0.05427,0.04052 -0.12307,0.09744c0.0712,2.08483 -0.43908,4.99215 -0.62997,6.37035l-0.37266,0.39133l0.16253,0.09029l-1.63999,2.95198c-0.46179,0.86999 -1.37701,1.4625 -2.43061,1.4625c-0.03512,0 -0.07008,-0.00066 -0.10487,-0.00196c-0.73133,1.65093 -1.42569,3.22411 -1.63717,3.83934c-0.15944,0.46384 -0.31484,0.92942 -0.46686,1.39646c-0.31123,1.96696 -0.53086,3.94793 -0.71713,5.90965c-0.42087,4.4324 -0.91123,8.89437 -1.54023,13.34121l-0.1383,1.1064l-0.02077,-0.0026c-0.01449,0.09868 -0.02904,0.19734 -0.04367,0.296l0.00583,0.02336c-0.0052,0.01413 -0.0104,0.02827 -0.01559,0.0424c-1.18666,7.9846 -2.84561,15.90446 -5.37816,23.50012c-0.86853,2.60493 -1.46166,6.82098 -2.43848,9.88707c-0.06665,1.46321 -0.107,2.91653 -0.12343,4.35305l-0.29504,0.36598l0.18943,0.06314l-0.97995,2.93984c-0.00469,0.01526 -0.00952,0.03047 -0.01447,0.04562c0.74119,0.64299 1.46006,1.37056 2.17086,2.23316l-0.03825,0.64165l0.25415,-0.06354l0.65171,2.60684c0.06328,0.23152 0.09707,0.47521 0.09707,0.7268c0,0.72739 -0.28241,1.38882 -0.74356,1.88062c0.39343,-0.21714 0.84573,-0.34071 1.32689,-0.34071c1.41573,0 2.58159,1.0698 2.73329,2.4451l0.28531,2.28249c1.47352,3.00461 3.13663,8.19675 0.85665,11.32757c-2.60496,3.57708 -8.39065,2.18944 -11.5943,0.90218c-0.44606,-0.17923 -0.88272,-0.36485 -1.30791,-0.5581c-1.42844,1.2687 -3.91018,1.10555 -5.52718,1.86568c-1.02196,0.48042 -1.73662,1.53065 -2.80268,1.90311c-0.03857,0.01348 -0.07746,0.02745 -0.11666,0.04188c-0.90993,1.64727 -1.8093,3.2028 -2.48673,5.39304l-0.30649,2.45195c-0.12618,1.14393 -0.95399,2.0765 -2.04363,2.35791c-0.24272,0.78416 -0.50399,1.56137 -0.79134,2.32883c-0.2992,0.79909 -1.01484,1.40345 -1.28944,2.21132c-0.87243,2.56668 -0.9263,5.26938 -1.94878,7.88802c0.24783,0.67893 0.12183,1.33293 -0.06721,1.81855c-0.08027,0.25628 -0.20154,0.53702 -0.38477,0.80032c0.1677,0.22593 0.25155,0.39363 0.25155,0.39363l0.62366,1.8965c-0.12383,1.34899 0.45315,2.97222 -0.3715,4.04697c-2.74134,3.57273 -8.71566,4.21202 -10.43792,-1.68507c-0.13022,-0.44587 0.78042,-1.87102 1.90943,-3.41288c-0.40137,-0.88121 -0.21328,-1.82167 -0.21328,-1.82167zM262.72461,122.15534c2.47547,0.71751 5.10144,0.91264 7.84357,0.4248c0.25321,-0.04505 0.46972,-0.1165 0.65808,-0.20597c-0.23293,-0.02084 -0.46466,-0.036 -0.69293,-0.03427c-2.74018,0.02076 -5.27899,0.03094 -7.80873,-0.18457zM223.43801,96.79048c-0.28415,-0.06026 -0.55936,-0.07974 -0.81012,-0.01113c-0.15504,0.04242 -0.16197,0.19303 -0.13181,0.37808c0.38578,-0.13724 0.79919,-0.20429 0.87357,-0.28659c0.02358,-0.02609 0.04634,-0.0529 0.06836,-0.08036zM208.28334,245.96315l0.0308,-0.04106c0.06577,-0.0897 0.13684,-0.17526 0.21276,-0.25623c-0.0789,0.04355 -0.16017,0.08333 -0.24356,0.11911z"></path><path d=""></path><path d="M280.46791,101.90396c-0.16133,0.44826 -0.39072,0.89078 -0.72595,1.32439c-0.73805,0.95466 -1.93456,1.4803 -3.1333,1.83043c-0.09484,0.06889 -0.19352,0.1368 -0.29619,0.2037c-1.3396,0.8729 -3.18227,0.32928 -4.77909,0.41071c-4.18744,0.21353 -9.76102,-0.92469 -13.48502,-3.58519c-1.33423,-0.57994 -1.99813,-1.13939 -2.48982,-1.76522c-0.30571,-0.03409 -0.59628,-0.11829 -0.86331,-0.24421l-2.9454,-1.30907l0.01977,-0.04447c-1.36149,-0.47364 -2.54925,-1.29326 -3.33784,-2.85709c-0.28996,-0.57502 -0.39975,-1.20581 -0.44846,-1.8555c6.12694,6.0332 14.17025,8.6764 22.81008,8.68163c1.74797,0.00106 6.27843,0.63169 7.71352,-0.21674c1.36879,-0.80924 2.1167,-2.37348 3.17505,-3.56022c0.20778,-0.41114 0.54853,-1.00693 0.92832,-1.70991c-0.01762,2.7455 -0.2297,3.80198 -2.14235,4.69676z"></path><path d=""></path><path d="M285.05876,68.83462c-0.5289,0.3526 -1.01705,0.50144 -1.45503,0.52189c-0.28288,0.32331 -0.64027,0.57977 -1.04537,0.74259l-2.2192,0.95109c-0.34709,0.15818 -0.73283,0.2463 -1.13916,0.2463c-1.07207,0 -2.00085,-0.61346 -2.45447,-1.5085c-1.23408,-0.21628 -2.51081,-0.31598 -3.61834,-0.87819c-0.31037,-0.15755 -0.54466,-0.40906 -0.75392,-0.69316c-0.1688,-0.05765 -0.33327,-0.1277 -0.49218,-0.21365c-0.70364,-0.38054 -1.1955,-1.03432 -1.68629,-1.68947c-1.01074,-0.17504 -2.14437,0.18731 -3.05449,0.30265c0,0 -2.73635,0.27364 -3.00999,-2.46272c-0.27364,-2.73635 2.46272,-3.00999 2.46272,-3.00999c1.99775,-0.16333 3.15649,-0.42891 4.34519,-0.29359c1.4662,-0.37781 2.572,0.8244 2.6961,0.96604c0.25807,0.14334 0.5317,0.30543 0.82439,0.48828c0.23897,0.14929 0.40763,0.37802 0.55634,0.62896c0.38513,0.16409 0.79732,0.25719 1.19271,0.26132l0.98674,1.25431c0.30767,0.00696 0.62016,-0.00026 0.92103,0.02674l0.0001,-0.00108l0.09014,0.00819c0.06409,-0.12355 0.13427,-0.24468 0.2112,-0.36313c0.72281,-1.11289 2.52181,-0.82728 3.78271,-1.24091l3.62178,2.14247c0,0 1.52543,2.28814 -0.76271,3.81356z"></path><path d="M190.0454,19.56025c-0.03415,0.03999 -0.0679,0.08044 -0.10123,0.12138c-2.97249,3.65087 -5.23441,9.10832 -6.83553,13.49606c-0.60911,1.66921 -0.9648,3.67042 -1.79354,5.38544c0.94974,0.68868 1.66957,1.9367 1.96824,3.98336c0.46695,3.19983 -5.94787,6.2584 -8.19238,7.13439l-2.15131,1.22932c-0.07627,0.04548 -0.15493,0.08736 -0.23573,0.12543c-0.02628,0.04364 -0.05276,0.0872 -0.07939,0.1307c-0.00424,0.07259 -0.00863,0.14516 -0.01316,0.21771c-0.26301,4.20914 -0.69369,8.38758 -0.993,12.58036c0.43788,2.78057 0.74818,5.53862 -0.0051,8.05241c-0.01338,0.04467 -0.02713,0.08918 -0.04124,0.13355l0.031,0.0031l-0.33031,3.30308c-0.12319,1.40478 -1.30261,2.50662 -2.73938,2.50662c-1.51878,0 -2.75,-1.23122 -2.75,-2.75v-3c0,-2.78492 0.1375,-5.55074 0.33136,-8.31019c-0.17328,-3.49271 -1.13455,-7.95835 -0.23923,-11.39564c0.25076,-0.96273 0.78898,-1.81584 1.3111,-2.67659c0.27119,-6.07143 -0.19106,-12.17058 0.98351,-18.15689c0,0 0.10222,-0.51109 0.44016,-1.04377c0.02818,-0.63329 0.13519,-1.27869 0.17731,-1.90232c0.45933,-6.80056 5.12883,-9.09515 9.45446,-13.44558c2.35574,-2.36925 4.82611,-5.32678 8.19987,-6.37911c2.31304,-0.72147 5.94537,-0.1044 8.43573,-0.42094l0.01952,0.00513l-0.00081,-0.00727l2.96029,-0.32892c0.1125,-0.01401 0.2271,-0.02123 0.3434,-0.02123c1.25058,0 2.30619,0.83477 2.64002,1.9775l1.32183,0.52873c1.04443,0.38998 1.78815,1.39669 1.78815,2.5771c0,1.51878 -1.23122,2.75 -2.75,2.75h-2.89159c-1.5822,0.15497 -3.1405,0.57928 -4.62662,1.22232c-0.58253,1.21651 -1.94435,1.40841 -2.35949,1.43868c-0.41991,0.31261 -0.8454,0.62426 -1.2769,0.9361z"></path><path d="M282.45,41.87982c0,-1.51878 1.23122,-2.75 2.75,-2.75c1.51878,0 2.75,1.23122 2.75,2.75c0,1.51878 -1.23122,2.75 -2.75,2.75c-1.51878,0 -2.75,-1.23122 -2.75,-2.75z"></path><path d="M245.8048,206.25429c0.0232,0.28784 -0.02051,0.59771 -0.07241,0.9079c-0.75949,9.80766 -0.78239,19.50978 -0.78239,29.38429c-0.00274,2.24864 0.26073,7.07805 -1.68573,8.36837c-2.86528,1.89941 -4.69922,-0.73026 -6.41157,-2.16054c-0.2235,0.30682 -0.45366,0.61118 -0.69072,0.91299c-0.22205,0.81265 -0.85042,1.96251 -2.62866,1.96251c-2.75,0 -2.75,-2.75 -2.75,-2.75l0.63739,-2.09384c0.27689,-0.32997 0.54334,-0.66439 0.79979,-1.00302c-0.12995,-1.67177 1.58785,-3.17893 2.34787,-4.74658c1.23743,-2.55236 2.31219,-4.96058 2.95297,-7.77895c1.59923,-7.03398 2.21401,-14.057 2.44969,-21.13793c-0.02998,-0.30967 -0.03531,-0.61277 0.02793,-0.89917c0.1086,-3.75962 0.11769,-7.53636 0.11769,-11.34051c0,0 0,-2.75 2.75,-2.75c2.75,0 2.75,2.75 2.75,2.75c0,1.95953 -0.00372,3.91265 -0.02219,5.86045c0.6235,0.50414 1.02219,1.27529 1.02219,2.13955c0,0.25159 -0.03378,0.49528 -0.09707,0.7268l-0.61286,2.45144c-0.03526,0.39894 -0.06923,0.79768 -0.10195,1.19623z"></path><path d="M281.6871,292.45116c-0.46308,-0.36571 -0.89652,-0.76866 -1.29603,-1.18037c-2.21905,-2.28681 -1.11408,-3.4823 -1.84049,-5.98737c-0.91235,-3.1463 -2.60702,-4.57337 -4.30043,-7.20411c-0.64306,-0.99901 -1.13222,-1.91291 -1.54986,-2.81583c-2.25029,-0.31114 -2.25029,-2.71699 -2.25029,-2.71699l0.02124,-0.32557c-0.24191,-2.1388 -0.49742,-4.38504 -2.50283,-5.74646c-1.99095,-1.3516 -4.89534,-1.94126 -5.93348,-4.1122c-0.80434,-1.682 -0.74184,-3.37506 -0.19841,-4.98706l0.01231,-0.42527c0.82614,-3.56758 2.00323,-5.70694 4.11341,-8.66851c0,0 1.28189,-1.79464 3.15688,-1.02163c0.34047,-0.50285 0.71664,-0.96992 1.19519,-1.33761c0.00878,-0.00674 0.01756,-0.01348 0.02635,-0.0202l-0.00732,-0.00549l1.9808,-2.64106c0.49086,-0.66946 1.27735,-1.10861 2.16716,-1.12512c0.03216,-0.21182 0.08848,-0.4157 0.16606,-0.60875l0.87146,-2.32389c-0.00594,-1.56547 0.09779,-3.05493 0.44773,-3.97146c0.28257,-0.74006 0.77035,-1.3703 1.28428,-1.98655c0.43505,-4.869 0.71687,-10.29415 0.21029,-15.11286c-0.22245,-2.11603 -1.05798,-4.13327 -1.32384,-6.24429c-0.72374,-5.74685 0.30644,-11.66938 -0.34055,-17.39836c-0.27199,-2.40838 -0.91064,-4.76154 -1.3093,-7.15221c0,0 -0.4521,-2.71258 2.26049,-3.16468c2.71258,-0.4521 3.16468,2.26049 3.16468,2.26049c0.41823,2.51076 1.08014,4.98424 1.35737,7.51445c0.62415,5.69646 -0.38045,11.56596 0.32611,17.26831c0.26894,2.17049 1.11363,4.24733 1.34283,6.42237c0.19386,1.83966 0.28155,3.75537 0.29119,5.69639c1.00844,0.40766 1.71993,1.39603 1.71993,2.55058v2.87329c0.84204,2.5394 0.41614,5.02388 -0.52946,7.37138c0.29964,4.98466 0.84264,10.95126 -1.05722,14.90826c-1.73917,3.62231 -6.06393,5.67375 -8.91409,8.45372l-1.16841,2.04472c-0.28442,0.51984 -0.73185,0.93776 -1.27355,1.18501c1.58005,1.45442 2.50164,3.04953 3.08923,4.8569c0.71166,0.54095 1.01174,1.34114 1.01174,1.34114c1.61834,4.334 4.47685,7.41903 6.2788,11.53215c0.844,1.92652 1.37641,3.98744 1.80057,6.04752c0.12482,0.60621 0.1342,1.79968 0.58379,1.97047l0.24033,0.00051c0.77614,-0.22809 1.35391,-0.88762 2.03125,-1.33058l0.99563,0.78874l0.24466,-0.57087l2.27508,0.97503c1.01111,0.4064 1.72497,1.39614 1.72497,2.55261c0,1.41573 -1.0698,2.58159 -2.4451,2.73329l-2.63047,0.32881l-0.00845,-0.06757c-0.05392,0.02783 -0.10785,0.05566 -0.16177,0.08349l-1.86475,0.00349c-0.14045,0.02526 -0.28408,0.02782 -0.43183,0.00081l-0.54096,0.00101c0,0 -1.84563,0 -2.5129,-1.51199zM278.90782,245.37024c-0.00095,-0.21926 -0.00566,-0.43899 -0.01274,-0.65815c-0.13066,0.10241 -0.27082,0.19326 -0.41894,0.27099c0.1572,0.11365 0.30191,0.24352 0.43167,0.38715z"></path></g><path d="M232.79338,93.44407c0,2.75 -2.75,2.75 -2.75,2.75l-2.08552,-0.34607c-2.36442,-1.36913 -4.5948,-2.15292 -5.36108,-5.36461c-0.25971,-1.08851 0.23677,-2.1979 0.59104,-3.29554c-0.23673,-1.41159 -0.25386,-3.05514 -0.2189,-4.57328l-0.16444,-0.92355c0.00115,-1.5312 0.09627,-3.19918 0.32945,-4.88512c-0.80295,-0.48019 -1.34056,-1.35823 -1.34056,-2.36184c0,-0.69835 0.26031,-1.3359 0.68919,-1.82091l1.74123,-1.98997l0.24045,0.2104c0.062,-0.07379 0.12414,-0.14724 0.18642,-0.2204v-0.00001l-0.17056,-0.2466c0.18978,-0.12755 0.37355,-0.26681 0.55573,-0.40916c0.25984,-0.55518 0.54684,-1.09024 0.86323,-1.59921c-0.07802,-0.08948 -0.10092,-0.19923 -0.04297,-0.34019c0.23044,-0.56059 0.53217,-1.07885 0.88002,-1.56973l-0.60695,-0.33106l1.47325,-2.70096c0.45837,-0.88073 1.37943,-1.4822 2.44096,-1.4822c0.31749,0 0.62241,0.0538 0.90614,0.15278c0.34572,-0.58458 0.80147,-1.12341 1.57381,-1.56874c1.19905,-2.80563 1.87392,-5.81575 3.4044,-8.48626c0.78294,-1.36614 1.74246,-2.65126 2.31234,-4.11911c0,0 1.02132,-2.55331 3.57464,-1.53199c0.9751,0.39004 1.42886,1.00351 1.61726,1.61288c0.95531,0.58309 1.26452,1.71686 1.26452,1.71686c0.62344,2.35602 1.36302,4.03457 0.78457,6.55575c-0.75001,3.2689 -3.09719,4.8524 -4.48385,7.65931c-0.45576,0.92256 -0.77739,1.91065 -1.11986,2.88704c1.34192,1.28337 0.46878,3.80992 -0.77863,6.6208c-0.98128,2.2112 -3.50313,3.79016 -4.55331,6.14191c-0.2774,0.62121 -0.59345,1.22365 -0.93936,1.81012c-0.03047,0.15573 -0.06141,0.31312 -0.09301,0.4722l0.18345,0.05003l-0.73428,2.69237c-0.19722,0.79295 -0.73858,1.44987 -1.45634,1.80303c-0.08177,1.02454 -0.30284,1.84074 -0.77703,2.20026c-0.86893,0.65879 -1.64239,1.15063 -2.33065,1.49741c0.56372,0.43045 1.58173,0.59185 2.23072,0.92944l-0.58552,-0.34607c0,0 2.75,0 2.75,2.75z" fill="#ba99b9"></path><path d="M191.87549,185.2771c1.10909,-4.34685 2.57567,-8.67769 4.02668,-13.00011c-1.83065,0.79113 -4.42602,0.60619 -5.85879,0.66709c-3.99263,0.16971 -7.30119,-0.50247 -10.39025,-2.32624c-1.12372,0.00016 -2.23244,-0.03952 -3.13255,-0.63387c-0.77258,-0.51014 -1.31065,-1.13828 -1.70072,-1.83575c-0.90067,-0.33563 -1.79114,-0.68373 -2.49722,-1.30902c-3.39374,-3.00543 -3.2295,-9.19158 -2.17542,-13.46901c0.29129,-2.44453 1.2997,-4.90119 2.43705,-6.96693l1.09779,-3.0738c0.36243,-1.09519 1.3946,-1.88537 2.61132,-1.88537c0.12102,0 0.24022,0.00782 0.35711,0.02297c0.29047,-0.53965 0.62464,-1.03704 1.11645,-1.38201c0.13151,-0.09225 0.2645,-0.18196 0.39885,-0.26936l-0.04289,-0.05609l1.89731,-1.45088c0.37727,-0.73533 0.78957,-1.45029 1.23504,-2.14006c0,0 1.21319,-1.81978 3.0986,-1.13165c0.4379,-1.61514 0.98327,-3.22793 1.63623,-4.86425c0,0 1.02132,-2.55331 3.57464,-1.53199c2.55331,1.02132 1.53199,3.57464 1.53199,3.57464c-1.92076,4.78946 -2.71638,9.20778 -2.55483,14.38716c0.05942,1.90505 0.11536,4.81389 1.3234,6.65363c1.24482,0.79159 2.41373,1.48391 3.05131,1.96803c0.17333,0.13161 0.38014,0.23465 0.59026,0.33411c0.65658,0.19434 1.32196,0.35459 1.95235,0.54271l0.08568,0.08934l0.01985,-0.04962l2.44052,0.97621c1.04443,0.38998 1.78815,1.39669 1.78815,2.5771c0,1.28162 -0.87673,2.35848 -2.06315,2.66353l1.37262,0.45754c0.04102,0.01262 0.08163,0.02616 0.12181,0.04062c0.70341,-1.53455 1.44555,-3.04559 1.9347,-4.7019c0,0 0.79021,-2.63402 3.42423,-1.84382c2.63402,0.79021 1.84382,3.42423 1.84382,3.42423c-2.73565,9.00167 -6.98683,17.73131 -9.21613,26.87677l-0.89024,2.16631c0,0 -0.40287,0.94002 -1.29049,1.42787c-0.23797,7.60209 -3.71687,13.22146 -6.71995,20.09617c-1.96982,4.50935 -1.18917,10.45718 -3.95714,14.64696c-0.00344,0.00521 -0.00688,0.01041 -0.01033,0.01561l0.00358,0.00143l-1.47621,3.69052c-0.38998,1.04443 -1.39669,1.78815 -2.5771,1.78815c-1.51878,0 -2.75,-1.23122 -2.75,-2.75v-2.5c0.05815,-5.78429 2.68675,-11.32971 4.08211,-16.91697c0,0 0.60546,-2.42184 2.97011,-2.07374c2.33752,-5.44338 4.96494,-10.76659 4.94778,-16.75929v-0.5c0,0 0,-2.11993 1.8613,-2.63719z" fill-opacity="0.09804" fill="#e3a3e3"></path><path d="M181.29338,287.69407c-2.75,0 -2.75,-2.75 -2.75,-2.75l0.07042,-2.86836c0.65778,-2.82771 0.65072,-5.60314 1.23147,-8.41336c0.75436,-3.65035 2.00408,-6.24543 3.81266,-9.33655c1.03947,-1.7766 1.20431,-3.97764 2.25025,-5.75044c1.48494,-2.51686 4.298,-5.5455 7.74338,-5.17303c-0.63452,-2.90655 -0.12178,-4.87403 1.07969,-8.20727l0.04238,-0.05089l-0.01872,-0.0078l1.22549,-2.94118c0.11743,-0.30108 0.28637,-0.57637 0.496,-0.81506c-1.81534,-1.44723 -3.25985,-3.62919 -3.82908,-5.43713c-1.08486,-3.4456 0.2703,-4.29537 1.30943,-7.18271c0.65817,-1.82879 1.40532,-3.51208 2.17595,-5.21392c-0.13217,-6.04928 0.97341,-12.7462 2.78421,-17.91733c1.21103,-3.45834 7.12877,-12.92842 11.48255,-4.56292c0.76133,1.46284 -1.06931,3.12114 -1.67135,4.65641c-2.11703,5.39866 -4.40647,10.44904 -5.82865,16.09945c-0.11494,0.26863 -0.23232,0.53609 -0.35163,0.8026c-0.11383,2.39872 -0.16652,4.79921 -0.09555,7.15364c0.86662,3.29435 2.37264,6.74661 3.24419,9.94226l0.0969,1.22357c0,0 0,2.75 -2.75,2.75c-0.70095,0 -1.22323,-0.17866 -1.61239,-0.44491l0.49641,1.65471l-0.10794,0.03238c0.09619,0.24926 0.17243,0.50646 0.22387,0.77354c0.14647,0.76047 -1.93058,6.47212 -2.59881,8.0268c0.08003,0.33036 0.18136,0.96827 -0.0079,1.61826l1.07779,0.09798c1.41542,0.11258 2.52895,1.29687 2.52895,2.74125c0,1.37194 -1.00464,2.50923 -2.31838,2.71632l-4.20371,0.74183l-0.00535,-0.0303c-0.07713,0.02168 -0.15469,0.04225 -0.23269,0.06166c-2.8664,0.71333 -4.72494,0.35563 -4.97834,-1.13554c-0.23783,0.23652 -0.47351,0.47565 -0.62634,0.76472c-0.96187,1.8194 -1.22617,3.96415 -2.24975,5.74956c-0.44218,0.77129 -1.27546,1.28512 -1.66283,2.08534c-2.03265,4.19905 -1.76321,9.66972 -2.79304,14.16476l0.07042,1.63164c0,0 0,2.75 -2.75,2.75z" fill-opacity="0.09804" fill="#e3a3e3"></path><path d="M275.04338,280.44407c-2.75,0 -2.75,-2.75 -2.75,-2.75l0.29033,0.22984c-1.3261,-2.66241 -2.94645,-5.80653 -3.49862,-8.7527c-0.15583,-0.83144 0.21458,-1.70833 0.04621,-2.53732c-0.1432,-0.70511 -0.49879,-1.37012 -0.95347,-2.02198c-2.75955,0.35713 -6.4543,-0.21287 -7.23241,-1.73619c-1.7631,-3.45168 2.04201,-9.70534 4.26799,-12.43088l0.92828,-1.59134c0.4704,-0.84092 1.36965,-1.40942 2.40168,-1.40942c1.51878,0 2.75,1.23122 2.75,2.75c0,0.46188 -0.11387,0.89717 -0.31507,1.27932l-1.22526,2.45052l-0.1445,-0.07225c-0.02334,1.57866 0.04199,3.08791 0.33269,4.09991c0.84262,2.93342 3.66601,4.27261 4.51421,7.30269c0.26624,0.95112 -0.12469,1.9899 0.04621,2.96268c0.42216,2.4029 1.91792,5.08965 3.00138,7.2473l0.29033,2.22984c0,0 0,2.75 -2.75,2.75z" fill-opacity="0.09804" fill="#e3a3e3"></path><path d="M230.06588,82.80013c0.10157,1.55345 0.22708,3.16649 0.2275,4.89395c0.00039,1.61858 0.15257,6.0994 -0.79697,7.24304c-0.14793,0.17817 -0.30684,0.34352 -0.47496,0.49815c0.21513,0.02369 0.43534,0.0517 0.66068,0.08402c3.23985,0.46465 4.29616,2.47179 4.3645,4.93897c1.75619,0.76985 1.47153,2.85738 1.47153,2.85738c-0.39339,2.86023 -0.72445,5.74394 -0.72478,8.6311v2.74734c0,0 0,1.23107 -0.82368,2.04585c1.5406,1.48902 3.24214,3.12779 3.27695,3.21159c0.05672,0.13654 0.11198,0.27682 0.16499,0.42011c0.70903,0.74195 1.39069,1.50583 2.00246,2.32l1.69009,1.93154c0.42888,0.48502 0.68919,1.12257 0.68919,1.82091c0,1.51878 -1.23122,2.75 -2.75,2.75c-0.46188,0 -0.89717,-0.11387 -1.27932,-0.31507l-2.8197,-1.40985c-2.28959,1.12252 -4.99791,0.17607 -7.04711,-1.7833c-2.61275,-2.49821 -3.57387,-5.28779 -3.92066,-8.26951c-3.13864,-0.05686 -6.54175,-0.22664 -9.37372,-0.75779c-2.19571,-0.41181 -4.31031,-1.30469 -6.53787,-1.47399l-1.39125,-0.38162c0,0 -2.60888,-0.86963 -1.73925,-3.47851c0.86963,-2.60888 3.47851,-1.73925 3.47851,-1.73925l0.10875,0.11838c0.90469,0.08073 1.79456,0.2554 2.67895,0.46614c0.04305,-0.01866 0.08667,-0.03625 0.13082,-0.05274l1.42983,-0.57193c2.43603,-3.1789 4.32801,-6.81482 4.28201,-10.85097v-2c0,0 0,-1.28093 0.87422,-2.09434c-0.11286,-0.39707 -0.16185,-0.74461 -0.12055,-1.01364c0.79707,-5.1925 2.28488,-6.06813 4.26804,-4.88232c-0.02856,-0.29183 -0.01221,-0.48808 -0.01221,-0.48808c0.39538,-4.74457 0.74956,-9.48718 1.32889,-14.21323l0.27084,-0.30455l-0.14768,-0.06154l1.22549,-2.94118c0.39123,-1.00312 1.35438,-1.72007 2.48871,-1.75015c0.15273,-0.24531 0.3024,-0.4921 0.44558,-0.74202l0.44002,-0.18887l-0.12222,-0.13968l1.98997,-1.74123c0.48502,-0.42888 1.12257,-0.68919 1.82091,-0.68919c1.51878,0 2.75,1.23122 2.75,2.75c0,0.22552 -0.02715,0.44471 -0.07835,0.65446l-0.98713,4.4421l-0.01745,-0.00388c-0.0032,0.03879 -0.00655,0.07757 -0.01004,0.11636c-0.1579,1.75282 -2.84931,7.97317 -3.32481,9.23685c-0.02009,0.05338 -0.03999,0.10677 -0.0597,0.16017zM219.04029,110.11741c0.22882,-0.16279 0.35326,-0.43092 0.42086,-0.74814c-0.13672,0.24902 -0.27707,0.49832 -0.42086,0.74814zM228.72529,101.76541c-0.11225,-0.6 -0.45941,-0.98322 -1.16217,-0.9932c0.30328,0.39766 0.71491,0.71 1.16217,0.9932z" fill-opacity="0.09804" fill="#e3a3e3"></path><path d="M243.40776,52.33174c-2.38767,1.36438 -3.75205,-1.02329 -3.75205,-1.02329l-1.19676,-2.17459c-0.61192,-1.69141 -1.31808,-3.35254 -2.12524,-4.95996c0,0 -1.22984,-2.45967 1.22984,-3.68951c2.45967,-1.22984 3.68951,1.22984 3.68951,1.22984c0.89578,1.79845 1.68535,3.65283 2.37476,5.54004l0.80324,1.32541c0,0 1.36438,2.38767 -1.02329,3.75205z" fill-opacity="0.09804" fill="#e3a3e3"></path><path d="M290.46267,160.14622c1.39441,1.9158 1.97446,4.08285 -0.08235,6.49742c-0.17173,0.2016 -0.3586,0.38443 -0.55783,0.55192l0.0479,0.05388l-2.2412,1.99218c-0.48682,0.43677 -1.13028,0.70245 -1.8358,0.70245c-1.51878,0 -2.75,-1.23122 -2.75,-2.75v-2.3132c-0.36739,-1.99339 -0.58905,-3.61259 -0.51152,-5.2957c-0.6532,-1.13624 -1.14532,-2.36404 -1.73645,-3.53557l0.85923,-1.04991l-0.57093,-0.28547l1.22336,-2.44671c0.44095,-0.93018 1.38851,-1.57345 2.48632,-1.57345c1.35177,0 2.47573,0.97532 2.70659,2.26064l0.36929,1.84644c1.03905,1.08012 0.55815,2.68313 0.55815,2.68313c-0.0338,0.10359 -0.06554,0.2056 -0.09528,0.30614c0.03149,0.03039 0.06298,0.06087 0.09444,0.09142l0.4837,-0.95075c0,0 2.23563,0.99361 1.55241,3.21513z" fill-opacity="0.09804" fill="#e3a3e3"></path><path d="M287.12537,102.65157l-1.63745,2.48705c-0.89289,0.84423 -1.80031,1.50265 -2.72744,2.01589l-0.59748,0.39845c0,0 -0.14743,0.04914 -0.38388,0.08902c-3.38703,1.49842 -7.05229,1.3021 -11.23575,1.3021c-2.84189,0 -6.70334,0.48127 -9.52005,-0.04962c-5.22759,-0.98529 -9.91626,-3.91783 -13.15067,-8.01204c0,0 -0.75921,-0.97613 -0.60483,-2.12835c-0.40987,-0.37863 -0.80074,-0.75242 -1.16899,-1.11544c0,0 -1.94454,-1.94454 0,-3.88909c1.94454,-1.94454 3.88909,0 3.88909,0c2.1567,2.19668 5.89049,5.43047 8.90588,6.32934c0.97155,0.28961 2.03826,0.17931 3,0.5c1.08719,0.36253 2.00483,1.13121 3.0802,1.52745c5.09993,1.87919 11.70603,1.38397 15.75849,-2.23184l0.11634,-0.12496c0,0 0.03905,-0.03905 0.11162,-0.10055c0.04812,-0.25392 0.09025,-0.50896 0.12761,-0.765c-0.04469,-0.26348 -0.04469,-0.43991 -0.04469,-0.43991v-2c0.01862,-1.50143 -0.18363,-3.02739 -0.63402,-4.45979c0,0 -0.79021,-2.63402 1.84382,-3.42423c1.58293,-0.47488 2.49998,0.2869 2.97979,0.97048c2.52602,0.60779 2.00701,3.20286 2.00701,3.20286c-0.37567,1.82259 -0.52126,3.56384 -0.6966,5.26922v0.44146c0,0 0,0.23547 -0.0689,0.56861c2.01157,1.46181 0.6509,3.63889 0.6509,3.63889z" fill="#8f428f"></path><path d="M277.82547,106.09146c-0.28298,-0.22638 -0.49884,-0.46023 -0.66035,-0.69563c-9.75722,3.37307 -22.59734,0.2366 -30.56412,-6.03419c-0.18273,-0.14383 -4.84628,-4.81714 -5.00216,-4.97302c0,0 -1.94454,-1.94454 0,-3.88909c1.94454,-1.94454 3.88909,0 3.88909,0c1.50414,1.50414 2.83069,3.20581 4.49784,4.52698c6.7469,5.34673 18.70492,8.34866 26.66966,4.66406l2.38796,-0.24649c0,0 0.27818,0 0.65759,0.08848c0.43586,-0.47944 0.87171,-0.95888 1.30757,-1.43833c0,0 1.84985,-2.03484 3.88469,-0.18499c2.03484,1.84985 0.18499,3.88469 0.18499,3.88469c-0.83333,0.91667 -1.66667,1.83333 -2.5,2.75l-0.88745,1.11806c0,0 -1.71791,2.14739 -3.8653,0.42948z" fill="#783778"></path><path d="M271.60036,64.27806c0.15927,0.44325 0.27778,0.91319 0.37408,1.50107c0.30237,0.00619 0.64494,-0.12383 0.83235,0.13863c0.18133,0.25394 0.70481,3.05714 0.60214,3.58112c-0.52538,2.68127 -2.86574,3.60132 -4.15244,0.78415c-0.77172,-1.68964 -0.7461,-5.51613 -0.66096,-7.36283c0,0 0.06169,-1.24057 1.08778,-1.11012c0.08127,0.01034 0.15572,0.02762 0.22391,0.05072c0.11543,-0.07778 0.24646,-0.12845 0.38827,-0.14452c0.56238,-0.06373 1.08128,0.44069 1.15901,1.12666l0.14075,1.24205c0.00665,0.06111 0.00776,0.12588 0.00509,0.19305zM271.57048,68.62247c-0.19351,0.05338 -0.36225,0.03242 -0.50637,-0.02862c0.05152,0.56964 0.13304,1.31265 0.23154,0.97199c0.07703,-0.26637 0.20268,-0.61354 0.27482,-0.94337z" fill="#30152f"></path><path d="M287.29338,65.85c-1.25,0 -1.25,-1.25 -1.25,-1.25c0,-0.41667 0,-1.58333 0,-2c0,0 0,-1.25 1.25,-1.25c1.25,0 1.25,1.25 1.25,1.25c0,0.41667 0,0.83333 0,1.25v0.75c0,0 0,1.25 -1.25,1.25z" fill="#30152f"></path><path d="M278.11759,92.35465c-0.20746,0.09516 -0.41998,0.19716 -0.63857,0.30655c0,0 -1.11803,0.55902 -1.67705,-0.55902c-0.55902,-1.11803 0.55902,-1.67705 0.55902,-1.67705c0.05318,-0.02657 0.10608,-0.05283 0.15872,-0.07878c0.30888,-0.38378 0.81198,-0.44256 0.95883,-0.45156c0.37487,-0.1674 0.73858,-0.31811 1.09604,-0.45292c0.06296,-0.14366 0.15216,-0.27321 0.26154,-0.38259l1,-1l0.1734,0.1734c0.67958,-0.77183 1.45446,-0.93952 3.31048,-0.93952c0.62875,0 1.46926,0.05232 2.25119,0.24667l1.2874,0.16093c0.62514,0.06895 1.11141,0.59889 1.11141,1.2424c0,0.24281 -0.06923,0.46945 -0.18903,0.66126c0.01449,0.4702 -0.12621,1.0336 -0.47571,1.708c-0.3732,0.72011 -1.58065,0.37855 -2.38526,0.48073c-2.22017,0.28197 -4.22454,-0.2015 -6.40472,0.53585z" fill="#e5c1e4"></path><path d="M248.17383,90.14808c-0.51712,-0.29523 -1.03528,-0.58103 -1.55666,-0.8411c-0.75209,0.89825 -2.05755,1.53379 -2.70284,1.41853c-0.89607,-0.16005 -1.16598,-1.24527 -1.23628,-2.29156c-0.00298,-0.00449 -0.00594,-0.009 -0.00887,-0.01353l-0.78925,-1.18387l0.07448,-0.04965c-0.103,-0.1329 -0.19304,-0.27537 -0.26607,-0.43038c-0.29582,-0.62788 0.28895,-1.35821 0.40291,-2.04286c0.20348,-1.22239 0.54714,-4.67552 2.33587,-5.16448c0.27388,-0.4284 0.61002,-0.73102 1.05261,-0.65534c0.7115,0.12165 1.22589,0.50083 1.61928,1.02512l0.80683,0.02894c0.30091,0.93701 0.35315,1.86625 0.365,2.79531c0.29188,1.02053 0.5596,2.00718 1.02995,2.62505c1.10468,1.45114 2.72274,2.24785 4.14513,3.24096c0.70149,0.48978 2.01566,0.8487 1.92358,1.69929c-0.01676,0.15479 -0.04097,0.29973 -0.07209,0.4353c0.63372,0.06576 1.24639,0.01699 1.82729,-0.18647c0,0 1.18585,-0.39528 1.58114,0.79057c0.39528,1.18585 -0.79057,1.58114 -0.79057,1.58114c-1.80271,0.57892 -3.49063,0.30592 -5.12754,-0.33766c-0.02243,0.0012 -0.04502,0.0018 -0.06775,0.0018c-0.23866,0 -0.4617,-0.06688 -0.65139,-0.18293c-1.20289,-0.21083 -2.41312,-0.77983 -3.01812,-1.16905c-0.27913,-0.38359 -0.57815,-0.74149 -0.87665,-1.09311z" fill="#ba99b9"></path><path d="M251.95679,75.60269c0.41933,0.39637 0.79946,0.93421 1.11958,1.6341c0.57256,1.25183 0.81183,2.48306 0.79663,3.68299c0.14138,0.3848 0.29437,0.76609 0.47257,1.13998c1.73189,3.63382 5.96915,6.22502 9.92921,6.90606c2.05205,-0.13947 3.89228,-0.23739 5.97388,0.76847l1.10186,0.27508c0.75581,0.5217 1.74187,0.62516 2.52117,1.11105c0.48469,0.30221 0.80013,0.81734 1.16309,1.25838c0.13839,0.16815 0.21956,0.55687 0.34751,0.71096l0.28756,-0.57512c0.20043,-0.42281 0.63114,-0.7152 1.13014,-0.7152c0.35243,0 0.67079,0.14585 0.89802,0.38048c0.89129,-0.2172 1.78418,-0.4279 2.67805,-0.63419c0,0 1.21799,-0.28107 1.49906,0.93691c0.06249,0.2708 0.05088,0.49529 -0.00497,0.68068c0.05944,0.28336 0.01997,0.52018 0.01997,0.52018l-0.12585,0.65164c0,1.57221 -0.04216,2.76694 -0.42221,4.2771c-0.01946,0.37117 -0.19535,0.62193 -0.39513,0.78843c-0.18214,0.19024 -0.4488,0.35009 -0.82799,0.33963l-0.32035,0.0553c-5.04335,1.8334 -9.29099,2.112 -14.62741,2.05912c-2.25021,-0.73397 -4.63216,-0.46834 -6.88297,-1.18239c-1.98531,-0.62983 -3.33115,-1.96967 -5.09968,-2.96122c-3.83151,-2.14818 -7.75128,-4.91904 -10.93089,-8.01173c-0.25457,-0.15436 -0.3944,-0.38868 -0.47121,-0.59952c-0.12185,-0.2615 -0.19748,-0.6241 0.00626,-1.01009l0.03211,-0.17078c1.29765,-2.59529 1.7014,-5.15821 2.45305,-7.94333c0.03645,-0.27827 0.14293,-0.48161 0.27908,-0.63019c0.14079,-0.78996 0.39461,-1.58622 0.71812,-2.34656l-0.36598,-1.09794c-0.04749,-0.1321 -0.07337,-0.27451 -0.07337,-0.42297c0,-0.69036 0.55964,-1.25 1.25,-1.25c0.06427,0 0.12741,0.00485 0.18907,0.01421c-0.49924,-0.73083 -0.18678,-1.84598 2.41074,-2.2996c1.68398,-0.29408 2.64635,1.61535 3.27126,3.66007z" fill="#997a99"></path><path d="M265.65714,87.37087c0.69036,0 1.25,0.55964 1.25,1.25c0,0.69036 -0.55964,1.25 -1.25,1.25c-0.2059,0 -0.40017,-0.04978 -0.57143,-0.13796c-0.17126,0.08818 -0.36553,0.13796 -0.57143,0.13796c-0.19871,0 -0.38659,-0.04637 -0.55341,-0.12887l-1.05131,0.35044l-0.02199,-0.06597l-0.17307,0.11398c-7.13696,0.04203 -10.23536,-6.00199 -11.36884,-12.23847c-0.10712,-0.14866 -0.21017,-0.30126 -0.30875,-0.45814c-0.71388,-1.13613 -0.615,-2.18543 -1.04023,-3.03672c-0.10146,0.02261 -0.21423,0.03518 -0.33956,0.03518c-1.25,0 -1.25,-1.25 -1.25,-1.25l1.9125,-1.91714c0.46749,0.31051 0.81841,0.63749 1.09218,0.97683c0.15715,-0.0906 0.3571,-0.15256 0.61147,-0.16528c1.24844,-0.06242 1.31086,1.18602 1.31086,1.18602c0.05149,1.03156 0.14719,2.15891 0.31116,3.31404c0.19929,0.13564 0.35732,0.32738 0.45139,0.5525l0.13492,0.30358c3.01348,3.08351 6.38964,5.57017 9.04741,8.79913c0.11701,0.06388 0.23557,0.12695 0.35575,0.18918l0.14891,-0.1638l1.34328,1.22117c0.16095,-0.07549 0.34063,-0.11767 0.53016,-0.11767z" fill="#be9abd"></path><path d="M194.9244,15.31134c0.30621,-0.29234 0.62314,-0.5813 0.94788,-0.85279c-0.20894,0.13155 -0.42329,0.26174 -0.57839,0.43443c-0.12255,0.13646 -0.24581,0.27604 -0.36949,0.41836zM196.39928,14.04031c0.76505,-0.57288 1.56316,-1.01319 2.35855,-1.14884c0.04461,-0.00761 0.08926,-0.01452 0.13396,-0.02079l-0.00661,-0.02315l1.97224,-0.5635c0.11726,-0.03641 0.24192,-0.05603 0.37116,-0.05603c0.1659,0 0.32425,0.03232 0.4691,0.091c0.13838,-0.04755 0.28221,-0.07301 0.43347,-0.06769c0.15419,0.00542 0.3047,0.02676 0.45229,0.06072l0.01161,-0.06388l1.54998,0.28182c0.59422,0.09663 1.04784,0.61221 1.04784,1.23374c0,0.51967 -0.31712,0.96528 -0.7684,1.15385l-1.25964,0.55984l-0.00869,-0.01954l-0.04698,0.04269c-0.40017,0.13061 -0.80034,0.26122 -1.2005,0.39183c-5.07663,3.26896 -9.46071,8.06802 -12.76284,13.10512c-2.34371,3.57511 -2.27565,10.69739 -6.41046,12.87575c-0.03662,0.01929 -0.07347,0.03803 -0.11054,0.05624l0.01143,0.01714l-0.76215,0.5081c-0.13981,0.15602 -0.31825,0.2767 -0.52028,0.347c-0.19906,0.13386 -0.43874,0.21198 -0.69666,0.21198c-0.65448,0 -1.19148,-0.50299 -1.24553,-1.14349c-0.01334,0.00042 -0.02674,0.00063 -0.04019,0.00063c-0.69036,0 -1.25,-0.55964 -1.25,-1.25c0,-0.09286 0.01013,-0.18336 0.02934,-0.27046l0.28065,-1.40326l0.03056,0.00611l-0.01296,-0.0818c0.35029,-1.04919 0.80728,-2.00773 1.29077,-2.95451c0.38269,-1.47619 0.94791,-3.01981 1.12422,-3.84628c0.95221,-4.46348 2.96528,-8.63947 5.71853,-12.28491c1.583,-2.42879 3.43937,-4.71887 5.33357,-6.62021c0,0 0.70896,-0.70896 1.49193,-0.22205c0.08949,-0.06826 0.1793,-0.13609 0.26941,-0.20349c0.40182,-0.44507 0.85232,-0.80099 1.37733,-0.9807c0.02557,-0.01732 0.05116,-0.0346 0.07678,-0.05185l0.02763,0.01802c0.00503,-0.00154 0.01007,-0.00307 0.01511,-0.00459l-0.01742,-0.02904l1.41095,-0.84657c0.1917,-0.1196 0.41815,-0.1887 0.66074,-0.1887c0.69036,0 1.25,0.55964 1.25,1.25c0,0.46331 -0.25206,0.86774 -0.62653,1.08365l-1.31137,0.78682c-0.02987,0.099 -0.07893,0.18544 -0.1414,0.26325z" fill-opacity="0.98431" fill="#783678"></path></g></g></svg>