<svg version="1.1" xmlns="http://www.w3.org/2000/svg" xmlns:xlink="http://www.w3.org/1999/xlink" width="67.78122" height="84.00646" viewBox="0,0,67.78122,84.00646"><g transform="translate(-221.31792,-137.83483)"><g stroke-miterlimit="10"><path d="M240,142.60389h48.09915v74.79224h-48.09915" fill="none" stroke="#834fea" stroke-width="2" stroke-linecap="butt"></path><path d="M240.62,217.58001c0,0.5 -0.5,0.5 -0.5,0.5c-0.46667,0 -1.13333,0 -1.6,0c-1.08119,0 -2.62332,-0.26165 -3.06194,-1.50866c-0.0405,-0.11513 0.07587,-2.47779 0.06784,-2.48364c-1.87113,-1.3612 -5.82877,1.45611 -5.90581,-2.50331c-0.00008,-0.00287 -0.00008,-0.00439 -0.00008,-0.00439l0.00646,-0.88009c0.68252,-2.10911 0.43609,-3.83836 3.21345,-3.81345c1.31643,-0.44493 1.82114,-2.62274 0.58774,-3.50084c-1.02233,-0.72783 -2.48925,-0.19327 -2.99427,-2.09074c-0.39209,-1.47316 1.35181,-2.48185 2.18662,-3.48825v-0.22663c0,-0.75963 0.35736,-2.35243 -0.21699,-2.81333c-2.67667,-1.77184 -5.93529,-0.06868 -8.88528,-1.32941c-3.50786,-1.49914 -2.48514,-4.89114 0.71227,-5.74902c2.6879,-0.53756 4.05789,-1.40824 6.89,-1.40824c0.38094,0 2.78635,0.23185 2.89229,0.1059c0.21512,-0.25573 0.20342,-1.20051 0.41321,-1.72569l0.02015,-0.43832c0.38486,-1.11111 0.28811,-3.63925 -0.97684,-4.20273c-0.35939,-0.16009 -0.85621,-0.04505 -1.13549,-0.32217c-0.52455,-0.5205 0.12925,-1.74781 -0.4,-2.4c-0.6286,-0.77463 -2.57631,-1.15158 -3.52104,-1.72289c-1.21733,-1.2267 -1.90964,-5.19326 0.36281,-5.87265c2.77979,-0.83107 5.24489,0.78209 5.24489,-3.32145c0.01615,-1.30089 -0.81828,-1.76565 -1.69976,-2.49814c-3.07934,-2.55883 -7.27576,-5.19814 -4.58691,-9.41886c1.96927,-1.98492 3.57162,-1.41171 5.64695,-2.64987c0.14374,-0.08576 0.06991,-1.21576 0.04618,-1.35305c-0.30545,-1.76722 -1.33938,-2.66307 -2.39724,-4.0366l-0.46277,-0.08994c-0.16946,-0.1874 -0.33892,-0.37481 -0.50839,-0.56221c-0.26115,-5.42983 7.70413,-3.89134 11.26194,-3.89134c0,0 0.5,0 0.5,0.5c0,0.5 -0.5,0.5 -0.5,0.5c-2.86791,0 -9.96659,-1.47987 -10.33806,2.50866c0.0503,0.04102 0.1006,0.08203 0.1509,0.12305c0.16567,-0.07658 0.30852,-0.0396 0.41183,0.01895c0.08799,0.03842 0.18021,0.10598 0.23245,0.22478c1.01867,1.33084 4.30046,4.95187 2.2826,6.79142c-1.09619,0.99933 -3.02754,0.27972 -4.07686,1.05846c-0.52783,0.39173 -1.00316,1.02307 -1.47619,1.49167c-3.63253,5.04455 6.46893,6.60631 6.51333,11.28301c0,1.75577 -0.53223,3.90155 -2.61991,4.29354c-1.049,0.19697 -2.31464,-0.28514 -3.3352,-0.015c-1.35545,0.35879 -0.72427,3.44899 -0.03719,4.12735c1.07957,0.6421 2.92236,0.92367 3.67896,1.87711c0.50415,0.63531 -0.32667,2.03982 0.4,2.4c2.07018,1.02609 3.10474,2.94779 2.28767,5.47511l0.0074,0.06978c0.04216,0.11684 0.02373,0.23214 -0.00419,0.3167c-0.01871,0.06787 -0.05302,0.14843 -0.11593,0.21568c-0.37045,0.62254 -0.09973,1.50417 -0.65392,2.03383c-1.2976,1.24019 -5.329,-0.9121 -6.67178,0.04673c-1.13338,0.80931 -1.99085,1.1399 -3.50709,1.44316c-2.45297,0.54339 -3.02234,2.78547 -0.52656,3.85875c3.07829,1.32377 6.20427,-0.48219 9.11472,1.47059c0.89648,0.97936 0.58301,2.30633 0.58301,3.58667v0.29303c0.01956,0.09899 0.00035,0.19251 -0.02628,0.26488c-0.02418,0.08075 -0.07062,0.17641 -0.15978,0.24601c-0.56465,0.63338 -2.2845,1.88081 -2.02731,2.68121c0.49925,1.55375 1.71288,0.82958 2.60573,1.50926c1.99169,1.51615 1.07589,4.60916 -1.01226,5.29916c-2.29414,0.01683 -1.74228,1.12024 -2.38655,2.98655l0.00645,0.71888c0.00001,0.00068 0.00001,0.00103 0.00001,0.00103c0,0 0,0.00272 -0.0002,0.00776c-0.06205,2.56959 4.3789,0.43325 5.6943,1.88453c1.33858,1.47686 -1.08722,3.60771 2.2059,3.60771c0.46667,0 0.93333,0 1.4,0h0.2c0,0 0.5,0 0.5,0.5z" fill-opacity="0.33333" fill="#cbadff" stroke="none" stroke-width="0.5" stroke-linecap="butt"></path><g fill="none" stroke="#834fea" stroke-width="2" stroke-linecap="round"><path d="M236.78551,138.83484l3.44517,3.44517"></path><path d="M236.55483,220.84129l3.44517,-3.44516"></path></g></g></g></svg>