<svg version="1.1" xmlns="http://www.w3.org/2000/svg" xmlns:xlink="http://www.w3.org/1999/xlink" width="125.50793" height="273.47728" viewBox="0,0,125.50793,273.47728"><g transform="translate(-182.43446,-29.1088)"><g stroke="none" stroke-width="0.5" stroke-miterlimit="10"><g><path d="M267.43584,46.24823l-1.07364,-2.21295c-0.23077,-3.05539 0.03304,-4.62713 1.16429,-5.8374c0.35417,-1.98966 0.60957,-3.93921 1.20066,-5.9385c0,0 0.65518,-2.18395 2.83912,-1.52877c1.1271,0.33812 1.49802,1.08342 1.59307,1.72556c0.14536,0.17183 0.26573,0.36545 0.35555,0.57528l1.24535,2.73976l-0.06996,0.03179c0.06632,0.1006 0.13059,0.20272 0.19254,0.30653c1.40812,2.35903 0.06441,6.90823 -0.55713,9.22407l-0.12843,0.13233l0.06414,0.02851l-0.99224,2.23253c-0.34398,0.82318 -1.1568,1.40163 -2.10472,1.40163c-1.08251,0 -1.98884,-0.75438 -2.22193,-1.76609c-0.96336,-0.20882 -1.50666,-1.11431 -1.50666,-1.11431z" fill="#ad4eac"></path><path d="M205.6174,255.85806c0,0 -0.60834,-1.01337 0.51881,-1.77341c0.25295,-0.17056 0.47978,-0.25182 0.67946,-0.27525c0.19357,-0.08925 0.40462,-0.14842 0.62146,-0.19766c0.02085,-0.09627 0.04669,-0.19205 0.07958,-0.28713c0.05936,-0.17162 0.59817,-0.35439 0.42655,-0.37102c-0.90747,-0.08784 -1.81828,-0.27791 -2.58305,-0.69224c0.02291,-0.4403 0.00782,-3.95927 0.81075,-4.39267c0.36246,-0.19565 0.75784,-0.30265 1.16034,-0.34217c0.31244,-0.35065 0.76509,-0.66365 1.38284,-0.90849c0.65244,-0.25859 1.20033,-0.32153 1.64544,-0.24355c0.22911,-1.26195 0.35087,-2.53613 0.54325,-3.79484c0.5176,-1.63612 0.6069,-3.62329 1.37051,-5.18355c0.88803,-1.81446 3.14039,-2.87959 4.30587,-4.48346c1.38083,-1.90024 2.2024,-3.4011 4.72227,-3.88628c4.00916,-0.77195 8.67219,-0.02285 12.65687,-0.02285c0,0 0.53965,0 0.86177,0.35223c0.1714,0.18741 0.28119,0.47457 0.21534,0.9145v0l-0.22759,1.52046c-0.55564,3.67859 -0.94537,8.36804 -2.04676,12.46683c0.27123,0.52691 -0.08621,1.17716 -0.08621,1.17716c-0.30448,0.55341 -0.59478,1.14758 -0.88555,1.75768c-0.16552,0.4056 -0.34219,0.79934 -0.53118,1.17909c-0.0811,0.16298 -0.16329,0.31208 -0.24653,0.44984c-0.67183,1.37311 -1.40913,2.71754 -2.37141,3.76281c-1.47307,1.60009 -3.56851,2.3387 -5.32662,3.5273l-0.56357,0.38001c-1.19458,7.98036 -2.38916,15.96073 -3.58373,23.94109c-0.30157,2.01466 -0.60315,4.02931 -0.90473,6.04399c0.20034,-0.12931 0.45913,-0.21706 0.79252,-0.21706c1.26673,0 1.07711,1.26673 1.07711,1.26673c-0.11969,0.79961 -0.2076,1.59038 -0.27929,2.3765c-0.0086,0.10282 -0.01731,0.2068 -0.02624,0.3116c0.00603,0.01301 0.01169,0.02599 0.01695,0.03889c0.12321,0.30215 -0.02546,0.67422 -0.10357,1.03306c-0.01131,0.15244 -0.02234,0.3048 -0.03322,0.4571c0.00024,0.00164 0.0005,0.00329 0.00075,0.00493c0.28497,1.82428 1.79246,4.38962 -0.55508,5.70773l-0.06846,0.45734c0,0 -0.18961,1.26672 -1.45634,1.26672c-0.74644,0 -0.98719,-0.43985 -1.05902,-0.80117c-0.0054,0.00385 -0.01082,0.00765 -0.01624,0.01141c-0.23396,0.19074 -0.5562,0.32846 -0.98787,0.27918c-3.32368,0.60912 -6.77475,0.25724 -10.0595,0.25724c-0.9869,0 -2.23185,0.13807 -3.40168,0.16154c-0.06549,0.13898 -0.15113,0.26947 -0.26121,0.38821c-1.51284,1.63192 -4.0264,-0.16937 -4.61627,-1.04757c-0.98865,-1.4719 -0.26452,-3.66501 0.30818,-5.32418l0.43492,-1.24371c0.1678,-0.50955 0.62448,-0.91334 1.14546,-1.01597c0.11543,-0.77114 0.2512,-1.67811 0.3451,-2.30544l0.03792,-0.25335c0.32962,-2.20201 0.9041,-4.34047 1.24815,-6.53653c0.76734,-1.58864 0.55395,-2.85404 1.18211,-4.39499c2.68664,-6.59077 3.32439,-13.74961 4.92656,-20.65872z" fill="#e5c1e4"></path><path d="M257.8001,248.46382c0.2869,-0.84437 0.68456,-1.80958 0.82839,-2.32085c0.69955,-2.48665 0.44021,-5.09828 1.27154,-7.63104c0.96156,-4.80635 2.89727,-6.79561 7.28498,-8.63807c0.81957,-0.34416 1.80886,-0.01099 2.64992,-0.29867c2.39562,-0.81942 4.6669,-3.0576 7.23953,-3.58596c2.0636,-0.42381 7.29919,-0.75551 8.48134,1.4344c0.54277,1.00549 0.13374,3.67581 0.13374,4.87336c-0.00281,0.63627 -0.04554,1.28012 -0.12118,1.9276c0.29757,0.55212 -0.01254,1.17235 -0.01254,1.17235c-0.07868,0.15726 -0.16074,0.31554 -0.24556,0.47478c-0.57855,2.9814 -1.72382,5.96806 -2.76298,8.57747c-1.07627,2.7026 -1.93085,5.1037 -3.43501,7.3866c-1.37434,3.2658 -3.33548,6.14084 -6.39012,7.25219c0.66407,3.09316 1.68268,6.23547 2.5343,9.09919c0.4043,1.35952 0.30578,3.04252 0.5363,4.44209c0.30578,1.85646 1.0802,3.71285 1.86759,5.51947c0.48201,0.84913 1.03314,1.68505 1.68361,2.52139c0.40464,0.52029 1.45892,2.71163 1.90283,2.96695c0.37617,0.21636 2.1084,0.0037 3.18919,-0.10683c0.00384,-0.00758 0.00768,-0.01517 0.01151,-0.02277c0.01552,0.00561 0.03105,0.01123 0.04657,0.01686c0.30081,-0.03037 0.54586,-0.05168 0.68883,-0.05168c0,0 1.07053,-0.00001 1.24331,0.98413c0.27829,0.20903 0.50337,0.44803 0.64971,0.72948c1.17339,2.25665 -0.04926,6.53237 -0.90947,8.73678c-0.07649,0.38016 -0.28978,0.60821 -0.51816,0.74502c-0.21112,0.16069 -0.50083,0.27381 -0.88029,0.20512c-5.95991,0 -12.89726,0 -18.83931,0c-0.43993,0 -0.72707,-0.15279 -0.91449,-0.35223c-0.19944,-0.18741 -0.35223,-0.47457 -0.35223,-0.9145c0,-0.04672 0.00173,-0.09172 0.00505,-0.13506l0.01219,-0.32653c0.17262,-1.01688 0.23877,-2.05382 0.23611,-3.08524c0,0 0.00001,-0.088 0.0232,-0.21762c-1.13886,-1.68174 -1.80636,-3.58853 -2.28297,-5.88998c-0.04087,-0.19732 -0.04786,-0.39877 -0.03739,-0.60218c-0.35801,-0.74224 -0.68358,-1.49123 -0.93131,-2.2634c-0.82896,-2.58388 -1.06284,-6.04002 -1.07764,-8.77471c-0.5809,-1.11244 -1.25467,-2.16647 -1.67774,-3.30166c-0.74919,-2.01022 -0.88672,-3.30084 -2.47998,-4.95394c-0.36073,-1.54308 -0.61024,-2.42722 -0.49539,-3.33598l-1.46347,-0.35173c0.28111,-0.654 0.33544,-1.53546 0.5759,-2.23023h-0.03366v-0.13019c-0.4188,0.0811 -0.84126,0.13019 -1.26672,0.13019l-0.6263,-2.84661c0,0 0.00682,-0.01363 0.02045,-0.03716c-1.19379,-1.41356 -2.46488,-2.82697 0.03935,-4.32951c0.55061,-0.33036 1.24992,-0.1779 1.91459,-0.13786c0.06343,-0.41838 0.19812,-0.86534 0.19657,-1.25767l1.18232,-1.13792c0,0 0.72497,-0.36249 1.30503,0.07238z" fill="#e5c1e4"></path><path d="M211.23737,150.50963c0.68039,-2.11144 1.90066,-4.07056 2.49807,-6.21636c1.73926,-6.24721 2.21513,-12.42531 5.06123,-18.3224l0.19004,-1.31899c0.34915,-3.47517 0.52463,-7.43742 1.82987,-10.71205c0.5593,-1.40316 0.47954,-3.61256 1.90524,-4.1116c1.54971,-0.54245 3.55921,1.13786 5.04295,2.59967c0.55698,-0.3423 1.11396,-0.6846 1.67094,-1.0269c1.81514,-0.55308 3.48377,-1.51904 5.28606,-2.11263c0.54837,-0.1806 5.59486,-1.00712 6.18718,-1.10166c9.87734,-1.57648 22.91191,-2.10753 31.39421,4.24573c2.83942,2.12674 4.54217,5.86145 6.22893,8.95073c0.22043,0.29715 0.34088,0.6269 0.40671,0.89854c0.07514,0.2722 0.13035,0.62332 0.07932,0.99432v1.60272c-0.28007,2.27131 1.75726,2.91225 2.80948,5.08096c1.29799,2.67526 2.18414,5.54358 2.72733,8.44513c1.59123,8.75942 4.8258,17.09743 6.58028,25.806c0.5257,2.60936 1.20569,4.58155 1.96902,7.11834c0.69838,2.32089 0.07414,2.6494 1.26882,4.52085c1.25248,1.96198 3.42227,3.5674 5.14738,5.0754c0,0 1.64938,1.44322 0.29906,3.11682c2.13937,4.58727 5.22691,8.46503 6.48852,13.48729c1.94545,7.74451 1.5914,15.43529 1.5914,23.36692v0.25334c0,0 -0.00001,0.38284 -0.15687,0.83477c0.61716,1.24511 -0.39204,2.42251 -0.39204,2.42251l-1.43378,1.66637c-0.83441,1.2516 -2.39049,3.84149 -3.68452,4.63186c-0.68586,0.41892 -4.09227,0.94713 -5.09505,1.24716c-2.57308,0.76986 -4.95521,2.39602 -7.62004,2.84851c-3.40675,0.57847 -6.74649,-0.31814 -10.04455,-1.03871c-2.25175,2.01577 -4.36727,4.07368 -6.73619,5.96841c-6.05588,3.78791 -12.57178,8.34342 -19.63901,9.75336c-2.96393,0.59132 -5.75885,2.3399 -8.90943,1.47208c-2.08849,-0.57528 -3.28353,-2.19327 -4.74092,-3.57777c-3.10964,-2.95415 -5.23548,-6.53318 -6.77776,-10.47409c-1.77864,1.18043 -4.10218,1.95023 -5.80475,3.09131c-0.80309,0.53824 -1.37493,1.45934 -2.28454,1.78687c-1.17882,0.42447 -3.74362,-0.01777 -5.10249,0.12801c-1.25998,0.13518 -3.08376,0.82466 -4.22377,1.20395l-0.15042,-0.0297l0.01236,0.0618l-2.48728,0.49746c-0.15886,0.03504 -0.32394,0.05352 -0.49334,0.05352c-0.68733,0 -1.30362,-0.30413 -1.72166,-0.78514c-1.25488,0.18753 -2.53668,0.28718 -3.85193,0.27845c-2.66896,-0.01771 -4.30028,0.27282 -6.75481,-1.52124c-0.24376,-0.17816 -1.20707,-1.67818 -2.05177,-3.05387l-0.00999,-0.01166c-0.16935,-0.1952 -0.30608,-0.41946 -0.40172,-0.66431c-0.49727,-0.8231 -0.88941,-1.49741 -0.96025,-1.64988c-0.53956,-1.16122 -0.8515,-2.23429 -1.02925,-3.37345l-0.32836,-0.14194l-2.14292,-0.23811l0.07296,-0.6567l-0.65795,-0.28442l-1.01796,0.00115c0.01337,-0.25672 0.03065,-0.50816 0.05172,-0.75484c-0.4931,-0.15462 -1.01205,-0.83573 -1.56668,-2.47702c-0.44276,-1.31022 0.35878,-2.74265 0.53817,-4.11397l0.42913,-0.27904l-0.1817,-0.13628l1.47239,-1.96321c-1.47297,-0.23599 -2.91757,-0.70959 -3.84027,-2.01324c-0.09492,-0.13412 -0.17059,-0.27607 -0.2305,-0.42429c-0.02404,-0.01814 -0.04171,-0.03341 -0.05248,-0.04555c-1.24275,-1.39959 -1.84984,-5.21527 -1.17842,-6.96542c0.37329,-0.97305 1.45742,-1.49639 2.0956,-2.32034c2.27276,-2.93439 4.3779,-6.49601 5.99211,-9.81951c1.07566,-2.2147 1.2205,-4.90019 1.99071,-7.2197c2.26516,-6.82162 3.11918,-14.23956 6.61415,-20.59748l0.41562,-1.97363c0,0 0.37479,-1.68653 1.93994,-1.79721c1.98565,-6.00724 3.51177,-12.11395 5.46843,-18.18606z" fill="#316a70"></path><path d="M294.50176,127.72519c0.38487,0.71312 0.73399,1.43834 0.9267,2.22019c0.05501,0.22319 0.10818,0.44638 0.15983,0.66957c1.44511,4.06705 2.57675,8.24167 3.38914,12.54646c1.6026,3.87336 3.33018,7.33512 3.34841,11.86539v2.53345c0,0.6426 -0.26583,1.22312 -0.69353,1.63757c0.28591,1.8411 0.19395,3.71635 -0.46148,5.48713c-0.0117,0.03162 -3.41669,4.3611 -3.56284,4.5683c-3.09616,4.38955 -9.36733,9.65348 -15.40892,6.88095c-1.89538,-0.86981 -3.40754,-2.25247 -4.65045,-3.8805c-0.01681,0.00037 -0.03367,0.00055 -0.05058,0.00055c-0.75545,0 -1.42511,-0.3674 -1.84001,-0.93327l-1.50414,-2.00553l0.12214,-0.09161l-0.31773,-0.21824c-0.0132,-0.0382 -0.02638,-0.07642 -0.03958,-0.11462c-0.38251,0.58788 -0.75869,1.02262 -1.08992,1.14949c-2.85639,1.09403 -4.35872,-0.12769 -5.53957,-1.80875c-0.40528,0.33707 -0.8121,0.67048 -1.21296,1.00571c-0.04035,1.06355 -0.13557,2.08492 -0.35119,2.7307c-1.1583,3.46897 -5.14076,5.86721 -7.99623,7.76109c-9.67266,6.41531 -22.9712,4.93894 -34.19327,4.93894c-4.27122,0 -8.23208,-0.73682 -12.28703,-2.03341c-0.25306,-0.02111 -0.84011,-0.10908 -1.33748,-0.47577c-0.79425,-0.01147 -1.57652,-0.02426 -2.33621,-0.02426c-0.92894,0 -1.85786,0 -2.7868,0h-0.47501c-0.2754,0.01899 -0.53024,-0.01139 -0.73066,-0.05191c-0.21548,-0.04261 -0.4844,-0.1202 -0.74936,-0.26148c-3.14804,-1.38936 -4.64968,-2.77157 -6.58929,-5.02577l-0.02717,-0.01728c-0.03558,-0.04553 -0.07062,-0.0912 -0.10514,-0.13703c-0.36646,-0.42882 -0.74988,-0.8888 -1.16385,-1.3857c-1.54737,-1.85727 -2.93987,-2.23205 -3.51389,-4.9628c-1.23897,-5.89403 0.50839,-12.60312 1.63722,-18.33608c0.47582,-2.41654 0.92036,-4.83992 1.35759,-7.26489c0.00211,-0.21817 0.00383,-0.44099 0.00568,-0.66757c-0.62968,-0.40579 -1.04664,-1.11319 -1.04664,-1.91799v-2.2801c-1.72458,-7.73257 4.34583,-13.79911 7.32584,-20.00332c0.42925,-0.89367 0.78959,-1.81683 1.12877,-2.74918c0.2806,-1.20725 0.62984,-2.37538 1.13817,-3.16811c0.07643,-0.20115 0.15442,-0.40165 0.23442,-0.60129l0.07686,-0.06751l-0.03625,-0.01812l1.24464,-2.48927c0.30944,-0.65275 0.91976,-1.13509 1.65186,-1.2679c1.60714,-3.25053 3.27806,-6.48071 4.97888,-9.71237c0,0 1.06195,-2.01771 3.07966,-0.95576c0.37578,0.19778 0.64473,0.4287 0.83362,0.67357c0.78158,0.28483 1.562,0.70488 2.2439,1.02869c2.1649,1.02801 3.6829,4.66743 5.35147,6.32889c1.93465,1.9264 3.68356,2.19153 4.98011,4.91043c0.88143,1.84839 0.72388,4.5418 0.72962,6.55692c0,0.76004 0,1.52007 0,2.28011v2.53345c0,0.36865 -0.08748,0.71687 -0.24283,1.02502c1.22372,1.96566 2.54194,3.85961 4.02121,5.62233c0,0 0.04846,0.05814 0.11712,0.16208c0.07339,0.10065 0.11094,0.16636 0.11094,0.16636l1.07308,1.88497c2.92226,6.2521 9.11903,5.54878 15.00056,5.37722c-0.16901,-0.15345 -0.32304,-0.32148 -0.45548,-0.51051c-0.97497,-1.39147 -2.48415,-3.07478 -1.97938,-4.69712c0.95723,-3.0766 4.32684,-1.39095 6.16063,-2.05658c0.68625,-0.24909 1.1893,-0.84706 1.78395,-1.27059c0,0 1.04474,-0.69649 2.10052,-0.28048c1.51547,-0.716 3.37427,-1.07593 5.30429,-1.16458l-0.04539,-0.45389c-0.0095,-0.08449 -0.01437,-0.17037 -0.01437,-0.2574c0,-1.25927 1.02084,-2.2801 2.28011,-2.2801c0.57125,0 1.09344,0.21007 1.49352,0.55719l1.76376,1.5118l-0.01107,0.01291c0.02554,0.01496 0.051,0.03008 0.07641,0.04532c0.62349,0.37405 0.87216,1.20814 1.45877,1.62732c0.52234,0.14072 1.0191,0.29735 1.48222,0.46736c1.85392,0.14671 4.17804,-0.7612 5.87003,-0.20465c1.60127,-4.81223 3.1717,-9.67893 4.97959,-14.42862c0.56536,-1.48532 0.71621,-3.18835 1.65315,-4.47208c0.29052,-0.39806 0.692,-0.67611 1.13287,-0.91156c0.19436,-0.58516 0.65861,-1.1941 1.72156,-1.3934c0.67366,-0.12631 1.18278,-0.01215 1.56542,0.20932c0.55276,0.06539 1.15462,0.3617 1.60798,1.17775c0.41657,0.74982 0.39435,1.37426 0.20452,1.86156c0.27529,0.32562 0.40474,0.62767 0.40474,0.62767l0.66598,1.57976c2.43536,4.54423 3.62797,9.50606 4.64769,14.53528c0.07417,0.18316 0.14768,0.36656 0.22054,0.55015zM270.62472,165.26986c0.14298,0.18677 0.27312,0.7854 0.39538,0.58447c0.56106,-0.92203 0.59133,-2.07299 0.90438,-3.11019v-0.56586c-0.00153,-0.01477 -0.00302,-0.02952 -0.00448,-0.04425c-0.07125,-0.71736 -0.25742,1.4629 -0.66397,2.05822c-0.22642,0.33155 -0.46945,0.64945 -0.72576,0.95615c0.03177,0.04026 0.06327,0.08074 0.09444,0.12146z" fill="#30152f"></path><path d="M188.99051,156.71326c1.83044,-4.49334 4.30589,-9.19517 5.98026,-13.9054c1.12323,-4.61963 1.96362,-9.27592 1.96362,-14.12893c0,0 0,-1.74386 1.52508,-2.18144c0.64701,-2.18447 1.38037,-4.37456 2.13876,-6.64662c1.16643,-3.49455 2.18531,-7.33415 4.40619,-10.29215c2.35957,-3.14273 5.34968,-5.39911 8.44116,-7.7066c-0.19365,-0.94715 -0.20418,-2.12 -0.07213,-3.30289c-0.24594,-0.38289 -0.4097,-0.80939 -0.45247,-1.28929c-0.18824,-2.1125 0.68016,-3.38873 2.10363,-3.69886c0.01731,-0.0218 0.0347,-0.04317 0.05219,-0.06411c0.5683,-0.6803 1.62666,-0.79555 2.43999,-1.19334l0.59865,-0.06755c4.94878,-2.73377 9.7805,-3.57562 15.41301,-4.50332c11.49849,-1.89386 23.48417,-1.09216 35.10255,-1.09216c1.78995,0 3.59476,0.04999 5.39625,0.04507c-0.3579,-0.30776 -0.58269,-0.75228 -0.58269,-1.2466c0,-0.7074 0.46036,-1.31282 1.1124,-1.5614l1.73585,-0.70565c0.91222,-0.62818 1.90193,-1.05416 2.80737,-0.82657c1.58336,0.398 2.71105,1.83981 3.46751,3.5343l0.52138,0.35324l-0.01848,0.02455c0.04488,0.01973 0.08955,0.03997 0.134,0.06076c2.20081,1.02911 3.07018,3.85851 4.52757,5.49863c0.5526,0.62188 1.47415,0.93149 1.91497,1.62908c0.94027,1.48798 0.76627,3.11854 0.77155,4.72924c0.00582,1.77303 -0.02912,3.49279 -0.21806,5.1758c0.34979,0.19404 0.56361,0.40786 0.56361,0.40786c6.38774,6.76805 2.09621,16.38869 -2.51857,22.91595c-0.57001,0.80623 -0.90034,1.81843 -1.65198,2.45871c-0.91738,0.78145 -1.9817,1.24289 -3.05456,1.70328c-3.05146,3.93041 -6.74059,7.37364 -11.19465,9.14392c-4.79322,3.81589 -11.31835,3.32848 -17.01448,2.13119c-5.43131,-1.14162 -11.2563,-2.31307 -16.50562,-4.17147c-4.29943,-1.52212 -7.89965,-4.50666 -11.79861,-6.6528c-0.31222,-0.10688 -0.55297,-0.30042 -0.72223,-0.47886c-0.22625,-0.21579 -0.47168,-0.54178 -0.51795,-0.96643c-0.79095,-0.75872 -1.60393,-1.61814 -2.40676,-2.54526c-0.49227,1.27043 -1.00996,2.52217 -1.61839,3.69652c-2.12836,4.10801 -4.67803,8.24704 -6.22504,12.67682c-3.23947,9.27604 -4.47432,18.51669 -5.45586,28.1851c-0.56847,2.5519 -0.29967,5.47251 -1.09246,7.93208c-0.95349,2.95809 -1.9175,4.60337 -2.18008,7.85661l0.00788,0.82404c0,0 0.00001,2.2801 -2.2801,2.2801c-0.76769,0 -1.27691,-0.25847 -1.61467,-0.60137c-1.32152,0.04527 -2.85331,-0.78277 -4.06323,-1.37695c-1.73817,-0.85359 -2.30699,-3.13943 -3.72621,-4.45687c-0.54812,-0.50881 -1.1204,-0.99266 -1.7028,-1.46452c-1.24108,-0.09432 -2.47794,-0.33457 -3.63485,-0.76465c-0.71448,-0.13907 -1.13314,-0.54516 -1.37846,-0.97333c-0.28383,-0.38742 -0.48187,-0.91639 -0.34191,-1.59837l0.00604,-0.39135c0.02331,-0.22955 0.0467,-0.45948 0.0702,-0.68974c-0.80012,-0.81724 -1.51849,-1.70341 -2.10114,-2.70836l-1.23881,-1.02262c-0.61793,-0.34913 -0.88866,-0.85017 -0.99184,-1.3235c-0.15253,-0.45152 -0.1798,-1.00949 0.15286,-1.61524c1.66395,-5.02935 3.02017,-10.13768 5.02061,-15.04831zM188.82373,172.17328c0.03691,-0.3172 0.0744,-0.63462 0.1125,-0.9522c-0.08663,0.27379 -0.1738,0.54743 -0.26169,0.82089z" fill="#ad4eac"></path><path d="M263.35887,95.06526c-0.75407,0.37264 -1.51897,0.72917 -2.15899,0.88623c-2.54055,0.62344 -6.08083,0.04597 -8.69852,0.04597c-2.10089,0 -4.76551,0.34686 -6.82651,-0.02285c-1.89486,-0.33992 -2.4998,-1.77331 -3.98999,-2.71031c-1.63661,-1.02907 -3.18885,-2.1145 -4.79906,-3.19762c-0.93411,1.47925 -2.07435,3.30053 -3.48678,4.22607c-0.98262,0.64389 -3.07943,0.90142 -4.24164,1.36077c-1.44808,0.57234 -2.26738,1.42154 -3.89246,1.60451c-1.79076,0.20162 -3.52494,-0.47427 -5.31557,-0.49983c-0.13885,0.00672 -0.26661,-0.0082 -0.36822,-0.02781c-0.12147,-0.02335 -0.27515,-0.06679 -0.42641,-0.14766l-1.37213,-0.59322c-1.07281,-1.52825 -1.99574,-0.84089 -3.12055,-2.66492c-2.12048,-3.43865 -1.58617,-7.12262 -0.87233,-10.77918c-0.332,0.10118 -0.76559,0.08739 -1.1992,-0.34623c-0.89571,-0.89571 0,-1.79142 0,-1.79142l0.76003,-0.76004c0.18141,-0.18094 0.71549,-0.75764 1.22884,-1.20991c-0.45726,-1.07412 -0.40092,-3.52144 -0.11533,-3.92479c0.52689,-0.74417 2.08793,-1.18617 3.27771,-1.71615c1.06838,-1.8183 2.69774,-3.35332 3.42282,-5.35835c1.62643,-4.49755 1.95848,-9.62555 2.99229,-14.27777c0,0 0.27478,-1.23655 1.51135,-0.96177c0.11029,0.02452 0.20857,0.05667 0.29608,0.09492c0.44694,-0.86234 0.87107,-1.75432 1.40226,-2.58121c3.83928,-5.97637 9.58142,-11.05767 16.04082,-13.66155c1.62697,-1.55172 3.00295,-3.36473 4.78709,-4.65661c1.15031,-0.83293 2.31047,-1.95148 4.00365,-0.79559c0.32588,0.22248 0.57127,0.46622 0.74842,0.72447c0.13606,-0.08227 0.27235,-0.16442 0.40891,-0.24637c0.64757,-0.38862 3.45389,-1.86109 4.16291,-1.23811c1.09816,0.96488 0.84199,2.23476 0.43387,3.34837c2.27909,-0.76738 4.62552,-1.28034 5.54396,0.64644c0.36986,-0.00014 0.83343,0.03627 1.40921,0.11789c2.2461,0.31839 2.03314,3.82438 2.0366,5.29662l-0.14195,0.10139c2.44843,1.11787 3.67972,3.3392 5.26213,5.80234c0.24255,0.37755 0.51596,0.77369 0.80799,1.18604c0.82148,0.60245 1.62359,1.2229 2.16144,2.00794c0.66737,0.97407 1.00011,1.9892 1.17987,3.0309c1.20863,2.27501 1.87755,4.70799 0.84797,7.07516c-0.0186,0.04276 -0.03803,0.08501 -0.05825,0.1268c0.1747,0.95363 0.32795,1.91147 0.32795,2.96377c0,1.73534 -0.05477,3.39852 0.23611,5.112l0.01715,1.21536c0.00009,0.00411 0.00009,0.00626 0.00009,0.00626c0,0 -0.00001,0.00321 -0.00017,0.00927c-0.04162,2.47474 0.94927,4.39732 1.92952,6.33385c0.55156,0.06771 0.99347,0.48995 1.09078,1.0318l0.13095,0.65473c0.07131,0.13699 0.11832,0.28866 0.1353,0.44928l0.51378,0.64149c0,0 0.61416,0.8189 0.00217,1.53653c0.81015,0.28675 1.9342,0.21034 2.16035,0.97064c0.43303,1.45576 -0.59286,3.5029 -2.18778,3.826c-0.1172,0.57842 -0.62849,1.01382 -1.24148,1.01382c-0.54373,0 -1.00745,-0.34258 -1.18708,-0.82367l-0.02082,-0.05207c-1.13903,0.81498 -1.955,1.20136 -3.72332,1.26476c-0.17479,0.00626 0.32871,0.20131 0.37102,0.37102c0.07265,0.29151 -0.16505,0.62034 -0.05434,0.89964c0.45359,1.14445 1.38751,2.38506 1.00273,3.55444c-0.86651,2.63341 -4.82473,2.72791 -6.88362,3.97911l-0.49224,0.24958c-0.03536,0.04782 -0.07184,0.09607 -0.10946,0.14474c-0.4128,0.53419 -1.2849,0.43629 -1.95197,0.54005c-1.41795,0.22055 -2.52194,0.31021 -3.70797,0.59404zM250.6476,32.7147c-0.21614,0.05842 -0.51482,0.25135 -0.80976,0.4763c0.2706,-0.15674 0.54038,-0.31574 0.80976,-0.4763z" fill="#e5c1e4"></path><path d="M231.91777,53.62847c-0.05791,-0.06949 -0.11077,-0.13851 -0.15888,-0.20702l-1.11757,-0.04024c-1.16082,-0.4032 -2.71451,-0.25025 -3.48244,-1.2096c-0.42062,-0.52547 -0.70998,-1.02008 -0.89101,-1.48892c-0.29633,-0.32787 -0.6234,-0.72194 -1.00576,-1.19436c-2.91531,-3.60195 -3.74584,-9.18365 -3.74977,-13.62915l-0.23925,-2.1532c-0.01162,-0.09327 -0.01761,-0.1883 -0.01761,-0.28472c0,-0.02396 0.00036,-0.04783 0.0011,-0.07161c-0.09767,-0.5967 -0.17647,-1.16982 -0.24051,-1.70336c0,0 -0.25179,-2.26617 2.01436,-2.51796c1.92233,-0.21359 2.39518,1.38468 2.49441,1.87458c0.29083,0.57386 0.29083,1.15162 0.29083,1.15162c-0.0022,0.14319 -0.00117,0.28443 0.00301,0.42375c0.22512,0.84748 0.54278,1.67711 0.83905,2.50959c0.54714,0.25071 0.88911,0.64968 0.88911,0.64968c3.42826,4.02151 10.23735,6.23222 10.42894,12.33346c0.03436,1.09416 -0.36203,2.15927 -0.54304,3.23892l-2.30371,2.61048c0,0 -1.75162,1.45968 -3.21131,-0.29194z" fill="#ad4eac"></path><path d="M268.63099,82.82352c-2.28011,0 -2.28011,-2.2801 -2.28011,-2.2801v-1.77341c0.01374,-1.51938 -0.22671,-3.04862 -0.62366,-4.51711c-2.14161,-0.1136 -4.27124,-0.29645 -6.46999,-0.29645c0,0 -2.28011,0.00001 -2.28011,-2.2801c0,-2.28011 2.28011,-2.28011 2.28011,-2.28011c3.05574,0 5.87012,0.36075 8.8779,0.6343l1.51954,-1.32959c0.28514,-0.25214 0.63388,-0.43401 1.01908,-0.5185l0.14513,-0.14514c0,0 1.61228,-1.61228 3.22456,0c1.61228,1.61228 0,3.22456 0,3.22456l-0.25334,0.25334c-2.50741,2.41719 -2.31127,3.24683 -1.01532,6.40799c0,0 0.04914,0.12285 0.09415,0.3212c0.10491,0.42207 0.16405,1.05196 -0.16026,1.63637c-0.19559,0.37017 -0.53867,0.71933 -1.1166,0.96982c-0.26881,0.12496 -0.51938,0.19652 -0.75174,0.22688c-0.15443,0.67389 -0.6458,1.74606 -2.20933,1.74606z" fill-opacity="0.18824" fill="#ad4eac"></path><path d="M261.53733,71.92969c0,-1.52007 1.52007,-1.52007 1.52007,-1.52007h0.25334c0,0.50669 0,1.01337 0,1.52007v1.52007c-0.08444,0 -0.1689,0 -0.25334,0c-0.42224,0 -0.84448,0 -1.26673,0c0,0 -1.52007,0 -1.52007,-1.52007c0,-1.52007 1.52007,-1.52007 1.52007,-1.52007c0.42224,0 0.84448,0 1.26673,0c0.08444,0 0.1689,0 0.25334,0l3.04014,1.52007c-1.01338,0.50669 -2.02676,1.01338 -3.04014,1.52007h-0.25334c0,0 -1.52007,0 -1.52007,-1.52007z" fill-opacity="0.35294" fill="#ad4eac"></path><path d="M269.29815,72.35614c-0.6798,-1.35959 0.67979,-2.03939 0.67979,-2.03939l-0.00048,0.15667c0.33487,-0.41859 0.66974,-0.83718 1.0046,-1.25576c0.1168,-0.1486 0.26072,-0.27489 0.42428,-0.37141c0.3841,-0.24668 1.00011,-0.44035 1.70063,0.10691c0.01216,0.0094 0.02417,0.01899 0.03603,0.02875c0.69039,0.56243 0.63926,1.20558 0.48371,1.63542c-0.05836,0.18357 -0.15064,0.35202 -0.26948,0.498c-0.33528,0.41909 -0.67054,0.83817 -1.00581,1.25727l-1.01387,0.66336c0,0 -1.35959,0.67979 -2.03938,-0.6798z" fill-opacity="0.35294" fill="#ad4eac"></path><path d="M255.4819,59.6428l0.9636,0.1613c0.45231,1.79567 1.71104,5.64182 0.4546,7.37224c-0.6918,0.95276 -1.72004,2.27224 -2.87636,2.05029c-1.07172,-0.20572 -1.20336,-1.85362 -1.52756,-2.89564c-0.46556,-1.49632 -0.01245,-4.95591 -0.03613,-6.46035c0,0 -0.02381,-1.51989 1.49607,-1.54369c1.19322,-0.01869 1.46435,0.91407 1.52578,1.31587z" fill="#30152f"></path><path d="M271.05534,57.95911c1.51911,-0.05369 1.57281,1.46544 1.57281,1.46544l-0.00265,0.51054c0.50826,2.50122 0.81058,3.67372 0.22649,5.15103l0.40947,0.1206l-0.44279,1.50339c-0.16897,0.62749 -0.731,1.09915 -1.41436,1.12329c-0.83899,0.02965 -1.54316,-0.62644 -1.57281,-1.46543c-0.03579,-1.01275 -0.12528,-3.54462 -0.16107,-4.55737c0,0 -0.00915,-0.25878 0.08693,-0.56651c-0.02899,-0.23581 -0.06398,-0.47167 -0.11112,-0.7036l-0.05633,-1.00858c0,0 -0.05369,-1.51912 1.46543,-1.5728z" fill="#30152f"></path><path d="M274.04239,66.1518c-1.05398,-0.70266 -0.35133,-1.75663 -0.35133,-1.75663l1.23057,-1.47504c0.12162,-0.05212 0.24324,-0.10425 0.36486,-0.15637c-0.07648,-0.16309 -0.11921,-0.34514 -0.11921,-0.53719c0,-0.31149 0.11243,-0.59672 0.29893,-0.81732l0.83916,-1.00699l0.21766,0.18139l0.11695,-0.27745c-0.44927,-1.13721 -0.30663,-2.46658 -1.17909,-3.34896l-0.84448,-1.01338c0,0 -0.3354,-0.40247 -0.31596,-0.90545c-1.12994,0.33362 -2.50363,1.38805 -3.30768,2.00084l-0.11495,0.68781c-0.27587,0.3817 -0.48971,0.76726 -0.65473,1.15762c-0.18491,1.8465 -0.4633,3.68053 -0.46049,5.53755v0.50669c0,0 0,1.26672 -1.26673,1.26672c-1.26673,0 -1.26672,-1.26672 -1.26672,-1.26672c0,-0.65864 -0.01526,-1.29246 -0.02336,-1.90749c-0.17079,0.08578 -0.36365,0.13407 -0.56778,0.13407c-0.39457,0 -0.747,-0.1804 -0.97932,-0.46322l-0.54521,-0.65426c-0.08752,0.00836 -0.17125,0.01431 -0.25169,0.01863c-0.44178,0.42831 -0.85368,0.88331 -1.17748,1.47396l-1.60651,0.63826c0,0 -0.12116,0 -0.28853,-0.03746c-0.183,2.35145 -0.91233,4.77471 -1.45326,6.77572c-2.44792,2.92778 -7.17917,4.1598 -10.90594,2.86313c-0.4743,0.11675 -0.9238,-0.108 -0.9238,-0.108l-0.66701,-0.40619c-1.0908,-1.09681 -2.74471,-1.96607 -3.67202,-3.18595c-0.97971,-1.2888 -1.41152,-2.79714 -1.54605,-4.37037c-1.2474,0.59251 -1.87611,0.29424 -2.24315,-0.34126c-2.25843,1.32503 -5.39721,2.35029 -7.81971,2.64563l-1.03276,0.44261c-0.15988,0.07286 -0.33756,0.11345 -0.52473,0.11345c-0.69959,0 -1.26673,-0.56713 -1.26673,-1.26673c0,-0.50568 0.29632,-0.94215 0.72477,-1.14526l1.32662,-0.66332l0.07428,0.14856c0.0025,-0.00236 0.00501,-0.00472 0.00752,-0.00708l-0.0155,-0.06222c0.03209,-0.00419 0.06423,-0.00869 0.09641,-0.01348c1.49219,-1.38636 3.20746,-2.44161 5.3308,-2.72522l0.47768,-0.00775c0,0 0.33625,-0.00001 0.66228,0.17325c0.43319,-0.14901 0.8608,-0.26566 1.28004,-0.33323v-1.10674c0,-0.69959 0.56713,-1.26673 1.26673,-1.26673c0.09008,0 0.17795,0.00941 0.26272,0.02728c0.11286,-0.10456 0.25961,-0.19868 0.4491,-0.27448c0.60046,-0.24018 1.01698,-0.05118 1.28087,0.19137c0.0625,-0.43514 0.12564,-0.86091 0.18351,-1.27368c3.62894,-6.52301 13.69127,-6.58323 17.64884,-0.09648c0.30832,0.50535 0.53763,1.0433 0.7014,1.60477c0.9046,-0.61019 1.6352,-0.80778 2.4728,-0.84149c1.24599,-0.96898 2.6576,-1.55283 3.52703,-0.43866c0.0645,-0.27645 0.14264,-0.55155 0.23708,-0.82603c0.00403,-0.04318 0.00801,-0.08638 0.01194,-0.12958c0,0 0.04573,-0.50305 0.39711,-0.84494c0.13165,-0.26356 0.28134,-0.52732 0.45143,-0.79192c-0.09298,-0.34323 -0.00404,-0.63667 0.12508,-0.85795c0.10118,-0.22515 0.27855,-0.45888 0.58952,-0.58642c1.96031,-1.40699 4.8531,-3.57316 7.34858,-2.33331c3.25203,1.61574 3.31849,4.98173 3.35798,8.08365c0.46722,0.88477 0.46376,2.17952 0.38724,2.96403c-0.03144,0.3223 -0.08138,0.64304 -0.14761,0.96179c0.08648,0.93035 0.13174,1.87387 -0.04203,2.72598c-0.3655,1.79219 -1.82068,3.12595 -3.0475,4.35674l-0.93214,0.37025c-0.25337,0.16384 -0.61756,0.28843 -1.04956,0.11571c-0.23544,-0.06522 -0.48073,-0.2067 -0.65361,-0.49496c-0.20254,-0.26824 -0.24189,-0.54868 -0.21419,-0.7914c0.0013,-0.37678 0.16677,-0.6393 0.36074,-0.81772c1.06179,-1.45502 2.37528,-3.3589 2.92477,-5.08284c0.04629,-0.14522 0.0838,-0.29285 0.11521,-0.44202c-0.01602,-0.15533 -0.03322,-0.31032 -0.05053,-0.46436c-0.23311,0.30457 -0.55962,0.44451 -0.55962,0.44451c-0.3941,0.1689 -0.78818,0.33779 -1.18227,0.50669l-0.1206,0.55173c0,0 -0.70265,1.05397 -1.75663,0.35133zM246.96423,58.19993c0.02001,0.35976 -0.11187,0.65649 -0.11187,0.65649c-1.51354,3.23234 -1.06227,7.40356 0.76698,10.4775c1.94164,3.2628 8.22222,3.13171 10.45775,0.42618c0.57542,-2.61917 1.72799,-5.8761 1.07889,-8.59365c-1.22023,-5.10865 -8.52431,-5.74843 -12.19175,-2.9665z" fill="#316a70"></path><path d="M254.18284,161.32795c-3.05741,-1.65598 -2.06271,-5.13373 -3.25837,-7.6552c0,0 -0.92603,-2.08359 1.15755,-3.00962c0.34069,-0.15142 0.65043,-0.22237 0.93023,-0.23513c0.60338,-0.99985 1.4445,-2.05443 2.39665,-2.96688c0.14996,-1.72997 0.43795,-4.00717 1.64627,-5.25609c0.21898,-4.08988 2.73451,-8.1451 7.76081,-6.84128c0.67549,0.17523 1.72962,1.23083 2.68964,2.29958c0.09166,-0.39117 0.2774,-0.68944 0.50025,-0.91653c0.31622,-0.37918 0.81193,-0.68648 1.58898,-0.71817c1.92106,-0.18333 4.7659,-0.75233 6.41175,0.78293c1.13515,1.05887 1.56408,2.71469 2.00621,4.20274c0.2458,0.8273 0.4382,1.71635 0.58847,2.6457c0.29588,0.77138 0.5413,1.47248 0.76744,1.97486c0.49189,1.09274 0.93171,2.0974 1.30833,3.05807l0.32268,0.25555c0.61279,1.00195 1.57326,1.86166 1.83838,3.00583c0.38337,1.65458 0.15004,3.50266 -0.72224,4.64279c-0.04657,0.83798 -0.15243,1.7252 -0.32315,2.68376l-0.97777,0.30981l0.25613,0.4098l-1.99695,1.24809c-0.35657,0.23105 -0.78175,0.36521 -1.23826,0.36521c-0.17415,0 -0.34373,-0.01953 -0.50669,-0.0565c-0.16296,0.03698 -0.33254,0.0565 -0.50669,0.0565c-0.44219,0 -0.85498,-0.12588 -1.20449,-0.34375c-0.41148,0.50481 -0.87652,0.98985 -1.22854,1.44109c-1.87927,2.40895 -6.96194,3.74996 -9.81946,2.16366c-1.26536,-0.70245 -1.99097,-1.76948 -2.43173,-3.00766h-0.00977v-0.02762c-0.01296,-0.03684 -0.02568,-0.07383 -0.03814,-0.11097l-0.32709,0.10914c-0.86433,-0.30041 -1.79717,-0.46342 -2.6635,-0.75981c-1.34856,0.95214 -2.96847,1.30541 -4.9169,0.25008z" fill="#e5c1e4"></path><g><path d="M282.81829,295.37985c-1.01338,0 -1.01338,-1.01338 -1.01338,-1.01338l0.03026,-0.75248c0.14494,-0.51781 0.37705,-1.02011 0.67509,-1.47663l0.09369,-0.29135c0,0 0.14769,-0.44307 0.55885,-0.5188c0.17144,-0.14304 0.77844,-0.56444 1.38544,0.04257c0.71657,0.71657 0,1.43313 0,1.43313c-0.26069,0.2379 -0.47623,0.54396 -0.61512,0.87584l-0.10983,0.32949c-0.00807,0.03234 -0.01536,0.06478 -0.02187,0.0973l0.03026,0.2609c0,0 0,1.01338 -1.01338,1.01338z" fill="#316a70"></path><path d="M278.51143,291.07299c1.01338,0 1.01338,1.01338 1.01338,1.01338v0.76004c0,0.33991 -0.03596,0.67788 -0.09544,1.01338h0.09544v1.01338h-0.33624c-0.09013,0.31499 -0.1902,0.62723 -0.28934,0.93623l-0.79231,-0.53174l-0.31206,0.31206l-0.76004,-0.76003l0.16249,-0.1625l-0.42253,-0.28357c0.08228,-0.50989 0.16456,-1.01978 0.24683,-1.52967c0,0 0.10985,-0.4394 0.47643,-0.65726v-0.11035c0,0 0,-1.01338 1.01338,-1.01338z" fill="#316a70"></path><path d="M271.92446,294.11313c0,-0.55967 0.45371,-1.01338 1.01338,-1.01338c0.55967,0 1.01338,0.45371 1.01338,1.01338c0,0.55967 -0.45371,1.01338 -1.01338,1.01338c-0.55967,0 -1.01338,-0.45371 -1.01338,-1.01338z" fill="#316a70"></path><path d="M200.73455,298.92668c0,-0.33072 0.10794,-0.55351 0.25335,-0.70359c0,-0.8633 0,-1.7266 0,-2.5899c0,0 0,-1.01338 1.01338,-1.01338c1.01338,0 1.01338,1.01338 1.01338,1.01338c0,1.09782 0,2.19566 0,3.29349l-1.26673,1.01338c0,0 -1.01338,0 -1.01338,-1.01338z" fill="#316a70"></path><path d="M207.06817,299.43337c-1.01338,0 -1.01338,-1.01338 -1.01338,-1.01338c0,-0.67559 0,-1.85786 0,-2.53345c0,0 0,-1.01338 1.01338,-1.01338c1.01338,0 1.01338,1.01338 1.01338,1.01338c0,0.67559 0,1.35117 0,2.02676v0.50669c0,0 0,1.01338 -1.01338,1.01338z" fill="#316a70"></path><path d="M211.12169,295.6332c1.01338,0 1.01338,1.01338 1.01338,1.01338c0,0.33779 0,1.43562 0,1.77341c0,0 0,1.01338 -1.01338,1.01338c-1.01338,0 -1.01338,-1.01338 -1.01338,-1.01338c0,-0.33779 0,-0.67559 0,-1.01338v-0.76004c0,0 0,-1.01338 1.01338,-1.01338z" fill="#316a70"></path><path d="" fill-opacity="0.99216" fill="#316a70"></path><path d="" fill-opacity="0.99216" fill="#316a70"></path><path d="" fill-opacity="0.99216" fill="#316a70"></path></g></g><g fill-opacity="0.23529" fill="#2f152f"><path d="M269.47545,41.78164l0.04427,-1.2072c0.29378,-1.43381 0.47031,-2.9028 0.46242,-4.36639c0,0 -0.00001,-2.2801 2.2801,-2.2801c2.28011,0 2.28011,2.2801 2.28011,2.2801c-0.00268,0.60584 -0.02856,1.21217 -0.07511,1.81733c0.16343,0.29665 0.24554,0.60083 0.2868,0.8316c0.90728,0.30094 1.56173,1.15635 1.56173,2.16462v2.28011c0,1.00902 -0.65542,1.86496 -1.56376,2.16531l0.04369,0.11479c0,0 0.00001,2.28011 -2.2801,2.28011c-2.28011,0 -2.28011,-2.28011 -2.28011,-2.28011l0.19125,-1.88348c-0.95129,-0.64361 -0.95129,-1.91669 -0.95129,-1.91669z"></path><path d="M272.72995,54.56589c0.68585,0.22862 1.08176,0.60222 1.30262,1.00587c0.10836,-0.05401 0.21715,-0.10684 0.32631,-0.15847c0,0 2.07572,-0.94353 3.01924,1.13221c0.94352,2.07573 -1.13222,3.01925 -1.13222,3.01925c-1.15312,0.49525 -2.36158,1.06608 -3.1933,2.00351l-0.89073,2.67218c-0.28654,0.93171 -1.15404,1.60895 -2.17972,1.60895c-0.81216,0 -1.52515,-0.42462 -1.92906,-1.06399c-0.43729,0.94047 -1.52452,1.23699 -1.52452,1.23699c-0.92894,0.25335 -1.85786,0.50668 -2.78679,0.76003l-1.06031,0.26561c0,0 -1.99978,0.49994 -2.67185,-1.35228c-0.25589,0.09637 -0.55996,0.15364 -0.92129,0.15364c-0.5756,0 -1.00589,-0.14531 -1.32756,-0.36255c-0.22033,0.0709 -0.45529,0.10921 -0.6992,0.10921c-1.02568,0 -1.89319,-0.67724 -2.17972,-1.60895l-0.74341,-2.23023c0,0 -0.00173,-0.0052 -0.00477,-0.01516c-0.20734,-0.14616 -0.4107,-0.31087 -0.6225,-0.43611l-2.14162,-0.95184c-0.82318,-0.34398 -1.40164,-1.1568 -1.40164,-2.10473c0,-1.02568 0.67724,-1.89318 1.60895,-2.17972l2.23023,-0.7434l0.03922,0.11765c0.27003,-0.10677 0.55011,-0.18599 0.84345,-0.22892c4.17943,-0.61175 6.20241,4.59174 6.64795,7.48928c0.14403,-0.05651 0.23775,-0.07993 0.23775,-0.07993l0.96645,-0.24109c0.92894,-0.25335 1.85785,-0.50668 2.78679,-0.76003c0,0 1.62837,-0.4441 2.46518,0.83289l0.17089,-1.8797l0.07499,0.00682c-0.00678,-0.12944 -0.00921,-0.2594 -0.00681,-0.38994c0.02455,-1.33818 1.10159,-2.43962 1.6524,-3.65943l0.16049,-0.52557c0,0 0.72103,-2.1631 2.88413,-1.44206z"></path><path d="M267.68941,156.55318c-0.59895,-1.1979 -0.14246,-2.044 0.33623,-2.53826c-0.09174,-0.70469 -0.12403,-1.47468 -0.12118,-2.26677c-1.38318,0.09702 -2.80376,0.04445 -4.10257,0.17426l-2.15614,1.43743c-0.11057,0.07606 -0.22818,0.14263 -0.35165,0.1985c0.36551,1.02787 0.23817,2.48628 0.57164,3.54214l-1.76373,2.70308c-0.22136,0.68477 -0.60878,1.33955 -1.21935,1.94575c-3.64202,3.61597 -8.9612,-1.30047 -8.91378,-5.01606c0.03373,-2.64302 1.72003,-4.04122 3.15607,-5.72378c-0.01949,-1.93459 0.07439,-3.94062 0.94353,-5.23502c0.06886,-0.12422 0.14117,-0.24748 0.21655,-0.36961l-0.02291,-0.01145l0.06932,-0.13863c0.19809,-0.64466 0.43192,-1.27479 0.69302,-1.88181h-1.76309v-0.19889l-0.44716,0.1546c-1.47327,-0.6078 -2.6818,-1.32545 -3.86668,-2.04519c-0.83668,-0.03248 -1.68765,0.14351 -2.52191,0.0491c-1.57886,-0.17869 -2.83847,-0.64748 -3.9145,-1.31202c-0.04192,0.00243 -0.08392,0.00438 -0.12601,0.00583c-3.24165,0.1114 -7.51114,-2.97565 -10.34655,-5.90162c-0.40965,0.39297 -0.96573,0.63446 -1.57821,0.63446c-0.82244,0 -1.54317,-0.43544 -1.94424,-1.08835l-1.68241,-2.64379c-1.95529,-2.21653 -4.30272,-4.02616 -5.36058,-6.90052c-0.94926,-2.57927 -1.47825,-5.33569 -2.1055,-8.06448c-0.03152,-0.04003 -0.06293,-0.08003 -0.09426,-0.11998c-8.2161,7.25153 -13.28058,16.90298 -16.44035,27.44178c0.03161,0.46265 -0.06109,0.81797 -0.06109,0.81797c-2.04189,7.81057 -6.15232,14.39837 -8.65459,21.92619c-0.38251,1.15074 -0.80504,2.26253 -1.20723,3.36601c0.00875,1.96898 0.25531,4.33391 -0.03851,6.35003c0.01682,0.52234 -0.00024,1.00001 -0.06933,1.4017c0.09889,0.26663 0.22562,0.5342 0.3872,0.8043c0.52652,0.33944 1.01181,0.69017 1.40753,1.07611l2.03357,0.90381c0.82318,0.34398 1.40164,1.1568 1.40164,2.10473c0,1.25927 -1.02084,2.2801 -2.28011,2.2801c-0.18699,0 -0.36871,-0.0225 -0.54263,-0.06497l-2.2321,-0.49602l0.06094,-0.27422l-0.58601,0.0878c-0.83493,-0.69863 -1.53189,-1.36754 -2.11189,-2.03565c-0.24778,0.19943 -0.53814,0.34811 -0.85527,0.43026c-0.01388,0.01849 -0.02767,0.03703 -0.0414,0.05561c-0.01609,-0.01144 -0.0322,-0.02288 -0.0483,-0.03431c-0.15588,0.03366 -0.31769,0.0514 -0.48364,0.0514c-1.18895,0 -2.16537,-0.91003 -2.27069,-2.07155c-2.78035,-2.20797 -4.86683,-4.7615 -4.01326,-9.04227c0.68231,-3.42188 3.25686,-7.04657 4.7264,-10.12218c0.92983,-1.94604 1.7946,-3.87586 2.59148,-5.83777c0.13271,-1.26012 0.29489,-2.51457 0.52668,-3.75567c1.30484,-6.98659 3.72008,-13.73381 5.67821,-20.59883c0.22145,-2.43807 0.5959,-4.85085 1.67843,-7.07758l0.48136,-2.88814c0.04763,-0.32074 0.16208,-0.61968 0.32871,-0.88225c0.27366,-1.30312 0.88746,-2.56971 1.66818,-3.79074c0.26337,-0.91528 0.5733,-1.81697 0.93861,-2.70202c1.08495,-2.6286 1.95048,-4.56074 4.56936,-6.33459c0.03384,-0.02292 0.06788,-0.04548 0.1021,-0.06769l-0.01285,-0.01469l2.01845,-1.76614c0.40214,-0.3556 0.93075,-0.57142 1.50977,-0.57142c0.03169,0 0.06321,0.00064 0.09459,0.00192c0.68537,-1.20664 1.38326,-2.42054 2.0894,-3.64914c-0.86181,-2.01724 -0.28244,-4.71493 0.86749,-6.28613c0.08438,-0.11528 0.17298,-0.22639 0.26536,-0.33378l-0.0304,-0.02432l1.74257,-2.17823c-0.08573,-0.19796 -0.21977,-0.57338 -0.23402,-1.01122c-0.21956,-0.34541 -0.42747,-0.68294 -0.63026,-0.98975c-2.47185,-3.73955 -2.1665,-7.00274 -2.0883,-11.33719c1.30683,-3.02254 4.2362,-7.95692 6.43174,-5.68963c1.34055,-4.38068 2.05621,-8.94355 3.51742,-13.30966c1.0081,-3.01222 2.64552,-5.68955 3.90433,-8.55021c-2.63528,-3.55986 -4.06105,-7.89529 -4.51808,-12.28546c0,0 -0.22687,-2.26879 2.04191,-2.49567c0.76978,-0.07697 1.3045,0.13334 1.67505,0.44486c0.29596,0.13436 0.55814,0.3301 0.77027,0.57097l2.01918,2.27158l-0.06082,0.05406l0.18193,0.0943c2.00136,3.18333 3.50193,6.09007 6.19745,8.7156c0.98239,0.95687 2.87355,1.59774 2.84816,2.96889c-0.07153,3.86497 -2.37228,4.8545 -4.81841,4.52145c-1.30001,4.24436 -4.06882,8.02448 -5.7064,12.09559c-2.07043,5.14722 -2.69144,10.95401 -4.22901,16.2355c-0.46022,1.58082 0.07753,6.77384 -0.90029,8.57558c0.49501,0.38581 1.07058,0.75599 1.78892,1.20338c1.18191,0.02332 2.14332,0.94595 2.22816,2.11179l0.07527,0.90334c0.87128,-0.11248 1.70008,-0.26727 2.06041,-0.38537c2.87258,-0.94144 5.93304,-2.44045 8.62323,-3.83647c0.19975,-0.10365 0.39304,-0.23758 0.58299,-0.386c-0.98274,-0.25359 -1.70872,-1.14597 -1.70872,-2.20792c0,-0.38271 0.0943,-0.74341 0.26091,-1.06012l1.20472,-2.4113c0.16361,-0.43615 0.28227,-0.89809 0.40813,-1.3559c-0.07067,-0.72532 0.16326,-1.52605 0.15299,-2.26633v-2.53345c0,-1.25927 1.02083,-2.28011 2.2801,-2.28011c0.0742,0 0.14757,0.00355 0.21995,0.01048l0.04065,-0.44709c0.09334,-1.17357 1.07528,-2.09684 2.27285,-2.09684c1.12078,0 2.05271,0.80867 2.24411,1.87436l0.49841,2.49202l-0.09534,0.01908l0.12852,0.20343c-0.029,0.99269 0.15965,2.02502 0.08217,3.00889c0.03096,0.19806 0.05764,0.40239 0.08288,0.61204c0.67333,-0.60947 1.61946,-0.60947 1.61946,-0.60947h2.02676c4.4598,0.05701 9.28666,1.74871 13.68104,2.84345c1.20922,-0.52681 2.40904,-0.82064 3.62417,-0.99456c0.46441,-0.29583 0.97939,-0.51547 1.49298,-0.73721v-1.62681h0.43636c-0.00684,-0.69944 0.14544,-1.348 0.58857,-1.90353c1.08286,-1.35754 3.61236,0.2324 5.07785,1.16398c0.1138,0.07235 0.22348,0.14957 0.32898,0.23131l0.04771,-0.40935c0.10489,-0.236 0.20978,-0.47199 0.31466,-0.708c-0.06077,-0.61397 0.06269,-1.45569 0.97635,-2.02613c0.41314,-0.55339 1.29867,-1.34057 2.73199,-0.70354c1.78551,0.79356 1.36092,2.43715 1.20288,2.89119c0.78194,1.72812 1.52052,3.65294 0.26585,5.53759c-0.39071,0.58689 -1.02866,0.89791 -1.719,1.15047c-0.01276,0.20722 -0.04012,0.41364 -0.08568,0.6191c-0.00485,0.02189 -0.00981,0.0437 -0.0149,0.06545c0.98081,0.25491 1.70492,1.14636 1.70492,2.20694c0,0.53499 -0.18425,1.02696 -0.49277,1.41588l-1.76094,2.26406l-0.06863,-0.05338l-0.07301,0.21856c-4.38084,3.85728 -7.81543,6.18168 -13.6571,7.04297c-4.70667,0.00843 -10.58373,0.63365 -15.17719,-0.57462c-0.88674,-0.23325 -2.31038,-0.91231 -3.62884,-1.6513c-1.98726,-0.07705 -3.9678,-0.22142 -6.00782,-0.57931c-3.39214,-0.5951 -5.21796,1.85769 -8.07111,2.84696c-0.4086,0.14167 -1.07992,-0.51921 -1.28968,-0.14102c-0.21537,0.38829 0.58666,0.68471 0.76181,1.09274c0.30527,0.71117 0.44163,1.48351 0.66246,2.22526c2.67443,5.47481 7.92923,7.48788 13.44925,9.0339c6.74254,1.88842 14.67653,4.15456 21.75247,2.74084c3.93845,-0.78687 7.78355,-2.88978 11.022,-5.32526c0.27604,-0.51339 0.67255,-0.82178 0.67255,-0.82178c1.34591,-1.04633 2.67544,-2.11503 3.9695,-3.22485l1.99055,-0.54892c0,0 2.28011,0 2.28011,2.28011c0,1.69213 -1.25577,2.12848 -1.90343,2.241c-0.05645,0.0475 -0.11295,0.09495 -0.16953,0.14232c0.07214,0.27511 0.07809,0.54615 0.05144,0.79011c-0.00974,0.61684 -0.22523,1.0577 -0.51257,1.37193c-0.79378,1.43485 -2.66892,4.82719 -3.08683,5.30483c-1.40624,1.60722 -3.58997,2.32513 -5.48141,3.31665c-2.46755,1.29351 -4.16853,3.31864 -6.95436,4.20679c-4.20748,1.34137 -9.94177,1.3719 -14.19087,0.28566c-1.86865,-0.47771 -3.61395,-1.46274 -5.52604,-1.71563c-3.54037,-0.46827 -7.32692,-0.21675 -10.90195,-0.28593c-0.2414,0.11171 -0.50921,0.19783 -0.77936,0.28293c1.04095,1.82166 2.34023,2.90521 4.25004,5.04812c1.1792,1.32312 2.15103,3.1231 3.45705,4.49569l1.16475,0.42355c1.01949,-1.03234 2.49401,-0.377 2.49401,-0.377c1.32143,0.60169 2.42457,1.33249 3.5369,2.04855c1.18133,0.02407 2.38051,0.18629 3.62163,0.91767c0.03391,0.01998 0.06762,0.04024 0.10115,0.06075l0.0081,-0.02026l2.48414,0.99366c0.56062,0.20933 1.01676,0.63299 1.26871,1.17129c0.15082,-0.03141 0.30709,-0.04792 0.46723,-0.04792c0.4153,0 0.80468,0.11103 1.14006,0.30504c0.10882,-0.06295 0.22332,-0.11716 0.34255,-0.16168l2.48414,-0.99366l0.14219,0.35547c0.70945,-0.44885 1.42953,-0.83198 2.14968,-1.11237c0.55517,-0.44289 1.11377,-0.51475 1.58855,-0.43778c0.62197,-0.09471 1.23812,-0.09091 1.84149,0.03582c1.57469,-0.39932 2.4383,1.15518 2.4383,1.15518c0.06625,0.1195 0.13332,0.23999 0.20109,0.36144c0.22361,0.2271 0.44335,0.4808 0.65872,0.76276c0.39465,-0.32702 0.90131,-0.52358 1.45387,-0.52358c1.25927,0 2.28011,1.02084 2.28011,2.28011c0,0.09642 -0.00598,0.19145 -0.0176,0.28472l-0.24969,2.24718l-0.19305,-0.02145c0.01927,0.22801 0.02487,0.45738 0.01369,0.68844c-0.01473,0.30419 -0.19366,0.53377 -0.43354,0.73862c0.44085,0.88773 0.85906,1.78634 1.23479,2.68541c0.13158,-0.02361 0.26707,-0.03594 0.40544,-0.03594c1.25927,0 2.2801,1.02084 2.2801,2.28011c0,0.34739 -0.07769,0.67664 -0.21664,0.97131l-0.89608,2.01618c0.01627,0.10632 0.0313,0.21236 0.04505,0.31805c0.16796,1.2915 1.07751,2.88026 0.26503,3.89814c-1.04311,1.30681 -2.09191,1.9268 -3.09571,2.06616l-0.01882,0.06491c0,0 -0.72103,2.1631 -2.88413,1.44206c-2.1631,-0.72103 -1.44206,-2.88413 -1.44206,-2.88413l0.15028,-0.2908c0.01394,-0.12371 0.02845,-0.24933 0.04331,-0.37664c-0.10573,-0.12163 -0.20895,-0.24655 -0.30953,-0.37414c-0.66031,0.03462 -1.49583,-0.18195 -2.04046,-1.27122zM261.8172,147.76486l0.31322,-0.20881l0.06125,0.09187c0.03813,-0.07459 0.08497,-0.14568 0.14202,-0.21264c0.90908,-1.06694 3.94411,-1.50546 5.86928,-1.32675c0.00653,-0.15058 0.01164,-0.29638 0.01501,-0.43683l-0.1345,-0.67248l-2.00032,0.36369l-0.01286,-0.07074c-0.16265,0.0414 -0.32705,0.07684 -0.49349,0.1054c-0.99004,0.16982 -1.94519,-0.48473 -2.91648,-0.75791h-1.03857v1.26673c-0.01861,0.5497 -0.00244,1.20555 -0.01026,1.90064c0.06851,-0.01423 0.13708,-0.02828 0.20569,-0.04217zM215.49655,113.03405c-0.06107,0.11462 -0.12219,0.22923 -0.18339,0.3438c0.23706,-0.2202 0.4766,-0.4385 0.71865,-0.65486c-0.01903,-0.00299 -0.03741,-0.00475 -0.0551,-0.0052c-0.10116,-0.00258 -0.20458,0.00371 -0.30974,0.01708c-0.0596,0.09863 -0.11664,0.19825 -0.17041,0.29917z"></path><path d="M194.16321,234.6751l-2.73715,-0.99532l0.20285,-0.55783l-1.2912,-0.2769c-0.47739,-4.1522 -0.20491,-7.62443 0.48427,-11.41102c-3.02904,-0.56264 -5.78777,-3.49983 -5.17684,-6.71315c0.51797,-2.72439 4.52813,-5.94357 5.80602,-8.56095c2.87538,-5.27289 4.82918,-10.10184 5.32504,-16.13877l0.01412,-0.02999l-0.01087,-0.00121l0.2503,-2.25276c0.11275,-1.15391 1.08566,-2.05565 2.2692,-2.05565c0.82946,0 1.55547,0.44291 1.95444,1.10512l1.24581,1.99329l-0.00329,0.00206c1.32726,0.90036 2.73386,1.537 3.78417,1.12661c2.90387,-1.13463 0.14905,-8.6558 2.80737,-10.27488c1.11304,-0.67791 2.47172,0.87678 3.76066,1.06925c4.62121,0.69009 9.21226,0.39479 13.6455,2.10148l0.29315,0.25971c0.10892,-0.03407 0.21696,-0.06699 0.32383,-0.09884c2.71171,-0.80815 5.11923,-0.27763 7.51752,0.40542c0.55589,-0.12561 1.07052,-0.24753 1.51069,-0.37986l2.68,0.79348c0,0 0.23263,0.15509 0.48066,0.43811c0.69401,-0.22489 1.39116,-0.41769 2.07625,-0.57682c0.08031,-0.59944 0.46035,-2.01764 2.25859,-2.01764c1.36525,0 1.91304,0.81747 2.13283,1.47347c0.08792,0.00095 0.17461,0.00288 0.26,0.00577c4.81317,-1.12681 9.47889,-2.87369 12.88425,-6.80223c1.91516,-2.20939 3.22331,-4.25927 5.45954,-6.22249l0.93961,-0.94058c0.0563,-0.06215 0.11804,-0.12463 0.18528,-0.18547l0.59399,-0.59461c0,0 1.61228,-1.61228 3.22455,0c0.097,0.097 0.18233,0.19399 0.25703,0.29064c0.15099,0.11272 0.28756,0.2437 0.40642,0.38966c2.53006,-0.4082 5.69653,-0.67045 7.24096,0.23353c1.64442,0.96252 2.35694,3.12089 2.76832,5.2738c0.30868,-0.89349 1.15723,-1.53523 2.15566,-1.53523c0.88665,0 1.6551,0.50609 2.03223,1.24516c0.71594,-0.43213 1.64106,-0.64854 2.66073,-0.72411c-0.03081,2.74327 -0.05814,7.48245 0.00408,11.97551c-0.34584,0.20928 -0.68656,0.46852 -1.02884,0.72108c-0.00779,0.01442 -0.01551,0.02888 -0.02313,0.04339c0.15223,1.49668 0.12787,2.91049 0.15275,3.60975c0.0762,2.14202 -0.03135,4.27097 -0.24744,6.39152c0.14634,0.40607 0.28682,0.80676 0.41789,1.20128l0.00032,0.11098l0.02652,-0.00611l0.74883,3.2449c0.04545,0.17955 0.0696,0.3676 0.0696,0.56128c0,1.03214 -0.68581,1.9041 -1.62659,2.18507c0.40424,3.29404 0.75878,6.59754 1.09659,9.90368c0.28762,1.90596 1.01484,3.73074 1.27539,5.64072c0.2747,2.01372 -0.36606,4.73645 0.56785,6.65612c0.8807,1.81028 6.51304,6.15278 4.73455,8.64118c-0.81361,1.13837 -4.26328,1.47115 -7.30525,1.11918c-0.03731,1.28584 -1.02884,3.10333 -1.98654,4.64356c-1.01225,3.29061 -2.11499,6.53797 -3.20666,9.81369l-0.50669,1.52007c0,0 -0.13736,0.41208 -0.47203,0.81658c-0.3761,0.98011 -0.7649,1.89441 -1.13664,2.7021c-1.31025,2.8469 -4.78759,7.45816 -8.77398,5.72053c-0.65126,-0.28388 -1.16511,-0.64779 -1.56886,-1.06924c-0.87509,0.56274 -1.77787,1.01331 -2.608,0.61181c-0.29423,-0.14231 -0.55589,-0.3314 -0.78887,-0.55622c-0.18921,0.15982 -0.39277,0.31479 -0.60631,0.46641c1.46177,4.1166 3.67317,9.30257 2.35448,13.54152c-0.08063,0.25923 -0.16094,0.52833 -0.24343,0.80278c0.79037,2.90877 1.27329,5.84347 1.2934,8.67085v0.50669c0,0 0.00001,0.04827 -0.00702,0.13075c0.41243,0.98902 0.80407,1.98782 1.05099,3.02546c1.85975,-0.39981 3.72338,0.46548 5.51433,0.65505c2.27825,0.24116 4.5769,0.14997 6.86743,0.50953c1.10304,0.17315 2.47763,-0.14306 3.29152,0.62131c1.23985,1.16442 2.55077,2.90727 2.24778,4.58098c-0.29677,1.63937 -2.10371,2.85741 -3.68777,3.3735c-1.14184,0.37202 -2.28706,-0.19618 -3.4478,-0.75207c-0.27734,-0.00544 -0.55088,-0.00789 -0.80954,0.01254c-2.71176,0.21425 -4.9353,-0.30814 -7.09533,-1.26519c-0.26873,-0.00418 -0.53764,-0.00685 -0.80685,-0.00841c-1.98464,0.73012 -3.23917,1.44006 -5.57248,-1.5031l-0.85137,-0.76032c0,0 -0.34732,-0.69466 -0.23114,-1.47584c-0.16787,-0.31762 -0.26292,-0.67968 -0.26292,-1.06392c0,-0.52961 0.18058,-1.01706 0.48351,-1.40412c-0.60738,-2.76526 -2.1851,-5.31696 -2.72247,-8.04515c-0.08111,-0.41182 -0.12883,-0.82805 -0.15365,-1.2474c-0.72126,-0.69405 -1.37345,-1.79673 -2.02134,-2.45456c-2.73268,-2.77467 -5.60386,-8.94835 -4.66532,-12.86779c0.12644,-0.52803 0.26466,-0.9835 0.41482,-1.37971c-1.28317,-0.46222 -2.51668,-0.96372 -3.06107,-2.11075c-0.57934,-1.22066 0.62363,-2.6296 0.96394,-3.93721c0.12391,-0.47612 0.2359,-0.92404 0.34818,-1.35003c-0.14138,-0.08499 -0.28211,-0.17102 -0.42213,-0.25811c0,0 -1.93353,-1.20845 -0.72507,-3.14197c0.47859,-0.76574 1.07089,-1.03869 1.61178,-1.08906l0.04681,-0.4213c-0.79717,0.4405 -1.75862,0.694 -2.88077,0.68912c-0.63521,-0.00277 -1.24323,-0.16784 -1.82413,-0.43913c-0.37771,0.11769 -0.76244,0.20255 -1.15114,0.25671c-1.78615,0.65121 -3.71362,0.87138 -5.64475,0.35034c-1.77108,-0.47785 -3.69703,-2.39471 -4.87055,-3.71123c-1.07607,-1.2072 -2.12537,-2.47513 -3.07455,-3.80672c-0.02933,0.18046 -0.06318,0.35744 -0.10104,0.52982c-0.72953,3.32229 -2.66149,4.91486 -4.74456,6.80803c-0.10492,0.65099 -0.46405,1.12983 -0.46405,1.12983c-1.56676,2.08853 -3.13173,4.07846 -4.92356,5.9543c-0.1409,0.66912 -0.61637,1.79805 -2.22076,1.79805c-2.28011,0 -2.28011,-2.28011 -2.28011,-2.28011l0.1505,-0.47751c-0.1269,-0.18338 -0.22759,-0.38627 -0.2967,-0.60324c-0.27776,0.04323 -0.55695,0.07947 -0.83257,0.09875c-2.38854,5.67546 -4.71955,11.34962 -8.00136,16.51708c-1.15803,4.50708 -2.22492,9.01629 -3.29953,13.56688l-0.14868,0.16705l0.07127,0.03167l-0.99225,2.23254c-0.15358,0.36753 -0.40063,0.68629 -0.71143,0.92655c-0.19497,0.87274 -0.35289,1.74824 -0.38248,2.64698c-0.04191,1.2732 1.02745,1.82795 1.72867,2.60424c2.52534,0.31514 5.19068,0.3648 7.40638,-0.16163l-0.01011,-0.17804c0,0 1.89716,-1.26478 3.16193,0.63239c1.26478,1.89716 -0.63238,3.16193 -0.63238,3.16193l-1.53019,0.83534c-3.12681,0.65986 -6.7161,0.53946 -10.06464,0.05263c-2.49159,0.92732 -6.58736,0.55565 -7.72036,-0.67352c-0.8843,-0.95936 0.61819,-6.99612 0.84697,-8.52192c1.07219,-7.15051 3.1232,-14.08847 5.41928,-20.92983c0.25626,-0.76355 0.62146,-1.48518 0.96288,-2.21619c0.19532,-0.74915 0.40522,-1.50128 0.63435,-2.25932c0.00443,-0.30755 0.02631,-0.60007 0.17397,-0.81222l0.40698,-2.64542c0.07878,-0.5763 0.37291,-1.08402 0.79862,-1.43943c0.07361,-0.41346 0.15314,-0.82604 0.23956,-1.23766c0.1002,-0.47723 0.15582,-0.88499 0.1917,-1.24878c-0.56421,-0.60324 -0.97047,-1.36962 -1.1306,-2.28916l-0.00002,-0.00001c-1.14677,-0.33459 -1.79986,-1.70765 -1.30977,-4.95591c0.25965,-1.72089 1.54232,-2.91985 3.21952,-3.58976c0.02136,-0.39521 0.14338,-0.76366 0.34084,-1.08017l0.83977,-1.39961c-1.00043,-0.45313 -1.95508,-1.0054 -2.84357,-1.64827l-0.06601,0.13435c-0.31404,0.71534 -0.78026,1.06727 -1.24849,1.22468c-0.45689,0.19442 -1.04279,0.24061 -1.75773,-0.09096c-3.59549,-1.50202 -7.90205,-4.57482 -8.4054,-8.9323c-0.21408,-0.02018 -0.41952,-0.06995 -0.61224,-0.14518zM268.10739,238.07325c2.58435,-1.93811 5.05059,-4.29943 7.93906,-5.78404c0.39733,-0.20422 1.07406,-0.49149 1.86597,-0.76475c0.10594,-0.16513 0.21024,-0.33177 0.31287,-0.49995c-0.31072,-3.2103 -0.13511,-6.72659 -0.13608,-9.87468v-1.52008c0.01544,-5.40926 1.11083,-10.80266 2.05109,-16.19936c-0.17241,-0.94248 -0.33527,-1.88569 -0.4839,-2.82997c-1.93278,-3.44311 -1.92824,-10.38408 -1.30274,-13.37014c0.00667,-0.03184 0.0132,-0.0639 0.01962,-0.09617c-0.01349,-0.09555 -0.02097,-0.18856 -0.02408,-0.27726c-0.003,-0.06594 -0.0054,-0.20076 0.01115,-0.3748c0.01619,-0.17407 0.0437,-0.30608 0.05894,-0.3703c0.019,-0.08394 0.04281,-0.17107 0.07257,-0.25957c-0.90117,-0.24992 -1.57799,-1.03934 -1.66083,-1.99862c-0.65405,-0.14576 -1.20218,-0.57247 -1.51119,-1.1469l-2.21364,-3.93535l0.08057,-0.04532c-0.37608,-0.27396 -0.76859,-0.48849 -1.1994,-0.63383c-1.94107,0.51371 -3.88282,1.66144 -5.4904,3.09392c-0.5197,3.46154 -0.82659,6.99294 -1.35533,10.16551c-2.26635,13.59869 -4.5757,27.0977 -7.11303,40.64284c-0.57802,2.59375 -0.90118,5.21228 -1.45518,7.80914c-0.00372,0.24323 -0.04507,0.46828 -0.09578,0.65548c-0.03752,0.15687 -0.09327,0.33362 -0.17609,0.51253v1.71255c0.19406,0.67404 0.2924,1.36752 0.29646,2.05171c1.32409,-0.2302 2.63476,-0.52841 3.922,-0.89533c2.27961,-2.14569 5.1416,-3.93306 7.58738,-5.76725zM220.47507,239.937c0.78795,-0.45162 1.28375,-1.29295 2.00516,-1.84468c2.40997,-1.84311 5.07083,-3.30677 7.7664,-4.68294c-0.01058,-0.14072 -0.01919,-0.28196 -0.02579,-0.42372c-0.1154,-0.46119 -0.09748,-1.01769 0.28056,-1.5939c0.19996,-0.39133 0.53573,-0.77977 1.09958,-0.98077c0.16198,-0.07684 0.32139,-0.12733 0.47645,-0.15672c2.16894,-8.49022 5.91158,-16.35111 8.08138,-24.87102c0.47948,-1.88274 0.77576,-3.86616 0.95659,-5.8924c-0.10983,-0.03798 -0.21585,-0.08411 -0.31734,-0.13768c-0.06718,0.00595 -0.13518,0.00899 -0.20389,0.00899h-0.63644c-0.31301,0.88558 -1.15759,1.52007 -2.15036,1.52007c-0.52161,0 -1.0023,-0.17516 -1.38648,-0.46984l-2.00834,-1.50625l0.02456,-0.03275l-0.09227,-0.02006c-0.06209,-0.05535 -0.12373,-0.11048 -0.18496,-0.16527c-0.60964,0.08821 -1.24792,-0.30087 -1.8775,-0.3485c-1.08356,-0.08197 -2.18585,0.15387 -3.27549,0.26539c-1.49611,1.05741 -2.75892,3.06183 -4.35732,2.51824c-0.25566,-0.08695 -0.50936,-0.20111 -0.75664,-0.33847c-2.07936,3.44389 -4.19665,6.87417 -5.77323,10.61286c-3.6871,8.74361 -5.31825,18.58473 -9.67635,27.06443c0.79919,0.65566 1.71193,1.21137 2.69076,1.64247c0.19924,-0.2691 0.40349,-0.47708 0.61106,-0.60414c1.32716,-0.81245 5.86898,-0.35852 7.51268,0.18875c0.34947,0.11636 0.7468,0.20064 1.15199,0.28492c0.02179,-0.01223 0.04353,-0.02458 0.06524,-0.03702zM194.54866,227.35123c0.67915,0.30213 1.07385,0.89418 1.07385,0.89418l0.31601,0.53325c1.41055,-3.24266 3.72113,-6.35365 5.1158,-9.14429c2.52052,-5.04344 5.05811,-10.03688 7.66498,-14.99997c-1.00735,0.79912 -2.04178,1.57174 -2.87333,2.54261c-1.36475,1.59339 -2.18781,3.59186 -3.48309,5.24222c-1.81885,2.31746 -4.07137,3.96159 -6.04854,6.07318c-0.08687,0.17668 -0.17095,0.35764 -0.25203,0.5433l-0.11925,0.11161c-0.38726,1.73263 -0.91513,3.43449 -1.23809,5.18024c-0.18718,1.01179 -0.14335,2.0258 -0.1563,3.02366zM239.7397,193.14527c-0.05446,0.00374 -0.1089,0.00737 -0.16334,0.01091l0.13654,0.08778c0.20336,0.02841 0.41046,0.04622 0.6183,0.06148c-0.11656,-0.04472 -0.23523,-0.08258 -0.3573,-0.10954c-0.07794,-0.01721 -0.15601,-0.0341 -0.23421,-0.05062zM239.51816,193.1599c0.00296,0.00284 0.00592,0.00567 0.00889,0.0085l0.00608,-0.00946c-0.00498,0.00031 -0.00997,0.00064 -0.01495,0.00095z"></path></g><g fill-opacity="0.23529" fill="#2f152f"><path d="M281.97804,174.52735c0.95774,1.17286 2.17309,2.66825 1.85195,4.14802c-1.84875,8.51884 -4.21488,4.24589 -6.80136,1.89726c-1.25199,-1.13686 -2.52372,-2.0029 -3.45143,-3.34368l-1.00668,0.53295c-1.38723,-0.51937 -3.6631,0.36827 -4.76379,0.71719c-6.72331,2.13125 -10.59237,6.69035 -14.6298,12.02102v1.00833c0,0 0,2.11733 -2.04034,2.27128c-0.15748,0.64652 -0.3235,1.29106 -0.49723,1.93354c-0.17691,0.79753 -0.3212,1.43197 -0.33195,1.47072c-0.4813,1.73481 -0.79242,3.4691 -1.07622,5.21747c-1.50022,11.48801 -4.92392,22.81724 -4.92131,34.45573c0.00065,2.89717 0.76071,5.90266 -0.02417,8.69149c-0.45072,1.60147 -0.79083,3.87931 -2.37413,4.39024c-1.51134,0.48772 -3.00608,-1.21125 -4.18712,-2.27291c-1.00491,-0.90334 -2.61591,-3.59811 -3.62353,-5.95111c-0.14569,0.4934 -0.32564,1.02478 -0.5379,1.58076c-0.08206,1.6083 -1.25367,3.09721 -1.99543,4.36744c-1.58212,2.70931 -2.89892,6.72877 -5.95641,8.18576c-0.17263,0.08227 -0.40357,0.17371 -0.68127,0.26987c0.23953,0.36085 0.37907,0.79381 0.37907,1.25939c0,1.25927 -1.02084,2.28011 -2.28011,2.28011c-0.29241,0 -0.57196,-0.05505 -0.82885,-0.15533l-2.73715,-0.99532l0.06727,-0.18499l-0.45586,0.00052c-0.27646,-0.24027 -0.53488,-0.50467 -0.78488,-0.77997c-0.09759,-0.04763 -0.20059,-0.09952 -0.30821,-0.1551c-1.4787,0.03707 -2.76615,-0.15075 -3.42999,-0.73133c-0.46192,-0.40399 -0.81133,-0.8001 -1.07092,-1.19193c-1.14634,2.36778 -2.18481,4.79528 -2.98593,7.20533c-0.52385,1.57593 -0.68924,2.7648 -0.99403,3.75948c-0.23875,1.00564 -0.47267,2.01275 -0.69733,3.02247l-0.49299,2.95796c-0.12057,0.8117 -0.66894,1.48385 -1.40849,1.77983c-0.47613,2.08329 -1.11386,4.11922 -2.12672,6.04583c-0.64559,1.22804 -1.44794,2.55645 -2.2224,3.94678l0.40794,1.83573l-0.05584,0.01241c0.03383,0.07692 0.06605,0.1547 0.09653,0.23341c0.82769,2.1377 -1.42594,6.90315 1.45577,8.43693c2.24272,1.19368 6.34199,0.42397 8.7181,0.18356l1.04644,-0.22038c0,0 2.23583,-0.44716 2.68299,1.78867c0.44716,2.23583 -1.78867,2.68299 -1.78867,2.68299l-1.48701,0.28631c-1.42772,0.14123 -3.11383,0.34655 -4.82237,0.40511c-0.01018,0.05393 -0.02148,0.10847 -0.0339,0.16362c-0.38406,1.70416 -2.90599,2.12782 -4.6172,2.47918c-4.1082,0.84352 -7.15669,-3.07768 -8.35614,-6.32724c-2.25584,-6.11152 2.21949,-12.9346 4.94873,-18.04683c1.55381,-2.91048 2.01782,-6.23299 2.55122,-9.43876c0,0 0.18641,-1.11844 1.08503,-1.64645c0.08979,-0.46441 0.31602,-0.90623 0.54074,-1.35028c0.35273,-1.79512 0.7066,-3.58848 1.21503,-5.35227c0.08294,-0.28772 0.14956,-0.58488 0.21029,-0.88567c-1.08746,-0.63079 -1.23681,-2.46212 -1.86586,-3.63759c-0.53427,-0.99838 -1.56453,-1.93553 -1.46753,-3.06372c0.13648,-1.58746 1.66738,-3.41065 3.29206,-4.91577c-0.00042,-0.01807 -0.00064,-0.03619 -0.00064,-0.05436c0,-0.69791 0.31356,-1.32258 0.80748,-1.74084l1.76216,-1.51042l0.2878,0.33577c0.71169,-0.76707 1.49773,-1.45079 2.38134,-1.99045l0.42926,0.05795l-0.03492,-0.17463l2.48728,-0.49746c0.15886,-0.03504 0.32394,-0.05352 0.49333,-0.05352c0.47296,0 0.9123,0.14401 1.27655,0.39057l1.28345,-1.1001c0.40008,-0.34711 0.92226,-0.55719 1.49352,-0.55719c0.93923,0 1.74582,0.56788 2.09514,1.37903c1.95573,-2.77747 5.1839,-4.70439 8.16958,-3.92811c0.38332,-0.30226 0.77739,-0.61847 1.16425,-0.94543c0.15353,-0.18235 0.33513,-0.34028 0.53812,-0.46716c0.81558,-0.7293 1.5576,-1.50209 2.04293,-2.28578c0.16484,-0.26617 0.32357,-0.53868 0.47685,-0.81675c-0.05767,-2.52346 1.22372,-5.95002 1.54996,-7.20069c1.71206,-6.56347 3.79295,-12.90458 5.85003,-19.33526c0.60483,-1.89076 0.89906,-4.19982 1.36472,-6.40391c-0.44171,-0.31884 -1.03933,-0.48424 -1.45285,-0.84856c-0.44648,-0.39336 -0.59031,-1.14123 -1.13699,-1.37622c-1.51817,-0.65257 -3.3019,0.17669 -4.95437,0.17356c-3.94324,-0.00747 -8.35282,0.43005 -12.22008,1.22244l-1.26672,0.25335c0,0 -0.08414,0.01683 -0.22304,0.02764c-0.13832,0.01665 -0.22413,0.01665 -0.22413,0.01665c-0.64156,-0.01546 -1.32,0.16453 -1.99931,0.37961c-2.61442,4.62033 -5.48237,9.24238 -7.548,14.17356c-0.58279,1.39128 -1.10116,2.81299 -1.60037,4.24343c-0.00841,0.39832 -0.11897,0.77152 -0.30653,1.09445l-0.18821,0.33878c-0.09436,0.27526 -0.18856,0.55058 -0.28293,0.8258c-0.20392,0.68477 -0.4167,1.36647 -0.64076,2.0442c-0.03232,0.09774 -0.29752,0.73979 -0.65797,1.61161c-0.39287,1.04236 -0.80934,2.07316 -1.26756,3.08368c-0.50404,1.24132 -0.93792,2.34037 -1.04712,2.71546c-0.6196,2.12825 -0.86269,9.41729 -3.00283,10.43124c-7.51246,3.55922 -6.31793,-6.49684 -5.7525,-9.87687c0.6784,-4.05531 3.12312,-6.82663 5.45867,-10.08754c0.52528,-0.73339 0.79168,-1.74294 1.4362,-2.33871c0.00985,-0.0288 0.01954,-0.05747 0.02905,-0.08602c1.55758,-4.67365 3.32289,-9.27204 5.05183,-13.88183c0.00641,-0.02165 0.01282,-0.04329 0.01924,-0.06493c0.11807,-0.32117 0.23974,-0.64149 0.36473,-0.96093c0.93525,-2.50455 1.85444,-5.01435 2.71847,-7.5433c-0.22505,0.07912 -0.446,0.1593 -0.66479,0.24244c-0.15647,1.6915 -1.35042,3.4351 -1.98503,5.06406c-1.18006,3.02907 -3.97673,5.51293 -5.73266,8.19875c-1.84545,2.82277 -2.75842,5.28867 -5.00498,7.85318c-1.37351,1.56791 -3.6277,7.6758 -6.65319,6.51927c-1.15996,-0.44341 -1.60361,-1.73215 -1.91433,-3.08628c-0.37381,0.26837 -0.69815,0.41337 -0.9439,0.37963c-3.03613,-0.41681 -4.19444,-8.03329 -2.85189,-10.14687c1.1928,-1.8778 2.81818,-2.70198 4.59406,-3.33144c1.31397,-1.9802 2.7859,-3.92813 3.72716,-5.96154c0.142,-0.31093 0.28418,-0.62261 0.42632,-0.93498c0.24453,-1.80311 0.95992,-3.71828 1.1516,-5.45358c0.25299,-2.29028 -0.63272,-3.75531 0.88622,-6.09805c0.57495,-0.88678 1.66522,-1.62157 2.93111,-2.17212l0.03188,-0.12115c0.24003,-1.00212 1.14176,-1.74703 2.21745,-1.74703c0.6951,0 1.31753,0.31103 1.73575,0.80151c0.72792,-0.08533 1.40257,-0.10037 1.9611,-0.03913c0.03081,0.00338 0.06187,0.00653 0.09319,0.0095c0.34976,-0.83109 0.33919,-1.88913 1.0165,-2.46509c0.42712,-0.36319 4.94155,-1.48953 5.83848,-1.58667c6.09864,-0.6605 12.62759,1.23532 18.67769,1.76757c5.17578,0.45533 10.60003,-0.01921 15.80133,0.00332c0.0833,-0.00752 0.1672,-0.01816 0.25158,-0.03127l0.33421,-0.25066c0.05959,-0.05098 0.11874,-0.10225 0.17747,-0.15381c0.06929,-0.33978 0.35322,-0.52137 0.71028,-0.65385c1.68472,-1.62165 3.07358,-3.44627 4.7538,-5.10845c3.53382,-3.49587 8.32,-6.33025 12.734,-8.51741c4.55184,-2.25546 8.18558,-3.04452 11.78508,1.20482l-0.41015,0.6836c1.77191,0.51004 3.41912,1.52775 4.76979,3.18182zM225.56055,244.23482c0.46976,-0.49781 0.91834,-0.98628 1.35851,-1.46893c-0.50494,0.26568 -0.95916,0.81668 -1.35851,1.46893zM202.79113,193.38701c0.06866,-0.1176 0.13316,-0.2381 0.19465,-0.36072c-0.02046,0.00042 -0.04118,0.00062 -0.06214,0.00058c-0.04388,0.1201 -0.08806,0.24015 -0.1325,0.36012zM207.57281,252.91467c0.00003,0.00125 0.01028,0.00934 0.02894,0.02354l-0.02902,-0.03868c-0.00009,0.00498 -0.00007,0.01003 0.00008,0.01515z"></path><path d="M286.5486,235.63943l-0.07918,-0.17418c-0.20947,0.1244 -0.42017,0.2411 -0.63465,0.35055c0.0043,0.83751 -0.05697,1.66969 -0.05908,2.41006c-1.95849,3.4437 -3.32803,7.32761 -5.31398,10.70636c-0.2555,0.43469 -1.09246,1.27977 -1.75587,2.0907c-0.21887,0.4292 -0.44788,0.85988 -0.68748,1.29261c-0.09386,0.16953 -0.17628,0.34977 -0.25285,0.53549c-0.07786,0.78403 0.08769,1.65515 -0.39603,2.2435c-0.89547,1.08915 -2.25999,1.7919 -3.60636,2.21071c-1.64234,0.51089 -4.06172,0.35713 -6.23843,-0.13283c0.0671,0.35032 0.08695,0.73158 0.05116,1.14671c-0.1471,1.70588 -2.83975,1.97454 -4.44071,2.58167c-0.75004,0.28444 -1.607,-0.05101 -2.40644,0.01496c-0.46732,0.03856 -0.94412,0.11668 -1.42147,0.19857c0.07131,0.99815 0.22675,1.99116 0.5156,2.94289c1.5819,2.61045 3.37348,5.63345 4.36809,8.51379c0.59161,1.7133 0.44194,3.6045 0.84567,5.37154c0.86039,3.76573 1.9702,7.13306 3.82265,10.51855l0.11555,0.22981c0.18859,0.28773 0.29172,0.59571 0.34813,0.84653c0.02038,0.08239 0.03899,0.17263 0.05332,0.26884c2.87616,0 5.75232,0 8.62848,0c0.84448,0 1.90574,-0.56493 2.53345,0h2.28011c1.25927,0 2.2801,1.02083 2.2801,2.2801c0,1.25927 -1.02083,2.28011 -2.2801,2.28011h-2.28011c-1.46111,0.46964 -3.3555,0.51152 -5.30676,0.41785c-1.92381,0.20094 -3.8461,0.3474 -5.70065,0.08601c-1.39637,-0.19682 -3.125,0.00802 -4.11046,-1.00065c-0.75411,-0.77188 -0.51889,-2.03838 -0.54043,-3.17651l-0.02402,-0.0484c-2.05528,-3.77892 -3.33559,-7.58059 -4.28438,-11.77579c-0.30145,-1.3329 -0.20645,-3.4483 -0.6744,-4.76226c-0.99132,-2.78355 -2.73114,-5.6596 -4.24564,-8.20696c-0.37128,-1.24668 -0.88216,-3.29184 -1.10406,-5.4254c-0.45898,-0.44603 -0.86805,-1.0895 -1.20949,-2.00137c-0.22133,-0.59112 -0.26514,-1.22131 -0.19686,-1.86072c-1.05671,-1.28938 -0.70023,-2.94384 0.01061,-4.40074c0.09641,-0.33855 0.20946,-0.68983 0.33786,-1.05253c0.18839,-0.53217 0.62405,-0.902 1.10317,-1.2433c2.01574,-2.66671 4.69171,-4.15689 7.71628,-4.92951c2.74407,-3.14449 6.44034,-2.7289 9.48822,-5.11976c1.97086,-1.54601 3.31954,-4.11027 5.22735,-5.75118c0.13021,-0.112 0.4212,-0.30839 0.80626,-0.55153h2.62152l0.4385,0.10963h0.06506l0.05819,0.02909l2.2801,0.50669l0.18867,-0.00496l0.17478,0.07121l1.77342,0.25335l0.34462,-0.03565l0.33612,0.08403h2.774zM258.80544,256.8565c0.03217,-0.0043 0.06478,-0.0089 0.09781,-0.01379c-0.01519,-0.00547 -0.02944,-0.01012 -0.04269,-0.0139c-0.05439,-0.01549 -0.06766,-0.00334 -0.05512,0.02769z"></path><path d="M270.66499,89.79933c-0.00241,-0.04517 -0.00483,-0.09034 -0.00724,-0.13551c0,0 0,-2.28011 2.28011,-2.28011c0.10751,0 0.20993,0.00507 0.30755,0.01473l0.10693,-0.10693v0c0.41262,-0.41262 0.98265,-0.66783 1.61228,-0.66783c1.25927,0 2.2801,1.02083 2.2801,2.2801c0,0.45652 -0.13416,0.88169 -0.36521,1.23826l-1.24809,1.99695l-0.01246,-0.0078l-0.00551,0.03609c-0.0097,0.00696 -0.01939,0.01393 -0.02909,0.0209l0.0107,0.00714l-0.41167,0.61751c0.02273,0.12919 0.03459,0.26211 0.03459,0.39781c0,0.67643 -0.29455,1.28406 -0.7624,1.70163l-2.52584,2.27327l-0.02858,-0.03176c-0.04995,0.06025 -0.1008,0.11984 -0.1526,0.17876c-0.84994,0.96669 -2.1897,1.35832 -3.33087,1.95382c-3.83636,2.0019 -8.0228,3.37366 -12.38255,2.85905c-1.42796,0.11154 -2.89989,0.00718 -4.45538,-0.39705c-1.25029,-0.32492 -2.50136,-0.89213 -3.75791,-1.55697c-2.91495,-0.76643 -5.8448,-1.3429 -9.08086,-0.91511c-2.04432,0.27025 -5.44062,0.758 -7.41858,1.42681c-1.73334,0.58609 -3.357,1.45697 -5.04183,2.17066c-0.12112,0.0513 -0.23931,0.11237 -0.35545,0.18002c1.83559,2.14677 4.34764,3.55427 6.90974,5.62101c2.48165,2.00184 2.27697,2.62094 4.49192,4.98314c0.36514,0.38942 0.74699,0.77335 1.14399,1.14907c5.37403,1.71784 10.73202,1.28784 16.4143,1.71915c1.58616,0.1204 3.11797,0.48661 4.65311,0.84184c2.31523,-0.52805 4.60321,-1.18575 6.94699,-1.57904c0.54133,-0.09084 3.84541,-0.17826 4.79772,-0.60769c2.28017,-1.0282 3.63324,-3.83073 5.83539,-4.77476c0.04935,-0.02116 0.09888,-0.04177 0.14858,-0.06185l-0.02021,-0.03031l2.25417,-1.50277c0.36699,-0.25246 0.81159,-0.40024 1.29071,-0.40024c1.25927,0 2.28011,1.02083 2.28011,2.2801c0,0.57902 -0.21583,1.10764 -0.57143,1.50977l-1.66504,1.90291c-1.6275,2.72857 -2.93835,5.20688 -6.01996,6.55108c-1.56828,0.68408 -3.33617,0.78201 -4.96004,1.32093c-3.15723,1.04781 -5.6118,2.80528 -8.95882,3.3787c-8.92094,1.52836 -16.62541,-1.34096 -25.0191,-3.46375c-0.14251,0.23649 -0.26527,0.48622 -0.36598,0.74693c-0.07964,-0.05136 -0.15946,-0.10236 -0.23943,-0.15306c-1.24609,-0.49016 -2.4888,-1.02153 -3.76647,-1.71801c-1.31088,-0.82455 -2.52611,-1.73945 -3.67625,-2.7233c0.00882,0.0815 0.01335,0.16429 0.01335,0.24813c0,0.41318 -0.10991,0.80069 -0.30206,1.13489c1.10211,1.79415 1.9852,3.85705 2.97836,5.48314c0.82646,1.35318 2.43697,2.04099 3.5224,3.19684c3.01524,3.21088 4.95584,6.80947 9.27452,8.30989l0.23417,-0.13727c0,0 2.2801,0 2.2801,2.28011c0,2.28011 -2.2801,2.2801 -2.2801,2.2801l-1.79259,-0.13727c-2.38692,-0.89757 -4.15017,-2.16287 -5.71484,-3.64622c-1.81774,1.89588 -4.47471,-0.52385 -6.21086,-1.89847c-4.907,-3.8852 -7.66763,-10.38274 -9.65452,-16.20439c-0.02073,-0.02573 -0.04117,-0.05132 -0.06134,-0.07675c-0.07103,-0.08159 -0.13406,-0.1649 -0.1897,-0.24672c-0.02994,-0.0425 -0.11145,-0.16363 -0.19902,-0.34063c-0.08809,-0.17673 -0.13533,-0.31489 -0.15109,-0.36443c-0.02827,-0.08396 -0.05389,-0.17337 -0.07479,-0.26718l-0.36262,-1.30561c-0.13475,-0.33721 -0.26036,-0.66605 -0.37803,-0.98873l-0.6568,-0.84043c0,-0.31079 0.03289,-0.62693 0.06565,-0.94304c-0.2584,-0.86631 -0.47099,-1.71687 -0.66375,-2.60119c-0.1856,-0.15634 -0.38302,-0.30602 -0.55172,-0.4722l-0.9401,2.23273l-0.04204,-0.0177c-0.04014,0.11494 -0.08238,0.22927 -0.12689,0.34296c-0.88887,2.27063 -3.19383,3.68826 -4.69401,5.61057c-1.91529,2.45422 -3.22818,5.23881 -4.59639,8.01546c-0.74,2.43917 -1.54308,4.85749 -2.39001,7.26991c-0.65616,1.86904 -0.66068,3.91948 -1.26032,5.80741c-2.37499,7.47749 -5.98442,14.44228 -8.19316,22.01265l-0.26254,0.21153l0.11268,0.07043l-1.2458,1.99329c-0.18914,0.31394 -0.45177,0.57858 -0.76408,0.77012c-0.06391,0.60866 -0.12691,1.21813 -0.1883,1.82861c-0.33322,3.31318 -0.64203,6.85776 0.16935,10.12161c0.01907,0.026 0.0379,0.05221 0.05646,0.07862c0.03482,0.04953 0.06899,0.09942 0.10256,0.14966l0.0285,-0.02849l2.02676,2.02676l-0.73586,0.73587c0.29475,0.76979 0.57219,1.54944 0.90794,2.29589l-2.34851,-0.51684l-0.64431,1.03089l-1.05451,-0.65907c-0.30951,0.15708 -0.65967,0.24561 -1.03052,0.24561c-1.02568,0 -1.89319,-0.67724 -2.17972,-1.60895l-0.51057,-1.53171c-2.33676,-2.01849 -3.92524,-5.74743 -3.62261,-8.31322c0.21773,-1.846 1.26692,-3.49518 1.87749,-5.25085c0.76105,-2.18835 1.56806,-4.41212 2.45936,-6.61411c0.4727,-1.78282 1.02403,-3.51635 1.91005,-5.45475l1.23445,-2.96269c0.17008,-0.43608 0.47051,-0.80692 0.8534,-1.06466c0.21998,-2.02243 0.2835,-4.10284 0.83071,-5.99785c1.35285,-4.68497 3.48402,-8.99936 5.48227,-13.37032c0.02086,-0.04561 0.0416,-0.0913 0.06223,-0.13708c-0.90469,-0.30242 -1.55676,-1.15655 -1.55676,-2.16298c0,-0.22596 0.03287,-0.44423 0.09408,-0.65032l0.69829,-2.5604c-0.03234,-0.20251 -0.03234,-0.33611 -0.03234,-0.33611l0.16308,-1.10016c0.74663,-1.86601 1.18677,-3.87346 2.17499,-5.62354c1.03956,-1.84099 2.43312,-2.48041 3.73125,-4.06954c2.44198,-2.98936 3.33235,-6.19432 6.30041,-8.85319c0.44844,-0.40174 0.97655,-0.94234 1.56423,-1.46218c0,-0.56414 0,-1.12828 0,-1.69242l0.29762,-1.71389c0,0 0.40228,-2.01142 2.35154,-1.83707l0.09322,-0.93225c-0.27082,-0.47659 -0.48655,-0.96778 -0.62727,-1.47517c-0.35969,-1.29695 -0.27911,-2.46843 -0.0354,-3.62555c-0.38645,-3.01922 0.05575,-6.48632 0.68766,-9.41702c-1.25033,-0.01043 -2.26069,-1.02723 -2.26069,-2.28002c0,-0.46277 0.13787,-0.89334 0.37477,-1.25288l1.75511,-2.75805l0.19684,0.12526c0.29216,-0.74267 0.6372,-1.45986 1.05999,-2.13634l1.99391,-1.80989c0,0 0.11839,-0.09867 0.31927,-0.2139c2.07325,-6.2869 5.48729,-12.03542 6.48717,-18.64877c0,0 0.2894,-1.88111 2.05802,-1.94166c-0.35801,-0.51572 -0.73979,-1.09378 -1.18339,-1.75002c-0.86463,-1.27909 -2.65797,-2.13141 -2.83136,-3.66556c-0.03432,-0.30371 -0.02251,-0.60207 0.0238,-0.89643l-0.1064,-0.01182l0.2503,-2.25276c0.11275,-1.15391 1.08567,-2.05565 2.26921,-2.05565c0.75545,0 1.4251,0.3674 1.84,0.93327l1.50415,2.00553c1.22324,1.65482 3.06173,3.82817 2.9309,5.75447l0.34414,0.54429l0.68558,-0.58764l1.51181,1.76376c0.00936,0.01079 0.01862,0.02167 0.0278,0.03265l0.27605,-0.05919c0,0 2.2801,0 2.2801,2.28011c0,2.28011 -2.2801,2.2801 -2.2801,2.2801l-1.98775,-0.11701c-0.35515,-0.12432 -0.6833,-0.24846 -0.98814,-0.37399c-0.23708,1.25192 -1.01488,2.67221 -1.18822,3.21928c-1.69167,5.33903 -4.73547,10.15096 -7.2075,15.23231c-0.49973,1.02721 -0.47889,2.42566 -1.32304,3.17362c-0.00732,0.03697 -0.01456,0.07397 -0.02175,0.11099l-0.01677,0.02112l0.01164,0.00259l-0.49695,2.23626c-0.14301,0.71315 -0.61872,1.30604 -1.25836,1.6099c-0.39166,1.39632 -0.65697,2.73784 -0.8169,4.09114c0.66295,0.3988 1.10643,1.12523 1.10643,1.95522v3.29348h-0.50151c0.32018,1.69683 0.57921,3.36815 1.06993,5.36573c0.24696,-0.13469 0.55016,-0.23472 0.92218,-0.28123c2.14555,-0.26819 2.51079,1.75261 2.54281,1.96222c0.29257,-0.3403 0.58266,-0.64077 0.78228,-0.88216c2.68493,-3.24673 7.25835,-5.21909 11.54035,-5.40181c0.31233,-0.01333 0.62118,-0.01331 0.92682,-0.00103c-0.2324,-1.37396 -0.29099,-2.76411 -0.02597,-3.40705c0.04678,-0.11349 0.0971,-0.22502 0.15057,-0.3348l-0.06301,-0.02101l0.7434,-2.23022c0.28654,-0.93171 1.15404,-1.60895 2.17972,-1.60895c1.02568,0 1.89318,0.67724 2.17972,1.60895l0.65195,1.95585c0.42054,0.54413 0.92147,1.04117 1.32667,1.59427l2.10836,0.26906c1.34242,0.7208 2.63339,1.50118 4.01994,2.04207c0.78098,0.0215 1.5595,0.0081 2.33128,-0.10304c1.90606,-0.27447 3.6687,-1.23758 5.57359,-1.52007c2.5798,-0.38258 5.54976,-0.02018 8.15634,-0.02018h2.53345c0.73177,0 1.383,0.34472 1.80021,0.88062c0.07679,-0.08114 0.15456,-0.16086 0.23379,-0.23841z"></path><path d="M272.43115,45.83516c-2.28011,0 -2.2801,-2.28011 -2.2801,-2.28011c0,-0.84448 0,-2.70235 0,-3.54683c0,0 -0.00001,-2.2801 2.2801,-2.2801c2.28011,0 2.2801,2.2801 2.2801,2.2801c0,0.84448 0,1.68897 0,2.53345v1.01338c0,0 0.00001,2.28011 -2.2801,2.28011z"></path><path d="M260.68956,62.92896c-0.62639,2.19238 -2.81877,1.56599 -2.81877,1.56599l-3.08054,-1.49061c-0.68566,-1.16528 -1.73645,-2.13375 -2.87808,-2.85811c0,0 -1.89715,-1.26478 -0.63238,-3.16194c1.26478,-1.89716 3.16193,-0.63239 3.16193,-0.63239c1.63967,1.13109 3.12995,2.56543 4.21558,4.23554l0.46629,-0.47723c0,0 2.19237,0.62639 1.56598,2.81876z"></path><path d="M261.66692,65.08741c-1.26478,-1.89716 0.63238,-3.16193 0.63238,-3.16193l1.77301,-0.87569c0.76004,-0.08444 1.52007,-0.16891 2.2801,-0.25335c0,0 2.26616,-0.25179 2.51795,2.01437c0.2518,2.26616 -2.01436,2.51795 -2.01436,2.51795c-0.76004,0.08444 -1.52007,0.1689 -2.28011,0.25334l0.25294,0.13769c0,0 -1.89716,1.26478 -3.16193,-0.63238z"></path><path d="M270.44058,60.99362c-1.73119,-1.48387 -0.24731,-3.21506 -0.24731,-3.21506l1.52007,-1.77341c0,0 1.48387,-1.73118 3.21506,-0.24732c1.73119,1.48387 0.24731,3.21506 0.24731,3.21506l-1.52007,1.77341c0,0 -1.48387,1.73118 -3.21506,0.24732z"></path><path d="M255.66944,157.05811c0.67751,0.03158 1.54377,0.33371 1.9507,1.55452c0.72103,2.1631 -1.44205,2.88413 -1.44205,2.88413l-1.48107,0.37035c-1.35289,-0.28446 -3.22777,0.25153 -4.05868,-0.85337c-0.72793,-0.96797 0.01754,-4.16942 0.89146,-5.97585c-0.52476,-0.06437 -1.09176,-0.3446 -1.55309,-1.08273c-1.20845,-1.93353 0.72507,-3.14197 0.72507,-3.14197c1.41634,-0.4585 3.00744,-2.19691 4.24903,-1.37551c1.49722,0.99053 1.46259,3.37953 1.49332,5.17449c0.01465,0.85558 -0.3378,1.6767 -0.77468,2.44595z"></path><path d="M276.03481,157.4729c-0.92604,2.08359 -3.00962,1.15755 -3.00962,1.15755l-3.26592,-1.85451c-0.12275,-1.1742 -0.30745,-2.34354 -0.36826,-3.52257c-0.04408,-0.85473 0.7324,-2.33578 -0.09194,-2.56592c-0.38511,-0.10752 -0.77475,0.31629 -1.16904,0.27916l-2.2992,0.45984c-0.15886,0.03504 -0.32394,0.05352 -0.49334,0.05352c-1.25927,0 -2.2801,-1.02083 -2.2801,-2.2801c0,-1.10495 0.78596,-2.02631 1.82932,-2.23555l1.67532,-0.3723c0.27356,-0.32791 0.91383,-1.05283 1.53205,-1.69902h-1.99654c-1.25927,0 -2.28011,-1.02084 -2.28011,-2.28011c0,-1.13372 0.82743,-2.07417 1.91134,-2.25044l2.74768,-0.49958l0.00514,0.02827c0.06543,-0.01992 0.13142,-0.03856 0.19798,-0.05584c4.4077,-1.14439 5.5495,1.76456 4.61613,5.61464c-0.04989,0.20579 -0.56745,0.85053 -1.23826,1.62251c2.18533,1.71542 2.35898,4.87014 1.52553,7.21855l1.29429,0.17225c0,0 2.08359,0.92603 1.15754,3.00962z"></path></g><path d="M201.00464,122.75305c2.75,0 2.75,2.75 2.75,2.75l-0.14112,2.20296c-0.75255,2.25266 -1.24555,4.54022 -1.62963,6.84298c0.40214,1.16276 -0.25825,2.31844 -0.25825,2.31844c-0.04318,0.07255 -0.08569,0.14542 -0.12756,0.21863c-0.54835,3.90622 -0.94319,7.83525 -1.91157,11.69198c-1.11417,4.43735 -3.19696,8.42519 -5.06113,12.55819c-0.79084,4.06632 -0.98535,7.96345 -1.54273,12.00437c-0.20477,1.48451 0.1935,3.55258 -1.06377,4.36804c-1.99975,1.29702 -4.94072,1.94939 -7.09105,0.92111c-1.41612,-0.67719 -1.23024,-9.4463 -0.9624,-10.95069c0.13867,-0.77888 2.23791,-5.9059 2.48329,-6.52412c1.20555,-3.03732 2.02757,-6.23092 3.41663,-9.18882c0.59111,-1.25873 1.74555,-2.21438 2.26131,-3.50581c1.72154,-4.31059 2.23982,-8.94035 4.21769,-13.13711c0.46014,-3.14512 1.02701,-6.27689 2.05141,-9.35644l-0.14112,-0.46371c0,0 0,-2.75 2.75,-2.75z" fill-opacity="0.09804" fill="#e3a3e3"></path><path d="M266.28018,169.70601l-0.70445,1.72878c-1.21874,1.66621 -3.01646,3.8802 -4.81034,5.47326c-0.4641,0.73738 -1.25167,1.08691 -1.53328,1.19283c-0.00351,0.0023 -0.00703,0.00459 -0.01054,0.00688c-0.64019,0.41703 -1.42032,0.54252 -2.16719,0.74327c-3.58076,2.96787 -7.10312,4.04263 -12.2648,4.06828c-5.98333,2.02127 -11.07669,4.0238 -17.6225,3.66176c-1.03912,-0.05747 -6.23356,-0.78439 -6.79342,-1.1693c-0.12231,-0.08409 -0.24102,-0.17221 -0.35653,-0.26392l-0.04355,0.07621l-2.28698,-1.30685c-0.15891,-0.08694 -0.3083,-0.18912 -0.4462,-0.30457c-2.85171,0.83854 -5.60684,1.387 -7.9476,-2.06262c-0.76063,-1.12096 -0.29947,-2.69422 -0.3715,-4.04697c-0.18881,-3.54613 -0.3311,-7.11151 -0.33333,-10.66667c0,0 0,-2.65916 2.61487,-2.74774c-0.72482,-0.90949 -1.49508,-1.7705 -2.35853,-2.53022c0,0 -2.05538,-1.827 -0.22838,-3.88238c1.827,-2.05538 3.88238,-0.22838 3.88238,-0.22838c2.15896,1.93582 4.13877,4.11142 5.77699,6.50405c1.21853,1.77967 1.83856,3.37494 3.76312,4.49855c2.88854,1.68641 7.12529,1.30559 10.29955,1.30277c6.76276,-0.00599 12.33368,-0.3764 18.67315,-2.81426c2.8116,-1.08121 5.64575,-3.75945 8.66899,-4.1059c1.70611,-0.19551 3.89138,-0.89901 5.14448,0.27521c0.94864,0.88892 0.85324,2.33796 0.82964,3.74847c1.20518,1.11175 0.62595,2.84944 0.62595,2.84944zM214.11066,168.35903c0.06322,-0.01831 0.12696,-0.03563 0.19116,-0.05199c-0.06676,-0.08988 -0.13327,-0.18005 -0.19959,-0.27044c0.00252,0.10748 0.00533,0.21496 0.00843,0.32244zM219.52204,176.41982c0.31,-0.11944 0.81059,-0.09341 1.39154,0.00655c0.01654,0.00013 0.03308,0.00027 0.04962,0.0004c0.13044,-0.08388 0.26001,-0.15254 0.3881,-0.2078c-0.09874,-0.04007 -0.19678,-0.08179 -0.29401,-0.12542c-0.34207,-0.05227 -1.10904,0.12239 -1.91602,0.27224c0.02633,0.0186 0.0526,0.03657 0.07883,0.05392h0.11787c0.06134,0 0.1227,0.00003 0.18407,0.0001z" fill-opacity="0.09804" fill="#e3a3e3"></path><path d="M294.00366,162.3164c0.25848,-0.10724 0.52067,-0.2005 0.78605,-0.28183l-0.04332,-0.12131l4.60652,-1.64518c0.30582,-0.11737 0.63794,-0.18169 0.98507,-0.18169c1.51878,0 2.75,1.23122 2.75,2.75c0,0.64525 -0.22223,1.2386 -0.59433,1.70768l-2.11859,2.7239c-1.49089,4.14563 -3.23837,8.88879 -7.99791,10.22629c-6.77326,1.90339 -17.34257,-3.05069 -16.06544,-11.21519c0.23903,-1.52806 1.6032,-2.64541 2.4048,-3.96811c0,0 1.52543,-2.28814 3.81356,-0.76271c0.72089,0.4806 1.06325,1.0369 1.19403,1.5735c2.47351,-0.48019 5.57449,-0.46666 7.443,-0.69672l0.17088,0.07393v-0.07925h2.45672c0.06634,-0.03843 0.13588,-0.073 0.20897,-0.10332z" fill-opacity="0.09804" fill="#e3a3e3"></path><path d="M221.08764,243.10603l0.69772,-1.628c0.4064,-1.01111 1.39614,-1.72497 2.55261,-1.72497c1.51878,0 2.75,1.23122 2.75,2.75c0,0.40632 -0.08812,0.79207 -0.2463,1.13916l-0.97605,2.27746l-0.21054,-0.09023c-0.00522,0.03062 -0.01068,0.0612 -0.01638,0.09175l0.19401,0.07226c-2.16268,4.17035 -5.25455,7.89906 -10.74609,7.59172c-1.44149,-0.08067 -3.15974,-0.33633 -4.39715,-1.11142c-0.09386,0.07388 -0.18735,0.15001 -0.28046,0.22865c-0.06235,0.63217 -0.44078,2.55065 -2.7377,2.55065c-2.75,0 -2.75,-2.75 -2.75,-2.75l0.80546,-2.94454c1.83834,-1.78465 3.63138,-2.79817 5.62295,-3.91527c0.36148,-0.72775 0.6817,-1.34258 0.86192,-1.70335c0,0 0.6094,-1.2188 1.82821,-1.51154l1.41227,-1.88302c0.50041,-0.68249 1.30806,-1.1256 2.2192,-1.1256c1.51878,0 2.75,1.23122 2.75,2.75c0,0.13036 -0.00907,0.2586 -0.02662,0.38413l-0.10974,0.8779c0.32324,-0.19165 0.60463,-0.3135 0.80269,-0.32572z" fill-opacity="0.09804" fill="#e3a3e3"></path><path d="M264.4131,245.10659c0.91181,-1.42511 1.69496,-3.15799 3.24856,-3.66998c0.33532,-0.1105 0.6754,-0.17017 1.01909,-0.19136l-0.0172,-0.13763l2.62363,-0.32795c0.12553,-0.01754 0.25377,-0.02662 0.38413,-0.02662c1.51878,0 2.75,1.23122 2.75,2.75c0,0.75939 -0.3078,1.44689 -0.80546,1.94454l-2,2c-3.92591,3.86447 -4.6293,10.58259 -10.20245,12.58645c-1.51202,0.54366 -3.31634,1.36754 -4.77134,0.6858c-3.26504,-1.52984 -4.27707,-6.61965 -3.17809,-9.60251c1.48767,-4.03786 7.05158,-5.158 10.61078,-5.96547c0,0 0.12967,-0.02882 0.33835,-0.04528z" fill-opacity="0.09804" fill="#e3a3e3"></path><path d="M206.12765,185.08176c2.08796,1.78968 0.29828,3.87763 0.29828,3.87763l-1.75328,1.99686c-0.69126,1.67667 -1.22855,3.41462 -1.74968,5.15171c-2.7933,6.54304 -3.51943,14.44653 -7.22905,20.48022c-1.1822,1.92285 -4.20015,6.38033 -7.43528,4.77753c-1.80175,-0.89265 -2.18468,-3.56505 -2.31152,-5.5718c-0.19733,-3.12199 4.09376,-5.44021 5.36328,-7.70103c1.25157,-2.22885 1.53485,-4.8808 2.46752,-7.26078c1.27073,-3.24264 2.88639,-5.78707 3.53013,-9.20171c0,0 0.38235,-1.91173 2.11283,-2.19396c0.18696,-0.46531 0.38097,-0.92766 0.58243,-1.38659l2.24672,-2.66981c0,0 1.78968,-2.08796 3.87763,-0.29828z" fill-opacity="0.09804" fill="#e3a3e3"></path></g></g></svg>