<svg version="1.1" xmlns="http://www.w3.org/2000/svg" xmlns:xlink="http://www.w3.org/1999/xlink" width="106.5" height="198" viewBox="0,0,106.5,198"><defs><radialGradient cx="240" cy="211.9559" r="29" gradientUnits="userSpaceOnUse" id="color-1"><stop offset="0" stop-color="#ffffff" stop-opacity="0.22745"></stop><stop offset="1" stop-color="#ffffff" stop-opacity="0"></stop></radialGradient></defs><g transform="translate(-186.75,-81)"><g stroke="none" stroke-miterlimit="10"><path d="M186.75,268.87c0,-36.73571 0,-161.75426 0,-180c0,-4.35968 3.60651,-7.87 7.5508,-7.87c11.70386,0 70.7041,0 91.6,0c4.59647,0 7.3492,3.80872 7.3492,8.47c0,18.86648 0,144.20443 0,180c0,6.03951 -4.59212,9.53 -9.3492,9.53c-11.98774,0 -64.60317,0 -87,0c-6.25322,0 -10.1508,-3.7218 -10.1508,-10.13z" fill-opacity="0.11765" fill="#ffffff" stroke-width="0"></path><text transform="translate(212.86133,121.6058) scale(0.35932,0.35932)" font-size="40" xml:space="preserve" fill="#ffffff" stroke-width="1" font-family="&quot;Microsoft YaHei&quot;, &quot;微软雅黑&quot;, STXihei, &quot;华文细黑&quot;" font-weight="normal" text-anchor="start"><tspan x="0" dy="0">MOBILE</tspan></text><g stroke-width="0"><path d="M226.55681,235.22508v-46.53837h26.88637v46.53837z" fill="#0a0a0a"></path><g fill="#0a0a0a"><path d="M226.55681,188.68671c0,-2.22021 1.60762,-4.02005 3.59072,-4.02005c1.9831,0 3.59072,1.79984 3.59072,4.02005c0,2.22021 -1.60762,4.02005 -3.59072,4.02005c-1.9831,0 -3.59072,-1.79984 -3.59072,-4.02005z"></path><path d="M246.26174,188.68671c0,-2.22021 1.60762,-4.02005 3.59072,-4.02005c1.9831,0 3.59072,1.79983 3.59072,4.02005c0,2.22021 -1.60762,4.02005 -3.59072,4.02005c-1.9831,0 -3.59072,-1.79983 -3.59072,-4.02005z"></path><path d="M230.14754,192.70676v-8.04009h19.70493v8.04009z"></path></g><path d="M228.243,235.22508v-46.53837h23.514v46.53837z" fill="#ffffff"></path><g fill="#0a0a0a"><path d="M230.14754,231.20503c1.9831,0 3.59072,1.79983 3.59072,4.02005c0,2.22021 -1.60762,4.02005 -3.59072,4.02005c-1.9831,0 -3.59072,-1.79983 -3.59072,-4.02005c0,-2.22021 1.60762,-4.02005 3.59072,-4.02005z"></path><path d="M249.85246,231.20503c1.9831,0 3.59072,1.79983 3.59072,4.02005c0,2.22021 -1.60762,4.02005 -3.59072,4.02005c-1.9831,0 -3.59072,-1.79983 -3.59072,-4.02005c0,-2.22021 1.60762,-4.02005 3.59072,-4.02005z"></path><path d="M249.85246,231.20503v8.04009h-19.70493v-8.04009z"></path></g></g><g fill="#0a0a0a" stroke-width="0"><path d="M236.45651,190.61388v-2.45669h7.08661v2.45669z"></path><path d="M243.54312,190.61388v-2.45669h2.45669z"></path><path d="M233.99982,188.15719h2.45669v2.45669z"></path></g><path d="M211,211.9559c0,-16.01626 12.98374,-29 29,-29c16.01626,0 29,12.98374 29,29c0,16.01626 -12.98374,29 -29,29c-16.01626,0 -29,-12.98374 -29,-29z" fill="url(#color-1)" stroke-width="0"></path></g></g></svg>