<svg version="1.1" xmlns="http://www.w3.org/2000/svg" xmlns:xlink="http://www.w3.org/1999/xlink" width="272.50742" height="300.72349" viewBox="0,0,272.50742,300.72349"><g transform="translate(-115.61667,-5.76703)"><g stroke="none" stroke-width="0.5" stroke-miterlimit="10"><g><g><g><path d="M164.62878,190.33932c1.18505,-0.51267 2.33336,-1.45803 3.62178,-1.37374c1.10623,0.07239 2.43568,0.13394 3.55954,0.47698c-0.00606,-0.17394 -0.01149,-0.34795 -0.01626,-0.52194c0,0 -0.07268,-2.71769 2.64501,-2.79035c2.71769,-0.07268 2.79038,2.64501 2.79038,2.64501c0.18426,7.06218 1.59158,13.99178 4.44299,20.47705c2.42417,5.51359 7.24632,9.78323 10.82831,14.51491l0.75771,0.65416c2.35486,0.51009 3.98554,1.17402 6.43195,0.01413l2.14961,-0.65254c0,0 2.60601,-0.77444 3.38046,1.83159c0.39101,1.31582 -0.07976,2.16469 -0.64174,2.6827c-0.08602,0.91002 -0.64514,1.59876 -0.64514,1.59876c-3.71277,4.45306 -5.31042,11.41123 -7.41082,16.83548c-1.48413,3.83275 -3.00094,7.80908 -4.53248,11.5742c-1.48238,3.64423 -4.40444,6.41326 -5.59077,10.20496c-0.42159,1.34746 -0.26192,2.84416 -0.75155,4.16843c-0.40643,1.09922 -1.36377,1.91793 -1.88661,2.96679c-1.53941,3.08807 -2.76564,6.46651 -4.24643,9.61794c-0.52091,1.79346 -1.11243,3.56778 -1.76937,5.316l-2.45951,2.21128c0,0 -1.27184,0.81012 -2.52445,0.27647c-0.10848,0.09683 -0.22619,0.18623 -0.35282,0.26689c-0.91537,0.58308 -2.04711,0.54995 -2.90882,0.00855l-2.89155,-1.73326c-7.67624,-2.57254 -15.97076,-2.52999 -23.90624,-4.05058c-3.52978,-0.67636 -6.53916,-2.21038 -9.94137,-2.93361c-0.12101,0.03047 -0.24945,0.05569 -0.38579,0.075c-0.95749,0.13545 -1.62259,-0.11785 -2.08216,-0.50051c-0.17472,-0.05408 -0.37897,-0.1319 -0.58785,-0.24271l-2.71605,-0.21996c0,0 -2.33183,-1.39775 -0.93407,-3.72957c0.74694,-1.24609 1.76062,-1.42717 2.54266,-1.3256c0.05579,-0.03622 0.1117,-0.07246 0.16778,-0.1087c-0.33393,-2.51498 -0.60429,-5.1667 -0.47135,-7.34637c0.27094,-4.44191 1.86157,-9.46121 2.8268,-13.81838c1.09335,-4.93565 1.77755,-10.3253 3.76849,-15.02224c1.06075,-2.50245 2.64835,-4.77364 3.57233,-7.32978c1.38064,-3.81945 1.81591,-7.8278 3.60315,-11.53774c1.56055,-3.23935 2.88388,-5.53796 3.91364,-9.04088c2.88698,-6.97827 7.25399,-13.82211 11.12894,-20.32824l2.01777,-1.62556c0,0 0.96313,-0.61349 2.03859,-0.42105c1.08436,-0.67592 2.26248,-1.24361 3.46533,-1.76399z" fill="#c392ca"></path><path d="M127.75531,215.25882c7.02629,-8.89955 15.61296,-17.17864 24.50066,-24.15724c2.51794,-1.60448 4.41542,-2.68562 6.90462,-3.31635c2.24299,-1.22971 4.57878,-2.21873 7.3273,-2.7459l2.36419,-0.91633c1.13904,-0.46747 2.47447,-0.10784 3.21844,0.90423c0.30421,-0.0544 0.60594,-0.11733 0.90411,-0.19228l1.66793,-0.41775c0,0 2.63722,-0.6605 3.29773,1.97671c0.6605,2.63722 -1.97671,3.29773 -1.97671,3.29773l-1.66793,0.41775c-0.84219,0.21022 -2.99066,0.78303 -4.89353,1.18544c-0.09363,0.11974 -0.19191,0.23642 -0.29533,0.34972c-0.89432,0.97974 -2.58453,0.59903 -3.87678,0.89854l-0.11728,-0.0356l0.00515,0.04961l-0.14572,0.01514c0.2005,1.57961 -1.3006,2.53576 -1.3006,2.53576l-1.97551,1.22418c-3.23238,3.83457 -5.52479,7.79999 -8.18484,12.02673c-3.03781,4.82699 -6.67034,9.36704 -8.85365,14.7126c-0.39109,0.95756 -0.42488,2.05126 -0.90175,2.96912c-0.88367,1.70076 -2.44384,3.02042 -3.18176,4.78931c-1.19849,2.8729 -0.75472,6.19594 -1.41933,9.24982c0,0 -0.02215,0.0999 -0.07724,0.25659c-0.04843,0.1589 -0.08974,0.25251 -0.08974,0.25251l-0.03572,0.05681c-0.10332,0.22417 -0.25241,0.48672 -0.46098,0.73292l-0.07135,0.11345c-0.18219,2.36923 0.15213,4.80117 -0.37162,7.11894c-0.46394,2.05313 -1.96805,3.73862 -2.66468,5.72492c-1.29374,3.68898 -2.06378,8.43167 -2.7063,12.25127c-0.30024,1.78482 0.4601,3.59083 0.64154,5.39159c0.30897,3.0662 -0.08554,5.72568 0.38497,8.74155c0.0777,0.27348 0.11923,0.58788 0.11169,0.94935c-0.01673,0.80295 -0.26575,1.36375 -0.6083,1.75539c-0.33546,0.39777 -0.85225,0.72857 -1.64347,0.8663c-0.36809,0.06409 -0.6944,0.06877 -0.98347,0.02919l-1.65022,-0.03769c-0.2601,-0.02399 -0.51987,-0.05454 -0.77906,-0.09126l-0.84435,0.75912l-0.02039,-0.0227c-0.02828,0.03798 -0.05686,0.07578 -0.08581,0.11336c-0.817,1.06184 -1.98851,1.76786 -3.13124,2.5074c-1.35984,1.65712 -2.60633,3.39684 -3.92356,5.13694c-0.21147,0.56945 -0.44168,1.12861 -0.75258,1.63797c-0.49147,0.80524 -0.91593,1.88692 -1.47686,2.72968c1.57094,-21.61831 5.45661,-43.93301 5.88824,-64.88787c0.06851,-3.32619 0.97701,-7.98433 1.3761,-12.6939c0.81276,-1.47701 1.60768,-2.98756 2.57499,-4.21276z" fill="#9e63a7"></path><path d="M166.32841,285.13773l-0.0019,-0.00102c0.00135,-0.00393 0.0027,-0.00786 0.00407,-0.01178c0.17826,-1.05753 0.49606,-2.09781 1.09452,-3.1778c0.05915,-0.17174 0.11829,-0.34349 0.17745,-0.51521c6.22355,-10.47925 10.3259,-22.05671 16.15319,-32.65048c3.31084,-6.01897 4.53345,-15.20907 9.83258,-19.94095l1.98656,-2.84933c0.20375,-0.30699 0.47357,-0.5773 0.80434,-0.788c0.73613,-0.46889 1.61219,-0.5393 2.37521,-0.26732c0.55976,-0.32422 1.32276,-0.46786 2.31562,-0.05636c2.51149,1.04093 1.47058,3.55243 1.47058,3.55243c-2.69106,6.47357 -5.32835,12.48163 -8.65902,18.7462l-0.32531,0.16766l0.11087,0.1007l-0.71291,0.7849c0.33173,1.13614 -0.32153,2.22598 -0.32153,2.22598l-1.56273,2.60707c-1.13923,1.89409 -1.88539,4.01395 -3.09163,5.86609c-2.10156,3.22681 -4.8047,5.42623 -6.42393,9.02326c-1.50402,3.3411 -2.70595,6.83703 -4.4587,10.07578c-1.24914,2.30817 -3.3363,4.06772 -4.75328,6.27685c-0.00375,0.00585 -0.00749,0.01173 -0.01122,0.0176c-0.25239,0.74829 -0.50474,1.49656 -0.75713,2.24483l-0.64179,2.89387c-0.15065,0.67926 -0.56042,1.30105 -1.19362,1.70438c-1.26639,0.80664 -2.94693,0.43395 -3.75358,-0.83243c-0.40333,-0.63319 -0.51181,-1.36995 -0.36117,-2.0492l0.66595,-3.00286l0.01462,0.00324c0.00767,-0.04941 0.01563,-0.09877 0.02391,-0.14809z" fill="#4b1353"></path><path d="M233.77047,165.41419c2.33182,1.39775 0.9341,3.72958 0.9341,3.72958l-1.14983,1.90269c-0.89142,1.78202 -2.16932,3.37562 -2.88594,5.23484c-1.17734,3.05453 -1.30138,6.58909 -2.53687,9.66891c-0.81414,2.02947 -1.85584,3.9996 -2.31785,6.13695c-1.94247,5.17029 -4.70204,9.86334 -7.09339,14.81499c-3.46247,7.16958 -6.27367,14.62529 -9.56718,21.86618c-2.26129,4.97152 -5.31734,9.84529 -8.35779,14.56618c-1.24309,3.45778 -2.40499,6.96154 -3.74609,10.39902c-0.09198,0.28693 -0.18977,0.57622 -0.29497,0.86821c-0.31538,0.87549 -0.6918,1.70835 -1.10396,2.5167c-0.05072,0.11526 -0.10176,0.23039 -0.15312,0.3454c-0.50924,1.14049 -1.16364,2.17069 -1.85096,3.17618c-0.59319,0.99424 -1.1832,1.99275 -1.71685,3.03372c-1.41173,2.75375 -1.34441,6.0175 -2.53063,8.91375c-0.18877,0.46091 -2.39114,4.61432 -2.529,5.38333c-0.21195,1.18223 0.25355,2.43161 -0.01079,3.60324c-0.64661,2.86597 -2.71113,5.49364 -3.08204,8.52008c-0.31304,2.55421 0.27863,5.62793 0.55711,8.18878c0.12107,0.56811 0.11369,1.29631 -0.37879,1.97085c-0.26453,0.44574 -0.69833,0.8549 -1.40663,1.0623c-0.45564,0.18508 -0.87148,0.2242 -1.24153,0.17505c-0.10078,0.08758 -0.20932,0.1688 -0.32531,0.24269h-0.00005c-1.19802,0.7631 -2.76665,0.47075 -3.61546,-0.63513l-0.98244,-1.24819c-3.60885,-1.31247 -7.47503,-3.08027 -8.56563,-6.26689c-1.45934,-4.26407 3.54798,-9.92209 5.02929,-13.75876c1.23731,-3.20473 1.81039,-6.34257 3.79988,-9.24452c1.89127,-2.75867 4.52815,-5.0854 6.02096,-8.15044c2.11657,-4.34567 4.19021,-8.58749 6.49834,-12.74967c0.33937,-1.15291 0.71162,-2.27944 1.17453,-3.33753c0.4006,-0.91566 1.32088,-1.53477 1.73882,-2.44263c1.4506,-3.15104 1.66462,-6.98162 3.01931,-10.20373c1.21583,-2.89186 3.43393,-5.32148 5.43679,-7.83141l0.27798,-1.25344l0.05752,0.01276c0.00623,-0.09961 0.01372,-0.19924 0.02257,-0.29886c0.16156,-1.82063 1.22909,-3.40591 2.47896,-4.90179c0.27028,-0.65302 0.55498,-1.29797 0.85562,-1.93181c0.15813,-0.3334 0.34211,-0.65331 0.54178,-0.96492c1.38176,-3.98346 2.94743,-7.89318 4.59729,-11.77323c0.29598,-1.12516 0.66759,-2.23401 1.2034,-3.30191c0.21711,-0.4327 0.47687,-0.83926 0.7612,-1.2308c1.68923,-3.83819 3.42313,-7.66403 5.10398,-11.52067c0.14664,-0.63489 0.26435,-1.10168 0.33452,-1.29543c0.43099,-1.19 1.05999,-2.29894 1.6766,-3.41207c0.05884,-0.1411 0.11758,-0.28227 0.17616,-0.4235c0.81802,-1.97163 1.43063,-3.9739 2.03115,-5.97577c0.28805,-2.06084 0.4824,-4.14869 1.55937,-5.87702c0.05904,-0.09475 0.1197,-0.18821 0.18187,-0.28048l-0.05167,-0.02579l2.10505,-4.21459c0.18558,-0.38829 0.4653,-0.73671 0.83086,-1.00766c0.32548,-0.79023 0.6291,-1.60669 0.8801,-2.48346l0.133,-0.13554l-0.06658,-0.02939l1.17236,-2.65631c0.20735,-0.48897 0.55982,-0.92239 1.04164,-1.2293c0.05721,-0.03645 0.11529,-0.07047 0.1741,-0.10216c0.86174,-2.39639 1.83904,-4.75168 3.06217,-7.03241c1.68489,-3.14178 4.03069,-6.04355 5.56178,-9.25938c1.61847,-3.39939 1.66803,-7.1625 3.32966,-10.52833c1.29574,-2.62472 3.95796,-5.10484 4.83907,-7.93722c0.68458,-2.20062 0.51658,-4.62837 1.32947,-6.78491c1.16896,-3.10127 3.36198,-5.68565 5.14952,-8.43239c1.08279,-1.76933 1.54629,-3.84995 2.3485,-5.76292c2.35253,-5.60998 6.85159,-10.2625 9.42045,-15.73984c2.04684,-4.36428 3.36187,-7.89806 6.58446,-11.63997l0.08537,-0.06535c0.16378,-0.36956 0.32426,-0.74626 0.47943,-1.13265c1.86501,-4.64359 3.74979,-8.71734 6.33226,-12.98778c2.29207,-3.79021 2.38746,-8.16634 4.63174,-11.98358c2.05528,-3.49577 4.4152,-6.90766 6.54998,-10.43358l0.88316,-2.34532c0.1976,-0.54246 0.56882,-1.02652 1.09337,-1.36065c1.26639,-0.80664 2.94694,-0.43394 3.75359,0.83245c0.40333,0.63319 0.51182,1.36994 0.36119,2.04918l-1.16542,5.25502l-0.01689,-0.00375c-0.00046,0.02715 -0.00096,0.05432 -0.00153,0.08146c-0.07101,3.40797 -2.61235,7.32944 -4.12756,10.17703c-3.11976,5.86314 -6.31574,12.08142 -10.10484,17.5638c-0.97195,1.40629 -2.02706,2.81645 -2.57257,4.43655l-0.46926,1.0812c0,0 -0.14151,0.32068 -0.43809,0.6809c-0.09908,0.6979 -0.5113,1.23106 -0.84477,1.55883c-0.99423,1.99771 -2.00586,3.86266 -2.50807,6.21888c0,0 -0.48963,2.20779 -2.58934,2.14963c-0.31606,0.70767 -0.64517,1.44035 -1.00775,2.20687c-2.55217,5.39543 -7.06592,10.00431 -9.33229,15.54508c-0.88984,2.17551 -1.53964,4.47538 -2.73396,6.49979c-1.56522,2.4043 -3.6644,4.78702 -4.68545,7.50219c-0.76835,2.04312 -0.53377,4.36006 -1.20872,6.43588c-1.04808,3.22341 -3.65778,5.77954 -5.16239,8.74806c-1.65613,3.26746 -1.70729,7.08 -3.29203,10.45086c-1.55633,3.31035 -3.95379,6.28891 -5.68985,9.51154c-1.67456,3.10846 -2.84118,6.38396 -3.89835,9.70735l-0.0027,0.12934l-0.03813,-0.0008c-0.00354,0.01118 -0.00709,0.02235 -0.01062,0.03353c0.38196,0.03294 0.80335,0.16362 1.26067,0.43775z" fill="#641a70"></path></g><path d="M193.54979,264.95772c-0.25251,1.09771 -1.03208,2.00574 -1.45676,3.04899c-0.93601,2.29937 -1.39403,4.77708 -2.36077,7.06372c-0.85969,2.03341 -1.98818,3.98068 -3.08695,5.94264c-0.49652,1.95929 -0.97636,3.92903 -1.42289,5.91874c-0.32901,1.46605 -0.81756,2.78129 -1.23235,4.12338c0.07711,0.75727 0.21616,1.52636 -0.05018,2.21933c-0.0274,0.07128 -0.05549,0.14224 -0.08425,0.21288l0.05403,0.00982l-0.63385,3.4862c0.42016,0.76219 0.75094,1.53647 0.67404,2.37275c-0.50304,5.47006 -4.21034,6.32417 -7.80978,2.55789c-0.45322,-0.47422 -0.79031,-1.38379 -1.04769,-2.43778c-1.85333,-0.97631 -3.69924,-2.02812 -5.57448,-2.77319c-1.7094,-0.67917 -3.59847,-0.91437 -5.22623,-1.77094c-3.84127,-2.02138 -7.73822,-4.52806 -11.91829,-5.82852c-0.23991,-0.07464 -0.47986,-0.14691 -0.71983,-0.21686c-0.09106,-0.0104 -0.17643,-0.02141 -0.25534,-0.03327c-5.51922,-0.82917 -11.1692,-0.75212 -16.682,-1.66911c-0.59488,-0.09895 -1.16983,-0.22048 -1.73279,-0.35228c-2.08362,-0.08623 -4.59074,-0.20617 -6.17755,0.28767c-1.16329,0.36203 -2.58809,1.30761 -3.95994,2.35957l-1.20125,2.10219c-0.01525,0.02787 -0.03101,0.05542 -0.04728,0.08263c-0.05036,0.10086 -0.10074,0.20173 -0.1511,0.30259l-0.93971,2.8191c-0.31418,1.02156 -1.26533,1.76413 -2.38993,1.76413c-1.38071,0 -2.5,-1.11929 -2.5,-2.5c0,-0.29691 0.05176,-0.58173 0.14674,-0.84593l0.98155,-2.94464l0.10265,0.03422l-0.04064,-0.20036c0.02143,-0.04282 0.04286,-0.08564 0.06429,-0.12846c-1.11038,-2.88448 1.83717,-7.06183 2.09091,-10.16118c0.90344,-11.03549 -0.7252,-22.2746 0.44416,-33.27182c0.10615,0.00744 0.16667,0.00744 0.16667,0.00744c4.24817,-0.00439 8.80379,-0.05744 13.01127,0.47003c3.50165,0.43899 7.93025,2.59341 11.06229,3.76698c2.63432,0.98707 6.08447,1.95265 8.27924,3.7617c2.66249,2.19458 5.08031,5.16152 8.20063,6.99569c0.85783,0.50424 2.00418,0.37396 2.84365,0.9082c0.91612,0.58302 1.38698,1.70215 2.26408,2.34237c2.6855,1.96021 6.55963,3.31698 7.62493,6.74059c0.24508,0.6127 0.49016,1.22541 0.73524,1.83811c0.08813,0.83252 0.54027,3.02038 2.85998,3.55647c-0.04923,0.16997 -0.10012,0.33954 -0.15304,0.50883c-0.50984,1.09985 -0.97486,2.25239 -1.44411,3.40312c-0.28872,0.5141 -0.6173,1.0331 -0.99543,1.56034l0.09318,-0.17014c0,0 -1.68809,1.68809 -1.15188,3.76014c-0.16822,1.20144 0.05279,2.91 2.19145,3.97933c3.57771,1.78886 5.36656,-1.78886 5.36656,-1.78886c0.56776,-1.13552 1.06295,-2.35163 1.55223,-3.57022c0.9015,-1.61049 1.63237,-3.28717 2.25133,-5.00797c1.08712,-1.9562 2.36243,-3.83677 3.0822,-5.95197c0.6593,-1.93752 0.69197,-4.04958 1.33127,-5.99379c1.03315,-3.142 2.7878,-6.19509 4.71432,-9.16037c0.41923,2.19005 0.45512,5.61035 0.2574,6.46984z" fill-opacity="0.65098" fill="#160a1f"></path><path d="" fill-opacity="0.65098" fill="#160a1f"></path></g><path d="M125.7415,287.65285l-0.03096,0.03262l0.03733,0.016l-0.97731,2.28037c-0.36946,0.9192 -1.26922,1.56816 -2.32056,1.56816c-1.30616,0 -2.37835,-1.00167 -2.49034,-2.27875l-0.33058,-3.30583l0.02416,-0.00242c-0.01139,-0.04053 -0.02254,-0.08112 -0.03347,-0.1218c-0.29887,-1.1132 -0.00267,-2.30525 -0.0031,-3.45787c-0.00217,-5.92939 0.15879,-11.46207 1.07006,-17.33346c0.39884,-2.56974 0.7599,-5.14821 1.28947,-7.69422c0.27646,-1.32911 0.0022,-2.97828 0.93603,-3.96364c1.83245,-1.93359 6.33852,-1.51501 8.53777,-1.50867c10.33678,0.0298 18.86854,5.79687 26.52784,12.18785c5.44357,3.90701 10.93825,10.13378 11.30067,17.15681c0.1272,2.46497 0.36442,6.15056 -2.11894,7.90911c-1.8985,1.3444 -8.40163,0.41882 -10.70956,0.4129c-9.26956,-0.02377 -18.40419,-2.96788 -27.69454,-3.01873c-1.03879,0.25722 -2.05082,0.6438 -3.01396,1.12158z" fill-opacity="0.14902" fill="#843cbb"></path></g><path d="" fill="#290b2d"></path><g><g><path d="M275.70953,256.63644c6.27173,-0.3525 12.28308,-0.54307 18.48857,0.6233c0.45762,-0.58427 1.16961,-0.95974 1.9693,-0.95974c1.05134,0 1.95111,0.64897 2.32056,1.56816l0.9773,2.28038l-0.03755,0.01609l0.05964,0.03716c0.00517,0.01378 0.01033,0.02755 0.01548,0.04133c0.00046,0.00059 0.00092,0.00118 0.00137,0.00177c0.28139,0.36685 0.71824,1.7374 1.14648,3.27181c1.96488,3.0602 2.91848,6.23795 3.94413,10.35193c0.63877,2.56215 1.39175,4.49864 1.64856,6.94808c1.24187,0.53873 1.40874,2.04056 1.40874,2.04056c0.36525,3.51409 2.5307,7.6548 0.64176,10.72503c-0.19658,1.08408 -1.09221,1.9247 -2.20306,2.03802c-0.06417,0.03712 -0.12962,0.0739 -0.19635,0.11033c-1.09263,0.59649 -2.48471,0.15735 -3.72706,0.23603h-0.33333c0,0 -0.40532,0 -0.88956,-0.16321c-3.62867,0.56434 -8.2663,-0.03771 -11.51208,-0.1521c-0.94833,0.08388 -1.88672,0.29366 -2.94689,0.77983l-0.53343,0.27154c0,0 -0.6742,0.3371 -1.4673,0.27089c-3.26635,1.85633 -6.47801,3.61401 -9.99926,5.12424l-2.16968,0.63707c-0.37654,0.16862 -0.76479,0.21847 -1.07414,0.22317c-0.32762,0.01456 -0.74677,-0.01622 -1.15493,-0.18633c-1.1321,-0.27026 -2.23953,-0.45936 -3.19537,-0.84418c-0.2344,0.03907 -0.39067,0.03907 -0.39067,0.03907l-3.83333,-2.5c0.13764,-1.34763 -0.23857,-2.85519 0.4129,-4.04289c0.3643,-0.66415 1.40946,-0.55459 2.09821,-0.89747c0.184,-0.22904 0.38005,-0.45357 0.58108,-0.67536c0.23195,-0.86492 -0.61211,-2.08529 -0.73955,-3.07419c-0.31073,-2.41116 -0.31874,-5.14329 -1.19735,-7.44272c-1.16868,-3.05856 -2.62763,-6.42059 -4.41953,-9.17382c-0.69693,-1.07082 -4.11802,-5.15376 -4.24552,-6.15514c-0.0244,-0.19161 -0.03715,-0.38288 -0.03994,-0.57386l-0.09766,0.01221l-0.32844,-2.62754c-0.01595,-0.11412 -0.0242,-0.2307 -0.0242,-0.34921c0,-1.38071 1.11929,-2.5 2.5,-2.5c0.47136,0 0.91226,0.13045 1.28855,0.35722l0.77178,-0.61591c3.25757,-0.71567 3.79837,-2.75645 6.89503,-4.17926c3.0903,-1.41989 6.35939,-0.71089 9.58677,-0.89228z" fill="#170619"></path><path d="M288.39545,294.97775c0.40115,-0.98293 1.06319,-1.92151 1.72906,-2.5982c0.99791,-1.01412 2.83111,-0.52083 4.2491,-0.40438c1.75669,0.14427 5.19067,0.48049 6.74225,2.22963c0.03474,-0.00433 0.06924,-0.00863 0.1035,-0.01291c0.39929,-0.54312 1.0867,-1.01902 2.25814,-0.87259c0.96542,0.12068 1.50816,0.5701 1.81099,1.07412c0.25218,0.15709 0.49295,0.37199 0.67974,0.666c0.34168,0.49953 0.39968,1.05475 0.36457,1.50444c-0.01621,0.60907 -0.18475,1.06374 -0.42735,1.40317c-0.24662,0.56137 -0.49323,1.12273 -0.73985,1.6841c-0.27703,1.45028 -0.71137,2.8444 -1.45966,3.45272c-0.80499,0.65442 -5.90138,0.52949 -7.2052,0.52949c-5.55555,0 -13.77777,0 -19.33333,0c-1.38071,0 -2.5,-1.11929 -2.5,-2.5c0,-0.94658 0.52607,-1.77028 1.30179,-2.19469l2.2912,-1.30926l0.03728,0.06525c0.0982,-0.07807 0.19865,-0.15365 0.30157,-0.22644c0.92926,-0.65723 2.21973,-0.50492 3.32711,-0.76798c1.73295,-0.41167 3.32349,-1.34153 5.07172,-1.68249c0.09904,-0.01931 0.64894,-0.03189 1.39738,-0.03996z" fill="#99712b"></path></g><g><path d="M192.23713,262.98197l2.86628,-0.31481c0.92634,-0.20653 1.85269,-0.41307 2.77903,-0.6196c3.02412,-0.8719 4.96626,-2.82346 7.9769,-3.66053c3.49899,-0.97285 7.47924,-1.00506 11.05361,-1.50165c3.77343,-0.52425 7.90774,-2.38849 11.32923,1.16818c0.05261,0.05469 0.17114,6.92255 0.06424,7.52584c-0.72882,4.11337 -3.01378,8.18204 -4.02676,12.12832c-0.76376,2.9754 -0.38143,6.8469 -0.52749,10.12379l1.75319,1.7175c-0.14055,3.09531 0.34001,10.42513 -3.54688,11.95999c-1.53139,0.60472 -3.213,-0.88283 -4.62943,-1.72223c-0.75806,-0.44924 -1.32514,-1.14603 -1.90975,-1.82007c-9.22843,0.00517 -18.84094,0.76779 -28.01274,-0.28868c-0.39114,0.02542 -0.83938,-0.05594 -1.34472,-0.30861c-0.01697,-0.00849 -0.03375,-0.01704 -0.05034,-0.02565c-0.38942,-0.18711 -0.82122,-0.49708 -1.08646,-1.00367c-0.27437,-0.5017 -0.29277,-1.03291 -0.23244,-1.46072c0.00203,-0.01858 0.00423,-0.03729 0.00658,-0.05612c0.06046,-0.48369 0.20344,-0.86128 0.39447,-1.15576c0.08595,-0.6876 0.1719,-1.37521 0.25785,-2.06281l0.06968,-2.74435c1.35518,-5.24935 0.32053,-10.94208 0.94102,-16.33977c0.06057,-0.52692 0.33053,-4.52933 1.31767,-5.19229v-2.19493v0c0,-1.38071 1.11929,-2.5 2.5,-2.5c0.55665,0 1.07081,0.18193 1.48626,0.48957c0.32679,-0.11381 0.57099,-0.14095 0.57099,-0.14095z" fill="#170619"></path><path d="M191.54058,300.87505c-1.47171,0.05239 -2.92942,0.09163 -4.3607,0.09163c0,0 -2.5,0 -2.5,-2.5c0,-2.5 2.5,-2.5 2.5,-2.5c6.63083,0 13.72283,-0.73673 20.30546,0.01873c1.77993,0.20428 3.54172,0.66667 5.33333,0.66667l0.26722,0.19057l0.03366,-0.13465l2.61593,0.65398c1.1133,0.25265 1.9444,1.24829 1.9444,2.43804c0,1.38071 -1.11929,2.5 -2.5,2.5h-3c-2.03847,0.54904 -4.22222,0 -6.33333,0c-3.66667,0 -7.33333,0 -11,0h-1c0,0 -1.71863,0 -2.30597,-1.42497z" fill="#99712b"></path></g><path d="M201.28338,167.57596c-4.28109,-0.12514 -7.10944,-2.93494 -8.73112,-6.60699c-3.94945,-2.95581 -8.32635,-5.83666 -10.82911,-9.66583c-1.07204,-1.64021 -2.58792,-3.38695 -2.40329,-5.28136c0.01819,-0.18654 0.04328,-0.37162 0.07466,-0.5554c-1.02059,-1.44532 -1.83924,-2.92616 -2.38339,-4.43435c-2.53488,-7.02587 5.05165,-14.50768 9.27029,-19.01695c2.1746,-2.32443 3.2406,-5.39647 5.51443,-7.6431c5.88209,-5.81175 12.98298,-11.12258 19.19082,-16.69481c0,0 2.41021,-2.16344 5.12614,-0.82323c0.7669,-0.55499 1.74222,-0.88723 2.80402,-0.88723c2.46914,0 4.47077,1.7967 4.47077,4.01303c0,0.29814 -0.03621,0.58868 -0.10492,0.86828l-1.1741,5.26945l-0.09871,-0.01772l0.03577,0.26072c-4.16,11.23697 -9.413,21.73296 -14.46909,32.54797c-0.15202,0.32518 -0.31955,0.64274 -0.49999,0.95398c-1.01072,5.61291 -0.97781,11.32304 -0.97599,17.00573l3.91257,2.34131c1.23259,0.71454 2.04853,1.95852 2.04853,3.37356c0,1.94473 -1.54109,3.56636 -3.58688,3.93462l-5.27896,1.05299l-0.0411,-0.16599c-0.60879,0.12617 -1.23109,0.19007 -1.87129,0.17136z" fill="#671b72"></path><path d="M219.52062,81.6975c0.47349,-0.56084 0.94697,-1.12168 1.42046,-1.68253c0.71568,-1.45255 2.31157,-4.81566 3.16666,-5.89268c3.91622,-4.93267 10.09096,-5.90295 15.9256,-5.90562c3.98438,-0.00182 8.26693,-0.51937 12.18383,0.38741c6.3404,1.46784 12.53343,3.88859 18.83843,5.48661c4.60676,1.1676 9.63049,1.21446 14.36848,1.78119c0.79476,-0.01791 1.33525,0.29351 1.69919,0.6817c0.40305,0.34811 0.73649,0.87605 0.75047,1.67202l0.25163,1.5514c1.55781,6.23331 2.64735,12.5627 4.03796,18.84632c0.36416,3.05513 1.49007,4.72004 2.54806,7.55932c0.57509,1.54334 0.82867,3.81224 1.3578,5.40258c1.54332,4.63861 4.43324,8.79994 5.4131,13.62879c0.17202,0.84772 -0.22018,1.75444 -0.01582,2.59495c0.54585,2.24502 1.63393,4.08107 2.28311,6.2581c1.45043,0.57723 1.45043,2.31628 1.45043,2.31628v1.33333c-0.00222,0.93918 -0.00444,1.87836 -0.00667,2.81754c0.63762,4.30448 0.41967,8.97901 1.58087,13.17549c2.21761,8.01427 4.90163,15.96022 7.00235,24.00847c1.15453,4.42322 3.51068,9.15721 5.76072,13.09149c0.48637,0.85044 1.42668,2.3124 2.29435,3.8109c0.77855,0.53209 0.97148,1.44967 1.01929,1.87177c0.4727,0.94636 0.81584,1.80217 0.87585,2.39976c0.01425,0.14193 0.02506,0.28385 0.03272,0.42577l0.07316,-0.01219l0.33038,1.9823c0.1808,0.34004 0.37132,0.7118 0.56527,1.1416c1.51832,1.6056 3.07659,3.05249 3.97017,5.3856c0.33876,0.88448 0.1686,1.92602 0.57093,2.78346c0.5279,1.12506 2.75655,2.55914 3.51938,3.33803c1.43437,1.46456 2.30421,3.39294 3.3761,5.14034c1.50194,2.44846 2.95369,4.89391 4.36289,7.38283c0.98438,1.7386 2.97197,2.91563 3.55296,4.82722c0.9197,3.026 -0.12735,4.40343 -1.19621,6.9786c-0.58988,0.84549 -1.16939,1.70136 -1.72163,2.57384l-0.03754,0.15017l-0.04938,-0.01234c-0.07323,0.11654 -0.14596,0.23339 -0.21814,0.35055l0.01767,0.2872c-0.17193,0.18109 -0.34201,0.35866 -0.51058,0.53303c-0.28314,0.48384 -0.55577,0.9735 -0.81516,1.46998c0.17471,1.92972 -1.82962,2.50238 -1.82962,2.50238l-1.34517,0.37058l-0.81361,1.42382c-0.42441,0.77572 -1.24811,1.30179 -2.19469,1.30179c-0.21073,0 -0.41536,-0.02607 -0.61086,-0.07517c-0.13166,0.10301 -0.26451,0.20476 -0.39864,0.30515c-3.83107,1.92585 -7.9941,2.85868 -11.78662,4.73203c-0.10414,0.05144 -0.20797,0.10379 -0.31153,0.15699c-0.17423,0.96434 -1.22568,0.96434 -1.22568,0.96434l-0.47832,-0.00724c-3.30511,1.99693 -6.43167,4.59283 -10.07657,5.92531c-0.94209,0.3444 -1.92327,0.59043 -2.91394,0.81067c-1.16784,0.69448 -2.37413,1.19177 -3.66427,1.25512c-6.61616,2.26775 -13.86934,3.34032 -20.63051,4.66025c-2.87601,0.56146 -5.45842,2.41935 -8.31518,2.99636c-2.95992,0.59786 -5.71274,0.491 -8.66051,1.33204c-8.63812,1.23725 -17.37406,1.69415 -26.09403,1.69415c-3.81603,0 -7.85539,0.38097 -11.65273,-0.00937c-2.52495,-0.25954 -5.04962,-1.00809 -7.61132,-1.32777c-5.2336,-0.1807 -10.76139,-2.38429 -15.64163,-4.06386c-0.9878,-0.33996 -1.6799,-1.29166 -2.65628,-1.66315c-1.98599,-0.75562 -4.77564,-0.31243 -6.87081,-1.1076c-1.54367,-0.58587 -3.43794,-1.54143 -4.95959,-2.29355c0,0 -0.07157,-0.03578 -0.16944,-0.10735c-0.09885,-0.07022 -0.15543,-0.1268 -0.15543,-0.1268l0.00234,-0.00004c-0.03895,-0.03654 -0.07845,-0.07736 -0.11665,-0.12246c-0.84894,-0.3256 -1.5888,-0.93562 -2.44421,-1.25896c-1.30535,-0.49341 -2.76291,-0.5077 -4.0592,-1.02446c-5.6542,-2.25402 -11.25719,-5.82923 -15.8565,-9.76995c-4.0774,-2.00315 -8.96527,-3.90195 -12.20615,-7.17138c-0.95429,-0.9627 -1.34412,-2.35844 -2.11647,-3.47242c-1.51806,-2.18952 -4.18571,-3.28332 -5.89401,-5.2052c-1.85004,-2.08134 -2.34428,-4.60131 -3.5433,-6.96667c0,0 -0.55902,-1.11803 0.55902,-1.67705c0.40334,-0.20167 0.73392,-0.18508 0.99175,-0.08146c0.01064,-0.01165 0.01672,-0.01772 0.01672,-0.01772l0.21722,-0.19945c0.69896,-0.92566 0.98102,-2.21273 1.90792,-2.91005c0.7028,-0.52872 1.93942,-0.32871 2.41136,-1.07084c1.65861,-2.60822 3.02419,-5.42916 5.08581,-7.77295c1.09863,-1.249 2.91805,-2.07677 3.99922,-3.33246c1.28496,-1.49239 1.75196,-3.66423 2.91498,-5.22792c1.4271,-1.91876 3.05663,-3.40834 4.7364,-5.08811c3.00648,-3.9638 6.25217,-7.94589 9.29239,-11.95026c1.50868,-1.98713 1.51096,-4.65285 2.9712,-6.62829c0.65384,-0.88452 1.71757,-1.4219 2.33333,-2.33333c1.4813,-2.1926 2.12335,-4.74323 3.05937,-7.13977c0.83896,-2.14802 2.32499,-3.53923 3.14771,-5.64142c3.46612,-6.93965 6.55786,-13.86263 10.01163,-20.69181c1.78164,-3.52286 1.90202,-7.77647 3.6773,-11.35514c0,0 0.27693,-0.55386 0.83079,-0.68701c0.05493,-0.276 0.11373,-0.5626 0.177,-0.85242c0.62378,-3.97496 1.94678,-7.76048 2.89085,-11.84311c0.13425,-0.58055 0.57327,-3.79982 0.73686,-4.21686c0.6233,-1.589 1.75501,-3.24032 2.44095,-4.87765c0.76681,-1.83036 0.84088,-3.88593 1.5359,-5.73095c0.15868,-0.42124 0.34829,-0.81122 0.54927,-1.18469c0.23652,-0.91513 0.48489,-1.82673 0.75627,-2.73111c0.72905,-2.42956 1.52429,-4.92128 2.41389,-7.35496c0.32962,-1.1404 0.64707,-2.30535 0.89387,-3.5407l-0.02427,-0.08819c0,0 0,-1.17941 1.14563,-1.24698c0.6473,-1.16351 1.48789,-2.23649 1.92203,-3.49202c0.5119,-1.48044 0.7064,-3.081 1.39764,-4.48668c0,0 0.55902,-1.11803 1.67705,-0.55902c0.00584,0.00292 0.01163,0.00585 0.01738,0.0088zM296.41139,125.44009c-0.09299,-0.377 -0.1983,-0.75045 -0.31399,-1.12091c0.10396,0.37383 0.20861,0.74748 0.31399,1.12091z" fill="#290b2d"></path><path d="M149.02881,240.54395c-0.72617,-0.96092 -1.05867,-1.8448 -1.29552,-2.75316c-0.72794,-0.70169 -1.40748,-1.42542 -1.99306,-2.1886c-0.14293,-0.18628 -1.24167,-2.36381 -2.06097,-4.00051c-0.60457,-0.48509 -0.79431,-1.10119 -0.81767,-1.63808c-0.02749,-0.05514 -0.04917,-0.0986 -0.06431,-0.12889c0,0 -1.11803,-2.23607 1.11803,-3.3541c0.05177,-0.02589 0.10295,-0.04998 0.15352,-0.07233l0.05996,-0.13932c1.05435,-1.83519 2.30113,-3.56763 3.67308,-5.17925c0,0 1.62698,-1.89814 3.52512,-0.27116c1.89814,1.62698 0.27116,3.52512 0.27116,3.52512c-0.77663,0.89885 -1.51432,1.83964 -2.17502,2.82907c0.79045,2.03622 1.63618,4.05244 2.32735,6.12398c0.08742,0.26201 0.25089,1.04391 0.45819,1.88025c1.7856,1.62542 3.78007,3.15696 5.3237,4.83899c0.33977,0.37023 0.65727,0.76527 0.97057,1.16487c1.24411,0.61602 2.43914,1.20934 3.31683,1.83485l0.98134,0.93323c0,0 0.60016,0.60016 0.7514,1.45079c0.57078,0.27796 1.15228,0.53648 1.73586,0.7903c1.01192,-1.01958 2.53554,-0.5117 2.53554,-0.5117l0.51952,0.22435c2.28084,0.33891 4.65,1.13595 6.39063,2.64833c1.07474,0.93381 1.7227,2.63676 3.20869,3.1703c3.26122,1.17095 6.79417,1.30874 10.0754,2.69753c5.69767,2.41157 11.61314,6.40902 17.61325,7.87045c3.93911,0.95943 7.47066,1.04874 11.18665,2.85801c1.0879,0.54395 2.16766,1.07721 3.25473,1.58102c4.79144,0.52773 9.67567,0.57522 14.44924,0.82654c8.39967,0.44223 17.03174,1.52059 25.27027,-0.60462c5.22145,-1.1453 10.14789,-3.36433 15.44867,-4.3577c6.71254,-1.25794 13.86412,-1.25607 20.40125,-3.26857c4.64427,-1.42977 8.94825,-5.0431 13.15078,-7.44454l1.57368,-0.32939c0,0 1.82402,0 2.35601,1.55802c3.43067,-0.70294 6.88183,-1.54131 9.68221,-3.1964c1.57046,-0.92818 2.67936,-2.49087 4.16233,-3.55325c0.22361,-0.16019 0.45689,-0.31875 0.69706,-0.47682l0.72822,-2.60881c2.67074,-3.98127 4.98723,-8.36878 7.13811,-12.6741c0,0 0.11394,-0.22787 0.34181,-0.50176c-1.71773,-6.58764 -6.19385,-11.89943 -9.31578,-17.87823c-1.21045,-2.31813 -4.12682,-6.87814 -4.87288,-9.52698c-0.24707,-0.87721 0.19365,-1.84727 -0.01687,-2.73395c-0.45013,-1.8959 -1.62445,-3.55481 -2.65914,-5.20601c-3.47084,-5.5389 -6.91072,-11.0546 -7.72091,-17.71862c-0.00059,-0.00417 -0.00086,-0.00633 -0.00086,-0.00633l-0.31013,-2.51771c-0.53706,-2.13964 -0.73828,-4.35542 -1.29376,-6.49036c-0.60135,-2.31125 -1.83554,-4.43519 -2.35721,-6.76571c-0.41912,-1.87236 -0.73075,-3.78349 -0.99874,-5.70466c-2.10938,0.27644 -2.65149,-1.89198 -2.65149,-1.89198l-0.36765,-1.49246c-0.29227,-1.62382 -0.61819,-3.03674 -1.04668,-4.40646c-0.04443,-0.05763 -0.089,-0.11515 -0.1337,-0.17257l-0.59602,-1.08348c0,0 -0.33153,-0.66305 -0.27246,-1.44756c-0.25063,-0.58481 -0.52763,-1.18165 -0.83619,-1.8031c-0.23319,-0.93276 -0.57516,-1.83148 -0.94097,-2.72286c-0.66118,-0.39725 -1.12353,-1.09161 -1.20236,-1.89841l-0.22297,-2.00677c-0.09628,-0.4515 -0.16752,-0.90972 -0.22929,-1.37064c-1.72076,-6.65742 -4.15276,-13.19813 -6.50487,-19.7669c-0.33508,-0.62364 -0.64238,-1.25338 -0.89792,-1.89672c-0.06177,-0.15551 -0.11565,-0.34793 -0.16317,-0.56837c-1.39692,-3.13541 -2.85909,-6.24816 -3.87321,-9.53649c-0.68799,-2.23083 -0.61126,-4.6322 -1.06756,-6.92168c-0.6311,-3.16649 -1.72204,-5.96536 -2.03915,-9.24944c-0.10196,-1.05595 -0.55365,-2.16447 -0.47705,-3.19988c-0.06471,-0.48105 -0.12538,-0.95523 -0.18412,-1.41912c0,0 -0.24874,-1.98995 1.48162,-2.62807l0.29634,-0.81493c0.01101,-0.03264 0.02267,-0.06497 0.03498,-0.09699c0.24366,-0.71716 0.84591,-1.60343 2.33442,-1.60343c1.48852,0 2.09076,0.88627 2.33442,1.60343c0.04232,0.11011 0.07707,0.22398 0.10362,0.34096l0.65398,2.61593l-0.01112,0.00278l0.01888,0.02918c0.93924,4.2282 2.56175,8.38492 3.05121,12.62827c0.09001,0.78036 0.17527,1.53855 0.26018,2.28243c0.53482,1.76732 0.54754,3.68783 1.24211,5.3988c1.05036,2.5874 2.81303,5.26633 3.43702,7.9851c1.05302,4.5881 1.30037,10.17582 3.4721,14.48122c0.94649,1.8764 2.39266,3.47139 3.34032,5.3472l0.26393,1.7847c0,0 0,0.08636 -0.01605,0.22697c0.98615,2.13855 1.81458,4.36936 2.82575,6.81632c0.52184,1.26282 1.93223,4.32738 2.15019,5.51065c0.48859,2.65255 0.79179,5.39437 1.13062,8.13646c2.20815,4.89104 3.43255,9.99863 4.83778,15.71513c0.77063,3.13492 2.80191,6.04246 3.91596,9.0592c1.18062,3.19702 1.3287,4.67483 3.48352,7.27844c3.62095,9.34825 8.52247,17.72306 12.4596,26.91458c2.22151,5.18627 4.77325,10.09542 6.70388,15.42231c0.39289,1.08403 1.15908,2.10036 1.17541,3.25327c0.00781,0.55117 -0.21684,1.05918 -0.47053,1.56445c0.07861,0.05473 0.15786,0.11516 0.23766,0.18166c1.92055,1.60046 0.32009,3.52101 0.32009,3.52101c-0.73346,0.87958 -1.40991,1.81287 -2.06266,2.7661c0.51864,1.07575 0.76127,2.42641 0.97359,3.5375c0.2506,1.31139 -0.36494,2.68756 -0.93574,3.89451c-1.52539,3.22536 -4.82503,4.05245 -7.28979,6.1174c-0.6968,0.58377 -1.02238,1.55482 -1.76535,2.07856c-2.35741,1.66182 -5.20714,2.48505 -7.85221,3.63512c-7.67173,3.33565 -15.35318,5.43362 -23.43992,7.47611c-8.19298,1.60471 -15.58236,5.19428 -23.96638,6.0485l-1.88236,0.01219c-0.011,0.00014 -0.02203,0.00021 -0.03306,0.00021c-0.31597,0 -0.61826,-0.05862 -0.89657,-0.16558c-0.14136,-0.04803 -0.28929,-0.10999 -0.43572,-0.18993c-0.02927,0.00391 -0.0587,0.00732 -0.08828,0.01021l-2.95788,0.32865c-3.18595,0.39262 -6.38921,0.9169 -9.57691,1.49985c-1.389,0.48722 -2.7998,0.91093 -4.31506,1.15185c-3.39035,0.53906 -6.87769,0.69507 -10.36528,0.72705c-5.22425,0.38035 -10.4591,0.63788 -15.69763,0.63788c-4.19984,0 -8.84545,0.3788 -12.95773,-0.7459c-7.06529,-1.93233 -13.52983,-5.56079 -20.64861,-7.32875c0,0 -0.13026,-0.03257 -0.32286,-0.11279c-0.19456,-0.07534 -0.31114,-0.14196 -0.31114,-0.14196l-2.27263,-1.29975c-1.634,-0.82705 -2.98896,-2.14012 -4.61892,-2.97511c-1.52488,-0.78116 -3.33851,-0.77319 -4.99955,-1.19324c-2.55856,-1.0877 -4.6975,-1.49502 -7.25968,-2.30978c-4.41859,-1.40509 -6.88311,-4.82175 -10.78193,-6.8517c-2.72403,-1.41828 -5.74721,-2.3446 -8.26706,-4.16416c-1.211,-0.87445 -2.16862,-2.03922 -3.12812,-3.19961c-2.30885,-1.2086 -4.67162,-2.45595 -6.10295,-4.34999z" fill="#51165a"></path><path d="M227.8876,64.13335l-2.83333,2.5c0,0 -0.94131,0 -1.66872,-0.5776l-1.38853,0.22898c-3.30169,0.34317 -5.76959,1.66101 -9.18909,1.33646c-1.48965,-0.14138 -6.50019,-1.30859 -7.70229,-2.00821c-2.73195,-1.59 -3.89079,-4.88162 -5.69685,-7.28512c-0.64383,-0.8568 -1.56176,-1.54606 -1.9811,-2.53235c-0.44244,-1.04061 -0.34718,-2.23471 -0.52077,-3.35206c0,0 -0.18108,-1.4486 0.84049,-2.27023c1.07024,-2.26791 4.60706,-3.18404 6.70865,-4.02648c4.62042,-1.85213 9.03875,-4.02697 13.48018,-6.24944l1.33343,-0.16616c0.78156,-0.30293 1.44697,-0.11725 1.93471,0.16735c0.44916,0.20184 0.91564,0.55735 1.16546,1.18351c4.81782,7.0075 5.51777,14.65225 5.51777,23.05137z" fill="#671b72"></path><path d="M325.28334,118.3h-2v-0.18799c-0.21736,0.04188 -0.43777,0.06828 -0.66201,0.07525c-0.19861,0.00618 -0.37768,-0.04733 -0.54455,-0.13903c-2.11428,0.70485 -4.38775,0.72391 -7.03858,-0.63483c-0.93328,-0.47838 -2.06988,-0.87771 -2.58755,-1.78979c-0.08507,-0.14988 -0.15981,-0.30375 -0.22594,-0.46096l-0.06356,0.03178l-0.6151,-1.23021c-1.89489,-0.09713 -3.73948,-0.24709 -5.74571,-1.17174c-1.55751,-0.71783 -2.92686,-1.65463 -4.24727,-2.65342c-3.55778,-0.77026 -7.08909,-1.98852 -9.8939,-3.49964c-5.49468,-2.96033 -10.04291,-6.16085 -16.22106,-7.53583c0,0 -1.07305,-0.23846 -1.88578,0.36799c-0.26234,-1.09382 -0.30402,-2.29445 -0.59011,-3.37678l0.0288,-0.123l-0.05159,0.0094l-0.47789,-2.6235c-0.32167,-1.76587 0.84909,-3.45815 2.61496,-3.77981c0.19873,-0.0362 0.39652,-0.0535 0.59154,-0.05317c0.9043,-4.13397 1.80433,-9.20549 4.80752,-12.22098c2.50637,-2.51664 6.02329,-3.01737 9.32395,-3.62168c0.02631,-0.00481 0.05265,-0.00961 0.07902,-0.01438c0.17063,-0.4821 0.49929,-0.97758 1.06412,-1.45269c2.48714,-2.09204 4.57918,0.39511 4.57918,0.39511c0.11984,0.15392 0.23476,0.29666 0.34565,0.4291c4.76892,-0.15595 9.7845,0.48701 13.97379,2.26217c1.73426,0.73488 3.5968,1.74112 5.44085,2.83527l0.00479,-0.02094l2.60405,0.59521c0.61973,-0.44086 1.33442,-0.81479 1.88882,-1.30475c2.13766,-1.88918 4.67319,-4.11866 7.15666,-5.53568c1.58507,-0.90441 5.83599,-1.53551 6.93591,-3.49406c0.50131,-0.89266 0.46158,-2.0146 0.91815,-2.93096c0.95014,-1.90695 2.65927,-3.32946 3.99833,-4.98661c0.4765,-0.58969 0.9234,-1.20665 1.34791,-1.84238c-0.11977,-0.52952 -0.14315,-1.10173 -0.17141,-1.66982c-0.71638,-1.3008 -1.73741,-2.41942 -2.70583,-3.83388c-1.12377,-0.39613 -2.31754,-0.70367 -2.91682,-1.65074c-1.01088,-1.59756 -2.20399,-3.79546 -1.38568,-5.4997c4.19012,-8.72642 7.34317,-2.85577 9.67676,1.04287c2.50403,-0.68675 4.89264,-1.64095 7.46094,-2.25966c2.43935,-0.58764 5.47379,-0.45783 7.79583,-1.37116c7.14719,-2.8112 14.09926,-7.62889 22.10791,-6.30249l2.27789,0.14312c1.0479,-0.06542 1.77176,0.30829 2.26636,0.79583c0.54045,0.43455 0.99448,1.10924 1.05122,2.1551c0.66046,3.62578 1.32093,7.25155 1.98139,10.87733l0.47789,2.6235c0.20227,1.11044 -0.05135,1.90548 -0.4686,2.47026c-0.38137,0.58961 -1.03591,1.10728 -2.14635,1.30956c-3.00723,0.54779 -7.05288,0.58549 -9.79256,1.95731l-0.00001,-0.00002c-0.79268,0.39691 -1.20385,1.31489 -1.91069,1.84991c-1.63528,1.23775 -3.53335,2.09831 -5.17632,3.32581c-1.51093,1.12886 -5.24374,4.92825 -6.63429,4.37273c-0.36172,-0.14451 -0.69411,-0.34024 -0.99922,-0.57697c-0.40992,0.36078 -0.78014,0.75434 -1.07209,1.21229c-0.82247,1.29009 -1.56426,2.62869 -2.30078,3.97061c1.67466,2.49818 -0.79143,4.34901 -0.79143,4.34901l-0.02395,-0.10335c-1.43629,1.75951 -2.51662,3.57125 -3.46192,5.44385c-0.73922,2.56985 -1.42465,5.16819 -2.72867,7.58593c-0.02286,0.10314 -0.04852,0.2001 -0.07512,0.28959l0.01045,0.00317c0,0 -0.03677,0.12621 -0.12089,0.32048c-0.07643,0.19742 -0.13882,0.31314 -0.13882,0.31314c-1.85099,3.41247 -3.39162,7.67839 -5.51354,11.44247c-0.6357,4.50927 -1.22164,9.07281 -4.75581,11.91835c-3.99168,3.21392 -8.87537,3.37902 -13.64256,2.89584c-0.30012,0.17987 -0.65132,0.28327 -1.02667,0.28327z" fill="#671b72"></path><path d="M306.29035,76.34556c-1.11803,2.23607 -3.3541,1.11803 -3.3541,1.11803l-0.15497,-0.14405c-2.80028,-0.72292 -7.10025,-1.31803 -9.95269,-0.38162c-0.79878,0.26222 -1.39499,0.96373 -2.17555,1.27601c-2.31855,0.92758 -4.91508,1.60946 -6.69813,3.63766c-1.07496,1.22276 -1.0112,3.34304 -1.59972,4.68692c-0.4007,0.91499 -1.24688,1.5964 -1.61192,2.5262c-0.66446,1.69246 -0.07219,3.66721 -0.48123,5.43574c0.62558,0.73432 0.62558,1.72706 0.62558,1.72706c-0.02073,1.45509 0.19924,2.9319 0.63866,4.32029l1.75041,2.04215c0.38059,0.43866 0.61093,1.01121 0.61093,1.63756c0,1.38071 -1.11929,2.5 -2.5,2.5h-3v-0.11881c-0.28268,0.01214 -0.56629,0.00375 -0.85106,-0.03051c-2.62273,-0.31555 -4.04446,-2.70927 -4.79969,-5.40665c-0.99158,-0.40692 -1.96527,-0.86738 -2.948,-1.29095c-1.10854,-0.47779 -2.61052,-0.26875 -3.4332,-1.15211c-2.07169,-2.22447 -1.80138,-4.87245 -1.80138,-7.50097c0,-2.89893 0.424,-6.92224 1.71715,-9.68879c0.10715,-2.55501 0.44536,-5.24756 1.52551,-7.38564c1.01563,-2.01037 2.90757,-3.44793 4.50189,-5.0389c1.74231,-1.73865 5.45605,-6.3009 8.49654,-5.70656c0.24445,0.04778 0.48401,0.10979 0.71948,0.18368l0.02971,-0.14857l3.28792,0.65758c0.36529,0.06561 0.70303,0.21057 0.99475,0.41639c2.2937,-0.2307 4.65876,-0.12072 7.04905,-0.11769c1.267,0.50412 2.43369,0.83464 3.34313,1.16286c2.16174,0.26283 4.18077,1.16566 4.93805,2.9808c0.44839,1.07475 0.95267,2.33611 1.1644,3.56292c0.57724,0.11065 1.13683,0.23291 1.67208,0.36324l1.17836,0.52262c0,0 2.23607,1.11803 1.11803,3.3541z" fill="#170619"></path><path d="M223.96089,119.30972c-4.01558,5.12661 -12.91121,11.41637 -19.74787,8.80004c-3.22017,-1.23233 -4.51447,-4.97684 -7.58339,-6.28435c-0.25353,-0.10802 -0.60319,-0.19788 -0.99006,-0.2735l-0.58083,0.87124c-0.31159,0.48248 -0.85407,0.80186 -1.47114,0.80186c-0.86021,0 -1.57547,-0.62066 -1.72237,-1.43859l-0.10856,-0.5428c-1.55692,-0.26756 -2.81325,-3.23326 -2.63749,-4.59956c0.04577,-0.35582 2.68637,-3.18707 3.03795,-3.67715c0.70876,-0.98796 1.21903,-2.13834 1.74194,-3.27078c0.68265,-2.10423 1.14965,-4.32889 2.13996,-6.28624c0.93334,-1.84475 2.65804,-3.64714 3.82203,-5.37517c0.13702,-0.298 0.27924,-0.59065 0.42867,-0.87617c0.82532,-1.57691 1.6801,-3.12589 2.54619,-4.66127c-0.0215,-1.56012 -0.23654,-4.35886 0.07745,-6.72471c-0.35362,-0.32021 -0.57576,-0.78295 -0.57576,-1.29758c0,-0.25857 0.05608,-0.50404 0.15674,-0.72492l0.73476,-1.71444l0.06788,0.02909l0.00188,-0.17327c2.93246,-4.39869 4.24096,-10.03419 8.0513,-13.9039c2.33484,-2.37122 5.47442,-5.69611 8.4039,-7.3013c1.85108,-1.01429 4.0035,-1.71777 6.07241,-2.42661c-1.24925,-1.60726 -3.05128,-1.99995 -4.52771,-3.60085c-2.49845,-2.70907 -2.75911,-6.41649 -2.74503,-9.99374c-2.68634,-1.26339 -6.63346,-2.45888 -8.00907,-5.11432c-1.99299,-3.84723 -0.57237,-10.12669 0.3088,-14.08932c-2.15451,-1.3573 -5.90144,-4.06148 -3.57565,-6.89704c0.79052,-0.96379 2.48588,-0.38826 3.72841,-0.28859c2.25196,0.18065 4.40777,1.42919 6.83136,1.01279v-0.06361h0.12382c-0.01395,-0.26771 0.00492,-0.53472 0.07014,-0.80077c0.23695,-0.96667 1.51677,-1.29094 2.31197,-1.88948c1.5311,-1.15245 3.17995,-1.75863 4.87092,-2.28503c0.7133,-0.45567 1.46093,-0.85666 2.266,-1.16603c1.86061,-0.71497 4.06012,-1.03825 5.84711,-1.93504c2.0979,-1.05281 3.08634,-1.563 5.23681,-1.65741c1.44612,-0.55314 2.86613,-1.14638 4.22541,-1.82381c2.59191,-1.29175 6.1698,-2.42285 9.1999,-1.64563c2.93191,0.75203 5.50556,2.88999 7.58537,4.96575l0.30643,0.90185c5.71066,1.00258 11.81455,5.19932 14.29451,10.60106c1.17999,2.57021 1.08885,5.43939 2.26079,8.02379l0.56103,1.65734c0,0 0.03543,0.10628 0.06146,0.27401c0.02834,0.16736 0.02834,0.27939 0.02834,0.27939c0,2.7545 -0.82425,7.09215 0.94255,9.50926c2.09606,2.86757 5.93007,4.36446 7.95362,7.18565c2.09678,2.92328 2.10383,6.16683 2.10383,9.55509v1.87771c0.08187,0.58274 0.16373,1.16549 0.2456,1.74823l-0.49395,0.0351c-0.00417,0.02956 -0.00881,0.05922 -0.01388,0.08895h0.51223v1.75c0,0.9665 -0.7835,1.75 -1.75,1.75c-0.64243,0 -1.20401,-0.34617 -1.50838,-0.86215c-1.31609,1.30114 -3.20057,1.80245 -4.68892,2.6672c-0.53107,0.30856 -4.15946,3.49896 -4.47899,3.83963c-3.63151,3.8718 -4.79036,10.96406 -5.33765,16.07572l-0.25365,1.77709c0,0 -0.24749,1.73241 -1.9799,1.48492c-0.3971,-0.05673 -0.69018,-0.19148 -0.90606,-0.3655c-1.12706,3.52301 -1.09215,7.44185 -1.09978,11.24752l0.23639,1.89112c0.01116,0.07988 0.01694,0.16149 0.01694,0.24445c0,0.9665 -0.7835,1.75 -1.75,1.75c-0.48325,0 -0.92075,-0.19588 -1.23744,-0.51256l-1.25,-1.25l0.05289,-0.05289c-0.09855,-0.07485 -0.19431,-0.15368 -0.28681,-0.23712c-0.48754,-0.43979 -0.25965,-1.33129 -0.64948,-1.85963c-0.43015,-0.58298 -1.48201,-0.65268 -1.71131,-1.33993c-0.42278,-1.2671 0.34738,-4.99412 0.61678,-6.34427c0.08852,-0.44365 0.15145,-1.1831 0.35885,-1.8435c-0.04167,0.04287 -0.08118,0.07939 -0.11719,0.10738c-0.58243,0.45268 -1.32542,0.67866 -1.88507,1.15922c-1.20006,1.03047 -2.38442,2.10503 -3.73856,2.92254c-2.04123,1.23232 -3.1781,1.98235 -4.46241,3.99484l-0.02303,0.01822l0.00682,0.00487l-1.23644,1.73102c-0.3161,0.45439 -0.84211,0.75181 -1.43759,0.75181c-0.89129,0 -1.62696,-0.66631 -1.73605,-1.52798l-0.24636,-1.72453l0.07113,-0.01016c-0.02156,-0.09655 -0.03924,-0.19405 -0.0525,-0.29263c-0.02899,0.0266 -0.05816,0.05336 -0.0875,0.08029c-2.80108,2.57048 -3.75932,5.92977 -7.40686,7.78561c-3.25811,1.6577 -10.20032,3.37664 -10.04185,7.9394v0.75c0,0 0,1.75 -1.75,1.75c-0.71495,0 -1.13781,-0.29209 -1.38792,-0.6376c-0.57856,0.95023 -1.106,1.80277 -1.23879,1.97231zM209.15579,81.21836c-0.02841,0.02575 -0.05678,0.0515 -0.08511,0.07726c0.00803,0.01278 0.0159,0.02568 0.0236,0.03868c0.02047,-0.0386 0.04098,-0.07724 0.06151,-0.11594z" fill="#400d48"></path><path d="M352.30373,72.67164c-0.32504,-0.1768 -0.64618,-0.3697 -0.96198,-0.57429c-3.34954,-1.51148 -7.04519,-2.55914 -9.93018,-4.91629c-1.51431,0.25781 -3.0265,0.5282 -4.53728,0.80591l-2.6235,0.47789v0c-1.76587,0.32167 -3.45815,-0.84909 -3.77981,-2.61496c-0.19297,-1.05938 0.15118,-2.09226 0.83872,-2.81863l2.23938,-2.41777l0.03544,0.03282c0.05606,-0.08021 0.11354,-0.15957 0.17254,-0.23802c1.06429,-1.41545 2.72504,-2.29523 4.26925,-3.16221c0.6977,-0.39171 1.42016,-0.71275 2.15971,-0.9671c6.57902,-2.73893 13.05524,-2.58223 19.59765,0.51817c1.88848,0.89494 3.77487,1.98816 5.13137,3.45423c2.00691,0.83853 3.52008,2.40708 3.95628,5.40161c0.21561,1.48014 -0.72067,2.90343 -1.08101,4.35515c-2.02425,3.64208 -4.32808,8.6454 -9.14914,9.2359c-2.07679,0.25437 -4.72729,1.09642 -6.26885,-0.31827c-1.16984,-1.07356 -0.58457,-3.80548 -0.06855,-6.25412z" fill="#170619"></path><path d="M200.71809,53.83262c-0.78262,-1.56525 0.78262,-2.34787 0.78262,-2.34787l0.87852,-0.33886c0.44444,-0.44444 0.88889,-0.88889 1.33333,-1.33333c0,0 1.23744,-1.23744 2.47487,0c1.23744,1.23744 0,2.47487 0,2.47487c-0.44444,0.44444 -0.88889,0.88889 -1.33333,1.33333l-1.78815,0.99448c0,0 -1.56525,0.78262 -2.34787,-0.78262z" fill="#331240"></path><path d="M293.64387,68.04546c-0.3288,-1.97279 1.64399,-2.30159 1.64399,-2.30159c1.04129,-0.06524 2.25241,-0.7694 3.12386,-0.19572c1.30039,0.85605 1.69093,2.61459 2.53639,3.92189l-0.88072,0.80721l0.44434,0.35547l-1.32179,1.65224c-0.36617,0.46584 -0.93479,0.76504 -1.57328,0.76504c-1.00387,0 -1.83499,-0.7396 -1.97819,-1.70363l-0.27501,-1.65007c-0.60948,-0.06275 -1.50727,-0.37696 -1.71958,-1.65083z" fill="#99712b"></path><path d="M284.28334,68.38333c0.50257,0 0.87885,0.12629 1.16058,0.31539c0.13624,-0.13627 0.30537,-0.2661 0.51381,-0.38521c1.73649,-0.99228 2.72876,0.74421 2.72876,0.74421c0.53189,1.13148 1.73461,2.15193 1.59566,3.39445c-0.32586,2.91382 -3.60092,5.61275 -6.56297,3.50757c-1.08736,-0.77281 -0.91742,-2.50534 -1.37613,-3.75801l-0.05971,-1.8184c0,0 0,-2 2,-2z" fill="#99712b"></path><path d="M274.61668,85.38333c0,-0.37476 0.07022,-0.67929 0.18435,-0.92676c-0.29588,-0.2963 -0.51768,-0.74053 -0.51768,-1.40657c0,-2 2,-2 2,-2c2.49549,0.29724 6.31516,-0.24556 4.38008,5.03161c-0.41504,1.13185 -2.25641,0.84967 -3.38461,1.27451l-0.66213,0.02721c0,0 -2,0 -2,-2z" fill="#99712b"></path><path d="M361.81059,64.01809c0.27933,-0.18133 0.64932,-0.30142 1.13941,-0.30142c2,0 2,2 2,2c-0.0667,2.00486 0.38779,6.07185 -3.51619,5.99162c-1.47401,-0.03029 -1.77029,-2.35808 -2.65543,-3.53712l1.75741,-3.53539c0,0 0.53445,-0.53445 1.2748,-0.6177z" fill="#99712b"></path><path d="M354.28072,59.4334l-0.10002,1.91572c-0.42159,0.96268 -0.32508,2.41744 -1.26477,2.88805c-5.41998,2.71436 -5.91413,-0.78048 -4.3086,-4.61183c0.41142,-0.9818 1.59709,-1.40786 2.39564,-2.11179c0,0 1.53644,-1.28037 2.81681,0.25607c0.51526,0.61832 0.57434,1.19516 0.46094,1.66377z" fill="#99712b"></path><path d="M340.28077,58.27393c1.1094,1.6641 -0.5547,2.7735 -0.5547,2.7735l-0.1094,-0.99743v2c0,1.10457 -0.89543,2 -2,2c-1.10457,0 -2,-0.89543 -2,-2v-2c0,0 0,-1.7223 1.59827,-1.97038l0.29233,-0.36039c0,0 1.6641,-1.1094 2.7735,0.5547z" fill="#99712b"></path></g><g fill-opacity="0.37647" fill="#160a1f"><path d="M234.95,94.3c0,1.11071 0.01079,2.22149 0.00295,3.33216c0.51881,-0.72148 1.10606,-1.36103 1.87573,-1.78681c0.12568,-0.06953 0.25277,-0.13574 0.38114,-0.19892l-0.05982,-0.07975l2.64242,-1.98182c0.35778,-0.27444 0.77918,-0.47008 1.23825,-0.56098c0.4715,-1.04518 0.93589,-2.09264 1.38557,-3.14465c0.27959,-2.08049 0.70761,-4.13986 1.34222,-6.15732c0.5274,-1.67664 1.17667,-3.3149 1.8582,-4.942v-1.4799c0,-1.22515 0.7344,-2.27877 1.78699,-2.74465c0.92773,-2.25409 1.76845,-4.53205 2.28445,-6.90614c0,0 0.65079,-2.92856 3.57935,-2.27777c2.92856,0.65079 2.27777,3.57935 2.27777,3.57935c-0.80579,3.5608 -2.24396,6.89494 -3.64906,10.25146c1.19323,0.39625 2.05383,1.5215 2.05383,2.84774c0,0.12687 -0.00787,0.25189 -0.02316,0.37462l-0.32852,2.95668l-0.04941,-0.00549c0.00771,0.0681 0.01454,0.13638 0.02045,0.20484c0.19818,2.29418 -1.59637,5.45644 -2.60275,7.47766c-0.00106,0.00213 -0.00212,0.00426 -0.00318,0.00639c0.03124,1.03308 0.10483,2.07083 0.09062,3.10074c1.10456,-0.40738 2.51786,-0.9654 2.8489,-1.30852c0.58013,-0.60129 1.02999,-1.28961 1.40824,-2.02291c0.41511,-1.20973 0.9153,-2.47028 1.50198,-3.68301c0.24791,-0.63812 0.51093,-1.26107 0.82247,-1.84491c0.2327,-0.43608 0.48067,-0.86322 0.7385,-1.28458c-0.52588,-1.48001 0.56658,-2.84559 0.56658,-2.84559c3.30151,-4.07721 5.35838,-8.86238 8.46298,-13.15146l0.34652,-0.15197l-0.08593,-0.10026l2.32063,-1.98911c0.13036,-0.1131 0.27056,-0.21514 0.41917,-0.30466c1.96136,-2.60391 4.42983,-4.74109 7.3062,-5.95462c0.13842,-3.69501 -1.05802,-8.51505 5.04232,-8.22075c3.65809,0.17648 5.09616,3.87652 5.1712,7.37923c1.00198,0.4858 1.69286,1.51273 1.69286,2.70102c0,1.4277 -0.99731,2.62247 -2.33327,2.92565l-0.85186,0.21296c-2.44385,3.56825 -7.6315,6.12642 -11.05601,8.74187c-0.25437,0.73223 -0.51774,1.39955 -0.82079,1.94127c-1.04012,1.81833 -1.90752,3.96781 -2.99089,5.91229c0.00469,0.01184 0.00938,0.02364 0.01409,0.03541c0.38944,0.97419 0.03247,2.09808 0.03874,3.14721c0.01727,2.88856 0,5.77803 0,8.66667v3c0,0 0,3 -3,3c-0.04695,0 -0.09316,-0.00073 -0.13864,-0.00218c-0.18657,0.3058 -0.39072,0.62183 -0.60715,0.93976c-0.03891,0.63955 -0.07687,1.23008 -0.10005,1.75037l-0.84965,0.62136l0.3335,0.27791l-1.652,1.9824c-0.5502,0.6698 -1.38487,1.09705 -2.31933,1.09705c-1.51773,0 -2.77222,-1.12705 -2.9722,-2.58987l-0.15342,-0.99723c-1.75187,1.4616 -4.63345,2.71591 -6.76124,3.61582c0.79876,5.46007 2.41752,11.53878 5.93765,15.9003c1.96505,2.43474 5.09227,4.22572 6.80487,6.86349c0.76999,1.18596 1.11709,2.5988 1.64227,3.91708l1.22005,-0.47231c0,0 1.18967,-0.39656 2.28707,0.09227c1.28028,-0.591 2.59182,-1.13707 3.89502,-1.68934c2.06011,-2.14868 4.70281,-3.36711 6.99339,-5.69287c1.93383,-1.96353 3.35789,-4.4965 5.37359,-6.3723c1.25302,-1.16606 2.6902,-2.15529 3.82597,-3.43076c3.07951,11.43785 8.51082,21.98653 12.85779,33.00306c0.01556,0.03944 0.03109,0.0789 0.04658,0.11838c-0.42249,0.26386 -0.87467,0.49107 -1.33862,0.70375c-0.11238,1.55439 -1.40905,2.78054 -2.9921,2.78054c-0.45707,0 -0.89027,-0.10222 -1.27798,-0.28504l-2.36398,-1.05066c-0.24346,0.18834 -0.49525,0.36815 -0.75578,0.53866c-1.96955,1.28902 -4.1051,2.01391 -6.14038,3.0751c-1.00003,0.92878 -1.89845,1.80888 -2.50153,2.32618c-1.30254,1.11727 -2.65916,2.08677 -4.03888,2.99217c-0.99801,0.98097 -2.00966,1.94571 -3.11488,2.79863c-1.40539,1.08458 -3.10691,1.67698 -4.80943,2.25811c-0.60063,0.42772 -1.19419,0.87418 -1.77798,1.34666c-1.78233,1.4425 -3.23352,2.95268 -4.85774,4.32545c-1.19609,3.11936 -2.22381,6.61419 -4.95521,7.90807c-3.79373,1.79712 -7.44452,0.60888 -10.74729,-1.65024c-2.5064,1.8668 -5.08857,3.56589 -7.51614,5.49968c-0.37593,1.90351 -0.78731,3.79682 -1.24033,5.67602c-1.8759,7.78156 -5.66959,15.44895 -6.57492,23.42762l0.0058,3.14692c0,0 0,1.70554 -1.28598,2.54467c-1.52409,6.28217 -2.88662,12.727 -4.10001,19.01494c-0.80054,4.14846 -0.79294,8.58427 -1.29895,12.77096c-0.55341,4.57894 -1.84812,9.03719 -2.69941,13.55362c-0.57978,3.07601 -0.70569,5.84771 -1.59456,8.83722c0.12157,0.82647 -0.13291,1.4707 -0.48804,1.94888c-0.32073,0.55104 -0.86177,1.07102 -1.77442,1.2573c-1.00508,0.44356 -1.97556,1.10971 -3.05539,1.07219c-5.70476,-0.19822 -10.38502,-5.26108 -15.63098,-6.8135c-2.75993,-0.81673 -6.08897,-1.67671 -8.95646,-2.23729c-1.08073,-0.21128 -2.26672,-0.04342 -3.26386,-0.51069c-0.0377,-0.01767 -0.07517,-0.0357 -0.11242,-0.05408c-1.06201,0.50082 -2.23036,0.16701 -2.23036,0.16701l-3.25288,-1.11004c-1.89298,-1.37987 -4.20872,-2.05847 -6.30187,-3.11022c-2.77566,-1.39469 -5.15642,-3.58108 -7.95835,-4.97886c-1.511,-0.75378 -4.63129,-1.76209 -5.78813,-2.61286c-1.71812,-1.26357 -2.88397,-3.09461 -4.09604,-4.87224c-0.34157,-0.29562 -0.69545,-0.60387 -1.06828,-0.92603c-5.26117,-4.54611 -11.74356,-7.20483 -15.95993,-12.948l-1.87168,-1.87168c-0.54289,-0.54289 -0.87868,-1.29289 -0.87868,-2.12132c0,-0.40757 0.08128,-0.79616 0.22851,-1.15045c-0.42099,-0.36415 -0.66345,-0.77461 -0.79142,-1.18334c-0.31158,-0.82486 -0.11555,-1.60876 0.13563,-2.16117c0.0448,-0.11494 0.07734,-0.18002 0.07734,-0.18002l0.09033,-0.14668c0.04529,-0.07895 0.08918,-0.1492 0.12911,-0.20966l1.17814,-1.91313c3.35392,-2.70894 4.59592,-7.14323 7.91244,-10.25526c1.53751,-1.44271 3.48964,-2.5303 4.64334,-4.29504c1.73657,-2.65632 3.06968,-5.59403 5.06608,-8.06103c4.96578,-6.13631 9.93622,-12.31499 14.11986,-19.03423c0,0 0.02127,-0.03403 0.06283,-0.09177l0.1765,-0.57212c4.00712,-4.68271 6.50004,-11.03541 8.07947,-16.87765c0.67604,-2.50065 1.98194,-4.77954 3.03449,-7.15472c-1.65574,-2.69566 -4.3571,-3.59269 -6.48357,-6.17092c-0.37562,-0.45542 -4.06147,-7.30065 -4.13446,-7.48879c-2.82231,-7.27481 0.11414,-18.06877 5.26245,-23.74625c1.62659,-1.79378 3.17933,-3.03657 4.5241,-4.81159c-0.24009,-2.23772 2.0735,-3.00891 2.0735,-3.00891c4.94997,-1.32555 4.56394,-7.3225 6.13503,-11.52812c1.0616,-2.84177 1.77824,-5.88923 3.12819,-8.62976c1.04994,-2.13148 2.35897,-4.11082 3.76999,-6.03141c0.61563,-1.57764 1.33109,-3.10476 1.80513,-4.43829c0.08136,-0.45821 0.16415,-0.83424 0.24681,-1.08753c0.65556,-2.00882 1.68891,-3.98389 2.91225,-5.90585c0.00692,-0.01152 0.01385,-0.02303 0.02078,-0.03454c1.45353,-2.41342 1.74246,-5.32 3.70471,-7.50987c0.77675,-0.86685 1.73981,-1.5326 2.70246,-2.20113c-1.40476,0.5431 -2.69967,0.94842 -3.31554,0.87427c-2.81445,-0.33885 -4.93721,-1.80298 -5.60586,-3.92768c-1.01476,-0.15492 -1.87905,-0.49657 -2.22275,-1.36129c-0.80301,-2.02027 1.16558,-4.29136 2.45312,-6.04309c0.66963,-0.91105 3.8626,-1.49844 4.96241,-2.2099c0.92025,-0.59531 1.81859,-1.28846 2.70611,-2.02118c-0.21619,-0.46352 -0.45531,-0.91939 -0.67536,-1.34215c-1.5429,-0.75516 -2.94764,-1.7203 -2.7767,-3.64471c0.06258,-0.70449 0.17578,-1.31292 0.3318,-1.83633c0.02528,-1.33454 0.92201,-2.45583 2.14487,-2.81857c-1.87296,-2.52739 -2.03323,-6.0237 -1.80836,-9.60625c0.0838,-1.33512 -0.25446,-2.85773 0.41412,-4.00302c-0.43418,-0.57518 -0.94177,-1.14722 -1.53916,-1.72622c0,0 -2.12132,-2.12132 0,-4.24264c2.12132,-2.12132 4.24264,0 4.24264,0c0.49237,0.504 0.94233,0.98725 1.35446,1.46063c0.06312,-0.00396 0.12677,-0.00597 0.19089,-0.00597c1.65685,0 3,1.34315 3,3v2.23278c0.38301,1.04275 0.68715,2.19318 0.94493,3.52835c0.05823,0.3016 0.09782,0.72091 0.13107,1.21707c2.31212,-0.06098 2.85256,2.37101 2.85256,2.37101c-0.00519,0.25252 -0.00519,0.50638 -0.00182,0.76006l1.74824,0.87412l-0.0567,0.11341l0.09121,0.05067l0.2659,0.00849c0.02907,0.04754 0.05814,0.09509 0.08722,0.14263c0.77353,-0.19691 1.42624,0.91178 2.22685,1.1001c1.38003,0.3246 2.83366,-0.04104 4.25281,-0.04325l2.33154,-0.58289c0.25256,-0.06903 0.51841,-0.10589 0.79287,-0.10589c1.65685,0 3,1.34315 3,3c0,0.22305 -0.02434,0.44042 -0.07052,0.64959c0.11183,-0.1257 0.22866,-0.2429 0.35138,-0.35373l-0.0554,-0.03957l1.64343,-2.3008c0.54188,-0.77896 1.44362,-1.28882 2.46444,-1.28882c1.65685,0 3,1.34315 3,3c0,0.56059 -0.15376,1.08527 -0.42141,1.53416l-1.30719,2.28759l-0.18346,-0.10484l-0.03715,0.4374c-0.02872,0.029 -0.05766,0.05833 -0.08682,0.08797c-0.09892,0.85356 -1.17389,1.60401 -1.39183,2.50486c-0.83439,3.44884 0.64627,7.12656 -1.29487,10.39761c-1.76864,2.98035 -3.70489,3.4942 -6.42895,5.11127c-0.42844,0.25433 -0.86801,0.50498 -1.31603,0.75363c-0.3479,1.33547 -0.81611,2.71887 -1.47885,4.24621c-2.78482,6.41786 -7.94226,12.02941 -10.22128,18.73351c-1.73404,5.10097 -1.82735,10.33776 -2.87946,15.54126c-0.81307,4.02127 -2.45092,8.11174 -3.1046,12.21822c-0.04035,1.16207 -0.07837,2.32388 -0.11305,3.48507c0.23066,-0.15911 0.46304,-0.31229 0.69736,-0.45846c1.24686,-0.77779 2.77185,-1.18933 3.79438,-2.2448c0.67592,-0.69769 1.32808,-1.41739 1.96127,-2.15427c0.13939,-1.14578 0.24174,-2.13061 0.24439,-2.14119c1.05698,-4.22211 3.47526,-7.42983 5.11719,-11.35372c1.16533,-2.7849 -0.01828,-5.84296 0.90653,-8.73116c0.42035,-1.31277 1.23546,-2.46296 1.87716,-3.68457v-2.13243c0,-1.65685 1.34315,-3 3,-3c1.65685,0 3,1.34315 3,3v4.66667h-0.05222c0.01582,0.06203 0.0313,0.12417 0.04642,0.18641c0.01562,0.06427 0.02176,0.15893 0.01987,0.27866c0.2326,0.29187 0.41191,0.62809 0.5232,0.99394c0.79607,0.8855 0.79607,2.12431 0.79607,2.12431zM194.08334,129.9l-1.59473,2.46842c-0.19703,0.59338 -0.38008,1.1917 -0.57541,1.78568c-0.06817,0.10069 -0.10283,0.16134 -0.10283,0.16134c-0.52398,0.94218 -1.04797,1.88437 -1.57195,2.82655l0.1327,0.59662l-0.30168,-0.07542l-0.64491,2.57964c-0.09204,0.33675 -0.14119,0.69122 -0.14119,1.05716c0,2.20914 1.79086,4 4,4c1.68214,0 3.12177,-1.03834 3.71289,-2.50905l0.96369,-2.2486c0.48864,-0.49003 2.01848,-5.34611 2.11815,-5.6441l0.40527,-0.19824c0,0 2.4,-3.2 -0.8,-5.6c-3.2,-2.4 -5.6,0.8 -5.6,0.8zM206.89113,117.33737c-0.08537,0.25782 -0.16486,0.51633 -0.23661,0.77581c0.06298,0.09403 0.12435,0.18562 0.18429,0.27505c0.01322,-0.3506 0.0299,-0.70094 0.05232,-1.05086zM229.51913,50.47524c0.33714,0.26414 0.67399,0.54675 0.99061,0.84773c0.07161,-0.233 0.14443,-0.46567 0.21885,-0.69796c-0.41234,-0.05188 -0.81792,-0.10501 -1.20947,-0.14977z"></path><path d="M279.28334,97.63333v-1.33333c0,-4.17319 0.08096,-7.98682 1.08957,-12.06094c0,0 0.72761,-2.91043 3.63803,-2.18282c1.06211,0.26553 1.63972,0.82175 1.945,1.42114c2.05144,0.78997 4.42693,1.77824 6.61389,2.97301c0.15728,0.04206 0.30894,0.08611 0.45431,0.13184c0.9005,0.28324 1.60586,0.94173 2.31869,1.59422c0.51377,0.37028 0.99752,0.75567 1.44136,1.15632c2.92194,1.93534 6.36486,4.80544 9.47365,6.35065c6.9931,3.47589 14.91221,5.01309 20.962,10.40864c1.04002,0.92755 2.41436,1.62514 3.0392,2.87077c0.55199,1.1004 0.8073,2.23732 0.80878,3.34205c0.73748,0.54657 1.21551,1.42335 1.21551,2.41179c0,1.54443 -1.16705,2.81628 -2.66738,2.98177l-1.04747,0.13093c-1.11512,0.99406 -2.55061,1.68123 -4.19702,1.886c-1.25563,0.15617 -2.40766,-0.78279 -3.58927,-1.23534c-2.50837,-0.96068 -3.40782,-1.35839 -4.73763,-2.02645c-1.95759,-0.31869 -3.99897,-0.12876 -5.96317,-0.45173c-7.55612,-1.24244 -13.62495,-6.2444 -19.98076,-10.02978c-2.53073,-1.50725 -5.46345,-1.58457 -7.74444,-3.62293c-0.86596,-0.77385 -1.49121,-1.52147 -1.92243,-2.26623c-1.15043,-0.86611 -1.15043,-2.44959 -1.15043,-2.44959z"></path><path d="M324.60006,89.80831l-0.58811,-1.18656c-0.36263,-0.66849 -0.80297,-1.30063 -1.2956,-1.90706c-1.04831,-0.25025 -1.73767,-1.07747 -1.73767,-1.07747c-0.58154,-0.96526 -1.69138,-1.81701 -2.15888,-2.80678c-0.97393,-0.88524 -1.93247,-1.76674 -2.76634,-2.69021c0,0 -2.00689,-2.22988 0.22299,-4.23678c1.36358,-1.22722 2.64378,-0.87016 3.43268,-0.4075c0.493,-0.4298 1.20256,-0.75487 2.18235,-0.93275c0.03034,-1.68655 1.71689,-2.52982 1.71689,-2.52982l2.72795,-1.36311c2.16218,-0.93376 5.5872,-4.61893 7.82852,-4.7373c0.1402,-0.0074 0.28016,-0.01085 0.4199,-0.01072l-0.029,-0.11601l2.6014,-0.65035c0.25256,-0.06903 0.51841,-0.10589 0.79287,-0.10589c0.32479,0 0.63753,0.05161 0.93046,0.14709l0.17679,-0.14143c0.51629,-0.42033 1.17509,-0.67232 1.89275,-0.67232c1.65685,0 3,1.34315 3,3c0,0.73771 -0.26627,1.41322 -0.70794,1.93568l-1.65406,1.98487l-0.1362,-0.1135l-0.10218,0.36791c-2.0278,1.51125 -4.35661,3.57701 -5.9141,5.90826c0.25109,2.90351 1.09039,6.1023 0.51448,8.25011v3c0,1.65685 -1.34315,3 -3,3c-0.32896,0 -0.64555,-0.05295 -0.94172,-0.15078c-0.5372,0.5068 -1.26146,0.81745 -2.05828,0.81745c-0.85245,0 -1.62186,-0.35554 -2.16802,-0.92643c-2.12128,0.47269 -3.18192,-1.6486 -3.18192,-1.6486z"></path><path d="M373.97636,60.30962c-0.10833,0.78546 -0.16981,1.61867 -0.58804,2.22176c-0.0409,0.05897 -0.08235,0.1175 -0.12432,0.17561l0.03597,0.01798l-1.30427,2.60854c-0.48103,1.01474 -1.51474,1.71649 -2.71235,1.71649c-1.26161,0 -2.34133,-0.77876 -2.78467,-1.88179l-0.89592,-2.09047c-1.75195,-2.77038 -2.75327,-3.09066 -5.97021,-3.76585c0,0 -2.12359,-0.47191 -2.35225,-2.42036c-2.84611,0.29325 -7.02388,-0.39782 -7.77789,-1.04738c-6.38804,1.22681 -12.60531,-1.12334 -15.90236,-7.45252c0,0 -1.34164,-2.68328 1.34164,-4.02492c2.68328,-1.34164 4.02492,1.34164 4.02492,1.34164c0.92263,1.96595 2.48177,3.31637 4.31676,4.02464c-0.00003,-0.00544 -0.00004,-0.01088 -0.00004,-0.01633c0,-0.93446 0.42724,-1.76913 1.09705,-2.31933l1.9824,-1.652l0.09671,0.11605c0.288,-0.2758 0.61037,-0.51089 0.97982,-0.69021c3.10207,-1.50567 4.94075,-0.20268 5.99594,1.74947l1.1807,0.14759c1.50033,0.16549 2.66738,1.43734 2.66738,2.98177c0,0.21698 -0.02303,0.42857 -0.06679,0.63248c0.01019,0.00066 0.02037,0.00131 0.03056,0.00196c1.34977,-2.06677 4.90166,-2.4907 6.80704,-2.91456c3.81736,-0.8492 10.62223,-1.7292 14.49905,-0.65861c1.54642,0.42704 3.4415,0.89275 4.23466,2.28726c0.25755,0.45282 0.45476,0.89217 0.59766,1.31814h1.23115c1.65685,0 3,1.34315 3,3c0,1.65685 -1.34315,3 -3,3h-2.54407c-0.1509,0.01596 -0.31032,0.03242 -0.47684,0.0497c-0.77789,0.75458 -1.70364,1.41206 -2.65232,1.9743c-1.49207,0.88428 -3.32188,1.01258 -4.96709,1.56896z"></path><path d="M203.17157,296.20566c0.12243,0.05612 0.24298,0.11539 0.36181,0.17755l0.03198,-0.09593l2.93437,0.97812c1.22587,0.37701 2.11694,1.51841 2.11694,2.86793c0,1.54443 -1.16705,2.81628 -2.66738,2.98177l-2.62718,0.3284l-0.01001,-0.08009l-0.17568,0.09745c-5.07382,0.01031 -10.18598,0.26888 -15.22518,-0.3507c0,0 -1.97856,-0.24732 -2.50796,-1.95174c-0.48853,-0.53366 -0.7866,-1.24457 -0.7866,-2.02509c0,-1.19761 0.70175,-2.23131 1.71649,-2.71235l3.2752,-1.6376l0.05089,0.10178c0.13784,-0.09988 0.27821,-0.19659 0.4214,-0.28977c1.98407,-1.29119 6.90343,-0.46206 9.20269,-0.46206h1c0,0 2.34429,0 2.88824,2.07232z"></path><path d="M270.65749,302.29319c-0.4932,-2.95918 2.46598,-3.45238 2.46598,-3.45238l1.33935,-0.14338c1.33994,-0.55828 2.67449,-1.12966 4.01981,-1.67484c1.23411,-0.50011 2.43211,-1.80638 3.7181,-1.46086c0.15965,0.04289 0.26856,0.13159 0.34122,0.25301l0.0804,0.03069l-0.04445,-0.3556l0.44845,-0.05606c2.61984,-2.98161 4.43756,-3.08304 8.13468,-3.51973l0.67097,-1.56559c0.44334,-1.10303 1.52306,-1.88179 2.78467,-1.88179c1.65685,0 3,1.34315 3,3v4c0.27731,1.31215 0.27902,2.73048 -0.08025,4.02259c-1.88853,6.79194 -8.60714,6.32895 -14.45124,6.06078c-0.58619,0.0866 -1.14674,0.08866 -1.64839,-0.0651c-0.39203,-0.01134 -0.77715,-0.01827 -1.15345,-0.01827h-2.66667c-0.87093,0 -1.65519,-0.37113 -2.20323,-0.96386l-1.30357,0.25638c0,0 -2.95918,0.4932 -3.45238,-2.46598z"></path></g><path d="M182.65,299.725c0,-3 3,-3 3,-3h1.27202c0.474,-1.03276 1.51723,-1.75 2.72798,-1.75c0.08333,0 2.66667,0 2.75,0c1.53632,-0.83799 3.5,0 5.25,0h2.5v0c1.65685,0 3,1.34315 3,3c0,1.27246 -0.79221,2.35989 -1.91032,2.79597l-2.93583,1.22326l-0.03085,-0.07404c-0.09669,0.0644 -0.19467,0.12711 -0.29402,0.188c-2.22573,1.36399 -7.07262,0.61681 -9.57898,0.61681h-2.75c0,0 -3,0 -3,-3z" fill-opacity="0.37647" fill="#160a1f"></path><path d="M273.15,302.975c0,-3 3,-3 3,-3h0.40135c0.23889,-0.41298 0.57341,-0.76372 0.97327,-1.02196l2.21128,-1.47419l0.06954,0.10431l0.30107,-0.18064l0.0658,0.10967c0.00081,-0.00099 0.00163,-0.00198 0.00244,-0.00297l-0.06824,-0.10671c0,0 0.09952,-0.05971 0.27114,-0.13607c1.55374,-1.82995 3.35933,-3.29627 6.08362,-5.17396l0.32383,-0.04323l-0.03896,-0.0935l2.93807,-1.2242c0.37162,-0.16493 0.783,-0.25657 1.21577,-0.25657c1.65685,0 3,1.34315 3,3c0,0.31018 -0.04707,0.60936 -0.13446,0.89079l-1.48096,5.18338l-0.33961,-0.09703c-0.89567,3.70651 -2.86462,6.71286 -7.76865,7.02275c-1.92879,0.12188 -3.8437,-0.50846 -5.77631,-0.49988h-2.25c0,0 -3,0 -3,-3z" fill-opacity="0.37647" fill="#160a1f"></path><path d="M319.12578,116.84956c-0.22231,-0.0062 -1.91641,-0.09931 -2.64469,-1.49815c-1.29044,0.00167 -2.42778,-0.00253 -2.46703,-0.00449c-8.51319,-0.42507 -16.85809,-5.67655 -24.69585,-8.69875c-4.75068,-1.83184 -11.05514,-4.49126 -12.44981,-10.17447c-1.39348,-5.67837 -0.73682,-7.06395 5.63913,-7.62177c4.19412,-0.36694 10.08191,4.28197 13.32655,6.26535c0.84898,0.63528 4.24958,3.21039 4.90757,3.54944c2.12153,1.09319 4.53661,1.61743 6.53941,2.91541c1.9552,1.26714 3.6333,2.8929 5.51578,4.23911c0.17628,0.06134 0.35369,0.12018 0.53235,0.17629c2.17782,0.68386 4.45914,1.067 6.56921,1.93583l2.69617,0.44936c1.35213,0.20085 2.40993,1.30391 2.54162,2.6774c0.70121,0.2763 1.39677,0.56964 2.08315,0.88968l2.41587,0.43925c1.42614,0.23191 2.51481,1.4693 2.51481,2.96097c0,1.51773 -1.12705,2.77222 -2.58987,2.9722l-3.20395,0.49292l-0.01582,-0.10284c-0.16682,0.05181 -0.33588,0.09771 -0.50746,0.13697c-2.27328,0.52018 -4.72537,-0.89123 -6.70711,-1.99969z" fill-opacity="0.37647" fill="#160a1f"></path><path d="M337.20467,68.42945c1.92055,2.30466 -0.38411,4.22522 -0.38411,4.22522l-2.07891,1.62862c-1.82958,0.91098 -3.69966,1.76162 -5.6376,2.41098c-0.65651,0.21998 -1.38726,0.28383 -2.10063,0.37547c3.05309,1.73924 5.05407,4.62769 5.54833,8.9569l0.85841,2.14603c0.15438,0.36148 0.23984,0.75943 0.23984,1.17734c0,1.65685 -1.34315,3 -3,3c-0.58222,0 -1.12569,-0.16585 -1.58577,-0.45289l-2.45772,-1.47463l0.03061,-0.05102c-0.08812,-0.03321 -0.17583,-0.06773 -0.2631,-0.10364c-1.04115,-0.42835 -1.71035,-1.46558 -2.53211,-2.23511c-2.17699,-2.03862 -4.42902,-4.56772 -5.22256,-7.34124c-0.78236,-0.41193 -1.61934,-1.2411 -1.45446,-2.88999c0.16925,-1.69246 1.20211,-2.3294 2.06489,-2.56366c0.26436,-0.47999 0.5914,-0.96231 0.9875,-1.44593c0.86325,-1.05398 2.4184,-1.26552 3.68366,-1.77067c2.78052,-1.11009 5.46321,-1.75106 8.15741,-3.10452l0.92109,-0.87138c0,0 2.30466,-1.92055 4.22522,0.38411z" fill-opacity="0.37647" fill="#160a1f"></path><path d="M203.00076,90.4845c0.04487,-0.09511 0.08953,-0.19031 0.13396,-0.28562c0.10011,-0.67311 0.19862,-1.3467 0.29511,-2.02087c0.13598,-0.95013 0.52125,-6.33392 1.38751,-7.56595c0.04081,-0.05805 0.0821,-0.11571 0.12383,-0.173l-0.0486,-0.02083l1.47276,-3.43645c0.30518,-0.75929 0.9119,-1.36492 1.67193,-1.66865c1.02354,-3.42208 2.58597,-6.64985 4.59671,-9.56232l-3.90069,-0.97517c-1.33596,-0.30317 -2.33327,-1.49794 -2.33327,-2.92565c0,-1.14938 0.64637,-2.1478 1.59545,-2.65157l1.92065,-1.06703c1.66418,-1.68385 3.33177,-3.36433 5.00325,-5.04093c-0.74276,-1.36191 -1.47313,-2.76489 -2.2684,-4.00506c-1.03474,-1.61362 -3.68399,-3.20378 -2.9125,-4.95856c0.30134,-0.68541 0.64857,-1.25334 1.03099,-1.71786c-0.71469,-2.35856 -0.37126,-4.94611 -0.36945,-7.55898c0.00061,-0.88315 -0.3418,-1.83669 0.00372,-2.64944c0.02048,-0.04817 0.04133,-0.09615 0.06255,-0.14393l-0.05139,-0.00514l0.2467,-2.467c0.13439,-1.53249 1.42103,-2.73449 2.98841,-2.73449c1.65685,0 3,1.34315 3,3v2.5c-0.01841,0.10373 -0.05041,0.20945 -0.08759,0.31594c0.22759,0.33859 0.08721,0.87063 -0.03664,1.39385c0.36849,0.3774 1.07619,0.44468 1.4261,0.8663c1.46086,1.76026 1.88512,4.17741 3.0351,6.15483c0.51589,0.88708 1.29545,1.56388 2.11289,2.21307c2.02663,0.3871 3.99309,0.9026 5.38183,2.39579c0.22723,0.24431 0.43813,0.50303 0.63446,0.77337c0.37391,-0.75318 0.8228,-1.44647 1.45085,-1.99918c5.2304,-4.60291 7.48338,-4.27256 8.57611,3.08917c0.19226,1.29528 -0.74957,2.52372 -1.33805,3.69351c-1.62213,3.22449 -3.79627,6.80369 -7.46848,7.6655c-0.17466,0.3623 -0.46522,0.82429 -0.91802,1.17747c-2.1255,3.19707 -4.71057,6.04376 -7.15395,9.10662c-1.76827,2.21658 -2.72885,5.08852 -3.8779,7.63273c-1.40735,3.11613 -3.27963,6.02047 -4.98337,8.97784l-0.91007,2.50269c-0.35357,1.04813 -1.27046,1.83702 -2.39055,2.00657c-0.4121,1.00144 -0.8833,1.98202 -1.38304,2.95293c-0.81033,5.0021 -1.74254,9.98381 -2.47098,14.99323c0.59594,-0.26434 1.36799,-0.33325 2.33305,0.08035c2.75744,1.18176 1.57568,3.93919 1.57568,3.93919l-0.62286,1.39241c-0.13418,0.46942 -1.505,5.15549 -1.65705,6.04239c-0.20921,1.22028 0.37448,2.83332 -0.12944,3.86069c0.86229,-0.10478 1.72009,-0.22768 2.54825,-0.47822c2.12382,-0.64252 3.18282,-2.25333 4.9868,-3.40103c3.03998,-1.93404 6.47441,-3.50101 9.32463,-5.73038l0.31855,-2.38911l0.0564,0.00752c-0.00302,-0.09545 -0.00492,-0.19099 -0.00565,-0.28664c-0.00281,-0.36999 0.16658,-0.95778 0.41126,-1.6282c-0.23746,-1.77038 0.16816,-4.34954 0.27109,-5.68358c0.28087,-3.64037 -0.01655,-6.89355 2.2276,-10.18131c0.03621,-0.05305 0.07302,-0.10557 0.11042,-0.15759l-0.03071,-0.01535l1.47093,-2.94187c0.48103,-1.01474 1.51474,-1.71649 2.71235,-1.71649c1.65685,0 3,1.34315 3,3c0,0.1145 -0.00641,0.2275 -0.0189,0.33867l-0.24598,2.45984l-0.06733,-0.00673l0.04919,0.15218c-0.67216,3.38199 -1.03509,6.69646 -1.72197,9.97793l1.21372,-1.12036c0.53543,-0.49738 1.25284,-0.80153 2.04128,-0.80153c1.08239,0 2.03089,0.57322 2.5585,1.43264c0.01673,-0.03319 0.03276,-0.06693 0.04809,-0.10124c0.87382,-1.95583 1.54957,-3.97711 2.10569,-6.03709c0.02448,-0.19481 0.04926,-0.36556 0.07352,-0.50646c0.62441,-3.62682 1.41947,-7.26908 2.23164,-10.87845c0.45498,-2.52983 0.94163,-5.04577 1.5947,-7.50185c0.39482,-1.90155 0.85474,-3.84468 1.25568,-4.49009c0.00561,-0.00903 0.01124,-0.01805 0.01689,-0.02705l-0.0082,-0.00246l0.73063,-2.43544c0.34926,-1.26976 1.51212,-2.20251 2.89285,-2.20251c1.65685,0 3,1.34315 3,3c0,0.27446 -0.03686,0.54031 -0.10589,0.79287l-0.69427,2.77709c0.20223,0.93739 -0.33404,1.89585 -0.79246,2.85869c-0.17435,0.91351 -0.29496,1.84204 -0.43918,2.75699c-0.16706,1.05989 -0.57514,2.06018 -0.98978,3.05944c-0.35392,1.97119 -0.66081,3.94453 -1.006,5.92292c-0.00628,0.04138 -0.01348,0.08268 -0.02167,0.12387c-0.42689,2.42175 -1.31806,4.74697 -1.73655,7.17027c-0.09639,0.55812 -0.11813,1.44658 -0.25675,2.13939c0.29174,0.00357 0.58757,0.01443 0.84212,-0.10089c1.95246,-0.8845 4.32051,-3.23728 5.9066,-4.69671c4.35017,-4.00278 6.04272,-11.04519 9.25881,-15.90818c0.53907,-0.89058 1.07814,-1.78116 1.61721,-2.67173l0.27839,-0.12574l-0.10279,-0.09137l1.99003,-2.23878c0.54976,-0.62426 1.35498,-1.01812 2.2522,-1.01812c1.65685,0 3,1.34315 3,3c0,0.64809 -0.2055,1.24818 -0.5549,1.73866l-2.04984,2.96088c-0.28922,1.0508 -0.6134,1.9964 -0.96836,2.6548c-1.11337,2.06516 -2.72303,3.84928 -3.73342,5.96673c-1.91004,4.00281 -2.95776,8.38038 -5.03354,12.31629c-1.90048,3.60352 -5.07219,6.1234 -7.08516,9.62293l-0.1202,0.73326c0.01293,0.06451 0.01792,0.10111 0.01792,0.10111c0.38164,2.79874 0.21062,5.72217 1.10461,8.4016c0.73591,2.20565 2.64583,4.72393 3.79151,6.78988c1.08833,1.96255 3.0919,6.44136 5.75074,7.09259c1.86901,0.45777 4.70337,-0.16091 6.47518,-0.73882c5.95916,-1.94367 9.87547,-4.71991 14.69683,-8.66277l2.20594,-1.96084c0.53108,-0.47647 1.23304,-0.76631 2.00269,-0.76631c0.06574,0 0.13099,0.00211 0.19568,0.00628c-0.22183,-0.50555 -0.44744,-1.01045 -0.67678,-1.51487c0,0 -1.24141,-2.7311 1.48969,-3.97251c2.7311,-1.24141 3.97251,1.48969 3.97251,1.48969c3.28287,7.22416 5.39668,14.40274 7.3641,22.04017c0.38531,1.49578 1.86216,3.00138 1.31129,4.44442c-0.74325,1.94702 -2.85808,3.09808 -4.61717,4.21563c-1.01467,0.64462 -2.32839,0.60027 -3.48409,0.9311c-0.07878,0.02255 -0.15747,0.04499 -0.23608,0.06733c0.02192,1.43918 -1.22732,2.41081 -1.22732,2.41081c-3.92006,3.0458 -7.89845,6.18068 -11.89176,9.10374c-3.20512,2.34611 -7.28461,3.28292 -10.52868,5.51948c-4.0304,2.77868 -7.60177,7.38396 -12.60405,8.45458c-2.04705,0.43812 -8.43908,0.49624 -10.06511,-0.75758c-0.17782,-0.13712 -0.34508,-0.2957 -0.50272,-0.47207l-1.1636,-0.22007c-0.25448,-0.21846 -0.53153,-0.42046 -0.81884,-0.61496c-4.55332,6.84605 -9.10959,13.97016 -11.95449,21.66258c-1.15876,3.13321 -1.59671,6.54973 -2.72712,9.68616c-1.85519,5.14738 -4.79332,10.44773 -6.39393,15.80517c-0.06498,0.35132 -0.15608,0.57908 -0.15608,0.57908c-0.01272,0.03171 -0.02539,0.06342 -0.03802,0.09511c-0.21921,0.79197 -0.40704,1.58509 -0.55567,2.37907l0.05826,1.41165c0,0 0,2.00833 -1.64321,2.73858c-0.59672,2.19014 -1.11592,4.40625 -1.69532,6.73482c-2.67604,10.75491 -6.16748,21.33974 -6.16148,32.5266v4c0,1.65685 -1.34315,3 -3,3c-0.99398,0 -1.87505,-0.4834 -2.42095,-1.22793l-0.57284,-0.76378c-6.63096,-2.53502 -14.29738,-3.21344 -20.82427,-6.31334c-1.59871,-0.7593 -2.94995,-1.97299 -4.53221,-2.76599c-4.09686,-2.05327 -8.15274,-2.98259 -11.9467,-5.77668c-0.57936,-0.42668 -3.10255,-2.94666 -4.17282,-3.53698c-3.97665,-2.19342 -7.57529,-2.71749 -10.99583,-6.09893c-2.92808,-2.18631 -7.7494,-4.7769 -9.78892,-7.86489c-1.74666,-2.64457 -1.58599,-5.28356 -3.61353,-7.80965l-0.63194,-3.09182c0,0 0,-2.75648 2.64223,-2.98497c0.26011,-0.51673 0.52021,-1.03346 0.78032,-1.5502c2.34126,-3.34986 5.03792,-6.68459 7.94786,-9.57785c2.0298,-2.01817 4.53512,-3.17644 6.2547,-5.46998c3.48161,-4.64371 5.81545,-10.12673 8.98279,-14.96001c1.9566,-2.98573 4.00384,-5.91674 5.81506,-8.99283c2.46117,-4.17994 6.01849,-7.40524 8.5862,-11.48661l0.48312,-1.20306c3.25801,-3.66997 5.2235,-8.24493 6.94931,-12.83819c-2.54293,-0.87972 -3.91111,-4.8107 -5.08184,-6.37338c-0.75662,-1.00992 -1.9816,-1.63507 -2.64477,-2.70867c-0.75285,-1.21877 -0.98886,-2.68929 -1.51313,-4.02246c-0.56966,-1.44859 -1.17495,-2.99608 -1.68626,-4.59338c-0.0875,0.00768 -0.17608,0.01159 -0.26557,0.01159c-1.65685,0 -3,-1.34315 -3,-3c0,-0.17806 0.01551,-0.3525 0.04526,-0.52203l0.74145,-4.69586l0.09184,0.0145c0.01986,-0.21956 0.04779,-0.43885 0.08484,-0.65783c0.26251,-1.5518 1.51686,-2.72096 2.55974,-3.95631c0.63177,-1.25006 1.1893,-1.94642 1.91875,-2.59869c1.89435,-2.63437 3.83737,-5.30181 5.96368,-7.70785l1.4235,-1.898c0.5459,-0.74453 1.42697,-1.22793 2.42095,-1.22793c0.54385,0 1.0539,0.14471 1.49374,0.39774c0.01651,-0.19221 0.02941,-0.38131 0.03551,-0.56566c0.06622,-2.00053 0.37967,-3.11615 1.01365,-3.97014l-0.03905,-0.02604l1.49297,-2.23945c0.00221,-0.24367 0.00373,-0.48442 0.00319,-0.72145c-0.00887,-3.84614 0.55029,-8.08528 2.31672,-11.59164c1.57986,-3.13605 3.15565,-3.73945 5.29238,-6.47042c0.27128,-0.34673 0.51752,-0.69791 0.74166,-1.05343zM212.70825,65.61702l-0.0104,0.04159c0.00844,-0.01214 0.01688,-0.02427 0.02534,-0.03639c-0.00498,-0.00173 -0.00996,-0.00346 -0.01494,-0.0052zM199.18626,128.96737l0.02883,-0.40368l-1.06121,0.14026c-0.49829,-0.45601 -2.65995,-2.81722 -3.94314,-3.05921c-1.28933,-0.24315 -2.3116,0.14785 -3.32588,0.27695c0.01001,0.09974 0.01514,0.20092 0.01514,0.30331c0,0.58222 -0.16585,1.12569 -0.45289,1.58577l-1.47463,2.45772l-0.02983,-0.0179c-0.01727,0.04958 -0.03496,0.09904 -0.05311,0.14838c-0.98784,2.68629 -3.46925,4.68912 -5.2207,7.10152c0.01741,0.21776 0.04127,0.43665 0.07097,0.65654c1.39514,0.04791 2.31019,1.26797 2.31019,1.26797c1.95277,2.62758 3.09751,5.50411 4.7106,8.3219c0.40145,0.70127 1.51437,2.29591 2.31705,3.69545c1.1758,-2.91186 2.43508,-5.75546 3.89255,-8.56594c0.91753,-1.76931 0.90164,-3.75105 1.22286,-5.65791c0.46967,-2.78809 1.28337,-5.44766 1.92595,-8.1845z" fill-opacity="0.37647" fill="#160a1f"></path><path d="M354.94658,52.34976c-0.62823,2.55113 -2.78644,4.55715 -6.28359,3.9083c-2.41224,-0.44756 -4.15919,-3.88221 -4.25331,-6.80519c-0.16123,-0.3644 -0.25968,-0.80941 -0.25968,-1.35287c0,-3 3,-3 3,-3c1.82527,0.05383 4.07032,-0.17359 5.73588,0.87717c0.8595,0.06931 1.58132,0.12351 2.01412,0.12283l3,3.25c0,0 0,2.96887 -2.95342,2.99976z" fill-opacity="0.37647" fill="#160a1f"></path><path d="M302.9,294.1c0.71019,0 1.01688,0.40349 1.14933,0.75199c0.07792,0.01309 0.15985,0.03345 0.24596,0.06215c1.18585,0.39528 0.79057,1.58114 0.79057,1.58114c-0.44629,1.33738 -0.84742,2.24193 -0.93585,3.60472c-0.04236,0.65282 0.27861,1.52136 -0.21492,1.95079c-5.36702,4.66998 -2.58612,-4.81231 -2.26081,-6.44593l-0.02427,-0.25485c0,0 0,-1.25 1.25,-1.25z" fill-opacity="0.78431" fill="#efd9ff"></path><path d="M209.65,300.1c0,-1.25 1.25,-1.25 1.25,-1.25h0.25c0.16363,0 0.33887,-0.00832 0.52169,-0.02063c0.16596,-0.97937 1.22831,-0.97937 1.22831,-0.97937c1.10388,0 2.20806,0.05165 3.30902,0.13197l0.25,0.51127l0.19098,-0.14324l0.74242,0.9899c0.16156,0.21062 0.25758,0.47415 0.25758,0.7601c0,0.69036 -0.55964,1.25 -1.25,1.25h-1.5v-0.17635c-1.19884,0.14956 -2.35917,0.17635 -3.75,0.17635h-0.25c0,0 -1.25,0 -1.25,-1.25z" fill-opacity="0.78431" fill="#efd9ff"></path><path d="M296.84098,69.71803c-0.51871,-0.25936 -0.67644,-0.63904 -0.69649,-0.97158c-0.34676,-0.13399 -0.7445,-0.44135 -0.7445,-1.14646c0,-1.25 1.25,-1.25 1.25,-1.25c0.41667,0 0.83333,0 1.25,0l0.61803,2.80902c0,0 -0.55902,1.11803 -1.67705,0.55902z" fill-opacity="0.78431" fill="#efd9ff"></path><path d="M285.30146,71.9726c-0.13697,-0.08117 -0.27289,-0.20117 -0.40146,-0.3726c-0.51416,-0.68555 -0.20586,-1.2536 0.03887,-1.54307c0.08272,-0.36067 0.34148,-0.9291 1.15095,-0.95595c0.09481,-0.05745 0.19407,-0.10624 0.29997,-0.14212c6.17386,-2.09193 3.55994,9.00592 -0.78334,3.57925c-0.13502,-0.1687 -0.22819,-0.36225 -0.30499,-0.56552zM287.6669,71.01846c0.08232,0.20079 0.16246,0.40239 0.23443,0.60707c0.07067,0.20098 0.01556,-0.60494 -0.19746,-0.60785c-0.01247,-0.00017 -0.02479,0.0001 -0.03697,0.00079z" fill-opacity="0.78431" fill="#efd9ff"></path><path d="M279.94006,84.04337c-0.69338,1.04006 -1.73344,0.34669 -1.73344,0.34669l-0.05662,-0.29006c-0.41667,0 -0.83333,0 -1.25,0c0,0 -1.25,0 -1.25,-1.25c0,-1.25 1.25,-1.25 1.25,-1.25c0.41667,0 0.83333,0 1.25,0l1.44338,0.70994c0,0 1.04006,0.69338 0.34669,1.73344z" fill-opacity="0.78431" fill="#efd9ff"></path><path d="M338.9,62.1c-1.25,0 -1.25,-1.25 -1.25,-1.25c0,-0.41667 0,-1.58333 0,-2c0,0 0,-1.25 1.25,-1.25c1.25,0 1.25,1.25 1.25,1.25c0,0.41667 0,0.83333 0,1.25v0.75c0,0 0,1.25 -1.25,1.25z" fill-opacity="0.78431" fill="#efd9ff"></path><path d="M351.65486,57.62427c0.4744,-0.09488 0.80191,0.03057 1.02517,0.22001c0.27392,-0.05856 0.60533,-0.01777 0.96997,0.25571c1,0.75 0.25,1.75 0.25,1.75l-0.74127,0.98836c-0.22746,0.31022 -0.59457,0.51164 -1.00873,0.51164c-0.61444,0 -1.12533,-0.44333 -1.23027,-1.02756l-0.24546,-1.22729c0,0 -0.24515,-1.22573 0.98058,-1.47087z" fill-opacity="0.78431" fill="#efd9ff"></path><path d="M362.9,64.6c1.25,0 1.25,1.25 1.25,1.25v2c0,0.69036 -0.55964,1.25 -1.25,1.25c-0.69036,0 -1.25,-0.55964 -1.25,-1.25v-2c0,0 0,-1.25 1.25,-1.25z" fill-opacity="0.78431" fill="#efd9ff"></path></g></g></svg>