<svg version="1.1" xmlns="http://www.w3.org/2000/svg" xmlns:xlink="http://www.w3.org/1999/xlink" width="172.68321" height="246.50254" viewBox="0,0,172.68321,246.50254"><g transform="translate(-167.11664,-50.78937)"><g stroke="none" stroke-width="0.5" stroke-miterlimit="10"><g><g><path d="M190.07763,290.74232c0.64343,1.26374 0.87864,2.61781 0.08485,3.90486c-0.5939,0.96295 -1.85933,1.00265 -3.12649,1.04074c-0.3559,0.18089 -0.74368,0.33098 -1.16371,0.4453c-0.40708,0.11079 -1.02529,0.09262 -1.74887,-0.03423c-2.54988,0.48814 -4.90168,0.45101 -7.59009,0.45101c-1,0 -2.22863,0.63638 -3,0h-3.66667c-1.51878,0 -2.75,-1.23122 -2.75,-2.75c0,-1.26449 0.85344,-2.32965 2.01573,-2.65088c0.00355,-0.02234 0.0073,-0.04444 0.01123,-0.06628l0.4021,-3.00209c1.87301,-4.48335 4.0323,-8.73284 5.74176,-13.23485c1.51402,-3.9873 1.97918,-8.16573 3.72548,-12.146c1.432,-3.26391 1.41758,-6.11084 4.61059,-8.48652c0.39759,-0.29582 0.83445,-0.51161 1.29539,-0.67929c0.38836,-0.47803 0.81486,-0.9163 1.31395,-1.27949c0.36499,-0.26561 0.7702,-0.45818 1.1949,-0.61416c0.76327,-0.5133 1.56908,-0.96116 2.31928,-1.18903c0.12307,-0.59714 0.25906,-1.19155 0.40627,-1.78257l0.28921,-2.31366c0.09293,-1.64152 0.53439,-3.04873 2.26045,-4.60758c0.51504,-0.46515 1.12434,-0.83671 1.79308,-1.11579c0.25004,-1.22727 0.61657,-2.42082 1.64756,-2.8715c3.64473,-1.59323 7.26503,0.87713 9.82427,3.93752c0.07912,0.00612 0.15653,0.01243 0.2321,0.01884c1.55476,0.13192 3.54129,-0.3303 4.61121,0.80546c0.02892,0.03069 0.05679,0.06193 0.08366,0.09369c1.24666,0.36649 2.34501,1.06413 3.14604,2.16706c1.08706,1.49676 1.45382,3.47536 1.5756,5.32121c0.08903,1.34951 -0.35663,2.73289 -0.96452,3.94101c-1.57461,3.12936 -5.20834,4.72863 -8.94563,5.50504c-0.97364,0.73144 -2.02759,1.34044 -3.13099,1.7948c-1.47781,0.60853 -3.36853,1.03197 -5.23225,1.01899c-0.36575,0.09589 -0.74323,0.13148 -1.12935,0.09166c-0.32023,0.85464 -0.78723,1.68796 -1.07157,2.54738c-0.8681,2.62381 -1.86103,5.20854 -2.62533,7.86444c-1.39769,4.8569 -1.37239,9.88081 -3.06328,14.64399c0.46238,1.02059 0.6736,2.14055 0.62403,3.23093zM196.97485,255.07669c0.0201,-0.0846 0.03942,-0.16733 0.05799,-0.24832c-0.06268,-0.04116 -0.12432,-0.08387 -0.18492,-0.12808c-0.07426,0.04524 -0.14854,0.09031 -0.22282,0.13521c0.04963,0.09254 0.09412,0.18826 0.13308,0.28676c0.07146,-0.01446 0.14381,-0.02974 0.21667,-0.04557z" fill="#e5c1e4"></path><path d="M172.82277,296.75458c-1.21268,-0.30317 -0.90951,-1.51585 -0.90951,-1.51585l0.36142,-1.42922c0.17855,-0.42 0.35711,-0.84 0.53566,-1.26001c0,0 0.4924,-1.14893 1.64133,-0.65653c1.14893,0.4924 0.65653,1.64133 0.65653,1.64133c-0.15478,0.35778 -0.30956,0.71555 -0.46434,1.07333l-0.30524,1.23744c0,0 -0.30317,1.21268 -1.51585,0.90951z" fill="#316a70"></path><path d="M185.79261,296.12523c-1.25,0 -1.25,-1.25 -1.25,-1.25l0.07764,-1.76702c0.40776,-0.51549 0.81552,-1.03098 1.22329,-1.54647c0,0 0.81349,-0.94907 1.76256,-0.13558c0.94907,0.81349 0.13558,1.76256 0.13558,1.76256c-0.2589,0.26229 -0.51781,0.52457 -0.77671,0.78686l0.07764,0.89965c0,0 0,1.25 -1.25,1.25z" fill="#316a70"></path><path d="M181.70928,293.37523c0,0.46096 -0.16999,0.75194 -0.3846,0.93561c0.09831,0.36341 0.01394,0.70089 0.01394,0.70089l-0.32699,1.30797c-0.12632,0.55665 -0.62414,0.9722 -1.21902,0.9722c-0.69036,0 -1.25,-0.55964 -1.25,-1.25v-1.33333h0.29486l0.07579,-0.30317c0,0 0.00214,-0.00855 0.00677,-0.02404c-0.01967,-0.49637 0.03574,-0.98424 0.20216,-1.44502l1.33708,-0.8111c0,0 1.25,0 1.25,1.25z" fill="#316a70"></path></g><g><path d="M278.53334,240.38333c0.89657,0 1.69294,0.42906 2.19496,1.09305l0.06819,-0.61375c0.13598,-1.39172 1.30941,-2.47929 2.73684,-2.47929c1.10596,0 2.05943,0.65286 2.49605,1.59421c0.35518,-0.16733 0.75197,-0.26088 1.17061,-0.26088c1.15647,0 2.14622,0.71386 2.55261,1.72497l0.97503,2.27508l-0.30493,0.13069l0.49532,0.53454c-0.1776,2.26663 -0.46067,4.54862 -0.96,6.77135c-0.00522,0.10523 -0.00803,0.20973 -0.00803,0.31338c0,1.60039 0,3.20078 0,4.80118c0.02785,0.01338 0.05555,0.0273 0.08309,0.04179c3.67143,1.9307 3.16987,3.92634 3.25024,7.15704c0.12966,5.21218 -0.3889,10.95598 0.91789,15.99969l0.05608,0.68323c0.02603,0.19403 0.02603,0.31707 0.02603,0.31707c0,3.77778 0,7.55556 0,11.33333v0.66667c0,0.95506 -0.33169,1.57844 -0.76468,1.98532c-0.40688,0.43299 -1.03025,0.76468 -1.98532,0.76468c-3.11111,0 -6.22222,0 -9.33333,0h-1.66667c0,0 -1.01465,0 -1.81131,-0.61633c-1.43698,0.22377 -3.03058,0.84686 -4.01249,-0.07546c-1.23864,-1.16347 -0.38109,-3.37732 -0.57163,-5.06598l2.32005,-2.72047c0.02122,-0.98274 0.04809,-1.87581 0.00005,-2.39542c-0.63416,-6.85863 -0.99097,-13.46482 -1.00741,-20.37628c-1.40413,-0.66536 -2.66851,-1.80945 -3.62781,-3.4509c-2.80164,-4.79384 -1.37278,-12.67771 -1.37278,-18.04918c0,0 0,-2.75 2.75,-2.75c2.25668,0 2.6615,1.85185 2.73412,2.51626c0.37289,-1.07658 1.39577,-1.84959 2.59921,-1.84959z" fill="#e5c1e4"></path><path d="M277.95927,296.12523c-1.25,0 -1.25,-1.25 -1.25,-1.25c0,-0.88889 0,-2.44444 0,-3.33333c0,0 0,-1.25 1.25,-1.25c1.25,0 1.25,1.25 1.25,1.25c0,0.88889 0,1.77778 0,2.66667v0.66667c0,0 0,1.25 -1.25,1.25z" fill="#316a70"></path><path d="M283.85163,295.99327c-1.11803,0.55902 -1.67705,-0.55902 -1.67705,-0.55902l-0.29863,-0.89235c0,-0.88889 0,-1.77778 0,-2.66667c0,0 0,-1.25 1.25,-1.25c1.25,0 1.25,1.25 1.25,1.25c0,0.88889 0,1.77778 0,2.66667l0.0347,-0.22568c0,0 0.55902,1.11803 -0.55902,1.67705z" fill="#316a70"></path><path d="M286.95927,296.79191c-1.25,0 -1.25,-1.25 -1.25,-1.25c0,-0.5 0,-1.83333 0,-2.33333c0,0 0,-1.25 1.25,-1.25c1.25,0 1.25,1.25 1.25,1.25c0,0.5 0,1 0,1.5v0.83333c0,0 0,1.25 -1.25,1.25z" fill="#316a70"></path></g><path d="M219.49549,111.90199c0.13302,-0.7782 0.65514,-2.30546 2.70452,-2.30546c2.75,0 2.75,2.75 2.75,2.75v1.66667c0,7.57688 0.56794,15.30939 -1.42544,22.70577c-1.34661,4.99655 -3.83721,9.02956 -6.20122,13.53005c-1.06276,2.02324 -1.75735,5.13221 -2.58267,7.14989c-1.57227,3.84375 -3.01283,7.39812 -3.9351,11.49379c-2.67336,5.82803 -4.84358,13.57913 -11.19524,16.67823c-0.14537,2.5256 -2.74366,2.5256 -2.74366,2.5256l-0.60697,-0.01365c-3.02221,-0.30645 -8.1111,-0.53841 -10.78273,-2.03c-1.095,-0.61134 -1.65673,-1.88651 -2.55484,-2.76181c-2.40447,-2.34343 -5.44229,-5.0823 -7.30284,-8.24689c-0.55427,-0.49485 -1.07103,-1.02228 -1.52684,-1.59777c-5.50016,-6.94424 -1.83287,-16.66799 3.58646,-22.13055c6.41949,-5.36084 13.05553,-10.22136 18.39441,-16.71281c6.76928,-8.23066 12.41803,-16.46344 21.66919,-22.25519c0,0 0.79847,-0.49904 1.75297,-0.44588z" fill="#30152f"></path><path d="M268.95518,246.32765l-1.49463,1.09382c0,0 -0.08737,0.06071 -0.23887,0.13974c-1.95632,1.57799 -4.00138,3.18766 -6.24525,4.12436c-6.02523,2.51521 -13.80692,-0.21765 -17.97416,-5.11339c-3.98007,3.84525 -10.64061,4.53192 -15.84821,4.515c-4.00015,-1.04234 -10.36018,-0.74135 -13.71591,-3.59892c-1.07113,-0.91212 -1.59093,-2.66771 -2.82906,-3.62767c-1.76502,-1.36847 -3.45968,-2.89044 -5.21988,-4.31811c-4.71143,2.91105 -10.03035,4.55406 -15.50585,4.55406c-1.87158,0 -4.72327,0.22093 -6.39591,-0.85916c-1.17622,-0.75952 -2.42908,-3.12392 -3.3933,-4.15993c-0.28076,-0.30167 -0.51413,-0.56252 -0.70793,-0.79869c-0.43483,-0.22484 -0.5764,-0.58893 -0.60784,-0.90141c-0.37214,-0.75921 -0.32859,-1.49235 -0.30642,-3.10053c0.64777,-1.74382 1.39853,-3.44226 2.14946,-5.13931c0.3905,-1.17198 0.79429,-2.34948 1.13051,-3.57298c0.81158,-2.95335 1.83977,-5.87717 2.90294,-8.80622c0.35591,-2.12529 0.62876,-4.27843 1.02205,-6.36347c0.28176,-1.49382 1.01082,-2.85717 1.47727,-4.29986c0.86296,-2.6691 1.02031,-6.04978 1.5532,-8.82692c0,0 0.2352,-1.22573 1.41118,-0.98058c0.1826,0.03806 0.33117,0.09977 0.45189,0.17686c1.30208,-5.19307 3.0023,-10.19616 4.56339,-15.3208c0.69971,-2.29697 0.9341,-4.63582 1.84758,-6.8834c1.56257,-3.84465 3.05212,-7.67034 4.58618,-11.55862c1.03358,-2.61977 2.30428,-4.51252 2.87975,-7.3371c1.53888,-2.36238 1.22946,-5.18938 2.23488,-7.65719c0.82563,-2.02652 2.49261,-4.04193 3.25577,-6.24089c2.20144,-6.3432 4.49525,-12.61609 6.91542,-18.92934c0.04524,-0.15029 0.11305,-0.27899 0.17502,-0.37623c0.06289,-0.10015 0.15253,-0.2192 0.27159,-0.32363c5.37746,-5.49361 11.65461,-5.56031 18.89433,-5.57172l-0.00003,-0.00002c7.1546,-0.01128 14.4109,0.01715 21.54921,0.4943c8.63385,0.57949 17.0464,2.82134 25.41935,4.52397c2.22513,0.45248 3.15972,1.85312 5.36701,2.32222c0.65651,0.13952 1.52068,-0.151 1.9807,0.35675c0.39016,0.43065 0.30972,1.10444 0.31685,1.73299c0.15039,0.08212 0.26949,0.19613 0.36008,0.30768c0.10319,0.11764 0.1851,0.25593 0.23934,0.40822c0.76941,2.026 0.96287,4.72988 1.87704,6.56445c1.04965,2.10645 2.09645,4.54481 2.64277,6.91669c0.19908,0.86433 -0.20971,1.80507 0,2.66667c0.23446,0.96329 1.04048,1.70452 1.27922,2.66667c0.73202,2.95 1.30727,6.36618 1.30232,9.4678c0.30234,1.22067 1.05301,2.69923 1.25612,3.86554c0.38498,2.21052 -0.29217,4.82084 0.3198,7c0.3395,1.20892 1.50893,2.02964 1.88937,3.22524c0.66801,2.09936 0.38135,5.15926 0.38135,7.39528v1.17854c0.75292,3.09945 1.80819,6.18529 2.52636,9.20094c0.97167,4.0801 0.65154,8.59898 1.59999,12.67095c0.5225,2.24325 0.93794,2.60085 1.26167,4.95235c0.32973,2.3951 0.0414,4.87859 0.33392,7.29974c0.53023,3.42436 0.35435,6.89974 0.35435,10.36415v1.06723c0.06345,0.28447 -0.00013,0.54453 -0.0898,0.7451c-0.07246,0.20733 -0.2034,0.43736 -0.43998,0.59174c-1.06032,1.11455 -2.0449,2.23447 -2.99756,3.41864c-0.08707,1.01823 -0.65309,1.94792 -1.01148,2.90591c-0.84038,2.24641 -0.92957,4.65278 -2.08366,7.00227c-1.32291,1.37887 -2.50215,1.42945 -3.89988,2.35686c-1.43317,0.95093 -2.33489,2.3263 -4.153,2.79548c-2.20855,0.56994 -3.94217,-0.24504 -5.77166,-1.03071c-0.71722,-0.30801 -3.094,-0.19001 -3.8964,-0.27527c-0.99029,-0.10522 -2.43032,-0.24932 -3.73084,-0.23513c-1.18501,0.39852 -2.53137,0.54593 -3.50319,1.17866c-0.1088,0.10795 -0.22012,0.20187 -0.32706,0.28251l-0.51081,1.06483c-0.10957,0.24093 -0.29089,0.4395 -0.51518,0.56577c-0.05008,-0.31862 -0.13694,-0.65356 -0.27907,-0.98234c-2.16101,0.90503 -4.13052,2.06207 -6.28644,3.02955zM280.42571,238.38049c0.00482,-0.00521 0.00956,-0.01045 0.01423,-0.01572c-0.04996,0.04675 -0.09972,0.09381 -0.14929,0.14114c0.04833,-0.03873 0.09347,-0.08044 0.13505,-0.12543z" fill="#316a70"></path><path d="M270.1379,150.35528c0.303,-1.80969 -0.10106,-4.33094 1.11755,-5.36722c5.73968,-4.88087 7.04968,-0.17411 8.00727,4.95464c1.87413,10.03765 -2.80537,21.47738 -3.71009,31.33006l-0.20103,0.29962l0.12394,0.05193l-0.97995,3.69516c-0.181,0.73974 -0.5542,1.37367 -1.04634,1.80971c-0.49776,0.88757 -1.31964,1.46735 -2.24926,1.46735c-0.85659,0 -1.6217,-0.49226 -2.12605,-1.264l-1.65322,-2.49357l0.02785,-0.02917l-0.07225,-0.03958c-0.13854,-0.23886 -0.27099,-0.48254 -0.39822,-0.73033l-0.50134,-0.78768c-2.11077,-0.92774 -3.33689,-3.78326 -4.73678,-5.97621c-2.50631,-3.92617 -5.01214,-8.72761 -6.83595,-13.57795c-0.04991,-0.0757 -0.0999,-0.15131 -0.14997,-0.22682c0,0 -0.61246,-0.92378 -0.68141,-2.13566c-0.30524,-0.93329 -0.58106,-1.86342 -0.82259,-2.78447c-0.61272,-2.33656 -1.39736,-6.55184 -0.63581,-8.94377c2.32565,-7.30455 10.71601,-7.32412 14.62038,-2.40563c1.11815,1.40857 1.86197,3.28352 2.55662,5.22748c0.11291,-0.66954 0.22668,-1.35738 0.34665,-2.07388z" fill="#30152f"></path><path d="M305.62201,211.40714c-0.04163,-0.04004 -0.08109,-0.08458 -0.11738,-0.13412c0.00117,0.48692 0.019,0.94003 0.13841,1.44224c-0.00865,-0.44193 -0.01624,-0.87849 -0.02103,-1.30812zM308.83651,234.39254l-0.01241,-0.04965c-0.0849,0.03346 -0.1718,0.06257 -0.26102,0.08662c-0.84317,0.22734 -1.50762,0.05087 -2.08453,-0.31016c-1.08919,-0.04534 -1.67385,-0.3675 -2.32842,-1.90075c-0.07157,-0.12047 -0.11754,-0.245 -0.14707,-0.35527c-0.12717,-0.09328 -0.25771,-0.17697 -0.39287,-0.24805c-0.63203,-0.33236 -1.68394,-0.02599 -2.04352,-0.64294c-1.61411,-2.76939 0.88741,-3.05116 2.33388,-4.36734c-0.09283,-3.70472 -0.28387,-7.38811 -0.28387,-11.09181c0,0 0,-0.01015 0.00092,-0.02863l0.03252,-1.01751c-0.86544,-1.73087 -0.48108,-2.95845 -0.69074,-4.80113c-0.4723,-4.15091 -0.72055,-8.39929 -1.31521,-12.5587c-0.80356,-2.85183 -0.23946,-5.23939 -0.67958,-8.07037c-0.69573,-4.47517 -2.69987,-8.62403 -3.98114,-12.90314c-1.04982,-3.50612 -1.51444,-8.21714 -3.39501,-11.43279c-0.13982,-0.16782 -0.21556,-0.36127 -0.2566,-0.5216c-0.02958,-0.09916 -0.05418,-0.2164 -0.06027,-0.34311c-1.21923,-2.06331 -2.58937,-4.56812 -2.65176,-6.90107c-0.41432,-3.03644 -2.06063,-4.95559 -2.95779,-7.75494c-0.27602,-0.86124 0.21048,-1.83652 -0.01192,-2.71314c-0.66285,-2.61277 -2.2105,-4.99747 -2.68396,-7.75363c-0.21667,-1.26132 -0.37093,-2.76835 -0.79155,-4.12467c-1.71792,2.29126 -4.1155,4.16272 -6.0907,6.14165c0,0 -0.05658,0.05658 -0.15543,0.1268c-0.09787,0.07157 -0.16944,0.10735 -0.16944,0.10735l-0.76145,0.3759c-2.82407,1.12192 -4.87059,2.12879 -7.87442,2.60816c-2.93178,3.11277 -6.70089,2.81457 -10.58982,2.81457c-3.92219,0 -8.45131,0.46472 -12.28719,-0.36677c-2.19045,-0.47482 -4.07658,-1.5696 -5.77703,-2.86918c-1.61107,-1.23126 -3.47507,-1.46803 -5.17112,-2.81533c-2.34573,-3.16975 -5.94195,-3.97133 -8.66224,-6.66208c-1.3428,-1.32822 -2.79454,-2.63424 -4.19735,-3.96991c-0.07393,0.01081 -0.15327,0.01661 -0.23841,0.01661c-0.91717,0 -1.16138,-0.67296 -1.2264,-1.03133c-1.63375,-1.53212 -3.58314,-2.69228 -5.05125,-4.39966c-1.66289,-1.93391 -2.23985,-4.63497 -3.7364,-6.75478c-1.05008,-1.4874 -2.72242,-2.182 -3.49882,-3.9838c-1.07773,-2.50111 -0.07046,-7.35691 -0.07046,-10.08043c0,-4.7381 0.72931,-9.00009 3.59119,-12.76036c1.04279,-1.37013 2.954,-2.13832 4.19121,-3.19933c1.42791,-1.22456 2.12571,-2.71296 4.18041,-3.25687c2.36551,-0.62619 5.03502,-0.50915 7.46422,-0.9615c0.21358,-0.08054 0.43067,-0.08402 0.60367,-0.06396c0.17774,0.01205 0.39633,0.05671 0.59529,0.18103l1.56975,0.63795c1.10332,0.81763 2.1865,1.66257 3.25808,2.52138c1.42407,1.18788 2.68817,2.91756 4.10038,4.04101c2.38981,1.90116 5.30427,3.41892 7.76002,5.17992c1.85512,1.33029 3.45089,3.48345 5.48641,4.55853c1.26995,0.67073 2.83619,0.50702 4.20298,0.94809c2.29212,0.73969 4.23596,1.54833 6.66307,1.58928c0.22788,-0.03819 0.44383,0.00224 0.61146,0.0576c0.17859,0.04924 0.39233,0.14168 0.56541,0.31521l0.95699,0.66145c2.66004,2.66004 6.06769,6.18604 9.73664,7.33399c3.86871,1.21045 9.11998,-0.54101 13.18565,-0.69012c0.22412,-0.21277 0.52706,-0.34332 0.86049,-0.34332c0.28595,0 0.54948,0.09602 0.7601,0.25758l1.32323,0.99242l-0.04247,0.05663c0.11567,0.07727 0.22727,0.16076 0.33383,0.25194c0.36955,0.31624 0.13945,0.986 0.37973,1.40889c0.25684,0.45203 0.87648,0.65383 1.0671,1.13752c0.06353,0.1612 0.1162,0.33454 0.15949,0.51786c0.44446,0.14488 0.80492,0.32243 0.98568,0.50134c0.34749,0.34394 0.29049,3.22368 0.28332,3.79249c-0.00562,0.44588 -0.06361,0.89884 -0.16575,1.35637c0.16575,0.31858 0.16575,0.64363 0.16575,0.64363c-0.00001,0.00069 -0.00001,0.00138 -0.00002,0.00207c-0.03697,4.64948 2.1297,8.56991 4.80635,12.26223c0.07136,0.07753 0.13987,0.15481 0.20525,0.23186c0.18987,0.22379 0.35078,0.46092 0.48944,0.70787c2.16012,2.87127 4.54559,5.62826 6.33673,8.51343c0.72995,1.1758 0.81593,2.48358 1.36109,3.63235c0.36414,0.37243 0.73155,0.73919 1.10171,1.09964l0.16307,0.54214c0.07745,0.12034 0.11365,0.21083 0.11365,0.21083c0.07889,0.19759 0.16128,0.39171 0.24686,0.58269c1.38159,2.18519 2.78829,4.15888 4.36643,6.30142l0.22382,0.65615c0.36657,0.51715 0.72474,1.04726 1.0656,1.60016c1.38764,2.25082 1.5417,4.5698 2.44238,6.89015c1.41937,3.65662 4.02591,6.38891 5.29662,10.2447c1.49613,2.48676 3.50469,6.07807 4.08817,8.93445c0.30655,1.50071 0.0827,3.40582 0.6252,4.84887c3.38845,9.01334 6.61241,18.54301 8.97001,27.86119c0.10317,0.41275 0.20038,0.82191 0.2982,1.22732c0.24958,0.222 0.36505,0.49143 0.36505,0.49143c1.70206,3.97187 3.75705,7.38742 3.76774,11.82573v1.19618c0.06139,0.38581 -0.05618,0.67228 -0.22204,0.87806c-0.14297,0.22272 -0.37798,0.42509 -0.76432,0.48857c-1.24696,0.41291 -2.57147,0.84276 -3.95014,1.25825c-0.36748,0.42894 -0.98016,0.42894 -0.98016,0.42894h-0.48389c-7.07434,2.0098 -15.29978,3.38552 -21.74179,0.20137c-0.12719,-0.06808 -0.25439,-0.13615 -0.38158,-0.20423c-0.0377,0.00286 -0.0594,0.00286 -0.0594,0.00286h-1.33333c-0.25853,0 -0.4636,-0.05347 -0.62625,-0.1383zM289.2944,120.14773c-0.01344,0.13972 -0.02794,0.27926 -0.04358,0.4186l0.21759,-0.26111c-0.059,-0.05227 -0.11711,-0.10482 -0.17401,-0.15749z" fill-opacity="0.97647" fill="#ad4eac"></path><path d="M279.94007,67.60386c-0.39528,-1.18585 0.79057,-1.58114 0.79057,-1.58114l0.45638,-0.15122c3.50426,-1.30199 5.75668,-3.89809 6.19856,-7.6513c0,0 0.12721,-1.01769 1.073,-1.09418c0.22802,-0.30405 0.59137,-0.50078 1.00068,-0.50078c0.69036,0 1.25,0.55964 1.25,1.25c0,0.05925 -0.00412,0.11755 -0.0121,0.1746l-0.16422,1.31377c-0.02954,0.21015 -0.06878,0.43013 -0.11712,0.65777c0.04864,0.43526 -0.19108,0.97136 -0.39238,1.6122c-0.16127,3.60089 -1.32093,7.77192 -3.17086,10.73748c0,0 -0.6625,1.06 -1.7225,0.3975c-0.16938,-0.10586 -0.29477,-0.22187 -0.38592,-0.34208c-0.06927,0.0442 -0.13979,0.0852 -0.21159,0.12285c-3.35241,1.75779 -3.48982,-0.68245 -2.88929,-3.01787l-0.71883,-0.35941c-0.40846,-0.19363 -0.69521,-0.60217 -0.7142,-1.07959c-0.10727,-0.12136 -0.20088,-0.28068 -0.27019,-0.48861z" fill-opacity="0.97647" fill="#ad4eac"></path><path d="M287.48607,93.07721l0.2888,0.12377l-0.48865,1.14019c-0.03278,0.08155 -0.0739,0.15884 -0.12232,0.23083c0.56203,0.48213 1.09722,1.02595 1.58486,1.73158c0.16836,0.17576 0.25678,0.38974 0.30321,0.566c0.05059,0.16293 0.08749,0.37337 0.05133,0.59502c-0.00088,1.04306 -0.02866,2.026 -0.10186,2.9707c0.39813,1.85127 0.39598,3.76905 -0.14622,5.72145l-1.04289,0.97463c0,0 -0.24303,0.12152 -0.55913,0.13793c-0.18424,0.38705 -0.38592,0.77739 -0.60654,1.17281c-0.07392,0.17591 -0.18425,0.31841 -0.28248,0.42144c-0.09787,0.10711 -0.2358,0.22959 -0.4109,0.31574l-0.54095,0.35208c-5.14857,2.50727 -10.70941,2.53197 -16.35902,2.53197h-0.6c-0.1536,-0.02116 -0.31683,-0.04577 -0.48424,-0.0748c-0.27728,0.03344 -0.55129,-0.04435 -0.82359,-0.18024c-0.70584,-0.19471 -1.32835,-0.49744 -1.45367,-0.98281c-0.13707,-0.08784 -0.27442,-0.16625 -0.41225,-0.22838l-0.04087,-0.34893l-0.1343,0.05756l-0.58911,-1.3746c-0.07084,-0.15545 -0.11077,-0.32795 -0.11193,-0.50966c-2.49326,-2.10807 -4.9932,-4.29334 -7.3737,-6.53716c0.42209,4.15753 1.66602,8.51836 0.00827,12.52808c-1.52792,6.05865 -9.18559,8.35762 -14.70029,5.5396c-1.11321,-0.56885 -1.75131,-1.78964 -2.70602,-2.59671c-1.40555,-1.18818 -2.97401,-1.84738 -4.15651,-3.36377c-1.63847,-2.10111 -2.21854,-4.75472 -3.70291,-6.95078c-1.10013,-2.20615 -2.60359,-3.90691 -2.15678,-6.60079c0.08678,-0.52322 0.25027,-1.21806 0.55348,-1.83279c-1.16883,-4.2933 -0.93063,-8.90879 -0.36863,-13.44662c-1.73145,-1.35598 -3.78208,-0.98939 -4.14361,-3.63748c-0.11327,-0.00425 -0.22533,-0.02544 -0.33501,-0.06668c-0.22019,-0.0828 -0.40459,-0.21195 -0.56459,-0.3727l-0.08459,0.10574l-0.99098,-0.79279c-0.29115,-0.22886 -0.47815,-0.58424 -0.47815,-0.9833c0,-0.69036 0.55964,-1.25 1.25,-1.25c0.20995,0 0.4078,0.05176 0.58151,0.14321l0.42305,0.21153c0.02014,-1.96196 0.35934,-3.02804 1.51537,-3.54416c0.70989,-1.30747 1.66355,-2.48937 2.84395,-3.51954c0.00943,-0.06568 0.02527,-0.14725 0.05187,-0.23602l-0.00161,-0.0003c0,0 0.0034,-0.0102 0.01052,-0.02839c0.0788,-0.24557 0.24076,-0.53757 0.57367,-0.70045c0.15597,-0.09095 0.34758,-0.15008 0.57997,-0.1416c0.01901,-0.08782 0.04725,-0.1722 0.08365,-0.25208l0.58911,-1.3746l0.28724,0.1231c0.97263,-3.16523 3.06703,-5.40336 6.26434,-7.12873c2.3148,-1.24914 4.08714,-3.44574 6.36995,-4.78311c4.10375,-2.40416 8.61557,-2.56886 13.22741,-2.56886c0.55566,0 1.16844,0.0292 1.81115,0.06272c0.02196,-0.06744 0.04949,-0.13237 0.08206,-0.19423l0.78875,-1.57751c0,0 0.52519,-1.05037 1.57556,-0.60588c0.69726,-0.72538 1.91407,-0.16027 3.00722,0.87354c0.76653,-0.31855 2.26152,-0.59191 3.74104,-0.76816c0.36383,-0.26173 0.7339,-0.50459 1.11586,-0.69533l0.09319,-0.00065l-0.01012,-0.03036l1.17232,-0.39077c0.1321,-0.04749 0.27451,-0.07337 0.42297,-0.07337c0.60722,0 1.11332,0.43297 1.2264,1.00703c0.79336,-0.02482 1.72075,-0.19235 2.1107,0.41571c0.37352,0.58246 0.21809,1.30345 0.04111,2.03009c1.93643,-0.56505 5.18431,-0.6022 6.27896,0.13385c1.34267,0.90281 1.19336,2.2149 1.18826,3.49428c0.56878,-0.28624 0.97684,-0.16167 1.25487,0.19475c0.16986,0.07846 0.34042,0.21191 0.4997,0.42428c0.49302,0.65736 0.22983,1.20668 -0.00841,1.50595c0.01249,0.56735 -0.04566,1.15063 -0.15444,1.63311c0.00839,0.06603 0.01285,0.13625 0.01285,0.21094v0.00001c0,0.43412 -0.15077,0.71747 -0.34758,0.90242c-0.18494,0.19681 -0.4683,0.34758 -0.90242,0.34758c-0.00613,0 -0.01223,-0.00003 -0.01829,-0.00009c-0.6887,-0.00511 -1.2199,-0.20368 -1.4883,-0.19338c0.63237,1.18623 1.16893,2.36419 1.89949,3.49217c0.04974,0.07355 0.09622,0.1438 0.13882,0.21015c0.21815,0.3237 0.45396,0.64303 0.71441,0.95697l0.00871,0.15676l0.06319,-0.0316l0.58875,1.17751c0.08594,0.16324 0.13683,0.34781 0.14265,0.5437c0.69927,0.87917 1.49077,1.65566 2.42975,2.26264c0.32514,0.11371 0.51314,0.34059 0.62183,0.56494c0.13234,0.2106 0.22498,0.48949 0.15,0.82448c0.07435,2.32694 0.61468,5.75064 0.48081,8.92914c0.19327,-0.12247 0.42244,-0.19338 0.66817,-0.19338c0.69036,0 1.25,0.55964 1.25,1.25v1.6h-0.11802c0.00452,0.05979 0.0067,0.11989 0.00631,0.18033l0.09166,0.0427c-0.72729,2.00252 -1.50719,3.50302 -2.60533,4.83078c0.01205,1.59848 0.05996,2.33298 -0.39187,3.21005z" fill="#e5c1e4"></path><path d="M255.11531,94.36736c-0.55902,-1.11803 0.55902,-1.67705 0.55902,-1.67705l0.80902,-0.38197c0.33333,-0.25 0.66667,-0.5 1,-0.75c0,0 0.31464,-0.23598 0.7233,-0.26671c0.13659,-0.82097 0.34801,-1.60744 0.66601,-2.32375h0.00001c0.24448,-1.49154 0.6357,-2.88778 1.39969,-3.70891c1.02795,-1.10483 2.19795,-0.94022 3.46099,-0.95063c3.25831,-0.02686 9.36134,-0.16101 10.68585,3.85472c0.03634,0.11018 0.06838,0.22407 0.09645,0.3413c0.47338,-0.70205 1.3807,-1.70552 2.43733,-2.48241c0.41777,-0.62668 0.93169,-1.05937 1.73624,-0.95627c1.05063,-0.36701 2.10189,-0.30369 2.92801,0.60878c0.11091,0.1225 0.19916,0.28919 0.26514,0.4868c0.36252,-0.61161 0.77672,-1.12987 1.23062,-1.50696c0.19117,-0.68249 0.47034,-1.3318 0.91957,-1.63103c3.37755,-2.24981 6.16816,2.52352 6.20079,5.03508c0,2.34642 0.80882,7.30769 -1.26911,9.01405c-0.31787,0.26103 -0.74186,0.43133 -1.23045,0.52409c0.36074,-0.78497 0.26829,-1.72488 -0.11548,-2.70456c0.77361,-1.24937 0.11504,-5.53105 0.11504,-6.83359c0.02446,-1.37014 0.21871,-1.78548 -1.05545,-2.38019c-0.41513,-0.19376 -0.95058,-0.93674 -1.24376,-0.58472c-0.09306,0.11173 -0.14627,0.24026 -0.17565,0.37906c0.01116,0.12988 -0.00309,0.25121 -0.03306,0.36222c-0.00191,0.32177 0.04394,0.66558 -0.01635,0.96878c-0.12213,0.61421 -0.22576,1.20873 -0.31311,1.79326c0.08738,0.24948 0.08738,0.4616 0.08738,0.4616l-0.02427,0.74515l-0.24546,1.22729c-0.10493,0.58424 -0.61583,1.02756 -1.23027,1.02756c-0.41416,0 -0.78127,-0.20142 -1.00873,-0.51164l-0.74127,-0.98836l0.12799,-0.096l-0.31385,-0.25872c-0.01054,-0.27028 -0.02107,-0.54056 -0.03161,-0.81083c-0.26992,0.48668 -0.64424,0.83866 -1.11863,0.90476c-1.13331,0.15792 -1.79409,-0.61024 -2.00859,-1.46437c-0.45291,0.86509 -1.14151,1.62592 -1.90531,2.22516c0,0 -1,0.75 -1.75,-0.25c-0.02089,-0.02785 -0.04042,-0.0555 -0.05865,-0.08295c-0.06898,1.77382 -0.45134,3.73647 -0.48672,5.16663c-1.15979,2.00051 -1.07661,3.98012 -3.34224,5.25604c-2.56439,1.44417 -8.09,1.66877 -10.55297,-0.676c-0.22109,0.35218 -0.61292,0.58629 -1.05944,0.58629c-0.69036,0 -1.25,-0.55964 -1.25,-1.25v-1.25c0,-0.20442 0.0001,-0.40667 0.0008,-0.60727c-0.45092,-0.84267 -0.00593,-2.40285 -0.0008,-3.64272l-1.19097,0.61803c0,0 -1.11803,0.55902 -1.67705,-0.55902zM266.99223,86.84433c-0.36325,0.46401 -1.00889,0.46401 -1.00889,0.46401l-0.85472,-0.06415c-0.14873,0.12643 -0.29618,0.25075 -0.44258,0.37342c-0.09261,0.10892 -0.20358,0.20176 -0.32811,0.27374c-0.75793,0.62984 -1.4913,1.22373 -2.23082,1.84676c0.23395,0.49167 0.01682,1.03448 0.01682,1.03448c-0.70189,1.65632 -0.98507,5.61908 -0.47474,7.39048c0.64534,2.24001 6.42912,1.6328 7.95174,0.80558c1.51251,-0.82173 1.31808,-2.39769 2.15776,-3.74396c-0.07512,-1.93158 0.70979,-4.41446 0.26879,-6.27105c-0.37734,-1.58858 -3.0097,-2.00261 -5.05525,-2.1093z" fill="#316a70"></path><path d="M244.04882,52.16629c0,0 -0.00439,-0.04389 -0.00327,-0.11599l-0.00293,-0.00838c0,0 0,-0.06809 0.01589,-0.17248c0.03034,-0.23832 0.12583,-0.5705 0.40831,-0.8036c0.17368,-0.15064 0.41848,-0.26101 0.76351,-0.27287c0.3445,-0.02253 0.59906,0.06293 0.78687,0.19554c0.30427,0.20384 0.43234,0.52486 0.48624,0.75898c0.0262,0.10229 0.03297,0.17004 0.03297,0.17004c0.08459,1.08077 0.73392,2.04017 1.10722,3.05794c1.26069,3.43717 1.49554,6.3016 4.99984,8.52031c1.54349,0.97724 4.37778,1.93425 5.37454,3.54827c1.29184,2.09184 0.64977,4.3591 -0.72807,5.98175c-0.04868,0.322 -0.1225,0.5996 -0.2338,0.78229c-1.36073,2.23353 -5.49399,2.05091 -7.26828,0.49458c-0.18566,-0.16285 -0.35388,-0.34645 -0.50865,-0.5451c-0.10287,-0.06683 -0.19529,-0.14838 -0.27429,-0.24167l-0.99471,-1.1605l0.00249,-0.00214c-2.1058,-2.2346 -3.49435,-5.05963 -4.07879,-8.04075c-1.12436,-3.99942 -1.10329,-8.43536 0.14268,-11.9173c-0.00969,-0.07635 -0.01895,-0.15267 -0.02778,-0.22892z" fill-opacity="0.97647" fill="#ad4eac"></path><path d="M280.89294,106.6014c-1.17825,-0.14612 -2.11229,-1.0103 -2.85842,-2.00838l-0.0554,0.06464l-1.1605,-0.99471c-0.27078,-0.22929 -0.44268,-0.57175 -0.44268,-0.95436c0,-0.69036 0.55964,-1.25 1.25,-1.25c0.11436,0 0.22513,0.01536 0.33036,0.04412l1.1928,0.2982c0.88299,-0.01168 2.81613,-0.21997 4.05171,0.12223c0.30192,-0.31052 0.65246,-0.58681 1.05737,-0.83238c0.11565,-0.15417 0.20497,-0.28174 0.25913,-0.37055l0.16832,0.13294c0.028,-0.01427 0.05622,-0.02841 0.08467,-0.04244l-0.20425,-0.28595l1.15483,-0.82488c0.20689,-0.1517 0.46217,-0.24129 0.73838,-0.24129c0.69036,0 1.25,0.55964 1.25,1.25c0,0.38936 -0.17802,0.73714 -0.4571,0.96639l-0.87987,0.73322c-0.32605,0.49475 -1.05552,1.36654 -1.89186,2.18902c-0.0818,0.82697 -0.24271,1.55648 -0.47713,2.32382c0.02083,0.26314 0.0393,0.52614 0.0393,0.78754v0.16667c0,0 0,0.95172 -0.83045,1.19428l-0.25927,0.60497c-0.18473,0.4596 -0.63461,0.78408 -1.16028,0.78408c-0.69036,0 -1.25,-0.55964 -1.25,-1.25v-1.66667h0.35605c-0.02433,-0.31581 -0.02819,-0.63029 -0.00572,-0.94052z" fill-opacity="0.18824" fill="#ad4eac"></path><path d="M287.09578,98.82924c1.21268,0.30317 0.90951,1.51585 0.90951,1.51585l-0.49546,1.24738c-0.33333,0.33333 -0.66667,0.66667 -1,1c0,0 -0.88388,0.88388 -1.76777,0c-0.88388,-0.88388 0,-1.76777 0,-1.76777c0.33333,-0.33333 0.66667,-0.66667 1,-1l-0.16213,-0.08595c0,0 0.30317,-1.21268 1.51585,-0.90951z" fill-opacity="0.35294" fill="#ad4eac"></path><path d="M280.5773,104.10093c-0.55902,1.11803 -1.67705,0.55902 -1.67705,0.55902l-0.39449,-0.1994c-0.71304,-0.40897 -1.44947,-0.78052 -2.20556,-1.10304c0,0 -1.14893,-0.4924 -0.65653,-1.64133c0.4924,-1.14893 1.64133,-0.65653 1.64133,-0.65653c0.84245,0.36257 1.66413,0.7764 2.46111,1.23029l0.27218,0.13394c0,0 1.11803,0.55902 0.55902,1.67705z" fill-opacity="0.35294" fill="#ad4eac"></path><path d="M270.66149,92.88384l-0.28972,1.13356c-0.65804,0.47889 -1.17355,1.58305 -1.97413,1.43667c-2.51107,-0.45913 -1.73615,-6.24667 -1.73615,-7.90356c0,0 0,-1.25 1.25,-1.25c0.46309,0 0.75461,0.17156 0.93814,0.38756c0.12672,-0.0398 0.27334,-0.06282 0.44298,-0.06282c1.25,0 1.25,1.25 1.25,1.25c-0.00146,0.85485 -0.0484,1.71133 -0.14695,2.56065c0.14695,0.30604 0.14695,0.60601 0.14695,0.60601c0,0.43278 0,0.86558 0,1.29836c0.11888,0.28312 0.11888,0.54357 0.11888,0.54357z" fill="#30152f"></path><path d="M286.21467,84.17116c1.21268,0.30317 0.90951,1.51585 0.90951,1.51585l-0.01065,0.04127c0.4291,0.36747 0.4291,0.9803 0.4291,0.9803c0,0.22303 0,0.44606 0,0.6691c0.41672,0.46866 0.24822,1.14266 0.24822,1.14266c-0.05081,0.19682 -0.10162,0.39364 -0.15244,0.59047c0.23755,0.35126 0.23755,0.76444 0.23755,0.76444v1.33333c0,0 0,1.25 -1.25,1.25c-0.32779,0 -0.56963,-0.08596 -0.74805,-0.2128c-0.33742,-0.10346 -0.61408,-0.34587 -0.76322,-0.66049l-0.65456,-1.30911l0.04726,-0.02363c-0.0523,-0.08007 -0.10109,-0.16267 -0.14579,-0.24819c-0.05667,-0.10842 -0.02633,-3.08257 -0.02407,-3.43992l0.36129,-1.48377c0,0 0.30317,-1.21268 1.51585,-0.90951z" fill="#30152f"></path></g><g fill-opacity="0.23529" fill="#2f152f"><path d="M280.70002,119.28993c-0.60172,0 -1.1583,-0.19326 -1.61107,-0.52109c-6.09888,1.40297 -11.94654,1.49697 -16.47558,-1.697c-0.45839,-0.17264 -0.96154,-0.48195 -1.29308,-1.03611c-1.3349,-1.20878 -2.53006,-2.75942 -3.55264,-4.71282c-0.50148,-0.95796 -1.37663,-1.83322 -1.4265,-2.91335c-0.00607,-0.13147 -0.00866,-0.26273 -0.00811,-0.39381l-0.08865,0.01612l-0.49029,-2.69662c-0.03546,-0.17626 -0.05406,-0.35861 -0.05406,-0.54531c0,-1.51878 1.23122,-2.75 2.75,-2.75c0.91114,0 1.71879,0.44312 2.2192,1.1256l1.39276,1.85701c1.01186,1.01184 3.56326,3.66576 4.75179,4.37935c2.50019,1.50112 5.63718,0.88803 8.38625,0.88803c1.19533,0 2.38463,-0.0126 3.57102,-0.0379c-0.04398,-0.14493 -0.06792,-0.28789 -0.03239,-0.42144c0.4383,-1.64715 0.19743,-4.21338 1.80322,-4.78489c1.39816,-0.49762 2.74334,-0.00411 3.95206,0.86057c0.77039,0.23191 1.39836,0.79261 1.72081,1.51902c0.79496,0.81964 1.48729,1.67211 2.04065,2.28764l0.0896,0.08907c0.74912,0.05045 2.43343,0.40159 2.59692,2.52701c0.10246,1.33203 -0.49196,2.06673 -1.13035,2.47011c-0.82204,1.40848 -2.63519,1.22716 -2.63519,1.22716c-0.77119,-0.08067 -1.54034,-0.19232 -2.30443,-0.33308c-0.2094,0.85942 -0.82263,1.56068 -1.6273,1.89137c-0.41126,1.00072 -1.39566,1.70536 -2.54464,1.70536z"></path><path d="M284.95002,94.78993c-0.58185,0 -1.04059,-0.12311 -1.40227,-0.31723c-0.48316,0.79001 -1.35388,1.31723 -2.34773,1.31723c-0.17187,0 -0.34006,-0.01577 -0.5032,-0.04593l-2.63169,-0.43862c-0.49774,0.65405 -1.40072,1.31995 -2.90531,0.86857c-0.77977,-0.23393 -1.25944,-0.62945 -1.54837,-1.07038c-3.98283,4.70206 -6.24357,0.19928 -7.35119,-3.56075c-0.11922,-0.00437 -0.22371,-0.00589 -0.31024,-0.00289c0,0 -2.75,0 -2.75,-2.75c0,-2.27068 1.87491,-2.66646 2.52849,-2.73544c0.31898,-0.73072 1.00332,-1.51456 2.47151,-1.51456c2.19602,0 2.6384,1.75364 2.72752,2.46017c1.56446,0.53932 3.05024,1.33102 3.86214,2.4376l0.26878,-0.60408c1.39598,-0.08987 2.96598,-0.85778 4.28905,-0.66359c0.76927,-0.28923 1.88787,-0.37296 2.92209,0.80901c0.05383,0.06152 0.10423,0.12281 0.15136,0.18384c0.11082,-0.55409 0.22164,-1.10818 0.33245,-1.66227c0,0 0.53932,-2.6966 3.23592,-2.15728c2.6966,0.53932 2.15728,3.23592 2.15728,3.23592c-0.16667,0.83333 -0.33333,1.66667 -0.5,2.5l0.0534,0.96068c0,0 0,2.75 -2.75,2.75z"></path><path d="M319.01686,235.95414l-0.0195,-0.03576c-0.09019,0.01199 -0.18042,0.02263 -0.27068,0.03194c-0.29436,0.15289 -0.60761,0.26901 -0.94486,0.33839c-3.09739,0.63716 -4.37424,-0.18295 -5.28802,-1.42001c-0.37657,-0.14815 -0.75112,-0.30686 -1.12317,-0.47365c-0.41462,0.25064 -0.90077,0.39488 -1.42061,0.39488c-0.29718,0 -0.58334,-0.04714 -0.85143,-0.13434l-2.43878,-0.73163l0.01769,-0.05897l-0.15267,0.01465c-0.86249,-0.38823 -1.7469,-0.72462 -2.64436,-1.02658l-1.89721,0.17247c-0.09312,0.00953 -0.18761,0.01441 -0.28324,0.01441c-1.51878,0 -2.75,-1.23122 -2.75,-2.75c0,-0.70552 0.26568,-1.34898 0.70245,-1.8358l1.37361,-1.54531c-0.79961,-3.53067 0.76093,-4.52514 1.19828,-7.4839c0.60974,-4.12499 0.12081,-9.11801 -0.02281,-13.29347c-0.20767,-6.03753 -0.41763,-14.36056 -2.77645,-20.0019c-0.35842,-0.8572 -1.21576,-1.45483 -1.53238,-2.32834c-0.72083,-1.98865 -0.71055,-3.6915 -0.69505,-5.61413c-0.23772,0.06701 -0.4885,0.10285 -0.74765,0.10285c-1.51878,0 -2.75,-1.23122 -2.75,-2.75v-2.56291c-0.73326,-3.9607 -1.10737,-7.88789 -2.10534,-11.72354c-0.75727,0.12482 -1.66513,0.07656 -2.75719,-0.19863c-1.59579,-0.40214 -1.52357,-2.92831 -2.08407,-4.47559c-1.11109,-3.0672 -0.0954,-3.20729 -0.5328,-6.70332c-0.04442,-0.35505 -0.08919,-0.7101 -0.13457,-1.06507c-1.10643,-2.19374 -2.15092,-4.44862 -2.87492,-6.71854c-0.81837,1.50561 -1.91145,3.49661 -3.08832,4.38034c-0.38652,0.29025 -0.82466,0.53546 -1.29546,0.74628c-3.02755,2.48999 -7.03129,3.5345 -9.68279,6.26554c-2.37924,2.45061 -5.82031,5.62576 -7.60525,8.50122c-1.42882,2.30176 -2.30605,4.93221 -3.85375,7.15576c-1.81131,2.60228 -3.49425,4.65021 -5.06832,7.12717c-0.10524,2.18896 -0.47363,4.70726 -0.69763,6.17913c-0.41423,2.7219 -0.73254,5.4037 -0.99905,8.10089c1.41566,0.11234 2.52946,1.29674 2.52946,2.74129v3h-0.11101l0.0999,0.24697c-0.17355,0.97324 -0.34709,1.94647 -0.52064,2.91971c-1.63893,13.1244 -2.07627,26.01937 -1.72028,39.22779c0.1012,3.75493 5.65346,10.24197 0.79692,13.53159c-1.6099,1.09048 -5.18723,-1.42833 -6.92114,-2.61709c-0.68853,-0.26437 -1.0851,-0.76466 -1.31351,-1.25325c-0.28205,-0.46472 -0.47922,-1.07817 -0.31025,-1.8052v-1.85289c-0.07693,0.10627 -0.15477,0.21181 -0.23354,0.31658c0.135,2.1885 -2.1481,2.71537 -2.1481,2.71537l-0.40488,0.09343c-0.81199,0.73473 -1.6926,1.40174 -2.6454,1.98843l-1.89586,1.4219c-0.46336,0.35542 -1.04312,0.56667 -1.67222,0.56667c-1.51878,0 -2.75,-1.23122 -2.75,-2.75c0,-0.10496 0.00588,-0.20854 0.01733,-0.31044l0.24632,-2.46319l0.08003,0.008c-0.00449,-0.14954 -0.00437,-0.29942 0.00099,-0.4497c0.0401,-1.12436 0.94301,-2.04397 1.36466,-3.08705c1.75551,-4.34274 4.12608,-8.66132 5.67589,-13.04936c0.52329,-1.48161 0.3947,-3.37217 0.65341,-4.8576c0.40287,-2.31319 1.18202,-4.55751 1.48315,-6.88613c0.46043,-3.56049 0.09921,-7.14072 0.49544,-10.71183c0.41672,-3.75573 1.40033,-7.4209 2.02019,-11.1448l-0.03742,-0.7979c0,0 0,-1.34578 0.94145,-2.15445c0.14048,-3.87936 0.28895,-7.89241 0.84406,-11.53605c0.1595,-1.04692 0.38948,-2.00254 0.6201,-2.93649c-0.90561,-0.8116 -0.90561,-2.12301 -0.90561,-2.12301l0.03742,-0.0479c-0.76802,-4.96288 -2.51707,-6.49261 -7.53742,-6.4521c0,0 -1.57215,0 -2.33904,-1.18871c-3.4069,1.17477 -7.46827,2.41889 -9.77519,5.42105c-0.9182,1.19492 -1.67857,2.56281 -2.39339,3.98102l-0.00603,0.06027l-0.02315,-0.00231c-0.00259,0.00515 -0.00518,0.01031 -0.00777,0.01546l0.02049,0.07628c-1.02543,5.99652 -3.4471,11.32464 -5.73969,16.80851c-0.17189,1.06823 -0.35805,2.13347 -0.55361,3.19688c0.11535,0.61565 0.02302,1.12349 0.02302,1.12349l-0.63206,3.22717c-0.12573,0.21024 -0.24551,0.42162 -0.35974,0.6341c-0.7043,3.5058 -1.42799,7.01172 -1.99508,10.56014c-1.26978,7.94528 -0.71876,16.55095 -0.71876,24.58666v1.84639l0.61566,2.05218c0.08721,0.26809 0.13434,0.55425 0.13434,0.85143c0,0.9837 -0.5165,1.84677 -1.2931,2.3328c0.51078,0.477 0.88787,1.02721 1.00712,1.72379c0.28889,1.68754 -1.48404,3.12504 -2.57646,4.44332c-1.49201,1.80048 -3.6856,2.92281 -5.93802,3.16735c-2.30351,2.02577 -6.8368,5.98076 -10.37023,4.53666l0.17439,0.40692c0.15818,0.34709 0.2463,0.73283 0.2463,1.13916c0,1.51878 -1.23122,2.75 -2.75,2.75c-0.54173,0 -1.04688,-0.15664 -1.47261,-0.42711c-0.65066,2.58866 -2.87467,4.62375 -4.12722,7.01937c-1.15223,2.20377 -1.9245,4.90249 -2.54172,7.42735c-0.00848,0.73062 -0.04016,1.44827 -0.40832,1.98434l-0.20637,2.68279c-0.09046,1.34907 -1.15383,2.43166 -2.49448,2.55212c-0.01397,0.98539 -0.17051,2.00254 -0.26293,3.03478l-0.20516,0.32703c0.12552,0.1163 0.24038,0.24346 0.34105,0.38508c1.12483,1.58239 3.25534,3.53818 2.42755,5.2943c-1.1873,2.51879 -5.6451,2.35051 -8.32862,2.06519c-1.24818,0.97263 -2.80359,1.43371 -4.55446,0.6824c-4.78215,-2.05205 -1.92949,-8.28676 -0.94974,-10.84832c0.88204,-2.30609 2.73349,-4.13136 3.79877,-6.35874c0.9356,-1.95623 1.99478,-4.35163 2.89479,-6.60549c0.81061,-2.94653 1.72937,-5.86328 2.79669,-8.51241c0.11973,-0.29718 0.67778,-1.40989 1.36347,-2.66271c-0.20471,-0.38471 -0.32071,-0.82379 -0.32071,-1.28998c0,-0.35267 0.06639,-0.68983 0.18734,-0.99967l0.97823,-2.69012l0.20023,0.07281l0.06466,-0.61025c0.60499,-0.62753 4.18148,-4.48051 5.06357,-4.82376c0.12586,-0.04897 0.25253,-0.09514 0.37994,-0.13874l-0.02638,-0.05716l2.90707,-1.34172c-0.00309,-0.0534 -0.00466,-0.10721 -0.00466,-0.16139c0,-0.27252 0.03964,-0.53579 0.11347,-0.78434l0.73343,-2.68923l0.06954,0.01897c0.00856,-0.10756 0.01936,-0.21508 0.0326,-0.32257c0.37146,-3.01767 3.32091,-6.66972 6.21731,-6.86435c0.55116,-4.10043 0.93857,-8.23265 2.21206,-12.18899c2.42268,-7.5265 6.34555,-14.41766 9.02756,-21.83245c0.8307,-2.29658 1.16861,-4.75328 2.01584,-7.04382c0.66834,-1.80691 1.41447,-3.57419 2.17233,-5.33094c0.56932,-3.63485 1.17518,-7.19511 2.13289,-10.78268c-0.07694,-0.82743 -0.31157,-2.87702 -0.14503,-4.06943c-0.52152,0.25912 -1.12232,0.37092 -1.65121,0.62342c-1.54687,0.73849 -2.82042,1.96021 -4.11599,3.08256c-1.03272,0.89464 -2.26962,1.57899 -3.14723,2.62623c-0.63485,0.75754 -0.53913,2.03855 -1.28667,2.67546l-0.42431,2.12153c-0.20765,1.15612 -1.13788,2.06142 -2.30653,2.23175c-1.78645,5.42334 -4.35564,10.65969 -6.02529,16.0993c-0.80633,2.62697 -1.55772,5.24142 -2.32821,7.84336c-0.10854,0.59271 -0.23176,1.1826 -0.38215,1.76697c-1.51383,5.88218 -3.72727,11.45528 -4.93574,17.42857l-0.23743,2.61174c-0.08416,1.05813 -0.76726,1.94755 -1.71022,2.32915c-0.049,0.16334 -0.098,0.32668 -0.147,0.49001l-0.73225,2.44082c-0.32015,1.16394 -1.38611,2.01897 -2.65178,2.01897c-1.51878,0 -2.75,-1.23122 -2.75,-2.75c0,-0.15921 0.01353,-0.31526 0.0395,-0.46707l0.49248,-3.20109l0.00462,0.00071c-0.00066,-0.0059 -0.00131,-0.01179 -0.00195,-0.01769c-0.04645,-0.4233 0.00335,-0.95178 0.11355,-1.53178c-0.55187,-0.50295 -0.8982,-1.22757 -0.8982,-2.03308c0,-0.08783 0.00412,-0.17469 0.01217,-0.26041l0.24733,-2.96796l0.10471,0.00873l-0.07729,-0.22949c0.92187,-3.69677 1.35584,-5.38802 2.63883,-7.08798l-0.38543,-0.19272l1.22336,-2.44671c0.12793,-0.26986 0.2985,-0.51557 0.503,-0.72844c0.94428,-3.25904 1.6582,-6.68785 2.52736,-9.87479c3.79718,-13.92299 6.50771,-27.72672 12.71915,-40.69914c-0.00873,-0.08918 -0.01319,-0.17961 -0.01319,-0.27109v-4.25h0.06024c-0.01334,-0.13023 -0.02413,-0.26088 -0.03216,-0.39198c-0.09301,-1.51919 0.94322,-2.8992 1.27291,-4.3851c0.77512,-3.49348 1.90529,-6.89427 3.47865,-10.18113c1.58262,-3.30621 4.01282,-6.14483 5.4297,-9.59416c0.31894,-0.77644 0.6106,-1.56163 0.88486,-2.3524c0.09503,-0.31395 0.19123,-0.62732 0.28878,-0.94002c0.63607,-2.03892 1.8997,-7.4165 3.3016,-9.89771c0.00896,-0.02174 0.01795,-0.04346 0.02696,-0.06518l-0.21154,0.30769c0,0 0,-0.2727 0.08588,-0.64636c-0.2264,-0.60726 -0.24332,-1.38313 0.31853,-2.28941l-0.19254,-0.28881l0.06582,-0.04388l-0.18132,-0.14551c-0.59493,-1.29993 -1.67523,-3.60732 -2.45111,-5.47112c-0.67503,-1.06045 -1.37595,-2.11459 -1.77149,-3.29923c-1.23293,-3.69261 0.10546,-8.73777 0.12624,-12.56568c0.01447,-2.66424 -1.66105,-5.79331 -0.59498,-8.41027c1.3449,-3.30141 4.49145,-5.0206 7.9007,-5.96852c1.09547,-1.17751 2.32821,-2.26507 3.58289,-3.3184l1.26647,-1.99016c0.34058,-0.55444 0.87228,-0.97885 1.50335,-1.18149c-0.35146,-0.80707 -0.51433,-1.70042 -0.38984,-2.7004c0.29376,-2.35968 2.25165,-4.15347 4.48167,-4.73692c0.51576,-2.64671 3.96987,-6.83068 6.32683,-7.79709c0.58868,-0.24138 1.23327,-0.58518 1.88852,-0.89503c2.0307,-2.80315 4.62658,-8.20087 8.53472,-7.64738c0.79375,0.11242 1.18878,0.82754 1.50964,1.66429c3.61967,0.30617 6.39285,4.6835 8.12634,7.4997c0.71538,1.16219 2.11558,2.36011 2.14969,3.6405c0.59001,0.50438 0.964,1.2541 0.964,2.09117c0,1.51878 -1.23122,2.75 -2.75,2.75h-2.5v-0.06444l-0.13699,0.06102c-0.09041,-0.00904 -0.19365,-0.02367 -0.30783,-0.04274c-2.19339,0.80217 -4.78891,1.06964 -7.04873,0.96943c-0.47908,0.89814 -0.84221,2.03591 -1.15601,3.1484c0.25352,0.4163 0.39956,0.90526 0.39956,1.42833v2.75h-0.15782l0.13124,0.38143c-2.69015,9.41553 -0.67998,19.19981 1.71463,28.58695l2.1468,3.578c0.26312,0.42173 0.41515,0.91992 0.41515,1.45362c0,1.4209 -1.07764,2.59011 -2.4602,2.73491c0.45011,0.90244 0.92294,1.80465 1.71943,2.63746c6.34836,6.63779 15.9635,8.19877 24.41577,5.39805c0.80588,-0.68377 1.57855,-1.40798 2.32249,-2.15583l2.46017,-2.70618c0.5033,-0.55781 1.23188,-0.90841 2.04235,-0.90841c1.51878,0 2.75,1.23122 2.75,2.75c0,0.10496 -0.00588,0.20854 -0.01733,0.31044l-0.24632,2.46319l-0.16601,-0.0166c0.00573,0.27856 -0.00838,0.55761 -0.04744,0.83725c-0.16641,1.19129 -1.36106,1.98431 -2.27292,2.803c-0.13715,0.29837 -0.32614,0.56797 -0.55544,0.79726l-2,2c-0.59255,0.8455 -1.32221,1.61234 -2.33659,2.28637c-7.23256,4.80584 -16.745,2.64959 -24.16565,-0.44245c-2.13059,-0.88778 -4.94078,-1.60272 -6.56745,-3.39654c0.19708,1.11257 0.48067,2.24677 1.21181,3.0669c2.14794,2.40936 5.16241,4.66168 7.83587,6.43769c2.68228,1.46939 4.01727,2.15408 7.07747,2.10349h2.13492c3.86122,-0.32794 7.47441,-1.06303 11.2434,-1.92881c1.24903,-0.28692 2.65064,-0.27476 3.84867,-0.68659c0.02624,-0.02622 0.0524,-0.0526 0.07846,-0.07915l1.39745,-0.82731c0.75459,-0.81147 1.06933,-2.0237 1.61471,-3.01112l1.2227,-2.44686c0,0 0.21645,-0.4329 0.64934,-0.84467c0.58895,-0.78017 1.52012,-1.05952 1.52012,-1.05952c0.0671,-0.00887 0.13465,-0.01976 0.20257,-0.03238c0.15511,-1.03499 0.44073,-2.06206 0.88221,-3.07669c0.01431,-0.03289 0.02873,-0.06572 0.04326,-0.0985l-0.02234,-0.00496l0.98825,-4.44712c0.25235,-1.25838 1.36361,-2.20632 2.69626,-2.20632c1.51878,0 2.75,1.23122 2.75,2.75v2.24337c0.30813,1.17959 0.68594,2.29776 1.08922,3.39558c0.73742,0.70211 0.88314,1.72214 0.88314,1.72214l0.09041,0.84056c0.26651,0.69896 0.52925,1.40278 0.7766,2.12226c0.17111,0.49771 0.28558,1.0098 0.37171,1.52919c1.94631,5.57915 3.98235,11.00545 5.3556,16.71518c1.56542,0.41033 1.88896,2.18979 1.88896,2.18979c0.48266,3.64146 3.94495,5.74581 5.53419,9.07436c0.83149,1.7415 0.71196,3.86189 1.64627,5.55046c0.8622,1.55823 2.4421,2.61724 3.41387,4.1096c1.54054,2.36583 3.35537,5.64901 4.28777,8.3269c0.65491,1.88093 0.65135,3.9464 1.27947,5.83644c0.86015,2.58818 2.41657,5.03031 3.43609,7.57285l0.5,1.25c0,0 0.03337,0.08343 0.07297,0.22615c0.04622,0.14072 0.06473,0.22864 0.06473,0.22864c1.93959,9.3464 2.3793,18.89783 4.25558,28.27721l0.16987,1.01366c0.2541,0.6056 0.19924,1.20252 0.06022,1.67836c-0.09737,0.49528 -0.32998,1.06185 -0.85389,1.48511c-0.59543,0.83648 -1.09447,1.79356 -1.98277,2.26362c-0.9662,0.51128 -1.945,0.81774 -2.92845,0.96112zM207.36067,234.77337c0.10508,0.10564 0.21022,0.21123 0.3153,0.31686c-0.00302,-0.25008 -0.00622,-0.50052 -0.00953,-0.75128c-0.09594,0.15144 -0.19768,0.29651 -0.30577,0.43441zM234.91281,115.13097c0.16566,0.12041 0.42536,0.32465 0.50003,0.45825c0.14098,0.25227 0.25907,0.51675 0.36807,0.78597c0.06793,-0.27364 0.17684,-0.5311 0.31983,-0.76549c-0.42438,-0.09818 -0.82836,-0.24872 -1.18793,-0.47873z"></path><path d="M292.45002,242.78993c0,0.6291 -0.21124,1.20886 -0.56667,1.67222l-1.10291,1.47054c-0.14617,0.9809 -0.27968,1.96354 -0.39473,2.94845l-0.13433,0.1742l0.08265,0.0248l-0.61074,2.03581c0.29446,0.25817 0.56155,0.62169 0.76959,1.12692c1.04706,2.54286 -1.4958,3.58993 -1.4958,3.58993c-2.10149,0.86307 -4.03442,2.13736 -6.15813,2.93067c0.0861,0.01993 0.17034,0.04265 0.2518,0.06955l0.19929,0.5969l0.22956,-0.20087l1.74123,1.98997c0.42888,0.48502 0.68919,1.12257 0.68919,1.82091c0,0.41415 -0.09155,0.80692 -0.25552,1.15917c0.00217,0.75143 -0.2555,1.5973 -0.24448,2.34083c0.02963,1.99978 0,4 0,6l-0.25018,1.9274c-0.01038,5.01073 -0.45626,9.95456 -0.57338,14.95442l-0.42143,0.49568l0.20467,0.10234l-0.41818,0.83635l1.58804,0.57747c1.08744,0.36683 1.87046,1.39515 1.87046,2.60634c0,1.44437 -1.11353,2.62867 -2.52895,2.74125l-2.72207,0.24746l-0.00461,-0.05067l-0.11975,0.05914c-3.23406,-0.09576 -6.7458,0.64794 -8.46079,-3.5622c-0.68984,-1.6935 0.62395,-3.45476 1.58603,-5.19406c-0.68144,-0.92741 -1.37709,-1.8449 -1.77919,-2.91157c-1.05512,-2.79904 -2.36143,-7.80819 -1.94634,-10.94436c0.43692,-3.30108 2.10906,-6.34406 2.98034,-9.56974c-1.79431,-0.28654 -3.45665,-1.45966 -4.46435,-3.0854c-0.65699,-1.05994 -0.23658,-2.48396 -0.29033,-3.72984c-0.15635,-3.62421 0.13321,-7.17807 0.73308,-10.70585c-0.74308,-0.49232 -1.23308,-1.33601 -1.23308,-2.29415c0,-0.38309 0.07833,-0.74788 0.21985,-1.07923l0.96478,-2.41194c1.96346,-5.38721 4.06378,-10.54928 4.31879,-16.39582c0.2882,-6.60741 -0.01138,-13.30081 -0.00279,-19.9152c0.00246,-1.89534 -0.4676,-3.85253 0.01267,-5.68601c0.01573,-0.06006 0.03187,-0.11998 0.0484,-0.17976l-0.0296,-0.00404l0.73785,-5.41089c0.06769,-0.56095 0.30426,-1.0699 0.65737,-1.47451c-0.25235,-4.19537 -0.42731,-8.40293 -0.42731,-12.6926c0,0 0,-0.04078 0.00497,-0.1124c0.00452,-0.56308 0.1497,-1.28495 0.73557,-1.84683c0.34761,-0.38137 0.85838,-0.68907 1.6089,-0.76994c0.74211,-0.1382 1.31976,0.00976 1.76229,0.27516c0.72262,0.36983 1.0691,1.01955 1.23523,1.55758c0.02534,0.06717 0.03705,0.10623 0.03705,0.10623l0.81788,2.77814c0.44281,5.08779 1.35475,9.96131 1.78471,14.99109c0.14268,1.6691 1.05005,3.20661 1.23423,4.87164c0.925,8.36202 0.40949,17.28012 2.21527,25.56006c0.0315,0.14442 0.06649,0.28791 0.10448,0.43059c0.36302,0.68536 0.70995,1.3845 1.00636,2.12162c1.00487,2.49896 1.11707,4.28617 2.74956,6.44449l2.14803,2.14803c0.49765,0.49765 0.80546,1.18515 0.80546,1.94454c0,1.06885 -0.60978,1.99527 -1.50044,2.45037c0.00029,0.01651 0.00044,0.03305 0.00044,0.04963zM274.99897,258.88542c-0.03971,0.13994 -0.07381,0.28082 -0.08928,0.42467c-0.00615,0.05724 0.05587,0.10343 0.14062,0.13574c0.05437,-0.09686 0.11443,-0.19009 0.17973,-0.27924c-0.07879,-0.09343 -0.1558,-0.18716 -0.23107,-0.28117z"></path></g><g fill-opacity="0.23529" fill="#2f152f"><path d="M313.91803,232.14316c-0.12801,0.83208 -0.47156,1.37024 -0.88669,1.71646c-0.40532,0.35765 -0.98946,0.61538 -1.83133,0.61538c-0.31187,0 -0.58836,-0.03537 -0.8335,-0.09808c-2.58797,-0.39269 -5.35079,-0.50703 -7.11321,-2.99755c-1.92382,-2.7186 -1.5433,-6.3614 -1.55329,-9.40437c-0.00946,-2.88402 0.29387,-5.69764 0.52615,-8.53133c-0.1169,-1.18521 -0.21516,-2.3767 -0.27273,-3.58168c-0.15819,-3.31079 0.0356,-6.57469 -0.09248,-9.84957c-0.13351,-1.14597 -0.27193,-2.3083 -0.39666,-3.50759c-0.03794,-0.36478 -0.05877,-0.73206 -0.07018,-1.10063c-0.64086,-3.18188 -2.59068,-6.44938 -2.80297,-9.55956l-1.2297,-3.6891c-0.10449,-0.29062 -0.16142,-0.60392 -0.16142,-0.93052c0,-0.7955 0.33777,-1.51211 0.87772,-2.01423c-0.40415,-1.40465 -0.74851,-2.79636 -1.05247,-4.2126c-0.09029,-0.12488 -0.18203,-0.24928 -0.27525,-0.37318l-0.42611,-2.63412c-1.42816,-2.78168 -3.86002,-5.35903 -4.93564,-8.26589c-1.10836,-2.99537 -1.12983,-5.6365 -1.50638,-8.54648c-0.40401,-0.74883 -0.958,-1.42871 -1.25261,-2.22684c-0.6313,-1.71032 -0.99603,-3.5087 -1.36153,-5.31156c-0.29379,-0.77048 -0.52705,-1.53666 -0.63461,-2.29435c-0.30793,-0.55521 -0.62978,-1.11231 -0.96666,-1.67246c-0.97987,-0.19265 -1.77305,-0.90575 -2.07972,-1.83949c-2.24734,2.57378 -5.90101,5.03194 -8.27818,6.28393c-5.92181,4.23444 -12.11872,8.27568 -15.07011,15.41497c0,0 -0.92269,2.21446 -3.11279,1.64496c-1.97498,2.90149 -3.96272,5.78739 -6.2509,8.44957c-0.24503,0.46883 -0.66996,0.9075 -1.39492,1.16157c-0.47659,0.22077 -1.08738,0.3539 -1.76265,0.14049c-0.69063,-0.15672 -1.15064,-0.58002 -1.45057,-1.0112c-0.49572,-0.58322 -0.64178,-1.17425 -0.61789,-1.70122l-0.1851,-0.96822c-0.21833,-5.10173 -6.12502,-3.92069 -9.90811,-3.77566c-1.72261,0.06604 -3.53868,-0.2489 -5.16078,0.33465c-2.54192,0.91445 -3.07466,3.7675 -4.50688,5.58342c-0.73558,0.93264 -1.82714,1.52931 -2.62832,2.40625c-1.95007,2.13445 -2.8745,5.42131 -3.76166,8.21648c-0.65904,5.17071 -1.16983,10.33638 -2.09826,15.48513c-0.71192,3.94805 -2.51138,7.65064 -3.49273,11.48853c0.02831,0.15824 0.04309,0.32118 0.04309,0.48757c0,0.13036 -0.00907,0.2586 -0.02662,0.38413l-0.49462,3.95697l-0.03971,-0.00496c0.00506,0.05622 0.0098,0.1125 0.01419,0.16882c0.07922,1.0164 -0.58673,1.95931 -0.74397,2.9666c-0.8637,5.53294 -1.87624,10.97201 -1.95444,16.56415c0.74517,0.81275 0.74517,1.9643 0.74517,1.9643c0,2.26562 0.4239,5.09197 0.30719,7.71878c3.22998,3.84144 -1.83676,8.50308 -4.35912,10.44448l-2.46306,1.97045c-0.47326,0.3853 -1.07717,0.6163 -1.73502,0.6163c-0.82153,0 -1.55893,-0.36024 -2.06284,-0.93138c-1.01556,0.56445 -1.9863,1.09049 -2.84648,1.58244l-0.0278,0.00589l0.00396,0.00726l-1.56622,0.8543l-0.33824,0.43049l-0.04856,-0.03815c-0.05673,0.09683 -0.11473,0.193 -0.17407,0.28847c-0.75186,1.20953 -2.12617,2.17104 -3.71973,2.96657c-0.08505,0.95699 -0.13481,1.92718 -0.79161,2.54465c-0.95471,0.89755 -2.52493,0.63014 -3.83573,0.85372l-2.33159,1.48374c-0.36867,0.24291 -0.79925,0.39949 -1.26298,0.44096l0.0019,0.01104c0,0 0,1.40852 -1.00804,2.20948c0.00001,0.00007 0.00003,0.00014 0.00004,0.00021c0.2146,1.1479 -0.3456,2.30988 -0.5248,3.46384c-0.13385,0.86194 -0.88401,6.03586 -1.31909,7.56815c-0.13249,0.4666 -0.31873,1.21974 -0.55727,2.1064c0.04255,0.71372 0.03515,1.477 -0.14044,2.42197c-0.03443,0.1853 -1.06047,2.94406 -1.81719,4.51548c0.75597,0.11589 2.36681,0.60976 2.36681,2.71447c0,2.75 -2.75,2.75 -2.75,2.75h-0.25c-0.11416,-0.00833 -0.22741,-0.01551 -0.33972,-0.02178c-0.49471,0.47783 -1.16817,0.77178 -1.91028,0.77178c-0.95003,0 -1.78754,-0.48174 -2.28157,-1.21427c-0.60708,-0.24222 -1.12701,-0.64328 -1.54362,-1.31803c-3.16514,0.91374 -4.19529,-3.89885 -3.86398,-6.54287c0.9927,-7.92241 5.79658,-15.05466 9.50301,-22.01662c0.10633,-0.48487 0.34061,-0.92182 0.66564,-1.27369c0.01264,-0.02469 0.02526,-0.04938 0.03786,-0.07406c-0.01145,-0.1019 -0.01733,-0.20549 -0.01733,-0.31045c0,-0.46188 0.11387,-0.89717 0.31507,-1.27932l1.72526,-3.45052l0.36766,0.18383c0.74705,-1.72915 1.78397,-3.08444 3.84359,-5.59311l0.19293,-0.08051l-0.05274,-0.05754l2.99357,-2.7441c0.1788,-0.16503 0.37954,-0.30663 0.59735,-0.41994c0.01357,-0.97163 0.06827,-1.74986 0.20439,-2.05573c1.27511,-2.86526 3.66736,-4.20302 6.03751,-5.7912c1.77025,-1.1862 3.61289,-2.27053 5.36005,-3.48858c-0.51477,-0.49975 -0.83462,-1.19916 -0.83462,-1.97328c0,-0.27252 0.03964,-0.53579 0.11347,-0.78434l0.73343,-2.68923l0.01684,0.00459c0.00127,-0.02597 0.00269,-0.05194 0.00426,-0.07793c0.11018,-1.82612 1.21018,-3.4543 1.7359,-5.20658c1.61947,-5.39793 3.39063,-10.11924 5.59328,-15.26977l0.82745,-2.15137c0.07316,-0.58269 0.1625,-1.16194 0.30426,-1.72929c0.95126,-3.80717 2.7806,-7.45963 3.47149,-11.36998c0.77149,-4.36653 1.25979,-8.73686 1.79414,-13.11545c-0.24243,-0.90536 0.05988,-1.76912 0.05988,-1.76912c0.08529,-0.24352 0.16936,-0.48806 0.25269,-0.73333c0.10795,-0.83892 0.21988,-1.67818 0.33812,-2.5178c-0.16298,-1.31667 -0.95277,-2.50718 -1.24775,-3.80545c-1.51543,1.11355 -3.33879,1.78974 -4.83232,2.93857c-1.93769,2.39293 -4.31812,5.00254 -5.70864,7.76268c-0.71824,1.42568 -1.11223,4.23242 -1.60038,5.64172c-0.72581,2.09541 -1.72855,4.08471 -2.55279,6.14339c-0.95333,2.38113 -1.8717,4.98783 -3.22679,7.1949c-0.16877,0.27488 -0.34675,0.54556 -0.52913,0.81425c-0.06795,0.86214 -0.17607,1.71607 -0.36026,2.5542c-1.04296,4.74589 -3.10214,8.74227 -4.35051,13.34909c-0.1939,0.42472 -0.37596,0.85331 -0.54693,1.28536c-0.45411,1.99498 -1.03202,4.88311 -1.94527,7.43161c-0.27586,1.78685 -0.44585,3.5948 -0.55375,5.40164l-0.89951,0.58878l0.30338,0.30338l-2.5,2.5c-0.49765,0.49765 -1.18515,0.80546 -1.94454,0.80546c-1.51878,0 -2.75,-1.23122 -2.75,-2.75v-2.75h0.09783c-0.01663,-0.24311 -0.01714,-0.4877 0.00195,-0.73407c0.12278,-1.58408 1.70117,-2.69278 2.38469,-4.12707c0.13745,-0.28844 0.26828,-0.58459 0.39316,-0.88701c0.40139,-2.57169 1.21888,-5.17069 2.15769,-7.47463c0.01362,-0.05681 0.02723,-0.11345 0.04083,-0.16992c1.04991,-4.36118 1.28272,-8.76777 2.83729,-13.04124c0.65467,-1.79968 1.54073,-3.46911 2.47867,-5.11675c0.10181,-2.69209 0.01482,-5.39332 0.74381,-8.05321c0.22189,-0.80961 1.00098,-1.38917 1.23296,-2.19595c0.57518,-2.00043 0.69117,-4.11061 1.21521,-6.12504c2.05224,-7.88891 3.2606,-15.38959 6.95623,-22.80495c0,0 0.58942,-1.17885 1.76827,-1.49627c2.41162,-4.54882 3.19794,-9.99599 4.83417,-14.89843c2.79707,-8.38052 7.40654,-16.84093 9.04726,-25.5405c-1.12937,-1.05768 -2.3115,-1.98368 -3.36619,-3.40365c-2.80928,-3.78223 -3.31604,-10.38019 -3.32383,-14.9313c-0.0011,-0.64285 -0.01581,-5.73351 0.06233,-6.08217c1.22738,-5.4766 5.26106,-9.86594 9.60561,-12.91718c1.99389,-1.40034 3.68289,-4.07697 6.70862,-2.76016c0.03949,-0.01139 0.07917,-0.02251 0.11902,-0.0334c-0.00344,-1.79703 0.01118,-4.73634 0.18014,-5.17434c0.51248,-1.32855 3.17848,-3.61888 4.08113,-4.87359c2.13002,-2.9608 4.02366,-6.01109 6.34577,-8.87708c0.77395,-0.95523 1.2683,-2.24629 2.33773,-2.85275c0.14174,-0.08038 0.28578,-0.1554 0.43184,-0.22571l-0.03704,-0.06174l2.46124,-1.47675c0.42173,-0.26312 0.91992,-0.41515 1.45362,-0.41515c1.51874,0 2.74993,1.23115 2.75,2.74988c0.07808,0.05608 0.1536,0.11603 0.22632,0.18c0.11961,0.10523 0.2387,0.22191 0.35647,0.34863c0.49534,-0.48179 1.17163,-0.7785 1.91722,-0.7785c0.91114,0 1.71879,0.44312 2.2192,1.1256l1.4808,1.9744l-0.13912,0.10434l0.35755,0.23657c0.42995,1.19398 1.21783,2.31496 1.28986,3.58195c0.00421,0.07408 0.00878,0.14875 0.01359,0.22395l0.81512,0.90569c0.44304,0.48819 0.713,1.13631 0.713,1.84749c0,1.37407 -1.00777,2.51276 -2.3245,2.71728c-0.9907,1.16314 -3.03017,0.55871 -4.55088,0.77989c-3.27939,0.47698 -7.10291,1.06416 -9.42037,3.48493c0.22879,0.02922 0.47373,0.08826 0.73555,0.18346c2.58443,0.93979 1.64464,3.52423 1.64464,3.52423c-2.84928,7.70186 -1.91344,17.2508 0.98396,24.82743c0.69585,1.81962 4.86825,7.36535 4.42521,9.17018c-0.91234,3.71669 -2.44562,4.7188 -4.31158,4.46322c0.18672,0.53973 0.37642,0.99503 0.55073,1.24398c1.10718,1.58127 2.86179,2.60664 4.11385,4.07587c1.21492,1.42564 2.02794,3.21359 3.44265,4.44122c1.68511,1.46227 3.92981,2.50038 6.3793,3.10636c3.83237,0.05216 8.24406,-0.81014 11.34044,-1.66633c0.86507,-0.2392 1.60258,-1.01397 2.5,-1c0.10053,0.00157 0.20091,0.00467 0.30115,0.0092l-0.01225,-0.07349l2.9489,-0.49148c0.16314,-0.03017 0.33133,-0.04593 0.5032,-0.04593c1.51878,0 2.75,1.23122 2.75,2.75c0,0.96969 -0.50189,1.82215 -1.26006,2.3118l-2.21451,1.47634l-0.02558,-0.03836l-0.06821,0.09818c-4.89599,2.68258 -12.61541,3.55367 -18.62198,2.03085c-1.08966,-0.05776 -2.16417,-0.19983 -3.21058,-0.45695c-5.6009,-1.37625 -9.07168,-5.30094 -13.71095,-8.27883c0.51752,2.0134 1.3171,3.94405 2.53459,5.75842c0.5243,0.39651 1.00774,0.83536 1.41561,1.35362c0.01631,0.02072 0.0325,0.04152 0.04859,0.06238l0.01308,-0.01745l1.9744,1.4808c0.68249,0.50041 1.1256,1.30806 1.1256,2.2192c0,1.1551 -0.71216,2.14386 -1.72136,2.55116c0.34566,0.27392 0.71288,0.51415 1.11581,0.69829c7.47362,3.41562 16.46085,2.89661 23.98593,0.39167c1.21493,-0.40443 2.53812,-0.5128 3.75655,-0.8886c0.08849,-0.05034 0.17709,-0.1003 0.26579,-0.14988c2.79929,-1.56473 5.59779,-3.51939 7.76394,-5.98848c0.53832,-0.72146 0.96308,-1.56267 1.61934,-2.13896c0.75492,-1.17416 1.36411,-2.44764 1.77889,-3.83002l0.4709,-2.58995c0.21258,-1.30729 1.34686,-2.30524 2.71422,-2.30524c1.51878,0 2.75,1.23122 2.75,2.75v3.5h-0.36242c0.10561,0.52675 0.1824,1.05818 0.23734,1.63377c0.4347,0.70793 0.52923,1.55099 0.41618,2.43754c0.6592,0.35116 1.15856,0.96285 1.36067,1.69766l0.72351,2.41171c0.22329,0.67569 0.40887,1.36929 0.57399,2.07231c0.41888,0.47648 0.60181,1.10028 0.74734,1.74757c2.74839,5.53715 4.3848,11.08754 5.75101,17.46531l-0.01182,0.04581l0.01983,-0.00361l0.00553,0.03044c0.86293,0.14571 1.58927,0.69335 1.97979,1.4437l1.47325,2.70096l-0.03644,0.01987c0.03711,0.04162 0.0739,0.08355 0.11038,0.12582c1.47326,1.70724 0.98256,3.625 1.62073,5.55152c1.40911,4.25389 3.79961,8.23677 5.03338,12.60741c1.49517,5.29666 2.7742,10.56073 4.51562,15.80638l0.53872,2.66652c0,0 0.0203,0.10148 0.03333,0.269c0.02008,0.16683 0.02008,0.27032 0.02008,0.27032c0,9.13032 0.24733,18.22577 0.24998,27.35237c0.02209,0.24578 0.01403,0.51688 -0.03196,0.81579z"></path><path d="M278.85463,116.28293c-5.01293,0.86374 -10.20451,0.74122 -14.89083,-1.60145c-1.41088,-0.70529 -4.22845,-3.05737 -5.48171,-4.05909c0,0 -2.14739,-1.71791 -0.42948,-3.8653c1.71791,-2.14739 3.8653,-0.42948 3.8653,-0.42948c0.54666,0.43773 3.69111,3.0272 4.51829,3.44091c0.81409,0.40716 1.6536,0.72228 2.51039,0.95807l1.50238,0.0097c2.71055,0.24934 5.3112,0.32202 8.01375,0.05178c0.44257,-0.08576 0.8821,-0.18012 1.31756,-0.28143c0.41356,-0.14205 0.8273,-0.29364 1.21346,-0.30204c0.11582,-0.03064 0.23126,-0.06167 0.34631,-0.09307l2.61028,-0.94919c0.30984,-0.12096 0.64701,-0.18734 0.99967,-0.18734c1.51878,0 2.75,1.23122 2.75,2.75c0,1.09781 -0.64327,2.04537 -1.57345,2.48632l-2.44671,1.22336l-0.04955,-0.0991c-0.11227,0.09007 -0.22757,0.17683 -0.34622,0.2599c-1.04034,0.72831 -2.5006,0.45187 -3.7606,0.61044c-0.22333,0.02811 -0.44626,0.05374 -0.66884,0.07702z"></path><path d="M277.89054,87.74884c0.44026,-0.70067 1.44316,-1.76504 3.24925,-1.10828c0.50547,0.18381 0.87613,0.43053 1.14538,0.70852c0.79256,0.21289 1.74549,0.79538 1.90118,2.35228c0.21362,2.13619 -1.40719,2.77148 -2.12844,2.9474c-0.14866,0.35859 -0.34562,0.68363 -0.63464,0.94474c-2.18665,1.97558 -6.98956,4.4714 -7.80701,0.93336c-1.40809,0.70426 -2.81626,-0.35187 -2.81626,-0.35187c-0.66667,-0.5 -3.33333,-2.5 -4,-3c0,0 -2.2,-1.65 -0.55,-3.85c1.65,-2.2 3.85,-0.55 3.85,-0.55c0.66667,0.5 1.33333,1 2,1.5l1.98091,1.48568c0.47936,-1.28584 2.42692,-1.42904 3.80963,-2.01184z"></path><path d="M241.91522,247.96021c-0.12103,-0.01978 -0.23796,-0.04833 -0.35097,-0.08495c-0.40297,0.7361 -1.24543,1.62796 -2.90355,1.29634c-2.6966,-0.53932 -2.15728,-3.23592 -2.15728,-3.23592l0.52402,-2.60861c0.45548,-1.59722 2.02427,-7.96413 3.50249,-8.44358c0.27148,-0.08805 0.53306,-0.15169 0.78501,-0.19279c0.25926,-0.64372 0.50612,-1.2891 0.74089,-1.93639c0.13196,-4.171 0.30196,-8.275 0.82402,-12.36373c0.03947,-1.48207 0.07018,-2.95645 0.07018,-4.41558c0,-3.20767 -0.68872,-7.62157 1.17835,-10.47422c0.05147,-0.07864 0.1045,-0.15599 0.15898,-0.23212l-0.047,-0.0235l1.22336,-2.44671c0.44095,-0.93018 1.38851,-1.57345 2.48632,-1.57345c1.51878,0 2.75,1.23122 2.75,2.75v2.5c-0.00291,3.80108 0.25151,7.57992 0.24659,11.38699c-0.46094,4.67016 -1.32113,9.1856 -2.66802,13.60534c0.0339,0.92486 0.08557,1.84566 0.16032,2.76071c0.24067,2.94612 1.56373,5.92766 2.22456,8.80006l-0.04256,0.17981l0.06547,-0.00655l0.24632,2.46319c0.01145,0.1019 0.01733,0.20549 0.01733,0.31044c0,1.51878 -1.23122,2.75 -2.75,2.75c-0.75939,0 -1.44689,-0.3078 -1.94454,-0.80546l-1.41852,-1.41852c-0.79223,0.99598 -1.77168,1.6471 -2.92173,1.45919z"></path><path d="M279.61488,296.5831c-2.35811,1.41486 -3.77297,-0.94324 -3.77297,-0.94324l-1.14189,-2.66486c0.00685,-1.99209 0.21555,-3.98617 0.53742,-5.9521c0,0 0.34133,-2.04798 2.21033,-2.28837c-0.02489,-5.36344 -0.26108,-10.36701 -0.97714,-15.67353c-0.17024,-1.26161 0.55233,-2.70105 0.13416,-3.85729c-0.22202,-0.15688 -0.34931,-0.28417 -0.34931,-0.28417l-0.84359,-0.91912c-0.02799,-0.0425 -0.05683,-0.086 -0.08645,-0.13045c-0.28803,-0.21089 -0.55887,-0.43561 -0.73633,-0.73481c-0.19516,-0.32902 -0.33722,-0.68215 -0.45402,-1.04674c-0.22468,-0.34844 -0.45082,-0.7121 -0.6656,-1.08221c-5.71894,-1.73799 -2.03017,-10.63362 -1.47441,-14.02699c0.09301,-0.46217 0.18601,-0.92433 0.27902,-1.3865l-0.04644,-0.00663l0.49428,-3.45998c0.09022,-0.71256 0.4531,-1.34011 0.98081,-1.77479c0.03808,-0.86031 0.47143,-1.61788 1.12287,-2.09553l1.58273,-1.18705c1.28003,-2.74394 0.54166,-6.59621 0.54166,-9.59375c0,-7.27991 -0.83647,-15.44 -0.20623,-23.02291c-0.51057,-5.18999 -0.79377,-10.39024 -0.79377,-15.72709v-1c0,0 0,-2.75 2.75,-2.75c2.75,0 2.75,2.75 2.75,2.75v1c0,2.07162 0.04904,4.11709 0.13989,6.14676c2.48383,0.80537 1.7543,3.35873 1.7543,3.35873c-0.79685,2.70524 -0.92227,4.85267 -0.92176,7.30329c0.28839,2.67939 0.62854,5.36324 1.00323,8.07622c0.31211,2.2599 -0.15378,4.56864 0.01095,6.84404c0.3301,4.5595 3.3257,10.87429 2.21799,15.82373c0.03728,0.21826 0.09064,0.41771 0.27523,0.48758c0.92034,0.34833 2.25077,-0.42873 2.9394,0.27423c2.63042,2.68519 2.14128,9.33852 1.82735,12.82243c-0.11187,1.24148 0.08876,2.64694 -0.58947,3.69279c-0.87548,1.35002 -2.29634,2.36325 -3.76464,3.02138c-1.46065,0.6547 -3.29031,0.02255 -4.78059,0.56078c0.7305,0.73348 1.41968,1.49243 1.8732,2.41044c0.91998,1.86222 0.31853,3.99632 0.5038,5.93067c0.40103,4.18704 0.17185,7.86649 0.00959,12.08848c-0.06647,1.72947 0.15681,7.88659 -0.04019,8.38562c-0.05893,0.14927 -0.12441,0.29464 -0.19572,0.43653l0.07186,0.02613l-0.97809,2.68974c-0.35912,1.06457 -1.35217,1.83738 -2.53015,1.86943c-0.05157,0.66624 -0.07894,1.33385 -0.07619,2.00104l0.35811,-0.16486c0,0 1.41486,2.35811 -0.94324,3.77297z"></path></g><path d="M174.87757,165.34633c-0.02455,-0.83005 -0.02708,-1.67104 0.00579,-2.54634c0.012,-0.3195 -0.00926,-0.65269 -0.04289,-0.99129c-0.18065,0.10654 -0.33231,0.2355 -0.40922,0.42635c-0.52493,1.30259 -0.25112,2.30454 0.44633,3.11127zM186.16163,183.18589c-0.03287,-0.06521 -0.0665,-0.13032 -0.10085,-0.19531c-0.58406,1.31165 -1.89895,2.22609 -3.42742,2.22609c-1.78463,0 -3.27809,-1.24664 -3.65706,-2.91659l-0.64764,-2.59057c-0.05238,-0.2134 -0.52115,-2.18079 -0.88728,-3.55313c-0.68963,-0.38605 -1.1318,-0.98271 -1.40932,-1.52079c-0.19972,0.00728 -0.39649,0.00299 -0.56431,-0.06486c-1.16781,-0.47214 -2.35874,-0.96478 -3.36039,-1.72857c-2.473,-1.88574 -4.41506,-4.16395 -4.8305,-7.37307c-0.65957,-5.09489 1.18097,-8.71595 5.00518,-11.92369c1.35117,-1.13336 3.20134,-1.60523 4.47005,-2.83019c3.2744,-3.16147 6.38531,-6.9265 9.88003,-9.84988c0.84946,-0.71059 1.77626,-1.30916 2.74421,-1.84726l1.75424,-2.00484c0.68761,-0.79417 1.7032,-1.29657 2.83613,-1.29657c2.07107,0 3.75,1.67893 3.75,3.75c0,0.17776 -0.01237,0.35264 -0.03629,0.52381l-0.326,2.60798l-0.05863,-0.00733l0.03917,0.14288c-0.02219,0.11107 -0.04402,0.22221 -0.0655,0.33342c0.11975,-0.01153 0.24115,-0.01743 0.36392,-0.01743c2.07107,0 3.75,1.67893 3.75,3.75c0,0.17776 -0.01237,0.35264 -0.03629,0.52381l-0.326,2.60798c-0.10087,0.72897 -0.23318,1.4541 -0.3919,2.17584l-0.2873,1.91531l-0.01644,-0.00247c0.00399,0.01083 0.00792,0.0217 0.01179,0.03259c0.71946,2.02377 -0.62464,4.26575 -0.62053,6.41359c0.00915,4.7935 0.68193,9.61164 -1.44673,14.10842c-0.41682,0.88052 -1.30633,1.45699 -1.83154,2.27747c-0.77318,1.20786 -1.32228,2.96632 -2.26845,4.32495l0.04173,0.07511c0.32112,0.55286 0.50499,1.19531 0.50499,1.88071c0,2.07107 -1.67893,3.75 -3.75,3.75c-1.16807,0 -2.21141,-0.53405 -2.89916,-1.37131l-1.64833,-1.978l0.18474,-0.15395z" fill-opacity="0.09804" fill="#e3a3e3"></path><path d="M221.02646,104.1281c1.48173,0.56879 2.75837,2.51752 4.37279,5.16191c2.46766,4.04198 1.67581,8.32764 2.21713,12.64841c0.23383,1.86647 2.48795,2.83794 3.5213,4.40975c0.00337,0.00512 0.00674,0.01025 0.0101,0.01537l0.00198,-0.00175l4.95088,5.611c0.59054,0.66271 0.94939,1.53638 0.94939,2.49386c0,2.07107 -1.67893,3.75 -3.75,3.75h-3.66667v-0.69387l-1.59058,0.33983c-4.98381,-5.01412 -10.51936,-9.97009 -13.7781,-16.41506c-1.45901,-2.88556 -2.66038,-6.28299 -3.80922,-9.33086c0,0 -0.80256,-2.14016 0.51632,-3.70534c-0.05122,-5.76576 2.3793,-12.15227 4.83232,-16.07677l1.22244,-0.17274l-0.20372,-0.47534l2.25714,-0.96734c0.4733,-0.21569 0.99932,-0.33586 1.55339,-0.33586c2.07107,0 3.75,1.67893 3.75,3.75c0,0.37162 -0.05406,0.73062 -0.15474,1.06956l-0.9774,3.5838l-0.05219,-0.01423c-0.01171,0.10036 -0.02451,0.20065 -0.03847,0.30086c-0.1834,1.3166 -1.21634,2.37364 -1.65332,3.62908c-0.16181,0.46488 -0.32388,0.94126 -0.48078,1.42571z" fill-opacity="0.09804" fill="#e3a3e3"></path><path d="M229.71599,83.28086l-2.14706,0.71569c-0.3963,0.14248 -0.82353,0.22012 -1.2689,0.22012c-2.07107,0 -3.75,-1.67893 -3.75,-3.75c0,-1.63847 1.0508,-3.03151 2.51526,-3.54197l2.58469,-0.96926l0.03613,0.09636l0.41533,-0.13844c0.06471,-0.04628 0.13009,-0.0918 0.19615,-0.13651c0.92102,-0.62329 2.22384,-0.04012 3.33576,-0.06017l2.34372,0.72923c0,0 1.89277,0.94639 2.12365,2.83916c2.28264,0.82154 2.28264,3.51494 2.28264,3.51494l-0.00943,2.9325c-0.37487,2.62406 -0.46283,5.14243 -0.45375,7.65685c1.28948,0.99647 1.44778,2.73781 1.44778,2.73781c0.17819,1.98211 -0.14199,4.01907 0.28107,5.96369c0.87649,4.02881 3.37639,7.17861 3.88907,11.46672l1.08229,2.16458c0.27436,0.52111 0.42964,1.11469 0.42964,1.74453c0,2.07107 -1.67893,3.75 -3.75,3.75c-1.16807,0 -2.21141,-0.53405 -2.89916,-1.37131l-3.315,-3.978l0.01907,-0.01589c-0.02658,-0.0195 -0.05312,-0.03906 -0.07962,-0.05869c-1.47226,-1.09051 -4.00413,-6.13696 -4.37497,-7.46454c-0.13136,-0.47024 -0.10083,-6.28847 -0.10032,-6.86157c0.00492,-5.53537 -0.45001,-10.71638 0.34277,-16.26583l-0.00737,-1.8748c-0.46906,0.10348 -0.93901,0.2083 -1.16944,-0.04517z" fill-opacity="0.09804" fill="#e3a3e3"></path><path d="M187.71021,238.61576c-0.04754,0.69706 -0.4436,3.6009 -3.74352,3.6009c-3.75,0 -3.75,-3.75 -3.75,-3.75l0.11197,-1.24284c1.62815,-6.5126 2.34725,-13.24114 3.25575,-19.9305c0,0 0.50667,-3.71561 4.22229,-3.20894c3.71561,0.50667 3.20894,4.22229 3.20894,4.22229c-0.933,6.81576 -1.68184,13.65497 -3.30543,20.30909z" fill-opacity="0.09804" fill="#e3a3e3"></path><path d="M195.53602,257.32876c-0.82783,0.30419 -2.13694,0.53133 -3.33728,-0.35119c-1.29574,0.14883 -2.59834,0.23144 -3.89871,0.2391c0,0 -3.75,0 -3.75,-3.75c0,-3.75 3.75,-3.75 3.75,-3.75c0.92827,0.0069 1.8569,-0.04486 2.78247,-0.14117c0.31451,-3.0522 2.46001,-6.92143 3.32988,-9.02919l0.53854,-0.31501l-0.19839,-0.16532l1.64833,-1.978c0.68775,-0.83725 1.73109,-1.37131 2.89916,-1.37131c2.07107,0 3.75,1.67893 3.75,3.75v2.66667h-0.39892c0.08244,0.4207 0.14007,0.84572 0.16463,1.27649c1.72428,0.89342 3.78357,1.9279 3.54097,3.61051c-0.48732,3.37997 -2.12569,5.20982 -4.19858,6.41641c-0.3795,0.61346 -0.93093,1.10933 -1.58704,1.42036l-2.594,1.297l-0.34233,-0.68466c-0.64331,0.44848 -1.33244,0.76501 -2.09873,0.85932z" fill-opacity="0.09804" fill="#e3a3e3"></path><path d="M276.30003,242.38333c3.75,0 3.75,3.75 3.75,3.75v2.33333c-0.0006,0.2004 0.00178,0.39664 0.00699,0.58915c0.08312,0.36463 0.09466,0.71349 0.0578,1.04035c0.23688,2.78679 1.09196,4.86775 2.05976,7.80336c0.51668,1.56723 1.90961,3.09835 1.53707,4.70595c-0.08366,0.36103 -0.19976,0.70854 -0.34136,1.04542l0.23444,0.05861l-0.64764,2.59057c-0.37897,1.66995 -1.87243,2.91659 -3.65706,2.91659c-1.60966,0 -2.98244,-1.01417 -3.51423,-2.43839l-0.98038,-2.45095c-2.08441,-1.17598 -6.58086,-3.16253 -7.28781,-5.0555c-1.634,-4.37526 2.04734,-8.35816 5.03242,-11.12835v-2.01014c0,0 0,-3.75 3.75,-3.75z" fill-opacity="0.09804" fill="#e3a3e3"></path><path d="M300.96669,170.05c3.75,0 3.75,3.75 3.75,3.75l-0.02896,0.8682c0.78875,6.30998 3.63782,12.02655 4.3399,18.38928c0.43542,3.94609 0.48376,8.07986 0.44852,12.18893c0.51392,1.79526 0.99562,3.59751 1.21244,5.42874c0.63154,5.33386 0.0281,11.07925 0.0281,16.45819v2.66667c0,2.07107 -1.67893,3.75 -3.75,3.75c-1.92092,0 -3.50451,-1.44432 -3.72402,-3.30624l-0.65975,-4.94815l0.02721,-0.00363c-0.01329,-0.03336 -0.02649,-0.06677 -0.03959,-0.10022c-1.08123,-2.76155 -0.68519,-8.41607 -0.68719,-11.39177c-0.0018,-2.67342 0.06767,-5.43197 0.09952,-8.20216c-0.82817,-3.09991 -1.72183,-6.16644 -1.76619,-9.46451c0,0 0,-1.82428 1.2724,-2.92806c-0.82234,-6.03748 -3.48392,-11.53067 -4.24344,-17.60681l-0.02896,-1.79846c0,0 0,-3.75 3.75,-3.75z" fill-opacity="0.09804" fill="#e3a3e3"></path><path d="M251.88336,74.13333c-3,2.25 -5.25,-0.75 -5.25,-0.75l-1.25591,-1.72281c-1.13859,-2.0291 -1.98685,-4.22523 -2.66927,-6.44963c0,0 -1.07755,-3.59185 2.51429,-4.6694c3.59185,-1.07755 4.6694,2.51429 4.6694,2.51429c0.49198,1.68858 1.10845,3.3661 1.9974,4.8837l0.74409,0.94385c0,0 2.25,3 -0.75,5.25z" fill-opacity="0.09804" fill="#e3a3e3"></path></g></g></svg>