<svg version="1.1" xmlns="http://www.w3.org/2000/svg" xmlns:xlink="http://www.w3.org/1999/xlink" width="160" height="196.5" viewBox="0,0,160,196.5"><defs><linearGradient x1="320" y1="278.25" x2="312" y2="278.25" gradientUnits="userSpaceOnUse" id="color-1"><stop offset="0" stop-color="#ffffff" stop-opacity="0.14118"></stop><stop offset="1" stop-color="#ffffff" stop-opacity="0"></stop></linearGradient><linearGradient x1="160" y1="278.25" x2="168" y2="278.25" gradientUnits="userSpaceOnUse" id="color-2"><stop offset="0" stop-color="#ffffff" stop-opacity="0.14118"></stop><stop offset="1" stop-color="#ffffff" stop-opacity="0"></stop></linearGradient><linearGradient x1="240" y1="227.5" x2="240" y2="239.6464" gradientUnits="userSpaceOnUse" id="color-3"><stop offset="0" stop-color="#0a0610" stop-opacity="0"></stop><stop offset="1" stop-color="#0a0610"></stop></linearGradient></defs><g transform="translate(-160,-163.5)"><g stroke-width="0" stroke-miterlimit="10"><path d="M160,360v-163.5h160v163.5z" fill-opacity="0.14118" fill="#ffffff" stroke="none"></path><g fill="#0a0610" stroke-opacity="0.32941" stroke="#4061e1"><path d="M185,221.5v-20h20v20z"></path><path d="M215,221.5v-20h20v20z"></path><path d="M245,221.5v-20h20v20z"></path><path d="M275,221.5v-20h20v20z"></path></g><path d="M160,193.5v-30h160v30z" fill-opacity="0.14118" fill="#ffffff" stroke="none"></path><path d="M160,196.5v-30h160v30z" fill="#0a0610" stroke="none"></path><g stroke="none"><path d="M312,360v-163.5h8v163.5z" fill="url(#color-1)"></path><path d="M160,360v-163.5h8v163.5z" fill="url(#color-2)"></path></g><g stroke="none"><path d="M160,360v-120.3536h160v120.3536z" fill="#0a0610"></path><path d="M160,239.6464v-12.1464h160v12.1464z" fill="url(#color-3)"></path></g></g></g></svg>