<svg version="1.1" xmlns="http://www.w3.org/2000/svg" xmlns:xlink="http://www.w3.org/1999/xlink" width="48.80916" height="42.47262" viewBox="0,0,48.80916,42.47262"><g transform="translate(-213.11622,-158.23878)"><g fill="#ff0000" stroke="none" stroke-width="0" stroke-miterlimit="10"><path d="M229.47529,159.28861c4.62485,0 8.6054,2.91486 10.44975,7.10867c1.84426,-4.19382 5.8248,-7.10867 10.44969,-7.10867c6.37597,0 11.55066,5.52356 11.55066,12.32935c0,7.43588 -3.774,11.92527 -8.64944,16.60869c-0.14249,-0.10555 -0.28497,-0.21109 -0.42746,-0.31664c-2.81846,-2.08775 -5.5673,-4.20142 -8.24826,-6.46345c-2.67504,-2.25703 -5.35007,-4.51406 -8.02511,-6.77109c-2.67504,-2.25703 -5.35007,-4.51406 -8.02511,-6.77109c-2.21307,-1.86726 -4.42615,-3.73451 -6.63922,-5.60177c2.02702,-1.87737 4.67216,-3.01401 7.5645,-3.01401z"></path><path d="M213.11622,167.2049c0,-3.53147 1.39327,-6.71769 3.62469,-8.96612c2.22608,1.87824 4.45217,3.75647 6.67825,5.6347c2.67504,2.25703 5.35007,4.51406 8.02511,6.77109c2.67504,2.25703 5.35007,4.51406 8.02511,6.77109c2.68897,2.2688 5.44621,4.3891 8.27308,6.48308c0.11948,0.08851 0.23897,0.17701 0.35845,0.26552c-2.39178,2.27841 -5.02726,4.62094 -7.601,7.3865c-0.46603,-0.21166 -0.93127,-0.43171 -1.39624,-0.66164c-3.13736,-1.55144 -6.27472,-3.10289 -9.41208,-4.65433c-3.10587,-1.53587 -6.19938,-3.09722 -9.29845,-4.64676c-0.41557,-0.20672 -0.8159,-0.44533 -1.20714,-0.70341c-3.54641,-3.83974 -6.06978,-7.9 -6.06978,-13.6797z"></path><path d="M240.37498,200.7114c-4.39451,-7.0919 -10.1863,-11.61621 -14.72419,-16.22164c3.02518,1.51325 6.04546,3.03689 9.07752,4.53627c3.13736,1.55144 6.27472,3.10288 9.41208,4.65433c0.41995,0.20766 0.84016,0.40736 1.26098,0.60016c-1.74221,1.9038 -3.44949,4.01004 -5.02639,6.43089z"></path></g></g></svg>