<svg version="1.1" xmlns="http://www.w3.org/2000/svg" xmlns:xlink="http://www.w3.org/1999/xlink" width="184" height="102.33334" viewBox="0,0,184,102.33334"><g transform="translate(-201.94904,-127.63333)"><g stroke-miterlimit="10"><path d="M311.09399,186.16347c-0.06709,-0.08387 -0.11257,-0.16533 -0.14124,-0.24336c-2.45385,0.17539 -4.93417,0.2925 -7.47307,0.29786c-0.00041,0 -0.00061,0 -0.00061,0c0,0 -0.01395,0 -0.03908,-0.00072l-0.5151,-0.00948c-2.46928,-0.21546 -4.84715,-0.44866 -7.22528,-0.86162c0,0 -0.84608,-0.14757 -0.98101,-0.5591c-0.38324,0.30979 -0.7237,0.66238 -1.02198,1.147c0,0 -0.32378,0.51806 -0.85447,0.32682c-1.57538,0.02485 -3.15009,0.05041 -4.72396,0.05206c-0.17082,0.03982 -0.32699,0.00005 -0.44742,-0.05607c-0.12475,-0.04544 -0.2632,-0.12766 -0.35583,-0.27641l-0.4871,-0.4871c0,0 -0.0864,-0.0864 -0.15458,-0.22432c-0.18089,-0.06247 -0.29143,-0.18314 -0.35897,-0.3073l-0.40994,-0.49296c-0.42468,-0.43178 -0.78711,-0.92903 -1.09179,-1.45575h-0.15439c-2.9289,0 -5.8578,0 -8.7867,0c-0.21448,0.04437 -0.38496,-0.01746 -0.51144,-0.10581c-0.15851,-0.08606 -0.31148,-0.24211 -0.34507,-0.52507l-0.1068,-0.31913c0,-0.2124 -0.00033,-0.42399 0.00083,-0.6347c-2.34855,0.526 -5.15187,0.27324 -7.82561,-0.01428l-0.69834,1.09739l-0.01895,-0.01206c-0.1295,0.24562 -0.28241,0.46687 -0.46353,0.63378c-0.58906,1.40954 -1.17545,2.7695 -1.91769,4.03575c0.3891,-0.09472 0.78004,-0.18105 1.17404,-0.25386l-0.05705,-0.15688l1.08367,-0.39406c0.0845,-0.03298 0.17646,-0.05109 0.27264,-0.05109c0.06926,0 0.13633,0.00939 0.2,0.02696c0.17371,0.04795 0.32214,0.15681 0.42087,0.30217c0.19864,0.13491 0.32913,0.36265 0.32913,0.62087c0,0.2552 -0.12747,0.48064 -0.32221,0.61611l-0.6543,0.46736c-1.04869,1.03853 -2.41022,1.72974 -3.68862,2.46025c-4.52265,2.82666 -10.34736,0.32771 -14.26207,-2.65764c-0.10467,-0.01465 -0.20993,-0.02863 -0.31583,-0.04186l-0.48579,-0.55829c-0.13649,-0.0999 -0.27031,-0.20313 -0.40132,-0.30975c0,0 -0.57617,-0.48013 -0.09603,-1.0563c0.35451,-0.42542 0.76137,-0.27497 0.95001,-0.16712c0.13953,0.03392 0.24968,0.11231 0.33045,0.19171c0.20196,0.17297 0.41274,0.34691 0.63148,0.52049c0.01264,0.00824 0.02531,0.01645 0.038,0.02463c1.67237,0.35948 3.24457,1.13509 4.9126,1.57904c0.05943,-0.18342 0.18762,-0.33589 0.35416,-0.42701l0.62155,-0.35517c0.68427,-0.69267 1.00513,-0.99532 1.52418,-1.15639l-0.04961,-0.13229l0.78382,-0.29393c0.03484,-0.014 0.07097,-0.02547 0.10817,-0.03416v-0.00003c0.56929,-0.46217 1.12484,-0.95526 1.66976,-1.46451c0.58048,-0.73549 1.13238,-1.51063 1.66655,-2.2717c-0.03668,-0.03361 -0.06921,-0.06986 -0.09724,-0.10889c-0.20774,-0.28917 0.16437,-0.64959 0.33794,-1.00296c-0.03964,-0.00027 -0.07944,-0.0004 -0.11943,-0.0004c0,0 -0.05925,0 -0.12006,0.02884c-1.1252,0 -2.2504,0 -3.3756,0c-0.0102,0.11738 -0.02195,0.23478 -0.0355,0.35223c0.03016,0.13864 0.06032,0.27729 0.09048,0.41593l0.00365,0.71865c0.03095,0.12974 0.02362,0.28366 -0.05872,0.45974c-0.04949,0.13131 -0.14011,0.27605 -0.30604,0.36587c-0.08339,0.05176 -0.16957,0.07845 -0.25257,0.08903c-0.1111,0.11316 -0.27878,0.19855 -0.53185,0.19855c-0.60072,0 -0.72029,-0.48115 -0.74409,-0.67269c-1.486,-0.58052 -3.50425,-0.72731 -4.95591,-0.72731h-0.9c0,0 -0.01526,0 -0.04142,-0.00218c-0.02625,-0.00073 -0.04141,-0.00241 -0.04141,-0.00241c-2.73826,-0.30793 -5.32276,-0.49541 -8.11718,-0.49541l-0.82825,-0.20921c-0.16221,-0.02034 -0.35372,-0.09096 -0.48474,-0.28884c-0.09102,-0.11109 -0.15734,-0.26246 -0.1433,-0.46456c-0.0073,-0.20245 0.06403,-0.35153 0.1587,-0.45953c0.13346,-0.18766 0.31984,-0.25368 0.47952,-0.27107c2.05704,-0.49533 4.21825,-0.34572 6.29794,-0.69712c3.05751,-0.51662 6.02451,-1.38578 9.09241,-1.78661c0.10155,-0.16869 0.28744,-0.32308 0.62773,-0.32308c0.75,0 0.75,0.75 0.75,0.75c0,0.46272 0.00587,0.92345 0.00413,1.38326c1.11697,-0.36973 2.35857,-0.67987 3.59909,-0.79221c-0.00563,-0.11206 -0.0091,-0.22025 -0.0091,-0.32307c0,0 0,-0.12018 0.04811,-0.26433c-0.59147,-0.84457 -1.20343,-1.71437 -1.85098,-2.53483l-0.00001,0.00001c-0.54492,-0.50925 -1.10047,-1.00234 -1.66976,-1.46451c-0.03719,-0.00869 -0.07332,-0.02015 -0.10816,-0.03415l-0.78382,-0.29394l0.04961,-0.13228c-0.51905,-0.16107 -0.83991,-0.46373 -1.52418,-1.15639l-0.62154,-0.35517c-0.16655,-0.09112 -0.29473,-0.24359 -0.35417,-0.42701c-1.66802,0.44395 -3.24023,1.21955 -4.91259,1.57903c-0.01269,0.00818 -0.02536,0.01639 -0.038,0.02463c-0.21873,0.17359 -0.42951,0.34752 -0.63148,0.52049c-0.08077,0.0794 -0.19092,0.15779 -0.33045,0.19171c-0.18865,0.10786 -0.59551,0.2583 -0.95002,-0.16711c-0.48014,-0.57617 0.09603,-1.05631 0.09603,-1.05631c0.13101,-0.10661 0.26483,-0.20984 0.40132,-0.30975l0.48579,-0.55829c0.1059,-0.01324 0.21116,-0.02721 0.31583,-0.04187c3.91472,-2.98535 9.73942,-5.4843 14.26208,-2.65764c1.2784,0.73051 2.63991,1.42173 3.68861,2.46025l0.6543,0.46735c0.19473,0.13547 0.3222,0.36091 0.3222,0.61611c0,0.25822 -0.1305,0.48595 -0.32913,0.62087c-0.09872,0.14536 -0.24716,0.25423 -0.42087,0.30217c-0.06367,0.01757 -0.13074,0.02696 -0.2,0.02696c-0.09618,0 -0.18812,-0.01811 -0.27263,-0.0511l-1.08367,-0.39406l0.05705,-0.15688c-0.39399,-0.07281 -0.78494,-0.15914 -1.17404,-0.25386c0.64993,1.10876 1.18037,2.28936 1.69773,3.5122c0.33668,0.30419 1.28458,1.35499 1.85494,2.36503c2.51771,0.09592 5.08798,0.46114 7.37944,0.50113c0.03722,-0.21869 0.08358,-0.43616 0.14128,-0.65234c-0.05664,-0.10039 -0.09294,-0.22909 -0.09294,-0.3941c0,-0.57 0.43319,-0.7068 0.64113,-0.73963c0.1247,-0.0898 0.2932,-0.15137 0.50986,-0.11037h0.39901c1.83966,0 5.40294,-0.46281 7.64305,0.1c0.15052,0 0.30104,0 0.45156,0c0.41422,-0.69054 0.96885,-1.24756 1.4882,-1.82992c-0.02133,-0.06959 -0.03281,-0.1435 -0.03281,-0.22008c0,-0.29941 0.17544,-0.55783 0.42912,-0.67809l0.4774,-0.2387c0.02275,-0.19592 0.1026,-0.33122 0.20203,-0.42466c0.22193,-0.20855 0.54145,-0.20855 0.54145,-0.20855c0.7396,0 1.4792,0 2.2188,0c0.25393,-0.03079 0.50551,-0.05303 0.74687,-0.06151c0.12256,-0.08721 0.27246,-0.13849 0.43433,-0.13849c0.19691,0 0.3761,0.07588 0.50991,0.2c0.25687,0 0.52111,0 0.79009,0c0.03333,0 0.86667,0 0.9,0c0.13556,0 0.27158,0 0.40774,0c-0.00156,0.0346 -0.00308,0.06917 -0.00458,0.10372c0.26286,0.12449 0.38466,0.39854 0.38466,0.39854c0.20391,0.47285 0.47846,0.91161 0.76942,1.3442c0.02996,-0.00635 0.0472,-0.00936 0.0472,-0.00936c2.37814,-0.41296 4.756,-0.64616 7.22528,-0.86162l0.5151,-0.00948c0.02513,-0.00072 0.03908,-0.00072 0.03908,-0.00072c0,0 0.00021,0 0.00061,0c3.837,0.00811 7.5402,0.27143 11.22047,0.60545c0.19174,0.00057 0.37999,0.0009 0.56446,0.0009c1.66196,0 4.43371,-0.27372 5.96353,0.05709c0.20747,0.04486 0.40558,0.09323 0.59637,0.14426c0.33491,-0.0479 0.62554,-0.0289 0.62554,-0.0289c7.41908,0.48965 15.40302,0.93083 22.97386,1.84762c9.0067,-0.55435 19.69275,0.81677 27.77557,1.66116l0.03741,-0.01456c0,0 0.9972,0 1.3281,0.43519l1.06053,0.06936c0.71684,0.04137 1.27446,0.35933 1.27446,0.74544c0,0.27923 -0.29165,0.52282 -0.72425,0.65193c-0.18369,0.26204 -0.63886,0.45552 -1.1872,0.48717l-1.06053,0.06936c-0.33091,0.43519 -1.3281,0.43519 -1.3281,0.43519l-0.03741,-0.01456c-8.08284,0.84439 -18.76888,2.21551 -27.77557,1.66116c-7.57084,0.91679 -15.55478,1.35797 -22.97386,1.84762c0,0 -0.29063,0.019 -0.62554,-0.0289c-0.19079,0.05103 -0.38891,0.0994 -0.59637,0.14426c-1.35378,0.29274 -3.68015,0.11207 -5.34933,0.06662c-0.60275,0.05449 -1.20613,0.10705 -1.81064,0.15686c-0.21997,0.16582 -0.43538,0.33403 -0.64603,0.50258c0,0 -0.58565,0.46852 -1.05417,-0.11713zM261.0922,172.00791c-0.77156,-0.20596 -1.54831,-0.39199 -2.33976,-0.51767c-0.34341,-0.02896 -0.68862,-0.05075 -1.03439,-0.06481c0.03252,0.09508 0.06262,0.19252 0.09217,0.2929l0.17095,0.14246l-0.07571,0.09085c1.5049,0.66753 2.94761,1.69008 4.2187,2.86083c-0.33955,-0.93696 -0.67882,-1.875 -1.03197,-2.80456zM263.97094,175.50436c0.23781,0.65279 0.47892,1.30286 0.72922,1.94641c0.00496,0.00135 0.00993,0.00272 0.01489,0.00409c-0.0344,-0.09243 -0.06883,-0.18514 -0.10333,-0.27802c-0.01971,-0.04095 -0.03695,-0.08553 -0.04951,-0.13323c-0.1911,-0.51401 -0.38533,-1.03228 -0.59127,-1.53925zM260.94933,187.99203c0.35315,-0.92956 0.69242,-1.8676 1.03197,-2.80456c-1.27109,1.17074 -2.7138,2.1933 -4.2187,2.86083l0.07571,0.09085l-0.17096,0.14246c-0.02955,0.10038 -0.05964,0.19783 -0.09217,0.29291c0.34577,-0.01407 0.69098,-0.03586 1.03439,-0.06482c0.79145,-0.12567 1.5682,-0.31171 2.33976,-0.51767zM264.34417,183.15827c-0.00518,-0.00453 -0.01029,-0.0091 -0.01532,-0.0137c-0.16982,0.44822 -0.3361,0.899 -0.5008,1.3511c0.17901,-0.44066 0.34917,-0.88987 0.51612,-1.3374z" fill="#160831" stroke="#cbadff" stroke-width="1"></path><path d="M311.09399,186.16347c-0.06709,-0.08387 -0.11257,-0.16533 -0.14124,-0.24336c-2.45385,0.17539 -4.93417,0.2925 -7.47307,0.29786c-0.00041,0 -0.00061,0 -0.00061,0c0,0 -0.01395,0 -0.03908,-0.00072l-0.5151,-0.00948c-2.46928,-0.21546 -4.84715,-0.44866 -7.22528,-0.86162c0,0 -0.84608,-0.14757 -0.98101,-0.5591c-0.38324,0.30979 -0.7237,0.66238 -1.02198,1.147c0,0 -0.32378,0.51806 -0.85447,0.32682c-1.57538,0.02485 -3.15009,0.05041 -4.72396,0.05206c-0.17082,0.03982 -0.32699,0.00005 -0.44742,-0.05607c-0.12475,-0.04544 -0.2632,-0.12766 -0.35583,-0.27641l-0.4871,-0.4871c0,0 -0.0864,-0.0864 -0.15458,-0.22432c-0.18089,-0.06247 -0.29143,-0.18314 -0.35897,-0.3073l-0.40994,-0.49296c-0.42468,-0.43178 -0.78711,-0.92903 -1.09179,-1.45575h-0.15439c-2.9289,0 -5.8578,0 -8.7867,0c-0.21448,0.04437 -0.38496,-0.01746 -0.51144,-0.10581c-0.15851,-0.08606 -0.31148,-0.24211 -0.34507,-0.52507l-0.1068,-0.31913c0,-0.2124 -0.00033,-0.42399 0.00083,-0.6347c-2.34855,0.526 -5.15187,0.27324 -7.82561,-0.01428l-0.69834,1.09739l-0.01895,-0.01206c-0.1295,0.24562 -0.28241,0.46687 -0.46353,0.63378c-0.58906,1.40954 -1.17545,2.7695 -1.91769,4.03575c0.3891,-0.09472 0.78004,-0.18105 1.17404,-0.25386l-0.05705,-0.15688l1.08367,-0.39406c0.0845,-0.03298 0.17646,-0.05109 0.27264,-0.05109c0.06926,0 0.13633,0.00939 0.2,0.02696c0.17371,0.04795 0.32214,0.15681 0.42087,0.30217c0.19864,0.13491 0.32913,0.36265 0.32913,0.62087c0,0.2552 -0.12747,0.48064 -0.32221,0.61611l-0.6543,0.46736c-1.04869,1.03853 -2.41022,1.72974 -3.68862,2.46025c-4.52265,2.82666 -10.34736,0.32771 -14.26207,-2.65764c-0.10467,-0.01465 -0.20993,-0.02863 -0.31583,-0.04186l-0.48579,-0.55829c-0.13649,-0.0999 -0.27031,-0.20313 -0.40132,-0.30975c0,0 -0.57617,-0.48013 -0.09603,-1.0563c0.35451,-0.42542 0.76137,-0.27497 0.95001,-0.16712c0.13953,0.03392 0.24968,0.11231 0.33045,0.19171c0.20196,0.17297 0.41274,0.34691 0.63148,0.52049c0.01264,0.00824 0.02531,0.01645 0.038,0.02463c1.67237,0.35948 3.24457,1.13509 4.9126,1.57904c0.05943,-0.18342 0.18762,-0.33589 0.35416,-0.42701l0.62155,-0.35517c0.68427,-0.69267 1.00513,-0.99532 1.52418,-1.15639l-0.04961,-0.13229l0.78382,-0.29393c0.03484,-0.014 0.07097,-0.02547 0.10817,-0.03416v-0.00003c0.56929,-0.46217 1.12484,-0.95526 1.66976,-1.46451c0.58048,-0.73549 1.13238,-1.51063 1.66655,-2.2717c-0.03668,-0.03361 -0.06921,-0.06986 -0.09724,-0.10889c-0.20774,-0.28917 0.16437,-0.64959 0.33794,-1.00296c-0.03964,-0.00027 -0.07944,-0.0004 -0.11943,-0.0004c0,0 -0.05925,0 -0.12006,0.02884c-1.1252,0 -2.2504,0 -3.3756,0c-0.0102,0.11738 -0.02195,0.23478 -0.0355,0.35223c0.03016,0.13864 0.06032,0.27729 0.09048,0.41593l0.00365,0.71865c0.03095,0.12974 0.02362,0.28366 -0.05872,0.45974c-0.04949,0.13131 -0.14011,0.27605 -0.30604,0.36587c-0.08339,0.05176 -0.16957,0.07845 -0.25257,0.08903c-0.1111,0.11316 -0.27878,0.19855 -0.53185,0.19855c-0.60072,0 -0.72029,-0.48115 -0.74409,-0.67269c-1.486,-0.58052 -3.50425,-0.72731 -4.95591,-0.72731h-0.9c0,0 -0.01526,0 -0.04142,-0.00218c-0.02625,-0.00073 -0.04141,-0.00241 -0.04141,-0.00241c-2.73826,-0.30793 -5.32276,-0.49541 -8.11718,-0.49541l-0.82825,-0.20921c-0.16221,-0.02034 -0.35372,-0.09096 -0.48474,-0.28884c-0.09102,-0.11109 -0.15734,-0.26246 -0.1433,-0.46456c-0.0073,-0.20245 0.06403,-0.35153 0.1587,-0.45953c0.13346,-0.18766 0.31984,-0.25368 0.47952,-0.27107c2.05704,-0.49533 4.21825,-0.34572 6.29794,-0.69712c3.05751,-0.51662 6.02451,-1.38578 9.09241,-1.78661c0.10155,-0.16869 0.28744,-0.32308 0.62773,-0.32308c0.75,0 0.75,0.75 0.75,0.75c0,0.46272 0.00587,0.92345 0.00413,1.38326c1.11697,-0.36973 2.35857,-0.67987 3.59909,-0.79221c-0.00563,-0.11206 -0.0091,-0.22025 -0.0091,-0.32307c0,0 0,-0.12018 0.04811,-0.26433c-0.59147,-0.84457 -1.20343,-1.71437 -1.85098,-2.53483l-0.00001,0.00001c-0.54492,-0.50925 -1.10047,-1.00234 -1.66976,-1.46451c-0.03719,-0.00869 -0.07332,-0.02015 -0.10816,-0.03415l-0.78382,-0.29394l0.04961,-0.13228c-0.51905,-0.16107 -0.83991,-0.46373 -1.52418,-1.15639l-0.62154,-0.35517c-0.16655,-0.09112 -0.29473,-0.24359 -0.35417,-0.42701c-1.66802,0.44395 -3.24023,1.21955 -4.91259,1.57903c-0.01269,0.00818 -0.02536,0.01639 -0.038,0.02463c-0.21873,0.17359 -0.42951,0.34752 -0.63148,0.52049c-0.08077,0.0794 -0.19092,0.15779 -0.33045,0.19171c-0.18865,0.10786 -0.59551,0.2583 -0.95002,-0.16711c-0.48014,-0.57617 0.09603,-1.05631 0.09603,-1.05631c0.13101,-0.10661 0.26483,-0.20984 0.40132,-0.30975l0.48579,-0.55829c0.1059,-0.01324 0.21116,-0.02721 0.31583,-0.04187c3.91472,-2.98535 9.73942,-5.4843 14.26208,-2.65764c1.2784,0.73051 2.63991,1.42173 3.68861,2.46025l0.6543,0.46735c0.19473,0.13547 0.3222,0.36091 0.3222,0.61611c0,0.25822 -0.1305,0.48595 -0.32913,0.62087c-0.09872,0.14536 -0.24716,0.25423 -0.42087,0.30217c-0.06367,0.01757 -0.13074,0.02696 -0.2,0.02696c-0.09618,0 -0.18812,-0.01811 -0.27263,-0.0511l-1.08367,-0.39406l0.05705,-0.15688c-0.39399,-0.07281 -0.78494,-0.15914 -1.17404,-0.25386c0.64993,1.10876 1.18037,2.28936 1.69773,3.5122c0.33668,0.30419 1.28458,1.35499 1.85494,2.36503c2.51771,0.09592 5.08798,0.46114 7.37944,0.50113c0.03722,-0.21869 0.08358,-0.43616 0.14128,-0.65234c-0.05664,-0.10039 -0.09294,-0.22909 -0.09294,-0.3941c0,-0.57 0.43319,-0.7068 0.64113,-0.73963c0.1247,-0.0898 0.2932,-0.15137 0.50986,-0.11037h0.39901c1.83966,0 5.40294,-0.46281 7.64305,0.1c0.15052,0 0.30104,0 0.45156,0c0.41422,-0.69054 0.96885,-1.24756 1.4882,-1.82992c-0.02133,-0.06959 -0.03281,-0.1435 -0.03281,-0.22008c0,-0.29941 0.17544,-0.55783 0.42912,-0.67809l0.4774,-0.2387c0.02275,-0.19592 0.1026,-0.33122 0.20203,-0.42466c0.22193,-0.20855 0.54145,-0.20855 0.54145,-0.20855c0.7396,0 1.4792,0 2.2188,0c0.25393,-0.03079 0.50551,-0.05303 0.74687,-0.06151c0.12256,-0.08721 0.27246,-0.13849 0.43433,-0.13849c0.19691,0 0.3761,0.07588 0.50991,0.2c0.25687,0 0.52111,0 0.79009,0c0.03333,0 0.86667,0 0.9,0c0.13556,0 0.27158,0 0.40774,0c-0.00156,0.0346 -0.00308,0.06917 -0.00458,0.10372c0.26286,0.12449 0.38466,0.39854 0.38466,0.39854c0.20391,0.47285 0.47846,0.91161 0.76942,1.3442c0.02996,-0.00635 0.0472,-0.00936 0.0472,-0.00936c2.37814,-0.41296 4.756,-0.64616 7.22528,-0.86162l0.5151,-0.00948c0.02513,-0.00072 0.03908,-0.00072 0.03908,-0.00072c0,0 0.00021,0 0.00061,0c3.837,0.00811 7.5402,0.27143 11.22047,0.60545c0.19174,0.00057 0.37999,0.0009 0.56446,0.0009c1.66196,0 4.43371,-0.27372 5.96353,0.05709c0.20747,0.04486 0.40558,0.09323 0.59637,0.14426c0.33491,-0.0479 0.62554,-0.0289 0.62554,-0.0289c7.41908,0.48965 15.40302,0.93083 22.97386,1.84762c9.0067,-0.55435 19.69275,0.81677 27.77557,1.66116l0.03741,-0.01456c0,0 0.9972,0 1.3281,0.43519l1.06053,0.06936c0.71684,0.04137 1.27446,0.35933 1.27446,0.74544c0,0.27923 -0.29165,0.52282 -0.72425,0.65193c-0.18369,0.26204 -0.63886,0.45552 -1.1872,0.48717l-1.06053,0.06936c-0.33091,0.43519 -1.3281,0.43519 -1.3281,0.43519l-0.03741,-0.01456c-8.08284,0.84439 -18.76888,2.21551 -27.77557,1.66116c-7.57084,0.91679 -15.55478,1.35797 -22.97386,1.84762c0,0 -0.29063,0.019 -0.62554,-0.0289c-0.19079,0.05103 -0.38891,0.0994 -0.59637,0.14426c-1.35378,0.29274 -3.68015,0.11207 -5.34933,0.06662c-0.60275,0.05449 -1.20613,0.10705 -1.81064,0.15686c-0.21997,0.16582 -0.43538,0.33403 -0.64603,0.50258c0,0 -0.58565,0.46852 -1.05417,-0.11713zM261.0922,172.00791c-0.77156,-0.20596 -1.54831,-0.39199 -2.33976,-0.51767c-0.34341,-0.02896 -0.68862,-0.05075 -1.03439,-0.06481c0.03252,0.09508 0.06262,0.19252 0.09217,0.2929l0.17095,0.14246l-0.07571,0.09085c1.5049,0.66753 2.94761,1.69008 4.2187,2.86083c-0.33955,-0.93696 -0.67882,-1.875 -1.03197,-2.80456zM263.97094,175.50436c0.23781,0.65279 0.47892,1.30286 0.72922,1.94641c0.00496,0.00135 0.00993,0.00272 0.01489,0.00409c-0.0344,-0.09243 -0.06883,-0.18514 -0.10333,-0.27802c-0.01971,-0.04095 -0.03695,-0.08553 -0.04951,-0.13323c-0.1911,-0.51401 -0.38533,-1.03228 -0.59127,-1.53925zM260.94933,187.99203c0.35315,-0.92956 0.69242,-1.8676 1.03197,-2.80456c-1.27109,1.17074 -2.7138,2.1933 -4.2187,2.86083l0.07571,0.09085l-0.17096,0.14246c-0.02955,0.10038 -0.05964,0.19783 -0.09217,0.29291c0.34577,-0.01407 0.69098,-0.03586 1.03439,-0.06482c0.79145,-0.12567 1.5682,-0.31171 2.33976,-0.51767zM264.34417,183.15827c-0.00518,-0.00453 -0.01029,-0.0091 -0.01532,-0.0137c-0.16982,0.44822 -0.3361,0.899 -0.5008,1.3511c0.17901,-0.44066 0.34917,-0.88987 0.51612,-1.3374z" fill="#160831" stroke="none" stroke-width="0.5"></path><path d="M374.65106,179.02618c0.13842,0 0.27683,0 0.41525,0c0.46049,0.34469 0.82264,0.96897 1.18835,1.5c-0.01919,0 -0.03839,0 -0.05758,0c-0.10843,0.57143 -0.73408,0.57143 -0.73408,0.57143h-0.85714c-0.88646,-0.00668 -1.51042,-0.15873 -2.17093,-0.42857c-0.46684,0 -0.93367,0 -1.4005,0c-5.38859,0 -10.81763,0.3914 -16.24432,0.42612c-0.21643,0.28817 -0.61282,0.28817 -0.61282,0.28817h-0.14286c-1.7619,0 -3.52381,0 -5.28571,0c-5.91363,0 -11.80024,-0.14286 -17.71429,-0.14286h-0.85714c-1.69532,0 -3.58229,0.17157 -5.43294,0.16945c-0.13752,0.15872 -0.34057,0.25912 -0.56706,0.25912h-0.85714c-4.29923,0 -8.30905,-1.16786 -12.62245,-0.79572c-0.19741,0.36715 -0.66326,0.36715 -0.66326,0.36715h-0.14286c-2.95238,0 -5.90476,0 -8.85714,0c-5.55502,0 -10.9337,-0.50648 -16.40646,-0.56578c-0.20898,0.13721 -0.45068,0.13721 -0.45068,0.13721h-0.28571c-2.98537,0 -6.39071,-0.42212 -9.3813,0.16398c-0.00548,0.15674 -0.0093,0.31362 -0.01191,0.47061c-2.37238,0.23789 -4.94275,-0.02896 -7.00406,-0.63444c-0.26959,0.10613 -0.6609,0.07237 -1.20991,-0.11971c-3.00576,-0.03021 -6.04816,-0.12842 -9.03389,-0.11733h-0.13537c0.00682,0.04065 0.01037,0.08241 0.01037,0.125c0,0.41421 -0.33579,0.75 -0.75,0.75h-0.875c-0.28283,0 -0.5654,-0.00322 -0.84771,-0.00895c-1.3163,0.18875 -2.69686,0.13045 -4.02729,0.00895c-0.50244,-0.04589 -1.08635,-0.04745 -1.45506,-0.24449c-1.68924,-0.05073 -3.37173,-0.02465 -5.0498,0.2348c-0.68544,0.10598 -3.13396,0.9001 -3.45936,-0.26143c-0.15959,-0.56966 0.62259,-1.00614 0.93389,-1.50921c0,0 0.53033,-0.53033 1.06066,0c0.25092,0.25091 0.2644,0.50182 0.20896,0.69657c1.07216,-0.33862 3.25468,-0.79086 3.76071,-0.79124c0.81735,-0.00061 1.63232,0.02766 2.44662,0.06892c0.01658,-0.03488 0.03399,-0.07047 0.05225,-0.10679c0.38309,-0.76176 1.50946,-0.98379 2.75625,-1.04625c0.07675,-0.0265 0.15913,-0.04089 0.24488,-0.04089h0.7031c1.06823,-0.1829 1.84966,-0.42023 2.73271,-0.51352l-0.02884,-0.23069l0.98826,-0.12353c0.03423,-0.00479 0.06921,-0.00726 0.10476,-0.00726c0.41421,0 0.75,0.33579 0.75,0.75c0,0.05186 -0.00527,0.10249 -0.01529,0.15139c0.18373,0.049 0.37444,0.17937 0.4768,0.48644c0.01331,0.03992 0.02363,0.07836 0.03126,0.11534c2.11934,0.0149 4.24933,0.06912 6.37758,0.10019c-0.65876,-0.47085 -1.20671,-1.00026 -1.58047,-1.66098c-1.25983,-1.13818 -2.55635,-2.22023 -3.86444,-3.30444c-0.39751,-0.03002 -0.59626,-0.42753 -0.59626,-0.42753l-0.05672,-0.11346c-0.20905,-0.17323 -0.41828,-0.34675 -0.6276,-0.52081c0,0 -0.35559,-0.29633 -0.27527,-0.70275c-0.15307,-0.14361 -0.3145,-0.28506 -0.48062,-0.43762c-0.94969,0.07488 -2.1599,0.1621 -2.63722,-0.10308c-0.08264,-0.04591 -0.16004,-0.09153 -0.23236,-0.13683c-0.86586,0.15167 -1.70323,0.34564 -2.43397,0.72493c0,0 -0.67082,0.33541 -1.00623,-0.33541c-0.33541,-0.67082 0.33541,-1.00623 0.33541,-1.00623c0.50685,-0.2464 1.0409,-0.41728 1.58978,-0.55043c0.06125,-0.65375 0.74563,-0.65375 0.74563,-0.65375l0.35181,0.00953c0.36427,-0.30441 0.92117,-0.57066 1.53578,-0.79131c0.01359,-0.00752 0.02745,-0.01463 0.04154,-0.02131l0.73547,-0.36773l0.06169,0.12339c0.3396,-0.09499 0.67863,-0.17618 0.99686,-0.24247c2.21862,-0.71161 4.86777,0.05508 7.13524,1.0502c0.11087,0.01745 0.28615,0.06448 0.42551,0.19127c0.11273,0.05185 0.22435,0.10408 0.33474,0.15653c1.19866,0.31282 2.22044,0.85416 2.89889,1.75505l0.01103,0.06007l0.01726,-0.00863l0.36825,0.7365c0.05487,0.10423 0.08593,0.22294 0.08593,0.34891c0,0.41421 -0.33579,0.75 -0.75,0.75c-0.08907,0 -0.17452,-0.01552 -0.25378,-0.04402l-0.73339,-0.24446l0.07124,-0.21372c-0.71289,-0.22192 -1.31597,-0.57057 -1.91979,-0.94891c-0.41013,0.02027 -0.82705,0.02262 -1.24815,0.01303c0.03522,0.05811 0.07089,0.11594 0.10699,0.1735c0.29264,0.0197 0.5072,0.23426 0.5072,0.23426c1.32713,1.33569 1.71859,2.57038 2.61044,4.14057c0.34851,0.61359 1.07716,1.10137 1.35712,1.78577c1.41127,-0.00753 2.78613,-0.04872 4.16208,-0.27055c0.32665,-0.05266 2.17609,0.25658 2.43564,0.11542c0.45055,-0.24503 0.14037,-1.15067 0.57143,-1.42857c0.35975,-0.23193 0.85174,-0.08597 1.27761,-0.12895h0.10597c2.28879,-0.22403 4.59491,-0.14286 6.89403,-0.14286h0.80536c1.31709,-0.20463 1.56329,-1.18758 2.20511,-2.22342l0.10687,-0.72131c0,0 0.12329,-0.7398 0.86309,-0.6165c0.24463,0.04077 0.39488,0.14896 0.48643,0.27551c1.7029,0 3.87455,0 5.51632,0c0.17068,-0.03968 0.32672,0.00008 0.44706,0.05616c0.12393,0.04515 0.26138,0.12659 0.354,0.2735c0.35304,0.34518 0.72694,0.66967 1.11283,0.97755l0.24175,0.40703c1.13972,-0.00026 2.27945,-0.00129 3.41917,0.0012c0.05474,-0.04 0.1151,-0.07275 0.17967,-0.09686l0.69807,-0.27923l0.09283,0.23207h0.16561c2.38089,-0.97784 5.63375,-0.42857 8.16297,-0.42857h0.28571c0,0 0.23362,0 0.44009,0.13039c4.90003,-0.11364 10.93087,-0.9294 15.43014,0.68182l0.17831,-0.05944l0.04763,0.1429c0.00631,0.0024 0.01262,0.00481 0.01893,0.00723c0.05841,0.01958 0.11669,0.03958 0.17485,0.06002c2.16382,-0.6564 4.16872,0.35009 6.62905,0.75392l0.04689,-0.00015c0.2116,-0.14526 0.46267,-0.14526 0.46267,-0.14526c5.41703,0 10.73845,0.57143 16.14286,0.57143c1.28097,0 2.52941,-0.02949 3.79994,0.14753c0.01569,-0.00109 0.0306,-0.00175 0.04456,-0.00209l0.01265,-0.00259c0,0 0.01984,0 0.05307,0.00323c0.03335,0.0015 0.05299,0.00431 0.05299,0.00431c1.02663,0.14672 2.11245,0.45029 3.19096,0.70675h0.84583v0.11582c0.99162,-0.20564 2.01332,-0.30224 3.05428,-0.32113c0.10204,-0.11954 0.22853,-0.24599 0.38239,-0.38003c0.41465,-0.36124 2.67741,-0.12895 3.27761,-0.12895c4.17134,0 7.88675,1.6523 11.90234,2.14286zM262.4484,174.5629c-0.26294,-0.32228 -0.5272,-0.64713 -0.78064,-0.98965l-0.04228,-0.99826c0,0 0,-0.07117 0.02192,-0.16966c-0.04234,-0.0784 -0.08393,-0.15718 -0.12476,-0.23634c-0.90324,-0.06599 -1.80897,-0.14834 -2.69261,-0.19079c0.18073,0.21628 0.34986,0.45308 0.50886,0.73461c0.94128,0.78089 1.87918,1.55527 2.80237,2.34726c0.02739,-0.14361 0.10228,-0.3643 0.30714,-0.49717z" fill-opacity="0.19216" fill="#cbadff" stroke="none" stroke-width="0.5"></path><path d="M294.28937,176.9357c-0.21072,-0.52681 0.13651,-0.81449 0.31809,-0.92335c0.09102,-0.19265 0.27837,-0.39091 0.66398,-0.39091c0.09265,0 0.17386,0.01144 0.24504,0.03151c3.34053,-1.23095 8.94839,-2.78694 11.63016,-0.04642c0.29523,0.01754 0.51227,0.23458 0.51227,0.23458l0.30888,0.39464c0.38813,0.99813 3.17686,3.86841 2.88601,4.89831c-0.34808,1.23254 -2.75323,0.84452 -3.58236,0.84452h-0.57143c-2.86379,0 -5.67741,0.27618 -8.52995,0.42742c-0.97754,0.05183 -2.77172,0.59166 -3.51967,-0.47124c-0.56215,-0.79887 -0.2938,-3.20705 -0.17515,-4.70917c-0.07126,-0.06961 -0.13542,-0.16376 -0.18588,-0.2899z" fill-opacity="0.53333" fill="#150830" stroke="none" stroke-width="0.5"></path><path d="M288.45,178.72692c0,0.35769 0,2.14395 0,2.50164c0,0.41421 -0.33579,0.75 -0.75,0.75c-0.33255,0 -0.61456,-0.21644 -0.71282,-0.51614l-0.01958,0.04569c-0.11084,0.27576 -0.38077,0.47045 -0.69617,0.47045c-0.21375,0 -0.40661,-0.08941 -0.54322,-0.23287c-0.39148,0.22013 -0.88929,0.10682 -1.50641,-0.66808c-0.89541,-1.12434 -0.31672,-2.5519 0.4888,-3.55272l-0.25522,-0.25522l0.57143,-0.57143c0.13572,-0.13572 0.32322,-0.21967 0.53033,-0.21967c0.01184,0 0.02362,0.00028 0.03532,0.00082c0.26881,-0.69515 0.58045,-1.09559 1.05457,-1.44664l-0.04879,-0.04879l0.35176,-0.35176c0,-0.18216 0,-0.36432 0,-0.54648c0,0 0,-0.75 0.75,-0.75c0.75,0 0.75,0.75 0.75,0.75c0,0.28571 0,0.57143 0,0.85714v0.85714c0,1.03902 0.04572,1.99518 0,2.92694z" fill-opacity="0.53333" fill="#150830" stroke="none" stroke-width="0.5"></path><path d="M277.01565,177.89303c-0.01058,0.08379 -0.02032,0.16736 -0.02938,0.25075c0.01198,0.03763 0.02107,0.07656 0.027,0.11651l0.14083,0.84498l-0.14128,0.02355c0.14954,0.48543 0.15148,0.93713 0.15148,1.81404v0.57143c0,0 0,0.73813 -0.73226,0.74986c-0.13735,0.1741 -0.35021,0.28586 -0.58917,0.28586c-0.40825,0 -0.74032,-0.32619 -0.74979,-0.73216c-0.57881,-0.44875 -0.13592,-1.03927 -0.13592,-1.03927l0.13571,-0.11501c0,-0.06654 0,-0.13308 0,-0.19962c-0.00252,-0.03439 -0.00238,-0.07003 0,-0.10692c0,-0.70948 0,-1.41897 0,-2.12845c0,0 0,-0.56227 0.48683,-0.71313c0.08321,-0.21354 0.29019,-0.52147 0.78476,-0.45965c0.74421,0.09302 0.65118,0.83723 0.65118,0.83723z" fill-opacity="0.53333" fill="#150830" stroke="none" stroke-width="0.5"></path><path d="M257.05913,179.93549c-0.06582,-0.10402 -0.10914,-0.24095 -0.10914,-0.42121c0,-0.75 0.75,-0.75 0.75,-0.75c1.04762,0 2.95238,0 4,0c0.41421,0 0.75,0.33579 0.75,0.75c0,0.20711 -0.08395,0.39461 -0.21967,0.53033l-0.57143,0.57143l-0.14958,-0.14958c-0.91578,0.91251 -1.90885,0.79783 -3.66646,0.79783h-0.28571c0,0 -0.75,0 -0.75,-0.75c0,-0.29163 0.11339,-0.46986 0.252,-0.57879z" fill-opacity="0.53333" fill="#150830" stroke="none" stroke-width="0.5"></path><path d="M240.69297,180.749c-0.01831,-0.06868 -0.02868,-0.14651 -0.02868,-0.23472c0,-0.75 0.75,-0.75 0.75,-0.75c1.52381,0 3.90476,0 5.42857,0c0.41421,0 0.75,0.33579 0.75,0.75c0,0.20711 -0.08395,0.39461 -0.21967,0.53033l-0.57143,0.57143l-0.24141,-0.24141c-1.28138,1.01483 -2.89086,0.7468 -4.86035,0.7468h-0.57143c0,0 -0.75,0 -0.75,-0.75c0,-0.33444 0.14914,-0.51975 0.3144,-0.62242z" fill-opacity="0.53333" fill="#150830" stroke="none" stroke-width="0.5"></path><path d="M201.94905,229.96667v-102.33333h184v102.33334z" fill="none" stroke="none" stroke-width="none"></path></g></g></svg>