<svg version="1.1" xmlns="http://www.w3.org/2000/svg" xmlns:xlink="http://www.w3.org/1999/xlink" width="60" height="60" viewBox="0,0,60,60"><g transform="translate(-210,-150)"><g stroke="none" stroke-width="0" stroke-miterlimit="10"><path d="M210,210v-60h60v60z" fill="none"></path><g fill="#ffffff"><g><path d="M243.03528,180c0,0 -2.34797,5.98335 -2.4487,6.08409c-0.15545,0.15545 -0.42018,0.33276 -0.6788,0.33159c-0.23701,-0.00107 -0.49706,-0.196 -0.63497,-0.3339c-0.12433,-0.12433 -2.30809,-6.08178 -2.30809,-6.08178z"></path><path d="M236.96472,180c0,0 2.18376,-5.95745 2.3081,-6.08178c0.1379,-0.1379 0.39795,-0.33283 0.63497,-0.3339c0.25862,-0.00117 0.52335,0.17614 0.6788,0.33159c0.10073,0.10073 2.44871,6.08409 2.44871,6.08409z"></path></g><g><path d="M240,176.96472c0,0 5.98335,2.34797 6.08409,2.4487c0.15545,0.15545 0.33276,0.42018 0.33159,0.6788c-0.00107,0.23701 -0.196,0.49706 -0.3339,0.63497c-0.12433,0.12433 -6.08178,2.30809 -6.08178,2.30809z"></path><path d="M240,183.03528c0,0 -5.95745,-2.18376 -6.08178,-2.3081c-0.1379,-0.1379 -0.33283,-0.39795 -0.3339,-0.63497c-0.00117,-0.25862 0.17614,-0.52335 0.33159,-0.6788c0.10073,-0.10073 6.08409,-2.44871 6.08409,-2.44871z"></path></g></g></g></g></svg>