<svg version="1.1" xmlns="http://www.w3.org/2000/svg" xmlns:xlink="http://www.w3.org/1999/xlink" width="548" height="359" viewBox="0,0,548,359"><g transform="translate(34,-1)"><g stroke="none" stroke-miterlimit="10"><g stroke-width="0.5"><g><path d="M271.63257,51.51744c-1.23744,-1.23743 0,-2.47487 0,-2.47487l-0.01865,0.06671c0.20881,-0.3121 0.4208,-0.65892 0.64012,-1.01747c-0.07725,-0.02291 -0.15675,-0.05167 -0.23852,-0.08689c-0.42913,-0.13295 -0.8956,-0.21086 -1.35377,-0.301c-0.45495,0.13063 -1.04207,0.10065 -1.62918,-0.48647c-0.06045,-0.06045 -0.11498,-0.12089 -0.16405,-0.18118c-0.09719,-0.07594 -0.18831,-0.16083 -0.27229,-0.25626c-0.8211,-0.93304 -1.10839,-2.46234 -0.75004,-3.65245c0.13416,-0.44555 1.08254,-1.11887 2.05712,-1.74991c0.40494,-0.01414 1.23443,-0.15151 1.5721,-1.00505c0.19774,-0.13133 0.36449,-0.24837 0.48512,-0.34593c0.46474,-0.37586 0.88781,-0.78017 1.27378,-1.21123c0.16127,-1.04181 0.33696,-2.09967 0.65176,-3.18416c0.02753,-0.29433 0.14923,-0.61727 0.42552,-0.9546c0.18643,-0.24829 0.46805,-0.50995 0.86868,-0.61824c0.16208,-0.04842 0.32076,-0.06477 0.47147,-0.05949c0.02636,-0.23642 0.05249,-0.47373 0.07898,-0.71218c0,0 0.19325,-1.7393 1.93255,-1.54605c0.35217,0.03913 0.62512,0.14165 0.83648,0.28028c0.27618,0.08855 0.48428,0.23427 0.64107,0.40358c0.37417,0.35507 0.46934,0.81457 0.47515,1.17166c0.00405,0.05315 0.00405,0.08377 0.00405,0.08377c-0.00171,1.34873 0.27869,2.84911 0.30082,4.27253c0.2855,0.66636 0.34101,1.46734 0.06373,2.77796c-0.16156,0.76361 -0.53384,1.44406 -0.98318,2.09324c0.01227,0.08365 0.01863,0.16922 0.01863,0.25628c0,0.13001 -0.01417,0.25671 -0.04107,0.37864l-0.39292,1.96457l-0.08186,-0.01637c-0.00657,0.12919 -0.01848,0.25834 -0.03656,0.38746c-0.19549,1.39569 -3.11925,4.01817 -3.94149,5.25643l-0.41865,0.46671c0,0 -1.23744,1.23743 -2.47487,0z" fill="#ad4eab"></path><path d="M283.49338,60.2727c0.19431,-0.03711 0.42637,-0.00904 0.69112,0.14981c0.85749,0.5145 0.343,1.37199 0.343,1.37199c-0.35978,0.58139 -1.01859,0.94213 -1.36307,1.53272c-0.33432,0.57319 -0.14105,2.60551 -0.00058,4.10889c0.02735,0.06096 0.05174,0.12329 0.07265,0.18723c0.06356,0.19438 0.09784,0.38005 0.10837,0.55898c0.30313,0.28672 0.55707,0.66971 0.74301,1.19573c0.71278,1.46774 0.85023,2.98216 0.85409,4.5411c0.0999,0.23583 0.19598,0.47893 0.28409,0.72579c0.17234,0.31043 0.28786,0.63733 0.29758,0.98861c0.15257,0.63904 0.21766,1.27229 0.12636,1.84144c-0.04098,0.25546 -0.09255,0.5056 -0.15802,0.73968c0.23451,2.8507 -0.16628,5.82456 -1.63731,7.67745c0.1288,0.31372 0.05621,0.58426 -0.05598,0.78222c-0.07556,0.17306 -0.20749,0.35429 -0.43781,0.45963c-0.42344,0.39069 -0.53832,1.08502 -0.95752,1.49863c-0.90958,0.89748 -2.59378,1.87253 -4.09159,2.68439c0.36653,0.1312 0.72836,0.42132 0.96306,1.00807c0.64994,1.62484 -0.9749,2.27477 -0.9749,2.27477l-1.41917,0.55783c-0.23266,0.0658 -0.46387,0.12564 -0.6939,0.18011c0.30329,0.40227 0.48379,0.84659 0.45026,1.34917c-0.18559,2.78189 -5.0903,2.7586 -8.14407,2.61971c-1.98077,0.35969 -3.4833,1.1765 -5.47976,1.63022c-1.85529,0.42163 -4.78574,0.11841 -6.68592,0.01973c-2.68457,-0.13941 -4.43416,0.17906 -6.44679,-1.77701c-0.01379,-0.0134 -0.02749,-0.02689 -0.04111,-0.04046c-1.75975,0.02774 -3.54624,-0.04 -4.07693,-0.40586c-0.20123,-0.13873 -0.52928,-0.58868 -0.90995,-1.2001c-0.56556,-0.29001 -0.95258,-0.8789 -0.95258,-1.55818c0,-0.03133 0.00082,-0.06248 0.00245,-0.09341c-0.05499,-0.10166 -0.1099,-0.20411 -0.16454,-0.30698c-0.18995,1.00615 -0.40151,2.0243 -0.60733,3.09651l0.0017,0.02657c0.08037,0.25262 0.02462,0.48503 -0.05715,0.66051c-0.06055,0.16621 -0.17007,0.35068 -0.36814,0.47419c-4.61739,4.64055 -7.92754,9.64261 -15.05698,9.64261c-2.66377,0 -5.15636,0.38676 -6.64443,-2.30279l-0.02865,-0.022c-0.28482,-0.11464 -0.42902,-0.34159 -0.50204,-0.54202c-0.07404,-0.15889 -0.12675,-0.36444 -0.0764,-0.58941c-0.03313,-2.3125 -0.59059,-5.60404 0.02828,-7.77354c0.78455,-2.7503 2.06881,-5.38172 3.00953,-8.03718c0.2744,-0.77458 0.07934,-2.48884 0.21713,-3.31554l-0.00341,-0.91716c0,-0.00024 0,-0.00037 0,-0.00037c0,0 0,-0.00019 0,-0.00056c0.00445,-0.9556 0.09656,-1.90431 0.22897,-2.85039c-0.18175,0.17963 -0.37936,0.35874 -0.59875,0.53996c0.03492,-6.68464 0.32592,-13.37663 0.33641,-20.03066c0,0 0,-0.08286 -0.01803,-0.21253c0.24526,-1.59687 0.29713,-3.10812 0.3194,-4.8849l0.47668,-1.23354c0.03743,-0.17847 0.12771,-0.32665 0.21358,-0.43409c0.07691,-0.10471 0.18789,-0.22268 0.33701,-0.30499c3.1754,-2.51317 3.08085,-7.2405 6.27304,-8.669c1.57954,-2.08736 4.00448,-3.15597 6.09694,-4.73051c1.58725,-1.19438 1.89929,-2.53927 3.64089,-3.58487c2.24625,-1.34858 4.68861,-1.72234 7.16633,-2.08948c-0.00386,0.04746 -0.00583,0.09546 -0.00583,0.14391c0,0.9665 0.7835,1.75 1.75,1.75h2c1.25824,-0.01653 2.47515,0.45814 3.71968,0.64407c2.22124,0.33185 4.58359,-0.14502 6.82293,0.01819c2.47936,0.1807 4.76517,1.04168 7.26413,1.32704c0,0 1.7393,0.19325 1.93255,-1.54604c0.01192,-0.10726 0.01648,-0.20864 0.01456,-0.30446c0.57525,1.29476 0.44145,3.45904 0.34115,4.97798c0.6558,0.77976 1.83367,1.07462 2.6284,1.75115c0.55757,0.47463 0.71268,1.28132 1.12116,1.88902c0.89576,1.33264 0.60242,2.59782 0.52983,3.9098c0.51418,0.46149 0.95193,0.94713 1.31963,1.46663c0.59123,0.38402 1.19191,0.72099 1.65054,1.37358c1.56203,2.22261 0.9829,5.29585 -0.06125,8.18952c0,0.54839 0,1.09679 0,1.64519c0,0.55473 -0.61347,1.3634 -0.3683,1.74203c0.02838,0.02966 0.05671,0.05933 0.08497,0.08899c0.01711,0.01255 0.03596,0.02422 0.05667,0.03499c0.48976,0.25449 1.00843,0.40007 1.52393,0.51647c-0.50291,-1.20253 -0.71794,-2.74605 -0.5724,-3.72601c0.07093,-0.47759 0.27942,-1.51351 0.77147,-1.93422c-0.11121,-0.16118 -0.17634,-0.35661 -0.17634,-0.56724c0,-0.55228 0.44772,-1 1,-1h1.2c0,0 0.53626,0 0.82337,0.3927z" fill="#e5c1e4"></path><path d="" fill="#e5c1e4"></path><path d="M250.97711,76.17289l0.11506,0.35635c2.17257,0.08933 4.14421,0.65634 4.1774,2.78013c0.05608,3.58801 -6.01226,2.84862 -7.96208,1.52881c-0.32349,-0.0731 -0.61825,-0.19721 -0.87148,-0.38484c-0.49096,-0.36379 -0.634,-0.78332 -0.6303,-1.22441c-0.1139,-0.29355 -0.10321,-0.55088 0.00771,-0.77144c-0.18817,-0.14469 -0.34343,-0.38346 -0.34343,-0.77749c0,-0.57761 0.33364,-0.82159 0.61549,-0.92464l-0.01233,-0.37861c-0.04299,-0.34063 0.06284,-0.57805 0.21041,-0.74148c0.09995,-0.13453 0.24668,-0.25377 0.46209,-0.31392c0.84863,-1.10665 3.84149,0.49891 4.23146,0.85154z" fill-opacity="0.35294" fill="#ad4eac"></path><path d="M284.08584,75.80809c-0.7176,1.06993 -1.91438,1.33595 -2.5978,-0.93898c-0.35473,-1.18082 0.27774,-3.03124 2.05196,-2.75197c0.52601,0.0828 0.66568,0.76832 0.90335,1.30095c0.22664,0.29018 0.22664,0.66191 0.22664,0.66191c-0.00682,0.09355 -0.01751,0.18692 -0.03177,0.27965l0.03177,0.52035c0,0 0,0.6988 -0.58416,0.92809z" fill-opacity="0.35294" fill="#ad4eac"></path><path d="M233.89077,33.75827c1.80336,2.57979 2.90237,4.78315 5.32583,6.89968c2.35082,2.05309 5.71208,4.15098 4.4947,7.9292c-0.04985,0.15471 -0.11971,0.29879 -0.20363,0.43542l-0.07242,0.34005c-3.23781,6.10285 -10.32,6.35182 -13.71404,0.03209c-1.59589,-2.97156 -1.30184,-5.26301 -1.78266,-8.36059c-0.51769,-3.33511 -0.7998,-6.15779 -0.19032,-9.56717c0,0 0.10006,-0.55033 0.49818,-0.97216c-0.03859,-0.19553 -0.07126,-0.39028 -0.0977,-0.58407c-0.08815,-0.36982 -0.09403,-0.84933 0.22859,-1.29781c0.16773,-0.28915 0.44428,-0.5564 0.89829,-0.69302c0.43755,-0.18261 0.82086,-0.15163 1.13402,-0.03466c0.53207,0.14127 0.83165,0.51337 0.99863,0.85412l0.46094,0.7299c0.45289,1.03268 0.81656,2.09382 1.15216,3.16597c0.25625,0.30551 0.54617,0.66058 0.86944,1.12304z" fill="#ad4eab"></path><path d="M282.07,62.88c0,1.68562 -0.31594,2.9825 -0.61804,4.58911c-0.09707,0.51624 0.20552,1.984 -0.05808,2.39358c-1.11373,1.73053 -2.25419,2.35842 -3.61831,0.46453c-1.05316,-1.46217 0.69443,-5.02394 0.69443,-6.84721v-1c0,-0.55228 0.44772,-1 1,-1c0.05837,0 0.11556,0.005 0.17119,0.0146l0.5217,-0.5217v0c0.18096,-0.18096 0.43096,-0.29289 0.70711,-0.29289c0.55228,0 1,0.44772 1,1v0.57401c0.2,0.28399 0.2,0.62599 0.2,0.62599z" fill="#30152f"></path><g><path d="M253.23273,66.98505c0,0 0.01523,0.58093 -0.42039,0.86869c0.06169,1.95674 0.70118,3.8467 1.78475,5.42991c0.21977,0.11569 0.43827,0.23372 0.65506,0.35491l0.93634,0.34295c0,0 0.93789,0.34694 0.59096,1.28482c-0.03294,0.08907 -0.07121,0.16653 -0.11351,0.23382c1.65987,1.30595 3.76785,2.09183 6.14821,2.04229c6.38871,-1.38197 5.58209,-12.38052 0.77528,-15.17975c-1.07118,-0.6238 -3.12841,-0.16872 -4.27937,-0.13855c-1.17822,0.03088 -2.70333,-0.18286 -4.05025,-0.02916c-1.35199,1.15272 -2.1955,2.79468 -2.02707,4.79006zM264.94176,59.41159c1.37315,0.80669 1.70074,1.89866 2.62853,3.07045c0.70659,1.31832 1.18458,2.19664 1.24659,3.69433l0.01049,0.39986c0,0 0.01211,0.46215 -0.29435,0.76622c1.24748,4.81458 0.76232,10.3085 -4.8,12.0046c-0.07607,0.36044 -0.3469,0.65113 -0.69977,0.75326l-1.36794,0.42992l-0.07066,-0.22482c-1.28324,0.5709 -2.18367,0.40155 -3.40665,-0.24339c-1.14968,-0.12883 -2.26914,-0.37386 -3.64111,-0.7943c-4.45228,-2.4567 -4.17378,-6.88868 -4.29216,-11.40435c-0.05176,-1.97455 -0.22466,-4.25217 1.10315,-5.90067c0.84941,-1.05456 2.01922,-1.494 3.29124,-1.66676c2.79368,-2.21592 6.83326,-2.91666 10.29265,-0.88437z" fill="#316a70"></path><path d="M278.05349,60.73264c0.48892,-0.91951 1.09991,-2.25942 1.51655,-2.60963c2.40661,-2.02287 4.91879,0.56276 6.27189,2.17119c2.24529,2.66897 3.24255,9.58037 1.88101,12.99687c-0.3223,0.80876 -0.9153,1.5053 -1.15652,2.34182c-0.70441,0.20566 -1.423,0.40542 -2.15096,0.50061c-0.13534,0.37677 -0.49097,0.65059 -0.91525,0.66172l-1.19958,0.03145c-4.83296,0.05334 -5.90254,-6.38598 -5.47102,-11.34249c0.00752,-0.48895 0.05839,-0.93809 0.15618,-1.329c0.03934,-0.26329 0.08289,-0.51935 0.13022,-0.76671c0.00244,-0.57076 0.00137,-1.11816 -0.01207,-1.63079c0,0 -0.02578,-0.98365 0.94955,-1.02504zM284.66134,61.78805c-0.06672,0.04738 -0.15325,0.09952 -0.25452,0.13981c-0.2871,-0.78422 -1.04994,-1.33443 -1.93094,-1.31134c-0.86262,0.02262 -1.58331,0.58817 -1.84357,1.36102c-0.08591,0.14023 -0.15499,0.29174 -0.2045,0.45166c-0.61701,0.68227 -1.1039,1.53721 -1.31418,2.27666c-0.00137,0.29885 -0.00223,0.59851 -0.00153,0.89836c-0.06282,0.22459 -0.08211,0.44275 -0.08247,0.62449c-0.00441,0.17001 0.00938,0.2789 0.00938,0.2789c0.16823,1.32938 0.33646,2.65877 0.50468,3.98815l1.18089,2.08016c0,0 0.21191,0.30049 0.58285,0.55293l0.11274,0.21413c0,0 0.941,1.76481 2.7058,0.82381c0.0007,-0.00038 0.0014,-0.00074 0.0021,-0.00112c0.33116,0.01296 0.66685,0.03077 1.00994,0.06735c-0.04627,-1.11279 0.78942,-1.44395 0.83152,-2.58674c0.10057,-2.73038 0.21051,-5.99723 -0.58805,-8.62012c-0.07065,-0.23206 -0.33956,-0.70477 -0.72015,-1.2381z" fill="#316a70"></path><path d="M246.89108,73.40753c-0.42331,0.44695 -0.86318,0.87481 -1.33042,1.27081l-0.71774,0.94702c-0.17692,0.23764 -0.45721,0.39464 -0.77635,0.40301c-0.5521,0.01448 -1.01139,-0.42136 -1.02586,-0.97346c-0.00271,-0.10335 0.01037,-0.20346 0.03702,-0.298l0.35742,-1.38764l0.06351,0.01636c0.01428,-0.10023 0.03336,-0.19991 0.05814,-0.29894c0.10056,-0.40175 0.73551,-0.44187 0.95787,-0.79126c0.72042,-1.13199 1.32526,-3.56623 2.87229,-4.23851c0.61627,-0.26781 1.10109,-0.39079 1.47668,-0.401c0.03612,-0.08213 0.07568,-0.16377 0.11894,-0.24597l-0.08959,-0.02728l0.3617,-1.18801c0.11492,-0.41178 0.48747,-0.71867 0.93715,-0.73046c0.5521,-0.01448 1.01138,0.42136 1.02586,0.97345l0.02621,0.99966l-0.1314,0.00344l0.10213,0.26435c-0.10002,0.18801 -0.20858,0.41875 -0.32577,0.6748c0.00116,0.01533 0.00187,0.03055 0.00218,0.04563c0.21061,-0.00674 0.45009,0.06497 0.69375,0.29618c0.72539,0.68833 0.03706,1.41373 0.03706,1.41373l0.0178,-0.13623c-0.18269,0.4586 -0.49595,0.8452 -0.8768,1.17836l0.2102,0.24907l-0.9726,0.8208c-0.16836,0.14457 -0.38569,0.2343 -0.62483,0.24057c-0.18767,0.00492 -0.3646,-0.04219 -0.517,-0.12821c-0.03697,0.06319 -0.07324,0.12288 -0.10855,0.17861l-0.09591,0.04484l0.03161,0.02999l-0.77876,0.82069l-0.35397,-0.33588z" fill-opacity="0.97647" fill="#316a70"></path><path d="M266.27128,66.32691c0.22018,-0.72319 0.82061,-0.73322 1.10055,-0.69505c1.0235,-1.04516 2.11491,-1.78152 3.28014,-2.236c0.69525,-0.86317 1.54854,-1.59361 2.31338,-1.87342c1.1445,-0.41871 3.98892,0.70467 4.29068,2.00772c0.03278,0.14156 0.04105,0.28269 0.03119,0.42348l0.0743,-0.00195l0.02621,0.99966c0.01448,0.55209 -0.42135,1.01139 -0.97345,1.02586c-0.4291,0.01125 -0.80213,-0.24951 -0.95385,-0.62546l-0.24451,-0.56765c-1.33364,0.1077 -2.4197,0.1366 -3.41998,0.39308c-0.36558,0.45718 -0.67133,0.92186 -0.84022,1.31098c-0.23199,0.5345 -0.04029,1.33624 -0.51831,1.66942c-0.75416,0.52566 -2.21222,-0.14691 -2.95139,-0.41732l-0.54936,-0.16546c0,0 -0.95665,-0.29126 -0.66539,-1.2479zM269.25892,66.57828c-0.02452,0.02238 -0.04906,0.04508 -0.07364,0.06809c0.04352,0.01175 0.07016,-0.00659 0.07364,-0.06809z" fill-opacity="0.97647" fill="#316a70"></path><path d="M286.42835,65.1598c0.02267,0.03214 0.04318,0.06391 0.06167,0.09529c0.2231,-0.13447 0.82084,-0.4008 1.3151,0.22344c0.62076,0.784 -0.16324,1.40476 -0.16324,1.40476c-0.8718,0.68645 -1.58435,1.47617 -2.35651,2.27378l-0.15855,0.04311l0.02328,0.04365l-1.16611,0.62177c-0.137,0.07678 -0.29415,0.12232 -0.46204,0.12672c-0.5521,0.01448 -1.01139,-0.42136 -1.02587,-0.97345c-0.00194,-0.07426 0.00426,-0.14686 0.01779,-0.21691l0.17021,-0.98455l0.18204,0.03147c0.10665,-0.83084 0.4886,-1.38117 1.4303,-2.38553l0.73839,-0.54448c0,0 0.81723,-0.57631 1.39354,0.24092z" fill-opacity="0.97647" fill="#316a70"></path></g><path d="M264.07,64.48c0,1.68562 -0.31594,2.9825 -0.61804,4.58911c-0.09707,0.51624 0.20552,1.984 -0.05808,2.39358c-1.11373,1.73053 -2.25419,2.35842 -3.61831,0.46453c-1.05316,-1.46217 0.69443,-5.02394 0.69443,-6.84721v-1c0,-0.55228 0.44772,-1 1,-1c0.05837,0 0.11556,0.005 0.17119,0.0146l0.5217,-0.5217v0c0.18096,-0.18096 0.43096,-0.29289 0.70711,-0.29289c0.55228,0 1,0.44772 1,1v0.57401c0.2,0.28399 0.2,0.62599 0.2,0.62599z" fill="#30152f"></path></g><path d="M282.86115,81.8773c-0.15589,-0.50572 -0.24573,-1.4163 0.80394,-2.01611c1.51943,-0.86824 2.38767,0.65118 2.38767,0.65118c0.50176,0.91747 1.20419,1.75098 1.50528,2.75241c0.35866,1.19292 0.27944,2.12441 0.24512,3.02779c0.33502,1.05343 0.55919,2.06774 0.49,2.80921c0.07535,0.15502 0.16154,0.31424 0.26001,0.47836l-0.17325,0.46713h0.23675v2c0,0.9665 -0.7835,1.75 -1.75,1.75c-0.89129,0 -1.62696,-0.66631 -1.73605,-1.52798l-0.32969,-2.30786l0.07712,-0.01102c-0.49864,-1.05208 -0.64015,-2.0847 -0.73605,-3.11399c-0.36543,-1.11992 -0.74754,-2.26607 -1.23349,-3.47255l-0.12517,-0.98327c0,0 0,-0.21965 0.07782,-0.50332z" fill-opacity="0.94902" fill="#e6c1e4"></path><g><path d="M240.15,233.975v0.75c-0.01694,1.1165 -0.30961,2.17221 -0.7493,3.18596c-0.00102,0.10437 -0.00125,0.20905 -0.0007,0.31404v0.832c0.01686,0.14862 -0.00298,0.28839 -0.02985,0.39703c-0.02492,0.11085 -0.07067,0.24715 -0.15459,0.37416c-1.08276,2.11767 -2.59387,4.14051 -3.65485,6.26818c-0.86897,2.91359 -2.2638,5.5602 -5.09447,6.57731c-0.72872,0.26184 -1.76886,0.28036 -2.81978,0.23067c-0.94115,2.88379 -1.77001,5.82919 -2.80057,8.64518c-0.06492,0.17739 -0.13196,0.35442 -0.20085,0.53116c-0.07674,0.95679 -0.14244,1.93662 -0.25027,2.99657c-0.13246,1.30203 -0.86095,2.47187 -1.29377,3.70698c-0.82998,2.36848 -1.14878,5.10475 -1.7607,7.55272c-0.69451,2.77835 -1.26512,5.40508 -2.2958,7.87226c0.62876,0.55701 1.13662,1.4079 1.47728,2.02585c1.89531,3.43813 4.83896,8.53907 2.17824,12.33992l-0.07939,0.17721c-0.06938,0.30352 -0.25164,0.47959 -0.43976,0.58172c-0.16816,0.11747 -0.39464,0.19977 -0.67946,0.14158c-3.95872,0.02679 -8.3198,1.10573 -12.03169,0.51659c-0.13232,0.00408 -0.26531,0.00859 -0.3988,0.01312c-0.71018,0.0577 -1.42821,0.05735 -2.15254,0.01874c-0.19565,-0.0084 -0.39044,-0.02098 -0.58383,-0.03892c-0.76304,-0.06052 -1.53254,-0.1573 -2.30671,-0.26754c-1.10598,-0.15749 -2.32321,0.80256 -3.40355,0.10814c-1.0454,-0.67196 -1.85966,-4.04314 -1.41789,-5.18166c0.00437,-0.01126 0.00884,-0.02249 0.01342,-0.03371c0.00022,-0.00808 0.00045,-0.01617 0.00069,-0.02427c-0.42031,-0.39641 -0.79275,-0.80618 -0.99437,-1.22832c-0.19789,-0.41436 -0.27341,-1.35102 -0.23614,-2.38142c-0.20844,-0.18327 -0.33998,-0.4519 -0.33998,-0.75126v-1.5h0.02323c0.01329,-0.15368 0.03206,-0.30462 0.05577,-0.45312c-0.54188,-1.25816 0.18034,-3.15624 0.74712,-4.42957c2.15303,-4.83699 2.56063,-10.27904 5.31639,-14.88181l1.09825,-0.48146c0.14785,-1.5088 0.41216,-2.97674 1.06337,-4.32858c0.6784,-3.53416 1.84074,-6.87024 3.05605,-10.17463c-0.60694,0.09623 -1.302,0.35481 -1.61354,-0.09323c-0.41492,-0.59671 0.44773,-2.83694 0.94212,-3.49232c0.91035,-1.20679 1.37547,-2.60543 1.60473,-4.10518c-0.00045,-0.02148 -0.00087,-0.04293 -0.00125,-0.06439c-0.0366,-0.01388 -0.07277,-0.02951 -0.10846,-0.04704c-3.16684,-1.55538 -1.37651,-2.51398 0.31554,-2.95752c0.00047,-0.08029 0.00069,-0.16068 0.00069,-0.24116c0,0 0,-0.95127 0.92781,-0.9982c0.71464,-0.83507 1.79727,-1.72491 2.89041,-2.48321c0.08561,-0.08602 0.19708,-0.17227 0.3344,-0.2277c0.21319,-0.14248 0.42539,-0.27921 0.63393,-0.40883l-0.13655,-0.18206l0.99192,-0.74394c0.1685,-0.12924 0.37931,-0.20606 0.60808,-0.20606c0.04964,0 0.09845,0.00362 0.14616,0.0106c0.55546,-0.6894 1.03664,-1.45989 1.43746,-2.27653c0.01114,-2.20492 -0.04002,-4.03265 0.9743,-5.84363c-0.0433,-0.1167 -0.05832,-0.23457 -0.05873,-0.34094l-0.10668,-0.064l0.14231,-0.2372c0.01492,-0.06228 0.02885,-0.09943 0.02885,-0.09943c1.05803,-2.80726 2.58063,-5.35122 3.20166,-8.32333c0.23634,-1.13107 -0.23432,-2.41356 0.01142,-3.5553c0.84105,-3.90761 2.06145,-7.92032 3.561,-11.67991c0.90492,-1.76486 0.61234,-4.42387 1.51781,-6.03755c0.39436,-0.70281 1.38771,-0.91664 1.80958,-1.60328c0.42937,-0.69882 0.25261,-1.71877 0.8048,-2.32524c1.11671,-1.22649 1.43641,-0.71073 2.65786,-0.86678c4.36884,-0.55815 8.17383,2.03629 11.64792,4.64186l0.78349,0.38791c0.28398,0.07454 0.45121,0.2505 0.5497,0.4319c0.11778,0.16861 0.20021,0.39585 0.14111,0.68174c0.00172,3.7288 0.0608,7.69017 -0.77944,11.33201c-0.97853,4.24125 -2.18614,9.05436 -2.24102,13.46815c-1.09647,2.62609 -2.10664,5.19689 -2.69553,7.901c0.21595,0.28799 0.21595,0.64793 0.21595,0.64793z" fill="#e5c1e4"></path><path d="M255.95293,291.1178c-0.06443,-0.14585 -0.12886,-0.2917 -0.19329,-0.43755c-0.31137,-0.54394 -1.37552,-3.13512 -0.55193,-4.12255c-0.32731,-0.94617 -0.55914,-1.91402 -0.55021,-2.96053c-0.4271,-1.70841 -0.51041,-3.65094 -0.6959,-5.55426c-0.19546,-0.5523 -0.42058,-1.084 -0.68594,-1.58722c0.04513,-0.24388 0.09631,-0.4851 0.15421,-0.72323c0,0 0.03628,-0.14509 0.13688,-0.30902c-0.15854,-0.67197 -0.36847,-1.34837 -0.59196,-2.02524c-0.06665,-0.15785 -0.13783,-0.31314 -0.21394,-0.46563c-1.64905,-3.30406 -3.11083,-5.29433 -3.11083,-9.20758v-0.75c0,-0.86113 -0.11703,-2.05411 -0.11649,-3.2257c-1.21627,-0.5383 -0.37333,-2.89518 0.25691,-4.02702c-2.59831,0.00778 -2.44229,-2.74897 -0.63312,-4.11748c0.63083,-0.47718 1.53903,-0.26455 2.346,-0.3337c0.00669,-0.01512 0.0138,-0.03029 0.02138,-0.04547l0.54047,-1.30113c1.24866,-1.28974 2.45242,-2.47007 3.5854,-3.66586c-0.00037,-0.01117 -0.00055,-0.02238 -0.00055,-0.03364c0,-0.27614 0.11193,-0.52615 0.29289,-0.70711l1,-1c0.52753,-0.52643 0.9962,-1.01776 1.44042,-1.50724c0.48095,-0.88602 1.10672,-1.77829 1.74349,-2.55905c0.21653,-0.37815 0.42626,-0.76878 0.62878,-1.17382c0,0 0.33368,-0.66736 1.00104,-0.56094c0.02263,-0.02013 0.04508,-0.03988 0.06734,-0.05926c0.69406,-0.60446 2.12919,-0.9337 2.86894,-1.6397c0.02887,-0.02756 0.05666,-0.0564 0.08342,-0.08646c0.15323,-0.37775 0.32311,-0.75366 0.52089,-1.12933c0.00041,-2.17745 -0.25556,-4.39495 0.1157,-6.48729c0.409,-2.30502 0.86471,-4.82042 1.47954,-7.23219c0.00499,-0.2839 0.00754,-0.56968 0.00754,-0.85763c0.02404,-2.16007 0.2864,-4.89089 0.89863,-7.05839c-0.77767,-0.25015 -0.63502,-1.10601 -0.63502,-1.10601c0.35946,-2.12565 0.87046,-4.23859 1.21373,-6.36025c0.29247,-1.80767 -0.58506,-4.00868 0.73606,-5.59282c1.16054,-1.39158 2.53042,-1.33819 3.73345,-2.21561c2.58677,-1.88663 4.4181,-2.78446 7.93583,-2.5908c0.76163,0.70499 1.89724,1.03133 2.46796,1.89814c0.54638,0.82983 0.41278,2.83962 0.6226,3.79598c0.77654,3.53952 2.03926,5.79052 1.99388,8.82366c0.53287,0.24881 0.53287,0.90609 0.53287,0.90609c-0.00495,2.10595 -0.58911,4.11144 -1.25,6.08552v1.41448h-0.0026c-0.02338,2.30038 -0.20925,4.45594 -0.77176,6.71939c-0.97983,4.79981 -0.5876,9.00746 -2.55176,13.66329c-0.64038,1.51796 -3.30478,6.24786 -4.85556,6.94807c-1.28365,1.23156 -2.83466,2.62559 -3.78827,3.79498c-0.22505,0.27598 -0.02255,0.78242 -0.27668,1.03188c-1.10068,1.08046 -3.11899,1.75765 -4.33445,2.83573c-1.423,1.26218 -2.60691,2.85515 -3.96181,4.21376l-0.96056,0.96056c0.00313,0.03397 0.00622,0.06795 0.0093,0.10193c0.12813,0.86554 0.23604,1.73636 0.32639,2.60932c0.14163,0.70313 0.2834,1.41185 0.4157,2.13153c0.1592,5.03379 2.2691,9.35186 3.99543,13.93526c0.98633,-0.14387 1.92297,0.12991 2.82196,0.63575c1.05391,0.2729 2.04086,0.63517 2.71784,1.07253c0.93391,0.60334 1.60842,1.87932 2.18322,3.14155c0.3755,0.33259 0.74784,0.63676 1.11832,0.89322c1.23969,0.85816 2.86263,1.40731 3.58917,2.92856c0.40058,0.83873 0.07612,2.68988 0.07612,3.63269v0.5c0,0 0,0.44723 -0.29908,0.74352c0.14376,1.19811 0.16114,2.40274 -0.03913,3.2577c-4.60041,0.01407 -9.20082,0.02562 -13.80111,-0.00122c-0.34319,-0.002 -0.69179,-0.06709 -1.0417,-0.17314c-1.75385,0.10859 -3.63892,0.25952 -5.22989,-0.06801c-0.52307,-0.00438 -1.05219,-0.00885 -1.58909,-0.00885c-1.1241,0 -3.04,0.33015 -3.78004,-0.87428c-0.38312,-0.62354 -0.71695,-1.56831 -0.30624,-2.17403c0.24479,-0.36102 0.67388,-0.48993 1.13921,-0.5589zM259.99138,292.46495c0.1818,0.10327 0.37988,0.18914 0.5913,0.26002c0.02245,0.00002 0.04488,0.00003 0.06733,0.00003c0.07007,0 0.14087,-0.00063 0.21232,-0.0018c-0.2865,-0.10108 -0.55699,-0.2144 -0.81256,-0.33916c-0.0188,0.02747 -0.03827,0.05445 -0.05839,0.08091zM271.36789,250.09645c-0.05221,0.04793 -0.10411,0.09598 -0.15567,0.14416c0.05485,-0.04755 0.10685,-0.09558 0.15567,-0.14416z" fill="#e5c1e4"></path><g fill="#316a70"><path d="M218.09115,295.15402l0.17778,-0.25359c0.66021,0.52617 1.65924,0.79785 1.98064,1.57851c0.33214,0.80676 -0.55197,1.81471 -1.42884,2.61682l-0.21361,0.53401c-0.14181,0.37979 -0.50789,0.65024 -0.93713,0.65024c-0.55228,0 -1,-0.44772 -1,-1c0,-0.73333 0,-2.46667 0,-3.2c0,0 0,-1 1,-1c0.1666,0 0.30544,0.02775 0.42115,0.07402z"></path><path d="M207.16289,296.57289c0.70711,-0.70711 1.41421,0 1.41421,0l0.10141,0.12206c0.01409,-0.04379 0.02836,-0.08752 0.0428,-0.13118c0,0 0.31623,-0.94868 1.26491,-0.63246c0.94868,0.31623 0.63246,1.26491 0.63246,1.26491c-0.19191,0.5708 -0.35404,1.15377 -0.47397,1.74438c-0.0073,0.04652 -0.01662,0.09358 -0.02785,0.14128c-0.01656,0.08662 -0.03219,0.17339 -0.04686,0.2603v0.93781c0,0.55228 -0.44772,1 -1,1c-0.55228,0 -1,-0.44772 -1,-1v-1h0.04288l-0.03947,-0.08248c0.02553,-0.15339 0.05304,-0.30653 0.08254,-0.45934c-0.12498,-0.08977 -0.25551,-0.16516 -0.40044,-0.20068l-0.59261,-0.55039c0,0 -0.70711,-0.70711 0,-1.41421z"></path><path d="M277.87,290.28c1,0 1,1 1,1v0.16438c0.25303,0.33545 0.18995,0.77704 0.18995,0.77704c-0.07462,0.50561 -0.14925,1.01121 -0.22387,1.51682l-0.27944,-0.05282c-0.0082,0.01978 -0.01652,0.03953 -0.02498,0.05925l0.26681,0.10672l-0.39135,0.97837c-0.14181,0.37979 -0.50789,0.65024 -0.93713,0.65024c-0.55228,0 -1,-0.44772 -1,-1c0,-0.1393 0.02848,-0.27195 0.07995,-0.39245l0.35797,-0.89493c0.01623,-0.11825 0.03246,-0.2365 0.04869,-0.35475c-0.05659,-0.18613 -0.08352,-0.38458 -0.08661,-0.55787v-1c0,0 0,-1 1,-1z"></path><path d="M267.67,295.08c-0.28714,0 -0.49183,-0.08245 -0.63775,-0.2h-0.16225v-0.17401c-0.07034,-0.09988 -0.11594,-0.20694 -0.14551,-0.30377c-0.25946,-0.04651 -0.51892,-0.09302 -0.77837,-0.13953l0.44073,-0.86583l-0.22396,-0.22396l0.63528,-0.63528c0.03042,-0.21791 0.06083,-0.43582 0.09125,-0.65373c0,0 0.19612,-0.98058 1.1767,-0.78446c0.7006,0.14012 0.80053,0.68069 0.80047,0.97796c0.24483,0.18228 0.40341,0.47393 0.40341,0.80262c0,0.1393 -0.02848,0.27195 -0.07995,0.39245l-0.39158,0.97894l-0.13806,-0.05522c-0.03553,0.2635 -0.20281,0.88383 -0.99042,0.88383z"></path></g></g><path d="M288.61667,120.38062c-0.00113,0.96681 -0.05866,2.41971 0.03911,3.69658c0.06235,-0.06383 0.13186,-0.12422 0.20928,-0.17887c0.02683,-0.94998 0.03579,-1.91948 0.03492,-2.92326v-0.25c0,0 0,-0.23402 0.08558,-0.53091l0.00002,-0.00007c-0.06418,-0.26502 -0.17201,-0.49279 -0.36891,-0.64576zM286.47381,133.66831l0.0323,-0.00538c-0.0173,-0.04572 -0.03403,-0.09171 -0.05015,-0.13797c-0.20376,-0.58492 0.16437,-4.14146 0.02978,-4.79248c-0.61938,-2.99588 -1.36556,-5.12385 -1.36907,-8.35187v-1.33333c0,0 0,-0.11191 0.0283,-0.27914c-0.5426,-0.03768 -1.06019,-0.04983 -1.49497,-0.04314c0,0 -0.06586,0 -0.17202,-0.01277c-0.10661,-0.0083 -0.17118,-0.02121 -0.17118,-0.02121l-1.59616,-0.35751c-1.94423,-0.88676 -3.15058,-0.59296 -5.30167,-0.37777c-4.28994,0.85962 -8.51408,0.7686 -12.81095,1.25803c-4.30225,0.49004 -8.42966,2.25173 -12.75707,2.75079c-5.12706,0.59128 -10.56302,0.31415 -15.87824,0.12936c0.90703,0.84623 1.89216,1.62889 2.99095,2.3199c0.51361,0.23901 0.76056,0.60168 0.86936,0.95952c0.14425,0.34571 0.18473,0.78343 -0.06028,1.29583l-0.23791,0.70577c-1.91968,4.69988 -5.71388,7.22393 -8.42571,11.33117c-0.70559,1.06867 -1.32477,2.22685 -1.93341,3.40153c-0.55479,1.93048 -1.45502,3.36825 -2.50176,4.73904c0.15009,0.25815 0.23605,0.55821 0.23605,0.87834c0,0.35038 -0.10297,0.6767 -0.2803,0.95038l-1.8407,2.94511l-0.2844,-0.17775c-0.63591,1.41255 -1.30497,2.80746 -2.07525,4.15064c-0.19253,0.33572 -0.40738,0.64249 -0.63689,0.92972c-1.87895,3.36983 -3.91822,6.68804 -5.62895,10.09741l-0.10641,0.08246l0.03655,0.02559l-0.23479,0.33543c-1.28606,3.31844 -2.5736,6.6082 -4.12252,9.67106c-1.85611,3.67027 -1.10429,6.78768 -4.83031,9.26939c-0.25198,0.22936 -0.55435,0.34692 -0.79812,0.40719c-0.22438,0.06374 -0.51718,0.10964 -0.82424,0.05644l-1.46687,-0.02705c-1.0172,-0.23737 -2.14267,-0.19744 -3.05162,-0.71209c-1.46248,-0.82805 -2.18375,-2.37302 -2.85776,-3.94728c-0.34314,-0.22873 -0.66205,-0.49626 -0.95005,-0.78535c-1.24931,-1.2541 -1.90944,-2.66861 -2.39718,-4.17645c-0.84814,-0.86329 -1.59044,-1.81771 -1.60339,-3.19277c-0.00127,-0.13502 0.00444,-0.26899 0.01625,-0.40206h-0.06306v-0.53374c-0.0505,-0.12217 -0.09675,-0.23969 -0.13858,-0.35179c-3.3442,-8.96357 1.47107,-17.1746 3.17256,-25.70767c0,0 0.01192,-0.05958 0.04241,-0.15431c0.02621,-0.096 0.04877,-0.15242 0.04877,-0.15242l0.51634,-1.28942c0.53591,-1.16198 1.30227,-2.15088 2.18001,-3.05917l0.01829,-0.05487l0.0264,0.0088c0.01328,-0.01364 0.02658,-0.02726 0.03991,-0.04087c0.01012,-0.06965 0.02157,-0.13919 0.03444,-0.20864c0.1821,-0.98274 0.67199,-1.72397 1.31484,-2.33923c0.03463,-0.05963 0.06924,-0.11927 0.10387,-0.1789c1.25491,-1.27449 2.95505,-2.56259 3.89865,-4.10219c0.71018,-1.15876 0.80271,-2.62908 1.52073,-3.78299c1.35801,-2.18243 3.99123,-3.68223 5.61801,-5.66206c4.22767,-5.14519 7.19063,-11.09848 10.60274,-16.79089c0,0 0.59016,-0.98359 1.6112,-0.88034c0.98247,-0.10956 1.5955,0.80999 1.5955,0.80999l0.2864,0.4345c0.25595,0.00728 0.54224,0.08137 0.85738,0.25645c0.95938,0.53299 0.98284,1.33338 0.86695,1.85616c2.03086,2.28301 3.72087,4.82348 5.60234,7.20115c6.18908,0.13671 12.71533,0.70763 18.73988,-0.01708c4.31832,-0.51946 8.43815,-2.24673 12.74293,-2.74921c4.2579,-0.49702 8.4372,-0.39319 12.68905,-1.24197c2.80985,-0.2809 4.57607,-0.45275 7.19833,0.62223l0.7011,0.11052c1.76623,0.03101 5.14498,0.29572 6.5426,1.26747c1.86424,1.29618 1.62108,2.60251 2.22537,4.42183c0.99373,2.99177 1.43109,7.20883 0.80584,10.41055c-0.50522,2.58706 -2.64049,4.92902 -3.81531,7.24689l-0.45566,1.59481c-0.19637,0.75171 -0.88005,1.30644 -1.6933,1.30644c-0.9665,0 -1.75,-0.7835 -1.75,-1.75v-2h0.105c-0.02227,-0.15912 -0.03528,-0.31982 -0.03719,-0.48244c-0.00947,-0.80617 0.48564,-1.48263 0.9909,-2.16508z" fill="#30152f"></path><path d="M287.95,126.38062c0,3.24158 0.24301,6.10418 0.95319,9.2646c0.59621,2.65323 2.16443,4.45231 2.37574,7.27801c0.24539,3.28135 -0.13081,6.47593 0.62823,9.73921c0.86933,3.73743 2.30963,7.30437 3.01448,11.07106c0.43122,2.30441 0.0764,4.36902 0.969,6.52853c0.57839,4.02262 1.62374,7.75977 2.6613,11.64704c0.8989,3.36777 0.31701,6.77219 1.59818,10.13518c0.46947,1.23233 1.5655,2.16246 2.02544,3.39838c0.84309,2.26551 1.67788,4.28929 2.26963,6.40354c0.57592,0.37155 0.77081,1.05367 0.77081,1.05367l0.69353,2.43992c0.24288,1.58579 0.04607,3.22011 0.20407,4.81314c0.50247,0.52354 0.96914,1.09531 1.32512,1.79217c1.78668,3.49758 3.14063,7.03607 3.8798,10.74407c0.06226,0.1144 0.11773,0.2325 0.16494,0.3551c0.05422,0.14082 0.08754,0.60579 0.10755,1.20389c0.23495,1.56414 0.35899,3.16076 0.35899,4.79914l-0.36731,2.00987c0,0 -0.17585,0.87922 -0.90514,1.25311c-0.36068,1.10733 -0.83572,2.14133 -1.47856,2.87167c-1.68255,1.91155 -4.47526,2.14047 -6.59779,3.1204c-0.75693,0.34946 -1.31612,1.0647 -2.09099,1.37233c-2.92564,1.16149 -7.89512,0.63138 -10.92386,0.10003c-3.92573,-0.68872 -6.3939,-4.46216 -10.09835,-3.46269c-0.59587,2.38364 -1.64221,4.68833 -3.2624,6.50459c-1.06678,1.19588 -2.66191,1.80201 -3.85849,2.86801c-1.13935,1.01502 -2.08863,2.46648 -3.77688,2.7353c-2.85897,0.45523 -4.57447,-0.62885 -7.24165,-0.96571c-0.73924,-0.09337 -3.90388,0.14315 -4.55065,-0.03704c-0.71892,-0.20028 -2.93959,-1.42973 -4.43479,-2.19683c-2.51935,-0.31443 -4.99022,-0.75761 -7.63469,-1.48775c-0.98116,-0.2709 -4.40344,-0.51927 -4.90309,-0.75154c-0.6595,-0.30657 -1.19994,-0.80241 -1.73022,-1.31439l-0.08105,0.06332c-2.43812,0.69502 -4.84084,1.51549 -7.24801,2.30658c-1.21254,0.39848 -2.19332,1.39067 -3.43229,1.69726c-4.04342,1.00058 -9.73367,-0.25201 -13.76581,-0.96218c-3.6962,-0.651 -7.90779,-1.18999 -10.45433,-4.36774c-1.39974,-1.7467 -1.23593,-4.75709 -1.08581,-7.27325c-0.60928,0 -1.21857,0 -1.82785,0c-5.02152,0 -11.89037,0.17715 -14.31214,-5.48759c-0.48798,-1.14144 -0.33709,-3.64613 -0.09182,-5.64206c0.0731,-4.76493 0.54847,-9.61828 3.48573,-13.43711l0.08428,-0.41694c1.85421,-3.00628 4.87249,-5.79743 7.24322,-8.49573c0.22992,-1.29404 1.09355,-2.39633 1.76876,-3.52393c0.66259,-1.10654 1.23832,-2.22795 1.83843,-3.35715c1.41196,-5.87766 3.57217,-11.53519 6.86776,-16.70392c1.1473,-1.79939 2.87448,-3.23772 3.91597,-5.19601c0.75649,-1.42241 1.27122,-2.96827 2.00619,-4.39975c0.36025,-1.0441 0.72206,-2.07713 1.09148,-3.09076c1.43039,-1.1918 2.48512,-2.45674 3.32411,-3.79025c0.03015,-0.11659 0.06105,-0.23228 0.09277,-0.34702c0.72216,-2.61198 1.89728,-5.09475 3.27199,-7.48995c0.25144,-0.67826 0.5164,-1.36784 0.80788,-2.06838c3.3385,-8.02373 6.23042,-16.88911 11.14932,-24.27419c0,0 0.63391,-0.95087 1.6456,-0.80354c0.7408,-1.685 1.50615,-3.36584 3.04364,-4.58665c1.61015,-1.2785 3.01567,-1.3503 4.86743,-1.96166c5.23458,-1.72821 12.35348,-1.86591 17.53166,0.02411c2.95258,1.18573 5.42649,2.38304 8.04649,4.20414c1.31907,0.91685 2.66136,2.94411 4.24012,3.44518c2.16058,0.68573 3.4247,-0.10641 5.4675,-0.41159c0.16267,-0.0243 3.35478,-0.02415 4.69763,-0.02314c-0.63815,-2.42271 -1.14657,-4.85145 -1.16731,-7.24945v-1c0,0 0,-1.75 1.75,-1.75c1.75,0 1.75,1.75 1.75,1.75v1c-0.03003,2.72846 0.95362,3.92327 1.61586,6.58137c0.00018,0.00073 0.00036,0.00145 0.00054,0.00218c1.71693,0.0219 1.71693,1.74979 1.71693,1.74979zM290.20824,159.54016c0.03699,0.12052 0.07931,0.23879 0.12613,0.35517c-0.12,-0.39704 -0.24223,-0.79356 -0.36473,-1.19004c0.07404,0.27914 0.15344,0.55746 0.2386,0.83487z" fill="#316a70"></path><path d="M251.57035,149.8182l-0.25383,-1.5932c0,-0.82314 -0.01914,-4.21989 0.09342,-4.59574c1.85101,-6.18069 10.31003,-8.96464 15.46077,-7.60744c1.14509,0.30173 3.41946,1.87547 4.09379,3.02284c0.05981,0.10176 0.09204,0.21575 0.10845,0.33671c1.99431,-2.92485 3.60519,-3.58118 7.05796,-3.40636c0.76911,0.03894 1.64788,-0.24674 2.30225,0.20707c0.79475,0.55117 1.10187,1.69053 1.6528,2.5358c0.11511,3.87083 0.38651,8.66246 -1.19461,12.24166c-2.94043,6.65631 -7.31637,12.79578 -7.44982,20.40886c0.0455,0.2747 0.02567,0.5984 -0.10402,0.97524c-0.0885,0.29574 -0.25461,0.63432 -0.56642,0.86343c-0.30593,0.23882 -0.64861,0.28563 -0.92691,0.26772c-0.3779,-0.00548 -0.66271,-0.11444 -0.87737,-0.27556l-0.98589,-0.45479c-1.73515,-1.14029 -2.64232,-2.54149 -4.20204,-3.88425c-1.20808,-1.04003 -2.77565,-1.46405 -3.99947,-2.48077c-1.90892,-1.58588 -2.40125,-3.86991 -3.69714,-5.89632c-1.07101,-1.67476 -2.78195,-3.088 -3.66314,-4.90646c-0.70558,-1.45604 -1.20168,-2.88948 -1.54235,-4.34747c-1.07367,-0.10898 -1.30641,-1.41096 -1.30641,-1.41096z" fill="#30152f"></path><path d="M223.99835,83.91961c1.58369,-1.16491 3.46341,-2.32416 5.4293,-2.30409c0.68909,0.00704 1.60392,0.29016 2.48948,0.63011c-1.44696,1.09669 -2.76891,2.45673 -3.81649,3.93605c0.10782,0.19589 0.17955,0.43465 0.18836,0.72523c1.22386,-0.10929 2.54247,-0.33134 3.35305,-0.27286c2.9074,0.20979 5.68642,0.97252 8.49971,1.67815l2.04148,0.1103c1.89184,0.80448 3.58139,0.36396 5.57961,0.97519c1.96926,0.60238 3.73753,1.82133 5.74937,2.26106c3.60674,0.78832 8.33452,-0.02808 12.02109,-0.02808c0,0 0.07599,0 0.1963,0.01584l0.91697,0.07397c1.41303,-0.44445 2.49663,-1.6063 3.82396,-2.26387c0.66481,-0.32935 1.48473,-0.17125 2.18826,-0.40682c3.87585,-1.29782 6.61482,-3.69274 10.86638,-3.75234c0.00271,-0.00004 0.00542,-0.00008 0.00814,-0.00011c0,0 0.61405,0 1.11467,0.36373l0.4561,0.14883c4.49439,4.49439 14.65617,9.06932 9.55687,17.2008c-0.94778,1.51136 -2.27712,2.94242 -3.43277,4.42837c2.33895,0.87002 4.40813,2.2359 4.72029,5.20221c0.00232,0.02204 -1.33741,4.03983 -1.42163,4.29279c0,0 -0.01464,0.04392 -0.0463,0.1151c-0.02794,0.07272 -0.04864,0.11413 -0.04864,0.11413l-0.50572,0.83841c-1.39502,7.74554 -9.50269,9.00246 -15.80734,11.02811c-2.60769,0.83784 -5.72576,3.0562 -8.13634,4.37556c-2.86984,0.0687 -6.61323,0.64761 -9.36965,-0.37614c-3.11751,-1.15786 -5.96127,-3.37438 -9.21869,-4.29689c-4.25277,-1.20439 -8.77201,-1.14592 -12.99904,-2.33307c-3.10021,-0.87068 -6.07488,-3.7873 -8.50022,-5.87966c-0.17144,-0.12739 -0.30574,-0.27387 -0.40289,-0.39898c-0.09836,-0.1253 -0.20859,-0.2923 -0.29075,-0.491l-0.2743,-0.5486c-0.38589,-0.20569 -0.74431,-0.42192 -1.07911,-0.65327l-0.20389,0.087c-0.01808,-0.09105 -0.03679,-0.18215 -0.05613,-0.27327c-0.69085,-0.5132 -1.278,-1.10132 -1.79921,-1.80942c-0.16579,0.30862 -0.33908,0.61117 -0.52113,0.90612c-0.21316,-0.9255 -0.47707,-1.83443 -0.76222,-2.75215c-0.11358,0.04848 -0.22048,0.09399 -0.31876,0.13577c-0.771,-3.65915 -2.10044,-7.14806 -2.95864,-10.77828c-0.78592,-3.32445 -0.27787,-7.16945 -0.27787,-10.56292c0,-3.10117 -0.00948,-5.74187 0.93515,-8.03744c0.70749,-0.44569 1.41496,-0.90996 2.1132,-1.42356z" fill="#ad4eab"></path><path d="M187.36622,117.74331c3.11804,-2.77159 5.96317,-3.94439 8.49849,-7.49385c3.49905,-3.49094 7.59806,-5.95531 11.76916,-8.37c2.8815,-1.66813 5.19011,-3.72671 7.85844,-5.25165c1.96253,-1.80814 3.96566,-3.60765 6.03412,-5.2374l-0.14831,-0.13676l1.33569,-1.44845c-0.06422,-0.53012 0.01949,-1.40146 1.11558,-1.81682l0.00002,-0.00006c1.63644,-0.62013 2.25657,1.01631 2.25657,1.01631l0.11203,0.36282c1.34968,2.33216 1.8225,5.08405 3.15033,7.36923c1.55587,2.67764 4.79587,4.19235 5.34907,7.57709c0.20125,1.23133 -0.19568,2.58634 -0.85894,3.6431c-0.80673,1.28533 -2.45333,1.86848 -4.06903,2.50831c0.06385,0.06884 0.12662,0.14579 0.18792,0.23161c1.01717,1.42403 -0.40687,2.4412 -0.40687,2.4412c-0.81872,0.58451 -1.60238,1.19924 -2.3963,1.7914c0.3888,-0.02405 0.83602,0.09991 1.28323,0.54713c1.23744,1.23744 0,2.47487 0,2.47487l-2.23744,1.51256c-3.08115,0 -6.68785,0.30066 -10.0663,1.10996c-2.89887,2.85628 -5.66837,5.86472 -8.79512,8.64808c-2.25414,2.00658 -5.07539,3.38134 -7.54507,5.0618c-2.07746,1.41358 -3.08958,4.04743 -4.75521,5.59761c-0.11877,0.41568 -0.24842,0.82391 -0.37993,1.21066l-0.12877,0.10926l0.05715,0.03226l-1.27398,2.25723c-0.01654,0.02981 -0.03396,0.05914 -0.05223,0.08797c0.08052,0.43499 -0.00815,0.78391 -0.16524,1.05702c-0.31365,0.66829 -0.98767,0.85449 -1.35748,0.90619l-1.46906,0.34667c-0.75942,-0.13731 -1.53421,-0.26894 -2.32103,-0.39155l-0.01441,-0.00026c-0.18762,0.00091 -0.37246,-0.02858 -0.54778,-0.08546c-8.06801,-1.20293 -17.30215,-1.38824 -24.18759,2.97103l-0.38582,0.85665c-0.18392,0.40836 -0.52362,0.74655 -0.97551,0.9178c-0.90378,0.34249 -1.91408,-0.11253 -2.25657,-1.01631c-0.10416,-0.27486 -0.13456,-0.55956 -0.101,-0.83233l0.29829,-2.93108c0,0 0.05087,-0.49988 0.36595,-0.93667l0.0734,-0.48694c3.20092,-2.93641 6.22273,-5.96511 9.4339,-8.91332c0.07187,-0.06922 0.14391,-0.13803 0.21611,-0.20646c0.04338,-0.06364 0.08995,-0.12497 0.14067,-0.1833c1.98113,-2.27853 3.9421,-5.07066 6.65497,-6.6632c0.43549,-0.25565 0.88524,-0.48085 1.3413,-0.69392c1.76199,-1.57048 3.58714,-3.07136 5.53407,-4.47407c0.16122,-0.24568 0.32025,-0.49375 0.47912,-0.74275l0.09146,-0.30212c0.09892,-0.10561 0.19854,-0.20872 0.29882,-0.30947c0.84541,-1.31911 1.73226,-2.63107 2.95911,-3.72161zM226.07533,115.70801c-0.12645,0.08738 -0.25365,0.17365 -0.38176,0.25859c0.16992,-0.00177 0.33876,-0.00265 0.50643,-0.00265z" fill-opacity="0.97647" fill="#ad4eac"></path><path d="M247.51091,90.36551l0.10576,0.01511c-0.00026,0.10821 -0.00164,0.21444 -0.0041,0.31882c0.00137,0.00484 0.00273,0.00968 0.0041,0.01452c0.68563,2.43811 0.11226,5.69744 -1.34224,8.28641c-0.01999,0.1332 -0.05844,0.26166 -0.12431,0.38328c-0.27934,0.51581 -0.66616,0.95422 -1.08904,1.36667c-0.43765,0.51129 -0.91894,0.96543 -1.43896,1.34302c-0.06262,0.06303 -0.12426,0.12677 -0.18468,0.19139c0,0 -0.45325,0.45325 -1.08545,0.53681c-0.22315,0.09593 -0.45153,0.17817 -0.68486,0.24558c-1.88406,0.54439 -4.54158,0.13909 -6.61861,0.07238c-0.66908,0.36779 -1.39504,0.31168 -2.10829,0.07609c-1.98432,0.155 -4.55608,0.40982 -5.83165,-0.25769c-1.05729,-0.55328 -2.42608,-2.55992 -3.04506,-4.59032c-0.92513,-1.04434 -1.42374,-2.48575 -1.27579,-4.77769c0.12966,-2.00848 0.61845,-3.48517 1.34845,-4.78833c-0.12268,-0.62776 0.16523,-1.20357 0.16523,-1.20357l0.33333,-0.66667c0.67637,-1.35038 1.63456,-4.84115 2.69803,-5.82396c1.07775,-0.99601 3.10329,-1.85467 4.95384,-2.25169c4.18524,-1.89156 9.3863,0.12477 10.90714,4.42832c-0.04514,-0.99334 -0.07709,-1.96597 -0.07709,-2.90338c0,0 0,-1.75 1.75,-1.75c1.75,0 1.75,1.75 1.75,1.75c0,2.6766 0.26511,5.67015 0.35543,8.62004c0.20141,0.44725 0.38762,0.89987 0.53881,1.36485z" fill-opacity="0.94902" fill="#e6c1e4"></path><path d="M222.12305,90.18277c-0.54944,1.92305 -2.47249,1.37361 -2.47249,1.37361c-0.96397,-0.30823 -1.92795,-0.61647 -2.89192,-0.9247l-0.27127,-0.56157l-0.18244,0.14595l-1.32338,-1.65423c-0.28022,-0.34419 -0.44821,-0.78339 -0.44821,-1.26183c0,-1.10457 0.89543,-2 2,-2h1.94474c-0.09256,-0.48215 -0.16561,-0.94431 -0.25084,-1.33788c0,0 -0.19537,-1.17222 0.61868,-1.86007l-0.06013,-0.05451c0,0 -1.37449,-1.37449 -0.05832,-2.76842c0.14723,-0.57969 0.35743,-1.11319 0.80722,-1.47104c0.1894,-0.15069 0.397,-0.28311 0.61759,-0.39683c-2.15668,-2.1288 -3.92381,-3.19189 0.06934,-5.61169c-1.02764,-0.87203 -2.49988,-1.59772 -2.35305,-2.91961c0.15091,-1.3586 1.92581,-1.94048 2.88872,-2.91072l0.85694,0.35176c0.67036,-0.20111 1.34072,-0.40222 2.01108,-0.60332l1.21237,-0.79933c0,0 1.71499,-1.02899 2.74398,0.68599c1.02899,1.71499 -0.68599,2.74398 -0.68599,2.74398l-1.67645,0.94903c-0.05896,0.34435 -0.23537,0.71395 -0.60497,1.08354l-0.00002,-0.00001c-0.07492,0.07492 -0.14984,0.1419 -0.22455,0.20158c0.10641,0.17196 0.20834,0.36107 0.30323,0.56879c0.02912,0.06375 0.05716,0.12827 0.08414,0.19354c0.33506,0.2445 0.62096,0.64435 0.72908,1.29308c0.08922,0.53532 0.00897,0.9496 -0.15535,1.26909c0.11888,1.31204 0.05731,2.72204 -0.01988,4.07101l0.4598,3.87735c-0.17862,-0.04967 -0.37833,-0.13509 -0.58966,-0.24053c0.00144,1.22614 -0.00076,3.68689 -0.05452,3.81138c-0.5691,1.31784 -1.10783,3.22276 -2.51745,3.49393c-0.16927,0.03256 -0.33133,0.05651 -0.48653,0.07238c0.10095,0.3206 0.11683,0.71317 -0.01949,1.1903z" fill="#e5c1e4"></path><path d="M258.1013,31.11891c0.84822,-0.36441 1.84358,-0.10149 2.76537,-0.15224c0,0 2,0 2,2c0,0.48916 -0.11964,0.85868 -0.3004,1.13783c0.01995,0.09516 0.03524,0.18959 0.04645,0.28292c0.1518,-0.41818 0.32662,-0.76962 0.54494,-1.00904c0.99436,-1.09041 2.34993,-0.93586 3.5249,-1.40379c0.55417,1.35458 1.39644,3.46363 1.87888,5.69361c1.74738,-3.01515 3.64946,-2.61053 4.02187,3.71675c0.10412,1.76891 -0.14893,3.09449 -0.63978,4.06525l0.42807,0.57159c0,0 1.21006,1.90403 0,3.80805c-1.21006,1.90403 -2.42013,0 -2.42013,0l-1.24744,-2.12964c-1.75268,0.25113 -3.74109,-0.30929 -5.16122,-1.08517c-0.18727,-0.00142 -0.39452,-0.05378 -0.62324,-0.17375c-0.02589,-0.01358 -0.05122,-0.02759 -0.07602,-0.04202c-0.26362,-0.14175 -0.56006,-0.39502 -0.77781,-0.84753c-0.04994,-0.04193 -0.10022,-0.08377 -0.1507,-0.12566l-0.03438,0.02164l-1.61683,1.27204c-0.23781,0.19701 -0.50868,0.3085 -0.7961,0.3085c-0.88064,0 -1.60592,-1.04669 -1.70078,-2.39257c-0.80728,0.72934 -1.75589,1.06887 -2.72151,1.03704c-0.81092,-0.02673 -1.89037,0.28763 -2.60222,-0.19342c-0.31783,-0.04694 -0.66999,-0.19154 -1.07136,-0.4681c-0.73831,-0.50872 -1.10282,-1.78795 -1.54569,-2.90568c-0.29264,0.16898 -0.57728,0.34335 -0.8501,0.52523l-1.97725,1.31817c-0.32191,0.22145 -0.71189,0.35107 -1.13215,0.35107c-1.10457,0 -2,-0.89543 -2,-2c0,-0.10784 0.00854,-0.21369 0.02497,-0.3169l0.32847,-2.29927l0.10622,0.01517c0.0307,-0.27052 0.08834,-0.53716 0.18167,-0.79867c0.79329,-2.22287 5.48316,-2.86063 7.39289,-3.49769l0.76579,-0.70263c0,0 0.40292,-0.30219 0.95601,-0.40108c1.26561,-1.96327 2.72603,-3.4197 4.07531,-2.98041c0.13241,-0.07408 0.26678,-0.14094 0.40331,-0.1996zM265.28512,39.23852c-0.00757,0.02813 -0.01535,0.05628 -0.02331,0.08444c0.01241,0.02021 0.02463,0.04072 0.03664,0.06154c-0.00447,-0.04765 -0.00895,-0.0963 -0.01333,-0.14597z" fill="#e5c1e4"></path><path d="M211.72362,255.22388c0.74278,1.85695 -1.11417,2.59973 -1.11417,2.59973l-0.62059,-0.29586c-0.33333,0.66667 -0.66667,1.33333 -1,2c0,0 -0.89443,1.78885 -2.68328,0.89443c-1.78885,-0.89443 -0.89443,-2.68328 -0.89443,-2.68328c0.33333,-0.66667 0.66667,-1.33333 1,-2l2.45273,-1.47304c-0.34183,-0.00895 -0.68066,-0.01143 -0.99721,0.03414c0,0 -2,0 -2,-2c0,-2 2,-2 2,-2c1.17063,0.78449 0.33883,-0.52091 0.33333,-2l-0.41421,0.41421c0,0 -1.41421,-1.41421 0,-2.82843c1.41421,-1.41421 2.82843,0 2.82843,0l1.58579,2.41421c-0.00478,1.518 0.19604,4.4299 -1.04058,5.52604c-0.13742,0.12181 -0.28954,0.21195 -0.45268,0.27827c0.38969,0.16322 0.76656,0.49376 1.01689,1.11958z" fill="#e5c1e4"></path><path d="M247.95061,259.19507c-1.56174,-1.24939 -0.31235,-2.81113 -0.31235,-2.81113l2.02869,-2.21988c0.28879,-0.01989 0.57758,-0.03978 0.86638,-0.05966c0,-1.50096 0,-3.06803 0,-4.47106c0,0 0,-2 2,-2c2,0 2,2 2,2c0,2 0,4 0,6v0.33333c0,0 0,0.85204 -0.55613,1.44387c-0.29591,0.3149 -0.74928,0.55613 -1.44387,0.55613c-0.33027,0 -0.606,-0.05454 -0.8362,-0.1456c-0.09914,-0.01726 -0.19828,-0.03453 -0.29743,-0.05179l-0.63797,1.11345c0,0 -1.24939,1.56174 -2.81113,0.31235z" fill="#e5c1e4"></path></g><path d="" fill="#316a70" stroke-width="0.5"></path><g fill="none" stroke-width="0"><path d="M-34,360v-359h34v359z"></path><path d="M480,360v-359h34v359z"></path></g><g fill-opacity="0.23529" fill="#2f152f" stroke-width="0.5"><path d="M248.56061,246.54946c-0.49405,-0.38145 -0.96096,-0.80309 -1.40699,-1.25279l-1.70088,-0.49995c-0.09753,-0.08217 -1.02559,-0.91009 -1.86099,-1.56292c-0.02944,0.02172 -0.0596,0.04307 -0.09049,0.06403c-0.65097,0.52229 -1.38145,0.63683 -1.99976,0.5992c-1.10136,0.0371 -1.8321,-0.40887 -2.31141,-0.95054l-0.762,-0.50846c-0.03276,0.06922 -0.05374,0.10698 -0.05374,0.10698c-1.56126,2.80877 -2.84055,6.61379 -5.48985,8.63604c-2.01097,1.53501 -3.77831,2.07662 -5.51604,2.11467c0.03654,0.21397 0.06392,0.43749 0.08154,0.67095c0.1578,2.0904 -2.54394,3.37761 -4.14839,4.72684c-1.92179,1.6161 -4.78672,2.48097 -7.64799,2.47443c-0.05869,0.13191 -0.11798,0.26344 -0.17782,0.39461c-0.03757,1.67417 -0.22709,3.30838 -0.44965,4.16579c-1.08175,4.16739 -3.17007,7.68416 -4.97842,11.40379c1.19623,1.31339 0.56883,3.19561 0.56883,3.19561c-0.80914,2.42685 -3.44889,7.22837 -2.97726,10.45651c0.11989,0.0209 0.23883,0.04784 0.35715,0.07883c0.31949,2.75397 0.77323,5.34989 0.95355,8.10359c0.03314,0.50605 -0.03033,1.0646 -0.07698,1.61775c-0.72289,-0.19347 -1.48669,-0.45154 -2.26252,-0.76877l-0.34073,0.04259c-5.25013,1.47522 -7.03891,-2.16094 -7.65476,-6.26937c-1.08357,-1.82292 -1.47308,-3.89995 -0.66005,-6.13526c0.02115,-0.05815 0.04289,-0.11601 0.06521,-0.17359l-0.05031,-0.00559l0.329,-2.96103c0.07727,-0.79084 0.438,-1.49858 0.97927,-2.0203c1.2668,-3.77551 2.33504,-7.59616 3.95943,-11.24678c0.01993,-0.3159 0.03734,-0.63199 0.05203,-0.94828c0.1086,-2.33818 -0.33395,-7.17883 0.69938,-9.30851c0.12407,-0.2557 0.29511,-0.51427 0.5052,-0.77185c-0.38474,-0.7114 -0.75678,-1.4364 -1.21078,-2.07359c1.07559,-1.65729 2.14849,-3.11364 3.31281,-4.35154c0.01936,-0.32548 0.03165,-0.64729 0.02044,-0.95922c-0.10489,-2.91866 -0.44742,-7.29306 3.04298,-9.01755c1.01814,-0.50303 2.17751,0.0311 3.31945,0.50065c0.15474,-0.10855 0.31268,-0.21299 0.4742,-0.31282c0.96816,-0.59839 2.2753,-0.07228 3.41336,-0.08694c1.5667,-0.02019 3.13429,-0.04684 4.7001,-0.03923c1.27846,-1.08646 3.28287,-1.33945 4.60168,-2.14846c1.82988,-1.12252 3.25149,-2.41923 4.61044,-3.82824c-0.18622,-2.98976 2.27343,-6.80576 3.10871,-9.03316c0.92109,-1.84748 2.24434,-3.51103 2.91891,-5.46206c1.05603,-3.05429 1.60103,-6.47268 2.64361,-9.59993c0.36522,-1.09548 0.84159,-2.15862 1.27303,-3.23378c0.75767,-5.11582 -0.31728,-10.35219 0.25121,-15.46891c0.6604,-5.94393 2.09649,-11.53623 4.05312,-17.1845c0.5842,-0.68659 1.08628,-1.44281 1.52211,-2.24886c0.3842,-1.81638 0.79874,-3.58324 1.22995,-5.18546c0.58424,-2.1708 1.55556,-4.25302 1.87493,-6.47827c0,0 0.02137,-0.1389 0.0841,-0.35448c0.15572,-0.61898 0.51039,-1.43441 1.31815,-1.93798c0.4979,-0.33671 1.16573,-0.5455 2.05799,-0.45682c0.89537,0.04802 1.52369,0.35594 1.9646,0.76444c0.7218,0.62054 0.94835,1.48041 1.00814,2.11588c0.02922,0.22262 0.02922,0.36315 0.02922,0.36315l-0.05242,1.24804c-0.32795,1.79912 -0.67124,3.70949 -1.12134,5.60854c0.37302,0.20824 0.65451,0.47246 0.8665,0.75959c0.61299,0.73365 0.69108,1.60413 0.62895,2.2606c-0.00458,0.12209 -0.01345,0.19299 -0.01345,0.19299c-0.70451,5.6361 -1.23048,11.26472 -1.94171,16.86763c0.10695,1.98454 0.15453,3.91701 -0.04764,5.70209c-0.25222,2.22698 -1.05248,4.33744 -1.84015,6.45338c-0.75233,5.12498 -1.09539,10.19188 -2.62297,15.19791c-0.33894,1.11075 -0.808,2.16113 -1.3416,3.18026c0.02836,1.06303 0.15251,2.13439 0.15251,3.19562c0,4.07551 0,8.15102 0,12.22653c0.57082,0.79944 1.15325,1.6125 1.82442,2.38455c0.63721,0.22686 1.65824,0.75961 2.04049,1.91292c3.99896,2.95049 9.02947,2.22184 13.68314,2.23228c4.76531,-0.52657 7.0684,-2.45466 9.41509,-6.42839l0.54663,-1.11467c0,0 0.21348,-0.42696 0.64045,-0.87181c-0.04716,-0.98142 0.35955,-1.79486 0.35955,-1.79486l0.6186,-1.08661c0.02786,-1.25166 0.30426,-2.54287 0.38804,-3.78622c0.25221,-3.74292 0.78298,-7.43967 0.98855,-11.18678c0.18683,-3.40545 -0.6221,-6.45755 -0.98062,-9.75651c-0.40476,-3.72445 -0.49168,-7.66077 -0.42921,-11.61147c-0.11153,-0.48275 -0.19765,-0.97038 -0.24599,-1.46538c-0.45394,-4.64777 -0.67412,-9.36107 -0.68225,-14.05028c-0.09139,-0.68811 -0.0065,-1.53777 0.64078,-2.29158c0.35557,-0.51055 0.90837,-0.96546 1.7678,-1.14593c0.83574,-0.26971 1.5414,-0.149 2.10342,0.11787c0.96912,0.34515 1.46576,1.07866 1.72026,1.7398l1.49196,2.80904c0.02964,1.04376 0.03817,2.09543 0.03236,3.15282c0.52125,0.99252 0.38476,2.08446 0.38476,2.08446c-0.59142,4.63615 0.09047,8.44082 0.7468,12.79365c0.07448,0.25218 0.14208,0.50585 0.20016,0.76156c0.28422,1.25132 0.1335,2.57017 0.36581,3.83215c0.54594,2.96573 1.85069,5.76274 2.34454,8.73758c0.15152,0.91274 0.244,1.84574 0.30371,2.78943c0.60327,2.5833 1.12689,5.19588 1.91711,7.71625c0.97061,3.09572 1.2056,5.789 1.72669,8.88623c0.13699,0.81422 0.70529,1.64761 1.0858,2.45235l1.48791,0.55797c1.26919,0.4424 2.17989,1.6497 2.17989,3.06971c0,1.79493 -1.45507,3.25 -3.25,3.25c-0.12404,0 -0.24646,-0.00695 -0.36689,-0.02048l-3.28983,-0.32898l0.05109,-0.51095c-1.00773,0.08047 -2.00931,0.03801 -2.99114,-0.19485c-1.33324,-0.3162 -2.98285,-0.00776 -4.00678,-0.91828c-0.22028,-0.19589 -0.42879,-0.40527 -0.62424,-0.62389c-0.26144,0.70637 -0.67647,1.17328 -0.67647,1.17328c-3.32489,3.73972 -6.69531,7.49334 -9.94927,11.27487c-1.11757,1.29876 -2.56867,4.08667 -3.77534,5.09771c-0.58287,0.48837 -2.53766,1.28259 -4.39241,1.89309c0.09134,0.13827 0.17877,0.28959 0.26149,0.45504c1.45344,2.90689 -1.45344,4.36033 -1.45344,4.36033c-0.94034,0.46851 -1.85725,0.98733 -2.82103,1.40552c-0.29898,0.12973 -0.67254,0.18311 -1.05477,0.22406c0.00569,0.08301 0.00569,0.1302 0.00569,0.1302c0,1.968 -0.16648,4.20608 -0.29254,6.5072c0.10658,0.27298 0.1704,0.5518 0.14696,0.84373l0.69753,2.79013c0.04095,0.14982 0.07145,0.30395 0.09066,0.46156c0.78882,-0.56496 2.03661,-1.00026 3.57683,0.02655c2.70416,1.80278 0.90139,4.50694 0.90139,4.50694l-0.81259,0.60034c-0.28122,2.20449 0.25923,5.25266 -0.2532,7.38593c0.67816,0.0552 1.32488,0.31377 1.97596,0.55777c0.25728,-0.08954 0.51649,-0.17185 0.77782,-0.24576c2.81603,1.93937 3.47517,4.34953 4.07606,7.54723c-1.41234,-0.10571 -2.8663,-0.34033 -4.22976,-0.61008c-1.53129,0.71548 -3.03445,1.72992 -4.4299,2.50409c-0.43484,0.3752 -1.04033,0.65338 -1.88342,0.7006c-0.59487,0.07267 -1.32948,0.02203 -2.00457,-0.41765c-0.69517,-0.40718 -1.069,-1.04159 -1.27003,-1.60616c-0.31969,-0.74023 -0.35415,-1.38086 -0.23374,-1.92188c0.01165,-4.1431 -1.27396,-5.80865 -2.53373,-9.71006c-1.0627,-3.29109 -1.19709,-7.12209 -1.10354,-10.93546c-0.41717,-0.55772 -0.35138,-1.65171 -0.5579,-2.38033c-0.01115,-0.03935 -0.02217,-0.07863 -0.03305,-0.11784c-0.63993,-1.62024 -1.13118,-3.5558 -1.13137,-5.36866c-0.05763,-0.25266 -0.11916,-0.50451 -0.18621,-0.75595c-0.87365,-0.45234 -1.79725,-0.99242 -2.8756,-1.51105c-0.71899,-5.61264 -1.45204,-10.56854 2.49123,-15.24498c0.27284,-0.32357 0.54548,-0.61997 0.81848,-0.89044c-0.77654,-0.40975 -1.53671,-0.89407 -2.27785,-1.4663z"></path><path d="M234.82839,166.37822c-2.32142,3.15166 -3.40622,5.78765 -4.84909,9.37132l-0.60985,2.43941c-0.2801,1.23427 -1.26268,2.20172 -2.50517,2.45977c-0.13771,0.24648 -0.2749,0.49509 -0.41133,0.74552c-0.0005,0.00106 -0.001,0.00212 -0.0015,0.00317c-1.41231,2.9852 -2.03428,6.71619 -3.2346,9.77799c-1.0659,2.71891 -2.19439,5.56109 -3.36786,8.35909l-0.27258,1.23999c-1.85064,4.92556 -4.45525,9.73034 -5.92759,14.78421c-0.9154,3.14213 -1.98419,6.13682 -3.03649,9.17609c-0.00973,3.71392 0.27899,7.46745 -0.1686,11.1005c-0.17754,1.44106 0.14958,3.23661 -0.87289,4.2675c-1.53437,1.547 -3.85653,3.13239 -5.9793,2.64111c-2.65788,-0.61512 -4.2643,-6.20257 -4.31276,-9.52786c-0.77157,0.36168 -2.53413,0.9041 -3.89534,-0.80934c-0.04939,-0.04523 -0.09879,-0.09251 -0.1482,-0.14192c-2.2981,-2.2981 0,-4.59619 0,-4.59619c2.37702,-2.37702 4.58693,-5.04147 6.61845,-7.88808c1.66153,-3.85786 3.72169,-7.21682 5.92138,-10.73335c0.41409,-1.55464 0.83701,-3.10639 1.39358,-4.58575c2.14935,-5.71287 5.01826,-11.34389 7.34301,-17.02473c1.77004,-4.32532 3.04481,-10.53599 6.18703,-14.05976c0.03483,-0.03906 0.07003,-0.07768 0.10559,-0.11589l-0.02695,-0.01685l1.63685,-2.61895c0.10373,-0.17217 0.22296,-0.33394 0.35578,-0.48337c0.5463,-1.9406 1.21962,-3.94608 1.78947,-5.96663c-2.13914,1.5478 -4.09817,3.34443 -5.63728,5.43492c-0.32731,0.99519 -0.65417,1.99276 -0.9571,3.00411c-0.53086,1.53356 -0.85744,3.15389 -1.59257,4.60067c-1.47547,2.90381 -4.66559,5.01595 -6.39587,7.77405c-2.6512,4.22606 -5.49961,9.18709 -7.42042,13.83788c-0.39286,0.95122 -0.30002,2.08533 -0.80971,2.97941c-1.70003,2.98217 -3.28885,3.23837 -5.13629,5.9026c-1.01449,1.46302 -1.37186,3.2945 -2.24228,4.84756c-2.0068,3.58066 -3.75705,7.18643 -5.59441,10.86368c0,0 -1.45344,2.90689 -4.36033,1.45344c-2.90689,-1.45344 -1.45344,-4.36033 -1.45344,-4.36033c0.6473,-1.29367 1.26876,-2.64096 1.88712,-4.00942c-0.14854,-0.3723 -0.23023,-0.77851 -0.23023,-1.2038c0,-0.4802 0.10414,-0.93608 0.29108,-1.34627l0.94479,-2.20451c0.35053,-0.96245 0.73012,-1.90398 1.13388,-2.82835c0.18559,-0.77572 0.59011,-1.58111 1.10725,-2.37961c3.2031,-6.49981 7.45194,-12.27151 10.89288,-18.74707c1.5537,-2.92393 2.30858,-6.4627 4.12975,-9.22566c1.82772,-2.77291 4.15421,-4.95506 5.83942,-7.88158c0.03458,-0.06005 0.27162,-0.50815 0.63106,-1.18008c-0.68055,-1.32738 -0.04067,-2.82044 -0.04067,-2.82044c1.62351,-3.78718 3.58561,-7.1759 5.40649,-10.82543c0.91201,-1.82791 1.4039,-3.8683 2.48278,-5.60296c0.52503,-0.84415 1.38444,-1.46617 1.83007,-2.3548c1.62521,-3.24085 1.78338,-7.30529 3.29571,-10.58471c0.91997,-1.99492 2.48948,-3.67592 3.23256,-5.74326c0.39229,-1.0914 0.35237,-2.36562 0.98693,-3.33639c0.22476,-0.34384 0.60994,-0.75668 1.09151,-1.19116c-0.86688,-1.55385 -1.46506,-3.22929 -1.82702,-4.97212l-0.1354,0.36554c0,0 -1.14115,3.04307 -4.18422,1.90192l0.00006,0.00002c-3.04307,-1.14115 -1.90192,-4.18422 -1.90192,-4.18422l1.10119,-2.90676c1.53265,-2.6963 2.5382,-5.70268 4.17727,-8.32739c0.24635,-0.39449 0.45006,-0.87537 0.67263,-1.33601c-0.04463,-0.04202 -0.08984,-0.08374 -0.13558,-0.12518l-2.13278,-0.2666c-1.62535,-0.17928 -2.88966,-1.55712 -2.88966,-3.23025c0,-0.40101 0.07263,-0.78506 0.20545,-1.1397c-2.18896,0.98426 -4.36817,2.03614 -6.52145,3.05624c-1.53044,0.72503 -3.13329,2.05721 -4.88188,2.39886c-1.26564,1.11488 -2.46619,2.31787 -3.91824,3.16072c-2.53632,1.47221 -5.9143,2.3491 -8.18596,4.32523c-3.29913,2.86993 -4.86888,6.8289 -8.55889,9.50996l-1.36634,0.71751c-2.55511,2.29982 -2.84458,4.01244 -4.86609,6.84334c-1.69174,2.3691 -3.86283,4.28798 -5.66628,6.56988l0.41312,0.15492c1.26919,0.4424 2.17989,1.6497 2.17989,3.06971c0,1.79493 -1.45507,3.25 -3.25,3.25h-2.66667v-0.779l-0.60796,-0.22799c-0.07384,0.08141 -0.20993,0.01477 -0.36429,-0.07956l-1.02524,0.23747c-0.20035,0.3958 -0.30456,0.88669 -0.65134,1.14678c-1.06713,0.80037 -2.37128,1.22249 -3.55692,1.83374l-0.37427,-0.03489l0.03493,0.13973l-2.59596,0.64899c-0.27361,0.07479 -0.56162,0.11471 -0.85895,0.11471c-0.30877,0 -0.60747,-0.04306 -0.89045,-0.1235c-0.3063,0.31267 -0.61218,0.62496 -0.91779,0.93554c-0.04606,0.1287 -0.09185,0.25607 -0.13743,0.38196c0,0 -0.00305,0.00839 -0.00928,0.02414c-0.21204,0.64135 -0.64344,1.39509 -1.52118,1.80731c-0.53321,0.30308 -1.22179,0.46427 -2.09015,0.27216c-0.88173,-0.11621 -1.47377,-0.50301 -1.8713,-0.97006c-0.68402,-0.68736 -0.83187,-1.54316 -0.81196,-2.21835c-0.00047,-0.01692 -0.00047,-0.02585 -0.00047,-0.02585l0.00148,-0.00462c0.02368,-0.63715 0.19419,-1.10604 0.19419,-1.10604c1.52418,-4.17443 3.23496,-9.06294 6.31246,-12.40475c2.18799,-2.3759 5.24593,-3.55665 7.44377,-5.78269c0.72999,-0.73935 1.05229,-1.84452 1.85347,-2.50605c1.9431,-1.60442 4.58866,-2.26867 6.87943,-3.33914c2.36093,-2.68677 4.97711,-5.12662 7.40602,-7.28579c0,0 1.12077,-0.99624 2.51643,-0.87401c0.41853,-0.25243 0.82342,-0.52325 1.19813,-0.83439c1.42579,-1.18391 2.18762,-2.99669 3.39337,-4.40406c3.40487,-3.3889 7.11488,-4.79041 10.89589,-7.48301c0.32958,-0.23471 0.65618,-0.47111 0.98033,-0.70872l0.01166,-0.014l0.00348,0.0029c0.0461,-0.03381 0.09215,-0.06764 0.13816,-0.10149l0.02947,-0.09106c1.08693,-0.93782 2.06995,-2.0117 3.2608,-2.81345c0.46001,-0.3097 0.97192,-0.52978 1.49973,-0.72147c2.30957,-1.74123 4.64278,-3.40628 7.21991,-4.79569c0.64157,-0.51404 1.31372,-1.01062 2.0518,-1.47726c0.08407,-0.28866 0.16955,-0.57652 0.25597,-0.86378c-7.61942,0.52821 -6.5868,-2.27847 -4.0869,-4.95362l-0.78261,-0.3913l0.26458,-0.52916l-0.33566,-0.23976l1.64149,-2.29809c0.07368,-0.10592 0.1535,-0.20724 0.23895,-0.30346c-0.49967,-0.51311 -0.74472,-1.04625 -0.83432,-1.55366c-0.19097,-0.93267 0.15772,-1.75868 0.48843,-2.29214c0.13311,-0.22829 0.23892,-0.36055 0.23892,-0.36055l0.05404,-0.05472c0.11008,-0.13751 0.18569,-0.21312 0.18569,-0.21312c0.23955,-0.23955 0.48072,-0.47753 0.72277,-0.71468c-3.39236,-2.59872 0.18382,-7.53016 2.5959,-9.97162c0.21168,-0.54624 0.58899,-1.14055 1.26151,-1.52375l0.62622,-1.66991c0.85035,-3.38342 1.86404,-5.39435 3.79455,-8.10178c1.02544,-2.56159 2.09177,-5.04471 2.04716,-7.88679l0.32887,0.0506c-1.18678,-2.31142 -1.62262,-5.07714 -1.97044,-7.81415c0,0 -0.40311,-3.2249 2.82179,-3.62802c3.2249,-0.40311 3.62802,2.82179 3.62802,2.82179c0.43337,3.53505 0.42957,6.88458 4.51154,7.17821l2.47579,1.06976c0.23449,0.07861 0.4791,0.18795 0.73355,0.33335c0.93736,0.53564 1.38542,1.20472 1.5658,1.85949c0.21311,0.64486 0.21145,1.45011 -0.27137,2.41574c-0.05809,0.11618 -0.11851,0.2254 -0.18096,0.32803c-1.87393,3.33246 -2.68603,6.47076 -4.01113,10.01277c-0.77842,2.08073 -1.72332,2.90113 -2.22582,4.98322c-0.63437,2.62848 -0.56264,5.68283 -1.40575,8.25027c-0.26369,0.80299 -0.90888,1.43731 -1.26965,2.19867c-0.17999,2.04672 -0.3277,3.99048 -1.124,5.96711c-0.34623,0.85943 -0.81044,1.66221 -1.30029,2.45286c-0.50758,2.46564 -0.81854,4.95641 -0.80595,7.35361v1.33333c0,0 0,0.2903 -0.08676,0.69737c-0.02484,0.19969 -0.04969,0.39939 -0.07453,0.59908l1.06102,1.27323c0.47848,0.566 0.76694,1.29781 0.76694,2.09699c0,0.58456 -0.15433,1.13308 -0.42447,1.60702c0.09868,0.02446 0.19736,0.04892 0.29604,0.07338c0,0 0.88964,0.22241 1.60565,0.90352c0.81976,0.01498 1.56536,0.33347 2.12918,0.84785c1.10006,-0.21057 2.26398,-0.17752 3.42834,-0.17619c0.74875,-0.18111 1.43366,-0.00775 1.96064,0.23781c0.56783,0.20685 1.20117,0.58953 1.6011,1.2975l1.64196,1.76336c1.51667,2.7345 4.33922,5.68568 7.31147,6.89977c1.56378,0.63876 3.35068,0.47883 4.98831,0.89305c1.80828,0.45739 3.79007,1.29129 5.73982,0.93741c1.10081,-0.19979 2.10793,-0.78842 3.21028,-0.97952c4.14858,-0.7192 7.72563,-0.48109 11.69095,-2.14349c3.47202,-1.45559 6.95658,-4.5672 10.46122,-5.72002l2.1897,-1.56407c0.53791,-0.39442 1.20165,-0.62735 1.9198,-0.62735c1.79493,0 3.25,1.45507 3.25,3.25c0,0.81425 -0.29944,1.55857 -0.79421,2.12883l-1.98821,2.31957l-0.09802,-0.08402l-0.08748,0.28294c-2.57918,2.15602 -5.38922,4.50833 -8.12671,6.37722c-2.24212,1.53071 -5.27181,2.3363 -7.70667,3.55137c-2.13214,1.064 -4.2901,2.26559 -6.64343,2.63963c-0.26736,0.0425 -5.63887,0.03445 -6.47194,0.03445c-0.69824,0 -5.60769,0.01777 -5.9868,-0.06637c-3.28078,-0.72812 -5.39223,-3.22166 -8.11887,-4.93623c-0.7046,-0.25949 -2.13086,-0.62844 -3.50315,-1.08086c0.45897,1.0733 0.90109,2.15763 1.68823,2.98937c1.55387,1.64194 5.36308,5.02053 7.52905,5.73354c3.02116,0.99453 8.32069,-1.01331 11.29865,-1.71612c2.85941,-0.67483 5.70922,-0.88802 8.56917,-1.10332c1.6514,-0.86721 3.41848,-1.53734 5.69794,-1.61582c1.45532,-0.05011 3.19074,-0.50169 4.50891,-0.02227c0.10426,-0.01009 0.20995,-0.01525 0.31685,-0.01525c1.79493,0 3.25,1.45507 3.25,3.25v2.66667h-0.07914l0.07285,0.20195c-0.28414,2.27315 0.41071,4.80441 -0.63389,6.84323c-1.97838,3.86133 -3.39321,2.78407 -6.39812,3.9705c-4.79323,1.89251 -9.26472,5.33359 -13.6821,8.38425c-0.77778,0.77778 -2.78707,2.78707 -3.56485,3.56485c0,0 -1.50549,1.50549 -3.29795,0.86091c-0.3089,0.20012 -0.61927,0.39786 -0.93313,0.58996c-0.4957,0.3034 -0.97575,0.94253 -1.49021,1.14922l-1.6869,2.10862c-0.59503,0.75699 -1.51903,1.24319 -2.55658,1.24319c-0.16306,0 -0.32332,-0.01201 -0.47994,-0.03519c-0.12376,0.17704 -0.26298,0.34273 -0.42212,0.49382c-0.18162,0.17243 -0.37016,0.33578 -0.56452,0.49147l0.098,0.098l-0.52937,0.52937c-0.08841,0.26888 -0.21,0.50342 -0.3531,0.7079c-0.39651,0.6007 -0.96804,0.94017 -1.48737,1.13201c-0.58503,0.56698 -1.38255,0.91596 -2.26158,0.91596c-0.75302,0 -1.44623,-0.2561 -1.99727,-0.68595c-1.48166,-0.12803 -2.95465,-0.41491 -4.37417,-0.81764l-0.01251,-0.01124c-0.18377,0.02362 -0.36281,0.05485 -0.53602,0.09455c-2.04969,0.46978 -3.94006,2.34867 -5.79646,3.82155c-0.10224,1.00008 -0.65512,1.76029 -0.65512,1.76029zM281.01077,133.82952c0.19736,-0.01073 0.37652,-0.03671 0.52312,-0.09238c-0.04477,-0.0164 -0.08992,-0.03385 -0.13546,-0.05238z"></path><path d="M279.86667,70.88333c-0.20083,0 -0.38925,-0.01241 -0.56602,-0.0357c-0.59894,1.30676 -2.16345,1.50377 -3.88994,1.2303c-0.46844,0.62165 -1.2477,1.13873 -2.54404,1.13873c-2.28468,0 -2.96328,-1.60608 -3.16484,-2.56016c-0.81257,0.04709 -1.61625,0.13956 -2.39545,0.36604c-1.36082,0.39553 -2.52849,2.24229 -3.86496,1.77101c-5.17866,-1.82614 -1.3607,-5.46127 -4.85499,-6.17301c0,0 -2.98722,-1.28024 -1.70698,-4.26746c1.28024,-2.98722 4.26746,-1.70698 4.26746,-1.70698c1.13452,0.58091 2.5349,0.80999 3.40357,1.74273c0.57317,0.61544 1.02547,1.37574 1.31794,2.18636c1.78801,-0.73838 2.3541,-0.66456 2.85232,-0.05378c0.00225,-0.00847 0.00456,-0.01706 0.00693,-0.02575c0.1474,-0.61383 0.49054,-1.43948 1.28936,-1.95709c0.49278,-0.34106 1.15745,-0.55698 2.05171,-0.48427c0.76171,0.03295 1.33306,0.25214 1.76163,0.56243c0.93248,0.09197 1.88215,0.37805 2.70008,0.82501c0.07346,-0.48021 0.23946,-0.92083 0.56643,-1.29261c1.14916,-1.3066 3.40208,-0.73276 5.10312,-1.09914c0,0 3.25,0 3.25,3.25c0,2.11559 -1.37715,2.85404 -2.33853,3.11179l0.0052,0.22154c0,0 0,3.25 -3.25,3.25z"></path><path d="M259.76411,86.89739c0.73991,0.07202 3.00562,0.51289 3.01916,3.21159c0.28725,0.28775 0.53138,0.60517 0.69325,0.97916c0.07395,0.17086 0.13239,0.3455 0.17828,0.5232c3.72118,-0.32179 7.36662,-0.87077 11.11384,-1.36594c0.12567,-0.01661 0.25127,-0.03528 0.37666,-0.05606c0.05204,-0.02735 0.10521,-0.0546 0.15948,-0.08174c1.76146,-0.97044 3.31273,-2.30761 5.10847,-3.21451l2.60819,-1.30409c0.45163,-0.23778 0.96606,-0.37235 1.51192,-0.37235c1.79493,0 3.25,1.45507 3.25,3.25c0,0.44099 -0.08783,0.86146 -0.24695,1.24488c0.58063,1.38564 0.00844,3.53399 -0.24703,5.0976c-0.4856,2.97217 -3.55932,5.29451 -5.48808,7.15233c-3.39295,0.94865 -4.69442,1.5704 -8.42503,1.41805c-3.94572,-0.16113 -7.76936,-1.56362 -11.74298,-1.93377c-0.4154,1.31645 -1.6462,2.27091 -3.09993,2.27091h-3v-0.07138l-0.20197,0.0651c-3.00639,-0.42207 -7.60652,-0.46426 -8.65957,-4.64756c-0.21929,-0.87115 0.07821,-1.72478 0.59406,-2.5314c-0.0589,-0.15375 -0.11747,-0.30617 -0.17642,-0.4563c-0.40956,-1.04286 -0.67489,-3.09918 -0.66131,-5.22797c-0.71186,-0.48296 -2.28264,-1.87205 -1.13503,-4.16727c0.08201,-0.16402 0.16865,-0.31415 0.25913,-0.45145c-0.57673,-0.20094 -2.90568,-1.19551 -2.15439,-3.95023c0.85513,-3.13548 3.99061,-2.28035 3.99061,-2.28035c4.95004,1.43839 8.11478,4.37073 12.37564,6.89955zM277.96282,96.08575c-0.15568,0.11666 -0.30277,0.2459 -0.44544,0.38142c0.35861,-0.04289 0.71898,-0.09651 1.08135,-0.162c0.10896,-0.11891 0.2093,-0.24635 0.30336,-0.37993c-0.31061,0.06143 -0.62418,0.11417 -0.93927,0.16051z"></path></g><g fill-opacity="0.23529" fill="#2f152f" stroke-width="0.5"><path d="M226.67308,246.12903c3.15264,-2.61575 5.96446,-4.50496 7.89206,-8.43243c0.00166,-2.16935 1.48728,-4.36799 3.03222,-6.2616c0.19708,-0.93504 0.51566,-1.86162 0.74123,-3.0651c0.76451,-4.07892 0.46802,-8.60419 1.82189,-12.55383c0.35642,-1.03979 1.32368,-1.78707 1.72502,-2.81037c0.90901,-2.31767 1.55637,-4.73429 2.15886,-7.14984c0.11591,-0.4647 0.22122,-0.92823 0.31689,-1.39086c-0.04434,-3.65664 -0.06298,-7.30689 0.27977,-10.89543c0.12961,-1.35701 0.36693,-2.6985 0.64482,-4.03417c-0.00146,-0.4102 -0.0025,-0.82194 -0.0025,-1.2354c0,0 0,-1.23602 0.76225,-2.18356c0.38352,-1.71414 0.73922,-3.43238 0.9243,-5.17534l-0.01988,-0.97443c0,0 0,-3.25 3.25,-3.25c3.25,0 3.25,3.25 3.25,3.25l-0.01988,1.69224c-0.32603,2.83091 -1.06364,5.59558 -1.64415,8.38038c0.01173,5.18504 0.02132,10.16887 -0.95665,15.23126c0.0755,5.4715 0.2032,10.96115 -0.76481,16.27601c-0.67685,3.71623 -2.69115,8.12527 -4.9878,11.11008c-0.31169,0.40509 -0.63716,0.80152 -0.96359,1.19749c0.55759,1.58901 2.79022,2.5829 4.02803,3.59905l1.93691,0.8301c1.19495,0.48029 2.03861,1.64999 2.03861,3.01673c0,1.79493 -1.45507,3.25 -3.25,3.25h-3v-0.36342c-2.74991,0.73305 -5.54991,1.00023 -7.69271,-0.05461c-1.86299,2.46253 -4.07114,4.34799 -6.57202,6.41004c-0.50524,1.10992 -1.61516,1.66488 -1.61516,1.66488l-0.23109,0.07108c-0.01416,0.01005 -0.02832,0.02006 -0.04248,0.03005c-0.21136,1.00112 -0.88354,1.8323 -1.78422,2.26123c-0.5015,1.08154 -0.96705,2.18739 -1.9399,2.77732c-2.12381,1.28787 -4.9318,0.69018 -7.33005,1.34021l-2.11277,0.90547c-0.27471,0.12519 -0.56992,0.21325 -0.87919,0.25777c-0.73319,0.52657 -1.46527,1.06062 -2.31397,0.9967c-2.27039,-0.17099 -5.25884,-0.44022 -6.38851,-2.41702c-0.609,-1.06568 -0.3185,-2.32782 0.20852,-3.57399c-1.88732,-2.32832 -1.49501,-4.48368 -0.38228,-6.36757c-0.37571,-0.70714 -0.62791,-1.57787 -0.72424,-2.65584l-0.95782,-3.19274c-0.10306,-0.31683 -0.15877,-0.65503 -0.15877,-1.00624c0,-1.79493 1.45507,-3.25 3.25,-3.25c1.01233,0 1.91656,0.46285 2.51261,1.18847l1.65078,1.98093l-0.38782,0.32318l0.53656,0.31356c3.96413,-3.13956 8.68205,-3.92923 12.18459,1.36326c0.55545,0.83931 1.43592,1.68403 1.97636,2.57629z"></path><path d="M208.6956,300.06319c-0.8031,0.33179 -1.90766,-0.18031 -2.82893,-0.17986c-1.77778,0.00086 -3.55556,0 -5.33333,0l-3.24022,-2.46322c0,0 -1.45344,-2.90689 1.45344,-4.36033c1.27976,-0.63988 2.27781,-0.43464 2.99416,-0.00438c0.08037,-0.0054 0.12595,-0.0054 0.12595,-0.0054c1.02451,0.00224 2.02408,0.04338 3.01589,0.11517c1.20695,-0.05125 2.39801,-0.04677 3.42553,0.13392c0.25471,1.88419 0.51549,3.73711 0.64191,5.66757c0.02323,0.35479 -0.00102,0.73539 -0.03367,1.12185c-0.07364,-0.00844 -0.14721,-0.01688 -0.22073,-0.02532z"></path><path d="M258.53334,294.55c0,0 -3.25,0 -3.25,-3.25c0,-3.25 3.25,-3.25 3.25,-3.25c2.40225,0 4.75516,0.22311 7.0952,0.4868c2.82435,1.8163 3.628,4.04959 4.22272,6.97335c-3.74868,-0.39446 -7.46259,-0.96015 -11.31792,-0.96015z"></path><path d="M280.30429,232.33438c-1.5322,-4.16523 -1.35429,-9.128 -1.35429,-13.36772c0,-6.88889 0,-13.77778 0,-20.66667c0,0 0,-3.25 3.25,-3.25c3.25,0 3.25,3.25 3.25,3.25c0,3.87286 0.00465,7.74578 0.00709,11.6187c0.65957,0.9256 0.65957,2.04797 0.65957,2.04797v1c-0.00113,1.75713 -0.06928,5.65012 0.24164,7.23347c0.17038,0.86762 0.87739,1.57467 1.02532,2.4464c0.31131,1.83451 0.45766,5.36744 0.18027,8.22936c0.20934,0.08228 0.40775,0.18761 0.59339,0.31829c0.35849,0.25236 0.67662,0.54351 0.96452,0.86371l0.19327,-0.22548l2.31729,1.98625c0.70403,0.59616 1.15097,1.48655 1.15097,2.48133c0,1.79493 -1.45507,3.25 -3.25,3.25c-0.29733,0 -0.58534,-0.03993 -0.85895,-0.11471l-2.59596,-0.64899l0.08398,-0.33592l-0.76721,0.08076c-0.25672,-0.211 -0.52568,-0.40987 -0.79756,-0.60586c-1.11462,0.43152 -2.15888,1.05571 -3.13608,1.74884l-0.7644,2.10209c-0.01728,1.34791 -0.13401,2.55112 -0.43179,3.27028c-2.46053,5.94221 -8.53115,10.74133 -14.62532,12.52519c-2.15225,2.53521 -3.43461,4.72424 -6.97914,6.10978c-1.08675,0.4248 -2.23564,0.73299 -3.39715,0.84419c-1.34641,0.1289 -2.80453,0.38339 -4.05559,-0.13069c-8.5463,-3.51177 -3.20412,-12.54476 -0.18252,-18.00663c0,0 1.57834,-2.84101 4.41935,-1.26267c1.22539,0.68077 1.62861,1.59645 1.69093,2.41775c0.63007,-0.63634 1.27614,-1.23567 2.11613,-1.43476c1.21297,-0.28749 2.4031,0.66417 3.6014,1.00773c1.27199,0.36469 3.06484,0.15008 4.29794,0.56314c1.17235,-0.88871 2.31034,-1.81071 3.31539,-2.90444c1.51992,-1.65403 2.36442,-3.66843 3.49074,-5.58529c-0.005,-0.07372 -0.00754,-0.14812 -0.00754,-0.22311c0,-0.76257 0.26264,-1.4638 0.70239,-2.01817l2.31555,-2.97714l0.21325,0.16586c0.13085,-0.26799 0.27226,-0.53112 0.42625,-0.78846c0.46263,-0.77311 1.88281,-0.64904 2.69685,-1.01438z"></path><path d="M203.86667,238.21666c-3.25,0 -3.25,-3.25 -3.25,-3.25v-0.66667c0,-0.7672 -0.00286,-1.54269 -0.00254,-2.32358c-0.13688,-0.06324 -0.27676,-0.13722 -0.41957,-0.2229c-2.78685,-1.67211 -1.11474,-4.45896 -1.11474,-4.45896c0.57699,-0.96155 1.19312,-1.90456 1.82862,-2.83784c0.30596,-2.93987 0.92587,-5.82549 2.17667,-8.50428c0.37452,-0.8021 1.55438,-0.96624 2.02888,-1.71355c0.37513,-0.59081 0.12327,-1.41201 0.37122,-2.06646c0.72378,-1.91034 1.31498,-3.86855 1.93758,-5.81422c0.83424,-2.6071 1.84916,-3.19272 2.76035,-5.60026c1.33415,-3.5251 2.2699,-6.8099 4.20591,-10.0892c0.43923,-0.744 0.70729,-1.74496 1.29824,-2.33838c0.02632,-0.11179 0.05234,-0.22362 0.07807,-0.33547l0.19258,-0.19172l-0.10881,-0.04352l1.30522,-3.26304c0.46088,-1.23432 1.65063,-2.11327 3.04567,-2.11327c1.79493,0 3.25,1.45507 3.25,3.25c0,0.32207 -0.04685,0.6332 -0.1341,0.92695l-0.98041,3.59485l-0.13552,-0.03696c-0.00923,0.17604 -0.02304,0.35209 -0.04195,0.52817c-0.06281,0.58502 -0.36967,1.08003 -0.74852,1.55035c-1.42712,5.43536 -3.43542,10.87814 -5.52717,15.98169c-1.44114,3.51618 -1.21662,6.8586 -3.1821,10.37995c-1.50564,2.6975 -3.41536,5.25963 -5.24543,7.85354c-0.31425,2.58273 -0.33814,5.06276 -0.33814,7.88814v0.66667c0,0 0,3.25 -3.25,3.25z"></path><path d="M241.80517,108.01778c2.03993,1.39285 5.04291,1.93657 7.10345,3.18427c2.17179,1.31507 6.01739,3.16292 7.61786,5.19556l3.55165,2.58302c0.83013,0.5888 1.37187,1.55749 1.37187,2.6527c0,1.79493 -1.45507,3.25 -3.25,3.25c-0.42814,0 -0.83695,-0.08279 -1.21128,-0.23323l-2.59653,-0.9737l0.06405,-0.1708l-0.40458,0.02033c-4.22375,-2.7843 -8.46303,-6.26621 -13.1603,-8.25105c-0.12415,-0.05246 -0.24936,-0.10246 -0.37543,-0.1504c1.53459,2.10273 3.09922,4.17365 4.1724,6.56281c0.55385,1.23302 1.34342,2.62086 1.59685,3.96525c1.45554,0.5196 2.90972,1.05074 4.33926,1.72624c1.81212,0.85628 4.51846,3.15602 6.37011,3.76984c0.72918,0.24172 1.54453,-0.18835 2.30353,-0.06986c3.99725,0.62404 7.09,1.90078 11.2222,1.04312c4.20672,-0.87313 5.3989,-3.91093 8.92677,-5.89192c1.30331,-0.73184 2.59707,-1.97459 4.08631,-1.84663c5.94623,0.51094 6.21195,5.44693 6.24935,9.83734c0.00043,0.02622 0.00065,0.05266 0.00065,0.07932c0,1.12871 -0.392,1.86543 -0.90371,2.34629c-0.48086,0.51172 -1.21757,0.90371 -2.34629,0.90371c-0.05539,0 -0.10983,-0.00094 -0.16334,-0.0028c-2.81416,0.27781 -4.16092,1.47257 -6.80256,2.70113c-3.51908,1.63663 -7.2851,2.34332 -10.48174,4.69869c-4.06163,2.9927 -7.01871,6.98982 -10.66534,10.39295c-2.44373,2.28056 -5.1398,4.13416 -7.80659,6.129c-0.8151,0.71528 -1.62106,0.87864 -2.31501,0.79863c-0.74144,-0.0201 -1.56908,-0.32968 -2.3088,-1.27696c-4.06383,-1.91682 -6.65919,1.50392 -9.9749,3.98731c-1.64561,1.23252 -3.43229,2.26307 -5.16863,3.36569c-0.43836,0.39863 -0.95866,0.61524 -1.39468,0.73295c-0.94782,0.30427 -2.50047,0.42756 -3.64701,-1.34436c-0.15658,-0.24198 -0.27781,-0.4764 -0.36873,-0.70267l-0.38896,-0.27465c-0.00834,-0.04396 -0.01746,-0.08798 -0.0273,-0.13206c-1.35079,2.17846 -2.4419,4.91296 -4.92248,5.52612c-0.29621,0.07322 -0.59469,0.12563 -0.895,0.16124l0.03609,0.1624l-2.45485,0.54552c-0.60637,0.98693 -1.16508,1.98714 -1.64269,2.99871c-1.57607,3.3381 -2.54543,6.83845 -4.55421,10.06204c-2.23888,3.59284 -4.45503,7.32701 -6.52116,11.08799c-1.62957,2.9663 -1.70281,6.30606 -3.29378,9.25701c-1.96319,3.64137 -3.94138,7.35241 -6.65212,10.47734l-3.03478,5.56376c-0.54171,1.04087 -1.63023,1.75169 -2.88478,1.75169c-1.79493,0 -3.25,-1.45507 -3.25,-3.25c0,-0.4802 0.10414,-0.93608 0.29108,-1.34627l0.9717,-2.2673c0.80803,-1.87391 1.16622,-3.92882 2.0464,-5.76994c0.95355,-1.9946 2.70306,-3.52495 3.73915,-5.47795c2.17372,-4.09741 3.7601,-8.59267 6.01524,-12.69494c3.17219,-5.77043 6.67858,-11.34338 9.61286,-17.23037c0,0 0.26987,-0.53975 0.80962,-1.0378c0.25642,-0.63475 0.52593,-1.26668 0.82311,-1.89227c1.35274,-2.84756 3.21805,-5.60366 5.10574,-8.24588c1.79911,-3.92163 2.67794,-8.29704 4.5672,-12.1007c0.46602,-0.93824 1.49278,-1.53123 1.92115,-2.48725c0.76126,-1.69895 0.61481,-3.71238 1.36766,-5.41508c1.26212,-2.85451 2.69521,-5.63033 4.04984,-8.44211c1.16114,-2.41018 2.18774,-4.88315 3.32069,-7.30671c0.35626,-0.76209 0.50282,-1.81759 1.1328,-2.31811c-0.00062,-0.00091 -0.00125,-0.00182 -0.00187,-0.00272c-2.31114,-3.3598 0.10305,-7.53113 0.60292,-10.81852c0.128,-0.8418 0.33258,-1.78934 0.34694,-2.68119c-0.42352,-0.88007 -0.82519,-1.79017 -1.21089,-2.74766c-0.55098,-0.46262 -1.19302,-0.83528 -1.75386,-1.28815c0,0 -2.42908,-2.15918 -0.2699,-4.58826c1.2234,-1.37632 2.53344,-1.27964 3.43918,-0.93731c0.31211,-0.09969 0.64472,-0.1535 0.9899,-0.1535c0.65071,0 1.25675,0.19123 1.76499,0.52056l2.62418,1.64011l-0.06559,0.10495c0.16109,0.06388 0.32099,0.13106 0.47956,0.20196c0.02712,0.01213 0.05321,0.02554 0.07834,0.04015l1.57343,-1.41069c0,0 2.65128,0.66282 2.4836,3.20407zM283.53334,130.88333c-0.08013,0.19201 -0.27938,0.46478 -0.55333,0.78346c0.13224,-0.03937 0.26622,-0.07749 0.40221,-0.11432c0.10092,-0.44211 0.25695,-0.92272 0.15112,-0.66914z"></path><path d="M179.73783,137.66359c-2.17467,2.71773 -4.53612,6.5058 -7.73302,8.20088c-0.87354,0.46317 -1.96061,0.3654 -2.86717,0.76004c-1.77434,0.77239 -3.32128,1.99421 -5.05,2.86384l-2.22563,1.27179c-0.4863,0.28995 -1.0547,0.45653 -1.66201,0.45653c-1.79493,0 -3.25,-1.45507 -3.25,-3.25c0,-0.60731 0.16657,-1.17571 0.45653,-1.66201l1.30502,-2.28378l0.15335,0.08763c0.07567,-0.22118 0.16081,-0.43942 0.25715,-0.65422c0.46964,-1.0471 1.85197,-1.35629 2.75843,-2.06009c1.90687,-1.48054 3.65107,-3.35754 5.35476,-5.05897c2.9103,-2.90645 6.14501,-5.28275 8.93349,-8.26484c3.12179,-3.33854 5.87836,-6.52838 10.08437,-8.42429l0.64881,-0.97754c0,0 0.50176,-0.50176 1.27083,-0.80191c0.16814,-0.20398 0.33567,-0.40836 0.50254,-0.61318c1.26825,-1.55656 2.02134,-3.49902 3.34234,-5.01107c1.52411,-1.74452 3.70369,-2.7836 5.54299,-4.19188c2.38866,-1.8289 4.16968,-5.13108 6.50834,-6.79139c0.91358,-0.64859 2.19975,-0.50023 3.22067,-0.96175c4.1185,-1.86184 7.99408,-4.00265 11.68803,-6.64203c0,0 2.64463,-1.88902 4.53366,0.75561c1.88902,2.64463 -0.75561,4.53366 -0.75561,4.53366c-4.07306,2.90844 -8.40741,5.36614 -12.97864,7.35797c-0.6555,0.28562 -1.53277,-0.04675 -2.11266,0.37158c-0.70449,0.50821 -0.84382,1.53653 -1.42603,2.1812c-1.43768,1.59194 -3.03462,3.04961 -4.7323,4.36074c-1.43855,1.111 -3.29356,1.74499 -4.45701,3.14146c-1.27914,1.53532 -2.06599,3.43652 -3.32432,4.98893c-4.29697,5.30118 -9.05235,10.30241 -13.51246,15.48903c-0.0384,0.08958 -0.07806,0.17338 -0.11734,0.25065l0.01196,0.00057c0,0 -0.05879,0.11758 -0.17637,0.29363c-0.11057,0.18053 -0.19269,0.28319 -0.19269,0.28319z"></path><path d="M238.03005,52.3806c-2.0806,2.49672 -4.57732,0.41612 -4.57732,0.41612l-2.41015,-2.07564c-0.55479,-0.93621 -1.10958,-1.87242 -1.66437,-2.80862c0,0 -1.61245,-2.82179 1.20934,-4.43424c2.82179,-1.61245 4.43424,1.20934 4.43424,1.20934c0.3341,0.61935 0.6682,1.2387 1.00229,1.85804l1.58985,1.25769c0,0 2.49672,2.0806 0.41612,4.57732z"></path><path d="M256.79811,92.87829c4.68552,0.26458 9.70553,0.57304 13.61511,-1.48518c2.57626,-1.28357 6.58599,-3.74896 9.64934,-3.00387c1.96363,0.47761 4.64189,0.78729 5.45998,2.63517c0.79971,1.80637 -0.68933,4.0101 -1.7925,5.64887c-3.06418,4.55186 -11.08275,5.62543 -16.2502,5.18695c-1.09448,-0.09287 -2.05035,-0.83799 -3.13377,-1.01886c-1.92979,-0.32217 -3.89028,-0.42125 -5.83404,-0.64411c-2.38298,-0.27322 -6.1209,0.71338 -8.13251,-0.3408c-4.33423,-2.27134 -3.0257,-4.64966 -3.40518,-8.15937c-0.20035,-1.85299 -1.34394,-3.81123 -2.06637,-5.38557c0,0 -1.34486,-2.95869 1.61383,-4.30355c2.95869,-1.34486 4.30355,1.61383 4.30355,1.61383c1.19098,2.64187 2.27265,4.40763 2.60029,7.2811c0.05539,0.48581 -0.18156,1.19367 -0.34819,1.81773c0.11856,0.00168 0.23766,0.00387 0.35725,0.00652l0.07089,-0.51038c0,0 1.97701,-0.659 3.29252,0.66151zM252.93001,93.45906c-0.02473,0.32318 0.04772,0.55391 0.31877,0.60668l0.00111,-0.00801z"></path><path d="M269.49584,68.10277c-1.80278,-2.70416 0.90139,-4.50694 0.90139,-4.50694l2.80278,-1.2125c0.88889,0 1.77778,0 2.66667,0c0,0 3.25,0 3.25,3.25c0,3.25 -3.25,3.25 -3.25,3.25c-0.88889,0 -1.77778,0 -2.66667,0l0.80278,0.12083c0,0 -2.70416,1.80278 -4.50694,-0.90139z"></path></g><path d="M193.57004,200.53384c1.26845,-2.88571 2.53018,-5.77908 3.74923,-8.71898c0.34327,-0.82784 0.60032,-1.68254 0.82978,-2.54546c-1.47028,-0.22993 -2.61386,-1.44554 -2.73349,-2.94958l-0.33033,-3.63366l0.0336,-0.00305c-0.01475,-0.0479 -0.02929,-0.09587 -0.04361,-0.14391c-0.43034,-1.44365 -0.20506,-3.04285 -0.46381,-4.51763c-1.19788,-1.20411 -2.2657,-2.5467 -3.24012,-3.93377c-1.6098,-6.20879 -0.63436,-11.92442 0.05827,-18.09298c0.45752,-4.07465 -0.05998,-7.15198 1.95317,-10.98996c1.42474,-2.71619 2.68825,-5.72204 6.02265,-5.25946c-0.00031,-0.44992 -0.00017,-0.90106 -0.00017,-1.35348c0,0 0,-3.25 3.25,-3.25c3.25,0 3.25,3.25 3.25,3.25c0,3.63627 -0.46955,8.22519 -0.03445,11.86139c0.33805,2.8251 1.77014,6.5916 2.79209,9.24044c0.72992,1.89191 2.3569,2.99285 3.67483,4.3647c0.53527,-0.91147 1.06081,-1.83041 1.67289,-2.68889c0,0 1.88902,-2.64463 4.53366,-0.75561c2.64463,1.88902 0.75561,4.53366 0.75561,4.53366c-1.36466,1.90671 -2.38172,4.05796 -3.8429,5.89176c-0.53669,0.67355 -1.45669,0.97282 -1.987,1.65139c-2.0765,2.65704 -1.62295,3.14666 -2.83566,5.86691c-1.1268,2.52753 -2.61396,4.50014 -4.01887,6.68179c1.2898,0.93066 1.2898,2.68579 1.2898,2.68579l-0.20693,1.80782c-0.83639,2.09648 -2.34985,3.86109 -3.68518,5.68089c-1.0896,1.48491 -1.27913,3.47034 -2.17727,5.0783c-0.68307,1.2229 -1.60797,2.28699 -2.5035,3.3719c-1.36033,3.09935 -2.73945,6.18793 -4.1072,9.30283c-0.10373,0.44688 -0.24759,0.85541 -0.50543,1.15365c-0.07743,0.17717 -0.15482,0.35444 -0.23215,0.53181l-0.3379,0.18788l0.1502,0.10729l-1.64149,2.29809c-0.58704,0.84387 -1.56392,1.39622 -2.66981,1.39622c-1.79493,0 -3.25,-1.45507 -3.25,-3.25c0,-0.60731 0.16657,-1.17571 0.45653,-1.66201l1.30502,-2.28378l0.22223,0.12699l0.12533,-0.17547c0.56017,-3.13928 1.58044,-6.14351 3.39324,-9.07485c0.39056,-0.63154 0.85087,-1.21642 1.32915,-1.78896z" fill-opacity="0.09804" fill="#e3a3e3" stroke-width="0.5"></path><path d="M237.28664,52.35668c-2.2981,2.2981 -4.59619,0 -4.59619,0l-1.52369,-1.68565c-0.44444,-0.77778 -0.88889,-1.55556 -1.33333,-2.33333c0,0 -1.61245,-2.82179 1.20934,-4.43424c2.82179,-1.61245 4.43424,1.20934 4.43424,1.20934c0.44444,0.77778 0.88889,1.55556 1.33333,2.33333l0.47631,0.31435c0,0 2.2981,2.2981 0,4.59619z" fill-opacity="0.09804" fill="#e3a3e3" stroke-width="0.5"></path><path d="M230.05832,68.16701c3.2249,0.40311 2.82179,3.62802 2.82179,3.62802l-0.42137,3.11358c-0.63232,1.4174 -0.59094,3.0249 -0.72602,4.59128c0.41327,1.1726 -0.03445,2.36651 -0.03445,2.36651c-0.77477,2.0106 -1.14011,4.04887 -1.31156,6.11721c0.16149,1.72278 0.32385,3.44104 -0.14817,5.07497v4.33333c0,1.79493 -1.45507,3.25 -3.25,3.25c-1.79493,0 -3.25,-1.45507 -3.25,-3.25v-4.33333c-0.69017,-1.00871 -0.00058,-2.44444 0,-3.66667c0.00069,-1.44309 0.04121,-2.84323 0.11518,-4.22598c-1.04909,-1.53514 -0.03952,-3.35236 -0.03952,-3.35236c0.1251,-0.20552 0.23791,-0.40908 0.33997,-0.61102c0.16571,-1.71878 0.37419,-3.4488 0.61288,-5.24018l-0.02851,-0.57047c0,0 0,-1.95676 1.51832,-2.83363l0.17344,-1.56948c0,0 0.40311,-3.2249 3.62802,-2.82179z" fill-opacity="0.09804" fill="#e3a3e3" stroke-width="0.5"></path><path d="M231.0831,113.32848c0,0 -0.07464,-0.89569 0.32561,-1.78427c-0.00233,-0.05047 -0.00351,-0.10124 -0.00351,-0.15229c0,-1.79493 1.45507,-3.25 3.25,-3.25c1.36674,0 2.53644,0.84366 3.01673,2.03861l0.9705,2.26449l-0.0632,0.02708l0.11382,0.09817c0.39006,1.21146 1.00054,2.37304 1.17019,3.63439c0.01348,0.10021 0.01552,0.20131 0.009,0.30301c0.13765,0.28389 0.30588,0.53805 0.53737,0.72683c0.92099,0.75108 3.09556,1.42622 4.05341,1.78101l2.10885,3.3764c0,0 0,2.85001 -2.66888,3.21229c0.00147,0.04017 0.00221,0.08052 0.00221,0.12105c0,1.79493 -1.45507,3.25 -3.25,3.25c-0.89746,0 -1.70996,-0.36377 -2.2981,-0.9519l-1.92787,-1.92787c-4.24382,-3.66919 -4.87924,-7.32765 -5.34614,-12.767z" fill-opacity="0.09804" fill="#e3a3e3" stroke-width="0.5"></path><path d="M233.95331,244.09382c2.2981,2.2981 0,4.59619 0,4.59619l-0.88416,0.86529c-2.07913,1.71739 -5.43215,4.55989 -7.88393,5.52495c-1.76498,0.69472 -5.2541,0.56043 -7.19667,0.56167c-1.55556,0.00099 -3.1617,0.39348 -4.66667,0h-4c-1.79493,0 -3.25,-1.45507 -3.25,-3.25c0,-1.71445 1.32753,-3.11885 3.01074,-3.24133l3.7939,-0.31616c0.08989,-0.02105 0.17886,-0.04247 0.26694,-0.06421c-0.24666,-0.43558 -0.40491,-0.99448 -0.40491,-1.71164c0,-3.25 3.25,-3.25 3.25,-3.25c2.33333,0 4.66667,0 7,0h2.66667c1.06484,0 2.01008,0.51211 2.60285,1.30348c0.22775,-0.19305 0.44526,-0.3778 0.64988,-0.5502l0.44917,-0.46804c0,0 2.2981,-2.2981 4.59619,0z" fill-opacity="0.09804" fill="#e3a3e3" stroke-width="0.5"></path><path d="M254.13039,247.14339l0.57792,-1.07204c2.93038,-1.11358 7.80108,-3.83872 10.05745,1.71209c2.12749,5.23376 -3.41538,5.2023 -5.50176,6.54769c-1.66663,1.07471 -3.09021,6.47338 -4.16016,7.74101c-1.35876,1.60979 -2.60951,4.50109 -4.69816,4.22684c-2.21134,-0.29036 -3.49639,-3.19406 -3.99396,-5.36817c-0.44122,-1.92787 0.94194,-3.84188 1.44861,-5.75359c0.53076,-2.0026 1.10897,-3.99233 1.66345,-5.98849c0,0 0.86984,-3.13143 4.00128,-2.26159c0.22116,0.06143 0.42237,0.13415 0.60533,0.21625z" fill-opacity="0.09804" fill="#e3a3e3" stroke-width="0.5"></path><path d="M204.86928,295.38262c0.65149,0.28355 2.74161,1.41965 1.86915,4.03704c-1.02774,3.08322 -4.11096,2.05548 -4.11096,2.05548l-2.79405,-1.8041c-0.44444,-0.77778 -0.88889,-1.55556 -1.33333,-2.33333c0,0 -1.61245,-2.82179 1.20934,-4.43424c2.82179,-1.61245 4.43424,1.20934 4.43424,1.20934c0.24187,0.42327 0.48374,0.84655 0.72561,1.26982z" fill-opacity="0.09804" fill="#e3a3e3" stroke-width="0.5"></path><g stroke-width="0.5"><path d="M281.93541,77.36668c0.67082,0.33541 0.33541,1.00623 0.33541,1.00623l-0.04582,-0.08541c-0.02682,1.56745 -0.93082,2.8589 -2.19349,3.66229c-0.08191,0.15532 -0.16051,0.31756 -0.23406,0.48852c-0.2018,0.46908 -0.09407,1.40348 -0.32605,2.04538c-0.07,0.61974 -0.27037,1.27929 -0.64252,1.39303c-0.37241,0.11383 -1.93309,-1.2484 -2.23847,-1.53893c-0.65382,-0.62203 -1.00734,-1.22505 -1.3024,-1.77782c-0.18103,-0.0653 -0.35872,-0.14216 -0.53203,-0.23103c-0.87561,-0.44898 -1.52697,-1.46401 -2.26908,-2.09701c0,0 -0.54385,-0.46616 -0.113,-1.01884c0.039,-0.16992 0.11793,-0.28766 0.21164,-0.36908c0.11098,-0.10459 0.27426,-0.18152 0.51447,-0.18152c0.07425,0 0.14117,0.00735 0.20144,0.0206c1.70942,0.27696 6.33902,2.79484 6.58267,0.00577l0.08322,-0.09271l-0.03816,-0.01908l0.33704,-0.67408c-0.00666,-0.07882 -0.01691,-0.15949 -0.03101,-0.24221c0,0 -0.1233,-0.7398 0.61649,-0.8631c0.53742,-0.08957 0.74951,0.27632 0.82532,0.48322c0.07975,0.01238 0.16588,0.0395 0.25839,0.08576zM278.15011,81.48652c0.01896,-0.01062 0.03751,-0.02175 0.05567,-0.03337c-0.05939,-0.00638 -0.11918,-0.01369 -0.17931,-0.02187c0.03336,0.02244 0.06634,0.04536 0.09893,0.0688c0.00824,-0.00444 0.01648,-0.00895 0.0247,-0.01355z" fill-opacity="0.18824" fill="#ad4eac"></path><path d="M279.51896,81.00864c-0.72114,-0.20604 -0.5151,-0.92718 -0.5151,-0.92718l0.22297,-0.74126c-0.00121,-0.01741 -0.00182,-0.03499 -0.00182,-0.0527c0,-0.17942 0.063,-0.34412 0.16808,-0.47319l0.40274,-0.50343c0.02146,-0.1739 0.04292,-0.34779 0.06438,-0.52169c0,0 0.1233,-0.7398 0.86309,-0.6165c0.13259,0.02209 0.23744,0.064 0.32027,0.11789c0.38208,0.03463 0.68144,0.35581 0.68144,0.74691c0,0.12597 -0.03106,0.24468 -0.08593,0.34891l-0.36825,0.73651l-0.07209,-0.03605l-0.01548,0.17214c-0.05464,0.01756 -0.10926,0.03512 -0.1639,0.05268l0.04917,0.06146l-0.36539,0.29232c-0.01788,0.03262 -0.03841,0.06315 -0.06168,0.09105l-0.19531,0.73703c0,0 -0.20604,0.72114 -0.92719,0.5151z" fill-opacity="0.35294" fill="#ad4eac"></path><path d="M273.26459,78.74168c0.67082,-0.33541 1.00623,0.33541 1.00623,0.33541l-0.1298,-0.03863c0.11657,0.07912 0.23314,0.15945 0.34914,0.24128c0.22616,0.01725 0.40086,0.13372 0.40086,0.13372c0.23051,0.15423 0.46102,0.30848 0.69153,0.46272l0.05847,-0.08772l0.74032,0.49355c0.20677,0.13354 0.34366,0.36603 0.34366,0.63049c0,0.41421 -0.33578,0.75 -0.75,0.75c-0.12597,0 -0.24468,-0.03106 -0.34891,-0.08593l-0.73651,-0.36825l0.00961,-0.0192l-0.05064,-0.00294c-0.08986,-0.05971 -0.17972,-0.11942 -0.26958,-0.17912c-0.37194,-0.01524 -0.74198,-0.37354 -1.27,-0.72052l-0.3798,-0.53862c0,0 -0.33541,-0.67082 0.33541,-1.00623z" fill-opacity="0.35294" fill="#ad4eac"></path></g><path d="M282.5267,83.93141c1.11804,-0.55902 1.67705,0.55902 1.67705,0.55902l0.15974,0.32111c0.055,-0.13267 0.11864,-0.27085 0.18828,-0.40261l-0.11486,-0.51688l0.03012,-0.0067c-0.0183,-0.04226 -0.0358,-0.08493 -0.05242,-0.12807c-0.3601,-0.93444 0.46342,-1.97407 0.42125,-2.97461c-0.02326,-0.55205 -0.53046,-1.29949 -0.8086,-2.04171c-0.2797,-0.22419 -0.77283,-0.76909 -0.31995,-1.58427c0.31696,-0.57052 0.7663,-0.67767 1.12339,-0.64979c1.57757,-1.10232 2.3616,0.07176 2.97494,1.14573l0.01211,0.00323c0.10037,0.01834 0.20703,0.04977 0.32016,0.0969c0.36064,0.15027 0.56158,0.36628 0.66744,0.59227c0.1134,0.22231 0.16053,0.51355 0.05774,0.89047c-0.02675,0.09808 -0.0593,0.18602 -0.09654,0.2648c0.63752,1.71031 0.48853,3.46665 0.11631,5.36574l-1.60556,1.41159c0,0 -0.60352,0.34486 -1.16762,0.07021c-1.44851,1.78824 -1.71413,2.24769 -3.83096,-0.11989l-0.31106,-0.61946c0,0 -0.55901,-1.11804 0.55902,-1.67705z" fill="#e5c1e4" stroke-width="0.5"></path></g></g></svg>