<svg version="1.1" xmlns="http://www.w3.org/2000/svg" xmlns:xlink="http://www.w3.org/1999/xlink" width="36.2" height="36.2" viewBox="0,0,36.2,36.2"><g transform="translate(-221.90001,-161.90002)"><g stroke="none" stroke-width="0" stroke-miterlimit="10"><path d="M228.50001,180.00003c0,-6.35127 5.14873,-11.5 11.5,-11.5c6.35127,0 11.5,5.14873 11.5,11.5c0,6.35127 -5.14873,11.5 -11.5,11.5c-6.35127,0 -11.5,-5.14873 -11.5,-11.5z" fill="#ffffff"></path><path d="M221.90001,180.00003c0,-9.99635 8.10365,-18.1 18.1,-18.1c9.99635,0 18.1,8.10365 18.1,18.1c0,9.99635 -8.10365,18.1 -18.1,18.1c-9.99635,0 -18.1,-8.10365 -18.1,-18.1z" fill-opacity="0.1451" fill="#ffffff"></path><path d="M224.8967,180.00002c0,-8.34132 6.76199,-15.10331 15.10331,-15.10331c8.34132,0 15.10331,6.76199 15.10331,15.10331c0,8.34132 -6.76199,15.10331 -15.10331,15.10331c-8.34132,0 -15.10331,-6.76199 -15.10331,-15.10331z" fill-opacity="0.1451" fill="#ffffff"></path></g></g></svg>