<svg version="1.1" xmlns="http://www.w3.org/2000/svg" xmlns:xlink="http://www.w3.org/1999/xlink" width="264.58334" height="143.91663" viewBox="0,0,264.58334,143.91663"><g transform="translate(-61.95,-168.88335)"><g stroke="none" stroke-width="0.5" stroke-miterlimit="10"><g><path d="M318.19856,285.40403c-0.00897,-2.70822 0.00029,-5.41672 0.00135,-8.12497c-3.21632,0.74421 -5.38216,-0.82299 -5.63512,-5.57897c-0.06961,-1.30869 1.47664,-2.16638 2.17103,-3.27783c1.0667,-1.70737 2.21571,-3.37419 3.51975,-4.90797c0,0 0.51681,-0.60294 1.32884,-0.9225c0.02292,-0.01605 0.04603,-0.03182 0.06932,-0.04732l-0.04094,-0.04913l1.98487,-1.65406c0.52246,-0.44167 1.19797,-0.70794 1.93568,-0.70794c1.65685,0 3,1.34315 3,3c0,0.22288 -0.0243,0.44008 -0.07041,0.64909l-0.65452,3.27259l-0.02306,-0.00461l0.00823,0.07443c-0.37166,1.39539 -0.91213,2.75748 -1.58858,4.04376c0.06581,0.86336 -0.04027,1.76725 -0.005,2.63141c0.16249,3.98087 0.01407,8.01609 0,12c-0.00839,2.3761 0.29759,5.91915 -1.82043,7.69795c-1.41144,1.18539 -8.74826,0.665 -9.68409,-0.71314c-0.97754,-1.43957 0.49806,-3.44438 0.74709,-5.16656l1.30278,-1.60623c0,0 1.62527,-1.62527 3.45321,-0.60798z" fill="#baafcc"></path><g><g><path d="M203.60352,229.2025c-0.07475,-0.04438 -0.1498,-0.08816 -0.22527,-0.13111c0,0 -2.60473,-1.48842 -1.11631,-4.09315c1.48842,-2.60473 4.09315,-1.11631 4.09315,-1.11631c1.81981,1.04459 4.28345,1.34381 5.50785,3.04784c0.92907,1.29301 0.88406,3.05985 1.27238,4.60395c1.10351,4.3879 1.58478,7.85156 -2.4665,11.01799c-1.92506,1.5046 -4.5701,1.76424 -6.72491,2.91597c-1.60483,0.85778 -3.01012,2.05209 -4.58883,2.95704l-1.93162,1.10378c0.4401,1.89159 0.81817,4.2998 0.57774,5.00301c-1.14841,3.35887 -5.68414,4.36877 -8.15227,6.11378c-0.88733,0.62736 -1.41895,1.67475 -2.30096,2.30956c-2.29834,1.65418 -4.83798,2.95721 -7.37012,4.22488c-2.54236,1.27279 -4.89546,2.06268 -7.14066,3.98052c-2.45932,2.10074 -3.8028,5.62014 -6.92319,7.04906c-0.19549,0.08952 -0.38869,0.17009 -0.57973,0.24212c-0.43442,0.4248 -0.90329,0.80394 -1.4349,1.09766c-1.64881,0.911 -7.22736,-0.35896 -8.08318,-1.44917c-0.34717,-0.44226 -0.52915,-0.90369 -0.59477,-1.37402c-0.07284,0.00711 -0.1467,0.01076 -0.22141,0.01076c-1.24264,0 -2.25,-1.00736 -2.25,-2.25c0,-0.6887 0.30942,-1.30512 0.79682,-1.71785l0.65297,-0.55969c-0.02726,-0.09836 -0.05261,-0.19733 -0.07586,-0.29698c-1.13253,-4.85431 1.06625,-12.87725 2.61155,-17.47621c0.50524,-1.50366 3.51318,-6.22334 5.40956,-5.48118c0.23014,0.09007 0.4356,0.20986 0.62006,0.35436l1.46116,-1.21763l0.03975,0.0477c0.10708,-0.1048 0.21873,-0.20539 0.33561,-0.30116c0.2081,-0.1705 3.06328,-0.98851 5.22149,-1.58347c2.03748,-1.76976 4.50986,-2.92933 7.51023,-3.0179c1.77778,0 3.55556,0 5.33333,0h2.66667c0.51531,0 0.99016,0.17323 1.36949,0.46464c1.53262,-0.08607 3.07439,-0.13131 4.63051,-0.13131h0.33333c0,0 0.40247,0 0.86697,0.17022l-0.00002,0.00001c0.07228,-0.03134 0.143,-0.06205 0.21204,-0.09212l0.35288,0.05884l-0.01369,-0.12318l0.88944,-0.09883l0.08763,-0.15335l0.06423,0.03671c0.04813,-0.12433 0.10012,-0.24746 0.15638,-0.36927c0.00235,-0.00508 0.0047,-0.01016 0.00707,-0.01524c-0.39062,-0.50651 -0.62295,-1.14135 -0.62295,-1.83045c0,-0.82843 0.33579,-1.57843 0.87868,-2.12132v0l2,-2c1.41457,-2.61016 4.30357,-4.63398 5.84992,-7.3671z" fill="#a69cb5"></path><path d="M211.2,265.54999c7.29481,0.05326 17.30525,2.12594 22.87453,7.2774c3.76543,3.48294 6.19928,10.16347 4.61226,15.29128c-0.79773,2.57753 -2.75863,3.59269 -4.72083,5.13026c-2.92321,0.1239 -5.28754,1.03809 -8.12055,1.44597c-5.73649,0.82591 -11.85186,0.35508 -17.64541,0.35508c-5.74993,0 -11.7187,0.4301 -17.47464,-0.10375c-1.879,0.92363 -3.79782,1.76959 -5.87995,2.082c-1.6679,0.25026 -3.37325,0.14277 -5.0483,0.33957c-2.74109,0.32205 -6.33258,0.94054 -9.01658,-0.11416c-2.16068,-0.84905 -4.08631,-2.26182 -6.29204,-2.98579c-6.22475,-2.09576 -15.48705,-7.01318 -13.48749,-15.27753c0.3471,-1.43459 1.22104,-2.68819 1.78694,-4.05138c0.97064,-2.33817 1.31243,-4.2512 3.06699,-6.30411c2.04527,-2.39306 5.03506,-2.94117 7.53379,-4.43861c2.03691,-1.22068 3.71025,-3.02577 5.83344,-4.08931c4.10611,-2.05681 9.20369,-3.78278 14.0953,-4.64136c5.56934,-3.35367 11.36525,-6.10024 17.12319,-9.2991c0,0 0.64195,-0.35664 1.3961,-0.29567c0.60315,-0.29578 1.22491,-0.57314 1.87031,-0.83026c1.4277,-0.56878 5.84663,-1.557 7.2213,-0.55765c2.10807,1.53251 2.74905,2.89074 2.48712,4.08581c0.9732,0.58279 1.10396,1.42836 1.03197,2.05696c0.96115,0.25607 1.66923,1.13251 1.66923,2.17433c0,1.15832 -0.87529,2.11221 -2.00054,2.23633l-1.47866,0.18483c-1.14306,3.34955 -1.6751,6.81111 -1.89942,10.32884z" fill="#111732"></path><path d="M290.85489,292.88468c-0.00048,0.02706 -0.00087,0.05229 -0.00113,0.0755c-0.03196,0.07172 -0.06007,0.14644 -0.08583,0.22297c0.22001,0.68731 0.11049,1.55484 -0.31655,2.09476c-0.36228,0.45804 -1.16186,-0.12404 -1.74489,-0.15749c-0.85801,-0.04923 -1.68278,-0.16708 -2.50568,-0.28937c-0.27805,-0.01785 -0.51003,-0.03105 -0.66747,-0.03105c-2.77775,0 -5.5556,0.00667 -8.33333,0c-1.0299,-0.00247 -2.29231,0.11275 -3.21981,-0.50025c-0.25,-0.16523 -0.48824,-0.34491 -0.7205,-0.53311c-0.04415,-0.01699 -0.0878,-0.03436 -0.13091,-0.05213c-1.15551,-0.47621 -2.30911,-1.40164 -3.51482,-1.91451c-0.36021,0 -0.72042,0 -1.08062,0h-1.33333c-0.37415,0 -0.7003,-0.20548 -0.87178,-0.50974c-2.03161,-0.13651 -4.30149,-0.3236 -5.73521,-1.36222c-0.20826,-0.15087 -0.40123,-0.31072 -0.5828,-0.47749c-0.64864,-0.19713 -1.29289,-0.33851 -1.93239,-0.32471l-0.10817,-0.07108l-0.01218,0.04872l-1.31304,-0.32826c-0.44532,-0.10106 -0.77776,-0.49931 -0.77776,-0.97522c0,-0.55228 0.44772,-1 1,-1h0.88742c-0.18656,-0.21398 -0.38274,-0.42379 -0.59452,-0.62623c-0.65061,-0.65544 -1.20951,-1.27595 -1.7169,-1.87423c-0.05059,0.03102 -0.10224,0.05628 -0.15282,0.07686c-0.51904,0.26696 -0.91552,0.00228 -1.11411,-0.19143l-0.49988,-0.2038c-0.56551,-0.95136 -1.22054,-1.863 -1.99316,-2.65543c-0.15832,-0.47496 -0.38114,-0.8746 -0.64813,-1.22852c-0.99773,-0.61822 -2.61012,-0.38279 -3.58792,-1.30628c-0.3188,-0.30109 0.01774,-0.96859 -0.28708,-1.28383c-0.26225,-0.27121 -0.79813,0.02831 -1.11893,-0.17024c-0.19291,-0.1194 -0.38542,-0.24135 -0.57756,-0.36566c-1.11252,0.96673 -1.96032,2.35662 -2.8082,3.44421c-0.70788,0.908 -1.46797,1.78812 -2.17921,2.70026c-0.50389,1.39043 -1.31787,2.78446 -1.5424,3.58823c-0.47674,1.26447 -0.78025,2.78393 -1.22905,4.17929c-0.06562,0.42558 -0.12049,0.85209 -0.15881,1.27935l0.0562,0.03726c0.25528,0.09531 0.40166,0.2792 0.48559,0.45874c0.10204,0.16813 0.17353,0.38979 0.11375,0.6524c0.01746,1.84269 0.23674,4.86572 -3.22822,2.98381c-0.74678,-0.40559 -0.88493,-1.48043 -1.08799,-2.30563c-0.14844,-0.60323 -0.2173,-1.42151 -0.23478,-2.30246c-4.03161,-2.90401 -9.23677,-4.69008 -14.01096,-5.62559c-4.22198,-0.8273 -9.70042,-2.16792 -11.39177,-6.53758c-0.8651,-1.06817 -2.47513,-2.79325 -2.99589,-4.07391c-0.92563,-2.27633 0.24094,-6.0162 0.63339,-8.172c0.40704,-2.23589 0.27827,-4.55305 1.03046,-6.78523c0.37907,-1.12493 1.30505,-2.00139 1.74797,-3.10274c0.08266,-0.20554 0.15967,-0.41916 0.2366,-0.63516c0.22635,-1.695 1.52663,-4.6138 2.85304,-5.51553v-0.00002c0.83979,-0.57091 2.00738,-0.31076 3.01534,-0.43404c0.34624,-0.04235 2.441,0.01151 2.59124,0.12493c2.1064,1.5902 3.10995,5.38057 5.13303,7.09016c1.52206,1.28621 4.73025,2.16167 6.57569,3.26836c1.30313,0.86832 2.79874,2.64704 3.93711,3.29667c0.30524,0.17419 0.78248,-0.19226 1.05387,0.03102c0.51343,0.42242 0.8802,0.96208 1.23761,1.52057c0.90333,0.06228 0.90333,0.99674 0.90333,0.99674l-0.32248,-0.10749c0.01627,0.02322 0.03266,0.04637 0.04916,0.06947c0.44964,0.33914 0.89975,0.6878 1.35055,1.04298c0.20454,0.02101 0.75405,0.1312 0.89135,0.70917c2.40038,1.92581 4.82345,3.9796 7.29827,5.71017c0.00104,-0.0004 0.00208,-0.0008 0.00312,-0.0012c0.44138,-0.16973 0.93467,-0.18901 1.45383,-0.09229c0.77796,-2.4568 3.84616,-2.57348 5.1108,-4.55217c0,0 0.5547,-0.83205 1.38675,-0.27735c0.22859,0.15239 0.35251,0.32572 0.41202,0.49698c0.22904,0.00301 0.40467,0.07326 0.40467,0.07326c2.27834,0.91198 2.99567,0.66461 5.41746,0.93597c0.89666,0.10047 1.65316,0.72659 2.50093,1.03542c0.79466,0.28948 1.69802,-0.13628 2.53706,-0.03c4.11377,0.52111 7.6217,1.65375 11.83982,1.65375c0.67756,0 1.35512,0 2.03267,0c-0.05949,-0.17246 -0.06896,-0.38674 0.01864,-0.64956c0.31623,-0.94868 1.26491,-0.63246 1.26491,-0.63246c6.60569,2.20426 13.73278,1.09513 20.64022,1.32492c3.07771,1.93373 5.09204,3.13677 5.03064,7.13024l0.26105,0.747c0.14625,0.2909 0.12572,0.54291 0.04545,0.74265c-0.05907,0.20624 -0.19683,0.41702 -0.48878,0.55686c-2.19156,1.43106 -4.03069,2.77614 -6.17081,4.55368c-1.11728,0.92799 -1.89671,2.33993 -3.3442,2.85042c-1.4665,0.51719 -2.92591,0.68268 -4.26411,1.37613c0.02752,0.31207 0.0507,0.6263 0.1189,0.91816c-0.27277,0.06254 -0.54719,0.11784 -0.82302,0.16664z" fill="#a69cb5"></path><path d="M285.98763,302.64948c-0.43221,-0.10805 -0.75745,-0.28029 -1.00113,-0.48706c-2.85474,1.34575 -7.94419,0.55424 -10.45318,0.55424c-9.88467,0 -19.76141,0.33333 -29.66667,0.33333c-1.46555,0 -3.73339,0.12798 -5.85883,-0.17029c-0.40995,-0.37406 -0.80283,-0.75826 -1.17338,-1.15333c-0.60505,-0.01719 -1.17767,-0.11833 -1.65605,-0.46342c-1.02964,-0.74276 -0.98344,-2.341 -1.47516,-3.5115l1.01429,-1.67175c0.03666,-0.96011 0.02462,-1.9215 0.00821,-2.88301c0.72111,-4.74072 2.70771,-8.95492 6.27625,-12.09961c0.43835,-1.24324 0.52947,-2.93028 1.71741,-3.23261c0.30778,-0.07833 0.61408,-0.10122 0.91925,-0.08201c-0.01449,-0.10318 -0.02199,-0.20861 -0.02199,-0.31579c0,-0.30635 0.06122,-0.5984 0.17211,-0.86458c-1.22952,-0.664 -3.88806,-2.25633 -4.5131,-2.87775c-1.82736,-1.81676 -2.04099,-3.03556 -3.51402,-4.33158c-2.60028,1.90928 -7.07562,1.97458 -9.78336,1.97964c-0.01676,-0.0033 -0.03434,-0.00675 -0.05272,-0.01034c-0.31379,0.02303 -0.65256,0.02481 -1.02058,0.00186c-0.47351,-0.02953 -0.90548,-0.2305 -1.33318,-0.45645c-1.64129,-0.32687 -3.5701,-0.74374 -4.28205,-1.04981c-1.71624,-0.73781 -3.08658,-1.65179 -4.21552,-2.70143c-2.92427,-1.90149 -5.28797,-4.52188 -6.371,-8.07144c0,0 -0.40198,-1.40692 0.57697,-2.27577c-0.35749,-0.91122 -0.72749,-1.83345 -1.13424,-2.7573c-0.77124,-1.75168 -1.62798,-3.4866 -2.11939,-5.33639c-0.90598,-3.41034 -3.44995,-7.82092 -1.69855,-11.06274c-0.02892,-0.15819 -0.04469,-0.33083 -0.04469,-0.51925c0,-1.38575 0.85347,-1.91803 1.50912,-2.12249c0.5679,-0.6407 1.09418,-1.35209 1.87984,-1.62291c1.52844,-0.52687 2.57248,-0.59064 3.37162,-0.32022c0.16021,-0.12421 0.35236,-0.23612 0.58224,-0.32995c0.56079,-0.2649 1.0457,-0.2801 1.44919,-0.17265c0.64413,0.14106 1.06167,0.58842 1.3069,0.96212c0.07812,0.10839 0.11794,0.18006 0.11794,0.18006c0.35002,0.63086 0.71047,1.26056 1.08007,1.88826c2.84583,3.36167 6.51257,6.03198 9.0827,9.51616c1.47849,2.00431 1.66103,3.00707 2.45084,4.61188c2.7831,2.52891 4.91506,5.42664 6.46175,8.79866c0.22506,0.49067 0.6398,1.09117 1.1243,1.74648c0.49623,-0.08968 0.90266,-0.01579 0.90266,-0.01579c5.0136,0.91156 11.30512,1.22231 15.7732,3.96198c2.97334,1.82315 4.46149,4.86445 7.71063,6.18365l0.7558,0.89513c0.81283,0.5306 0.98235,1.25464 0.95193,1.83962c0.02297,0.44178 -0.06809,0.96288 -0.46416,1.42007c-0.86807,1.62934 -1.91731,3.18815 -3.20557,4.50425l-1.66499,1.34783c-0.10095,0.0913 -0.21533,0.18045 -0.3446,0.26662l-0.00001,0.00002c-0.17124,0.11416 -0.33727,0.20222 -0.49759,0.26799c1.0466,0.66388 2.10617,1.28602 3.16379,1.80403c2.72337,1.33385 7.1645,1.00677 10.1382,1.50586c5.76772,0.96803 11.44339,3.22726 15.60897,7.36608l1.42052,1.70167c0.37952,0.29734 0.58648,0.69964 0.69934,1.04998c0.10455,0.2594 0.18656,0.57664 0.17551,0.92086c0.37381,0.28444 0.58197,0.59667 0.58197,0.59667c0.44444,0.66667 0.88889,1.33333 1.33333,2l-0.02263,3.12711c0,0 -0.54571,2.18282 -2.72853,1.63712z" fill="#baafcc"></path><path d="M313.21998,296.94266c-0.37552,0.13496 -4.65477,0.10734 -5.35332,0.10734c-3.33333,0 -6.66667,0 -10,0c-0.96819,0 -5.682,0.09198 -6.2386,-0.37161c-2.63094,-2.19125 -1.81203,-6.64677 -0.01037,-10.1432c-0.00068,-0.02276 -0.00102,-0.0456 -0.00102,-0.06852c0,-0.70084 0.32043,-1.32685 0.82279,-1.7395l0.63148,-0.52623c0.55741,-0.74174 1.14095,-1.36454 1.70663,-1.81092c0.07294,-0.05756 0.14679,-0.11358 0.2215,-0.16813c2.09089,-2.65229 4.75597,-4.82237 8.27226,-4.82208l0.86685,-1.04022l0.03654,0.03045l0.03051,-0.1073c0.43112,-0.4298 0.84449,-0.83003 1.24631,-1.20429l0.11063,-0.1217l0.01039,0.00944c0.07243,-0.06691 0.14451,-0.13297 0.21626,-0.19821c0.00805,-0.01621 0.01634,-0.03236 0.02489,-0.04844c0.17731,-0.33353 0.48218,-0.5404 0.83263,-0.70455c1.31013,-1.10729 2.55956,-1.95573 3.99356,-2.68714l-0.21364,-0.25636l1.98866,-1.65721c0.39184,-0.33125 0.89848,-0.53096 1.45176,-0.53096c0.31223,0 0.6096,0.0636 0.87987,0.17854c0.301,-0.1223 0.61615,-0.23901 0.9484,-0.34984c1.21962,-0.40684 2.49678,-1.56107 3.6969,-1.09989c5.26602,2.02364 3.03386,4.17975 2.32617,7.39276c-0.97172,4.41176 -0.87373,9.52114 -2.79639,13.71144c-0.0462,0.1007 -0.09228,0.19841 -0.13828,0.29329v1.97804c0.11904,0.51205 -0.00024,0.98015 -0.16847,1.34118c-0.13597,0.37324 -0.38166,0.78736 -0.82564,1.06525c-1.32008,1.33519 -2.80677,2.91513 -4.56924,3.54855z" fill="#baafcc"></path><path d="M113.25557,245.51429l1.98731,-2.31853c0.5503,-0.64987 1.3722,-1.06243 2.29046,-1.06243c0.10465,0 0.20805,0.00536 0.30994,0.01582c1.56566,-1.05276 3.14545,-2.09243 4.52918,-3.34804c-1.75726,-6.73779 0.87541,-15.93748 5.56987,-19.92542c1.06398,-1.26346 2.4932,-2.17085 3.66667,-3.33333c1.84782,-1.83052 2.71285,-4.59479 5.11662,-6.01489c2.07177,-1.22396 4.77266,-1.43254 7.15513,-1.58529c1.8951,-0.82248 3.77594,-1.58086 5.4429,-3.03932c7.98074,-3.66213 16.69902,-4.54554 25.45519,-3.67275c5.24745,0.52306 10.25241,3.38495 14.94079,5.48785c2.38752,1.07088 5.08821,1.20643 7.47659,2.39795c2.93205,1.46275 5.38858,3.53476 8.34333,5.00497l1.25143,1.08814c0,0 1.59099,1.59099 0,3.18198c-0.13717,0.13717 -0.27434,0.25069 -0.41049,0.34361c0.07252,1.42127 0.10979,4.50947 0.05855,4.95377c-0.25907,2.2465 -0.44803,4.52474 -1.06726,6.69971c-1.07381,3.7716 -3.67811,6.60472 -4.89693,10.33977c-0.04081,0.59042 -0.33126,1.01801 -0.65096,1.31425c-0.31639,0.3629 -0.79405,0.69498 -1.48441,0.7006c-0.77749,0.5149 -1.48172,1.17756 -2.35492,1.49942c-0.77407,0.28532 -1.70472,-0.07991 -2.46269,0.24576c-1.95382,0.83947 -3.93699,4.23325 -5.46938,5.63851c-3.53779,3.24429 -8.75815,4.53515 -13.6229,4.84605l-0.5011,0.60131l-0.09276,-0.0773l-0.13188,0.31048c-0.7097,0.4803 -1.41941,0.96061 -2.12911,1.44091c-4.69903,4.17691 -8.60013,8.0546 -12.62686,12.96899c-1.70815,2.08469 -3.41068,4.71604 -2.59443,7.59783c0.59593,2.10393 4.60893,5.21741 6.27302,6.57866c1.60283,1.31114 3.87708,2.85171 5.7804,3.66652c3.24607,1.38963 6.90659,1.253 10.26237,2.20631c4.58199,0.68115 13.29209,5.29368 5.72512,9.94592c-0.90837,0.55848 -2.12856,0.13825 -3.19437,0.17127c-2.43877,0.07556 -4.89324,0 -7.33333,0c-8.45213,0 -16.8461,1 -25.33333,1c0,0 -0.04658,0 -0.12632,-0.0067c-4.33263,0.62198 -8.52778,1.44856 -12.82713,2.30773c-1.43692,0.2058 -2.94879,0.09043 -4.31634,0.57718c-2.17223,0.77317 -3.97929,2.77088 -5.99185,3.85017c-5.27245,2.82746 -13.58715,5.00055 -19.52292,2.79707c-0.81176,-0.30134 -1.46979,-0.71385 -2.02933,-1.1975c-2.92963,-0.41149 -5.16431,-1.70621 -7.29176,-3.18978l0.00001,-0.00002c-1.02246,-0.14693 -2.03105,-0.32071 -3.01095,-0.51695c-4.31714,-0.86455 -7.98267,-3.15985 -12.15757,-4.37145c-4.56583,-1.32506 -9.9512,0.78687 -14.30468,-0.59654c-0.07848,-0.02494 -0.15653,-0.05094 -0.23418,-0.07794l-0.0084,0.0378l-2.95674,-0.65705c-1.02958,-0.20647 -1.80517,-1.11568 -1.80517,-2.20603c0,-0.79338 0.41063,-1.49085 1.03096,-1.89147l1.97096,-1.31398l0.06845,0.10267l0.23523,-0.27276c2.59353,-0.76763 5.22902,-1.55131 7.88611,-2.18918c0.63829,-0.25114 1.28074,-0.44942 1.85338,-0.61995c1.57993,-0.47051 3.36786,-0.34242 4.81364,-1.13443c4.09792,-2.24487 6.87156,-5.95981 10.2324,-9.03156c2.14329,-1.95892 4.47825,-3.87915 6.87422,-5.66891c0.60694,-2.7022 1.51571,-5.39492 2.83758,-7.80638c-0.00865,-1.40242 0.11029,-2.75395 0.57989,-3.64331c0.02446,-0.04633 0.04939,-0.09236 0.07477,-0.13811l-0.03767,-0.01076l0.653,-2.28551c0.09551,-0.36561 0.28068,-0.69498 0.5306,-0.9632c0.06231,-1.50894 0.29098,-2.99515 0.93761,-4.4109c1.07176,-2.3465 3.31282,-4.34753 5.19161,-6.05038c0.27871,-0.25261 0.56176,-0.50191 0.84892,-0.74782c1.49812,-1.61382 3.73708,-3.39006 4.72392,-4.54312zM181.2208,207.69391c-0.03704,-0.01608 -0.07409,-0.03211 -0.11116,-0.04809c-0.00102,0.01296 -0.00215,0.02589 -0.00339,0.03879c0.0382,0.00312 0.07638,0.00622 0.11455,0.0093z" fill="#721c67"></path><path d="M180.64702,227.53474c-1.6091,-0.70536 -2.95331,-1.91061 -4.49901,-2.74582c-2.65229,-1.43315 -5.03339,-1.60994 -7.06943,-4.28985c-1.19309,-1.57039 -1.67589,-3.57095 -2.54781,-5.33995c-0.41257,-0.83704 -1.23988,-1.47313 -1.48422,-2.37377c-1.64394,-6.05945 4.23642,-14.85211 9.71475,-17.09874c3.13506,-1.28567 7.4622,-0.80327 10.77204,-0.80327c4.20545,0 9.82365,-0.81616 13.80303,0.81485c4.77696,1.95791 4.7803,5.74169 4.7803,10.10182c0,0.47344 0.02301,5.23275 -0.07538,5.5775c-0.70371,2.46582 -2.75092,4.79868 -4.54422,6.63487c0.03221,0.97365 -0.70608,1.71195 -0.70608,1.71195c-1.8265,1.8265 -4.28791,3.44468 -5.94618,5.27763c-0.6454,0.71338 -0.74499,1.85733 -1.48059,2.47728c-1.28646,1.08422 -4.86997,2.18991 -6.58612,1.86419c-1.11994,-0.21256 -2.0185,-1.05992 -3.02775,-1.58988l-0.25288,-0.0345c-0.15758,-0.00926 -0.30219,-0.03181 -0.42574,-0.05808l-0.0841,-0.01147c0,0 -0.06557,-0.01639 -0.17115,-0.05486c-0.10733,-0.03325 -0.16946,-0.05988 -0.16946,-0.05988z" fill="#6390d6"></path><path d="M198.95,215.46666c0,0 0,-0.03104 0.00489,-0.08333c-0.5128,0 -1.02818,0 -1.50115,0c-0.00238,0.25248 -0.00374,0.50257 -0.00374,0.75l-0.04705,-0.00627c-0.09334,0.37036 -0.37186,0.92294 -1.20295,0.92294c-0.8311,0 -1.10962,-0.55258 -1.20295,-0.92294l-0.04705,0.00627c0,-0.10099 0.00031,-0.20261 0.00091,-0.30484c-0.00091,-0.01839 -0.00091,-0.02849 -0.00091,-0.02849c0,0 0,-0.00028 0,-0.00082c0.00038,-0.07523 0.00041,-0.15078 0.00011,-0.22663c-0.34452,-0.18207 -0.5937,-0.52041 -0.65315,-0.92065l-0.32996,-1.97973l0.2946,-0.0491c-0.57313,-1.81015 -0.64242,-3.44744 -0.64109,-5.66012c-0.39217,2.02519 -0.01073,4.74706 -1.01907,6.48639c-0.65724,1.1337 -2.47606,1.90085 -3.87667,2.50014c-0.83881,0.99655 -1.88874,1.77864 -3.23759,2.06709c-2.02596,0.43324 -4.59902,0.15246 -6.82844,0.0599c-0.2739,0.85563 -0.77833,1.65208 -0.88478,2.54293c-0.43222,3.61706 0.17225,7.28019 -0.32233,10.92165c0.04583,0.20369 0.02404,0.39467 -0.02658,0.56002c0.01208,1.56277 0.02494,3.12822 0.02494,4.69893v0.33333c0,0.43412 -0.15077,0.71747 -0.34758,0.90242c-0.18494,0.19681 -0.4683,0.34758 -0.90242,0.34758c-0.36054,0 -3.19186,0.02914 -3.47835,-0.09515c-4.44532,-1.92852 -2.4111,-6.408 -3.07154,-9.86766c-0.21043,-1.1023 -0.86351,-2.08566 -1.20046,-3.15249c-0.30498,2.6944 -0.33298,5.35041 -0.33298,8.19863v0.24652c0.04264,0.40758 -0.08746,0.69395 -0.26695,0.89273c-0.16034,0.21582 -0.41699,0.40014 -0.8278,0.43728c-4.96104,0.95265 -11.94835,0.45653 -16.16461,-2.9113c-2.254,-0.49702 -3.9702,-2.31269 -5.93985,-3.57747c-0.4862,-0.31221 -1.29102,-0.10959 -1.63591,-0.57317c-0.89379,-1.20142 -1.32067,-4.16086 -1.64233,-5.61152c-0.16852,-0.76002 -0.33755,-1.52725 -0.49868,-2.30009c-0.49028,-0.65445 -0.83719,-1.36187 -0.92048,-2.14421c-1.81873,-0.26431 -2.45971,-1.39837 -2.60339,-3.45875c0.00241,-0.38291 0.01896,-0.76227 0.04834,-1.13842l-0.28174,-0.70435c-0.06433,-0.15061 -0.09993,-0.31643 -0.09993,-0.49056c0,-0.50263 0.29666,-0.93596 0.72443,-1.13447c0.71619,-3.36185 2.29506,-6.51032 3.7186,-9.71093c1.93414,-4.34864 3.33265,-8.55844 6.11401,-12.53487c1.88914,-2.70085 4.16154,-4.8553 6.08197,-7.43873c1.43035,-1.43035 2.63836,-1.78904 4.09415,-2.38274c1.39921,-1.09635 2.9268,-1.95966 4.61378,-2.35904c0.03875,-0.00917 0.07856,-0.0172 0.11932,-0.02417c1.28457,-0.5957 2.57338,-0.97612 4.46475,-0.99806c-0.52307,-0.451 -0.93425,-0.97034 -1.14469,-1.50033h-1.53633c-0.69036,0 -1.25,-0.55964 -1.25,-1.25c0,-0.69036 0.55964,-1.25 1.25,-1.25c0.37561,0 0.9205,-0.03599 1.54658,-0.07802c1.59456,-0.36219 2.97964,-0.42535 4.27265,-0.0591c0.48716,0.05929 0.89591,0.16099 1.17126,0.32381c0.14383,0.08505 0.28422,0.21332 0.41693,0.37397c0.22449,0.13612 0.44756,0.28819 0.66993,0.45701c-0.00545,-0.36686 0.00598,-0.73403 0.00598,-1.101v-1.33333v0c0,-0.69036 0.55964,-1.25 1.25,-1.25c0.499,0 0.92971,0.2924 1.13014,0.7152l0.65456,1.30911l-0.3757,0.18785c0.23714,0.45098 0.37538,0.8817 0.44975,1.34387c0.99036,-1.13747 2.27275,-1.78442 3.99623,-2.46088c5.59711,-2.19687 11.64542,-0.50337 16.15205,3.10193c2.41605,1.20803 4.44515,2.73497 6.96753,3.82535c0.57812,-0.17043 1.10878,0.22757 1.10878,0.22757c2.66059,2.06752 2.27834,4.03787 2.57111,6.39751c1.57351,2.26281 2.73194,4.47405 2.69375,7.05881c0.0787,0.18934 0.14671,0.38545 0.2017,0.58983c1.2061,4.48216 1.70011,8.90962 1.70011,13.62052c0,1.11111 0,2.22222 0,3.33333v1.33333c0,3.80708 -0.02888,6.84975 -2.19708,10.00703c-0.36079,0.52538 -0.43517,1.29267 -0.96084,1.65302c-0.19191,0.13156 -0.40395,0.2373 -0.63084,0.32195c0.44251,1.50533 0.52334,3.36001 -0.14265,4.1206c-1.05076,1.20002 -3.76161,0.92234 -4.84786,0.1354c-0.41607,-0.30143 -0.22243,-1.02007 -0.46602,-1.47206c-0.08667,-0.09748 -0.15813,-0.1929 -0.21649,-0.28659c-0.78305,-0.86747 -2.20549,-1.24069 -2.60973,-2.33432c-0.19376,-0.52421 -0.23929,-1.12867 -0.14205,-1.69736l-0.25365,-0.23044c0,0 -0.88388,-0.88388 0,-1.76777c0.10062,-0.10062 0.20124,-0.17833 0.30055,-0.23704c0,-0.84564 0,-1.72746 0,-2.21241zM149.92423,190.13572c0.04957,-0.03897 0.09886,-0.0782 0.14784,-0.11773c-0.00738,-0.01981 -0.01476,-0.03961 -0.02212,-0.05942c-0.04206,0.05878 -0.08397,0.11782 -0.12571,0.17715z" fill="#111732"></path></g><g fill-opacity="0.37255" fill="#2e1340"><path d="M197.54164,222.48328l-2.30287,0.96022c-1.98269,0.24627 -3.93099,0.72708 -5.91185,0.98765c-1.34847,0.17739 -2.82573,0.85856 -4.06874,0.30649c-0.13361,-0.05934 -0.2641,-0.11828 -0.39152,-0.17682v2.23918c0,1.65685 -1.34315,3 -3,3c-0.93446,0 -1.76913,-0.42724 -2.31933,-1.09705l-1.652,-1.9824l0.07729,-0.06441c-0.13643,-0.12579 -0.26783,-0.25755 -0.39343,-0.39621c-1.43674,-1.58606 -2.04562,-7.40393 -0.71932,-9.00378c1.13105,-1.36434 3.27553,-1.42132 5.01278,-1.77157c0.5905,-0.11905 1.21265,-0.21766 1.85697,-0.29922c0.16219,-0.08726 1.39126,-0.71024 2.60058,-0.23895c0.31445,-0.01974 0.63097,-0.03683 0.94865,-0.0516c0.65191,-0.91773 1.43751,-1.78156 1.74177,-2.71016c0.29429,-0.89819 -0.22047,-2.08341 0.38491,-2.80927c0.15901,-0.19066 0.32649,-0.37247 0.50103,-0.5469l-0.14775,-0.10554l1.64343,-2.3008c0.54188,-0.77896 1.44362,-1.28882 2.46444,-1.28882c1.65685,0 3,1.34315 3,3v2.66667h-0.05854l0.05481,0.14944c-0.13505,0.94066 -0.87113,2.19907 -0.57738,2.98975l1.87642,0.20849c1.1777,0.11507 2.15575,0.91113 2.53525,1.98927c0.31761,0.47598 0.50276,1.04789 0.50276,1.66304c0,1.32599 -0.86027,2.45106 -2.05314,2.84751c-0.38138,1.22384 -1.60522,1.83577 -1.60522,1.83577z"></path><path d="M82.52003,293.81454c-2.30836,1.06587 -4.55185,2.90831 -6.57611,3.96648c-2.07339,1.08385 -3.81482,1.52539 -5.61787,1.64641l0.05572,0.13l-2.27238,0.97388c-0.37864,0.17256 -0.79945,0.26869 -1.24272,0.26869c-1.65685,0 -3,-1.34315 -3,-3c0,-1.13589 0.63128,-2.12433 1.56215,-2.63362l2.01823,-1.15327c0.265,-0.27115 0.54733,-0.56694 0.84361,-0.87707c6.73838,-0.63665 12.77485,-3.09869 18.12351,-7.54571c0,0 0.49864,-0.41553 0.95935,-1.12035c0.02209,-0.00239 0.04432,-0.0047 0.06671,-0.00693c2.18444,-4.36868 5.38346,-5.74652 9.29883,-7.87374c0.26525,-2.11959 0.72951,-4.22374 1.22674,-6.22077c0.91791,-3.68661 2.24001,-8.51433 4.46715,-11.65601c1.30515,-1.84109 2.85694,-3.56413 4.54198,-5.20613c2.48557,-3.09301 5.41123,-5.56432 8.99601,-7.69421c0.13525,-0.10993 0.27019,-0.21975 0.40477,-0.32947l-0.00519,-0.01348c0,0 0.55058,-0.82587 1.49339,-1.21083c0.7202,-0.59931 1.42444,-1.19756 2.10498,-1.79726c0.67101,-0.93727 1.42103,-1.81988 2.22311,-2.65361c-1.95928,-7.92856 -0.1616,-14.34067 5.55335,-20.12885c0.87719,-0.87215 2.68596,-2.91079 4.52948,-4.07026c0.14819,-0.28173 0.29886,-0.56107 0.45072,-0.83795l0.26216,-0.14737l-0.09238,-0.07698l1.652,-1.9824c0.5502,-0.6698 1.38487,-1.09705 2.31933,-1.09705c1.65685,0 3,1.34315 3,3c0,0.1875 -0.0172,0.37098 -0.05011,0.54895l-0.21868,1.31208c1.13135,0.4295 1.93546,1.52367 1.93546,2.80564v2.66667c0,0.55284 0.00497,1.10799 0.0129,1.66479c0.01059,0.00517 0.02118,0.01037 0.03176,0.01559c0.095,-0.00907 0.1913,-0.01371 0.28868,-0.01371c0.38283,0 0.74891,0.07171 1.08555,0.20243c1.07406,-0.37948 2.12906,-0.58198 2.94636,-0.53559c6.36669,0.36137 8.50914,4.97943 10.92773,9.87507c0.71596,0.17726 1.4208,0.39279 2.11019,0.65533c1.0699,0.40744 2.10411,0.90862 3.18651,1.28161c0.68674,0.23665 1.43363,0.27932 2.11021,0.54362c0.2428,0.09485 0.44921,0.73027 0.59133,0.51175c0.23404,-0.35984 -0.19875,-0.86984 -0.08859,-1.28472c0.12686,-0.47774 0.27119,-0.95239 0.41965,-1.42634c0.00674,-0.86454 0.11842,-1.64314 0.40672,-2.23927c0.06154,-0.12725 0.12506,-0.25335 0.19039,-0.37836l-0.10396,-0.0297l1.31511,-4.6029c0.33663,-1.28864 1.50866,-2.23961 2.90279,-2.23961c1.65685,0 3,1.34315 3,3c0,0.27446 -0.03686,0.54031 -0.10589,0.79287l-0.61433,2.45734c-0.08037,0.67627 -0.20206,1.56058 -0.37582,2.53699c0.39473,1.51651 -0.15665,3.27586 -0.23729,4.87946c-0.07513,1.49413 -0.02775,2.74876 -0.07463,3.80558c0.2159,0.06893 0.43204,0.13712 0.64835,0.20478c2.64042,0.75694 5.30548,1.36582 8.09294,1.32297h2.66667c1.65685,0 3,1.34315 3,3c0,1.24721 -0.76109,2.31667 -1.84417,2.76925l-2.93742,1.30552l-0.10052,-0.22616c-0.30883,0.18651 -0.63193,0.34912 -0.97324,0.48124c-1.31091,0.50745 -2.7118,-0.74235 -4.06019,-1.13962c-1.44966,-0.42711 -2.89322,-0.87506 -4.33333,-1.33333c-1.64484,-0.52342 -3.51132,-1.01549 -5.34494,-1.57334c-0.08169,0.01542 -0.16467,0.03063 -0.24896,0.04566c-0.46771,0.08338 -0.92671,0.01093 -1.38122,-0.13536c0.14437,0.35133 0.22398,0.73611 0.22398,1.13948c0,1.65685 -1.34315,3 -3,3c-0.45707,0 -0.89027,-0.10222 -1.27798,-0.28504l-2.94043,-1.30686c-1.19898,-0.53321 -2.31931,-1.0582 -3.37957,-1.61049c-0.54721,0.73003 -1.41945,1.20239 -2.40201,1.20239c-0.22288,0 -0.44008,-0.0243 -0.64909,-0.07041l-3.27259,-0.65452l0.01408,-0.0704c-0.08297,0.00543 -0.16605,0.00992 -0.24927,0.01341c-1.0814,0.0454 -2.05348,-0.69467 -3.04228,-1.13484c-1.87102,-0.83288 -3.70709,-1.65574 -5.4991,-2.54958c-0.15928,0.205 -0.33022,0.40129 -0.51376,0.58765c-0.84456,0.85755 -3.04882,1.90899 -5.15303,2.46276c-2.17499,1.78041 -5.22072,0.89353 -7.51962,-0.59491c-2.12977,2.54206 -4.85864,4.9284 -6.80895,7.26265c-1.48975,1.78302 -2.49748,3.93963 -4.0221,5.69293c-0.90752,1.04364 -2.03567,1.95781 -3.18049,2.87319c-1.14368,1.88005 -2.22933,3.77776 -2.87475,5.96617c-1.05061,3.56226 0.79957,8.27831 1.9419,11.57562c1.38645,4.00193 4.58121,8.03199 4.53592,12.48541l0.2307,0.19774c0.64987,0.5503 1.06243,1.3722 1.06243,2.29046c0,0.08455 -0.0035,0.16828 -0.01036,0.25106c1.2269,1.57542 2.5227,3.5823 2.02528,4.87682c0.3874,0.23527 0.73936,0.48257 1.03999,0.7486c0.06921,0.06124 0.13985,0.12205 0.21176,0.18248c0.17714,-0.04994 0.35517,-0.09742 0.53417,-0.1422c3.59665,-0.89981 11.38983,-2.76406 6.09018,6.76293c-0.41922,0.75361 -1.22012,1.03557 -2.14183,1.14732c-0.97895,0.91042 -2.52893,1.59731 -3.61242,2.28261c-1.04121,0.65856 -2.38642,0.62308 -3.59885,0.84176c-3.76326,0.67877 -7.11766,1.47981 -9.72491,-0.16373c-0.927,0.12743 -1.86388,0.20262 -2.81302,0.21235c0,0 -1.22446,0 -2.10884,-0.78227c-1.13129,0.08534 -2.36106,-0.13496 -3.37254,-0.44609c-4.38759,-1.34962 -3.70409,-6.47546 -5.46854,-9.6375c-1.63448,-2.92913 -5.14659,-4.46097 -7.07705,-7.08079c-1.25784,0.49425 -2.77741,0.44445 -4.31967,0.29453zM110.45475,304.45737c0.19243,-0.06744 0.38405,-0.13727 0.57498,-0.20914c-0.14553,-0.20257 -0.28503,-0.41058 -0.41841,-0.62365c-0.03189,0.16152 -0.06394,0.32888 -0.0959,0.50277c-0.01286,0.06996 -0.03639,0.18592 -0.06068,0.33002zM106.02086,297.76321c-0.10017,-0.17871 -0.19633,-0.36027 -0.29029,-0.54339c0.07088,0.23464 0.13847,0.46929 0.20226,0.70362c0.02888,-0.05386 0.05822,-0.10727 0.08803,-0.16023zM148.69428,230.33288c-0.2063,-0.22894 -0.42206,-0.42732 -0.64808,-0.5863c0.04644,0.04761 0.09381,0.09442 0.14219,0.14036c0.16305,0.15479 0.33188,0.30323 0.50589,0.44594z"></path><path d="M140.87039,252.10063c2.54412,1.81776 5.10308,2.67501 7.62143,4.58964l0.5295,0.49674c0,0 0.00125,0.00125 0.00365,0.00371c0.54318,-0.54507 1.29471,-0.88239 2.12503,-0.88239c1.65685,0 3,1.34315 3,3c0,0.22288 -0.0243,0.44008 -0.07041,0.64909l-0.48785,2.43926l-0.0481,-0.00962c0.00271,0.06367 0.00468,0.12742 0.00586,0.19128c0.02251,1.21941 -0.97405,2.25988 -1.18824,3.46054c-0.57414,3.21845 -0.54226,6.70621 -0.4937,10.09304c0.14028,0.27168 0.2404,0.58971 0.2777,0.96163c0.11284,0.52918 0.09607,1.15007 -0.24619,1.78252c0.0003,0.07162 0.00053,0.14314 0.00068,0.21456c0.0627,0.1616 0.10969,0.31866 0.1449,0.46332l0.01576,0.02677c0,0 0.03457,0.13829 0.0585,0.36212c0.03107,0.22295 0.03107,0.36549 0.03107,0.36549c-0.00151,0.0982 -0.00224,0.19444 -0.00216,0.28878c0.43459,0.78301 0.69861,1.60736 0.64495,2.50606c-0.01128,0.18896 -0.04978,0.36388 -0.11178,0.52638c0.77569,1.50021 2.44121,1.81706 5.27735,2.28975l0.25234,0.23728l0.05347,-0.13367l2.43512,0.97405c1.13937,0.42543 1.95071,1.52366 1.95071,2.81138c0,1.60766 -1.26458,2.91997 -2.85328,2.99648l-4.48031,0.24891l-0.00306,-0.05511c-0.09269,0.02015 -0.18566,0.03933 -0.2789,0.0575c-1.3057,0.25441 -2.63523,-0.36843 -3.95736,-0.5152c-2.63909,-0.29298 -5.37361,-0.37105 -8.02765,-0.2363c-2.6829,0.13622 -6.21336,0.90759 -8.8387,0.17347c-0.76545,-0.21404 -2.70608,-1.03118 -4.07062,-2.1203c-1.77775,-0.22048 -3.34366,-0.5204 -3.58115,-0.89826c-0.25087,-0.39916 -0.46298,-0.85612 -0.62844,-1.34507c-0.14097,-0.03041 -0.27972,-0.08222 -0.41586,-0.15935c-1.82898,-1.03623 -2.58194,-3.49361 -2.98055,-5.5576c-0.09639,-0.49911 1.86792,-4.8726 2.22756,-5.74554c0.54938,-1.33348 1.38866,-2.82695 2.1578,-4.33364c0.11522,-1.80772 0.34449,-3.6101 0.66223,-5.3883c0,0 0.22577,-1.24175 1.18986,-1.96798c0.58787,-1.36734 2.08938,-2.31924 2.42842,-3.75701v-3.07169c0,-0.76241 0.2844,-1.45839 0.75289,-1.98764c-0.19314,-0.61134 -0.17826,-1.37251 0.31342,-2.27391c1.01483,-1.86053 2.62709,-1.6898 3.48624,-1.42922c0.4176,-0.05344 0.86678,-0.08496 1.3447,-0.09652c1.67592,-1.71345 3.77313,-0.2454 3.77313,-0.2454zM138.83532,261.21679c-0.04786,-0.06491 -0.11086,-0.06343 -0.18286,-0.03008l0.12082,0.30204c0.08256,-0.09259 0.12832,-0.18208 0.06205,-0.27196z"></path><path d="M169.2,266.79999c-3,0 -3,-3 -3,-3l0.46902,-2.94396c0.77778,-1.22222 1.55556,-2.44444 2.33333,-3.66667c0,0 0.2876,-0.45195 0.81073,-0.85235c0.00132,-1.79674 1.83517,-2.61179 1.83517,-2.61179c5.52284,-2.39738 11.36815,-3.82667 16.94012,-6.30593c2.76439,-1.23002 3.14172,-3.8778 5.58708,-5.4305c0.64233,-0.40785 1.77603,-0.85094 3.03528,-1.19945c0.37385,-2.16207 1.09748,-4.16677 2.53461,-5.11068c1.84026,-1.20868 4.38526,-2.72697 6.36518,-1.76397c0.23028,0.11201 0.4899,0.75584 0.72996,1.66028c0.41706,-0.26614 0.96719,-0.44166 1.69285,-0.44166c3,0 3,3 3,3c-0.0178,0.39505 -0.01195,0.78062 0.01556,1.15734l0.27015,0.23156l-0.13009,0.15178l0.4902,0.21486c1.14447,2.02951 1.6026,3.77608 1.93555,5.58653c1.52497,2.01614 3.48585,3.7923 5.20662,5.53662c3.47884,3.52644 5.53929,8.22895 9.09395,11.76497l0.05123,0.13427l0.03817,-0.03181l1.65406,1.98487c0.44167,0.52246 0.70794,1.19797 0.70794,1.93568c0,0.35064 -0.06015,0.68722 -0.17071,1c0.10495,0.29692 0.16448,0.61529 0.17024,0.94677c0.51477,0.81469 0.99629,1.63856 1.49425,2.38558c2.02656,3.04018 4.24204,5.91514 6.39291,8.84894l0.03664,-0.05862l1.47807,0.92379c0.87846,-0.38626 1.83081,-0.6522 2.85285,-0.77457l1.47674,-1.23062c0.52246,-0.44167 1.19797,-0.70794 1.93568,-0.70794c1.65685,0 3,1.34315 3,3c0,0.82843 -0.33579,1.57843 -0.87868,2.12132l-1.67728,1.67728c-0.20003,0.67124 -0.39793,1.34189 -0.59342,2.01265c1.25592,0.0101 2.52066,0.09485 3.77832,0.20335c3.15072,0.27181 6.42772,0.96886 9.58858,1.36974c4.60278,1.1507 8.92361,0.61982 13.34478,2.54561c1.96852,0.85746 5.67232,2.6092 8.13789,4.81887c1.31912,0.31539 2.29981,1.50209 2.29981,2.91785c0,0.0846 -0.0035,0.16838 -0.01037,0.25121c0.52467,1.69207 -0.09401,3.5025 -2.74577,5.30074c-0.79852,0.5415 -9.32873,0.44805 -11.24386,0.44805c-7.18512,0 -14.01825,-0.87538 -20.90311,-2.45679c-0.43643,0.04833 -0.87187,0.10063 -1.30622,0.15716c-1.68906,0.44319 -3.444,0.81998 -5.08194,0.9366c-0.45644,0.13072 -0.88047,0.12101 -1.25843,0.03463c-0.09543,-0.002 -0.19024,-0.00516 -0.28439,-0.00952c-1.62341,-0.07516 -3.58653,0.31412 -4.81798,-0.74637c-0.83062,-0.71531 -0.93334,-1.899 -1.06682,-3.0629c-0.35571,-0.3625 -0.64082,-0.79271 -0.86806,-1.26576c-1.13075,-1.74485 -1.55041,-3.12873 -1.4824,-4.26782c-0.14833,-0.0786 -0.28929,-0.16929 -0.42154,-0.27074l-2.64242,-1.98182l0.02108,-0.0281l-0.08196,-0.01879c-0.52302,-0.43799 -2.55992,-2.23987 -3.53409,-2.74314c-0.29953,-0.08721 -0.59702,-0.18249 -0.89441,-0.28461c-2.98316,-0.70793 -6.24167,-0.00453 -9.23654,-1.23925c-3.66178,-1.50968 -5.97285,-3.99456 -7.3457,-7.01155c-0.94734,-1.2984 -1.80809,-2.77073 -2.44006,-3.99231c-1.78128,-3.44312 -3.75838,-12.46696 0.77576,-15.34789c-0.19309,-1.15262 -0.35256,-2.1506 -0.42325,-2.57449c0,0 -0.47503,-2.85016 2.30447,-3.42234c0.06393,-0.43458 0.23668,-0.88973 0.59898,-1.30491c-0.33909,-0.7161 -0.67311,-1.44459 -1.00547,-2.18413c-0.11848,-0.26364 -1.20901,-2.77958 -2.00477,-4.85558c-0.44017,2.27377 -2.93403,2.27377 -2.93403,2.27377l-0.60494,-0.01232c-1.94259,-0.52675 -3.88518,-1.05351 -5.82777,-1.58026c-1.9554,1.67182 -2.78026,3.91383 -5.62233,5.30661c-5.35143,2.62251 -11.25335,3.79076 -16.59806,6.15295c-0.098,0.80598 -0.48258,1.41031 -0.48258,1.41031c-0.77778,1.22222 -1.55556,2.44444 -2.33333,3.66667l0.46902,-0.27729c0,0 0,3 -3,3zM217.7549,270.90434c-0.00172,-0.00459 -0.00343,-0.00918 -0.00514,-0.01378c-0.00129,0.00101 -0.00258,0.00201 -0.00388,0.00302c0.003,0.00359 0.00601,0.00717 0.00901,0.01076z"></path><path d="M305.4268,281.33066c2.35616,-2.37258 5.77132,-4.27924 7.58422,-7.15482c1.19761,-1.89963 1.07038,-7.43703 5.70536,-5.99774c3.75845,1.16711 4.4011,8.07338 3.72105,11.04108c-0.51731,2.25753 -2.20437,4.07705 -3.18255,6.17639c-0.04597,0.09865 -0.09199,0.19698 -0.13808,0.29498c0.2229,0.45401 0.38801,0.92014 0.39526,1.4194c0.02883,1.98481 -0.20158,4.13495 -1.24538,5.82338c-0.75978,1.22899 -2.45573,1.52628 -3.72503,2.21661c-0.46946,0.25532 -0.93554,0.47918 -1.39981,0.67595c-0.49758,0.66032 -1.01923,1.31748 -1.56909,1.97493c-1.68273,-0.04819 -3.62533,0.70353 -5.13624,0.12643l-1.2698,0.57718c-0.39331,0.18941 -0.83428,0.29555 -1.30004,0.29555c-1.28257,0 -2.37715,-0.80485 -2.80624,-1.93703c-0.22568,0.01256 -0.46557,-0.00525 -0.71875,-0.06297h-1.80834c-2.05091,-0.00226 -4.74752,0.18263 -7.11763,-0.33028c-1.19916,-0.00323 -2.58011,-0.8371 -3.74915,-1.25355c-3.04154,-1.0835 -6.69452,-2.97377 -5.26958,-6.96916c-5.78146,-3.20557 -13.68911,-2.55139 -19.96176,-4.21279c-1.95331,-0.51736 -3.53255,-1.9633 -5.31246,-2.91986c-0.52837,-0.28396 -1.08324,-0.51041 -1.64762,-0.71648c-0.07026,0.00402 -0.14081,0.00655 -0.21166,0.00752c-1.1109,0.01514 -7.34927,-3.14202 -8.78935,-4.15156c-0.08401,-0.05889 -0.16554,-0.11818 -0.24478,-0.17773c-1.80235,-0.96432 -3.59323,-1.95781 -5.35835,-2.98162l-0.00228,0.0205l-2.96402,-0.32934c-1.51824,-0.14835 -2.70468,-1.42844 -2.70468,-2.98565c0,-1.65685 1.34315,-3 3,-3h2.66667c0.75695,0.03678 1.54102,-0.06209 2.30211,-0.04603c0.54589,-0.05634 1.04753,0.07501 1.44745,0.24782c1.78995,0.66756 3.29931,2.1924 4.87117,3.58632c2.20309,1.3694 4.5809,2.35602 7.2712,3.01421l0.13505,0.12571l0.02638,-0.07036l2.60109,0.97541c1.03796,0.3618 1.81617,1.2778 1.98016,2.39354c0.28025,0.16172 0.55918,0.3257 0.83663,0.49224c2.23735,1.34294 5.69801,1.16508 8.16121,1.68189c6.41299,1.34553 12.73528,1.67133 17.95475,5.96124l0.22524,0.12788c2.71176,-1.22903 5.53662,1.80557 6.10189,5.14803c1.23631,0.18327 2.49578,0.36362 3.75232,0.36209h0.63733c1.91233,-3.2934 3.51335,-6.70744 6.25613,-9.46933z"></path></g><g fill-opacity="0.37255" fill="#2e1340"><path d="M176.2,220.46666c0,-3 3,-3 3,-3l1.6279,0.02317c0.85742,-0.10542 1.71118,-0.18793 2.56405,-0.24943l1.55353,-0.51784c1.79127,-1.70795 3.37547,-3.503 4.80227,-5.98404l0.24933,-0.16007l-0.07485,-0.06416l1.98731,-2.31853c0.5503,-0.64987 1.3722,-1.06243 2.29046,-1.06243c1.58839,0 2.88846,1.23444 2.99319,2.79629l0.3313,4.30696l-0.01274,0.00098c0.00664,0.03795 0.0131,0.07594 0.01937,0.11398c0.00736,0.04469 0.01467,0.08953 0.02191,0.13451c0.66676,0.12657 1.36869,0.53027 1.91837,1.49221c1.48842,2.60473 -1.11631,4.09315 -1.11631,4.09315c-0.74812,0.42709 -1.45832,0.80893 -2.14762,1.14825c-1.89854,1.91698 -5.03003,2.20426 -8.1377,2.19095c-0.59466,0.03658 -1.21545,0.05488 -1.86976,0.05607h-3c-0.26728,0 -0.5264,-0.03495 -0.77303,-0.10054c-0.29687,0.01759 -0.58248,0.04268 -0.85486,0.07737l-2.3721,0.02317c0,0 -3,0 -3,-3z"></path><path d="M121.86667,305.46666c0,3 -3,3 -3,3l0.12269,-0.10571c-2.06272,0.56256 -4.24437,2.29079 -6.23806,1.6298l-0.00108,0.00034l-0.19209,0.26893l0.46364,0.81136l-2.28759,1.30719c-0.44889,0.26765 -0.97357,0.42141 -1.53416,0.42141c-1.65685,0 -3,-1.34315 -3,-3c0,-0.53385 0.13944,-1.03513 0.38389,-1.46941c-2.38614,-0.55472 -7.28985,-2.85009 -8.83855,-4.40927c-2.66547,-2.68352 -4.4501,-8.73183 -4.8562,-12.42144c-0.136,-1.23558 0.33061,-2.67394 -0.30903,-3.72586c-0.5968,0.51508 -1.18534,1.06048 -1.77432,1.64837l-0.26123,0.06l0.06582,0.09214l-2.30493,1.64638c-0.49653,0.36408 -1.10922,0.57909 -1.77212,0.57909c-1.65685,0 -3,-1.34315 -3,-3c0,-0.68629 0.23045,-1.31876 0.61818,-1.82424l1.98182,-2.64242l0.09012,0.06759c0.12843,-0.21025 0.27111,-0.41272 0.4306,-0.60603c1.12193,-1.35985 2.60033,-2.08826 4.14206,-2.28732c1.20936,-0.9041 2.47265,-1.74509 3.81389,-2.5849c0,0 1.31196,-0.81998 2.64042,-0.34007c-0.13612,-3.47272 0.90592,-7.27527 1.30607,-10.48804l0.3284,-2.62718c0.16549,-1.50033 1.43734,-2.66738 2.98177,-2.66738c1.54443,0 2.81628,1.16705 2.98177,2.66738l0.3284,2.62718l-0.04715,0.00589c0.02222,0.0596 0.04374,0.11953 0.06452,0.1798c0.70381,2.04106 0.10344,7.16992 0.0058,9.51975c-0.02291,0.55123 -0.3695,1.12755 -0.17919,1.64539c0.57329,1.55993 2.29594,2.44411 3.12698,3.88335c1.40471,2.43276 3.41271,5.60581 4.25682,8.26857c0.64895,2.04714 1.94471,8.02568 1.12863,10.84596c0.00006,0.00779 0.00009,0.01559 0.00009,0.02339c0,0.44184 -0.09552,0.86138 -0.26704,1.23908c1.86754,-0.52348 3.74842,-1.02539 4.14435,-1.13337l1.45602,-0.10571c0,0 3,0 3,3z"></path><path d="M142.53334,261.79999c-0.08811,0 -0.17363,-0.00259 -0.25664,-0.00761l-0.60237,1.40554c-0.40595,1.34567 -0.93353,2.67333 -1.5011,3.99577c-0.22724,1.7652 -1.49863,3.40554 -1.65201,5.20906c-0.2307,2.71277 0.30203,5.66789 0.35701,8.47597c0.3014,0.67922 0.63035,1.34547 0.97455,2.00457l1.91685,1.59738c0.6698,0.5502 1.09705,1.38487 1.09705,2.31933c0,1.65685 -1.34315,3 -3,3c-0.12687,0 -0.25189,-0.00787 -0.37462,-0.02316l-1.52379,-0.16931c-0.54126,0.5314 -1.28316,0.85914 -2.1016,0.85914c-0.91826,0 -1.74016,-0.41256 -2.29046,-1.06243l-1.86166,-2.17194c-3.41193,0.45609 -4.72134,-3.06 -5.17662,-6.59972c-0.98782,-7.68021 1.94508,-15.76495 4.90464,-22.68099c0,0 0.80146,-1.87007 2.62438,-1.87009c0.41063,-0.33415 0.91285,-0.66468 1.52725,-0.99825c1.40488,-0.76273 5.65109,-0.10911 7.27043,0.06845l2.66871,3.64832c0,0 0,3 -3,3z"></path><path d="M236.02717,299.57134c-0.32935,-2.59099 -0.90742,-5.79504 -0.70296,-8.40599c-0.233,0.09585 -0.47996,0.18818 -0.74154,0.2768c-1.41007,0.47773 -2.61376,-1.42832 -3.95026,-2.0843c-0.89784,-0.44068 -3.66939,-1.45684 -4.42937,-1.63218c-3.80917,-0.87884 -8.54234,-0.20231 -12.15109,-1.48737c-1.0635,-0.37871 -1.78504,-1.38263 -2.68536,-2.06373c-7.31749,-5.53578 -8.73028,-15.04168 -5.25736,-23.223c0,0 0.80055,-1.86795 2.62128,-1.87009c-0.23536,-0.49469 -0.45917,-1.01297 -0.67114,-1.55695c-0.96847,-2.48541 -0.91754,-5.27124 -1.71837,-7.81561c-0.64177,-2.03901 -1.73888,-3.90511 -2.60778,-5.85869c-0.49351,0.48237 -1.01813,0.7072 -1.01813,0.7072c-2.85736,1.17438 -6.56876,3.37815 -8.98581,5.26097c-0.70724,0.55092 -1.00619,1.53383 -1.73655,2.0537c-3.19609,2.27497 -7.67907,2.38624 -11.25671,3.46584c-0.5338,0.16108 -3.99341,2.17845 -4.38094,2.40012l-1.82175,0.39527c0,0 -3,0 -3,-3c0,-2.1497 1.5404,-2.759 2.4136,-2.93169c1.2883,-0.74313 3.22488,-1.86274 4.50763,-2.40164h-2.5879v-0.09688l-0.18641,0.09108c-0.6727,-0.08401 -1.40939,-0.15487 -2.17433,-0.22497c-0.09863,-0.00393 -0.19781,-0.01319 -0.29734,-0.02712c-2.07039,-0.18814 -4.31095,-0.38239 -6.03117,-0.82236c-4.57273,-1.16954 -8.43421,-4.40896 -13.19493,-5.30409c-3.2178,-0.60502 -6.57762,-0.29239 -9.86035,-0.26695c-0.25905,1.11425 -1.13898,1.99025 -2.2554,2.2436l-2.60579,0.65145l-0.0199,-0.07961c-0.11214,0.05178 -0.22581,0.10077 -0.34115,0.14671c-1.35225,0.53852 -2.91102,0.01783 -4.36655,0.02248c-3.0307,0.00969 -8.95391,0.90316 -11.23274,-1.66295c-1.15811,-1.30411 -1.1104,-3.37166 -1.09851,-5.11573c0.00575,-0.84393 0.11873,-1.67499 0.30452,-2.49563c-0.50014,-7.5683 2.17771,-13.24083 6.96044,-18.90065l0.34685,-0.11761l-0.08057,-0.10742l2.64242,-1.98182c0.50548,-0.38773 1.13795,-0.61818 1.82424,-0.61818c0.26881,0 0.52936,0.03535 0.77726,0.10167c-0.23299,-0.86321 -0.36143,-2.49702 1.54777,-3.45162c2.68328,-1.34164 4.02492,1.34164 4.02492,1.34164l0.45904,0.95494c0.85372,2.32193 0.73142,5.96032 1.86741,8.03139c1.35771,2.47528 6.28129,5.05982 6.50298,8.0733c0.02339,0.31794 0.02285,0.63405 0.00292,0.94868h0.15103v3.5634c0.71163,-0.12184 1.43005,-0.26353 2.12468,-0.22748c4.50685,0.2339 9.27996,1.43763 13.43046,3.25748c2.93518,1.28698 5.18786,3.79598 8,5.33333c0.66242,0.36213 1.5341,0.1287 2.22324,0.43468l3.46277,0.3148c1.5441,0.12281 2.75886,1.41477 2.75886,2.99045c0,1.03671 -0.52586,1.95059 -1.32538,2.48948c2.64683,-0.53775 6.26217,-0.65811 8.19932,-2.22825c0.65191,-0.5284 0.92894,-1.43818 1.59678,-1.9463c2.88687,-2.19647 7.0389,-4.61275 10.34752,-6.07236c0,0 1.37723,-0.59024 2.60219,0.03688c0.27653,-1.12164 1.18398,-1.99489 2.32435,-2.22173c0.3576,-0.64529 1.02408,-1.23568 2.25726,-1.3727c2.98165,-0.33129 3.31295,2.65036 3.31295,2.65036c0.43432,4.41356 1.53172,4.49663 4.2271,8.73825c3.16973,4.98808 4.05977,11.98487 8.58828,16.14748c0.75234,0.69155 5.03858,3.5104 6.09204,4.21264l2.21545,1.26597c0.93086,0.50929 1.56215,1.49774 1.56215,2.63362c0,1.12018 -0.61395,2.09696 -1.5237,2.61222c1.7839,1.84822 3.46624,3.79276 4.9044,6.10949c0.28935,1.01376 0.71122,2.07565 1.08601,3.13666c0.59213,-0.79013 1.37859,-1.51347 2.423,-2.15485c0.94994,-0.58337 2.15467,-0.55919 3.24521,-0.80729l1.99759,-1.14148c0.44889,-0.26765 0.97357,-0.42141 1.53416,-0.42141c1.65685,0 3,1.34315 3,3c0,1.4263 -0.99535,2.62012 -2.32932,2.92475c-0.20612,0.46181 -0.43677,0.91122 -0.70507,1.34161c-1.44993,2.32592 -5.33194,2.84947 -4.48528,6.6928c0.32778,1.48792 3.19373,0.75024 3.60896,0.91225c0.08939,0.03488 0.17657,0.07369 0.26185,0.11592c3.59828,-0.01417 7.19793,0.01272 10.7957,0.01636l3.18117,-0.31812c0.11116,-0.01249 0.22417,-0.0189 0.33867,-0.0189c1.02929,0 1.93751,0.51836 2.47785,1.30827c3.46536,-0.0445 7.88189,0.02804 10.21699,2.21635c5.97965,5.60377 4.26379,6.50747 -1.5915,9.04155c-2.29854,0.99477 -7.65325,1.33676 -10.12593,0.68691c-1.30954,-0.34416 -2.3797,-1.32071 -3.65929,-1.76341c-2.70916,-0.9373 -5.63244,-1.45602 -8.39339,-2.39337c-2.5142,0.16207 -5.03636,0.23703 -7.59139,0.23703v1.66667c0,1.65685 -1.34315,3 -3,3c-1.65685,0 -3,-1.34315 -3,-3v-2.66667c-0.49153,-0.43692 -0.33656,-1.16415 -0.17283,-1.89532zM266.08538,300.53088c-1.00407,-0.08005 -2.12348,-0.08665 -3.13863,-0.07944c0.09044,0.03546 0.18229,0.06751 0.27584,0.09547c0.89301,0.26687 1.87281,0.17457 2.86279,-0.01603zM140.52078,237.31578c-0.15725,-0.16663 -0.30971,-0.33703 -0.45758,-0.51099c0.09517,0.2382 0.23906,0.42156 0.45758,0.51099z"></path><path d="M254.40206,279.85645c-1.80955,-0.46673 -3.6074,-0.97974 -5.39744,-1.51631c0,0 -2.87348,-0.86204 -2.01144,-3.73552c0.86204,-2.87348 3.73552,-2.01144 3.73552,-2.01144c1.94353,0.58356 3.89675,1.13815 5.86556,1.62972l1.72705,1.12244c0,0 0.9495,0.9495 0.94277,2.21327c1.0768,-0.29547 2.11766,0.15062 2.11766,0.15062c2.91994,1.27133 6.81916,2.91287 9.96546,3.46284c3.82765,0.66907 7.39203,-0.01249 11.22696,1.48094c2.99799,1.1675 6.71932,3.84562 8.0444,6.95241c0.2396,0.56177 -0.59823,1.33832 -0.22121,1.8188c0.30002,0.38234 0.947,-0.23921 1.43159,-0.27628c0.78806,-0.06028 1.58069,-0.01245 2.37105,-0.0146c2.73584,-0.00744 5.36137,0.04234 8.07193,-0.28265c0.03411,-0.24118 0.06671,-0.47632 0.09447,-0.70261c0.14894,-1.214 1.29463,-2.07698 1.88368,-3.14888c2.02629,-3.68729 4.34127,-6.5807 7.05139,-9.77701l1.18618,-2.37236c0.48103,-1.01474 1.51474,-1.71649 2.71235,-1.71649c0.07033,0 0.14009,0.00242 0.20921,0.00718l0.33945,-0.79206c0.44334,-1.10303 1.52306,-1.88179 2.78467,-1.88179c1.65685,0 3,1.34315 3,3v3h-0.06081c0.01765,0.08942 0.03391,0.17922 0.04869,0.26942c0.43332,2.64521 -1.53766,8.77434 -3.29581,10.92033c-1.07598,2.56428 -2.73957,4.75086 -4.8894,6.9168c-1.55931,1.57099 -3.42667,5.21505 -6.3352,4.51248c-1.45899,-0.35243 -2.35598,-1.05768 -2.9076,-1.9456c-0.24184,-0.09185 -0.48279,-0.21719 -0.72217,-0.37979l-0.13226,0.01653c-3.62368,0.44554 -8.38627,1.05813 -12.00105,0.3419c-1.79083,-0.35483 -3.83502,-0.43794 -5.23508,-1.60961c-0.92664,-0.77548 -0.40998,-2.40474 -0.88788,-3.51454c-0.67229,-1.56124 -3.111,-3.17973 -4.62227,-3.71426c-3.50327,-1.23909 -6.59967,-0.56289 -10.10637,-1.18573c-3.59955,-0.63933 -8.0074,-2.4486 -11.36788,-3.87049c0,0 -2.0269,-0.86867 -1.86037,-2.85427c-1.18886,0.4467 -2.24563,-0.13892 -2.75581,-0.51338z"></path></g><path d="M205.65,270.80833c0,0 0,-1.14435 0.70677,-2.01951c-0.03717,-0.27389 -0.07124,-0.55033 -0.10289,-0.82955c-0.45097,-0.80084 -0.8359,-2.16155 0.52481,-3.52226c1.44477,-1.44477 2.88954,-0.92156 3.66414,-0.44087c-0.61048,-1.16022 -1.10532,-2.41307 -1.49919,-3.71512c-0.03049,-0.04393 -0.05946,-0.08774 -0.08681,-0.1314c-1.34994,-2.15483 -2.01085,-6.02465 -2.99225,-8.47712l-0.21457,-1.61417c0,0 0,-3 3,-3c1.16918,0 1.8827,0.45566 2.31814,1.01181c2.68186,0.20422 2.68186,2.98819 2.68186,2.98819c-0.01181,1.60339 0.15946,4.05915 0.70095,6.45453c0.88091,0.94846 2.29601,1.41839 3.28446,2.29644c1.7777,1.57914 3.12137,2.89496 4.35934,4.37271l0.20526,-0.27367l1.97207,1.47905c0.74453,0.5459 1.22793,1.42697 1.22793,2.42095c0,1.65685 -1.34315,3 -3,3h-2.5v-0.05941l-0.14944,0.05568c-1.62171,-0.2035 -3.04471,-0.68644 -4.28917,-1.38906c1.24306,1.30163 2.55499,2.34715 3.98923,3.70304c1.76719,1.67065 3.02134,3.83036 4.77075,5.51962c1.79399,1.73231 4.19768,2.70097 6.19704,4.19178l3.71939,1.39477c1.17156,0.40837 2.01221,1.5228 2.01221,2.83358c0,1.65685 -1.34315,3 -3,3h-2.75v-0.22731l-0.48055,0.18857c-2.09025,-0.68975 -4.00829,-1.82021 -6.01223,-2.73078c-2.83282,-1.28722 -6.57691,-2.19991 -9.94814,-3.63283c-0.24514,-2.8626 -3.40996,-5.26818 -5.45101,-7.93685c-1.12312,-1.46848 -1.90042,-3.00862 -2.85751,-4.30725c0.00067,-0.2001 0.00077,-0.40125 -0.0006,-0.60357z" fill-opacity="0.1098" fill="#f6d1ff"></path><path d="M241.47206,291.74346l1.08179,0.54564c5.76391,2.48052 12.55953,0.96044 18.72862,2.33666c1.4238,0.31762 2.99482,0.31226 4.24513,1.06381c0.04542,0.0273 0.09054,0.05501 0.13537,0.08311l0.01226,-0.03373l2.68427,0.9761c1.1863,0.40018 2.04051,1.52198 2.04051,2.84328c0,1.65685 -1.34315,3 -3,3h-2.67596c-3.99399,0.25766 -8.22059,0.70063 -12.17584,1.22346c-4.1235,0.54506 -8.88831,2.12182 -12.63109,-0.9722c-2.5605,-2.11667 -3.62247,-7.28285 -4.41581,-10.22827c0,0 -0.77299,-2.8987 2.12572,-3.67169c2.8987,-0.77299 3.67169,2.12572 3.67169,2.12572c0.05436,0.2062 0.11185,0.44496 0.17335,0.70812z" fill-opacity="0.1098" fill="#f6d1ff"></path><path d="M286.46672,290.96669c1.34164,-2.68328 4.02492,-1.34164 4.02492,-1.34164l0.5,0.25c0.13621,0.07098 0.27033,0.14039 0.40266,0.20793c0.382,-0.1763 0.80736,-0.27464 1.2557,-0.27464h2.5v0.39081c0.90204,-0.24352 1.81902,-0.39142 2.75,-0.39081c0.23777,0.00016 0.63892,-0.00502 1.12382,-0.00756c0.18721,-0.08796 0.38053,-0.15867 0.58444,-0.20009c0.01862,-0.00378 0.03725,-0.00753 0.05589,-0.01124l-0.00555,-0.01221l2.69137,-1.22335c0.39331,-0.18941 0.83428,-0.29555 1.30004,-0.29555c0.18807,0 0.3721,0.01731 0.55058,0.05041c0.76489,-1.36584 2.13891,-2.63933 3.26301,-2.54462c2.33608,0.19684 4.06562,2.98353 4.68641,5.2442c0.40629,1.47954 -1.26286,2.81389 -2.12511,4.083c-1.27484,1.87638 -5.3074,6.07894 -8.15319,4.38103c-1.01461,-0.60536 -1.41476,-1.72737 -1.67845,-2.96412c-0.18963,-0.00007 -0.37925,-0.00019 -0.56888,-0.00035c-0.05195,0.01713 -0.10322,0.0347 -0.15367,0.05285c-4.1883,1.50688 -7.30179,0.7544 -11.16235,-1.11914l-0.5,-0.25c0,0 -2.68328,-1.34164 -1.34164,-4.02492z" fill-opacity="0.1098" fill="#f6d1ff"></path></g></g><path d="M175.9,221.975c0,-1.47326 0.7235,-2.22302 1.45989,-2.60458c0.31172,-0.78673 0.94657,-1.41023 1.74082,-1.7068l2.43512,-0.97405l0.05056,0.12639c0.16078,-0.10221 0.32599,-0.19813 0.49629,-0.28683c0.75374,-0.39256 1.70322,-0.4361 2.72483,-0.33895c1.22515,-0.52966 2.46704,-0.99101 3.72118,-1.30559c0.40729,-1.441 0.93187,-2.72222 1.5893,-3.11661c6.10343,-3.66143 8.0702,-1.04978 7.73652,4.47752c-0.00505,0.08371 -0.01107,0.16639 -0.01803,0.24804c0.79287,0.5399 1.31353,1.44987 1.31353,2.48145c0,1.38072 -0.93276,2.54359 -2.20251,2.89285l-2.04702,0.61411c-0.42791,0.32807 -0.87969,0.6191 -1.34885,0.88237l0.09147,0.10291l-2.2404,1.99147c-0.53108,0.47647 -1.23304,0.76631 -2.00269,0.76631c-1.65685,0 -3,-1.34315 -3,-3c0,-0.22244 0.02421,-0.43923 0.07014,-0.64787c-0.33843,-0.03124 -0.67022,-0.0661 -0.99291,-0.10268c-0.61265,0.69307 -1.4932,0.90605 -1.97654,0.97151c-0.87674,0.43842 -1.74875,0.86852 -2.60928,1.26014l-1.99141,0.2689c0,0 -3,0 -3,-3z" fill-opacity="0.37255" fill="#2e1340"></path><path d="M164.93334,212.23333l0.14862,-0.13569c-0.31232,-1.03575 -0.4288,-2.12607 0.16394,-3.0291c0.55824,-0.85048 1.87354,-0.79348 2.81032,-1.19021c0,0 1.68834,-0.46045 2.1488,1.22788c0.19357,0.70973 0.00741,1.20248 -0.27343,1.53526c0.10721,1.35485 0.01112,2.63277 -0.07292,3.93346c0.01212,0.04513 0.02228,0.08857 0.03078,0.12968c0.03639,0.1673 0.06349,0.38123 0.04389,0.61097v1.58443c0,0.24813 -0.05165,0.4842 -0.14477,0.69805c0.01183,0.31761 -0.06459,0.67298 -0.33328,1.00669c-0.18186,0.28296 -0.46994,0.54233 -0.92629,0.65404c-0.44167,0.16019 -0.82524,0.10418 -1.13352,-0.03038c-0.52075,-0.1639 -0.80127,-0.53024 -0.95237,-0.87734c-1.28353,-2.0712 -1.5023,-3.64042 -1.50977,-6.11773z" fill="#43447b"></path></g></g></svg>