<svg version="1.1" xmlns="http://www.w3.org/2000/svg" xmlns:xlink="http://www.w3.org/1999/xlink" width="246.26888" height="254.41518" viewBox="0,0,246.26888,254.41518"><g transform="translate(-179.79779,-41.85002)"><g stroke="none" stroke-width="0.5" stroke-miterlimit="10"><path d="M361.33632,67.81525c2.44406,1.05144 4.48792,2.57528 6.82783,3.74344c4.66403,2.32844 9.73743,3.81643 13.78971,7.31771c1.27169,1.09878 1.7955,2.88992 3.03143,4.02878c1.7741,1.63478 4.79775,2.1888 6.86974,3.3331c1.71279,0.94593 3.09668,2.32006 4.45463,3.73536c1.17071,0.04705 2.3297,0.18072 3.06861,0.52676c1.71282,0.80211 3.0365,2.32478 4.78089,3.05567l0.11938,0.13494l0.03064,-0.04902l2.63363,1.64602c0.65347,0.3937 1.09053,1.11013 1.09053,1.92864c0,1.24264 -1.00736,2.25 -2.25,2.25h-2.33333v-0.42929c-6.54562,1.20915 -13.62783,0.50632 -20.24699,0.76097c-16.28435,0.62649 -32.41651,1.33499 -48.75301,1.33499c-3.00504,-0.00416 -6.65572,0.01817 -9.57614,-0.74168c-0.73596,-0.19149 -1.45801,-0.42095 -2.17282,-0.66828c-0.18635,0.04998 -0.38225,0.07663 -0.58437,0.07663c-0.62132,0 -1.18382,-0.25184 -1.59099,-0.65901l-0.33406,-0.33406c-1.18926,-0.43981 -2.38034,-0.86302 -3.605,-1.17389c-0.8279,0.70134 -1.79525,1.26541 -2.5552,1.78907c0,0 -1.87211,1.24808 -3.12019,-0.62404c-0.11497,-0.17246 -0.20346,-0.33962 -0.26938,-0.50099c-0.26455,0.10929 -0.55448,0.16959 -0.8585,0.16959c-1.24264,0 -2.25,-1.00736 -2.25,-2.25c0,-1.09027 0.77546,-1.99942 1.80492,-2.20599c0.4896,-1.37735 2.11174,-1.37735 2.11174,-1.37735l0.91902,0.00001c-0.22797,-0.18447 -0.41917,-0.41258 -0.5609,-0.67162l-0.33042,-0.57823c-0.44167,-0.36448 -0.86322,-0.74398 -1.18633,-1.18456c-2.17909,-2.97136 -2.32007,-4.45115 -6.12616,-5.4855l-1.28747,-0.61151c-0.58762,-0.12468 -0.97451,-0.48385 -1.22354,-0.84696c-0.27716,-0.32679 -0.51636,-0.77857 -0.49735,-1.35533c-0.12339,-0.55701 -0.27931,-1.08923 -0.46292,-1.60078c-1.58874,-1.72399 -1.92822,-2.95422 -3.37878,-4.35827c-0.77982,-0.53881 -1.57531,-1.05778 -2.38649,-1.54816c-0.15451,-0.06231 -0.30907,-0.12427 -0.4614,-0.18904c-0.67381,-0.19104 -1.38909,-0.34369 -2.15318,-0.45285l-0.12957,-0.10463l-0.0193,0.06754l-2.28551,-0.653c-0.83927,-0.21924 -1.48756,-0.91094 -1.64368,-1.77392c-1.22721,-0.38555 -2.48415,-0.67393 -3.77089,-0.84246c0,0 -2.22739,-0.3182 -1.90919,-2.54558c0.09072,-0.63502 0.33661,-1.06313 0.64183,-1.3507c-0.66444,-0.66666 -0.66444,-1.66444 -0.66444,-1.66444l2.25,-2.91667c2.29232,0.01674 3.79166,0.31755 5.2924,0.90813l0.7076,-0.24147c0.14086,0.00116 0.28115,0.0048 0.42087,0.01087c2.19451,-0.56995 4.35686,-1.2855 6.59223,-1.65463c3.10942,-0.51347 6.84475,-0.02291 9.9869,-0.02291c4.79139,0 9.69069,-0.3049 14.47314,0.00435c3.22229,0.20837 6.29331,1.24766 9.49057,1.68201c7.64715,1.03887 15.37697,1.36824 22.92429,3.04975c2.14446,0.61186 4.08724,1.14566 5.97259,1.94211c0.40567,0.04749 0.69239,0.17037 0.69239,0.17037z" fill-opacity="0.81569" fill="#638fd6"></path><path d="M328.21076,154.32115c-1.559,0.46121 -2.73145,1.38726 -4.27395,1.98099c-1.04701,0.40301 -2.32233,0.35784 -3.19235,1.06615c-1.57412,1.28153 -2.24861,2.3634 -4.29458,3.19214c-6.44898,3.73815 -4.83189,11.73688 -8.00454,17.68572c-1.55456,2.91486 -4.67662,3.43086 -7.5985,4.08558c-4.11526,0.92212 -7.86909,1.96592 -12.14645,1.71597c-1.44374,-0.08437 -4.1518,-0.23168 -5.47123,-1.28844c-0.87918,-0.70415 -1.44562,-1.72781 -2.16844,-2.59172c-8.47767,-10.45584 -12.77738,-24.59893 -12.77738,-37.95088c0,-4.88906 -0.22011,-11.88526 2.81226,-15.97799c0.79761,-3.15154 2.23292,-4.4232 4.16712,-6.93871c2.60191,-3.3839 4.92257,-6.27754 8.09707,-9.1636c4.27395,-3.88562 7.61775,-7.94453 12.32303,-11.32772c2.21072,-1.58955 4.32849,-3.79978 7.13226,-4.39468c1.85299,-0.39317 3.78964,-0.12259 5.67387,-0.31704c0.3209,0.21607 0.6418,0.43213 0.96271,0.6482c1.1644,-0.3214 1.69724,0.85083 1.69724,0.85083c1.11771,2.45897 2.03822,5.71978 3.61537,7.91864c1.66408,2.32006 4.7445,4.09221 6.94952,5.85885c1.86641,1.49535 3.52424,3.5599 5.51248,4.88069c4.42331,2.93841 9.19459,4.99807 13.7274,7.71775c2.71751,2.07201 5.33907,5.18934 7.11592,8.1397l0.41472,1.14451c0.01519,0.03786 0.02864,0.07529 0.04054,0.11189l0.01486,0.04101c0,0 0.03036,0.09109 0.05268,0.23487c0.02429,0.14345 0.02429,0.23947 0.02429,0.23947c-0.00776,1.61433 -0.02684,2.74377 1.01564,4.07688c0.4679,0.59834 1.26216,0.97427 1.53684,1.68243c0.56207,1.44906 0.11418,4.64355 0.11418,6.24069v1.44006c0.08875,0.42896 -0.0349,0.76992 -0.21161,1.02288c-0.1484,0.27335 -0.40088,0.53846 -0.83042,0.64938c-6.92509,3.36359 -14.55282,5.11332 -22.03054,7.3255z" fill="#5a1751"></path><path d="M199.40375,206.28934c-1.36673,-1.29715 -2.41685,-3.01039 -3.58578,-4.47725c0,0 -0.52293,-0.65657 -0.31395,-1.38728c-0.04068,-0.17766 -0.04434,-0.30248 -0.04434,-0.30248l0.01003,-0.61309c-0.01794,-0.01827 -0.036,-0.03641 -0.05417,-0.05451c0.01963,-0.07501 0.03923,-0.15003 0.05877,-0.22508l0.0068,-0.41576c0.73111,-2.83598 0.59262,-5.82755 1.29224,-8.64149c1.07812,-4.33629 2.16397,-8.65752 2.80793,-13.09999c-0.163,-0.20135 -0.32826,-0.40104 -0.49621,-0.59881c0,0 -0.99978,-1.17783 0.17805,-2.17759c0.52406,-0.44484 1.01287,-0.45859 1.39407,-0.33678c0.0045,-0.02618 0.009,-0.05236 0.01349,-0.07852c0.05056,0.04885 0.10221,0.0966 0.1548,0.14343c0.37863,0.17118 0.61524,0.44996 0.61524,0.44996c0.03191,0.03761 0.06373,0.07528 0.09546,0.11303c0.51157,0.37596 1.03807,0.73797 1.45567,1.20878c0.8622,0.97206 1.29428,1.94099 1.66845,2.94849c0.33457,0.47488 0.66778,0.95002 1.00335,1.42246c-0.04728,0.27951 -0.09464,0.55905 -0.14203,0.83856c0.0303,0.06779 0.06146,0.13586 0.09348,0.20419c2.13529,4.55388 5.87459,8.40113 8.85367,12.32757c1.76783,3.01465 4.44,4.62477 6.81284,7.01993c3.89269,3.92931 7.47291,8.4883 10.70211,13.01222c1.78861,1.53989 2.96166,3.40866 4.90488,5.36096c2.05431,2.06396 4.84397,3.589 6.53055,5.9955c1.80668,2.5779 3.80858,4.53918 5.85103,6.98617c1.59899,1.91569 2.6976,4.16585 4.3654,6.04834c5.50877,6.67183 9.63745,13.81389 15.36707,20.28816l0.83579,0.24515c0,0 0.47515,0.22056 0.74366,0.68148c1.38751,0.43494 1.00287,1.86708 1.00287,1.86708c-0.03006,0.11183 -0.05981,0.22355 -0.08928,0.3352c0.1956,0.9813 0.12548,2.29099 -0.08109,3.44521c0.3781,0.90651 0.01409,2.18016 0.19723,3.05742c0.26023,1.2465 0.55969,2.48576 0.77264,3.74121c0.45167,2.66286 1.38785,5.7662 2.18741,8.34463c0.02679,0.08642 0.05611,0.17049 0.08757,0.25257c0.6559,0.68653 1.29288,1.33994 1.84006,1.93907c0.23608,0.2263 0.47182,0.57173 0.46026,1.04346c0.004,0.06521 0.00346,0.13223 -0.00283,0.20066l0.21629,0.0652c0.63669,0.17571 1.11244,0.74994 1.13266,1.44462c0.02481,0.85289 -0.64649,1.56438 -1.49938,1.58919l-1.54429,0.04491l-0.01256,-0.43125l-0.19049,-0.0574l-0.736,0.20425c-0.08632,-0.18603 -0.17787,-0.3721 -0.27333,-0.55834c-0.0219,-0.00269 -0.04414,-0.00711 -0.06671,-0.01333c-1.27395,-0.35136 -1.86699,-1.96258 -3.07108,-2.50716c-1.98094,-0.89592 -3.79562,-1.43572 -5.69352,-2.54125l-0.81423,-1.03738c0,0 -0.36313,-0.67635 -0.10068,-1.33149c-0.11686,-0.05838 -0.23469,-0.11541 -0.35354,-0.17096c-3.91838,-1.83202 -9.02938,-1.78338 -13.26971,-1.66006c0,0 -0.06274,0.00183 -0.16332,-0.00791c-0.3043,-0.01738 -0.71555,-0.11076 -1.02202,-0.44373c-0.19214,-0.19266 -0.34383,-0.46732 -0.39019,-0.85887l-0.65034,-0.63779c-1.31707,-1.87109 -1.65835,-4.29344 -3.01412,-6.04837c-1.08466,-1.40402 -2.75903,-2.21903 -3.72471,-3.77198c-0.95864,-1.54165 -1.49262,-3.40429 -2.52978,-4.93587c-0.65856,-0.97251 -1.75081,-1.58585 -2.46242,-2.52026c-1.07869,-1.41639 -1.97252,-3.05331 -3.04693,-4.51846c-0.21799,-0.20146 -0.3412,-0.45478 -0.41079,-0.67142c-0.04653,-0.12084 -0.08699,-0.26181 -0.10526,-0.41499c-0.1633,-0.35628 -0.32657,-0.71257 -0.48985,-1.06883c-1.29305,-1.82559 -3.27735,-3.00889 -4.51658,-4.87561c-1.07844,-1.62452 -1.69348,-3.61081 -2.62932,-5.30364c-0.97993,-1.7726 -2.91664,-2.32642 -3.74161,-4.27419c-0.2381,-0.56212 -0.08644,-1.23298 -0.29109,-1.80813c-0.55117,-1.54904 -2.03398,-2.69902 -2.85781,-4.04463c-1.35791,-2.21792 -2.39285,-3.62921 -4.19578,-5.61075c0,0 -0.60726,-0.66814 -0.38255,-1.4471c-0.22837,-0.2759 -0.4502,-0.55998 -0.66363,-0.85478c-0.666,-0.91984 -0.81699,-2.13818 -1.44026,-3.08749c-0.67038,-1.02108 -2.08391,-1.27692 -3.15718,-1.8601c-1.96912,-3.10566 -5.02951,-5.24186 -7.24948,-8.15452c-0.61101,-0.80164 -1.15552,-1.65002 -1.66963,-2.51985c-0.16421,-0.13348 -0.32236,-0.27045 -0.47201,-0.41249z" fill="#f0bcd4"></path><path d="M204.88435,180.15645c0.02188,-0.08928 0.04349,-0.17845 0.06483,-0.26751c-0.07967,0.04116 -0.15784,0.08425 -0.23455,0.12919c-0.01196,0.03638 -0.024,0.07268 -0.03612,0.10892c0.06946,0.00682 0.13811,0.01665 0.20581,0.02938zM208.19522,175.91086c1.01883,0.20146 1.50332,0.76082 1.72608,1.32603c0.23399,0.44602 0.34736,1.02558 0.08678,1.72515c-1.2297,5.96432 -3.62655,12.58417 -6.26855,18.07056c-1.43901,2.98827 -3.12994,5.12494 -4.26114,8.3203l-0.18045,0.16561l0.06979,0.04181l-1.30543,2.17926c-0.38126,0.65578 -1.06978,1.11761 -1.88347,1.17549c-0.22051,0.01569 -0.43613,0.0007 -0.64267,-0.04133c-0.9003,0.63022 -2.05373,0.30135 -2.05373,0.30135l-0.17369,-0.05584l-1.96684,0.13992l-0.0025,-0.03499c-0.02731,0.01316 -0.05465,0.02633 -0.08194,0.03949l-0.08453,-0.03361l-0.00001,0.03509l-2.9396,-0.00084c-1.24266,0.01108 -2.29539,-0.94698 -2.38478,-2.20356c-0.06352,-0.89284 0.37575,-1.70535 1.07723,-2.16009c-0.26895,-0.35416 -0.4415,-0.7879 -0.47541,-1.26457c-0.03949,-0.55512 0.11538,-1.07919 0.4068,-1.50552l1.32569,-1.97986c0.40002,-0.59698 0.78715,-1.19821 1.16443,-1.80282c1.03797,-1.84228 2.57631,-4.49855 2.84782,-5.02649c2.5405,-4.94007 4.26049,-11.8617 8.3231,-15.81171c0.01263,-0.04895 0.0251,-0.09805 0.0374,-0.14732c0,0 0.53834,-2.10192 2.5956,-1.77012c0.63415,-0.32691 1.31425,-0.59272 2.04645,-0.78779l2.98802,1.10449c0.00318,0.00062 0.00636,0.00124 0.00953,0.00187z" fill="#731d67"></path><path d="M231.06156,93.97628c0.08835,1.73304 1.74424,2.88266 1.91097,4.35068c0.01303,0.11472 0.0213,0.22943 0.02544,0.34413l0.05712,-0.00714l0.24707,1.97653c0.00957,0.06847 0.01452,0.13842 0.01452,0.20953c0,0.82843 -0.67157,1.5 -1.5,1.5c-0.38483,0 -0.73581,-0.14492 -1.00135,-0.38315l-1.31158,-1.16585c-0.40919,-0.31268 -0.80359,-0.63508 -1.1822,-0.96664c-0.07974,0.01021 -0.16459,0.01565 -0.25487,0.01565c-1.5,0 -1.5,-1.5 -1.5,-1.5v-0.24523c-4.0118,-4.47531 -5.33589,-10.2268 -2.06009,-16.23529c1.00646,-1.84606 2.62074,-3.69491 4.10434,-5.5147c-0.6691,-0.93446 -1.30826,-1.89434 -1.70969,-3.00827c-0.10924,-0.30314 -0.08456,-3.32377 -0.08456,-3.74651c0,-2.892 -0.58179,-7.06388 0.91625,-9.68637c1.12178,-1.9638 3.42435,-2.82665 5.63986,-3.49397c-0.46213,-1.43022 -0.54577,-3.29253 -0.55529,-4.20991c-0.0667,-0.13067 -0.12695,-0.26448 -0.17927,-0.40198c-0.08982,-0.23607 -0.07156,-3.00557 -0.07156,-3.45777c0,0 0,-1.5 1.5,-1.5c1.5,0 1.5,1.5 1.5,1.5c0,0.54042 -0.15488,1.10421 -0.18698,1.64641c0.43698,0.4444 0.43698,1.10359 0.43698,1.10359v0.365c0.10018,0.1397 0.21345,0.27764 0.33537,0.41462c1.39287,-3.17313 4.04139,-5.47859 7.4478,-7.34725c1.64689,-0.90344 2.98875,-2.09882 4.97655,-2.413c1.57636,-0.24915 3.15,0.02265 4.74367,-0.24896l0.7466,-0.02041c0,0 0.08189,0 0.2074,0.01913c0.12594,0.01608 0.20468,0.03858 0.20468,0.03858c0.36299,0.10971 0.71005,0.2583 1.04806,0.42894c2.45696,-0.01994 4.94886,0.03435 7.19889,1.16587c0.94188,0.47366 1.6925,1.14064 2.401,1.85042c0.90012,0.26106 1.79304,0.53077 2.65384,0.82057c3.59412,1.21004 5.0562,3.49189 7.22819,6.26598c2.12199,2.71022 4.16545,4.42081 5.05468,7.66757l0.3449,0.5721c0,0 0.43381,0.86763 -0.094,1.5563l0.00171,0.62567c0.31853,0.57735 1.47105,0.63328 1.86959,1.23987c0.56163,0.85481 0.80038,2.03262 0.53729,3.02101c-0.21557,0.80989 -1.25508,1.11755 -1.80681,1.74841c-0.64641,0.7391 -1.24599,1.52694 -1.79158,2.34889c-0.13236,0.96701 -0.33416,1.90221 -1.00061,2.61631c-0.03712,0.03977 -0.07483,0.07887 -0.11311,0.11732l0.02648,0.01891l-0.12089,0.16924c1.3591,1.7667 3.69106,2.45432 5.77735,3.99204c2.83701,2.09103 4.82809,5.4807 4.87243,8.91692c0.09003,0.37377 -0.0057,0.70157 -0.14218,0.9523c-0.11323,0.26962 -0.3163,0.55636 -0.68051,0.71764c-4.36601,3.22926 -9.21031,1.6397 -14.30308,2.12489c-7.64582,0.72842 -15.09793,1.91608 -22.67647,2.93688c-4.47891,2.19002 -9.87182,3.06823 -14.94725,3.06823h-0.5c0,0 -0.45906,0 -0.86926,-0.25395c-0.04226,0.00261 -0.08583,0.00395 -0.13074,0.00395c-1.5,0 -1.5,-1.5 -1.5,-1.5v-0.75c0,-2.84241 -0.32559,-5.68491 -0.82279,-8.49169c-0.78343,2.47488 -1.09054,5.01444 -0.93233,8.11797zM279.62101,65.99565c0.102,0.08902 0.18197,0.18602 0.24418,0.28673c0.17795,-0.07978 0.2516,-0.1425 0.08254,-0.18339c-0.11113,-0.02688 -0.2201,-0.06159 -0.32672,-0.10334z" fill="#111732"></path><path d="M333.31667,92.55833c0.58185,0 0.99442,0.16927 1.28697,0.40933c0.60437,-0.13168 1.30762,-0.03621 1.92454,-0.13841c2.68054,-0.44407 5.08809,-0.52092 7.78849,-0.52092c10.41534,0 20.8228,0.25 31.25,0.25c3.58333,0 7.16667,0 10.75,0h1.75c0,0 1.27377,0 1.78824,1.01653c1.28686,0.67928 0.90204,2.21854 0.90204,2.21854l-0.20573,0.763c-0.23854,1.87715 -0.23627,3.69489 -0.23478,5.57522c0.10618,0.45552 0.00011,0.87197 -0.14953,1.19311c-0.17682,0.4854 -0.56243,1.04859 -1.40335,1.19651l-0.94689,0.5371c-4.72403,0 -8.89864,0.58934 -13.25,0.02517v0.47483h-2.5c-0.1132,0 -0.22421,-0.00941 -0.33228,-0.02748c-0.21065,0.11418 -0.42243,0.23672 -0.63559,0.3682c-3.71957,0.96055 -6.74177,3.13907 -10.26676,4.50703c-10.15219,3.9398 -20.2789,5.94507 -30.40979,0.9411c0,0 -0.47077,-0.23538 -0.80855,-0.70615c-5.40469,0.39582 -10.70445,2.09073 -16.17275,2.41343c-6.9428,0.40971 -13.93259,-0.24614 -20.87427,-0.24614c0,0 -1.36179,0 -1.83797,-1.1237l-0.28469,-0.17405c-1.26936,-3.52223 -1.13512,-6.64727 0.00799,-10.17545c0.97119,-2.16347 1.20179,-3.17873 2.9381,-4.92855c5.71163,-5.75605 12.73285,-3.4318 19.78716,-3.09518c0.5133,0.02449 1.02729,0.0449 1.54185,0.06172c5.5392,-0.14286 11.11548,-0.06478 16.59755,-0.06478h0.39861c0.2838,-0.4041 0.76964,-0.75 1.60139,-0.75z" fill="#6390d6"></path><path d="M187.20048,174.09253c0,0 -0.61129,-1.36979 0.7585,-1.98108c1.36979,-0.61129 1.98108,0.7585 1.98108,0.7585c0.37499,0.84519 0.79391,1.67333 1.25658,2.47535c1.80879,0.35808 3.98626,0.5429 6.09277,0.49665c0.43193,-0.12051 0.84351,-0.27864 1.22804,-0.48274c2.02637,-1.07551 4.14093,-2.94143 5.97764,-4.34331l0.01508,-0.00477l-0.00301,-0.00413l1.28304,-0.93713c0.26711,-0.19863 0.60173,-0.31005 0.96021,-0.2943c0.82763,0.03636 1.46908,0.73676 1.43272,1.56439c-0.00602,0.1371 -0.03027,0.26909 -0.07029,0.39373l-0.57771,1.94389l-0.00835,-0.00248c-0.05011,0.32537 -0.12614,0.64347 -0.23862,0.94822l-0.02987,0.67987c0.08211,0.47045 0.05536,1.02381 -0.09294,1.91144c-0.31888,1.90868 -2.22983,6.06041 -0.74929,7.24976l0.70809,0.42774c0.083,0.04139 0.15875,0.08846 0.2265,0.13682l0.00255,0.00153c0,0 0.08947,0.05917 0.20473,0.16979c0.11585,0.10999 0.17912,0.19661 0.17912,0.19661c0.00055,0.00083 0.00111,0.00165 0.00166,0.00249c0.06337,0.08059 0.12536,0.17338 0.1777,0.27738c2.4351,3.98187 -0.48674,7.35449 -2.50575,10.98676l-0.15898,0.86721c0,0 -0.25449,1.03412 -1.20595,1.14522c-0.49335,0.91601 -1.07882,1.667 -1.77081,2.13971c-1.07417,0.73381 -4.7958,0.58376 -6.0021,0.2401c-0.37303,-0.10627 -0.73423,-0.2299 -1.06637,-0.369c-0.03223,0.01014 -0.06395,0.01911 -0.09494,0.02705c-0.0435,0.01395 -0.06903,0.02005 -0.06903,0.02005c-0.01371,0.00152 -0.02763,0.00313 -0.04177,0.00482c-0.08537,0.01655 -0.16166,0.02543 -0.22263,0.03013c-1.57722,0.23258 -4.93102,1.02879 -4.60837,-1.89654c-1.2474,-0.5554 -2.29011,-1.38105 -3.36136,-2.52683c-0.48946,-0.36871 -0.96323,-0.73446 -1.41645,-1.08815c-1.40973,-1.53555 -2.32088,-2.64063 -2.58484,-3.92117c-0.07767,-0.22961 -0.14564,-0.4798 -0.20289,-0.75558c-0.38849,-1.87129 -0.57415,-8.27358 2.80016,-7.86252c0.55768,-2.22656 1.15379,-4.43902 1.29091,-6.50844c-0.04042,-0.24823 -0.00935,-0.53735 0.14952,-0.86488c0.10282,-0.25304 0.28473,-0.53408 0.60587,-0.7083c-0.08513,-0.18054 -0.16852,-0.36183 -0.25016,-0.54382z" fill="#baafcc"></path><path d="M210.73935,142.75144c0.94958,0.34519 2.05907,0.55648 2.73435,1.30804c3.35316,3.73201 0.1076,7.44225 -2.17071,10.32049c-1.40935,1.78046 -1.857,4.38358 -3.2846,6.12884c-0.44809,0.5478 -0.96972,1.02328 -1.51861,1.47235l0.06933,0.52946c-0.30193,6.87278 0.54147,17.08134 -8.33234,19.08569c-2.54624,0.57512 -6.148,-0.20303 -8.75784,-0.31768c-0.69392,-0.03048 -1.13627,-0.29138 -1.41807,-0.61896c-0.30161,-0.30945 -0.52271,-0.77297 -0.49222,-1.46689l0.08778,-1.99807c0.21416,-4.87494 0.0903,-9.5011 -0.11332,-14.35384c-0.04708,-1.12187 -0.2656,-2.48925 -0.08007,-3.53225c-0.37235,-0.24965 -0.7447,-0.49931 -1.11706,-0.74896l0.94073,-1.20023l-0.7392,-0.45422l1.32663,-2.15894c0.21127,-0.35901 0.53094,-0.64496 0.91204,-0.8148c0.61154,-3.98979 1.27836,-7.52672 4.36132,-10.83903c0.499,-0.53613 3.17606,-4.06948 3.64214,-4.11548c0.34923,-0.03447 0.69057,-0.00394 1.02656,0.07069l0.0301,-0.17721l1.9871,0.33754l-0.07886,0.46428c0.2497,0.14012 0.44088,0.29905 0.58566,0.46766c0.35639,0.17881 0.71417,0.34612 1.07669,0.4744l-0.12084,0.20332c3.14321,0.2977 6.6992,0.93627 9.44331,1.9338z" fill="#6390d6"></path><path d="M223.93826,255.76158l-0.16719,-0.02242l0.00773,0.0541l-1.72446,0.24635c-0.07741,0.01232 -0.1568,0.01872 -0.23768,0.01872c-0.82843,0 -1.5,-0.67157 -1.5,-1.5c0,-0.35883 0.126,-0.68823 0.33616,-0.94637l1.86662,-2.33328l0.15449,0.12359c1.39605,-2.33142 2.87128,-4.61363 4.05109,-7.01476c0.3114,-0.63377 0.57596,-1.28405 0.80965,-1.94511c-0.46801,-0.44404 -0.46801,-1.13407 -0.46801,-1.13407l0.07698,-0.72434c0.76815,-2.2659 0.02503,-6.55225 1.29301,-8.36351c0.08329,-0.11897 0.17404,-0.23067 0.27102,-0.33631l-0.04334,-0.03612l1.24267,-1.4912c0.2751,-0.3349 0.69244,-0.54852 1.15967,-0.54852c0.33368,0 0.6419,0.10895 0.89105,0.29322c0.11501,-0.02824 0.23523,-0.04322 0.35895,-0.04322c0.43395,0 0.82486,0.18427 1.09875,0.47884c0.15231,-0.40039 0.59389,-1.17001 1.69543,-0.94971c1.47087,0.29417 1.1767,1.76505 1.1767,1.76505c-1.19208,5.95801 -1.51816,11.99969 -2.49128,17.95242l0.0092,0.22682c0.10942,0.45252 -0.01688,0.81014 -0.2004,1.07285c-0.1471,0.27094 -0.39646,0.53381 -0.81915,0.64642c-2.97669,1.50259 -5.70533,3.33413 -8.84765,4.51056z" fill="#baafcc"></path><path d="M290.34691,243.20829c0.21329,-0.85406 0.46719,-1.75622 0.763,-2.63437c-0.20614,-0.03607 -0.4291,-0.12642 -0.6651,-0.29499c-1.2206,-0.87186 -0.34874,-2.09246 -0.34874,-2.09246c0.15786,-0.21995 0.31433,-0.43261 0.4706,-0.63874v-0.9894c0,-4.631 0.26877,-9.61815 -0.47032,-14.20308c-0.49741,-3.08568 -2.44933,-6.34186 -2.26031,-9.55664c0.00109,-0.01856 0.00228,-0.03711 0.00355,-0.05564l-0.01134,0.00142l-0.24707,-1.97653c-0.00957,-0.06847 -0.01452,-0.13842 -0.01452,-0.20953c0,-0.82843 0.67157,-1.5 1.5,-1.5c0.65504,0 1.21202,0.41988 1.41647,1.00518l0.7334,1.95186c1.64793,3.68613 2.37113,7.98991 3.30563,11.93031c0.7509,3.16625 0.77317,6.16461 2.88111,8.82046c0.34919,0.3351 0.44785,0.69799 0.43654,1.01839c0.02221,0.33336 -0.07351,0.71658 -0.44864,1.07512l-0.32125,0.38737c0.07063,2.61043 -1.2251,2.23324 -2.19286,4.04127c-0.86102,1.6086 -1.47937,3.90077 -1.86483,5.67043l-0.05381,0.06352l0.03126,0.01042l-0.48906,1.46719c-0.1885,0.61294 -0.7592,1.05847 -1.43396,1.05847c-0.82843,0 -1.5,-0.67157 -1.5,-1.5v-1.5c0,0 0,-0.97018 0.78025,-1.35004z" fill="#baafcc"></path><path d="M271.94039,232.80322c-3.25958,0.22807 -6.25127,1.25511 -9.62372,1.25511c-3.82714,0 -6.03782,0.28616 -8.39489,-3.19839c-0.50581,-2.88667 -0.93494,-6.02719 -0.59387,-8.98488c0.10991,-0.95313 1.07695,-2.91271 0.25835,-3.95877c-1.41193,-1.80427 -2.78699,-2.97178 -3.96058,-4.66713c-0.33617,0.25325 -0.6821,0.5049 -0.95336,0.82286c-0.45769,0.53648 -0.88427,1.10647 -1.29426,1.69514c0.29945,0.5325 0.14383,1.15499 0.14383,1.15499c-1.57648,6.19977 -5.68453,10.31433 -10.83773,13.85991c-0.98087,0.67488 -1.62832,1.80397 -2.68111,2.36004c-0.52107,0.27522 -3.44194,0.58066 -3.98727,0.65298c-4.77175,0.63274 -8.7851,1.40335 -13.39742,-0.40919c-0.97252,-0.64446 -1.90512,-1.195 -2.90113,-1.66023c-3.32476,-0.6153 -5.40686,-1.82222 -8.17098,-3.81788c-0.2528,-0.29991 -2.40336,-2.7955 -2.59924,-3.23785c-0.91671,-2.07024 -0.29102,-4.82987 -0.12656,-6.9679c0.26591,-3.45682 0.9994,-7.48063 2.67238,-10.59896c0.89729,-1.6725 3.04711,-2.83405 3.67263,-4.58006c0.71758,-2.00296 0.91156,-3.66406 2.15314,-5.5467c0,0 0.44875,-0.67313 1.18148,-0.70114c12.60758,-11.88788 30.60364,-11.30354 45.88404,-17.83258c2.79989,-0.54491 5.65899,-1.045 8.53259,-0.88089c3.63592,0.20765 6.20212,2.16755 8.85096,4.33665c6.23408,5.10501 8.32534,10.67256 10.4913,18.24793l0.03099,0.3555c0.34611,1.20378 0.51042,2.48342 1.09436,3.58975c0.47498,0.89991 1.62976,1.28057 2.18113,2.13581c0.36942,0.57302 0.32582,1.33294 0.61271,1.95142c2.05739,4.4354 6.88202,9.32312 3.6645,14.6682c-0.62348,1.03575 -1.59358,1.8186 -2.40828,2.71179c-1.36726,1.49898 -2.72876,2.63703 -4.45592,3.58265c-0.09171,0.19719 -0.22455,0.35593 -0.35249,0.47624c-0.16136,0.17161 -0.39187,0.35201 -0.69153,0.43018c-4.59804,2.20049 -9.00699,2.40649 -13.99402,2.75543z" fill="#111732"></path><path d="M222.97349,140.06775c1.63485,-1.05454 3.06051,-1.96613 5.1672,-1.14523c0.96766,0.37706 3.6391,3.76552 4.05989,4.41429c3.81551,5.88266 2.54807,13.30883 4.73779,19.84324c1.27533,3.83383 3.10178,7.60026 4.08117,11.50526c1.09866,4.38057 1.0487,8.9293 1.04716,13.43894c0.08437,-0.01556 0.16883,-0.03073 0.25337,-0.0455l1.05726,2.79025c0,0 -0.72867,0.72867 -1.58205,0.37413c-2.68108,0.65561 -5.28064,2.14908 -7.85466,3.08084c-4.68218,1.69487 -9.54343,3.74288 -14.46378,4.74686c-0.2094,0.57606 -0.76174,0.98751 -1.41017,0.98751h-2v-0.03101c-0.04903,0.00878 -0.0983,0.0167 -0.14781,0.02371c-7.12509,1.00922 -8.18519,-7.9425 -7.06207,-12.83733c0.5307,-2.3129 2.52525,-3.41566 4.32449,-4.6162l0.31688,-0.25398c0.24673,-1.64791 0.37693,-3.32349 0.57987,-4.96954c0.53451,-4.33547 1.91037,-8.55052 2.2424,-12.92198c0.32268,-4.24828 0.14857,-8.51262 0.50141,-12.76823c0,0 0.04815,-0.57781 0.44381,-0.98501c0.70707,-4.19092 1.83577,-8.13338 5.70783,-10.63101z" fill="#a69cb5"></path><path d="M179.82994,287.69256c0.15137,-0.90729 1.67356,-2.68422 2.31542,-3.48794l1.11064,-1.12362c0,0 0.31195,-0.31195 0.76667,-0.42832c1.47562,-3.79959 3.37534,-7.65188 5.28049,-10.81945c0.95977,-1.59574 2.62615,-2.7145 3.36065,-4.47261c2.6658,-6.38092 4.04876,-12.89032 5.21337,-19.64072c0.27026,-0.6397 0.54051,-1.27941 0.81077,-1.91911l0.15785,-0.9533c0,0 0.03164,-0.15822 0.12606,-0.36049c0.33712,-2.46788 0.54803,-4.96428 0.84029,-7.63619c0.00299,-0.03914 0.00727,-0.07723 0.01251,-0.11404c0.00039,-0.00358 0.00079,-0.00716 0.00118,-0.01075c0,0 0.01175,-0.10573 0.05714,-0.25774c0.04447,-0.15229 0.09204,-0.24743 0.09204,-0.24743l0.00303,-0.00572c0.02628,-0.05724 0.0569,-0.11611 0.09253,-0.17482l0.27549,-0.5205c2.27221,-3.1408 4.82259,-4.32012 8.0636,-5.69283c0.04702,-0.03924 0.09404,-0.07855 0.14105,-0.11794c0.06917,-0.91625 1.04161,-1.2404 1.04161,-1.2404c0.09083,-0.02921 0.18053,-0.0557 0.26914,-0.07992c0.43727,-0.56581 0.86477,-1.13848 1.51883,-1.33081c0.14879,-0.04375 0.29887,-0.07086 0.44999,-0.08456l-0.01021,-0.06128l1.47213,-0.24535c0.08899,-0.01645 0.18072,-0.02505 0.27447,-0.02505c0.1861,0 0.36429,0.03389 0.52873,0.09584l0.11457,-0.07729c0.15607,-0.10878 0.3338,-0.18865 0.52541,-0.23184c0.23671,-0.06337 0.53295,-0.09125 0.83346,0.01306c0.74463,-0.27325 1.43486,0.27893 1.43486,0.27893c1.05432,0.84581 2.01385,1.75624 2.961,2.69497c1.36426,0.55197 2.81618,0.80286 4.18578,1.72944c0.98263,0.66478 3.25683,2.7117 3.63961,4.65643c0.06878,0.05701 0.13989,0.11342 0.21361,0.16916l0.60095,0.58844c0.00764,0.00732 0.01519,0.01472 0.02267,0.0222c0.12891,0.12891 0.23447,0.28118 0.30978,0.44992c0.12281,0.24894 0.21575,0.58152 0.12558,0.94666c-0.00118,0.04043 -0.00347,0.06334 -0.00347,0.06334c-0.01035,0.10121 -0.02066,0.2019 -0.03101,0.30209c0.76444,0.56504 1.43793,1.14749 1.50933,1.50448c0.14684,0.73422 -1.65764,3.27749 -2.19017,4.07507c-1.68936,3.0387 -2.71934,6.44764 -4.31582,9.51993c-0.10359,1.05656 -0.25634,2.07365 -0.54944,2.94568c-0.4948,1.47211 -1.88227,2.5144 -2.46346,3.95459c-0.96845,2.3998 -2.21659,4.62634 -3.33233,6.93114c-0.16351,0.92883 -0.34848,1.84121 -0.59669,2.7165c-0.63009,2.22193 -1.46831,3.84136 -1.78804,6.1134c0,0 -0.00965,0.06756 -0.03925,0.1718c-0.05407,0.21871 -0.16195,0.49244 -0.37721,0.71407c-0.24532,2.22881 -0.35983,4.63342 0.35455,6.67765l0.07914,0.14245c0.29947,0.41942 0.32349,0.81136 0.24131,1.13348c-0.04755,0.31727 -0.21146,0.65607 -0.61717,0.92234c-2.90292,2.46159 -6.06763,4.25691 -8.00695,7.63832l-0.39341,1.20056c-0.07552,0.46571 -0.31892,0.74873 -0.58686,0.92073c-0.24694,0.19903 -0.5907,0.34012 -1.05368,0.26645c-7.02847,0 -14.05694,0 -21.08541,0h-0.27339c-0.42896,0.08875 -0.76992,-0.0349 -1.02288,-0.21161c-0.27546,-0.14955 -0.54257,-0.4048 -0.65193,-0.84044c-0.78251,-1.66562 -2.31104,-5.5136 -2.03853,-7.14705z" fill="#a69cb5"></path><path d="M291.11084,227.33746c1.47087,0.29417 1.1767,1.76505 1.1767,1.76505c-0.17103,0.85515 -0.32946,1.70205 -0.47589,2.54497c-0.03314,2.9159 -0.21276,5.89342 -0.00009,8.78713c0.07874,1.07143 0.75161,2.02117 0.97448,3.07212c0.73364,3.4596 1.48277,7.32229 2.01613,10.84355c0.38991,2.57419 0.33178,5.21855 0.75939,7.83433c0.00657,2.08605 0.02426,4.32212 0.16838,6.49782c0.83673,0.35945 0.83673,1.3759 0.83673,1.3759l-0.00917,0.58435c0.25024,2.2724 0.56556,4.63501 0.69718,6.95358c0.03377,0.30884 0.05554,0.62202 0.06184,0.94094l0.00015,0.77113c0,0 0,0.01414 -0.00137,0.03967c0.00064,0.06511 0.00108,0.13015 0.00132,0.19513c0.00003,0.00505 0.00005,0.01012 0.00005,0.01521c0,0.52094 -0.18092,0.86097 -0.4171,1.0829c-0.22193,0.23618 -0.56196,0.4171 -1.0829,0.4171c-1.65342,0 -4.42267,0 -6.19925,0l-0.32456,0.13888c-4.15328,3.55642 -7.20608,7.6316 -10.93402,11.43673c-0.18525,0.30335 -0.46529,0.47025 -0.71737,0.56207c-0.24069,0.11215 -0.55276,0.19168 -0.89412,0.11232h-0.31784c-0.40856,0.25 -0.86284,0.25 -0.86284,0.25l-0.52566,-0.07698c-0.60808,0.20269 -3.35152,1.16112 -3.73771,1.05367c-4.86195,-1.35272 -1.63799,-8.24787 -0.65965,-11.20104c0,0 0.05844,-0.17531 0.19582,-0.38235c-0.1275,-2.20957 -0.26296,-4.41726 -0.27228,-6.65045l-0.45628,-1.38128c-0.19856,-1.17574 -0.45956,-2.34116 -0.74945,-3.49777c-1.3819,-5.52762 -2.26242,-11.04238 -3.50807,-16.53394c-0.47767,-2.10586 -0.16617,-4.50893 -0.93793,-6.54451c-1.05425,-2.78069 -3.35591,-5.5837 -4.78563,-8.31238c-0.21147,-0.25623 -0.28566,-0.55764 -0.3039,-0.80934c-0.04656,-0.31589 -0.02294,-0.72892 0.27341,-1.08717l0.53029,-1.24777c0.81797,-0.65438 1.63595,-1.30876 2.45392,-1.96314c1.70124,-5.12911 7.12521,-9.15481 9.43576,-13.86845l0.08146,-0.05771l-0.03217,-0.02145l0.98709,-1.48064c0.26708,-0.41355 0.73206,-0.68731 1.26098,-0.68731c0.82843,0 1.5,0.67157 1.5,1.5c0,0.01016 -0.0001,0.0203 -0.0003,0.03041c0.03083,-0.01485 0.06201,-0.02449 0.09351,-0.02751c0.78377,-0.07516 1.58965,0.07756 2.34147,0.31146c3.83094,1.1919 7.47454,4.17402 11.17453,5.81492l0.96111,0.86748c0.07141,0.00616 0.14598,0.01679 0.22385,0.03236z" fill="#a69cb5"></path><path d="M193.14814,148.88966c-1.46036,-1.426 -2.92924,-3.08372 -3.07541,-4.69662c-0.15565,-1.71756 0.58169,-3.07452 1.53156,-4.34257c0.22867,-3.05938 1.80949,-6.07569 3.69375,-8.80724c0.47845,-1.29643 1.08808,-2.53356 1.86465,-3.69191c0.18546,-0.49758 0.35345,-0.99862 0.42162,-1.52238l0.01089,-0.01586l-0.00812,-0.00135l0.24595,-1.47568c0.1074,-0.72302 0.73074,-1.27772 1.48364,-1.27772c0.34866,0 0.66954,0.11896 0.92426,0.3185l0.39578,-0.49472c0.27463,-0.34938 0.70109,-0.57378 1.17996,-0.57378c0.35488,0 0.68098,0.12324 0.93783,0.32926c0.62106,-0.54716 1.22655,-1.1122 1.81179,-1.69695c1.90141,-1.48777 3.08483,-1.8689 5.50038,-1.88231c1.92381,-0.01068 3.77244,-0.16947 5.60683,0.62823c2.13208,0.92715 2.8857,2.52261 3.95146,4.38804c2.23403,3.91028 3.72361,8.06127 5.88406,11.98788c1.27461,2.31659 2.54923,3.96546 3.57026,6.37417c0.13866,0.20602 0.23249,0.47959 0.2372,0.84287c0.01535,0.26687 -0.02477,0.5955 -0.22947,0.88888c-0.19638,0.29902 -0.4866,0.45832 -0.74008,0.54318c-0.12338,0.04751 -0.24012,0.07964 -0.35041,0.09879c-4.26405,2.70879 -8.35306,6.08092 -12.73337,8.51116c-3.32152,1.84281 -7.14523,1.88723 -10.74747,2.67379c-0.45443,0.16278 -0.82237,0.0906 -1.10381,-0.06124c-0.29116,-0.12095 -0.57524,-0.35599 -0.73674,-0.79895c-2.56205,-1.43995 -5.31441,-2.71028 -8.01349,-3.86846c-0.44082,-0.09752 -0.70417,-0.35288 -0.8615,-0.62318c-0.15693,-0.21131 -0.27455,-0.48746 -0.25781,-0.83405z" fill="#baafcc"></path><path d="M312.81474,94.64038c-0.58653,0.87979 -1.37979,0.72595 -1.79687,0.55855c-0.70367,0.95913 -2.38589,1.74901 -3.00023,2.26942c-2.30253,1.95049 -3.92627,3.74744 -6.11054,5.06058c-0.0738,0.09313 -0.14803,0.18638 -0.22275,0.27978l-0.12719,-0.07639c-0.0142,0.00797 -0.02842,0.01592 -0.04266,0.02385l0.11282,0.11282l-0.22896,0.22896l0.10534,0.13168l-1.25,1l-0.33952,-0.4244c-0.06793,0.1172 -0.13553,0.23428 -0.20287,0.35123c-0.2642,2.52035 -0.98697,5.2333 -0.43478,7.55724c0.65588,2.7603 3.96158,4.37313 5.67317,6.36166c1.43883,1.67164 2.58386,3.50138 4.47328,4.75142c1.33123,0.88074 3.18969,1.74779 4.39644,2.86599c2.29967,2.13094 3.99854,4.39868 6.63262,6.15473c1.06659,0.85235 2.34356,1.46982 3.255,2.48638c2.53615,2.82866 3.52612,7.97468 4.55191,11.56236l0.05398,1.08689c0.00373,0.04764 0.00373,0.07519 0.00373,0.07519c0,0.58333 0,1.16667 0,1.75v1.5c0,0.56983 -0.31775,1.06545 -0.78573,1.31935c-0.21473,5.90784 -1.54146,13.35401 -7.71776,15.5961c-1.99289,0.72345 -5.48732,0.40144 -7.59112,0.57667c-2.48566,0.27539 -5.80378,0.28143 -8.92696,0.71096c1.09211,1.7208 2.15217,3.45103 2.71586,5.39193c0.49834,1.71589 0.30571,3.64526 0.30571,5.405v0.10597c0.06675,0.47255 -0.07959,0.81649 -0.28466,1.06076c-0.1589,0.23522 -0.40649,0.44739 -0.7923,0.5375c-0.00202,0.0128 -0.0041,0.0256 -0.00625,0.0384c-0.43241,2.57682 -3.86001,5.06207 -5.78031,6.46739c-4.37763,3.20366 -9.26513,4.14671 -14.3399,4.42427l-0.75973,1.13959c-0.55122,1.09959 -1.19236,2.15516 -1.87685,3.17711c-1.28164,1.28879 -3.13635,3.76104 -4.9135,4.46446c-0.49958,0.19774 -1.0975,-0.12213 -1.61151,0.03431c-0.07357,0.02239 -0.14658,0.04571 -0.21909,0.06986c-6.89877,5.32397 -14.5268,3.48322 -21.6688,-1.22224c-2.30408,-1.14783 -3.90483,-1.55131 -6.49711,-1.54737h-1c0,0 -1.07025,0 -1.40269,-0.90403c-2.1535,0.15637 -4.31572,0.15565 -6.59731,0.15403c-3.15986,-0.00224 -6.49881,-0.08335 -8.67587,-2.81869c-1.80263,-2.2649 -1.77904,-7.13618 -2.29844,-9.90487c0,0 -0.00972,-0.05186 -0.0158,-0.13794c-0.00989,-0.08573 -0.00989,-0.13849 -0.00989,-0.13849l0.0259,-0.47248c-0.11215,-0.60033 -0.22431,-1.20066 -0.33646,-1.801c-3.68221,-11.85341 0.59604,-25.38783 -6.47769,-36.3258l-0.29379,-0.15265c-4.20004,-2.80003 -7.72691,-5.41688 -11.06248,-9.27851c-1.41704,-1.64053 -2.07929,-3.65173 -3.32233,-5.3425c-1.6445,-2.23683 -3.47022,-3.40251 -4.48115,-6.2356c-0.5308,-1.48753 0.00013,-4.09109 0.21309,-5.6036c0,0 0.19164,-1.34151 1.4857,-1.29221c0.51336,-0.68677 1.25711,-1.30861 2.05496,-1.90217c0.04912,-0.17487 0.12914,-0.33681 0.23381,-0.47955l1.23985,-1.7358l0.28705,0.20503c0.64764,-1.15268 1.42532,-1.9529 2.71669,-3.71024c0.47419,-0.64529 0.56074,-1.54658 1.10706,-2.13206c0.04967,-0.05323 0.10043,-0.10516 0.1522,-0.15591c0.5445,-1.53098 1.02364,-3.09333 1.57299,-4.41188c0,0 0.57692,-1.38462 1.96154,-0.80769c1.38462,0.57692 0.80769,1.96154 0.80769,1.96154c-0.04013,0.0963 -0.07994,0.19355 -0.11947,0.29168c0.02471,-0.0203 0.04949,-0.04052 0.07437,-0.06066c0.12438,-0.10073 0.25154,-0.19881 0.38113,-0.29459c1.37436,-1.16114 3.09938,-2.56251 4.0625,-3.89042c0.38056,-0.5247 0.43045,-1.29508 0.93056,-1.70741c1.9898,-1.64055 5.0483,-1.93559 7.28341,-3.21289c3.7804,-2.16039 6.87599,-4.3743 11.00356,-5.90744c-0.00044,-0.01501 -0.00067,-0.03008 -0.00067,-0.0452c0,-0.52892 0.27376,-0.9939 0.68731,-1.26098l1.42394,-0.9493c0.54321,-0.46677 1.08642,-0.93354 1.62962,-1.4003c0.2263,-0.22263 0.56811,-0.44152 1.02542,-0.41701c0.28425,-0.00922 0.60143,0.07228 0.91178,0.33893c0.16555,0.11719 0.28737,0.24705 0.37544,0.38208c1.75697,-0.73598 4.07233,-1.08706 5.86354,-1.19113c10.63838,-0.61806 21.61337,-2.80779 32.269,-1.49071c3.03872,0.40917 5.95283,1.70902 8.97879,2.45283c0.27315,-0.28615 0.65834,-0.46442 1.08516,-0.46442c0.1976,0 0.38628,0.03821 0.55905,0.10764l1.96763,0.73786l-0.05555,0.14812c0.17564,0.00567 0.35191,0.00788 0.52886,0.00637h0.5c0,0 1.18036,0 1.44694,1.04707c3.24151,1.16395 6.35678,2.85591 9.71015,3.95293c0.94764,0 1.89528,0 2.84292,0l1.58205,0.75192c0,0 1.24808,0.83205 0.41603,2.08013z" fill="#731d67"></path><path d="" fill="#6390d6"></path><path d="M201.4193,292.80087c0.63246,-1.89737 2.52982,-1.26491 2.52982,-1.26491l0.26673,0.12217c0.58401,-0.47481 1.35082,-0.47481 1.35082,-0.47481c0.08919,0 0.17838,0 0.26756,0c0.28258,-0.48849 0.76583,-0.84637 1.33703,-0.96092l1.79983,-0.39996c0.43726,-0.52618 -0.21103,-1.6312 0.13714,-2.29477c0.09664,-0.18419 0.20568,-0.35958 0.32457,-0.52798l-0.10263,-0.05864l0.98074,-1.71629c0.33953,-0.62058 0.99849,-1.04143 1.75575,-1.04143c0.87385,0 1.61681,0.56043 1.88905,1.34147l0.63685,1.69826c1.36485,1.51432 2.54619,2.50448 2.56099,3.96027h1.41311c1.10457,0 2,0.89543 2,2c0,1.10457 -0.89543,2 -2,2c-0.15818,0 -0.77642,0 -1.43866,0c-0.36653,0.45723 -0.92975,0.75 -1.56134,0.75h-2c-2.24013,0.74671 -6.40638,0 -8.75,0l-2.13246,-0.60263c0,0 -1.89737,-0.63246 -1.26491,-2.52982zM212.80585,291.18333c-0.00923,-0.01135 -0.01846,-0.0227 -0.02771,-0.03403c-0.0079,0.01135 -0.01585,0.02269 -0.02383,0.03403c0.01718,0 0.03436,0 0.05154,0z" fill="#baafcc"></path><path d="M301.35841,292.8409c-0.90984,0.03425 -1.77697,0.0091 -2.29174,0.0091c-0.62438,0 -1.24876,0.00213 -1.87315,0.00599c-0.35567,0.04084 -0.72526,0.04144 -1.10246,0.00854c-5.68033,0.05247 -11.35948,0.22941 -17.02439,0.23547c0,0 -2,0 -2,-2c0,-2 2,-2 2,-2c0.14621,0.00017 0.29243,0.00016 0.43867,-0.00001c0.0089,-0.0111 0.01791,-0.0221 0.02704,-0.033l1.27806,-1.55009l0.01948,0.01606l0.01669,-0.0587c2.20374,-2.38503 4.51829,-4.49907 6.80586,-6.78848c0.83407,-0.74101 1.43123,-1.91034 2.5022,-2.22304c4.27591,-1.24848 4.83825,2.05123 7.25534,4.15554c1.40371,1.22207 3.16696,1.99862 4.5241,3.27221c0.14555,0.13659 0.31698,0.30834 0.50314,0.50767c1.24854,0.51185 2.52692,1.03008 2.61438,1.12865c1.00212,1.12941 2.44246,2.75354 1.84128,4.1386c-0.77952,1.79591 -3.46851,1.70407 -5.53448,1.17548zM295.57198,288.56889c-0.05846,-0.06714 -0.11746,-0.13512 -0.17765,-0.2003l-0.16564,0.11043c0.11175,0.0306 0.22793,0.06049 0.34329,0.08987zM295.0975,288.44207c0.01251,0.00364 0.02512,0.00726 0.0378,0.01088l-0.01785,-0.02678c-0.00664,0.00532 -0.01329,0.01062 -0.01995,0.0159z" fill="#baafcc"></path><path d="M398.3013,110.19776c-0.90153,-0.44628 -1.51192,-1.14265 -2.01213,-1.91005c-1.42742,-0.28923 -2.55811,-1.57319 -3.47189,-2.83268l-2.18833,0.97259l-0.03275,-0.07369c-0.08396,0.06085 -0.1695,0.11976 -0.25679,0.17654c-0.43214,0.28113 -0.96421,0.28075 -1.50228,0.26917c-2.06616,0.8617 -4.36104,2.2642 -6.08169,2.50163c-1.4219,0.19621 -3.32798,0.40121 -4.24886,-0.69982c-0.09383,-0.11219 -0.17245,-0.23479 -0.23698,-0.3664c-0.37497,-0.10603 -0.72745,-0.25743 -1.05092,-0.4634c-1.78272,-1.13514 -2.00883,-3.49638 -2.14816,-5.29738c-0.19068,-2.4647 -0.18748,-5.07127 0.9446,-7.14686c-0.9615,-0.1454 -1.69847,-0.97534 -1.69847,-1.97742c0,-0.61217 0.27504,-1.16011 0.70829,-1.52697l1.74013,-1.49154l0.0652,0.07606c0.16655,-0.15938 0.34622,-0.30504 0.5425,-0.43332c2.05587,-1.3436 3.96191,0.35288 5.63778,1c0.22986,0.08876 0.45933,0.15653 0.68851,0.20767c1.16973,-0.2324 2.50562,-0.01539 3.68374,-0.28428c0,0 1.2241,-0.27202 1.94916,0.58399c1.03473,0.27162 1.92675,0.58116 2.87321,0.84841c0.39129,-0.01377 0.77502,-0.04317 1.14893,-0.09291c-0.02456,-0.12524 -0.03744,-0.25467 -0.03744,-0.38711c0,-0.68055 0.33991,-1.2817 0.85921,-1.64296l1.72831,-1.23451l0.04299,0.06018c1.00585,-1.53257 2.12024,-2.98437 3.43794,-4.26549l0.55889,-1.61948c0,0 0.00019,-0.00052 0.00059,-0.00154c0.13187,-0.39574 0.39968,-0.85952 0.94357,-1.11106c0.32921,-0.18533 0.75358,-0.28306 1.28695,-0.16183c0.54197,0.07376 0.905,0.31428 1.14818,0.6034c0.42093,0.4265 0.50885,0.95478 0.49337,1.37163c0.00001,0.00109 0.00001,0.00165 0.00001,0.00165c-0.0001,0.05877 -0.00035,0.11752 -0.00075,0.17624c0.31163,0.35267 0.50075,0.81613 0.50075,1.32376c0,0.37373 -0.10251,0.72351 -0.28094,1.02277l-0.35512,0.62145c-0.09961,1.25828 -0.24402,2.51134 -0.3993,3.76827c2.08815,-0.87767 3.8146,-1.44073 5.38393,-0.05538c4.4624,-0.14785 8.92848,-0.35712 13.40143,-0.35712h2c1.10457,0 2,0.89543 2,2c0,0.68055 -0.33991,1.2817 -0.85921,1.64296l-1.72831,1.23451l-0.02767,-0.03874c-0.0633,0.06021 -0.12805,0.11905 -0.19442,0.1764c-1.71406,1.48127 -4.65534,0.89467 -6.70532,1.42516l-1.68563,0.48276c0,0 -0.05548,0.01585 -0.15028,0.03275c-0.09384,0.02161 -0.15109,0.02876 -0.15109,0.02876c-0.48197,0.06025 -0.96393,0.12049 -1.4459,0.18074c-0.92925,2.94288 -2.62444,5.96697 -4.01083,8.72287c0.03067,0.40419 -0.09132,0.75409 -0.25344,1.03192c-0.16383,0.36457 -0.45419,0.74339 -0.96884,0.94099c-2.46065,1.62615 -6.66874,3.43002 -9.58442,1.98668zM384.26509,96.58149l0.04548,0.05306c0.08663,-0.09464 0.1767,-0.18642 0.27071,-0.27494c0.1522,-0.14333 0.48521,-0.29262 0.91326,-0.43924c-0.31191,0.00226 -0.6213,0.01287 -0.92758,0.03415c-0.06237,0.02526 -0.1263,0.04746 -0.19161,0.06642c-0.05257,0.20806 -0.10385,0.40674 -0.15345,0.59759z" fill="#baafcc"></path><path d="M258.35375,69.70466c0.65324,2.28356 0.71724,3.45861 -0.2441,4.85017l0.21255,0.12976l-0.89469,1.46556c-0.33028,0.55909 -1.03547,0.79178 -1.64113,0.5186c-0.41484,-0.18711 -0.68268,-0.56632 -0.74585,-0.98515l-0.24353,-1.46914c-0.25083,-0.98697 -0.34747,-2.71079 -0.85346,-3.56942c-0.37305,-0.63303 -1.53152,-0.98715 -1.39265,-1.70868c0.63649,-3.30719 3.46656,-1.95449 5.26925,-1.47766c0,0 1.24769,0.33002 0.91767,1.57771c-0.08222,0.31085 -0.2214,0.52377 -0.38406,0.66826z" fill="#6390d6"></path><path d="M188.26689,190.28128c-0.08223,-0.07337 -0.1625,-0.14873 -0.24067,-0.22608c-1.32629,-0.53239 -2.77775,-0.61361 -3.72829,-1.62662c-0.90993,-0.96971 -1.18346,-2.63743 -0.94283,-4.20062c-0.79432,-1.16121 -1.39186,-2.5166 -0.70563,-3.69466c0.71069,-1.22002 4.30402,-1.69996 5.56287,-1.50404c0.32965,0.0513 0.62745,0.11691 0.89912,0.19542c0.02058,-0.08641 0.04019,-0.16912 0.05869,-0.24791c0,0 0.3011,-1.28283 1.58394,-0.98173c1.28283,0.3011 0.98173,1.58394 0.98173,1.58394c-0.08924,0.38022 -0.16873,0.75865 -0.23998,1.13566c0.49208,0.51448 0.95108,1.10462 1.56526,1.72462c0.46048,0.28023 0.84306,0.61007 1.14497,1.00875c2.17814,1.68477 5.1272,3.12713 4.00921,6.58497c-0.25259,0.78124 -0.95738,1.33415 -1.43608,2.00121c-1.39238,0.20607 -2.5112,0.4358 -3.73301,0.4008c-0.20306,0.65499 -0.88151,1.05043 -1.55935,0.89134c-0.53045,-0.1245 -0.91014,-0.55333 -0.99768,-1.05832c-1.1323,-0.21214 -1.82768,-0.95001 -2.22224,-1.98677z" fill-opacity="0.99216" fill="#731d67"></path><path d="M298.78334,61.8c0,0 -2.25,0 -2.25,-2.25c0,-2.25 2.25,-2.25 2.25,-2.25c4.75589,0 9.60594,-0.30642 14.3182,0.35595l2.0517,0.34133c0,0 0.41741,0.06957 0.86002,0.32939c8.55294,0.12861 17.37884,0.73116 25.76242,1.99703c2.37203,0.35816 4.62618,1.32808 7.00105,1.66682c2.90594,0.41449 6.23269,-0.2675 9.12567,0.35543c2.76681,0.59577 5.95308,2.34406 8.57319,3.39652c3.78468,0.9491 6.59166,2.96822 10.14614,4.38623c4.10315,1.6369 8.53733,2.35115 12.64395,3.99102c2.75276,1.09924 5.19587,2.89641 7.81597,4.06438c6.41857,2.86123 13.31315,4.15605 19.70792,7.35344l1.61114,1.75764c0.72422,0.27158 1.44844,0.54317 2.17266,0.81475l2.61748,0.98156c0.87867,0.30628 1.50916,1.1421 1.50916,2.12518c0,1.1679 -0.88983,2.12798 -2.02851,2.23924l-2.97302,0.33034l-0.00507,-0.04564c-0.08071,0.02108 -0.16184,0.04091 -0.2434,0.0594c-0.46906,0.10635 -0.94717,0.08663 -1.42774,0.01596c-0.16993,1.98404 -2.23893,1.98404 -2.23893,1.98404h-1.33333c-8.70076,0 -17.25752,-0.05733 -25.91006,-1.0132c-2.90432,-0.32085 -7.22804,0.4785 -9.94021,-0.38032c-0.99702,-0.31571 -2.1849,-0.79598 -3.13633,-1.49058c-0.40782,-0.17293 -0.84028,-0.48341 -1.07859,-1.04081c-0.66378,-0.89423 -0.90174,-2.02578 -0.28336,-3.4448c-1.59246,-1.55318 -3.28367,-2.91133 -5.43031,-4.22763c-2.20683,-1.76265 -4.18504,-3.81347 -6.48255,-5.45617c-3.38148,-2.41774 -8.37872,-3.66286 -12.09042,-5.52354c-12.23777,-6.13479 -25.44255,-8.75473 -38.92725,-10.44032c0,0 -1.08116,-0.13515 -1.64471,-0.96971c-3.56288,-0.22267 -7.19401,-0.01291 -10.74287,-0.01291z" fill-opacity="0.9451" fill="#baafcc"></path></g></g></svg>