<svg version="1.1" xmlns="http://www.w3.org/2000/svg" xmlns:xlink="http://www.w3.org/1999/xlink" width="358" height="301" viewBox="0,0,358,301"><g transform="translate(-59.5341,91.10001)"><g stroke="none" stroke-miterlimit="10"><path d="M179.88969,168.47669c0.00681,-0.07596 0.01367,-0.15197 0.02058,-0.22803c0,0 0.22634,-2.48973 2.71607,-2.26339c2.48973,0.22634 2.26339,2.71607 2.26339,2.71607c-0.24261,2.66742 -0.45779,5.32824 -0.56151,8.00459l1.24432,2.28125c0.20838,0.36495 0.32746,0.78748 0.32746,1.23782c0,1.38071 -1.11929,2.5 -2.5,2.5c-0.63486,0 -1.21445,-0.23664 -1.65538,-0.62653l-1.99089,-1.74202l0.12073,-0.13798c-0.22848,-0.1515 -0.44578,-0.32012 -0.64908,-0.51014c-1.50203,-1.40396 -1.07347,-7.27743 -1.07539,-9.23332z" fill="#0a060f" stroke-width="0.5"></path><path d="M191.78507,165.22924c1.09796,-0.29486 2.53899,0.19127 3.72376,0.27164c3.04617,0.20665 5.90891,1.61655 7.63402,4.36974c0.6837,1.09115 0.20706,2.5677 0.25716,3.85438c0.08978,2.30572 0.59008,7.20216 -0.55629,9.19902c-0.69964,1.21871 -2.00909,2.00519 -3.21431,2.72781c-1.16697,0.69968 -2.48765,1.13627 -3.80411,1.48024c-11.58706,3.0275 -9.24348,-13.62202 -7.60065,-20.26341c0,0 0.60634,-2.42536 3.0317,-1.81902c0.19526,0.04881 0.37087,0.10942 0.52873,0.1796zM194.82781,178.23608c-0.01222,0.05231 -0.02541,0.10602 -0.03904,0.15983c0.01042,0.00697 0.02078,0.01402 0.03109,0.02115c0.00666,-0.06237 0.00923,-0.12266 0.00794,-0.18098z" fill="#0a060f" stroke-width="0.5"></path><path d="M216.80207,168.09379c0.87794,-0.36547 1.77551,-0.70067 2.61935,-1.1187c3.34733,1.52509 7.77394,2.82753 8.45713,7.1732c0.19841,1.26204 -0.55937,2.4946 -0.76559,3.75539c-0.6967,4.25951 -2.38733,11.55529 -6.9111,13.58926c-1.30127,0.58508 -2.83174,0.58763 -4.25395,0.47388c-7.7343,-0.61863 -8.1276,-8.11135 -6.73105,-14.0662c0.76044,-3.24249 1.85008,-6.31889 3.12543,-9.38716c0,0 0.96154,-2.30769 3.26923,-1.34615c0.5824,0.24267 0.95658,0.57107 1.19053,0.92649z" fill="#0a060f" stroke-width="0.5"></path><path d="M236.80463,168.56788c2.03518,-1.19587 4.05732,-0.864 7.74053,-0.31518c1.50836,1.57399 3.66483,3.47321 4.45851,5.62954c1.74105,4.73023 0.7356,14.89661 -2.96259,18.47872c-3.53637,3.42535 -11.06963,1.68827 -13.70356,-1.97311c-2.22955,-3.09926 -1.41796,-7.63987 -1.02021,-11.21886c-0.2701,-0.62947 -0.42649,-1.51286 -0.4152,-2.79659c0.00694,-0.78872 0.32619,-1.52349 0.76082,-2.21589c0.12515,-1.45015 0.39303,-2.8371 1.21116,-4.71603c0,0 1.03451,-2.27592 3.31042,-1.24141c0.24255,0.11025 0.44751,0.2346 0.62012,0.3688z" fill="#0a060f" stroke-width="0.5"></path><path d="M302.10622,171.4653c-0.00192,1.95588 0.42664,7.82935 -1.07539,9.23332c-0.2033,0.19003 -0.4206,0.35864 -0.64908,0.51014l0.12073,0.13798l-1.99089,1.74203c-0.44092,0.38989 -1.02051,0.62653 -1.65537,0.62653c-1.38071,0 -2.5,-1.11929 -2.5,-2.5c0,-0.45034 0.11907,-0.87287 0.32745,-1.23782l1.24432,-2.28125c-0.10372,-2.67635 -0.3189,-5.33718 -0.56151,-8.00459c0,0 -0.22634,-2.48973 2.26339,-2.71607c2.48973,-0.22634 2.71607,2.2634 2.71607,2.2634c0.00691,0.07606 0.01378,0.15207 0.02058,0.22803z" fill="#0a060f" stroke-width="0.5"></path><path d="M288.99988,166.03994c2.42535,-0.60634 3.03169,1.81902 3.03169,1.81902c1.64283,6.64139 3.98642,23.2909 -7.60064,20.26341c-1.31645,-0.34396 -2.63714,-0.78056 -3.80411,-1.48024c-1.20523,-0.72262 -2.51467,-1.5091 -3.21431,-2.72781c-1.14637,-1.99686 -0.64607,-6.89329 -0.55629,-9.19902c0.0501,-1.28668 -0.42654,-2.76323 0.25716,-3.85438c1.72511,-2.75319 4.58785,-4.16308 7.63402,-4.36973c1.18477,-0.08038 2.62579,-0.56651 3.72376,-0.27165c0.15786,-0.07018 0.33347,-0.13079 0.52873,-0.1796zM285.43635,179.40736c0.01031,-0.00713 0.02067,-0.01417 0.03109,-0.02115c-0.01363,-0.05381 -0.02681,-0.10753 -0.03903,-0.15983c-0.00128,0.05831 0.00128,0.11862 0.00795,0.18098z" fill="#0a060f" stroke-width="0.5"></path><path d="M264.64468,168.1576c2.30769,-0.96154 3.26923,1.34616 3.26923,1.34616c1.27535,3.06826 2.36499,6.14467 3.12543,9.38715c1.39655,5.95485 1.00326,13.44758 -6.73105,14.06621c-1.42221,0.11375 -2.95267,0.11119 -4.25394,-0.47388c-4.52377,-2.03397 -6.2144,-9.32975 -6.9111,-13.58926c-0.20622,-1.26079 -0.964,-2.49335 -0.76558,-3.7554c0.68319,-4.34567 5.1098,-5.6481 8.45713,-7.17319c0.84384,0.41804 1.74141,0.75324 2.61935,1.11871c0.23396,-0.35541 0.60814,-0.68383 1.19054,-0.92649z" fill="#0a060f" stroke-width="0.5"></path><g fill-opacity="0.41961" fill="#0a060f" stroke-width="0.5"><path d="M199.6378,173.91389c1.38681,0.92454 1.23265,2.15727 0.97583,2.87631c0.28036,0.5866 0.52027,1.22526 0.74635,1.80884c0.19484,0.27589 0.31907,0.61331 0.39873,0.98794c0.50625,1.32984 0.53857,3.00673 0.34449,4.6967c0.46459,4.65436 -1.51222,8.98656 -3.78782,12.83695c-0.25381,-0.01022 -0.51404,-0.00188 -0.77812,0.01756c-0.37578,0.2259 -0.81582,0.35581 -1.28621,0.35581c-0.26221,0 -0.51499,-0.04037 -0.75246,-0.11523c-1.0529,0.11023 -2.06406,0.09996 -2.87536,-0.48736c-0.61759,-0.44709 -0.89456,-1.1466 -1.03961,-1.9324c-0.59165,-0.70971 -0.96274,-1.66834 -1.53619,-2.40509c-0.6815,-0.87557 -1.69657,-1.54977 -2.09807,-2.58411c-0.75425,-1.94308 -0.96772,-6.00826 -0.27156,-9.34921c-0.31499,-1.3828 -0.22457,-2.78729 0.5757,-4.12986c1.49302,-2.50475 2.52896,-2.65702 3.28598,-2.02699l0.07482,-0.04988l0.17467,0.262c0.16254,-0.19153 0.32508,-0.38307 0.48762,-0.5746l0.72446,0.24957v-0.35684h2.5c0.36057,0 0.70332,0.07634 1.01296,0.21373c0.53381,-0.52496 1.65624,-1.27222 3.12379,-0.29385z"></path><path d="M215.25105,200.74402c-2.5,0 -2.5,-2.5 -2.5,-2.5v-0.47284c-1.01953,-0.34045 -1.95245,-0.8945 -2.6055,-1.67925c-0.97183,-1.16782 -0.16215,-3.03679 -0.13583,-4.55585c0.07648,-4.41487 0.56544,-8.8998 1.00374,-13.29081c0,0 0.24876,-2.48759 2.73635,-2.23883c0.06922,0.00692 0.13632,0.01558 0.20136,0.02586c0.31554,-0.24963 0.69273,-0.42476 1.105,-0.49881l2.45459,-0.49092l0.16949,0.84744l1.48468,-0.60854c0.01737,0.03108 0.25509,0.44257 0.61064,1.06802c3.13705,-1.15752 8.41583,3.08708 8.71653,6.43316c0.12297,1.36836 -1.42921,5.25372 -3.07702,8.10303c0.36568,0.43473 0.58597,0.99581 0.58597,1.60835c0,1.38071 -1.11929,2.5 -2.5,2.5h-2.02818c-1.22646,0.73271 -2.00793,0.94032 -2.68067,0.65685c-0.16997,0.06704 -0.33606,0.14333 -0.49694,0.23208c-0.18246,0.10065 -0.3486,0.23517 -0.5049,0.38885c-0.02095,0.325 -0.04176,0.64998 -0.03931,0.97222v1c0,0 0,2.5 -2.5,2.5zM222.77144,181.87204c0.36778,0.7444 0.62766,1.33575 0.68063,1.61327c0.02989,-0.10398 0.04974,-0.19793 0.05793,-0.27992c0.06512,-0.65167 -0.23969,-1.06909 -0.73856,-1.33336z"></path><path d="M244.93453,180.20966c0.18092,0.40708 0.25707,0.77386 0.26004,1.10178c0.5914,0.40036 0.90017,0.96644 0.90017,0.96644c2.2335,4.10497 4.57916,8.5829 3.19443,13.43325c-0.04648,0.1628 -0.48558,0.98227 -1.02825,1.96244c0.15397,0.32449 0.24012,0.68741 0.24012,1.07045c0,1.22888 -0.88665,2.25067 -2.05512,2.46053l-0.17814,0.03563c-0.45177,1.31308 -1.286,2.37908 -2.80484,2.65034c-2.20463,0.39373 -3.67513,0.08546 -4.65158,-0.64761c-2.70889,-0.05708 -5.33222,-0.68649 -6.4171,-2.02558c-0.15809,-0.19513 -0.26792,-0.68476 -0.34375,-1.32278c-1.03974,-0.30291 -1.79948,-1.26299 -1.79948,-2.40052v-2.75c-0.62967,-0.88154 0,-2.16667 0,-3.25c0,-4.45226 -0.92595,-8.89998 2.98223,-12.01777c1.31207,-1.04671 2.71959,-3.34765 4.26086,-2.68312c1.20172,0.51813 1.85689,1.67975 2.39242,2.96846l1.74811,-0.82113c0,0 2.28453,-1.01535 3.29988,1.26918z"></path><path d="M180.25105,177.74402c0.20566,0 0.3944,0.01692 0.56761,0.04797c0.35712,-0.65461 1.21975,-1.70983 2.9176,-1.18742c2.38945,0.73521 1.65423,3.12466 1.65423,3.12466c-0.56799,1.83957 -1.08004,3.70104 -1.45633,5.58917l-0.05335,0.07465l0.03214,0.00877l-0.73571,2.69761c-0.27065,1.0882 -1.25425,1.8946 -2.4262,1.8946c-1.27327,0 -2.32422,-0.95187 -2.48007,-2.18283l-0.4948,-3.46361l0.42368,-0.06053c-0.27625,-0.99771 -0.44659,-2.01242 -0.44881,-3.04303v-1c0,0 0,-2.5 2.5,-2.5z"></path><path d="M283.48599,175.01043c0.30963,-0.13739 0.65238,-0.21373 1.01296,-0.21373h2.5v0.35684l0.72446,-0.24957c0.16254,0.19153 0.32509,0.38307 0.48763,0.5746l0.17467,-0.26199l0.07482,0.04988c0.75702,-0.63003 1.79297,-0.47776 3.28599,2.02699c0.80027,1.34257 0.89069,2.74705 0.57569,4.12985c0.69616,3.34096 0.48269,7.40613 -0.27156,9.34922c-0.4015,1.03434 -1.41657,1.70854 -2.09807,2.58411c-0.57345,0.73675 -0.94455,1.69538 -1.53619,2.40509c-0.14504,0.7858 -0.42201,1.48531 -1.0396,1.9324c-0.8113,0.58732 -1.82247,0.5976 -2.87536,0.48737c-0.23747,0.07486 -0.49025,0.11522 -0.75246,0.11522c-0.47039,0 -0.91043,-0.12991 -1.28621,-0.35581c-0.26408,-0.01945 -0.52432,-0.02778 -0.77812,-0.01756c-2.2756,-3.85039 -4.2524,-8.18259 -3.78782,-12.83696c-0.19408,-1.68997 -0.16176,-3.36687 0.34449,-4.69671c0.07966,-0.37464 0.2039,-0.71204 0.39874,-0.98794c0.22608,-0.58358 0.46598,-1.22224 0.74635,-1.80884c-0.25682,-0.71904 -0.41098,-1.95177 0.97583,-2.87631c1.46755,-0.97837 2.58997,-0.23112 3.12379,0.29385z"></path><path d="M262.24895,199.0467v-1c0.00244,-0.32224 -0.01837,-0.64722 -0.03931,-0.97222c-0.1563,-0.15368 -0.32244,-0.28819 -0.5049,-0.38885c-0.16088,-0.08874 -0.32696,-0.16505 -0.49694,-0.23209c-0.67274,0.28348 -1.45421,0.07587 -2.68068,-0.65685h-2.02818c-1.38071,0 -2.5,-1.11929 -2.5,-2.5c0,-0.61254 0.22029,-1.17362 0.58597,-1.60835c-1.64781,-2.8493 -3.2,-6.73467 -3.07702,-8.10303c0.3007,-3.34608 5.57949,-7.59068 8.71653,-6.43316c0.35556,-0.62545 0.59328,-1.03693 0.61064,-1.06801l1.48467,0.60853l0.16949,-0.84743l2.45459,0.49092c0.41227,0.07405 0.78947,0.24917 1.10501,0.49881c0.06504,-0.01029 0.13214,-0.01895 0.20136,-0.02587c2.4876,-0.24876 2.73635,2.23883 2.73635,2.23883c0.43831,4.39101 0.92727,8.87594 1.00374,13.29081c0.02632,1.51907 0.836,3.38803 -0.13583,4.55585c-0.65305,0.78475 -1.58598,1.33881 -2.6055,1.67926v0.47284c0,0 0,2.5 -2.5,2.5c-2.5,0 -2.5,-2.5 -2.5,-2.5zM256.48999,184.00808c0.0082,0.08199 0.02805,0.17594 0.05793,0.27992c0.05297,-0.27753 0.31286,-0.86888 0.68063,-1.61328c-0.49887,0.26426 -0.80368,0.68169 -0.73856,1.33336z"></path><path d="M302.24895,181.0467v1c-0.00222,1.03061 -0.17256,2.04531 -0.44881,3.04303l0.42368,0.06053l-0.4948,3.46362c-0.15585,1.23096 -1.2068,2.18283 -2.48007,2.18283c-1.17194,0 -2.15555,-0.8064 -2.4262,-1.8946l-0.73571,-2.69761l0.03214,-0.00877l-0.05335,-0.07464c-0.37629,-1.88813 -0.88834,-3.74959 -1.45632,-5.58917c0,0 -0.73522,-2.38945 1.65423,-3.12466c1.69786,-0.52241 2.56048,0.53281 2.9176,1.18742c0.17322,-0.03106 0.36195,-0.04797 0.56761,-0.04797c2.5,0 2.5,2.5 2.5,2.5z"></path></g><path d="M59.53411,209.9v-301h358v301z" fill="none" stroke-width="0"></path></g></g></svg>