<svg version="1.1" xmlns="http://www.w3.org/2000/svg" xmlns:xlink="http://www.w3.org/1999/xlink" width="141.75" height="141.75" viewBox="0,0,141.75,141.75"><defs><radialGradient cx="240" cy="180" r="70.875" gradientUnits="userSpaceOnUse" id="color-1"><stop offset="0" stop-color="#ff0000"></stop><stop offset="1" stop-color="#ff0000" stop-opacity="0"></stop></radialGradient><radialGradient cx="240" cy="180" r="40.5" gradientUnits="userSpaceOnUse" id="color-2"><stop offset="0" stop-color="#ff0000"></stop><stop offset="1" stop-color="#ff0000" stop-opacity="0"></stop></radialGradient><radialGradient cx="240" cy="180" r="21.75" gradientUnits="userSpaceOnUse" id="color-3"><stop offset="0" stop-color="#ff0000"></stop><stop offset="1" stop-color="#ff0000" stop-opacity="0"></stop></radialGradient></defs><g transform="translate(-169.125,-109.125)"><g stroke="none" stroke-width="0" stroke-miterlimit="10"><path d="M169.125,180c0,-39.14317 31.73183,-70.875 70.875,-70.875c39.14317,0 70.875,31.73183 70.875,70.875c0,39.14317 -31.73183,70.875 -70.875,70.875c-39.14317,0 -70.875,-31.73183 -70.875,-70.875z" fill="url(#color-1)"></path><path d="M199.5,180c0,-22.36753 18.13247,-40.5 40.5,-40.5c22.36753,0 40.5,18.13247 40.5,40.5c0,22.36753 -18.13247,40.5 -40.5,40.5c-22.36753,0 -40.5,-18.13247 -40.5,-40.5z" fill="url(#color-2)"></path><path d="M218.25,180c0,-12.01219 9.73781,-21.75 21.75,-21.75c12.01219,0 21.75,9.73781 21.75,21.75c0,12.01219 -9.73781,21.75 -21.75,21.75c-12.01219,0 -21.75,-9.73781 -21.75,-21.75z" fill="url(#color-3)"></path></g></g></svg>