<svg version="1.1" xmlns="http://www.w3.org/2000/svg" xmlns:xlink="http://www.w3.org/1999/xlink" width="184" height="102.33334" viewBox="0,0,184,102.33334"><g transform="translate(-201.94904,-127.63333)"><g stroke-miterlimit="10"><path d="M295.1041,175.46904c0.02398,-0.00612 0.04796,-0.0122 0.07195,-0.01823c0.0027,0.00981 0.00539,0.01962 0.00806,0.02943c0.17578,0.00612 0.3442,0.01518 0.50612,0.02776c-0.00942,-0.05779 -0.01914,-0.11559 -0.02915,-0.17339c0.6439,-0.23011 1.29282,-0.39262 1.95932,-0.54612l0.19515,-0.00948c0.00953,-0.00072 0.01481,-0.00072 0.01481,-0.00072c0,0 0.00008,0 0.00023,0c1.45367,0.00811 2.85665,0.27143 4.25094,0.60545c0.07265,0.00057 0.14397,0.0009 0.21386,0.0009c0.62965,0 1.67974,-0.27372 2.25932,0.05709c0.0786,0.04486 0.15366,0.09323 0.22594,0.14426c0.12688,-0.0479 0.23699,-0.0289 0.23699,-0.0289c2.81076,0.48965 5.83553,0.93083 8.70378,1.84762c3.41224,-0.55435 7.46071,0.81677 10.52293,1.66116l0.01417,-0.01456c0,0 0.3778,0 0.50316,0.43519l0.40179,0.06936c0.27158,0.04137 0.48284,0.35933 0.48284,0.74544c0,0.27924 -0.11049,0.52284 -0.27439,0.65194c-0.06959,0.26203 -0.24204,0.45551 -0.44978,0.48716l-0.40179,0.06936c-0.12537,0.43519 -0.50316,0.43519 -0.50316,0.43519l-0.01417,-0.01456c-3.06223,0.84439 -7.11069,2.21551 -10.52293,1.66116c-2.86826,0.91679 -5.89302,1.35797 -8.70378,1.84762c0,0 -0.11011,0.019 -0.23699,-0.0289c-0.07228,0.05103 -0.14734,0.0994 -0.22594,0.14426c-0.51289,0.29274 -1.39424,0.11207 -2.02662,0.06662c-1.38241,0.32991 -2.7737,0.58878 -4.21482,0.59682c-0.00015,0 -0.00023,0 -0.00023,0c0,0 -0.00529,0 -0.01481,-0.00072l-0.19515,-0.00948h-0.00002c-0.49411,-0.11379 -0.97854,-0.23254 -1.45844,-0.38011c-0.01282,-0.42641 -0.03075,-0.85108 -0.05513,-1.27322l-0.13109,-0.19664c0.04557,0.45249 0.07882,0.90816 0.10241,1.36602c-0.50135,-0.1082 -1.00033,-0.23171 -1.49932,-0.37767h0.00001c0,0 -0.23434,-0.06885 -0.40841,-0.24364c-0.24123,0.23502 -0.46288,0.50293 -0.66514,0.83154c0,0 -0.32378,0.51806 -0.85447,0.32682c-1.57538,0.02485 -3.15009,0.05041 -4.72396,0.05206c-0.17082,0.03982 -0.32699,0.00005 -0.44742,-0.05607c-0.12475,-0.04544 -0.2632,-0.12766 -0.35583,-0.27641l-0.4871,-0.4871c0,0 -0.0864,-0.0864 -0.15458,-0.22432c-0.18089,-0.06247 -0.29143,-0.18314 -0.35897,-0.3073l-0.40994,-0.49296c-0.42468,-0.43178 -0.78711,-0.92903 -1.09179,-1.45575h-0.15439c-2.9289,0 -5.8578,0 -8.7867,0c-0.21448,0.04437 -0.38496,-0.01746 -0.51144,-0.10581c-0.15851,-0.08606 -0.31148,-0.24211 -0.34507,-0.52507l-0.1068,-0.31913c0,-0.2124 -0.00033,-0.42399 0.00083,-0.6347c-2.34855,0.526 -5.15187,0.27324 -7.82561,-0.01428l-0.69834,1.09739l-0.01895,-0.01206c-0.1295,0.24562 -0.28241,0.46687 -0.46353,0.63378c-0.58906,1.40954 -1.17545,2.7695 -1.91769,4.03575c0.3891,-0.09472 0.78004,-0.18105 1.17404,-0.25386l-0.05705,-0.15688l1.08367,-0.39406c0.0845,-0.03298 0.17646,-0.05109 0.27264,-0.05109c0.06926,0 0.13633,0.00939 0.2,0.02696c0.17371,0.04795 0.32214,0.15681 0.42087,0.30217c0.19864,0.13491 0.32913,0.36265 0.32913,0.62087c0,0.2552 -0.12747,0.48064 -0.32221,0.61611l-0.6543,0.46736c-1.04869,1.03853 -2.41022,1.72974 -3.68862,2.46025c-4.52265,2.82666 -10.34736,0.32771 -14.26207,-2.65764c-0.10467,-0.01465 -0.20993,-0.02863 -0.31583,-0.04186l-0.48579,-0.55829c-0.13649,-0.0999 -0.27031,-0.20313 -0.40132,-0.30975c0,0 -0.57617,-0.48013 -0.09603,-1.0563c0.35451,-0.42542 0.76137,-0.27497 0.95001,-0.16712c0.13953,0.03392 0.24968,0.11231 0.33045,0.19171c0.20196,0.17297 0.41274,0.34691 0.63148,0.52049c0.01264,0.00824 0.02531,0.01645 0.038,0.02463c1.67237,0.35948 3.24457,1.13509 4.9126,1.57904c0.05943,-0.18342 0.18762,-0.33589 0.35416,-0.42701l0.62155,-0.35517c0.68427,-0.69267 1.00513,-0.99532 1.52418,-1.15639l-0.04961,-0.13229l0.78382,-0.29393c0.03484,-0.014 0.07097,-0.02547 0.10817,-0.03416v-0.00003c0.56929,-0.46217 1.12484,-0.95526 1.66976,-1.46451c0.58048,-0.73549 1.13238,-1.51063 1.66655,-2.2717c-0.03668,-0.03361 -0.06921,-0.06986 -0.09724,-0.10889c-0.20774,-0.28917 0.16437,-0.64959 0.33794,-1.00296c-0.03964,-0.00027 -0.07944,-0.0004 -0.11943,-0.0004c0,0 -0.05925,0 -0.12006,0.02884c-1.1252,0 -2.2504,0 -3.3756,0c-0.0102,0.11738 -0.02195,0.23478 -0.0355,0.35223c0.03016,0.13864 0.06032,0.27729 0.09048,0.41593l0.00365,0.71865c0.03095,0.12974 0.02362,0.28366 -0.05872,0.45974c-0.04949,0.13131 -0.14011,0.27605 -0.30604,0.36587c-0.08339,0.05176 -0.16957,0.07845 -0.25257,0.08903c-0.1111,0.11316 -0.27878,0.19855 -0.53185,0.19855c-0.60072,0 -0.72029,-0.48115 -0.74409,-0.67269c-1.486,-0.58052 -3.50425,-0.72731 -4.95591,-0.72731h-0.9c0,0 -0.01526,0 -0.04142,-0.00218c-0.02625,-0.00073 -0.04141,-0.00241 -0.04141,-0.00241c-2.73826,-0.30793 -5.32276,-0.49541 -8.11718,-0.49541l-0.82825,-0.20921c-0.16221,-0.02034 -0.35372,-0.09096 -0.48474,-0.28884c-0.09102,-0.11109 -0.15734,-0.26246 -0.1433,-0.46456c-0.0073,-0.20245 0.06403,-0.35153 0.1587,-0.45953c0.13346,-0.18766 0.31984,-0.25368 0.47952,-0.27107c2.05704,-0.49533 4.21825,-0.34572 6.29794,-0.69712c3.05751,-0.51662 6.02451,-1.38578 9.09241,-1.78661c0.10155,-0.16869 0.28744,-0.32308 0.62773,-0.32308c0.75,0 0.75,0.75 0.75,0.75c0,0.46272 0.00587,0.92345 0.00413,1.38326c1.11697,-0.36973 2.35857,-0.67987 3.59909,-0.79221c-0.00563,-0.11206 -0.0091,-0.22025 -0.0091,-0.32307c0,0 0,-0.12018 0.04811,-0.26433c-0.59147,-0.84457 -1.20343,-1.71437 -1.85098,-2.53483l-0.00001,0.00001c-0.54492,-0.50925 -1.10047,-1.00234 -1.66976,-1.46451c-0.03719,-0.00869 -0.07332,-0.02015 -0.10816,-0.03415l-0.78382,-0.29394l0.04961,-0.13228c-0.51905,-0.16107 -0.83991,-0.46373 -1.52418,-1.15639l-0.62154,-0.35517c-0.16655,-0.09112 -0.29473,-0.24359 -0.35417,-0.42701c-1.66802,0.44395 -3.24023,1.21955 -4.91259,1.57903c-0.01269,0.00818 -0.02536,0.01639 -0.038,0.02463c-0.21873,0.17359 -0.42951,0.34752 -0.63148,0.52049c-0.08077,0.0794 -0.19092,0.15779 -0.33045,0.19171c-0.18865,0.10786 -0.59551,0.2583 -0.95002,-0.16711c-0.48014,-0.57617 0.09603,-1.05631 0.09603,-1.05631c0.13101,-0.10661 0.26483,-0.20984 0.40132,-0.30975l0.48579,-0.55829c0.1059,-0.01324 0.21116,-0.02721 0.31583,-0.04187c3.91472,-2.98535 9.73942,-5.4843 14.26208,-2.65764c1.2784,0.73051 2.63991,1.42173 3.68861,2.46025l0.6543,0.46735c0.19473,0.13547 0.3222,0.36091 0.3222,0.61611c0,0.25822 -0.1305,0.48595 -0.32913,0.62087c-0.09872,0.14536 -0.24716,0.25423 -0.42087,0.30217c-0.06367,0.01757 -0.13074,0.02696 -0.2,0.02696c-0.09618,0 -0.18812,-0.01811 -0.27263,-0.0511l-1.08367,-0.39406l0.05705,-0.15688c-0.39399,-0.07281 -0.78494,-0.15914 -1.17404,-0.25386c0.64993,1.10876 1.18037,2.28936 1.69773,3.5122c0.33668,0.30419 1.28458,1.35499 1.85494,2.36503c2.51771,0.09592 5.08798,0.46114 7.37944,0.50113c0.03722,-0.21869 0.08358,-0.43616 0.14128,-0.65234c-0.05664,-0.10039 -0.09294,-0.22909 -0.09294,-0.3941c0,-0.57 0.43319,-0.7068 0.64113,-0.73963c0.1247,-0.0898 0.2932,-0.15137 0.50986,-0.11037h0.39901c1.83966,0 5.40294,-0.46281 7.64305,0.1c0.15052,0 0.30104,0 0.45156,0c0.41422,-0.69054 0.96885,-1.24756 1.4882,-1.82992c-0.02133,-0.06959 -0.03281,-0.1435 -0.03281,-0.22008c0,-0.29941 0.17544,-0.55783 0.42912,-0.67809l0.4774,-0.2387c0.02275,-0.19592 0.1026,-0.33122 0.20203,-0.42466c0.22193,-0.20855 0.54145,-0.20855 0.54145,-0.20855c0.7396,0 1.4792,0 2.2188,0c0.25393,-0.03079 0.50551,-0.05303 0.74687,-0.06151c0.12256,-0.08721 0.27246,-0.13849 0.43433,-0.13849c0.19691,0 0.3761,0.07588 0.50991,0.2c0.25687,0 0.52111,0 0.79009,0c0.03333,0 0.86667,0 0.9,0c0.13556,0 0.27158,0 0.40774,0c-0.00156,0.0346 -0.00308,0.06917 -0.00458,0.10372c0.26286,0.12449 0.38466,0.39854 0.38466,0.39854c0.06486,0.15038 0.13685,0.29732 0.21425,0.44171c0.20274,0.06644 0.36739,0.21696 0.45274,0.41034zM302.05406,184.11162c0.06109,0 0.13257,0.00566 0.21141,0.01483c0.02229,-0.00548 0.04459,-0.01098 0.06689,-0.01649c-0.13999,0.00056 -0.27991,0.00095 -0.41974,0.0012c0.04692,0.00031 0.09406,0.00046 0.14143,0.00046zM260.99932,187.99204c0.35315,-0.92956 0.69242,-1.8676 1.03197,-2.80456c-1.27109,1.17074 -2.7138,2.1933 -4.2187,2.86083l0.07571,0.09085l-0.17096,0.14246c-0.02955,0.10038 -0.05964,0.19783 -0.09217,0.29291c0.34577,-0.01407 0.69098,-0.03586 1.03439,-0.06482c0.79145,-0.12567 1.5682,-0.31171 2.33976,-0.51767zM261.14219,172.00792c-0.77156,-0.20596 -1.54831,-0.39199 -2.33976,-0.51767c-0.34341,-0.02896 -0.68862,-0.05075 -1.03439,-0.06481c0.03252,0.09508 0.06262,0.19252 0.09217,0.2929l0.17095,0.14246l-0.07571,0.09085c1.5049,0.66753 2.94761,1.69008 4.2187,2.86083c-0.33955,-0.93696 -0.67882,-1.875 -1.03197,-2.80456zM264.02093,175.50437c0.23781,0.65279 0.47892,1.30286 0.72922,1.94641c0.00496,0.00135 0.00993,0.00272 0.01489,0.00409c-0.0344,-0.09243 -0.06883,-0.18514 -0.10333,-0.27802c-0.01971,-0.04095 -0.03695,-0.08553 -0.04951,-0.13323c-0.1911,-0.51401 -0.38533,-1.03228 -0.59127,-1.53925zM264.39416,183.15828c-0.00518,-0.00453 -0.01029,-0.0091 -0.01532,-0.0137c-0.16982,0.44822 -0.3361,0.899 -0.5008,1.3511c0.17901,-0.44066 0.34917,-0.88987 0.51612,-1.3374z" fill="#160831" stroke="#cbadff" stroke-width="1"></path><path d="M295.1041,175.46904c0.02398,-0.00612 0.04796,-0.0122 0.07195,-0.01823c0.0027,0.00981 0.00539,0.01962 0.00806,0.02943c0.17578,0.00612 0.3442,0.01518 0.50612,0.02776c-0.00942,-0.05779 -0.01914,-0.11559 -0.02915,-0.17339c0.6439,-0.23011 1.29282,-0.39262 1.95932,-0.54612l0.19515,-0.00948c0.00953,-0.00072 0.01481,-0.00072 0.01481,-0.00072c0,0 0.00008,0 0.00023,0c1.45367,0.00811 2.85665,0.27143 4.25094,0.60545c0.07265,0.00057 0.14397,0.0009 0.21386,0.0009c0.62965,0 1.67974,-0.27372 2.25932,0.05709c0.0786,0.04486 0.15366,0.09323 0.22594,0.14426c0.12688,-0.0479 0.23699,-0.0289 0.23699,-0.0289c2.81076,0.48965 5.83553,0.93083 8.70378,1.84762c3.41224,-0.55435 7.46071,0.81677 10.52293,1.66116l0.01417,-0.01456c0,0 0.3778,0 0.50316,0.43519l0.40179,0.06936c0.27158,0.04137 0.48284,0.35933 0.48284,0.74544c0,0.27924 -0.11049,0.52284 -0.27439,0.65194c-0.06959,0.26203 -0.24204,0.45551 -0.44978,0.48716l-0.40179,0.06936c-0.12537,0.43519 -0.50316,0.43519 -0.50316,0.43519l-0.01417,-0.01456c-3.06223,0.84439 -7.11069,2.21551 -10.52293,1.66116c-2.86826,0.91679 -5.89302,1.35797 -8.70378,1.84762c0,0 -0.11011,0.019 -0.23699,-0.0289c-0.07228,0.05103 -0.14734,0.0994 -0.22594,0.14426c-0.51289,0.29274 -1.39424,0.11207 -2.02662,0.06662c-1.38241,0.32991 -2.7737,0.58878 -4.21482,0.59682c-0.00015,0 -0.00023,0 -0.00023,0c0,0 -0.00529,0 -0.01481,-0.00072l-0.19515,-0.00948h-0.00002c-0.49411,-0.11379 -0.97854,-0.23254 -1.45844,-0.38011c-0.01282,-0.42641 -0.03075,-0.85108 -0.05513,-1.27322l-0.13109,-0.19664c0.04557,0.45249 0.07882,0.90816 0.10241,1.36602c-0.50135,-0.1082 -1.00033,-0.23171 -1.49932,-0.37767h0.00001c0,0 -0.23434,-0.06885 -0.40841,-0.24364c-0.24123,0.23502 -0.46288,0.50293 -0.66514,0.83154c0,0 -0.32378,0.51806 -0.85447,0.32682c-1.57538,0.02485 -3.15009,0.05041 -4.72396,0.05206c-0.17082,0.03982 -0.32699,0.00005 -0.44742,-0.05607c-0.12475,-0.04544 -0.2632,-0.12766 -0.35583,-0.27641l-0.4871,-0.4871c0,0 -0.0864,-0.0864 -0.15458,-0.22432c-0.18089,-0.06247 -0.29143,-0.18314 -0.35897,-0.3073l-0.40994,-0.49296c-0.42468,-0.43178 -0.78711,-0.92903 -1.09179,-1.45575h-0.15439c-2.9289,0 -5.8578,0 -8.7867,0c-0.21448,0.04437 -0.38496,-0.01746 -0.51144,-0.10581c-0.15851,-0.08606 -0.31148,-0.24211 -0.34507,-0.52507l-0.1068,-0.31913c0,-0.2124 -0.00033,-0.42399 0.00083,-0.6347c-2.34855,0.526 -5.15187,0.27324 -7.82561,-0.01428l-0.69834,1.09739l-0.01895,-0.01206c-0.1295,0.24562 -0.28241,0.46687 -0.46353,0.63378c-0.58906,1.40954 -1.17545,2.7695 -1.91769,4.03575c0.3891,-0.09472 0.78004,-0.18105 1.17404,-0.25386l-0.05705,-0.15688l1.08367,-0.39406c0.0845,-0.03298 0.17646,-0.05109 0.27264,-0.05109c0.06926,0 0.13633,0.00939 0.2,0.02696c0.17371,0.04795 0.32214,0.15681 0.42087,0.30217c0.19864,0.13491 0.32913,0.36265 0.32913,0.62087c0,0.2552 -0.12747,0.48064 -0.32221,0.61611l-0.6543,0.46736c-1.04869,1.03853 -2.41022,1.72974 -3.68862,2.46025c-4.52265,2.82666 -10.34736,0.32771 -14.26207,-2.65764c-0.10467,-0.01465 -0.20993,-0.02863 -0.31583,-0.04186l-0.48579,-0.55829c-0.13649,-0.0999 -0.27031,-0.20313 -0.40132,-0.30975c0,0 -0.57617,-0.48013 -0.09603,-1.0563c0.35451,-0.42542 0.76137,-0.27497 0.95001,-0.16712c0.13953,0.03392 0.24968,0.11231 0.33045,0.19171c0.20196,0.17297 0.41274,0.34691 0.63148,0.52049c0.01264,0.00824 0.02531,0.01645 0.038,0.02463c1.67237,0.35948 3.24457,1.13509 4.9126,1.57904c0.05943,-0.18342 0.18762,-0.33589 0.35416,-0.42701l0.62155,-0.35517c0.68427,-0.69267 1.00513,-0.99532 1.52418,-1.15639l-0.04961,-0.13229l0.78382,-0.29393c0.03484,-0.014 0.07097,-0.02547 0.10817,-0.03416v-0.00003c0.56929,-0.46217 1.12484,-0.95526 1.66976,-1.46451c0.58048,-0.73549 1.13238,-1.51063 1.66655,-2.2717c-0.03668,-0.03361 -0.06921,-0.06986 -0.09724,-0.10889c-0.20774,-0.28917 0.16437,-0.64959 0.33794,-1.00296c-0.03964,-0.00027 -0.07944,-0.0004 -0.11943,-0.0004c0,0 -0.05925,0 -0.12006,0.02884c-1.1252,0 -2.2504,0 -3.3756,0c-0.0102,0.11738 -0.02195,0.23478 -0.0355,0.35223c0.03016,0.13864 0.06032,0.27729 0.09048,0.41593l0.00365,0.71865c0.03095,0.12974 0.02362,0.28366 -0.05872,0.45974c-0.04949,0.13131 -0.14011,0.27605 -0.30604,0.36587c-0.08339,0.05176 -0.16957,0.07845 -0.25257,0.08903c-0.1111,0.11316 -0.27878,0.19855 -0.53185,0.19855c-0.60072,0 -0.72029,-0.48115 -0.74409,-0.67269c-1.486,-0.58052 -3.50425,-0.72731 -4.95591,-0.72731h-0.9c0,0 -0.01526,0 -0.04142,-0.00218c-0.02625,-0.00073 -0.04141,-0.00241 -0.04141,-0.00241c-2.73826,-0.30793 -5.32276,-0.49541 -8.11718,-0.49541l-0.82825,-0.20921c-0.16221,-0.02034 -0.35372,-0.09096 -0.48474,-0.28884c-0.09102,-0.11109 -0.15734,-0.26246 -0.1433,-0.46456c-0.0073,-0.20245 0.06403,-0.35153 0.1587,-0.45953c0.13346,-0.18766 0.31984,-0.25368 0.47952,-0.27107c2.05704,-0.49533 4.21825,-0.34572 6.29794,-0.69712c3.05751,-0.51662 6.02451,-1.38578 9.09241,-1.78661c0.10155,-0.16869 0.28744,-0.32308 0.62773,-0.32308c0.75,0 0.75,0.75 0.75,0.75c0,0.46272 0.00587,0.92345 0.00413,1.38326c1.11697,-0.36973 2.35857,-0.67987 3.59909,-0.79221c-0.00563,-0.11206 -0.0091,-0.22025 -0.0091,-0.32307c0,0 0,-0.12018 0.04811,-0.26433c-0.59147,-0.84457 -1.20343,-1.71437 -1.85098,-2.53483l-0.00001,0.00001c-0.54492,-0.50925 -1.10047,-1.00234 -1.66976,-1.46451c-0.03719,-0.00869 -0.07332,-0.02015 -0.10816,-0.03415l-0.78382,-0.29394l0.04961,-0.13228c-0.51905,-0.16107 -0.83991,-0.46373 -1.52418,-1.15639l-0.62154,-0.35517c-0.16655,-0.09112 -0.29473,-0.24359 -0.35417,-0.42701c-1.66802,0.44395 -3.24023,1.21955 -4.91259,1.57903c-0.01269,0.00818 -0.02536,0.01639 -0.038,0.02463c-0.21873,0.17359 -0.42951,0.34752 -0.63148,0.52049c-0.08077,0.0794 -0.19092,0.15779 -0.33045,0.19171c-0.18865,0.10786 -0.59551,0.2583 -0.95002,-0.16711c-0.48014,-0.57617 0.09603,-1.05631 0.09603,-1.05631c0.13101,-0.10661 0.26483,-0.20984 0.40132,-0.30975l0.48579,-0.55829c0.1059,-0.01324 0.21116,-0.02721 0.31583,-0.04187c3.91472,-2.98535 9.73942,-5.4843 14.26208,-2.65764c1.2784,0.73051 2.63991,1.42173 3.68861,2.46025l0.6543,0.46735c0.19473,0.13547 0.3222,0.36091 0.3222,0.61611c0,0.25822 -0.1305,0.48595 -0.32913,0.62087c-0.09872,0.14536 -0.24716,0.25423 -0.42087,0.30217c-0.06367,0.01757 -0.13074,0.02696 -0.2,0.02696c-0.09618,0 -0.18812,-0.01811 -0.27263,-0.0511l-1.08367,-0.39406l0.05705,-0.15688c-0.39399,-0.07281 -0.78494,-0.15914 -1.17404,-0.25386c0.64993,1.10876 1.18037,2.28936 1.69773,3.5122c0.33668,0.30419 1.28458,1.35499 1.85494,2.36503c2.51771,0.09592 5.08798,0.46114 7.37944,0.50113c0.03722,-0.21869 0.08358,-0.43616 0.14128,-0.65234c-0.05664,-0.10039 -0.09294,-0.22909 -0.09294,-0.3941c0,-0.57 0.43319,-0.7068 0.64113,-0.73963c0.1247,-0.0898 0.2932,-0.15137 0.50986,-0.11037h0.39901c1.83966,0 5.40294,-0.46281 7.64305,0.1c0.15052,0 0.30104,0 0.45156,0c0.41422,-0.69054 0.96885,-1.24756 1.4882,-1.82992c-0.02133,-0.06959 -0.03281,-0.1435 -0.03281,-0.22008c0,-0.29941 0.17544,-0.55783 0.42912,-0.67809l0.4774,-0.2387c0.02275,-0.19592 0.1026,-0.33122 0.20203,-0.42466c0.22193,-0.20855 0.54145,-0.20855 0.54145,-0.20855c0.7396,0 1.4792,0 2.2188,0c0.25393,-0.03079 0.50551,-0.05303 0.74687,-0.06151c0.12256,-0.08721 0.27246,-0.13849 0.43433,-0.13849c0.19691,0 0.3761,0.07588 0.50991,0.2c0.25687,0 0.52111,0 0.79009,0c0.03333,0 0.86667,0 0.9,0c0.13556,0 0.27158,0 0.40774,0c-0.00156,0.0346 -0.00308,0.06917 -0.00458,0.10372c0.26286,0.12449 0.38466,0.39854 0.38466,0.39854c0.06486,0.15038 0.13685,0.29732 0.21425,0.44171c0.20274,0.06644 0.36739,0.21696 0.45274,0.41034zM302.05406,184.11162c0.06109,0 0.13257,0.00566 0.21141,0.01483c0.02229,-0.00548 0.04459,-0.01098 0.06689,-0.01649c-0.13999,0.00056 -0.27991,0.00095 -0.41974,0.0012c0.04692,0.00031 0.09406,0.00046 0.14143,0.00046zM260.99932,187.99204c0.35315,-0.92956 0.69242,-1.8676 1.03197,-2.80456c-1.27109,1.17074 -2.7138,2.1933 -4.2187,2.86083l0.07571,0.09085l-0.17096,0.14246c-0.02955,0.10038 -0.05964,0.19783 -0.09217,0.29291c0.34577,-0.01407 0.69098,-0.03586 1.03439,-0.06482c0.79145,-0.12567 1.5682,-0.31171 2.33976,-0.51767zM261.14219,172.00792c-0.77156,-0.20596 -1.54831,-0.39199 -2.33976,-0.51767c-0.34341,-0.02896 -0.68862,-0.05075 -1.03439,-0.06481c0.03252,0.09508 0.06262,0.19252 0.09217,0.2929l0.17095,0.14246l-0.07571,0.09085c1.5049,0.66753 2.94761,1.69008 4.2187,2.86083c-0.33955,-0.93696 -0.67882,-1.875 -1.03197,-2.80456zM264.02093,175.50437c0.23781,0.65279 0.47892,1.30286 0.72922,1.94641c0.00496,0.00135 0.00993,0.00272 0.01489,0.00409c-0.0344,-0.09243 -0.06883,-0.18514 -0.10333,-0.27802c-0.01971,-0.04095 -0.03695,-0.08553 -0.04951,-0.13323c-0.1911,-0.51401 -0.38533,-1.03228 -0.59127,-1.53925zM264.39416,183.15828c-0.00518,-0.00453 -0.01029,-0.0091 -0.01532,-0.0137c-0.16982,0.44822 -0.3361,0.899 -0.5008,1.3511c0.17901,-0.44066 0.34917,-0.88987 0.51612,-1.3374z" fill="#160831" stroke="none" stroke-width="0.5"></path><path d="M274.58984,178.13767c0.07086,-0.6377 0.74399,-0.6377 0.74399,-0.6377c2.95752,0 5.92199,-0.42159 8.94209,-0.49052l0.70855,-0.59041c1.18518,-0.9466 2.21847,-2.37307 3.61218,-2.88057c0,0 0.03576,-0.01192 0.09391,-0.0224l0.26826,-0.14109c1.23456,0 3.79178,-0.43559 4.85556,0.29919c0.35356,0.24422 0.43177,0.82741 0.81001,1.01072c0.02863,0.01117 0.04484,0.01927 0.04484,0.01927c0,0 0.03054,0.01527 0.07534,0.04582c1.61309,0 3.22617,0 4.83925,0c0,0 0.02323,0 0.06152,0.00409c0.03844,0.00224 0.06136,0.00605 0.06136,0.00605l0.72496,0.12104c3.6856,0.31158 8.42044,0.1238 11.64926,1.96764c0,0 0.02692,0.01538 0.06669,0.04537l0.18451,0.11602c2.07765,0.34641 4.16943,-0.04183 6.23073,0.24704c2.09452,0.29353 3.75799,1.20147 5.6264,1.74996c0.18963,0.00343 0.37727,0.00821 0.5631,0.01459c0.83022,0.8538 1.47739,1.67209 1.62855,2.70188c-3.43334,-0.03667 -6.86023,-0.09868 -10.29707,-0.09868c-5.16667,0 -10.95833,0 -16.125,0c-0.04167,0 -0.08333,0 -0.125,0c-3.375,0 -6.75,0 -10.125,0c-5.23755,0 -10.27617,-0.35721 -15.48987,-0.37436c-0.00154,0.06526 -0.00284,0.13055 -0.00392,0.19585c-2.37239,0.23789 -4.94276,-0.02896 -7.00407,-0.63444c-0.26959,0.10613 -0.6609,0.07237 -1.20991,-0.11971c-3.00576,-0.03021 -6.04816,-0.12842 -9.03389,-0.11733h-0.13537c0.00682,0.04065 0.01037,0.08241 0.01037,0.125c0,0.41421 -0.33579,0.75 -0.75,0.75h-0.875c-0.28283,0 -0.5654,-0.00322 -0.84771,-0.00895c-1.3163,0.18875 -2.69686,0.13045 -4.02729,0.00895c-0.50244,-0.04589 -1.08635,-0.04745 -1.45506,-0.24449c-1.68924,-0.05073 -3.37173,-0.02465 -5.0498,0.2348c-0.68544,0.10598 -3.13396,0.9001 -3.45936,-0.26143c-0.15959,-0.56966 0.62259,-1.00614 0.93389,-1.50921c0,0 0.53033,-0.53033 1.06066,0c0.25092,0.25091 0.2644,0.50182 0.20896,0.69657c1.07216,-0.33862 3.25468,-0.79086 3.76071,-0.79124c0.81735,-0.00061 1.63232,0.02766 2.44662,0.06892c0.01658,-0.03488 0.03399,-0.07047 0.05225,-0.10679c0.38309,-0.76176 1.50946,-0.98379 2.75625,-1.04625c0.07675,-0.0265 0.15913,-0.04089 0.24488,-0.04089h0.7031c1.06823,-0.1829 1.84966,-0.42023 2.73271,-0.51352l-0.02884,-0.23069l0.98826,-0.12353c0.03423,-0.00479 0.06921,-0.00726 0.10476,-0.00726c0.41421,0 0.75,0.33579 0.75,0.75c0,0.05186 -0.00527,0.10249 -0.01529,0.15139c0.18373,0.049 0.37444,0.17937 0.4768,0.48644c0.01331,0.03992 0.02363,0.07836 0.03126,0.11534c2.11934,0.0149 4.24933,0.06912 6.37758,0.10019c-0.65876,-0.47085 -1.20671,-1.00026 -1.58047,-1.66098c-1.25983,-1.13818 -2.55635,-2.22023 -3.86444,-3.30444c-0.39751,-0.03002 -0.59626,-0.42753 -0.59626,-0.42753l-0.05671,-0.11346c-0.20905,-0.17323 -0.41828,-0.34675 -0.6276,-0.52081c0,0 -0.35559,-0.29633 -0.27527,-0.70275c-0.15307,-0.14361 -0.3145,-0.28506 -0.48062,-0.43762c-0.94969,0.07488 -2.1599,0.1621 -2.63722,-0.10308c-0.08264,-0.04591 -0.16004,-0.09153 -0.23236,-0.13683c-0.86586,0.15167 -1.70323,0.34564 -2.43397,0.72493c0,0 -0.67082,0.33541 -1.00623,-0.33541c-0.33541,-0.67082 0.33541,-1.00623 0.33541,-1.00623c0.50685,-0.2464 1.0409,-0.41728 1.58978,-0.55043c0.06125,-0.65375 0.74563,-0.65375 0.74563,-0.65375l0.35181,0.00953c0.36427,-0.30441 0.92117,-0.57066 1.53578,-0.79131c0.01359,-0.00752 0.02745,-0.01463 0.04154,-0.02131l0.73547,-0.36773l0.06169,0.12339c0.3396,-0.09499 0.67863,-0.17618 0.99686,-0.24247c2.21862,-0.71161 4.86777,0.05508 7.13524,1.0502c0.11087,0.01745 0.28615,0.06448 0.42551,0.19127c0.11273,0.05185 0.22435,0.10408 0.33474,0.15653c1.19866,0.31282 2.22044,0.85416 2.89889,1.75505l0.01103,0.06007l0.01726,-0.00863l0.36825,0.7365c0.05487,0.10423 0.08593,0.22294 0.08593,0.34891c0,0.41421 -0.33579,0.75 -0.75,0.75c-0.08907,0 -0.17452,-0.01552 -0.25378,-0.04402l-0.73339,-0.24446l0.07124,-0.21372c-0.71289,-0.22192 -1.31597,-0.57057 -1.91979,-0.94891c-0.41013,0.02027 -0.82705,0.02262 -1.24815,0.01303c0.03522,0.05811 0.07089,0.11594 0.10699,0.1735c0.29264,0.0197 0.5072,0.23426 0.5072,0.23426c1.32713,1.33569 1.71859,2.57038 2.61044,4.14057c0.29366,0.51702 0.8572,0.94471 1.19481,1.47596c0.34937,-0.14203 0.6971,0.08979 0.6971,0.08979c1.29991,0.90939 3.42188,0.49187 4.95411,0.75872c0.20208,0.0352 1.59953,0.20999 1.59953,0.20999c0,0 -0.21967,-0.72251 -0.21967,-1.09467zM262.16507,174.5629c-0.26294,-0.32228 -0.5272,-0.64713 -0.78064,-0.98965l-0.04228,-0.99826c0,0 0,-0.07117 0.02192,-0.16966c-0.04234,-0.0784 -0.08393,-0.15718 -0.12476,-0.23634c-0.90324,-0.06599 -1.80897,-0.14834 -2.69261,-0.19079c0.18073,0.21628 0.34986,0.45308 0.50886,0.73461c0.94128,0.78089 1.87918,1.55527 2.80237,2.34726c0.02739,-0.14361 0.10228,-0.3643 0.30714,-0.49717z" fill-opacity="0.19216" fill="#cbadff" stroke="none" stroke-width="0.5"></path><path d="M287.11111,181.00457c-0.04856,0.18598 -0.10829,0.37058 -0.18253,0.55489v0.14053l0.23207,0.09283l-0.27923,0.69807c-0.10636,0.28485 -0.38092,0.48768 -0.70285,0.48768c-0.41421,0 -0.75,-0.33579 -0.75,-0.75v-0.6202l-0.71429,0.04877c0,-2.28197 -0.30152,-3.92493 1.07276,-5.24867l-0.1388,-0.1388l0.57143,-0.57143c0.07636,-0.07636 0.1691,-0.13633 0.2725,-0.17418c0.02562,-0.38345 0.0513,-0.74879 0.08298,-1.08441c0,0 0.07463,-0.74628 0.82091,-0.67165c0.74628,0.07463 0.67165,0.82091 0.67165,0.82091c-0.19454,1.85554 -0.18605,4.64737 -0.95661,6.41567z" fill-opacity="0.53333" fill="#150830" stroke="none" stroke-width="0.5"></path><path d="M294.46428,181.05h0.10715c0,-1.89285 0,-3.78572 0,-5.67857c0,0 0,-0.75 0.75,-0.75c0.44556,0 0.62643,0.26471 0.69984,0.4796c2.64929,-1.26284 6.41791,0.1297 9.30016,0.09183l0.86137,0.15742c0,0 0.65448,0.13088 0.60515,0.76311c0.49604,1.48391 1.01049,2.9443 1.58743,4.37575c0.08625,0.07075 0.16265,0.17265 0.21539,0.31804c0.05786,0.12785 0.09613,0.29427 0.04231,0.47511c-0.04299,0.18372 -0.15879,0.30922 -0.27245,0.39152c-0.14807,0.12564 -0.29451,0.17325 -0.42772,0.1776c-3.8584,1.01516 -7.88209,0.73836 -11.86348,0.70218c-0.01244,0.15438 -0.10207,0.71069 -0.748,0.71069c-0.65105,0 -0.73695,-0.56515 -0.74828,-0.71428h-0.10887c0,0 -0.75,0 -0.75,-0.75c0,-0.75 0.75,-0.75 0.75,-0.75z" fill-opacity="0.53333" fill="#150830" stroke="none" stroke-width="0.5"></path><path d="M276.17857,176.3357c0.75,0 0.75,0.75 0.75,0.75v0.42857c-0.00028,0.15287 0.01635,0.32031 0.04118,0.49555c0.22809,0.19004 0.45166,0.52559 0.65304,1.04642c0.17882,0.46247 0,0.99166 0,1.48749l-0.12325,0.13103l0.06414,0.03207l-0.42131,0.84261c-0.11545,0.24354 -0.35824,0.41497 -0.64237,0.42829v0.25084c0,0.41421 -0.33579,0.75 -0.75,0.75c-0.41421,0 -0.75,-0.33579 -0.75,-0.75v-1.28571c0,-1.09523 0,-2.19047 0,-3.28571c0,0 0,-0.52704 0.44181,-0.6975c0.03761,-0.21366 0.18205,-0.62393 0.73676,-0.62393z" fill-opacity="0.53333" fill="#150830" stroke="none" stroke-width="0.5"></path><path d="M240.42985,180.40457c0.05179,-0.55899 0.6557,-0.63448 0.6557,-0.63448c1.95616,-0.24425 3.83281,-0.30591 5.80731,-0.29151c0.59144,0.00431 2.13927,-0.1411 2.29665,0.84452c0.26279,1.64574 -1.14505,1.55724 -1.973,1.77622c-2.39108,0.6324 -4.07207,-0.2636 -6.32365,-0.2636h-0.14286c0,0 -0.75,0 -0.75,-0.75c0,-0.41168 0.22598,-0.59739 0.42985,-0.68116z" fill-opacity="0.53333" fill="#150830" stroke="none" stroke-width="0.5"></path><path d="M257.76517,180.81927c-0.16288,0.01051 -0.31262,0.01621 -0.44374,0.01644c0,0 -0.75,0 -0.75,-0.75c0,-0.75 0.75,-0.75 0.75,-0.75c0.74993,0.0015 4.69949,-0.76918 5.15728,-0.28376c2.77539,2.9429 -3.68181,1.92662 -4.72871,1.92662l0.01517,-0.15929z" fill-opacity="0.53333" fill="#150830" stroke="none" stroke-width="0.5"></path><path d="M201.94905,229.96667v-102.33333h184v102.33334z" fill="none" stroke="none" stroke-width="none"></path></g></g></svg>