<svg version="1.1" xmlns="http://www.w3.org/2000/svg" xmlns:xlink="http://www.w3.org/1999/xlink" width="44.00074" height="43.4928" viewBox="0,0,44.00074,43.4928"><defs><radialGradient cx="230.57873" cy="172.13758" r="22.00037" gradientUnits="userSpaceOnUse" id="color-1"><stop offset="0" stop-color="#ffffff" stop-opacity="0.63922"></stop><stop offset="1" stop-color="#ffffff" stop-opacity="0.81569"></stop></radialGradient></defs><g transform="translate(-217.99963,-158.2536)"><g stroke="none" stroke-miterlimit="10"><path d="M239.99996,165.36228c1.84435,-4.19382 5.8249,-7.10868 10.44976,-7.10868c6.37597,0 11.55065,5.52354 11.55065,12.32935c0,13.40352 -13.57085,17.55975 -22.00041,31.16345c-8.91607,-13.68794 -22.00033,-17.31803 -22.00033,-31.16345c0,-6.80579 5.17468,-12.32935 11.55065,-12.32935c4.62489,0 8.60544,2.91486 10.44969,7.10868z" fill="url(#color-1)" stroke-width="0" stroke-linejoin="round"></path><path d="M256.93169,166.35763c-4.31451,4.6886 -11.08407,-1.57859 -8.32847,-4.79345c0.10028,-0.78138 0.5613,-1.44988 1.2107,-1.83315c1.35139,-2.36493 9.84795,3.6597 7.11777,6.6266z" fill-opacity="0.63922" fill="#ffffff" stroke-width="0.5" stroke-linejoin="miter"></path><path d="M258.25917,173.61238c-1.56966,0 -4.07109,-3.84532 -2.15454,-4.94049c0.43488,-0.73685 1.23698,-1.23117 2.15454,-1.23117c1.38071,0 2.5,1.11929 2.5,2.5c0,0.16923 -0.01682,0.33454 -0.04887,0.49434c0.66981,1.58853 0.43265,3.17732 -2.45113,3.17732z" fill-opacity="0.63922" fill="#ffffff" stroke-width="0.5" stroke-linejoin="miter"></path></g></g></svg>