<svg version="1.1" xmlns="http://www.w3.org/2000/svg" xmlns:xlink="http://www.w3.org/1999/xlink" width="44.6344" height="44.2517" viewBox="0,0,44.6344,44.2517"><g transform="translate(-217.36597,-157.76079)"><g stroke="none" stroke-miterlimit="10"><path d="M239.99996,165.36228c1.84435,-4.19382 5.8249,-7.10868 10.44976,-7.10868c6.37597,0 11.55065,5.52354 11.55065,12.32935c0,13.40352 -13.57085,17.55975 -22.00041,31.16345c-8.91607,-13.68794 -22.00033,-17.31803 -22.00033,-31.16345c0,-6.80579 5.17468,-12.32935 11.55065,-12.32935c4.62489,0 8.60544,2.91486 10.44969,7.10868z" fill="#ff0000" stroke-width="0" stroke-linejoin="round"></path><path d="M249.72995,190.14016c0.13376,1.0701 -2.42425,3.75003 -5.22364,5.55166c-0.26233,0.2695 -0.48058,0.54919 -0.60364,0.84945c-0.52904,1.29081 -0.36059,2.87917 -1.18614,4.05125c-0.07119,0.14262 -0.15561,0.27748 -0.25166,0.40298c-0.15451,0.25213 -0.32454,0.49014 -0.58897,0.57828c-0.02401,0.008 -0.04787,0.01583 -0.07158,0.02347c-0.38435,0.24092 -0.83889,0.38021 -1.32596,0.38021c-0.00169,0 -0.00338,0 -0.00507,-0.00001c-0.31058,0.0503 -0.6721,-0.01693 -1.12166,-0.24653c-2.51122,-1.28251 -2.59434,-4.10827 -4.1228,-5.97858c-1.03666,-1.26853 -5.12709,-4.79535 -7.4003,-7.08122c-4.03869,-3.15429 -8.37526,-6.92376 -9.8449,-10.34931c-0.13027,-0.30364 -0.17915,-0.64921 -0.16063,-1.00702c-0.17291,-0.33534 -0.27861,-0.6854 -0.33222,-1.05573c-0.10695,-0.73867 -0.00669,-1.55794 0.18071,-2.50167c-0.14997,-0.45392 -0.22795,-0.98278 -0.23519,-1.42995c-0.036,-2.22238 -0.45457,-5.78102 1.26559,-7.71818c0.34038,-0.38332 0.90901,-0.85422 1.50939,-1.23906c0.51295,-0.97094 1.21202,-1.92705 2.20605,-2.90733c0.95779,-0.94454 3.05699,-1.95952 4.72359,-1.95008c0.40921,-0.32557 0.7721,-0.52162 1.04347,-0.50291c0.32923,-0.15961 0.69877,-0.24912 1.08921,-0.24912c0.35841,0 0.69921,0.07542 1.00738,0.21126c0.24839,-0.0564 0.49037,-0.03563 0.72128,0.07983c0.04595,-0.00251 0.09222,-0.00379 0.1388,-0.00379c1.38071,0 2.5,1.11929 2.5,2.5c0,0.15353 -0.01384,0.30384 -0.04034,0.44973c-0.10896,0.59982 -0.43194,1.12506 -0.88695,1.49373c-1.15499,1.73202 -2.89387,4.21475 -2.52032,6.0476c0.51216,2.51294 2.9679,6.9575 4.26329,9.13901c0.16052,0.27032 0.37512,0.48757 0.6095,0.67957c0.38453,0.03696 0.7507,0.35342 1.0836,0.79678c0.33285,0.27729 0.58854,0.59507 0.64037,1.05603c0.48927,0.95573 0.84487,1.97553 0.98684,2.24079c0.62674,1.17103 2.18896,2.57544 3.70955,4.03916c2.76345,1.43204 7.80625,0.15283 8.24335,3.64968z" fill-opacity="0.45882" fill="#a20000" stroke-width="0.5" stroke-linejoin="miter"></path><path d="M246.77123,160.58619c-0.3254,-1.46428 1.13888,-1.78968 1.13888,-1.78968l1.86485,-0.30261c1.04412,0.17891 2.12031,0.14759 2.72157,0.48503c0.29922,0.05946 0.59843,0.11891 0.89765,0.17837l0.18681,0.26781l0.08339,-0.12508l1.2735,0.849c0.41355,0.26708 0.68731,0.73206 0.68731,1.26098c0,0.82843 -0.67157,1.5 -1.5,1.5c-0.20896,0 -0.40793,-0.04273 -0.58867,-0.11992l-1.40492,-0.56197l0.10266,-0.25666c-0.86689,-0.12591 -1.69167,-0.31532 -2.95249,-0.51837l-0.72086,0.27199c0,0 -1.46428,0.3254 -1.78968,-1.13888z" fill="#ffd4d4" stroke-width="0.5" stroke-linejoin="miter"></path><path d="M258.96188,166.05561c-1.34164,0.67082 -2.01246,-0.67082 -2.01246,-0.67082l-0.05009,-0.12607c-0.2873,-0.43095 -0.5746,-0.8619 -0.8619,-1.29286c0,0 -0.83205,-1.24808 0.41603,-2.08013c1.24808,-0.83205 2.08013,0.41603 2.08013,0.41603c0.2873,0.43095 0.5746,0.8619 0.8619,1.29286l0.23722,0.44853c0,0 0.67082,1.34164 -0.67082,2.01246z" fill="#ffd4d4" stroke-width="0.5" stroke-linejoin="miter"></path><path d="M219.73343,162.47734c0.02586,-0.31322 0.20834,-1.41813 1.49573,-1.41813c0.00367,0 0.00732,0.00001 0.01097,0.00003l0.71961,-0.62966c0.26455,-0.23393 0.61231,-0.37592 0.99323,-0.37592c0.82843,0 1.5,0.67157 1.5,1.5c0,0.10184 -0.01015,0.2013 -0.02949,0.29744l-0.28201,1.55104l-0.06752,-0.01228l0.02327,0.19187c-1.62424,3.44365 -1.08488,7.93021 0.28943,11.73143c0.53652,0.98398 1.10289,1.95497 1.60964,2.90888c0.24091,0.45349 0.38153,0.94596 0.48764,1.45167c0.89788,1.5464 1.72155,2.99498 2.54168,4.60556c0.23773,0.46687 0.84282,0.79912 0.95814,1.2828c1.34403,1.17576 2.71531,2.31242 4.01384,3.45037c1.14621,1.00446 1.99737,2.29115 3.15902,3.30283l0.73517,1.02029c1.68258,1.7163 1.83259,3.72644 2.92268,5.90204l0.2873,0.5746c0,0 0.67082,1.34164 -0.67082,2.01246c-1.34164,0.67082 -2.01246,-0.67082 -2.01246,-0.67082l-0.2873,-0.5746c-0.64087,-1.28423 -0.94369,-3.2489 -1.74154,-4.4544c-0.78697,0.05543 -1.29773,-0.65964 -1.29773,-0.65964l-0.66896,-0.94037c-0.69416,-0.87331 -1.46388,-1.69264 -2.29981,-2.4314c-0.43244,-0.4321 -0.86546,-0.8565 -1.29814,-1.27569c-2.78715,-2.41935 -5.60766,-5.00951 -7.87824,-7.88978c-0.49885,-0.5744 -0.98785,-1.16562 -1.46511,-1.77878c-1.0373,-1.33266 -2.65985,-3.03756 -3.13456,-4.68638c-0.71912,-2.49776 -0.31384,-6.31781 -0.02949,-9.23636c0.02374,-1.72024 0.3723,-3.45127 1.41584,-4.74908z" fill-opacity="0.17647" fill="#ffd4d4" stroke-width="0.5" stroke-linejoin="miter"></path></g></g></svg>