<svg version="1.1" xmlns="http://www.w3.org/2000/svg" xmlns:xlink="http://www.w3.org/1999/xlink" width="430.26633" height="477.72388" viewBox="0,0,430.26633,477.72388"><defs><linearGradient x1="293.4308" y1="349.52771" x2="293.4308" y2="-111.26766" gradientUnits="userSpaceOnUse" id="color-1"><stop offset="0" stop-color="#b39eda" stop-opacity="0.38039"></stop><stop offset="1" stop-color="#b39eda" stop-opacity="0"></stop></linearGradient></defs><g transform="translate(-78.14036,125.94618)"><g stroke-miterlimit="10"><g><g><g stroke-opacity="0.28235" stroke="#b59fd8" stroke-width="4.5"><path d="M385.90112,229.63132c-2.52997,-3.57881 -5.33736,-3.74319 -9.43659,-4.70549c-1.70807,-0.40097 -4.20411,-1.19523 -6.31957,-2.14056c-1.64981,0.45015 -3.29529,-2.26275 -4.66167,-2.99148l-0.22805,0.01573c-0.067,-0.06091 -0.13659,-0.11798 -0.20858,-0.17147c-1.37072,0.03044 -3.29869,0.64426 -4.34496,0.32181c-0.05315,-0.01638 -0.10606,-0.03339 -0.15874,-0.05098l-0.0051,0.03058l-1.96757,-0.32793c-0.96403,-0.1432 -1.70363,-0.97432 -1.70363,-1.97819c0,-0.19599 0.02819,-0.38539 0.08074,-0.56438c-0.17823,-0.41511 -0.2774,-0.9354 -0.2774,-1.58896c0,-1.20998 0.36271,-2.07863 0.97827,-2.67744c-1.07599,-1.25343 -2.08926,-2.43447 -2.99881,-3.1969c-2.91563,-2.44403 -5.80164,-3.92219 -8.34366,-7.05082l-0.16975,-0.03395c-2.03646,-3.20015 -5.15255,-6.65696 -8.32493,-10.08343c-2.74316,-2.33705 -5.44317,-4.71155 -8.03079,-7.19367c-0.38678,-0.37101 -0.77435,-0.71013 -1.16098,-1.02787c-1.4878,2.93154 -3.07214,5.36771 -5.35869,8.51962c-1.28311,1.76871 -1.64997,4.30622 -2.98085,6.18085c-2.18237,3.07402 -3.30627,6.92823 -6.35199,6.96018c-0.31586,0.42021 -0.61236,0.85135 -0.88145,1.29803c-3.16109,5.24728 -5.95368,11.63378 -7.93147,17.55232c0.90402,1.11739 1.63942,2.48553 2.95129,2.70309c2.90183,0.48125 6.29166,1.31028 9.17562,1.6c10.00428,1.00502 24.4307,1.56608 33.50319,4.80625c3.54365,1.26559 6.81858,2.70618 10.56434,3.59375c1.14522,0.27136 3.07337,0.18143 4.03566,1.00625c0.7183,0.61568 1.19877,1.46059 1.36654,2.33762c6.86212,0.85584 13.45163,3.00015 20.12506,4.76465c0.31935,-0.35291 0.76288,-0.59134 1.26166,-0.64636l3.17368,-0.39671l0.00474,0.03793c0.0671,-0.01845 0.13447,-0.03611 0.20212,-0.05295c2.8027,-0.69758 2.56147,0.60579 4.81943,1.03566c0.83517,0.159 1.68521,0.25062 2.52997,0.36391h0.49181c0.33532,0 0.65136,0.08252 0.92893,0.22836c0.27536,0.05494 0.5489,0.11774 0.81988,0.19164c1.08305,0 2.16611,0 3.24916,0c-0.29474,-0.3504 -0.57379,-0.64805 -0.83435,-0.86018c-2.13855,-1.74104 -4.6233,-4.4661 -6.87919,-5.88399c-3.47519,-2.18427 -6.4272,-3.41805 -9.40965,-6.25903c-0.74062,-0.70549 -0.57144,-1.48585 -0.32012,-2.21291c-0.68087,-0.34939 -0.90184,-1.04068 -0.97355,-1.45259zM405.53334,250.30001c-0.84464,0 -1.95682,0 -2.99757,0c-1.05958,0.88782 -2.32516,0.0441 -2.32516,0.0441l-0.07877,-0.15254c-0.26488,-0.08417 -0.53587,-0.15785 -0.81146,-0.22361l-1.42567,0.4277l-0.01802,-0.06005c-0.08723,0.04365 -0.17593,0.0848 -0.26625,0.1232c-1.4062,0.59783 -3.5802,0.1183 -5.43998,-0.41073c-1.90424,0.04544 -3.80487,-0.0076 -5.52602,-0.42544c-7.50207,-1.82127 -14.76138,-4.47987 -22.51266,-5.09447c-1.6065,0.23679 -3.86242,-0.15059 -4.7551,-0.24631c-6.27971,-0.67338 -10.66227,-2.22293 -16.55174,-4.06651c-12.66189,-3.96356 -24.9928,-3.3918 -38.57045,-3.28535c-1.00251,0.00786 -2.09844,2.24113 -6.32272,1.70296c-3.92607,-0.50018 -9.38767,-5.5577 -6.85551,-9.77796c0.7036,-1.17267 2.11729,-2.04405 3.64902,-2.74434l0.6398,-1.27959c0.82566,-2.3644 2.12196,-3.89685 3.50417,-5.9738c0,0 0.532,-0.798 1.4118,-0.92039c0.70536,-1.49735 1.47884,-2.9713 2.28987,-4.32484c0.36176,-0.84012 0.80575,-1.66433 1.28111,-2.46205c-0.05224,-0.44888 -0.26244,-0.94659 -0.13827,-1.36999c0.31778,-1.08357 2.72409,-5.64545 3.3625,-6.525c0.75373,-1.03842 2.48661,-1.97494 3.3966,-3.10571c0.90461,-2.97184 2.71231,-6.23945 2.87981,-6.60182c2.50155,-5.4121 5.59352,-10.43655 8.35413,-15.6239c-0.60713,-0.65038 -3.44168,-2.74006 -5.40525,-4.42969c-0.42591,-0.17236 -0.80697,-0.43238 -1.1208,-0.75769c-0.25627,-0.07139 -0.51418,-0.13548 -0.77447,-0.18936c-2.91772,-0.60397 -6.02855,-0.77617 -8.67006,-2.38789c-1.51487,-0.9243 -2.64623,-2.45484 -4.06541,-3.44246c-1.81428,-1.26259 -4.28977,-1.74155 -6.17182,-2.98111c-0.99145,-0.65299 -1.61245,-1.74315 -2.43964,-2.5947c-0.03937,-0.04053 -0.07954,-0.08035 -0.12046,-0.11949c-0.909,-0.48984 -1.80399,-1.02349 -2.69555,-1.61041c-1.06295,-0.46063 -2.16415,-0.86805 -3.05706,-1.42246c-0.9903,-0.51368 -1.92148,-1.18727 -2.69663,-1.99445c-0.31236,-0.20448 -0.59475,-0.42033 -0.83029,-0.65318c-0.75538,-0.74673 -1.0022,-1.89241 -1.69167,-2.70038c0,0 -0.96028,-1.15233 0.19206,-2.11261c1.15233,-0.96028 2.11261,0.19206 2.11261,0.19206c0.35714,0.43636 0.57813,0.97291 0.83336,1.48226c0.06407,0.03947 0.12494,0.08363 0.18215,0.13199l1.19244,0.9937l-0.16733,0.20079l0.10508,0.1261c2.46523,1.18476 4.83345,2.66055 7.54225,3.14481c3.64139,0.65098 8.04285,-0.01937 11.75973,-0.01937c0.67295,0 1.3518,0.01107 2.02442,0.00762l0.22324,-0.26789l0.02413,0.02011l0.02057,-0.07134c1.60216,-1.57833 2.22894,-3.73573 3.87449,-5.27597c3.07597,-2.87913 6.28287,-5.81277 10.00114,-7.74717c0.0342,-0.04593 0.06848,-0.09179 0.10283,-0.13759l-0.17082,-0.22776l0.8107,-0.60802c0.69938,-0.89608 1.42073,-1.76781 2.13893,-2.61624c-0.78163,-1.04444 -1.62218,-2.0124 -2.67015,-2.7111c-0.37476,-0.24986 -0.99821,-0.5713 -1.62902,-0.92758c-1.25397,1.03019 -2.54614,2.07258 -3.9912,2.65478c-0.76901,0.30983 -1.56465,0.55124 -2.37975,0.74161c-0.0639,0.04725 -0.12753,0.09476 -0.1909,0.14252c-3.32408,1.67137 -7.19509,4.36997 -10.887,4.99339c-8.29276,1.40033 -17.18953,-0.83034 -24.10691,-5.20387c0,0 -0.03002,-0.0191 -0.07787,-0.05605c-0.04976,-0.03433 -0.07709,-0.05711 -0.07709,-0.05711l-1.09526,-0.92024c-3.26583,-1.85827 -5.62418,-4.27822 -8.47829,-6.65823c-2.7444,-2.28852 -5.3807,-3.71706 -7.7034,-6.52577c-1.02114,-1.85536 -2.0765,-2.51545 -3.45026,-4.01496c-1.83088,-1.99846 -2.66411,-4.59759 -4.43704,-6.64044c-2.56031,-2.95011 -5.37563,-4.52011 -8.82093,-5.99539c-1.78448,-0.76411 -3.28215,-1.9432 -4.88905,-2.98685c-0.93343,0.43342 -1.68662,-0.41392 -1.68662,-0.41392c-0.73664,-0.82885 -1.48825,-1.65352 -2.11937,-2.56493l-1.12583,-0.14073c-0.75016,-0.08274 -1.33369,-0.71867 -1.33369,-1.49088c0,-0.7269 0.51706,-1.33304 1.20345,-1.47069l1.77116,-0.39359l0.01772,0.07972c0.1073,-0.04258 0.21635,-0.08123 0.32741,-0.11531c0.82255,-0.25243 3.87418,0.54028 4.87347,0.60277c0.30499,0.01907 0.6115,0.04397 0.91936,0.07384c0.16188,-0.50662 0.45538,-1.04715 0.53099,-1.53557c0.30177,-1.9495 0.97756,-3.27508 1.95408,-4.98538c0,0 0.03114,-0.0545 0.09184,-0.13484c0.70482,-4.00175 2.78055,-7.8751 5.28695,-11.19827c0.20635,-0.7933 0.445,-1.56654 0.73776,-2.29671c0.44658,-1.1138 1.18118,-2.10286 1.952,-3.07343c-1.48217,-2.34538 -2.39054,-4.79831 -2.46168,-7.61809c-0.05613,-0.28609 -0.00636,-0.55863 0.06286,-0.76822c0.05772,-0.20934 0.16489,-0.45891 0.36391,-0.66395l0.16638,-0.24648c1.76302,-3.08265 3.745,-5.72733 5.63927,-8.66486c1.24421,-1.92946 1.6411,-4.23329 3.07104,-6.10142c1.39179,-1.81829 3.21157,-3.41505 4.73924,-5.13655l0.2741,-0.54384c1.56827,-3.65512 4.04898,-6.72176 6.55888,-9.78483l-0.07498,-0.89972l0.01324,-0.0011c-0.00579,-0.02035 -0.0115,-0.04072 -0.01712,-0.06113c-0.53745,-1.95094 0.4056,-4.50178 1.00589,-6.54635c-0.00149,-0.58175 -0.00633,-1.1559 -0.00718,-1.71599c0,0 0,-0.91081 0.70974,-1.31296c0.2742,-0.35695 0.70536,-0.58704 1.19026,-0.58704c0.82843,0 1.5,0.67157 1.5,1.5v2h-0.25562c-0.02044,0.08679 -0.04015,0.17517 -0.05925,0.26497c0.11044,0.63741 0.18245,1.26553 0.22932,1.90459c0.18514,-0.26856 0.36699,-0.5394 0.54505,-0.81286c0.76891,-1.18088 1.77557,-2.77479 2.97657,-3.48494c0.06952,-0.27854 0.13909,-0.55706 0.20872,-0.83557l0.68028,-0.46448c0.08352,-0.16653 0.17115,-0.33324 0.2637,-0.50018c0,0 0.16614,-0.29905 0.48254,-0.53217c0.27132,-0.38663 0.72049,-0.63936 1.22869,-0.63936c0.82843,0 1.5,0.67157 1.5,1.5c0,0.25194 -0.06211,0.48937 -0.17185,0.69781l-0.24971,0.49942c-0.03668,0.1573 -0.09969,0.29303 -0.17769,0.40971c-0.08572,0.43811 -0.34841,0.75334 -0.34841,0.75334c-0.05861,0.06975 -0.11625,0.14001 -0.17297,0.21076c-0.09995,0.23253 -0.25336,0.46827 -0.44298,0.70594c-0.16715,0.43691 -0.32427,0.87343 -0.49019,1.31327c-0.00467,0.01857 -0.00934,0.03715 -0.01401,0.05572c-0.35219,0.93663 -0.68837,1.96447 -1.04371,3.00726c0.53415,-0.49211 1.05629,-0.99457 1.57059,-1.49533l0.29915,-0.02209l-0.04908,-0.11453l1.36952,-0.58694c0.18932,-0.08628 0.39973,-0.13434 0.62136,-0.13434c0.82843,0 1.5,0.67157 1.5,1.5c0,0.36885 -0.13313,0.70661 -0.35397,0.96784l-0.9937,1.19244l-0.35638,-0.29699c-1.40311,1.99246 -3.33003,3.18388 -5.85174,4.63907l-0.46754,0.31349c-1.68156,2.63572 -3.58046,5.57936 -4.66328,8.48647c-1.5223,4.08699 -2.91599,8.22774 -5.08721,11.95758c4.09514,-0.98635 9.45021,-1.13091 14.01751,-0.31351c4.05813,-3.68369 7.77708,-7.77842 11.96821,-11.35523c3.31387,-2.05755 6.16764,-5.17708 8.78161,-8.00393c0.51125,-0.55288 1.05111,-1.07762 1.6114,-1.58207c-0.25905,-0.46558 -0.19334,-0.99121 -0.19334,-0.99121c0.35337,-2.82699 0.96768,-5.57733 2.33371,-8.06085l0.56237,-1.3122c0.22167,-0.55152 0.76153,-0.9409 1.39234,-0.9409c0.82843,0 1.5,0.67157 1.5,1.5v1.8h-0.02073c0.0062,0.031 0.01215,0.06207 0.01783,0.09321c0.21492,1.17678 -0.27706,2.66216 -0.74175,4.09522c1.1141,-0.82483 2.22233,-1.65324 3.27508,-2.53296c1.82937,-1.52868 3.09485,-3.24546 5.09771,-4.67607c0,0 1.2206,-0.87186 2.09246,0.34874c0.87186,1.2206 -0.34874,2.09246 -0.34874,2.09246c-0.49032,0.35023 -0.92973,0.71225 -1.34113,1.08227c0.01275,0.275 -0.06746,0.52257 -0.16508,0.71752c-0.45221,0.99682 -0.96122,1.96172 -1.51508,2.90097l0.14943,-0.02136c0,0 1.5,0 1.5,1.5c0,1.5 -1.5,1.5 -1.5,1.5l-0.005,-0.228c-0.3325,0.20747 -0.6254,0.43205 -0.89553,0.64752l-0.12875,0.28969l-0.14922,-0.06632c-0.24031,0.19305 -0.4658,0.36996 -0.69039,0.5091c-0.26795,0.43212 -0.59449,0.81507 -0.99646,1.1217l-1.16681,0.97234c-0.23397,0.19779 -0.52932,0.32523 -0.85342,0.34967c-2.77455,3.36123 -5.78882,6.56323 -8.30558,9.99239c-2.67911,3.65037 -4.75302,8.09051 -7.22371,11.92549c-0.75852,0.90167 -1.40105,1.81655 -2.0946,2.68816c-0.0193,0.25885 0.00118,0.48722 0.05354,0.69433c0.47856,0.43355 0.9618,0.86311 1.45484,1.28492c3.26139,2.7902 6.90494,5.27509 8.76386,9.29222c1.09966,2.37638 1.52312,5.75426 1.54528,8.4998c1.20178,-1.20043 2.69422,-2.18318 4.71824,-3.35807c1.54882,-0.89904 2.47645,-2.45284 3.98992,-3.39387c2.61468,-1.62574 4.96731,-1.72503 7.90907,-2.01921l0.0942,-0.00008c1.12812,-0.50017 2.25951,-0.99158 3.38964,-1.4805c0,0 0.17979,-0.07705 0.43735,-0.11058c0.19615,-0.15684 0.39813,-0.30641 0.60421,-0.45091c0.22084,-0.25848 0.46354,-0.51657 0.74361,-0.77269c1.15653,-1.05767 2.61032,-1.79959 3.95051,-2.66365c0.08185,-0.09719 0.16137,-0.19727 0.23834,-0.30051c1.38605,-1.85899 2.72149,-4.09103 3.89429,-6.45265c0.22771,-1.42509 0.42144,-2.87877 0.99662,-4.17162c0.96878,-2.17755 2.44802,-4.20555 2.61203,-6.72249c-0.02588,-0.15484 -0.02672,-0.32319 0.0148,-0.49928c-0.00015,-0.02558 -0.00045,-0.05122 -0.00088,-0.0769c0,0 0,-1.5 1.5,-1.5c1.17051,0 1.42762,0.9134 1.4841,1.31467c2.63522,3.19042 2.94484,8.20591 3.59183,12.11769c0.26276,1.58867 1.11258,3.21055 1.4,4.8c0.88026,4.86781 -0.76694,9.63521 -2.02467,14.2469c-0.84193,3.29841 -1.54143,7.15635 -2.9632,10.38801c-0.00548,0.06378 -0.01225,0.10106 -0.01225,0.10106c-0.17195,0.94433 -0.3699,1.86427 -0.58696,2.76806c0.15901,0.58603 -0.1594,1.09221 -0.33,1.31013c-0.87175,3.31491 -1.96228,6.46147 -2.91647,9.86525c-0.4915,1.75326 -0.39948,3.5871 -1.03555,5.30865c-1.41528,3.83054 -4.45818,6.7275 -5.80233,10.40627c-0.89057,2.36653 -1.9937,4.02423 -3.56813,5.89901c0.02936,0.04287 0.05746,0.08743 0.08449,0.13366l0.07915,-0.05936l0.55743,0.74324c1.04754,0.60551 2.10261,1.29044 3.09127,2.01571c2.79555,-1.44078 5.58549,-2.87471 8.39205,-4.4508c1.38211,-0.35615 2.74495,-0.58837 4.07133,-1.04083c0.14719,-0.15502 0.32717,-0.2786 0.52882,-0.35966l1.25597,-0.53827c0.52806,-0.38066 1.04698,-0.79085 1.55768,-1.22187c1.06893,-1.22286 2.13684,-2.44596 3.43496,-3.43958c0.24146,-0.18482 0.48005,-0.35476 0.71517,-0.51405c0.52327,-0.53185 1.0396,-1.05912 1.55025,-1.56992c1.20864,-1.20899 1.95213,-3.06925 3.53458,-3.71603c0.06238,-0.0255 0.12526,-0.04921 0.18858,-0.07129l-0.02229,-0.03901l0.43591,-0.24909c0.08436,-0.33745 0.16872,-0.6749 0.25309,-1.01235l0.4967,-0.68568c0.14009,-0.33532 0.41889,-0.69795 0.97374,-0.81319c0.27506,-0.08903 0.61194,-0.11352 0.96774,0.05527c0.37094,0.13223 0.59183,0.38777 0.72338,0.64522c0.24822,0.37837 0.26044,0.74381 0.18499,1.04687c-0.09972,2.23649 -0.92268,4.24951 -1.20257,6.49859c-0.53839,4.32632 -1.2233,9.06287 -1.18876,13.41673l-0.2,0.95087c0,5.41638 0,10.83275 0,16.24913l-0.22607,0.87689c-0.00186,0.0113 -0.00306,0.01729 -0.00306,0.01729c-1.2815,6.21564 -4.86961,10.45997 -9.76038,14.29789c-1.81359,1.42318 -4.20538,1.98625 -6.15639,3.1046c-2.64863,1.51823 -4.39529,3.39164 -7.58845,3.79416l-0.50012,0.00599c-0.4424,0.30107 -0.93187,0.54214 -1.39118,0.72621c-0.18069,0.07241 -0.36493,0.13788 -0.55238,0.19682c-0.2713,0.61378 -0.53526,1.19846 -0.77235,1.7202c3.66498,2.875 7.69286,6.60132 10.13653,10.54212c1.71391,1.58052 3.44682,3.13628 5.21888,4.57687c0.54305,0.29425 1.04428,0.59805 1.44498,0.94096c0.33604,0.28758 0.64096,0.59633 0.92309,0.92083c1.76816,1.41681 4.66284,3.93713 6.20311,6.37867c0.0421,0.035 0.08331,0.07104 0.12358,0.10808c0.1166,0.08761 0.2243,0.18665 0.32027,0.3003c1.15424,1.36675 1.22517,2.47717 2.62996,3.69211c3.02214,2.61373 5.24819,4.03567 7.75394,7.24498c0.09057,0.11601 0.24053,0.29709 0.4195,0.52091c0.98976,0.09779 1.84904,0.6396 2.37588,1.42349c0.07288,0.03156 0.14486,0.06313 0.21591,0.09468c3.66497,-0.22146 7.76432,3.36014 10.79125,4.90287c3.35562,1.71025 7.63334,2.62187 10.51032,5.08786c2.54455,2.18104 4.42483,4.14315 7.24217,6.05933c0.03513,0.02389 0.09818,-0.00798 0.12497,0.02499c0.95653,1.17727 1.40975,2.8813 2.84245,3.67108c4.30698,2.37426 7.7942,5.44353 11.01449,8.98585c0.87288,0.96017 -0.13262,2.29084 0.61105,3.23968c0.41049,0.52375 0.99537,0.4841 1.09368,1.39589c4.73421,4.26676 9.32288,8.67022 14.12237,12.80169c2.04395,1.75946 2.90092,4.09475 4.74624,5.93247c1.77437,1.76707 3.85115,2.54466 5.28709,4.76275c0.81486,1.25871 1.25918,2.72668 2.01368,4.02247c0.48091,0.82591 1.43474,1.53966 1.41244,2.49512c-0.0042,0.17987 -0.01995,0.35772 -0.04537,0.53387h0.11794v2.2c0,1.10457 -0.89543,2 -2,2c-0.88087,0 -1.62873,-0.56947 -1.89552,-1.36034l-0.74559,-2.05036c-2.58189,-4.74374 -7.08291,-8.07095 -10.92781,-11.7312c-3.24629,-3.09039 -5.88285,-6.75923 -8.73985,-10.14524c-1.41369,-1.67545 -4.42194,-3.21237 -5.85227,-5.15965c-0.05055,-0.02553 -0.1011,-0.05106 -0.15165,-0.07659c-0.39585,0.05722 -0.84383,0.08326 -1.34909,0.08326c-0.9631,0 -1.92003,-0.75799 -2.82603,-1.75011c-0.59242,0.61022 -1.49885,0.61022 -1.49885,0.61022zM313.22,169.28001c0,0.00445 -0.00001,0.00888 -0.00004,0.01331c0.05096,0.00788 0.10186,0.01578 0.15272,0.02372c-0.0509,-0.01488 -0.10179,-0.02971 -0.15269,-0.04451c0.00001,0.00249 0.00001,0.00498 0.00001,0.00748z" fill="#130c1f"></path><path d="M263.46971,100.35037c1.43807,-1.18725 2.97725,-2.89419 3.82312,-4.71713c0.69413,-0.28319 1.50292,-0.52126 2.30334,-0.65619c1.11459,-0.43421 2.28747,-0.80025 3.53631,-1.08037l0.50026,0.25429l0.06797,-0.18587l2.21745,0.54573c0.83698,0.18886 1.45183,0.81768 1.45183,1.56431c0,0.72975 -0.58737,1.34697 -1.39542,1.55084l-1.99075,0.54437l-0.01991,-0.049c-0.09476,0.03922 -0.19092,0.0764 -0.28867,0.11131c-0.98458,0.35161 -2.44144,-0.05788 -3.67522,0.03208c-0.7282,0.32814 -1.42326,0.70131 -2.08132,1.13477c-0.64166,0.70961 -1.07657,1.47781 -1.68062,2.2173c0.03781,0.12528 0.05787,0.25629 0.05787,0.39116c0,0.62153 -0.42607,1.16143 -1.05167,1.43384l-1.99948,0.91127l-0.04935,-0.07288l-0.20905,0.17138c-1.50105,0.28287 -3.02109,0.51072 -4.5516,0.65193c0,0 -0.1967,0.01793 -0.47256,-0.0086c-0.05643,0.03378 -0.11409,0.06648 -0.17306,0.09803c-2.24509,1.20113 -8.79134,-1.0193 -10.5876,-2.33103c-1.16047,-0.84744 -1.36382,-1.66986 -1.71376,-2.40017c-0.21545,-0.20864 -0.42436,-0.42213 -0.62646,-0.63994c-0.48137,0.26868 -1.49434,0.64167 -2.50731,-0.18932c-1.39831,-1.14711 0,-2.29422 0,-2.29422l0.75964,-0.24545c0.0005,-0.24473 0.06834,-0.51307 0.27088,-0.76721c0.87573,0.064 1.70546,0.21552 2.41688,0.57618c0.93405,0.47353 6.17604,7.32436 8.44097,5.19889c0.47125,0 0.92768,-0.06292 1.36123,-0.18075c2.8816,0.32325 5.93386,0.02566 7.86606,-1.56953zM243.8343,98.93401l0.45991,0.24402c-0.0095,-0.01136 -0.01898,-0.02273 -0.02844,-0.0341c-0.12935,-0.07215 -0.27246,-0.14216 -0.43148,-0.20992z" fill="#b49fda"></path></g><g stroke="none" stroke-width="0.5"><path d="M385.90112,229.63132c-2.52997,-3.57881 -5.33736,-3.74319 -9.43659,-4.70549c-1.70807,-0.40097 -4.20411,-1.19523 -6.31957,-2.14056c-1.64981,0.45015 -3.29529,-2.26275 -4.66167,-2.99148l-0.22805,0.01573c-0.067,-0.06091 -0.13659,-0.11798 -0.20858,-0.17147c-1.37072,0.03044 -3.29869,0.64426 -4.34496,0.32181c-0.05315,-0.01638 -0.10606,-0.03339 -0.15874,-0.05098l-0.0051,0.03058l-1.96757,-0.32793c-0.96403,-0.1432 -1.70363,-0.97432 -1.70363,-1.97819c0,-0.19599 0.02819,-0.38539 0.08074,-0.56438c-0.17823,-0.41511 -0.2774,-0.9354 -0.2774,-1.58896c0,-1.20998 0.36271,-2.07863 0.97827,-2.67744c-1.07599,-1.25343 -2.08926,-2.43447 -2.99881,-3.1969c-2.91563,-2.44403 -5.80164,-3.92219 -8.34366,-7.05082l-0.16975,-0.03395c-2.03646,-3.20015 -5.15255,-6.65696 -8.32493,-10.08343c-2.74316,-2.33705 -5.44317,-4.71155 -8.03079,-7.19367c-0.38678,-0.37101 -0.77435,-0.71013 -1.16098,-1.02787c-1.4878,2.93154 -3.07214,5.36771 -5.35869,8.51962c-1.28311,1.76871 -1.64997,4.30622 -2.98085,6.18085c-2.18237,3.07402 -3.30627,6.92823 -6.35199,6.96018c-0.31586,0.42021 -0.61236,0.85135 -0.88145,1.29803c-3.16109,5.24728 -5.95368,11.63378 -7.93147,17.55232c0.90402,1.11739 1.63942,2.48553 2.95129,2.70309c2.90183,0.48125 6.29166,1.31028 9.17562,1.6c10.00428,1.00502 24.4307,1.56608 33.50319,4.80625c3.54365,1.26559 6.81858,2.70618 10.56434,3.59375c1.14522,0.27136 3.07337,0.18143 4.03566,1.00625c0.7183,0.61568 1.19877,1.46059 1.36654,2.33762c6.86212,0.85584 13.45163,3.00015 20.12506,4.76465c0.31935,-0.35291 0.76288,-0.59134 1.26166,-0.64636l3.17368,-0.39671l0.00474,0.03793c0.0671,-0.01845 0.13447,-0.03611 0.20212,-0.05295c2.8027,-0.69758 2.56147,0.60579 4.81943,1.03566c0.83517,0.159 1.68521,0.25062 2.52997,0.36391h0.49181c0.33532,0 0.65136,0.08252 0.92893,0.22836c0.27536,0.05494 0.5489,0.11774 0.81988,0.19164c1.08305,0 2.16611,0 3.24916,0c-0.29474,-0.3504 -0.57379,-0.64805 -0.83435,-0.86018c-2.13855,-1.74104 -4.6233,-4.4661 -6.87919,-5.88399c-3.47519,-2.18427 -6.4272,-3.41805 -9.40965,-6.25903c-0.74062,-0.70549 -0.57144,-1.48585 -0.32012,-2.21291c-0.68087,-0.34939 -0.90184,-1.04068 -0.97355,-1.45259zM405.53334,250.30001c-0.84464,0 -1.95682,0 -2.99757,0c-1.05958,0.88782 -2.32516,0.0441 -2.32516,0.0441l-0.07877,-0.15254c-0.26488,-0.08417 -0.53587,-0.15785 -0.81146,-0.22361l-1.42567,0.4277l-0.01802,-0.06005c-0.08723,0.04365 -0.17593,0.0848 -0.26625,0.1232c-1.4062,0.59783 -3.5802,0.1183 -5.43998,-0.41073c-1.90424,0.04544 -3.80487,-0.0076 -5.52602,-0.42544c-7.50207,-1.82127 -14.76138,-4.47987 -22.51266,-5.09447c-1.6065,0.23679 -3.86242,-0.15059 -4.7551,-0.24631c-6.27971,-0.67338 -10.66227,-2.22293 -16.55174,-4.06651c-12.66189,-3.96356 -24.9928,-3.3918 -38.57045,-3.28535c-1.00251,0.00786 -2.09844,2.24113 -6.32272,1.70296c-3.92607,-0.50018 -9.38767,-5.5577 -6.85551,-9.77796c0.7036,-1.17267 2.11729,-2.04405 3.64902,-2.74434l0.6398,-1.27959c0.82566,-2.3644 2.12196,-3.89685 3.50417,-5.9738c0,0 0.532,-0.798 1.4118,-0.92039c0.70536,-1.49735 1.47884,-2.9713 2.28987,-4.32484c0.36176,-0.84012 0.80575,-1.66433 1.28111,-2.46205c-0.05224,-0.44888 -0.26244,-0.94659 -0.13827,-1.36999c0.31778,-1.08357 2.72409,-5.64545 3.3625,-6.525c0.75373,-1.03842 2.48661,-1.97494 3.3966,-3.10571c0.90461,-2.97184 2.71231,-6.23945 2.87981,-6.60182c2.50155,-5.4121 5.59352,-10.43655 8.35413,-15.6239c-0.60713,-0.65038 -3.44168,-2.74006 -5.40525,-4.42969c-0.42591,-0.17236 -0.80697,-0.43238 -1.1208,-0.75769c-0.25627,-0.07139 -0.51418,-0.13548 -0.77447,-0.18936c-2.91772,-0.60397 -6.02855,-0.77617 -8.67006,-2.38789c-1.51487,-0.9243 -2.64623,-2.45484 -4.06541,-3.44246c-1.81428,-1.26259 -4.28977,-1.74155 -6.17182,-2.98111c-0.99145,-0.65299 -1.61245,-1.74315 -2.43964,-2.5947c-0.03937,-0.04053 -0.07954,-0.08035 -0.12046,-0.11949c-0.909,-0.48984 -1.80399,-1.02349 -2.69555,-1.61041c-1.06295,-0.46063 -2.16415,-0.86805 -3.05706,-1.42246c-0.9903,-0.51368 -1.92148,-1.18727 -2.69663,-1.99445c-0.31236,-0.20448 -0.59475,-0.42033 -0.83029,-0.65318c-0.75538,-0.74673 -1.0022,-1.89241 -1.69167,-2.70038c0,0 -0.96028,-1.15233 0.19206,-2.11261c1.15233,-0.96028 2.11261,0.19206 2.11261,0.19206c0.35714,0.43636 0.57813,0.97291 0.83336,1.48226c0.06407,0.03947 0.12494,0.08363 0.18215,0.13199l1.19244,0.9937l-0.16733,0.20079l0.10508,0.1261c2.46523,1.18476 4.83345,2.66055 7.54225,3.14481c3.64139,0.65098 8.04285,-0.01937 11.75973,-0.01937c0.67295,0 1.3518,0.01107 2.02442,0.00762l0.22324,-0.26789l0.02413,0.02011l0.02057,-0.07134c1.60216,-1.57833 2.22894,-3.73573 3.87449,-5.27597c3.07597,-2.87913 6.28287,-5.81277 10.00114,-7.74717c0.0342,-0.04593 0.06848,-0.09179 0.10283,-0.13759l-0.17082,-0.22776l0.8107,-0.60802c0.69938,-0.89608 1.42073,-1.76781 2.13893,-2.61624c-0.78163,-1.04444 -1.62218,-2.0124 -2.67015,-2.7111c-0.37476,-0.24986 -0.99821,-0.5713 -1.62902,-0.92758c-1.25397,1.03019 -2.54614,2.07258 -3.9912,2.65478c-0.76901,0.30983 -1.56465,0.55124 -2.37975,0.74161c-0.0639,0.04725 -0.12753,0.09476 -0.1909,0.14252c-3.32408,1.67137 -7.19509,4.36997 -10.887,4.99339c-8.29276,1.40033 -17.18953,-0.83034 -24.10691,-5.20387c0,0 -0.03002,-0.0191 -0.07787,-0.05605c-0.04976,-0.03433 -0.07709,-0.05711 -0.07709,-0.05711l-1.09526,-0.92024c-3.26583,-1.85827 -5.62418,-4.27822 -8.47829,-6.65823c-2.7444,-2.28852 -5.3807,-3.71706 -7.7034,-6.52577c-1.02114,-1.85536 -2.0765,-2.51545 -3.45026,-4.01496c-1.83088,-1.99846 -2.66411,-4.59759 -4.43704,-6.64044c-2.56031,-2.95011 -5.37563,-4.52011 -8.82093,-5.99539c-1.78448,-0.76411 -3.28215,-1.9432 -4.88905,-2.98685c-0.93343,0.43342 -1.68662,-0.41392 -1.68662,-0.41392c-0.73664,-0.82885 -1.48825,-1.65352 -2.11937,-2.56493l-1.12583,-0.14073c-0.75016,-0.08274 -1.33369,-0.71867 -1.33369,-1.49088c0,-0.7269 0.51706,-1.33304 1.20345,-1.47069l1.77116,-0.39359l0.01772,0.07972c0.1073,-0.04258 0.21635,-0.08123 0.32741,-0.11531c0.82255,-0.25243 3.87418,0.54028 4.87347,0.60277c0.30499,0.01907 0.6115,0.04397 0.91936,0.07384c0.16188,-0.50662 0.45538,-1.04715 0.53099,-1.53557c0.30177,-1.9495 0.97756,-3.27508 1.95408,-4.98538c0,0 0.03114,-0.0545 0.09184,-0.13484c0.70482,-4.00175 2.78055,-7.8751 5.28695,-11.19827c0.20635,-0.7933 0.445,-1.56654 0.73776,-2.29671c0.44658,-1.1138 1.18118,-2.10286 1.952,-3.07343c-1.48217,-2.34538 -2.39054,-4.79831 -2.46168,-7.61809c-0.05613,-0.28609 -0.00636,-0.55863 0.06286,-0.76822c0.05772,-0.20934 0.16489,-0.45891 0.36391,-0.66395l0.16638,-0.24648c1.76302,-3.08265 3.745,-5.72733 5.63927,-8.66486c1.24421,-1.92946 1.6411,-4.23329 3.07104,-6.10142c1.39179,-1.81829 3.21157,-3.41505 4.73924,-5.13655l0.2741,-0.54384c1.56827,-3.65512 4.04898,-6.72176 6.55888,-9.78483l-0.07498,-0.89972l0.01324,-0.0011c-0.00579,-0.02035 -0.0115,-0.04072 -0.01712,-0.06113c-0.53745,-1.95094 0.4056,-4.50178 1.00589,-6.54635c-0.00149,-0.58175 -0.00633,-1.1559 -0.00718,-1.71599c0,0 0,-0.91081 0.70974,-1.31296c0.2742,-0.35695 0.70536,-0.58704 1.19026,-0.58704c0.82843,0 1.5,0.67157 1.5,1.5v2h-0.25562c-0.02044,0.08679 -0.04015,0.17517 -0.05925,0.26497c0.11044,0.63741 0.18245,1.26553 0.22932,1.90459c0.18514,-0.26856 0.36699,-0.5394 0.54505,-0.81286c0.76891,-1.18088 1.77557,-2.77479 2.97657,-3.48494c0.06952,-0.27854 0.13909,-0.55706 0.20872,-0.83557l0.68028,-0.46448c0.08352,-0.16653 0.17115,-0.33324 0.2637,-0.50018c0,0 0.16614,-0.29905 0.48254,-0.53217c0.27132,-0.38663 0.72049,-0.63936 1.22869,-0.63936c0.82843,0 1.5,0.67157 1.5,1.5c0,0.25194 -0.06211,0.48937 -0.17185,0.69781l-0.24971,0.49942c-0.03668,0.1573 -0.09969,0.29303 -0.17769,0.40971c-0.08572,0.43811 -0.34841,0.75334 -0.34841,0.75334c-0.05861,0.06975 -0.11625,0.14001 -0.17297,0.21076c-0.09995,0.23253 -0.25336,0.46827 -0.44298,0.70594c-0.16715,0.43691 -0.32427,0.87343 -0.49019,1.31327c-0.00467,0.01857 -0.00934,0.03715 -0.01401,0.05572c-0.35219,0.93663 -0.68837,1.96447 -1.04371,3.00726c0.53415,-0.49211 1.05629,-0.99457 1.57059,-1.49533l0.29915,-0.02209l-0.04908,-0.11453l1.36952,-0.58694c0.18932,-0.08628 0.39973,-0.13434 0.62136,-0.13434c0.82843,0 1.5,0.67157 1.5,1.5c0,0.36885 -0.13313,0.70661 -0.35397,0.96784l-0.9937,1.19244l-0.35638,-0.29699c-1.40311,1.99246 -3.33003,3.18388 -5.85174,4.63907l-0.46754,0.31349c-1.68156,2.63572 -3.58046,5.57936 -4.66328,8.48647c-1.5223,4.08699 -2.91599,8.22774 -5.08721,11.95758c4.09514,-0.98635 9.45021,-1.13091 14.01751,-0.31351c4.05813,-3.68369 7.77708,-7.77842 11.96821,-11.35523c3.31387,-2.05755 6.16764,-5.17708 8.78161,-8.00393c0.51125,-0.55288 1.05111,-1.07762 1.6114,-1.58207c-0.25905,-0.46558 -0.19334,-0.99121 -0.19334,-0.99121c0.35337,-2.82699 0.96768,-5.57733 2.33371,-8.06085l0.56237,-1.3122c0.22167,-0.55152 0.76153,-0.9409 1.39234,-0.9409c0.82843,0 1.5,0.67157 1.5,1.5v1.8h-0.02073c0.0062,0.031 0.01215,0.06207 0.01783,0.09321c0.21492,1.17678 -0.27706,2.66216 -0.74175,4.09522c1.1141,-0.82483 2.22233,-1.65324 3.27508,-2.53296c1.82937,-1.52868 3.09485,-3.24546 5.09771,-4.67607c0,0 1.2206,-0.87186 2.09246,0.34874c0.87186,1.2206 -0.34874,2.09246 -0.34874,2.09246c-0.49032,0.35023 -0.92973,0.71225 -1.34113,1.08227c0.01275,0.275 -0.06746,0.52257 -0.16508,0.71752c-0.45221,0.99682 -0.96122,1.96172 -1.51508,2.90097l0.14943,-0.02136c0,0 1.5,0 1.5,1.5c0,1.5 -1.5,1.5 -1.5,1.5l-0.005,-0.228c-0.3325,0.20747 -0.6254,0.43205 -0.89553,0.64752l-0.12875,0.28969l-0.14922,-0.06632c-0.24031,0.19305 -0.4658,0.36996 -0.69039,0.5091c-0.26795,0.43212 -0.59449,0.81507 -0.99646,1.1217l-1.16681,0.97234c-0.23397,0.19779 -0.52932,0.32523 -0.85342,0.34967c-2.77455,3.36123 -5.78882,6.56323 -8.30558,9.99239c-2.67911,3.65037 -4.75302,8.09051 -7.22371,11.92549c-0.75852,0.90167 -1.40105,1.81655 -2.0946,2.68816c-0.0193,0.25885 0.00118,0.48722 0.05354,0.69433c0.47856,0.43355 0.9618,0.86311 1.45484,1.28492c3.26139,2.7902 6.90494,5.27509 8.76386,9.29222c1.09966,2.37638 1.52312,5.75426 1.54528,8.4998c1.20178,-1.20043 2.69422,-2.18318 4.71824,-3.35807c1.54882,-0.89904 2.47645,-2.45284 3.98992,-3.39387c2.61468,-1.62574 4.96731,-1.72503 7.90907,-2.01921l0.0942,-0.00008c1.12812,-0.50017 2.25951,-0.99158 3.38964,-1.4805c0,0 0.17979,-0.07705 0.43735,-0.11058c0.19615,-0.15684 0.39813,-0.30641 0.60421,-0.45091c0.22084,-0.25848 0.46354,-0.51657 0.74361,-0.77269c1.15653,-1.05767 2.61032,-1.79959 3.95051,-2.66365c0.08185,-0.09719 0.16137,-0.19727 0.23834,-0.30051c1.38605,-1.85899 2.72149,-4.09103 3.89429,-6.45265c0.22771,-1.42509 0.42144,-2.87877 0.99662,-4.17162c0.96878,-2.17755 2.44802,-4.20555 2.61203,-6.72249c-0.02588,-0.15484 -0.02672,-0.32319 0.0148,-0.49928c-0.00015,-0.02558 -0.00045,-0.05122 -0.00088,-0.0769c0,0 0,-1.5 1.5,-1.5c1.17051,0 1.42762,0.9134 1.4841,1.31467c2.63522,3.19042 2.94484,8.20591 3.59183,12.11769c0.26276,1.58867 1.11258,3.21055 1.4,4.8c0.88026,4.86781 -0.76694,9.63521 -2.02467,14.2469c-0.84193,3.29841 -1.54143,7.15635 -2.9632,10.38801c-0.00548,0.06378 -0.01225,0.10106 -0.01225,0.10106c-0.17195,0.94433 -0.3699,1.86427 -0.58696,2.76806c0.15901,0.58603 -0.1594,1.09221 -0.33,1.31013c-0.87175,3.31491 -1.96228,6.46147 -2.91647,9.86525c-0.4915,1.75326 -0.39948,3.5871 -1.03555,5.30865c-1.41528,3.83054 -4.45818,6.7275 -5.80233,10.40627c-0.89057,2.36653 -1.9937,4.02423 -3.56813,5.89901c0.02936,0.04287 0.05746,0.08743 0.08449,0.13366l0.07915,-0.05936l0.55743,0.74324c1.04754,0.60551 2.10261,1.29044 3.09127,2.01571c2.79555,-1.44078 5.58549,-2.87471 8.39205,-4.4508c1.38211,-0.35615 2.74495,-0.58837 4.07133,-1.04083c0.14719,-0.15502 0.32717,-0.2786 0.52882,-0.35966l1.25597,-0.53827c0.52806,-0.38066 1.04698,-0.79085 1.55768,-1.22187c1.06893,-1.22286 2.13684,-2.44596 3.43496,-3.43958c0.24146,-0.18482 0.48005,-0.35476 0.71517,-0.51405c0.52327,-0.53185 1.0396,-1.05912 1.55025,-1.56992c1.20864,-1.20899 1.95213,-3.06925 3.53458,-3.71603c0.06238,-0.0255 0.12526,-0.04921 0.18858,-0.07129l-0.02229,-0.03901l0.43591,-0.24909c0.08436,-0.33745 0.16872,-0.6749 0.25309,-1.01235l0.4967,-0.68568c0.14009,-0.33532 0.41889,-0.69795 0.97374,-0.81319c0.27506,-0.08903 0.61194,-0.11352 0.96774,0.05527c0.37094,0.13223 0.59183,0.38777 0.72338,0.64522c0.24822,0.37837 0.26044,0.74381 0.18499,1.04687c-0.09972,2.23649 -0.92268,4.24951 -1.20257,6.49859c-0.53839,4.32632 -1.2233,9.06287 -1.18876,13.41673l-0.2,0.95087c0,5.41638 0,10.83275 0,16.24913l-0.22607,0.87689c-0.00186,0.0113 -0.00306,0.01729 -0.00306,0.01729c-1.2815,6.21564 -4.86961,10.45997 -9.76038,14.29789c-1.81359,1.42318 -4.20538,1.98625 -6.15639,3.1046c-2.64863,1.51823 -4.39529,3.39164 -7.58845,3.79416l-0.50012,0.00599c-0.4424,0.30107 -0.93187,0.54214 -1.39118,0.72621c-0.18069,0.07241 -0.36493,0.13788 -0.55238,0.19682c-0.2713,0.61378 -0.53526,1.19846 -0.77235,1.7202c3.66498,2.875 7.69286,6.60132 10.13653,10.54212c1.71391,1.58052 3.44682,3.13628 5.21888,4.57687c0.54305,0.29425 1.04428,0.59805 1.44498,0.94096c0.33604,0.28758 0.64096,0.59633 0.92309,0.92083c1.76816,1.41681 4.66284,3.93713 6.20311,6.37867c0.0421,0.035 0.08331,0.07104 0.12358,0.10808c0.1166,0.08761 0.2243,0.18665 0.32027,0.3003c1.15424,1.36675 1.22517,2.47717 2.62996,3.69211c3.02214,2.61373 5.24819,4.03567 7.75394,7.24498c0.09057,0.11601 0.24053,0.29709 0.4195,0.52091c0.98976,0.09779 1.84904,0.6396 2.37588,1.42349c0.07288,0.03156 0.14486,0.06313 0.21591,0.09468c3.66497,-0.22146 7.76432,3.36014 10.79125,4.90287c3.35562,1.71025 7.63334,2.62187 10.51032,5.08786c2.54455,2.18104 4.42483,4.14315 7.24217,6.05933c0.03513,0.02389 0.09818,-0.00798 0.12497,0.02499c0.95653,1.17727 1.40975,2.8813 2.84245,3.67108c4.30698,2.37426 7.7942,5.44353 11.01449,8.98585c0.87288,0.96017 -0.13262,2.29084 0.61105,3.23968c0.41049,0.52375 0.99537,0.4841 1.09368,1.39589c4.73421,4.26676 9.32288,8.67022 14.12237,12.80169c2.04395,1.75946 2.90092,4.09475 4.74624,5.93247c1.77437,1.76707 3.85115,2.54466 5.28709,4.76275c0.81486,1.25871 1.25918,2.72668 2.01368,4.02247c0.48091,0.82591 1.43474,1.53966 1.41244,2.49512c-0.0042,0.17987 -0.01995,0.35772 -0.04537,0.53387h0.11794v2.2c0,1.10457 -0.89543,2 -2,2c-0.88087,0 -1.62873,-0.56947 -1.89552,-1.36034l-0.74559,-2.05036c-2.58189,-4.74374 -7.08291,-8.07095 -10.92781,-11.7312c-3.24629,-3.09039 -5.88285,-6.75923 -8.73985,-10.14524c-1.41369,-1.67545 -4.42194,-3.21237 -5.85227,-5.15965c-0.05055,-0.02553 -0.1011,-0.05106 -0.15165,-0.07659c-0.39585,0.05722 -0.84383,0.08326 -1.34909,0.08326c-0.9631,0 -1.92003,-0.75799 -2.82603,-1.75011c-0.59242,0.61022 -1.49885,0.61022 -1.49885,0.61022zM313.22,169.28001c0,0.00445 -0.00001,0.00888 -0.00004,0.01331c0.05096,0.00788 0.10186,0.01578 0.15272,0.02372c-0.0509,-0.01488 -0.10179,-0.02971 -0.15269,-0.04451c0.00001,0.00249 0.00001,0.00498 0.00001,0.00748z" fill="#130c1f"></path><path d="M263.46971,100.35037c1.43807,-1.18725 2.97725,-2.89419 3.82312,-4.71713c0.69413,-0.28319 1.50292,-0.52126 2.30334,-0.65619c1.11459,-0.43421 2.28747,-0.80025 3.53631,-1.08037l0.50026,0.25429l0.06797,-0.18587l2.21745,0.54573c0.83698,0.18886 1.45183,0.81768 1.45183,1.56431c0,0.72975 -0.58737,1.34697 -1.39542,1.55084l-1.99075,0.54437l-0.01991,-0.049c-0.09476,0.03922 -0.19092,0.0764 -0.28867,0.11131c-0.98458,0.35161 -2.44144,-0.05788 -3.67522,0.03208c-0.7282,0.32814 -1.42326,0.70131 -2.08132,1.13477c-0.64166,0.70961 -1.07657,1.47781 -1.68062,2.2173c0.03781,0.12528 0.05787,0.25629 0.05787,0.39116c0,0.62153 -0.42607,1.16143 -1.05167,1.43384l-1.99948,0.91127l-0.04935,-0.07288l-0.20905,0.17138c-1.50105,0.28287 -3.02109,0.51072 -4.5516,0.65193c0,0 -0.1967,0.01793 -0.47256,-0.0086c-0.05643,0.03378 -0.11409,0.06648 -0.17306,0.09803c-2.24509,1.20113 -8.79134,-1.0193 -10.5876,-2.33103c-1.16047,-0.84744 -1.36382,-1.66986 -1.71376,-2.40017c-0.21545,-0.20864 -0.42436,-0.42213 -0.62646,-0.63994c-0.48137,0.26868 -1.49434,0.64167 -2.50731,-0.18932c-1.39831,-1.14711 0,-2.29422 0,-2.29422l0.75964,-0.24545c0.0005,-0.24473 0.06834,-0.51307 0.27088,-0.76721c0.87573,0.064 1.70546,0.21552 2.41688,0.57618c0.93405,0.47353 6.17604,7.32436 8.44097,5.19889c0.47125,0 0.92768,-0.06292 1.36123,-0.18075c2.8816,0.32325 5.93386,0.02566 7.86606,-1.56953zM243.8343,98.93401l0.45991,0.24402c-0.0095,-0.01136 -0.01898,-0.02273 -0.02844,-0.0341c-0.12935,-0.07215 -0.27246,-0.14216 -0.43148,-0.20992z" fill="#b49fda"></path></g></g><g fill-opacity="0.08235" fill="#b69edb" stroke="none" stroke-width="0.5"><g><path d="M235.52632,103.90922c0,0 -3.01755,-1.20702 -1.81053,-4.22457c1.20702,-3.01755 4.22457,-1.81053 4.22457,-1.81053c0.02633,0.01081 0.05264,0.02166 0.07893,0.03255c1.33873,-0.64195 2.80891,0.02631 2.80891,0.02631c0.86424,0.39302 1.68976,0.88298 2.52512,1.34564c0.6022,0.16207 1.17853,0.35356 1.7083,0.54714c0.94293,0.34455 1.88273,0.70966 2.81276,1.09921c0.7518,0.14404 1.51064,0.25754 2.27009,0.36883c-0.07088,-0.37301 -0.11867,-0.74724 -0.14354,-1.11643c-1.57724,-0.14654 -3.18044,-0.31747 -4.21284,-1.39484c-1.25349,-1.30809 -0.89312,-3.58433 -0.71781,-5.38755c0.27288,-2.80681 3.30956,-5.71523 4.50156,-8.19748c0.96749,-2.01473 1.87968,-4.98522 2.57828,-7.08356c0,0 0.29231,-0.87692 1.03281,-1.53954c-0.94414,-2.16675 -1.60181,-4.39202 -1.18377,-6.75297c0.02334,-0.13184 0.04587,-0.26502 0.06816,-0.39912c-0.42295,-1.22172 -0.85408,-2.49478 -0.83398,-3.28063c0.07511,-2.9364 2.65927,-7.20554 4.42816,-9.48699c1.11068,-1.43251 2.92548,-2.19829 4.07815,-3.59723c1.10928,-1.34628 1.56591,-3.13564 2.59269,-4.54585c1.21637,-1.67061 3.00683,-2.84489 4.36498,-4.40243c0.41721,-0.47846 0.92195,-1.74495 1.31277,-2.843c0.05306,-0.2742 0.12654,-0.52601 0.25157,-0.72651c0.1789,-0.5297 0.30967,-0.94239 0.3593,-1.08137l0.89757,-0.198l0.17633,-0.17633l-0.2643,-0.39645l2.21303,-1.47535c0.5231,-0.35985 1.15683,-0.57048 1.83975,-0.57048c1.79493,0 3.25,1.45507 3.25,3.25c0,1.38582 -0.86737,2.56905 -2.08884,3.03643c-0.32814,1.10992 -0.72243,2.19178 -1.27417,3.20615c-2.09827,3.85763 -4.84579,7.03053 -6.67221,11.0888c-1.84904,4.10853 -2.81959,9.88326 -6.75615,12.68323c-0.00333,0.00237 -0.00666,0.00469 -0.01001,0.00698c-0.00355,1.49753 0.14775,2.78982 1.02501,4.44323l1.254,1.672c0.51578,0.43958 1.09141,0.93386 1.83389,1.41485c4.557,2.95207 9.21554,5.94042 13.70981,9.08951c1.87319,-0.39416 3.85741,-0.92154 5.51914,-0.12401c5.2584,2.52371 3.84973,5.07947 1.95926,7.69036c0.00018,0.01413 0.00027,0.02829 0.00027,0.04246c0,0.96566 -0.42116,1.83296 -1.08981,2.42823c0.66374,0.00693 1.32826,0.00849 1.95243,-0.11512c3.1542,-0.62462 6.22361,-0.79529 9.24129,-0.60336c1.42337,-0.0766 2.87863,0.05921 4.24276,-0.33169c2.01105,-0.57629 3.8587,-2.59194 5.35681,-3.90279c2.23666,-1.67105 4.68721,-3.38426 7.28307,-4.46963c0.66635,-0.27861 1.48741,-0.15828 2.09689,-0.54582c0.75169,-0.47796 1.14724,-1.37472 1.82767,-1.94961c1.49735,-1.26511 3.36491,-2.02013 4.95881,-3.16121c2.81779,-2.01727 5.92625,-5.10159 8.2691,-7.58245c1.02667,-1.08714 1.91306,-2.26675 2.69752,-3.51074c0.67912,-2.8181 1.85441,-6.23097 3.50513,-8.62552c0.33612,-0.48758 0.662,-0.87256 0.96673,-1.20433c0.70412,-1.90052 1.39223,-3.79342 2.16215,-5.60702c0.22441,-0.65152 0.67716,-1.40617 1.59056,-1.79929c0.54302,-0.292 1.2373,-0.43988 2.09596,-0.22086c0.87551,0.13692 1.4554,0.54634 1.83949,1.02864c0.69023,0.72697 0.80545,1.60722 0.75193,2.29698l-0.01461,1.19897c-0.38856,2.86225 -1.7815,5.12808 -3.21707,7.4188c-1.03726,2.62278 -2.13698,5.21933 -3.50387,7.6705c-0.89897,4.15951 -1.12791,8.37918 -2.40511,12.53805c-0.67623,2.20198 -1.93061,4.18323 -2.85522,6.29299c-1.95041,4.45042 -3.29754,9.2522 -5.15775,13.77688l-0.50385,2.30774c-0.92602,1.66262 -1.57782,3.47313 -2.55989,5.10328c-0.90264,1.49831 -2.35788,2.62633 -3.19789,4.16064c-1.51015,2.75835 -2.30208,5.64515 -4.44864,8.11595c-0.57346,0.66009 -1.46416,0.97566 -2.0865,1.58989c-2.3193,2.28907 -4.26781,5.68379 -6.13977,8.32161c-1.38479,1.95133 -1.19429,3.26245 -3.11023,5.17839c-1.75932,1.75932 -4.08595,3.03 -6.53491,3.75743c-2.59205,2.21517 -6.92509,2.12961 -9.98513,1.66002c-6.74908,-1.03569 -10.04762,-5.66396 -14.72041,-9.81636c-0.56076,-0.49832 -1.12687,-0.98996 -1.69579,-1.47859c-2.04036,-1.51112 -4.01741,-3.10305 -6.24312,-4.35964c-3.36351,-1.89896 -6.65723,-3.21363 -9.33714,-6.19684c-1.89724,-2.11195 -3.13351,-4.97631 -4.07204,-7.9113l-2.2672,-2.94736c-0.43371,-0.55236 -0.69235,-1.2487 -0.69235,-2.00546c0,-0.07177 0.00233,-0.14299 0.00691,-0.2136c-2.31854,0.0735 -4.78493,0.19902 -7.00691,-0.0364c-1.658,-0.17567 -3.59379,0.15587 -4.93077,-0.84028c-1.00666,-0.75004 -0.62379,-2.436 -1.05085,-3.61648c-0.21309,-0.58902 -0.67184,-1.18339 -1.0979,-1.77124c-0.20806,-0.08839 -0.41719,-0.17334 -0.62751,-0.25446zM272.10146,95.70193c0.5893,-0.3144 1.18136,-0.62156 1.77613,-0.91945c-0.02918,-0.01883 -0.0584,-0.03757 -0.08766,-0.05622c-0.72121,0.30617 -1.33342,0.59394 -1.66025,0.80633z"></path><path d="M288.23333,74.64168c-0.14901,0 -0.29119,-0.00683 -0.42684,-0.01987c-0.11597,0.17198 -0.24337,0.30029 -0.38313,0.37732c-2.06616,1.13874 -5.10367,0.15864 -6.95689,-1.30127c-2.04383,-1.61006 -0.47441,-9.00734 -0.48314,-11.30619c0,0 0,-1.79842 1.33781,-2.71964c-0.06141,-1.17465 0.07669,-2.29083 0.64757,-3.23899c1.71749,-2.85254 3.73587,-1.80482 5.77762,-3.36321c1.4349,-1.09521 2.21184,-2.87886 3.55403,-4.08589c0.74883,-0.67343 3.5976,-2.454 4.51407,-3.51285c1.39561,-1.61244 2.69654,-3.3309 4.29919,-4.73774l2.54137,-1.43269c0,0 0.09407,-0.05226 0.25749,-0.12065c0.58626,-0.27845 1.43574,-0.51363 2.33583,-0.20056c0.57955,0.17069 1.16697,0.5538 1.65695,1.30325c0.53235,0.71997 0.68735,1.40394 0.6459,2.00667c-0.01938,0.95278 -0.53521,1.66752 -1.00012,2.1204c-0.12093,0.12945 -0.20264,0.19948 -0.20264,0.19948c-2.85247,2.43658 -4.93629,5.07591 -7.62171,7.63397c-2.12095,2.02036 -4.14604,3.36339 -5.84026,5.77555c-0.83291,1.18587 -2.5611,2.18238 -2.4031,3.62289c0.07658,0.69826 0.8157,1.19428 0.94136,1.8854c0.07757,0.42662 0.05864,6.62546 0.05864,7.1146v0.75c0,0 0,3.25 -3.25,3.25z"></path><path d="M355.79633,115.24447c0.29196,-0.94893 1.05839,-2.19446 3.07034,-2.19446c3.25,0 3.25,3.25 3.25,3.25l-0.75328,2.41393c-1.14517,1.33043 -1.48717,2.06203 -1.7176,2.98093c0.08947,0.29713 0.13755,0.61218 0.13755,0.93847c0,0.29733 -0.03993,0.58534 -0.11471,0.85895l-0.64899,2.59596l-0.10441,-0.0261l0.0438,0.23779c-2.18223,5.47428 -5.23967,10.37891 -8.20864,15.43206c-0.47953,1.40956 -0.98534,2.81037 -1.56485,4.18552c-0.01397,0.03314 -0.02797,0.06625 -0.04202,0.09933c-0.13772,0.79382 -0.2591,1.59286 -0.44929,2.37233c-0.45923,1.88218 -1.85267,3.44682 -2.33116,5.32419c-0.6522,2.55897 0.87238,5.33657 -1.32005,7.56528c-0.6903,0.70173 2.04653,-0.80184 2.93004,-0.36786c1.52273,0.74797 3.40459,1.7035 3.83678,3.34404c0.58347,2.21476 0.65117,5.38429 -1.1722,6.77027c-0.57689,0.43851 -1.25449,0.51511 -1.97704,0.40089c-0.48965,0.2956 -1.0636,0.46568 -1.67727,0.46568c-0.24534,0 -0.48434,-0.02719 -0.71413,-0.07871c-2.09106,1.80756 -5.4468,2.50835 -7.89129,3.20317c-2.72534,0.77464 -5.51362,1.23067 -8.32861,1.49852c2.15499,2.31609 3.92492,4.95926 6.53937,6.8519c3.51813,2.54682 6.9914,3.95606 10.16345,7.11569c3.71066,3.69612 6.39835,8.39655 10.133,12.13279l2.95209,2.70608c0.65296,0.59445 1.06279,1.45131 1.06279,2.4039c0,0.26982 -0.03288,0.53196 -0.09485,0.78263c0.71492,1.46942 1.36133,2.92954 2.24871,4.37325c0.02727,-0.00104 0.05455,-0.00197 0.08185,-0.00279c1.87115,-0.05614 3.46588,1.42639 5.24803,1.99937c7.89442,2.53817 13.59547,7.52151 20.02114,12.53962c5.19346,4.05581 11.09544,7.29897 16.42453,11.256c2.07326,-0.14619 3.02929,1.95706 3.02929,1.95706c3.27784,7.35035 11.34449,9.77598 16.83941,15.29676c1.26023,1.26616 1.89438,3.05548 3.10951,4.36499c1.22739,1.32274 3.03029,1.96433 4.48065,3.03792c4.43712,3.28447 7.58466,7.6024 10.92714,11.89988l0.95215,2.03829c0,0 1.20702,3.01755 -1.81053,4.22457c-3.01755,1.20702 -4.22457,-1.81053 -4.22457,-1.81053l-0.04785,-0.46171c-2.93645,-3.77544 -5.66086,-7.73297 -9.57286,-10.60012c-1.82666,-1.33878 -3.95443,-2.32499 -5.51935,-3.96208c-1.16205,-1.21564 -1.69713,-2.95009 -2.89049,-4.13501c-3.65974,-3.63385 -8.71363,-6.10113 -12.6889,-9.22626c-0.46658,-0.3668 -0.9,-0.76782 -1.30485,-1.19574c-0.294,0.33962 -0.65721,0.61769 -1.06769,0.81228l-2.43702,1.21851l-0.08388,-0.16777c-0.19968,0.1512 -0.40682,0.2931 -0.62286,0.42394c-1.06854,0.64715 -2.49754,0.07292 -3.7467,0.08694c-5.33773,0.05991 -10.93919,0.6722 -15.95702,-1.23245l-0.04298,0.23245c0,0 -3.25,0 -3.25,-3.25c0,-0.548 0.0924,-1.0036 0.24604,-1.38238l-0.85118,-0.23214l0.07648,-0.28043c-0.3176,-0.05208 -0.63597,-0.10855 -0.95498,-0.16837c-1.07845,-0.09846 -2.28133,-0.32895 -4.01023,-0.68668h-2.25614c-0.90338,0 -1.72067,-0.36858 -2.30969,-0.96356c-0.17036,-0.01918 -0.34055,-0.03666 -0.51055,-0.05226c-4.80265,-0.4408 -9.62561,-0.34774 -14.44965,-0.74541c0,0 -0.21726,-0.01811 -0.53455,-0.10121c-0.22208,0.0291 -0.36222,0.0291 -0.36222,0.0291l-1.08138,-0.05242c-5.03481,-0.91653 -9.74053,-1.59307 -14.5947,-3.08231c-2.47445,-0.75915 -4.54894,-2.69006 -7.14417,-2.88108c-4.49669,-0.33099 -9.06986,0.22404 -13.57702,0.01248c-4.90172,-0.23008 -9.69274,-0.74666 -14.60273,-0.74666c0,0 -0.39354,0 -0.90674,-0.13695l-1.63624,0.6545l-0.08521,-0.21303l-0.349,0.35226c-1.32775,0.08821 -2.7396,0.73794 -3.98325,0.26462c-1.89286,-0.72039 -4.13211,-1.74754 -4.8695,-3.63385c-1.51599,-3.87805 4.14286,-8.69317 7.1307,-11.27638c0.85422,-2.93972 1.5572,-5.97128 3.25092,-8.57269c0.44817,-0.68835 1.25405,-1.11207 1.64572,-1.83406c0.57603,-1.06184 0.63807,-2.35089 1.20363,-3.41835c0.83198,-1.57031 2.42199,-2.65596 3.24083,-4.23317c0.96407,-1.85694 1.26321,-4.02305 2.3006,-5.84004c1.89227,-3.3143 4.82951,-6.11269 6.7243,-9.45512c2.15462,-3.80076 2.37796,-8.85477 4.69918,-12.65918c-0.37227,0.00106 -0.74428,0.00144 -1.11595,0.00144c-3.92377,0 -6.37755,0.06003 -10.02628,-1.51109c-0.81025,-0.32379 -1.62049,-0.64758 -2.43074,-0.97137l-1.82322,-0.78033c0,0 -2.84961,-1.22126 -1.78963,-4.06139c-1.85062,-1.1395 -3.75097,-2.1499 -5.72226,-3.4646c-3.05356,-2.03649 -5.61324,-4.51985 -8.55258,-6.62343c-0.05827,-0.03686 -0.11638,-0.07401 -0.17431,-0.11144c-0.78653,-0.50825 -2.12519,-0.70685 -2.40415,-1.54862c-0.06715,-0.03807 -0.13458,-0.07588 -0.20228,-0.11342l-0.03217,-0.05162l-0.01449,0.02415l-2.44892,-1.46935c-0.97361,-0.56137 -1.62897,-1.6129 -1.62897,-2.8175c0,-1.79493 1.45507,-3.25 3.25,-3.25c0.58544,0 1.13473,0.1548 1.60917,0.42569l2.6971,1.47115l-0.02862,0.05248c0.06174,0.01233 0.12342,0.02518 0.18502,0.03857c1.01573,0.22072 1.68652,1.21671 2.55636,1.78575c2.09069,1.3677 5.06328,3.25926 7.47767,3.8133c2.03182,0.46626 4.16867,-0.08694 6.2533,-0.08694c5.02379,0 9.45937,-0.42325 14.26364,-1.28434c0.10686,-0.24814 0.24374,-0.4803 0.40606,-0.69192l1.4803,-1.97374l0.0677,0.05078c0.10498,-0.17235 0.21853,-0.33994 0.34212,-0.50195c0.81009,-1.06187 2.72956,-2.16688 4.73693,-2.78257c-0.01582,-0.52965 -0.04676,-1.06223 -0.04676,-1.56626c0,-0.00572 0,-0.01144 0,-0.01716c-0.31671,-0.50157 -0.5,-1.0958 -0.5,-1.73284v-2.0716c-0.89535,-2.43287 -2.33252,-4.822 -4.77774,-5.34518c0,0 -3.08322,-1.02774 -2.05548,-4.11096c0.45907,-1.37722 1.32826,-1.9342 2.14959,-2.12892c0.3037,-1.48014 1.61366,-2.59334 3.18363,-2.59334c0.45274,0 0.88385,0.09257 1.27545,0.25982l2.43157,0.97263l-0.08688,0.2172l0.57767,0.02909c2.75496,2.55881 5.98375,7.08676 4.5486,11.42394c-0.05639,0.17043 -0.11859,0.33804 -0.18599,0.50314l0.11743,0.02516l-0.26199,1.22262c0.16321,1.11553 0.27633,2.30179 0.30603,3.50179c0.47501,-0.5505 0.87277,-1.13596 1.14041,-1.7786c1.26596,-1.54897 2.9094,-3.74813 4.53738,-4.93832c1.63968,-1.19875 3.09048,-0.83914 4.00087,-2.83172c0.40411,-0.88448 0.19895,-1.96851 0.59785,-2.85536c0.56014,-1.24534 1.41178,-2.32978 2.30996,-3.382c0.90101,-2.39523 1.93305,-4.70239 3.29332,-6.77257c0.67522,-1.02761 1.46741,-1.89934 2.33129,-2.68667l0.21065,-0.37916c0.29918,-1.07368 0.37401,-2.23162 0.68617,-3.30601c0.78402,-2.69843 1.30222,-3.17234 2.73319,-4.87218zM401.3519,244.27311l-0.1519,-0.1981c-5.44352,-4.08294 -11.45998,-7.39976 -16.80487,-11.54208c-3.41079,-2.64338 -6.80452,-6.35413 -10.56391,-8.46163c-3.14806,-1.76479 -6.98003,-2.52999 -10.34114,-3.81034c-0.35572,-0.1355 -0.78406,-0.2249 -1.18016,-0.35031c-0.41095,0.10007 -0.81441,0.10049 -1.16838,0.05725c-0.80475,-0.04508 -1.39302,-0.30058 -1.82304,-0.65004l-1.80896,-0.90448c-1.0993,-0.52112 -1.85953,-1.64097 -1.85953,-2.93838c0,-0.46209 0.09644,-0.90165 0.27028,-1.29966c-0.18698,-0.30019 -0.34539,-0.57733 -0.4611,-0.81683c-0.72626,-1.50329 -1.02405,-2.87171 -1.71028,-4.18405l-0.27101,-0.16261l0.01257,-0.02095c-0.02615,-0.00645 -0.05228,-0.01299 -0.07839,-0.01962c-3.28217,-0.83323 -5.53768,-4.56435 -7.82915,-7.19355c-0.57479,-0.46212 -1.13329,-0.93795 -1.66251,-1.43813c-0.42279,-0.39958 -0.85398,-0.79041 -1.29177,-1.17369c-0.78926,-0.54492 -1.60891,-1.05128 -2.40821,-1.58445c-0.19606,-0.10821 -0.3764,-0.22401 -0.52371,-0.35625c-0.16135,-0.11225 -0.32139,-0.22623 -0.47966,-0.34249l-0.11235,-0.36745l-0.13376,0.1189l-1.99075,-2.2396c-0.51618,-0.57533 -0.83017,-1.33579 -0.83017,-2.16958c0,-0.45897 0.09514,-0.89572 0.26678,-1.29161c-1.23558,-0.72613 -2.48482,-1.45887 -3.70544,-2.34993c-2.40032,-1.75226 -4.10109,-4.05553 -5.99801,-6.1959c-0.51381,1.17401 -1.06518,2.3286 -1.62117,3.47979c-0.84225,2.47992 -1.75181,4.92879 -2.97428,7.27162c-0.39175,0.75078 -0.38197,2.02101 -1.02255,2.43974l-0.72807,2.4269c-0.37836,1.37557 -1.63813,2.38606 -3.13392,2.38606c-0.46801,0 -0.91292,-0.09893 -1.31495,-0.27701c-0.48565,0.70033 -0.95037,1.41753 -1.37751,2.16415c-0.82556,1.44306 -1.46068,4.26989 -2.1994,5.65996c-0.83987,1.58042 -2.44267,2.67421 -3.25917,4.26683c-2.14834,4.19039 -4.0935,7.91839 -5.52605,12.43913c-0.00971,0.50461 -0.16033,0.9577 -0.35018,1.3319c-0.09958,0.25325 -0.23492,0.51621 -0.41887,0.76319c1.24384,0.83238 2.51293,1.82695 3.14613,2.30185l0.8481,0.8019c0,0 0.26614,0.26614 0.52672,0.70786c3.18673,0.17085 6.35657,0.43812 9.57246,0.59358c4.60125,0.22242 9.34509,-0.48799 13.92298,0.01248c4.67137,0.51068 8.99878,3.57997 13.511,4.84229c2.69802,0.75478 5.94731,0.68531 8.75013,1.19432l-0.08138,-0.05242c0,0 0.34742,0 0.81508,0.11359c0.36939,-0.04004 0.62148,-0.01903 0.62148,-0.01903c4.85333,0.40922 9.71735,0.2798 14.55035,0.75459c1.73724,0.17067 3.49495,0.4977 5.25097,0.86326c1.70166,-0.46974 5.50864,0.64503 6.79008,0.98713c2.98713,0.79745 5.91977,1.41072 8.76458,2.6894c1.43205,0.64367 2.59802,1.89902 4.12082,2.28134c1.96281,0.49278 5.25126,-0.08694 7.2533,-0.08694h0.78771c-0.36822,-0.23432 -0.58581,-0.4519 -0.58581,-0.4519zM335.86949,169.02874c-0.14698,-0.03772 -0.29413,-0.07643 -0.44147,-0.11627l-0.59749,0.43816c0.33743,-0.08456 0.68492,-0.19532 1.03896,-0.32189z"></path></g><g><path d="M236.07757,100.82252c0,-1.43141 0.92539,-2.64669 2.21055,-3.08022l2.54913,-0.92696c6.54558,-3.24339 8.22429,-9.41393 11.25783,-15.54407c0.40902,-1.0086 1.0582,-1.51681 1.71609,-1.75611c0.68936,-0.32163 1.59597,-0.41146 2.71984,0.15047c0.06052,0.03026 0.11914,0.06115 0.17593,0.09262l1.11593,0.49887c0.9505,0.78705 2.08506,1.39397 2.85151,2.36116c0.55175,0.69626 0.45817,1.76036 0.98276,2.4773c0.38646,0.52816 1.14848,0.6511 1.63035,1.09393c3.45612,3.17608 6.97479,6.29865 10.45756,9.46134c1.0913,0.99101 2.08955,2.0799 3.1306,3.12357c0.57397,0.57542 1.33383,1.03845 1.95511,1.58583c0.16197,-0.02484 0.32788,-0.03773 0.49679,-0.03773c0.7292,0 1.40232,0.24015 1.94456,0.64569c0.46199,-0.25229 0.99197,-0.39569 1.55544,-0.39569c1.39504,0 2.58478,0.87895 3.04567,2.11327l0.91808,2.2952c0.98597,1.81518 1.62387,3.82173 2.7501,5.55335c1.32476,2.03689 3.54197,3.43859 4.69056,5.57977c0.49001,0.91346 0.30305,2.08455 0.75797,3.01598c2.59293,5.30901 7.82282,9.37676 9.48685,15.38939c0.21978,0.79414 0.37847,1.66032 0.46338,2.55802c1.53893,3.81495 0.9766,5.66741 -0.8981,6.58544c-0.86522,1.97383 -2.35683,3.54146 -4.65983,4.11189c-2.97047,0.73575 -8.15184,-2.0641 -10.83096,-3.2134c-2.96543,-1.27213 -5.66349,-2.83118 -8.54576,-4.2977c-6.95705,-6.08344 -15.22898,-10.66704 -21.56957,-17.49061c-1.37344,-1.47806 -2.15171,-3.41443 -3.27393,-5.09122c-1.43844,-2.14927 -3.91286,-3.74132 -5.87862,-5.33276c-3.80449,-3.08003 -6.7181,-4.96738 -11.42522,-6.42457c0,0 -3.10206,-0.96939 -2.13267,-4.07145c0.09902,-0.31687 0.22029,-0.59125 0.35824,-0.82853c-0.0041,-0.06683 -0.00618,-0.13421 -0.00618,-0.20208z"></path><path d="M263.61581,49.41956c3.15296,0.78824 2.36472,3.9412 2.36472,3.9412l-0.56195,1.7901c-0.97907,1.75826 -1.90084,3.3487 -2.6481,4.9943c0.40613,1.43842 -0.52078,2.77729 -0.52078,2.77729c-0.26578,0.38379 -0.54164,0.76078 -0.82172,1.13489c-0.16423,0.72993 -0.28779,1.49442 -0.36353,2.30704c-0.1534,1.64571 0.39541,5.14059 -0.45927,6.38972c-1.27312,1.86071 -2.98671,4.49102 -5.23198,4.28649c-2.09977,-0.19127 -2.91542,-3.16166 -3.73698,-5.10348c-1.53532,-3.62887 1.51918,-7.72597 3.88025,-10.83745c0.95975,-3.17355 2.49121,-5.9855 4.2201,-9.10549l-0.06195,-0.2099c0,0 0.78824,-3.15296 3.9412,-2.36472z"></path><path d="M292.87567,53.27443c2.2981,2.2981 0,4.59619 0,4.59619l-1.5,1.5c-0.27829,0.27103 -2.23818,1.92097 -2.40201,2.76714c-0.1584,0.81814 0.21208,1.6941 0,2.5c-0.04869,0.18501 -0.12588,0.35843 -0.21911,0.52535c0.90509,1.59306 1.81806,3.21064 2.10436,4.48747c0.39948,1.78158 1.40229,4.1249 0.17282,5.47471c-5.00285,5.49253 -8.18913,0.7416 -9.61722,-3.05608c-0.1281,-0.34064 -0.10448,-5.27849 -0.01316,-6.54656c-0.21118,-0.61914 -0.41289,-1.24204 -0.63444,-1.85705c0,0 -1.09309,-3.06066 1.96757,-4.15375c0.11613,-0.04148 0.22943,-0.07697 0.33995,-0.10688c0.85385,-2.05202 2.00564,-2.89827 3.70505,-4.63056l1.5,-1.5c0,0 2.2981,-2.2981 4.59619,0z"></path><path d="M329.96659,97.71716c-2.64463,1.88902 -4.53366,-0.75561 -4.53366,-0.75561l-1.05124,-1.49888c-0.99414,-1.13729 -1.52435,-2.7119 -2.73844,-3.61064c-1.25558,-0.92945 -3.75786,-0.69152 -4.13389,-2.20775c-0.65513,-2.64161 2.5757,-5.06453 3.81868,-7.05455c2.53483,-4.05828 5.09862,-6.73538 8.46531,-9.05141l-0.26388,-0.26388l0.55814,-0.55814c0.15179,-0.52463 0.3287,-1.03998 0.55402,-1.53761c0.77596,-1.71372 2.02038,-2.62846 2.68332,-4.34987c0.46831,-1.21604 0.53324,-2.58082 1.11467,-3.74702c0.464,-0.93067 1.50972,-1.489 1.96257,-2.42515c1.01128,-2.09055 1.28006,-4.47696 2.18814,-6.61435c0,0 1.28024,-2.98722 4.26746,-1.70698c2.98722,1.28024 1.70698,4.26746 1.70698,4.26746c-0.96187,2.22187 -1.2755,4.69754 -2.31186,6.88565c-0.46849,0.98914 -1.54677,1.59651 -2.03743,2.57485c-0.50378,1.00452 -0.47061,2.20854 -0.88533,3.25298c-0.48327,1.21707 -1.34561,2.24261 -2.071,3.33985c0.04483,0.21511 0.06839,0.43802 0.06839,0.66643v2.5h-0.09551l0.08605,0.24781c-0.72019,4.7571 -1.85586,13.8908 -6.66784,16.50547c-0.08871,0.0482 -0.17838,0.09376 -0.26894,0.13686l0.34087,0.47083c0,0 1.88902,2.64463 -0.75561,4.53366z"></path><path d="M330.43647,151.30264c-3.23012,0.3589 -3.58902,-2.87122 -3.58902,-2.87122l-0.06295,-1.46775c-0.5,-1.33333 -1,-2.66667 -1.5,-4c0,0 -0.02071,-0.05521 -0.0491,-0.15356l-1.02754,-0.57927c-0.75681,-0.65415 -1.51362,-1.3083 -2.27043,-1.96245c0,0 -2.44587,-2.14014 -0.30573,-4.58601c2.14014,-2.44587 4.58601,-0.30573 4.58601,-0.30573c0.57652,0.51252 1.15304,1.02503 1.72957,1.53755l1.95863,1.06731c0,0 2.09589,1.16438 1.68721,3.29313c0.42584,1.13558 0.85168,2.27115 1.27752,3.40673l0.43705,3.03225c0,0 0.3589,3.23012 -2.87122,3.58902z"></path><path d="M341.32216,170.50999c-0.09085,1.72081 -1.48395,3.20816 -2.74928,4.37793c-1.03419,0.9561 -2.57045,1.15216 -3.85568,1.72825c-6.4191,2.06529 -15.7007,1.96539 -21.96618,-0.8267c-1.60504,-0.71525 -2.8811,-2.03083 -4.4397,-2.84232c-1.11382,-0.57992 -4.62052,-2.22237 -5.69089,-3.03c-3.62794,-2.7374 -6.55112,-6.95755 -10.45741,-9.30326c-1.80092,-1.08144 -3.9346,-1.47729 -5.86569,-2.30416c0,0 -2.98722,-1.28024 -1.70698,-4.26746c1.28024,-2.98722 4.26746,-1.70698 4.26746,-1.70698c2.19371,0.94106 4.58713,1.46824 6.63431,2.69584c1.20377,0.72185 2.32109,1.59443 3.3933,2.54138h1.94216c4.96345,0 9.80886,-0.22991 14.61846,-1.18805c0.12821,-0.02554 4.94518,-0.49239 5.2053,-0.59163c2.47855,-0.94556 5.12149,-2.73241 7.68739,-2.05902c0.75527,0.19821 1.53095,0.72932 2.2936,1.43911c0.65237,0.16618 1.22589,0.52972 1.65323,1.02329l1.7379,1.98617l-0.08543,0.07475l0.22009,0.08971c0.17007,0.25379 0.34517,0.5083 0.52392,0.76355c0.50179,0.27266 0.81145,0.83563 1.05646,1.47337c0.7782,1.07044 1.57344,2.15376 2.28665,3.25059c0.13043,0.04409 0.25896,0.09087 0.38076,0.14715l2.19325,1.21847c1.02817,0.54576 1.72841,1.62737 1.72841,2.87254c0,0.92265 -0.38447,1.7555 -1.00195,2.34708c-0.00072,0.03005 -0.00187,0.06018 -0.00346,0.09038zM334.37935,169.79712c-0.15691,-0.12597 -0.31007,-0.2585 -0.45976,-0.39685c-0.15681,0.28185 -0.35432,0.53795 -0.5846,0.76033c0.34191,-0.14505 0.68605,-0.28156 1.04436,-0.36348z"></path><path d="M361.53933,222.47549l-2.16176,-0.80296c-5.06623,-3.92222 -7.2505,-10.08864 -10.72126,-15.24882c-1.64488,-2.44553 -4.80158,-4.72783 -6.87684,-6.80309c0,0 -2.2981,-2.2981 0,-4.59619c2.2981,-2.2981 4.59619,0 4.59619,0c2.39041,2.39041 5.69204,4.90891 7.62316,7.69691c2.21888,3.20345 3.81423,7.46271 6.27853,10.73888c0.95098,-0.26253 1.83846,-0.04066 1.83846,-0.04066c3.78117,0.95628 6.24992,2.51691 9.63965,4.23344c1.90732,0.96585 4.16698,1.08714 6.08045,2.04074c5.58995,2.78582 11.1183,7.36438 15.87106,11.42356c4.83066,4.12571 8.58181,9.97378 13.96938,13.28231c1.73693,1.30383 3.69549,2.29666 5.41566,3.62253c2.00875,1.5483 3.28925,4.58316 5.21248,5.97081c0.60635,0.4375 1.46001,0.3863 2.11532,0.74635c2.61047,1.43424 4.8624,3.44052 7.0586,5.39678c1.34134,1.19479 3.13229,1.80551 4.48528,2.98709c2.69533,2.35387 4.74221,5.59037 7.504,8.00349l1.01675,1.49243c0,0 1.45344,2.90689 -1.45344,4.36033c-2.69202,1.34601 -4.13752,-1.04753 -4.33651,-1.40873c-2.49608,-2.346 -4.50132,-5.4053 -7.00308,-7.54879c-1.37392,-1.17716 -3.15295,-1.82172 -4.51472,-3.01291c-1.88316,-1.64727 -3.72826,-3.36107 -5.9414,-4.60322c-0.91428,-0.51315 -2.05305,-0.6152 -2.88468,-1.25365c-2.0601,-1.58156 -3.15231,-4.42569 -5.28752,-6.02919c-0.94795,-0.71189 -1.96456,-1.3266 -2.97006,-1.95705c-0.90589,1.40665 -2.76549,1.40665 -2.76549,1.40665h-0.5c-5.5953,0 -11.50368,0.54516 -17.07025,-0.01582c-5.32862,-0.537 -9.88422,-3.07935 -14.96317,-4.33002c-5.17588,-1.27454 -10.35438,-2.44605 -15.47539,-3.99399c-6.62123,-1.1988 -13.43451,-0.32517 -20.05607,-1.45964c-6.38629,-1.09416 -12.73619,-3.37657 -19.22699,-3.96366c-3.57798,-0.32363 -7.36599,0.01313 -10.95813,0.01313c0,0 -1.58787,0 -2.54383,-1.10989c-0.7124,0.35492 -1.43847,0.66663 -2.19478,0.88277l0.01666,0.19267c-0.10906,-0.03913 -0.2201,-0.07505 -0.33265,-0.10851c-0.15397,0.03797 -0.30926,0.07178 -0.466,0.101c-1.28238,0.23903 -2.52205,-0.69645 -3.72313,-1.20543c-2.59353,-1.09905 -6.35131,-2.9737 -5.99666,-6.75252c0.0202,-0.21518 4.19143,-5.82057 5.2418,-7.07845c0.33596,-0.40234 0.66633,-0.80035 0.99085,-1.19566c0.90368,-1.64811 1.91175,-3.18903 2.80357,-4.52875c0,0 0.47246,-0.70869 1.29644,-1.1586c0.67607,-2.49446 1.28288,-5.04378 3.04325,-6.82398c1.84342,-1.86419 4.26103,-3.05569 6.39154,-4.58354l0.23172,6.84759c-1.04614,2.86822 -2.33638,5.67199 -3.93495,8.26782c-0.70036,1.86229 -1.44994,3.78206 -1.92273,4.71843c-1.1145,2.20733 -2.61334,4.26851 -0.45524,6.14492l-0.41158,-0.81564c0,0 1.72346,0.28724 2.43242,1.70418c3.64644,-0.02442 7.4575,-0.31547 11.07515,0.01473c6.67568,0.60933 13.21726,2.87467 19.77301,4.03634c6.73531,1.19348 13.67872,0.30623 20.44393,1.54036c5.1429,1.53272 10.34253,2.69349 15.52461,4.00601c4.75826,1.20518 9.05155,3.67655 14.03683,4.16998c4.25631,0.42128 8.73113,0.16245 13.09158,0.03885c-3.43075,-3.24933 -6.42718,-7.04475 -10.04123,-10.09944c-4.39616,-3.71574 -9.49178,-7.99639 -14.62894,-10.57644c-1.85736,-0.93283 -4.05651,-1.0378 -5.91955,-1.95926c-1.54537,-0.76434 -2.75075,-1.47862 -3.98646,-2.10902c-1.1864,1.63934 -3.37389,1.09246 -3.37389,1.09246z"></path></g><g><path d="M258.88689,76.12062c-2.2981,2.2981 -4.59619,0 -4.59619,0l-1.93577,-2.97471c-0.13841,-1.48579 -0.441,-2.96303 -0.87906,-4.38951c0,0 -0.93388,-3.11294 2.17905,-4.04682c3.11294,-0.93388 4.04682,2.17905 4.04682,2.17905c0.53866,1.82947 0.92114,3.71386 1.12094,5.61049l0.06423,-0.97471c0,0 2.2981,2.2981 0,4.59619z"></path><path d="M286.12309,78.7783c-3.20578,0.5343 -3.74008,-2.67148 -3.74008,-2.67148l-0.29422,-2.0343c0.05478,-3.57356 -1.38347,-7.32601 -2.16918,-10.77973c0,0 -0.72027,-3.16918 2.44891,-3.88945c3.16918,-0.72027 3.88945,2.44891 3.88945,2.44891c0.93551,4.12042 2.28593,8.00393 2.33082,12.22027l0.20578,0.9657c0,0 0.5343,3.20578 -2.67148,3.74008z"></path><path d="M277.6467,115.79717c0.96841,1.80204 2.05752,3.55662 3.19623,5.2999c2.62804,4.02335 4.80086,8.37994 7.62266,12.31172c1.22285,1.70386 2.85332,3.07587 4.22067,4.6661c0.96668,1.12426 2.72511,1.9725 2.80391,3.45311c0.38284,7.19389 -3.33586,7.16855 -8.41889,5.41848c-2.2178,-0.76358 -5.40397,-4.47841 -6.96324,-6.26044c-5.59969,-4.31764 -12.11417,-7.36988 -17.26203,-12.26141c-1.34898,-1.28181 -2.23541,-2.99231 -3.55532,-4.30402c-0.64737,-0.64335 -1.65243,-0.85656 -2.27431,-1.52457c-1.87098,-2.00975 -2.82558,-4.73681 -4.88752,-6.64052c-4.48293,-4.13891 -8.96465,-8.31818 -13.78538,-12.06761c0,0 -2.56539,-1.99531 -0.57009,-4.5607c1.99531,-2.56539 4.5607,-0.57009 4.5607,-0.57009c0.56723,0.44118 1.13101,0.88794 1.69157,1.33968c-0.00081,-0.17644 0.00517,-0.35766 0.01843,-0.54415c-2.24043,-4.17285 -0.49345,-10.22401 3.71331,-12.44492c1.18003,-0.62298 2.659,-0.29831 3.99328,-0.28119c4.08478,0.05242 7.08853,1.86926 9.64977,4.99588c1.57477,1.92239 2.03507,3.87972 4.69338,4.6594c2.25035,0.66002 7.05516,0.09498 8.00285,2.85982c0.23113,0.67429 0.1669,1.4287 -0.08982,2.20772l0.91514,2.74542l-0.02242,0.00747c0.01757,0.02901 0.03503,0.0581 0.05239,0.08726c0.62434,1.0487 1.18876,4.93201 1.55196,6.44525c0.39067,1.62771 0.74441,3.30208 1.14276,4.96241zM280.65091,133.15687c-0.38991,-0.58019 -0.78114,-1.16095 -1.17213,-1.74281c-0.07265,0.27175 -0.17963,0.52947 -0.31602,0.76822c0.49834,0.32198 0.99487,0.64624 1.48815,0.97459z"></path><path d="M326.16288,165.51778c0.08737,0.22738 0.15314,0.45349 0.20539,0.67803c0.70629,1.30714 1.39111,2.7395 2.12894,4.41669c0.50847,0.25884 1.0418,0.48755 1.37939,0.92825c0.03287,0.04291 0.06543,0.08601 0.09771,0.12931l0.02366,-0.02662l2.23785,1.9892c0.67628,0.59557 1.10297,1.4679 1.10297,2.43988c0,1.79493 -1.45507,3.25 -3.25,3.25h-2.5c-5.13609,-0.05327 -9.40351,-2.19893 -14.417,-3.02686c-3.40182,-0.56178 -7.21682,-0.73253 -10.43427,-2.39499c-2.25842,-1.16692 -3.72162,-3.4639 -5.59483,-5.1824c-4.28265,-3.92892 -8.36618,-7.56288 -12.06926,-12.08773c0,0 -2.05802,-2.51536 0.45734,-4.57338c2.51536,-2.05802 4.57338,0.45734 4.57338,0.45734c1.65071,2.01805 3.37456,3.83554 5.16062,5.58216c1.59805,-1.27112 4.19253,-1.08068 6.28802,-1.27393c5.4746,-0.50489 10.48787,3.13368 15.5427,3.21009c-0.00444,-0.06953 -0.00669,-0.13965 -0.00669,-0.21029c0,-1.79493 1.45507,-3.25 3.25,-3.25c1.44218,0 2.66496,0.93936 3.08987,2.2396l1.38003,3.91009c0.49029,0.91477 0.98263,1.82864 1.35418,2.79556zM306.25287,168.38572c2.44579,1.05151 5.25695,1.04406 7.75291,1.46367c0.25177,0.04233 0.5026,0.0891 0.75259,0.13969c-1.3078,-0.7281 -3.14295,-0.59806 -4.62124,-1.05901c-1.23903,-0.38634 -2.55232,-0.50564 -3.88426,-0.54435z"></path><path d="M329.49568,142.52597c-1.45344,2.90689 -4.36033,1.45344 -4.36033,1.45344l-2.38757,-1.82855c-0.41667,-0.75 -0.83333,-1.5 -1.25,-2.25c0,0 -1.57834,-2.84101 1.26267,-4.41935c2.84101,-1.57834 4.41935,1.26267 4.41935,1.26267c0.41667,0.75 0.83333,1.5 1.25,2.25l-0.38757,-0.82855c0,0 2.90689,1.45344 1.45344,4.36033z"></path><path d="M433.82819,266.91846c0.95904,0.21449 2.5106,0.90849 2.5106,3.15406c0,3.25 -3.25,3.25 -3.25,3.25l-1.82834,-0.40899c-3.26,-1.84748 -6.4006,-2.79272 -9.30107,-5.38579c-2.68734,-2.40253 -4.20111,-5.71511 -6.82473,-8.06686c-2.70843,-2.42777 -5.45543,-4.68318 -8.04872,-7.22465c-0.23989,0.05644 -0.49003,0.08629 -0.74714,0.08629h-3v-0.04749l-0.14727,0.04415c-4.73363,-0.42493 -9.12323,-1.93673 -13.74982,-2.52101c-2.65255,-0.33499 -5.2283,-0.72966 -7.80133,-1.18103c-0.00116,0.00116 -0.00231,0.00232 -0.00347,0.00348c-2.2981,2.2981 -4.59619,0 -4.59619,0l-1.05711,-1.08093c-0.85225,-0.17399 -1.70997,-0.35379 -2.57576,-0.53931c0,0 -1.24642,-0.26709 -2.01078,-1.24732c-0.71517,0.01093 -1.52238,0.06947 -2.55825,0.06947c-4,0 -8,0 -12,0c-7.5841,-0.0257 -14.67891,-2.59301 -22.05728,-4.04814c-7.71783,-1.52207 -16.15699,0.38542 -23.7493,-1.55354c-3.21476,-0.821 -6.36431,-2.17595 -9.47696,-3.31704c-0.17922,-0.0657 -0.37163,-0.11266 -0.56776,-0.15439c-1.35992,2.08898 -3.85571,1.09066 -3.85571,1.09066l-2.42971,-0.97188c-1.23432,-0.46088 -2.11327,-1.65063 -2.11327,-3.04567c0,-1.51031 1.03021,-2.78001 2.42624,-3.14469l3.43092,-0.98026l0.04771,0.16698c0.28554,-0.11409 0.57772,-0.2125 0.87796,-0.29186c1.42068,-0.37552 2.8472,0.73328 4.25073,1.16856c3.69466,1.14582 7.35092,3.2628 11.25832,3.59441c6.93979,0.58896 14.12098,-0.26271 21.01542,1.035c6.98482,1.31473 13.7848,3.98088 20.94272,3.95186c4,0 8,0 12,0c0.62743,0 5.897,-0.03362 6.34818,0.11263c1.48044,0.47989 2.72012,1.51112 4.07484,2.27893c1.98677,0.50016 3.97088,1.00889 5.95852,1.42039c1.6386,0.33923 3.35696,-0.00932 5.01556,0.2124c2.7933,0.37342 5.46185,1.07673 8.18133,1.65717c-0.06775,-0.0699 -0.13503,-0.14025 -0.20173,-0.21117c-1.96542,-2.08976 -3.95883,-3.93858 -5.96041,-5.95843c-1.21599,-1.22708 -1.8641,-2.9548 -3.12894,-4.13145c-8.09369,-7.52934 -19.66577,-10.06602 -28.93514,-15.69642c-0.10817,-0.03864 -0.21633,-0.07727 -0.3245,-0.11591c-0.59136,0.25721 -1.34963,0.33368 -2.30544,0.01508c-3.08322,-1.02774 -2.05548,-4.11096 -2.05548,-4.11096l4.44389,-2.77659c1.01238,0.37343 2.02476,0.74685 3.03714,1.12028c5.21589,3.09729 10.61417,4.92415 16.0186,7.50893c1.62224,0.77587 3.00826,1.9721 4.54222,2.9105c3.32546,2.03436 7.11898,3.66464 10.00403,6.38414c1.33844,1.26164 2.06341,3.07502 3.37106,4.36855c3.00777,2.9753 7.96234,6.38673 10.04812,10.2074c1.58639,-0.1869 2.77297,1.11833 2.77297,1.11833c3.07212,3.38105 6.50161,6.01483 9.79933,9.04782c2.58704,2.37937 4.02145,5.59136 6.67527,7.93314c2.38316,2.10293 4.90132,2.90077 7.61,4.30117z"></path></g></g><path d="M249.9574,101.01315c5.18374,0.97698 10.21041,2.73546 14.57719,-1.57635l0.12441,-0.03013l-0.0235,-0.03916l0.1133,-0.06798c0.11455,-0.24378 0.39046,-0.63796 0.96224,-0.57734l0.16037,-0.09622c0.15336,-0.09568 0.33452,-0.15096 0.52859,-0.15096c0.55228,0 1,0.44772 1,1c0,0.22876 -0.07682,0.43959 -0.20606,0.60808l-0.74394,0.99192l-0.09474,-0.07105l-0.01738,0.068c-0.36567,0.73133 -0.37824,1.65583 -0.90784,2.27878c-0.11644,0.13696 -2.17475,1.23719 -2.4708,1.32526c-2.53722,0.75474 -8.8168,1.0476 -11.80815,-0.00223c-0.69289,0.00237 -1.33606,-0.05719 -1.81733,-0.25007c-0.80327,-0.32193 -3.37916,-2.95596 -2.59229,-4.11654c0.45132,-0.66566 1.52746,-0.50402 2.2912,-0.75602c0.27286,0.3713 0.57955,0.92131 0.92472,1.46202z" fill-opacity="0.8" fill="#ece1ff" stroke="none" stroke-width="0.5"></path></g><path d="M177.6646,74.22435c10.98833,16.05769 41.81935,56.97685 79.34163,88.07074c32.93268,27.29059 73.08686,45.86414 81.40093,49.02983c50.2722,19.14182 42.02364,-36.59258 42.02364,-36.59258l125,124c0,0 -21.74817,28.98526 -61.69451,44.78937c-34.24718,13.54933 -88.46019,1.02545 -130.8402,-6.80008c-39.76247,-7.3422 -119.51513,-75.83208 -160.90494,-166.0951c-59.89537,-130.61998 -70.56035,-281.89419 -70.56035,-281.89419c0,0 40.34806,103.82392 96.2338,185.49201z" fill="#130c1f" stroke="url(#color-1)" stroke-width="4.5"></path></g></g></svg>