<svg version="1.1" xmlns="http://www.w3.org/2000/svg" xmlns:xlink="http://www.w3.org/1999/xlink" width="16.23369" height="24.94862" viewBox="0,0,16.23369,24.94862"><g transform="translate(-231.14516,-168.40821)"><g fill="#ffffff" stroke="none" stroke-width="0.5" stroke-miterlimit="10"><path d="M247.37886,180.3074c0,0.75 -0.75,0.75 -0.75,0.75c-1.90953,0 -3.9249,0 -5.96006,0c0.08178,2.21522 0.17599,4.41567 0.17599,6.55279c-0.00257,1.46642 -0.25624,2.88627 -0.25624,4.35605v0.6406c0,0 0,0.75 -0.75,0.75c-0.75,0 -0.75,-0.75 -0.75,-0.75v-0.6406c0,-1.46963 0.25908,-2.89266 0.25624,-4.35605c0,-2.14171 -0.08855,-4.34038 -0.1657,-6.55279c-2.48134,0 -4.96095,0 -7.28392,0c0,0 -0.75,0 -0.75,-0.75c0,-0.75 0.75,-0.75 0.75,-0.75c2.41152,0 4.82305,0 7.23457,0c-0.10715,-3.54983 -0.12714,-7.10984 0.35071,-10.50242c0,0 0.10607,-0.74246 0.84853,-0.6364c0.74246,0.10607 0.6364,0.84853 0.6364,0.84853c-0.48097,3.3144 -0.4598,6.80706 -0.34876,10.29029c1.79055,0 3.58111,0 5.37166,0h0.6406c0,0 0.75,0 0.75,0.75z"></path></g></g></svg>