<svg version="1.1" xmlns="http://www.w3.org/2000/svg" xmlns:xlink="http://www.w3.org/1999/xlink" width="137.9542" height="180.9632" viewBox="0,0,137.9542,180.9632"><g transform="translate(-217.99578,-96.76111)"><g stroke-miterlimit="10"><g><path d="M252.20303,191.68321c0.71479,0.25593 1.06095,1.10075 1.68688,1.53045c0.58814,0.40375 1.4552,0.40434 1.91993,0.94559c0.04093,0.04767 0.08101,0.09594 0.12028,0.14477l0.02976,-0.03721l0.51269,0.41015c0.81287,-2.7093 1.72105,-5.31431 2.61949,-8.0552c-0.02197,-0.01871 -0.04405,-0.03724 -0.06624,-0.05559c-0.62847,-0.51995 -1.29584,-1.01606 -1.90232,-1.56632c-0.99091,0.78849 -1.98179,1.44029 -3.00571,1.99088c-0.05615,0.04747 -0.11347,0.09332 -0.17204,0.13743c-1.5368,1.15736 -4.05001,1.93276 -5.83515,2.69623l-1.22985,0.58327c-1.96614,0.54436 -4.01761,0.85069 -5.91041,0.66345c-1.49007,0.39585 -2.98763,0.52067 -5.12904,-0.18769c-0.93515,-0.30934 -3.74116,-0.74688 -4.37798,-1.37221c-0.59034,-0.57969 -1.56714,-3.64914 -1.77799,-4.68626c-0.53882,-2.65027 -0.82471,-5.24196 -0.95173,-7.88391c-0.55321,-2.21503 -0.94467,-4.46342 -1.2194,-6.73306c-0.15765,-0.68128 -0.28115,-1.37569 -0.35825,-2.08863c-0.20216,-1.86924 -0.23602,-3.80515 -0.19357,-5.76421c-0.048,-1.66062 -0.06204,-3.32509 -0.05901,-4.98887l0.05655,-0.10252l-0.04642,-0.0058l0.13846,-1.10771c-0.48731,-1.73263 -0.61219,-3.60329 -1.18286,-5.30905c-0.07851,-0.23466 -0.15582,-0.46264 -0.23161,-0.68518c-0.38375,-0.71622 -0.69562,-1.443 -0.91241,-2.17387c-0.10008,-0.33742 -0.11923,-0.68662 -0.10348,-1.04102c-0.12073,-0.47147 -0.2236,-0.94891 -0.30439,-1.44874c-0.20395,-0.63897 -0.3875,-1.22203 -0.54613,-1.62771c-0.08656,-0.22137 -1.96796,-4.20589 -2.08535,-4.78779c-0.53207,-2.63751 -0.38304,-5.67715 -0.2165,-8.61285c-0.35843,-1.13741 -0.63025,-2.30231 -0.80165,-3.49153c0,0 -0.01223,-0.0856 -0.01222,-0.22146l-0.00537,-0.02603c0,0 0,-0.07962 0.01698,-0.20489c0.03433,-0.34057 0.15867,-0.80397 0.54867,-1.13648c0.17242,-0.15763 0.39739,-0.28673 0.69094,-0.35526c0.23001,-0.41236 0.66621,-0.80336 1.4934,-0.80336c1.75,0 1.75,1.75 1.75,1.75c0,0.95301 -0.04764,1.95949 -0.10822,2.99191c0.20504,0.77873 0.34934,1.5735 0.46006,2.37743c0.99001,2.34775 2.39383,4.53997 4.02521,6.54295c0.36512,-2.69233 0.853,-5.36223 1.33449,-8.03448c0.0439,-0.71093 0.14282,-1.41191 0.35109,-2.09179c0.01691,-0.05519 0.03393,-0.1104 0.05105,-0.16562c0.33891,-1.93889 0.65537,-3.88268 0.90025,-5.8408c0.35341,-2.82598 0.13863,-5.85962 0.4068,-8.74162c-0.69983,-1.78807 -1.63732,-3.491 -2.65473,-5.11048c0,0 -0.9275,-1.484 0.5565,-2.4115c1.484,-0.9275 2.4115,0.5565 2.4115,0.5565c0.31104,0.49996 0.61189,1.00371 0.90083,1.51234c0.84895,-2.61942 1.93102,-5.07388 2.99034,-7.73478c0,0 0.64993,-1.62483 2.27477,-0.9749c1.10129,0.44052 1.15757,1.3289 1.07949,1.85566c0.00384,0.02488 0.00716,0.04993 0.00994,0.07515l0.24712,1.97697l-0.0931,0.01164c0.03972,0.15302 0.06925,0.30912 0.08667,0.46891c0.06571,0.60296 -0.2293,1.14562 -0.56875,1.68515c-0.3472,1.775 -0.55607,3.5541 -0.74728,5.33308c0.32097,-0.27567 0.54892,-0.46964 0.59224,-0.51282c1.69517,-1.68952 2.89323,-3.42934 3.73096,-5.64867l0.27117,-0.1549l-0.10278,-0.08565l1.24144,-1.48973c0.32095,-0.39072 0.80784,-0.63994 1.35294,-0.63994c0.9665,0 1.75,0.7835 1.75,1.75c0,0.26663 -0.05963,0.51932 -0.16627,0.74549l-0.98456,2.21525l-0.02008,-0.00892c-0.01184,0.04197 -0.02418,0.08383 -0.03705,0.1256c-0.61632,1.99978 -1.4589,2.65789 -2.5418,3.54315c-0.86536,1.27665 -1.88978,2.5027 -2.97156,3.3304c-0.09772,0.78163 -0.80795,1.25512 -0.80795,1.25512c-0.19157,0.11287 -0.38315,0.22574 -0.57472,0.33862c-0.31359,0.45131 -0.61955,0.90825 -0.91725,1.36407l-0.10436,0.24351c-0.10645,0.26485 -0.27579,0.49764 -0.48954,0.67991c-0.0834,0.13147 -0.16607,0.26246 -0.24798,0.3928c-0.52878,2.47979 -1.37059,5.12236 -2.07037,7.53815c-0.0044,1.10949 -0.01643,2.21855 -0.06866,3.32403c-0.1762,3.72915 -0.48252,7.47446 -0.90966,11.19964c1.10352,0.05043 2.20452,0.27729 3.28726,-0.17156c0.47564,-0.19718 0.96022,-0.37864 1.45284,-0.54555c0.43826,-0.27335 0.88396,-0.55561 1.3382,-0.85844c6.53059,-2.77264 13.12279,-2.85604 19.86183,-2.42625c0.40587,-1.25303 1.32641,-2.81937 1.98794,-4.00914c0.80755,-2.86217 1.31566,-5.94477 2.05356,-8.51515c0.67576,-2.35396 1.51892,-4.65687 2.42568,-6.93839c-0.40698,-3.27283 -0.74074,-6.5215 -0.74547,-9.82233c0,0 0,-1.75 1.75,-1.75c1.75,0 1.75,1.75 1.75,1.75c-0.00115,0.72691 0.01572,1.45142 0.04713,2.1743c0.07169,-0.50298 0.13921,-1.00528 0.20287,-1.50639v-1.91791c0,-0.9665 0.7835,-1.75 1.75,-1.75c0.03589,0 0.07153,0.00108 0.10688,0.00321c0.36412,-1.19597 0.76381,-2.37915 1.32787,-3.53583c0,0 0.78262,-1.56525 2.34787,-0.78262c1.56525,0.78262 0.78262,2.34787 0.78262,2.34787c-0.9121,1.76665 -1.36276,3.71374 -1.93513,5.64232c0.0021,-0.00197 0.00419,-0.00395 0.00628,-0.00593c0.018,-0.0265 0.03594,-0.05304 0.05383,-0.07962l0.01922,0.00881c0.05548,-0.0553 0.10836,-0.11192 0.15705,-0.17064l-0.00538,-0.00627l0.03423,-0.02934c1.69315,-2.11833 2.85218,-4.1256 4.90144,-5.91362l1.21578,-1.21578c0.31669,-0.31669 0.75419,-0.51256 1.23744,-0.51256c0.9665,0 1.75,0.7835 1.75,1.75c0,0.38669 -0.12542,0.74409 -0.3378,1.03374l-1.23816,1.73343l-0.01651,-0.01179c-0.01401,0.03021 -0.02833,0.06031 -0.04296,0.09029c-0.48753,0.99915 -1.53133,1.61511 -2.23251,2.47786c-0.22451,0.27625 -0.45038,0.5508 -0.67739,0.82398c-0.08654,0.37259 -0.29208,0.69954 -0.57441,0.93861l-0.79607,0.68235c-0.2268,0.26439 -0.4543,0.52807 -0.68231,0.79136c-0.05728,0.11475 -0.13943,0.21993 -0.23528,0.31982c-0.19189,0.37209 -0.39902,0.71406 -0.7266,0.78657c-0.08902,0.10213 -0.17807,0.20427 -0.26715,0.30643c-0.56806,0.71621 -1.17613,1.40548 -1.80306,2.07709c-0.0971,0.11287 -0.19413,0.22591 -0.29108,0.33915l-0.59126,0.59855c0,0 -0.03404,0.03404 -0.09648,0.08519c-0.24884,0.25473 -0.49889,0.50752 -0.74891,0.7589c-1.20011,7.28868 -5.00188,14.16804 -6.05766,21.39614c1.24824,0.0997 2.5022,0.19579 3.76239,0.27501c0.73308,0.04608 1.57367,0.09018 2.46846,0.155c0.63993,-0.57145 1.5644,-0.36601 1.5644,-0.36601c5.63955,1.25519 13.19859,2.42511 18.37917,-0.82938c2.26531,-1.88502 4.04563,-4.09641 5.64735,-6.43206c1.24062,-2.00945 2.3633,-4.10856 3.47434,-5.86969c0.30937,-0.31031 0.59094,-0.61649 0.85318,-0.92447c0.60102,-0.93385 1.21904,-1.85747 1.87235,-2.7588l-0.2446,-0.09172l0.73565,-1.96175c0.21573,-0.6189 0.76924,-1.07949 1.4397,-1.16093c0.04513,-1.20815 -0.03422,-2.56635 -0.03678,-3.51286v-0.21089c-0.07632,-0.34488 -0.05201,-0.75466 0.22594,-1.17833c0.15347,-0.30036 0.41118,-0.59848 0.84394,-0.75275c0.4151,-0.19692 0.80813,-0.16834 1.12903,-0.06448c0.50789,0.10549 0.81752,0.38864 1.00629,0.69469c1.60576,1.69688 2.61414,3.50523 3.32389,5.40106c0.67909,0.34421 0.90358,1.12994 0.90358,1.12994l0.50778,1.7781c0.53032,2.17276 0.67044,4.39562 0.88967,6.61781c0.11211,0.46362 0.23253,0.92963 0.36442,1.39777c0.584,2.07294 1.02847,3.73831 1.28982,5.53677c0.28649,0.95346 0.45301,1.90206 0.26226,2.79157c-0.0044,0.0205 -0.00887,0.04097 -0.01342,0.06143c0.00052,0.01575 0.00103,0.03152 0.00152,0.04731h0.01528v0.96084c0.45677,1.87996 1.25168,3.62007 1.48955,5.5982c0.98107,8.15869 -2.48544,16.10282 -5.09041,23.52647c-0.97465,2.77756 -1.54635,5.21655 -3.47424,7.42837c0.59973,0.39682 1.14096,0.77774 1.49512,0.99747c0.9922,0.61559 1.8712,1.26661 2.64243,1.96238c0.03568,0.0192 0.07132,0.03857 0.10692,0.0581c1.33211,-1.20376 3.04291,-2.20455 4.39657,-2.97816c0.42986,-0.45214 0.91188,-0.87416 1.46332,-1.25977c0,0 0.04945,-0.03297 0.1362,-0.07764c0.27443,-0.15778 0.66707,-0.30615 1.10812,-0.23567c0.62515,-0.86707 0.82832,-2.48029 1.01808,-3.36024l-0.03031,-0.63298c-0.07043,-0.38006 -0.04632,-0.8617 0.31419,-1.29715c0.18599,-0.27963 0.47823,-0.53289 0.93743,-0.63836c0.4453,-0.15394 0.82735,-0.09407 1.13327,0.04449c0.50188,0.16669 0.77555,0.52369 0.92478,0.86347c1.42261,2.21263 3.67937,4.21681 4.76735,6.55563c1.46189,3.14262 0.91162,7.14024 0.91162,10.48453c0,6.89732 1.53573,14.0347 -0.76136,20.67003c-2.94184,3.06295 -3.85893,8.62157 -7.60117,10.83824c-0.44864,0.26575 -1.04472,0.44981 -1.67482,0.5871c-0.06103,0.02927 -0.09819,0.0432 -0.09819,0.0432c-1.19199,0.441 -2.36705,0.79283 -3.53381,1.07676c-0.54307,0.46375 -1.07358,0.94679 -1.69319,1.29293c-1.74883,0.97701 -4.57442,1.34933 -7.36407,1.35359c-0.23012,0.40588 -0.61777,0.71072 -1.07984,0.83143l-1.7128,0.48937l-0.02867,-0.10034l-0.20937,0.15076c-0.70194,0.00527 -1.39439,0.05557 -2.07496,0.11639c1.70055,1.20013 4.16057,2.36381 6.23596,3.15924c0.7665,0.12354 1.52369,0.27101 2.26486,0.45898c1.00874,0.25582 1.95892,0.58941 2.86887,0.98325c1.65574,0.37251 3.32263,0.7713 4.68224,1.42393c1.2684,0.60885 3.08603,1.96799 4.21911,3.48969c0.39593,0.04965 0.76742,0.11978 1.09406,0.21853c2.71819,0.82183 4.9319,3.53971 7.32936,4.89405c1.84312,1.04119 4.23563,1.35692 6.06254,2.53715c4.41876,2.85461 8.11966,8.91049 10.39435,13.46085c0.97643,1.95329 2.43513,2.9644 2.40829,5.49453c-0.001,0.0941 -0.00611,0.18751 -0.0149,0.28032h0.03749v0.50365c0.66213,1.02419 1.30583,2.05301 1.95609,3.02562l0.69391,0.92073c0,0 1.05,1.4 -0.35,2.45c-1.4,1.05 -2.45,-0.35 -2.45,-0.35l-0.80609,-1.07927c-0.43007,-0.64715 -0.85997,-1.33947 -1.29793,-2.0444c-0.4025,-0.12085 -0.744,-0.38271 -0.96712,-0.72819l-0.88371,-1.32556c-0.44786,-0.37775 -0.89573,-0.7555 -1.34359,-1.13325c-0.18263,-0.13124 -0.3247,-0.2853 -0.42621,-0.41603c-0.09494,-0.12094 -0.20093,-0.28072 -0.28207,-0.47037c-3.00379,-2.55664 -5.60968,-5.52871 -8.68274,-7.98342c-1.79686,-1.4353 -4.10013,-1.58473 -5.93378,-2.94984c-1.14546,-0.85277 -1.967,-2.06367 -2.91804,-3.1368l-0.84134,-0.71762c-6.52454,-3.26227 -13.84204,-6.58036 -21.02077,-7.90505c-0.81471,-0.40254 -1.62384,-0.78569 -2.42957,-1.14965c1.15946,1.74293 1.98727,3.77148 2.95079,5.49833c1.0736,1.92412 3.29482,2.41441 4.58519,4.20955c1.44714,2.01324 2.68694,4.55992 4.00799,6.67785c0.86332,1.07916 1.57418,2.20618 2.21912,3.34994c0.61231,0.26719 0.91846,0.8795 0.91846,0.8795c2.8237,5.65175 7.22781,10.59919 9.48651,16.45169l-0.08791,0.33094h0.11949v2h-0.6508l-0.42951,1.61679c-0.2113,-0.12737 -0.76416,-0.43455 -1.45163,-0.83485l-0.4555,0.4555l-1.94135,-1.94135c-0.83295,-0.56307 -1.55815,-1.1275 -1.88053,-1.56969c-0.4709,-0.64589 -0.8151,-1.3705 -1.09679,-2.13115c-1.33847,-0.0746 -1.54297,-1.5061 -1.54297,-1.5061l-0.14205,-1.34663c-2.1171,-2.78983 -4.59472,-5.05427 -6.66984,-7.86766c-0.49185,-0.4766 -0.9726,-0.97298 -1.43281,-1.50098c-1.56675,-1.46282 -3.17228,-2.80571 -4.71753,-4.26392c-0.24163,-0.22802 -0.48148,-0.45967 -0.71964,-0.69461c-0.51369,-0.40725 -1.01899,-0.82584 -1.50539,-1.27199c-0.55493,-0.50902 -0.97311,-1.12496 -1.34868,-1.76611c-1.22297,-1.38963 -2.40665,-2.83637 -3.56466,-4.28778c-2.30461,-1.43358 -5.27084,-2.20799 -7.34698,-3.95546c-1.88166,-1.58377 -3.14293,-3.98579 -5.28801,-5.33443c-3.61311,-2.27161 -8.08365,-3.21397 -12.08539,-4.5477c0,0 -0.49268,-0.16423 -0.85179,-0.58214l-1.75682,0.95826l-0.03066,-0.05621c-0.0841,0.06169 -0.16933,0.12198 -0.25581,0.18071c-0.08988,0.06105 -0.19151,0.11815 -0.30343,0.17159c-0.02239,0.48289 -0.24049,0.91467 -0.57679,1.21782c-0.02068,0.05408 -0.04439,0.10913 -0.07135,0.16512c-0.18427,0.44561 -0.45641,0.7073 -0.7457,0.85581c-0.44482,0.25568 -0.91813,0.21631 -1.25582,0.12809c-0.09545,-0.02027 -0.15183,-0.03906 -0.15183,-0.03906l-0.67736,-0.22753c-0.18853,-0.05449 -0.37665,-0.10694 -0.56441,-0.15766c-1.14298,0.08872 -2.26564,-0.58443 -3.4104,-0.78143c-2.08068,-0.35808 -4.66473,-0.66455 -6.8889,-1.4223c-0.82735,-0.03387 -1.62539,-0.17104 -2.32557,-0.58264c-0.06792,-0.03993 -0.13464,-0.08073 -0.20015,-0.12237c-1.22936,-0.30481 -2.42043,-0.80169 -3.55315,-1.81789c-2.19923,-1.973 -4.84821,-5.51712 -4.2903,-8.65333c0.1043,-0.58632 0.51076,-1.31702 1.01771,-2.03835l-0.82236,-0.14952c-0.66606,1.15937 -2.03512,0.70301 -2.03512,0.70301l-0.9466,-0.4102c-4.65725,-0.03473 -11.67119,-1.46517 -14.44912,-5.7689c-0.67499,-1.04574 -1.01651,-2.14511 -1.11679,-3.2612c-0.30071,-0.26399 -0.53651,-0.56207 -0.60337,-0.94455c-0.38496,-2.20235 0.56506,-3.69618 1.66159,-5.15726c0.00591,-1.21251 0.16144,-2.29223 1.40435,-3.22757c0.04662,-0.03508 0.09384,-0.06914 0.14161,-0.10225l-0.0257,-0.0257l1.25,-1.25l0.27968,0.27968l0.99643,-0.42704c0.88387,-1.28718 2.20117,-2.26525 4.10946,-3.07946c2.03453,-0.03459 4.05679,0.02837 6.07027,0.15018c3.15289,-1.23936 6.19603,-4.03048 9.83463,-2.72771zM266.72863,194.4399c-0.22622,0.60306 -0.43348,1.20057 -0.62942,1.79336c1.77952,0.03993 3.45851,0.21867 5.22231,0.41597c0.05553,-0.09549 0.11929,-0.18171 0.18684,-0.25904c0.0526,-0.0753 0.10786,-0.1427 0.16518,-0.20292c0.13723,-0.8296 0.85796,-1.46227 1.72646,-1.46227c0.04804,0 0.09564,0.00194 0.1427,0.00573l3.41825,0.24416c2.30799,-0.0991 4.63419,-0.00857 6.93905,0.0001c0.76871,0.00289 1.57092,-0.04303 2.35979,0.00746c0.13174,-0.19023 0.29116,-0.38009 0.48206,-0.56939c0.75466,-0.74835 2.09883,-0.35226 3.15815,-0.43806c0.20578,-0.01667 0.41131,-0.03288 0.6166,-0.04852c0.13304,-0.64988 0.27504,-1.29843 0.41774,-1.94722c-2.70434,0.7179 -5.6011,0.91594 -8.45657,0.83301c-2.83345,1.47094 -6.09229,2.5155 -9.3349,1.58764c-0.57774,-0.16532 -0.92691,-0.81922 -1.5,-1c-1.31544,-0.41496 -2.79406,-0.58907 -4.25847,-0.86671c-0.19788,0.63012 -0.415,1.26486 -0.65577,1.90671zM307.16057,181.80096c-0.22948,-0.29652 -0.44226,-0.59355 -0.63354,-0.89074l-1.13639,0.7576c-0.28167,0.19376 -0.62291,0.30718 -0.99063,0.30718c-0.3414,0 -0.65997,-0.09776 -0.92924,-0.26682c-0.05782,0.04932 -0.11557,0.09869 -0.17323,0.14817c-0.65743,2.68542 -1.40135,5.35189 -2.20889,8.00238c1.88036,-2.80689 3.71127,-5.67005 6.07193,-8.05776zM281.01006,228.6355c-0.0573,-0.04388 -0.11476,-0.08761 -0.17238,-0.13117c-0.08631,-0.00587 -0.17419,-0.01087 -0.26371,-0.01499c0.14556,0.04822 0.29094,0.09691 0.43609,0.14616z" fill="#130c1f" stroke-opacity="0.28235" stroke="#b59fd8" stroke-width="4.5"></path><path d="M252.20303,191.68321c0.71479,0.25593 1.06095,1.10075 1.68688,1.53045c0.58814,0.40375 1.4552,0.40434 1.91993,0.94559c0.04093,0.04767 0.08101,0.09594 0.12028,0.14477l0.02976,-0.03721l0.51269,0.41015c0.81287,-2.7093 1.72105,-5.31431 2.61949,-8.0552c-0.02197,-0.01871 -0.04405,-0.03724 -0.06624,-0.05559c-0.62847,-0.51995 -1.29584,-1.01606 -1.90232,-1.56632c-0.99091,0.78849 -1.98179,1.44029 -3.00571,1.99088c-0.05615,0.04747 -0.11347,0.09332 -0.17204,0.13743c-1.5368,1.15736 -4.05001,1.93276 -5.83515,2.69623l-1.22985,0.58327c-1.96614,0.54436 -4.01761,0.85069 -5.91041,0.66345c-1.49007,0.39585 -2.98763,0.52067 -5.12904,-0.18769c-0.93515,-0.30934 -3.74116,-0.74688 -4.37798,-1.37221c-0.59034,-0.57969 -1.56714,-3.64914 -1.77799,-4.68626c-0.53882,-2.65027 -0.82471,-5.24196 -0.95173,-7.88391c-0.55321,-2.21503 -0.94467,-4.46342 -1.2194,-6.73306c-0.15765,-0.68128 -0.28115,-1.37569 -0.35825,-2.08863c-0.20216,-1.86924 -0.23602,-3.80515 -0.19357,-5.76421c-0.048,-1.66062 -0.06204,-3.32509 -0.05901,-4.98887l0.05655,-0.10252l-0.04642,-0.0058l0.13846,-1.10771c-0.48731,-1.73263 -0.61219,-3.60329 -1.18286,-5.30905c-0.07851,-0.23466 -0.15582,-0.46264 -0.23161,-0.68518c-0.38375,-0.71622 -0.69562,-1.443 -0.91241,-2.17387c-0.10008,-0.33742 -0.11923,-0.68662 -0.10348,-1.04102c-0.12073,-0.47147 -0.2236,-0.94891 -0.30439,-1.44874c-0.20395,-0.63897 -0.3875,-1.22203 -0.54613,-1.62771c-0.08656,-0.22137 -1.96796,-4.20589 -2.08535,-4.78779c-0.53207,-2.63751 -0.38304,-5.67715 -0.2165,-8.61285c-0.35843,-1.13741 -0.63025,-2.30231 -0.80165,-3.49153c0,0 -0.01223,-0.0856 -0.01222,-0.22146l-0.00537,-0.02603c0,0 0,-0.07962 0.01698,-0.20489c0.03433,-0.34057 0.15867,-0.80397 0.54867,-1.13648c0.17242,-0.15763 0.39739,-0.28673 0.69094,-0.35526c0.23001,-0.41236 0.66621,-0.80336 1.4934,-0.80336c1.75,0 1.75,1.75 1.75,1.75c0,0.95301 -0.04764,1.95949 -0.10822,2.99191c0.20504,0.77873 0.34934,1.5735 0.46006,2.37743c0.99001,2.34775 2.39383,4.53997 4.02521,6.54295c0.36512,-2.69233 0.853,-5.36223 1.33449,-8.03448c0.0439,-0.71093 0.14282,-1.41191 0.35109,-2.09179c0.01691,-0.05519 0.03393,-0.1104 0.05105,-0.16562c0.33891,-1.93889 0.65537,-3.88268 0.90025,-5.8408c0.35341,-2.82598 0.13863,-5.85962 0.4068,-8.74162c-0.69983,-1.78807 -1.63732,-3.491 -2.65473,-5.11048c0,0 -0.9275,-1.484 0.5565,-2.4115c1.484,-0.9275 2.4115,0.5565 2.4115,0.5565c0.31104,0.49996 0.61189,1.00371 0.90083,1.51234c0.84895,-2.61942 1.93102,-5.07388 2.99034,-7.73478c0,0 0.64993,-1.62483 2.27477,-0.9749c1.10129,0.44052 1.15757,1.3289 1.07949,1.85566c0.00384,0.02488 0.00716,0.04993 0.00994,0.07515l0.24712,1.97697l-0.0931,0.01164c0.03972,0.15302 0.06925,0.30912 0.08667,0.46891c0.06571,0.60296 -0.2293,1.14562 -0.56875,1.68515c-0.3472,1.775 -0.55607,3.5541 -0.74728,5.33308c0.32097,-0.27567 0.54892,-0.46964 0.59224,-0.51282c1.69517,-1.68952 2.89323,-3.42934 3.73096,-5.64867l0.27117,-0.1549l-0.10278,-0.08565l1.24144,-1.48973c0.32095,-0.39072 0.80784,-0.63994 1.35294,-0.63994c0.9665,0 1.75,0.7835 1.75,1.75c0,0.26663 -0.05963,0.51932 -0.16627,0.74549l-0.98456,2.21525l-0.02008,-0.00892c-0.01184,0.04197 -0.02418,0.08383 -0.03705,0.1256c-0.61632,1.99978 -1.4589,2.65789 -2.5418,3.54315c-0.86536,1.27665 -1.88978,2.5027 -2.97156,3.3304c-0.09772,0.78163 -0.80795,1.25512 -0.80795,1.25512c-0.19157,0.11287 -0.38315,0.22574 -0.57472,0.33862c-0.31359,0.45131 -0.61955,0.90825 -0.91725,1.36407l-0.10436,0.24351c-0.10645,0.26485 -0.27579,0.49764 -0.48954,0.67991c-0.0834,0.13147 -0.16607,0.26246 -0.24798,0.3928c-0.52878,2.47979 -1.37059,5.12236 -2.07037,7.53815c-0.0044,1.10949 -0.01643,2.21855 -0.06866,3.32403c-0.1762,3.72915 -0.48252,7.47446 -0.90966,11.19964c1.10352,0.05043 2.20452,0.27729 3.28726,-0.17156c0.47564,-0.19718 0.96022,-0.37864 1.45284,-0.54555c0.43826,-0.27335 0.88396,-0.55561 1.3382,-0.85844c6.53059,-2.77264 13.12279,-2.85604 19.86183,-2.42625c0.40587,-1.25303 1.32641,-2.81937 1.98794,-4.00914c0.80755,-2.86217 1.31566,-5.94477 2.05356,-8.51515c0.67576,-2.35396 1.51892,-4.65687 2.42568,-6.93839c-0.40698,-3.27283 -0.74074,-6.5215 -0.74547,-9.82233c0,0 0,-1.75 1.75,-1.75c1.75,0 1.75,1.75 1.75,1.75c-0.00115,0.72691 0.01572,1.45142 0.04713,2.1743c0.07169,-0.50298 0.13921,-1.00528 0.20287,-1.50639v-1.91791c0,-0.9665 0.7835,-1.75 1.75,-1.75c0.03589,0 0.07153,0.00108 0.10688,0.00321c0.36412,-1.19597 0.76381,-2.37915 1.32787,-3.53583c0,0 0.78262,-1.56525 2.34787,-0.78262c1.56525,0.78262 0.78262,2.34787 0.78262,2.34787c-0.9121,1.76665 -1.36276,3.71374 -1.93513,5.64232c0.0021,-0.00197 0.00419,-0.00395 0.00628,-0.00593c0.018,-0.0265 0.03594,-0.05304 0.05383,-0.07962l0.01922,0.00881c0.05548,-0.0553 0.10836,-0.11192 0.15705,-0.17064l-0.00538,-0.00627l0.03423,-0.02934c1.69315,-2.11833 2.85218,-4.1256 4.90144,-5.91362l1.21578,-1.21578c0.31669,-0.31669 0.75419,-0.51256 1.23744,-0.51256c0.9665,0 1.75,0.7835 1.75,1.75c0,0.38669 -0.12542,0.74409 -0.3378,1.03374l-1.23816,1.73343l-0.01651,-0.01179c-0.01401,0.03021 -0.02833,0.06031 -0.04296,0.09029c-0.48753,0.99915 -1.53133,1.61511 -2.23251,2.47786c-0.22451,0.27625 -0.45038,0.5508 -0.67739,0.82398c-0.08654,0.37259 -0.29208,0.69954 -0.57441,0.93861l-0.79607,0.68235c-0.2268,0.26439 -0.4543,0.52807 -0.68231,0.79136c-0.05728,0.11475 -0.13943,0.21993 -0.23528,0.31982c-0.19189,0.37209 -0.39902,0.71406 -0.7266,0.78657c-0.08902,0.10213 -0.17807,0.20427 -0.26715,0.30643c-0.56806,0.71621 -1.17613,1.40548 -1.80306,2.07709c-0.0971,0.11287 -0.19413,0.22591 -0.29108,0.33915l-0.59126,0.59855c0,0 -0.03404,0.03404 -0.09648,0.08519c-0.24884,0.25473 -0.49889,0.50752 -0.74891,0.7589c-1.20011,7.28868 -5.00188,14.16804 -6.05766,21.39614c1.24824,0.0997 2.5022,0.19579 3.76239,0.27501c0.73308,0.04608 1.57367,0.09018 2.46846,0.155c0.63993,-0.57145 1.5644,-0.36601 1.5644,-0.36601c5.63955,1.25519 13.19859,2.42511 18.37917,-0.82938c2.26531,-1.88502 4.04563,-4.09641 5.64735,-6.43206c1.24062,-2.00945 2.3633,-4.10856 3.47434,-5.86969c0.30937,-0.31031 0.59094,-0.61649 0.85318,-0.92447c0.60102,-0.93385 1.21904,-1.85747 1.87235,-2.7588l-0.2446,-0.09172l0.73565,-1.96175c0.21573,-0.6189 0.76924,-1.07949 1.4397,-1.16093c0.04513,-1.20815 -0.03422,-2.56635 -0.03678,-3.51286v-0.21089c-0.07632,-0.34488 -0.05201,-0.75466 0.22594,-1.17833c0.15347,-0.30036 0.41118,-0.59848 0.84394,-0.75275c0.4151,-0.19692 0.80813,-0.16834 1.12903,-0.06448c0.50789,0.10549 0.81752,0.38864 1.00629,0.69469c1.60576,1.69688 2.61414,3.50523 3.32389,5.40106c0.67909,0.34421 0.90358,1.12994 0.90358,1.12994l0.50778,1.7781c0.53032,2.17276 0.67044,4.39562 0.88967,6.61781c0.11211,0.46362 0.23253,0.92963 0.36442,1.39777c0.584,2.07294 1.02847,3.73831 1.28982,5.53677c0.28649,0.95346 0.45301,1.90206 0.26226,2.79157c-0.0044,0.0205 -0.00887,0.04097 -0.01342,0.06143c0.00052,0.01575 0.00103,0.03152 0.00152,0.04731h0.01528v0.96084c0.45677,1.87996 1.25168,3.62007 1.48955,5.5982c0.98107,8.15869 -2.48544,16.10282 -5.09041,23.52647c-0.97465,2.77756 -1.54635,5.21655 -3.47424,7.42837c0.59973,0.39682 1.14096,0.77774 1.49512,0.99747c0.9922,0.61559 1.8712,1.26661 2.64243,1.96238c0.03568,0.0192 0.07132,0.03857 0.10692,0.0581c1.33211,-1.20376 3.04291,-2.20455 4.39657,-2.97816c0.42986,-0.45214 0.91188,-0.87416 1.46332,-1.25977c0,0 0.04945,-0.03297 0.1362,-0.07764c0.27443,-0.15778 0.66707,-0.30615 1.10812,-0.23567c0.62515,-0.86707 0.82832,-2.48029 1.01808,-3.36024l-0.03031,-0.63298c-0.07043,-0.38006 -0.04632,-0.8617 0.31419,-1.29715c0.18599,-0.27963 0.47823,-0.53289 0.93743,-0.63836c0.4453,-0.15394 0.82735,-0.09407 1.13327,0.04449c0.50188,0.16669 0.77555,0.52369 0.92478,0.86347c1.42261,2.21263 3.67937,4.21681 4.76735,6.55563c1.46189,3.14262 0.91162,7.14024 0.91162,10.48453c0,6.89732 1.53573,14.0347 -0.76136,20.67003c-2.94184,3.06295 -3.85893,8.62157 -7.60117,10.83824c-0.44864,0.26575 -1.04472,0.44981 -1.67482,0.5871c-0.06103,0.02927 -0.09819,0.0432 -0.09819,0.0432c-1.19199,0.441 -2.36705,0.79283 -3.53381,1.07676c-0.54307,0.46375 -1.07358,0.94679 -1.69319,1.29293c-1.74883,0.97701 -4.57442,1.34933 -7.36407,1.35359c-0.23012,0.40588 -0.61777,0.71072 -1.07984,0.83143l-1.7128,0.48937l-0.02867,-0.10034l-0.20937,0.15076c-0.70194,0.00527 -1.39439,0.05557 -2.07496,0.11639c1.70055,1.20013 4.16057,2.36381 6.23596,3.15924c0.7665,0.12354 1.52369,0.27101 2.26486,0.45898c1.00874,0.25582 1.95892,0.58941 2.86887,0.98325c1.65574,0.37251 3.32263,0.7713 4.68224,1.42393c1.2684,0.60885 3.08603,1.96799 4.21911,3.48969c0.39593,0.04965 0.76742,0.11978 1.09406,0.21853c2.71819,0.82183 4.9319,3.53971 7.32936,4.89405c1.84312,1.04119 4.23563,1.35692 6.06254,2.53715c4.41876,2.85461 8.11966,8.91049 10.39435,13.46085c0.97643,1.95329 2.43513,2.9644 2.40829,5.49453c-0.001,0.0941 -0.00611,0.18751 -0.0149,0.28032h0.03749v0.50365c0.66213,1.02419 1.30583,2.05301 1.95609,3.02562l0.69391,0.92073c0,0 1.05,1.4 -0.35,2.45c-1.4,1.05 -2.45,-0.35 -2.45,-0.35l-0.80609,-1.07927c-0.43007,-0.64715 -0.85997,-1.33947 -1.29793,-2.0444c-0.4025,-0.12085 -0.744,-0.38271 -0.96712,-0.72819l-0.88371,-1.32556c-0.44786,-0.37775 -0.89573,-0.7555 -1.34359,-1.13325c-0.18263,-0.13124 -0.3247,-0.2853 -0.42621,-0.41603c-0.09494,-0.12094 -0.20093,-0.28072 -0.28207,-0.47037c-3.00379,-2.55664 -5.60968,-5.52871 -8.68274,-7.98342c-1.79686,-1.4353 -4.10013,-1.58473 -5.93378,-2.94984c-1.14546,-0.85277 -1.967,-2.06367 -2.91804,-3.1368l-0.84134,-0.71762c-6.52454,-3.26227 -13.84204,-6.58036 -21.02077,-7.90505c-0.81471,-0.40254 -1.62384,-0.78569 -2.42957,-1.14965c1.15946,1.74293 1.98727,3.77148 2.95079,5.49833c1.0736,1.92412 3.29482,2.41441 4.58519,4.20955c1.44714,2.01324 2.68694,4.55992 4.00799,6.67785c0.86332,1.07916 1.57418,2.20618 2.21912,3.34994c0.61231,0.26719 0.91846,0.8795 0.91846,0.8795c2.8237,5.65175 7.22781,10.59919 9.48651,16.45169l-0.08791,0.33094h0.11949v2h-0.6508l-0.42951,1.61679c-0.2113,-0.12737 -0.76416,-0.43455 -1.45163,-0.83485l-0.4555,0.4555l-1.94135,-1.94135c-0.83295,-0.56307 -1.55815,-1.1275 -1.88053,-1.56969c-0.4709,-0.64589 -0.8151,-1.3705 -1.09679,-2.13115c-1.33847,-0.0746 -1.54297,-1.5061 -1.54297,-1.5061l-0.14205,-1.34663c-2.1171,-2.78983 -4.59472,-5.05427 -6.66984,-7.86766c-0.49185,-0.4766 -0.9726,-0.97298 -1.43281,-1.50098c-1.56675,-1.46282 -3.17228,-2.80571 -4.71753,-4.26392c-0.24163,-0.22802 -0.48148,-0.45967 -0.71964,-0.69461c-0.51369,-0.40725 -1.01899,-0.82584 -1.50539,-1.27199c-0.55493,-0.50902 -0.97311,-1.12496 -1.34868,-1.76611c-1.22297,-1.38963 -2.40665,-2.83637 -3.56466,-4.28778c-2.30461,-1.43358 -5.27084,-2.20799 -7.34698,-3.95546c-1.88166,-1.58377 -3.14293,-3.98579 -5.28801,-5.33443c-3.61311,-2.27161 -8.08365,-3.21397 -12.08539,-4.5477c0,0 -0.49268,-0.16423 -0.85179,-0.58214l-1.75682,0.95826l-0.03066,-0.05621c-0.0841,0.06169 -0.16933,0.12198 -0.25581,0.18071c-0.08988,0.06105 -0.19151,0.11815 -0.30343,0.17159c-0.02239,0.48289 -0.24049,0.91467 -0.57679,1.21782c-0.02068,0.05408 -0.04439,0.10913 -0.07135,0.16512c-0.18427,0.44561 -0.45641,0.7073 -0.7457,0.85581c-0.44482,0.25568 -0.91813,0.21631 -1.25582,0.12809c-0.09545,-0.02027 -0.15183,-0.03906 -0.15183,-0.03906l-0.67736,-0.22753c-0.18853,-0.05449 -0.37665,-0.10694 -0.56441,-0.15766c-1.14298,0.08872 -2.26564,-0.58443 -3.4104,-0.78143c-2.08068,-0.35808 -4.66473,-0.66455 -6.8889,-1.4223c-0.82735,-0.03387 -1.62539,-0.17104 -2.32557,-0.58264c-0.06792,-0.03993 -0.13464,-0.08073 -0.20015,-0.12237c-1.22936,-0.30481 -2.42043,-0.80169 -3.55315,-1.81789c-2.19923,-1.973 -4.84821,-5.51712 -4.2903,-8.65333c0.1043,-0.58632 0.51076,-1.31702 1.01771,-2.03835l-0.82236,-0.14952c-0.66606,1.15937 -2.03512,0.70301 -2.03512,0.70301l-0.9466,-0.4102c-4.65725,-0.03473 -11.67119,-1.46517 -14.44912,-5.7689c-0.67499,-1.04574 -1.01651,-2.14511 -1.11679,-3.2612c-0.30071,-0.26399 -0.53651,-0.56207 -0.60337,-0.94455c-0.38496,-2.20235 0.56506,-3.69618 1.66159,-5.15726c0.00591,-1.21251 0.16144,-2.29223 1.40435,-3.22757c0.04662,-0.03508 0.09384,-0.06914 0.14161,-0.10225l-0.0257,-0.0257l1.25,-1.25l0.27968,0.27968l0.99643,-0.42704c0.88387,-1.28718 2.20117,-2.26525 4.10946,-3.07946c2.03453,-0.03459 4.05679,0.02837 6.07027,0.15018c3.15289,-1.23936 6.19603,-4.03048 9.83463,-2.72771zM266.72863,194.4399c-0.22622,0.60306 -0.43348,1.20057 -0.62942,1.79336c1.77952,0.03993 3.45851,0.21867 5.22231,0.41597c0.05553,-0.09549 0.11929,-0.18171 0.18684,-0.25904c0.0526,-0.0753 0.10786,-0.1427 0.16518,-0.20292c0.13723,-0.8296 0.85796,-1.46227 1.72646,-1.46227c0.04804,0 0.09564,0.00194 0.1427,0.00573l3.41825,0.24416c2.30799,-0.0991 4.63419,-0.00857 6.93905,0.0001c0.76871,0.00289 1.57092,-0.04303 2.35979,0.00746c0.13174,-0.19023 0.29116,-0.38009 0.48206,-0.56939c0.75466,-0.74835 2.09883,-0.35226 3.15815,-0.43806c0.20578,-0.01667 0.41131,-0.03288 0.6166,-0.04852c0.13304,-0.64988 0.27504,-1.29843 0.41774,-1.94722c-2.70434,0.7179 -5.6011,0.91594 -8.45657,0.83301c-2.83345,1.47094 -6.09229,2.5155 -9.3349,1.58764c-0.57774,-0.16532 -0.92691,-0.81922 -1.5,-1c-1.31544,-0.41496 -2.79406,-0.58907 -4.25847,-0.86671c-0.19788,0.63012 -0.415,1.26486 -0.65577,1.90671zM307.16057,181.80096c-0.22948,-0.29652 -0.44226,-0.59355 -0.63354,-0.89074l-1.13639,0.7576c-0.28167,0.19376 -0.62291,0.30718 -0.99063,0.30718c-0.3414,0 -0.65997,-0.09776 -0.92924,-0.26682c-0.05782,0.04932 -0.11557,0.09869 -0.17323,0.14817c-0.65743,2.68542 -1.40135,5.35189 -2.20889,8.00238c1.88036,-2.80689 3.71127,-5.67005 6.07193,-8.05776zM281.01006,228.6355c-0.0573,-0.04388 -0.11476,-0.08761 -0.17238,-0.13117c-0.08631,-0.00587 -0.17419,-0.01087 -0.26371,-0.01499c0.14556,0.04822 0.29094,0.09691 0.43609,0.14616z" fill="#130c1f" stroke="none" stroke-width="0.5"></path><path d="M318.60724,212.67897c-0.43771,0.39026 -0.95584,0.64297 -1.56813,0.69585c-4.53596,0.39175 -3.88473,-8.02294 -2.1269,-9.92642c0.40614,-0.4398 0.96069,-0.69009 1.52387,-0.92936c-0.07494,-0.42593 0.01121,-0.9412 0.52648,-1.45647c1.23744,-1.23744 2.47487,0 2.47487,0l1.51256,2.23744c-0.0002,0.09622 0.0001,0.19388 0.00071,0.2928l0.00918,0.00734l-0.00906,0.01132c0.00075,0.11462 0.00189,0.23093 0.00314,0.34865c1.81577,1.08281 3.12529,2.69961 2.28602,5.39366c-0.62045,1.99163 -2.57971,4.3208 -4.63274,3.32519z" fill="#b49fda" stroke="none" stroke-width="0.5"></path></g><g fill-opacity="0.08235" fill="#b69edb" stroke="none" stroke-width="0.5"><path d="M318.71211,221.0663c-2.25088,3.93904 -9.51778,-0.74199 -11.40101,-2.99268c-2.67708,-3.19944 -1.47042,-13.10018 2.29265,-15.90158c1.4512,-1.08034 2.81712,-4.41889 5.00224,-4.54029c2.65249,-0.14736 4.38659,1.10251 5.08558,3.66548c0.62668,2.29784 -2.47288,3.78048 -2.99449,5.48401c-0.68693,2.24346 5.97603,8.03781 5.49114,10.46225c-0.32329,1.61645 -1.62886,3.59356 -3.27342,3.70698z"></path><path d="M303.91665,205.02085c0,2.84464 -3.87093,4.33541 -7.22726,4.36806c-0.13869,0.03657 -0.28033,0.06589 -0.42449,0.0875c-1.5615,4.90244 -3.64662,9.23467 -6.30941,14.16103c-0.08613,0.15935 -0.16844,0.34576 -0.24803,0.5532c2.02855,0.07448 4.04506,0.19902 6.3457,0.42683c3.80943,0.37721 7.6467,-0.17783 11.39795,0.73105c5.00164,1.21183 8.83537,4.50014 13.50013,6.21748c8.32576,3.06516 12.88383,4.99418 19.56951,11.21877c2.23886,2.08446 11.65909,12.76205 12.47361,15.69721c0.95676,3.44777 -2.2181,6.58021 -5.81378,5.14296c-2.64006,-1.05528 -3.9877,-5.54756 -5.84857,-7.65332c-4.29306,-4.85804 -8.34937,-10.27584 -14.07454,-13.3708c-6.25433,-3.38102 -13.36989,-5.1727 -19.82159,-8.91676c-1.01899,-0.59134 -2.97072,-0.88635 -4.05351,-0.91321c-3.03789,-0.07536 -6.0057,-0.19405 -8.96184,-0.31514c0.07454,0.05787 0.14904,0.11605 0.22349,0.17455c9.14023,7.18125 17.30012,16.12707 24.63111,25.09223c2.92615,3.57842 6.53315,6.29497 8.1415,10.79836c1.11328,3.1172 0.39505,6.67954 -3.43107,6.96061c-0.63007,0.04629 -1.05296,0.71986 -2.10779,0.1171c-1.99691,-1.14109 -1.54284,-3.71344 -2.42367,-5.1854c-1.84703,-3.08654 -4.47772,-5.063 -6.61567,-7.92351c-3.4401,-4.60274 -7.46135,-9.30311 -11.76242,-13.11646c-4.80033,-4.25599 -9.42158,-9.64255 -15.11015,-13.25293c-0.51964,-0.3298 -5.25931,-2.61738 -6.22898,-4.09899c-0.02341,-0.00015 -0.04682,-0.00029 -0.07024,-0.00043c-0.90845,-0.00538 -3.8827,-0.20443 -4.24761,-1.1254l-0.47999,-0.99826c-0.5548,0.00356 -1.01809,-0.03435 -1.29975,-0.10476c-0.54043,-0.13511 -1.19389,-0.87413 -1.59765,-0.49033c-0.54783,0.52074 -0.53191,1.50021 -1.125,1.96875c-2.04683,1.617 -7.26564,0.59134 -8.97772,0.38057c-8.4609,-1.04158 -15.87628,-6.50794 -15.52228,-15.63057c0.01304,-0.33601 0.04593,-0.67248 0.09749,-1.0072c-0.74384,1.0546 -0.99151,2.35008 -2.84749,2.5072c-7.4176,0.62793 -15.72595,-5.37415 -16.13909,-12.81066c-0.06719,-1.20949 1.91399,-1.99857 2.38924,-2.8362c0.39936,-0.70387 0.16148,-2.26693 0.80258,-2.63327l3.44726,-1.96986c0.24192,0 0.47882,0.02148 0.7089,0.06262c0.7866,-0.00025 1.55866,-0.2139 2.333,-0.42396c1.36961,-2.0662 4.11918,-3.83319 5.89744,-4.27775c6.43783,-1.60946 8.58587,0.81182 13.09301,1.30628c0.15879,-1.54459 0.51762,-3.1191 0.83708,-4.5398c0.2087,-0.92809 -0.22995,-3.63566 0.68331,-4.15753l0.88488,-0.50565c-0.00564,-0.01771 -0.01115,-0.03548 -0.01655,-0.0533l-0.06015,-0.10026l0.0158,-0.05795c-0.08272,-0.32044 -0.12672,-0.65644 -0.12672,-1.00271c0,-0.08847 0.00287,-0.17626 0.00853,-0.2633c-0.43193,0.33685 -0.86765,0.63369 -1.30287,0.87967l-0.12723,0.21206l-0.21354,0.21354l-0.01078,0.1941l-0.60202,0.51602l-0.51602,0.60202l-0.19925,0.01107l-0.24796,0.21254l-0.26656,0.13328l-0.02229,0.03901l-0.11146,0.02786l-0.09969,0.04984l-0.8972,0.19938l-0.00311,0.00078l-0.09969,0.04984l-0.28105,0.06246l-0.24289,0.15457l-0.63849,0.21283l-0.33157,0.13263l-0.00569,0.02024l-0.8766,0.46752l-0.8519,0.51114l-0.07046,-0.01922l-0.02006,0.0107l-0.57402,0.14351l-1.38453,0.69226l-0.54279,0.36186l-0.73194,0.26141l-0.7024,0.33272l-0.35564,0.07113l-0.38997,0.33426l-1.1774,0.5887l-0.71146,0.53359l-0.30099,0.12673l-0.09901,0.17327l-0.76923,0.19231l-0.73077,0.30769l-0.18317,-0.07921l-0.31683,0.07921h-5.25l-0.15613,-0.03903l-0.12122,0.06061l-0.84853,-0.30305l-0.87412,-0.21853l-0.06724,-0.11767l-0.15156,-0.05413l-0.54279,-0.36186l-0.27726,-0.13863l-0.24796,-0.21254l-0.19925,-0.01107l-0.51602,-0.60202l-0.60202,-0.51602l-0.01035,-0.18637l-0.02066,-0.03616l-0.15395,-0.17961l-0.39887,-0.07977l-1.1068,-1.73925l-0.16011,-0.48032l-0.08258,-0.16516l-0.04101,-0.04101l-0.20498,-0.34163l-0.2948,-0.268l-0.5,-0.75l-0.23023,-0.64466l-0.32213,-0.604l-0.11722,-0.46888l-0.00221,-0.00126l-0.02786,-0.11146l-0.04984,-0.09969l-0.19938,-0.8972l-0.22291,-0.89165v-0.00758l-0.13057,-0.52228v-0.49242l-0.11943,-0.47772v-0.85392l-0.17232,-0.86161l0.00315,-0.06614l-0.0264,-0.06073l-0.25,-1.5l0.00667,-0.08342l-0.03021,-0.07804l-0.25,-2l0.03042,-0.25092l-0.0613,-0.24521v-13.25l0.11943,-0.47772v-0.49242l0.38057,-1.52228v-2.25758c0,-0.2338 0.02006,-0.46291 0.05855,-0.68571c-0.60038,-1.54745 -1.55485,-3.15395 -2.05855,-4.56429c-0.85161,-2.3845 -0.77879,-4.81064 -1.30443,-7.24555c-0.6171,-2.85857 -2.37788,-5.70185 -3.04166,-8.65557c-0.33907,-1.50878 -2.39444,-7.8543 -0.60117,-8.87902l3.44726,-1.96986c2.72361,1.55635 3.50485,2.53624 3.99519,4.19794c0.26027,0.882 0.43858,1.95609 0.7819,3.41042c0.2073,0.87813 0.21963,1.74406 0.5128,2.59605c0.21964,0.63829 0.26614,2.40497 0.71011,1.89649c0.17008,-0.19479 0.73916,-3.85236 0.75,-4.09331c0.14197,-3.15564 0.14991,-20.85767 8.75,-12.25758c2.19728,2.19728 -0.68927,4.73855 -0.75,6.66667c-0.26134,8.29767 -2.14435,16.20176 -2.47407,24.3635c1.01855,-0.30255 1.97997,-0.57159 2.57734,-1.03017c4.80806,-3.69096 8.69665,-0.87991 13.35783,2c0.30633,0.18927 0.86121,0.43062 1.52576,0.72432c0.68291,-2.5629 1.89652,-4.95256 2.39875,-7.55829c0.50547,-2.62251 0.59703,-5.26568 1.39719,-7.8272c0.47861,-1.53217 1.79072,-7.29529 3.33996,-7.60514l1.01551,-0.38023c0.44208,-1.64725 0.9798,-3.12882 1.2034,-3.98452c0.30228,-1.15683 0.84178,-4.88524 2.48324,-4.97643c0.6261,-0.40644 1.37303,-0.64251 2.1751,-0.64251c1.96441,0 3.59809,1.41606 3.93593,3.28309c0.05009,0.15503 0.08083,0.31897 0.08899,0.4933c0.00983,0.20999 -0.01702,0.49683 -0.07206,0.8396c-0.00401,0.02593 -0.00826,0.05177 -0.01277,0.07753c-0.27986,1.6595 -1.17565,4.5348 -1.78914,6.41791c0.01288,0.05677 0.02455,0.11399 0.03498,0.17165c0.05009,0.15503 0.08083,0.31897 0.08899,0.4933c0.19919,4.25423 -3.44184,8.31617 -3.42168,12.48582c0.00283,0.5855 1.01836,2.11056 1.16833,2.71043c0.67634,2.70536 0.85318,6.99692 0.72842,9.77735c-0.06728,1.49951 -1.87497,2.53384 -1.94729,3.58884c-0.26284,3.83436 1.1126,7.85114 0.20508,11.84671l0.7422,-0.18555h0.23901l0.03738,-0.02492l0.11215,0.02492h0.11146l0.89165,0.22291l0.64746,0.14388l0.02156,-0.00588l0.02824,0.01694l0.19995,0.04443l0.09969,0.04984l0.11146,0.02786l0.02229,0.03901l0.08207,0.04104c0.53269,-0.09117 1.0451,-0.21118 1.52634,-0.37751c7.43185,-2.56868 15.84359,-6.5358 22.44943,-10.81336c1.93818,-1.25506 5.35433,-2.93889 6.1759,-5.34552c1.83472,-5.37445 1.7611,-10.95642 2.24397,-16.54366c0.41487,-4.80037 1.7116,-9.52301 2.56938,-14.26996c0.59119,-3.27165 1.18532,-6.25462 0.4004,-9.39429c-0.0059,-0.02362 0.02764,-0.04073 0.03573,-0.06369c0.0074,-0.02099 0.01416,-0.04257 0.02035,-0.06467c-0.01709,-0.1501 -0.02586,-0.30271 -0.02586,-0.45738c0,-0.27648 0.02805,-0.54642 0.08146,-0.8071c0.37336,-1.82225 1.98588,-3.1929 3.91854,-3.1929c1.98893,0 3.63881,1.45162 3.94797,3.35319c4.26958,5.2337 4.89222,13.21243 5.05203,19.81576c0.18045,7.45629 1.95543,14.90661 0.25,22.58105c-1.37196,6.17383 -4.00368,12.28892 -7.69274,17.57436c0.46049,0.35755 0.92522,0.68143 1.40839,0.91774c1.64645,0.80525 5.17343,1.14174 5.17343,3.94724c0,6.11173 -8.31252,4.73966 -12.16335,1.67457c-1.00715,0.96113 -2.06071,1.86584 -3.15854,2.70601l-0.94889,1.66056l-0.0142,0.2556l-0.25844,0.22152l-0.59567,1.04242l-0.39312,0.09828c0.80164,2.57026 -1.03506,6.73459 -1.10688,8.92205c-0.013,0.39602 -0.02034,0.79212 -0.02384,1.18829c0.00797,0.01372 0.01591,0.02751 0.02384,0.04138c0.25971,0.45449 0.44278,0.9337 0.55682,1.42187c0.53852,0.60838 0.8902,1.39548 0.93768,2.354c2.21822,0.49151 4.0055,1.96591 4.0055,4.22414zM278.4302,195.52085c3.52651,0.00806 7.05305,0.00832 10.57956,0.00221c0.02738,-0.16166 0.05517,-0.32258 0.08341,-0.48287l-0.03487,0.00775l-0.89165,0.22291h-0.11146l-0.11215,0.02492l-0.03738,-0.02492h-11.23901l-0.27931,-0.06983l-0.28638,0.02963l-1.75,-0.25l-0.33671,-0.13718l-0.36251,-0.02789l-1.5,-0.5l-0.37164,-0.2365l-0.42143,-0.12826l-0.87348,-0.52409l-0.18771,-0.06257l-0.37805,-0.09451l-0.00278,0.0012l-0.01107,-0.00466l-0.45907,-0.11477l-0.69936,-0.37299l-0.7305,-0.30758l-0.37856,-0.28392l-0.0106,-0.00565l-0.00082,-0.00291l-0.32148,-0.24111l-2.41786,-1.20893c-0.05301,1.22792 -0.14093,2.52783 -0.25585,3.75242c4.56439,0.43915 9.14376,1.02946 13.79871,1.0401zM249.13571,200.52085c-0.17789,1.42659 -1.10703,2.61989 -2.37903,3.17151c1.70822,1.40178 3.46943,2.97946 4.1894,4.61693c1.34486,-0.75474 2.89649,-1.0507 4.52335,-0.64399c0.29729,0.07432 0.54828,0.28357 0.76878,0.55769c0.74195,-0.09709 1.48889,-0.17953 2.11857,-0.46962c3.25436,-1.4993 7.66718,-3.99729 11.76406,-4.49696c-6.98979,-0.2442 -14.65349,-2.73556 -20.98512,-2.73556zM278.97238,206.02085c1.79155,-0.31297 3.82533,-1.54821 5.89774,-2.73948c-3.81285,-0.13141 -8.3289,-0.01354 -11.88165,0.00094c3.45006,0.57087 2.47603,3.35133 5.98391,2.73854zM267.25035,217.74803c-0.58499,0.25484 -1.1917,0.68833 -1.81713,1.19963c2.97925,1.56358 6.45854,2.33799 9.73344,2.82319c0.88352,0.1309 2.00673,-0.59477 2.79057,-0.20285c1.05163,0.52582 1.82663,1.04139 2.34415,1.60421c0.49323,-1.05607 1.02475,-2.03462 1.3709,-2.82552c0.94274,-2.15405 0.80384,-4.8758 1.62129,-7.07902c-5.36432,1.52215 -10.9116,2.24486 -16.04321,4.48035zM275.83939,187.11206l1.11153,0.15879h4.46573l-0.32434,-0.08108l-0.33326,0.02666l-1.17345,-0.19558h-4.01984z"></path></g><g fill-opacity="0.08235" fill="#b69edb" stroke="none" stroke-width="0.5"><path d="M236.54565,197.24478c1.25534,-1.67577 3.63414,-2.71567 5.31352,-3.71631c2.79003,-1.66241 10.47576,-0.98863 12.26491,-0.95527c0.35641,0.00665 1.42826,0.20502 2.29415,0.40142c0.47449,-1.99904 1.21687,-4.06076 0.95585,-5.40142c-0.3591,-1.8444 -1.95473,-2.50519 -1.86475,-4.13723c-0.0639,-0.02081 -0.12703,-0.04484 -0.1893,-0.07223c-0.29911,-0.13161 -2.15394,2.60599 -2.25801,2.71362c-0.4907,0.50747 -3.18537,1.74972 -3.93794,1.99584c-6.69455,2.18936 -13.90299,2.31124 -19.3541,-2.76393c-2.12496,-1.97841 -2.21592,-12.46084 -2.1459,-14.98607c0.02875,-1.03677 0.14782,-1.9941 0.35595,-2.88007c-0.0249,-0.01357 -0.04982,-0.02748 -0.07475,-0.04173c-1.63608,-0.9349 -2.38108,-7.77113 -0.47846,-8.85834l3.44726,-1.96986c0.62151,0 1.20992,0.14175 1.73466,0.39468c3.54211,0.40191 9.25538,-0.51737 10.76534,0.85532c0.82526,0.75024 1.71036,1.56565 2.59532,2.4308c1.26902,0.08213 2.50838,0.42085 3.55468,1.1192c3.75191,2.50416 10.51398,6.92417 10.6,11.95c0.02873,1.67876 0.55083,3.64359 0.55704,5.38401c3.81579,-0.9782 8.78937,-0.53972 11.70054,-0.63401c2.39287,-0.07751 5.08308,-1.95944 7.22751,-2.79473c0.21593,-0.08411 0.65089,-0.26761 1.24172,-0.52265c2.1471,-3.35587 6.35364,-6.76689 7.89578,-8.21206c1.32949,-1.24589 2.11792,-2.21344 3.44546,-3.20909c0.21528,-1.15334 0.92548,-2.13251 1.90182,-2.70873c0.69501,-1.21626 3.60369,-0.38361 4.53014,-0.05274c1.22194,0.43641 2.99374,1.96949 4.63011,3.75142c2.30298,-0.20574 4.5738,0.17946 5.61989,1.74858c1.55808,2.33712 1.34937,5.09765 0.37901,7.75753c3.08802,1.12494 6.11316,4.06766 5.89591,6.71607c-0.42186,5.14268 -8.18678,3.14518 -10.12944,0.493c-0.34904,0.45226 -0.68407,0.86968 -0.99201,1.24543c-1.77178,2.16193 -3.97462,4.09968 -6.45953,5.75073c0.03651,0.08762 0.06998,0.17682 0.10031,0.26746c0.07188,0.14838 0.12583,0.30747 0.15859,0.47921c0.62709,3.287 -0.74208,8.72973 -2.17877,11.68669c-2.92803,6.0264 -1.6583,16.80664 -5.75669,22.89937c2.32702,0.00801 4.65543,-0.06217 6.98261,-0.04549c7.03958,0.05047 12.65559,1.33252 18.88544,4.21346c0.91118,0.42136 1.98607,0.99999 2.88017,1.73672c4.02423,1.11366 10.75617,4.01289 11.92232,5.29566c1.01289,1.11418 2.03185,2.89671 3.47279,3.50804c2.55168,1.08257 4.16858,1.47703 6.06583,3.66458c1.20028,1.38394 6.16445,6.45708 5.79502,8.3042c-0.7396,3.698 -2.12635,4.6225 -5.82435,3.8829c-2.69686,-0.53937 -4.38123,-5.1192 -5.97666,-6.97813c-0.92977,-1.08333 -2.32281,-0.88509 -3.48547,-1.58268c-2.32805,-1.39683 -4.12172,-4.20168 -6.37164,-5.2365c-0.83904,-0.3859 -5.18702,-2.05051 -8.08305,-3.33551c-0.8954,-0.10471 -1.70045,-0.50514 -2.31487,-1.10101c-0.57432,-0.38565 -1.0951,-0.78264 -1.41479,-0.94715c-3.17773,-1.63527 -6.45168,-2.65271 -9.94681,-2.92456c-2.80362,-0.21806 -5.54493,-0.32134 -8.28362,-0.37097c0.3902,0.39581 0.7766,0.76793 1.16649,1.08757c6.29909,5.16402 15.16367,12.04121 19.22954,18.77181c1.4607,2.41803 6.11656,5.17243 5.41423,7.98174c-1.01389,4.05556 -4.85429,3.27387 -7.28057,1.97986c-3.81971,-2.03718 -4.30848,-6.38966 -7.08205,-9.21197c-4.57334,-4.6537 -10.86349,-7.97417 -15.04739,-13.11061c-0.37794,-0.46398 -2.67962,-2.47756 -4.37702,-3.98544c-0.77973,-0.35521 -1.42539,-0.95346 -1.84019,-1.69794c-0.12269,-0.22021 -0.22518,-0.45321 -0.30497,-0.6965c-0.06496,0.00164 -0.13108,0.00246 -0.19838,0.00246c-1.49229,0 -2.45517,-0.4695 -3.05417,-1.19773c-0.97066,-0.01163 -1.95184,-0.02828 -2.94583,-0.05227c-0.88024,-0.02125 -1.58746,-0.76248 -2.375,-1.15625c-1.91938,-0.95969 -4.29148,0.07583 -6.43591,0.15625c-2.03485,0.07631 -2.4606,2.18164 -4.68909,2.5c-1.75916,0.25131 -10.10272,-1.45115 -12,-2.25c-1.06825,-0.44979 -2.49703,-2.14958 -3.29836,-2.8915c-4.29743,-3.97883 -3.9391,-7.33113 -1.13712,-11.70891c0.69116,-1.07987 2.96503,-5.52089 4.39494,-5.34215c0.47415,-0.19805 0.99458,-0.30743 1.54055,-0.30743c0.02887,0 0.05767,0.00031 0.08639,0.00091c1.1719,-0.0404 2.58088,-2.18579 3.67805,-2.71482c3.5991,-1.73541 12.88502,-3.31778 15.33966,0.97784c2.68672,4.70176 -2.97352,5.94759 -6.19294,6.95326c-0.21572,0.06738 -4.51844,1.09755 -4.42876,1.30187c0.59374,1.35276 4.85467,2.51002 5.89225,5.22955c0.0416,0.10903 0.08316,0.23525 0.18011,0.30019c1.48895,0.9972 4.82757,0.17178 6.94523,-0.29881c1.97019,-0.43782 4.02392,-0.15521 6.05229,-0.03893c1.42466,-3.34065 3.47862,-6.47611 3.94771,-10.17604c0.66984,-5.28328 1.50374,-11.20552 3.68273,-16.09477c0.3028,-0.67942 0.3169,-2.1384 0.36899,-3.70033c-8.09017,2.83439 -17.21728,2.95104 -24.14522,-1.00779l-0.01633,0.02566c-0.74874,3.36934 -1.64771,10.80419 -6.07086,8.54086c-3.02536,1.87105 -11.08888,0.94562 -12.55576,0.95133c-0.26628,0.00104 -2.50858,0.46465 -2.51354,0.87548c-0.01517,1.2562 -1.93929,2.64783 -1.11863,3.59903c1.27394,1.4766 6.67941,7.74885 5.39355,9.99909c-1.18443,2.07275 -2.23453,4.4876 -5.14962,3.75882c-5.19713,-1.29928 -13.23698,-4.16855 -16.1253,-8.98243c-1.08278,-1.80464 1.4114,-12.22341 3.8249,-12.35749c0.6261,-0.40644 1.37303,-0.64251 2.1751,-0.64251c1.15026,0 2.18713,0.48552 2.91683,1.26281c0.32456,0.03999 0.30868,-0.57952 0.50474,-0.84124z"></path><path d="M264.8662,143.15045c1.12851,2.63318 3.45395,4.5292 3.00788,7.67275c-0.67553,4.76058 -6.54979,6.5377 -9.32771,2.53885c-1.10676,-1.59319 -2.51013,-7.84518 -2.85999,-11.98669c-0.20113,-0.47727 -0.3123,-1.00173 -0.3123,-1.55216c0,-0.61399 0.13834,-1.19568 0.38555,-1.71558c0.0326,-0.11127 0.07066,-0.20656 0.11445,-0.28442c0.05287,-0.094 0.12261,-0.18304 0.20505,-0.26853c0.48443,-0.70228 1.18757,-1.24206 2.01105,-1.52097c0.06022,-0.0724 0.11292,-0.14778 0.15628,-0.22673c1.31186,-2.38866 2.33355,-4.83506 3.71441,-7.21454c1.58639,-2.73363 1.79439,-10.30078 7.70207,-7.34694c5.66421,2.8321 -1.76769,11.07756 -2.80265,14.3753c-0.29375,0.936 -1.36522,5.46997 -2.59844,5.71661z"></path><path d="M222.12408,124.57321c1.01229,0.57845 2.40694,0.7771 3.18865,1.58458c0.11922,0.12315 0.22418,0.26045 0.31135,0.41542c1.1399,2.02645 0.40905,4.85245 1.40588,6.81853c0.36252,0.71501 0.75627,1.43584 1.15844,2.16304c0.0315,-0.13164 0.05903,-0.24886 0.08191,-0.35033c0.16891,-0.74927 0.82398,-4.4259 1.75304,-4.68719l2.85073,-1.19405c1.15485,0.86287 2.99827,1.25948 3.68498,2.44141c0.08333,0.14342 0.14962,0.2984 0.19559,0.46718c0.69191,2.54051 -1.11056,6.09781 -1.72178,8.51415c-0.48663,1.9238 0.01194,4.3913 -0.2697,6.0166c-0.22943,1.32398 -0.11051,2.93894 -1.06066,3.88909c-0.95015,0.95015 -2.54538,1.06066 -3.88909,1.06066c-0.61044,0 -1.11959,-0.14062 -1.54105,-0.39624c-1.30715,-0.11111 -2.59702,-0.9568 -3.39829,-1.99285c-1.10128,-1.42396 -1.40209,-4.92858 -2.00756,-6.62358c-1.24392,-3.4823 -3.65686,-5.98048 -3.99244,-9.84215c-0.10237,-1.17799 -1.7906,-5.40393 -0.19726,-6.31441z"></path><path d="M304.54637,111.28435c2.5824,-3.30706 5.08469,-2.433 7.43181,-0.19721c0.99705,0.94976 1.73272,5.9273 1.98995,7.61226c0.88207,5.77809 4.80421,11.34872 4.90595,17.3738c0.04124,2.44208 1.9698,14.75 -4,14.75c-4.35197,0 -3.91684,-4.6258 -4.5961,-7.40112c-1.73207,-7.07695 -0.59755,-15.2919 -3.94563,-21.98806c-0.29265,-0.55585 -0.45828,-1.189 -0.45828,-1.86083c0,-0.01128 0.00005,-0.02256 0.00014,-0.03382c-0.00886,-1.97948 -2.97047,-6.15146 -1.32785,-8.25503z"></path><path d="M311.15143,204.55163c6.724,2.40143 10.43557,18.09973 -0.5662,15.34929c-7.04017,-1.76004 -6.60262,-15.67501 0.43562,-15.28399z"></path></g><g fill-opacity="0.08235" fill="#b69edb" stroke="none" stroke-width="0.5"><path d="M278.09508,176.95639c2.07605,-6.22814 5.51696,-3.00271 8.36045,-0.56011c0.21759,0.18692 0.62689,0.4064 1.06151,0.63445c0.36298,0.13531 0.70102,0.32182 1.00533,0.55075c0.97021,0.72987 1.59764,1.89092 1.59764,3.19852c0,0.6298 -0.14555,1.22561 -0.40486,1.75562c3.03815,0.33234 6.80486,0.53625 6.80486,4.44438c0,1.75611 -0.50556,2.80965 -1.30915,3.40872c-1.33,1.39126 -3.85428,1.10364 -5.7555,1.19128c-1.73513,0.07998 -3.87463,1.94739 -5.93535,2c-5.84916,0.14934 -13.34192,-0.59882 -18.6,-3.22786v1.22786c-1.03535,4.14139 -4.08312,9.11298 -8.3,4.4c-1.26928,-1.41861 -0.99257,-4.1272 -0.48169,-6.41474c-0.01212,-0.12679 -0.01831,-0.2553 -0.01831,-0.38526c0,-0.8628 0.27317,-1.66179 0.73774,-2.31522c0.41525,-1.42283 -0.37941,-2.71683 -0.3501,-3.94834c-2.61032,3.92799 -8.66232,8.17415 -11.20318,8.98588c-1.0381,0.33164 -2.29268,0.65549 -3.38446,0.67768c-12.0609,0.24507 -12.59911,-2.01086 -13.8,-13.23978c-0.11085,-1.03649 -0.25866,-2.18043 -0.37761,-3.36921c-0.27027,-0.53882 -0.42239,-1.14715 -0.42239,-1.79101c0,-0.4613 0.07809,-0.90436 0.22176,-1.31668c-0.03978,-2.25726 0.21203,-4.48487 1.17268,-6.28609c1.51367,-2.83812 5.4803,-3.37933 7.68136,-1.17827l0.08033,0.02008c0.66554,-0.33277 2.37656,0.83637 3.06703,1.14644c3.78599,1.70016 6.51217,4.36688 9.7905,6.82296c2.57592,1.92984 6.04033,1.73881 7.99189,4.7888c0.53092,0.82974 0.52389,1.82335 0.14265,2.89246c0.12566,-0.10625 0.26629,-0.21228 0.42337,-0.31812c1.77812,-1.19811 2.19285,-1.35852 4.31399,-0.88548c0.71023,0.15839 1.35629,0.48338 1.98124,0.86927c0.88043,-0.18145 1.86496,-0.17242 2.86805,0.07835c-0.08796,-0.32974 -0.13485,-0.67625 -0.13485,-1.03371c0,-1.96441 1.41606,-3.59809 3.28309,-3.93593c0.15503,-0.05009 0.31897,-0.08083 0.4933,-0.08899c2.57512,-0.12057 4.96597,0.70921 7.27488,1.8272c0.01503,-0.21187 0.05548,-0.42092 0.12381,-0.62588z"></path><path d="M260.32,138.78c1.01229,0.57845 2.40694,0.7771 3.18865,1.58458c0.11922,0.12315 0.22418,0.26045 0.31135,0.41542c1.39053,2.47201 7.96977,14 -0.1,14c-1.34371,0 -2.50305,-1.09908 -3.5,-2c-0.01948,-0.0176 -0.74265,-2.142 -0.95266,-2.5297c-0.49921,-0.92157 -4.86954,-8.08619 -2.3946,-9.50044z"></path><path d="M234.42,139.78c0.02602,0.04625 0.05257,0.11802 0.07941,0.21259c0.26914,0.53793 0.42059,1.14499 0.42059,1.78741c0,0.23005 -0.01942,0.45557 -0.05671,0.675c0.33084,3.30139 0.52267,8.47349 0.01082,8.96107c-2.40056,2.28669 -6.00385,2.80899 -8.18253,-0.20764c-0.82129,-1.13718 -1.26345,-2.35408 -1.9308,-3.55617c-0.83874,-1.5108 -1.81554,-2.87635 -2.21786,-4.58061c-0.61802,-2.61796 -2.05303,-4.72595 -2.22291,-7.5606c-0.17782,-2.96707 -4.23429,-6.08604 0.61115,-8.50876c6.27252,-3.13626 6.98249,8.0207 8.50344,11.0626c0.45925,-0.18379 0.96053,-0.28489 1.48542,-0.28489c1.30172,0 2.4582,0.6218 3.18865,1.58458c0.11922,0.12315 0.22418,0.26045 0.31135,0.41542z"></path><path d="M236.42138,203.55534c3.36179,0.84045 6.48585,5.71879 8.67517,8.2431c0.55775,0.64309 2.03796,1.53442 2.12345,2.38155c0.07701,0.76314 -0.14176,3.75599 -0.5,4c-6.71831,4.57603 -23.9334,-7.93321 -19.3,-17.2c0.89678,-1.79355 3.48062,-4.46237 5.7,-4c3.12384,0.6508 5.08617,3.72899 2.86887,6.31584z"></path><path d="M310.44987,245.35316c1.77324,1.86571 7.07302,4.50657 6.67013,7.32684c-0.53333,3.73333 -1.86667,4.73333 -5.6,4.2c-1.2573,-0.17961 -4.32946,-3.70921 -5.14709,-4.55291c-4.05498,-4.18428 -8.76785,-9.46919 -13.61483,-12.59857c-0.87414,-0.56438 -5.11589,-2.43873 -7.78519,-3.91543c-0.71753,-0.21442 -1.35048,-0.62482 -1.83673,-1.16907c-0.33859,-0.37897 -0.60604,-0.82284 -0.7814,-1.31064c-2.58471,0.30207 -4.29836,-0.93263 -6.72718,-0.95338c-5.60226,-0.04787 -9.31213,0.33331 -14.15294,-1.00986c-3.32478,-0.92252 -9.67696,-1.38688 -12.24257,-3.58598c-1.65827,-1.42138 -2.1949,-11.58233 0.03721,-12.21011c0.72555,-0.73706 1.73477,-1.19405 2.85073,-1.19405c1.65623,0 3.07736,1.00661 3.68498,2.44141c0.08333,0.14342 0.14962,0.2984 0.19559,0.46718c0.05179,0.19017 0.07851,0.38378 0.087,0.57966c0.0214,0.16756 0.03243,0.33837 0.03243,0.51175c0,0.55357 -0.11245,1.08088 -0.31576,1.56032c-0.09857,0.54957 -0.1542,1.0855 -0.01958,1.58274c0.00857,0.03165 4.69384,1.20143 5.10548,1.37637c4.83473,2.05466 9.94524,1.414 15.22986,1.48057c1.14717,0.01445 2.84584,1.75148 3.36393,0.72786c2.63432,-5.2047 2.02403,-11.2428 4.73607,-16.32786c0.42706,-0.80074 1.01293,-1.30584 1.67077,-1.57183c0.2876,-2.40824 0.71525,-4.54265 0.97546,-5.69692c0.06973,-0.30932 1.04835,-5.26869 2.00304,-5.53719l2.85073,-1.19405c1.15485,0.86287 2.99827,1.25948 3.68498,2.44141c0.08333,0.14342 0.14962,0.2984 0.19559,0.46718c0.85982,3.15703 -1.53215,7.58919 -1.68057,10.7259c-0.14733,3.1137 1.24906,11.16551 -4.2,11.16551c-0.00608,0 -0.01214,-0.00001 -0.0182,-0.00004c-0.17838,1.04652 -0.45713,2.31402 -0.81963,3.6497c4.19164,-0.35412 9.49914,0.07723 11.36217,0.23142c5.64799,0.46744 13.23922,1.07733 18.67566,3.01892c4.37984,1.56423 9.1747,5.62003 13.25307,8.06618c1.7241,1.03409 11.14506,5.92984 11.70103,7.59775c1.19257,3.57771 0.44721,5.06842 -3.1305,6.26099c-2.06258,0.68753 -5.78619,-3.07309 -7.4352,-3.95858c-6.84835,-3.67746 -13.64517,-9.84517 -21.25934,-11.14942c-5.98187,-1.02465 -12.11657,-1.93892 -18.1934,-1.9274c6.44178,3.34465 11.65589,8.78781 16.59421,13.98365z"></path><path d="M311.75607,209.0259c1.82372,1.23903 1.92472,3.73274 3.32066,5.25398c0.33387,0.36384 2.52115,2.01248 2.59737,2.26406c1.26174,4.16419 -1.37344,7.01118 -5.14296,5.81378c-3.30918,-1.05118 -5.19758,-5.4063 -6.55287,-8.11688c-0.29265,-0.55585 -0.45828,-1.189 -0.45828,-1.86083c0,-2.20914 1.79086,-4 4,-4c0.35558,0 0.70032,0.0464 1.0285,0.13347c0.42653,0.0918 0.83616,0.2601 1.20756,0.51243z"></path><path d="M307.05509,108.38527c2.86117,-0.95372 4.13434,0.6179 5.05964,2.52982c1.18669,2.45202 1.68191,5.21685 2.33965,7.83053c0.89079,3.53977 3.68708,6.49545 2.66694,10.57602c-0.86706,3.46824 -4.85364,2.41417 -6.88709,1.2522c-1.14011,-0.65149 -2.73656,-7.81401 -3.2192,-8.79419c-0.25867,-0.52533 -1.33214,-1.79653 -2.16279,-2.81916c-0.37176,-0.33298 -0.68085,-0.73449 -0.90742,-1.18467c-0.27178,-0.54001 -0.42481,-1.15005 -0.42481,-1.79583c0,-0.66948 0.16447,-1.30054 0.45521,-1.85499c0.39805,-2.27017 0.6391,-4.92615 3.07988,-5.73974z"></path></g></g></g></svg>