<svg version="1.1" xmlns="http://www.w3.org/2000/svg" xmlns:xlink="http://www.w3.org/1999/xlink" width="147.44397" height="238.03466" viewBox="0,0,147.44397,238.03466"><g transform="translate(-213.75599,-68.30006)"><g stroke-miterlimit="10"><g><path d="M257.65225,170.47868c-1.10978,-0.66137 -1.98063,-1.52919 -2.76521,-2.4743c-1.04201,0.86865 -2.12746,1.69734 -3.18659,2.59963c-0.62471,0.5322 -1.06757,1.34441 -1.83075,1.64615c-2.70539,1.06964 -8.07306,0.29804 -11.02974,-0.18138c-0.23742,-0.01692 -0.45098,-0.08103 -0.61467,-0.14683c-0.22199,-0.08634 -0.50819,-0.2371 -0.73533,-0.4902l-1.1239,-0.89801c-0.72533,-1.22992 -1.95084,-2.11522 -2.67433,-3.34623c-0.40986,-0.69738 -0.28777,-1.61866 -0.66667,-2.33333c-1.32529,-2.49974 -3.83011,-4.07632 -4.82261,-7.01296c-2.01501,-5.96206 -1.47061,-12.51493 -1.42235,-18.74064c-0.5169,-0.24037 -1.0883,-0.54362 -1.66287,-0.88217l-1.56716,-0.62687l0.11421,-0.28552l-0.64922,-0.05152c-0.13589,-0.25829 -0.25999,-0.50389 -0.37331,-0.73914c-0.6785,-0.55857 -1.19592,-1.10248 -1.39187,-1.54563c-0.15736,-0.35587 -0.15257,-1.57816 -0.13294,-2.68497l-0.88885,-2.37026l0.04488,-0.01683c-0.04534,-0.09366 -0.08817,-0.18874 -0.12823,-0.28539c-0.03562,-0.08594 -0.02808,-5.5211 -0.02808,-5.97891c0,-3.78241 0.17992,-7.22174 0.68358,-10.90939c0.08596,-0.6294 0.14083,-1.26908 0.17137,-1.91555c-0.00016,-0.84883 0.00306,-1.69734 0.01072,-2.54518c-0.05282,-1.63743 -0.20183,-3.28865 -0.34281,-4.89964c-0.2667,-0.04821 -0.52056,-0.1344 -0.75397,-0.28112c-2.07775,-1.30606 -0.96019,-2.83262 -1.64628,-4.47224c-0.5784,-1.38227 -1.54794,-2.58275 -2.09105,-3.97927l0.11106,-0.33094h-0.14263v-2.33333c0,-0.9665 0.7835,-1.75 1.75,-1.75c0.81324,0 1.49693,0.55473 1.6933,1.30644l0.62295,2.18032c0.04795,0.06794 0.09573,0.13589 0.14338,0.20385c0.04038,-2.43539 0.12372,-4.87241 0.12372,-7.27393v-1.66667c0,0 0,-1.75 1.75,-1.75c0.98136,0 1.41239,0.55032 1.60172,1.03375c0.12151,-0.02185 0.25395,-0.03375 0.39828,-0.03375c1.75,0 1.75,1.75 1.75,1.75c-0.00268,1.49667 -0.11192,2.96924 -0.26237,4.43467c0.14777,-0.16528 0.32668,-0.30293 0.55278,-0.41531l0.247,-0.65867c0.00962,-0.05514 0.01873,-0.11033 0.02732,-0.16557l0.05392,-0.05108l0.04236,-0.11296l-0.03585,-0.01434l0.65153,-1.62882c0.24817,-0.66463 0.8888,-1.13791 1.63997,-1.13791c0.9665,0 1.75,0.7835 1.75,1.75c0,0.23054 -0.04458,0.45067 -0.12559,0.65223l-0.65481,1.74617c-0.43675,2.18175 -1.49988,4.26505 -2.74543,6.23279c-0.6798,1.68904 -1.46935,3.39329 -2.14085,5.0419c-0.00122,0.49578 -0.14323,0.85058 -0.34588,1.1045c-0.07705,1.95885 -0.11635,3.92586 -0.13158,5.89652c0.01491,0.68258 0.01429,1.36293 -0.00774,2.03797c-0.00077,5.30696 0.13843,10.62912 0.15098,15.87882c0.24169,0.05921 0.47672,0.12046 0.70019,0.17718c0.5539,0.14059 1.05332,0.43509 1.50375,0.8338c0.02041,-0.46262 0.05108,-0.81564 0.09683,-0.93825c0.2468,-0.66137 1.10518,-0.93065 1.44185,-1.55111c0.85531,-1.57629 1.22297,-3.53582 2.52557,-4.8406c0.38827,-1.05995 0.88893,-2.07842 1.60334,-3.01556c2.59294,-3.40134 6.30739,-6.89087 10.71509,-7.64145c4.98609,-0.84908 11.58133,-0.28105 16.56863,0.39754c0.50329,0.29532 0.96812,0.60886 1.41483,0.93044c1.07108,-4.8151 4.10585,-9.08497 5.69156,-13.84231c0.53071,-1.5922 0.93966,-3.27278 1.28298,-4.9772c-0.37425,-0.076 -0.72885,-0.19715 -1.04176,-0.41413c-0.71459,-0.49549 -0.79002,-1.54935 -1.18173,-2.32569c-0.91231,-1.80815 -1.9201,-3.54095 -2.8375,-5.34447c-0.07675,-0.07178 -0.1507,-0.14689 -0.22146,-0.22582c-0.94442,-1.05363 -1.14423,-2.62844 -2.04448,-3.72005l-0.53206,-0.97726c0,0 -0.78262,-1.56525 0.78262,-2.34787c1.56525,-0.78262 2.34787,0.78262 2.34787,0.78262l0.13461,0.35607c0.41601,0.53205 0.67763,1.16773 0.94429,1.79891c0.29031,0.11499 0.54252,0.30539 0.73248,0.54705l1.32323,1.65404l-0.0275,0.022c0.01891,0.01725 0.0377,0.03465 0.05636,0.05222c0.19457,0.05035 0.3842,0.11021 0.54779,0.21158c0.54918,0.34029 1.4533,1.0169 2.37718,1.87288c0.28141,-2.15502 -0.12278,-4.7282 0.74104,-6.7623c0.18878,-0.44453 0.50238,-0.9548 0.89007,-1.49464c0.08762,-1.00781 0.18716,-2.01645 0.31206,-3.02558c0,0 0.21706,-1.73649 1.95355,-1.51943c0.12551,0.01569 0.24081,0.03931 0.34673,0.06965c0.31625,-0.45327 0.8416,-0.74983 1.43621,-0.74983c0.9665,0 1.75,0.7835 1.75,1.75c0,0.18094 -0.02746,0.35546 -0.07844,0.51963l-0.63536,2.22377c-0.11698,0.68716 -0.23395,1.37432 -0.35093,2.06149c-0.80423,2.01057 -0.67816,3.9771 -0.91581,5.96783c0.09743,-0.10751 0.1972,-0.213 0.29969,-0.31614c0.88391,-0.88955 1.88182,-1.60748 2.92176,-2.26314c1.13061,-0.95213 2.3846,-1.81737 3.6527,-2.61187l-0.01013,-0.00811l1.32323,-1.65404c0.3204,-0.40761 0.81794,-0.66941 1.37662,-0.66941c0.9665,0 1.75,0.7835 1.75,1.75c0,0.24378 -0.04985,0.47592 -0.13991,0.68678l-0.65193,1.62982l-0.22733,-0.09093l-0.02097,0.52158c-0.83635,0.61818 -1.74661,1.17824 -2.66652,1.73542c-1.30963,1.0087 -2.83393,2.12104 -2.89675,2.17272c-1.65706,1.36313 -1.85774,3.17106 -3.07447,4.72063c-0.19946,0.25403 -3.22955,2.65769 -3.64558,2.99051l-0.7358,0.24424c-0.14335,1.52097 0.06199,3.09405 -0.34917,4.56303c-0.60256,2.15284 -1.36222,4.68237 -2.20878,7.04954c-0.43099,2.55049 -0.92294,5.10043 -1.8984,7.55431c-0.69927,1.07614 -1.05599,2.4276 -1.33648,3.82886c2.90841,2.64766 5.06927,5.90339 6.82728,9.39845c1.70663,-0.1839 3.42124,-0.27571 5.13046,-0.41564c1.77753,-0.14553 3.8778,0.38665 5.60316,-0.25352c6.41085,-2.37864 12.96734,-5.09834 17.30374,-10.57322l1.74948,-1.41283c1.04186,-0.9858 2.33094,-1.67979 3.5246,-2.47737c1.30748,-0.87365 1.33066,-1.64546 2.19322,-2.87141c1.59264,-2.26359 3.58973,-3.76115 4.88802,-6.149c1.33185,-2.44958 3.49997,-4.55268 3.80319,-7.30935l-0.00286,-1.21825c-0.00101,-0.21946 -0.00154,-0.4387 -0.00154,-0.6577c0,0 0,-1.75 1.75,-1.75c1.75,0 1.75,1.75 1.75,1.75c0,6.63494 0.52923,13.53305 -0.00596,20.14434c-0.50739,6.26791 -3.20575,12.30226 -4.07364,18.37745c-2.31066,4.60821 -2.25373,11.35667 -2.25373,16.47821v1.66667c0,2.87881 0.20867,6.09899 -0.75245,8.87451c-0.05749,0.16603 -0.11932,0.32473 -0.18495,0.47707c2.03213,0.87466 4.22852,2.02894 5.54633,3.54579c0.87843,1.01111 1.50559,2.42855 1.87105,4.01291c0.18504,-0.16695 0.36916,-0.33466 0.55075,-0.50447c0.06428,-0.31561 0.11451,-0.63437 0.14945,-0.9562c0,0 0.14296,-1.14371 1.12504,-1.45872c0.24973,-1.87561 -0.13318,-4.3911 -0.1385,-5.63177c-0.07483,-0.31321 -0.05588,-0.68397 0.15792,-1.09965c0.12498,-0.30724 0.34882,-0.63714 0.74975,-0.83326c0.38558,-0.2248 0.78424,-0.22806 1.1092,-0.16162c0.04215,0.00478 0.0831,0.01069 0.12289,0.01767l0.10957,-0.18262l0.04401,0.02641l0.0198,-0.12508c0.10927,-0.12623 0.22315,-0.2527 0.34123,-0.37838c-0.58711,-1.09957 -0.59295,-2.20736 2.36856,-1.88742c1.73171,-0.93158 3.69016,-0.97932 5.24987,1.40262c0.52755,0.80565 0.60268,2.18796 0.56048,3.66927v1.27223c1.46941,3.60062 2.00135,8.11732 2.64286,11.96636c1.01778,6.10669 1.55431,13.71721 0.66788,19.90135c-0.71203,4.96745 -5.41751,10.92533 -9.33183,13.77708c-0.70172,0.51123 -1.406,0.94112 -2.114,1.31101c-0.7744,0.89497 -1.60224,1.71398 -2.48081,2.18763c-0.22283,0.12013 -0.82689,0.23973 -1.52619,0.3531l-0.25854,0.90489l-0.05779,-0.01651l0.00608,0.17016c-1.40059,2.75199 -1.272,5.63342 -2.7012,8.41582c-0.41425,0.80648 -0.52321,1.90262 -1.28199,2.39889c-0.74229,0.48548 -1.64621,0.51453 -2.56924,0.5053c-0.06098,0.09792 -0.12286,0.19599 -0.18572,0.29422l-1.99244,1.25198c0,0 -0.24017,0.1441 -0.58598,0.22092l-0.00001,-0.00002c-0.14816,0.12494 -0.2574,0.2068 -0.31135,0.22859c-0.41212,0.16643 -3.96604,0.13321 -4.6697,0.13321h-1.21529c0.03337,2.23972 0.02801,4.67762 -0.39064,6.53032c-0.24238,1.07264 -0.41009,2.34891 -1.25722,3.05012c-0.75922,0.62844 -1.49743,0.94906 -2.19909,1.03613c-0.27002,0.61812 -0.88678,1.0501 -1.60443,1.0501c-0.48325,0 -0.92075,-0.19588 -1.23744,-0.51256l-1.33333,-1.33333l0.3695,-0.3695c-0.20669,-0.19591 -0.40565,-0.39884 -0.59519,-0.60874c-0.72341,0.29077 -1.52194,0.5427 -2.4125,0.76322c-0.45678,0.11311 -1.16623,0.25538 -1.96004,0.33257c-2.02289,1.8014 -4.0792,3.41862 -6.73085,4.67265c-0.11506,0.14156 -0.23539,0.27937 -0.3605,0.41329c0.00677,0.07183 0.01031,0.14704 0.01031,0.22579c0,0.19874 -0.02257,0.3749 -0.06258,0.53107c0.14252,0.03533 0.28643,0.07255 0.43191,0.11183c4.13345,1.11584 8.63821,1.21578 12.46176,3.53169c4.6962,2.84447 8.64001,6.39375 13.97231,8.16522l0.72108,0.24036c0.25606,0.05425 0.47711,0.16455 0.64261,0.26928c0.16634,0.10038 0.36204,0.24719 0.52431,0.44942c2.45792,2.4341 4.79567,4.31775 7.58185,6.28146c3.0452,2.14627 5.34018,5.50342 8.33333,7.66667c1.30595,0.94385 2.95589,1.39165 4.15938,2.46308c4.06214,3.61641 7.00455,8.1935 11.31782,11.65262c1.46937,1.4834 2.87469,3.24333 3.97364,5.02747c0.17203,0.27929 0.76534,1.58433 1.3634,2.71365c0.25018,0.15215 0.43586,0.35485 0.55704,0.51551c0.76563,0.56327 1.48021,1.22303 2.09411,2.12731c0.1353,0.1993 0.24323,0.41191 0.33266,0.63357c0.43524,0.36774 0.8517,0.75328 1.21188,1.19324l0.38348,1.75988c0,0 0,0.48474 -0.25512,0.94398c1.004,1.42152 1.82533,1.3778 2.13692,3.42378c0.00098,0.00641 0.00195,0.01281 0.00291,0.01922l0.00386,-0.00145l0.98584,2.6289c0.08101,0.20157 0.12559,0.42169 0.12559,0.65223c0,0.9665 -0.7835,1.75 -1.75,1.75c-0.55868,0 -1.05622,-0.2618 -1.37662,-0.66941l-1.32323,-1.65404l0.10452,-0.08361l-0.27524,-0.1733c-0.46965,-1.38416 -1.0354,-2.65811 -1.65247,-3.88625c-0.25036,-0.2504 -0.37554,-0.50076 -0.37554,-0.50076l-0.13461,-0.35607c-2.07027,-2.59483 -4.28447,-5.16203 -6.86628,-7.25873c-3.01795,-1.31471 -5.20584,-3.5101 -7.82944,-5.44375c-2.38413,-1.75716 -4.98948,-2.79102 -7.36431,-4.69088c-1.98597,-1.58878 -4.2502,-4.10905 -6.61475,-5.09945c-5.12309,-2.14583 -11.53339,-2.70306 -16.25082,-5.62967c0.85595,2.13212 1.40718,4.35279 2.52403,6.57998l0.00006,-0.00006c2.72471,5.43352 5.45762,10.70456 8.3313,15.99595c2.25553,4.15317 2.39702,9.32467 3.16297,13.83231c0,0 0.0122,0.07321 0.0165,0.192c0.02537,0.34325 -0.01801,0.81973 -0.34587,1.21373c-0.19748,0.25659 -0.50347,0.47653 -0.97458,0.58198c-0.4657,0.12724 -0.83904,0.07602 -1.13362,-0.05835c-0.4741,-0.19481 -0.73538,-0.59562 -0.87357,-0.91085c-0.05178,-0.10699 -0.07525,-0.17741 -0.07525,-0.17741l-0.17375,-0.65303c-0.63421,-1.07541 -1.67211,-1.87621 -2.30408,-2.95294c-0.84699,-1.4431 -1.13313,-3.22838 -2.21533,-4.50461c-2.0394,-2.40506 -4.06759,-4.43631 -5.51404,-7.26736c-1.72447,-2.8713 -3.91152,-5.12518 -5.87625,-7.80601c-1.91051,-2.60685 -3.34575,-5.7958 -5.53134,-8.17073c-1.07895,-1.17242 -2.63298,-1.8444 -3.69565,-3.0316c-2.07996,-2.32367 -3.6527,-6.03738 -6.34379,-7.71799c-2.09486,-1.30827 -4.45413,-2.21247 -6.56432,-3.59886c-0.60416,-0.30611 -1.18116,-0.64422 -1.74288,-0.99884c-2.17207,-0.81274 -3.26716,-2.05712 -4.8732,-3.1704c-0.97319,-0.53768 -2.00284,-0.9919 -3.14658,-1.28752c-0.20144,-0.01839 -0.40442,-0.0288 -0.6078,-0.03363c-0.29439,0.40579 -0.75878,0.68024 -1.28862,0.7188l-3.47141,0.28928l-0.00614,-0.07364c-0.11645,0.02465 -0.23351,0.04699 -0.35123,0.06679c-0.73401,0.12346 -1.40979,-0.48034 -2.12629,-0.68195c-0.32492,-0.09143 -1.0362,-0.2616 -1.8415,-0.4599c-1.4049,-0.2311 -2.78488,-0.52248 -4.03057,-0.84106c-1.07254,-0.2743 -2.30882,-0.34901 -3.14097,-1.07915c-0.24047,-0.21099 -0.43833,-0.4367 -0.59977,-0.67391c-1.49815,-0.65127 -2.60638,-1.67753 -2.64428,-3.29179c-0.00588,-0.25062 0.10624,-0.54881 0.30525,-0.87449c-0.50874,-1.21706 -0.55497,-2.54862 -0.22011,-3.75293c-1.00818,-0.24031 -1.91562,-0.50589 -2.5552,-0.71238l-0.11327,0.0898c0,0 -0.17477,0 -0.41385,-0.05523c-0.34925,0.08246 -0.69384,0.18112 -1.03275,0.29876c0,0 -1.43957,0.47986 -2.08453,-0.79461c-0.60101,-0.03948 -1.20806,-0.11837 -1.8022,-0.11558c-2.97091,0.01395 -7.38607,0.57309 -10.1341,-0.86062c-1.55971,-0.81374 -2.43459,-2.04948 -2.90275,-3.48381c-0.12425,-0.09584 -0.23909,-0.20455 -0.34251,-0.32859c-1.70004,-2.03895 -1.17987,-3.02831 -0.16024,-3.75244l-0.16873,-0.0375l0.07312,-0.32902c-0.07416,-0.19401 -0.11479,-0.40461 -0.11479,-0.62469c0,-0.10937 0.01003,-0.2164 0.02923,-0.32022l0.32791,-1.96748l0.08126,0.01354c0.00892,-0.10878 0.01768,-0.21677 0.02619,-0.32389l-0.00865,-0.0455c0.00465,-0.00719 0.0093,-0.01438 0.01395,-0.02157c0.02154,-0.27376 0.04125,-0.54167 0.05738,-0.80232c0.32191,-0.25665 0.64381,-0.51329 0.96572,-0.76994c1.61583,-2.48221 3.20696,-4.98928 4.29882,-7.74589c0,0 0.01952,-0.04881 0.06027,-0.12613c0.00727,-0.01561 0.01416,-0.02989 0.02053,-0.04276c-0.52177,-0.30292 -0.87263,-0.86774 -0.87263,-1.51451c0,-0.48325 0.19588,-0.92075 0.51256,-1.23744l1.33333,-1.33333c2.97908,-2.97592 6.3058,-5.25895 9.57173,-7.86604c0.78153,-0.45469 1.37555,-1.16243 2.01742,-1.80996c0.40354,-2.71835 0.90948,-5.45157 1.63889,-7.92316c0.24259,-0.82201 0.52395,-1.62908 0.83273,-2.4256c-0.37266,-1.52485 -0.53241,-3.08542 -0.21738,-4.68481c0.61944,-3.14492 3.24935,-4.37073 5.2767,-6.4845c0.58358,-1.52187 1.75407,-4.86682 2.10122,-6.04876c0.35322,-1.20262 0.71156,-3.37816 1.24472,-4.85306c0.10914,-0.69966 0.21533,-1.39973 0.3154,-2.10098c-0.03054,-0.01757 -0.06112,-0.03547 -0.09174,-0.05372zM264.19698,191.34988c2.30625,-0.89736 4.88061,0.46901 7.05316,1.56005c0.85093,-0.29781 1.69117,-0.5808 2.51432,-0.84864c1.3205,-0.89367 2.66384,-1.75348 4.01464,-2.60085c-0.86302,-1.29629 -1.35283,-2.66785 -0.88154,-3.78235c0.02652,-0.06272 0.05657,-0.12255 0.08982,-0.17975l-0.34343,-0.66577c0.40694,-0.05569 0.81441,-0.10059 1.2224,-0.13595c0.17026,-0.09803 0.35104,-0.18742 0.53541,-0.27389l0.08593,-0.51559l0.74878,0.1248c0.18082,-0.09135 0.35461,-0.18847 0.51423,-0.29719c0,0 1.56525,-0.78262 2.34787,0.78262c0.01777,0.03553 0.03432,0.07066 0.04971,0.10538c2.49287,0.09833 5.00351,0.38962 7.52938,0.59987c1.57068,0.13074 4.11661,0.8863 5.68187,0.40246c0.47437,-0.14663 0.91572,-0.35804 1.32956,-0.61695c0.6498,-0.5717 1.30962,-1.13265 1.95476,-1.7091c0.80268,-0.89444 1.50277,-1.88824 2.17677,-2.74267c0.19993,-0.25345 0.40316,-0.49134 0.61032,-0.71521c0.05413,-0.08881 0.10936,-0.1766 0.16621,-0.26291c-0.15914,-2.11583 -0.14715,-4.27484 -0.14715,-6.61157c0,-0.04574 0,-0.09147 0.00001,-0.13718c-3.0226,1.38962 -6.54084,1.86511 -9.63637,2.86459c-1.2988,0.01123 -2.59764,0.01961 -3.89649,0.02194l-0.69392,0.33699c-0.27091,0.26841 -0.54372,0.51043 -0.81869,0.72859c-0.2151,0.73082 -0.49037,1.40912 -1.07339,1.85369c-0.97887,0.74642 -4.37283,0.37297 -5.83174,0.10809c-0.94987,0.00492 -1.93629,-0.02523 -2.96608,-0.02671c-1.43702,-0.00207 -3.47505,0.1236 -4.80077,-0.52729c-1.69699,-0.83318 -2.77156,-2.72075 -4.14628,-4.13151c-0.38287,-0.26084 -0.76237,-0.52749 -1.14324,-0.7933c-0.06416,0.29571 -0.14131,0.58677 -0.23364,0.87202c-0.33628,1.03877 -1.01048,1.94915 -1.3312,2.99283c-0.61302,1.99488 -0.57121,4.13651 -0.96337,6.18628c-0.68247,3.56713 -1.52806,7.10762 -2.35834,10.64758c0.75464,-1.10017 1.55968,-2.19286 2.64047,-2.61339zM301.99384,227.1581c-0.01541,0.01957 -0.03085,0.03906 -0.04633,0.05848c0.00311,0.32522 0.00378,0.66774 0.00365,1.03179c0.11248,-0.32581 0.09688,-0.701 0.04268,-1.09027zM313.44836,170.58833c-0.38795,-0.80187 -0.97446,-1.52623 -1.8333,-2.57239c-0.00668,2.19656 -0.03347,4.38871 -0.06914,6.57902c0.94822,-1.21229 1.77063,-2.48917 1.90243,-4.00663z" fill="#130c1f" stroke-opacity="0.28235" stroke="#b59fd8" stroke-width="4.5"></path><path d="M257.65225,170.47868c-1.10978,-0.66137 -1.98063,-1.52919 -2.76521,-2.4743c-1.04201,0.86865 -2.12746,1.69734 -3.18659,2.59963c-0.62471,0.5322 -1.06757,1.34441 -1.83075,1.64615c-2.70539,1.06964 -8.07306,0.29804 -11.02974,-0.18138c-0.23742,-0.01692 -0.45098,-0.08103 -0.61467,-0.14683c-0.22199,-0.08634 -0.50819,-0.2371 -0.73533,-0.4902l-1.1239,-0.89801c-0.72533,-1.22992 -1.95084,-2.11522 -2.67433,-3.34623c-0.40986,-0.69738 -0.28777,-1.61866 -0.66667,-2.33333c-1.32529,-2.49974 -3.83011,-4.07632 -4.82261,-7.01296c-2.01501,-5.96206 -1.47061,-12.51493 -1.42235,-18.74064c-0.5169,-0.24037 -1.0883,-0.54362 -1.66287,-0.88217l-1.56716,-0.62687l0.11421,-0.28552l-0.64922,-0.05152c-0.13589,-0.25829 -0.25999,-0.50389 -0.37331,-0.73914c-0.6785,-0.55857 -1.19592,-1.10248 -1.39187,-1.54563c-0.15736,-0.35587 -0.15257,-1.57816 -0.13294,-2.68497l-0.88885,-2.37026l0.04488,-0.01683c-0.04534,-0.09366 -0.08817,-0.18874 -0.12823,-0.28539c-0.03562,-0.08594 -0.02808,-5.5211 -0.02808,-5.97891c0,-3.78241 0.17992,-7.22174 0.68358,-10.90939c0.08596,-0.6294 0.14083,-1.26908 0.17137,-1.91555c-0.00016,-0.84883 0.00306,-1.69734 0.01072,-2.54518c-0.05282,-1.63743 -0.20183,-3.28865 -0.34281,-4.89964c-0.2667,-0.04821 -0.52056,-0.1344 -0.75397,-0.28112c-2.07775,-1.30606 -0.96019,-2.83262 -1.64628,-4.47224c-0.5784,-1.38227 -1.54794,-2.58275 -2.09105,-3.97927l0.11106,-0.33094h-0.14263v-2.33333c0,-0.9665 0.7835,-1.75 1.75,-1.75c0.81324,0 1.49693,0.55473 1.6933,1.30644l0.62295,2.18032c0.04795,0.06794 0.09573,0.13589 0.14338,0.20385c0.04038,-2.43539 0.12372,-4.87241 0.12372,-7.27393v-1.66667c0,0 0,-1.75 1.75,-1.75c0.98136,0 1.41239,0.55032 1.60172,1.03375c0.12151,-0.02185 0.25395,-0.03375 0.39828,-0.03375c1.75,0 1.75,1.75 1.75,1.75c-0.00268,1.49667 -0.11192,2.96924 -0.26237,4.43467c0.14777,-0.16528 0.32668,-0.30293 0.55278,-0.41531l0.247,-0.65867c0.00962,-0.05514 0.01873,-0.11033 0.02732,-0.16557l0.05392,-0.05108l0.04236,-0.11296l-0.03585,-0.01434l0.65153,-1.62882c0.24817,-0.66463 0.8888,-1.13791 1.63997,-1.13791c0.9665,0 1.75,0.7835 1.75,1.75c0,0.23054 -0.04458,0.45067 -0.12559,0.65223l-0.65481,1.74617c-0.43675,2.18175 -1.49988,4.26505 -2.74543,6.23279c-0.6798,1.68904 -1.46935,3.39329 -2.14085,5.0419c-0.00122,0.49578 -0.14323,0.85058 -0.34588,1.1045c-0.07705,1.95885 -0.11635,3.92586 -0.13158,5.89652c0.01491,0.68258 0.01429,1.36293 -0.00774,2.03797c-0.00077,5.30696 0.13843,10.62912 0.15098,15.87882c0.24169,0.05921 0.47672,0.12046 0.70019,0.17718c0.5539,0.14059 1.05332,0.43509 1.50375,0.8338c0.02041,-0.46262 0.05108,-0.81564 0.09683,-0.93825c0.2468,-0.66137 1.10518,-0.93065 1.44185,-1.55111c0.85531,-1.57629 1.22297,-3.53582 2.52557,-4.8406c0.38827,-1.05995 0.88893,-2.07842 1.60334,-3.01556c2.59294,-3.40134 6.30739,-6.89087 10.71509,-7.64145c4.98609,-0.84908 11.58133,-0.28105 16.56863,0.39754c0.50329,0.29532 0.96812,0.60886 1.41483,0.93044c1.07108,-4.8151 4.10585,-9.08497 5.69156,-13.84231c0.53071,-1.5922 0.93966,-3.27278 1.28298,-4.9772c-0.37425,-0.076 -0.72885,-0.19715 -1.04176,-0.41413c-0.71459,-0.49549 -0.79002,-1.54935 -1.18173,-2.32569c-0.91231,-1.80815 -1.9201,-3.54095 -2.8375,-5.34447c-0.07675,-0.07178 -0.1507,-0.14689 -0.22146,-0.22582c-0.94442,-1.05363 -1.14423,-2.62844 -2.04448,-3.72005l-0.53206,-0.97726c0,0 -0.78262,-1.56525 0.78262,-2.34787c1.56525,-0.78262 2.34787,0.78262 2.34787,0.78262l0.13461,0.35607c0.41601,0.53205 0.67763,1.16773 0.94429,1.79891c0.29031,0.11499 0.54252,0.30539 0.73248,0.54705l1.32323,1.65404l-0.0275,0.022c0.01891,0.01725 0.0377,0.03465 0.05636,0.05222c0.19457,0.05035 0.3842,0.11021 0.54779,0.21158c0.54918,0.34029 1.4533,1.0169 2.37718,1.87288c0.28141,-2.15502 -0.12278,-4.7282 0.74104,-6.7623c0.18878,-0.44453 0.50238,-0.9548 0.89007,-1.49464c0.08762,-1.00781 0.18716,-2.01645 0.31206,-3.02558c0,0 0.21706,-1.73649 1.95355,-1.51943c0.12551,0.01569 0.24081,0.03931 0.34673,0.06965c0.31625,-0.45327 0.8416,-0.74983 1.43621,-0.74983c0.9665,0 1.75,0.7835 1.75,1.75c0,0.18094 -0.02746,0.35546 -0.07844,0.51963l-0.63536,2.22377c-0.11698,0.68716 -0.23395,1.37432 -0.35093,2.06149c-0.80423,2.01057 -0.67816,3.9771 -0.91581,5.96783c0.09743,-0.10751 0.1972,-0.213 0.29969,-0.31614c0.88391,-0.88955 1.88182,-1.60748 2.92176,-2.26314c1.13061,-0.95213 2.3846,-1.81737 3.6527,-2.61187l-0.01013,-0.00811l1.32323,-1.65404c0.3204,-0.40761 0.81794,-0.66941 1.37662,-0.66941c0.9665,0 1.75,0.7835 1.75,1.75c0,0.24378 -0.04985,0.47592 -0.13991,0.68678l-0.65193,1.62982l-0.22733,-0.09093l-0.02097,0.52158c-0.83635,0.61818 -1.74661,1.17824 -2.66652,1.73542c-1.30963,1.0087 -2.83393,2.12104 -2.89675,2.17272c-1.65706,1.36313 -1.85774,3.17106 -3.07447,4.72063c-0.19946,0.25403 -3.22955,2.65769 -3.64558,2.99051l-0.7358,0.24424c-0.14335,1.52097 0.06199,3.09405 -0.34917,4.56303c-0.60256,2.15284 -1.36222,4.68237 -2.20878,7.04954c-0.43099,2.55049 -0.92294,5.10043 -1.8984,7.55431c-0.69927,1.07614 -1.05599,2.4276 -1.33648,3.82886c2.90841,2.64766 5.06927,5.90339 6.82728,9.39845c1.70663,-0.1839 3.42124,-0.27571 5.13046,-0.41564c1.77753,-0.14553 3.8778,0.38665 5.60316,-0.25352c6.41085,-2.37864 12.96734,-5.09834 17.30374,-10.57322l1.74948,-1.41283c1.04186,-0.9858 2.33094,-1.67979 3.5246,-2.47737c1.30748,-0.87365 1.33066,-1.64546 2.19322,-2.87141c1.59264,-2.26359 3.58973,-3.76115 4.88802,-6.149c1.33185,-2.44958 3.49997,-4.55268 3.80319,-7.30935l-0.00286,-1.21825c-0.00101,-0.21946 -0.00154,-0.4387 -0.00154,-0.6577c0,0 0,-1.75 1.75,-1.75c1.75,0 1.75,1.75 1.75,1.75c0,6.63494 0.52923,13.53305 -0.00596,20.14434c-0.50739,6.26791 -3.20575,12.30226 -4.07364,18.37745c-2.31066,4.60821 -2.25373,11.35667 -2.25373,16.47821v1.66667c0,2.87881 0.20867,6.09899 -0.75245,8.87451c-0.05749,0.16603 -0.11932,0.32473 -0.18495,0.47707c2.03213,0.87466 4.22852,2.02894 5.54633,3.54579c0.87843,1.01111 1.50559,2.42855 1.87105,4.01291c0.18504,-0.16695 0.36916,-0.33466 0.55075,-0.50447c0.06428,-0.31561 0.11451,-0.63437 0.14945,-0.9562c0,0 0.14296,-1.14371 1.12504,-1.45872c0.24973,-1.87561 -0.13318,-4.3911 -0.1385,-5.63177c-0.07483,-0.31321 -0.05588,-0.68397 0.15792,-1.09965c0.12498,-0.30724 0.34882,-0.63714 0.74975,-0.83326c0.38558,-0.2248 0.78424,-0.22806 1.1092,-0.16162c0.04215,0.00478 0.0831,0.01069 0.12289,0.01767l0.10957,-0.18262l0.04401,0.02641l0.0198,-0.12508c0.10927,-0.12623 0.22315,-0.2527 0.34123,-0.37838c-0.58711,-1.09957 -0.59295,-2.20736 2.36856,-1.88742c1.73171,-0.93158 3.69016,-0.97932 5.24987,1.40262c0.52755,0.80565 0.60268,2.18796 0.56048,3.66927v1.27223c1.46941,3.60062 2.00135,8.11732 2.64286,11.96636c1.01778,6.10669 1.55431,13.71721 0.66788,19.90135c-0.71203,4.96745 -5.41751,10.92533 -9.33183,13.77708c-0.70172,0.51123 -1.406,0.94112 -2.114,1.31101c-0.7744,0.89497 -1.60224,1.71398 -2.48081,2.18763c-0.22283,0.12013 -0.82689,0.23973 -1.52619,0.3531l-0.25854,0.90489l-0.05779,-0.01651l0.00608,0.17016c-1.40059,2.75199 -1.272,5.63342 -2.7012,8.41582c-0.41425,0.80648 -0.52321,1.90262 -1.28199,2.39889c-0.74229,0.48548 -1.64621,0.51453 -2.56924,0.5053c-0.06098,0.09792 -0.12286,0.19599 -0.18572,0.29422l-1.99244,1.25198c0,0 -0.24017,0.1441 -0.58598,0.22092l-0.00001,-0.00002c-0.14816,0.12494 -0.2574,0.2068 -0.31135,0.22859c-0.41212,0.16643 -3.96604,0.13321 -4.6697,0.13321h-1.21529c0.03337,2.23972 0.02801,4.67762 -0.39064,6.53032c-0.24238,1.07264 -0.41009,2.34891 -1.25722,3.05012c-0.75922,0.62844 -1.49743,0.94906 -2.19909,1.03613c-0.27002,0.61812 -0.88678,1.0501 -1.60443,1.0501c-0.48325,0 -0.92075,-0.19588 -1.23744,-0.51256l-1.33333,-1.33333l0.3695,-0.3695c-0.20669,-0.19591 -0.40565,-0.39884 -0.59519,-0.60874c-0.72341,0.29077 -1.52194,0.5427 -2.4125,0.76322c-0.45678,0.11311 -1.16623,0.25538 -1.96004,0.33257c-2.02289,1.8014 -4.0792,3.41862 -6.73085,4.67265c-0.11506,0.14156 -0.23539,0.27937 -0.3605,0.41329c0.00677,0.07183 0.01031,0.14704 0.01031,0.22579c0,0.19874 -0.02257,0.3749 -0.06258,0.53107c0.14252,0.03533 0.28643,0.07255 0.43191,0.11183c4.13345,1.11584 8.63821,1.21578 12.46176,3.53169c4.6962,2.84447 8.64001,6.39375 13.97231,8.16522l0.72108,0.24036c0.25606,0.05425 0.47711,0.16455 0.64261,0.26928c0.16634,0.10038 0.36204,0.24719 0.52431,0.44942c2.45792,2.4341 4.79567,4.31775 7.58185,6.28146c3.0452,2.14627 5.34018,5.50342 8.33333,7.66667c1.30595,0.94385 2.95589,1.39165 4.15938,2.46308c4.06214,3.61641 7.00455,8.1935 11.31782,11.65262c1.46937,1.4834 2.87469,3.24333 3.97364,5.02747c0.17203,0.27929 0.76534,1.58433 1.3634,2.71365c0.25018,0.15215 0.43586,0.35485 0.55704,0.51551c0.76563,0.56327 1.48021,1.22303 2.09411,2.12731c0.1353,0.1993 0.24323,0.41191 0.33266,0.63357c0.43524,0.36774 0.8517,0.75328 1.21188,1.19324l0.38348,1.75988c0,0 0,0.48474 -0.25512,0.94398c1.004,1.42152 1.82533,1.3778 2.13692,3.42378c0.00098,0.00641 0.00195,0.01281 0.00291,0.01922l0.00386,-0.00145l0.98584,2.6289c0.08101,0.20157 0.12559,0.42169 0.12559,0.65223c0,0.9665 -0.7835,1.75 -1.75,1.75c-0.55868,0 -1.05622,-0.2618 -1.37662,-0.66941l-1.32323,-1.65404l0.10452,-0.08361l-0.27524,-0.1733c-0.46965,-1.38416 -1.0354,-2.65811 -1.65247,-3.88625c-0.25036,-0.2504 -0.37554,-0.50076 -0.37554,-0.50076l-0.13461,-0.35607c-2.07027,-2.59483 -4.28447,-5.16203 -6.86628,-7.25873c-3.01795,-1.31471 -5.20584,-3.5101 -7.82944,-5.44375c-2.38413,-1.75716 -4.98948,-2.79102 -7.36431,-4.69088c-1.98597,-1.58878 -4.2502,-4.10905 -6.61475,-5.09945c-5.12309,-2.14583 -11.53339,-2.70306 -16.25082,-5.62967c0.85595,2.13212 1.40718,4.35279 2.52403,6.57998l0.00006,-0.00006c2.72471,5.43352 5.45762,10.70456 8.3313,15.99595c2.25553,4.15317 2.39702,9.32467 3.16297,13.83231c0,0 0.0122,0.07321 0.0165,0.192c0.02537,0.34325 -0.01801,0.81973 -0.34587,1.21373c-0.19748,0.25659 -0.50347,0.47653 -0.97458,0.58198c-0.4657,0.12724 -0.83904,0.07602 -1.13362,-0.05835c-0.4741,-0.19481 -0.73538,-0.59562 -0.87357,-0.91085c-0.05178,-0.10699 -0.07525,-0.17741 -0.07525,-0.17741l-0.17375,-0.65303c-0.63421,-1.07541 -1.67211,-1.87621 -2.30408,-2.95294c-0.84699,-1.4431 -1.13313,-3.22838 -2.21533,-4.50461c-2.0394,-2.40506 -4.06759,-4.43631 -5.51404,-7.26736c-1.72447,-2.8713 -3.91152,-5.12518 -5.87625,-7.80601c-1.91051,-2.60685 -3.34575,-5.7958 -5.53134,-8.17073c-1.07895,-1.17242 -2.63298,-1.8444 -3.69565,-3.0316c-2.07996,-2.32367 -3.6527,-6.03738 -6.34379,-7.71799c-2.09486,-1.30827 -4.45413,-2.21247 -6.56432,-3.59886c-0.60416,-0.30611 -1.18116,-0.64422 -1.74288,-0.99884c-2.17207,-0.81274 -3.26716,-2.05712 -4.8732,-3.1704c-0.97319,-0.53768 -2.00284,-0.9919 -3.14658,-1.28752c-0.20144,-0.01839 -0.40442,-0.0288 -0.6078,-0.03363c-0.29439,0.40579 -0.75878,0.68024 -1.28862,0.7188l-3.47141,0.28928l-0.00614,-0.07364c-0.11645,0.02465 -0.23351,0.04699 -0.35123,0.06679c-0.73401,0.12346 -1.40979,-0.48034 -2.12629,-0.68195c-0.32492,-0.09143 -1.0362,-0.2616 -1.8415,-0.4599c-1.4049,-0.2311 -2.78488,-0.52248 -4.03057,-0.84106c-1.07254,-0.2743 -2.30882,-0.34901 -3.14097,-1.07915c-0.24047,-0.21099 -0.43833,-0.4367 -0.59977,-0.67391c-1.49815,-0.65127 -2.60638,-1.67753 -2.64428,-3.29179c-0.00588,-0.25062 0.10624,-0.54881 0.30525,-0.87449c-0.50874,-1.21706 -0.55497,-2.54862 -0.22011,-3.75293c-1.00818,-0.24031 -1.91562,-0.50589 -2.5552,-0.71238l-0.11327,0.0898c0,0 -0.17477,0 -0.41385,-0.05523c-0.34925,0.08246 -0.69384,0.18112 -1.03275,0.29876c0,0 -1.43957,0.47986 -2.08453,-0.79461c-0.60101,-0.03948 -1.20806,-0.11837 -1.8022,-0.11558c-2.97091,0.01395 -7.38607,0.57309 -10.1341,-0.86062c-1.55971,-0.81374 -2.43459,-2.04948 -2.90275,-3.48381c-0.12425,-0.09584 -0.23909,-0.20455 -0.34251,-0.32859c-1.70004,-2.03895 -1.17987,-3.02831 -0.16024,-3.75244l-0.16873,-0.0375l0.07312,-0.32902c-0.07416,-0.19401 -0.11479,-0.40461 -0.11479,-0.62469c0,-0.10937 0.01003,-0.2164 0.02923,-0.32022l0.32791,-1.96748l0.08126,0.01354c0.00892,-0.10878 0.01768,-0.21677 0.02619,-0.32389l-0.00865,-0.0455c0.00465,-0.00719 0.0093,-0.01438 0.01395,-0.02157c0.02154,-0.27376 0.04125,-0.54167 0.05738,-0.80232c0.32191,-0.25665 0.64381,-0.51329 0.96572,-0.76994c1.61583,-2.48221 3.20696,-4.98928 4.29882,-7.74589c0,0 0.01952,-0.04881 0.06027,-0.12613c0.00727,-0.01561 0.01416,-0.02989 0.02053,-0.04276c-0.52177,-0.30292 -0.87263,-0.86774 -0.87263,-1.51451c0,-0.48325 0.19588,-0.92075 0.51256,-1.23744l1.33333,-1.33333c2.97908,-2.97592 6.3058,-5.25895 9.57173,-7.86604c0.78153,-0.45469 1.37555,-1.16243 2.01742,-1.80996c0.40354,-2.71835 0.90948,-5.45157 1.63889,-7.92316c0.24259,-0.82201 0.52395,-1.62908 0.83273,-2.4256c-0.37266,-1.52485 -0.53241,-3.08542 -0.21738,-4.68481c0.61944,-3.14492 3.24935,-4.37073 5.2767,-6.4845c0.58358,-1.52187 1.75407,-4.86682 2.10122,-6.04876c0.35322,-1.20262 0.71156,-3.37816 1.24472,-4.85306c0.10914,-0.69966 0.21533,-1.39973 0.3154,-2.10098c-0.03054,-0.01757 -0.06112,-0.03547 -0.09174,-0.05372zM264.19698,191.34988c2.30625,-0.89736 4.88061,0.46901 7.05316,1.56005c0.85093,-0.29781 1.69117,-0.5808 2.51432,-0.84864c1.3205,-0.89367 2.66384,-1.75348 4.01464,-2.60085c-0.86302,-1.29629 -1.35283,-2.66785 -0.88154,-3.78235c0.02652,-0.06272 0.05657,-0.12255 0.08982,-0.17975l-0.34343,-0.66577c0.40694,-0.05569 0.81441,-0.10059 1.2224,-0.13595c0.17026,-0.09803 0.35104,-0.18742 0.53541,-0.27389l0.08593,-0.51559l0.74878,0.1248c0.18082,-0.09135 0.35461,-0.18847 0.51423,-0.29719c0,0 1.56525,-0.78262 2.34787,0.78262c0.01777,0.03553 0.03432,0.07066 0.04971,0.10538c2.49287,0.09833 5.00351,0.38962 7.52938,0.59987c1.57068,0.13074 4.11661,0.8863 5.68187,0.40246c0.47437,-0.14663 0.91572,-0.35804 1.32956,-0.61695c0.6498,-0.5717 1.30962,-1.13265 1.95476,-1.7091c0.80268,-0.89444 1.50277,-1.88824 2.17677,-2.74267c0.19993,-0.25345 0.40316,-0.49134 0.61032,-0.71521c0.05413,-0.08881 0.10936,-0.1766 0.16621,-0.26291c-0.15914,-2.11583 -0.14715,-4.27484 -0.14715,-6.61157c0,-0.04574 0,-0.09147 0.00001,-0.13718c-3.0226,1.38962 -6.54084,1.86511 -9.63637,2.86459c-1.2988,0.01123 -2.59764,0.01961 -3.89649,0.02194l-0.69392,0.33699c-0.27091,0.26841 -0.54372,0.51043 -0.81869,0.72859c-0.2151,0.73082 -0.49037,1.40912 -1.07339,1.85369c-0.97887,0.74642 -4.37283,0.37297 -5.83174,0.10809c-0.94987,0.00492 -1.93629,-0.02523 -2.96608,-0.02671c-1.43702,-0.00207 -3.47505,0.1236 -4.80077,-0.52729c-1.69699,-0.83318 -2.77156,-2.72075 -4.14628,-4.13151c-0.38287,-0.26084 -0.76237,-0.52749 -1.14324,-0.7933c-0.06416,0.29571 -0.14131,0.58677 -0.23364,0.87202c-0.33628,1.03877 -1.01048,1.94915 -1.3312,2.99283c-0.61302,1.99488 -0.57121,4.13651 -0.96337,6.18628c-0.68247,3.56713 -1.52806,7.10762 -2.35834,10.64758c0.75464,-1.10017 1.55968,-2.19286 2.64047,-2.61339zM301.99384,227.1581c-0.01541,0.01957 -0.03085,0.03906 -0.04633,0.05848c0.00311,0.32522 0.00378,0.66774 0.00365,1.03179c0.11248,-0.32581 0.09688,-0.701 0.04268,-1.09027zM313.44836,170.58833c-0.38795,-0.80187 -0.97446,-1.52623 -1.8333,-2.57239c-0.00668,2.19656 -0.03347,4.38871 -0.06914,6.57902c0.94822,-1.21229 1.77063,-2.48917 1.90243,-4.00663z" fill="#130c1f" stroke="none" stroke-width="0.5"></path><path d="M260.14905,166.54593c-0.92944,0.71822 -1.96792,0.54926 -2.43628,0.41676c-0.21144,0.02599 -0.42288,0.05197 -0.63431,0.07796c0.17903,1.19573 -2.10882,2.43537 -3.61559,3.16492c-5.01439,2.42784 -14.96708,3.1283 -18.61724,0.53886l-0.36965,-1.04532c1.22196,0.00912 2.47602,-0.07421 3.64627,-0.23166c2.86786,1.04242 6.49474,0.22968 9.6529,-1.07397c0.67955,-0.1582 1.27501,-0.35207 1.73323,-0.59402c0.47734,-0.25205 1.3077,-0.86449 2.19271,-1.41824c0.06505,-0.97918 1.76843,-1.18852 1.76843,-1.18852c1.56976,-0.19292 3.13952,-0.38584 4.70928,-0.57876l1.7741,0.33578c0,0 1.44288,0.63283 0.19617,1.59621z" fill="#b49fda" stroke="none" stroke-width="0.5"></path><path d="M309.31845,218.36475c-0.25551,0.20673 -0.61438,0.35192 -1.11843,0.35192c-1.75,0 -1.75,-1.75 -1.75,-1.75l1.75,-2.08333c0.5086,0.00163 1.20261,0.04266 1.91754,0.02748c0.01446,-0.46105 0.20725,-0.87714 0.51169,-1.18158v0l1.33333,-1.33333c-0.05147,-0.62643 0.82775,-0.95991 1.33333,-1.33333c2.27074,-1.67718 4.66897,-3.90287 4.9517,1.92264c0.04471,0.92127 -1.15727,1.43659 -1.74362,2.14858c-2.10332,2.55404 -4.19844,3.12967 -7.18554,3.23097z" fill="#b49fda" stroke="none" stroke-width="0.5"></path><path d="M260.83475,197.03782c-0.78262,-1.56525 0.78262,-2.34787 0.78262,-2.34787l0.85859,-0.20192l1.23644,-1.73102c0.3161,-0.45439 0.84211,-0.75181 1.43759,-0.75181c0.9665,0 1.75,0.7835 1.75,1.75c0,0.25857 -0.05608,0.50404 -0.15674,0.72492l-0.73476,1.71444c0,0 -0.56954,1.32894 -1.8812,1.05324l-0.94468,0.57265c0,0 -1.56525,0.78262 -2.34787,-0.78262z" fill="#b49fda" stroke="none" stroke-width="0.5"></path></g><g fill-opacity="0.08235" fill="#b69edb" stroke="none" stroke-width="0.5"><path d="M271.79825,91.17193c3.79473,1.26491 2.52982,5.05964 2.52982,5.05964l-0.71608,2.13958c-2.10355,5.56761 -3.7937,11.33302 -6.06938,16.83936c-0.63073,1.52615 -2.09972,2.71538 -2.3857,4.34178c-0.09521,0.5415 0.44589,1.07092 0.34885,1.6121c-0.00168,0.00938 -0.00337,0.01875 -0.00506,0.02813l0.00818,-0.00091l0.32692,2.94224c0.02038,0.16363 0.03088,0.33033 0.03088,0.49949c0,2.20914 -1.79086,4 -4,4c-1.10457,0 -2.10457,-0.44772 -2.82843,-1.17157l-2,-2l0.71769,-0.71769l-1.74412,-1.043c1.01124,-7.71334 1.83638,-14.65876 6.19333,-21.28654c0,0 0.74549,-1.11824 2.02041,-1.62623c0.6239,-1.74269 1.24796,-3.48744 1.8958,-5.22613l0.61725,-1.86042c0,0 1.26491,-3.79473 5.05964,-2.52982z"></path><path d="M261.77646,179.45881c-1.34919,4.99213 -2.59938,10.00654 -5.03125,14.69361c-1.20215,2.31696 -1.82068,5.05901 -3.63417,6.93643l-0.30018,0.60037c2.9399,-1.47679 5.40274,-3.36292 8.58357,-4.55699c2.76599,-0.61882 5.45884,-1.53374 8.11211,-2.57057c0.71916,-0.29908 1.95614,-0.80518 3.20641,-1.30815c1.25077,-0.52713 2.49566,-1.06591 3.73827,-1.59753c-0.53203,-0.59048 -0.91789,-1.44697 -0.91789,-2.68931c0,-4 4,-4 4,-4c1.77778,0 3.55556,0 5.33333,0h1.33333c0,0 1.12125,0 2.17647,0.59364c1.50001,-0.29029 2.93464,-0.92845 4.44316,-1.19612c1.07565,-0.19086 1.85937,-0.1868 2.58389,-0.13473c0.52531,-0.49336 1.09506,-0.98041 1.72981,-1.46279c0,0 0.95431,-0.71573 2.21149,-0.84433c-0.47816,-0.98501 -0.47816,-1.95567 -0.47816,-1.95567v-2.33333c0.01321,-1.11593 -0.04652,-2.68027 0.088,-4.22629c-0.01001,-0.02167 -0.02052,-0.04487 -0.03142,-0.06954c-0.66554,0.2913 -1.3849,0.45214 -2.13086,0.54763c-6.02181,2.25207 -11.97806,4.31854 -18.23238,5.94753c-3.07431,0.80073 -5.02757,2.33868 -8.52366,0.69067c-1.37795,-0.64954 -2.01102,-2.28886 -3.00245,-3.44546c-0.63371,-0.7393 -1.19355,-1.53793 -1.74876,-2.34018c-1.08807,1.57975 -2.40465,3.1178 -3.50868,4.72112zM244.2,201.96666c0,-0.18962 0.01319,-0.37615 0.03871,-0.55873l0.32551,-2.60407l0.24285,0.03036l-0.1576,-0.4911c2.39986,-6.52286 5.38643,-13.01296 8.23224,-19.34246c0.45369,-1.00908 1.00931,-1.9575 1.61677,-2.87554c0.65655,-2.50282 1.34268,-4.99705 2.23839,-7.42501c-0.0143,0.00387 -0.02861,0.0077 -0.04295,0.0115l-0.1606,0.25506c0,0 0,-0.07982 0.01127,-0.2169c-0.77014,0.18961 -1.59291,0.2809 -2.46496,0.25743c-4.9797,1.78272 -10.39766,4.10516 -15.51711,1.44026c-1.0689,-0.55641 -1.72748,-1.6837 -2.65001,-2.45898c-2.9918,-2.51425 -5.94783,-4.80676 -7.47094,-8.65274c-0.46544,-1.17528 -0.31811,-2.50878 -0.52757,-3.7554c-0.37029,-2.20383 -0.68134,-4.29706 -0.9139,-6.38626c-0.82259,-0.3594 -1.60718,-0.91354 -2.32954,-1.8222c-0.78034,-0.9816 -1.2626,-5.85297 -1.46285,-7.48999l0.0967,-0.24855h-0.10443v-3.23679c-0.81907,-1.28997 -1.45618,-2.62921 -2.13185,-4.04007c-1.48433,-0.5846 -2.53482,-2.0312 -2.53482,-3.72314v-3.33333c-0.01627,-0.01355 0.00688,-7.60813 0.02388,-7.7698c0.07779,-0.7397 0.19816,-1.47487 0.34266,-2.20768c0.30881,-4.96279 0.7855,-9.93475 1.32459,-14.79758c0,0 0.05621,-0.50587 0.30897,-1.13665c-0.00007,-0.02945 -0.0001,-0.05888 -0.0001,-0.08829v-2.33333c0,0 0,-4 4,-4c4,0 4,4 4,4v2.33333c0,2.83657 0.26592,5.84268 -0.01363,8.66326c-0.27854,2.81044 -1.15398,5.54615 -1.68539,8.30922c-0.1262,2.08393 -0.21838,4.16442 -0.26568,6.23012c0.02881,1.05054 0.04583,2.01446 0.00889,2.50571c0.62389,0.80491 0.83639,1.65489 0.83639,1.65489l0.03047,0.51462c1.60776,3.22001 2.60787,5.26983 5.11964,7.83516c0.27838,0.28432 0.63283,0.53865 0.99992,0.78823c2.39946,-0.76765 4.85405,-2.07557 7.32773,-2.15597c2.62421,-0.08529 5.2528,0.88711 7.59673,2.13291c1.26632,0.04257 2.70752,0.45041 4.3328,1.24075c0.55395,0.26937 0.93657,0.73032 1.24586,1.27326c0.01397,0.00955 0.02801,0.01919 0.04212,0.02891c6.0318,4.1552 9.31919,11.03888 10.51161,18.04755c0.53443,-0.99074 1.06673,-1.98218 1.75972,-2.86359c1.50912,-1.91943 3.54552,-3.36692 5.16318,-5.19581c0,0 1.63741,-1.84208 3.78759,-1.34905c0.63157,-0.41725 1.38844,-0.66016 2.20205,-0.66016c0.31858,0 0.62846,0.03724 0.92553,0.10761c5.16206,-2.58626 11.56888,-0.85305 16.61009,-4.15934c2.52983,-1.65919 3.96175,-4.43921 6.46884,-6.20055c1.37041,-5.82848 2.5069,-11.71414 4.15506,-17.53274c0.65468,-2.31127 1.96713,-4.38869 2.77394,-6.65136c0.68405,-1.91838 0.49699,-4.19466 1.62609,-5.88972c0.0506,-0.07596 0.10251,-0.15079 0.15566,-0.22452l-0.05846,-0.02505l0.96369,-2.2486c0.36422,-0.90618 1.05058,-1.64822 1.91731,-2.08436c0.34255,-3.10683 0.72513,-6.21352 1.16912,-9.32371c0,0 0.56569,-3.9598 4.52548,-3.39411c3.9598,0.56569 3.39411,4.52548 3.39411,4.52548c-1.009,7.0577 -1.65399,14.1024 -2.3126,21.1618c-0.1936,2.07517 -0.69848,4.10953 -1.15332,6.15343c-0.10613,3.02871 -0.27544,6.05847 -0.54388,9.07482c0.24583,0.51872 0.38334,1.09877 0.38334,1.71094c0,0.18962 -0.01319,0.37615 -0.03871,0.55873l-0.32551,2.60407l-0.39035,-0.04879c0.00133,0.13225 0.00266,0.2645 0.00399,0.39676l0.12605,0.65416c-0.03933,0.05574 -0.07866,0.11135 -0.11801,0.16682c0.07073,7.53955 0.0208,15.07032 -2.96208,22.01791c-0.18761,0.37544 -0.38033,0.74266 -0.57753,1.10285c2.16636,1.54589 3.00563,4.32451 4.84864,6.21038c0.09898,-1.39441 -0.007,-2.8274 0.10498,-4.22248c-0.25251,-1.04291 0.02367,-1.93575 0.41939,-2.61391c0.31994,-0.71196 0.88117,-1.4511 1.86569,-1.85345c1.9209,-1.48519 2.49574,-3.13466 3.71111,-5.51896l0.46579,-0.24445l-0.17048,-0.14613l1.98308,-2.31359c0.73373,-0.8665 1.8296,-1.41658 3.05395,-1.41658c2.20914,0 4,1.79086 4,4c0,0.29717 -0.03241,0.58677 -0.09388,0.86546l-0.65047,3.25234c0.35129,4.94989 -3.3854,10.4075 -3.95229,15.37094c-0.41855,3.6646 -0.3712,7.73442 -1.46715,11.31082c-1.30623,4.26263 -5.19563,9.9655 -8.7079,12.6866c-2.74535,2.12694 -5.96195,3.31524 -9.27351,4.25496c-0.15299,4.11515 -0.45782,8.23241 -1.04999,12.28696c4.32626,-0.69519 9.05181,0.97742 8.46499,7.01529c-0.4524,4.65484 -5.86207,5.06026 -9.46706,5.62874l-0.22504,0.45007c-0.37418,0.74836 -0.64471,1.57544 -0.94249,2.38182c-0.09883,0.78609 -0.42578,1.50119 -0.91247,2.0769l-0.93599,1.12319l-1.17029,2.34059c-0.64138,1.35298 -2.01965,2.28865 -3.61646,2.28865c-1.58995,0 -2.96324,-0.92765 -3.60815,-2.27124c-0.93553,-0.34744 -1.86306,-1.12121 -2.27242,-2.75862c-0.57979,-2.31916 0.57293,-3.59881 1.59442,-4.25312c0.02318,-0.14986 0.05467,-0.29697 0.094,-0.44085l0.55524,-2.22096c0.00086,-6.16247 1.7163,-11.95921 2.68484,-18.00594c0.02165,-0.13516 0.04293,-0.27022 0.06388,-0.40519c-0.20724,0.26666 -0.41131,0.53299 -0.61138,0.79918c-3.07833,4.09558 -7.17017,6.78787 -10.51992,10.55777c-1.77099,1.99312 -3.31944,4.2088 -5.31283,5.97949c-1.39265,1.23707 -5.06047,3.85217 -6.3513,5.351c-1.2247,1.42205 -2.08882,3.12433 -3.26431,4.58733c-0.94865,1.18068 -2.02063,2.25001 -3.12777,3.28783c0.09455,0.02841 0.14685,0.04802 0.14685,0.04802c1.41562,0.6941 3.19097,0.91147 4.24686,2.08231c1.03384,1.14638 1.0417,2.90636 1.56255,4.35954l0.1143,-0.24866c0,0 1.05221,1.57831 0.62055,3.28575c0.01148,0.00522 0.02296,0.01043 0.03445,0.01565c6.07223,1.36076 12.01323,2.91649 17.82471,5.19913c0.86178,0.33849 1.66523,0.80463 2.46166,1.28584c1.07808,0.32436 2.162,0.61746 3.25321,0.85846c1.51399,0.33438 3.1318,0.27258 4.57518,0.83882c2.26111,0.88704 4.5011,2.13579 6.68677,3.53007c0.16925,0.0701 0.33808,0.14221 0.50648,0.2165l-0.62455,-0.34475c0,0 3.02097,0 3.81218,2.62537c1.72168,1.21435 3.39466,2.44315 5.00097,3.56941c1.81311,1.60652 3.59767,3.38208 5.44982,5.03507c0.82058,0.44136 1.6473,0.87316 2.45208,1.33443c1.62517,0.93149 2.89902,2.37297 4.37415,3.53012c2.16701,1.18794 4.44468,2.25598 6.52004,3.40896l2.22288,1.70649c0,0 1.11063,0.8885 1.47753,2.26815c2.91152,2.27121 5.7547,4.63973 8.60936,7.12048l1.11599,1.46851c0.64798,0.6746 1.29595,1.34921 1.94393,2.02381l1.36431,3.00017c0,0 1.57568,3.67658 -2.1009,5.25226c-3.67658,1.57568 -5.25226,-2.1009 -5.25226,-2.1009l-0.40732,-1.06782c-0.50031,-0.39792 -0.78276,-0.77452 -0.78276,-0.77452l-0.80514,-1.09216c-0.05221,-0.04869 -0.10442,-0.09739 -0.15662,-0.14608c0,0 -0.42729,-0.42729 -0.78363,-1.11578c-5.42634,-4.56575 -10.72117,-8.77752 -16.59364,-12.70908c-0.25006,-0.16741 -0.49129,-0.34739 -0.72654,-0.53581c-1.41537,-0.78573 -2.78975,-1.61783 -4.05528,-2.54322c-1.01581,-0.74279 -1.99976,-1.55429 -2.96443,-2.39979c-1.39083,-0.77294 -2.75236,-1.59237 -3.99826,-2.57395c-4.50447,-2.69196 -9.91363,-4.92186 -15.04071,-6.07547c-0.56354,-0.1268 -1.13771,-0.2013 -1.71418,-0.2634c0.37598,0.35567 0.74064,0.73184 1.0905,1.13591c3.02408,3.49265 4.87914,7.4741 7.38812,11.21132c2.59098,3.85937 5.02152,6.28913 6.64543,10.6551c0.89294,2.40073 1.67947,4.84144 2.62382,7.22242c0.45839,1.15572 1.58674,2.18626 1.47759,3.42477c-0.01772,0.20106 -0.04215,0.40076 -0.07254,0.59925l0.18794,-0.02349l0.32551,2.60407c0.02552,0.18258 0.03871,0.36912 0.03871,0.55873c0,2.20914 -1.79086,4 -4,4c-1.66295,0 -3.08889,-1.01479 -3.69233,-2.45889l-1.23455,-2.77774c-1.73979,-3.04506 -3.02747,-6.665 -5.02537,-9.48194c-1.67647,-2.36373 -3.87142,-4.48256 -5.24467,-7.06733c-1.56646,-2.94845 -1.03697,-3.75812 -2.43713,-6.87601c-1.26159,-2.80932 -2.02599,-2.76868 -3.51856,-5.37642c-0.71892,-1.25605 -0.69559,-1.88249 -1.08865,-2.55202c-0.96869,-0.80942 -2.05357,-1.52179 -3.10357,-2.25363c-1.09012,-0.40948 -2.26464,-0.66906 -3.35547,-1.06351c0,0 -3.22754,-1.17365 -2.61388,-4.33658c-5.63205,-0.46825 -11.34148,-1.3364 -16.09726,-4.33812c-1.07926,-0.6812 -2.095,-1.41996 -3.06334,-2.20422l-0.63115,0.52596l-0.03456,-0.04147c-0.08045,0.08566 -0.16201,0.1704 -0.24475,0.25417c-1.45275,1.47093 -8.30883,5.03511 -10.91997,3.82881c-2.20742,-1.01979 -3.71528,-3.3125 -4.81162,-5.48292c-0.67172,-1.3298 -0.24143,-2.97483 -0.21305,-4.46438c0.03898,-2.0461 0.26123,-3.96457 0.69686,-5.76943c-1.09483,-0.84953 -1.96303,-2.13554 -2.90551,-3.10639c-0.08708,-0.04103 -0.17408,-0.08233 -0.26104,-0.1239c-1.33716,1.35832 -4.01916,1.16733 -6.00118,1.49432c-3.2734,0.54004 -8.24311,-0.23961 -9.58564,-4.19075c-0.12572,-0.36999 -0.19914,-0.74554 -0.23228,-1.12537c-3.46142,-1.90397 -5.6296,-5.50258 -4.47575,-10.37395c0.25696,-1.08486 1.45293,-1.71082 1.99204,-2.68668c2.57619,-4.66325 4.83387,-9.09543 8.58657,-13.09251c1.50684,-1.60496 3.35905,-2.89594 4.69174,-4.64821c0,0 1.27861,-1.64393 3.17683,-1.63678c-0.4331,-0.63926 -0.68608,-1.41048 -0.68608,-2.24079zM249.99474,226.03509c1.26491,3.79473 -2.52982,5.05964 -2.52982,5.05964l-0.42234,0.13186c1.33268,0.67892 2.68669,1.36245 3.88715,2.20404c0.26599,0.18647 0.50926,0.40015 0.74098,0.62768c0.96326,0.34868 1.90733,0.67495 2.7702,0.98382c0.38009,-0.42456 0.78327,-0.84146 1.21029,-1.25107c0.15439,-0.21689 0.3091,-0.43106 0.4635,-0.64226l0.53807,-2.15228l0.06637,0.01659c0.00186,-0.09234 0.00459,-0.18472 0.00823,-0.27713c0.15458,-3.92365 4.09439,-7.61457 6.26119,-10.48731c1.96643,-2.6071 3.02311,-6.01934 5.12814,-8.49686c2.76864,-3.25855 6.92249,-5.27252 9.94852,-8.30697c1.14207,-1.14525 2.28896,-2.2902 3.44451,-3.42815c0.06037,-0.06672 0.12118,-0.13307 0.18247,-0.19902c0.08953,-0.09635 0.18754,-0.18399 0.29081,-0.26617c0.41207,-0.40423 0.82531,-0.80745 1.23987,-1.20938l-1.69792,1.2128l-0.05255,-0.07358l-0.03831,0.02554l-0.07658,0.16136c-0.25417,0.14535 -0.51055,0.29166 -0.7685,0.43908c-0.27083,0.94565 -1.47638,1.15564 -2.55362,1.48511c-1.63635,0.97995 -3.24975,2.02399 -4.67852,3.1712c-0.9066,0.72794 -1.52207,1.79593 -2.4847,2.44799c-3.3504,2.26946 -6.6978,3.02185 -9.84429,5.54856c-0.15375,0.12347 -0.30566,0.24918 -0.45591,0.37689c-0.84065,0.88048 -1.66676,1.78172 -2.52915,2.64355c-3.02324,3.0213 -5.92503,5.88728 -8.58239,9.12542c0.20571,0.31449 0.38713,0.68752 0.53431,1.12905zM285.53334,194.63333c0,0.03775 -0.00052,0.07538 -0.00156,0.11288c0.07195,-0.10109 0.14706,-0.20001 0.22593,-0.29636c0.31132,-0.38033 0.66157,-0.72341 1.02979,-1.04944c-0.3107,-0.09789 -0.63045,-0.23707 -0.93493,-0.43375c-0.2142,0 -0.44271,0 -0.68193,0c0.23287,0.50737 0.36269,1.07186 0.36269,1.66667zM310.86667,174.96666c0.70053,0 1.35899,0.18008 1.93163,0.49647c0.70372,-0.76724 1.43742,-1.55833 2.14508,-2.37406c-0.97845,-0.90364 -1.29061,-2.15227 -1.29061,-2.15227l0.9865,0.76941c-0.81784,-0.70335 -1.75255,-1.29017 -2.45352,-2.11006c-1.02756,-1.20188 -1.09141,-3.24424 -2.33073,-4.16398c-0.36653,0.51207 -0.73367,1.02679 -1.09882,1.54906c0.01857,0.01019 0.03708,0.02054 0.05552,0.03106c1.17778,0.67191 1.87053,4.79564 1.66802,7.97284c0.12733,-0.01222 0.2564,-0.01847 0.38693,-0.01847zM251.80816,158.20905c-0.02784,0.07686 -0.05647,0.15336 -0.08587,0.22949c0.09235,0.01626 0.1837,0.03219 0.27395,0.04781c-0.06225,-0.09269 -0.125,-0.18509 -0.18807,-0.2773z"></path></g><g fill-opacity="0.08235" fill="#b69edb" stroke="none" stroke-width="0.5"><path d="M221.7,107.55c4,0 4,4 4,4v2c0,3.88862 0.02406,7.77813 0,11.66667c-0.00279,0.45062 -0.10711,0.93886 -0.179,1.41713c1.52627,0.50479 2.3423,1.97363 2.3423,1.97363c1.37041,2.46906 2.78057,4.82906 4.38784,7.14666l2.03229,1.74196c0.17585,0.14891 0.33868,0.31273 0.48651,0.48952c1.70591,-0.53431 3.34029,-1.01131 3.68255,-1.05984c5.8337,-0.82729 11.78966,-0.2114 14.81198,5.47582c0.96638,1.81849 1.06533,4.20854 2.56423,5.62066c2.60423,2.45347 7.39985,4.76143 9.53714,8.28363c0.20707,-0.6378 0.53352,-1.22732 1.00213,-1.73639c1.50067,-1.63026 4.23455,-1.65562 6.44984,-1.60845c2.59654,0.0553 5.81148,3.53625 8.18155,4.60403c0.53514,0.2411 1.11062,0.44859 1.71078,0.63128c0.84021,-0.10184 3.37,-0.44851 4.45235,-0.5792l0.64965,-1.061c0.22408,-0.02464 0.44811,-0.05075 0.67199,-0.07852c0.23763,-0.12368 0.50774,-0.13676 0.79232,-0.10562c1.02028,-0.14592 2.0352,-0.3311 3.03577,-0.57352c1.78608,-0.89923 4.58867,-2.1173 6.07528,-3.58431c1.22098,-1.20489 1.63888,-3.01409 2.44116,-4.5303c2.48349,-4.69344 3.55563,-9.40781 5.49274,-14.29099c1.24883,-3.14814 2.52609,-6.20586 3.49951,-9.3429c-0.01115,-1.43148 0.04003,-2.85031 0.2319,-4.22744c0.71376,-5.12302 2.08086,-9.95908 2.93688,-14.92578c0.00423,-0.25892 0.00812,-0.51793 0.01169,-0.77701c-0.17225,-1.3834 -0.86977,-2.95565 0.03075,-3.90178c0.00082,-0.33362 0.00122,-0.66738 0.00122,-1.00128l0.8136,-1.356c0.16767,-0.6434 0.53005,-1.53741 1.30681,-2.17802l1.87959,-3.13264c0.42148,0.80784 0.88831,1.59676 1.35749,2.38469c3.49663,0.49234 3.30365,4.15888 3.30365,4.15888c-0.06041,1.04323 -0.15471,2.07114 -0.27521,3.08783c0.15453,1.72435 -0.09847,3.56096 -0.47344,5.36715c-0.22421,9.69407 -0.94675,19.34101 -2.91248,28.84528c0,6.38539 0,12.77078 0,19.15617l-2.55146,6.21618c0.72443,0.79133 1.42981,1.60018 2.11517,2.42487l0.0479,0.27277l0.09637,-0.06133l2.30124,3.61623c0.40799,0.61921 0.64855,1.35851 0.65721,2.15346c2.33358,0.91838 2.33358,3.71115 2.33358,3.71115l-0.25993,1.39253c0.02041,0.59687 -0.11784,1.14791 -0.29951,1.60459l-0.11802,0.6323c-0.00948,0.12957 -0.02513,0.25743 -0.04667,0.38329l-0.65572,4.26219l-0.08534,-0.01313c0.00227,0.13878 0.00291,0.27765 0.00179,0.41663c-0.00873,1.08786 -2.12628,5.12858 -2.62556,6.11046c-0.14187,0.27901 -0.2863,0.55605 -0.43364,0.8305l0.06984,0.01746l-0.64637,2.58549c-0.40423,1.78128 -1.99726,3.11103 -3.90086,3.11103c-2.20914,0 -4,-1.79086 -4,-4v-2.66667c-0.31387,-0.83163 0,-1.77778 0,-2.66667c0,-3.63084 -0.03903,-6.16909 1.32342,-9.57568l2.60991,-2.62432c0,0 0.13632,-0.10224 0.37379,-0.23638c-0.16653,-0.12185 -0.3233,-0.25627 -0.46888,-0.40186l-2.66667,-2.66667l0.02019,-0.02019c-1.58574,-0.95431 -2.8456,-2.23144 -3.23956,-4.03884c-0.05226,-0.23976 0.01953,0.5265 -0.12378,0.72569c-0.52417,0.72858 -0.93471,1.54703 -1.54448,2.20563c-0.05424,0.05858 -0.10886,0.11752 -0.16387,0.17679c0.11225,0.34476 0.18539,0.73623 0.20676,1.18075c0.30705,2.88779 0.4031,5.80409 0.41748,8.72584c-0.04177,0.23453 -0.06719,0.47472 -0.07503,0.71935c-0.00061,0.05552 -0.00141,0.11001 -0.00261,0.16321c-0.16517,7.29519 -0.18595,14.59575 -0.03906,21.89157c-0.08499,0.85102 -0.20331,1.69377 -0.36509,2.52446c-0.85613,4.3961 -1.46557,9.53114 -2.78385,13.79586c-0.56688,1.83388 -1.47751,3.55987 -1.93143,5.42492l-0.25411,1.92888c0,0 -0.56569,3.9598 -4.52548,3.39411c-3.9598,-0.56569 -3.39411,-4.52548 -3.39411,-4.52548l0.41256,-2.73779c0.5159,-2.02191 1.42523,-3.92338 2.06857,-5.90841c1.28365,-3.96071 1.70367,-8.77445 2.54948,-12.87081c0.1023,-0.49543 0.18458,-0.99816 0.25009,-1.50662c-3.52595,3.01021 -7.05264,6.01682 -10.58198,9.03247c-0.34646,0.52469 -0.73571,0.94533 -1.25111,1.06931c-0.11823,0.10108 -0.23646,0.20217 -0.35469,0.30327l-0.1999,0.02414l0.05838,0.08174l-2.29546,1.63961c-0.66205,0.48544 -1.47896,0.77212 -2.36283,0.77212c-0.30717,0 -0.60626,-0.03462 -0.89357,-0.10018c-1.23548,1.02204 -2.48049,2.03968 -3.53982,3.18856c-3.25173,3.52663 -6.2392,7.62557 -8.91228,11.47451c-0.26079,0.37551 -0.59804,0.6916 -0.9392,1.00396c-0.19422,0.44168 -0.37391,0.88713 -0.53772,1.33632c0.51598,0.67362 0.82258,1.51608 0.82258,2.43016c0,0.60943 -0.13629,1.18703 -0.38005,1.70397l-1.29804,2.92058l-0.03624,-0.01611l-0.00159,0.0987c-0.35774,0.63535 -0.6335,1.21079 -0.83474,1.74239c1.48859,0.85031 6.2804,3.31238 7.55617,3.97216l1.48097,2.78971c1.39203,0.27535 2.78795,0.57783 4.24129,0.85535c4.1411,0.79076 8.22771,2.10856 12.45075,2.63279c2.96475,0.36803 6.01217,0.54148 8.83054,1.53243c3.04786,1.07163 5.28677,2.90328 8.02427,4.48058l2.1748,2.24054c0.17396,0.07752 0.34706,0.14348 0.5186,0.18993c4.75966,1.28884 9.00277,2.62192 13.41564,4.79076c0.67839,0.05581 1.27681,0.29888 1.71957,0.53996c0.41745,0.21364 0.91229,0.53753 1.32436,1.00727c4.07798,3.52555 9.16574,5.64255 13.37445,9.11278l1.93436,1.91112c0,0 2.82843,2.82843 0,5.65685c-2.82843,2.82843 -5.65685,0 -5.65685,0l-1.39898,-1.42221c-4.18106,-3.53295 -9.15092,-5.70399 -13.37757,-9.14519l-1.18388,-0.34998c-2.73806,-1.37025 -5.30217,-2.58455 -8.2712,-3.3874c-0.79881,-0.216 -5.88979,-1.38379 -6.99484,-1.9226c-2.72197,-1.32719 -5.29505,-2.9402 -7.94257,-4.4103l1.76295,-0.80646c-0.67854,-0.36877 -1.37667,-0.69542 -2.10787,-0.9496c-0.65369,-0.22724 -1.32359,-0.39256 -2.00311,-0.51987c0.43647,0.64034 0.84245,1.28318 1.22986,1.92938c3.64651,3.15874 6.69556,7.06471 9.26825,11.52745c1.33378,2.31366 1.93866,5.00711 3.64437,7.13814c0.0266,0.03323 0.05325,0.06643 0.07995,0.09959c1.75087,1.69735 4.73209,4.41612 4.859,4.95436c0.07166,0.30392 0.12297,0.60945 0.15719,0.91633l0.23494,-0.07831l0.97047,2.91142c0.15198,0.42272 0.23479,0.87843 0.23479,1.35349c0,2.20914 -1.79086,4 -4,4c-1.41045,0 -2.6504,-0.73002 -3.36261,-1.83282l-1.96559,-2.94838l0.02261,-0.01507l-0.05486,-0.0341c-0.67368,-1.10024 -1.4237,-2.0737 -2.1847,-3.02749c-0.76974,-0.72873 -1.5435,-1.45509 -2.21487,-2.27285c-1.60439,-1.95421 -2.50263,-4.41533 -4.05945,-6.40764c-1.7241,-2.20638 -3.90944,-4.07995 -5.32938,-6.49334c-1.11012,-1.8868 -1.98951,-3.7119 -3.06311,-5.52153c-2.51267,-1.69058 -5.48706,-2.78243 -8.27074,-3.61548c0,0 -3.83131,-1.14939 -2.68191,-4.9807c0.09944,-0.33147 0.21895,-0.62566 0.35433,-0.88653c-2.70607,-0.56214 -5.55755,-1.03707 -8.27623,-1.31951c-1.03733,-0.10777 -2.07142,-0.25812 -3.11271,-0.3162c-0.8212,-0.0458 -1.81831,0.51006 -2.46741,0.00497c-0.86569,-0.67363 -1.37922,-1.67453 -1.90218,-2.66667h-1.76449v-0.2099l-0.43647,0.18602c-3.05416,-0.67543 -7.89127,-1.23378 -9.36459,-4.73034c-0.17844,-0.42349 -0.07296,-1.14983 0.18654,-2.00787c-0.05845,0.00588 -0.11695,0.01143 -0.17551,0.01663c-1.46113,0.12984 -2.85631,-0.6729 -4.27003,-1.06423c-0.99851,-0.2764 -1.96903,-0.63701 -2.92142,-1.04761c-2.34953,0.49616 -5.08528,-0.29511 -7.18281,-1.44546c-1.45313,-0.79695 -2.3685,-2.33345 -3.3805,-3.64592c-0.00308,-0.00399 -0.00615,-0.00799 -0.00923,-0.01198c-1.53018,-0.81283 -2.93025,-1.79193 -3.84486,-3.13648c-1.03606,-1.5231 -2.31607,-3.19916 -2.26542,-5.04055c0.05033,-1.82987 1.70174,-3.24164 2.53799,-4.87002c1.48266,-2.88711 1.94214,-4.45593 4.33095,-6.85341c0.45317,-0.45481 0.98729,-0.80881 1.54948,-1.12824c0.2314,-0.22367 0.49229,-0.41072 0.79267,-0.54701c0.26189,-0.11882 0.52836,-0.22164 0.79872,-0.31081l-0.13218,-0.21148l1.02624,-0.6414c0.08109,-0.22305 0.18145,-0.43684 0.29908,-0.63936l1.63138,-2.93648l0.11758,0.06532c0.05632,-0.17856 0.11801,-0.35579 0.18565,-0.53153c0.66458,-1.72663 2.93245,-3.26783 5.24084,-4.58729c-0.11116,-0.90815 0.07198,-1.64074 0.07198,-1.64074l0.2139,-0.36319c0,-5.64226 0.49959,-11.81103 3.17227,-16.94658c0.80843,-1.55339 2.13786,-2.81033 2.86569,-4.40308c2.32581,-5.0897 3.88235,-10.42825 6.38433,-15.4392c0,0 0.00082,-0.00163 0.00245,-0.00481c-0.79988,0.11237 -1.58826,0.26934 -2.34913,0.5373c-1.61773,0.56973 -2.75487,2.07733 -4.29259,2.83697c-4.00669,1.97933 -9.66606,3.12298 -14.04794,1.54745c-6.84356,-2.46063 -10.40895,-10.6889 -10.78873,-18.14009c-0.30774,-0.39517 -0.56526,-0.81535 -0.70745,-1.29295c-1.19989,-4.03023 0.09545,-6.1997 1.76851,-9.64391c0.00143,-0.00295 0.00286,-0.0059 0.00429,-0.00885l-0.99628,-0.5693l0.14223,-0.2489c-0.28307,-0.07077 -0.56311,-0.15535 -0.83956,-0.25634c-1.81558,-0.66327 -2.56683,-4.18411 -3.56308,-5.62889c-1.07393,-1.55745 -3.19445,-2.24214 -4.14295,-3.87901c-2.84652,-4.91235 -1.27875,-13.64636 -1.27875,-19.1265v-2c0,0 0,-4 4,-4zM259.66205,186.23299c-0.83447,1.75955 -2.19154,3.22627 -3.13431,4.93025c-1.61824,2.92482 -2.02591,6.62006 -2.12766,10.08034c1.32519,-0.84098 2.64731,-1.6864 3.93354,-2.58518c3.0888,-2.15837 5.74082,-5.35171 8.99817,-7.21879c2.12447,-1.21773 4.7329,-1.26607 7.12601,-1.78498c0.57026,-0.12365 1.13559,-0.27784 1.69841,-0.45027c-0.08023,-0.31591 -0.12287,-0.64682 -0.12287,-0.98769c0,-1.69661 1.05628,-3.14651 2.5471,-3.72796l3.91444,-1.63102l0.09907,0.23776c0.45048,-0.22361 0.91892,-0.40929 1.41083,-0.54535c4.51833,-1.24976 7.33553,4.33202 9.98825,6.38905c0.22559,0.17493 0.49066,0.31207 0.77448,0.42993c0.85083,-0.60655 1.64713,-1.30004 2.43742,-1.98084c0.33663,-0.28999 0.97454,-0.28718 1.13291,-0.70231c0.53223,-1.39514 -0.30448,-2.97606 -0.30448,-4.46927c0,-1.85799 0,-3.71597 0,-5.57396c-0.5827,0.35395 -1.16939,0.66371 -1.75615,0.91656c-10.00344,4.31078 -23.91424,3.84367 -31.11686,-4.90562c-2.01745,4.45446 -3.39505,9.14446 -5.49828,13.57935zM287.92855,195.17112l0.46813,-0.81922c-0.22916,-0.23079 -0.45399,-0.47188 -0.66428,-0.702l-2.12338,0.91002l-0.07127,-0.1663l-0.27739,0.29688c-1.20408,0.27226 -2.37852,0.64859 -3.54429,1.04703c-0.43596,0.66616 -1.0653,1.19434 -1.80828,1.50481l-3.1394,1.39529c-0.33164,0.97662 -2.00378,1.03729 -2.92938,1.62576c-1.01423,0.64481 -1.97931,1.36546 -3,2c-0.32405,0.20146 -0.65289,0.40434 -0.98573,0.60805c-2.78175,2.13517 -5.44078,4.26692 -8.9158,5.69058c-3.18237,1.43855 -6.42739,3.07959 -9.35888,5.12289c-1.54354,1.38353 -3.07052,2.78516 -4.67707,3.96457c-0.07962,0.08373 -0.15868,0.16801 -0.23717,0.25284c-0.20255,0.21892 -0.37997,0.45965 -0.54745,0.7088c-0.23315,0.62679 -0.61894,1.17932 -1.11219,1.61242c-0.09101,0.10297 -0.187,0.20149 -0.28948,0.29421c-0.0228,0.02063 -0.11986,0.08233 -0.27124,0.17467l-1.51658,1.26382l-0.12989,-0.15587l-0.14941,0.36857c-0.05324,0.0232 -0.10652,0.04847 -0.15979,0.07572c-0.2198,0.47655 -0.98271,0.92445 -1.21912,1.44449c-0.51931,1.14237 -0.76367,2.39601 -1.27329,3.54274c-0.19786,0.44523 -0.42487,0.88029 -0.68181,1.29608c0.58003,0.71145 1.97316,0.85228 3.0903,1.40335c1.36813,0.67487 3.74436,2.092 5.26576,3.8513c2.16394,1.36175 3.97482,2.56281 7.27205,2.87203l0.39602,0.41568l0.09961,-0.26562l0.50357,0.18884c0.40565,-1.01172 0.87595,-1.96642 1.41826,-2.7306c0.3631,-1.20179 1.50911,-6.03742 1.79588,-6.56679c0.37709,-0.69612 0.95018,-1.25589 1.50958,-1.8273c4.10472,-8.14366 11.182,-14.46524 17.52021,-20.79422c1.81726,-1.81461 3.50807,-3.75169 5.27953,-5.61104c1.06639,-1.11931 1.72245,-2.75647 3.10779,-3.44267c0.38002,-0.18823 0.76968,-0.3504 1.16674,-0.4926c0.05715,-0.12257 0.12032,-0.24176 0.18915,-0.35719zM281.29265,168.77764c-0.05644,0.01149 -0.11296,0.02267 -0.16955,0.03351c-1.81738,0.34832 -4.08445,0.19847 -6.29636,-0.33047c1.36052,0.63753 2.78345,1.01763 4.38453,0.76595c0.73562,-0.11563 1.42585,-0.27432 2.08138,-0.46899z"></path><path d="M269.68456,98.74369c3.47297,1.98456 1.48842,5.45753 1.48842,5.45753l-1.23765,2.15563c-1.33997,3.02535 -3.00032,5.31442 -4.68145,8.02891c-1.08789,1.7566 0.44722,4.99317 0.44579,6.55019c-0.00097,1.05575 -0.25909,2.06537 -0.66632,3.03232l0,2.2484c0,2.20914 -1.79086,4 -4,4c-2.20914,0 -4,-1.79086 -4,-4c0,-0.16743 0,-3.00153 0,-3.16896c-0.28023,-0.13783 -0.19072,-0.43068 0,-0.78031c0,-1.39985 0,-2.79971 0,-4.19956c-0.51916,-6.09597 3.41785,-10.0613 5.76468,-15.32469l1.42901,-2.51103c0,0 1.98456,-3.47297 5.45753,-1.48842z"></path></g><g fill-opacity="0.08235" fill="#b69edb" stroke="none" stroke-width="0.5"><path d="M296.16665,186.27085c0.33776,-0.20266 1.00779,-0.39227 1.73533,-0.48954c-0.97878,-4.61014 0.28926,-11.18049 0.26467,-11.66683c-0.02894,-0.57223 -1.12681,0.23067 -1.66484,0.42769c-1.31399,0.48117 -2.61834,0.98832 -3.93067,1.474c-2.14265,0.79297 -4.17628,0.70104 -6.18759,1.41714c-1.00491,0.35778 -0.99511,1.91927 -1.73084,2.69165c-1.77397,1.86231 -5.3372,0.25471 -7.5064,0.1459c-5.48674,-0.27522 -7.57625,-1.0926 -10.87411,-5.21493c-0.17878,0.15362 -0.37128,0.29171 -0.57542,0.41219c-0.70531,1.23429 -3.29513,2.32835 -4.28742,4.01157c-3.78182,6.41512 -5.39612,13.98996 -7.44798,21.05607c-0.72751,2.50536 -3.12958,7.13315 -5.79473,6.98509c-5.75099,-0.3195 -3.92355,-6.87786 -2.8461,-10.34888c2.57439,-8.29339 6.47035,-16.5472 9.80965,-24.61498c0.34447,-0.83224 1.46446,-4.71869 2.41466,-7.55178c-1.97458,1.4364 -4.59495,2.29458 -6.2562,3.55049c-4.40849,3.33282 -7.77511,5.39775 -12.5909,1.21516c-1.08065,-0.93856 -3.27511,-0.66645 -4.53528,-1.81206c-1.65292,-1.50266 -1.53185,-3.75371 -2.66018,-5.53184c-0.68614,-1.08129 -2.53927,-0.90323 -3.33566,-1.90609c-0.67456,-0.84945 -0.5,-3.48646 -0.5,-4.32882l-0.32771,-0.38233c-1.12962,-2.25923 -0.93092,-3.97739 -0.04255,-5.37067c-0.05584,-0.02801 -0.11203,-0.05815 -0.1686,-0.09047c-1.23614,-0.70637 -3.79433,-7.61031 -3.01304,-10.24094c-2.93085,-2.02893 -5.9892,-5.3398 -6.4481,-6.83677c-0.73422,-2.39504 -0.65584,-4.58686 -0.40337,-7.13651c0.14505,-1.46487 -0.45039,-4.50972 0.65337,-5.61349c7.47088,-7.47088 7.25,3.08231 7.25,6.94919c0.46474,0.15275 0.89188,0.38836 1.26395,0.68936c0.84429,0.13658 2.10209,3.53523 2.605,4.39826c1.34106,2.30134 4.31908,5.45293 2.94417,7.5013c0.02217,0.06982 0.04248,0.14047 0.06086,0.21189c4.91328,0.64729 6.99746,-0.65309 10.91487,1.67229c2.66757,1.58347 7.67982,5.99893 11.33952,10.2851c3.63464,2.0091 6.96734,4.52677 5.76072,9.35327c-0.00379,0.01517 -0.00764,0.03029 -0.01155,0.04537c0.09663,-0.02375 0.19137,-0.05262 0.28272,-0.09046c1.21002,-0.50121 4.11137,-3.01092 5.03266,-3.00802c3.17839,0.01003 6.40812,2.53041 9.18588,3.80497c4.2017,1.92791 11.54447,3.36414 16.0966,2.93748c0.81661,-0.07654 1.26733,-1.0422 1.92144,-1.53703c0.37557,-0.28411 4.59443,-1.89218 4.60317,-2.54932c0.02131,-1.60303 -0.43715,-7.47651 1,-8.91366c2.84051,-2.84051 4.15949,-2.49282 7,0c0.97342,0.85427 0.99251,5.1501 1,6.5c0.04895,8.82809 0.1477,17.65767 0.01616,26.48482c0.12248,8.00398 0.03256,16.01031 -0.01616,24.01518c-0.01575,2.58789 -1.30381,5.1258 -1.5,7.64826c-0.11002,1.4145 -0.63167,8.23342 -1.5,9.10174c-2.66667,2.66667 -4.33333,2.66667 -7,0c-0.92179,-0.92179 -0.50985,-3.67756 -0.38057,-4.72772c0.50895,-4.13422 2.3728,-8.41821 2.38057,-12.67139c0.00791,-4.32823 -0.03408,-8.65684 -0.05289,-12.98523c-0.57369,0.58033 -1.1664,1.14378 -1.77356,1.69552c-0.05216,-0.12709 -0.11094,-0.2556 -0.17675,-0.38544c0.57037,-0.97397 1.12961,-1.94417 1.69066,-2.87826c0,0 2.57248,-4.28746 -1.71499,-6.85994c-0.26694,-0.16016 -0.52723,-0.29374 -0.78067,-0.40341c0.2617,-0.18898 0.53067,-0.36761 0.80819,-0.53413z"></path><path d="M231.3,221.95l0.07768,-1.78446c1.46609,-6.69594 5.85798,-9.37401 11.63347,-12.29324c0,0 3.57771,-1.78885 5.36656,1.78885c1.78885,3.57771 -1.78885,5.36656 -1.78885,5.36656c-3.26236,1.60923 -6.6241,2.85057 -7.33575,6.53597c0.19118,0.28842 0.34597,0.60307 0.4578,0.9374c0.07188,0.14838 0.12583,0.30747 0.15859,0.47921c0.01259,0.06599 0.01538,0.148 0.01001,0.2432c0.02449,0.17896 0.03714,0.36169 0.03714,0.54737c0,0.87818 -0.283,1.69026 -0.76277,2.35002c-0.17344,0.62636 -0.28626,1.13313 -0.19917,1.28118c0.45083,0.76642 2.83501,1.72583 3.35198,1.96668c4.28768,1.99754 7.90477,3.64657 11.90027,6.10082c0.57054,0.35046 1.3849,1.05961 1.99425,1.88325c0.16721,-0.31832 0.32514,-0.66285 0.47147,-1.0383c0.23119,-0.59315 0.4987,-2.325 0.98999,-3.80075c-0.03157,-0.55355 0.00646,-1.1301 0.1234,-1.71305c1.04615,-5.21492 4.32662,-10.75858 7.73057,-14.72986c0.79284,-0.92498 2.44533,-1.08158 3.15331,-2.05248c1.05405,-1.44549 2.01206,-2.71328 3.0007,-3.88462c-0.00076,4.86186 1.43755,6.67952 5.01793,6.59819c-0.58929,0.75287 -1.1365,1.47727 -1.62996,2.1589c-1.05282,1.4543 -2.84206,1.79863 -3.9304,2.99634c-1.85412,2.04046 -4.2414,6.48984 -5.18752,9.27978c-0.18796,0.55426 -0.1791,1.46127 -0.24378,2.30462c0.0359,2.33679 -1.30996,5.6645 -1.46874,7.62904c-0.0056,0.06934 2.40636,1.17403 2.62638,1.41605c0.2625,0.28875 0.48973,0.59783 0.68259,0.92264c0.22751,0.00259 0.45758,0.06256 0.69013,0.19244c0.03905,0.02181 0.07814,0.04359 0.11725,0.06534c0.51141,0.15736 0.97911,0.41449 1.38038,0.74869c10.07318,5.33052 21.87517,8.76922 32.54013,12.52713c5.32898,1.87772 11.71263,3.30861 16.37038,6.71973c3.69321,2.70473 19.75262,6.61693 12.5312,13.0782c-1.70315,1.52388 -12.45802,-3.10189 -14.4688,-4.6718c-4.11501,-3.21278 -10.03167,-5.79481 -16.37026,-8.03195c0.06628,0.05768 0.13256,0.11493 0.19882,0.17172c4.08012,3.49674 7.1596,7.11814 8.97918,12.13779c0.4177,1.15231 1.95218,2.06924 1.43598,3.61785c-1.19257,3.57771 -2.68328,4.32306 -6.26099,3.1305c-2.18011,-0.7267 -2.61614,-4.79974 -3.55135,-6.48467c-2.205,-3.97267 -6.91199,-7.53156 -10.53903,-10.55679c-0.15232,-0.12705 -4.25844,-2.81388 -6.64154,-4.98339c-0.47486,-0.31698 -0.87807,-0.73286 -1.18021,-1.21819c-0.36161,-0.45418 -0.54851,-0.83911 -0.47508,-1.10835c-0.0357,-0.13831 -0.06419,-0.27951 -0.08504,-0.42319c-2.02452,-0.6326 -3.943,-1.2567 -5.69927,-1.88394c-3.67422,-1.31222 -7.34165,-3.13732 -10.70906,-5.04165c-2.33258,1.19677 -5.76647,0.52264 -8.32431,0.04834c-1.23424,-0.22887 -2.05457,1.84299 -3.30904,1.79774c-1.34284,-0.04844 -2.54985,-1.04985 -3.5,-2c-0.48591,-0.48591 -0.42806,-1.31659 -0.5,-2c-0.31722,-3.01363 0.07991,-4.79196 0.83106,-6.06589c-0.10359,-0.0256 -0.20928,-0.05228 -0.31713,-0.08001c-1.84631,-0.47461 -4.25007,-3.43289 -6.28477,-4.18952c-0.21931,-0.08155 -3.13403,1.57362 -3.75902,1.71599c-2.82747,0.64405 -7.57102,0.91464 -10.259,-0.80286c-5.61246,-3.58612 -2.89373,-11.63017 0.94561,-14.8044c0.28991,-0.23968 0.42599,-0.61308 0.5029,-1.04244c-0.52631,-1.01694 -0.52631,-2.05172 -0.52631,-2.05172z"></path><path d="M256.71939,116.49071l0.09886,-0.05649c0.18684,-0.74996 0.46067,-1.47409 0.8484,-2.16337c1.41613,-2.51752 2.71564,-3.11439 3.62652,-6.27866c0.70843,-2.461 0.25228,-5.72134 4.37348,-5.72134c6.83869,0 2.7351,13.2719 0.45429,15.93284l-0.14568,0.58272c0.23025,0.84424 -0.80121,1.18166 -0.80861,1.88354c-0.02638,2.50327 1.11659,17.96748 -7.5,9.35089c-0.40773,-0.40773 -0.46567,-1.05587 -0.48851,-1.65961c-2.4251,-3.44148 -1.80689,-11.10016 -0.45875,-11.87052z"></path><path d="M321.90028,97.50096c0.99582,2.49834 -0.06639,6.70051 -0.34047,9.19724c-0.84303,7.67985 -2.08091,16.82497 -5.27863,23.9458c-1.33594,2.97493 -0.65719,9.62684 -5.36453,9.62684c-3.06926,0 -4.54666,-3.04005 -4,-5.5c1.25688,-5.65595 3.92453,-11.08337 4.75,-16.81022c0.50559,-3.50765 0.85013,-6.78967 1.59525,-10.3075c0.22283,-1.052 0.41144,-5.78278 0.9058,-8.72482c0.01246,-0.54873 0.13542,-1.07017 0.3475,-1.54295c0.62522,-1.39374 2.02497,-2.36451 3.65145,-2.36451c1.4946,0 2.79774,0.81972 3.48438,2.0341c0.09996,0.13498 0.18417,0.28274 0.24925,0.44601z"></path><path d="M315.84175,162.91336c3.55077,1.02566 5.33855,11.35749 -0.6751,11.35749c-1.34371,0 -2.54985,-1.04985 -3.5,-2c-1.04109,-1.04109 -0.88328,-2.82228 -1.54172,-4.13917c-0.29265,-0.55585 -0.45828,-1.189 -0.45828,-1.86083c0,-0.06959 0.00178,-0.13876 0.00529,-0.20747c0.09127,-2.37576 1.21169,-3.29997 2.59252,-3.53986c1.16063,-0.20164 2.50523,0.08018 3.57729,0.38985z"></path><path d="M276.80409,188.23139c-0.57604,-0.59244 -1.00408,-1.47289 -1.00408,-2.78139c0,-4 4,-4 4,-4l5.57771,2.21115c0.44163,2.29726 2.40554,4.81702 1.32489,6.89178c-0.95469,1.83293 -3.93507,1.26472 -5.9026,1.89708c0,0 -4,0 -4,-4c0,-0.07424 0.00138,-0.1471 0.00408,-0.21861z"></path></g></g></g></svg>