<svg version="1.1" xmlns="http://www.w3.org/2000/svg" xmlns:xlink="http://www.w3.org/1999/xlink" width="54.49689" height="35.55168" viewBox="0,0,54.49689,35.55168"><g transform="translate(-239.26532,-162.22416)"><g stroke-miterlimit="10"><path d="M241.03309,180l16.26346,-16.26346l33.59679,16.26346l-33.59679,16.26346z" fill="#0a0610" stroke="#cbadff" stroke-width="2.5"></path><path d="M258.38318,186.79256c0.00754,0.03166 0.01587,0.06285 0.02496,0.09359c0.27655,-0.12972 0.55266,-0.26756 0.82848,-0.41239c-0.53456,-0.08464 -0.94757,-0.07649 -0.85344,0.31881zM247.0751,183.41171c-0.59488,-0.04694 -1.18943,-0.0934 -1.78363,-0.13907c0,0 -2.49264,-0.19174 -2.30089,-2.68438c0.19174,-2.49264 2.68438,-2.30089 2.68438,-2.30089c8.10232,0.62383 16.28653,1.42 24.4498,1.50133c2.41402,-1.12134 4.93754,-1.72218 7.65263,-1.16922c0.53917,-0.1901 1.07478,-0.29959 1.60417,-0.13754c0.23689,0.07251 0.46767,0.15823 0.69333,0.25501l0.04038,-0.11442l1.53479,0.54169l1.25441,0.12544c1.27708,0.11199 2.27874,1.18419 2.27874,2.49034c0,0.06732 -0.00266,0.13402 -0.00788,0.2c0.00522,0.06598 0.00788,0.13268 0.00788,0.2c0,1.1246 -0.74256,2.07576 -1.76412,2.38994l-2.24816,0.74939c-1.69452,0.77074 -3.51728,1.22265 -5.27855,1.8261c-4.70453,1.61188 -8.71983,4.89323 -13.64254,6.06951c-2.41104,0.57612 -4.1198,0.16677 -6.49632,-0.13196c-0.53434,-0.00253 -1.18015,-0.15417 -1.6881,-0.728c-0.35017,-0.32486 -0.63569,-0.79438 -0.68288,-1.46987c-0.06822,-0.39022 -0.04031,-0.73163 0.04701,-1.02778c-1.74906,-1.08348 -3.35424,-2.27015 -5.11217,-3.44958c-0.48214,-0.22034 -0.98105,-0.61901 -1.20808,-1.34034c-0.19222,-0.4404 -0.27224,-0.98836 -0.04339,-1.61931c0.00299,-0.01222 0.00605,-0.02435 0.00919,-0.03639z" fill-opacity="0.54118" fill="#514566" stroke="none" stroke-width="0.5"></path></g></g></svg>