<svg version="1.1" xmlns="http://www.w3.org/2000/svg" xmlns:xlink="http://www.w3.org/1999/xlink" width="345.575" height="86.75" viewBox="0,0,345.575,86.75"><defs><radialGradient cx="417.50001" cy="180" r="43.375" gradientUnits="userSpaceOnUse" id="color-1"><stop offset="0" stop-color="#ffffff" stop-opacity="0.45098"></stop><stop offset="1" stop-color="#ffffff" stop-opacity="0"></stop></radialGradient><radialGradient cx="417.50001" cy="180" r="15.36299" gradientUnits="userSpaceOnUse" id="color-2"><stop offset="0" stop-color="#ffffff" stop-opacity="0.42745"></stop><stop offset="1" stop-color="#ffffff" stop-opacity="0"></stop></radialGradient></defs><g transform="translate(-115.3,-136.625)"><g stroke-miterlimit="10"><path d="M374.12501,180c0,-23.95535 19.41965,-43.375 43.375,-43.375c23.95535,0 43.375,19.41965 43.375,43.375c0,23.95535 -19.41965,43.375 -43.375,43.375c-23.95535,0 -43.375,-19.41965 -43.375,-43.375z" fill="url(#color-1)" stroke="none" stroke-width="0" stroke-linecap="butt"></path><path d="M402.13702,180c0,-8.48475 6.87824,-15.36299 15.36299,-15.36299c8.48475,0 15.36299,6.87824 15.36299,15.36299c0,8.48475 -6.87824,15.36299 -15.36299,15.36299c-8.48475,0 -15.36299,-6.87824 -15.36299,-15.36299z" fill="url(#color-2)" stroke="none" stroke-width="0" stroke-linecap="butt"></path><g fill="none" stroke-opacity="0.61569" stroke="#ffffff" stroke-width="1" stroke-linecap="round"><path d="M143.80001,180h50.5"></path><path d="M217.13335,180h19"></path><path d="M263.46668,180h3"></path><path d="M115.80001,180h4.5"></path></g></g></g></svg>