<svg version="1.1" xmlns="http://www.w3.org/2000/svg" xmlns:xlink="http://www.w3.org/1999/xlink" width="134.99999" height="307.63333" viewBox="0,0,134.99999,307.63333"><g transform="translate(-213.40003,-36.4667)"><g stroke-miterlimit="10"><path d="M311.89621,128.7113c0.35302,0 0.67834,0.02769 0.97815,0.07874c0.50686,-0.69004 1.31761,-1.29117 2.59711,-1.61104c4.36564,-1.09141 5.45705,3.27423 5.45705,3.27423c0.39182,2.78329 2.95872,3.46272 4.31337,6.05399c2.09948,4.01604 2.96193,9.2332 4.54147,13.47616c0.71883,1.93092 3.65556,5.60401 3.7325,7.52437c0.11073,2.76367 1.12528,6.6361 -1.1432,8.21855c-5.55855,3.87752 -10.06753,-2.26675 -13.70907,-4.60789c-1.26856,-0.81555 -2.82765,-1.35707 -3.7231,-2.57055c-1.44702,-1.96093 -1.49478,-4.65048 -2.50185,-6.86971c-2.27559,-5.30913 -2.69018,-10.92669 -4.7559,-16.22011l-0.28652,-2.24672c0,0 0,-4.5 4.5,-4.5z" fill-opacity="0.34118" fill="#b39ed9" stroke="none" stroke-width="0.5"></path><g><path d="M251.4097,221.82125l-0.23591,-2.35908c-0.3574,-0.73842 -0.57528,-1.55048 -0.71892,-2.39965c-1.71324,-4.81384 -3.22625,-9.70404 -4.90981,-14.5185c-1.21541,-2.01976 -2.03044,-4.16987 -2.59461,-6.40695c-0.6358,-0.45326 -1.05041,-1.19675 -1.05041,-2.03707v-2.49976c-0.31396,-0.41787 -0.5,-0.93733 -0.5,-1.50024c0,-0.18573 0.02025,-0.36673 0.05867,-0.54091l0.47193,-2.35964c0.37145,-3.67871 1.36567,-7.14399 2.00608,-10.77614c0.14448,-0.81941 0.28374,-1.64642 0.42091,-2.47861c0.31981,-2.24736 0.71606,-4.48599 0.79425,-6.44065c0.25196,-6.29888 0.23723,-12.5742 0.75679,-18.86167l-0.00864,-1.79239c0,0 0,-0.18291 0.04948,-0.44978c-0.56744,-0.56378 -1.13155,-1.12192 -1.69386,-1.67522h-0.85562c-2.8125,-0.02737 -5.54563,-0.89581 -7.85347,-2.38349c-2.96652,-0.7991 -4.90982,-2.54088 -6.258,-5.73692c-0.47757,-1.13215 -1.14624,-3.33853 -0.10524,-4.5884c-0.0013,-0.01773 -0.00256,-0.03547 -0.00378,-0.05322c-1.06696,-1.11298 -1.92363,-2.5124 -3.10072,-3.68798c-4.26956,-4.2641 -6.73612,-8.36 -8.37308,-14.145c-0.70654,-2.49692 -2.02569,-4.20744 -2.05571,-6.905c0,0 0,-1.5 1.5,-1.5c0.3851,0 0.67134,0.09887 0.88408,0.24584c0.91008,-1.05623 2.03683,-0.17987 2.03683,-0.17987c1.61406,1.26284 2.95323,2.71414 4.39235,4.09615c-0.064,-0.50383 -0.06068,-1.01876 -0.00389,-1.5397c-1.33034,-1.64636 -2.54538,-3.60656 -2.30898,-4.82314c0.04207,-0.21648 0.11768,-0.41736 0.2181,-0.60669l-0.06013,-0.03006l0.42191,-0.84381c-0.05203,-0.15224 -0.08027,-0.3155 -0.08027,-0.48537c0,-0.08088 0.0064,-0.16027 0.01872,-0.23768l0.23734,-1.66138c0.04887,-5.34389 1.85129,-10.06632 2.798,-15.25005c2.47747,-6.66005 3.86172,-13.51654 4.98875,-20.46039c-0.18403,-0.24905 -0.29282,-0.55708 -0.29282,-0.89051v-1.21673c-0.07333,-0.04739 -0.14485,-0.09815 -0.21432,-0.15269c-0.57757,-0.4534 -0.94895,-1.3251 -1.21263,-2.30003c-1.56091,-2.04302 -3.33472,-3.97213 -5.13371,-5.76989c0,0 -1.06066,-1.06066 0,-2.12132c0.15386,-0.15386 0.30772,-0.26308 0.45834,-0.33738l-0.33045,-1.15657c-0.0437,-0.14072 -0.06723,-0.29031 -0.06723,-0.44539c0,-0.82843 0.67157,-1.5 1.5,-1.5c0.67476,0 1.24546,0.44554 1.43396,1.05847l0.341,1.02301c0.78061,0.67417 1.57456,1.32727 2.41208,1.99721l0.09876,0.33707c0.74487,0.74898 1.13103,1.62791 1.41446,2.55487c0.20497,-1.443 0.53061,-2.86632 0.79973,-4.32249v-1.64814c0,-0.64201 0.40334,-1.18981 0.97044,-1.40385c0.01507,-0.10276 0.02996,-0.20552 0.04464,-0.30829c0,0 0.21213,-1.48492 1.69706,-1.27279c1.48492,0.21213 1.27279,1.69706 1.27279,1.69706c-0.05891,0.41221 -0.12117,0.82423 -0.18461,1.23622c0.27259,0.48835 0.17928,1.04825 0.17928,1.04825c-0.04519,0.27095 -0.08989,0.54194 -0.13414,0.81295c0.0279,0.12356 0.04859,0.2619 0.06331,0.41153c0.22394,-0.00658 0.47796,0.04523 0.76206,0.18728c0.12042,0.06021 0.22463,0.12583 0.31457,0.19539c0.04528,-0.02864 0.09029,-0.05747 0.135,-0.08652c0.70994,-0.89626 1.42722,-1.819 2.11334,-2.82133c0.7483,-1.09316 0.60846,-2.59123 2.00259,-3.30155c0.06925,-0.03528 0.13927,-0.06852 0.20998,-0.0999l-0.02835,-0.04252l1.48294,-0.98862c0.24143,-0.16608 0.53392,-0.2633 0.84911,-0.2633c0.82843,0 1.5,0.67157 1.5,1.5c0,0.35883 -0.126,0.68823 -0.33616,0.94637l-0.99254,1.24067l-0.00827,-0.00662l-0.00777,0.02633c-1.38255,1.59631 -2.13344,3.6249 -3.61184,5.12087c-0.47897,0.48467 -1.11545,0.87234 -1.77005,1.2489c-1.20189,1.5539 -2.20606,3.21325 -2.96429,5.00661c-0.2466,2.45126 -0.72034,4.76973 -1.35211,7.27355c-0.13892,0.55055 -0.26545,1.10405 -0.38164,1.66003c-0.12514,1.31406 -0.31979,2.60288 -0.61856,3.84081c-0.02974,0.12323 -0.06022,0.24642 -0.09139,0.36958c-0.72506,5.30117 -0.9932,10.72048 -2.4948,15.88242c-1.53251,2.45202 -2.30915,5.41334 -2.8341,8.40397c1.55672,-3.24873 3.72149,-6.22596 5.98072,-8.48l0.22997,-0.0727l0.45047,-0.78833l0.01254,0.00716c0.00876,-0.02405 0.01766,-0.04806 0.02673,-0.07202c2.37088,-6.26547 9.36159,-6.93393 15.0131,-6.94093c3.60234,-0.00446 6.6321,-0.37533 9.80095,1.5h1.44905c0.50688,0 0.95504,0.25142 1.22657,0.63635c0.37312,-0.85561 0.76816,-1.70151 1.2093,-2.52625c0.5327,-0.99591 1.54164,-1.73155 1.90827,-2.79981c0.82164,-2.39405 1.24994,-4.91107 2.27714,-7.31784c0.21968,-0.5125 0.4264,-1.05684 0.62872,-1.61848v-0.04064c0,-0.36985 0.13386,-0.70845 0.35577,-0.96997c0.68677,-1.98021 1.38136,-4.06299 2.4299,-5.66061c0.2989,-0.45543 0.94487,-0.59115 1.27063,-1.02777c0.13282,-0.17803 0.2624,-0.37072 0.38876,-0.5757c-0.35858,-0.22847 -0.61356,-0.60511 -0.67871,-1.04368l-0.23544,-1.41262c-0.27998,-0.97583 -0.53726,-1.94431 -0.789,-2.90787c-0.09129,-0.29655 -0.1694,-0.60522 -0.23932,-0.9189c-0.36068,-1.38623 -0.72122,-2.76379 -1.13318,-4.13994l-0.19757,-0.39513c-0.10974,-0.20845 -0.17185,-0.44587 -0.17185,-0.69781c0,-0.02907 0.00083,-0.05794 0.00246,-0.0866c-0.20354,-0.62854 -0.42088,-1.25721 -0.65695,-1.88671c0,0 -0.52669,-1.40449 0.87781,-1.93118c1.40449,-0.52669 1.93118,0.87781 1.93118,0.87781c0.31539,0.84106 0.59935,1.68113 0.86232,2.52154l0.65449,0.81811l-0.24127,0.19301l0.10525,0.21049c0.94575,0.84364 1.74969,1.73021 2.96976,2.71681c1.21929,-4.182 1.65348,-8.33825 3.65331,-12.35409c0,0 0.67082,-1.34164 2.01246,-0.67082c0.8049,0.40245 0.88547,1.04634 0.82111,1.49712c0.01079,0.1821 -0.007,0.30665 -0.007,0.30665c-0.35601,2.48137 -1.38721,4.81148 -1.74942,7.24592c-0.03049,0.20492 -0.05838,0.40935 -0.08472,0.61334c1.88146,-1.96415 3.79974,-3.8851 5.68872,-5.76345l0.2003,-0.05077l-0.03402,-0.05953l1.72713,-0.98693c0.22445,-0.13382 0.48678,-0.2107 0.76708,-0.2107c0.82843,0 1.5,0.67157 1.5,1.5c0,0.22163 -0.04807,0.43204 -0.13434,0.62136l-0.73694,1.71952l-0.0391,-0.01676c-0.02926,0.08981 -0.06164,0.17878 -0.09751,0.26682c-0.28759,0.7057 -2.89487,2.68305 -3.43687,3.22511c-2.69808,2.69838 -4.83372,5.91591 -7.93338,8.15454l-0.0612,0.09006c0,0 -0.23569,0.23569 -0.59596,0.37376c-0.03459,0.06317 -0.06836,0.12675 -0.10122,0.19081c-0.58205,1.1347 -0.50678,2.51364 -0.97766,3.6988c-1.42648,3.59022 -2.88497,8.05881 -2.91645,11.97757c-1.07699,2.56931 -1.03027,5.23665 -1.78373,7.88308c-0.64645,2.27059 -1.43733,4.55199 -2.18973,6.84297c2.13858,2.02081 3.92907,4.37831 5.18057,6.92516c0.21717,1.23036 0.2976,2.65882 0.59223,3.9161c2.24092,-0.27004 4.55869,-1.52216 6.88809,-1.69934c4.75131,-0.3614 9.79649,0.17084 14.39595,-1.18467c1.90703,-0.56202 3.86278,-2.37111 5.38882,-3.58173c0.68196,-0.3442 1.2229,-0.65775 1.66374,-0.96199c0.90586,-1.37347 1.99702,-2.61771 2.85642,-4.07743c0.13995,-0.28343 0.29471,-0.58696 0.47064,-0.91391c0.03991,-0.07417 0.08028,-0.14756 0.12103,-0.22024c0.02054,-0.04541 0.0408,-0.09106 0.06078,-0.13696c1.64185,-3.77237 0.66949,-9.38356 0.63666,-13.46978c-0.018,-0.09224 -0.02834,-0.19006 -0.02686,-0.29154c-0.04905,-0.14687 -0.09805,-0.29364 -0.14701,-0.44031c0,0 -0.47434,-1.42302 0.94868,-1.89737c1.42302,-0.47434 1.89737,0.94868 1.89737,0.94868c0.10539,0.31661 0.21131,0.63382 0.31765,0.95156l0.85349,1.10705c0.29935,1.13156 0.47961,2.22028 0.63034,3.30739c1.53735,4.5818 3.05427,9.21351 4.22328,13.71602c1.06007,4.08293 0.6822,8.76234 1.28894,12.94322c0.70641,5.71343 0.69041,11.83889 0.27405,17.78196c0.45282,0.20082 0.90243,0.43269 1.34546,0.68512c-0.85956,3.32995 -1.30636,6.676 -1.688,10.05148c-0.23501,-0.13391 -0.46814,-0.26984 -0.69967,-0.40743c-0.19123,0.28558 -0.51237,0.53824 -1.05169,0.58148c-0.83545,1.18961 -1.64309,2.3966 -2.39085,3.54511c-1.18973,1.82732 -1.45979,4.20434 -2.811,6.09108c-0.93632,1.3074 -2.17582,2.47101 -3.44823,3.55874c-0.67885,1.60869 -1.29994,3.34362 -2.32306,4.71993c-0.30285,0.4074 -0.68488,0.7387 -1.09285,1.04584c0.95923,0.448 1.92073,0.95944 2.99873,1.42086c3.50721,1.5012 7.73631,3.30764 10.47805,6.08154c1.27299,1.28792 1.94287,3.16736 2.8695,4.731l0.69367,-0.3083l0.17459,0.39284c0.71134,-0.37914 1.45964,-0.65612 2.24856,-0.76054l0.64114,-0.00626c3.55771,-0.94249 7.07883,-1.79054 10.1019,-4.17182c0.91586,-0.72143 1.66634,-1.96236 2.36389,-3.19321l-0.3439,-0.11463l0.48906,-1.46719c0.1885,-0.61294 0.7592,-1.05847 1.43396,-1.05847c0.69707,0 1.28308,0.47548 1.4514,1.1198l0.48417,1.69458c0.1165,0.34934 0.2309,0.69959 0.34289,1.05077c0.29973,-0.38707 0.60925,-0.75222 0.93043,-1.08323c0.69891,3.38554 1.55476,6.74697 2.36238,10.10849c-0.34307,0.37469 -0.68611,0.74969 -1.02982,1.12431c0.13219,1.23315 0.2055,2.47807 0.20852,3.73527c0,0 0,0.00038 -0.00001,0.00114l-0.00895,1.66254c-0.83488,3.81942 -0.67119,7.59446 -1.52403,11.39916c-1.00189,4.46964 -4.1408,9.50388 -7.04601,13.23915c0.34805,1.06705 -0.27727,2.10926 -0.27727,2.10926c-3.16577,5.18274 -8.26064,8.96195 -12.33069,13.43506c-3.15262,3.46483 -5.74365,7.49003 -9.06563,10.81659c-5.13955,5.14665 -10.77411,9.72475 -16.00934,14.75908c-1.92501,1.85114 -3.70804,3.81952 -5.57897,5.69735c0.44697,0.33523 0.89394,0.67045 1.3409,1.00568c0,0 0.02337,0.01753 0.06317,0.05133c0.04162,0.03152 0.06381,0.05053 0.06381,0.05053l2.12302,1.89814c0.48376,0.64501 0.96752,1.29002 1.45127,1.93503l1.41725,1.65406c6.71684,7.56204 13.29609,14.60116 18.30267,23.42158c3.00907,5.30128 6.82761,9.80132 9.14981,15.56038c0.00013,0.00031 0.00019,0.00047 0.00019,0.00047l0.4865,1.21694c4.98536,11.98066 11.43683,23.16034 15.97514,35.30701c0.43938,0.92403 0.82329,1.87258 1.12319,2.86771c1.26233,2.63104 3.21392,5.07113 3.48026,8.0414c0.00277,0.03084 0.00533,0.06168 0.00769,0.09252l0.01794,-0.00489l0.73493,2.69476c0.06712,0.22596 0.10316,0.46529 0.10316,0.71304c0,1.38071 -1.11929,2.5 -2.5,2.5c-0.95782,0 -1.78983,-0.53864 -2.20964,-1.32954l-1.22575,-2.20635c-0.94675,-1.71554 -1.73985,-3.51996 -2.41409,-5.35975c0,0 -0.02421,-0.06658 -0.05327,-0.18139c-0.0348,-0.11321 -0.0487,-0.18267 -0.0487,-0.18267l-0.28614,-1.49153c-0.0362,-0.47702 -0.10841,-0.94237 -0.21071,-1.39781c-0.24166,-0.48609 -0.46406,-0.98047 -0.64916,-1.49105c-0.26904,-0.74216 -0.54531,-1.48057 -0.82807,-2.21564c-0.90804,-1.66198 -2.0277,-3.24535 -2.97234,-4.86495c-2.31238,-3.96462 -4.1429,-8.31134 -6.49145,-12.23575c-1.59363,-2.66295 -3.85486,-4.83816 -5.32408,-7.6313c-1.19264,-2.26734 -2.40404,-4.54815 -3.78543,-6.71673c-0.76063,-0.5321 -1.49856,-1.08772 -2.11185,-1.77585c-3.45034,-3.87137 -6.3771,-8.26388 -9.55753,-12.31643c-1.21117,-1.54328 -3.62726,-1.67526 -5.04433,-3.03194c-1.08719,-1.04086 -1.5643,-2.5765 -2.29793,-3.9055c-0.99363,-0.85293 -1.97747,-1.71098 -2.93947,-2.58273c-0.88917,-0.80576 -1.60139,-1.7302 -2.27779,-2.67946c-0.42086,-0.42022 -0.82528,-0.85572 -1.20331,-1.31583c-0.83938,-1.02164 -1.55931,-2.0335 -2.3013,-3.01197c-2.11689,-1.88617 -4.69161,-3.29651 -6.83178,-5.11906c-1.35804,-1.15649 -2.42203,-2.24703 -3.49377,-3.2474c1.03598,1.28751 2.10993,2.55837 3.32566,3.77288c0,0 0.09196,0.09196 0.21295,0.2549c0.12537,0.15961 0.18989,0.27252 0.18989,0.27252l1.2413,2.33255c0.66304,2.72805 2.02008,3.68671 3.62894,5.96386c2.57313,3.64196 4.63543,7.42505 7.59059,10.79767c0,0 0.08177,0.09345 0.18803,0.25692c0.11106,0.16025 0.16659,0.27131 0.16659,0.27131l1.22518,2.45169c0.53615,0.97014 1.21636,1.87913 1.9039,2.78212c0.55634,0.53326 1.10762,1.07173 1.65262,1.61646l1.40284,2.27742c0,0 0.70971,1.24199 0.11596,2.38386c0.174,0.87409 0.35219,1.74704 0.72692,2.54506c0.48942,1.04227 2.38313,3.07781 3.11796,3.91517c0,0 0.03996,0.04567 0.10032,0.12901c0.0647,0.08001 0.09837,0.1305 0.09837,0.1305l0.65594,1.01872c1.29968,2.68939 3.57712,4.05359 4.96812,6.68839c1.01056,1.91418 1.03683,4.21917 1.85551,6.22294c1.46638,3.58901 4.14187,6.64759 5.52778,10.32003c0.84722,2.24499 1.47009,4.51882 2.09187,6.78006c1.40542,2.69814 2.66743,5.45919 3.27211,8.36633l0.27342,1.88674c0,0 0.00304,0.02129 0.00658,0.06019c0.07869,0.50978 0.05013,1.17699 -0.39972,1.7661c-0.25755,0.39379 -0.67174,0.74505 -1.33359,0.92228c-0.64505,0.23101 -1.18553,0.17797 -1.62144,0.0008c-0.70519,-0.22831 -1.10846,-0.76063 -1.33393,-1.22455c-0.01923,-0.03401 -0.02885,-0.05324 -0.02885,-0.05324c-1.61805,-3.24565 -2.55758,-6.60296 -3.50609,-9.98968c-1.01292,-1.87383 -2.09719,-3.70989 -2.99391,-5.51032c-0.89633,-1.79964 -1.70764,-2.87642 -1.67837,-4.0098c-0.22042,-0.16477 -0.39769,-0.35874 -0.53691,-0.54643c-0.01457,-0.01735 -0.02204,-0.02695 -0.02204,-0.02695l-1.75,-2.25l0.61296,-0.47675c-2.20552,-4.72507 -5.00012,-9.44357 -8.6989,-13.08289c-6.54028,-7.19204 -11.85765,-15.7456 -17.89078,-23.41089c-1.19574,-1.51922 -1.8113,-3.47294 -3.14264,-4.87486c-4.4347,-4.66979 -9.46359,-8.05854 -14.794,-11.60934c0,0 -1.12396,-0.74931 -1.1687,-1.97253c-1.36374,-0.73715 -2.72617,-1.48133 -3.85407,-2.48784c-3.40507,-3.03859 -5.64433,-6.21661 -10.58924,-6.63217c0,0 -0.57596,-0.0576 -1.14589,-0.3945c-1.52006,-0.44719 -2.89924,-1.01461 -3.55054,-1.27865c-0.24574,-0.09962 -0.52243,-0.21066 -0.82236,-0.33273c-3.41835,0.17565 -5.32185,-1.20738 -6.3888,-3.43157c-0.81861,-0.68316 -1.44548,-1.43472 -1.71095,-2.24646c-1.2694,-3.88164 2.37306,-7.12705 4.90134,-9.12178c0.52817,-0.60939 1.05635,-1.21878 1.58452,-1.82816l2.74635,-0.26668c0.42194,-0.88666 0.84499,-1.77048 1.27293,-2.65397c0.39919,-1.28511 0.83755,-2.54032 1.14961,-2.84696c0.06324,-0.06214 0.12749,-0.12302 0.19269,-0.1827l-0.06026,-0.04018l1.47849,-2.21774c0.44178,-0.68406 1.20844,-1.13862 2.08171,-1.14543c0.36186,-0.59941 0.7284,-1.19622 1.09901,-1.79067c-0.72909,-0.3872 -1.24372,-1.12473 -1.31944,-1.98815zM250.06113,184.51285c0.17552,0.45861 0.16257,0.90124 0.07183,1.2826c0.06433,1.3993 0.11302,2.79416 0.45019,4.23016c0.63099,2.68736 1.17444,5.4123 1.70634,8.14519c1.27777,2.19895 1.89154,4.73225 2.72075,7.10496c0.67875,1.94218 1.51221,3.78207 2.419,5.58944c0.04498,0.0783 0.09019,0.15645 0.13565,0.23445c0.50586,0.86798 1.33846,1.62805 1.98522,2.44131c1.18315,-1.71199 2.37152,-3.41679 3.54949,-5.12126c1.6374,-2.36925 4.06801,-4.01236 5.8998,-6.19377c2.30319,-2.74281 4.64896,-7.6511 7.74523,-9.77596c-0.57967,-0.73157 -1.16827,-1.42698 -1.78394,-2.04299c-1.78786,-1.78883 -3.387,-3.33029 -4.55125,-5.5888c-0.42589,-0.82618 -1.47749,-1.63154 -1.198,-2.51801c0.15391,-0.48818 1.03212,-0.94251 1.95564,-1.30702c0.0054,-0.03065 0.01161,-0.06183 0.01866,-0.09355c0.3254,-1.46428 1.78968,-1.13888 1.78968,-1.13888c0.66333,0.15032 1.45587,0.31386 2.32052,0.46428c0.2847,0 0.56939,0 0.85409,0c3.10982,0 7.18482,0.61413 9.98931,-1.04281c0.01593,-0.00941 0.0318,-0.01889 0.04763,-0.02844c1.7022,-1.54488 3.05897,-4.09625 4.95237,-5.22156c3.28038,-1.94965 6.49146,-4.21225 9.8157,-6.28647c0.43606,-0.18766 0.8691,-0.36436 1.3013,-0.53044c1.83861,-1.09876 4.11905,-2.22988 5.33805,-1.51558c0.12143,-0.02266 0.24341,-0.04468 0.36598,-0.06607c-0.42875,-0.62978 -0.83861,-1.24157 -1.28949,-1.82812c-0.32974,-0.25895 -0.66298,-0.50621 -0.99874,-0.74065c-1.07583,0.25679 -1.61374,-0.81904 -1.61374,-0.81904l0.03098,-0.11016c-0.00743,-0.00756 -0.01486,-0.0151 -0.02229,-0.02262c-1.21106,-0.59864 -2.51852,-1.06263 -3.66994,-1.74068c-0.47054,-0.27709 -0.89752,-0.57373 -1.30223,-0.87638c-1.30006,-0.2364 -2.61003,-0.41215 -3.78951,-0.71111c-0.65545,-0.16614 -1.45212,0.06174 -2.00097,-0.33319c-0.08051,-0.05793 -0.16489,-0.11746 -0.25168,-0.1786c-1.49456,0.77212 -3.05918,1.43119 -4.67838,1.97494c-6.22953,2.07499 -15.84273,1.91357 -21.8366,-0.80367c-3.17948,-1.44137 -6.34148,-3.49371 -9.62613,-4.61731c-0.21816,-0.04673 -0.40651,-0.14081 -0.5477,-0.23015c-0.15465,-0.09332 -0.33891,-0.23348 -0.48409,-0.43028l-0.12526,-0.13096c-0.32255,7.80248 -1.30772,15.56004 -4.12896,22.86683c-0.64606,1.67325 -1.31481,3.33785 -1.96507,5.00947c0.22809,0.9153 0.33599,1.81176 0.40057,2.70089z" fill="#130c1f" stroke-opacity="0.34118" stroke="#b39ed9" stroke-width="4.5"></path><path d="" fill="#130c1f" stroke-opacity="0.34118" stroke="#b39ed9" stroke-width="4.5"></path><path d="M251.4097,221.82125l-0.23591,-2.35908c-0.3574,-0.73842 -0.57528,-1.55048 -0.71892,-2.39965c-1.71324,-4.81384 -3.22625,-9.70404 -4.90981,-14.5185c-1.21541,-2.01976 -2.03044,-4.16987 -2.59461,-6.40695c-0.6358,-0.45326 -1.05041,-1.19675 -1.05041,-2.03707v-2.49976c-0.31396,-0.41787 -0.5,-0.93733 -0.5,-1.50024c0,-0.18573 0.02025,-0.36673 0.05867,-0.54091l0.47193,-2.35964c0.37145,-3.67871 1.36567,-7.14399 2.00608,-10.77614c0.14448,-0.81941 0.28374,-1.64642 0.42091,-2.47861c0.31981,-2.24736 0.71606,-4.48599 0.79425,-6.44065c0.25196,-6.29888 0.23723,-12.5742 0.75679,-18.86167l-0.00864,-1.79239c0,0 0,-0.18291 0.04948,-0.44978c-0.56744,-0.56378 -1.13155,-1.12192 -1.69386,-1.67522h-0.85562c-2.8125,-0.02737 -5.54563,-0.89581 -7.85347,-2.38349c-2.96652,-0.7991 -4.90982,-2.54088 -6.258,-5.73692c-0.47757,-1.13215 -1.14624,-3.33853 -0.10524,-4.5884c-0.0013,-0.01773 -0.00256,-0.03547 -0.00378,-0.05322c-1.06696,-1.11298 -1.92363,-2.5124 -3.10072,-3.68798c-4.26956,-4.2641 -6.73612,-8.36 -8.37308,-14.145c-0.70654,-2.49692 -2.02569,-4.20744 -2.05571,-6.905c0,0 0,-1.5 1.5,-1.5c0.3851,0 0.67134,0.09887 0.88408,0.24584c0.91008,-1.05623 2.03683,-0.17987 2.03683,-0.17987c1.61406,1.26284 2.95323,2.71414 4.39235,4.09615c-0.064,-0.50383 -0.06068,-1.01876 -0.00389,-1.5397c-1.33034,-1.64636 -2.54538,-3.60656 -2.30898,-4.82314c0.04207,-0.21648 0.11768,-0.41736 0.2181,-0.60669l-0.06013,-0.03006l0.42191,-0.84381c-0.05203,-0.15224 -0.08027,-0.3155 -0.08027,-0.48537c0,-0.08088 0.0064,-0.16027 0.01872,-0.23768l0.23734,-1.66138c0.04887,-5.34389 1.85129,-10.06632 2.798,-15.25005c2.47747,-6.66005 3.86172,-13.51654 4.98875,-20.46039c-0.18403,-0.24905 -0.29282,-0.55708 -0.29282,-0.89051v-1.21673c-0.07333,-0.04739 -0.14485,-0.09815 -0.21432,-0.15269c-0.57757,-0.4534 -0.94895,-1.3251 -1.21263,-2.30003c-1.56091,-2.04302 -3.33472,-3.97213 -5.13371,-5.76989c0,0 -1.06066,-1.06066 0,-2.12132c0.15386,-0.15386 0.30772,-0.26308 0.45834,-0.33738l-0.33045,-1.15657c-0.0437,-0.14072 -0.06723,-0.29031 -0.06723,-0.44539c0,-0.82843 0.67157,-1.5 1.5,-1.5c0.67476,0 1.24546,0.44554 1.43396,1.05847l0.341,1.02301c0.78061,0.67417 1.57456,1.32727 2.41208,1.99721l0.09876,0.33707c0.74487,0.74898 1.13103,1.62791 1.41446,2.55487c0.20497,-1.443 0.53061,-2.86632 0.79973,-4.32249v-1.64814c0,-0.64201 0.40334,-1.18981 0.97044,-1.40385c0.01507,-0.10276 0.02996,-0.20552 0.04464,-0.30829c0,0 0.21213,-1.48492 1.69706,-1.27279c1.48492,0.21213 1.27279,1.69706 1.27279,1.69706c-0.05891,0.41221 -0.12117,0.82423 -0.18461,1.23622c0.27259,0.48835 0.17928,1.04825 0.17928,1.04825c-0.04519,0.27095 -0.08989,0.54194 -0.13414,0.81295c0.0279,0.12356 0.04859,0.2619 0.06331,0.41153c0.22394,-0.00658 0.47796,0.04523 0.76206,0.18728c0.12042,0.06021 0.22463,0.12583 0.31457,0.19539c0.04528,-0.02864 0.09029,-0.05747 0.135,-0.08652c0.70994,-0.89626 1.42722,-1.819 2.11334,-2.82133c0.7483,-1.09316 0.60846,-2.59123 2.00259,-3.30155c0.06925,-0.03528 0.13927,-0.06852 0.20998,-0.0999l-0.02835,-0.04252l1.48294,-0.98862c0.24143,-0.16608 0.53392,-0.2633 0.84911,-0.2633c0.82843,0 1.5,0.67157 1.5,1.5c0,0.35883 -0.126,0.68823 -0.33616,0.94637l-0.99254,1.24067l-0.00827,-0.00662l-0.00777,0.02633c-1.38255,1.59631 -2.13344,3.6249 -3.61184,5.12087c-0.47897,0.48467 -1.11545,0.87234 -1.77005,1.2489c-1.20189,1.5539 -2.20606,3.21325 -2.96429,5.00661c-0.2466,2.45126 -0.72034,4.76973 -1.35211,7.27355c-0.13892,0.55055 -0.26545,1.10405 -0.38164,1.66003c-0.12514,1.31406 -0.31979,2.60288 -0.61856,3.84081c-0.02974,0.12323 -0.06022,0.24642 -0.09139,0.36958c-0.72506,5.30117 -0.9932,10.72048 -2.4948,15.88242c-1.53251,2.45202 -2.30915,5.41334 -2.8341,8.40397c1.55672,-3.24873 3.72149,-6.22596 5.98072,-8.48l0.22997,-0.0727l0.45047,-0.78833l0.01254,0.00716c0.00876,-0.02405 0.01766,-0.04806 0.02673,-0.07202c2.37088,-6.26547 9.36159,-6.93393 15.0131,-6.94093c3.60234,-0.00446 6.6321,-0.37533 9.80095,1.5h1.44905c0.50688,0 0.95504,0.25142 1.22657,0.63635c0.37312,-0.85561 0.76816,-1.70151 1.2093,-2.52625c0.5327,-0.99591 1.54164,-1.73155 1.90827,-2.79981c0.82164,-2.39405 1.24994,-4.91107 2.27714,-7.31784c0.21968,-0.5125 0.4264,-1.05684 0.62872,-1.61848v-0.04064c0,-0.36985 0.13386,-0.70845 0.35577,-0.96997c0.68677,-1.98021 1.38136,-4.06299 2.4299,-5.66061c0.2989,-0.45543 0.94487,-0.59115 1.27063,-1.02777c0.13282,-0.17803 0.2624,-0.37072 0.38876,-0.5757c-0.35858,-0.22847 -0.61356,-0.60511 -0.67871,-1.04368l-0.23544,-1.41262c-0.27998,-0.97583 -0.53726,-1.94431 -0.789,-2.90787c-0.09129,-0.29655 -0.1694,-0.60522 -0.23932,-0.9189c-0.36068,-1.38623 -0.72122,-2.76379 -1.13318,-4.13994l-0.19757,-0.39513c-0.10974,-0.20845 -0.17185,-0.44587 -0.17185,-0.69781c0,-0.02907 0.00083,-0.05794 0.00246,-0.0866c-0.20354,-0.62854 -0.42088,-1.25721 -0.65695,-1.88671c0,0 -0.52669,-1.40449 0.87781,-1.93118c1.40449,-0.52669 1.93118,0.87781 1.93118,0.87781c0.31539,0.84106 0.59935,1.68113 0.86232,2.52154l0.65449,0.81811l-0.24127,0.19301l0.10525,0.21049c0.94575,0.84364 1.74969,1.73021 2.96976,2.71681c1.21929,-4.182 1.65348,-8.33825 3.65331,-12.35409c0,0 0.67082,-1.34164 2.01246,-0.67082c0.8049,0.40245 0.88547,1.04634 0.82111,1.49712c0.01079,0.1821 -0.007,0.30665 -0.007,0.30665c-0.35601,2.48137 -1.38721,4.81148 -1.74942,7.24592c-0.03049,0.20492 -0.05838,0.40935 -0.08472,0.61334c1.88146,-1.96415 3.79974,-3.8851 5.68872,-5.76345l0.2003,-0.05077l-0.03402,-0.05953l1.72713,-0.98693c0.22445,-0.13382 0.48678,-0.2107 0.76708,-0.2107c0.82843,0 1.5,0.67157 1.5,1.5c0,0.22163 -0.04807,0.43204 -0.13434,0.62136l-0.73694,1.71952l-0.0391,-0.01676c-0.02926,0.08981 -0.06164,0.17878 -0.09751,0.26682c-0.28759,0.7057 -2.89487,2.68305 -3.43687,3.22511c-2.69808,2.69838 -4.83372,5.91591 -7.93338,8.15454l-0.0612,0.09006c0,0 -0.23569,0.23569 -0.59596,0.37376c-0.03459,0.06317 -0.06836,0.12675 -0.10122,0.19081c-0.58205,1.1347 -0.50678,2.51364 -0.97766,3.6988c-1.42648,3.59022 -2.88497,8.05881 -2.91645,11.97757c-1.07699,2.56931 -1.03027,5.23665 -1.78373,7.88308c-0.64645,2.27059 -1.43733,4.55199 -2.18973,6.84297c2.13858,2.02081 3.92907,4.37831 5.18057,6.92516c0.21717,1.23036 0.2976,2.65882 0.59223,3.9161c2.24092,-0.27004 4.55869,-1.52216 6.88809,-1.69934c4.75131,-0.3614 9.79649,0.17084 14.39595,-1.18467c1.90703,-0.56202 3.86278,-2.37111 5.38882,-3.58173c0.68196,-0.3442 1.2229,-0.65775 1.66374,-0.96199c0.90586,-1.37347 1.99702,-2.61771 2.85642,-4.07743c0.13995,-0.28343 0.29471,-0.58696 0.47064,-0.91391c0.03991,-0.07417 0.08028,-0.14756 0.12103,-0.22024c0.02054,-0.04541 0.0408,-0.09106 0.06078,-0.13696c1.64185,-3.77237 0.66949,-9.38356 0.63666,-13.46978c-0.018,-0.09224 -0.02834,-0.19006 -0.02686,-0.29154c-0.04905,-0.14687 -0.09805,-0.29364 -0.14701,-0.44031c0,0 -0.47434,-1.42302 0.94868,-1.89737c1.42302,-0.47434 1.89737,0.94868 1.89737,0.94868c0.10539,0.31661 0.21131,0.63382 0.31765,0.95156l0.85349,1.10705c0.29935,1.13156 0.47961,2.22028 0.63034,3.30739c1.53735,4.5818 3.05427,9.21351 4.22328,13.71602c1.06007,4.08293 0.6822,8.76234 1.28894,12.94322c0.70641,5.71343 0.69041,11.83889 0.27405,17.78196c0.45282,0.20082 0.90243,0.43269 1.34546,0.68512c-0.85956,3.32995 -1.30636,6.676 -1.688,10.05148c-0.23501,-0.13391 -0.46814,-0.26984 -0.69967,-0.40743c-0.19123,0.28558 -0.51237,0.53824 -1.05169,0.58148c-0.83545,1.18961 -1.64309,2.3966 -2.39085,3.54511c-1.18973,1.82732 -1.45979,4.20434 -2.811,6.09108c-0.93632,1.3074 -2.17582,2.47101 -3.44823,3.55874c-0.67885,1.60869 -1.29994,3.34362 -2.32306,4.71993c-0.30285,0.4074 -0.68488,0.7387 -1.09285,1.04584c0.95923,0.448 1.92073,0.95944 2.99873,1.42086c3.50721,1.5012 7.73631,3.30764 10.47805,6.08154c1.27299,1.28792 1.94287,3.16736 2.8695,4.731l0.69367,-0.3083l0.17459,0.39284c0.71134,-0.37914 1.45964,-0.65612 2.24856,-0.76054l0.64114,-0.00626c3.55771,-0.94249 7.07883,-1.79054 10.1019,-4.17182c0.91586,-0.72143 1.66634,-1.96236 2.36389,-3.19321l-0.3439,-0.11463l0.48906,-1.46719c0.1885,-0.61294 0.7592,-1.05847 1.43396,-1.05847c0.69707,0 1.28308,0.47548 1.4514,1.1198l0.48417,1.69458c0.1165,0.34934 0.2309,0.69959 0.34289,1.05077c0.29973,-0.38707 0.60925,-0.75222 0.93043,-1.08323c0.69891,3.38554 1.55476,6.74697 2.36238,10.10849c-0.34307,0.37469 -0.68611,0.74969 -1.02982,1.12431c0.13219,1.23315 0.2055,2.47807 0.20852,3.73527c0,0 0,0.00038 -0.00001,0.00114l-0.00895,1.66254c-0.83488,3.81942 -0.67119,7.59446 -1.52403,11.39916c-1.00189,4.46964 -4.1408,9.50388 -7.04601,13.23915c0.34805,1.06705 -0.27727,2.10926 -0.27727,2.10926c-3.16577,5.18274 -8.26064,8.96195 -12.33069,13.43506c-3.15262,3.46483 -5.74365,7.49003 -9.06563,10.81659c-5.13955,5.14665 -10.77411,9.72475 -16.00934,14.75908c-1.92501,1.85114 -3.70804,3.81952 -5.57897,5.69735c0.44697,0.33523 0.89394,0.67045 1.3409,1.00568c0,0 0.02337,0.01753 0.06317,0.05133c0.04162,0.03152 0.06381,0.05053 0.06381,0.05053l2.12302,1.89814c0.48376,0.64501 0.96752,1.29002 1.45127,1.93503l1.41725,1.65406c6.71684,7.56204 13.29609,14.60116 18.30267,23.42158c3.00907,5.30128 6.82761,9.80132 9.14981,15.56038c0.00013,0.00031 0.00019,0.00047 0.00019,0.00047l0.4865,1.21694c4.98536,11.98066 11.43683,23.16034 15.97514,35.30701c0.43938,0.92403 0.82329,1.87258 1.12319,2.86771c1.26233,2.63104 3.21392,5.07113 3.48026,8.0414c0.00277,0.03084 0.00533,0.06168 0.00769,0.09252l0.01794,-0.00489l0.73493,2.69476c0.06712,0.22596 0.10316,0.46529 0.10316,0.71304c0,1.38071 -1.11929,2.5 -2.5,2.5c-0.95782,0 -1.78983,-0.53864 -2.20964,-1.32954l-1.22575,-2.20635c-0.94675,-1.71554 -1.73985,-3.51996 -2.41409,-5.35975c0,0 -0.02421,-0.06658 -0.05327,-0.18139c-0.0348,-0.11321 -0.0487,-0.18267 -0.0487,-0.18267l-0.28614,-1.49153c-0.0362,-0.47702 -0.10841,-0.94237 -0.21071,-1.39781c-0.24166,-0.48609 -0.46406,-0.98047 -0.64916,-1.49105c-0.26904,-0.74216 -0.54531,-1.48057 -0.82807,-2.21564c-0.90804,-1.66198 -2.0277,-3.24535 -2.97234,-4.86495c-2.31238,-3.96462 -4.1429,-8.31134 -6.49145,-12.23575c-1.59363,-2.66295 -3.85486,-4.83816 -5.32408,-7.6313c-1.19264,-2.26734 -2.40404,-4.54815 -3.78543,-6.71673c-0.76063,-0.5321 -1.49856,-1.08772 -2.11185,-1.77585c-3.45034,-3.87137 -6.3771,-8.26388 -9.55753,-12.31643c-1.21117,-1.54328 -3.62726,-1.67526 -5.04433,-3.03194c-1.08719,-1.04086 -1.5643,-2.5765 -2.29793,-3.9055c-0.99363,-0.85293 -1.97747,-1.71098 -2.93947,-2.58273c-0.88917,-0.80576 -1.60139,-1.7302 -2.27779,-2.67946c-0.42086,-0.42022 -0.82528,-0.85572 -1.20331,-1.31583c-0.83938,-1.02164 -1.55931,-2.0335 -2.3013,-3.01197c-2.11689,-1.88617 -4.69161,-3.29651 -6.83178,-5.11906c-1.35804,-1.15649 -2.42203,-2.24703 -3.49377,-3.2474c1.03598,1.28751 2.10993,2.55837 3.32566,3.77288c0,0 0.09196,0.09196 0.21295,0.2549c0.12537,0.15961 0.18989,0.27252 0.18989,0.27252l1.2413,2.33255c0.66304,2.72805 2.02008,3.68671 3.62894,5.96386c2.57313,3.64196 4.63543,7.42505 7.59059,10.79767c0,0 0.08177,0.09345 0.18803,0.25692c0.11106,0.16025 0.16659,0.27131 0.16659,0.27131l1.22518,2.45169c0.53615,0.97014 1.21636,1.87913 1.9039,2.78212c0.55634,0.53326 1.10762,1.07173 1.65262,1.61646l1.40284,2.27742c0,0 0.70971,1.24199 0.11596,2.38386c0.174,0.87409 0.35219,1.74704 0.72692,2.54506c0.48942,1.04227 2.38313,3.07781 3.11796,3.91517c0,0 0.03996,0.04567 0.10032,0.12901c0.0647,0.08001 0.09837,0.1305 0.09837,0.1305l0.65594,1.01872c1.29968,2.68939 3.57712,4.05359 4.96812,6.68839c1.01056,1.91418 1.03683,4.21917 1.85551,6.22294c1.46638,3.58901 4.14187,6.64759 5.52778,10.32003c0.84722,2.24499 1.47009,4.51882 2.09187,6.78006c1.40542,2.69814 2.66743,5.45919 3.27211,8.36633l0.27342,1.88674c0,0 0.00304,0.02129 0.00658,0.06019c0.07869,0.50978 0.05013,1.17699 -0.39972,1.7661c-0.25755,0.39379 -0.67174,0.74505 -1.33359,0.92228c-0.64505,0.23101 -1.18553,0.17797 -1.62144,0.0008c-0.70519,-0.22831 -1.10846,-0.76063 -1.33393,-1.22455c-0.01923,-0.03401 -0.02885,-0.05324 -0.02885,-0.05324c-1.61805,-3.24565 -2.55758,-6.60296 -3.50609,-9.98968c-1.01292,-1.87383 -2.09719,-3.70989 -2.99391,-5.51032c-0.89633,-1.79964 -1.70764,-2.87642 -1.67837,-4.0098c-0.22042,-0.16477 -0.39769,-0.35874 -0.53691,-0.54643c-0.01457,-0.01735 -0.02204,-0.02695 -0.02204,-0.02695l-1.75,-2.25l0.61296,-0.47675c-2.20552,-4.72507 -5.00012,-9.44357 -8.6989,-13.08289c-6.54028,-7.19204 -11.85765,-15.7456 -17.89078,-23.41089c-1.19574,-1.51922 -1.8113,-3.47294 -3.14264,-4.87486c-4.4347,-4.66979 -9.46359,-8.05854 -14.794,-11.60934c0,0 -1.12396,-0.74931 -1.1687,-1.97253c-1.36374,-0.73715 -2.72617,-1.48133 -3.85407,-2.48784c-3.40507,-3.03859 -5.64433,-6.21661 -10.58924,-6.63217c0,0 -0.57596,-0.0576 -1.14589,-0.3945c-1.52006,-0.44719 -2.89924,-1.01461 -3.55054,-1.27865c-0.24574,-0.09962 -0.52243,-0.21066 -0.82236,-0.33273c-3.41835,0.17565 -5.32185,-1.20738 -6.3888,-3.43157c-0.81861,-0.68316 -1.44548,-1.43472 -1.71095,-2.24646c-1.2694,-3.88164 2.37306,-7.12705 4.90134,-9.12178c0.52817,-0.60939 1.05635,-1.21878 1.58452,-1.82816l2.74635,-0.26668c0.42194,-0.88666 0.84499,-1.77048 1.27293,-2.65397c0.39919,-1.28511 0.83755,-2.54032 1.14961,-2.84696c0.06324,-0.06214 0.12749,-0.12302 0.19269,-0.1827l-0.06026,-0.04018l1.47849,-2.21774c0.44178,-0.68406 1.20844,-1.13862 2.08171,-1.14543c0.36186,-0.59941 0.7284,-1.19622 1.09901,-1.79067c-0.72909,-0.3872 -1.24372,-1.12473 -1.31944,-1.98815zM250.06113,184.51285c0.17552,0.45861 0.16257,0.90124 0.07183,1.2826c0.06433,1.3993 0.11302,2.79416 0.45019,4.23016c0.63099,2.68736 1.17444,5.4123 1.70634,8.14519c1.27777,2.19895 1.89154,4.73225 2.72075,7.10496c0.67875,1.94218 1.51221,3.78207 2.419,5.58944c0.04498,0.0783 0.09019,0.15645 0.13565,0.23445c0.50586,0.86798 1.33846,1.62805 1.98522,2.44131c1.18315,-1.71199 2.37152,-3.41679 3.54949,-5.12126c1.6374,-2.36925 4.06801,-4.01236 5.8998,-6.19377c2.30319,-2.74281 4.64896,-7.6511 7.74523,-9.77596c-0.57967,-0.73157 -1.16827,-1.42698 -1.78394,-2.04299c-1.78786,-1.78883 -3.387,-3.33029 -4.55125,-5.5888c-0.42589,-0.82618 -1.47749,-1.63154 -1.198,-2.51801c0.15391,-0.48818 1.03212,-0.94251 1.95564,-1.30702c0.0054,-0.03065 0.01161,-0.06183 0.01866,-0.09355c0.3254,-1.46428 1.78968,-1.13888 1.78968,-1.13888c0.66333,0.15032 1.45587,0.31386 2.32052,0.46428c0.2847,0 0.56939,0 0.85409,0c3.10982,0 7.18482,0.61413 9.98931,-1.04281c0.01593,-0.00941 0.0318,-0.01889 0.04763,-0.02844c1.7022,-1.54488 3.05897,-4.09625 4.95237,-5.22156c3.28038,-1.94965 6.49146,-4.21225 9.8157,-6.28647c0.43606,-0.18766 0.8691,-0.36436 1.3013,-0.53044c1.83861,-1.09876 4.11905,-2.22988 5.33805,-1.51558c0.12143,-0.02266 0.24341,-0.04468 0.36598,-0.06607c-0.42875,-0.62978 -0.83861,-1.24157 -1.28949,-1.82812c-0.32974,-0.25895 -0.66298,-0.50621 -0.99874,-0.74065c-1.07583,0.25679 -1.61374,-0.81904 -1.61374,-0.81904l0.03098,-0.11016c-0.00743,-0.00756 -0.01486,-0.0151 -0.02229,-0.02262c-1.21106,-0.59864 -2.51852,-1.06263 -3.66994,-1.74068c-0.47054,-0.27709 -0.89752,-0.57373 -1.30223,-0.87638c-1.30006,-0.2364 -2.61003,-0.41215 -3.78951,-0.71111c-0.65545,-0.16614 -1.45212,0.06174 -2.00097,-0.33319c-0.08051,-0.05793 -0.16489,-0.11746 -0.25168,-0.1786c-1.49456,0.77212 -3.05918,1.43119 -4.67838,1.97494c-6.22953,2.07499 -15.84273,1.91357 -21.8366,-0.80367c-3.17948,-1.44137 -6.34148,-3.49371 -9.62613,-4.61731c-0.21816,-0.04673 -0.40651,-0.14081 -0.5477,-0.23015c-0.15465,-0.09332 -0.33891,-0.23348 -0.48409,-0.43028l-0.12526,-0.13096c-0.32255,7.80248 -1.30772,15.56004 -4.12896,22.86683c-0.64606,1.67325 -1.31481,3.33785 -1.96507,5.00947c0.22809,0.9153 0.33599,1.81176 0.40057,2.70089z" fill="#130c1f" stroke-opacity="0.34118" stroke="#b39ed9" stroke-width="0"></path><path d="" fill="#130c1f" stroke-opacity="0.34118" stroke="#b39ed9" stroke-width="0"></path><path d="M260.61668,130.46666c0,1.75 -1.75,1.75 -1.75,1.75c-0.66667,0 -1.66667,0 -2.33333,0c0,0 -0.07582,0 -0.1959,-0.01578c-0.61207,1.0067 -1.24806,2.28534 -1.75872,3.6539c-0.91176,1.35123 -1.88835,2.64329 -3.41535,3.73952c-1.32673,0.95246 -3.0398,1.48274 -4.89363,1.73936c-0.63097,0.27415 -1.24694,0.57428 -1.85789,0.87235c-0.39724,-0.04799 -0.80166,-0.07268 -1.21184,-0.07268c-0.11336,0 -0.22627,0.00189 -0.33872,0.00563c-0.10118,0.00337 -0.20197,0.00824 -0.30237,0.01459c-1.28683,0.06723 -2.65249,0.20091 -3.95755,0.29174l-0.63506,0.52199c-0.54181,-0.32509 -3.49489,-2.06931 -3.76529,-2.36596c-0.37389,-0.41022 -0.23557,-1.12225 -0.57178,-1.56388c-0.49148,-0.64558 -1.618,-0.16945 -2.42923,-0.1541c0,0 -1.75,0 -1.75,-1.75c0,-1.17635 0.79074,-1.56196 1.30915,-1.68836c0.30168,-0.24686 0.6873,-0.39497 1.10752,-0.39497c0.00459,0 0.00917,0.00002 0.01375,0.00005c0.23429,0.16084 0.47577,0.31196 0.72387,0.45278c1.09106,0.18184 1.93051,0.55737 2.68204,1.04371c0.66984,0.1538 1.36536,0.24032 2.07906,0.25207c0.29129,0.18026 0.59821,0.39026 0.92783,0.63486l-0.01643,0.25522c1.29948,0.18501 2.79342,0.34944 4.28761,0.38852c2.59494,-0.78955 5.48953,-1.54302 7.63656,-3.04736c0.97741,-0.68483 2.11266,-2.57208 3.22254,-3.62096c0.25249,-0.37307 0.51765,-0.74422 0.80586,-1.10934l0.09665,-0.04022l-0.03011,-0.03011l0.73657,-0.73657c0.12806,-0.20563 0.29364,-0.35677 0.46786,-0.46786l0.1289,-0.1289c0.31669,-0.31669 0.75419,-0.51256 1.23744,-0.51256c0.38397,0 0.73906,0.12366 1.02761,0.33333c0.21302,0 0.42603,0 0.63905,0h0.33333c0,0 1.75,0 1.75,1.75z" fill="#b49fda" stroke="none" stroke-width="0.5"></path><path d="M299.68773,227.54386c-0.3516,0.05054 -0.68933,0.02115 -0.99911,-0.1563c-3.38146,-1.93688 -1.23559,-4.57491 0.04963,-6.36371c2.64057,-3.6752 5.68294,-7.57725 10.35335,-7.64052c0,0 0.06409,0 0.16774,0.01226l0.44068,-0.18886c0.22088,-0.10066 0.46635,-0.15674 0.72492,-0.15674c0.9665,0 1.75,0.7835 1.75,1.75c0,0.33963 -0.09675,0.65666 -0.26419,0.92503l-0.93077,1.55129c-1.92677,4.85952 -3.55796,8.2143 -9.00164,9.51721c-0.17242,0.04127 -0.34878,0.09846 -0.52735,0.16324l-0.30938,0.24323c0,0 -0.6837,0.51277 -1.45386,0.34386z" fill="#b49fda" stroke="none" stroke-width="0.5"></path></g><g fill-opacity="0.08235" fill="#b69edb" stroke="none" stroke-width="0.5"><path d="M261.25431,84.66884c0.98585,-4.58612 2.82715,-8.86008 4.53374,-13.44c0,0 1.40449,-3.74532 5.14981,-2.34082c3.74532,1.40449 2.34082,5.14981 2.34082,5.14981c-0.8173,2.16761 -1.68728,4.25863 -2.45613,6.35871c0.93085,1.74101 -0.04481,3.69232 -0.04481,3.69232l-0.7714,1.52903c-0.33197,0.58015 -0.73019,1.19914 -1.14645,1.83914c-0.2023,1.24373 -0.32011,2.51972 -0.32652,3.84297c-0.01229,2.53898 2.01019,6.13178 -0.04921,7.61686c-8.7881,6.33732 -9.60473,0.67886 -10.28413,-4.61686c-0.43519,-3.39216 1.2647,-6.63452 3.05428,-9.63116z"></path><path d="M252.93648,234.73092c-0.06197,0.16171 -0.13413,0.31836 -0.2157,0.46919c-0.1183,0.4854 -0.25709,0.96451 -0.41675,1.43482c-0.47072,1.38659 -0.40398,4.16174 -1.34554,4.7808c0.96764,0.11407 2.41174,0.41606 2.90455,0.89958c1.1254,1.10419 1.3882,2.83124 2.08231,4.24686l0.25468,2.40449c0,0 0,0.31836 -0.08981,0.77544c2.09175,1.023 4.46467,1.58651 6.44826,2.77507c3.24475,1.94424 4.70374,4.76568 7.3627,7.18436c2.02526,1.84224 4.59255,3.08129 6.70683,4.75296c1.70828,1.35066 2.87754,3.26977 4.29077,4.92666c2.1817,2.55784 5.48439,3.54584 7.63441,5.96239c0.79182,0.88998 1.01428,2.15579 1.52142,3.23369c1.54748,1.27716 2.66182,3.00487 3.9224,4.56588c2.23069,2.7623 5.65412,4.56205 7.88429,7.19444c0.89583,1.05739 3.22608,5.52728 3.57037,7.15817c0.13446,0.63694 -0.45784,1.33313 -0.22279,1.9402c0.19358,0.49998 0.96182,0.51673 1.3263,0.90993c0.7901,0.85235 1.37288,1.87657 2.09835,2.78456c1.72194,2.15518 3.07579,4.43499 5.04159,6.34115l1.60154,2.43711c0,0 2.05798,3.42997 -1.37199,5.48795c-3.42997,2.05798 -5.48795,-1.37199 -5.48795,-1.37199l-0.39846,-0.89622c-2.85674,-2.91758 -4.94372,-6.35756 -7.52672,-9.54095c-0.85821,-1.0577 -2.1181,-1.84647 -2.6737,-3.09007c-1.17401,-2.62777 0.17114,-4.5031 -1.98575,-6.90164c-1.51907,-1.68926 -3.54377,-2.85789 -5.14716,-4.46734c-2.59906,-2.60889 -4.31056,-5.35266 -7.04615,-7.77235c-1.69808,-4.10169 -5.83265,-5.37412 -8.84417,-8.80391c-1.27338,-1.45024 -1.52981,-2.62228 -3.04256,-3.74001c-2.37613,-1.75564 -5.08876,-3.21473 -7.29317,-5.24704c-2.1448,-1.97736 -3.3507,-4.65069 -5.97063,-6.14897c-2.61495,-1.49543 -5.65004,-2.09053 -8.18748,-3.78381c-2.57514,-1.71845 -3.79878,-3.77499 -6.57627,-5.08796c0,0 -0.36741,-0.18371 -0.80788,-0.55112c-0.44768,0.5287 -0.90105,1.05248 -1.36075,1.57059l-1.61674,1.94009c-0.7336,0.89307 -1.84649,1.46273 -3.09244,1.46273c-2.20914,0 -4,-1.79086 -4,-4c0,-0.47505 0.08281,-0.93077 0.23479,-1.35349l1.63714,-4.91142l0.14626,0.04875c0.03868,-0.23251 0.08338,-0.46433 0.13479,-0.69538c0.36481,-1.63965 2.03313,-2.67543 3.09966,-3.97313c0.00863,-0.01049 0.89613,-1.04614 1.99852,-2.33237c0.07039,-0.33751 0.15495,-0.65327 0.25381,-0.94209c0.61608,-1.79997 1.41922,-3.92218 3.11664,-4.78136c0.28427,-0.14389 0.57524,-0.26653 0.87182,-0.37134l-0.10266,-0.18479l1.04444,-0.58024c-0.00772,-0.2715 -0.03269,-0.54306 -0.0774,-0.81473c0,0 -0.44173,-3.97553 3.53381,-4.41726c1.0791,-0.1199 1.89784,0.08565 2.51806,0.44881c-0.44663,-1.20561 -0.99384,-2.23559 -1.7178,-3.81806c0,0 -1.163,-2.5586 0.60541,-4.36127l-0.26639,-2.13114l0.01601,-0.002l-0.01932,-0.02519c-0.02239,-0.21827 -0.04892,-0.4281 -0.07922,-0.63056c-0.6032,-0.29971 -0.4732,-1.47299 -0.71904,-2.17012c-0.21023,-0.59616 -0.39839,-1.23321 -0.57482,-1.89578c-0.37347,-0.85295 -0.7697,-1.74726 -1.12448,-2.86693c-0.47675,-1.5046 -0.25143,-2.37501 -0.40848,-3.3082c-0.08449,-0.28932 -0.17243,-0.57498 -0.26464,-0.8558c-0.1157,-0.2509 -0.27297,-0.51765 -0.48748,-0.81034c-3.26586,-4.45619 -7.90431,-9.46464 -6.21442,-15.70061c0.17377,-0.64125 0.43062,-1.24818 0.73681,-1.8348c0.74678,-6.17355 3.84436,-11.83326 5.32321,-17.89035c-0.55159,-0.68563 -0.88169,-1.55699 -0.88169,-2.50545c0,-0.16915 0.0105,-0.33585 0.03088,-0.49949l0.312,-2.80803c-0.53103,-0.52803 -0.23746,-1.33677 0.12764,-2.16909c0.03082,-2.56936 -0.2352,-5.35535 0.27782,-7.66099c0.30962,-1.3915 0.57547,-3.05765 1.71106,-3.91938c0.22016,-0.16707 0.4484,-0.31974 0.68339,-0.46036c0.02254,-0.03171 0.04571,-0.06323 0.06953,-0.09453l-0.10641,-0.12769l1.97983,-1.64986c0.15243,-0.12886 0.31463,-0.24652 0.48534,-0.35172c0.00641,-0.56669 0.02234,-1.13226 0.0394,-1.69312c-0.22524,-0.05006 -0.45508,-0.09893 -0.6869,-0.14655c-0.32816,0.25574 -0.67792,0.47032 -1.07253,0.59815c-2.92481,0.94745 -5.82774,0.41911 -8.61744,-0.42561c-1.19921,1.29268 -3.59573,1.17588 -5.4151,1.235c-5.80602,0.18867 -6.94769,-7.11762 -8.91831,-11.25236c-0.03086,-1.64929 -0.05354,-3.2462 -0.03158,-4.8057c-0.94233,-1.10231 -1.35504,-2.68697 -2.18923,-3.90597c-2.46459,-3.60148 -6.56967,-5.73137 -8.32243,-9.90601c-0.53307,-1.26963 -0.5632,-2.6958 -0.8448,-4.0437l0.0766,-0.24634h-0.08877v-2.66667c0,-1.38071 1.11929,-2.5 2.5,-2.5c0.50389,0 0.97297,0.14908 1.36552,0.40553c0.23231,-0.07111 0.44984,-0.1071 0.65289,-0.11511c-0.09245,-0.99652 0.00231,-2.04873 -0.01069,-3.03897c-0.06805,-5.186 2.86294,-11.05648 5.08123,-15.5403c0,0 1.78885,-3.57771 5.36656,-1.78885c3.57771,1.78885 1.78885,5.36656 1.78885,5.36656c-1.75673,3.47002 -3.02597,6.66328 -4.01014,10.42931c-0.17233,0.65944 -0.0358,1.38073 -0.24197,2.03039c-0.0678,0.21364 -0.71109,0.2748 -0.53263,0.41041c0.28404,0.21584 0.75676,-0.17223 1.07022,-0.00191c0.554,0.30102 1.05648,0.68251 1.54824,1.08073c1.60387,-1.47286 3.3148,-2.78104 5.20281,-3.68287c5.6553,-2.7013 9.44223,-0.28719 14.11565,2.51826c2.25289,1.35241 4.3782,2.74171 6.36584,4.24252c0.38319,0.16131 0.76728,0.33133 1.15255,0.51027c1.75287,0.81418 3.76678,1.2382 5.23249,2.49802c1.02468,0.88075 1.27882,2.38171 1.86247,3.60033c0.40195,0.83925 1.48136,1.72374 1.09231,2.56905c-0.04043,0.08784 -0.08701,0.17034 -0.13904,0.24811c0.01051,0.01524 0.02102,0.03049 0.03152,0.04575l0.18474,-0.05278l0.16143,0.565c0.2589,0.38992 0.51276,0.7879 0.76152,1.19437l-0.22606,0.67973l0.05984,0.20944l0.36629,-0.04579l0.32551,2.60407c0.02552,0.18258 0.03871,0.36912 0.03871,0.55873c0,1.2524 -0.57557,2.37036 -1.47663,3.10381c-0.2033,3.0039 -1.81644,5.68831 -3.71812,7.87929c0.53424,0.7526 1.03185,1.3692 1.53767,1.90676c2.1835,-0.34587 4.43071,-0.21433 6.65707,-0.22319c6.56215,-0.02612 14.84361,1.30998 21.10266,-0.80597c0.09674,-0.0327 0.19274,-0.06617 0.28801,-0.10038c0.96782,-0.51282 1.9483,-1.00475 2.9475,-1.46608c1.88941,-3.0891 3.5966,-6.28189 4.9169,-9.69975c2.03417,-5.26586 2.77912,-11.42698 4.2054,-16.92825c0.73161,-2.82188 1.68345,-5.58948 2.28225,-8.4425c0.19662,-0.93681 -0.16658,-2.05693 0.37343,-2.84729c0.09116,-0.13342 0.18488,-0.26477 0.28093,-0.39422l-0.14239,-0.05339l0.96721,-2.57923c0.21394,-0.61377 0.57322,-1.15942 1.03661,-1.59573c-0.16423,-1.6205 -0.35237,-3.25578 -0.56095,-4.92441c0,0 -0.49614,-3.96911 3.47297,-4.46525c3.96911,-0.49614 4.46525,3.47297 4.46525,3.47297c0.84063,6.72503 1.36422,13.03235 1.36422,19.82947v2.33333c0,0 0,0.62668 -0.24805,1.38395c0.25879,5.09348 0.98041,10.01209 0.91472,15.28272c-0.00558,0.44794 0.01033,0.89873 0.03054,1.35017c0.73024,-0.03308 1.27294,0.1026 1.27294,0.1026c0.01085,0.00286 0.0217,0.00574 0.03253,0.00862c-0.45618,2.65331 -0.74415,5.32024 -1.03728,8.00744c-0.30185,-0.09576 -0.61313,-0.18118 -0.93555,-0.25492c0,0 -0.47103,-0.11776 -1.04386,-0.43533c-0.68557,1.00808 -1.52876,1.91781 -2.46138,2.69795c5.4385,4.4391 -2.2605,11.4097 -5.02989,13.65019c-2.07699,1.68032 -4.4115,2.85676 -6.89771,3.69162c1.79563,0.41468 3.70236,0.46347 5.38569,1.20423c3.67109,1.61549 6.13547,3.99409 8.15692,7.32622l0.5219,0.76575c0,0 2.2188,3.3282 -1.1094,5.547c-3.3282,2.2188 -5.547,-1.1094 -5.547,-1.1094l-0.81144,-1.23425c-2.13145,-4.21092 -6.18927,-3.89366 -10.12527,-5.18982c-0.90973,-0.29958 -1.61587,-1.05593 -2.51081,-1.39718c-0.46742,-0.17823 -0.94808,-0.33472 -1.43842,-0.47519c-2.7837,2.09105 -5.78956,3.72292 -8.9555,4.32383c-8.26797,1.5693 -16.68941,-1.67572 -24.22013,-4.49539c-1.64515,-0.61598 -2.96175,-0.83704 -4.13877,-1.35213c-0.30561,1.8312 -0.57561,3.66744 -0.81253,5.51654c0,3.09392 -0.25275,5.95935 -1.17315,8.94069c-0.93803,3.03846 -2.39125,6.02217 -3.51161,9.06702c2.02924,1.97409 0.52245,4.68631 0.52245,4.68631c-0.63067,1.13421 -1.44403,2.16815 -2.13738,3.26518c0.01342,0.79377 0.09031,1.59716 0.24323,2.41188c0.56008,2.98384 2.64853,4.7243 3.95139,7.21127c1.29894,2.47949 1.87041,6.08663 2.63433,8.76803c0.66164,2.32241 2.78827,4.46339 2.3779,6.84309c-0.02386,0.13835 -0.04999,0.27609 -0.07824,0.41326c0.00778,0.04271 0.01541,0.08558 0.0229,0.12859l0.13949,-0.01268l0.3288,3.61682c0.01386,0.13544 0.02096,0.27289 0.02096,0.41199c0,0.49018 -0.08817,0.95977 -0.24952,1.39377c0.16606,0.03788 0.3375,0.08585 0.51443,0.14483c3.79473,1.26491 2.52982,5.05964 2.52982,5.05964l-0.93987,2.80282c-0.05382,0.20713 -0.09836,0.40923 -0.13417,0.60677c0.01962,0.46492 0.01023,0.93528 0.01651,1.40139c-1.57009,1.00828 -3.01054,2.38537 -4.0656,3.82383c-1.05475,0.91671 -1.7216,2.26813 -1.7216,3.77529c0,0.0062 0.00001,0.0124 0.00003,0.01859c-0.45964,-0.70419 -0.86684,-1.45731 -1.21355,-2.26267zM244.65172,114.79285c0.25573,0.0749 0.58179,0.0806 0.9127,0.07926c-0.92167,-0.46466 -1.85556,-0.87218 -2.79319,-1.19819c-0.70117,-0.02556 -1.41757,-0.02319 -2.15748,0.00781c1.35313,0.29773 2.71229,0.72286 4.03797,1.11112zM240.34255,128.07929c0.02451,0.08194 0.09462,0.19775 0.19638,0.33026c-0.07404,-0.59088 -0.16903,-1.17876 -0.27815,-1.76486c-0.05551,0.54542 -0.03763,1.03542 0.08177,1.4346zM223.44172,111.05523c-0.21689,-0.12062 -0.43333,-0.24161 -0.64721,-0.36479c0.10158,0.2377 0.20425,0.47559 0.30835,0.71297c0.11288,-0.11508 0.22582,-0.23118 0.33886,-0.34818zM253.2,119.96666c0,0.08807 -0.00285,0.17547 -0.00845,0.26212c0.30043,0.10094 0.59933,0.20479 0.89508,0.31259c-0.29002,-0.22352 -0.58618,-0.45072 -0.88799,-0.68019c0.00091,0.03505 0.00136,0.07021 0.00136,0.10547zM251.2625,127.81814c0.00519,0.1092 0.00679,0.2187 0.00501,0.3284c0.11409,-0.06249 0.2431,-0.12769 0.38486,-0.1909c-0.10525,-0.03309 -0.19884,-0.06499 -0.26747,-0.09119c-0.04076,-0.01556 -0.08156,-0.03099 -0.1224,-0.04631zM273.70201,143.96943c0.06784,0.02052 0.13571,0.04108 0.2036,0.06169c0.04645,-0.01994 0.09285,-0.03996 0.13921,-0.06005c-0.11417,-0.0006 -0.22844,-0.00115 -0.3428,-0.00165z"></path><path d=""></path><path d=""></path><path d="M269.02581,216.00605c-2.16319,1.24293 -3.2328,4.50395 -6.61187,2.57305c-3.16332,-1.80761 -1.79913,-5.92813 -0.43034,-8.21556c1.05758,-1.76735 1.47766,-4.34798 2.81086,-5.94132c2.05745,-2.45891 4.63236,-4.28067 6.704,-6.83345c0.30261,-0.37289 0.60761,-0.91629 0.92448,-1.54463c0.10172,-0.94978 0.53587,-1.8001 1.18381,-2.43231c0.71842,-1.42433 1.52969,-2.7852 2.51058,-3.39121c-1.6228,-1.43073 -3.21635,-2.89613 -4.74575,-4.42553c0,0 -2.82843,-2.82843 0,-5.65685c2.82843,-2.82843 5.65685,0 5.65685,0c0.31353,0.31353 0.63159,0.62613 0.94491,0.94361c0.96321,-0.44852 1.89333,-0.44852 1.89333,-0.44852c0.1876,0.00048 0.37522,0.0029 0.56285,0.00707c1.17561,-1.00707 2.77049,-1.00707 2.77049,-1.00707h1.33333c0.77756,0.00095 1.5446,-0.02056 2.30333,-0.062c-0.15483,-1.06639 -0.15287,-2.03412 0.05997,-2.76007c0.61827,-2.10876 1.05178,-4.92129 3.04461,-5.84744c1.89613,-0.88121 4.0364,1.0935 6.06104,1.61566c2.95069,0.761 5.77137,2.01736 8.64977,2.90192c1.06044,-0.55372 2.12142,-1.01133 3.24055,-0.79643c0.32064,0.06157 0.63756,0.13584 0.95136,0.22077l0.02155,-0.2586l3.9623,0.33019c0.65058,0.04734 1.25798,0.25028 1.78517,0.57177c0.6879,-0.54778 1.41249,-1.05178 2.16842,-0.9336c0.2882,-0.24337 0.5742,-0.4842 0.85786,-0.72173l1.97983,-1.64986c0.69661,-0.5889 1.5973,-0.94392 2.58091,-0.94392c2.20914,0 4,1.79086 4,4c0,1.19629 -0.52515,2.26992 -1.3575,3.00293l-2.98505,2.65337l-0.08403,-0.09454c-0.03839,0.03205 -0.07681,0.06414 -0.11527,0.09625c-0.07018,0.10793 -0.14202,0.21492 -0.21564,0.32092c-0.27453,0.39527 -0.68203,0.6302 -1.13816,0.81008c-2.45907,2.05185 -5.03257,4.16897 -7.6698,6.0376c-1.4565,1.62871 -2.90457,3.26415 -4.56526,4.60009c-1.2486,1.00444 -2.72941,1.6902 -4,2.66667c-2.10221,1.61558 -3.56627,3.92699 -5.44174,5.80103c-0.41345,0.41313 -0.83069,0.81761 -1.25214,1.21392c0.03767,0.58626 0.06701,1.17496 0.15348,1.74691l-0.34563,0.62254l0.25482,0.05663l-0.12231,0.55039c1.31456,0.65542 2.21756,2.0132 2.21756,3.58189c0,0.84052 -0.25924,1.62049 -0.70214,2.26431l-1.96966,2.9545l-0.14189,-0.09459c-0.2277,0.85362 -0.50893,1.68987 -0.8644,2.50034l-0.06626,0.82658c0,0 -0.54353,2.71764 -2.98786,3.17625c-1.61737,3.23163 -3.03616,6.54758 -4.69009,9.82814c-1.04703,2.07677 -2.66802,5.83076 -4.9325,6.80872c-2.07123,0.8945 -3.68711,1.48213 -4.94454,1.74285c1.43492,1.35973 1.99161,3.52674 3.31279,5.02916c2.61852,2.97774 5.54413,5.53417 8.3417,8.34294c4.43168,5.87478 9.25318,11.38094 13.7939,17.15434c1.36899,1.74064 2.77567,3.46776 3.92022,5.36354c0.53811,0.89131 0.65751,2.02247 1.30507,2.83774c0.49499,0.62319 1.40975,0.77316 1.99305,1.31458c4.11149,3.81621 6.93129,8.79966 10.19363,13.25464c2.94538,4.02216 5.58094,6.88524 7.23371,11.76439l0.20527,1.59824c0,0 0,4 -4,4c-3.18399,0 -3.83353,-2.53445 -3.96604,-3.56852c-1.3553,-3.77532 -3.51768,-5.78547 -5.92831,-9.06885c-2.95154,-4.02011 -5.4084,-8.65418 -9.1397,-12.07869c-0.82274,-0.75509 -1.97385,-1.14847 -2.67361,-2.01876c-2.01723,-2.50881 -3.39088,-5.85276 -5.44138,-8.46539c-4.45281,-5.6735 -9.22222,-11.04964 -13.53943,-16.84566c-0.72618,-0.72259 -1.45909,-1.42794 -2.19181,-2.12843c-0.18255,0.10424 -0.37106,0.20983 -0.56566,0.3168c-4.30459,2.36627 -14.05172,-2.47682 -15.37829,-6.96986c-0.08592,-0.29099 -0.14455,-0.58667 -0.18111,-0.8857c-0.33678,-0.03553 -0.65937,-0.08038 -0.96872,-0.13415c2.63807,-2.51006 4.78973,-7.74477 5.08684,-11.09459c0.6229,-0.72439 1.2057,-1.21953 1.63487,-1.28455c0.98739,-0.14962 1.94268,0.11412 2.85927,0.58083c-0.15507,-1.1218 -0.18273,-2.55379 -0.15745,-4.31138c0.02312,-1.60743 2.33522,-5.27632 3.01252,-6.57594c0.38018,-0.7295 0.74593,-1.44615 1.10611,-2.15209c-2.53529,-1.19796 -4.67366,-3.23798 -5.36673,-5.72858c-0.45921,-1.65022 -0.44087,-3.24243 -0.19198,-4.80108c-1.22462,1.65585 -2.43497,2.96562 -3.51692,3.58729z"></path></g><g fill-opacity="0.08235" fill="#b69edb" stroke="none" stroke-width="0.5"><path d="M307.75316,157.56365c0.84795,0.76294 2.31776,0.58507 2.78427,1.98462c0.42492,1.27475 0.82453,2.82307 0.22361,4.02492c-3.25918,6.51836 -8.87351,-1.41964 -11.61143,-2.91572c-0.23158,-0.12654 -0.72072,-0.33775 -1.27965,-0.58824c-1.13481,0.87407 -2.29447,1.59191 -3.37597,2.1042c-4.68517,2.21929 -13.23091,5.44335 -18.56066,4.11091c-2.54381,-0.63595 -4.41445,-2.97374 -6.66073,-4.25387c-2.38847,-1.36117 -5.45455,-1.92941 -7.62843,-3.5857c-2.00905,-1.5307 -3.28868,-4.93165 -5.2379,-6.25118c-2.99147,-2.02508 -10.01646,-5.37049 -11.68401,-8.38711c-0.3786,-0.6849 -1.56368,-0.22813 -2.28893,-0.52214c-0.58682,-0.23789 -1.06474,-1.37769 -1.48604,-1.75c-0.26041,-0.23013 -3.62507,1.19879 -3.99905,1.29473c-2.30498,0.59136 -5.29911,-0.01215 -6.84334,-1.96631c-1.92568,-2.43687 -3.09464,-6.2509 -3.67224,-10.35376c-6.37522,-4.60732 -9.68065,-10.73152 -10.93252,-18.24274c-0.04388,-0.23729 -0.06681,-0.48193 -0.06681,-0.73193c0,-2.11678 1.64424,-3.84952 3.72521,-3.99071c1.14532,-0.2063 2.37107,0.16454 3.39838,1.44252c1.58971,1.97763 0.67425,4.75299 1.65122,6.72347c0.51044,1.02953 1.22569,2.08671 2.05209,3.12676c0.20505,-1.83939 0.5198,-3.48643 0.92311,-4.80204c0.50368,-1.64303 4.83517,-3.51609 6.18462,-4.23848c1.21463,-0.65022 1.92311,-2.35276 3.56538,-2.26152c1.83032,0.10168 2.68968,1.73159 4.31915,2.14001c5.02928,1.26059 15.17543,3.45172 18.50927,7.78156c0.90754,1.17866 0.50582,2.4357 1.17157,3.52103c0.53338,0.86952 1.93698,1.36904 2.5,2.3074c3.60869,6.01449 -4.25651,10.77417 -7.91213,13.44723c-1.3356,0.97662 -4.72952,2.5559 -2.63392,3.93356c0.12479,0.08204 0.27868,0.10846 0.42193,0.15069c0.19372,0.0571 0.4246,0.26592 0.5878,0.14695c2.44364,-1.7814 2.92486,-4.29356 7.28681,-4.67063c4.95355,-0.42821 8.03188,0.79711 12.91612,1.13697c3.11106,0.21648 8.05936,-0.89476 11.18757,-0.89476c0.70513,-0.62236 1.63138,-1 2.64582,-1c0.24395,0 0.48279,0.02184 0.71469,0.06367c0.66433,0.11982 1.27163,0.4037 1.77846,0.80817c0.55928,0.30027 1.1617,0.65214 1.77228,1.02449c0.72735,-0.99786 1.90523,-1.64633 3.23457,-1.64633c0.75124,0 1.4541,0.20709 2.05462,0.56731c0.58003,0.34792 1.06458,0.83869 1.40502,1.42367c0.09653,0.10906 0.18041,0.20412 0.24891,0.27883c1.55106,1.69165 6.1461,2.48037 3.77036,5.95763c2.39388,3.14523 2.06146,6.61859 0.44738,9.7281c1.70618,1.23265 3.22639,2.77363 4.39355,3.82377z"></path><path d="M314.6667,97.08985c0.81667,7.73946 2.33737,13.10529 2.01663,21.44449c-0.12195,3.17065 -3.74982,4.87509 -6.5,3.5c-7.93077,-3.96538 -6.05309,-13.07118 -5.25,-19.99242c0.38711,-3.33625 -0.55826,-12.35922 -0.5,-13.75758c0.10841,-2.60184 2.62555,-4.7854 5.0666,-3.39051c0.29946,-0.07158 0.612,-0.10949 0.9334,-0.10949c2.20914,0 4,1.79086 4,4c0,0.16216 -0.00965,0.32207 -0.02841,0.47918c0.35002,1.86114 -0.12407,4.16974 0.26177,7.82633z"></path><path d="M267.34457,89.59392c0.92752,0.30917 1.16944,2.81971 1.24214,3.55392c0.37149,3.75167 -1.55713,12.22722 -7.40337,8.88651c-1.84494,-1.05425 -2.87621,-5.84802 -2.84563,-9.89574c-0.10053,-0.35074 -0.15437,-0.72121 -0.15437,-1.10426c0,-0.60586 0.1347,-1.18025 0.37577,-1.69487c0.21348,-1.2724 0.58391,-2.28553 1.12423,-2.80513c3.52946,-3.3941 7.63057,-1.40241 7.63057,3.00848z"></path><path d="M224.43334,97.28434c1.01229,0.57845 2.40694,0.7771 3.18865,1.58458c0.11922,0.12315 0.22418,0.26045 0.31135,0.41542c1.60899,2.86037 4.11647,10.71899 -0.52986,11.88057c-3.99806,0.99952 -6.47077,-5.31657 -6.85071,-8.40285c-0.10709,-0.86991 -0.44366,-3.00673 0.43331,-3.50786z"></path><path d=""></path><path d=""></path><path d="M315.68334,130.53435c0,-1.91503 0.80249,-2.93648 1.92422,-3.46634c-0.3102,2.09207 -0.53837,4.19342 -0.76892,6.30729c-0.7016,-0.6201 -1.1553,-1.50471 -1.1553,-2.84095z"></path><path d="M279.39345,181.28434c0.47781,-0.02916 1.80154,-1.27495 2.52498,-1.54473c3.87754,-1.446 14.18103,-5.52488 17.09262,-0.99412c0.49559,0.7712 -0.33533,1.8476 -0.15255,2.7459c0.11365,0.55854 1.24285,1.20293 1.07484,2.04295c-0.4353,2.17649 -1.93941,3.65583 -3.87545,4.65525c-3.07366,1.58668 -8.57022,3.08214 -11.42581,5.32573c-0.91411,0.7182 -1.40184,1.84905 -2.63808,2.15811c-1.58112,0.39528 -2.71408,-0.17839 -4.21409,-0.22573c-1.20648,-0.03807 -3.38187,0.43886 -4.33264,-0.55926c-1.25579,-1.31832 -3.47017,-7.38743 -4.00489,-9.31792c-0.26323,-0.95034 -0.7613,-3.21346 0.29369,-3.81632c0.69581,-1.17896 1.97917,-1.96986 3.44726,-1.96986c1.22077,0 2.31382,0.54687 3.04751,1.40899c0.86006,0.23653 1.6119,0.18566 3.1626,0.09101z"></path><path d="M301.94235,294.85809c2.19545,4.11462 5.48833,7.39724 7.31919,11.70745c1.63702,3.85388 -0.85919,6.67871 -5.13098,5.82435c-1.98951,-0.3979 -3.25605,-4.44427 -3.83739,-5.84775c-1.54631,-3.73312 -9.03425,-13.40191 -11.24084,-16.8682c-0.30517,-0.47939 -1.05704,-1.55581 -1.72055,-2.77922c-0.86216,-1.23559 -1.52477,-2.73965 -2.23539,-3.61309c-1.81784,-2.23434 -4.47223,-3.67995 -6.24148,-5.91886c-2.31971,-2.9355 -4.43043,-5.8312 -7.34375,-8.15625c-5.10684,-4.07565 -14.105,-11.42253 -19.78416,-13.42821c-4.33986,-1.53269 -9.42222,-0.81649 -13.04277,-4.1079c-3.35799,-3.05272 -4.99244,-6.51951 -1.25089,-10.26106c0.00544,-0.00544 0.0107,-0.01111 0.0158,-0.01702c-0.01046,-0.11793 -0.0158,-0.23733 -0.0158,-0.35798c0,-0.42642 0.06673,-0.83726 0.19031,-1.22264c0.51664,-1.61114 2.02698,-2.77736 3.80969,-2.77736c1.30172,0 2.4582,0.6218 3.18865,1.58458c0.11922,0.12315 0.22418,0.26045 0.31135,0.41542c0.14733,0.26191 0.25458,0.54773 0.33193,0.84903c0.10933,0.3645 0.16807,0.75088 0.16807,1.15097c0,0.0017 0,0.0034 0,0.00509c0.06867,1.14554 -0.07782,2.35528 0,3.26569c0.10862,1.27068 2.33988,1.02031 3.47095,1.60946c3.37945,1.76028 6.92404,2.91724 10.3179,4.79204c11.05092,6.10463 20.63943,14.68533 28.89908,23.82354c1.5631,1.72937 5.07539,5.56179 6.53725,8.83743c2.97818,3.36997 5.34967,7.86557 7.28382,11.49048z"></path><path d="M269.68334,250.28434c-1.39483,-0.17435 -2.38025,-0.75684 -3.04358,-1.58373c-0.5232,0.27039 -1.10373,0.4632 -1.70642,0.58373c-3.38544,0.67709 -4.65019,-3.34708 -5.92709,-5.98013c3.73853,-0.70351 6.99239,-4.21639 9.31782,-6.86401c0.20807,0.41062 0.3693,0.82879 0.49258,1.25758c1.28615,-0.9685 2.83352,-1.50414 4.36669,-1.16343c1.35895,0.30199 6.23439,2.25657 5.63101,4.46897c1.26092,0.6731 2.11899,2.00186 2.11899,3.53103c0,0.5756 -0.12158,1.12281 -0.34046,1.61734c0.45598,0.63023 0.88545,1.28544 1.4476,1.77552c2.30159,2.00652 5.22001,3.25675 7.47128,5.27872c1.9987,1.79513 2.78824,4.11485 4.30541,6.11378c1.16253,1.53168 3.1305,1.46399 4.19436,3.49585c0.77413,1.47849 1.13833,3.37683 2.2803,4.67044c6.66544,7.55054 17.99247,17.60508 21.76684,26.77526c1.76589,4.2904 6.68687,7.46226 9.01665,11.6531c0.53781,0.96743 1.31367,3.25291 0.73858,4.21141c-1.94029,3.23381 -3.55719,3.63803 -6.791,1.69775c-0.47889,-0.28733 -4.20573,-6.65722 -4.84409,-7.38682c-5.43108,-6.20736 -9.24348,-13.22313 -14.88786,-19.35581c-5.12402,-5.56732 -10.16457,-11.49976 -14.16251,-17.91359c-0.64607,-1.03648 -2.66149,-1.46362 -3.52354,-2.5545c-2.23276,-2.82547 -2.55386,-4.93188 -6.06118,-7.19743c-1.20985,-0.7815 -6.97668,-5.16075 -8.58706,-7.65073c-1.06991,0.17793 -2.39185,0.62992 -3.27334,0.51973z"></path><path d="M249.2073,220.99076c0.0911,-0.22907 -0.54846,-5.12098 0.52879,-5.73656l0.05028,-0.02873c-0.22361,-0.61571 -0.37794,-1.24724 -0.37794,-1.91474c0,-1.0231 0.24744,-2.34766 -0.14835,-3.41756c-1.82699,-4.93883 -6.97425,-9.19891 -7.9079,-12.93349l-1.8661,-1.6452c-1.711,-0.97771 0.37577,-6.79419 0.44726,-7.61119c0.10096,-1.15368 0.47782,-2.42846 0.5,-3.56503c0.09378,-4.80483 -1.23087,-10.65024 4.43991,-11.89101c0.86591,-0.18946 2.07034,-0.33886 3.02889,0.20889c3.80524,2.17443 1.34926,10.49777 1.2812,13.90925c-0.05738,2.87588 -0.11393,5.75517 0,8.62937c0.0177,0.44651 1.95851,1.83093 2.07843,1.96116c1.39311,1.51293 2.84367,4.02542 3.77712,5.77565c2.13007,3.99388 1.82693,7.9591 3.20918,12.06927c0.18458,0.54885 0.44406,1.27497 0.69497,2.08192c0.06376,0.17528 0.11971,0.36052 0.16729,0.55649c0.50738,1.75203 0.89528,3.7622 0.40225,5.15083c-4.2263,0.06543 -8.52348,1.39671 -10.89811,4.09938c-0.13006,0.14803 -0.25497,0.29605 -0.37483,0.44401c-0.21208,-1.81562 0.04637,-3.82614 0.96765,-6.14272z"></path><path d="M281.17918,206.84641c1.53222,-1.53222 5.92619,-4.93228 8.09557,-3.69263c4.9526,2.83006 2.66343,7.06558 -0.35534,10.23467c-0.84259,0.88455 -3.19468,0.67416 -4.0108,1.83622c-2.31005,3.28925 -3.78516,7.61676 -8.49018,6.60441c-4.15339,-0.89366 -6.73068,-10.08297 -3.68235,-11.82487c0.69581,-1.17896 1.97917,-1.96986 3.44726,-1.96986c1.17887,0 2.23863,0.50997 2.9707,1.32134c0.21969,0.09189 1.84585,-2.32998 2.02514,-2.50928z"></path></g><g fill-opacity="0.08235" fill="#b69edb" stroke="none" stroke-width="0.5"><path d="M219.20516,118.5188c0,0 -2.2188,-3.3282 1.1094,-5.547c3.3282,-2.2188 5.547,1.1094 5.547,1.1094c0.73416,1.10736 1.50646,2.14912 2.30708,3.16179c0.65784,-0.29883 1.49832,-0.41828 2.56577,-0.18107c1.14947,0.25544 1.88536,0.77406 2.35157,1.37877c0.88072,-0.61907 1.83791,-1.16034 2.67798,-1.65235c1.25568,-0.73542 2.9249,-0.32512 4.36418,-0.11054c3.90441,0.58211 9.56911,2.59907 12.35936,5.60038c0.32587,0.35052 0.69259,0.69875 1.06102,1.05361c0.35764,0.08647 0.70892,0.17682 1.04849,0.27121c0.71433,-0.31621 1.42608,-0.47736 2.12581,-0.21031c7.45229,2.84412 5.0817,11.41649 1.50965,15.84914c-0.04912,0.06095 -0.10101,0.11956 -0.15532,0.17613c1.69941,-0.26693 3.43537,-1.0163 5.08077,-0.57049c0.10922,0.02959 0.25995,0.12534 0.44159,0.26936c0.94864,0.07732 1.91504,0.21564 2.82286,0.1847c2.53538,-0.08641 5.0773,-0.13326 7.61055,0.00192c2.4232,0.1293 4.73137,0.57313 6.94455,1.26056c-0.32641,-1.1718 -0.341,-2.91794 1.67041,-4.25888c3.3282,-2.2188 5.547,1.1094 5.547,1.1094c2.12382,3.19631 3.45824,6.10299 6.16689,8.72371l0.29376,-0.08261c0,0 2.51524,1.25762 2.27334,3.77286c3.02676,2.42035 5.94148,4.98997 8.83188,7.39863l0.60102,0.57779c0,0 2.82843,2.82843 0,5.65685c-2.82843,2.82843 -5.65685,0 -5.65685,0l-0.06564,-0.08888c-1.90945,-1.5912 -3.85661,-3.33481 -5.86489,-5.07245c-2.15795,3.06046 -7.80895,3.45812 -10.77363,3.32793c-3.908,-0.17161 -9.0376,0.17704 -12.82742,-0.7957c-0.99264,-0.25479 -1.74355,-1.11036 -2.70928,-1.45331c-1.18446,-0.42063 -2.54518,-0.2787 -3.68141,-0.81615c-1.04873,-0.49607 -1.72055,-1.57322 -2.69638,-2.20064c-2.06656,-1.32873 -4.63842,-1.84439 -6.53863,-3.40175c-0.30578,-0.2506 -0.56907,-0.54205 -0.80996,-0.85503c-0.97026,-0.0682 -1.93343,-0.15647 -2.76533,-0.61612c-2.38869,-1.31981 -4.04425,-4.11022 -4.66187,-7.00729c-1.38883,0.32078 -2.80018,0.4883 -3.77712,0.4843c-7.52592,-0.03083 -17.11456,-6.68161 -18.60248,-14.2863c-0.30727,-1.57044 -0.26739,-3.23725 -0.06375,-4.9017c-2.00695,-2.35141 -3.9171,-4.65507 -5.66197,-7.25987z"></path><path d="M228.86251,104.51853c0.57608,0.59244 1.00416,1.47291 1.00416,2.78147c0,4 -4,4 -4,4l-5,-4c0,-0.88889 0,-1.77778 0,-2.66667c0,0 0,-4 4,-4c3.59484,0 3.95896,3.23071 3.99584,3.8852z"></path><path d="M264.5035,101.84723c-3.88057,0.97014 -4.85071,-2.91043 -4.85071,-2.91043l-0.42187,-1.80734c-0.2364,-1.93254 -0.35906,-3.88253 -0.36422,-5.82947c0,0 0,-4 4,-4c4,0 4,4 4,4c-0.00516,1.61554 0.09698,3.23477 0.30244,4.83719l0.24479,0.85933c0,0 0.97014,3.88057 -2.91043,4.85071z"></path><path d="M246.5912,201.3382c-1.62607,-3.21169 -3.79963,-6.16553 -5.7559,-9.2085c0,0 -2.16303,-3.36471 1.20168,-5.52774c3.36471,-2.16303 5.52774,1.20168 5.52774,1.20168c2.77646,4.31907 6.11375,8.64186 7.75908,13.55203c1.31637,3.92846 1.23193,7.78913 2.20446,11.60887c0.20544,0.47457 0.36939,0.94654 0.40796,1.39731c0.13599,0.40886 0.2876,0.81728 0.45788,1.22531l-0.19913,0.58848l0.30747,-0.03843l0.32551,2.60407c0.02552,0.18258 0.03871,0.36912 0.03871,0.55873c0,2.20914 -1.79086,4 -4,4c-1.7477,0 -3.23361,-1.12086 -3.77811,-2.68294l-0.96721,-2.57923l0.07634,-0.02863c-0.05455,-0.07297 -0.10816,-0.14675 -0.1608,-0.22139c-0.81423,-1.15458 -0.49517,-2.79133 -0.93422,-4.13418c-0.55724,-1.70433 -1.62832,-3.19529 -2.42937,-4.79953l-1.27961,-2.23621c0,0 -1.87016,-3.27278 1.19749,-5.27969z"></path><path d="M298.4188,296.96153c-3.3282,2.2188 -5.547,-1.1094 -5.547,-1.1094l-1.16977,-2.06941c-0.62347,-2.11447 -1.11308,-4.67216 -2.88984,-6.21761c-0.75826,-0.65954 -1.73013,-1.05927 -2.44061,-1.77002c-3.35107,-3.35233 -6.47335,-6.54909 -10.33489,-9.4639c-1.38524,-0.79013 -2.92732,-1.35342 -4.15573,-2.37039c-2.15518,-1.78422 -3.33481,-4.77593 -5.58522,-6.59645c-2.5665,-2.07623 -5.69389,-3.24468 -8.15021,-5.46591c-2.87762,-2.6022 -6.32708,-5.15163 -9.97884,-6.97767c-2.848,-1.42412 -5.27531,0.74268 -8.16586,-0.47143c-1.94158,-0.81552 -3.71021,-2.32374 -4.7682,-4.14459c-1.14232,-1.96597 0.0329,-7.02447 0.35514,-8.99569c0,0 0.6576,-3.94558 4.60317,-3.28798c3.94558,0.6576 3.28798,4.60317 3.28798,4.60317c-0.24902,1.46112 -0.00433,3.22028 -0.97819,4.33764c-0.42653,0.48938 1.18637,-0.60378 1.83336,-0.65694c1.18936,-0.09773 2.40723,-0.16355 3.57962,0.05922c3.23029,0.61378 6.66288,2.81538 9.29877,4.69587c4.66531,3.32832 9.70061,6.48758 14.22514,10.17559c2.25178,1.83546 3.60504,5.04353 5.74811,6.73688c0.93399,0.738 2.1184,1.08641 3.17761,1.62961c7.87791,5.8785 16.07344,12.25785 19.00132,21.8818l0.16356,-0.06941c0,0 2.2188,3.3282 -1.1094,5.547z"></path><path d="M322.98886,303.54437c-3.57771,1.78885 -5.36656,-1.78885 -5.36656,-1.78885l0.04438,-0.05552c-1.91108,-2.56339 -3.15859,-6.01641 -5.53484,-8.14765c-2.02823,-1.8191 -4.39772,-3.31794 -6.08465,-5.45736c-1.44675,-1.83483 -2.20261,-4.12174 -3.33313,-6.16664c-1.12251,-2.03042 -1.62408,-1.8083 -3.2328,-3.70951c-1.97123,-2.32963 -3.63794,-4.99167 -5.62185,-7.28134c-3.29824,-3.80656 -7.17987,-6.1373 -9.79904,-10.65294c0,0 -1.98456,-3.47297 1.48842,-5.45753c3.47297,-1.98456 5.45753,1.48842 5.45753,1.48842c2.25095,4.01999 5.89398,5.97624 8.86762,9.34706c0.82425,0.93434 1.30739,2.12892 2.0861,3.10154c2.48757,3.10699 5.69211,5.76305 7.72591,9.24095c0.97837,1.67306 1.46458,3.64655 2.66687,5.16669c1.43535,1.81482 3.57307,2.94698 5.24869,4.54264c2.7912,2.658 4.17429,6.15279 6.46516,9.18568l0.71104,1.27781c0,0 1.78885,3.57771 -1.78885,5.36656z"></path><path d="M289.2,212.63333c0,2.96817 -2.20251,3.73383 -3.33882,3.93134c-1.84542,2.38354 -5.07143,6.56858 -5.94205,6.59438c-9.03701,0.26786 -6.9957,-4.20321 -6.62388,-9.06011c0,0 0.86772,-3.90475 4.77247,-3.03703c0.51269,0.11393 0.9431,0.28022 1.304,0.48315c0.49579,-0.47759 0.99131,-0.95554 1.42205,-1.47247l4.40622,-1.43926c0,0 4,0 4,4z"></path><path d="M268.53335,181.3c0.67799,0 1.24107,0.11492 1.7087,0.3058c1.09563,-0.04104 2.18442,-0.12196 3.27267,-0.21304c0.41973,-1.11963 1.39928,-2.42609 3.68529,-2.42609c1.99564,0 2.99564,0.99565 3.49672,1.99346c0.16745,0.00091 0.33521,0.00306 0.50328,0.00654c1.96307,0.04062 4.0743,-0.56286 5.88738,0.19082c2.01752,0.83866 4.35827,2.20314 4.9388,4.30949c1.86325,6.76045 -9.45551,12.55641 -14.61503,9.74407c-2.78731,-1.5193 -3.79478,-3.60578 -4.13053,-5.92984c-1.55847,0.16817 -3.11818,0.34278 -4.74728,0.35213l-4,-4.33333c0,0 0,-4 4,-4z"></path><path d=""></path><path d=""></path></g><path d="M313.87626,149.51169c-0.93615,-2.573 -2.06753,-5.96837 -2.75001,-8.68577c-1.16527,-3.18315 -2.41319,-6.28238 -3.08912,-9.64836c-1.82014,-1.01646 -3.17046,-2.79799 -3.17046,-5.04574c0,-0.78672 0.53276,-1.80339 1.35649,-2.79581c0.76793,-1.45554 2.11678,-2.55709 3.738,-2.9961c1.83267,-0.90645 3.67854,-1.02194 4.61738,0.62102c1.76845,1.04371 2.9548,2.96876 2.9548,5.17089c0,0.38572 -0.0364,0.76294 -0.10594,1.12841l0.5226,0.6097l-0.14373,0.1232c0.17748,0.12266 0.35142,0.2511 0.52139,0.38601c1.59924,1.26946 1.88578,4.8424 2.87749,6.70112c5.49037,10.29033 10.17778,20.49936 11.79345,32.16007l0.03475,2.89149c0,0 0,3.50519 -3.09358,4.32841c-0.62042,0.3226 -1.32547,0.50492 -2.07309,0.50492c-1.89241,0 -3.51199,-1.16814 -4.17701,-2.82269l-0.85603,-1.99739c-4.20773,-6.68767 -6.71661,-13.36911 -8.95737,-20.63338z" fill="#20182e" stroke="none" stroke-width="0.5"></path><path d="M327.75536,167.87428c0.55262,0.65986 0.94464,1.59602 0.94464,2.92421c0,4.5 -4.5,4.5 -4.5,4.5l-4.69897,-3.40859c-1.12576,-4.50568 -2.62048,-8.54518 -4.18817,-12.86349c-1.03428,-2.84899 -0.43919,-5.82732 -1.15914,-8.52737c-0.92225,-3.45873 -2.65038,-6.58872 -4.08987,-9.92792c0,0 -1.77264,-4.13615 2.36352,-5.90879c4.13615,-1.77264 5.90879,2.36352 5.90879,2.36352c1.60655,3.77513 3.63103,7.4436 4.5768,11.40542c0.59077,2.47474 -0.12233,5.00791 0.84086,7.47263c1.56397,4.00206 2.88849,7.85369 4.00155,11.97038z" fill="#2c233c" stroke="none" stroke-width="0.5"></path><path d="M327.3629,170.85423c3.97713,1.71232 2.34858,5.7837 2.34858,5.7837c-1.11119,2.7697 -2.77924,5.38604 -3.02966,8.39953c-0.41321,4.9725 0.12439,9.46446 -1.82236,14.20563l-0.58072,2.61324c-0.41294,2.05916 -2.23136,3.61034 -4.41207,3.61034c-2.48528,0 -4.5,-2.01472 -4.5,-4.5v-3c-0.73465,-2.08425 0.41601,-5.00481 0.72038,-7.02655c0.93012,-6.17811 1.61578,-12.19437 2.30714,-18.47039l-0.02752,-1.50306c0,0 0,-1.38636 0.76949,-2.62008c-0.10283,-0.51907 -0.10283,-0.88144 -0.10283,-0.88144l0.5509,0.28918c0.04746,-0.05184 0.09678,-0.10284 0.14802,-0.15286c-1.26778,-1.50853 -3.05636,-3.59836 -3.72396,-5.16606c-0.67647,-1.58853 -0.68317,-3.4366 -1.49987,-4.9578c0,0 -2.01246,-4.02492 2.01246,-6.03738c4.02492,-2.01246 6.03738,2.01246 6.03738,2.01246c0.86284,1.80285 1.16796,3.82423 1.83346,5.70887c0.44806,1.26888 1.73582,2.05676 2.59861,3.08943l1.043,5.21416c0,0 0,1.38636 -0.76949,2.62008c0.06867,0.34663 0.09148,0.62338 0.09906,0.769z" fill="#372d49" stroke="none" stroke-width="0.5"></path></g></g></svg>