<svg version="1.1" xmlns="http://www.w3.org/2000/svg" xmlns:xlink="http://www.w3.org/1999/xlink" width="927.86248" height="13.875" viewBox="0,0,927.86248,13.875"><defs><radialGradient cx="240" cy="180" r="326.2" gradientUnits="userSpaceOnUse" id="color-1"><stop offset="0" stop-color="#ff0000" stop-opacity="0.23137"></stop><stop offset="1" stop-color="#ff0000" stop-opacity="0"></stop></radialGradient><radialGradient cx="240" cy="180" r="463.93124" gradientUnits="userSpaceOnUse" id="color-2"><stop offset="0" stop-color="#ff0000"></stop><stop offset="1" stop-color="#ff0000" stop-opacity="0"></stop></radialGradient></defs><g transform="translate(223.93124,-173.0625)"><g stroke="none" stroke-width="0" stroke-miterlimit="10"><path d="M240,186.9375c180.15529,0 326.2,-3.10601 326.2,-6.9375c0,-3.83149 -146.04471,-6.9375 -326.2,-6.9375c-180.15529,0 -326.2,3.10601 -326.2,6.9375c0,3.83149 146.04471,6.9375 326.2,6.9375z" fill="url(#color-1)"></path><path d="M240,182.9375c256.22216,0 463.93124,-1.31516 463.93124,-2.9375c0,-1.62234 -207.70908,-2.9375 -463.93124,-2.9375c-256.22216,0 -463.93124,1.31516 -463.93124,2.9375c0,1.62234 207.70908,2.9375 463.93124,2.9375z" fill="url(#color-2)"></path></g></g></svg>