<svg version="1.1" xmlns="http://www.w3.org/2000/svg" xmlns:xlink="http://www.w3.org/1999/xlink" width="135.5" height="135.5" viewBox="0,0,135.5,135.5"><g transform="translate(-172.25,-112.25)"><g stroke="none" stroke-miterlimit="10"><path d="M172.25,247.75v-135.5h135.5v135.5z" fill="#0a0610" stroke-width="0"></path><path d="" fill="#1d2d67" stroke-width="0.5"></path><path d="" fill="#1d2d67" stroke-width="0.5"></path><g fill="#2be03d" stroke-width="0"><path d="M190.86689,221.05555l31.39299,-31.39299l7.87044,7.87044l-31.39299,31.39299z"></path><path d="M190.70404,216.17768l16.23563,-3.11735l-3.11735,16.23563l-16.23563,3.11735z"></path><path d="M198.14728,185.36581l-1.33852,-11.77976l11.77976,1.33852l1.33852,11.77976z"></path><g><path d="M236.82229,219.66462l-19.66576,-15.28957l4.60652,-6.1381l19.66576,15.28957z"></path><path d="M206.47348,178.5712l15.28957,19.66576l-6.1381,4.60652l-15.28957,-19.66576z"></path></g><path d="M214.22672,192.60657l16.01254,-16.01254l13.16671,13.16671l-16.01254,16.01254z"></path><path d="M229.48925,177.34403c0,0 22.33701,-21.06292 33.38073,-29.79576c9.77601,-7.73041 29.54333,-19.96159 29.54333,-19.96159c0,0 -10.64544,18.97494 -18.47466,28.87591c-8.67054,10.96493 -31.28269,34.04815 -31.28269,34.04815z"></path><path d="M234.63419,221.85272l-1.33852,-11.77976l11.77976,1.33852l1.33852,11.77976z"></path></g><path d="M220.06422,204.81078c1.41421,1.41421 0,2.82843 0,2.82843c-0.06472,0.05985 -0.12804,0.12172 -0.19038,0.18505c-0.12335,0.20249 -0.27836,0.35945 -0.44456,0.48113c-0.4217,0.47146 -0.84234,0.94447 -1.40057,1.21624c-2.66884,1.29929 -5.68467,0.19668 -8.52894,0.37412c-0.21815,0.14388 -0.46614,0.24619 -0.73269,0.29564c-0.34377,0.34778 -0.69956,0.62795 -1.07058,0.80647c-0.08895,0.0428 -0.17883,0.08279 -0.26956,0.12024l0.03306,0.0529l-1.58703,0.99189c-0.77483,0.87673 -1.54348,1.76114 -2.3196,2.66476c-0.08817,0.30784 -0.2568,0.67566 -0.57931,0.95665c-0.65533,1.19155 -1.65261,2.31328 -2.17458,3.07171c-2.62978,3.82113 -6.35915,6.78317 -8.663,10.86126l-0.69494,0.94677c-0.17123,0.37639 -0.48268,0.74726 -1.04533,0.93689c-0.15976,0.07419 -0.33851,0.13202 -0.53323,0.15696c-0.11667,0.19308 -0.26507,0.36485 -0.43797,0.50807c-0.44361,0.39645 -1.19551,0.77505 -2.20538,0.22993c-0.03846,-0.02025 -0.07619,-0.04172 -0.11312,-0.06435c-0.98846,-0.59159 -1.04776,-1.43154 -0.93261,-2.0167c0.0404,-0.25949 0.13069,-0.50246 0.26074,-0.71881l0.90496,-1.57102c0.17093,-0.45642 0.35629,-0.90547 0.55451,-1.3478c0.48892,-2.10394 1.49386,-3.8452 1.77086,-6.29657c0.21224,-1.8783 -0.5203,-3.14564 0.89081,-4.96332c1.65165,-2.12752 4.79954,-1.96484 7.1746,-2.44419c0.00355,-0.00886 0.00716,-0.01767 0.01082,-0.02642c0.17664,-0.59648 0.58261,-0.92377 0.97494,-1.10336l1.19998,-0.80929c1.64151,-2.97863 4.11325,-4.80397 6.94652,-6.15404c0.70182,-1.0685 1.2518,-2.29402 2.34459,-2.89009c0.08596,-0.04689 0.17269,-0.09199 0.26013,-0.13545l-0.04525,-0.05818l0.81844,-0.63656c0.35393,-0.88254 0.71555,-1.80748 1.15627,-2.50441c-0.72094,-0.43059 -0.93711,-1.29526 -0.93711,-1.29526l-0.00571,-0.42507c-0.34081,-0.5484 -0.71273,-1.07535 -1.10249,-1.58974c-2.11451,-2.37379 -4.04536,-4.95747 -6.11528,-7.48699c-1.33781,-0.27929 -2.80576,-0.23761 -3.8877,-1.03197c-0.24947,-0.18316 -0.72692,-0.748 -1.24068,-1.47824c-0.89581,-0.25109 -1.29615,-1.18522 -1.29615,-1.18522l-0.91171,-2.53784c0,-1.33333 0,-2.66667 0,-4c0,0 0,-1.01111 0.71892,-1.59548c-0.17253,-0.36475 -0.71474,-1.78184 0.7888,-2.641c1.73649,-0.99228 2.72876,0.74421 2.72876,0.74421c1.51734,2.7188 4.25424,4.57841 5.68499,7.39402c0.55059,1.08352 1.69509,2.29978 1.24271,3.42783c-0.0078,0.01944 -0.01568,0.03877 -0.02364,0.05797c0.01487,0.03249 0.02975,0.06498 0.04462,0.09747c2.05557,1.14602 3.52603,2.65273 4.98698,4.51647c0.02583,-0.00099 0.05178,-0.00149 0.07785,-0.00149c0.78153,0 2.60391,0 3.96538,0c0.0304,-0.05582 0.06465,-0.11102 0.10316,-0.16525c0.26234,-0.38795 0.64402,-0.5956 0.97745,-0.70675c0.00059,-0.00022 0.00117,-0.00044 0.00176,-0.00066c0.28053,-0.1052 0.5348,-0.15262 0.76438,-0.1572c0.03539,-0.01429 0.07047,-0.02937 0.10525,-0.04523c0.18751,-0.26528 0.39972,-0.53447 0.63802,-0.80807c0.17042,-0.19567 0.36889,-0.35672 0.58595,-0.49484c0.41257,-0.94978 1.16948,-1.8186 2.06344,-2.62105c0.35255,-0.51801 0.72183,-1.00789 1.131,-1.41516c1.01041,-1.00571 2.28209,-1.71107 3.3807,-2.6196c0.00008,-0.00007 0.00017,-0.00014 0.00025,-0.00021c0.14583,-0.13265 0.29418,-0.26451 0.44437,-0.39581c1.77286,-1.69493 2.79806,-4.09363 4.31839,-5.86943c1.21529,-1.41949 3.03748,-2.47329 4.6235,-3.64439c0.17568,-0.17948 0.35397,-0.35358 0.53537,-0.52125c0.31039,-0.28691 0.64683,-0.53743 1.00061,-0.76392c0.82481,-0.80116 1.56856,-1.68401 2.32422,-2.55111c0.6821,-0.78269 0.96363,-2.15874 1.97045,-2.41207c0.23346,-0.05874 0.46853,-0.09574 0.70488,-0.11529l-0.03077,-0.15386l1.59776,-0.31955c0.15072,-0.16132 0.30691,-0.31763 0.46989,-0.46777c0.49474,-0.45577 1.04314,-0.84809 1.60659,-1.22222c0.13197,-0.1821 0.26328,-0.35893 0.3944,-0.52865c1.66796,-0.99063 2.958,-2.11946 4.16191,-3.32294c1.14354,-1.38178 2.04982,-2.65724 3.77903,-3.90052c0.17053,-0.16445 0.34457,-0.32904 0.52271,-0.49365c0.65073,-0.60128 1.43101,-1.03058 2.21659,-1.45504c1.06518,-0.80125 2.06721,-1.6277 3.05417,-2.56532c0.29562,-0.55581 0.54064,-1.14515 0.99978,-1.72717c1.47068,-1.86425 2.20223,-2.07538 4.20387,-3.32928l0.2164,0.00891l-0.03311,-0.08829l1.95684,-0.73382c0.11985,-0.04817 0.24544,-0.08506 0.37547,-0.10938c0.17914,-0.12132 0.37845,-0.23331 0.60485,-0.33319c0.01497,-0.0066 0.02996,-0.01317 0.04495,-0.0197l-0.00774,-0.00996l2.23593,-1.73906c0.11698,-0.0928 0.24459,-0.17278 0.38071,-0.23782c1.13396,-1.67903 5.03687,-3.62464 6.56849,-4.97046c3.85929,-3.39111 5.41774,-7.09311 10.49289,-8.8101l1.86944,-0.93472c0.27793,-0.14633 0.5945,-0.22914 0.93041,-0.22914c1.10457,0 2,0.89543 2,2c0,0.60423 -0.26795,1.14588 -0.6915,1.5126l-0.08862,0.07754c0.40061,1.54494 -1.1576,2.23748 -1.1576,2.23748c-0.78106,0.34649 -1.69658,0.6928 -2.61273,1.07881c-2.97003,3.38823 -6.49184,6.18199 -10.18157,9.14025c-2.06868,1.65857 -2.67595,3.89237 -4.68413,5.69357c-4.6427,4.16417 -9.00263,8.73444 -13.41963,13.17396l-0.25011,0.44519c0,0 -0.07411,0.11117 -0.21276,0.25689l-0.21485,0.37599l-0.03914,-0.02237c-0.02276,0.06602 -0.04704,0.13165 -0.07296,0.19687c-1.1869,2.98628 -5.53944,4.54166 -7.61348,6.89363c-1.867,2.11719 -3.29062,3.61893 -5.43451,5.43648c-1.76445,1.49587 -2.54208,3.93536 -4.11689,5.62054c-1.25395,1.34183 -3.0161,2.09824 -4.47868,3.20899c-1.91923,1.45755 -2.94018,3.47495 -4.45797,5.22009c-1.24994,1.43718 -2.85882,2.41337 -4.31773,3.52162c-0.07396,0.16712 -0.15726,0.329 -0.25382,0.48334c-1.11324,1.77929 -1.78607,2.38074 -3.07857,3.65664c-0.37397,1.06744 -1.20583,1.28095 -1.78985,1.28744l-0.91867,0.91867l-0.22973,-0.22973c-0.71766,0.91501 -1.50262,1.70911 -2.6093,2.80368c-0.04451,0.19043 -0.09549,0.37844 -0.15268,0.5632c-0.13654,0.44111 -0.63493,0.70145 -0.94092,1.05171l-0.19786,0.31658c-0.0144,0.03848 -0.02591,0.07835 -0.0341,0.11979c-0.03734,0.18894 0.12213,0.31667 0.31265,0.43475c0.47423,-0.0665 1.03809,0.04773 1.60196,0.61159z" fill="#1c9228" stroke-width="0.5"></path></g></g></svg>