<svg version="1.1" xmlns="http://www.w3.org/2000/svg" xmlns:xlink="http://www.w3.org/1999/xlink" width="240.96768" height="254.59279" viewBox="0,0,240.96768,254.59279"><g transform="translate(-185.09898,-43.1653)"><g stroke="none" stroke-width="0.5" stroke-miterlimit="10"><path d="" fill="#6390d6"></path><g><path d="M267.25621,71.22163l0.08823,-0.14389l-0.05876,-0.01469l0.5204,-2.08158c0.13316,-0.5868 0.65794,-1.02485 1.28504,-1.02485c0.72775,0 1.3177,0.58995 1.3177,1.3177v1.05416l0.10999,-0.02499c0.40596,-0.9865 0.84899,-1.94529 1.33755,-2.86753l0.48106,1.1714c0.19438,-0.21755 0.49754,-0.3872 0.97034,-0.3872c1.3177,0 1.3177,1.3177 1.3177,1.3177c0,1.63448 -0.00022,3.29253 -0.10338,4.93691c0.37816,0.2316 0.63046,0.64859 0.63046,1.12451v1.58124h-0.12958c0.46569,2.67045 0.69382,5.80312 0.08177,7.9944c-0.26451,0.94704 -1.70403,3.09778 -3.11663,3.07884c-0.04592,0.10704 -0.09342,0.21754 -0.1425,0.33179l-0.07135,0.06125l0.02803,0.01682l-0.77819,1.29699c-0.2276,0.39475 -0.65395,0.66046 -1.14234,0.66046c-0.72153,0 -1.30762,-0.57993 -1.31757,-1.2991l-0.12254,0.12254c-0.10206,0.10206 -0.22078,0.18746 -0.35174,0.25175l-0.07374,0.36867c-0.11061,0.61588 -0.64918,1.08321 -1.2969,1.08321c-0.08426,0 -0.16667,-0.00791 -0.24654,-0.02302c-0.23914,0.33311 -0.62981,0.5501 -1.07116,0.5501c-0.72775,0 -1.3177,-0.58995 -1.3177,-1.3177v-2.10832h0.46603c-0.2727,-3.1171 0.44496,-5.98019 0.7401,-9.08204c-0.00885,-0.5685 0.02084,-1.10347 0.10624,-1.58475c0.01239,-0.3489 0.01691,-0.70162 0.01173,-1.05881l0.07947,-0.11652l-0.0603,-0.01206l0.25875,-1.29376c0.11061,-0.61588 0.64918,-1.08321 1.2969,-1.08321c0.08053,0 0.15937,0.00722 0.23591,0.02106c0.02157,-0.93081 0.03337,-1.86844 0.03751,-2.81746z" fill="#6390d6"></path><path d="M276.96971,71.72388c0,0.08296 -0.00577,0.16457 -0.01694,0.24445l-0.24658,1.97261l-0.49454,-0.06182l0.0063,1.07129c-1.17251,0.32818 -2.84946,1.09998 -4.423,1.69189c-0.02956,0.02292 -0.05884,0.04592 -0.0878,0.06902c-0.24738,0.19723 -0.78617,0.24821 -0.76355,0.56378c0.10247,1.42956 1.37341,3.90095 1.71112,5.47628c0.20063,0.93589 1.15163,1.92215 0.72429,2.7786c-0.10564,0.21173 -0.22023,0.40351 -0.34294,0.5769c0.09712,-0.01702 0.19513,-0.02924 0.29385,-0.03699c0.46302,-0.596 1.29044,-0.43052 1.29044,-0.43052l1.29376,0.25875c0.61588,0.11061 1.08321,0.64918 1.08321,1.2969c0,0.72775 -0.58995,1.3177 -1.3177,1.3177c-0.09789,0 -0.19329,-0.01068 -0.28511,-0.03093l-1.29102,-0.25821c0,0 -0.01263,-0.00253 -0.03515,-0.00833c-0.14288,0.20322 -0.32775,0.37112 -0.53474,0.46675l-0.35647,0.02625c0.36902,0.47222 0.71054,0.94951 1.00656,1.43684c1.17645,1.93666 1.42934,4.31296 1.44401,6.49364l-0.12043,0.16001l0.08103,0.02258l-0.42405,1.44782c-0.15158,0.56601 -0.67929,0.98371 -1.30701,0.98371c-0.74602,0 -1.35078,-0.58995 -1.35078,-1.3177v-1.47582h0.3782l0.02341,-0.07994c-0.16712,-0.87255 -0.33968,-1.72417 -0.7279,-2.57096c-0.64073,-1.39753 -1.27959,-2.7987 -1.89346,-4.20825c-0.27167,-0.35586 -0.55303,-0.7073 -0.83847,-1.05752c0.17398,1.53148 -0.37014,3.42722 -1.38289,4.4648c-0.93122,0.95405 -2.79603,0.75879 -3.93374,0.76377c-3.37085,0.01474 -6.56773,0.60512 -9.93647,0.63158l-1.03812,0.33656c-0.50429,0.21083 -1.00859,0.42166 -1.51288,0.6325c-7.79732,2.53784 -16.01639,2.8452 -23.86814,5.09114c-4.67522,1.33731 -8.97189,3.93326 -13.67312,5.02649c-0.15134,0.05542 -0.33107,0.08833 -0.54455,0.08833c-0.39002,0 -0.66742,-0.10985 -0.86473,-0.26612c-0.19918,-0.15399 -0.36928,-0.39433 -0.45389,-0.76573c-0.04457,-0.19565 -0.05185,-0.36814 -0.03216,-0.52002v-0.18749c0,-2.54826 -0.24079,-4.29479 0.43225,-6.11012v-0.30269l-0.36294,-0.11801l0.4224,-1.23617c0.16975,-0.53844 0.68368,-0.92983 1.29131,-0.92983c0.02923,0 0.05824,0.00091 0.08701,0.00269c0.83564,-1.96183 1.63846,-3.91668 2.9022,-5.75065c2.11159,-3.0644 4.38104,-4.62922 4.95339,-8.41788v-1.80468c0.00531,-3.26744 -0.64837,-6.3779 -0.64837,-9.69827c0.08873,-7.6334 4.75037,-13.75445 10.42163,-18.50631c0.30028,-0.2516 0.59448,-0.50414 0.88492,-0.75536c0.1435,-0.40917 0.27359,-0.82213 0.38617,-1.24064l-0.19604,-0.78415c-0.04027,-0.14733 -0.06177,-0.30241 -0.06177,-0.46251c0,-0.9665 0.7835,-1.75 1.75,-1.75c0.32701,0 0.63307,0.08969 0.89493,0.24582l1.329,0.75943c0.17941,-0.1106 0.36129,-0.21716 0.54612,-0.31922l-2.00314,-0.9433c1.16103,-0.83091 2.10016,-2.13788 3.48308,-2.49273c1.24898,-0.32048 2.79029,0.7146 3.86263,2.10931c0.13185,0.01296 0.26365,0.02651 0.39541,0.04055c0.00296,0.02662 0.00671,0.05241 0.01119,0.07739c0.08887,0.01105 0.17845,0.01887 0.26879,0.02317c1.59993,0.07604 3.53847,-0.60407 5.29916,-0.49824c4.86967,0.2927 10.73839,1.29016 15.15657,3.41374c1.89834,0.91243 2.71345,2.21104 3.55384,3.55685c0.97583,0.72083 1.87944,1.50705 2.67967,2.35747c0.39443,0.12824 0.79392,0.25045 1.19926,0.366c0.15569,0.06079 0.31066,0.12622 0.46481,0.19592c0.76269,0.62818 1.57774,1.24237 2.40475,1.84205c0.04104,0.23727 0.07495,0.47527 0.10148,0.71387c0.26254,0.74489 0.41095,1.57282 0.4385,2.57362c0.06373,0.32561 0.12833,0.66487 0.19833,1.01971c0.57211,2.90067 1.93868,4.84998 1.96638,7.94044c0.04736,0.43175 -0.09349,0.73482 -0.28804,0.94501c-0.01549,0.02033 -0.0318,0.04041 -0.049,0.06012c0.21535,0.23273 0.34776,0.54331 0.35028,0.8848c0.15005,0.25813 0.23599,0.55814 0.23599,0.87822zM265.4318,82.65984c0.04283,0.20838 0.09119,0.41433 0.14549,0.61729c0.04369,0.0027 0.08737,0.00553 0.13104,0.0085c-0.09803,-0.20496 -0.19044,-0.41342 -0.27652,-0.62579z" fill="#111732"></path><path d="M257.77483,71.22631c0.00267,0.02901 0.00579,0.05753 0.00943,0.08547c0.18377,1.40969 0.0206,2.64869 -0.31806,3.86634l0.11754,0.01959l-0.36648,2.1989c-0.0827,0.55673 -0.56268,0.98386 -1.14242,0.98386c-0.40727,0 -0.76531,-0.21079 -0.97097,-0.52923l-0.72928,-1.09391l0.04438,-0.02959l-0.12092,-0.10365c-0.71596,-2.14789 -3.83134,-6.21501 -1.18092,-8.41673c0.19578,-0.16264 0.45637,-0.27852 0.75766,-0.35981l0.00452,-0.02937c0.93426,-1.01837 4.62769,-2.68207 4.7971,0.18944c0.2195,0.16674 0.40148,0.44322 0.40148,0.9017c0,0.65405 -0.37037,0.93774 -0.69166,1.06078l-0.07618,0.30474c-0.07053,0.31083 -0.26644,0.57404 -0.53173,0.73368c-0.00091,0.07448 -0.00205,0.14702 -0.00349,0.21778z" fill="#6390d6"></path><path d="M293.56443,186.30042c-1.11074,0.68083 -2.70633,2.97349 -4.25763,2.47393c-4.0369,-1.3 -2.02178,-3.42587 -1.62872,-5.52826c0.23351,-1.24899 -0.10425,-2.54374 -0.02368,-3.81181c0.30512,-4.8023 1.46613,-9.66993 1.94771,-14.48094c0.50811,-8.42738 0.37204,-16.89831 0.04964,-25.32354c-0.07382,-1.92898 0.29923,-3.88093 0.02084,-5.79114c-0.56251,-3.85977 -0.80802,-7.44758 -1.01819,-11.40626c-0.13363,-2.51694 -0.75542,-5.83006 0.36085,-8.24864c1.50988,-3.27139 4.01319,-3.73055 6.54796,-5.91239c3.34403,-0.98785 7.54128,-2.09323 11.12374,-1.71264c1.04501,0.11102 2.32209,0.081 3.0351,0.85301c0.58211,0.63028 0.36128,1.64465 0.39624,2.53666c1.26437,0.48816 1.00349,1.92299 1.00349,1.92299c-0.95286,5.22937 -2.20275,10.5205 -2.72687,15.82039c-0.38995,3.94311 0.18901,8.0142 0.00171,11.9753c-0.26622,5.63035 -0.49662,11.2408 -0.49662,16.89126c0,1.5 0,3 0,4.5v1.5c0,4.70493 -0.5,9.30951 -0.5,14v0.30798c0.08595,0.54014 -0.07866,0.94119 -0.31086,1.22929c-0.19972,0.31114 -0.52777,0.59391 -1.06657,0.68342c-4.8104,1.63604 -8.22159,4.92459 -12.45814,7.52139z" fill="#5a1751"></path><path d="M202.15376,207.45602c-1.36673,-1.29716 -2.41685,-3.0104 -3.58578,-4.47726c0,0 -0.52292,-0.65657 -0.31394,-1.38727c-0.04068,-0.17765 -0.04434,-0.30248 -0.04434,-0.30248l0.01003,-0.61309c-0.01793,-0.01827 -0.03599,-0.03642 -0.05417,-0.05451c0.01963,-0.07501 0.03923,-0.15004 0.05876,-0.22508l0.0068,-0.41576c0.73111,-2.83598 0.59262,-5.82755 1.29224,-8.64149c1.07813,-4.33629 2.16397,-8.65752 2.80793,-13.09999c-0.163,-0.20135 -0.32827,-0.40105 -0.49621,-0.5988c0,0 -0.99979,-1.17783 0.17805,-2.17759c0.52406,-0.44484 1.01288,-0.45859 1.39408,-0.33678c0.0045,-0.02618 0.00899,-0.05235 0.01349,-0.07852c0.05057,0.04885 0.10221,0.0966 0.15481,0.14343c0.37863,0.17119 0.61524,0.44995 0.61524,0.44995c0.03191,0.03761 0.06373,0.07528 0.09546,0.11303c0.51157,0.37597 1.03807,0.73798 1.45567,1.20879c0.8622,0.97206 1.29428,1.94099 1.66845,2.94849c0.33457,0.47488 0.66778,0.95003 1.00335,1.42246c-0.04728,0.27952 -0.09464,0.55904 -0.14203,0.83856c0.0303,0.06778 0.06145,0.13586 0.09347,0.20419c2.13529,4.55389 5.8746,8.40113 8.85367,12.32757c1.76783,3.01466 4.44,4.62477 6.81283,7.01993c3.89269,3.92931 7.47291,8.4883 10.70211,13.01223c1.78861,1.5399 2.96166,3.40866 4.90488,5.36096c2.05432,2.06396 4.84397,3.589 6.53055,5.9955c1.80668,2.5779 3.80858,4.53918 5.85103,6.98617c1.599,1.91569 2.69761,4.16585 4.3654,6.04834c5.50877,6.67183 9.63745,13.81389 15.36707,20.28817l0.83579,0.24515c0,0 0.47514,0.22056 0.74365,0.68148c1.38751,0.43493 1.00287,1.86708 1.00287,1.86708c-0.03006,0.11183 -0.05981,0.22355 -0.08928,0.3352c0.1956,0.9813 0.12548,2.291 -0.0811,3.44521c0.3781,0.90651 0.01409,2.18015 0.19723,3.05742c0.26024,1.2465 0.55969,2.48576 0.77264,3.74121c0.45166,2.66286 1.38786,5.7662 2.18741,8.34463c0.02679,0.08642 0.05611,0.17048 0.08757,0.25257c0.6559,0.68653 1.29288,1.33995 1.84006,1.93907c0.23608,0.2263 0.47182,0.57173 0.46026,1.04345c0.004,0.06521 0.00346,0.13223 -0.00283,0.20066l0.21629,0.0652c0.63669,0.17572 1.11244,0.74993 1.13266,1.44462c0.02481,0.85289 -0.64649,1.56439 -1.49938,1.5892l-1.54429,0.04491l-0.01256,-0.43125l-0.19049,-0.05739l-0.73601,0.20425c-0.08632,-0.18603 -0.17786,-0.3721 -0.27332,-0.55834c-0.02191,-0.0027 -0.04414,-0.00711 -0.06671,-0.01333c-1.27395,-0.35136 -1.86699,-1.96258 -3.07108,-2.50716c-1.98094,-0.89592 -3.79561,-1.43572 -5.69352,-2.54126l-0.81423,-1.03737c0,0 -0.36313,-0.67634 -0.10068,-1.33149c-0.11686,-0.05838 -0.23469,-0.11541 -0.35353,-0.17096c-3.91838,-1.83202 -9.02938,-1.78338 -13.26971,-1.66006c0,0 -0.06274,0.00183 -0.16332,-0.0079c-0.3043,-0.01738 -0.71555,-0.11077 -1.02202,-0.44374c-0.19214,-0.19266 -0.34383,-0.46732 -0.39019,-0.85887l-0.65034,-0.63779c-1.31707,-1.87109 -1.65836,-4.29344 -3.01412,-6.04837c-1.08467,-1.40402 -2.75902,-2.21903 -3.72471,-3.77198c-0.95864,-1.54165 -1.49262,-3.40429 -2.52978,-4.93586c-0.65856,-0.97251 -1.75081,-1.58585 -2.46242,-2.52026c-1.07869,-1.41638 -1.97253,-3.05331 -3.04693,-4.51846c-0.21799,-0.20146 -0.34119,-0.45478 -0.41078,-0.67141c-0.04653,-0.12084 -0.087,-0.26181 -0.10526,-0.41499c-0.1633,-0.35628 -0.32657,-0.71257 -0.48985,-1.06883c-1.29306,-1.82559 -3.27735,-3.00889 -4.51658,-4.8756c-1.07844,-1.62452 -1.69348,-3.61082 -2.62932,-5.30364c-0.97993,-1.77259 -2.91663,-2.32642 -3.7416,-4.2742c-0.2381,-0.56212 -0.08644,-1.23298 -0.2911,-1.80812c-0.55116,-1.54905 -2.03399,-2.69902 -2.85781,-4.04463c-1.3579,-2.21793 -2.39285,-3.62921 -4.19578,-5.61075c0,0 -0.60726,-0.66814 -0.38254,-1.4471c-0.22837,-0.2759 -0.4502,-0.55998 -0.66363,-0.85478c-0.666,-0.91984 -0.817,-2.13817 -1.44027,-3.08748c-0.67038,-1.02107 -2.0839,-1.27693 -3.15718,-1.8601c-1.96912,-3.10566 -5.02951,-5.24186 -7.24948,-8.15452c-0.61101,-0.80164 -1.15552,-1.65002 -1.66962,-2.51985c-0.16421,-0.13348 -0.32236,-0.27045 -0.47201,-0.41249z" fill="#f0bcd4"></path><path d="M207.63435,181.32314c0.02188,-0.08927 0.04349,-0.17846 0.06483,-0.26752c-0.07968,0.04117 -0.15785,0.08426 -0.23455,0.12919c-0.01196,0.03638 -0.024,0.07267 -0.03611,0.10892c0.06946,0.00681 0.13812,0.01665 0.20581,0.02938zM210.94523,177.07755c1.01883,0.20146 1.50332,0.76082 1.72609,1.32603c0.23399,0.44602 0.34736,1.02559 0.08678,1.72515c-1.2297,5.96431 -3.62655,12.58417 -6.26855,18.07056c-1.43901,2.98827 -3.12994,5.12494 -4.26113,8.3203l-0.18046,0.16561l0.0698,0.04182l-1.30544,2.17925c-0.38126,0.65578 -1.06978,1.1176 -1.88347,1.17549c-0.22051,0.01568 -0.43613,0.0007 -0.64266,-0.04133c-0.90029,0.63022 -2.05373,0.30136 -2.05373,0.30136l-0.17369,-0.05584l-1.96684,0.13993l-0.00249,-0.035c-0.02731,0.01316 -0.05465,0.02633 -0.08195,0.03949l-0.08452,-0.03361l-0.00001,0.0351l-2.93959,-0.00084c-1.24266,0.01108 -2.29539,-0.94698 -2.38477,-2.20355c-0.06351,-0.89284 0.37574,-1.70535 1.07723,-2.16009c-0.26895,-0.35415 -0.4415,-0.7879 -0.4754,-1.26458c-0.03949,-0.55512 0.11538,-1.07918 0.40679,-1.50552l1.32569,-1.97986c0.40001,-0.59698 0.78715,-1.19821 1.16443,-1.80282c1.03797,-1.84228 2.57631,-4.49856 2.84782,-5.02649c2.5405,-4.94007 4.2605,-11.8617 8.3231,-15.81171c0.01263,-0.04896 0.02509,-0.09806 0.0374,-0.14732c0,0 0.53834,-2.10192 2.5956,-1.77012c0.63415,-0.32692 1.31426,-0.59271 2.04645,-0.78779l2.98802,1.10448c0.00317,0.00062 0.00636,0.00124 0.00952,0.00187z" fill="#731d67"></path><path d="M333.31667,92.55834c0.58185,0 0.99442,0.16927 1.28697,0.40933c0.60437,-0.13168 1.30762,-0.03621 1.92454,-0.13841c2.68054,-0.44407 5.08809,-0.52092 7.78849,-0.52092c10.41534,0 20.8228,0.25 31.25,0.25c3.58333,0 7.16667,0 10.75,0h1.75c0,0 1.27377,0 1.78824,1.01653c1.28686,0.67928 0.90204,2.21854 0.90204,2.21854l-0.20573,0.763c-0.23854,1.87715 -0.23627,3.69489 -0.23478,5.57522c0.10618,0.45552 0.00011,0.87197 -0.14953,1.19311c-0.17682,0.4854 -0.56243,1.04859 -1.40335,1.19651l-0.94689,0.5371c-4.72403,0 -8.89864,0.58934 -13.25,0.02517v0.47483h-2.5c-0.1132,0 -0.22421,-0.00941 -0.33228,-0.02748c-0.21065,0.11418 -0.42243,0.23672 -0.63559,0.3682c-3.71957,0.96055 -6.74177,3.13907 -10.26676,4.50703c-10.15219,3.9398 -20.2789,5.94507 -30.40979,0.9411c0,0 -0.47077,-0.23538 -0.80855,-0.70615c-5.40469,0.39582 -10.70445,2.09073 -16.17275,2.41343c-6.9428,0.40971 -13.93259,-0.24614 -20.87427,-0.24614c0,0 -1.36179,0 -1.83797,-1.1237l-0.28469,-0.17405c-1.26936,-3.52223 -1.13512,-6.64727 0.00799,-10.17545c0.97119,-2.16347 1.20179,-3.17873 2.9381,-4.92855c5.71163,-5.75605 12.73285,-3.4318 19.78716,-3.09518c0.5133,0.02449 1.02729,0.0449 1.54185,0.06172c5.5392,-0.14286 11.11548,-0.06478 16.59755,-0.06478h0.39861c0.2838,-0.4041 0.76964,-0.75 1.60139,-0.75z" fill="#6390d6"></path><path d="M189.95048,175.25922c0,0 -0.61129,-1.36979 0.7585,-1.98108c1.36979,-0.61129 1.98108,0.7585 1.98108,0.7585c0.37499,0.84519 0.79391,1.67333 1.25658,2.47535c1.80879,0.35808 3.98627,0.5429 6.09278,0.49666c0.43193,-0.12051 0.84351,-0.27864 1.22804,-0.48274c2.02636,-1.07551 4.14093,-2.94144 5.97764,-4.34332l0.01508,-0.00477l-0.00302,-0.00413l1.28304,-0.93713c0.26711,-0.19863 0.60173,-0.31005 0.96021,-0.2943c0.82763,0.03636 1.46908,0.73676 1.43272,1.56439c-0.00602,0.1371 -0.03027,0.26909 -0.07029,0.39374l-0.57771,1.94388l-0.00835,-0.00248c-0.05011,0.32538 -0.12614,0.64347 -0.23861,0.94822l-0.02987,0.67988c0.08211,0.47045 0.05536,1.02381 -0.09294,1.91144c-0.31887,1.90868 -2.22983,6.06042 -0.74928,7.24976l0.70809,0.42774c0.08301,0.04139 0.15874,0.08846 0.2265,0.13682l0.00254,0.00153c0,0 0.08947,0.05918 0.20472,0.16979c0.11586,0.10999 0.17913,0.19661 0.17913,0.19661c0.00055,0.00082 0.00111,0.00165 0.00166,0.00249c0.06338,0.08059 0.12536,0.17338 0.17769,0.27738c2.43509,3.98187 -0.48674,7.35449 -2.50575,10.98676l-0.15899,0.86721c0,0 -0.25449,1.03412 -1.20596,1.14522c-0.49335,0.91601 -1.07882,1.66699 -1.7708,2.13971c-1.07417,0.73381 -4.7958,0.58376 -6.0021,0.24009c-0.37303,-0.10628 -0.73423,-0.22989 -1.06638,-0.36899c-0.03223,0.01013 -0.06395,0.01911 -0.09494,0.02705c-0.04351,0.01396 -0.06903,0.02005 -0.06903,0.02005c-0.01371,0.00152 -0.02763,0.00313 -0.04177,0.00482c-0.08537,0.01655 -0.16166,0.02542 -0.22263,0.03012c-1.57722,0.23258 -4.93102,1.0288 -4.60837,-1.89654c-1.2474,-0.5554 -2.29011,-1.38106 -3.36136,-2.52684c-0.48946,-0.36871 -0.96323,-0.73447 -1.41645,-1.08816c-1.40974,-1.53555 -2.32088,-2.64062 -2.58484,-3.92118c-0.07766,-0.22961 -0.14564,-0.4798 -0.20289,-0.75558c-0.38849,-1.8713 -0.57416,-8.27358 2.80015,-7.86252c0.55768,-2.22656 1.15379,-4.43902 1.29092,-6.50844c-0.04042,-0.24823 -0.00935,-0.53734 0.14952,-0.86488c0.10282,-0.25304 0.28473,-0.53408 0.60587,-0.7083c-0.08513,-0.18054 -0.16852,-0.36183 -0.25016,-0.54382z" fill="#baafcc"></path><path d="M213.48935,143.91812c0.94958,0.34519 2.05907,0.55648 2.73434,1.30804c3.35315,3.73201 0.10761,7.44225 -2.1707,10.32049c-1.40935,1.78046 -1.857,4.38358 -3.2846,6.12884c-0.44809,0.5478 -0.96972,1.02327 -1.51861,1.47235l0.06933,0.52947c-0.30193,6.87278 0.54147,17.08134 -8.33234,19.08569c-2.54623,0.57512 -6.148,-0.20302 -8.75783,-0.31768c-0.69392,-0.03048 -1.13627,-0.29138 -1.41807,-0.61896c-0.30161,-0.30945 -0.52271,-0.77297 -0.49222,-1.46689l0.08777,-1.99807c0.21417,-4.87494 0.0903,-9.5011 -0.11332,-14.35385c-0.04708,-1.12187 -0.26559,-2.48925 -0.08007,-3.53225c-0.37235,-0.24965 -0.74471,-0.4993 -1.11706,-0.74896l0.94073,-1.20023l-0.73919,-0.45422l1.32663,-2.15893c0.21127,-0.35901 0.53094,-0.64496 0.91204,-0.8148c0.61154,-3.98979 1.27836,-7.52671 4.36131,-10.83903c0.499,-0.53612 3.17605,-4.06948 3.64214,-4.11548c0.34923,-0.03447 0.69057,-0.00394 1.02656,0.0707l0.0301,-0.17721l1.9871,0.33754l-0.07887,0.46427c0.2497,0.14013 0.44088,0.29905 0.58566,0.46767c0.35638,0.17881 0.71417,0.34611 1.07669,0.4744l-0.12085,0.20332c3.14321,0.2977 6.69921,0.93628 9.44331,1.9338z" fill="#6390d6"></path><path d="M287.68025,243.2083c0.21329,-0.85406 0.46719,-1.75622 0.763,-2.63437c-0.20614,-0.03607 -0.4291,-0.12642 -0.6651,-0.29499c-1.2206,-0.87186 -0.34874,-2.09246 -0.34874,-2.09246c0.15786,-0.21995 0.31433,-0.43261 0.4706,-0.63874v-0.9894c0,-4.631 0.26877,-9.61815 -0.47032,-14.20308c-0.49741,-3.08568 -2.44933,-6.34186 -2.26031,-9.55664c0.00109,-0.01856 0.00228,-0.03711 0.00355,-0.05564l-0.01134,0.00142l-0.24707,-1.97653c-0.00957,-0.06847 -0.01452,-0.13842 -0.01452,-0.20953c0,-0.82843 0.67157,-1.5 1.5,-1.5c0.65504,0 1.21202,0.41988 1.41647,1.00518l0.7334,1.95186c1.64793,3.68613 2.37113,7.98991 3.30563,11.93031c0.7509,3.16625 0.77317,6.16461 2.88111,8.82046c0.34919,0.3351 0.44785,0.69799 0.43654,1.01839c0.02221,0.33336 -0.07351,0.71658 -0.44864,1.07512l-0.32125,0.38737c0.07063,2.61043 -1.2251,2.23324 -2.19286,4.04127c-0.86102,1.6086 -1.47937,3.90077 -1.86483,5.67043l-0.05381,0.06352l0.03126,0.01042l-0.48906,1.46719c-0.1885,0.61294 -0.7592,1.05847 -1.43396,1.05847c-0.82843,0 -1.5,-0.67157 -1.5,-1.5v-1.5c0,0 0,-0.97018 0.78025,-1.35004z" fill="#baafcc"></path><path d="M270.26783,233.13656c-3.11856,0.22807 -5.98083,1.25511 -9.20738,1.25511c-3.66157,0 -5.77661,0.28616 -8.03171,-3.19839c-0.48393,-2.88667 -0.89449,-6.02719 -0.56818,-8.98488c0.10516,-0.95313 1.03036,-2.91271 0.24717,-3.95877c-1.35085,-1.80427 -2.66642,-2.97178 -3.78924,-4.66713c-0.32163,0.25325 -0.65259,0.5049 -0.91212,0.82286c-0.43789,0.53648 -0.84601,1.10647 -1.23827,1.69514c0.2865,0.5325 0.13761,1.15499 0.13761,1.15499c-1.50828,6.19977 -5.43861,10.31433 -10.36887,13.85991c-0.93844,0.67488 -1.55788,1.80397 -2.56512,2.36004c-0.49853,0.27522 -3.29303,0.58066 -3.81477,0.65298c-4.56531,0.63274 -8.40504,1.40335 -12.81782,-0.40919c-0.93045,-0.64446 -1.8227,-1.195 -2.77562,-1.66023c-3.18092,-0.6153 -5.17295,-1.82222 -7.81749,-3.81788c-0.24186,-0.29991 -2.29939,-2.7955 -2.48679,-3.23785c-0.87705,-2.07024 -0.27843,-4.82987 -0.12108,-6.9679c0.25441,-3.45682 0.95616,-7.48063 2.55677,-10.59896c0.85847,-1.6725 2.91529,-2.83405 3.51374,-4.58006c0.68654,-2.00296 0.87212,-3.66406 2.05999,-5.5467c0,0 0.42934,-0.67313 1.13037,-0.70114c12.06215,-11.88788 29.27967,-11.30354 43.89901,-17.83258c2.67876,-0.54491 5.41417,-1.045 8.16345,-0.88089c3.47862,0.20765 5.9338,2.16755 8.46805,4.33665c5.96438,5.10501 7.96517,10.67256 10.03743,18.24793l0.02965,0.3555c0.33114,1.20378 0.48834,2.48342 1.04702,3.58975c0.45443,0.89991 1.55925,1.28057 2.08677,2.13581c0.35344,0.57302 0.31172,1.33294 0.5862,1.95142c1.96838,4.4354 6.58429,9.32312 3.50597,14.6682c-0.59651,1.03575 -1.52464,1.8186 -2.30409,2.71179c-1.30811,1.49898 -2.61071,2.63703 -4.26315,3.58265c-0.08774,0.19719 -0.21484,0.35593 -0.33724,0.47624c-0.15438,0.17161 -0.37492,0.35201 -0.66161,0.43018c-4.39912,2.20049 -8.61733,2.40649 -13.38861,2.75543z" fill="#111732"></path><path d="M222.97349,140.06776c1.63485,-1.05454 3.06051,-1.96613 5.1672,-1.14523c0.96766,0.37706 3.6391,3.76552 4.05989,4.41429c3.81551,5.88266 2.54807,13.30883 4.73779,19.84324c1.27533,3.83383 3.10178,7.60026 4.08117,11.50526c1.09866,4.38057 1.0487,8.9293 1.04716,13.43894c0.08437,-0.01556 0.16883,-0.03073 0.25337,-0.0455l1.05726,2.79025c0,0 -0.72867,0.72867 -1.58205,0.37413c-2.68108,0.65561 -5.28064,2.14908 -7.85466,3.08084c-4.68218,1.69487 -9.54343,3.74288 -14.46378,4.74686c-0.2094,0.57606 -0.76174,0.98751 -1.41017,0.98751h-2v-0.03101c-0.04903,0.00878 -0.0983,0.0167 -0.14781,0.02371c-7.12509,1.00922 -8.18519,-7.9425 -7.06207,-12.83733c0.5307,-2.3129 2.52525,-3.41566 4.32449,-4.6162l0.31688,-0.25398c0.24673,-1.64791 0.37693,-3.32349 0.57987,-4.96954c0.53451,-4.33547 1.91037,-8.55052 2.2424,-12.92198c0.32268,-4.24828 0.14857,-8.51262 0.50141,-12.76823c0,0 0.04815,-0.57781 0.44381,-0.98501c0.70707,-4.19092 1.83577,-8.13338 5.70783,-10.63101z" fill="#a69cb5"></path><path d="M288.44418,227.33747c1.47087,0.29417 1.1767,1.76505 1.1767,1.76505c-0.17103,0.85515 -0.32946,1.70205 -0.47589,2.54497c-0.03314,2.9159 -0.21276,5.89342 -0.00009,8.78713c0.07874,1.07143 0.75161,2.02117 0.97448,3.07212c0.73364,3.4596 1.48277,7.32229 2.01613,10.84355c0.38991,2.57419 0.33178,5.21855 0.75939,7.83433c0.00657,2.08605 0.02426,4.32212 0.16838,6.49782c0.83673,0.35945 0.83673,1.3759 0.83673,1.3759l-0.00917,0.58435c0.25024,2.2724 0.56556,4.63501 0.69718,6.95358c0.03377,0.30884 0.05554,0.62202 0.06184,0.94094l0.00015,0.77113c0,0 0,0.01414 -0.00137,0.03967c0.00064,0.06511 0.00108,0.13015 0.00132,0.19513c0.00003,0.00505 0.00005,0.01012 0.00005,0.01521c0,0.52094 -0.18092,0.86097 -0.4171,1.0829c-0.22193,0.23618 -0.56196,0.4171 -1.0829,0.4171c-1.65342,0 -4.42267,0 -6.19925,0l-0.32456,0.13888c-4.15328,3.55642 -7.20608,7.6316 -10.93402,11.43673c-0.18525,0.30335 -0.46529,0.47025 -0.71737,0.56207c-0.24069,0.11215 -0.55276,0.19168 -0.89412,0.11232h-0.31784c-0.40856,0.25 -0.86284,0.25 -0.86284,0.25l-0.52566,-0.07698c-0.60808,0.20269 -3.35152,1.16112 -3.73771,1.05367c-4.86195,-1.35272 -1.63799,-8.24787 -0.65965,-11.20104c0,0 0.05844,-0.17531 0.19582,-0.38235c-0.1275,-2.20957 -0.26296,-4.41726 -0.27228,-6.65045l-0.45628,-1.38128c-0.19856,-1.17574 -0.45956,-2.34116 -0.74945,-3.49777c-1.3819,-5.52762 -2.26242,-11.04238 -3.50807,-16.53394c-0.47767,-2.10586 -0.16617,-4.50893 -0.93793,-6.54451c-1.05425,-2.78069 -3.35591,-5.5837 -4.78563,-8.31238c-0.21147,-0.25623 -0.28566,-0.55764 -0.3039,-0.80934c-0.04656,-0.31589 -0.02294,-0.72892 0.27341,-1.08717l0.53029,-1.24777c0.81797,-0.65438 1.63595,-1.30876 2.45392,-1.96314c1.70124,-5.12911 7.12521,-9.15481 9.43576,-13.86845l0.08146,-0.05771l-0.03217,-0.02145l0.98709,-1.48064c0.26708,-0.41355 0.73206,-0.68731 1.26098,-0.68731c0.82843,0 1.5,0.67157 1.5,1.5c0,0.01016 -0.0001,0.0203 -0.0003,0.03041c0.03083,-0.01485 0.06201,-0.02449 0.09351,-0.02751c0.78377,-0.07516 1.58965,0.07756 2.34147,0.31146c3.83094,1.1919 7.47454,4.17402 11.17453,5.81492l0.96111,0.86748c0.07141,0.00616 0.14598,0.01679 0.22385,0.03236z" fill="#a69cb5"></path><path d="M196.48148,149.223c-1.46036,-1.426 -2.92924,-3.08372 -3.07541,-4.69662c-0.15565,-1.71756 0.58169,-3.07452 1.53156,-4.34257c0.22867,-3.05938 1.80949,-6.07569 3.69375,-8.80724c0.47845,-1.29643 1.08808,-2.53356 1.86465,-3.69191c0.18546,-0.49758 0.35345,-0.99862 0.42162,-1.52238l0.01089,-0.01586l-0.00812,-0.00135l0.24595,-1.47568c0.1074,-0.72302 0.73074,-1.27772 1.48364,-1.27772c0.34866,0 0.66954,0.11896 0.92426,0.3185l0.39578,-0.49472c0.27463,-0.34938 0.70109,-0.57378 1.17996,-0.57378c0.35488,0 0.68098,0.12324 0.93783,0.32926c0.62106,-0.54716 1.22655,-1.1122 1.81179,-1.69695c1.90141,-1.48777 3.08483,-1.8689 5.50038,-1.88231c1.92381,-0.01068 3.77244,-0.16947 5.60683,0.62823c2.13208,0.92715 2.8857,2.52261 3.95146,4.38804c2.23403,3.91028 3.72361,8.06127 5.88406,11.98788c1.27461,2.31659 2.54923,3.96546 3.57026,6.37417c0.13866,0.20602 0.23249,0.47959 0.2372,0.84287c0.01535,0.26687 -0.02477,0.5955 -0.22947,0.88888c-0.19638,0.29902 -0.4866,0.45832 -0.74008,0.54318c-0.12338,0.04751 -0.24012,0.07964 -0.35041,0.09879c-4.26405,2.70879 -8.35306,6.08092 -12.73337,8.51116c-3.32152,1.84281 -7.14523,1.88723 -10.74747,2.67379c-0.45443,0.16278 -0.82237,0.0906 -1.10381,-0.06124c-0.29116,-0.12095 -0.57524,-0.35599 -0.73674,-0.79895c-2.56205,-1.43995 -5.31441,-2.71028 -8.01349,-3.86846c-0.44082,-0.09752 -0.70417,-0.35288 -0.8615,-0.62318c-0.15693,-0.21131 -0.27455,-0.48746 -0.25781,-0.83405z" fill="#baafcc"></path><path d="M228.90816,255.76159l-0.16946,-0.02242l0.0132,0.0541l-1.69957,0.24635c-0.07617,0.01232 -0.15491,0.01872 -0.23579,0.01872c-0.82843,0 -1.56785,-0.67157 -1.65155,-1.5c-0.03625,-0.35883 0.05647,-0.68823 0.24055,-0.94637l1.63089,-2.33328l0.16698,0.12359c1.16051,-2.33142 2.40516,-4.61363 3.34239,-7.01476c0.24737,-0.63377 0.44623,-1.28405 0.61313,-1.94511c-0.51287,-0.44404 -0.58259,-1.13407 -0.58259,-1.13407l0.0038,-0.72434c0.53923,-2.2659 -0.63695,-6.55225 0.44804,-8.36351c0.07127,-0.11897 0.15074,-0.23067 0.23704,-0.33631l-0.04699,-0.03612l1.09201,-1.4912c0.24126,-0.3349 0.63702,-0.54852 1.10425,-0.54852c0.33368,0 0.65291,0.10895 0.92067,0.29322c0.11216,-0.02824 0.23086,-0.04322 0.35458,-0.04322c0.43395,0 0.84348,0.18427 1.14713,0.47884c0.11186,-0.40039 0.47568,-1.17001 1.59948,-0.94971c1.50059,0.29417 1.35502,1.76505 1.35502,1.76505c-0.59014,5.95801 -0.30583,11.99969 -0.67754,17.95242l0.03212,0.22682c0.15514,0.45252 0.06497,0.81014 -0.09201,1.07285c-0.11973,0.27094 -0.34253,0.53381 -0.75384,0.64642c-2.82488,1.50259 -5.36848,3.33413 -8.39195,4.51056z" fill="#baafcc"></path><path d="M188.02583,287.69257c0.05971,-0.90729 1.40237,-2.68422 1.96303,-3.48794l0.99712,-1.12362c0,0 0.28043,-0.31195 0.7234,-0.42832c1.09175,-3.79959 2.60227,-7.65188 4.1874,-10.81945c0.79855,-1.59574 2.3519,-2.7145 2.90878,-4.47261c2.02113,-6.38092 2.74645,-12.89032 3.22906,-19.64072c0.20563,-0.6397 0.41125,-1.27941 0.61688,-1.91911l0.06154,-0.9533c0,0 0.01565,-0.15822 0.08964,-0.36049c0.08779,-2.46788 0.04649,-4.96428 0.0688,-7.63619c-0.00096,-0.03914 -0.00053,-0.07723 0.00099,-0.11404c0.00003,-0.00358 0.00007,-0.00716 0.00009,-0.01075c0,0 0.00107,-0.10573 0.0311,-0.25774c0.02908,-0.15229 0.06704,-0.24743 0.06704,-0.24743l0.00245,-0.00572c0.0205,-0.05724 0.04517,-0.11611 0.07487,-0.17482l0.2229,-0.5205c1.95489,-3.1408 4.38613,-4.32012 7.48845,-5.69283c0.04306,-0.03924 0.0861,-0.07855 0.12913,-0.11794c-0.0234,-0.91625 0.91629,-1.2404 0.91629,-1.2404c0.08788,-0.02921 0.1749,-0.0557 0.26107,-0.07992c0.38011,-0.56581 0.74975,-1.13848 1.38438,-1.33081c0.14437,-0.04375 0.29171,-0.07086 0.44145,-0.08456l-0.0164,-0.06128l1.44734,-0.24535c0.08733,-0.01645 0.17819,-0.02505 0.27194,-0.02505c0.1861,0 0.36771,0.03389 0.53841,0.09584l0.10676,-0.07729c0.14508,-0.10878 0.31474,-0.18865 0.50199,-0.23184c0.23031,-0.06337 0.52373,-0.09125 0.83478,0.01306c0.71702,-0.27325 1.46304,0.27893 1.46304,0.27893c1.13977,0.84581 2.19128,1.75624 3.23327,2.69497c1.42003,0.55197 2.89729,0.80286 4.36051,1.72944c1.04979,0.66478 3.53079,2.7117 4.11005,4.65643c0.07454,0.05701 0.15135,0.11342 0.2307,0.16916l0.6604,0.58844c0.00838,0.00732 0.01668,0.01472 0.02491,0.0222c0.14193,0.12891 0.26288,0.28118 0.35524,0.44992c0.14796,0.24894 0.2745,0.58152 0.22122,0.94666c0.0029,0.04043 0.00293,0.06334 0.00293,0.06334c-0.00012,0.10121 -0.00026,0.2019 -0.00049,0.30209c0.82153,0.56504 1.55386,1.14749 1.66133,1.50448c0.22102,0.73422 -1.32651,3.27749 -1.77846,4.07507c-1.38236,3.0387 -2.06793,6.44764 -3.35402,9.51993c0.00315,1.05656 -0.04684,2.07365 -0.25184,2.94568c-0.34607,1.47211 -1.62824,2.5144 -2.06393,3.95459c-0.726,2.3998 -1.74919,4.62634 -2.63207,6.93114c-0.06967,0.92883 -0.16246,1.84121 -0.32224,2.7165c-0.40561,2.22193 -1.08022,3.84136 -1.1704,6.1134c0,0 -0.00282,0.06756 -0.02189,0.1718c-0.03197,0.21871 -0.1122,0.49244 -0.30507,0.71407c-0.02014,2.22881 0.10829,4.63342 1.0292,6.67765l0.09353,0.14245c0.34184,0.41942 0.40546,0.81136 0.35583,1.13348c-0.0155,0.31727 -0.14518,0.65607 -0.52399,0.92234c-2.65422,2.46159 -5.63755,4.25691 -7.23525,7.63832l-0.27212,1.20056c-0.02847,0.46571 -0.24328,0.74873 -0.49384,0.92073c-0.22683,0.19903 -0.55634,0.34012 -1.02676,0.26645c-7.02847,0 -14.05694,0 -21.08541,0h-0.27339c-0.41999,0.08875 -0.77345,-0.0349 -1.04426,-0.21161c-0.29057,-0.14955 -0.58347,-0.4048 -0.73684,-0.84044c-0.95079,-1.66562 -2.86808,-5.5136 -2.7606,-7.14705z" fill="#a69cb5"></path><path d="M210.13129,292.80088c0.44077,-1.89737 2.40203,-1.26491 2.40203,-1.26491l0.27907,0.12217c0.53604,-0.47481 1.30285,-0.47481 1.30285,-0.47481c0.08919,0 0.17838,0 0.26756,0c0.23323,-0.48849 0.68032,-0.84637 1.23995,-0.96092l1.75942,-0.39996c0.3841,-0.52618 -0.37583,-1.6312 -0.0947,-2.29477c0.07803,-0.18419 0.16935,-0.35958 0.27123,-0.52798l-0.10855,-0.05864l0.80734,-1.71629c0.27683,-0.62058 0.89327,-1.04143 1.65053,-1.04143c0.87385,0 1.67343,0.56043 2.02458,1.34147l0.80843,1.69826c1.51784,1.51432 2.79922,2.50448 2.9611,3.96027h1.41311c1.10457,0 2.09047,0.89543 2.20206,2c0.1116,1.10457 -0.69337,2 -1.79794,2c-0.15818,0 -0.77642,0 -1.43866,0c-0.32034,0.45723 -0.85398,0.75 -1.48557,0.75h-2c-2.16469,0.74671 -6.40638,0 -8.75,0l-2.19334,-0.60263c0,0 -1.96127,-0.63246 -1.5205,-2.52982zM221.35442,291.18334c-0.01038,-0.01135 -0.02075,-0.0227 -0.03115,-0.03403c-0.00675,0.01135 -0.01356,0.02269 -0.02039,0.03403c0.01718,0 0.03436,0 0.05154,0z" fill="#baafcc"></path><path d="M298.69175,292.84091c-0.90984,0.03425 -1.77697,0.0091 -2.29174,0.0091c-0.62438,0 -1.24876,0.00213 -1.87315,0.00599c-0.35567,0.04084 -0.72526,0.04144 -1.10246,0.00854c-5.68033,0.05247 -11.35948,0.22941 -17.02439,0.23547c0,0 -2,0 -2,-2c0,-2 2,-2 2,-2c0.14621,0.00017 0.29243,0.00016 0.43867,-0.00001c0.0089,-0.0111 0.01791,-0.0221 0.02704,-0.033l1.27806,-1.55009l0.01948,0.01606l0.01669,-0.0587c2.20374,-2.38503 4.51829,-4.49907 6.80586,-6.78848c0.83407,-0.74101 1.43123,-1.91034 2.5022,-2.22304c4.27591,-1.24848 4.83825,2.05123 7.25534,4.15554c1.40371,1.22207 3.16696,1.99862 4.5241,3.27221c0.14555,0.13659 0.31698,0.30834 0.50314,0.50767c1.24854,0.51185 2.52692,1.03008 2.61438,1.12865c1.00212,1.12941 2.44246,2.75354 1.84128,4.1386c-0.77952,1.79591 -3.46851,1.70407 -5.53448,1.17548zM292.90532,288.5689c-0.05846,-0.06714 -0.11746,-0.13512 -0.17765,-0.2003l-0.16564,0.11043c0.11175,0.0306 0.22793,0.06049 0.34329,0.08987zM292.43084,288.44208c0.01251,0.00364 0.02512,0.00726 0.0378,0.01088l-0.01785,-0.02678c-0.00664,0.00532 -0.01329,0.01062 -0.01995,0.0159z" fill="#baafcc"></path><path d="M398.3013,110.19777c-0.90153,-0.44628 -1.51192,-1.14265 -2.01213,-1.91005c-1.42742,-0.28923 -2.55811,-1.57319 -3.47189,-2.83268l-2.18833,0.97259l-0.03275,-0.07369c-0.08396,0.06085 -0.1695,0.11976 -0.25679,0.17654c-0.43214,0.28113 -0.96421,0.28075 -1.50228,0.26917c-2.06616,0.8617 -4.36104,2.2642 -6.08169,2.50163c-1.4219,0.19621 -3.32798,0.40121 -4.24886,-0.69982c-0.09383,-0.11219 -0.17245,-0.23479 -0.23698,-0.3664c-0.37497,-0.10603 -0.72745,-0.25743 -1.05092,-0.4634c-1.78272,-1.13514 -2.00883,-3.49638 -2.14816,-5.29738c-0.19068,-2.4647 -0.18748,-5.07127 0.9446,-7.14686c-0.9615,-0.1454 -1.69847,-0.97534 -1.69847,-1.97742c0,-0.61217 0.27504,-1.16011 0.70829,-1.52697l1.74013,-1.49154l0.0652,0.07606c0.16655,-0.15938 0.34622,-0.30504 0.5425,-0.43332c2.05587,-1.3436 3.96191,0.35288 5.63778,1c0.22986,0.08876 0.45933,0.15653 0.68851,0.20767c1.16973,-0.2324 2.50562,-0.01539 3.68374,-0.28428c0,0 1.2241,-0.27202 1.94916,0.58399c1.03473,0.27162 1.92675,0.58116 2.87321,0.84841c0.39129,-0.01377 0.77502,-0.04317 1.14893,-0.09291c-0.02456,-0.12524 -0.03744,-0.25467 -0.03744,-0.38711c0,-0.68055 0.33991,-1.2817 0.85921,-1.64296l1.72831,-1.23451l0.04299,0.06018c1.00585,-1.53257 2.12024,-2.98437 3.43794,-4.26549l0.55889,-1.61948c0,0 0.00019,-0.00052 0.00059,-0.00154c0.13187,-0.39574 0.39968,-0.85952 0.94357,-1.11106c0.32921,-0.18533 0.75358,-0.28306 1.28695,-0.16183c0.54197,0.07376 0.905,0.31428 1.14818,0.6034c0.42093,0.4265 0.50885,0.95478 0.49337,1.37163c0.00001,0.00109 0.00001,0.00165 0.00001,0.00165c-0.0001,0.05877 -0.00035,0.11752 -0.00075,0.17624c0.31163,0.35267 0.50075,0.81613 0.50075,1.32376c0,0.37373 -0.10251,0.72351 -0.28094,1.02277l-0.35512,0.62145c-0.09961,1.25828 -0.24402,2.51134 -0.3993,3.76827c2.08815,-0.87767 3.8146,-1.44073 5.38393,-0.05538c4.4624,-0.14785 8.92848,-0.35712 13.40143,-0.35712h2c1.10457,0 2,0.89543 2,2c0,0.68055 -0.33991,1.2817 -0.85921,1.64296l-1.72831,1.23451l-0.02767,-0.03874c-0.0633,0.06021 -0.12805,0.11905 -0.19442,0.1764c-1.71406,1.48127 -4.65534,0.89467 -6.70532,1.42516l-1.68563,0.48276c0,0 -0.05548,0.01585 -0.15028,0.03275c-0.09384,0.02161 -0.15109,0.02876 -0.15109,0.02876c-0.48197,0.06025 -0.96393,0.12049 -1.4459,0.18074c-0.92925,2.94288 -2.62444,5.96697 -4.01083,8.72287c0.03067,0.40419 -0.09132,0.75409 -0.25344,1.03192c-0.16383,0.36457 -0.45419,0.74339 -0.96884,0.94099c-2.46065,1.62615 -6.66874,3.43002 -9.58442,1.98668zM384.26509,96.5815l0.04548,0.05306c0.08663,-0.09464 0.1767,-0.18642 0.27071,-0.27494c0.1522,-0.14333 0.48521,-0.29262 0.91326,-0.43924c-0.31191,0.00226 -0.6213,0.01287 -0.92758,0.03415c-0.06237,0.02526 -0.1263,0.04746 -0.19161,0.06642c-0.05257,0.20806 -0.10385,0.40674 -0.15345,0.59759z" fill="#baafcc"></path><path d="M191.01689,191.44796c-0.08223,-0.07337 -0.1625,-0.14872 -0.24067,-0.22608c-1.32629,-0.5324 -2.77774,-0.61361 -3.72829,-1.62661c-0.90992,-0.96971 -1.18346,-2.63744 -0.94283,-4.20062c-0.79432,-1.16121 -1.39186,-2.5166 -0.70562,-3.69466c0.71069,-1.22002 4.30401,-1.69996 5.56287,-1.50404c0.32964,0.0513 0.62745,0.11691 0.89912,0.19542c0.02058,-0.08641 0.04019,-0.16912 0.05869,-0.24792c0,0 0.3011,-1.28283 1.58394,-0.98173c1.28283,0.3011 0.98173,1.58394 0.98173,1.58394c-0.08925,0.38022 -0.16873,0.75865 -0.23999,1.13566c0.49209,0.51449 0.95108,1.10462 1.56526,1.72462c0.46049,0.28023 0.84305,0.61006 1.14497,1.00875c2.17813,1.68477 5.12721,3.12713 4.00921,6.58497c-0.25259,0.78124 -0.95737,1.33414 -1.43608,2.00121c-1.39237,0.20607 -2.5112,0.4358 -3.73301,0.4008c-0.20306,0.65499 -0.88151,1.05044 -1.55935,0.89134c-0.53044,-0.1245 -0.91014,-0.55333 -0.99768,-1.05832c-1.1323,-0.21214 -1.82768,-0.95001 -2.22225,-1.98677z" fill-opacity="0.99216" fill="#731d67"></path><path d="M298.06563,167.52151c0.68665,2.18928 1.75641,6.33057 0.72255,8.65234c-0.6126,1.37572 -4.12912,5.66376 -5.52335,6.48343c-0.48695,0.28628 -1.04107,0.68246 -1.60259,0.98037c-0.00754,0.8918 -0.01224,1.78217 -0.01224,2.67069v0.25c0,0 0,0.09554 -0.02232,0.24197c-0.01876,0.14693 -0.04501,0.23879 -0.04501,0.23879c-0.94613,3.27332 -0.93408,5.36256 -3.96194,7.47533l0.43947,-0.15269c0,0 -0.42561,1.27683 -1.65008,1.21775c-1.80409,1.26671 -3.29659,2.66871 -5.503,3.40377c-4.53828,1.51191 -11.56862,0.4002 -16.06281,-0.45182c-1.55318,-0.29445 -2.8119,-0.12911 -4.27325,-0.93187c-0.7589,-0.41689 -1.42463,-0.98151 -2.10668,-1.52066c-0.17755,2.55588 -0.31948,5.1088 -0.57379,7.66067c-0.14601,1.46516 0.32439,3.14074 -0.44766,4.39452c-1.40004,2.27362 -4.40075,2.07309 -6.61849,2.622c-5.72566,1.41715 -12.85089,2.59193 -18.6552,0.98492c-2.29852,-0.6817 -4.20097,-1.7047 -5.75188,-2.99441c-0.13439,0.19948 -0.33256,0.3917 -0.61699,0.56236c-1.50061,0.90037 -2.40098,-0.60025 -2.40098,-0.60025l-0.85789,-1.46101c-0.88103,-2.05586 -2.48981,-4.41026 -3.08555,-6.50039c-0.45324,-1.59017 -0.50775,-3.42317 -0.30841,-5.25877c-0.24754,-0.4551 -0.24754,-0.9302 -0.24754,-0.9302c0,-0.05823 -0.00004,-0.11648 -0.00011,-0.17475l-1.15227,-1.00824l0.06567,-0.07505c-2.33064,-1.30667 -4.59966,-3.01096 -5.3382,-5.23483c-1.18621,-3.57188 0.57308,-7.2765 1.67416,-10.63432c0.00049,-0.12433 0.00075,-0.2486 0.00075,-0.3728c0,-7.05088 0.55811,-14.38079 -0.03268,-21.4019c-0.54792,-6.51164 -1.21732,-12.78883 -1.21732,-19.3481c0,0 0,-0.35424 0.15938,-0.74396c-0.51317,-0.54998 -1.02967,-1.09895 -1.55311,-1.64453c-1.96315,-1.02818 -4.22159,-1.76188 -5.99225,-2.85236c-1.41208,-0.86964 -6.56715,-0.753 -7.15694,-1.6834c-0.98832,-1.55908 2.40743,-5.23986 3.7902,-5.30741c0.03287,-0.00161 0.06581,-0.00274 0.09883,-0.0034c0.93446,-5.25343 4.60565,-9.82876 8.33636,-14.05098c0.1499,-0.53459 0.33289,-1.05091 0.65406,-1.49574c0.4297,-0.59514 1.19776,-0.88507 1.8288,-1.28867c0.33398,-0.37612 0.66338,-0.74986 0.9861,-1.12147c1.17571,-2.2759 2.12887,-4.84227 4.19818,-6.62682c2.19094,-1.88945 3.71732,-2.95787 5.41297,-5.4187c2.47225,-1.69708 5.15035,-2.09641 7.6292,-3.53766c7.57846,-4.40627 15.94479,-6.21351 24.85823,-6.2249h0.5c6.52376,0 13.09972,-0.37182 19.54868,0.77568c1.27503,0.22687 2.51287,0.47533 3.73041,0.72696c1.23553,-0.0249 2.46198,-0.06202 3.57965,0.00075c4.0351,0.22662 8.25158,-0.51807 12.24121,0.28196c1.67888,0.33666 2.99369,1.09289 4.42206,1.80671c3.30613,0.16393 6.61335,0.61751 9.56153,1.8692l0.09837,0.14089l0.03882,-0.05824l1.47742,0.98494c0.48248,0.31159 0.80186,0.85407 0.80186,1.47114c0,0.21743 -0.03965,0.42561 -0.11213,0.61768c0.5931,1.37304 -0.76963,2.15175 -0.76963,2.15175c-1.60573,0.91469 -3.11136,1.39151 -4.38081,2.71801l-1.31818,0.75006c-0.03222,0.02118 -0.05102,0.03193 -0.05102,0.03193c-1.84955,0.9971 -2.23129,2.13009 -3.46601,3.77759c-1.72477,2.3014 -3.20753,4.73055 -4.55407,7.23301c-0.84136,11.86874 -0.84817,23.79653 -0.84817,35.71997c0,3.93111 0,7.86222 0,11.79333c0.01135,3.33727 0.41037,7.21472 1.41563,10.41985zM293.54764,117.73215c-0.05783,0.12762 -0.1156,0.25528 -0.17332,0.38297c0.05683,0.08864 0.10588,0.18275 0.14619,0.28135c0.00883,-0.22146 0.01787,-0.4429 0.02713,-0.66433z" fill="#731d67"></path></g><g fill-opacity="0.37255" fill="#2e1340"><path d="M211.81334,288.45799c1.40973,-1.43452 2.5697,-3.69065 3.60099,-4.5101c0.79066,-0.62825 1.82551,-0.86423 2.73827,-1.29634l2.20533,-0.98014c0.29078,-0.13712 0.61568,-0.21378 0.95849,-0.21378c1.24264,0 2.25,1.00736 2.25,2.25c0,0.18452 -0.02221,0.36385 -0.06411,0.53547l-0.48947,2.20263l-0.08259,-0.01835c-0.03311,0.20637 -0.07926,0.41084 -0.14147,0.61298c-0.51716,1.68055 -3.54753,3.18183 -4.92265,3.90741c-0.20343,0.10734 -0.41403,0.21343 -0.63107,0.31786c3.1002,0.22119 6.72873,-0.50529 9.45693,-0.80454l0.12443,0.05555v-0.05899h2.25c1.24264,0 2.25,1.00736 2.25,2.25c0,1.12935 -0.83205,2.06437 -1.91659,2.22547l-2.81278,0.4688c-0.97504,0.47494 -2.07069,0.85121 -3.80004,1.25597c-6.96539,1.63028 -15.72769,0.28642 -22.71611,-0.46367c-2.8787,-0.30898 -5.1257,0.0613 -7.966,-0.85203l-0.50401,-0.12187c-0.6709,-0.02756 -1.12605,-0.33739 -1.42969,-0.69393c-0.33931,-0.31803 -0.62551,-0.7831 -0.62519,-1.44708c-0.49607,-2.45743 -1.10845,-5.1987 -0.70575,-7.69839c0.80273,-4.98286 4.49387,-10.42337 7.42987,-14.27821c2.25438,-2.95991 2.84407,-7.14032 4.3713,-10.4712l0.18531,-2.13797c0.00051,-0.00643 0.00085,-0.00977 0.00085,-0.00977c0.53132,-5.30654 0.91013,-10.40963 1.76268,-15.60285c0.49377,-3.00774 -0.55752,-4.81119 1.37145,-7.69708c1.80936,-2.70694 5.65082,-5.04758 8.14042,-7.18452l1.74047,-1.49184c0.3948,-0.34253 0.91009,-0.54984 1.47381,-0.54984c0.02025,0 0.04043,0.00027 0.06055,0.0008c0.4621,-0.42472 1.18768,-0.75696 2.23001,-0.35752c0.38637,-0.68259 1.11911,-1.14327 1.95945,-1.14327c1.24264,0 2.25,1.00736 2.25,2.25c0,0.09515 -0.00591,0.18892 -0.01737,0.28096l-0.24639,2.21751l-0.13573,-0.01508l0.08199,0.31363c-3.00138,7.59031 -3.67099,16.13829 -5.75,24c-0.87835,3.32146 -2.19435,6.36437 -3.64815,9.3332c-0.66549,2.15654 -1.43637,4.29697 -2.15612,6.34998c-0.78593,2.24179 -1.51939,2.35176 -1.92588,4.48047c-0.47288,2.4764 -0.69515,4.9773 -1.24167,7.46298c0.1996,0.63253 0.043,1.17869 -0.18861,1.58736c-0.17939,0.41084 -0.49996,0.84217 -1.0728,1.07177c-3.49389,2.62487 1.24539,3.88794 4.19666,4.91967c0.75929,-0.03688 1.44726,-0.11976 2.10101,-0.2521z"></path><path d="M230.83041,231.75734c0.0621,-0.55116 0.39978,-2.04971 2.23601,-2.04971c0.19113,0 0.36603,0.01624 0.52607,0.04595l0.07674,-0.05968c0.38379,-0.30444 0.86926,-0.48627 1.39719,-0.48627c1.24264,0 2.25,1.00736 2.25,2.25c0,0.18452 -0.02221,0.36385 -0.06411,0.53547l-0.48947,2.20263l-0.03994,-0.00888l0.01188,0.12138c-1.834,5.48634 -0.44979,12.9722 -3.77281,17.8278l-0.72591,2.41972c-0.26194,0.95232 -1.13409,1.65188 -2.16963,1.65188c-1.24264,0 -2.25,-1.00736 -2.25,-2.25c0,-0.22297 0.03243,-0.43837 0.09284,-0.64173l0.72257,-2.64942c-0.37569,-1.17314 0.42545,-2.35688 1.07553,-3.56392c0.74988,-3.08281 0.99647,-6.05317 1.07545,-9.16262c-1.10876,-0.13945 -1.96639,-1.08572 -1.96639,-2.2323c0,-0.3428 0.07666,-0.6677 0.21378,-0.95849l0.98014,-2.20533z"></path><path d="M259.57224,235.66563c3.1163,-5.71467 7.16877,-10.42524 10.58618,-15.90051c0,0 1.1925,-1.908 3.10049,-0.7155c0.678,0.42375 0.9645,0.93784 1.05212,1.42457c0.50539,0.65203 0.50539,1.48343 0.50539,1.48343c0,4.20209 -0.36071,8.59546 -0.01095,12.77829c0.19203,2.29658 0.84749,4.54098 1.00709,6.84004c0.12019,1.73127 -0.39298,3.5077 -0.03674,5.20618c1.75334,8.35952 3.03493,17.00403 4.26798,25.60729l0.02256,2.31274c0.00005,0.0036 0.00005,0.00546 0.00005,0.00546c0,0.00002 0,0.00005 0,0.00007c-0.0022,2.04806 0.17206,4.07639 0.37383,6.10584c0.47613,-0.56314 0.99629,-1.09684 1.4264,-1.58011c2.10617,-2.36646 5.68496,-5.20658 9.206,-3.53826c1.05861,0.50158 1.52918,1.77497 2.29377,2.66246l0.25243,1.17802c0.00122,0.00272 0.00243,0.00544 0.00364,0.00817c0.42584,0.95814 0.20674,1.66822 -0.14868,2.15337c-0.23195,0.40482 -0.62092,0.78965 -1.27322,0.94188c-2.55727,1.16372 -4.86537,2.69217 -6.95911,4.58605c0.07535,-0.00652 0.14664,-0.01142 0.21286,-0.01469c4.96155,-0.24535 9.91616,0.25367 14.86208,0.24721h3c1.24264,0 2.25,1.00736 2.25,2.25c0,0.6887 -0.30942,1.30512 -0.79682,1.71785l-1.73889,1.49048l-0.07923,-0.09244c-0.18418,0.18256 -0.38416,0.34889 -0.60442,0.49435c-1.2025,0.79415 -7.14196,0.13976 -8.78063,0.13976c-5.93734,0 -11.81834,0.5 -17.75,0.5c-1.8579,0 -6.57794,0.6876 -8.09073,-0.28205c-4.76605,-3.05491 -2.37006,-7.81492 -0.55848,-12.14104c-0.25411,-0.3443 -0.3326,-0.76135 -0.32112,-1.21566c-0.24292,0.08974 -0.50557,0.13875 -0.77967,0.13875c-0.45049,0 -0.87005,-0.13239 -1.22191,-0.36039l-1.90238,-1.18899c-0.53507,-0.2669 -1.07014,-0.53381 -1.60521,-0.80071c-1.38476,1.09927 -5.82139,1.01539 -7.17714,0.40934c-3.58299,-1.60169 -4.98597,-4.90863 -6.03381,-8.41717c-0.34365,-0.11068 -0.65121,-0.30176 -0.90053,-0.55109l-1.75,-1.75l0.01276,-0.01276l-0.0529,-0.02842c-2.31802,-2.56802 -5.4496,-4.89864 -7.27109,-7.84812c-3.57017,-5.78106 -2.28806,-13.47242 -1.05409,-19.64295c0,0 0.1486,-0.743 0.70451,-1.28043c-0.15865,-0.30821 -0.2482,-0.6578 -0.2482,-1.02831c0,-0.02886 0.00054,-0.0576 0.00162,-0.0862c0.0002,-0.66719 0.24493,-1.57832 1.44967,-2.01792c0.0567,-0.02153 0.1145,-0.04084 0.17328,-0.05782c1.22804,-0.37216 1.97093,0.20942 2.37176,0.74309c0.1656,0.20357 0.29632,0.43666 0.38304,0.69015c0.32641,0.204 0.65282,0.40801 0.97922,0.61201c0.58768,0.20422 0.92714,0.61353 1.12323,1.01826c0.10849,0.17265 0.20216,0.3708 0.25925,0.59237c4.03942,5.48517 7.37319,11.27072 10.92288,17.07316c1.48729,2.43118 3.51146,4.64553 4.65549,7.2998c0.35008,0.81222 0.26813,1.77779 0.6631,2.56915c1.12195,2.24791 4.3182,2.81272 4.80297,5.60523c0.01542,0.0888 0.0288,0.17773 0.0403,0.26678l0.05871,-0.01957l0.73339,2.20017c0.07091,0.19723 0.11505,0.40723 0.12805,0.62562l1.00403,1.14746v-0.26174c0,0 0,-0.16716 0.04556,-0.41036c0.0111,-0.26188 0.02478,-0.4286 0.04163,-0.45993c0.099,-0.18412 0.21157,-0.35745 0.33533,-0.52189l-0.08051,-0.05032l0.5719,-0.91504c-0.29243,-0.36985 -0.63564,-0.71586 -0.7891,-1.15352c-0.77654,-2.21463 -1.46783,-5.10112 -2.05441,-7.43053c-1.39863,-5.55419 -1.86472,-11.45039 -3.48044,-16.92857c-0.93111,-3.15698 -3.0578,-5.72209 -4.39603,-8.71603c0,0 -0.91381,-2.05608 1.14226,-2.96989c0.23219,-0.10319 0.44981,-0.16851 0.65319,-0.2032z"></path><path d="M291.06642,242.70762c-2.25,0 -2.25,-2.25 -2.25,-2.25v-1c0.00745,-4.59851 -0.75,-9.13145 -0.75,-13.75c0,0 0,-2.25 2.25,-2.25c2.25,0 2.25,2.25 2.25,2.25c0,4.61989 0.74332,9.14517 0.75,13.75v1c0,0 0,2.25 -2.25,2.25z"></path><path d="M233.95095,107.99611c0.04828,0.14853 0.80233,2.82274 1.25734,3.19369c1.85594,1.51309 7.81217,0.03212 9.74709,-0.81091c2.05529,-0.89548 3.68635,-2.60913 5.74462,-3.49776c0.90524,-0.39083 1.96882,-0.24829 2.90491,-0.55805c2.58915,-0.85677 5.28602,-2.33143 7.80552,-3.425c3.17517,-1.37816 5.09651,-4.53492 8.8383,-4.86767c1.50653,-0.13397 3.02138,0.14668 4.53207,0.22002c-0.26681,1.71336 -0.14996,3.53269 -0.80042,5.14008c-1.30944,3.23584 -6.16897,5.52065 -8.98886,7.23586c-2.94873,1.79358 -5.88717,4.25172 -8.93656,5.85245c-6.08217,3.19273 -12.3118,4.84154 -17.05687,10.22361l-0.16921,0.51141c0,0 -0.52833,1.05666 -1.58499,1.25582c-0.45979,0.75837 -0.88438,1.5559 -1.26927,2.39803l-0.45217,2.03476c-0.06397,0.31898 -0.19539,0.61358 -0.37874,0.86828c-0.003,0.03967 -0.00603,0.07933 -0.0091,0.11898c-1.06585,16.63133 -0.81538,33.56192 -0.82099,50.17998c-0.80775,8.10723 -0.99721,15.96445 -0.99721,24.13792v0.5c0,0 0,2.25 -2.25,2.25c-0.46644,0 -0.83619,-0.0967 -1.12928,-0.25h-0.12072c-5.48123,-0.061 -11.80326,-4.35186 -13.42806,-9.93561c-0.00977,-0.03358 -0.01829,-0.11319 -0.0257,-0.22936c-0.64884,0.02465 -1.33239,0.01279 -1.98935,-0.02413l0.15148,0.1082l-2.02078,2.82909c-0.30286,0.43537 -0.79843,0.72663 -1.36316,0.75026c-0.04913,0.47096 -0.17387,0.91934 -0.42732,1.3054c-0.7432,1.13202 -1.59149,1.17515 -2.36675,1.27692c-0.52762,0.55819 -1.1475,1.00377 -1.78238,1.24587c-0.04876,0.11023 -0.09531,0.23078 -0.13948,0.36272l-0.73411,1.71293c-0.25862,0.64344 -0.88845,1.09771 -1.62439,1.09771c-0.9665,0 -1.75,-0.7835 -1.75,-1.75v-1.75h0.05848c-0.01584,-0.0804 -0.02976,-0.16129 -0.04157,-0.24273c-0.04916,-0.33893 -0.03818,-0.74812 0.02676,-1.19566c-0.23717,-0.9728 0.14362,-2.12062 0.18274,-3.08287c-0.15851,-0.02489 -0.30996,-0.07105 -0.45134,-0.13548l-1.46537,-0.62802c-0.51577,0.00092 -1.02358,-0.08242 -1.5233,-0.22009l-0.03389,0.23726l-0.3779,-0.05399c-0.08926,0.30211 -0.18236,0.59855 -0.30936,0.8542c-0.98018,1.9731 -1.77133,3.79166 -3.04571,5.59143l-1.18733,2.37466c-0.2806,0.59193 -0.8836,1.00129 -1.5822,1.00129c-0.89129,0 -1.62696,-0.66631 -1.73605,-1.52798l-0.24636,-1.72453l0.32537,-0.04648c-0.09444,-0.32512 -0.17186,-0.64319 -0.23287,-0.95652c-0.90108,-0.07128 -1.61009,-0.82508 -1.61009,-1.74449c0,-0.20784 0.03623,-0.40721 0.10272,-0.59215l0.73708,-2.21125l0.01916,0.00639c0.00164,-0.02497 0.0034,-0.04994 0.00527,-0.07491c0.07137,-0.95141 0.32259,-1.84098 0.70621,-2.67919c-2.34475,-2.88716 -5.53765,-5.46133 -5.32045,-9.44889c0.05619,-1.03154 -0.27087,-2.26722 0.37064,-3.07697c0.26918,-0.33978 0.6504,-0.52645 1.0745,-0.6545c-0.07388,-0.05464 -0.14788,-0.1095 -0.222,-0.16462c-0.42147,-0.18212 -0.6604,-0.50735 -0.79585,-0.81755c-0.1665,-0.29378 -0.28316,-0.67892 -0.17729,-1.12402v-0.16233c0.00234,-1.28685 -0.10253,-3.59161 0.51136,-4.67003c0.18662,-0.32783 0.47962,-0.56242 0.81613,-0.75846c0.49622,-1.33648 1.16892,-2.65497 1.90308,-3.93975l0.45418,-0.91438c0,0 0.19823,-0.39647 0.5947,-0.69057l0.17936,-0.62776c-0.07108,-4.37799 -0.20881,-8.76722 -0.20881,-13.14905c0,0 0,-0.01045 0.00081,-0.02972l0.05144,-1.89472c0.67501,-2.6987 1.57644,-5.0991 2.54247,-7.6435c0.72428,-1.90767 -0.00934,-4.56156 0.15968,-6.55612c0.20577,-2.42826 1.34528,-3.87545 2.45365,-5.95354c0.40836,-0.76564 0.85533,-1.51393 1.2855,-2.26994l0.30438,-1.06534c0.17394,-0.86503 0.54202,-1.83447 1.0834,-2.72055c0.06386,-0.32839 0.12254,-0.67578 0.17321,-1.05011l0.13916,-0.15009l-0.08229,-0.03086l0.73565,-1.96175c0.09347,-0.26814 0.25034,-0.50657 0.45266,-0.69732c0.42181,-0.75436 0.939,-1.48618 1.29312,-2.25517c0.31595,-0.68612 0.67344,-1.33641 1.05861,-1.96364c0.96969,-2.03296 2.01808,-4.02219 3.29338,-5.85076c1.07132,-1.53609 2.21237,-3.04902 3.3717,-4.55915c0.45029,-0.93346 0.93782,-1.83937 1.67265,-2.74849c0.60354,-0.74669 1.28659,-1.41673 2.0031,-2.0534c0.39929,-0.53456 0.79416,-1.07142 1.18241,-1.61146c1.05215,-1.46349 1.26275,-3.38545 2.08734,-4.98822c1.17229,-2.2786 3.63192,-4.02235 5.39696,-5.78717c1.27848,-1.27832 2.85953,-3.93383 4.74139,-4.24244c0.21214,-0.03479 0.42404,-0.05212 0.63576,-0.05504l-0.01004,-0.10036l2.46988,-0.24699c0.08337,-0.00937 0.16812,-0.01418 0.254,-0.01418c0.26497,0 0.51924,0.0458 0.75533,0.12992c0.39219,-0.19482 0.78205,-0.39133 1.15982,-0.60111c0.51844,-0.28791 1.02988,-0.57975 1.53687,-0.87282c0.53775,-0.4917 1.05797,-0.94263 1.49367,-1.23937c2.64433,-1.8009 5.56559,-3.07836 8.61244,-3.9125c0.43905,-0.15148 0.88572,-0.29274 1.34126,-0.42247c1.80472,-0.51397 6.52386,-1.5852 8.6174,-1.01828c3.31802,-0.51596 6.6593,-0.81336 9.9832,-0.81336h0.75c0,0 0.14064,0 0.3516,0.03516c0.12931,-0.0231 0.26245,-0.03516 0.3984,-0.03516c0.02805,0 0.05598,0.00051 0.08378,0.00153c0.38672,-0.31362 0.87953,-0.50153 1.41622,-0.50153c0.54799,0 1.05023,0.1959 1.4405,0.5215c0.06911,-0.00655 0.13829,-0.01295 0.20754,-0.01919l0.10196,0.0479v-0.05021h2.25c1.24264,0 2.25,1.00736 2.25,2.25c0,1.19129 -0.92583,2.16635 -2.09721,2.24489l-3.23022,0.24848l-0.01141,-0.14839c-0.9021,0.10355 -1.79212,0.23453 -2.67485,0.38488l-2.40551,1.3531c-0.69783,0.65709 -1.33859,1.21133 -1.80971,1.52361c-6.09568,4.04052 -13.40614,5.65202 -19.64175,9.33948c-1.7696,1.04646 -3.22067,2.58609 -5.0136,3.59204c-0.54163,0.30389 -1.11106,0.78739 -1.68704,1.20142c0.1928,0.51919 0.4389,0.97432 0.44592,1.01929l0.40785,1.12158c0.24799,0.34585 0.35208,0.65811 0.35208,0.65811zM237.49551,120.43064c0.47992,-0.52405 0.98127,-1.03022 1.50528,-1.51628c-0.22461,0.11113 -0.43534,0.24344 -0.62203,0.4124c-0.36341,0.3289 -0.65171,0.70071 -0.88325,1.10388zM214.32985,168.71211c0.40754,-4.23644 0.13367,-8.68979 0.02519,-13.01712c-0.71839,-0.08649 -1.30283,-0.60822 -1.48192,-1.2938l-0.48937,-1.7128c-0.58325,-0.92325 -0.89349,-2.04756 -1.04888,-3.24924c-0.53495,-0.71678 -1.09359,-1.43114 -1.42865,-2.42812c-0.20596,-0.61284 -0.3059,-1.65168 -0.34835,-2.7105c-1.86496,2.66209 -2.9178,5.49146 -3.24279,9.74081c-0.00303,0.37035 -0.10443,0.83289 -0.50192,1.18993c-0.19411,0.20712 -0.46288,0.37935 -0.83456,0.44737c-1.47221,2.1198 -2.81561,4.89733 -3.78208,7.16558c-0.56977,1.33721 -0.12984,4.29062 -0.13011,5.61342c-0.00078,3.75216 0.25,7.49259 0.25,11.25v1.06753c0.65326,0.48834 1.2385,1.06242 1.70609,1.71174l0.6159,1.02352c0.1963,0.23519 0.30257,0.50648 0.3601,0.73129c0.06903,0.23144 0.11871,0.53322 0.06118,0.84946c-0.06783,2.13621 -0.61674,4.45262 -0.27136,6.55421c0.34416,2.09419 2.25501,2.53891 3.09333,4.27962c0.24856,0.51613 0.35944,1.21135 0.40718,1.9308c0.48084,-0.0105 1.18873,0.26066 2.23844,0.96792c-0.00654,-0.17287 -0.01321,-0.3505 -0.01951,-0.53211c-0.12335,-0.20278 -0.24778,-0.40298 -0.38161,-0.58992c-2.5003,-3.49256 -1.00341,-9.21691 0.58174,-12.93343c0,0 0.60575,-1.41343 2.00654,-1.02255c0.97691,-4.99699 2.12467,-9.9325 2.6154,-15.03361zM200.06642,188.20762c-0.48325,0 -0.92075,-0.19588 -1.23744,-0.51256l-1.75,-1.75c-1.37743,-1.38958 -2.25212,-2.64763 -2.74538,-4.12748c-0.2741,-0.44962 -0.53503,-0.91193 -0.78428,-1.36436c-0.11941,0.85022 -0.84976,1.50441 -1.7329,1.50441c-0.57972,0 -1.09359,-0.28188 -1.41205,-0.71606c-0.17909,0.10174 -0.35478,0.20657 -0.5209,0.3198c-0.4072,1.20779 -0.58566,2.44634 -0.28669,3.6556c2.24877,1.64485 4.40854,3.1767 6.30684,5.25596c0.49863,0.22957 0.99772,0.5831 1.47474,1.07655c0.2283,0.23616 0.43453,0.52842 0.61733,0.86514c0.08669,0.07911 0.1654,0.16682 0.23477,0.26179c0.57516,-0.49096 1.11675,-0.97444 1.59852,-1.45621l0.36812,-0.08433c-0.06357,-0.96303 0.00874,-1.95446 0.10572,-2.94406c-0.07731,0.01044 -0.15623,0.01583 -0.2364,0.01583zM197.3969,179.57863c-0.00774,-0.0189 -0.01538,-0.03786 -0.02292,-0.05686c0.00226,0.02023 0.0046,0.04036 0.007,0.0604z"></path><path d="M260.96267,135.85869c0.05214,-2.04108 -0.14625,-4.16485 -0.14625,-6.15106v-3.5c0,-1.24264 1.00736,-2.25 2.25,-2.25c1.03554,0 1.90769,0.69957 2.16963,1.65188l0.73547,2.45158l-0.00666,0.002c0.00489,0.0084 0.00977,0.0168 0.01463,0.02521c1.26019,2.1792 1.80341,4.91243 2.02225,7.73791c0.23203,-0.07501 0.50156,-0.11859 0.81466,-0.11859c2.25,0 2.25,2.25 2.25,2.25c0,4.52574 -0.5863,9.47954 -0.01686,13.97509c0.87288,6.89098 3.10087,13.66247 3.76109,20.61388c0.33948,3.57439 -0.21891,7.29791 0.23586,10.86238c0.27324,2.14162 1.41129,4.10403 1.74816,6.23657c0.02767,0.17514 0.02175,5.07864 0.02175,5.56208v2.5c0,0.88797 -0.51438,1.65579 -1.26143,2.02176c0.00756,0.07505 0.01143,0.15119 0.01143,0.22824c0,1.24264 -1.00736,2.25 -2.25,2.25c-0.40531,0 -0.78558,-0.10717 -1.11404,-0.29471l-2.71338,-1.48002l0.0779,-0.14283c-1.81141,-0.4123 -3.53917,-0.97272 -5.18938,-1.84688l-0.9932,0.36116c-0.25351,0.09896 -0.52937,0.15328 -0.81791,0.15328c-0.40099,0 -0.77748,-0.1049 -1.10353,-0.28874c-0.3998,0.62467 -1.09978,1.03874 -1.89647,1.03874c-1.24264,0 -2.25,-1.00736 -2.25,-2.25v-2.17352c-0.61619,-6.80542 -0.25,-13.74461 -0.25,-20.57648c0,-4.59503 -0.55314,-9.74401 0.08405,-14.28926c0.46121,-3.28994 1.42985,-6.68137 2.13557,-10.01252c0.01185,-1.6938 0.02097,-3.38772 0.02601,-5.08178c-0.04535,-0.72091 -0.41902,-1.55126 0.00407,-2.11602c0.00021,-0.25014 0.00031,-0.50027 0.00031,-0.75042v-2.25c0,-0.79295 0.41019,-1.49009 1.02995,-1.89081c0.17325,-0.83194 0.37887,-1.64709 0.61631,-2.45812z"></path><path d="M258.18632,64.23824c2.21939,0.3699 1.84949,2.58928 1.84949,2.58928l-0.22239,1.30604c0.69557,0.71887 1.10919,1.72312 2.25499,2.45456c2.72142,1.73726 6.86677,3.15992 9.99684,4.1195h2.00117c1.24264,0 2.25,1.00736 2.25,2.25c0,0.67976 -0.30144,1.28911 -0.77794,1.70168l-1.99042,1.74162l-1.39065,1.39769c0,0 -1.59099,1.59099 -3.18198,0c-1.59099,-1.59099 0,-3.18198 0,-3.18198l0.16245,-0.16174c-3.27335,-1.06262 -6.91189,-2.46102 -9.57345,-4.12778c-0.28854,-0.1807 -0.56246,-0.38873 -0.81856,-0.61805c-0.18502,0.51717 -0.40278,1.00649 -0.66002,1.43979l0.26679,0.60028c0.13712,0.29078 0.21378,0.61568 0.21378,0.95849c0,1.24264 -1.00736,2.25 -2.25,2.25c-0.79338,0 -1.49085,-0.41063 -1.89147,-1.03096l-0.76646,-1.14969c-2.42122,-0.72092 -3.82806,-3.41417 -3.25234,-5.94842c0.28954,-1.27452 1.71285,-1.97461 2.56928,-2.96192c0,0 0.17945,-0.17945 0.47809,-0.35755c0.06876,-0.24895 0.14473,-0.5029 0.22836,-0.76297c0,0 0.58051,-1.74154 2.26589,-1.55412c0.34549,-0.56747 1.00751,-1.15892 2.23855,-0.95375z"></path><path d="M415.06642,97.20762c0,1.65737 -1.22083,2.09391 -1.86395,2.20889c-0.04882,0.14718 -0.11242,0.28761 -0.18905,0.41954l-1.23015,2.21427l-0.07113,-0.03951l-0.04877,0.23182c-3.0267,3.5579 -6.54011,8.9215 -11.96724,7.6278c-0.28872,-0.06882 -3.06023,-1.8053 -4.17536,-2.50568c-0.50858,-0.17365 -0.8436,-0.53123 -1.05895,-0.87523c-0.26353,-0.34645 -0.49301,-0.82722 -0.437,-1.41836l-0.19218,-1.30185c-0.31951,-0.34082 -0.67441,-0.57882 -1.05629,-0.73654c0.02629,0.13758 0.04005,0.27961 0.04005,0.42486c0,1.12935 -0.83205,2.06437 -1.91659,2.22547l-2.71047,0.45174c-2.89769,1.49948 -4.89333,3.46718 -8.52496,2.47625c-1.72252,-0.47001 -3.37847,-1.74971 -4.51256,-3.37563c-2.30503,0.62383 -4.73453,1.02369 -7.13595,1.44852c-0.15632,0.72523 -0.66223,1.32046 -1.3326,1.60059l-2.20306,0.97914c-4.42713,1.96222 -9.66242,3.93634 -14.54236,4.19064c-1.4308,0.07456 -2.91472,-0.18841 -4.38533,-0.42667c-5.28796,1.02443 -10.57419,1.59966 -15.99205,0.37233l-1.24407,0.05762c0,0 -2.25,0 -2.25,-2.25c0,-0.0211 0.0002,-0.042 0.00059,-0.0627c-0.97906,0.05317 -2.01284,-0.18996 -3.00059,-0.1873c-0.47047,0.00127 -0.95251,-0.00413 -1.44378,-0.01367l-1.05622,1.01367c-1.95991,0 -4.57344,0.32278 -6.65784,-0.07729c-1.05534,0.11655 -2.11151,0.21292 -3.16838,0.27943c0.22837,0.16652 0.395,0.36349 0.51581,0.57043c0.27443,0.40114 0.43111,0.95505 0.25865,1.70871c-0.65841,3.26335 -1.61289,6.45049 -1.96168,9.76424c-0.51262,4.87013 0.02832,9.88996 -0.5,14.75c-0.36451,3.35312 -1.24921,6.6008 -1.23657,10.00449v0.75c0,7.40524 -0.15184,14.72276 -0.50231,22.10196c-0.05585,1.17593 0.18176,5.18608 -0.40479,5.93886c-0.65936,0.84622 -4.39366,1.88423 -5.70378,2.64952c-2.0208,1.18042 -3.43855,3.02168 -5.43324,4.28576l-1.61489,1.61489c-0.40717,0.40717 -0.96967,0.65901 -1.59099,0.65901c-1.24264,0 -2.25,-1.00736 -2.25,-2.25c0,-0.45049 0.13239,-0.87005 0.36039,-1.22191l1.23161,-1.97058l0.02174,0.01359c0.01,-0.03121 0.02019,-0.06237 0.03059,-0.09349c0.30487,-0.91229 2.41004,-2.91189 3.00871,-3.76261c1.25054,-1.77705 1.94389,-4.33192 2.39672,-6.43559c1.37388,-6.38248 -2.02943,-13.321 -2.04976,-19.7794v-2.75c0,0 0,-2.25 2.25,-2.25c2.25,0 2.25,2.25 2.25,2.25c0,0 0,2.25 -2.25,2.25c-2.25,0 -2.25,-2.25 -2.25,-2.25c0,-10.82301 -0.64764,-22.01756 1.05901,-32.73586c-0.0386,-0.16513 -0.05901,-0.33725 -0.05901,-0.51414v-2.5c0.02105,-5.10397 1.42852,-10.51844 4.48594,-14.69004c1.16175,-1.66025 2.52579,-3.20895 3.98884,-4.70773c0.10877,-0.1208 0.17536,-0.19131 0.18423,-0.19322c0.00218,-0.00047 0.00436,-0.00092 0.00653,-0.00137c0.10146,-0.10306 0.20337,-0.20589 0.30569,-0.30851l0.04932,-0.0131l0.03039,-0.02659l-0.01523,-0.01777l1.74047,-1.49184c0.3948,-0.34253 0.91009,-0.54984 1.47381,-0.54984c1.1373,0 2.07751,0.8438 2.22875,1.93951c0.23998,-0.17901 0.48361,-0.35658 0.73096,-0.53278c0,0 1.84327,-1.29029 3.13356,0.55298c1.29029,1.84327 -0.55298,3.13356 -0.55298,3.13356c-1.28702,0.88106 -2.44588,1.80612 -3.49103,2.78298c-0.40346,0.64264 -0.71761,1.20582 -0.97339,1.74617c0.17413,0.46897 0.17413,0.87758 0.17413,0.87758c-0.13012,2.62889 1.12329,4.10603 2.93024,4.93597c2.39276,-0.10675 4.83663,-0.04151 7.17731,0.01313c2.67291,-0.35383 5.34561,-0.67063 8.03037,-0.94631l0.11208,0.04725v-0.05004h1.25031c0.2131,-0.02509 0.42624,-0.0401 0.63948,-0.04206c3.45101,-7.11207 4.81601,-2.55554 7.70565,0.5355l1.81685,0.60562c0.76575,0.2355 1.35732,0.86869 1.53366,1.65851c0.0088,0.0012 0.01739,0.00233 0.02576,0.00338c1.08248,0.13616 2.31767,0.31544 3.57872,0.46661c3.6919,-0.73523 7.36967,-1.73897 11.00991,-2.43419c1.35354,-0.2585 2.73933,-0.36078 4.07308,-0.70724c0.66501,-0.17275 1.25151,-0.66624 1.89207,-0.89007c0.2706,-1.31674 1.73643,-1.64248 1.73643,-1.64248c3.27527,-0.72704 6.52252,-1.51632 9.781,-2.25666c0.18541,-0.04213 0.37234,-0.07766 0.5603,-0.10757c0.03426,-0.86513 0.26057,-1.72055 0.7233,-2.52111c0.05691,-0.09847 0.11517,-0.19602 0.17468,-0.29271l-0.06255,-0.02736l1.72932,-3.95273c0.33645,-0.81884 1.14191,-1.39543 2.08203,-1.39543c1.24264,0 2.25,1.00736 2.25,2.25c0,0.07395 -0.00357,0.14707 -0.01054,0.21919l-0.22831,2.66056c-0.01464,0.86802 0.13874,1.78179 0.22204,2.67648l0.28517,-0.24953l0.10467,0.11963c0.18195,-0.19019 0.37606,-0.36874 0.58558,-0.53256c0.73497,-0.57467 1.86992,-0.01614 2.79587,-0.13033c3.24194,-0.39982 7.4718,-2.23124 10.70903,-0.54669c1.14832,0.59755 1.84683,1.81438 2.77025,2.72158l0.22556,0.97411c0.63575,-0.37298 1.35989,-0.6944 1.8977,-1.1005c2.45826,-1.8562 5.21475,-2.94548 8.0979,-3.60086l-0.11873,-0.26715l0.424,-0.18845c-0.0067,-0.08176 -0.01019,-0.16688 -0.01019,-0.25548c0,-2.25 2.25,-2.25 2.25,-2.25h2.25c0,0 2.25,0 2.25,2.25z"></path><path d="M404.11642,87.85762c1.35,1.8 -0.45,3.15 -0.45,3.15l-0.5703,0.40641c-0.1112,0.80708 -0.68871,1.38458 -0.68871,1.38458l-1.75,1.75c-0.40717,0.40717 -0.96967,0.65901 -1.59099,0.65901c-1.24264,0 -2.25,-1.00736 -2.25,-2.25c0,-0.41124 0.11033,-0.79671 0.303,-1.12843l1.23015,-2.21427l0.1902,0.10567c0.02698,-0.16395 0.05396,-0.32789 0.08094,-0.49184l2.34572,-1.82113c0,0 1.8,-1.35 3.15,0.45z"></path></g><g fill-opacity="0.37255" fill="#2e1340"><path d="M255.90937,115.56684c-3.33192,1.33269 -7.01212,3.15894 -10.62107,3.79494c-3.58779,1.2614 -7.33013,3.01887 -10.94428,4.05752c-0.90932,0.26132 -1.88479,0.48914 -2.89331,0.71079c0.05307,0.45476 -0.00786,0.80003 -0.00786,0.80003c-1.48196,8.36731 -0.71507,16.6264 -0.71196,25.06554c0.00372,10.09009 -0.50638,20.18291 -0.5,30.25c0,3.08333 0,6.16667 0,9.25v0.5c0,4.50935 0.38686,9.25435 0,13.75c-0.11786,1.36963 0.36682,3.0758 -0.56664,4.08497c-1.95973,2.11866 -6.98043,1.67096 -8.9287,-0.04507c-0.98874,-0.87088 -1.04007,-2.42644 -1.43034,-3.68491c-1.13241,-3.65153 -1.56179,-7.77745 -1.56579,-11.5612l0.0939,-0.1934l-0.0684,-0.0114l0.49324,-2.95946c0.179,-1.20503 1.21791,-2.12954 2.47274,-2.12954c0.17074,0 0.33749,0.01712 0.49861,0.04973c-0.00001,-1.18324 0.00033,-2.36649 0.00139,-3.54973c0.01406,-15.72655 1.75,-31.46621 1.75,-47.25c0,-1.73648 0.00468,-3.43174 -0.08071,-5.14022c-0.29443,0.00639 -0.58893,0.01171 -0.88326,0.01988c-0.11043,0.51352 -0.23569,1.02449 -0.32192,1.54243c-0.59951,3.60124 -1.34466,7.26827 -1.46595,10.92386c-0.07045,2.12344 -0.27864,4.19283 -0.54672,6.2416c-0.1674,7.40931 -0.76718,14.49193 -1.79346,21.77081c0.04634,1.51179 0.0909,3.0158 0.08987,4.49554c-0.27716,3.32591 -0.05582,6.45884 -0.99784,9.66982v2.22629c0,1.38071 -1.11929,2.5 -2.5,2.5c-1.3278,0 -2.41383,-1.03515 -2.49512,-2.34247l-0.24853,-3.47941l0.01971,-0.00141c-0.0083,-0.02915 -0.01645,-0.05834 -0.02447,-0.08759c-0.90141,-3.28934 0.38575,-7.64156 1.05324,-10.85984c0.05369,-0.25886 0.1048,-0.51792 0.15361,-0.77717c-0.0929,-3.7185 -0.27596,-7.50857 0.05008,-11.15831c0.26668,-2.98536 0.93878,-5.85459 1.49215,-8.7591c-0.451,0.44245 -1.06897,0.7153 -1.75067,0.7153c-1.38071,0 -2.5,-1.11929 -2.5,-2.5v-2.80624c-0.87337,-1.28605 -0.63732,-4.06859 -0.77067,-6.62038c-0.55022,0.05756 -1.29595,0.47315 -1.6236,0.84278c-1.6205,1.8281 -2.21893,4.45969 -3.68924,6.37588l0.29175,1.75051c0.02742,0.14831 0.04176,0.30121 0.04176,0.45746c0,1.38071 -1.11929,2.5 -2.5,2.5c-0.41989,0 -0.81561,-0.10352 -1.16302,-0.28642l-0.20771,-0.10386c-2.17216,4.89362 -2.91005,10.04968 -2.38937,15.41577c0.36813,3.79392 1.25739,7.25747 1.18017,11.10162l-0.44297,0.47129l0.20829,0.11572l-1.22575,2.20635c-0.41981,0.7909 -1.25182,1.32954 -2.20964,1.32954c-1.10109,0 -2.03592,-0.71184 -2.3694,-1.70042l-0.60761,-1.67092c-0.80554,-1.01801 -1.50779,-2.08772 -1.88615,-3.31291c-0.51459,-1.66631 -0.38665,-6.40149 -0.38683,-8.06575c-0.00053,-4.80729 0.36871,-9.58855 1.02486,-14.35165c0.29704,-2.15626 0.04161,-4.4859 0.96117,-6.45874c0.33975,-0.7289 0.97483,-1.25768 1.5872,-1.80398l0.18312,-2.56375l0.07045,0.00503l-0.04766,-0.20749c0.71158,-2.98034 1.3614,-6.69393 3.26171,-9.1724c0.42336,-0.55217 0.90141,-1.0302 1.42119,-1.43704c-0.05898,-1.0842 -0.065,-2.15438 0.63041,-2.87592c0.04524,-0.04694 0.0911,-0.09263 0.13755,-0.1371c-1.42456,-5.89282 3.05631,-10.48305 5.89337,-15.06129c3.05597,-4.9315 5.83378,-11.74211 10.26158,-15.59398c1.79906,-1.56505 3.77195,-2.77744 5.81221,-3.86351l1.42139,-1.62445l0.05136,0.04494l0.05542,-0.15953c4.09303,-3.62239 7.92314,-4.51845 12.9203,-6.33864c4.90041,-1.78495 9.73872,-4.03648 14.84954,-5.09902c2.04921,-0.42603 4.16179,-0.54796 6.25482,-0.5515c0.91667,-0.00155 1.97267,-0.48583 2.75,0h3.75c1.38071,0 2.5,1.11929 2.5,2.5c0,1.38071 -1.11929,2.5 -2.5,2.5h-2.17535c-0.60877,0.21683 -1.20959,0.39478 -1.80559,0.55089c-0.19986,0.43082 -0.51881,0.79515 -0.91457,1.05075l-2.21774,1.47849l-0.04456,-0.06684c-0.1062,0.09497 -0.21632,0.18612 -0.33081,0.273c-1.20299,0.91286 -2.92533,0.75135 -4.38612,1.13426c-1.55024,0.40636 -4.79922,1.20548 -6.41856,1.88915c-2.88062,1.21619 -4.79343,3.07832 -7.42576,4.5872c-4.02785,2.30881 -8.79353,3.92222 -12.38252,6.98264c-1.13801,0.97041 -3.70085,4.26125 -1.55791,5.69167c3.15492,2.10592 7.51693,1.96064 11.11774,2.47115c2.71931,0.62708 5.83604,1.63775 8.6787,1.23414c0.06529,-0.00927 0.13062,-0.01902 0.19599,-0.02925c2.9959,-1.05286 6.46619,-2.36997 9.15847,-3.90734c0.07957,-0.04544 0.15886,-0.09142 0.23787,-0.13791c0.25161,-0.27728 0.58942,-0.52679 1.03583,-0.64771c3.69282,-2.44071 6.85416,-5.88711 10.69864,-8.19802c0,0 2.14373,-1.28624 3.42997,0.85749c1.28624,2.14373 -0.85749,3.42997 -0.85749,3.42997c-3.98095,2.38386 -7.19517,5.9337 -11.04652,8.41669zM214.7309,138.99565c0,-0.05958 -0.00038,-0.12102 -0.00111,-0.18424c-0.15021,0.13017 -0.32715,0.25429 -0.53478,0.36963c-0.05625,0.03125 -0.11185,0.06024 -0.16681,0.08708c0.00239,0.01632 0.00475,0.03266 0.0071,0.04903c0.31093,0.43743 0.54307,1.03056 0.71599,1.7152c-0.01282,-0.68359 -0.02039,-1.36285 -0.02039,-2.03671zM214.17465,134.08655l0.40531,0.69279c-0.0085,-0.36072 -0.01336,-0.72444 -0.01256,-1.08591zM225.79754,204.66068c-0.00036,-0.00209 -0.00072,-0.00417 -0.00107,-0.00626c-0.00917,0.01342 -0.01846,0.02674 -0.02788,0.03997c0.02579,0.02195 0.03762,0.01676 0.02896,-0.0337z"></path><path d="M255.7309,77.99565c-2.5,0 -2.5,-2.5 -2.5,-2.5l0.00736,-1.19174c0.14331,-1.84897 0.24406,-3.70374 0.24264,-5.55826c0,0 0,-2.5 2.5,-2.5c2.5,0 2.5,2.5 2.5,2.5c-0.00141,1.98244 -0.1064,3.96506 -0.25736,5.94174l0.00736,0.80826c0,0 0,2.5 -2.5,2.5z"></path><path d="M269.4809,77.49565c0,-1.38071 1.11929,-2.5 2.5,-2.5c0.24901,0 0.48952,0.03641 0.71649,0.10419c0.37519,-0.2249 0.81425,-0.35419 1.28351,-0.35419c1.38071,0 2.5,1.11929 2.5,2.5c0,1.38071 -1.11929,2.5 -2.5,2.5c-0.24901,0 -0.48952,-0.03641 -0.71649,-0.10419c-0.37519,0.2249 -0.81425,0.35419 -1.28351,0.35419c-1.38071,0 -2.5,-1.11929 -2.5,-2.5z"></path><path d="M219.2309,295.24565c0,2.5 -2.5,2.5 -2.5,2.5h-0.75c-1.82331,-0.00676 -5.8274,0.27377 -7.24012,-1.5h-1.00988c-3.83124,0 -7.679,0.39347 -11.5,0.25c-1.29143,-0.04849 -2.74563,0.37666 -3.86803,-0.26393c-5.26007,-3.00211 -2.49863,-10.47232 -0.33086,-14.42554c0.6314,-1.15144 0.96405,-2.59403 2.00974,-3.38839c0.10331,-0.07848 0.20842,-0.15391 0.31518,-0.22656l-0.04843,-0.05381l0.91945,-0.82751c1.17874,-6.81616 2.44174,-13.53777 4.63449,-20.11449c1.44912,-4.34634 3.11147,-8.80873 4.1817,-13.25851c0.02105,-0.08751 0.20208,-1.1001 0.40496,-2.23503c-0.15166,0.02873 -0.30818,0.04377 -0.4682,0.04377c-1.38071,0 -2.5,-1.11929 -2.5,-2.5c0,-0.63486 0.23664,-1.21445 0.62653,-1.65538l1.74202,-1.99089l0.2678,0.23433l0.26096,-0.6905c0.07539,-0.00557 0.15144,-0.01327 0.22807,-0.02284c0.25633,-0.92191 0.96719,-1.73567 1.37264,-2.62209l0.48851,-0.2323l-0.1328,-0.15177l1.99089,-1.74202c0.44092,-0.38989 1.02051,-0.62653 1.65538,-0.62653c0.20011,0 0.39472,0.02351 0.58123,0.06792c0.39296,-0.8397 0.76805,-1.67254 1.09757,-2.4964c0,0 0.68912,-1.72281 2.36421,-1.60628l0.56704,-1.70112c0.31417,-1.02156 1.26534,-1.76412 2.38994,-1.76412c1.38071,0 2.5,1.11929 2.5,2.5c0,0.16973 -0.01691,0.33551 -0.04915,0.49574l-0.49118,2.70147l-0.00953,-0.00173l0.00551,0.02329c-1.1166,5.56058 -1.56364,11.03016 -4.23905,16.18736c-1.43832,2.77255 -3.47111,5.25968 -4.5496,8.22737c-0.06894,0.2966 -0.12999,0.59899 -0.18167,0.90848c0.004,0.06499 0.00583,0.12711 0.0061,0.18562l0.00856,0.0224c0,0 0,0.09408 -0.01825,0.24574c-0.01185,0.15229 -0.0303,0.24455 -0.0303,0.24455c-0.34571,1.70537 -0.82319,3.31723 -1.37355,4.89536c-0.19744,1.94527 -0.46527,3.86498 -0.89048,5.67021c-1.32222,5.6135 -4.75957,11.13431 -4.68742,16.94414v0.4375c0.02083,0.30196 -0.01247,0.58138 -0.05691,0.80112c-0.04007,0.20263 -0.10835,0.44837 -0.22471,0.69751c-0.37073,0.97292 -0.81205,2.60207 -1.38735,4.27975c0.23878,0.0684 0.46935,0.13543 0.69237,0.20143c0.55982,0.00893 1.10391,0.23296 1.64697,0.51636c1.18004,0.39673 2.13103,0.78922 3.0194,1.26347c0.27221,0.0539 0.54421,0.10289 0.81615,0.14735l0.0513,-0.10993l0.37811,0.17645c1.18679,0.17377 2.37348,0.26538 3.57079,0.3079c0.25869,-0.2505 0.51044,-0.49015 0.74505,-0.71556c0.77753,-1.38822 1.56742,-2.76956 2.36471,-4.14652l0.53732,-0.15255l-0.1532,-0.20426l1.9798,-1.48485c0.42124,-0.32311 0.94829,-0.51515 1.5202,-0.51515c1.38071,0 2.5,1.11929 2.5,2.5c0,0.58659 -0.20203,1.126 -0.5403,1.55244l-1.68482,2.16619c-0.33555,0.71345 -0.81485,1.44313 -1.59153,2.36634c-0.25786,0.30651 -0.59854,0.69849 -0.97597,1.08954c-0.00733,0.0132 -0.01466,0.0264 -0.02199,0.0396c0,0 -0.00711,0.0128 -0.02122,0.03589h0.58583c0,0 2.5,0 2.5,2.5z"></path><path d="M232.9809,231.74565c2.5,0 2.5,2.5 2.5,2.5v1.75c-0.04219,4.55789 -0.9046,9.3226 -1.25736,13.94174c0,0 -0.19174,2.49264 -2.68438,2.30089c-2.49264,-0.19174 -2.30089,-2.68438 -2.30089,-2.68438c0.34406,-4.439 1.29668,-9.2003 1.24264,-13.55826v-1.75c0,0 0,-2.5 2.5,-2.5z"></path><path d="M266.72063,150.01931l0.24179,2.67295c1.11441,7.22634 1.86249,14.40637 1.26219,21.73061c-0.24149,2.94646 -0.88029,5.97315 -0.52021,8.95974c0.57692,4.78503 6.7819,9.2627 3.05679,14.86819c-2.1752,3.2732 -3.78451,2.06132 -4.83412,0.42546l-0.00626,0.05008l-0.15205,-0.01901c-0.1691,0.08418 -0.33256,0.17341 -0.48754,0.27021l-0.60156,-0.40634l-0.2561,-0.03201l-0.10046,0.36837l-2.69761,-0.73571c-0.60779,-0.15117 -1.12767,-0.52474 -1.46824,-1.02932c-0.34013,-0.00179 -0.66676,-0.0761 -0.97307,-0.25946c-1.74662,-1.04555 -1.5613,-7.08409 -1.44112,-8.63376c0.21778,-2.8083 1.14066,-5.57829 1.50995,-8.33549c0.5893,-4.39979 -0.62112,-9.0522 -0.00545,-13.45639c0.32316,-2.31173 0.97126,-4.56888 1.36739,-6.86855c0.06005,-9.61625 0.1173,-19.23153 0.11594,-28.84322c0,0 0,-2.5 2.5,-2.5c2.5,0 2.5,2.5 2.5,2.5c-0.00079,5.79637 -0.02197,11.59398 -0.05169,17.39228c0.92972,0.65259 1.04143,1.88138 1.04143,1.88138z"></path><path d="M400.03088,105.07424c-0.54446,-1.87644 1.33198,-2.81466 1.33198,-2.81466l0.6565,-0.32162c0.79172,-0.30759 1.58315,-0.61597 2.37436,-0.92487l1.44643,-1.65306c0.45841,-0.52944 1.13546,-0.86438 1.89075,-0.86438c1.38071,0 2.5,1.11929 2.5,2.5c0,0.59805 -0.20999,1.14705 -0.56027,1.57729l-1.98756,2.48445l-0.07218,-0.05774l-0.06165,0.2117c-1.2968,1.16251 -4.01797,4.02726 -6.04236,4.22834c-1.74329,0.17316 -3.70001,0.09327 -5.18994,-0.82823c-1.13259,-0.70049 -0.6873,-3.25309 -2.00338,-3.45653c-0.50468,-0.07801 -1.04442,-0.07064 -1.60122,-0.00272c-2.05344,1.89308 -6.33581,2.66131 -8.36833,3.51708l-0.40421,-0.12567l0.01743,0.19175l-2.71884,0.24717c-0.08465,0.00866 -0.17056,0.0131 -0.25749,0.0131c-1.18256,0 -2.17334,-0.82107 -2.43337,-1.92422c-0.85842,-0.64129 -1.59808,-1.69615 -2.20515,-2.85542c-3.20879,1.02136 -6.03426,2.5948 -9.183,3.85084c-6.03506,2.4074 -12.57347,4.38868 -19.05394,4.6757c-2.01407,0.0892 -3.77816,0.81651 -5.65182,1.07138c-1.27179,1.00542 -2.79771,0.05172 -2.79771,0.05172l-0.26138,-0.19269c-0.06775,-0.01741 -0.13581,-0.03593 -0.20419,-0.05559c-0.59094,-0.16993 -1.23406,-0.5172 -1.89198,-0.96345c-1.70671,-0.42045 -3.41687,-0.82709 -5.12959,-1.22228c0,0 -1.05871,-0.24432 -1.61915,-1.10878c-1.83546,0.55514 -3.63223,1.20315 -5.57236,1.41063c-3.64621,0.38995 -7.50327,0.45856 -11.13331,0.98567c-1.24391,0.18062 -2.94396,0.66931 -4.63993,0.93078c0.00405,0.03771 0.00733,0.07468 0.00993,0.11078c0.01697,0.14531 0.01697,0.23493 0.01697,0.23493c0,1.83333 0,4.66667 0,6.5c-0.00542,6.56776 -1.50335,12.87644 -1.75257,19.36329c-0.41967,10.92352 -0.73432,22.27177 -0.02255,33.17446c0.03799,0.29126 0.0243,0.56349 -0.00368,0.77928c-0.03156,0.24864 -0.10035,0.56494 -0.24726,0.87919l-1.18309,3.24772c-2.68448,2.19018 -5.27494,3.99915 -8.10738,5.52579c-0.01581,0.02355 -0.03153,0.0471 -0.04714,0.07065l0.28608,0.31787l-2.49287,2.24359c-0.44381,0.40276 -1.03301,0.64818 -1.67954,0.64818c-1.38071,0 -2.5,-1.11929 -2.5,-2.5c0,-0.63486 0.23664,-1.21445 0.62653,-1.65538l1.64892,-1.88448c1.14151,-1.76087 4.07007,-4.30949 4.55447,-6.33725c0.79124,-3.31218 -0.4449,-7.63848 -0.81776,-10.87655c-0.96328,-8.36543 -0.76217,-16.81295 -0.76217,-25.24634v-1c0,-7.50514 -1.15295,-16.1181 0.29947,-23.49486c0.01541,-0.07824 0.03139,-0.1559 0.04795,-0.233c-0.22072,-0.37268 -0.34741,-0.80761 -0.34741,-1.27214c0,-0.15625 0.01433,-0.30915 0.04176,-0.45746l0.49226,-2.95354l0.05488,0.00915c-0.00181,-0.08509 -0.00213,-0.17033 -0.00087,-0.25572c0.03483,-2.35728 2.13226,-4.58773 3.29239,-6.41809c1.63922,-2.58624 2.4829,-5.20976 4.35181,-7.69211l0.36105,-0.10785l-0.09328,-0.12438l1.9798,-1.48485c0.42124,-0.32311 0.94829,-0.51515 1.5202,-0.51515c1.38071,0 2.5,1.11929 2.5,2.5c0,0.44164 -0.11452,0.85653 -0.31548,1.2166c0.34022,1.09027 -0.33158,2.1353 -0.33158,2.1353c-1.03722,1.61259 -2.09569,3.20919 -3.16002,4.80169c0.12152,0.6464 -0.01757,1.20276 -0.01757,1.20276c-0.23136,0.89971 -0.51553,1.78746 -0.69409,2.69912c-0.12579,0.64221 -0.50747,1.84351 0.13677,1.95847c1.9727,0.35203 4.37608,-0.72107 6.26893,-0.98743c3.71145,-0.52228 7.64263,-0.67219 11.36669,-1.01433c2.55805,-0.23502 4.98149,-1.45184 7.50605,-1.96362l0.4189,-0.25675c0.65844,-0.57726 1.33298,-0.65468 1.89327,-0.55089c0.52907,0.03817 1.11431,0.25327 1.58907,0.86748c0.8894,0.82769 2.17891,2.20787 3.38084,3.1378c0.10486,0.0261 0.20971,0.05225 0.31454,0.07846l1.56201,0.89364c1.88394,0.30263 4.93725,-1.11794 6.70712,-1.21518c9.71197,-0.53358 17.69965,-5.46609 26.73752,-8.23492c-0.0236,-0.09747 -0.04509,-0.19027 -0.06444,-0.27789c0,0 -0.49029,-2.45145 1.96116,-2.94174c2.45145,-0.49029 2.94174,1.96116 2.94174,1.96116c0.2108,1.25522 0.99364,2.34482 1.54855,3.49029c0.15367,0.31723 -0.31976,1.09325 0.03086,1.05701c0.47333,-0.04891 0.49639,-0.828 0.84867,-1.1479c1.78494,-1.62088 3.47621,-2.79827 6.03863,-2.88699c1.55044,-0.05368 3.67306,-0.53418 4.5996,0.71011c0.1209,0.16237 0.23294,0.32145 0.33642,0.47733c0.96265,-0.0228 1.90636,0.09263 2.81315,0.38115c1.45983,0.46449 2.86439,1.31891 3.8762,2.46917c0.45744,0.52004 -0.20531,1.46308 0.12041,2.07431c0.09169,0.17206 0.22604,0.22313 0.38603,0.19441zM304.2309,113.76299c0.01465,-0.0784 0.02937,-0.15677 0.04415,-0.23511c0,0 0.01677,-0.08804 0.06063,-0.22761c0.01712,-0.06434 0.03704,-0.13113 0.06021,-0.19947c-0.05604,-0.03506 -0.11103,-0.07046 -0.165,-0.10621c0,0.262 0,0.51892 0,0.7684z"></path><path d="M398.4809,93.24565c-2,-1.5 -0.5,-3.5 -0.5,-3.5l1.5,-2c0,0 1.5,-2 3.5,-0.5c2,1.5 0.5,3.5 0.5,3.5l-1.5,2c0,0 -1.5,2 -3.5,0.5z"></path><path d="M302.94057,290.54844c0.44721,2.45967 -2.01246,2.90689 -2.01246,2.90689l-2.9727,0.53022c-6.56136,0.02433 -12.74607,0.34122 -19.22575,0.99769c0,0 -0.64068,0.06407 -1.30428,-0.19797l-0.16864,0.18896c-0.30539,0.4644 -0.81028,0.93572 -1.62123,1.02325c-0.46954,0.10212 -1.02256,0.07312 -1.59637,-0.27502c-0.60796,-0.28433 -0.93885,-0.72838 -1.11434,-1.17571c-0.34992,-0.67135 -0.27848,-1.30671 -0.0929,-1.80369l0.19415,-0.97076l-0.02234,-0.02553l-0.09662,0.35427c-0.27065,1.0882 -1.25425,1.8946 -2.4262,1.8946c-1.05134,0 -1.9511,-0.64897 -2.32056,-1.56816l-1.4773,-3.44704l0.07697,-0.03299c-0.08883,-0.17726 -0.17101,-0.35824 -0.24554,-0.5435c-0.92147,-2.29053 0.23404,-5.24339 1.29499,-7.89866c-1.41001,0.26236 -2.23861,-0.85445 -2.4858,-1.25411c-0.56352,-0.37617 -1.09786,-0.79642 -1.61774,-1.23684c-0.41347,0.30263 -0.92338,0.48129 -1.47502,0.48129h-2.75c-1.19946,-0.08474 -2.51876,0.27523 -3.59838,-0.25421c-1.06404,-0.5218 -1.46013,-1.88616 -2.35366,-2.66465c-0.86745,-0.75577 -1.99696,-1.16381 -2.88293,-1.89778c-2.79217,-2.31311 -3.56318,-4.90978 -5.48965,-7.78838c-3.42475,-5.1174 -6.9341,-10.24539 -8.58729,-16.23718c0,0 -0.41262,-1.51295 0.61402,-2.46911l-0.34178,-2.22158c-0.18828,-0.57382 -0.28747,-1.42757 0.3345,-2.20007c0.25981,-0.40423 0.67136,-0.77476 1.32327,-0.93434c0.63095,-0.22884 1.17891,-0.14883 1.61931,0.04339c0.71867,0.22619 1.11706,0.72227 1.3379,1.20275c1.95495,2.87488 4.62064,5.70066 6.22326,8.73108c0.90861,1.71809 1.05339,3.77748 1.98948,5.48076c1.33172,2.42319 4.02654,6.03313 6.06667,7.9286c2.82854,2.62797 6.2707,4.62435 9.16496,7.17003c1.15027,1.01173 2.19265,2.2046 3.54443,2.9253l0.50062,0.61689c-0.00071,-0.23622 -0.00089,-0.47242 -0.00041,-0.70861c-0.49475,-0.38566 -0.84065,-0.95334 -0.93706,-1.60242l-0.49026,-2.94157c-0.43779,-0.92934 -0.69687,-1.94085 -0.85536,-2.99378c-1.03726,-0.24114 -1.82675,-1.12793 -1.92198,-2.21385l-0.24725,-2.4725l0.06035,-0.00603l-0.06965,-0.11819c0.00225,-5.66814 -0.88314,-11.63429 -3.27222,-16.8252c-1.49824,-3.25532 -3.73607,-6.52379 -1.93827,-10.50896c0.03931,-0.08713 0.08011,-0.1734 0.1223,-0.25886l-0.05437,-0.01673l0.98336,-3.19592c0.29656,-1.04967 1.2615,-1.81887 2.40609,-1.81887c0.20341,0 0.40115,0.02429 0.59047,0.07014c0.65166,-0.84229 1.29839,-1.66588 1.81908,-2.48995l0.66425,-2.43558c0.20976,-0.8434 0.84779,-1.51752 1.66984,-1.77814c0.00408,-0.37333 0.00636,-0.74554 0.00636,-1.11646c0,0 0,-2.5 2.5,-2.5c2.5,0 2.5,2.5 2.5,2.5c0,5.11541 -0.39682,10.42518 -0.0101,15.52549c0.21409,2.82358 1.58918,5.30264 1.98822,8.14446c1.21359,8.64268 2.03265,17.10157 3.74436,25.71009l0.26512,2.62121c0,0 0.00453,0.04534 0.00626,0.12438c0.00615,0.07882 0.00615,0.12438 0.00615,0.12438c0,2.52784 -0.0415,5.02 -0.14343,7.51325c2.55381,-2.9724 5.75765,-5.15754 9.89343,-5.26325l1.39645,-0.22487c0,0 2.47487,-0.35355 2.82843,2.12132c0.35355,2.47487 -2.12132,2.82843 -2.12132,2.82843l-2.10355,0.27513c-1.74839,-0.07462 -3.31472,0.70468 -4.69329,1.91387c0.66639,1.28865 -0.30671,2.58613 -0.30671,2.58613c-0.81883,1.09157 -1.617,2.17308 -2.39064,3.26744c5.55959,-0.49356 10.98065,-0.78258 16.66612,-0.75734l2.5273,-0.46978c0,0 2.45967,-0.44721 2.90689,2.01246z"></path><path d="M290.8919,239.46164c-2.46598,0.411 -2.87698,-2.05499 -2.87698,-2.05499l-0.27375,-2.13734c0.17625,-1.91813 0.24131,-3.84745 0.23973,-5.77366c0,0 0,-2.5 2.5,-2.5c2.5,0 2.5,2.5 2.5,2.5c-0.00159,2.07726 -0.07405,4.15744 -0.26027,6.22634l0.22625,0.86266c0,0 0.411,2.46598 -2.05499,2.87698z"></path></g><path d="M197.46975,293.45146c-0.9848,2.29786 -3.28266,1.31306 -3.28266,1.31306l-3.43564,-1.92164c-0.24742,-2.54548 -0.81019,-4.97185 0.04401,-7.48583c1.06915,-3.14662 2.92934,-6.12003 4.00472,-9.34763c1.59379,-4.78353 3.0762,-9.54526 4.66442,-14.32656c0.58829,-1.77104 1.32536,-5.4607 2.86245,-7.10998l1.08017,-1.94431c0.38597,-2.9203 0.598,-5.86401 0.598,-8.82858c0,0 0,-2.5 2.5,-2.5c2.5,0 2.5,2.5 2.5,2.5c0,2.73585 -0.1686,5.45459 -0.47995,8.15442c0.09491,0.2641 0.14662,0.5488 0.14662,0.84558c0,0.22872 -0.03071,0.45026 -0.08824,0.66073l-0.62321,2.49285c-1.76582,10.60195 -5.56426,20.89404 -9.79626,30.76477l-0.9643,2.57148c-0.14393,0.41292 -0.39311,0.77651 -0.71541,1.05864c0.59615,0.37735 1.73046,1.36428 0.98529,3.103z" fill-opacity="0.1098" fill="#f6d1ff"></path><path d="M238.78999,252.62296c-0.59061,-0.72949 -1.20015,-1.45366 -1.83288,-2.1767c0,0 -1.64626,-1.88144 0.23518,-3.5277c1.88144,-1.64626 3.5277,0.23518 3.5277,0.23518c2.69122,3.07599 5.026,6.20678 7.21082,9.61122c0.98787,1.53931 1.56708,3.63175 2.79165,5.05827c2.54532,2.96508 4.25757,4.38351 5.99546,8.14343l1.26945,2.22154c0.22304,0.37408 0.35117,0.81131 0.35117,1.27847c0,1.38071 -1.11929,2.5 -2.5,2.5c-0.45034,0 -0.87287,-0.11907 -1.23782,-0.32746l-3.62598,-1.9778l0.03731,-0.0684c-0.16075,-0.07336 -0.31952,-0.15177 -0.47605,-0.23586c-1.86808,-1.00349 -2.09109,-3.70404 -3.36866,-5.39654c-0.4948,-0.6555 -1.39952,-0.91243 -1.91143,-1.55465c-2.36415,-2.96597 -2.9622,-7.18251 -4.84053,-10.55579c-0.56584,-0.17943 -1.04448,-0.55478 -1.35626,-1.04639c-0.34876,-0.50674 -0.64762,-1.27171 -0.26914,-2.18082z" fill-opacity="0.1098" fill="#f6d1ff"></path><path d="M262.51859,249.39822c-0.83874,-2.14711 -2.13479,-5.00069 -1.13493,-7.40432c0.06081,-0.14619 0.12644,-0.28964 0.19636,-0.43064l-0.06266,-0.02506l1.31171,-3.27926c0.35452,-0.94948 1.26971,-1.62559 2.34282,-1.62559c1.21151,0 2.22174,0.86176 2.45115,2.00574l0.00015,0.00069c0.06964,-0.00425 0.14141,-0.00643 0.21536,-0.00643c2.5,0 2.5,2.5 2.5,2.5l-0.04033,0.21945c0.43671,2.40226 0.9922,4.82853 1.5099,7.2661c0.9924,1.97621 1.94069,3.9608 2.70095,5.96035c2.05407,5.40235 1.16281,12.19438 1.16281,17.88743c0,3.47183 1.15985,9.50708 -0.67571,12.57838c-0.05198,0.08698 -0.10487,0.17332 -0.15862,0.25907l0.04754,0.02219l-2.09071,4.48009c-0.38723,0.87954 -1.26649,1.49361 -2.28918,1.49361c-1.38071,0 -2.5,-1.11929 -2.5,-2.5v-2.66667c0,-5.72221 0.60423,-12.0069 0.35975,-17.98024c-0.50836,-0.37152 -0.87119,-0.93033 -0.98695,-1.57488l-0.64882,-3.2441c-1.1786,-4.70943 -2.44893,-9.42614 -4.21061,-13.93589z" fill-opacity="0.1098" fill="#f6d1ff"></path><path d="M219.62011,229.11862c-1.59644,0.70892 -4.35502,1.93259 -5.30879,2.13627c-1.07412,0.22938 -2.19887,0.11333 -3.29478,0.04028c-1.13671,-0.07577 -2.34091,-0.02522 -3.38306,-0.48541c-9.6535,-4.26281 -5.40421,-16.35727 -0.82926,-22.79619c0,0 0.4013,-0.56182 1.07737,-0.88408c0.26178,-0.5964 0.74968,-1.07103 1.3552,-1.31541c0.36256,-0.46538 0.95781,-0.84742 1.93509,-0.84742c2.5,0 2.5,2.5 2.5,2.5l-0.01931,0.68991c0.48933,3.94938 1.23092,8.41718 3.0049,12.11075c0.25939,0.23511 0.52702,0.46527 0.80149,0.69196c1.96547,-0.01307 6.00851,-0.00588 6.42247,0.42027c1.3718,1.41219 2.88477,3.96557 1.81728,5.61983c-1.6215,2.51277 -3.92386,2.75081 -6.07861,2.11923zM213.64882,226.22863c-2.51982,-0.09546 -4.97647,-0.54947 -6.0937,-1.86431c-0.99229,-1.16779 -0.4517,-3.03503 -0.5499,-4.56432c-0.00487,-0.07591 -0.01011,-0.15193 -0.01568,-0.22805c-0.68814,3.4382 0.04031,6.49421 4.33769,6.73288c0.6786,0.03769 1.3769,0.19566 2.03855,0.04028c0.00427,-0.001 0.10756,-0.04358 0.28303,-0.11648z" fill-opacity="0.1098" fill="#f6d1ff"></path><path d="M271.51241,222.50289c-0.0915,0.13389 -0.19158,0.263 -0.30139,0.38668c-0.57009,0.64213 -1.46513,0.73414 -2.39804,0.73247c-3.35616,5.00402 -8.08925,12.7599 -14.35066,9.26505c-1.29008,-0.72006 -1.65634,-2.50023 -2.07272,-3.91777c-0.30798,-1.04851 0.06962,-2.19096 -0.04095,-3.27815c-0.25415,-2.49885 -0.64313,-4.87449 -0.85663,-7.31678c-0.05269,-0.21697 -0.08357,-0.43881 -0.08659,-0.66669c-0.00159,-0.11964 0.00139,-0.23861 0.00851,-0.35697c-0.00466,-0.07239 -0.00913,-0.14486 -0.01341,-0.21742h-0.06198v-2.66667c0,-1.0841 0.69004,-2.00703 1.65486,-2.35354c0.4571,-0.49972 1.11452,-0.81313 1.84514,-0.81313c0.90946,0 1.70549,0.48562 2.14294,1.21171l1.64373,2.62996l-0.01262,0.00789l0.03834,0.03419c0.48002,0.88687 0.76065,1.62471 1.26504,2.22786c1.37077,0.09471 2.85494,-0.44494 4.25591,-0.44494c0.66378,0 1.30512,0.01012 1.93263,0.02997c1.93483,-1.12039 4.03052,-2.25636 5.88173,-2.64217c3.37363,-0.7031 4.00276,0.12372 6.81592,1.47023l2.52622,0.94733c0.9763,0.34031 1.67684,1.269 1.67684,2.36132c0,0.94657 -0.52607,1.77027 -1.30179,2.19469l-2.2912,1.30926l-0.02482,-0.04343c-0.20545,0.12071 -0.42118,0.22464 -0.64957,0.30792c-1.84553,0.67294 -3.93308,-0.06659 -5.88702,-0.26897c-0.44928,-0.04653 -0.89513,-0.08973 -1.33842,-0.1299zM257.21478,228.7129c0.03715,0.01508 0.07613,0.02608 0.11672,0.03334l-0.12186,-0.48745c-0.07212,0.19748 -0.14717,0.39228 0.00514,0.45411z" fill-opacity="0.1098" fill="#f6d1ff"></path><path d="M224.50522,160.3c2.5,0 2.5,2.5 2.5,2.5v2.66667c0,8.33333 0.00081,16.66667 0,25c-0.00025,2.55392 0.55275,9.93125 -0.54496,11.67332c-0.165,0.26186 -0.3563,0.49783 -0.56839,0.71332l0.04779,0.04779l-2.33333,2.33333c-0.45241,0.45241 -1.07741,0.73223 -1.76777,0.73223c-1.38071,0 -2.5,-1.11929 -2.5,-2.5c0,-4.33333 0,-11.33333 0,-15.66667c0,0 0,-2.5 2.5,-2.5c0.05673,0 0.11216,0.00129 0.16634,0.0038c-0.0002,-6.61238 0.00032,-13.22476 0.00032,-19.83714v-2.66667c0,0 0,-2.5 2.5,-2.5z" fill-opacity="0.1098" fill="#f6d1ff"></path><path d="M307.15803,169.31198c0.80448,4.33172 0.72737,8.52587 -2.53948,12.5768l-0.19273,0.09637l0.03971,0.04632l-2.32275,1.99093c-0.43866,0.38059 -1.01121,0.61093 -1.63756,0.61093c-1.33727,0 -2.42931,-1.04997 -2.4967,-2.37049l-0.29259,-4.97408l0.43827,-0.02578c-0.99275,-7.69662 -0.35981,-15.247 2.21173,-22.89535l0.31264,-3.75169c0.09421,-1.29477 1.17452,-2.31595 2.49333,-2.31595c1.10109,0 2.03592,0.71184 2.3694,1.70042l1.31341,3.61189l-0.02421,0.0088c0.02197,0.03796 0.04376,0.07603 0.06537,0.11422c1.11243,1.96624 0.77144,5.86043 0.77603,7.73133c0.00085,0.34798 0.01347,5.87101 -0.04511,6.13944c-0.12615,0.57799 -0.28628,1.14531 -0.46875,1.70588z" fill-opacity="0.1098" fill="#f6d1ff"></path><path d="M194.02636,163.85786c0.307,-0.13917 0.68359,-0.22452 1.14553,-0.22452c2.5,0 2.5,2.5 2.5,2.5v1.33333c0,2.94414 0.62621,7.11583 0,10l0,3.66667c0,1.38071 -1.11929,2.5 -2.5,2.5c-1.09231,0 -2.02101,-0.70054 -2.36132,-1.67684l-0.97951,-2.61202l0.11562,-0.04336l-0.20221,-0.2364c-0.36016,-2.79207 0.08017,-6.21419 -0.64385,-8.914c-0.77141,-2.87653 -2.35769,-5.45019 -3.03587,-8.47506c0,0 -0.54233,-2.44047 1.89814,-2.98279c2.44047,-0.54233 2.98279,1.89814 2.98279,1.89814c0.25348,1.15214 0.649,2.22217 1.08067,3.26685z" fill-opacity="0.1098" fill="#f6d1ff"></path><path d="M199.31629,132.27133c0.35188,-0.67975 1.1361,-1.59961 2.73126,-1.24513c2.44047,0.54233 1.89814,2.98279 1.89814,2.98279c-0.19437,0.8708 -0.41607,1.82823 -0.61734,2.82438c0.40068,1.74902 0.07097,3.42359 -0.61476,5.009c-0.00434,0.80683 0.05644,1.58736 0.20788,2.31596c0.2624,1.26244 1.83893,2.4485 1.32899,3.6328c-0.69405,1.61188 -2.52039,2.7643 -4.23817,3.12358c-3.15293,0.65943 -4.72587,-0.09262 -5.48619,-1.52058c-0.52088,-0.7155 -0.52088,-1.59412 -0.52088,-1.59412l0.00445,-0.02345c-0.32502,-1.90975 -0.01871,-4.30809 -0.00445,-6.30988c0.01547,-2.17218 -0.43514,-5.77054 1.73223,-7.43443c1.39669,-1.07224 2.58004,-1.64684 3.57884,-1.7609z" fill-opacity="0.1098" fill="#f6d1ff"></path><path d="M370.33855,105.13333c0,2.5 -2.5,2.5 -2.5,2.5h-1c-3.73405,-0.11935 -6.05859,2.37614 -9.35567,3.80091c-4.67221,2.019 -10.98133,2.8422 -15.97766,2.86576c0,0 -2.5,0 -2.5,-2.5c0,-0.02493 0.00025,-0.04961 0.00074,-0.07405c-2.50994,-0.91898 -5.07118,-1.60384 -7.56419,-2.98913c-1.42094,0.35029 -2.70625,1.25665 -4.09935,1.75216c-2.6075,0.92745 -3.93535,0.18662 -6.56441,0.46275c-6.45356,0.67783 -12.39185,2.01493 -18.93946,2.01493c0,0 -2.5,0 -2.5,-2.5c0,-2.5 2.5,-2.5 2.5,-2.5c6.34877,0 12.12241,-1.32357 18.39387,-1.98507c1.80314,-0.19019 3.75212,0.46944 5.43559,-0.20391c1.92934,-0.77169 3.80358,-1.82984 5.86044,-2.12504l1.10462,0.30477c0.42677,0.04423 0.78237,0.18197 0.96971,0.26755l0.02045,0.00564c0,0 0.02214,0.01107 0.0609,0.0332c0.03992,0.01998 0.06141,0.03226 0.06141,0.03226c3.50518,2.00874 6.97714,2.53104 10.54435,4.26787l0.66667,0.33333c0,0 0.16433,0.08216 0.38161,0.24649c3.50456,-0.29571 7.29173,-1.02446 10.18936,-2.31133c4.07748,-1.81085 6.6225,-4.10235 11.311,-4.19909h1c0,0 2.5,0 2.5,2.5z" fill-opacity="0.1098" fill="#f6d1ff"></path></g></g></svg>