<svg version="1.1" xmlns="http://www.w3.org/2000/svg" xmlns:xlink="http://www.w3.org/1999/xlink" width="117" height="99.33333" viewBox="0,0,117,99.33333"><g transform="translate(-183.36667,-129.8)"><g stroke="none" stroke-width="0.5" stroke-miterlimit="10"><path d="M246.45451,165.21228c0.09562,1.70692 -2.2442,4.05226 -3.00893,5.42509c-0.89561,1.60779 -1.59286,3.61768 -2.27755,5.33251l-0.57508,1.72523c-0.09154,0.29764 -0.26032,0.56144 -0.48295,0.76801l-0.30574,0.99367c-0.20759,0.73477 -0.88305,1.27321 -1.68426,1.27321c-0.90837,0 -1.65509,-0.69209 -1.74163,-1.57773l-0.13828,-1.24453c-0.78352,-0.12596 -1.39311,-0.77205 -1.46333,-1.57286l-0.12655,-1.26547c-1.13214,-1.66664 -2.3001,-3.43053 -2.99187,-5.28094c-0.37443,-0.68127 -0.71607,-1.41546 -0.99854,-2.25507c0,0 -0.37933,-1.13799 0.43228,-1.84369c0.02499,-0.1959 0.05833,-0.39258 0.10051,-0.59003c0.60932,-2.8523 3.82636,-5.56657 6.95315,-3.86261c0.68763,0.37473 1.3749,1.49085 1.93442,2.55249c2.62172,-2.41326 6.0335,-4.66162 6.37435,1.42272z" fill="#ad4eab"></path><path d="M271.20525,149.63051c0.55068,-1.804 0.78596,-3.43476 2.35659,-4.76245c4.24634,-3.58954 7.52186,1.14888 6.01835,5.26534c-0.67777,1.85565 -3.05016,3.87613 -4.15644,5.5417c-0.42914,0.64609 -0.65041,1.57708 -1.17078,2.11323c-0.0601,0.21095 -0.17126,0.43418 -0.35161,0.66607c-1.0744,1.38137 -2.45576,0.30697 -2.45576,0.30697c-0.28597,-0.22997 -0.57327,-0.47422 -0.85992,-0.73146c-0.25671,-0.11148 -0.49637,-0.25101 -0.7099,-0.41929c-0.23215,-0.18295 -0.37016,-0.42542 -0.45396,-0.70217c-2.86498,-2.95792 -5.38152,-7.08462 -5.44915,-11.03167c-0.0338,-1.97255 -0.16719,-5.11079 3.45638,-4.81927c1.1398,0.0917 1.52595,1.7086 2.19833,2.63351c1.61905,2.22715 0.69212,3.63593 1.37366,6.00257c0.04229,0.14684 0.08992,0.29179 0.14165,0.43529l0.03801,-0.34213l0.05757,0.0064zM272.60843,153.5265c-0.03456,-0.00217 -0.06884,-0.00535 -0.10283,-0.0095l0.0344,0.1345c0.02261,-0.04177 0.04543,-0.08343 0.06843,-0.125z" fill="#ad4eab"></path><path d="M202.73737,198.14524c-0.71156,-0.35578 -0.93791,-0.8733 -0.97315,-1.33197c-1.18326,-1.68623 -3.97888,-6.56615 -3.14198,-8.45771c2.0739,-4.6874 4.34388,-2.60359 5.33791,0.056c1.40965,-0.74901 3.20487,-1.30522 3.74763,-0.99422c3.999,2.29146 -0.88068,8.09279 -2.63541,9.67966l0.01286,0.26561c0,0 -0.78262,1.56525 -2.34787,0.78262z" fill="#ad4eab"></path><path d="M271.81478,202.30527c-0.09584,0.01626 -0.19432,0.02472 -0.29479,0.02472c-0.9665,0 -1.75,-0.7835 -1.75,-1.75v-0.99645c-0.72687,-0.92626 -1.46385,-1.87217 -2.16359,-2.92517l-0.01601,-0.11357l-0.03564,0.01782l-0.78426,-1.56851c-0.12803,-0.24319 -0.2005,-0.52019 -0.2005,-0.81411c0,-0.9665 0.7835,-1.75 1.75,-1.75c0.29393,0 0.57093,0.07246 0.81411,0.2005l1.96851,0.98426l-0.05558,0.11116c0.20546,0.08562 0.4044,0.18669 0.595,0.30748c0.11964,0.07582 0.42015,0.87334 0.73023,1.77688c1.54363,-1.44562 4.40527,-2.4468 5.92782,-1.32251c2.31977,1.71297 -0.77894,6.9251 -1.86243,8.97938c0.10795,0.52491 0.08548,1.36785 -0.93504,1.8781c-0.00369,0.00184 -0.00737,0.00368 -0.01105,0.00549c-0.285,0.58003 -0.88166,0.97926 -1.57157,0.97926c-0.9665,0 -1.75,-0.7835 -1.75,-1.75v-1.73895c-0.11637,-0.18109 -0.23487,-0.35951 -0.35521,-0.53577z" fill="#ad4eab"></path><path d="M295.48525,176.96262c-0.78262,1.56525 -2.34787,0.78262 -2.34787,0.78262l0.18937,-0.02595c-1.7555,-0.19506 -3.43947,-0.39208 -5.20674,-0.3893c0,0 -1.75,0 -1.75,-1.75c0,-1.75 1.75,-1.75 1.75,-1.75c1.89688,0.00268 3.70972,0.20142 5.59326,0.4107l0.98937,0.37405c0,0 1.56525,0.78262 0.78262,2.34787z" fill="#ad4eab"></path><path d="M202.07,152.98c0,1.75 -1.75,1.75 -1.75,1.75c-1.26667,0 -3.73333,0 -5,0c0,0 -1.75,0 -1.75,-1.75c0,-1.75 1.75,-1.75 1.75,-1.75c1.26667,0 2.53333,0 3.8,0h1.2c0,0 1.75,0 1.75,1.75z" fill="#ad4eab"></path><path d="M222.03334,212.63333c0,-0.82843 0.67157,-1.5 1.5,-1.5c0.82843,0 1.5,0.67157 1.5,1.5c0,0.82843 -0.67157,1.5 -1.5,1.5c-0.82843,0 -1.5,-0.67157 -1.5,-1.5z" fill="#e3b194"></path><path d="M263.03334,170.96666c0,-0.82843 0.67157,-1.5 1.5,-1.5c0.82843,0 1.5,0.67157 1.5,1.5c0,0.82843 -0.67157,1.5 -1.5,1.5c-0.82843,0 -1.5,-0.67157 -1.5,-1.5z" fill="#e3b194"></path><path d="M195.36667,170.3c0,-0.82843 0.67157,-1.5 1.5,-1.5c0.82843,0 1.5,0.67157 1.5,1.5c0,0.82843 -0.67157,1.5 -1.5,1.5c-0.82843,0 -1.5,-0.67157 -1.5,-1.5z" fill="#e3b194"></path><path d="M233.7,137.3c0,-0.82843 0.67157,-1.5 1.5,-1.5c0.82843,0 1.5,0.67157 1.5,1.5c0,0.82843 -0.67157,1.5 -1.5,1.5c-0.82843,0 -1.5,-0.67157 -1.5,-1.5z" fill="#e3b194"></path><path d="M297.36667,200.96666c0,-0.82843 0.67157,-1.5 1.5,-1.5c0.82843,0 1.5,0.67157 1.5,1.5c0,0.82843 -0.67157,1.5 -1.5,1.5c-0.82843,0 -1.5,-0.67157 -1.5,-1.5z" fill="#e3b194"></path><path d="M294.36667,156.3c0,-0.82843 0.67157,-1.5 1.5,-1.5c0.82843,0 1.5,0.67157 1.5,1.5c0,0.82843 -0.67157,1.5 -1.5,1.5c-0.82843,0 -1.5,-0.67157 -1.5,-1.5z" fill="#e3b194"></path><path d="M183.36667,204.96666c0,-0.82843 0.67157,-1.5 1.5,-1.5c0.82843,0 1.5,0.67157 1.5,1.5c0,0.82843 -0.67157,1.5 -1.5,1.5c-0.82843,0 -1.5,-0.67157 -1.5,-1.5z" fill="#e3b194"></path><path d="M198.92733,136.36066c-0.30653,0.30653 -0.61306,0.43589 -0.89399,0.46487c0,0.04704 0,0.09409 0,0.14113v1.33333c0,0 0,1.5 -1.5,1.5c-1.5,0 -1.5,-1.5 -1.5,-1.5c0,-0.60258 0,-1.34086 0,-2.12826c-0.38858,-0.02606 -0.77773,-0.0397 -1.16667,-0.03841c0,0 -1.5,0 -1.5,-1.5c0,-1.5 1.5,-1.5 1.5,-1.5c0.38894,0.00111 0.77801,0.01404 1.16667,0.03723c0,-0.69033 0,-1.3342 0,-1.87056c0,0 0,-1.5 1.5,-1.5c1.5,0 1.5,1.5 1.5,1.5c0,0.7844 0,1.56881 0,2.35321l0.89399,0.58613c0,0 1.06066,1.06066 0,2.12132z" fill="#e3b194"></path><path d="M281.7,227.63333c0,-0.82843 0.67157,-1.5 1.5,-1.5c0.82843,0 1.5,0.67157 1.5,1.5c0,0.82843 -0.67157,1.5 -1.5,1.5c-0.82843,0 -1.5,-0.67157 -1.5,-1.5z" fill="#e3b194"></path></g></g></svg>