<svg version="1.1" xmlns="http://www.w3.org/2000/svg" xmlns:xlink="http://www.w3.org/1999/xlink" width="164" height="360" viewBox="0,0,164,360"><g transform="translate(-158,0)"><g stroke-miterlimit="10"><path d="M322,0v360h-164v-360z" fill="none" stroke="none" stroke-width="NaN"></path><g><path d="M228.63528,199.07618c0,-0.51106 0.5,-0.51107 0.5,-0.51107h0.26667c1.74238,0 4.63036,-0.35838 6.6457,0.164c-0.00584,-0.72275 -0.01023,-1.4457 -0.01177,-2.16903c-1.23103,-2.34047 -1.91387,-4.32209 -1.99286,-7.08617c-0.0744,-0.13493 -0.0744,-0.27844 -0.0744,-0.27844c0,-1.39622 0.36739,-2.73965 0.6412,-4.06875c0.00069,-0.0194 0.00138,-0.03882 0.00207,-0.0582c-0.13245,-0.08117 -0.22509,-0.22324 -0.24087,-0.38833l-0.066,-0.60715l0.18969,-0.02155l0.01671,-0.06833c0.00235,-0.01894 0.00473,-0.03768 0.00717,-0.05624c-0.18582,-1.47841 0.07233,-3.46797 0.35216,-5.25083c0.09721,-2.44508 0.17687,-4.89797 0.18539,-7.37974c0.40001,-2.61038 0.60555,-5.23338 0.97395,-7.8673l0.06195,-0.7938c-0.02187,-1.71135 -0.04534,-3.49076 0.38379,-5.07049c0.28282,-1.04114 0.81053,-1.92222 0.92633,-3.09616c0.12823,-1.30009 0.20472,-2.6136 0.27934,-3.93026c0.1655,-0.58161 0.38778,-0.71841 0.83261,-1.32567c0.06965,-0.09509 0.40928,-0.82026 0.65203,-1.34368c-0.16747,2.31614 -0.23926,4.63843 -0.49215,6.92711c-0.15155,1.3715 -0.67156,2.35532 -1.01231,3.56814c-0.33259,1.18378 -0.324,2.59181 -0.29544,3.93298c0.03328,0.22228 0.01866,0.40781 0.01866,0.40781l-0.00756,0.0952c0.00686,0.31785 0.01254,0.62969 0.01254,0.93145c0,0 0,0.44381 -0.18432,0.74655c-0.30515,2.36705 -0.48967,4.73211 -0.8706,7.06791c0.00497,1.19166 -0.00979,2.37604 -0.03739,3.55569c0.00438,0.03448 0.00438,0.0562 0.00438,0.0562l-0.00097,0.78132c-0.01115,0.09125 -0.02216,0.18249 -0.03303,0.27375c-0.14948,5.02891 -0.4936,9.98635 -0.4936,15.07287c0,0 0,0.09567 -0.01845,0.22848c0.02081,0.05034 0.03121,0.08335 0.03121,0.08335l-0.0399,-0.00934c0.70424,1.11884 1.30987,2.2701 1.81559,3.62629c0.06945,0.1377 0.10679,0.29452 0.12686,0.42333c0.02234,0.12481 0.03873,0.28585 0.02333,0.45581c0.00014,1.02587 0.00428,2.00226 0.07683,3.02508c0,0 0.00145,0.02067 0.00207,0.05643c0.00187,0.03566 0.00187,0.05645 0.00187,0.05645l-0.00394,0.62551c-0.04918,0.61513 -0.14471,1.15556 -0.27167,1.66476c-0.10161,-0.53384 -0.24052,-1.06409 -0.42938,-1.59415h-0.03035c0.01893,1.95246 0.0427,3.90447 0.04351,5.86019c0.22507,-0.00006 0.45015,-0.00016 0.67523,-0.00025c0.0033,-0.28705 0.00544,-0.57101 0.00487,-0.85229c0.08105,-0.06138 0.16778,-0.11504 0.26132,-0.15925l0.40581,-0.02583c0.02353,-0.00307 0.04804,-0.00468 0.07355,-0.00468c0.22374,0 0.36978,0.1233 0.4651,0.28423c0.10144,0.15123 0.17914,0.38292 0.17914,0.73791c0,0.00648 0,0.01297 0,0.01945c0.40327,-0.00007 0.80654,-0.00005 1.20981,0.00019c0.07859,-0.26142 0.23956,-0.52914 0.56927,-0.52914c0.14045,0 0.25028,0.04859 0.33616,0.12456c0.15647,0.01745 0.27506,0.11152 0.27506,0.11152l0.02023,0.02751c-0.00786,0.08893 -0.01529,0.17792 -0.02228,0.26689c0.04712,0.00007 0.09423,0.00017 0.14135,0.00026l0.33874,-0.04328c0,-0.74694 0,-1.49389 0,-2.24084c-0.03011,-0.05574 -0.05248,-0.12438 -0.06281,-0.20883c-0.01818,-0.14869 0.01161,-0.25922 0.06281,-0.3412c0,-0.12905 0,-0.25809 0,-0.38714c-0.01805,0.07728 -0.03559,0.15471 -0.05261,0.23231c-0.49811,-1.07321 -0.59695,-2.41959 -0.49677,-3.81504c-0.04111,-0.07866 -0.06295,-0.18079 -0.04676,-0.31315l-0.00001,0.00001c0.01413,-0.11548 0.05076,-0.20138 0.09891,-0.26517c0.02556,-0.23746 0.05601,-0.47545 0.0904,-0.71286c-0.18574,0.03191 -0.42485,-0.04424 -0.59557,-0.51825c-0.31963,-0.88747 0.23972,-1.39459 0.23972,-1.39459c0.49721,-0.4504 1.21247,-0.80725 1.61873,-1.46393c0.47315,-0.7648 0.20933,-2.53429 0.23829,-3.4621c0.08491,-2.72087 0.24167,-5.43024 0.24167,-8.15589v-0.51264c0,0 0,-0.58101 0.2761,-0.86694c-0.18892,-5.22416 -0.90274,-10.14405 -1.32122,-15.4107l-0.03385,-0.37554c-0.13267,-0.29192 -0.13267,-0.64837 -0.13267,-0.64837l0.03306,0.06691c-0.44591,-2.19214 -0.2201,-4.5362 -0.58126,-6.75269c-0.49888,-3.56055 -1.20601,-7.09022 -1.7445,-10.66904c0.00736,0.00684 0.01476,0.01383 0.0222,0.02095c0.32609,0.53628 0.65269,1.07557 0.97924,1.6217c0.2797,0.46779 0.51812,0.99314 0.81698,1.412c0.41149,2.38238 0.84545,4.75459 1.18009,7.14469c0.32797,2.14019 0.09629,4.48187 0.54499,6.55466c0.09121,0.22542 0.11199,0.45625 0.11199,0.45625l0.08228,0.91489c0.48367,6.19715 1.37818,11.91339 1.37818,18.19728c0,0 0,0.67952 -0.3492,0.93046c-0.04801,2.05634 -0.15142,4.10751 -0.2169,6.16463c-0.0525,1.64923 0.19694,3.36777 -0.56948,4.74011c-0.2232,0.39965 -0.52148,0.70904 -0.83894,0.98179c0.07272,0.33864 0.00871,0.67715 0.00871,0.67715c-0.02571,0.13163 -0.05141,0.26777 -0.07636,0.40729c0.01323,0.03808 0.01818,0.06338 0.01818,0.06338l0.07638,0.44094c0,0.00852 0,0.01706 0,0.02558c2.55676,-0.07858 6.52466,-0.58063 8.43799,0.97239c0.0273,0.01986 0.05476,0.04356 0.08223,0.07164c0.11409,0.11661 0.15454,0.23323 0.15701,0.3377c0.0068,0.10426 -0.02317,0.22416 -0.12646,0.35085c-0.02506,0.03073 -0.05052,0.05707 -0.07615,0.07948l-0.05719,0.0568c-1.34313,1.59164 -5.98918,3.07822 -8.41744,3.50871c0,0.72023 0,1.44046 0,2.16069c0,0 0,0.33857 -0.2696,0.46457c-0.01824,0.17202 -0.12,0.31843 -0.26297,0.396l-0.59127,0.33575l-0.01532,-0.02819c-0.13573,0.13019 -0.27636,0.25455 -0.42376,0.37032c-0.01198,0.41065 -0.01706,0.81945 -0.01706,1.22474c0,0 0,0.22112 0.1423,0.37247c0.01836,3.05965 0.0649,6.12692 0.07242,9.18959c0.59808,0.37964 0.35883,1.32861 0.35883,1.32861l-0.12045,0.38797c-0.05438,0.69029 -0.03707,2.97453 -0.24361,3.46209c-0.76867,1.81455 -2.81439,1.30768 -3.51156,-0.19069c-0.22352,-0.48039 -0.33983,-0.94088 -0.39903,-1.41111l-0.00421,0.00223l-0.31835,-1.51527c-0.02448,-0.10803 -0.03782,-0.22448 -0.03782,-0.34587c0,-0.56449 0.28843,-1.02213 0.64423,-1.02214h0.00001c0.02963,0 0.05879,0.00317 0.08737,0.00932c0.4678,-1.21944 -0.09263,-1.96669 -0.24014,-3.4525c-0.24173,-2.43496 -0.10067,-5.17116 -0.03489,-7.74705c-0.33521,-0.05374 -0.66714,-0.13805 -0.97874,-0.27081l-0.36971,-0.26532c0,0 -0.16164,-0.12392 -0.20235,-0.31923c-0.14628,-0.03067 -0.39765,-0.13611 -0.39765,-0.49848c0,-0.22125 0.09371,-0.34672 0.2,-0.41787c-0.00003,-0.71751 -0.00321,-1.4345 -0.00816,-2.15118c-0.06963,-0.01684 -0.11545,-0.04026 -0.11545,-0.04026c-0.99924,-0.51094 -1.8902,-0.95984 -2.78245,-1.37418l-0.43407,-0.1479l0.01444,-0.04428c-0.03709,-0.01675 -0.07421,-0.03344 -0.11137,-0.05008c-0.1101,-0.02666 -0.21978,-0.05333 -0.32881,-0.08042c-1.88276,-0.3044 -4.3138,-0.96653 -4.02619,-2.25812c0.05041,-0.22637 0.17658,-0.38293 0.34651,-0.49148c-0.01345,-0.0486 -0.02112,-0.10407 -0.02112,-0.16738zM240.55038,222.30012c0.093,-0.64991 0.02819,-1.72596 0.06807,-2.51086c-0.23588,-0.29775 -0.23588,-0.82089 -0.23588,-0.82089c0,-4.05296 -0.07276,-8.11276 -0.08025,-12.15747c-0.38197,0.00018 -0.76393,0.00019 -1.1459,0.00014c-0.05056,2.71435 -0.25548,5.69598 0.0037,8.29228c0.21473,2.15097 0.75735,3.06238 -0.03847,5.04784c0.35222,0.61085 0.65234,1.30036 0.92281,2.00796c0,0 0.02858,0.07556 0.05497,0.19563c0.24019,-0.0249 0.45064,-0.05263 0.45093,-0.05463zM246.75166,201.05391c1.1294,-0.43734 2.73243,-0.41553 3.67967,-1.28104c-1.80273,-0.99277 -5.25275,-0.5571 -7.39605,-0.47235c0,1.10361 0,2.20723 0,3.31084c1.34195,-0.31922 2.40119,-1.04816 3.71638,-1.55744zM234.26297,201.69209c0.59115,0.28593 1.1899,0.58784 1.82175,0.90977c-0.00801,-0.89147 -0.01766,-1.78265 -0.0263,-2.67391c-0.04105,0 -0.08209,0 -0.12314,0c-1.58493,0 -3.18933,-0.07406 -4.77235,-0.00079c-0.07298,0.00337 -0.49843,0.05208 -0.92541,0.08009c0.59277,0.20529 1.14899,0.41609 1.68561,0.63507c0.64971,0.24299 1.27349,0.51499 1.66523,0.61718l0.04562,0.05916l0.01603,-0.02867l0.45824,0.26764c0.06016,0.03365 0.1128,0.07955 0.15472,0.13444z" fill="#cbadff" stroke="none" stroke-width="0.5"></path><path d="M229.13376,199.78253c0.02904,-0.07915 0.06607,-0.14028 0.10767,-0.18722c0.05725,-0.41699 0.49383,-0.41699 0.49383,-0.41699c2.38521,0 4.78684,0.11163 7.18221,0.10667c0.01873,-0.99397 0.03573,-1.98787 0.04462,-2.98223c-0.62549,-0.99198 -1.18364,-2.39361 -1.49332,-3.64684c-0.1754,-0.30218 -0.1754,-0.73155 -0.1754,-0.73155c0,-0.37159 0.00118,-0.74295 0.00325,-1.11412c-0.13234,-0.36454 -0.06455,-0.79477 -0.06455,-0.79477l0.06129,-0.26317c0,-1.33391 -0.26637,-4.51182 0.07822,-6.09613c0.00149,-0.31022 0.00231,-0.62059 0.00231,-0.9311v-1.02214c0,-0.15406 0.02148,-0.30014 0.05995,-0.43115c-0.25478,-2.14639 0.11269,-4.39854 0.35459,-6.57108c0.47875,-4.29971 0.37441,-8.57197 0.9764,-12.86999c0.29136,-1.84904 0.50628,-3.6072 0.87315,-5.40864c-0.00057,-0.07519 0.00314,-0.12232 0.00314,-0.12232c0.02394,-0.27655 0.05041,-0.55232 0.07896,-0.82756l-0.00316,-0.32726c0,0 0,-0.30377 0.10437,-0.58011c0.21256,-1.79064 0.49201,-3.56649 0.71128,-5.3812c0.10691,-0.18137 0.4639,-0.94811 0.69098,-1.43866c0.19962,-0.08342 0.39083,-0.17216 0.51707,-0.32072c0.04733,0.03496 0.09696,0.07757 0.14852,0.12694c0.25832,0.42483 0.51696,0.85153 0.77564,1.28204c0.22456,1.93691 0.52656,3.82587 0.75278,5.73159c0.10437,0.27633 0.10437,0.58011 0.10437,0.58011l-0.00316,0.32726c0.02854,0.27522 0.05501,0.55102 0.07896,0.82756c0,0 0.00371,0.04712 0.00313,0.12232c0.36687,1.80144 0.58179,3.55958 0.87315,5.40863c0.60199,4.29802 0.49766,8.57029 0.9764,12.87c0.2419,2.17253 0.60936,4.42467 0.35458,6.57107c0.03847,0.131 0.05995,0.27711 0.05995,0.43116v1.02214c0,0.31052 0.00083,0.62087 0.00231,0.9311c0.34459,1.58432 0.07822,4.76224 0.07822,6.09615l0.06129,0.26317c0,0 0.06779,0.43023 -0.06455,0.79477c0.00207,0.37116 0.00325,0.74252 0.00325,1.11412c0,0 0,0.42937 -0.17541,0.73154c-0.31658,1.28116 -0.89282,2.7174 -1.53522,3.71253c-0.00271,0.91461 -0.01757,1.83033 -0.03254,2.7455c2.53379,0.01345 5.06785,0.0644 7.59965,0.0644h0.38041c0.10583,-0.00871 0.23962,0.00929 0.35117,0.11633c0.07474,0.05988 0.13855,0.15061 0.16038,0.28802c0.03465,0.13464 0.01238,0.24402 -0.03212,0.32977c-0.05944,0.1442 -0.17463,0.2162 -0.27485,0.25215c-2.73188,1.2377 -5.39087,2.02004 -8.2602,2.69091c0.00388,0.96997 0.04187,1.94316 0.04187,2.89859c0,0 0,0.51107 -0.5,0.51107c-0.05284,0 -0.1001,-0.0057 -0.14236,-0.01591c-0.00119,0.0003 -0.00239,0.0006 -0.00358,0.00091c-0.00192,0.03059 -0.00379,0.0612 -0.00561,0.09179c-0.02597,-0.02558 -0.0523,-0.05163 -0.07895,-0.07811c-0.01194,0.00088 -0.024,0.00132 -0.03616,0.00132h-0.26667c-0.08748,0 -0.17497,0 -0.26245,0c0.03414,3.83317 0.14804,7.64619 0.15188,11.48002c0.03915,0.26027 -0.00383,0.48545 -0.06517,0.65719c-0.02114,0.07683 -0.04913,0.15523 -0.08619,0.22817c0.01345,0.04156 0.02514,0.08478 0.03495,0.12941l0.21992,0.93049c0.12137,0.30495 0.24273,0.60991 0.3641,0.91487l0.00003,-0.00001c0,0 0.33048,0.83892 -0.17901,1.38194c-0.01674,0.03809 -0.03507,0.07429 -0.05484,0.10835l-0.47748,0.96419c-0.14878,0.1349 -0.29756,0.26979 -0.44635,0.40468c-0.08343,0.1227 -0.20072,0.21659 -0.36563,0.23802c-0.11902,0.03023 -0.26559,0.02087 -0.40329,-0.11474c-0.14253,-0.1224 -0.22037,-0.31966 -0.26288,-0.49862c-0.03125,-0.10601 -0.04992,-0.20612 -0.05874,-0.30011c-0.27112,-0.51381 -0.53337,-1.03963 -0.78781,-1.57443c-0.14492,-0.2193 -0.18583,-0.4638 -0.1822,-0.67958c-0.0125,-0.2409 0.0295,-0.52266 0.21202,-0.77705c0.14804,-0.62357 0.31455,-1.2368 0.49668,-1.83748c-0.90455,-2.57143 -0.37732,-7.16098 -0.37732,-9.84568c0,-0.47219 -0.04182,-1.14557 -0.05068,-1.80961c-0.25179,0 -0.50358,0 -0.75537,0c-0.00969,0.00962 -0.01933,0.01918 -0.02893,0.02869c0.00013,-0.00957 0.00027,-0.01913 0.0004,-0.02869c-0.14521,0 -0.29043,0 -0.43564,0c0,0 -0.5,0 -0.5,-0.51107c0,-0.10094 0.01951,-0.18197 0.05082,-0.24697c-0.05082,-0.11872 -0.05082,-0.23003 -0.05082,-0.23003c0,-0.78511 0.00687,-1.56951 0.01749,-2.35347c-0.1459,-0.09197 -0.29499,-0.17872 -0.44692,-0.26079c-0.84228,-0.12726 -1.97996,-0.52533 -3.0066,-0.92947c-0.85536,-0.10411 -1.67344,-0.20694 -2.28149,-0.76013c-0.157,-0.04225 -0.31316,-0.08553 -0.46819,-0.13029l-0.00495,0.00317l-0.00341,-0.00558c-0.41489,-0.11995 -0.82163,-0.25051 -1.21482,-0.40004c0,0 -0.46816,-0.17945 -0.2926,-0.65798z" fill="#160831" stroke="none" stroke-width="0.5"></path><path d="M239.65113,196.46102c-0.90133,0.26848 -1.81776,0.51436 -2.74147,0.72983v-0.65037c0,-0.17624 0.02249,-0.34415 0.06317,-0.4969c-3.10424,-0.35038 -2.68553,-7.8906 -1.83133,-14.3355c-0.00893,-0.09874 -0.00893,-0.16227 -0.00893,-0.16227c0.00204,-3.93685 0.61881,-7.21408 1.06418,-11.00332c0.27942,-2.3773 0.29028,-4.78979 0.46334,-7.19535c0.06833,-1.63114 0.15228,-3.25659 0.27126,-4.86366c0.10901,-1.47243 0.34565,-4.23186 1.27136,-5.03148c0.00589,-1.33378 0.05242,-2.65505 0.10838,-3.97278c0.06209,-0.07878 0.1295,-0.16628 0.203,-0.2666c0.07535,-0.10287 0.46665,-0.94312 0.70946,-1.46762c0.19962,-0.08342 0.39083,-0.17215 0.51707,-0.32072c0.04733,0.03496 0.09696,0.07756 0.14852,0.12693c0.03656,0.06013 0.07314,0.1203 0.10971,0.18052c-0.08808,1.99181 -0.18618,3.98208 -0.18618,6.00345c0,0 0,0.04938 -0.00612,0.12874c0.25825,0.42847 0.38611,1.03015 0.40803,1.66549c0.13798,3.99853 -0.06291,11.52476 -0.27734,14.96058c-0.02472,0.39612 -0.15303,3.14185 -0.36794,4.47196c0.01298,4.88593 0.00724,9.77196 -0.00092,14.65791c-0.00352,2.10483 0.11715,3.36725 -0.08078,4.36228c-0.00039,0.29729 -0.03632,0.58133 -0.10143,0.842c0.16273,0.23378 0.26496,0.57164 0.26496,0.94738z" fill-opacity="0.54118" fill="#514566" stroke="none" stroke-width="0.5"></path><path d="M239.33048,204.7466c0.8053,0 0.8053,1.27768 0.8053,1.27768v0.89711c0,2.90495 0,5.80989 0,8.71485c0,0 0,1.27768 -0.8053,1.27768c-0.8053,0 -0.8053,-1.27768 -0.8053,-1.27768c0,-2.90496 0,-6.70701 0,-9.61197c0,0 0,-1.27768 0.8053,-1.27768z" fill-opacity="0.54118" fill="#514566" stroke="none" stroke-width="0.5"></path><path d="M239.63326,191.34673c0.02585,0.02593 0.05153,0.05251 0.07705,0.07971l0.19983,-0.40763l0.72044,0.88903c0.19293,0.23342 0.31744,0.60195 0.31744,1.01663c0,0.11456 -0.0095,0.22559 -0.02732,0.33123c0.11787,0.2222 0.18888,0.50906 0.18888,0.82221c0,0.39237 -0.11148,0.74342 -0.28692,0.9778c0.22129,0.2277 0.36769,0.62309 0.36769,1.07275c0,0.70565 -0.36054,1.27768 -0.8053,1.27768v0h-0.88854v-0.1898l-0.25465,0.12424c-0.00532,-0.00883 -0.01071,-0.01758 -0.01616,-0.02631c-0.04202,0.18003 -0.11961,0.3651 -0.24898,0.5447c-0.60605,0.84136 -1.13634,-0.12019 -1.13634,-0.12019c-0.63785,-1.15783 -3.0586,-3.98595 -2.24176,-5.91509c0.28547,-0.6742 0.80166,-0.80522 1.38129,-0.68602c0.14636,-0.23929 0.35122,-0.38799 0.57798,-0.38799h1.3732c0,0 0.48494,0 0.70219,0.59706z" fill-opacity="0.53333" fill="#150830" stroke="none" stroke-width="0.5"></path><path d="M240.54611,212.29776c0.56943,0.90346 0,1.80691 0,1.80691l-0.47165,0.61078c-0.01341,0.33284 0.257,0.54465 0.43251,0.72821c0,0 0.60605,0.84136 0.07576,1.80291c-0.53029,0.96155 -1.13634,0.12019 -1.13634,0.12019c-0.57957,-0.90813 -0.85392,-2.33685 -0.85992,-3.62921l0.82078,-1.43978c0,0 0.56944,-0.90345 1.13887,0z" fill-opacity="0.53333" fill="#150830" stroke="none" stroke-width="0.5"></path><g><path d="M238.80789,229.22519c-0.21771,0.16357 -0.43951,0.33106 -0.6646,0.49994c-1.44535,1.50106 -3.06693,3.20452 -4.64584,3.90102l-0.60166,0.43714c-0.01894,0.0144 -0.03847,0.02762 -0.05851,0.03956c0.32257,0.72165 0.61174,1.45592 0.70612,2.26441c0.00081,0.00693 0.0016,0.01386 0.00239,0.02079l0.0032,-0.00159l0.35205,1.25051c0.02747,0.09108 0.04401,0.18957 0.04743,0.29261c0.26123,0.78991 0.48302,1.83092 0.6503,2.27463l0.00001,0.01814l0.00523,-0.00316l0.29194,0.85552c0.04232,0.11705 0.06603,0.24828 0.06603,0.38689c0,0.49309 -0.30009,0.89281 -0.67027,0.89281c-0.25154,0 -0.47072,-0.18457 -0.58537,-0.45758l-0.11253,-0.25696c-0.00567,0.0002 -0.01135,0.00029 -0.01706,0.00029c-0.26758,0 -0.49853,-0.20885 -0.606,-0.51083l-0.27479,-0.73207c-0.75751,-0.45062 -1.22076,-0.94124 -1.75015,-1.81283c-4.3482,-5.11623 -2.58182,-12.36343 0.88569,-17.40767c0,0 0.01303,-0.01893 0.03707,-0.04742c0.09594,-0.12599 0.24536,-0.2624 0.44209,-0.26117c0.12473,-0.00803 0.26527,0.03836 0.41084,0.18942c0.15237,0.13864 0.22838,0.30279 0.26065,0.46348c0.00237,0.00972 0.00457,0.01939 0.00661,0.02905c0.36986,0.35368 0.21102,0.98843 0.21102,0.98843c-0.30155,1.18587 -1.02753,2.36019 -1.16736,3.60254c-0.03569,0.31708 -0.06505,0.62898 -0.08819,0.93631c1.47758,0 2.95517,0 4.43275,0c0,0 0.08223,0 0.18909,0.03837l0.00001,0.00001c1.01267,-1.03291 1.96217,-2.13769 2.68848,-3.38028c0.01932,-0.19498 0.09978,-0.61701 0.43481,-0.75073c0.12945,-0.1035 0.24892,-0.13881 0.35535,-0.13349c0.1214,-0.00604 0.25978,0.04078 0.41057,0.18139c0.17921,0.16711 0.25899,0.35758 0.28515,0.53838c0.73742,1.3099 1.7257,2.46648 2.78283,3.54472c0.10686,-0.03837 0.18909,-0.03837 0.18909,-0.03837c1.47758,0 2.95517,0 4.43275,0c-0.02314,-0.30733 -0.05249,-0.61923 -0.08818,-0.93631c-0.13984,-1.24235 -0.86581,-2.41667 -1.16736,-3.60254c0,0 -0.15884,-0.63476 0.21102,-0.98843c0.00204,-0.00966 0.00424,-0.01934 0.00661,-0.02905c0.03227,-0.16069 0.10827,-0.32484 0.26065,-0.46348c0.14557,-0.15106 0.28611,-0.19745 0.41084,-0.18942c0.19673,-0.00122 0.34615,0.13518 0.44209,0.26117c0.02405,0.02849 0.03707,0.04742 0.03707,0.04742c3.46751,5.04424 5.23389,12.29144 0.88569,17.40766c-0.52939,0.87159 -0.99264,1.36221 -1.75015,1.81283l-0.27479,0.73206c-0.10748,0.30199 -0.33843,0.51083 -0.606,0.51083c-0.0057,0 -0.01139,-0.0001 -0.01706,-0.00029l-0.11253,0.25695c-0.11465,0.27302 -0.33383,0.45758 -0.58537,0.45758c-0.37018,0 -0.67027,-0.39972 -0.67027,-0.89281c0,-0.13861 0.02371,-0.26984 0.06603,-0.38689l0.29194,-0.85552l0.00523,0.00316l0.00001,-0.01815c0.16728,-0.44371 0.38907,-1.48472 0.6503,-2.27463c0.00342,-0.10304 0.01995,-0.20154 0.04743,-0.29261l0.35205,-1.25051l0.0032,0.0016c0.00079,-0.00693 0.00158,-0.01386 0.00239,-0.02079c0.09438,-0.80849 0.38355,-1.54275 0.70612,-2.26441c-0.02004,-0.01194 -0.03957,-0.02515 -0.05851,-0.03956l-0.60166,-0.43714c-1.5789,-0.69651 -3.20049,-2.39996 -4.64584,-3.90102c-0.27724,-0.208 -0.54948,-0.4139 -0.81522,-0.61295c0.02361,0.436 0.03388,0.90534 0.03224,1.36034c0.17584,0.06198 0.32334,0.21678 0.41118,0.42263c0.02954,0.00927 0.05833,0.02113 0.08622,0.03541c0.09051,0.04096 0.19106,0.11029 0.27215,0.22765c0.15432,-0.05002 0.34389,-0.0247 0.54965,0.19455c0.52339,0.55774 0.10468,1.2549 0.10468,1.2549c-0.88748,1.43732 -0.8451,3.71109 -0.92718,5.50405l-0.05398,0.93492c0,0 -0.00219,0.03797 -0.01156,0.09762c-0.0077,0.06008 -0.01611,0.09647 -0.01611,0.09647c-0.39688,1.71187 -0.71492,3.27363 -0.8754,4.93802c0.00655,0.70745 0.02856,1.46121 -0.11092,1.99106c-0.00189,0.12544 -0.00285,0.25188 -0.00285,0.37939v0.2857c0,0 0,0.02553 -0.00324,0.06795c-0.00164,0.04258 -0.00455,0.06781 -0.00455,0.06781l-0.10566,0.91482c-0.04468,0.43534 -0.32496,0.77075 -0.66406,0.77075c-0.37018,0 -0.67027,-0.39972 -0.67027,-0.89281v-0.92852h0.09936l0.00789,-0.06828v-0.21742c0,-0.20599 0.00233,-0.40949 0.00689,-0.61081c-0.24758,-0.23746 -0.27301,-0.67779 -0.27301,-0.67779l-0.05193,-0.90373c-0.41669,-4.16868 -1.8268,-8.1482 -1.8268,-12.30694c0,-0.31007 0.08085,-0.51245 0.18638,-0.64455c0.09917,-0.14057 0.25111,-0.24826 0.48389,-0.24826c0.15505,0 0.31321,0 0.47374,0c0.02295,-0.03295 0.04774,-0.06357 0.07415,-0.0916c0.0831,-0.13897 0.19668,-0.24416 0.32725,-0.29765l0.2303,-0.10225c-0.02906,-0.46499 -0.06237,-0.96454 -0.07142,-1.4404zM234.76121,228.86302c-0.95111,0 -1.94461,0 -2.88204,0c0.00398,0.9625 0.07345,1.8876 0.20445,2.7962l0.12742,-0.15522c0.0518,-0.2532 0.1849,-0.40404 0.30704,-0.49201l0.28969,-0.25464c0.60761,-0.62949 1.27399,-1.25465 1.95344,-1.89432zM247.28156,230.75737l0.28969,0.25464c0.12215,0.08797 0.25525,0.2388 0.30705,0.49201l0.12742,0.15522c0.131,-0.9086 0.20048,-1.8337 0.20445,-2.7962c-0.93743,0 -1.93093,0 -2.88205,0c0.67946,0.63967 1.34584,1.26483 1.95345,1.89433z" fill="#160831" stroke="#cbadff" stroke-width="1"></path><path d="M240.46036,223.47972c0.14636,0.08313 0.24053,0.20857 0.24053,0.20857c0.13651,0.18427 0.27301,0.36853 0.40951,0.55279l0.59888,0.50764c0.19193,0.15705 0.31994,0.43927 0.31994,0.7613c0,0.49309 -0.30009,0.89281 -0.67027,0.89281c-0.01979,0 -0.03938,-0.00114 -0.05874,-0.00338l-0.76721,-0.07861c0,0 -0.07328,-0.00751 -0.16943,-0.04987c0.1003,1.50505 0.31175,3.96399 -0.12174,5.18773c-0.00004,0.18596 -0.00001,0.37225 -0.00001,0.55893v0.87297c0,0 0,0.5626 -0.33528,0.7946c0.09123,4.43731 0.43359,8.92399 0.45444,13.33166v0.31744c0,0 0,0.89281 -0.67027,0.89281c-0.67027,0 -0.67027,-0.89281 -0.67027,-0.89281v-0.31744c0.00899,-1.50847 -0.02928,-3.02852 -0.08756,-4.5537c-0.26127,-0.12188 -0.44865,-0.45322 -0.44865,-0.84286v-0.89659c-0.32767,-2.56409 -0.8431,-5.173 -1.3477,-7.68244c0,0 -0.17091,-0.85372 0.46489,-1.08907c0.00819,-0.29113 0.04507,-0.5341 0.12108,-0.70462c0.16948,-0.38022 0.6784,-0.19663 1.01802,-0.28559c0.04043,-0.05438 0.08918,-0.10327 0.14795,-0.14213c-0.02193,-1.19648 -0.06095,-2.41144 -0.02432,-3.59996c-1.51439,2.03594 -3.51512,3.76052 -5.18199,5.38655l-0.03501,0.00925l0.0063,0.01438l-0.44881,0.34873c0.00446,0.04693 0.00682,0.09682 0.00682,0.14986c0,0.76863 -0.49679,0.87554 -0.63498,0.89041c-0.90196,0.55118 -1.58922,0.63182 -2.23311,1.67687c-0.05532,0.15709 -0.15462,0.30743 -0.32942,0.39705c-0.11473,0.0778 -0.26209,0.12614 -0.42967,0.06243c-0.17128,-0.04284 -0.28686,-0.17386 -0.36336,-0.3118c-0.14401,-0.2102 -0.17365,-0.43254 -0.15762,-0.62326c-0.08806,-0.26625 -0.16424,-0.53703 -0.22933,-0.81153c-0.10473,-0.01981 -0.21725,-0.07389 -0.31491,-0.19373c-0.13165,-0.14201 -0.1873,-0.33144 -0.2087,-0.4968c-0.0458,-0.23727 -0.02089,-0.42719 0.03499,-0.5762l0.14071,-0.80953c0.01738,-0.04626 0.0344,-0.09238 0.05107,-0.13836c-0.11212,-2.60985 0.51767,-5.34972 1.31078,-7.61558c0.23615,-0.67465 0.56434,-1.8579 1.11638,-2.18002c0.05385,-0.03142 0.10877,-0.05706 0.1646,-0.0779l-0.00835,-0.0306l0.47593,-0.23052c0.08895,-0.26945 0.18154,-0.54119 0.27776,-0.81584c0,0 0.28345,-0.80905 0.89084,-0.43149c0.60739,0.37756 0.32394,1.18661 0.32394,1.18661c-0.60266,1.72019 -1.05192,3.3014 -1.34888,4.92988c0.05237,-0.01009 0.08612,-0.01009 0.08612,-0.01009c1.23131,0 2.46262,0 3.69393,0h0.17874c0,0 0.27534,0 0.47307,0.23506c0.97539,-1.01073 1.93843,-2.02171 2.91823,-3.04209c0.02832,-0.96846 0.11419,-1.88793 0.23727,-2.87518c0,0 0.11019,-0.88066 0.77134,-0.73388c0.66115,0.14678 0.55096,1.02744 0.55096,1.02744c-0.08467,0.67408 -0.15045,1.30666 -0.18941,1.9497zM232.05332,231.89922l0.65052,-1.26037l0.01238,0.01134c0.018,-0.04174 0.03675,-0.08299 0.05633,-0.1237c0.12777,-0.26578 1.45885,-1.42377 1.88524,-1.82218c-0.94674,0 -1.93637,0 -2.83153,0c0,0 -0.09389,0 -0.21139,-0.0468c0.0435,0.9603 0.13841,2.32502 0.02666,3.18438c0.13346,0.01406 0.25592,0.08019 0.35593,0.18315c0.01606,-0.04409 0.03477,-0.08615 0.05585,-0.12581z" fill-opacity="0.54118" fill="#514566" stroke="none" stroke-width="0.5"></path><path d="M247.19609,221.40034c0.30436,-0.32433 0.57332,-0.22431 0.74513,-0.08379c0.02733,-0.01864 0.05673,-0.03615 0.08835,-0.05234c0.62559,-0.3205 0.86621,0.5128 0.86621,0.5128c0.87557,3.03649 0.91324,6.24911 0.56954,9.45195l-0.01703,0.03365l0.01122,0.00345l-0.17571,1.01421c-0.06346,0.40517 -0.33311,0.70954 -0.65613,0.70954c-0.35599,0 -0.64717,-0.36968 -0.66896,-0.83656l-0.05919,-1.1037l0.16031,-0.01525c-0.53146,-2.67033 -0.5574,-5.70485 -0.86917,-8.40423l-0.09924,0.02517c0,0 -0.41871,-0.69717 0.10468,-1.2549z" fill-opacity="0.54118" fill="#514566" stroke="none" stroke-width="0.5"></path></g><path d="M240.85824,224.62522c0,0 0,0.44809 -0.33416,0.70938c0,0.00162 0,0.00325 0,0.00487c0,0 0,0.89281 -0.93982,0.89281c-0.93982,0 -0.93982,-0.89281 -0.93982,-0.89281c0,-1.13751 0,-3.22735 0,-4.36486c0,0 0,-0.89281 0.93982,-0.89281c0.76757,0 0.90825,0.59555 0.93403,0.81384c0.33994,0.26061 0.33994,0.71386 0.33994,0.71386v0.15872c0,0.95234 0,1.90466 0,2.857z" fill="#160831" stroke="none" stroke-width="0.5"></path></g></g></g></svg>