<svg version="1.1" xmlns="http://www.w3.org/2000/svg" xmlns:xlink="http://www.w3.org/1999/xlink" width="165.5" height="32.81136" viewBox="0,0,165.5,32.81136"><g transform="translate(-147.07,-162.48)"><g fill="#ff0000" stroke="none" stroke-width="0.5" stroke-miterlimit="10"><path d="M287.82,174.98c0,0.5 -0.5,0.5 -0.5,0.5l-0.24189,-0.02566c-0.69716,0.22539 -1.23243,0.22566 -1.95811,0.22566c0,0 -0.5,0 -0.5,-0.5c0,-0.5 0.5,-0.5 0.5,-0.5c0.619,0 1.05503,0.02893 1.64189,-0.17434l0.55811,-0.02566c0,0 0.5,0 0.5,0.5z"></path><path d="M273.05018,169.80956c0.04675,-0.14488 0.16595,-0.32956 0.46982,-0.32956c0.5,0 0.5,0.5 0.5,0.5l-0.34189,0.67434c-0.2,0.06667 -0.4,0.13333 -0.6,0.2c0,0 -0.47434,0.15811 -0.63246,-0.31623c-0.15811,-0.47434 0.31623,-0.63246 0.31623,-0.63246c0.0961,-0.03203 0.19219,-0.06406 0.28829,-0.0961z"></path><path d="M172.27355,163.53355c-0.35355,0.35355 -0.70711,0 -0.70711,0l0.15355,-0.05355c-0.2,0 -0.4,0 -0.6,0c0,0 -0.5,0 -0.5,-0.5c0,-0.5 0.5,-0.5 0.5,-0.5c0.2,0 0.4,0 0.6,0l0.55355,0.34645c0,0 0.35355,0.35355 0,0.70711z"></path><path d="M165.24265,195.19602c-0.41603,-0.27735 -0.13868,-0.69338 -0.13868,-0.69338l0.33748,-0.46754c-0.00715,-0.1517 -0.0143,-0.30341 -0.02145,-0.45511c0,0 0,-0.5 0.5,-0.5c0.5,0 0.5,0.5 0.5,0.5c-0.00715,0.2483 -0.0143,0.49659 -0.02145,0.74489l-0.46252,0.73246c0,0 -0.27735,0.41603 -0.69338,0.13868z"></path><path d="M151.77,164.18c0,0.25 -0.25,0.25 -0.25,0.25c-0.13333,0 -0.46667,0 -0.6,0c0,0 -0.25,0 -0.25,-0.25c0,-0.25 0.25,-0.25 0.25,-0.25c0.13333,0 0.26667,0 0.4,0h0.2c0,0 0.25,0 0.25,0.25z"></path><path d="M150.17,194.78c0,0.25 -0.25,0.25 -0.25,0.25c-0.8,0 -1.8,0 -2.6,0c0,0 -0.25,0 -0.25,-0.25c0,-0.25 0.25,-0.25 0.25,-0.25c0.8,0 1.6,0 2.4,0h0.2c0,0 0.25,0 0.25,0.25z"></path><path d="M194.17,179.98c0,0.25 -0.25,0.25 -0.25,0.25c-0.3,0 -0.9,0 -1.2,0c0,0 -0.25,0 -0.25,-0.25c0,-0.25 0.25,-0.25 0.25,-0.25c0.3,0 0.6,0 0.9,0h0.3c0,0 0.25,0 0.25,0.25z"></path><path d="M312.57,176.58c0,0.25 -0.25,0.25 -0.25,0.25c-1,0 -2.2,0 -3.2,0c0,0 -0.25,0 -0.25,-0.25c0,-0.25 0.25,-0.25 0.25,-0.25c1,0 2,0 3,0h0.2c0,0 0.25,0 0.25,0.25z"></path><path d="M289.26229,188.58555c-0.20556,0.14229 -0.34785,-0.06326 -0.34785,-0.06326l-0.09903,-0.14306c-0.69915,-1.00999 -0.83621,-1.34923 -2.09541,-1.34923c0,0 -0.25,0 -0.25,-0.25c0,-0.25 0.25,-0.25 0.25,-0.25c1.42087,0 1.73258,0.44662 2.50652,1.56465l0.09903,0.14306c0,0 0.14229,0.20556 -0.06326,0.34785z"></path><path d="M295.57,166.38c0,0.25 -0.25,0.25 -0.25,0.25h-0.3c-0.269,-0.00406 -0.54967,0.04918 -0.7882,0.17361c0,0 -0.22361,0.1118 -0.33541,-0.1118c-0.1118,-0.22361 0.1118,-0.33541 0.1118,-0.33541c0.31114,-0.15045 0.66622,-0.22225 1.0118,-0.22639h0.3c0,0 0.25,0 0.25,0.25z"></path></g></g></svg>