<svg version="1.1" xmlns="http://www.w3.org/2000/svg" xmlns:xlink="http://www.w3.org/1999/xlink" width="68.88001" height="84.00646" viewBox="0,0,68.88001,84.00646"><g transform="translate(-220.21914,-137.83483)"><g stroke-miterlimit="10"><path d="M240,142.60389h48.09915v74.79224h-48.09915" fill="none" stroke="#834fea" stroke-width="2" stroke-linecap="butt"></path><path d="M241.14361,216.7328c0.44721,0.22361 0.22361,0.67082 0.22361,0.67082l-0.64721,0.67639c-1.6805,0 -2.46726,-0.8 -4,-0.8c-1.78923,0 -2.9949,-0.77424 -4.66109,-1.00375c-0.36094,-0.04972 -1.25557,0.13072 -1.49246,-0.1427c-0.50697,-0.58516 -0.00875,-1.60805 0.46553,-1.96226c2.15732,-1.61118 6.04319,0.23493 4.59448,-4.1112c0.12259,-1.49822 -6.01518,0.7084 -7.14729,-1.04416c-1.5179,-2.34977 0.49676,-6.33593 3.04084,-6.33593c5.37947,0.0374 3.81174,-5.25893 0.46774,-7.00617c-0.09519,-0.02732 -0.1688,-0.0854 -0.22083,-0.14074c-0.05722,-0.0538 -0.11737,-0.13066 -0.14342,-0.23059l-0.11952,-0.24515c-2.11608,-3.21308 2.27458,-6.03977 4.26247,-7.8309c0.87559,-0.78892 -0.0556,-2.32266 -0.18148,-3.10586c-0.54669,-0.52476 -1.61603,-0.83011 -1.9269,-1.54924c-0.15419,-0.35668 0.22881,-1.15899 -0.20093,-1.36602c-2.01971,-0.97301 -5.40748,0.87125 -6.60895,-2.05982c-0.61853,-1.50895 1.50792,-2.56938 1.87446,-3.669c1.84468,-1.31005 3.35188,-1.11893 5.51726,-1.39005c0.49563,-0.06206 2.2751,0.08511 2.63925,-0.54239c1.13793,-1.9608 -0.57553,-3.75729 -2.15628,-4.36498c-1.78928,-1.24432 -1.86656,-5.63941 -0.13378,-7.17393c0.70977,-0.62856 1.39598,-0.5158 2.18601,-0.70371c0.82611,-0.19648 1.7428,-2.137 2.04489,-3.00406v-0.1174c0,-4.39797 -4.18453,-4.49854 -7.47877,-4.50045c-3.34946,0.25137 -5.46148,1.95413 -8.68757,-0.07639c-0.59446,-0.37416 -2.35437,-1.29707 -2.43318,-2.04483c-0.0821,-0.77896 3.60913,-3.25242 4.07592,-3.82554c1.81774,-0.11327 5.54877,-0.38925 6.61799,-1.44514c0.09022,-0.08909 -0.08098,-2.21473 -0.24073,-2.27254c-1.47002,-0.53198 -2.95055,-1.0511 -1.80281,-2.85478c1.10463,-3.1742 6.36812,-2.39377 8.66883,-1.22948c0.98636,0.49915 1.25156,1.54996 2.30159,1.76409c0,0 0.48507,0.12127 0.3638,0.60634c-0.12127,0.48507 -0.60634,0.3638 -0.60634,0.3638c-1.2523,-0.35201 -1.41735,-1.30393 -2.49841,-1.83591c-1.79472,-0.88317 -6.49818,-1.86228 -7.33117,0.77052c-1.15137,1.63167 1.40745,0.67476 2.01278,2.18898c0.56563,1.41493 -0.1256,3.47093 -1.19907,4.21667c-0.91717,0.63715 -2.91174,-0.24901 -3.94799,0.0613c-0.73198,0.2192 -1.08392,0.64253 -1.89127,0.56059c-0.61676,0.92002 -1.49555,1.33006 -2.27005,2.10634c-0.35908,0.3599 -1.54645,0.45225 -1.25402,0.86812c2.49651,3.55042 6.94654,1.37037 10.07924,1.07877c3.8701,-0.00212 8.52123,0.4772 8.52123,5.49955v0.2c0,0 0,0.03201 -0.0081,0.07982c-0.00744,0.04792 -0.01756,0.07829 -0.01756,0.07829c-0.4087,1.21692 -1.08578,2.2606 -1.87699,3.14538c-0.77063,0.86178 -1.78571,0.41237 -2.66645,1.07134c-1.12887,0.84462 -1.29111,4.77412 -0.06968,5.53547c2.11943,0.80082 4.4793,4.80875 1.75845,6.33885c-2.34128,1.31665 -5.15816,0.07387 -7.42232,1.45434c-0.17661,0.52984 -2.11611,2.01774 -1.72554,2.731c1.25466,2.29127 4.46698,0.41454 6.19105,1.54018c0.99464,0.64939 0.33423,1.01561 0.59907,1.83398c0.03836,0.11853 1.8087,1.38431 1.88731,1.46497c0.28626,1.35295 1.2325,2.95443 0.0043,4.27992c-1.42613,1.53911 -5.91016,3.94868 -4.13753,6.5691l0.15579,0.30575c1.30345,0.67623 2.31893,1.50409 3.23381,2.67924c0.44095,0.5664 0.29438,1.43667 0.29438,2.09236c0,3.01457 -1.50339,4.08302 -4.5,4.1c-2.03652,0 -3.0324,3.00466 -2.15916,4.86407c0.17763,0.37823 1.89372,0.13593 2.15916,0.13593c1.7933,0 4.96617,-1.09001 5.09354,1.21991c0.58143,1.74429 0.36901,3.75823 -1.53543,4.55443c-0.81089,0.33901 -1.90165,0.07152 -2.78464,0.3946c-0.3669,0.13425 -1.38638,0.71296 -1.01992,0.5775c1.17083,-0.43276 2.08149,0.35533 3.18624,0.67349c0.77433,0.22301 1.46095,0.18006 2.26021,0.18006c1.67962,0 2.32358,0.8 4,0.8l-0.24721,-0.12361c0,0 0.22361,-0.44721 0.67082,-0.22361z" fill-opacity="0.33333" fill="#cbadff" stroke="none" stroke-width="0.5" stroke-linecap="butt"></path><g fill="none" stroke="#834fea" stroke-width="2" stroke-linecap="round"><path d="M236.78551,138.83484l3.44517,3.44517"></path><path d="M240,217.39614l-3.44517,3.44516"></path></g></g></g></svg>