<svg version="1.1" xmlns="http://www.w3.org/2000/svg" xmlns:xlink="http://www.w3.org/1999/xlink" width="106.5" height="198" viewBox="0,0,106.5,198"><g transform="translate(-186.75,-81)"><g stroke-miterlimit="10"><path d="M186.75,268.87c0,-36.73571 0,-161.75426 0,-180c0,-4.35968 3.60651,-7.87 7.5508,-7.87c11.70386,0 70.7041,0 91.6,0c4.59647,0 7.3492,3.80872 7.3492,8.47c0,18.86648 0,144.20443 0,180c0,6.03951 -4.59212,9.53 -9.3492,9.53c-11.98774,0 -64.60317,0 -87,0c-6.25322,0 -10.1508,-3.7218 -10.1508,-10.13z" fill-opacity="0.11765" fill="#ffffff" stroke="none" stroke-width="0"></path><text transform="translate(230.79575,121.6058) scale(0.35932,0.35932)" font-size="40" xml:space="preserve" fill="#ffffff" stroke="none" stroke-width="1" font-family="&quot;Microsoft YaHei&quot;, &quot;微软雅黑&quot;, STXihei, &quot;华文细黑&quot;" font-weight="normal" text-anchor="start"><tspan x="0" dy="0">PC</tspan></text><g fill="#ffffff"><path d="M239.99999,208.53251v30.71262c0,0 -4.29139,0 -6.65114,0c-1.43513,0 -4.38269,-1.33838 -6.26917,-4.22927c-1.64222,-2.51659 -2.33819,-6.45355 -2.33819,-8.60961c0,-5.46623 0,-17.87373 0,-17.87373z" stroke="#0a0610" stroke-width="1.5"></path><path d="M255.25849,208.53251c0,0 0,12.40751 0,17.87373c0,2.15606 -0.69597,6.09302 -2.33819,8.60961c-1.88647,2.89088 -4.83404,4.22927 -6.26917,4.22927c-2.35975,0 -6.65114,0 -6.65114,0v-30.71262z" stroke="#0a0610" stroke-width="1.5"></path><path d="M236.57661,238.65826v-33.84256h6.84676v33.84256z" stroke="none" stroke-width="0"></path><path d="M224.7415,208.53251c0,0 0,-9.6415 0,-13.88914c0,-1.67541 0.69597,-4.73471 2.33819,-6.69027c1.88647,-2.24642 4.83404,-3.28644 6.26917,-3.28644c2.35975,0 6.65114,0 6.65114,0v23.86585z" stroke="#0a0610" stroke-width="1.5"></path><path d="M239.99999,208.53251v-23.86585c0,0 4.29139,0 6.65114,0c1.43513,0 4.38269,1.04002 6.26917,3.28644c1.64222,1.95557 2.33819,5.01486 2.33819,6.69027c0,4.24764 0,13.88914 0,13.88914z" stroke="#0a0610" stroke-width="1.5"></path><path d="M241.3854,201.37276c-0.71994,0 -2.41122,0 -2.79656,0c-0.15291,0 -0.30053,-0.23792 -0.30053,-0.64957c0,-2.43985 0,-10.98298 0,-12.26893c0,-0.31772 0.08849,-0.57733 0.23624,-0.57733c0.67169,0 2.56822,0 2.94443,0c0.12679,0 0.24271,0.23927 0.24271,0.53643c0,1.24365 0,9.76501 0,12.26894c0,0.43678 -0.12528,0.69047 -0.32629,0.69047z" stroke="#0a0610" stroke-width="1.5"></path></g></g></g></svg>