<svg version="1.1" xmlns="http://www.w3.org/2000/svg" xmlns:xlink="http://www.w3.org/1999/xlink" width="185.17528" height="255.18617" viewBox="0,0,185.17528,255.18617"><g transform="translate(-152.8,-81.19717)"><g stroke="none" stroke-width="0.5" stroke-miterlimit="10"><g><path d="M295.49294,160.50103c-2.27526,0.01818 -3.56501,0.16203 -5.35969,-1.91331c-1.55467,-1.7978 -2.66658,-4.09487 -3.84822,-6.35759l-1.57563,-2.03184c-0.39153,-0.49479 -0.61894,-1.2535 -0.57088,-2.08974c0.03304,-0.57492 0.19123,-1.09852 0.43169,-1.51477c-0.64852,-2.86891 -0.96075,-5.8286 -0.68094,-7.92646c0.83646,-6.27123 4.36847,-13.33849 6.4436,-19.02434l0.14592,-1.37538c0,0 0.04894,-0.31535 0.18721,-0.70334c0.0198,-0.38849 0.11264,-0.82319 0.31689,-1.3004c0.95283,-2.22623 2.42472,-0.92511 2.42472,-0.92511c4.90361,4.34088 8.55759,8.76415 11.16914,16.40216l0.72437,2.3175c0.15289,0.34847 0.22493,0.73113 0.25808,1.0443c0.04003,0.3119 0.05952,0.71266 -0.00441,1.13109c-0.54699,9.25599 -1.91091,24.20212 -10.06184,24.26722z" fill="#baafcc"></path><path d="M218.33838,183.56698c4.2662,-2.33432 8.41796,-5.00337 12.62266,-7.47092c8.27131,-4.6027 17.70321,-3.57009 26.7251,-2.14194c3.83099,0.60644 8.02495,0.2978 11.23577,2.94412c2.41073,1.9869 3.97538,4.76841 6.00677,7.11616c0.63162,0.29068 0.91757,0.95544 0.91757,0.95544c3.63596,8.47558 11.4001,14.63089 14.34089,23.39409l0.36704,1.59286c0,0 0.02673,0.11902 0.03465,0.30128c0.38545,0.53401 0.34696,1.20386 0.34696,1.20386c-0.10519,1.83032 -0.21039,3.66062 -0.31558,5.49094c-0.10137,1.76376 -0.20005,3.52767 -0.30411,5.29127c-0.38732,6.56397 -3.74545,19.44824 -12.86252,17.21379c-2.60409,-0.63823 -5.07227,-2.55487 -7.43896,-3.7739c-4.30921,-2.50698 -9.16684,-7.03783 -10.6374,-11.81439l-0.46148,-1.04363c0,0 -0.01042,-0.02423 -0.02573,-0.06802c-0.01776,-0.04286 -0.02614,-0.06787 -0.02614,-0.06787c-2.08505,-6.29971 -7.06115,-11.18972 -9.91518,-17.19643c-2.86428,0.296 -5.6955,0.80292 -7.90482,2.58864l-1.27899,2.51898c-1.36471,4.76602 -5.74242,8.5875 -8.95562,12.11987c-2.93642,3.2281 -5.40052,6.80102 -9.37319,8.87477c-2.60728,1.36101 -5.65142,2.19228 -8.40867,3.23338l-1.11756,0.08685c0,0 -1.74712,-0.10041 -1.6467,-1.84753c0.10041,-1.74712 1.84753,-1.6467 1.84753,-1.6467l-0.31888,0.13275c0.39288,-0.14814 0.79431,-0.29189 1.20161,-0.43382c-3.66465,-0.61849 -7.86444,-1.32407 -10.88542,-3.70464c-3.56743,-2.81118 -4.34401,-6.8747 -4.10503,-11.07861c0.33695,-5.92725 1.56867,-11.32028 3.96762,-16.60781c0.43708,-4.12817 2.90467,-6.31012 5.72445,-9.16257c0.2231,-0.36911 0.55987,-0.56351 0.86697,-0.6655c0.00584,-0.00259 0.01171,-0.00515 0.01762,-0.0077c2.92508,-2.81816 6.12647,-4.33956 9.75879,-6.32705z" fill="#111732"></path><path d="M255.73048,169.93558c1.69775,0.42443 1.27331,2.12219 1.27331,2.12219l-0.53047,1.80926c-1.09981,1.83015 -2.00252,3.7359 -2.89536,5.64648c0.20165,0.02974 0.39072,0.09819 0.56195,0.19823c0.40458,-0.4411 0.82497,-0.87853 1.26202,-1.31584c0.98476,-0.98535 3.46714,-3.65343 4.6395,-3.46575c1.18047,0.18898 1.95799,3.79103 2.65047,4.77447c0.44437,0.63108 0.797,-1.33312 1.31244,-1.90761c0.64997,-0.72443 1.46348,-1.28524 2.23219,-1.88217c0.7876,-0.61161 1.64868,-1.12059 2.54877,-1.56257l-0.11668,-0.17501l1.98009,-1.32006c0.28167,-0.19377 0.62291,-0.30718 0.99063,-0.30718c0.9665,0 1.75,0.7835 1.75,1.75c0,0.10938 -0.01003,0.2164 -0.02923,0.32021l-0.32792,1.96748l-0.02096,-0.00349l0.00811,0.07215c-0.92805,3.71278 -2.03114,7.46197 -3.43756,11.03797c0.01344,0.62907 -0.24432,1.15227 -0.24432,1.15227c-4.28274,8.69246 -9.21111,16.7111 -13.17402,25.54787l-1.62646,1.36558c-0.2347,0.27699 -0.5237,0.43557 -0.76329,0.52579c-0.22517,0.09679 -0.51828,0.17696 -0.83127,0.14165c-2.43988,0.1683 -5.81115,0.29416 -8.03215,-0.49862c-0.98914,-0.35307 -1.57904,-0.84802 -2.09541,-1.3155c-3.17934,4.51818 -9.21295,6.02436 -11.93544,0.06328c-1.52169,-3.33184 -2.04198,-7.00331 -2.97828,-10.56572c-2.03075,-7.72658 -2.86059,-14.88388 -2.15817,-23.00057c0,0 0.16468,-1.90294 1.80304,-1.84536c0.31184,-0.95542 0.62781,-1.85438 0.78818,-2.09635c2.69103,-4.06035 9.41484,-5.70868 12.98163,-2.55222c0.17408,-0.33132 0.45063,-0.65892 0.88749,-0.81202c-0.09718,3.1934 -0.50557,6.79278 0.05094,9.82655c0.40323,2.19821 1.3364,2.93407 1.31867,5.24513l0.14569,0.21081l-0.09527,0.02722l0.65604,2.29614c0.08747,0.33483 0.27161,0.63057 0.52084,0.85562c0.5447,-0.83782 0.81778,-1.84637 1.27139,-2.74349c1.26117,-2.49422 1.40824,-5.46376 2.65121,-7.96804c1.56751,-3.15814 2.91673,-6.42942 4.74924,-9.48803l0.1362,-0.8574c0,0 0.42444,-1.69775 2.12219,-1.27332zM268.94654,178.41759c-0.76221,0.50143 -1.63956,0.95904 -2.33882,1.71874c-0.30676,0.33327 -0.51193,0.77244 -0.73415,1.18798c0.64611,0.38548 1.24068,0.86256 1.76732,1.45159c0.47479,-1.44128 0.90694,-2.89936 1.30564,-4.35831zM265.97377,186.87288l0.044,0.23031c-0.01244,-0.07849 -0.02713,-0.15524 -0.044,-0.23031z" fill="#6390d6"></path><path d="M333.47319,296.17525c1.05408,0.41879 4.37599,1.2768 4.49356,2.40848c0.14216,1.36833 -1.52951,2.28707 -2.29426,3.43061l-0.74818,0.07251c-0.08664,0.053 -0.17545,0.0961 -0.26322,0.13114c-0.43707,0.22917 -0.83255,0.22791 -1.16088,0.13095l-0.17897,-0.01029c-5.83787,-0.33552 -11.77817,-1.0499 -17.62399,-1.01559c-1.52405,0.00894 -3.05854,-0.21079 -4.57214,-0.03231c-1.16032,0.13682 -2.23845,0.8673 -3.40611,0.82701c-0.34426,-0.01188 -3.47572,-1.60438 -4.01574,-1.87349c0,0 -1.5663,-0.78051 -0.78579,-2.34681c0.35717,-0.71675 0.87889,-0.94206 1.33977,-0.97562c-0.09755,-0.23577 -0.14481,-0.49664 -0.12919,-0.76843c0.0211,-0.36712 0.15391,-0.70128 0.36352,-0.97137l0.91708,-1.21792c1.10676,-3.17623 2.24442,-2.38977 5.29573,-3.12233c5.00093,-1.20063 8.72545,-1.28098 13.77451,-0.26227c0,0 0.09066,0.01831 0.22607,0.06735l0.45756,0.09605c1.60098,0.80287 2.69149,1.23072 4.07272,2.52762c0.81761,0.76768 1.0518,1.30314 1.36829,1.84171c0.96103,0.32741 1.91638,0.68427 2.86967,1.06301z" fill="#baafcc"></path><path d="M177.60415,258.08092c0.00476,-0.08282 0.01521,-0.16396 0.03093,-0.24307l0.35935,-1.95522l0.06835,0.01256c-0.00012,-0.09931 0.00301,-0.19885 0.00977,-0.29861c0.11775,-1.73771 2.06581,-3.53561 3.38771,-5.13105c1.06331,-1.77795 2.11006,-3.56079 3.17162,-5.33174c2.4252,-4.42006 4.75406,-8.88447 7.17862,-13.29797c1.36363,-2.48227 1.87178,-7.90769 4.7868,-9.26655c0.48931,-0.22809 4.01498,0.02334 4.82968,0.07017l0.74876,0.04304c0,0 0.00514,0.00029 0.01486,0.00114c2.95499,-0.6273 6.1375,-1.36176 8.97429,0.17656c1.24064,0.67277 2.0062,1.99331 2.89463,3.0899c1.51298,1.86747 3.92545,3.90659 4.91277,6.16939c1.00459,2.30237 1.33203,5.905 1.21106,8.37562l-0.05738,0.99835c0,0 -0.00548,0.09538 -0.03617,0.24029c-0.02716,0.14561 -0.05864,0.23582 -0.05864,0.23582c-1.78119,4.94506 -6.65662,8.6038 -9.68004,12.87418c-1.78392,2.51967 -2.73811,5.17908 -4.47999,7.79722c-0.94228,1.41631 -1.58309,1.33317 -2.33103,2.73019c-0.9882,1.84577 -1.39438,3.9588 -2.31938,5.83704c-1.0937,2.2208 -2.17595,3.39157 -2.95184,5.89936c-0.10638,0.6341 -0.21278,1.26819 -0.31916,1.90229c0.0166,0.2919 -0.05254,0.56124 -0.13604,0.77252c-0.07957,0.23503 -0.21698,0.51184 -0.45329,0.735c-2.74558,3.75369 -3.60364,7.98805 -4.48817,12.41985c-0.00063,0.02405 -0.00168,0.04954 -0.00326,0.07631l0.00591,0.00119c0,0 -0.00377,0.06565 -0.02258,0.17078c-0.04651,0.34388 -0.18893,0.79852 -0.59303,1.11419c-0.24687,0.21073 -0.59209,0.36282 -1.07455,0.36586c-0.48164,0.02832 -0.836,-0.10102 -1.09604,-0.29525c-0.42376,-0.28875 -0.59542,-0.73316 -0.66418,-1.07329c-0.02561,-0.10368 -0.03364,-0.16895 -0.03364,-0.16895c-0.21316,-1.73215 -0.23182,-3.49556 -0.60341,-5.20075c-0.23116,-1.06075 -2.72496,-2.29763 -3.51038,-2.95955c-1.06404,-0.89673 -1.79689,-2.1451 -2.86794,-3.03345c-0.68401,-0.56733 -1.77186,-0.1414 -2.65913,-0.19123c-4.00002,-0.22466 -7.48674,1.0543 -11.39672,0.83609l-0.24181,0.44397l-0.30525,1.51124c-0.15836,0.85399 -0.93105,1.47699 -1.82086,1.42585c-0.9649,-0.05545 -1.70216,-0.88263 -1.6467,-1.84753c0.00424,-0.07389 0.01302,-0.14643 0.02603,-0.21739l0.37444,-2.20688l0.06832,0.01159c-0.0042,-0.08691 -0.00651,-0.17401 -0.00677,-0.26135c-0.00013,-0.04424 1.74055,-3.54551 1.81945,-3.69187c1.83917,-3.41149 5.08919,-6.59618 6.57263,-10.10004c1.37483,-3.24732 2.84851,-6.33629 4.40895,-9.42331c-0.00108,-0.04711 -0.00028,-0.09463 0.00247,-0.1425z" fill="#a69cb5"></path><path d="M183.90009,249.67003c-0.91892,-0.1261 -1.74096,-0.4351 -2.17333,-1.11016c-0.62102,-0.96961 0.27575,-2.2865 0.38851,-3.4324c0.40993,-4.16599 2.25341,-8.23968 4.74387,-11.71179c1.07719,-6.33668 2.6968,-12.5477 4.72297,-18.75632c1.26147,-3.86542 2.09332,-6.23457 4.55174,-9.57026c0.76213,-1.0341 1.27298,-2.41314 2.28876,-3.15189c0.74707,-2.32539 2.70766,-5.14937 3.9357,-5.82207c0.97155,-0.53221 3.53384,-0.26137 4.61129,-0.20168l1.9967,0.11476c0.9649,0.05545 1.70216,0.88263 1.6467,1.84753c-0.01767,0.30742 -0.11368,0.59175 -0.26751,0.83468c0.22562,0.20475 0.415,0.50745 0.51475,0.9517c0.043,0.19148 0.0597,0.3663 0.05546,0.52581c0.43714,6.94128 -0.28229,13.45147 -1.95848,20.19368c-0.55657,2.23869 -0.70143,4.18013 -1.72671,6.28686l0.00796,0.06865c0.08791,0.25707 0.10024,0.5152 0.08454,0.72934l0.00225,0.01943c0,0 -0.00576,0.10033 -0.03858,0.25152c-0.02961,0.15185 -0.06396,0.24629 -0.06396,0.24629c-0.27426,0.73589 -0.54852,1.47179 -0.82278,2.20769l-0.06731,1.49448c0,0 -0.00205,0.03554 -0.01062,0.09619c-0.0052,0.06104 -0.01116,0.09613 -0.01116,0.09613c-0.24155,1.36166 -0.61919,2.71649 -1.18116,3.98176c-0.00926,0.33995 -0.1359,0.62334 -0.29305,0.84622c-0.1741,0.31516 -0.46635,0.62851 -0.9558,0.75628c-0.98567,0.47996 -2.35233,0.89862 -3.62778,1.3751l-0.15175,0.75128l-0.03601,-0.00727l0.01588,0.09518c-0.73517,2.28 -2.91786,8.20944 -5.36173,9.00304c-0.17588,0.05712 -0.43848,0.0701 -0.76281,0.04967c-0.02272,0.91527 -0.90188,1.43108 -0.90188,1.43108l-1.92538,1.07537c-0.62591,0.05054 -5.45292,0.44132 -5.45875,0.43635c-0.21554,-0.18416 -0.33363,-0.41909 -0.39082,-0.68519c-0.41133,-0.08749 -1.21752,-0.37753 -1.37974,-1.31699zM185.52026,244.8005c-0.09045,0.22185 -0.18227,0.44381 -0.27584,0.6658c0.07435,-0.03574 0.15155,-0.06635 0.23109,-0.09141c0.01286,-0.19155 0.02774,-0.38307 0.04475,-0.57439z" fill="#baafcc"></path><path d="M291.79609,222.90252c1.69939,-0.41783 2.11722,1.28156 2.11722,1.28156c0.1063,0.44346 0.22437,0.85532 0.35289,1.2426c0.01385,0.03647 0.02659,0.07422 0.03812,0.11327c0.8977,2.6301 2.28357,4.12934 3.73153,6.76452c1.09258,1.98841 1.78877,3.923 2.81216,5.70915c1.25122,-0.96572 2.33737,0.25289 2.33737,0.25289l0.8095,1.09634c1.40409,3.94995 1.10069,7.9306 2.7822,11.83587c0,0 0.00005,0.0001 0.00013,0.0003l0.40083,0.93864c0.32993,0.67531 0.65985,1.35061 0.98978,2.02591c0.42133,2.13651 0.61139,5.47678 1.71409,7.37549c0.79635,1.37122 2.09708,2.5314 2.45091,4.07712c1.89207,8.26559 3.98447,16.08646 8.7684,23.28915c0.2541,0.27044 0.46995,0.66029 0.42574,1.18834c0.00811,0.33654 -0.08433,0.71358 -0.39918,1.06118c-0.27549,0.37955 -0.6255,0.54747 -0.95652,0.60868c-0.57481,0.17181 -1.04473,-0.019 -1.37032,-0.2518l-0.61563,-0.30988c-6.63443,-0.42418 -9.27713,5.13994 -13.51864,9.39243c-0.22782,0.36509 -0.56802,0.55522 -0.87522,0.65381c-0.29382,0.12543 -0.67086,0.20421 -1.07751,0.08272l-0.13509,-0.00776c-4.42102,-0.25409 -8.47737,-1.10306 -12.82938,-1.7462c0,0 -1.73085,-0.25818 -1.47267,-1.98903c0.08006,-0.5367 0.30171,-0.88217 0.56945,-1.10338c-0.12817,-2.20293 -0.8805,-3.90875 -0.90702,-6.17277c-0.03276,-2.79699 0.31773,-4.97483 -0.42753,-7.71432c-3.49746,-8.3039 -3.67675,-17.6751 -5.80926,-26.28921c-1.17651,-4.75242 -6.04444,-8.69331 -6.28791,-13.43551c-0.44955,-0.3404 -0.72668,-0.89146 -0.69189,-1.49671c0.01193,-0.20749 0.05953,-0.40446 0.13653,-0.58528l0.85541,-2.14692c0.18948,-1.14718 0.60433,-2.20123 1.16008,-3.19008c0.11809,-0.33111 0.25663,-0.65362 0.42664,-0.96285c0.6003,-1.09187 1.5948,-2.17484 2.76272,-3.16522c0.95008,-1.03059 1.91961,-2.02766 2.76095,-3.03997c1.48478,-1.78651 1.75038,-2.54819 4.12141,-3.56588c1.32283,-0.56778 2.34453,-0.54664 3.5469,-0.47113c0.07797,-0.50717 0.3745,-1.11783 1.30281,-1.34608z" fill="#a69cb5"></path><path d="M295.67476,251.02089c-0.75854,-0.28995 -1.24696,-1.21512 -1.85827,-1.79904c-0.17703,-0.1691 -0.34519,-0.34284 -0.50583,-0.52049l-1.74981,-0.09775c-0.52984,0.06536 -0.92108,-0.11378 -1.19988,-0.35244c-0.30218,-0.20546 -0.57668,-0.53396 -0.65413,-1.05838c-1.49811,-4.33632 -4.25164,-7.40418 -5.29379,-12.04035l-0.0253,-0.73342c0,0 0.03535,-0.61507 0.42904,-1.09434c-0.30217,-1.72764 -0.45703,-3.45812 -0.56877,-4.95983c-0.22035,-2.96122 -0.25248,-6.81352 -0.91525,-9.63013c-0.50878,-2.16219 -2.04651,-4.19623 -2.39503,-6.44825c-0.35545,-2.29678 -0.03729,-4.25186 -0.47778,-6.48257c-0.67559,-0.27368 -1.13387,-0.95457 -1.08972,-1.72276c0.02219,-0.38605 0.16791,-0.73567 0.39656,-1.01265l1.33558,-1.65953l0.0383,0.03082c0.07042,-0.10244 0.1462,-0.20166 0.22814,-0.29719c0.88173,-1.02803 4.24604,-2.33687 6.1529,-3.32631c0.0628,-0.21148 0.17656,-0.42425 0.36754,-0.61731c0.21069,-0.25957 0.52544,-0.48063 0.99512,-0.54488c0.46056,-0.1123 0.83442,-0.02195 1.12557,0.14237c0.48975,0.21618 0.72835,0.61359 0.84404,0.96879c2.18681,4.71484 4.83682,9.06141 6.70593,13.90203c1.75852,4.55421 2.80617,9.46642 4.66906,13.96313c0.70868,1.71062 1.19511,1.33017 2.58753,3.04742c1.23733,1.52599 1.99507,3.64742 2.9707,5.34864l-0.04537,0.28682l0.12494,-0.02805l0.38991,1.73637c0.04147,0.16682 0.05887,0.34264 0.04849,0.52327c-0.02118,0.36854 -0.15494,0.70388 -0.36595,0.97451c-0.06792,0.36585 -0.18953,0.73616 -0.28414,1.0725c-0.27573,0.98021 -0.70446,1.83221 -1.20334,2.62631c0.00943,0.02031 0.01876,0.04067 0.02796,0.06111c1.34622,2.98873 -0.52056,9.44029 -3.5834,10.81563c-0.41393,0.18587 -3.86871,-0.05686 -4.49435,-0.09282l-1.24795,-0.07172c0,0 -1.05667,-0.06073 -1.47924,-0.90949z" fill="#baafcc"></path><path d="M156.80217,301.95962c-0.78257,-0.04498 -1.41538,-0.59755 -1.59703,-1.31954c-0.00565,-0.00937 -0.01121,-0.01885 -0.01665,-0.02848c-0.56892,-1.00538 0.44359,-2.26756 0.68894,-3.39638c0.54861,-2.52405 2.26227,-3.90324 3.89538,-5.69399c0.41581,-0.56538 0.83639,-1.08449 1.26595,-1.57372c0.62163,-0.94921 0.6568,-1.46026 1.80065,-2.57611c0.15839,-0.15451 3.37964,-2.68221 3.90232,-2.75473l0.8286,-0.6135c-0.32635,-0.23862 -0.60043,-0.63684 -0.63581,-1.30063c-0.09314,-1.74752 1.65438,-1.84066 1.65438,-1.84066c4.62778,-0.24138 9.30839,0.27385 13.93524,0.53977l0.77553,0.04458c0.52883,-0.06466 0.91942,0.11432 1.19787,0.35269c0.30495,0.20734 0.58171,0.54 0.65621,1.07285c1.0355,3.03099 3.48619,4.63245 4.7023,7.75504l0.27343,1.63592c0,0 0.00919,0.06522 0.01135,0.17212c0.00666,0.10672 0.00288,0.17247 0.00288,0.17247c-0.00334,0.01761 -0.00653,0.0353 -0.00954,0.05307c-0.00569,0.07241 -0.01535,0.15155 -0.03089,0.23464c-0.08639,0.87755 0.0973,1.89364 -0.4918,2.51333c-0.77387,0.81405 -4.04332,1.03434 -5.21447,1.30355c-3.38334,0.77772 -6.12098,2.42596 -8.98907,4.23767l-0.37188,0.0732c-0.45826,0.20558 -0.9119,0.17952 -0.9119,0.17952c-0.61443,-0.03532 -1.22981,-0.07689 -1.84576,-0.11958c-3.02694,0.65231 -5.85999,1.12799 -8.67388,1.1019l-0.49851,0.5182c-0.34223,0.36005 -0.83469,0.5728 -1.36946,0.54206c-0.50726,-0.02916 -0.95161,-0.27158 -1.25093,-0.63518c-0.15007,0.0321 -0.30687,0.04483 -0.46749,0.0356c-0.47604,-0.02736 -0.89667,-0.24255 -1.19404,-0.56945z" fill="#baafcc"></path><path d="M240.25604,206.475c2.70551,0.00914 7.48724,-0.16819 9.93178,-1.54694c1.1452,-0.6459 2.08182,-1.62828 3.24247,-2.24599c1.30286,-0.69339 4.31438,-2.405 5.82479,-1.39388c0.07227,0.04838 1.55301,5.48045 1.68929,5.97635c0,0 0.02395,0.08782 0.0409,0.22887c0.02076,0.14054 0.02076,0.23158 0.02076,0.23158v1c0,4.62163 0.48741,9.53964 -0.30229,14.10985c-0.05439,0.31478 -0.94516,5.06124 -1.4812,5.84506c-1.2905,1.88702 -4.39861,2.9112 -6.2807,4.02386c-1.00499,0.59413 -1.87649,1.55884 -3.02581,1.7639c-0.81896,0.14613 -1.54907,-0.63131 -2.36319,-0.80237c-2.10154,-0.44156 -4.24838,-0.66558 -6.33937,-1.15077c-0.36362,-0.01279 -0.67324,-0.16164 -0.90143,-0.31844c-0.27822,-0.16638 -0.59305,-0.43881 -0.73919,-0.86289l-0.24432,-0.3742c-4.49861,-2.81213 -10.77537,-3.46065 -14.20511,-7.59753c-0.29707,-0.24669 -0.45119,-0.57698 -0.53116,-0.85329c-0.09005,-0.25574 -0.15434,-0.58879 -0.07908,-0.93889l0.01044,-0.59178c0.85142,-5.95471 1.49782,-11.96619 4.74841,-17.18001c0.68198,-1.09387 2.35638,-4.18743 3.82556,-4.31532c2.61405,-0.22753 5.15725,4.6804 6.15905,6.34245c0,0 0.1622,0.27034 0.23417,0.65037z" fill="#baafcc"></path><path d="M245.75604,239.475c-2.08334,0 -4.16666,0 -6.25,0h-1c0,0 -1.39899,0 -1.69528,-1.25084c-0.01817,0.00056 -0.03642,0.00084 -0.05472,0.00084c-0.91914,0 -1.67279,-0.70861 -1.74443,-1.60933l-0.24838,-2.73223l0.01681,-0.00153c-0.00752,-0.02582 -0.01493,-0.05169 -0.0222,-0.0776c-0.81773,-2.91234 0.69332,-6.4274 1.01131,-9.29312c0.26166,-2.35811 0.31443,-5.06584 1.08082,-7.35182c0.61869,-1.84542 2.43738,-3.67818 3.0085,-5.52428c0.65946,-2.13166 0.67824,-4.3806 1.07547,-6.5577c0.04766,-0.77946 0.07284,-1.56335 0.0721,-2.35237c0,0 0,-1.59558 1.52356,-1.73962c0.00917,-0.00544 0.01836,-0.01076 0.02758,-0.01597c0.30736,-0.21485 0.72783,-0.34586 1.28677,-0.21576c2.53785,0.31825 5.07152,0.66501 7.60966,0.98243c0.13977,-0.01677 0.29297,-0.01916 0.46087,-0.00389c0.56241,0.05113 0.92683,0.26724 1.16247,0.53654c0.24686,0.25906 0.42909,0.64155 0.42909,1.20628c0,0.12214 -0.00853,0.23576 -0.02439,0.34145c-0.76892,8.07456 -2.86527,16.08689 -4.77786,23.83298l0.05225,1.07556c0,0 0,0.02638 -0.00324,0.07265c-0.00062,0.04638 -0.00281,0.07268 -0.00281,0.07268c-0.25853,3.1003 -0.31131,6.26581 -1.04621,9.27911l-0.28517,0.19408c-0.35406,1.13148 -1.66258,1.13148 -1.66258,1.13148z" fill="#721c67"></path><path d="M245.62464,241.33744c-1.50475,-1.51371 -2.63734,-3.4881 -3.91257,-5.18743c0,0 -0.57047,-0.76063 -0.30978,-1.58106c-0.04022,-0.20248 -0.04022,-0.34394 -0.04022,-0.34394l0.03155,-0.69384c-0.0197,-0.02127 -0.03956,-0.04243 -0.05955,-0.0635c0.0247,-0.08429 0.04935,-0.16859 0.07394,-0.25291l0.0214,-0.47051c0.92117,-3.18696 0.86286,-6.5787 1.74766,-9.74174c1.36348,-4.87427 2.73522,-9.7312 3.6106,-14.73996c-0.17792,-0.23335 -0.35849,-0.46489 -0.54212,-0.69432c0,0 -1.09322,-1.36652 0.2733,-2.45974c0.60801,-0.48641 1.16192,-0.48587 1.58951,-0.33541c0.00596,-0.02949 0.0119,-0.05899 0.01785,-0.08848c0.05563,0.05696 0.11256,0.11273 0.17057,0.1675c0.42307,0.20629 0.6818,0.5297 0.6818,0.5297c0.03489,0.04363 0.06968,0.08734 0.10437,0.13111c0.56684,0.44254 1.15105,0.86973 1.60838,1.41656c0.94422,1.129 1.40153,2.24031 1.79202,3.39336c0.36318,0.5487 0.72481,1.09764 1.08919,1.6436c-0.06275,0.31492 -0.12555,0.62986 -0.18842,0.94479c0.03208,0.07775 0.06509,0.15584 0.09912,0.23428c2.26775,5.22644 6.37487,9.70556 9.61863,14.24935c1.90235,3.47156 4.87492,5.38258 7.48267,8.1726c4.27809,4.5771 8.18169,9.85689 11.68898,15.08542c1.97446,1.80244 3.24112,3.95696 5.37701,6.23143c2.25803,2.40454 5.36642,4.22311 7.19678,7.00339c1.96073,2.9783 4.16279,5.26487 6.39479,8.10272c1.74739,2.22169 2.91719,4.80559 4.74356,6.99195c6.01761,7.73555 10.45714,15.95803 16.73131,23.47719l0.93824,0.30508c0,0 0.53072,0.26536 0.81957,0.79608c1.55667,0.53814 1.074,2.14703 1.074,2.14703c-0.03771,0.12562 -0.07508,0.25115 -0.11212,0.3766c0.18915,1.11751 0.06663,2.59811 -0.20527,3.89815c0.39824,1.03883 -0.05584,2.46896 0.12264,3.46826c0.25361,1.41992 0.55187,2.8329 0.75164,4.26139c0.42371,3.02989 1.38153,6.57446 2.20192,9.52022c0.02749,0.09872 0.05793,0.19488 0.09084,0.28884c0.72004,0.79892 1.41974,1.55971 2.01956,2.25608c0.25983,0.26401 0.51539,0.66288 0.48678,1.1966c0.0024,0.07396 -0.00046,0.14984 -0.00982,0.22712l0.24275,0.08092c0.7151,0.21992 1.23488,0.88574 1.23488,1.67296c0,0.9665 -0.7835,1.75 -1.75,1.75h-1.75v-0.48867l-0.21379,-0.07126l-0.84005,0.20704c-0.0916,-0.21347 -0.18914,-0.42717 -0.29109,-0.64119c-0.02472,-0.00377 -0.04974,-0.00949 -0.0751,-0.01728c-1.43085,-0.43977 -2.04929,-2.28361 -3.39468,-2.93985c-2.21342,-1.07963 -4.25029,-1.75056 -6.36279,-3.06479l-0.88775,-1.20137c0,0 -0.38887,-0.77774 -0.07015,-1.51088c-0.1304,-0.06995 -0.26193,-0.1384 -0.39467,-0.20522c-4.37626,-2.20331 -10.16476,-2.31652 -14.96992,-2.31652c0,0 -0.0711,0 -0.18465,-0.01433c-0.34397,-0.02969 -0.80653,-0.14896 -1.14258,-0.53607c-0.21119,-0.22446 -0.37392,-0.54045 -0.41352,-0.98531l-0.71535,-0.74355c-1.42964,-2.1619 -1.7363,-4.91583 -3.21358,-6.94749c-1.18188,-1.62541 -3.05084,-2.60334 -4.0931,-4.39346c-1.03467,-1.77709 -1.57793,-3.90364 -2.70181,-5.67192c-0.71362,-1.1228 -1.93014,-1.85323 -2.70509,-2.93462c-1.1747,-1.63921 -2.13286,-3.52205 -3.30109,-5.21634c-0.24018,-0.23528 -0.37136,-0.52616 -0.44301,-0.77373c-0.04871,-0.13834 -0.08988,-0.2993 -0.10551,-0.47334c-0.17316,-0.40877 -0.34631,-0.81753 -0.51946,-1.2263c-1.40395,-2.1096 -3.6117,-3.51472 -4.95335,-5.66911c-1.16757,-1.87485 -1.79856,-4.14409 -2.8024,-6.09159c-1.05115,-2.03928 -3.22575,-2.73012 -4.09567,-4.96262c-0.25106,-0.6443 -0.05727,-1.39888 -0.27004,-2.05682c-0.57306,-1.77206 -2.2141,-3.12293 -3.10258,-4.67362c-1.46445,-2.55595 -2.58979,-4.18794 -4.56592,-6.4909c0,0 -0.66557,-0.77649 -0.3855,-1.65108c-0.24949,-0.3199 -0.49128,-0.64887 -0.72324,-0.98967c-0.72379,-1.06341 -0.85463,-2.44784 -1.52907,-3.54322c-0.72541,-1.17817 -2.31746,-1.51441 -3.51345,-2.21004c-2.12726,-3.5812 -5.52205,-6.10069 -7.93972,-9.47163c-0.6654,-0.92777 -1.25399,-1.90628 -1.80745,-2.90807c-0.18153,-0.15654 -0.35608,-0.31683 -0.52085,-0.48259z" fill="#f0bcd4"></path><path d="M188.13881,153.1778c-0.35292,-4.79598 1.52367,-9.75959 4.90596,-13.29798c2.52337,-2.63983 6.35042,-4.24165 10.08904,-5.52191c1.08791,-1.92823 2.37574,-3.80115 3.78972,-5.19688c2.56125,-2.52819 3.54345,-2.12439 6.22859,-3.7655c4.70056,-2.87291 9.27752,-6.1506 14.57742,-7.93223c9.3913,-3.157 19.6897,-2.78275 29.21713,-0.43414l2.74892,0.26054c6.29734,3.14867 12.47847,5.62444 18.00471,10.12559c3.11035,3.11896 7.62296,4.95353 10.50601,8.16942c2.66893,2.97705 2.03769,5.76621 3.76844,8.92833c1.60981,2.94117 3.58641,4.79067 4.02339,8.42672c1.06084,8.82707 -5.00964,15.45912 -10.33299,21.47777c-1.07269,2.12559 -2.16517,4.24714 -4.00574,5.81614c-0.07857,0.06698 -0.15736,0.13302 -0.23637,0.19813c0.59758,0.85129 0.59758,1.87451 0.59758,1.87451c0,0.88889 0,1.77778 0,2.66667v2.66667c0,1.65685 -1.34315,3 -3,3c-1.02082,0 -1.92256,-0.50986 -2.46444,-1.28882l-1.64343,-2.3008l0.4241,-0.30293c-0.6708,-0.72939 -1.24554,-1.52512 -1.65995,-2.41411c-0.22126,0.16002 -0.44354,0.31853 -0.66719,0.47502c-2.59746,1.62088 -5.2421,2.75661 -7.93244,4.15687c-1.10671,0.57601 -2.02943,1.55098 -3.2296,1.89185c-1.70634,0.48463 -5.23865,0.03943 -7.2536,-0.54092c-2.36395,3.57086 -4.13788,7.35916 -6.29232,11.12843c-0.97629,1.70804 -2.40691,3.14337 -3.28224,4.90528c-0.00205,0.00412 -2.43476,5.96692 -2.77435,6.52439c-3.04686,5.00167 -6.88696,9.71235 -10,14.66667c-1.71038,2.72202 -2.34337,5.9872 -4.08364,8.7956c-1.9066,2.53713 -3.19728,5.79844 -5.16351,8.21673c-4.68052,5.75664 -16.46609,7.06863 -22.60155,2.9424c-2.4817,-1.669 -3.81644,-3.77947 -4.85616,-6.48148c-0.38988,-1.01322 -0.64632,-2.08222 -0.802,-3.15665c-0.07447,-0.51397 0.42982,-1.13699 0.11951,-1.55342c-0.40165,-0.53903 -1.38275,-0.30701 -1.85918,-0.78124c-0.38717,-0.38538 -0.72769,-0.8106 -1.04591,-1.25488c-1.52607,-0.8339 -2.96717,-1.75227 -3.12725,-2.34678c-0.11386,-0.42287 -0.16118,-0.84935 -0.16026,-1.27845l-0.28808,0.03601l-0.04445,-0.35561l-0.59407,-0.17044c-1.52029,-0.52895 -3.18747,-0.7473 -4.56088,-1.58685c-1.60832,-0.98315 -2.80703,-2.51669 -4.21054,-3.77503c-0.73321,-1.48719 -1.78456,-2.85626 -2.19964,-4.46158c-0.09663,-0.37371 -0.08025,-5.88516 -0.08025,-7.02259c0,-2.1828 0.1126,-4.35859 0.34356,-6.51799c-1.71977,-0.45517 -3.38363,-1.37967 -4.32897,-2.23298c-4.56256,-4.11834 -4.53283,-9.33698 -2.81876,-14.64851c1.72802,-3.93048 4.66027,-5.89584 7.00822,-9.31387c2.15889,-3.14279 2.92412,-6.10561 5.60521,-9.00288c0.73725,-0.79669 1.54179,-1.57042 2.34104,-2.35885c-0.11159,-5.49262 1.1685,-11.13355 3.30123,-16.05346zM175.93352,191.17476c0.00937,-0.0396 0.01885,-0.07912 0.02844,-0.11855c-0.02959,0.05398 -0.05878,0.10837 -0.08754,0.1632c0.01927,-0.01523 0.03896,-0.03012 0.0591,-0.04465zM260.19356,185.08924c0.08902,-0.0327 0.17843,-0.06641 0.26821,-0.10111c-0.84767,0.02821 -1.70753,0.09344 -2.57419,0.17531c0.76247,0.19589 1.53439,0.20921 2.30598,-0.0742z" fill="#721c67"></path><path d="M284.09931,118.60333c1.12167,1.34327 -0.2216,2.46493 -0.2216,2.46493l-0.46414,0.22992c-2.20807,4.03051 -5.13937,7.76658 -7.59821,11.6828c0.58662,0.50594 1.111,1.017 1.52887,1.53211c0.62862,0.77491 1.55215,1.646 1.98401,2.56196l0.08786,-0.00226c0.05476,-0.00198 0.11009,-0.00143 0.16589,0.00178c0.9649,0.05545 1.70216,0.88263 1.6467,1.84753c-0.04517,0.78592 -0.60231,1.42082 -1.32885,1.59934l-1.996,0.54027l-0.01457,-0.05382c-0.08589,0.03778 -0.17315,0.07295 -0.26192,0.10524c-2.49025,0.90579 -5.72876,-1.43878 -7.73516,-2.52008l-0.10976,-0.1943l-0.05613,0.06245l-1.57539,-1.41596c-0.1033,-0.09125 -0.19559,-0.19442 -0.27482,-0.30718c-1.77889,-1.52874 -3.15592,-3.52533 -3.93102,-6.05653h0.00001c0,0 -0.5027,-1.67624 1.17354,-2.17894c0.07802,-0.0234 0.1535,-0.04208 0.22651,-0.05642c0.21844,-0.77221 0.94984,-1.31704 1.78424,-1.26909c0.24338,0.01399 0.47228,0.07707 0.67762,0.17908l1.58972,0.74437l-0.04073,0.08701l0.26504,0.0389c0.96103,0.85064 2.20179,1.73037 3.44477,2.63256c2.40017,-3.74842 5.14758,-7.34981 7.27792,-11.24187l1.29067,-1.2354c0,0 1.34326,-1.12167 2.46493,0.2216z" fill="#6390d6"></path><path d="M264.32881,84.18297c-0.2182,-0.34651 -0.43631,-0.69485 -0.65546,-1.04547c0,0 -0.6625,-1.06 0.3975,-1.7225c1.06,-0.6625 1.7225,0.3975 1.7225,0.3975c0.14742,0.23589 0.32995,0.49841 0.53555,0.7807c0.84823,0.17046 1.34866,1.0593 1.61864,2.15101c0.01885,0.02556 0.03768,0.05114 0.05648,0.07674c0.02175,-0.00871 0.04361,-0.0172 0.06557,-0.02549c1.06142,-0.40036 3.27441,-0.07046 4.41376,-0.07046c5.14622,0 12.67343,1.8661 16.40471,5.88745c0.36122,0.3893 0.70359,0.84251 1.03756,1.31722c0.59372,0.70912 1.15422,1.42084 1.68583,2.06131c0.21909,0.26395 0.58827,0.62147 1.02466,1.03318c0.68826,0.41963 1.384,0.82903 1.85687,1.46386c0.1974,0.26501 0.35499,0.55467 0.49416,0.85571c0.24584,0.27554 0.46875,0.54741 0.65334,0.80832c0.40902,0.39795 0.79026,0.85486 1.13642,1.38483c1.11915,1.71342 0.66406,3.84604 1.56367,5.60798c1.13364,2.22031 2.37783,4.26294 3.51081,6.52112c0,0 0.00843,0.01685 0.02114,0.04745c0.01442,0.02983 0.02142,0.04733 0.02142,0.04733l0.53758,1.35805c1.47746,7.25148 4.04198,14.64263 2.79246,22.25891c-0.32648,1.98998 -1.2448,2.83257 -1.61833,4.64658c-0.47928,1.19815 -1.32417,3.96065 -2.0648,5.11715c-3.47886,5.43226 -11.6185,4.33354 -17.05751,4.33354c-2.34568,0 -4.8628,0.29377 -7.19891,0.00465c-0.83141,0.00055 -1.6805,-0.00465 -2.55109,-0.00465h-1.25c-0.69036,0 -1.25,-0.55964 -1.25,-1.25c0,-0.39107 0.17958,-0.74019 0.46078,-0.9694c-1.04575,-1.30738 -1.77729,-3.25605 -2.34642,-4.50828c-0.10163,-0.22362 -0.20449,-0.43938 -0.30494,-0.65047c-0.00951,2.00374 -0.14045,3.98644 -0.59285,5.91534c-0.13349,0.56915 -0.35169,1.83042 -0.68597,2.89767l-0.03393,0.40717c-0.02952,0.40568 -0.25264,0.75764 -0.5774,0.9639c-0.0562,0.07716 -0.11435,0.1447 -0.17452,0.20103c-0.07446,0.06971 -0.15229,0.13455 -0.23299,0.19524l0.01911,0.02389l-1.24222,0.99378c-0.21512,0.17514 -0.48962,0.28013 -0.78864,0.28013c-0.69036,0 -1.25,-0.55964 -1.25,-1.25v-1.5c0,-4.02476 0.4472,-8.10766 0.91658,-12.15792c-1.17294,3.42299 -2.14715,6.97664 -2.92634,10.34269c-0.04414,0.40302 -0.23241,0.65356 -0.44944,0.80931c-0.2006,0.17648 -0.48713,0.3036 -0.88987,0.25592h-0.40093c-4.52803,0 -8.99969,0.4789 -13.48301,0.49992c-0.00564,0.00005 -0.0113,0.00008 -0.01699,0.00008c-0.43412,0 -0.71747,-0.15077 -0.90242,-0.34758c-0.19681,-0.18494 -0.34758,-0.4683 -0.34758,-0.90242v-1c0,-2.59024 0.15785,-5.11792 -0.68585,-7.60472c0,0 -0.00548,-0.01645 -0.01322,-0.04611c-0.0094,-0.02918 -0.0136,-0.046 -0.0136,-0.046l-0.23923,-0.95977c-0.67322,-2.36917 -1.54936,-4.7686 -2.26606,-7.19868c-0.02835,0.54001 -0.04622,1.08176 -0.05098,1.62577c-0.01132,1.29444 0.09424,4.90722 -0.63467,5.89936c-1.1292,1.53697 -3.623,0.1487 -4.73043,-0.81226c-0.32385,-0.17232 -0.47743,-0.46961 -0.55026,-0.71283c-0.06656,-0.18092 -0.11459,-0.41472 -0.0657,-0.6622c0.00028,-2.94444 0.0718,-5.8877 0.13827,-8.82708c-0.15322,-0.14586 -0.26947,-0.33022 -0.33323,-0.53755l-0.49089,-1.47266l0.45298,-0.15099c-1.09667,-3.14421 -0.29791,-6.32118 0.43881,-9.87444c0.01382,-0.2473 0.02849,-0.49427 0.04406,-0.74094v-1.12892c0,-0.19095 0.04281,-0.3719 0.11937,-0.53377c0.52017,-6.43792 1.72299,-12.68004 4.37451,-18.95672c0.05098,-0.26612 0.19982,-0.47172 0.34695,-0.61678c0.13085,-0.14931 0.3174,-0.30349 0.56482,-0.37434c0.56779,-0.88919 0.90849,-1.93018 1.57798,-2.74605c0.75732,-0.92291 3.2934,-3.05884 4.4884,-3.65537c0.81288,-0.40578 1.82876,-0.18603 2.62081,-0.68029c2.92048,-1.82244 7.73181,-3.72553 11.39355,-2.91413c0.71308,0.15801 1.26473,0.45309 1.76214,0.81418c0.00827,-0.53736 0.0329,-1.12408 0.09693,-1.62876z" fill="#111732"></path><path d="M251.22078,116.4132c-0.00528,-0.0003 -0.01055,-0.00062 -0.0158,-0.00096c-0.18225,0.26632 -0.49719,0.60641 -0.96938,0.73017c-0.30855,0.08308 -0.68339,0.07347 -1.12942,-0.11358c-0.44767,-0.1831 -0.71954,-0.44134 -0.87897,-0.71826c-0.25971,-0.44415 -0.22596,-0.93473 -0.15926,-1.25186c0.03663,-0.18014 0.0822,-0.29449 0.0822,-0.29449l0.00266,-0.00427c0.00949,-0.0256 0.01543,-0.03942 0.01543,-0.03942c0.09014,-0.20954 0.17807,-0.41626 0.26381,-0.62091c0.14254,-2.54039 0.44229,-7.79197 3.98993,-7.72398c0.03631,1.21421 -0.05851,2.46044 -0.24868,3.77641c-0.3421,2.36735 -1.10956,4.52586 -0.3225,6.19977c-0.00119,0.00286 -0.00238,0.00571 -0.00357,0.00857c-0.18084,0.04584 -0.38835,0.06647 -0.62644,0.05278z" fill="#6390d6"></path></g><g fill-opacity="0.37255" fill="#2e1340"><path d="M190.14273,283.92842l0.56902,1.33177c0.44337,0.69028 0.89601,1.4018 1.34189,2.16457c0.08322,0.06358 0.19401,0.15478 0.31476,0.27193l0.02116,0.00819c0,0 0.05434,0.05434 0.13577,0.15394c0.37204,0.40968 0.76599,1.03934 0.72841,1.84581c0.00374,0.51256 -0.16269,1.08295 -0.6525,1.6601c-0.40547,0.54429 -0.86412,0.83403 -1.31521,0.96858c-0.50306,0.64864 -1.28995,1.06612 -2.17434,1.06612c-0.36227,0 -0.70819,-0.07005 -1.02493,-0.19735l-2.60732,-0.97775l0.01809,-0.04824c-0.07383,-0.01151 -0.14758,-0.02396 -0.22124,-0.03738c-3.62892,-0.66131 -6.18032,-5.10256 -8.24729,-7.77094c-0.37187,-0.48006 -0.18111,1.21487 -0.42256,1.77204c-0.4479,1.03355 -0.92125,2.06487 -1.52658,3.01482c-2.58854,4.06219 -5.19221,7.92878 -8.10149,11.81146l-0.1298,0.13842c-0.33867,0.59337 -0.87164,0.91484 -1.34974,1.089c-0.43815,0.20417 -1.00533,0.34935 -1.626,0.20895c-2.10051,0.01602 -6.35562,0.05616 -7.15608,-0.93308c-1.15717,-1.43008 -0.60541,-3.73309 -0.15485,-5.51668c0.87734,-3.47303 5.61368,-6.46666 7.65222,-9.24456c2.52413,-3.43962 0.84296,-7.16968 2.34778,-10.75544c0.95421,-2.27374 2.90443,-3.99083 4.21051,-6.08237c2.43834,-3.90473 5.25104,-7.87624 7.06653,-12.09884c0.63652,-2.2746 2.03319,-4.35565 3.66155,-6.06661l0.15154,-0.61863c0,0 0.20105,-0.40209 0.60314,-0.79984c0.04248,-0.44239 0.09772,-0.88323 0.12714,-1.30632c0.02318,-0.33334 0.05714,-0.66835 0.10032,-1.00465c-0.03206,-0.09135 -0.06314,-0.18159 -0.09329,-0.27044c-0.50213,-1.4798 0.41225,-3.09954 0.70084,-4.63534c0.65729,-3.49795 0.5831,-6.40894 1.99667,-9.72594l0.19375,-1.54998c-0.11465,-0.63731 -0.10964,-1.31021 0.03959,-2.01199c-0.78554,-0.42549 -1.60117,-0.95671 -2.47355,-1.56122c0,0 -2.23777,-1.59841 -0.63936,-3.83617c1.59841,-2.23777 3.83617,-0.63936 3.83617,-0.63936c0.65574,0.48899 1.29158,1.32648 2.00557,1.69785c0.78288,-0.57398 1.66948,-0.97929 2.64076,-1.40123c0.34826,-0.49202 0.62748,-0.96401 0.75836,-1.18581c1.43779,-2.43673 2.78459,-4.94408 4.4789,-7.20995c1.77023,-2.36739 3.6938,-4.77859 5.13622,-7.37105c1.0593,-1.90387 1.55065,-4.0941 2.65187,-5.97403c1.23281,-2.10459 3.35777,-3.54022 5.10173,-5.24543c1.66477,-1.62777 2.5022,-4.07316 3.53692,-6.03686c1.30157,-2.47014 2.99023,-4.64396 4.37027,-7.06677l1.30685,-2.28698c0.2711,-0.49551 0.69032,-0.89842 1.19812,-1.14918c0.92537,-2.32099 1.98305,-4.58484 3.20024,-6.62916c0.21274,-0.35731 0.44773,-0.6981 0.69914,-1.02673c0.61968,-1.23173 1.24482,-2.47692 1.76247,-3.73832c-0.12257,-0.31426 -0.19581,-0.6898 -0.19581,-1.13858c0,-1.29568 0.61047,-1.98089 1.25615,-2.34326c0.03882,-0.21926 0.0716,-0.43906 0.09779,-0.65941c0.33791,-2.84338 0.18364,-5.63129 -0.24623,-8.38917c-2.50197,0.44473 -4.40578,0.91814 -6.55591,2.80268c-3.9397,3.45305 -8.42329,6.17433 -12.3011,9.63827c-3.35659,2.99835 -6.6042,6.28723 -9.80832,9.4518c-2.73135,1.65208 -4.1239,2.29164 -6.44773,4.47631c-1.88555,1.77264 -3.13883,4.13535 -4.96678,5.96733c-1.72122,1.72502 -3.77413,3.12726 -5.33333,5l-2.18404,1.83473c0,0 -0.02323,0.01936 -0.06685,0.05158c-0.30878,0.30198 -0.60636,0.61017 -0.74151,1.00838c-0.84182,2.48046 2.56046,2.76791 -0.24031,5.87439c-5.87092,6.51175 -9.51915,-0.54483 -8.38827,-5.67879c0.31187,-1.41583 2.2079,-4.16133 2.76392,-5.65561c2.17773,-5.85258 4.76046,-11.3001 8.28091,-16.55601c1.89397,-2.82764 5.16193,-4.81671 5.90221,-8.15923c-0.02382,-4.09195 -0.14973,-9.01256 0.73005,-13.0051c0.58426,-2.65144 2.09949,-5.48615 3.11406,-8.01694c1.24586,-3.10774 2.52046,-6.34946 5.06533,-8.70358c2.80045,-2.59053 7.24374,-3.24413 10.17662,-5.4767c2.83712,-2.15968 5.41899,-5.21334 8.19914,-7.55999c2.3312,-1.9677 5.05394,-2.93554 7.52964,-4.68559c3.69867,-1.24737 7.83442,-2.05431 11.83759,-1.8405c2.55023,-0.43394 5.24311,-0.45589 7.74363,-0.45894h0.66667c0,0 1.09738,0 1.9057,0.69322c0.50187,-0.39683 1.03882,-0.76116 1.36791,-1.29814c1.16729,-1.90466 0.84344,-6.26211 2.26671,-7.87492c0.14812,-0.16785 0.30383,-0.3271 0.46596,-0.47906l-0.09424,-0.08078l0.38141,-0.44498c-0.11965,-0.7809 -0.10604,-2.39324 1.83692,-3.04089c1.04075,-0.34692 1.80471,-0.14026 2.34709,0.23351c1.29119,0.22603 2.27253,1.35276 2.27253,2.7087v3c0,0.48637 -0.02733,0.97003 -0.07745,1.45127c0.02124,0.34436 0.03676,0.6929 0.04806,1.04873h0.02939v5.5c0,1.51878 -1.23122,2.75 -2.75,2.75c-1.0396,0 -1.94446,-0.57687 -2.41196,-1.42796c-0.63605,0.70937 -1.47771,1.26055 -2.06927,2.01386c-1.23337,1.57063 -2.23512,3.32447 -3.20343,5.10867c0.31485,-0.12554 0.65836,-0.19457 1.01798,-0.19457c1.51878,0 2.75,1.23122 2.75,2.75c0,0.11629 -0.00722,0.2309 -0.02123,0.3434l-0.32892,2.96029l-0.07417,-0.00824l0.04763,0.19098c-0.04865,0.19164 -0.09487,0.38188 -0.13877,0.57084c0.29038,0.3339 0.58845,0.64881 0.91499,0.8778c2.15385,1.51038 4.08103,3.34354 6.31291,4.73603c2.62672,1.63883 5.30918,2.26553 8.07623,2.4927c2.42255,-2.15877 4.75576,-5.0646 8.52874,-4.14734c0.75524,0.18361 2.95265,2.31238 4.33365,3.96089c1.32288,0.1333 2.54259,0.54625 3.32384,1.53219c0.19484,0.24589 0.3644,0.50053 0.50978,0.76173c0.40791,-0.11177 0.8183,-0.21381 1.23166,-0.30232c2.59591,-0.55581 6.41297,-1.63717 9.04827,-1.38141c1.72993,0.16789 4.27626,-0.36215 5.07904,1.17941c0.9642,1.85154 -0.22605,4.32529 -1.27143,6.13224c-0.60016,1.03737 -2.12994,1.10027 -3.21151,1.61654c-4.81195,2.29692 -8.98841,4.39874 -14.32973,4.89856c-6.59157,0.00381 -13.99871,0.99391 -20.51362,-0.02677c-2.7754,-0.43482 -5.21189,-1.57272 -7.48331,-3.02053c0.46982,1.22348 1.0313,2.35758 1.70508,3.25895c2.34818,3.14133 5.77855,6.03478 8.256,9.2348c0.52354,0.17951 1.05775,0.36853 1.60202,0.58295c0.80227,0.31605 1.44718,1.00808 2.28471,1.21322c1.95401,0.4786 4.02308,-0.07448 6.03485,-0.07357c3.66745,0.00167 7.25412,-0.73122 10.83905,-1.5719l-0.06889,-0.13777l3.95052,-1.97526c0.38215,-0.2012 0.81744,-0.31507 1.27932,-0.31507c1.51878,0 2.75,1.23122 2.75,2.75c0,0.46188 -0.11387,0.89717 -0.31507,1.27932l-1.30859,2.61718l-0.188,-0.094l-0.0955,0.54547c-1.18943,1.02961 -2.21304,2.29002 -3.5683,3.08884c-3.79443,2.23651 -8.31114,1.8588 -12.44541,1.64121c-4.17496,-0.21973 -9.17195,0.08578 -13.1541,-1.51303c-4.26389,-1.71193 -7.02058,-5.13491 -10.16014,-8.19597c0.04154,0.1957 0.0879,0.38877 0.13952,0.57888c0.56633,2.08576 1.81602,3.35377 3.09078,5.06427l1.16305,3.02224c0,0 0.00629,0.01678 0.01651,0.04815c0.01179,0.03081 0.01746,0.04781 0.01746,0.04781c1.41505,4.32776 4.19096,8.02237 8.07938,10.47658c0.29904,0.18874 0.88185,0.28161 1.52772,0.32321c0.41097,-0.03348 0.8032,-0.03236 1.16437,0.02926c0.74259,-0.0039 1.39559,-0.04101 1.61965,-0.04275h2.57811c1.94633,-1.24907 3.99492,-1.96859 5.96869,-3.25134c3.6292,-2.35862 7.86942,-7.1292 12.35079,-1.93995c1.03985,1.20411 0.5472,3.15429 0.51567,4.74494c-0.05973,3.01325 -0.67679,9.21892 -6.6716,7.30822c-1.43495,-0.45735 -1.53063,-4.52265 -1.50992,-6.96991c-0.58047,0.52657 -1.11951,1.10636 -1.77852,1.52604c-1.04617,0.66623 -2.08217,1.13338 -3.10166,1.6145c0.70849,0.40041 1.88289,1.37711 1.25733,3.25378c-0.45307,1.3592 -1.37822,1.77423 -2.16058,1.85996c-0.03738,0.14195 -0.08172,0.28275 -0.13384,0.42226c-0.58303,1.5607 -2.57999,2.11098 -3.81376,3.23058c-2.77367,2.517 -3.08086,3.81664 -6.96597,5.09125c-0.64563,0.21182 -1.39656,0.57228 -2.141,0.85448c0.19945,0.37266 0.27416,0.67152 0.27416,0.67152l0.62442,2.51604c0.18156,0.48209 2.13718,5.65723 2.12198,5.70332c-0.10324,0.31299 -0.23101,0.61349 -0.37826,0.90407l0.23952,0.07984l-0.97995,2.93984c-0.34559,1.12372 -1.39187,1.94053 -2.62893,1.94053c-1.51878,0 -2.75,-1.23122 -2.75,-2.75v-2.2352c-0.65169,-0.68973 -1.49455,-1.26582 -1.82918,-2.14403c-0.39455,-1.03547 -0.16932,-2.2127 -0.1544,-3.3207c0.00577,-0.42808 0.56999,-1.02495 0.2162,-1.26602c-0.80688,-0.5498 -2.3942,0.30092 -2.87756,-0.54742c-2.85779,-5.01563 0.8481,-7.87432 4.40469,-9.98403c0.10712,-0.95046 0.7269,-1.79932 1.16219,-2.65965c0.27245,-0.53849 0.49836,-1.1243 0.75368,-1.68785c-1.68202,-0.2365 -3.19487,-0.6204 -3.97851,-1.11339c-2.97904,-1.87409 -5.24113,-5.93363 -7.62058,-8.49484c-0.97751,-1.05218 -1.89308,-2.12843 -2.73974,-3.23275c-0.54848,-0.15436 -1.02749,-0.47457 -1.37949,-0.90308l-1.27243,-1.52692c-2.29659,-0.65018 -4.03955,0.07524 -5.64963,1.27436c-3.80378,7.27553 -7.35019,14.7362 -9.45524,22.66111l-0.42775,0.32486l0.16887,0.12062l-1.64536,2.30351c-0.49673,0.71405 -1.32332,1.18142 -2.25907,1.18142c-0.11836,0 -0.23497,-0.00748 -0.34939,-0.02199c-1.0017,3.40955 -1.93204,6.84191 -3.04945,10.16446c-1.91785,5.70258 -4.99553,10.96952 -7.00491,16.68086c-1.72266,4.89638 -2.38171,10.21881 -3.62026,15.25317c-1.967,0.8729 -3.82052,3.16884 -5.901,2.61871c-1.45404,-0.38448 -0.04702,-3.18715 -0.90922,-4.41949c-0.49926,-0.7136 -2.04071,0.16589 -2.55732,-0.53525c-0.41342,-0.56108 -0.69343,-1.34765 -0.87825,-2.25065c-0.12211,-0.16234 -0.2389,-0.33156 -0.3506,-0.50705c-0.53632,1.92621 -1.14575,3.83223 -1.7499,5.73836c-0.30032,0.94753 -0.18704,2.06465 -0.74465,2.8875c-0.4745,0.7002 -0.94191,1.63207 -1.48169,2.42749c1.52274,-0.37364 3.03675,-0.85462 4.59664,-0.86945h0.44957c0.50088,-0.11988 1.09373,-0.08935 1.75138,0.26369c0.4824,0.20358 0.99385,0.56432 1.29166,1.20357c0.34708,0.6139 0.34336,1.23976 0.22862,1.75063c-0.09467,0.73802 -0.4127,1.23736 -0.79973,1.57522c-4.84427,6.97766 -5.74172,16.07898 -8.95797,23.79643c0.54116,1.8473 1.36475,3.35638 2.29538,4.85537c0.14627,0.08358 0.29254,0.16716 0.43881,0.25075zM255.17769,150.2619c0.1251,0.01762 0.25051,0.03452 0.37619,0.05072c-0.52894,-0.50119 -0.85886,-1.21033 -0.85886,-1.99653c0,-0.75939 0.3078,-1.44689 0.80546,-1.94454l0.40748,-0.40748c-1.75579,-0.50492 -3.49278,-1.2374 -5.22518,-2.29849c0.52117,0.50044 0.84557,1.20426 0.84557,1.98385c0,1.11525 -0.66388,2.07544 -1.618,2.50695c1.61624,1.02777 3.35221,1.83582 5.26734,2.10553zM247.45469,140.84416c-0.58341,-0.43744 -1.24501,-0.77297 -1.89262,-1.12395c-0.02341,0.67631 -0.03376,1.3574 -0.03765,2.05078l4.00318,1.23175c0.16902,0.04775 0.33142,0.11126 0.48553,0.18883c-0.8954,-0.72267 -1.63456,-1.65466 -2.55844,-2.3474zM236.40979,136.45551c0.3215,0.99578 0.58869,2.03852 0.84875,3.08569c0.35824,-1.55892 1.02995,-3.02506 2.07169,-4.25644c0.03053,-0.82896 0.08971,-1.65789 0.19524,-2.39673c-0.18209,0.2585 -0.36906,0.51335 -0.56167,0.76396c-0.63469,0.82583 -1.66806,1.77738 -2.554,2.80352zM280.43406,148.72832c-0.78521,0.19223 -1.54712,0.53269 -2.32275,0.76139c-0.02577,0.04216 -0.05204,0.08403 -0.07879,0.12561c0.8204,-0.2411 1.62443,-0.54121 2.40154,-0.887z"></path><path d="M283.98533,298.21259c-1.49848,-3.10468 -3.97372,-4.25527 -5.85245,-7.07436c-1.60305,-2.40541 -1.77317,-5.93138 -3.33333,-8.33333c-0.44915,-0.69148 -1.25292,-1.08238 -1.78618,-1.71128c-2.65391,-3.12991 -4.88609,-7.19066 -6.94686,-10.73057c-1.61297,-2.77069 -1.84067,-5.45496 -3.92299,-7.87509l-1.49152,-2.94204c0,0 -0.56747,-1.13493 -0.16053,-2.2484c-0.41396,-0.80549 -0.80176,-1.6271 -1.22116,-2.42844c-4.23117,-1.9033 -7.07992,-5.383 -10.41841,-8.57122c-3.73236,-3.56436 -7.97509,-5.27567 -11.11627,-9.20889c-4.82094,0.4662 -5.2871,-3.83377 -5.02001,-7.10889c0.45766,-5.61176 4.42166,-9.69336 5.72817,-14.99764l-0.08211,-0.66636c0,0 0,-2.6458 2.59519,-2.74702c0.30168,-0.03761 0.6426,-0.02655 1.02746,0.05042c2.6966,0.53932 2.15728,3.23592 2.15728,3.23592c-0.47497,2.37461 -1.09849,4.84454 -1.51899,7.31081c0.47325,0.24497 0.76694,0.53866 0.76694,0.53866c4.22227,4.24112 9.82878,7.15624 13.55635,11.91883c2.49578,3.18877 4.64227,6.92402 6.82633,10.22729c1.60747,2.43121 4.07345,4.14329 5.99982,6.23767c2.28384,2.48303 5.10142,6.00323 6.99444,8.75325c0.42897,0.62318 0.35091,1.5316 0.84068,2.10823c1.30705,1.53887 3.13355,2.58299 4.43001,4.13079c2.75406,4.78431 5.76966,8.37457 9.6857,12.29061l0.86256,1.4948c0.92893,0.78519 1.94708,1.48628 2.7024,2.4351c1.67935,2.10958 2.0112,5.54094 3.86415,7.50417c1.42916,1.51422 3.40291,2.47442 4.73309,4.07628c2.29974,2.76944 3.77758,6.2643 6.24298,8.89758c0.3291,0.35151 4.76077,4.05668 5.02097,4.35621c2.64482,3.04456 3.29708,6.46732 5.30735,9.74344c2.04102,3.32624 4.90458,5.32626 6.23091,9.17824c0.50607,0.38204 1.01214,0.76407 1.51822,1.14611l1.27716,1.26372c0.24411,0.21316 0.43131,0.44805 0.56505,0.64577c0.12996,0.1918 0.27374,0.44335 0.38015,0.7376l0.85415,1.99303c0.15818,0.34709 0.2463,0.73283 0.2463,1.13916c0,1.51878 -1.23122,2.75 -2.75,2.75c-0.60766,0 -1.16929,-0.19709 -1.62444,-0.53083l-2.30729,-1.64807l0.06136,-0.0859c-0.13741,-0.06537 -0.27331,-0.13433 -0.4075,-0.20732c-0.81521,-0.44347 -0.93788,-1.63003 -1.60581,-2.27433c-1.28218,-1.23681 -5.05404,-2.94324 -6.74813,-3.32712c-0.94965,-0.21518 -1.96421,0.19759 -2.92111,0.0174c-0.8807,-0.16583 -1.61195,-0.81769 -2.48146,-1.0347c-2.43981,-0.60892 -6.26549,-0.69766 -8.50716,-1.85544c-1.10288,-0.56961 -1.82422,-1.68388 -2.73633,-2.52582l-0.20162,-0.57021c-0.2589,-0.33838 -0.38148,-0.62439 -0.38148,-0.62439c-0.14497,-0.3387 -1.69261,-4.0272 -1.96145,-4.37588c-1.15914,-1.50342 -3.17583,-2.18615 -4.34514,-3.68168c-1.11605,-1.4274 -1.81802,-3.80514 -2.62744,-5.46655c-0.74521,-1.5296 -2.18255,-2.61698 -3.14884,-4.01743c-1.00447,-1.45578 -1.59032,-3.17714 -2.62725,-4.60999l-0.15432,-0.58197c-0.04506,-0.07487 -0.06759,-0.11993 -0.06759,-0.11993zM242.13301,230.42944l-0.00236,0.0059c0.01114,0.00223 0.02228,0.00448 0.03342,0.00674c0.07076,0.01435 0.14115,0.0294 0.21116,0.04515c-0.09498,-0.11544 -0.1902,-0.23075 -0.2857,-0.34591c-0.0136,0.08222 -0.02902,0.16611 -0.04647,0.25214z"></path><path d="M301.47394,258.10507c-0.00029,0.11261 -0.0022,0.22508 -0.00563,0.33743l0.05195,-0.004l0.24518,3.18732c0.09625,0.396 0.09625,0.69026 0.09625,0.69026l-0.01606,0.35227l0.00565,0.07341c0.00689,0.07941 0.01041,0.15978 0.01041,0.24098c0,0.18938 -0.01914,0.37429 -0.0556,0.5529l-0.10865,2.38327c-0.25934,0.19009 -0.51867,0.38019 -0.77801,0.57028l0.30487,0.25406l-1.65322,1.98387c-0.50435,0.61399 -1.26947,1.00563 -2.12605,1.00563c-1.42744,0 -2.60086,-1.08757 -2.73684,-2.47929l-0.32967,-2.96702l0.00012,-0.00001c-0.16078,-1.47347 -0.68037,-2.66513 -1.40143,-3.70923c-0.58577,-0.6636 -1.15909,-1.33325 -1.73558,-2.00138c-1.41121,-1.37985 -3.03795,-2.63252 -4.3209,-4.23523c-1.65925,-1.22015 -3.43782,-2.31273 -4.83758,-3.83442c-1.33481,-1.45108 -2.13281,-3.31698 -3.23029,-4.95493c-0.11719,-0.1749 -0.24932,-0.34115 -0.3889,-0.50293c-1.37072,-0.15601 -2.43559,-1.31976 -2.43559,-2.73222v-2.66667h0.06301l-0.0577,-0.17088c0.0896,-0.57417 0.1531,-1.10112 0.21421,-1.59051c0.18215,-3.82221 1.71111,-7.8401 5.27622,-8.4965c0.19589,-0.03607 0.39196,-0.05898 0.58818,-0.07067l-0.00836,-0.06687l0.18305,-0.02288c-0.25235,-0.93265 -0.46072,-1.92006 -0.58259,-3.02153c-0.06977,-0.63067 -0.13415,-1.26891 -0.19641,-1.91257c-1.58593,-5.75818 -2.61618,-11.53993 -4.06418,-17.31395c0,0 -0.0027,-0.01079 -0.00707,-0.03118c-0.15242,-0.54987 -0.20439,-1.28257 0.21701,-1.985c0.23192,-0.46394 0.64,-0.90131 1.34085,-1.17605c0.38757,-0.19172 0.74987,-0.27588 1.08267,-0.28616c0.12944,-0.83142 0.6266,-2.07818 2.42746,-2.25827c2.73635,-0.27364 3.00999,2.46272 3.00999,2.46272c0.09055,0.92425 0.19774,1.85576 0.3264,2.78825c0.29888,0.33872 0.51562,0.75162 0.61909,1.20755l0.61304,2.45218c1.34274,3.16479 3.45915,6.74636 5.33993,9.65378c1.69622,2.62212 3.86425,4.91732 4.67568,8.08181c0.406,1.58335 1.11109,7.62654 1.31821,9.28238c1.2337,2.39944 3.72517,6.84383 4.01759,9.39297c0.51298,4.47191 -0.05726,6.90899 -3.36183,5.92526c1.29649,1.65205 2.41668,3.43828 2.41111,5.61178z"></path><path d="M313.91959,281.69462c2.28814,-1.52543 3.81356,0.76271 3.81356,0.76271l1.4033,2.11056c0.41606,0.69775 0.92768,1.50757 1.44452,2.38132c0.78534,0.13983 2.28071,0.67234 2.28071,2.70021c0,0.54672 -0.10869,0.98475 -0.28286,1.33569c0.38163,1.06351 0.60903,2.12023 0.55857,3.10433c-0.00192,0.03744 -0.00398,0.07487 -0.00617,0.11228l0.02637,-0.0044l0.65815,3.9489c0.03017,0.16314 0.04593,0.33133 0.04593,0.5032c0,1.51878 -1.23122,2.75 -2.75,2.75c-1.15647,0 -2.14622,-0.71386 -2.55261,-1.72497l-0.97503,-2.27508l0.00486,-0.00208c-0.18389,-0.47705 -0.25356,-1.04245 -0.64089,-1.36213c-0.61067,-0.50401 -1.72024,-0.26206 -2.20227,-0.89023c-3.72789,-4.85819 -4.22873,-6.03384 -0.17909,-7.50616c-0.04755,-0.07795 -0.09633,-0.15827 -0.1464,-0.24114l-1.26337,-1.88944c0,0 -1.52543,-2.28814 0.76271,-3.81356z"></path><path d="M295.30784,153.90676c-0.25513,-0.39108 -0.24551,-0.87203 -0.17022,-1.37529c-0.18255,-1.32664 -0.41801,-2.6465 -0.71045,-3.95216c0,0 -0.59656,-2.68451 2.08796,-3.28107c2.68451,-0.59656 3.28107,2.08796 3.28107,2.08796c0.00084,0.00382 0.00169,0.00765 0.00253,0.01147c1.06296,0.79253 1.06296,2.25175 1.06296,2.25175v1.33333c0,0.61722 -0.05508,1.22964 -0.15342,1.83703c0.04672,0.38736 0.08998,0.77507 0.13002,1.16297h0.0234v3.33333c0,1.51878 -1.23122,2.75 -2.75,2.75c-1.51878,0 -2.75,-1.23122 -2.75,-2.75v-2.8972c-0.01711,-0.17077 -0.03505,-0.34148 -0.05385,-0.51212z"></path></g><g fill-opacity="0.37255" fill="#2e1340"><path d="M209.31391,137.70589c-0.07908,0.0721 -0.15799,0.14437 -0.23671,0.21679c0.07525,-0.02556 0.14931,-0.05336 0.22194,-0.08384zM209.9206,129.07254c2.40605,-1.71698 4.35967,-4.04335 6.95824,-5.51773c1.85165,-1.05059 3.87213,-1.77283 5.77685,-2.72383c1.66408,-0.83085 7.4482,-3.86745 8.9401,-3.61361c0.38834,0.06607 0.79079,0.15583 1.19325,0.27117l0.13309,-0.13309c0.49765,-0.49765 1.18515,-0.80546 1.94454,-0.80546c1.51878,0 2.75,1.23122 2.75,2.75v3h-0.3324c0.12499,1.41309 -0.13129,2.65866 -1.0281,4.16708l0.55504,0.55504c0.49765,0.49765 0.80546,1.18515 0.80546,1.94454c0,0.20117 -0.0216,0.39729 -0.06261,0.58618c0.10433,-0.00141 0.20853,-0.00236 0.31261,-0.00284h0.44285c1.74023,-0.96356 3.80825,-2.02623 5.57616,-1.31118c1.57791,0.6382 1.89052,6.52566 2.04914,8.10585c0.032,0.31877 0.06465,0.61895 0.0966,0.90385c0.43504,0.38864 0.7457,0.91362 0.86486,1.5078l1.18137,5.31615l-0.03867,0.00859c0.03286,0.11768 0.06431,0.23584 0.09423,0.3545c0.04426,0.17551 0.07686,0.3524 0.09973,0.53039c0.94102,0.55729 1.56811,0.27115 2.96708,0.25071c1.39395,-0.02037 2.77588,-0.05084 4.15259,-0.09507c-0.39855,-1.01786 -0.35934,-2.31654 0.349,-3.9707c2.3185,-5.41435 12.08399,-2.76016 14.00823,1.99279l3.24919,-0.24994c0.07941,-0.00689 0.15978,-0.01041 0.24098,-0.01041c1.51878,0 2.75,1.23122 2.75,2.75c0,0.55162 -0.16241,1.0653 -0.44203,1.49584c1.64514,0.09154 3.23071,0.31024 4.63233,0.7678l3.30308,0.33031c1.40478,0.12319 2.50662,1.30261 2.50662,2.73938c0,1.15647 -0.71386,2.14622 -1.72497,2.55261l-2.27508,0.97503l-0.06933,-0.16176l-0.3129,0.29325c-5.48828,0.62527 -10.11361,3.69367 -15.70106,3.75753c-6.23336,-0.17028 -12.03226,-5.99642 -18.38454,-5.83652c-0.1216,0.76484 -0.25965,1.52298 -0.41536,2.2756c0.20636,0.67615 0.43836,1.32781 0.58657,1.66044c0.42694,0.39027 0.85812,0.75869 1.30726,1.03447c0.24463,0.38521 0.47547,0.77884 0.69885,1.177c1.07064,1.01509 2.19894,1.97816 3.20804,3.05243c0.96784,1.03035 1.95301,2.0514 2.81546,3.17146c0.39111,0.50793 0.39857,1.32021 0.92491,1.68617c0.39151,0.27221 0.95286,-0.04468 1.42969,-0.04906c0.73658,-0.00676 7.05993,-0.00531 8.16246,-0.00531c0.26753,0 7.57061,-0.00543 7.64451,0.01766c0.09949,0.03108 0.19847,0.06342 0.29699,0.09694l0.01019,-0.04417l4.27947,0.98757c1.248,0.26037 2.1855,1.36671 2.1855,2.69201c0,1.04123 -0.57868,1.9473 -1.43197,2.41415l-2.28698,1.30685l-0.06989,-0.12231l-0.26919,0.28636c-2.106,0.51426 -3.82348,2.10798 -5.89506,2.74695c-7.79135,2.4032 -18.86102,-4.73485 -23.0801,-10.76585c-0.62927,-0.89952 -1.12397,-1.88199 -1.61841,-2.86532c-0.09396,0.03532 -0.18856,0.06616 -0.28374,0.09277c0.00004,0.52825 0.03642,1.0501 0.18152,1.55289c0.75505,2.61635 1.71638,5.16875 2.58873,7.74836c0.42221,1.24851 1.64176,2.35596 1.48475,3.66454c-0.25711,2.14274 -0.62204,5.13388 -2.63412,5.91426c-1.79533,0.69632 -3.50561,-1.7025 -4.95431,-2.9711c-2.35957,-2.06622 -2.21111,-5.69661 -3.34389,-8.25656c-0.20827,-0.47065 -0.64677,-1.07865 -1.13713,-1.73409c-0.33071,-0.15392 -0.67678,-0.36123 -1.03893,-0.62866c-0.57649,-0.42569 -0.93509,-0.99937 -1.16032,-1.66101c-0.6495,0.70419 -1.44376,1.50113 -2.03146,2.08115c-1.74557,4.85633 -4.51017,9.55922 -6.69374,13.52278c-1.56438,2.83961 -2.56045,5.53376 -4.42421,8.06996c-0.01296,0.04094 -0.02646,0.08085 -0.04034,0.11963c-0.11711,0.39958 -0.33305,0.86893 -0.73118,1.24126c-3.70365,5.09788 -7.54261,10.60952 -9.76577,16.49668l-0.04596,0.03565c-0.05051,0.48297 -0.22603,0.92875 -0.49362,1.30439l-2.845,4.10945c-0.64369,1.84529 -1.34096,3.6203 -2.07333,5.02732c-0.57663,1.10781 -1.63994,1.92838 -2.1502,3.06828c-1.9838,4.43168 -2.68796,9.76665 -4.23059,14.40414l0.14112,0.13037c0,0 0,2.75 -2.75,2.75c-2.75,0 -2.75,-2.75 -2.75,-2.75l0.14112,-1.86963c0.10829,-0.32415 0.21271,-0.65113 0.3139,-0.98048c-0.4264,0.09782 -0.85511,0.18943 -1.28096,0.26979c-0.05233,0.65272 -0.29772,1.14349 -0.29772,1.14349c-0.25164,0.50161 -0.48738,1.00621 -0.71072,1.51337c-0.0158,0.57825 -0.2101,1.11192 -0.52979,1.54791l-0.25133,0.35187c-0.41189,1.06718 -0.78889,2.14309 -1.16251,3.22383c-0.11051,1.83806 -0.29451,4.3181 -0.52388,4.6516c-0.10676,0.15522 -0.22011,0.30449 -0.33917,0.44861l0.11206,0.06404l-1.30685,2.28698c-0.0818,0.14951 -0.17708,0.29059 -0.28422,0.4216c-0.01152,0.08374 -0.02613,0.16717 -0.04436,0.25023c0.07575,-0.0456 0.15772,-0.06792 0.25043,-0.05259c4.67255,0.77268 5.93488,1.78453 4.94948,6.90197c-0.26478,1.37504 -2.82749,3.71593 -3.51866,5.10831c-0.6114,1.23168 -0.69452,2.71228 -1.44727,3.86302c-0.18681,0.28558 -3.92743,3.83184 -4.68472,5.02798c-1.40614,2.22098 -2.67939,4.69933 -3.61513,7.16272c2.51409,1.64988 4.80921,3.36933 6.96786,5.35591c1.13326,0.85213 2.12935,1.77083 2.78554,2.80344c0.09289,0.10223 0.18558,0.20519 0.27807,0.30889l2.05828,1.76424c0.59572,0.50444 0.9739,1.25785 0.9739,2.09959c0,1.51878 -1.23122,2.75 -2.75,2.75c-0.67623,0 -1.29545,-0.24408 -1.77437,-0.64895l-1.98613,-1.65511l0.02298,-0.02757l-0.11807,-0.1012l-0.06538,-0.016c-0.04654,-0.05349 -0.09311,-0.10676 -0.13974,-0.15981l-0.06229,-0.05339l0.00753,-0.00879c-0.01807,-0.02048 -0.03615,-0.04093 -0.05424,-0.06134c-0.01064,0.00013 -0.02134,0.0001 -0.0321,-0.00009c-0.87413,-0.01612 -1.15576,-1.3259 -1.84353,-1.86564c-2.40385,-1.88647 -5.3643,-3.15271 -7.47575,-5.45476c-0.04975,-0.05424 -0.09199,-0.11424 -0.12906,-0.17815c-2.19279,4.68993 -5.35417,9.69708 -8.59651,13.60534c-0.62989,0.75926 -1.5791,1.55218 -2.63026,2.31518l-1.81127,2.7169c-0.48965,0.75818 -1.34211,1.26006 -2.3118,1.26006c-1.51878,0 -2.75,-1.23122 -2.75,-2.75c0,-0.20799 0.02309,-0.41059 0.06685,-0.60537c-1.35361,-0.17185 -2.40018,-1.32768 -2.40018,-2.72796c0,-0.36227 0.07005,-0.70819 0.19735,-1.02493l0.97775,-2.60732l0.05462,0.02048c0.01663,-0.09102 0.03477,-0.18186 0.05454,-0.27251c0.25105,-1.15151 1.20069,-2.03027 1.86437,-3.0042c1.77128,-2.59931 3.69502,-6.1685 5.96222,-8.36335c-0.11084,-0.42488 -0.11084,-0.74817 -0.11084,-0.74817l0.22235,-1.74994c3.84506,-8.89915 7.93034,-18.07028 13.85309,-25.79468l-0.23368,-0.08763l0.97746,-2.60655c0.35567,-1.02038 1.29562,-1.76691 2.41908,-1.83883l0.00885,-0.07081c-0.03872,-2.95588 0.71065,-5.62329 1.49491,-8.4911c0.3636,-1.32957 -0.32279,-3.30567 0.83772,-4.04943c0.41329,-0.26488 0.85685,-0.44804 1.32124,-0.57496l-0.11661,-0.31096l1.32151,-0.49557c0.1271,-0.29116 0.25762,-0.58161 0.39203,-0.87132c-1.29687,-0.86829 -1.83704,-2.6892 -0.95528,-6.11059c0.28764,-1.11609 5.13823,-5.15264 5.98742,-5.94844c2.64834,-2.48184 4.72062,-5.32295 6.90575,-8.07618c0.02713,-0.09128 0.05724,-0.18143 0.09118,-0.27011c1.48705,-3.88537 3.85852,-7.30162 5.79452,-10.94326c0.95937,-1.80459 1.35977,-3.87313 2.33475,-5.66933c1.09237,-2.01246 3.18663,-3.32078 4.46457,-5.22082c1.21512,-1.80665 1.81403,-3.96396 2.55639,-6.01076c1.84708,-5.09266 3.60198,-9.30967 6.49243,-13.93556c0.96161,-1.53897 1.5298,-3.41035 2.88545,-4.61659l2.61406,-4.5746c0.46685,-0.85329 1.37292,-1.43197 2.41415,-1.43197c0.02466,0 0.04924,0.00032 0.07375,0.00097c-0.19384,-2.00677 -1.10394,-3.78306 -1.7017,-5.77415c-0.23877,-0.79533 -0.1881,-1.72911 -0.19798,-2.62152c-0.50634,-0.83845 -0.94357,-1.72883 -1.29516,-2.68406c-0.23351,0.07961 -0.48904,0.2282 -0.71645,0.24011c-0.35594,0.01864 -0.71397,0.06266 -1.07286,0.11845l-1.74432,0.87216c-2.60765,1.74802 -5.05811,3.82204 -7.94421,5.07778c-0.10718,0.12213 -0.225,0.23469 -0.35202,0.33622l-3.44808,2.80157c-1.3847,1.39432 -3.39996,3.41633 -3.61158,3.57793c-3.63027,2.77242 -8.44184,3.99546 -11.82396,7.18873c-1.84465,1.74165 -3.40354,4.0792 -5.2025,5.87515c-2.39792,2.39391 -5.21641,4.32577 -7.82778,6.48483c-0.17681,0.14618 -0.34392,0.3039 -0.5027,0.47137c-1.92675,3.4465 -3.41991,7.0516 -6.24349,9.94669l-1.59623,1.91547c-0.50435,0.61399 -1.26947,1.00563 -2.12605,1.00563c-1.51878,0 -2.75,-1.23122 -2.75,-2.75c0,-0.57786 0.17823,-1.11408 0.48272,-1.55671l2.64581,-3.96872l0.19612,0.13075c0.85141,-2.28303 1.94205,-4.45812 3.56323,-6.59469c0.54495,-0.7182 1.09261,-1.31052 1.65277,-1.83413c0.39157,-0.69723 0.8048,-1.38019 1.25593,-2.03733c1.34941,-1.96564 2.82183,-3.84335 4.25435,-5.74986l0.29922,-2.693l0.11996,0.01333c0.00543,-0.24071 0.0234,-0.48144 0.05643,-0.72221c0.20992,-1.53002 1.79707,-2.52771 2.68437,-3.81305c0.0731,-0.7021 0.17085,-1.41487 0.12774,-2.01193c-0.2464,-3.4127 -0.02158,-5.41967 0.81253,-7.3955l-0.4024,-0.1006l0.98605,-3.94419c0.05574,-0.24561 0.14435,-0.47873 0.26096,-0.69449c0.49406,-3.94584 1.35693,-8.89403 3.62788,-11.59085l1.30669,-2.61338c0.44095,-0.93018 1.38851,-1.57345 2.48632,-1.57345c1.51878,0 2.75,1.23122 2.75,2.75v1.80078c2.70461,-4.38615 6.56878,-6.55373 10.9706,-9.69491zM188.42743,255.28426c-0.17355,0.06495 -0.35542,0.11933 -0.54285,0.16298c-0.03064,0.19919 -0.0678,0.40473 -0.11038,0.61503c0.20665,-0.2692 0.42057,-0.5324 0.65323,-0.77801zM201.73172,145.62443c0.00777,-0.00649 0.01556,-0.01297 0.02338,-0.01943c-0.02452,-0.00722 -0.04889,-0.01477 -0.07312,-0.02265c0.01633,0.01437 0.0329,0.0284 0.04974,0.04209zM232.60573,148.76818c-0.02138,-0.3195 -0.04985,-0.63666 -0.08678,-0.95061c-0.15465,-0.16452 -0.30517,-0.32804 -0.45179,-0.49097c0.23971,0.46596 0.40942,0.948 0.53858,1.44158zM259.34032,150.6577c0.08182,0.03398 0.16362,0.06786 0.24539,0.10163c0.37185,0.15355 0.71653,0.31306 1.04306,0.4726c-0.13462,-0.18813 -0.24611,-0.39393 -0.33032,-0.61327c-0.32903,0.01606 -0.64955,0.02847 -0.95813,0.03904zM265.86667,152.88333c0.75336,0.01202 1.49204,-0.04901 2.22045,-0.16313c-0.55955,-0.00433 -1.11904,-0.00622 -1.67839,-0.00636l-0.12096,-0.04589l-0.0034,0.03742l-3.21916,-0.29265c0.8198,0.32348 1.68872,0.52289 2.80146,0.47061zM197.15093,148.74303c-0.00373,0.00309 -0.00746,0.00619 -0.01119,0.00928c0.00837,0.00281 0.01674,0.00564 0.02509,0.00851c-0.00464,-0.00592 -0.00928,-0.01185 -0.0139,-0.01779z"></path><path d="M246.94608,118.89133c-2.59134,-0.92059 -1.67075,-3.51192 -1.67075,-3.51192l0.92087,-2.50527c0.85779,-1.62028 1.71559,-3.24056 2.57338,-4.86083c0,0 1.28669,-2.43042 3.71711,-1.14373c2.43042,1.28669 1.14373,3.71711 1.14373,3.71711c-0.85779,1.62028 -1.71559,3.24056 -2.57338,4.86083l-0.59903,1.77306c0,0 -0.92059,2.59134 -3.51192,1.67075z"></path><path d="M324.25392,325.47136c1.35179,1.5305 3.31762,2.81413 4.97511,3.997l0.05969,0.11702l0.03429,-0.04l2.31976,1.98837c0.59572,0.50444 0.9739,1.25785 0.9739,2.09959c0,1.51878 -1.23122,2.75 -2.75,2.75c-0.48145,0 -0.934,-0.12372 -1.32759,-0.3411l-4.82026,-2.53698l0.00566,-0.01075c-0.02146,-0.00698 -0.04291,-0.01399 -0.06435,-0.02105c-4.83924,-1.59325 -8.15849,-5.98957 -12.4244,-8.41551c-4.69832,-2.67185 -11.54612,-1.36008 -15.22552,-6.42776c-0.87816,-1.2095 -1.01874,-2.81383 -1.63863,-4.1739c-1.96433,-4.30979 -3.91771,-9.01122 -6.23482,-13.14096c-0.97433,-1.73653 -2.88963,-2.80648 -3.90927,-4.51681c-1.18086,-1.98077 -2.23104,-5.83816 -2.94581,-8.22693c-1.44212,-3.44953 -4.218,-6.07634 -6.29008,-9.18304c-0.64751,-0.97082 -1.21386,-1.85016 -1.76006,-2.67085c-2.01595,0.37756 -2.89252,-1.66774 -2.89252,-1.66774l-0.89037,-2.10677c-0.71191,-1.06026 -3.13201,-4.59189 -3.70102,-5.73216c-1.47233,-2.95054 -1.78568,-6.34252 -3.55359,-9.13191c-0.74927,-1.1822 -1.61226,-2.47982 -2.52507,-3.73913c-1.33551,-1.15947 -2.7914,-2.19959 -4.07141,-3.42002c-0.64635,-0.61626 -1.16193,-1.34375 -1.63861,-2.10456c-3.26335,-1.92559 -6.78191,-3.48985 -9.62974,-6.16646c-1.38819,-1.30473 -2.18292,-3.10987 -3.06886,-4.8181c-1.20462,0.37528 -2.81582,-0.19109 -5.02284,-2.35032c-1.00194,-0.98025 -0.36141,-2.78188 -0.45419,-4.18052c-0.18461,-2.78319 0.01513,-5.58392 0.35457,-8.3411c0,0 0.3411,-2.72876 3.06986,-2.38767c2.11061,0.26383 2.38467,1.95609 2.40053,2.70925c0.19059,-0.04179 0.38858,-0.06382 0.59171,-0.06382c1.41573,0 2.58159,1.0698 2.73329,2.4451l0.21374,1.70991l0.82709,1.06341c0.78956,0.42016 1.36982,1.34971 1.96004,2.05164c0.11458,0.13627 0.22861,0.27304 0.34206,0.41029c4.04987,4.34366 7.61398,9.13864 10.56259,14.26732c0.0292,0.02534 0.05837,0.05068 0.08749,0.07602l0.21824,-0.21824l3,3c0.39611,0.39611 0.67194,0.91249 0.76801,1.48967c0.29653,0.37829 0.59156,0.765 0.88276,1.15619c0.64989,0.58118 1.27133,1.19014 1.83633,1.85449c2.05001,2.41051 3.09396,5.36839 4.69731,8.03501c0.06748,-0.00496 0.13564,-0.00748 0.20438,-0.00748c0.60766,0 1.16929,0.19709 1.62444,0.53083l2.30729,1.64807l-0.02509,0.03513c0.06857,0.03345 0.13665,0.0682 0.20422,0.10433c1.06085,0.56734 4.49001,4.70302 6.02427,6.02081c1.52829,1.31266 3.43473,2.3321 4.82875,3.81916c3.0342,3.2367 5.23339,7.07757 7.66157,10.73891c1.84463,2.78144 4.40175,4.86582 6.50407,7.44609c1.37262,1.68468 2.08077,3.81852 3.23087,5.66229c1.33749,2.14419 3.01116,4.05942 4.50746,6.09596c3.48787,4.74716 8.00879,9.22354 11.95909,13.59299c0.729,0.51513 1.45801,1.03026 2.18701,1.54539l0.05364,0.09558l0.02624,-0.03149l1.98387,1.65322c0.61399,0.50435 1.00563,1.26947 1.00563,2.12605c0,1.05273 -0.59153,1.9673 -1.46035,2.42947c0.34474,0.49156 0.70619,0.96541 1.0976,1.40856zM302.67598,317.06363c-1.0027,-1.22547 -1.98949,-2.40958 -2.92971,-3.62848c0.15068,0.65309 0.29257,1.30786 0.64353,1.86799c0.46671,0.74487 1.29166,1.31326 2.28618,1.76048zM309.2711,318.75616c0.0149,0.00302 0.02973,0.00604 0.04451,0.00906c-0.01399,-0.01037 -0.02805,-0.02081 -0.04217,-0.03131c-0.00075,0.00741 -0.00153,0.01482 -0.00234,0.02225z"></path><path d="M285.26326,206.61801c0.0305,0.02787 2.08734,4.82062 2.15537,4.99061c1.92454,4.80948 3.44897,10.25828 5.61136,14.87178c0.86006,1.83495 2.40537,3.32722 3.09486,5.23283c1.39221,3.8478 2.69409,7.29657 4.36257,11.08692l-0.01803,0.31263l0.09388,-0.01878l0.65553,3.27765c0.04226,0.1916 0.06454,0.3907 0.06454,0.595c0,1.19456 -0.76165,2.21122 -1.82582,2.59085c-0.37963,1.06416 -1.39629,1.82582 -2.59085,1.82582c-0.36227,0 -0.70819,-0.07005 -1.02493,-0.19735l-1.19304,-0.44739c0.67945,1.34947 2.28304,4.39619 2.24515,5.00848c-0.01149,0.18563 -0.03071,0.36987 -0.05659,0.55293h0.11275v2.66667c0,1.51878 -1.23122,2.75 -2.75,2.75c-0.84174,0 -1.59515,-0.37818 -2.09959,-0.9739l-1.98837,-2.31976l0.06063,-0.05197l-0.20359,-0.12975c-1.55668,-2.58096 -2.72233,-5.21154 -4.95685,-7.24396c-2.18439,-1.98682 -5.41921,-2.94155 -7.09432,-5.49619c-2.1524,-3.28253 -1.46792,-7.5411 -1.46792,-11.20114c0,0 0,-2.75 2.75,-2.75c0.1484,0 0.28879,0.00801 0.42161,0.02316c0.17893,-0.72309 0.43264,-1.35165 0.7769,-1.81922c0.9098,-1.23566 2.0539,-2.85576 3.45525,-3.36043c-0.13792,-0.53301 -0.25892,-1.06745 -0.35963,-1.60284c-0.11811,-0.62791 -0.01773,-2.22248 -0.04474,-3.56873c-0.07735,-0.28633 -0.15542,-0.57294 -0.2344,-0.85982c-0.17945,-0.65184 -0.29427,-1.31705 -0.38128,-1.98812c-0.99607,-2.48277 -2.44497,-5.15804 -3.70432,-7.40515l-0.64198,-2.88342c0,0 -0.1207,-0.72423 0.13684,-1.48662c-0.11265,-0.3004 -0.17426,-0.62574 -0.17426,-0.96548c0,-1.51878 1.23122,-2.75 2.75,-2.75c0.93575,0 1.76234,0.46737 2.25907,1.18142l1.64536,2.30351l-0.06849,0.04892c0.07678,0.06561 0.15258,0.13252 0.22731,0.20083z"></path><path d="M254.67603,202.57982c2.27398,0.29747 2.27398,2.72018 2.27398,2.72018c0,0.88889 0,1.77778 0,2.66667v2.66667c0,1.51878 -1.23122,2.75 -2.75,2.75c-0.75939,0 -1.44689,-0.3078 -1.94454,-0.80546l-2,-2l0.11262,-0.11262c-0.2272,-0.19077 -0.44118,-0.39728 -0.63845,-0.6237c-0.82189,-0.94336 -0.50164,-2.45733 -0.60765,-3.70401c-0.23075,-2.71348 -0.82837,-8.73513 0.20402,-11.22326c0.40392,-0.97348 1.03494,-1.78246 1.79474,-2.48549c-0.91805,-0.72551 -1.44156,-1.94977 -1.74771,-3.30022l-1.27463,-2.54925c-0.2012,-0.38215 -0.31507,-0.81744 -0.31507,-1.27932c0,-1.51878 1.23122,-2.75 2.75,-2.75c0.68898,0 1.31879,0.25337 1.80132,0.67202l2.31097,1.98083c0.85281,0.71232 1.47789,1.79821 2.36037,2.43659c0.41338,0.05358 0.82607,0.12335 1.23917,0.18364c1.87026,-1.54028 2.59139,-3.91619 6.01865,-3.24425c6.85082,1.34314 5.1535,9.02304 1.15646,11.99027c-1.73985,1.29159 -5.7432,1.98752 -7.9202,2.46448l-0.30007,-0.10032v0.11674h-2.66667v0c-0.12052,0 -0.23923,-0.00775 -0.35566,-0.02279c0.0534,1.11462 0.30539,2.35085 0.49835,3.55261zM263.60815,190.06649c0.01788,0.17392 0.02268,0.33782 0.01608,0.49226l0.02378,0.02081c0.02604,-0.18496 0.01265,-0.40393 -0.03986,-0.51307z"></path><path d="M316.1083,286.62995c0.33725,-0.70002 1.02452,-1.41328 2.42504,-1.41328c2.75,0 2.75,2.75 2.75,2.75l-0.02124,-0.00776c0.11616,0.94449 0.83177,6.71512 0.80057,6.75377c-6.91158,8.56003 -7.93956,-1.10056 -7.946,-5.41268c0,0 0,-2.21777 1.99163,-2.67005z"></path><path d="M295.86667,159.71666c-2.75,0 -2.75,-2.75 -2.75,-2.75v-1c0.01386,-1.56755 -0.19138,-3.14886 -0.58456,-4.66636c0,0 -0.66697,-2.66789 2.00092,-3.33486c2.66789,-0.66697 3.33486,2.00092 3.33486,2.00092c0.47579,1.95866 0.73494,3.98474 0.74877,6.00031v1c0,0 0,2.75 -2.75,2.75z"></path></g><path d="M156.35521,292.586c0.11954,-0.62517 0.86598,-0.86024 1.49307,-1.19206c0.23791,-0.1795 0.48241,-0.36363 0.7259,-0.55102c0.94935,-0.97848 1.79822,-2.05017 2.6837,-3.08828c0.1524,-0.72176 0.0871,-1.5105 0.41645,-2.16798c0.34447,-0.68767 2.50101,-2.67713 2.69785,-4.06691c0.26802,-1.89238 0.06798,-3.85719 0.54578,-5.70778c1.18315,-4.58251 3.75821,-7.34092 6.96106,-10.76853c1.20711,-1.29181 2.1667,-2.96764 3.7533,-3.74778c0.06803,-0.03345 0.13636,-0.06605 0.205,-0.09785l-0.03609,-0.04511l2.47512,-1.98009c0.68838,-0.56044 1.56679,-0.89643 2.52366,-0.89643c2.20914,0 4,1.79086 4,4c0,0.84052 -0.25924,1.62049 -0.70214,2.26431l-1.91297,2.86946c-0.02393,0.04168 -0.04755,0.08289 -0.07087,0.12362c2.18148,3.12098 -0.91402,5.44261 -0.91402,5.44261c-0.22151,0.16457 -0.44033,0.3328 -0.65663,0.50432c1.17424,0.34635 2.75663,1.27982 2.75663,3.79568c0,4 -4,4 -4,4l-1.21554,-0.07768c-0.96344,0.18607 -1.90981,0.52008 -2.89031,0.55821c-0.39184,0.01524 -0.73532,-0.53279 -1.1053,-0.40282c-0.26011,0.09137 0.04344,0.58041 -0.08885,0.82229c-0.89312,1.63297 -1.80008,3.25932 -2.63855,4.92101c-0.83077,1.64644 -1.81821,2.99522 -2.89902,4.28927c-0.00354,0.00749 -0.00714,0.01495 -0.0108,0.0224c-0.89198,1.81233 -2.28448,3.18809 -3.76487,4.48638c-1.11367,1.46828 -2.68416,3.37844 -3.43707,3.04307c-0.01642,-0.00731 -0.03276,-0.01473 -0.04902,-0.02225l-0.03264,0.0175l0.03197,0.04262l-1.96768,1.47576c-0.67398,0.51698 -1.51727,0.82424 -2.43232,0.82424c-2.20914,0 -4,-1.79086 -4,-4c0,-1.3253 0.64453,-2.50006 1.63724,-3.22793l1.79501,-1.34626c0.03919,-0.0381 0.08022,-0.07677 0.12296,-0.11598z" fill-opacity="0.1098" fill="#f6d1ff"></path><path d="M186.3,247.27617c-4,0 -4,-4 -4,-4v-0.5c0.02631,-3.91229 0.53147,-6.18332 2.8,-9.4c0,0 2.4,-3.2 5.6,-0.8c3.2,2.4 0.8,5.6 0.8,5.6c-1.43276,1.68464 -1.22076,2.35434 -1.2,4.6v0.5c0,0 0,4 -4,4z" fill-opacity="0.1098" fill="#f6d1ff"></path><path d="M203.53509,152.0709c-0.08973,-0.02991 -0.17663,-0.06123 -0.26078,-0.09389c-2.19183,2.67461 -5.01772,5.08049 -7.1097,7.5142l-1.74815,3.4963c-0.64138,1.35298 -2.01965,2.28865 -3.61646,2.28865c-2.20914,0 -4,-1.79086 -4,-4l0,-4.5h0.09333c-0.02705,-0.13074 -0.05174,-0.2621 -0.07387,-0.39415c-0.34638,-2.06724 1.562,-3.89037 2.36878,-5.82494c0.5031,-1.20638 0.93419,-2.44394 1.36996,-3.67904c-1.33655,-0.64752 -2.25821,-2.01707 -2.25821,-3.60187c0,-1.3253 0.64453,-2.50006 1.63724,-3.22793l1.96276,-1.47207l0.18777,0.25036c0.18098,-0.2427 0.37338,-0.47725 0.57955,-0.70199c0.78211,-0.85254 2.24764,-0.55318 3.38265,-0.77743c4.67175,-0.92303 12.86799,-3.34982 14.64303,4.01004c0.53709,2.22693 -1.06551,4.45595 -1.59826,6.68392l-0.5,1.5c0,0 -1.26491,3.79473 -5.05964,2.52982z" fill-opacity="0.1098" fill="#f6d1ff"></path><path d="M249.8,155.77617c0,4 -4,4 -4,4l-0.40112,-0.1539c-0.64461,0.16836 -1.27921,0.38594 -1.92439,0.55148c0.3255,0.85128 0.3255,1.60243 0.3255,1.60243c-0.02619,2.19422 0.43782,4.38241 0.97003,6.51127l-0.24796,0.48873h0.27792v2.5c0,2.20914 -1.79086,4 -4,4c-1.93841,0 -3.55478,-1.37882 -3.92184,-3.20919l-0.95833,-4.31248c-1.24469,-2.23074 -1.98569,-8.95315 -0.69754,-11.26719c0.81515,-1.46434 2.34341,-2.46254 3.79869,-3.29376c1.26399,-0.72195 2.78676,-0.84232 4.18013,-1.26349l2.59888,-0.1539c0,0 4,0 4,4z" fill-opacity="0.1098" fill="#f6d1ff"></path><path d="M291.12843,255.1046c-2.82843,2.82843 -5.65685,0 -5.65685,0l-1.29505,-1.32965c-2.87613,-3.68045 -5.08409,-7.95249 -7.37315,-12.05621c0,0 -1.94257,-3.49663 1.55406,-5.4392c3.49663,-1.94257 5.4392,1.55406 5.4392,1.55406c1.57756,2.85242 3.15058,6.02808 5.02811,8.79746c-0.02474,-0.2201 -0.02474,-0.35489 -0.02474,-0.35489l0.1539,-0.90112c-0.56582,-2.10602 -1.87967,-3.93582 -2.78449,-5.91995c-1.22066,-2.67672 -1.73326,-5.62327 -2.66414,-8.41402c0,0 -1.26491,-3.79473 2.52982,-5.05964c3.79473,-1.26491 5.05964,2.52982 5.05964,2.52982c0.83619,2.51021 1.21444,5.18957 2.33586,7.58598c1.09861,2.34767 2.47545,4.59593 3.21551,7.08005l0.1539,3.09888c0,0 0,4 -4,4c-0.41659,0 -0.78979,-0.04339 -1.12412,-0.12112c0.65076,1.01573 1.41946,2.98264 -0.54745,4.94955z" fill-opacity="0.1098" fill="#f6d1ff"></path><path d="M241.30374,239.01353c-0.58036,0.45022 -1.38584,0.76264 -2.50374,0.76264c-4,0 -4,-4 -4,-4v-2c0.00454,-1.10997 -0.37888,-2.29165 0.01363,-3.32992c0.0398,-0.10527 0.08099,-0.20989 0.12349,-0.31389l-0.08269,-0.01378l0.48919,-2.93514c0.2864,-1.92805 1.94865,-3.40726 3.95639,-3.40726c1.48258,0 2.77677,0.80659 3.46769,2.00488l1.46228,2.43714c0.50169,0.84369 0.92225,1.68886 1.32669,2.53311c1.12722,-0.00532 2.03219,0.44717 2.03219,0.44717c5.68671,3.0402 8.58629,7.8761 11.52271,13.12749c0.7569,0.9979 1.48749,1.99659 2.21025,2.82941c3.69129,4.25333 8.27899,7.7161 12,12c2.69084,3.0979 4.28414,6.9264 6.65701,10.19283c2.60346,3.58386 8.66155,6.4565 8.71417,11.50896c0.00321,0.30851 -0.01054,0.61474 -0.03882,0.91901h0.14582l0,4.5c0,2.20914 -1.79086,4 -4,4c-1.3253,0 -2.50006,-0.64453 -3.22793,-1.63724l-1.41464,-1.88619c-0.87918,-1.03354 -1.75835,-2.06709 -2.63753,-3.10063c-3.68526,-3.03931 -4.50832,-5.91697 -6.30251,-10.09692c-1.08748,-2.53351 -3.81624,-3.18589 -5.35228,-5.06122c-2.34881,-2.86763 -4.09743,-7.34054 -5.96771,-10.61487c-1.51166,-2.64648 -4.36069,-3.86123 -6.05342,-6.589c-0.62024,-0.9995 -1.19056,-2.07457 -1.7587,-3.16803c-0.39568,-0.46389 -0.80134,-0.87028 -1.21842,-1.17103c-0.78143,-0.56348 -1.94164,-0.48799 -2.66033,-1.12957c-1.30052,-1.16096 -1.61684,-3.30362 -3.10848,-4.20594c-0.84681,-0.51225 -1.82079,-0.77633 -2.73118,-1.1645c-0.38616,-0.48614 -0.73711,-0.96399 -1.06312,-1.43751z" fill-opacity="0.1098" fill="#f6d1ff"></path></g></g></svg>