<svg version="1.1" xmlns="http://www.w3.org/2000/svg" xmlns:xlink="http://www.w3.org/1999/xlink" width="548" height="359" viewBox="0,0,548,359"><g transform="translate(34,-1)"><g stroke="none" stroke-miterlimit="10"><path d="" fill="#316a70" stroke-width="0.5"></path><g fill="none" stroke-width="0"><path d="M-34,360v-359h34v359z"></path><path d="M480,360v-359h34v359z"></path></g><g stroke-width="0.5"><g><path d="M271.63257,51.51744c-1.23744,-1.23743 0,-2.47487 0,-2.47487l-0.01865,0.06671c0.20881,-0.3121 0.4208,-0.65892 0.64012,-1.01747c-0.07725,-0.02291 -0.15675,-0.05167 -0.23852,-0.08689c-0.42913,-0.13295 -0.8956,-0.21086 -1.35377,-0.301c-0.45495,0.13063 -1.04207,0.10065 -1.62918,-0.48647c-0.06045,-0.06045 -0.11498,-0.12089 -0.16405,-0.18118c-0.09719,-0.07594 -0.18831,-0.16083 -0.27229,-0.25626c-0.8211,-0.93304 -1.10839,-2.46234 -0.75004,-3.65245c0.24811,-0.824 3.28119,-2.4271 4.11434,-3.10089c0.46474,-0.37586 0.88781,-0.78017 1.27378,-1.21123c0.16127,-1.04181 0.33696,-2.09967 0.65176,-3.18416c0.02753,-0.29433 0.14923,-0.61727 0.42552,-0.9546c0.18643,-0.24829 0.46805,-0.50995 0.86868,-0.61824c0.16208,-0.04842 0.32076,-0.06477 0.47147,-0.05949c0.02636,-0.23642 0.05249,-0.47373 0.07898,-0.71218c0,0 0.19325,-1.7393 1.93255,-1.54605c0.35217,0.03913 0.62512,0.14165 0.83648,0.28028c0.27618,0.08855 0.48428,0.23427 0.64107,0.40358c0.37417,0.35507 0.46934,0.81457 0.47515,1.17166c0.00405,0.05315 0.00405,0.08377 0.00405,0.08377c-0.00171,1.34873 0.27869,2.84911 0.30082,4.27253c0.2855,0.66636 0.34101,1.46734 0.06373,2.77796c-0.16156,0.76361 -0.53384,1.44406 -0.98318,2.09324c0.01227,0.08365 0.01863,0.16922 0.01863,0.25628c0,0.13001 -0.01417,0.25671 -0.04107,0.37864l-0.39292,1.96457l-0.08186,-0.01637c-0.00657,0.12919 -0.01848,0.25834 -0.03656,0.38746c-0.19549,1.39569 -3.11925,4.01817 -3.94149,5.25643l-0.41865,0.46671c0,0 -1.23744,1.23743 -2.47487,0z" fill="#ad4eab"></path><path d="M283.49338,60.2727c0.19431,-0.03711 0.42637,-0.00904 0.69112,0.14981c0.85749,0.5145 0.343,1.37199 0.343,1.37199c-0.35978,0.58139 -1.01859,0.94213 -1.36307,1.53272c-0.33432,0.57319 -0.14105,2.60551 -0.00058,4.10889c0.02735,0.06096 0.05174,0.12329 0.07265,0.18723c0.06356,0.19438 0.09784,0.38005 0.10837,0.55898c0.30313,0.28672 0.55707,0.66971 0.74301,1.19573c0.71278,1.46774 0.85023,2.98216 0.85409,4.5411c0.0999,0.23583 0.19598,0.47893 0.28409,0.72579c0.17234,0.31043 0.28786,0.63733 0.29758,0.98861c0.15257,0.63904 0.21766,1.27229 0.12636,1.84144c-0.04098,0.25546 -0.09255,0.5056 -0.15802,0.73968c0.23451,2.8507 -0.16628,5.82456 -1.63731,7.67745c0.1288,0.31372 0.05621,0.58426 -0.05598,0.78222c-0.07556,0.17306 -0.20749,0.35429 -0.43781,0.45963c-0.42344,0.39069 -0.53832,1.08502 -0.95752,1.49863c-0.90958,0.89748 -2.59378,1.87253 -4.09159,2.68439c0.36653,0.1312 0.72836,0.42132 0.96306,1.00807c0.64994,1.62484 -0.9749,2.27477 -0.9749,2.27477l-1.41917,0.55783c-0.23266,0.0658 -0.46387,0.12564 -0.6939,0.18011c0.30329,0.40227 0.48379,0.84659 0.45026,1.34917c-0.18559,2.78189 -5.0903,2.7586 -8.14407,2.61971c-1.98077,0.35969 -3.4833,1.1765 -5.47976,1.63022c-1.85529,0.42163 -4.78574,0.11841 -6.68592,0.01973c-2.68457,-0.13941 -4.43416,0.17906 -6.44679,-1.77701c-0.01379,-0.0134 -0.02749,-0.02689 -0.04111,-0.04046c-1.75975,0.02774 -3.54624,-0.04 -4.07693,-0.40586c-0.20123,-0.13873 -0.52928,-0.58868 -0.90995,-1.2001c-0.56556,-0.29001 -0.95258,-0.8789 -0.95258,-1.55818c0,-0.03133 0.00082,-0.06248 0.00245,-0.09341c-0.05499,-0.10166 -0.1099,-0.20411 -0.16454,-0.30698c-0.18995,1.00615 -0.40151,2.0243 -0.60733,3.09651l0.0017,0.02657c0.08037,0.25262 0.02462,0.48503 -0.05715,0.66051c-0.06055,0.16621 -0.17007,0.35068 -0.36814,0.47419c-4.61739,4.64055 -7.92754,9.64261 -15.05698,9.64261c-2.66377,0 -5.15636,0.38676 -6.64443,-2.30279l-0.02865,-0.022c-0.28482,-0.11464 -0.42902,-0.34159 -0.50204,-0.54202c-0.07404,-0.15889 -0.12675,-0.36444 -0.0764,-0.58941c-0.03313,-2.3125 -0.59059,-5.60404 0.02828,-7.77354c0.78455,-2.7503 2.06881,-5.38172 3.00953,-8.03718c0.2744,-0.77458 0.07934,-2.48884 0.21713,-3.31554l-0.00341,-0.91716c0,-0.00024 0,-0.00037 0,-0.00037c0,0 0,-0.00019 0,-0.00056c0.00445,-0.9556 0.09656,-1.90431 0.22897,-2.85039c-0.20122,0.19888 -0.42189,0.39711 -0.67002,0.59829l-0.00002,0.00002l-0.11038,0.01482l0.01863,0.03727l-1.182,0.59101c-0.13897,0.07317 -0.29726,0.11457 -0.46521,0.11457c-0.55229,0 -1,-0.44772 -1,-1c0,-0.27614 0.11193,-0.52614 0.29289,-0.70711l0.47712,-0.47712l-0.4727,0.11817c-0.78349,0.53977 -1.47935,1.45663 -2.18825,1.52369c-0.1752,0.16325 -0.32789,0.30321 -0.43636,0.40757l-0.2831,-0.03183l0.03294,0.13177l-0.97824,0.24456c-0.08419,0.02301 -0.17281,0.0353 -0.2643,0.0353c-0.55229,0 -1,-0.44772 -1,-1c0,-0.3992 0.23392,-0.74377 0.57216,-0.90411l0.44486,-0.22244c-0.00614,-0.04478 -0.0093,-0.0905 -0.0093,-0.13697c0,-0.18686 0.05125,-0.36175 0.14047,-0.51138l0.42695,-0.74716c-0.22101,-0.14288 -0.4437,-0.36409 -0.67579,-0.70221c-1.37507,-2.00317 0.33603,-3.70804 2.10518,-4.61065c0.00245,-0.20379 0.00585,-0.38188 0.01049,-0.4993c-1.53464,0.67731 -3.66478,0.00855 -3.49523,-2.11373c0.10562,-1.32201 2.20709,-2.88011 2.9463,-3.67293c0.35275,-0.37833 0.39722,-1.0691 0.86605,-1.28764c0.60717,-0.28304 1.4849,0.68869 1.9937,0.25293c0.9505,-0.81405 1.87259,-1.96206 2.21403,-3.124c0.6067,-2.43065 0.69679,-4.40663 0.72817,-6.90952l0.47668,-1.23354c0.03743,-0.17847 0.12771,-0.32665 0.21358,-0.43409c0.07691,-0.10471 0.18789,-0.22268 0.33701,-0.30499c3.1754,-2.51317 3.08085,-7.2405 6.27304,-8.669c1.57954,-2.08736 4.00448,-3.15597 6.09694,-4.73051c1.58725,-1.19438 1.89929,-2.53927 3.64089,-3.58487c2.75738,-1.65545 5.81027,-1.84197 8.86134,-2.35048c0.71903,-0.00227 1.40975,-0.01259 2.07616,-0.03542c-0.01446,-0.78363 0.81021,-0.94857 0.81021,-0.94857c2.02174,-0.38808 1.79408,-1.45853 3.45342,-2.38962c1.23283,-0.69177 1.30367,-0.2036 2.51295,-0.35305c0.59401,-0.07341 1.31855,-0.78646 1.75548,-0.3774c0.39972,0.37422 0.62906,0.74864 0.72445,1.11783c0.63558,-0.34345 1.24174,-0.75521 1.86091,-1.0806c0.57351,-0.54115 1.13244,-1.09434 1.6818,-1.6437l0.53384,-0.30723c0.14521,-0.1173 0.31266,-0.17622 0.44424,-0.20581c0.10782,-0.02667 0.24629,-0.04642 0.39364,-0.03023c0.55115,-0.00158 1.99968,-0.00521 2.15161,0.05169c2.87811,1.07804 3.26336,4.74996 2.29482,7.45764c0.01927,-0.00127 0.03572,-0.00002 0.04914,0.00395c1.74662,0.5172 1.54144,3.89286 1.4015,6.01221c0.6558,0.77976 1.83367,1.07462 2.6284,1.75115c0.55757,0.47463 0.71268,1.28132 1.12116,1.88902c0.89576,1.33264 0.60242,2.59782 0.52983,3.9098c0.51418,0.46149 0.95193,0.94713 1.31963,1.46663c0.59123,0.38402 1.19191,0.72099 1.65054,1.37358c1.56203,2.22261 0.9829,5.29585 -0.06125,8.18952c0,0.54839 0,1.09679 0,1.64519c0,0.55473 -0.61347,1.3634 -0.3683,1.74203c0.02838,0.02966 0.05671,0.05933 0.08497,0.08899c0.01711,0.01255 0.03596,0.02422 0.05667,0.03499c0.48976,0.25449 1.00843,0.40007 1.52393,0.51647c-0.50291,-1.20253 -0.71794,-2.74605 -0.5724,-3.72601c0.07093,-0.47759 0.27942,-1.51351 0.77147,-1.93422c-0.11121,-0.16118 -0.17634,-0.35661 -0.17634,-0.56724c0,-0.55228 0.44772,-1 1,-1h1.2c0,0 0.53626,0 0.82337,0.3927zM257.1427,35.5952c-0.16081,0.09543 -0.30762,0.19242 -0.44361,0.29019c0.40493,-0.14974 0.82126,-0.28961 1.23656,-0.42587c-0.33233,0.01191 -0.64286,0.04661 -0.79296,0.13568z" fill="#e5c1e4"></path><path d="M250.97711,76.17289l0.11506,0.35635c2.17257,0.08933 4.14421,0.65634 4.1774,2.78013c0.05608,3.58801 -6.01226,2.84862 -7.96208,1.52881c-0.32349,-0.0731 -0.61825,-0.19721 -0.87148,-0.38484c-0.49096,-0.36379 -0.634,-0.78332 -0.6303,-1.22441c-0.1139,-0.29355 -0.10321,-0.55088 0.00771,-0.77144c-0.18817,-0.14469 -0.34343,-0.38346 -0.34343,-0.77749c0,-0.57761 0.33364,-0.82159 0.61549,-0.92464l-0.01233,-0.37861c-0.04299,-0.34063 0.06284,-0.57805 0.21041,-0.74148c0.09995,-0.13453 0.24668,-0.25377 0.46209,-0.31392c0.84863,-1.10665 3.84149,0.49891 4.23146,0.85154z" fill-opacity="0.35294" fill="#ad4eac"></path><path d="M284.08584,75.80809c-0.7176,1.06993 -1.91438,1.33595 -2.5978,-0.93898c-0.35473,-1.18082 0.27774,-3.03124 2.05196,-2.75197c0.52601,0.0828 0.66568,0.76832 0.90335,1.30095c0.22664,0.29018 0.22664,0.66191 0.22664,0.66191c-0.00682,0.09355 -0.01751,0.18692 -0.03177,0.27965l0.03177,0.52035c0,0 0,0.6988 -0.58416,0.92809z" fill-opacity="0.35294" fill="#ad4eac"></path><path d="M233.89077,33.75827c1.80336,2.57979 2.90237,4.78315 5.32583,6.89968c2.35082,2.05309 5.71208,4.15098 4.4947,7.9292c-0.04985,0.15471 -0.11971,0.29879 -0.20363,0.43542l-0.07242,0.34005c-3.23781,6.10285 -10.32,6.35182 -13.71404,0.03209c-1.59589,-2.97156 -1.30184,-5.26301 -1.78266,-8.36059c-0.51769,-3.33511 -0.7998,-6.15779 -0.19032,-9.56717c0,0 0.10006,-0.55033 0.49818,-0.97216c-0.03859,-0.19553 -0.07126,-0.39028 -0.0977,-0.58407c-0.08815,-0.36982 -0.09403,-0.84933 0.22859,-1.29781c0.16773,-0.28915 0.44428,-0.5564 0.89829,-0.69302c0.43755,-0.18261 0.82086,-0.15163 1.13402,-0.03466c0.53207,0.14127 0.83165,0.51337 0.99863,0.85412l0.46094,0.7299c0.45289,1.03268 0.81656,2.09382 1.15216,3.16597c0.25625,0.30551 0.54617,0.66058 0.86944,1.12304z" fill="#ad4eab"></path><path d="M282.07,62.88c0,1.68562 -0.31594,2.9825 -0.61804,4.58911c-0.09707,0.51624 0.20552,1.984 -0.05808,2.39358c-1.11373,1.73053 -2.25419,2.35842 -3.61831,0.46453c-1.05316,-1.46217 0.69443,-5.02394 0.69443,-6.84721v-1c0,-0.55228 0.44772,-1 1,-1c0.05837,0 0.11556,0.005 0.17119,0.0146l0.5217,-0.5217v0c0.18096,-0.18096 0.43096,-0.29289 0.70711,-0.29289c0.55228,0 1,0.44772 1,1v0.57401c0.2,0.28399 0.2,0.62599 0.2,0.62599z" fill="#30152f"></path><g><path d="M253.23273,66.98505c0,0 0.01523,0.58093 -0.42039,0.86869c0.06169,1.95674 0.70118,3.8467 1.78475,5.42991c0.21977,0.11569 0.43827,0.23372 0.65506,0.35491l0.93634,0.34295c0,0 0.93789,0.34694 0.59096,1.28482c-0.03294,0.08907 -0.07121,0.16653 -0.11351,0.23382c1.65987,1.30595 3.76785,2.09183 6.14821,2.04229c6.38871,-1.38197 5.58209,-12.38052 0.77528,-15.17975c-1.07118,-0.6238 -3.12841,-0.16872 -4.27937,-0.13855c-1.17822,0.03088 -2.70333,-0.18286 -4.05025,-0.02916c-1.35199,1.15272 -2.1955,2.79468 -2.02707,4.79006zM264.94176,59.41159c1.37315,0.80669 1.70074,1.89866 2.62853,3.07045c0.70659,1.31832 1.18458,2.19664 1.24659,3.69433l0.01049,0.39986c0,0 0.01211,0.46215 -0.29435,0.76622c1.24748,4.81458 0.76232,10.3085 -4.8,12.0046c-0.07607,0.36044 -0.3469,0.65113 -0.69977,0.75326l-1.36794,0.42992l-0.07066,-0.22482c-1.28324,0.5709 -2.18367,0.40155 -3.40665,-0.24339c-1.14968,-0.12883 -2.26914,-0.37386 -3.64111,-0.7943c-4.45228,-2.4567 -4.17378,-6.88868 -4.29216,-11.40435c-0.05176,-1.97455 -0.22466,-4.25217 1.10315,-5.90067c0.84941,-1.05456 2.01922,-1.494 3.29124,-1.66676c2.79368,-2.21592 6.83326,-2.91666 10.29265,-0.88437z" fill="#316a70"></path><path d="M278.05349,60.73264c0.48892,-0.91951 1.09991,-2.25942 1.51655,-2.60963c2.40661,-2.02287 4.91879,0.56276 6.27189,2.17119c2.24529,2.66897 3.24255,9.58037 1.88101,12.99687c-0.3223,0.80876 -0.9153,1.5053 -1.15652,2.34182c-0.70441,0.20566 -1.423,0.40542 -2.15096,0.50061c-0.13534,0.37677 -0.49097,0.65059 -0.91525,0.66172l-1.19958,0.03145c-4.83296,0.05334 -5.90254,-6.38598 -5.47102,-11.34249c0.00752,-0.48895 0.05839,-0.93809 0.15618,-1.329c0.03934,-0.26329 0.08289,-0.51935 0.13022,-0.76671c0.00244,-0.57076 0.00137,-1.11816 -0.01207,-1.63079c0,0 -0.02578,-0.98365 0.94955,-1.02504zM284.66134,61.78805c-0.06672,0.04738 -0.15325,0.09952 -0.25452,0.13981c-0.2871,-0.78422 -1.04994,-1.33443 -1.93094,-1.31134c-0.86262,0.02262 -1.58331,0.58817 -1.84357,1.36102c-0.08591,0.14023 -0.15499,0.29174 -0.2045,0.45166c-0.61701,0.68227 -1.1039,1.53721 -1.31418,2.27666c-0.00137,0.29885 -0.00223,0.59851 -0.00153,0.89836c-0.06282,0.22459 -0.08211,0.44275 -0.08247,0.62449c-0.00441,0.17001 0.00938,0.2789 0.00938,0.2789c0.16823,1.32938 0.33646,2.65877 0.50468,3.98815l1.18089,2.08016c0,0 0.21191,0.30049 0.58285,0.55293l0.11274,0.21413c0,0 0.941,1.76481 2.7058,0.82381c0.0007,-0.00038 0.0014,-0.00074 0.0021,-0.00112c0.33116,0.01296 0.66685,0.03077 1.00994,0.06735c-0.04627,-1.11279 0.78942,-1.44395 0.83152,-2.58674c0.10057,-2.73038 0.21051,-5.99723 -0.58805,-8.62012c-0.07065,-0.23206 -0.33956,-0.70477 -0.72015,-1.2381z" fill="#316a70"></path><path d="M246.89108,73.40753c-0.42331,0.44695 -0.86318,0.87481 -1.33042,1.27081l-0.71774,0.94702c-0.17692,0.23764 -0.45721,0.39464 -0.77635,0.40301c-0.5521,0.01448 -1.01139,-0.42136 -1.02586,-0.97346c-0.00271,-0.10335 0.01037,-0.20346 0.03702,-0.298l0.35742,-1.38764l0.06351,0.01636c0.01428,-0.10023 0.03336,-0.19991 0.05814,-0.29894c0.10056,-0.40175 0.73551,-0.44187 0.95787,-0.79126c0.72042,-1.13199 1.32526,-3.56623 2.87229,-4.23851c0.61627,-0.26781 1.10109,-0.39079 1.47668,-0.401c0.03612,-0.08213 0.07568,-0.16377 0.11894,-0.24597l-0.08959,-0.02728l0.3617,-1.18801c0.11492,-0.41178 0.48747,-0.71867 0.93715,-0.73046c0.5521,-0.01448 1.01138,0.42136 1.02586,0.97345l0.02621,0.99966l-0.1314,0.00344l0.10213,0.26435c-0.10002,0.18801 -0.20858,0.41875 -0.32577,0.6748c0.00116,0.01533 0.00187,0.03055 0.00218,0.04563c0.21061,-0.00674 0.45009,0.06497 0.69375,0.29618c0.72539,0.68833 0.03706,1.41373 0.03706,1.41373l0.0178,-0.13623c-0.18269,0.4586 -0.49595,0.8452 -0.8768,1.17836l0.2102,0.24907l-0.9726,0.8208c-0.16836,0.14457 -0.38569,0.2343 -0.62483,0.24057c-0.18767,0.00492 -0.3646,-0.04219 -0.517,-0.12821c-0.03697,0.06319 -0.07324,0.12288 -0.10855,0.17861l-0.09591,0.04484l0.03161,0.02999l-0.77876,0.82069l-0.35397,-0.33588z" fill-opacity="0.97647" fill="#316a70"></path><path d="M266.27128,66.32691c0.22018,-0.72319 0.82061,-0.73322 1.10055,-0.69505c1.0235,-1.04516 2.11491,-1.78152 3.28014,-2.236c0.69525,-0.86317 1.54854,-1.59361 2.31338,-1.87342c1.1445,-0.41871 3.98892,0.70467 4.29068,2.00772c0.03278,0.14156 0.04105,0.28269 0.03119,0.42348l0.0743,-0.00195l0.02621,0.99966c0.01448,0.55209 -0.42135,1.01139 -0.97345,1.02586c-0.4291,0.01125 -0.80213,-0.24951 -0.95385,-0.62546l-0.24451,-0.56765c-1.33364,0.1077 -2.4197,0.1366 -3.41998,0.39308c-0.36558,0.45718 -0.67133,0.92186 -0.84022,1.31098c-0.23199,0.5345 -0.04029,1.33624 -0.51831,1.66942c-0.75416,0.52566 -2.21222,-0.14691 -2.95139,-0.41732l-0.54936,-0.16546c0,0 -0.95665,-0.29126 -0.66539,-1.2479zM269.25892,66.57828c-0.02452,0.02238 -0.04906,0.04508 -0.07364,0.06809c0.04352,0.01175 0.07016,-0.00659 0.07364,-0.06809z" fill-opacity="0.97647" fill="#316a70"></path><path d="M286.42835,65.1598c0.02267,0.03214 0.04318,0.06391 0.06167,0.09529c0.2231,-0.13447 0.82084,-0.4008 1.3151,0.22344c0.62076,0.784 -0.16324,1.40476 -0.16324,1.40476c-0.8718,0.68645 -1.58435,1.47617 -2.35651,2.27378l-0.15855,0.04311l0.02328,0.04365l-1.16611,0.62177c-0.137,0.07678 -0.29415,0.12232 -0.46204,0.12672c-0.5521,0.01448 -1.01139,-0.42136 -1.02587,-0.97345c-0.00194,-0.07426 0.00426,-0.14686 0.01779,-0.21691l0.17021,-0.98455l0.18204,0.03147c0.10665,-0.83084 0.4886,-1.38117 1.4303,-2.38553l0.73839,-0.54448c0,0 0.81723,-0.57631 1.39354,0.24092z" fill-opacity="0.97647" fill="#316a70"></path></g><path d="M264.07,64.48c0,1.68562 -0.31594,2.9825 -0.61804,4.58911c-0.09707,0.51624 0.20552,1.984 -0.05808,2.39358c-1.11373,1.73053 -2.25419,2.35842 -3.61831,0.46453c-1.05316,-1.46217 0.69443,-5.02394 0.69443,-6.84721v-1c0,-0.55228 0.44772,-1 1,-1c0.05837,0 0.11556,0.005 0.17119,0.0146l0.5217,-0.5217v0c0.18096,-0.18096 0.43096,-0.29289 0.70711,-0.29289c0.55228,0 1,0.44772 1,1v0.57401c0.2,0.28399 0.2,0.62599 0.2,0.62599z" fill="#30152f"></path></g><g><path d="M240.15,233.975v0.75c-0.01694,1.1165 -0.30961,2.17221 -0.7493,3.18596c-0.00102,0.10437 -0.00125,0.20905 -0.0007,0.31404v0.832c0.01686,0.14862 -0.00298,0.28839 -0.02985,0.39703c-0.02492,0.11085 -0.07067,0.24715 -0.15459,0.37416c-1.08276,2.11767 -2.59387,4.14051 -3.65485,6.26818c-0.86897,2.91359 -2.2638,5.5602 -5.09447,6.57731c-0.72872,0.26184 -1.76886,0.28036 -2.81978,0.23067c-0.94115,2.88379 -1.77001,5.82919 -2.80057,8.64518c-0.06492,0.17739 -0.13196,0.35442 -0.20085,0.53116c-0.07674,0.95679 -0.14244,1.93662 -0.25027,2.99657c-0.13246,1.30203 -0.86095,2.47187 -1.29377,3.70698c-0.82998,2.36848 -1.14878,5.10475 -1.7607,7.55272c-0.69451,2.77835 -1.26512,5.40508 -2.2958,7.87226c0.62876,0.55701 1.13662,1.4079 1.47728,2.02585c1.89531,3.43813 4.83896,8.53907 2.17824,12.33992l-0.07939,0.17721c-0.06938,0.30352 -0.25164,0.47959 -0.43976,0.58172c-0.16816,0.11747 -0.39464,0.19977 -0.67946,0.14158c-3.95872,0.02679 -8.3198,1.10573 -12.03169,0.51659c-0.13232,0.00408 -0.26531,0.00859 -0.3988,0.01312c-0.71018,0.0577 -1.42821,0.05735 -2.15254,0.01874c-0.19565,-0.0084 -0.39044,-0.02098 -0.58383,-0.03892c-0.76304,-0.06052 -1.53254,-0.1573 -2.30671,-0.26754c-1.10598,-0.15749 -2.32321,0.80256 -3.40355,0.10814c-1.0454,-0.67196 -1.85966,-4.04314 -1.41789,-5.18166c0.00437,-0.01126 0.00884,-0.02249 0.01342,-0.03371c0.00022,-0.00808 0.00045,-0.01617 0.00069,-0.02427c-0.42031,-0.39641 -0.79275,-0.80618 -0.99437,-1.22832c-0.19789,-0.41436 -0.27341,-1.35102 -0.23614,-2.38142c-0.20844,-0.18327 -0.33998,-0.4519 -0.33998,-0.75126v-1.5h0.02323c0.01329,-0.15368 0.03206,-0.30462 0.05577,-0.45312c-0.54188,-1.25816 0.18034,-3.15624 0.74712,-4.42957c2.15303,-4.83699 2.56063,-10.27904 5.31639,-14.88181l1.09825,-0.48146c0.14785,-1.5088 0.41216,-2.97674 1.06337,-4.32858c0.6784,-3.53416 1.84074,-6.87024 3.05605,-10.17463c-0.60694,0.09623 -1.302,0.35481 -1.61354,-0.09323c-0.41492,-0.59671 0.44773,-2.83694 0.94212,-3.49232c0.91035,-1.20679 1.37547,-2.60543 1.60473,-4.10518c-0.00045,-0.02148 -0.00087,-0.04293 -0.00125,-0.06439c-0.0366,-0.01388 -0.07277,-0.02951 -0.10846,-0.04704c-3.16684,-1.55538 -1.37651,-2.51398 0.31554,-2.95752c0.00047,-0.08029 0.00069,-0.16068 0.00069,-0.24116c0,0 0,-0.95127 0.92781,-0.9982c0.71464,-0.83507 1.79727,-1.72491 2.89041,-2.48321c0.08561,-0.08602 0.19708,-0.17227 0.3344,-0.2277c0.21319,-0.14248 0.42539,-0.27921 0.63393,-0.40883l-0.13655,-0.18206l0.99192,-0.74394c0.1685,-0.12924 0.37931,-0.20606 0.60808,-0.20606c0.04964,0 0.09845,0.00362 0.14616,0.0106c0.55546,-0.6894 1.03664,-1.45989 1.43746,-2.27653c0.01114,-2.20492 -0.04002,-4.03265 0.9743,-5.84363c-0.0433,-0.1167 -0.05832,-0.23457 -0.05873,-0.34094l-0.10668,-0.064l0.14231,-0.2372c0.01492,-0.06228 0.02885,-0.09943 0.02885,-0.09943c1.05803,-2.80726 2.58063,-5.35122 3.20166,-8.32333c0.23634,-1.13107 -0.23432,-2.41356 0.01142,-3.5553c0.84105,-3.90761 2.06145,-7.92032 3.561,-11.67991c0.90492,-1.76486 0.61234,-4.42387 1.51781,-6.03755c0.39436,-0.70281 1.38771,-0.91664 1.80958,-1.60328c0.42937,-0.69882 0.25261,-1.71877 0.8048,-2.32524c1.11671,-1.22649 1.43641,-0.71073 2.65786,-0.86678c4.36884,-0.55815 8.17383,2.03629 11.64792,4.64186l0.78349,0.38791c0.28398,0.07454 0.45121,0.2505 0.5497,0.4319c0.11778,0.16861 0.20021,0.39585 0.14111,0.68174c0.00172,3.7288 0.0608,7.69017 -0.77944,11.33201c-0.97853,4.24125 -2.18614,9.05436 -2.24102,13.46815c-1.09647,2.62609 -2.10664,5.19689 -2.69553,7.901c0.21595,0.28799 0.21595,0.64793 0.21595,0.64793z" fill="#e5c1e4"></path><path d="M255.95293,291.1178c-0.06443,-0.14585 -0.12886,-0.2917 -0.19329,-0.43755c-0.31137,-0.54394 -1.37552,-3.13512 -0.55193,-4.12255c-0.32731,-0.94617 -0.55914,-1.91402 -0.55021,-2.96053c-0.4271,-1.70841 -0.51041,-3.65094 -0.6959,-5.55426c-0.19546,-0.5523 -0.42058,-1.084 -0.68594,-1.58722c0.04513,-0.24388 0.09631,-0.4851 0.15421,-0.72323c0,0 0.03628,-0.14509 0.13688,-0.30902c-0.15854,-0.67197 -0.36847,-1.34837 -0.59196,-2.02524c-0.06665,-0.15785 -0.13783,-0.31314 -0.21394,-0.46563c-1.64905,-3.30406 -3.11083,-5.29433 -3.11083,-9.20758v-0.75c0,-0.86113 -0.11703,-2.05411 -0.11649,-3.2257c-1.21627,-0.5383 -0.37333,-2.89518 0.25691,-4.02702c-2.59831,0.00778 -2.44229,-2.74897 -0.63312,-4.11748c0.63083,-0.47718 1.53903,-0.26455 2.346,-0.3337c0.00669,-0.01512 0.0138,-0.03029 0.02138,-0.04547l0.54047,-1.30113c1.24866,-1.28974 2.45242,-2.47007 3.5854,-3.66586c-0.00037,-0.01117 -0.00055,-0.02238 -0.00055,-0.03364c0,-0.27614 0.11193,-0.52615 0.29289,-0.70711l1,-1c0.52753,-0.52643 0.9962,-1.01776 1.44042,-1.50724c0.48095,-0.88602 1.10672,-1.77829 1.74349,-2.55905c0.21653,-0.37815 0.42626,-0.76878 0.62878,-1.17382c0,0 0.33368,-0.66736 1.00104,-0.56094c0.02263,-0.02013 0.04508,-0.03988 0.06734,-0.05926c0.69406,-0.60446 2.12919,-0.9337 2.86894,-1.6397c0.02887,-0.02756 0.05666,-0.0564 0.08342,-0.08646c0.15323,-0.37775 0.32311,-0.75366 0.52089,-1.12933c0.00041,-2.17745 -0.25556,-4.39495 0.1157,-6.48729c0.409,-2.30502 0.86471,-4.82042 1.47954,-7.23219c0.00499,-0.2839 0.00754,-0.56968 0.00754,-0.85763c0.02404,-2.16007 0.2864,-4.89089 0.89863,-7.05839c-0.77767,-0.25015 -0.63502,-1.10601 -0.63502,-1.10601c0.35946,-2.12565 0.87046,-4.23859 1.21373,-6.36025c0.29247,-1.80767 -0.58506,-4.00868 0.73606,-5.59282c1.16054,-1.39158 2.53042,-1.33819 3.73345,-2.21561c2.58677,-1.88663 4.4181,-2.78446 7.93583,-2.5908c0.76163,0.70499 1.89724,1.03133 2.46796,1.89814c0.54638,0.82983 0.41278,2.83962 0.6226,3.79598c0.77654,3.53952 2.03926,5.79052 1.99388,8.82366c0.53287,0.24881 0.53287,0.90609 0.53287,0.90609c-0.00495,2.10595 -0.58911,4.11144 -1.25,6.08552v1.41448h-0.0026c-0.02338,2.30038 -0.20925,4.45594 -0.77176,6.71939c-0.97983,4.79981 -0.5876,9.00746 -2.55176,13.66329c-0.64038,1.51796 -3.30478,6.24786 -4.85556,6.94807c-1.28365,1.23156 -2.83466,2.62559 -3.78827,3.79498c-0.22505,0.27598 -0.02255,0.78242 -0.27668,1.03188c-1.10068,1.08046 -3.11899,1.75765 -4.33445,2.83573c-1.423,1.26218 -2.60691,2.85515 -3.96181,4.21376l-0.96056,0.96056c0.00313,0.03397 0.00622,0.06795 0.0093,0.10193c0.12813,0.86554 0.23604,1.73636 0.32639,2.60932c0.14163,0.70313 0.2834,1.41185 0.4157,2.13153c0.1592,5.03379 2.2691,9.35186 3.99543,13.93526c0.98633,-0.14387 1.92297,0.12991 2.82196,0.63575c1.05391,0.2729 2.04086,0.63517 2.71784,1.07253c0.93391,0.60334 1.60842,1.87932 2.18322,3.14155c0.3755,0.33259 0.74784,0.63676 1.11832,0.89322c1.23969,0.85816 2.86263,1.40731 3.58917,2.92856c0.40058,0.83873 0.07612,2.68988 0.07612,3.63269v0.5c0,0 0,0.44723 -0.29908,0.74352c0.14376,1.19811 0.16114,2.40274 -0.03913,3.2577c-4.60041,0.01407 -9.20082,0.02562 -13.80111,-0.00122c-0.34319,-0.002 -0.69179,-0.06709 -1.0417,-0.17314c-1.75385,0.10859 -3.63892,0.25952 -5.22989,-0.06801c-0.52307,-0.00438 -1.05219,-0.00885 -1.58909,-0.00885c-1.1241,0 -3.04,0.33015 -3.78004,-0.87428c-0.38312,-0.62354 -0.71695,-1.56831 -0.30624,-2.17403c0.24479,-0.36102 0.67388,-0.48993 1.13921,-0.5589zM259.99138,292.46495c0.1818,0.10327 0.37988,0.18914 0.5913,0.26002c0.02245,0.00002 0.04488,0.00003 0.06733,0.00003c0.07007,0 0.14087,-0.00063 0.21232,-0.0018c-0.2865,-0.10108 -0.55699,-0.2144 -0.81256,-0.33916c-0.0188,0.02747 -0.03827,0.05445 -0.05839,0.08091zM271.36789,250.09645c-0.05221,0.04793 -0.10411,0.09598 -0.15567,0.14416c0.05485,-0.04755 0.10685,-0.09558 0.15567,-0.14416z" fill="#e5c1e4"></path><g fill="#316a70"><path d="M218.09115,295.15402l0.17778,-0.25359c0.66021,0.52617 1.65924,0.79785 1.98064,1.57851c0.33214,0.80676 -0.55197,1.81471 -1.42884,2.61682l-0.21361,0.53401c-0.14181,0.37979 -0.50789,0.65024 -0.93713,0.65024c-0.55228,0 -1,-0.44772 -1,-1c0,-0.73333 0,-2.46667 0,-3.2c0,0 0,-1 1,-1c0.1666,0 0.30544,0.02775 0.42115,0.07402z"></path><path d="M207.16289,296.57289c0.70711,-0.70711 1.41421,0 1.41421,0l0.10141,0.12206c0.01409,-0.04379 0.02836,-0.08752 0.0428,-0.13118c0,0 0.31623,-0.94868 1.26491,-0.63246c0.94868,0.31623 0.63246,1.26491 0.63246,1.26491c-0.19191,0.5708 -0.35404,1.15377 -0.47397,1.74438c-0.0073,0.04652 -0.01662,0.09358 -0.02785,0.14128c-0.01656,0.08662 -0.03219,0.17339 -0.04686,0.2603v0.93781c0,0.55228 -0.44772,1 -1,1c-0.55228,0 -1,-0.44772 -1,-1v-1h0.04288l-0.03947,-0.08248c0.02553,-0.15339 0.05304,-0.30653 0.08254,-0.45934c-0.12498,-0.08977 -0.25551,-0.16516 -0.40044,-0.20068l-0.59261,-0.55039c0,0 -0.70711,-0.70711 0,-1.41421z"></path><path d="M277.87,290.28c1,0 1,1 1,1v0.16438c0.25303,0.33545 0.18995,0.77704 0.18995,0.77704c-0.07462,0.50561 -0.14925,1.01121 -0.22387,1.51682l-0.27944,-0.05282c-0.0082,0.01978 -0.01652,0.03953 -0.02498,0.05925l0.26681,0.10672l-0.39135,0.97837c-0.14181,0.37979 -0.50789,0.65024 -0.93713,0.65024c-0.55228,0 -1,-0.44772 -1,-1c0,-0.1393 0.02848,-0.27195 0.07995,-0.39245l0.35797,-0.89493c0.01623,-0.11825 0.03246,-0.2365 0.04869,-0.35475c-0.05659,-0.18613 -0.08352,-0.38458 -0.08661,-0.55787v-1c0,0 0,-1 1,-1z"></path><path d="M267.67,295.08c-0.28714,0 -0.49183,-0.08245 -0.63775,-0.2h-0.16225v-0.17401c-0.07034,-0.09988 -0.11594,-0.20694 -0.14551,-0.30377c-0.25946,-0.04651 -0.51892,-0.09302 -0.77837,-0.13953l0.44073,-0.86583l-0.22396,-0.22396l0.63528,-0.63528c0.03042,-0.21791 0.06083,-0.43582 0.09125,-0.65373c0,0 0.19612,-0.98058 1.1767,-0.78446c0.7006,0.14012 0.80053,0.68069 0.80047,0.97796c0.24483,0.18228 0.40341,0.47393 0.40341,0.80262c0,0.1393 -0.02848,0.27195 -0.07995,0.39245l-0.39158,0.97894l-0.13806,-0.05522c-0.03553,0.2635 -0.20281,0.88383 -0.99042,0.88383z"></path></g></g><path d="M281.79955,81.39801c-0.55055,-0.53342 -1.09654,-1.07079 -1.63665,-1.6109c0,0 -0.70711,-0.70711 0,-1.41421c0.70711,-0.7071 1.41422,0 1.41422,0c2.13202,2.13202 4.3627,4.19055 6.58011,6.18066c2.67919,2.40456 6.80099,4.32767 4.60442,8.77921c-0.5874,1.19043 -2.063,2.32822 -3.01978,3.22892c-3.24671,0.74106 -6.94154,0.32583 -10.27186,0.31833c-1.12998,-0.00255 -2.35464,0.09687 -3.37605,-0.58258c-1.19583,-0.79548 -1.88806,-2.99999 -2.02054,-4.33494c-0.45839,-4.61897 2.67867,-7.74277 6.3068,-10.03957c0.49926,0.03624 1.22256,-0.07105 1.41933,-0.5249z" fill-opacity="0.94902" fill="#e6c1e4"></path><path d="M285.45,134.04728v-0.33333c0,-1.99639 -0.05692,-4.00451 0,-6c0.02541,-0.89064 -0.4051,-1.95969 0.13321,-2.6697c0.13676,-0.18038 0.29091,-0.34181 0.45831,-0.48879l-0.07895,-0.07895l1.33333,-1.33333l0.40336,0.40336c0.13889,-0.06724 0.27842,-0.13377 0.41739,-0.20094c0.00002,-0.09944 0.00003,-0.19888 0.00003,-0.29832c0,0 0,-1.02346 0.78269,-1.50501c0.0006,-0.1879 0.00079,-0.37693 0.00062,-0.5672v-0.25c0,0 0,-0.23402 0.08558,-0.53091l0.00002,-0.00007c-0.07887,-0.32567 -0.22364,-0.59508 -0.51863,-0.73858c-1.19448,-0.58104 -3.42821,-0.75186 -4.81695,-0.73051c0,0 -0.06586,0 -0.17202,-0.01277c-0.10661,-0.0083 -0.17118,-0.02121 -0.17118,-0.02121l-1.59616,-0.35751c-1.94423,-0.88676 -3.15058,-0.59296 -5.30167,-0.37777c-4.28994,0.85962 -8.51408,0.7686 -12.81095,1.25803c-4.30225,0.49004 -8.42966,2.25173 -12.75707,2.75079c-5.12706,0.59128 -10.56302,0.31415 -15.87824,0.12936c0.90703,0.84623 1.89216,1.62889 2.99095,2.3199c0.51361,0.23901 0.76056,0.60168 0.86936,0.95952c0.14425,0.34571 0.18473,0.78343 -0.06028,1.29583l-0.23791,0.70577c-1.91968,4.69988 -5.71388,7.22393 -8.42571,11.33117c-0.70559,1.06867 -1.32477,2.22685 -1.93341,3.40153c-0.55479,1.93048 -1.45502,3.36825 -2.50176,4.73904c0.15009,0.25815 0.23605,0.55821 0.23605,0.87834c0,0.35038 -0.10297,0.6767 -0.2803,0.95038l-1.8407,2.94511l-0.2844,-0.17775c-0.63591,1.41255 -1.30497,2.80746 -2.07525,4.15064c-0.19253,0.33572 -0.40738,0.64249 -0.63689,0.92972c-1.87895,3.36983 -3.91822,6.68804 -5.62895,10.09741l-0.10641,0.08246l0.03655,0.02559l-0.23479,0.33543c-1.28606,3.31844 -2.5736,6.6082 -4.12252,9.67106c-1.85611,3.67027 -1.10429,6.78768 -4.83031,9.26939c-0.25198,0.22936 -0.55435,0.34692 -0.79812,0.40719c-0.22438,0.06374 -0.51718,0.10964 -0.82424,0.05644l-1.46687,-0.02705c-1.0172,-0.23737 -2.14267,-0.19744 -3.05162,-0.71209c-1.46248,-0.82805 -2.18375,-2.37302 -2.85776,-3.94728c-0.34314,-0.22873 -0.66205,-0.49626 -0.95005,-0.78535c-1.24931,-1.2541 -1.90944,-2.66861 -2.39718,-4.17645c-0.84814,-0.86329 -1.59044,-1.81771 -1.60339,-3.19277c-0.00127,-0.13502 0.00444,-0.26899 0.01625,-0.40206h-0.06306v-0.53374c-0.0505,-0.12217 -0.09675,-0.23969 -0.13858,-0.35179c-3.3442,-8.96357 1.47107,-17.1746 3.17256,-25.70767c0,0 0.01192,-0.05958 0.04241,-0.15431c0.02621,-0.096 0.04877,-0.15242 0.04877,-0.15242l0.51634,-1.28942c0.53591,-1.16198 1.30227,-2.15088 2.18001,-3.05917l0.01829,-0.05487l0.0264,0.0088c0.01328,-0.01364 0.02658,-0.02726 0.03991,-0.04087c0.01012,-0.06965 0.02157,-0.13919 0.03444,-0.20864c0.1821,-0.98274 0.67199,-1.72397 1.31484,-2.33923c0.03463,-0.05963 0.06924,-0.11927 0.10387,-0.1789c1.25491,-1.27449 2.95505,-2.56259 3.89865,-4.10219c0.71018,-1.15876 0.80271,-2.62908 1.52073,-3.78299c1.35801,-2.18243 3.99123,-3.68223 5.61801,-5.66206c4.22767,-5.14519 7.19063,-11.09848 10.60274,-16.79089c0,0 0.59016,-0.98359 1.6112,-0.88034c0.98247,-0.10956 1.5955,0.80999 1.5955,0.80999l0.2864,0.4345c0.25595,0.00728 0.54224,0.08137 0.85738,0.25645c0.95938,0.53299 0.98284,1.33338 0.86695,1.85616c2.03086,2.28301 3.72087,4.82348 5.60234,7.20115c6.18908,0.13671 12.71533,0.70763 18.73988,-0.01708c4.31832,-0.51946 8.43815,-2.24673 12.74293,-2.74921c4.2579,-0.49702 8.4372,-0.39319 12.68905,-1.24197c2.80985,-0.2809 4.57607,-0.45275 7.19833,0.62223l0.7011,0.11052c1.76623,0.03101 5.14498,0.29572 6.5426,1.26747c1.86424,1.29618 1.62108,2.60251 2.22537,4.42183c0.99373,2.99177 1.43109,7.20883 0.80584,10.41055c-0.50522,2.58706 -2.64049,4.92902 -3.81531,7.24689l-0.45566,1.59481c-0.19637,0.75171 -0.88005,1.30644 -1.6933,1.30644c-0.9665,0 -1.75,-0.7835 -1.75,-1.75v-2h0.105c-0.02227,-0.15912 -0.03528,-0.31982 -0.03719,-0.48244c-0.00703,-0.59838 0.26393,-1.1253 0.6107,-1.63625c-0.87849,-0.45374 -0.87849,-1.5591 -0.87849,-1.5591z" fill="#30152f"></path><path d="M239.86667,127.63062c0,0 1.75,0 1.75,1.75c0,1.00457 -0.57667,1.43248 -1.06794,1.61475c0.06076,0.01571 0.12126,0.0326 0.18147,0.05084c1.21375,0.36751 2.46001,0.84128 3.70788,1.3234c0.31703,-0.44716 0.83873,-0.73899 1.42858,-0.73899h2c5.50451,0 11.25034,0.04236 16.46946,1.54437c2.91456,-1.16261 6.03238,-2.11437 8.99978,-2.96603c1.93898,-0.53752 3.1073,-1.30657 4.98198,-1.51622c0.07779,-0.04772 0.15576,-0.08787 0.23071,-0.12155c0.24125,-0.12788 0.55922,-0.23822 0.91474,-0.21348c0.65118,-0.0949 1.29831,-0.24326 1.92525,-0.44749l0.00001,0.00004c0.13649,-0.51804 0.532,-1.2686 1.67807,-1.2686c0.46401,0 0.80499,0.12303 1.05556,0.30385c0.06263,-0.01429 0.12824,-0.02645 0.19696,-0.03627c1.55702,-0.22243 1.91457,1.15444 1.97101,1.4355c0.25171,0.38821 0.30888,0.78838 0.30888,0.78838v0.00002c0.32329,2.29282 1.14714,4.46391 1.34496,6.76981c0.10663,1.24293 -0.35339,2.53456 -0.04085,3.74227c0.61894,2.39174 2.15542,4.29987 2.37418,6.92439c0.20491,2.45829 -0.40305,6.01761 0.2758,8.34387c0.01402,0.04804 0.03097,0.09475 0.05039,0.14035c0.26249,0.35139 0.58542,0.67389 0.78222,1.06297c1.35224,2.67353 1.66233,5.50486 2.37864,8.35041l0.04475,1.00583c0.84079,6.76896 2.0393,13.74065 3.69888,20.21945c0.35724,1.39464 1.45683,2.50069 1.95357,3.85195c0.4298,1.1692 0.23649,2.49172 0.55824,3.69515c0.67543,2.52631 2.33159,4.41268 2.75833,7.03709c0.79051,2.74984 1.71733,5.56773 2.53574,8.39099c0.0455,0.04388 0.06975,0.0716 0.06975,0.0716c3.00357,3.49932 3.90285,7.61146 2.965,11.40468c0.8967,2.50867 1.14056,4.82706 -0.80804,7.01317c-0.06851,0.42012 -0.31732,1.21277 -1.22096,1.4289c-0.28208,0.17485 -0.56434,0.24921 -0.68909,0.27564c-0.45671,0.32054 -0.94702,0.5476 -1.47071,0.49601c-0.18615,-0.01834 -0.36756,-0.0529 -0.54512,-0.10071l-0.01515,0.12118l-0.41397,-0.05175c-0.07345,0.80145 -0.22237,1.55741 -0.4945,2.21612c-1.39112,3.36733 -7.00454,8.55855 -10.63174,9.08223c-2.59715,0.37497 -5.60818,0.01691 -8.24273,0.01691h-0.75c0,0 -0.61507,0 -1.11593,-0.36465c-0.60362,-0.01633 -1.21934,-0.06507 -1.84789,-0.14847c-1.96121,-0.26021 -3.98422,-1.3532 -5.85332,-2.57023l-2.02884,-0.45085c-0.11138,-0.02233 -0.21893,-0.05525 -0.32157,-0.09764c-0.62187,-0.07611 -1.23905,-0.12488 -1.82532,0.05674c-1.38769,0.42989 -2.87673,2.16519 -4.17359,2.86383c-1.69113,0.91105 -3.345,1.39616 -4.95516,2.47485c-2.43673,1.22027 -5.15614,2.43091 -7.41739,3.94895c-1.30352,0.87508 -2.69163,2.27568 -4.26181,2.72884c-5.85459,1.68966 -12.61904,-0.73288 -17.22545,-4.0239c-2.44477,-1.74666 -4.38456,-2.62911 -5.24746,-4.8589c-1.24089,0.53582 -2.49582,0.79218 -4.14997,1.34382c-6.77469,2.25926 -13.09557,2.31686 -20.20035,1.84321c-4.2172,-0.28115 -7.76038,-0.8672 -10.69565,-4.06616c-0.25714,-0.20704 -0.41839,-0.47672 -0.51671,-0.70199c-0.14937,-0.31051 -0.28415,-0.77171 -0.12167,-1.25994c-1.00393,-1.61873 -1.45652,-3.35429 -1.54202,-5.13218c0.04777,-0.07381 0.08853,-0.15374 0.12324,-0.23882c2.63184,-2.60136 0.58636,-6.86297 -0.32205,-9.41311c-1.24815,-5.46243 -0.76376,-11.54359 0.69924,-16.83825c0.40838,-1.47794 0.42481,-3.02109 1.26256,-4.35411c1.27694,-2.03187 2.89005,-5.28655 4.50483,-6.98684c0.65821,-0.69307 1.69434,-0.95584 2.33333,-1.66667c1.99555,-2.21988 3.10057,-5.40948 4.73494,-7.85941c3.03057,-4.54286 6.24433,-8.14096 7.74058,-13.46861c1.14831,-1.44755 2.398,-2.82112 3.50208,-4.28046h0.00001c2.3297,-3.07932 2.95064,-7.16914 4.92925,-10.3935c2.3404,-3.81391 5.38112,-6.70533 7.20334,-10.91911c1.62148,-2.41985 1.786,-4.56589 2.6248,-7.20848c0.56816,-1.78996 1.7021,-3.32214 2.23128,-5.18875l0.77831,-1.61675c0.16575,-0.53511 0.49748,-0.82453 0.83926,-0.97871c0.21694,-0.12732 0.48093,-0.21576 0.79197,-0.20765c-1.58881,-3.17924 3.27423,-2.97713 6.32312,-2.97713zM296.73633,233.69335c-0.55621,0.50727 -1.12041,0.99744 -1.6941,1.46589c0.63527,-0.50442 1.27416,-1.05098 1.86942,-1.62404c-0.05793,0.0517 -0.11636,0.10438 -0.17531,0.15814z" fill="#316a70"></path><path d="M247.93399,149.8182l-0.28399,-1.5932c0,-0.82314 -0.02141,-4.21989 0.10452,-4.59574c2.07092,-6.18069 11.53489,-8.96464 17.29755,-7.60744c1.28113,0.30173 3.8257,1.87547 4.58014,3.02284c0.06691,0.10176 0.10297,0.21575 0.12133,0.33671c2.23124,-2.92485 4.0335,-3.58118 7.89646,-3.40636c0.86048,0.03894 1.84365,-0.24674 2.57576,0.20707c0.88917,0.55117 1.23278,1.69053 1.84916,2.5358c0.12878,3.87083 0.43243,8.66246 -1.33653,12.24166c-3.28976,6.65631 -8.18557,12.79578 -8.33488,20.40886c0.05091,0.2747 0.02872,0.5984 -0.11638,0.97524c-0.09901,0.29574 -0.28486,0.63432 -0.63371,0.86343c-0.34228,0.23882 -0.72567,0.28563 -1.03703,0.26772c-0.4228,-0.00548 -0.74144,-0.11444 -0.9816,-0.27556l-1.10302,-0.45479c-1.94129,-1.14029 -2.95623,-2.54149 -4.70125,-3.88425c-1.3516,-1.04003 -3.1054,-1.46405 -4.47462,-2.48077c-2.1357,-1.58588 -2.68652,-3.86991 -4.13637,-5.89632c-1.19825,-1.67476 -3.11245,-3.088 -4.09833,-4.90646c-0.7894,-1.45604 -1.34444,-2.88948 -1.72559,-4.34747c-1.20123,-0.10898 -1.46162,-1.41096 -1.46162,-1.41096z" fill="#30152f"></path><path d="M237.184,86.42218c2.65686,1.54533 4.6949,3.62882 6.79313,5.75069c0.193,0.19518 0.395,0.37704 0.60348,0.54894c1.97691,-0.02795 4.0728,-0.22538 6.01348,0.01397c6.33966,0.78189 12.89349,3.50445 19.45406,2.27494c0.90475,-0.16956 2.81635,-1.62665 3.3562,-1.86892c1.46323,-0.65666 2.3377,-0.9451 3.19227,-1.07701l2.21124,-0.73709c0.16532,-0.05943 0.34216,-0.09469 0.52627,-0.10151c0.16139,-0.23089 0.33283,-0.45638 0.5176,-0.67466c0.90184,-1.06542 2.33194,-1.56892 3.31084,-2.56399c0,0 1.23744,-1.23744 2.47488,0c0.03667,0.03666 0.07115,0.07333 0.10357,0.10997c1.20026,-0.15493 2.82419,-0.31797 3.50473,-0.018c3.76735,1.66056 3.59605,6.66243 2.18408,10.04169c1.81667,1.02263 2.34375,4.16465 3.35492,5.7292c0.05466,0.34626 0.11785,0.68486 0.18606,1.01789c0.66691,1.48054 0.94476,3.15573 0.97126,4.96639c0.06184,0.74992 0.05705,1.52651 -0.05518,2.35412c-0.00831,0.06123 -0.01706,0.12229 -0.02628,0.18315c-0.08072,2.49528 0.06276,5.52042 -1.16938,7.68196c-0.37833,0.6637 -0.83278,1.24725 -1.34354,1.76642l-0.96024,1.39208c-1.65998,1.13787 -3.58823,2.62249 -4.90494,4.147c-1.41974,1.64382 -2.4122,3.93936 -4.41247,5.1042c-2.12082,1.23504 -4.60095,1.55336 -6.6993,2.96745c0,0 -0.04944,0.03297 -0.13619,0.07764c-0.06707,0.03857 -0.14121,0.07656 -0.22139,0.11094c-0.17791,0.17156 -0.37056,0.3216 -0.59428,0.42739c-2.84219,1.34396 -7.93251,0.42795 -11.01887,0.42795c0,0 -0.09554,0 -0.24197,-0.02232c-0.14693,-0.01877 -0.23879,-0.04501 -0.23879,-0.04501l-1.60744,-0.46565c-2.25189,-0.26247 -4.0017,-1.01354 -6.24897,-1.21919c-5.15095,-0.00129 -11.6371,-0.6643 -16.5118,-2.35352c-3.41153,-1.18219 -6.8539,-4.76875 -8.65303,-7.74626c-0.91791,-1.51912 -1.6329,-3.96382 -2.96711,-5.14255c-1.25294,-1.10694 -2.60582,-2.17487 -3.51488,-3.578c0,0 -0.23222,-0.37156 -0.27836,-0.85904c-0.20201,-0.11269 -0.40587,-0.22095 -0.61123,-0.32583c-0.62669,-1.95831 -1.29542,-3.91674 -1.88105,-5.90461c0.2285,-1.14607 0.29421,-2.26173 0.30022,-2.975c0.47251,-3.30759 -0.29434,-6.89754 0.30616,-10.12645c0.5626,-3.02509 2.33171,-5.62171 2.99491,-8.64125c0.41202,-1.87591 0.72264,-3.85342 1.49759,-5.60672c3.38794,1.81095 7.12628,3.03137 10.43974,4.9586zM232.11448,86.15168c-0.08796,-0.0382 -0.176,-0.07628 -0.2641,-0.11427c0.02471,0.02063 0.04941,0.04129 0.0741,0.06197c0.06334,0.01714 0.12668,0.03458 0.19,0.05231z" fill="#ad4eab"></path><path d="M228.50409,111.66502c0.02453,0.11509 0.04755,0.23301 0.06894,0.35401c0.01243,-0.00591 0.02486,-0.01184 0.03728,-0.01777l-0.01815,0.12944c0.0069,0.04159 0.0136,0.08354 0.02011,0.12587l-0.03568,0.12406h0.04008v2c0,0.48384 -0.19636,0.92182 -0.51373,1.2386l-0.03869,0.27588c-0.10083,0.19721 -0.20372,0.39161 -0.3086,0.58336c0.0668,0.3148 0.12581,0.64335 0.17676,0.988l0.01759,1.91415c0,0 0,1.75 -1.75,1.75c-0.61624,0 -1.01548,-0.217 -1.27414,-0.49818c-2.06462,2.53304 -4.43828,4.72937 -6.74942,7.24211c-2.21022,2.40301 -3.99374,4.89982 -6.46302,7.13164c-0.88322,0.79829 -1.9494,1.40716 -3.00938,2.01147c-3.32761,3.30037 -7.08755,6.4522 -10.79056,9.29423c-0.8086,0.15386 -1.6172,0.30772 -2.42579,0.46158l-1.95436,0.02381c0,0 -0.42338,0 -0.85364,-0.20824c-6.59347,0.49611 -13.13791,0.14439 -19.74311,0.34272c-0.10723,0.86371 -0.84384,1.53219 -1.73658,1.53219h-2.33333c-1.02621,0 -1.90827,-0.00552 -2.71665,-0.03387c-0.87704,0.03528 -1.83222,0.03387 -2.95001,0.03387h-2.66667c-0.9665,0 -1.75,-0.7835 -1.75,-1.75c0,-0.75117 0.47328,-1.39181 1.13791,-1.63997l0.73975,-0.2959l0.96823,-0.96823l0.03048,0.03048c0.07241,-0.08298 0.14758,-0.16379 0.22586,-0.24216c1.00341,-1.00464 2.82762,-0.73856 3.93842,-1.62301c1.7339,-1.38058 2.80716,-3.76053 4.72824,-5.04366c3.24623,-2.16821 7.93553,-3.40101 11.73361,-3.94996l0.51023,-0.00982c0.06599,-0.06241 0.13309,-0.12757 0.2013,-0.19573c2.18432,-2.18272 3.65927,-4.68971 6.073,-6.73195c2.52558,-2.13688 5.52274,-4.62326 8.2096,-6.4854c0.55977,-0.38795 1.39678,-0.22419 1.94355,-0.63026c2.45397,-1.82251 4.83983,-5.06607 7.12972,-7.17334c2.47684,-2.27931 5.4207,-3.91879 8.15376,-5.86575c-0.03652,-0.15056 -0.057,-0.31938 -0.057,-0.50868c0,-1.75 1.75,-1.75 1.75,-1.75c0.26326,0.00261 0.51997,0.00014 0.77144,-0.00251c0.33321,-1.05099 0.82942,-2.07174 1.4986,-2.84648c0.12799,-0.84043 0.85378,-1.48434 1.72997,-1.48434c0.23197,0 0.4534,0.04513 0.65599,0.1271c0.34666,-0.03857 0.71495,-0.02369 1.10525,0.05346c0.31679,-0.31747 0.75484,-0.51389 1.23876,-0.51389c0.48325,0 0.92075,0.19588 1.23744,0.51256v0l1.33333,1.33333l-0.03363,0.03363c0.09297,0.08067 0.18235,0.16588 0.26754,0.25639c1.5778,1.67615 2.55898,5.73343 2.61198,7.94743v2c0,0 0,0.28096 -0.11258,0.61774z" fill-opacity="0.97647" fill="#ad4eac"></path><path d="M241.93565,74.98582c0.13256,-0.30482 0.4123,-0.65316 0.99172,-0.57135c0.99401,0.14034 0.88197,1.26595 0.88197,1.26595c-0.03469,0.34842 -0.06442,0.70002 -0.08999,1.05436c1.71197,2.92973 1.798,6.09379 -0.22049,8.6323c-0.09821,3.83469 -0.41899,7.63498 -1.83017,10.973c-0.82256,1.94569 -2.21637,3.251 -3.06317,5.08364c-3.41702,4.18579 -11.49386,4.83569 -16.00535,3.15766c-0.9127,-0.33948 -1.99067,-0.10072 -2.81979,-0.65427c-2.47568,-1.65286 -1.76186,-6.71189 -0.71155,-9.07259c1.55066,-2.41881 1.78082,-5.13546 2.77481,-7.72442c0.45415,-1.18291 1.27586,-1.90887 1.57921,-3.2851c0.35446,-1.60812 -0.19454,-3.78857 0.65028,-5.27832c2.2815,-4.0232 7.43949,-7.05904 11.49917,-7.21726c1.86184,0.644 2.09933,1.70794 3.69252,2.7064c0.8348,0.52318 1.80889,0.58195 2.67084,0.92998z" fill-opacity="0.94902" fill="#e6c1e4"></path><path d="M218.53334,88.63333c-2,0 -2,-2 -2,-2l1.10557,-2.12219c0.60257,-0.30128 1.23809,-0.52177 1.89312,-0.68564c0.05301,-0.06677 0.10821,-0.13259 0.16526,-0.1976l-0.05838,-0.11677l0.31184,-0.15592c0.62985,-0.64416 1.40179,-1.22618 1.94767,-1.90707c0,0 1.51851,-1.30158 2.8201,0.21693c1.20088,1.40103 0.00116,2.61739 -0.19167,2.79722c-0.01133,0.1411 -0.03731,0.27807 -0.07641,0.40939c0.09883,0.04792 0.16972,0.10926 0.19846,0.18742c0.43177,1.17413 -0.19839,2.49413 -0.29758,3.74119l-0.42581,0.3265l0.14428,0.12023l-1.65689,1.98827c-0.3668,0.44654 -0.92325,0.73136 -1.54622,0.73136c-1.01862,0 -1.85938,-0.7615 -1.98406,-1.74627l-0.22709,-1.58963c-0.03988,0.00169 -0.0806,0.00256 -0.12219,0.00256z" fill="#e5c1e4"></path><path d="M205.2,257.3c0,-0.93847 0.64638,-1.72598 1.51823,-1.94159c0.05855,-0.35129 0.1171,-0.70258 0.17565,-1.05387l0.11387,-0.68321c-0.27529,-0.01173 -0.54761,-0.01571 -0.80775,0.012c0,0 -1.45716,0 -1.88391,-1.24379c-0.16109,-0.34791 -0.23223,-0.78345 -0.06083,-1.29487c0.11616,-0.52673 0.40124,-0.8636 0.71837,-1.07905c0.57361,-0.48301 1.22646,-0.44676 1.68163,-0.32641c0.04849,-0.00708 0.09565,-0.01855 0.1415,-0.03414c0.1437,-0.25548 0.39109,-0.59616 0.77122,-0.81876c0.37775,-0.76764 0.5652,-1.90438 0.61891,-2.79642c-0.32701,-0.50405 -0.72613,-1.49574 0.26556,-2.48744c1.41421,-1.41421 2.82843,0 2.82843,0l0.91912,1.74755c-0.03422,1.57288 -0.46091,4.15488 -1.40027,6.05998c0.52549,0.68752 0.37305,1.60216 0.37305,1.60216c-0.11111,0.66667 -0.55556,3.33333 -0.66667,4c0,0 -0.17546,1.05275 -1.03907,1.492c0.04324,0.16358 0.06628,0.33536 0.06628,0.51253c0,1.10457 -0.89543,2 -2,2c-1.10457,0 -2,-0.89543 -2,-2c0,-0.16496 0.01997,-0.32525 0.05763,-0.4786c-0.24569,-0.3322 -0.39096,-0.74317 -0.39096,-1.18807z" fill="#e5c1e4"></path><path d="M253.05696,261.37611c-0.74278,1.85695 -2.59973,1.11417 -2.59973,1.11417l-2.90378,-2.24078c-0.11111,-0.77778 -0.22222,-1.55556 -0.33333,-2.33333c0,0 -0.24443,-1.71103 1.31178,-2.17909c-0.20973,-0.31633 -0.33188,-0.69578 -0.33188,-1.10375c0,-1.10457 0.89543,-2 2,-2c1.10457,0 2,0.89543 2,2c0,0.86964 -0.55504,1.60965 -1.3302,1.88509c0.25136,0.42085 0.3101,0.83207 0.3101,0.83207c0.11111,0.77778 0.22222,1.55556 0.33333,2.33333l0.42955,-0.90744c0,0 1.85695,0.74278 1.11417,2.59973z" fill="#e5c1e4"></path></g><g fill-opacity="0.23529" fill="#2f152f" stroke-width="0.5"><path d="M234.39218,100.50693c2.18197,-0.81824 3.3861,0.51475 3.89286,1.33467c1.01085,-0.45577 1.80961,-0.70182 2.43879,-0.77617c0.09302,-0.09512 0.17378,-0.20079 0.23754,-0.32125c0.53288,-1.00674 0.0906,-6.11608 0.06146,-6.68981l1.12141,-0.67107l0.01572,-0.03929l-0.52145,-0.43454l1.13149,-1.35779c-0.14571,-0.28759 -0.27821,-0.58838 -0.3964,-0.90312c-0.42909,-1.14268 -0.10336,-2.439 -0.15504,-3.65849c0,0 0,-1.1304 0.66667,-2.05788v-3.60879c0,-1.79493 1.45507,-3.25 3.25,-3.25c1.79493,0 3.25,1.45507 3.25,3.25v1.9539c0.49838,0.70367 1.11024,1.34818 1.42431,2.14792c0.0388,0.0988 0.06321,0.20219 0.07768,0.30865c1.3748,1.50938 3.0815,2.78539 5.5236,3.93364c1.13737,0.53478 2.64592,0.59205 4.12687,0.54216c0.21876,0.50199 0.48239,0.95862 0.93783,1.22134c1.20656,0.696 2.75154,0.43661 4.13076,0.63141c0.05194,0.00734 0.10386,0.01452 0.15577,0.02156c0.31396,-0.00726 0.6975,0.01849 1.09186,0.1276c2.64709,0.26207 5.27317,0.19514 7.94798,0.19514c0.70366,0 4.25757,0.03322 4.6697,-0.13321c0.79087,-0.31939 1.26738,-1.14179 1.90107,-1.71269l0.66667,-0.66667c0,0 0.32086,-0.32086 0.47242,-0.79919c1.61755,0.18661 2.87347,1.56085 2.87347,3.22842c0,0.79918 -0.28846,1.53099 -0.76694,2.09699l-1.65301,1.98361l-0.09227,-0.07689l-0.09045,0.27838c-5.89443,5.0682 -12.69462,8.50261 -20.47337,7.27573c-5.3077,0.43531 -10.87399,-0.17839 -14.89872,-1.91672c-0.18702,0.56061 -0.43867,1.19506 -0.76805,1.93813c-0.46839,1.05667 -1.84663,1.43107 -2.55454,2.34476c-0.45074,0.58176 -0.79697,1.23086 -1.10885,1.90218c5.89391,1.3184 10.44375,6.78921 16.1615,9.12426c0.94878,0.09547 1.79631,0.27757 2.39773,0.66713c1.05139,-0.49904 2.02661,-0.21901 2.68978,0.13244h0.24053c0.43158,0 0.84352,0.08412 1.2203,0.23687c0.59775,-0.23405 1.30546,-0.3006 2.06715,-0.28047c1.3946,-0.20814 2.89677,-0.47234 3.50084,-0.72207c2.7451,-1.13489 5.48874,-2.57217 8.57901,-2.75792l0.28827,-0.10483c0.63488,-0.73521 1.24605,-1.50073 1.87685,-2.23666l0.1167,-0.75861c0,0 1.20702,-3.01755 4.22457,-1.81053c3.01755,1.20702 1.81053,4.22457 1.81053,4.22457l-0.63265,1.33885c0.12836,0.34937 0.19843,0.7269 0.19843,1.12079c0,0.89746 -0.36377,1.70996 -0.9519,2.2981l-2.66667,2.66667l-0.03343,-0.03343l-0.05646,0.11993c-0.70463,0.60484 -5.96407,5.12275 -6.02404,5.15603c-4.88591,2.71154 -11.15224,1.39748 -15.50502,-1.62396h-0.01249c-0.50594,0 -0.98487,-0.11561 -1.41183,-0.32185c-2.04669,0.29091 -4.10195,-0.69539 -6.14602,-1.05972c-1.44714,-0.25794 -2.95901,-0.31498 -4.32615,-0.85503c-2.00876,-0.7935 -3.55037,-2.55168 -5.5769,-3.29861c-2.13759,-0.78786 -4.49854,-1.61474 -6.19555,-3.11127c-0.32369,0.0872 -0.63283,0.16093 -0.92799,0.2219c1.43089,0.54331 2.83653,1.33604 3.91052,2.36411c1.09631,0.58473 1.47762,1.46548 1.56937,2.24718c0.12494,0.31331 0.22029,0.63933 0.28199,0.97787c0.24946,0.06547 0.49427,0.1469 0.73295,0.24947c2.92093,1.25527 2.89756,2.14191 5.41989,2.90929c2.39286,0.72799 3.9757,0.42924 5.93163,2.2617l2.92635,1.62575c1.02817,0.54576 1.72841,1.62737 1.72841,2.87254c0,1.01757 -0.46765,1.92591 -1.19975,2.52183c4.19825,-0.12125 8.39854,-0.10517 12.61642,-0.10517c0.81423,0.00163 1.62847,0.00326 2.4427,0.00488l2.22208,-0.2469c2.72055,-1.66173 5.33859,-3.43499 7.70378,-5.80608c0,0 2.2981,-2.2981 4.59619,0c2.2981,2.2981 0,4.59619 0,4.59619c-2.87959,2.87314 -6.05529,4.96 -9.3502,6.97038c-0.16801,0.12599 -0.34863,0.23608 -0.53962,0.32805c-1.85144,1.12191 -3.73721,2.23198 -5.6263,3.45471c-1.83152,1.18548 -3.19749,2.55479 -5.30902,3.32573c-3.95976,1.44574 -8.74885,2.42358 -12.91828,3.15868c-1.59449,0.28112 -3.32808,-0.07431 -4.82754,0.53647c-3.89033,1.58466 -7.66184,4.05925 -11.4935,5.89776c-2.32201,2.35245 -5.26764,3.49776 -7.66183,5.71967c-1.28216,1.18989 -2.2379,2.68907 -3.37529,4.01813l-2.27722,2.92786c-0.2637,0.34583 -0.5952,0.63718 -0.97466,0.85422c-0.78067,1.73899 -1.5582,3.47558 -2.32921,5.21009c-1.57331,3.53938 -3.40232,6.98431 -4.94614,10.54387c-1.72352,3.97391 -2.79233,7.72262 -5.12589,11.44624c-2.50882,2.47542 -3.34493,4.81332 -5.01815,7.85636c-1.87739,3.41436 -3.97951,6.54246 -5.55535,10.10697l-0.47895,0.27985c-0.04955,0.09348 -0.08237,0.14505 -0.08237,0.14505c-1.9193,3.0146 -3.33062,5.29599 -4.55123,8.59877l-0.29376,2.35005c-0.17928,1.62535 -1.55712,2.88966 -3.23025,2.88966c-1.57496,0 -2.88826,-1.12029 -3.18649,-2.60746l-0.63671,-2.86519c-3.51107,-6.49197 -1.77406,-16.17251 1.62154,-22.30547c0.89767,-1.62133 2.05761,-2.7364 3.26535,-3.80986c1.16543,-2.57154 2.49706,-5.22934 3.88974,-7.45111c1.5512,-2.47464 3.75951,-4.51539 5.17656,-7.06922c1.06037,-1.91101 1.63949,-4.07926 2.81673,-5.92057c2.04508,-3.1987 4.75095,-5.87949 6.47736,-9.33649c2.84665,-5.70022 3.75043,-12.07819 7.84271,-17.07622c4.31957,-4.13754 5.93345,-10.59416 7.65713,-16.19068l1.033,-2.75888c0,0 1.07526,-2.86735 3.92161,-1.99163c0.26606,-0.69255 0.52888,-1.38668 0.78746,-2.08281c-2.49323,-1.18671 -4.64543,-3.23588 -5.38854,-5.34469c-0.31075,-0.88184 -0.40497,-1.75545 -0.36615,-2.61992c-0.66239,-0.39152 -1.03122,-0.98983 -1.23659,-1.53475c-0.72719,-1.55505 -0.10433,-2.7114 0.52166,-3.39423l0.3897,-1.05419c1.48344,-1.22549 2.59612,-1.98715 3.71562,-3.64813c0.53656,-0.79608 0.61341,-1.93211 1.23303,-2.63212c-0.83845,-0.58776 -1.38661,-1.56141 -1.38661,-2.66309c0,-1.12784 0.57449,-2.12149 1.44681,-2.7043c0.21127,-0.76127 0.75667,-1.54092 1.99537,-2.00544zM247.83977,142.74541c2.33934,0.12584 4.68959,0.26186 6.94904,-0.26679c1.74408,-0.40807 3.43342,-0.89869 5.08156,-1.48392c-1.84458,0.04875 -3.68855,0.1238 -5.53319,0.23909c-1.41116,0.0882 -2.96296,-0.53363 -4.24115,0.07084c-0.80037,0.37851 -1.54506,0.8759 -2.25625,1.44078zM239.66005,132.85301c0.02926,0.15074 0.04664,0.29937 0.05501,0.44324l0.30178,-0.21556c-0.12062,-0.07341 -0.23958,-0.14927 -0.35679,-0.22768z"></path><path d="M237.38522,242.99007c0,1.6013 -1.15808,2.93212 -2.68239,3.2006c-0.10787,0.4248 -0.25696,0.85249 -0.43121,1.27784c0.07407,0.2724 0.11361,0.55903 0.11361,0.85489c0,1.44506 -0.94312,2.66985 -2.24741,3.09241c-0.72934,0.75182 -1.82377,1.20703 -2.74207,1.73992c-0.54844,0.31826 -1.12907,0.58037 -1.73381,0.79603c0.0367,0.21612 0.05661,0.45059 0.05661,0.70497c0,3.25 -3.25,3.25 -3.25,3.25l-0.52552,-0.20693c-2.20396,0.78846 -3.81995,1.06019 -5.47448,1.06425l-1.98706,0.8516c-0.22415,0.10215 -0.46194,0.17958 -0.70989,0.2288c-0.49367,0.9916 -0.93143,1.95128 -1.22896,2.86702c-1.00388,3.08976 -0.84801,4.00653 -0.82529,6.77467c0.04432,0.45013 -0.0107,0.87107 -0.08502,1.1988c-0.06977,0.3283 -0.19598,0.73296 -0.42432,1.12265c-1.37908,2.95715 -2.85131,5.84647 -4.06236,8.86894c0.85528,-0.43089 2.11256,-0.64735 3.46305,0.53433c2.44587,2.14014 0.30573,4.58601 0.30573,4.58601c-1.32176,1.50095 -2.55033,3.09638 -3.61235,4.79131c0.00137,0.00765 0.00275,0.01529 0.00413,0.02294c0.16204,0.89529 0.71601,2.14808 1.38351,3.44688l0.19277,-0.23132l1.98093,1.65078c0.72562,0.59605 1.18847,1.50028 1.18847,2.51261c0,1.79493 -1.45507,3.25 -3.25,3.25c-0.32207,0 -0.6332,-0.04685 -0.92695,-0.1341l-3.57072,-0.97383c-4.16767,-1.04987 -7.42233,-0.44336 -9.55046,-5.34782c-0.81433,-1.87669 0.03831,-6.49397 0.59342,-8.3662c1.61347,-5.44174 4.20242,-10.21478 6.05985,-15.51873c0.81764,-2.33481 1.07888,-5.56314 2.89355,-7.49907c0.03592,-0.03832 0.07211,-0.07632 0.10858,-0.11402l-0.02994,-0.01871l0.0102,-0.01632c-1.08743,-0.52557 -1.83754,-1.63911 -1.83754,-2.92785c0,-0.22065 0.02199,-0.43616 0.06389,-0.64446l0.6552,-3.60358c-0.03126,-0.40984 -0.03862,-0.7759 -0.02624,-1.10806c-0.82315,-0.58963 -1.35952,-1.55413 -1.35952,-2.6439c0,-1.44084 0.93762,-2.6627 2.236,-3.08869c-0.48858,-0.54787 -1.03639,-1.06224 -1.13107,-1.75882c-0.24715,-1.81841 -0.22346,-3.86383 0.67527,-5.46383c0.72161,-1.28467 1.90182,-2.22475 3.27797,-2.8057c0.73323,-0.785 1.73692,-1.03592 1.73692,-1.03592l2.88004,-0.71246c1.7128,-0.1927 3.60225,0.24107 5.14354,-0.53044c0.37692,-0.18867 0.40343,-0.74213 0.56299,-1.13227c0.77263,-1.88913 1.6929,-3.72438 2.74556,-5.473c0.92676,-1.53949 2.38039,-2.71984 3.29462,-4.26681c0.94715,-1.60267 0.76909,-3.67057 1.51993,-5.37405c2.02797,-4.60097 4.13331,-9.4106 6.42073,-13.94711c-0.20933,-1.15115 0.31393,-2.19768 0.31393,-2.19768l0.57772,-1.07698c2.05297,-2.90426 3.58869,-6.26438 4.83411,-9.71858c0.22995,-1.18011 0.43531,-2.36874 0.61435,-3.56644c0,0 0.20216,-1.34774 1.2174,-2.16684c0.0201,-0.06969 0.04013,-0.13933 0.06009,-0.20892c0.3029,-2.85137 0.67449,-5.69906 1.23863,-8.49821c0.03387,-0.54706 0.07437,-1.09282 0.13086,-1.63545c0.13183,-1.26645 -0.64173,-2.97209 0.31706,-3.80776v-2.53404v0c0,-1.79493 1.45507,-3.25 3.25,-3.25c1.79493,0 3.25,1.45507 3.25,3.25v2.66667h-0.04233c0.00073,0.0024 0.00145,0.00481 0.00217,0.00721l0.04016,-0.00721c0,0.04823 -0.00003,0.09645 -0.0001,0.14466c0.49299,1.75053 0.24937,3.56733 -0.13232,5.39469c-0.23073,5.04834 -0.72857,10.02659 -1.21616,15.10841c-0.30573,3.18634 -0.47208,7.35941 -2.0913,10.36314c-0.91691,5.3609 -1.858,10.7956 -3.37304,15.95308c-1.27807,4.35077 -3.95017,8.51514 -4.90303,12.93323c-0.55588,2.57739 0.45522,5.5014 -0.12437,8.05188c0.11258,0.32964 0.17366,0.68314 0.17366,1.0509zM202.84912,292.23132c0.03492,0.43964 0.16227,0.76889 0.43584,0.87762c-0.08615,-0.28775 -0.16328,-0.57771 -0.23228,-0.86959c-0.06936,-0.00119 -0.1372,-0.0039 -0.20356,-0.00804z"></path><path d="M279.93614,233.54166l1.56991,2.3123c0,0 1.50031,2.25047 -0.28944,4.01404c0.50231,1.18013 0.14192,2.16402 -0.31027,2.82997c0.08561,0.18426 0.131,0.30327 0.1236,0.33582c-0.36254,1.59337 -1.6107,2.78596 -3.13768,3.83265c-2.20287,3.72816 -3.30005,3.46232 -6.09776,6.39354c-2.04758,2.14529 -3.37208,4.96778 -5.6309,6.88856l-1.87754,3.12924c-0.4576,0.79363 -1.24088,1.37579 -2.16727,1.56391c-1.43886,1.59232 -3.04447,3.74109 -5.04198,5.10338c0.12566,0.24501 0.23979,0.53006 0.30898,0.844c0.35335,0.99616 0.77645,1.97515 0.95747,3.01375c0.30749,1.76424 -0.51114,3.6458 -0.06269,5.37474c0.91316,-0.29617 2.19638,-0.32073 3.35137,1.06525c2.0806,2.49672 -0.41612,4.57732 -0.41612,4.57732l-0.35787,0.29822c0.06192,0.22481 0.11335,0.45273 0.15197,0.68447c0.138,0.82799 -0.80372,2.52115 0.03569,2.51798c4.60058,-0.01736 9.1621,-0.89367 13.75628,-0.91406h3c1.79493,0 3.25,1.45507 3.25,3.25c0,1.46198 -0.96533,2.69849 -2.29336,3.10692l-2.9289,0.9763l-0.04212,-0.12637c-0.15206,0.08825 -0.30695,0.17215 -0.46502,0.25118c-1.14909,0.57453 -2.56923,0.0341 -3.85393,0.04197c-4.11066,0.02517 -8.22261,0 -12.33333,0h-2.66667c0,0 -3.25,0 -3.25,-3.25c0,-1.42186 0.62206,-2.22167 1.32188,-2.67156c0.0358,-0.71245 0.16796,-1.45396 0.05342,-2.14118c-0.08578,-0.51466 -0.20655,-0.94716 -0.35106,-1.33047c-0.1413,-0.23951 -0.24314,-0.47374 -0.31234,-0.70108c-0.61616,-1.20072 -1.44494,-2.0435 -1.9583,-4.07569c-0.78587,-3.11097 0.16244,-5.30197 -0.92016,-8.38562c0,0 -0.07834,-0.23501 -0.12687,-0.59689l-0.37324,-0.76418c0.00948,-0.10245 0.01398,-0.20487 0.01378,-0.30726c-1.12466,-0.72061 -1.38475,-2.49943 -1.74722,-3.99793c-1.64972,-2.32965 -3.75355,-4.68735 -2.90221,-7.14271c0.50864,-1.46696 1.58358,-2.86384 2.91215,-3.8008c-0.43947,-0.68654 -0.7664,-1.55926 -0.94209,-2.66804c-0.29074,-1.83481 2.07322,-3.11437 3.39527,-4.41945c1.53114,-1.51149 3.76955,-2.55677 5.93711,-3.63082c-0.00007,-0.01096 -0.00011,-0.02195 -0.00011,-0.03298c0,-3.25 3.25,-3.25 3.25,-3.25l0.589,0.02477c0.19962,-0.41607 0.42022,-0.81972 0.67848,-1.20094c1.76822,-2.61011 3.20182,-3.11177 5.69981,-4.42995c0.25529,-0.48256 0.43693,-0.97149 0.51575,-1.46401c0.3995,-2.49645 0.27144,-5.47069 0.26696,-8.0132c0,0 0,-1.2158 0.74362,-2.16016c-0.02639,-2.0789 0.01047,-4.18896 -0.07537,-6.4051c-0.01836,-0.47414 -0.037,-0.94702 -0.0556,-1.41892c-0.11091,-0.65215 -0.19846,-1.30335 -0.25497,-1.95207c-0.30205,-3.46748 -0.02435,-7.22173 -0.02435,-10.73043l-0.16655,0.02774c0,0 -0.55289,-1.65868 0.36896,-2.9484c-0.29114,-6.79256 -0.80791,-14.22245 1.33786,-20.22049c0,0 1.14115,-3.04307 4.18422,-1.90192c3.04307,1.14115 1.90192,4.18422 1.90192,4.18422c-1.23252,3.07014 -0.79307,6.22936 -0.79307,9.52552c0,4.44444 0,8.88889 0,13.33333v2.66667c0,0 0,0.63457 -0.2804,1.34291c0.04764,1.93888 0.12172,3.86972 0.19805,5.81646c0.99812,5.05919 3.89813,10.56747 2.99063,15.65045c0.51413,0.71783 1.06593,1.40942 1.64264,2.07511z"></path><path d="M301.80189,209.40673c3.25,0 3.25,3.25 3.25,3.25l-0.28011,1.01338c0.67138,1.54933 1.08817,3.19507 1.50173,4.83707c1.40558,0.35815 2.44505,1.63246 2.44505,3.14954c0,0.29529 -0.03938,0.58137 -0.11317,0.8533c0.11317,0.4668 0.11317,0.81337 0.11317,0.81337v2.66667c0,1.79493 -1.45507,3.25 -3.25,3.25c-1.46198,0 -2.69849,-0.96533 -3.10692,-2.29336l-0.93635,-2.80904c-1.58205,-2.15851 -1.4746,-5.39292 -2.59329,-7.82765l-0.28011,-3.65328c0,0 0,-3.25 3.25,-3.25z"></path><path d="M225.64627,105.61612c0.93388,3.11294 -2.17905,4.04682 -2.17905,4.04682c-0.69587,0.20876 -1.38235,0.41426 -2.05761,0.625l-0.54294,0.51206c-0.37273,-0.01688 -0.76373,-0.00034 -1.16566,0.04609c-2.71306,0.93631 -5.20627,2.08751 -7.34866,4.05837c-0.39489,0.75986 -0.68352,1.63614 -1.44788,1.84397c-0.26232,0.07133 -0.52676,0.12598 -0.79298,0.16676l-0.07094,0.04054l0.10635,0.24816l-2.2673,0.9717c-0.3633,0.16556 -0.76244,0.26619 -1.18257,0.28703c-1.87085,2.02601 -3.6682,4.07242 -5.43875,5.95466c-1.0679,1.13526 -2.27884,2.07963 -3.48248,3.02234c-0.05478,0.80863 -0.40535,1.53613 -0.94438,2.07515l-2,2l-0.1361,-0.1361c-0.12735,0.19965 -0.26547,0.3931 -0.41618,0.57928c-0.1494,0.18456 -0.8159,0.45956 -1.68083,0.76706c-1.87402,2.75721 -3.37673,5.65066 -5.56465,8.2348c2.84012,-0.0995 5.70214,0.00686 8.49967,0.00686h0.66667c0,0 3.25,0 3.25,3.25c0,3.25 -3.25,3.25 -3.25,3.25h-0.66667c-4.47644,0 -9.23136,-0.39645 -13.63613,0.591c-5.62457,1.26091 -11.95519,2.30461 -17.80987,2.40256c-0.32324,0.03747 -0.68459,0.0295 -1.0883,-0.03779c-0.97078,-0.1618 -1.59859,-0.56857 -2.00212,-1.05711c-0.41555,-0.47836 -0.71358,-1.1645 -0.71358,-2.14867c0,-0.56672 0.09882,-1.03462 0.262,-1.42093l0.56533,-2.30156c0.7638,-1.13259 1.25786,-2.50448 2.29139,-3.39777c1.95318,-1.68816 4.66302,-2.22018 6.94836,-3.42102c3.96768,-2.08483 7.62573,-3.75028 11.42009,-6.18908c1.87169,-1.20302 3.8758,-2.23416 5.97024,-2.98503c0.33714,-0.12087 0.67945,-0.3232 1.02252,-0.52312c2.29302,-2.72034 5.28038,-4.35806 7.71179,-6.96209c6.01349,-6.44042 12.27276,-13.95389 20.27151,-18.03962c0,0 0.84854,-0.42427 1.85794,-0.35591c-0.42595,-0.5246 -0.8364,-1.17131 -1.22549,-1.95523c-0.82891,-1.67007 0.42504,-4.43144 1.55639,-6.48094c-0.94086,-1.48495 -0.9613,-3.81534 -1.37244,-5.5929c-0.33716,-1.45772 -0.03609,-3.33824 0.57922,-5.11233c-0.08244,-0.04957 -0.166,-0.1006 -0.25068,-0.15312c-4.41459,-2.73797 -2.19567,-11.24239 0.67694,-14.03025c1.46519,-1.42196 3.58269,-1.95963 5.36129,-2.96229c0.15899,-0.13543 0.31102,-0.28245 0.46023,-0.43416c0.20925,-0.86706 0.42694,-1.73344 0.64434,-2.59997c-0.09686,-0.30806 -0.14908,-0.6359 -0.14908,-0.97593c0,-0.42814 0.08279,-0.83695 0.23323,-1.21128l0.9737,-2.59653l0.04387,0.01645l-0.00861,-0.10639c0.07162,-0.16132 0.12839,-0.33852 0.17734,-0.5241c0.19458,-0.94805 0.36738,-1.89831 0.50711,-2.85182l0.88027,-0.48445l-0.38697,-0.32247l1.65078,-1.98093c0.31311,-0.38117 0.71126,-0.68983 1.16545,-0.89698c-2.53539,-3.46225 -3.16447,-6.63227 -3.23021,-10.97977c-0.12725,-0.54638 -0.09683,-1.19553 0.22792,-1.94746c0.20103,-0.56457 0.57486,-1.19898 1.27003,-1.60616c0.67508,-0.43968 1.4097,-0.49033 2.00457,-0.41765c1.4827,0.08306 2.23053,0.88041 2.60771,1.6636l1.63976,1.54094c0.67926,3.27485 3.35983,5.96207 3.98252,9.09257l1.33333,2.33333l-1.00818,0.5761c0.06143,1.20524 0.07,2.41767 0.15912,3.61915l-2.15083,-0.85263c-0.20081,0.15021 -0.40255,0.26624 -0.60281,0.35361c-0.30017,0.76074 -0.62536,1.54592 -0.96911,2.26053c-0.0005,0.15029 -0.01119,0.29818 -0.03144,0.443l-0.32698,2.61581l-0.07858,-0.00982c0.00994,0.10818 0.01771,0.21672 0.02316,0.32563c0.03905,0.78089 -0.31686,1.49919 -0.67362,2.22284c2.80895,2.82043 0.66574,8.69969 -1.47116,12.92955c0.20945,0.5433 0.08717,1.15124 -0.12712,1.77448c0.01261,0.11634 0.01908,0.23451 0.01908,0.3542v3c0,0.14662 0.00234,0.85201 0.00247,1.75329c0.00766,0.60748 0.00713,1.21619 -0.00345,1.82492c-0.00641,1.46155 -0.02353,2.8592 -0.0654,3.07526c-0.04611,0.23793 -0.09551,0.47543 -0.14792,0.71251c-0.40484,4.0391 -1.43425,7.96533 -3.6491,11.41291c-0.09562,0.14883 -0.1945,0.29761 -0.29647,0.44584c-0.3548,1.07288 -0.67607,2.14856 -0.93718,3.23018c0,0 -0.53052,2.12208 -2.46203,2.44913c0.19352,0.28568 0.36018,0.63332 0.48678,1.05535z"></path><path d="M257.00486,62.98953c-0.07644,-0.29328 -0.11963,-0.62477 -0.11963,-0.99946c0,-3.25 3.25,-3.25 3.25,-3.25l3.16339,1.1694c0.49792,0.59916 0.94464,1.23488 1.35462,1.89593l0.11343,-0.11343l2.66667,2.66667v0c0.58813,0.58813 0.9519,1.40063 0.9519,2.2981c0,0.19303 -0.01683,0.38213 -0.0491,0.56592c0.27789,-0.32084 0.51577,-0.49925 0.51577,-0.49925l1.83525,-0.42381l1.36749,-1.13957c0,0 2.49672,-2.0806 4.57732,0.41612c0.76165,0.91399 0.9099,1.77221 0.79177,2.49301c0.39492,0.53811 0.62817,1.20228 0.62817,1.92093c0,1.79493 -1.45507,3.25 -3.25,3.25c-0.29733,0 -0.58534,-0.03993 -0.85895,-0.11471l-2.45695,-0.61424c-0.92647,0.24653 -2.20484,0.2013 -3.2841,-1.23772c-0.67173,-0.89564 -0.80354,-1.71414 -0.68769,-2.40238c-0.59335,0.63719 -1.43962,1.03571 -2.37897,1.03571c-0.42814,0 -0.83695,-0.08279 -1.21128,-0.23323l-2.59653,-0.9737l0.06821,-0.18189l-0.45519,0.00715c-0.89808,-0.63012 -1.79615,-1.26024 -2.69423,-1.89036c0,0 -2.06639,-1.476 -1.24134,-3.64517z"></path><path d="M280.80189,68.5734c-3.25,0 -3.25,-3.25 -3.25,-3.25v-2.66667c0,0 0,-3.25 3.25,-3.25c3.25,0 3.25,3.25 3.25,3.25v2.66667c0,0 0,3.25 -3.25,3.25z"></path><path d="M237.00278,53.67083c-2.70416,1.80278 -4.50694,-0.90139 -4.50694,-0.90139l0.14847,-0.15814c-0.77778,-0.55556 -1.55556,-1.11111 -2.33333,-1.66667c0,0 -2.64463,-1.88902 -0.75561,-4.53366c1.88902,-2.64463 4.53366,-0.75561 4.53366,-0.75561c0.77778,0.55556 1.55556,1.11111 2.33333,1.66667l1.48181,1.84186c0,0 1.80278,2.70416 -0.90139,4.50694z"></path></g><g fill-opacity="0.23529" fill="#2f152f" stroke-width="0.5"><path d="M267.3572,96.36659c0.5343,3.20578 -2.67148,3.74008 -2.67148,3.74008l-2.5343,0.37755c-1.54927,0 -7.28312,0.01872 -7.83417,-0.10888c-1.89629,-0.4391 -3.60583,-1.67096 -5.16162,-3.26281c-0.57487,1.73793 -1.31304,3.34451 -2.37278,4.41978c-0.37398,0.37946 -0.83466,0.63996 -1.32664,0.85749l-0.9539,2.38476l-0.0231,-0.00924c-0.00007,0.02198 -0.00014,0.04395 -0.0002,0.06593l-0.05117,0.04432l0.02681,0.01192l-1.3032,2.9322c-0.21562,0.51601 -0.56049,0.96455 -0.99415,1.30517c0.3941,0.83452 0.81164,1.64709 1.54231,2.12604c1.4236,0.93314 3.27402,0.97745 4.81531,1.69983c1.82827,0.85689 3.56301,1.91143 5.41855,2.70757l0.12421,0.15664l0.03953,-0.06918l2.27856,1.30203c1.00843,0.55173 1.69233,1.62255 1.69233,2.85309c0,1.79493 -1.45507,3.25 -3.25,3.25h-3v-0.21503c-0.27531,0.04919 -0.55319,0.08547 -0.83417,0.10616c-1.11674,0.08222 -1.96065,-1.08435 -2.96723,-1.57493c-4.38029,-2.13483 -8.27886,-3.56546 -11.58319,-7.35799c-0.54001,-0.61979 -1.19239,-1.21043 -1.73553,-1.85364c-0.74404,0.54419 -1.49591,1.37763 -1.96874,2.10064c1.24258,0.38059 2.48675,1.73837 3.61379,2.47824c3.04643,1.99991 4.45563,5.09617 5.07867,8.53202c0.12917,0.10054 0.25677,0.19904 0.38259,0.29539c1.35115,1.03473 4.31846,2.88279 5.23416,4.19916c0.02094,0.03011 0.04172,0.06031 0.06234,0.09061l0.01541,-0.01541l2,2c0.53291,0.53291 0.88161,1.25003 0.9424,2.04765c1.91984,-0.00022 3.83967,-0.00031 5.75951,0.00044c1.60465,0.00063 3.27077,-0.43656 4.81394,0.00334c0.04814,0.01372 0.09616,0.02777 0.14405,0.04214l0.00292,-0.03214l3.63366,0.33033c0.81703,0.06498 1.54895,0.43212 2.08398,0.98965h1.30743c3.5893,-2.55078 7.19259,-5.09342 11.51429,-6.11682c0.04799,-0.01136 0.09602,-0.02251 0.14409,-0.03345l-0.00543,-0.01629l4.92803,-1.64268c0.34346,-0.12348 0.71373,-0.19077 1.09971,-0.19077c1.79493,0 3.25,1.45507 3.25,3.25c0,0.42814 -0.08279,0.83695 -0.23323,1.21128l-0.9737,2.59653l-0.14252,-0.05344l-0.03222,0.44042c-2.67709,3.75047 -5.93128,6.28838 -9.40559,9.26043c-1.8574,1.58889 -3.70391,3.34799 -5.97575,4.24979c-2.50107,0.9928 -6.94623,1.09976 -9.27725,1.49929c-1.55848,0.26712 -7.65367,2.01314 -9.96124,1.70285c-0.01546,-0.00208 -0.03092,-0.00417 -0.04637,-0.00628l0.00059,0.00947l-5.30338,0.33146c-0.07685,0.00544 -0.15444,0.0082 -0.23268,0.0082c-0.08703,0 -0.17326,-0.00342 -0.25857,-0.01014c-2.05955,0.68338 -4.21027,1.09984 -6.09603,2.22951c-4.01045,2.40246 -7.27074,5.6399 -11.00305,8.4445c-1.7977,1.35086 -3.03849,3.01663 -5.06313,3.91779c-0.02726,0.5452 -0.18888,1.05502 -0.45241,1.49701l-1.27725,2.23518c-1.16172,2.21161 -2.75811,3.96795 -4.3575,5.74774c-1.07158,2.59999 -1.64727,5.5145 -2.96351,7.89524c-2.57149,4.65115 -5.81287,8.87828 -8.31473,13.6316c-2.37743,4.51691 -2.93291,9.55147 -5.32499,13.98392c-2.26853,4.20352 -5.65235,8.063 -8.32697,12.0285c-0.28663,0.62618 -0.8048,1.27373 -1.74156,1.56856c-0.57252,0.24989 -1.28487,0.35391 -2.1051,0.05641c-0.8475,-0.20745 -1.38251,-0.68914 -1.72026,-1.21464c-0.61722,-0.76659 -0.68814,-1.59474 -0.57827,-2.27558v-1.65228c0,-4.70898 -1.04088,-10.77629 0.0708,-15.34134c0.89679,-3.68261 3.63668,-6.71396 5.91253,-9.60866c1.65238,-2.10168 4.20843,-6.1748 7.77503,-5.48172c0.41549,-0.87482 0.85757,-1.74736 1.32029,-2.61632l0.01838,-0.07354l0.01838,0.00459c0.05657,-0.10596 0.11344,-0.21187 0.17061,-0.31772c0.02839,-0.15091 0.06434,-0.30124 0.10865,-0.45093c0.21772,-0.73541 0.66,-1.33825 1.20205,-1.88476c1.79312,-3.08737 3.77172,-6.11092 5.6603,-9.01025c1.77377,-3.94888 3.08019,-8.20393 4.65704,-12.12975c1.1794,-2.93631 2.64888,-5.2901 3.55634,-8.35683c0,0 0.93388,-3.11294 4.04682,-2.17905c0.31721,0.09516 0.5924,0.21295 0.83084,0.34777c0.30903,-0.67988 0.6027,-1.37903 0.88229,-2.10325c1.21167,-3.13853 2.49458,-6.28367 4.2448,-9.15686c0.36845,-0.60486 0.58859,-1.32551 0.90304,-1.96743c0.09829,-0.50767 0.20426,-1.01487 0.32136,-1.52146c-0.07059,-0.1244 -0.13063,-0.25695 -0.1789,-0.39846c-0.44696,-1.31034 0.44294,-2.56889 1.32117,-3.82789c0.1652,-0.73647 0.37406,-1.44643 0.93209,-1.89336c0.14606,-0.11698 0.29597,-0.22772 0.44926,-0.33294l-0.13654,-0.11378l1.27539,-1.53046c-1.52157,-1.47483 -3.05631,-3.04209 -3.92144,-4.75506c-0.74798,-1.481 -1.4048,-3.22121 -1.49188,-4.91977c-1.44414,-2.44474 -2.1635,-5.01405 -1.42123,-7.48716c0.35597,-1.18602 1.4503,-2.00886 2.22583,-2.97422c1.79643,-2.23613 3.90969,-3.95412 6.35096,-4.41612c1.0301,-1.60262 2.52107,-2.99266 3.48916,-4.70877l0.29593,-0.15128l-0.10691,-0.09164l0.50369,-0.58764c0.06206,-0.7746 0.43824,-1.36473 0.84923,-1.78681c0.39152,-0.49205 0.97797,-0.96892 1.82206,-1.09623c1.53536,-0.91166 2.13885,-3.5465 2.60978,-5.83767l-0.52856,-0.22653c-1.19495,-0.48029 -2.03861,-1.64999 -2.03861,-3.01673c0,-1.79493 1.45507,-3.25 3.25,-3.25c0.15406,0 0.30562,0.01072 0.45397,0.03145l2.21522,0.2769c0.99327,-0.05059 1.69483,0.33257 2.17959,0.81239c0.51506,0.40796 0.96526,1.02644 1.05955,1.95817c1.39152,1.77028 3.01483,4.69287 4.0644,5.58828c1.88873,1.61132 5.03546,0.66613 7.3606,0.66613l1.4657,-0.28911c0,0 3.20578,-0.5343 3.74008,2.67148z"></path><path d="M203.84098,258.37181c-0.96106,-0.56456 -1.60622,-1.60907 -1.60622,-2.80426c0,-1.18229 0.63131,-2.21713 1.57522,-2.78582l0.74751,-0.46719c-0.20679,-0.42742 -0.32273,-0.907 -0.32273,-1.41366c0,-1.01233 0.46285,-1.91656 1.18847,-2.51261l0.19326,-0.16105c-0.8357,-0.58811 -1.38173,-1.56013 -1.38173,-2.65967c0,-1.29741 0.76023,-2.41726 1.85953,-2.93838l3.27036,-1.63518l0.04078,0.08157c0.17969,-0.11015 0.36403,-0.21351 0.55369,-0.30911c1.61574,-0.81444 3.60254,-0.35855 5.40979,-0.44684c0.32405,-0.01583 0.6406,-0.02622 0.95073,-0.03126c-0.16799,-0.25385 -0.30365,-0.54831 -0.38147,-0.88817c-0.22686,-0.7831 -0.05673,-1.5028 0.1956,-2.05419c0.30751,-0.83076 0.78963,-1.33227 1.31174,-1.62796l1.76014,-1.63895c1.44039,-0.81956 3.07625,-1.2864 4.45707,-2.20276c3.0494,-2.02368 3.1113,-5.00593 4.06519,-7.98205c0.89634,-2.79656 3.03407,-5.36808 4.05423,-8.15333c1.50831,-4.11802 3.80054,-8.43042 4.90076,-12.69622c0.64094,-2.48507 0.91531,-5.06749 1.71865,-7.50492c0,0 0.18677,-0.56031 0.63992,-1.12359c0.38479,-1.34964 0.76194,-2.69974 0.91121,-4.09021c0.45459,-1.82344 0.99858,-3.62771 1.63729,-5.39554c0.09396,-0.80751 0.59167,-2.94626 3.22813,-2.94626c3.25,0 3.25,3.25 3.25,3.25l-0.20693,1.47448c-0.58838,1.55963 -1.10527,3.15025 -1.51098,4.76705c-0.27653,2.41349 -1.15321,4.72003 -1.68427,7.09056c-0.49647,2.2161 0.04259,4.56132 -0.29893,6.80651c-0.44044,2.89551 -1.55846,6.9851 -2.43834,9.80319c-1.3833,4.43045 -4.30853,8.26329 -6.14229,12.38182c-1.73113,3.88802 -0.56207,10.56376 -4.05709,13.69353c-0.03009,0.02694 -0.06026,0.05357 -0.09051,0.07987c0.93366,0.96473 2.10561,1.66875 3.4017,2.59168l0.84684,2.89003c0.89369,1.37593 0.62239,2.51523 0.14748,3.29773c-0.27603,0.59045 -0.75986,1.19536 -1.60794,1.50183c-1.53943,0.96759 -3.17788,1.7859 -4.63601,2.87118c-0.97528,0.7259 -1.60587,1.95435 -2.72901,2.41981c-1.07799,0.44675 -2.36579,-0.12584 -3.49702,0.16045c-0.35733,0.09043 -4.36159,2.40741 -4.80091,2.65873l-0.60376,0.13287c-0.53987,0.22621 -0.98312,0.27546 -0.98312,0.27546c-2.84341,0.31593 -5.68577,0.62859 -8.52468,0.98257c-0.08864,0.04306 -0.22669,0.10504 -0.40184,0.16745l-0.07131,0.03641c0,0 -0.10471,0.0349 -0.28197,0.07255c-0.62713,0.16383 -1.50615,0.23695 -2.33224,-0.23789c-0.53724,-0.27581 -1.04264,-0.76181 -1.38486,-1.58937c-0.20574,-0.42724 -0.3096,-0.82472 -0.33912,-1.19091z"></path><path d="M250.48475,248.65088c1.06379,0 1.77938,0.3482 2.26075,0.81666c0.03146,-0.20484 0.07408,-0.40882 0.12942,-0.61183c0.54234,-1.98963 2.84372,-2.98771 4.23653,-4.50851c0.12297,-0.13427 4.54511,-5.21003 4.60971,-5.26268c0.82139,-0.6694 4.9831,-3.00165 6.31488,-3.75956l0.19908,-0.00655l-0.03061,-0.07142l0.76542,-0.32804c-0.66504,-2.58165 -0.16644,-6.68942 -0.08054,-9.60386c0.00033,-0.32136 0.00097,-0.64273 0.00179,-0.9641c-0.07512,-0.84464 -0.524,-1.82871 0.00757,-2.44704c0.00155,-0.55659 0.00266,-1.11317 0.00266,-1.66975v-2.66667c0,-1.41069 0.89878,-2.61146 2.15495,-3.0609c-0.04063,-0.26575 -0.08001,-0.52604 -0.11743,-0.78c-0.516,-3.5019 -2.38719,-5.70864 -2.98559,-9.24708c-0.2988,-1.76685 -0.25205,-3.575 -0.37807,-5.3625c0,0 -0.21619,-3.2428 3.02661,-3.45899c3.2428,-0.21619 3.45899,3.02661 3.45899,3.02661c0.33414,5.3693 2.44285,8.88529 3.30301,14.05709c0.73447,4.41612 1.48223,10.03478 0.63782,14.47923c-0.30949,1.62894 -1.09278,3.16294 -1.26696,4.81082v2.86905c0,0.00045 0,0.0009 0,0.00135c0.82843,0.84317 1.69457,1.68049 1.71476,1.70056l1.42251,2.04071c0.70471,0.66881 0.90121,1.44571 0.89055,2.12472c0.06542,0.67507 -0.06723,1.46416 -0.71346,2.18699c-2.7191,4.55978 -6.79874,8.07394 -10.70609,11.67888c-0.57934,0.5345 -4.58588,3.81757 -4.96876,3.94463c-1.72776,0.57338 -3.61369,0.47143 -5.43145,0.56977c-1.13991,0.06167 -2.87995,0.09405 -4.50249,-0.24298c-0.01556,0.03681 -0.031,0.07372 -0.04632,0.11075l-1.28629,2.26068c-0.26185,0.64331 -0.75716,1.33994 -1.69406,1.67362c-0.56202,0.26687 -1.26769,0.38758 -2.10342,0.11787c-0.85944,-0.18047 -1.41224,-0.63539 -1.7678,-1.14593c-0.64927,-0.75613 -0.73268,-1.60871 -0.63993,-2.29794c0.01275,-2.031 0.131,-4.06386 0.35213,-6.08258l-0.01988,-1.6411c0,0 0,-3.25 3.25,-3.25z"></path><path d="M210.06808,297.90088c0,3.25 -3.25,3.25 -3.25,3.25h-4.33333c-1.79493,0 -3.25,-1.45507 -3.25,-3.25c0,-0.43041 0.08367,-0.84128 0.23562,-1.21723c-1.53979,-0.8347 -2.34268,-3.62389 -3.02869,-5.30829c0,0 -1.14115,-3.04307 1.90192,-4.18422c3.04307,-1.14115 4.18422,1.90192 4.18422,1.90192c0.42904,1.34595 1.66775,2.28061 2.49847,3.42322c0.49607,0.68231 0.93647,1.40095 1.35389,2.1346h0.4379c0,0 3.25,0 3.25,3.25z"></path><path d="M257.37759,283.77593c2.80935,0.80267 2.37147,3.40935 2.25437,3.92769c0.31114,-0.05274 0.51945,-0.05274 0.51945,-0.05274c5.95053,0 11.87251,-0.15658 17.79706,0.43259l0.39639,0.36605l0.08679,-0.20252l2.26449,0.9705c1.19495,0.48029 2.03861,1.64999 2.03861,3.01673c0,1.54668 -1.08042,2.84101 -2.52771,3.16945l-2.60071,0.65018l-0.03354,-0.13415c-0.21157,0.08694 -0.4276,0.16402 -0.64889,0.22947c-2.44602,0.72339 -5.03791,-0.89456 -7.58641,-1.00162c-4.13051,-0.17351 -9.81352,1.07141 -13.58051,-1.16064c-1.03684,-0.61436 -1.62374,-1.78139 -2.4356,-2.67208l0.03843,-5.30678c0,0 0.89284,-3.12495 4.0178,-2.23211zM258.978,287.86882c0.17985,-0.06153 0.35169,-0.10569 0.50569,-0.13738l-1.16889,-0.57782c0.18689,0.27645 0.40989,0.51314 0.66319,0.7152z"></path><path d="M228.69797,39.99399c2.90689,-1.45344 4.36033,1.45344 4.36033,1.45344l1.13618,2.31229c0.004,0.01253 0.008,0.02507 0.012,0.0376c0.31662,0.52355 0.43122,0.98198 0.43122,0.98198c0.00875,0.12515 0.01749,0.25031 0.02624,0.37546c0.04858,0.13758 0.09771,0.27497 0.14736,0.41218l1.77248,1.51927c0.70403,0.59616 1.15097,1.48655 1.15097,2.48133c0,1.79493 -1.45507,3.25 -3.25,3.25c-0.60731,0 -1.17571,-0.16657 -1.66201,-0.45653l-2.28378,-1.30502l0.22632,-0.39606l-0.38336,-0.3286l-0.82109,-0.13464c-0.09437,-0.29492 -0.18874,-0.58984 -0.28311,-0.88477c-0.88026,-0.61471 -0.74077,-2.21755 -1.16937,-3.26991l-0.86382,-1.68771c0,0 -1.45344,-2.90689 1.45344,-4.36033z"></path><path d="M276.12531,69.26746c-0.01392,0.0141 -0.02785,0.02819 -0.04179,0.04226l-0.91538,2.13589c-0.48029,1.19495 -1.64999,2.03861 -3.01673,2.03861c-1.79493,0 -3.25,-1.45507 -3.25,-3.25v-2.66667h0.85696l0.40582,-0.9469l1.12079,0.48034c0.27584,-0.07611 0.56639,-0.11677 0.86643,-0.11677c0.69101,0 1.33165,0.21566 1.85829,0.58333h1.39171v1.29762l0.73722,0.31595l-0.05511,0.1286c-1.44202,1.45534 -3.03388,2.76887 -4.58557,4.10812l-2.59654,-5.85029c0,0 0,-3.00382 2.88782,-3.23583c0.19968,-0.16437 0.38621,-0.33233 0.53213,-0.51143l5.74672,2.41393c0,0 0,2.30626 -1.94277,3.03325z"></path></g><g fill-opacity="0.09804" fill="#e3a3e3" stroke-width="0.5"><path d="M219.61667,92.3l0.0251,-1.06978c0.5764,-4.53568 1.98525,-8.65561 1.9749,-13.26355c0,0 0,-3.25 3.25,-3.25c3.25,0 3.25,3.25 3.25,3.25c-0.00348,1.77234 -0.19132,3.47114 -0.45773,5.14472c1.70883,1.29604 0.95761,3.54968 0.95761,3.54968c-1.34705,4.03535 -2.24187,8.32991 -4.42537,11.90989l-0.50488,2.18394c0,0 -0.78824,3.15296 -3.9412,2.36472c-3.15296,-0.78824 -2.36472,-3.9412 -2.36472,-3.9412l0.82845,-3.14939c0.59299,-0.92323 1.08466,-1.91599 1.51275,-2.95043c-0.1049,-0.44914 -0.1049,-0.77861 -0.1049,-0.77861z"></path><path d="M199.07369,144.94912c3.01755,1.20702 1.81053,4.22457 1.81053,4.22457l-0.69699,1.73988c-1.0107,2.14638 -0.76363,3.968 -0.17885,5.86709c0.20729,0.37261 0.4266,0.72557 0.67105,1.03744c0.00716,0.34038 0.01705,0.67637 0.02975,1.00827c0.21796,0.61617 0.43732,1.25304 0.63129,1.9223c0.58901,2.03223 0.94892,4.12905 1.5937,6.14427c0.23582,0.73703 0.81715,1.89864 1.05816,2.81007c0.4284,-0.22643 0.91526,-0.36383 1.38601,-0.44086c0.04502,-0.00737 0.09005,-0.01464 0.1351,-0.02182l-0.00785,-0.02356l4.92803,-1.64268c0.34346,-0.12348 0.71373,-0.19077 1.09971,-0.19077c0.51677,0 1.00537,0.12061 1.43919,0.33522c0.30039,-0.39551 0.60827,-0.73221 0.92428,-0.98553c0.07259,-0.05819 0.146,-0.11512 0.22017,-0.17086l-0.05122,-0.0439l0.11256,-0.13132c0.79347,-2.38365 1.78382,-4.63377 2.60514,-7.11468c0,0 1.02774,-3.08322 4.11096,-2.05548c3.08322,1.02774 2.05548,4.11096 2.05548,4.11096c-0.43054,1.28374 -0.9255,2.51408 -1.40889,3.73857c0.1562,0.38041 0.24233,0.79699 0.24233,1.23369c0,0.45274 -0.09257,0.88385 -0.25982,1.27545l-1.30596,3.2649l-0.05175,-0.0207l-0.00102,0.14506c-2.4993,5.00516 -4.55394,10.41894 -7.58021,15.11727c-2.71814,4.21996 -7.4276,8.06894 -9.3437,12.69834c-0.35508,0.85788 0.0071,1.88345 -0.25728,2.77348c-1.15153,3.87653 -3.37695,7.96637 -5.2174,11.5476c-0.77888,1.51558 -0.49584,3.47112 -1.39671,4.91752c-0.05828,0.09357 -0.11778,0.18625 -0.17842,0.2781l0.09216,0.03072l-0.9763,2.9289c-0.40843,1.32803 -1.64494,2.29336 -3.10692,2.29336c-1.79493,0 -3.25,-1.45507 -3.25,-3.25v-2.51518c-0.57503,-4.64116 -0.3835,-8.81246 1.19501,-13.26032c1.11925,-3.15377 3.14108,-5.64206 4.37077,-8.76484c0,0 0.66365,-1.65913 2.23701,-2.02479c0.71389,-1.34149 1.49031,-2.66381 2.30806,-4.07496c0.72853,-1.25718 1.37636,-2.6087 2.04246,-3.95669c-2.87311,-0.84085 -5.65771,-3.90949 -6.66793,-5.36125c-2.43685,-3.50191 -2.89617,-8.56339 -2.91953,-13.39518c-0.38552,-0.8803 -0.6834,-1.80523 -0.85722,-2.79285c-0.47457,-2.69645 -0.83342,-9.43654 2.53956,-11.33452c0.10663,-1.50499 0.42099,-2.99767 1.01458,-4.46631l0.63634,-1.59345c0,0 1.20702,-3.01755 4.22457,-1.81053zM205.82962,176.48114c0.03352,-0.0758 0.06619,-0.17182 0.09828,-0.28005c-0.0495,0.03073 -0.0993,0.06089 -0.14941,0.09047c0.01798,0.06314 0.03503,0.12634 0.05114,0.18958z"></path><path d="M231.2,111.05c3.25,0 3.25,3.25 3.25,3.25l-0.06311,1.69596c0.37478,3.65767 4.45732,5.09432 6.77788,8.00595c1.17969,1.48016 3.65436,2.77501 3.28524,4.63143c-2.0989,10.55604 -9.50584,3.17224 -11.73831,-0.72063c-0.52078,-0.9081 -0.70985,-1.98591 -1.25934,-2.87693c-0.45548,-0.73857 -1.14662,-1.30269 -1.71993,-1.95404c0,0 -0.61399,-0.71632 -0.7944,-1.70787c-0.60998,-1.24107 -0.58704,-2.74785 -0.9249,-4.10315l-0.06311,-2.97071c0,0 0,-3.25 3.25,-3.25z"></path><path d="M196.99551,290.93641c0.89182,-1.11478 1.88158,-1.34813 2.71115,-1.25931c0.39986,-0.18203 0.89073,-0.29377 1.49334,-0.29377c2.55053,0 3.09946,2.00161 3.2176,2.86318c0.56517,0.26704 1.08583,0.57952 1.41383,1.08872c2.5885,4.01853 4.36488,11.03182 -5.67339,8.06271c-1.69535,-0.50145 -2.11922,-3.18631 -2.20845,-5.54701l-0.44652,-0.34644c0,0 -2.53782,-2.03026 -0.50756,-4.56808z"></path><path d="M218.1558,253.5497c-3.42701,0.69285 -6.87788,-1.33767 -7.74947,-4.55689c-0.18212,0.09074 -0.36383,0.1785 -0.53966,0.22386c0,0 -3.25,0 -3.25,-3.25c0,-3.25 3.25,-3.25 3.25,-3.25c0.77996,0.06898 1.59375,0.01302 2.39353,0.00878c1.53074,-1.32319 3.69482,-1.88505 5.71953,-1.82893c0.45792,-0.30767 1.06967,-0.51318 1.88693,-0.51318c3.16908,0 3.24799,3.09018 3.24995,3.24406c0.4519,0.44646 0.87235,0.87104 1.18214,1.18294l2.5222,0.25222c1.6602,0.14559 2.96237,1.53945 2.96237,3.23745c0,1.43141 -0.92539,2.64669 -2.21055,3.08022l-3.59545,1.30744l-0.03799,-0.10448c-1.24718,0.66212 -2.55691,1.01968 -3.8213,0.70997l-1.42386,0.21905l-0.01361,-0.08844c-0.17275,0.04794 -0.34761,0.09011 -0.52478,0.12593z"></path><path d="M260.5307,294.80246c-1.02527,-0.05979 -2.0487,-0.1525 -3.06715,-0.27755c0,0 -3.2249,-0.40311 -2.82179,-3.62802c0.40311,-3.2249 3.62802,-2.82179 3.62802,-2.82179c1.57005,0.20029 3.15567,0.30421 4.73867,0.30824h3.19155c1.79493,0 3.25,1.45507 3.25,3.25c0,1.79493 -1.45507,3.25 -3.25,3.25h-5c0,0 -0.27702,0 -0.6693,-0.08088z"></path><path d="M253.45274,255.13005c-2.49672,-2.0806 -0.41612,-4.57732 -0.41612,-4.57732l1.59093,-1.90559c3.97237,-5.56132 8.76656,-9.27453 14.50328,-11.91229l-0.25946,-0.33359l2.97714,-2.31555c0.55437,-0.43975 1.2556,-0.70239 2.01817,-0.70239c1.79493,0 3.25,1.45507 3.25,3.25c0,0.60731 -0.16657,1.17571 -0.45653,1.66201l-1.30502,2.28378l-0.02509,-0.01434l-0.00727,0.06968c-1.85324,2.95196 -3.75111,4.70308 -6.05873,7.19321c-1.69245,1.8263 -3.29807,5.73227 -5.55405,6.88577c-0.12485,0.06384 -0.25041,0.12599 -0.37664,0.18658l0.04992,0.07211l-4.29972,2.97673c-0.53135,0.37852 -1.18145,0.60115 -1.88355,0.60115c-1.73008,0 -3.14443,-1.35184 -3.24436,-3.05685c-0.16536,-0.10136 -0.33318,-0.22165 -0.50291,-0.36309z"></path></g><g stroke-width="0.5"><path d="M281.93541,77.36668c0.67082,0.33541 0.33541,1.00623 0.33541,1.00623l-0.04582,-0.08541c-0.02682,1.56745 -0.93082,2.8589 -2.19349,3.66229c-0.08191,0.15532 -0.16051,0.31756 -0.23406,0.48852c-0.2018,0.46908 -0.09407,1.40348 -0.32605,2.04538c-0.07,0.61974 -0.27037,1.27929 -0.64252,1.39303c-0.37241,0.11383 -1.93309,-1.2484 -2.23847,-1.53893c-0.65382,-0.62203 -1.00734,-1.22505 -1.3024,-1.77782c-0.18103,-0.0653 -0.35872,-0.14216 -0.53203,-0.23103c-0.87561,-0.44898 -1.52697,-1.46401 -2.26908,-2.09701c0,0 -0.54385,-0.46616 -0.113,-1.01884c0.039,-0.16992 0.11793,-0.28766 0.21164,-0.36908c0.11098,-0.10459 0.27426,-0.18152 0.51447,-0.18152c0.07425,0 0.14117,0.00735 0.20144,0.0206c1.70942,0.27696 6.33902,2.79484 6.58267,0.00577l0.08322,-0.09271l-0.03816,-0.01908l0.33704,-0.67408c-0.00666,-0.07882 -0.01691,-0.15949 -0.03101,-0.24221c0,0 -0.1233,-0.7398 0.61649,-0.8631c0.53742,-0.08957 0.74951,0.27632 0.82532,0.48322c0.07975,0.01238 0.16588,0.0395 0.25839,0.08576zM278.15011,81.48652c0.01896,-0.01062 0.03751,-0.02175 0.05567,-0.03337c-0.05939,-0.00638 -0.11918,-0.01369 -0.17931,-0.02187c0.03336,0.02244 0.06634,0.04536 0.09893,0.0688c0.00824,-0.00444 0.01648,-0.00895 0.0247,-0.01355z" fill-opacity="0.18824" fill="#ad4eac"></path><path d="M279.51896,81.00864c-0.72114,-0.20604 -0.5151,-0.92718 -0.5151,-0.92718l0.22297,-0.74126c-0.00121,-0.01741 -0.00182,-0.03499 -0.00182,-0.0527c0,-0.17942 0.063,-0.34412 0.16808,-0.47319l0.40274,-0.50343c0.02146,-0.1739 0.04292,-0.34779 0.06438,-0.52169c0,0 0.1233,-0.7398 0.86309,-0.6165c0.13259,0.02209 0.23744,0.064 0.32027,0.11789c0.38208,0.03463 0.68144,0.35581 0.68144,0.74691c0,0.12597 -0.03106,0.24468 -0.08593,0.34891l-0.36825,0.73651l-0.07209,-0.03605l-0.01548,0.17214c-0.05464,0.01756 -0.10926,0.03512 -0.1639,0.05268l0.04917,0.06146l-0.36539,0.29232c-0.01788,0.03262 -0.03841,0.06315 -0.06168,0.09105l-0.19531,0.73703c0,0 -0.20604,0.72114 -0.92719,0.5151z" fill-opacity="0.35294" fill="#ad4eac"></path><path d="M273.26459,78.74168c0.67082,-0.33541 1.00623,0.33541 1.00623,0.33541l-0.1298,-0.03863c0.11657,0.07912 0.23314,0.15945 0.34914,0.24128c0.22616,0.01725 0.40086,0.13372 0.40086,0.13372c0.23051,0.15423 0.46102,0.30848 0.69153,0.46272l0.05847,-0.08772l0.74032,0.49355c0.20677,0.13354 0.34366,0.36603 0.34366,0.63049c0,0.41421 -0.33578,0.75 -0.75,0.75c-0.12597,0 -0.24468,-0.03106 -0.34891,-0.08593l-0.73651,-0.36825l0.00961,-0.0192l-0.05064,-0.00294c-0.08986,-0.05971 -0.17972,-0.11942 -0.26958,-0.17912c-0.37194,-0.01524 -0.74198,-0.37354 -1.27,-0.72052l-0.3798,-0.53862c0,0 -0.33541,-0.67082 0.33541,-1.00623z" fill-opacity="0.35294" fill="#ad4eac"></path></g><path d="M282.5267,83.93141c1.11804,-0.55902 1.67705,0.55902 1.67705,0.55902l0.15974,0.32111c0.055,-0.13267 0.11864,-0.27085 0.18828,-0.40261l-0.11486,-0.51688l0.03012,-0.0067c-0.0183,-0.04226 -0.0358,-0.08493 -0.05242,-0.12807c-0.3601,-0.93444 0.46342,-1.97407 0.42125,-2.97461c-0.02326,-0.55205 -0.53046,-1.29949 -0.8086,-2.04171c-0.2797,-0.22419 -0.77283,-0.76909 -0.31995,-1.58427c0.31696,-0.57052 0.7663,-0.67767 1.12339,-0.64979c1.57757,-1.10232 2.3616,0.07176 2.97494,1.14573l0.01211,0.00323c0.10037,0.01834 0.20703,0.04977 0.32016,0.0969c0.36064,0.15027 0.56158,0.36628 0.66744,0.59227c0.1134,0.22231 0.16053,0.51355 0.05774,0.89047c-0.02675,0.09808 -0.0593,0.18602 -0.09654,0.2648c0.63752,1.71031 0.48853,3.46665 0.11631,5.36574l-1.60556,1.41159c0,0 -0.60352,0.34486 -1.16762,0.07021c-1.44851,1.78824 -1.71413,2.24769 -3.83096,-0.11989l-0.31106,-0.61946c0,0 -0.55901,-1.11804 0.55902,-1.67705z" fill="#e5c1e4" stroke-width="0.5"></path></g></g></svg>