<svg version="1.1" xmlns="http://www.w3.org/2000/svg" xmlns:xlink="http://www.w3.org/1999/xlink" width="513" height="386" viewBox="0,0,513,386"><defs><linearGradient x1="240" y1="295" x2="240" y2="334" gradientUnits="userSpaceOnUse" id="color-1"><stop offset="0" stop-color="#110a1c" stop-opacity="0"></stop><stop offset="1" stop-color="#110a1c"></stop></linearGradient></defs><g transform="translate(16.5,13)"><g stroke="none" stroke-miterlimit="10"><path d="M-16.5,373v-386h513v386z" fill="#110a1c" stroke-width="0"></path><path d="M24.10001,187.42946v-17.075h277.66489v17.075z" fill-opacity="0.26667" fill="#ffdada" stroke-width="0"></path><path d="M24.10001,153.09613v-17.075h277.66489v17.075z" fill-opacity="0.26667" fill="#ffca00" stroke-width="0"></path><path d="M24.10001,119.02113v-17.075h277.66489v17.075z" fill-opacity="0.44314" fill="#ffdf5f" stroke-width="0"></path><g stroke-width="1" font-family="&quot;Microsoft YaHei&quot;, &quot;微软雅黑&quot;, STXihei, &quot;华文细黑&quot;" font-weight="normal" font-size="40" text-anchor="start"><text transform="translate(62.8451,117.89375) scale(0.64824,0.54719)" font-size="40" xml:space="preserve" fill="#ffffff"><tspan x="0" dy="0">---------</tspan></text><text transform="translate(197.5102,95.92733) scale(0.16854,0.16854)" font-size="40" xml:space="preserve" fill="#ffffff"><tspan x="0" dy="0">HITS TAKEN</tspan></text><text transform="translate(197.5102,117.89376) scale(0.64824,0.54719)" font-size="40" xml:space="preserve" fill="#ffffff"><tspan x="0" dy="0">---</tspan></text><text transform="translate(255.57111,95.9274) scale(0.16854,0.16854)" font-size="40" xml:space="preserve" fill="#ffffff"><tspan x="0" dy="0">TURNS TAKEN</tspan></text><text transform="translate(255.57111,117.89383) scale(0.64824,0.54719)" font-size="40" xml:space="preserve" fill="#ffffff"><tspan x="0" dy="0">---</tspan></text><text transform="translate(31.60001,116.10931) scale(0.465,0.39252)" font-size="40" xml:space="preserve" fill="#ffdc7a"><tspan x="0" dy="0">1</tspan></text></g><g stroke-width="1" font-family="&quot;Microsoft YaHei&quot;, &quot;微软雅黑&quot;, STXihei, &quot;华文细黑&quot;" font-weight="normal" font-size="40" text-anchor="start"><text transform="translate(62.8451,152.00698) scale(0.64824,0.54719)" font-size="40" xml:space="preserve" fill="#ffffff"><tspan x="0" dy="0">---------</tspan></text><text transform="translate(197.5102,130.04056) scale(0.16854,0.16854)" font-size="40" xml:space="preserve" fill="#ffffff"><tspan x="0" dy="0">HITS TAKEN</tspan></text><text transform="translate(197.5102,152.00699) scale(0.64824,0.54719)" font-size="40" xml:space="preserve" fill="#ffffff"><tspan x="0" dy="0">---</tspan></text><text transform="translate(255.57111,130.04064) scale(0.16854,0.16854)" font-size="40" xml:space="preserve" fill="#ffffff"><tspan x="0" dy="0">TURNS TAKEN</tspan></text><text transform="translate(255.57111,152.00707) scale(0.64824,0.54719)" font-size="40" xml:space="preserve" fill="#ffffff"><tspan x="0" dy="0">---</tspan></text><text transform="translate(31.60001,150.22254) scale(0.465,0.39252)" font-size="40" xml:space="preserve" fill="#cb9c35"><tspan x="0" dy="0">2</tspan></text></g><g stroke-width="1" font-family="&quot;Microsoft YaHei&quot;, &quot;微软雅黑&quot;, STXihei, &quot;华文细黑&quot;" font-weight="normal" font-size="40" text-anchor="start"><text transform="translate(62.8451,186.12028) scale(0.64824,0.54719)" font-size="40" xml:space="preserve" fill="#ffffff"><tspan x="0" dy="0">---------</tspan></text><text transform="translate(197.5102,164.15387) scale(0.16854,0.16854)" font-size="40" xml:space="preserve" fill="#ffffff"><tspan x="0" dy="0">HITS TAKEN</tspan></text><text transform="translate(197.5102,186.12029) scale(0.64824,0.54719)" font-size="40" xml:space="preserve" fill="#ffffff"><tspan x="0" dy="0">---</tspan></text><text transform="translate(255.57111,164.15393) scale(0.16854,0.16854)" font-size="40" xml:space="preserve" fill="#ffffff"><tspan x="0" dy="0">TURNS TAKEN</tspan></text><text transform="translate(255.57111,186.12036) scale(0.64824,0.54719)" font-size="40" xml:space="preserve" fill="#ffffff"><tspan x="0" dy="0">---</tspan></text><text transform="translate(31.60001,184.33584) scale(0.465,0.39252)" font-size="40" xml:space="preserve" fill="#b18faf"><tspan x="0" dy="0">3</tspan></text></g><g fill="#ffffff" stroke-width="1" font-family="&quot;Microsoft YaHei&quot;, &quot;微软雅黑&quot;, STXihei, &quot;华文细黑&quot;" font-weight="normal" font-size="40" text-anchor="start"><text transform="translate(62.8451,220.23358) scale(0.64824,0.54719)" font-size="40" xml:space="preserve" fill="#ffffff"><tspan x="0" dy="0">---------</tspan></text><text transform="translate(197.5102,198.26716) scale(0.16854,0.16854)" font-size="40" xml:space="preserve" fill="#ffffff"><tspan x="0" dy="0">HITS TAKEN</tspan></text><text transform="translate(197.5102,220.23359) scale(0.64824,0.54719)" font-size="40" xml:space="preserve" fill="#ffffff"><tspan x="0" dy="0">---</tspan></text><text transform="translate(255.57111,198.26723) scale(0.16854,0.16854)" font-size="40" xml:space="preserve" fill="#ffffff"><tspan x="0" dy="0">TURNS TAKEN</tspan></text><text transform="translate(255.57111,220.23366) scale(0.64824,0.54719)" font-size="40" xml:space="preserve" fill="#ffffff"><tspan x="0" dy="0">---</tspan></text><text transform="translate(31.60001,218.44914) scale(0.465,0.39252)" font-size="40" xml:space="preserve" fill="#ffffff"><tspan x="0" dy="0">4</tspan></text></g><g fill="#ffffff" stroke-width="1" font-family="&quot;Microsoft YaHei&quot;, &quot;微软雅黑&quot;, STXihei, &quot;华文细黑&quot;" font-weight="normal" font-size="40" text-anchor="start"><g><text transform="translate(62.8451,254.34688) scale(0.64824,0.54719)" font-size="40" xml:space="preserve" fill="#ffffff"><tspan x="0" dy="0">---------</tspan></text><text transform="translate(197.5102,232.38046) scale(0.16854,0.16854)" font-size="40" xml:space="preserve" fill="#ffffff"><tspan x="0" dy="0">HITS TAKEN</tspan></text><text transform="translate(197.5102,254.34689) scale(0.64824,0.54719)" font-size="40" xml:space="preserve" fill="#ffffff"><tspan x="0" dy="0">---</tspan></text><text transform="translate(255.57111,232.38053) scale(0.16854,0.16854)" font-size="40" xml:space="preserve" fill="#ffffff"><tspan x="0" dy="0">TURNS TAKEN</tspan></text><text transform="translate(255.57111,254.34696) scale(0.64824,0.54719)" font-size="40" xml:space="preserve" fill="#ffffff"><tspan x="0" dy="0">---</tspan></text><text transform="translate(31.60001,252.56243) scale(0.465,0.39252)" font-size="40" xml:space="preserve" fill="#ffffff"><tspan x="0" dy="0">5</tspan></text></g><g><text transform="translate(62.8451,288.46018) scale(0.64824,0.54719)" font-size="40" xml:space="preserve" fill="#ffffff"><tspan x="0" dy="0">---------</tspan></text><text transform="translate(197.5102,266.49376) scale(0.16854,0.16854)" font-size="40" xml:space="preserve" fill="#ffffff"><tspan x="0" dy="0">HITS TAKEN</tspan></text><text transform="translate(197.5102,288.46019) scale(0.64824,0.54719)" font-size="40" xml:space="preserve" fill="#ffffff"><tspan x="0" dy="0">---</tspan></text><text transform="translate(255.57111,266.49383) scale(0.16854,0.16854)" font-size="40" xml:space="preserve" fill="#ffffff"><tspan x="0" dy="0">TURNS TAKEN</tspan></text><text transform="translate(255.57111,288.46026) scale(0.64824,0.54719)" font-size="40" xml:space="preserve" fill="#ffffff"><tspan x="0" dy="0">---</tspan></text><text transform="translate(31.60001,286.67573) scale(0.465,0.39252)" font-size="40" xml:space="preserve" fill="#ffffff"><tspan x="0" dy="0">6</tspan></text></g><g><text transform="translate(62.8451,322.57347) scale(0.64824,0.54719)" font-size="40" xml:space="preserve" fill="#ffffff"><tspan x="0" dy="0">---------</tspan></text><text transform="translate(197.5102,300.60705) scale(0.16854,0.16854)" font-size="40" xml:space="preserve" fill="#ffffff"><tspan x="0" dy="0">HITS TAKEN</tspan></text><text transform="translate(197.5102,322.57348) scale(0.64824,0.54719)" font-size="40" xml:space="preserve" fill="#ffffff"><tspan x="0" dy="0">---</tspan></text><text transform="translate(255.57111,300.60712) scale(0.16854,0.16854)" font-size="40" xml:space="preserve" fill="#ffffff"><tspan x="0" dy="0">TURNS TAKEN</tspan></text><text transform="translate(255.57111,322.57355) scale(0.64824,0.54719)" font-size="40" xml:space="preserve" fill="#ffffff"><tspan x="0" dy="0">---</tspan></text><text transform="translate(31.60001,320.78902) scale(0.465,0.39252)" font-size="40" xml:space="preserve" fill="#ffffff"><tspan x="0" dy="0">7</tspan></text></g><g><text transform="translate(62.8451,356.68677) scale(0.64824,0.54719)" font-size="40" xml:space="preserve" fill="#ffffff"><tspan x="0" dy="0">---------</tspan></text><text transform="translate(197.5102,334.72035) scale(0.16854,0.16854)" font-size="40" xml:space="preserve" fill="#ffffff"><tspan x="0" dy="0">HITS TAKEN</tspan></text><text transform="translate(197.5102,356.68678) scale(0.64824,0.54719)" font-size="40" xml:space="preserve" fill="#ffffff"><tspan x="0" dy="0">---</tspan></text><text transform="translate(255.57111,334.72042) scale(0.16854,0.16854)" font-size="40" xml:space="preserve" fill="#ffffff"><tspan x="0" dy="0">TURNS TAKEN</tspan></text><text transform="translate(255.57111,356.68685) scale(0.64824,0.54719)" font-size="40" xml:space="preserve" fill="#ffffff"><tspan x="0" dy="0">---</tspan></text><text transform="translate(31.60001,354.90233) scale(0.465,0.39252)" font-size="40" xml:space="preserve" fill="#ffffff"><tspan x="0" dy="0">8</tspan></text></g></g><g stroke-width="0"><path d="M-16.5,373v-39h513v39z" fill="#110a1c"></path><path d="M-16.5,334v-39h513v39z" fill="url(#color-1)"></path></g><text transform="translate(31.60001,45.32493) scale(0.51831,0.5)" font-size="40" xml:space="preserve" fill="#ffffff" stroke-width="1" font-family="&quot;ヒラギノ角ゴ Pro W3&quot;, &quot;Hiragino Kaku Gothic Pro&quot;, Osaka, &quot;メイリオ&quot;, Meiryo, &quot;ＭＳ Ｐゴシック&quot;, &quot;MS PGothic&quot;" font-weight="normal" text-anchor="start"><tspan x="0" dy="0">LEADERBOARD</tspan></text><text transform="translate(355.26667,208.23125) scale(0.51831,0.5)" font-size="40" xml:space="preserve" fill="#ffffff" stroke-width="1" font-family="&quot;ヒラギノ角ゴ Pro W3&quot;, &quot;Hiragino Kaku Gothic Pro&quot;, Osaka, &quot;メイリオ&quot;, Meiryo, &quot;ＭＳ Ｐゴシック&quot;, &quot;MS PGothic&quot;" font-weight="normal" text-anchor="start"><tspan x="0" dy="0">CONTINUE</tspan></text><text transform="translate(361.34056,241.23125) scale(0.51831,0.5)" font-size="40" xml:space="preserve" fill="#ffffff" stroke-width="1" font-family="&quot;ヒラギノ角ゴ Pro W3&quot;, &quot;Hiragino Kaku Gothic Pro&quot;, Osaka, &quot;メイリオ&quot;, Meiryo, &quot;ＭＳ Ｐゴシック&quot;, &quot;MS PGothic&quot;" font-weight="normal" text-anchor="start"><tspan x="0" dy="0">OPTIONS</tspan></text></g></g></svg>