<svg version="1.1" xmlns="http://www.w3.org/2000/svg" xmlns:xlink="http://www.w3.org/1999/xlink" width="536.5" height="10.4" viewBox="0,0,536.5,10.4"><defs><linearGradient x1="246.11807" y1="180" x2="255.96667" y2="180" gradientUnits="userSpaceOnUse" id="color-1"><stop offset="0" stop-color="#000000"></stop><stop offset="1" stop-color="#000000" stop-opacity="0"></stop></linearGradient><linearGradient x1="233.88193" y1="180" x2="224.03333" y2="180" gradientUnits="userSpaceOnUse" id="color-2"><stop offset="0" stop-color="#000000"></stop><stop offset="1" stop-color="#000000" stop-opacity="0"></stop></linearGradient></defs><g transform="translate(28.25,-174.8)"><g stroke="none" stroke-width="0" stroke-miterlimit="10"><path d="M240,175c116.25594,0 210.5,2.23858 210.5,5c0,2.76143 -94.24406,5 -210.5,5c-116.25594,0 -210.5,-2.23858 -210.5,-5c0,-2.76143 94.24406,-5 210.5,-5z" fill-opacity="0.68627" fill="#e00000"></path><path d="M240,177.5c148.15039,0 268.25,1.11929 268.25,2.5c0,1.38072 -120.09961,2.5 -268.25,2.5c-148.15038,0 -268.25,-1.11929 -268.25,-2.5c0,-1.38072 120.09962,-2.5 268.25,-2.5z" fill="#000000"></path><g><path d="M233.88193,185.2v-10.4h12.23614v10.4z" fill="#000000"></path><path d="M246.11807,185.2v-10.4h9.8486v10.4z" fill="url(#color-1)"></path><path d="M224.03333,185.2v-10.4h9.8486v10.4z" fill="url(#color-2)"></path></g></g></g></svg>