<svg version="1.1" xmlns="http://www.w3.org/2000/svg" xmlns:xlink="http://www.w3.org/1999/xlink" width="548" height="359" viewBox="0,0,548,359"><g transform="translate(34,-1)"><g stroke="none" stroke-miterlimit="10"><g stroke-width="0.5"><g><path d="M268.79658,128.39303c-0.42003,0.0086 -0.85989,-0.06257 -1.2925,-0.22301c-1.18684,-0.44016 -1.97691,-1.42533 -2.07435,-2.44184l-0.30003,-2.4627c-1.0095,-4.60749 -0.62317,-6.72214 -0.42282,-10.973c0.15503,-3.28933 -0.91199,-4.79994 0.3293,-7.983c0.01567,-0.04019 0.03155,-0.08029 0.04763,-0.1203l-0.01796,-0.00538l1.12337,-4.17597c0.01803,-0.07031 0.03982,-0.14016 0.06549,-0.20937c0.03636,-0.09806 0.07946,-0.19202 0.12873,-0.28169c-0.5741,-0.44051 -2.03762,-1.80109 -0.78784,-3.45359c1.52783,-2.02016 4.05494,-0.43624 4.05494,-0.43624c2.46247,1.54949 5.85829,3.55141 8.57237,5.72469c0.35683,0.25144 0.72292,0.55863 1.0983,0.92468c0.72217,0.64245 1.36798,1.29598 1.89805,1.95376c1.17621,1.45958 1.48207,2.56009 1.82379,3.51857c0.30004,0.4481 0.5381,0.94446 0.72602,1.46051c0.38036,0.51307 0.94376,1.01742 1.87707,1.55781c0.95297,0.11627 1.58253,0.57026 1.99007,1.0477c0.42692,0.40824 0.78895,0.96904 0.78114,1.69415c0.84911,3.55899 1.97631,6.63965 1.55034,10.15475l0.87843,1.37604c0.34934,0.36433 0.62217,0.85879 0.72057,1.52983c0.00012,0.0008 0.00024,0.0016 0.00036,0.00241c0.08516,0.45068 0.07767,1.00348 -0.24752,1.49591c-0.31117,0.50018 -0.83105,0.76997 -1.29843,0.91547c-0.00082,0.00029 -0.00164,0.00057 -0.00245,0.00087c-0.6087,0.21392 -1.15055,0.24758 -1.62363,0.17342c-3.78367,0.03781 -6.02827,0.33173 -9.4949,1.54868l-0.26725,-0.01901l0.02555,0.07108l-2.42492,0.41995l-1.96193,1.75871c-0.73838,0.69654 -1.97144,0.92253 -3.15065,0.4852c-1.18684,-0.44016 -1.97691,-1.42532 -2.07436,-2.44183l-0.31032,-2.54724l0.07923,0.00105z" fill="#baafcc"></path><path d="M280.04398,104.57932c0.52123,0.42581 0.87828,0.97862 1.01406,1.5593l1.52163,2.03474c3.24654,1.90855 6.04956,4.32751 6.9645,7.35001c0.03109,0.10273 0.05962,0.20555 0.08576,0.30845l0.04729,-0.00862l1.05926,2.85622c0.19862,0.51498 0.22336,1.06871 0.03127,1.58665c-0.4801,1.29455 -2.13286,1.87539 -3.69151,1.29734c-0.11935,-0.04426 -0.23468,-0.09404 -0.3457,-0.1488l-3.23138,-1.54964l0.01896,-0.0357l-0.16347,-0.03766c-1.97481,-1.17804 -4.0088,-2.19642 -6.08319,-3.11941c-0.02407,-3.40313 0.01594,-6.79507 -0.08616,-10.21667c-0.08499,-2.84804 -0.89028,-5.74356 -1.44656,-8.62425c1.87003,1.7021 3.23797,4.19483 4.30525,6.74802z" fill-opacity="0.38824" fill="#2d1440"></path><path d="M273.58138,130.05205c-1.26541,-0.34086 -1.87375,-0.9983 -2.15748,-1.63128c-0.30966,-0.02635 -0.62574,-0.09565 -0.93804,-0.21147c-0.85263,-0.31621 -1.50048,-0.9137 -1.83387,-1.60202l-1.69999,-3.46327l0.1553,-0.04353l-0.3104,-0.34927c-0.78696,-5.88116 -1.59249,-11.85156 0.35327,-17.28787c0,0 0.8693,-2.34399 3.69151,-1.29734c0.25689,0.09528 0.4832,0.2013 0.68236,0.31532c0.71641,-0.80232 2.03053,-1.08679 3.28382,-0.62199c1.26954,0.47083 2.0851,1.56527 2.08454,2.65462l0.11273,4.2497l-0.06691,-0.0057c0.02064,0.08529 0.04039,0.17069 0.05922,0.25621c0.37423,1.70026 -1.36164,3.16545 -1.10415,4.86989c0.15459,1.02332 0.98498,1.96203 1.2665,2.97801c0.34756,1.2543 0.51583,5.11322 0.58778,6.26523l-0.71292,3.26093c0,0 -0.55232,2.44525 -3.45327,1.66384z" fill-opacity="0.1098" fill="#f2d6ff"></path></g><path d="M267.03484,132.5478c-0.16584,-0.28795 -0.27413,-0.55454 -0.33627,-0.80076c-0.15659,-0.03508 -0.31349,-0.08132 -0.46946,-0.13917c-1.18684,-0.44016 -1.97691,-1.42532 -2.07436,-2.44183l-0.30167,-2.47616c-1.58983,-3.84583 -1.51386,-7.73483 -0.74512,-11.57093c-0.36813,-2.70535 -0.55571,-5.37518 -0.3955,-7.85012c0.23296,-3.59885 2.11695,-7.08973 3.34064,-10.38929c0,0 0.02108,-0.05685 0.06734,-0.14888c0.19678,-0.466 0.5902,-1.02119 1.37281,-1.26283c0.48265,-0.17948 1.10673,-0.231 1.90118,-0.00139c0.80406,0.18409 1.34287,0.53657 1.7037,0.93435c0.36603,0.36355 0.55833,0.76006 0.65088,1.13049c0.05764,0.03955 0.08866,0.06348 0.08866,0.06348c0.62426,0.48385 1.19791,1.01532 1.76109,1.55635c0.78277,0.36138 1.20568,0.8723 1.42885,1.36851c0.49275,0.45491 1.00276,0.89317 1.55538,1.2907c0.23678,0.17033 0.47897,0.33425 0.72503,0.49357c0.06433,0.01989 0.12858,0.0417 0.19268,0.06547c0.51317,0.19032 0.95217,0.48253 1.29307,0.83512c1.17595,0.68217 2.37034,1.34172 3.43405,2.15433l1.58655,2.26615c0,0 0.8922,1.54906 -0.11332,2.63331c0.45718,0.42642 0.84973,0.92773 1.16743,1.47165c2.37812,1.6075 4.35378,3.45604 4.56941,6.36432c0.00641,0.08647 0.01129,0.17275 0.01474,0.25884l0.03569,0.00005l0.45436,3.31524c0.05964,0.36671 0.03028,0.74085 -0.10217,1.09797c-0.4801,1.29455 -2.13286,1.87539 -3.69151,1.29734c-0.2582,-0.09575 -0.49761,-0.2173 -0.7152,-0.35936l-2.72187,-1.70598l0.02615,-0.03457l-0.16738,-0.05877c-1.4408,-1.13993 -3.117,-2.09304 -4.87322,-2.75329c-0.21112,-0.07937 -0.42298,-0.15736 -0.63495,-0.23522c0.56842,1.94377 0.9509,3.87586 0.71661,5.81333c0.05627,0.3122 0.09577,0.62817 0.1219,0.94581l1.09168,2.36829c0.2641,0.56231 0.31885,1.183 0.10509,1.75939c-0.14794,0.39891 -0.40722,0.73004 -0.74079,0.98039c-0.43986,0.82251 -1.42453,1.16855 -1.42453,1.16855c-0.5414,0.19027 -1.08281,0.38054 -1.62421,0.57081c0.06403,0.08852 0.12867,0.17652 0.19393,0.264l0.68923,1.16333c0,0 1.38091,2.39756 -1.22938,3.31491c-1.6602,0.58346 -2.82308,-0.17404 -3.44968,-0.80276c-1.56059,-0.4402 -2.1223,-1.95482 -2.1223,-1.95482c-0.04411,-0.11934 -0.08803,-0.23852 -0.13173,-0.35757c-0.76002,-0.1293 -1.61221,-0.54104 -2.2235,-1.60236z" fill-opacity="0.37255" fill="#2d1440"></path></g><g stroke-width="0.5"><g><path d="M205.91372,254.93874c0,0 0.11857,-0.59285 0.54011,-1.10246c0.08956,-0.40124 0.18354,-0.80177 0.28322,-1.20136c0.51847,-2.07843 1.05628,-4.13013 1.54536,-6.19273c0.21494,-6.03784 2.97192,-11.19136 7.65294,-14.83564c2.71909,-2.11687 3.83839,-4.03812 7.79753,-3.66645c0.31835,0.02989 0.61966,0.07414 0.90514,0.1318c0.21078,-1.09152 0.44297,-2.17718 0.70194,-3.25521c0.77346,0.00038 1.53945,-0.00225 2.28627,-0.01323c0.78383,-0.01153 1.57056,-0.01906 2.35923,-0.02523c-0.52503,2.00183 -0.94503,4.03556 -1.2976,6.08823c0.59035,0.93222 1.01215,2.0148 1.3946,3.14365c0.67591,0.0066 1.2805,0.31123 1.68867,0.78878l1.65096,1.90954l-0.05328,0.04606c0.1065,0.09911 0.20896,0.20313 0.3068,0.31275c1.11496,1.24916 1.76941,4.06042 2.19122,6.55185c0.10417,0.16808 0.20977,0.3352 0.31737,0.50098c0.53909,0.83059 1.52269,1.46445 2.02375,2.28994c0.69293,0.38349 1.16208,1.12194 1.16208,1.96998c0,0.48998 -0.15663,0.94339 -0.42254,1.31287l-1.36613,1.95163c-0.28533,0.41918 -0.70855,0.73696 -1.20443,0.88809c-0.66024,0.95878 -1.22757,1.99402 -2.04512,2.81734c-1.06034,1.06782 -2.74933,1.53918 -3.51238,2.83622c-1.17684,2.0004 -1.96512,4.87839 -2.81264,7.03525c-0.4123,1.04926 -0.19407,2.45074 -1.01125,3.22738c-0.02946,0.028 -0.05997,0.0536 -0.09145,0.07698c-0.0097,0.03227 -0.01952,0.0645 -0.02946,0.0967l0.0307,0.01637l-0.08819,0.16537c-0.08648,0.26657 -0.18173,0.53021 -0.28864,0.79l-0.14892,0.10155l0.06981,0.04188l-1.01039,1.68397c-0.18455,0.65089 -0.57497,1.28025 -0.74517,1.93899c-0.58397,2.26026 -1.14381,4.57212 -2.17583,6.6632c-0.13058,0.65559 -0.58897,1.80622 -2.19798,1.80622c-0.18651,0 -0.35756,-0.01546 -0.51443,-0.04382c-0.35244,0.72804 -0.70901,1.45847 -1.06991,2.19363c-1.40879,2.86982 -1.53828,6.42795 -5.7313,7.0486c-0.67615,0.10008 -1.26065,-0.30017 -1.84017,-0.75406l-0.18249,0.05615l-0.01553,-0.05046c-0.0784,0.03899 -0.15762,0.07655 -0.23774,0.11258c-1.01596,0.45688 -2.22051,0.19065 -3.33355,0.23613c-3.47824,0.14215 -6.99295,0.00124 -10.47488,0.00124h-2.4c-1.24264,0 -2.25,-1.00736 -2.25,-2.25c0,-0.58188 0.22088,-1.11216 0.58336,-1.51158l1.39908,-1.55453c-0.07644,-0.48841 -0.12988,-0.97538 -0.18026,-1.43305c-0.18108,-1.64507 1.74685,-4.18904 2.52659,-5.4719c0.72877,-1.199 1.45172,-2.39228 2.17352,-3.58173c0.44931,-1.25687 1.11126,-2.53826 1.5068,-3.3944c0.01049,-0.02272 0.02099,-0.04544 0.03147,-0.06816c0.20338,-0.84803 0.42781,-1.69394 0.68781,-2.53594c0.48524,-1.57144 0.49777,-3.40933 1.52785,-4.69146c0.38219,-0.47571 0.83477,-0.87599 1.32646,-1.23433c0.82044,-2.62704 1.52731,-5.27997 2.06101,-7.96418z" fill="#a69cb5"></path><path d="M281.98501,232.32956l2.09177,-0.06848c3.13382,1.11947 6.15809,2.22816 9.32013,3.10726c0.29492,-0.53217 0.85593,-1.03833 1.92311,-1.03833c2.25,0 2.25,2.25 2.25,2.25c0,0.39897 0.00036,0.79868 0.00079,1.19903c0.0221,0.173 0.02404,0.36166 0.00062,0.56721c0.00627,5.99575 -0.00492,12.12281 -1.03565,18.02483c-0.63149,3.61595 -2.23269,6.93468 -3.23539,10.43198c0.5292,0.41168 0.86964,1.05456 0.86964,1.77695v2.4h-0.05928l0.05434,0.14901c-0.52729,3.99444 -0.59178,7.20662 -1.75852,10.5921c-0.06221,0.52567 -0.18485,1.03592 -0.4078,1.51993c-0.26979,0.58571 -0.59953,1.11634 -0.98074,1.59706c-0.03434,0.06239 -0.06918,0.12492 -0.10449,0.1876c-0.19737,0.41604 -0.54843,0.88152 -1.16478,1.09344c-4.53722,3.70393 -13.01762,3.30696 -18.02872,3.31086h-1.8c0,0 -2.19469,0 -2.24898,-2.16755c-0.25283,-0.36383 -0.40103,-0.80583 -0.40103,-1.28245c0,-0.17835 0.02075,-0.35185 0.05997,-0.51823l0.58997,-2.75322l0.01814,0.00389c-0.00046,-0.02583 -0.00081,-0.05168 -0.00106,-0.07754c-0.02198,-2.36316 1.75239,-5.10495 2.17123,-7.46805c0.77171,-4.35395 1.02236,-8.82954 1.50276,-13.25551c0.01866,-0.6665 0.03832,-1.3351 0.06023,-2.00622c0.04433,-1.35809 -0.09434,-3.75524 0.15082,-5.63333c-1.39508,-2.32311 -2.61843,-4.73598 -3.45257,-7.4301c0,0 -0.10665,-0.34659 -0.09517,-0.80431c-0.00127,-0.04511 -0.00164,-0.09041 -0.00106,-0.13593c0.04221,-3.32559 3.35957,-6.15957 5.36505,-8.41627l2.08167,-0.75518c0,0 2.25,0 2.25,2.25c0,0.30498 -0.04134,0.56861 -0.11281,0.79651c0.56045,-0.13941 1.12223,-0.27353 1.68507,-0.40313c-0.18509,-0.50673 -0.37458,-1.01183 -0.56769,-1.51541c-0.89053,-3.65532 -2.34947,-7.20794 -3.71119,-10.79531c1.37124,0.2569 2.74996,0.51669 4.14043,0.77597c0.32441,0.06049 0.64933,0.11895 0.97472,0.17547c0.55289,1.43726 1.10293,2.87282 1.60645,4.31546z" fill="#a69cb5"></path><path d="M229.10736,175.2463l2.30622,-1.6473c4.89356,-3.49457 10.74771,-7.19409 16.90957,-5.99982c1.32444,-0.09745 2.71117,-0.13251 4.21019,-0.13251h2.66667c1.38071,0 2.5,1.11929 2.5,2.5c0,0.72435 -0.30806,1.37675 -0.80031,1.83333c0.03251,0.03016 0.06422,0.06117 0.09509,0.09299c0.23176,0.01179 0.46405,0.02598 0.6968,0.04356c3.67946,0.27787 7.023,1.28344 10.35949,2.79512l0.41465,0.06551c0,0 0.94242,0.2356 1.43397,1.01644c0.17496,-1.06838 1.10244,-1.88361 2.22032,-1.88361c0.74548,0 1.40628,0.36254 1.81571,0.92094l2.36395,3.15194c3.17284,2.72746 4.79116,7.19864 6.34377,11.57131c1.18558,1.54271 2.23851,3.19863 3.09778,5.01727c0.69991,1.48133 0.92298,3.13394 1.16499,4.77048c1.32563,2.84123 2.13401,5.86871 3.30375,8.78463c0.48872,1.2183 1.69121,2.23714 1.70508,3.54973c0.00148,0.14001 -0.00054,0.27966 -0.00576,0.41899l0.07925,-0.00661l0.12406,1.48873c3.75902,6.8176 6.18946,14.52566 6.25607,22.32071c0.0101,0.15034 0.00756,0.31197 -0.00982,0.48575c-0.07171,0.71705 -0.3501,1.18149 -0.69543,1.48156c-0.33294,0.31376 -0.82277,0.54457 -1.5434,0.54457v-0.00001c-0.17647,0 -0.33909,-0.01384 -0.48896,-0.03935l-1.51104,-0.16065c-5.54874,-0.00292 -8.74012,1.54575 -13.33371,4.48262c-0.22566,0.17025 -0.4631,0.2846 -0.65909,0.35941c-0.24823,0.09679 -0.58882,0.19126 -0.96354,0.18532l-1.36186,0.15003c-3.02847,-0.53391 -6.22012,-1.82295 -8.13355,-4.54929c-1.42656,-2.03263 -0.61911,-3.30032 -1.29227,-5.39568c-0.86974,-2.70726 -2.4078,-5.30895 -3.22277,-8.07613c-0.12424,-0.42185 -0.23377,-0.84313 -0.33385,-1.26397c-4.69484,-4.38684 -7.79663,-10.05466 -9.97293,-16.21817c-0.09032,0.18414 -0.17636,0.37031 -0.25698,0.55896c-0.76332,1.78605 -0.99529,3.78242 -1.85699,5.52313c-2.06686,4.17524 -4.6859,8.15002 -6.8561,12.32827c-1.8201,5.08846 -3.80211,9.58137 -7.85076,12.84921c-0.4504,0.89534 -0.85269,1.81611 -1.18668,2.77304l-0.50646,1.04948c0,0 -1.00623,2.01246 -3.01869,1.00623c-1.27062,-0.63531 -1.33788,-1.67175 -1.21481,-2.34952c-0.03433,-0.01665 -0.06853,-0.03455 -0.10255,-0.05378c-0.41219,-0.22808 -0.67493,-0.57967 -0.84053,-0.90646c-0.02896,-0.05474 -0.05706,-0.11192 -0.0842,-0.17164c-0.24662,-0.54257 -0.28419,-1.00675 -0.20617,-1.396l-0.00686,-0.23322c-1.56006,-3.6533 -3.18548,-5.15322 -6.85702,-6.84781c-1.21039,-0.55865 -3.01913,-0.86381 -4.6805,-1.30036c-0.45295,0.18363 -0.89399,0.159 -1.26239,0.06153c-0.61988,-0.09853 -1.02493,-0.39479 -1.28963,-0.73992c-0.07094,-0.05459 -0.14297,-0.10828 -0.2157,-0.1614c-0.19354,1.60752 0.0364,3.28454 -0.41676,4.83867c-0.00153,0.00524 -0.00306,0.01048 -0.00459,0.01571l0.00304,0.0003l-0.07802,0.78024c0.05793,-0.01241 0.11571,-0.02321 0.17332,-0.03188l1.66959,-0.02193c0,0 2.5,0 2.5,2.5c0,2.5 -2.5,2.5 -2.5,2.5l-2.33041,-0.02193c-0.0356,-0.00894 -0.07138,-0.01756 -0.10732,-0.02588c-0.37449,0.90841 -1.26871,1.54781 -2.31227,1.54781c-1.38071,0 -2.5,-1.11929 -2.5,-2.5v-0.05594c-0.13332,-0.08738 -0.26062,-0.18589 -0.38096,-0.29725c-1.26646,-1.172 -0.61904,-7.33904 -0.61904,-9.14681c0,-4.23931 0.71201,-8.48933 2.06446,-12.54575c0.15708,-1.89426 0.4275,-3.7714 1.09083,-5.57161c1.27258,-3.45364 2.65813,-6.85403 4.05067,-10.25003c0.65017,-1.94724 1.34278,-3.86418 2.06266,-5.77031c1.2282,-4.62893 3.08827,-8.9959 4.89959,-13.51379c0.34331,-0.8563 -0.06307,-2.0521 0.58958,-2.70415c0.1538,-0.15366 0.31478,-0.29808 0.48177,-0.43476l-0.12099,-0.10587l1.74069,-1.98936c0.43279,-0.49986 1.06047,-0.82634 1.76488,-0.86126c0.188,-0.39553 0.47681,-0.73388 0.83322,-0.98181zM270.50468,177.83251l-0.26484,-0.41617c-0.03,-0.04553 -0.05839,-0.09221 -0.08509,-0.13996c-0.01084,0.0657 -0.02426,0.13303 -0.04044,0.20202c0.12973,0.1183 0.25988,0.23633 0.39037,0.35411z" fill="#111732"></path><path d="M226.90196,252.32924c-0.37682,1.23865 -0.79874,2.62954 -1.81194,3.43559c-0.9614,0.76484 -2.36525,0.70617 -3.58442,0.8575c-2.70219,0.33542 -5.84743,0.0747 -8.58558,0.00767c-1.2005,-0.02939 -2.50051,0.33692 -3.5996,-0.14688c-1.25999,-0.55462 -2.40581,-1.56632 -3.05293,-2.7814c-0.25662,-0.48184 -0.19763,-5.6728 -0.19746,-6.32173c0.00132,-5.24074 1.38307,-9.08935 3.37308,-13.86539c0.63014,-1.49292 1.64382,-2.80143 2.78964,-3.98672c-0.1356,-4.38962 2.99749,-10.17395 3.88915,-14.22825c0.44754,-2.03493 0.35159,-4.47304 1.31122,-6.37607c0.0283,-0.13581 0.05668,-0.2715 0.08518,-0.4071c0,0 0.38613,-1.83413 2.12757,-1.80191c1.214,-0.39953 5.65508,-0.08445 6.67377,-0.03769l2.05875,1.66787c0.54326,0.25641 0.83886,0.70203 0.99969,1.11106c0.1886,0.37175 0.32129,0.85596 0.19004,1.39665c-0.05438,7.08672 -1.24902,14.11914 -1.53636,21.17468l0.1305,1.56601l-0.17884,0.0149c-0.0077,0.38678 -0.01221,0.77364 -0.0132,1.16061c0.21009,1.39804 0.16703,2.8784 -0.00796,4.9982l-0.39153,1.33004c0.0162,3.37324 0.29447,8.06603 -0.66877,11.23235z" fill="#baafcc"></path><path d="M278.87002,255.98c0,-0.15473 -0.00745,-6.10393 0.02175,-6.31208c0.2413,-1.71991 1.04998,-3.34207 1.18592,-5.0735c0.48824,-6.21881 1.11493,-12.46518 2.22658,-18.60549c0.16879,-0.93234 0.4653,-1.80023 0.81217,-2.64347c0.14394,-2.4143 0.6082,-4.71654 1.2206,-7.11055c0.27352,-1.06926 0.25507,-2.30492 0.93084,-3.17754c0.06664,-0.08605 0.13542,-0.17003 0.20614,-0.25211l-0.05223,-0.03324l1.37966,-2.16805c0.22543,-0.36698 0.5532,-0.66434 0.94357,-0.85233c0.46193,-0.40026 0.98299,-0.54237 0.98299,-0.54237c1.68741,-0.44624 3.44664,-0.6664 5.19202,-0.67928l0.18871,0.20548c2.06129,0.12215 2.06129,2.24452 2.06129,2.24452c-0.00004,0.00269 -0.00007,0.00539 -0.00009,0.00808c-0.05908,5.01062 1.3724,10.10559 1.40009,15.19192v1.8c-0.00229,5.28201 0.0089,10.64729 0.19891,15.92979c0.183,5.08754 1.34526,9.63848 -1.31955,14.22782l-0.08625,0.10147c-0.23958,0.44788 -0.62839,0.73222 -0.95502,0.90409c-0.26693,0.15562 -0.62381,0.30642 -1.03028,0.33133c-4.47415,1.00633 -8.41471,1.47984 -13.0277,0.72488l-1.565,-2.34425c-0.47265,-0.33058 -0.70118,-0.81992 -0.81167,-1.21582l-0.00854,-0.01279c0,0 -0.03713,-0.12375 -0.06393,-0.32085c-0.03096,-0.19648 -0.03096,-0.32568 -0.03096,-0.32568z" fill="#baafcc"></path><path d="M271.76565,148.54019c0.50867,7.98021 3.45707,16.80069 1.53717,24.68552l-0.39011,0.27903c0.42554,0.49981 0.76368,1.29363 0.21975,2.3815c-1.00623,2.01246 -3.01869,1.00623 -3.01869,1.00623l-1.88406,-0.96919c-1.65071,-1.15949 -3.68093,-3.7123 -5.61539,-4.3068c-0.69236,-0.21278 -1.51734,0.22329 -2.17152,-0.08647h-2.7228c-0.81736,0 -1.53292,-0.43583 -1.92698,-1.08778c-4.76529,-0.1969 -9.43018,0.60107 -14.24395,1.99805c-2.2199,0.64423 -5.18166,0.53961 -7.26477,1.47261c-2.63814,1.18159 -4.50938,6.32637 -7.54172,6.57708c-3.13556,0.25924 -6.16523,-2.0634 -5.27079,-5.49974c0.03886,-0.14932 0.08589,-0.29492 0.14003,-0.43726l-0.07464,-0.01866l0.3553,-1.4212c-2.71862,-0.87311 -1.71463,-2.70285 -2.10951,-4.64632c-1.35603,-1.13173 -2.58444,-2.42089 -3.1616,-3.77543c-0.36103,-0.84729 -0.4503,-1.98273 -0.48592,-3.1809c-0.12169,-1.0067 -0.14299,-2.08013 -0.11881,-3.16379c-0.05067,-0.51856 -0.1304,-1.0086 -0.26008,-1.44852c0,0 -0.36099,-1.26346 0.43431,-2.13516c0.04428,-0.80126 0.07912,-1.57096 0.07912,-2.28296v-2c0,-4.43791 0.06259,-8.83937 0.20109,-13.27021c0.11378,-3.63977 -0.15593,-7.99129 1.64338,-11.34978c0.97212,-1.8145 2.93075,-2.89148 4.38868,-4.34471c1.30803,-1.30382 2.06522,-3.22511 3.65628,-4.16288c2.38578,-1.40618 3.76462,-0.97959 6.28454,-1.30542c4.63895,-0.59982 8.59907,-0.31195 13.26209,0.01637c3.67167,1.03529 7.20078,2.22861 10.66572,3.8276l0.00734,0.00439c0.45035,-1.46536 2.14088,-1.46535 2.14088,-1.46535c3.66667,0 7.33333,0 11,0h0.4c0.78141,0 1.29145,0.27138 1.62435,0.62565c0.62565,0.6658 0.62565,1.62435 0.62565,1.62435c0,2.06667 0,4.13333 0,6.2v0.4c0,0 0,0.20975 -0.06404,0.50117c-0.42219,6.85235 -0.77641,13.91727 -0.34031,20.75902z" fill="#a69cb5"></path><path d="M276.8206,165.25654c-0.7552,0.65755 -1.30443,1.64405 -2.23954,2.0022c-1.60772,0.61576 -4.82695,-0.03329 -6.45609,-0.26369c-5.04352,-1.07834 -11.07512,-2.20347 -15.56915,-4.88966c-4.60978,-2.75537 -7.14775,-7.6782 -10.83765,-11.34534c-1.88871,-1.87706 -3.25171,-3.73056 -4.9346,-5.74923c-1.5828,-1.89862 -3.3274,-2.96597 -4.82528,-4.81206c-0.13568,0.02032 -0.28152,0.03124 -0.43828,0.03124c-2.25,0 -2.25,-2.25 -2.25,-2.25v-1.6c0.22326,-4.8636 3.40473,-7.63055 7.04089,-10.69751c1.13328,-0.50499 2.17987,-1.2891 3.39984,-1.51496c3.37231,-0.62434 6.25225,0.98812 9.21797,2.11282c3.69731,1.40214 7.69361,2.38955 11.29309,4.03827c2.22784,1.02044 5.0911,2.98885 7.26775,4.03098c3.80009,1.8194 7.42669,2.96532 10.78764,5.6358c0.91782,0.72926 2.06977,1.30592 2.62849,2.33649c0.74655,1.377 0.82929,3.55325 0.74369,5.72154c0.3974,2.56223 -0.07936,6.03571 -0.07936,8.33657v2.4c0,1.07439 -0.75303,1.97289 -1.76009,2.19651c-0.65065,1.61219 -1.60192,3.07201 -2.98933,4.28003z" fill="#6390d6"></path><path d="M277.89905,199.62451c-0.47563,0.01834 -0.84074,-0.09401 -0.84074,-0.09401l-2.88161,-0.90778c-1.14997,-1.03333 -3.98836,-2.79427 -4.04724,-4.50626c-0.38631,0.19858 -0.77085,0.40422 -1.15261,0.62072c-0.46082,0.42432 -0.98232,0.53029 -1.43307,0.51001c-0.46685,0.03082 -1.01261,-0.07247 -1.49525,-0.52709l-1.91952,-1.14911c-0.36429,-0.36684 -0.70011,-0.7523 -1.0161,-1.1504c-0.68766,-0.06276 -1.28587,-0.43492 -1.65423,-0.9761l-1.38195,-1.9742l0.02002,-0.01402c-0.02588,-0.02369 -0.0516,-0.04759 -0.07715,-0.07171c-1.2518,-1.18179 -2.12341,-2.86733 -2.70343,-4.68997c-1.89931,-2.05738 -3.0798,-3.9003 -1.5968,-7.34416c0.22626,-0.52541 0.91785,-1.20208 1.7522,-1.88039l0.52927,-0.97033c-1.03275,-0.94348 -2.1625,-1.6923 -3.38157,-2.36612c-0.41676,0.30852 -0.87803,0.49933 -1.39866,0.4942c-4.01982,-0.03956 -3.92687,-8.04638 -3.26088,-10.27688c1.53158,-5.12946 7.88162,-9.93372 12.59135,-11.68546l1.36947,-0.26109c0.71225,-0.22567 1.2708,-0.088 1.68829,0.16639c0.4354,0.20817 0.85055,0.59359 1.05335,1.29597c0.84122,1.97556 1.53943,4.03883 1.87946,6.15725l0.08332,0.49982c0.69019,-0.45317 1.39547,-0.78518 2.0187,-0.9428c3.82864,-0.9683 7.74033,-0.41315 11.34941,0.88407c1.1427,-0.30029 2.43009,-0.26567 3.4347,0.08403c0.69549,0.2421 1.04156,1.31403 1.20988,2.56658l0.67333,0.67333l-0.56086,0.56086c0.00946,0.17033 0.01682,0.34021 0.02245,0.50817l0.81691,1.77396c-0.26456,-0.01833 -0.53398,-0.0205 -0.80616,-0.01349c-0.00579,0.40442 -0.01391,0.73883 -0.01334,0.9615v1.4c0,0 0,0.12284 -0.0287,0.3111c-0.02413,0.18891 -0.05787,0.30702 -0.05787,0.30702c-0.90441,3.16527 -1.59687,6.06161 -1.88419,9.31837c1.02487,2.22026 2.57074,3.71208 3.66681,5.73418c1.43718,2.65139 0.90395,6.06287 0.90395,8.92934l-0.35435,1.94966c0.03168,0.56954 -0.19693,1.02818 -0.45954,1.36132c-0.22819,0.35403 -0.58429,0.7165 -1.1267,0.87331c-2.20493,1.22624 -4.43695,2.09094 -6.70318,3.22817l-1.43127,0.44101c-0.50938,0.27644 -0.98892,0.28951 -1.39591,0.19103z" fill="#baafcc"></path><path d="M278.15961,198.20095l-2.7511,-0.88641c0,0 -1.5714,-0.5238 -1.56823,-2.02082c-1.015,-0.48281 -1.78083,-1.34104 -2.60068,-3.25679c-1.27835,-2.9871 0.02743,-5.84399 0.03042,-8.85692c0.00462,-4.65099 -1.07781,-9.53605 -1.58693,-14.15781c-0.20603,-1.87032 -0.93553,-6.93734 0.06457,-8.52491c1.95237,-3.09922 5.65245,-2.54682 8.62284,-3.29913c0.25977,-0.13593 0.58068,-0.23104 0.97696,-0.26152c0.63234,-0.04864 1.10014,0.09466 1.44594,0.32557c0.347,0.22909 0.66061,0.60464 0.86116,1.20629c0.12248,0.36742 0.16062,0.69268 0.13984,0.97941c0.1657,2.559 0.09112,5.12508 0.36107,7.67665c0.24692,2.33389 1.30433,4.45618 1.59465,6.75681c0.09803,0.77687 -0.2512,1.59229 -0.04836,2.34859c0.52675,1.96407 1.88291,3.64156 2.40193,5.60769c0.86696,3.28421 1.47118,6.40197 2.03573,9.77247l0.35106,1.92963c0.2318,0.66642 0.11446,1.21197 -0.11476,1.62949c-0.18531,0.44459 -0.54435,0.88146 -1.22438,1.11425c-3.19992,1.64472 -5.33721,1.94373 -8.99173,1.91747z" fill="#721c67"></path><path d="M276.83474,186.00809c-1.25155,-1.51318 -0.8898,-4.1754 -0.96306,-5.94174c-0.17829,-4.29851 -0.20166,-8.57911 -0.20166,-12.88635c0,0 0,-1.69324 1.46888,-2.14196c0.85758,-1.75759 1.92998,-3.11414 3.13457,-4.78359c0.02281,-0.41458 0.15784,-0.79926 0.37525,-1.12415l1.66008,-2.56558c0.33135,-0.66891 0.60642,-1.2214 0.70772,-1.38435c1.88358,-3.03013 4.058,-5.90569 6.28627,-8.73638c2.4068,-4.11284 5.06538,-8.10923 7.49987,-12.04135c1.00279,-1.61968 2.44557,-2.95974 3.31742,-4.65349c1.74014,-3.38062 2.04474,-7.81822 4.10215,-10.97779c0.95558,-1.46747 2.4992,-2.52379 3.32279,-4.06921c1.44211,-2.70603 2.54195,-5.21779 4.30059,-7.76673c0.89549,-1.39292 2.0767,-2.58062 3.07291,-3.90339c1.48518,-1.97201 1.90568,-4.68514 2.99306,-6.86622c0.92026,-1.84588 1.91584,-3.66181 2.97794,-5.43766c-0.18869,-0.88933 0.30116,-1.70576 0.30116,-1.70576c2.52904,-4.19183 4.14397,-8.81646 5.81483,-13.41131l0.63392,-1.74327c0.06459,-0.49587 0.32015,-0.88517 0.58096,-1.16297c0.2418,-0.30163 0.59796,-0.61404 1.09071,-0.74453c4.39423,-2.24498 9.42628,-3.55448 13.62605,-6.09426c4.53544,-2.74278 7.26349,-6.83944 10.011,-11.14986c0.14831,-0.43643 0.30073,-0.87148 0.45736,-1.3051c0,0 0.03346,-0.09199 0.10559,-0.23063c0.18947,-0.39896 0.54067,-0.90476 1.15721,-1.13742c0.3836,-0.16114 0.86526,-0.21245 1.4591,-0.03157c0.6014,0.15389 0.98634,0.44791 1.23044,0.78486c0.406,0.51906 0.44339,1.13368 0.39807,1.57302c-0.01036,0.15594 -0.02956,0.25193 -0.02956,0.25193l-0.02687,0.09343c-0.03296,0.14639 -0.0649,0.23423 -0.0649,0.23423c-0.00382,0.01043 -0.00764,0.02085 -0.01146,0.03128l-0.40484,1.40777c-0.06539,0.10274 -0.13079,0.20538 -0.19622,0.30791c-3.84976,11.48452 -4.65846,24.06327 -4.65202,36.08412l-0.18148,2.08484c-0.0016,0.29287 -0.05926,0.56015 -0.12302,0.76711c-0.06392,0.21333 -0.16871,0.47608 -0.33847,0.72662c-2.91156,5.12338 -7.59027,8.91988 -11.26177,13.4415c-1.04649,1.28881 -1.8233,2.63937 -2.73348,3.94405c0.26696,0.97402 -0.33965,1.88394 -0.33965,1.88394c-2.27585,3.41342 -5.19339,6.88652 -7.11297,10.45838c-2.00183,3.72491 -4.24623,8.57234 -7.08206,11.79351c-1.68207,1.91063 -4.17305,2.92741 -5.55169,5.26424c-2.11651,3.58755 -4.71015,7.18387 -7.70022,10.19185c-1.42829,1.55444 -2.66025,3.21514 -3.99692,4.80541c-2.81885,5.44774 -6.36298,10.29622 -10.58718,14.77781c-3.63878,3.86049 -8.31633,6.37062 -10.95601,10.95453c-1.1228,3.6781 -3.77578,6.72214 -7.57036,2.1343z" fill="#f0bcd4"></path><path d="M197.09318,281.86127c1.28697,-0.86017 4.67597,-1.17503 6.06856,-1.85654c1.6759,-0.82016 2.0326,-2.10108 4.33155,-2.10108c2.24201,0 2.52454,1.21338 3.67879,2.11516c1.21862,0.95207 3.3876,1.11008 4.58678,2.04515c1.0007,0.7803 1.81866,1.69304 2.52663,2.63765c1.4371,0.43058 2.69396,1.54937 3.63956,2.15354c0.88538,0.56569 2.05398,0.28525 3.04456,1.11313c1.4281,1.19354 0.62301,5.99137 -0.70303,7.65553c-0.49928,1.19384 -2.62786,1.04217 -4.04999,1.47917c-4.49337,1.38077 -8.76096,1.28843 -13.54597,3.18397c-0.89287,0.3537 -5.05418,2.48791 -6.22149,1.6738l-0.35725,-0.31957c-2.45933,-0.53515 -5.6074,-2.38879 -7.76661,-3.98425c-0.51977,0.07548 -1.0765,0.04919 -1.65058,-0.11293c-2.37351,-0.67026 -3.86198,-4.6173 -2.23206,-5.70668c0.01776,-0.01187 0.03577,-0.02368 0.05402,-0.03544c0.6294,-1.76938 2.04754,-2.41662 3.15614,-4.01971c0.42073,-0.60839 1.42689,-2.77967 2.62725,-2.83278c0.51164,-0.02264 1.17046,-0.97805 1.92923,-1.46888c0.20334,-0.74736 0.50716,-1.36743 0.88393,-1.61925z" fill="#baafcc"></path><path d="M290.36368,279.65c3.95949,0 6.50084,4.83245 9.28974,7.08654c0.52872,0.42733 1.20792,1.92148 1.70186,2.00051c1.74656,0.27945 4.90561,1.10313 6.32805,2.05878c1.06691,0.71678 1.4855,2.46647 0.84631,3.58504c-0.37277,0.65234 -1.03402,1.01317 -1.79219,1.18626c-0.23415,0.74265 -0.60191,1.34529 -1.05412,1.6037c-1.53793,0.87882 -3.9921,-0.1855 -5.57979,-0.1875c-5.25842,-0.00663 -12.88995,0.78772 -18.77372,-0.78555c-2.08395,0.07344 -4.16572,0.12524 -6.2435,0.11888c-3.36479,-0.01029 -8.41909,2.57601 -10.08849,-0.34546c-0.36372,-0.21466 -0.66834,-0.51879 -0.88359,-0.88212c-4.71196,-4.01886 1.27186,-7.93288 1.58992,-9.02242c0.17615,-0.60343 0.72319,-2.13659 1.5364,-2.18176c0.39131,-0.25403 0.85814,-0.40157 1.35944,-0.40157c0.02735,0 0.0546,0.00044 0.08174,0.00131c1.20033,-3.70984 5.14385,0.33059 5.26476,0.33417c0.92139,0.0273 7.26137,-3.57803 9.0296,-4.20719c1.31177,-0.46674 6.5389,-1.44371 7.38555,0.03792z" fill="#baafcc"></path></g><path d="M202.1258,93.29303c0.06784,-0.83074 2.1554,-2.31075 3.91441,-3.43722c-0.00454,-0.07187 -0.00687,-0.146 -0.00687,-0.22248c0,-2.5 2.5,-2.5 2.5,-2.5l0.10856,0.004c0.28048,-0.06071 0.59721,-0.06768 0.95185,0.00745c2.31842,-0.37205 4.6909,-0.41932 6.98222,-0.93232c1.40719,-0.31506 3.11234,-1.74713 4.33399,-2.22217c2.45305,-0.95388 4.99322,-1.75768 7.59368,-2.1638c6.73152,-1.05129 15.54245,-0.48519 21.85224,1.77936c2.26991,0.79083 4.26268,2.24826 6.2376,3.61852c0.19538,0.13556 0.39306,0.26719 0.59282,0.39534l-0.38079,-0.57119c-0.27681,-0.40239 -0.43883,-0.88987 -0.43883,-1.41519c0,-1.38071 1.11929,-2.5 2.5,-2.5c0.62635,0 1.1989,0.23034 1.63756,0.61093l2.32275,1.99093c4.17498,3.5787 7.54556,7.55258 11.40498,11.39717c6.64717,5.90647 6.64743,16.20552 6.51482,24.97168c0.2324,0.3842 0.42252,0.78629 0.53613,1.22096c0.689,2.63608 0.22635,4.97262 -0.76583,7.14231c-0.23962,2.60327 -0.79498,5.3766 -2.0861,6.44946c-1.03656,0.86134 -2.31462,0.93016 -3.65146,0.75583l-0.43609,0.31149c-0.41378,0.3034 -0.92435,0.48258 -1.47677,0.48258c-1.02996,0 -1.91445,-0.62284 -2.29737,-1.51243c-0.48853,-0.02966 -0.95687,-0.00861 -1.3943,0.09534c-1.72468,0.40986 -4.18647,2.95531 -5.70331,4.23213c-0.30218,0.3898 -0.76694,0.72188 -1.48175,0.82129c-0.46426,0.11091 -1.03258,0.11992 -1.59578,-0.19133c-0.44129,-0.19836 -0.73948,-0.50766 -0.94098,-0.83509c-5.30448,-2.38364 -12.52108,-3.24038 -17.42591,0.56127c-0.6937,0.53767 -0.96048,1.53193 -1.69122,2.01807c-1.7547,1.16735 -3.94517,1.63357 -5.59451,2.94556c-2.17329,1.72878 -4.20443,4.02826 -6.56855,5.49673c-6.42,3.98775 -13.23809,7.99301 -20.74848,9.35835c-4.47583,0.0101 -8.59583,-0.60274 -12.96616,-1.3568c-1.59887,-0.27587 -3.41871,0.17937 -4.82703,-0.62631c-5.18905,-2.96854 -1.84148,-7.84248 -2.55787,-12.06073c-0.33814,-1.99101 -2.21642,-3.92678 -3.72427,-5.12596c-0.90842,-0.72246 -2.31482,-0.92865 -2.89597,-1.93335c-2.60565,-4.5047 1.86438,-11.80753 4.13275,-15.76776l0.1101,-0.526c0.56722,-0.94185 0.92562,-2.0467 1.70165,-2.82554c2.36692,-2.37549 4.9274,-2.19104 6.63798,-5.18541c2.29536,-4.01802 2.8846,-8.80039 4.90697,-12.82314c1.2569,-2.50013 2.91227,-4.27414 4.77476,-5.80184c-0.50476,-0.85382 -0.75049,-2.18511 -0.59161,-4.1307z" fill="#721c67"></path><path d="M248.67386,44.36472h2.8239c3.10179,0.00209 6.57749,-0.29387 9.34998,1.46863c3.68106,2.34011 6.90299,7.45136 8.71373,11.22019c1.23576,2.57207 3.34982,5.77222 2.40956,8.87055v2.60667c0,0.39555 -0.09398,0.76914 -0.26083,1.09969c0.05709,0.36059 0.03516,0.62382 0.03516,0.62382c-0.27109,2.9562 -1.24711,5.33925 -1.9674,8.18594l-0.02383,0.28595l0.72557,0.30233l-1.06433,2.55441c-0.15387,0.39452 -0.4073,0.73924 -0.72939,1.00327c0.3962,2.85574 -2.10386,6.9851 -4.09094,8.65851c-0.4953,0.41711 -1.04709,0.75709 -1.60916,1.08304l-0.49923,0.59l-0.21345,-0.18062c-0.01351,0.00781 -0.02701,0.01564 -0.0405,0.02347c-0.99048,1.42844 -2.37521,2.25639 -5.31304,3.10851l-1.82521,0.61237c0,0 -0.1484,0.04947 -0.38264,0.08582c-0.23371,0.03959 -0.39014,0.03957 -0.39014,0.03957c-0.02135,-0.00064 -0.04272,-0.00126 -0.06408,-0.0019c-0.07361,0.0007 -0.15013,-0.00127 -0.22871,-0.00678c-0.99904,-0.0296 -1.99808,-0.05919 -2.99713,-0.08878l-0.19558,-0.25528l-1.52491,0.12707l-0.97338,0.00545c-0.56108,0.13424 -1.07425,0.00411 -1.46934,-0.17999c-0.40295,-0.14679 -0.84975,-0.41132 -1.15152,-0.88807c-1.86585,-1.81422 -3.91366,-3.39732 -5.88107,-5.05379l-0.05842,-0.02149c-0.00845,-0.00844 -0.07341,-0.07338 -0.18022,-0.18017c-1.29947,-1.10224 -2.55895,-2.24214 -3.70203,-3.50839l-0.02887,-0.15258l-0.05567,0.03897l-1.5034,-2.14771c-0.28881,-0.4013 -0.45891,-0.89375 -0.45891,-1.42593c0,-0.12854 0.00993,-0.25477 0.02904,-0.37795c-0.12938,-0.17553 -0.26248,-0.35315 -0.39996,-0.53302c-1.40153,-1.83374 -3.07788,-3.63732 -3.67924,-5.86562c-0.37656,-1.39536 -0.29356,-5.17745 -0.29432,-6.69124l0.6497,-2.47436c-0.03518,-2.78117 -0.51633,-6.66457 0.32023,-9.29939c2.01583,-6.34907 9.72461,-11.93248 16.23714,-12.36611c0.71186,-0.89508 1.96287,-0.89508 1.96287,-0.89508z" fill="#6390d6"></path><path d="M264.12721,93.16801c-0.40064,-0.23745 -1.18016,-0.17283 -1.24503,-0.63401c-0.1517,-1.07858 1.68131,-1.93985 2.73516,-2.8846c0.13023,-0.57611 0.23833,-1.06157 0.23266,-1.33274v-1c0,-0.18319 0.06568,-0.35104 0.17478,-0.48129c-0.14836,-0.2739 -0.30484,-0.5127 -0.46997,-0.7108c-0.11282,-0.13535 -0.23657,-0.26938 -0.36945,-0.40044c-0.96237,-2.41645 -2.07694,-4.53403 -4.42442,-6.68699c-0.93528,-0.85778 -2.49933,-2.00947 -3.52547,-3.19311c-0.08816,0.2002 -0.22878,0.42058 -0.43844,0.66962c-0.55266,0.65645 -1.58494,0.6605 -2.35802,1.03294l-0.17231,-0.04945v0.06951h-0.83333c-0.15259,0 -0.29453,-0.04557 -0.41296,-0.12383c-0.68732,1.21537 -1.5103,2.36128 -2.44209,3.11819c-0.92557,0.75186 -1.92637,1.39988 -2.94432,2.02837c-1.90185,2.53913 -4.42832,4.7126 -7.10811,6.06161c-1.21102,2.55588 -2.00887,5.27961 -2.3274,7.87777c-0.01397,0.11393 -0.03072,0.24472 -0.04934,0.39035c-0.4152,-0.27436 -0.83002,-0.57389 -1.25321,-0.91268l-0.42101,-0.55365c-2.11051,-0.73441 -3.40541,-1.64386 -4.21399,-3.11458c-0.12658,0.23522 -0.37506,0.39511 -0.66089,0.39511h-0.93908l-0.39218,0.25415c0,0 -0.67082,0.33541 -1.00623,-0.33541c-0.04673,-0.09345 -0.07392,-0.1804 -0.08613,-0.26083c-3.88936,-0.70477 -7.88054,0.98782 -11.68353,1.45699c-1.47807,-1.72687 -1.14286,-3.5286 -1.14286,-5.69823c0,-1.85995 0.2696,-3.50188 0.70468,-5.05095c-2.16868,-0.76245 -4.18314,-1.79359 -5.09271,-3.2214c-1.22038,-1.91572 0.27667,-5.17731 1.11718,-6.86075c1.89057,-5.05437 5.39593,-9.81916 9.20165,-13.71977c0.08941,-0.09164 0.18007,-0.18174 0.27187,-0.27045c0.92214,-1.44063 1.93989,-2.85147 3.05629,-4.25485c0.05683,-0.08719 0.12723,-0.1549 0.18772,-0.20313c0.07701,-0.06312 0.18902,-0.13554 0.32555,-0.16829c0.20469,-0.20469 0.40938,-0.40938 0.61406,-0.61406c3.87239,-3.86254 6.78524,-8.00973 11.65823,-10.78752c0.78408,-0.44696 3.9738,-1.8515 5.51038,-1.57474c0.24783,-0.23293 0.49566,-0.46587 0.74349,-0.6988c0.11157,-0.16209 0.28523,-0.27813 0.48666,-0.31377c0.2187,-0.04777 0.53427,-0.03191 0.76385,0.33493c0.00824,0.01288 0.01609,0.02602 0.02354,0.03942c0.01318,0.02315 0.02502,0.04595 0.03561,0.06841c1.45217,-0.26017 3.07699,-0.29553 4.56725,-0.14362c-0.00395,-0.15555 -0.00566,-0.3115 -0.00503,-0.46788l0.05303,-0.08652c-0.1605,-0.09562 -0.25887,-0.24508 -0.30497,-0.32989c-0.20078,-0.08599 -0.41837,-0.27237 -0.41837,-0.67635c0,-0.10125 0.01367,-0.18883 0.03732,-0.26459c-0.16319,-0.43513 -0.32638,-0.87027 -0.48957,-1.3054c0,0 -0.26334,-0.70225 0.4389,-0.96559c0.70225,-0.26334 0.96559,0.4389 0.96559,0.4389c0.1657,0.44191 0.3314,0.88381 0.4971,1.32572l0.0671,0.16772l0.0169,0.00324c0.01065,0.00918 0.0212,0.01831 0.03165,0.02742c0.42568,0.06488 0.5502,0.40797 0.58663,0.60314c0.31472,0.41096 0.38901,0.76875 0.3113,1.17628c0.01151,0.02154 0.02302,0.04309 0.03454,0.06463l-0.05025,0.00976c-0.00399,0.01727 -0.00824,0.03463 -0.01274,0.0521h0.06555v0.23048c0.03015,0.08945 0.05987,0.17859 0.08841,0.26825c1.2262,-0.54136 2.38431,-1.32498 3.59109,-1.71024c5.51033,-1.75916 10.07987,4.34703 13.30376,7.55344c1.22606,1.63475 1.60032,3.37762 2.72621,5.07853c3.13644,4.73834 5.64343,9.11699 5.62022,15.00563c0.46763,2.28455 0.33698,4.58375 0.33698,6.90724v0.33333c0,0 0,0.75 -0.75,0.75c-0.16083,0 -0.28718,-0.03449 -0.38643,-0.08868c-0.25521,2.70494 -0.59381,5.77735 -1.78257,8.18676c-0.61312,1.24268 -1.80227,2.00015 -2.5559,3.09045c-0.44498,0.64376 -0.85966,1.30763 -1.29352,1.94905c0.55283,1.45101 0.83561,2.94944 0.6019,4.57189v0.00001c0.32041,0.53617 0.59094,1.10795 0.72224,1.80379l0.0734,0.25689l0.10728,-0.01789l0.16357,0.98142c0.01097,0.05933 0.01671,0.12048 0.01671,0.18298c0,0.55228 -0.44772,1 -1,1c-0.46471,0 -0.85539,-0.31698 -0.9676,-0.74653l-0.20074,-0.7026l-0.28301,0.37734c-0.18196,0.24818 -0.47566,0.40931 -0.80698,0.40931c-0.34635,0 -0.65159,-0.17608 -0.83105,-0.4436c-0.01816,0.00582 -0.03629,0.01071 -0.05435,0.01475c-0.20158,0.10533 -0.4212,0.16535 -0.65715,0.167c-0.01379,-0.11331 -0.02782,-0.22686 -0.04209,-0.34057c-1.32042,-0.79733 -2.64512,-1.60255 -3.96319,-2.38374zM267.7095,93.63682c0.04293,0.02294 0.08531,0.04563 0.12707,0.06804c-0.00503,-0.03336 -0.01008,-0.0667 -0.01516,-0.10002zM264.83761,92.21489c0.10572,0.04308 0.22442,0.09456 0.35309,0.15269c-0.0001,-0.10124 0.00324,-0.20526 0.00953,-0.31137c-0.12107,0.0611 -0.24609,0.11711 -0.36262,0.15868zM214.45415,73.61645c-0.5471,1.09259 -2.12794,4.13471 -1.21616,5.47258c0.76264,1.11904 2.42831,1.96174 4.26159,2.60488c0.58459,-1.66836 1.33346,-3.26974 2.10445,-4.97505c-0.22127,-0.1588 -0.41344,-0.36037 -0.54913,-0.58898l-0.00004,0.00001c-1.35326,-0.27008 -2.39506,-0.18338 -2.31133,-1.51496c-0.00423,-0.01115 -0.00816,-0.02221 -0.01182,-0.03314c-0.06693,-0.17384 -0.07284,-0.32129 -0.04434,-0.44457l0.01053,-0.46765c0.63602,-3.16862 1.5309,-6.04375 2.70042,-8.74132c-2.04652,2.69371 -3.79192,5.62284 -4.94418,8.68821zM218.97065,74.79946c0.01003,-0.02577 0.02046,-0.05082 0.03128,-0.07519c-0.20171,0.01446 -0.40196,0.03913 -0.60081,0.07907c0.11712,0.0356 0.30813,0.01159 0.56953,-0.00388zM231.7196,91.05979c-0.0193,0.05112 -0.03946,0.10204 -0.0604,0.1527l0.12548,0.04183c-0.02224,-0.06396 -0.04393,-0.1288 -0.06508,-0.19453zM267.42415,91.32655c0.00077,0.20928 0.02394,0.35453 0.07871,0.40346c-0.02574,-0.13549 -0.05197,-0.27002 -0.07871,-0.40346z" fill="#111732"></path></g><g fill-opacity="0.37255" fill="#2e1340" stroke-width="0.5"><path d="M193.59277,285.59697c-0.28007,-0.43077 -0.44276,-0.94487 -0.44276,-1.49698c0,-0.59887 0.19143,-1.15302 0.51643,-1.60462l1.68913,-2.41304c1.59908,-2.66302 3.35462,-5.18179 4.91905,-7.86799c0,0 0.57524,-0.98612 1.61982,-1.31699c0.51546,-2.373 1.4339,-4.87516 1.82504,-6.66157c0.6361,-2.90515 0.74448,-5.90236 1.21803,-8.8384c0.77777,-4.82214 1.96568,-9.1152 1.9625,-14.0474v-2.5c0,-0.92344 0.45516,-1.74058 1.15337,-2.2393c0.03916,-0.36184 0.07743,-0.71812 0.11385,-1.06793c0.06774,-0.65069 1.06766,-6.58339 1.3809,-6.86796c0.24486,-0.22245 0.50736,-0.41748 0.78355,-0.59124l-0.12,-0.15429l2.23066,-1.73495c0.23006,-0.1825 0.49002,-0.32895 0.77133,-0.43081c0.3627,-1.18351 0.70456,-2.37373 1.01672,-3.57351c0.67885,-2.60917 0.92234,-5.76802 1.1817,-8.34735c0.12103,-1.20366 -0.27367,-2.55607 0.3095,-3.61596c0.06787,-0.12335 0.13945,-0.24404 0.21437,-0.36233l-0.08925,-0.0357l0.97621,-2.44052c0.38998,-1.04443 1.39669,-1.78815 2.5771,-1.78815c0.40036,0 0.78074,0.08555 1.12385,0.23938c0.49134,-0.45868 1.15097,-0.73938 1.87615,-0.73938c1.51878,0 2.75,1.23122 2.75,2.75c0,0.1867 -0.01861,0.36906 -0.05406,0.54531l-0.48375,2.6606c0.33518,2.56845 -0.56417,6.81033 -0.95706,9.45747c-0.00359,0.27743 -0.00532,0.55622 -0.00513,0.83661c0,0 0,0.5966 -0.27788,1.23404c-0.58343,4.47553 -1.0296,8.9617 -2.03911,13.36928c-0.79941,3.49024 -2.20469,6.28476 -2.183,9.89668v1.27575c0.69787,1.82143 1.27763,1.95176 3.31359,2.7669l2.17979,0.21798c1.40478,0.12319 2.50662,1.30261 2.50662,2.73938c0,0.88334 -0.41648,1.6694 -1.06379,2.17253c0.11554,0.4068 0.10762,0.8075 0.05015,1.15379c-0.06039,0.70212 -0.31543,1.20085 -0.64728,1.55509c-3.48678,6.09755 -6.19122,12.98669 -10.38625,18.61232c1.28057,0.5991 2.36076,1.5196 3.06988,2.80975c1.90963,0.79079 3.78919,1.97777 3.67389,3.40719c-0.19092,2.36684 -2.13955,5.26093 -4.49962,5.52257c-0.86326,0.0957 -1.97533,-2.27116 -3.05122,-4.14068c-1.46285,-0.22875 -2.93188,-0.61612 -4.49642,-0.37172c-1.47245,0.23001 -2.91433,0.47779 -4.34532,0.72304c-0.35142,2.00764 -0.05629,4.89501 -0.05401,6.80611c0,0.88785 0.04218,5.51352 -0.17572,5.96725c-0.38902,0.81007 -0.83417,1.47231 -1.32441,2.00643c0.00008,0.00876 0.00012,0.01754 0.00012,0.02632c0,1.51878 -1.23122,2.75 -2.75,2.75c-0.78911,0 -1.50059,-0.33237 -2.00209,-0.86475c-2.65501,-0.06139 -5.5616,-1.35788 -7.98003,-2.56883l-0.1791,-0.23989l-0.05669,0.07086l-2.48016,-1.98413c-0.64053,-0.50349 -1.05193,-1.28533 -1.05193,-2.16326c0,-1.32772 0.94093,-2.43568 2.19235,-2.69343c1.24824,-1.78715 2.58836,-4.20372 4.00041,-5.8096z"></path><path d="M285.15628,210.7059c1.12571,-0.30309 2.30335,-1.07769 3.44587,-1.53341c0.26646,-0.40993 0.54876,-0.81745 0.84784,-1.22249c0,0 1.65,-2.2 3.85,-0.55c2.2,1.65 0.55,3.85 0.55,3.85c-0.6759,0.88297 -1.24588,1.79203 -1.72623,2.72325c0.00094,0.13309 0.00516,0.26275 0.01379,0.38805c0.16967,2.46558 -0.91308,3.8117 -1.93801,5.3681c-0.84044,4.45369 -0.54954,9.19135 -0.54954,13.87059v2c0,0 0,0.1202 -0.02513,0.31033c-0.01827,0.19092 -0.0453,0.30803 -0.0453,0.30803c-0.99,4.28823 -1.92662,8.68557 -1.44138,13.12715c0.26229,2.40084 1.23072,4.44852 1.6013,6.75449h1.4105c1.51878,0 2.75,1.23122 2.75,2.75c0,1.51878 -1.23122,2.75 -2.75,2.75h-2.75v-0.22009c-1.26934,0.42382 -2.58283,0.71073 -3.78779,0.67706c-0.19457,1.16336 -1.11952,2.07932 -2.28739,2.26042c-0.53769,2.18247 -0.87722,4.46198 -1.17213,6.75068c-0.00005,1.17732 -0.00074,2.35463 -0.00268,3.53194c-0.00075,0.45537 0.01312,1.10043 0.00828,1.80735c0.44342,0.10268 0.89923,0.33731 1.28556,0.80329c0.83811,0.03771 1.64687,0.12446 2.45616,0.25479v-0.36542h5.5c1.51878,0 2.75,1.23122 2.75,2.75c0,1.43677 -1.10183,2.61619 -2.50662,2.73938l-2.46975,0.24697c-1.08438,0.09452 -2.52314,-0.44545 -3.24447,0.36971c-0.84265,0.95227 -0.04946,2.5643 -0.35805,3.79785c-0.87672,3.50468 -0.80769,6.97867 -4.54457,9.10474c-1.05302,0.59911 -2.4159,0.19552 -3.62655,0.24134c-0.15584,0.0059 -0.31453,0.01309 -0.47575,0.02122l0.04534,0.03967l-1.73976,1.9883c-0.50425,0.58239 -1.24901,0.95082 -2.07983,0.95082c-1.39453,0 -2.54662,-1.038 -2.72579,-2.38352l-0.08167,-0.54448c-2.2841,-0.30924 -4.33723,-1.21049 -5.47002,-3.48834c-0.63835,-1.28361 -0.16185,-2.89383 0.12215,-4.29899c0.74498,-3.68591 3.50988,-6.77746 5.03081,-10.10586c0.82427,-4.73886 2.11083,-8.92362 1.87794,-13.79182c-0.22732,-4.75199 -1.2997,-9.6701 -0.83096,-14.49191c-0.54538,-1.17065 -0.89032,-2.38376 -0.92246,-3.64508c-0.02888,-1.13372 0.57732,-2.19347 0.86598,-3.29021c0,0 0.79021,-2.63402 3.42423,-1.84382c0.0647,0.01941 0.12734,0.03994 0.18798,0.06151c0.77066,-0.64337 1.70834,-1.07942 2.85094,-1.17217c1.34741,-0.10938 2.6164,0.73114 3.6487,1.78705c-0.14181,-10.80659 0.37164,-21.58049 5.02846,-31.43646z"></path><path d="M234.0308,131.66813c-0.54737,-0.44359 -0.99699,-1.17465 -0.86397,-2.37181c0.30369,-2.73318 3.03687,-2.42949 3.03687,-2.42949l0.74539,0.09908c0.59357,-0.24389 1.3608,-0.28407 2.28644,0.23017c0.14721,0.08178 0.2804,0.16757 0.40073,0.25657c3.75909,1.31683 7.39631,3.08192 11.03116,4.73201c3.64362,-0.13121 7.22858,0.32397 10.25539,2.12547c0.29794,0.17733 0.70286,0.5688 1.14437,1.06367c2.04382,0.12729 4.23424,0.17738 5.61513,-0.17848c0.13089,-0.03373 0.25565,-0.08008 0.3753,-0.13693c0.19358,-0.1748 0.41215,-0.32246 0.64969,-0.43698c0.83071,-0.71964 1.4614,-1.84862 2.41807,-2.2959c0.0927,-0.13281 0.18462,-0.26623 0.27567,-0.40033l0.89262,-2.4547c0.36683,-1.08744 1.39515,-1.87046 2.60634,-1.87046c1.51878,0 2.75,1.23122 2.75,2.75c0,0.30404 -0.04934,0.59655 -0.14045,0.86997l-0.98116,3.18877l-0.14307,-0.04402c-0.03139,0.219 -0.07392,0.43698 -0.12938,0.65375c-0.36269,1.41751 -1.30677,2.4994 -2.53336,3.31535c-0.3469,0.50216 -0.70523,1.0044 -1.07256,1.49378v0.27239c-0.05659,4.3334 3.00593,7.15934 3.45038,11.22995c0.16919,1.54956 0.71071,3.50438 -0.33024,4.66465c-1.40972,1.57131 -3.82717,2.65394 -5.90591,2.2863c-0.53366,-0.09438 -0.67575,-0.59593 -0.73118,-1.21165c-0.15077,0.02005 -0.31156,0.03075 -0.48305,0.03075c-2.75,0 -2.75,-2.75 -2.75,-2.75l0.12161,-0.69126c-0.55163,-1.80402 -1.47832,-3.84319 -2.15414,-5.92055c-1.09682,0.37173 -2.19732,-0.17852 -2.19732,-0.17852l-0.00001,0.00002c-1.47339,-0.74983 -2.77629,-1.97565 -4.18673,-2.65068c-0.31487,-0.11683 -0.63167,-0.23546 -0.94995,-0.35474c-0.8421,-0.21911 -1.73948,-0.18373 -2.74427,0.29868c-0.46266,0.22213 -1.0219,0.56248 -1.57456,0.97573c0.23955,0.72766 0.42657,1.42223 0.56938,1.98112c0.36099,1.41276 1.12178,3.59328 0.73807,5.33106c0.57859,0.42905 1.54132,1.40918 1.04376,2.94037c0.58414,0.78975 0.58414,1.76876 0.58414,1.76876c0,0.71439 -0.00823,1.43105 -0.01801,2.14867c2.38132,3.56745 4.65278,7.27563 5.68914,11.44741c0.64658,2.60279 0.43197,5.87022 0.32605,8.5293c-0.01018,0.25564 -0.14236,0.53717 -0.21656,0.80129l0.15417,0.08565c3.01044,0.55085 4.11893,2.49215 6.2174,3.8334c0.2899,0.13458 0.5821,0.29373 0.87683,0.48919c0.08919,0.04269 0.18027,0.08419 0.27337,0.12441c0.37284,0.16107 1.39554,0.28339 2.42697,0.37028c-0.20382,-0.09341 -0.41395,-0.21806 -0.62935,-0.37961c-2.2,-1.65 -0.55,-3.85 -0.55,-3.85c0.47266,-0.62888 0.94044,-1.25963 1.40349,-1.89245c-0.52668,-2.53297 -1.06565,-5.07178 -1.63649,-7.60423c-0.03142,-0.13938 -1.01532,-4.83569 -1.26191,-6.7503c-0.09952,-0.32962 -0.19363,-0.65896 -0.28075,-0.988l0.16917,-0.36502h-0.1935v-2.5c0,-1.51878 1.23122,-2.75 2.75,-2.75c1.44437,0 2.62867,1.11353 2.74125,2.52895l0.24134,2.65475c0.3268,0.77872 0.50676,1.59892 0.62713,2.43664c0.28084,0.79928 0.57339,1.59912 0.8565,2.40088c2.14476,-3.93913 5.577,-7.80567 7.51932,-10.97245c2.18737,-3.56633 3.83176,-7.5054 5.87141,-11.15369c1.25014,-2.2361 3.11797,-4.06733 4.59724,-6.15893c1.01752,-1.43871 1.65087,-4.23121 2.4013,-5.58849c1.38947,-2.51307 2.13991,-2.40931 3.67183,-4.51698c2.16392,-2.9772 3.39635,-6.65254 4.63825,-10.07048l0.53112,-1.33153c0,0 0.65071,-1.62679 2.21185,-1.76394c0.31896,-0.40346 0.80524,-0.82728 1.49461,-0.96152c0.09304,-0.25338 0.18855,-0.50622 0.28714,-0.75838c1.61606,-4.13306 3.86969,-7.76759 5.84188,-11.70821c2.31328,-4.62217 3.29728,-11.05579 7.02614,-14.79641l2.81693,-4.62782c0.13347,-0.22792 0.2988,-0.43491 0.4899,-0.61485c0.45258,-2.84598 2.07007,-4.84811 2.69719,-7.57971c0.65757,-2.86422 -1.87362,-3.84927 1.76844,-6.85327c1.54618,-1.2753 6.73069,-0.40704 8.88486,-0.76214c3.55626,-0.58622 4.33434,-5.29627 7.50417,-6.33736c0.17059,-0.05603 0.34249,-0.10588 0.51553,-0.1503l-0.04301,-0.10322l2.94323,-1.22635c0.26693,-0.11847 0.55623,-0.19568 0.85981,-0.22356c0.06192,-0.1676 0.12453,-0.33392 0.18795,-0.49883c0,0 0.98719,-2.5667 3.55389,-1.57951c2.5667,0.98719 1.57951,3.55389 1.57951,3.55389c-1.79114,4.65649 -3.06277,9.93339 -5.83578,14.12076c-1.41265,2.13316 -3.48696,3.77119 -4.92359,5.88828c-3.09941,4.56747 -6.09394,9.59353 -9.00048,14.25074c-1.77712,2.84752 -2.24576,6.41793 -4.33112,9.11814c-2.51139,3.25186 -4.93348,5.20722 -6.9931,8.74045c-0.33198,0.38229 -0.6472,0.75881 -0.94759,1.13232c-0.87459,1.45067 -1.78424,2.88412 -2.65655,4.39242c-0.15397,0.26622 -0.25641,0.57665 -0.35226,0.89116c-0.0517,0.80797 -0.44425,1.43604 -0.44425,1.43604l-1.17806,1.87802c-4.68085,8.40893 -11.63821,15.56039 -17.51279,23.14017c-0.52456,0.67683 -1.11356,1.30221 -1.72109,1.91391l-0.72505,1.36954c-1.22592,4.63607 -5.65542,8.84459 -8.52242,12.45712l-0.37824,0.09285l0.10566,0.14088l-1.02118,0.76588c-0.15612,0.28737 -0.31242,0.57385 -0.46911,0.85919c-0.07621,0.13877 -0.15155,0.27159 -0.22613,0.39913c-0.14906,0.53001 -0.30832,1.05351 -0.61403,1.50303c-1.11049,1.63291 -2.44013,3.14392 -3.73299,4.6981c-2.00975,3.25205 -4.12118,6.42108 -6.33423,9.5392c-0.00213,0.30586 -0.0078,0.6118 -0.01698,0.91767c0.15628,0.7762 0.30979,1.55091 0.46024,2.32344c0.65914,3.38468 0.57248,6.81286 1.0734,10.2401l1.19287,0.47715c1.04443,0.38998 1.78815,1.39669 1.78815,2.5771c0,1.51878 -1.23122,2.75 -2.75,2.75c-0.1988,0 -0.39268,-0.0211 -0.57951,-0.06117c-0.50322,0.64581 -1.28835,1.06117 -2.17049,1.06117c-0.89251,0 -1.68572,-0.42518 -2.18812,-1.08404l-1.7326,-2.22763l0.00654,-0.00509c-0.00709,-0.00467 -0.01418,-0.00934 -0.02127,-0.01402l-0.00691,-0.02497l-0.00765,0.00574l-1.98094,-2.64126c-0.44498,0.30969 -0.98582,0.49126 -1.56906,0.49126c-0.6291,0 -1.20886,-0.21124 -1.67222,-0.56667l-1.97778,-1.48333l0.00803,-0.01071l-0.04219,-0.01533c-0.93037,-0.78413 -1.86073,-1.56826 -2.7911,-2.35239c-0.79078,-0.26561 -1.77474,-0.92661 -1.77474,-2.57157c0,-0.12053 0.00528,-0.23577 0.01538,-0.34596c-0.92459,-0.69555 -1.74659,-1.44165 -2.35243,-2.09898l-2.07892,-1.61694c-0.65886,-0.5024 -1.08404,-1.29561 -1.08404,-2.18812c0,-0.60404 0.19475,-1.16259 0.52488,-1.61629c-0.01162,-1.51763 0.20742,-3.11725 0.27513,-4.64408c-1.68705,0.1487 -3.40056,-1.73647 -4.63126,-3.03094c-0.89273,-0.939 -0.86222,-2.45184 -1.12508,-3.72053c-0.51359,-2.4789 -0.45768,-5.15724 -0.37405,-7.77815c-0.00296,-0.00475 -0.00593,-0.0095 -0.00892,-0.01424c-0.50602,-0.80491 -1.03199,-1.60386 -1.57721,-2.39365c-0.32638,-0.33308 -0.64766,-0.66959 -0.89467,-1.06181c-0.16434,-0.26095 -0.3147,-0.53675 -0.45643,-0.82246c-2.25423,-3.02672 -4.79532,-5.87372 -7.58229,-8.34911c-0.80176,1.03099 -1.68123,1.99641 -2.63896,2.8925c0.09253,0.04137 0.17645,0.09252 0.24612,0.15913c0.30527,0.29186 0.59224,0.60381 0.86205,0.93086c0.32273,0.14502 0.62029,0.33455 0.88256,0.57909c2.26538,2.11219 2.55648,3.8095 1.90583,5.23034c0.19434,0.62909 0.39436,1.24937 0.63297,1.83705c1.14369,2.81687 2.76788,6.55588 1.62141,9.74219c-0.52674,1.46394 -1.29019,2.97412 -2.51748,3.93033c-0.68302,0.53215 -1.82826,-0.34399 -2.59699,0.05446c-0.55331,0.28679 -0.36783,1.23317 -0.78336,1.69764c-2.09485,2.34157 -5.1668,4.0134 -7.76801,5.68508c-1.33311,0.85673 -4.69423,3.96059 -5.82714,3.67269c-5.37596,-1.36617 -4.09956,-7.2719 -4.1691,-10.73002v-2.5c0,-0.21063 0.02368,-0.41573 0.06852,-0.61278c-0.57303,-1.25866 -1.0452,-2.58311 -1.4419,-3.81237c-0.11423,-0.35398 -0.27611,-0.78708 -0.45951,-1.27528c-0.7341,0.41997 -1.47435,0.61416 -2.1773,0.25816c-1.81287,-0.91811 -1.95998,-3.76547 -1.88877,-5.79633c0.04545,-1.29611 1.32678,-2.25112 2.20442,-3.20595c1.12211,-1.22081 2.66956,-2.31649 4.33344,-3.32399l1.41109,-1.88146l0.0168,0.0126l0.01986,-0.06038c0.39925,-0.48636 0.78711,-0.97041 1.16475,-1.45333l0.00923,-0.09228c0.0956,-1.0902 0.82735,-1.99794 1.82183,-2.34983c2.53247,-3.52662 4.62293,-7.09758 6.72382,-11.16805c0,0 0.28457,-0.55136 0.84528,-0.99512c0.11574,-0.78288 0.32198,-1.49992 0.92763,-1.92786c0.24291,-0.17164 0.49944,-0.30314 0.76698,-0.40251c0.0915,-0.16418 0.19933,-0.31802 0.3213,-0.45931c0.13138,-0.55036 0.2862,-1.09651 0.46332,-1.63581zM243.33686,140.83699c-0.01239,-0.04 -0.02406,-0.08005 -0.03497,-0.12013c-0.02166,0.0625 -0.04349,0.12487 -0.0655,0.18711zM338.15405,73.8861c-0.12832,0.02007 -0.25865,0.03879 -0.39114,0.05624c0.07264,0.12166 0.13614,0.24941 0.18957,0.38229c0.06717,-0.14618 0.13432,-0.29237 0.20157,-0.43853zM228.28267,165.27321c0.09146,-0.01826 0.18382,-0.0325 0.27725,-0.04194l0.2366,-0.07887l-0.4458,-0.6687c-0.04382,0.27226 -0.06488,0.53401 -0.06805,0.7895z"></path><path d="M188.42365,150.399c-0.02365,-0.18357 -0.02365,-0.29901 -0.02365,-0.29901l0.11598,-2.04021c0.28135,-0.93782 0.57505,-1.87844 0.88177,-2.81994c-0.50126,0.5297 -1.21091,0.86015 -1.99775,0.86015c-1.51878,0 -2.75,-1.23122 -2.75,-2.75c0,-0.09563 0.00488,-0.19013 0.01441,-0.28324l0.24688,-2.71573c-0.11041,-0.59357 -0.16333,-1.21675 -0.16624,-1.86074c-0.75001,-0.90986 -1.28879,-2.11376 -1.74527,-3.15622c-1.09205,-2.49393 0.38771,-5.032 1.48955,-7.05739c2.38575,-4.38544 5.77714,-7.66414 8.47596,-11.716l1.15541,-2.5419c0.23856,-0.55734 0.65595,-1.01991 1.18002,-1.31557c0.74437,-3.54373 3.35161,-7.1291 5.10949,-9.69878c0.98455,-1.43923 1.61136,-3.11438 2.45173,-4.64213c0.00582,-2.54855 0.11306,-5.12123 2.10533,-7.18508c1.13738,-1.17825 2.5526,-2.42035 4.18272,-2.57721c0.10053,-0.00967 0.19898,-0.00977 0.29561,-0.00146c0.23571,-1.27933 1.35687,-2.24854 2.70439,-2.24854h2.5v0.06943c0.13547,-0.01741 0.27174,-0.03053 0.40891,-0.03886c3.77157,-0.22893 7.31292,3.42977 10.35509,5.02714c0.45892,0.24097 0.94392,0.47515 1.44798,0.69832c0.64764,-0.27282 1.30061,-0.49032 1.98823,-0.45051c0.09461,0.00548 0.18881,0.01317 0.28262,0.02291l-0.00648,-0.06478l2.46319,-0.24632c0.1019,-0.01145 0.20549,-0.01733 0.31044,-0.01733c0.66625,0 1.27716,0.23693 1.75307,0.63112c-0.00204,-0.04345 -0.00307,-0.08717 -0.00307,-0.13112c0,-1.51878 1.23122,-2.75 2.75,-2.75c0.68744,0 1.31597,0.25224 1.79808,0.66921c0.29662,-0.10945 0.61729,-0.16921 0.95192,-0.16921c0.19767,0 0.39047,0.02086 0.57632,0.06049c-0.15543,-0.24831 -0.25938,-0.51732 -0.2822,-0.81984c-0.28555,-3.78521 3.89592,-7.32964 6.87506,-8.89721c1.67096,-0.87923 3.17925,-1.08198 4.64415,-1.00394c-0.04148,-0.18991 -0.06334,-0.38716 -0.06334,-0.58952c0,-1.51878 1.23122,-2.75 2.75,-2.75h2.75v0.46093l0.97731,-0.2814c0.91791,0.7466 1.75071,1.59366 2.51461,2.50657c0.19247,0.07616 0.38606,0.15695 0.57941,0.2426l0.12323,-0.12323l0.20666,0.20666c1.67421,0.05868 3.45316,0.33439 4.4673,1.51461c0.16685,0.19418 0.31736,0.39843 0.45447,0.61095l0.09774,-0.07602l1.73495,2.23066c0.3721,0.46908 0.59433,1.06243 0.59433,1.70768c0,1.51878 -1.23122,2.75 -2.75,2.75c-0.2043,0 -0.4034,-0.02228 -0.595,-0.06454l-2.44432,-0.48886l0.1052,-0.52602l-1.18725,0.05061c-0.18211,-0.30653 -0.33063,-0.6411 -0.48451,-0.97119h-2.64413c-1.09002,-0.01654 -2.19751,0.14548 -3.27005,-0.04962c-0.68778,-0.12511 -1.3291,-0.37395 -1.95908,-0.60157c-0.07438,0.06634 -0.12086,0.1012 -0.12086,0.1012c-2.75784,1.79506 -1.9,4.53078 -1.9,7.55v1.5c0,0 0,0.57889 -0.2656,1.20547c0.0103,0.09676 0.01559,0.19503 0.01559,0.29452c0,0.35544 -0.06743,0.69512 -0.1902,1.00696c0.23687,0.36569 0.38925,0.79119 0.42952,1.24886c1.80206,0.00025 3.71219,-0.04793 5.36882,-0.42986c0.61635,-0.1421 3.08765,-1.31096 3.94173,-1.82072c0.22749,-0.20559 0.45604,-0.41887 0.68728,-0.64113c0.43443,-0.58415 0.745,-1.3068 1.38314,-1.62138c0.07706,-0.03799 0.15457,-0.07484 0.23249,-0.11061l-0.0411,-0.05284l2.23066,-1.73495c0.46908,-0.3721 1.06243,-0.59433 1.70768,-0.59433c1.51878,0 2.75,1.23122 2.75,2.75c0,0.57786 -0.17823,1.11408 -0.48272,1.55671l-1.47914,2.21872l-0.04348,-0.02898l-0.02481,0.12675c-1.81429,2.24708 -2.541,3.5964 -5.1396,5.03366c-0.26673,0.14753 -0.54262,0.28805 -0.82679,0.42187l-0.80346,1.07128l-0.07771,-0.05828c-0.05607,0.11891 -0.11521,0.23656 -0.17775,0.35283c-0.47285,0.87908 -1.54935,1.26392 -2.38019,1.81716c-6.52262,4.34328 -15.42002,1.7765 -22.29774,-0.85643l-0.77135,-0.16529c1.483,1.75873 2.99022,3.51876 4.82806,4.75455c3.41257,2.29465 7.23695,4.19186 10.90651,6.04579c0.92908,0.46939 3.94831,1.30283 6.19678,2.1474c0.37666,-0.17773 0.74542,-0.37087 1.10351,-0.58354c1.3711,-0.81432 2.60842,-3.21696 4.05305,-2.54164c1.94405,0.90879 2.83179,3.62477 2.85428,5.77063c0.01582,1.50937 -1.60719,2.61405 -2.75615,3.59299c-2.26675,1.93133 -5.93913,2.53545 -8.65998,3.62714l-2.02132,0.19669c0,0 -1.00748,0 -1.80284,-0.6098c-0.95042,0.40147 -1.84548,0.71749 -2.53113,0.82815c-6.36751,1.02767 -11.99003,-4.40718 -16.43086,-8.10935c-0.93824,-0.78218 -2.16452,-1.57448 -3.28704,-2.47414l-0.55772,-0.04379l-0.52838,1.16243l-2.75,-1.25l0.07453,-0.16396l-0.43588,-0.03422c-0.52217,-0.45986 -1.01482,-0.90262 -1.47924,-1.34207c-0.60934,-0.13306 -1.22064,-0.29599 -1.79792,-0.47155c-7.42311,5.78936 -13.66311,13.87957 -17.46302,22.38076c-2.74646,6.14439 -4.45838,12.36702 -7.81503,18.28357l-0.35248,0.18694l0.10157,0.10157l-2,2l-0.71535,-0.71535l-2.38625,1.26555c-0.18185,-0.88789 -0.47695,-1.76933 -0.73837,-2.65269l-0.84507,-0.07042l0.25,-3l0.05026,0.00419c0.00165,-0.14642 0.00867,-0.29315 0.02171,-0.44022c0.0711,-0.80222 0.34388,-1.55372 0.69218,-2.28659z"></path><path d="M230.23211,143.55803l0.96789,-2.98303c0.4811,-0.63805 0.93973,-1.22573 1.39502,-1.76757c0.70898,-2.82593 1.7149,-5.69938 4.53328,-6.88559c1.26676,-0.53316 2.75468,-0.05886 4.12248,0.07562c3.21333,0.31595 5.42929,1.11454 8.01497,2.10361c3.61441,0.17655 7.23071,0.11682 10.8292,0.38084c1.16994,0.08584 4.01015,0.86832 5.46148,0.37566c2.00455,-0.68045 4.05257,-2.48474 5.57408,-4.00005c0.29813,-0.47029 0.78123,-0.90149 1.56408,-1.06409c0.50427,-0.16322 1.1219,-0.20812 1.77419,0.10132c0.68005,0.24243 1.08502,0.71091 1.32619,1.18289c0.65774,1.00259 0.4116,1.95567 0.08275,2.58552l-0.27771,1.21182c-1.15728,1.48141 -2.58529,2.81412 -4.22182,3.73913c-0.58963,0.66301 -0.90659,1.54622 -1.22762,2.41718c0.11055,0.28291 0.22575,0.55716 0.35412,0.81157c0.95595,1.89457 2.69801,7.70182 2.6155,9.22825c-0.0038,0.07037 -0.00861,0.14056 -0.01437,0.21059l0.0372,-0.00266l0.24798,3.47169c0.00597,0.07396 0.00901,0.14875 0.00901,0.22424c0,1.51878 -1.23122,2.75 -2.75,2.75c-1.26566,0 -2.33162,-0.85503 -2.65178,-2.01897l-0.73225,-2.44082l0.06941,-0.02082l-0.10938,-0.12731c-0.67007,-4.21154 -2.12406,-3.95158 -5.49892,-6.03881c-1.86332,-1.1524 -2.67582,-2.46241 -3.71522,-3.34599c-1.71688,-0.38874 -3.39933,-0.76189 -5.36187,-0.75727c-0.69429,0.00163 -1.49075,-0.07585 -2.29582,-0.09933c0.00761,0.23228 0.04037,0.48825 -0.04509,0.67552c-0.53907,1.18121 -0.99334,2.49094 -0.9125,3.78682c0.0477,0.76472 0.12094,1.46543 0.21575,2.12252c1.07268,1.5346 1.59269,3.31875 2.05041,5.12825l1.12096,1.4012c0.3853,0.47326 0.6163,1.07717 0.6163,1.73502c0,0.51919 -0.14388,1.00477 -0.39394,1.41906c0.04053,0.09649 0.08222,0.19243 0.12517,0.28779c0.16706,-0.07943 0.34093,-0.14523 0.5218,-0.19573c1.6091,-0.4493 2.74403,1.92956 3.94697,3.08889c2.71495,2.61653 4.05401,8.01505 2.96208,11.58981c-0.09347,0.30601 -0.19528,0.59938 -0.30537,0.87921c0.53734,2.3754 0.46954,4.85125 0.41864,7.28874c0.3723,-0.21736 0.85327,-0.35777 1.47466,-0.35777c2.75,0 2.75,2.75 2.75,2.75v1.07205l2.31684,1.26373l-0.14114,0.25875l0.63899,0.08922c0.04488,0.0992 0.08706,0.20032 0.12648,0.3031c0.32999,0.11845 0.64908,0.32725 0.96566,0.54117c-0.29078,-1.53253 -0.49275,-2.97637 -0.63026,-3.8966c-0.53553,-3.58383 -0.02658,-7.76907 -0.02658,-11.38143c0,-0.42856 -0.00636,-6.03385 0.02331,-6.10732c0.04511,-0.11167 0.09206,-0.22241 0.14071,-0.33228l-0.07117,-0.01898l0.98475,-3.6928c0.29253,-1.20438 1.37803,-2.09862 2.6724,-2.09862c1.35177,0 2.47573,0.97532 2.70659,2.26064l0.49001,2.45004l-0.01788,0.00358l0.02622,0.03997c0.07613,0.46456 0.14683,0.92888 0.21248,1.39306c0.27216,-0.35772 0.51527,-0.70758 0.71628,-1.0484c3.87943,-6.5776 8.19247,-13.29214 12.9614,-19.30737c5.35653,-6.75638 11.95521,-12.72318 11.9049,-22.04152l0.3034,-1.78932c0,0 0.53932,-2.6966 3.23592,-2.15728c0.24152,0.0483 0.45708,0.11391 0.64939,0.19334c0.92472,-1.63031 2.18675,-3.1879 3.29686,-4.73883l0.10022,-0.57476c5.5661,-10.16496 8.81903,-21.20843 12.85595,-31.94202c1.23342,-3.27948 2.89916,-6.2774 4.11113,-9.6161c0.14987,-0.83504 0.59843,-1.34194 1.08779,-1.64966c0.50952,-0.40381 1.23945,-0.67509 2.24066,-0.40687c4.138,-1.11992 8.72098,-2.2941 12.3627,-4.61948c1.77204,-1.13152 2.62696,-3.15196 4.96892,-3.49597c0.11022,-0.01619 0.22056,-0.03009 0.33101,-0.04188l-0.01752,-0.06426l2.46548,-0.6724c0.91236,-2.39163 1.75005,-4.80604 2.70478,-7.19582c0,0 1.02132,-2.55331 3.57464,-1.53199c2.55331,1.02132 1.53199,3.57464 1.53199,3.57464c-1.59228,3.97545 -2.89401,7.98214 -4.68766,11.88089l-0.26532,0.17303l0.09968,0.07476l-1.4808,1.9744c-0.50041,0.68249 -1.30806,1.1256 -2.2192,1.1256c-0.0912,0 -0.18135,-0.00444 -0.27027,-0.01311c-5.6965,6.78601 -10.03143,14.6922 -14.95031,22.05155c-1.68912,2.52717 -3.79232,4.6294 -5.56004,7.08541c-4.20457,5.84171 -7.79166,12.36914 -11.287,18.65913c-1.9837,3.9674 -3.50072,7.65808 -7.03238,10.41702l-0.61776,0.46332c-0.19421,0.23502 -0.38915,0.4694 -0.58449,0.70344c-0.14914,0.36493 -0.3127,0.74107 -0.49718,1.13113c-2.73127,5.775 -5.90189,11.591 -9.75519,16.74794c-0.13413,0.72229 -0.59762,2.00202 -2.19925,2.22165c-3.53708,7.67986 -5.70559,16.21027 -12.09555,22.27006c-1.91354,1.81467 -4.72035,3.63607 -7.15971,5.19839c0.00665,0.76947 0.00914,1.5407 0.00914,2.31407c0,2.24225 -0.48513,5.31663 -0.04035,7.53065c0.1746,0.8691 0.38733,1.72989 0.61246,2.58794l0.21602,-0.14402l1.47914,2.21872c0.30449,0.44263 0.48272,0.97885 0.48272,1.55671c0,1.51878 -1.23122,2.75 -2.75,2.75c-0.16212,0 -0.32097,-0.01403 -0.47539,-0.04094c-2.53196,1.50909 -5.1646,-1.05286 -7.17371,-1.96065c-3.59618,-1.6249 -6.63226,-1.09718 -8.58413,-5.02616c-1.14249,-0.82773 -2.22929,-1.89017 -3.42338,-3.20243c-0.42432,-0.32594 -0.68535,-0.76188 -0.84343,-1.13684c-0.17866,-0.36796 -0.33508,-0.85477 -0.29826,-1.39202l-0.2017,-1.74096c0,-1.77619 0.19355,-3.71202 0.09523,-5.57585c-0.93486,-0.14172 -1.97498,-0.5683 -3.1188,-1.3225c-1.25709,-0.82887 -1.36771,-2.69207 -1.87452,-4.10997c-1.28987,-3.60864 -2.33957,-8.04444 -2.27834,-11.85986c-0.5,-1 -1.20624,-1.92125 -1.5,-3c-0.0786,-0.28864 -0.12956,-0.59875 -0.1671,-0.92211c-0.1578,-0.20917 -0.3071,-0.42438 -0.44993,-0.64421c-0.54846,-0.50161 -0.86983,-1.33986 -1.1622,-2.05774c-0.35769,-0.68609 -0.71203,-1.3749 -1.11388,-2.03053c-0.22188,-0.362 -0.49019,-0.6866 -0.78597,-0.98922c-1.38406,-0.08838 -2.62077,0.24691 -3.67876,-2.67035c-0.16052,-0.44262 -0.24911,-0.89883 -0.27507,-1.36238c-0.24331,-0.42723 -0.45442,-0.87396 -0.61784,-1.33487c-1.02684,1.07426 -2.45746,1.68561 -3.7327,2.50204c-0.23352,0.32091 -0.47129,0.63891 -0.70834,0.95472c0.36822,0.70307 0.36822,1.42282 0.36822,1.42282c-0.12988,6.69745 6.17055,13.63117 2.76049,20.62247c-0.57992,1.18896 -1.3973,2.31402 -2.43651,3.13255c-0.63761,0.50221 -1.69487,0.15835 -2.34998,0.63749c-1.44691,1.05825 -1.35589,3.55969 -2.83806,4.56797c-2.28066,1.55147 -6.84031,2.10033 -8.84225,-0.56892c-1.03405,-1.37873 -0.4843,-3.41917 -0.54369,-5.14156c-0.00916,-0.26572 -0.03264,-0.5394 -0.05713,-0.81573c-0.39935,-0.21656 -0.77842,-0.46442 -1.12559,-0.76148c-0.85726,-0.73353 -0.90009,-2.06921 -1.35088,-3.1035c-1.37933,-3.16472 -5.65426,-7.56809 -3.64101,-11.3669c2.13357,-4.02584 5.69942,-2.07817 8.68732,-4.0155c1.52993,-0.99199 2.04036,-3.49205 3.81206,-3.92312c0.02824,-0.00687 0.05659,-0.01362 0.08506,-0.02024c0.43587,-0.9489 0.95018,-1.87603 1.55697,-2.77635c0.90608,-1.3444 1.5711,-2.03955 2.33483,-2.62408c-0.11359,-0.68382 0.03047,-1.26007 0.03047,-1.26007zM340.25137,73.57623c-0.30149,0.13171 -0.60521,0.25945 -0.91081,0.38354c0.18424,0.03456 0.36572,0.07557 0.543,0.12372c0.12212,-0.16948 0.24471,-0.33857 0.36781,-0.50727z"></path><path d="M210.70546,282.91954l0.10903,-0.04061c-1.37979,-0.78266 -2.89499,-1.32849 -4.42143,-1.76016c-0.08233,-0.02328 -0.16519,-0.04536 -0.2484,-0.06664c0.00355,0.05717 0.00535,0.11481 0.00535,0.17287c0,0.38309 -0.07833,0.74788 -0.21985,1.07923l-0.89336,2.2334c-0.42167,2.63636 -0.67932,5.26675 -1.17471,7.89246c-0.25869,1.37114 -0.02415,2.94749 -0.79663,4.10947c-0.64445,0.96939 -1.3558,1.69019 -2.10797,2.19826c-0.40332,1.01757 -1.39636,1.73718 -2.55749,1.73718c-0.81124,0 -1.54043,-0.35127 -2.04378,-0.91c-2.54602,-0.55418 -5.0004,-2.52037 -6.56032,-4.79561c-0.63589,-0.67769 -0.75056,-1.39896 -0.66918,-2.00828c0.01221,-0.57694 0.21028,-1.22486 0.84025,-1.7754l1.32976,-1.68362c1.20727,-2.66239 2.88249,-4.99995 4.60326,-7.30457v-1.77252h0.13275c-0.02785,-0.22219 -0.0449,-0.44619 -0.04931,-0.67229c-0.02734,-1.40251 1.3507,-2.46241 1.92525,-3.74214c2.03434,-4.5312 4.27463,-9.01556 6.13912,-13.62984c0.03336,-0.61294 0.13836,-1.19957 0.45806,-1.71144c0.07563,-0.12109 0.15449,-0.23954 0.2363,-0.35561l-0.08906,-0.0411l1.47403,-3.19373c0.05684,-0.13065 0.12354,-0.25602 0.19914,-0.37518c-0.16455,-1.16212 0.67622,-2.57071 0.89095,-3.82581c-0.36225,-0.33132 -0.68267,-0.6915 -0.95187,-1.0832c-0.73384,-1.06777 -0.29315,-2.57606 -0.36536,-3.86967c-0.32737,-5.86442 2.10068,-10.46404 4.1932,-15.76257c0.45011,-1.13972 0.82632,-2.3092 1.16119,-3.48795c0.355,-1.24959 0.00694,-2.85608 0.89507,-3.79684c0.00035,-0.0675 0.00053,-0.13505 0.00053,-0.20265v-2.5c0,-1.49373 1.19093,-2.7093 2.67507,-2.749c0.14077,-3.42258 0.4883,-6.80544 1.44091,-10.04121l0.73225,-2.44082c0.32015,-1.16394 1.38611,-2.01897 2.65178,-2.01897c0.26975,0 0.53042,0.03884 0.77674,0.11123c0.50212,-0.33342 1.1958,-0.51523 2.14024,-0.27912c2.66789,0.66697 2.00092,3.33486 2.00092,3.33486c-0.51659,2.04603 -1.43817,3.97234 -2.00151,6.006c-1.30313,4.70432 -1.55461,9.62556 -2.19218,14.45282c-0.15007,1.13619 -0.32119,2.2446 -0.49938,3.33937c-0.0891,1.6877 -0.24192,3.35527 -0.51224,4.98692c-0.09121,0.55055 -0.48752,3.23121 -0.91443,4.99501c-0.01991,0.24603 -0.03819,0.49343 -0.05468,0.74232l-0.00309,0.00631l0.00263,0.00019l-0.24838,3.47735c-0.02753,0.44281 -0.15986,0.85724 -0.37248,1.21877c0.66188,0.8308 1.31943,1.5948 1.75723,2.10036c0.58724,0.67813 1.53708,1.23951 2.31854,1.85124c1.56054,0.04566 3.34987,-0.26166 4.17876,0.91288c4.29147,6.08096 -6.09608,9.29018 -9.34699,11.0337l-0.76035,0.57026l-0.30967,0.61935l-0.00634,-0.00317c-0.00269,0.01056 -0.0054,0.02112 -0.00812,0.03168c-0.41032,1.59123 -1.49644,2.92729 -2.30772,4.35635c-0.66342,1.1686 -1.35126,2.32628 -2.11406,3.43257c-0.42861,0.62162 -1.68797,1.29794 -1.23276,1.90036c0.48356,0.63993 1.19454,1.14139 1.99547,1.57666c1.77003,0.11478 3.63431,0.06578 4.8699,1.78026c0.07587,0.10528 0.1486,0.21232 0.21846,0.32096l0.07005,-0.07005l2,2l-0.82401,0.82401c0.32937,0.95803 0.62065,1.93733 1.00615,2.86401l-2.96866,-0.48051l-0.68346,1.02518l-1.12605,-0.7507c-1.91202,1.78816 -3.79307,-0.09289 -3.79307,-0.09289z"></path><path d="M281.25033,233.23898c0,0 0.32689,-1.1768 1.32923,-1.74404c0.99469,-5.87236 0.06169,-11.72971 1.67625,-17.52542l1.24735,-1.84372c0.23805,-0.42199 0.58432,-0.77481 1.00114,-1.02081c0.69489,-0.44628 1.80934,-0.79666 3.07666,0.19341c0.02199,0.01701 0.04373,0.03435 0.06518,0.05201c1.249,1.01751 1.15651,2.18105 0.87508,2.95868c-0.18508,0.58216 -0.55873,1.08027 -1.04919,1.42257c-1.59296,5.68879 -0.51008,11.6995 -1.62561,17.53349c-0.80123,4.19025 -2.3598,7.78145 -2.19777,12.12404c0.0273,0.73181 -0.21669,7.02177 0.69588,7.89127c0.35643,0.3396 0.9906,0.09724 1.45408,0.26472l2.75888,0.45981c1.32554,0.1969 2.34249,1.3397 2.34249,2.72002c0,0.96969 -0.50189,1.82215 -1.26006,2.3118l-2.19772,1.46515c-1.91254,1.32044 -4.38125,3.42427 -6.95008,3.21852c-0.15428,-0.01236 -0.30607,-0.03018 -0.4554,-0.05325c-0.05006,0.37578 -0.10154,0.75079 -0.15506,1.12483c-0.39955,2.7923 -0.08093,5.90863 -0.8338,8.67546c-0.55296,2.03215 -1.60674,3.89627 -2.29248,5.88754c-0.13243,0.38455 -0.26978,0.76734 -0.41137,1.14859c0.89363,-0.57896 1.87746,-1.10632 3.01091,-1.57231c1.37172,-0.56395 2.74624,-1.66687 4.21129,-1.43599c0.20186,0.03181 0.39954,0.0761 0.59365,0.13105l0.01377,-0.13773l2.46975,0.24697c1.40478,0.12319 2.50662,1.30261 2.50662,2.73938c0,1.43677 -1.10183,2.61619 -2.50662,2.73938l-2.46975,0.24697l-0.00058,-0.00583l-0.01175,0.00703c-0.13033,0.00272 -0.25677,0.00976 -0.37948,0.02096c-0.57752,0.50169 -1.37935,0.72557 -2.22844,0.90383c-2.60278,2.22803 -2.26858,7.85777 -5.74724,9.95097c-4.19234,2.52264 -9.51277,-0.47313 -12.9873,-2.16454c0.85438,-2.2274 2.04126,-4.31337 3.1262,-6.43802c0.45107,-0.88334 0.85409,-3.9007 1.08772,-4.60493c1.12806,-3.4002 2.46634,-6.90964 3.16684,-10.42587c0.34063,-1.7098 -0.04962,-3.48656 -0.04962,-5.22995c0,-4.7302 0.32128,-9.65365 -0.22085,-14.35066c-0.21843,-1.89251 -2.52744,-3.22014 -2.52904,-5.12522c-0.00118,-1.40243 1.3666,-2.44941 2.04989,-3.67412c0,0 1.65,-2.2 3.85,-0.55c0.25972,0.19479 0.46579,0.39725 0.62724,0.60285c0.94169,-0.38341 1.83243,0.05106 2.62222,0.83848c0.83964,-3.41394 1.81235,-6.77658 2.70086,-9.97735zM282.80787,258.22953c0.21128,-0.01719 0.41347,-0.06253 0.60843,-0.12994c-0.18656,-0.16994 -0.38529,-0.35856 -0.59743,-0.56699c-0.03201,0.2319 -0.06333,0.46392 -0.09411,0.69602c0.02771,0.0028 0.05543,0.00316 0.08311,0.00091z"></path><path d="M210.06456,101.36691c0.06598,-0.01939 0.13208,-0.03845 0.19828,-0.05718c-0.05922,-0.0381 -0.11778,-0.07753 -0.17576,-0.11841c-0.00744,0.0587 -0.01494,0.11724 -0.02253,0.17559zM193.36802,148.89316c-0.16237,1.05332 -0.32475,2.10664 -0.48712,3.15995l-0.24153,2.41527c-0.12319,1.40478 -1.30261,2.50662 -2.73938,2.50662c-0.96969,0 -1.82215,-0.50189 -2.3118,-1.26006l-1.47634,-2.21451l0.0816,-0.0544c-0.12883,-0.15599 -0.25005,-0.31878 -0.36235,-0.48954c-1.36539,-2.07628 -0.83016,-7.73662 -0.68111,-10.23148c0.02754,-0.46105 0.42778,-0.93916 0.24576,-1.36366c-0.7007,-1.63409 -3.51832,-1.4811 -4.38881,-3.03142c-1.54711,-2.75538 0.20332,-8.14406 1.38134,-10.72467c0.33948,-0.74367 3.18221,-6.12697 4.02145,-7.02799c1.17946,-1.26629 3.06552,-1.72352 4.2425,-2.99211c3.98942,-4.29993 5.9405,-10.96626 7.12587,-16.5018c0.97312,-0.85035 1.94624,-1.70071 2.91936,-2.55106l1.88801,-2.12401c0.10879,-0.12353 0.22849,-0.23722 0.3576,-0.33956c-0.70442,-2.30562 -0.96711,-5.09918 -0.38806,-6.50399c2.28503,-5.54365 11.22606,-6.51082 16.0074,-3.6993c1.27098,0.74736 2.93345,2.83879 3.62199,4.93453c1.7096,-0.06728 4.6743,-0.16955 5.4061,-0.03945c3.62576,0.64459 7.26553,2.76541 10.67426,4.48728c-0.17214,-1.95052 -0.10589,-4.39043 -0.09946,-5.5625l0.16559,-0.26081l-0.11985,-0.02568l0.73888,-3.44811c0.24478,-1.26801 1.36059,-2.22569 2.70008,-2.22569c0.31375,0 0.61523,0.05254 0.89612,0.14931l0.79091,-1.89818c0.39974,-1.02494 1.39655,-1.75113 2.56297,-1.75113c0.33529,0 0.65656,0.06 0.95366,0.16986c0.14176,-0.16038 0.27801,-0.30107 0.40649,-0.41761c1.4497,-1.31492 2.91108,-2.07204 4.38093,-2.42197l0.05891,-0.23028c0.82339,-0.93656 1.31175,-2.34795 2.47016,-2.80967c4.50603,-1.79602 7.41435,1.28865 9.42124,4.94477l0.09343,-0.08494l2.49357,2.74293c0.44814,0.48926 0.72159,1.14115 0.72159,1.85692c0,1.51878 -1.23122,2.75 -2.75,2.75c-0.46188,0 -0.89717,-0.11387 -1.27932,-0.31507l-2.45052,-1.22526c-1.51834,-0.75917 -2.92302,-1.78443 -4.53452,-2.31804c-3.01531,-0.99844 -5.50504,1.25769 -6.79156,3.80449c0.12975,1.82418 -0.33007,3.71309 -0.44408,5.55387c-0.04718,0.76179 0.08036,1.60096 0.04826,2.38089c1.35882,-0.09872 2.7753,0.05485 4.12737,-0.11169c2.64145,-0.32535 5.14292,-2.03865 7.78911,-1.75436c0.17726,0.01904 0.35277,0.0456 0.52677,0.07866l0.00747,-0.0822l2.72207,0.24746c1.41542,0.11258 2.52895,1.29687 2.52895,2.74125c0,0.75939 -0.3078,1.44689 -0.80546,1.94454l-1.91,1.91c-3.29487,4.20394 -5.78964,5.37671 -11.14883,5.39308c-3.1457,-0.25976 -6.09969,-0.86121 -9.19689,-1.26529c-1.93558,-0.25252 -4.00992,0.03004 -5.81129,-0.72185c-0.811,-0.33851 -1.33607,-1.17363 -2.12542,-1.55993c-2.11163,-1.0334 -3.27868,-0.62911 -5.49493,-1.30279c-0.92901,-0.2824 -1.78496,-0.76499 -2.67509,-1.15291c-0.22311,-0.09723 -0.61744,-0.54126 -0.66452,-0.30249c-0.06261,0.31751 0.46455,0.48035 0.56905,0.78664c0.94179,2.76027 2.12824,3.23821 4.16602,5.80965c1.54453,1.94901 1.91465,3.2364 3.54524,4.6439c2.01801,0.95004 4.22318,1.59406 6.1451,2.66766c2.17029,1.21234 4.16618,2.71438 6.28279,4.0182l2.16174,1.20097c0.40645,0.21575 0.75234,0.53046 1.00554,0.91202c2.30531,-0.56799 4.57811,-1.34521 6.78998,-1.89931c0,0 2.66789,-0.66697 3.33486,2.00092c0.66697,2.66789 -2.00092,3.33486 -2.00092,3.33486c-5.37636,1.34121 -10.96286,3.62593 -16.64411,2.5404c-2.78725,-0.53257 -4.21515,-1.65903 -6.52387,-3.15406c-3.00896,-1.94848 -5.91865,-4.24626 -8.39079,-6.90035c-0.27629,0.07339 -0.54821,0.09666 -0.79164,0.09392c-0.04292,0.00219 -0.06657,0.00219 -0.06657,0.00219c-1.7434,0 -3.51529,-0.36483 -5.22995,-0.04962c-3.20621,0.58941 -5.96166,3.73944 -8.13278,5.7998c-3.01496,2.86116 -5.38939,5.38358 -8.04362,8.53284c-4.77626,5.66703 -9.34373,11.20942 -11.17575,18.63396l-0.19964,1.24962c-0.00015,0.00104 -0.00023,0.00156 -0.00023,0.00156zM186.28608,135.89848c-0.19488,-0.18454 -0.36083,-0.38011 -0.50099,-0.58499c-0.05582,0.11221 -0.07188,0.21679 0.00796,0.30658c0.12971,0.14588 0.30227,0.22559 0.49303,0.2784zM192.46718,122.90206c-0.2686,0.15274 -0.53682,0.30596 -0.79728,0.46811c0.17094,0.14389 0.3241,0.30822 0.45572,0.48922c0.11496,-0.31855 0.22873,-0.6377 0.34156,-0.95733zM210.29095,90.01802c0.15614,0.11628 0.29952,0.24875 0.42765,0.3949c0.33636,-0.16193 0.68688,-0.31146 1.05197,-0.45026c-0.50916,-0.00416 -1.01193,0.0141 -1.47962,0.05535z"></path></g><g fill="none" stroke-width="0"><path d="M-34,360v-359h34v359z"></path><path d="M480,360v-359h34v359z"></path></g><g fill-opacity="0.1098" fill="#f6d1ff" stroke-width="0.5"><path d="M227.15,164.96073c1.80937,1.99798 4.01149,4.0636 4.41624,6.09072c0.68347,3.42305 -1.23811,6.96773 -4.85892,7.61648c-7.54748,1.35231 -6.67087,-5.77729 -7.28299,-10.32792c-0.40984,-3.04683 -2.22585,-5.63581 -3.83757,-8.12793c0,0 -1.48708,-2.31324 0.82616,-3.80032c0.87992,-0.56567 1.64031,-0.58145 2.24478,-0.38384c0.02213,-0.60391 0.12171,-1.17946 0.4694,-1.6472c1.19084,-1.602 2.81137,-3.9458 4.77884,-3.60878c3.66687,0.62812 3.21126,5.61129 3.24407,7.95306c0,2.07858 0,4.15715 0,6.23573z"></path><path d="M210.14919,263.72328c-0.77946,1.85724 -1.6083,3.71835 -2.49864,5.64617c-0.00023,0.00049 -0.30662,0.75662 -0.69597,1.69018l0.10042,-0.02008c0.1916,-0.04226 0.3907,-0.06454 0.595,-0.06454c1.51878,0 2.75,1.23122 2.75,2.75c0,0.83082 -0.36843,1.57558 -0.95082,2.07983l-1.9883,1.73976l-0.0105,-0.012c-0.05854,0.0565 -0.11886,0.11157 -0.18107,0.1651c-1.61061,1.386 -2.91596,2.0325 -3.95615,2.08608c-0.40731,0.3965 -1.01287,0.69124 -1.91317,0.69124c-0.00306,0 -0.00613,0 -0.00918,-0.00001c-0.34702,0.28043 -0.67464,0.5683 -0.97308,0.8685c-0.91977,0.92517 -1.26245,2.26326 -1.56345,3.57849c0.82526,1.37031 -0.00092,2.63135 -0.36056,3.07711c0.34807,3.52458 2.72592,8.06175 -1.1275,10.30243c-4.11419,2.39231 -8.45841,-2.16424 -8.96615,-5.59674c-0.25411,-1.7179 2.81969,-5.11998 4.79355,-7.1498c0.2256,-1.49527 0.70005,-2.98938 1.42704,-4.65932c0.95549,-2.19484 2.59774,-3.84764 4.43407,-5.34671c0.52736,-1.51332 1.19331,-2.93673 1.88718,-4.34712c0.71378,-1.77218 1.56246,-3.80677 1.70753,-4.12127c1.78421,-3.86819 3.31872,-7.43875 4.73505,-11.29609c-2.9822,-4.09671 -0.52124,-10.18409 1.10164,-14.88797c0.14459,-0.92009 0.39941,-1.77327 0.70594,-2.59586c0.0597,-0.36153 0.20409,-0.8948 0.55332,-1.35951c0.53584,-1.23819 1.11707,-2.45186 1.52651,-3.77586c1.49231,-4.8257 -0.21296,-10.39402 1.25762,-15.27433c0.99355,-3.29721 3.16235,-6.20748 4.26159,-9.53557c0,0 0.86963,-2.60888 3.47851,-1.73925c2.60888,0.86963 1.73925,3.47851 1.73925,3.47851c-1.10511,3.28866 -3.23941,6.22855 -4.23841,9.46443c-1.47846,4.7889 0.18552,10.3605 -1.24238,15.22567c-0.47121,1.60551 -1.30647,2.96633 -1.91913,4.45857l-0.05585,0.70527c-0.18132,0.66388 -0.41271,1.34234 -0.66466,2.02844c-0.00062,0.00632 -0.00122,0.01264 -0.00182,0.01897c-0.22922,2.4133 -0.35986,4.76478 1.18955,6.79772c1.26998,1.6663 3.38015,1.73834 4.18475,4.02114c0.63668,1.8064 1.72052,4.29266 0.45247,5.72811c-1.28302,1.45239 -3.8696,0.22023 -5.80439,0.33034c-0.2867,-0.11291 -0.81435,-0.31427 -1.44892,-0.56303c-0.68027,1.85845 -1.65232,3.95779 -1.79993,4.28799c-0.16736,0.37438 -0.33794,0.74939 -0.51095,1.12503z"></path><path d="M270.4,274.225l0.01365,-0.47636c-0.85815,-8.69465 0.92704,-17.27264 -2.09808,-25.58384c0,0 -0.93979,-2.58443 1.64464,-3.52423c2.58443,-0.93979 3.52423,1.64464 3.52423,1.64464c0.55594,1.53021 1.91267,5.09615 2.135,6.53088c0.5977,3.8571 0.35926,7.86529 0.19014,11.86302c1.59043,0.63698 1.59043,2.54589 1.59043,2.54589l-0.0969,1.47357c-0.94587,3.41353 -0.43747,6.79481 -1.07232,10.18227l1.08999,-0.436c0.33135,-0.14152 0.69614,-0.21985 1.07923,-0.21985c1.51878,0 2.75,1.23122 2.75,2.75c0,0.81583 -0.35526,1.54869 -0.91951,2.05231l-2.49084,2.24175l-0.01792,-0.01991c-0.07495,0.0755 -0.15244,0.14897 -0.23267,0.22026c-0.70465,0.62618 -1.34862,1.10374 -1.93729,1.44877c-0.22481,1.94799 1.09506,4.09819 -0.20278,6.30947c6.8465,5.5674 10.56386,8.73329 -0.17308,0.27223c-0.07844,0.1144 -0.1643,0.22894 -0.25817,0.34361c-1.05901,1.29369 -8.27926,1.11645 -9.20318,-0.19925c-0.8759,-1.24733 -0.30195,-3.95065 0.5714,-6.56466c-16.58751,-14.12743 -9.13441,-8.44159 0.31328,-0.90104c0.76437,-2.12082 1.64179,-4.05947 1.98775,-4.95026c0,0 0.48161,-1.23843 1.63614,-1.6588c0.19995,-0.39576 0.39755,-0.79399 0.49571,-1.20593c0.17656,-0.74093 0.29272,-1.48557 0.37416,-2.2331c-0.693,-0.8083 -0.693,-1.90545 -0.693,-1.90545z"></path><path d="M283.15,232.975c2.75,0 2.75,2.75 2.75,2.75v0.75c0,6.63197 -0.10464,12.63044 1.42246,18.77819l0.98321,1.26413c0.3721,0.46908 0.59433,1.06243 0.59433,1.70768c0,1.51878 -1.23122,2.75 -2.75,2.75h-2.5v-0.36089l-0.89248,0.21204c-1.27596,-1.04764 -3.00126,-1.71384 -3.82789,-3.14293c-1.26993,-2.19548 -0.26205,-7.73871 -0.01599,-10.23185c0,0 0.17354,-1.73538 1.62621,-2.30395c-0.11846,-2.8736 -0.13985,-5.74984 -0.13985,-8.67241v-0.75c0,0 0,-2.75 2.75,-2.75z"></path><path d="M252.4,158.225c1.89613,0 2.48487,1.30738 2.66768,2.11926c0.91132,1.50662 2.08374,2.86547 2.82216,4.46316c0.35135,0.76021 0.55761,1.56833 0.70191,2.39638c1.3607,2.5569 2.02342,5.08484 2.23294,8.13777c0.06971,0.33651 0.09439,0.67673 0.05287,1.02296c0.00717,0.20109 0.01263,0.40453 0.01644,0.61046h0.00601v2.99243c1.5,0.67171 1.5,2.50757 1.5,2.50757c-0.17481,2.52312 0.99809,3.14967 2.68693,5.04788l1.80711,1.57431c4.04611,-0.92617 3.00595,-6.30943 3.00595,-10.12218v-2.5c0,-1.51878 1.23122,-2.75 2.75,-2.75c0.341,0 0.6675,0.06207 0.96883,0.17552c-0.1666,-1.05593 0.46422,-1.93461 0.72686,-2.24751c0.06679,-1.07957 0.85977,-1.87255 0.85977,-1.87255l-0.09392,0.38685c1.06777,-2.46611 2.76778,-5.00387 4.6803,-7.35407c0.38983,-0.76556 0.80238,-1.52796 1.2647,-2.27723c2.12834,-3.44936 5.05093,-6.60807 6.87657,-10.27632c0.98671,-1.98259 1.50167,-4.18625 2.56711,-6.12767c0.97087,-1.7691 2.50205,-3.16805 3.69261,-4.79743c1.96683,-2.69178 3.35745,-5.85019 5.06699,-8.71162l0.42595,-2.34273c0.21258,-1.30729 1.34686,-2.30524 2.71422,-2.30524c1.51878,0 2.75,1.23122 2.75,2.75c0,0.13036 -0.00907,0.2586 -0.02662,0.38413l-0.49462,3.95697l-0.08022,-0.01003c0.00968,0.10427 0.018,0.20874 0.02487,0.31343c0.14103,2.15069 -1.32568,4.10459 -2.1137,6.11068c-1.22021,3.10634 -3.02493,5.77025 -4.68121,8.62512c-1.67607,2.889 -2.6821,6.21754 -4.62915,8.95176c-2.48933,3.49574 -6.17176,6.21536 -9.12662,9.42717c-1.63052,3.1423 -3.01886,6.23771 -5.67818,8.93531c0,0 -1.11972,1.11972 -2.50948,0.81012l0.81782,1.16831l-0.08592,0.06014c0.16994,0.21526 0.32315,0.44425 0.45581,0.69012c2.34325,4.34305 -2.58093,12.75795 1.19681,16.26587l0.87701,2.52157c0,0 0.53932,2.6966 -2.15728,3.23592c-2.6966,0.53932 -3.23592,-2.15728 -3.23592,-2.15728l0.37701,0.02157c-0.75157,-0.94788 -1.81996,-1.71478 -2.2547,-2.84364c-0.18236,-0.47353 -0.29948,-1.13814 -0.37002,-1.9145c-0.77889,0.54419 -1.70966,0.99988 -2.82163,1.34746c-1.10892,0.34663 -2.32271,0.06652 -3.48407,0.09978c0,0 -2.38628,0 -2.71308,-2.22288l-1.22385,-1.075c-2.7127,-3.05399 -4.116,-4.68402 -4.30467,-8.74771c-0.89498,-0.45364 -1.50839,-1.38239 -1.50839,-2.45442v-2.80173c-1.70665,-1.22324 -1.66687,-6.42923 -1.95633,-8.21012c-0.00227,-0.01396 -0.00458,-0.0279 -0.00693,-0.04182c-0.35295,-0.58704 -0.76282,-1.18126 -1.23674,-1.79633c0,0 -0.77636,-1.03514 -0.55395,-2.21787c-0.55504,-0.85323 -1.14765,-1.6953 -1.64999,-2.59661l-0.34607,-1.58552c0,0 0,-2.75 2.75,-2.75z"></path><path d="M245.01963,93.83388c-2.60888,0.86963 -3.47851,-1.73925 -3.47851,-1.73925l-0.64112,-2.36963c0,-0.83333 0,-1.66667 0,-2.5c0,0 0,-2.75 2.75,-2.75c2.75,0 2.75,2.75 2.75,2.75c0,0.83333 0,1.66667 0,2.5l0.35888,0.63037c0,0 0.86963,2.60888 -1.73925,3.47851z"></path><path d="M192.74797,142.37318c-0.03781,0.3679 -0.07432,0.73591 -0.10956,1.10402c-0.14573,1.52245 0.1117,3.17471 -0.54559,4.55568c-0.03489,0.0733 -0.07113,0.14574 -0.10863,0.21738l0.04983,0.01495l-0.73225,2.44082c-0.32015,1.16394 -1.38611,2.01897 -2.65178,2.01897c-1.51878,0 -2.75,-1.23122 -2.75,-2.75v-2.75h0.12369l-0.11031,-0.27098c0.24262,-1.24343 0.46507,-2.49321 0.66903,-3.74716c-0.51822,-0.05959 -0.99261,-0.26324 -1.38211,-0.56988c-4.06296,-0.77485 -4.70889,-4.42442 -4.26883,-7.57686c0.78008,-5.58822 4.55763,-9.8995 7.96852,-14.20163v-1.38349h0.09181c-0.01551,-0.22523 -0.01853,-0.45165 -0.00654,-0.67949c0.12614,-2.39586 2.9721,-4.69044 4.4284,-6.22235c2.38322,-2.50695 4.10334,-5.08555 6.65612,-7.40788l1.36101,-1.81468c0.50041,-0.68249 1.30806,-1.1256 2.2192,-1.1256c1.45069,0 2.63903,1.12329 2.74266,2.54755l0.24784,2.97408l-0.03577,0.00298c0.0159,0.06946 0.03099,0.13916 0.04522,0.20912c0.26446,1.30037 -0.06593,2.66223 -0.28773,3.97056c-0.05518,0.32547 -0.11519,0.65786 -0.17993,0.99603c1.00727,0.40821 1.71771,1.39598 1.71771,2.54968c0,0.75939 -0.3078,1.44689 -0.80546,1.94454l-1.60787,1.60787c-1.42851,5.79892 -4.75889,11.47696 -8.0359,16.45389c-0.8789,1.33482 -1.7146,2.73072 -2.86426,3.83208c-0.0032,0.01382 -0.00641,0.02764 -0.00961,0.04147l0.0731,0.37014c0,0 0,2.15075 -1.90203,2.64818zM200.52255,112.75549c-0.1082,0.1299 -0.2163,0.26005 -0.32452,0.39041c0.07821,-0.02801 0.15611,-0.05459 0.23366,-0.07965c0.03073,-0.10348 0.06107,-0.20705 0.09087,-0.31076z"></path></g><path d="M231.68334,75.73333l0.14862,-0.13569c-0.31232,-1.03575 -0.4288,-2.12607 0.16394,-3.0291c0.55824,-0.85048 1.87354,-0.79347 2.81032,-1.19021c0,0 1.68834,-0.46045 2.1488,1.22788c0.19357,0.70973 0.00741,1.20248 -0.27343,1.53525c0.10721,1.35486 0.01112,2.63276 -0.07292,3.93346c0.01212,0.04514 0.02228,0.08858 0.03078,0.12968c0.03639,0.1673 0.06349,0.38122 0.04389,0.61096v1.58443c0,0.24814 -0.05165,0.48421 -0.14477,0.69805c0.01183,0.31761 -0.06459,0.67298 -0.33328,1.00669c-0.18186,0.28296 -0.46994,0.54233 -0.92629,0.65403c-0.44167,0.16019 -0.82524,0.10418 -1.13352,-0.03038c-0.52075,-0.1639 -0.80127,-0.53023 -0.95237,-0.87734c-1.28353,-2.07121 -1.5023,-3.64042 -1.50977,-6.11773z" fill="#43447b" stroke-width="0.5"></path><path d="M237.65,250.80117c-1.25,0 -1.25,-1.25 -1.25,-1.25v-1c0.01087,-0.48846 0.51163,-1.30715 0.04922,-1.46492c-2.33184,-0.79559 -4.2756,0.12421 -6.13639,-2.35684c-2.67331,-1.78554 -2.16283,-4.99008 -2.16283,-7.92824c0,-6.25262 0.5,-12.63787 0.5,-19c0,-0.43412 0.15077,-0.71747 0.34758,-0.90242c0.18494,-0.19681 0.4683,-0.34758 0.90242,-0.34758c0.03025,0 0.05976,0.00073 0.08856,0.00216l0.90658,0.02212c3.81615,0.7782 5.63123,4.1829 9.07392,5.61277c2.40763,1.44982 6.43037,2.53028 7.1531,5.85063c0.43689,2.00716 -1.65311,4.12813 -2.29383,5.92949c-1.79826,5.05575 -3.33522,10.36887 -5.26774,15.29708c0,0 -0.2233,0.55826 -0.74734,0.74554c-0.12435,0.35648 -0.42693,0.79022 -1.16325,0.79022z" fill="#a69cb5" stroke-width="0.5"></path><path d="M276.29845,248.96177c-1.69013,-0.63119 -2.82151,-1.62734 -4.05803,-2.62455c-0.21819,0.49373 -0.54433,0.91128 -1.03503,1.1483c-1.21222,0.58552 -3.87462,-2.21617 -4.20684,-3.02059c-0.56034,-1.35676 0.2088,-3.11197 -0.28959,-4.54105c-1.04318,-2.99119 -1.78127,-5.28142 -2.06052,-7.97832l-0.23497,0.03889l-0.48645,-2.43541c-0.0177,-0.08012 -0.027,-0.163 -0.027,-0.24787c0,-0.69036 0.61482,-1.25 1.37324,-1.25c0.08092,0 0.16022,0.00637 0.2373,0.01859c0.02856,-0.04135 0.06056,-0.08207 0.0964,-0.12138c0.10951,-0.36966 0.42206,-0.89721 1.31419,-0.89721c0.2054,0 0.38008,0.02796 0.52863,0.07553c1.28396,-0.36803 2.36151,-0.33731 3.78791,-0.78366c3.56865,-1.1167 6.60936,-2.25813 10.51444,-2.29187h0.27465c0.47692,0 0.78821,0.15077 0.99139,0.34758c0.21622,0.18494 0.38185,0.4683 0.38185,0.90242c0,0.06724 -0.00397,0.13085 -0.01149,0.19104c-0.15026,1.94182 -1.28987,3.54587 -1.90573,5.36752c-0.03206,0.59229 0.07202,1.20648 -0.012,2.06461c-0.30291,3.09357 -0.34488,6.46078 -0.82688,9.5245c-0.14959,0.95081 -0.20278,2.23604 -0.56094,3.24819c-0.07578,0.61133 -0.16625,1.22133 -0.27589,1.8295l-0.01398,0.01801l0.00981,0.00178l-0.26966,1.22729c-0.11528,0.58424 -0.67654,1.02756 -1.35156,1.02756c-0.57922,0 -1.07468,-0.32642 -1.27648,-0.7882z" fill="#6d587e" stroke-width="0.5"></path><g stroke-width="0.5"><path d="M226.15,214.55117c-1.25,0 -1.25,-1.25 -1.25,-1.25c0,-2.33333 0,-5.41667 0,-7.75c0,-3.77357 -0.96011,-8.48043 1.57175,-11.33717c0.7888,-0.89001 1.37025,-3.19784 3.37639,-1.87394l0.04175,-0.03131c0.21062,-0.16156 0.47415,-0.25758 0.7601,-0.25758c0.69036,0 1.25,0.55964 1.25,1.25c0,3.16667 0,7.58333 0,10.75c0,8.74324 -0.61964,17.48534 -1.50608,26.12317c-0.16654,1.62282 -0.30022,3.161 -0.50328,4.77956c-0.11682,0.9312 0.24649,3.21371 -0.3303,4.06217c-0.05572,0.08197 -0.11438,0.16135 -0.17563,0.23846l0.03247,0.02319l-1.24032,1.73644c-0.22579,0.32457 -0.60151,0.53701 -1.02685,0.53701c-0.69036,0 -1.25,-0.55964 -1.25,-1.25l0,-1.44713c-0.17389,-1.52852 -0.42333,-3.04936 -0.72573,-4.55773c0,0 -0.00923,-0.04613 -0.01515,-0.12227c-0.00913,-0.07583 -0.00913,-0.12287 -0.00913,-0.12287v-0.25c0.02517,-3.48602 0.96336,-7.35976 1.50364,-10.84531c-0.00754,-2.90996 0.11795,-5.7875 0.29191,-8.65337c-0.18229,0.14624 -0.4377,0.24869 -0.79555,0.24869zM227.75413,231.61494c0.16316,-1.00409 0.3198,-1.98543 0.39956,-2.90899c-0.16529,0.97817 -0.30843,1.95447 -0.39956,2.90899z" fill="#baafcc"></path><path d="M224.08612,191.75671c1.21814,-0.75347 2.65445,-0.87108 3.47255,-0.13561c0.36463,0.11291 0.84133,0.40814 0.84133,1.18007c0,0.30298 -0.07344,0.53252 -0.18471,0.70642c-0.00919,0.26779 -0.04496,0.55991 -0.11065,0.87724c-0.28769,1.38977 -1.3449,3.32863 -2.09302,4.84925c-0.12231,0.29685 -0.25366,0.59437 -0.38531,0.89181c0.04727,1.92051 0.02383,3.84288 0.02054,5.76388l-0.03649,0.0843l0.02707,0.00387l-0.2474,1.73181c-0.07792,0.61548 -0.6034,1.09142 -1.24004,1.09142c-0.46331,0 -0.86774,-0.25206 -1.08365,-0.62653l-0.73821,-1.23035l0.41173,-0.24704c-0.02857,-0.05184 -0.05616,-0.10366 -0.08278,-0.15548c-0.22758,0.30895 -0.59392,0.5094 -1.00709,0.5094c-0.24073,0 -0.46557,-0.06805 -0.65633,-0.18597c-0.04557,0.17724 -0.09273,0.35373 -0.14177,0.52937c0,0 -0.3434,1.2019 -1.54531,0.8585c-1.2019,-0.3434 -0.8585,-1.54531 -0.8585,-1.54531c0.42885,-1.46031 0.73959,-3.12547 1.07953,-4.82743c0.01544,-2.1843 0.4288,-4.75434 0.62846,-6.20234c0.09507,-0.6895 -0.16396,-1.48984 0.20883,-2.07761c0.64006,-1.00916 2.24354,-1.57311 3.72121,-1.84368z" fill="#655077"></path><path d="M293.3828,217.57357c-4.29794,3.98482 -3.4828,-3.36336 -3.4828,-5.2724c0,-3.24986 -0.0152,-6.50017 0,-9.75c0.00576,-1.23143 -0.14181,-2.84871 1.01911,-3.76405c2.09107,-1.64873 4.59501,0.14575 4.9748,2.14088c0.56026,2.94314 0.59358,7.09591 0.00608,10.66428c0,0.4863 0,0.9726 0,1.45889v1.75c0,0.69036 -0.55964,1.25 -1.25,1.25c-0.29555,0 -0.56714,-0.10257 -0.78112,-0.27406c-0.05228,0.77614 -0.18036,1.51301 -0.48608,1.79646z" fill="#baafcc"></path><path d="M291.65,199.30117c0,0.68556 -0.37599,0.99513 -0.71555,1.13491c0.07087,0.23048 0.13492,0.45745 0.19941,0.66486c0.72067,2.31759 0.01614,6.22496 0.01614,8.70023c0,1.62448 0.0382,3.14661 -0.27427,4.74515l-0.24546,1.22729c-0.10493,0.58424 -0.61583,1.02756 -1.23027,1.02756c-0.46331,0 -0.86774,-0.25206 -1.08365,-0.62653l-0.73821,-1.23035l0.05253,-0.03152c-0.06616,-0.08922 -0.1282,-0.18165 -0.18531,-0.27793c-0.03202,-0.05398 -0.04241,-0.84664 -0.04536,-1.58358c-0.08201,0.0616 -0.17184,0.11335 -0.26774,0.15348c0.00292,0.79646 0.01774,1.58628 0.01774,2.34642c0,0 0,1.25 -1.25,1.25c-1.25,0 -1.25,-1.25 -1.25,-1.25c0,-2.36732 0.144,-4.72258 0.4999,-7.03217c0.00005,-0.12262 0.0001,-0.20232 0.0001,-0.21783c0,-2.5564 -1.13404,-8.61893 1.44098,-10.11803c0.27875,-0.16228 2.54538,-0.13197 3.05902,-0.13197h0.75c0,0 1.25,0 1.25,1.25z" fill="#655077"></path></g></g></g></svg>