<svg version="1.1" xmlns="http://www.w3.org/2000/svg" xmlns:xlink="http://www.w3.org/1999/xlink" width="507" height="179" viewBox="0,0,507,179"><defs><radialGradient cx="417.5" cy="180" r="89.5" gradientUnits="userSpaceOnUse" id="color-1"><stop offset="0" stop-color="#ffffff" stop-opacity="0.45098"></stop><stop offset="1" stop-color="#ffffff" stop-opacity="0"></stop></radialGradient><radialGradient cx="417.5" cy="180" r="31.7" gradientUnits="userSpaceOnUse" id="color-2"><stop offset="0" stop-color="#ffffff" stop-opacity="0.42745"></stop><stop offset="1" stop-color="#ffffff" stop-opacity="0"></stop></radialGradient><linearGradient x1="0" y1="180" x2="417.5" y2="180" gradientUnits="userSpaceOnUse" id="color-3"><stop offset="0" stop-color="#ffffff" stop-opacity="0"></stop><stop offset="1" stop-color="#ffffff"></stop></linearGradient><linearGradient x1="458.5" y1="180" x2="417.5" y2="180" gradientUnits="userSpaceOnUse" id="color-4"><stop offset="0" stop-color="#ffffff" stop-opacity="0"></stop><stop offset="1" stop-color="#ffffff"></stop></linearGradient></defs><g transform="translate(0,-90.5)"><g stroke="none" stroke-width="0" stroke-miterlimit="10"><path d="M328,180c0,-49.42949 40.07051,-89.5 89.5,-89.5c49.42949,0 89.5,40.07051 89.5,89.5c0,49.42949 -40.07051,89.5 -89.5,89.5c-49.42949,0 -89.5,-40.07051 -89.5,-89.5z" fill="url(#color-1)"></path><path d="M385.8,180c0,-17.50743 14.19257,-31.7 31.7,-31.7c17.50743,0 31.7,14.19257 31.7,31.7c0,17.50743 -14.19257,31.7 -31.7,31.7c-17.50743,0 -31.7,-14.19257 -31.7,-31.7z" fill="url(#color-2)"></path><path d="M0,182.25v-4.5h417.5v4.5z" fill="url(#color-3)"></path><path d="M417.5,182.25v-4.5h41v4.5z" fill="url(#color-4)"></path></g></g></svg>