<svg version="1.1" xmlns="http://www.w3.org/2000/svg" xmlns:xlink="http://www.w3.org/1999/xlink" width="48.39446" height="76.03718" viewBox="0,0,48.39446,76.03718"><defs><linearGradient x1="196.34763" y1="180" x2="207.38181" y2="180" gradientUnits="userSpaceOnUse" id="color-1"><stop offset="0" stop-color="#ffffff" stop-opacity="0.5098"></stop><stop offset="1" stop-color="#ffffff" stop-opacity="0"></stop></linearGradient></defs><g transform="translate(-191.61514,-141.98141)"><g stroke-miterlimit="10"><path d="" fill="#9966ff" stroke="none" stroke-width="0.5"></path><path d="" fill="#cbadff" stroke="none" stroke-width="0.5"></path><g fill="#f2ecff" stroke="#f2ecff" stroke-width="0.5"><g><path d="M192.11612,213.11233v-1.7434h25.19277v1.7434z"></path><path d="M217.30889,213.11233v-1.7434l22.69111,0.8717z"></path><g><path d="M192.11612,211.36894c0,0 2.06405,-0.01032 4.01063,-0.29425c1.59912,-0.23325 3.07314,-0.71241 3.65078,-0.99789c1.55493,-0.76848 3.68414,-2.99164 3.68414,-2.99164v4.28379z"></path><path d="M203.46168,211.36894v-4.28379c0,0 2.1292,2.22316 3.68414,2.99164c0.57764,0.28549 2.05167,0.76464 3.65079,0.99789c1.94659,0.28394 4.01063,0.29425 4.01063,0.29425z"></path></g><g><path d="M203.46168,213.11233v4.28379c0,0 -2.1292,-2.22317 -3.68414,-2.99165c-0.57764,-0.28549 -2.05167,-0.76464 -3.65078,-0.99789c-1.94659,-0.28394 -4.01063,-0.29425 -4.01063,-0.29425z"></path><path d="M214.80723,213.11233c0,0 -2.06405,0.01032 -4.01063,0.29425c-1.59912,0.23325 -3.07314,0.7124 -3.65078,0.99789c-1.55493,0.76849 -3.68414,2.99165 -3.68414,2.99165v-4.28379z"></path></g></g><g><path d="M192.11612,200.02555v-1.7434h25.19277v1.7434z"></path><path d="M217.30889,200.02555v-1.7434l22.69111,0.8717z"></path><g><path d="M192.11612,198.28216c0,0 2.06405,-0.01032 4.01063,-0.29425c1.59912,-0.23325 3.07314,-0.71241 3.65078,-0.99789c1.55493,-0.76848 3.68414,-2.99164 3.68414,-2.99164v4.28379z"></path><path d="M203.46168,198.28216v-4.28379c0,0 2.1292,2.22316 3.68414,2.99164c0.57764,0.28549 2.05167,0.76464 3.65079,0.99789c1.94659,0.28394 4.01063,0.29425 4.01063,0.29425z"></path></g><g><path d="M203.46168,200.02555v4.28379c0,0 -2.1292,-2.22317 -3.68414,-2.99165c-0.57764,-0.28549 -2.05167,-0.76464 -3.65078,-0.99789c-1.94659,-0.28394 -4.01063,-0.29425 -4.01063,-0.29425z"></path><path d="M214.80723,200.02555c0,0 -2.06405,0.01032 -4.01063,0.29425c-1.59912,0.23325 -3.07314,0.7124 -3.65078,0.99789c-1.55493,0.76849 -3.68414,2.99165 -3.68414,2.99165v-4.28379z"></path></g></g><g><path d="M192.11612,187.41509v-1.7434h25.19277v1.7434z"></path><path d="M217.30889,187.41509v-1.7434l22.69111,0.8717z"></path><g><path d="M192.11612,185.6717c0,0 2.06405,-0.01032 4.01063,-0.29425c1.59912,-0.23325 3.07314,-0.71241 3.65078,-0.99789c1.55493,-0.76848 3.68414,-2.99164 3.68414,-2.99164v4.28379z"></path><path d="M203.46168,185.6717v-4.28379c0,0 2.1292,2.22316 3.68414,2.99164c0.57764,0.28549 2.05167,0.76464 3.65079,0.99789c1.94659,0.28394 4.01063,0.29425 4.01063,0.29425z"></path></g><g><path d="M203.46168,187.41509v4.28379c0,0 -2.1292,-2.22317 -3.68414,-2.99165c-0.57764,-0.28549 -2.05167,-0.76464 -3.65078,-0.99789c-1.94659,-0.28394 -4.01063,-0.29425 -4.01063,-0.29425z"></path><path d="M214.80723,187.41509c0,0 -2.06405,0.01032 -4.01063,0.29425c-1.59912,0.23325 -3.07314,0.7124 -3.65078,0.99789c-1.55493,0.76849 -3.68414,2.99165 -3.68414,2.99165v-4.28379z"></path></g></g><g><path d="M192.11612,174.32831v-1.7434h25.19277v1.7434z"></path><path d="M217.30889,174.32831v-1.7434l22.69111,0.8717z"></path><g><path d="M192.11612,172.58491c0,0 2.06405,-0.01032 4.01063,-0.29425c1.59912,-0.23325 3.07314,-0.71241 3.65078,-0.99789c1.55493,-0.76848 3.68414,-2.99164 3.68414,-2.99164v4.28379z"></path><path d="M203.46168,172.58491v-4.28379c0,0 2.1292,2.22316 3.68414,2.99164c0.57764,0.28549 2.05167,0.76464 3.65079,0.99789c1.94659,0.28394 4.01063,0.29425 4.01063,0.29425z"></path></g><g><path d="M203.46168,174.32831v4.28379c0,0 -2.1292,-2.22317 -3.68414,-2.99165c-0.57764,-0.28549 -2.05167,-0.76464 -3.65078,-0.99789c-1.94659,-0.28394 -4.01063,-0.29425 -4.01063,-0.29425z"></path><path d="M214.80723,174.32831c0,0 -2.06405,0.01032 -4.01063,0.29425c-1.59912,0.23325 -3.07314,0.7124 -3.65078,0.99789c-1.55493,0.76849 -3.68414,2.99165 -3.68414,2.99165v-4.28379z"></path></g></g><g><path d="M191.90085,161.71784v-1.7434h25.19277v1.7434z"></path><path d="M217.09362,161.71784v-1.7434l22.69111,0.8717z"></path><g><path d="M191.90085,159.97445c0,0 2.06405,-0.01032 4.01063,-0.29425c1.59912,-0.23325 3.07314,-0.71241 3.65078,-0.99789c1.55493,-0.76848 3.68414,-2.99164 3.68414,-2.99164v4.28379z"></path><path d="M203.2464,159.97445v-4.28379c0,0 2.1292,2.22316 3.68414,2.99164c0.57764,0.28549 2.05167,0.76464 3.65079,0.99789c1.94659,0.28394 4.01063,0.29425 4.01063,0.29425z"></path></g><g><path d="M203.2464,161.71784v4.28379c0,0 -2.1292,-2.22317 -3.68414,-2.99165c-0.57764,-0.28549 -2.05167,-0.76464 -3.65078,-0.99789c-1.94659,-0.28394 -4.01063,-0.29425 -4.01063,-0.29425z"></path><path d="M214.59196,161.71784c0,0 -2.06405,0.01032 -4.01063,0.29425c-1.59912,0.23325 -3.07314,0.7124 -3.65078,0.99789c-1.55493,0.76849 -3.68414,2.99165 -3.68414,2.99165v-4.28379z"></path></g></g><g><path d="M191.90085,148.63106v-1.7434h25.19277v1.7434z"></path><path d="M217.09362,148.63106v-1.7434l22.69111,0.8717z"></path><g><path d="M191.90085,146.88767c0,0 2.06405,-0.01032 4.01063,-0.29425c1.59912,-0.23325 3.07314,-0.71241 3.65078,-0.99789c1.55493,-0.76848 3.68414,-2.99164 3.68414,-2.99164v4.28379z"></path><path d="M203.2464,146.88767v-4.28379c0,0 2.1292,2.22316 3.68414,2.99164c0.57764,0.28549 2.05167,0.76464 3.65079,0.99789c1.94659,0.28394 4.01063,0.29425 4.01063,0.29425z"></path></g><g><path d="M203.2464,148.63106v4.28379c0,0 -2.1292,-2.22317 -3.68414,-2.99165c-0.57764,-0.28549 -2.05167,-0.76464 -3.65078,-0.99789c-1.94659,-0.28394 -4.01063,-0.29425 -4.01063,-0.29425z"></path><path d="M214.59196,148.63106c0,0 -2.06405,0.01032 -4.01063,0.29425c-1.59912,0.23325 -3.07314,0.7124 -3.65078,0.99789c-1.55493,0.76849 -3.68414,2.99165 -3.68414,2.99165v-4.28379z"></path></g></g></g><path d="M191.61514,217.39612v-74.79224h15.76667v74.79224z" fill="url(#color-1)" stroke="none" stroke-width="0"></path></g></g></svg>