<svg version="1.1" xmlns="http://www.w3.org/2000/svg" xmlns:xlink="http://www.w3.org/1999/xlink" width="131" height="99.66667" viewBox="0,0,131,99.66667"><g transform="translate(-176.86667,-126.63333)"><g stroke="none" stroke-width="0.5" stroke-miterlimit="10"><path d="M195.37,156.58c0,-0.03926 0.00088,-0.07763 0.0026,-0.11514c-0.38175,-0.27386 -0.58238,-0.63498 -0.58238,-0.63498c-0.93546,-1.69733 -3.98657,-6.89486 0.38337,-7.76525c1.83766,-0.36602 3.0369,1.13027 3.50697,2.67994c0.31684,-0.31787 0.75517,-0.51457 1.23944,-0.51457c0.86021,0 1.57547,0.62066 1.72237,1.43859l0.39364,1.96821l-0.13531,0.02706c0.0662,0.26794 0.10153,0.54162 0.0942,0.82326c-0.02512,0.96518 -2.85919,2.9161 -3.62491,3.49288l-1.25,0.35c0,0 -1.75,0 -1.75,-1.75z" fill="#ad4eab"></path><path d="M296.57609,173.20927c0.97073,1.45609 -0.48536,2.42681 -0.48536,2.42681l-0.64323,0.42791c-1.07043,0.6507 -1.6214,1.08651 -2.04868,1.65358l-0.13719,1.23469c-0.08654,0.88564 -0.83326,1.57773 -1.74163,1.57773c-0.42326,0 -0.81143,-0.15026 -1.11406,-0.40036c-1.17324,0.25669 -1.81571,-0.89977 -1.81571,-0.89977c-0.53112,-0.98896 -2.85833,-6.36368 -1.63114,-7.35006c3.31652,-2.66571 4.57109,-0.28358 5.10933,2.11629c0.53472,-0.32833 1.09649,-0.62726 1.52409,-0.9001l0.55677,-0.37209c0,0 1.45609,-0.97073 2.42681,0.48536z" fill="#ad4eab"></path><path d="M280.55205,149.1347c-0.5547,0.83205 -1.38675,0.27735 -1.38675,0.27735l-0.24142,-0.25147c-0.91585,-0.18821 -1.8525,-0.30691 -2.80084,-0.3789c-0.07638,1.57011 -0.23528,3.08957 -0.47375,4.4668c-0.27872,1.6097 -0.6644,4.76483 -3.19506,4.87636c-3.14803,0.13874 -3.31754,-2.76862 -3.48154,-4.64807c-0.13547,-1.55246 -0.16079,-3.13067 -0.11988,-4.71366c-0.51475,0.01005 -1.02617,0.01689 -1.53281,0.01689c0,0 -1,0 -1,-1c0,-1 1,-1 1,-1c0.53557,0 1.07472,-0.00623 1.6163,-0.01513c0.10464,-1.86482 0.27553,-3.72401 0.44091,-5.54331c0,0 0.12757,-1.40322 1.41288,-1.57698h-0.00002c-0.26852,-1.70565 1.44224,-1.99077 1.44224,-1.99077l3.19603,1.14656c0.51571,2.37833 0.75942,5.20816 0.74697,7.99977c1.05993,0.0736 2.10973,0.19773 3.14081,0.39928l0.95858,0.54853c0,0 0.83205,0.5547 0.27735,1.38675zM272.47196,149.0347c0.00528,-0.11573 0.01045,-0.23178 0.01549,-0.34811c-0.00407,0.00004 -0.00813,0.00008 -0.0122,0.00012c-0.00136,0.11584 -0.00246,0.23183 -0.0033,0.34799zM272.56638,145.71055c-0.01618,0.33141 -0.03044,0.66296 -0.04269,0.99503c0.01002,-0.00006 0.02005,-0.00012 0.03007,-0.00018c0.00694,-0.33113 0.01139,-0.66299 0.01262,-0.99485z" fill="#ad4eab"></path><path d="M248.72,168.58c0,1 -1,1 -1,1h-0.6c-1.68541,0 -3.37621,-0.03586 -5.07062,-0.08611c-0.07462,2.68506 -0.52767,5.19123 -1.76616,6.87278c-0.05002,0.06791 -0.10172,0.13424 -0.15495,0.19911l0.02539,0.01777l-1.38596,1.97994c-0.31492,0.46266 -0.84583,0.7665 -1.4477,0.7665c-0.9665,0 -1.75,-0.7835 -1.75,-1.75v-1.8c0,-2.20971 0.01921,-4.36089 0.10024,-6.50039c-1.84923,-0.0572 -3.70008,-0.0996 -5.55023,-0.0996c0,0 -1,0 -1,-1c0,-1 1,-1 1,-1c1.88147,0 3.76413,0.04387 5.64523,0.10256c0.1215,-2.09909 0.31548,-4.20097 0.62236,-6.35006c0,0 0.17163,-1.20142 1.22954,-1.46033c-0.17546,-0.31526 -0.72237,-1.51191 0.53215,-2.34826c1.45609,-0.97073 2.42681,0.48536 2.42681,0.48536l0.68523,1.39659c0.21907,2.21387 0.68162,5.36414 0.78062,8.48779c1.69718,0.05037 3.39055,0.08635 5.07806,0.08635h0.6c0,0 1,0 1,1zM237.72267,159.45007c0.02122,-0.00372 0.04278,-0.00708 0.06466,-0.01005c-0.00287,-0.02864 -0.00576,-0.05727 -0.00865,-0.08589z" fill="#ad4eab"></path><path d="M279.72,196.18c0,1 -1,1 -1,1l-0.59612,-0.01942c-0.68832,-0.13766 -1.38176,-0.2338 -2.0787,-0.29988c-0.007,1.01248 -0.10797,1.94933 -0.42989,2.5534c-0.04619,0.08667 -0.09527,0.17128 -0.14695,0.25404l0.05082,0.02259l-0.78377,1.76349c-0.26401,0.63179 -0.88785,1.07576 -1.6154,1.07576c-0.9665,0 -1.75,-0.7835 -1.75,-1.75v-2c0.00095,-0.67544 0.00496,-1.35663 0.01416,-2.04088c-1.02315,0.01555 -2.04617,0.0409 -3.06415,0.0409c0,0 -1,0 -1,-1c0,-1 1,-1 1,-1c1.03379,0 2.07081,-0.02302 3.10741,-0.03639c0.05554,-1.79877 0.16063,-3.60053 0.35328,-5.35689c0,0 0.19326,-1.7393 1.93255,-1.54604c1.40569,0.15619 1.54908,1.32222 1.55237,1.76377l0.00001,0.00002c0.60437,0.5141 0.60437,1.37552 0.60437,1.37552v1.8c0,0.54867 0.05537,1.28069 0.10393,2.07014c0.85202,0.07065 1.70011,0.18087 2.54219,0.34929l0.20388,-0.01942c0,0 1,0 1,1z" fill="#ad4eab"></path><path d="M205.32,182.23c1.54735,0 1.72653,1.36817 1.74728,1.68504c0.5889,1.96047 1.59307,5.15448 0.2503,6.97926c-0.08288,0.11263 -0.17098,0.22015 -0.26357,0.32327l0.04735,0.03683l-1.38893,1.78576c-0.31971,0.41927 -0.82448,0.68984 -1.39244,0.68984c-0.9665,0 -1.75,-0.7835 -1.75,-1.75c0,-1.33333 0,-4.46667 0,-5.8c0,0 0,-1.25202 1.05901,-1.63805l-0.05901,-0.56195c0,0 0,-1.75 1.75,-1.75z" fill="#ad4eab"></path><path d="M204.36667,134.63333c0,-0.82843 0.67157,-1.5 1.5,-1.5c0.82843,0 1.5,0.67157 1.5,1.5c0,0.82843 -0.67157,1.5 -1.5,1.5c-0.82843,0 -1.5,-0.67157 -1.5,-1.5z" fill="#e3b194"></path><path d="M184.03334,139.63333c0,-0.82843 0.67157,-1.5 1.5,-1.5c0.82843,0 1.5,0.67157 1.5,1.5c0,0.82843 -0.67157,1.5 -1.5,1.5c-0.82843,0 -1.5,-0.67157 -1.5,-1.5z" fill="#e3b194"></path><path d="M176.86667,207.3c0,-0.55228 0.44772,-1 1,-1c0.55228,0 1,0.44772 1,1c0,0.55228 -0.44772,1 -1,1c-0.55228,0 -1,-0.44772 -1,-1z" fill="#e3b194"></path><path d="M236.86667,217.63333c0,-0.55228 0.44772,-1 1,-1c0.55228,0 1,0.44772 1,1c0,0.55228 -0.44772,1 -1,1c-0.55228,0 -1,-0.44772 -1,-1z" fill="#e3b194"></path><path d="M267.53334,225.3c0,-0.55228 0.44772,-1 1,-1c0.55228,0 1,0.44772 1,1c0,0.55228 -0.44772,1 -1,1c-0.55228,0 -1,-0.44772 -1,-1z" fill="#e3b194"></path><path d="M305.86667,212.63333c0,-0.55228 0.44772,-1 1,-1c0.55228,0 1,0.44772 1,1c0,0.55228 -0.44772,1 -1,1c-0.55228,0 -1,-0.44772 -1,-1z" fill="#e3b194"></path><path d="M251.53334,131.63333c0,-0.55228 0.44772,-1 1,-1c0.55228,0 1,0.44772 1,1c0,0.55228 -0.44772,1 -1,1c-0.55228,0 -1,-0.44772 -1,-1z" fill="#e3b194"></path><path d="M294.2,127.63333c0,-0.55228 0.44772,-1 1,-1c0.55228,0 1,0.44772 1,1c0,0.55228 -0.44772,1 -1,1c-0.55228,0 -1,-0.44772 -1,-1z" fill="#e3b194"></path></g></g></svg>