<svg version="1.1" xmlns="http://www.w3.org/2000/svg" xmlns:xlink="http://www.w3.org/1999/xlink" width="156.1" height="3.2" viewBox="0,0,156.1,3.2"><defs><radialGradient cx="239.32" cy="180" r="78.05" gradientUnits="userSpaceOnUse" id="color-1"><stop offset="0" stop-color="#ff0000"></stop><stop offset="1" stop-color="#ff0000" stop-opacity="0"></stop></radialGradient></defs><g transform="translate(-161.27,-178.4)"><g fill="url(#color-1)" stroke="none" stroke-width="0.5" stroke-miterlimit="10"><path d="M317.37,180.78c0,0.25 -0.25,0.25 -0.25,0.25c-1.5,0 -3.4,0 -4.9,0c-3.5,0 -7,0 -10.5,0c-2.71785,0 -5.44128,0.17058 -8.13212,0.19667c-0.07637,0.37333 -0.48788,0.37333 -0.48788,0.37333h-0.8c-4.32536,0 -8.57557,-0.37943 -12.84357,-0.40364c-6.63555,-0.03811 -13.1341,-1.59158 -19.787,-1.59744c-6.81998,-0.04712 -13.73734,-0.21476 -20.56943,-0.19892c-5.97972,0 -11.75842,1 -17.6,1c-6.30881,0 -12.25196,0.8 -18.6,0.8c-5.33333,0 -10.66667,0 -16,0c0,0 -0.40906,0 -0.48719,-0.37c-2.66427,0 -5.32854,0 -7.99281,0c-3.46307,0 -6.63765,-0.57641 -10.04728,-0.60451c-1.73387,-0.69059 -4.67053,-0.79549 -6.55272,-0.79549h-0.3c0,0 -0.25,0 -0.25,-0.25c0,-0.25 0.25,-0.25 0.25,-0.25h0.3c1.8858,0 4.90693,0.10535 6.64728,0.80451c3.37085,-0.03359 6.52672,0.59549 9.95272,0.59549c2.70965,0 5.4193,0 8.12895,0c0.14736,-0.13 0.35104,-0.13 0.35104,-0.13c5.33333,0 10.66667,0 16,0c6.34725,0 12.28802,-0.8 18.6,-0.8c5.83688,0 11.62218,-1 17.6,-1c6.81783,0.01745 13.76662,0.18321 20.57223,0.19892c6.65445,0.00585 13.15505,1.56025 19.78987,1.59745c4.26684,0.02423 8.5127,0.40363 12.8379,0.40363h0.8c0,0 0.20147,0 0.34863,0.12789c2.73546,-0.02138 5.50691,-0.19789 8.27137,-0.19789c3.5,0 7,0 10.5,0c1.5,0 3,0 4.5,0h0.4c0,0 0.25,0 0.25,0.25z"></path></g></g></svg>