<svg version="1.1" xmlns="http://www.w3.org/2000/svg" xmlns:xlink="http://www.w3.org/1999/xlink" width="27.12381" height="35.32344" viewBox="0,0,27.12381,35.32344"><g transform="translate(-224.99545,-162.13321)"><g fill="#ffffff" stroke="none" stroke-width="0.5" stroke-miterlimit="10"><path d="M252.11926,180.17928c0,0.75 -0.75,0.75 -0.75,0.75c-0.6833,0 -2.13532,0 -2.81862,0c0,0 -0.75,0 -0.75,-0.75c0,-0.75 0.75,-0.75 0.75,-0.75c0.6833,0 1.3666,0 2.0499,0h0.76871c0,0 0.75,0 0.75,0.75z"></path><path d="M240.60726,171.57659c-0.75,0 -0.75,-0.75 -0.75,-0.75v-0.25624c0,-2.56502 0.1319,-5.13307 0.12812,-7.68714c0,0 0,-0.75 0.75,-0.75c0.75,0 0.75,0.75 0.75,0.75c-0.00346,2.5557 -0.12812,5.121 -0.12812,7.68714v0.25624c0,0 0,0.75 -0.75,0.75z"></path><path d="M231.34158,180.87366c-0.1819,0.72761 -0.90951,0.54571 -0.90951,0.54571l-0.33057,-0.10573c-1.45854,-0.00103 -2.89634,-0.12812 -4.35605,-0.12812c0,0 -0.75,0 -0.75,-0.75c0,-0.75 0.75,-0.75 0.75,-0.75c1.4596,0 2.89827,0.12921 4.35605,0.12812l0.69438,0.15051c0,0 0.72761,0.1819 0.54571,0.90951z"></path><path d="M239.83855,197.45664c-0.75,0 -0.75,-0.75 -0.75,-0.75c0,-0.55518 0,-1.75096 0,-2.30614c0,0 0,-0.75 0.75,-0.75c0.75,0 0.75,0.75 0.75,0.75c0,0.55518 0,1.11037 0,1.66555v0.6406c0,0 0,0.75 -0.75,0.75z"></path><path d="M240.09478,176.19511c-0.5,0 -0.5,-0.5 -0.5,-0.5c0,-0.17083 0,-0.85413 0,-1.02495c0,0 0,-0.5 0.5,-0.5c0.5,0 0.5,0.5 0.5,0.5c0,0.17083 0,0.34165 0,0.51248v0.51248c0,0 0,0.5 -0.5,0.5z"></path><path d="M246.00074,180.3074c0,-0.27614 0.22386,-0.5 0.5,-0.5c0.27614,0 0.5,0.22386 0.5,0.5c0,0.27614 -0.22386,0.5 -0.5,0.5c-0.27614,0 -0.5,-0.22386 -0.5,-0.5z"></path><path d="M239.46667,190.55692c0,-0.27614 0.22386,-0.5 0.5,-0.5c0.27614,0 0.5,0.22386 0.5,0.5c0,0.27614 -0.22386,0.5 -0.5,0.5c-0.27614,0 -0.5,-0.22386 -0.5,-0.5z"></path><path d="M237.26993,180.3074c0,0.25 -0.25,0.25 -0.25,0.25h-0.1406c-0.81792,0 -2.08322,0.22526 -2.98474,0c-0.11129,0 -0.22259,0 -0.33388,0h-0.5c-0.13807,0 -0.25,-0.11193 -0.25,-0.25c0,-0.13807 0.11193,-0.25 0.25,-0.25c0.06422,0 0.29494,0 0.5,0c0.1503,0 0.28681,0 0.33388,0c0.90151,-0.22526 2.16682,0 2.98474,0h0.1406c0,0 0.25,0 0.25,0.25z"></path><path d="M244.44459,180.05116c0,0.25 -0.25,0.25 -0.25,0.25c-0.08541,0 -0.42706,0 -0.51248,0c0,0 -0.25,0 -0.25,-0.25c0,-0.25 0.25,-0.25 0.25,-0.25c0.08541,0 0.17083,0 0.25624,0h0.25624c0,0 0.25,0 0.25,0.25z"></path><path d="M243.94459,177.23254c0,-0.13807 0.11193,-0.25 0.25,-0.25c0.13807,0 0.25,0.11193 0.25,0.25c0,0.13807 -0.11193,0.25 -0.25,0.25c-0.13807,0 -0.25,-0.11193 -0.25,-0.25z"></path><path d="M234.72002,175.69511c0,-0.13807 0.11193,-0.25 0.25,-0.25c0.13807,0 0.25,0.11193 0.25,0.25c0,0.13807 -0.11193,0.25 -0.25,0.25c-0.13807,0 -0.25,-0.11193 -0.25,-0.25z"></path><path d="M233.56695,186.96959c0,-0.13807 0.11193,-0.25 0.25,-0.25c0.13807,0 0.25,0.11193 0.25,0.25c0,0.13807 -0.11193,0.25 -0.25,0.25c-0.13807,0 -0.25,-0.11193 -0.25,-0.25z"></path><path d="M244.20083,186.45711c0,-0.13807 0.11193,-0.25 0.25,-0.25c0.13807,0 0.25,0.11193 0.25,0.25c0,0.13807 -0.11193,0.25 -0.25,0.25c-0.13807,0 -0.25,-0.11193 -0.25,-0.25z"></path><path d="M240.35102,185.04156c-0.25,0 -0.25,-0.25 -0.25,-0.25c0,-0.34165 0,-0.81142 0,-1.15307c0,0 0,-0.25 0.25,-0.25c0.25,0 0.25,0.25 0.25,0.25c0,0.34165 0,0.6833 0,1.02495v0.12812c0,0 0,0.25 -0.25,0.25z"></path></g></g></svg>