<svg version="1.1" xmlns="http://www.w3.org/2000/svg" xmlns:xlink="http://www.w3.org/1999/xlink" width="624.28333" height="81.50678" viewBox="0,0,624.28333,81.50678"><g transform="translate(87.56666,-139.12655)"><g fill="#ffffff" stroke="none" stroke-width="0.5" stroke-miterlimit="10"><path d="M524.05001,158.63333c0,0.5 -0.5,0.5 -0.5,0.5h-1c-0.48997,-0.0074 -1.00951,0.05215 -1.44306,0.28055c0,0 -0.44721,0.22361 -0.67082,-0.22361c-0.22361,-0.44721 0.22361,-0.67082 0.22361,-0.67082c0.57961,-0.27863 1.24722,-0.3784 1.89027,-0.38612h1c0,0 0.5,0 0.5,0.5z"></path><path d="M488.38334,139.63333c0,0.5 -0.5,0.5 -0.5,0.5h-0.33333c-0.90237,0 -1.63943,-0.14281 -2.44306,0.28055c0,0 -0.44721,0.22361 -0.67082,-0.22361c-0.22361,-0.44721 0.22361,-0.67082 0.22361,-0.67082c0.99051,-0.47615 1.80349,-0.38612 2.89027,-0.38612h0.33333c0,0 0.5,0 0.5,0.5z"></path><path d="M536.71667,190.3c0,0.5 -0.5,0.5 -0.5,0.5c-0.33333,0 -1.66667,0 -2,0c0,0 -0.5,0 -0.5,-0.5c0,-0.5 0.5,-0.5 0.5,-0.5c0.33333,0 0.66667,0 1,0h1c0,0 0.5,0 0.5,0.5z"></path><path d="M516.77361,219.74721c-0.44721,0.22361 -0.67082,-0.22361 -0.67082,-0.22361l-0.33333,-0.66667c0,0 -0.22361,-0.44721 0.22361,-0.67082c0.44721,-0.22361 0.67082,0.22361 0.67082,0.22361l0.33333,0.66667c0,0 0.22361,0.44721 -0.22361,0.67082z"></path><path d="M460.05001,142.63333c0,-0.27614 0.22386,-0.5 0.5,-0.5c0.27614,0 0.5,0.22386 0.5,0.5c0,0.27614 -0.22386,0.5 -0.5,0.5c-0.27614,0 -0.5,-0.22386 -0.5,-0.5z"></path><path d="M427.33268,195.35265c-0.21931,0.44933 -0.66865,0.23002 -0.66865,0.23002l-0.6878,-0.33692c-0.30589,-0.10158 -0.61178,-0.20316 -0.91767,-0.30474c0,0 -0.47434,-0.15811 -0.31623,-0.63246c0.15811,-0.47434 0.63246,-0.31623 0.63246,-0.31623c0.32657,0.10924 0.65313,0.21848 0.9797,0.32772l0.74817,0.36396c0,0 0.44933,0.21931 0.23002,0.66865z"></path><path d="M11.03334,171.8c0,-0.27614 0.22386,-0.5 0.5,-0.5c0.27614,0 0.5,0.22386 0.5,0.5c0,0.27614 -0.22386,0.5 -0.5,0.5c-0.27614,0 -0.5,-0.22386 -0.5,-0.5z"></path><path d="M-50.89999,142.46666c0,-0.27614 0.22386,-0.5 0.5,-0.5c0.27614,0 0.5,0.22386 0.5,0.5c0,0.27614 -0.22386,0.5 -0.5,0.5c-0.27614,0 -0.5,-0.22386 -0.5,-0.5z"></path><path d="M-84.23333,203.8c0,0.5 -0.5,0.5 -0.5,0.5h-0.66667c0,0 -0.5,0 -0.5,-0.5c0,-0.5 0.5,-0.5 0.5,-0.5h0.66667c0,0 0.5,0 0.5,0.5z"></path><path d="M-85.56666,164.8c0,0.5 -0.5,0.5 -0.5,0.5c-0.22222,0 -0.77778,0 -1,0c0,0 -0.5,0 -0.5,-0.5c0,-0.5 0.5,-0.5 0.5,-0.5c0.22222,0 0.44444,0 0.66667,0h0.33333c0,0 0.5,0 0.5,0.5z"></path><path d="M-62.23333,220.13333c0,-0.27614 0.22386,-0.5 0.5,-0.5c0.27614,0 0.5,0.22386 0.5,0.5c0,0.27614 -0.22386,0.5 -0.5,0.5c-0.27614,0 -0.5,-0.22386 -0.5,-0.5z"></path></g></g></svg>