<svg version="1.1" xmlns="http://www.w3.org/2000/svg" xmlns:xlink="http://www.w3.org/1999/xlink" width="101.4" height="63.6" viewBox="0,0,101.4,63.6"><g transform="translate(-199.32,-126.38)"><g fill="#ad4eab" stroke="none" stroke-width="0.5" stroke-miterlimit="10"><path d="M239.32,153.33c-1.75,0 -1.75,-1.75 -1.75,-1.75v-1.8c0,0 0,-1.75 1.75,-1.75c1.75,0 1.75,1.75 1.75,1.75v1.8c0,0 0,1.75 -1.75,1.75z"></path><path d="M275.72,188.98c0,-0.55228 0.44772,-1 1,-1c0.55228,0 1,0.44772 1,1c0,0.55228 -0.44772,1 -1,1c-0.55228,0 -1,-0.44772 -1,-1z"></path><path d="M272.52,127.38c0,-0.55228 0.44772,-1 1,-1c0.55228,0 1,0.44772 1,1c0,0.55228 -0.44772,1 -1,1c-0.55228,0 -1,-0.44772 -1,-1z"></path><path d="M199.32,165.18c0,-0.55228 0.44772,-1 1,-1c0.55228,0 1,0.44772 1,1c0,0.55228 -0.44772,1 -1,1c-0.55228,0 -1,-0.44772 -1,-1z"></path><path d="M298.72,178.18c0,-0.55228 0.44772,-1 1,-1c0.55228,0 1,0.44772 1,1c0,0.55228 -0.44772,1 -1,1c-0.55228,0 -1,-0.44772 -1,-1z"></path></g></g></svg>