<svg version="1.1" xmlns="http://www.w3.org/2000/svg" xmlns:xlink="http://www.w3.org/1999/xlink" width="548" height="359" viewBox="0,0,548,359"><g transform="translate(34,-1)"><g stroke="none" stroke-miterlimit="10"><g stroke-width="0.5"><g><path d="M268.79658,128.39302c-0.42002,0.00859 -0.85989,-0.06257 -1.2925,-0.22301c-1.18684,-0.44016 -1.97691,-1.42532 -2.07435,-2.44183l-0.30003,-2.4627c-1.0095,-4.60749 -0.62316,-6.72215 -0.42281,-10.973c0.15503,-3.28933 -0.91199,-4.79993 0.32929,-7.98299c0.01567,-0.04019 0.03155,-0.08029 0.04763,-0.1203l-0.01795,-0.00538l1.12337,-4.17597c0.01803,-0.07031 0.03982,-0.14016 0.06549,-0.20937c0.03637,-0.09805 0.07946,-0.19201 0.12873,-0.28169c-0.5741,-0.44051 -2.03762,-1.8011 -0.78784,-3.4536c1.52784,-2.02016 4.05494,-0.43625 4.05494,-0.43625c2.46247,1.54949 5.85829,3.55141 8.57237,5.72469c0.35682,0.25144 0.72292,0.55863 1.09831,0.92467c0.72217,0.64245 1.36798,1.29599 1.89805,1.95377c1.17621,1.45958 1.48207,2.56008 1.82379,3.51857c0.30004,0.4481 0.5381,0.94446 0.72602,1.46051c0.38036,0.51307 0.94376,1.01742 1.87707,1.55781c0.95298,0.11627 1.58253,0.57025 1.99007,1.0477c0.42691,0.40823 0.78895,0.96904 0.78114,1.69415c0.84911,3.559 1.97631,6.63966 1.55034,10.15475l0.87843,1.37604c0.34934,0.36433 0.62217,0.85879 0.72058,1.52982c0.00012,0.0008 0.00024,0.00161 0.00035,0.00241c0.08516,0.45069 0.07768,1.00348 -0.24752,1.49591c-0.31117,0.50018 -0.83105,0.76997 -1.29843,0.91547c-0.00082,0.00029 -0.00164,0.00058 -0.00245,0.00086c-0.6087,0.21392 -1.15055,0.24758 -1.62363,0.17342c-3.78367,0.03781 -6.02827,0.33173 -9.4949,1.54868l-0.26725,-0.01902l0.02556,0.07108l-2.42492,0.41995l-1.96193,1.75871c-0.73838,0.69653 -1.97145,0.92253 -3.15066,0.4852c-1.18684,-0.44016 -1.97691,-1.42532 -2.07435,-2.44183l-0.31032,-2.54724l0.07922,0.00104z" fill="#baafcc"></path><path d="M280.04398,104.57932c0.52123,0.42581 0.87828,0.97862 1.01406,1.5593l1.52163,2.03474c3.24654,1.90855 6.04956,4.32751 6.9645,7.35002c0.0311,0.10273 0.05961,0.20555 0.08576,0.30845l0.04729,-0.00862l1.05926,2.85623c0.19863,0.51498 0.22335,1.0687 0.03127,1.58665c-0.4801,1.29455 -2.13285,1.87539 -3.69151,1.29734c-0.11935,-0.04426 -0.23468,-0.09403 -0.3457,-0.1488l-3.23138,-1.54965l0.01896,-0.0357l-0.16347,-0.03765c-1.97481,-1.17805 -4.0088,-2.19643 -6.08319,-3.11941c-0.02407,-3.40312 0.01594,-6.79507 -0.08616,-10.21667c-0.08499,-2.84804 -0.89028,-5.74356 -1.44656,-8.62424c1.87004,1.7021 3.23797,4.19483 4.30525,6.74802z" fill-opacity="0.38824" fill="#2d1440"></path><path d="M273.58138,130.05204c-1.26541,-0.34085 -1.87375,-0.9983 -2.15747,-1.63128c-0.30967,-0.02635 -0.62574,-0.09565 -0.93805,-0.21147c-0.85263,-0.31621 -1.50049,-0.9137 -1.83387,-1.60203l-1.69999,-3.46327l0.1553,-0.04353l-0.3104,-0.34927c-0.78696,-5.88116 -1.59249,-11.85155 0.35327,-17.28787c0,0 0.86931,-2.34399 3.69151,-1.29734c0.25689,0.09527 0.4832,0.20129 0.68236,0.31532c0.71641,-0.80232 2.03053,-1.0868 3.28382,-0.62199c1.26954,0.47083 2.08509,1.56527 2.08454,2.65461l0.11273,4.2497l-0.06691,-0.0057c0.02064,0.08529 0.0404,0.17069 0.05922,0.25621c0.37423,1.70026 -1.36164,3.16545 -1.10415,4.86989c0.15459,1.02333 0.98498,1.96203 1.2665,2.97801c0.34756,1.2543 0.51583,5.11323 0.58779,6.26523l-0.71292,3.26092c0,0 -0.55233,2.44524 -3.45327,1.66384z" fill-opacity="0.1098" fill="#f2d6ff"></path></g><path d="M267.03484,132.5478c-0.16585,-0.28795 -0.27413,-0.55454 -0.33627,-0.80076c-0.15658,-0.03508 -0.3135,-0.08132 -0.46947,-0.13916c-1.18684,-0.44016 -1.97691,-1.42532 -2.07435,-2.44183l-0.30167,-2.47616c-1.58983,-3.84583 -1.51386,-7.73483 -0.74513,-11.57093c-0.36813,-2.70535 -0.55571,-5.37518 -0.3955,-7.85013c0.23296,-3.59885 2.11695,-7.08973 3.34064,-10.38928c0,0 0.02108,-0.05684 0.06734,-0.14887c0.19678,-0.466 0.5902,-1.02119 1.37281,-1.26283c0.48265,-0.17948 1.10673,-0.231 1.90118,-0.00139c0.80405,0.18409 1.34287,0.53658 1.7037,0.93435c0.36603,0.36354 0.55833,0.76007 0.65088,1.1305c0.05765,0.03955 0.08866,0.06348 0.08866,0.06348c0.62426,0.48384 1.19791,1.01532 1.76109,1.55636c0.78277,0.36138 1.20568,0.8723 1.42885,1.3685c0.49275,0.45491 1.00276,0.89317 1.55538,1.2907c0.23679,0.17033 0.47897,0.33425 0.72503,0.49357c0.06433,0.01988 0.12859,0.04169 0.19268,0.06547c0.51317,0.19032 0.95217,0.48253 1.29307,0.83511c1.17596,0.68217 2.37033,1.34172 3.43404,2.15433l1.58655,2.26615c0,0 0.8922,1.54906 -0.11332,2.63331c0.45717,0.42642 0.84973,0.92772 1.16743,1.47164c2.37812,1.60749 4.35378,3.45604 4.56941,6.36433c0.00641,0.08647 0.01129,0.17274 0.01473,0.25883l0.03569,0.00005l0.45437,3.31523c0.05964,0.36672 0.03027,0.74085 -0.10217,1.09797c-0.4801,1.29455 -2.13285,1.87539 -3.69151,1.29734c-0.25819,-0.09575 -0.49761,-0.2173 -0.7152,-0.35936l-2.72187,-1.70598l0.02615,-0.03457l-0.16738,-0.05877c-1.4408,-1.13993 -3.117,-2.09304 -4.87322,-2.75329c-0.21112,-0.07937 -0.42298,-0.15736 -0.63495,-0.23523c0.56842,1.94377 0.9509,3.87585 0.7166,5.81333c0.05627,0.3122 0.09578,0.62817 0.12191,0.94582l1.09168,2.36829c0.2641,0.56231 0.31885,1.18301 0.10509,1.7594c-0.14794,0.3989 -0.40722,0.73004 -0.74079,0.98038c-0.43986,0.8225 -1.42453,1.16855 -1.42453,1.16855c-0.5414,0.19027 -1.0828,0.38054 -1.62421,0.57081c0.06402,0.08852 0.12867,0.17653 0.19393,0.26401l0.68923,1.16333c0,0 1.38091,2.39755 -1.22938,3.31491c-1.6602,0.58346 -2.82309,-0.17404 -3.44968,-0.80277c-1.56059,-0.4402 -2.1223,-1.95482 -2.1223,-1.95482c-0.0441,-0.11933 -0.08803,-0.23852 -0.13173,-0.35757c-0.76003,-0.12929 -1.61221,-0.54104 -2.22349,-1.60236z" fill-opacity="0.37255" fill="#2d1440"></path></g><g><path d="M205.91372,254.93874c0,0 0.11857,-0.59285 0.54011,-1.10246c0.08956,-0.40124 0.18354,-0.80177 0.28322,-1.20136c0.51847,-2.07843 1.05628,-4.13013 1.54536,-6.19273c0.21494,-6.03784 2.97192,-11.19136 7.65294,-14.83564c2.71909,-2.11687 3.83839,-4.03812 7.79753,-3.66645c0.31835,0.02989 0.61966,0.07414 0.90514,0.1318c0.21078,-1.09152 0.44297,-2.17718 0.70194,-3.25521c0.77346,0.00038 1.53945,-0.00225 2.28627,-0.01323c0.78383,-0.01153 1.57056,-0.01906 2.35923,-0.02523c-0.52503,2.00183 -0.94503,4.03556 -1.2976,6.08823c0.59035,0.93222 1.01215,2.0148 1.3946,3.14365c0.67591,0.0066 1.2805,0.31123 1.68867,0.78878l1.65096,1.90954l-0.05328,0.04606c0.1065,0.09911 0.20896,0.20313 0.3068,0.31275c1.11496,1.24916 1.76941,4.06042 2.19122,6.55185c0.10417,0.16808 0.20977,0.3352 0.31737,0.50098c0.53909,0.83059 1.52269,1.46445 2.02375,2.28994c0.69293,0.38349 1.16208,1.12194 1.16208,1.96998c0,0.48998 -0.15663,0.94339 -0.42254,1.31287l-1.36613,1.95163c-0.28533,0.41918 -0.70855,0.73696 -1.20443,0.88809c-0.66024,0.95878 -1.22757,1.99402 -2.04512,2.81734c-1.06034,1.06782 -2.74933,1.53918 -3.51238,2.83622c-1.17684,2.0004 -1.96512,4.87839 -2.81264,7.03525c-0.4123,1.04926 -0.19407,2.45074 -1.01125,3.22738c-0.02946,0.028 -0.05997,0.0536 -0.09145,0.07698c-0.0097,0.03227 -0.01952,0.0645 -0.02946,0.0967l0.0307,0.01637l-0.08819,0.16537c-0.08648,0.26657 -0.18173,0.53021 -0.28864,0.79l-0.14892,0.10155l0.06981,0.04188l-1.01039,1.68397c-0.18455,0.65089 -0.57497,1.28025 -0.74517,1.93899c-0.58397,2.26026 -1.14381,4.57212 -2.17583,6.6632c-0.13058,0.65559 -0.58897,1.80622 -2.19798,1.80622c-0.18651,0 -0.35756,-0.01546 -0.51443,-0.04382c-0.35244,0.72804 -0.70901,1.45847 -1.06991,2.19363c-1.40879,2.86982 -1.53828,6.42795 -5.7313,7.0486c-0.67615,0.10008 -1.26065,-0.30017 -1.84017,-0.75406l-0.18249,0.05615l-0.01553,-0.05046c-0.0784,0.03899 -0.15762,0.07655 -0.23774,0.11258c-1.01596,0.45688 -2.22051,0.19065 -3.33355,0.23613c-3.47824,0.14215 -6.99295,0.00124 -10.47488,0.00124h-2.4c-1.24264,0 -2.25,-1.00736 -2.25,-2.25c0,-0.58188 0.22088,-1.11216 0.58336,-1.51158l1.39908,-1.55453c-0.07644,-0.48841 -0.12988,-0.97538 -0.18026,-1.43305c-0.18108,-1.64507 1.74685,-4.18904 2.52659,-5.4719c0.72877,-1.199 1.45172,-2.39228 2.17352,-3.58173c0.44931,-1.25687 1.11126,-2.53826 1.5068,-3.3944c0.01049,-0.02272 0.02099,-0.04544 0.03147,-0.06816c0.20338,-0.84803 0.42781,-1.69394 0.68781,-2.53594c0.48524,-1.57144 0.49777,-3.40933 1.52785,-4.69146c0.38219,-0.47571 0.83477,-0.87599 1.32646,-1.23433c0.82044,-2.62704 1.52731,-5.27997 2.06101,-7.96418z" fill="#a69cb5" stroke-width="0.5"></path><path d="M281.98501,232.32956l2.09177,-0.06848c3.13382,1.11947 6.15809,2.22816 9.32013,3.10726c0.29492,-0.53217 0.85593,-1.03833 1.92311,-1.03833c2.25,0 2.25,2.25 2.25,2.25c0,0.39897 0.00036,0.79868 0.00079,1.19903c0.0221,0.173 0.02404,0.36166 0.00062,0.56721c0.00627,5.99575 -0.00492,12.12281 -1.03565,18.02483c-0.63149,3.61595 -2.23269,6.93468 -3.23539,10.43198c0.5292,0.41168 0.86964,1.05456 0.86964,1.77695v2.4h-0.05928l0.05434,0.14901c-0.52729,3.99444 -0.59178,7.20662 -1.75852,10.5921c-0.06221,0.52567 -0.18485,1.03592 -0.4078,1.51993c-0.26979,0.58571 -0.59953,1.11634 -0.98074,1.59706c-0.03434,0.06239 -0.06918,0.12492 -0.10449,0.1876c-0.19737,0.41604 -0.54843,0.88152 -1.16478,1.09344c-4.53722,3.70393 -13.01762,3.30696 -18.02872,3.31086h-1.8c0,0 -2.19469,0 -2.24898,-2.16755c-0.25283,-0.36383 -0.40103,-0.80583 -0.40103,-1.28245c0,-0.17835 0.02075,-0.35185 0.05997,-0.51823l0.58997,-2.75322l0.01814,0.00389c-0.00046,-0.02583 -0.00081,-0.05168 -0.00106,-0.07754c-0.02198,-2.36316 1.75239,-5.10495 2.17123,-7.46805c0.77171,-4.35395 1.02236,-8.82954 1.50276,-13.25551c0.01866,-0.6665 0.03832,-1.3351 0.06023,-2.00622c0.04433,-1.35809 -0.09434,-3.75524 0.15082,-5.63333c-1.39508,-2.32311 -2.61843,-4.73598 -3.45257,-7.4301c0,0 -0.10665,-0.34659 -0.09517,-0.80431c-0.00127,-0.04511 -0.00164,-0.09041 -0.00106,-0.13593c0.04221,-3.32559 3.35957,-6.15957 5.36505,-8.41627l2.08167,-0.75518c0,0 2.25,0 2.25,2.25c0,0.30498 -0.04134,0.56861 -0.11281,0.79651c0.56045,-0.13941 1.12223,-0.27353 1.68507,-0.40313c-0.18509,-0.50673 -0.37458,-1.01183 -0.56769,-1.51541c-0.89053,-3.65532 -2.34947,-7.20794 -3.71119,-10.79531c1.37124,0.2569 2.74996,0.51669 4.14043,0.77597c0.32441,0.06049 0.64933,0.11895 0.97472,0.17547c0.55289,1.43726 1.10293,2.87282 1.60645,4.31546z" fill="#a69cb5" stroke-width="0.5"></path><path d="M229.10736,175.2463l2.30622,-1.6473c4.89356,-3.49457 10.74771,-7.19409 16.90957,-5.99982c1.32444,-0.09745 2.71117,-0.13251 4.21019,-0.13251h2.66667c1.38071,0 2.5,1.11929 2.5,2.5c0,0.72435 -0.30806,1.37675 -0.80031,1.83333c0.03251,0.03016 0.06422,0.06117 0.09509,0.09299c0.23176,0.01179 0.46405,0.02598 0.6968,0.04356c3.67946,0.27787 7.023,1.28344 10.35949,2.79512l0.41465,0.06551c0,0 0.94242,0.2356 1.43397,1.01644c0.17496,-1.06838 1.10244,-1.88361 2.22032,-1.88361c0.74548,0 1.40628,0.36254 1.81571,0.92094l2.36395,3.15194c3.17284,2.72746 4.79116,7.19864 6.34377,11.57131c1.18558,1.54271 2.23851,3.19863 3.09778,5.01727c0.69991,1.48133 0.92298,3.13394 1.16499,4.77048c1.32563,2.84123 2.13401,5.86871 3.30375,8.78463c0.48872,1.2183 1.69121,2.23714 1.70508,3.54973c0.00148,0.14001 -0.00054,0.27966 -0.00576,0.41899l0.07925,-0.00661l0.12406,1.48873c3.75902,6.8176 6.18946,14.52566 6.25607,22.32071c0.0101,0.15034 0.00756,0.31197 -0.00982,0.48575c-0.07171,0.71705 -0.3501,1.18149 -0.69543,1.48156c-0.33294,0.31376 -0.82277,0.54457 -1.5434,0.54457v-0.00001c-0.17647,0 -0.33909,-0.01384 -0.48896,-0.03935l-1.51104,-0.16065c-5.54874,-0.00292 -8.74012,1.54575 -13.33371,4.48262c-0.22566,0.17025 -0.4631,0.2846 -0.65909,0.35941c-0.24823,0.09679 -0.58882,0.19126 -0.96354,0.18532l-1.36186,0.15003c-3.02847,-0.53391 -6.22012,-1.82295 -8.13355,-4.54929c-1.42656,-2.03263 -0.61911,-3.30032 -1.29227,-5.39568c-0.86974,-2.70726 -2.4078,-5.30895 -3.22277,-8.07613c-0.12424,-0.42185 -0.23377,-0.84313 -0.33385,-1.26397c-4.69484,-4.38684 -7.79663,-10.05466 -9.97293,-16.21817c-0.09032,0.18414 -0.17636,0.37031 -0.25698,0.55896c-0.76332,1.78605 -0.99529,3.78242 -1.85699,5.52313c-2.06686,4.17524 -4.6859,8.15002 -6.8561,12.32827c-1.8201,5.08846 -3.80211,9.58137 -7.85076,12.84921c-0.4504,0.89534 -0.85269,1.81611 -1.18668,2.77304l-0.50646,1.04948c0,0 -1.00623,2.01246 -3.01869,1.00623c-1.27062,-0.63531 -1.33788,-1.67175 -1.21481,-2.34952c-0.03433,-0.01665 -0.06853,-0.03455 -0.10255,-0.05378c-0.41219,-0.22808 -0.67493,-0.57967 -0.84053,-0.90646c-0.02896,-0.05474 -0.05706,-0.11192 -0.0842,-0.17164c-0.24662,-0.54257 -0.28419,-1.00675 -0.20617,-1.396l-0.00686,-0.23322c-1.56006,-3.6533 -3.18548,-5.15322 -6.85702,-6.84781c-1.21039,-0.55865 -3.01913,-0.86381 -4.6805,-1.30036c-0.45295,0.18363 -0.89399,0.159 -1.26239,0.06153c-0.61988,-0.09853 -1.02493,-0.39479 -1.28963,-0.73992c-0.07094,-0.05459 -0.14297,-0.10828 -0.2157,-0.1614c-0.19354,1.60752 0.0364,3.28454 -0.41676,4.83867c-0.00153,0.00524 -0.00306,0.01048 -0.00459,0.01571l0.00304,0.0003l-0.07802,0.78024c0.05793,-0.01241 0.11571,-0.02321 0.17332,-0.03188l1.66959,-0.02193c0,0 2.5,0 2.5,2.5c0,2.5 -2.5,2.5 -2.5,2.5l-2.33041,-0.02193c-0.0356,-0.00894 -0.07138,-0.01756 -0.10732,-0.02588c-0.37449,0.90841 -1.26871,1.54781 -2.31227,1.54781c-1.38071,0 -2.5,-1.11929 -2.5,-2.5v-0.05594c-0.13332,-0.08738 -0.26062,-0.18589 -0.38096,-0.29725c-1.26646,-1.172 -0.61904,-7.33904 -0.61904,-9.14681c0,-4.23931 0.71201,-8.48933 2.06446,-12.54575c0.15708,-1.89426 0.4275,-3.7714 1.09083,-5.57161c1.27258,-3.45364 2.65813,-6.85403 4.05067,-10.25003c0.65017,-1.94724 1.34278,-3.86418 2.06266,-5.77031c1.2282,-4.62893 3.08827,-8.9959 4.89959,-13.51379c0.34331,-0.8563 -0.06307,-2.0521 0.58958,-2.70415c0.1538,-0.15366 0.31478,-0.29808 0.48177,-0.43476l-0.12099,-0.10587l1.74069,-1.98936c0.43279,-0.49986 1.06047,-0.82634 1.76488,-0.86126c0.188,-0.39553 0.47681,-0.73388 0.83322,-0.98181zM270.50468,177.83251l-0.26484,-0.41617c-0.03,-0.04553 -0.05839,-0.09221 -0.08509,-0.13996c-0.01084,0.0657 -0.02426,0.13303 -0.04044,0.20202c0.12973,0.1183 0.25988,0.23633 0.39037,0.35411z" fill="#111732" stroke-width="0.5"></path><path d="M226.90196,252.32924c-0.37682,1.23865 -0.79874,2.62954 -1.81194,3.43559c-0.9614,0.76484 -2.36525,0.70617 -3.58442,0.8575c-2.70219,0.33542 -5.84743,0.0747 -8.58558,0.00767c-1.2005,-0.02939 -2.50051,0.33692 -3.5996,-0.14688c-1.25999,-0.55462 -2.40581,-1.56632 -3.05293,-2.7814c-0.25662,-0.48184 -0.19763,-5.6728 -0.19746,-6.32173c0.00132,-5.24074 1.38307,-9.08935 3.37308,-13.86539c0.63014,-1.49292 1.64382,-2.80143 2.78964,-3.98672c-0.1356,-4.38962 2.99749,-10.17395 3.88915,-14.22825c0.44754,-2.03493 0.35159,-4.47304 1.31122,-6.37607c0.0283,-0.13581 0.05668,-0.2715 0.08518,-0.4071c0,0 0.38613,-1.83413 2.12757,-1.80191c1.214,-0.39953 5.65508,-0.08445 6.67377,-0.03769l2.05875,1.66787c0.54326,0.25641 0.83886,0.70203 0.99969,1.11106c0.1886,0.37175 0.32129,0.85596 0.19004,1.39665c-0.05438,7.08672 -1.24902,14.11914 -1.53636,21.17468l0.1305,1.56601l-0.17884,0.0149c-0.0077,0.38678 -0.01221,0.77364 -0.0132,1.16061c0.21009,1.39804 0.16703,2.8784 -0.00796,4.9982l-0.39153,1.33004c0.0162,3.37324 0.29447,8.06603 -0.66877,11.23235z" fill="#baafcc" stroke-width="0.5"></path><path d="M278.87002,255.98c0,-0.15473 -0.00745,-6.10393 0.02175,-6.31208c0.2413,-1.71991 1.04998,-3.34207 1.18592,-5.0735c0.48824,-6.21881 1.11493,-12.46518 2.22658,-18.60549c0.16879,-0.93234 0.4653,-1.80023 0.81217,-2.64347c0.14394,-2.4143 0.6082,-4.71654 1.2206,-7.11055c0.27352,-1.06926 0.25507,-2.30492 0.93084,-3.17754c0.06664,-0.08605 0.13542,-0.17003 0.20614,-0.25211l-0.05223,-0.03324l1.37966,-2.16805c0.22543,-0.36698 0.5532,-0.66434 0.94357,-0.85233c0.46193,-0.40026 0.98299,-0.54237 0.98299,-0.54237c1.68741,-0.44624 3.44664,-0.6664 5.19202,-0.67928l0.18871,0.20548c2.06129,0.12215 2.06129,2.24452 2.06129,2.24452c-0.00004,0.00269 -0.00007,0.00539 -0.00009,0.00808c-0.05908,5.01062 1.3724,10.10559 1.40009,15.19192v1.8c-0.00229,5.28201 0.0089,10.64729 0.19891,15.92979c0.183,5.08754 1.34526,9.63848 -1.31955,14.22782l-0.08625,0.10147c-0.23958,0.44788 -0.62839,0.73222 -0.95502,0.90409c-0.26693,0.15562 -0.62381,0.30642 -1.03028,0.33133c-4.47415,1.00633 -8.41471,1.47984 -13.0277,0.72488l-1.565,-2.34425c-0.47265,-0.33058 -0.70118,-0.81992 -0.81167,-1.21582l-0.00854,-0.01279c0,0 -0.03713,-0.12375 -0.06393,-0.32085c-0.03096,-0.19648 -0.03096,-0.32568 -0.03096,-0.32568z" fill="#baafcc" stroke-width="0.5"></path><path d="M271.76565,148.54019c0.50867,7.98021 3.45707,16.80069 1.53717,24.68552l-0.39011,0.27903c0.42554,0.49981 0.76368,1.29363 0.21975,2.3815c-1.00623,2.01246 -3.01869,1.00623 -3.01869,1.00623l-1.88406,-0.96919c-1.65071,-1.15949 -3.68093,-3.7123 -5.61539,-4.3068c-0.69236,-0.21278 -1.51734,0.22329 -2.17152,-0.08647h-2.7228c-0.81736,0 -1.53292,-0.43583 -1.92698,-1.08778c-4.76529,-0.1969 -9.43018,0.60107 -14.24395,1.99805c-2.2199,0.64423 -5.18166,0.53961 -7.26477,1.47261c-2.63814,1.18159 -4.50938,6.32637 -7.54172,6.57708c-3.13556,0.25924 -6.16523,-2.0634 -5.27079,-5.49974c0.03886,-0.14932 0.08589,-0.29492 0.14003,-0.43726l-0.07464,-0.01866l0.3553,-1.4212c-2.71862,-0.87311 -1.71463,-2.70285 -2.10951,-4.64632c-1.35603,-1.13173 -2.58444,-2.42089 -3.1616,-3.77543c-0.36103,-0.84729 -0.4503,-1.98273 -0.48592,-3.1809c-0.12169,-1.0067 -0.14299,-2.08013 -0.11881,-3.16379c-0.05067,-0.51856 -0.1304,-1.0086 -0.26008,-1.44852c0,0 -0.36099,-1.26346 0.43431,-2.13516c0.04428,-0.80126 0.07912,-1.57096 0.07912,-2.28296v-2c0,-4.43791 0.06259,-8.83937 0.20109,-13.27021c0.11378,-3.63977 -0.15593,-7.99129 1.64338,-11.34978c0.97212,-1.8145 2.93075,-2.89148 4.38868,-4.34471c1.30803,-1.30382 2.06522,-3.22511 3.65628,-4.16288c2.38578,-1.40618 3.76462,-0.97959 6.28454,-1.30542c4.63895,-0.59982 8.59907,-0.31195 13.26209,0.01637c3.67167,1.03529 7.20078,2.22861 10.66572,3.8276l0.00734,0.00439c0.45035,-1.46536 2.14088,-1.46535 2.14088,-1.46535c3.66667,0 7.33333,0 11,0h0.4c0.78141,0 1.29145,0.27138 1.62435,0.62565c0.62565,0.6658 0.62565,1.62435 0.62565,1.62435c0,2.06667 0,4.13333 0,6.2v0.4c0,0 0,0.20975 -0.06404,0.50117c-0.42219,6.85235 -0.77641,13.91727 -0.34031,20.75902z" fill="#a69cb5" stroke-width="0.5"></path><path d="M276.8206,165.25654c-0.7552,0.65755 -1.30443,1.64405 -2.23954,2.0022c-1.60772,0.61576 -4.82695,-0.03329 -6.45609,-0.26369c-5.04352,-1.07834 -11.07512,-2.20347 -15.56915,-4.88966c-4.60978,-2.75537 -7.14775,-7.6782 -10.83765,-11.34534c-1.88871,-1.87706 -3.25171,-3.73056 -4.9346,-5.74923c-1.5828,-1.89862 -3.3274,-2.96597 -4.82528,-4.81206c-0.13568,0.02032 -0.28152,0.03124 -0.43828,0.03124c-2.25,0 -2.25,-2.25 -2.25,-2.25v-1.6c0.22326,-4.8636 3.40473,-7.63055 7.04089,-10.69751c1.13328,-0.50499 2.17987,-1.2891 3.39984,-1.51496c3.37231,-0.62434 6.25225,0.98812 9.21797,2.11282c3.69731,1.40214 7.69361,2.38955 11.29309,4.03827c2.22784,1.02044 5.0911,2.98885 7.26775,4.03098c3.80009,1.8194 7.42669,2.96532 10.78764,5.6358c0.91782,0.72926 2.06977,1.30592 2.62849,2.33649c0.74655,1.377 0.82929,3.55325 0.74369,5.72154c0.3974,2.56223 -0.07936,6.03571 -0.07936,8.33657v2.4c0,1.07439 -0.75303,1.97289 -1.76009,2.19651c-0.65065,1.61219 -1.60192,3.07201 -2.98933,4.28003z" fill="#6390d6" stroke-width="0.5"></path><path d="M277.89905,199.62451c-0.47563,0.01834 -0.84074,-0.09401 -0.84074,-0.09401l-2.88161,-0.90778c-1.14997,-1.03333 -3.98836,-2.79427 -4.04724,-4.50626c-0.38631,0.19858 -0.77085,0.40422 -1.15261,0.62072c-0.46082,0.42432 -0.98232,0.53029 -1.43307,0.51001c-0.46685,0.03082 -1.01261,-0.07247 -1.49525,-0.52709l-1.91952,-1.14911c-0.36429,-0.36684 -0.70011,-0.7523 -1.0161,-1.1504c-0.68766,-0.06276 -1.28587,-0.43492 -1.65423,-0.9761l-1.38195,-1.9742l0.02002,-0.01402c-0.02588,-0.02369 -0.0516,-0.04759 -0.07715,-0.07171c-1.2518,-1.18179 -2.12341,-2.86733 -2.70343,-4.68997c-1.89931,-2.05738 -3.0798,-3.9003 -1.5968,-7.34416c0.22626,-0.52541 0.91785,-1.20208 1.7522,-1.88039l0.52927,-0.97033c-1.03275,-0.94348 -2.1625,-1.6923 -3.38157,-2.36612c-0.41676,0.30852 -0.87803,0.49933 -1.39866,0.4942c-4.01982,-0.03956 -3.92687,-8.04638 -3.26088,-10.27688c1.53158,-5.12946 7.88162,-9.93372 12.59135,-11.68546l1.36947,-0.26109c0.71225,-0.22567 1.2708,-0.088 1.68829,0.16639c0.4354,0.20817 0.85055,0.59359 1.05335,1.29597c0.84122,1.97556 1.53943,4.03883 1.87946,6.15725l0.08332,0.49982c0.69019,-0.45317 1.39547,-0.78518 2.0187,-0.9428c3.82864,-0.9683 7.74033,-0.41315 11.34941,0.88407c1.1427,-0.30029 2.43009,-0.26567 3.4347,0.08403c0.69549,0.2421 1.04156,1.31403 1.20988,2.56658l0.67333,0.67333l-0.56086,0.56086c0.00946,0.17033 0.01682,0.34021 0.02245,0.50817l0.81691,1.77396c-0.26456,-0.01833 -0.53398,-0.0205 -0.80616,-0.01349c-0.00579,0.40442 -0.01391,0.73883 -0.01334,0.9615v1.4c0,0 0,0.12284 -0.0287,0.3111c-0.02413,0.18891 -0.05787,0.30702 -0.05787,0.30702c-0.90441,3.16527 -1.59687,6.06161 -1.88419,9.31837c1.02487,2.22026 2.57074,3.71208 3.66681,5.73418c1.43718,2.65139 0.90395,6.06287 0.90395,8.92934l-0.35435,1.94966c0.03168,0.56954 -0.19693,1.02818 -0.45954,1.36132c-0.22819,0.35403 -0.58429,0.7165 -1.1267,0.87331c-2.20493,1.22624 -4.43695,2.09094 -6.70318,3.22817l-1.43127,0.44101c-0.50938,0.27644 -0.98892,0.28951 -1.39591,0.19103z" fill="#baafcc" stroke-width="0.5"></path><path d="M229.60291,87.33c4.00834,-1.11737 7.53386,-0.70595 11.66612,-0.39506c6.64163,0.49968 13.21527,0.57747 19.69692,2.48977c2.32659,0.68642 4.77432,1.51403 7.00471,2.47228c0.3546,0.15235 0.7533,0.2593 1.14332,0.3787c1.66265,-1.1267 2.963,0.49874 2.963,0.49874c1.93768,2.42219 3.72516,5.24484 5.99222,7.37382c1.37583,1.29203 2.97442,2.4366 3.96229,4.04481c0.97827,1.59258 1.65418,3.36954 2.73181,4.89664l0.27856,1.84257c0.0978,0.28636 0.12563,0.5724 0.12318,0.81477l0.00498,0.03295c0,0 0,0.12283 -0.0287,0.3111c-0.02413,0.18891 -0.05787,0.30702 -0.05787,0.30702c-1.08615,3.77139 -2.43616,7.61743 -4.37605,11.08832c0.05207,0.22636 0.05981,0.3812 0.05981,0.3812c0.10039,2.01096 -0.07155,4.0615 0.35055,6.03023c1.23519,5.76114 6.75175,11.12538 1.96772,17.077c-0.77062,0.9587 -1.66424,1.90806 -2.77922,2.42746c-2.17109,1.01139 -5.06119,0.82435 -7.38625,0.82767c-4.35048,0.00622 -10.67705,0.5881 -14.38738,-2.27866c-1.42223,-1.09888 -2.13526,-3.59494 -2.72715,-5.20242c-1.25243,-3.77975 -5.46072,-6.21397 -8.3032,-9.21152c-2.84674,-0.88992 -5.98493,-1.01353 -8.90206,-0.90883c-2.46443,0.08846 -3.72213,0.01941 -5.4769,1.38225c-0.11991,0.14972 -0.25623,0.27208 -0.39896,0.37207c-0.05731,0.12834 -0.11017,0.25632 -0.15892,0.38398c0.34906,1.00796 0.27435,2.2269 0.54028,3.27909c0.53194,2.10466 1.26051,3.91825 1.05488,6.13975c-0.22579,2.43924 -1.10648,3.47354 -2.29708,5.528c-2.04668,3.5317 -3.64955,6.68026 -6.44156,9.7416l-0.23023,0.0733l0.05168,0.07106l-2.17985,1.58534c-0.37493,0.27954 -0.83992,0.44501 -1.34355,0.44501c-0.70141,0 -1.32787,-0.32095 -1.74051,-0.82402c-3.4223,2.11594 -7.83939,3.45577 -11.43708,4.86832c-2.63934,1.03628 -3.46597,0.63405 -4.75488,3.0054c-0.1762,0.46175 -0.52255,0.9763 -1.20336,1.21502c-0.39006,0.18329 -0.87922,0.26537 -1.45646,0.07608c-0.59399,-0.12734 -0.97514,-0.44471 -1.21972,-0.79958c-0.32633,-0.38316 -0.44443,-0.80025 -0.4587,-1.18301c-1.91164,-2.83949 -4.05549,-2.18527 -7.18149,-3.81941c-3.42094,-1.78832 -6.36766,-5.22517 -8.49303,-8.35294l-1.56534,-1.57421c-3.65537,-5.00157 -9.44413,-14.16105 -5.85738,-20.5524c0.93471,-1.66557 3.08672,-2.28212 4.7943,-3.13769c0.79235,-0.39701 1.35548,-1.16782 2.14409,-1.57221c2.20897,-1.13272 4.89031,-1.64281 7.42032,-2.07199c-1.61556,-3.85086 -2.0839,-8.08852 0.93469,-11.63017c0.24019,-0.28181 2.57573,-2.09691 3.64673,-2.92711c-1.48811,-4.00971 -2.38546,-8.46599 0.45436,-12.15478c1.19978,-1.55845 3.15484,-3.26707 5.20616,-3.59263c0.43369,-0.06883 1.02052,1.11382 1.124,0.68707c0.13032,-0.53746 -1.07184,-0.8088 -0.963,-1.35102c0.20922,-1.04227 1.18228,-1.76711 1.76712,-2.65484c4.41629,-6.7035 13.24744,-6.74855 20.63918,-6.75389h0.6c0,0 1.12924,0 1.78773,0.8c1.23172,0 2.46344,0 3.69516,0z" fill="#721c67" stroke-width="0.5"></path><path d="M278.15961,198.20095l-2.7511,-0.88641c0,0 -1.5714,-0.5238 -1.56823,-2.02082c-1.015,-0.48281 -1.78083,-1.34104 -2.60068,-3.25679c-1.27835,-2.9871 0.02743,-5.84399 0.03042,-8.85692c0.00462,-4.65099 -1.07781,-9.53605 -1.58693,-14.15781c-0.20603,-1.87032 -0.93553,-6.93734 0.06457,-8.52491c1.95237,-3.09922 5.65245,-2.54682 8.62284,-3.29913c0.25977,-0.13593 0.58068,-0.23104 0.97696,-0.26152c0.63234,-0.04864 1.10014,0.09466 1.44594,0.32557c0.347,0.22909 0.66061,0.60464 0.86116,1.20629c0.12248,0.36742 0.16062,0.69268 0.13984,0.97941c0.1657,2.559 0.09112,5.12508 0.36107,7.67665c0.24692,2.33389 1.30433,4.45618 1.59465,6.75681c0.09803,0.77687 -0.2512,1.59229 -0.04836,2.34859c0.52675,1.96407 1.88291,3.64156 2.40193,5.60769c0.86696,3.28421 1.47118,6.40197 2.03573,9.77247l0.35106,1.92963c0.2318,0.66642 0.11446,1.21197 -0.11476,1.62949c-0.18531,0.44459 -0.54435,0.88146 -1.22438,1.11425c-3.19992,1.64472 -5.33721,1.94373 -8.99173,1.91747z" fill="#721c67" stroke-width="0.5"></path><path d="M276.83474,186.00809c-1.25155,-1.51318 -0.8898,-4.1754 -0.96306,-5.94174c-0.17829,-4.29851 -0.20166,-8.57911 -0.20166,-12.88635c0,0 0,-1.69324 1.46888,-2.14196c0.85758,-1.75759 1.92998,-3.11414 3.13457,-4.78359c0.02281,-0.41458 0.15784,-0.79926 0.37525,-1.12415l1.66008,-2.56558c0.33135,-0.66891 0.60642,-1.2214 0.70772,-1.38435c1.88358,-3.03013 4.058,-5.90569 6.28627,-8.73638c2.4068,-4.11284 5.06538,-8.10923 7.49987,-12.04135c1.00279,-1.61968 2.44557,-2.95974 3.31742,-4.65349c1.74014,-3.38062 2.04474,-7.81822 4.10215,-10.97779c0.95558,-1.46747 2.4992,-2.52379 3.32279,-4.06921c1.44211,-2.70603 2.54195,-5.21779 4.30059,-7.76673c0.89549,-1.39292 2.0767,-2.58062 3.07291,-3.90339c1.48518,-1.97201 1.90568,-4.68514 2.99306,-6.86622c0.92026,-1.84588 1.91584,-3.66181 2.97794,-5.43766c-0.18869,-0.88933 0.30116,-1.70576 0.30116,-1.70576c2.52904,-4.19183 4.14397,-8.81646 5.81483,-13.41131l0.63392,-1.74327c0.06459,-0.49587 0.32015,-0.88517 0.58096,-1.16297c0.2418,-0.30163 0.59796,-0.61404 1.09071,-0.74453c4.39423,-2.24498 9.42628,-3.55448 13.62605,-6.09426c4.53544,-2.74278 7.26349,-6.83944 10.011,-11.14986c0.14831,-0.43643 0.30073,-0.87148 0.45736,-1.3051c0,0 0.03346,-0.09199 0.10559,-0.23063c0.18947,-0.39896 0.54067,-0.90476 1.15721,-1.13742c0.3836,-0.16114 0.86526,-0.21245 1.4591,-0.03157c0.6014,0.15389 0.98634,0.44791 1.23044,0.78486c0.406,0.51906 0.44339,1.13368 0.39807,1.57302c-0.01036,0.15594 -0.02956,0.25193 -0.02956,0.25193l-0.02687,0.09343c-0.03296,0.14639 -0.0649,0.23423 -0.0649,0.23423c-0.00382,0.01043 -0.00764,0.02085 -0.01146,0.03128l-0.40484,1.40777c-0.06539,0.10274 -0.13079,0.20538 -0.19622,0.30791c-3.84976,11.48452 -4.65846,24.06327 -4.65202,36.08412l-0.18148,2.08484c-0.0016,0.29287 -0.05926,0.56015 -0.12302,0.76711c-0.06392,0.21333 -0.16871,0.47608 -0.33847,0.72662c-2.91156,5.12338 -7.59027,8.91988 -11.26177,13.4415c-1.04649,1.28881 -1.8233,2.63937 -2.73348,3.94405c0.26696,0.97402 -0.33965,1.88394 -0.33965,1.88394c-2.27585,3.41342 -5.19339,6.88652 -7.11297,10.45838c-2.00183,3.72491 -4.24623,8.57234 -7.08206,11.79351c-1.68207,1.91063 -4.17305,2.92741 -5.55169,5.26424c-2.11651,3.58755 -4.71015,7.18387 -7.70022,10.19185c-1.42829,1.55444 -2.66025,3.21514 -3.99692,4.80541c-2.81885,5.44774 -6.36298,10.29622 -10.58718,14.77781c-3.63878,3.86049 -8.31633,6.37062 -10.95601,10.95453c-1.1228,3.6781 -3.77578,6.72214 -7.57036,2.1343z" fill="#f0bcd4" stroke-width="0.5"></path><path d="M248.67386,44.36472h2.8239c3.10179,0.00209 6.57749,-0.29387 9.34998,1.46863c3.68106,2.34011 6.90299,7.45136 8.71373,11.22019c1.23576,2.57207 3.34982,5.77222 2.40956,8.87055v2.60667c0,0.39555 -0.09398,0.76914 -0.26083,1.09969c0.05709,0.36059 0.03516,0.62382 0.03516,0.62382c-0.27109,2.9562 -1.24711,5.33925 -1.9674,8.18594l-0.02383,0.28595l0.72557,0.30233l-1.06433,2.55441c-0.15387,0.39452 -0.4073,0.73924 -0.72939,1.00327c0.3962,2.85574 -2.10386,6.9851 -4.09094,8.65851c-0.4953,0.41711 -1.04709,0.75709 -1.60916,1.08304l-0.49923,0.59l-0.21345,-0.18062c-0.01351,0.00781 -0.02701,0.01564 -0.0405,0.02347c-0.99048,1.42844 -2.37521,2.25639 -5.31304,3.10851l-1.82521,0.61237c0,0 -0.1484,0.04947 -0.38264,0.08582c-0.23371,0.03959 -0.39014,0.03957 -0.39014,0.03957c-0.02135,-0.00064 -0.04272,-0.00126 -0.06408,-0.0019c-0.07361,0.0007 -0.15013,-0.00127 -0.22871,-0.00678c-0.99904,-0.0296 -1.99808,-0.05919 -2.99713,-0.08878l-0.19558,-0.25528l-1.52491,0.12707l-0.97338,0.00545c-0.56108,0.13424 -1.07425,0.00411 -1.46934,-0.17999c-0.40295,-0.14679 -0.84975,-0.41132 -1.15152,-0.88807c-1.86585,-1.81422 -3.91366,-3.39732 -5.88107,-5.05379l-0.05842,-0.02149c-0.00845,-0.00844 -0.07341,-0.07338 -0.18022,-0.18017c-1.29947,-1.10224 -2.55895,-2.24214 -3.70203,-3.50839l-0.02887,-0.15258l-0.05567,0.03897l-1.5034,-2.14771c-0.28881,-0.4013 -0.45891,-0.89375 -0.45891,-1.42593c0,-0.12854 0.00993,-0.25477 0.02904,-0.37795c-0.12938,-0.17553 -0.26248,-0.35315 -0.39996,-0.53302c-1.40153,-1.83374 -3.07788,-3.63732 -3.67924,-5.86562c-0.37656,-1.39536 -0.29356,-5.17745 -0.29432,-6.69124l0.6497,-2.47436c-0.03518,-2.78117 -0.51633,-6.66457 0.32023,-9.29939c2.01583,-6.34907 9.72461,-11.93248 16.23714,-12.36611c0.71186,-0.89508 1.96287,-0.89508 1.96287,-0.89508z" fill="#6390d6" stroke-width="0.5"></path><path d="M197.09318,281.86127c1.28697,-0.86017 4.67597,-1.17503 6.06856,-1.85654c1.6759,-0.82016 2.0326,-2.10108 4.33155,-2.10108c2.24201,0 2.52454,1.21338 3.67879,2.11516c1.21862,0.95207 3.3876,1.11008 4.58678,2.04515c1.0007,0.7803 1.81866,1.69304 2.52663,2.63765c1.4371,0.43058 2.69396,1.54937 3.63956,2.15354c0.88538,0.56569 2.05398,0.28525 3.04456,1.11313c1.4281,1.19354 0.62301,5.99137 -0.70303,7.65553c-0.49928,1.19384 -2.62786,1.04217 -4.04999,1.47917c-4.49337,1.38077 -8.76096,1.28843 -13.54597,3.18397c-0.89287,0.3537 -5.05418,2.48791 -6.22149,1.6738l-0.35725,-0.31957c-2.45933,-0.53515 -5.6074,-2.38879 -7.76661,-3.98425c-0.51977,0.07548 -1.0765,0.04919 -1.65058,-0.11293c-2.37351,-0.67026 -3.86198,-4.6173 -2.23206,-5.70668c0.01776,-0.01187 0.03577,-0.02368 0.05402,-0.03544c0.6294,-1.76938 2.04754,-2.41662 3.15614,-4.01971c0.42073,-0.60839 1.42689,-2.77967 2.62725,-2.83278c0.51164,-0.02264 1.17046,-0.97805 1.92923,-1.46888c0.20334,-0.74736 0.50716,-1.36743 0.88393,-1.61925z" fill="#baafcc" stroke-width="0.5"></path><path d="M290.36368,279.65c3.95949,0 6.50084,4.83245 9.28974,7.08654c0.52872,0.42733 1.20792,1.92148 1.70186,2.00051c1.74656,0.27945 4.90561,1.10313 6.32805,2.05878c1.06691,0.71678 1.4855,2.46647 0.84631,3.58504c-0.37277,0.65234 -1.03402,1.01317 -1.79219,1.18626c-0.23415,0.74265 -0.60191,1.34529 -1.05412,1.6037c-1.53793,0.87882 -3.9921,-0.1855 -5.57979,-0.1875c-5.25842,-0.00663 -12.88995,0.78772 -18.77372,-0.78555c-2.08395,0.07344 -4.16572,0.12524 -6.2435,0.11888c-3.36479,-0.01029 -8.41909,2.57601 -10.08849,-0.34546c-0.36372,-0.21466 -0.66834,-0.51879 -0.88359,-0.88212c-4.71196,-4.01886 1.27186,-7.93288 1.58992,-9.02242c0.17615,-0.60343 0.72319,-2.13659 1.5364,-2.18176c0.39131,-0.25403 0.85814,-0.40157 1.35944,-0.40157c0.02735,0 0.0546,0.00044 0.08174,0.00131c1.20033,-3.70984 5.14385,0.33059 5.26476,0.33417c0.92139,0.0273 7.26137,-3.57803 9.0296,-4.20719c1.31177,-0.46674 6.5389,-1.44371 7.38555,0.03792z" fill="#baafcc" stroke-width="0.5"></path><g fill="none" stroke-width="0"><path d="M-34,360v-359h34v359z"></path><path d="M480,360v-359h34v359z"></path></g><path d="M264.85,90.65c0,-0.75 0.75,-0.75 0.75,-0.75h0.5c0.04299,0 0.08548,-0.00029 0.12752,-0.00081c-0.09252,-0.74454 0.02306,-1.54356 0.40739,-2.1534c0.03255,-0.05165 0.06561,-0.10197 0.09915,-0.15112c-0.03143,-1.06392 0.34733,-2.04476 1.36386,-2.28216c0.11159,-0.02606 0.22342,-0.03432 0.33541,-0.02962v-0.04956h0.08274c-0.00368,-0.42462 -0.01948,-2.16677 0.09795,-2.28619c0.01033,-0.01051 0.02079,-0.02098 0.03136,-0.03143c-2.76153,0.03897 -5.45328,0.17393 -8.24671,0.6393c-0.25405,0.04716 -0.43669,-0.01198 -0.56674,-0.10849c-0.13636,-0.08737 -0.25644,-0.23718 -0.30243,-0.49146l-0.16721,-0.83653c-0.21587,-1.53075 -1.09566,-1.92683 -2.01136,-2.99599c-0.9299,-1.08574 -1.4407,-2.45158 -1.54681,-3.82451c-0.91378,1.25148 -1.94158,2.40085 -2.91771,3.77434c-0.13979,0.19669 -0.25508,0.40598 -0.36149,0.61409c-0.81767,2.19342 -1.76611,4.65174 -3.44314,6.03832c-2.64558,2.18738 -7.08403,3.19907 -10.23558,4.38468c-0.55889,0.57518 -0.90156,1.47365 -1.65617,1.74524c-1.12109,0.40348 -2.37268,-0.8424 -3.09023,-1.47919c-0.67773,-0.60144 -1.39697,-1.14 -2.12549,-1.66177c-0.46528,0.06188 -0.93177,0.05516 -1.18281,0.00605c-1.0602,-0.2074 -1.85601,-0.65818 -2.51119,-1.26165c-0.12527,-0.00311 -0.24972,-0.01062 -0.37252,-0.02335c-1.13468,0.50092 -3.97061,-0.03141 -5.02099,0.12219c-2.18056,0.31888 -7.20191,0.60538 -7.20288,-2.77006c-0.00019,-0.67355 0.22681,-1.28282 0.52151,-1.86247c0.37081,-1.20382 1.19907,-2.36998 1.7285,-3.56097c-1.32275,-0.18477 -2.64899,-0.60572 -3.03093,-1.01648c-0.69877,-0.75151 -0.19174,-2.44673 0.17258,-3.39952c-0.23438,-1.33091 0.18235,-2.82108 0.84895,-3.95676c1.96458,-5.26465 4.18558,-10.37725 6.48772,-15.47321c0.74782,-1.65536 0.93367,-3.21821 2.18806,-4.58775l0.04232,-0.19578c1.34185,-2.00036 3.24632,-3.64837 4.80892,-5.4921c3.11911,-1.8146 6.67786,-3.18363 10.15943,-3.99221c0.07278,-0.0169 0.14379,-0.03127 0.21314,-0.04326c1.32804,-0.40873 2.70073,-0.63974 4.10922,-0.63974c0,0 0.1607,0 0.33333,0.07439c0.0882,-0.03801 0.17328,-0.05659 0.23541,-0.06569c0.00308,-0.18037 0.00888,-0.35362 0.0122,-0.51355c-0.37385,-0.04253 -0.66428,-0.35993 -0.66428,-0.74516c0,-0.24849 0.12085,-0.46876 0.30698,-0.60524l0.35968,-0.26976v-0.95833c0,-0.41421 0.33579,-0.75 0.75,-0.75c0.40583,0 0.73637,0.32233 0.74959,0.72494l0.02702,0.7102c0.96962,0.01552 2.35626,1.95079 3.24245,2.94609c1.2058,-1.01772 3.53745,-1.21277 4.98094,-1.21456c4.03589,-0.005 5.40875,1.51489 8.17843,4.03506c0.01832,0.01667 0.0366,0.03325 0.05486,0.04973c0.10419,0.06264 0.21053,0.12559 0.31925,0.18875l0.82155,0.49293c0.20774,0.11978 0.35269,0.33625 0.37337,0.58794c1.13797,0.91514 2.16479,1.7435 3.16589,3.25343c1.36427,1.35286 2.79954,2.6677 3.56929,4.43344l0.38668,0.50795c0.06382,0.07166 0.10871,0.14898 0.13892,0.21287c0.02947,0.0615 0.06002,0.1415 0.07594,0.23213c0.93537,3.68011 3.46185,6.89613 4.47143,10.55367c0.66277,2.4011 0.68719,5.68188 0.69076,8.12819c0.35305,1.72479 1.1408,3.19963 1.48909,4.92682l0.00619,0.1333c0.0257,0.13144 0.00939,0.25758 -0.01402,0.35222c-0.01939,0.08621 -0.05556,0.19295 -0.12304,0.29117c-1.24233,2.34634 -3.24985,3.6899 -5.64246,4.72643l-0.07469,0.13224c0.03083,0.03675 0.06063,0.07852 0.08904,0.12586c0.38587,0.64312 -0.25725,1.02899 -0.25725,1.02899c-0.41928,0.20196 -0.79579,0.66149 -1.25784,0.60588c-0.12958,-0.0156 -0.43445,-0.13274 -0.71749,-0.30464c-0.01701,0.28874 -0.05357,0.63897 -0.09369,1.01487c0.06349,0.11011 0.09982,0.23786 0.09982,0.3741c0,0.02817 -0.00155,0.05597 -0.00458,0.08333c0.00302,0.02736 0.00458,0.05517 0.00458,0.08333v1h-0.0257l0.02215,0.07282c-0.0631,0.31501 -0.14353,0.61215 -0.23961,0.8971c0.0232,0.29782 0.07597,0.54561 0.17234,0.71196c0.33317,0.5751 1.49508,0.30076 1.77818,0.90209c0.23521,0.49961 0.08911,1.15451 -0.1562,1.64924c-0.51046,1.02949 -4.157,1.40836 -4.77703,0.32031c-0.056,-0.09827 -0.08256,-0.20164 -0.08827,-0.30864c-0.18724,0.00371 -0.38677,0.00512 -0.60253,0.00512h-0.5c0,0 -0.75,0 -0.75,-0.75zM270.47596,90.56602c-0.04553,0.00979 -0.09006,0.0181 -0.13363,0.02498c-0.00379,0.02635 -0.00895,0.05227 -0.0154,0.07766c0.13629,-0.06096 0.23988,-0.12218 0.14904,-0.10265zM216.05943,76.85565c-0.07246,0.24769 -0.11531,0.42176 -0.09577,0.43069c0.17735,0.08108 0.61435,0.14112 1.12859,0.21911c-0.33694,-0.15357 -0.63677,-0.30765 -0.79709,-0.43886c-0.08307,-0.06799 -0.1616,-0.13836 -0.23573,-0.21094zM244.0261,42.07032c0.11404,-0.01183 0.22589,-0.02646 0.33588,-0.04342c-0.03068,-0.00923 -0.06279,-0.02061 -0.09531,-0.03462c-0.17263,0.07439 -0.33333,0.07439 -0.33333,0.07439c-0.14963,0 -0.2988,0.00285 -0.44748,0.00847c0.16904,0.01514 0.34804,0.01511 0.54024,-0.00482zM270.93185,83.00735c-0.12172,0.35463 -0.33542,0.59097 0.12039,0.15515c-0.04964,-0.05194 -0.08927,-0.10382 -0.12039,-0.15515z" fill="#111732" stroke-width="0.5"></path></g><g fill-opacity="0.37255" fill="#2d1440" stroke-width="0.5"><path d="M287.92051,229.75538c0.05265,7.27495 0.19017,14.54767 0.22258,21.81384c0.80439,3.26411 1.85072,6.43612 2.52128,9.79961c-1.76625,0.2957 -3.50805,0.90931 -5.29874,0.88709c-1.74808,-0.0217 -3.08598,-0.48657 -4.09922,-1.25159c-0.27452,5.6164 -1.11583,11.20407 -3.66694,16.26115c3.66315,-1.33719 8.00943,-1.92605 11.57151,-1.94377l0.24963,0.1336l0.01872,-0.09358l2.45004,0.49001c1.28532,0.23085 2.26064,1.35482 2.26064,2.70659c0,0.91114 -0.44312,1.71879 -1.1256,2.2192l-1.9744,1.4808l-0.10356,-0.13808c-0.21147,0.19759 -0.43588,0.3812 -0.67681,0.54696c-0.89194,0.61367 -2.16441,0.07163 -3.24501,0.1383c-2.67076,0.16478 -4.47459,0.40103 -6.51955,2.28291c-0.14637,0.13469 -0.28945,0.27303 -0.42976,0.41446c0.80879,1.09283 1.54468,2.35243 2.31975,3.93436c-0.01885,1.62912 -0.05898,4.87849 0.51118,6.34008c-0.01244,-0.00097 -0.02489,-0.00194 -0.03733,-0.00291c-0.35732,0.49856 -0.95365,0.92113 -1.94526,1.02029c-1.63895,0.1639 -2.39441,-0.75203 -2.73675,-1.51305c-0.30063,-0.06308 -0.59753,-0.13657 -0.88975,-0.22308c-1.2198,0.00864 -2.49466,0.22785 -3.76167,0.36446c-0.7414,1.00217 -1.50361,1.80075 -2.0831,2.05737c-5.6536,2.50371 -9.29051,-2.57476 -7.96444,-7.61187c0.47519,-1.80502 1.71664,-3.29872 3.26082,-4.55827c0.29845,-2.08157 0.95372,-4.05599 1.60022,-5.29505l0.78719,-2.36158c-0.13507,-4.85631 0.84865,-9.4447 1.53965,-14.22109c0.36244,-2.50525 0.99787,-4.9878 1.90372,-7.3515c0.0043,-0.01122 0.00856,-0.02247 0.01276,-0.03375c-1.97951,-0.95812 -3.77757,-2.71871 -4.42737,-4.06132c-1.89208,-3.90942 1.09963,-7.29783 2.8138,-10.48141c0,0 1.30377,-2.4213 3.72507,-1.11752c1.81602,0.97786 1.53658,2.58435 1.28338,3.32643c0.28563,-0.10048 0.59285,-0.15513 0.91284,-0.15513c0.6996,0 1.33819,0.26124 1.82353,0.6915c0.18579,-2.76057 0.5287,-5.50266 1.27885,-8.18487c0.53897,-1.92712 1.19646,-3.81575 1.85536,-5.70727c0.14007,-0.67895 0.32213,-1.35635 0.5132,-2.03468c-0.11421,-3.28282 -0.48525,-6.93394 0.37373,-9.98001c0.44504,-1.5782 0.91021,-2.54883 1.51551,-3.36235l-0.0141,-0.00784l0.76342,-1.37415c0.04855,-0.42734 0.10876,-0.8548 0.18487,-1.28227c0,0 0.49193,-2.70564 3.19758,-2.21371c2.70564,0.49193 2.21371,3.19758 2.21371,3.19758c-0.00867,0.04655 -0.01716,0.09309 -0.02546,0.13962c0.04568,0.19879 0.06982,0.4058 0.06982,0.61845c0,0.46707 -0.11644,0.90695 -0.32188,1.29218c-0.26369,2.85997 -0.10305,5.69485 -0.74511,8.56114c-0.44201,1.97319 -1.03136,3.91363 -1.66249,5.84373z"></path><path d="M214.8098,107.00132c-0.80433,-0.40908 -1.30508,-1.24989 -2.0044,-1.82135c-0.19226,-0.06986 -0.38466,-0.14059 -0.5769,-0.2124c-0.71119,0.40445 -1.39599,0.8385 -1.91703,1.4543c-0.01648,0.01948 -0.03108,0.03952 -0.04395,0.06008c-0.02401,0.15996 -0.04586,0.32451 -0.06552,0.49304c0.05756,0.35225 0.2475,0.75021 0.20386,1.09544l0.01491,0.19381c2.14014,1.40131 3.96182,3.28432 5.93307,4.92717c0.0867,0.07225 0.1778,0.14445 0.27278,0.21652c1.56832,0.56859 3.12684,1.19492 4.66458,1.95131c0.86143,0.42373 1.68229,0.92926 2.47238,1.48951c0.78592,0.1491 1.35436,0.60385 1.35436,0.60385l0.86761,0.74346c0.77369,0.43029 1.54738,0.86059 2.32107,1.29088c2.11222,1.35045 4.11491,2.39811 5.73928,4.39324c0.01443,0.01773 0.02873,0.0357 0.04289,0.05392c2.53213,0.27664 5.18786,0.66448 7.63642,1.22671c2.87507,0.66017 5.48819,2.32504 8.3167,3.01514c1.02086,0.24907 3.92932,0.17404 4.85812,0.17404c5.5018,0 12.19908,-0.37598 17.05123,-3.08115l0.44692,0.0719l-0.03747,-0.18734l2.44432,-0.48886c0.14227,-0.03138 0.28867,-0.05174 0.43826,-0.06015c0.35162,-0.16325 0.74353,-0.25438 1.15673,-0.25438c1.51878,0 2.75,1.23122 2.75,2.75c0,0.35267 -0.06639,0.68983 -0.18734,0.99967l-0.97823,2.69012l-0.09023,-0.03281l0.00781,0.23425c-1.81831,3.28213 -3.09041,6.8074 -4.72294,10.1887c-0.25273,0.52346 -0.42622,1.11491 -0.62989,1.68233c0.91402,0.95952 2.36668,1.50912 3.47077,1.80727l2.36941,0.47388c1.28532,0.23085 2.26064,1.35482 2.26064,2.70659c0,0.26785 -0.03829,0.52676 -0.10971,0.77155c2.1524,0.90721 2.7288,2.83945 -1.24568,6.5986c-0.55284,0.52289 -1.52404,0.67744 -2.66695,0.63668c-0.07163,0.83932 -0.48194,2.08829 -2.23572,2.40716c-0.31648,0.05754 -0.60268,0.07133 -0.86134,0.05082c-0.4918,0.46114 -1.15322,0.74353 -1.8806,0.74353c-0.6291,0 -1.20886,-0.21124 -1.67222,-0.56667l-1.97778,-1.48333l0.19753,-0.26338l-0.43171,-0.43171l-0.51118,-0.15407c-0.03302,-0.19985 -0.06604,-0.39971 -0.09905,-0.59956c-0.30281,-0.29689 -0.47836,-0.67427 -0.58697,-1.09327c-0.8095,-0.23258 -1.91862,-0.86991 -1.91862,-2.61635v-0.00001c0,-0.18597 0.01258,-0.35936 0.03603,-0.52103c-0.45477,-0.30262 -0.89914,-0.62498 -1.33314,-0.96302c0.22212,-0.00284 0.43978,-0.00102 0.65089,0.00947c0.3166,0.01572 0.63303,0.05042 0.95064,0.09654c0.08303,-0.15914 0.17969,-0.29982 0.28573,-0.42418c-3.61599,-1.49899 -6.57569,-3.3064 -8.96865,-6.81747l-0.03301,-0.17454l-0.04816,0.02408l-1.06858,-2.13716c-0.67485,-0.25504 -1.32787,-0.57017 -1.97518,-0.95399c-0.07224,1.45434 -1.27429,2.61132 -2.74656,2.61132c-0.29718,0 -0.58334,-0.04714 -0.85143,-0.13434l-0.59649,-0.17895c-1.42269,1.13192 -3.41623,1.87961 -5.1213,2.45965c0.67418,1.14959 1.38442,2.2606 2.28076,3.13457c0.22321,0.21765 0.43885,0.42974 0.64773,0.63791c1.95393,1.32751 3.76645,2.72967 4.52341,5.41641c0.00736,0.02611 0.01461,0.05225 0.02176,0.0784l0.01687,-0.00908l1.7255,3.20449c0.0651,0.11539 0.1221,0.23595 0.17025,0.36091c0.68127,0.03538 1.46025,0.19375 2.34689,0.49683c3.84379,1.31393 3.67872,7.20233 3.67191,10.80407c1.03974,0.2256 1.86022,1.03924 2.09576,2.07523c0.75315,-0.08401 1.4777,-0.13673 1.71645,0.39514c0.98294,2.18981 0.63945,3.70241 -0.11641,5.03144l0.2605,0.09386c0.67715,1.12423 1.54629,2.15324 2.03144,3.37268c0.14435,0.36281 0.24389,0.7363 0.31314,1.11714c-0.00567,-2.85809 0.36256,-5.94385 0.36328,-8.39803c0.00031,-1.04313 -0.07954,-6.00215 0.30441,-6.79435c0.0495,-0.10213 0.10106,-0.20299 0.15451,-0.30267l-0.06781,-0.0226l0.97995,-2.93984c0.34559,-1.12372 1.39187,-1.94053 2.62893,-1.94053c1.43677,0 2.61619,1.10183 2.73938,2.50662l0.24697,2.46975l-0.05884,0.00588l0.06907,0.13076c0,0.65173 0.02748,1.28194 0.07271,1.90025c0.75366,-0.44841 1.76413,-0.72099 3.11464,-0.75466c0.63052,-1.81363 1.58562,-3.20412 2.66154,-4.49458c3.46844,-6.24625 8.31127,-12.23878 12.52784,-17.50749c0.21658,-0.27063 0.70776,-0.75542 1.2726,-1.30729c0.2398,-0.33845 0.49292,-0.66798 0.7634,-0.98572c0.11626,-0.13658 0.23213,-0.27318 0.34759,-0.40981c0.02197,-0.31149 0.09582,-0.60867 0.21295,-0.88293l0.97684,-2.4421l0.09029,0.03612c0.01939,-0.12097 0.0412,-0.24167 0.06567,-0.36209c0.17347,-0.85377 1.10384,-1.35503 1.55806,-2.09847c0.29758,-0.48706 0.58532,-0.98007 0.86866,-1.47573c0.16867,-0.47943 0.32941,-0.9073 0.48239,-1.24948c0.8213,-1.83708 1.86973,-3.61554 3.00177,-5.35358c0.02717,-0.27408 0.09458,-0.53633 0.19624,-0.78075l1.72722,-4.44141l0.00447,0.00174c0.00012,-0.00468 0.00023,-0.00937 0.00035,-0.01405l0.01026,-0.01014l-0.00538,-0.00215l0.97621,-2.44052c0.29031,-0.7775 0.9224,-1.38836 1.7135,-1.64982c0.89327,-1.81674 1.6884,-3.66605 2.28529,-5.34478c0.77594,-2.1823 1.0642,-4.56376 2.1606,-6.60396c0.99622,-1.85377 1.92465,-3.7816 3.26655,-5.40278c1.55989,-1.88454 3.70802,-3.24094 5.19735,-5.18172c0.89028,-1.16015 1.51669,-2.73905 2.40816,-4.04904c1.42066,-4.01428 2.77551,-8.04761 4.21123,-11.99585c0,0 0.25097,-0.69016 0.85017,-1.22749c-0.00029,-0.0349 -0.00106,-0.06947 -0.00236,-0.10369c-0.10858,-2.87387 -0.19041,-5.35199 2.27722,-7.63319c1.49014,-1.37756 3.91816,-1.06646 5.84404,-1.70613c3.99925,-1.32832 7.36278,-3.71584 10.88895,-5.95977c0,0 1.30329,-0.82937 2.57785,-0.26807c0.1829,-0.23392 0.34925,-0.47974 0.49202,-0.74267c1.6492,-3.03735 2.6966,-6.85097 4.15303,-10.05714c0,0 1.13796,-2.50351 3.64147,-1.36555c2.50351,1.13796 1.36555,3.64147 1.36555,3.64147c-1.50726,3.31379 -2.58431,7.31935 -4.34697,10.44286c-0.69566,1.23275 -3.07697,3.36061 -3.94938,4.55959c-2.99616,4.11771 -4.5158,9.23728 -7.5053,13.25711c-1.20671,1.62261 -3.03292,2.70645 -4.2843,4.29487c-1.81374,2.30226 -2.27049,5.3415 -3.85114,7.78974c-0.60236,0.93299 -1.30455,1.79474 -2.01276,2.65253c0.00713,1.0925 -0.74829,1.94235 -0.74829,1.94235c-2.14553,2.3204 -2.2593,4.71208 -4.07446,7.28095c-1.08985,1.54239 -2.70016,2.75803 -3.45858,4.48763c-0.74043,1.68858 -1.22093,3.50793 -2.17438,5.08606c-4.50842,7.46221 -8.87733,14.69848 -13.75,22l-1.19402,2.15388c0,0 -0.02536,0.04564 -0.07537,0.12085c-0.04574,0.07788 -0.07568,0.12065 -0.07568,0.12065c-7.79277,11.10252 -14.3253,22.73355 -23.38211,32.84863l-0.80802,1.75071c-0.12832,2.5402 -0.66046,4.97249 -1.1564,6.28518c-0.47397,1.25454 -0.82541,2.85743 -1.67495,3.8579l0.0186,0.18055c0,0 0,0.49778 -0.21178,1.06977c0.8696,0.46192 1.46178,1.37692 1.46178,2.43023c0,1.023 -0.55859,1.91553 -1.3874,2.38923c0.01177,0.03574 0.02282,0.0718 0.03315,0.10817c0.05077,0.15517 0.09373,0.32515 0.12013,0.50558c0.23362,0.09896 0.43707,0.25154 0.59917,0.4761c1.21134,1.67818 1.14784,4.45056 0.05601,6.20883c-0.98026,1.5786 -3.32793,2.13474 -5.18416,2.04947c-2.28694,-0.10505 -4.08433,-1.68378 -5.13766,-3.74758l-2.17623,-1.93442l0.3078,-0.34628c-0.76339,-0.49768 -1.51471,-1.03712 -2.22235,-1.61786c-4.5527,-2.22212 -10.92147,-6.42424 -10.50058,-12.29918c0.07796,-1.08816 1.08096,-3.63206 2.09038,-5.27321c0.05951,-0.21631 0.14477,-0.42195 0.25229,-0.61341l-0.19814,0.09145l-0.16045,-0.34764l-0.73462,0.58868c-1.782,-0.56636 -3.99512,-0.40623 -5.34599,-1.69907c-1.05261,-1.0074 -0.65784,-2.84065 -0.89891,-4.27756c-0.31721,-1.89075 -0.30877,-3.81979 -0.28286,-5.73926c-0.1229,-1.12121 -0.11436,-2.21781 0.07501,-3.18209c-0.38735,-0.23978 -0.71073,-0.57305 -0.93863,-0.96831l-1.47407,-2.45678l0.0188,-0.01128l-0.04205,-0.0282c-0.19612,-0.35364 -0.38439,-0.67651 -0.5683,-0.97554c-0.25233,-0.23182 -0.4272,-0.54332 -0.57715,-0.88279c-0.87686,-1.25711 -1.73854,-2.11665 -2.99893,-3.39614c-0.6758,-0.37937 -1.36586,-0.74637 -1.95245,-1.23178c-0.50727,-0.41978 -0.98476,-0.89753 -1.44017,-1.41098c-2.63024,5.38574 3.41556,12.22704 6.39328,16.57299l-0.03004,0.46539l0.18914,-0.05674l0.73163,2.43878c0.08721,0.26809 0.13434,0.55425 0.13434,0.85143c0,1.51878 -1.23122,2.75 -2.75,2.75c-0.47677,0 -0.9252,-0.12133 -1.3161,-0.33479c-0.05724,0.25242 -0.12603,0.51212 -0.2068,0.77915c-0.41905,1.38545 -2.27555,1.80621 -3.5286,2.53074c-1.80187,1.04187 -3.41242,1.60527 -4.83609,2.39082c-0.21017,4.08151 -0.69713,8.1889 -1.69951,12.07073c-0.93667,3.62736 -2.62577,5.72606 -3.83175,9.01212c-0.59163,1.61208 -0.69427,3.36349 -1.08115,5.03691v2.26432c0,1.45554 -1.13082,2.64697 -2.56184,2.74366c1.02648,1.1912 0.3503,2.81403 0.3503,2.81403c-2.81906,6.75646 -5.40522,12.92816 -6.06694,20.33702l-0.07906,0.13379l0.05413,0.01083l-0.74001,3.70004c-0.02008,0.11178 -0.04691,0.22121 -0.08005,0.32786c0.37346,0.70621 0.37346,1.43278 0.37346,1.43278c-0.01564,3.1888 0.32751,6.77002 2.09346,9.56101c1.33014,2.10221 2.87174,4.17923 3.51932,6.58114c0.1111,0.41207 0.28024,0.84073 0.44562,1.27328c0.29373,-0.10704 0.61085,-0.16543 0.9416,-0.16543c1.51878,0 2.75,1.23122 2.75,2.75c0,0.81583 -0.35526,1.54869 -0.91951,2.05231l-2.49084,2.24175l-0.0034,-0.00378c-0.00364,0.00553 -0.00729,0.01107 -0.01093,0.0166c-0.39403,0.59735 -1.22998,0.79445 -1.64914,1.37443c-2.99215,4.14009 -4.72235,9.08313 -7.79929,13.21411l-0.45801,0.91602c0.40905,0.26972 0.81793,0.54412 1.22848,0.81827l2.62044,1.42933c0.88073,0.45837 1.4822,1.37943 1.4822,2.44096c0,1.45069 -1.12329,2.63903 -2.54755,2.74266l-0.5496,0.0458c-0.67057,0.34829 -1.30835,0.31472 -1.82896,0.15241l-0.59552,0.04963l-0.01002,-0.12023c-0.22656,0.04267 -0.45583,0.0732 -0.68833,0.08928c-0.67007,0.04635 -1.32052,-0.11691 -1.94265,-0.4086c-2.44899,-0.30564 -5.02908,-1.09434 -5.79636,-3.163c-0.09184,-0.2476 -0.16502,-0.49904 -0.22287,-0.75363l-0.15257,0.05548l-0.21203,-0.58308l-0.77098,0.64663c-1.57886,2.99937 -2.64604,5.58051 -3.35141,8.94543l-0.89104,1.64617c0.62051,2.33525 1.2021,4.62251 2.1132,6.88373l0.15642,0.46159c0.28848,0.47738 0.45932,1.10338 0.2542,1.87802c-0.07953,0.52403 -0.31558,1.09653 -0.88407,1.54157c-0.52096,0.49984 -1.12109,0.65255 -1.6511,0.65717c-0.77326,0.09086 -1.35742,-0.1498 -1.78601,-0.48739c-3.38349,-1.54164 -9.61083,-2.64647 -10.78842,-6.52931c-1.16848,-3.85281 1.55365,-4.74032 3.23764,-6.95486c0.06194,-0.08146 0.12178,-0.16441 0.17986,-0.24862c0.79452,-2.18093 2.00207,-4.18595 3.45192,-6.02863c0.01533,-0.18047 0.03952,-0.36 0.07587,-0.53826c0.50807,-2.49185 1.5812,-3.73726 2.91224,-5.75538l0.0404,0.05973c0.32855,-0.80441 0.78814,-1.6336 0.98053,-2.39163c1.40362,-5.53043 3.95819,-10.55252 5.9423,-15.85827c0,0 0.16668,-0.44448 0.5462,-0.89484l-0.45765,-0.61593c-0.36303,-3.67814 -0.53467,-7.70405 0.29717,-11.34881c0.37856,-1.65867 1.1241,-3.20374 1.79719,-4.77359c0.24894,-1.16154 0.54506,-2.29237 0.85841,-3.3629c0.00983,-0.3615 0.06206,-0.69423 0.28043,-0.92893c0.13954,-0.44895 0.28067,-0.88486 0.42094,-1.30529l0.06663,-0.06035l-0.03773,-0.01509l0.97621,-2.44052c0.02073,-0.05552 0.0432,-0.11019 0.06735,-0.16395c-0.03256,-5.61944 -0.02911,-10.71691 2.2138,-16.16374c0.4526,-1.09913 0.56836,-2.42299 1.38625,-3.28554c0.06902,-0.07279 0.13926,-0.14419 0.21062,-0.21429l-0.0538,-0.03766l1.72793,-2.46848c0.25596,-0.37603 0.6027,-0.6853 1.00872,-0.89628c-0.30512,-0.44292 -0.48376,-0.97971 -0.48376,-1.55822c0,-0.10496 0.00588,-0.20854 0.01733,-0.31044l0.24632,-2.46319l0.07796,0.0078l-0.05505,-0.18106c1.37554,-5.99196 4.17349,-11.10794 6.10022,-16.90957c0.47808,-1.43957 0.85353,-3.05268 1.24766,-4.69006c-0.34493,-0.44949 -0.67315,-0.90817 -1.00008,-1.30125c-2.15011,-2.58519 -2.91974,-6.1456 -2.05618,-9.30295c-0.32338,-0.82895 0.16809,-2.14283 -0.23462,-3.01827c-0.20844,-0.45312 -0.93187,-0.38805 -1.32523,-0.69469c-0.4933,-0.38454 -1.12705,-0.89772 -1.75227,-1.50262c0.31841,-0.07351 0.63723,-0.15075 0.95377,-0.23316l-1.66436,-1.66437l0.87272,-0.87272l-1.25255,-1.97632c-2.4915,0.56871 -4.94874,1.62074 -7.37716,1.59925l-0.00002,-0.00002c-1.77035,-0.01566 -3.52607,-0.27483 -5.28195,-0.53132c-0.03497,0.04574 -0.07121,0.08957 -0.10853,0.13157l1.57247,1.28231c-2.18612,0.84837 -4.22024,2.72425 -6.55835,2.54511c-1.04723,-0.08024 -2.51592,-1.23935 -3.7815,-2.73431c-1.49432,-0.6977 -2.8878,-1.60868 -3.53865,-2.92102c-0.93069,-1.87659 -0.6692,-4.13561 -1.00379,-6.20341l4.67287,0.83746c0.80905,-0.35435 1.67424,-0.64465 2.41951,-0.97929c0.1509,-0.06776 0.30678,-0.13107 0.46721,-0.19022c2.1346,-2.8775 6.11147,-1.67056 8.93335,-2.15104c3.35244,-0.57082 5.77159,-2.53668 8.72616,-4.01323c1.38106,-0.69018 2.98155,-1.06403 4.13095,-2.09484c0.18022,-0.16162 0.35947,-0.32445 0.5378,-0.48841c0.03585,-0.08925 0.07235,-0.17877 0.10943,-0.2685c0.52063,-1.25973 1.55838,-2.22438 2.40543,-3.30418c0.00288,-0.03419 0.00612,-0.06838 0.00972,-0.10256c0.06935,-0.6582 1.04658,-1.1771 0.83153,-1.80303c-0.28519,-0.83011 -1.60324,-0.91144 -2.02802,-1.67954c-0.44085,-0.79717 -0.51426,-1.73945 -0.62383,-2.65774c-2.34313,-0.77474 -4.67148,-1.67433 -7.03396,-2.33745c-0.13481,-0.01628 -0.26989,-0.03052 -0.4053,-0.04239c0,0 -0.5495,-0.04995 -1.13384,-0.35125c-0.29788,-0.06808 -0.59647,-0.13123 -0.89584,-0.18874c-0.99067,-0.1903 -2.02498,-0.32517 -3.08308,-0.43676c-0.60015,0.23804 -1.13826,0.23804 -1.13826,0.23804l-1.99897,-0.01129c-4.50282,-0.41365 -8.24556,-0.66909 -12.73005,-0.25209c-1.00268,0.09324 -2.01398,0.01338 -3.02098,0.01338c-0.82022,0 -1.79597,0.46547 -2.46408,-0.00272l-2.19091,0.43818c-0.1916,0.04226 -0.3907,0.06454 -0.595,0.06454c-1.51878,0 -2.75,-1.23122 -2.75,-2.75c0,-1.35177 0.97532,-2.47573 2.26064,-2.70659l2.45004,-0.49001l0.00016,0.0008l0.02351,-0.00542c0.08498,-0.01252 0.1677,-0.02519 0.24827,-0.03804c0.0093,-0.00454 0.03415,-0.00844 0.0728,-0.01176c2.12484,-0.34751 2.72616,-0.83502 3.7932,-2.17877l0.00419,-0.1985l-0.18725,0.06809l-0.97823,-2.69012c-0.12096,-0.30984 -0.18734,-0.64701 -0.18734,-0.99967c0,-0.86767 0.40184,-1.64149 1.02958,-2.1455c0.43119,-2.66512 2.4536,-5.24368 4.92256,-6.97749c0.50142,-0.6508 1.16104,-1.12156 1.9033,-1.42943c-0.52722,-0.27621 -0.99778,-0.61686 -1.34054,-1.09544c-1.35864,-1.89702 -1.24866,-3.45055 -0.52975,-4.85659l-0.11918,-0.03575l0.73225,-2.44082c0.15597,-0.56703 0.48893,-1.06075 0.93576,-1.41801c-0.00557,-0.08578 -0.00981,-0.17222 -0.01269,-0.25933c-0.05303,-1.60592 -0.13249,-3.55404 0.97154,-4.72148c0.82377,-0.87108 2.10513,-1.03827 3.36806,-1.17688c0.02849,-0.07129 0.0571,-0.14282 0.08581,-0.21461c0,0 0.77603,-1.94008 2.66632,-1.76152c0.21137,-0.71304 0.70406,-1.30515 1.34946,-1.64774l2.20198,-1.22332l0.0498,0.08963c0.12755,-0.10049 0.25902,-0.19651 0.39493,-0.28743c0.75767,-0.50684 1.72436,-0.48147 2.66875,-0.51731c0.33845,-0.43032 0.69662,-0.6691 0.69662,-0.6691l0.93991,-0.61579c7.34404,-4.02671 14.38797,-3.02584 21.44617,1.01414c0.02435,0.01394 0.04882,0.02773 0.07341,0.04138c0.13626,-0.278 0.33733,-0.56208 0.6214,-0.84615c1.94454,-1.94452 3.88908,0.00001 3.88908,0.00001l0.18283,0.18372c0.16587,-0.4032 0.46794,-0.81066 0.97263,-1.18917c0.43577,-0.32682 0.84995,-0.5026 1.23402,-0.57434c-0.03593,-0.0429 -0.07194,-0.0859 -0.10797,-0.12901c0.0496,-0.05116 0.10281,-0.10017 0.15975,-0.14691c1.76321,-1.44758 3.25772,-1.80698 4.54211,-1.53519c1.05477,-2.83914 3.68139,-6.50617 6.23426,-7.32547c0.2374,-0.07619 0.47177,-0.13335 0.70339,-0.17371l0.7555,-2.26649c0.34559,-1.12372 1.39187,-1.94053 2.62893,-1.94053c1.35177,0 2.47573,0.97532 2.70659,2.26064l0.49001,2.45004l-0.17752,0.0355c0.09211,0.28697 0.15894,0.58171 0.1935,0.88636l1.2808,0.12808c0.59517,0.05219 1.13596,0.29398 1.56162,0.6646c1.31754,-0.29014 2.62014,-0.67725 3.94803,-0.91411l0.24697,0.07883v-0.08995h3c1.51878,0 2.75,1.23122 2.75,2.75c0,0.91114 -0.44312,1.71879 -1.1256,2.2192l-1.9744,1.4808l-1.42016,0.75967c0,0 -2.37613,1.18807 -3.62525,-1.10667c-1.1335,0.28341 -2.26886,0.55039 -3.4299,0.64144c-0.96236,0.07547 -1.93618,-0.00061 -2.91479,-0.12864c-1.26158,0.51526 -2.55569,0.51462 -3.89888,-0.55084c-0.45476,-0.04221 -0.90866,-0.06719 -1.36102,-0.06497c0,0 -0.12877,0 -0.33057,-0.02786c-0.5409,0.84758 -1.00614,1.77318 -1.16255,2.29895c0.00551,0.23354 0.01375,0.47705 0.02253,0.72802c0.12936,0.39846 0.35893,0.79906 0.20002,1.15859l0.20857,1.39047c0.14658,0.2132 0.2888,0.41512 0.42721,0.60141l-0.24436,0.6176l0.03492,0.23282h0.34423v1.23398c1.86834,0.53987 3.75739,1.19451 5.57615,1.46884c0.3117,-0.04782 0.62244,-0.10079 0.93191,-0.15846c0,0 0.11838,-0.02152 0.31011,-0.0308c0.14418,-0.07597 0.2881,-0.1566 0.43181,-0.24108l0.03,-0.17999c0.1969,-1.32554 1.3397,-2.34249 2.72002,-2.34249c0.2676,0 0.52628,0.03822 0.77087,0.10951c0.87314,-0.56949 1.75447,-1.0388 2.65582,-1.22851c0.03565,-0.0075 0.07133,-0.01481 0.10704,-0.02191l-0.01355,-0.0271l2.45052,-1.22526c0.38215,-0.2012 0.81744,-0.31507 1.27932,-0.31507c1.51878,0 2.75,1.23122 2.75,2.75c0,0.89251 -0.42518,1.68572 -1.08404,2.18812l-0.77661,0.60403c0.64,2.88779 -1.43136,7.43354 -2.65666,8.59333l0.00003,-0.00002c-1.83097,1.73306 -6.99681,1.22193 -9.34699,1.11216c-5.62677,-0.26282 -12.67912,-0.22191 -17.62103,-2.7907c-1.12495,-0.58475 -2.46646,-0.88773 -3.4831,-1.61494c-0.44995,0.11462 -0.9131,0.25108 -1.39792,0.41347c-1.49054,0.87611 -3.22458,2.2857 -5.03242,3.54495c5.29477,3.09311 11.04679,5.14772 16.51642,7.80974l0.05049,-0.32818l3.20779,0.49351c1.34092,0.18331 2.37405,1.33326 2.37405,2.72452c0,1.51878 -1.23122,2.75 -2.75,2.75h-2.5c-2.81522,0 -6.2678,0.52365 -9.02005,-0.04962l-0.00001,-0.00003c-1.98586,-0.41364 -3.71417,-1.36208 -5.36425,-2.47483c-0.4536,0.32987 -1.01193,0.52445 -1.6157,0.52445c-0.75939,0 -1.44689,-0.3078 -1.94454,-0.80546l-1.22658,-1.22658c-0.30554,-0.04696 -0.59451,-0.1442 -0.85818,-0.28302l-3.45052,-1.72526c-1.22465,-0.76938 -2.91248,-1.10118 -3.84,-2.15128c-0.6939,-0.47506 -1.33117,-1.02679 -1.94092,-1.61301c-0.75851,-0.20324 -1.47086,-0.48453 -2.07948,-0.79407zM219.76489,94.34722c0.20843,0.17332 0.41019,0.3574 0.60478,0.5529c0.20377,-0.17053 0.42496,-0.32348 0.65847,-0.46372c-0.41633,-0.0424 -0.83718,-0.0724 -1.26325,-0.08918zM335.03244,75.16031c-0.11394,0.03685 -0.2262,0.07279 -0.33608,0.10756c0.01473,0.03601 0.02871,0.0724 0.04194,0.10915c0.09853,-0.07148 0.1966,-0.14365 0.29414,-0.21671z"></path><path d="M197.43814,292.32457l0.77856,1.28823l1.22737,3.19117c0.13272,0.32246 0.20593,0.67569 0.20593,1.04602c0,1.51878 -1.23122,2.75 -2.75,2.75c-0.83082,0 -1.57558,-0.36843 -2.07983,-0.95082l-1.73976,-1.9883c-0.46195,-0.53917 -0.91769,-1.08358 -1.36912,-1.6316l-2.05123,-1.36749c-0.75818,-0.48965 -1.26006,-1.34211 -1.26006,-2.3118c0,-1.26566 0.85503,-2.33162 2.01897,-2.65178l2.44082,-0.73225c0,0 0.03458,-0.01037 0.097,-0.02478c1.65326,-2.145 2.73618,-5.27997 4.05393,-8.13298c-0.67404,-0.5012 -1.11072,-1.30371 -1.11072,-2.20821c0,-0.6291 0.21124,-1.20886 0.56667,-1.67222l1.34774,-1.79699c2.6428,-5.89037 5.34254,-11.85012 6.96621,-18.15073c0.17927,-0.69564 0.32969,-1.39846 0.47599,-2.10226c-0.32751,-2.453 -0.63079,-5.04255 -0.33895,-7.33898c0.69879,-5.49879 3.75179,-11.18307 5.64264,-16.364c2.79108,-7.6476 4.38995,-15.96722 5.62168,-23.99297c0,0 0.41816,-2.71802 3.13618,-2.29986c0.47191,0.0726 0.84929,0.21453 1.15072,0.39953c0.16654,-0.80531 0.73573,-2.18151 2.68112,-2.18151c2.75,0 2.75,2.75 2.75,2.75l-0.01365,2.27364c-0.62603,6.25961 -2.14795,11.6554 -4.12747,17.59599c-0.17962,0.53904 -1.77423,5.54525 -2.23286,6.01495c-0.09474,0.09703 -0.19154,0.19165 -0.29018,0.28409l0.06156,0.04925l-0.89739,1.12174v2.41035c-0.00141,0.229 -0.00502,0.45843 -0.01066,0.68823c0.72089,5.92678 2.48453,10.85601 5.05656,16.5221l0.0087,0.11072l0.02983,-0.01085l0.90696,2.49415c0.82356,-0.17359 2.16093,-0.1489 2.96828,1.46581c1.22984,2.45967 -1.22984,3.68951 -1.22984,3.68951l-2.99822,1.19779l-1.597,1.597c-2.00308,3.49165 -3.66549,6.84144 -4.66845,10.67556c-0.33595,1.28429 -0.37368,2.78637 -0.64637,4.13605l0.89205,0.35682c1.04443,0.38998 1.78815,1.39669 1.78815,2.5771c0,1.51878 -1.23122,2.75 -2.75,2.75c-0.1867,0 -0.36906,-0.01861 -0.54531,-0.05406l-2.69662,-0.49029c-1.11949,-0.22847 -2.30109,-0.25249 -3.35847,-0.6854c-1.33154,-0.54516 -2.37052,-1.87659 -3.79893,-2.04939c-0.71514,-0.08651 -1.46015,-0.14123 -2.22014,-0.17765c-0.50757,0.6056 -0.95542,1.25847 -1.05401,1.42302c-2.04949,3.42077 -2.7392,7.16855 -5.10989,10.41108c0.04716,0.06074 0.07151,0.09727 0.07151,0.09727zM211.17015,244.55799c0.00028,0.00018 0.00055,0.00037 0.00083,0.00055c-0.00013,-0.00067 -0.00026,-0.00135 -0.00039,-0.00202c-0.00015,0.00049 -0.00029,0.00098 -0.00044,0.00147zM211.66205,274.97938c-0.11117,-0.49853 -0.17112,-0.9792 -0.18754,-1.44664c-0.27507,0.67987 -0.45597,1.19898 -0.39991,1.26966c0.12531,0.15796 0.36017,0.16327 0.58744,0.17699z"></path><path d="M276.56697,295.76789c-0.83201,0.208 -1.46942,0.09167 -1.95268,-0.16694c-4.04214,1.76867 -10.42384,-0.14939 -11.1995,-4.46615c-0.26201,-1.45813 0.68305,-2.91964 1.39029,-4.22141c1.07235,-1.97381 2.12103,-2.63023 3.55177,-3.39284c0.01395,-0.02286 0.02833,-0.04563 0.04315,-0.06831c0,-1.90749 0,-4.18549 0,-5.35224c0,0 0,-0.05373 0.00751,-0.14618l0.04589,-0.89314c0.72792,-3.60297 2.63945,-7.05688 2.95771,-10.70765c0.23614,-2.70873 -0.37945,-5.43342 -0.50829,-8.12842c-0.06998,-1.46382 0.73214,-3.17037 -0.07143,-4.39591c-0.41098,-0.6268 -1.49098,-0.5242 -1.95299,-1.1144c-3.13902,-4.01 -1.50931,-6.59331 0.61766,-10.44983c0,0 1.33552,-2.40393 3.73945,-1.06841c0.64341,0.35745 1.01894,0.79143 1.22389,1.23537l1.32096,-0.44032l0.02,0.06c0.75016,-0.32763 1.52634,-0.53835 2.31803,-0.54042c0.55379,-4.31168 1.03525,-8.62253 1.82211,-12.88102c0.70635,-3.82274 0.82221,-9.93699 3.84383,-12.93189c0.07159,-0.07096 0.14453,-0.14024 0.21871,-0.20799l-0.05307,-0.0398l1.4808,-1.9744c0.50041,-0.68249 1.30806,-1.1256 2.2192,-1.1256c1.51878,0 2.75,1.23122 2.75,2.75c0,0.10496 -0.00588,0.20854 -0.01733,0.31044l-0.23621,2.36206c-0.01168,2.83237 -0.50645,5.47376 -0.53817,8.30462c-2.57207,7.3457 -5.47864,13.71352 -4.48307,21.65451c0.23755,1.89478 0.65936,3.76786 1.16774,5.60856c0.29719,1.07606 1.1911,2.0568 1.08574,3.16817c-0.17911,1.88944 -0.12413,4.68653 -1.89504,5.36912c-1.8723,0.72167 -3.92883,-1.23758 -5.46035,-2.53402c-0.42825,-0.36251 -0.76864,-0.77121 -1.03822,-1.21559c-0.18112,1.85996 -0.41263,3.75499 -0.59848,5.7431c-0.36258,3.87864 -1.21035,7.11817 -2.06018,10.86084c-0.32406,1.42717 -0.43526,2.92784 -0.6391,4.41138c0.91722,-0.4995 1.89439,-0.96165 3.01678,-1.37541c0.81111,-0.29901 4.75411,-2.02204 5.54655,-1.88864c0.13376,0.02252 0.26685,0.04756 0.39934,0.07493v-0.10408h4c1.51878,0 2.75,1.23122 2.75,2.75c0,1.43677 -1.10183,2.61619 -2.50662,2.73938l-2.27313,0.22731c-3.58333,1.07749 -6.54761,3.58604 -9.57413,5.73712c0.01971,0.01884 0.03932,0.03782 0.05882,0.05694c0.73607,0.72141 0.61938,1.96603 0.92908,2.94905l0.53387,2.12323c0,0 0.66697,2.66789 -2.00092,3.33486zM272.14065,290.54681c-0.1549,-0.1542 -0.31617,-0.30229 -0.47439,-0.45331l-0.06957,0.02783l-0.02124,-0.05309c-0.79012,0.1782 -1.56024,0.2109 -2.2498,-0.08842c-0.27472,0.30939 -0.65459,0.74263 -0.37804,0.69558c0.99304,-0.16897 2.02391,-0.43038 3.01258,-0.23747c0.05057,0.00987 0.11599,0.05419 0.18046,0.10889zM273.86022,249.10395l-1.42241,-0.99569c-0.02004,0.08996 -0.03568,0.18132 -0.04642,0.27426c-0.08453,0.73168 0.68865,1.06058 1.49752,1.41024c-0.00821,-0.22917 -0.01776,-0.45877 -0.02869,-0.68881z"></path><path d="M247.96758,102.34394c-3.13341,0.44755 -10.10361,-2.16577 -12.73783,-3.63908c-1.64668,-0.92098 -3.16633,-2.81301 -4.82643,-4.28829c-3.16105,-0.13686 -6.24643,0.3931 -9.10887,1.68398c-0.16577,0.07476 -0.34605,0.13719 -0.53536,0.19197c-0.39842,0.84505 -0.54707,1.66548 -0.02783,2.34879c1.35481,1.78289 4.1583,2.44913 5.75707,3.96375c1.16664,1.10524 3.31592,2.04194 3.15973,3.64138c-0.02718,0.2783 -0.08816,0.5521 -0.17804,0.81927c1.3121,0.66277 2.60725,1.35809 3.85446,2.14223l3.28738,1.31495c1.04443,0.38998 1.78815,1.39669 1.78815,2.5771c0,1.51878 -1.23122,2.75 -2.75,2.75c-0.29718,0 -0.58334,-0.04714 -0.85143,-0.13434l-2.43878,-0.73163l0.06128,-0.20426l-0.44173,0.05863c-0.35139,-0.22965 -0.70644,-0.45288 -1.06459,-0.67064l-1.28607,-0.51443l0.03195,-0.07989c-0.07196,0.00245 -0.14442,0.00176 -0.2174,-0.00235c-1.15587,-0.06509 -1.95697,-1.24764 -3,-1.75c-0.55442,-0.26703 -1.11269,-0.52868 -1.67049,-0.78992c-3.40762,0.82512 -5.86977,-1.70624 -8.14913,-3.58188c-1.19086,-0.97994 -2.41022,-2.32108 -3.49391,-3.86499c-1.48914,-1.20303 -3.01026,-2.3553 -4.66154,-3.05074l-0.99082,2.1438l0.6172,0.6172l-1.61289,1.61289c-0.22258,0.89592 -0.26496,1.87139 -0.7504,2.65126c-0.38751,0.62252 -1.32847,0.71872 -1.77351,1.3015c-0.67715,0.88673 1.25332,1.85972 1.70779,2.87868c0.2977,0.66747 0.14741,1.51135 0.54716,2.12318c1.3528,2.07054 3.80021,3.68418 4.74155,6.23695c0.00345,0.00936 0.0069,0.01873 0.01033,0.0281l0.0055,-0.0035l1.72793,2.71532c0.21981,0.3336 0.36893,0.71791 0.42603,1.1316c4.32617,1.13559 8.7412,2.02579 12.88531,3.86317c1.42233,0.63062 3.78011,1.55961 5.51657,2.76762c0.80884,0.01586 1.60888,0.00164 2.37409,-0.0013c0,0 0.19709,0 0.48575,0.05276c2.77392,-2.35363 6.3301,-3.28222 10.19054,-1.5385c0.8095,0.36564 1.56307,0.90734 2.18364,1.56062c0.20538,-0.04896 0.41971,-0.07488 0.64008,-0.07488c0.39671,0 0.7738,0.084 1.11446,0.23519l2.92535,1.21889c4.70824,0.64514 9.27386,5.54955 13.8524,2.56255l2.15012,-1.67231c0.46908,-0.3721 1.06243,-0.59433 1.70768,-0.59433c1.51878,0 2.75,1.23122 2.75,2.75c0,0.72983 -0.28431,1.39326 -0.74821,1.88557l-3.74557,3.99527l-0.02824,-0.02648c-0.0331,0.05169 -0.06646,0.10323 -0.10008,0.15462c-0.1878,0.28702 -0.41402,0.54432 -0.66535,0.77941c1.30896,-0.19645 2.57532,-0.19109 3.64014,0.47691c0.25385,0.15925 0.48273,0.65135 0.68786,1.30929c0.57538,0.22916 1.15377,0.57117 1.73699,1.0771c1.99491,1.73056 3.69719,7.20836 2.33135,9.71793c-0.14097,0.25902 -0.30831,0.49567 -0.49632,0.71479l0.08745,0.06558l-1.4808,1.9744c-0.50041,0.68249 -1.30806,1.1256 -2.2192,1.1256c-0.44752,0 -0.87006,-0.1069 -1.2435,-0.29655c-0.16417,0.03057 -0.33347,0.04655 -0.5065,0.04655c-0.96969,0 -1.82215,-0.50189 -2.3118,-1.26006l-1.47634,-2.21451l0.10344,-0.06896l-0.28567,-0.24825c-0.3795,-1.11286 -0.75901,-2.22573 -1.13851,-3.33859c0,0 -0.35709,-1.07128 0.07285,-2.06971c-0.35662,-0.18115 -0.72376,-0.35476 -1.09187,-0.52995c-1.61499,0.11643 -3.25731,-0.12519 -4.11091,-0.70784c-1.50167,-1.02499 -2.22872,-3.43682 -3.23106,-5.45059c-0.2862,-0.39588 -0.5987,-0.78361 -0.95845,-1.15432c-0.06507,0.10791 -0.13495,0.2136 -0.21009,0.31689c-0.96228,1.32261 -2.99707,1.32069 -4.54414,1.85159c-1.57699,0.54117 -4.27767,1.51391 -6.78915,1.9329c-0.33892,0.35455 -0.71603,0.65165 -1.17164,0.83348c-0.35089,0.14004 -0.69139,0.26497 -1.02141,0.37363c1.16112,0.87669 2.40886,1.67839 3.30802,2.27138c0.7601,0.11872 2.35674,0.6175 2.35674,2.71291c0,2.75 -2.75,2.75 -2.75,2.75l-2.07702,-0.49711c-1.63937,-1.15108 -3.57211,-2.46411 -5.24004,-3.96959l-0.9146,1.82919c-0.22568,1.23213 -1.01738,2.30162 -1.34028,3.51236c-0.00262,0.00984 -0.00524,0.01969 -0.00785,0.02954c-0.28023,3.06399 0.17197,6.31874 0.07978,9.34561c-0.0184,0.60424 -0.47623,2.01302 0.11669,2.75h2.13331c1.51878,0 2.75,1.23122 2.75,2.75c0,1.13493 -0.68751,2.10928 -1.66878,2.5293l-2.06392,0.93814c-2.52037,4.98802 -8.92584,11.09866 -13.67442,4.11233c-1.68508,-2.47917 0.30611,-5.73897 -0.45176,-8.21015c-0.39817,-1.2983 -2.09465,-1.78709 -2.83566,-2.92508l-2,-2c-0.0141,-0.0141 -0.02805,-0.02835 -0.04184,-0.04276c-4.39655,0.88813 -8.97773,1.30218 -12.4972,4.14233l-2.4309,1.35981c0,0 -2.40393,1.33552 -3.73945,-1.06841c-1.33552,-2.40393 1.06841,-3.73945 1.06841,-3.73945l2.0691,-1.14019c5.91893,-4.46981 13.70811,-3.24966 19.89581,-6.83998c1.53821,-0.89253 2.34088,-2.68874 3.34342,-4.15763c2.34418,-3.43462 4.1907,-6.93293 6.3149,-10.52743c-0.91904,-1.45337 -1.96178,-2.89336 -1.66972,-4.47775c0.03333,-0.18082 0.0893,-0.34913 0.1646,-0.50645c0.02422,-0.14501 0.06232,-0.28642 0.11211,-0.42478c-1.45875,-0.54537 -2.86259,-1.17674 -4.24156,-1.84056c-0.36046,-0.13082 -0.71849,-0.27778 -1.07381,-0.44292c-0.40252,-0.18707 -0.78499,-0.41518 -1.15886,-0.66033c-1.63351,-0.82019 -3.25472,-1.64517 -4.91561,-2.3823c-2.51123,-0.4439 -5.04842,-0.08819 -7.61916,-0.19814c-5.5776,-0.23854 -10.92155,-1.24441 -16.5227,-1.25104l-0.1312,-0.0647l-0.00545,0.05446l-2.46975,-0.24697c-1.40478,-0.12319 -2.50662,-1.30261 -2.50662,-2.73938c0,-1.09781 0.64327,-2.04537 1.57345,-2.48632l1.1836,-0.5918c-0.10221,-2.59644 0.55868,-5.89635 1.06651,-7.3037c0.32294,-0.89495 0.39504,-2.09018 0.7381,-3.00835c-0.07792,-1.76255 0.09072,-3.53882 0.19837,-4.84463c0.47923,-5.81289 -0.72607,-11.07253 6.66756,-12.74623c0.19007,-0.04303 0.38096,-0.06076 0.57246,-0.05972c0.59228,-1.13217 1.96062,-1.40584 1.96062,-1.40584c0.14839,-0.0274 0.29553,-0.0524 0.44146,-0.07504c1.20604,-2.82374 6.12173,-5.36208 8.91303,-6.58366c0.66375,-0.61134 1.47971,-1.15404 2.46651,-1.6101c1.46725,-0.67811 3.1908,-0.51905 4.78621,-0.77857c6.5343,-0.01149 12.34135,1.31259 18.5807,3.39491c0.6135,0.20475 1.23551,0.42614 1.86047,0.66213c0.30331,-0.94358 0.43995,-1.99533 1.11494,-2.69765c0.09391,-0.09771 0.18996,-0.19293 0.28795,-0.28588l-0.05933,-0.04746l1.98413,-2.48016c0.50349,-0.64053 1.28533,-1.05193 2.16326,-1.05193c1.51878,0 2.75,1.23122 2.75,2.75v2.39713c0.15972,1.61787 0.01921,3.27954 0.39786,4.86036c0.08574,0.35794 0.20474,0.69326 0.35292,1.00626c1.63243,1.00825 3.42784,2.01454 5.29356,1.9866c3.28628,-0.04921 5.16541,-1.41095 7.86173,-2.71169l1.10761,-2.21522c0.44095,-0.93018 1.38851,-1.57345 2.48632,-1.57345c1.51878,0 2.75,1.23122 2.75,2.75c0,0.42694 -0.09729,0.83117 -0.27092,1.1917l-1.22557,2.69626l-0.10014,-0.04552l-0.1937,0.3874l-0.1614,-0.0807l-0.00229,0.03931c0.02531,0.08096 0.04032,0.16647 0.0433,0.25731c0.03396,1.03678 -1.13813,1.75432 -1.87777,2.48165c-2.12104,2.08575 -3.33961,2.69102 -6.1893,3.27255c-2.55327,0.52104 -5.19228,0.41968 -7.56205,-0.32564l-2.31563,0.12188l-0.0028,-0.05329c-0.1077,0.0185 -0.21574,0.03555 -0.32415,0.05103z"></path><path d="M314.81742,105.33367c1.27373,-2.70052 2.47043,-5.43121 3.51135,-8.20902c1.81242,-4.83662 2.81202,-10.52391 5.16056,-15.09798c1.38836,-2.70401 2.65575,-4.75166 3.67625,-7.67801c0.10195,-0.79688 0.51676,-1.314 0.97312,-1.6471c0.51545,-0.47337 1.29522,-0.82887 2.41664,-0.52523c2.81,-2.02769 5.97148,-3.48561 8.94244,-5.19198c1.92038,-1.10297 5.39316,-1.5995 7.0379,-3.15594c1.21089,-1.14589 1.64428,-2.90066 2.47765,-4.34455c1.43657,-2.48896 3.35611,-4.01306 4.33335,-6.65518c0,0 1.02132,-2.55331 3.57464,-1.53199c2.55331,1.02132 1.53199,3.57464 1.53199,3.57464c-0.79815,1.89941 -2.11528,3.54912 -3.38575,5.17106c-1.67837,2.14269 -2.38458,5.05884 -4.16105,7.15572c0.24348,0.60561 0.24348,1.1519 0.24348,1.1519l-0.68041,2.06089c-0.06971,0.07954 -2.64879,2.95643 -2.84922,3.39733c-0.40719,0.89575 -0.3254,1.97873 -0.79725,2.84217c-2.21477,4.05282 -6.58127,6.91238 -9.06307,10.9632c-5.37161,4.76279 -7.55079,11.77246 -11.99758,17.2471c-0.69413,0.85457 -1.74171,1.36925 -2.4613,2.2025c-2.23385,2.58669 -2.75851,6.96321 -4.53811,9.94341c-3.14432,5.26561 -6.47231,10.30258 -9.45912,15.67893c0,0 -0.46552,0.83794 -1.3416,1.24954c-0.77243,1.9171 -1.7096,3.751 -2.85143,5.30031c-0.45556,0.61813 -0.97115,1.18996 -1.49873,1.75215c-1.27294,2.0871 -2.63111,4.13877 -4.10813,6.07898c-0.53726,1.32448 -1.04463,2.66546 -1.83871,3.84261c-2.45518,3.63957 -5.85396,6.95968 -8.61561,10.40589c-2.08775,2.60527 -4.04259,5.35776 -5.95402,8.14584c0.5937,1.0778 0.13874,2.32895 0.13874,2.32895c-1.70111,4.67807 -1.90397,9.44742 -5.39087,13.0066c0.00761,0.09997 0.01551,0.19995 0.02369,0.29994l0.24533,-0.04423c0,0 -0.04528,0.27165 -0.19314,0.6287c0.38788,3.94173 2.01894,14.60563 -5.95585,12.40012c-0.42657,-0.11797 -1.20284,-2.60388 -1.78855,-4.83243c-0.07363,0.06583 -0.15092,0.12823 -0.23227,0.18682c-5.40438,3.89143 -8.18707,0.18722 -10.33085,-3.90581c-0.99566,-0.70934 -1.87696,-1.55981 -2.4523,-2.76306c-0.35693,-0.74648 -0.53491,-1.62688 -0.59934,-2.56619c-0.7061,-0.6113 -1.54623,-1.14857 -1.52627,-2.0022c0.00873,-0.37343 0.06253,-0.73751 0.14983,-1.09465l-0.27021,-0.02702l0.24697,-2.46975c0.11132,-1.26948 1.08521,-2.29155 2.33209,-2.47667c0.00014,-0.10157 -0.01515,-0.20177 -0.05239,-0.30012c-0.13743,-0.36297 -0.73381,-0.26239 -1.07479,-0.44775c-1.30657,-0.71029 -5.15356,-3.06004 -5.78081,-4.04818c-1.71497,-2.70169 -0.71275,-6.59067 -0.42107,-9.50754c0,0 0.27364,-2.73635 3.00999,-2.46272c2.73635,0.27364 2.46272,3.00999 2.46272,3.00999c-0.09745,0.97449 -1.13313,5.05478 -0.42107,5.99246c1.69316,2.22967 5.77351,2.05112 7.14439,5.00406c1.06605,2.29632 -0.05178,5.10162 -0.46013,7.6393c1.52414,2.0383 4.09843,4.24301 4.95046,6.44054l0.23742,0.31656c0.61785,-1.24063 1.24091,-2.64284 1.25627,-2.68033c0.32302,-0.78893 0.50781,-1.57596 0.61505,-2.36683c-0.07155,-2.98953 -0.07611,-5.99314 -0.30181,-8.92445c-0.13188,-1.71288 -1.3363,-3.62297 -1.02213,-5.20877c-0.17608,-0.44944 -0.3341,-0.90493 -0.46045,-1.37116l0.15592,-0.36502h-0.18025v-2.5c0,-1.51878 1.23122,-2.75 2.75,-2.75c1.30873,0 2.40393,0.9142 2.68184,2.13883l0.73605,2.94419l-0.05567,0.01392c0.0337,0.06418 0.06676,0.12874 0.09914,0.19372c0.29329,0.58841 0.25948,1.26802 0.24383,1.9446c0.05017,0.1 0.10055,0.19992 0.15084,0.29987c0.20664,-0.24661 0.40248,-0.49992 0.57684,-0.76616c2.08986,-3.19107 4.61151,-6.66394 6.38331,-10.04923c2.44614,-4.67372 5.83306,-8.27366 8.6207,-12.70702c4.66874,-7.425 9.40453,-14.33044 12.57496,-22.43387c1.83571,-3.29551 3.82032,-5.27244 6.71194,-7.48533c0.53795,-2.54623 3.30191,-5.79122 4.30581,-7.36623c0.63236,-0.99211 1.26073,-1.99101 1.88783,-2.99361z"></path><path d="M269.10968,84.57984c-1.22984,2.45967 -3.68951,1.22984 -3.68951,1.22984l-0.77016,-0.70967c-4.32862,0 -11.79346,1.43475 -13.71906,-4.33862c-0.51219,-1.53565 1.59965,-2.81484 2.39947,-4.22227c0,0 1.81089,-2.06959 3.88047,-0.2587c1.46463,1.28155 0.98581,2.69267 0.58074,3.40812c2.2616,-0.23597 4.59224,-0.08854 6.85837,-0.08854l3.22984,1.29033c0,0 2.45967,1.22984 1.22984,3.68951z"></path></g><g fill-opacity="0.1098" fill="#f2d6ff" stroke-width="0.5"><path d="M203.22993,121.83932c-0.11814,0.59069 -0.33979,1.02611 -0.61393,1.34594c1.60346,0.59853 3.18885,1.25502 4.79527,1.84197c2.75972,1.00835 5.90869,1.12921 8.63325,2.22148l5.28817,1.00727c1.29684,0.22136 2.28399,1.35074 2.28399,2.71068c0,1.15647 -0.71386,2.14622 -1.72497,2.55261l-2.27508,0.97503l-0.09408,-0.21952l-0.43627,0.38571c-3.62686,0.0526 -7.61217,0.11833 -11.17778,-0.68243c-3.18231,-0.71469 -5.22631,-2.41872 -7.85603,-4.02752c-2.55818,-1.56504 -5.3278,-2.76096 -7.91342,-4.28023c0,0 -0.30758,-0.18093 -0.63597,-0.52323c-0.61429,-0.47734 -1.01482,-1.05644 -1.02141,-1.76439c-0.0549,-5.89946 5.30591,-5.04336 8.38502,-5.16603l2.20599,0.38674c0,0 2.6966,0.53932 2.15728,3.23592z"></path><path d="M198.05876,301.2548c-2.28814,1.52543 -3.81356,-0.76271 -3.81356,-0.76271l-0.8057,-1.41282c-0.85623,-0.77244 -1.97902,-1.32631 -2.56869,-2.31731c-2.85539,-4.79879 -0.07331,-9.13521 1.37511,-13.62848c0.39829,-1.23557 0.27361,-2.641 0.86281,-3.79777c1.33425,-2.61951 4.50965,-4.79258 6.05309,-7.42799c1.82754,-3.12051 3.38732,-6.01256 5.38658,-9.08697c0.84959,-1.30647 3.01663,-5.90675 4.06604,-6.68795l0.02555,-0.04046c-1.68244,-1.35721 -3.05279,-2.96549 -3.63668,-4.38129c-0.59884,-1.45208 -0.74464,-7.03216 -0.47975,-8.37622c0.19217,-0.97505 1.11658,-1.69678 1.33333,-2.66667c0.58739,-2.62841 -1.87675,-7.43385 2.91578,-8.67755c0.68989,-0.17903 1.36211,-0.04688 2.00944,0.2651c1.65912,-6.24532 3.8477,-12.37027 5.04831,-18.79585c0,0 0.50679,-2.7029 3.20969,-2.19611c2.7029,0.50679 2.19611,3.20969 2.19611,3.20969c-1.04079,5.53257 -2.29881,11.29894 -4.08125,16.65688c-0.64102,1.92688 -1.22706,3.72619 -1.73821,5.55718c1.41117,2.52077 2.0509,6.60321 2.99056,8.89343c1.07266,2.61437 1.79025,5.26812 2.2389,8.01121l0.29814,0.24845c0.38767,0.31845 0.6867,0.74085 0.85447,1.2246c1.45545,1.96639 -0.45463,3.6377 -0.45463,3.6377c-0.26115,0.22421 -0.51627,0.45539 -0.76583,0.693c-0.20268,0.38458 -0.51591,0.76349 -0.99999,1.01614c-4.22805,4.57201 -6.85914,10.97081 -10.55473,15.92708l-0.06098,0.04088l0.01657,0.01381l-1.65322,1.98387c-0.50435,0.61399 -1.26947,1.00563 -2.12605,1.00563c-1.30873,0 -2.40393,-0.9142 -2.68184,-2.13883l-0.12709,-0.50836c-1.20226,1.61125 -2.69549,3.60217 -2.78023,3.699c-0.48935,0.5592 -1.32782,0.82761 -1.65289,1.4958c-0.42395,0.87142 -0.18479,1.9429 -0.47052,2.8689c-1.04404,3.38354 -4.29037,7.38269 -0.52691,10.05422l1.86096,2.58718c0,0 1.52543,2.28814 -0.76271,3.81356zM213.39511,259.44864c0.13726,-0.18948 0.27595,-0.37772 0.41623,-0.5646c-0.05018,-0.01342 -0.10046,-0.02733 -0.15083,-0.04172c-0.08703,0.20295 -0.17555,0.40503 -0.2654,0.60632z"></path><path d="M287.42984,221.50699c2.45967,1.22984 1.22984,3.68951 1.22984,3.68951l-0.06424,-0.22208c-0.38491,2.97003 -1.7023,5.67611 -1.99518,8.62564c-0.32719,3.29503 -0.65874,6.64451 -0.99469,9.94689c-0.24815,2.43926 1.06273,7.28336 0.3306,9.362c-0.05823,0.16534 -0.12219,0.32785 -0.19122,0.48785l0.08909,0.02673l-0.98225,3.27416c-0.32015,1.16394 -1.38611,2.01897 -2.65178,2.01897c-1.30873,0 -2.40393,-0.9142 -2.68184,-2.13883l-0.65271,-2.61086l0.0631,-0.01577l-0.09845,-0.14625c-0.01503,-0.12031 -0.02955,-0.24068 -0.04358,-0.36113c-0.07007,1.45437 -0.33754,2.66882 -0.9753,3.13405c-0.04774,0.03482 -0.0951,0.06905 -0.14208,0.1027c1.76584,4.81902 4.44071,9.64192 1.43982,14.54481c-0.46685,0.76274 -1.52387,1.00826 -2.04831,1.73261c-1.5621,2.15755 -3.17513,5.46515 -4.21925,8.36618c0.28014,-0.26311 0.58026,-0.50062 0.91285,-0.6968c2.68779,-1.58535 5.95254,-1.47165 8.8135,-2.56895l1.29892,-0.17509c0,0 2.75,0 2.75,2.75c0,2.4033 -2.10031,2.70629 -2.62989,2.74449c-2.28148,0.68107 -5.43263,0.74955 -7.34101,1.92813c-1.40726,0.86909 -2.20974,2.48697 -3.44779,3.57738h2.33537c1.51878,0 2.75,1.23122 2.75,2.75c0,1.29436 -0.89424,2.37987 -2.09862,2.6724l-4.83763,1.29003c-2.03305,1.04182 -4.01945,1.75303 -5.19706,1.35921c-5.37897,-1.79882 -3.8773,-6.07994 -1.70737,-9.10813c0.42231,-0.58934 0.99339,-1.01433 1.62959,-1.36921c0.17719,-4.96846 2.76616,-9.00372 5.00021,-13.40505c0.57112,-1.12517 0.87251,-2.39976 1.60024,-3.43059c0.7147,-1.01237 2.5001,-1.2906 2.45072,-2.86782c-0.09168,-2.92842 -1.10884,-5.78804 -2.10353,-8.65545c-1.47501,-0.66321 -2.04962,-2.88848 -3.30898,-4.44467c-0.60702,-0.75009 -1.73902,-1.05047 -2.17343,-1.91209c-0.69449,-1.37745 -1.21467,-2.96942 -1.06167,-4.50444c0.25692,-2.57775 3.19358,-4.9639 4.77966,-6.56874c0,0 1.60395,-1.60395 3.35512,-0.44168c1.04928,0.15708 1.90472,0.90694 2.21456,1.89786c1.45819,0.68678 1.45819,2.48836 1.45819,2.48836l-0.02124,1.6589c0.0436,0.35414 0.11424,0.87314 0.1904,1.49359c-0.00143,-0.16197 -0.00225,-0.32391 -0.0025,-0.48583c0,0 0,-1.98854 1.69097,-2.58369c0.11009,-3.868 0.57404,-7.92339 0.99212,-11.71638c0.33369,-3.02739 1.64433,-5.688 2.00482,-8.70769l0.60242,-1.55541c0,0 1.22984,-2.45967 3.68951,-1.22984z"></path><path d="M248.78334,168.63333c0,-2.75 2.75,-2.75 2.75,-2.75l1.8965,0.29033c3.63669,1.84369 6.45166,3.53336 7.76557,7.76986c0.31725,1.02294 -0.16437,2.16258 0.04621,3.21268c0.01914,0.09545 0.04335,0.18989 0.07172,0.28347c0.41892,0.56712 0.80076,1.19321 1.18815,1.68846c2.22578,2.84552 1.33297,7.44816 3.7526,10.02676c0.82632,0.88061 2.40688,-0.33904 3.61258,-0.27155c0.19132,0.01071 0.38646,0.01674 0.58366,0.02136c-0.00325,-2.97933 -0.00032,-5.95867 -0.00032,-8.93803c0,0 0,-2.75 2.75,-2.75c2.75,0 2.75,2.75 2.75,2.75c0,3.76262 0.00778,7.52529 -0.00398,11.28788c1.48705,1.50162 1.54829,2.65485 0.93667,3.96612l0.31853,0.07963l-0.65271,2.61086c-0.27791,1.22463 -1.37312,2.13883 -2.68184,2.13883c-1.33266,0 -2.44391,-0.94794 -2.69626,-2.20632l-0.65492,-2.94712l0.1178,-0.02618l-0.16686,-0.27031c-0.00078,-0.15687 -0.00153,-0.31374 -0.00224,-0.4706c-2.69393,-0.60002 -4.29499,1.9014 -7.65159,-0.68435c-1.09275,-0.8418 -1.42109,-2.36592 -2.07226,-3.58194c-0.47563,-0.88821 -0.7952,-1.844 -1.0657,-2.81977c-0.91973,-0.06344 -1.71505,-0.57912 -2.16519,-1.32627l-1.6406,-2.62496c-1.84542,-2.42041 -5.12914,-5.57752 0.13856,-6.76874c-0.01228,-0.30376 -0.05271,-0.6342 -0.13615,-1.00027c-0.54116,-2.37434 -3.02267,-3.30703 -4.90109,-4.23014l0.56317,0.29033c0,0 -2.75,0 -2.75,-2.75z"></path><path d="M230.72543,153.01186c2.28814,1.52543 0.76271,3.81356 0.76271,3.81356l-0.78409,1.16291c-0.59143,0.54824 -1.64146,0.84929 -1.77429,1.64472c-0.1176,0.70422 0.92601,1.11393 1.20376,1.77166c1.06311,2.51747 3.49933,7.69841 1.90597,10.36889c-0.01488,0.4048 -0.05079,0.80386 -0.11009,1.19573c-0.80754,5.33607 -5.94708,9.7165 -10.73535,4.10976c-0.86182,-1.00913 -0.26624,-2.64073 -0.4065,-3.96035c-0.3319,-3.12246 -0.34709,-6.22018 -0.34128,-9.34367c-0.05392,-0.60259 -0.05017,-1.17587 0.0035,-1.73496c0.00015,-0.13553 0.00024,-0.27112 0.00024,-0.40678c0,0 0,-0.67247 0.33254,-1.35233c0.01147,-0.04137 0.02317,-0.08275 0.03512,-0.12414l-0.31425,-0.06285l0.65668,-3.28338c0.23085,-1.28532 1.35482,-2.26064 2.70659,-2.26064c0.75725,0 1.44301,0.30607 1.94032,0.80125c0.19864,-0.24123 0.38744,-0.48634 0.55562,-0.73958l0.54925,-0.83709c0,0 1.52543,-2.28814 3.81356,-0.76271z"></path><path d="M233.25546,136.02212c1.94454,-1.94454 3.88909,0 3.88909,0l0.18265,0.20521c1.9967,0.22596 2.26823,2.39824 2.26823,2.39824c0.03341,0.2673 0.06683,0.5346 0.10024,0.80191c0.08632,0.22343 0.13417,0.45583 0.12374,0.70183c-0.00283,0.06672 -0.00652,0.13329 -0.01105,0.19974c0.01551,0.12404 0.03101,0.24809 0.04652,0.37213l0.08147,-0.00815l0.32965,3.29652c0.01145,0.1019 0.01733,0.20549 0.01733,0.31044c0,1.51878 -1.23122,2.75 -2.75,2.75c-1.41573,0 -2.58159,-1.0698 -2.73329,-2.4451c-0.01017,-0.08139 -0.34916,-2.79325 -0.35933,-2.87464c-0.52512,-0.3395 -0.62264,-1.17656 -0.96172,-1.73255l-0.22354,-0.08651c0,0 -1.94454,-1.94454 0,-3.88909z"></path><path d="M216.48814,100.49209c-1.52543,2.28814 -3.81356,0.76271 -3.81356,0.76271l-1.13321,-0.845c-0.48442,0.78426 -1.35186,1.30686 -2.34136,1.30686c-0.6291,0 -1.20886,-0.21124 -1.67222,-0.56667l-2.64444,-1.98333c-1.63628,-0.83319 -3.07608,-1.84065 -3.47634,-2.97016c-2.49018,-7.02705 4.61538,-8.53912 8.93739,-5.78176c0.46365,0.18217 0.79341,0.47193 1.02795,0.79194c1.59154,1.48018 2.48652,3.64214 3.91563,5.30363l0.43747,0.1682c0,0 2.28814,1.52543 0.76271,3.81356z"></path><path d="M243.86667,96.05c-2.75,0 -2.75,-2.75 -2.75,-2.75l0.02124,0.00776c-0.11111,-0.88889 -0.22222,-1.77778 -0.33333,-2.66667c0,0 -0.3411,-2.72876 2.38767,-3.06986c2.72876,-0.3411 3.06986,2.38767 3.06986,2.38767c0.11111,0.88889 0.22222,1.77778 0.33333,2.66667l0.02124,0.67443c0,0 0,2.75 -2.75,2.75z"></path><path d="M292.54405,150.33224c1.80665,-1.62053 3.72263,-3.16689 5.0052,-5.17949c0.5721,-0.89773 0.74017,-2.01157 1.28643,-2.92382c-1.17984,1.1334 -3.11492,2.42944 -3.95765,3.84135c-0.8316,1.39326 -1.57797,2.82981 -2.33399,4.26195zM300.05646,140.53332c0.97357,-1.22883 2.0078,-2.42071 2.56887,-3.86619c0.08649,-0.22281 0.16812,-0.44793 0.24567,-0.67495c-0.58833,0.80724 -1.17119,1.61827 -1.73815,2.44023c-0.44525,0.64551 -0.7288,1.39482 -1.07639,2.10091zM276.96298,174.70958c-2.51298,-0.15329 -2.51298,-2.74292 -2.51298,-2.74292l0.08211,-1.33364c0.57972,-2.12159 1.81966,-4.02683 3.04358,-5.85418c0.59565,-0.88933 2.17059,-4.78749 2.53444,-5.44574c1.67871,-3.03697 3.9662,-5.27699 5.7653,-8.16909c1.58437,-2.54691 2.73589,-5.46055 4.31319,-7.96764c1.22852,-1.9527 3.39892,-3.14335 4.8533,-4.93418c1.84628,-2.27339 3.28276,-4.85158 4.97965,-7.23856c2.62102,-3.68693 4.79177,-7.70303 7.18719,-11.52629c0.23837,-0.38045 3.63329,-5.0936 3.83422,-5.2365c0.01982,-0.0141 0.03969,-0.0281 0.05962,-0.04202l-0.01521,-0.01268l1.65322,-1.98387c0.50435,-0.61399 1.26947,-1.00563 2.12605,-1.00563c1.51878,0 2.75,1.23122 2.75,2.75c0,0.51388 -0.14095,0.99483 -0.38629,1.40631l-1.25123,2.18966c-0.73568,1.70349 -1.63541,3.33928 -2.62461,4.90913c-0.87372,2.63376 -2.28586,5.06462 -3.20713,7.68213c-0.93926,2.66863 -1.27502,5.76676 -2.37273,8.44564c-0.9818,2.39601 -2.87834,4.30616 -4.24974,6.50253c-0.58203,0.93216 -0.73838,2.09277 -1.34086,3.01184c-2.16333,3.30015 -5.76831,5.35407 -8.08649,8.46071c-1.5202,2.03725 -2.50934,4.44421 -4.08193,6.4413c-1.56049,1.98171 -3.67652,3.48607 -5.20513,5.49248c-1.61461,2.11929 -2.17026,5.41552 -2.5646,7.91037c0,0 -0.4521,2.71258 -3.16468,2.26049c-2.71258,-0.4521 -2.26049,-3.16468 -2.26049,-3.16468c0.04593,-0.2644 0.09315,-0.53304 0.14223,-0.80499z"></path></g><path d="M231.68333,75.73333l0.14862,-0.13569c-0.31232,-1.03575 -0.42879,-2.12607 0.16394,-3.0291c0.55824,-0.85048 1.87355,-0.79347 2.81032,-1.19021c0,0 1.68834,-0.46046 2.14879,1.22788c0.19356,0.70973 0.00741,1.20248 -0.27343,1.53525c0.10722,1.35486 0.01112,2.63277 -0.07292,3.93346c0.01212,0.04514 0.02228,0.08858 0.03078,0.12968c0.03639,0.1673 0.06349,0.38122 0.04389,0.61096v1.58443c0,0.24814 -0.05164,0.48421 -0.14477,0.69806c0.01184,0.31761 -0.06459,0.67298 -0.33328,1.00669c-0.18186,0.28296 -0.46995,0.54233 -0.92629,0.65404c-0.44166,0.16019 -0.82524,0.10418 -1.13352,-0.03038c-0.52075,-0.1639 -0.80127,-0.53023 -0.95237,-0.87734c-1.28353,-2.0712 -1.5023,-3.64042 -1.50977,-6.11773z" fill="#43447b" stroke-width="0.5"></path><path d="M237.65,250.80117c-1.25,0 -1.25,-1.25 -1.25,-1.25v-1c0.01087,-0.48846 0.51162,-1.30715 0.04921,-1.46492c-2.33184,-0.79559 -4.2756,0.12422 -6.13639,-2.35684c-2.67331,-1.78554 -2.16283,-4.99009 -2.16283,-7.92825c0,-6.25263 0.5,-12.63786 0.5,-19c0,-0.43412 0.15077,-0.71747 0.34758,-0.90242c0.18494,-0.19681 0.4683,-0.34758 0.90242,-0.34758c0.03025,0 0.05976,0.00073 0.08856,0.00216l0.90658,0.02211c3.81615,0.7782 5.63123,4.1829 9.07392,5.61277c2.40764,1.44982 6.43037,2.53029 7.1531,5.85063c0.43689,2.00716 -1.65311,4.12812 -2.29383,5.92949c-1.79826,5.05574 -3.33522,10.36887 -5.26774,15.29707c0,0 -0.2233,0.55826 -0.74734,0.74554c-0.12435,0.35648 -0.42693,0.79022 -1.16325,0.79022z" fill="#a69cb5" stroke-width="0.5"></path><path d="M276.29844,248.96177c-1.69013,-0.63119 -2.82151,-1.62733 -4.05803,-2.62454c-0.21819,0.49373 -0.54433,0.91128 -1.03503,1.1483c-1.21222,0.58552 -3.87462,-2.21618 -4.20685,-3.02059c-0.56035,-1.35676 0.2088,-3.11197 -0.2896,-4.54105c-1.04318,-2.99119 -1.78127,-5.28141 -2.06052,-7.97831l-0.23497,0.03889l-0.48646,-2.43541c-0.01771,-0.08012 -0.027,-0.16301 -0.027,-0.24787c0,-0.69036 0.61482,-1.25 1.37324,-1.25c0.08093,0 0.16022,0.00637 0.2373,0.01859c0.02856,-0.04135 0.06055,-0.08206 0.0964,-0.12138c0.1095,-0.36966 0.42206,-0.89722 1.31419,-0.89722c0.2054,0 0.38008,0.02797 0.52863,0.07553c1.28396,-0.36803 2.36151,-0.3373 3.78792,-0.78366c3.56865,-1.1167 6.60936,-2.25813 10.51444,-2.29188h0.27465c0.47692,0 0.78821,0.15077 0.99139,0.34758c0.21622,0.18494 0.38185,0.4683 0.38185,0.90242c0,0.06723 -0.00397,0.13085 -0.01149,0.19105c-0.15027,1.94182 -1.28987,3.54587 -1.90573,5.36752c-0.03207,0.59229 0.07202,1.20647 -0.012,2.0646c-0.30291,3.09357 -0.34488,6.46078 -0.82688,9.5245c-0.14958,0.95081 -0.20278,2.23604 -0.56094,3.24818c-0.07578,0.61133 -0.16625,1.22132 -0.27589,1.8295l-0.01398,0.01801l0.00981,0.00179l-0.26966,1.22729c-0.11528,0.58424 -0.67654,1.02756 -1.35156,1.02756c-0.57922,0 -1.07468,-0.32642 -1.27648,-0.78819z" fill="#6d587e" stroke-width="0.5"></path><g stroke-width="0.5"><path d="M226.15,214.55117c-1.25,0 -1.25,-1.25 -1.25,-1.25c0,-2.33334 0,-5.41666 0,-7.75c0,-3.77357 -0.9601,-8.48043 1.57175,-11.33718c0.78879,-0.89002 1.37025,-3.19784 3.3764,-1.87394l0.04175,-0.03132c0.21062,-0.16155 0.47414,-0.25757 0.7601,-0.25757c0.69036,0 1.25,0.55964 1.25,1.25c0,3.16666 0,7.58334 0,10.75c0,8.74324 -0.61964,17.48533 -1.50608,26.12317c-0.16654,1.62282 -0.30023,3.161 -0.50329,4.77956c-0.11683,0.9312 0.24649,3.21371 -0.3303,4.06216c-0.05572,0.08197 -0.11438,0.16135 -0.17563,0.23846l0.03247,0.02319l-1.24032,1.73644c-0.22579,0.32457 -0.60151,0.53701 -1.02685,0.53701c-0.69036,0 -1.25,-0.55964 -1.25,-1.25v-1.44713c-0.17389,-1.52853 -0.42333,-3.04936 -0.72573,-4.55773c0,0 -0.00923,-0.04613 -0.01515,-0.12228c-0.00913,-0.07583 -0.00912,-0.12287 -0.00912,-0.12287v-0.25c0.02517,-3.48602 0.96336,-7.35977 1.50364,-10.84531c-0.00754,-2.90996 0.11795,-5.7875 0.29192,-8.65337c-0.18229,0.14624 -0.4377,0.24869 -0.79556,0.24869zM227.75413,231.61495c0.16315,-1.00409 0.31979,-1.98543 0.39956,-2.90899c-0.16529,0.97817 -0.30843,1.95447 -0.39956,2.90899z" fill="#baafcc"></path><path d="M224.08613,191.75671c1.21814,-0.75347 2.65444,-0.87107 3.47255,-0.1356c0.36463,0.11291 0.84133,0.40814 0.84133,1.18007c0,0.30298 -0.07343,0.53252 -0.18471,0.70642c-0.00919,0.26779 -0.04496,0.55991 -0.11065,0.87724c-0.2877,1.38977 -1.3449,3.32863 -2.09302,4.84925c-0.12231,0.29685 -0.25366,0.59437 -0.38531,0.89181c0.04728,1.92051 0.02382,3.84288 0.02054,5.76388l-0.03648,0.0843l0.02707,0.00387l-0.2474,1.73181c-0.07792,0.61548 -0.6034,1.09142 -1.24004,1.09142c-0.4633,0 -0.86774,-0.25206 -1.08365,-0.62653l-0.73821,-1.23036l0.41173,-0.24704c-0.02857,-0.05184 -0.05616,-0.10366 -0.08278,-0.15548c-0.22758,0.30895 -0.59393,0.50941 -1.00709,0.50941c-0.24074,0 -0.46557,-0.06805 -0.65633,-0.18597c-0.04557,0.17723 -0.09274,0.35372 -0.14177,0.52936c0,0 -0.3434,1.20191 -1.5453,0.85851c-1.20191,-0.3434 -0.85851,-1.5453 -0.85851,-1.5453c0.42884,-1.46032 0.7396,-3.12547 1.07953,-4.82743c0.01543,-2.1843 0.4288,-4.75433 0.62846,-6.20234c0.09508,-0.6895 -0.16396,-1.48984 0.20883,-2.07762c0.64006,-1.00916 2.24354,-1.57311 3.72121,-1.84368z" fill="#655077"></path><path d="M293.38281,217.57357c-4.29793,3.98482 -3.48281,-3.36336 -3.48281,-5.2724c0,-3.24986 -0.0152,-6.50018 0,-9.75c0.00576,-1.23144 -0.14181,-2.84871 1.01911,-3.76406c2.09107,-1.64873 4.59501,0.14576 4.97481,2.14088c0.56026,2.94314 0.59357,7.09591 0.00608,10.66428c0,0.4863 0,0.9726 0,1.4589v1.75c0,0.69036 -0.55964,1.25 -1.25,1.25c-0.29555,0 -0.56714,-0.10257 -0.78112,-0.27406c-0.05228,0.77614 -0.18035,1.51301 -0.48607,1.79645z" fill="#baafcc"></path><path d="M291.65,199.30117c0,0.68556 -0.37599,0.99513 -0.71555,1.13491c0.07087,0.23048 0.13492,0.45745 0.19942,0.66486c0.72068,2.31759 0.01614,6.22496 0.01614,8.70023c0,1.62448 0.03821,3.14661 -0.27427,4.74514l-0.24545,1.22729c-0.10494,0.58424 -0.61583,1.02756 -1.23027,1.02756c-0.4633,0 -0.86773,-0.25206 -1.08365,-0.62653l-0.73822,-1.23036l0.05253,-0.03152c-0.06616,-0.08922 -0.1282,-0.18165 -0.18531,-0.27793c-0.03202,-0.05399 -0.04242,-0.84664 -0.04536,-1.58357c-0.08201,0.0616 -0.17184,0.11334 -0.26773,0.15348c0.00291,0.79646 0.01773,1.58629 0.01773,2.34643c0,0 0,1.25 -1.25,1.25c-1.25,0 -1.25,-1.25 -1.25,-1.25c0,-2.36732 0.144,-4.72259 0.49991,-7.03217c0.00005,-0.12262 0.00009,-0.20233 0.00009,-0.21783c0,-2.5564 -1.13404,-8.61893 1.44099,-10.11804c0.27875,-0.16228 2.54538,-0.13196 3.05901,-0.13196h0.75c0,0 1.25,0 1.25,1.25z" fill="#655077"></path></g></g></g></svg>