<svg version="1.1" xmlns="http://www.w3.org/2000/svg" xmlns:xlink="http://www.w3.org/1999/xlink" width="267.28333" height="296.25137" viewBox="0,0,267.28333,296.25137"><g transform="translate(-100.11667,-8.80845)"><g stroke="none" stroke-width="0.5" stroke-miterlimit="10"><g><g><g><path d="M149.12878,190.33932c1.18505,-0.51267 2.33336,-1.45803 3.62178,-1.37374c1.10623,0.07239 2.43568,0.13394 3.55954,0.47698c-0.00606,-0.17394 -0.01149,-0.34795 -0.01626,-0.52194c0,0 -0.07268,-2.71769 2.64501,-2.79035c2.71769,-0.07268 2.79038,2.64501 2.79038,2.64501c0.18426,7.06218 1.59158,13.99178 4.44299,20.47705c2.42417,5.51359 7.24632,9.78323 10.82831,14.51491l0.75771,0.65416c2.35486,0.51009 3.98554,1.17402 6.43195,0.01413l2.14961,-0.65254c0,0 2.60601,-0.77444 3.38046,1.83159c0.39101,1.31582 -0.07976,2.16469 -0.64174,2.6827c-0.08602,0.91002 -0.64514,1.59876 -0.64514,1.59876c-3.71277,4.45306 -5.31042,11.41123 -7.41082,16.83548c-1.48413,3.83275 -3.00094,7.80908 -4.53248,11.5742c-1.48238,3.64423 -4.40444,6.41326 -5.59077,10.20496c-0.42159,1.34746 -0.26192,2.84416 -0.75155,4.16843c-0.40643,1.09922 -1.36377,1.91793 -1.88661,2.96679c-1.53941,3.08807 -2.76564,6.46651 -4.24643,9.61794c-0.52091,1.79346 -1.11243,3.56778 -1.76937,5.316l-2.45951,2.21128c0,0 -1.27184,0.81012 -2.52445,0.27647c-0.10848,0.09683 -0.22619,0.18623 -0.35282,0.26689c-0.91537,0.58308 -2.04711,0.54995 -2.90882,0.00855l-2.89155,-1.73326c-7.67624,-2.57254 -15.97076,-2.52999 -23.90624,-4.05058c-3.52978,-0.67636 -6.53916,-2.21038 -9.94137,-2.93361c-0.12101,0.03047 -0.24945,0.05569 -0.38579,0.075c-0.95749,0.13545 -1.62259,-0.11785 -2.08216,-0.50051c-0.17472,-0.05408 -0.37897,-0.1319 -0.58785,-0.24271l-2.71605,-0.21996c0,0 -2.33183,-1.39775 -0.93407,-3.72957c0.74694,-1.24609 1.76062,-1.42717 2.54266,-1.3256c0.05579,-0.03622 0.1117,-0.07246 0.16778,-0.1087c-0.33393,-2.51498 -0.60429,-5.1667 -0.47135,-7.34637c0.27094,-4.44191 1.86157,-9.46121 2.8268,-13.81838c1.09335,-4.93565 1.77755,-10.3253 3.76849,-15.02224c1.06075,-2.50245 2.64835,-4.77364 3.57233,-7.32978c1.38064,-3.81945 1.81591,-7.8278 3.60315,-11.53774c1.56055,-3.23935 2.88388,-5.53796 3.91364,-9.04088c2.88698,-6.97827 7.25399,-13.82211 11.12894,-20.32824l2.01777,-1.62556c0,0 0.96313,-0.61349 2.03859,-0.42105c1.08436,-0.67592 2.26248,-1.24361 3.46533,-1.76399z" fill="#c392ca"></path><path d="M112.25531,215.25882c7.02629,-8.89955 15.61296,-17.17864 24.50066,-24.15724c2.51794,-1.60448 4.41542,-2.68562 6.90462,-3.31635c2.24299,-1.22971 4.57878,-2.21873 7.3273,-2.7459l2.36419,-0.91633c1.13904,-0.46747 2.47447,-0.10784 3.21844,0.90423c0.30421,-0.0544 0.60594,-0.11733 0.90411,-0.19228l1.66793,-0.41775c0,0 2.63722,-0.6605 3.29773,1.97671c0.6605,2.63722 -1.97671,3.29773 -1.97671,3.29773l-1.66793,0.41775c-0.84219,0.21022 -2.99066,0.78303 -4.89353,1.18544c-0.09363,0.11974 -0.19191,0.23642 -0.29533,0.34972c-0.89432,0.97974 -2.58453,0.59903 -3.87678,0.89854l-0.11728,-0.0356l0.00515,0.04961l-0.14572,0.01514c0.2005,1.57961 -1.3006,2.53576 -1.3006,2.53576l-1.97551,1.22418c-3.23238,3.83457 -5.52479,7.79999 -8.18484,12.02673c-3.03781,4.82699 -6.67034,9.36704 -8.85365,14.7126c-0.39109,0.95756 -0.42488,2.05126 -0.90175,2.96912c-0.88367,1.70076 -2.44384,3.02042 -3.18176,4.78931c-1.19849,2.8729 -0.75472,6.19594 -1.41933,9.24982c0,0 -0.02215,0.0999 -0.07724,0.25659c-0.04843,0.1589 -0.08974,0.25251 -0.08974,0.25251l-0.03572,0.05681c-0.10332,0.22417 -0.25241,0.48672 -0.46098,0.73292l-0.07135,0.11345c-0.18219,2.36923 0.15213,4.80117 -0.37162,7.11894c-0.46394,2.05313 -1.96805,3.73862 -2.66468,5.72492c-1.29374,3.68898 -2.06378,8.43167 -2.7063,12.25127c-0.30024,1.78482 0.4601,3.59083 0.64154,5.39159c0.30897,3.0662 -0.08554,5.72568 0.38497,8.74155c0.0777,0.27348 0.11923,0.58788 0.11169,0.94935c-0.01673,0.80295 -0.26575,1.36375 -0.6083,1.75539c-0.33546,0.39777 -0.85225,0.72857 -1.64347,0.8663c-0.36809,0.06409 -0.6944,0.06877 -0.98347,0.02919l-1.65022,-0.03769c-0.2601,-0.02399 -0.51987,-0.05454 -0.77906,-0.09126l-0.84435,0.75912l-0.02039,-0.0227c-0.02828,0.03798 -0.05686,0.07578 -0.08581,0.11336c-0.817,1.06184 -1.98851,1.76786 -3.13124,2.5074c-1.35984,1.65712 -2.60633,3.39684 -3.92356,5.13694c-0.21147,0.56945 -0.44168,1.12861 -0.75258,1.63797c-0.49147,0.80524 -0.91593,1.88692 -1.47686,2.72968c1.57094,-21.61831 5.45661,-43.93301 5.88824,-64.88787c0.06851,-3.32619 0.97701,-7.98433 1.3761,-12.6939c0.81276,-1.47701 1.60768,-2.98756 2.57499,-4.21276z" fill="#9e63a7"></path><path d="M150.82841,285.13773l-0.0019,-0.00102c0.00135,-0.00393 0.0027,-0.00786 0.00407,-0.01178c0.17826,-1.05753 0.49606,-2.09781 1.09452,-3.1778c0.05915,-0.17174 0.11829,-0.34349 0.17745,-0.51521c6.22355,-10.47925 10.3259,-22.05671 16.15319,-32.65048c3.31084,-6.01897 4.53345,-15.20907 9.83258,-19.94095l1.98656,-2.84933c0.20375,-0.30699 0.47357,-0.5773 0.80434,-0.788c0.73613,-0.46889 1.61219,-0.5393 2.37521,-0.26732c0.55976,-0.32422 1.32276,-0.46786 2.31562,-0.05636c2.51149,1.04093 1.47058,3.55243 1.47058,3.55243c-2.69106,6.47357 -5.32835,12.48163 -8.65902,18.7462l-0.32531,0.16766l0.11087,0.1007l-0.71291,0.7849c0.33173,1.13614 -0.32153,2.22598 -0.32153,2.22598l-1.56273,2.60707c-1.13923,1.89409 -1.88539,4.01395 -3.09163,5.86609c-2.10156,3.22681 -4.8047,5.42623 -6.42393,9.02326c-1.50402,3.3411 -2.70595,6.83703 -4.4587,10.07578c-1.24914,2.30817 -3.3363,4.06772 -4.75328,6.27685c-0.00375,0.00585 -0.00749,0.01173 -0.01122,0.0176c-0.25239,0.74829 -0.50474,1.49656 -0.75713,2.24483l-0.64179,2.89387c-0.15065,0.67926 -0.56042,1.30105 -1.19362,1.70438c-1.26639,0.80664 -2.94693,0.43395 -3.75358,-0.83243c-0.40333,-0.63319 -0.51181,-1.36995 -0.36117,-2.0492l0.66595,-3.00286l0.01462,0.00324c0.00767,-0.04941 0.01563,-0.09877 0.02391,-0.14809z" fill="#4b1353"></path><path d="M218.27047,165.41419c2.33182,1.39775 0.9341,3.72958 0.9341,3.72958l-1.14983,1.90269c-0.89142,1.78202 -2.16932,3.37562 -2.88594,5.23484c-1.17734,3.05453 -1.30138,6.58909 -2.53687,9.66891c-0.81414,2.02947 -1.85584,3.9996 -2.31785,6.13695c-1.94247,5.17029 -4.70204,9.86334 -7.09339,14.81499c-3.46247,7.16958 -6.27367,14.62529 -9.56718,21.86618c-2.26129,4.97152 -5.31734,9.84529 -8.35779,14.56618c-1.24309,3.45778 -2.40499,6.96154 -3.74609,10.39902c-0.09198,0.28693 -0.18977,0.57622 -0.29497,0.86821c-0.31538,0.87549 -0.6918,1.70835 -1.10396,2.5167c-0.05072,0.11526 -0.10176,0.23039 -0.15312,0.3454c-0.50924,1.14049 -1.16364,2.17069 -1.85096,3.17618c-0.59319,0.99424 -1.1832,1.99275 -1.71685,3.03372c-1.41173,2.75375 -1.34441,6.0175 -2.53063,8.91375c-0.18877,0.46091 -2.39114,4.61432 -2.529,5.38333c-0.21195,1.18223 0.25355,2.43161 -0.01079,3.60324c-0.64661,2.86597 -2.71113,5.49364 -3.08204,8.52008c-0.31304,2.55421 0.27863,5.62793 0.55711,8.18878c0.12107,0.56811 0.11369,1.29631 -0.37879,1.97085c-0.26453,0.44574 -0.69833,0.8549 -1.40663,1.0623c-0.45564,0.18508 -0.87148,0.2242 -1.24153,0.17505c-0.10078,0.08758 -0.20932,0.1688 -0.32531,0.24269h-0.00005c-1.19802,0.7631 -2.76665,0.47075 -3.61546,-0.63513l-0.98244,-1.24819c-3.60885,-1.31247 -7.47503,-3.08027 -8.56563,-6.26689c-1.45934,-4.26407 3.54798,-9.92209 5.02929,-13.75876c1.23731,-3.20473 1.81039,-6.34257 3.79988,-9.24452c1.89127,-2.75867 4.52815,-5.0854 6.02096,-8.15044c2.11657,-4.34567 4.19021,-8.58749 6.49834,-12.74967c0.33937,-1.15291 0.71162,-2.27944 1.17453,-3.33753c0.4006,-0.91566 1.32088,-1.53477 1.73882,-2.44263c1.4506,-3.15104 1.66462,-6.98162 3.01931,-10.20373c1.21583,-2.89186 3.43393,-5.32148 5.43679,-7.83141l0.27798,-1.25344l0.05752,0.01276c0.00623,-0.09961 0.01372,-0.19924 0.02257,-0.29886c0.16156,-1.82063 1.22909,-3.40591 2.47896,-4.90179c0.27028,-0.65302 0.55498,-1.29797 0.85562,-1.93181c0.15813,-0.3334 0.34211,-0.65331 0.54178,-0.96492c1.38176,-3.98346 2.94743,-7.89318 4.59729,-11.77323c0.29598,-1.12516 0.66759,-2.23401 1.2034,-3.30191c0.21711,-0.4327 0.47687,-0.83926 0.7612,-1.2308c1.68923,-3.83819 3.42313,-7.66403 5.10398,-11.52067c0.14664,-0.63489 0.26435,-1.10168 0.33452,-1.29543c0.43099,-1.19 1.05999,-2.29894 1.6766,-3.41207c0.05884,-0.1411 0.11758,-0.28227 0.17616,-0.4235c0.81802,-1.97163 1.43063,-3.9739 2.03115,-5.97577c0.28805,-2.06084 0.4824,-4.14869 1.55937,-5.87702c0.05904,-0.09475 0.1197,-0.18821 0.18187,-0.28048l-0.05167,-0.02579l2.10505,-4.21459c0.18558,-0.38829 0.4653,-0.73671 0.83086,-1.00766c0.32548,-0.79023 0.6291,-1.60669 0.8801,-2.48346l0.133,-0.13554l-0.06658,-0.02939l1.17236,-2.65631c0.20735,-0.48897 0.55982,-0.92239 1.04164,-1.2293c0.05721,-0.03645 0.11529,-0.07047 0.1741,-0.10216c0.86174,-2.39639 1.83904,-4.75168 3.06217,-7.03241c1.68489,-3.14178 4.03069,-6.04355 5.56178,-9.25938c1.61847,-3.39939 1.66803,-7.1625 3.32966,-10.52833c1.29574,-2.62472 3.95796,-5.10484 4.83907,-7.93722c0.68458,-2.20062 0.51658,-4.62837 1.32947,-6.78491c1.16896,-3.10127 3.36198,-5.68565 5.14952,-8.43239c1.08279,-1.76933 1.54629,-3.84995 2.3485,-5.76292c2.35253,-5.60998 6.85159,-10.2625 9.42045,-15.73984c2.04684,-4.36428 3.36187,-7.89806 6.58446,-11.63997l0.08537,-0.06535c0.16378,-0.36956 0.32426,-0.74626 0.47943,-1.13265c1.86501,-4.64359 3.74979,-8.71734 6.33226,-12.98778c2.29207,-3.79021 2.38746,-8.16634 4.63174,-11.98358c2.05528,-3.49577 4.4152,-6.90766 6.54998,-10.43358l0.88316,-2.34532c0.1976,-0.54246 0.56882,-1.02652 1.09337,-1.36065c1.26639,-0.80664 2.94694,-0.43394 3.75359,0.83245c0.40333,0.63319 0.51182,1.36994 0.36119,2.04918l-1.16542,5.25502l-0.01689,-0.00375c-0.00046,0.02715 -0.00096,0.05432 -0.00153,0.08146c-0.07101,3.40797 -2.61235,7.32944 -4.12756,10.17703c-3.11976,5.86314 -6.31574,12.08142 -10.10484,17.5638c-0.97195,1.40629 -2.02706,2.81645 -2.57257,4.43655l-0.46926,1.0812c0,0 -0.14151,0.32068 -0.43809,0.6809c-0.09908,0.6979 -0.5113,1.23106 -0.84477,1.55883c-0.99423,1.99771 -2.00586,3.86266 -2.50807,6.21888c0,0 -0.48963,2.20779 -2.58934,2.14963c-0.31606,0.70767 -0.64517,1.44035 -1.00775,2.20687c-2.55217,5.39543 -7.06592,10.00431 -9.33229,15.54508c-0.88984,2.17551 -1.53964,4.47538 -2.73396,6.49979c-1.56522,2.4043 -3.6644,4.78702 -4.68545,7.50219c-0.76835,2.04312 -0.53377,4.36006 -1.20872,6.43588c-1.04808,3.22341 -3.65778,5.77954 -5.16239,8.74806c-1.65613,3.26746 -1.70729,7.08 -3.29203,10.45086c-1.55633,3.31035 -3.95379,6.28891 -5.68985,9.51154c-1.67456,3.10846 -2.84118,6.38396 -3.89835,9.70735l-0.0027,0.12934l-0.03813,-0.0008c-0.00354,0.01118 -0.00709,0.02235 -0.01062,0.03353c0.38196,0.03294 0.80335,0.16362 1.26067,0.43775z" fill="#641a70"></path></g><path d="M178.04979,264.95772c-0.25251,1.09771 -1.03208,2.00574 -1.45676,3.04899c-0.93601,2.29937 -1.39403,4.77708 -2.36077,7.06372c-0.85969,2.03341 -1.98818,3.98068 -3.08695,5.94264c-0.49652,1.95929 -0.97636,3.92903 -1.42289,5.91874c-0.32901,1.46605 -0.81756,2.78129 -1.23235,4.12338c0.07711,0.75727 0.21616,1.52636 -0.05018,2.21933c-0.0274,0.07128 -0.05549,0.14224 -0.08425,0.21288l0.05403,0.00982l-0.63385,3.4862c0.42016,0.76219 0.75094,1.53647 0.67404,2.37275c-0.50304,5.47006 -4.21034,6.32417 -7.80978,2.55789c-0.45322,-0.47422 -0.79031,-1.38379 -1.04769,-2.43778c-1.85333,-0.97631 -3.69924,-2.02812 -5.57448,-2.77319c-1.7094,-0.67917 -3.59847,-0.91437 -5.22623,-1.77094c-3.84127,-2.02138 -7.73822,-4.52806 -11.91829,-5.82852c-0.23991,-0.07464 -0.47986,-0.14691 -0.71983,-0.21686c-0.09106,-0.0104 -0.17643,-0.02141 -0.25534,-0.03327c-5.51922,-0.82917 -11.1692,-0.75212 -16.682,-1.66911c-0.59488,-0.09895 -1.16983,-0.22048 -1.73279,-0.35228c-2.08361,-0.08623 -4.59073,-0.20617 -6.17755,0.28767c-1.16329,0.36203 -2.58809,1.30761 -3.95994,2.35957l-1.20125,2.10219c-0.01525,0.02787 -0.03101,0.05542 -0.04728,0.08263c-0.05036,0.10086 -0.10074,0.20173 -0.1511,0.30259l-0.93971,2.8191c-0.31418,1.02156 -1.26533,1.76413 -2.38993,1.76413c-1.38071,0 -2.5,-1.11929 -2.5,-2.5c0,-0.29691 0.05176,-0.58173 0.14674,-0.84593l0.98155,-2.94464l0.10265,0.03422l-0.04064,-0.20036c0.02143,-0.04282 0.04286,-0.08564 0.06429,-0.12846c-1.11038,-2.88448 1.83717,-7.06183 2.09091,-10.16118c0.80761,-9.86482 -0.40815,-19.89236 0.16012,-29.76435c5.15024,0 10.30048,0 15.45072,0c2.14124,0 5.13195,-0.52663 7.20185,0.28349c5.42541,2.12341 10.29185,5.01305 15.14233,8.08585c4.85931,3.07839 8.16737,7.29887 13.57799,9.48271c1.11223,0.19298 2.22446,0.38596 3.33668,0.57894l2.37568,0.47514c0.27869,0.06147 0.56829,0.09388 0.86546,0.09388c0.56551,0 1.1036,-0.11735 1.59127,-0.32903c-0.11239,0.36385 -0.2277,0.7264 -0.34651,1.08738c-0.92996,2.82547 -1.27416,5.25581 -2.0165,7.63062c-0.50984,1.09985 -0.97486,2.25239 -1.44411,3.40312c-0.28872,0.5141 -0.6173,1.0331 -0.99543,1.56034l0.09318,-0.17014c0,0 -1.68809,1.68809 -1.15188,3.76014c-0.16822,1.20144 0.05279,2.91 2.19145,3.97933c3.57771,1.78886 5.36656,-1.78886 5.36656,-1.78886c0.56776,-1.13552 1.06295,-2.35163 1.55223,-3.57022c0.9015,-1.61049 1.63237,-3.28717 2.25133,-5.00797c1.08712,-1.9562 2.36243,-3.83677 3.0822,-5.95197c0.6593,-1.93752 0.69197,-4.04958 1.33127,-5.99379c1.03315,-3.142 2.7878,-6.19509 4.71432,-9.16037c0.41923,2.19005 0.45512,5.61035 0.2574,6.46984z" fill-opacity="0.65098" fill="#160a1f"></path></g><path d="M110.2415,287.65285l-0.03096,0.03262l0.03733,0.016l-0.97731,2.28037c-0.36946,0.9192 -1.26922,1.56816 -2.32056,1.56816c-1.30616,0 -2.37835,-1.00167 -2.49034,-2.27875l-0.33058,-3.30583l0.02416,-0.00242c-0.01139,-0.04053 -0.02254,-0.08112 -0.03347,-0.1218c-0.29887,-1.1132 -0.00267,-2.30525 -0.0031,-3.45787c-0.00217,-5.92939 0.15879,-11.46207 1.07006,-17.33346c0.39884,-2.56974 0.7599,-5.14821 1.28947,-7.69422c0.27646,-1.32911 0.0022,-2.97828 0.93603,-3.96364c1.83245,-1.93359 6.33852,-1.51501 8.53777,-1.50867c10.33679,0.0298 18.86854,5.79687 26.52784,12.18785c5.44357,3.90701 10.93825,10.13378 11.30067,17.15681c0.1272,2.46497 0.36442,6.15056 -2.11894,7.90911c-1.8985,1.3444 -8.40163,0.41882 -10.70956,0.4129c-9.26956,-0.02377 -18.40419,-2.96788 -27.69454,-3.01873c-1.03879,0.25722 -2.05082,0.6438 -3.01396,1.12158z" fill-opacity="0.14902" fill="#843cbb"></path></g><path d="" fill="#290b2d"></path><g><path d="M264.11152,262.98197l2.86628,-0.31481c0.92634,-0.20653 1.85269,-0.41307 2.77903,-0.6196c3.02412,-0.8719 4.96626,-2.82346 7.9769,-3.66053c3.49899,-0.97285 7.47924,-1.00506 11.05361,-1.50165c3.77343,-0.52425 7.90774,-2.38849 11.32923,1.16818c0.05261,0.05469 0.17114,6.92255 0.06424,7.52584c-0.72882,4.11337 -3.01378,8.18204 -4.02676,12.12832c-0.76376,2.9754 -0.38143,6.8469 -0.52749,10.12379l1.75319,1.7175c-0.14055,3.09531 0.34001,10.42513 -3.54688,11.95999c-1.53139,0.60472 -3.213,-0.88283 -4.62943,-1.72223c-0.75806,-0.44924 -1.32514,-1.14603 -1.90975,-1.82007c-9.22843,0.00517 -18.84094,0.76779 -28.01274,-0.28868c-0.39114,0.02542 -0.83938,-0.05594 -1.34472,-0.30861c-0.01697,-0.00849 -0.03375,-0.01704 -0.05034,-0.02565c-0.38942,-0.18711 -0.82122,-0.49708 -1.08646,-1.00367c-0.27437,-0.5017 -0.29277,-1.03291 -0.23244,-1.46072c0.00203,-0.01858 0.00423,-0.03729 0.00658,-0.05612c0.06046,-0.48369 0.20344,-0.86128 0.39447,-1.15576c0.08595,-0.6876 0.1719,-1.37521 0.25785,-2.06281l0.06968,-2.74435c1.35518,-5.24935 0.32053,-10.94208 0.94102,-16.33977c0.06057,-0.52692 0.33053,-4.52933 1.31767,-5.19229v-2.19493v0c0,-1.38071 1.11929,-2.5 2.5,-2.5c0.55665,0 1.07081,0.18193 1.48626,0.48957c0.32679,-0.11381 0.57099,-0.14095 0.57099,-0.14095z" fill="#170619"></path><path d="M221.1788,256.63644c3.22738,0.18139 6.49647,-0.52761 9.58677,0.89228c3.09666,1.42281 3.63746,3.46359 6.89503,4.17926l0.77178,0.61591c0.37629,-0.22677 0.81719,-0.35722 1.28855,-0.35722c1.38071,0 2.5,1.11929 2.5,2.5c0,0.11851 -0.00825,0.23509 -0.0242,0.34921l-0.32844,2.62754l-0.09766,-0.01221c-0.00279,0.19098 -0.01554,0.38225 -0.03994,0.57386c-0.1275,1.00138 -3.54859,5.08432 -4.24552,6.15514c-1.7919,2.75323 -3.25085,6.11526 -4.41953,9.17382c-0.87861,2.29943 -0.88662,5.03156 -1.19735,7.44272c-0.12744,0.9889 -0.9715,2.20927 -0.73955,3.07419c0.20103,0.22179 0.39708,0.44632 0.58108,0.67536c0.68875,0.34288 1.73391,0.23332 2.09821,0.89747c0.65147,1.1877 0.27526,2.69526 0.4129,4.04289l-3.83333,2.5c0,0 -0.15627,0 -0.39067,-0.03907c-0.95584,0.38482 -2.06327,0.57392 -3.19537,0.84418c-0.40816,0.17011 -0.82731,0.20089 -1.15493,0.18633c-0.30935,-0.0047 -0.6976,-0.05455 -1.07414,-0.22317l-2.16968,-0.63707c-3.52125,-1.51023 -6.73291,-3.26791 -9.99926,-5.12424c-0.7931,0.06621 -1.4673,-0.27089 -1.4673,-0.27089l-0.53343,-0.27154c-1.06017,-0.48617 -1.99856,-0.69595 -2.94689,-0.77983c-3.24578,0.11439 -7.88341,0.71644 -11.51208,0.1521c-0.48424,0.16321 -0.88956,0.16321 -0.88956,0.16321h-0.33333c-1.24235,-0.07868 -2.63443,0.36046 -3.72706,-0.23603c-0.06673,-0.03643 -0.13218,-0.07321 -0.19635,-0.11033c-1.11085,-0.11332 -2.00648,-0.95394 -2.20306,-2.03802c-1.88894,-3.07023 0.27651,-7.21094 0.64176,-10.72503c0,0 0.16687,-1.50183 1.40874,-2.04056c0.25681,-2.44944 1.00979,-4.38593 1.64856,-6.94808c1.02565,-4.11398 1.97925,-7.29173 3.94413,-10.35193c0.42824,-1.53441 0.86509,-2.90496 1.14648,-3.27181c0.00045,-0.00059 0.00091,-0.00118 0.00137,-0.00177c0.00515,-0.01378 0.01031,-0.02755 0.01548,-0.04133l0.05964,-0.03716l-0.03755,-0.01609l0.9773,-2.28038c0.36945,-0.91919 1.26922,-1.56816 2.32056,-1.56816c0.79969,0 1.51168,0.37547 1.9693,0.95974c6.20549,-1.16637 12.21684,-0.9758 18.48857,-0.6233z" fill="#170619"></path><path d="M190.52721,160.91049c-2.39393,-0.07796 -3.97551,-1.82838 -4.88233,-4.11596c-2.20848,-1.84138 -4.65599,-3.63607 -6.0555,-6.02153c-0.59947,-1.0218 -1.44713,-2.10997 -1.34389,-3.29013c0.01017,-0.11621 0.0242,-0.23151 0.04175,-0.346c-0.5707,-0.90039 -1.02848,-1.82291 -1.33276,-2.76247c-1.41747,-4.37691 2.82482,-9.03786 5.18383,-11.847c1.21601,-1.44805 1.8121,-3.36184 3.0836,-4.76143c3.28919,-3.62055 7.25992,-6.92904 10.73126,-10.40038c0,0 1.34776,-1.34776 2.86647,-0.51285c0.42884,-0.34574 0.97423,-0.55272 1.56797,-0.55272c1.38071,0 2.5,1.11929 2.5,2.5c0,0.18573 -0.02025,0.36673 -0.05867,0.54091l-0.65654,3.28271l-0.0552,-0.01104l0.02,0.16242c-2.32622,7.0003 -5.26363,13.539 -8.09093,20.27643c-0.08501,0.20258 -0.17869,0.40041 -0.27959,0.5943c-0.56518,3.49668 -0.54678,7.05392 -0.54576,10.59407l2.18786,1.45857c0.68925,0.44514 1.14551,1.2201 1.14551,2.10163c0,1.21151 -0.86176,2.22174 -2.00574,2.45115l-2.95193,0.65598l-0.02298,-0.10341c-0.34043,0.0786 -0.68841,0.11841 -1.0464,0.10675z" fill="#671b72"></path><path d="M167.8108,244.1734c-0.44773,-1.25628 -0.14653,-2.66033 -0.18975,-3.99642c-0.00437,-0.0704 -0.00437,-0.10996 -0.00437,-0.10996v-2.66667c0,-7.76745 0.94122,-15.71225 2.76954,-23.14457c0.65139,-2.64796 -0.19926,-3.51558 0.27242,-6.37602c0.33343,-2.02205 1.52938,-3.80967 2.10429,-5.77673c1.05034,-3.59377 1.82818,-6.409 3.53019,-9.82279c0,0 0.14103,-0.28206 0.42309,-0.62653c0.26259,-1.63336 0.57831,-3.25289 0.92605,-4.86495c0.25196,-3.97557 0.32012,-7.99487 1.01638,-11.909c0.38139,-2.14403 1.80598,-3.97853 2.42444,-6.06655c1.49823,-5.05823 1.7573,-10.25162 3.76765,-15.29054c0.68568,-1.71866 0.83799,-3.76812 2.0658,-5.15248c0.05472,-0.06169 0.11,-0.1228 0.16582,-0.18336l-0.05668,-0.03149l1.63514,-2.94325c0.06928,-0.13052 0.14719,-0.25575 0.23298,-0.37493c0.25816,-1.13995 0.54868,-2.27514 0.88821,-3.40365c0.21548,-0.9237 0.46026,-1.85493 0.74141,-2.80326c2.0373,-5.19274 4.60733,-10.20808 6.75171,-15.36014c1.77292,-4.25959 2.75657,-8.75596 4.65401,-12.9704c3.2953,-7.31927 7.62355,-13.86521 10.74576,-21.20917c1.5704,-7.14654 7.10945,-12.83916 11.10577,-18.84063l0.01612,-0.07999l0.02346,0.01341l0.83473,-1.46078c4.53096,-1.25803 9.26643,-2.17433 13.50735,-3.7197c6.62267,-2.40728 15.25986,-5.38134 22.313,-5.01613c2.12001,0.10977 4.49482,-0.36762 6.3278,0.73756c2.06222,1.24338 3.76123,5.22957 5.30518,7.13534c1.11606,1.37761 2.79503,2.16369 4.00627,3.45276c2.68616,2.85878 4.19,6.57176 6.56118,9.56947c0,0 0.05696,0.07351 0.12907,0.20061c0.5032,0.31036 0.7548,0.82988 0.7548,0.82988c1.89104,3.90469 4.47165,7.01793 6.43673,10.83341c5.21864,10.13273 9.155,20.85172 14.87026,30.75043c3.56541,4.46081 4.92554,9.94949 6.23156,15.45689c1.24807,0.32774 1.24807,1.78015 1.24807,1.78015c0,0.942 -0.0744,1.88895 -0.11518,2.83338c0.47739,1.79715 1.01472,3.56545 1.6896,5.2685l0.62004,1.26603c0,0 0.21926,0.45276 0.19844,1.00256c0.47236,1.4019 0.78253,2.87706 1.45914,4.18331c0.69646,1.34459 2.09064,2.21986 2.75787,3.58015c1.53912,3.13784 2.00157,6.83771 2.85663,10.19087c0.86572,3.39499 3.73667,7.51389 6.20937,10.26287c0.07624,-0.00776 0.15626,-0.01183 0.2402,-0.01183c1.44096,0 1.72024,1.19935 1.77436,1.66424c0.21846,0.37755 0.43604,0.75566 0.65294,1.13417c0.71986,0.74809 1.38149,1.44312 1.43592,1.52726c0.72204,1.11608 1.14305,2.4516 1.57878,3.77947c0.13072,0.2297 0.2616,0.4593 0.39268,0.68879c1.47017,1.51182 2.35948,3.21004 3.31342,4.90357c1.29454,0.8577 2.72876,1.5338 3.77308,2.75048c0.78838,0.91849 1.42135,2.42973 1.93435,3.70414c0.17459,0.18231 0.33994,0.37087 0.49296,0.56795c0.52245,0.6729 0.96345,1.44954 1.38211,2.25602c1.57153,0.91985 3.30545,1.66455 4.57047,2.82247c1.7946,1.64267 2.92906,4.57495 4.54092,6.44737c1.00357,1.16581 2.58599,1.62145 3.80103,2.54829c2.22965,1.70078 3.3641,5.0641 4.57397,7.57512l1.30179,2.01598c0.12536,0.18814 0.21779,0.40149 0.26872,0.63117c0.09766,-0.01706 0.19801,-0.02594 0.30037,-0.02594c0.98714,0 1.78737,0.82617 1.78737,1.84532c0,0.50957 -0.20006,0.9709 -0.52351,1.30484l-1.70226,1.75745l-0.05646,-0.05829l-0.10743,0.20795c-2.31925,1.45134 -4.05715,3.15376 -5.96423,5.12268c-2.90329,2.99741 -6.20127,5.90453 -9.68365,7.90118c-0.40454,0.64506 -0.81994,1.27967 -1.38975,1.75067c-1.00051,0.82704 -2.2774,1.21913 -3.42112,1.8239c-0.10164,0.10236 -0.20903,0.19802 -0.32385,0.28503c-0.44438,0.33676 -0.90988,0.63308 -1.38834,0.90419c-4.24101,3.31349 -8.51162,6.65693 -12.69179,10.07985c-4.13089,2.15389 -8.66172,3.15878 -13.20812,4.19357c-0.82678,0.54016 -1.66126,1.0549 -2.5984,1.30274c-0.92066,0.2435 -1.87438,0.26513 -2.83149,0.27279c-1.53548,0.49729 -3.08149,0.92748 -4.63618,1.30294c-4.23778,1.75455 -8.07957,4.37599 -12.68542,5.47162c-5.01527,1.19302 -10.21401,1.40886 -15.26382,2.15365c-4.39187,-0.00357 -8.89359,0.38389 -13.27761,0.70298c-9.0239,0.6568 -18.31674,0.00464 -27.36283,0.00464h-0.68091c0,0 -0.39681,0 -0.81648,-0.19302c-2.84976,0.00167 -5.71484,-0.15585 -8.59741,-0.52421c-1.67953,-0.21905 -3.44998,0.11542 -5.06258,-0.41642c-0.77954,-0.25709 -1.25585,-1.17387 -2.04271,-1.40595c-0.85987,-0.25361 -1.81229,0.22374 -2.68277,0.01222c-1.50116,-0.36475 -2.80369,-1.40083 -4.31272,-1.72914c-2.83947,-0.6178 -5.85436,-0.59768 -8.7456,-1.03511c-1.56777,-0.23719 -3.01331,-1.02031 -4.54764,-1.42875c-1.70345,-0.45345 -3.51917,-0.1276 -5.26832,-0.32106c-3.61258,-0.39957 -7.22837,-0.93226 -10.83661,-1.39836c-0.5991,-0.03483 -0.97995,-0.28864 -1.22205,-0.59726c-0.28719,-0.30843 -0.49328,-0.77393 -0.40866,-1.47286c0.02103,-0.17369 0.05602,-0.32884 0.10214,-0.46741c-0.49596,-0.85997 -0.9775,-1.72792 -1.45674,-2.59714c-0.15848,0.0771 -0.31639,0.15559 -0.47371,0.23539c-0.06889,-0.5231 -0.14807,-1.0343 -0.23902,-1.52861c-0.47149,-0.85351 -0.94656,-1.70503 -1.43672,-2.54819c0,0 -0.59442,-1.02282 -0.03094,-1.91719c-0.00245,-0.02334 -0.00483,-0.04669 -0.00715,-0.07006c-4.48487,-1.97143 -9.01956,-5.05616 -10.44392,-9.05278z" fill="#290b2d"></path><path d="M208.49289,294.97776c0.74844,0.00807 1.29834,0.02065 1.39738,0.03996c1.74823,0.34096 3.33877,1.27082 5.07172,1.68249c1.10738,0.26306 2.39785,0.11075 3.32711,0.76798c0.10292,0.07279 0.20337,0.14837 0.30157,0.22644l0.03728,-0.06525l2.2912,1.30926c0.77572,0.42441 1.30179,1.24811 1.30179,2.19469c0,1.38071 -1.11929,2.5 -2.5,2.5c-5.55556,0 -13.77778,0 -19.33333,0c-1.30382,0 -6.40021,0.12493 -7.2052,-0.52949c-0.74829,-0.60832 -1.18263,-2.00244 -1.45966,-3.45272c-0.24662,-0.56137 -0.49323,-1.12273 -0.73985,-1.6841c-0.2426,-0.33943 -0.41114,-0.7941 -0.42735,-1.40317c-0.03511,-0.44969 0.02289,-1.00491 0.36457,-1.50444c0.18679,-0.29401 0.42756,-0.50891 0.67974,-0.666c0.30283,-0.50402 0.84557,-0.95344 1.81099,-1.07412c1.17144,-0.14643 1.85885,0.32947 2.25814,0.87259c0.03426,0.00428 0.06876,0.00858 0.1035,0.01291c1.55158,-1.74914 4.98556,-2.08536 6.74225,-2.22963c1.41799,-0.11645 3.25119,-0.60974 4.2491,0.40438c0.66587,0.67669 1.32791,1.61527 1.72906,2.5982z" fill="#99712b"></path><path d="M263.41497,300.87504c-1.47171,0.05239 -2.92942,0.09163 -4.3607,0.09163c0,0 -2.5,0 -2.5,-2.5c0,-2.5 2.5,-2.5 2.5,-2.5c6.63083,0 13.72283,-0.73673 20.30546,0.01873c1.77993,0.20428 3.54172,0.66667 5.33333,0.66667l0.26722,0.19057l0.03366,-0.13465l2.61593,0.65398c1.1133,0.25265 1.9444,1.24829 1.9444,2.43804c0,1.38071 -1.11929,2.5 -2.5,2.5h-3c-2.03847,0.54904 -4.22222,0 -6.33333,0c-3.66667,0 -7.33333,0 -11,0h-1c0,0 -1.71863,0 -2.30597,-1.42497z" fill="#99712b"></path><path d="M234.8876,63.13334l-2.83333,2.5c0,0 -0.94131,0 -1.66872,-0.5776l-1.38853,0.22898c-3.30169,0.34317 -5.76959,1.66101 -9.18909,1.33646c-1.48965,-0.14138 -6.50019,-1.30859 -7.70229,-2.00821c-2.73195,-1.59 -3.89079,-4.88162 -5.69685,-7.28512c-0.64383,-0.8568 -1.56176,-1.54606 -1.9811,-2.53235c-0.44244,-1.04061 -0.34718,-2.23471 -0.52077,-3.35206c0,0 -0.18108,-1.4486 0.84049,-2.27023c1.07024,-2.26791 4.60706,-3.18404 6.70865,-4.02648c4.62042,-1.85213 9.03875,-4.02697 13.48018,-6.24944l1.33343,-0.16616c0.78156,-0.30293 1.44697,-0.11725 1.93471,0.16735c0.44916,0.20184 0.91564,0.55735 1.16546,1.18351c4.81782,7.0075 5.51777,14.65225 5.51777,23.05137z" fill="#671b72"></path><path d="M220.20001,270.65035c-4.94198,0 -11.15749,0.63831 -15.9418,-0.80612c-2.50722,-0.75696 -4.94739,-3.00321 -7.47157,-3.61416c-0.75095,-0.18176 -1.55156,0.1673 -2.31707,0.06259c-2.12783,-0.29105 -4.05291,-1.42343 -6.06381,-2.17752c-0.41669,-0.15626 -0.83442,-0.30677 -1.25248,-0.45453c-1.32552,-0.15253 -2.67705,-0.24737 -4.06715,-0.26452l-0.46656,-0.36699l-0.08022,0.22061l-2.67879,-0.9741c-1.28516,-0.43353 -2.21055,-1.64881 -2.21055,-3.08022c0,-0.02867 0.00037,-0.05726 0.00111,-0.08576c-1.14612,-1.03868 -2.1685,-2.24716 -3.29987,-3.30076c-1.66881,-1.55409 -3.6044,-2.79966 -5.31044,-4.31279c0,0 -2.42908,-2.15918 -0.2699,-4.58826c2.15918,-2.42908 4.58826,-0.2699 4.58826,-0.2699c1.71785,1.53066 3.66806,2.79054 5.35623,4.35388c1.38687,1.28432 2.43696,3.0168 4.0973,3.92022c0.03558,0.01936 0.07116,0.03858 0.10676,0.05768c0.57669,-0.27608 1.18002,-0.3116 1.67246,-0.26584c1.56823,-0.58854 5.50354,0.96846 6.83583,1.40831c2.52528,0.83371 5.13479,1.40585 7.63932,2.29999c1.90752,0.681 3.81028,1.6296 5.76251,2.39733c0.33332,0.07181 0.66803,0.14149 1.0043,0.20867c2.58377,0.51617 5.26425,0.93211 7.93563,1.29964c0.97508,0.016 1.95659,0.01749 2.92317,0.02838c0.5377,-0.15079 0.95733,-0.15079 0.95733,-0.15079c11.60364,0 23.75799,1.34343 35.29562,-0.21808c4.308,-0.58305 8.48302,-2.44764 12.71,-3.44553l0.95614,-0.23936c0,0 2.90598,-0.72649 3.83572,2.00527c0.16092,-0.02281 0.32187,-0.04555 0.48286,-0.06819c5.92599,-0.83361 12.33599,-1.20447 18.09394,-2.91391c5.79274,-1.71976 10.6433,-5.30117 16.25787,-7.42191c3.61905,-1.36699 7.40532,-2.06174 11.06132,-3.27177c3.2517,-1.07622 6.35623,-2.97087 9.35448,-4.58411c3.83165,-1.76991 7.98238,-3.13662 11.73486,-4.99239c2.37988,-1.17696 4.41734,-3.38367 6.5192,-4.95153c2.29538,-1.71222 4.773,-3.1404 7.23782,-4.59741c1.04038,-3.92647 -0.55329,-8.12877 -2.58558,-11.64394h-0.00003c-0.6017,-1.04074 -0.86448,-2.29834 -1.34355,-3.40401c-0.33682,-0.46705 -0.68394,-0.92527 -1.05563,-1.36195c-0.22787,-0.26771 -0.47672,-0.51261 -0.7405,-0.74136c-0.59607,-0.31444 -1.25864,-0.54461 -1.75177,-0.99596c-0.24008,-0.21974 -0.4624,-0.44874 -0.67058,-0.68509c-0.59917,-0.38077 -1.1907,-0.77141 -1.72644,-1.22509c-2.06203,-1.74622 -2.60248,-3.21635 -4.08869,-5.39491c-0.04931,-0.07228 -0.09875,-0.1442 -0.14832,-0.21576c-0.46907,-0.25555 -0.92465,-0.52676 -1.29435,-0.90446c-1.68613,-1.72258 -3.08344,-4.63227 -4.73582,-6.53044l-0.04917,-0.2614l-0.09133,0.05812l-1.72392,-2.70902c-0.33767,-0.51248 -0.53418,-1.1262 -0.53418,-1.78583c0,-0.13264 0.00795,-0.26343 0.02339,-0.39191c-2.24653,-2.28302 -3.66412,-5.01991 -5.47377,-7.79966c-1.12862,-1.73363 -2.6542,-3.20435 -3.65856,-5.01281c-1.95832,-3.52616 -3.00064,-7.35947 -4.62322,-11.00364c-3.33038,-7.47976 -6.90821,-14.19885 -9.36989,-22.07258c0,0 -0.96939,-3.10206 2.13267,-4.07145c3.10206,-0.96939 4.07145,2.13267 4.07145,2.13267c2.39085,7.65416 5.89917,14.14608 9.13011,21.42742c1.55153,3.49658 2.53282,7.10346 4.37678,10.49636c0.7317,1.34634 2.53971,3.25995 3.34144,4.48719c2.12973,3.26008 3.49536,6.17422 6.66059,8.57498l1.84319,2.68067c0,0 0.48598,0.72896 0.57481,1.68225c1.05149,1.48974 2.44991,3.49983 2.60263,3.71339c0.89549,1.25221 1.8622,2.39083 2.82994,3.52552c0.56598,0.50552 1.02322,1.11431 1.46467,1.73842c0.54597,0.66552 1.08053,1.34808 1.5904,2.06845c0.07484,0.07732 0.1515,0.15292 0.23026,0.22655c2.40134,2.24507 5.65149,3.8024 7.79172,6.31891c0.67656,0.79551 0.88583,1.89824 1.44899,2.77769c1.01131,1.57928 2.63582,2.6695 3.90403,4.05099c0.09623,0.10483 0.19199,0.21161 0.28728,0.32024c2.01292,1.4336 3.69627,3.02953 4.13053,6.04594c0.01598,0.02776 0.03194,0.05552 0.04788,0.08328l1.90353,1.26902c0.89603,0.57868 1.48917,1.58613 1.48917,2.73212c0,1.76062 -1.39998,3.19425 -3.14745,3.24841c-0.07526,0.25324 -0.14832,0.50124 -0.21421,0.74155c-0.29809,1.08713 -1.36768,1.79248 -2.03278,2.70261c-1.02379,1.40095 -3.12623,4.50521 -4.4191,5.95829c-1.62681,1.82839 -3.73871,3.16183 -5.67822,4.65443c-3.09179,2.37937 -5.63765,5.65792 -9.00573,7.68172c-2.04575,1.22925 -4.50479,1.69229 -6.50091,3.00058c-4.4576,2.92159 -7.91686,5.88053 -13.09294,7.6328c-1.87524,0.46752 -3.73276,1.02059 -5.54799,1.68394l-1.76342,0.14617c-1.39699,0.34676 -2.79958,0.67518 -4.2059,0.99084c-0.0472,0.01951 -0.09432,0.03907 -0.14135,0.05866l-2.10885,0.79307c0,0 -1.05503,0.39564 -2.15561,0.09978c-4.09716,0.85651 -8.20913,1.65483 -12.28993,2.53183c-5.00309,1.07521 -9.69234,3.32022 -14.74122,4.04339c-7.39618,1.05939 -15.10665,1.52549 -22.57966,1.52953c-0.84714,0.06516 -1.6955,0.11526 -2.54453,0.15297c-1.04554,0.20863 -2.08747,0.31304 -3.11495,0.09229c-0.00655,-0.00141 -0.0131,-0.00284 -0.01963,-0.00428c-0.0652,0.00087 -0.13041,0.00169 -0.19561,0.00245v0.00897h-4c-1.00967,0 -1.9118,-0.46042 -2.5079,-1.18275c-5.3955,0.37476 -10.83708,0.18275 -16.2421,0.18275l0.3981,-1.7251c-3.11383,-0.04092 -6.22914,-0.06995 -9.34811,-0.06995zM311.62037,257.23487c1.64156,-0.61749 3.33346,-1.25635 4.83862,-2.06841c-0.29455,0.10007 -0.58821,0.20252 -0.88079,0.30785c-1.36874,0.49273 -2.6705,1.11082 -3.95783,1.76056z" fill="#51165a"></path><path d="M302.41776,150.47119c1.69892,0.82016 1.69892,2.92916 1.69892,2.92916c-0.09416,5.56332 2.81851,10.49742 -0.86339,15.77888c-0.83227,1.19384 -1.64558,2.65295 -3.0081,3.16428c-4.45752,1.67282 -7.72498,-1.3648 -10.13873,-4.8082c-1.13285,-0.59888 -2.23349,-1.41379 -3.26858,-2.31217c-1.97882,-0.33544 -3.9,-0.9556 -5.77901,-2.11306c-1.68101,-1.03549 -4.82607,-1.58135 -4.73847,-3.55374c0.13888,-3.12678 1.36426,-4.62117 3.00647,-5.3431c0.54556,-1.0288 1.62752,-1.72956 2.87315,-1.72956c0.35121,0 0.6894,0.05571 1.00624,0.15877l1.38726,0.41618c0.03739,-0.09544 0.07915,-0.19003 0.12552,-0.28373c0.94588,-1.91134 3.85625,-2.21572 5.98854,-2.25134c1.45285,-0.02427 2.56195,1.37235 3.82692,2.08736c0.24464,0.13828 0.49685,0.28716 0.75312,0.44616c0.45037,-2.31943 0.95013,-4.67472 1.37089,-7.04285c-3.4651,-1.34055 -6.65516,-3.61358 -9.48211,-5.8209c0,0 -0.01354,-0.01064 -0.03748,-0.03127l-2.91357,-2.01304c-0.49688,-5.76948 0.17518,-10.7837 0.67238,-16.47933c0.12105,-1.38673 -0.20229,-2.80216 0.02218,-4.17594c0.46427,-2.84132 2.02052,-4.64816 3.37718,-6.85263c-0.37239,-0.1228 -0.73088,-0.26115 -1.06567,-0.40578c-0.4465,-0.19289 -2.09591,-4.24406 -2.75976,-5.06852c-0.39643,-0.49233 -0.86814,-0.85583 -1.38392,-1.14373c-4.27505,-1.0611 -8.61674,-1.99942 -10.10324,-7.10635c-0.31841,-1.09392 -0.29279,-2.27304 -0.15447,-3.41935c-0.1074,-0.67698 -0.19305,-1.38246 -0.26914,-2.118l0.13674,0.00064l-0.0687,-0.4255l0.65398,-2.61593c0.09895,-0.43604 0.31188,-0.82879 0.60581,-1.14527c0.02475,-1.69193 0.11598,-3.44231 0.41037,-4.58595c0.5244,-2.03721 2.02473,-3.68914 3.49047,-5.25786c1.02181,-2.44309 2.27489,-4.7148 3.83028,-6.22308c1.72624,-1.67395 4.03726,-2.48197 6.50463,-2.77493c0.32218,-0.15339 0.65554,-0.30181 1.00132,-0.44516c0,0 1.46484,-0.58593 2.53265,0.33679c2.22347,0.09998 4.41209,0.47276 6.27149,0.87726l1.38643,1.29163c0.18926,0.10837 0.29964,0.19667 0.29964,0.19667c2.59382,2.07875 4.65659,4.42967 6.73488,6.78272l0.30973,0.07743l-0.01851,0.07405c0.15384,0.01949 0.30728,0.04638 0.46029,0.08162c1.40701,0.32411 2.61101,1.39046 3.78762,2.49127c0.62904,0.30073 1.24622,0.62227 1.83281,0.99817c1.04527,0.66983 2.04833,1.51793 2.99961,2.47668c4.31805,2.45811 8.30599,4.85841 9.7481,10.32856c0.10906,0.41368 0.08375,5.73546 0.08375,6.30834v0.44526c0.00286,0.07513 0.00262,0.14836 0,0.21904v0.00237c0,0 0,0.18052 -0.04851,0.44454c-0.04728,0.26424 -0.11067,0.43327 -0.11067,0.43327c-0.00028,0.00073 -0.00055,0.00147 -0.00083,0.0022c-0.02494,0.07481 -0.05376,0.15156 -0.08707,0.22904c-0.98595,2.56177 -2.35402,5.08843 -3.21195,7.67367c-0.86925,2.61938 -1.33493,5.38163 -2.43011,7.91488c-2.91943,6.75294 -6.73117,13.09139 -8.51884,20.24206l0.02284,0.32444c0.18985,0.59537 0.07292,1.161 -0.09859,1.58656c-0.12522,0.38873 -0.35472,0.83504 -0.7753,1.16528c-0.42269,0.50723 -0.84538,1.01446 -1.26807,1.52169c0.00086,0.00197 0.00172,0.00393 0.00258,0.0059l0.52452,-0.54354c0,0 0,0.56133 -0.26598,1.15202c0.40788,1.00697 0.67042,1.99358 0.19555,2.87693c-0.77288,1.43772 -3.14862,0.89585 -4.7629,1.13772c-0.56915,0.08528 -1.13365,0.13359 -1.69319,0.14823c-0.19245,1.0903 -0.39907,2.17806 -0.60998,3.26209zM293.99992,159.51641c0.00006,-0.00046 0.00012,-0.00093 0.00018,-0.00139c-0.26296,-0.1188 -0.70956,-0.32118 -1.17127,-0.53385c0.03318,0.06324 0.06614,0.12681 0.09891,0.19064c0.09518,-0.00276 0.19031,-0.00471 0.28536,-0.00563c0.36751,0.16343 0.62277,0.27713 0.78683,0.35024z" fill="#671b72"></path><path d="M302.0258,161.27713c-0.56858,-0.01443 -1.08358,-0.22813 -1.576,-0.52579c-3.84576,-0.08241 -7.08878,-0.7556 -10.84692,-2.62108c-3.39084,-1.75617 -5.68182,-4.11422 -7.06098,-7.01781c-1.1809,-0.08453 -1.90111,-1.16484 -1.90111,-1.16484l-0.95825,-1.59618c-0.67248,-2.13544 -2.14627,-5.07749 -0.61296,-7.39365c0.11875,-0.17937 0.24633,-0.35099 0.38141,-0.51603l-0.06341,-0.04755l1.98254,-2.64339c0.45492,-0.62044 1.18914,-1.02328 2.01746,-1.02328c0.28423,0 0.55739,0.04743 0.81198,0.13482c1.2553,-1.04326 2.80759,-0.11188 2.80759,-0.11188c0.70604,0.42511 1.51499,0.93301 2.38043,1.4566v-0.1462h2.66667c1.38071,0 2.5,1.11929 2.5,2.5c0,0.02244 -0.0003,0.04481 -0.00088,0.06711c0.63107,0.00807 1.24488,0.04955 1.82756,0.12099l0.00001,-0.00001c0.61112,0.07493 1.54881,0.41771 2.56824,0.86029c4.20703,-0.00098 9.15659,-0.99058 11.66134,3.14099c0.66024,1.08906 0.23586,2.53773 0.27708,3.81062c0.06044,1.8664 -0.67544,3.67345 -1.05106,5.50266c-0.20227,0.985 0.3334,2.10688 -0.09827,3.01507c-0.64616,1.35949 -1.63578,2.69165 -2.95696,3.41291c-0.44056,0.24051 -0.92953,0.31835 -1.4378,0.32845c-0.89614,0.3237 -1.99513,0.49075 -3.31772,0.45718z" fill="#170619"></path><path d="M306.29034,75.34556c-1.11803,2.23607 -3.3541,1.11803 -3.3541,1.11803l-0.15497,-0.14405c-2.80028,-0.72292 -7.10025,-1.31803 -9.95269,-0.38162c-0.79878,0.26222 -1.39499,0.96373 -2.17555,1.27601c-2.31855,0.92758 -4.91508,1.60946 -6.69813,3.63766c-1.07496,1.22276 -1.0112,3.34304 -1.59972,4.68692c-0.4007,0.91499 -1.24688,1.5964 -1.61192,2.5262c-0.66446,1.69246 -0.07219,3.66721 -0.48123,5.43574c0.62558,0.73432 0.62558,1.72706 0.62558,1.72706c-0.02073,1.45509 0.19924,2.9319 0.63866,4.32029l1.75041,2.04215c0.38059,0.43866 0.61093,1.01121 0.61093,1.63756c0,1.38071 -1.11929,2.5 -2.5,2.5h-3v-0.11881c-0.28268,0.01214 -0.56629,0.00375 -0.85106,-0.03051c-2.62273,-0.31555 -4.04446,-2.70927 -4.79969,-5.40665c-0.99158,-0.40692 -1.96527,-0.86738 -2.948,-1.29095c-1.10854,-0.47779 -2.61052,-0.26875 -3.4332,-1.15211c-2.07169,-2.22447 -1.80138,-4.87245 -1.80138,-7.50097c0,-2.89893 0.424,-6.92224 1.71715,-9.68879c0.10715,-2.55501 0.44536,-5.24756 1.52551,-7.38564c1.01563,-2.01037 2.90757,-3.44793 4.50189,-5.0389c1.74231,-1.73865 5.45605,-6.3009 8.49654,-5.70656c0.24445,0.04778 0.48401,0.10979 0.71948,0.18368l0.02971,-0.14857l3.28792,0.65758c0.36529,0.06561 0.70303,0.21057 0.99475,0.41639c2.2937,-0.2307 4.65876,-0.12072 7.04905,-0.11769c1.267,0.50412 2.43369,0.83464 3.34313,1.16286c2.16174,0.26283 4.18077,1.16566 4.93805,2.9808c0.44839,1.07475 0.95267,2.33611 1.1644,3.56292c0.57724,0.11065 1.13683,0.23291 1.67208,0.36324l1.17836,0.52262c0,0 2.23607,1.11803 1.11803,3.3541z" fill="#170619"></path><path d="M269.28134,152.51665c0.01807,-0.96174 0.41381,-2.18964 2.11086,-2.82603c3.04307,-1.14115 4.18422,1.90192 4.18422,1.90192c3.46082,9.73863 12.91692,12.80893 21.55371,16.48012c1.20428,0.5119 2.76705,0.3252 3.73644,1.20418c5.39754,4.89414 4.64764,6.78601 -2.19074,9.33849c-1.21166,0.45226 -2.59506,-0.11609 -3.86141,-0.37883c-4.41742,-0.9165 -8.36278,-3.4712 -12.11898,-5.82241c-2.99377,-2.24164 -5.92508,-4.03796 -8.15375,-7.14404c-1.7343,-2.41707 -2.9057,-5.2091 -4.65297,-7.64735l-0.87559,-2.91831c0,0 -0.22728,-1.13642 0.26821,-2.18775z" fill="#51165a"></path><path d="M284.66479,60.92571c0.07344,0.0928 0.14368,0.18764 0.21109,0.28427l0.04265,-0.03656l1.49274,1.74153c0.30447,0.35093 0.48874,0.80897 0.48874,1.31005c0,1.10457 -0.89543,2 -2,2h-2.5c-1.18328,-0.0505 -2.30414,0.35904 -3.34304,1.04677c-0.59857,0.72265 -1.20885,1.42836 -1.78245,2.10237c0.07736,0.15846 0.12549,0.3556 0.12549,0.60087c0,1.25 -1.25,1.25 -1.25,1.25c-0.34315,-0.01334 -0.6607,0.03085 -0.9559,0.12272c-0.93288,1.34989 -1.70388,2.73055 -2.27794,3.81573c-2.7668,5.23026 -5.48693,11.51144 -6.54825,17.4184c-0.34238,1.9056 0.31165,3.89937 -0.01148,5.80833c-0.16018,0.94634 -0.51921,1.83127 -0.95643,2.69169v1.64313c0,1.10457 -0.89543,2 -2,2c-1.10457,0 -2,-0.89543 -2,-2v-2.25c0,-0.42609 -0.00946,-0.86099 -0.02433,-1.30215c-1.47567,-0.31479 -1.47567,-1.94785 -1.47567,-1.94785v-1c0.01284,-0.95946 0.77804,-2.21852 0.08058,-2.87752c-0.1846,-0.17442 -0.41892,0.3104 -0.66562,0.3707c-0.88073,0.2153 -1.80422,0.22416 -2.68286,0.44784c-4.75731,1.21112 -9.01253,4.59913 -11.69477,8.61227c-0.78178,1.16969 -1.25521,2.60686 -2.32108,3.52515c-0.02937,0.0253 -0.05889,0.05039 -0.08856,0.07527c-0.67506,1.94458 -1.51715,3.85028 -2.0219,5.84195l-0.22857,0.18417l0.10926,0.06244l-0.98074,1.71629c-0.33953,0.62058 -0.99849,1.04143 -1.75575,1.04143c-1.05137,0 -1.91326,-0.81125 -1.99384,-1.84192c-0.68432,0.99728 -1.47667,1.94774 -2.4237,2.83342c-2.4207,2.26387 -6.01547,2.85823 -8.7112,4.66464c-3.53659,2.36987 -6.54788,4.57184 -10.63484,6.20335c-2.70428,1.07955 -5.19028,1.60714 -7.70329,2.55005l-0.75615,0.88217c-0.36687,0.43325 -0.9148,0.70829 -1.52697,0.70829c-1.10457,0 -2,-0.89543 -2,-2c0,-0.09481 0.0066,-0.18807 0.01936,-0.27937l0.23446,-1.87564c-0.01687,-9.24202 -0.85856,-19.10496 0.70118,-28.32082c-0.23843,-0.20278 -0.42868,-0.46051 -0.55116,-0.75362l-0.98146,-2.20828l0.0345,-0.01533c-0.03319,-0.04818 -0.06584,-0.09678 -0.09792,-0.14583c-2.66444,-4.07302 0.64451,-9.88068 2.01384,-13.59113c0.70165,-1.90124 0.93705,-3.98779 1.87929,-5.78201c1.93347,-3.6817 5.05122,-6.69197 7.9492,-9.81916c0.44694,-1.39911 0.82879,-2.8099 1.0699,-4.24924c0.49002,-2.92523 0.25657,-6.47706 -0.43189,-9.50998c-3.91117,-7.7959 -1.30989,-17.84446 -1.33931,-26.1996c-0.01081,-3.07003 -0.9732,-7.91981 1.84486,-10.13268c1.21043,-0.95048 3.24207,-0.89973 5.13874,-0.59105c-0.13815,-0.18089 -0.23359,-0.43086 -0.23359,-0.77627c0,-1.25 1.25,-1.25 1.25,-1.25h0.25c0.88386,0.01503 2.57403,0.37036 4.15844,0.94814c0.82213,-0.81568 1.73649,-1.4019 2.71622,-1.83955c0.87237,-1.30524 1.98763,-2.48808 3.06633,-3.72662l0.55902,0.09836v-0.23033h1.5v0c0.36892,0 0.70051,0.15982 0.92931,0.41399c2.55163,-0.99947 6.5721,-0.47278 8.99252,-0.15213c0.73832,0.09781 1.47885,0.20626 2.22071,0.32472c6.88813,-0.81002 13.79429,-0.42415 19.42446,4.40826l1.14798,1.72616c0,0 0.06965,0.11609 0.14251,0.30598c2.86721,2.08572 5.47419,4.40151 8.2898,6.65616c2.22534,1.78198 5.07488,3.8982 6.45993,6.48672c2.71924,5.08198 2.14278,11.29222 2.14278,16.83013c0,3.6949 0.25,7.31727 0.25,11c0,0.86635 0.0918,1.92305 0.07649,2.95663c0.60596,0.39703 1.48843,0.42561 1.93829,0.99407z" fill="#400d48"></path><path d="M206.82726,52.35407c-0.97073,-1.45609 0.48536,-2.42681 0.48536,-2.42681l1.97073,-0.96058c0.66667,0 1.33333,0 2,0c0,0 1.75,0 1.75,1.75c0,1.75 -1.75,1.75 -1.75,1.75c-0.66667,0 -1.33333,0 -2,0l-0.02927,0.37275c0,0 -1.45609,0.97073 -2.42681,-0.48536z" fill="#331240"></path><path d="M293.05494,66.80061c1.24939,-1.56174 2.81113,-0.31235 2.81113,-0.31235l0.08601,0.07458c0.27281,-0.44379 0.76751,-0.84617 1.6646,-0.84617c2,0 2,2 2,2c-0.00986,0.16312 -0.01971,0.32625 -0.02957,0.48937c0.14323,0.31502 0.23654,0.64215 0.29461,0.97783l0.29899,-0.09966l0.6519,1.95571c0.07599,0.21136 0.1174,0.43922 0.1174,0.67674c0,1.10457 -0.89543,2 -2,2c-0.70523,0 -1.3252,-0.36501 -1.68131,-0.91641l-1.11305,-1.66957c-0.22809,0.05503 -0.45931,0.08303 -0.68773,0.07887l-2.10064,-1.59782c0,0 -1.56174,-1.24939 -0.31235,-2.81113z" fill="#99712b"></path><path d="M283.33369,72.97622c-0.0052,-0.0365 -0.00992,-0.07378 -0.01418,-0.11168c-0.22461,0.03489 -0.30298,0.06584 -0.08272,0.08975c0.02988,0.00324 0.06251,0.01079 0.09691,0.02192zM284.62572,68.72139c1.40877,-0.30791 2.11315,1.10086 2.11315,1.10086l0.54448,1.56109c-0.00468,1.48787 0.22994,4.86521 -1.30172,5.71341c-1.66941,0.92448 -6.35556,-1.29755 -6.65172,-3.28436c-0.60161,-4.03596 2.34489,-4.19759 4.73733,-5.01876c0,0 0.23229,-0.06637 0.55848,-0.07224z" fill="#99712b"></path><path d="M278.36423,87.79755c-1.41421,1.41421 -2.82843,0 -2.82843,0l0.18645,0.04131c-0.52615,-0.37782 -1.25973,-0.62086 -1.87364,-0.94165c-0.21209,-0.08829 -0.40572,-0.21204 -0.57347,-0.36385c-0.27625,-0.22279 -0.48025,-0.49253 -0.55487,-0.84633c-0.06718,-0.20009 -0.10359,-0.4143 -0.10359,-0.63702c0,-0.125 0.01147,-0.24732 0.03341,-0.36596l0.32714,-1.96283c0,0 0.3288,-1.97279 2.30159,-1.64399c0.0012,0.0002 0.00239,0.0004 0.00359,0.0006c0.1087,-0.01829 0.22038,-0.02781 0.33428,-0.02781c1.10457,0 2,0.89543 2,2c0,0.33591 -0.08281,0.65249 -0.22914,0.93041l-0.19378,0.38755c0.11258,-0.04813 0.22285,-0.092 0.31734,-0.10682l0.85312,0.70797c0,0 1.41421,1.41421 0,2.82843z" fill="#99712b"></path><path d="M304.47101,146.18636c0.22532,-0.54104 0.72117,-1.13635 1.81232,-1.13635c2,0 2,2 2,2c0,0.66667 0,1.33333 0,2v2c0,1.10457 -0.89543,2 -2,2c-0.79841,0 -1.48754,-0.46784 -1.80823,-1.14433l-0.98062,-1.96125l-0.21115,-1.89443c0,0 0,-1.413 1.18768,-1.86365z" fill="#99712b"></path><path d="M296.40108,145.38571c1.88226,0.07691 1.88226,1.99763 1.88226,1.99763v1.33333c-0.19526,1.24918 0.45382,3.02796 -0.58579,3.74755c-6.63023,4.58923 -5.34696,-3.90265 -4.20307,-6.30864c0,0 0.89443,-1.78885 2.68328,-0.89443c0.07965,0.03983 0.15398,0.08143 0.22331,0.12456z" fill="#99712b"></path><path d="M287.84085,143.96334c-0.02578,0.57171 -0.06052,1.13933 -0.39795,1.56875c-0.10447,0.13296 -0.21559,0.25918 -0.33224,0.37977l0.06775,0.0542l-1.32179,1.65224c-0.36617,0.46584 -0.93479,0.76504 -1.57328,0.76504c-1.00387,0 -1.83499,-0.7396 -1.97819,-1.70363l-0.32793,-1.96757l0.48645,-0.08107l-0.36142,-1.01309c0.62815,-0.52622 1.25631,-1.05244 1.88446,-1.57866c0.10244,-0.57189 0.49082,-1.65598 1.9633,-1.65598c0.85628,0 1.34595,0.3666 1.62597,0.7859c0.11451,0.10629 0.22668,0.23355 0.33483,0.38496c0.76448,1.07027 0.32237,1.93944 -0.06997,2.40915z" fill="#99712b"></path></g><g fill-opacity="0.37647" fill="#160a1f"><path d="M210.16602,298.70044h1.60452v0c1.65685,0 3,1.34315 3,3c0,1.58839 -1.23444,2.88846 -2.79629,2.99319l-4.30696,0.3313l-0.01032,-0.13415c-0.19352,0.04651 -0.38889,0.08692 -0.58632,0.12051c-2.19942,0.37421 -4.25848,-1.53464 -6.48653,-1.64999c-1.5398,-0.07972 -6.40882,0.28014 -7.32649,-0.62959c-1.07201,-1.06273 -1.65811,-2.24319 -1.84681,-3.43086c-0.48431,-0.53661 -0.81864,-1.33905 -0.58203,-2.5221c0.28719,-1.43594 1.13511,-2.03078 1.92792,-2.2635c0.53442,-0.69174 1.20276,-1.30971 1.97441,-1.81565c1.78432,-1.16993 7.68831,-0.33118 9.89249,-0.3267l0.1766,0.09008l0.00909,-0.07271l2.62718,0.3284c1.50033,0.16549 2.66738,1.43734 2.66738,2.98177c0,0.62239 -0.18953,1.20051 -0.51402,1.6798c0.2332,0.4247 0.43305,0.86318 0.57617,1.3202z"></path><path d="M259.43721,302.70044c0,0 -3,0 -3,-3c0,-3 3,-3 3,-3c3.88739,0 7.70727,-0.07039 11.51916,0.14048c1.04312,-1.03259 2.64071,-0.76633 2.64071,-0.76633l2.72522,0.55108c0.93867,0.41938 2.31941,0.3586 2.81973,1.25412l3.09268,0.9278c1.26976,0.34926 2.20251,1.51212 2.20251,2.89285c0,1.65685 -1.34315,3 -3,3c-0.32419,0 -0.63637,-0.05142 -0.92883,-0.14656l-3.16515,-0.94954c-5.93698,-1.18484 -11.87594,-0.9039 -17.90602,-0.9039z"></path><path d="M283.85504,139.79885c-0.33815,1.70226 -0.24033,4.2422 -0.23837,5.91783v3c0,0.70321 -0.24195,1.3499 -0.64714,1.86139l0.07827,0.74355c0.02146,0.00977 0.04292,0.0194 0.06437,0.02888c1.50447,0.66483 2.90038,1.56688 3.93554,2.6725c0.6294,-0.07515 1.23585,0.15328 1.8375,0.44508c0.26145,-0.06465 0.55522,-0.10097 0.88532,-0.10097c1.64177,0 2.38507,0.89847 2.72159,1.71202l0.39662,0.16998c1.10303,0.44334 1.88179,1.52306 1.88179,2.78467c0,1.44338 -1.01934,2.64869 -2.37741,2.93531c-0.27372,0.9407 -0.76946,1.7747 -1.67557,2.33686c0.11108,0.33912 0.21363,0.68745 0.30751,1.04473c0.24974,0.95043 0.45967,2.92254 0.41293,4.79921l0.00848,0.0098c0,0 1.87409,2.34261 -0.46852,4.21669l0.00001,0.00001c-0.84841,0.67872 -1.63536,0.80438 -2.29409,0.68854c-2.01738,0.34693 -4.35784,-0.78181 -6.24512,-1.95763l-0.65234,-0.14496l0.03642,-0.16391c-0.30805,-0.03655 -0.61359,-0.0961 -0.91598,-0.18433c-1.45492,-0.4245 -2.21663,-1.47603 -2.82492,-2.64554c-3.87185,-3.33876 -6.10018,-7.51769 -7.84258,-12.18325c-0.22741,-0.18835 -0.45849,-0.36439 -0.69546,-0.52071l0.04118,-0.93446l-0.39164,0.09791l-0.65035,-2.6014c-0.06903,-0.25256 -0.10589,-0.51841 -0.10589,-0.79287c0,-1.65685 1.34315,-3 3,-3c0.32456,0 0.63708,0.05154 0.92982,0.14688c-1.99056,-1.89805 -3.78659,-3.97714 -5.71821,-5.9553c-1.723,-0.51871 -3.04865,-1.22643 -4.22128,-2.1227c-1.29619,4.46452 -2.14484,9.10254 -2.7441,13.64878l-0.25804,0.27791l0.15413,0.0578l-0.97541,2.60109c-0.40837,1.17156 -1.5228,2.01221 -2.83358,2.01221c-0.58361,0 -1.12829,-0.16665 -1.58907,-0.45495c-1.68589,2.13178 -3.50492,4.19412 -4.7916,6.58418l-0.02789,0.01827l0.01328,0.00759l-1.30444,2.28277c-0.50929,0.93086 -1.49774,1.56215 -2.63362,1.56215c-0.24593,0 -0.48495,-0.02959 -0.71369,-0.08541c1.04985,4.83242 2.10982,9.65911 2.98768,14.49156c0.86043,3.87927 1.27897,8.47069 2.56259,12.28383c0.31346,0.93114 0.62867,1.86819 0.91011,2.81387c0.49171,0.73047 0.57176,1.53095 0.57176,1.53095c0.05035,0.51674 0.10757,1.02781 0.17138,1.53379c0.06552,0.37583 0.1202,0.7534 0.16196,1.13288l0.28996,1.37683c0,0 0.05586,0.27926 0.0471,0.68291c0.99654,5.34264 2.7165,10.23231 4.80357,15.47556c0.73548,1.84771 0.93293,3.88255 1.68791,5.72238c1.04096,2.53672 2.80016,4.7606 3.67601,7.35896c1.6551,4.91009 2.62619,10.13941 4.02995,15.08748c1.01423,3.57503 4.63267,6.34959 6.45875,9.51216c1.25419,2.55246 2.89257,4.46858 4.04044,7.07831l0.95569,1.66493c0.25485,0.31816 0.46677,0.73472 0.6026,1.27806c0.05628,0.22513 0.0908,0.43719 0.10658,0.63687c0.03381,0.40151 -0.00382,0.85133 -0.19387,1.29545c-0.18916,0.44451 -0.48789,0.7829 -0.80117,1.03629c-0.15508,0.12677 -0.33207,0.24858 -0.53355,0.36372c-0.51798,0.29599 -0.99181,0.43011 -1.41857,0.45504c-4.10481,0.87038 -8.1878,0.6069 -12.40318,0.6069c-3.9547,0 -8.17391,0.37825 -12.15417,0.08848c-0.6984,0.29703 -1.4082,0.55552 -2.14055,0.73775l-0.03862,0.17377c-3.77541,-0.00422 -7.12077,-0.45292 -10.83256,-0.67126c-4.50752,-0.26515 -9.10282,0.22811 -13.56984,-0.75369c-1.24821,-0.27434 -2.50635,-0.58008 -3.76983,-0.90838h-0.1611c-5.09238,-0.00602 -9.91219,-0.78543 -14.88419,-1.71768c-4.18747,-0.78515 -8.23644,-1.49009 -12.10226,-2.9078c-5.25563,-0.41083 -10.34148,-1.51969 -13.71058,-5.49932c-2.86011,-1.97512 -5.87677,-3.61629 -8.77214,-5.49656c-1.92282,0.00892 -2.67315,-1.99193 -2.67315,-1.99193v0.00001l-1.14287,-3.18476c-0.00473,-0.34697 -0.00919,-0.69395 -0.0134,-1.04093l-0.50126,-1.53538c0.16133,0.00538 0.32279,0.00951 0.48436,0.01258c-0.08141,-8.07162 -0.03593,-16.1478 -0.00762,-24.21899c0.68,-4.13983 1.73557,-7.81638 2.75024,-11.83017c0.63915,-2.52833 0.33807,-5.24031 1.02443,-7.75624c0.26298,-0.96399 1.04785,-1.72631 1.33795,-2.68249c0.55276,-1.82188 0.23644,-3.81043 0.59114,-5.68098c0.99116,-5.22704 2.02394,-10.46026 3.0037,-15.68687c0.92985,-4.96035 3.14673,-9.52097 4.4432,-14.28696c-0.48068,-1.23079 0.15584,-2.50383 0.15584,-2.50383l1.20296,-2.36587c0.76585,-3.14607 2.15065,-5.91419 3.38872,-8.76216c-0.29184,0.38353 -0.51587,0.62815 -0.62175,0.6475c-5.82322,1.06433 -6.10859,-3.70369 -7.25485,-7.07552c-0.00108,-0.12831 -0.00984,-0.71378 -0.0179,-1.50086c-2.14487,-4.63184 -0.87644,-11.04854 2.05307,-14.56705c2.15901,-2.5931 5.16168,-6.1659 8.44461,-7.30579c0.64505,-0.22397 1.36158,-0.61954 2.079,-0.96936c1.6895,-2.10182 3.48635,-4.07197 5.2881,-5.88056c0,0 1.61411,-1.61411 3.43436,-0.61839c0.16943,-0.51891 0.3384,-1.03372 0.50758,-1.54232c0,0 0.65582,-1.96744 2.51271,-2.08545v-0.53005c-0.52932,-5.72187 -2.28783,-11.54749 -1.99541,-17.26838c0.41082,-8.03733 4.25054,-15.40992 8.0388,-22.28957c0.84825,-1.54047 3.29848,-5.79203 4.16411,-6.60118c-1.62366,-1.50014 -3.23544,-3.27307 -4.24874,-5.10994c-0.87463,-1.58549 -2.89612,-3.3115 -2.18113,-4.97511c1.4614,-3.40031 3.47475,-3.90165 5.48242,-3.21887c-0.02224,-1.40625 0.09553,-2.81794 0.33312,-4.20476c-0.31579,-3.01937 0.05697,-6.46505 0.0735,-9.16844c0.00857,-1.40071 -0.56662,-2.94332 0.04814,-4.20194c0.07942,-0.16259 0.16529,-0.32087 0.25685,-0.47536l-0.11398,-0.04274l0.97541,-2.60109c0.14783,-0.42411 0.38819,-0.80486 0.6969,-1.11805c0.05752,-0.36338 0.11926,-0.72914 0.18507,-1.09748c0,0 0.53666,-2.95161 3.48827,-2.41495c2.95161,0.53666 2.41495,3.48827 2.41495,3.48827c-0.55432,2.98918 -0.78178,5.72066 -0.58256,8.39324c0.06669,0.04604 0.13143,0.09472 0.19406,0.14587c1.03844,0.07865 1.92922,0.68597 2.40385,1.55348l0.83279,1.45739c0.40534,-0.08777 0.81087,-0.17466 1.21659,-0.26071c0.10526,-0.77264 0.53932,-1.62206 1.76525,-2.16692c2.74143,-1.21842 3.95985,1.52302 3.95985,1.52302c0.02128,0.04787 0.04255,0.0957 0.06382,0.14347c0.63946,0.31462 1.23774,0.92574 1.46982,2.08616c0.09785,0.48923 0.09806,0.91338 0.0304,1.28055c2.10734,4.82235 3.74537,9.4227 3.00538,15.07479c-0.29243,2.23358 -1.71204,6.30192 -3.97752,8.82101v2.14578c-0.0074,8.91561 -0.59052,17.10968 -4.18,25.30741c0.11647,0.32008 0.18,0.66558 0.18,1.02592c0,0.22288 -0.0243,0.44008 -0.07041,0.64909l-0.65452,3.27259l-0.17399,-0.0348l0.0243,0.54394c-0.95314,1.57792 -1.90629,3.15584 -2.85943,4.73376c-2.62435,4.84212 -5.96706,9.01516 -8.45958,13.93165c-0.06222,1.21424 -0.04766,2.43425 0.03261,3.64735c0.2851,-0.18132 0.49779,-0.3203 0.59673,-0.40049c5.75759,-4.66646 14.33451,-5.43868 19.44298,-10.79775c0,0 0.17908,-0.17908 0.48522,-0.38115c1.55336,-4.84148 2.12073,-9.61272 3.01509,-14.68555c0,0 0.03195,-0.18108 0.12487,-0.44566c0.13686,-1.13371 0.32382,-2.25691 0.57078,-3.36465c0.1855,-0.83209 0.21986,-1.76917 0.46027,-2.59143c0.05799,-0.39148 0.13295,-0.77928 0.22768,-1.16276c0.14926,-0.60422 0.42864,-1.15898 0.74776,-1.69863c0.66152,-3.81135 2.3114,-7.24209 3.24589,-11.01022c0,0 0.72761,-2.91043 3.63803,-2.18282c2.91043,0.72761 2.18282,3.63803 2.18282,3.63803c-0.44417,1.7642 -1.06303,3.46168 -1.65147,5.16188c0.25919,0.44372 0.40771,0.95999 0.40771,1.51094c0,0.43665 -0.09329,0.85152 -0.26102,1.22575l-2.12687,5.05132l-0.24176,1.05173c-0.00653,0.03363 -0.01318,0.06724 -0.01995,0.10082c-0.36888,2.21974 -0.19187,4.58063 0.00392,6.95542c1.68441,-0.95618 3.32788,-1.90684 5.05489,-2.99564c0.03597,-0.02268 0.08968,-0.05277 0.15836,-0.08948c1.18545,-1.28821 2.44201,-2.49902 3.85524,-3.51854c0.17597,-0.12695 0.37593,-0.26016 0.59642,-0.3969c0.22989,-1.31625 0.06224,-2.75481 0.45874,-4.03851c0.06144,-0.19891 0.12509,-0.39751 0.19076,-0.59578c0.40016,-2.07869 1.1127,-4.03845 1.99794,-5.95016v-2.20048c-0.46393,-2.0595 0,-4.22222 0,-6.33333c0,-4.22483 -0.08366,-8.18211 0.68458,-12.32735c0.28832,-1.55569 -0.44956,-3.66305 0.75773,-4.68567c1.61829,-1.37074 4.14672,-1.58186 6.24006,-1.24168c5.9347,0.96441 5.31475,6.2993 5.31763,10.58803c0.00215,3.19348 0.48293,7.27911 -0.029,10.4161c-0.81889,5.01798 -3.44422,9.54862 -5.54718,14.17217c0.46239,0.2004 0.86867,0.48609 1.19857,0.87304c0.22221,0.26064 0.37127,0.54846 0.4654,0.85671c0.75023,0.06513 1.58133,0.44236 2.20134,1.55839c1.45693,2.62247 -1.16554,4.0794 -1.16554,4.0794c-0.50455,0.26536 -0.98857,0.58554 -1.47723,0.89334c-0.04986,2.19206 -0.27601,3.8989 -0.70049,5.5663l0.36114,0.04815l-0.43502,3.26262c0.3013,0.01316 0.59465,0.07554 0.87646,0.20939c0.08242,0.03915 0.16354,0.08004 0.24337,0.12261c0.51037,-0.40183 1.15435,-0.64155 1.85432,-0.64155c0.60065,0 1.16007,0.17652 1.62922,0.48052l2.62744,1.64215l-0.02711,0.04337c0.06565,0.02302 0.13113,0.04657 0.19646,0.07067c1.87991,0.69354 3.16527,2.49479 4.93974,3.42554c2.25469,1.18262 4.71114,2.78615 6.79346,4.74917c0.00498,-0.5852 0.00938,-1.17022 0.01253,-1.75499l0.20393,-0.29002l-0.1504,-0.03342l0.65385,-2.94232c0.13522,-0.6743 0.49652,-1.2669 1.00146,-1.69536c-1.06008,-0.87875 -1.06008,-2.3782 -1.06008,-2.3782l0.39527,0.48842c-0.8989,-1.57327 -3.87209,-6.6188 -3.72846,-7.51812c0.08691,-0.54414 0.18804,-1.03964 0.30198,-1.48953l-0.14511,-0.59012c-1.38638,-3.4009 -2.09249,-9.11313 -1.11825,-12.77162c0.46514,-1.74669 0.81813,-3.79648 2.20713,-4.95318c0.41372,-0.34453 0.91464,-0.48892 1.45535,-0.54198c0.10059,-0.34528 0.28033,-0.71037 0.56544,-1.09052c1.8,-2.4 4.2,-0.6 4.2,-0.6c2.53785,1.90339 4.98376,4.14447 7.58001,5.93739c2.26971,1.56741 4.80467,2.79157 7.3069,4.06173c3.92122,-0.94611 10.52704,2.24503 12.19838,5.15702c0.85446,1.48875 0.43618,3.40524 0.65427,5.10785c-0.97217,1.24789 -1.78051,2.64284 -2.91652,3.74367c-1.61937,1.56924 -3.03174,1.17579 -4.01244,3.20376c-1.85399,3.83381 -3.17635,8.29101 -4.40379,12.38395l-0.2425,0.98092c-0.38816,4.04859 -0.16853,8.07817 -0.64617,12.12517c-0.15371,1.30241 0.01381,2.71723 -0.56636,3.89338c-3.29283,6.67536 -8.81476,4.76186 -13.66232,1.69044c-0.2541,-0.161 -0.51784,-0.32506 -0.78696,-0.49358c-0.03126,-0.00944 -0.06246,-0.01891 -0.09359,-0.02841c-0.5483,0.59633 -1.33497,0.97003 -2.20892,0.97003c-0.70017,0 -1.34431,-0.23986 -1.85475,-0.6419c-0.49613,0.51608 -0.92542,1.05914 -1.06073,1.7403zM280.77824,133.95322c0.19486,-0.15711 0.36496,-0.3331 0.47682,-0.5546c0.24115,-0.47755 0.10282,-1.05208 0.08886,-1.60128c-0.0148,-0.01031 -0.02958,-0.02063 -0.04436,-0.03094c-0.00004,0.09852 -0.00532,0.19753 -0.01625,0.297c-0.06811,0.61962 -0.24191,1.25422 -0.50507,1.88982z"></path></g><path d="M213.28334,301.30001c0,3 -3,3 -3,3l-3.18641,-0.0058c-1.50778,-0.18847 -3.03891,-0.1345 -4.55332,-0.2499c-1.0518,0.12571 -2.04611,0.17302 -2.77749,0.25198l-0.14944,-0.06214v0.06587h-2.66667c-1.26392,0 -2.34529,-0.78162 -2.78711,-1.88787c-5.334,-4.2096 -0.99876,-9.67736 4.64569,-10.10879c3.00879,-0.22998 8.33383,2.36461 9.36111,6.00102l2.11364,-0.00435c0,0 3,0 3,3z" fill-opacity="0.37647" fill="#160a1f"></path><path d="M277.95,299.63334c0,3 -3,3 -3,3l-3.51975,-0.0058c-4.02197,-0.49451 -8.02356,-1.00196 -12.06272,-1.3379c0,0 -2.98964,-0.24914 -2.7405,-3.23877c0.24914,-2.98964 3.23877,-2.7405 3.23877,-2.7405c3.99809,0.3338 7.95843,0.82204 11.93728,1.32877l3.14692,-0.0058c0,0 3,0 3,3z" fill-opacity="0.37647" fill="#160a1f"></path><path d="M295.20667,119.75601c2.54399,1.59 0.954,4.13399 0.954,4.13399c-2.0213,3.15064 -3.26428,6.98159 -3.21066,10.74334l-1.6,3.13333c0,0 -1.63939,2.18586 -3.87515,0.8209c-0.53369,0.82961 -1.4651,1.3791 -2.52485,1.3791c-0.53707,0 -1.04117,-0.14113 -1.47726,-0.38832c-0.82181,2.84637 -1.98654,6.11042 -3.91527,8.38889c0.01968,-0.00038 0.03941,-0.00057 0.05919,-0.00057c1.15804,0 2.16283,0.65615 2.66287,1.61695l0.78758,1.44389c0.88609,-0.17279 2.48122,-0.16939 3.30699,1.7574c0.10544,0.24602 0.17952,0.47949 0.22699,0.7007c0.5169,0.3967 1.00413,0.89897 1.5395,1.22995l2.24726,1.28415c0.93086,0.50929 1.56215,1.49774 1.56215,2.63362c0,0.74966 -0.27497,1.4351 -0.72956,1.96096c-0.50592,2.69961 -3.30921,2.3492 -3.30921,2.3492l-3.95866,-0.81402c-0.51521,-0.75486 -0.97843,-1.54894 -1.50706,-2.29368c-0.84926,-0.0451 -1.69459,-0.15469 -2.36468,-0.62542c-1.32186,-0.92857 -1.95904,-2.56912 -2.93856,-3.85367l0.17374,-0.79331l-0.35112,0.03511l-0.32932,-3.29318c-0.01249,-0.11116 -0.0189,-0.22417 -0.0189,-0.33867c0,-0.26428 0.03417,-0.52057 0.09834,-0.76471c-1.07863,0.49544 -2.31419,0.7285 -3.73544,0.60342c-1.23945,-0.10909 -1.25712,-2.18509 -2.15089,-3.05072c-0.33625,-0.32566 -0.91975,-0.1908 -1.36006,-0.34968c-2.1523,-0.77663 -6.71088,-2.61979 -8.11701,-4.13787c-0.17831,-0.19251 -0.33981,-0.39326 -0.48599,-0.60127c-0.19799,-0.01934 -0.39295,-0.03237 -0.58228,-0.0325c-1.35324,-0.00093 -2.79949,0.31277 -4.05518,-0.19169c-1.15842,-0.46539 -4.36477,-3.72815 -5.721,-4.72396c-0.55798,-0.4097 -1.1554,-0.82141 -1.77908,-1.21565c-3.48382,-0.2462 -7.98809,-0.70874 -11.25398,-2.66531c-0.05099,-0.0023 -0.1018,-0.00473 -0.15243,-0.0073c-0.02294,0.73283 -0.03833,1.44824 -0.03833,2.13725v0.33333c0,0 0,3 -3,3c-1.76178,0 -2.48894,-1.03463 -2.78907,-1.88869c-0.17471,0.14194 -0.35695,0.27342 -0.55149,0.38794c-0.52316,0.30795 -1.57572,-0.16244 -1.77415,0.41128c-0.37612,1.08746 0.38441,2.2739 0.44805,3.42281c0.08602,1.55318 0,3.11111 0,4.66667c0,10.48137 -0.33034,20.81187 1.15473,31.20383c1.00227,7.95107 3.15043,15.68679 3.653,23.73946l1.30013,1.64633c0,0 1.44265,2.01972 -0.13358,3.69716c1.65749,6.1949 3.41171,12.36241 4.93185,18.63535c1.05853,4.36808 3.91164,8.04438 4.72179,12.59733c0.21674,1.21806 -0.15616,2.48518 0.00694,3.71157c0.25052,1.88369 2.46193,6.34101 2.87481,7.4779c0.54341,1.4963 0.6302,3.41901 1.45476,4.84981c0.99201,1.72137 2.33985,3.21626 3.38329,4.90695c2.39249,2.37903 4.07589,4.75453 5.86292,7.61099l0.99676,0.58072c0,0 1.69991,1.35993 1.04514,3.21094c0.05197,0.23919 0.08078,0.50436 0.08078,0.79833c0,3 -3,3 -3,3c-8.77251,0 -18.04032,0.84926 -26.75276,-0.3628c-1.66038,-0.23099 -3.17544,-0.70986 -4.64129,-1.27983c-16.69605,0.10045 -35.34783,0.02698 -47.96482,-11.81108c-1.53153,-1.43698 -3.80543,-1.9089 -5.34159,-3.34092c-1.01263,-0.94398 -1.5489,-2.29593 -2.37003,-3.41049c-0.61552,-0.83547 -1.72024,-1.42193 -1.93773,-2.4366c-0.04707,-0.21957 -0.0836,-0.44021 -0.11129,-0.66173l-0.12424,0.03106l-0.65035,-2.6014c-0.04272,-0.15629 -0.07311,-0.31766 -0.09008,-0.48302c-0.98097,-1.19305 -1.62848,-2.71383 -1.95454,-4.03999c-1.30801,-5.32007 0.79112,-11.44198 2.04969,-16.41156c1.12038,-4.42394 0.57444,-8.63143 1.26111,-13.00551c0.54399,-3.46523 1.90381,-7.11662 2.7117,-10.55678c0.9241,-3.93502 1.30787,-7.71919 2.70707,-11.48351c0.2889,-1.3127 0.61393,-2.61722 0.95905,-3.91664c0.03552,-1.83611 -0.0616,-3.68591 0.30714,-5.47804c0.4501,-2.18751 0.75473,-4.41281 1.38602,-6.55506c0.34467,-1.16962 1.95557,-4.12355 2.31072,-5.58041c0.95571,-3.92046 1.86035,-7.73814 3.2484,-11.5108c-0.0639,-0.89373 -0.09254,-1.77578 -0.04302,-2.62369c-0.58024,-0.21466 -1.07596,-0.60363 -1.42358,-1.10334l-1.64343,-2.3008l0.10383,-0.07416l-0.27709,-0.1983c-0.64508,-1.55946 -1.12916,-3.43041 -1.42249,-5.43281c-0.66578,-0.98486 -1.32715,-1.97254 -1.95494,-2.9818l-0.0213,-0.24147l-0.07758,0.03325l-0.97388,-2.27238c-0.17256,-0.37864 -0.26869,-0.79945 -0.26869,-1.24272c0,-1.65685 1.34315,-3 3,-3c0.14751,0 0.29253,0.01065 0.43435,0.03121c0.33828,-1.7731 0.86826,-3.42483 1.61152,-4.82448c1.8986,-3.57525 5.78461,-5.37412 8.40784,-8.23228c3.4163,-3.72224 5.64875,-7.36212 10.35128,-9.57352c0.52202,-1.30722 0.98672,-2.62815 1.2522,-3.98389c0.9952,-5.08227 1.13858,-10.41573 2.6045,-15.38433c-0.07879,-0.15378 -0.14468,-0.31525 -0.19627,-0.48299l-1.31146,-3.93437l0.02589,-0.00863c-0.02018,-0.03368 -0.04025,-0.06745 -0.0602,-0.10129c-1.99537,-3.3858 -0.45151,-7.6683 0.7372,-10.88989c1.8756,-5.08316 4.25,-10.14745 6.65642,-15.00926c-0.90401,-0.5168 -1.51326,-1.49039 -1.51326,-2.60628v-2.66667h0.31888l-0.23862,-0.68926c1.08325,-1.70732 1.5395,-4.12898 2.94103,-5.47369c-0.06246,-0.16667 -0.12359,-0.33476 -0.18328,-0.50439c-1.50629,-4.28103 -0.81775,-8.55531 0.67156,-12.67907c0.55919,-1.54834 0.77513,-3.30288 1.78023,-4.60665c0.04699,-0.06095 0.0949,-0.12099 0.14369,-0.18019l-0.03822,-0.02184l1.30444,-2.28277c0.50929,-0.93086 1.49774,-1.56215 2.63362,-1.56215c1.65685,0 3,1.34315 3,3v2.87551c0.25199,2.27793 0.41973,4.62445 0.39798,6.96366c0.51788,-0.89992 1.48919,-1.50583 2.60202,-1.50583c1.60142,0 2.90977,1.25477 2.99553,2.83479l0.33196,5.31141l-0.01855,0.00116c0.00774,0.03076 0.01539,0.06154 0.02293,0.09236c1.25526,5.12756 -0.02107,10.57873 -1.48955,15.79025c0.16496,0.03581 0.33697,0.08546 0.51624,0.15065c2.81938,1.02523 1.79415,3.84461 1.79415,3.84461c-1.67312,4.59488 -2.71527,9.36444 -4.32312,13.97148c-3.20165,9.1738 -7.45837,18.25009 -9.9749,27.59231l-0.09987,0.11071l0.05417,0.02031l-0.97541,2.60109c-0.24818,0.712 -0.75714,1.30177 -1.41246,1.65492c0.06403,2.54052 0.11823,5.08313 0.03507,7.60669c0.18572,0.60993 0.34688,1.22374 0.40563,1.85062c0.00417,0.04453 0.00819,0.08907 0.01207,0.13361l0.02482,-0.00662l0.14761,0.55355c0.1596,-0.01521 0.3179,-0.04017 0.47314,-0.07516c6.68407,-1.50634 9.83565,-7.12742 15.22857,-10.58565c0.95283,-0.611 4.65783,-1.93064 5.69338,-2.31743l1.05295,-0.2651c1.59523,-6.57365 3.83801,-13.44992 3.90025,-20.14042l0.44473,-0.46566l-0.26343,-0.1129l0.97276,-2.26978c0.44334,-1.10303 1.52306,-1.88179 2.78467,-1.88179c1.61478,0 2.93157,1.27579 2.99742,2.87439l0.28458,5.97613l-0.00942,0.00045c0.00386,0.0181 0.0077,0.03621 0.01153,0.05432c0.24182,1.1459 0.354,2.42479 0.38297,3.76519c1.55297,-1.78581 2.88981,-3.72712 4.72713,-5.29286c0.93275,-0.79487 2.25149,-1.54651 3.41745,-2.41961c0.58482,-2.94981 1.51599,-5.81764 2.51267,-8.6767c0.02135,-1.84501 0.10694,-3.84402 0.38027,-4.42346c0.02609,-0.05531 0.05269,-0.11031 0.0798,-0.16501l-0.04628,-0.01029l0.65385,-2.94232c0.21363,-1.0653 0.99152,-1.92666 2.00867,-2.25907c-0.07293,-3.31135 -0.17117,-6.62307 -0.39398,-9.94826l-0.00664,-2.19956c0,0 0,-3 3,-3c3,0 3,3 3,3l-0.00664,1.80044c0.10641,1.60396 0.18456,3.20491 0.24529,4.80425c1.38328,1.02264 1.04904,2.91666 1.04904,2.91666c-0.25014,1.41033 -0.53918,2.78013 -0.8599,4.12518c0.0608,2.95241 0.11641,5.90635 0.23516,8.87069c0.12706,3.17156 0.92383,4.69719 -0.12587,8.02167c-0.29108,0.92188 -1.01594,2.43624 -2.01695,3.9839c1.94905,3.25788 2.61887,7.46955 3.55641,11.11747c0.09042,0.07053 0.18107,0.14021 0.27202,0.20886c0.77189,0.5826 3.62774,1.10425 4.21005,1.28653c4.00289,1.25302 9.49909,2.52511 12.58583,5.72346c0.44326,-0.48449 1.12877,-0.85912 2.18891,-0.85912c0.2961,0 0.56298,0.02923 0.80352,0.08191c0.30413,-2.29727 0.90365,-5.11808 1.1567,-5.7095c0.15907,-0.37179 0.33676,-0.73699 0.53137,-1.09537c-3.34387,-2.15201 -6.01129,-6.31881 -7.05775,-9.50703c-0.56191,-1.71197 -0.47446,-3.12093 -0.04493,-4.4305l-0.03723,-0.00414l0.32934,-2.96402c0.14835,-1.51824 1.42844,-2.70468 2.98565,-2.70468c1.33921,0 2.47347,0.87751 2.85915,2.08891l1.44551,0.6572c2.43667,3.12154 6.94731,4.62993 9.34479,8.0646c0.70593,-0.36794 1.40896,-0.70162 2.09695,-0.99942l0.29315,0.03335l-0.02368,-0.10654l3,-0.66667l0.25347,1.1406l3.02714,0.34434c-0.40708,0.75434 -0.88129,1.66855 -1.41964,2.65381l0.91114,0.91114l-3,3l-0.15718,-0.15718c-1.32013,1.96367 -2.86176,3.79163 -4.60413,4.86222c-0.13213,2.13472 -0.84841,5.38945 -1.26559,6.34684c-0.35371,0.81173 -0.77082,1.55189 -1.22951,2.24692c0.01942,0.01172 0.03889,0.02368 0.05842,0.03589zM210.95261,84.02663c0.12014,-0.13108 0.24166,-0.26219 0.36405,-0.39347c-0.01109,0.00012 -0.0222,0.00018 -0.03333,0.00018c-0.07436,0 -0.14808,-0.00271 -0.22108,-0.00802c-0.03775,0.13243 -0.0743,0.26617 -0.10964,0.40131zM291.86032,103.69344c0.08081,-0.06812 0.16209,-0.13576 0.24382,-0.20291c-0.2438,-0.27853 -0.50856,-0.56867 -0.78441,-0.86059c0.22385,0.37436 0.39221,0.72667 0.54059,1.0635z" fill-opacity="0.37647" fill="#160a1f"></path><path d="M299.34338,70.39007c-1.04006,0.69338 -1.73344,-0.34669 -1.73344,-0.34669l-0.70994,-1.44338c0,-0.41667 0,-0.83333 0,-1.25c0,0 0,-1.25 1.25,-1.25c1.25,0 1.25,1.25 1.25,1.25c0,0.41667 0,0.83333 0,1.25l0.29006,0.05662c0,0 0.69338,1.04006 -0.34669,1.73344z" fill-opacity="0.78431" fill="#efd9ff"></path><path d="M286.26804,72.15903c-0.55902,1.11803 -1.67705,0.55902 -1.67705,0.55902l-0.94098,-0.61803c-0.25,-0.33333 -0.5,-0.66667 -0.75,-1c0,0 -0.75,-1 0.25,-1.75c1,-0.75 1.75,0.25 1.75,0.25c0.25,0.33333 0.5,0.66667 0.75,1l0.05902,-0.11803c0,0 1.11803,0.55902 0.55902,1.67705z" fill-opacity="0.78431" fill="#efd9ff"></path><path d="M277.15,83.35535c0.29214,0.221 0.77543,0.73889 0.36803,1.55367c-0.55902,1.11803 -1.67705,0.55902 -1.67705,0.55902l-1.19098,-1.36803c0,-0.5 0,-1 0,-1.5c0,0 0,-1.25 1.25,-1.25c1.25,0 1.25,1.25 1.25,1.25c0,0.25178 0,0.50356 0,0.75534z" fill-opacity="0.78431" fill="#efd9ff"></path><path d="M306.4,150.85001c-1.25,0 -1.25,-1.25 -1.25,-1.25c0,-0.41667 0,-1.58333 0,-2c0,0 0,-1.25 1.25,-1.25c0.04696,0 0.09216,0.00176 0.13565,0.00516c0.03766,-0.00342 0.0758,-0.00516 0.11435,-0.00516c0.69036,0 1.25,0.55964 1.25,1.25c0,0.28146 -0.09302,0.54119 -0.25,0.75012c0,0.16663 0,0.33325 0,0.49988v0.75c0,0 0,1.25 -1.25,1.25z" fill-opacity="0.78431" fill="#efd9ff"></path><path d="M297.45902,150.71803c-1.11803,0.55902 -1.67705,-0.55902 -1.67705,-0.55902l-0.38197,-1.05902c0,-0.41667 0,-0.83333 0,-1.25c0,0 0,-1.25 1.25,-1.25c1.25,0 1.25,1.25 1.25,1.25c0,0.41667 0,0.83333 0,1.25l0.11803,-0.05902c0,0 0.55902,1.11803 -0.55902,1.67705z" fill-opacity="0.78431" fill="#efd9ff"></path><path d="M284.65,142.85001c0,-0.69036 0.55964,-1.25 1.25,-1.25c0.69036,0 1.25,0.55964 1.25,1.25c0,0.69036 -0.55964,1.25 -1.25,1.25c-0.69036,0 -1.25,-0.55964 -1.25,-1.25z" fill-opacity="0.78431" fill="#efd9ff"></path><path d="M282.9,296.85001c0.59552,0 0.90732,0.28371 1.07058,0.58081c0.32722,0.13066 0.73211,0.29334 1.10513,0.44672c0.53555,-0.48932 1.28853,-0.18813 1.28853,-0.18813c1.76961,0.74086 5.57762,3.73804 0.78576,4.6606c-0.42973,0.08273 -3.89314,-2.51096 -4.71424,-2.8394l-0.78576,-1.4106c0,0 0,-1.25 1.25,-1.25z" fill-opacity="0.78431" fill="#efd9ff"></path><path d="M213.34098,296.73197c1.11803,-0.55902 1.67705,0.55902 1.67705,0.55902l-0.37289,0.33329c0.11524,0.02545 0.2291,0.05221 0.34147,0.08051c0.41771,-0.42647 1.06842,-0.34513 1.06842,-0.34513c0.93153,0.1209 3.23208,0.20559 3.97884,1.10646c1.25151,1.5098 1.34337,3.82105 -1.23115,4.37452c-1.77376,0.38132 -2.93924,-2.47797 -4.64787,-2.76491l-1.37289,-1.66671c0,0 -0.55902,-1.11803 0.55902,-1.67705z" fill-opacity="0.78431" fill="#efd9ff"></path></g></g></svg>