<svg version="1.1" xmlns="http://www.w3.org/2000/svg" xmlns:xlink="http://www.w3.org/1999/xlink" width="180.64182" height="174.8425" viewBox="0,0,180.64182,174.8425"><g transform="translate(-186.88604,-124.88333)"><g stroke="none" stroke-width="0.5" stroke-miterlimit="10"><g><path d="M212.07404,164.04069c1.64951,-1.11712 3.50328,-1.77084 5.7377,-1.07276c1.35306,0.42273 3.57829,0.52557 3.79099,1.92707c0.21277,1.40197 -4.60096,7.35646 -6.17604,8.53139c-0.64081,0.47801 -1.43752,0.71571 -2.20103,0.95272c-0.20003,0.06209 -0.72344,-0.26007 -0.62373,-0.07588c1.47466,2.72388 5.67525,6.57384 0.66914,8.52837c0.78828,1.81108 1.8192,4.48002 0.42795,5.43011c-4.8095,3.28441 -6.67164,-2.40701 -7.44983,-5.01675c-0.18114,-0.60747 -0.0021,-1.25835 0.04606,-1.89894c-2.43829,-2.24416 -4.02689,-5.90117 -3.87342,-8.506c0.26676,-4.52786 5.53712,-6.98909 9.0545,-8.66252c0.19573,-0.02861 0.39559,-0.07724 0.59772,-0.13681z" fill="#e5c1e4"></path><path d="M291.95357,288.81136c-0.12233,-0.96986 -0.05281,-1.99165 0.13282,-3.49349c-0.00571,-0.56906 -0.01612,-1.14195 -0.01897,-1.72057c-2.53324,-5.08463 -3.75386,-10.7605 -4.444,-16.57033l-0.68115,-1.8164c-0.08101,-0.20157 -0.12559,-0.42169 -0.12559,-0.65223c0,-0.9665 0.7835,-1.75 1.75,-1.75c0.73886,0 1.37077,0.45789 1.62745,1.10537l0.52967,1.25195c-0.02541,-1.93624 0.12572,-4.07855 1.11791,-4.81057c0.82336,-0.60746 2.02036,-0.0787 3.05563,0.24091c0.12723,-0.02433 0.26662,-0.03766 0.41933,-0.03766c0.29751,0 0.54444,0.05058 0.7494,0.13454c0.10677,-0.11467 0.19318,-0.24233 0.2506,-0.3838c0,-0.4833 0,-1.50074 0,-1.50074c0,-0.9665 0.7835,-1.75 1.75,-1.75c0.63662,0 1.19384,0.33994 1.50005,0.84819l0.03404,0.05447c0.21853,-0.09809 0.46085,-0.15266 0.7159,-0.15266c0.9665,0 1.75,0.7835 1.75,1.75v2.19054c0.00599,0.06634 0.01176,0.1327 0.01734,0.19907c0.39172,0.71237 0.70643,1.50638 0.92796,2.42627c0.69614,2.89063 -0.18704,5.91416 0.50672,8.77713c0.63709,2.6291 1.39359,5.3726 2.00303,8.08899c0.6732,0.4148 1.25289,0.84777 1.76506,1.30211c0.14858,0.03947 0.29841,0.08886 0.44958,0.1491c2.45695,0.97906 5.24422,4.21008 4.46337,6.63809c0.3475,1.11463 0.31085,2.25699 -0.32113,3.13685c-0.62302,0.86739 -2.08276,0.53129 -3.14911,0.58967c-1.35665,0.07428 -1.99902,-0.0698 -2.66898,-0.26379c-3.72621,0.35117 -7.42776,0.48055 -11.19747,0.50936c-0.02948,0.00081 -0.06042,0.0011 -0.0926,0.00069c-0.44049,0.00317 -0.88192,0.00499 -1.32443,0.00564c-0.29151,0.06508 -0.63677,0.04667 -1.03577,-0.12566c-0.304,-0.10825 -0.6456,-0.30954 -0.86486,-0.68386c-0.23675,-0.36351 -0.26402,-0.75907 -0.22489,-1.07938c0.02411,-0.43034 0.15996,-0.74572 0.34614,-0.97683c0.13112,-0.5449 0.22307,-1.08798 0.28692,-1.63096zM296.06896,267.34977c0.00009,-0.04474 0.00017,-0.08827 0.00026,-0.13052c-0.00327,0.01622 -0.00653,0.03244 -0.00978,0.04867c0.00322,0.02728 0.00639,0.05456 0.00952,0.08185z" fill="#e5c1e4"></path><path d="M197.56669,299.05833c-0.73594,0 -1.36577,-0.45428 -1.62439,-1.09771l-0.73411,-1.71293l-0.1415,-1.68936c0,0 0,-0.54022 0.30015,-1.02037c-0.02632,-0.05593 -0.0537,-0.11126 -0.08212,-0.16597c0.00512,-1.07542 0.01523,-2.1508 0.03197,-3.22609c0.01759,-1.1298 0.24116,-2.2815 0.29977,-3.42407l1.17496,-0.55036c0.06857,-0.13468 0.15806,-0.26898 0.27485,-0.39015c1.85156,-2.73808 3.74896,-5.02619 5.98169,-7.42833c2.6632,-2.86527 4.462,-6.24072 7.28129,-9.0321c1.16666,-1.15511 2.07735,-2.47366 2.97442,-3.79912l-0.66317,-2.21058l0.01774,-0.00532c-0.49869,-1.22553 -0.64142,-2.52337 0.18192,-3.74578c0.42166,-0.62604 1.53306,0.09568 2.26224,-0.09934c0.77659,-0.20771 -0.02351,-1.68371 0.37387,-2.38252c1.5987,-2.81132 3.92948,-3.60635 6.72596,-4.65847l1.33184,-0.67667c0,0 0.32229,-0.16114 0.7475,-0.19095c0.12391,-0.37111 0.26504,-0.7272 0.54769,-0.98124c2.40731,-2.16366 7.79181,-1.7457 10.16088,0.18916c2.96025,2.41768 4.79875,8.73829 4.82655,12.29828v0.5c0,0 0,1.75 -1.75,1.75c-0.48828,0 -0.84032,-0.13624 -1.09413,-0.33269c-2.70777,3.89235 -6.17633,5.33497 -10.32404,5.18457c-0.60422,0.26961 -1.34432,0.31275 -1.92524,0.64495c-0.43976,0.25148 -0.8971,0.58989 -1.35847,0.9839c-1.55241,2.6027 -3.75865,4.67536 -5.66671,7.09358c-1.46116,1.85183 -2.47835,4.75526 -4.16694,6.66566c0.2864,0.27612 0.4789,0.64897 0.5249,1.06596l0.24569,1.96552c0.05205,0.36369 0.1297,0.77986 0.20892,1.22627c1.55943,-0.09823 1.78843,1.50479 1.78843,1.50479c0.13868,0.97346 0.84196,3.39247 1.07865,5.56909c-0.10413,0.00369 -0.20826,0.0074 -0.31239,0.01113c-0.05426,1.66727 -1.74867,1.66727 -1.74867,1.66727h-0.75c-2.16369,0 -5.80777,0.53654 -7.89591,-0.42847c-2.93165,0.41712 -5.85017,0.93908 -8.83499,1.11631c-0.02551,-0.06627 -0.05103,-0.13238 -0.07656,-0.19831c-0.06323,0.00692 -0.12748,0.01047 -0.19255,0.01047z" fill="#e5c1e4"></path><path d="M319.05169,242.81397c0.01362,0.11573 0.03173,0.23201 0.05371,0.34871c0.12511,0.24937 0.1996,0.52852 0.21001,0.82398c0.36096,1.15824 0.9566,2.32614 1.2012,3.37699c1.07113,4.60178 0.54304,9.18965 -2.49573,12.75842l-0.89597,1.79195c-0.32069,0.67649 -1.00983,1.14433 -1.80823,1.14433c-0.0829,0 -0.16462,-0.00504 -0.24487,-0.01484c-1.07454,2.2738 -2.99604,3.51567 -4.99466,4.54099c-0.06725,0.19886 -0.1377,0.39514 -0.21125,0.58881c-0.21931,1.21218 -0.61217,2.36322 -1.45549,3.43269c-0.38677,0.49049 -0.83683,0.89085 -1.31801,1.2451c-2.99327,3.43691 -7.32901,5.12042 -11.74631,4.48268c-3.98631,0.25981 -8.0278,-0.59477 -10.69933,-2.93072c-1.34347,-0.9247 -2.56852,-2.09393 -3.73111,-3.32084l-0.04992,-0.51096l-0.15842,0.08433l-0.45471,-1.22535c-0.62455,0.67309 -1.2587,1.32893 -1.99127,1.80805c-0.6266,0.40982 -1.43745,0.12528 -2.11747,0.38575c-2.26173,0.8663 -5.02261,1.91312 -7.24429,2.98465c-2.30517,1.1118 -5.48356,2.93454 -8.07183,2.94806c-2.11109,0.01103 -4.099,-1.2239 -6.17292,-1.69641c-2.27716,-0.51881 -5.07156,-0.78977 -7.06442,-2.59792c-1.20382,-1.09224 -2.34127,-2.76624 -3.30552,-4.57684c-6.78401,0.64761 -13.46122,-2.41355 -19.15495,-7.78817c-1.6962,-1.60114 -3.69186,-3.86738 -4.45189,-6.47433c-3.6493,1.01326 -7.15466,1.71001 -11.06048,0.14515c-2.15764,-0.86445 -3.9338,-2.76508 -5.89538,-4.06894c-1.0548,-0.70112 -4.41401,-2.42841 -5.05692,-3.48619c-0.66795,-1.09899 -0.55199,-4.30616 -0.55199,-5.71114c0,-3.0917 0.13076,-6.2509 0.7711,-9.21904c-2.57886,0.72319 -5.42487,0.81846 -7.44422,-1.47473c-2.81713,-3.19914 -2.87426,-9.40849 -2.87426,-13.57023c0.01015,-2.02283 -0.18956,-4.14572 0.78876,-5.99693c0.40098,-0.75875 1.28173,-0.97215 1.78776,-1.63473c0.94053,-1.23151 1.43533,-2.91427 2.45298,-4.05444c3.6654,-4.1067 8.75133,-9.40057 13.32062,-11.83411c1.85089,-0.98575 4.00792,-1.28176 5.80751,-2.22375c1.72794,-0.90448 4.05749,-3.80346 6.12019,-4.88087c0.00937,-0.08352 0.02218,-0.16979 0.03872,-0.2589c0.18259,-0.9841 0.65394,-1.42474 1.11582,-1.61213c0.51898,-0.63287 1.28861,-0.68874 1.28861,-0.68874c19.00161,-1.37927 37.71755,1.04149 56.52031,3.82446c0.28344,-0.53637 0.7526,-0.91801 1.29921,-1.01525l3.64491,-0.72758c1.90482,-0.88347 4.20441,-0.36442 6.14953,-0.12004c3.62788,0.45579 7.26347,0.93387 10.89355,1.35493c4.64915,0.53926 9.29617,0.47714 13.92813,1.17968l1.97266,0.58647c0,0 1.72666,0.517 1.38264,2.56166h0.00002c0.71241,-0.04759 1.39924,0.0097 2.01472,0.27518c1.96422,0.84725 4.08005,3.72376 5.76702,5.25164l1.05485,0.72193c0.2864,0.00179 0.60886,0.09796 0.9649,0.34163c1.61745,1.10697 0.69319,3.04417 0.69319,3.04417c-2.02717,4.20152 -4.67122,7.57024 -6.42578,11.87417c-1.27293,5.74333 -2.04204,11.84498 -2.97162,17.39602c0.2899,4.13414 0.39527,8.32033 0.87659,12.41155z" fill="#316a70"></path><path d="M355.95879,145.71932c1.58885,-0.73338 2.92192,-1.13757 4.34958,-1.33742c0.86845,-0.79141 1.71819,-1.62974 2.33788,-2.11844l1.56605,-0.76973c0.16871,-0.08496 0.35395,-0.1385 0.54658,-0.15486c0.04689,-0.00585 0.09578,-0.01009 0.14619,-0.01208c0.28644,-0.35054 0.80451,-0.71351 1.63307,-0.41345c1.41036,0.51076 0.8996,1.92112 0.8996,1.92112c-1.97197,5.41969 -4.32649,8.91488 -9.57456,11.83836c-1.87611,1.0451 -4.89013,2.0323 -6.74256,0.20767c-2.68339,-2.64313 -0.14996,-6.70426 2.59442,-8.03515c0.28523,-1.12295 1.53057,-1.0507 1.53057,-1.0507c0.04222,0.00258 0.08447,0.00682 0.12675,0.01249c0.21191,-0.07306 0.42206,-0.09031 0.58643,-0.0878z" fill-opacity="0.97647" fill="#ad4eac"></path><path d="M252.66227,212.7247l-0.27899,-0.04368c-0.24443,-0.03827 -0.48769,-0.07637 -0.72994,-0.1146c-0.66174,-0.05492 -1.31132,-0.16564 -1.95048,-0.31972c-1.39914,-0.24199 -2.77898,-0.51683 -4.17325,-0.88586c-5.60517,-1.20501 -12.58467,-2.62555 -17.64494,-5.02115c-2.40572,-1.1389 -4.84904,-2.75889 -7.21218,-4.0034c-1.76474,-0.92937 -3.54468,-1.63207 -5.03191,-2.92179c-2.49108,-2.16026 -2.58052,-4.46572 -3.63644,-7.12491c-0.15392,-0.38762 -0.31196,-0.76365 -0.47207,-1.13074c-2.77288,-3.05992 -4.77676,-6.56514 -4.63127,-10.57014c0.00344,-0.09463 0.24648,-1.18426 0.5092,-2.33924c-0.16432,-1.35101 0.05267,-2.70538 0.40133,-4.26226c0,0 0.21689,-0.94293 1.15814,-1.35123c1.06524,-2.64461 2.76004,-5.41505 4.99076,-7.14771c1.462,-1.13557 3.49439,-1.68201 4.97904,-2.7974c1.39246,-1.04613 2.06668,-2.67066 3.55464,-3.62311c1.84038,-1.17804 4.31634,-1.44646 6.4631,-2.19231c2.5791,-0.89605 4.84888,-2.70918 7.40667,-3.57337c1.7149,-0.57941 3.46638,-0.99345 5.23598,-1.32029c0.23148,-0.34926 0.59069,-0.62482 1.01698,-0.79261l2.52586,-1.022l0.00365,0.00613c1.77076,-1.5053 3.74007,-2.84091 6.126,-3.63185c7.83247,-2.59649 16.99516,-2.01682 25.26625,-2.80076c0.71779,-0.06803 1.69283,-0.20103 2.80858,-0.34718c3.15355,-0.62844 6.35337,-1.15362 9.75082,-1.43324c0,0 2.26076,-0.18434 2.48419,1.68082c0.00901,0.07519 0.01398,0.14765 0.01522,0.21748c0.6783,0.60787 0.88767,1.55299 1.38302,2.29244l0.39075,0.8648c1.40634,0.36461 2.65821,0.91503 3.51161,1.77162c1.39251,1.39773 1.98406,5.82915 1.96094,7.25946c-0.08948,5.53778 -2.57111,11.59178 -3.826,17.04738c-0.87917,3.82214 -1.43188,7.65064 -2.63012,11.40879l-0.22887,1.02056c0,0 -0.42355,1.84139 -2.65549,1.49195c-1.06747,-0.16713 -1.52752,-0.67553 -1.71699,-1.16053c-0.32345,0.43823 -0.64341,0.86444 -0.93274,1.25771c-0.93836,1.95454 -1.93081,4.06569 -3.03396,6.17683c-0.62348,1.35923 -1.32626,2.6929 -2.23713,3.96093c-1.80416,2.92046 -3.90596,5.63988 -6.46941,7.70451c-0.98066,0.78983 -4.79533,2.6005 -5.98671,3.18848c-4.88301,2.40993 -9.52594,4.42906 -15.19119,4.49931c-0.64999,0.17935 -1.27267,0.08186 -1.27267,0.08186z" fill="#30152f"></path><path d="M307.55812,188.64778c0.61477,-0.44921 1.52758,-0.73788 2.73841,-0.13247c2.45967,1.22984 1.22984,3.68951 1.22984,3.68951l-0.30574,0.60568c-0.77334,1.37919 -1.38665,2.83721 -1.91607,4.33501c1.10686,-0.94616 2.25789,-1.85024 3.39337,-2.76694c0.7913,-1.1462 1.71605,-2.16235 2.71495,-3.1055l-0.05586,-0.02793l1.22336,-2.44671c0.44095,-0.93018 1.38851,-1.57345 2.48632,-1.57345c1.51878,0 2.75,1.23122 2.75,2.75c0,0.30404 -0.04934,0.59655 -0.14045,0.86997l-0.98116,3.18877l-0.30491,-0.09382l0.03246,0.70355c-0.26547,0.2752 -0.53341,0.54365 -0.80332,0.80653c0.12732,0.31676 0.19738,0.6627 0.19738,1.025c0,0.42694 -0.09729,0.83117 -0.27092,1.1917l-1.22557,2.69626l-0.03204,-0.01456l-0.00524,0.09325c-2.26879,4.23461 -4.99287,7.90365 -6.81887,12.38065c-1.18052,1.3902 -1.85752,3.47041 -3.54157,4.17059c-0.5092,0.21171 -0.98593,0.36096 -1.4321,0.45435l-0.53964,0.89941c-0.47501,0.82383 -1.36476,1.37836 -2.38404,1.37836c-1.33266,0 -2.44391,-0.94794 -2.69626,-2.20632l-0.98825,-4.44712l0.047,-0.01044c-0.03295,-0.09498 -0.06499,-0.19032 -0.09607,-0.28604c-0.42514,-1.30939 -0.03664,-3.31328 0.45861,-5.06283c-0.09305,-3.3975 -0.3624,-7.02581 0.04557,-10.32325c0.23028,-1.86125 0.58472,-3.66736 0.96274,-5.45756c1.7189,-1.00461 4.29962,-3.22485 6.61622,-5.20874c-0.11129,0.64415 -0.23201,1.2853 -0.35815,1.92509z" fill="#30152f"></path><path d="M298.31667,190.30833c-0.01059,8.95777 0.61905,18.51718 -0.25808,27.42961c-0.17053,1.73274 -0.67724,3.4302 -0.7444,5.17002c-0.1731,4.48451 0.8064,9.29692 -0.99752,13.46621v1.68417c0,0.9949 -0.72645,1.82013 -1.67784,1.97419c-1.41107,1.16515 -3.02205,0.82148 -4.59024,0.5053c-0.18889,0.03762 -0.40057,0.04764 -0.63748,0.02024l-1.9687,-0.00358c-0.37236,-0.05034 -0.7153,-0.1109 -1.0346,-0.18108c-0.25569,0.11869 -0.54067,0.18494 -0.84113,0.18494v-0.00001c-0.08458,0 -0.16793,-0.00525 -0.24974,-0.01544l-1.52442,-0.16938c-0.83132,0.03815 -1.65802,0.05356 -2.46836,-0.00877c-1.89353,0.0816 -3.93798,0.14371 -5.6331,-0.5914c-0.12128,0.02297 -0.24642,0.03498 -0.37438,0.03498c-0.79841,0 -1.48754,-0.46784 -1.80823,-1.14433l-0.98062,-1.96125l0.08059,-0.04029c-0.08542,-0.12713 -0.16515,-0.25844 -0.23823,-0.39463c-0.26103,-0.48641 -0.24114,-1.04613 -0.17609,-1.61765c-0.40254,-1.2187 -0.7301,-2.39693 -1.00699,-3.15837c0,0 -0.34515,-0.94916 0.12959,-1.74376v-1.43972h0.0121c0.00158,-0.0524 0.0033,-0.10477 0.00517,-0.1571c-0.00316,-0.00741 -0.00622,-0.01492 -0.00919,-0.02252c-0.18824,-0.48232 -0.06961,-0.99252 0.10349,-1.50929c0.06569,-0.76596 0.15677,-1.5259 0.26338,-2.28237c-0.09084,-3.03821 -0.06265,-6.22053 0.88983,-8.77144c0.00739,-0.01978 0.01483,-0.03954 0.02232,-0.05927l-0.01385,-0.00213l0.49528,-3.2193c0.00042,-0.00304 0.00084,-0.00608 0.00127,-0.00911c0.14082,-8.24238 1.00978,-16.52835 1.86583,-24.71094c0.24968,-2.38653 0.87944,-4.7181 1.36062,-7.06892c0.26578,-1.29847 0.0483,-2.75682 0.69176,-3.91554c0.00665,-0.01197 0.01343,-0.02381 0.02035,-0.03553l-0.01243,-0.0027l0.31922,-1.4684c-0.00059,-0.08663 -0.00068,-0.17324 -0.00016,-0.25981l0.078,-0.09825l0.02766,-0.12723l-0.06093,-0.01523l0.48985,-1.95941c0.07576,-0.33383 0.23502,-0.63595 0.45467,-0.88322c-0.86044,-6.5802 0.794,-13.56787 1.99576,-20.05823v-1.86406c0,-0.77391 0.43957,-1.44515 1.08266,-1.77768c0.14363,-1.11608 0.36936,-2.21801 0.69787,-3.29716c-1.5974,0.47236 -3.26181,0.72598 -4.20327,0.57285c-0.0954,-0.01552 -0.18973,-0.03471 -0.28312,-0.05713l-0.00629,0.04405l-1.72817,-0.24688c-0.73858,-0.09351 -1.3097,-0.72408 -1.3097,-1.48804c0,-0.12372 0.01498,-0.24394 0.04322,-0.35895c-0.18427,-0.24915 -0.29322,-0.55738 -0.29322,-0.89105c0,-0.33145 0.1075,-0.63779 0.28955,-0.88606l0.01723,-0.02412c0.04498,-0.15857 0.11538,-0.30644 0.20653,-0.43894l0.98862,-1.48294l0.02391,0.01594c0.02069,-0.04522 0.04206,-0.09019 0.06415,-0.13487c0.40422,-0.8176 1.01654,-1.47865 1.75418,-2.01055h0.00002c0.32774,-0.4596 0.66762,-0.9086 1.05929,-1.31199c1.60542,-1.65345 1.89514,-1.25271 3.76667,-1.68976c2.09702,-0.48971 5.65239,-2.41652 8.33677,-2.50773c0.68131,-0.26007 1.39533,-0.49141 2.13152,-0.73476l0.12405,0.03063l-0.00908,-0.05445l0.2782,-0.04637c1.30412,-0.80729 2.93129,-1.54731 4.54039,-2.15273c0.06701,-0.08489 0.14299,-0.16235 0.22653,-0.23097l1.4912,-1.24266l0.03245,0.03894c0.08452,-0.08164 0.17308,-0.15947 0.26634,-0.23288c0.38227,-0.30089 0.86026,-0.40891 1.35847,-0.47198c0.27082,-0.26699 0.64268,-0.43175 1.05302,-0.43175h1.73697c2.37466,-0.39252 4.82031,-0.6171 7.19506,-0.74845c4.13941,-0.22896 8.94086,-0.40354 13.43732,0.35983c2.41517,0.34709 4.81646,0.99827 6.81992,2.1727c0.97114,0.50486 1.89101,1.09763 2.74456,1.79206c1.97365,1.6057 3.82331,3.80969 5.62683,5.6132c1.75809,1.79234 2.61278,3.70918 3.88491,5.91026l-0.11504,0.4004h0.16947v1.75c0,0.27102 -0.07188,0.52525 -0.19761,0.74468c0.74075,2.08926 1.40767,4.21972 2.22688,6.20823c1.44457,3.56271 2.68606,8.50542 1.93806,12.35848c-0.51948,2.67594 -2.80396,4.80156 -3.53169,7.37329c-0.93426,3.3016 -1.0348,6.80175 -1.92609,10.15409c0.5776,0.20859 0.99045,0.7617 0.99045,1.41124c0,0.17815 -0.03106,0.34904 -0.08805,0.50756l-0.73892,2.21679l-0.03916,-0.01306c-0.01788,0.08252 -0.03826,0.16469 -0.06135,0.2465c-0.28025,0.9928 -2.66227,3.25407 -3.51185,4.10287c-2.28683,2.28473 -5.90369,6.61402 -9.21603,7.39921c-0.92668,0.21967 -1.90202,0.192 -2.84555,0.31652c-4.84681,2.10856 -9.89721,2.36697 -14.23684,-1.39753c0,0 -0.05817,-0.0509 -0.13655,-0.1428c-0.08089,-0.0897 -0.12376,-0.15402 -0.12376,-0.15402l-0.01019,-0.02213c-0.07603,-0.11262 -0.15233,-0.25129 -0.20533,-0.40989c-2.05574,-1.64658 -4.49196,-3.46984 -6.76977,-5.47112c-1.20185,-2.79698 -3.0245,-5.55811 -5.10941,-8.22326c-0.42884,0.7681 -0.78128,1.54041 -0.97423,2.30768c-0.14989,0.59606 0.15443,1.24063 0.03491,1.84351c-0.27,1.3619 -1.14292,2.53057 -1.65782,3.82181c0.6899,0.58762 0.6899,1.57133 0.6899,1.57133z" fill="#ad4eac"></path><path d="M350.50207,185.63511c-1.84711,2.85065 -2.63494,6.62768 -5.4714,8.76263c-3.04048,2.28851 -11.33278,2.83015 -11.95756,-2.42921c-0.13709,-1.15402 0.73654,-2.20447 1.10482,-3.30671c2.16345,-1.93699 3.9508,-3.63528 5.81093,-5.71631c-1.38183,0.42113 -2.6916,0.88023 -3.82708,1.45571c-0.64813,-0.06298 -1.30243,-0.16031 -1.90621,-0.29111c-0.91248,0.12967 -1.74823,0.18611 -2.36224,0.18611l-0.1527,-0.09665l-0.01733,0.06064l-1.72343,-0.49241c-0.53693,-0.14026 -0.93317,-0.62861 -0.93317,-1.2095c0,-0.01857 0.00041,-0.03705 0.00121,-0.05543c-0.79345,-0.38074 -1.46018,-0.83196 -1.91836,-1.34526c-0.14545,-0.16295 -0.27385,-0.3299 -0.3874,-0.50035c-0.09893,-0.63773 -0.24054,-1.19458 -0.43922,-1.60102c-1.35823,-2.77847 -3.77843,-2.49191 -5.65005,-4.45826c-0.17179,-0.08596 -0.32948,-0.19593 -0.46867,-0.32551c-0.63302,2.64197 -1.78575,4.38839 -3.12419,6.72957c-1.88861,3.76822 -3.35424,7.24874 -5.86386,10.6873c-0.61674,0.84503 -0.94692,1.98305 -1.82312,2.55464c-1.96518,1.28199 -5.82702,0.60889 -7.88553,-0.01542c-8.31715,-2.52242 -10.83642,-10.8106 -9.1432,-18.6041c0,0 0.02061,-0.09277 0.07308,-0.23337c0.04794,-0.1422 0.09044,-0.2272 0.09044,-0.2272l0.0582,-0.10062c0.02253,-0.04174 0.04707,-0.08442 0.07376,-0.1275l0.40174,-0.69446c1.85317,-2.11385 3.76313,-4.44096 5.53051,-6.86365c-0.01669,-0.10398 -0.02536,-0.21065 -0.02536,-0.31934c0,-0.37373 0.10251,-0.72351 0.28094,-1.02277l0.98257,-1.7195c0.42228,-0.73832 0.86292,-1.43701 1.31756,-2.10924c0.57619,-2.49649 2.94531,-5.0225 3.78359,-7.56594l0.02846,-0.02886l-0.01579,-0.00592l0.73361,-1.95628c0.07585,-0.21762 0.18825,-0.41811 0.32984,-0.59412c-0.16085,-2.7645 0.08279,-5.63085 0.31349,-8.35045c0.0712,-0.83936 -0.19318,-3.15579 0.29197,-3.70487c0.45867,-0.51912 3.49617,-1.01449 4.26279,-0.56007c0.028,0.01659 0.0557,0.03375 0.08312,0.05146l1.16162,-1.01642c0.22046,-0.19495 0.51026,-0.31327 0.82769,-0.31327c0.34736,0 0.66162,0.14168 0.88816,0.37041c0.5809,-0.38958 1.3367,-0.62002 2.06951,-0.66766c1.86502,-2.01186 4.06393,-3.77267 6.42292,-5.20452c0.67425,-1.02955 1.31875,-2.10528 1.97636,-3.23374c0,0 0.88177,-1.51161 2.39339,-0.62984c0.59179,0.34521 0.81675,0.78696 0.8714,1.19674c0.22211,-0.01491 0.4407,-0.03908 0.64835,-0.0891c0.06654,-0.01987 0.13289,-0.03908 0.19906,-0.05765c0.10745,-0.03691 0.21104,-0.08288 0.3096,-0.14047c3.41358,-1.99473 6.45951,-2.82866 10.22039,-4.09207l0.02797,-0.00095l-0.00194,-0.0068l1.72224,-0.49207c0.11726,-0.03641 0.24192,-0.05603 0.37116,-0.05603c0.69036,0 1.25,0.55964 1.25,1.25c0,0.10833 -0.01378,0.21345 -0.03969,0.31368c0.32126,0.62049 0.24274,1.46246 0.28969,2.43632c0.01586,0.32892 0.07799,0.82022 0.00915,1.17521c0.47001,-0.26447 1.13281,-0.5646 1.48951,-0.64968c0.48264,-0.11512 1.00571,-0.1428 1.48867,-0.02856c-0.13725,-0.17869 -0.24458,-0.34993 -0.13048,-0.50266c0.53914,-0.7217 1.3601,-1.40002 2.25675,-1.48684c3.41935,-0.33112 3.00477,2.65951 2.9033,4.8684c4.9767,1.74874 6.22836,6.98659 7.20882,11.87899l0.02405,1.23371c0.00022,0.00748 0.00022,0.01144 0.00022,0.01144c0,3.41667 0,6.83333 0,10.25v0.75c0,3.80694 0.13342,7.67622 0.09862,11.52147c-0.13368,0.07308 -0.26645,0.15214 -0.3982,0.23706c-0.85964,6.35505 -3.61941,12.07777 -7.01505,17.31827zM345.81843,129.93321c0.03675,0.09575 0.05172,0.15376 0.03158,0.08264c-0.00779,-0.02752 -0.01853,-0.05508 -0.03158,-0.08264z" fill="#e5c1e4"></path><path d="M321.31709,140.00942v-1.82181c0,-0.86242 0.69913,-1.56155 1.56155,-1.56155c0.23612,0 0.46,0.05241 0.66064,0.14622c0.18199,-0.39534 0.7031,-1.19472 1.85042,-0.86692c1.27571,0.36449 1.15784,1.50319 1.09355,1.83738c0.62679,0.20297 1.08004,0.7915 1.08004,1.4859c0,0.0976 -0.00895,0.1931 -0.02608,0.28574l-0.2394,1.43638c0.00028,0.08958 0.00053,0.17981 0.00079,0.27061c0.0604,0.08984 0.1117,0.1863 0.15261,0.28806l0.7666,1.78873l0.01795,0.06746c1.67549,-0.41971 3.6901,-0.72559 4.48168,0.12083c0.89973,0.96208 1.77226,6.36024 0.93794,7.87c-0.44151,0.79894 -1.26869,1.35707 -2.07206,1.79046c-0.58008,0.31293 -1.28929,0.27957 -1.94149,0.37469c-0.37878,0.05525 -0.75103,0.05767 -1.11185,0.01416c-0.15054,0.07046 -0.31348,0.13493 -0.49012,0.19285c-3.68936,1.20956 -4.88957,-3.17653 -5.39279,-5.61361c-0.04345,-0.21042 -0.08238,-0.41645 -0.11681,-0.61833c-1.4194,-1.5964 -1.21315,-5.55919 -1.21315,-7.48726z" fill-opacity="0.97647" fill="#ad4eac"></path><path d="M332.89586,177.96669c0.98263,-0.49131 1.60542,0.0969 1.86836,0.44688c1.35128,-0.54921 1.93118,0.80388 1.93118,0.80388c0.57651,1.63471 1.38226,1.65196 2.49714,1.32097c0.72018,-0.36474 1.34217,-0.56459 2.0834,-0.64304l-0.07306,-0.29226l1.96737,-0.49184c0.12628,-0.03452 0.25921,-0.05294 0.39644,-0.05294c0.82843,0 1.5,0.67157 1.5,1.5c0,0.6308 -0.38938,1.17066 -0.9409,1.39234l-1.71823,0.73638l-0.02389,-0.05574l-0.10686,0.1047c-0.42404,0.0954 -0.82962,0.19233 -1.2183,0.28418c-0.53498,0.31647 -1.23718,0.53653 -2.04386,0.99628l-0.59181,1.18361c-0.24052,0.50737 -0.75737,0.85825 -1.35617,0.85825c-0.7529,0 -1.37624,-0.5547 -1.48364,-1.27772l-0.24595,-1.47568l0.00901,-0.0015c-0.62948,-1.04523 -1.33886,-1.97191 -2.00376,-2.07207l-1.1173,-1.2522c0,0 -0.67082,-1.34164 0.67082,-2.01246zM334.56104,178.50875c0.00462,-0.00248 0.00927,-0.00496 0.01394,-0.00742l-0.28398,-0.11602c0.0843,0.03484 0.17474,0.07619 0.27003,0.12344z" fill-opacity="0.18824" fill="#ad4eac"></path><path d="M352.48334,170.39166c1.5,0 1.5,1.5 1.5,1.5c0,0.5 0,1 0,1.5l-1.32918,1.59164c0,0 -0.54045,0.27023 -1.10683,0.12464l-0.41166,0.49399l-1.25233,0.98972c0,0 -0.21393,0.16045 -0.52889,0.25553c-1.13498,1.56822 -3.18819,2.19576 -5.12451,2.52406l-1.19654,0.01959c-0.01662,0.00054 -0.03331,0.00082 -0.05006,0.00082c-0.18958,0 -0.37095,-0.03517 -0.53794,-0.09935c-0.23953,-0.08138 -0.5105,-0.22943 -0.70368,-0.49876c-0.12119,0.00554 -0.24325,0.00805 -0.36583,0.0089c-0.3467,0.2377 -0.69078,0.46412 -0.97173,0.68085l-1.14586,-0.59668c-0.13588,0.00092 -0.32066,-0.01188 -0.51505,-0.06699c-1.12542,0.51767 -1.58257,0.36705 -2.58189,0.03243c-0.19432,0.60319 -0.76021,1.0396 -1.42802,1.0396h-2v-0.0523c-0.08867,0.01217 -0.17786,0.02168 -0.26764,0.02823c-1.8143,0.13241 -3.72845,-0.85325 -5.4016,-2.25135c-0.58878,-0.27221 -1.09436,-0.59099 -1.44971,-0.97559c-0.20834,-0.22549 -0.31564,-0.50688 -0.38172,-0.81108c-0.13426,-0.15115 -0.26524,-0.30349 -0.39265,-0.45646c-0.24288,0.16928 -0.53819,0.26855 -0.85669,0.26855c-0.82843,0 -1.5,-0.67157 -1.5,-1.5c0,-0.10145 0,-1.7029 0,-1.80434c-0.02179,-0.08173 -0.03352,-0.16646 -0.03611,-0.25361l-0.64011,-0.51209c-0.34938,-0.27463 -0.57378,-0.70109 -0.57378,-1.17996c0,-0.3298 0.10643,-0.63474 0.28683,-0.88234c0.15292,-0.742 0.7477,-0.9914 1.13024,-1.07522c0.18017,-0.3886 0.55463,-0.79244 1.33294,-0.79244c0.82173,0 1.1933,0.45016 1.36132,0.85727c0.11997,-0.05775 0.22388,-0.09399 0.30573,-0.10498c0.69379,-0.09314 1.12951,0.03489 1.44566,0.26976c4.44389,0.01126 8.58167,2.40289 10.19707,7.1521c1.20308,-0.25871 2.1641,-1.57405 3.17035,-1.1564c0.75448,0.31315 1.31741,0.6133 1.72394,0.90137c0.5467,-0.51028 0.69608,-1.50706 1.28226,-2.02477c1.02743,-0.90743 4.74084,-3.02239 6.35334,-1.89435h1.18644c0.07463,-0.42671 0.36262,-1.25 1.47389,-1.25zM333.26247,175.93584l0.28383,-0.37287c-1.58502,-1.38625 -3.91214,-1.45938 -5.80956,-2.25241c0.17864,0.29918 0.2262,0.58451 0.2262,0.58451c-0.19408,1.31131 3.80599,2.0152 5.46974,2.48982c-0.12893,-0.24268 -0.1702,-0.44904 -0.1702,-0.44904zM345.10163,176.18971c0.46118,-0.08713 0.89206,-0.18759 1.02376,-0.27846c0.11339,-0.07824 0.26106,-0.35757 0.42989,-0.68902c-0.48334,0.22259 -0.93223,0.40845 -1.05826,0.52508c-0.1389,0.12855 -0.26939,0.27894 -0.39539,0.4424zM325.90953,171.77895c0.17689,0.28195 0.36761,0.57004 0.5696,0.85713c0.18701,-0.00827 0.35116,0.01344 0.49511,0.05644c-0.23324,-0.30801 -0.4324,-0.66526 -0.68725,-0.94364c-0.12827,0.01329 -0.25447,0.02384 -0.37747,0.03007z" fill-opacity="0.98431" fill="#316a70"></path><path d="M337.06668,179.80833c0.82842,0 1.5,0.67157 1.5,1.5c0,0.82843 -0.67158,1.5 -1.5,1.5c-0.7515,0 -1.37392,-0.55264 -1.48304,-1.27369c-0.08664,0.01556 -0.17585,0.02369 -0.26696,0.02369c-0.17532,0 -0.34361,-0.03008 -0.5,-0.08535c-0.15639,0.05527 -0.32468,0.08535 -0.5,0.08535c-0.82842,0 -1.5,-0.67157 -1.5,-1.5c0,-0.82843 0.67158,-1.5 1.5,-1.5c0.17532,0 0.34361,0.03008 0.5,0.08535c0.15639,-0.05527 0.32468,-0.08535 0.5,-0.08535c0.7515,0 1.37392,0.55264 1.48304,1.27369c0.08664,-0.01556 0.17585,-0.02369 0.26696,-0.02369z" fill-opacity="0.35294" fill="#ad4eac"></path><path d="M339.81668,181.30833c0,-0.67688 0.44835,-1.24905 1.06427,-1.43573c0.18668,-0.61592 0.75885,-1.06427 1.43573,-1.06427c0.82842,0 1.5,0.67157 1.5,1.5c0,0.67688 -0.44835,1.24905 -1.06427,1.43573c-0.18668,0.61592 -0.75885,1.06427 -1.43573,1.06427c-0.82842,0 -1.5,-0.67157 -1.5,-1.5z" fill-opacity="0.35294" fill="#ad4eac"></path><path d="M353.31668,163.55833c2,0 2,2 2,2v0.25c-0.03252,6.72214 -3.60022,15.90283 -10.10224,19.02753c-0.08892,0.12877 -0.17899,0.25709 -0.2703,0.38495l-1.74373,0.35604c-0.37008,0.09643 -0.74802,0.174 -1.13374,0.23149c-0.01177,-0.15676 -0.03381,-0.31501 -0.06144,-0.47407l-0.28119,-2.1696c0.01939,-0.15224 0.05465,-0.30218 0.11045,-0.44915c0.00752,-0.0198 0.01543,-0.03934 0.0237,-0.05861c0.12031,-0.17183 0.23856,-0.34444 0.35492,-0.51774c0.48113,-0.4961 1.22326,-0.81059 1.73719,-1.29132c1.40839,-1.31743 3.64794,-2.99634 4.68482,-4.62228c1.59953,-2.50824 2.47837,-6.11016 2.65043,-9.20408c0.0042,-0.00491 0.0084,-0.00982 0.01261,-0.01474c0,0 1.30158,-1.51851 2.8201,-0.21693c1.51851,1.30158 0.21693,2.8201 0.21693,2.8201c-3.98879,4.64913 -5.6941,10.26361 -9.12075,15.22594c-0.64285,0.30894 -1.31439,0.55868 -2.01402,0.74099l-1.13374,0.23149l-0.06144,-0.47407c-0.12645,-0.72795 -0.36994,-1.47286 -0.28119,-2.1696l-0.03484,-0.2688c0.05679,-0.07948 0.11311,-0.15913 0.169,-0.23895c0.08434,-0.19635 0.20735,-0.36559 0.35492,-0.51774c3.32236,-4.94843 5.10001,-10.47171 9.07243,-15.11768c0.02307,-0.4148 0.03343,-0.82047 0.03112,-1.21315v-0.25c0,0 0,-2 2,-2z" fill-opacity="0.99216" fill="#e6c1e4"></path><g fill="#316a70"><path d="M200.67,299.24667c-1.25,0 -1.25,-1.25 -1.25,-1.25c0,-0.6 0,-2 0,-2.6c0,0 0,-1.25 1.25,-1.25c1.25,0 1.25,1.25 1.25,1.25c0,0.6 0,1.2 0,1.8v0.8c0,0 0,1.25 -1.25,1.25z"></path><path d="M206.47,298.44667c-1.25,0 -1.25,-1.25 -1.25,-1.25l0.01256,-0.77677c0.06667,-0.46666 0.13333,-0.93334 0.2,-1.4c0,0 0.17678,-1.23744 1.41422,-1.06066c1.23744,0.17678 1.06066,1.41421 1.06066,1.41421c-0.06667,0.46666 -0.13333,0.93333 -0.2,1.4l0.01256,0.42323c0,0 0,1.25 -1.25,1.25z"></path><path d="M211.87,299.24667c-1.25,0 -1.25,-1.25 -1.25,-1.25c0,-0.46666 0,-1.53334 0,-2c0,0 0,-1.25 1.25,-1.25c1.25,0 1.25,1.25 1.25,1.25c0,0.46666 0,0.93333 0,1.4v0.6c0,0 0,1.25 -1.25,1.25z"></path></g><g fill="#316a70"><path d="M308.87,293.04667c-1.25,0 -1.25,-1.25 -1.25,-1.25c0,-0.93333 0,-2.06667 0,-3c0,0 0,-1.25 1.25,-1.25c1.25,0 1.25,1.25 1.25,1.25c0,0.93333 0,1.86667 0,2.8v0.2c0,0 0,1.25 -1.25,1.25z"></path><path d="M303.67,293.24667c-1.25,0 -1.25,-1.25 -1.25,-1.25l0.06415,-0.99528c0.13333,-0.4 0.26667,-0.8 0.4,-1.2c0,0 0.39528,-1.18585 1.58114,-0.79057c1.18585,0.39528 0.79057,1.58114 0.79057,1.58114c-0.13333,0.4 -0.26667,0.8 -0.4,1.2l0.06415,0.20472c0,0 0,1.25 -1.25,1.25z"></path><path d="M297.67,293.84667c-1.25,0 -1.25,-1.25 -1.25,-1.25c0,-0.46667 0,-1.33333 0,-1.8c0,0 0,-1.25 1.25,-1.25c1.25,0 1.25,1.25 1.25,1.25c0,0.46667 0,0.93333 0,1.4v0.4c0,0 0,1.25 -1.25,1.25z"></path></g></g><g fill-opacity="0.23529" fill="#2f152f"><path d="M293.53483,191.3771c-0.28807,0.29033 -0.58099,0.64603 -0.88483,0.99997v0.34794c0,3.76333 -0.25177,7.48801 -0.25,11.25c0,7.53751 -1.60635,14.45099 -3.41699,21.6736c0.00658,1.45829 0.04034,2.90456 0.10536,4.33177c0.04025,0.15819 0.06163,0.32391 0.06163,0.49463c0,0.10148 -0.00756,0.2012 -0.02214,0.29861c0.0059,0.10916 0.01199,0.2182 0.01828,0.32711c0.15589,2.70247 0.97822,4.78157 0.95036,7.58378l-0.31811,0.35469l0.16047,0.08024l-0.98062,1.96125c-0.32069,0.67649 -1.00983,1.14433 -1.80823,1.14433c-0.8602,0 -1.59356,-0.54306 -1.87595,-1.30504c-0.40207,0.14187 -0.90823,0.14901 -1.51847,-0.15611c-0.39714,-0.19857 -0.66202,-0.44122 -0.83381,-0.6986c-0.95112,0.3911 -2.10295,0.16277 -3.14604,0.15588c-0.08383,-0.00055 -0.16699,-0.00192 -0.24948,-0.0041c-0.57886,0.75796 -1.62625,0.75796 -1.62625,0.75796l-2.81,-0.304c-0.87766,-0.62707 -2.04241,-0.97859 -2.63299,-1.88121c-0.2041,-0.31194 -0.29805,-0.66638 -0.34712,-1.03875c-0.28722,-0.34628 -0.45989,-0.79099 -0.45989,-1.27604v-0.9888c-3.00584,0.93155 -5.80416,1.49396 -9.08312,1.23707c-0.39555,-0.03099 -0.78964,-0.05441 -1.1758,-0.08118l-0.12544,0.03431l0.08985,0.12369l-1.6431,1.19356c-0.02322,0.23599 -0.04828,0.47272 -0.07553,0.71027c-1.36621,11.90945 -0.26276,24.12884 -0.2373,36.10487c0.05257,0.29598 0.03287,0.64348 -0.10219,1.04867c-0.01008,0.03025 -0.02049,0.05987 -0.03121,0.08885c-0.10942,0.32019 -0.3083,0.68181 -0.66978,0.93858c-0.3579,0.26173 -0.76386,0.33605 -1.10222,0.33861c-0.03088,0.001 -0.06226,0.00151 -0.09416,0.00151c-0.45978,0 -0.81386,-0.1057 -1.08654,-0.26849l-0.0557,-0.02034c-1.55465,-0.31481 -3.05078,-0.87111 -4.58621,-1.26923c-2.62326,-0.68019 -4.21815,0.33469 -6.59516,-1.69257c-1.19041,-1.01525 -2.00555,-2.40409 -3.06845,-3.5525c-0.37847,-0.24672 -0.58998,-0.60597 -0.70819,-0.93046c-0.18044,-0.38724 -0.29754,-0.91306 -0.05552,-1.47888l0.16928,-1.2798c0.08459,-0.1444 0.16416,-0.28824 0.23926,-0.43168c-0.31283,-0.35295 -0.50277,-0.81732 -0.50277,-1.32605c0,-0.33591 0.08281,-0.65249 0.22914,-0.93041l0.96676,-1.93351c2.11539,-4.76282 3.30638,-9.65424 4.58096,-14.71273c0.60275,-7.14874 2.62175,-14.17675 4.27665,-21.13286c0.36134,-1.51885 0.77516,-3.03109 1.32384,-4.49274c0.26899,-0.71658 0.45747,-1.46954 0.81227,-2.14775c0.21922,-0.41904 1.23112,-1.22489 0.75893,-1.1987c-1.85519,0.10287 -4.63956,-0.20233 -6.4352,0.2317c-1.32424,0.32008 -2.16983,1.65281 -3.18461,2.56182c0,0 -0.01995,0.01773 -0.05728,0.04679c-3.48447,9.90198 -7.26436,19.69828 -11.16174,29.44425c-1.19492,2.98806 -2.78649,6.20766 -3.3918,9.37099c-0.08052,0.4208 -0.09933,0.78079 -0.09748,1.09846c0.14666,0.0946 0.29332,0.18919 0.43997,0.28379l0.13375,0.27306l0.07436,-0.06374l1.49274,1.74153c0.0867,0.09993 0.16366,0.20855 0.22939,0.32438c0.26166,0.03138 0.5078,0.11328 0.72836,0.23567h0.531c1.10457,0 2,0.89543 2,2c0,1.02962 -0.77804,1.87752 -1.77825,1.98785l-1.29276,0.16159l-0.51477,0.51477l-0.05208,-0.05208c-0.15706,0.16663 -0.32916,0.31876 -0.52064,0.45222c-0.68564,0.47791 -1.56076,0.47268 -2.43918,0.44148c-0.26631,0.10396 -0.55643,0.1282 -0.85647,0.11822c-0.5972,0.30348 -1.22827,0.59265 -1.9794,0.79406c-0.94707,0.25395 -1.94548,0.23455 -2.93742,0.08189h-0.19466c-0.2666,0.77077 -0.53627,1.43409 -0.66901,1.84776l-1.64001,-0.97311l-0.53957,0.53957l-0.82925,-0.82925c-1.85915,2.2065 -3.81088,4.27885 -5.7529,6.48379c-2.26707,2.57399 -3.99797,5.67666 -6.29314,8.29762l-0.06205,0.03207l0.01577,0.01577l-1.33894,1.33894l-1.06271,1.70033c-0.12861,0.53663 -0.29004,1.01378 -0.44397,1.43501c0.32747,0.08034 0.61002,0.22693 0.8206,0.46765c0.50635,0.57883 0.98882,1.34578 1.27759,2.14533c0.02748,-0.00044 0.05522,-0.00093 0.08322,-0.00148h1.25c0,0 0.06792,0 0.17873,0.01252c0.398,0.02639 0.92541,0.15477 1.31528,0.59274c0.19223,0.19636 0.35193,0.45643 0.43777,0.80087c0.70275,0.01121 1.32883,0.08026 1.80646,0.23996c0.45295,0.0196 0.90501,0.04891 1.35478,0.10392h1.90698c1.10457,0 2,0.89543 2,2c0,1.10457 -0.89543,2 -2,2h-3c-3.26566,0.79168 -7.38158,-0.16665 -10.75563,0.23502c-1.78942,0.21302 -3.72084,1.60243 -5.56797,0.01434c-1.88025,-1.61656 -0.80905,-6.16177 -0.33596,-8.09398l0.08134,-0.09096l-0.04444,-0.01666l0.39629,-1.05678c-0.24258,-1.03115 0.57103,-2.39031 0.97229,-3.45182c0.28747,-0.7605 2.99965,-3.82166 3.54358,-4.40552c1.7657,-1.89532 3.78808,-3.58306 5.72916,-5.34078c0.32377,-0.45471 0.61457,-0.85755 0.83185,-1.17387c2.44118,-3.5538 3.31298,-7.71495 5.88858,-11.17939l0.13618,-0.06432l-0.03949,-0.03949l0.37602,-0.37602c-0.57667,-0.35092 -0.9618,-0.98537 -0.9618,-1.70977c0,-0.66265 0.32227,-1.25003 0.81862,-1.61397l1.4896,-1.1172c0.19908,-0.79928 0.20481,-1.64819 0.26808,-2.44254l-0.24051,-0.24051l0.29615,-0.29615c0.16236,-1.2057 0.61144,-2.21591 2.33396,-2.62079c0.04696,-0.06216 0.09388,-0.12439 0.14074,-0.1867c0.20023,-0.30863 0.43891,-0.6257 0.70432,-0.94712c4.10696,-5.58511 7.81457,-11.72114 11.067,-17.87443c0.8432,-2.39691 1.69371,-4.81912 2.79743,-7.22961c0.07046,-0.15388 3.98773,-6.99374 4.1035,-7.19611l0.07382,-0.0579l-0.02416,-0.01685l1.76474,-2.53089c0.05345,-0.07885 0.11237,-0.15368 0.17623,-0.22395c-0.59759,-0.70354 -1.17915,-1.52903 -1.97083,-1.78228c-3.05716,-0.97794 -6.44277,-0.07911 -9.51639,1.16215c-1.5608,1.57551 -3.34213,2.9491 -4.70589,4.69566c-2.01956,2.58646 -3.37486,5.71098 -5.6169,8.1366c-1.34964,1.46014 -2.18711,1.56211 -3.38086,3.11053c-3.79664,4.92464 -6.97726,10.06002 -11.06013,14.82363c0,0 -1.30158,1.51851 -2.8201,0.21693c-1.51851,-1.30158 -0.21693,-2.8201 -0.21693,-2.8201c0.34405,-0.40137 0.68138,-0.80578 1.01298,-1.2128c-0.29292,0.1682 -0.63246,0.26438 -0.99447,0.26438c-0.08569,0 -0.17012,-0.00539 -0.25298,-0.01585c-0.2935,0.16911 -0.63397,0.26585 -0.99702,0.26585c-1.10457,0 -2,-0.89543 -2,-2c0,-0.4918 0.17751,-0.94215 0.47196,-1.29045l0.39319,-0.47183l-0.06752,-0.30386l0.0332,-0.00738c-0.03095,-0.11509 -0.05759,-0.23161 -0.07935,-0.34973c-0.23977,-1.30178 0.31172,-2.62997 0.53094,-3.93537c0.16156,-0.96204 0.35172,-1.94386 0.61191,-2.90605c-0.20985,0.07585 -0.42395,0.14306 -0.64264,0.20073c-5.6196,1.48181 -7.03057,-3.30779 -7.384,-7.77647c-1.21281,-4.8058 -0.64901,-10.73862 -0.08834,-15.25093c0.41192,-1.78991 0.58712,-3.80655 2.12335,-5.13675c1.62293,-1.40528 3.93227,-1.80989 5.63729,-3.11435c3.50703,-2.68311 6.32919,-5.76769 10.16882,-8.11516c0.84115,-0.51427 4.87494,-2.83168 5.69981,-2.43084c3.19571,1.55294 2.29947,4.54417 2.28632,7.14605c0.22953,-0.00611 0.38386,0.01961 0.38386,0.01961l1.60506,0.27041c3.09407,0.70668 5.98062,1.91527 8.64331,3.52408l1.58146,-2.03331c0.36538,-0.47917 0.94226,-0.78839 1.59136,-0.78839c1.10457,0 2,0.89543 2,2c0,0.36027 -0.09526,0.6983 -0.26197,0.99026l-0.98237,1.80102c0.08971,0.16392 0.15712,0.34179 0.19817,0.52951c0.01821,-0.00117 0.03641,-0.00221 0.05462,-0.00315l-0.00652,-0.0522l1.9687,-0.24609c0.09129,-0.01276 0.18456,-0.01936 0.27937,-0.01936c0.41621,0 0.80273,0.12714 1.12283,0.3447c2.58506,0.30336 5.00149,1.54006 7.18757,3.3944c0.75847,0.64337 1.69353,1.30944 1.93,2.27551c0.02569,0.10496 0.0477,0.21031 0.06639,0.31602c0.34052,0.02709 0.67881,0.05453 1.0122,0.08542l1.21667,-1.94667c0.34996,-0.58087 0.98678,-0.96936 1.71435,-0.96936c1.10457,0 2,0.89543 2,2c0,0.23753 -0.04141,0.46538 -0.1174,0.67674l-0.20986,0.62958c1.2894,-0.1081 2.71215,0.00284 3.70298,-0.05245c5.3258,-0.29721 12.44575,0.42166 16.20286,-4.16084l0.13814,-0.05961l-0.03374,-0.03856l1.99271,-1.74362c0.35274,-0.31191 0.81641,-0.50123 1.3243,-0.50123c0.30187,0 0.58813,0.06688 0.84475,0.18663c0.06791,-2.64697 0.36691,-5.22387 1.24385,-7.27534c0.04661,-0.10904 0.09574,-0.22435 0.14736,-0.34469c0.4155,-4.30997 0.9095,-8.6329 1.48615,-12.98902c0.32982,-3.51124 1.47941,-7.2384 2.05064,-10.56926c0.26302,-2.88983 0.50201,-5.78119 0.7338,-8.67012c0.32585,-4.06122 0.95468,-7.8181 2.02232,-11.74569c0.37286,-1.37167 0.36464,-2.91248 1.12554,-4.11312c0.02598,-0.04099 0.05236,-0.08166 0.07914,-0.12201c0.05069,-0.40779 0.11922,-0.82422 0.21611,-1.25596c-0.39559,0.11191 -0.79588,0.16578 -1.19966,0.14857c-1.91815,-0.08173 -3.38506,-0.68504 -4.06159,-1.89475c-0.75887,-0.04374 -1.46622,-0.3621 -2.01482,-1.12443c-2.37312,-3.29766 1.31986,-5.08243 3.03187,-6.18639c0.16258,-0.10484 0.3327,-0.21586 0.50938,-0.33166c0.66265,-1.23218 1.47088,-2.30611 2.23091,-2.979c3.07474,-2.72226 6.92439,-3.94906 10.69831,-5.13978c3.95762,-1.24868 7.84931,-3.26034 11.98926,-3.8113l2.14072,-0.47571c0.15255,-0.03724 0.31195,-0.05698 0.47597,-0.05698c0.56708,0 1.07904,0.23601 1.44301,0.61517c2.45746,-0.53667 4.93659,-0.87573 7.55699,-0.86517c1.03566,0.00417 2.16176,-0.3915 3.10685,0.03209c0.1096,0.04912 0.21661,0.10243 0.32133,0.15942l0.02407,-0.06418l1.95628,0.73361c0.25883,0.09022 0.49342,0.23213 0.69143,0.41336c2.23184,-1.34672 5.89003,-1.27431 7.90004,-1.27431h2c1.10457,0 2,0.89543 2,2c0,0.76626 -0.43092,1.43186 -1.06363,1.76771l-2.21508,1.2306l-0.03193,-0.05747c-0.11558,0.07898 -0.23464,0.15342 -0.35765,0.22269c-1.02079,0.57485 -2.32872,0.27257 -3.49859,0.33474c-0.58204,0.03093 -1.16207,0.03385 -1.74053,0.01636c0.56352,0.24082 1.08966,0.51174 1.28447,1.04494c0.36803,1.00734 -0.49583,2.08821 -0.67936,3.14486c-0.16285,0.93752 -0.00106,1.95029 -0.35881,2.83203c-0.29017,0.71517 -1.17099,1.064 -1.50435,1.76009c-0.20739,0.43305 -0.29252,1.02337 -0.31169,1.67932c0.68422,-1.05989 1.67634,-1.94799 2.43787,-2.96475l2.02825,4.02893c0.19213,1.92457 0.25545,3.14763 0.57876,4.30645c0.55548,-0.03223 1.14377,-0.13142 1.65585,-0.08398l0.0236,0.01022l0.00091,-0.00731l1.97368,0.24671c1.00022,0.11033 1.77825,0.95823 1.77825,1.98785c0,0.55228 -0.22386,1.05228 -0.58579,1.41421l-1.5,1.5l-0.06446,-0.06446c-0.17457,0.18615 -0.36739,0.35411 -0.58439,0.49801c-1.00816,0.66853 -2.4165,0.17167 -3.62597,0.14918c-1.44219,-0.02681 -3.07684,-0.09569 -4.51892,-0.56679c-1.54954,0.84671 -3.74125,0.56351 -5.34752,0.69524l-0.85258,0.53286c-0.41531,1.78378 -2.34278,3.12289 -3.28004,4.48598c-3.32658,4.83795 -4.53859,11.09373 -8.01595,15.77254c-1.73571,2.3354 -3.26396,5.5197 -5.00224,7.7216c-0.56964,0.72157 -1.11223,1.58343 -1.72554,2.33507c0.05206,0.32765 0.08692,0.6695 0.10339,1.02656v0.70524c0.08294,0.40421 0.05114,0.8869 -0.28897,1.36891c-0.18645,0.33774 -0.49319,0.66413 -0.99785,0.82395c-0.11591,0.05067 -0.22958,0.08675 -0.34042,0.11051c-0.30317,1.42869 -0.82065,2.71903 -1.73793,3.64349zM287.67583,190.04536c-0.76926,-2.25631 0.26151,-5.44577 0.87071,-8.14975c-0.83238,0.20526 -1.69823,0.14373 -2.57015,-0.39666c-1.19899,-0.74309 -1.73064,-2.22799 -2.59596,-3.34199l0.00455,-0.27008l-0.10763,0.04036l-0.58658,-1.56422c-0.22999,-0.42106 -0.41921,-0.85253 -0.57484,-1.2927c-0.12055,0.50672 -0.22373,1.01609 -0.30498,1.52869c-1.01429,6.39924 -1.16094,13.39387 -1.16094,19.87599c0,0 0,1.40315 -1.17528,1.85889c-0.06855,0.16118 -0.1255,0.32153 -0.16348,0.48031c-0.65816,2.75125 -1.45777,5.78611 -1.68563,8.60773c-0.49396,6.11663 -0.60754,12.20973 -1.2911,18.30452c-0.29121,2.59646 0.54536,5.33057 -0.16962,7.83906c0.26862,2.32245 1.62574,2.29041 3.85939,2.66335c0.3791,0.0633 0.77976,0.44149 1.12187,0.26632c0.29476,-0.15092 0.11022,-0.65945 0.2405,-0.9639c0.60973,-1.42482 1.35052,-2.79525 1.8872,-4.24916c0.62898,-1.70395 1.21018,-3.4463 1.7378,-5.21628c0.05462,-6.58512 0.87443,-13.24927 1.39338,-19.73263c0.23653,-2.95501 0.75366,-5.82385 1.00282,-8.78522c0.11027,-1.31059 -0.21538,-2.71582 0.27538,-3.93605c0.02897,-0.07204 0.05908,-0.14347 0.09026,-0.21435l-0.03504,-0.01078l0.49215,-1.5995c-0.21006,-0.59177 -0.37471,-1.21382 -0.55477,-1.74196zM263.55221,223.487c0.30873,-1.09022 0.76558,-2.15275 1.29666,-3.18287c-0.7241,1.10488 -1.29412,2.29827 -1.71906,3.63976c0.14076,-0.1523 0.28157,-0.30458 0.42239,-0.45689zM255.66539,224.7583c0.03498,-0.04521 0.07058,-0.08981 0.10677,-0.13383c-0.01587,-0.00524 -0.03164,-0.01068 -0.04733,-0.0163c-0.02118,0.0518 -0.04103,0.10188 -0.05944,0.15013zM252.2428,270.88141c-0.02004,-0.15493 -0.03641,-0.31274 -0.04952,-0.46706l-0.24522,0.28609c0.09886,0.05843 0.19813,0.11893 0.29474,0.18096zM232.95869,239.7156c0.25495,-0.65377 0.51055,-1.30728 0.76654,-1.96063c-0.16436,0.34287 -0.32945,0.68582 -0.49505,1.02888c-0.09119,0.31042 -0.18166,0.62103 -0.27149,0.93175zM198.30835,295.56545c-0.10463,-0.01096 -0.21051,-0.02024 -0.31671,-0.02912c-0.019,0.17028 -0.02621,0.31949 -0.01804,0.43932c0.01237,0.18137 0.16676,-0.22621 0.33475,-0.4102z"></path><path d="M207.45351,175.98092c-0.0324,0.52753 -0.0538,0.913 -0.05351,0.99408c0.00251,0.7137 0.00519,1.37639 0.02693,2.02292c1.43539,1.57021 6.39399,4.99846 2.88728,7.89129c-4.06078,3.34991 -5.42067,-1.05665 -6.3172,-3.29888c-0.48875,-1.22236 -0.75951,-2.81662 -0.84307,-4.48893c-0.27779,-1.20089 -0.27933,-2.55235 -0.10964,-3.90378l-1.08879,-0.2722c-0.89064,-0.20212 -1.55552,-0.99863 -1.55552,-1.95043c0,-0.75726 0.42086,-1.41622 1.04143,-1.75575l1.71629,-0.98074l0.36799,0.64398l0.81677,-0.62194c0.1697,-0.42573 0.34463,-0.82199 0.51866,-1.17997c0,0 0.33504,-0.67007 1.00511,-0.98495c0.78288,-0.68583 1.91185,-0.91417 3.66051,-0.1682c1.24671,0.53185 1.36673,2.34109 2.05009,3.51163c-0.05917,1.28652 0.66545,2.88586 -0.1775,3.85955c-0.34648,0.40022 -2.21298,0.63721 -3.94584,0.68231z"></path><path d="M280.4,246.225c0,0 0,-2 2,-2c0.76868,0 1.24192,0.29543 1.53328,0.6592c0.36971,0.15752 0.68229,0.42316 0.89803,0.75721l1.48279,2.22419l-0.07726,0.05151c0.09975,0.1166 0.19582,0.23659 0.28763,0.3605c0.74474,1.00504 0.34363,2.47967 0.65477,3.6974l0.52712,0.73796c3.83468,3.89904 2.94522,8.08593 2.94364,13.26203c-0.00057,1.87003 0.10862,3.73865 0.20663,5.60631c0.64612,0.30823 1.33185,0.68223 2.27168,1.1493l0.06134,0.08094l0.02034,-0.03254l1.97064,1.23165c0.58039,0.34967 0.96873,0.98574 0.96936,1.71256c0.46449,-0.30076 1.13841,-0.47262 1.99228,0.0153c0.10169,0.05811 0.19402,0.11877 0.27774,0.18148c0.43668,-0.0102 0.842,-0.00379 1.22644,0.01887c0.19832,-0.14264 0.41797,-0.24296 0.66782,-0.2809c0.90001,-0.13667 1.78009,0.11171 2.65598,0.44095l1.57697,0.13141c1.03582,0.07537 1.85276,0.93961 1.85276,1.99466c0,0.87385 -0.56043,1.61681 -1.34147,1.88905l-1.95628,0.73361l-0.05439,-0.14505l-0.291,0.2403c-0.4987,0.00595 -0.96601,0.02442 -1.41001,0.0552c-0.18326,0.10518 -0.36995,0.20183 -0.56331,0.28179c-0.11976,0.19106 -0.24444,0.40147 -0.37018,0.63882c-0.63891,1.20601 -1.26021,2.31724 -1.90084,3.39548c0.43516,0.84356 0.64264,1.92471 1.37471,2.58941c1.00732,0.91463 4.66181,0.32139 5.76278,0.32139c0.66667,0 1.5286,-0.4714 2,0l4,2c-1.32805,0.66402 -2.65065,1.22592 -4,1.62403v0.37597c-3.66651,-0.00755 -7.44355,2.07366 -10.99437,1.48502c-0.3878,-0.06429 -0.80228,-0.10707 -1.20835,-0.17414l-0.2956,0.87518c-0.55519,-0.55468 -1.19249,-1.04812 -1.80065,-1.56329l-1.45103,0.12724c0,0 -2,0 -2,-2c0,-1.18847 0.70623,-1.67071 1.27936,-1.86639c-0.09253,-1.92745 0.16938,-4.81649 0.22064,-5.88361c0.01581,-0.32915 -0.01011,-0.67456 -0.03229,-1.01979c-0.2086,-0.04628 -0.42847,-0.11726 -0.66143,-0.21686c-0.99438,-0.42513 -0.7891,-1.98093 -1.15917,-3.02789c-0.83765,-0.7296 -1.74325,-1.35327 -2.6938,-2.46748c-0.48393,-0.56726 -0.91522,-1.29606 -1.31205,-2.08514c-1.67349,0.05239 -3.37828,0.54373 -4.97628,-0.50274c-2.48284,-1.62592 -2.13671,-3.85775 -2.16498,-6.1801c-0.06322,-5.19213 0.20431,-9.2639 2,-14.00405c0,-2.66409 0,-5.35494 0,-7.49595z"></path><path d="M303.95178,237.92713c-0.22521,-0.98405 -1.31426,-5.00161 -0.79065,-6.41283c0.02475,-0.0667 0.0502,-0.13307 0.07631,-0.19913l-0.04305,-0.00922l0.74191,-3.46226c0.17802,-0.92219 0.98952,-1.61868 1.96369,-1.61868c1.10457,0 2,0.89543 2,2v2.25c-0.01055,5.12094 1.48406,10.03261 3.78198,14.59195c2.87655,5.70741 5.83158,11.54156 3.68743,18.07644c-0.02512,0.09296 -0.05561,0.18084 -0.08876,0.2625c-0.28344,0.81322 -0.62597,1.47262 -1.02228,2.06855l-0.69642,2.08926c-0.25134,0.81725 -1.01227,1.4113 -1.91195,1.4113c-1.10457,0 -2,-0.89543 -2,-2v-2c0,-1.37385 0.06209,-2.91145 0.06003,-4.46621c-0.16838,-0.86509 -0.1455,-1.7581 -0.08991,-2.6547c-0.04686,-0.61355 -0.11573,-1.21635 -0.21481,-1.79887c-0.2039,-0.80575 -0.42376,-1.60528 -0.65509,-2.40043c-0.56811,-1.43245 -1.38827,-2.81675 -1.43488,-4.34118l-0.15261,-0.68675c-1.16647,-3.52245 -2.37206,-7.03423 -3.21096,-10.69973z"></path><path d="M329.52822,194.68891c-1.67828,0.36478 -4.01824,0.18601 -6.00717,0.08695c-0.2633,0.12759 -0.55882,0.19913 -0.87104,0.19913c-0.27861,0 -0.54391,-0.05697 -0.78489,-0.15989l-0.32361,-0.12944c-0.24524,-0.04534 -0.57956,-0.14293 -0.8825,-0.353l-1.25178,-0.50071l0.03568,-0.08921c-0.13196,-0.02882 -0.26329,-0.06135 -0.39388,-0.09806c-0.72461,-0.2037 -1.01794,-1.11934 -1.61301,-1.58027c-0.55641,-0.43099 -1.05223,-0.76708 -1.50869,-1.06693c0.0531,0.58141 0.0788,1.16041 -0.02732,1.72752v2h-0.57751c-0.22026,0.61561 -0.45788,1.22683 -0.65712,1.84776l-1.60527,-1.00786l-0.57431,0.57431l-1.5,-1.5l0.23138,-0.23138l-0.66492,-0.41747c-0.06999,-2.69225 0.12733,-4.11898 1.25958,-5.42356c0.08312,-0.47921 0.18958,-0.9709 0.30881,-1.45961l-0.22064,-1.1322c0,0 0,-1.30723 1.05685,-1.80799c0.22672,-0.73124 0.42167,-1.34523 0.52291,-1.75119l0.04664,-0.06536l-0.02376,-0.00792l0.73542,-2.20625c0.25134,-0.81725 1.01227,-1.4113 1.91195,-1.4113c0.05535,0 0.11018,0.00225 0.16439,0.00666c0.21759,-0.18265 0.47608,-0.27318 0.7832,-0.23747l-0.44746,-0.24594c0.97679,-1.16519 1.47101,-3.16603 2.82452,-3.67886c0.03915,-0.13588 0.0958,-0.2725 0.17534,-0.40487v-2.18953c0,-1.10457 0.89543,-2 2,-2c1.10457,0 2,0.89543 2,2v2.22727c0.74551,1.61013 1.46367,3.23343 2.10722,4.87894c0.38657,0.54939 0.80099,1.09019 1.2353,1.60242c0.6355,-0.11421 1.28039,-0.27079 1.90184,-0.19365c1.58865,0.19718 3.19775,0.483 4.67479,1.10028c0.91585,0.38275 1.8838,0.75036 2.69882,1.31309c-0.07636,-0.21181 -0.11798,-0.44023 -0.11798,-0.67836c0,-0.18297 0.02457,-0.36021 0.07059,-0.52858l0.48912,-1.95649l0.1145,0.02863c0.03638,-0.22949 0.09374,-0.45548 0.17797,-0.677c0.71155,-1.87145 3.36656,-2.33168 4.49168,-3.98781c1.43483,-2.11199 1.96274,-4.87312 2.75877,-7.2612l0.25,-0.75c0,0 0.43066,-1.29199 1.64737,-1.38832v-0.72923c0,-1.10457 0.89543,-2 2,-2c1.10457,0 2,0.89543 2,2v2h-0.04083c0.01232,0.05467 0.02368,0.10965 0.03401,0.16496c0.08056,0.4311 0.09541,0.89269 0.05655,1.37583l0.56663,-0.25128c-0.22118,0.68 -0.45688,1.35799 -0.70986,2.02984c0.00417,0.0053 0.00829,0.01061 0.01238,0.01593l0.83627,0.73174l-0.50101,0.57258c-0.02168,0.17823 -0.06329,0.34012 -0.10778,0.47453c0.22301,0.32262 0.35364,0.714 0.35364,1.13588c0,0.44193 -0.14334,0.85039 -0.38606,1.18141l-1.23647,1.73106l-0.36925,-0.26375c-1.49594,3.34879 -3.6993,5.93498 -5.99915,9.32039c-0.20121,0.34419 -0.40821,0.68629 -0.62456,1.02262c-0.67371,1.22382 -1.21082,2.45284 -2.54343,2.98282c-0.27328,0.22471 -0.56229,0.43604 -0.86936,0.63162l-1.44474,1.68553c-0.36687,0.43325 -0.9148,0.70829 -1.52697,0.70829c-0.31918,0 -0.62089,-0.07477 -0.88859,-0.20774c-1.62242,1.19348 -3.04243,2.19548 -5.2332,2.67166zM322.32547,183.70823c-0.29516,-0.3778 -0.82969,-0.98548 -1.33466,-1.66803c-0.25561,0.1186 -0.54048,0.1848 -0.84081,0.1848c-0.09481,0 -0.18807,-0.0066 -0.27937,-0.01936l-1.09453,-0.13682l0.04198,0.56121c0.10783,0.44225 0.32556,0.95973 0.33191,1.34496c0.0598,3.62506 0.0402,3.72655 3.00145,5.93992l0.03312,0.06141l0.01701,-0.01984l0.89964,0.77112c2.28795,0.00645 4.02553,-0.0029 5.76239,-0.44532c-2.84679,-1.00848 -4.64126,-4.14611 -6.53815,-6.57406z"></path><path d="M334.85,179.575c-1.6,1.2 -2.8,-0.4 -2.8,-0.4l-0.88649,-1.20772c-0.33333,-0.58333 -0.66667,-1.16667 -1,-1.75c0,0 -0.99228,-1.73649 0.74421,-2.72876c1.73649,-0.99228 2.72876,0.74421 2.72876,0.74421c0.33333,0.58333 0.66667,1.16667 1,1.75l0.61351,0.79228c0,0 1.2,1.6 -0.4,2.8z"></path><path d="M367.29737,145.34254c0.63246,1.89737 -1.26491,2.52982 -1.26491,2.52982l-0.08087,-0.12885c-0.29518,0.25161 -0.57846,0.53447 -0.85517,0.83327c0.08614,0.09817 0.16967,0.21036 0.24958,0.33822c1.06,1.696 -0.636,2.75599 -0.636,2.75599c-1.31158,0.81974 -2.62332,1.63921 -3.93524,2.45841l-1.69334,1.20953c-0.33102,0.24272 -0.73948,0.38606 -1.18141,0.38606c-1.10457,0 -2,-0.89543 -2,-2c0,-0.42026 0.12962,-0.81024 0.35107,-1.13215l1.48483,-2.22725l0.03286,0.02191c0.02731,-0.06049 0.05548,-0.12066 0.08455,-0.18049c0.86127,-1.77239 3.98188,-4.19719 5.4951,-5.50054l1.41913,-0.62885c0,0 1.89737,-0.63246 2.52982,1.26491z"></path></g><g fill-opacity="0.23529" fill="#2f152f"><path d="M277.51082,165.05816c0.63482,-3.0382 2.22514,-6.02246 2.63018,-9.12318c0.25089,-1.92069 0.37424,-3.90668 0.0198,-5.81098c-0.16528,-0.88798 -0.83376,-1.68311 -1.19262,-2.5152c-0.04442,0.02777 -0.08882,0.05561 -0.13319,0.08353l-0.60954,-1.51473l-0.52827,-0.35218l-0.88484,0.50562l-1.30937,-2.2914c-0.09476,-0.15893 -0.17395,-0.32823 -0.23546,-0.50578c-3.45001,-3.64399 1.15841,-6.92315 3.20083,-8.7035c6.07117,-5.29217 13.30901,-6.97242 20.7927,-9.21284c2.84562,-0.43694 5.72668,-0.72824 8.60564,-0.73419h2.66667c1.29749,0 2.38511,0.89857 2.6745,2.10735c2.00601,0.10309 3.98433,0.29759 5.99216,0.66076v-0.43478h3c1.51878,0 2.75,1.23122 2.75,2.75c0,0.93575 -0.46737,1.76234 -1.18142,2.25907l-2.30351,1.64536l-0.10412,-0.14576l-0.28366,0.37718c-0.33622,0.10109 -0.67872,0.18615 -1.02182,0.26969c-0.30283,1.22193 -0.93516,2.48075 -1.72001,3.6605c-1.14376,1.71924 -3.26208,2.50118 -4.95038,3.72022l-0.1154,1.15404l-0.11932,-0.01193c0.00674,0.05178 0.01308,0.10364 0.019,0.15556c0.46053,-0.01195 0.83874,0.05298 1.09455,0.21415c4.3633,2.749 0.81283,9.76268 -3.18853,9.78243c-0.6013,0.00297 -1.1251,-0.07524 -1.58021,-0.22149c-0.50097,1.31555 -1.1279,2.03105 -1.85603,2.98421c-0.21523,0.76183 -0.73919,1.39377 -1.33653,2.00063c-2.34437,3.97861 -4.32593,8.50186 -6.27999,12.65822c-0.75882,1.61404 -0.63051,3.63498 -1.67255,5.08242c-0.03717,0.05163 -0.07457,0.10307 -0.11218,0.15434l0.04219,0.01875l-2.20826,4.9686c-0.41487,0.99282 -1.3952,1.69049 -2.53848,1.69049c-1.062,0 -1.9834,-0.602 -2.44157,-1.48336c-0.0579,0.03787 -0.11726,0.07517 -0.17813,0.11187c-3.02512,1.82369 -7.32662,0.55559 -9.72333,-2.0727c-0.11889,1.48087 -0.23774,2.77775 -0.2498,2.92258c0,0 -0.15422,1.85069 -1.73005,2.38364c-0.19946,1.64344 -0.43315,3.28375 -0.6049,4.96828c-0.1909,1.87247 0.18616,3.77341 0.00174,5.64652c-0.53384,5.42211 -0.9479,10.76124 -1.16222,16.15184c0.17159,0.52205 0.17159,0.95467 0.17159,0.95467c0,6.3683 -0.2354,12.69153 -0.31056,19.04307c0.10046,0.90734 0.47739,1.90146 -0.02088,2.62087c-0.00124,0.33413 -0.00189,0.66837 -0.00189,1.00272v0c0,1.08569 0,2.66667 0,2.66667c0,1.51878 -1.23122,2.75 -2.75,2.75c-1.51878,0 -2.75,-1.23122 -2.75,-2.75v-3.66667c-0.68294,-0.73047 0,-2 0,-3c0,-0.37009 0,-0.74018 0,-1.11027c-0.25844,2.07237 -0.94433,3.99632 -3.25022,5.51554c-1.6955,1.11707 -4.15915,0.05564 -6.03358,0.83608c-1.50166,0.62523 -3.42319,2.023 -5.44355,3.01087c-0.90716,4.9148 -2.16947,9.7734 -3.16425,14.64417c-0.83058,4.06683 1.01448,9.40022 -0.38164,13.19507c-0.00725,0.01972 -0.01453,0.03939 -0.02183,0.059c0.00509,0.02359 0.01035,0.04715 0.01579,0.07068c0.33397,1.44368 1.77593,2.82997 1.32794,4.24243c-0.46747,1.47386 -2.40064,1.9494 -3.60095,2.9241l-3.03105,0.36233c0,0 -2.75,0 -2.75,-2.75c0,-0.59216 0.12751,-1.05681 0.32762,-1.42141c-0.51034,-0.39121 -1.03842,-0.87803 -1.58358,-1.46616c-0.93652,-1.01034 -0.27381,-2.74162 -0.41071,-4.11243c0.00519,-6.0728 1.67873,-11.57246 2.71124,-17.4931c0.63862,-3.662 0.70392,-7.32785 1.72301,-10.91169c0.68114,-2.3954 0.84477,-4.94384 1.75415,-7.26222c0.06775,-0.17272 0.15877,-0.33273 0.26404,-0.48497c0.45506,-1.19722 1.06585,-2.33732 1.76894,-3.44252c0.21631,-1.74264 0.09165,-3.98301 -0.08976,-5.40823c-1.91943,-0.11675 -4.53026,-0.4804 -5.95325,0.19198c-0.69036,0.3262 -1.04983,1.14203 -1.71252,1.52131c-0.75362,0.43131 -1.72604,0.39656 -2.45712,0.86507c-3.54001,2.26861 -4.27532,9.44212 -6.20661,12.79265c-0.56707,0.98379 -1.22045,1.9145 -1.88614,2.83743c-0.25879,0.90612 -0.24955,1.89203 -0.59506,2.77047c-1.81757,4.62111 -5.02129,7.79487 -6.23635,12.6908l-0.65271,2.61086c-0.27791,1.22463 -1.37312,2.13883 -2.68184,2.13883c-0.02363,0 -0.04719,-0.0003 -0.07068,-0.00089c0.11747,0.9142 0.31181,1.77482 0.63328,2.58356c1.19707,0.10461 2.30696,0.31831 3.01031,0.74491c0.20785,0.12607 0.3672,0.29683 0.49585,0.49589c0.21403,0.0354 0.37521,0.08488 0.46753,0.15099c0.18695,0.13386 0.36495,0.27702 0.5353,0.42813c0.01214,0.00704 0.02426,0.0141 0.03636,0.02119l0.00893,-0.02009l0.13839,0.06151l0.06139,-0.08186l0.3572,0.2679l2.38564,1.06029c0.99282,0.41487 1.69049,1.3952 1.69049,2.53848c0,1.04123 -0.57868,1.9473 -1.43197,2.41415l-2.28698,1.30685l-0.24396,-0.42693l-0.90014,0.78042c-1.493,-0.49962 -3.12322,-0.69855 -4.479,-1.49887c-0.50439,-0.29774 -0.87347,-0.75732 -1.22433,-1.24016c-0.54565,0.1702 -1.10117,0.46665 -1.6602,1.02642c-4.55894,4.56499 -9.27299,8.63633 -13.01706,13.99016l-0.13119,0.06477l0.04612,0.03954l-1.98837,2.31976c-0.50444,0.59572 -1.25785,0.9739 -2.09959,0.9739c-0.03289,0 -0.06564,-0.00058 -0.09825,-0.00172c-0.42229,0.79272 -0.82425,1.59396 -1.20214,2.40362l0.00702,0.02834c0.01388,0.12279 0.00088,4.36761 0.72971,5.39619c0.6466,-0.00852 1.29326,-0.00977 1.93996,-0.00797c1.08618,-0.37839 2.17421,-0.92956 3.29036,0.01488h2.66667v0c1.51878,0 2.75,1.23122 2.75,2.75c0,1.51878 -1.23122,2.75 -2.75,2.75h-2.66667v-0.43984c-0.0044,0.00136 -0.0088,0.00273 -0.0132,0.00409l0.0132,0.43575c-0.64625,0 -1.39791,0.04296 -2.21031,0.09157c-0.86407,0.141 -1.72114,0.19376 -2.55195,0.12488c-3.39604,0.0884 -7.03244,-0.28062 -8.41932,-3.18726c-0.98964,-2.0741 0.35709,-5.35415 1.56698,-7.9148l-0.38662,-1.53075c0,0 -0.66697,-2.66789 2.00092,-3.33486c0.26301,-0.06575 0.50658,-0.09909 0.73197,-0.10578c2.35215,-4.76227 5.07899,-8.90793 8.41622,-13.2289c1.25483,-1.62472 1.51095,-3.6067 2.92935,-5.09676c-0.91575,-1.42166 0.32293,-3.47269 0.79442,-5.1265c0.27557,-0.96659 0.83377,-1.86215 1.49673,-2.61761c1.26549,-1.44205 2.31537,-3.75255 4.22783,-3.90566c0.22713,-0.01818 0.44487,0.00227 0.65435,0.05446c0.00913,-0.28913 0.16283,-2.72202 2.74942,-2.72202c0.07537,0 0.14868,0.00207 0.21998,0.00608c0.25304,-1.72321 1.3241,-3.47674 1.98701,-4.81926c2.11216,-4.27751 4.65336,-8.1019 7.0673,-12.10701c0.90357,-2.31611 1.76038,-4.64639 2.40116,-7.03566c0.87386,-3.25833 2.61901,-6.00103 4.23327,-8.92511c0.01209,-0.0219 0.02425,-0.04376 0.03649,-0.06558c-1.77927,-0.55722 -3.41997,-2.09749 -4.97051,-2.75176c-2.61344,-1.10277 -5.87279,-0.81004 -8.32856,0.36311c-1.37577,2.21675 -2.99723,4.12657 -5.75341,5.54656l-1.39585,3.02435l-0.13033,-0.06015c-0.06856,0.2142 -0.14423,0.42649 -0.22798,0.6366c-0.62164,1.55952 -2.40878,2.21924 -3.88749,3.1592c-0.93663,1.06005 -1.88082,2.11467 -2.8102,3.21182c-0.18778,0.22167 -0.36754,0.45311 -0.53993,0.69293c-0.87869,1.52472 -1.58086,3.16278 -2.29044,4.74892l-0.11188,0.06038c-0.45638,1.22996 -0.84794,2.46507 -1.22309,3.60085c0,0 -0.86963,2.60888 -3.47851,1.73925c-2.60888,-0.86963 -1.73925,-3.47851 -1.73925,-3.47851c0.16046,-0.4775 0.32376,-0.96284 0.49198,-1.45265l-1.23428,-0.27429l0.31275,-1.40737c-0.35033,0.04386 -0.77355,0.18183 -1.0467,0.02654c-1.14399,-0.6504 -2.44518,-1.30704 -3.15268,-2.40542c-0.12467,0.14891 -0.27068,0.20847 -0.45928,0.10864c-1.95831,-1.03652 -3.24715,-3.07157 -4.47168,-4.91814c-0.57912,-0.8733 -0.50502,-2.03478 -0.80488,-3.03882c-1.2714,-4.25708 -3.5585,-9.02969 -1.54125,-13.54806c0.86685,-1.94163 2.72854,-3.27556 3.88181,-5.06198c4.18078,-6.47604 10.43463,-12.39066 17.04552,-16.41672c1.80251,0.06542 4.0023,-0.9345 5.40754,0.19627c1.63328,1.31426 1.42195,2.85647 1.05289,4.38432c0.04686,0.04125 0.0717,0.06608 0.0717,0.06608l0.77646,0.91349c1.79387,3.26712 3.65913,4.049 7.09876,4.99108c1.5625,0.42795 3.71681,0.0288 4.67268,1.33681c0.8643,1.1827 0.91717,2.51593 0.59398,3.82844c0.4998,0.03709 1.00514,0.07917 1.5179,0.13811c2.60577,0.29952 4.64348,0.99157 7.12447,1.75161c1.67604,0.51344 3.99801,0.87145 5.24638,2.27401c0.65476,-0.03712 1.26557,0.24747 1.87194,0.5843c1.13768,0.20059 2.22251,0.46117 3.29367,0.79991c0.45092,-0.59461 1.13816,-1.00015 1.92185,-1.07672l2.96702,-0.32967l0.02128,0.19149l0.43085,-0.2043c1.39163,0.334 2.91413,0.32472 4.17488,1.00199c0.49864,0.26787 0.94575,0.56256 1.3466,0.88081c2.23063,-0.9603 4.83691,-1.25481 7.09933,-1.49339c0.33269,-1.80654 1.07461,-3.2737 3.46045,-4.32146c0.99601,-0.43741 2.17629,-1.05048 3.28752,-1.24767c0.21066,-5.35121 0.55694,-10.69234 1.07721,-15.98792c0.33654,-3.42545 0.99212,-6.61275 0.98889,-10.08637v-0.33333c0,0 0,-1.86665 1.53791,-2.52415c0.15023,-1.85478 0.49195,-3.72844 1.30725,-5.10158c0.17193,-2.07653 0.42899,-5.04174 0.549,-5.61611zM257.89582,232.14544c0.06918,-0.03916 0.13714,-0.07776 0.20399,-0.11579c-0.06534,-0.0691 -0.12883,-0.14114 -0.1906,-0.21602c-0.00421,0.11066 -0.00866,0.22127 -0.01339,0.33181zM266.52937,229.09931c-0.19804,0.35608 -0.39556,0.73115 -0.60657,1.09825c0.2736,-0.16789 0.46854,-0.56846 0.60657,-1.09825z"></path><path d="M205.43267,170.21791c0.36647,-0.20411 0.835,-0.33458 1.434,-0.33458c2.75,0 2.75,2.75 2.75,2.75v2.66667c0,2.24318 0.73093,6.93012 -0.00282,9.12461c-0.01355,0.04053 -0.02729,0.081 -0.04121,0.12138l0.03274,0.00298l-0.33079,3.63874c-0.11258,1.41542 -1.29687,2.52895 -2.74125,2.52895c-1.41573,0 -2.58159,-1.0698 -2.73329,-2.4451l-0.32369,-2.58954c-0.70788,-4.31188 -0.69302,-8.36102 -0.69302,-12.71536c0,0 0,-2.68247 2.64933,-2.74875z"></path><path d="M306.95,290.63333c0,2.75 -2.75,2.75 -2.75,2.75l-1.36774,-0.17509c-3.99543,1.43835 -8.82659,2.69508 -11.45596,-2.07514c-0.25511,-0.46283 -0.31592,-5.96328 -0.25963,-6.83309c0.03945,-0.60954 -0.01125,-1.25782 -0.03192,-1.89742c-0.85881,-1.27978 0.00749,-4.0509 -1.43243,-4.82944c-1.61196,-0.87155 -3.88018,-0.21693 -5.33333,-1.33333c-1.48331,-1.13957 -4.09588,-4.85223 -2.90744,-7.23671l-0.57414,-3.15778c-0.03546,-0.17626 -0.05406,-0.35861 -0.05406,-0.54531c0,-0.39387 0.0828,-0.76839 0.23195,-1.10712c-0.67221,-3.57921 -0.89693,-6.93418 -0.89861,-10.89288c0,0 0,-2.75 2.75,-2.75c2.75,0 2.75,2.75 2.75,2.75c-0.00213,4.80076 0.28703,8.50005 1.532,13.14518l1.28066,3.52181c0.12096,0.30984 0.18734,0.64701 0.18734,0.99967c0,0.37527 -0.07517,0.73298 -0.21127,1.0589c1.47116,0.31827 3.1557,0.10963 4.34228,1.00129c1.20222,0.90341 2.14669,2.22044 2.68738,3.6237c0.17104,0.44389 -0.31704,0.87828 -0.52581,1.33464c0.10072,-0.03545 0.20038,-0.07189 0.29853,-0.10984c0.09813,-0.19363 0.20554,-0.37876 0.31064,-0.46456c0.7553,-0.61665 1.64264,-1.05103 2.46397,-1.57655l0.29551,0.00679l-0.04348,-0.11594l2.60732,-0.97775c0.31675,-0.1273 0.66266,-0.19735 1.02493,-0.19735c1.51878,0 2.75,1.23122 2.75,2.75c0,0.91114 -0.44312,1.71879 -1.1256,2.2192l-2.64106,1.9808l-0.05747,-0.07662c-0.08825,0.09794 -0.17864,0.19415 -0.27137,0.28847c-0.75675,0.76975 -1.97824,0.88875 -3.02224,1.16305c-0.16282,0.04278 -0.35905,0.00022 -0.55404,-0.05125c-0.28463,0.13193 -0.57368,0.25071 -0.86729,0.35137c0.07285,0.353 0.49646,0.73911 0.53908,1.12497c0.16496,1.49349 -0.4188,3.00612 -0.25963,4.50024c0.1384,1.29916 4.53986,-0.74015 4.54404,-0.74181l3.29892,-0.17509c0,0 2.75,0 2.75,2.75z"></path><path d="M315.91791,267.44739c-2.14739,1.71791 -3.8653,-0.42948 -3.8653,-0.42948l-1.76085,-2.41899c-0.37699,-1.0472 -0.92686,-2.04748 -1.13097,-3.14159c-0.41766,-2.23881 0.73519,-5.46392 -0.42047,-7.59416c-0.44867,-0.82703 -1.38162,-1.3088 -1.875,-2.10997c-1.69024,-2.7447 -1.59377,-5.92876 -2.60754,-8.91691c0,0 -0.86963,-2.60888 1.73925,-3.47851c2.60888,-0.86963 3.47851,1.73925 3.47851,1.73925c0.74171,2.25845 0.72691,5.78136 2.05913,7.74976c0.62113,0.91774 1.65149,1.55479 2.125,2.5567c1.74922,3.70118 0.31698,7.56965 1.7819,11.26425l0.90582,0.91434c0,0 1.71791,2.14739 -0.42948,3.8653z"></path><path d="M335.13163,187.04122c-0.0847,-0.02496 -0.17006,-0.0487 -0.25615,-0.07107c-1.65319,-0.4294 -3.43996,0.04019 -5.11598,-0.289c-5.39704,-1.06004 -7.95169,-4.59157 -9.80107,-9.41557c0,0 -0.96559,-2.57491 1.60932,-3.54049c2.57491,-0.96559 3.54049,1.60932 3.54049,1.60932c0.28405,0.77974 0.4724,1.60134 0.85214,2.33922c2.30127,4.47157 6.16991,2.97393 10.23081,3.95621c0.17621,0.04262 0.35011,0.1096 0.52222,0.1922c0.25385,-0.22099 0.57697,-0.40286 0.98829,-0.50778c1.2839,-2.00211 1.80733,-4.44567 3.66407,-6.03999c0.08563,-0.07352 0.17288,-0.14464 0.26162,-0.21356l-0.0386,-0.0386l2,-2c0.49765,-0.49765 1.18515,-0.80546 1.94454,-0.80546c1.51878,0 2.75,1.23122 2.75,2.75c0,0.11629 -0.00722,0.2309 -0.02123,0.3434l-0.32892,2.96029l-0.15006,-0.01667l0.07602,0.41404c-1.20097,2.87694 -2.70332,8.25019 -5.98304,9.52365c-1.19789,0.46512 -2.21757,0.42017 -3.18002,0.16831l-0.2182,0.2182l-0.4119,-0.4119c-0.3273,-0.11398 -0.65093,-0.24482 -0.97594,-0.37985l-2.4252,0.86494c0.15559,-0.53662 0.31119,-1.07323 0.46678,-1.60985z"></path><path d="M355.78514,156.32477c-2.35811,-1.41486 -0.94324,-3.77297 -0.94324,-3.77297l0.95417,-1.58732c0.55556,-1 1.11111,-2 1.66667,-3c0,0 1.33552,-2.40393 3.73945,-1.06841c2.40393,1.33552 1.06841,3.73945 1.06841,3.73945c-0.55556,1 -1.11111,2 -1.66667,3l-1.04583,1.74601c0,0 -1.41486,2.35811 -3.77297,0.94324z"></path><path d="M325.2,155.38333c-2.75,0 -2.75,-2.75 -2.75,-2.75l0.02124,0.00776c-0.23157,-1.88096 -0.35102,-3.77927 -0.35457,-5.67443c0,0 0,-2.75 2.75,-2.75c2.75,0 2.75,2.75 2.75,2.75c-0.00355,1.66732 0.1018,3.33823 0.3121,4.99224l0.02124,0.67443c0,0 0,2.75 -2.75,2.75z"></path><path d="M289.2,199.21666c2.75,0 2.75,2.75 2.75,2.75l-0.01365,1.60697c-0.29109,2.88002 -0.02983,5.78385 -0.3308,8.64c-0.41332,3.92231 -1.31659,7.87575 -2.0764,11.77897c0.75418,0.81326 0.75418,1.97406 0.75418,1.97406c-0.00466,3.11975 -0.36702,6.11756 -0.72206,9.21586l-0.1576,0.21191l0.09701,0.0291l-0.98225,3.27416c-0.32015,1.16394 -1.38611,2.01897 -2.65178,2.01897c-1.51878,0 -2.75,-1.23122 -2.75,-2.75v-4.66667c-0.71186,-3.0862 0.69042,-6.34455 1.0206,-9.336c0.45398,-4.11304 1.55639,-8.11481 1.99051,-12.24429c0.30129,-2.86593 0.04932,-5.79927 0.33587,-8.69334l-0.01365,-1.0597c0,0 0,-2.75 2.75,-2.75z"></path></g><path d="M210.78002,169.21973c1.91575,-2.41248 4.51984,-3.99953 7.20908,-5.40554c3.1189,-3.15129 7.07485,-5.30412 11.49549,-7.01152l0.52005,0.17747v-0.22709h2.66667c1.51878,0 2.75,1.23122 2.75,2.75c0,1.01099 -0.54556,1.89456 -1.35833,2.37238c-0.0223,0.16477 -0.0592,0.3249 -0.10935,0.47905l-0.98163,3.27211l-0.07284,-0.02185l0.01346,0.19793c-2.91678,6.34169 -2.73008,11.69683 -2.16735,18.47356c0.10592,1.27556 -0.16747,6.00241 0.24057,7.48432c0.21023,0.76349 0.50638,1.55741 0.87251,2.35371c1.19969,0.73856 2.38298,1.44619 3.36428,2.11814c1.78029,1.21906 3.28074,2.85235 5.16914,3.89613c5.13004,2.83554 10.29882,3.62435 16.08319,3.62794l0.13178,0.05893l0.00487,-0.0487l3.30308,0.33031c1.40478,0.12319 2.50662,1.30261 2.50662,2.73938c0,1.14328 -0.69767,2.12361 -1.69049,2.53848l-2.94263,1.30784l-0.04418,-0.0994c-0.16315,0.09835 -0.33023,0.19081 -0.50183,0.27651c-1.16439,0.58158 -2.60268,0.05115 -3.90421,0.05991c-1.66663,0.01121 -3.33333,0.00043 -5,0c-2.36293,-0.00062 -6.4782,0.1224 -8.7425,-0.43547c-0.46884,-0.11551 -0.90162,-0.32795 -1.32604,-0.56453h-3.93146l0,-0.11299c-0.24346,0.01617 -0.48808,0.02121 -0.73407,0.01321c-1.45684,-0.04738 -2.48618,-1.53074 -3.79442,-2.1735c-2.43466,-1.19618 -4.68349,-2.74025 -7.0678,-4.03388c-2.9017,-1.57434 -4.88453,-0.87708 -7.39004,-3.54099c-0.00427,-0.00454 -0.00853,-0.00909 -0.01278,-0.01364l-2.3468,2.3468c-5.08281,5.71681 -11.63676,10.5219 -15.58973,17.1117c-1.78984,2.98375 -0.27606,5.23705 -0.98102,8.31997l0,5c0,1.51878 -1.23122,2.75 -2.75,2.75c-1.33569,0 -2.44897,-0.95226 -2.69797,-2.21491l-0.69938,-3.19791l0.02245,-0.00491l-0.03383,-0.04979c-0.32203,-1.82374 -0.64406,-3.64749 -0.96609,-5.47123c0,0 -0.40551,-2.29791 1.64725,-3.03384c0.02964,-0.46717 0.08721,-0.90557 0.19557,-1.36398c-0.04462,0.00215 -0.08952,0.00324 -0.13467,0.00324c-1.51878,0 -2.75,-1.23122 -2.75,-2.75c0,-0.0812 0.00352,-0.16157 0.01041,-0.24098l0.33102,-4.30327l0.07982,0.00614c0.02766,-0.31644 0.08038,-0.63133 0.16367,-0.94433c0.55943,-2.10223 2.94527,-3.20459 4.49297,-4.73329c4.80726,-4.74823 8.37018,-10.3381 14.53802,-13.44894l1.80976,-1.29269c-0.06024,-0.22629 -0.09235,-0.46405 -0.09235,-0.70931l0,-2.06483c-1.72942,-2.14629 -2.99505,-4.75318 -3.88618,-7.81884c-0.62792,-2.16017 -1.4704,-6.18774 -0.52086,-8.28276c0.92977,-2.05139 2.82575,-3.03675 4.94284,-3.54765c0.21402,-0.31842 0.43255,-0.62088 0.65624,-0.90257z" fill-opacity="0.09804" fill="#e3a3e3"></path><path d="M218.64559,265.00395c-0.1215,-0.03358 -0.22944,-0.0796 -0.3252,-0.13677c-1.22417,0.03034 -2.43292,0.02913 -3.2603,-0.75292c-1.21358,-1.14708 -0.53697,-3.29636 -0.80546,-4.94454c0,0 0,-2.75 2.75,-2.75c0.78596,0 1.34729,0.22463 1.74819,0.54549l0.38,-0.855c0.41487,-0.99282 1.3952,-1.69049 2.53848,-1.69049c1.51878,0 2.75,1.23122 2.75,2.75l0,2.6425c0.79894,0.48113 1.33333,1.35691 1.33333,2.3575c0,1.30873 -0.9142,2.40393 -2.13883,2.68184l-2.61086,0.65271l-0.14614,-0.58456l-0.2959,0c-0.62569,0.20557 -1.26241,0.26524 -1.91732,0.08423z" fill-opacity="0.09804" fill="#e3a3e3"></path><path d="M291.88587,287.8823c-2.71258,-0.4521 -2.26049,-3.16468 -2.26049,-3.16468l0.29592,-1.5479c0,-0.88889 0,-1.77778 0,-2.66667c0,0 0,-2.75 2.75,-2.75c2.75,0 2.75,2.75 2.75,2.75c0,0.88889 0,1.77778 0,2.66667l-0.37075,2.4521c0,0 -0.4521,2.71258 -3.16468,2.26049z" fill-opacity="0.09804" fill="#e3a3e3"></path><path d="M284.67131,177.58639c-0.25353,0 -0.4837,-0.02337 -0.69264,-0.06581c-0.26928,2.78953 -1.02241,5.67327 -1.23204,8.19217c-0.20811,2.50075 -0.24306,5.02683 -0.68324,7.49721l-0.3219,2.89714c-0.13598,1.39172 -1.30941,2.47929 -2.73684,2.47929c-1.12917,0 -2.09938,-0.68055 -2.52286,-1.65386l-1.97403,-4.27707l0.04715,-0.02176c-0.05275,-0.08314 -0.10471,-0.16685 -0.15583,-0.25114c-0.54843,-0.90436 -1.08748,-5.66683 -1.14023,-6.72743c-0.26577,-5.3443 0.08485,-10.37284 3.12148,-15.00656c0.55923,-0.85335 1.22239,-1.72564 1.91134,-2.61694c0.30644,-3.77241 1.19566,-7.16833 1.65087,-10.86967c0,0 0.10341,-0.82728 0.65186,-1.51389c0.09897,-1.64488 -0.11397,-3.40739 0.56603,-4.90686c0.04049,-0.08929 0.08197,-0.17802 0.12439,-0.26622c0.00125,-0.00652 0.00254,-0.01304 0.00386,-0.01956l-0.04112,-0.01451l0.41084,-1.16405c0.03309,-0.17202 0.03898,-0.34351 -0.00587,-0.51474c-0.54317,-2.07346 -2.18637,-3.6961 -3.08245,-5.64341l-1.26249,-2.20935c-0.24534,-0.41148 -0.38629,-0.89244 -0.38629,-1.40631c0,-1.51878 1.23122,-2.75 2.75,-2.75c0.22552,0 0.44471,0.02715 0.65446,0.07835l2.9421,0.6538l-0.01305,0.05874c0.13629,0.01653 0.27235,0.03666 0.40813,0.06079c4.14773,0.73722 5.50047,5.24785 5.75305,8.72744c0.60504,8.33526 -0.58387,16.53093 -1.66135,24.75291v1.08463c0,0.45154 -0.10883,0.87766 -0.30168,1.25357c-0.01772,0.14027 -0.03535,0.28056 -0.05289,0.42086l0.02124,0.99224c0,0 0,2.75 -2.75,2.75z" fill-opacity="0.09804" fill="#e3a3e3"></path></g></g></svg>