<svg version="1.1" xmlns="http://www.w3.org/2000/svg" xmlns:xlink="http://www.w3.org/1999/xlink" width="301.31103" height="292.96582" viewBox="0,0,301.31103,292.96582"><g transform="translate(-147.13656,-2.80256)"><g stroke="none" stroke-width="0.5" stroke-miterlimit="10"><g><path d="M244.61517,51.77009c-0.1223,0.29235 -0.37117,0.6094 -0.87764,0.68915c-1.32343,2.66312 -3.77524,0.49818 -4.93245,-0.89382c-2.21707,-2.66691 -1.32616,-7.67967 -1.3175,-10.94027l0.05398,-0.09553l-0.04123,-0.00687l0.24662,-1.47973c0.0895,-0.60252 0.60895,-1.06477 1.23637,-1.06477c0.07993,0 0.15811,0.0075 0.23387,0.02184c0.22685,-0.316 0.59745,-0.52184 1.01613,-0.52184c0.53655,0 0.99415,0.33806 1.17141,0.8128l0.26945,0.67363c0.12202,0.00088 0.25589,0.01977 0.40254,0.06167c1.2019,0.3434 0.8585,1.54531 0.8585,1.54531c-0.15231,0.51866 -0.29587,1.13842 -0.41899,1.81317c0.30497,0.89428 0.68076,1.7994 0.97994,2.68027c1.74574,1.83196 3.6807,4.24593 2.20383,6.20564c-0.24557,0.32585 -0.65535,0.42614 -1.08484,0.49936zM239.97981,48.11034c0.00048,0.00328 0.00095,0.00655 0.00143,0.00983c-0.00005,-0.00243 -0.0001,-0.00485 -0.00014,-0.00728c-0.00043,-0.00085 -0.00086,-0.0017 -0.00129,-0.00255z" fill-opacity="0.97647" fill="#ad4eac"></path><path d="M286.66919,231.83296c0.39528,1.18585 -0.79057,1.58114 -0.79057,1.58114l-0.47953,0.13153c-0.35294,2.377 -0.57481,4.80426 -0.93724,7.16336c-0.84778,3.81594 -1.1439,10.44655 -4.43603,12.98593c-2.16637,1.67102 -3.47788,1.05155 -5.91931,1.27724c-0.14012,0.01295 -0.33863,0.0386 -0.5646,0.07809c-0.29951,1.30683 -1.23586,2.92002 -2.06538,4.17248c0.00051,0.08279 0.00097,0.16469 0.00141,0.24547c0.07738,0.67293 0.12076,1.2986 0.0054,1.76004v0.61542c1.41478,4.54479 2.55809,9.23106 3.71314,13.83327c0.05271,0.21003 0.09572,0.4208 0.13138,0.63204l0.09133,0.27399l-0.04685,0.01562c0.00673,0.04835 0.01313,0.09673 0.01924,0.14511c0.43474,0.63697 0.81962,1.30336 1.12128,2.00864c0.06138,0.14351 0.11408,0.3045 0.16047,0.47733c0.01988,-0.00094 0.03989,-0.00141 0.06,-0.00141c0.61444,0 1.12533,0.44333 1.23027,1.02756l0.23472,1.17358c0.18914,0.61287 0.20905,1.25596 0.12652,1.90405l0.39884,0.04986l-0.07317,0.58533c0.13686,0.19687 0.23965,0.40813 0.2799,0.64684c1.03436,-0.40256 3.48398,-0.67685 3.78127,-0.54206c0.67246,0.30487 1.14719,0.73653 1.482,1.24758c2.41394,1.51105 1.53964,5.76626 1.53964,8.15727c0,0.43412 -0.15077,0.71747 -0.34758,0.90242c-0.36989,0.34758 -0.90242,0.34758 -0.90242,0.34758h-1c-4.5913,0 -9.13847,-0.25 -13.75,-0.25c-1.78805,0 -3.43887,0.31382 -4.91715,-0.13609c-0.0384,0.01755 -0.07658,0.03283 -0.11397,0.04614c-0.2846,0.12291 -0.53092,0.1362 -0.73895,0.08995h-0.97992c-0.4051,0 -0.76519,-0.1927 -0.9936,-0.49144c-1.11183,-0.00074 -2.38821,-0.10727 -2.96017,-0.70059c-0.80568,-0.83576 -0.29623,-4.64227 -0.29623,-5.80797c0,0 0,-0.77264 0.60745,-1.10302c-1.10513,-6.98571 -3.31301,-14.34655 -5.53541,-20.97876c-0.59362,-1.77151 -1.08676,-3.12986 -1.25769,-4.83931c-0.1489,-0.16795 -0.25327,-0.37627 -0.29462,-0.60648l-0.24546,-1.22729l0.04333,-0.00867l-0.06152,-0.11331c-0.01015,-2.29104 -0.00608,-4.58211 -0.00608,-6.87317c0,0 0,-1.25 1.25,-1.25c0.44682,0 0.73392,0.15971 0.91839,0.36496c0.64599,-1.64238 2.95924,-1.44621 4.20478,-1.35888c0.06586,0.00462 1.03793,0.01981 1.60216,0.3223c-0.00148,-0.29215 0.01261,-0.57884 0.03774,-0.75869c0.22256,-1.59298 0.52221,-3.15944 0.75,-4.75c0.29286,-2.04494 0.57946,-5.8545 2.10304,-7.45357c0.88464,-0.92848 2.33775,-1.14479 3.27293,-2.02235c0.87894,-0.82478 1.64347,-1.78535 2.6192,-2.49298c3.58941,-0.65859 7.28109,0.22135 10.83902,-0.34142c1.0784,-0.17058 2.0312,-0.40358 3.01671,-0.56635c0.21019,-0.43552 0.43792,-0.86514 0.69068,-1.29752l-0.22507,-0.0844l0.73975,-1.97268c0.17015,-0.48815 0.6345,-0.83842 1.18066,-0.83842c0.69036,0 1.25,0.55964 1.25,1.25c0,0.0674 -0.00533,0.13355 -0.0156,0.19806l-0.24696,1.72871l-0.01821,-0.0026l0.01051,0.04996c-0.04203,0.18655 -0.08244,0.37377 -0.12135,0.5616c0.3161,0.07474 0.65076,0.28889 0.82746,0.81898z" fill="#e5c1e4"></path><path d="M179.22544,253.91737c-0.01388,-0.0631 -0.02703,-0.12615 -0.03941,-0.18912h-0.00257v-0.01314c-0.14567,-0.74662 -0.18557,-1.47969 -0.10744,-2.11298c-0.30375,-1.99563 0.5574,-4.35363 0.87358,-6.07412c0.85176,-4.63486 2.73889,-8.44415 4.73777,-12.82945c0.05849,-0.23221 0.18988,-0.41789 0.31512,-0.55095c0.12077,-0.14284 0.29557,-0.29834 0.52758,-0.38152l1.20264,-0.70376c0.65909,-0.10104 1.35453,-0.5415 1.97726,-0.30313c0.26296,0.10065 0.49281,0.21369 0.69208,0.33694c0.36715,-0.32685 0.75386,-0.57846 1.169,-0.70762c0.05254,-0.01635 0.10533,-0.03143 0.15837,-0.04538l-0.0102,-0.02551l0.10672,-0.04268c1.53776,-2.01242 3.1797,-4.26458 4.98795,-6.34056c1.20564,-3.18795 2.51144,-6.54044 4.98721,-8.52936c0.04964,-0.03988 0.09994,-0.07874 0.15086,-0.11666l-0.00931,-0.01197l1.96458,-1.52802c0.21322,-0.16914 0.48293,-0.27015 0.77622,-0.27015c0.69036,0 1.25,0.55964 1.25,1.25v1.5h-0.03725l0.03116,0.12317c-0.01935,0.09161 -0.04035,0.18253 -0.06291,0.2728c3.11789,-2.67395 7.34575,-4.11325 11.23743,-1.70223c0.79733,0.49398 2.81955,1.72341 3.04812,2.76907c0.33723,1.54271 -1.57486,4.18995 -2.01458,5.63034c-1.56026,5.11098 -4.06974,10.10815 -6.754,14.73726c-1.29009,1.93421 -3.0123,5.08174 -5.27245,6.09494c-1.2007,0.53826 -3.54667,-0.08324 -4.76414,-0.17849c-0.78247,-0.06122 -1.41539,-0.16392 -1.96027,-0.31556c0.08281,0.86338 0.0161,1.75175 -0.24648,2.65237c-0.41296,1.41643 -1.81832,2.61343 -2.31901,3.93865c-0.5513,1.45917 -0.87743,2.87055 -1.34645,4.23965c-0.41178,2.24917 -0.49999,4.8406 -1.73168,6.65449c-0.68242,1.00499 -2.24458,1.61762 -3.35728,1.8174c-1.29925,0.23327 -2.45802,0.10534 -3.49158,-0.2821c-1.554,-0.16431 -2.97683,-0.68371 -4.35623,-2.08179c-1.09644,-1.11129 -3.10526,-5.01565 -2.28682,-6.52143c-0.01435,-0.03738 -0.02869,-0.07477 -0.04305,-0.11215z" fill="#e5c1e4"></path><path d="M284.21944,85.66412c-0.12721,0.68107 -0.70855,1.49814 -1.48611,2.14371v0.42042c0,0.69035 -0.55964,1.25 -1.25,1.25c-0.4428,0 -0.83182,-0.23024 -1.05389,-0.57753c-0.66883,0.08315 -1.32297,-0.06372 -1.86458,-0.5573c-1.32304,2.16857 -2.92448,4.08904 -4.5306,5.34452c-3.02512,2.36469 -7.95432,3.76238 -11.64526,4.47265c-2.47888,1.20112 -5.18694,0.81766 -7.90567,0.81766c-4.31877,0 -8.10458,-0.86611 -12.3531,-1.25426c-2.07856,-0.1899 -5.25762,-0.77679 -7.08501,-1.95219c-1.16375,-0.74854 -2.03358,-1.71489 -3.0465,-2.5439c-0.01003,0.00035 -0.01538,0.00035 -0.01538,0.00035l-1,-0.25c-1.39813,-1.0493 -3.54155,-2.35525 -4.17534,-4.07447c-0.98213,-2.66414 0.14718,-7.26324 0.69961,-9.92068c0.19557,-0.94079 0.24496,-1.75221 0.86318,-2.44336c0.03489,-0.26966 0.11255,-0.55302 0.11255,-0.81149c0,-1.80801 -0.30184,-3.96169 0.02255,-5.73638c0.38156,-2.0875 2.10079,-3.15241 3.21339,-4.74451c2.04475,-2.92596 3.35937,-6.60159 5.59346,-9.36469c0.5378,-0.66515 1.15943,-1.31644 1.81209,-1.95659c-0.51564,-0.15411 -0.89149,-0.63207 -0.89149,-1.19783c0,-0.41416 0.20142,-0.78127 0.51164,-1.00873l0.97662,-0.73246c0.00391,-0.00313 0.00781,-0.00626 0.01171,-0.0094c-0.01009,-0.2429 0.26582,-0.33855 0.53066,-0.44991c0.26019,-0.23128 0.51325,-0.47027 0.76302,-0.70983c-0.22426,-0.08727 -0.3946,-0.18756 -0.4892,-0.30106c-0.10303,-0.1236 -0.19466,-0.25411 -0.27726,-0.39007l-0.06725,0.04483l-0.99052,-1.48578c-0.13841,-0.20119 -0.21941,-0.44494 -0.21941,-0.70759c0,-0.69035 0.55964,-1.25 1.25,-1.25c0.09286,0 0.18337,0.01012 0.27045,0.02933l1.13237,0.22648c0.51602,-0.00665 1.20375,-0.11358 1.94776,-0.23839c-0.01086,-0.03432 -0.02092,-0.06887 -0.03012,-0.10366c-0.70148,-2.65121 0.79605,-3.17541 2.49751,-2.85898c-0.23075,-1.22203 0.0702,-2.54862 1.51813,-3.04398c0.17897,-0.06123 0.34923,-0.06466 0.51324,-0.02521c0.06727,-0.49223 0.28069,-0.93946 0.69987,-1.27067c0.68043,-0.53763 1.74266,0.16474 2.56319,0.44537c0.86407,0.29552 1.49709,1.04894 2.28071,1.51784l0.66005,0.10919c0,0 0.93055,0.23264 0.95756,1.1055c1.63012,0.13331 3.87255,-0.16442 3.80307,2.10206c0.22706,0.00442 0.45579,0.00598 0.68619,0.00512c0,0 0.65146,-0.00001 1.01378,0.4703c2.52339,-0.08147 5.03742,0.07198 7.40445,0.85175c2.2584,0.74398 4.07566,2.04585 6.38097,2.80506c2.89596,1.90763 5.62106,3.78567 8.08469,6.23901l0.73415,1.32486c0,0 0.00842,0.01685 0.02114,0.04745c0.01443,0.02983 0.02142,0.04733 0.02142,0.04733c0.56683,1.63079 2.26741,2.33384 3.29909,3.66331c1.20291,1.55011 2.09657,3.75747 2.48279,5.66639l0.13532,0.3383c0.06123,0.01599 0.1221,0.03396 0.18257,0.0541c1.42572,0.47495 2.71456,3.69918 4,4.75c0.87719,0.71708 2.71323,0.49317 3.73964,0.49215c2.57771,-0.00257 7.55062,-0.939 9.89529,0.06414c2.63944,1.12926 1.19608,2.92708 2.60471,4.68586l0.13063,0.65312c0.15333,0.2997 0.13312,0.62259 0.09262,0.83245c-0.02035,0.10586 -0.05616,0.2365 -0.11921,0.36839c-1.15782,2.88708 -1.61137,5.66226 -3.97015,8.02992c-5.15714,5.17656 -14.31638,5.3533 -19.80757,0.91904c-0.64477,-0.31933 -1.23415,-0.66184 -1.77743,-1.03099c0.00061,0.21094 -0.01943,0.43192 -0.06277,0.66394z" fill="#e5c1e4"></path><path d="M212.90551,120.52556c-0.39223,-1.96116 1.56893,-2.35339 1.56893,-2.35339l1.50946,-0.29522c0.79697,-0.2274 1.59394,-0.45479 2.39091,-0.68219c1.97602,-0.43959 3.90953,-1.09815 5.91417,-1.37978c4.63824,-0.65162 9.62081,0.8061 14.22085,0.01711c0.93567,-0.16049 1.72978,-0.84675 2.66667,-1c6.39295,-1.04574 13.33604,-0.52392 19.82712,-1.2448c3.74842,-0.41629 7.55093,-0.82309 11.2606,-1.5197c1.67469,-0.31448 3.72145,0.00526 5.07722,-0.9483l0.21372,-1.28232c0.1432,-0.96403 0.97432,-1.70363 1.97819,-1.70363c0.75726,0 1.41622,0.42086 1.75575,1.04143l1.29962,2.27433c2.14777,3.44766 5.00064,5.39088 7.51097,8.44062c1.27454,1.54841 2.17285,3.39866 3.54537,4.86092c2.1041,2.24168 4.71406,2.9664 7.09598,4.78849c2.13801,1.63552 3.9419,3.71827 6.03742,5.36238c2.88135,2.26066 6.03964,3.88305 8.84959,6.22468c5.97482,3.09004 9.36666,12.5195 7.86446,19.07594c-0.81312,3.54893 -3.14674,6.02091 -5.4689,8.59838c-1.68053,1.86528 -2.90956,4.24061 -5.23954,5.44335c-1.35555,0.69974 -3.00954,0.6666 -4.37201,1.35277c-1.49528,0.75305 -2.69649,2.22734 -4.29913,2.78422c-1.29271,0.44919 -2.76737,0.36672 -3.98323,0.99484c-2.94625,0.45003 -6.04352,0.58966 -8.94264,1.06515c-3.90965,0.64123 -7.1286,3.35497 -11.3074,2.66667c-1.55119,-0.2555 -2.89294,-1.23656 -4.37353,-1.76507c-6.12189,-2.18527 -11.47198,-5.21544 -17.39899,-7.87577c-1.66835,0 -4.04291,0 -5.57378,0c-17.13374,0 -34.40441,-0.03031 -51.48673,-1.33922c0,0 -0.00289,-0.00022 -0.00844,-0.00076l-0.5003,-0.02056c-4.65324,-0.77734 -9.2361,-0.69671 -13.38933,-3.27149c-2.22627,-1.38016 -5.6964,-3.75859 -6.52939,-6.45507c-1.49529,-4.84042 0.26072,-10.09135 3.98257,-13.12874c2.28021,-1.88398 4.08177,-4.74263 6.45434,-6.42472c0.6024,-0.42708 1.4671,-0.33475 2.09247,-0.72742c2.18566,-1.37236 4.49906,-4.08187 6.25068,-5.99093c1.47919,-1.61214 2.51041,-3.62617 4.11452,-5.11406c1.46943,-1.36297 3.53214,-1.97377 5.00256,-3.33568c1.89028,-1.75078 3.46259,-3.86028 5.08518,-5.91734c-0.31111,-0.23823 -0.57642,-0.61736 -0.69598,-1.21513z" fill="#30152f"></path><path d="M182.06419,223.04609c0.29347,-0.04698 0.57994,-0.09753 0.85791,-0.15129c-0.34441,-0.12545 -0.66155,-0.04407 -0.8931,0.06918c0.01291,0.02766 0.02462,0.05504 0.03519,0.08212zM176.54,225.91386c-0.05668,-0.00129 -0.11333,-0.00274 -0.16993,-0.00435c-0.43812,0.29371 -0.84101,0.65801 -1.18412,1.13454c-0.18615,0.25854 -0.35404,0.52741 -0.50387,0.80456c-0.52151,-0.02821 -1.0134,-0.08745 -1.47821,-0.17641c-0.29928,-0.09499 -0.61149,-0.16713 -0.93047,-0.22805c-3.11136,-0.94164 -4.8856,-3.40403 -6.28692,-6.89133c-0.58563,-0.97066 -1.42924,-1.76701 -2.03206,-2.72709c-0.58886,-0.93784 -0.17108,-3.41993 -0.17108,-4.38413c0,-1.43158 0.23864,-2.64355 0.63189,-3.77322c0.2793,-0.2914 0.49357,-0.57427 0.33723,-0.86829c0.62187,-1.45622 1.47801,-2.83027 2.37141,-4.44415c1.20919,-1.5751 2.23136,-3.19112 3.34939,-4.78898c0.76899,-0.50539 1.58573,-0.97802 2.21242,-1.51437c1.91351,-1.63768 3.72548,-3.37961 5.49959,-5.17505c1.21822,-2.04837 1.85389,-3.58189 3.2151,-5.17651c0.53148,-0.48548 1.04414,-0.99074 1.52466,-1.52541c2.1044,-1.80147 4.87103,-2.91544 6.66324,-5.0985c1.39537,-1.69967 1.91784,-4.12874 3.2381,-5.83458c0.90361,-1.16751 2.71914,-1.75868 3.45098,-3.16702c0.38327,-0.73755 0.32876,-1.64959 0.69981,-2.39337c0.30496,-0.6113 1.03029,-1.2847 1.7777,-1.98113c0.87799,0.12608 1.26075,-0.76701 1.26075,-0.76701c0.14511,-0.33878 0.29021,-0.67755 0.43532,-1.01633c0.26664,-0.37532 0.4452,-0.74788 0.47623,-1.11183c0.01839,-0.04294 0.03678,-0.08587 0.05517,-0.12881l0.65863,-1.32216c0.09094,-0.17333 0.14238,-0.37062 0.14238,-0.57994c0,-0.69036 -0.55964,-1.25 -1.25,-1.25c-0.02215,0 -0.04417,0.00058 -0.06603,0.00171c0.6973,-1.49235 1.39089,-2.98539 2.38462,-4.31578c0.93453,-1.25113 2.73509,-2.11327 3.45017,-3.51278c1.18573,-2.32063 1.76496,-5.19486 2.97904,-7.62908c2.10365,-3.15548 2.68887,-7.27771 4.93292,-10.22985c1.30214,-1.71303 2.70107,-3.20116 3.75874,-5.14867c1.40547,-2.58792 1.6774,-5.14154 2.42035,-7.87618c0.58983,-2.17104 1.83523,-4.21334 2.93668,-6.23423c3.74812,-1.09968 7.36475,-2.68913 11.16631,-3.59073c9.46144,-2.24392 19.17292,-3.29797 28.87054,-3.29775c2.94444,0 5.88889,0 8.83333,0c0.97494,0 3.84872,-0.44455 4.85498,-0.09515c0.93859,0.3259 0.91611,1.76431 1.32879,2.66811c1.09189,2.3913 0.49231,4.10472 3.51306,5.05639l0.96984,0.03732c0,0 0.05655,0 0.1456,-0.01203c0.25777,2.69292 1.26077,5.13623 1.98397,7.76551c0.78252,2.84495 1.40042,5.77877 1.86443,8.74653c-0.13515,0.00064 -0.26522,0.02272 -0.387,0.06302c0.04327,0.57129 -0.00889,1.21083 -0.0582,1.86192c0.00906,0.05669 0.01747,0.11411 0.02518,0.17232c0.04524,0.34128 0.06867,0.69508 0.07823,1.05538c0.72109,1.13763 1.39491,2.28794 1.86393,3.69301c1.18736,3.55706 1.7777,7.20408 1.98186,10.89062c0.02088,0.09383 0.04204,0.1876 0.06354,0.2813c0.45291,1.97371 0.56189,3.98024 0.5678,5.99482c0.23484,0.82187 0.4821,1.64945 0.59987,2.523c0.15922,1.18094 0.12739,2.37098 0.09724,3.55753c0.12535,1.54081 0.21761,3.07807 0.25203,4.60271c0.1481,1.01549 0.31428,1.99998 0.4739,2.97766c0.60085,1.85945 1.09126,3.73587 0.69762,5.74338v0.21583c0.01308,0.19129 0.02529,0.38245 0.03668,0.57336c-0.01305,0.0217 -0.02525,0.04355 -0.03668,0.06543v1.64538c0,0.10569 -0.01312,0.20831 -0.03781,0.30633c0.15938,0.83692 0.29179,1.6938 0.36688,2.59057c0.3064,3.65915 -0.24732,7.62253 0.32145,11.23621c0.43492,2.76326 1.12609,5.58122 1.66025,8.29718c0.25582,1.30072 0.22939,2.42661 0.40712,3.5891c0.05913,0.00293 0.11982,0.00337 0.18213,0.0012c0.06085,0.47166 0.11509,0.94426 0.1585,1.41969c0.07017,0.20581 0.15158,0.41503 0.24652,0.62866c0.03191,2.93064 0.23805,5.85467 0.48068,8.77468c0.22316,0.46686 0.47479,0.92954 0.72044,1.39331c-0.00617,0.06016 -0.00617,0.09641 -0.00617,0.09641l0.02255,1.56972c0.719,1.79751 0.99289,3.81619 0.97745,5.76362c0,0.72977 0.03039,1.49043 0.06923,2.26616c-0.04046,0.61032 -0.06923,1.19461 -0.06923,1.73384c0,2.4136 0.68998,5.22616 -1.14755,6.98595c-0.52361,0.25367 -1.08114,0.50348 -1.66079,0.73295c-0.3142,0.01434 -0.62846,0.02993 -0.94166,0.0311c-3.66209,0.01364 -6.97127,-1.62677 -10.6318,-1.66634c-0.01151,-0.00022 -0.02313,-0.00033 -0.03487,-0.00033c-0.43412,0 -0.71747,0.15077 -0.90242,0.34758c-0.19681,0.18494 -0.34758,0.4683 -0.34758,0.90242c0,0.03954 0.00125,0.07783 0.00367,0.1149l0.02977,0.93124c-1.29993,2.49154 -3.72886,3.24697 -6.05162,4.52477c-1.9186,1.05546 -3.41657,2.45263 -4.85087,4.01939c-0.64366,0.3208 -1.31195,0.63774 -2.06174,0.93684c-0.18751,0.08287 -0.3783,0.16026 -0.57209,0.23239c-3.37227,-0.07178 -6.81573,0.20205 -10.22806,0.29439c-1.50894,-0.29509 -2.95598,-0.68885 -4.25207,-1.11587c-0.58424,-0.19249 -3.35572,-1.16881 -5.11855,-1.00487c-0.0108,-0.00707 -0.02165,-0.01404 -0.03257,-0.02093c-1.50244,-0.94751 -3.22092,-1.88245 -4.94977,-2.65119c-0.14627,-0.07985 -0.29555,-0.12382 -0.41562,-0.14804c-0.22908,-0.04783 -0.58459,-0.0714 -0.9042,0.12117l-0.42961,0.09914c-1.99132,1.54843 -6.16916,3.46544 -8.73606,3.75937c-0.73388,0.08403 -2.28662,-0.1675 -2.90922,0.05478c-1.42616,0.50917 -2.80357,2.00831 -4.14193,2.72385c-0.92687,0.49554 -2.47343,0.21201 -3.46279,0.21201c-4.78675,0 -12.0984,0.24 -15.84766,-3.02765c-0.71042,-0.61916 -3.34725,-2.10059 -3.65133,-2.83514c-0.33776,-0.81594 1.16904,-3.53996 1.75204,-4.36185c0.18984,-0.18233 0.35618,-0.44984 0.3464,-0.82433c0.01958,-0.23966 -0.03089,-0.51232 -0.24116,-0.77309c-0.1809,-0.28195 -0.42361,-0.41604 -0.65716,-0.47326c-0.35914,-0.13023 -0.67065,-0.05153 -0.90529,0.07526l-0.70765,0.24435c-5.1168,1.04391 -12.22045,0.91384 -17.26879,-0.34824c-1.09851,0.02661 -2.1039,-0.63523 -3.1524,-0.96401c-1.55432,-0.4874 -3.52103,0.34313 -5.05113,-0.54977c-1.42329,-0.83057 -2.21373,-2.42638 -2.26965,-4.10322c-0.83059,-1.91176 -0.60142,-4.16888 0.32711,-6.00345zM290.44536,147.17268c-0.00132,-0.13378 -0.00293,-0.26764 -0.00482,-0.40158c0.02202,0.25756 0.03888,0.51838 0.05175,0.7813c-0.01542,-0.12661 -0.03107,-0.25318 -0.04693,-0.37972zM268.38471,250.40383c-0.01983,0.03938 -0.03871,0.07886 -0.05659,0.11845c-0.1857,-0.00023 -0.37141,-0.00038 -0.55711,-0.00048c0.20624,-0.03591 0.41088,-0.0752 0.6137,-0.11798z" fill="#316a70"></path><path d="M428.49099,34.55821c0.68123,0.34275 6.15278,2.0383 6.55478,2.31743c2.95855,2.0543 5.24703,4.96211 8.14739,7.09778c1.18593,0.87326 2.70636,1.39578 3.59229,2.57228c1.55712,2.06782 1.7905,5.20863 1.56456,7.66923c-0.08925,0.97199 0.093,2.1367 0.0013,3.14737c0.36649,2.17022 -0.25621,4.21883 -2.85883,5.45378c-0.97372,0.46203 -1.96995,-0.09114 -2.97002,-0.77966l0.44125,0.7722c0.24534,0.41148 0.38629,0.89244 0.38629,1.40631c0,1.51878 -1.23122,2.75 -2.75,2.75c-0.91114,0 -1.71879,-0.44312 -2.2192,-1.1256l-2.9808,-3.9744l0.13792,-0.10344l-0.37381,-0.27027c-0.21583,-0.64012 -0.45866,-1.27349 -0.72802,-1.89606c-0.15363,-0.27497 -0.28807,-0.56816 -0.4165,-0.86778c-0.70076,-0.13924 -1.40541,-0.25466 -2.11198,-0.34489c-0.41163,-1.2129 -0.5837,-2.54417 -1.08675,-3.71189c-0.8596,-0.59825 -1.73929,-1.17319 -2.44784,-1.92922c-0.28918,-0.15084 -0.52641,-0.3522 -0.71762,-0.56247c-1.97524,-1.64937 -3.12365,-4.1373 -4.94524,-5.96623c-0.94919,-0.95302 -2.45142,-1.28134 -3.2956,-2.32852c-0.07331,-0.09094 -0.1352,-0.18799 -0.18813,-0.28984c-0.02404,-0.0132 -0.04811,-0.02656 -0.07219,-0.0401c-0.29638,-0.16658 -0.53476,-0.40871 -0.75604,-0.67345c-0.20606,0.03497 -0.40669,0.03553 -0.5951,-0.03384c-1.52256,-0.56052 -2.90919,-1.52469 -4.09294,-2.63426c-0.00157,-0.00147 -0.00313,-0.00294 -0.00469,-0.00441c-1.44676,-0.3731 -2.94004,-0.64882 -4.3269,-1.1723c-2.68928,-1.01507 -4.94769,-2.95475 -7.57465,-4.12167c-1.32087,-0.58674 -2.83604,-0.61425 -4.18594,-1.13069c-3.78864,-1.44946 -7.76723,-3.37616 -11.39827,-5.19018c-0.68613,-0.45602 -1.37028,-0.91525 -2.05107,-1.37942c-0.86621,-0.04588 -1.74088,-0.03601 -2.63263,0.06863c-0.77297,0.09069 -1.54299,0.28678 -2.31026,0.53221l-0.01694,0.07521c-0.03363,-0.01238 -0.06725,-0.02476 -0.10088,-0.03714c-1.64788,0.53786 -3.28309,1.2903 -4.90762,1.70154l-0.54836,0.04501c-0.10704,0.01363 -0.20961,0.0214 -0.30547,0.02507l-0.14648,0.01202c0,0 -0.10349,0 -0.27032,-0.02008c-0.16752,-0.01303 -0.269,-0.03333 -0.269,-0.03333c-8.1945,-1.69406 -14.88816,-7.58633 -23.02373,-9.33819c-5.95298,-1.28187 -12.48484,-1.3446 -18.53497,-1.61016c-7.85981,-0.34498 -15.51151,-1.61765 -23.47112,-1.66665c-9.89029,0.76453 -19.8457,1.9815 -29.66444,3.30075c-4.32533,0.58115 -8.24577,2.1278 -12.61615,2.60138c-4.49512,1.90326 -9.10675,4.7173 -13.05349,7.26879c-2.34063,1.5495 -5.49036,3.50217 -8.04226,4.52633c-3.01174,1.20872 -5.69196,1.56276 -8.43035,3.66221c-2.80326,2.14919 -5.31658,5.08725 -8.01676,7.34734c-1.91905,1.60627 -4.84959,2.12792 -6.71799,3.70768c-2.19914,1.8594 -1.65483,2.33136 -3.34275,4.35197c-1.70644,2.04279 -3.96149,3.62612 -5.66667,5.66667c-1.63054,1.95124 -2.83076,4.42617 -4.08971,6.62353c-0.84097,1.95167 -2.68953,3.98123 -3.20553,6.00827c-0.43233,1.69835 -0.46262,3.47652 -0.58864,5.2245c-0.07709,1.06931 -0.88828,2.33198 -0.26632,3.2052c0.34897,0.48995 1.16213,0.35091 1.68227,0.65306c0.86737,0.50386 1.64814,1.14469 2.45001,1.74738c0.44508,0.33453 0.87665,0.64629 1.29821,0.93675h0.50636v0.13793c0.13087,-0.04122 0.26473,-0.0741 0.40213,-0.09708c0.83461,-0.13957 1.506,0.82231 2.33333,1c0.79672,0.17111 1.66387,-0.20751 2.44454,0.02616c1.03226,0.30898 1.93886,0.70313 2.72456,1.17927c1.39652,-0.11864 2.78498,-0.19579 4.09544,0.08706h2.33333c1.10457,0 2,0.89543 2,2c0,0.70523 -0.36501,1.3252 -0.91641,1.68131l-1.97419,1.31613l-0.13521,-0.20282l-0.39462,0.4529c-0.07593,0.00167 -0.55902,0.01517 -1.23869,0.03174c0.17122,0.81589 0.24996,1.6946 0.23997,2.63364l-1.58342,2.52983c0,0 -1.10879,1.66318 -2.77212,0.55562c-0.52552,1.0492 -2.14011,4.38262 -2.37148,4.63424h0.00003c-2.42515,2.63743 -5.68354,2.90956 -8.74402,4.21052c-0.90833,0.38612 -1.63761,1.18934 -2.59648,1.42322c-2.15103,0.52465 -5.56347,0.067 -7.84667,0.067c-5.10605,0 -9.44169,-0.13121 -14.40726,-1.37524c-4.97341,-0.96076 -8.76638,-5.86682 -11.82115,-9.70871c-0.87805,-1.10429 -2.1195,-1.88461 -2.99359,-2.99204c-1.44253,-1.82759 -2.08497,-4.38741 -2.95909,-6.49199c-0.35628,-0.85781 -1.9141,-3.57829 -2.09874,-4.30586c-1.42245,-5.60511 -1.17587,-13.16243 0.35678,-18.67561c1.32298,-4.57349 3.59014,-10.75396 6.69864,-14.3716c1.72517,-2.00773 3.94828,-3.53556 5.77214,-5.45407c2.61895,-2.75487 4.65077,-5.99992 7.34762,-8.6816c1.85061,-1.84021 4.14512,-2.91613 6.10654,-4.52183c-0.00127,-0.02921 -0.00191,-0.05859 -0.00191,-0.08812c0,-0.29551 0.06409,-0.57605 0.17913,-0.82848l0.94817,-2.21241c-0.07273,-0.09517 -0.14265,-0.20183 -0.20895,-0.32117c-0.97129,-1.74831 0.77703,-2.7196 0.77703,-2.7196c5.14058,-2.8294 10.81904,-3.68437 16.25937,-5.78735c2.30294,-0.89021 4.68579,-1.55803 7.02661,-2.34325c0.028,-0.00939 0.05597,-0.01884 0.08392,-0.02833c3.52142,-2.04066 7.17237,-3.85785 11.1045,-4.78876c0.80642,-0.25434 1.63282,-0.46301 2.48728,-0.6077c3.36492,-0.56979 6.7634,-0.7079 10.16723,-0.7257c0.79594,-0.11707 1.59773,-0.22086 2.40942,-0.30144c0.67163,-0.00069 1.33486,-0.01999 1.99079,-0.05595c0.44434,-0.08382 0.88932,-0.16433 1.33501,-0.2411c0.80103,-0.13797 1.61703,-0.14826 2.43437,-0.14558c1.61198,-0.23857 3.19,-0.56045 4.75193,-0.93274c0.18972,-0.09147 0.38448,-0.167 0.5898,-0.20906c0.23983,-0.04912 0.48108,-0.08699 0.72347,-0.11599c4.36514,-1.11784 8.64296,-2.56044 13.22938,-3.59932c3.42656,-0.77616 7.85346,-0.0396 11.37822,-0.03609c2.08625,0.00208 4.25788,-0.09087 6.44316,-0.25024c1.32011,-0.17412 2.65897,-0.30246 4.04072,-0.3638c1.94406,-0.20593 3.86369,-0.45083 5.70768,-0.71426c0.43384,-0.00078 0.87325,-0.00723 1.31717,-0.01746c6.5886,-0.6971 13.07339,-0.65098 19.82461,-0.65098c10.56712,0 21.05491,0.47785 31.56015,1.3427c3.79631,0.31253 7.17641,1.74529 10.88899,2.36089c2.67637,0.44378 5.39923,0.5684 8.07537,1.01356c5.12485,1.15614 10.19408,2.63795 14.97756,4.8769c2.6986,1.26311 4.86866,2.88769 7.72148,3.88732c2.27579,0.5575 4.60217,1.02146 6.9173,1.51848c0.86592,0.11227 1.73331,0.20843 2.60198,0.3026c3.54408,-0.27072 6.84214,0.64144 9.92206,2.1435c2.03908,0.37809 4.11834,0.5606 6.16038,0.93174l0.50807,-0.04436c0,0 2.75,0 2.75,2.75c0,0.38962 -0.0552,0.72404 -0.14996,1.01108c0.06563,0.07041 0.12666,0.14627 0.1825,0.2282v0.00005c0.43271,0.63486 0.69607,1.34709 0.88124,2.09505c3.8638,2.7614 8.52318,5.27242 12.62721,7.3373zM431.51436,41.16378c0.30486,0.19287 0.61597,0.40275 0.95072,0.6322c-0.10106,-0.08349 -0.20454,-0.16423 -0.31083,-0.24178c-0.20397,-0.14883 -0.41796,-0.27754 -0.63989,-0.39042z" fill-opacity="0.41176" fill="#ad4eac"></path><path d="M167.91485,100.36863c-2.97797,-0.95256 -5.46365,-2.38006 -8.27594,-3.77978c-2.63516,-1.35558 -6.13762,-1.50732 -8.42918,-3.62283c-2.64818,-2.44474 -3.03107,-6.82985 -3.64398,-10.14074c-1.15126,-6.21894 0.21916,-12.62348 1.68775,-18.48479c0.17178,-0.68558 -0.19585,-1.45113 0.03231,-2.12006c1.02306,-2.99942 3.69986,-6.2822 5.69835,-8.68537c1.63871,-2.0428 3.27907,-3.32831 5.28119,-4.94841c1.79524,-1.45269 2.85841,-3.34224 4.75414,-4.73442c3.18059,-2.33574 6.92102,-4.17218 9.83014,-6.86087c4.47792,-4.13862 8.177,-8.19503 13.89586,-10.69632c0,0 0.28179,-0.12077 0.672,-0.15741c0.3136,-0.2585 0.63831,-0.50927 0.97695,-0.75057c0.25089,-0.28052 0.62104,-0.50845 1.16716,-0.57039c0.37139,-0.07593 0.82699,-0.07221 1.26766,0.1847c0.4582,0.22415 0.71403,0.60117 0.85686,0.9523c0.24686,0.47997 0.26642,0.90753 0.1778,1.26781c-0.03341,3.41284 -0.33059,6.80499 -0.33059,10.24519v1.33333c0,0 0,1.94413 -1.91678,1.99882l-0.18815,0.25057c-1.70721,2.11143 -4.3351,5.6897 -6.37353,7.35939c-1.68717,1.38196 -4.3985,2.07697 -6.22879,3.58393c-1.75424,1.44434 -2.83202,3.55262 -4.0794,5.4086c-1.69009,1.701 -4.29435,3.60757 -5.48446,5.73748c-1.44605,2.58796 -3.38886,5.89667 -4.1212,8.80998c-0.50024,1.99 -0.27436,4.16042 -0.27436,6.18456c0,1.82564 -0.01263,3.51373 0.06203,5.12214c1.40471,2.51674 2.99188,4.94856 4.9414,6.72355c3.40417,3.09941 8.88635,4.23332 12.03767,7.36806c0.09418,0.09369 0.2554,0.33083 0.45627,0.65494c7.20306,0.54532 14.86737,0.5793 21.84893,-0.50954c2.05717,-0.32083 3.5568,-1.58865 5.19613,-2.67994c2.17105,-1.44525 4.48895,-2.5568 6.66574,-3.98011c0.15183,-0.60452 0.37088,-1.15764 0.68016,-1.63932c1.33923,-2.08575 2.89335,-2.68298 4.53892,-2.52406c0.64964,-0.99146 1.42751,-1.84493 2.49485,-2.24545c0.06636,-0.0249 0.13306,-0.04854 0.20007,-0.071l-0.01659,-0.03318l1.96401,-0.98201c0.27793,-0.14633 0.5945,-0.22914 0.93041,-0.22914c1.10457,0 2,0.89543 2,2c0,0.33591 -0.08281,0.65249 -0.22914,0.93041l-0.93407,1.86814c-0.14009,0.42389 -0.28019,0.84778 -0.42028,1.27168c0.98747,0.54011 1.95655,1.04407 2.88261,1.36574c2.26377,0.78631 4.891,-0.01324 7.24088,0.63831c7.09822,1.96813 12.91039,4.90286 20.45199,3.95506c4.32867,-0.95764 8.801,-2.29535 12.83318,-4.17703c1.77398,-0.82786 3.34304,-2.10209 5.19242,-2.74406c5.81506,-2.01855 11.53284,1.35461 13.54082,6.90934c0.61461,1.70021 0.79867,3.52917 1.08016,5.31501c0.47534,3.01572 0.67318,6.17482 0.69312,9.23463c0.10854,0.45789 0.00219,0.87661 -0.14811,1.19917c-0.13297,0.36503 -0.38402,0.77404 -0.85798,1.01736c-0.48186,0.71696 -0.96372,1.43392 -1.44558,2.15088c-3.02905,3.02905 -5.06058,6.8747 -8.27871,9.61204c-1.87056,1.5911 -4.11646,2.75702 -6.14374,4.10743c-4.16424,2.77388 -8.08806,5.94128 -12.54019,8.12308c-3.38464,1.65867 -7.1776,1.56594 -10.82749,1.55673c-0.45416,0.10483 -0.8693,-0.00108 -1.18962,-0.15034c-0.28675,-0.10446 -0.60064,-0.28177 -0.84003,-0.58277c-3.6815,-1.80764 -7.31383,-2.98722 -11.3454,-3.69884c-0.09825,-0.04805 -0.19724,-0.09588 -0.29692,-0.14354c-0.09027,0.08186 -0.19268,0.16178 -0.30852,0.23901c-1.6641,1.1094 -2.7735,-0.5547 -2.7735,-0.5547l0.2096,-0.27111c-3.29295,-1.42776 -5.05791,-3.49125 -7.95096,-5.48327c-3.83173,-2.63836 -8.7023,-3.4652 -10.78773,-8.28621c-0.52068,-1.20368 -0.88187,-2.53249 -1.11823,-3.93371c-0.62629,-0.69682 -1.16615,-1.59404 -1.59316,-2.52475c-0.31351,-0.68332 -0.23251,-1.46029 -0.15714,-2.23442c-0.21979,-0.01103 -0.42283,-0.01755 -0.60493,-0.01755c-4.22222,0 -8.44444,0 -12.66667,0c-2.47031,0 -4.61061,0.10867 -6.65611,-0.32734c-1.71689,-1.08535 -3.33617,-2.29418 -5.22753,-3.25328c-2.45761,-1.24624 -4.9088,-2.08743 -7.53463,-2.74152c-0.8016,-0.41354 -1.60686,-0.81847 -2.42323,-1.19684c-1.22035,-0.56561 -2.44409,-1.05339 -3.66083,-1.53209c-2.06851,-0.26213 -4.01673,0.29125 -6.11616,-0.3803zM209.48027,99.83397c-0.25579,0.12502 -0.51168,0.24517 -0.76741,0.35987c0.04357,-0.00927 0.087,-0.01874 0.13029,-0.02841c0.28278,-0.06316 0.56242,-0.13821 0.83995,-0.22129c-0.06992,-0.03289 -0.13762,-0.0697 -0.20282,-0.11016z" fill-opacity="0.97647" fill="#ad4eac"></path><path d="M282.58805,295.16409c-1.18585,-0.39528 -0.79057,-1.58114 -0.79057,-1.58114l0.21013,-0.59986c0.08333,-0.41667 0.16667,-0.83333 0.25,-1.25c0,0 0.24515,-1.22573 1.47087,-0.98058c1.22573,0.24515 0.98058,1.47087 0.98058,1.47087c-0.08333,0.41667 -0.16667,0.83333 -0.25,1.25l-0.28987,0.90014c0,0 -0.39528,1.18585 -1.58114,0.79057z" fill="#316a70"></path><path d="M277.73333,290.72824c1,0.75 0.25,1.75 0.25,1.75l-0.25002,0.24792c0.00002,0.00138 0.00002,0.00208 0.00002,0.00208v1.25c0,0.69036 -0.55964,1.25 -1.25,1.25c-0.61444,0 -1.12533,-0.44333 -1.23027,-1.02756l-0.24546,-1.22729l0.22573,-0.04515v-0.09539c-0.07301,-0.12704 -0.14602,-0.25408 -0.21903,-0.38112l0.96903,-1.47349c0,0 0.75,-1 1.75,-0.25z" fill="#316a70"></path><path d="M269.87862,290.79239c1.18585,0.39528 0.79057,1.58114 0.79057,1.58114l-0.27526,0.81895c-0.16667,0.41667 -0.33333,0.83333 -0.5,1.25c0,0 -0.46424,1.1606 -1.62483,0.69636c-1.1606,-0.46424 -0.69636,-1.62483 -0.69636,-1.62483c0.16667,-0.41667 0.33333,-0.83333 0.5,-1.25l0.22474,-0.68105c0,0 0.39528,-1.18585 1.58114,-0.79057z" fill="#316a70"></path><path d="M190.23333,259.72824c0,0.46611 -0.17381,0.75842 -0.39181,0.94173c-0.08021,0.59865 -0.11086,1.20528 -0.10819,1.80827c0,0 0,1.25 -1.25,1.25c-1.25,0 -1.25,-1.25 -1.25,-1.25c0.00376,-1.00255 0.08194,-2.01121 0.27427,-2.99515l1.47573,-1.00485c0,0 1.25,0 1.25,1.25z" fill="#316a70"></path><path d="M181.73333,255.72824c1.25,0 1.25,1.25 1.25,1.25l-0.02427,0.75485c0.08333,0.41667 0.16667,0.83333 0.25,1.25c0,0 0.24515,1.22573 -0.98058,1.47087c-1.22573,0.24515 -1.47087,-0.98058 -1.47087,-0.98058c-0.08333,-0.41667 -0.16667,-0.83333 -0.25,-1.25l-0.02427,-1.24515c0,0 0,-1.25 1.25,-1.25z" fill="#316a70"></path><path d="M281.37862,81.6641c-0.99057,0.33019 -1.42951,-0.44288 -1.54722,-0.70645c-2.17934,-0.09695 -4.90101,-0.5453 -7.05305,-1.53692c-0.91022,-0.28585 -1.90841,-0.56732 -3.11783,-0.73488l-0.11645,-0.10947l-0.02499,0.06247l-1.15499,-0.462l-0.13563,0.02713l-0.018,-0.09c-0.0238,-0.01098 -0.0472,-0.02268 -0.07017,-0.03508c-0.16778,0.0516 -0.34031,0.08549 -0.5192,0.09572c-0.7261,0.0415 -1.23102,-0.59467 -1.77168,-1.18233c-1.01718,-0.37019 -2.0346,-0.82748 -2.94993,-1.41541c-1.0331,-0.24454 -2.10186,-0.44306 -3.07333,-0.7853l-0.13958,-0.26657l-0.03836,0.03836c-0.25097,1.39525 -0.56986,2.68764 -0.78188,3.63769c-1.47784,1.85842 -3.86956,2.96653 -6.37976,3.24194c-0.34879,0.23008 -0.75326,0.23008 -0.75326,0.23008h-1.25c-2.79001,-0.01236 -6.58406,-1.7305 -7.86803,-4.44098c-0.63194,-1.33402 -0.13174,-4.32416 -0.10941,-5.7954c0.08465,-0.2207 0.16942,-0.46779 0.25623,-0.73062c-0.21362,0.17036 -0.48431,0.27219 -0.77878,0.27219c-0.41416,0 -0.78127,-0.20142 -1.00873,-0.51164l-0.51785,-0.69046c-1.48217,-0.12519 -2.5304,-0.03799 -3.8303,0.77397c0,0 -0.58246,0.34947 -1.14626,0.10382c-0.39443,1.03752 -0.90572,2.00188 -1.49686,2.82431c0,0 -0.75,1 -1.75,0.25c-1,-0.75 -0.25,-1.75 -0.25,-1.75c1.5115,-1.88721 2.59312,-5.9944 1.41661,-8.49993l-0.41661,0.49993c-1.44138,-0.10818 -1.32653,0.60426 -2.48073,1.48526c-2.85686,2.18061 -0.29523,6.45838 -1.27535,9.63792c-0.0122,0.03956 -0.02504,0.07886 -0.03848,0.11792l0.02029,0.00406l-0.24546,1.22729c-0.10493,0.58424 -0.61583,1.02756 -1.23027,1.02756c-0.41416,0 -0.78127,-0.20142 -1.00873,-0.51164l-0.74127,-0.98836l0.12799,-0.096l-0.31385,-0.25872c-0.02085,-0.53478 -0.0417,-1.06955 -0.06255,-1.60433c-0.0016,-0.02624 -0.0016,-0.04095 -0.0016,-0.04095v-0.5c0.00931,-2.95737 0.46923,-6.51761 1.30182,-9.35618c0.1627,-0.5547 1.19474,-2.95852 1.49739,-3.1789c0.48856,-0.35574 3.43101,-0.53571 4.20564,-0.69064c0,0 0.04613,-0.00923 0.12227,-0.01515c0.07583,-0.00913 0.12287,-0.00913 0.12287,-0.00913l0.0163,0.00431c0.18951,0.00146 0.45292,0.03606 0.68925,0.18235l0.67834,0.17946c1.55916,1.633 2.10268,3.90891 1.95901,6.21702c0.61939,-0.80095 1.28713,-1.61303 1.71098,-1.75082c1.72776,-0.56168 2.79272,0.11798 3.46421,1.23309c1.11516,0.46701 1.7868,0.84109 2.1849,1.41109l0.54666,-0.53134c0.00274,-0.00358 0.00548,-0.00716 0.00822,-0.01072c0.11012,-0.14286 0.22626,-0.26944 0.34742,-0.38327c0.06498,-0.07274 0.14174,-0.14124 0.23212,-0.19879c0.2469,-0.19299 0.51042,-0.34608 0.78324,-0.48513c1.33747,-1.07863 2.72597,-2.21084 4.16513,-2.83305c0,0 0.09443,-0.03777 0.24019,-0.06483c0.8614,-0.52398 1.81994,-0.80657 3.11934,-0.46043c1.69607,0.45181 2.75232,2.51694 4.21712,3.34615c0.48653,0.27542 1.14554,0.29201 1.52148,0.70582c0.93753,1.03199 1.20993,2.66757 1.16142,4.43503c1.92752,1.54472 4.79959,0.92502 6.87116,2.19653c0.50386,0.30926 0.83534,0.81815 1.18061,1.3133c0.05034,0.00257 0.0797,0.00677 0.0797,0.00677c3.46895,0.49651 6.36997,1.99286 9.7829,2.57503l0.1799,0.20306l0.05381,-0.08071l1.48387,0.98925c0.02692,0.01738 0.05313,0.03577 0.07857,0.05512c0.33367,-0.00047 0.66583,-0.0043 0.99419,-0.0043l1.43585,1.60472c0,0 0.39528,1.18585 -0.79057,1.58114zM245.16919,75.27777c1.41576,4.24728 8.82811,5.08066 11.43112,1.86731c0.37301,-2.30208 0.61205,-4.38479 0.63302,-6.72203c0.0056,-0.62361 0.35546,-1.47951 -0.13388,-1.86612c-1.0899,-0.86108 -3.42034,-2.93166 -4.7614,-3.44803c-0.98136,-0.37787 -2.24421,1.09132 -2.83919,1.55231c-0.51848,0.40171 -1.33343,0.7235 -2.04668,1.09679c-0.3035,0.25588 -0.60165,0.51087 -0.89083,0.75212c-0.62247,2.14594 -2.14218,4.51758 -1.39216,6.76764z" fill="#316a70"></path><path d="M228.23333,80.47824l0.0894,-0.03576c-0.16667,-0.41667 -0.33333,-0.83333 -0.5,-1.25c0,0 -0.46424,-1.1606 0.69636,-1.62483c1.1606,-0.46424 1.62483,0.69636 1.62483,0.69636c0.03854,0.09636 0.07709,0.19271 0.11563,0.28907c1.06247,0.12124 2.2416,1.50647 2.83222,2.42346c0.70813,-0.14906 1.38231,-0.31237 2.0717,-0.45786l-0.07543,-0.22628l1.47232,-0.49077c0.1321,-0.04749 0.27451,-0.07337 0.42297,-0.07337c0.28769,0 0.55268,0.09719 0.76394,0.26053c0.66391,-0.06333 1.3087,0.00742 1.98238,0.18118l0.00368,-0.00061v-0.19109h1.25c0.69036,0 1.25,0.55964 1.25,1.25c0,0.62742 -0.46225,1.14687 -1.06477,1.23637l-1.47973,0.24662l-0.00002,-0.00011c-0.37037,0.06335 -0.67802,0.15323 -0.95555,0.25367c0.00005,0.00448 0.00007,0.00896 0.00007,0.01344c0,0.62742 -0.46225,1.14687 -1.06477,1.23637l-1.47973,0.24662l-0.00531,-0.03185l-0.09709,0.0446c-2.0587,-0.33109 0.0104,2.03111 -0.98507,3.31328c-0.11772,0.15163 -0.25659,0.27724 -0.41049,0.38438l0.04245,0.0566l-0.38666,0.29c-0.07182,0.70856 -0.36581,1.32055 -1.11059,1.70794c-0.23854,0.12407 -0.49127,0.16546 -0.75274,0.15591v0.09615h-1.25c-0.69036,0 -1.25,-0.55964 -1.25,-1.25c0,-0.28595 0.09602,-0.54948 0.25758,-0.7601l0.61294,-0.81726c0.2125,-1.1873 0.81738,-2.70963 0.68851,-3.94103c-1.68251,-0.15525 -3.17655,-0.95228 -3.13194,-2.56668c-0.17709,-0.32523 -0.17709,-0.66493 -0.17709,-0.66493z" fill-opacity="0.18824" fill="#ad4eac"></path><path d="M239.52784,80.24525c0,0 1.23299,-0.2055 1.43849,1.02749c0.2055,1.23299 -1.02749,1.43849 -1.02749,1.43849c-0.06536,0.01089 -0.13072,0.02183 -0.19607,0.03283c-0.35017,0.23418 -0.75943,0.23418 -0.75943,0.23418l-0.25485,-0.02427c-0.14119,0.0276 -0.28428,0.04131 -0.42823,0.04278c-0.35601,0.06492 -0.71168,0.13177 -1.06692,0.20071v0.03079h-1.5c-0.69036,0 -1.25,-0.55964 -1.25,-1.25c0,-0.69036 0.55964,-1.25 1.25,-1.25h1.15651c0.87579,-0.17923 1.75623,-0.33594 2.63799,-0.48299z" fill-opacity="0.35294" fill="#ad4eac"></path><path d="M227.23333,79.97824c0,-1.25 1.25,-1.25 1.25,-1.25l0.54644,0.15613c0.18248,-0.22465 0.47728,-0.40613 0.95356,-0.40613c1.25,0 1.25,1.25 1.25,1.25v1.25c0,0.69036 -0.55964,1.25 -1.25,1.25c-0.41416,0 -0.78127,-0.20142 -1.00873,-0.51164l-0.74127,-0.98836l0.25,0.5c0,0 -1.25,0 -1.25,-1.25z" fill-opacity="0.35294" fill="#ad4eac"></path><path d="M248.48333,73.22824c0,-1.25 1.25,-1.25 1.25,-1.25c0.43561,0 1.82003,0 2.5,0h1.5c0.69036,0 1.25,0.55964 1.25,1.25c0,0.69036 -0.55964,1.25 -1.25,1.25c-0.08333,0 -1.41667,0 -1.5,0c-0.41667,0 -0.83333,0 -1.25,0h-1.25c0,0 -1.25,0 -1.25,-1.25z" fill="#30152f"></path><path d="M234.23333,70.22824c0,1.25 -1.25,1.25 -1.25,1.25c-0.41667,0 -1.08333,0 -1.5,0c0,0 -1.25,0 -1.25,-1.25c0,-1.25 1.25,-1.25 1.25,-1.25c0.41667,0 0.83333,0 1.25,0h0.25c0,0 1.25,0 1.25,1.25z" fill="#30152f"></path><path d="M283.16919,39.87353c-1.48709,4.46128 -2.72688,8.97834 -4.81605,13.16017c-0.73194,1.4651 -1.18909,3.14942 -2.75434,4.0323c-0.55825,0.55773 -1.17892,1.01564 -1.85525,1.30338c-2.56597,1.09167 -6.23662,-0.52004 -7.72305,-2.96796c-0.0651,-0.06455 -0.12911,-0.12957 -0.19201,-0.19482c-0.00208,-0.0542 -0.00416,-0.10839 -0.00624,-0.16259c-0.10982,-0.21831 -0.20212,-0.4422 -0.27476,-0.67048c-0.01101,-0.03461 -0.02149,-0.06878 -0.03143,-0.10255c-0.27889,-0.17001 -0.53272,-0.47946 -0.53272,-1.04274c0,-0.55058 0.24251,-0.85865 0.5139,-1.03103c-0.00906,-0.06836 -0.0139,-0.14125 -0.0139,-0.21897c0,-0.39959 0.12773,-0.67144 0.30154,-0.85638c0.15343,-0.51673 0.63193,-0.89362 1.19846,-0.89362c0.38722,0 0.73332,0.17607 0.96261,0.45252c6.93962,-0.58327 9.01484,-6.42246 12.78739,-11.45252l0.0826,-0.19341c0.00368,-0.00891 0.00792,-0.01891 0.01275,-0.02987l0.03661,-0.08574c0,0 0.02543,-0.05087 0.0763,-0.12548c0.13072,-0.20661 0.35819,-0.46295 0.71357,-0.5508c0.22212,-0.06314 0.49108,-0.05923 0.80689,0.07954c0.32144,0.12518 0.51439,0.3126 0.6268,0.51431c0.18917,0.31341 0.16876,0.65552 0.11509,0.89405c-0.01679,0.08872 -0.03477,0.14268 -0.03477,0.14268zM269.21892,54.76438c0.20249,0.05124 0.41183,0.08902 0.62083,0.11842c-0.02411,-0.05133 -0.04741,-0.10284 -0.06971,-0.15456h-0.58208c0.01028,0.01206 0.0206,0.02411 0.03096,0.03614z" fill-opacity="0.97647" fill="#ad4eac"></path><path d="M235.72,130.70662c2.20808,-0.01162 3.71657,0.16239 4.23386,2.64977c1.01525,4.88184 -2.1657,9.5892 -3.87326,13.86447c0,0 -0.00704,0.0176 -0.02155,0.04759c-0.01279,0.03077 -0.02128,0.04771 -0.02128,0.04771l-0.22327,0.44428c-0.40511,0.74233 -0.81023,1.48466 -1.21534,2.22698c-1.43289,2.28864 -3.41397,4.16221 -4.81584,6.42636c-3.72357,6.01387 -6.99715,12.3667 -10.90029,18.2513c-0.08759,0.23196 -0.25965,0.46167 -0.58447,0.60946c-0.20718,0.12208 -0.47715,0.20533 -0.79547,0.13438c-0.32364,-0.04025 -0.54988,-0.20945 -0.70393,-0.3941c-0.25819,-0.25038 -0.34228,-0.52692 -0.34553,-0.77635l-0.17106,-0.70508c-0.58122,-4.13022 -0.95437,-8.47802 -0.84694,-12.75457c-0.10536,-0.18323 -0.16562,-0.39568 -0.16562,-0.62221v-1.4c0,-2.6743 0.13106,-5.25676 0.42726,-7.82128c-0.42726,-0.36764 -0.42726,-0.97872 -0.42726,-0.97872l0.0062,-0.72438c0.54835,-5.4809 -0.31759,-12.04434 2.58048,-16.73278c0.61602,-0.99658 1.09382,-2.28159 2.2618,-2.83859c0.33432,-0.15944 0.65849,-0.27655 0.97245,-0.35529c0.78254,-0.71943 1.74797,-1.25785 2.94262,-1.55899c1.75675,1.49454 2.66433,2.75694 3.22219,4.3914l0.06812,-0.04545l-0.04393,-0.02929l0.78925,-1.18387c0.22257,-0.34463 0.61005,-0.57276 1.05082,-0.57276c0.69036,0 1.25,0.55964 1.25,1.25c0,0.20995 -0.05176,0.4078 -0.14321,0.58151l-0.27671,0.55341c1.82598,-1.13968 3.8688,-1.97492 5.76992,-1.98492z" fill-opacity="0.99216" fill="#301530"></path><path d="M248.03915,6.98874c1.91959,-0.46527 3.91733,-0.6244 5.83633,-1.10565c3.26519,-0.81885 7.31138,-2.41566 10.77214,-1.4108c0.03736,0.01085 0.07467,0.02185 0.11193,0.03299l0.00216,-0.02586l3.97408,0.33117c1.42425,0.10364 2.54755,1.29197 2.54755,2.74266c0,1.30873 -0.9142,2.40393 -2.13883,2.68184l-2.61086,0.65271l-0.03705,-0.14819l-0.29392,0.2097c-2.17065,0.01219 -4.37327,-0.39459 -6.512,-0.02352c-0.93536,0.16229 -1.72762,0.8606 -2.66667,1c-2.59569,0.38533 -5.21986,0.4474 -7.84767,0.49554c-6.72506,2.16281 -12.63601,6.57254 -18.97874,9.68276c-2.09061,1.51685 -4.11898,3.251 -6.27898,4.49144c-4.1308,2.37224 -7.9768,3.76609 -11.7367,6.9459c-3.7084,3.13625 -6.766,7.09229 -10.56728,10.13483c-1.39651,1.11777 -2.99692,1.96725 -4.37395,3.10893c-1.11689,0.92599 -3.28515,4.34399 -3.8394,5.08304c-2.56286,3.41744 -5.25954,6.77664 -7.50527,10.42559c-1.54217,2.50579 -1.50863,4.86131 -2.66883,7.47903c0.05145,3.15818 -0.08339,6.15121 -0.28249,9.28461c-0.08698,1.36895 -0.69416,2.82892 -0.20402,4.11008c0.46761,1.22227 4.86143,3.40442 5.96443,3.89785c7.48668,3.34919 15.66133,3.69333 23.7227,3.07322l0.10554,0.03129v-0.03331h2.66667c1.51878,0 2.75,1.23122 2.75,2.75c0,0.65785 -0.23099,1.26175 -0.6163,1.73502l-2.65298,3.31623l-0.02387,-0.0191c-0.06512,0.09002 -0.13188,0.17901 -0.20038,0.2669c-2.04207,2.62018 -5.27914,4.0366 -7.83843,6.15447c-1.67584,1.3868 -3.29093,2.58137 -4.9394,3.68917l-0.49408,-0.28233l-0.08035,0.14061l-0.27153,-0.31926c-0.99663,-0.33642 -1.99354,-0.66709 -2.99092,-0.99203c0.02491,-0.22096 0.02491,-0.35635 0.02491,-0.35635l-2.73509,-4.4614c-7.0449,-2.30097 -12.97238,-1.96982 -20.18207,-1.59868c-2.99628,-0.70348 -6.00894,-1.35764 -9.04273,-1.96274c-0.49109,-0.44856 -0.95964,-0.91355 -1.3233,-1.44436c-1.44962,-2.11594 -2.57813,-4.44919 -3.58796,-6.80691c-3.32799,-7.77014 -3.55134,-15.90244 -3.54131,-24.21132c0.16507,-1.26305 0.04729,-2.59672 0.49522,-3.78916c1.85747,-4.94476 6.43317,-8.04261 9.30023,-12.25752c0.67175,-0.98755 1.04012,-2.16706 1.75489,-3.12394c2.73009,-3.65489 7.11185,-6.01945 10.13384,-9.49725c1.56521,-1.80129 2.46892,-4.14136 4.15581,-5.82923c1.90201,-1.90312 5.01489,-3.00204 6.96126,-4.96202c1.40619,-1.41602 2.43908,-3.25975 4.106,-4.35694c3.47229,-2.28552 7.32646,-3.32737 11.29395,-4.30461c4.85152,-2.03077 10.30352,-2.01063 15.19749,-3.95022c6.17486,-2.44724 12.64677,-5.10256 19.26377,-6.16193c2.61523,-0.4187 5.27251,-0.47055 7.92249,-0.51292z" fill-opacity="0.58039" fill="#ad4eac"></path></g><g fill-opacity="0.23529" fill="#2f152f"><path d="M267.96667,58.61743c-2.25,0 -2.25,-2.25 -2.25,-2.25l0.43813,-2.16578c-0.13768,-0.36373 -0.17823,-0.81748 -0.03761,-1.37993c0.38648,-1.54591 1.59408,-1.72327 2.26589,-1.69516c0.97687,-0.90357 2.03881,-1.74601 2.76513,-1.85499c0.18327,-0.0275 0.3666,-0.04434 0.54996,-0.05212l-0.01058,-0.08464l2.63146,-0.32893c0.1027,-0.01435 0.20763,-0.02178 0.31429,-0.02178c1.24264,0 2.25,1.00736 2.25,2.25c0,0.62132 -0.25184,1.18382 -0.65901,1.59099l-1.66667,1.66667l-0.058,-0.058l-0.10652,0.20703c-1.01415,0.60343 -1.8785,1.61578 -3.04246,1.8103c-0.53927,0.09012 -1.07619,0.00592 -1.61235,-0.13554c-0.06053,0.05724 -0.1208,0.11592 -0.18067,0.17621l0.65901,0.07568c0,0 0,2.25 -2.25,2.25z"></path><path d="M281.30001,88.28409c-2.25,0 -2.25,-2.25 -2.25,-2.25l0.0312,-0.563c-2.40094,-1.17637 -4.37274,-3.38016 -3.40275,-6.25617c-0.37898,-0.837 -0.55972,-1.78246 -0.89645,-2.64258l0.0476,-0.27111l-0.09556,0.01194l-0.32893,-2.63146c-0.01435,-0.1027 -0.02178,-0.20763 -0.02178,-0.31429c0,-1.24264 1.00736,-2.25 2.25,-2.25c0.67291,0 1.27683,0.2954 1.68915,0.76359l1.61105,1.81243c0.09927,-0.04619 0.20629,-0.08879 0.32162,-0.12723c2.13454,-0.71151 2.84605,1.42302 2.84605,1.42302c0.35176,1.06486 0.8242,2.09718 1.05527,3.19457c0.10188,0.48383 -0.39615,1.10949 -0.07061,1.48163c0.4122,0.47121 1.27874,0.17248 1.80888,0.50549c0.28478,0.17888 0.5153,0.42334 0.73118,0.68549c0.39454,0.13169 0.79572,0.27341 1.20178,0.43227c0.40601,0.15883 0.81591,0.33862 1.22691,0.53477c0.16623,0.03149 0.326,0.08126 0.47712,0.14715c2.32283,0.01464 4.64942,0.07023 6.95117,0.48285l0.36597,0.88138l0.32324,-0.2155l1.31627,1.9744c0.24913,0.36215 0.39495,0.80088 0.39495,1.27367c0,1.24264 -1.00736,2.25 -2.25,2.25c-0.06177,0 -0.12296,-0.00249 -0.18347,-0.00737l-4.4654,-0.31896l0.00317,-0.04431c-0.13795,-0.00511 -0.27594,-0.01291 -0.41396,-0.02365c-1.39733,-0.10878 -2.67329,-1.11782 -3.93047,-1.93904h-2.00987v-0.27033c-0.37909,-0.02148 -0.75893,-0.04397 -1.13981,-0.06736c-0.11147,-0.00684 -0.2235,-0.01038 -0.33596,-0.01127c-0.1957,0.01065 -0.39072,0.01602 -0.58481,0.01563c-0.02229,0.00123 -0.04458,0.00252 -0.06689,0.00386l0.04413,0.07946c0,0 0,2.25 -2.25,2.25z"></path><path d="M236.93674,53.64187l-0.38674,-2.20599c0,-1.77778 0,-3.55556 0,-5.33333c0,0 0,-2.75 2.75,-2.75c2.75,0 2.75,2.75 2.75,2.75c0,1.66264 0,3.32529 0,4.98793l0.31911,0.22793c0.28369,-0.12909 0.59889,-0.201 0.93089,-0.201c1.24264,0 2.25,1.00736 2.25,2.25c0,0.32005 -0.06682,0.62449 -0.18728,0.90014c0.88861,1.84382 1.05526,4.39437 -0.1384,5.69085c-0.5188,0.56349 -1.19349,0.73792 -1.92388,0.74695c0.08021,0.11514 0.16314,0.2252 0.24955,0.32873l-0.93645,0.8757l0.55856,0.37237l-1.31398,1.97096c-0.00033,0.00051 -0.00066,0.00102 -0.00099,0.00153c0.21423,0.06003 0.42339,0.12664 0.62574,0.1988c0.66695,0.23786 0.99722,0.89258 1.27205,1.61101c0.72236,0.23313 1.42982,0.54498 2.06108,0.89578c1.00357,-1.03328 2.40885,-2.20461 3.52615,-2.62877c2.29635,-0.87176 8.06951,-3.07897 8.20781,2.70262c0.0413,1.72657 -2.11776,2.72876 -3.17665,4.09314c-0.74549,1.02361 -2.01127,2.16224 -3.48578,3.01092c-0.26647,0.33238 -0.53586,0.66238 -0.8083,0.98977l-2.77928,0.98949c0,0 -1.28747,0 -2.10056,-0.88093c-0.73644,-0.2104 -1.43415,-0.60193 -2.05807,-1.22014c-0.42955,-0.42562 -0.18947,-1.01572 0.12958,-1.64778c-0.23208,-0.11441 -0.47251,-0.25834 -0.72313,-0.43443c0.00145,0.03313 0.00218,0.06645 0.00218,0.09994c0,0.70084 -0.32043,1.32685 -0.82279,1.7395l-1.9868,1.65567l-0.02556,-0.03068l-0.06869,0.10505c-0.82111,0.54249 -2.0286,0.99625 -3.2122,1.49398c0.11604,0.39141 0.11604,0.70315 0.11604,0.70315c0,2.0332 0.05119,4.08019 0.06544,6.12441c0.43456,0.73847 0.43456,1.54226 0.43456,1.54226c0,0.88889 0,1.77778 0,2.66667v1.57189c2.06449,-0.1394 4.1723,0.17811 6.25,0.17811c5.66667,0 11.33333,0 17,0h1.129c2.49345,-0.4454 4.95905,-1.05866 7.1658,-2.53562l1.92011,-1.60009c0.39184,-0.33125 0.89848,-0.53096 1.45176,-0.53096c1.24264,0 2.25,1.00736 2.25,2.25c0,0.3428 -0.07666,0.6677 -0.21378,0.95849l-1.31348,2.95533l-0.1013,-0.04502c-0.08311,0.22181 -0.18038,0.43879 -0.29468,0.64995c-0.49884,0.92155 -1.62049,1.24141 -2.64214,1.66112c-0.71819,1.00953 -3.34525,4.70511 -3.5882,4.89079c-2.59895,1.9863 -6.89252,3.65235 -10.11156,4.15673l0.88725,0.02069c0,0 -1.24808,1.87211 -3.12019,0.62404c-0.84893,-0.56596 -1.05627,-1.26023 -1.02932,-1.85007c-0.3544,0.08766 -0.7132,0.15769 -1.07719,0.20621c-6.56096,0.87464 -12.59096,-0.65413 -18.02227,-3.9179c-1.73574,0.64956 -2.44361,1.466 -3.22398,2.86494c0.11281,0.35289 0.24758,0.69758 0.41061,1.03077c0.65611,1.34092 1.67069,2.72651 2.309,4.19892c3.96543,1.87409 8.01821,3.34618 12.3655,4.7045c4.34081,1.35629 8.79212,2.95898 13.44973,2.23813c3.3295,-0.5153 6.90401,-2.49296 9.98272,-3.8068c1.89041,-0.80673 3.81137,-1.24585 5.63485,-2.07024c0.03013,-0.05006 0.06024,-0.10017 0.09033,-0.15031c0,0 0.60586,-1.00977 1.68543,-1.3113l0.56006,-0.70101c0,0 1.76051,-2.11261 3.87312,-0.3521c2.11261,1.76051 0.3521,3.87312 0.3521,3.87312l-2.01273,2.34705c-0.18716,0.1082 -0.37556,0.21428 -0.56512,0.31838c-3.42115,5.46433 -7.58925,10.52581 -13.94718,12.83195c-2.28513,0.82886 -5.03858,0.86897 -7.76246,0.75236c-0.76726,0.75677 -1.56287,1.46328 -2.55482,1.82167c-0.68939,0.24907 -5.5572,-1.54597 -6.2327,-1.7401c-0.30561,-0.08783 -0.61415,-0.17833 -0.92519,-0.27154c-1.91941,-0.00465 -3.82762,-0.17524 -5.59866,-0.99028c-1.32811,-0.6112 -2.48954,-1.45409 -3.55953,-2.42329c-2.03033,-0.93827 -3.99727,-1.99934 -5.79099,-3.19233c0.9304,1.17207 1.90845,2.36559 2.92521,3.64262c0.62262,0.782 1.10218,1.6654 1.57986,2.54991c1.29626,0.77308 2.60601,1.52569 3.76493,2.48555c2.04028,1.68983 3.76015,4.35281 6.1622,5.66427c1.89717,1.03581 4.9834,1.03301 7.07125,1.02662c4.13839,-0.01266 9.48374,1.03174 12.88398,-2.01059c2.09406,-1.87364 3.86805,-4.50403 5.67008,-6.66658l2.24298,-1.18171c0,0 2.45008,-0.81669 3.393,1.50716c1.86663,-2.07019 3.78342,-3.82717 5.69652,-5.65777c-0.02135,0.11348 -0.04429,0.23514 -0.06861,0.36397c2.00522,1.16521 1.04302,3.41034 1.04302,3.41034c-0.52141,1.18436 -1.20703,2.36983 -2.01069,3.53459c-0.08356,1.36142 -0.28138,2.72002 -0.72798,4.07972c-0.28896,3.19783 -0.64065,6.25405 -1.83,9.45336l-0.62442,2.51604c0,0 -0.48729,1.94916 -2.29489,2.09887c-0.09149,0.34076 -0.25357,0.62684 -0.44484,0.86415c-0.32755,0.51027 -0.87473,0.97199 -1.7888,1.09061l-2.4727,0.69605c-4.03627,-0.03568 -6.76826,1.00207 -9.06509,4.47152c-0.67346,1.01729 -1.04276,2.23133 -1.80462,3.18422c-0.64781,0.81023 -1.44567,1.5522 -2.06792,2.38563c0.18103,0.70402 0.10675,1.59527 -0.78449,2.48651c-0.78952,0.78952 -1.57904,0.93792 -2.23841,0.83566c-0.38705,0.03765 -0.83154,-0.01523 -1.33839,-0.2053c-1.10135,-0.41301 -1.55497,-1.12044 -1.71348,-1.79487c-4.40829,-3.13301 -7.61176,-4.07854 -13.35578,-2.77027c-1.41998,0.32342 -2.58826,0.30163 -3.5915,1.5007c-1.93015,2.3069 -3.30254,4.84137 -5.42355,7.08478c-0.29694,0.47888 -0.78285,0.92116 -1.57801,1.08631c-0.50427,0.16322 -1.1219,0.20812 -1.77419,-0.10132c-0.68005,-0.24243 -1.08502,-0.71091 -1.32619,-1.18289c-0.46882,-0.71461 -0.47843,-1.40407 -0.32619,-1.96926c-1.13394,-3.19574 -5.60336,-0.03646 -7.2886,1.80299c-0.20526,0.22404 -0.37777,0.48782 -0.53795,0.76535c-0.08474,0.54507 -0.35051,0.99858 -0.59019,1.31179c-0.14122,0.19332 -0.2509,0.303 -0.2509,0.303l-0.08237,0.07441c-0.04313,0.04208 -0.07497,0.07053 -0.09068,0.08423c-1.0548,1.26558 -2.06921,2.52623 -3.03388,3.82622c-0.02938,0.31001 -0.11023,0.60503 -0.23391,0.87642l-0.97605,2.27746l-0.02837,-0.01216l-0.00454,0.08594c-1.12808,2.23686 -2.46015,4.38934 -3.99618,6.37225c-1.37603,2.98466 -2.80407,5.96192 -4.5304,8.64257c-0.88631,1.37627 -2.47229,2.26516 -3.18283,3.73988c-0.36341,0.75425 -0.22019,1.68482 -0.56694,2.44687c-2.32353,5.10643 -5.46769,10.81016 -8.59354,15.49506c-0.99189,1.48661 -2.08923,2.85368 -3.21313,4.19613c0.30188,1.31078 -0.67546,2.42774 -0.67546,2.42774c-0.98459,1.11924 -2.27796,2.50723 -3.35293,4.03791c-0.70705,2.47773 -1.25207,4.9894 -1.49494,7.57742c0.74944,1.38409 2.17918,2.40282 3.06376,3.73454l0.13119,3.5059c0,0 0,0.25163 -0.07612,0.60265c0.08848,0.00215 0.17724,0.00623 0.2662,0.01208c1.16517,-0.60116 2.77635,-0.84592 4.50978,-0.91468c0.27568,-1.06193 0.84867,-2.16057 1.23801,-3.1204c0.37215,-0.91747 1.52042,-1.3032 2.08121,-2.11914c1.29501,-1.88421 2.32205,-3.95507 3.73261,-5.75441c2.84838,-3.63344 5.21111,-7.16747 7.94095,-10.92178c1.3987,-1.92361 3.41235,-3.40708 4.5514,-5.49496c0.62021,-1.13684 0.63777,-2.52466 1.17421,-3.70335c1.64025,-3.60399 4.55576,-6.40908 6.42204,-9.84263c1.43486,-2.63984 2.52368,-5.46335 4.03431,-8.06057c0,0 0.759,-1.30114 2.1165,-1.41571c0.78258,-2.81859 1.74506,-5.59021 3.22462,-8.33043c0.13869,-0.78421 0.66949,-2.28487 2.70094,-2.28487c2.75,0 2.75,2.75 2.75,2.75l-0.36233,1.69772c-1.9812,3.43846 -2.99013,6.961 -3.84976,10.57474c0.13662,0.32645 0.21209,0.68485 0.21209,1.06087c0,0.46188 -0.11387,0.89717 -0.31507,1.27932l-0.81151,1.62302c-0.29726,1.27306 -0.61232,2.55735 -0.97923,3.85314c0,0 -0.01969,0.06892 -0.06385,0.18134c-0.03825,0.11456 -0.06736,0.18006 -0.06736,0.18006l-1.52138,3.35185c-2.85981,3.30719 -3.30944,7.10646 -5.15753,11.00864c-2.62569,5.54404 -6.36817,10.57583 -7.79695,16.69132c-0.95122,4.07144 0.37506,7.7174 -2.61601,10.9963c-0.00649,0.33309 -0.00975,0.66833 -0.00975,1.00587l-0.28391,2.30614c0.05846,0.52388 -0.04752,1.12261 -0.50243,1.73468c-0.2708,0.45096 -0.70214,0.90278 -1.38266,1.10432c-0.6609,0.25871 -1.27877,0.16688 -1.76939,-0.02283c-0.81477,-0.22601 -1.28087,-0.70243 -1.54536,-1.20868c-0.62784,-0.79807 -1.15085,-1.75313 -1.9052,-2.34399c-0.38239,0.04387 -0.76618,0.08236 -1.15105,0.1161l-0.72827,0.46345l-0.04286,-0.06736c-0.15518,0.11438 -0.31481,0.22342 -0.47944,0.32647c-1.05223,0.65862 -2.34018,0.71699 -3.62533,0.74703c-2.7261,1.24142 -6.62538,3.39766 -9.27289,2.3551c-0.10309,-0.0406 -0.20451,-0.08136 -0.30427,-0.1223c0.03323,2.38895 0.56169,5.746 -0.00962,7.98401c-0.58744,2.30117 -0.27683,5.70548 -2.43552,6.69571c-5.97436,2.74053 -5.75021,-5.12735 -5.71783,-7.07627c0.05891,-3.54518 1.11531,-8.4798 2.65178,-12.03436c-0.04826,-1.09221 -0.06859,-2.18462 0.64826,-2.89015c0.1692,-0.16653 0.35633,-0.31666 0.55873,-0.45199c-0.78248,-0.33749 -1.16498,-0.98871 -1.35195,-1.54472c-0.24201,0.06966 -0.49771,0.10698 -0.76213,0.10698c-0.96969,0 -1.82215,-0.50189 -2.3118,-1.26006l-1.97634,-2.96451l0.12443,-0.08295c-0.16693,-0.20593 -0.3237,-0.42055 -0.46829,-0.64557c-0.68454,-1.06526 -0.12028,-2.53066 -0.118,-3.79691c0.0013,-0.71926 -0.08257,-1.45813 -0.06542,-2.17986c-0.72696,0.38675 -1.83164,0.6174 -3.01158,-0.43143c-0.89486,-0.79543 -1.05381,-1.63415 -0.94802,-2.32769c-3.31251,0.17935 -5.9866,-1.85391 -5.16952,-5.78314c-0.92791,-0.15264 -2.27893,0.33548 -2.78374,-0.45792c-0.13789,-0.21672 -0.25268,-0.46492 -0.34727,-0.73764c-1.48385,-0.04002 -2.67445,-1.25546 -2.67445,-2.74898c0,-0.75939 0.3078,-1.44689 0.80546,-1.94454l1.78024,-1.78024c0.03996,-0.26568 0.08107,-0.51547 0.12132,-0.74457c0.30647,-1.74445 1.15471,-5.36027 1.97392,-6.86892c1.94866,-3.58863 6.18047,-6.15985 8.65824,-9.46353l0.18971,-0.08599l-0.05675,-0.05675l2,-2c0.49765,-0.49765 1.18515,-0.80546 1.94454,-0.80546c1.04512,0 1.95407,0.58301 2.41937,1.44154l1.18064,-1.18064c2.97154,-5.64734 8.06404,-9.72946 12.46634,-14.13295c0.18223,-0.18228 0.36353,-0.36634 0.54403,-0.55194c-0.43157,-0.48564 -0.69371,-1.12522 -0.69371,-1.82602c0,-0.47808 0.122,-0.92767 0.33655,-1.31933l2.51945,-4.82895c1.22199,-4.13467 4.6527,-7.48807 6.8969,-10.97839c1.70155,-2.64636 2.84823,-5.61223 4.12676,-8.50929c0.38857,-3.11004 0.97022,-6.34683 2.49312,-9.07989c0.4224,-0.75806 1.23571,-1.24676 1.66667,-2c1.44344,-2.52289 2.3339,-5.81242 4.10003,-8.15922c0.10772,-0.14314 0.21803,-0.28512 0.33076,-0.42597c-0.09754,-3.22342 0.02884,-6.44721 0.53681,-9.69576c-2.27002,-3.06214 -3.8429,-6.51996 -4.20786,-10.21672c-3.04545,0.81039 -6.57236,0.73508 -9.92632,0.39457c-1.6242,0.31836 -3.28057,0.43716 -5.12554,0.215c-1.54333,-0.18584 -2.98119,-0.84891 -4.44372,-1.40412c-1.61484,-0.18019 -3.3376,-0.45188 -4.64827,-1.0085c-0.72096,-0.16057 -1.81863,-0.49583 -2.94585,-0.96224l-1.2921,-0.35239c-0.73972,-0.18398 -1.36106,-0.66745 -1.72785,-1.31423c-0.80579,-0.63222 -1.34757,-1.34213 -1.34388,-2.09445c0.00318,-0.64918 0.22352,-1.25015 0.57823,-1.80404c-0.37097,-0.40694 -0.74251,-0.80271 -1.11844,-1.17823c0,0 -1.94454,-1.94454 0,-3.88909c1.94454,-1.94454 3.88909,0 3.88909,0c0.46823,0.46871 0.97645,1.06397 1.51523,1.70607c1.06014,-0.27885 2.29196,-0.10133 3.40324,-0.17478c3.5598,-0.23527 6.14819,0.84792 9.56062,1.36275c2.01299,0.30369 4.00936,0.396 5.99676,0.36797c1.86293,-1.16715 3.70978,-2.68606 5.59131,-3.86051c1.54895,-2.32646 2.17657,-4.06779 5.14486,-5.42189c0.83703,-0.38185 1.76805,-0.96827 2.68908,-1.33581c0.23163,-1.51514 0.18134,-3.42759 1.48146,-4.04505c1.49239,-0.70878 3.13687,1.03847 4.7053,1.5577c0.01447,0.01428 0.02887,0.02863 0.04322,0.04305l0.02139,-0.17109c0.08914,-0.80811 0.60623,-1.4873 1.31966,-1.80595c0,-0.53708 0,-1.07417 0,-1.61125c0,0 0,-0.83749 0.51095,-1.49057c0.11142,-1.12138 0.3984,-2.19698 0.93613,-3.1606c-2.03401,-2.55912 -0.74536,-6.4295 1.08175,-9.78039l-0.2446,-0.08736l1.49589,-4.18851c0.29654,-0.89606 1.14104,-1.54258 2.13654,-1.54258c0.5058,0 0.97262,0.1669 1.3484,0.44863c0.26329,-1.13697 0.72752,-2.24225 1.59811,-3.31566c0.71702,-0.88406 2.20536,-1.854 3.71562,-2.224c0.03184,-0.08729 0.06501,-0.17575 0.09955,-0.26547c-1.45744,-0.44823 -1.79161,-2.11906 -1.79161,-2.11906zM224.77993,91.7607c0.02091,0.04283 0.04202,0.08536 0.06338,0.12754c0.01157,-0.01372 0.02318,-0.02743 0.03484,-0.0411c-0.03302,-0.02849 -0.06576,-0.05731 -0.09822,-0.08644zM204.64929,233.58505c-0.28376,0.46182 -0.58155,0.89601 -0.90591,1.28108c-0.16196,0.19228 -0.33329,0.37539 -0.51152,0.55174c0.43535,0.09663 0.83186,0.29644 1.16256,0.57246c0.06627,-0.81014 0.15139,-1.61136 0.25487,-2.40528zM194.95573,186.72348c-0.641,0.73151 -1.29843,1.46519 -1.98823,2.1972c-1.55327,1.64831 -3.52437,2.84554 -5.28881,4.26551c-1.57319,1.26606 -2.67357,3.03054 -4.10081,4.45912c-2.71526,2.71781 -5.52818,5.10642 -8.54794,7.5265c-1.50106,1.20297 -3.02878,2.48754 -4.28044,3.95185c-0.55396,0.64807 -0.70345,1.6889 -1.44425,2.11091c-0.07684,0.04377 -0.15421,0.08636 -0.23209,0.12785l0.06047,0.06047l-0.7451,0.7451c-0.00343,0.01235 -0.00694,0.02468 -0.01052,0.03699c-0.11334,0.39007 -1.02326,0.78719 -0.68307,1.00916c0.71413,0.46597 1.69973,0.13916 2.5496,0.20875c0.33256,1.24719 0.72563,2.47981 0.99767,3.74158c0.05285,0.24514 -0.23111,0.60346 -0.02889,0.75177c0.74485,0.54628 1.41136,-1.21582 1.95999,-1.95894c0.70093,-0.94942 1.21789,-2.03062 1.95913,-2.94891c1.67037,-2.06937 3.97897,-3.54094 5.79391,-5.48475c2.04897,-2.19445 3.4444,-6.2379 5.08214,-8.67655c1.54216,-2.29633 3.75523,-4.06787 5.49456,-6.21872c1.40216,-1.73391 2.44164,-3.80598 3.45267,-5.90487zM234.0992,70.14767c-0.00205,0.02292 -0.00413,0.04583 -0.00622,0.06874c0.01206,-0.01955 0.02422,-0.03899 0.03651,-0.05832c-0.01017,-0.00341 -0.02026,-0.00689 -0.03029,-0.01042z"></path><path d="M255.57789,247.71377c-1.94454,1.94454 -3.88909,0 -3.88909,0l-1.14341,-1.15487c-0.20799,-0.24289 -0.41473,-0.48688 -0.62023,-0.73192c-0.43921,0.40485 -0.86761,0.81432 -1.21748,1.2572c-2.94017,-0.77531 -5.58463,-0.94995 -7.50695,-2.50959c-2.85724,1.65145 -6.49811,2.51269 -8.37917,0.24872c-1.15387,-1.38876 0.1005,-3.60973 0.15075,-5.41459c0.89779,-2.99599 1.4574,-6.34555 2.85098,-9.16798c0.93964,-1.90305 2.20601,-3.66765 2.87077,-5.68324c1.45048,-4.39796 2.54056,-9.17347 3.57653,-13.66351c0.8127,-3.52235 0.52903,-7.64343 0.97245,-11.17139c0.94834,-7.54521 2.87995,-15.24471 4.7224,-22.62034c0,0 0.66697,-2.66789 3.33486,-2.00092c1.75553,0.43888 2.06709,1.74415 2.07487,2.58557c1.48403,0.03983 2.67482,1.25535 2.67482,2.74899v3c0,4.12538 0.36583,8.43726 -0.00801,12.54302c-0.42641,4.68318 -1.12962,9.33512 -2.05437,13.94372c-0.62056,9.60698 -1.60429,19.13018 -1.60429,28.84659l-0.46986,0.7663c0.90859,1.17005 1.84342,2.32001 2.80781,3.44403l0.85659,0.84513c0,0 1.94454,1.94454 0,3.88909zM245.18604,240.79717c0.33691,0.10918 0.68991,0.19709 1.01782,0.3155c-0.18923,-0.30271 -0.2971,-0.60043 -0.34635,-0.8856c-0.07079,-0.21288 -0.13441,-0.43531 -0.19605,-0.65909c-0.1326,0.42093 -0.28623,0.83271 -0.47542,1.22919z"></path><path d="M268.91122,281.82468l-0.64562,4.85278c-0.4296,-0.0453 -0.86099,-0.19579 -1.2888,-0.13591c-0.46954,0.06572 0.74817,0.6243 1.2026,0.75952c0.82029,0.24407 1.69732,0.25344 2.52134,0.48461c1.43537,0.40266 3.00336,0.58533 4.24323,1.41306c0.0323,0.02157 0.0644,0.04338 0.0963,0.06543l0.00968,-0.0226l2.27508,0.97503c1.01111,0.4064 1.72497,1.39614 1.72497,2.55261c0,1.51878 -1.23122,2.75 -2.75,2.75h-2.66667c-3.93775,0 -8.18426,1.02293 -11.02002,-1.07646c-0.20738,0.04998 -0.42392,0.07646 -0.64665,0.07646c-1.51878,0 -2.75,-1.23122 -2.75,-2.75v-2.41025c-0.95234,-3.68105 -1.79709,-7.31914 -2.60264,-10.99982c-0.50074,-2.28794 -1.76181,-4.35709 -2.32512,-6.63043c-0.79391,-3.20399 -0.85723,-6.93538 -1.37382,-10.2095c-0.55544,-3.52027 -2.41362,-7.75201 1.15186,-10.67697c0.32278,-0.2648 1.47022,-0.39068 2.75954,-0.44894c0.11988,-0.14877 0.25146,-0.28851 0.39671,-0.41746c0.05951,-0.05283 2.04842,-0.62629 3.85749,-0.89826c0.40638,-1.01115 1.39614,-1.72505 2.55264,-1.72505h2.33205c1.05662,-0.35108 2.14585,-0.61871 3.16285,-1.0712c0.61404,-0.2732 1.08776,-1.10763 1.6873,-1.25009l1.87326,-1.87326v0c0.49765,-0.49765 1.18515,-0.80546 1.94454,-0.80546c0.19005,0 0.37561,0.01928 0.5548,0.05599l0.83632,-2.50895l0.17575,0.05858l-0.01744,-0.43685c0.39988,-0.53617 0.91763,-1.00647 1.28056,-1.56328l0.10338,-0.82706c0.04104,-0.37207 0.15631,-0.72178 0.33067,-1.03399c-0.00193,-0.45892 -0.00106,-0.91672 0.17435,-1.32812c0.43304,-1.0156 1.02164,-1.81672 1.64914,-2.55603c-0.30328,-2.59182 0.38658,-6.14532 0.50111,-7.94784c0.58691,-9.23689 -0.57729,-18.6086 0.07395,-27.83762c-0.00384,-0.01562 -0.00754,-0.03128 -0.0111,-0.047l-0.65271,-2.61086l0.12604,-0.03151l-0.18755,-0.29946c-0.07655,-11.15525 -0.68727,-22.16301 -0.68727,-33.336c0,0 0,-2.75 2.75,-2.75c2.75,0 2.75,2.75 2.75,2.75c0,1.45611 0.01314,2.90943 0.0357,4.36067c0.25677,-0.07055 0.54881,-0.11067 0.88097,-0.11067c2.75,0 2.75,2.75 2.75,2.75v0.66667c0,5.59134 -0.00412,11.03198 -0.39883,16.52035c0.39883,0.72055 0.39883,1.47965 0.39883,1.47965v2.66667c-0.00973,11.38447 -0.77935,22.53377 0.62439,33.85297c0.78311,3.39158 4.6306,10.73332 0.8467,13.7489c-1.01299,0.80731 -2.49958,0.30211 -3.86107,-0.04386c-0.03728,0.18086 -0.09231,0.35524 -0.1632,0.52122l-1.20559,3.01397c0.90968,1.25416 0.13511,2.80331 0.13511,2.80331l-1.21382,2.39093c-0.47435,1.9288 -1.05795,6.27704 -3.16507,7.68317c-0.27352,0.42748 -0.54531,0.85574 -0.79122,1.29552l-0.75828,0.16361l0.16644,0.29127l-2.2914,1.30937c-0.36909,0.22007 -0.79407,0.35614 -1.24857,0.38184c-1.99253,1.90162 -3.69448,1.51602 -6.37363,1.96725c-0.65251,0.1099 -1.30024,0.41614 -1.94638,0.60165c-0.47247,1.11882 -0.88416,2.25674 -1.18686,3.41723c-0.30577,1.17227 -0.13572,2.47713 -0.64355,3.57705c-0.02168,0.04695 -0.04366,0.09373 -0.06594,0.14035l0.02597,0.00779l-0.06769,0.22564c0.10467,1.70875 0.20421,3.42445 0.47407,5.16677c0.54712,3.53241 1.03546,6.42546 1.04285,10.06691c1.3983,-0.32374 2.52796,0.80592 2.52796,0.80592z"></path></g><path d="M236.53746,245.07032c-2.75,0 -2.75,-2.75 -2.75,-2.75l0.418,-3.4575c1.22916,-1.31384 1.90913,-3.66862 3.68748,-3.94151c0.3185,-0.04887 0.62093,-0.01477 0.9112,0.07936c0.09913,-0.20139 0.22416,-0.39983 0.3566,-0.59805c0.24057,-0.94024 0.4495,-1.89231 0.72729,-2.81923c0.44533,-1.48597 1.18766,-2.84777 1.91025,-4.2166c0.25805,-0.88044 0.50095,-1.76508 0.72396,-2.65479c2.54313,-10.14577 2.08642,-20.63329 2.94666,-31.00981l0.03344,-0.05293l-0.02699,-0.00337l0.32881,-2.63047c0.12455,-1.12921 0.9328,-2.05246 2.00168,-2.34672c-0.01158,-0.67489 -0.0184,-1.34684 -0.0184,-2.01505c0,0 0,-2.75 2.75,-2.75c2.75,0 2.75,2.75 2.75,2.75c0,6.74877 0.66422,13.86248 -0.01111,20.5803c-0.27292,2.71486 -0.9979,5.04875 -1.82318,7.45865c-0.23476,5.32421 -0.76537,10.59988 -1.88465,15.82806c-0.64857,3.02947 0.02406,6.08472 -0.28105,9.13299c-0.16996,1.69804 0.47923,4.04056 -0.90474,5.03899c-1.69885,1.22561 -4.27729,0.75162 -6.28273,0.14628c-0.86609,-0.26143 -1.60963,-0.80851 -2.27514,-1.46122c-0.23869,-0.03293 -0.4676,-0.09648 -0.68263,-0.18658c-0.24186,0.80559 -0.88652,1.87919 -2.60477,1.87919zM243.70432,239.13528c-0.02724,-0.19441 -0.0512,-0.3947 -0.07201,-0.6l-0.11123,0.40785c0.06153,0.06362 0.1226,0.1277 0.18324,0.19216z" fill-opacity="0.23529" fill="#2f152f"></path><path d="M184.20413,237.23699c0.28855,0 0.54682,0.03028 0.77799,0.08447c0.49263,-0.46564 1.15731,-0.75114 1.88868,-0.75114c1.11587,0 2.07651,0.66462 2.50767,1.6196c0.15153,-0.05537 0.30518,-0.10955 0.46072,-0.16261c1.12586,-0.60624 2.20094,-1.30795 3.32579,-2.19733c1.32718,-1.04935 3.71481,-3.29719 5.19991,-3.79513c0.11934,-0.04001 0.24007,-0.07361 0.36197,-0.10164l0.0701,-0.84126l0.06538,0.00545c-0.00328,-0.13607 -0.00381,-0.27236 -0.00132,-0.40889c0.08194,-4.49022 4.42336,-8.18959 6.80791,-11.34903c2.27186,-3.01013 4.60055,-7.44723 6.07352,-10.91165l0.14024,-0.10071l-0.06623,-0.03785l1.30685,-2.28698c0.30841,-0.56371 0.80852,-1.00756 1.41264,-1.24391c2.35463,-4.9062 4.5834,-9.85144 6.82186,-14.88828c0,0 1.11688,-2.51298 3.62986,-1.3961c2.51298,1.11688 1.3961,3.62986 1.3961,3.62986c-2.7283,6.13832 -5.35925,12.15846 -8.37595,18.09134c-1.30901,2.57439 -1.3954,5.6375 -2.64075,8.27884c-0.96703,2.05102 -2.41707,3.82982 -3.77733,5.65522c-0.29312,0.67614 -0.5585,1.36358 -0.77952,2.06898c-0.94493,3.01587 -1.75687,8.96759 -4.89246,10.83391c-0.39149,0.23302 -0.81783,0.33755 -1.26505,0.36844c0.19269,0.37578 0.30142,0.80172 0.30142,1.25306c0,1.0004 -0.53418,1.87604 -1.33288,2.35723l-2.62629,1.64143l-0.06392,-0.10227c-0.16212,0.13121 -0.33004,0.25579 -0.50472,0.37266c-1.04623,0.69998 -2.51289,0.21105 -3.75065,0.44022c-2.29704,0.42529 -4.46619,1.70346 -6.80221,1.68679c-0.65951,-0.00471 -1.3126,-0.08733 -1.96308,-0.20171c-0.12625,0.04756 -0.25348,0.09504 -0.38174,0.14247l-0.09227,-0.02804c-0.35415,1.0356 -0.81438,2.0301 -0.89543,2.34908c-0.64486,2.53781 -0.65338,5.2315 -1.29011,7.80634l-0.31342,2.50737c-0.1517,1.3753 -1.31756,2.4451 -2.73329,2.4451c-1.30873,0 -2.40393,-0.9142 -2.68184,-2.13883l-0.65271,-2.61086l0.07757,-0.01939c-0.04859,-0.10263 -0.09501,-0.20645 -0.13908,-0.31158c-0.86965,-2.07487 0.6449,-5.08611 1.04692,-6.94164c0.55012,-2.53912 0.92584,-5.13025 1.74027,-7.59732l-0.14112,-0.46371c0,0 0,-2.75 2.75,-2.75z" fill-opacity="0.23529" fill="#2f152f"></path><path d="M228.85295,67.05709c0,0 0.59656,-2.68451 3.28107,-2.08796c2.68451,0.59656 2.08796,3.28107 2.08796,3.28107c-0.17978,0.78698 -0.31507,1.57289 -0.41711,2.35754c1.27545,-0.12047 2.51287,-0.33982 3.63876,-1.40005l-0.18171,-0.75702c0,0 0.86963,-2.60888 3.47851,-1.73925c2.60888,0.86963 1.73925,3.47851 1.73925,3.47851l-1.51504,3.24298c-0.88849,0.69221 -1.63358,1.62524 -2.66547,2.07664c-1.43834,0.62919 -3.33917,-0.22537 -4.80333,0.13827c-0.01333,0.93155 -0.0137,1.86074 -0.0204,2.78726c0.38552,2.13885 0.92289,4.48769 1.12475,6.54921c0.12049,1.23051 0.56189,2.64668 -0.07152,3.70851c-0.1218,0.20418 -0.25567,0.39849 -0.39959,0.58461l0.12938,0.07393l-0.04384,0.07673c4.59152,2.78988 9.83582,5.04307 15.17714,5.73068c2.43826,-0.38785 4.80293,-0.99092 6.90617,-1.76819c0.80163,-0.29625 6.24128,-3.00243 7.1226,-3.03959c0.08506,-0.00359 0.17005,-0.00595 0.25497,-0.00715l-0.01069,-0.05345l3.27765,-0.65553c0.1916,-0.04226 0.3907,-0.06454 0.595,-0.06454c1.51878,0 2.75,1.23122 2.75,2.75c0,1.04123 -0.57868,1.9473 -1.43197,2.41415l-2.17537,1.24307c-1.58276,1.18974 -3.69878,2.96025 -5.60637,3.61832c-4.00304,1.38095 -8.18094,1.621 -12.3162,1.06859c-3.78154,0.53367 -7.70364,0.63517 -11.2861,0.04338c-1.95393,-0.32277 -5.40938,-2.63054 -7.50279,-1.70596c-0.98061,0.4331 -0.41421,4.17789 -0.35304,5.18001c0.79551,0.77674 1.65025,1.5052 2.71266,2.13977l1.2925,2.66533c0,0 0,0.05131 -0.00701,0.13992c2.01824,1.78752 4.43027,3.1306 7.32203,3.87587c1.26827,0.32686 2.62465,0.29619 3.86107,0.72817c1.10783,0.38705 2.00308,1.24092 3.08381,1.69819c2.45801,1.04002 6.61111,1.27934 9.21626,0.84336c2.503,-0.41889 4.75382,-2.23608 7.08246,-3.1708c2.62035,-1.05181 6.57725,-3.15619 9.24736,-3.63044c0.01008,-0.00179 0.02016,-0.00356 0.03024,-0.00531l-0.00283,-0.00661l2.27746,-0.97605c0.34709,-0.15818 0.73283,-0.2463 1.13916,-0.2463c1.51878,0 2.75,1.23122 2.75,2.75c0,0.75939 -0.3078,1.44689 -0.80546,1.94454l-2,2l-0.05843,-0.05843l-0.08431,0.19138c-1.62652,1.2247 -3.43377,2.22501 -4.93102,3.60477c-1.9796,1.82427 -3.70809,4.63572 -5.89412,6.18938c-4.84095,3.44056 -13.34446,2.03896 -18.74587,1.17692c-1.19248,-0.19031 -2.43584,-0.07537 -3.60164,-0.39026c-2.3425,-0.63272 -6.31132,-2.3811 -8.75378,-4.68028c0.84093,3.30034 2.71332,6.04394 4.66527,9.1607l0.45965,0.19337c4.22556,1.09354 8.5861,2.68148 12.77746,4.50205c2.38607,-1.08738 6.22761,-1.18066 8.58998,-2.07573l2.09294,-0.45502c0,0 1.05034,-0.21007 1.97109,0.28753l3.45378,-1.43907c0.34066,-0.15119 0.71775,-0.23519 1.11446,-0.23519c0.42743,0 0.83209,0.09752 1.19293,0.27151c1.34153,-1.02914 2.6342,-2.12254 3.79147,-3.3923c1.37435,-1.50795 1.95955,-4.35958 3.63443,-4.16291l0.29911,-0.09024l-0.36388,-0.30324l1.65322,-1.98387c0.50435,-0.61399 1.26947,-1.00563 2.12605,-1.00563c1.51878,0 2.75,1.23122 2.75,2.75c0,0.67623 -0.24408,1.29545 -0.64895,1.77437l-1.34857,1.61828c-0.81451,3.59294 -2.52052,6.29638 -3.85417,9.59898c-0.79408,1.96644 -0.94849,4.13512 -1.51529,6.17927c-0.12212,0.87415 -0.56073,1.40804 -1.05095,1.73412c-0.46399,0.3848 -1.12108,0.6552 -2.02575,0.49805l-1.37644,-0.0519c-0.31844,0.06998 -4.02464,0.78724 -4.67117,1.22444c-0.63064,0.42645 -2.09786,3.29834 -2.26934,3.56329c-2.33254,3.60382 -4.6675,6.38028 -7.65,9.40721c-0.26889,0.44259 -0.71084,0.84427 -1.43049,1.06117c-0.48506,0.19716 -1.10179,0.30372 -1.7644,0.06229c-0.67952,-0.18867 -1.11943,-0.63385 -1.39954,-1.07622c-0.55573,-0.71929 -0.6239,-1.42243 -0.50301,-2.00992c-5.09851,-3.85088 -13.77446,-5.84692 -17.51556,1.10482c-1.18037,2.19337 -2.16638,4.9625 -3.16288,7.31073c-0.18984,0.55137 -0.57293,1.19013 -1.34598,1.52284c-0.45948,0.24707 -1.04695,0.37221 -1.7735,0.18688c-0.74081,-0.11586 -1.23149,-0.46229 -1.55649,-0.87038c-0.28446,-0.2996 -0.4535,-0.62998 -0.54684,-0.95751c-1.75104,-1.79119 -3.1516,-3.36434 -2.63801,-5.9607c-0.02159,0.03902 -0.04526,0.07044 -0.07086,0.08965c-0.66879,0.50185 -1.44206,0.85676 -2.21188,1.18312c-1.78981,0.75878 -3.78921,1.35561 -5.14206,2.75166c-3.03055,3.12731 -5.70003,6.49975 -8.32303,9.91312c-0.84291,2.14337 -1.84116,4.18977 -2.98571,6.26245c-0.03956,0.13271 -0.08886,0.26122 -0.14709,0.3847l-1.29408,2.91168c-1.2566,6.93062 -6.73268,11.77923 -10.71619,16.97092c-1.15207,1.50149 -1.96981,3.17194 -2.73393,4.8642c-0.13161,0.29635 -0.2636,0.59241 -0.39683,0.8876c-0.70852,1.59323 -1.41298,3.18303 -2.34634,4.64732c-3.49964,5.49034 -7.55242,10.47397 -12.57417,14.65941l-2.42717,0.63739c0,0 -1.71331,0 -2.43524,-1.35234c-0.7851,-0.08254 -1.71805,-0.49459 -2.17364,-1.86136c-0.86963,-2.60888 1.73925,-3.47851 1.73925,-3.47851c10.75234,-3.39464 13.8414,-15.12723 19.23481,-23.563c2.38621,-3.73224 4.99488,-7.35802 7.43125,-11.0978c-0.0319,-0.29622 -0.0611,-0.59251 -0.0864,-0.8889c-1.72263,1.66183 -3.7586,2.99438 -5.40024,4.73733c-3.67324,3.89994 -7.0086,8.75592 -11.36851,11.98549c-0.79858,0.59154 -1.84989,0.76719 -2.66667,1.33333c-2.08233,1.44336 -3.20241,3.92733 -4.83223,5.86718c-1.90657,2.26923 -4.14981,4.31132 -6.65156,5.90056c0,0 -2.332,1.4575 -3.78949,-0.8745c-1.4575,-2.332 0.8745,-3.78949 0.8745,-3.78949c4.80931,-2.94376 6.73413,-8.31069 11.18288,-11.56559c0.80206,-0.58682 1.86201,-0.75008 2.66667,-1.33333c4.08873,-2.96373 7.20512,-7.72909 10.63149,-11.34785c0.32541,-0.34368 0.6655,-0.67205 1.01511,-0.99051c-0.15579,-0.7964 -0.22801,-1.59539 -0.12737,-2.39976c0.13944,-1.11448 1.70963,-1.46595 2.46547,-2.29673c2.90319,-3.19104 3.60838,-4.3184 5.45128,-8.20158c1.20527,-2.53962 2.92586,-4.80762 4.57039,-7.08751c1.96084,-2.71841 2.34086,-6.05734 3.8025,-8.9961c0.89073,-1.7909 2.16558,-3.38542 2.94963,-5.22552c2.71135,-6.36333 5.36341,-14.25319 9.47204,-20.0074c0.57862,-1.00146 1.13481,-2.05688 1.34369,-3.06951c0.16704,-0.80977 -0.10376,-1.65491 -0.04962,-2.47995c0.03145,-0.47928 0.52926,-0.98369 0.30479,-1.40832c-0.74238,-1.40432 -3.07969,-1.15485 -4.166,-2.31381c-2.56044,-2.73166 -2.40733,-6.18749 -2.78603,-9.61731c-2.24049,-0.13577 -4.39915,-0.39709 -6.70526,-0.57724h-1.10707c-0.73909,0.04081 -1.48159,0.11214 -2.17254,-0.09083c-5.4065,-0.31403 -10.70521,0.05701 -15.06209,-3.89419c-2.16419,-1.96268 -5.75116,-5.37914 -1.91485,-8.93254c1.08301,-1.00314 3.7668,-0.35234 5.96224,0.49315c0.04561,-0.03457 0.09176,-0.06928 0.13846,-0.10413c1.36136,-1.01611 3.39408,-0.16451 5.08747,-0.29947c4.8529,-0.38677 11.13524,-1.03846 15.49927,-3.32438c3.93497,-2.06117 6.04964,-8.20424 10.96247,-8.65513c2.02063,-0.18545 3.4479,0.37823 4.64957,1.29432c0.02581,-0.08644 0.05086,-0.17311 0.07519,-0.26001c-0.06501,-0.99108 -0.09711,-1.98448 -0.09896,-2.97677c0,0 0,-0.89707 0.51236,-1.6665c-0.5053,-2.81276 -0.86532,-6.5474 0.35088,-7.96707c0.0254,-1.92785 0.14348,-3.82375 0.53558,-5.62965zM241.12359,118.5651c1.24297,0.7868 2.56674,1.45398 3.78471,1.76357c0.31456,0.07996 0.63754,0.15385 0.96706,0.22197c-0.00483,-0.00193 -0.00965,-0.00387 -0.01447,-0.00581c-1.03403,-0.41566 -1.86454,-1.26635 -2.91619,-1.63514c-0.58413,-0.20484 -1.20161,-0.27733 -1.82111,-0.34459zM263.8329,119.24957c-2.17575,1.12392 -2.4255,1.6711 -4.63084,2.19824c1.3263,-0.07108 2.54814,-0.33078 3.35874,-0.99914c0.4416,-0.36411 0.86285,-0.76957 1.2721,-1.1991z" fill-opacity="0.23529" fill="#2f152f"></path><path d="M285.95233,86.67842c-2.35811,1.41486 -3.77297,-0.94324 -3.77297,-0.94324l-0.09939,-0.74953c-3.83126,-2.47143 -5.25431,-4.11471 -5.93793,-8.65757c0,0 -0.3411,-2.72876 2.38767,-3.06986c2.72876,-0.3411 3.06986,2.38767 3.06986,2.38767c0.24133,2.91534 0.8555,3.1587 3.3954,4.67577l1.90061,2.5838c0,0 1.41486,2.35811 -0.94324,3.77297z" fill-opacity="0.23529" fill="#2f152f"></path><path d="M244.41112,71.88348c-1.22984,-2.45967 1.22984,-3.68951 1.22984,-3.68951l2.66667,-1.33333c0,0 2.45967,-1.22984 3.68951,1.22984c1.22984,2.45967 -1.22984,3.68951 -1.22984,3.68951l-2.66667,1.33333c0,0 -2.45967,1.22984 -3.68951,-1.22984z" fill-opacity="0.23529" fill="#2f152f"></path><path d="M234.45413,60.98699c0,-1.51878 1.23122,-2.75 2.75,-2.75c1.51878,0 2.75,1.23122 2.75,2.75c0,1.51878 -1.23122,2.75 -2.75,2.75c-1.51878,0 -2.75,-1.23122 -2.75,-2.75z" fill-opacity="0.23529" fill="#2f152f"></path><path d="M265.45413,54.32032c0,-2.75 2.75,-2.75 2.75,-2.75h2.66667c0,0 2.75,0 2.75,2.75c0,2.75 -2.75,2.75 -2.75,2.75h-2.66667c0,0 -2.75,0 -2.75,-2.75z" fill-opacity="0.23529" fill="#2f152f"></path><path d="M195.09429,150.97308c0.0801,0.60929 0.24946,1.24184 0.28439,1.8271c0.11943,2.00081 0.12979,4.03055 0.56962,5.98607c0.22207,0.98734 0.98053,1.85668 1.06012,2.85413l1.33694,1.11411c0.1647,0.13529 0.31768,0.28435 0.45716,0.44541c0.18823,0.0919 0.38085,0.20239 0.57761,0.33357c3.12019,2.08013 1.04006,5.20031 1.04006,5.20031l-2.1098,2.27398c-1.41119,0.57587 -2.71004,1.68337 -4.23357,1.72761c-5.60406,0.16274 -11.06328,-6.52939 -11.52,-11.52235c-0.08959,-0.97943 -0.06577,-1.94609 0.05422,-2.89446c-0.278,-1.67727 -0.15524,-3.51967 0.45118,-5.47598c0.68387,-2.20615 2.50145,-3.88373 3.72445,-5.84308c0,0 0.82604,-1.32167 2.26511,-1.72835c1.68701,-2.42647 5.11505,-4.81238 7.0073,-6.95762l0.95276,0.0011l-0.18904,-0.4411l2.25714,-0.96734c0.4733,-0.21569 0.99932,-0.33586 1.55339,-0.33586c2.07107,0 3.75,1.67893 3.75,3.75c0,1.13293 -0.5024,2.14852 -1.29657,2.83613l-2.65071,2.31937l-0.12072,-0.13797c-0.57477,0.90417 -1.21264,1.76127 -1.94358,2.54441c-0.95304,1.02112 -2.12802,2.0302 -3.27747,3.09082z" fill-opacity="0.09804" fill="#e3a3e3"></path><path d="M228.84442,118.57883c1.44287,0.95746 2.81035,1.94833 3.55801,3.21272c1.03933,1.75764 3.70442,3.71134 2.89198,5.48911c0.4365,0.89 1.21777,3.18292 -1.24761,4.82651c-3.12019,2.08013 -5.20031,-1.04006 -5.20031,-1.04006l-0.35067,-0.52902c-0.42219,0.05129 -0.83666,0.09362 -1.23505,0.13185c-1.45026,0.13919 -2.54951,-1.41101 -3.833,-2.10044c-3.41827,-1.83613 -10.65545,-4.49322 -11.98711,-8.97259c-1.30515,-4.39021 -0.26938,-11.91031 0.15411,-16.52094l0.14323,-0.21388l-0.09869,-0.02193l0.65064,-2.9279c0.34412,-1.71597 1.85946,-3.00861 3.67672,-3.00861c1.65163,0 3.05388,1.06775 3.5541,2.55063l0.77307,2.12594c3.42283,0.21151 3.42283,3.7401 3.42283,3.7401c0,0.70107 -0.05882,1.51433 -0.12616,2.36966c1.66369,3.45836 2.98231,7.17932 4.92661,10.37018c0.10646,0.17471 0.21566,0.34753 0.3273,0.51868z" fill-opacity="0.09804" fill="#e3a3e3"></path><path d="M231.30001,89.73699c-3.75,0 -3.75,-3.75 -3.75,-3.75v-1.66667c0.00484,-1.93658 0.12686,-3.87624 0.36229,-5.79846c0,0 0.46513,-3.72104 4.18617,-3.25591c3.72104,0.46513 3.25591,4.18617 3.25591,4.18617c-0.20643,1.61275 -0.30922,3.24231 -0.30438,4.8682v1.66667c0,0 0,3.75 -3.75,3.75z" fill-opacity="0.09804" fill="#e3a3e3"></path><path d="M320.29843,165.70801c-1.29646,2.4068 -3.22639,3.98947 -5.47502,5.03022c-1.06833,2.40458 -2.72362,4.46246 -5.366,5.68971c-0.31159,0.14472 -7.2227,1.56207 -7.78788,1.62412c-1.74507,0.19159 -7.69099,-0.11196 -8.46009,-0.87043c-1.24455,-1.22734 -1.81114,-3.52203 -2.10604,-5.97382c-1.48855,-1.16821 -2.76264,-2.66019 -2.52838,-4.31983c0.16179,-1.14625 0.9379,-1.99896 1.9475,-2.70002l-0.28619,-3.14808c-0.01299,-0.12698 -0.01965,-0.25583 -0.01965,-0.38624c0,-2.07107 1.67893,-3.75 3.75,-3.75c1.93054,0 3.52035,1.45882 3.72721,3.33423l0.16108,1.28864c0.40151,-0.02935 0.79847,-0.07645 1.18136,-0.1723c4.06697,-1.01801 8.36754,-2.44976 12.31548,-3.89146l1.9482,-0.22577c0,0 0.03835,0 0.10729,0.00388l0.60068,-1.05119c0.63662,-1.16358 1.87217,-1.95268 3.29203,-1.95268c1.95923,0 3.56753,1.5025 3.73552,3.41812l0.32921,3.29208l-0.09141,0.00914c0.29405,1.34254 0.09394,2.76747 -0.9749,4.75169z" fill-opacity="0.09804" fill="#e3a3e3"></path><path d="M182.63334,261.07032c-3.75,0 -3.75,-3.75 -3.75,-3.75v-0.33333c0,-5.8392 0.48965,-11.4624 1.37694,-17.23688c0,0 0.57021,-3.70639 4.27661,-3.13618c3.70639,0.57021 3.13618,4.27661 3.13618,4.27661c-0.8318,5.39979 -1.28973,10.63743 -1.28973,16.09645v0.33333c0,0 0,3.75 -3.75,3.75z" fill-opacity="0.09804" fill="#e3a3e3"></path><path d="M273.71667,290.98699c0,3.75 -3.75,3.75 -3.75,3.75h-2.66667c-1.00743,-0.11594 -2.10439,0.00706 -3.15099,-0.00436c-0.06042,0.00289 -0.12121,0.00436 -0.18235,0.00436c-0.18622,0 -0.36926,-0.01357 -0.5482,-0.03978c-0.6943,-0.06541 -1.3496,-0.23491 -1.92111,-0.62799c-2.48372,-1.70829 -2.88084,-3.71168 -2.44091,-5.74889h-0.17311v-0.62363c-1.47825,-3.83351 -1.80542,-8.46966 -1.99275,-12.47669c-0.04213,-0.90114 0.28516,-1.82334 0.09307,-2.70478c-0.16587,-0.76114 -0.82033,-1.33104 -1.12849,-2.0465c-1.10665,-2.56935 -1.72657,-5.9444 -3.53531,-8.20551c-2.21745,-2.77204 -5.80869,-4.17188 -3.70729,-9.28661c0.73577,-1.79083 3.32737,-1.98878 5.06426,-2.84414c3.12856,-1.54071 6.41229,-1.80723 9.63979,-2.99004c1.10093,-0.40347 2.16895,-1.42966 3.31429,-1.17859c0.22608,0.04956 0.44897,0.10829 0.66909,0.17497v-0.23515h2.66667c2.07107,0 3.75,1.67893 3.75,3.75c0,0.06601 -0.00171,0.13162 -0.00507,0.19678c0.1392,-0.0341 0.27695,-0.07694 0.41303,-0.12985c1.02024,-0.39667 0.63158,-2.10008 0.83957,-3.17478c0.36538,-1.88799 0.71145,-3.78222 0.94811,-5.69062c0,0 0.46513,-3.72104 4.18617,-3.25591c3.72104,0.46513 3.25591,4.18617 3.25591,4.18617c-0.599,4.75774 -0.8692,11.63674 -5.54566,14.46793c-3.35608,2.03182 -9.67669,0.67374 -13.60973,1.05345l-2.63009,0.8767c-0.3963,0.14248 -0.82353,0.22012 -1.2689,0.22012c-0.68468,0 -1.3265,-0.18349 -1.87897,-0.50398c1.09536,1.51884 2.38752,4.43648 3.02324,6.01752c0.92493,2.30032 2.29442,4.45607 2.83874,6.87488c0.86178,3.82947 0.2817,7.99634 0.97161,11.84658c0.40975,0.40058 0.72805,0.8943 0.92068,1.44692l0.96926,2.58469l-0.21637,0.08114l0.35232,0.36346c-0.01802,0.05141 -0.03604,0.10283 -0.05406,0.15424c0.02451,-0.01072 0.04902,-0.02143 0.07354,-0.03213h2.66667c0,0 3.75,0 3.75,3.75z" fill-opacity="0.23529" fill="#2f152f"></path></g></g></svg>