<svg version="1.1" xmlns="http://www.w3.org/2000/svg" xmlns:xlink="http://www.w3.org/1999/xlink" width="202.88073" height="331.98138" viewBox="0,0,202.88073,331.98138"><g transform="translate(-138.22874,-12.8997)"><g stroke-miterlimit="10"><g><g fill="#130c1f" stroke-opacity="0.28235" stroke="#b59fd8" stroke-width="4.5"><path d="M314.9381,163.96066l0.3949,0.14809c1.77575,-0.13119 2.11475,-0.16271 3.4247,-1.61648l1.12868,-1.38782c0.18693,-0.24102 0.44331,-0.41939 0.73109,-0.51956l0.44102,-1.05227c0.32276,-0.77012 1.2444,-1.14692 2.05854,-0.84161c0.47061,0.17649 0.80228,0.54225 0.93606,0.96825l0.49146,1.51731l-0.09919,0.02875c0.06767,0.15219 0.12444,0.30872 0.16748,0.47075c0.52998,1.99515 -2.88766,3.80103 -1.60485,5.5798c0.47153,0.17683 0.94304,0.35365 1.41457,0.53047l0.67228,0.83383c0.04015,0.02123 0.08035,0.04232 0.12059,0.06327c0.00851,-0.03283 0.01707,-0.0653 0.02567,-0.0974c0.46586,-1.73903 1.82568,-3.36447 1.95417,-5.19524c0.10897,-1.55262 -0.69706,-2.16066 0.35295,-3.73046c0.02044,-0.03057 0.0412,-0.06091 0.06225,-0.09104l-0.02454,-0.0092l0.77922,-1.85923c0.32276,-0.77012 1.2444,-1.14691 2.05854,-0.8416c0.75079,0.28155 1.14797,1.04486 0.95211,1.76591l-0.35476,1.39825c1.09118,3.30345 -0.54036,6.98599 -2.13388,10.32686c0.67918,0.29601 1.35425,0.60115 2.01694,0.94127c0.28769,-0.51298 0.5455,-1.04288 0.77344,-1.58184l0.00214,-0.0363l0.01288,0.00068c0.01145,-0.02725 0.02283,-0.05453 0.03413,-0.08183c-0.00484,-0.05246 -0.00899,-0.10501 -0.01242,-0.15767c-0.07285,-1.1179 0.7364,-2.1486 0.84299,-3.26407l0.39604,-1.10155c0,0 0.01417,-0.03382 0.04367,-0.08883c0.12914,-0.27774 0.3689,-0.61209 0.80368,-0.77092c0.10393,-0.04465 0.21829,-0.07859 0.34355,-0.09673c-0.03926,-0.27982 -0.03358,-0.54707 0.11779,-0.78016c0.07867,-0.12113 0.16566,-0.23557 0.2595,-0.3445l-0.08406,-0.04793l0.81664,-1.28117c0.38724,-0.63254 1.21596,-0.91848 1.95587,-0.64101c0.68504,0.25689 1.0757,0.91488 0.99008,1.57588l-0.18696,1.7781l-0.08769,-0.00825l0.05067,0.21384c-0.19727,0.48105 -0.38834,0.96739 -0.57774,1.45583c-0.10383,0.62136 -0.35405,1.3117 -0.65251,1.99259c0.92023,1.14795 0.49959,3.15796 0.26725,4.28499c-0.67526,3.27552 -3.55809,4.73319 -5.69768,7.10622l-0.20605,0.06822l0.04096,0.05598l-1.54694,1.01264c-0.0981,0.06624 -0.20371,0.12159 -0.31454,0.16513c-0.05074,0.06159 -0.10182,0.12269 -0.15325,0.18328c-0.25627,0.41331 -0.6092,0.58939 -0.94264,0.65111c-0.38718,0.11367 -0.88046,0.09644 -1.41074,-0.32396c-4.03844,0.51623 -8.08433,0.36344 -12.07261,-0.18606c-0.55525,-0.0765 -4.47963,-1.71635 -4.49465,-1.73333c-0.11472,-0.12966 -0.24194,-0.27638 -0.37244,-0.43458c-0.81166,0.10091 -1.63155,0.14744 -2.44677,0.1225c-0.49512,0.05847 -0.85531,-0.09904 -1.10947,-0.30964c-0.27357,-0.18078 -0.51872,-0.46895 -0.58105,-0.92762l-0.44033,-1.35945c-0.208,-0.64218 -0.416,-1.28436 -0.62401,-1.92654c-0.14828,-0.2514 -0.22037,-0.55235 -0.27942,-0.86268c-0.1946,-0.60082 -0.38921,-1.20163 -0.5838,-1.80244c0,0 -0.00255,-0.00785 -0.00664,-0.02257c-0.00485,-0.01451 -0.00713,-0.02244 -0.00713,-0.02244l-0.0032,-0.01732c-0.01054,-0.04335 -0.024,-0.10742 -0.03431,-0.18619l-0.00041,-0.00226c-0.56912,-1.57214 -1.12284,-3.59374 -0.99588,-5.40355c-0.95476,-0.15881 -2.17036,-0.75454 -3.71233,-1.93687c-1.30664,-1.00188 -1.69908,-2.97734 -1.73892,-4.62339c-0.02276,-0.94008 1.26623,-1.4538 1.57027,-2.34365c0.16674,-0.48799 0.02196,-1.31505 -0.26076,-2.24132c-0.51289,-1.08788 -0.99058,-2.21375 -1.25414,-3.21413c-0.31838,-0.71983 -0.59188,-1.31031 -0.71076,-1.61981l0.02042,-0.16245l-0.06197,0.01549l-0.7364,-2.94561c-0.05753,-0.21047 -0.08824,-0.43201 -0.08824,-0.66073c0,-0.54653 0.17537,-1.05209 0.47291,-1.4635c-2.02547,-3.99482 -4.65145,-8.00365 -5.87984,-12.36072c-0.42979,-1.52444 -0.71823,-3.142 -1.01587,-4.77291c-0.61099,-1.71531 -0.93136,-3.52747 -1.21927,-5.33445c-0.41251,-1.28775 -0.94383,-2.52489 -1.6781,-3.66686c-0.65261,-1.01496 -1.52491,-1.86007 -2.38326,-2.71807c-1.07961,2.08901 -2.18079,4.21435 -3.41439,6.23604c0.07558,0.16103 0.11781,0.34082 0.11781,0.53047c0,0.09286 -0.01013,0.18336 -0.02934,0.27046l-0.24494,1.22469l-0.05832,-0.01166c-0.0054,0.09822 -0.01653,0.19639 -0.03439,0.29449c-0.12183,0.6693 -0.66615,1.2832 -1.37374,1.85571c-0.50761,0.8661 -1.04362,1.6619 -1.71461,2.55273c-2.0565,3.59887 -5.23203,6.0775 -7.55129,9.32233c-2.73906,3.83216 -5.8255,6.36597 -10.65477,6.73811c-1.72654,0.13305 -3.33902,0.80075 -4.83353,0.87957c-1.03695,0.49063 -2.12839,0.85063 -3.25508,1.09765v1.02593h-0.10674l0.09144,0.28971c-0.14259,0.66542 -0.2305,1.24941 -0.29527,1.77033c0.20074,0.48175 0.26127,1.02296 0.25641,1.59239c1.75748,-0.03997 3.561,0.03609 5.03252,0.69272c5.66544,2.52805 11.69946,4.35728 18.04329,2.25c3.12848,-1.56613 7.77054,-3.38786 9.87652,-6.50629c0.20443,-0.41811 0.42276,-0.82824 0.66056,-1.22635c0.09351,-0.22895 0.1737,-0.46415 0.23937,-0.70591l0.62396,-0.5594c0.03875,-0.04945 0.07797,-0.09859 0.11767,-0.14743c0,0 0.54419,-0.65303 1.27356,-0.43328c0.23234,0.0482 0.47368,0.17617 0.67219,0.453c0.22401,0.25663 0.2933,0.52087 0.287,0.75807c0.02375,0.38548 -0.15997,0.67324 -0.3469,0.86328c-0.22979,0.27094 -0.43943,0.55771 -0.63291,0.85676c-0.20999,0.46883 -0.45756,0.91383 -0.7374,1.33725c-0.73209,1.53729 -1.23172,3.23528 -1.91413,4.72535c-0.95255,2.07992 -2.63619,4.46552 -3.83868,6.41421c-0.53256,0.86304 -1.143,1.66226 -1.8016,2.42221c-0.03841,0.30106 -0.16554,0.52354 -0.16554,0.52354c-2.43908,4.26078 -5.30446,9.71545 -8.76756,13.76976c0.85496,3.73169 0.93367,7.8623 0.90603,11.94499c0.15722,0.7824 0.31653,1.57436 0.4738,2.38069c1.19749,6.13944 0.3767,12.56997 1.50806,18.79244l0.04407,2.72427c0.00029,0.01158 0.00029,0.01766 0.00029,0.01766c0,2.11455 0.09983,4.20732 0.22664,6.29544c0.37189,2.2794 0.85611,4.85179 0.91943,7.28274l1.61403,1.3374c0.20712,0.09393 0.42078,0.22008 0.6399,0.38442c0.97448,0.73086 1.19359,1.56962 1.13531,2.27731c0.01545,0.57914 -0.15831,1.23515 -0.77326,1.82405c-1.95547,2.6303 -3.45212,5.12309 -4.8536,8.10014l-0.44423,2.44326c-0.21258,1.30729 -1.34686,2.30524 -2.71422,2.30524c-0.05453,0 -0.10869,-0.00159 -0.16243,-0.00472c-0.61805,1.41615 -1.21799,2.84135 -1.78709,4.28308c-3.30594,8.3752 -4.28563,17.46636 -8.13933,25.665l-0.16451,2.44382c0.012,1.58005 1.31017,3.13529 1.90821,4.60946c0.47956,1.18211 0.59644,2.23964 0.60994,3.38702c0.06041,0.14315 0.11659,0.2887 0.16801,0.43698c1.10103,3.17567 1.35848,6.42972 2.0448,9.59498c0.03296,0.12971 0.06532,0.25907 0.09707,0.38803c0.01927,0.07828 0.03391,0.15731 0.04467,0.23696c0.03147,0.13258 0.06385,0.26498 0.09723,0.39719c0.32894,1.30289 0.68153,2.46282 0.94939,3.57366c0.69357,1.37559 0.84842,2.71856 1.1079,4.0313c0.17299,0.52745 0.31419,1.05135 0.4046,1.56614c0.20871,0.60162 0.49649,1.19686 0.92877,1.78596l-0.01026,0.21448l0.08889,-0.02963l0.49077,1.47232c0.04749,0.1321 0.07337,0.27451 0.07337,0.42297c0,0.69036 -0.55964,1.25 -1.25,1.25c-0.51967,0 -0.96528,-0.31712 -1.15385,-0.7684l-0.97827,-2.20111c-0.0548,-0.09947 -0.10605,-0.19904 -0.15408,-0.2987c-0.06947,0.01197 -0.1409,0.01821 -0.21379,0.01821c-0.61444,0 -1.12533,-0.44333 -1.23027,-1.02756l-0.24546,-1.22729c-0.15302,-0.78278 -0.24742,-1.58101 -0.26776,-2.37891c-0.41022,-1.03591 -0.76421,-2.09402 -1.05886,-3.15724c-0.24485,-0.46959 -0.48422,-0.98495 -0.66079,-1.65767c-0.41867,-1.5951 -0.6226,-3.81813 -1.41455,-5.26204c-0.55115,-1.00487 -1.61452,-1.65834 -2.19457,-2.6468c-0.19771,-0.33691 -0.38933,-0.67576 -0.57583,-1.01621c-0.03108,0.16026 -0.06846,0.29812 -0.11329,0.40745c-0.00101,0.0081 -0.00201,0.01621 -0.00301,0.02431l-0.24437,2.68802c-0.039,0.49033 -0.20661,0.94443 -0.4691,1.32857c-0.40449,3.45833 -0.52215,6.93252 -0.52215,10.42539c0,4.68552 -0.27071,9.61111 -1.55363,14.11223c-0.24687,0.86614 -0.48434,1.7166 -0.69942,2.56479c0.02335,5.70226 0.09895,11.5848 -0.99245,17.16721c-0.00291,0.35181 -0.00449,0.70373 -0.00449,1.05576v0.75c0,0 0,1.25 -1.25,1.25c-0.28106,0 -0.49892,-0.0632 -0.6678,-0.16117c-0.61101,-0.08198 -1.0822,-0.60538 -1.0822,-1.23883v-2.25h0.3211c-0.62819,-4.26967 -0.24678,-8.59439 0.45304,-12.93142c0.10625,-3.00451 0.53543,-5.79478 0.729,-8.75719c0.47202,-7.22405 0.54439,-14.42225 1.0048,-21.64053c-0.46966,-0.49334 -0.75795,-1.16093 -0.75795,-1.89585c0,-0.09563 0.00488,-0.19013 0.01441,-0.28324l0.24688,-2.71573l0.01289,0.00117c-0.00394,-0.00445 -0.00786,-0.00895 -0.01174,-0.01351c-0.51619,-0.60589 0.20519,-1.58053 0.24097,-2.37568c0.113,-2.51152 0.29026,-5.00203 0.55881,-7.488c-0.1536,-0.30041 -0.31022,-0.5997 -0.47052,-0.89767c-0.36759,-0.37992 -0.55138,-0.7475 -0.55138,-0.7475l-0.59364,-1.20851c-0.72167,-1.82582 -1.68771,-3.55416 -2.72012,-5.22406c-2.43109,-3.23344 -5.01156,-6.0093 -7.75599,-8.94147c-1.56648,-1.67364 -2.5855,-4.3284 -4.31237,-5.81366c-2.58327,-2.22182 -5.97927,-3.64438 -8.52027,-6.01846c-0.69197,-0.64652 -1.12878,-1.54963 -1.87066,-2.13821c-2.56751,-2.03697 -5.29137,-1.72467 -8.02803,-3.19149c-2.70812,-1.45152 -3.74491,-3.69903 -6.4691,-4.98431c0,0 -0.83734,-0.41867 -1.29063,-1.25601l-1.347,-0.97964l0.04333,-0.05957c-0.11607,-0.06158 -0.2308,-0.12613 -0.34407,-0.19393c-1.25464,-0.751 -1.76183,-2.33548 -2.69524,-3.46103c-3.33023,-4.01575 -7.15864,-9.69912 -4.65945,-15.35377c0.50979,-1.15345 1.60198,-1.94807 2.40296,-2.92211l0.27816,-0.10599l-0.05822,-0.07762l1.97778,-1.48333c0.46336,-0.35542 1.04312,-0.56667 1.67222,-0.56667c0.16822,0 0.33291,0.0151 0.4928,0.04403c0.00419,-0.0608 0.00774,-0.12115 0.01062,-0.18102c0.58252,-12.13297 3.03238,-25.14104 8.25667,-36.03042c1.38108,-2.87868 2.1607,-5.64611 3.95177,-8.35802l-0.46186,0.52543c0,0 0,-0.77186 0.40893,-1.49774c-0.48277,-1.19689 -1.0193,-2.22534 -1.56612,-3.26205c-0.46741,-0.05865 -0.85454,-0.37538 -1.01422,-0.80301l-0.39689,-0.99223c-2.32261,-1.81525 -2.755,-4.27796 -4.4356,-6.45021c-2.12258,-2.74354 -4.17515,-3.53469 -4.73354,-7.31799c0,0 -0.03554,-0.24881 0.03681,-0.53923c-0.04758,-0.57498 0.04403,-1.08247 0.40125,-1.34854c0.74028,-0.55136 1.87442,0.09013 2.73748,0.41744c0.44077,0.16716 0.61407,0.7293 1,1c1.7625,1.23625 5.13849,1.54057 7.18506,1.54963c1.01403,0.20281 2.14,0.14581 3.1929,0.29804c0.9144,-0.6004 1.62672,0.29001 1.62672,0.29001l0.00001,-0.00001c0.09315,0.11666 0.18541,0.23138 0.2769,0.34413c0.84422,0.44325 1.72741,1.0706 2.58658,1.73328c0.79516,0.19521 1.60444,0.53205 2.41297,0.91137c0.83132,0.32328 1.63858,0.68712 2.40898,1.10323c3.77991,0.26809 7.90025,-1.32368 11.75514,-2.1942c0,-2.07883 0,-4.14888 0,-6.1106c-2.28581,-0.44378 -4.51188,-1.13627 -6.53771,-1.94854c-10.75338,-3.06262 -21.00255,-6.21025 -28.61233,-14.90915c-0.22032,-0.1642 -0.34021,-0.3914 -0.40545,-0.59005c-0.0632,-0.15319 -0.11202,-0.34234 -0.09947,-0.54767c-0.91887,-1.2317 -1.81356,-2.43198 -2.66515,-3.63776c-0.09233,0.11758 -0.18229,0.23598 -0.26972,0.35522c-2.08871,5.75812 -2.92384,11.72291 -4.93273,17.51916c-2.34227,6.75816 -5.5722,13.07345 -8.01133,19.78182l-0.16421,0.20511c-0.2552,3.156 -1.35358,6.7908 -4.8947,7.56224c-0.50323,0.10963 -1.03813,0.1898 -1.57794,0.22091c-0.2837,0.14713 -0.5615,0.30173 -0.81766,0.48201c-1.90393,1.3399 -3.90525,3.28093 -6.04361,4.84264c-0.07469,0.11465 -0.15062,0.22689 -0.22622,0.33539c-0.06723,1.02182 -0.10229,2.0617 0.08678,2.88405c0.00314,0.01366 0.00635,0.02729 0.00963,0.04088c-0.38874,-0.20254 -0.76961,-0.413 -1.12959,-0.64666c-0.15583,0.56603 -0.33424,1.10803 -0.51418,1.6051l-0.00042,0.00226c-0.01031,0.07877 -0.02377,0.14285 -0.03432,0.1862l-0.00319,0.01732c0,0 -0.00228,0.00792 -0.00713,0.02244c-0.0041,0.01472 -0.00664,0.02257 -0.00664,0.02257c-0.1946,0.60081 -0.3892,1.20163 -0.58381,1.80244c-0.05905,0.31033 -0.13114,0.61129 -0.27942,0.86268c-0.208,0.64218 -0.416,1.28436 -0.624,1.92654l-0.44032,1.35945c-0.06233,0.45867 -0.30748,0.74684 -0.58105,0.92762c-0.25416,0.2106 -0.61435,0.36811 -1.10947,0.30964c-0.81522,0.02494 -1.63511,-0.0216 -2.44677,-0.1225c-0.13051,0.1582 -0.25772,0.30491 -0.37244,0.43458c-0.01502,0.01698 -3.93939,1.65682 -4.49465,1.73332c-3.98827,0.5495 -8.03417,0.7023 -12.07261,0.18606c-0.53028,0.4204 -1.02356,0.43763 -1.41074,0.32396c-0.33344,-0.06172 -0.68637,-0.2378 -0.94264,-0.65111c-0.05143,-0.06059 -0.10251,-0.12169 -0.15325,-0.18328c-0.11083,-0.04354 -0.21644,-0.09889 -0.31454,-0.16513l-1.54694,-1.01264l0.04096,-0.05599l-0.20605,-0.06823c-2.13959,-2.37303 -5.02241,-3.8307 -5.69768,-7.10622c-0.23234,-1.12703 -0.65298,-3.13704 0.26725,-4.28499c-0.29846,-0.68089 -0.54868,-1.37122 -0.65251,-1.99258c-0.1894,-0.48844 -0.38048,-0.97478 -0.57775,-1.45583l0.05067,-0.21385l-0.0877,0.00825l-0.18697,-1.77809c-0.08562,-0.661 0.30504,-1.31898 0.99008,-1.57588c0.73992,-0.27747 1.56863,0.00846 1.95587,0.641l0.81664,1.28117l-0.08405,0.04794c0.09384,0.10893 0.18083,0.22337 0.2595,0.3445c0.15137,0.23309 0.15705,0.50035 0.11779,0.78017c0.12525,0.01813 0.23961,0.05208 0.34354,0.09672c0.43478,0.15883 0.67455,0.49318 0.80368,0.77092c0.0295,0.05501 0.04367,0.08883 0.04367,0.08883l0.39604,1.10155c0.10659,1.11547 0.91584,2.14617 0.843,3.26406c-0.00343,0.05266 -0.00758,0.10522 -0.01242,0.15767c0.0113,0.0273 0.02267,0.05457 0.03412,0.08183l0.01288,-0.00068l0.00214,0.0363c0.22794,0.53896 0.48574,1.06887 0.77343,1.58184c0.66268,-0.34013 1.33775,-0.64527 2.01694,-0.94128c-1.59352,-3.34087 -3.22506,-7.02341 -2.13388,-10.32686l-0.35476,-1.39825c-0.19586,-0.72105 0.20132,-1.48436 0.95211,-1.76592c0.81414,-0.30531 1.73578,0.07149 2.05854,0.84161l0.77922,1.85922l-0.02453,0.0092c0.02105,0.03013 0.04181,0.06047 0.06225,0.09104c1.05002,1.5698 0.24399,2.17784 0.35295,3.73045c0.12849,1.83076 1.48831,3.45621 1.95417,5.19524c0.0086,0.03211 0.01715,0.06458 0.02567,0.09741c0.04024,-0.02095 0.08044,-0.04204 0.12059,-0.06327l0.67231,-0.8338c0.47152,-0.17682 0.94305,-0.35365 1.41457,-0.53047c1.28281,-1.77877 -2.13483,-3.58464 -1.60485,-5.57979c0.04304,-0.16203 0.09981,-0.31857 0.16748,-0.47075l-0.09918,-0.02875l0.49145,-1.51731c0.13377,-0.426 0.46545,-0.79177 0.93606,-0.96825c0.81414,-0.30531 1.73578,0.07149 2.05854,0.84161l0.44102,1.05227c0.28778,0.10018 0.54416,0.27855 0.73109,0.51956l1.12868,1.38782c1.30995,1.45378 1.64895,1.48529 3.4247,1.61648l0.39489,-0.14809c1.6999,-0.63747 3.89221,-1.69289 6.02922,-2.05268c0.10661,-0.15105 0.21537,-0.3003 0.32709,-0.44706c2.25858,-2.96686 4.99901,-3.32087 7.58155,-5.62444c0.98426,-0.87794 1.66732,-2.04928 2.38509,-3.18217c-0.02041,-0.05339 -0.03715,-0.10706 -0.05001,-0.16098c-0.41371,-1.73527 1.04844,-5.35095 3.20467,-7.10456c0.33,-0.67425 0.80819,-1.33262 1.04212,-2.02741c1.08506,-3.22268 2.0345,-6.34275 3.33389,-9.46236c2.75986,-6.62596 5.50114,-13.32644 7.2808,-20.26851c0,-0.24145 0,-0.46675 0,-0.67243c-0.46284,-0.45373 -0.75,-1.08601 -0.75,-1.78536c0,-0.18573 0.02025,-0.36673 0.05867,-0.54091l0.48564,-2.42818c-0.02023,-0.18872 0.07145,-0.72404 0.20569,-1.38225c0,-0.71622 0,-1.43244 0,-2.14866c0,-2.16667 -0.50896,-4.39396 0,-6.5v-3c0,-0.44508 0.11631,-0.86299 0.32018,-1.225c-0.118,-0.20745 -0.236,-0.4149 -0.35401,-0.62235c-1.46875,-1.8531 -2.40772,-4.0801 -3.60428,-6.14551c-4.50336,-2.83577 -8.04999,-5.88632 -10.76511,-10.31314c-0.12612,-0.10918 -0.25331,-0.21711 -0.38204,-0.32394c-1.47599,-0.45543 -2.37122,-1.17027 -2.9646,-2.16772c-0.09898,-0.12059 -0.19273,-0.27356 -0.24187,-0.45587c-0.46489,-0.98301 -0.71378,-2.20269 -0.9566,-3.67654l-0.45175,-1.12937c-0.06433,-0.15061 -0.09993,-0.31643 -0.09993,-0.49056c0,-0.69036 0.55964,-1.25 1.25,-1.25c0.07076,0 0.14014,0.00588 0.20769,0.01718c0.81342,-0.23898 1.33237,0.53945 1.33237,0.53945c1.16285,1.85579 3.18022,2.21575 4.65115,3.8708c0.95005,1.06897 1.29608,2.67444 2.23704,3.7354c1.67033,1.88336 3.65981,3.28903 5.61424,4.8705c0.83761,0.67777 1.49883,2.16552 2.51346,2.59711c1.31622,0.55988 2.90017,0.70653 4.26489,1.16144c3.13196,0.6334 6.99402,1.34314 10.80802,1.52357c4.42253,-3.00574 9.3327,-5.94947 14.48082,-7.22818c-0.19347,-0.42499 -0.35659,-0.78546 -0.47947,-1.03181c-0.50005,-1.00245 -0.91164,-2.04533 -1.23125,-3.11434c-0.26108,-0.44665 -0.4826,-0.90958 -0.6155,-1.40393c-0.21286,-0.79176 -0.20239,-1.78182 -0.14948,-2.76009c-0.10265,-1.41586 -0.049,-2.84468 0.16821,-4.25694c0.20137,-3.69696 0.99184,-6.82632 2.47877,-9.8621c-0.2752,-0.29271 -0.41861,-0.54368 -0.41861,-0.54368l-0.90047,-1.58896c-0.36609,-0.55962 -1.03757,-1.02683 -1.23834,-1.63647c-0.34816,-0.2476 -0.64445,-0.47085 -0.87473,-0.65203l-0.0765,-0.25644l-0.09188,0.0804l-1.74123,-1.98997c-0.29976,-0.33899 -0.51717,-0.7525 -0.62091,-1.2092c-0.90472,-0.57811 -1.7562,-1.09711 -1.9232,-1.21866c-1.31125,-0.95436 -3.42375,-1.43899 -3.82151,-3.01123c-0.31559,-1.24743 0.76829,-2.36529 1.53335,-3.51267l0.33977,-2.14048c1.0422,-2.58658 1.24833,-5.35977 2.2185,-7.91744c0.58026,-1.52973 1.31816,-3.02255 2.10338,-4.50164c-0.1184,-0.26032 -0.20168,-0.4846 -0.25533,-0.67939c0.39438,0.15284 0.81078,0.26151 1.24312,0.31994c-0.02606,-0.68868 -0.00636,-1.36416 -0.00636,-1.70015c0,-2.76452 -0.32055,-5.3742 0.25,-7.83422v-0.86578l-0.22573,-0.04515l0.24546,-1.22729c0.10493,-0.58424 0.61583,-1.02756 1.23027,-1.02756c0.69036,0 1.25,0.55964 1.25,1.25v2c0,1.4698 -0.03799,2.93005 -0.08436,4.38832c0.23504,-0.59857 0.53195,-1.17621 0.97182,-1.7082c0.03065,-0.03707 0.06194,-0.07347 0.09382,-0.10926l-0.02135,-0.01423l0.98925,-1.48387c0.14807,-0.22928 0.36914,-0.40699 0.63033,-0.50027c0.07779,-0.21864 0.14991,-0.43738 0.21584,-0.65615c0.60797,-2.01738 0.73981,-3.40613 1.91733,-5.36382l0.72493,-0.96912c0.13066,-0.2329 0.35288,-0.4749 0.72614,-0.55751c0.22722,-0.07504 0.5023,-0.08744 0.80839,0.05536c0.31939,0.10988 0.50866,0.30986 0.62001,0.52167c0.2118,0.31967 0.20287,0.64915 0.13452,0.90781c-0.37707,2.82887 -1.55053,4.91458 -2.26011,7.52646c-0.12895,0.47466 -0.18641,0.99476 -0.22152,1.5312c0.66956,-0.66357 1.42305,-1.2361 2.35021,-1.63982l0.89465,-0.67099c0.21062,-0.16156 0.47415,-0.25758 0.7601,-0.25758c0.69036,0 1.25,0.55964 1.25,1.25c0,0.34518 -0.13991,0.65768 -0.36612,0.88388l-1,1l-0.23052,-0.23052c-0.02603,0.03934 -0.0522,0.0785 -0.07852,0.11748l0.03756,0.06887c-0.03833,0.014 -0.07636,0.02847 -0.11409,0.0434c-1.28224,1.86357 -2.88494,3.32559 -4.41115,5.29514l-0.71382,0.44173c-0.57546,1.02157 -1.261,1.97732 -2.00917,2.96028l-0.44278,1.10694c-0.17726,0.47474 -0.63486,0.8128 -1.17141,0.8128c-0.0214,0 -0.04268,-0.00054 -0.06382,-0.0016c-0.2144,0.47688 -0.41612,0.95673 -0.60138,1.44036c-0.98759,2.57817 -1.23586,5.45177 -2.2815,8.08256l-0.03001,0.53135c0.00044,0.00331 0.00087,0.00661 0.0013,0.00991c0.06106,0.032 0.12077,0.06622 0.17902,0.10256l2.46124,1.47675l-0.23823,0.39705c2.72282,0.88558 5.18995,2.21783 7.60045,4.42402c0.46181,0.42267 1.07139,0.81143 1.6745,1.20938c0.54004,-0.33288 1.09907,-0.66281 1.66906,-1.00236c1.04102,-0.62015 1.19031,-1.23613 2.29922,-1.77722c1.06664,-0.52046 2.31875,-0.55419 3.50246,-0.64036c4.47935,-0.3261 9.35034,-0.71265 13.80302,0.01807c1.60823,0.32767 2.86397,0.87778 4.33367,1.61148l0.6455,0.42186c2.71544,0.41889 4.15013,1.11074 5.37425,2.58034l0.61943,-0.46167c2.44355,-2.41781 5.00527,-3.63486 7.94688,-5.31555c0.20917,-0.11951 0.409,-0.25833 0.60492,-0.40482v-0.55503c-0.73758,-5.10348 -1.32358,-10.08736 -2.2019,-15.13504c-0.32454,-1.86512 -1.42548,-3.62764 -2.05946,-5.36538c-0.02596,-0.01523 -0.05211,-0.0301 -0.07846,-0.04459c-1.42861,-0.78558 -2.48324,-1.06352 -3.59037,-2.51452l-1.20369,-1.20369c-0.22621,-0.22621 -0.36612,-0.53871 -0.36612,-0.88388c0,-0.69036 0.55964,-1.25 1.25,-1.25c0.28595,0 0.54948,0.09602 0.7601,0.25758l0.9899,0.74242l-0.09953,0.1327l0.18546,0.18546c0.94268,0.45547 1.73895,1.05051 2.89115,1.91465c-0.08602,-0.78111 -0.15158,-1.59042 -0.29788,-2.3375c-0.60015,-1.26495 -1.21987,-2.51187 -1.60873,-3.73154c-0.2192,-0.68754 -0.41586,-1.53015 -0.07046,-2.16376v-0.47945c-0.32081,-1.18854 -0.58141,-2.39089 -0.74035,-3.61551c0,0 -0.15504,-1.24035 1.0853,-1.39539c1.24035,-0.15504 1.39539,1.0853 1.39539,1.0853c0.09122,0.76399 0.22506,1.51937 0.39064,2.26827c0.22791,0.22643 0.36901,0.54012 0.36901,0.88677v0.59851c0.54664,1.99638 1.27106,3.95612 1.96076,5.92106c0.17102,-0.57165 0.29747,-1.09861 0.28924,-1.51958v-1.5c0,-0.69036 0.55964,-1.25 1.25,-1.25c0.52567,0 0.97555,0.32448 1.16028,0.78408l0.73865,1.72352l-0.03716,0.01593c0.04001,0.07353 0.07767,0.14852 0.1127,0.22514c0.54804,1.1987 -0.40171,5.84739 -0.74061,7.20156c-0.00716,0.02861 -0.014,0.05761 -0.02057,0.08696c0.59491,1.37357 1.2131,2.73881 1.48862,4.20074c0.21936,1.16395 0.4171,2.32751 0.60021,3.49163c0.36648,0.25101 0.6691,0.58845 0.87849,0.98294l1.22332,2.20198l-0.24851,0.13806l0.46899,0.37589c0.03089,0.26434 0.06915,0.55767 0.11135,0.87351c0.71751,1.44699 1.33498,4.1798 1.41734,4.47449l0.12856,1.03987c0.87318,0.46079 1.46834,1.37774 1.46834,2.4337c0,0.91114 -0.44312,1.71879 -1.1256,2.2192l-1.9011,1.42583c-3.56897,3.20088 -7.20304,5.81228 -10.41792,9.43197c0,0 -0.27264,0.30672 -0.72576,0.57786c1.11957,4.5493 0.17785,10.53624 0.16612,14.94824c-0.10816,0.65964 -0.25644,1.28734 -0.43453,1.89182c0.23996,1.67958 0.58972,3.60101 0.71793,5.39036c4.34913,1.65483 8.54299,3.75418 12.9152,4.9079c0.86094,-0.02451 1.71467,-0.04319 2.55565,-0.04319c0.14251,0 0.28752,0.00181 0.43463,0.00488c2.71456,-0.48338 5.30651,-1.59902 7.86563,-2.59446c0.09644,-0.37016 0.37797,-0.91042 1.19974,-0.91042c0.31256,0 0.54696,0.07815 0.72275,0.19538c0.13837,-0.0482 0.2767,-0.09548 0.41502,-0.14174c2.23004,-0.74574 5.42321,-1.00804 7.63388,-1.95848c1.13806,-0.4893 2.91449,-2.61671 3.69251,-3.56723c3.52761,-1.79668 6.45275,-4.59006 8.78585,-7.77792l0.92542,-0.46851c0.19924,-0.18606 0.4907,-0.32169 0.91342,-0.28002c0.23194,0.00642 0.509,0.06884 0.74076,0.27766c0.24241,0.19636 0.34728,0.46029 0.38979,0.6884c0.0828,0.31783 0.04866,0.57467 -0.04167,0.77921c-0.98182,4.80006 -5.1466,7.93348 -7.88418,11.69138c-1.35517,1.86025 -1.97083,4.66156 -3.22576,6.46175c-1.37072,1.96629 -4.24777,2.52444 -5.93391,4.23402c-1.34012,1.3242 -2.89818,2.37301 -4.5285,3.32771c-0.9251,2.66727 -1.27569,5.22196 -1.20853,7.73255c0.18997,0.9458 0.41192,1.89082 0.73061,2.83274c0.35405,1.04646 1.14164,1.91248 1.48723,2.96177c0.72417,2.19879 0.35235,4.68406 1.18984,6.84223c0.28001,0.72158 1.09077,1.13572 1.42327,1.83467c1.70042,3.57455 3.94572,8.44469 4.7185,12.36899c0.64242,3.26231 1.04231,6.446 1.74822,9.74163c0.54441,2.54163 2.09574,4.93729 2.00725,7.53506c-0.00304,0.08938 -0.00805,0.17845 -0.01487,0.26723l0.05285,-0.0048l0.10086,1.10948l1.75926,1.93518l-0.02326,0.02114c0.03358,0.02249 0.06708,0.04513 0.10048,0.06793c0.72443,0.49446 1.05946,1.39817 1.58097,2.10339c0.12282,0.16608 0.24558,0.33444 0.36831,0.50483c0.77238,0.78141 1.56238,1.53939 2.34158,2.30957c-0.01045,0.00947 -0.02089,0.01893 -0.03134,0.0284c1.08062,0.40288 2.1049,0.85086 2.99436,1.18441zM313.75203,177.69193c-0.01451,-0.02439 -0.02832,-0.04953 -0.04135,-0.07546c-0.01725,0.02248 -0.0351,0.04443 -0.05352,0.06583c0.03157,0.00328 0.06318,0.00648 0.09486,0.00963zM164.90368,186.6823c-0.01842,-0.0214 -0.03627,-0.04334 -0.05351,-0.06583c-0.01302,0.02592 -0.02683,0.05107 -0.04134,0.07546c0.03167,-0.00315 0.0633,-0.00635 0.09486,-0.00963zM255.50432,242.1997l0.00281,-0.00197c0.00004,-0.0172 0.00006,-0.03441 0.00007,-0.05163l-0.06611,-0.04083c-3.55032,-6.09073 -6.4685,-12.4053 -8.16666,-19.2029c-1.06722,-2.85244 -1.82862,-5.82168 -2.24289,-8.91469c-0.52048,-3.88599 -0.38811,-7.86013 -0.52493,-11.7908c-0.27443,-1.96695 -0.58737,-3.9199 -0.95709,-5.84371c-0.30693,-1.59702 -0.56091,-3.08512 -0.72907,-4.54128c-0.13086,-0.35968 -0.27183,-0.71788 -0.42373,-1.07446c-0.14367,-0.57358 -0.29601,-1.14573 -0.45929,-1.71482c-0.64822,0.09088 -1.34828,0.01449 -2.23261,-0.30445c-1.15395,4.46076 -2.70805,8.80268 -4.07342,13.22679c-0.36306,1.1764 -0.39262,2.45661 -0.88047,3.58698c-0.8914,2.06541 -1.94577,3.80451 -2.85995,5.69796c-0.22499,0.92227 -0.47714,1.83777 -0.76856,2.74321c-0.26163,0.81288 -0.5693,1.61251 -0.91233,2.40123c-0.03717,0.17539 -0.19025,0.78535 -0.61378,1.32767c-1.85934,3.80649 -4.42237,7.38316 -6.43517,11.0062l-0.29505,1.03411c0,0 -0.04683,0.14048 -0.15134,0.34537c1.38044,1.87943 2.44705,3.95767 4.2794,5.88379c1.31536,1.38268 2.93671,2.50574 4.01853,4.07788c0.51925,0.75459 0.62298,1.78094 1.25347,2.44539c1.58744,1.67294 3.84724,2.68395 5.22929,4.53019c1.03213,1.37879 1.51759,3.10883 2.51112,4.51569c1.60397,2.27126 3.95894,3.98037 5.66821,6.13968c1.25335,1.58334 2.26946,3.3573 3.62649,4.85273l1.15048,1.14511c0,0 0.06419,0.06419 0.15758,0.1809c0.09871,0.11225 0.15077,0.18662 0.15077,0.18662c0.36465,0.52697 0.6968,1.03917 1.00226,1.54533c0.26924,-1.17119 0.54009,-2.34385 0.77981,-3.52861c-0.02301,-0.14317 -0.03496,-0.29004 -0.03496,-0.4397c0,-0.17187 0.01577,-0.34006 0.04593,-0.5032l0.49148,-2.9489l0.01,0.00167c-0.06423,-0.24362 0.00762,-0.49232 0.14002,-0.74497c0.17343,-0.84177 0.35131,-1.67077 0.52766,-2.49197c0.10605,-0.63947 0.21033,-1.27922 0.30822,-1.91995c0.05148,-0.33695 -0.10955,-5.11485 -0.02331,-5.39268v-2.5c0,-1.06694 0.60761,-1.99197 1.49568,-2.44793c0.00244,-0.15646 0.00386,-0.31347 0.00422,-0.47105zM264.52943,138.55628c-0.05765,0.03678 -0.11548,0.07367 -0.17352,0.1107c-0.1765,0.27341 -0.35145,0.54989 -0.52854,0.82799c0.23947,-0.30723 0.47269,-0.62153 0.70206,-0.93869z"></path></g><g stroke="none" stroke-width="0.5"><path d="M314.9381,163.96066l0.3949,0.14809c1.77575,-0.13119 2.11475,-0.16271 3.4247,-1.61648l1.12868,-1.38782c0.18693,-0.24102 0.44331,-0.41939 0.73109,-0.51956l0.44102,-1.05227c0.32276,-0.77012 1.2444,-1.14692 2.05854,-0.84161c0.47061,0.17649 0.80228,0.54225 0.93606,0.96825l0.49146,1.51731l-0.09919,0.02875c0.06767,0.15219 0.12444,0.30872 0.16748,0.47075c0.52998,1.99515 -2.88766,3.80103 -1.60485,5.5798c0.47153,0.17683 0.94304,0.35365 1.41457,0.53047l0.67228,0.83383c0.04015,0.02123 0.08035,0.04232 0.12059,0.06327c0.00851,-0.03283 0.01707,-0.0653 0.02567,-0.0974c0.46586,-1.73903 1.82568,-3.36447 1.95417,-5.19524c0.10897,-1.55262 -0.69706,-2.16066 0.35295,-3.73046c0.02044,-0.03057 0.0412,-0.06091 0.06225,-0.09104l-0.02454,-0.0092l0.77922,-1.85923c0.32276,-0.77012 1.2444,-1.14691 2.05854,-0.8416c0.75079,0.28155 1.14797,1.04486 0.95211,1.76591l-0.35476,1.39825c1.09118,3.30345 -0.54036,6.98599 -2.13388,10.32686c0.67918,0.29601 1.35425,0.60115 2.01694,0.94127c0.28769,-0.51298 0.5455,-1.04288 0.77344,-1.58184l0.00214,-0.0363l0.01288,0.00068c0.01145,-0.02725 0.02283,-0.05453 0.03413,-0.08183c-0.00484,-0.05246 -0.00899,-0.10501 -0.01242,-0.15767c-0.07285,-1.1179 0.7364,-2.1486 0.84299,-3.26407l0.39604,-1.10155c0,0 0.01417,-0.03382 0.04367,-0.08883c0.12914,-0.27774 0.3689,-0.61209 0.80368,-0.77092c0.10393,-0.04465 0.21829,-0.07859 0.34355,-0.09673c-0.03926,-0.27982 -0.03358,-0.54707 0.11779,-0.78016c0.07867,-0.12113 0.16566,-0.23557 0.2595,-0.3445l-0.08406,-0.04793l0.81664,-1.28117c0.38724,-0.63254 1.21596,-0.91848 1.95587,-0.64101c0.68504,0.25689 1.0757,0.91488 0.99008,1.57588l-0.18696,1.7781l-0.08769,-0.00825l0.05067,0.21384c-0.19727,0.48105 -0.38834,0.96739 -0.57774,1.45583c-0.10383,0.62136 -0.35405,1.3117 -0.65251,1.99259c0.92023,1.14795 0.49959,3.15796 0.26725,4.28499c-0.67526,3.27552 -3.55809,4.73319 -5.69768,7.10622l-0.20605,0.06822l0.04096,0.05598l-1.54694,1.01264c-0.0981,0.06624 -0.20371,0.12159 -0.31454,0.16513c-0.05074,0.06159 -0.10182,0.12269 -0.15325,0.18328c-0.25627,0.41331 -0.6092,0.58939 -0.94264,0.65111c-0.38718,0.11367 -0.88046,0.09644 -1.41074,-0.32396c-4.03844,0.51623 -8.08433,0.36344 -12.07261,-0.18606c-0.55525,-0.0765 -4.47963,-1.71635 -4.49465,-1.73333c-0.11472,-0.12966 -0.24194,-0.27638 -0.37244,-0.43458c-0.81166,0.10091 -1.63155,0.14744 -2.44677,0.1225c-0.49512,0.05847 -0.85531,-0.09904 -1.10947,-0.30964c-0.27357,-0.18078 -0.51872,-0.46895 -0.58105,-0.92762l-0.44033,-1.35945c-0.208,-0.64218 -0.416,-1.28436 -0.62401,-1.92654c-0.14828,-0.2514 -0.22037,-0.55235 -0.27942,-0.86268c-0.1946,-0.60082 -0.38921,-1.20163 -0.5838,-1.80244c0,0 -0.00255,-0.00785 -0.00664,-0.02257c-0.00485,-0.01451 -0.00713,-0.02244 -0.00713,-0.02244l-0.0032,-0.01732c-0.01054,-0.04335 -0.024,-0.10742 -0.03431,-0.18619l-0.00041,-0.00226c-0.56912,-1.57214 -1.12284,-3.59374 -0.99588,-5.40355c-0.95476,-0.15881 -2.17036,-0.75454 -3.71233,-1.93687c-1.30664,-1.00188 -1.69908,-2.97734 -1.73892,-4.62339c-0.02276,-0.94008 1.26623,-1.4538 1.57027,-2.34365c0.16674,-0.48799 0.02196,-1.31505 -0.26076,-2.24132c-0.51289,-1.08788 -0.99058,-2.21375 -1.25414,-3.21413c-0.31838,-0.71983 -0.59188,-1.31031 -0.71076,-1.61981l0.02042,-0.16245l-0.06197,0.01549l-0.7364,-2.94561c-0.05753,-0.21047 -0.08824,-0.43201 -0.08824,-0.66073c0,-0.54653 0.17537,-1.05209 0.47291,-1.4635c-2.02547,-3.99482 -4.65145,-8.00365 -5.87984,-12.36072c-0.42979,-1.52444 -0.71823,-3.142 -1.01587,-4.77291c-0.61099,-1.71531 -0.93136,-3.52747 -1.21927,-5.33445c-0.41251,-1.28775 -0.94383,-2.52489 -1.6781,-3.66686c-0.65261,-1.01496 -1.52491,-1.86007 -2.38326,-2.71807c-1.07961,2.08901 -2.18079,4.21435 -3.41439,6.23604c0.07558,0.16103 0.11781,0.34082 0.11781,0.53047c0,0.09286 -0.01013,0.18336 -0.02934,0.27046l-0.24494,1.22469l-0.05832,-0.01166c-0.0054,0.09822 -0.01653,0.19639 -0.03439,0.29449c-0.12183,0.6693 -0.66615,1.2832 -1.37374,1.85571c-0.50761,0.8661 -1.04362,1.6619 -1.71461,2.55273c-2.0565,3.59887 -5.23203,6.0775 -7.55129,9.32233c-2.73906,3.83216 -5.8255,6.36597 -10.65477,6.73811c-1.72654,0.13305 -3.33902,0.80075 -4.83353,0.87957c-1.03695,0.49063 -2.12839,0.85063 -3.25508,1.09765v1.02593h-0.10674l0.09144,0.28971c-0.14259,0.66542 -0.2305,1.24941 -0.29527,1.77033c0.20074,0.48175 0.26127,1.02296 0.25641,1.59239c1.75748,-0.03997 3.561,0.03609 5.03252,0.69272c5.66544,2.52805 11.69946,4.35728 18.04329,2.25c3.12848,-1.56613 7.77054,-3.38786 9.87652,-6.50629c0.20443,-0.41811 0.42276,-0.82824 0.66056,-1.22635c0.09351,-0.22895 0.1737,-0.46415 0.23937,-0.70591l0.62396,-0.5594c0.03875,-0.04945 0.07797,-0.09859 0.11767,-0.14743c0,0 0.54419,-0.65303 1.27356,-0.43328c0.23234,0.0482 0.47368,0.17617 0.67219,0.453c0.22401,0.25663 0.2933,0.52087 0.287,0.75807c0.02375,0.38548 -0.15997,0.67324 -0.3469,0.86328c-0.22979,0.27094 -0.43943,0.55771 -0.63291,0.85676c-0.20999,0.46883 -0.45756,0.91383 -0.7374,1.33725c-0.73209,1.53729 -1.23172,3.23528 -1.91413,4.72535c-0.95255,2.07992 -2.63619,4.46552 -3.83868,6.41421c-0.53256,0.86304 -1.143,1.66226 -1.8016,2.42221c-0.03841,0.30106 -0.16554,0.52354 -0.16554,0.52354c-2.43908,4.26078 -5.30446,9.71545 -8.76756,13.76976c0.85496,3.73169 0.93367,7.8623 0.90603,11.94499c0.15722,0.7824 0.31653,1.57436 0.4738,2.38069c1.19749,6.13944 0.3767,12.56997 1.50806,18.79244l0.04407,2.72427c0.00029,0.01158 0.00029,0.01766 0.00029,0.01766c0,2.11455 0.09983,4.20732 0.22664,6.29544c0.37189,2.2794 0.85611,4.85179 0.91943,7.28274l1.61403,1.3374c0.20712,0.09393 0.42078,0.22008 0.6399,0.38442c0.97448,0.73086 1.19359,1.56962 1.13531,2.27731c0.01545,0.57914 -0.15831,1.23515 -0.77326,1.82405c-1.95547,2.6303 -3.45212,5.12309 -4.8536,8.10014l-0.44423,2.44326c-0.21258,1.30729 -1.34686,2.30524 -2.71422,2.30524c-0.05453,0 -0.10869,-0.00159 -0.16243,-0.00472c-0.61805,1.41615 -1.21799,2.84135 -1.78709,4.28308c-3.30594,8.3752 -4.28563,17.46636 -8.13933,25.665l-0.16451,2.44382c0.012,1.58005 1.31017,3.13529 1.90821,4.60946c0.47956,1.18211 0.59644,2.23964 0.60994,3.38702c0.06041,0.14315 0.11659,0.2887 0.16801,0.43698c1.10103,3.17567 1.35848,6.42972 2.0448,9.59498c0.03296,0.12971 0.06532,0.25907 0.09707,0.38803c0.01927,0.07828 0.03391,0.15731 0.04467,0.23696c0.03147,0.13258 0.06385,0.26498 0.09723,0.39719c0.32894,1.30289 0.68153,2.46282 0.94939,3.57366c0.69357,1.37559 0.84842,2.71856 1.1079,4.0313c0.17299,0.52745 0.31419,1.05135 0.4046,1.56614c0.20871,0.60162 0.49649,1.19686 0.92877,1.78596l-0.01026,0.21448l0.08889,-0.02963l0.49077,1.47232c0.04749,0.1321 0.07337,0.27451 0.07337,0.42297c0,0.69036 -0.55964,1.25 -1.25,1.25c-0.51967,0 -0.96528,-0.31712 -1.15385,-0.7684l-0.97827,-2.20111c-0.0548,-0.09947 -0.10605,-0.19904 -0.15408,-0.2987c-0.06947,0.01197 -0.1409,0.01821 -0.21379,0.01821c-0.61444,0 -1.12533,-0.44333 -1.23027,-1.02756l-0.24546,-1.22729c-0.15302,-0.78278 -0.24742,-1.58101 -0.26776,-2.37891c-0.41022,-1.03591 -0.76421,-2.09402 -1.05886,-3.15724c-0.24485,-0.46959 -0.48422,-0.98495 -0.66079,-1.65767c-0.41867,-1.5951 -0.6226,-3.81813 -1.41455,-5.26204c-0.55115,-1.00487 -1.61452,-1.65834 -2.19457,-2.6468c-0.19771,-0.33691 -0.38933,-0.67576 -0.57583,-1.01621c-0.03108,0.16026 -0.06846,0.29812 -0.11329,0.40745c-0.00101,0.0081 -0.00201,0.01621 -0.00301,0.02431l-0.24437,2.68802c-0.039,0.49033 -0.20661,0.94443 -0.4691,1.32857c-0.40449,3.45833 -0.52215,6.93252 -0.52215,10.42539c0,4.68552 -0.27071,9.61111 -1.55363,14.11223c-0.24687,0.86614 -0.48434,1.7166 -0.69942,2.56479c0.02335,5.70226 0.09895,11.5848 -0.99245,17.16721c-0.00291,0.35181 -0.00449,0.70373 -0.00449,1.05576v0.75c0,0 0,1.25 -1.25,1.25c-0.28106,0 -0.49892,-0.0632 -0.6678,-0.16117c-0.61101,-0.08198 -1.0822,-0.60538 -1.0822,-1.23883v-2.25h0.3211c-0.62819,-4.26967 -0.24678,-8.59439 0.45304,-12.93142c0.10625,-3.00451 0.53543,-5.79478 0.729,-8.75719c0.47202,-7.22405 0.54439,-14.42225 1.0048,-21.64053c-0.46966,-0.49334 -0.75795,-1.16093 -0.75795,-1.89585c0,-0.09563 0.00488,-0.19013 0.01441,-0.28324l0.24688,-2.71573l0.01289,0.00117c-0.00394,-0.00445 -0.00786,-0.00895 -0.01174,-0.01351c-0.51619,-0.60589 0.20519,-1.58053 0.24097,-2.37568c0.113,-2.51152 0.29026,-5.00203 0.55881,-7.488c-0.1536,-0.30041 -0.31022,-0.5997 -0.47052,-0.89767c-0.36759,-0.37992 -0.55138,-0.7475 -0.55138,-0.7475l-0.59364,-1.20851c-0.72167,-1.82582 -1.68771,-3.55416 -2.72012,-5.22406c-2.43109,-3.23344 -5.01156,-6.0093 -7.75599,-8.94147c-1.56648,-1.67364 -2.5855,-4.3284 -4.31237,-5.81366c-2.58327,-2.22182 -5.97927,-3.64438 -8.52027,-6.01846c-0.69197,-0.64652 -1.12878,-1.54963 -1.87066,-2.13821c-2.56751,-2.03697 -5.29137,-1.72467 -8.02803,-3.19149c-2.70812,-1.45152 -3.74491,-3.69903 -6.4691,-4.98431c0,0 -0.83734,-0.41867 -1.29063,-1.25601l-1.347,-0.97964l0.04333,-0.05957c-0.11607,-0.06158 -0.2308,-0.12613 -0.34407,-0.19393c-1.25464,-0.751 -1.76183,-2.33548 -2.69524,-3.46103c-3.33023,-4.01575 -7.15864,-9.69912 -4.65945,-15.35377c0.50979,-1.15345 1.60198,-1.94807 2.40296,-2.92211l0.27816,-0.10599l-0.05822,-0.07762l1.97778,-1.48333c0.46336,-0.35542 1.04312,-0.56667 1.67222,-0.56667c0.16822,0 0.33291,0.0151 0.4928,0.04403c0.00419,-0.0608 0.00774,-0.12115 0.01062,-0.18102c0.58252,-12.13297 3.03238,-25.14104 8.25667,-36.03042c1.38108,-2.87868 2.1607,-5.64611 3.95177,-8.35802l-0.46186,0.52543c0,0 0,-0.77186 0.40893,-1.49774c-0.48277,-1.19689 -1.0193,-2.22534 -1.56612,-3.26205c-0.46741,-0.05865 -0.85454,-0.37538 -1.01422,-0.80301l-0.39689,-0.99223c-2.32261,-1.81525 -2.755,-4.27796 -4.4356,-6.45021c-2.12258,-2.74354 -4.17515,-3.53469 -4.73354,-7.31799c0,0 -0.03554,-0.24881 0.03681,-0.53923c-0.04758,-0.57498 0.04403,-1.08247 0.40125,-1.34854c0.74028,-0.55136 1.87442,0.09013 2.73748,0.41744c0.44077,0.16716 0.61407,0.7293 1,1c1.7625,1.23625 5.13849,1.54057 7.18506,1.54963c1.01403,0.20281 2.14,0.14581 3.1929,0.29804c0.9144,-0.6004 1.62672,0.29001 1.62672,0.29001l0.00001,-0.00001c0.09315,0.11666 0.18541,0.23138 0.2769,0.34413c0.84422,0.44325 1.72741,1.0706 2.58658,1.73328c0.79516,0.19521 1.60444,0.53205 2.41297,0.91137c0.83132,0.32328 1.63858,0.68712 2.40898,1.10323c3.77991,0.26809 7.90025,-1.32368 11.75514,-2.1942c0,-2.07883 0,-4.14888 0,-6.1106c-2.28581,-0.44378 -4.51188,-1.13627 -6.53771,-1.94854c-10.75338,-3.06262 -21.00255,-6.21025 -28.61233,-14.90915c-0.22032,-0.1642 -0.34021,-0.3914 -0.40545,-0.59005c-0.0632,-0.15319 -0.11202,-0.34234 -0.09947,-0.54767c-0.91887,-1.2317 -1.81356,-2.43198 -2.66515,-3.63776c-0.09233,0.11758 -0.18229,0.23598 -0.26972,0.35522c-2.08871,5.75812 -2.92384,11.72291 -4.93273,17.51916c-2.34227,6.75816 -5.5722,13.07345 -8.01133,19.78182l-0.16421,0.20511c-0.2552,3.156 -1.35358,6.7908 -4.8947,7.56224c-0.50323,0.10963 -1.03813,0.1898 -1.57794,0.22091c-0.2837,0.14713 -0.5615,0.30173 -0.81766,0.48201c-1.90393,1.3399 -3.90525,3.28093 -6.04361,4.84264c-0.07469,0.11465 -0.15062,0.22689 -0.22622,0.33539c-0.06723,1.02182 -0.10229,2.0617 0.08678,2.88405c0.00314,0.01366 0.00635,0.02729 0.00963,0.04088c-0.38874,-0.20254 -0.76961,-0.413 -1.12959,-0.64666c-0.15583,0.56603 -0.33424,1.10803 -0.51418,1.6051l-0.00042,0.00226c-0.01031,0.07877 -0.02377,0.14285 -0.03432,0.1862l-0.00319,0.01732c0,0 -0.00228,0.00792 -0.00713,0.02244c-0.0041,0.01472 -0.00664,0.02257 -0.00664,0.02257c-0.1946,0.60081 -0.3892,1.20163 -0.58381,1.80244c-0.05905,0.31033 -0.13114,0.61129 -0.27942,0.86268c-0.208,0.64218 -0.416,1.28436 -0.624,1.92654l-0.44032,1.35945c-0.06233,0.45867 -0.30748,0.74684 -0.58105,0.92762c-0.25416,0.2106 -0.61435,0.36811 -1.10947,0.30964c-0.81522,0.02494 -1.63511,-0.0216 -2.44677,-0.1225c-0.13051,0.1582 -0.25772,0.30491 -0.37244,0.43458c-0.01502,0.01698 -3.93939,1.65682 -4.49465,1.73332c-3.98827,0.5495 -8.03417,0.7023 -12.07261,0.18606c-0.53028,0.4204 -1.02356,0.43763 -1.41074,0.32396c-0.33344,-0.06172 -0.68637,-0.2378 -0.94264,-0.65111c-0.05143,-0.06059 -0.10251,-0.12169 -0.15325,-0.18328c-0.11083,-0.04354 -0.21644,-0.09889 -0.31454,-0.16513l-1.54694,-1.01264l0.04096,-0.05599l-0.20605,-0.06823c-2.13959,-2.37303 -5.02241,-3.8307 -5.69768,-7.10622c-0.23234,-1.12703 -0.65298,-3.13704 0.26725,-4.28499c-0.29846,-0.68089 -0.54868,-1.37122 -0.65251,-1.99258c-0.1894,-0.48844 -0.38048,-0.97478 -0.57775,-1.45583l0.05067,-0.21385l-0.0877,0.00825l-0.18697,-1.77809c-0.08562,-0.661 0.30504,-1.31898 0.99008,-1.57588c0.73992,-0.27747 1.56863,0.00846 1.95587,0.641l0.81664,1.28117l-0.08405,0.04794c0.09384,0.10893 0.18083,0.22337 0.2595,0.3445c0.15137,0.23309 0.15705,0.50035 0.11779,0.78017c0.12525,0.01813 0.23961,0.05208 0.34354,0.09672c0.43478,0.15883 0.67455,0.49318 0.80368,0.77092c0.0295,0.05501 0.04367,0.08883 0.04367,0.08883l0.39604,1.10155c0.10659,1.11547 0.91584,2.14617 0.843,3.26406c-0.00343,0.05266 -0.00758,0.10522 -0.01242,0.15767c0.0113,0.0273 0.02267,0.05457 0.03412,0.08183l0.01288,-0.00068l0.00214,0.0363c0.22794,0.53896 0.48574,1.06887 0.77343,1.58184c0.66268,-0.34013 1.33775,-0.64527 2.01694,-0.94128c-1.59352,-3.34087 -3.22506,-7.02341 -2.13388,-10.32686l-0.35476,-1.39825c-0.19586,-0.72105 0.20132,-1.48436 0.95211,-1.76592c0.81414,-0.30531 1.73578,0.07149 2.05854,0.84161l0.77922,1.85922l-0.02453,0.0092c0.02105,0.03013 0.04181,0.06047 0.06225,0.09104c1.05002,1.5698 0.24399,2.17784 0.35295,3.73045c0.12849,1.83076 1.48831,3.45621 1.95417,5.19524c0.0086,0.03211 0.01715,0.06458 0.02567,0.09741c0.04024,-0.02095 0.08044,-0.04204 0.12059,-0.06327l0.67231,-0.8338c0.47152,-0.17682 0.94305,-0.35365 1.41457,-0.53047c1.28281,-1.77877 -2.13483,-3.58464 -1.60485,-5.57979c0.04304,-0.16203 0.09981,-0.31857 0.16748,-0.47075l-0.09918,-0.02875l0.49145,-1.51731c0.13377,-0.426 0.46545,-0.79177 0.93606,-0.96825c0.81414,-0.30531 1.73578,0.07149 2.05854,0.84161l0.44102,1.05227c0.28778,0.10018 0.54416,0.27855 0.73109,0.51956l1.12868,1.38782c1.30995,1.45378 1.64895,1.48529 3.4247,1.61648l0.39489,-0.14809c1.6999,-0.63747 3.89221,-1.69289 6.02922,-2.05268c0.10661,-0.15105 0.21537,-0.3003 0.32709,-0.44706c2.25858,-2.96686 4.99901,-3.32087 7.58155,-5.62444c0.98426,-0.87794 1.66732,-2.04928 2.38509,-3.18217c-0.02041,-0.05339 -0.03715,-0.10706 -0.05001,-0.16098c-0.41371,-1.73527 1.04844,-5.35095 3.20467,-7.10456c0.33,-0.67425 0.80819,-1.33262 1.04212,-2.02741c1.08506,-3.22268 2.0345,-6.34275 3.33389,-9.46236c2.75986,-6.62596 5.50114,-13.32644 7.2808,-20.26851c0,-0.24145 0,-0.46675 0,-0.67243c-0.46284,-0.45373 -0.75,-1.08601 -0.75,-1.78536c0,-0.18573 0.02025,-0.36673 0.05867,-0.54091l0.48564,-2.42818c-0.02023,-0.18872 0.07145,-0.72404 0.20569,-1.38225c0,-0.71622 0,-1.43244 0,-2.14866c0,-2.16667 -0.50896,-4.39396 0,-6.5v-3c0,-0.44508 0.11631,-0.86299 0.32018,-1.225c-0.118,-0.20745 -0.236,-0.4149 -0.35401,-0.62235c-1.46875,-1.8531 -2.40772,-4.0801 -3.60428,-6.14551c-4.50336,-2.83577 -8.04999,-5.88632 -10.76511,-10.31314c-0.12612,-0.10918 -0.25331,-0.21711 -0.38204,-0.32394c-1.47599,-0.45543 -2.37122,-1.17027 -2.9646,-2.16772c-0.09898,-0.12059 -0.19273,-0.27356 -0.24187,-0.45587c-0.46489,-0.98301 -0.71378,-2.20269 -0.9566,-3.67654l-0.45175,-1.12937c-0.06433,-0.15061 -0.09993,-0.31643 -0.09993,-0.49056c0,-0.69036 0.55964,-1.25 1.25,-1.25c0.07076,0 0.14014,0.00588 0.20769,0.01718c0.81342,-0.23898 1.33237,0.53945 1.33237,0.53945c1.16285,1.85579 3.18022,2.21575 4.65115,3.8708c0.95005,1.06897 1.29608,2.67444 2.23704,3.7354c1.67033,1.88336 3.65981,3.28903 5.61424,4.8705c0.83761,0.67777 1.49883,2.16552 2.51346,2.59711c1.31622,0.55988 2.90017,0.70653 4.26489,1.16144c3.13196,0.6334 6.99402,1.34314 10.80802,1.52357c4.42253,-3.00574 9.3327,-5.94947 14.48082,-7.22818c-0.19347,-0.42499 -0.35659,-0.78546 -0.47947,-1.03181c-0.50005,-1.00245 -0.91164,-2.04533 -1.23125,-3.11434c-0.26108,-0.44665 -0.4826,-0.90958 -0.6155,-1.40393c-0.21286,-0.79176 -0.20239,-1.78182 -0.14948,-2.76009c-0.10265,-1.41586 -0.049,-2.84468 0.16821,-4.25694c0.20137,-3.69696 0.99184,-6.82632 2.47877,-9.8621c-0.2752,-0.29271 -0.41861,-0.54368 -0.41861,-0.54368l-0.90047,-1.58896c-0.36609,-0.55962 -1.03757,-1.02683 -1.23834,-1.63647c-0.34816,-0.2476 -0.64445,-0.47085 -0.87473,-0.65203l-0.0765,-0.25644l-0.09188,0.0804l-1.74123,-1.98997c-0.29976,-0.33899 -0.51717,-0.7525 -0.62091,-1.2092c-0.90472,-0.57811 -1.7562,-1.09711 -1.9232,-1.21866c-1.31125,-0.95436 -3.42375,-1.43899 -3.82151,-3.01123c-0.31559,-1.24743 0.76829,-2.36529 1.53335,-3.51267l0.33977,-2.14048c1.0422,-2.58658 1.24833,-5.35977 2.2185,-7.91744c0.58026,-1.52973 1.31816,-3.02255 2.10338,-4.50164c-0.1184,-0.26032 -0.20168,-0.4846 -0.25533,-0.67939c0.39438,0.15284 0.81078,0.26151 1.24312,0.31994c-0.02606,-0.68868 -0.00636,-1.36416 -0.00636,-1.70015c0,-2.76452 -0.32055,-5.3742 0.25,-7.83422v-0.86578l-0.22573,-0.04515l0.24546,-1.22729c0.10493,-0.58424 0.61583,-1.02756 1.23027,-1.02756c0.69036,0 1.25,0.55964 1.25,1.25v2c0,1.4698 -0.03799,2.93005 -0.08436,4.38832c0.23504,-0.59857 0.53195,-1.17621 0.97182,-1.7082c0.03065,-0.03707 0.06194,-0.07347 0.09382,-0.10926l-0.02135,-0.01423l0.98925,-1.48387c0.14807,-0.22928 0.36914,-0.40699 0.63033,-0.50027c0.07779,-0.21864 0.14991,-0.43738 0.21584,-0.65615c0.60797,-2.01738 0.73981,-3.40613 1.91733,-5.36382l0.72493,-0.96912c0.13066,-0.2329 0.35288,-0.4749 0.72614,-0.55751c0.22722,-0.07504 0.5023,-0.08744 0.80839,0.05536c0.31939,0.10988 0.50866,0.30986 0.62001,0.52167c0.2118,0.31967 0.20287,0.64915 0.13452,0.90781c-0.37707,2.82887 -1.55053,4.91458 -2.26011,7.52646c-0.12895,0.47466 -0.18641,0.99476 -0.22152,1.5312c0.66956,-0.66357 1.42305,-1.2361 2.35021,-1.63982l0.89465,-0.67099c0.21062,-0.16156 0.47415,-0.25758 0.7601,-0.25758c0.69036,0 1.25,0.55964 1.25,1.25c0,0.34518 -0.13991,0.65768 -0.36612,0.88388l-1,1l-0.23052,-0.23052c-0.02603,0.03934 -0.0522,0.0785 -0.07852,0.11748l0.03756,0.06887c-0.03833,0.014 -0.07636,0.02847 -0.11409,0.0434c-1.28224,1.86357 -2.88494,3.32559 -4.41115,5.29514l-0.71382,0.44173c-0.57546,1.02157 -1.261,1.97732 -2.00917,2.96028l-0.44278,1.10694c-0.17726,0.47474 -0.63486,0.8128 -1.17141,0.8128c-0.0214,0 -0.04268,-0.00054 -0.06382,-0.0016c-0.2144,0.47688 -0.41612,0.95673 -0.60138,1.44036c-0.98759,2.57817 -1.23586,5.45177 -2.2815,8.08256l-0.03001,0.53135c0.00044,0.00331 0.00087,0.00661 0.0013,0.00991c0.06106,0.032 0.12077,0.06622 0.17902,0.10256l2.46124,1.47675l-0.23823,0.39705c2.72282,0.88558 5.18995,2.21783 7.60045,4.42402c0.46181,0.42267 1.07139,0.81143 1.6745,1.20938c0.54004,-0.33288 1.09907,-0.66281 1.66906,-1.00236c1.04102,-0.62015 1.19031,-1.23613 2.29922,-1.77722c1.06664,-0.52046 2.31875,-0.55419 3.50246,-0.64036c4.47935,-0.3261 9.35034,-0.71265 13.80302,0.01807c1.60823,0.32767 2.86397,0.87778 4.33367,1.61148l0.6455,0.42186c2.71544,0.41889 4.15013,1.11074 5.37425,2.58034l0.61943,-0.46167c2.44355,-2.41781 5.00527,-3.63486 7.94688,-5.31555c0.20917,-0.11951 0.409,-0.25833 0.60492,-0.40482v-0.55503c-0.73758,-5.10348 -1.32358,-10.08736 -2.2019,-15.13504c-0.32454,-1.86512 -1.42548,-3.62764 -2.05946,-5.36538c-0.02596,-0.01523 -0.05211,-0.0301 -0.07846,-0.04459c-1.42861,-0.78558 -2.48324,-1.06352 -3.59037,-2.51452l-1.20369,-1.20369c-0.22621,-0.22621 -0.36612,-0.53871 -0.36612,-0.88388c0,-0.69036 0.55964,-1.25 1.25,-1.25c0.28595,0 0.54948,0.09602 0.7601,0.25758l0.9899,0.74242l-0.09953,0.1327l0.18546,0.18546c0.94268,0.45547 1.73895,1.05051 2.89115,1.91465c-0.08602,-0.78111 -0.15158,-1.59042 -0.29788,-2.3375c-0.60015,-1.26495 -1.21987,-2.51187 -1.60873,-3.73154c-0.2192,-0.68754 -0.41586,-1.53015 -0.07046,-2.16376v-0.47945c-0.32081,-1.18854 -0.58141,-2.39089 -0.74035,-3.61551c0,0 -0.15504,-1.24035 1.0853,-1.39539c1.24035,-0.15504 1.39539,1.0853 1.39539,1.0853c0.09122,0.76399 0.22506,1.51937 0.39064,2.26827c0.22791,0.22643 0.36901,0.54012 0.36901,0.88677v0.59851c0.54664,1.99638 1.27106,3.95612 1.96076,5.92106c0.17102,-0.57165 0.29747,-1.09861 0.28924,-1.51958v-1.5c0,-0.69036 0.55964,-1.25 1.25,-1.25c0.52567,0 0.97555,0.32448 1.16028,0.78408l0.73865,1.72352l-0.03716,0.01593c0.04001,0.07353 0.07767,0.14852 0.1127,0.22514c0.54804,1.1987 -0.40171,5.84739 -0.74061,7.20156c-0.00716,0.02861 -0.014,0.05761 -0.02057,0.08696c0.59491,1.37357 1.2131,2.73881 1.48862,4.20074c0.21936,1.16395 0.4171,2.32751 0.60021,3.49163c0.36648,0.25101 0.6691,0.58845 0.87849,0.98294l1.22332,2.20198l-0.24851,0.13806l0.46899,0.37589c0.03089,0.26434 0.06915,0.55767 0.11135,0.87351c0.71751,1.44699 1.33498,4.1798 1.41734,4.47449l0.12856,1.03987c0.87318,0.46079 1.46834,1.37774 1.46834,2.4337c0,0.91114 -0.44312,1.71879 -1.1256,2.2192l-1.9011,1.42583c-3.56897,3.20088 -7.20304,5.81228 -10.41792,9.43197c0,0 -0.27264,0.30672 -0.72576,0.57786c1.11957,4.5493 0.17785,10.53624 0.16612,14.94824c-0.10816,0.65964 -0.25644,1.28734 -0.43453,1.89182c0.23996,1.67958 0.58972,3.60101 0.71793,5.39036c4.34913,1.65483 8.54299,3.75418 12.9152,4.9079c0.86094,-0.02451 1.71467,-0.04319 2.55565,-0.04319c0.14251,0 0.28752,0.00181 0.43463,0.00488c2.71456,-0.48338 5.30651,-1.59902 7.86563,-2.59446c0.09644,-0.37016 0.37797,-0.91042 1.19974,-0.91042c0.31256,0 0.54696,0.07815 0.72275,0.19538c0.13837,-0.0482 0.2767,-0.09548 0.41502,-0.14174c2.23004,-0.74574 5.42321,-1.00804 7.63388,-1.95848c1.13806,-0.4893 2.91449,-2.61671 3.69251,-3.56723c3.52761,-1.79668 6.45275,-4.59006 8.78585,-7.77792l0.92542,-0.46851c0.19924,-0.18606 0.4907,-0.32169 0.91342,-0.28002c0.23194,0.00642 0.509,0.06884 0.74076,0.27766c0.24241,0.19636 0.34728,0.46029 0.38979,0.6884c0.0828,0.31783 0.04866,0.57467 -0.04167,0.77921c-0.98182,4.80006 -5.1466,7.93348 -7.88418,11.69138c-1.35517,1.86025 -1.97083,4.66156 -3.22576,6.46175c-1.37072,1.96629 -4.24777,2.52444 -5.93391,4.23402c-1.34012,1.3242 -2.89818,2.37301 -4.5285,3.32771c-0.9251,2.66727 -1.27569,5.22196 -1.20853,7.73255c0.18997,0.9458 0.41192,1.89082 0.73061,2.83274c0.35405,1.04646 1.14164,1.91248 1.48723,2.96177c0.72417,2.19879 0.35235,4.68406 1.18984,6.84223c0.28001,0.72158 1.09077,1.13572 1.42327,1.83467c1.70042,3.57455 3.94572,8.44469 4.7185,12.36899c0.64242,3.26231 1.04231,6.446 1.74822,9.74163c0.54441,2.54163 2.09574,4.93729 2.00725,7.53506c-0.00304,0.08938 -0.00805,0.17845 -0.01487,0.26723l0.05285,-0.0048l0.10086,1.10948l1.75926,1.93518l-0.02326,0.02114c0.03358,0.02249 0.06708,0.04513 0.10048,0.06793c0.72443,0.49446 1.05946,1.39817 1.58097,2.10339c0.12282,0.16608 0.24558,0.33444 0.36831,0.50483c0.77238,0.78141 1.56238,1.53939 2.34158,2.30957c-0.01045,0.00947 -0.02089,0.01893 -0.03134,0.0284c1.08062,0.40288 2.1049,0.85086 2.99436,1.18441zM313.75203,177.69193c-0.01451,-0.02439 -0.02832,-0.04953 -0.04135,-0.07546c-0.01725,0.02248 -0.0351,0.04443 -0.05352,0.06583c0.03157,0.00328 0.06318,0.00648 0.09486,0.00963zM164.90368,186.6823c-0.01842,-0.0214 -0.03627,-0.04334 -0.05351,-0.06583c-0.01302,0.02592 -0.02683,0.05107 -0.04134,0.07546c0.03167,-0.00315 0.0633,-0.00635 0.09486,-0.00963zM255.50432,242.1997l0.00281,-0.00197c0.00004,-0.0172 0.00006,-0.03441 0.00007,-0.05163l-0.06611,-0.04083c-3.55032,-6.09073 -6.4685,-12.4053 -8.16666,-19.2029c-1.06722,-2.85244 -1.82862,-5.82168 -2.24289,-8.91469c-0.52048,-3.88599 -0.38811,-7.86013 -0.52493,-11.7908c-0.27443,-1.96695 -0.58737,-3.9199 -0.95709,-5.84371c-0.30693,-1.59702 -0.56091,-3.08512 -0.72907,-4.54128c-0.13086,-0.35968 -0.27183,-0.71788 -0.42373,-1.07446c-0.14367,-0.57358 -0.29601,-1.14573 -0.45929,-1.71482c-0.64822,0.09088 -1.34828,0.01449 -2.23261,-0.30445c-1.15395,4.46076 -2.70805,8.80268 -4.07342,13.22679c-0.36306,1.1764 -0.39262,2.45661 -0.88047,3.58698c-0.8914,2.06541 -1.94577,3.80451 -2.85995,5.69796c-0.22499,0.92227 -0.47714,1.83777 -0.76856,2.74321c-0.26163,0.81288 -0.5693,1.61251 -0.91233,2.40123c-0.03717,0.17539 -0.19025,0.78535 -0.61378,1.32767c-1.85934,3.80649 -4.42237,7.38316 -6.43517,11.0062l-0.29505,1.03411c0,0 -0.04683,0.14048 -0.15134,0.34537c1.38044,1.87943 2.44705,3.95767 4.2794,5.88379c1.31536,1.38268 2.93671,2.50574 4.01853,4.07788c0.51925,0.75459 0.62298,1.78094 1.25347,2.44539c1.58744,1.67294 3.84724,2.68395 5.22929,4.53019c1.03213,1.37879 1.51759,3.10883 2.51112,4.51569c1.60397,2.27126 3.95894,3.98037 5.66821,6.13968c1.25335,1.58334 2.26946,3.3573 3.62649,4.85273l1.15048,1.14511c0,0 0.06419,0.06419 0.15758,0.1809c0.09871,0.11225 0.15077,0.18662 0.15077,0.18662c0.36465,0.52697 0.6968,1.03917 1.00226,1.54533c0.26924,-1.17119 0.54009,-2.34385 0.77981,-3.52861c-0.02301,-0.14317 -0.03496,-0.29004 -0.03496,-0.4397c0,-0.17187 0.01577,-0.34006 0.04593,-0.5032l0.49148,-2.9489l0.01,0.00167c-0.06423,-0.24362 0.00762,-0.49232 0.14002,-0.74497c0.17343,-0.84177 0.35131,-1.67077 0.52766,-2.49197c0.10605,-0.63947 0.21033,-1.27922 0.30822,-1.91995c0.05148,-0.33695 -0.10955,-5.11485 -0.02331,-5.39268v-2.5c0,-1.06694 0.60761,-1.99197 1.49568,-2.44793c0.00244,-0.15646 0.00386,-0.31347 0.00422,-0.47105zM264.52943,138.55628c-0.05765,0.03678 -0.11548,0.07367 -0.17352,0.1107c-0.1765,0.27341 -0.35145,0.54989 -0.52854,0.82799c0.23947,-0.30723 0.47269,-0.62153 0.70206,-0.93869z" fill="#130c1f"></path><path d="M246.07162,104.93967c-4.72788,1.92835 -9.17817,-1.96288 -12.91919,-3.88148l-1.09926,-0.72739c0,0 -0.60007,-0.40406 -0.62454,-1.02027c-0.83227,-0.89503 -1.59488,-1.8525 -2.44371,-2.72647c-0.34887,0.02836 -0.63191,-0.07221 -0.84909,-0.20843c-0.26827,-0.13077 -0.5285,-0.35289 -0.6385,-0.7302c-0.11251,-0.20682 -0.22268,-0.4168 -0.33231,-0.62834c-0.09369,-0.06399 -0.18894,-0.12649 -0.28586,-0.18739c0,0 -0.91223,-0.58501 -0.5801,-1.44931c-0.19838,-0.34935 -0.40811,-0.6916 -0.63757,-1.01931c-0.28922,-0.10552 -0.56493,-0.24106 -0.82954,-0.39797l-0.11917,0.21398l-1.39003,-0.62399c-0.49985,-0.21274 -0.84552,-0.6699 -0.84552,-1.19955c0,-0.73275 0.66162,-1.32676 1.47777,-1.32676h1.6551v0.24334l0.56551,-0.14235c0.4254,0.35413 0.79853,0.7078 1.1339,1.06582c0.19225,0.02951 0.37567,0.07022 0.53796,0.11682l1.281,1.33713c0,0 0.03735,0.0419 0.08763,0.1156c0.05346,0.07187 0.0802,0.11987 0.0802,0.11987c0.65877,1.1829 1.37368,1.92874 2.15071,2.5709c0.9599,0.29913 1.9825,0.64917 2.27696,0.88397c1.17625,0.93797 1.36142,2.34344 2.7399,3.32003c0.35571,0.25598 0.71135,0.48903 1.06662,0.69995c3.01828,0.62818 7.41649,0.15582 10.5148,0.08043c2.24511,-1.16171 3.96035,-3.45105 5.66176,-4.9786c1.76744,-1.2572 2.8279,-2.6644 3.65225,-4.55089l1.87417,-0.95424c0,0 0.01388,-0.00623 0.03951,-0.01614c0.02498,-0.01117 0.03925,-0.01665 0.03925,-0.01665l1.62507,-0.62529c0.18652,-0.07632 0.3938,-0.11883 0.61215,-0.11883c0.81615,0 1.47777,0.59401 1.47777,1.32676c0,0.22284 -0.06119,0.43285 -0.16931,0.61722l-0.69603,1.24982l-0.05577,-0.02503c-0.03498,0.0897 -0.07371,0.17835 -0.11678,0.26579c-0.90721,1.84157 -4.47132,3.45118 -5.96908,4.94306c-1.55159,1.5455 -2.84192,3.74813 -4.80672,4.90412c-0.1241,0.07301 -0.24877,0.14417 -0.37398,0.21347c-0.14563,0.13619 -0.3175,0.22706 -0.48202,0.28768c-1.53716,0.8152 -2.6994,2.33203 -4.28591,2.97911z" fill="#b49fda"></path><path d="M154.89957,178.80639c0.2171,-0.3305 0.60889,-0.62872 1.31595,-0.62872c1.58575,0 1.58575,1.5 1.58575,1.5l-0.04735,0.2362c0.14957,0.56707 0.21735,1.1467 0.23146,1.73214l0.21317,-0.03666l0.41727,2.17088c0.02045,0.09614 0.03117,0.19561 0.03117,0.29744c0,0.82843 -0.70996,1.5 -1.58575,1.5c-0.60041,0 -1.12288,-0.31564 -1.39209,-0.78107l-0.83046,-1.37472l0.11416,-0.0617l-0.23447,-0.18808c-0.16435,-0.95545 -0.3287,-1.91089 -0.49305,-2.86634c0,0 -0.1662,-1.02186 0.67422,-1.49937z" fill="#b49fda"></path><path d="M167.55404,174.61339c1.54799,0.3254 1.20399,1.78968 1.20399,1.78968c-0.2702,1.14976 -0.51276,2.16117 -0.88076,3.1566c0.02198,0.10547 0.04141,0.211 0.05837,0.31623c0.14539,0.90179 0.09248,1.92021 -0.38613,2.71215c-1.90574,3.15343 -5.78251,1.71221 -6.92398,-1.05261c-0.01999,-0.04841 -0.03492,-0.21767 -0.04603,-0.4591c-0.09247,-0.05591 -0.1595,-0.11636 -0.19637,-0.1813c-0.46537,-0.81953 -0.31137,-1.7447 0.16566,-2.56963c0.00048,-0.20875 0.0011,-0.36771 0.0011,-0.44774c0,0 0,-1.5 1.58575,-1.5c0.14912,0 0.28422,0.01326 0.40661,0.0373c0.47421,-0.25644 0.96163,-0.41448 1.40575,-0.43485c0.40154,-0.01842 0.76867,0.01887 1.10339,0.10251c0.09446,-0.31632 0.3492,-0.86792 1.00014,-1.0491c0.28229,-0.31374 0.75023,-0.57827 1.50251,-0.42014z" fill="#b49fda"></path><path d="M324.33552,171.30576c-0.16435,0.95544 -0.3287,1.91089 -0.49305,2.86634l-0.23447,0.18807l0.11415,0.06171l-0.83046,1.37472c-0.2692,0.46543 -0.79168,0.78107 -1.39209,0.78107c-0.87579,0 -1.58575,-0.67157 -1.58575,-1.5c0,-0.10183 0.01073,-0.2013 0.03118,-0.29744l0.41727,-2.17088l0.21317,0.03666c0.01411,-0.58544 0.08188,-1.16507 0.23146,-1.73214l-0.04735,-0.23619c0,0 0,-1.5 1.58575,-1.5c0.70706,0 1.09886,0.29822 1.31596,0.62871c0.84042,0.47752 0.67422,1.49937 0.67422,1.49937z" fill="#b49fda"></path><path d="M312.50933,166.03353c0.65094,0.18118 0.90568,0.73279 1.00014,1.0491c0.33472,-0.08365 0.70184,-0.12094 1.10339,-0.10252c0.44412,0.02038 0.93154,0.17842 1.40575,0.43485c0.12239,-0.02403 0.25749,-0.0373 0.40661,-0.0373c1.58575,0 1.58575,1.5 1.58575,1.5c0,0.08003 0.00061,0.239 0.00109,0.44774c0.47703,0.82493 0.63103,1.75009 0.16566,2.56963c-0.03688,0.06494 -0.1039,0.12539 -0.19637,0.1813c-0.01111,0.24143 -0.02605,0.41069 -0.04603,0.45909c-1.14147,2.76482 -5.01824,4.20604 -6.92398,1.05261c-0.4786,-0.79194 -0.53151,-1.81037 -0.38612,-2.71215c0.01697,-0.10523 0.0364,-0.21075 0.05838,-0.31623c-0.368,-0.99543 -0.61056,-2.00683 -0.88076,-3.1566c0,0 -0.344,-1.46429 1.20399,-1.78968c0.75228,-0.15813 1.22022,0.1064 1.50251,0.42014z" fill="#b49fda"></path></g></g><g fill-opacity="0.08235" fill="#b69edb" stroke="none" stroke-width="0.5"><path d="M306.52268,161.95627c1.87645,2.42102 4.56266,4.69363 6.52961,6.76299c0.29172,0.30691 0.63693,0.58876 0.98408,0.87085c0.18986,-0.3227 0.38223,-0.644 0.5775,-0.9635c0.49322,-1.70554 1.24545,-3.31097 2.27716,-4.34557l0.95327,-2.22429c0.59112,-1.47071 2.03075,-2.50906 3.71289,-2.50906c2.20914,0 4,1.79086 4,4c0,0.43225 -0.06856,0.8485 -0.19541,1.23845l-0.00454,0.01513l0.14601,-0.17033c0.73373,-0.8665 1.8296,-1.41658 3.05394,-1.41658c1.86384,0 3.42994,1.27478 3.87399,3h0.79269c2.05392,0.39052 4.71969,-0.34221 6.16176,1.17157c4.58315,4.81106 -0.99767,11.43995 -4.84387,13.63473c-1.11917,0.63864 -2.15206,1.73569 -3.44034,1.76291c-2.54932,0.05387 -5.54009,0.23846 -7.64077,-1.14051c-3.10688,0.2632 -6.44179,-0.31541 -8.43495,-1.7847c-0.05727,0.02513 -0.1149,0.04955 -0.17289,0.07327c-1.33439,1.09542 -3.66721,1.11056 -7.33261,-0.49524c-1.61365,-0.70693 -1.58091,-3.16212 -2.58404,-4.61033c-0.02481,-0.03581 -0.05048,-0.07089 -0.07693,-0.10529c-0.61866,-0.20236 -1.22116,-0.4305 -1.64896,-0.87054c-2.34459,-2.41175 -3.31429,-5.4357 -4.10576,-8.4864c-0.28631,-0.43147 -0.54949,-0.87753 -0.78251,-1.34239c-0.71486,-1.42612 -1.00862,-3.00293 -1.11554,-4.61555c-0.89974,-1.59788 -1.83004,-2.68731 -0.87441,-5.33517l-0.12806,-0.30413l0.05687,-0.02394c-0.05869,-0.09606 -0.11661,-0.19263 -0.17375,-0.28975c-0.95189,-1.61801 -0.62423,-3.72399 -1.26994,-5.48669c-0.59404,-1.62163 -1.86248,-2.94688 -2.41841,-4.58198c-0.88319,-2.59766 -0.66717,-5.46383 -1.3671,-8.11674c-1.16592,-4.41909 -4.08612,-7.86713 -5.32932,-12.31872c-0.23494,-0.84124 -0.42615,-1.68679 -0.58104,-2.53586c-2.29205,3.06974 -4.65918,6.04826 -7.20083,8.92493c-1.60561,3.7472 -3.57498,7.19654 -6.93066,9.30942c-3.68121,2.31785 -7.06356,5.2674 -10.91863,7.22696c-1.29974,1.84499 -2.62301,3.73475 -4.43064,4.81932c-1.38974,0.83384 -3.0848,0.8798 -4.79094,0.73793c0.09229,2.56277 0.00523,5.10747 -0.61156,7.57465c-0.80419,3.21678 -4.81278,6.73152 -4.84749,10.17329c-0.00668,0.6624 -0.01832,1.32503 -0.03023,1.98773c0.29026,1.1715 0.5248,2.35188 0.77898,3.24635c0.0079,0.02778 0.016,0.05558 0.02432,0.08339c1.04325,-0.07169 2.01347,-0.08298 2.72693,-0.11584c3.66515,-0.16881 9.36395,-1.94039 12.0421,-4.7478c0.75108,-0.78734 1.46554,-2.71292 2.04828,-3.46972c1.68155,-2.18378 5.05052,-3.44762 6.49971,-5.65075c1.88232,-2.86162 3.53785,-5.95078 5.38352,-8.83304c0.62808,-0.98083 3.10194,-3.78844 4.31432,-3.45779c0.4406,-0.11373 0.9026,-0.17424 1.37873,-0.17424c3.03756,0 5.5,2.46243 5.5,5.5c0,0.75734 -0.15307,1.47893 -0.42996,2.13551c-0.35132,0.83308 -0.90198,1.56152 -1.59223,2.12556c-0.05962,0.07375 -0.10315,0.12992 -0.126,0.16529c-1.14397,1.77069 -2.27024,3.74292 -3.40477,5.51968c-1.73668,2.71977 -3.12264,4.55617 -5.46398,6.67543c-0.60834,0.55064 0.11876,1.69894 -0.2045,2.45313c-0.76193,1.77761 -3.61035,2.91563 -4.9992,4.09088c-3.83019,3.24113 -6.56142,5.29767 -11.4979,7.04563c-0.63216,0.22384 -1.53983,0.52836 -2.61479,0.85268v0.30452c7.80293,15.60585 6.22529,25.08404 6.66667,42.2443c0.05138,1.99776 0.82745,3.75981 1.50914,5.41864c0.61692,0.70383 0.99086,1.62596 0.99086,2.63543c0,0.13692 -0.00688,0.27224 -0.02031,0.40562c0.16069,1.06412 0.04532,2.11924 -0.59565,3.20571l-0.75054,3.94034c0.31005,3.83914 -1.09551,7.68399 -1.68406,11.41566c-0.84112,5.33308 -1.80237,11.15108 -3.49209,16.30967c-0.15238,0.46523 -0.31996,0.92602 -0.49906,1.38328c3.11146,1.21979 2.25561,4.64321 2.25561,4.64321c-0.00912,0.03643 -0.01827,0.07288 -0.02746,0.1093c0.4031,0.82855 0.46641,1.58838 0.46641,1.58838c0.23514,2.94788 0.13539,4.22947 1.12373,7.01407c0.4651,1.31038 2.26862,4.59839 2.70186,6.10553c2.00192,6.9643 2.85489,14.73849 2.85489,21.87925v0.66667c0,0 0,4 -4,4c-4,0 -4,-4 -4,-4v-0.66667c0,-6.39607 -0.70408,-13.1937 -2.47845,-19.45408c-0.2282,-0.80512 -0.57151,-1.56765 -0.94688,-2.31868c-0.11287,0.50633 -0.21751,1.01401 -0.31238,1.52328c-0.68356,3.66933 -0.36997,7.45596 -0.60441,11.18106c-0.18091,2.87449 -0.85271,5.70637 -0.99533,8.58302c-0.44088,8.8923 0.00411,17.91228 0.00411,26.81874v1.33334c0,0 0,4 -4,4c-4,0 -4,-4 -4,-4v-1.33334c0,-3.10397 -0.05319,-6.22154 -0.10453,-9.34278c-0.22881,-0.73005 -0.22881,-1.32388 -0.22881,-1.32388v-2.66667c0,-4.10046 -0.53914,-7.53642 -0.97774,-11.5786c-0.43321,-3.99257 -0.02226,-8.39686 -0.02226,-12.4214c0,-7.68626 -0.99851,-16.34425 1.58731,-23.73595c0.28053,-0.80192 0.607,-1.5944 0.95856,-2.3825c-0.3769,-0.94186 -0.73039,-2.09144 -1.00173,-3.10099c-0.74827,-0.73931 -1.63247,-1.53785 -2.69031,-2.60329c-1.82511,-1.83821 -3.03102,-4.21714 -4.78561,-6.12278c-2.3364,-2.53755 -5.12176,-5.09029 -7.70077,-7.37622c-2.44598,-2.16802 -4.2864,-4.91102 -7.43861,-5.93294c0,0 -0.73743,-0.27654 -1.43515,-0.91142c-0.3264,-0.05411 -0.6458,-0.13625 -0.95336,-0.24788c-2.07388,-0.75274 -2.94652,-3.00614 -4.67305,-4.11542c-3.9432,-2.53348 -13.04763,-7.09894 -15.01311,-11.38726c-0.32077,-0.69986 -0.28808,-3.10149 -0.6875,-3.58333c-0.32158,-0.38793 -1.0625,-0.3125 -1.3125,-0.75c-4.24307,-7.42538 2.02313,-10.31187 3.08578,-15.83232c1.07452,-5.58212 2.03796,-10.96415 3.85426,-16.34241c1.14865,-3.40126 4.37086,-11.50638 5.99149,-16.39517c0.09933,-0.29966 1.55831,-8.31881 3.26851,-8.66085l0.75136,-0.28133c0.15183,-0.53643 0.30556,-1.07133 0.4611,-1.60459c0,0 0.46009,-1.57747 1.91315,-1.8016c0.16938,-0.37583 0.35146,-0.70403 0.54629,-0.95694c-1.45719,-1.51055 -2.89308,-3.04702 -4.27846,-4.6776c-2.36639,-2.78522 -4.0128,-4.47894 -6.7371,-7.37513c-0.7509,-0.79828 -2.33657,-2.00907 -2.03632,-3.10999c-0.11373,-0.4406 -0.17424,-0.9026 -0.17424,-1.37873c0,-3.03757 2.46243,-5.5 5.5,-5.5c1.83526,-1.42093 5.93664,3.80071 6.87597,4.75873c0.40169,0.40969 1.2833,-0.5888 1.70367,-0.69389c0.53488,-0.13372 2.51658,-0.08721 2.7537,-0.06484c5.57305,0.5259 10.35983,4.72997 16.03496,4.66667c1.25583,-0.01401 0.90643,-2.5194 0.61725,-5.5637c-1.42212,-0.49161 -2.64893,-1.24562 -4.45309,-2.02089c-1.44771,-0.6221 -8.76866,-2.08573 -11.32546,-2.99607c-9.14042,-3.25441 -17.22281,-12.89218 -22.21947,-20.96312c-1.55448,10.46544 -5.02436,20.00855 -9.70344,29.75092c-0.12059,0.25108 -0.23457,0.50458 -0.34287,0.76011l-0.06064,1.16955c-0.50026,1.97666 -0.76428,3.72467 -1.215,5.4513c-0.00014,0.0816 0.00024,0.16334 0.0011,0.24522c0,0 -0.00001,1.69323 -1.10165,2.87638c-0.2442,0.52506 -0.52688,1.0591 -0.85897,1.60748c-2.69229,4.4458 -8.30249,7.46923 -12.88672,10.11141c-1.33174,2.15456 -3.12352,4.81311 -5.16173,5.3503c-0.47779,0.12592 -0.93344,0.02501 -1.38104,-0.18318c-0.52833,0.80105 -0.95555,1.47477 -1.07145,1.63078c-1.20352,1.62 -2.83648,2.87156 -4.2545,4.30755c-0.99198,1.00456 -1.50692,2.59371 -2.78695,3.18928c-3.43872,1.59996 -8.8719,0.52771 -12.22084,-1.37687c-0.98404,0.7361 -2.38888,0.99573 -4.42848,0.40213c-2.76608,-0.80503 -3.38267,-4.66416 -5.074,-6.99625l0.26215,-0.91901h-0.36916v-3.66666v0c0,-2.20914 1.79086,-4 4,-4c0.55688,0 1.08719,0.1138 1.56893,0.31941c0.31185,-1.18196 0.72145,-2.32322 1.34364,-3.36692c0.05111,-0.08573 0.10356,-0.17041 0.1573,-0.25407l-0.04466,-0.0203l1.62916,-3.58415c0.61094,-1.42729 2.02817,-2.42731 3.67898,-2.42731c2.20914,0 4,1.79086 4,4v0.41737c0.65675,-0.47244 1.46254,-0.7507 2.33333,-0.7507c2.1769,0 3.94764,1.73897 3.99886,3.90355c1.34746,-0.20681 3.2332,-0.29904 4.72353,-0.26863c0.07768,-0.06295 0.15696,-0.12572 0.23793,-0.18831c1.23119,-0.95183 2.70286,-1.75376 4.25265,-2.52568c0.31301,-0.21749 0.67968,-0.41269 1.09538,-0.53689c0.65792,-0.31885 1.32284,-0.63734 1.98297,-0.96418c2.76738,-1.60504 5.82763,-3.61971 7.07719,-6.43018c0.99956,-2.24819 1.55926,-4.68572 2.30563,-7.08263c1.36729,-5.334 3.87176,-10.20788 5.90325,-15.61622c3.21724,-8.5651 5.25704,-17.8106 5.69384,-26.96986c-0.18365,-0.90932 -0.59382,-1.91078 0.07659,-2.34579c0.00434,-0.24845 0.00747,-0.49679 0.00939,-0.74499l0.14189,-0.16929l0.04304,-0.23673l-0.11357,-0.02523l0.37156,-1.67198c-1.02316,-1.10426 -1.88406,-2.00262 -2.23582,-2.36663c-3.14915,-3.2588 -7.30381,-5.65574 -10.78674,-8.53791c-2.07406,-1.71632 -3.22114,-4.44466 -5.09197,-6.36382c-1.34748,-1.38229 -6.48508,-3.8033 -4.88655,-6.83272c6.68583,-12.67051 14.72347,0.80764 20.46448,7.11702c1.59716,1.75529 5.25861,3.70222 7.13902,5.00104c6.26214,4.32533 14.04098,-2.25644 19.9514,-4.20522c-0.20586,-0.47459 -0.36624,-0.91405 -0.46059,-1.2294c-0.91531,-3.05945 -0.42396,-8.33572 -0.39338,-10.37598c0.05538,-3.6951 0.08773,-7.59473 1.59039,-11.05085c0.26131,-0.60101 2.72293,-3.0946 2.69551,-3.23834c-0.01444,-0.0757 -2.19854,-1.24538 -2.63043,-1.55254c-1.90235,-1.35295 -5.03188,-2.05651 -7.34714,-3.37783c-0.41848,0.13871 -0.90631,0.21957 -1.475,0.21957c-4,0 -4,-4 -4,-4l0.2861,-3.15223c2.37567,-5.93062 4.91053,-11.71581 6.91917,-17.77935c0,0 1.26491,-3.79473 5.05965,-2.52982c3.79474,1.26491 2.52982,5.05965 2.52982,5.05965c-1.39476,4.16163 -3.00988,8.19899 -4.65456,12.23947c1.00286,0.1806 1.94034,0.45166 2.60983,0.68312c5.10769,1.76587 9.96969,7.53332 16.16782,7.03935c0.1871,-0.45091 0.43247,-0.87154 0.7267,-1.2525c1.00582,-1.30228 2.5827,-2.14101 4.35548,-2.14101c2.27732,0 4.23138,1.38408 5.06685,3.35694c0.11458,0.1972 0.20574,0.4103 0.26894,0.64237c1.34341,4.93262 -4.04279,18.71451 -4.16912,25.2249c-0.08008,4.12698 -0.12158,8.25729 0,12.38326c0.06262,2.12498 2.36761,3.7591 2.36761,6.2c0,0.46592 0.00087,1.0206 -0.01208,1.62946c0.10824,-0.17937 0.21321,-0.36132 0.31451,-0.54616c0,0 1.94257,-3.49663 5.4392,-1.55406c3.49663,1.94257 1.55406,5.4392 1.55406,5.4392c-1.53095,2.72596 -3.41715,5.25695 -5.4416,7.63945c-0.85356,1.00453 -1.97309,1.71614 -2.11921,3.13169c-0.21518,2.08446 0.06419,4.19075 0.06419,6.2863v3c0,0 0,2.13448 -1.55923,3.285c0.0102,0.85831 0.02893,1.71648 0.05923,2.57444c0.04473,1.2667 0.93848,2.7752 1,4.14056c0.04226,0.93777 -0.21297,1.91348 -0.13619,2.83844c0.09915,-0.00339 0.2001,-0.0051 0.30286,-0.0051c0.38769,0 0.76705,0.06356 1.13657,0.17607c0.2384,-0.26668 0.49842,-0.54024 0.78009,-0.82191c1.50272,-1.50272 4.29404,-0.12986 5.94912,-0.76958c0.14116,-0.05456 0.28227,-0.11002 0.42329,-0.16637c0.53127,-0.71914 1.09022,-1.40946 1.74426,-1.98489c4.3102,-3.79211 9.35258,-6.8992 13.5935,-10.84959c2.11477,-4.36451 3.21177,-9.44753 5.97317,-13.38374c1.93763,-2.76197 4.33387,-5.05097 6.79852,-7.28842c0.68914,-1.36933 1.41238,-2.72305 2.20148,-4.04492c3.22438,-5.40135 8.13985,-8.99587 12.84425,-12.92242c0.81575,-0.68087 1.87134,-1.60323 3.03615,-2.52817c0.3789,-0.40832 0.75419,-0.81583 1.12423,-1.22277c0.12246,-0.16252 0.25372,-0.31804 0.39308,-0.46583c0.5528,-0.67934 1.1619,-1.43797 1.94606,-1.33022c0.63522,-0.25621 1.32926,-0.39726 2.05623,-0.39726c0.04913,0 0.09812,0.00065 0.14693,0.00192c0.38369,-0.11884 0.75793,-0.19994 1.11834,-0.23534c0.76993,-0.88626 1.52182,-1.78968 2.24398,-2.72235c0,0 2.45576,-3.1574 5.61317,-0.70164c3.15741,2.45576 0.70165,5.61317 0.70165,5.61317c-1.42816,1.82899 -2.95769,3.55027 -4.51136,5.25028c-0.04305,0.16782 -0.12468,0.35724 -0.23708,0.56257c-1.4599,3.71093 -5.99425,7.70004 -8.65153,10.00186c-2.99244,2.59215 -4.81001,6.38286 -7.70762,9.11722c-0.355,0.335 -0.72477,0.66924 -1.10508,1.00374c0.01104,0.52619 0.01579,1.05193 0.01785,1.57714c4.712,9.31696 10.22079,19.70762 12.32834,29.78392c0.21986,1.05116 -0.07958,2.15295 0.02624,3.22163c0.36937,3.7301 1.30575,7.40978 1.67786,11.15997l-0.0755,0.19926h0.08047v4.33333c0,0.69168 -0.17555,1.34235 -0.48454,1.90989c0.1446,0.49035 0.29295,0.99234 0.45003,1.4987zM322.29645,171.55324c-0.1891,0.31553 -0.37946,0.6346 -0.57202,0.95486c-0.00473,0.33597 0.10736,0.68652 0.1811,1.029c0.0484,0.00063 0.09748,0.00243 0.14706,0.00522c0.06888,-0.55018 0.14036,-1.04928 0.19885,-1.46359c0.0241,-0.1707 0.03778,-0.3465 0.04501,-0.52549zM253.55719,242.54768c-4,0 -4,-4 -4,-4l0.07768,0.1178c-0.6288,-3.20933 -1.96386,-6.23895 -2.92717,-9.3642c-1.64501,-5.33688 -1.98678,-10.6682 -4.17615,-15.8818c0,0 -1.26935,-3.04645 1.26516,-4.75794c-0.13664,-0.43866 -0.25498,-0.88361 -0.35091,-1.33605c-1.31705,-6.21193 -1.63464,-10.89137 -1.52949,-17.04672c-0.17708,-0.3288 -0.34692,-0.67333 -0.50709,-1.01893c-1.73593,-1.11728 -3.57345,-2.8218 -6.05796,-4.35501c-1.49855,-0.92477 -3.32756,-2.16866 -4.94102,-3.54799c-1.54854,4.66752 -3.71891,9.18989 -5.64354,13.6983c-2.28356,5.34918 -3.89097,10.86313 -5.31455,16.45207c-1.14559,5.50894 -2.2316,10.6163 -4.22736,15.63353c5.01323,5.27859 13.76473,11.81437 13.87521,17.74028c0.00054,0.0292 0.00081,0.05831 0.00081,0.08733c1.85499,1.2274 3.53003,2.7813 5.15374,4.29231c3.4019,3.16579 7.10584,6.14056 10.23443,9.56588c0.22966,0.25144 0.44889,0.51184 0.66079,0.77854c0.39909,-3.77314 1.45144,-7.43885 3.49579,-10.39623c1.56656,-2.26621 4.07085,-3.83639 5.43867,-6.31239c0.07515,-0.13604 0.14639,-0.26882 0.21405,-0.39878c-0.23036,0.03256 -0.47701,0.05 -0.74108,0.05z"></path><path d="M277.44751,44.45006c1.29079,1.99512 2.46248,4.03807 2.43956,6.59718c-0.04048,4.51972 -5.29971,8.80232 -8.13425,11.62792c-0.21013,0.20946 -2.65187,3.54131 -3.92702,3.5944l-1.88132,2.19487c-0.73373,0.8665 -1.8296,1.41658 -3.05395,1.41658c-2.20914,0 -4,-1.79086 -4,-4c0,-0.91505 0.30726,-1.75834 0.82424,-2.43232l1.97575,-2.63435l0.25328,0.18996c0.01735,-0.05053 0.035,-0.10098 0.05295,-0.15132l-0.04112,-0.0231c0.02529,-0.02389 0.05045,-0.04792 0.07548,-0.07211c0.06649,-0.18203 0.13707,-0.3628 0.2122,-0.54214c0.15694,-0.37466 0.50044,-0.57617 0.89724,-0.73376c0.58022,-0.7896 1.05735,-1.66174 1.42807,-2.55875c0,0 1.27657,-2.87228 4.11262,-2.39294c0.1832,-0.22903 0.36406,-0.4581 0.54263,-0.68609v-1.96308c0,-1.57416 0.09261,-3.15162 0.08596,-4.72537c-1.62883,-2.73322 -2.58621,-5.32805 -3.02276,-8.55113l-0.6159,-2.77155c-0.07448,-0.3051 -0.11397,-0.62391 -0.11397,-0.95194c0,-2.20914 1.79086,-4 4,-4c1.59681,0 2.97508,0.93567 3.61647,2.28865l2.96125,5.92249l-0.1164,0.0582c0.11682,0.16246 0.2311,0.32697 0.34263,0.49367c0.74737,1.1171 1.02109,2.89138 1.08639,4.80603z"></path></g><g fill-opacity="0.08235" fill="#b69edb" stroke="none" stroke-width="0.5"><path d="M262.89053,315.84768c-4,0 -4,-4 -4,-4l0.11943,0.30347c-0.65486,-2.67928 -2.00258,-5.01401 -2.66996,-7.67993c-0.16769,-0.66987 -0.24859,-1.35508 -0.29979,-2.04564c-0.70305,2.93698 -1.80781,5.79523 -2.16685,8.79226c-0.47487,3.96395 -0.10859,8.21786 -0.3239,12.21172c-0.22003,4.08128 -1.71513,7.94074 -1.66505,11.97265c-0.11723,1.07351 -0.23445,2.14701 -0.35168,3.22052l0.02446,0.22494c0,0 0,4 -4,4c-4,0 -4,-4 -4,-4l0.02447,-1.10839c0.10499,-0.92649 0.20999,-1.85299 0.31499,-2.77948c0.04046,-4.11369 1.45696,-7.90387 1.66828,-12.02735c0.20847,-4.06786 -0.14277,-8.4142 0.34277,-12.45495c0.41318,-3.4386 1.62158,-6.7343 2.39958,-10.10912c1.07096,-4.64558 0.57974,-9.80257 0.58326,-14.52071c0.00141,-1.89393 0.07598,-3.76211 0.15423,-5.62915c-1.21398,-0.49619 -2.12964,-1.5718 -2.40321,-2.88309l-0.7808,-3.38345c-3.35645,-2.90012 -4.70833,-6.57734 -7.81136,-9.62198c-2.09192,-2.05255 -4.64709,-3.64067 -6.5332,-5.88381c-2.57283,-3.05986 -3.74069,-4.69859 -6.26965,-6.56565c-0.66083,0.48242 -1.47518,0.76713 -2.35602,0.76713c-0.80087,0 -1.54676,-0.23536 -2.17229,-0.64069l-2.61437,-1.63398l0.13643,-0.2183l-0.64593,-0.15944c-1.87916,-2.27918 -4.04792,-3.0679 -6.16466,-5.15196c-0.77743,-0.76544 -1.30731,-1.76917 -2.13218,-2.48325c-2.81448,-2.43646 -6.69647,-4.28267 -8.34327,-7.97489c-0.93966,-2.10677 -0.83327,-4.5323 -0.58938,-6.89203c-2.97068,-1.37679 -5.51094,-1.92224 -4.72854,-7.63724c0.69627,-5.08585 7.07423,-6.38481 8.9938,-10.63134c3.73389,-8.26021 3.24364,-17.22048 5.78027,-25.78416c1.55546,-4.55579 3.63431,-7.7904 6.54942,-11.05661c0.06717,-0.28161 0.13379,-0.56333 0.19982,-0.84516l0.54146,-0.38014l-0.28354,-0.16202l0.78921,-1.38111c-1.58327,-1.56119 -3.34681,-3.34279 -3.50963,-3.55889c-1.58375,-2.10215 -2.49307,-4.31405 -3.06927,-6.62885c-1.02731,-0.68599 -2.10479,-1.29215 -3.26807,-1.75108l-0.0359,-0.04003l-0.00904,0.0211l-2.2486,-0.96369c-1.47071,-0.59113 -2.50906,-2.03075 -2.50906,-3.71289c0,-2.08984 1.60267,-3.80536 3.64599,-3.98455l3.28933,-0.32894l0.00532,0.05318c0.06428,-0.02317 0.12875,-0.04586 0.19344,-0.06806c0.78334,-0.26885 1.44586,-0.34302 2.04836,-0.29816c0.39705,-0.17361 0.86595,-0.29826 1.41954,-0.35362c2.20624,-0.22063 3.31184,0.90399 3.85909,1.95028c3.52837,0.75437 7.40545,1.15862 10.88616,1.75486c2.60339,0.44595 5.19505,0.9752 7.81557,1.30589c0.76452,0.09647 1.58481,-0.00592 2.30176,0.26244c-0.46819,-2.75663 -0.35356,-5.7319 -0.23598,-8.62319c-4.21307,0.21646 -9.02836,-2.50374 -12.29468,-4.06493c-4.49774,-2.14976 -7.84998,-4.88245 -12.01176,-7.52057c-0.04098,-0.02597 -0.08352,-0.05212 -0.12754,-0.07843c-0.6925,1.19217 -1.98327,1.99379 -3.46127,1.99379c-1.66296,0 -3.08889,-1.01479 -3.69233,-2.45889l-1.17174,-2.63643c-0.10951,-0.15204 -0.21727,-0.30451 -0.32331,-0.45743c-0.49375,-0.22734 -0.74259,-0.87439 -0.99116,-1.51936c-0.51161,-0.83404 -0.98015,-1.68021 -1.415,-2.53791c-0.67722,-1.15373 -1.27115,-2.31019 -1.85556,-3.45907c-2.63803,12.50062 -7.81042,24.28813 -12.68059,36.17303c1.73145,2.94475 -1.13697,5.09606 -1.13697,5.09606l-1.61334,1.19199c-1.39515,0.87151 -3.09819,1.30426 -4.29157,2.43643c-2.63176,2.49677 -1.55185,6.75919 -5.05884,9.24085c-1.30794,0.92553 -3.17245,0.46909 -4.76959,0.5974c-3.06685,0.24638 -6.72315,0.329 -9.7698,-0.02389c-0.47934,-0.05552 -0.98639,-0.07426 -1.48565,-0.11971c0.71149,4.27096 0.40725,9.1867 -5.59105,9.80731c-0.32488,0.03361 -0.64186,0.02645 -0.95075,-0.01739c-2.55377,4.51501 -5.26001,3.42335 -9.43604,0.10872c-3.88095,-3.08042 -4.69572,-9.22532 -5.67147,-13.55399c0,0 -0.80601,-3.62708 2.63136,-4.66659l0.28885,-2.88847c0.17918,-2.04333 1.8947,-3.64599 3.98455,-3.64599c1.41045,0 2.6504,0.73002 3.36262,1.83282l2.72673,4.09009c0.72938,-0.77346 1.76363,-1.25625 2.91065,-1.25625c0.50492,0 0.988,0.09355 1.43284,0.26428l4.57918,1.63542l-0.00791,0.02213c2.73347,0.23706 5.46334,0.41151 8.32923,0.41151c0.88889,0 1.7926,-0.16164 2.66666,0c0.26924,0.04979 0.40855,0.82295 0.56375,0.59739c0.31081,-0.45171 -0.01676,-1.11623 0.15218,-1.63787c0.47041,-1.45254 2.46892,-5.44689 3.45565,-6.45462c1.35471,-1.38355 3.20709,-2.14764 4.91182,-3.09582c-0.11267,-0.51136 -0.10844,-1.00888 -0.06001,-1.42894c0.01217,-0.19121 0.03103,-0.30439 0.03103,-0.30439l0.3098,-1.83855c0.8741,-6.85444 4.31695,-13.33979 6.94026,-19.70126c0.75144,-1.82222 2.0392,-3.43211 2.54668,-5.33674c0.28262,-1.06071 -0.00167,-2.21264 0.23358,-3.28485c0.70441,-3.2106 1.75875,-6.54251 2.94983,-9.82932l-0.16377,-0.02426l1.16353,-7.85386c0.07705,-0.5861 0.28099,-1.13223 0.58333,-1.6099c0.04404,-1.36201 0.09767,-2.71937 0.22597,-4.04951l-0.04729,-0.42561c-1.33302,-1.27486 -2.46259,-2.78938 -3.54669,-4.3567c-1.39832,-1.09566 -2.62609,-2.42391 -3.87,-3.66783c-0.91491,-1.1942 -2.37116,-1.85503 -3.60921,-2.70968c-0.32871,-0.22692 -5.03057,-4.36221 -5.57276,-4.83752l0.08712,-0.10984c-1.23305,-0.60368 -2.19252,-1.14992 -2.26374,-1.46446c-0.17007,-0.75102 -0.15167,-1.49802 -0.01639,-2.24251h-0.67134v-2.66667c0,-2.20914 1.79086,-4 4,-4c1.59681,0 2.97508,0.93567 3.61646,2.28866l0.86677,1.73354c1.40526,0.04761 3.13684,1.49018 4.39603,2.31214c3.18079,2.07631 4.99926,4.9271 6.91685,7.80751c2.45399,1.74 5.68034,3.41043 7.26727,5.57053c2.24079,-0.64026 4.73377,-0.62597 6.88959,-0.98153c0.18949,-0.03125 0.38146,-0.07205 0.57541,-0.12136l1.48707,-1.08246c1.28682,-0.72212 5.64719,-2.96042 5.69443,-4.78005c0.04617,-1.77794 -1.08559,-3.40505 -1.33415,-5.16613c-0.23738,-1.68191 0.05036,-7.23337 0.37262,-8.71845c0.93462,-4.30693 3.27954,-8.04359 6.19562,-11.28143c-0.04352,-0.05148 -0.08577,-0.10409 -0.12669,-0.15776l-1.7856,-2.29577c-2.7586,-1.62326 -5.57102,-3.06876 -8.34957,-4.65448c0,0 -2.90911,-1.66235 -1.8809,-4.60669c-0.41845,-2.77188 0.64009,-5.62327 0.90566,-8.43197l1.46471,-2.59607c0,0 2.82843,-2.82843 5.65686,0c2.04851,2.04851 1.12972,4.09702 0.46727,5.07099c-0.32897,1.26654 -0.67916,2.52942 -0.83429,3.82587c-0.02157,0.18021 0.3762,-0.04897 0.54411,0.01994c0.87255,0.3581 1.75757,0.71992 2.54041,1.24596c0.97782,0.65708 1.80262,1.51729 2.70276,2.2773c0.76533,0.64619 2.44122,0.95061 2.29366,1.94132c-0.00281,0.01886 -0.00595,0.03753 -0.00942,0.05603c0.05421,0.03405 0.10844,0.06817 0.16268,0.10238l0.04543,0.23079l0.08304,-0.06459l0.32963,0.42382l0.04629,-0.03472l1.02399,1.36531c0.52176,-0.27098 1.06021,-0.52132 1.55525,-0.82534c0.40079,-0.20037 0.82244,-0.42114 1.26039,-0.64914c0.84392,-0.74397 1.74199,-1.39945 2.77098,-1.83845c0.14273,-0.0609 0.28687,-0.11626 0.43228,-0.1666l-0.03175,-0.06349l2.59469,-1.29735c0.55586,-0.29265 1.189,-0.45828 1.86083,-0.45828c2.20914,0 4,1.79086 4,4c0,0.04837 -0.00086,0.09655 -0.00256,0.14451c0.04903,0.06879 0.09774,0.13915 0.1461,0.2111c1.14085,1.69731 -0.36123,4.07423 -0.55745,6.10988c-0.31464,3.26425 -1.46112,6.20837 -1.95481,9.39878c-0.55075,3.55916 -0.02541,7.83006 0.34563,11.37319c0.69706,6.65627 1.30779,13.03994 2.77858,19.54228c0.79875,0.17848 1.37834,0.55163 1.79891,0.99919c0.6298,0.59183 1.11226,1.49855 1.11226,2.88774c0,0.01105 -0.00003,0.02207 -0.00009,0.03306c-0.01495,4.3843 -1.15348,8.30581 -1.715,12.58751c-0.57615,4.3932 -0.7869,8.93499 -0.1735,13.31496c1.06219,0.41157 1.90483,1.26366 2.30377,2.33208l1.29873,3.24682l-0.07435,0.02974c0.06939,0.11139 0.13658,0.22441 0.20141,0.33915c1.01432,1.79532 0.89084,4.03313 1.14186,6.07984c0.599,4.88386 -0.33801,9.0107 -2.35413,13.38649c-1.73883,3.77396 -1.9076,6.1625 -5.57756,8.41774c-0.6694,0.41135 -1.41089,0.77314 -2.19915,1.08895l0.64463,0.53441c1.53749,2.80902 2.22448,6.00841 3.47856,8.95489c1.05781,2.48534 2.58898,4.70887 3.86437,7.07278c2.0918,0.56865 2.69909,2.91106 2.69909,2.91106c2.53063,9.79368 5.13108,19.56091 7.67235,29.35552c1.14113,4.39817 0.69954,8.92937 1.51593,13.26359c0.40231,0.83237 0.64384,1.65503 0.60802,2.43943c0.26069,0.86091 0.55186,1.71377 0.81635,2.57387c0.84869,1.14849 0.84868,2.57144 0.84868,2.57144l-0.0011,0.6365l0.19325,0.77301c0.09204,0.33675 0.14119,0.69122 0.14119,1.05716c0,0.64875 -0.15444,1.26142 -0.42857,1.80327c-0.06191,1.70939 0.00403,3.43134 -0.30228,5.11043c-0.53896,2.95434 -2.00516,5.81511 -2.67465,8.7094c-0.41118,1.7776 0.06945,3.68852 -0.36025,5.46173c-0.31166,1.28609 -1.0546,2.45296 -1.28589,3.7559c-0.36858,2.07641 0.60519,4.77821 -0.20151,6.86222c0.5865,1.05148 0.5865,2.16372 0.5865,2.16372c-0.0018,1.53601 -0.05077,3.05449 -0.11066,4.56815c1.42115,0.96373 1.72289,2.77425 1.72289,2.77425c0.33065,1.98638 0.08173,4.11262 0.82347,5.98474c1.22751,3.09819 3.04171,6.03804 3.793,9.43065c0.43155,1.94877 0.17197,4.01538 0.65515,5.95199c0.65296,2.61712 1.98896,5.00273 2.66337,7.6534l0.11943,1.63681c0,0 0,4 -4,4zM226.98692,243.44104c4.85904,3.02319 7.05362,5.49522 10.61128,9.80811c1.92601,2.33488 3.85741,3.13801 6.13347,5.44952c1.94015,1.97037 3.11849,4.56817 4.73716,6.81015c0.1681,0.23283 0.34515,0.4581 0.52927,0.67739c0.22661,-2.32538 0.74001,-4.62867 1.32486,-6.89005c0.43517,-1.68262 -0.05915,-3.50583 0.30642,-5.20493c0.61846,-2.87454 2.09566,-5.7255 2.65868,-8.62394c0.34911,-1.79721 0.09195,-3.66384 0.27411,-5.48555l-0.0005,-0.24735l-1.4431,-4.08877l0.06887,-0.02431c-0.04769,-0.06828 -0.09512,-0.13677 -0.14226,-0.20547c-0.48666,-0.70926 -0.15204,-1.74505 -0.50035,-2.53155c-1.19709,-2.7031 -3.62646,-4.75895 -4.73347,-7.50018c-0.56305,-1.39425 -0.44141,-2.97935 -0.80289,-4.4389c-0.55928,-2.25822 -1.9378,-4.24542 -2.61298,-6.47174c-0.48393,-1.59571 -0.49953,-4.80553 -0.77905,-6.47325c-0.34279,-2.04519 -0.95507,-4.05996 -1.05312,-6.13136c-0.15194,-3.20978 0.66272,-7.32013 0.05806,-10.5075c-0.50091,-2.64049 -1.99025,-4.88435 -3.39389,-7.13368c-0.6574,0.47403 -1.46457,0.75331 -2.33696,0.75331c-1.10457,0 -2.10457,-0.44771 -2.82843,-1.17157l-2,-2l0.07449,-0.07449l-0.26788,-0.13313c-1.51672,-2.01581 -3.30989,-4.81326 -5.37261,-6.86947l-0.29309,0.49117l-0.02891,0.11565c2.77249,1.73137 1.38107,4.91178 1.38107,4.91178c-2.3541,5.37459 -4.25537,10.86627 -6.21588,16.36562c-1.51159,4.24009 -2.18257,8.71495 -3.65589,12.92557c-0.20924,0.81256 -0.43464,1.62073 -0.68264,2.42276c-0.34752,1.12387 -1.20688,2.03986 -1.6028,3.14552l-0.27322,1.09288c-0.04602,0.20278 -0.10743,0.3997 -0.18297,0.58948c-0.52587,2.44809 -0.56447,4.90913 -1.45891,7.36533l-0.28329,2.26637c-0.02754,0.24962 -0.07804,0.49233 -0.14935,0.72595c0.00401,0.00403 0.00797,0.00802 0.0119,0.01194c4.35362,4.35362 5.87276,5.53573 9.31252,10.021c1.42642,1.85998 3.49756,3.44871 4.12033,5.70343c0.87282,0.17321 1.49196,0.55422 1.49196,0.55422zM233.51728,89.99968c-0.12706,-1.12268 -0.24904,-2.24963 -0.36978,-3.38244c-0.14324,0.09807 -0.29318,0.18706 -0.44899,0.26615c0.23021,1.0669 0.50014,2.11084 0.81877,3.11629zM226.48727,159.42985c-0.97661,-0.18629 -1.95242,-0.37602 -2.92791,-0.5649c0.41727,0.24244 0.86656,0.44199 1.35784,0.5834c0.41622,0.11981 0.95569,0.09902 1.57008,-0.0185z"></path><path d="M267.95895,38.85294c3.44911,-1.1497 4.80824,1.88055 5.0272,2.44207c1.92556,1.59549 4.49598,3.76806 5.26655,5.4886c2.86879,6.40548 -3.8315,11.34686 -7.56073,15.05254c-1.27483,1.26677 -1.99451,3.28816 -3.66289,3.95631c-0.20869,0.08357 -0.4194,0.15947 -0.63192,0.22849l0.07543,0.1383l-3.60156,1.96449c-0.58392,0.33341 -1.25997,0.52393 -1.98051,0.52393c-2.20914,0 -4,-1.79086 -4,-4c0,-1.10457 0.44771,-2.10456 1.17157,-2.82842l2,-2c3.20229,-3.19886 6.13022,-6.44724 9.4859,-9.47809c0,0 0.43119,-0.38806 1.11293,-0.70443c-1.09849,-1.10383 -2.46421,-1.91942 -3.66447,-2.91618l-1.56733,-2.80797c0,0 -1.26491,-3.79473 2.52983,-5.05964z"></path><path d="M269.22386,173.98101c-4,0 -4,-4 -4,-4l0.52702,-2.98455c1.24619,-2.18045 2.20571,-4.54752 3.71548,-6.5545c2.55738,-3.39958 5.65705,-5.30094 7.43558,-9.41884c0,0 1.62455,-3.65524 5.2798,-2.03069c3.65524,1.62455 2.0307,5.2798 2.0307,5.2798c-2.15474,4.74783 -5.6109,7.29295 -8.56442,11.24784c-1.02296,1.36979 -1.67308,2.97574 -2.44793,4.50534l0.02377,-0.0444c0,0 0,4 -4,4z"></path><path d="M331.22386,182.64768c-0.64477,0 -1.1856,-0.10393 -1.63926,-0.27829c-5.65956,1.18538 -13.41693,3.18578 -18.3345,-0.06377c-1.38326,-0.11515 -2.76028,-0.60587 -3.72359,-1.37092c-1.51416,-1.2025 -2.07889,-2.63587 -2.11947,-4.1262c-0.7462,-0.29489 -1.41924,-0.70459 -1.94321,-1.29154c-1.82646,-2.04602 -0.68189,-5.463 -1.41963,-8.10457c-1.45318,-5.2033 -5.40247,-9.53136 -7.98363,-14.15548c0,0 -1.1104,-1.99872 -0.14103,-3.8134c-1.029,-1.17789 -1.029,-2.79584 -1.029,-2.79584v-0.66667c0.00659,-3.71794 -0.39443,-6.88229 -1.20672,-10.33488c-0.60131,-2.55587 -0.41709,-5.37343 -1.61592,-7.70942c-0.46244,-0.90109 -1.45331,-1.42333 -2.05548,-2.23771c-1.45317,-1.96527 -2.29873,-4.3269 -3.18454,-6.60491c-0.8227,-2.1157 -2.29281,-3.9886 -2.83034,-6.19407c-0.49944,-2.04921 -0.5291,-8.57976 0.08382,-10.47306c1.20277,-3.71534 4.79467,-5.95295 7.44179,-8.39656c1.57184,-1.451 3.3808,-4.98018 5.9727,-4.90602c0.46321,0.01326 0.91945,0.06602 1.37028,0.14947l0.02326,-0.27903l2.03679,0.16974c0.21531,-0.40043 0.44613,-0.79143 0.70322,-1.16647c2.39506,-3.49388 5.81147,-6.64925 8.65525,-9.7302c0,0 2.71312,-2.93922 5.65233,-0.2261c2.93921,2.71312 0.22609,5.65233 0.22609,5.65233c-2.59789,2.81421 -5.80651,5.74184 -8.01141,8.93647c-1.16298,1.685 -1.69684,3.74923 -2.85064,5.44053c-3.40355,4.98907 -7.87103,9.69604 -12.15832,13.96197l-0.35523,0.07028l0.09469,0.13257l-0.5026,0.359c0.60296,1.21142 1.41616,2.34432 1.90698,3.60632c0.62754,1.61352 1.09982,3.35114 2.14879,4.72842c0.81793,1.07394 2.01605,1.88394 2.61118,3.09562c1.45701,2.96644 1.62705,6.40686 2.38408,9.62392c0.97165,4.12907 1.45317,7.96432 1.45995,12.33178v0.66667c0,0 0,0.93831 -0.45445,1.90602c0.40722,0.4391 0.61775,0.81807 0.61775,0.81807c2.78535,5.04118 7.78528,10.6222 9.13939,16.66521c0.73352,-0.85075 1.81919,-1.3893 3.03064,-1.3893c1.83134,0 3.37525,1.23071 3.84974,2.91018l1.30671,4.2468l-0.16387,0.05042c0.14367,0.40445 0.25906,0.81907 0.33894,1.24645c0.10076,0.53913 -0.30082,0.96613 -0.80736,1.36938c0.02807,0.68753 -0.01885,1.38914 -0.13728,2.07785c0.52644,-0.21979 1.08957,-0.49242 1.51051,-0.5611c3.82032,-0.62338 7.62684,-1.31577 11.44502,-1.95224l4.6576,4.61224c0,0 0,4 -4,4z"></path></g><g fill-opacity="0.08235" fill="#b69edb" stroke="none" stroke-width="0.5"><path d="M243.31906,161.63537c-4,0 -4,-4 -4,-4v-0.33333c0.00291,-3.21672 0.15981,-6.4219 0.25729,-9.6338c-1.82756,-0.11199 -3.62113,-0.52631 -4.64507,-0.94799c-2.48033,-1.02146 -4.5753,-2.28331 -6.3941,-3.76219c-2.77671,0.41476 -5.81269,-0.79479 -8.52495,-1.44296c-7.78782,-1.8611 -16.87369,-5.14393 -19.80462,-13.56605c-0.12351,-0.35491 -0.2254,-0.71877 -0.30936,-1.08979c-2.22595,8.26791 -5.40846,16.17806 -7.80906,24.43155c-0.11503,1.01042 -0.11341,2.13681 -0.76857,2.76375c-0.19969,0.75499 -0.39139,1.51344 -0.5738,2.27586l-0.41578,0.31095l0.2324,0.11621l-1.29458,2.58916c-0.64138,1.35298 -2.01965,2.28865 -3.61646,2.28865c-2.20914,0 -4,-1.79086 -4,-4c0,-0.50492 0.09355,-0.988 0.26428,-1.43283l1.60211,-4.48592c0.03151,-1.06083 0.68287,-2.01434 0.91917,-3.04925c0.96776,-4.23856 1.81034,-8.50552 2.61786,-12.77751c1.74809,-9.24785 4.54666,-18.24803 7.12641,-27.29666c-0.14204,-0.96504 -0.2736,-1.93171 0.22472,-2.54291c-0.08905,-0.10322 -0.17795,-0.2099 -0.26671,-0.32028c-0.52531,-0.6532 -1.06391,-1.60595 -1.57679,-2.65202c-1.49892,-2.39265 -2.97511,-4.78157 -4.43621,-7.25683c-2.01603,-1.68489 -3.6921,-3.45773 -5.51666,-5.58822c-1.23761,-1.44513 -1.95914,-3.39277 -3.49997,-4.50899c-1.16824,-0.84631 -2.60032,-1.24997 -3.90047,-1.87495l-0.26776,-1.35862l-0.53435,0.26718l-1.29734,-2.5947c-0.29265,-0.55585 -0.45828,-1.189 -0.45828,-1.86083c0,-2.20914 1.79086,-4 4,-4c0.44844,0 0.87964,0.0738 1.28213,0.2099l5.2443,1.63885l-0.03146,0.10068c0.34866,0.10228 0.69223,0.22469 1.02978,0.37094c2.46465,1.06782 3.78537,3.8375 5.38049,5.9986c1.84543,2.50023 3.38232,5.41401 4.90038,8.28874c0.69907,0.53134 1.39431,1.06732 2.0523,1.64732c0.37937,0.82313 0.72911,1.66433 1.07868,2.5061c0.73376,-0.87296 1.83379,-1.4278 3.06341,-1.4278h2.41804c1.08184,-0.17956 2.17181,-0.28902 3.26659,-0.34928l-0.04862,-0.18232l4.9119,-1.30984c0.10667,-0.03101 0.21518,-0.0577 0.32532,-0.07987c1.8416,-2.64323 3.78572,-4.64338 6.56152,-5.95742c-0.13061,-1.23501 -0.10142,-5.19875 -0.10142,-6.12126c0,-4.03949 -0.4115,-7.72219 1.35824,-11.03601c0.06282,-0.3089 0.12678,-0.61848 0.19161,-0.9288l0.39168,-0.39776l-0.1859,-0.09295l1.04633,-2.09267c-1.74094,-2.17893 -3.15582,-3.71772 -5.76247,-5.50821c0,0 -2.55551,-1.78885 -1.57332,-4.46386l-1.34673,-2.84293c0,0 -0.97015,-3.88056 2.91043,-4.85071c3.88057,-0.97015 4.85071,2.91042 4.85071,2.91042l-0.94407,-0.73355c1.82259,1.57036 4.10871,2.61137 5.72889,4.38981c0.62501,0.68606 1.18155,1.52316 1.68061,2.45138c1.61184,0.67699 3.75603,0.67534 4.80683,2.06752c0.09539,0.12638 0.18026,0.27678 0.25576,0.44763l3.75246,-2.34529c0.62553,-0.40533 1.37142,-0.64069 2.17229,-0.64069c2.20914,0 4,1.79086 4,4c0,1.10457 -0.44771,2.10456 -1.17157,2.82842l-1.91878,1.91878c-0.50509,1.19446 -1.3974,2.24104 -1.68332,3.50513c-0.48665,2.15157 -0.23526,4.41438 -0.59233,6.59121c-0.11649,1.27575 -0.21966,2.57681 -0.30185,3.89059c1.88521,4.61485 3.96844,9.18287 4.00119,14.26586c0.01472,2.28547 0.27764,8.19458 -1.99229,9.1263c-0.3666,0.15048 -0.71842,0.27245 -1.05611,0.368c0.35953,1.50093 0.70698,2.99621 1.02639,4.49393c0.35534,0.88206 0.35534,1.67844 0.35534,1.67844c0,0.01732 0,0.03464 0.00001,0.05195c0.78814,4.00294 1.33332,8.04546 1.33332,12.28138v0.66666c0,0 0,1.24311 -0.693,2.34333c0.00811,0.17124 0.01605,0.3426 0.0238,0.51409c0.10908,2.41437 -0.29037,4.58235 0.47518,6.91191c0.50482,1.53615 1.36065,2.99588 2.46225,4.17954c0.92351,0.9923 2.35247,1.66902 2.80104,2.94821c0.09944,0.28358 0.20591,0.57579 0.31401,0.87417c2.95006,0.63024 2.95006,3.89542 2.95006,3.89542c0,4.6787 -0.33804,9.33008 -0.33334,14v0.33333c0,0 0,4 -4,4zM224.76176,119.50051c-0.11881,-0.55233 -0.21765,-1.10162 -0.29242,-1.65641c-0.9142,-0.16928 -1.71604,-0.78829 -2.39666,-1.6884c0.45222,0.74705 0.99262,1.47566 1.63885,2.23585c0.31873,0.37493 0.67231,0.74543 1.05024,1.10896z"></path><path d="M261.82397,65.4638c-2.82842,-2.82842 0,-5.65685 0,-5.65685l1.33333,-1.33334c1.92077,-1.90882 3.67378,-3.99629 5.26015,-6.19092c0,0 2.35269,-3.23494 5.58763,-0.88226c3.23494,2.35268 0.88226,5.58763 0.88226,5.58763c-1.84449,2.52275 -3.86934,4.92667 -6.07318,7.14241l-1.33334,1.33333c0,0 -2.82842,2.82842 -5.65685,0z"></path><path d="M287.53021,107.54642c-3.57771,-1.78885 -1.78886,-5.36657 -1.78886,-5.36657l1.08262,-1.70624c2.76831,-2.72438 4.92404,-6.10676 7.44154,-9.08867c0,0 0.08678,-0.10256 0.24732,-0.25418c0.65853,-1.10004 1.46291,-2.21315 2.83584,-3.84101c1.514,-1.79514 3.98429,-2.64054 5.42415,-4.49567c1.49867,-1.9309 2.54123,-4.17609 3.81184,-6.26413c0,0 2.10541,-3.40106 5.50647,-1.29564c3.40106,2.10542 1.29565,5.50648 1.29565,5.50648c-1.53661,2.4467 -2.81398,5.07684 -4.60984,7.34011c-1.47918,1.86417 -3.95655,2.74487 -5.4875,4.56676c-2.04633,2.4352 -2.46336,3.56086 -3.72601,6.1099l-0.33333,0.66666c0,0 -0.97111,1.94223 -2.91333,2.24912c-1.20749,1.54009 -2.44621,3.05049 -3.83595,4.45713l0.41595,-0.37291c0,0 -1.78885,3.57771 -5.36656,1.78885z"></path><path d="M326.48082,179.13047c-0.49036,0.49035 -0.98071,0.81069 -1.45632,1.00521c-1.9673,2.73805 -6.48844,5.39142 -9.06825,4.77199c-4.08839,-0.98166 -5.82176,-4.05823 -5.95761,-7.60121c-2.4192,-0.88137 -5.67887,-1.98252 -7.07807,-3.13663c-4.32295,-3.56571 -4.56156,-8.44261 -4.60145,-13.52814c-0.00005,-0.00418 -0.00005,-0.00632 -0.00005,-0.00632c0,0 0.00001,-0.02118 0.00155,-0.06046l0.05011,-1.96547c-0.97146,-2.82821 -0.67616,-5.81467 -1.56748,-8.55265c-0.97429,-2.99284 -2.97559,-5.63191 -4.1601,-8.5109c-3.20436,-7.78827 -4.68829,-15.95811 -6.25342,-24.16206c0,0 -0.74845,-3.92936 3.1809,-4.67781c3.92935,-0.74845 4.6778,3.1809 4.6778,3.1809c1.45281,7.63893 2.75759,15.25283 5.74658,22.5046c1.32164,3.20651 3.46595,6.12285 4.50656,9.4891c0.96091,3.10843 0.73999,6.28525 1.76585,9.44735l0.05128,3.28338c0.00038,0.01576 0.00037,0.02401 0.00037,0.02401c-0.00004,0.00377 -0.00007,0.00754 -0.00011,0.01131c-0.01259,1.15262 -0.15041,2.31088 -0.03527,3.45776c0.42012,4.1847 2.67262,3.7599 5.96759,5.19771c0.22947,0.10013 0.58337,0.28017 1.00097,0.49465c1.55559,-0.42945 3.33817,-0.40734 4.93478,-0.45888c0.79701,-0.02573 4.95632,1.82316 6.04107,2.28753l2.25275,1.84815c0,0 2.82842,2.82843 0,5.65686z"></path><path d="M169.88475,186.26184c-3.9598,0.56569 -4.52548,-3.39411 -4.52548,-3.39411l1.64191,0.57395c-1.71778,-0.98295 -3.44879,-1.82197 -5.21035,-2.65358c1.27381,5.19302 1.24004,11.13673 -6.39078,10.74027c-0.99129,-0.0515 -2.0108,-1.64306 -2.92413,-3.64274c-1.05816,0.84556 -2.4531,1.45212 -4.2704,1.72471c-2.09235,0.31384 -3.07446,-2.96009 -4.2297,-4.73262c-2.24023,-3.43726 -2.74958,-7.90424 -3.57095,-11.75163c0,0 -0.82404,-3.9142 3.09016,-4.73824c0.56324,-0.11857 1.06249,-0.13904 1.50451,-0.08718c0.17004,-2.05252 1.88977,-3.66529 3.98619,-3.66529c1.67638,0 3.11189,1.03124 3.70678,2.49394l1.1569,2.66977c0.3602,-0.10653 0.74158,-0.16371 1.13632,-0.16371c0.43225,0 0.8485,0.06857 1.23844,0.19541l3.24428,0.97329l-0.01981,0.06602c0.11511,0.01413 0.23011,0.02975 0.345,0.047c1.30315,0.19564 2.34875,1.19656 3.54174,1.75624c2.59983,1.21968 5.13432,2.39533 7.6349,3.82241l2.30858,5.24062c0,0 0.56569,3.9598 -3.39411,4.52549z"></path><path d="M263.6524,312.18101c-4,0 -4,-4 -4,-4l0.01985,0.06468c-0.23692,-2.4547 -0.44192,-5.54666 -1.18155,-7.90554c-0.54678,-1.74386 -1.58229,-3.39893 -2.47966,-5.06596c-1.47523,11.38124 -3.50617,22.66163 -4.15245,34.1642c-0.00463,0.10746 -0.0105,0.21481 -0.01773,0.322c-0.12086,2.24197 -0.18846,4.49248 -0.18846,6.75394v2.66667c0,2.20914 -1.79086,4 -4,4c-2.20914,0 -4,-1.79086 -4,-4v-8c-0.81356,-2.30509 -0.00045,-4.88889 0,-7.33333c0.00034,-1.82367 -0.07375,-3.64893 0.00237,-5.47102c0.57399,-13.74065 3.99763,-27.08472 3.99763,-40.86231v-0.94692c-0.86308,-0.52062 -1.70781,-1.06982 -2.50291,-1.47855c-3.12365,-1.60571 -5.84983,-6.9978 -7.88251,-9.868c-2.64067,-2.64067 -3.60899,-5.0224 -5.36932,-8.17998c-0.77967,-1.39852 -2.20597,-2.68694 -3.76128,-3.84123c-0.54529,0.27858 -1.16296,0.4357 -1.81732,0.4357c-1.00215,0 -1.91824,-0.36854 -2.6201,-0.97749l-2.21741,-1.90064c-2.27694,-1.64488 -4.07287,-3.60928 -6.51441,-5.0019c-4.3409,-2.47598 -11.43618,-5.16629 -13.96371,-9.81468c-0.65578,-1.20604 -0.66955,-4.61408 -0.56248,-7.54032c-1.19479,-2.66753 -1.65152,-5.84931 -2.07538,-8.49007l-0.04651,-0.94156c0,0 0,-4 4,-4c0.149,0 0.29246,0.00555 0.43058,0.01624c0.34527,-0.23321 0.72892,-0.41394 1.13948,-0.53072c-0.01949,-1.97604 0.36756,-4.03654 0.43405,-6.00011c0.1486,-4.38838 1.06832,-8.82146 2.72538,-12.88768c0.82656,-1.50476 1.71649,-2.97503 2.59604,-4.45068c0.73905,-4.29511 1.23056,-8.65588 2.08549,-12.93152c0,0 0.51772,-2.58862 2.81494,-3.13935c0.282,-2.04116 0.59707,-4.07746 0.97507,-6.10327c-1.18582,-0.66491 -1.77874,-1.85073 -1.77874,-1.85073l-0.08383,-0.23672c-3.24561,-4.8965 -5.41224,-10.16339 -8.19368,-15.3224c0,0 -1.8964,-3.52188 1.62548,-5.41828c3.52188,-1.8964 5.41829,1.62548 5.41829,1.62548c0.24707,0.4594 0.48871,0.92012 0.72632,1.38171l1.2512,0.6256c0.54934,-0.28391 1.17291,-0.44423 1.83392,-0.44423c1.01111,0 1.93461,0.37516 2.63887,0.99387c0.64774,-0.47567 1.54976,-0.77531 2.80286,-0.63608c3.97554,0.44172 3.53381,4.41726 3.53381,4.41726c-0.20962,1.37529 -0.1411,2.82301 -0.62884,4.12588c-0.01371,0.03662 -0.02896,0.07233 -0.04562,0.1072c1.21724,1.52568 2.46034,3.02553 3.61056,4.65302c0.52033,0.73623 1.00319,1.49676 1.46692,2.26976l0.17359,0.07422c0,0 1.99996,1.3333 1.86564,3.48313c0.53753,0.94063 1.0875,1.87342 1.68162,2.7779c0.67897,1.03367 1.48723,1.99112 2.2602,2.96752c0.40778,0.24218 0.6496,0.45981 0.6496,0.45981c2.56364,2.33348 4.48068,3.37278 7.3087,5.16687c1.20173,0.76237 2.69494,1.24377 3.53719,2.39093c1.38337,1.88418 1.76214,4.07921 1.81843,6.35813c0.98528,0.95514 1.24881,2.27278 1.24881,2.27278l0.68692,3.44246c0.35696,2.51335 1.08347,4.97001 1.35747,7.49375c0.2749,2.53198 0.18155,5.09739 0.25794,7.64523c0.36648,1.02295 0.75092,2.03909 1.15395,3.04586c1.56041,3.89799 3.32635,7.5668 3.88672,11.75601c0.32136,1.28545 0.59107,2.58721 0.78364,3.89893l1.04958,3.14872c0.15198,0.42272 0.23479,0.87843 0.23479,1.35349c0,0.07726 -0.00219,0.154 -0.00651,0.23017c1.00651,1.17554 1.00651,2.76983 1.00651,2.76983c0,4.73161 0.86919,10.50347 -0.08169,15.1376c-0.44371,2.16246 -2.05373,3.92892 -2.75661,6.02154c-1.04353,3.10681 -1.49565,6.98645 -2.28832,10.17265c-0.17917,0.72017 -0.21695,1.58142 -0.21188,2.50077c2.3385,0.91638 2.3385,3.71308 2.3385,3.71308c0,1.35811 -0.02425,2.71207 -0.06968,4.06239c0.04461,0.05305 0.08898,0.10632 0.1331,0.15983c0.54348,0.65911 0.22979,1.72044 0.59463,2.4929c0.48406,1.02488 1.4119,1.79486 1.91114,2.81243c1.07986,2.20101 1.3016,4.73426 2.1617,7.03007c1.00027,2.66994 2.90461,5.19273 3.76414,7.94991c0.88432,2.83668 1.18268,6.48953 1.48512,9.42779l0.01985,0.73134c0,0 0,4 -4,4zM226.81416,242.14028l1.70753,1.73506c3.62005,2.3924 7.90677,5.23392 10.21879,9.02118c1.94135,3.18007 1.98392,4.5066 4.63067,7.15336c1.37599,1.91196 2.72911,3.92887 4.13351,5.83953c0.39576,-0.9182 0.96614,-1.77488 1.28697,-2.96688c0.69074,-2.56633 0.52893,-5.5885 1.36573,-8.11295c0.61919,-1.86798 2.21024,-3.37829 2.57673,-5.3118c0.77709,-4.09985 -0.08169,-9.33341 -0.08169,-13.52907c0,0 0,-0.12447 0.02196,-0.3295c-0.30915,-0.34452 -0.55938,-0.74299 -0.73485,-1.17955l-0.96368,-2.2486l0.1817,-0.07788l-0.07223,-0.21668l-0.29366,-0.23494c-0.05207,-0.38332 -0.10785,-0.76628 -0.16755,-1.1487l-0.04496,-0.13487c-0.24737,-0.29432 -3.94276,-9.13188 -4.12606,-9.73595c-0.80698,-2.65946 -1.18133,-5.36822 -1.41525,-8.10183c-1.46997,-4.02808 -2.72285,-8.18855 -3.5966,-12.27719c-0.70233,-3.28651 -0.2581,-6.44506 -0.44776,-9.73244c-0.06091,-1.05577 0.48137,-2.3545 -0.19614,-3.16651c-0.36527,-0.43778 -0.8769,-0.67865 -1.42958,-0.86832c-0.66542,0.49402 -1.48959,0.78628 -2.38201,0.78628c-0.91505,0 -1.75834,-0.30727 -2.43232,-0.82424l-2.63434,-1.97575l0.03775,-0.05033l-0.14066,-0.02951c-2.83361,-2.46518 -5.30097,-5.0326 -7.50704,-7.77809c-0.77765,2.36917 -1.62768,4.66931 -2.54869,6.93162c-0.14757,1.44695 -0.30416,2.89361 -0.48851,4.33868c-0.94436,7.40244 -3.22924,14.53851 -4.32448,21.93986c-0.41906,2.83193 -0.56687,5.91704 -2.2957,8.38125c-0.69753,0.99424 -1.296,2.42906 -2.08011,3.45371c-0.52065,1.67953 -1.50489,3.93902 -2.86646,5.71988c1.1407,0.92943 2.42718,1.71828 3.4677,2.75676c2.64772,2.64254 5.4501,4.98384 8.0565,7.72537c0.88294,0.92872 1.66105,1.93844 2.36389,3.00443c1.81789,-0.15841 3.22091,1.2446 3.22091,1.2446z"></path></g></g></g></svg>