<svg version="1.1" xmlns="http://www.w3.org/2000/svg" xmlns:xlink="http://www.w3.org/1999/xlink" width="548" height="359" viewBox="0,0,548,359"><g transform="translate(34,-1)"><g stroke="none" stroke-miterlimit="10"><g stroke-width="0.5"><g><path d="M268.79658,128.39303c-0.42003,0.0086 -0.85989,-0.06257 -1.2925,-0.22301c-1.18684,-0.44016 -1.97691,-1.42533 -2.07435,-2.44184l-0.30003,-2.4627c-1.0095,-4.60749 -0.62317,-6.72214 -0.42282,-10.973c0.15503,-3.28933 -0.91199,-4.79994 0.3293,-7.983c0.01567,-0.04019 0.03155,-0.08029 0.04763,-0.1203l-0.01796,-0.00538l1.12337,-4.17597c0.01803,-0.07031 0.03982,-0.14016 0.06549,-0.20937c0.03636,-0.09806 0.07946,-0.19202 0.12873,-0.28169c-0.5741,-0.44051 -2.03762,-1.80109 -0.78784,-3.45359c1.52783,-2.02016 4.05494,-0.43624 4.05494,-0.43624c2.46247,1.54949 5.85829,3.55141 8.57237,5.72469c0.35683,0.25144 0.72292,0.55863 1.0983,0.92468c0.72217,0.64245 1.36798,1.29598 1.89805,1.95376c1.17621,1.45958 1.48207,2.56009 1.82379,3.51857c0.30004,0.4481 0.5381,0.94446 0.72602,1.46051c0.38036,0.51307 0.94376,1.01742 1.87707,1.55781c0.95297,0.11627 1.58253,0.57026 1.99007,1.0477c0.42692,0.40824 0.78895,0.96904 0.78114,1.69415c0.84911,3.55899 1.97631,6.63965 1.55034,10.15475l0.87843,1.37604c0.34934,0.36433 0.62217,0.85879 0.72057,1.52983c0.00012,0.0008 0.00024,0.0016 0.00036,0.00241c0.08516,0.45068 0.07767,1.00348 -0.24752,1.49591c-0.31117,0.50018 -0.83105,0.76997 -1.29843,0.91547c-0.00082,0.00029 -0.00164,0.00057 -0.00245,0.00087c-0.6087,0.21392 -1.15055,0.24758 -1.62363,0.17342c-3.78367,0.03781 -6.02827,0.33173 -9.4949,1.54868l-0.26725,-0.01901l0.02555,0.07108l-2.42492,0.41995l-1.96193,1.75871c-0.73838,0.69654 -1.97144,0.92253 -3.15065,0.4852c-1.18684,-0.44016 -1.97691,-1.42532 -2.07436,-2.44183l-0.31032,-2.54724l0.07923,0.00105z" fill="#baafcc"></path><path d="M280.04398,104.57932c0.52123,0.42581 0.87828,0.97862 1.01406,1.5593l1.52163,2.03474c3.24654,1.90855 6.04956,4.32751 6.9645,7.35001c0.03109,0.10273 0.05962,0.20555 0.08576,0.30845l0.04729,-0.00862l1.05926,2.85622c0.19862,0.51498 0.22336,1.06871 0.03127,1.58665c-0.4801,1.29455 -2.13286,1.87539 -3.69151,1.29734c-0.11935,-0.04426 -0.23468,-0.09404 -0.3457,-0.1488l-3.23138,-1.54964l0.01896,-0.0357l-0.16347,-0.03766c-1.97481,-1.17804 -4.0088,-2.19642 -6.08319,-3.11941c-0.02407,-3.40313 0.01594,-6.79507 -0.08616,-10.21667c-0.08499,-2.84804 -0.89028,-5.74356 -1.44656,-8.62425c1.87003,1.7021 3.23797,4.19483 4.30525,6.74802z" fill-opacity="0.38824" fill="#2d1440"></path><path d="M273.58138,130.05205c-1.26541,-0.34086 -1.87375,-0.9983 -2.15748,-1.63128c-0.30966,-0.02635 -0.62574,-0.09565 -0.93804,-0.21147c-0.85263,-0.31621 -1.50048,-0.9137 -1.83387,-1.60202l-1.69999,-3.46327l0.1553,-0.04353l-0.3104,-0.34927c-0.78696,-5.88116 -1.59249,-11.85156 0.35327,-17.28787c0,0 0.8693,-2.34399 3.69151,-1.29734c0.25689,0.09528 0.4832,0.2013 0.68236,0.31532c0.71641,-0.80232 2.03053,-1.08679 3.28382,-0.62199c1.26954,0.47083 2.0851,1.56527 2.08454,2.65462l0.11273,4.2497l-0.06691,-0.0057c0.02064,0.08529 0.04039,0.17069 0.05922,0.25621c0.37423,1.70026 -1.36164,3.16545 -1.10415,4.86989c0.15459,1.02332 0.98498,1.96203 1.2665,2.97801c0.34756,1.2543 0.51583,5.11322 0.58778,6.26523l-0.71292,3.26093c0,0 -0.55232,2.44525 -3.45327,1.66384z" fill-opacity="0.1098" fill="#f2d6ff"></path></g><path d="M267.03484,132.5478c-0.16584,-0.28795 -0.27413,-0.55454 -0.33627,-0.80076c-0.15659,-0.03508 -0.31349,-0.08132 -0.46946,-0.13917c-1.18684,-0.44016 -1.97691,-1.42532 -2.07436,-2.44183l-0.30167,-2.47616c-1.58983,-3.84583 -1.51386,-7.73483 -0.74512,-11.57093c-0.36813,-2.70535 -0.55571,-5.37518 -0.3955,-7.85012c0.23296,-3.59885 2.11695,-7.08973 3.34064,-10.38929c0,0 0.02108,-0.05685 0.06734,-0.14888c0.19678,-0.466 0.5902,-1.02119 1.37281,-1.26283c0.48265,-0.17948 1.10673,-0.231 1.90118,-0.00139c0.80406,0.18409 1.34287,0.53657 1.7037,0.93435c0.36603,0.36355 0.55833,0.76006 0.65088,1.13049c0.05764,0.03955 0.08866,0.06348 0.08866,0.06348c0.62426,0.48385 1.19791,1.01532 1.76109,1.55635c0.78277,0.36138 1.20568,0.8723 1.42885,1.36851c0.49275,0.45491 1.00276,0.89317 1.55538,1.2907c0.23678,0.17033 0.47897,0.33425 0.72503,0.49357c0.06433,0.01989 0.12858,0.0417 0.19268,0.06547c0.51317,0.19032 0.95217,0.48253 1.29307,0.83512c1.17595,0.68217 2.37034,1.34172 3.43405,2.15433l1.58655,2.26615c0,0 0.8922,1.54906 -0.11332,2.63331c0.45718,0.42642 0.84973,0.92773 1.16743,1.47165c2.37812,1.6075 4.35378,3.45604 4.56941,6.36432c0.00641,0.08647 0.01129,0.17275 0.01474,0.25884l0.03569,0.00005l0.45436,3.31524c0.05964,0.36671 0.03028,0.74085 -0.10217,1.09797c-0.4801,1.29455 -2.13286,1.87539 -3.69151,1.29734c-0.2582,-0.09575 -0.49761,-0.2173 -0.7152,-0.35936l-2.72187,-1.70598l0.02615,-0.03457l-0.16738,-0.05877c-1.4408,-1.13993 -3.117,-2.09304 -4.87322,-2.75329c-0.21112,-0.07937 -0.42298,-0.15736 -0.63495,-0.23522c0.56842,1.94377 0.9509,3.87586 0.71661,5.81333c0.05627,0.3122 0.09577,0.62817 0.1219,0.94581l1.09168,2.36829c0.2641,0.56231 0.31885,1.183 0.10509,1.75939c-0.14794,0.39891 -0.40722,0.73004 -0.74079,0.98039c-0.43986,0.82251 -1.42453,1.16855 -1.42453,1.16855c-0.5414,0.19027 -1.08281,0.38054 -1.62421,0.57081c0.06403,0.08852 0.12867,0.17652 0.19393,0.264l0.68923,1.16333c0,0 1.38091,2.39756 -1.22938,3.31491c-1.6602,0.58346 -2.82308,-0.17404 -3.44968,-0.80276c-1.56059,-0.4402 -2.1223,-1.95482 -2.1223,-1.95482c-0.04411,-0.11934 -0.08803,-0.23852 -0.13173,-0.35757c-0.76002,-0.1293 -1.61221,-0.54104 -2.2235,-1.60236z" fill-opacity="0.37255" fill="#2d1440"></path></g><g stroke-width="0.5"><g><path d="M205.91372,254.93874c0,0 0.11857,-0.59285 0.54011,-1.10246c0.08956,-0.40124 0.18354,-0.80177 0.28322,-1.20136c0.51847,-2.07843 1.05628,-4.13013 1.54536,-6.19273c0.21494,-6.03784 2.97192,-11.19136 7.65294,-14.83564c2.71909,-2.11687 3.83839,-4.03812 7.79753,-3.66645c0.31835,0.02989 0.61966,0.07414 0.90514,0.1318c0.21078,-1.09152 0.44297,-2.17718 0.70194,-3.25521c0.77346,0.00038 1.53945,-0.00225 2.28627,-0.01323c0.78383,-0.01153 1.57056,-0.01906 2.35923,-0.02523c-0.52503,2.00183 -0.94503,4.03556 -1.2976,6.08823c0.59035,0.93222 1.01215,2.0148 1.3946,3.14365c0.67591,0.0066 1.2805,0.31123 1.68867,0.78878l1.65096,1.90954l-0.05328,0.04606c0.1065,0.09911 0.20896,0.20313 0.3068,0.31275c1.11496,1.24916 1.76941,4.06042 2.19122,6.55185c0.10417,0.16808 0.20977,0.3352 0.31737,0.50098c0.53909,0.83059 1.52269,1.46445 2.02375,2.28994c0.69293,0.38349 1.16208,1.12194 1.16208,1.96998c0,0.48998 -0.15663,0.94339 -0.42254,1.31287l-1.36613,1.95163c-0.28533,0.41918 -0.70855,0.73696 -1.20443,0.88809c-0.66024,0.95878 -1.22757,1.99402 -2.04512,2.81734c-1.06034,1.06782 -2.74933,1.53918 -3.51238,2.83622c-1.17684,2.0004 -1.96512,4.87839 -2.81264,7.03525c-0.4123,1.04926 -0.19407,2.45074 -1.01125,3.22738c-0.02946,0.028 -0.05997,0.0536 -0.09145,0.07698c-0.0097,0.03227 -0.01952,0.0645 -0.02946,0.0967l0.0307,0.01637l-0.08819,0.16537c-0.08648,0.26657 -0.18173,0.53021 -0.28864,0.79l-0.14892,0.10155l0.06981,0.04188l-1.01039,1.68397c-0.18455,0.65089 -0.57497,1.28025 -0.74517,1.93899c-0.58397,2.26026 -1.14381,4.57212 -2.17583,6.6632c-0.13058,0.65559 -0.58897,1.80622 -2.19798,1.80622c-0.18651,0 -0.35756,-0.01546 -0.51443,-0.04382c-0.35244,0.72804 -0.70901,1.45847 -1.06991,2.19363c-1.40879,2.86982 -1.53828,6.42795 -5.7313,7.0486c-0.67615,0.10008 -1.26065,-0.30017 -1.84017,-0.75406l-0.18249,0.05615l-0.01553,-0.05046c-0.0784,0.03899 -0.15762,0.07655 -0.23774,0.11258c-1.01596,0.45688 -2.22051,0.19065 -3.33355,0.23613c-3.47824,0.14215 -6.99295,0.00124 -10.47488,0.00124h-2.4c-1.24264,0 -2.25,-1.00736 -2.25,-2.25c0,-0.58188 0.22088,-1.11216 0.58336,-1.51158l1.39908,-1.55453c-0.07644,-0.48841 -0.12988,-0.97538 -0.18026,-1.43305c-0.18108,-1.64507 1.74685,-4.18904 2.52659,-5.4719c0.72877,-1.199 1.45172,-2.39228 2.17352,-3.58173c0.44931,-1.25687 1.11126,-2.53826 1.5068,-3.3944c0.01049,-0.02272 0.02099,-0.04544 0.03147,-0.06816c0.20338,-0.84803 0.42781,-1.69394 0.68781,-2.53594c0.48524,-1.57144 0.49777,-3.40933 1.52785,-4.69146c0.38219,-0.47571 0.83477,-0.87599 1.32646,-1.23433c0.82044,-2.62704 1.52731,-5.27997 2.06101,-7.96418z" fill="#a69cb5"></path><path d="M281.98501,232.32956l2.09177,-0.06848c3.13382,1.11947 6.15809,2.22816 9.32013,3.10726c0.29492,-0.53217 0.85593,-1.03833 1.92311,-1.03833c2.25,0 2.25,2.25 2.25,2.25c0,0.39897 0.00036,0.79868 0.00079,1.19903c0.0221,0.173 0.02404,0.36166 0.00062,0.56721c0.00627,5.99575 -0.00492,12.12281 -1.03565,18.02483c-0.63149,3.61595 -2.23269,6.93468 -3.23539,10.43198c0.5292,0.41168 0.86964,1.05456 0.86964,1.77695v2.4h-0.05928l0.05434,0.14901c-0.52729,3.99444 -0.59178,7.20662 -1.75852,10.5921c-0.06221,0.52567 -0.18485,1.03592 -0.4078,1.51993c-0.26979,0.58571 -0.59953,1.11634 -0.98074,1.59706c-0.03434,0.06239 -0.06918,0.12492 -0.10449,0.1876c-0.19737,0.41604 -0.54843,0.88152 -1.16478,1.09344c-4.53722,3.70393 -13.01762,3.30696 -18.02872,3.31086h-1.8c0,0 -2.19469,0 -2.24898,-2.16755c-0.25283,-0.36383 -0.40103,-0.80583 -0.40103,-1.28245c0,-0.17835 0.02075,-0.35185 0.05997,-0.51823l0.58997,-2.75322l0.01814,0.00389c-0.00046,-0.02583 -0.00081,-0.05168 -0.00106,-0.07754c-0.02198,-2.36316 1.75239,-5.10495 2.17123,-7.46805c0.77171,-4.35395 1.02236,-8.82954 1.50276,-13.25551c0.01866,-0.6665 0.03832,-1.3351 0.06023,-2.00622c0.04433,-1.35809 -0.09434,-3.75524 0.15082,-5.63333c-1.39508,-2.32311 -2.61843,-4.73598 -3.45257,-7.4301c0,0 -0.10665,-0.34659 -0.09517,-0.80431c-0.00127,-0.04511 -0.00164,-0.09041 -0.00106,-0.13593c0.04221,-3.32559 3.35957,-6.15957 5.36505,-8.41627l2.08167,-0.75518c0,0 2.25,0 2.25,2.25c0,0.30498 -0.04134,0.56861 -0.11281,0.79651c0.56045,-0.13941 1.12223,-0.27353 1.68507,-0.40313c-0.18509,-0.50673 -0.37458,-1.01183 -0.56769,-1.51541c-0.89053,-3.65532 -2.34947,-7.20794 -3.71119,-10.79531c1.37124,0.2569 2.74996,0.51669 4.14043,0.77597c0.32441,0.06049 0.64933,0.11895 0.97472,0.17547c0.55289,1.43726 1.10293,2.87282 1.60645,4.31546z" fill="#a69cb5"></path><path d="M229.10736,175.2463l2.30622,-1.6473c4.89356,-3.49457 10.74771,-7.19409 16.90957,-5.99982c1.32444,-0.09745 2.71117,-0.13251 4.21019,-0.13251h2.66667c1.38071,0 2.5,1.11929 2.5,2.5c0,0.72435 -0.30806,1.37675 -0.80031,1.83333c0.03251,0.03016 0.06422,0.06117 0.09509,0.09299c0.23176,0.01179 0.46405,0.02598 0.6968,0.04356c3.67946,0.27787 7.023,1.28344 10.35949,2.79512l0.41465,0.06551c0,0 0.94242,0.2356 1.43397,1.01644c0.17496,-1.06838 1.10244,-1.88361 2.22032,-1.88361c0.74548,0 1.40628,0.36254 1.81571,0.92094l2.36395,3.15194c3.17284,2.72746 4.79116,7.19864 6.34377,11.57131c1.18558,1.54271 2.23851,3.19863 3.09778,5.01727c0.69991,1.48133 0.92298,3.13394 1.16499,4.77048c1.32563,2.84123 2.13401,5.86871 3.30375,8.78463c0.48872,1.2183 1.69121,2.23714 1.70508,3.54973c0.00148,0.14001 -0.00054,0.27966 -0.00576,0.41899l0.07925,-0.00661l0.12406,1.48873c3.75902,6.8176 6.18946,14.52566 6.25607,22.32071c0.0101,0.15034 0.00756,0.31197 -0.00982,0.48575c-0.07171,0.71705 -0.3501,1.18149 -0.69543,1.48156c-0.33294,0.31376 -0.82277,0.54457 -1.5434,0.54457v-0.00001c-0.17647,0 -0.33909,-0.01384 -0.48896,-0.03935l-1.51104,-0.16065c-5.54874,-0.00292 -8.74012,1.54575 -13.33371,4.48262c-0.22566,0.17025 -0.4631,0.2846 -0.65909,0.35941c-0.24823,0.09679 -0.58882,0.19126 -0.96354,0.18532l-1.36186,0.15003c-3.02847,-0.53391 -6.22012,-1.82295 -8.13355,-4.54929c-1.42656,-2.03263 -0.61911,-3.30032 -1.29227,-5.39568c-0.86974,-2.70726 -2.4078,-5.30895 -3.22277,-8.07613c-0.12424,-0.42185 -0.23377,-0.84313 -0.33385,-1.26397c-4.69484,-4.38684 -7.79663,-10.05466 -9.97293,-16.21817c-0.09032,0.18414 -0.17636,0.37031 -0.25698,0.55896c-0.76332,1.78605 -0.99529,3.78242 -1.85699,5.52313c-2.06686,4.17524 -4.6859,8.15002 -6.8561,12.32827c-1.8201,5.08846 -3.80211,9.58137 -7.85076,12.84921c-0.4504,0.89534 -0.85269,1.81611 -1.18668,2.77304l-0.50646,1.04948c0,0 -1.00623,2.01246 -3.01869,1.00623c-1.27062,-0.63531 -1.33788,-1.67175 -1.21481,-2.34952c-0.03433,-0.01665 -0.06853,-0.03455 -0.10255,-0.05378c-0.41219,-0.22808 -0.67493,-0.57967 -0.84053,-0.90646c-0.02896,-0.05474 -0.05706,-0.11192 -0.0842,-0.17164c-0.24662,-0.54257 -0.28419,-1.00675 -0.20617,-1.396l-0.00686,-0.23322c-1.56006,-3.6533 -3.18548,-5.15322 -6.85702,-6.84781c-1.21039,-0.55865 -3.01913,-0.86381 -4.6805,-1.30036c-0.45295,0.18363 -0.89399,0.159 -1.26239,0.06153c-0.61988,-0.09853 -1.02493,-0.39479 -1.28963,-0.73992c-0.07094,-0.05459 -0.14297,-0.10828 -0.2157,-0.1614c-0.19354,1.60752 0.0364,3.28454 -0.41676,4.83867c-0.00153,0.00524 -0.00306,0.01048 -0.00459,0.01571l0.00304,0.0003l-0.07802,0.78024c0.05793,-0.01241 0.11571,-0.02321 0.17332,-0.03188l1.66959,-0.02193c0,0 2.5,0 2.5,2.5c0,2.5 -2.5,2.5 -2.5,2.5l-2.33041,-0.02193c-0.0356,-0.00894 -0.07138,-0.01756 -0.10732,-0.02588c-0.37449,0.90841 -1.26871,1.54781 -2.31227,1.54781c-1.38071,0 -2.5,-1.11929 -2.5,-2.5v-0.05594c-0.13332,-0.08738 -0.26062,-0.18589 -0.38096,-0.29725c-1.26646,-1.172 -0.61904,-7.33904 -0.61904,-9.14681c0,-4.23931 0.71201,-8.48933 2.06446,-12.54575c0.15708,-1.89426 0.4275,-3.7714 1.09083,-5.57161c1.27258,-3.45364 2.65813,-6.85403 4.05067,-10.25003c0.65017,-1.94724 1.34278,-3.86418 2.06266,-5.77031c1.2282,-4.62893 3.08827,-8.9959 4.89959,-13.51379c0.34331,-0.8563 -0.06307,-2.0521 0.58958,-2.70415c0.1538,-0.15366 0.31478,-0.29808 0.48177,-0.43476l-0.12099,-0.10587l1.74069,-1.98936c0.43279,-0.49986 1.06047,-0.82634 1.76488,-0.86126c0.188,-0.39553 0.47681,-0.73388 0.83322,-0.98181zM270.50468,177.83251l-0.26484,-0.41617c-0.03,-0.04553 -0.05839,-0.09221 -0.08509,-0.13996c-0.01084,0.0657 -0.02426,0.13303 -0.04044,0.20202c0.12973,0.1183 0.25988,0.23633 0.39037,0.35411z" fill="#111732"></path><path d="M226.90196,252.32924c-0.37682,1.23865 -0.79874,2.62954 -1.81194,3.43559c-0.9614,0.76484 -2.36525,0.70617 -3.58442,0.8575c-2.70219,0.33542 -5.84743,0.0747 -8.58558,0.00767c-1.2005,-0.02939 -2.50051,0.33692 -3.5996,-0.14688c-1.25999,-0.55462 -2.40581,-1.56632 -3.05293,-2.7814c-0.25662,-0.48184 -0.19763,-5.6728 -0.19746,-6.32173c0.00132,-5.24074 1.38307,-9.08935 3.37308,-13.86539c0.63014,-1.49292 1.64382,-2.80143 2.78964,-3.98672c-0.1356,-4.38962 2.99749,-10.17395 3.88915,-14.22825c0.44754,-2.03493 0.35159,-4.47304 1.31122,-6.37607c0.0283,-0.13581 0.05668,-0.2715 0.08518,-0.4071c0,0 0.38613,-1.83413 2.12757,-1.80191c1.214,-0.39953 5.65508,-0.08445 6.67377,-0.03769l2.05875,1.66787c0.54326,0.25641 0.83886,0.70203 0.99969,1.11106c0.1886,0.37175 0.32129,0.85596 0.19004,1.39665c-0.05438,7.08672 -1.24902,14.11914 -1.53636,21.17468l0.1305,1.56601l-0.17884,0.0149c-0.0077,0.38678 -0.01221,0.77364 -0.0132,1.16061c0.21009,1.39804 0.16703,2.8784 -0.00796,4.9982l-0.39153,1.33004c0.0162,3.37324 0.29447,8.06603 -0.66877,11.23235z" fill="#baafcc"></path><path d="M278.87002,255.98c0,-0.15473 -0.00745,-6.10393 0.02175,-6.31208c0.2413,-1.71991 1.04998,-3.34207 1.18592,-5.0735c0.48824,-6.21881 1.11493,-12.46518 2.22658,-18.60549c0.16879,-0.93234 0.4653,-1.80023 0.81217,-2.64347c0.14394,-2.4143 0.6082,-4.71654 1.2206,-7.11055c0.27352,-1.06926 0.25507,-2.30492 0.93084,-3.17754c0.06664,-0.08605 0.13542,-0.17003 0.20614,-0.25211l-0.05223,-0.03324l1.37966,-2.16805c0.22543,-0.36698 0.5532,-0.66434 0.94357,-0.85233c0.46193,-0.40026 0.98299,-0.54237 0.98299,-0.54237c1.68741,-0.44624 3.44664,-0.6664 5.19202,-0.67928l0.18871,0.20548c2.06129,0.12215 2.06129,2.24452 2.06129,2.24452c-0.00004,0.00269 -0.00007,0.00539 -0.00009,0.00808c-0.05908,5.01062 1.3724,10.10559 1.40009,15.19192v1.8c-0.00229,5.28201 0.0089,10.64729 0.19891,15.92979c0.183,5.08754 1.34526,9.63848 -1.31955,14.22782l-0.08625,0.10147c-0.23958,0.44788 -0.62839,0.73222 -0.95502,0.90409c-0.26693,0.15562 -0.62381,0.30642 -1.03028,0.33133c-4.47415,1.00633 -8.41471,1.47984 -13.0277,0.72488l-1.565,-2.34425c-0.47265,-0.33058 -0.70118,-0.81992 -0.81167,-1.21582l-0.00854,-0.01279c0,0 -0.03713,-0.12375 -0.06393,-0.32085c-0.03096,-0.19648 -0.03096,-0.32568 -0.03096,-0.32568z" fill="#baafcc"></path><path d="M271.76565,148.54019c0.50867,7.98021 3.45707,16.80069 1.53717,24.68552l-0.39011,0.27903c0.42554,0.49981 0.76368,1.29363 0.21975,2.3815c-1.00623,2.01246 -3.01869,1.00623 -3.01869,1.00623l-1.88406,-0.96919c-1.65071,-1.15949 -3.68093,-3.7123 -5.61539,-4.3068c-0.69236,-0.21278 -1.51734,0.22329 -2.17152,-0.08647h-2.7228c-0.81736,0 -1.53292,-0.43583 -1.92698,-1.08778c-4.76529,-0.1969 -9.43018,0.60107 -14.24395,1.99805c-2.2199,0.64423 -5.18166,0.53961 -7.26477,1.47261c-2.63814,1.18159 -4.50938,6.32637 -7.54172,6.57708c-3.13556,0.25924 -6.16523,-2.0634 -5.27079,-5.49974c0.03886,-0.14932 0.08589,-0.29492 0.14003,-0.43726l-0.07464,-0.01866l0.3553,-1.4212c-2.71862,-0.87311 -1.71463,-2.70285 -2.10951,-4.64632c-1.35603,-1.13173 -2.58444,-2.42089 -3.1616,-3.77543c-0.36103,-0.84729 -0.4503,-1.98273 -0.48592,-3.1809c-0.12169,-1.0067 -0.14299,-2.08013 -0.11881,-3.16379c-0.05067,-0.51856 -0.1304,-1.0086 -0.26008,-1.44852c0,0 -0.36099,-1.26346 0.43431,-2.13516c0.04428,-0.80126 0.07912,-1.57096 0.07912,-2.28296v-2c0,-4.43791 0.06259,-8.83937 0.20109,-13.27021c0.11378,-3.63977 -0.15593,-7.99129 1.64338,-11.34978c0.97212,-1.8145 2.93075,-2.89148 4.38868,-4.34471c1.30803,-1.30382 2.06522,-3.22511 3.65628,-4.16288c2.38578,-1.40618 3.76462,-0.97959 6.28454,-1.30542c4.63895,-0.59982 8.59907,-0.31195 13.26209,0.01637c3.67167,1.03529 7.20078,2.22861 10.66572,3.8276l0.00734,0.00439c0.45035,-1.46536 2.14088,-1.46535 2.14088,-1.46535c3.66667,0 7.33333,0 11,0h0.4c0.78141,0 1.29145,0.27138 1.62435,0.62565c0.62565,0.6658 0.62565,1.62435 0.62565,1.62435c0,2.06667 0,4.13333 0,6.2v0.4c0,0 0,0.20975 -0.06404,0.50117c-0.42219,6.85235 -0.77641,13.91727 -0.34031,20.75902z" fill="#a69cb5"></path><path d="M276.8206,165.25654c-0.7552,0.65755 -1.30443,1.64405 -2.23954,2.0022c-1.60772,0.61576 -4.82695,-0.03329 -6.45609,-0.26369c-5.04352,-1.07834 -11.07512,-2.20347 -15.56915,-4.88966c-4.60978,-2.75537 -7.14775,-7.6782 -10.83765,-11.34534c-1.88871,-1.87706 -3.25171,-3.73056 -4.9346,-5.74923c-1.5828,-1.89862 -3.3274,-2.96597 -4.82528,-4.81206c-0.13568,0.02032 -0.28152,0.03124 -0.43828,0.03124c-2.25,0 -2.25,-2.25 -2.25,-2.25v-1.6c0.22326,-4.8636 3.40473,-7.63055 7.04089,-10.69751c1.13328,-0.50499 2.17987,-1.2891 3.39984,-1.51496c3.37231,-0.62434 6.25225,0.98812 9.21797,2.11282c3.69731,1.40214 7.69361,2.38955 11.29309,4.03827c2.22784,1.02044 5.0911,2.98885 7.26775,4.03098c3.80009,1.8194 7.42669,2.96532 10.78764,5.6358c0.91782,0.72926 2.06977,1.30592 2.62849,2.33649c0.74655,1.377 0.82929,3.55325 0.74369,5.72154c0.3974,2.56223 -0.07936,6.03571 -0.07936,8.33657v2.4c0,1.07439 -0.75303,1.97289 -1.76009,2.19651c-0.65065,1.61219 -1.60192,3.07201 -2.98933,4.28003z" fill="#6390d6"></path><path d="M277.89905,199.62451c-0.47563,0.01834 -0.84074,-0.09401 -0.84074,-0.09401l-2.88161,-0.90778c-1.14997,-1.03333 -3.98836,-2.79427 -4.04724,-4.50626c-0.38631,0.19858 -0.77085,0.40422 -1.15261,0.62072c-0.46082,0.42432 -0.98232,0.53029 -1.43307,0.51001c-0.46685,0.03082 -1.01261,-0.07247 -1.49525,-0.52709l-1.91952,-1.14911c-0.36429,-0.36684 -0.70011,-0.7523 -1.0161,-1.1504c-0.68766,-0.06276 -1.28587,-0.43492 -1.65423,-0.9761l-1.38195,-1.9742l0.02002,-0.01402c-0.02588,-0.02369 -0.0516,-0.04759 -0.07715,-0.07171c-1.2518,-1.18179 -2.12341,-2.86733 -2.70343,-4.68997c-1.89931,-2.05738 -3.0798,-3.9003 -1.5968,-7.34416c0.22626,-0.52541 0.91785,-1.20208 1.7522,-1.88039l0.52927,-0.97033c-1.03275,-0.94348 -2.1625,-1.6923 -3.38157,-2.36612c-0.41676,0.30852 -0.87803,0.49933 -1.39866,0.4942c-4.01982,-0.03956 -3.92687,-8.04638 -3.26088,-10.27688c1.53158,-5.12946 7.88162,-9.93372 12.59135,-11.68546l1.36947,-0.26109c0.71225,-0.22567 1.2708,-0.088 1.68829,0.16639c0.4354,0.20817 0.85055,0.59359 1.05335,1.29597c0.84122,1.97556 1.53943,4.03883 1.87946,6.15725l0.08332,0.49982c0.69019,-0.45317 1.39547,-0.78518 2.0187,-0.9428c3.82864,-0.9683 7.74033,-0.41315 11.34941,0.88407c1.1427,-0.30029 2.43009,-0.26567 3.4347,0.08403c0.69549,0.2421 1.04156,1.31403 1.20988,2.56658l0.67333,0.67333l-0.56086,0.56086c0.00946,0.17033 0.01682,0.34021 0.02245,0.50817l0.81691,1.77396c-0.26456,-0.01833 -0.53398,-0.0205 -0.80616,-0.01349c-0.00579,0.40442 -0.01391,0.73883 -0.01334,0.9615v1.4c0,0 0,0.12284 -0.0287,0.3111c-0.02413,0.18891 -0.05787,0.30702 -0.05787,0.30702c-0.90441,3.16527 -1.59687,6.06161 -1.88419,9.31837c1.02487,2.22026 2.57074,3.71208 3.66681,5.73418c1.43718,2.65139 0.90395,6.06287 0.90395,8.92934l-0.35435,1.94966c0.03168,0.56954 -0.19693,1.02818 -0.45954,1.36132c-0.22819,0.35403 -0.58429,0.7165 -1.1267,0.87331c-2.20493,1.22624 -4.43695,2.09094 -6.70318,3.22817l-1.43127,0.44101c-0.50938,0.27644 -0.98892,0.28951 -1.39591,0.19103z" fill="#baafcc"></path><path d="M278.15961,198.20095l-2.7511,-0.88641c0,0 -1.5714,-0.5238 -1.56823,-2.02082c-1.015,-0.48281 -1.78083,-1.34104 -2.60068,-3.25679c-1.27835,-2.9871 0.02743,-5.84399 0.03042,-8.85692c0.00462,-4.65099 -1.07781,-9.53605 -1.58693,-14.15781c-0.20603,-1.87032 -0.93553,-6.93734 0.06457,-8.52491c1.95237,-3.09922 5.65245,-2.54682 8.62284,-3.29913c0.25977,-0.13593 0.58068,-0.23104 0.97696,-0.26152c0.63234,-0.04864 1.10014,0.09466 1.44594,0.32557c0.347,0.22909 0.66061,0.60464 0.86116,1.20629c0.12248,0.36742 0.16062,0.69268 0.13984,0.97941c0.1657,2.559 0.09112,5.12508 0.36107,7.67665c0.24692,2.33389 1.30433,4.45618 1.59465,6.75681c0.09803,0.77687 -0.2512,1.59229 -0.04836,2.34859c0.52675,1.96407 1.88291,3.64156 2.40193,5.60769c0.86696,3.28421 1.47118,6.40197 2.03573,9.77247l0.35106,1.92963c0.2318,0.66642 0.11446,1.21197 -0.11476,1.62949c-0.18531,0.44459 -0.54435,0.88146 -1.22438,1.11425c-3.19992,1.64472 -5.33721,1.94373 -8.99173,1.91747z" fill="#721c67"></path><path d="M276.83474,186.00809c-1.25155,-1.51318 -0.8898,-4.1754 -0.96306,-5.94174c-0.17829,-4.29851 -0.20166,-8.57911 -0.20166,-12.88635c0,0 0,-1.69324 1.46888,-2.14196c0.85758,-1.75759 1.92998,-3.11414 3.13457,-4.78359c0.02281,-0.41458 0.15784,-0.79926 0.37525,-1.12415l1.66008,-2.56558c0.33135,-0.66891 0.60642,-1.2214 0.70772,-1.38435c1.88358,-3.03013 4.058,-5.90569 6.28627,-8.73638c2.4068,-4.11284 5.06538,-8.10923 7.49987,-12.04135c1.00279,-1.61968 2.44557,-2.95974 3.31742,-4.65349c1.74014,-3.38062 2.04474,-7.81822 4.10215,-10.97779c0.95558,-1.46747 2.4992,-2.52379 3.32279,-4.06921c1.44211,-2.70603 2.54195,-5.21779 4.30059,-7.76673c0.89549,-1.39292 2.0767,-2.58062 3.07291,-3.90339c1.48518,-1.97201 1.90568,-4.68514 2.99306,-6.86622c0.92026,-1.84588 1.91584,-3.66181 2.97794,-5.43766c-0.18869,-0.88933 0.30116,-1.70576 0.30116,-1.70576c2.52904,-4.19183 4.14397,-8.81646 5.81483,-13.41131l0.63392,-1.74327c0.06459,-0.49587 0.32015,-0.88517 0.58096,-1.16297c0.2418,-0.30163 0.59796,-0.61404 1.09071,-0.74453c4.39423,-2.24498 9.42628,-3.55448 13.62605,-6.09426c4.53544,-2.74278 7.26349,-6.83944 10.011,-11.14986c0.14831,-0.43643 0.30073,-0.87148 0.45736,-1.3051c0,0 0.03346,-0.09199 0.10559,-0.23063c0.18947,-0.39896 0.54067,-0.90476 1.15721,-1.13742c0.3836,-0.16114 0.86526,-0.21245 1.4591,-0.03157c0.6014,0.15389 0.98634,0.44791 1.23044,0.78486c0.406,0.51906 0.44339,1.13368 0.39807,1.57302c-0.01036,0.15594 -0.02956,0.25193 -0.02956,0.25193l-0.02687,0.09343c-0.03296,0.14639 -0.0649,0.23423 -0.0649,0.23423c-0.00382,0.01043 -0.00764,0.02085 -0.01146,0.03128l-0.40484,1.40777c-0.06539,0.10274 -0.13079,0.20538 -0.19622,0.30791c-3.84976,11.48452 -4.65846,24.06327 -4.65202,36.08412l-0.18148,2.08484c-0.0016,0.29287 -0.05926,0.56015 -0.12302,0.76711c-0.06392,0.21333 -0.16871,0.47608 -0.33847,0.72662c-2.91156,5.12338 -7.59027,8.91988 -11.26177,13.4415c-1.04649,1.28881 -1.8233,2.63937 -2.73348,3.94405c0.26696,0.97402 -0.33965,1.88394 -0.33965,1.88394c-2.27585,3.41342 -5.19339,6.88652 -7.11297,10.45838c-2.00183,3.72491 -4.24623,8.57234 -7.08206,11.79351c-1.68207,1.91063 -4.17305,2.92741 -5.55169,5.26424c-2.11651,3.58755 -4.71015,7.18387 -7.70022,10.19185c-1.42829,1.55444 -2.66025,3.21514 -3.99692,4.80541c-2.81885,5.44774 -6.36298,10.29622 -10.58718,14.77781c-3.63878,3.86049 -8.31633,6.37062 -10.95601,10.95453c-1.1228,3.6781 -3.77578,6.72214 -7.57036,2.1343z" fill="#f0bcd4"></path><path d="M197.09318,281.86127c1.28697,-0.86017 4.67597,-1.17503 6.06856,-1.85654c1.6759,-0.82016 2.0326,-2.10108 4.33155,-2.10108c2.24201,0 2.52454,1.21338 3.67879,2.11516c1.21862,0.95207 3.3876,1.11008 4.58678,2.04515c1.0007,0.7803 1.81866,1.69304 2.52663,2.63765c1.4371,0.43058 2.69396,1.54937 3.63956,2.15354c0.88538,0.56569 2.05398,0.28525 3.04456,1.11313c1.4281,1.19354 0.62301,5.99137 -0.70303,7.65553c-0.49928,1.19384 -2.62786,1.04217 -4.04999,1.47917c-4.49337,1.38077 -8.76096,1.28843 -13.54597,3.18397c-0.89287,0.3537 -5.05418,2.48791 -6.22149,1.6738l-0.35725,-0.31957c-2.45933,-0.53515 -5.6074,-2.38879 -7.76661,-3.98425c-0.51977,0.07548 -1.0765,0.04919 -1.65058,-0.11293c-2.37351,-0.67026 -3.86198,-4.6173 -2.23206,-5.70668c0.01776,-0.01187 0.03577,-0.02368 0.05402,-0.03544c0.6294,-1.76938 2.04754,-2.41662 3.15614,-4.01971c0.42073,-0.60839 1.42689,-2.77967 2.62725,-2.83278c0.51164,-0.02264 1.17046,-0.97805 1.92923,-1.46888c0.20334,-0.74736 0.50716,-1.36743 0.88393,-1.61925z" fill="#baafcc"></path><path d="M290.36368,279.65c3.95949,0 6.50084,4.83245 9.28974,7.08654c0.52872,0.42733 1.20792,1.92148 1.70186,2.00051c1.74656,0.27945 4.90561,1.10313 6.32805,2.05878c1.06691,0.71678 1.4855,2.46647 0.84631,3.58504c-0.37277,0.65234 -1.03402,1.01317 -1.79219,1.18626c-0.23415,0.74265 -0.60191,1.34529 -1.05412,1.6037c-1.53793,0.87882 -3.9921,-0.1855 -5.57979,-0.1875c-5.25842,-0.00663 -12.88995,0.78772 -18.77372,-0.78555c-2.08395,0.07344 -4.16572,0.12524 -6.2435,0.11888c-3.36479,-0.01029 -8.41909,2.57601 -10.08849,-0.34546c-0.36372,-0.21466 -0.66834,-0.51879 -0.88359,-0.88212c-4.71196,-4.01886 1.27186,-7.93288 1.58992,-9.02242c0.17615,-0.60343 0.72319,-2.13659 1.5364,-2.18176c0.39131,-0.25403 0.85814,-0.40157 1.35944,-0.40157c0.02735,0 0.0546,0.00044 0.08174,0.00131c1.20033,-3.70984 5.14385,0.33059 5.26476,0.33417c0.92139,0.0273 7.26137,-3.57803 9.0296,-4.20719c1.31177,-0.46674 6.5389,-1.44371 7.38555,0.03792z" fill="#baafcc"></path></g><path d="M199.85943,167.59671c-0.99825,-0.33275 -1.43628,-0.94561 -1.60884,-1.54383c-0.40395,-0.16901 -0.66233,-0.37571 -0.66233,-0.37571c-1.79391,-1.43736 -3.83193,-2.56081 -5.57351,-4.06115c-0.20693,-0.17827 -0.65582,-0.65908 -1.21275,-1.2819c-1.00517,-0.31971 -1.60961,-1.39805 -2.54596,-1.8862c-0.99153,-0.51692 -2.2162,-0.51329 -3.17037,-1.09629c-1.77947,-1.08726 -3.02527,-2.8723 -4.58927,-4.25163c-8.19634,-7.22856 -16.3776,-20.72967 -11.09219,-31.97338c1.63556,-3.47934 4.73992,-6.62405 7.74579,-8.90162l2.91696,-0.85523c0.04156,-0.01311 0.08243,-0.02504 0.12239,-0.03588l0.16833,-0.04935c0,0 0.10254,-0.02279 0.27026,-0.038c0.16702,-0.02153 0.27207,-0.02153 0.27207,-0.02153c3.21158,0 5.75765,0.35495 8.32613,-0.72221c0.07193,-0.1345 0.12579,-0.21144 0.12579,-0.21144c1.00026,-1.42861 2.30498,-2.66612 3.08363,-4.22661c1.29308,-2.59146 1.39866,-5.6826 2.33738,-8.36404c1.69587,-4.84423 5.01417,-8.62873 7.77949,-12.83591c1.30094,-1.97925 2.95045,-3.96522 5.11056,-4.9367c2.55896,-1.15086 3.9142,-0.93591 6.48701,-0.95309h1.25c0,0 1.14213,0 1.88244,0.77198c2.70454,0.06241 5.29742,0.25136 8.04478,0.48431c3.7249,0.31583 7.85234,-0.49675 11.53149,0.23314c2.2704,-1.11508 4.55846,-2.17171 7.01337,-2.68306c6.35743,-1.32422 13.69383,-0.2226 19.56541,2.41906c1.62397,0.73064 2.9576,2.03899 4.61401,2.69276c1.79625,0.70896 3.82495,0.92635 5.44589,1.97597c2.83354,1.83482 4.51185,4.43697 6.69744,6.91754c1.58939,2.88814 3.78855,5.5113 4.83447,8.67086c1.84744,5.58082 -0.0974,13.3273 -3.27235,18.11308c-1.12395,1.6942 -2.64408,2.997 -3.89983,4.43079c0.69051,-0.13086 1.41532,-0.48223 1.94446,-0.09661c2.61854,1.90834 4.03364,7.81586 4.33833,10.84565c0.20749,2.06321 0.21654,4.15879 -0.00206,6.22086c-0.79026,7.45459 -8.85838,10.08755 -15.4606,8.70855c-1.97519,-0.41256 -3.60219,-1.8195 -5.40585,-2.72415c-1.79944,-0.90253 -3.75488,-1.45915 -5.58596,-2.29561c-2.3495,-1.56325 -5.11747,-4.96 -8.00819,-5.48024c-2.35603,-0.42401 -5.38816,0.04511 -7.77723,0.04511c-2.05716,0 -5.06092,-0.5837 -6.94399,0.63174c-1.07027,0.69082 -3.42307,3.46219 -3.95616,4.04994l-0.86884,1.24058c-1.69,4.46097 -4.85455,9.74636 -9.41167,11.83749c-1.09857,0.5041 -2.37937,0.43009 -3.56027,0.68786c-4.31516,0.94192 -12.76932,2.43323 -13.55762,7.54267l-0.57974,1.80028c0,0 -0.79057,2.37171 -3.16228,1.58114zM179.24371,144.85457c-0.10405,-0.15622 -0.20764,-0.31337 -0.31071,-0.4714c0.10048,0.16043 0.20362,0.31712 0.31071,0.4714z" fill="#721c67"></path><path d="M248.67386,44.36472h2.8239c3.10179,0.00209 6.57749,-0.29387 9.34998,1.46863c3.68106,2.34011 6.90299,7.45136 8.71373,11.22019c1.23576,2.57207 3.34982,5.77222 2.40956,8.87055v2.60667c0,0.39555 -0.09398,0.76914 -0.26083,1.09969c0.05709,0.36059 0.03516,0.62382 0.03516,0.62382c-0.27109,2.9562 -1.24711,5.33925 -1.9674,8.18594l-0.02383,0.28595l0.72557,0.30233l-1.06433,2.55441c-0.15387,0.39452 -0.4073,0.73924 -0.72939,1.00327c0.3962,2.85574 -2.10386,6.9851 -4.09094,8.65851c-0.4953,0.41711 -1.04709,0.75709 -1.60916,1.08304l-0.49923,0.59l-0.21345,-0.18062c-0.01351,0.00781 -0.02701,0.01564 -0.0405,0.02347c-0.99048,1.42844 -2.37521,2.25639 -5.31304,3.10851l-1.82521,0.61237c0,0 -0.1484,0.04947 -0.38264,0.08582c-0.23371,0.03959 -0.39014,0.03957 -0.39014,0.03957c-0.02135,-0.00064 -0.04272,-0.00126 -0.06408,-0.0019c-0.07361,0.0007 -0.15013,-0.00127 -0.22871,-0.00678c-0.99904,-0.0296 -1.99808,-0.05919 -2.99713,-0.08878l-0.19558,-0.25528l-1.52491,0.12707l-0.97338,0.00545c-0.56108,0.13424 -1.07425,0.00411 -1.46934,-0.17999c-0.40295,-0.14679 -0.84975,-0.41132 -1.15152,-0.88807c-1.86585,-1.81422 -3.91366,-3.39732 -5.88107,-5.05379l-0.05842,-0.02149c-0.00845,-0.00844 -0.07341,-0.07338 -0.18022,-0.18017c-1.29947,-1.10224 -2.55895,-2.24214 -3.70203,-3.50839l-0.02887,-0.15258l-0.05567,0.03897l-1.5034,-2.14771c-0.28881,-0.4013 -0.45891,-0.89375 -0.45891,-1.42593c0,-0.12854 0.00993,-0.25477 0.02904,-0.37795c-0.12938,-0.17553 -0.26248,-0.35315 -0.39996,-0.53302c-1.40153,-1.83374 -3.07788,-3.63732 -3.67924,-5.86562c-0.37656,-1.39536 -0.29356,-5.17745 -0.29432,-6.69124l0.6497,-2.47436c-0.03518,-2.78117 -0.51633,-6.66457 0.32023,-9.29939c2.01583,-6.34907 9.72461,-11.93248 16.23714,-12.36611c0.71186,-0.89508 1.96287,-0.89508 1.96287,-0.89508z" fill="#6390d6"></path><path d="M244.428,39.90387c-0.95169,-1.11738 -2.08443,-2.1057 -3.25229,-2.99553l-0.02052,0.04514l-1.35008,-0.61367c-0.26762,-0.11455 -0.45512,-0.38028 -0.45512,-0.68981c0,-0.41421 0.33579,-0.75 0.75,-0.75c0.05572,0 0.11002,0.00608 0.16227,0.0176l0.81815,0.16363l-0.01468,0.07341l0.16574,-0.02616c0.424,0.29741 0.84463,0.60618 1.25733,0.92729c2.07501,0.80215 4.63845,3.3349 5.67177,4.59636c0.09732,0.11881 0.22309,0.2745 0.35314,0.45079c2.7666,-1.73369 6.08778,-2.22128 9.24588,-1.53624c0.93413,0 1.86559,0 2.6967,0c0.20691,-0.33333 0.6437,-0.33333 0.6437,-0.33333l0.93333,0.3c1.58364,2.1222 3.71323,4.19514 5.59638,6.38917c0.89033,0.62242 1.74377,1.28577 2.50884,2.03885c1.76315,1.73551 2.82685,4.11089 4.39298,6.06959c2.66884,3.83066 3.40513,8.61038 4.14212,13.16559c0.28488,1.76081 -0.37275,3.1662 0.57753,4.74803l0.08848,0.9301c0.01034,0.06556 0.01034,0.10868 0.01034,0.10868c0,1.26313 0.35141,3.20535 -0.25541,4.35389c-1.11753,2.11516 -3.76294,3.70652 -5.6407,4.80736c-1.73722,1.01845 -1.95499,3.6156 -3.60389,3.36635v0.30573h-0.01889l0.017,0.05317c-0.08036,0.50724 -0.2089,0.92665 -0.3734,1.28704c0.24452,1.7664 0.04196,4.56332 0.04196,5.32646c0,0.52997 0.03947,2.07725 -0.21967,2.36366c-0.7431,0.82132 -3.19717,-0.04062 -4.19135,0.19961c-1.00827,0.24363 -1.97786,1.1352 -3.00161,1.51468l-0.3988,0.53173c-0.13648,0.18613 -0.35674,0.30698 -0.60524,0.30698c-0.39165,0 -0.71318,-0.3002 -0.74705,-0.68304c-1.98376,-0.16944 -0.59685,-2.47928 0.99707,-3.0615c-0.00001,-0.00182 -0.00002,-0.00364 -0.00002,-0.00546c0,-0.27798 0.15124,-0.52064 0.37592,-0.65019l0.76194,-0.45716c1.17287,-1.18305 2.37877,-2.66777 3.66215,-3.65931c0,0 0.17291,-0.12968 0.4027,-0.15699c0.4977,-0.47321 0.94805,-0.96592 1.27657,-1.5071c0.01899,-0.62288 0.14977,-1.22336 0.47662,-1.78983l-0.30588,-0.22941l0.41636,-0.55514c-0.01632,-0.19429 -0.03965,-0.3891 -0.07279,-0.58198c-0.38151,-0.03312 -0.54257,-0.27713 -0.61056,-0.47724c-0.03209,-0.08349 -0.04967,-0.17418 -0.04967,-0.26897c0,-0.00718 0.0001,-0.01434 0.0003,-0.02148c-0.05376,-0.1344 -0.10752,-0.2688 -0.16128,-0.40319l-0.39088,-0.15634c-1.68171,-1.35706 -2.62281,-1.50232 -4.69815,-1.50232c-0.26047,0 -0.43048,-0.09046 -0.54145,-0.20855c-0.11809,-0.11097 -0.20855,-0.28098 -0.20855,-0.54145c0,-0.05295 0.00374,-0.10217 0.01069,-0.14791l0.03159,-0.43717c-1.18188,-1.32707 -3.15689,-2.80741 -3.82515,-4.47781c-0.74694,-1.86703 -0.54951,-4.62513 -0.3674,-7.08456c-0.14897,0.17958 -0.29871,0.3581 -0.44618,0.53731l-0.08478,0.42389l-0.22182,-0.04436c-0.01235,0.01566 -0.02467,0.03133 -0.03695,0.04701l0.20801,0.15639c-0.17241,0.21778 -0.28862,0.43448 -0.37266,0.65564c-0.05333,0.35523 -0.13535,0.70845 -0.24387,1.0554c-0.0364,0.21632 -0.076,0.44247 -0.13486,0.68217c-0.00631,0.16956 -0.08173,0.30875 -0.16101,0.4094c-0.06091,0.0902 -0.14915,0.18623 -0.27215,0.24845c-0.66973,1.2342 -1.68469,2.29353 -2.92273,2.93893l-0.62133,0.466c-0.08603,0.06599 -0.18676,0.11375 -0.29644,0.13752c-0.20005,0.24017 -0.42319,0.4702 -0.68413,0.68036c-3.16447,2.54873 -5.77609,5.41572 -9.02549,7.85333c0,0 -0.0308,0.0231 -0.08367,0.05185c-0.05205,0.03021 -0.08779,0.04451 -0.08779,0.04451l-0.89817,0.35588c-2.09001,0.40873 -3.83604,2.02822 -5.51293,3.26825c-2.08918,0.85148 -4.14432,2.1044 -6.3682,2.5776c-0.20067,0.0427 -0.3991,0.07795 -0.59554,0.10647c0.00841,0.04971 0.01297,0.10363 0.01297,0.16211c0,0.75 -0.75,0.75 -0.75,0.75c-0.27213,0 -0.56021,0.00228 -0.861,0.00489c-1.92451,0.04704 -5.50905,0.40233 -7.88489,-0.30246c-0.08645,0.03478 -0.18088,0.05392 -0.27978,0.05392c-0.13079,0 -0.25376,-0.03348 -0.36081,-0.09233l-0.79484,-0.4163l0.08816,-0.16832c-0.3164,-0.22676 -0.5705,-0.49968 -0.74433,-0.82733c-0.00928,-0.0175 -0.01826,-0.035 -0.02695,-0.05251c-0.21413,-0.29952 -0.38427,-0.64595 -0.54473,-1.04917c-0.42355,-0.68048 -0.66888,-1.52138 -0.67413,-2.56011c-0.00002,-0.00232 -0.00003,-0.00463 -0.00003,-0.00696v-0.22977c-1.82478,-0.46084 -3.73413,-1.01037 -5.43972,-1.02065c-0.09393,0.0136 -0.20184,0.00895 -0.32551,-0.02196c-0.20509,-0.05127 -0.33792,-0.1459 -0.42293,-0.25537c-0.08558,-0.10902 -0.14517,-0.26084 -0.14517,-0.47224c0,-0.2045 0.05576,-0.35324 0.13687,-0.46142l0.32979,-0.80524c0.22922,-0.17151 0.46135,-0.34038 0.69624,-0.50636c-3.3837,1.76204 -7.99357,2.08522 -9.91813,-1.72704c-0.63388,-1.25563 -1.87958,-2.33559 -0.96262,-3.89982c0.22301,-0.38043 0.5789,-0.69268 0.99269,-0.96867c-1.25229,-0.58017 -2.02185,-1.36194 -2.89213,-2.69711c-0.4242,-2.70212 -1.12988,-4.9873 -0.21606,-7.69264v-0.90837c0,-0.41421 0.33579,-0.75 0.75,-0.75c0.33643,0 0.62111,0.22151 0.71618,0.52664c0.017,-0.04524 0.03448,-0.09043 0.05246,-0.13556c0.04702,-0.22659 0.17655,-0.36113 0.31379,-0.44101c0.12593,-0.09353 0.29794,-0.15913 0.52074,-0.11632l0.80407,0.00323c2.96686,0.59337 6.07191,-0.18155 9.0003,-0.62413c0.23361,-0.14508 0.46946,-0.28553 0.70679,-0.4226c-0.03099,-0.11729 -0.03099,-0.20693 -0.03099,-0.20693l0.09882,-0.70544c0.60431,-1.05294 0.75292,-2.56864 1.34007,-3.51154c1.09447,-1.75763 3.35787,-2.04614 4.84956,-3.20751c1.80239,-1.40326 3.754,-3.63819 5.85705,-5.06427c0.04556,-0.07795 0.09111,-0.15519 0.13665,-0.23166c0.88737,-1.48989 2.26339,-1.7458 3.3194,-3.02104c3.0773,-1.79048 6.10897,-3.91365 9.41128,-4.97006c1.98984,-0.63655 4.66361,-0.72452 7.10244,-0.72211c-0.07302,-0.11571 -0.11527,-0.25277 -0.11527,-0.39971c0,-0.36866 0.266,-0.6752 0.61654,-0.73816l0.81971,-0.16394zM216.76661,56.98855c-1.10182,0.56051 -2.8439,1.10147 -3.52216,2.21176c-0.42709,0.69914 -0.63307,1.77906 -0.9769,2.71309c1.60319,-0.85492 3.19204,-1.69271 4.54203,-2.88621c1.28034,-1.13193 2.34808,-2.684 3.30924,-4.31211c-1.12001,0.88215 -2.35984,1.76864 -3.35221,2.27347zM266.98392,47.94878c-0.22165,-0.32784 -0.45038,-0.64747 -0.68477,-0.96077l-0.15699,-0.0314c0.2759,0.33285 0.55739,0.66314 0.84177,0.99216zM217.76776,86.68626c-0.04402,-0.00806 -0.08815,-0.01633 -0.13241,-0.02479c0.0255,0.04439 0.05092,0.0888 0.07628,0.13323c0.0189,-0.03631 0.03763,-0.07245 0.05612,-0.10843z" fill="#111732"></path></g><g fill-opacity="0.37255" fill="#2e1340" stroke-width="0.5"><path d="M190.65,289.725c0.06618,0 0.13077,0.00159 0.19381,0.0047c0.78207,-1.44402 1.88109,-2.84895 2.53553,-3.80603c1.79342,-2.62274 2.41119,-4.88305 3.82747,-7.71094c0.42258,-0.84377 1.27693,-1.43218 1.65526,-2.29669c0.97257,-2.22242 1.01839,-5.42657 1.60606,-7.79936c0.29459,-1.18944 0.20003,-2.64257 1.05337,-3.52198c0.16503,-0.17007 0.33906,-0.32863 0.52058,-0.47763l-0.08662,-0.08662l2,-2l0.49206,0.49206c0.50347,-1.49176 1.0708,-2.96281 1.73009,-4.42238c-0.59464,-0.10549 -1.1307,-0.33378 -1.53385,-0.75898c-1.48302,-1.56414 -1.54941,-4.08051 -1.7415,-6.22736c-0.10485,-1.1718 1.80809,-5.97626 2.12437,-6.96364c1.02497,-3.19982 1.82333,-6.48552 2.82065,-9.69792l0.17364,-0.16677l-0.08059,-0.04029l1.22336,-2.44671c0.44006,-0.92831 1.38471,-1.57086 2.47971,-1.57344c0.02121,-0.09813 0.04157,-0.19625 0.06102,-0.29436c1.00923,-5.09021 1.50856,-10.30895 2.78313,-15.394c0.29132,-1.16224 0.39533,-2.4361 1.05522,-3.4362c0.01306,-0.01979 0.02619,-0.03953 0.03939,-0.05922l-0.01659,-0.00603l0.97809,-2.68974c0.36683,-1.08744 1.39515,-1.87046 2.60634,-1.87046c0.22782,0 0.44917,0.0277 0.66087,0.07993c0.1772,-0.45741 1.09168,-2.43667 3.41724,-1.70228c2.62235,0.82811 1.79424,3.45046 1.79424,3.45046c-1.52619,4.83235 -3.11913,9.57993 -3.90643,14.60345c-0.91929,5.86575 -0.69116,11.93572 -2.09932,17.66453l-0.1346,0.14671l0.0713,0.02852l-0.11183,0.27957c0.27014,0.44666 0.52952,0.89186 0.7969,1.27844c0.51584,0.7458 0.44475,1.76528 0.79531,2.60159c0.59463,1.41858 2.84877,4.3306 2.87173,5.60404c0.00331,0.18372 0.0006,0.36688 -0.00746,0.54953l0.09669,-0.00604l0.17076,2.73213c0.39213,0.19813 0.81087,0.35438 1.17012,0.53548l0.37733,0.18744c0.39778,0.11685 0.81474,0.35499 1.23169,0.77195c0.03101,0.03101 0.06102,0.06201 0.09008,0.09301c0.3265,0.33146 0.64893,0.79842 0.74244,1.40088c0.10181,0.60111 -0.05642,1.14607 -0.26134,1.56377c-0.01776,0.0386 -0.03643,0.0775 -0.05604,0.11672c-0.27832,0.55664 -0.61962,0.92432 -0.98115,1.16006c-1.39164,1.283 -2.97061,2.36003 -4.37012,3.63712c-0.0379,0.03458 -0.07504,0.06906 -0.11145,0.10345c-0.02703,0.57868 -0.23291,1.1106 -0.56363,1.54175l-1.26634,1.68846c-0.89866,2.83368 -2.2616,4.24742 -4.24014,6.1365c-0.54244,0.74142 -1.06335,1.50587 -1.52291,2.33834l-0.8161,1.46899c1.35136,0.65595 2.67845,1.48317 4.07459,2.46935l0.13127,0.44338l0.15631,-0.11723l1.48333,1.97778c0.35542,0.46336 0.56667,1.04312 0.56667,1.67222c0,1.51878 -1.23122,2.75 -2.75,2.75c-0.46188,0 -0.89717,-0.11387 -1.27932,-0.31507l-2.45052,-1.22526l0.01201,-0.02402c-0.0352,-0.00816 -0.07036,-0.01649 -0.1055,-0.02499c-0.85702,-0.20746 -1.44529,-1.03458 -2.25602,-1.38133c-0.04586,-0.01962 -4.54129,-1.69997 -4.74005,-1.32095c-1.78822,3.40991 -2.93756,7.63022 -4.04658,11.33182l-0.3861,1.287c0.53054,0.6929 0.8632,1.58522 0.91415,2.73298c0.01031,0.23213 0.00248,0.46194 -0.02035,0.68981h0.10827v2.5v0c0,1.51878 -1.23122,2.75 -2.75,2.75c-0.91114,0 -1.71879,-0.44312 -2.2192,-1.1256l-1.4808,-1.9744l0.05816,-0.04362l-0.16549,-0.11014c-0.38381,-0.72853 -1.27476,-1.57771 -2.25039,-2.44311c-1.13062,0.05776 -2.25592,0.19687 -2.94228,0.19687l-2.75,-4.75c0,0 0,-2.75 2.75,-2.75zM195.94413,291.53028c-0.2447,0.05577 -0.52786,0.06893 -0.60159,0.20599c0.18794,0.01121 0.37596,0.02473 0.56352,0.04096l0.00759,-0.07587l0.05529,0.00553c-0.00895,-0.05871 -0.01722,-0.11758 -0.02481,-0.17661z"></path><path d="M270.65,269.725v-0.25c0,-3.57532 -0.405,-7.18938 -0.25,-10.75c0.05391,-1.23841 -0.24576,-2.58549 0.27963,-3.70822c0.35499,-0.75859 1.72164,-0.63163 2.10074,-1.37846c0.00929,-0.0183 0.01642,-0.03631 0.02155,-0.05406c-0.09721,-0.13105 -0.19859,-0.2635 -0.3044,-0.39773c-0.08189,-0.10388 -0.16753,-0.2053 -0.2559,-0.3049c-0.09427,-0.08033 -0.17949,-0.16444 -0.23582,-0.25583c-0.77101,-0.80896 -1.67215,-1.53013 -2.12099,-2.5389c-1.196,-2.68804 -0.29232,-4.54965 0.36209,-7.08547c0,0 0.72357,-2.6531 3.37667,-1.92953c0.18722,0.05106 0.35763,0.11173 0.51267,0.1804l0.92796,-0.82485c0.48682,-0.43677 1.13028,-0.70245 1.8358,-0.70245c0.54392,0 1.05095,0.15791 1.47776,0.43038c0.11729,-0.48959 0.24591,-0.97677 0.38533,-1.46091c1.40526,-4.87958 3.975,-9.82548 4.39491,-14.92916c0.165,-2.00538 0.6748,-3.96735 1.02257,-5.94922c0.36572,-2.08421 -0.17956,-4.45526 0.88014,-6.28685c0.58578,-1.01246 1.79286,-1.50283 2.68929,-2.25424l1.9,-0.55c0,0 2.75,0 2.75,2.75c0,0.85023 -0.26287,1.43758 -0.62606,1.84335c-2.34034,9.42378 -3.62394,19.68724 -3.62394,29.40665c0,2.7899 -0.70712,6.75016 0.27826,9.41816c0.42711,1.15644 2.02416,2.08344 1.71482,3.27679c-0.17537,0.67654 -0.46954,1.31976 -0.85515,1.90395c0.1844,0.11997 0.37051,0.27046 0.55661,0.45656c1.94454,1.94454 0,3.88909 0,3.88909l-2.44454,1.30546c-0.74311,0 -2.94087,-0.31367 -4.53023,-0.30388c-0.61225,4.75747 -0.99483,9.58358 -1.14711,14.38916c0.57839,-0.12223 1.1732,-0.18453 1.76734,-0.20058c0.49182,-0.19705 0.89359,-0.34662 1.12046,-0.43065c1.21973,-0.45176 2.4754,-1.59728 3.71348,-1.19854c1.97837,0.63716 4.87721,1.87088 4.82567,3.94868c-0.18244,7.35436 -5.87286,3.76042 -8.26966,3.24619c-0.08399,-0.01802 -0.17359,-0.03881 -0.26714,-0.06078c-0.2112,0.07059 -0.41293,0.15105 -0.59843,0.24807c-0.40813,0.21345 -0.80485,0.44561 -1.1933,0.6913l0.05294,0.0385l-0.77321,1.06317c-0.02195,1.65936 0.29919,3.73402 0.29919,4.81936v1.50819c0.33536,0.39093 0.83056,0.68246 1.31487,0.74181h2.43513c1.51878,0 2.75,1.23122 2.75,2.75c0,1.51878 -1.23122,2.75 -2.75,2.75h-3.5v-0.06563c-0.07535,0.01955 -0.15095,0.03832 -0.22682,0.05626c-0.98659,0.23326 -1.99018,-0.4103 -3,-0.5c-1.57618,-0.14001 -3.9362,-0.39201 -5.84902,-0.27591c-0.49596,0.48578 -1.17508,0.78528 -1.92415,0.78528c-0.2964,0 -0.58184,-0.04689 -0.84932,-0.13366c-2.22175,1.01165 -4.04833,2.74149 -6.93134,-0.26191c-1.1675,-1.21625 -0.94872,-3.36024 -0.63825,-5.01732c0.45212,-2.41313 2.30637,-5.42446 4.16529,-7.92071c0.34563,-1.2392 1.03638,-2.35452 2.11504,-3.14526c0.18395,-0.13485 0.37584,-0.25286 0.57439,-0.35673l-0.0858,-0.11441l0.36826,-0.2762c0.05227,-0.20424 0.10598,-0.40888 0.16113,-0.61398c0.3548,-2.48018 0.65193,-4.92774 0.95292,-7.35548c-0.83231,-0.81469 -0.83231,-2.05435 -0.83231,-2.05435z"></path><path d="M260.90653,128.22331c1.89265,-1.55224 5.14943,-2.49841 6.66394,-4.42277c0.61839,-0.78573 0.77752,-1.87434 1.41398,-2.6455c2.06525,-2.50234 5.15803,-4.72589 7.72721,-6.72576c0,0 2.17072,-1.68834 3.85906,0.48238c1.68834,2.17072 -0.48238,3.85906 -0.48238,3.85906c-1.01047,0.78525 -2.16741,1.62384 -3.2906,2.51083c0.77826,-0.21511 1.84799,-0.18412 2.77294,1.00509c1.68834,2.17072 -0.48238,3.85906 -0.48238,3.85906c-0.47492,0.36867 -0.95842,0.7235 -1.4485,1.06766c-1.89108,2.8921 -3.76966,5.76498 -6.75863,7.45223c0.23672,0.29013 0.44124,0.57678 0.60339,0.85608c1.00536,1.7316 1.11134,3.84735 1.65049,5.77569c0.34121,1.22036 2.92495,0.77077 3.97063,0.75018l2.01495,-1.00748c0.38215,-0.2012 0.81744,-0.31507 1.27932,-0.31507c1.51878,0 2.75,1.23122 2.75,2.75c0,0.75939 -0.3078,1.44689 -0.80546,1.94454l-0.93321,0.93321c0.15337,0.34269 0.23866,0.72251 0.23866,1.12225c0,0.96969 -0.50189,1.82215 -1.26006,2.3118l-2.21451,1.47634l-0.16763,-0.25144l-0.43077,0.55234c-0.46054,0.05705 -2.19176,0.32106 -3.76502,0.44988c0.19387,1.27224 0.10959,2.58156 -0.44751,3.90159c-0.0576,0.13648 -0.11921,0.27068 -0.18443,0.40285l0.07882,0.02627l-0.97995,2.93984c-0.34559,1.12372 -1.39187,1.94053 -2.62893,1.94053c-1.33949,0 -2.4553,-0.95768 -2.70008,-2.22569l-0.73888,-3.44811l0.1023,-0.02192l-0.14804,-0.26457c-0.00734,-1.59345 0.22541,-3.8138 0.11757,-5.77353c-2.44766,-0.96973 -4.83523,-2.2121 -7.41602,-2.76693c-0.2895,-0.01003 -2.38481,-0.1545 -2.68187,-2.23544c-2.32632,0.14117 -3.72564,0.80946 -5.67704,2.21711c-0.62666,0.45204 -1.15206,1.09293 -1.77691,1.54037c1.26176,1.37916 2.51558,2.74948 3.77988,4.06855l0.00887,0.69923l0.26423,-0.07927l0.52588,1.75295c0.37824,-0.44192 0.8942,-0.76246 1.48138,-0.89514c0.05039,-0.09957 0.10013,-0.19872 0.14903,-0.29744c0,0 1.22984,-2.45967 3.68951,-1.22984c2.45967,1.22984 1.22984,3.68951 1.22984,3.68951c-1.11227,2.2006 -1.5407,2.61025 -1.97302,4.82841c-0.00916,0.27626 -0.03138,0.55996 -0.06667,0.85711c0.02151,1.25848 0.39082,2.71026 -0.55867,3.34669c-0.01143,0.00766 -0.02284,0.0153 -0.03424,0.02291l0.50249,1.50748c2.87887,3.3725 5.50898,7.37082 5.15984,11.19868c-0.02149,0.23558 -0.04959,0.47196 -0.08486,0.70798c1.52546,0.3874 3.01422,1.04321 4.51468,2.11545c0.76468,0.54644 0.96955,1.63038 1.60442,2.32093c-0.00055,-0.15155 -0.00541,-0.29406 -0.01565,-0.4258c-0.0696,-0.89579 -0.14212,-1.7934 -0.21688,-2.69213c-0.15782,-1.1061 -0.31443,-2.20943 -0.50063,-3.29737c-0.07,-0.40898 -1.0499,-6.69379 -0.54049,-7.47019v-3.5c0,-1.51878 1.23122,-2.75 2.75,-2.75c1.02787,0 1.92403,0.56392 2.39597,1.39926c0.92936,0.32011 1.63334,1.12434 1.81062,2.11138l0.03905,0.19524c0.03116,-0.0345 0.06245,-0.06892 0.09387,-0.10326c0.10823,-0.19177 0.21957,-0.38184 0.33462,-0.56986c1.06793,-1.74526 3.65315,-4.23379 4.97591,-5.80833c2.50396,-2.98055 4.73155,-6.12479 7.43209,-8.94289c1.47668,-2.07058 2.96909,-4.13048 4.54239,-6.13024c1.27943,-2.33798 2.58164,-4.61018 4.08397,-6.92164c8.53001,-13.12411 15.713,-26.92324 22.12131,-41.28545c1.47328,-2.2835 3.05328,-4.15637 4.40328,-6.20839c0.31467,-0.88407 0.63179,-1.77224 0.93577,-2.68457c1.22463,-3.6755 1.81577,-7.16099 3.37222,-10.5954c-0.17571,-0.25346 -0.32544,-0.56598 -0.43526,-0.95035c-0.75548,-2.64419 1.88871,-3.39967 1.88871,-3.39967l1.09062,-0.21391c2.26333,-1.3574 3.9084,-2.18168 5.65172,-2.79482l-0.1578,-0.33532l4.1977,-1.97539c0.36844,-0.18329 0.7838,-0.28636 1.22325,-0.28636c0.75159,0 1.43277,0.30152 1.92916,0.79019c0.28988,-0.3634 0.57639,-0.72898 0.86,-1.09641c1.25201,-2.1853 2.4225,-4.43773 3.54664,-6.51062l1.68438,-1.39283c0,0 0.25353,-0.12676 0.63848,-0.2175c1.19717,-1.69073 2.40621,-3.37101 3.67063,-5.01116c0,0 1.68834,-2.17072 3.85906,-0.48238c2.17072,1.68834 0.48238,3.85906 0.48238,3.85906c-3.27464,4.16547 -6.15166,8.66372 -9.38632,12.91475c-1.13132,1.95152 -2.32085,3.85149 -3.58967,5.55391c-1.17873,1.58154 -3.06664,3.09723 -4.00884,4.8693c-0.079,0.14858 -0.15767,0.29795 -0.23608,0.44804c0.03294,0.17015 0.05019,0.3459 0.05019,0.52567c0,0.5337 -0.15203,1.03189 -0.41515,1.45362l-1.47675,2.46124l-0.13997,-0.08398l-0.05057,0.3615c-0.2393,0.24176 -0.47544,0.4847 -0.70878,0.72867c-1.12043,2.18246 -2.32622,4.33516 -3.78081,6.25792c-0.12432,0.16433 -0.26376,0.31563 -0.4119,0.45942c0.15039,0.33991 0.23393,0.716 0.23393,1.11161c0,0.60766 -0.19709,1.16929 -0.53083,1.62444l-3.09935,4.33909c-0.87506,2.34412 -2.91564,4.39807 -4.34091,6.40197c-1.09307,2.83492 -1.87354,5.74867 -3.32397,8.62375c-0.51565,1.02213 -1.85416,2.52751 -2.89643,3.76048c-2.15961,3.72909 -4.43241,7.40316 -6.35373,11.23983c-0.89375,1.78474 -1.31132,3.79052 -2.27098,5.5407c-2.75408,5.02275 -6.48944,9.46508 -10.24883,13.85961c-1.53654,2.5705 -3.32267,4.35958 -5.40557,6.71593c-0.57698,0.65273 -1.13738,1.32606 -1.68619,2.01357l-1.44154,2.47122c-0.29716,0.53122 -0.76545,0.95373 -1.33025,1.19288c-1.46486,2.00623 -2.90678,4.03599 -4.43512,5.94821c-1.2691,1.58786 -2.50404,3.20282 -3.73348,4.82166c-1.52776,3.92531 -2.4189,8.04708 -3.98012,12.05445c0.34547,1.55543 0.65218,3.28669 0.3273,4.64221v3.5c0,1.16599 -0.72566,2.1625 -1.75,2.56253v1.93747c0,1.51878 -1.23122,2.75 -2.75,2.75c-1.43677,0 -2.61619,-1.10183 -2.73938,-2.50662l-0.2182,-2.18202c-0.19831,-0.37784 -0.37804,-0.76186 -0.53137,-1.15162c-0.36207,0.07673 -0.70835,0.14708 -1.03939,0.2113c-0.50022,0.68439 -1.30902,1.12896 -2.22166,1.12896c-0.5337,0 -1.03189,-0.15203 -1.45362,-0.41515l-0.29686,-0.17812c-2.28389,0.08883 -2.76118,-0.54068 -2.41026,-1.47186c-2.24441,-1.74815 -3.601,-3.89293 -5.73081,-5.72857c-1.39747,-1.20445 -3.90404,-1.668 -4.3145,-3.46665c-0.44768,-1.96178 0.66975,-3.00543 1.90018,-3.97278c-0.12526,-0.31455 -0.19413,-0.65767 -0.19413,-1.01688c0,-1.51878 1.23122,-2.75 2.75,-2.75c0.00183,0 0.00365,0 0.00548,0.00001c-0.07434,-0.72538 -0.41803,-1.4957 -0.86383,-2.25396c-0.49292,0.4673 -1.15881,0.75395 -1.89165,0.75395c-0.83082,0 -1.57558,-0.36843 -2.07983,-0.95082l-1.73976,-1.9883l0.25815,-0.22589l-0.71147,-0.49072c-0.64593,-4.71448 -0.00517,-8.79433 -2.18677,-13.11444c0,0 -0.1629,-0.32581 -0.25156,-0.79955l-0.95363,-0.57218l0.0236,-0.03933c-0.08165,-0.0345 -0.16284,-0.0703 -0.24355,-0.10747c-2.8823,-1.32766 -5.3081,-5.23268 -6.77427,-7.88512c-0.04198,-0.07595 -0.5552,-0.75648 -1.09091,-1.58852v1.76233c0,1.17764 -0.74023,2.18238 -1.78078,2.57434c1.22906,4.57082 2.28124,9.15435 4.04543,13.52858c1.30932,0.5024 2.21012,1.72134 1.9834,4.25064c-0.02076,0.23161 -0.04559,0.45295 -0.07429,0.66436l0.21027,0.69188c0,0 0.79021,2.63402 -1.84382,3.42423c-1.03915,0.31175 -1.79134,0.09055 -2.32124,-0.29161c-0.77992,-0.22153 -1.59001,-0.66671 -2.35118,-1.19584c-0.21358,0.89431 -0.57435,1.73747 -1.06397,2.47225c-0.53641,1.16184 -1.45504,2.15791 -2.91747,2.88542c-0.69373,0.34511 -1.48666,0.46531 -2.28834,0.44893l-0.61169,1.22338c-0.44095,0.93018 -1.38851,1.57345 -2.48632,1.57345c-1.45069,0 -2.63903,-1.12329 -2.74266,-2.54755l-0.03772,-0.45262c-0.99493,-0.01077 -1.86311,-0.54989 -2.33721,-1.35005l-1.97448,-3.20852l0.08433,-0.0519c-0.10679,-0.13232 -0.21038,-0.26748 -0.31037,-0.40582c-1.49604,-2.0699 -0.04132,-5.40778 -1.17455,-7.57201c-0.07259,-0.13862 -0.15961,-0.27729 -0.25826,-0.41622c-0.2109,-0.24087 -0.41635,-0.48397 -0.6082,-0.73136c-1.31384,-1.41249 -3.30837,-2.89127 -3.13905,-4.66355c0.0458,-0.47943 0.15817,-0.96654 0.32757,-1.44165c-0.05189,-0.21106 -0.07941,-0.43169 -0.07941,-0.65876c0,-0.0119 0.00008,-0.02378 0.00023,-0.03564c-1.13724,-0.19262 -2.2425,-0.51319 -3.33179,-0.89126c-1.77324,1.27682 -3.63514,2.49622 -4.96612,4.23401c-1.07488,0.35248 -1.63273,1.4062 -1.63273,1.4062c-1.17075,2.22367 -2.42318,4.42623 -3.95503,6.41842l-0.01234,0.10543c-0.62375,-0.00418 -1.21811,0.09087 -1.74469,0.41169c-0.06883,0.04194 -0.13618,0.08552 -0.20211,0.13066c-3.50438,-0.16479 -4.43106,-3.53394 -5.14161,-6.66535c-0.85954,-0.32826 -1.67185,-0.73067 -2.35876,-1.33268c-1.12673,-0.98748 -0.68324,-2.85126 -0.91709,-4.39826c-0.48543,-0.18397 -1.00691,-0.31735 -1.53077,-0.42652c-0.52228,0.5824 -1.39001,1.08453 -2.7474,0.67732c-0.81711,-0.24513 -1.30469,-0.6677 -1.58857,-1.13402h-0.87122c-1.51878,0 -2.75,-1.23122 -2.75,-2.75c0,-1.30873 0.9142,-2.40393 2.13883,-2.68184l2.42919,-0.6073c0.39483,-0.9875 0.88554,-1.92365 1.55995,-2.71001c3.49986,-4.08074 8.20328,-6.18924 13.23634,-6.96491c0.25384,-0.30291 0.54565,-0.56105 0.90165,-0.74351c1.99429,-1.02217 3.68581,-0.36428 5.33655,0.41517c0.86258,0.03373 1.72444,0.09749 2.58151,0.18828c0.75675,-0.07284 1.53623,-0.10862 2.3272,-0.12794c0.81389,-0.76793 1.98877,-0.76793 1.98877,-0.76793c2.15969,0.00065 4.33898,-0.20644 6.50761,-0.35442c0.49937,-0.12391 1.00408,-0.27539 1.51704,-0.4668l0.00008,-0.00003c2.01163,-0.75066 4.52192,-1.75881 5.578,-3.77607c0.46676,-0.89158 0.39541,-2.14855 1.1798,-2.77904c0.17915,-0.144 0.36349,-0.27994 0.55225,-0.40903l-0.07611,-0.09302l0.88234,-0.72192c-0.27802,-0.30037 -0.60653,-0.60626 -0.95947,-0.90895l-0.17083,-0.03417c-0.94882,-0.17042 -1.72871,-0.82752 -2.07203,-1.70368c-0.73666,-0.5423 -1.34191,-0.98859 -1.5604,-1.25348c-1.28126,-1.55332 -1.81268,-3.86369 -3.54395,-4.89185c-3.7141,-2.20571 -9.23228,-2.43341 -13.29856,-3.78219c-2.03312,-0.8485 -4.45803,-0.98032 -6.17164,-2.36491c-0.28312,-0.22876 -0.54615,-0.47978 -0.79074,-0.75042c-1.81293,-0.08384 -3.63772,-0.10149 -5.42885,-0.21208c-1.203,-0.07428 -2.54315,0.3839 -3.61171,-0.17369c-1.53297,-0.79992 -3.25044,-1.96898 -3.69617,-3.63967c-0.78893,-2.9571 2.63022,-7.72021 5.67416,-7.9346c0.17027,-0.01199 0.33283,0.00302 0.48926,0.03988v-0.2899c0.00481,-1.62668 -0.13886,-5.76605 0.75697,-6.91072c0.15936,-0.20362 0.33289,-0.39182 0.51795,-0.56748l-0.0945,-0.08269l1.73976,-1.9883c0.12788,-0.1477 0.27123,-0.28164 0.42753,-0.39929c0.1593,-0.38096 0.33951,-0.75609 0.53777,-1.12494c0.3423,-2.95171 1.4318,-4.81617 4.35701,-7.22656l0.22569,-0.05004l-0.03502,-0.0642l2.70524,-1.47559c0.40145,-0.22922 0.86623,-0.3602 1.3616,-0.3602c0.09974,0 0.19823,0.00531 0.29522,0.01566c0.25638,-0.15201 0.52526,-0.27843 0.81231,-0.36681c3.64283,-1.12164 4.39572,0.07644 6.99113,1.80966l2.13237,0.63971c1.16394,0.32015 2.01897,1.38611 2.01897,2.65178c0,1.01927 -0.55453,1.90903 -1.37836,2.38404l-0.20163,0.12098c1.50797,-0.54489 3.22139,0.00053 4.82999,-0.00502c2.66665,-0.0092 5.33847,-0.16537 8,0c0.13063,0.00812 0.26703,0.08057 0.40147,0.1641c0.11969,0.02123 0.23785,0.04361 0.35455,0.06677c-0.16114,-0.6941 -0.06622,-1.55975 0.79944,-2.42541c0.70243,-0.70243 1.40486,-0.89738 2.01563,-0.85983c0.33632,-0.18431 0.68586,-0.3485 1.04398,-0.48628c-0.10721,-0.4216 -0.11534,-0.84253 0.00293,-1.25626c0.47474,-1.66075 3.06179,-1.59979 4.59268,-2.39969l0.78932,-0.0534c0,0 0.63866,0 1.30043,0.30778c2.2014,-3.21281 4.80811,-5.89094 7.66552,-8.9085c0.14093,-0.14882 1.70279,-2.41051 2.49607,-3.18927l-0.21553,-0.09797l1.22421,-2.69327c0.42002,-0.98126 1.39437,-1.66878 2.5293,-1.66878c1.51878,0 2.75,1.23122 2.75,2.75c0,0.27252 -0.03964,0.53579 -0.11347,0.78434l-0.73343,2.68923l-0.16939,-0.0462c-0.01117,0.20781 -0.0309,0.41549 -0.06059,0.62301c-0.00242,0.01692 -0.00498,0.03378 -0.00767,0.05059c0.55449,1.31073 2.09836,1.74136 3.16063,2.89238l2.61127,1.66172c0.78747,0.48372 1.31265,1.35299 1.31265,2.34492c0,1.51878 -1.23122,2.75 -2.75,2.75h-2.75v-0.05243l-0.13699,0.04902c-1.69572,-0.19818 -3.33195,-0.77845 -4.92532,-1.41087c-0.91991,0.63188 -1.87077,1.22047 -2.83428,1.77852l-0.62545,-0.10668l0.02101,0.23115l-2.15101,0.19555c-1.2728,1.5162 -2.43544,3.12864 -3.39981,4.97142l-0.20877,2.08771c-0.05345,0.60952 -0.30574,1.162 -0.69163,1.5922c0.28481,0.91169 0.6773,1.91262 0.79155,2.81033c0.38844,0.13777 0.79642,0.27179 1.22696,0.40476c1.08337,0.05626 2.21511,-0.24508 3.30912,-0.29784c2.89275,-0.13951 5.75382,-0.17297 8.60117,-0.7026l2.42844,-0.48569c0.1916,-0.04226 0.3907,-0.06454 0.595,-0.06454c1.51878,0 2.75,1.23122 2.75,2.75c0,1.09781 -0.64327,2.04537 -1.57345,2.48632l-2.44671,1.22336l-0.00568,-0.01136c-0.01332,0.01127 -0.02667,0.02251 -0.04006,0.0337c-2.72973,2.28329 -6.49769,1.54628 -9.67278,1.25761c-1.95885,-0.1781 -3.75938,-0.48093 -5.426,-0.93538c-0.41026,-0.01687 -0.81411,-0.07017 -1.20495,-0.19536c-0.38379,-0.12293 -0.73208,-0.31915 -1.06318,-0.55038c-2.26419,-0.88348 -4.26578,-2.11932 -6.08145,-3.79196c-1.99702,-0.0536 -4.63282,-0.54336 -6.2272,-0.7276c-1.67383,0.10018 -4.11993,0.30579 -6.41509,0.34712c-2.35446,0.37591 -4.71043,0.85359 -7.09345,0.86395h-1.59589c0.17915,0.34972 0.35975,0.69749 0.54726,1.03916c1.26091,1.20037 3.08004,2.24892 4.45613,3.16943c3.98352,2.03678 7.84192,4.3438 11.94007,6.14495c3.52478,1.54915 7.18777,1.94627 10.64642,3.77148h2.00603c1.51878,0 2.75,1.23122 2.75,2.75c0,0.17951 -0.0172,0.355 -0.05004,0.52492c0.91754,0.44566 1.55004,1.38651 1.55004,2.47508c0,1.51878 -1.23122,2.75 -2.75,2.75h-2.75v-0.04805l-0.10554,0.04602c-5.86514,-0.47342 -10.83043,-2.4709 -16.19684,-4.70731c-0.34719,-0.14469 -0.69998,-0.28817 -1.05734,-0.43117c0.42647,0.25121 0.85413,0.51057 1.28385,0.77796l1.0024,0.5012c0.30776,0.14589 0.58412,0.34725 0.81615,0.59115c0.69329,0.34706 1.41176,0.65807 1.95184,1.20062c0.17935,0.18017 0.35447,0.36585 0.52539,0.55664c1.08877,0.42878 1.56852,1.58021 1.56852,1.58021c0.57078,1.41113 1.46156,3.06158 2.54543,4.72642c0.71301,0.37672 1.4277,0.73562 2.13968,0.92817l2.32974,2.88178c0,0 0.01669,0.04172 0.04046,0.11663c3.05765,1.00858 6.17094,1.91984 9.1614,3.09498c0.83773,0.3292 2.08521,0.7257 3.26784,1.06715c3.10767,-0.84179 6.05758,-2.4745 8.23354,-4.2591z"></path><path d="M248.85968,154.20484c-1.22984,2.45967 -3.68951,1.22984 -3.68951,1.22984l-1.09716,-0.6543c-1.65975,-1.47934 -3.22773,-3.06494 -4.71706,-4.71572c0,0 -0.4088,-0.45422 -0.62686,-1.12713c-2.35168,-1.09462 -3.39082,-3.77038 -3.81739,-6.33664c-0.43828,0.59668 -0.86257,1.16378 -1.24344,1.67897c-0.82592,1.11721 -1.74554,2.05238 -2.73457,2.85898c-0.25146,0.26289 -0.5135,0.52818 -0.78474,0.79464c-0.01015,2.22687 -0.09131,4.44578 -0.15825,6.66522c0.90931,0.81134 0.90931,2.12632 0.90931,2.12632c-0.00195,2.16677 -0.10642,3.94433 0.19683,5.51701c1.2395,1.66148 2.42241,3.39582 3.60989,5.09726l1.49246,1.3059c0.04854,0.04203 0.0956,0.08573 0.14108,0.13101c1.16216,0.56285 2.41655,1.12309 2.65085,2.27759c1.36945,6.74793 -5.75722,5.85781 -9.29008,8.50463l-1.02174,2.24782c-0.42002,0.98126 -1.39437,1.66878 -2.5293,1.66878c-1.26566,0 -2.33162,-0.85503 -2.65178,-2.01897l-0.73225,-2.44082l0.21498,-0.06449c-1.15592,-2.11675 -1.92422,-4.3626 -1.64178,-6.64745l-2.13372,-2.13372l0.10911,-0.10911l-0.39548,-0.22748c-1.426,-2.83001 -2.29898,-5.57664 -3.16718,-8.61627c-0.22643,-0.79276 -0.86513,-1.69693 -0.55801,-2.43552l-0.53687,-1.74483c-2.48767,0.5451 -4.92178,1.06329 -6.9906,2.73279c-0.64888,0.34931 -1.29777,0.69863 -1.94665,1.04794l-1.75526,1.97466c-0.50395,0.57224 -1.24207,0.93328 -2.06451,0.93328c-1.51878,0 -2.75,-1.23122 -2.75,-2.75c0,-0.67623 0.24408,-1.29545 0.64895,-1.77437l2.48845,-2.98613l0.10558,0.08798c0.08044,-0.15041 0.1647,-0.29903 0.25321,-0.44564c1.22629,-2.03139 7.15845,-3.35847 9.06916,-4.47795c3.41415,-2.00035 6.86039,-3.8178 10.44692,-5.60959c1.26552,-0.63224 2.34164,-1.02919 3.31076,-1.48926c1.69459,-1.80374 3.24297,-3.75858 4.73152,-5.71107c0.51296,-0.67284 2.74671,-2.34844 2.98376,-3.55135c0.54619,-2.77159 -3.51721,-4.83941 -5.1883,-6.09261c0,0 -1.46868,-1.10151 -1.10605,-2.70454l-0.39395,-0.29546l0.01817,-0.02423l-0.04604,-0.03541l-0.06214,-0.01083c-0.10041,-0.09167 -0.20212,-0.1822 -0.30506,-0.27163l-0.88164,-0.67818l0.00945,-0.01228c-0.01003,-0.00115 -0.02007,-0.00241 -0.03013,-0.00378c-0.74147,-0.10132 -1.79869,-0.90369 -2.88308,-1.91364c-3.57794,-2.01767 -7.71944,-3.47892 -11.19802,-5.31527c-1.69692,-0.8958 -2.63674,-1.13926 -3.50287,-1.69072c-3.37647,-0.05112 -6.57376,-0.42132 -9.95346,-0.75407c-1.40901,-0.13872 -3.04596,0.3667 -4.22726,-0.41374c-0.2181,-0.14409 -0.4209,-0.30459 -0.61136,-0.47832l-0.07657,0.1021l-1.9744,-1.4808c-0.68249,-0.50041 -1.1256,-1.30806 -1.1256,-2.2192c0,-1.43677 1.10183,-2.61619 2.50662,-2.73938l1.36388,-0.13639c-1.20504,-1.94968 -1.47585,-4.09698 0.2787,-6.13487c-0.17335,-2.83968 -0.03846,-5.60915 3.06656,-7.42108c0.2556,-0.14916 0.52871,-0.25341 0.81369,-0.32169c0.50995,-1.40049 1.25425,-2.7482 2.24238,-4.10835c0.60816,-0.83712 3.33893,-4.51251 5.16008,-5.02394l0.70676,-1.97894c0.36243,-1.09519 1.3946,-1.88537 2.61132,-1.88537c1.15906,0 2.15065,0.71706 2.55534,1.73177c0.72151,0.49569 1.19466,1.3267 1.19466,2.26823c0,0.39647 -0.0839,0.77335 -0.23492,1.11384c0.18364,-0.06648 0.36559,-0.13243 0.54512,-0.19827c0,0 2.58443,-0.93979 3.52423,1.64464c0.32569,0.89566 0.22812,1.59379 -0.03847,2.12373c1.91544,0.13155 4.19629,0.13526 5.76354,-0.14843c1.05492,-0.19095 2.08937,-0.48536 3.12362,-0.7743c0.39712,-1.03025 1.39664,-1.76121 2.56688,-1.76121h3v0.05l0.11429,-0.04763c2.42835,0.22368 4.84883,0.84554 7.20088,1.69287c0.93378,-1.74636 2.14834,-3.39659 3.23484,-4.84525c0.71109,-0.94812 3.27849,-4.4481 3.92457,-4.88814c1.09935,-0.74875 2.43345,-1.0283 3.73059,-1.39348c0.65536,-3.19409 4.00321,-8.3395 7.93817,-5.27337c1.34989,1.05184 1.29581,3.23769 0.85613,5.08933c0.49827,0.07153 0.99771,0.12129 1.50054,0.11566c0,0 2.75,0 2.75,2.75c0,2.75 -2.75,2.75 -2.75,2.75c-1.47091,-0.01261 -4.40246,-0.07674 -6.78476,-0.82495c-1.3863,0.47506 -2.95796,0.57331 -4.18981,1.36309c-1.2448,0.79809 -1.68822,2.42892 -2.57543,3.61186c-0.59176,0.78901 -1.77563,2.20061 -2.6335,3.68604c0.3182,0.15534 0.6341,0.31274 0.9475,0.47167c0.65778,0.33358 1.07819,1.09272 1.7829,1.31029c1.6341,0.50449 3.47278,-0.22188 5.12607,0.21562c2.22142,0.58784 4.20013,1.93162 6.43077,2.48348c0.76958,0.19039 1.66646,-0.14599 2.3678,0.22364c0.06077,0.03203 0.12122,0.06458 0.18136,0.09762l0.01406,-0.05624l2.94419,0.73605c1.22463,0.27791 2.13883,1.37312 2.13883,2.68184c0,1.51878 -1.23122,2.75 -2.75,2.75h-2.75c-4.4582,0 -8.91641,0.00197 -13.37461,-0.00282c-3.04695,-0.32558 -4.88154,-0.06333 -7.35433,-2.58765c-1.2413,-1.26718 -1.90255,-2.59279 -2.1463,-3.93491c-0.07424,-0.01013 -0.14753,-0.02322 -0.21976,-0.03915l-2.44432,-0.48886l0.01434,-0.07171c-0.09231,0.00343 -0.18479,0.00528 -0.27743,0.00544c-1.54801,0.00266 -2.96222,-1.29032 -4.50264,-1.13725c-3.35716,0.3336 -6.04372,1.48659 -9.44494,1.50692c-0.43176,0.00258 -5.69068,0.00553 -5.89934,-0.02915c-0.16361,-0.02719 -0.31934,-0.07927 -0.47062,-0.14558c0.29243,0.15024 0.57219,0.31683 0.82483,0.51697c2.73664,2.16798 6.96856,5.79611 8.33924,9.14134c0.16787,0.40969 0.40231,0.85358 0.64267,1.31014c0.23598,0.03537 0.38347,0.08146 0.38347,0.08146c4.05077,1.26801 6.56308,2.04735 9.75674,4.81944l1.03188,1.93575c0,0 0.86963,2.60888 -1.73925,3.47851c-2.60888,0.86963 -3.47851,-1.73925 -3.47851,-1.73925l0.53188,0.43575c-2.52697,-2.32052 -4.36011,-2.62521 -7.74326,-3.68056c0,0 -0.04522,-0.01413 -0.12193,-0.04462c-1.42833,0.46469 -3.03233,0.17825 -4.55197,-0.42232c2.54463,1.99382 4.92534,4.02753 7.37291,6.33394c1.36157,1.28305 3.19417,2.09183 4.31488,3.58951c0.23997,0.1775 0.47681,0.36013 0.71023,0.54831l2.49947,1.92267c0.66604,0.50187 1.09666,1.29949 1.09666,2.19769c0,0.16158 -0.01394,0.31991 -0.04067,0.47385c1.09312,0.83788 2.18362,1.73022 3.12276,2.72256c0.35697,-0.45961 0.79256,-0.79372 1.36498,-0.89025c3.48407,-0.58755 4.14563,1.94704 5.17646,3.96362c3.07392,-0.19405 6.40215,-0.13821 9.11049,0.9123c1.0378,0.40254 2.13469,0.94392 3.23822,1.57819c0.90611,-0.35546 1.90834,-0.61729 2.72483,-0.95411c0.8503,-0.35077 1.86074,0.03588 2.75308,-0.18727c0.59263,-0.1482 1.17836,-0.49068 1.74131,-0.93515c0.28588,-0.55885 0.62909,-1.13358 1.04,-1.73817c0.63356,-0.93217 1.09112,-2.13718 2.09112,-2.6571c0.11028,-0.05733 0.22181,-0.11136 0.33449,-0.16237l-0.05708,-0.0761l1.97778,-1.48333c0.46336,-0.35542 1.04312,-0.56667 1.67222,-0.56667c1.51878,0 2.75,1.23122 2.75,2.75c0,0.6291 -0.21124,1.20886 -0.56667,1.67222l-1.48333,1.97778l-0.04553,-0.03414l-0.03033,0.13071c-0.98598,1.09424 -1.99584,2.28458 -3.10781,3.35722c-0.384,0.94796 -0.52048,1.87397 -0.62706,3.12118l1.34429,1.92041c0.325,0.45159 0.51643,1.00575 0.51643,1.60462c0,0.01954 -0.0002,0.03904 -0.00061,0.05849l1.91655,0.52269c1.19702,0.29771 2.08406,1.37968 2.08406,2.66882c0,0.55928 -0.16696,1.07957 -0.45375,1.51374c0.0842,0.03987 0.16353,0.08346 0.23826,0.13021c1.56002,-0.51027 3.71088,-1.13865 4.17528,-1.27797l1.83811,-0.32856c0,0 2.71258,-0.4521 3.16468,2.26049c0.4521,2.71258 -2.26049,3.16468 -2.26049,3.16468l-1.16189,0.17144c-1.94286,0.58286 -3.05689,0.89899 -4.17931,1.40726l-0.7991,1.19865c-0.48965,0.75818 -1.34211,1.26006 -2.3118,1.26006c-1.51878,0 -2.75,-1.23122 -2.75,-2.75v-2.75c0,0 0,-0.41123 0.15902,-0.91565l-0.66709,0.12129l-0.02329,-0.12812c-0.3076,0.07963 -0.62349,0.12607 -0.94997,0.13003c-1.68543,0.02044 -5.42863,-2.5632 -8.03022,-4.82665c-0.47378,0.38698 -1.07901,0.6191 -1.73845,0.6191c-0.13875,0 -0.27509,-0.01028 -0.40832,-0.03011l-3.70513,-0.49402l0.00227,-0.017c-0.0222,0.00259 -0.04441,0.00514 -0.06663,0.00764c-1.01134,0.11384 -2.14976,0.00482 -3.32169,-0.16933c-0.84974,0.20636 -1.64076,0.54229 -2.27163,1.09139c-0.67191,0.58482 -1.36378,1.80342 -2.13091,2.90037c1.10759,1.187 2.26478,2.32956 3.47905,3.40567l-0.09716,-0.1543c0,0 2.45967,1.22984 1.22984,3.68951zM239.44185,137.80205c0.01065,-0.06468 0.02402,-0.13488 0.04079,-0.20922l-0.15633,0.08631c0.04047,0.04003 0.07895,0.08107 0.11554,0.12292zM228.0558,171.28034c-0.02874,-0.46744 0.09615,-0.89913 -0.267,-0.27341c0.07143,0.08431 0.16633,0.17825 0.267,0.27341zM211.88157,94.18251c-0.08132,-0.03672 -0.12266,-0.02304 -0.13606,0.02569c0.33661,0.15592 0.6832,0.30149 1.01922,0.46124c-0.29499,-0.1592 -0.58022,-0.35012 -0.88316,-0.48692z"></path><path d="M195.64935,292.91526c-0.0673,0.34186 0.17005,0.55004 0.51404,0.72084l0.25721,-0.9971c0.00363,-0.45472 0.02322,-0.89474 0.05778,-1.32177c-0.38716,0.48642 -0.71092,0.99807 -0.82904,1.59804zM201.93015,297.39577c0.14152,0.33135 0.21985,0.69614 0.21985,1.07923c0,1.51878 -1.23122,2.75 -2.75,2.75c-0.46188,0 -0.89717,-0.11387 -1.27932,-0.31507l-2.95052,-1.47526l0.13803,-0.27605c-2.71326,-0.95659 -5.01496,-2.64611 -5.15754,-6.12388c-0.05729,-1.39732 0.97911,-2.62441 1.58869,-3.88307c1.90018,-3.92346 4.80063,-6.68858 7.12748,-10.2095c0.55757,-0.84371 1.09931,-1.68654 1.62564,-2.53063c0.03932,-1.16625 1.0648,-4.19548 1.80867,-6.27318c0.60866,-2.02651 1.29732,-4.03156 1.9994,-6.0607c0.48519,-1.40229 1.86272,-6.40547 3.29972,-7.43597c0.14319,-0.10269 0.28999,-0.1986 0.43996,-0.28857c0.01541,-0.0373 0.0308,-0.07462 0.04614,-0.11194l-0.01335,-0.01908l0.02974,-0.02082c0.17941,-0.43719 0.35399,-0.87587 0.52234,-1.3165c-2.23179,-2.04463 -1.94037,-3.85567 -1.97506,-6.65979c-0.08238,-6.65887 3.48541,-12.4081 6.1951,-18.27099l0.43191,-1.18776c0.04866,-0.71988 0.09126,-1.44159 0.12582,-2.16586c0.13401,-2.80913 -0.32008,-4.03079 0.3093,-7.20662c0.62799,-3.1688 2.00695,-6.37903 3.68839,-9.27967l0.64314,-1.76863c0.2578,-0.76421 0.84228,-1.37807 1.58733,-1.67549c0.01499,-0.02085 0.02998,-0.04166 0.04499,-0.06245c0,0 1.61747,-2.22402 3.8415,-0.60655c2.22402,1.61747 0.60655,3.8415 0.60655,3.8415c-0.29004,0.39528 -0.57674,0.8049 -0.85776,1.22672l-0.12436,1.61672l-0.08341,-0.00642c0.01442,0.1129 0.02684,0.22617 0.0371,0.33985c0.09567,1.06021 -0.76977,1.99294 -1.00641,3.03082c-0.70628,3.09772 -1.36643,6.34516 -1.99624,9.48214c-1.31493,6.54949 -1.75445,13.13277 -1.88888,19.75991c0.66739,1.51794 2.08556,2.471 2.89595,4.03277c0.75689,1.45868 2.72484,3.12926 1.89862,4.54982c-0.49128,0.84468 -1.06843,1.45808 -1.7036,1.89582c0.23176,1.5821 -0.25827,3.39104 -0.68535,4.9342c-0.5573,2.01368 -3.05895,2.92298 -4.12344,4.72086c-1.56458,2.64251 -2.31009,5.84977 -3.85264,8.48009c-0.22356,0.38121 -0.87998,0.45379 -0.98999,0.88181c-0.06155,0.23949 0.4906,0.11285 0.70094,0.24286c0.59863,0.37002 1.14136,0.82375 1.70546,1.24454c0.74442,0.5553 1.47996,1.12241 2.21994,1.68361l0.1006,0.29217l0.09905,-0.08667l1.74123,1.98997c0.42888,0.48502 0.68919,1.12257 0.68919,1.82091c0,1.51878 -1.23122,2.75 -2.75,2.75c-0.5337,0 -1.03189,-0.15203 -1.45362,-0.41515l-2.46124,-1.47675l0.00493,-0.00821c-0.01195,-0.00352 -0.02389,-0.00705 -0.03582,-0.01061c-0.69716,-0.20769 -2.86076,-2.09855 -3.99045,-2.3456c-1.69681,-0.37107 -1.07561,0.92439 -1.7806,2.03913c-0.85241,1.34784 -2.39823,2.22571 -3.06282,3.67539c-0.99476,2.1699 -1.51201,4.77661 -1.49097,7.12779l-0.59925,2.45975zM215.19933,258.6262c-0.14071,-0.03465 -0.29394,-0.08145 -0.45117,-0.14465c-0.01545,0.18999 -0.03181,0.37933 -0.04927,0.5681c0.16254,-0.14583 0.33004,-0.28648 0.50044,-0.42344z"></path><path d="M276.69033,165.74516l2.01513,-2.21471c0,0 0.03715,-0.03715 0.10632,-0.09605c1.05916,-1.52866 2.13159,-3.00145 3.22386,-4.44545c0.68632,-1.15539 1.46485,-2.22964 2.38056,-3.16844c0.09281,-0.09515 0.19082,-0.1843 0.2928,-0.26886c1.46798,-1.84117 2.97846,-3.67043 4.54588,-5.54741c1.13965,-1.36473 1.7722,-3.00646 2.57149,-4.56142c0.22662,-0.47 0.45678,-0.92238 0.69512,-1.34813c3.73766,-6.67666 7.68092,-13.16237 10.53226,-20.27637c1.17313,-3.74244 3.46343,-6.17139 5.48892,-9.5095c1.43717,-2.36853 2.67524,-4.85778 3.79578,-7.38933l0.06965,-0.90542l0.12041,0.00926c-0.01532,-0.1767 -0.02514,-0.35414 -0.02872,-0.53241c-0.05365,-2.66696 2.46379,-4.73227 3.73351,-7.0782c2.63273,-4.86422 5.55064,-9.76427 7.2999,-15.03322c0.71416,-2.15112 1.75967,-4.18019 2.52182,-6.31478c0.333,-0.93266 0.46695,-1.86561 0.61865,-2.77126c-0.14817,-0.45774 -0.24298,-0.99632 -0.27302,-1.62821c-0.06075,-1.27785 1.17641,-2.09264 2.47565,-2.79382c0.04042,-0.0323 0.08164,-0.06445 0.1237,-0.09644c0.58625,-0.44593 1.24681,-0.7909 1.94729,-1.03572c1.11132,-0.56877 2.41115,-0.73615 3.6123,-1.10216c1.86017,-0.56682 3.66337,-1.50605 5.6047,-1.61889c1.45302,-0.08446 3.26613,-0.4051 4.67654,-0.05052c0.37687,-0.57296 0.74745,-1.15305 1.11082,-1.74143c2.18168,-3.53267 4.64881,-6.60144 5.81995,-10.56001c0,0 0.80874,-2.62839 3.43713,-1.81966c2.62839,0.80874 1.81966,3.43713 1.81966,3.43713c-3.62193,11.42627 -12.98765,20.98058 -20.16451,30.32259c-2.10804,2.74401 -2.72915,5.64222 -5.01934,8.31322l-0.18747,0.06354l0.05381,0.0615l-0.22531,0.19715c-0.03394,0.35856 -0.09699,0.69528 -0.19524,1.00213c-1.73076,5.40514 -6.31399,9.62859 -8.73695,14.51053l-0.43916,2.41536c-0.18563,1.14156 -1.07408,2.04724 -2.20683,2.25853c-1.178,2.09574 -2.2573,4.27807 -3.25194,6.43038c-1.4595,3.15823 -1.77243,6.35719 -3.70548,9.37385c-1.92914,3.01057 -4.6691,5.72047 -6.49629,8.74432c-1.22112,2.02086 -1.94098,4.33214 -3.27161,6.28263c-4.20568,6.16487 -9.14726,11.80686 -13.57324,17.85368c-1.98767,2.64838 -4.73655,5.07872 -6.82078,7.76267c-0.21037,0.52762 -0.42442,1.03502 -0.64674,1.51361c-0.71603,1.54133 -1.48522,2.83791 -2.13868,4.17914c-0.23689,0.91205 -0.4492,1.8346 -0.72781,2.72669l-0.84717,2.01302c0,0 -0.03066,0.07154 -0.0937,0.1854c-0.24262,0.49706 -0.68151,1.09653 -1.44436,1.36059c-0.06183,0.02518 -0.12564,0.04804 -0.19145,0.06822c-0.1535,0.38271 -0.31994,0.76086 -0.49935,1.13431c0.40713,3.34651 0.58885,6.70727 0.93757,10.14456l0.01365,1.27364c0,0 0,2.75 -2.75,2.75c-2.75,0 -2.75,-2.75 -2.75,-2.75l0.01365,-0.72636c-0.12537,-1.27019 -0.22333,-2.53397 -0.3184,-3.79257c-1.04573,1.37929 -2.19158,2.77031 -3.33272,3.28385c-3.66903,1.65116 -6.37626,-0.52461 -8.47995,-3.17899c-0.58823,-0.62093 -1.1265,-1.40421 -1.61347,-2.23978c-0.35856,-0.53125 -0.69704,-1.04472 -1.01828,-1.51384c-0.83067,-1.21302 -2.61272,-2.06792 -2.6336,-3.53796c-0.00507,-0.35699 0.03653,-0.70502 0.1133,-1.0463l-0.21688,-0.02169l0.24697,-2.46975c0.10929,-1.24627 1.0499,-2.25411 2.264,-2.46568c-1.69187,-1.93879 -5.06118,-2.90394 -6.0989,-5.57369c-1.11473,-2.86787 -0.17572,-8.35813 -0.17572,-11.46725c0,0 0,-2.75 2.75,-2.75c2.75,0 2.75,2.75 2.75,2.75c0,2.5727 0.10547,5.17936 0,7.75c-0.02448,0.59663 -0.3568,1.21374 -0.17572,1.78275c0.36621,1.15075 1.8659,1.53438 2.82572,2.26725c2.28996,1.74849 3.21498,2.05736 4.20648,5.07321c0.44037,1.33948 0.55007,2.7745 0.6366,4.18185c0.03596,0.5849 -0.54622,1.21847 -0.27271,1.73673c0.31116,0.58963 1.25471,0.5403 1.72418,1.01367c0.89751,0.90499 1.53734,2.0334 2.30601,3.0501l-0.01604,0.28219c1.40146,-1.49292 2.55811,-3.05135 3.4287,-4.74275c-0.24512,-1.60243 -0.57064,-3.2005 -1.02914,-4.79683c-1.07025,-2.95785 -3.36861,-8.59166 -1.75684,-11.67492c0.99777,-1.90871 2.57824,-4.38205 4.73194,-4.39969c1.15766,-0.00948 2.47851,2.24844 3.52227,4.69319c0.23193,-0.38025 0.45287,-0.77741 0.6589,-1.19658z"></path><path d="M281.26975,277.11969c1.4763,-0.49249 2.91069,-1.43353 4.46538,-1.36321c0.13898,0.00629 0.27725,0.01679 0.41488,0.0311v-0.06258h3.25c1.51878,0 2.75,1.23122 2.75,2.75c0,0.91114 -0.44312,1.71879 -1.1256,2.2192l-1.9744,1.4808l-0.15657,-0.20876l-0.37096,0.51925c-3.49806,0.77844 -6.37853,1.9905 -9.34599,3.34966l-1.02234,1.16839c0.02632,0.85112 0.19219,1.85304 0.88742,2.26515c0.98996,0.58682 2.0342,1.07682 3.0513,1.61522l0.0955,0.14343l0.03867,-0.05524l2.46848,1.72793c0.72704,0.49488 1.2045,1.32916 1.2045,2.27495c0,1.51878 -1.23122,2.75 -2.75,2.75c-0.30404,0 -0.59655,-0.04934 -0.86997,-0.14045l-3.04777,-0.93777c-1.65984,0.00444 -3.39301,-0.54982 -4.97779,-0.0579c-1.26325,0.39212 -2.29977,1.77528 -3.61514,1.6361c-1.42106,-0.15036 -2.86527,-0.83337 -3.92878,-1.83175c-0.3896,0.21159 -0.83605,0.33177 -1.31056,0.33177c-1.51878,0 -2.75,-1.23122 -2.75,-2.75c0,-0.46188 0.11387,-0.89717 0.31507,-1.27932l1.22526,-2.45052l0.03763,0.01881l0.01138,-0.1123c0.50399,-0.83838 0.84218,-1.57664 1.15505,-2.21373c0.12757,-1.15576 0.2745,-2.19317 0.34913,-2.92399l0.34023,-0.35799l-0.18064,-0.08337l1.47403,-3.19373c0.41742,-0.95939 1.36606,-1.63433 2.47452,-1.65344c1.71254,-5.94073 2.79833,-11.71913 2.79833,-18.00042c0,-1.47018 0.42872,-2.98584 0.06402,-4.41006c-0.4339,-1.69447 -1.89616,-2.94509 -2.71138,-4.49265c-1.08432,-2.05841 -1.31985,-4.52099 -1.35265,-6.84729c0,0 0,-2.75 2.75,-2.75c1.41242,0 2.09941,0.72543 2.43356,1.43111c1.50311,0.16675 3.07583,0.404 4.59071,0.81604c-0.01866,-1.00143 0.05678,-2.03736 0.21424,-3.0529c-0.03662,-3.02748 0.10585,-6.05205 0.54311,-8.86006c0.51849,-3.32966 1.94983,-6.3078 2.81197,-9.54552c0.157,-0.58959 0.9805,-4.46735 1.75676,-6.23654c0.09532,-0.42222 0.17906,-0.84746 0.24678,-1.27657l1.09955,-2.79689c0,0 1.02132,-2.55331 3.57464,-1.53199c0.07806,0.03122 0.15278,0.06388 0.22429,0.09785c1.28223,0.23337 2.25438,1.35588 2.25438,2.70546c0,0.35267 -0.06639,0.68983 -0.18734,0.99967l-0.97823,2.69012c-1.0393,2.7133 -0.86302,4.98911 -1.1056,7.90073c-0.44474,2.67294 -0.34298,6.03253 -1.07031,8.61284c-0.23633,0.8384 -0.54446,1.59614 -0.8836,2.30734c0.0208,1.06422 0.02059,2.11154 -0.02835,3.12629c-0.12594,2.61136 0.05105,5.24849 0.00341,7.86301c-0.01817,0.99742 0.3601,2.11991 0.09582,3.04782c0.9197,1.92433 1.52979,4.42746 1.15216,6.55771c-0.33123,1.86845 0.20557,4.74625 -1.54477,5.47914c-1.49449,0.62576 -3.35253,0.09541 -4.85795,-0.85875c-0.15957,0.54428 -0.29952,1.06976 -0.39967,1.56842c-0.93577,4.65934 -0.69494,9.22146 -1.85672,13.51378c0.57377,-0.23957 1.16935,-0.45943 1.78088,-0.66344z"></path></g><g fill="none" stroke-width="0"><path d="M-34,360v-359h34v359z"></path><path d="M480,360v-359h34v359z"></path></g><g fill-opacity="0.1098" fill="#f6d1ff" stroke-width="0.5"><path d="M215.95549,281.27752c-2.64419,0.75548 -3.39967,-1.88871 -3.39967,-1.88871l-0.13508,-1.32831c-0.7285,-0.8742 -1.0899,-2.1278 -1.89004,-2.89688c-0.87954,1.32051 -1.83682,2.59193 -2.82856,3.8272c-1.0052,1.25203 -1.5761,3.05954 -2.64516,4.20596c-1.51668,2.5121 -3.0885,4.98865 -4.3691,7.60832c-0.9726,1.98961 -0.28336,8.42241 -1.92148,9.42186c-2.79676,1.70636 -6.15332,-1.29741 -8.1285,-2.66372c-1.9936,-1.37905 -6.35337,-3.55733 -5.83445,-6.92841c0.28568,-1.85591 2.29363,-3.05308 3.8334,-4.12784c0.87242,-0.60896 2.07324,-0.47906 3.10985,-0.71859c2.24889,-1.48705 2.67441,-4.65326 4.12875,-6.95771c1.15602,-1.83175 3.00661,-3.97896 5.19472,-5.76989c1.3782,-4.01684 2.69211,-7.7118 4.67017,-11.6573c0.73672,-1.46948 1.5395,-3.29915 2.62447,-4.72079c-0.93025,-1.02696 -1.4015,-2.43833 -2.14156,-3.62458c-0.16168,-5.64971 0.90149,-9.90876 2.81169,-15.24057l0.18566,-0.17246l-0.07492,-0.04281l1.30685,-2.28698c0.4466,-0.81627 1.29513,-1.38124 2.27942,-1.42872c0.17735,-0.57435 0.32366,-1.15093 0.42645,-1.73038c0.45076,-2.54116 -0.40092,-5.19528 0.01445,-7.74246c0.44654,-2.73831 1.92801,-5.53538 2.71108,-8.184c0.5861,-1.98241 0.75984,-4.07169 1.34873,-6.05328c0,0 0.79021,-2.63402 3.42423,-1.84382c2.63402,0.79021 1.84382,3.42423 1.84382,3.42423c-0.58915,1.94298 -0.74763,3.99813 -1.31793,5.94672c-0.74433,2.54322 -2.17469,5.20238 -2.62225,7.816c-0.42707,2.49399 0.44113,5.09681 0.01445,7.59087c-0.35872,2.09687 -1.29045,4.17622 -2.21014,6.243c0.13831,0.84834 -0.19465,1.77603 -0.09791,2.64647c0.33339,2.9997 0.507,5.76221 0.67777,8.79586c0.01492,0.265 0.03672,0.51882 0.06233,0.76353c2.0287,0.26264 4.06219,0.58681 2.15832,4.87092c-0.24023,0.54057 -0.53867,0.99037 -0.882,1.35979v1.50997h-0.10949l0.08888,0.336c-1.12049,4.55296 -2.27673,7.75831 -4.79036,11.18844c1.12771,1.2154 2.69916,3.14575 3.17357,3.71505l1.19825,3.33836c0,0 0.75548,2.64419 -1.88871,3.39967zM191.2465,291.40551c0.42502,0.26495 1.76686,1.12416 2.89152,1.88343c0.01322,-1.06637 0.30145,-2.08508 0.74147,-3.06768c-0.30575,0.18833 -0.60754,0.38077 -0.89284,0.59033c-0.91399,0.19441 -1.81607,0.45831 -2.74015,0.59391z"></path><path d="M282.09924,230.82227c-0.98257,-0.80424 -0.98257,-2.18893 -0.98257,-2.18893v-0.66667c0.04223,-3.85815 0.5559,-5.96597 2.01666,-8.03334l-0.393,-0.1965l1.30669,-2.61338c0.44095,-0.93018 1.38851,-1.57345 2.48632,-1.57345c1.51878,0 2.75,1.23122 2.75,2.75v3c-0.02096,4.21265 -1.28048,7.75788 -2.04676,11.83829c-0.14217,0.75704 -0.61184,5.48176 -0.70242,5.8303c-0.28843,1.10982 -1.06635,2.06226 -1.30044,3.1848c-0.7412,3.55431 0.05868,8.15162 0.04962,11.81329c-0.00327,1.32225 0.40484,2.71338 -0.01642,3.96674c-0.03217,0.09571 -0.06611,0.19062 -0.1017,0.28479l0.05263,0.0117l-0.65492,2.94712c-0.25235,1.25838 -1.36361,2.20632 -2.69626,2.20632c-0.80704,0 -1.53289,-0.34764 -2.03595,-0.90135c-0.18602,3.38113 -0.622,6.64481 -1.5259,10.0965c-0.10574,2.04424 -0.27118,4.08447 -0.57036,6.08948c0.29818,-0.135 0.60246,-0.26656 0.91261,-0.39514l0.55293,0.20303v-0.2592h2.66667c1.51878,0 2.75,1.23122 2.75,2.75c0,1.18042 -0.74373,2.18712 -1.78815,2.5771l-3.18068,1.27227c-1.50718,0.92238 -2.68069,1.44795 -3.65332,1.52604c-0.32577,0.4589 -0.62608,1.00465 -0.92052,1.67697c-0.19285,0.44035 -0.19012,2.21289 -0.39896,3.52654c0.39721,0.00197 0.79443,0.00441 1.19163,0.00441h2.66667c1.51878,0 2.75,1.23122 2.75,2.75c0,1.38032 -1.01696,2.52312 -2.34249,2.72002l-3.95541,0.65923l-0.00512,-0.0307c-0.07295,0.02069 -0.14633,0.04028 -0.22016,0.05874c-2.05543,0.51387 -3.42819,0.24174 -4.32576,-0.50034c-2.42567,-0.09944 -4.73787,-0.71495 -6.0274,-3.01045c-0.71289,-1.26902 -0.06409,-2.91779 0.08336,-4.36585c0.29851,-2.93165 1.05423,-5.91383 2.182,-8.61393c0,0 1.08328,-2.52765 3.61093,-1.44437c0.59025,0.25297 0.9836,0.58469 1.23981,0.9446c-0.49845,-2.94713 0.67811,-6.64258 1.37062,-9.18811c0.09888,-2.71624 0.09492,-5.43274 0.22637,-8.0325c0.03298,-0.65233 0.30992,-4.17458 0.82912,-6.07861c-3.19698,-1.75229 -6.4879,-5.67167 -4.79702,-9.55824c0.05923,-0.13614 0.12279,-0.26969 0.19025,-0.40091l-0.08464,-0.02821l0.97995,-2.93984c0.34559,-1.12372 1.39187,-1.94053 2.62893,-1.94053c1.51878,0 2.75,1.23122 2.75,2.75v3.33333h-0.00394c-0.00405,0.27439 -0.02564,0.54921 -0.0574,0.80685c0.61878,-0.45304 2.104,-1.23661 3.58922,0.24861c0.22227,0.22227 0.39372,0.44454 0.52308,0.6639c0.06386,-0.82105 0.11571,-1.54245 0.11571,-2.05269c0,-0.61032 -0.01431,-6.85552 0.04962,-7.18671c0.23629,-1.22418 1.04501,-2.27719 1.36622,-3.48187c0.47569,-1.78403 0.2911,-3.68821 0.63091,-5.50304c0.08265,-0.44142 0.1734,-0.87621 0.26914,-1.30611z"></path><path d="M312.2,110.21666c0.78718,0 1.34903,0.22533 1.75005,0.54698c0.20155,-0.50391 0.4002,-1.01556 0.59702,-1.53567l0.62333,-2.805c0.25235,-1.25838 1.36361,-2.20632 2.69626,-2.20632c1.51878,0 2.75,1.23122 2.75,2.75v2.66667h-0.0582c0.0164,0.10489 0.02977,0.21055 0.03986,0.31704c0.18645,1.96792 -0.83037,3.86701 -1.34266,5.7762c-1.40152,5.22319 -4.39727,9.95781 -6.65582,14.86478l0.06659,0.92484c-0.52229,0.62364 -1.04933,1.2433 -1.58047,1.85948l-0.13848,0.24235c-0.22587,0.41284 -0.55456,0.7614 -0.95162,1.01124c-1.23678,1.41027 -2.49291,2.80376 -3.76023,4.18637c-3.0494,3.35977 -5.15041,7.18496 -7.61474,10.89655c-0.56987,1.45854 -1.14178,2.91675 -1.88447,4.28891c-2.38359,4.40376 -6.39246,7.79636 -8.86111,12.07363c-1.35751,2.35207 -2.20287,5.01125 -3.80514,7.20392c-1.50754,2.06302 -3.29514,3.86908 -5.0474,5.71334c-0.79118,5.0351 0.9778,10.81752 -1.47967,15.27317c-0.96904,1.75697 -2.45274,3.17616 -3.67911,4.76424l-2.11392,-5.3091c-1.09724,-0.1189 -2.16483,-1.18759 -3.30253,-1.44191c-3.72725,-0.83319 -6.64382,-0.52152 -9.35511,-3.8785c-2.76944,-3.429 -2.11808,-7.07171 -1.62121,-11.10765c0,0 0.3411,-2.72876 3.06986,-2.38767c2.72876,0.3411 2.38767,3.06986 2.38767,3.06986c-0.27622,2.17249 -1.26332,5.0569 0.37879,6.89235c2.23674,2.50009 5.31952,1.12734 7.62221,3.05724c-0.1035,-0.64729 -0.12269,-1.30561 -0.13435,-1.96314l-0.84051,0.45777c-0.19331,-2.09408 -1.03266,-4.22856 -0.57994,-6.28224c0.19398,-0.87998 0.77457,-1.58287 1.40246,-2.26819c-0.04053,-1.17846 0.00552,-2.35884 0.00591,-3.5382c0,-0.01001 0,-0.02002 0,-0.03003c-0.00037,-1.11111 -0.63848,-2.42399 0,-3.33333c0,-0.22222 0,-0.44444 0,-0.66667l2.75,-5.41667c0.75642,1.6733 1.71225,3.27282 2.37385,4.98121c0.51477,-0.93694 1.0194,-1.87938 1.51573,-2.82571c1.76869,-3.37228 3.43956,-5.43659 5.59912,-8.41781c1.25783,-1.7364 3.53571,-6.60754 4.57696,-8.21004c1.07348,-1.6521 2.59441,-3.01 3.51509,-4.75188c1.07106,-2.0264 1.33605,-4.388 2.13523,-6.5362c0.35226,-0.94688 3.16425,-5.80079 3.85165,-7.10589c2.32983,-4.42341 3.98236,-7.8199 7.56389,-11.40142l1.81529,-0.77716c1.00313,-2.44672 2.13145,-4.80301 3.19221,-7.28838l-0.22235,0.41661c0,0 0,-2.75 2.75,-2.75z"></path><path d="M220.04791,151.92131c1.09569,-1.40005 1.53587,-3.21481 2.47405,-4.72494c1.7115,-2.7549 4.46181,-5.24851 6.7335,-7.50759c0.73703,-0.73294 2.07115,-2.25738 3.54702,-3.40344c0.47152,-0.83685 1.36852,-1.40201 2.39752,-1.40201c0.08604,0 0.17115,0.00395 0.25518,0.01168c0.4248,-0.08554 0.83934,-0.084 1.23298,0.03199c3.66743,1.08066 4.36034,2.74309 3.85211,4.51873c0.9557,1.71383 1.66316,3.08595 2.264,4.56253l0.35054,-0.23369l1.97914,2.96872c0.30449,0.44263 0.48272,0.97885 0.48272,1.55671c0,1.51878 -1.23122,2.75 -2.75,2.75c-0.67623,0 -1.29545,-0.24408 -1.77437,-0.64895l-1.83616,-1.53013c-0.90833,-0.50011 -1.81666,-1.00022 -2.72499,-1.50033c0,0 -1.53009,-0.85005 -1.47066,-2.41452c-0.39244,-0.24937 -0.71739,-0.59545 -0.94131,-1.00471l-0.48579,-0.85013c-0.16495,0.15714 -0.3286,0.31539 -0.48884,0.47665c-1.92912,1.94133 -4.48586,4.11189 -5.93317,6.49241c-0.68322,1.12375 -1.16903,2.3712 -1.77356,3.54044c0.60754,0.8729 0.49854,1.96291 0.49854,1.96291c-0.1604,1.58701 -0.24066,3.15279 -0.28066,4.71901c0.03369,0.13391 0.07394,0.26343 0.12349,0.38659c0.75502,1.87629 1.13579,3.95434 2.27728,5.62392c1.1981,1.75238 4.07552,2.46683 4.44912,4.55649c0.31344,1.75317 0.26288,3.92747 -0.91404,5.26416c-3.86578,4.39056 -9.94062,-0.14523 -11.3437,-3.98456c-0.13294,-0.36379 -0.13779,-3.7574 -0.1339,-5.52483c-0.31628,-0.80674 -0.63888,-1.61059 -1.02404,-2.38592c-0.5209,-1.04858 -1.65692,-1.84738 -1.81447,-3.00757c-0.0423,-0.31153 -0.07851,-0.61268 -0.10835,-0.90322c-0.113,0.03311 -0.22686,0.06502 -0.34159,0.09572c0.04929,-0.21277 0.09623,-0.42591 0.14008,-0.63933c0.21816,-0.82131 0.33442,-1.68412 0.33442,-2.5741c0,-0.03726 -0.0002,-0.07446 -0.00061,-0.11162c0.0207,-0.87554 -0.06181,-1.7498 -0.29796,-2.6169c-0.00881,-0.03236 -0.01792,-0.06451 -0.02733,-0.09647c1.10593,-0.51283 2.14043,-1.26104 3.07381,-2.45369z"></path><path d="M199.2,91.55c2.75,0 2.75,2.75 2.75,2.75l-0.22235,-0.08328c1.62628,3.95657 4.29047,3.9821 7.04483,6.76742c2.59561,2.62478 2.93581,6.23315 4.76234,9.19622c0.46911,0.76101 1.06548,1.44656 1.72016,2.0627c1.10308,0.06978 2.19795,0.27585 3.29812,0.39399l0.31784,0.31964l0.079,-0.18434l2.27508,0.97503c1.01111,0.4064 1.72497,1.39614 1.72497,2.55261c0,1.51878 -1.23122,2.75 -2.75,2.75c-0.09563,0 -0.19013,-0.00488 -0.28324,-0.01441l-3.6324,-0.33022l0.00845,-0.09299c-0.1442,0.0102 -0.28882,0.01707 -0.43391,0.02029c-0.7199,0.01599 -1.42417,-0.24255 -2.07444,-0.61308c-1.27403,0.038 -2.51339,-0.03371 -3.58424,-0.64767c-0.21619,-0.12395 -0.84463,-0.96605 -1.59364,-2.04172c-0.41154,0.24544 -0.8926,0.38645 -1.40658,0.38645h-2.66667c-1.94782,-0.00134 -6.83819,0.11883 -8.37615,-0.53873c-6.5401,-2.79622 -4.02931,-12.50948 -0.73645,-16.63845c0,0 0.6971,-0.83653 1.74039,-1.01813c-0.13998,-0.33227 -0.29829,-0.70648 -0.48876,-1.13808l-0.22235,-2.08328c0,0 0,-2.75 2.75,-2.75zM202.58348,107.16615c-0.47239,-0.69483 -0.74817,-1.50846 -1.03647,-2.29765c-0.09185,-0.25143 -0.15271,-0.96461 -0.15714,-1.01805c0.00058,0.00718 0.00213,0.02678 0.0047,0.0612c0.21702,2.9014 1.15821,4.5227 2.69055,5.79344l0.82373,0.12673c-0.72929,-0.92593 -1.66249,-1.69065 -2.32537,-2.66567z"></path><path d="M240.53334,91.71666c-2.75,0 -2.75,-2.75 -2.75,-2.75l0.08211,-1.66697c0.22222,-0.88889 0.44444,-1.77778 0.66667,-2.66667c0,0 0.66697,-2.66789 3.33486,-2.00092c2.66789,0.66697 2.00092,3.33486 2.00092,3.33486c-0.22222,0.88889 -0.44444,1.77778 -0.66667,2.66667l0.08211,0.33303c0,0 0,2.75 -2.75,2.75z"></path></g><path d="M231.83196,75.59764c-0.31232,-1.03575 -0.4288,-2.12607 0.16394,-3.0291c0.55824,-0.85048 1.87354,-0.79347 2.81032,-1.19021c0,0 1.68834,-0.46045 2.1488,1.22788c0.19357,0.70973 0.00741,1.20248 -0.27343,1.53525c0.10721,1.35486 0.01112,2.63276 -0.07292,3.93346c0.01212,0.04514 0.02228,0.08858 0.03078,0.12968c0.00132,0.00606 0.00262,0.01218 0.00392,0.01837c-0.88995,0.66928 -1.79925,1.38432 -2.52213,2.10116c-0.39835,0.39502 -0.62025,0.99805 -1.02666,1.36542c-1.19629,-1.99241 -1.40396,-3.5437 -1.41124,-5.95621z" fill="#43447b" stroke-width="0.5"></path><path d="M231.68334,75.73333v0c0,-0.00001 0,-0.00001 0,-0.00002z" fill="#43447b" stroke-width="0.5"></path><path d="M237.65,250.80117c-1.25,0 -1.25,-1.25 -1.25,-1.25v-1c0.01087,-0.48846 0.51163,-1.30715 0.04922,-1.46492c-2.33184,-0.79559 -4.2756,0.12421 -6.13639,-2.35684c-2.67331,-1.78554 -2.16283,-4.99008 -2.16283,-7.92824c0,-6.25262 0.5,-12.63787 0.5,-19c0,-0.43412 0.15077,-0.71747 0.34758,-0.90242c0.18494,-0.19681 0.4683,-0.34758 0.90242,-0.34758c0.03025,0 0.05976,0.00073 0.08856,0.00216l0.90658,0.02212c3.81615,0.7782 5.63123,4.1829 9.07392,5.61277c2.40763,1.44982 6.43037,2.53028 7.1531,5.85063c0.43689,2.00716 -1.65311,4.12813 -2.29383,5.92949c-1.79826,5.05575 -3.33522,10.36887 -5.26774,15.29708c0,0 -0.2233,0.55826 -0.74734,0.74554c-0.12435,0.35648 -0.42693,0.79022 -1.16325,0.79022z" fill="#a69cb5" stroke-width="0.5"></path><path d="M276.29845,248.96177c-1.69013,-0.63119 -2.82151,-1.62734 -4.05803,-2.62455c-0.21819,0.49373 -0.54433,0.91128 -1.03503,1.1483c-1.21222,0.58552 -3.87462,-2.21617 -4.20684,-3.02059c-0.56034,-1.35676 0.2088,-3.11197 -0.28959,-4.54105c-1.04318,-2.99119 -1.78127,-5.28142 -2.06052,-7.97832l-0.23497,0.03889l-0.48645,-2.43541c-0.0177,-0.08012 -0.027,-0.163 -0.027,-0.24787c0,-0.69036 0.61482,-1.25 1.37324,-1.25c0.08092,0 0.16022,0.00637 0.2373,0.01859c0.02856,-0.04135 0.06056,-0.08207 0.0964,-0.12138c0.10951,-0.36966 0.42206,-0.89721 1.31419,-0.89721c0.2054,0 0.38008,0.02796 0.52863,0.07553c1.28396,-0.36803 2.36151,-0.33731 3.78791,-0.78366c3.56865,-1.1167 6.60936,-2.25813 10.51444,-2.29187h0.27465c0.47692,0 0.78821,0.15077 0.99139,0.34758c0.21622,0.18494 0.38185,0.4683 0.38185,0.90242c0,0.06724 -0.00397,0.13085 -0.01149,0.19104c-0.15026,1.94182 -1.28987,3.54587 -1.90573,5.36752c-0.03206,0.59229 0.07202,1.20648 -0.012,2.06461c-0.30291,3.09357 -0.34488,6.46078 -0.82688,9.5245c-0.14959,0.95081 -0.20278,2.23604 -0.56094,3.24819c-0.07578,0.61133 -0.16625,1.22133 -0.27589,1.8295l-0.01398,0.01801l0.00981,0.00178l-0.26966,1.22729c-0.11528,0.58424 -0.67654,1.02756 -1.35156,1.02756c-0.57922,0 -1.07468,-0.32642 -1.27648,-0.7882z" fill="#6d587e" stroke-width="0.5"></path><g stroke-width="0.5"><path d="M226.15,214.55117c-1.25,0 -1.25,-1.25 -1.25,-1.25c0,-2.33334 0,-5.41666 0,-7.75c0,-3.77357 -0.9601,-8.48043 1.57175,-11.33718c0.78879,-0.89002 1.37025,-3.19784 3.3764,-1.87394l0.04175,-0.03132c0.21062,-0.16155 0.47414,-0.25757 0.7601,-0.25757c0.69036,0 1.25,0.55964 1.25,1.25c0,3.16666 0,7.58334 0,10.75c0,8.74324 -0.61964,17.48533 -1.50608,26.12317c-0.16654,1.62282 -0.30023,3.161 -0.50329,4.77956c-0.11683,0.9312 0.24649,3.21371 -0.3303,4.06216c-0.05572,0.08197 -0.11438,0.16135 -0.17563,0.23846l0.03247,0.02319l-1.24032,1.73644c-0.22579,0.32457 -0.60151,0.53701 -1.02685,0.53701c-0.69036,0 -1.25,-0.55964 -1.25,-1.25v-1.44713c-0.17389,-1.52853 -0.42333,-3.04936 -0.72573,-4.55773c0,0 -0.00923,-0.04613 -0.01515,-0.12228c-0.00913,-0.07583 -0.00912,-0.12287 -0.00912,-0.12287v-0.25c0.02517,-3.48602 0.96336,-7.35977 1.50364,-10.84531c-0.00754,-2.90996 0.11795,-5.7875 0.29192,-8.65337c-0.18229,0.14624 -0.4377,0.24869 -0.79556,0.24869zM227.75413,231.61495c0.16315,-1.00409 0.31979,-1.98543 0.39956,-2.90899c-0.16529,0.97817 -0.30843,1.95447 -0.39956,2.90899z" fill="#baafcc"></path><path d="M224.08613,191.75671c1.21814,-0.75347 2.65444,-0.87107 3.47255,-0.1356c0.36463,0.11291 0.84133,0.40814 0.84133,1.18007c0,0.30298 -0.07343,0.53252 -0.18471,0.70642c-0.00919,0.26779 -0.04496,0.55991 -0.11065,0.87724c-0.2877,1.38977 -1.3449,3.32863 -2.09302,4.84925c-0.12231,0.29685 -0.25366,0.59437 -0.38531,0.89181c0.04728,1.92051 0.02382,3.84288 0.02054,5.76388l-0.03648,0.0843l0.02707,0.00387l-0.2474,1.73181c-0.07792,0.61548 -0.6034,1.09142 -1.24004,1.09142c-0.4633,0 -0.86774,-0.25206 -1.08365,-0.62653l-0.73821,-1.23036l0.41173,-0.24704c-0.02857,-0.05184 -0.05616,-0.10366 -0.08278,-0.15548c-0.22758,0.30895 -0.59393,0.50941 -1.00709,0.50941c-0.24074,0 -0.46557,-0.06805 -0.65633,-0.18597c-0.04557,0.17723 -0.09274,0.35372 -0.14177,0.52936c0,0 -0.3434,1.20191 -1.5453,0.85851c-1.20191,-0.3434 -0.85851,-1.5453 -0.85851,-1.5453c0.42884,-1.46032 0.7396,-3.12547 1.07953,-4.82743c0.01543,-2.1843 0.4288,-4.75433 0.62846,-6.20234c0.09508,-0.6895 -0.16396,-1.48984 0.20883,-2.07762c0.64006,-1.00916 2.24354,-1.57311 3.72121,-1.84368z" fill="#655077"></path><path d="M293.38281,217.57357c-4.29793,3.98482 -3.48281,-3.36336 -3.48281,-5.2724c0,-3.24986 -0.0152,-6.50018 0,-9.75c0.00576,-1.23144 -0.14181,-2.84871 1.01911,-3.76406c2.09107,-1.64873 4.59501,0.14576 4.97481,2.14088c0.56026,2.94314 0.59357,7.09591 0.00608,10.66428c0,0.4863 0,0.9726 0,1.4589v1.75c0,0.69036 -0.55964,1.25 -1.25,1.25c-0.29555,0 -0.56714,-0.10257 -0.78112,-0.27406c-0.05228,0.77614 -0.18035,1.51301 -0.48607,1.79645z" fill="#baafcc"></path><path d="M291.65,199.30117c0,0.68556 -0.37599,0.99513 -0.71555,1.13491c0.07087,0.23048 0.13492,0.45745 0.19942,0.66486c0.72068,2.31759 0.01614,6.22496 0.01614,8.70023c0,1.62448 0.03821,3.14661 -0.27427,4.74514l-0.24545,1.22729c-0.10494,0.58424 -0.61583,1.02756 -1.23027,1.02756c-0.4633,0 -0.86773,-0.25206 -1.08365,-0.62653l-0.73822,-1.23036l0.05253,-0.03152c-0.06616,-0.08922 -0.1282,-0.18165 -0.18531,-0.27793c-0.03202,-0.05399 -0.04242,-0.84664 -0.04536,-1.58357c-0.08201,0.0616 -0.17184,0.11334 -0.26773,0.15348c0.00291,0.79646 0.01773,1.58629 0.01773,2.34643c0,0 0,1.25 -1.25,1.25c-1.25,0 -1.25,-1.25 -1.25,-1.25c0,-2.36732 0.144,-4.72259 0.49991,-7.03217c0.00005,-0.12262 0.00009,-0.20233 0.00009,-0.21783c0,-2.5564 -1.13404,-8.61893 1.44099,-10.11804c0.27875,-0.16228 2.54538,-0.13196 3.05901,-0.13196h0.75c0,0 1.25,0 1.25,1.25z" fill="#655077"></path></g></g></g></svg>