<svg version="1.1" xmlns="http://www.w3.org/2000/svg" xmlns:xlink="http://www.w3.org/1999/xlink" width="184.47629" height="177.17208" viewBox="0,0,184.47629,177.17208"><g transform="translate(-183.05157,-122.53109)"><g stroke="none" stroke-width="0.5" stroke-miterlimit="10"><g><path d="M218.75881,178.12366c1.58277,2.59694 4.97508,5.887 1.92628,9.01957c-0.70876,0.72823 -1.82338,0.8438 -2.90642,0.87751l-0.16654,2.16507c-0.06982,1.04123 -0.93654,1.86419 -1.99546,1.86419c-0.63849,0 -1.2071,-0.2992 -1.57328,-0.76504l-1.32179,-1.65224l0.00341,-0.00273l-0.01193,-0.00799c-0.86296,-1.14078 -2.00964,-2.11445 -2.58889,-3.42233c-3.97179,-8.96785 0.95495,-20.69461 11.15915,-20.81634c0,0 2,0 2,2c0,0.02936 -0.00043,0.05828 -0.00128,0.08678c0.29261,0.7169 0.49551,1.50471 0.66622,2.16344c0.25241,0.97397 -0.44337,1.97441 -0.83913,2.89946c-0.92969,2.17305 -2.50972,4.07419 -4.35034,5.59065z" fill="#e5c1e4"></path><path d="M355.95878,145.71932c1.58885,-0.73338 2.92192,-1.13757 4.34958,-1.33742c0.86845,-0.79141 1.71819,-1.62974 2.33788,-2.11844l1.56605,-0.76973c0.16871,-0.08496 0.35395,-0.1385 0.54658,-0.15486c0.04689,-0.00585 0.09578,-0.01009 0.14619,-0.01208c0.28644,-0.35054 0.80451,-0.71351 1.63307,-0.41345c1.41036,0.51076 0.8996,1.92112 0.8996,1.92112c-1.97197,5.41969 -4.32649,8.91488 -9.57456,11.83836c-1.87611,1.0451 -4.89013,2.0323 -6.74256,0.20767c-2.68339,-2.64313 -0.14996,-6.70426 2.59442,-8.03515c0.28523,-1.12295 1.53057,-1.0507 1.53057,-1.0507c0.04222,0.00258 0.08447,0.00682 0.12675,0.01249c0.21191,-0.07306 0.42206,-0.09031 0.58643,-0.0878z" fill-opacity="0.97647" fill="#ad4eac"></path><path d="M288.95356,288.81136c-0.12233,-0.96986 -0.05281,-1.99165 0.13282,-3.49349c-0.00571,-0.56906 -0.01612,-1.14195 -0.01897,-1.72057c-2.53324,-5.08463 -3.75386,-10.7605 -4.444,-16.57033l-0.68115,-1.8164c-0.08101,-0.20157 -0.12559,-0.42169 -0.12559,-0.65223c0,-0.9665 0.7835,-1.75 1.75,-1.75c0.73886,0 1.37077,0.45789 1.62745,1.10537l0.52967,1.25195c-0.02541,-1.93624 0.12572,-4.07855 1.11791,-4.81057c0.82336,-0.60746 2.02036,-0.0787 3.05563,0.24091c0.12723,-0.02433 0.26662,-0.03766 0.41933,-0.03766c0.29751,0 0.54444,0.05058 0.7494,0.13454c0.10677,-0.11467 0.19318,-0.24233 0.2506,-0.3838c0,-0.4833 0,-1.50074 0,-1.50074c0,-0.9665 0.7835,-1.75 1.75,-1.75c0.63662,0 1.19384,0.33994 1.50005,0.84819l0.03404,0.05447c0.21853,-0.09809 0.46085,-0.15266 0.7159,-0.15266c0.9665,0 1.75,0.7835 1.75,1.75v2.19054c0.00599,0.06634 0.01176,0.1327 0.01734,0.19907c0.39172,0.71237 0.70643,1.50638 0.92796,2.42627c0.69614,2.89063 -0.18704,5.91416 0.50672,8.77713c0.63709,2.6291 1.39359,5.3726 2.00303,8.08899c0.6732,0.4148 1.25289,0.84777 1.76506,1.30211c0.14858,0.03947 0.29841,0.08886 0.44958,0.1491c2.45695,0.97906 5.24422,4.21008 4.46337,6.63809c0.3475,1.11463 0.31085,2.25699 -0.32113,3.13685c-0.62302,0.86739 -2.08276,0.53129 -3.14911,0.58967c-1.35665,0.07428 -1.99902,-0.0698 -2.66898,-0.26379c-3.72621,0.35117 -7.42776,0.48055 -11.19747,0.50936c-0.02948,0.00081 -0.06042,0.0011 -0.0926,0.00069c-0.44049,0.00317 -0.88192,0.00499 -1.32443,0.00564c-0.29151,0.06508 -0.63677,0.04667 -1.03577,-0.12566c-0.304,-0.10825 -0.6456,-0.30954 -0.86486,-0.68386c-0.23675,-0.36351 -0.26402,-0.75907 -0.22489,-1.07938c0.02411,-0.43034 0.15996,-0.74572 0.34614,-0.97683c0.13112,-0.5449 0.22307,-1.08798 0.28692,-1.63096zM293.06895,267.34977c0.00009,-0.04474 0.00017,-0.08827 0.00026,-0.13052c-0.00327,0.01622 -0.00653,0.03244 -0.00978,0.04867c0.00322,0.02728 0.00639,0.05456 0.00952,0.08185z" fill="#e5c1e4"></path><path d="M200.06668,299.05833c-0.73594,0 -1.36577,-0.45428 -1.62439,-1.09771l-0.73411,-1.71293l-0.1415,-1.68936c0,0 0,-0.54022 0.30015,-1.02037c-0.02632,-0.05593 -0.0537,-0.11126 -0.08212,-0.16597c0.00512,-1.07542 0.01523,-2.1508 0.03197,-3.22609c0.01759,-1.1298 0.24116,-2.2815 0.29977,-3.42407l1.17496,-0.55036c0.06857,-0.13468 0.15806,-0.26898 0.27485,-0.39015c1.85156,-2.73808 3.74896,-5.02619 5.98169,-7.42833c2.6632,-2.86527 4.462,-6.24072 7.28129,-9.0321c1.16666,-1.15511 2.07735,-2.47366 2.97442,-3.79912l-0.66317,-2.21058l0.01774,-0.00532c-0.49869,-1.22553 -0.64142,-2.52337 0.18192,-3.74578c0.42166,-0.62604 1.53306,0.09568 2.26224,-0.09934c0.77659,-0.20771 -0.02351,-1.68371 0.37387,-2.38252c1.5987,-2.81132 3.92948,-3.60635 6.72596,-4.65847l1.33184,-0.67667c0,0 0.32229,-0.16114 0.7475,-0.19095c0.12391,-0.37111 0.26504,-0.7272 0.54769,-0.98124c2.40731,-2.16366 7.79181,-1.7457 10.16088,0.18916c2.96025,2.41768 4.79875,8.73829 4.82655,12.29828v0.5c0,0 0,1.75 -1.75,1.75c-0.48828,0 -0.84032,-0.13624 -1.09413,-0.33269c-2.70777,3.89235 -6.17633,5.33497 -10.32404,5.18457c-0.60422,0.26961 -1.34432,0.31275 -1.92524,0.64495c-0.43976,0.25148 -0.8971,0.58989 -1.35847,0.9839c-1.55241,2.6027 -3.75865,4.67536 -5.66671,7.09358c-1.46116,1.85183 -2.47835,4.75526 -4.16694,6.66566c0.2864,0.27612 0.4789,0.64897 0.5249,1.06596l0.24569,1.96552c0.05205,0.36369 0.1297,0.77986 0.20892,1.22627c1.55943,-0.09823 1.78843,1.50479 1.78843,1.50479c0.13868,0.97346 0.84196,3.39247 1.07865,5.56909c-0.10413,0.00369 -0.20826,0.0074 -0.31239,0.01113c-0.05426,1.66727 -1.74867,1.66727 -1.74867,1.66727h-0.75c-2.16369,0 -5.80777,0.53654 -7.89591,-0.42847c-2.93165,0.41712 -5.85017,0.93908 -8.83499,1.11631c-0.02551,-0.06627 -0.05103,-0.13238 -0.07656,-0.19831c-0.06323,0.00692 -0.12748,0.01047 -0.19255,0.01047z" fill="#e5c1e4"></path><path d="M298.19038,263.4089c-1.8409,2.87257 -4.49268,6.17939 -7.48771,7.90858c-1.3395,0.77337 -2.98958,0.79488 -4.48392,1.19404c-0.72011,0.19235 -1.27819,0.81415 -2,1c-1.78583,0.45981 -4.086,0.17748 -5.9514,0.28766c-0.77592,0.15088 -1.55505,0.30414 -2.33569,0.47068c-2.5697,0.54819 -5.79997,2.43432 -8.10361,-0.54149c-0.36518,-0.47174 -0.34572,-1.06256 -0.21388,-1.68624c-1.06819,-1.09399 -1.90686,-2.4322 -2.89186,-3.61347l-1.15755,-1.38905c-3.09616,1.13229 -6.19225,2.24532 -9.37434,2.97836c-5.74508,1.32346 -13.43301,0.93607 -19.18976,-0.42525c-0.44176,-0.00101 -0.7859,-0.19683 -1.0324,-0.41505c-0.24186,-0.17542 -0.48315,-0.43334 -0.59807,-0.80171c-3.91469,-3.38251 -5.55468,-7.04744 -7.65267,-11.85688c-0.57056,-1.30795 -1.17792,-2.37047 -1.34285,-3.58401c-1.97378,0.95997 -3.86641,2.10861 -5.39828,2.99416c-4.83823,1.24756 -9.15725,2.12911 -14.1597,2.12911c-2.78692,0 -5.37036,0.44606 -7.80509,-1.35383c-2.28973,-1.6927 -2.19187,-3.88974 -2.19491,-6.39617c-0.00602,-4.95687 -0.33078,-10.07965 0.04912,-15.05185c-1.51858,-0.10129 -3.00644,-0.38492 -4.38986,-1.16333c-5.23216,-2.94398 -5.97288,-10.57284 -4.60845,-15.95345c1.49177,-5.88279 7.24315,-11.34685 11.39666,-15.50237c4.34308,-4.94866 8.88845,-7.24434 14.36118,-10.4535c4.53479,-2.65916 7.53694,-6.6425 12.51827,-8.74088l1.88538,-0.3608c0,0 0.00588,-0.00098 0.01702,-0.00248c1.46062,-0.66674 2.93192,-1.33179 4.16119,-2.37468c1.7567,-1.49034 2.82457,-3.12056 4.75927,-4.42624c5.96699,-2.72493 10.60165,-6.81853 16.24197,-9.99551c2.34449,-1.32057 5.14461,-1.829 7.5604,-3.03245c1.58342,-0.7888 2.94805,-1.97299 4.52989,-2.76495c4.97523,-2.49089 10.43725,-3.46498 15.59931,-5.37669c4.46632,-0.57723 8.47781,-2.39703 12.83223,-3.26817c5.1978,-1.03987 10.90608,-0.7868 16.20834,-0.78269c0.36262,-0.07646 0.70285,-0.00152 0.96603,0.10292c0.26643,0.08475 0.57279,0.23932 0.80403,0.52123c2.13883,1.69573 4.82327,3.26358 6.76616,5.06396c2.02524,1.8767 3.58978,4.87104 5.30487,7.01437c4.79776,5.99567 9.11193,14.16781 9.90657,22.06722c0.15736,0.04263 0.32368,0.11094 0.49864,0.21092c1.51943,0.86824 0.65118,2.38767 0.65118,2.38767c-6.60163,11.53946 -8.61846,25.1333 -13.57489,37.31883c-0.41392,3.53984 -0.44454,7.00671 -0.44454,10.56292c0,1.59889 -0.3856,4.31147 0.1443,5.90103c0.91597,2.74767 4.21121,4.76066 5.03061,7.59185c2.1524,7.43698 -3.0934,13.66084 -9.51644,16.20878c-6.23435,0.6004 -10.80729,-0.77441 -15.67742,-3.26309c-0.19731,0.22499 -0.39981,0.44585 -0.60735,0.66199z" fill="#316a70"></path><path d="M308.76668,152.20833c-0.20502,0.27336 -0.41853,0.48728 -0.63526,0.65231c1.05847,1.41698 1.88813,2.94339 2.40611,4.54835c-0.00769,0.82491 0.11019,1.66566 0.10432,2.4908c1.37651,1.17909 2.82819,2.43456 3.49162,4.17159c0.10133,0.2653 0.17974,0.60039 0.24031,0.97998c-1.91938,1.75158 -3.45289,3.85986 -5.30936,5.64172c0.00163,-0.12794 0.0024,-0.25619 0.00228,-0.38475c-0.00001,-0.01308 0.03486,-3.96338 -0.06679,-4.26305c-0.05293,-0.15605 -0.23149,-0.38463 -0.47404,-0.64346c-2.88796,4.02812 -7.90055,6.40597 -11.99295,8.98303c-4.13257,2.60236 -7.79418,6.28914 -12.13494,8.57976c-0.87761,0.46311 -1.74744,0.91743 -2.61093,1.36823c-0.38927,0.6742 -0.87775,1.31774 -1.17969,2.02787c-0.91238,2.14584 -1.94946,4.28018 -3.36671,6.13178c-5.94505,7.76707 -13.96952,14.31515 -23.43584,16.96493c-2.92335,0.81829 -6.0993,2.59122 -9.19378,2.60055c-3.35807,0.01012 -6.52197,-1.12039 -9.4667,-2.71861c-1.95355,-0.60434 -3.81528,-1.53705 -5.75542,-2.92081l-0.376,-0.18892c-1.97708,-1.0735 -3.95195,-2.34519 -5.71429,-3.85121c-0.55387,-0.27442 -1.07946,-0.59744 -1.55189,-1.00847c-0.27798,-0.24185 -1.21903,-1.64996 -2.05871,-2.9234c-0.14886,-0.21515 -0.29286,-0.43369 -0.43168,-0.65569c-0.40817,-0.62024 -0.75155,-1.14058 -0.92057,-1.37457c-0.98869,-1.36871 -4.02008,-4.95952 -4.52268,-5.9702c-2.99292,-6.01842 0.69074,-12.2065 2.90868,-17.57436l0.42775,-0.24092l-0.15241,-0.13336l1.73976,-1.9883c0.07948,-0.09179 0.16493,-0.17827 0.25575,-0.25883c0.42943,-1.37993 0.9856,-2.69731 1.73478,-3.88774c1.30288,-2.07024 5.03171,-6.17747 6.99954,-7.54816c2.63368,-1.83449 5.64365,-1.65179 8.4186,-2.99423c7.00424,-3.38845 13.63487,-6.86149 21.19236,-8.91352c1.31486,-0.35701 3.43203,-1.16813 5.05184,-1.17411c1.53583,-0.82629 3.15163,-1.51602 4.88432,-2.05751c4.14788,-1.29628 9.0093,-0.6167 13.29262,-0.6167c3.83745,0 7.88235,-0.36317 11.68468,0.28457c1.89718,0.32319 3.87361,0.93418 5.80267,1.78578c3.27989,0.27338 5.82839,0.64978 8.84817,2.27572l1.31448,0.95393c0,0 2.2,1.65 0.55,3.85z" fill="#30152f"></path><path d="M311.90002,179.30833c-0.00256,3.01048 -0.45299,5.85484 -1.00857,8.67279c0.61477,-0.44921 1.52758,-0.73788 2.73841,-0.13247c2.45967,1.22984 1.22984,3.68951 1.22984,3.68951l-0.30574,0.60568c-0.77334,1.37919 -1.38665,2.83721 -1.91607,4.33501c1.10686,-0.94616 2.25789,-1.85024 3.39337,-2.76694c0.7913,-1.1462 1.71605,-2.16235 2.71495,-3.1055l-0.05586,-0.02793l1.22336,-2.44671c0.44095,-0.93018 1.38851,-1.57345 2.48632,-1.57345c1.51878,0 2.75,1.23122 2.75,2.75c0,0.30404 -0.04934,0.59655 -0.14045,0.86997l-0.98116,3.18877l-0.30491,-0.09382l0.03246,0.70355c-0.26547,0.2752 -0.53341,0.54365 -0.80332,0.80653c0.12732,0.31676 0.19738,0.6627 0.19738,1.025c0,0.42694 -0.09729,0.83117 -0.27092,1.1917l-1.22557,2.69626l-0.03204,-0.01456l-0.00524,0.09325c-2.26879,4.23461 -4.99287,7.90365 -6.81887,12.38065c-1.18052,1.3902 -1.85752,3.47041 -3.54157,4.17059c-0.5092,0.21171 -0.98593,0.36096 -1.4321,0.45435l-0.53964,0.89941c-0.47501,0.82383 -1.36476,1.37836 -2.38404,1.37836c-1.33266,0 -2.44391,-0.94794 -2.69626,-2.20632l-0.98825,-4.44712l0.047,-0.01044c-0.03295,-0.09498 -0.06499,-0.19032 -0.09607,-0.28604c-0.42514,-1.30939 -0.03664,-3.31328 0.45861,-5.06283c-0.09305,-3.3975 -0.3624,-7.02581 0.04557,-10.32325c0.52166,-4.21625 1.68039,-8.1496 2.30721,-12.25581c1.05451,-0.01131 1.46332,-0.66484 1.62181,-1.16987c1.5935,-1.35675 2.90413,-2.97033 4.30273,-4.50783c-0.00122,0.18714 -0.00223,0.36146 -0.00237,0.51952z" fill="#30152f"></path><path d="M277.66083,137.3468c0.32774,-0.4596 0.66762,-0.9086 1.05929,-1.31199c1.60542,-1.65345 1.89514,-1.25271 3.76667,-1.68976c2.09702,-0.48971 5.65239,-2.41652 8.33677,-2.50773c0.68131,-0.26007 1.39533,-0.49141 2.13152,-0.73476l0.12405,0.03063l-0.00908,-0.05445l0.2782,-0.04637c1.30412,-0.80729 2.93129,-1.54731 4.54039,-2.15273c0.06701,-0.08489 0.14299,-0.16235 0.22653,-0.23097l1.4912,-1.24266l0.03245,0.03894c0.08452,-0.08164 0.17308,-0.15947 0.26634,-0.23288c0.38227,-0.30089 0.86026,-0.40891 1.35847,-0.47198c0.27082,-0.26699 0.64268,-0.43175 1.05302,-0.43175h1.73697c2.37466,-0.39252 4.82031,-0.6171 7.19506,-0.74845c4.13941,-0.22896 8.94086,-0.40354 13.43732,0.35983c2.41517,0.34709 4.81646,0.99827 6.81992,2.1727c0.97114,0.50486 1.89101,1.09763 2.74456,1.79206c1.97365,1.6057 3.82331,3.80969 5.62683,5.6132c1.75809,1.79234 2.61278,3.70918 3.88491,5.91026l-0.11504,0.4004h0.16947v1.75c0,0.27102 -0.07188,0.52525 -0.19761,0.74468c0.74075,2.08926 1.40767,4.21972 2.22688,6.20823c1.44457,3.56271 2.68606,8.50542 1.93806,12.35848c-0.51948,2.67594 -2.80396,4.80156 -3.53169,7.37329c-0.93426,3.3016 -1.0348,6.80175 -1.92609,10.15409c0.5776,0.20859 0.99045,0.7617 0.99045,1.41124c0,0.17815 -0.03106,0.34904 -0.08805,0.50756l-0.73892,2.21679l-0.03916,-0.01306c-0.01788,0.08252 -0.03826,0.16469 -0.06135,0.2465c-0.28025,0.9928 -2.66227,3.25407 -3.51185,4.10287c-2.28683,2.28473 -5.90369,6.61402 -9.21603,7.39921c-0.92668,0.21967 -1.90202,0.192 -2.84555,0.31652c-4.84681,2.10856 -9.89721,2.36697 -14.23684,-1.39753c0,0 -0.05817,-0.0509 -0.13655,-0.1428c-0.08089,-0.0897 -0.12376,-0.15402 -0.12376,-0.15402l-0.01019,-0.02213c-0.07603,-0.11262 -0.15233,-0.25129 -0.20533,-0.40989c-2.81349,-2.25351 -6.33963,-4.83795 -9.19702,-7.75676c-0.66348,11.638 -0.58938,23.48433 -0.58938,35.10673l-0.00002,-0.00001c0,5.48614 -1,10.58488 -1,16v0.25c0,0.52095 -0.18093,0.86097 -0.4171,1.0829c-0.22193,0.23618 -0.56196,0.4171 -1.0829,0.4171h-1c-6.84411,0 -13.6617,2.54158 -19.43705,-2.0787c0,0 -1.1713,-0.93704 -0.23426,-2.10835c0.16745,-0.20932 0.34238,-0.3513 0.51677,-0.44333c-0.77532,-9.36145 -0.35469,-18.79444 0.91824,-28.07189c0.50649,-3.69148 0.00635,-7.49291 1.01457,-11.08761c0.0892,-0.81356 0.16474,-1.6286 0.23057,-2.44463c0.03168,-5.80068 0.16607,-11.60745 -0.47051,-17.34332c-0.28834,-0.42255 -0.28834,-0.92217 -0.28834,-0.92217c0,-5.64231 0,-12.24752 0,-17.9259c-0.0555,-0.24964 -0.03956,-0.54523 0.10794,-0.88675c0.05677,-0.15942 0.14339,-0.33092 0.27558,-0.48308c-0.40238,-3.71833 -0.42854,-7.49587 0.64703,-11.02911c-1.5974,0.47236 -3.26181,0.72598 -4.20327,0.57285c-0.0954,-0.01552 -0.18973,-0.03471 -0.28312,-0.05713l-0.00629,0.04405l-1.72817,-0.24688c-0.73858,-0.09351 -1.3097,-0.72408 -1.3097,-1.48804c0,-0.12372 0.01498,-0.24394 0.04322,-0.35895c-0.18427,-0.24915 -0.29322,-0.55738 -0.29322,-0.89105c0,-0.33145 0.1075,-0.63779 0.28955,-0.88606l0.01723,-0.02412c0.04498,-0.15857 0.11538,-0.30644 0.20653,-0.43894l0.98862,-1.48294l0.02391,0.01594c0.02069,-0.04522 0.04206,-0.09019 0.06415,-0.13487c0.40422,-0.8176 1.01654,-1.47865 1.75418,-2.01055z" fill="#ad4eac"></path><path d="M307.19705,196.41721c-2.86226,-0.86052 -3.49459,-2.80343 -4.78431,-5.02336c0,0 -0.11051,-0.19892 -0.21073,-0.51411c-0.53118,-0.93252 -0.13532,-3.72006 -0.13532,-4.82144c0,-2.45112 -0.20237,-5.11969 0.28344,-7.53719c0.55314,-2.75257 1.82834,-5.43404 3.07464,-8.06723c0.38456,-1.44089 0.9098,-2.84717 1.64397,-4.21627c0.01998,-2.79458 0.18492,-5.50755 0.43303,-8.21931c-0.5379,-0.13961 -0.93507,-0.62842 -0.93507,-1.20999l-0.00002,0.00002v-1.465c-0.47642,-0.39309 -0.38892,-1.25686 -0.49574,-2.4319c-0.27497,-3.0247 -0.0046,-6.20482 0.25,-9.2062c0.0712,-0.83936 -0.19318,-3.15579 0.29197,-3.70487c0.45867,-0.51912 3.49617,-1.01449 4.26279,-0.56007c0.028,0.01659 0.0557,0.03375 0.08312,0.05146l1.16162,-1.01642c0.22046,-0.19495 0.51026,-0.31327 0.82769,-0.31327c0.34736,0 0.66162,0.14168 0.88816,0.37041c0.5809,-0.38958 1.3367,-0.62002 2.06951,-0.66766c1.86502,-2.01186 4.06393,-3.77267 6.42292,-5.20452c0.67425,-1.02955 1.31875,-2.10528 1.97636,-3.23374c0,0 0.88177,-1.51161 2.39339,-0.62984c0.59179,0.34521 0.81675,0.78696 0.8714,1.19674c0.22211,-0.01491 0.4407,-0.03908 0.64835,-0.0891c0.06654,-0.01987 0.13289,-0.03908 0.19906,-0.05765c0.10745,-0.03691 0.21104,-0.08288 0.3096,-0.14047c3.41358,-1.99473 6.45951,-2.82866 10.22039,-4.09207l0.02797,-0.00095l-0.00194,-0.0068l1.72224,-0.49207c0.11726,-0.03641 0.24192,-0.05603 0.37116,-0.05603c0.69036,0 1.25,0.55964 1.25,1.25c0,0.10833 -0.01378,0.21345 -0.03969,0.31368c0.32126,0.62049 0.24274,1.46246 0.28969,2.43632c0.01586,0.32892 0.07799,0.82022 0.00915,1.17521c0.47001,-0.26447 1.13281,-0.5646 1.48951,-0.64968c0.48264,-0.11512 1.00571,-0.1428 1.48867,-0.02856c-0.13725,-0.17869 -0.24458,-0.34993 -0.13048,-0.50266c0.53914,-0.7217 1.3601,-1.40002 2.25675,-1.48684c3.41935,-0.33112 3.00477,2.65951 2.9033,4.8684c4.9767,1.74874 6.22836,6.98659 7.20882,11.87899l0.02405,1.23371c0.00022,0.00748 0.00022,0.01144 0.00022,0.01144c0,3.41667 0,6.83333 0,10.25v0.75c0,0 0,1.25 -1.25,1.25c-1.25,0 -1.25,-1.25 -1.25,-1.25c0,0 0,-1.25 1.25,-1.25c1.25,0 1.25,1.25 1.25,1.25c0,6.25044 0.35966,12.66894 -0.25608,18.87317c-0.25335,2.55276 -1.50176,4.55398 -1.49392,7.12683v0.85934c0.00823,0.14199 -0.0068,0.27283 -0.02675,0.37623c-0.02009,0.10454 -0.05527,0.23324 -0.11686,0.36344c-1.06666,2.71825 -0.90493,6.31315 -2.5767,8.85967c-1.80293,2.7463 -6.75882,2.34366 -9.52969,2.29131c-0.87465,-0.01652 -1.61976,0.07026 -2.27368,-0.16584c-1.0376,-0.08171 -2.19844,-0.52757 -2.59936,-0.93957c-1.65796,-1.70377 -1.62696,-4.49481 -1.62696,-6.64459c0,-1 -0.64018,-2.23178 0,-3v-0.08078c-0.99443,-0.03393 -2.09276,-0.15763 -3.06114,-0.36741c-0.91248,0.12967 -1.74823,0.18611 -2.36224,0.18611l-0.1527,-0.09665l-0.01733,0.06064l-1.72343,-0.49241c-0.53693,-0.14026 -0.93317,-0.62861 -0.93317,-1.2095c0,-0.01857 0.00041,-0.03705 0.00121,-0.05543c-0.79345,-0.38074 -1.46018,-0.83196 -1.91836,-1.34526c-0.6127,-0.6864 -0.92269,-1.44375 -1.09583,-2.23516c-0.21727,0.70562 -0.48024,1.3842 -0.79829,2.0224c-0.45367,2.90317 -1.91613,4.80567 -3.13836,7.20215c-0.24157,0.9805 -0.52532,1.94635 -0.87038,2.89221c-0.07054,0.30808 -0.16221,0.61846 -0.28408,0.93249l0.33052,0.11017l-0.78145,2.34436c-0.15709,0.51078 -0.63267,0.88206 -1.19497,0.88206c-0.43254,0 -0.81377,-0.2197 -1.03819,-0.55359c-0.81153,0.07595 -2.01253,0.05359 -2.46181,0.05359c-0.6951,0 -1.36066,0.01244 -1.9982,0.01293c-1.92928,1.50781 -4.22548,2.31631 -6.62144,1.59598zM345.81842,129.93321c0.03675,0.09575 0.05172,0.15376 0.03158,0.08264c-0.00779,-0.02752 -0.01853,-0.05508 -0.03158,-0.08264z" fill="#e5c1e4"></path><path d="M321.31708,140.00942v-1.82181c0,-0.86242 0.69913,-1.56155 1.56155,-1.56155c0.23612,0 0.46,0.05241 0.66064,0.14622c0.18199,-0.39534 0.7031,-1.19472 1.85042,-0.86692c1.27571,0.36449 1.15784,1.50319 1.09355,1.83738c0.62679,0.20297 1.08004,0.7915 1.08004,1.4859c0,0.0976 -0.00895,0.1931 -0.02608,0.28574l-0.2394,1.43638c0.00028,0.08958 0.00053,0.17981 0.00079,0.27061c0.0604,0.08984 0.1117,0.1863 0.15261,0.28806l0.7666,1.78873l0.01795,0.06746c1.67549,-0.41971 3.6901,-0.72559 4.48168,0.12083c0.89973,0.96208 1.77226,6.36024 0.93794,7.87c-0.44151,0.79894 -1.26869,1.35707 -2.07206,1.79046c-0.58008,0.31293 -1.28929,0.27957 -1.94149,0.37469c-0.37878,0.05525 -0.75103,0.05767 -1.11185,0.01416c-0.15054,0.07046 -0.31348,0.13493 -0.49012,0.19285c-3.68936,1.20956 -4.88957,-3.17653 -5.39279,-5.61361c-0.04345,-0.21042 -0.08238,-0.41645 -0.11681,-0.61833c-1.4194,-1.5964 -1.21315,-5.55919 -1.21315,-7.48726z" fill-opacity="0.97647" fill="#ad4eac"></path><path d="M332.89585,177.96669c0.98263,-0.49131 1.60542,0.0969 1.86836,0.44688c1.35128,-0.54921 1.93118,0.80388 1.93118,0.80388c0.57651,1.63471 1.38226,1.65196 2.49714,1.32097c0.72018,-0.36474 1.34217,-0.56459 2.0834,-0.64304l-0.07306,-0.29226l1.96737,-0.49184c0.12628,-0.03452 0.25921,-0.05294 0.39644,-0.05294c0.82843,0 1.5,0.67157 1.5,1.5c0,0.6308 -0.38938,1.17066 -0.9409,1.39234l-1.71823,0.73638l-0.02389,-0.05574l-0.10686,0.1047c-0.42404,0.0954 -0.82962,0.19233 -1.2183,0.28418c-0.53498,0.31647 -1.23718,0.53653 -2.04386,0.99628l-0.59181,1.18361c-0.24052,0.50737 -0.75737,0.85825 -1.35617,0.85825c-0.7529,0 -1.37624,-0.5547 -1.48364,-1.27772l-0.24595,-1.47568l0.00901,-0.0015c-0.62948,-1.04523 -1.33886,-1.97191 -2.00376,-2.07207l-1.1173,-1.2522c0,0 -0.67082,-1.34164 0.67082,-2.01246zM334.56104,178.50875c0.00462,-0.00248 0.00927,-0.00496 0.01394,-0.00742l-0.28398,-0.11602c0.0843,0.03484 0.17474,0.07619 0.27003,0.12344z" fill-opacity="0.18824" fill="#ad4eac"></path><path d="M352.81667,168.05833c1.5,0 1.5,1.5 1.5,1.5c0,0.5 0,1 0,1.5l-1.32918,1.59164c0,0 -0.54045,0.27023 -1.10683,0.12464l-0.41166,0.49399l-1.25233,0.98972c0,0 -0.21393,0.16045 -0.52889,0.25553c-1.13498,1.56822 -3.18819,2.19576 -5.12451,2.52406l-1.19654,0.01959c-0.01662,0.00054 -0.03331,0.00082 -0.05006,0.00082c-0.18958,0 -0.37095,-0.03517 -0.53794,-0.09935c-0.23953,-0.08138 -0.5105,-0.22943 -0.70368,-0.49876c-0.12119,0.00554 -0.24325,0.00805 -0.36583,0.0089c-0.3467,0.2377 -0.69078,0.46412 -0.97173,0.68085l-1.14586,-0.59668c-0.13588,0.00092 -0.32066,-0.01188 -0.51505,-0.06699c-1.12542,0.51767 -1.58257,0.36705 -2.58189,0.03243c-0.19432,0.60319 -0.76021,1.0396 -1.42802,1.0396h-2v-0.0523c-0.08867,0.01217 -0.17786,0.02168 -0.26764,0.02823c-1.8143,0.13241 -3.72845,-0.85325 -5.4016,-2.25135c-0.58878,-0.27221 -1.09436,-0.59099 -1.44971,-0.97559c-0.20834,-0.22549 -0.31564,-0.50688 -0.38172,-0.81108c-0.13426,-0.15115 -0.26524,-0.30349 -0.39265,-0.45646c-0.24288,0.16928 -0.53819,0.26855 -0.85669,0.26855c-0.82843,0 -1.5,-0.67157 -1.5,-1.5c0,-0.10145 0,-1.7029 0,-1.80434c-0.02179,-0.08173 -0.03352,-0.16646 -0.03611,-0.25361l-0.64011,-0.51209c-0.34938,-0.27463 -0.57378,-0.70109 -0.57378,-1.17996c0,-0.3298 0.10643,-0.63474 0.28683,-0.88234c0.15292,-0.742 0.7477,-0.9914 1.13024,-1.07522c0.18017,-0.3886 0.55463,-0.79244 1.33294,-0.79244c0.82173,0 1.1933,0.45016 1.36132,0.85727c0.11997,-0.05775 0.22388,-0.09399 0.30573,-0.10498c0.69379,-0.09314 1.12951,0.03489 1.44566,0.26976c4.44389,0.01126 8.58167,2.40289 10.19707,7.1521c1.20308,-0.25871 2.1641,-1.57405 3.17035,-1.1564c0.75448,0.31315 1.31741,0.6133 1.72394,0.90137c0.5467,-0.51028 0.69608,-1.50706 1.28226,-2.02477c1.02743,-0.90743 4.74084,-3.02239 6.35334,-1.89435h1.18644c0.07463,-0.42671 0.36262,-1.25 1.47389,-1.25zM333.5958,173.60251l0.28383,-0.37287c-1.58502,-1.38625 -3.91214,-1.45938 -5.80956,-2.25241c0.17864,0.29918 0.2262,0.58451 0.2262,0.58451c-0.19408,1.31131 3.80599,2.0152 5.46974,2.48982c-0.12893,-0.24268 -0.1702,-0.44904 -0.1702,-0.44904zM345.43496,173.85638c0.46118,-0.08713 0.89206,-0.18759 1.02376,-0.27846c0.11339,-0.07824 0.26106,-0.35757 0.42989,-0.68902c-0.48334,0.22259 -0.93223,0.40845 -1.05826,0.52508c-0.1389,0.12855 -0.26939,0.27894 -0.39539,0.4424zM326.24286,169.44562c0.17689,0.28195 0.36761,0.57004 0.5696,0.85713c0.18701,-0.00827 0.35116,0.01344 0.49511,0.05644c-0.23324,-0.30801 -0.4324,-0.66526 -0.68725,-0.94364c-0.12827,0.01329 -0.25447,0.02384 -0.37747,0.03007z" fill-opacity="0.98431" fill="#316a70"></path><path d="M337.06667,179.80833c0.82842,0 1.5,0.67157 1.5,1.5c0,0.82843 -0.67158,1.5 -1.5,1.5c-0.7515,0 -1.37392,-0.55264 -1.48304,-1.27369c-0.08664,0.01556 -0.17585,0.02369 -0.26696,0.02369c-0.17532,0 -0.34361,-0.03008 -0.5,-0.08535c-0.15639,0.05527 -0.32468,0.08535 -0.5,0.08535c-0.82842,0 -1.5,-0.67157 -1.5,-1.5c0,-0.82843 0.67158,-1.5 1.5,-1.5c0.17532,0 0.34361,0.03008 0.5,0.08535c0.15639,-0.05527 0.32468,-0.08535 0.5,-0.08535c0.7515,0 1.37392,0.55264 1.48304,1.27369c0.08664,-0.01556 0.17585,-0.02369 0.26696,-0.02369z" fill-opacity="0.35294" fill="#ad4eac"></path><path d="M339.81667,181.30833c0,-0.67688 0.44835,-1.24905 1.06427,-1.43573c0.18668,-0.61592 0.75885,-1.06427 1.43573,-1.06427c0.82842,0 1.5,0.67157 1.5,1.5c0,0.67688 -0.44835,1.24905 -1.06427,1.43573c-0.18668,0.61592 -0.75885,1.06427 -1.43573,1.06427c-0.82842,0 -1.5,-0.67157 -1.5,-1.5z" fill-opacity="0.35294" fill="#ad4eac"></path><g fill="#316a70"><path d="M202.47,299.24667c-1.25,0 -1.25,-1.25 -1.25,-1.25c0,-0.6 0,-2 0,-2.6c0,0 0,-1.25 1.25,-1.25c1.25,0 1.25,1.25 1.25,1.25c0,0.6 0,1.2 0,1.8v0.8c0,0 0,1.25 -1.25,1.25z"></path><path d="M208.27,298.44667c-1.25,0 -1.25,-1.25 -1.25,-1.25l0.01256,-0.77677c0.06667,-0.46666 0.13333,-0.93334 0.2,-1.4c0,0 0.17678,-1.23744 1.41422,-1.06066c1.23744,0.17678 1.06066,1.41421 1.06066,1.41421c-0.06667,0.46666 -0.13333,0.93333 -0.2,1.4l0.01256,0.42323c0,0 0,1.25 -1.25,1.25z"></path><path d="M213.67,299.24667c-1.25,0 -1.25,-1.25 -1.25,-1.25c0,-0.46666 0,-1.53334 0,-2c0,0 0,-1.25 1.25,-1.25c1.25,0 1.25,1.25 1.25,1.25c0,0.46666 0,0.93333 0,1.4v0.6c0,0 0,1.25 -1.25,1.25z"></path></g><g fill="#316a70"><path d="M305.27,293.04667c-1.25,0 -1.25,-1.25 -1.25,-1.25c0,-0.93333 0,-2.06667 0,-3c0,0 0,-1.25 1.25,-1.25c1.25,0 1.25,1.25 1.25,1.25c0,0.93333 0,1.86667 0,2.8v0.2c0,0 0,1.25 -1.25,1.25z"></path><path d="M300.07,293.24667c-1.25,0 -1.25,-1.25 -1.25,-1.25l0.06415,-0.99528c0.13333,-0.4 0.26667,-0.8 0.4,-1.2c0,0 0.39528,-1.18585 1.58114,-0.79057c1.18585,0.39528 0.79057,1.58114 0.79057,1.58114c-0.13333,0.4 -0.26667,0.8 -0.4,1.2l0.06415,0.20472c0,0 0,1.25 -1.25,1.25z"></path><path d="M294.07,293.84667c-1.25,0 -1.25,-1.25 -1.25,-1.25c0,-0.46667 0,-1.33333 0,-1.8c0,0 0,-1.25 1.25,-1.25c1.25,0 1.25,1.25 1.25,1.25c0,0.46667 0,0.93333 0,1.4v0.4c0,0 0,1.25 -1.25,1.25z"></path></g></g><g fill-opacity="0.23529" fill="#2f152f"><path d="M329.49036,152.48319c-1.41486,2.35811 -3.77297,0.94324 -3.77297,0.94324l-2.82671,-2.39252c-0.76048,-2.11247 -1.14671,-4.38725 -1.17509,-6.63226c0,0 0,-2.75 2.75,-2.75c2.75,0 2.75,2.75 2.75,2.75c-0.02797,1.59072 0.2385,3.22212 0.82491,4.70108l0.50662,-0.39252c0,0 2.35811,1.41486 0.94324,3.77297z"></path><path d="M326.36209,194.19467c-2.45967,1.22984 -3.68951,-1.22984 -3.68951,-1.22984l0.70973,-0.03552c-1.3228,-1.03721 -3.70551,-1.45135 -3.9684,-3.11162c-0.35526,-2.24357 2.70782,-3.71282 3.52403,-5.83264c0,0 0.34838,-0.81288 1.11098,-1.31912v-0.59761c0.0014,-1.1618 -0.36719,-2.38457 0.00421,-3.48541c0.01663,-0.04929 0.03366,-0.0984 0.05109,-0.14733l-0.03848,-0.00428l0.32967,-2.96702c0.13598,-1.39172 1.30941,-2.47929 2.73684,-2.47929c1.41573,0 2.58159,1.0698 2.73329,2.4451l0.32881,2.63047c0.06881,1.65253 -0.33683,2.12243 1.38366,3.00181c0.9386,0.47973 2.29758,0.21405 3,1c0.14155,0.15838 0.27567,0.322 0.4034,0.49013l0.09538,-0.09538l2.05225,2.05225l0.6451,-1.18923c0,0 1.26649,-2.11082 3.40005,-1.14006c0.33349,-0.26581 0.77751,-0.51337 1.31609,-0.575c0.3832,-1.25331 0.73776,-2.54116 1.56559,-3.52848c0.06389,-0.0762 0.1289,-0.15126 0.19495,-0.22525l-0.03814,-0.02669l2.31127,-3.30181c0.49488,-0.72704 1.32916,-1.2045 2.27495,-1.2045c1.51878,0 2.75,1.23122 2.75,2.75c0,0.11629 -0.00722,0.2309 -0.02123,0.3434l-0.32892,2.96029l-0.05624,-0.00625l0.03587,0.15334c-0.72786,3.29474 -1.24017,6.66628 -1.99156,9.9459c-0.33529,1.46345 -0.01992,3.44921 -1.23462,4.3316c-1.18183,0.85852 -2.53616,1.10966 -3.85452,0.93446c-0.35089,0.68824 -0.77635,1.30237 -1.44001,1.6254c-4.98339,2.42561 -7.25503,0.23656 -7.94209,-4.62147c-0.11014,-0.77876 0.04061,-1.53654 0.29796,-2.28697c-0.09325,-0.01542 -0.18493,-0.03554 -0.27476,-0.06009l-2.60684,-0.65171l0.03767,-0.15067l-0.39599,0.0345c-1.28124,-0.72082 -2.60612,-1.36629 -3.95523,-1.95447c-0.00948,0.00316 -0.019,0.00628 -0.02858,0.00936c-0.28687,0.84528 -0.4621,1.77235 -1.10788,2.3547c-0.04543,0.04097 -0.09585,0.07767 -0.15024,0.11009l1.06024,1.36542c0,0 1.22984,2.45967 -1.22984,3.68951z"></path><path d="M310.54786,208.14463c-0.059,2.03651 -0.08701,4.11348 -0.18147,6.18918c1.14223,0.99171 0.78815,2.64405 0.78815,2.64405c-0.63581,2.96592 -1.28847,5.91233 -1.94063,8.85398c-0.01201,0.347 -0.08831,0.67767 -0.21736,0.98046c-0.74413,3.35716 -1.4851,6.71025 -2.19708,10.08119c0.4605,3.38693 1.01941,6.74223 0.75667,10.18934c0.64595,2.35252 1.33324,4.67937 2.173,7.08069c0.47023,1.34464 2.79228,6.79697 1.95324,8.26737c-2.1446,3.75834 -5.2542,4.07508 -8.11195,2.47302c-0.42258,0.26398 -0.8913,0.43082 -1.42099,0.46719c-0.18007,0.62399 -0.51313,1.05222 -0.51313,1.05222c-0.26338,0.33688 -0.52477,0.71489 -0.78678,1.1232c0.03808,0.04733 0.07411,0.09772 0.10799,0.15132c1.05417,1.66821 -0.14501,4.01479 -0.84647,5.85929c-0.64166,1.68726 -2.82691,3.67204 -4.96801,4.93915c-0.08047,1.76635 -0.0563,3.59701 -0.27802,5.54609c-0.11406,1.00266 -0.0937,2.02653 -0.31614,3.01084c-0.01096,0.04851 -0.0352,0.09836 -0.06822,0.14871c0.01991,0.16869 0.03444,0.37057 0.05337,0.57064c0.18501,-0.18908 0.37406,-0.41324 0.59822,-0.45424c0.39511,-0.07226 0.79615,-0.07939 1.19909,-0.06542c0.09036,-0.05893 0.18782,-0.1059 0.295,-0.13673c1.33731,-0.38472 2.78171,-0.08746 4.17257,-0.13119h2.66667c1.51878,0 2.75,1.23122 2.75,2.75c0,1.41573 -1.0698,2.58159 -2.4451,2.73329l-2.63047,0.32881l-0.03901,-0.3121h-0.30208v-0.01365c-0.00014,0.00004 -0.00027,0.00009 -0.00041,0.00013l0.00041,0.01351c-0.01193,-0.00063 -0.02388,-0.00131 -0.03582,-0.00206c-1.02555,0.32955 -2.08291,0.47427 -3.43609,0.46128c-0.65699,0.55461 -1.25439,1.25219 -2.0558,1.20393c-1.65627,-0.09973 -2.87234,-0.62776 -3.77467,-1.42862c-0.44917,-0.09991 -0.85845,-0.2817 -1.19832,-0.6021c-1.12884,-1.06419 -1.09449,-2.88714 -1.20404,-4.49279c-0.10773,-0.58462 -0.19051,-1.1761 -0.2606,-1.7594c-1.06164,-2.04728 -3.10927,-5.32812 -2.89699,-8.10394c-1.36139,-1.2219 -1.40481,-3.64484 -1.10993,-5.46666c0.68093,-4.20691 6.2675,-5.36103 9.97269,-5.34929c0.77305,-1.33407 1.54841,-2.66926 2.47026,-3.86599c-1.21934,-1.10407 -0.31651,-3.36256 -0.12863,-5.03038c-0.05142,-0.37295 -0.07984,-0.77242 -0.08323,-1.20093c-0.008,-1.00971 0.68734,-1.86077 1.25914,-2.73969c0.18206,-4.01058 -1.39461,-8.54559 0.12654,-12.28355c0.05383,-0.13227 0.11087,-0.26275 0.17087,-0.39158l-0.04875,-0.01875l0.89284,-2.32138c-0.52379,-3.6509 0.25719,-8.14857 0.25719,-11.69142c0,-0.30479 -0.0115,-7.19962 0.03551,-7.4405c0.63662,-3.26213 1.68928,-6.45652 2.68837,-9.65936c-0.0136,-0.07667 -0.02586,-0.1536 -0.03661,-0.23081c-0.5395,-3.87789 -0.34807,-8.405 -0.35394,-12.336v-2.66667c0,-0.24119 0.03105,-0.47512 0.08937,-0.69802c-2.95282,-1.24138 -2.85585,-4.73267 -2.77339,-7.34886c-1.25061,1.3106 -2.83036,1.91726 -4.46501,1.94015c0.6006,0.50446 0.98237,1.26101 0.98237,2.10673v3c0,10.19473 0.67169,20.60193 -0.47796,30.74638c0.02517,1.47907 0.06406,2.95763 0.14042,4.43488c0.01134,0.21942 0.55478,4.91053 0.62412,5.31379c0.19564,1.13787 1.01258,2.27853 0.70464,3.39127c-1.65315,5.97355 -3.39235,5.46393 -6.85172,3.25673c-1.10892,0.61988 -2.59795,0.2526 -3.88949,0.27363c-3.88861,0.06332 -5.20378,0.12314 -7.24585,-4.12923c-0.27697,-0.57676 -0.30397,-1.21921 -0.27047,-1.87544c-0.56701,-0.78554 -0.56701,-1.74532 -0.56701,-1.74532v-1c0.01012,-1.01837 0.16,-2.02342 0.36558,-3.02307c-0.96635,0.27587 -2.54781,0.61507 -3.91171,0.89184c-0.109,0.6301 -0.21886,1.25966 -0.32016,1.88903c-0.02649,0.1646 -0.05501,0.41615 -0.08479,0.73251c0.28516,0.43336 0.45108,0.95215 0.45108,1.5097c0,0.22552 -0.02715,0.44471 -0.07835,0.65446l-0.63264,2.84687c-0.04912,0.3949 -0.09928,0.78937 -0.15049,1.18344c-0.07523,1.31191 -0.1324,2.32911 -0.15295,2.50752c-0.91251,7.92321 -2.0182,15.88053 -3.0068,23.81547l0.02124,-0.00776c0,0 0,0.64853 -0.31494,1.31572c-0.00221,1.38599 0.05431,2.78074 0.20019,4.19667c0.45101,0.68926 1.01408,2.06071 -0.35737,3.43216c-1.94454,1.94454 -3.88909,0 -3.88909,0l-1.11755,-1.93678c-0.07208,-0.58547 -0.13027,-1.16719 -0.17621,-1.74592l-0.57357,0.73745c-0.5024,0.65886 -1.29561,1.08404 -2.18812,1.08404c-1.51878,0 -2.75,-1.23122 -2.75,-2.75c0,-0.11629 0.00722,-0.2309 0.02123,-0.3434l0.32892,-2.96029l0.05471,0.00608l-0.03433,-0.15317c2.46967,-11.16417 4.26303,-22.38769 6.67611,-33.53926c-0.33988,-0.24008 -0.68246,-0.47698 -1.01752,-0.72276c-3.18442,0.22455 -6.36979,0.12947 -9.61246,0.12947h-0.36334c-1.22207,3.47474 -2.46453,6.93727 -3.89007,10.30695c-1.76979,4.18343 -2.79973,4.31064 -4.1385,8.14835c-2.14889,6.16003 -3.08781,12.47822 -5.99484,18.34689l-0.59808,2.39231c-0.27791,1.22463 -1.37312,2.13883 -2.68184,2.13883c-1.30873,0 -2.40393,-0.9142 -2.68184,-2.13883l-0.60188,-2.40752c-0.77994,0.54636 -1.71628,0.54636 -1.71628,0.54636l-1.85045,-1.28432c-1.35174,0.76867 -3.38738,0.71707 -4.9229,1.2267c-0.50496,0.16759 -1.0119,0.32413 -1.52027,0.47301c-0.43138,0.5301 -0.91664,0.80343 -1.46438,0.47839c-0.48681,0.18271 -0.98038,0.33017 -1.46841,0.43744c-0.05013,-0.00345 -0.10031,-0.00783 -0.15054,-0.01319c-0.06134,-0.00654 -0.12254,-0.01377 -0.18358,-0.02167c-1.43929,0.37008 -2.88069,0.73684 -4.31203,1.17571c-0.26175,0.49787 -0.56105,0.96974 -0.90906,1.40315c-0.30587,0.38092 -0.63074,0.74378 -0.96976,1.09322c-1.96255,3.05158 -4.32209,5.79445 -6.86617,8.44893c-0.13357,0.13937 -0.25762,0.29116 -0.37718,0.44866c0.11222,0.84098 0.21092,1.68238 0.24684,2.52568c-0.16775,0.19398 -0.3355,0.38796 -0.50325,0.58195l0.38685,0.154c-0.98127,1.77039 -2.12547,3.45605 -2.97973,5.2911c-0.0592,0.12717 -0.10878,0.2594 -0.15248,0.39466c0.62765,0.05548 1.2871,0.07076 1.95566,0.06097c-0.01544,0.20998 -0.03005,0.4201 -0.04479,0.63022l0.84744,0.00426c2.09317,-0.79118 4.27244,-1.89281 5.42775,-2.30047l0.47713,0.13185v-0.17356h2.66667c1.51878,0 2.75,1.23122 2.75,2.75c0,0.68898 -0.25337,1.31879 -0.67202,1.80132l-1.99002,2.32169l-0.12044,-0.10323c-0.19979,0.26236 -0.41965,0.50911 -0.66539,0.73574c-1.23014,1.13451 -5.79675,0.53662 -7.53984,0.35073c-2.11363,0.69263 -4.269,1.09217 -6.10017,0.56353c-0.21207,0.05242 -0.43385,0.08023 -0.66212,0.08023c-0.93575,0 -1.76234,-0.46737 -2.25907,-1.18142l-1.64536,-2.30351l0.10578,-0.07556c-0.15473,-0.17115 -0.30076,-0.35063 -0.43641,-0.54007c-0.51411,-0.71801 -0.48336,-1.65175 -0.46802,-2.57937c-0.016,-0.15681 -0.01535,-0.30492 0.00389,-0.44247c-0.00088,-0.21232 -0.00735,-0.42242 -0.02628,-0.6276h-0.02453v-3.33333c0,-1.22612 0.80243,-2.26481 1.91078,-2.6196c0.12059,-0.99959 0.35101,-1.92673 0.75947,-2.69932c0.56751,-1.07344 3.4538,-2.94266 4.46854,-3.95896c2.32004,-2.32359 4.01675,-5.36426 6.09237,-7.94986l-0.05226,-0.03733l1.66667,-2.33333l0.05232,0.03737c0.02809,-0.07247 0.05712,-0.14464 0.08714,-0.2165c0.39262,-0.9397 1.43445,-1.44606 2.15376,-2.16701c0.41976,-0.42071 0.77323,-0.93095 1.19273,-1.35241c-1.37469,-0.65176 -2.95716,-1.38122 -2.98226,-2.74083c-0.03515,-1.9038 2.24738,-3.12199 3.70281,-4.34976c0.38169,-0.32198 0.83458,-0.52787 1.3077,-0.70244c0.99169,-1.66338 2.14517,-3.16583 2.76876,-4.10211c0,0 1.40498,-2.10747 3.54075,-0.92892c0.00276,-0.06373 0.00769,-0.1269 0.01471,-0.18943l0.32965,-3.29652l0.05121,0.00512c-0.00873,-0.06754 -0.01679,-0.13522 -0.02413,-0.20303c-0.20901,-1.93038 0.9098,-3.3987 1.86822,-4.87707c2.01072,-7.64772 3.64142,-15.41057 6.4801,-22.76729c0.23789,-0.6165 -1.31267,0.16118 -1.97238,0.19924c-0.88741,0.0512 -1.77779,0.00435 -2.66667,0c-0.67806,-0.00332 -1.35523,-0.02968 -2.03166,-0.07274l-3.09392,0.8438c-0.00405,0.0061 -0.00811,0.0122 -0.01216,0.0183c-2.1237,3.19912 -3.90002,6.96745 -6.43062,9.90485c-1.47293,1.70971 -3.30316,3.19041 -4.34367,5.1929c-3.25678,6.2678 -6.17596,12.54456 -9.67262,18.67876c-0.10548,0.1932 -0.23346,0.37236 -0.38043,0.53394c-0.24168,1.27191 -1.35933,2.23354 -2.70158,2.23354c-1.33266,0 -2.44391,-0.94794 -2.69626,-2.20632l-0.58033,-2.61149c-2.71829,-4.64434 -2.4195,-10.57687 -3.06023,-15.941c-0.15513,-1.29878 -1.20778,-2.93003 -1.0162,-4.09892c-1.09321,-0.56601 -2.88468,-0.71385 -3.19466,-0.95246c-1.14432,-0.88086 -1.96292,-2.16539 -2.61563,-3.45355c-5.5924,-11.03693 6.59167,-21.57148 12.92354,-28.74851c1.9302,-3.42279 2.7289,-4.98154 6.34328,-6.86409c0.57993,-0.30206 3.83988,-1.31512 5.31467,-2.24155c-0.12181,-1.34349 -0.15655,-2.68434 -0.1658,-3.91311c-1.32222,-0.19979 -2.33571,-1.34104 -2.33571,-2.719v-4.33333c-0.97767,-1.92948 0.69697,-5.79665 1.23951,-7.4558l0.21952,-0.18666l-0.09669,-0.05525l1.30685,-2.28698c0.46685,-0.85329 1.37292,-1.43197 2.41415,-1.43197c1.51878,0 2.75,1.23122 2.75,2.75v0.87858c0.61075,0.5044 1,1.26745 1,2.12142c0,0.13036 -0.00907,0.2586 -0.02662,0.38413l-0.31194,2.49551c0.00886,3.81163 0.11829,7.64443 0.00522,11.4537c-0.03268,1.10095 0.24154,2.29002 -0.06305,3.32974c0.08034,0.38952 0.17065,0.78406 0.27203,1.18599c0.13832,0.54838 0.02286,1.23985 0.41815,1.64432c0.48023,0.49139 1.30434,0.44461 1.92048,0.74868c1.3699,0.67606 4.45292,2.55349 5.40938,3.5808c1.75435,1.88433 2.4789,3.77538 4.15917,5.55004l1.24798,-1.66397c0.50041,-0.68249 1.30806,-1.1256 2.2192,-1.1256c1.51878,0 2.75,1.23122 2.75,2.75c0,0.5506 -0.16181,1.0634 -0.44048,1.49345l-0.70224,1.12358c1.22429,0.64987 2.58693,1.32321 3.16397,2.4032c3.56064,-0.26752 7.16542,-0.10357 10.89541,-0.10357c2.20163,0 5.05584,0.4416 7.20309,-0.21534c2.38179,-0.72869 3.85494,-2.8179 5.60914,-4.39866c2.25702,-2.03387 4.83866,-2.5951 7.14241,-4.45476c2.4976,-2.01614 4.29804,-4.73996 6.78102,-6.80591c1.13548,-1.33159 2.09549,-2.50544 2.91261,-3.8521c0.19937,-0.4874 0.3951,-0.97394 0.58616,-1.45952c-0.08204,-11.04561 -0.44355,-22.16044 0.01793,-33.178c0.01906,-0.45507 0.52389,-6.72304 0.7424,-7.5365c0.09695,-0.36091 0.20367,-0.72134 0.3146,-1.08177c-2.18438,0.42456 -4.06254,-0.65384 -4.72474,-4.84935c-0.26543,-1.68168 1.32236,-3.17289 2.33055,-4.54477c1.76832,-2.4062 6.14799,-5.49485 9.6334,-4.82463c4.84862,-2.14771 9.40838,-5.51603 14.62741,-6.42123c7.70277,-1.336 16.34198,-0.37746 24.15733,-0.37746h2.66667c1.51878,0 2.75,1.23122 2.75,2.75c0,1.51878 -1.23122,2.75 -2.75,2.75h-2.57418c-0.2624,0.22806 -0.50397,0.47942 -0.71884,0.76047c-2.21029,2.89107 -4.02742,4.43199 -7.21536,6.46652c-0.32653,0.20839 -0.64719,0.4292 -0.96886,0.64856c-0.00308,0.10408 -0.00773,0.20743 -0.01385,0.3101c0.92659,2.78882 3.05434,5.12108 3.54527,8.33168c0.60446,3.9531 -1.00969,6.78278 -2.55363,10.21045c-0.05118,0.11361 -0.40453,1.0609 -0.8804,2.20515c-0.17598,1.90685 -0.54665,3.80388 -1.30802,5.80589l-0.5422,0.28112l0.17461,0.17461l-0.23717,0.23717c0.02801,0.15742 0.04262,0.31948 0.04262,0.48496c0,0.75939 -0.3078,1.44689 -0.80546,1.94454l-1.95144,1.95144c-1.13899,1.30219 -2.18452,2.59041 -3.17461,3.92545c-0.04268,0.11176 -0.08616,0.22337 -0.13033,0.33485c-0.15885,2.04625 -0.10539,4.38666 0.57868,6.28176c1.26031,3.49148 3.91513,6.61678 0.93945,10.87018c-0.5216,0.74557 -1.31615,1.28082 -2.22142,1.62661c0.01098,0.03987 0.02108,0.08009 0.03029,0.12066l0.65271,2.61086l-0.026,0.0065c0.01705,0.03336 0.03389,0.06685 0.05049,0.10049c0.08585,0.17391 0.15533,0.35297 0.21215,0.53605c1.24465,0.26293 2.1788,1.36767 2.1788,2.6906v2.66667c0.38514,1.64769 0.04794,3.38491 -0.00106,5.0763zM277.36437,220.66047c-0.05887,0.16615 -0.11892,0.33175 -0.1805,0.49662c0.02519,-0.01896 0.04968,-0.03926 0.07343,-0.061c0.08725,-0.0799 0.11574,-0.23251 0.10707,-0.43562z"></path><path d="M357.18771,154.3462c-1.94454,-1.94454 0,-3.88909 0,-3.88909l0.4986,-0.48263c0.93057,-1.08747 1.70558,-2.33309 2.25163,-3.6561c0,0 1.08328,-2.52765 3.61093,-1.44437c2.52765,1.08328 1.44437,3.61093 1.44437,3.61093c-0.79006,1.79459 -1.84096,3.49224 -3.08171,5.01056l-0.83473,0.8507c0,0 -1.94454,1.94454 -3.88909,0z"></path></g><g fill-opacity="0.23529" fill="#2f152f"><path d="M229.08885,269.23798c-0.37575,0.57562 -0.90317,0.77791 -1.71288,0.09069c-1.89249,0.11794 -3.89367,0.26583 -5.68795,0.10383c-0.97418,1.13474 -2.08185,2.31722 -2.89911,2.77817c-0.84519,0.47671 -2.04213,0.04642 -2.85276,0.57978c-0.80547,0.52996 -1.06403,1.60973 -1.64479,2.37938c-3.79405,5.02808 -6.66037,9.87868 -9.77144,15.32788l-0.39282,1.32739c-0.19696,0.77122 -0.27393,1.58449 -0.59878,2.3109c-0.0302,0.06753 -0.10664,0.14667 -0.19867,0.22351c2.17873,-1.10363 6.62803,-0.79331 8.92996,-1.25611l1.18466,-0.52338c0,0 2.55331,-1.02132 3.57464,1.53199c1.02132,2.55331 -1.53199,3.57464 -1.53199,3.57464l-2.14867,0.80995c-3.13524,0.62402 -6.8135,1.58842 -10.04353,1.04809c-1.55435,-0.26002 -3.5303,-0.06279 -4.5574,-1.25806c-1.73677,-2.02112 -0.46291,-5.66603 0.06039,-7.82026c0,0 0.00925,-0.037 0.02993,-0.1012c0.01702,-0.06527 0.02908,-0.10145 0.02908,-0.10145l0.88788,-2.49476c3.23274,-5.65198 6.07004,-10.92007 10.22856,-16.00545c0.99513,-1.21692 1.73952,-2.71137 3.02188,-3.62062c0.67757,-0.48043 1.60444,-0.38409 2.43634,-0.5328c-0.11064,-0.11105 -0.21274,-0.23208 -0.30507,-0.36433c-0.74214,-1.06304 -0.21217,-2.50873 0.13991,-3.86028c-0.23934,-3.05374 0.36893,-6.41018 2.16224,-7.41075c0.73705,-0.41123 1.40512,-0.71712 2.00939,-0.92896c0.52871,-0.46588 1.09957,-0.86594 1.7069,-1.17801c0.10728,-0.43008 0.20732,-0.85527 0.29092,-1.27375c0,0 0.28647,-1.43236 1.48577,-2.00044c0.0612,-0.29333 0.1159,-0.58776 0.16032,-0.88388c0.59904,-3.99304 -0.10076,-4.37299 1.50984,-8.62875c1.46624,-3.87431 4.31502,-7.83326 6.67385,-11.54495c0.21368,-0.6951 0.42516,-1.39072 0.6332,-2.08709c-0.11564,-0.65476 -0.18179,-1.31554 -0.18305,-1.98225c-0.00188,-1 -0.2115,-2.02262 0,-3c0.07627,-0.35243 1.16443,-0.68806 0.80546,-0.72212c-0.59,-0.05598 -1.09306,0.81936 -1.65829,0.6412c-1.55236,-0.48929 -2.35304,-2.51241 -3.93648,-2.88915c-2.79485,-0.66496 -5.69021,3.94071 -7.55886,5.22891c-0.61986,0.42731 -1.45438,0.5341 -1.99601,1.05702c-0.76339,0.73702 -2.30339,4.71067 -2.58087,5.15288c-1.78914,2.85126 -4.4191,5.04759 -6.68106,7.44259c-2.32169,2.45825 -3.94289,5.51176 -5.97125,8.20111c-0.40432,0.81691 -0.80863,1.63383 -1.21295,2.45074l-0.62033,0.95882c-0.21898,0.53737 -0.63437,1.08588 -1.4167,1.37004c-0.47548,0.23463 -1.07668,0.35838 -1.77476,0.14069c-0.71737,-0.14173 -1.18669,-0.53732 -1.49263,-0.97037c-0.54411,-0.61408 -0.65232,-1.28381 -0.59407,-1.85521c-0.27941,-3.1716 -0.4714,-6.35196 -0.31118,-9.54047c0.03098,-0.61651 0.52133,-1.27451 0.25963,-1.83357c-0.27376,-0.58484 -1.19906,-0.57446 -1.61719,-1.06654c-0.46296,-0.54485 -0.95941,-1.10881 -1.41099,-1.70033c-0.48425,0.42566 -1.11937,0.68378 -1.81478,0.68378c-1.35177,0 -2.47573,-0.97532 -2.70659,-2.26064l-0.63117,-3.15584c-1.29926,-0.43333 -2.3698,-1.89784 -3.32012,-4.29436c-1.516,-3.82307 1.33936,-6.97906 3.89684,-9.19016c0.23797,-0.5577 0.50674,-1.099 0.7967,-1.6299c0.66573,-3.2954 2.10589,-6.2543 4.57961,-9.05059c0.27719,-0.31333 0.53581,-0.57784 0.78144,-0.80443c0.09077,-0.18764 0.19183,-0.3699 0.30747,-0.54461c2.1434,-3.2384 5.6519,-3.83601 8.60343,-5.98705c1.28557,-0.93691 1.86539,-2.57798 2.84027,-3.835c0.13499,-0.17405 3.0468,-3.08289 3.97838,-4.01313c-0.39431,-0.22519 -0.76397,-0.47416 -1.09438,-0.73028c-2.81208,-2.17987 -2.44383,-8.48218 -2.11523,-11.58736c0.16421,-1.55168 -0.29787,-3.50788 0.80546,-4.61121c1.10333,-1.10333 3.07414,-0.53697 4.61121,-0.80546h0.33333c0,0 2.75,0 2.75,2.75c0,0.27347 -0.02719,0.51975 -0.07618,0.74153c1.18448,0.84029 1.06919,2.4544 1.06919,2.4544c-0.17854,2.48622 0.06016,5.00827 -0.32634,7.47074c-0.16687,1.06311 -0.01019,2.45352 -0.25417,3.5288c0.32435,0.27566 0.60498,0.67238 0.77779,1.24003c0.18652,0.43593 0.36838,0.85942 0.54751,1.27205c0.03751,0.01249 0.07505,0.02555 0.11263,0.03918c1.58106,0.57332 2.30303,2.52362 3.00845,4.05032c0.17111,0.37033 -0.46711,0.87715 -0.53931,1.23245c0.05591,0.09776 0.11234,0.19524 0.16935,0.2925c0.41689,0.15986 0.95184,-0.77369 1.45089,-0.65074c2.27979,0.56169 4.40841,1.70559 6.3879,2.96835c2.26475,1.44474 3.76421,3.83463 5.58887,5.80617c1.44206,1.55814 3.82733,2.1065 5.11611,3.79363c0.06882,0.09009 0.13592,0.18125 0.20146,0.27342l2.76689,-0.25154l0.00021,0.00227c0.00336,-0.00106 0.00673,-0.00212 0.01009,-0.00318c4.63566,-1.46066 9.89134,0.24226 14.53762,-0.91952c3.66591,-0.91664 6.52392,-3.57314 9.1659,-6.02526c2.26993,-2.10681 5.14197,-3.1131 7.28084,-5.28342c2.91854,-2.96145 5.35443,-6.40342 7.83752,-9.72592c0.00032,-0.10208 0.00037,-0.20416 0.00013,-0.30625c0,0 0,-0.21268 0.05915,-0.51976l-0.00574,-0.01956c0,0 0.01832,-0.09158 0.06507,-0.23761c0.14291,-0.52951 0.45822,-1.20599 1.15387,-1.61355c0.14981,-0.09758 0.31689,-0.1815 0.503,-0.24526c-0.03073,-0.56344 -0.01223,-1.14435 -0.08744,-1.68983c-0.44605,-3.23497 -0.35457,-6.41534 -0.35457,-9.67443c0,-9.22061 -0.06091,-18.44373 0.0206,-27.664c0.00039,-0.043 0.00433,-0.08755 0.01065,-0.13313c-0.49408,0.73226 -1.33143,1.2138 -2.28125,1.2138c-1.15647,0 -2.14622,-0.71386 -2.55261,-1.72497l-0.97503,-2.27508l0.2371,-0.10162c-0.21736,-0.4328 -0.37172,-0.88848 -0.43063,-1.37881c-0.22523,-1.87501 4.98374,-5.71071 6.01957,-6.32163c3.63267,-2.14251 8.68205,-4.05579 12.80064,-4.972c1.02066,-0.22705 2.06715,-0.33354 3.11933,-0.4121c-0.24162,-1.79342 1.5518,-2.69013 1.5518,-2.69013c3.60575,-1.78453 6.76776,-2.26009 10.57198,-3.21048c3.04987,-0.76193 5.93741,-1.72151 9.21079,-1.02368c2.45109,0.52253 3.83033,1.79363 5.79436,3.18381l1.02228,0.85068c1.11241,0.29324 1.949,1.26595 2.03905,2.4474c0.16184,0.64756 0.08579,1.44763 -0.62935,2.30579c-0.73584,0.88301 -1.5332,1.08939 -2.21209,1.03049l-1.27269,0.63634c-0.2701,0.23239 -4.08734,2.24782 -4.34996,2.5172c-0.66035,0.67737 -0.86251,1.7 -1.45912,2.43414c-0.53208,0.65475 -0.96444,1.14982 -1.35204,1.54017c0.62171,2.41444 0.22967,6.83894 -0.08481,8.85035c-1.30303,8.33405 -4.72451,15.69674 -7.07906,23.68046c-1.51323,5.13101 -1.88618,10.24718 -1.88618,15.55034v0.33333c0,0 0,2.75 -2.75,2.75c-2.75,0 -2.75,-2.75 -2.75,-2.75v-0.33333c0,-0.47111 0.003,-0.94102 0.00939,-1.40982c-0.28936,0.10346 -0.60113,0.15982 -0.92605,0.15982h-2.66667c-1.15766,0 -2.92381,-0.21971 -4.63522,-0.32454c-0.31238,0.13314 -0.61906,0.28501 -0.92413,0.42508c-0.9536,0.43782 -1.79926,1.28704 -2.64212,2.08489c-0.62473,6.737 -0.79021,13.37027 -1.05092,20.17886c-0.12299,3.21195 -0.97493,6.35711 -1.29845,9.55509c-0.55384,5.47468 -0.02948,11.33463 -0.03783,16.83483l-0.07009,0.16345l0.05416,0.00677l-0.33333,2.66667l-0.82307,-0.10288l-0.45808,1.06829c0.39828,0.08197 0.804,-0.29005 1.21638,-0.36923c3.02023,-0.57989 2.60215,-3.94989 2.586,-6.60394c0,-7.77778 0,-15.55556 0,-23.33333v-2.66667c0,0 0,-2.75 2.75,-2.75c2.75,0 2.75,2.75 2.75,2.75c0,7.77778 0,18.22222 0,26c-0.0186,3.73773 -0.09198,8.30147 -3.46632,10.89103c-1.56821,1.20348 -7.04729,1.75221 -8.66397,0.82081c-1.33382,-0.76843 -1.95667,-2.42686 -2.56191,-3.84221c-0.49173,-1.1499 -0.76185,-2.516 -0.89726,-3.96422c-0.37364,-1.77397 -0.1077,-5.33571 0.02562,-7.65651c-0.6128,0.42295 -1.4062,0.81158 -2.49418,1.30283c-1.10974,0.50107 -2.88207,-0.06869 -3.6208,0.80842l-0.00148,0.24683c-0.09873,0.97685 -0.1728,1.9557 -0.2278,2.93599c0.11809,0.60463 0.24057,1.21168 0.24145,1.79037v2.69055c0.0181,0.31238 -0.01496,0.60023 -0.05886,0.82771c-0.04912,0.25558 -0.13923,0.57681 -0.30453,0.89529c-0.00792,0.01778 -0.0159,0.03556 -0.02392,0.05333c0.0021,2.62367 0.05543,5.24929 0.05398,7.86645c-0.00175,3.14021 0.23288,7.13056 -0.79283,10.15674c-0.43335,1.27853 -1.37259,2.3391 -1.85649,3.59937c-0.65386,1.70292 -0.58434,3.698 -1.54163,5.25076c-0.04292,0.06962 -0.08663,0.13865 -0.13109,0.20712l0.03172,0.01586l-1.97336,3.94671c-0.44095,0.93018 -1.38851,1.57345 -2.48632,1.57345c-1.51878,0 -2.75,-1.23122 -2.75,-2.75v-2.66667c0,-6.38553 -0.17794,-13.51941 1.43547,-19.7425c0.7991,-3.0822 3.0622,-5.76829 4.52143,-8.67529c0.0122,-1.84069 0.0545,-3.67994 0.15861,-5.51518c-0.40049,-0.04362 -0.77516,-0.17324 -1.10515,-0.36999l-2.20079,-1.25759c-0.74478,-0.33084 -1.48849,-0.68961 -2.23675,-1.0415c-2.25061,-0.07652 -4.67075,-0.32308 -6.79113,-0.00561c-2.70439,0.4049 -5.02712,1.96497 -7.45913,3.18353c-0.38893,0.71112 -0.72453,1.25449 -0.84041,1.44039c-0.72782,1.58611 -1.49734,3.14859 -2.3363,4.66706c-4.41504,7.62218 -4.4108,17.30347 -10.11858,24.21401c0.87558,0.46003 1.47274,1.37829 1.47274,2.43602c0,1.51878 -1.23122,2.75 -2.75,2.75h-2.66667c-0.33801,0 -0.68663,0.00799 -1.0434,0.02132zM266.82173,255.17557c0.16252,-0.79298 0.24052,-1.65521 0.27277,-2.53279c-0.11193,0.8373 -0.20137,1.68264 -0.27277,2.53279zM213.10511,199.40106c-0.15882,0.1488 -0.32597,0.29509 -0.49968,0.439c0.2583,0.03116 0.51201,0.06245 0.76033,0.09332c-0.08995,-0.17588 -0.17669,-0.35339 -0.26065,-0.53232zM226.4819,207.09293c-0.32639,-0.38781 -0.65433,-0.75549 -0.98663,-1.08962c0.32037,0.37111 0.6481,0.7377 0.98663,1.08962zM238.7042,236.21645c0.09235,-0.197 0.1847,-0.39425 0.27697,-0.59181c-0.02281,-0.0036 -0.04541,-0.00742 -0.06782,-0.01145c-0.06789,0.2019 -0.13782,0.40306 -0.20915,0.60326z"></path><path d="M326.8822,154.32765c-2.52765,1.08328 -3.61093,-1.44437 -3.61093,-1.44437l-1.12663,-2.69736c-0.13594,-1.01494 -0.27188,-2.02988 -0.40782,-3.04482c0,0 -0.3411,-2.72876 2.38767,-3.06986c2.72876,-0.3411 3.06986,2.38767 3.06986,2.38767c0.08628,0.76284 0.17256,1.52567 0.25884,2.28851l0.87337,1.96931c0,0 1.08328,2.52765 -1.44437,3.61093z"></path><path d="M346.74346,176.52212c1.30454,1.30454 0.85872,2.60909 0.42394,3.32649c-0.15342,2.07709 -0.65927,4.17199 -1.6476,5.98265c-0.29663,0.54344 -0.68485,1.02615 -1.10376,1.48842l-0.04221,0.11257l-0.04513,-0.01693c-0.00611,0.00664 -0.01222,0.01328 -0.01834,0.01991c-0.14815,1.84173 -0.42909,3.65308 -0.95971,5.72339l-0.29313,0.26532l0.12908,0.07376l-1.30685,2.28698c-0.46685,0.85329 -1.37292,1.43197 -2.41415,1.43197c-1.41573,0 -2.58159,-1.0698 -2.73329,-2.4451l-0.32881,-2.63047l0.0599,-0.00749c-0.02977,-0.11028 -0.0569,-0.22145 -0.08114,-0.33361c-0.28744,-1.33019 -0.05339,-2.49687 0.4474,-3.58674c-2.10953,-0.01002 -4.27896,-0.1936 -5.80993,-0.89835c-0.26879,-0.12373 -4.29271,-3.49516 -4.98132,-4.06897c0,0 -2.11261,-1.76051 -0.3521,-3.87312c1.76051,-2.11261 3.87312,-0.3521 3.87312,-0.3521c1.26067,1.05062 2.2048,2.5565 3.68535,3.26436c1.46104,0.69853 4.42264,0.47453 6.1715,0.5516l1.71604,-1.22575c0.38154,-0.86532 0.61246,-1.78988 0.58327,-2.81094l1.13879,-2.27788c0,0 1.94454,-1.94454 3.88909,0z"></path><path d="M356.56908,154.59301c-2.45967,-1.22984 -1.22984,-3.68951 -1.22984,-3.68951l0.84846,-1.38137c0.66667,-0.66667 1.33333,-1.33333 2,-2c0,0 1.94454,-1.94454 3.88909,0c1.94454,1.94454 0,3.88909 0,3.88909c-0.66667,0.66667 -1.33333,1.33333 -2,2l0.1818,-0.04804c0,0 -1.22984,2.45967 -3.68951,1.22984z"></path><path d="M306.05258,238.06153c-0.06147,1.61353 -0.07409,3.22615 0.13386,4.67247c0.29036,2.01947 1.27688,3.88838 1.64906,5.89438c0.51898,2.79727 0.16866,5.56165 0.67006,8.35186c0.39904,2.22057 2.29995,6.73501 0.52443,8.47668c-1.63434,1.60318 -4.56676,0.64367 -6.81316,-0.78737c-0.5262,0.58612 -1.03211,1.18882 -1.5277,1.7997c0.52949,0.50124 0.85979,1.21075 0.85979,1.99741c0,0.36227 -0.07005,0.70819 -0.19735,1.02493l-0.97775,2.60732l-0.10549,-0.03956c-0.04463,0.18914 -0.09665,0.37681 -0.15728,0.56278c-0.29218,0.89624 -5.46659,5.11169 -5.79208,5.21157c-0.77693,0.23841 -1.45567,-0.72772 -2.2115,-1.02634c-0.11827,-0.04673 0.2497,0.13797 0.2772,0.26213c0.12533,0.56571 0.14262,1.15148 0.16425,1.7305c0.11163,2.98832 0,6.01001 0,9c0,0.51447 0.00951,1.3544 -0.0713,2.06463c1.04662,-0.41134 2.17759,-0.61989 3.28962,-0.7903c0.21117,-0.03236 5.80153,-0.02433 6.03168,-0.02433l-0.27788,-0.86121c0,0 1.94454,-1.94454 3.88909,0c1.94454,1.94454 0,3.88909 0,3.88909l-3.61121,2.47212c-1.76724,0 -3.55755,-0.30934 -5.30165,-0.02433c-1.19434,0.19517 -2.29154,0.87726 -3.49801,0.97205c-1.67132,0.13132 -3.74009,0.77965 -5.0203,-0.30277c-1.22661,-1.03711 -0.7296,-3.13454 -0.93004,-4.72828c-0.46748,-3.71704 -0.09832,-7.91379 0,-11.66667c0.03066,-1.17019 -0.36391,-2.46379 0.12288,-3.518c-0.07987,-0.25762 -0.12288,-0.53146 -0.12288,-0.81534c0,-0.75939 0.3078,-1.44689 0.80546,-1.94454v0l2,-2l0.03857,0.03857l0.05155,-0.12469c3.59024,-2.95232 5.95271,-7.10781 9.15252,-10.47725c-0.0767,-1.87064 -0.04809,-4.40692 -0.04809,-5.15876c0,-4.55556 0,-9.11111 0,-13.66667c0,0 0,-1.84321 1.50902,-2.51158c0.04265,-1.64615 0.13953,-3.30203 0.15756,-4.83201c0.00004,-2.39133 0.00111,-6.19079 0.00945,-6.21656c0.02362,-0.07297 0.04815,-0.14552 0.07356,-0.21769l-0.04552,-0.00759l0.65923,-3.95541c0.1969,-1.32554 1.3397,-2.34249 2.72002,-2.34249c1.51878,0 2.75,1.23122 2.75,2.75c0,0.11629 -0.00722,0.2309 -0.02123,0.3434l-0.3163,2.84674c-0.00049,2.19241 -0.13121,4.38554 -0.32904,6.56903c0.00005,0.87569 -0.00009,1.59595 -0.00009,1.9075v1.66667c0,0 0,0.41807 -0.16301,0.92819z"></path></g><path d="M289.37881,134.29053c0.0252,0.01059 0.05055,0.02155 0.07605,0.03288c2.51298,1.11688 1.3961,3.62986 1.3961,3.62986c-0.46429,1.04178 -0.92858,2.08355 -1.39287,3.12533l-0.10604,0.09916l0.04026,0.02301l-0.12167,0.21292c1.87258,5.43151 1.484,11.38393 1.484,17.4227c0,8.6879 0.23232,17.28123 -0.67918,25.87074c-0.00158,0.25423 -0.00289,0.50845 -0.00391,0.76266l-0.10058,0.17821c-0.00403,0.03471 -0.00808,0.06942 -0.01214,0.10413l0.06366,0.01415l-0.14321,0.64445c-0.16031,1.28837 -0.3484,2.57679 -0.56892,3.86556l-0.22182,0.26272l0.11041,0.04732l-0.97503,2.27508c-0.22769,0.56649 -0.63849,1.03967 -1.15913,1.34629c0.02318,0.18145 0.02318,0.29536 0.02318,0.29536c0,5.22222 0,10.44444 0,15.66667l-0.80779,2.86963c0,0 -0.86963,2.60888 -3.47851,1.73925c-2.60888,-0.86963 -1.73925,-3.47851 -1.73925,-3.47851l0.52555,-1.13037c0,-3.54868 0,-7.09736 0,-10.64605c-0.33333,-0.68041 -0.33333,-1.35395 -0.33333,-1.35395v-1.66667c0.00094,-1.04568 -0.11833,-6.18128 0.35057,-7.30739c0.00452,-0.01085 0.00905,-0.02168 0.01361,-0.03251l-0.00961,-0.0012l0.32881,-2.63047c0.04263,-0.38651 0.16537,-0.74889 0.35123,-1.07017c-0.7275,-1.62447 -0.48666,-3.55835 -0.68623,-5.33763c-0.76527,-6.82286 -1.26383,-13.97296 0.02723,-20.76765c0.69516,-3.65854 1.1595,-6.96534 1.26814,-10.61648c-0.31045,-0.52907 -0.66784,-1.05156 -1.0792,-1.56726c-0.40262,-0.50475 -0.79569,-0.9332 -1.19141,-1.31437c-0.59929,0.50939 -1.22536,0.86683 -1.94104,0.71004c-3.46196,-0.75847 -5.27728,-5.98864 -3.84718,-8.88067c1.64887,-3.33445 4.11687,-4.01774 6.66893,-3.55825c0.15362,-0.4418 0.37088,-0.88192 0.66192,-1.31836c0.82835,-1.24219 2.77817,-1.09478 4.16726,-1.64217z" fill-opacity="0.09804" fill="#e3a3e3"></path><path d="M207.18162,215.1833c-2.50363,3.21134 -3.97807,7.22535 -6.81989,10.18171c-2.55892,2.66206 -5.07272,3.4304 -7.68686,5.69607l-1.54418,1.85301c-0.50435,0.61399 -1.26947,1.00563 -2.12605,1.00563c-1.43677,0 -2.61619,-1.10183 -2.73938,-2.50662l-0.33031,-3.30308l0.07184,-0.00718c-0.03165,-0.27653 -0.04169,-0.55598 -0.02523,-0.83901c0.06428,-1.10477 0.65012,-2.05704 1.31865,-2.98798c-0.11364,-0.33577 -0.2234,-0.65775 -0.33479,-0.94879c-0.66641,-1.74122 0.21021,-5.25373 0.74284,-6.9618c3.00772,-9.64547 10.8907,-15.89477 18.41699,-22.13646c2.68434,-1.47078 5.13307,-3.09114 7.68307,-4.71108c-1.94151,-2.8739 -3.51866,-5.8401 -5.45709,-8.87159c0,0 -1.47641,-2.32007 0.84366,-3.79648c2.32007,-1.47641 3.79648,0.84366 3.79648,0.84366c0.46539,0.73452 0.90922,1.46088 1.34192,2.18021c0.93241,-2.69232 2.49812,-5.29909 3.44881,-7.71872c0.36217,-0.92178 0.06378,-2.05311 0.53953,-2.92174c0.01084,-0.01979 0.02175,-0.03955 0.03272,-0.05925l-0.01761,-0.0044l0.65271,-2.61086c0.27791,-1.22463 1.37312,-2.13883 2.68184,-2.13883c0.91777,0 1.73053,0.44958 2.23006,1.14052c0.45984,-0.87618 1.37842,-1.47385 2.4366,-1.47385c1.51878,0 2.75,1.23122 2.75,2.75l0,3.86077c2.47839,3.13613 2.10167,8.00404 3.70057,11.55801c1.31673,2.92677 4.87201,3.34382 6.08534,6.51741c0.02001,0.05234 0.03962,0.10519 0.05883,0.1585c0.34885,0.10147 0.68106,0.2046 0.9897,0.31297c3.99798,1.4038 7.74153,3.32724 11.79655,4.4528c1.39047,-0.10838 2.91954,-0.13255 3.76414,0.65769c2.46303,0.06699 4.99897,-0.47927 7.39791,0.07318c0.06838,0.01575 0.13659,0.03207 0.20463,0.04893l0.00384,-0.02496l4.29112,0.66017c1.34092,0.18331 2.37405,1.33326 2.37405,2.72452c0,0.84174 -0.37818,1.59515 -0.9739,2.09959l-2.31976,1.98837l-0.03328,-0.03882l-0.04231,0.06309c-0.15649,0.96054 -0.81059,1.75397 -1.68907,2.10706l-2.27508,0.97503l-0.0976,-0.22774l-0.43275,0.39393c-0.09431,0.00136 -0.18863,0.0027 -0.28295,0.00402c-3.57166,2.35951 -7.0889,4.46155 -11.45952,6.01043c-2.7425,0.03638 -6.2134,0.49992 -8.91763,0.0062c-4.81905,-0.87983 -9.56125,-4.05533 -13.46132,-6.78899c-1.44388,-1.01205 -3.32926,-1.29988 -4.72616,-2.37583c-1.77885,-1.37014 -3.0248,-3.10549 -4.15596,-4.91786c-3.03689,6.47495 -7.41955,12.55066 -11.70574,18.04844zM233.88524,194.55558c-0.04145,-0.04257 -0.08266,-0.08538 -0.1236,-0.12846c-0.05697,0.24653 -0.11715,0.49368 -0.13297,0.731c-0.00971,0.14571 0.20883,-0.22887 0.22899,-0.37351c0.01062,-0.07619 0.01975,-0.15254 0.02757,-0.22904z" fill-opacity="0.09804" fill="#e3a3e3"></path><path d="M217.35618,261.09506l0.78413,-3.00077c0.55556,-0.88889 1.23269,-1.7125 1.66667,-2.66667c0.47959,-1.05446 0.1125,-2.63508 1.05255,-3.31199c6.19871,-4.46358 7.19175,-2.44731 7.55241,3.28091c0.21551,3.42288 -1.19556,8.67229 -3.06801,11.55227c-2.21996,3.41449 -10.05432,8.92576 -12.65906,1.61115c-0.9173,-2.57596 2.57375,-5.51077 4.04189,-7.00145c0,0 0.23747,-0.23747 0.62941,-0.46345z" fill-opacity="0.09804" fill="#e3a3e3"></path></g></g></svg>