<svg version="1.1" xmlns="http://www.w3.org/2000/svg" xmlns:xlink="http://www.w3.org/1999/xlink" width="37.4559" height="37.4559" viewBox="0,0,37.4559,37.4559"><defs><radialGradient cx="240" cy="180" r="12.4421" gradientUnits="userSpaceOnUse" id="color-1"><stop offset="0" stop-color="#b49fda"></stop><stop offset="1" stop-color="#b49fda" stop-opacity="0"></stop></radialGradient><radialGradient cx="240" cy="180" r="6.74411" gradientUnits="userSpaceOnUse" id="color-2"><stop offset="0" stop-color="#b49fda"></stop><stop offset="1" stop-color="#b49fda" stop-opacity="0"></stop></radialGradient><radialGradient cx="240" cy="180" r="18.72795" gradientUnits="userSpaceOnUse" id="color-3"><stop offset="0" stop-color="#ffffff"></stop><stop offset="1" stop-color="#ffffff" stop-opacity="0"></stop></radialGradient><radialGradient cx="240" cy="180" r="3.07692" gradientUnits="userSpaceOnUse" id="color-4"><stop offset="0" stop-color="#ffffff"></stop><stop offset="1" stop-color="#ffffff" stop-opacity="0"></stop></radialGradient></defs><g transform="translate(-221.27205,-161.27205)"><g stroke="none" stroke-width="0" stroke-miterlimit="10"><path d="M231.20211,188.7979c-4.85894,-4.85894 -4.85894,-12.73685 0,-17.59579c4.85894,-4.85894 12.73685,-4.85894 17.59579,0c4.85894,4.85894 4.85894,12.73685 0,17.59579c-4.85894,4.85894 -12.73685,4.85894 -17.59579,0z" fill="url(#color-1)"></path><path d="M235.23119,184.76881c-2.63374,-2.63374 -2.63374,-6.90387 0,-9.53762c2.63374,-2.63374 6.90387,-2.63374 9.53762,0c2.63374,2.63374 2.63374,6.90387 0,9.53762c-2.63374,2.63374 -6.90387,2.63374 -9.53762,0z" fill="url(#color-2)"></path><g fill="url(#color-3)"><path d="M240.38882,180c0,10.34317 -0.17408,18.72795 -0.38882,18.72795c-0.21473,0 -0.38882,-8.38479 -0.38882,-18.72795c0,-10.34317 0.17408,-18.72795 0.38882,-18.72795c0.21473,0 0.38882,8.38479 0.38882,18.72795z"></path><path d="M240,179.61118c10.34317,0 18.72795,0.17408 18.72795,0.38882c0,0.21473 -8.38479,0.38882 -18.72795,0.38882c-10.34317,0 -18.72795,-0.17408 -18.72795,-0.38882c0,-0.21473 8.38479,-0.38882 18.72795,-0.38882z"></path></g><path d="M236.92307,180c0,-1.69934 1.37759,-3.07692 3.07692,-3.07692c1.69934,0 3.07692,1.37759 3.07692,3.07692c0,1.69934 -1.37759,3.07692 -3.07692,3.07692c-1.69934,0 -3.07692,-1.37759 -3.07692,-3.07692z" fill="url(#color-4)"></path></g></g></svg>