<svg version="1.1" xmlns="http://www.w3.org/2000/svg" xmlns:xlink="http://www.w3.org/1999/xlink" width="157.96527" height="103.75" viewBox="0,0,157.96527,103.75"><defs><radialGradient cx="201.53488" cy="147.75937" r="45.22306" gradientUnits="userSpaceOnUse" id="color-1"><stop offset="0" stop-color="#f3edff" stop-opacity="0.72157"></stop><stop offset="1" stop-color="#f3edff" stop-opacity="0"></stop></radialGradient><radialGradient cx="201.53488" cy="160.84615" r="45.22306" gradientUnits="userSpaceOnUse" id="color-2"><stop offset="0" stop-color="#f3edff" stop-opacity="0.72157"></stop><stop offset="1" stop-color="#f3edff" stop-opacity="0"></stop></radialGradient><radialGradient cx="201.75015" cy="173.45661" r="45.22306" gradientUnits="userSpaceOnUse" id="color-3"><stop offset="0" stop-color="#f3edff" stop-opacity="0.72157"></stop><stop offset="1" stop-color="#f3edff" stop-opacity="0"></stop></radialGradient><radialGradient cx="201.75015" cy="186.5434" r="45.22306" gradientUnits="userSpaceOnUse" id="color-4"><stop offset="0" stop-color="#f3edff" stop-opacity="0.72157"></stop><stop offset="1" stop-color="#f3edff" stop-opacity="0"></stop></radialGradient><radialGradient cx="201.75015" cy="199.15386" r="45.22306" gradientUnits="userSpaceOnUse" id="color-5"><stop offset="0" stop-color="#f3edff" stop-opacity="0.72157"></stop><stop offset="1" stop-color="#f3edff" stop-opacity="0"></stop></radialGradient><radialGradient cx="201.75015" cy="212.24064" r="45.22306" gradientUnits="userSpaceOnUse" id="color-6"><stop offset="0" stop-color="#f3edff" stop-opacity="0.72157"></stop><stop offset="1" stop-color="#f3edff" stop-opacity="0"></stop></radialGradient><linearGradient x1="191.61514" y1="180" x2="249.21514" y2="180" gradientUnits="userSpaceOnUse" id="color-7"><stop offset="0" stop-color="#ffffff" stop-opacity="0.15686"></stop><stop offset="1" stop-color="#ffffff" stop-opacity="0"></stop></linearGradient><radialGradient cx="203.30813" cy="180" r="51.875" gradientUnits="userSpaceOnUse" id="color-8"><stop offset="0" stop-color="#f3edff" stop-opacity="0.72157"></stop><stop offset="1" stop-color="#f3edff" stop-opacity="0"></stop></radialGradient><radialGradient cx="202.44279" cy="146.37146" r="23.94194" gradientUnits="userSpaceOnUse" id="color-9"><stop offset="0" stop-color="#ffffff" stop-opacity="0.14118"></stop><stop offset="1" stop-color="#ffffff" stop-opacity="0"></stop></radialGradient><radialGradient cx="202.44279" cy="159.45824" r="23.94194" gradientUnits="userSpaceOnUse" id="color-10"><stop offset="0" stop-color="#ffffff" stop-opacity="0.14118"></stop><stop offset="1" stop-color="#ffffff" stop-opacity="0"></stop></radialGradient><radialGradient cx="202.65806" cy="172.06871" r="23.94194" gradientUnits="userSpaceOnUse" id="color-11"><stop offset="0" stop-color="#ffffff" stop-opacity="0.14118"></stop><stop offset="1" stop-color="#ffffff" stop-opacity="0"></stop></radialGradient><radialGradient cx="202.65806" cy="185.15549" r="23.94194" gradientUnits="userSpaceOnUse" id="color-12"><stop offset="0" stop-color="#ffffff" stop-opacity="0.14118"></stop><stop offset="1" stop-color="#ffffff" stop-opacity="0"></stop></radialGradient><radialGradient cx="202.65806" cy="197.76595" r="23.94194" gradientUnits="userSpaceOnUse" id="color-13"><stop offset="0" stop-color="#ffffff" stop-opacity="0.14118"></stop><stop offset="1" stop-color="#ffffff" stop-opacity="0"></stop></radialGradient><radialGradient cx="202.65806" cy="210.85273" r="23.94194" gradientUnits="userSpaceOnUse" id="color-14"><stop offset="0" stop-color="#ffffff" stop-opacity="0.14118"></stop><stop offset="1" stop-color="#ffffff" stop-opacity="0"></stop></radialGradient><radialGradient cx="215.84279" cy="147.75936" r="78.875" gradientUnits="userSpaceOnUse" id="color-15"><stop offset="0" stop-color="#ffffff" stop-opacity="0.14118"></stop><stop offset="1" stop-color="#ffffff" stop-opacity="0"></stop></radialGradient><radialGradient cx="215.84279" cy="160.84614" r="78.875" gradientUnits="userSpaceOnUse" id="color-16"><stop offset="0" stop-color="#ffffff" stop-opacity="0.14118"></stop><stop offset="1" stop-color="#ffffff" stop-opacity="0"></stop></radialGradient><radialGradient cx="216.05806" cy="173.45661" r="78.875" gradientUnits="userSpaceOnUse" id="color-17"><stop offset="0" stop-color="#ffffff" stop-opacity="0.14118"></stop><stop offset="1" stop-color="#ffffff" stop-opacity="0"></stop></radialGradient><radialGradient cx="216.05806" cy="186.54339" r="78.875" gradientUnits="userSpaceOnUse" id="color-18"><stop offset="0" stop-color="#ffffff" stop-opacity="0.14118"></stop><stop offset="1" stop-color="#ffffff" stop-opacity="0"></stop></radialGradient><radialGradient cx="216.05806" cy="199.15385" r="78.875" gradientUnits="userSpaceOnUse" id="color-19"><stop offset="0" stop-color="#ffffff" stop-opacity="0.14118"></stop><stop offset="1" stop-color="#ffffff" stop-opacity="0"></stop></radialGradient><radialGradient cx="216.05806" cy="212.24063" r="78.875" gradientUnits="userSpaceOnUse" id="color-20"><stop offset="0" stop-color="#ffffff" stop-opacity="0.14118"></stop><stop offset="1" stop-color="#ffffff" stop-opacity="0"></stop></radialGradient><linearGradient x1="196.34763" y1="180" x2="207.38181" y2="180" gradientUnits="userSpaceOnUse" id="color-21"><stop offset="0" stop-color="#ffffff" stop-opacity="0.5098"></stop><stop offset="1" stop-color="#ffffff" stop-opacity="0"></stop></linearGradient></defs><g transform="translate(-136.96779,-128.125)"><g stroke-miterlimit="10"><path d="" fill="#9966ff" stroke="none" stroke-width="0.5"></path><path d="" fill="#cbadff" stroke="none" stroke-width="0.5"></path><g stroke="none" stroke-width="0"><path d="M246.75794,147.75937c0,1.23532 -20.24706,2.23675 -45.22306,2.23675c-4.49323,0 -7.68304,-0.03241 -9.89298,-0.09276c-0.00292,-0.00008 -0.02924,-4.29449 -0.02657,-4.29456c2.19844,-0.05613 5.59233,-0.08619 9.91955,-0.08619c24.976,0 45.22306,1.00144 45.22306,2.23676z" fill="url(#color-1)"></path><path d="M246.75794,160.84615c0,1.23532 -20.24706,2.23675 -45.22306,2.23675c-4.49323,0 -7.68304,-0.03241 -9.89298,-0.09276c-0.00292,-0.00008 -0.02924,-4.29449 -0.02657,-4.29456c2.19844,-0.05613 5.59233,-0.08619 9.91955,-0.08619c24.976,0 45.22306,1.00144 45.22306,2.23676z" fill="url(#color-2)"></path><path d="M246.97321,173.45661c0,1.23532 -20.24705,2.23675 -45.22306,2.23675c-4.49323,0 -7.68304,-0.03241 -9.89298,-0.09276c-0.00292,-0.00008 -0.02924,-4.29449 -0.02658,-4.29456c2.19844,-0.05613 5.59234,-0.08619 9.91955,-0.08619c24.97601,0 45.22306,1.00144 45.22306,2.23676z" fill="url(#color-3)"></path><path d="M246.97321,186.5434c0,1.23532 -20.24705,2.23675 -45.22306,2.23675c-4.49323,0 -7.68304,-0.03241 -9.89298,-0.09276c-0.00292,-0.00008 -0.02924,-4.29449 -0.02658,-4.29456c2.19844,-0.05613 5.59234,-0.08619 9.91955,-0.08619c24.97601,0 45.22306,1.00144 45.22306,2.23676z" fill="url(#color-4)"></path><path d="M246.97321,199.15386c0,1.23532 -20.24705,2.23676 -45.22306,2.23676c-4.49323,0 -7.68304,-0.03241 -9.89298,-0.09276c-0.00292,-0.00008 -0.02924,-4.29449 -0.02658,-4.29456c2.19844,-0.05613 5.59234,-0.08619 9.91955,-0.08619c24.97601,0 45.22306,1.00143 45.22306,2.23675z" fill="url(#color-5)"></path><path d="M246.97321,212.24064c0,1.23532 -20.24705,2.23676 -45.22306,2.23676c-4.49323,0 -7.68304,-0.03241 -9.89298,-0.09276c-0.00292,-0.00008 -0.02924,-4.29449 -0.02658,-4.29456c2.19844,-0.05613 5.59234,-0.08619 9.91955,-0.08619c24.97601,0 45.22306,1.00143 45.22306,2.23675z" fill="url(#color-6)"></path></g><g fill="#f2ecff" stroke="#f2ecff" stroke-width="0.5"><path d="M192.11612,213.11233v-1.7434h25.19277v1.7434z"></path><path d="M217.30889,213.11233v-1.7434l22.69111,0.8717z"></path><g><path d="M192.11612,211.36894c0,0 2.06405,-0.01032 4.01063,-0.29425c1.59912,-0.23325 3.07314,-0.71241 3.65078,-0.99789c1.55493,-0.76848 3.68414,-2.99164 3.68414,-2.99164v4.28379z"></path><path d="M203.46168,211.36894v-4.28379c0,0 2.1292,2.22316 3.68414,2.99164c0.57764,0.28549 2.05167,0.76464 3.65079,0.99789c1.94659,0.28394 4.01063,0.29425 4.01063,0.29425z"></path></g><g><path d="M203.46168,213.11233v4.28379c0,0 -2.1292,-2.22317 -3.68414,-2.99165c-0.57764,-0.28549 -2.05167,-0.76464 -3.65078,-0.99789c-1.94659,-0.28394 -4.01063,-0.29425 -4.01063,-0.29425z"></path><path d="M214.80723,213.11233c0,0 -2.06405,0.01032 -4.01063,0.29425c-1.59912,0.23325 -3.07314,0.7124 -3.65078,0.99789c-1.55493,0.76849 -3.68414,2.99165 -3.68414,2.99165v-4.28379z"></path></g></g><g fill="#f2ecff" stroke="#f2ecff" stroke-width="0.5"><path d="M192.11612,200.02555v-1.7434h25.19277v1.7434z"></path><path d="M217.30889,200.02555v-1.7434l22.69111,0.8717z"></path><g><path d="M192.11612,198.28216c0,0 2.06405,-0.01032 4.01063,-0.29425c1.59912,-0.23325 3.07314,-0.71241 3.65078,-0.99789c1.55493,-0.76848 3.68414,-2.99164 3.68414,-2.99164v4.28379z"></path><path d="M203.46168,198.28216v-4.28379c0,0 2.1292,2.22316 3.68414,2.99164c0.57764,0.28549 2.05167,0.76464 3.65079,0.99789c1.94659,0.28394 4.01063,0.29425 4.01063,0.29425z"></path></g><g><path d="M203.46168,200.02555v4.28379c0,0 -2.1292,-2.22317 -3.68414,-2.99165c-0.57764,-0.28549 -2.05167,-0.76464 -3.65078,-0.99789c-1.94659,-0.28394 -4.01063,-0.29425 -4.01063,-0.29425z"></path><path d="M214.80723,200.02555c0,0 -2.06405,0.01032 -4.01063,0.29425c-1.59912,0.23325 -3.07314,0.7124 -3.65078,0.99789c-1.55493,0.76849 -3.68414,2.99165 -3.68414,2.99165v-4.28379z"></path></g></g><g fill="#f2ecff" stroke="#f2ecff" stroke-width="0.5"><path d="M192.11612,187.41509v-1.7434h25.19277v1.7434z"></path><path d="M217.30889,187.41509v-1.7434l22.69111,0.8717z"></path><g><path d="M192.11612,185.6717c0,0 2.06405,-0.01032 4.01063,-0.29425c1.59912,-0.23325 3.07314,-0.71241 3.65078,-0.99789c1.55493,-0.76848 3.68414,-2.99164 3.68414,-2.99164v4.28379z"></path><path d="M203.46168,185.6717v-4.28379c0,0 2.1292,2.22316 3.68414,2.99164c0.57764,0.28549 2.05167,0.76464 3.65079,0.99789c1.94659,0.28394 4.01063,0.29425 4.01063,0.29425z"></path></g><g><path d="M203.46168,187.41509v4.28379c0,0 -2.1292,-2.22317 -3.68414,-2.99165c-0.57764,-0.28549 -2.05167,-0.76464 -3.65078,-0.99789c-1.94659,-0.28394 -4.01063,-0.29425 -4.01063,-0.29425z"></path><path d="M214.80723,187.41509c0,0 -2.06405,0.01032 -4.01063,0.29425c-1.59912,0.23325 -3.07314,0.7124 -3.65078,0.99789c-1.55493,0.76849 -3.68414,2.99165 -3.68414,2.99165v-4.28379z"></path></g></g><g fill="#f2ecff" stroke="#f2ecff" stroke-width="0.5"><path d="M192.11612,174.32831v-1.7434h25.19277v1.7434z"></path><path d="M217.30889,174.32831v-1.7434l22.69111,0.8717z"></path><g><path d="M192.11612,172.58491c0,0 2.06405,-0.01032 4.01063,-0.29425c1.59912,-0.23325 3.07314,-0.71241 3.65078,-0.99789c1.55493,-0.76848 3.68414,-2.99164 3.68414,-2.99164v4.28379z"></path><path d="M203.46168,172.58491v-4.28379c0,0 2.1292,2.22316 3.68414,2.99164c0.57764,0.28549 2.05167,0.76464 3.65079,0.99789c1.94659,0.28394 4.01063,0.29425 4.01063,0.29425z"></path></g><g><path d="M203.46168,174.32831v4.28379c0,0 -2.1292,-2.22317 -3.68414,-2.99165c-0.57764,-0.28549 -2.05167,-0.76464 -3.65078,-0.99789c-1.94659,-0.28394 -4.01063,-0.29425 -4.01063,-0.29425z"></path><path d="M214.80723,174.32831c0,0 -2.06405,0.01032 -4.01063,0.29425c-1.59912,0.23325 -3.07314,0.7124 -3.65078,0.99789c-1.55493,0.76849 -3.68414,2.99165 -3.68414,2.99165v-4.28379z"></path></g></g><g fill="#f2ecff" stroke="#f2ecff" stroke-width="0.5"><path d="M191.90085,161.71784v-1.7434h25.19277v1.7434z"></path><path d="M217.09362,161.71784v-1.7434l22.69111,0.8717z"></path><g><path d="M191.90085,159.97445c0,0 2.06405,-0.01032 4.01063,-0.29425c1.59912,-0.23325 3.07314,-0.71241 3.65078,-0.99789c1.55493,-0.76848 3.68414,-2.99164 3.68414,-2.99164v4.28379z"></path><path d="M203.2464,159.97445v-4.28379c0,0 2.1292,2.22316 3.68414,2.99164c0.57764,0.28549 2.05167,0.76464 3.65079,0.99789c1.94659,0.28394 4.01063,0.29425 4.01063,0.29425z"></path></g><g><path d="M203.2464,161.71784v4.28379c0,0 -2.1292,-2.22317 -3.68414,-2.99165c-0.57764,-0.28549 -2.05167,-0.76464 -3.65078,-0.99789c-1.94659,-0.28394 -4.01063,-0.29425 -4.01063,-0.29425z"></path><path d="M214.59196,161.71784c0,0 -2.06405,0.01032 -4.01063,0.29425c-1.59912,0.23325 -3.07314,0.7124 -3.65078,0.99789c-1.55493,0.76849 -3.68414,2.99165 -3.68414,2.99165v-4.28379z"></path></g></g><g fill="#f2ecff" stroke="#f2ecff" stroke-width="0.5"><path d="M191.90085,148.63106v-1.7434h25.19277v1.7434z"></path><path d="M217.09362,148.63106v-1.7434l22.69111,0.8717z"></path><g><path d="M191.90085,146.88767c0,0 2.06405,-0.01032 4.01063,-0.29425c1.59912,-0.23325 3.07314,-0.71241 3.65078,-0.99789c1.55493,-0.76848 3.68414,-2.99164 3.68414,-2.99164v4.28379z"></path><path d="M203.2464,146.88767v-4.28379c0,0 2.1292,2.22316 3.68414,2.99164c0.57764,0.28549 2.05167,0.76464 3.65079,0.99789c1.94659,0.28394 4.01063,0.29425 4.01063,0.29425z"></path></g><g><path d="M203.2464,148.63106v4.28379c0,0 -2.1292,-2.22317 -3.68414,-2.99165c-0.57764,-0.28549 -2.05167,-0.76464 -3.65078,-0.99789c-1.94659,-0.28394 -4.01063,-0.29425 -4.01063,-0.29425z"></path><path d="M214.59196,148.63106c0,0 -2.06405,0.01032 -4.01063,0.29425c-1.59912,0.23325 -3.07314,0.7124 -3.65078,0.99789c-1.55493,0.76849 -3.68414,2.99165 -3.68414,2.99165v-4.28379z"></path></g></g><g stroke="none" stroke-width="0"><g><path d="M191.61514,214.4774v-68.95479h57.6v68.95479z" fill="url(#color-7)"></path><path d="M204.55813,180c0,28.64977 -0.55964,51.875 -1.25,51.875c-0.69036,0 -1.25,-23.22523 -1.25,-51.875c0,-28.64977 0.55964,-51.875 1.25,-51.875c0.69036,0 1.25,23.22523 1.25,51.875z" fill="url(#color-8)"></path></g><g><path d="M178.50085,146.37146c0,-5.45533 10.71917,-9.87774 23.94194,-9.87774c13.22277,0 23.94194,4.42242 23.94194,9.87774c0,5.45533 -10.71917,9.87774 -23.94194,9.87774c-13.22277,0 -23.94194,-4.42242 -23.94194,-9.87774z" fill="url(#color-9)"></path><path d="M178.50085,159.45825c0,-5.45532 10.71917,-9.87775 23.94194,-9.87775c13.22277,0 23.94194,4.42242 23.94194,9.87775c0,5.45532 -10.71917,9.87774 -23.94194,9.87774c-13.22277,0 -23.94194,-4.42242 -23.94194,-9.87774z" fill="url(#color-10)"></path><path d="M178.71612,172.06871c0,-5.45532 10.71917,-9.87775 23.94194,-9.87775c13.22277,0 23.94194,4.42242 23.94194,9.87775c0,5.45532 -10.71917,9.87774 -23.94194,9.87774c-13.22277,0 -23.94194,-4.42242 -23.94194,-9.87774z" fill="url(#color-11)"></path><path d="M178.71612,185.1555c0,-5.45532 10.71917,-9.87775 23.94194,-9.87775c13.22277,0 23.94194,4.42242 23.94194,9.87775c0,5.45532 -10.71917,9.87774 -23.94194,9.87774c-13.22277,0 -23.94194,-4.42242 -23.94194,-9.87774z" fill="url(#color-12)"></path><path d="M178.71612,197.76596c0,-5.45532 10.71917,-9.87775 23.94194,-9.87775c13.22277,0 23.94194,4.42242 23.94194,9.87775c0,5.45532 -10.71917,9.87774 -23.94194,9.87774c-13.22277,0 -23.94194,-4.42242 -23.94194,-9.87774z" fill="url(#color-13)"></path><path d="M178.71612,210.85274c0,-5.45532 10.71917,-9.87775 23.94194,-9.87775c13.22277,0 23.94194,4.42242 23.94194,9.87775c0,5.45532 -10.71917,9.87774 -23.94194,9.87774c-13.22277,0 -23.94194,-4.42242 -23.94194,-9.87774z" fill="url(#color-14)"></path></g></g><path d="M294.71779,147.75936c0,0.62132 -35.31354,1.125 -78.875,1.125c-43.56146,0 -78.875,-0.50368 -78.875,-1.125c0,-0.62132 35.31354,-1.125 78.875,-1.125c43.56146,0 78.875,0.50368 78.875,1.125z" fill="url(#color-15)" stroke="none" stroke-width="0"></path><path d="M294.71779,160.84614c0,0.62132 -35.31354,1.125 -78.875,1.125c-43.56146,0 -78.875,-0.50368 -78.875,-1.125c0,-0.62132 35.31354,-1.125 78.875,-1.125c43.56146,0 78.875,0.50368 78.875,1.125z" fill="url(#color-16)" stroke="none" stroke-width="0"></path><path d="M294.93306,173.45661c0,0.62132 -35.31354,1.125 -78.875,1.125c-43.56146,0 -78.875,-0.50368 -78.875,-1.125c0,-0.62132 35.31354,-1.125 78.875,-1.125c43.56146,0 78.875,0.50368 78.875,1.125z" fill="url(#color-17)" stroke="none" stroke-width="0"></path><path d="M294.93306,186.54339c0,0.62132 -35.31354,1.125 -78.875,1.125c-43.56146,0 -78.875,-0.50368 -78.875,-1.125c0,-0.62132 35.31354,-1.125 78.875,-1.125c43.56146,0 78.875,0.50368 78.875,1.125z" fill="url(#color-18)" stroke="none" stroke-width="0"></path><path d="M294.93306,199.15385c0,0.62132 -35.31354,1.125 -78.875,1.125c-43.56146,0 -78.875,-0.50368 -78.875,-1.125c0,-0.62132 35.31354,-1.125 78.875,-1.125c43.56146,0 78.875,0.50368 78.875,1.125z" fill="url(#color-19)" stroke="none" stroke-width="0"></path><path d="M294.93306,212.24063c0,0.62132 -35.31354,1.125 -78.875,1.125c-43.56146,0 -78.875,-0.50368 -78.875,-1.125c0,-0.62132 35.31354,-1.125 78.875,-1.125c43.56146,0 78.875,0.50368 78.875,1.125z" fill="url(#color-20)" stroke="none" stroke-width="0"></path><path d="M191.61514,217.39612v-74.79224h15.76667v74.79224z" fill="url(#color-21)" stroke="none" stroke-width="0"></path></g></g></svg>