<svg version="1.1" xmlns="http://www.w3.org/2000/svg" xmlns:xlink="http://www.w3.org/1999/xlink" width="24.14233" height="72.49073" viewBox="0,0,24.14233,72.49073"><g transform="translate(-227.92823,-131.7397)"><g stroke-miterlimit="10"><path d="" fill="#9966ff" stroke="none" stroke-width="0.5"></path><path d="" fill="#cbadff" stroke="none" stroke-width="0.5"></path><g><path d="M237.92724,133.52448c0.03838,0.0062 0.06981,0.0174 0.09555,0.0319c0.02482,-0.04188 0.06142,-0.07562 0.10489,-0.09704l0.38399,-0.19727l0.04443,0.08649c0.66571,-0.39751 1.33071,-0.40645 1.91137,-0.1619c0.88044,0.03389 1.67147,0.27622 1.64846,1.02583c-0.02067,0.26756 -0.03144,0.53457 -0.03486,0.80118c0.16586,0.45666 0.24321,0.95356 0.20509,1.44718c-0.03012,0.38998 -0.06024,0.77997 -0.09036,1.16995c0.07901,1.18983 0.13899,2.38089 -0.04789,3.58598c-0.00564,0.07246 -0.01426,0.14297 -0.02569,0.21153c-0.08237,1.11736 -0.44456,1.99923 -1.79174,1.89518c-0.17065,-0.01318 -0.32319,-0.03729 -0.46389,-0.0744c-1.2547,0.05274 -2.53464,-0.7096 -2.4148,-2.26135c0.18162,-2.35157 -0.00208,-4.72855 0.03215,-7.08869c0,0 0.00291,-0.19822 0.18006,-0.23905c0.03231,-0.06943 0.10553,-0.161 0.26323,-0.13551zM241.38455,133.85053c0.08351,0.09127 0.16248,0.18847 0.23641,0.29074c0.00632,-0.12946 -0.08351,-0.22373 -0.23641,-0.29074z" fill="#13072c" stroke-opacity="0.52941" stroke="#ff0000" stroke-width="1.5"></path><path d="M244.15139,143.84724c0.00059,0.0003 0.00118,0.00061 0.00177,0.00091c1.14632,0.5921 3.18693,3.14984 2.49685,4.44776v0.44299c0,0.27614 -0.22386,0.5 -0.5,0.5c-0.21827,0 -0.40387,-0.13986 -0.47208,-0.33485c-0.08955,0.13485 -0.24281,0.22373 -0.41681,0.22373c-0.13807,0 -0.26307,-0.05596 -0.35355,-0.14644v0l-0.42562,-0.42562c-0.2321,-0.1743 -0.43645,-0.33865 -0.62635,-0.49041c-0.71021,-0.22656 -1.54128,-0.61893 -2.1387,-0.85727c-0.04548,0.93324 -0.17656,1.94536 -0.06932,2.48159c0.00152,0.37613 0.01458,0.76276 0.03427,1.15705c0.06299,0.04251 0.11332,0.09341 0.15354,0.1476c1.00706,-0.12714 2.2898,0.28585 2.67684,0.94007c0.28075,0.47457 0.09748,2.12112 0.17733,2.75016l0.04613,0.32252c0.25134,0.43958 0.51964,0.8653 0.821,1.25635c0.75975,1.09006 1.25689,2.51661 1.42516,3.8961c0.36372,0.49116 0.7306,0.95408 1.06351,1.3653v-0.07102c0.0861,0.12699 0.1757,0.2591 0.26799,0.40029c0.09495,0.11617 0.1858,0.22692 0.27147,0.33159l0.19366,0.44083c0.05737,0.10498 0.1152,0.21517 0.17332,0.33135c0.53044,1.06025 0.50652,2.50011 1.1144,3.52115c0.3827,0.64281 1.2158,0.48073 1.25487,1.53716c0.03249,0.87855 -1.01838,1.43336 -1.53266,2.14639l-0.85605,-0.34365c-0.09619,0.09214 -0.17818,0.1808 -0.25362,0.263c-0.13076,0.19626 -0.2605,0.39331 -0.38565,0.59289l-0.12304,0.73823c-0.0537,0.36151 -0.36537,0.63886 -0.74182,0.63886c-0.41422,0 -0.75,-0.33578 -0.75,-0.75v-0.85715h0.13251l0.02055,-0.1233l0.06059,0.0101c-0.002,-0.04501 -0.00218,-0.08882 -0.00049,-0.13165l-0.02412,-0.01429c0.00925,-0.01588 0.01857,-0.03177 0.02796,-0.04766c0.0376,-0.44468 0.29026,-0.78889 0.83263,-1.27107c0.03431,-0.05136 0.06844,-0.10278 0.10226,-0.15426c0.01831,-0.06676 0.04741,-0.13727 0.08977,-0.2114v-0.00001c0.05893,-0.10313 0.12485,-0.18059 0.19409,-0.23793c0.12446,-0.20721 0.23912,-0.41571 0.33705,-0.62582l-0.1461,-0.02435l0.00946,-0.0568c-0.11286,-0.01222 -0.22368,-0.03725 -0.33175,-0.0797c-0.12428,-0.04883 -0.28302,-0.31362 -0.43699,-0.63354c-0.40941,-0.33177 -0.62437,-0.70565 -0.68473,-1.19068c-0.06921,-0.06922 -0.13843,-0.13843 -0.20765,-0.20764h-0.11791v-0.11791c-0.06964,-0.06964 -0.13926,-0.13926 -0.2089,-0.2089c0,0 -0.25187,-0.25187 -0.23488,-0.58203l-0.27474,-0.21979l0.01976,-0.02469l-0.08157,-0.03063c-0.81849,-1.01732 -1.27863,-2.19787 -2.0675,-3.2203c-0.25313,-0.32807 -0.53422,-0.63369 -0.80961,-0.9433c-0.04843,-0.05444 -0.11972,-0.13773 -0.19295,-0.22807c0.00371,0.22942 -0.05445,0.49527 -0.08787,0.69576c-0.20352,1.22113 -0.25702,2.40839 -0.27105,3.63439c0.70193,0.52882 1.18684,1.39872 1.44863,2.38106c0.3703,-0.31723 0.90332,-0.26413 1.66636,0.53701c0.75805,0.7959 0.17758,2.92115 -1.01234,3.1213c-0.06241,0.22112 -0.23539,0.52754 -0.71478,0.52754c-0.06295,0 -0.12061,-0.00529 -0.17343,-0.01497c-0.06014,0.13516 -0.12617,0.26501 -0.19813,0.38862c-0.3157,0.54228 -0.94211,0.9206 -1.69634,1.13654c0.06401,0.09696 0.12829,0.20296 0.19284,0.31841l-0.01873,0.10008c0.06597,0.15634 0.10668,0.3025 0.12521,0.43869c0.16548,0.07689 0.32993,0.16798 0.49284,0.2742c0.93376,0.60884 0.74166,2.43971 1.80448,2.96531l0.18947,0.16859c0.21221,0.13453 0.29281,0.31396 0.3141,0.47877c0.03723,0.15298 0.02947,0.33732 -0.09882,0.52785c-0.34488,0.77675 -0.68287,1.55183 -1.00947,2.32895c0.17293,0.2721 0.08932,0.60658 0.08932,0.60658c-0.74779,2.99048 -2.19647,5.70734 -2.70542,8.67422c-0.47268,2.7554 -0.27218,5.74733 -0.27218,8.57245c0,1.52381 0,3.04762 0,4.57143v0.28572c0,0 0,0.75 -0.75,0.75c-0.07957,0 -0.1507,-0.00844 -0.21429,-0.02354c-0.00099,0.00024 -0.00199,0.00047 -0.00299,0.0007c-0.11044,0.09643 -0.26909,0.16569 -0.49701,0.16569c-0.75,0 -0.75,-0.75 -0.75,-0.75v-0.14285c0,-3.34452 -0.14285,-6.66579 -0.14285,-10c0,-5.37219 -0.11002,-10.23158 -3.54994,-14.53148c0,0 -0.40894,-0.51118 0.01485,-0.96044c-0.02622,-0.08619 -0.05197,-0.21302 -0.03618,-0.34974c-0.00011,-0.00515 -0.00016,-0.01031 -0.00016,-0.01549c0,-0.15759 0.04861,-0.30384 0.13165,-0.42455l0.56574,-0.84861l0.08826,0.05884l0.09983,-0.1198c0.66787,-0.81918 1.45135,-1.30757 2.19133,-2.05335c0,0 0.11841,-0.11841 0.29928,-0.18738c0.0309,-0.28748 0.11166,-0.59072 0.15911,-0.88459c-0.88792,-0.2518 -1.6179,-0.71809 -1.90668,-1.3964c-0.04504,-0.1058 -0.08077,-0.21891 -0.1082,-0.33782c-1.15971,-0.20724 -1.995,-1.33978 -1.02658,-2.68355c0.03711,-0.0515 0.07704,-0.10022 0.11937,-0.14659l-0.02019,-0.01615l0.5671,-0.70887c0.03124,-0.03975 0.06641,-0.07626 0.10493,-0.10895c0.24372,-0.6188 0.55361,-1.13 0.93854,-1.5448c-0.29298,-1.58238 -0.69638,-3.02922 -1.20876,-4.5135c-0.19361,1.74802 -0.73801,4.17011 -1.14928,4.68783c-0.35357,0.44508 -0.86415,1.11463 -1.41062,0.95818c-0.14162,-0.04055 -0.25799,-0.12081 -0.3548,-0.22765c-0.22192,0.03143 -0.44342,0.0681 -0.66288,0.11328c-0.07791,0.10089 -0.15808,0.20126 -0.24056,0.3011c0,0 -0.25376,0.29604 -0.6088,0.27826c0.05565,0.34714 0.15069,0.7386 0.21346,1.12968c0.50126,0.33584 1.03188,0.81621 1.38478,1.05137l0.33397,0.7669c0,0 0,0.75 -0.75,0.75c-0.04486,0 -0.08704,-0.00269 -0.12669,-0.00773c-0.07732,0.3319 -0.37502,0.57915 -0.73046,0.57915c-0.14556,0 -0.28142,-0.04146 -0.39644,-0.11322l-0.70371,-0.42223l0.13342,-0.22237l-0.17124,-0.21406c-0.01198,-0.01212 -0.02388,-0.02423 -0.03574,-0.03633c-0.18865,-0.14369 -0.34563,-0.30707 -0.45441,-0.49317c-0.274,-0.31852 -0.50054,-0.62791 -0.67454,-0.92738c-0.40639,-0.00901 -0.73305,-0.34126 -0.73305,-0.74981c0,-0.08908 0.01552,-0.17452 0.04402,-0.25378l0.28018,-0.84053l0.05593,0.01864l-0.00323,-0.13988c0.19906,-0.24875 0.36834,-0.48303 0.53039,-0.68176c0.01752,-0.0731 0.03841,-0.14397 0.06187,-0.21127l0.09163,0.02336c0.02427,-0.02579 0.05034,-0.04987 0.07801,-0.07202c0.00426,-0.00423 0.00851,-0.00845 0.01277,-0.01262l-0.07475,-0.07475l0.71429,-0.71428c0.13572,-0.13573 0.32322,-0.21967 0.53033,-0.21967c0.11928,0 0.23204,0.02784 0.33217,0.07738l0.07533,-0.03229l-0.01888,-0.02361l0.25237,-0.20191c1.70146,-2.59519 1.75196,-5.81371 1.75441,-8.98859l0.03102,-0.05755l-0.02337,-0.00389l0.14083,-0.84498c0.02231,-0.15022 0.08917,-0.28591 0.18671,-0.3932c0.21874,-1.05854 0.45639,-1.88617 1.45335,-2.88313l0.57143,-0.57143c0.13572,-0.13573 0.32322,-0.21967 0.53033,-0.21967c0.17041,0 0.32754,0.05684 0.45348,0.15258c0.28018,-0.08068 0.55979,-0.11982 0.82143,-0.10506c-0.09598,-1.15901 -0.22518,-2.64642 -0.15246,-3.84377c-1.57225,0.20888 -3.09398,0.69296 -3.89495,1.38353c-0.29318,0.1037 -0.56638,0.32818 -0.71188,0.60303l-0.09393,0.10457c-0.04364,0.07769 -0.11806,0.15081 -0.24017,0.20502c-0.07975,0.03975 -0.1857,0.07061 -0.30246,0.04641c-0.1174,-0.0209 -0.20432,-0.08891 -0.2636,-0.15543c-0.08505,-0.08729 -0.12742,-0.17443 -0.14306,-0.25612c-1.16171,-2.94335 2.30149,-4.71702 5.50068,-5.48111c0.17218,-2.02167 0.87341,-3.55392 3.66935,-3.55392h0.33333c0,0 0.21302,-0.00001 0.36097,0.13903c0.07872,0.07398 0.13903,0.18732 0.13903,0.36097c0,0.92282 0,1.84564 0,2.76846c0.60853,0.16128 1.13417,0.40422 1.82028,0.51902l0.56182,0.2615c0.00534,0.00239 0.00817,0.0038 0.00817,0.0038zM242.43932,153.82271c-0.04805,-0.05104 -0.09517,-0.10229 -0.14116,-0.15373c0,0.04907 -0.00159,0.09805 -0.00465,0.14692c0.04726,-0.00156 0.09586,0.00064 0.1458,0.00682zM231.33426,166.92016c-0.0731,-0.01023 -0.14996,-0.0343 -0.22934,-0.0771c-0.04741,0.03603 -0.0949,0.07508 -0.14211,0.11776z" fill="#160831" stroke-opacity="0.52941" stroke="#ff0000" stroke-width="1.5"></path><path d="M244.15139,143.84724c0.00059,0.0003 0.00118,0.00061 0.00177,0.00091c1.14632,0.5921 3.18693,3.14984 2.49685,4.44776v0.44299c0,0.27614 -0.22386,0.5 -0.5,0.5c-0.21827,0 -0.40387,-0.13986 -0.47208,-0.33485c-0.08955,0.13485 -0.24281,0.22373 -0.41681,0.22373c-0.13807,0 -0.26307,-0.05596 -0.35355,-0.14644v0l-0.42562,-0.42562c-0.2321,-0.1743 -0.43645,-0.33865 -0.62635,-0.49041c-0.71021,-0.22656 -1.54128,-0.61893 -2.1387,-0.85727c-0.04548,0.93324 -0.17656,1.94536 -0.06932,2.48159c0.00152,0.37613 0.01458,0.76276 0.03427,1.15705c0.06299,0.04251 0.11332,0.09341 0.15354,0.1476c1.00706,-0.12714 2.2898,0.28585 2.67684,0.94007c0.28075,0.47457 0.09748,2.12112 0.17733,2.75016l0.04613,0.32252c0.25134,0.43958 0.51964,0.8653 0.821,1.25635c0.75975,1.09006 1.25689,2.51661 1.42516,3.8961c0.36372,0.49116 0.7306,0.95408 1.06351,1.3653v-0.07102c0.0861,0.12699 0.1757,0.2591 0.26799,0.40029c0.09495,0.11617 0.1858,0.22692 0.27147,0.33159l0.19366,0.44083c0.05737,0.10498 0.1152,0.21517 0.17332,0.33135c0.53044,1.06025 0.50652,2.50011 1.1144,3.52115c0.3827,0.64281 1.2158,0.48073 1.25487,1.53716c0.03249,0.87855 -1.01838,1.43336 -1.53266,2.14639l-0.85605,-0.34365c-0.09619,0.09214 -0.17818,0.1808 -0.25362,0.263c-0.13076,0.19626 -0.2605,0.39331 -0.38565,0.59289l-0.12304,0.73823c-0.0537,0.36151 -0.36537,0.63886 -0.74182,0.63886c-0.41422,0 -0.75,-0.33578 -0.75,-0.75v-0.85715h0.13251l0.02055,-0.1233l0.06059,0.0101c-0.002,-0.04501 -0.00218,-0.08882 -0.00049,-0.13165l-0.02412,-0.01429c0.00925,-0.01588 0.01857,-0.03177 0.02796,-0.04766c0.0376,-0.44468 0.29026,-0.78889 0.83263,-1.27107c0.03431,-0.05136 0.06844,-0.10278 0.10226,-0.15426c0.01831,-0.06676 0.04741,-0.13727 0.08977,-0.2114v-0.00001c0.05893,-0.10313 0.12485,-0.18059 0.19409,-0.23793c0.12446,-0.20721 0.23912,-0.41571 0.33705,-0.62582l-0.1461,-0.02435l0.00946,-0.0568c-0.11286,-0.01222 -0.22368,-0.03725 -0.33175,-0.0797c-0.12428,-0.04883 -0.28302,-0.31362 -0.43699,-0.63354c-0.40941,-0.33177 -0.62437,-0.70565 -0.68473,-1.19068c-0.06921,-0.06922 -0.13843,-0.13843 -0.20765,-0.20764h-0.11791v-0.11791c-0.06964,-0.06964 -0.13926,-0.13926 -0.2089,-0.2089c0,0 -0.25187,-0.25187 -0.23488,-0.58203l-0.27474,-0.21979l0.01976,-0.02469l-0.08157,-0.03063c-0.81849,-1.01732 -1.27863,-2.19787 -2.0675,-3.2203c-0.25313,-0.32807 -0.53422,-0.63369 -0.80961,-0.9433c-0.04843,-0.05444 -0.11972,-0.13773 -0.19295,-0.22807c0.00371,0.22942 -0.05445,0.49527 -0.08787,0.69576c-0.20352,1.22113 -0.25702,2.40839 -0.27105,3.63439c0.70193,0.52882 1.18684,1.39872 1.44863,2.38106c0.3703,-0.31723 0.90332,-0.26413 1.66636,0.53701c0.75805,0.7959 0.17758,2.92115 -1.01234,3.1213c-0.06241,0.22112 -0.23539,0.52754 -0.71478,0.52754c-0.06295,0 -0.12061,-0.00529 -0.17343,-0.01497c-0.06014,0.13516 -0.12617,0.26501 -0.19813,0.38862c-0.3157,0.54228 -0.94211,0.9206 -1.69634,1.13654c0.06401,0.09696 0.12829,0.20296 0.19284,0.31841l-0.01873,0.10008c0.06597,0.15634 0.10668,0.3025 0.12521,0.43869c0.16548,0.07689 0.32993,0.16798 0.49284,0.2742c0.93376,0.60884 0.74166,2.43971 1.80448,2.96531l0.18947,0.16859c0.21221,0.13453 0.29281,0.31396 0.3141,0.47877c0.03723,0.15298 0.02947,0.33732 -0.09882,0.52785c-0.34488,0.77675 -0.68287,1.55183 -1.00947,2.32895c0.17293,0.2721 0.08932,0.60658 0.08932,0.60658c-0.74779,2.99048 -2.19647,5.70734 -2.70542,8.67422c-0.47268,2.7554 -0.27218,5.74733 -0.27218,8.57245c0,1.52381 0,3.04762 0,4.57143v0.28572c0,0 0,0.75 -0.75,0.75c-0.07957,0 -0.1507,-0.00844 -0.21429,-0.02354c-0.00099,0.00024 -0.00199,0.00047 -0.00299,0.0007c-0.11044,0.09643 -0.26909,0.16569 -0.49701,0.16569c-0.75,0 -0.75,-0.75 -0.75,-0.75v-0.14285c0,-3.34452 -0.14285,-6.66579 -0.14285,-10c0,-5.37219 -0.11002,-10.23158 -3.54994,-14.53148c0,0 -0.40894,-0.51118 0.01485,-0.96044c-0.02622,-0.08619 -0.05197,-0.21302 -0.03618,-0.34974c-0.00011,-0.00515 -0.00016,-0.01031 -0.00016,-0.01549c0,-0.15759 0.04861,-0.30384 0.13165,-0.42455l0.56574,-0.84861l0.08826,0.05884l0.09983,-0.1198c0.66787,-0.81918 1.45135,-1.30757 2.19133,-2.05335c0,0 0.11841,-0.11841 0.29928,-0.18738c0.0309,-0.28748 0.11166,-0.59072 0.15911,-0.88459c-0.88792,-0.2518 -1.6179,-0.71809 -1.90668,-1.3964c-0.04504,-0.1058 -0.08077,-0.21891 -0.1082,-0.33782c-1.15971,-0.20724 -1.995,-1.33978 -1.02658,-2.68355c0.03711,-0.0515 0.07704,-0.10022 0.11937,-0.14659l-0.02019,-0.01615l0.5671,-0.70887c0.03124,-0.03975 0.06641,-0.07626 0.10493,-0.10895c0.24372,-0.6188 0.55361,-1.13 0.93854,-1.5448c-0.29298,-1.58238 -0.69638,-3.02922 -1.20876,-4.5135c-0.19361,1.74802 -0.73801,4.17011 -1.14928,4.68783c-0.35357,0.44508 -0.86415,1.11463 -1.41062,0.95818c-0.14162,-0.04055 -0.25799,-0.12081 -0.3548,-0.22765c-0.22192,0.03143 -0.44342,0.0681 -0.66288,0.11328c-0.07791,0.10089 -0.15808,0.20126 -0.24056,0.3011c0,0 -0.25376,0.29604 -0.6088,0.27826c0.05565,0.34714 0.15069,0.7386 0.21346,1.12968c0.50126,0.33584 1.03188,0.81621 1.38478,1.05137l0.33397,0.7669c0,0 0,0.75 -0.75,0.75c-0.04486,0 -0.08704,-0.00269 -0.12669,-0.00773c-0.07732,0.3319 -0.37502,0.57915 -0.73046,0.57915c-0.14556,0 -0.28142,-0.04146 -0.39644,-0.11322l-0.70371,-0.42223l0.13342,-0.22237l-0.17124,-0.21406c-0.01198,-0.01212 -0.02388,-0.02423 -0.03574,-0.03633c-0.18865,-0.14369 -0.34563,-0.30707 -0.45441,-0.49317c-0.274,-0.31852 -0.50054,-0.62791 -0.67454,-0.92738c-0.40639,-0.00901 -0.73305,-0.34126 -0.73305,-0.74981c0,-0.08908 0.01552,-0.17452 0.04402,-0.25378l0.28018,-0.84053l0.05593,0.01864l-0.00323,-0.13988c0.19906,-0.24875 0.36834,-0.48303 0.53039,-0.68176c0.01752,-0.0731 0.03841,-0.14397 0.06187,-0.21127l0.09163,0.02336c0.02427,-0.02579 0.05034,-0.04987 0.07801,-0.07202c0.00426,-0.00423 0.00851,-0.00845 0.01277,-0.01262l-0.07475,-0.07475l0.71429,-0.71428c0.13572,-0.13573 0.32322,-0.21967 0.53033,-0.21967c0.11928,0 0.23204,0.02784 0.33217,0.07738l0.07533,-0.03229l-0.01888,-0.02361l0.25237,-0.20191c1.70146,-2.59519 1.75196,-5.81371 1.75441,-8.98859l0.03102,-0.05755l-0.02337,-0.00389l0.14083,-0.84498c0.02231,-0.15022 0.08917,-0.28591 0.18671,-0.3932c0.21874,-1.05854 0.45639,-1.88617 1.45335,-2.88313l0.57143,-0.57143c0.13572,-0.13573 0.32322,-0.21967 0.53033,-0.21967c0.17041,0 0.32754,0.05684 0.45348,0.15258c0.28018,-0.08068 0.55979,-0.11982 0.82143,-0.10506c-0.09598,-1.15901 -0.22518,-2.64642 -0.15246,-3.84377c-1.57225,0.20888 -3.09398,0.69296 -3.89495,1.38353c-0.29318,0.1037 -0.56638,0.32818 -0.71188,0.60303l-0.09393,0.10457c-0.04364,0.07769 -0.11806,0.15081 -0.24017,0.20502c-0.07975,0.03975 -0.1857,0.07061 -0.30246,0.04641c-0.1174,-0.0209 -0.20432,-0.08891 -0.2636,-0.15543c-0.08505,-0.08729 -0.12742,-0.17443 -0.14306,-0.25612c-1.16171,-2.94335 2.30149,-4.71702 5.50068,-5.48111c0.17218,-2.02167 0.87341,-3.55392 3.66935,-3.55392h0.33333c0,0 0.21302,-0.00001 0.36097,0.13903c0.07872,0.07398 0.13903,0.18732 0.13903,0.36097c0,0.92282 0,1.84564 0,2.76846c0.60853,0.16128 1.13417,0.40422 1.82028,0.51902l0.56182,0.2615c0.00534,0.00239 0.00817,0.0038 0.00817,0.0038zM242.43932,153.82271c-0.04805,-0.05104 -0.09517,-0.10229 -0.14116,-0.15373c0,0.04907 -0.00159,0.09805 -0.00465,0.14692c0.04726,-0.00156 0.09586,0.00064 0.1458,0.00682zM231.33426,166.92016c-0.0731,-0.01023 -0.14996,-0.0343 -0.22934,-0.0771c-0.04741,0.03603 -0.0949,0.07508 -0.14211,0.11776z" fill="#160831" stroke="none" stroke-width="0.5"></path><g fill-opacity="0.21961" fill="#ff0000" stroke="none" stroke-width="0.5"><path d="M236.44295,177.75932c0.12061,0.08102 0.29879,0.16806 0.50561,0.26144l0.03857,0.00593l-0.00164,0.01067c0.10616,0.04756 0.21918,0.09674 0.33535,0.14759c0.72309,0.0082 1.48839,0.07554 2.06232,0.27016c-0.04838,-1.57665 -0.09969,-3.13461 -0.1057,-4.6414c-0.18105,-0.03268 -0.33951,-0.13035 -0.45035,-0.26798l-0.68833,-0.8413l0.00368,-0.00302l-0.01359,-0.00934c-0.0059,-0.00787 -0.0118,-0.01573 -0.0177,-0.02358c-0.02697,0.00218 -0.05504,0.00332 -0.08424,0.00332c-0.43201,0 -0.61518,-0.24884 -0.69284,-0.45986c-0.62292,-0.62893 -1.16803,-1.21727 -1.67091,-1.85372c-0.07346,-0.07995 -0.14336,-0.15759 -0.20919,-0.23189l-0.05584,0.06824l-0.8413,-0.68833c-0.1707,-0.13747 -0.27992,-0.3482 -0.27992,-0.58444c0,-0.24219 0.1148,-0.45757 0.29295,-0.59469c-0.0106,-0.16688 0.04234,-0.35895 0.23441,-0.55102c0.39949,-0.39949 0.79897,-0.19712 0.97178,-0.07295c0.23595,0.03089 0.41169,0.17148 0.41169,0.17148c0.35395,0.28482 0.72127,0.58992 1.10374,0.87052c0.55681,0.12994 0.99069,0.32038 1.37145,0.62793c0.00832,-0.03404 0.0172,-0.06805 0.02653,-0.10202c0.21606,0.10726 0.47914,0.18084 0.7514,0.2167c0.43584,0.18059 0.90892,0.29155 1.27304,0.26808c0.0685,3.5217 0.36698,7.01195 0.37072,10.5506v0.38461c0,0 0,0.24972 -0.14409,0.46096c0.05274,2.8803 0.01287,5.76256 -0.39958,8.47341c-0.08462,1.02147 -0.19325,1.9737 -0.39398,2.98195l0.01457,0.23752c0,0 0,0.22779 -0.12554,0.4323c0.00233,0.06062 0.00458,0.12124 0.00674,0.18186c0.12489,2.29073 0.05269,4.65433 0.04196,6.7525c-0.00001,0.00994 -0.00002,0.01987 -0.00003,0.02981c0.00751,0.52889 0.66309,2.71495 0.47305,2.96612c-0.23744,0.31382 -0.71784,0.22235 -1.14846,0.21393c-0.10898,0.02998 -0.21652,0.0286 -0.30799,0.01536c-0.01502,-0.00188 -0.06361,-0.0089 -0.12826,-0.02773c-0.06472,-0.01861 -0.10954,-0.03861 -0.12324,-0.04504c-0.17313,-0.07722 -0.37676,-0.23275 -0.41439,-0.54142l-0.15846,-0.20844c0,-1.01055 -0.01443,-2.02448 -0.02536,-3.03914c-0.14513,-1.3866 -0.01969,-2.8572 0.01637,-4.29787c-0.21633,-0.13734 -0.31499,-0.36755 -0.31499,-0.36755l-0.29141,-0.8339c0,-0.25857 0.02841,-0.51495 0.07576,-0.76923h-0.07576v-1.07692c0,-0.37023 0.26826,-0.67781 0.62101,-0.73895c-0.24034,-2.50715 -1.02184,-4.88015 -1.30959,-7.34026c0,0 -0.0093,-0.09301 0.0115,-0.21664c-0.29539,-0.81539 -0.60941,-1.62893 -0.96158,-2.50252c0,0 -0.10003,-0.25007 -0.03035,-0.51043c-0.49271,-0.70913 -1.08384,-1.40792 -1.43201,-2.10701l-0.0015,-0.06688l-0.0197,0.00591l-0.22576,-0.75253c-0.02379,-0.07312 -0.03664,-0.15115 -0.03664,-0.2322c0,-0.41422 0.33578,-0.75 0.75,-0.75c0.10819,0 0.21103,0.0229 0.30394,0.06414l0.9076,0.37816l-0.05306,0.12735z"></path><path d="M238.90305,165.54191c-0.02535,-0.03033 -0.03861,-0.05022 -0.03861,-0.05022l0.00239,-0.00097c-0.05097,-0.07714 -0.07471,-0.13652 -0.07471,-0.13652c-0.00428,-0.01137 -0.00849,-0.02275 -0.01265,-0.03412c-0.13523,-0.02613 -0.26493,-0.06324 -0.38929,-0.11046c-0.02914,0.38757 -0.35283,0.69297 -0.74786,0.69297c-0.32193,0 -0.5965,-0.20284 -0.70285,-0.48768l-0.3012,-0.75301l0.16589,-0.06636c-0.42557,-0.66674 -0.7926,-1.4042 -1.06784,-2.16674c-0.09823,1.68302 -0.41623,3.92598 -1.37709,4.75644c-0.84957,0.73427 -1.25822,0.26336 -2.12221,0.35257c-0.19924,0.02057 -0.2171,0.5212 -0.20073,0.96747c0.81704,0.32393 1.60833,0.63337 1.68199,0.7557c0.41315,0.68616 -0.36887,2.51895 -1.22871,2.63755c-1.09429,0.15095 -3.00546,-2.60928 -3.59312,-3.3624c0,0 -0.20515,-0.26376 -0.16552,-0.57611l-0.14935,-0.32856c-0.04736,-0.09832 -0.07388,-0.20857 -0.07388,-0.32501c0,-0.41422 0.33578,-0.75 0.75,-0.75c0.17165,0 0.32984,0.05767 0.45624,0.15469c0.12461,-0.11397 0.28593,-0.2183 0.4685,-0.31308c0.02307,-0.02364 0.04769,-0.04576 0.07369,-0.0662l0.76382,-0.61105l0.01559,0.01948c0.03051,-0.03174 0.06198,-0.06265 0.09452,-0.09265c0.41479,-0.38237 1.75782,-0.18473 1.97674,-0.86739c0.26273,-0.81928 0.32272,-1.83222 0.58791,-2.69436l0.37335,-0.69c0,0 0.07228,-0.12651 0.2089,-0.23614c0.00005,-0.02942 0.00003,-0.05746 -0.00002,-0.08407c0,0 0,-0.6077 0.54702,-0.72906c0.00618,-0.04067 0.01563,-0.08028 0.02808,-0.11853l0.21562,-0.71873l0.1442,-0.72099c0.02892,-0.16102 0.10924,-0.3042 0.22337,-0.41196c0.0229,-0.23144 0.07623,-0.46815 0.15045,-0.70745c-0.00051,-0.04468 -0.00086,-0.0886 -0.00104,-0.13174c0,0 0,-0.3939 0.28546,-0.61078c0.35044,-0.79141 0.8195,-1.58059 1.0717,-2.27247l0.00836,-0.00901l-0.00419,-0.00168l0.3012,-0.75301c0.10636,-0.28484 0.38091,-0.48767 0.70284,-0.48767c0.32647,0 0.60423,0.2086 0.70725,0.49979c0.19458,0.12273 0.3288,0.33244 0.34805,0.57454l0.07623,0.83853l-0.00634,0.00058l0.00683,0.08196l-0.11242,0.00937l0.11437,0.02174c-0.00137,0.10247 0.001,0.20429 0.0067,0.30553c0.31044,0.874 0.52769,1.78717 0.67788,2.71698c0.15869,0.49174 0.30404,0.98816 0.38264,1.49982c0.10477,0.68204 0.01102,1.41724 -0.07997,2.14538c0.00879,0.40516 0.01133,0.80797 0.00975,1.2066l-0.0382,0.06772l0.02729,0.00546l-0.10237,0.51189c0.02687,0.31788 0.09219,0.62287 0.21714,0.90864c0,0 0.00888,0.02221 0.01951,0.06027c0.04728,0.14241 0.07684,0.34346 -0.02062,0.54066c-0.01086,0.02504 -0.02359,0.0499 -0.03843,0.07439c0.06265,0.0291 0.11551,0.06571 0.16011,0.10677c-0.48931,0.01737 -1.04037,0.06412 -1.24874,0.06412c0,0 -0.02302,-0.00001 -0.05918,0.00493c-0.03662,-0.03496 -0.06802,-0.07146 -0.09444,-0.10636zM232.33351,170.40666c-0.05546,0.09318 0.24414,-0.34857 0.1559,-0.28553c-0.03424,0.02446 -0.06934,0.04619 -0.10522,0.0653c-0.00747,0.05049 -0.01998,0.09935 -0.03699,0.14603c0.00232,0.02964 -0.002,0.05456 -0.01369,0.0742z"></path><path d="M238.82089,151.41216c-0.18733,-0.05353 -0.31209,-0.14181 -0.39416,-0.24318c-0.07705,0.02674 -0.15981,0.04126 -0.24596,0.04126c-0.22669,0 -0.42988,-0.10057 -0.56741,-0.25952c-0.12195,-0.10551 -0.20953,-0.24967 -0.2437,-0.41344l-0.22738,-0.98532l0.1408,-0.03249c-0.09734,-0.32131 -0.15828,-0.64916 -0.16001,-0.9823v-0.69231c0,0 0,-0.23467 0.13127,-0.44148c-0.00117,-0.03873 -0.00156,-0.07712 -0.00113,-0.1151c-0.27801,0.00749 -0.56562,0.05242 -0.85725,0.11903c-1.1082,0.57834 -2.25195,1.09152 -3.37575,1.69176l-0.15587,-0.03376l0.00643,0.06429l-0.33649,0.03365c-0.15464,0.13944 -0.53749,0.39524 -0.98229,0.03131c-0.28292,-0.23147 -0.31512,-0.48802 -0.2738,-0.69021c-0.00084,-0.01459 -0.00127,-0.0293 -0.00127,-0.0441c0,-0.24849 0.12084,-0.46876 0.30698,-0.60523l0.36345,-0.27258c1.37414,-1.39952 3.04447,-2.101 5.07958,-2.10295h0.76923c0.12374,0 0.24047,0.02997 0.34335,0.08303c0.68519,0.01107 1.36066,0.04038 2.05747,0.11264l0.12121,0.15589l0.04784,-0.07176l0.68263,0.45508c0.20677,0.13354 0.34366,0.36603 0.34366,0.63049c0,0.41422 -0.33578,0.75 -0.75,0.75c-0.05945,0 -0.11729,-0.00691 -0.17275,-0.01999l-0.25064,-0.05371c-0.05301,0.90403 -0.20121,1.79933 -0.29188,2.70602l-0.17899,0.66987c0,0 -0.20603,0.72115 -0.92718,0.51511z"></path></g><path d="M237.48183,147.92182c0.30442,-0.51579 0.86589,-0.86182 1.50818,-0.86182c0.9665,0 1.75,0.7835 1.75,1.75c0,0.21449 -0.03859,0.41996 -0.1092,0.60986c0.68499,1.95643 0.71687,4.5022 -0.30818,5.68408c1.40753,1.90676 1.78017,4.84646 -0.09126,5.75643c-1.6103,0.78299 -2.38464,-0.95584 -3.05908,-2.10943c-0.65111,0.59292 -0.98693,0.89444 -1.94419,0.78983c-1.93969,-0.21196 -1.75266,-1.68224 -0.70482,-2.98568c0.17723,-1.24322 1.16593,-2.51081 2.2604,-3.05805l0.00975,-0.01706c0.05362,-0.01341 0.10707,-0.0251 0.16035,-0.03515c-0.54183,-2.13658 -0.30228,-5.04853 0.52805,-5.52301z" fill-opacity="0.53333" fill="#150830" stroke="none" stroke-width="0.5"></path><path d="M241.18792,183.55167c-1.53367,3.06735 -5.20927,-1.74861 -5.09367,-3.96594c-0.789,-0.49982 -1.26776,-1.06851 -1.12181,-1.60368c-0.03619,-0.14019 -0.05544,-0.28719 -0.05544,-0.43868c0,-0.9665 0.7835,-1.75 1.75,-1.75c0.13545,-0.10487 0.36571,-0.05576 0.63557,0.07169c0.14223,-0.5823 0.26818,-1.17079 0.61492,-1.64464c2.17197,-2.9682 4.1917,0.73363 3.6548,3.39026c1.36235,0.31395 2.46108,0.89347 1.41617,2.72206c-0.27697,0.4847 -0.96783,0.69367 -1.83485,0.70431c0.26895,1.00549 0.29475,1.99375 0.03431,2.51461z" fill-opacity="0.53333" fill="#150830" stroke="none" stroke-width="0.5"></path><path d="M238.86553,174.73256c0.215,-0.0399 0.33958,-0.23923 0.33958,-0.23923c0.3377,-0.55603 0.43908,-0.56689 1.02887,-0.62627l0.07763,0.06654c0.00176,0.0389 0.00015,0.08274 -0.00821,0.12816c2.20699,1.52875 2.22239,5.58565 0.40822,7.41622c0,0 -0.01211,0.0121 -0.03407,0.02959c0.00445,0.05048 0.00153,0.10677 -0.01101,0.16946c-0.09806,0.49029 -0.58835,0.39223 -0.58835,0.39223l-0.61374,-0.15245c-1.41211,-0.85948 -1.42457,-1.82038 -1.42457,-3.33784c0.001,-0.69198 0.18543,-2.81851 0.82564,-3.84641z" fill="#0a0610" stroke="none" stroke-width="0.5"></path><path d="M242.40667,167.41c0.51074,3.04659 -5.77591,2.77033 -5.04377,-0.15825c-0.0367,-0.14111 -0.05623,-0.28914 -0.05623,-0.44174c0,-0.03204 0.00087,-0.06388 0.00257,-0.09549c0.03981,-0.968 0.4914,-1.41743 1.111,-1.53518c0.19725,-0.07704 0.41191,-0.11933 0.63644,-0.11933c0.42816,0 0.8204,0.15376 1.12453,0.40908c1.10118,0.46108 2.12166,1.32169 2.22547,1.94092z" fill-opacity="0.53333" fill="#150830" stroke="none" stroke-width="0.5"></path><g stroke="none" stroke-width="0.5"><path d="M241.38997,179.93226c0,0 0,0.35845 -0.20105,0.40867c-0.00836,0.0254 -0.01699,0.05093 -0.02588,0.07658c-0.28107,1.36236 -1.27133,1.71005 -1.93166,0.69272c-0.09362,-0.04305 -0.14923,-0.18135 -0.14923,-0.18135c-0.08022,-0.1995 -0.14907,-0.39281 -0.2074,-0.57967l-0.02383,-0.05926c0,0 -0.02441,-0.06072 -0.03739,-0.1482c-0.73102,-2.63126 0.67011,-3.89496 1.62942,-3.01363c0.68403,0.12995 0.87576,0.83795 0.92806,1.82584c0.01449,0.121 0.01913,0.24866 0.01376,0.38241c0.00417,0.19123 0.00521,0.39045 0.00521,0.59589z" fill="#ff0000"></path><path d="M239.19351,176.97173c0.71806,-0.64624 1.19162,-0.24389 1.2315,0.32274c0.02852,-0.00114 0.05681,-0.00164 0.0848,-0.0015l0.1065,0.12409l0.03254,-0.03661l0.1099,0.09769l0.11485,0.03713c0,0 0.26128,0.13064 0.28457,0.39191c0.02164,0.05594 0.03349,0.11673 0.03349,0.1803c0,0.27614 -0.22386,0.5 -0.5,0.5c-0.00328,0 -0.00655,-0.00003 -0.00982,-0.00009c0.04771,0.28406 -0.06139,0.59682 -0.27793,0.8971l0.16145,0.14351l-0.33167,0.37313c-0.09162,0.10405 -0.22583,0.16969 -0.37536,0.16969c-0.25295,0 -0.46204,-0.18784 -0.49537,-0.43165l-0.08215,-0.534l0.02657,-0.00408l-0.03238,-0.07507c0.02246,-0.14429 0.04492,-0.28859 0.06737,-0.43288c-0.01212,-0.00396 -0.02445,-0.0084 -0.03698,-0.01331c-0.08508,-0.02867 -0.18233,-0.08255 -0.24751,-0.18373c-0.06833,-0.09908 -0.08065,-0.20956 -0.0744,-0.29913c0.00004,-0.00186 0.00008,-0.00371 0.00014,-0.00555c-0.41884,-0.16333 -0.56166,-0.52535 0.20988,-1.21971z" fill="#14072e"></path><path d="M240.59482,178.24004c0.11156,-0.07717 0.27393,-0.12302 0.48712,-0.01642c0.44721,0.2236 0.2236,0.67082 0.2236,0.67082l-0.5245,0.35846c-0.66477,-0.04748 -1.18126,-0.06547 -1.79628,-0.33521c0,0 -0.45518,-0.2069 -0.24828,-0.66208c0.2069,-0.45519 0.66209,-0.24828 0.66209,-0.24828c0.40713,0.19446 0.77294,0.21033 1.19625,0.23272z" fill-opacity="0.72549" fill="#14072e"></path><path d="M240.73176,180.33422c-0.3682,0.13111 -0.85432,0.00248 -1.25362,0.03743c-0.09024,0.13041 -0.24087,0.21585 -0.41146,0.21585c-0.27614,0 -0.5,-0.22386 -0.5,-0.5v-0.5c0,-0.07189 0.01775,-0.15122 0.049,-0.22764c-0.16953,-0.17389 -0.12553,-0.43788 -0.12553,-0.43788l0.08199,-0.49189c0.0358,-0.24101 0.24358,-0.42591 0.49454,-0.42591c0.27614,0 0.5,0.22386 0.5,0.5v0.5h-0.07644l-0.00055,0.00333c0.00252,0.01007 0.005,0.02015 0.00742,0.03024c0.50002,0.12787 1.13135,0.44672 0.81357,0.1331h-0.03566v-0.70834v0c0,-0.27614 0.22386,-0.5 0.5,-0.5c0.22492,0 0.41515,0.14852 0.47799,0.35283l0.16302,0.48906l-0.10859,0.03619c0.09162,0.18451 0.156,0.37772 0.17418,0.5804l-0.20803,0.61959c0,0 -0.16789,0.37774 -0.54182,0.29365z" fill-opacity="0.35294" fill="#14072e"></path><path d="M240.76181,180.48889c0.2236,0.11181 0.1118,0.33541 0.1118,0.33541l-0.12258,0.24516c-0.04009,0.08456 -0.12623,0.14304 -0.22603,0.14304c-0.13807,0 -0.25,-0.11193 -0.25,-0.25v-0.07738l-0.02146,0.00919l-0.12282,-0.28659c-0.01438,-0.03155 -0.02239,-0.06662 -0.02239,-0.10356c0,-0.13807 0.11193,-0.25 0.25,-0.25c0.07981,0 0.15089,0.0374 0.19666,0.09563l0.08623,0.10779c0.03573,0.00003 0.07593,0.00898 0.12058,0.03131z" fill="#ffecec"></path><path d="M239.71477,180.41759c0.03505,-0.02309 0.08164,-0.03842 0.14357,-0.03842c0.25,0 0.25,0.25 0.25,0.25v0.45833c0,0.13807 -0.11193,0.25 -0.25,0.25c-0.05981,0 -0.11471,-0.021 -0.15773,-0.05602l-0.20678,-0.16542l0.04168,-0.0521l-0.12527,-0.07232c0.02864,-0.13329 0.05729,-0.26657 0.08593,-0.39986c0,0 0.05681,-0.17045 0.2186,-0.17419z" fill="#ffecec"></path><path d="M240.275,177.50417c0,-0.13807 0.11193,-0.25 0.25,-0.25c0.13807,0 0.25,0.11193 0.25,0.25c0,0.13807 -0.11193,0.25 -0.25,0.25c-0.13807,0 -0.25,-0.11193 -0.25,-0.25z" fill="#ffecec"></path></g><path d="M237.92724,133.52448c0.03837,0.0062 0.06982,0.01741 0.09556,0.03191c0.02482,-0.04188 0.06143,-0.07563 0.1049,-0.09705l0.38399,-0.19727l0.04443,0.08649c0.66571,-0.39751 1.33071,-0.40645 1.91137,-0.1619c0.88044,0.03389 1.67147,0.27622 1.64845,1.02583c-0.02066,0.26756 -0.03144,0.53457 -0.03485,0.80118c0.16586,0.45666 0.24321,0.95356 0.20509,1.44718c-0.03012,0.38998 -0.06024,0.77996 -0.09036,1.16995c0.07901,1.18983 0.13899,2.38089 -0.04789,3.58598c-0.00565,0.07246 -0.01426,0.14297 -0.02569,0.21153c-0.08237,1.11736 -0.44456,1.99923 -1.79175,1.89518c-0.17065,-0.01318 -0.32319,-0.03729 -0.46389,-0.0744c-1.2547,0.05274 -2.53464,-0.7096 -2.4148,-2.26134c0.18162,-2.35158 -0.00208,-4.72856 0.03215,-7.08869c0,0 0.00291,-0.19823 0.18006,-0.23905c0.03231,-0.06944 0.10553,-0.161 0.26323,-0.13552zM241.38455,133.85053c0.0835,0.09127 0.16248,0.18847 0.2364,0.29073c0.00631,-0.12946 -0.0835,-0.22372 -0.2364,-0.29073z" fill="#13072c" stroke="none" stroke-width="0.5"></path></g></g></g></svg>