<svg version="1.1" xmlns="http://www.w3.org/2000/svg" xmlns:xlink="http://www.w3.org/1999/xlink" width="548" height="359" viewBox="0,0,548,359"><g transform="translate(34,-1)"><g stroke="none" stroke-miterlimit="10"><g stroke-width="0.5"><path d="M220.12267,141.26699c2.23607,1.11803 1.11803,3.3541 1.11803,3.3541l-0.55009,1.07443c0.30227,0.41332 0.48069,0.92293 0.48069,1.4742c0,0.55242 -0.17917,1.06298 -0.48257,1.47677l-1.56374,2.18924c-1.95977,3.95973 -4.04267,10.89603 -7.97737,13.92551c-0.39197,0.87895 -0.7989,1.75001 -1.27099,2.58751c-0.3066,0.94189 -0.68541,1.8178 -1.22409,2.56049c0.00483,0.22576 0.01904,0.45279 0.04325,0.68108l1.12435,1.9676c0.22304,0.37408 0.35117,0.81131 0.35117,1.27847c0,1.38071 -1.11929,2.5 -2.5,2.5c-0.85068,0 -1.60213,-0.42488 -2.0537,-1.07402l-1.6473,-2.30622l0.18241,-0.1303c-0.21028,-0.21728 -0.40242,-0.45215 -0.57162,-0.70926c-0.49696,-0.75517 -0.2293,-2.20096 0.25764,-3.67617c0.00733,-0.2979 0.06677,-0.58288 0.16954,-0.84616l0.13546,-0.37252c0.46555,-2.26215 1.41828,-4.2972 2.58425,-6.29359c1.65694,-4.64183 3.53403,-9.34317 6.42466,-13.29125c0.12853,-0.24369 0.31615,-0.52441 0.58013,-0.76441c0.5938,-0.7546 1.22861,-1.47816 1.91043,-2.16454l1.12537,-2.32292c0,0 1.11803,-2.23607 3.3541,-1.11803z" fill="#6390d6"></path><path d="M202.50464,177.83639l0.1903,-3.62338c0.62539,-0.68942 1.29052,-1.34171 1.98389,-1.96485c0.08367,-0.23934 0.20753,-0.49596 0.3909,-0.73126l1.07355,-1.87873c0.42441,-0.77572 1.24812,-1.30179 2.19469,-1.30179c1.38071,0 2.5,1.11929 2.5,2.5c0,0.32934 -0.06368,0.64381 -0.17941,0.93176l-0.94312,2.51497c-0.11849,0.48103 -0.06169,1.08253 -0.21081,1.54252c0,0.00358 0,0.00717 0,0.01075v3c0,1.38071 -1.11929,2.5 -2.5,2.5c-0.81791,0 -1.54408,-0.39278 -2.00018,-1c-2.49982,-0.00012 -2.49982,-2.5 -2.49982,-2.5z" fill="#baafcc"></path></g><g fill="none" stroke-width="0"><path d="M-34,360v-359h34v359z"></path><path d="M480,360v-359h34v359z"></path></g><g stroke-width="0.5"><path d="M203.82963,211.02601c-1.42234,-1.23592 -2.54664,-2.90142 -3.77883,-4.31556c0,0 -0.55124,-0.63299 -0.37453,-1.37216c-0.04844,-0.1757 -0.05757,-0.30024 -0.05757,-0.30024l-0.01689,-0.61294c-0.01872,-0.01747 -0.03756,-0.0348 -0.05651,-0.05208c0.01632,-0.0758 0.03261,-0.15161 0.04883,-0.22744l-0.01145,-0.41566c0.60594,-2.86534 0.33628,-5.84794 0.91173,-8.68988c0.88677,-4.37943 1.78192,-8.74415 2.23028,-13.2106c-0.17168,-0.194 -0.34555,-0.38625 -0.52201,-0.57645c0,0 -1.05051,-1.13282 0.08231,-2.18331c0.50403,-0.46741 0.99177,-0.5026 1.37795,-0.39764c0.00335,-0.02635 0.00669,-0.0527 0.01003,-0.07904c0.05266,0.04658 0.10635,0.09202 0.16095,0.1365c0.38578,0.1544 0.6344,0.42252 0.6344,0.42252c0.03353,0.03617 0.06697,0.07241 0.10033,0.10873c0.52758,0.35315 1.06946,0.6917 1.50732,1.14373c0.90403,0.93328 1.37822,1.88232 1.79625,2.87242c0.35509,0.45974 0.70883,0.9198 1.06481,1.37705c-0.03497,0.28132 -0.07001,0.56266 -0.10509,0.84399c0.03325,0.06639 0.06736,0.13303 0.10235,0.19989c2.3331,4.45578 6.23765,8.1352 9.38618,11.92711c1.89844,2.93416 4.6387,4.42545 7.11437,6.71416c4.06139,3.75468 7.83825,8.15214 11.26289,12.52998c1.85447,1.45991 3.10841,3.27539 5.13544,5.14052c2.14292,1.97181 4.99682,3.37294 6.78739,5.7031c1.91808,2.49612 4.00413,4.36765 6.15201,6.72264c1.68153,1.84367 2.87784,4.04344 4.62665,5.85092c5.79628,6.42363 10.23444,13.3776 16.24269,19.59417l0.84574,0.20823c0,0 0.48437,0.19949 0.77285,0.64818c1.40526,0.37362 1.08385,1.82127 1.08385,1.82127c-0.02512,0.11304 -0.04994,0.22596 -0.07448,0.3388c0.23848,0.97177 0.22591,2.28328 0.07019,3.44545c0.41752,0.88904 0.10976,2.17744 0.33123,3.04582c0.31469,1.23388 0.66825,2.4588 0.93609,3.70369c0.5681,2.64047 1.63959,5.69973 2.55154,8.24059c0.03056,0.08516 0.06354,0.16786 0.09857,0.24848c0.6854,0.65708 1.35044,1.28191 1.92339,1.85644c0.24578,0.21572 0.49646,0.55047 0.50561,1.02225c0.00686,0.06497 0.00926,0.13195 0.00598,0.20059l0.21894,0.05564c0.64379,0.1476 1.14428,0.70039 1.19497,1.39352c0.06222,0.85098 -0.57721,1.59125 -1.42819,1.65347l-1.54083,0.11264l-0.03147,-0.43028l-0.19283,-0.04898l-0.72633,0.23636c-0.0944,-0.18206 -0.19403,-0.36393 -0.29757,-0.54581c-0.022,-0.00173 -0.04441,-0.00517 -0.06723,-0.01039c-1.28814,-0.29511 -1.95133,-1.87875 -3.17816,-2.36996c-2.01835,-0.80812 -3.85497,-1.26775 -5.79957,-2.28892l-0.85897,-1.00064c0,0 -0.39246,-0.65976 -0.15902,-1.32579c-0.11931,-0.05319 -0.23953,-0.105 -0.3607,-0.15528c-3.99501,-1.65828 -9.09895,-1.38537 -13.32978,-1.07607c0,0 -0.0626,0.00458 -0.16351,-0.00073c-0.30477,-0.00401 -0.71972,-0.07925 -1.04051,-0.39845c-0.20041,-0.18404 -0.36401,-0.45178 -0.42751,-0.84092l-0.67771,-0.60863c-1.39792,-1.81148 -1.84519,-4.21652 -3.27667,-5.91026c-1.14524,-1.35506 -2.85376,-2.0958 -3.88667,-3.60487c-1.02538,-1.49809 -1.64059,-3.3355 -2.74397,-4.82008c-0.70061,-0.94267 -1.81872,-1.50748 -2.57066,-2.40976c-1.13981,-1.36768 -2.10463,-2.9638 -3.2423,-4.38038c-0.22662,-0.1917 -0.36083,-0.43937 -0.43986,-0.65274c-0.05179,-0.11868 -0.0984,-0.25774 -0.12337,-0.40997c-0.17878,-0.34877 -0.35753,-0.69755 -0.53629,-1.0463c-1.37193,-1.76708 -3.40625,-2.86215 -4.72621,-4.67268c-1.1487,-1.57562 -1.85032,-3.53301 -2.85956,-5.18313c-1.05678,-1.72788 -3.01593,-2.19617 -3.92559,-4.10586c-0.26254,-0.55113 -0.14047,-1.228 -0.37017,-1.79361c-0.61862,-1.52336 -2.15048,-2.60715 -3.03257,-3.91531c-1.45394,-2.15619 -2.54983,-3.52069 -4.43799,-5.42119c0,0 -0.636,-0.64084 -0.44569,-1.42892c-0.24026,-0.26561 -0.47434,-0.53968 -0.70051,-0.82483c-0.70573,-0.88972 -0.91005,-2.10026 -1.57438,-3.0213c-0.71455,-0.99067 -2.13794,-1.18423 -3.23578,-1.71974c-2.10353,-3.01624 -5.25472,-5.01607 -7.60039,-7.82849c-0.6456,-0.77405 -1.22682,-1.59772 -1.77861,-2.44414c-0.16991,-0.12614 -0.33392,-0.25604 -0.48966,-0.39138z" fill="#f0bcd4"></path><path d="M202.9639,184.07451c-0.23779,0 -0.44126,-0.03293 -0.61538,-0.08928c-0.29195,0.93868 -0.59203,1.88048 -0.8967,2.83039l-0.52719,0.92248c0.02215,0.63419 0.04429,1.26839 0.06643,1.90257l-0.65104,0.43721c0.03673,0.40187 -0.03421,0.85811 -0.3017,1.35057c-0.15762,0.3538 -0.41072,0.72689 -0.81503,0.96285c-0.48801,1.27721 -1.88854,1.32223 -1.88854,1.32223l-0.00004,0.00002l-0.31302,0.01007c-1.10268,1.1284 -2.23782,0.43851 -2.67493,0.08974c-1.51144,0.00407 -3.17865,-0.15088 -3.85622,-0.93391c-0.86311,-0.99744 -0.47131,-2.70795 -0.68329,-4.06641c-0.40299,-2.58283 -0.42058,-5.15279 -0.51167,-7.76173c0,0 -0.01033,-0.29551 0.07027,-0.68088c-0.81181,-1.34272 -1.71994,-2.84731 -1.78108,-3.09256c-0.58684,-2.35396 -0.79024,-4.94465 -0.26956,-7.3057c0.35623,-1.61535 0.83173,-2.41556 1.42577,-3.22629c-0.04753,-0.1192 -0.08975,-0.2413 -0.12572,-0.36676c-1.27893,-4.46168 0.98465,-8.63508 3.77102,-11.86327l-0.31524,-0.22875l1.55185,-2.65956c0.22165,-0.39108 0.54475,-0.70477 0.93035,-0.89473c0.60351,-1.87248 1.17625,-3.74499 1.70361,-5.56353c0.0382,-0.13175 0.07592,-0.26313 0.11316,-0.39416c0.31187,-1.54592 0.70039,-3.07441 1.19386,-4.54633c1.1149,-4.42146 2.17241,-8.51982 4.77203,-12.70347c0,0 0.79234,-1.26422 2.02301,-1.02962c0.02642,-0.06578 0.05302,-0.13144 0.07984,-0.19699l0.83425,-2.31357c0.2921,-0.86617 1.03193,-1.49203 1.91922,-1.52055c1.12847,-0.03627 2.08635,0.90678 2.20609,2.13604c0.37227,-0.55371 0.96075,-0.91942 1.63416,-0.94107c0.63261,-0.02033 1.21161,0.26709 1.6194,0.74019c0.02263,-0.00152 0.04535,-0.00265 0.06816,-0.00338c1.17872,-0.0379 2.17133,0.9927 2.21704,2.30191c0.0139,0.39815 -0.06137,0.77621 -0.20603,1.11065l-0.18972,0.4635c0.47201,1.09041 0.7061,2.3433 0.81593,3.55938c1.22176,0.42757 1.479,1.42831 1.49388,2.14363l0.42801,0.41072c0.54097,-0.20841 1.09129,-0.40368 1.6052,-0.65018l-0.09098,1.63335l0.71384,0.274l-0.54123,1.29842c1.09306,0.70315 0.51139,1.93113 0.51139,1.93113c-2.97293,6.26617 -7.06174,12.0057 -9.2424,18.53278c-0.052,0.1873 -0.111,0.37242 -0.17998,0.55445c-0.0132,0.04187 -0.0263,0.08378 -0.03934,0.12573c0.05749,0.16091 0.08871,0.33354 0.08871,0.51315c0,0.29548 -0.08446,0.57202 -0.23146,0.80863l-0.40917,0.68712c-0.05621,0.23606 -0.10959,0.47329 -0.16003,0.71175l-0.11274,0.11243l0.0632,0.02426l-0.7181,1.72274c-0.13649,0.35079 -0.39909,0.64259 -0.73487,0.82463c-0.3313,0.89929 -0.63335,1.7723 -0.95133,2.64623l0.31235,0.03746l-0.36347,2.79028c-0.04822,0.41946 -0.26741,0.7895 -0.58923,1.04453c0.13143,1.38574 0.32063,2.77575 0.22746,3.83c-0.26943,3.04844 -1.83422,5.15963 -1.82529,8.30286v0.35138c0,0 0,1.58124 -1.64781,1.58124z" fill="#6390d6"></path><path d="M208.158,184.67777c0.01794,-0.09015 0.03562,-0.18019 0.05303,-0.2701c-0.07779,0.04462 -0.15399,0.0911 -0.22865,0.13936c-0.01035,0.03687 -0.02079,0.07366 -0.0313,0.1104c0.06969,0.00376 0.13871,0.01057 0.2069,0.02032zM211.27935,180.29096c1.02669,0.15655 1.53526,0.69411 1.78262,1.249c0.25334,0.43532 0.39204,1.00935 0.16241,1.71968c-0.96675,6.01254 -3.07075,12.73121 -5.46941,18.32827c-1.30647,3.04855 -2.902,5.25737 -3.89186,8.4993l-0.17301,0.17337l0.07156,0.03871l-1.20853,2.23445c-0.35211,0.67188 -1.0197,1.16348 -1.83006,1.25702c-0.21961,0.02535 -0.43568,0.01984 -0.64386,-0.01308c-0.87177,0.66913 -2.03852,0.3912 -2.03852,0.3912l-0.17597,-0.04816l-1.9588,0.22611l-0.00403,-0.03485c-0.02671,0.01435 -0.05344,0.0287 -0.08013,0.04305l-0.08592,-0.02987l0.00153,0.03506l-2.9368,0.12818c-1.24098,0.06561 -2.33474,-0.84533 -2.47919,-2.09677c-0.10264,-0.88919 0.30054,-1.7202 0.98139,-2.20529c-0.28423,-0.34201 -0.47565,-0.76776 -0.53045,-1.24249c-0.06382,-0.55285 0.0679,-1.08321 0.34033,-1.52192l1.23752,-2.03614c0.37343,-0.61396 0.7338,-1.2316 1.08418,-1.85219c0.95611,-1.88606 2.37639,-4.60729 2.62447,-5.14663c2.32124,-5.04681 3.73579,-12.03726 7.62112,-16.16177c0.01047,-0.04946 0.02077,-0.09906 0.0309,-0.14882c0,0 0.44557,-2.12352 2.51541,-1.88233c0.61919,-0.35443 1.28697,-0.64983 2.0099,-0.87685l3.03362,0.97228c0.0032,0.00048 0.00641,0.00096 0.0096,0.00145z" fill="#731d67"></path><path d="M207.1461,178.6766l-0.3125,0.1321c1.09264,1.88303 1.76073,3.94712 1.41961,6.37433c0.22944,0.29723 0.39145,0.65342 0.45896,1.04937c0.03647,0.21392 0.04308,0.426 0.02282,0.63201l-0.14513,1.90319c0.87105,0.23026 1.57188,0.9493 1.73319,1.89539c0.05032,0.29514 0.04379,0.58684 -0.01168,0.86386l-0.53354,3.03258l-0.07375,-0.01298c-0.01418,0.17187 -0.03816,0.34369 -0.07332,0.51545c-0.48404,2.36489 -1.50082,3.27829 -2.69411,3.38177c-0.18474,0.2017 -0.37572,0.39601 -0.57431,0.58232l0.50062,0.23683l-1.08629,2.29637c-0.31536,0.68988 -0.95548,1.21677 -1.7596,1.35387c-1.12858,0.19243 -2.20673,-0.44659 -2.60752,-1.47278c-0.19332,0.03289 -0.38724,0.06004 -0.58112,0.08135c-0.2482,0.10105 -0.50405,0.1292 -0.77411,0.05379c-0.32504,0.00931 -0.64778,0.00156 -0.96529,-0.02373c-0.34412,-0.00502 -0.69259,-0.05392 -1.04391,-0.15207c-2.55648,-0.55303 -4.50874,-2.40655 -4.11024,-5.88384c0.00308,-0.0268 0.00626,-0.05357 0.00957,-0.08033l-0.01893,0.00194l-0.12967,-1.26319c-0.88146,-0.85961 -1.50752,-1.76675 -1.59529,-3.88534c-0.02348,-0.56667 0.06807,-1.12169 0.21268,-1.67132c-2.05753,-0.34046 -3.93535,-1.29756 -3.47737,-4.61568c0.36008,-2.60884 2.74759,-2.88181 5.07616,-2.93095c1.19257,-0.52978 2.48814,-0.38047 3.66825,-0.42218c0.30121,-0.32776 0.69631,-0.57327 1.15268,-0.6905c0.99258,-1.06569 1.8031,-2.8682 2.35815,-4.1604c0.08144,-0.46308 0.29919,-0.88776 0.61685,-1.2227l0.07035,-0.109c0.19034,-0.47456 0.5571,-0.9611 1.25845,-1.20501c0.41296,-0.19685 0.93381,-0.29891 1.53138,-0.10405c0.61482,0.13055 1.01458,0.47966 1.27348,0.85684c0.47098,0.54611 0.55424,1.1323 0.4919,1.6292c0.02556,0.46488 0.02608,0.92233 0.0115,1.37491z" fill="#baafcc"></path><path d="M194.33426,193.18882c-0.08537,-0.06969 -0.16887,-0.14145 -0.25036,-0.2153c-1.34838,-0.47367 -2.802,-0.49111 -3.79609,-1.46142c-0.95161,-0.92884 -1.29807,-2.58295 -1.12628,-4.15519c-0.84452,-1.12523 -1.50097,-2.45309 -0.8671,-3.66013c0.65646,-1.25004 4.22526,-1.88722 5.4915,-1.74674c0.33158,0.03678 0.63198,0.08926 0.90683,0.15577c0.01677,-0.08723 0.03273,-0.17072 0.04775,-0.25025c0,0 0.24451,-1.29481 1.53933,-1.0503c1.29481,0.24451 1.0503,1.53933 1.0503,1.53933c-0.07247,0.38377 -0.13527,0.76532 -0.18991,1.1451c0.51419,0.49239 0.99864,1.06181 1.63944,1.65426c0.47234,0.25975 0.86902,0.57248 1.18814,0.95753c2.24998,1.58755 5.25951,2.89909 4.29435,6.40266c-0.21806,0.79157 -0.8979,1.37488 -1.34687,2.06231c-1.38199,0.26698 -2.48965,0.54559 -3.71182,0.56425c-0.17412,0.66327 -0.83456,1.08811 -1.51873,0.95892c-0.5354,-0.1011 -0.93355,-0.51285 -1.04317,-1.01351c-1.14052,-0.16224 -1.86761,-0.86888 -2.3073,-1.88732z" fill-opacity="0.99216" fill="#731d67"></path><path d="M294.20003,234.35089c0.25754,0.5922 0.39242,1.19584 0.28821,1.81954c-0.15728,0.94128 -0.54631,1.8315 -0.99984,2.70856c-0.35223,2.22587 -1.24903,4.39578 -2.34859,6.36314c-0.43795,0.78359 -0.35429,1.85978 -1.14652,2.41207c-0.15789,0.11008 -0.32059,0.21395 -0.4874,0.31251l0.07731,0.07439l-2.49473,1.83805c-0.4416,0.3288 -1.02209,0.52838 -1.65793,0.52838c-1.38284,0 -2.50386,-0.94393 -2.50386,-2.10832c0,-0.1729 0.02471,-0.34094 0.07134,-0.50175l0.61424,-2.32747l0.04341,0.00813l-0.01219,-0.11354c0.69791,-1.76843 1.42255,-3.49341 2.07582,-5.2532c-0.06486,-5.49441 -0.26092,-11.01742 -0.59867,-16.47989c-0.19108,-3.09031 0.38458,-6.28742 0.01184,-9.36241c-0.01558,-0.12851 -0.03201,-0.25846 -0.04918,-0.38975c-0.90471,-0.61552 -0.90471,-1.68507 -0.90471,-1.68507l0.01243,-1.37145c-0.47803,-4.14906 -3.70057,-8.74116 -3.14092,-12.92835c0.17423,-1.3036 0.11083,-3.28354 1.5876,-3.70147c0.50889,-0.14402 1.02317,-0.16574 1.54091,-0.109v-0.33753h2.50386c0.99382,0 1.85242,0.48754 2.25684,1.19408c1.49895,0.47083 1.49895,1.9684 1.49895,1.9684c0,2.37549 -0.73216,5.70794 -0.05454,7.99561c0.24864,0.83947 1.03853,1.52554 1.25193,2.37186c0.0716,0.28395 0.05454,5.06543 0.05454,5.44493c0,1.22986 0,2.4597 0,3.68956c0,0.02874 0,0.05769 0,0.08685c0.00935,5.51376 1.79344,10.65238 2.13479,16.09509c0.1693,0.57535 0.30294,1.15865 0.37509,1.75806z" fill="#baafcc"></path><path d="M266.75621,69.72163l0.08823,-0.14389l-0.05876,-0.01469l0.5204,-2.08158c0.13316,-0.5868 0.65794,-1.02485 1.28504,-1.02485c0.72775,0 1.3177,0.58995 1.3177,1.3177v1.05416l0.10999,-0.02499c0.40596,-0.9865 0.84899,-1.94529 1.33755,-2.86753l0.48106,1.1714c0.19438,-0.21755 0.49754,-0.3872 0.97034,-0.3872c1.3177,0 1.3177,1.3177 1.3177,1.3177c0,1.63448 -0.00022,3.29253 -0.10338,4.93691c0.37816,0.2316 0.63046,0.64859 0.63046,1.12451v1.58124h-0.12958c0.46569,2.67045 0.69382,5.80312 0.08177,7.9944c-0.26451,0.94704 -1.70403,3.09778 -3.11663,3.07884c-0.04592,0.10704 -0.09342,0.21754 -0.1425,0.33179l-0.07135,0.06125l0.02803,0.01682l-0.77819,1.29699c-0.2276,0.39475 -0.65395,0.66046 -1.14234,0.66046c-0.72153,0 -1.30762,-0.57993 -1.31757,-1.2991l-0.12254,0.12254c-0.10206,0.10206 -0.22078,0.18746 -0.35174,0.25175l-0.07374,0.36867c-0.11061,0.61588 -0.64918,1.08321 -1.2969,1.08321c-0.08426,0 -0.16667,-0.00791 -0.24654,-0.02302c-0.23914,0.33311 -0.62981,0.5501 -1.07116,0.5501c-0.72775,0 -1.3177,-0.58995 -1.3177,-1.3177v-2.10832h0.46603c-0.2727,-3.1171 0.44496,-5.98019 0.7401,-9.08204c-0.00885,-0.5685 0.02084,-1.10347 0.10624,-1.58475c0.01239,-0.3489 0.01691,-0.70162 0.01173,-1.05881l0.07947,-0.11652l-0.0603,-0.01206l0.25875,-1.29376c0.11061,-0.61588 0.64918,-1.08321 1.2969,-1.08321c0.08053,0 0.15937,0.00722 0.23591,0.02106c0.02157,-0.93081 0.03337,-1.86844 0.03751,-2.81746z" fill="#6390d6"></path><path d="M271.7536,84.64087l0.30124,0.09424c0.25085,-0.09159 0.51042,-0.14443 0.77507,-0.16522c0.46302,-0.596 1.29044,-0.43052 1.29044,-0.43052l1.29376,0.25875c0.61588,0.11061 1.08321,0.64918 1.08321,1.2969c0,0.72775 -0.58995,1.3177 -1.3177,1.3177c-0.09789,0 -0.19329,-0.01068 -0.28511,-0.03093l-1.29102,-0.25821c0,0 -0.01263,-0.00253 -0.03515,-0.00833c-0.14288,0.20322 -0.32775,0.37112 -0.53474,0.46675l-0.35647,0.02625c0.36902,0.47222 0.71054,0.94951 1.00656,1.43684c1.17645,1.93666 1.42934,4.31296 1.44401,6.49364l-0.12043,0.16001l0.08103,0.02258l-0.42405,1.44782c-0.15158,0.56601 -0.67929,0.98371 -1.30701,0.98371c-0.74602,0 -1.35078,-0.58995 -1.35078,-1.3177v-1.47582h0.3782l0.02341,-0.07994c-0.16712,-0.87255 -0.33968,-1.72417 -0.7279,-2.57096c-0.64073,-1.39753 -1.27959,-2.7987 -1.89346,-4.20825c-0.27167,-0.35586 -0.55303,-0.7073 -0.83847,-1.05752c0.17398,1.53148 -0.37014,3.42722 -1.38289,4.4648c-0.93122,0.95405 -2.79603,0.75879 -3.93374,0.76377c-3.37085,0.01474 -6.56773,0.60512 -9.93647,0.63158l-1.03812,0.33656c-0.50429,0.21083 -1.00859,0.42166 -1.51288,0.6325c-7.79732,2.53784 -16.01639,2.8452 -23.86814,5.09114c-4.67522,1.33731 -8.97189,3.93326 -13.67312,5.02649c-0.15134,0.05542 -0.33107,0.08833 -0.54455,0.08833c-0.39002,0 -0.66742,-0.10985 -0.86473,-0.26612c-0.19918,-0.15399 -0.36928,-0.39433 -0.45389,-0.76573c-0.04457,-0.19565 -0.05185,-0.36814 -0.03216,-0.52002v-0.18749c0,-2.54826 -0.24079,-4.29479 0.43225,-6.11012v-0.30269l-0.36294,-0.11801l0.4224,-1.23617c0.16975,-0.53844 0.68368,-0.92983 1.29131,-0.92983c0.02923,0 0.05824,0.00091 0.08701,0.00269c0.83564,-1.96183 1.63846,-3.91668 2.9022,-5.75065c2.11159,-3.0644 4.38104,-4.62922 4.95339,-8.41788v-1.80468c0.00531,-3.26744 -0.64837,-6.3779 -0.64837,-9.69827c0.08873,-7.6334 4.75037,-13.75445 10.42163,-18.50631c2.2478,-1.88339 4.15444,-3.81902 6.69916,-4.86887c0.23832,-0.92322 1.30388,-0.92322 1.30388,-0.92322c1.17353,0.00188 2.3356,0.09557 3.49525,0.22394c-0.8233,-1.24701 -1.11517,-3.13458 -0.23504,-3.72833c0.83482,-0.56319 2.05861,-0.08708 3.02323,0.41318l0.54192,-0.52865c0.24444,-0.23846 0.58214,-0.38595 0.95514,-0.38595c0.49061,0 0.92013,0.25515 1.15673,0.63684c0.76373,-0.8848 1.6164,-1.61982 2.58063,-1.98261c2.37433,-0.89335 5.06021,0.14781 7.17658,1.03395c1.59864,0.66936 3.15172,1.58131 4.61615,2.66705c5.72869,2.95458 10.47048,8.26161 11.09721,13.89808c0.26254,0.74489 0.41095,1.57282 0.4385,2.57362c0.06373,0.32561 0.12833,0.66487 0.19833,1.01971c0.57211,2.90067 1.93868,4.84998 1.96638,7.94044c0.04736,0.43175 -0.09349,0.73482 -0.28804,0.94501c-0.01549,0.02033 -0.0318,0.04041 -0.049,0.06012c0.21743,0.23498 0.35032,0.54933 0.35032,0.89472v1.3177h-0.22089l0.15326,0.41669c-0.04503,0.06466 -0.09146,0.13161 -0.13923,0.2005c0.07108,0.21839 0.05005,0.49523 0.01436,0.83966c-1.96331,-0.8108 -6.00547,0.53022 -7.48409,0.94845c0,0 -1.0136,0.2896 -0.724,1.30321c0.08667,0.30337 0.23821,0.48999 0.408,0.60259c0.54205,3.33499 1.53961,6.68951 2.79895,9.8501c0.34658,-0.19358 0.71344,-0.19358 0.71344,-0.19358zM265.50601,83.02133c0.27919,0.64538 0.74892,0.99069 1.25392,1.28663c-0.72001,-0.97782 -1.36538,-2.00656 -1.82813,-3.14812c0.13356,0.64978 0.32089,1.27588 0.57421,1.86149z" fill="#111732"></path><path d="M293.77031,173.69444c-2.98245,0.87852 -5.62836,1.97272 -8.17088,3.90639l-1.42133,1.70272c-0.29192,0.35774 -0.6893,0.60656 -1.15207,0.6814c-1.11722,0.18066 -2.19243,-0.72118 -2.40155,-2.01432c-0.01209,-0.07478 -0.02102,-0.14923 -0.0269,-0.22318l-0.27762,-3.13068l0.03406,-0.00219c-0.01693,-0.12816 -0.0306,-0.25696 -0.04069,-0.38647c-0.11976,-1.53848 0.73625,-2.93167 0.90222,-4.4493c0.09157,-0.83727 -0.25377,-1.71658 -0.13689,-2.54838c0.65868,-4.68784 2.55293,-9.23361 3.01903,-14.06335c0.47745,-4.94742 0.21282,-9.97648 0.28137,-14.93991c0.13667,-9.8961 1.79425,-19.74044 4.94524,-28.75892c0.37541,-0.73066 0.75081,-1.46132 1.12622,-2.19198l1.41565,-1.21162c0,0 0.67341,-0.39324 1.425,-0.21371c0.23914,-0.41983 0.65265,-0.77948 1.35881,-0.89367c2.02291,-0.32712 2.40155,2.01432 2.40155,2.01432c1.49826,9.26527 3.60469,18.73107 4.30253,28.08511c0.35499,4.75828 0.34471,9.55787 0.7002,14.3261l0.18272,1.0662c0,0 0.02424,0.14988 0.02768,0.37911c0.0062,0.22929 -0.01176,0.37811 -0.01176,0.37811c-0.88903,7.36332 -1.38052,16.32686 -6.11384,21.44937l-2.11857,0.936c-0.06299,0.03077 -0.11736,0.05389 -0.15919,0.07033l-0.02979,0.01317c0,0 -0.01067,0.00358 -0.0307,0.00931c-0.01972,0.00684 -0.0305,0.01005 -0.0305,0.01005z" fill="#5a1751"></path><path d="M300.6184,93.75389l0.01319,-0.01476l-0.05102,-0.0309c-1.80812,-2.35224 -3.37274,-4.83389 -5.3993,-6.96267c-1.80149,-1.89234 -3.67959,-3.05205 -4.93501,-5.72349c-0.67825,-1.44326 -1.35198,-3.10861 -1.27432,-4.70114l-0.7174,-0.79318l0.13269,-0.15896c-0.32284,-0.33073 -0.58821,-0.7145 -0.76445,-1.18048c-0.54595,-1.44351 0.08601,-2.81632 1.0931,-3.89596l0.19708,-2.7677c0.05419,-1.05459 0.72796,-1.93856 1.67625,-2.09191c1.11722,-0.18066 2.19243,0.72118 2.40155,2.01432l0.09409,0.58186c2.74887,-0.02685 3.65397,2.01291 5.42509,4.17676l0.89412,1.58784c0,0 0.27567,0.51305 0.3342,1.17276c0.75949,0.77197 1.53733,1.52502 2.32745,2.25935c0.63545,0.3979 1.28293,0.85893 2.004,1.61756c0.21968,0.23111 0.42771,0.47459 0.62716,0.72722c0.29493,0.25264 0.5906,0.50282 0.88673,0.75056c1.38114,1.3242 2.97588,2.32751 4.35195,3.65877c1.9405,1.87731 3.08332,4.67636 4.90187,6.68063c0.3737,0.41187 0.78431,0.7771 1.20018,1.13525c1.33422,-0.11175 2.63679,1.19967 3.93485,1.8007c1.6504,0.76417 4.80778,2.13129 5.58974,4.39321c0.44456,1.28596 0.03549,2.73608 -0.13425,4.07461c-0.10769,0.84923 -0.25564,1.62448 -0.44584,2.33445c0.08992,1.91742 -0.2161,3.87792 -1.60678,4.65717c-0.4548,0.25484 -1.00426,0.4005 -1.57533,0.43269c-0.03363,0.0267 -0.06751,0.05322 -0.10161,0.07957c-0.03384,0.112 -0.06947,0.22297 -0.10691,0.33278c-1.42304,4.17368 -7.15904,4.31465 -10.34654,4.50755c-5.83375,0.35304 -11.97649,-0.84217 -17.18444,-4.08329c-0.22637,0.16343 -0.48707,0.27588 -0.77268,0.32207c-0.40502,0.06549 -0.80452,-0.01128 -1.15924,-0.19739l-1.97895,-0.99517l0.06178,-0.17759l-0.42876,-0.05788c-0.89717,-1.0849 -2.09655,-1.93094 -2.69153,-3.2547c-1.63031,-3.62718 -0.54042,-4.56625 0.55804,-7.60112c1.26136,-3.48492 0.83221,-5.83966 5.75434,-3.4281c0.78569,0.38495 1.61631,0.93985 2.28049,1.64332c1.95872,-0.59256 4.02906,-0.47355 6.1316,-0.18149c-0.09447,-0.56214 -0.17125,-1.08711 -0.23739,-1.51337zM308.09938,110.05529c0.32713,-0.00369 0.66051,-0.01865 0.99665,-0.04157c-0.15097,-0.00429 -0.30182,-0.0032 -0.45249,0.00467c-0.18202,0.00952 -0.36338,0.02202 -0.54415,0.03691z" fill="#6390d6"></path><path d="M239.24698,217.24207c-1.13754,5.63347 -3.44456,11.45161 -4.13376,17.08358c-0.67177,5.48946 -1.22603,12.06794 -4.30031,17.11968c-1.40865,2.31474 -4.42882,7.11702 -9.069,2.3416c-0.29492,-0.30352 -0.36111,-0.64843 -0.29433,-1.01742c-0.21258,-0.30786 -0.33406,-0.66433 -0.33406,-1.04427c0,-0.05076 0.00217,-0.10108 0.00643,-0.15095l0.31647,-4.189l0.00491,0.00025c-0.00104,-0.00733 -0.0021,-0.01466 -0.00313,-0.02199c-0.11229,-0.79463 0.92934,-7.24298 0.96638,-7.47626c1.07107,-6.74613 2.05957,-14.43705 6.75044,-20.12496l1.21407,-1.76208c0,0 1.17215,-1.69696 3.2343,-0.88949l0.97239,-2.81551c0.28597,-0.90563 1.28161,-1.57393 2.46593,-1.57393c1.40749,0 2.54852,0.94393 2.54852,2.10832c0,0.09994 -0.00841,0.19826 -0.02468,0.2945l-0.31358,2.07532l-0.02402,-0.00249z" fill="#baafcc"></path><path d="M272.22972,182.31212c0,0 -1.57578,-1.77275 0.19697,-3.34853c1.77275,-1.57578 3.34853,0.19697 3.34853,0.19697c3.90468,4.40425 8.36629,9.91947 10.30956,15.56426c0.61138,1.77594 0.09191,3.77198 0.4417,5.61736c0.52736,2.78214 1.25362,5.58775 1.75759,8.43694c0.72436,4.09515 3.52377,9.92059 2.41765,14.02963c-0.41262,1.5328 -2.42797,4.14914 -3.39609,5.49669l-1.3199,2.63981c-0.38031,0.80227 -1.19758,1.35709 -2.14444,1.35709c-0.34861,0 -0.67966,-0.0752 -0.9778,-0.21028c-1.23738,2.53925 -2.82241,3.58602 -5.93712,4.59357l-0.22107,-0.07205v0.08989h-1.59382c-0.36824,0 -0.7073,-0.14454 -0.97715,-0.38728c-1.47867,0.59001 -3.06023,0.91161 -4.71505,0.91436h-0.78027l-1.15086,0.21961c-11.23009,2.83147 -18.4291,-14.29525 -19.45959,-25.03051c-0.00818,-0.08518 -0.01593,-0.17044 -0.02328,-0.25576c-0.61532,1.45113 -1.28985,2.84004 -2.03275,4.13312c-2.05506,4.53625 -4.85872,9.58968 -8.22889,13.06752c-0.00335,0.00549 -0.00673,0.01098 -0.0101,0.01647c-0.72252,1.17492 -2.10444,1.86868 -2.76209,3.08111c-1.59089,2.93289 -3.57616,5.40345 -5.62218,8.0819l-0.6131,1.56951c0,0 -0.58726,1.46815 -2.0554,0.88089c-1.46815,-0.58726 -0.88089,-2.0554 -0.88089,-2.0554l0.79244,-1.94437c0.82694,-1.11826 1.70082,-2.22959 2.58366,-3.34163c-1.26771,0.53158 -2.7232,0.60416 -3.92762,1.26861c-3.20467,1.76793 -8.55995,2.73254 -11.65629,0.5394c-0.82944,-0.1314 -1.112,-0.76636 -1.20826,-1.18374c-0.45387,-0.61745 -0.79775,-1.36741 -0.99923,-2.26719c-0.68805,-1.13697 -2.55678,-4.15054 -2.8652,-5.08849c-0.54491,-1.65714 -0.50059,-3.50519 -0.20418,-5.38136c-1.07228,-3.2477 -0.52784,-7.03697 -0.36859,-10.40644c0.33434,-7.07453 2.60278,-14.37784 6.26473,-20.01073c0.76251,-1.17291 1.51697,-3.40234 2.41544,-5.16998c0.03277,-0.06934 0.06788,-0.13701 0.10505,-0.2032c0.5048,-0.95958 1.05573,-1.75892 1.67878,-2.13872c0.07853,-0.04787 0.15801,-0.09298 0.23832,-0.13559c0.00569,-0.0076 0.01135,-0.01522 0.017,-0.02286l-0.0367,-0.05945l0.18393,-0.15206c0.03662,-0.05614 0.07194,-0.11331 0.10574,-0.17164c0.98903,-1.70603 1.51041,-3.95083 2.4728,-5.74138c0,0 0.84472,-1.56437 2.19628,-0.58664c0.10142,0.07337 0.19048,0.15004 0.26844,0.22911c4.14378,-0.78991 8.33515,-0.50952 12.5481,-0.50952h0.00001c8.93565,0 18.70327,-0.55453 27.12002,3.35462c2.96172,2.10713 6.35384,1.8499 9.76808,1.70575c-0.35617,-0.41144 -0.71124,-0.81479 -1.06295,-1.20934zM215.4889,233.9913l0.00329,0.81847c1.70958,1.29301 4.85676,1.04736 6.96693,0.33091c0.64176,-0.21789 1.22252,-0.57577 1.79702,-0.948c-3.39037,-0.36948 -6.69849,-1.74475 -9.40598,-4.02528c0.083,1.24032 0.37778,2.49488 0.63874,3.82389zM211.58078,228.12829c0.00081,0.00228 0.06429,0.11229 0.17151,0.29743c0.01268,-0.13921 0.02806,-0.27868 0.04629,-0.41853c-0.11002,-0.10402 -0.23136,-0.21888 -0.35971,-0.34067c0.04102,0.15646 0.08818,0.31046 0.14191,0.46177z" fill="#111732"></path><path d="M219.18616,192.24426c-0.29843,-0.00965 -0.58228,-0.01268 -0.85374,-0.01357c-0.12457,0.01357 -0.20042,0.01357 -0.20042,0.01357c-0.03537,-0.00511 -0.07097,-0.00972 -0.10678,-0.01388c-0.47123,0.0002 -0.90517,0.00181 -1.31452,-0.02109c-0.96296,0.02909 -1.92499,0.05619 -2.59245,-0.54506c-0.32935,-0.29668 -0.5912,-0.65111 -0.79574,-1.04972c-0.20209,-0.2188 -0.40815,-0.46721 -0.62013,-0.74923c-1.9946,-2.65365 -1.5074,-8.72517 1.67141,-10.48151c0.12652,-0.06991 0.25535,-0.13353 0.3862,-0.19156l-0.05197,-0.07797l0.22074,-0.14716c0.05933,-2.1628 0.40591,-4.57218 0.56508,-6.27835c0.60176,-6.45032 0.52896,-13.42206 -0.50534,-19.87134l0.09789,-0.24502l-0.09818,-0.01198l0.11069,-2.11026c0.01402,-0.42111 0.13904,-0.81339 0.34767,-1.1324c-0.1312,-3.20329 -0.21217,-6.40032 -0.2333,-9.47204c0,0 -0.00552,-1.22636 0.8084,-1.76613c-0.12768,-0.75554 0.16777,-1.42681 0.16777,-1.42681l-0.00001,-0.00003l0.48764,-1.10665c0.51467,-1.21349 0.86165,-2.53735 1.06464,-3.88088c1.87778,-5.41497 5.30125,-8.91893 9.14875,-12.54911c2.82956,-2.66973 5.76399,-5.60008 9.06183,-7.52545c3.405,-1.98792 7.283,-2.32369 11.09013,-2.93933c4.30327,-0.69587 8.2626,-1.2387 12.49562,-1.2186c-0.05932,-0.61409 0.07386,-1.40434 0.94514,-1.91313c1.59945,-0.93402 2.48735,0.94851 2.48735,0.94851l0.50727,1.18172c0.03065,0.12225 0.06083,0.24458 0.09053,0.36698c0.37374,0.32102 0.69448,0.85478 0.68493,1.74077c-0.00349,0.32361 -0.04997,0.59439 -0.12609,0.82091c0.74759,3.8038 1.18687,7.65548 1.91852,11.47547c1.20633,6.29833 2.48527,12.5347 2.0857,18.96515c-0.1279,2.05838 0.15868,6.57824 -0.59653,8.35954c-0.03673,0.08663 -0.07441,0.17256 -0.11301,0.25786l0.0481,0.0213l-0.57143,1.90069c0.00634,0.04007 0.01268,0.08014 0.01904,0.12021l1.15209,1.20459c1.80641,2.8449 4.95681,4.76854 6.57344,7.58437c0.14777,0.25738 0.28696,0.55215 0.41955,0.87362c0.3106,0.39697 0.44337,0.82116 0.44337,0.82116c0.58289,1.86537 1.12386,3.66422 1.6091,5.4637c0.70618,1.77824 2.7122,7.15692 2.03004,8.76981c-0.07312,0.17289 -0.15472,0.33891 -0.24345,0.49918l0.1254,0.06307l-0.42359,1.21762c0.16003,0.14426 0.30757,0.33316 0.42636,0.57998c0.20338,0.33863 0.34063,0.78152 0.2726,1.33866c-0.0158,0.56503 -0.21542,0.95703 -0.46428,1.22735c-0.35235,0.47531 -0.80906,0.60274 -1.19819,0.60241c-2.43438,0.40634 -4.99447,1.11232 -7.45564,1.19246c-2.61029,0.085 -5.2429,-0.83017 -7.85077,-0.59059c-6.47906,0.5952 -12.86403,1.55041 -19.30182,2.59144c-1.03103,0.16673 -2.04313,0.34495 -3.03994,0.54786c-2.66777,0.80462 -5.32322,1.65773 -7.96889,2.5469c-0.08407,0.02825 -0.16783,0.05714 -0.25129,0.08662c-0.4022,0.19256 -0.80351,0.39651 -1.20421,0.61288l-1.2931,0.45249c-2.38638,1.16377 -4.63493,2.58034 -7.15154,3.38932c0,0 -1.08187,0.33942 -1.81318,-0.50933z" fill="#a69cb5"></path><path d="M266.03589,291.81388c-0.79682,-1.53714 0.76002,-6.12729 1.3391,-8.04077c0.00558,-9.09807 -0.10457,-18.63477 -1.78299,-27.37387c0,0 -0.00377,-0.01962 -0.00891,-0.05546c-0.00682,-0.03546 -0.00968,-0.05529 -0.00968,-0.05529l-0.25247,-1.92785c0.03315,-4.49619 -0.52022,-9.30501 -2.22569,-13.34946c-0.32882,-0.53412 -0.36185,-1.05325 -0.28001,-1.48759c0.0468,-0.50429 0.26562,-1.05858 0.88307,-1.46615c0.10025,-0.86821 0.73203,-1.43696 0.73203,-1.43696c0.62598,-0.56189 1.18044,-1.10809 1.684,-1.66115c0.98296,-2.55774 2.28969,-5.11361 4.19349,-6.72934c0.05969,-0.08583 0.10039,-0.13294 0.10039,-0.13294c0.53127,-0.61492 1.06255,-1.22986 1.59382,-1.84478l0.06852,-0.07932c0.32005,-0.52901 0.73122,-0.73542 1.11048,-0.79212c0.37334,-0.10517 0.82362,-0.08265 1.28876,0.28309c0.62786,0.33015 1.24801,0.67295 1.86383,1.02392c0.77977,-0.00042 1.42113,0.00108 1.51016,0.00108c1.6356,0 5.21182,-0.58669 6.60645,0.54835c0.52879,0.43036 1.11261,1.13021 1.58147,1.95974c1.3781,0.5435 1.12248,2.3187 1.12248,2.3187c-1.01818,7.06503 -0.65055,14.24546 -0.6618,21.39468l-0.23822,2.23864c-0.00001,0.00013 -0.00002,0.00018 -0.00002,0.00018c-0.68847,6.37508 -0.86218,13.05521 -0.89166,19.53303c0.11239,0.07291 0.17712,0.12909 0.17712,0.12909l1.39937,1.43125c0.18763,0.38268 0.33781,0.78437 0.45774,1.1999c0.28409,0.14081 0.46478,0.30812 0.46478,0.30812l1.43009,1.39388c1.28076,1.89915 2.25278,4.07169 3.10331,6.27335c0.31333,0.53829 0.33091,1.05903 0.23901,1.49038c-0.04998,0.43838 -0.22886,0.91349 -0.68531,1.28189l-0.29398,0.34027c-0.77816,0.88367 -1.10304,2.28142 -1.93946,3.06427c-0.01503,0.07627 -0.03005,0.15254 -0.04508,0.22882c-0.06384,0.69425 -0.34615,1.12142 -0.66939,1.38425c-0.25716,0.25762 -0.60907,0.45162 -1.08321,0.43888l-0.13355,0.15458c-0.32963,0.38153 -0.785,0.61752 -1.28799,0.61752c-0.32069,0 -0.62202,-0.09592 -0.88374,-0.26433c-0.01755,0.00079 -0.02701,0.00079 -0.02701,0.00079h-1.13844c-5.08431,0 -10.15731,-0.26354 -15.25509,-0.26354c-0.6326,0 -1.04551,-0.2543 -1.31501,-0.58625c-0.11604,-0.1262 -0.22109,-0.27958 -0.30504,-0.46598c-0.63182,-0.18394 -1.22272,-0.42178 -1.53569,-1.02553z" fill="#a69cb5"></path><path d="M195.09593,139.68939l-0.41901,-1.47085c0,-1.52267 0,-3.04535 0,-4.56802c0,-2.32784 0.52097,-3.76997 1.08941,-5.92493c0.85252,-3.2319 -0.3246,-6.66658 1.37382,-9.88476c0.00962,-0.72087 0.03479,-1.41147 0.09677,-1.56113c0.23979,-0.57892 0.6836,-1.03048 1.14141,-1.47619c-0.13258,-1.27456 0.63282,-2.45495 2.42753,-3.62618c0.80898,-0.81588 1.69686,-1.84973 2.64135,-2.79936l0.04694,-0.76566c0,0 0.29851,-2.97404 2.34813,-2.2079v-0.00004c0.34575,0.12924 0.62468,0.32132 0.84951,0.55135c2.50602,-1.16366 5.53699,-1.70199 8.39369,-2.11644c0.34356,-0.07532 0.70579,-0.12801 1.09112,-0.1547c0.0663,-0.00926 0.13244,-0.01848 0.19844,-0.02767v-0.13777h2.4597c0.72775,0 1.3177,0.58995 1.3177,1.3177c0,0.72775 -0.58995,1.3177 -1.3177,1.3177h-1.33513c-1.12516,0.16215 -2.30786,0.32241 -3.49635,0.5204c-0.35661,0.28123 -0.77818,0.7066 -1.16342,1.10252c0.56801,0.1465 0.98764,0.66225 0.98764,1.27603c0,0.6271 -0.43806,1.15188 -1.02485,1.28504l-1.37881,0.3447l-0.00325,-0.01298l-0.02726,0.02022c-1.60362,0.32107 -3.01303,0.86386 -4.24055,1.58794c-0.14057,0.49427 -0.28488,0.98507 -0.43243,1.47282c2.14568,-1.9248 3.6011,-1.57779 4.55405,-0.05731c1.13261,-0.58224 2.27177,-0.67572 3.02121,0.21738c1.46315,1.74362 1.93213,4.73592 2.49876,7.38659c0.26906,0.39747 0.51862,0.80755 0.7421,1.22623c0.17529,-0.55281 0.35875,-1.09958 0.55284,-1.63828l0.12548,-0.11499l-0.04586,-0.05436l1.85988,-3.64149c0.30291,-0.59309 0.77177,-0.98941 1.33478,-1.0484c1.12602,-0.11799 2.20224,1.15803 2.4038,2.85007c0.07947,0.66718 0.0111,1.29943 -0.16993,1.82779l-0.77213,2.33571c0.34471,-0.27022 0.82453,-0.45831 1.49243,-0.45831v0.00001c2.37186,0 2.37186,2.37186 2.37186,2.37186v1.05416c-0.00099,0.60844 -0.01201,1.21225 -0.03681,1.81014c0.58009,-0.05926 1.26395,0.10665 1.90966,0.84461c1.56189,1.78501 -0.22312,3.34688 -0.22312,3.34688c-0.50299,0.4348 -0.98593,0.88928 -1.45378,1.35826l-0.84582,1.52247l-0.0037,-0.00206l-0.00328,0.01453c-1.77632,3.10833 -4.05983,7.77112 -7.59317,9.85115c0.01557,1.05016 -0.1639,2.0138 -2.29362,2.90516c-1.15815,0.48472 -2.66385,0.876 -3.97242,0.74475c-0.50897,0.54515 -1.05116,1.02847 -1.63109,1.43975l-0.87939,1.03369c-0.28186,0.34387 -0.64057,0.56397 -1.04878,0.60674c-0.06145,0.00643 -0.12275,0.00872 -0.18377,0.00702c-0.25696,0.25481 -0.56518,0.41612 -0.90837,0.45209c-0.20204,0.02117 -0.40249,-0.00254 -0.59657,-0.06548l-2.56631,-0.74638l0.00181,-0.02954c-0.05544,-0.00842 -0.11093,-0.0178 -0.16647,-0.02819c-2.97598,-0.55675 -3.49666,-2.07803 -5.42804,-4.94661c-1.086,-1.61298 -2.77162,-3.80736 -3.51696,-6.12979c-0.10758,-0.16931 -0.1537,-0.30766 -0.1537,-0.30766zM221.72353,130.32168c0.0556,-0.39572 0.09771,-0.79576 0.12947,-1.1985l-0.40836,1.11684c0.03086,0.06722 0.05405,0.13533 0.07109,0.20278c0.0685,-0.04206 0.13778,-0.0824 0.2078,-0.12112z" fill="#baafcc"></path><path d="M188.64131,293.10101c0.1777,-2.10832 1.9992,-2.10832 1.9992,-2.10832l0.10739,0.03568c-0.02636,-0.48664 -0.024,-0.97472 0.04239,-1.46602c0.28576,-2.11437 1.5175,-3.02051 2.37811,-4.7645c0.96904,-1.96369 1.83531,-3.9947 2.912,-5.88947l0.21614,-0.82713c0.90915,-4.69183 3.02863,-9.06958 3.88654,-13.70018c0.15942,-0.86047 0.0111,-1.75549 0.25411,-2.59865c0.41054,-1.4245 1.35966,-2.66203 1.69212,-4.10517c1.73967,-7.55147 3.47895,-14.60295 4.12697,-22.29152c0,0 0.03553,-0.42152 0.23765,-0.8876l0.48787,-1.89774l0.14998,0.03541c0.05746,-0.30573 0.14182,-0.60677 0.2616,-0.90167c0.42429,-1.04455 1.67703,-1.18806 2.63506,-1.67001c1.4513,-1.56535 2.96639,-2.97091 4.98426,-3.58235c1.56101,-0.473 3.50601,-0.36887 5.45233,0.07801c1.85735,0.01824 3.71232,0.38943 5.54126,1.13844c0.27082,0.00492 0.50979,0.09264 0.70463,0.20271c0.29408,0.12857 0.61304,0.36184 0.80234,0.78509c0.68288,0.89497 1.26013,1.73669 1.74018,2.58334c0.82628,0.85515 1.55724,1.93786 1.40521,3.1333c-0.0095,0.07467 -0.0203,0.14905 -0.03234,0.22313c0.35444,1.36333 0.53164,2.88769 0.55643,4.74375l-0.05291,0.7599c0,0 -0.00668,0.07934 -0.03076,0.20724c-0.01946,0.12844 -0.03946,0.20624 -0.03946,0.20624c-2.01146,7.76767 -5.97533,14.16396 -8.95171,21.42998c-1.90756,4.65679 -2.68042,9.83456 -3.87267,14.63771c-0.29331,1.18164 -0.7014,2.37104 -1.15118,3.5584l0.00389,1.84108c0.38789,1.00654 1.21725,2.0165 0.87459,3.10144c-0.4036,1.27791 -1.9242,1.67071 -2.77954,2.64507c-0.11156,0.1271 -0.22728,0.27218 -0.34581,0.43146c-0.18268,0.73639 -0.34497,1.48281 -0.48129,2.24682c0,0 -0.01968,0.10921 -0.07139,0.27499c-0.11376,0.39641 -0.34835,0.93525 -0.82233,1.27548c-0.27366,0.20751 -0.62561,0.34526 -1.0756,0.32888c-0.09456,0.17384 -0.18242,0.33473 -0.2622,0.47865l-0.63315,1.22844c-0.18662,0.59579 -0.53589,0.94704 -0.88288,1.15412c-0.32812,0.24837 -0.75679,0.42218 -1.26717,0.29743c-4.23435,0 -8.46869,0 -12.70304,0h-1.59382c0,0 -1.12477,0 -1.52037,-1.02303l-1.74297,0.65129l-1.49588,0.10819c0,0 -1.8215,0 -1.6438,-2.10832z" fill="#a69cb5"></path><path d="M212.41204,288.7117l0.16478,0.0886l0.10263,-0.54214c0.53915,-0.51111 4.86007,-4.60858 4.86793,-4.60941c3.71269,-0.39376 4.58513,2.5875 4.53586,5.69143c0.48094,0.25638 1.53057,1.04309 0.93848,2.8312c-0.35111,1.06033 -0.95301,1.48682 -1.49662,1.63966c-0.1569,0.51983 -0.42288,0.87705 -0.71437,1.12253c-0.35049,0.34882 -0.84081,0.60433 -1.5149,0.53931c-2.49373,0 -5.84559,0 -8.31331,0c0,0 -2.04919,0 -1.84928,-2.37186c0.19991,-2.37186 2.2491,-2.37186 2.2491,-2.37186c0.02834,0 0.05667,0 0.08501,0z" fill="#baafcc"></path><path d="M288.08971,286.77605c0,-2.37186 2.04919,-2.37186 2.04919,-2.37186l3.05101,0.47437c0.58416,0.50748 1.11592,1.08584 1.61107,1.7094l0.1176,-0.20418l2.02274,1.56083c0.42355,0.31662 0.73977,0.8091 0.87153,1.38822l0.21266,0.15383c0.59515,0.41502 0.9932,1.17025 0.9932,2.0331c0,1.30994 -0.91746,2.37186 -2.04919,2.37186c-2.80815,0 -8.12087,0 -10.92901,0c0,0 -2.04919,0 -2.04919,-2.37186c0,-2.37186 2.04919,-2.37186 2.04919,-2.37186c0.22769,0 0.45538,0 0.68306,0c0,-1.03369 0.57129,-1.91294 1.36836,-2.23781c-0.00149,-0.04382 -0.00225,-0.0885 -0.00225,-0.13405z" fill="#baafcc"></path><path d="M257.27483,69.72631c0.00267,0.02901 0.00579,0.05753 0.00943,0.08547c0.18377,1.40969 0.0206,2.64869 -0.31806,3.86634l0.11754,0.01959l-0.36648,2.1989c-0.0827,0.55673 -0.56268,0.98386 -1.14242,0.98386c-0.40727,0 -0.76531,-0.21079 -0.97097,-0.52923l-0.72928,-1.09391l0.04438,-0.02959l-0.12092,-0.10365c-0.71596,-2.14789 -3.83134,-6.21501 -1.18092,-8.41673c0.19578,-0.16264 0.45637,-0.27852 0.75766,-0.35981l0.00452,-0.02937c0.93426,-1.01837 4.62769,-2.68207 4.7971,0.18944c0.2195,0.16674 0.40148,0.44322 0.40148,0.9017c0,0.65405 -0.37037,0.93774 -0.69166,1.06078l-0.07618,0.30474c-0.07053,0.31083 -0.26644,0.57404 -0.53173,0.73368c-0.00091,0.07448 -0.00205,0.14702 -0.00349,0.21778z" fill="#6390d6"></path><path d="M282.19167,71.68928c-1.59052,-1.85561 -3.15181,-3.64453 -4.88266,-5.37329c0,0 -1.59099,-1.59099 0,-3.18198c1.59099,-1.59099 3.18198,0 3.18198,0c0.16918,0.16937 0.33689,0.33927 0.5033,0.5097l1.67473,0.82067c0.69313,0.12188 1.19527,0.55228 1.19527,0.55228c0.31864,0.28385 0.66061,0.54009 1.01931,0.77359c0.07488,-0.11411 0.1439,-0.23243 0.20796,-0.3542l0.14046,0.09364l0.99242,-1.48862c0.03985,-0.05793 0.07375,-0.12027 0.10082,-0.18614c2.04929,-1.04713 3.31357,0.257 5.07651,1.03548c0.19052,-0.16168 0.45131,-0.28991 0.8073,-0.35072c0.98852,-0.16885 1.45721,0.39632 1.66782,0.83237c1.58573,0.07903 3.73179,0.10041 4.10099,0.27307c1.04033,0.48656 1.53909,1.20674 1.82292,2.03289c0.14609,0.06015 0.27922,0.1502 0.39556,0.277c0.16848,0.18364 0.30329,0.38666 0.41012,0.60464c1.31306,0.86497 2.58215,3.52065 2.06033,4.84531c-0.18386,0.46672 -0.44665,0.9852 -0.78179,1.42054c0.44287,-0.02009 0.85757,-0.02305 1.22853,-0.01063c0.88984,0.02981 2.0413,-0.35774 2.6556,0.28675c0.42579,0.44671 0.86348,1.00428 1.18872,1.60221h0.00006c0.3102,0.20385 0.61903,0.41177 0.9412,0.57977l0.00662,0.65138l0.29172,-0.08384l0.4331,1.507c0.01882,0.0624 0.03402,0.12667 0.04528,0.19258c0.14704,0.86083 -0.43158,1.67787 -1.29242,1.82491c-0.51643,0.08822 -1.01709,-0.08474 -1.36679,-0.42312l-0.72013,-0.68186c-2.34702,-0.51087 -2.89208,0.68001 -5.43968,3.48312c-0.50103,0.55126 -0.93372,0.95328 -1.30964,1.32467c-0.26115,1.26574 -0.79762,1.92894 -1.4733,2.18792c-0.06278,0.17507 -0.12244,0.36431 -0.17927,0.57058l-0.02133,0.02891l0.01029,0.00362l-0.5892,1.67678c-0.17751,0.53781 -0.63887,0.96225 -1.23604,1.06426c-0.75533,0.12902 -1.47696,-0.30066 -1.74182,-0.98947l-0.60084,-1.47067l0.37769,-0.15431c-0.14832,-0.30688 -0.27643,-0.61142 -0.38904,-0.91857c-0.25833,-0.12318 -0.5358,-0.2701 -0.83379,-0.44252c-1.33105,-0.77012 -1.85861,-1.62655 -1.89178,-2.49703c-0.03626,-0.00638 -0.07245,-0.01286 -0.10858,-0.01945c-0.23402,0.30494 -0.57918,0.52587 -0.98797,0.59569c-0.66904,0.11428 -1.31164,-0.20978 -1.63379,-0.764l-0.44439,-0.72531c-1.40036,-0.5888 -2.70868,-1.42827 -3.95341,-2.60362c-1.23571,0.26864 -2.34314,0.0211 -1.87254,-2.60973c0.54611,-3.05295 1.29962,-4.01635 2.05665,-3.97598c-0.06315,-0.74169 -0.10092,-1.46243 -0.14412,-2.06585z" fill="#baafcc"></path><path d="M248.13303,193.93227c-1.99051,2.27929 -2.24714,3.75108 -4.97554,5.55672c-2.30354,1.52447 -5.06457,2.23388 -7.81946,2.24886c-0.00554,0.0056 -0.01111,0.0112 -0.01671,0.0168c-2.12132,2.12132 -4.24264,0 -4.24264,0l-0.35758,-0.64511c-0.81782,-0.2321 -1.60884,-0.52622 -2.35859,-0.87861c-0.8393,-0.19566 -1.35592,-0.72928 -1.67055,-1.2589c-0.34569,-0.46434 -0.62603,-1.09467 -0.54059,-1.87432l-0.26153,-2.09228c-1.03655,-8.43055 -0.35889,-17.21027 -0.3565,-25.70544c0.00202,-7.18521 -0.43523,-14.3612 -0.60259,-21.55674c-0.05214,-0.09429 -0.1044,-0.18852 -0.15603,-0.28292c-0.82533,-0.6086 -1.6464,-1.19904 -2.46236,-1.81339v-0.00006c-0.21837,-0.08677 -0.43674,-0.16946 -0.65502,-0.24746c-2.19909,-0.78587 -4.59462,-1.04537 -6.58211,-2.42143c-5.52266,-3.82367 -8.48117,-12.10297 -11.05771,-18.33471c0,0 -0.6981,-1.69001 0.74236,-2.41464c0.07676,-0.03861 0.15141,-0.07037 0.22395,-0.09589c-0.41181,-1.37799 -0.69333,-2.78495 -0.88809,-4.09073l0.25221,-0.40547l-0.18367,-0.07004l0.55161,-2.18352c0.01788,-0.07688 0.03958,-0.15204 0.06495,-0.22517c-0.09753,-2.73224 1.26105,-5.26417 2.47655,-7.39726c3.43811,-6.03364 10.47774,-8.6929 15.94032,-11.6928c8.99838,-5.66765 19.34182,-8.2462 29.73621,-8.96029c0.20467,-0.01405 0.40874,-0.02327 0.61231,-0.02823c0.44116,-0.64109 1.18632,-0.76159 1.18632,-0.76159l0.44954,-0.07269c2.379,-0.38471 4.48083,-0.70803 6.94013,-0.55164c0.89365,0.05682 1.91447,-0.24885 2.67615,0.328c0.14648,0.11094 0.28498,0.23231 0.41695,0.36223l0.0463,-0.07513l0.10657,0.08938c0.78253,-0.10964 1.68209,-0.08697 2.6276,0.01527c1.87907,-0.09727 3.75112,-0.23449 5.71085,-0.19705c2.83756,0.05419 5.73507,0.79905 8.57012,0.73586c3.65956,-0.08158 5.54723,-0.69244 9.30175,0.85837c1.06941,0.44172 2.37101,0.49189 3.17876,1.42639c0.11236,0.13001 0.21646,0.2667 0.31358,0.40906l0.04454,-0.04464l0.54433,0.70801l0.92092,-0.32549c0,0 1.11176,-0.37359 1.85607,0.51578c1.05813,0.01473 1.94587,0.09831 2.12213,0.33905c0.82465,1.12634 0.59597,2.94037 0.28385,4.31634c-0.59894,2.64047 -1.85215,1.4292 -3.07359,2.63293c-2.42076,2.38564 -3.30154,6.34742 -5.47238,9.0662l0.26321,1.04557c0.02633,0.08757 0.04616,0.16981 0.06108,0.24259l0.01934,0.07684c0,0 0.00678,0.04189 0.01278,0.11387c0.00937,0.07167 0.0116,0.11398 0.0116,0.11398c0.34626,6.55912 -0.16264,13.18031 0.88318,19.64766c0.11218,0.69376 0.43473,2.68832 0.54691,3.38208l-0.14246,0.54287c1.02761,6.23132 2.93476,13.37252 1.9085,19.59381c-0.39254,2.37958 -1.81487,4.89056 -2.86347,6.89267c-0.65351,1.24776 -1.51461,3.23016 -2.61637,4.08048c-1.59607,1.23181 -3.6864,1.35746 -5.57684,1.63092c-0.06438,0.67417 -0.11108,1.34328 -0.11773,1.99979c-0.04448,4.38018 1.08122,8.48042 0.31551,12.62082c-0.34459,1.8633 -0.40096,4.12608 -1.62734,5.37104c-4.47299,4.5408 -10.77388,0.3637 -15.8754,1.19938c-2.08482,-0.4303 -4.77851,-0.95412 -7.01384,-2.12265l-1.42545,0.89087c-2.73119,2.28996 -4.94708,5.24956 -8.18165,6.82159c-0.92685,0.94325 -1.84945,1.90844 -2.74525,2.9342zM235.65466,192.51201c0.00131,0.1222 0.04317,0.10378 0.11191,0.01472c-0.03768,-0.01446 -0.07489,-0.02986 -0.11162,-0.04616c-0.00031,0.01043 -0.0004,0.02091 -0.00029,0.03145z" fill="#731d67"></path></g><g fill-opacity="0.37255" fill="#2e1340" stroke-width="0.5"><path d="M277.24072,287.29615c0.692,-0.16983 1.47692,-0.25857 2.86582,-0.32519c0.61262,-0.02938 1.2516,0.37225 1.8318,0.17338c1.42435,-0.4882 2.1833,-2.11193 3.46675,-2.89756l1.42343,-1.9928c0.54188,-0.77896 1.44362,-1.28882 2.46444,-1.28882c1.65686,0 3,1.34314 3,3c0,0.56059 -0.15376,1.08527 -0.42141,1.53416l-1.24538,2.17942c-1.06168,2.41541 -1.54539,4.20648 -4.08934,5.83837c-2.98865,1.91715 -6.58142,1.62043 -9.68378,0.33303c-0.33582,0.08382 -0.66996,0.18613 -1.00148,0.31269l-2.83099,0.71276c0,0 -1.11279,0.27819 -2.13423,-0.19754c-1.41077,-0.0346 -2.91357,-0.91751 -4.52145,-2.87378c-0.83544,-1.01647 -0.33713,-2.58493 -0.38885,-3.92575c-0.01642,-0.15352 -0.01642,-0.2467 -0.01642,-0.2467v-2.66666c0,-2.52085 0.00781,-5.0406 0.02105,-7.55958c-2.04764,0.88619 -4.10429,1.82767 -6.50244,0.66455c-3.33555,-1.61777 -4.22926,-3.93499 -5.30397,-6.44587c-0.0709,0.00501 -0.14247,0.00756 -0.21464,0.00756c-1.28772,0 -2.38595,-0.81134 -2.81139,-1.95071l-1.16701,-2.91751c-1.95371,-2.19556 -4.23896,-4.3009 -6.03601,-6.59745c-1.77785,-2.272 -2.72744,-5.06174 -4.60799,-7.26187c-0.83232,-0.97376 -1.87356,-1.98161 -2.81316,-3.07576c-0.28347,0.08879 -0.58503,0.13664 -0.89777,0.13664c-1.2413,0 -2.30652,-0.75389 -2.76277,-1.82878c-0.58963,1.67964 -1.33111,3.27738 -2.22741,4.18392c-0.03681,0.03724 -0.07393,0.07412 -0.11133,0.11066l0.03957,0.02261l-1.30444,2.28277c-0.5093,0.93087 -1.49773,1.56215 -2.63362,1.56215c-1.65686,0 -3,-1.34314 -3,-3c0,-0.39521 0.07642,-0.77257 0.21529,-1.11811l0.97572,-2.60193c1.53362,-3.97666 1.74099,-8.4107 4.20668,-12.10595c1.05726,-1.58449 1.97375,-3.69727 3.78758,-4.27899c0.19069,-0.06116 0.37715,-0.11531 0.55944,-0.16272c0.1889,-0.27274 0.44594,-0.54198 0.78862,-0.79898c2.4,-1.8 4.2,0.6 4.2,0.6c1.07703,1.45291 2.29951,2.80855 3.23111,4.35873c1.37269,2.28414 2.00128,5.15183 3.75301,7.28696c3.38493,4.12579 7.1325,8.06526 10.3578,12.36582c2.55233,3.40325 4.19798,7.94298 7.07999,11.03498c0.92786,0.99547 2.13192,1.68105 3.24849,2.46955c0.07355,-8.70123 0.18515,-17.39676 0.23599,-26.09978c-0.19644,0.0327 -0.40923,0.05041 -0.63973,0.05041c-3,0 -3,-3 -3,-3l0.07144,-2.65079c1.07182,-4.61372 3.58155,-7.87069 5.86021,-11.93758c0.23848,-0.59402 0.69159,-1.24073 1.55249,-1.55379c0.51702,-0.24894 1.1673,-0.36304 1.94115,-0.11877c0.79509,0.16228 1.30813,0.57782 1.63919,1.04653c0.60136,0.69272 0.68277,1.47932 0.60219,2.11488v0.76619c-0.01102,4.71561 0.33496,9.42855 0.32875,14.16744c1.30355,11.56237 -0.36928,23.29129 0.9839,34.81419c0.29228,2.48884 1.41523,6.04712 1.38119,9.141c0.08066,0.0695 0.16543,0.13909 0.25394,0.20837z"></path><path d="M191.36977,289.62392l0.41376,0.09548c0.10837,-1.0755 0.32334,-2.12876 0.70043,-3.14094l0.14982,-0.39952c-0.00497,-0.07061 -0.0075,-0.1419 -0.0075,-0.21377c0,-0.47172 0.10887,-0.91802 0.30287,-1.31513l1.20164,-2.60356c0.35994,-3.11309 1.0662,-6.15992 1.96558,-9.16424c2.66825,-5.79746 2.82574,-12.29853 5.75768,-18.13652c0,0 0.26829,-0.53657 -0.02632,-0.98632c0.82816,-2.77139 1.6755,-5.53988 2.68879,-8.26396l0.07011,-0.06642l-0.03511,-0.0156l1.30552,-2.93741c0.03216,-0.07697 0.06744,-0.15232 0.10568,-0.22588l0.41981,-1.67923c0.0705,-0.2811 0.16536,-0.66956 0.27737,-1.12197c-0.36694,-0.74455 -0.36694,-1.48376 -0.36694,-1.48376l0.08957,-1.39427c0.96993,-3.85249 1.52728,-7.68438 6.10419,-8.88599l2.27208,-1.29833c0.44889,-0.26765 0.97357,-0.42141 1.53416,-0.42141c0.32826,0 0.64422,0.05273 0.93984,0.15017c0.63369,-0.64845 1.73526,-1.2853 3.33755,-0.53129c2.71445,1.27739 1.43706,3.99185 1.43706,3.99185c-2.43688,5.15793 -3.60616,10.2018 -5.59877,15.51113c-3.50654,9.34319 -7.8959,17.85207 -9.20279,27.92914l-0.26426,0.27558l0.16036,0.06013l-0.97541,2.60109c-0.27761,0.79644 -0.88152,1.43994 -1.6516,1.77038c-0.0034,0.07283 -0.00742,0.14566 -0.01208,0.2185c-0.13037,2.03889 -1.57865,3.77021 -2.44836,5.6189c-0.44937,0.9552 -0.88619,1.90816 -1.31345,2.86208c1.99936,0.18154 4.02809,0.31465 5.95224,0.87239c0.65874,-0.34638 1.30672,-0.69657 1.93421,-1.0779c0.45024,-0.38412 0.90374,-0.73439 1.32772,-1.04968c0.50161,-0.37302 1.01379,-0.96886 1.5756,-1.22357c0.1851,-0.19421 0.3658,-0.39763 0.54166,-0.6114l0.57597,-0.06541l-0.13724,-0.24016l2.28759,-1.3072c0.44889,-0.26765 0.97357,-0.42141 1.53416,-0.42141c1.65686,0 3,1.34314 3,3c0,0.91826 -0.41255,1.74016 -1.06243,2.29046l-2.31853,1.98731l-0.05644,-0.06585c-0.05481,0.08078 -0.11071,0.1609 -0.16779,0.24032c-0.0259,0.03605 -0.94216,0.62789 -1.92704,1.20144c-0.0056,0.00433 -0.01121,0.00866 -0.01682,0.01298h0.88238c1.65686,0 3,1.34314 3,3c0,0.36316 -0.06453,0.71126 -0.18275,1.03344c-2.19676,0.08742 -4.32344,0.29564 -6.6061,0.30739c-2.61652,0.65413 -5.51863,0.32584 -8.21115,0.32584c-4.12235,0 -8.23076,0.03917 -12.23469,-0.76914z"></path><path d="M286.53535,250.26834c-2.96985,-0.42426 -2.54559,-3.39411 -2.54559,-3.39411l0.32153,-2.24037c0.69473,-6.21999 0.98165,-12.05141 0.98165,-18.33537c0,0 0,-3 3,-3c3,0 3,3 3,3c0,6.49529 -0.3073,12.56238 -1.01835,18.99796l-0.34513,2.4263c0,0 -0.42426,2.96984 -3.39411,2.54558z"></path><path d="M274.7995,75.98752c0.95918,2.57212 -1.62147,3.71908 -1.62147,3.71908l-2.92257,1.29808l-2.5669,1.28345c-0.41689,0.21949 -0.89175,0.3437 -1.39562,0.3437c-1.65686,0 -3,-1.34315 -3,-3c0,-0.39521 0.07642,-0.77257 0.21529,-1.1181l0.97573,-2.60193l0.41399,0.15525l0.11056,-1.04646c1.92726,-1.22404 3.90109,-2.38356 5.94279,-3.40537c0,0 2.68328,-1.34163 4.02492,1.34164c0.67482,1.34964 0.33138,2.35986 -0.17672,3.03066z"></path><path d="M250.57618,69.6927c0.39617,-0.33593 0.76467,-0.71883 1.13111,-1.10523c0.22815,-1.27799 0.9327,-3.06053 1.27374,-3.91315c0.08981,-0.75323 0.55623,-2.70916 2.97859,-2.70916c3,0 3,3 3,3l-0.19101,1.38671c-0.03841,0.0999 -0.07319,0.20118 -0.10488,0.30365c0.35117,0.05206 2.91962,0.52896 2.61088,3.30761c-0.3313,2.98165 -3.31294,2.65036 -3.31294,2.65036c-0.26245,-0.06427 -0.53499,-0.18386 -0.8067,-0.28452l-1.09276,2.4587c-0.45258,1.08307 -1.52203,1.84417 -2.76925,1.84417c-1.65686,0 -3,-1.34315 -3,-3v-2.66667h0.67087z"></path><path d="M291.9,83.725l-1.07431,-0.02997c-0.13905,0.01975 -0.28118,0.02997 -0.42569,0.02997c-0.24368,0 -0.48058,-0.02905 -0.70741,-0.08388c-2.85983,-0.61024 -5.20979,-0.74193 -7.17241,-3.72249c-0.98834,-1.50096 0.48535,-3.71842 -0.17849,-5.38845c-0.53826,-1.3541 -2.01368,-2.09371 -3.03198,-3.14829c-0.48409,-0.43052 -0.9652,-1.09554 -0.95813,-2.03548c-0.04999,-0.56977 0.07523,-1.21578 0.57638,-1.85775c0.43387,-0.68923 0.99908,-1.02619 1.55202,-1.17247c0.90317,-0.33343 1.70878,-0.08726 2.28082,0.23336l1.60958,0.71775c1.0777,0.82711 2.44137,1.37738 3.23311,2.48133c1.8776,2.61798 0.67415,3.35986 1.60842,5.6101c0.70114,0.16907 1.40227,0.33813 2.10341,0.5072c0.59404,-0.50582 1.25545,-0.84082 1.9761,-0.90098c0,0 0.18691,-0.0267 0.3867,-0.13812c0.62096,0.34301 1.23905,0.71833 1.79781,1.15453c0.85582,0.19813 1.45918,0.72607 1.45918,0.72607c0.72535,0.63783 1.88461,1.57814 3.06367,2.6053c0.09677,-0.00942 0.19489,-0.01423 0.29414,-0.01423c1.53614,0 2.80261,1.15454 2.97901,2.64323l0.32015,0.09629c0.18147,0.30687 3.37699,5.71648 3.452,5.81783c0.71049,0.95999 1.93746,1.58972 2.50565,2.608c0.11106,0.07375 0.22037,0.14992 0.32782,0.22861c2.03834,0.10394 3.87784,0.29697 4.12416,0.4736c2.26659,1.62526 2.77756,4.71125 1.88849,7.2052c1.04089,0.19739 1.95848,0.5535 2.33836,1.43459c2.3731,5.5042 -2.75945,6.90247 -5.90242,7.47018c-3.43084,0.6197 -7.58586,-2.06328 -10.05518,0.0868c0.0377,0.46021 0.01662,1.19401 -0.35844,1.857c-0.12882,0.87116 -0.63168,1.92403 -2.22532,2.32243c-0.10154,0.02538 -0.20042,0.04634 -0.2967,0.06315l-0.20783,0.93524c0.03009,3.87198 0.35067,7.70982 0.35067,11.59268c0,0.57647 -0.0331,1.15547 -0.07237,1.73484c0.28337,1.06983 0.58191,2.1377 0.71656,3.23194c0.13751,1.11753 0.24275,2.30505 0.31032,3.53306c0.37632,0.88117 0.76381,1.78419 0.97775,2.28251c0.1756,0.33565 0.27432,0.6747 0.32982,0.94983c0.05957,0.28529 0.10346,0.65229 0.06732,1.04656l-0.00839,0.94965c0.11419,1.26744 0.22838,2.53489 0.34257,3.80233c-0.00189,3.00574 0.06911,5.45744 -0.70636,7.96162c0.02812,0.16501 0.04277,0.33462 0.04277,0.50765v5c0.54941,2.10694 -0.02501,4.49964 -1.17851,6.76439c-0.50471,2.53454 -1.22783,5.02868 -2.34503,7.29223c-0.155,0.97519 -0.52712,1.91753 -1.22948,2.80705c-1.10348,1.39755 -2.5083,2.94419 -4.17017,3.54815c-1.55173,0.98277 -3.39149,1.60175 -5.18332,1.11953c-0.28222,0.08793 -0.58233,0.13531 -0.8935,0.13531c-1.4277,0 -2.62247,-0.99731 -2.92565,-2.33327l-0.65145,-2.60579l0.08557,-0.02139c-0.05313,-0.11201 -0.10409,-0.22519 -0.15266,-0.33967c-0.39412,-0.92887 0.13305,-2.0273 -0.00321,-3.02708c-0.10553,-0.77429 -0.21243,-1.54888 -0.32565,-2.32256c-1.02695,-0.88219 -1.02695,-2.35024 -1.02695,-2.35024l0.07144,-1.34921c-0.7954,-3.60253 -2.18386,-6.91873 -3.39562,-10.33312c-0.81799,-0.76631 -0.979,-1.89341 -0.979,-1.89341l-0.03981,-1.20531c-0.04606,-0.15573 -0.09131,-0.31187 -0.13569,-0.46847c-1.77246,-3.50275 -3.44443,-4.92716 -3.52131,-9.08382c-0.03699,-1.99966 -0.93578,-4.23242 0,-6c0.17946,-0.33898 0.51273,-0.38722 0.91186,-0.31098l2.08814,-5.35569c1,1.88889 2.46773,3.59674 3,5.66667c0.04818,0.18738 0.0827,0.37668 0.10573,0.56756c0.4324,0.72875 0.76915,1.43549 1.04694,2.13827c0.88512,0.14418 1.64017,0.67569 2.08551,1.41488l1.63914,2.62262l-0.14256,0.0891l0.32728,0.25424c0.39756,1.26882 0.79731,2.52746 1.19335,3.78091c1.19434,0.55961 1.61194,1.91682 1.61194,1.91682c0.17713,0.58202 0.3491,1.16774 0.51527,1.75671c0.93169,0.94641 1.90713,1.66594 3.28406,1.45888h0.63585c1.10124,-3.06255 2.20169,-5.6308 2.36723,-9.13594c0.11892,-2.51805 0.06253,-4.98581 -0.08889,-7.43474c-0.27575,-0.70328 -0.47959,-1.27267 -0.52673,-1.52867c-0.04425,-0.2403 -0.05329,-2.97271 -0.05458,-5.06154c-0.21588,-2.04661 -0.44777,-4.0999 -0.6483,-6.17843c-0.11165,-1.15728 -0.84657,-3.62639 -1.38645,-4.69021c-0.61197,-1.20587 -1.90535,-2.14685 -2.06977,-3.48909c-0.01812,-0.14796 -0.03281,-0.29598 -0.04434,-0.44406l-0.09445,0.02361l-0.07914,-0.31655l-2.95439,-1.88007l0.05039,-0.07918c-0.13604,-0.05942 -0.27119,-0.12116 -0.40537,-0.18544c-0.27784,-0.13309 -0.53689,-0.29202 -0.78152,-0.47092l0.00001,0.00004c-0.26789,0.18712 -0.56606,0.37788 -0.90261,0.55018c-2.30331,1.17916 -4.69437,2.18013 -7.00862,3.33766c0,0 -0.21847,0.10924 -0.56191,0.20303c-0.77952,0.44298 -1.54553,0.90477 -2.24541,1.46142c-1.55625,1.23778 -2.26226,3.29953 -3.67457,4.69931c-4.2191,4.18166 -10.24581,6.73691 -15.73595,8.73523l-2.21442,0.94904c-0.37864,0.17256 -0.79945,0.26869 -1.24272,0.26869c-1.3529,0 -2.49663,-0.89554 -2.87074,-2.12616c-1.44918,-0.00075 -2.8969,-0.03103 -4.32344,-0.03969c-3.35533,0.5388 -6.52241,0.76093 -10.10903,0.66372c-1.4489,-0.03927 -3.19261,-0.05793 -4.94899,-0.22616c1.2815,1.85651 2.55672,3.71669 4.07282,5.38021c1.5161,1.66352 3.9831,2.13356 5.78521,3.48199c0.43734,0.32724 2.66332,2.87193 3.57838,3.23681c1.60569,0.64027 3.58828,0.55666 5.59534,0.49783c2.46867,-0.77426 5.56872,0.14399 7.74532,1.87139c0.20772,-0.08047 0.43951,-0.14601 0.69806,-0.19302c2.95161,-0.53665 3.48827,2.41496 3.48827,2.41496c0.84238,4.64469 2.37651,7.39434 4.15907,11.73581c1.02344,2.49261 1.77161,6.03328 3.53338,8.22092c2.48152,3.08138 5.16628,6.20171 7.69607,9.36941c1.803,2.25765 6.32341,7.02526 4.38542,10.46409c-0.3865,0.68582 -0.82404,1.23572 -1.30316,1.66868c-0.89029,1.42821 -2.97028,2.09244 -5.06646,3.33083c-1.42789,-0.02227 -2.94367,0.42694 -4.28366,-0.0668c-2.99805,-1.10467 -5.20204,-3.56747 -7.38377,-5.91737l0.22603,1.01713c0.05586,0.22882 0.08547,0.46793 0.08547,0.71395c0,1.65686 -1.34314,3 -3,3c-0.56059,0 -1.08527,-0.15376 -1.53416,-0.42141l-0.03528,-0.02015l-0.16867,0.75902l-0.65748,-0.14611c-0.13439,0.99554 -0.49879,1.83607 -1.34807,2.3498c-0.54384,0.32896 -1.08,0.46046 -1.60254,0.43644c-0.51492,0.63896 -1.05542,1.24427 -1.53248,1.8304l-0.28352,0.08404l0.08276,0.09931l-1.98488,1.65406c-0.26889,0.22732 -0.57834,0.40817 -0.91593,0.53018c-0.29515,0.54827 -0.55749,1.12207 -1.06402,1.45022c-0.07095,0.04596 -0.14224,0.09132 -0.21386,0.13608l0.04613,0.04612l-0.75841,0.75841l-1.45806,2.33289c-0.52493,0.8713 -1.48018,1.45404 -2.57153,1.45404c-0.14771,0 -0.29292,-0.01067 -0.43491,-0.03129l-2.2859,2.50959c-2.07129,0.19588 -4.73128,0.84181 -6.60757,-0.50418c-2.00322,2.62901 -4.21706,2.90457 -7.41455,-1.39976c-0.41875,-0.56371 -0.5985,-2.37931 -0.66977,-4.30284c-0.07217,-0.03554 -0.14136,-0.074 -0.20766,-0.11488c-0.77829,-0.41669 -1.14523,-1.13461 -1.31823,-1.71895c-0.03674,-0.10212 -0.05303,-0.16323 -0.05303,-0.16323c-0.18988,-0.71363 -0.36931,-1.42753 -0.53859,-2.14169c-3.42212,2.48413 -8.42427,1.86037 -10.06091,-3.13045c-0.05109,-0.15579 -0.03567,-0.47748 0.02285,-0.90142c-0.04271,-0.28655 -0.07469,-0.58804 -0.09525,-0.90487c-0.0431,-0.66421 0.24162,-1.24244 0.6439,-1.79422c0.31141,-1.33312 0.64247,-2.64254 0.72038,-3.18613c0.63093,-4.4022 0.70225,-8.50514 1.63393,-12.87776l0.01076,-2.60732c0.08216,-0.45184 0.15671,-0.90505 0.22414,-1.35943c-1.56959,-0.7566 -1.56959,-2.70449 -1.56959,-2.70449c0,-3.88889 0,-9.11111 0,-13c0,-0.34257 0.01928,-0.6864 0.04596,-1.03062c-0.89165,-0.2391 -1.50062,-0.84806 -1.50062,-0.84806l-0.66666,-0.66666c-1.98797,-2.05466 -3.90613,-2.78766 -6.48068,-3.92139c-0.28558,0.18978 -0.63545,0.33664 -1.06408,0.41163c-0.16741,0.43121 -0.34948,0.85543 -0.5522,1.26917c1.1047,0.44255 1.88495,1.52312 1.88495,2.78593c0,0.75162 -0.27641,1.43867 -0.73312,1.96507l-1.97901,2.30885c-1.56358,1.87446 -4.19405,3.90903 -5.16006,6.15069c-0.41711,0.96792 0.15439,3.33026 0.19973,4.05564c0.30446,4.87143 -0.0811,9.72487 0.32877,14.60394c0,0 0.0068,0.08163 0.00467,0.21903l0.0057,0.0301c0,0 0,0.17409 -0.04193,0.4384c-0.0048,0.03482 -0.01019,0.07049 -0.01624,0.10694c1.47898,0.6344 1.70167,2.41589 1.70167,2.41589c0.03961,0.31691 0.07923,0.63381 0.11884,0.95073l0.00001,-0.00004c0.75766,0.5198 1.68636,1.56209 1.08371,3.37007c-0.94869,2.84605 -3.79474,1.89736 -3.79474,1.89736l-1.45242,-1.34647c-0.51865,0.89694 -1.4883,1.50043 -2.5989,1.50043c-0.18299,0 -0.36215,-0.01638 -0.5361,-0.04776c1.77124,1.80372 4.11629,3.20151 6.09211,4.77946c0.43597,0.1419 0.8859,0.4213 1.32123,0.90601c0.23926,0.24119 0.47746,0.54906 0.64027,0.92361c0.35394,-0.14689 0.74207,-0.22797 1.14916,-0.22797c1.6425,0 2.97671,1.31997 2.9997,2.95701c0.21321,0.41222 0.33364,0.88021 0.33364,1.37632c0,0.32453 -0.05153,0.63703 -0.14686,0.92975c0.12758,0.78678 0.23872,1.58496 0.47818,2.29405l-0.26636,0.45099l0.24519,0.03065l-0.01035,0.08275c0.24937,-0.07871 0.53003,-0.12611 0.84576,-0.13116c0.65852,-1.07341 1.28973,-2.01059 1.64376,-2.58037l-0.456,0.59c0,0 0,-3 3,-3c3,0 3,3 3,3l-0.45601,2.58999c-1.42335,2.26203 -1.97739,5.23168 -3.36461,7.35869l-1.31145,3.93437c-0.37701,1.22588 -1.5184,2.11695 -2.86792,2.11695c-1.65686,0 -3,-1.34314 -3,-3c0,-0.12687 0.00787,-0.25189 0.02316,-0.37462l0.32852,-2.95668l0.01469,0.00163l-0.01089,-0.03425c0.11021,-0.82681 0.22042,-1.6536 0.33063,-2.48041c-0.31826,0.11498 -0.66153,0.17765 -1.01945,0.17765c-0.22886,0 -0.45173,-0.02562 -0.6659,-0.07416c-0.14308,0.43603 -0.31054,0.89831 -0.50144,1.39543c-0.48886,1.27299 -0.68831,2.9803 -1.88755,3.62938c-1.87698,1.0159 -4.63329,2.098 -6.34897,0.82854c-0.15812,-0.117 -0.30521,-0.238 -0.44179,-0.36272c-0.12058,0.12356 -0.24269,0.24737 -0.36637,0.37152l0.45577,-0.06038c0,0 -0.72761,2.91043 -3.63804,2.18282c-2.91043,-0.72761 -2.18282,-3.63804 -2.18282,-3.63804l1.12244,-2.72705c1.48386,-1.47736 2.736,-2.57433 3.87074,-4.40295c0.64011,-1.03152 1.00863,-2.86225 1.68007,-4.09926c-0.4704,-0.75373 -0.75014,-1.81096 -0.75232,-3.29398c-0.0008,-0.54024 0.21294,-1.00273 0.54188,-1.42346c-3.20255,-2.26474 -7.07281,-4.81267 -7.47213,-8.63643c-0.22595,-2.16366 -0.69561,-4.896 0.79843,-6.47725c0.24624,-0.26062 0.48273,-0.50468 0.70982,-0.73295l-0.69107,-1.65856l0.03633,-0.01514c-0.81355,-1.34895 -1.31782,-2.86876 -1.24463,-4.77215c0.07504,-1.95143 -0.27525,-4.89608 1.52322,-5.65714c0.16392,-0.06937 0.33068,-0.12234 0.4997,-0.16037c0.08893,-4.57055 0.75595,-9.08663 2.55122,-13.11133c0.47057,-1.05495 0.58723,-2.29767 1.28463,-3.21854l1.30738,-3.26845c0.35287,-0.94503 1.16858,-1.66439 2.17138,-1.88229c-0.01759,-0.13142 -0.02666,-0.26552 -0.02666,-0.40175v-2.66666c-0.47484,-1.94281 0,-4 0,-6c0,-6.63449 0.97946,-12.56906 2.41358,-19.0226l0.02483,-0.03446l-0.01551,-0.00388l0.65144,-2.60578c0.276,-1.21622 1.29093,-2.15178 2.54783,-2.30971c0.02524,-0.69652 0.04448,-1.37453 0.04448,-2.02356c0,0 0,-3 3,-3c0.45346,0 0.83838,0.06855 1.16512,0.18491c1.46436,-1.76704 2.99603,-3.31516 5.01854,-4.90591c3.63971,-2.8627 8.8023,-5.29451 13.14714,-6.76856c4.19088,-3.48867 8.92316,-6.59319 13.07456,-9.43876c7.02605,-1.39367 14.01509,-2.99106 21.12963,-3.88038l0.97783,-0.26693c0,0 2.91043,-0.72761 3.63803,2.18282l0.00001,0.00001c0.27386,1.09542 0.03235,1.88163 -0.37538,2.4362c0.85454,0.29958 1.89119,1.02644 1.89119,2.78994c0,3 -3,3 -3,3l-0.15157,-0.24257c-1.78477,0.76284 -4.17741,1.87398 -6.03455,2.20383c-3.44209,0.61136 -7.54631,-0.77009 -10.98758,-0.21228c-0.30121,0.31233 -0.66955,0.55948 -1.08178,0.71824l-3.51608,1.4478c-0.74609,0.3906 -1.50875,0.80353 -2.27707,1.21072c0.03195,0.17546 0.04863,0.35625 0.04863,0.54093c0,0.39521 -0.07642,0.77257 -0.21529,1.11811l-0.97572,2.60192l-0.26519,-0.09944l-0.11665,0.23329l0.01898,0.54957c-0.18582,0.15904 -0.36262,0.32661 -0.53186,0.50128c-0.19887,0.68586 -2.34393,3.52494 -3.76475,5.47939c-0.9436,3.23461 0.63945,5.54277 2.98056,7.38249l2.32407,0.46482c4.34637,-0.18745 8.6486,-0.6552 12.72711,-1.7842c3.24038,-0.89699 6.08849,-1.34098 8.85965,-2.89175c1.12971,-1.19684 2.35871,-2.33972 3.6991,-3.42832c0.25072,-0.20362 0.51324,-0.39262 0.78248,-0.57317c0.5228,-0.67848 1.02046,-1.38606 1.51855,-2.09286c-0.04579,-0.0883 -0.0898,-0.18134 -0.13181,-0.27936c-1.18176,-2.75744 1.57568,-3.93919 1.57568,-3.93919c2.94115,-1.19892 4.57847,-4.30533 7.47425,-5.38956c1.13999,-0.42683 2.41718,-0.18425 3.64579,-0.17875c0.76468,-0.41334 1.55474,-0.76129 2.37298,-1.02529c0.08128,-0.02623 5.62132,-0.7157 6.22373,-0.79102l1.70544,-0.02317c0,0 1.44226,0 2.32675,1.00001c0.00219,0 0.00439,-0.00001 0.00658,-0.00001c1.13736,0 2.1269,0.63292 2.6356,1.56577c0.42551,-0.23431 0.89201,-0.50405 1.41293,-0.8648c0.58724,-0.40668 0.9774,-1.1325 1.60932,-1.43491c-1.90833,-1.0825 -2.51559,-2.24625 0.66349,-4.97583c-0.01779,-0.00804 -0.03563,-0.01619 -0.05353,-0.02444c-0.68097,-0.314 -1.03445,-0.897 -1.22741,-1.61839c-0.0202,-0.00946 -0.04036,-0.01935 -0.06049,-0.02969c-1.39827,-0.7184 -1.874,-2.42278 -2.35033,-4.04424c-0.16315,0.01819 -0.26292,0.01819 -0.26292,0.01819zM289.65193,155.54895c0.00335,-0.00504 0.0067,-0.01008 0.01005,-0.01513c0.00736,-0.01109 0.01468,-0.0222 0.02196,-0.03333c-0.01338,0.00069 -0.02677,0.00136 -0.04014,0.00203c0.00272,0.01548 0.00543,0.03095 0.00813,0.04643z"></path></g><g fill-opacity="0.37255" fill="#2e1340" stroke-width="0.5"><path d="M204.58103,288.72416c0.68623,-0.29014 1.35878,-0.66487 2.02818,-1.15604c0.8052,-0.59083 1.17592,-1.83442 2.13932,-2.09764c0.19633,-0.05364 0.39366,-0.10158 0.59187,-0.14447l-0.05457,-0.13643l3.68683,-1.47473c0.36148,-0.15438 0.75943,-0.23984 1.17734,-0.23984c1.65685,0 3,1.34315 3,3c0,0.82843 -0.33579,1.57843 -0.87868,2.12132l-1.8411,1.8411c-0.76232,1.10353 -1.23506,2.50112 -2.33449,3.26235c-1.10415,0.76449 -2.57057,0.8212 -3.90012,1.01063c-1.07877,0.1537 -2.20306,0.22487 -3.34873,0.24703c-2.35197,0.7217 -4.83555,1.03361 -7.31094,1.01448c-1.32994,-0.01028 -2.78287,0.27073 -3.97758,-0.31364c-1.15422,-0.56456 -1.70557,-1.92219 -2.55836,-2.88328l-0.6,-3.05c0,0 0,-2.09457 1.75018,-2.78336c0.00311,-0.28543 0.04608,-0.56129 0.12361,-0.82229l0.73192,-2.68371l0.01679,0.00458l-0.00661,-0.04099c0.85763,-2.84032 1.12342,-5.80167 2.44297,-8.50003c0.81027,-1.65693 2.10858,-3.124 2.53494,-4.91848c0.47829,-2.01306 0.718,-4.07704 1.1587,-6.09839l0.0124,-1.70585c0.45004,-4.33542 2.31119,-7.38221 3.64085,-11.40553c1.35667,-4.10505 2.59972,-8.12111 3.69173,-12.30448c0.78059,-2.99035 1.58972,-8.32412 4.07083,-10.4017c0.94126,-0.78817 1.71387,-1.33738 2.38221,-1.6927c0.06886,-0.31696 0.13594,-0.63538 0.20119,-0.95536c0.01886,-0.41788 0.24666,-2.94172 2.9983,-2.94172c3,0 3,3 3,3l-0.05826,0.83835c-0.09717,0.48577 -0.19909,0.96973 -0.30544,1.45201c0.26125,0.16292 0.53824,0.33097 0.83409,0.50194c0,0 2.4577,1.72039 0.73731,4.17808c-0.99006,1.41437 -2.2243,1.44502 -3.09378,1.21617c-2.50111,8.54612 -6.04158,16.70371 -8.75079,25.20929c-2.25197,7.07006 -2.71087,14.30129 -6.20962,21.00377c-0.82401,1.57854 -1.28401,3.41535 -2.4881,4.72721c-0.00919,0.01001 -0.01839,0.02001 -0.0276,0.03001l0.00926,0.00494l-1.97077,3.69519c-0.06966,0.13712 -0.14955,0.26817 -0.23867,0.39214c2.33113,-0.00188 4.66233,-0.00559 6.99341,0.00007z"></path><path d="M238.97432,238.55071c0.65656,1.38168 1.20075,2.8257 1.99759,4.12984c1.14484,1.87371 3.03572,3.17662 4.46045,4.84743c1.75259,2.05531 2.98298,4.50401 4.45451,6.76906c1.10295,1.69772 2.73075,3.00069 3.92096,4.63842c1.81331,2.49511 2.74861,5.59192 4.74123,7.94631c1.95862,2.31422 5.39294,3.23307 7.00609,5.80009c1.01296,1.61194 1.06587,3.65536 1.5988,5.48304c-4.78438,2.29267 -4.99217,3.93631 -9.69877,1.03548c-2.77034,-1.70745 -3.71342,-5.27089 -5.50224,-7.73993c-1.28311,-1.77103 -2.91207,-3.28774 -4.08818,-5.13156c-1.84072,-2.88578 -3.07063,-6.06152 -4.95719,-8.93425c-1.70104,-2.59024 -3.98048,-3.64413 -5.87217,-6.07341c-0.44011,-0.56519 -0.92944,-1.35367 -1.40447,-2.22123c-1.23194,0.0326 -2.44307,-0.29748 -3.40208,-0.93946c-0.12897,0.30487 -0.26192,0.60979 -0.39988,0.91471l-0.1083,0.07788l0.05182,0.02879l-1.2209,2.19762c-0.50378,0.94908 -1.50219,1.59545 -2.65157,1.59545c-1.65685,0 -3,-1.34315 -3,-3c0,-0.32419 0.05142,-0.63637 0.14656,-0.92883l0.72996,-2.43321l0.09493,0.02848c0.00274,-0.11083 0.00752,-0.22172 0.01452,-0.3327c0.02016,-0.31971 1.32223,-2.43432 2.15708,-3.79738c0.74095,-1.9637 1.45407,-3.92384 2.42366,-5.87801c0,0 0.51961,-1.03923 1.55884,-1.50082c0.17585,-0.1409 0.36791,-0.26241 0.57294,-0.36128c0.10059,-0.15233 0.20235,-0.30571 0.30535,-0.46036l0.53221,-0.89224c0.2484,-0.59064 0.71251,-1.22201 1.57962,-1.51952c0.52187,-0.24164 1.17517,-0.34834 1.94231,-0.09125c0.79009,0.17424 1.2954,0.60185 1.61857,1.07756c0.5942,0.70566 0.6645,1.49127 0.57098,2.12768c-0.01756,1.06992 -0.12477,2.30182 -0.17323,3.53758z"></path><path d="M289.3141,282.97885c2.49615,1.6641 0.83205,4.16025 0.83205,4.16025l-0.62809,0.92772c-1.15742,1.48226 -3.2669,4.47156 -4.97001,5.17982c-1.27862,0.53173 -2.76399,0.18386 -4.14805,0.22836c-2.16223,0.06953 -4.29496,0.16157 -6.43906,0.30048c-0.42575,1.13875 -1.52366,1.94952 -2.81094,1.94952c-1.52793,0 -2.78907,-1.14224 -2.97609,-2.6194l-0.74376,-5.20634l0.05043,-0.0072c-0.02468,-0.06799 -0.04903,-0.13612 -0.07303,-0.20439c-0.3183,-0.9055 0.02694,-1.9202 -0.00639,-2.87943c-0.08782,-2.52761 -0.25065,-5.05411 -0.25115,-7.58324c-0.00139,-7 0,-14 0,-21c0,-0.29211 0.00721,-0.59439 0.01904,-0.90426c-0.38331,-2.6544 -0.48007,-5.54573 -0.42834,-8.47097c-0.33242,-0.9456 -0.74352,-1.87126 -1.03705,-2.82712c-0.44268,0.03011 -0.94911,-0.05157 -1.52207,-0.30621c-2.74143,-1.21842 -1.52302,-3.95985 -1.52302,-3.95985l1.1501,-2.5432c0.59882,-1.02565 0.76431,-2.4894 1.79645,-3.07696c0.02997,-0.01706 0.06023,-0.03288 0.09076,-0.04751l-0.04202,-0.02802l0.33739,-0.50609c0.07975,-0.31974 0.16344,-0.64286 0.25042,-0.97022l0.58295,-0.27984l0.06136,-0.09204l-0.2437,-0.21324l1.73883,-1.98723c0.55009,-0.63533 1.36256,-1.03725 2.2689,-1.03725c1.65685,0 3,1.34315 3,3c0,0.63039 -0.19443,1.21536 -0.5266,1.69823l-0.21307,0.3196c0.56212,0.90557 0.48083,1.96226 0.48083,1.96226c-0.23544,3.03286 -0.53699,6.43405 -0.64414,9.81339c0.13264,0.55086 0.257,1.12336 0.36424,1.72598c0.40287,2.26385 0.15356,4.98281 0.06574,7.41349c0.4535,2.61324 1.57018,5.0946 1.95299,7.72119c1.19144,8.17471 -0.4215,16.79161 -0.69449,25.0625c1.29654,-0.10557 2.51717,-0.20113 2.84936,-0.21442c1.65608,-0.06624 3.40675,0.78507 4.96708,0.22615c1.30992,-0.46922 1.67814,-2.22001 2.52999,-3.32018l0.37191,-0.57228c0,0 1.6641,-2.49615 4.16025,-0.83205z"></path><path d="M286.9,249.725c-3,0 -3,-3 -3,-3c0,-5.75 0,-13 0,-18.75c0,0 0,-3 3,-3c3,0 3,3 3,3c0,5.75 0,11.5 0,17.25v1.5c0,0 0,3 -3,3z"></path><path d="M204.76878,198.36803c0.98116,0.12973 2.02104,0.55485 3.12796,1.36799c0.2695,0.19797 0.62911,0.76665 0.98381,1.51784c0.54837,-0.14603 1.21662,-0.12098 2.01086,0.24004c2.7311,1.24141 1.48969,3.97251 1.48969,3.97251c-0.41787,0.9193 -0.83573,1.83859 -1.2536,2.75789l-0.00648,0.00656l0.00286,0.00132l-1.47167,3.18862c-0.46197,1.06179 -1.52039,1.80421 -2.75221,1.80421c-1.65685,0 -3,-1.34315 -3,-3v-2.75c-0.22143,-0.78028 0.05332,-1.62158 0.05413,-2.43268c0.00032,-0.31569 0.16048,-1.24497 0.06194,-0.94505c-0.74055,2.25388 -3.18135,3.71422 -4.73648,5.49075l-0.17753,0.08305l0.04103,0.04616l-2.2404,1.99147c-0.53108,0.47647 -1.23304,0.76631 -2.00269,0.76631c-1.65685,0 -3,-1.34315 -3,-3v-2.5h0.10163c-0.02476,-0.1724 -0.04376,-0.34585 -0.05613,-0.52051c-0.18598,-2.62451 2.94057,-5.74793 2.96459,-8.23366c0.00592,-0.61314 -0.87528,-0.90931 -1.08486,-1.48555c-0.23381,-0.64287 -0.20142,-1.3499 -0.25942,-2.03515l-1.37856,-1.20624c-0.63533,-0.55009 -1.03725,-1.36256 -1.03725,-2.2689c0,-1.65685 1.34315,-3 3,-3c0.56059,0 1.08527,0.15376 1.53416,0.42141l3.45426,1.97386l-0.08125,0.14219c0.2072,0.07489 0.41224,0.15668 0.61483,0.24634c1.86239,0.82428 2.40575,3.28708 3.628,4.9162l1.09615,1.6359c0,0 0.2133,0.31996 0.37263,0.80713z"></path><path d="M266.52868,77.09632c-2.12132,-2.12132 0,-4.24264 0,-4.24264l2.84971,-1.86636c0.91667,-0.08333 1.83333,-0.16667 2.75,-0.25c0,0 2.98768,-0.27161 3.25929,2.71607c0.27161,2.98768 -2.71607,3.25929 -2.71607,3.25929c-0.91667,0.08333 -1.83333,0.16667 -2.75,0.25l0.84971,0.13364c0,0 -2.12132,2.12132 -4.24264,0z"></path><path d="M283.93132,79.29436c-0.80358,-0.50355 -1.62855,-0.99077 -2.00797,-1.8182c-0.56266,-1.22704 -0.00564,-2.69978 -0.00847,-4.04967c0,0 0.29851,-2.98511 3.28362,-2.6866c2.69931,0.26993 2.71366,2.73665 2.69167,3.20651c0.61184,0.59782 0.85587,1.32992 0.85587,1.32992l-0.00266,0.44334c0.2193,0.07294 0.43655,0.14836 0.63494,0.24673l0.07486,0.72906l0.31928,-0.17738l1.22353,2.20236c0.25689,0.44229 0.40399,0.95625 0.40399,1.50457c0,1.65685 -1.34315,3 -3,3c-0.95774,0 -1.81066,-0.4488 -2.35992,-1.14756l-1.98269,-2.47836z"></path><path d="M276.12686,138.14086c-0.46257,-0.36004 -2.17379,-1.9038 -0.72301,-4.07996c1.6641,-2.49615 4.16025,-0.83205 4.16025,-0.83205l1.95938,2.13411c0.63926,2.1339 1.64106,4.16661 2.0825,6.35003c0.09024,0.44635 0.15641,0.905 0.20377,1.37298c0.14571,0.27843 0.24898,0.58257 0.30122,0.90384l0.49064,2.69853l-0.01029,0.00187l0.01415,0.01985c0.23497,1.41668 0.47662,2.82071 0.71291,4.22033c1.21176,2.54402 2.81823,5.33883 4.29348,7.58019c0.17161,0.26073 0.4913,0.57007 0.87673,0.91176c0.18366,0.01663 0.36823,0.0426 0.55346,0.07839c0.70792,0.13677 1.32382,0.31244 1.85592,0.52127c3.13871,-10.47399 3.13284,-21.65155 2.01346,-32.53533c-0.06061,-0.58935 -0.14176,-1.17243 -0.23938,-1.75053c-0.45005,-0.71213 -0.51213,-1.50529 -0.52069,-1.71052c-0.9113,-2.27378 -2.45142,-4.26405 -3.65644,-6.40398c-0.95268,-1.69181 -1.22265,-3.68602 -1.87344,-5.51531c-0.48412,-1.3608 -2.64752,-1.76663 -2.94275,-3.18049c-0.06599,-0.31603 -0.11395,-0.6337 -0.14719,-0.95272l-0.26612,0.07603l-0.98096,-3.43338c-0.08739,-0.28143 -0.13446,-0.58061 -0.13446,-0.89079c0,-1.65685 1.34315,-3 3,-3c1.03773,0 1.9524,0.5269 2.49108,1.32776l0.1191,0.17203c-0.00051,-0.01685 -0.00095,-0.03372 -0.00132,-0.05059c-0.02726,-1.22835 1.19561,-2.14687 1.80239,-3.21524c0.94469,-1.66331 1.90114,-3.31992 2.85185,-4.97981l1.19288,-2.8488c0.13152,-0.33545 0.32172,-0.64146 0.55795,-0.90539c-0.00464,0.00002 -0.00928,0.00003 -0.01392,0.00003c-1.65685,0 -3,-1.34315 -3,-3c0,-0.58222 0.16585,-1.12569 0.45289,-1.58577l1.47463,-2.45772l0.4056,0.24336c0.27541,-0.60774 0.65636,-1.13822 1.20914,-1.54289c0.55192,-0.40403 1.22008,-0.46161 1.9195,-0.31409c0.36123,-0.25385 2.47739,-1.59332 4.1563,0.56528c0.8187,1.05262 0.80559,2.00126 0.53839,2.73038c1.07636,1.70352 2.05714,4.37949 2.83108,6.57126c0.55233,-0.2595 1.14196,-0.45303 1.71167,-0.60096c4.27446,-1.1099 12.45148,3.44761 7.42212,9.01247c-2.42943,2.68811 -9.5504,-0.03499 -12.68206,0.79843c-1.15346,0.30697 -2.1957,1.00521 -3.14209,1.84253c-0.86971,1.7057 -1.98949,3.35876 -3.36545,4.60082c0.73738,0.82349 0.81163,1.93735 0.81163,1.93735c0.39254,6.27242 3.30817,11.73131 3.99521,17.93788c0.89529,8.08781 1.08644,16.36502 -0.02772,24.41885c0.85426,0.28863 1.53613,0.9515 1.85054,1.79354l0.97405,2.43512l-0.07917,0.03167c0.07201,0.12123 0.14135,0.24421 0.2077,0.36914c0.46624,0.87792 0.2487,1.97324 0.32569,2.96429c0.49349,6.35238 -1.24135,9.12626 -6.0843,13.06632c-1.77396,1.44324 -4.71021,3.72182 -7.28465,2.866c-1.04492,-0.34736 -1.8901,-0.7137 -2.59064,-1.1056c-0.37159,0.16606 -0.76221,0.23892 -1.1795,0.16862c-0.20856,-0.03514 -0.41007,-0.08849 -0.60509,-0.15781c-1.26797,0.03373 -2.52637,-0.14701 -3.36679,-0.96715c-0.86,-0.83924 -0.97026,-2.14623 -0.92578,-3.44894c-0.93637,-1.47991 -1.1545,-3.80506 -1.2482,-6.00206c-1.44455,-2.78723 -2.54723,-5.6966 -2.92028,-8.96715c-0.38802,-3.40177 0.50817,-8.23712 -0.24041,-11.69115c-0.34289,-1.58214 -1.01892,-3.07007 -1.56715,-4.59615z"></path><path d="M207.33709,105.08474c2.50053,-1.80798 5.52941,-2.78614 8.06346,-4.54683c2.87751,-1.99933 5.34134,-4.33308 8.83957,-5.4216c0.63547,-0.19774 1.27387,-0.39074 1.91461,-0.5801c4.98348,-4.36477 12.7013,-7.35268 18.78457,-8.47581c4.18951,-1.25407 8.34151,-1.33111 12.71071,-1.3354h2.5c1.65685,0 3,1.34315 3,3c0,1.30189 -0.82928,2.41009 -1.98843,2.82518l-3.18463,1.22486l-0.02448,-0.06366c-0.07176,0.04897 -0.14401,0.09728 -0.2168,0.14489c-0.73806,0.48273 -1.74145,0.29611 -2.59303,0.52537c-2.23663,0.60212 -4.50217,1.09747 -6.72641,1.74387c-6.45195,1.87506 -12.73796,4.54883 -19.22591,6.24353c-0.16803,0.04389 -0.3342,0.08622 -0.49868,0.12737c-0.93499,1.19907 -1.55755,2.65014 -2.59192,3.76854c-0.96329,1.04154 -3.51031,2.15198 -3.21348,3.92282c0.47022,2.80524 2.72467,3.13573 4.45835,4.99179c1.47042,1.57421 1.95334,2.89247 2.90957,4.00027c1.28759,0.10561 3.07821,0.04578 3.64586,0.04518c4.64124,-0.0049 10.18417,0.7157 14.81436,0.0318c6.13175,-0.90569 11.97017,-5.19087 17.11366,-8.33697c2.19526,-1.34276 3.82271,-3.70172 6.26592,-4.50973c0.13364,-0.0442 0.26774,-0.08659 0.40226,-0.12729l-0.02796,-0.06524l5.18904,-2.22388c0.37864,-0.17256 0.79945,-0.26869 1.24272,-0.26869c1.65685,0 3,1.34315 3,3c0,0.63039 -0.19443,1.21536 -0.5266,1.69823l-1.47725,2.21587l-0.011,-0.00733l-0.00807,0.03558c-1.39962,1.99244 -2.73048,4.1362 -4.65958,5.69442c-0.74494,0.60172 -1.79547,0.72484 -2.56337,1.29695c-1.74183,1.29773 -2.975,3.20171 -4.72815,4.4841c-3.90654,2.85754 -9.04175,4.59229 -13.63618,5.80674c-7.12017,0.03603 -13.7778,-0.74847 -20.57926,-1.97842c-1.35346,1.37063 -3.30195,0.48496 -3.30195,0.48496c-1.11269,-0.5345 -2.37683,-0.82906 -3.33808,-1.6035c-0.085,-0.06848 -0.1676,-0.1392 -0.248,-0.21198c-0.84364,-0.14734 -1.68668,-0.29674 -2.50816,-0.53435c-0.91808,-0.26555 -1.95107,-1.61342 -2.73092,-1.62816l-0.4271,2.64804l-0.01081,-0.00174c0.00233,0.03385 0.00386,0.0674 0.00448,0.1006c0.02918,1.56726 -0.37799,3.1694 -0.05041,4.70233c0.2493,1.16663 0.70189,2.27104 1.18929,3.36584c0.78745,0.17079 1.45964,0.65076 1.88309,1.30644l1.47419,2.21128l-0.11024,0.07349c0.14469,0.16075 0.28202,0.32862 0.41072,0.50485c0.13294,0.18205 0.26023,0.74918 0.37642,1.48986c0.53196,0.2224 1.06436,0.46025 1.59763,0.70614c0.13408,-0.03058 0.26657,-0.06102 0.39689,-0.09176c2.5757,-0.60766 5.18167,0.98931 7.25981,2.09285c1.11741,0.59337 2.16653,1.19656 3.18952,1.7937c4.04218,0.28768 9.04359,-0.51095 12.56405,1.89888c0.18425,-0.03538 0.37449,-0.0539 0.56906,-0.0539c1.19761,0 2.23131,0.70175 2.71235,1.71649l1.22093,2.44187l-0.03382,0.01691l0.07207,0.06249c1.17349,2.80416 1.57731,5.52067 1.69292,8.2323c0.07889,0.24395 0.15516,0.48873 0.22819,0.73454c1.78056,5.99364 4.38748,11.84493 6.44272,17.81523c0.13157,0.38221 0.40365,1.1949 0.69229,2.15832c0.12155,0.08593 0.24604,0.16936 0.37178,0.25166c0.95954,0.17943 1.95936,0.26882 2.8914,0.50654l0.23989,0.2522l0.06091,-0.12182l2.44187,1.22093c1.01474,0.48103 1.71649,1.51474 1.71649,2.71235c0,1.58257 -1.22541,2.87894 -2.77914,2.99199l-2.97172,0.24764l-0.01128,-0.13539c-0.35472,0.05208 -0.71452,0.0643 -1.0809,0.02486c-0.39222,-0.04222 -0.76087,-0.14878 -1.1117,-0.30322c-2.28623,3.59908 -4.5905,2.41982 -6.76719,0.03738c-0.40735,0.90472 -0.90872,1.81958 -1.50208,2.7552c-0.73398,1.15736 -1.05758,2.69304 -2.17177,3.49103c-0.09676,0.0693 -0.19497,0.13596 -0.29452,0.20019l0.06163,0.06163l-1.39955,1.39955c-0.20526,0.32192 -0.49029,0.62662 -0.88607,0.85211c-0.50737,0.39307 -1.14422,0.62702 -1.83571,0.62702c-1.65685,0 -3,-1.34315 -3,-3c0,-0.42699 0.08921,-0.83315 0.25,-1.20086v-1.04914c0,-1.96116 0.31803,-3.94468 0.02248,-5.88345c-0.49231,-3.22948 -1.76207,-6.41162 -2.23615,-9.65112c-0.40593,-2.77385 -0.28654,-6.78746 -0.28632,-9.46543c0.00019,-2.34938 -0.59558,-4.88161 -0.36384,-7.19713c-0.25798,-0.02605 -0.52553,-0.06832 -0.80305,-0.12794c-2.29816,-0.49369 -3.12584,-3.82384 -5.34441,-4.60053c-1.42987,-0.50058 -2.98745,-0.38779 -4.56176,-0.22828c0.82306,0.88721 0.82306,2.15388 0.82306,2.15388c0,5.98275 -0.39416,12.11729 -0.00412,18.09276c0.44273,6.78266 1.44251,13.46449 1.75035,20.25678c0.1192,2.6302 1.64644,5.37724 1.25005,8.00103c-0.2726,1.80444 0.18755,4.61134 -1.51818,5.26004c-2.09988,0.7986 -4.55304,-0.91587 -6.34639,-2.26908c-0.97967,-0.73923 -0.86138,-2.29902 -1.25022,-3.46307c-1.27362,-3.81277 -1.8651,-6.6467 -1.88149,-10.62845c0,-0.25153 0,-0.50306 0,-0.75459c-0.21533,0.65524 -0.49874,1.30217 -0.86473,1.93824c-1.53475,2.66724 -5.21098,6.74119 -9.20207,4.37469c-1.76238,-1.045 -1.92272,-3.71381 -2.18255,-5.74617c-0.39723,-3.10712 1.62105,-7.35202 2.54523,-10.33481c0.20008,-3.69494 0.43946,-7.37937 0.70412,-11.05967c0,-3.54026 0,-7.08052 0,-10.62077c-1.85523,-3.31833 -2.79241,-6.99504 -4.08878,-10.5006c-0.1053,-0.04103 -0.20771,-0.08783 -0.30684,-0.14003l-2.76887,-1.38443c-0.42798,-0.11351 -3.55196,-0.95021 -4.70087,-1.65069l-2.09177,0.52294c-0.25256,0.06903 -0.51841,0.10589 -0.79287,0.10589c-0.00562,0 -0.01123,-0.00002 -0.01684,-0.00005c-0.44884,1.07482 -0.89676,2.03348 -1.39405,2.97079l0.3625,0.06591l-0.08876,0.48816c0.24647,0.43561 0.38715,0.93896 0.38715,1.47518c0,0.22288 -0.0243,0.44008 -0.07041,0.64909l-0.98785,4.93926l-0.05375,-0.01075c-0.01418,0.13209 -0.03091,0.2641 -0.05037,0.39601c-0.30934,2.09702 -1.89659,3.79165 -2.82035,5.69949c-0.3236,0.66833 -0.67512,1.3719 -1.03322,2.09662c-0.06303,2.62998 -0.37033,4.62952 -1.85423,7.4239c-0.39036,0.7351 -0.86803,1.54843 -1.33481,2.39843c-0.02323,1.2343 0.07048,2.47471 0.31036,3.23769c0.50547,1.60767 3.33361,3.50271 3.13251,5.15084c-0.72134,5.91189 -4.54041,7.62908 -9.3592,3.89074c-1.31481,-1.02001 -1.48886,-3.01416 -1.83994,-4.64077c-0.70946,-3.28708 0.5271,-6.65274 2.06809,-9.68955c0.00114,-0.00946 0.00228,-0.01891 0.00343,-0.02837c-0.81908,-0.53562 -1.36026,-1.46093 -1.36026,-2.51263c0,-0.25483 0.03177,-0.50225 0.09158,-0.73849l0.73525,-3.18608l0.07135,0.01647c0.002,-0.1015 0.00547,-0.20306 0.01052,-0.30468c0.05656,-1.13892 0.89621,-2.09855 1.40353,-3.11981c1.61456,-3.25024 3.43389,-6.16975 5.07354,-9.37171c0.23555,-1.52291 0.42678,-3.08816 0.64055,-4.69217c0,0 0.08607,-0.64551 0.47875,-1.29493c0.04292,-6.06157 0.36074,-12.00564 1.04877,-17.94661c-0.52797,-1.14726 -0.97931,-2.32083 -0.40435,-3.29716c0.36743,-0.62392 0.72112,-1.16535 1.06183,-1.63158c0.31553,-2.08538 0.67981,-4.17426 1.09694,-6.27158c0,0 0.13695,-0.68475 0.60907,-1.32744c0.20946,-0.68297 0.44367,-1.21429 0.69058,-1.50524c0.16012,-0.18869 0.3291,-0.36732 0.50569,-0.53733l-0.07506,-0.06881l2.74248,-2.99179c0.48463,-0.53233 1.1582,-0.88959 1.91472,-0.96579c0.96772,-1.14965 2.00381,-2.19151 2.99134,-2.90553zM252.18662,177.64131l0.42658,-1.84852c-0.28733,-0.55879 -0.6258,-1.09879 -0.95362,-1.64381c0.17395,1.16502 0.35435,2.32789 0.52704,3.49233zM252.36752,178.88599c0.03078,-0.07467 0.06161,-0.14936 0.09249,-0.22406l-0.12869,-0.0297c0.01213,0.08457 0.0242,0.16916 0.0362,0.25376zM220.81263,184.94371c-0.02106,0.08206 -0.03939,0.16855 -0.05554,0.25864c0.10679,-0.25389 0.17636,-0.42414 0.18164,-0.45789c0.02704,-0.17304 0.04879,-0.34565 0.06575,-0.51787c-0.0662,0.2384 -0.13031,0.4774 -0.19185,0.71712z"></path></g><path d="M192.26094,181.71043c-2.91043,0.72761 -3.63803,-2.18282 -3.63803,-2.18282l-0.39974,-1.68884c-0.34254,-2.78595 -0.43147,-4.25994 -0.02317,-5.67724v-0.36153l-0.31017,-0.03877l0.3284,-2.62718c0.16549,-1.50033 1.43734,-2.66738 2.98177,-2.66738c1.65685,0 3,1.34315 3,3v2.72949l0.60769,3.34229c0.03868,0.19228 0.05898,0.39121 0.05898,0.59489c0,0.61309 -0.18391,1.18322 -0.49956,1.65824l0.07666,0.28082c0,0 0.72761,2.91043 -2.18282,3.63803z" fill-opacity="0.1098" fill="#f6d1ff" stroke-width="0.5"></path><path d="M189.86667,190.46666c0,-3 3,-3 3,-3l2.59,0.45601c1.47421,0.92564 5.1014,2.93909 5.79344,4.60486c0.54594,1.31411 0.50837,4.18466 0.07092,6.94157c0.82004,2.88403 0.5228,7.04548 0.48438,9.60076l-0.39614,0.48649l0.21484,0.09207l-0.97276,2.26978c-0.44334,1.10303 -1.52306,1.88179 -2.78467,1.88179c-1.19761,0 -2.23131,-0.70175 -2.71235,-1.71649l-0.82607,-1.65213c-0.15046,0.02324 -0.30462,0.03529 -0.46159,0.03529c-1.65685,0 -3,-1.34315 -3,-3c0,-0.6629 0.21501,-1.27559 0.57909,-1.77212l2.44116,-3.41763c0.03238,-0.55098 0.23162,-1.16458 0.49447,-1.80808c-0.16111,-0.96759 -0.32223,-1.93518 -0.48334,-2.90276l0.02139,-0.06434l-0.0296,0.0037l-0.32747,-2.61972c-0.01914,-0.13694 -0.02903,-0.27684 -0.02903,-0.41905c0,-0.30267 0.04482,-0.59487 0.12819,-0.87032c-0.49182,-0.16772 -0.98444,-0.33674 -1.38485,-0.58568l0.59,0.45601c0,0 -3,0 -3,-3z" fill-opacity="0.1098" fill="#f6d1ff" stroke-width="0.5"></path><path d="M209.13906,113.55624c2.91043,-0.72761 3.63803,2.18282 3.63803,2.18282l0.20127,0.80506c1.3667,1.60242 2.05775,4.06542 3.06684,5.95623c1.52536,2.85816 0.87443,6.41495 2.92186,9.21218c1.69819,2.3201 3.96157,3.99343 6.03893,5.92032c0.36066,0.09427 0.7459,0.17282 1.15981,0.23457l0.08435,0.06531l0.01079,-0.04317l2.60579,0.65145c1.33596,0.30317 2.33327,1.49794 2.33327,2.92565c0,1.23947 -0.75167,2.30338 -1.82404,2.76075l-0.72462,1.69079c-0.44334,1.10303 -1.52306,1.88179 -2.78467,1.88179c-1.19996,0 -2.23537,-0.70451 -2.71517,-1.72247c-0.55027,0.64605 -1.3697,1.0558 -2.28483,1.0558c-0.24603,0 -0.48513,-0.02962 -0.71396,-0.08548l-2.93684,-0.65263l0.06129,-0.27582l-0.73348,0.03979c-1.02749,-0.85549 -2.26412,-1.50916 -3.08246,-2.56647c-0.10775,-0.13922 -0.20776,-0.27574 -0.30066,-0.40998c-1.90268,-0.10442 -3.80317,-0.24596 -5.27834,-1.76794c-0.43234,0.57416 -1.15177,1.05186 -2.34889,1.05186c-0.5938,0 -1.07006,-0.11753 -1.45206,-0.30607l-1.4624,3.16853c-0.46197,1.06179 -1.52039,1.80421 -2.75221,1.80421c-1.65685,0 -3,-1.34315 -3,-3v-2.52677c-0.67212,-5.4093 -0.66438,-11.00999 -0.66666,-16.45496c-0.08393,-0.2576 -0.15107,-0.52059 -0.19688,-0.79044c-0.44053,-2.59491 -1.66327,-6.14379 0.30592,-7.89018c2.00752,-1.78039 4.72729,-0.78182 6.95118,0.94603c0.93247,-1.19824 2.46181,-2.24829 3.98949,-2.54302c0.31796,-0.55929 0.88858,-1.06757 1.88934,-1.31776zM206.53913,131.65308c-0.03813,-1.14825 -0.2904,-2.23245 -0.62736,-3.29552c-0.05761,1.33203 -0.04497,2.86008 -0.05944,4.40475c0.19601,0.37204 0.42386,0.72758 0.66389,1.07683c0.01446,-0.93155 0.03842,-1.71913 0.02291,-2.18606z" fill-opacity="0.1098" fill="#f6d1ff" stroke-width="0.5"></path><path d="M295.54995,83.14164c-1.34164,2.68328 -4.02492,1.34164 -4.02492,1.34164l-1.84012,-0.92585c-0.78382,-0.33592 -1.52402,-0.75747 -2.23301,-1.23409l-0.10032,0.23409l-2.26978,-0.97276c-1.10303,-0.44334 -1.88179,-1.52306 -1.88179,-2.78467c0,-1.26161 0.77876,-2.34133 1.88179,-2.78467l2.26978,-0.97276c0,0 2.75744,-1.18176 3.93919,1.57568c0.18292,0.42682 0.27146,0.81589 0.29046,1.16867c0.15476,0.09861 0.31016,0.18836 0.4672,0.25566l2.15988,1.07415c0,0 2.68328,1.34164 1.34164,4.02492z" fill-opacity="0.1098" fill="#f6d1ff" stroke-width="0.5"></path><path d="M212.2,189.46666c0,-2.27354 1.72299,-2.82408 2.55745,-2.9574c-0.13712,-3.47083 1.02522,-7.64282 1.52546,-9.74304c0.28171,-1.18272 0.69574,-2.32996 1.04361,-3.49494c0,0 0.5437,-1.81234 2.20683,-2.1266c-0.00001,-0.00379 -0.00001,-0.00757 -0.00002,-0.01136v-2.66667c0,-1.65685 1.34315,-3 3,-3c1.45381,0 2.66609,1.03411 2.94138,2.40689l0.65385,2.94232l-0.0084,0.00187c0.00507,0.00976 0.01012,0.01954 0.01516,0.02932c1.80725,3.50855 0.4789,7.51068 -0.34297,10.94989c-0.24242,1.01444 -0.05208,2.13634 -0.46454,3.09433c-0.11902,0.27645 -0.24808,0.54355 -0.38646,0.80179c0.07794,0.86365 0.12486,1.71683 -0.25387,2.46153c-0.84261,1.65681 -2.10993,3.7055 -3.95495,3.93108c-1.27381,0.15574 -2.29634,0.04493 -3.11038,-0.27197c-0.30114,0.14088 -0.60387,0.27741 -0.90706,0.41038l-1.51509,0.24256c0,0 -3,0 -3,-3z" fill-opacity="0.1098" fill="#f6d1ff" stroke-width="0.5"></path><path d="M231.19073,238.92591c1.87409,-2.34261 4.21669,-0.46852 4.21669,-0.46852l2.55002,2.49418c0.06829,0.1605 0.13395,0.31372 0.19719,0.46063c1.8191,-0.10629 2.72866,1.71282 2.72866,1.71282c2.98154,5.99556 6.76127,12.11695 10.63529,17.62036c4.3563,3.11543 8.90241,6.14031 10.1499,11.98229c0.03074,0.14396 0.05572,0.28828 0.07552,0.43293l0.05124,-0.01139l0.65263,2.93684c0.05586,0.22882 0.08548,0.46793 0.08548,0.71396c0,1.65685 -1.34315,3 -3,3c-0.73771,0 -1.41322,-0.26627 -1.93568,-0.70794l-1.98487,-1.65406l0.10009,-0.12011l-0.37838,-0.14369c-1.29575,-1.79094 -2.64265,-3.43902 -3.53988,-5.48302c-0.37105,-0.84528 -0.34519,-1.85163 -0.81323,-2.64732c-0.96651,-1.64307 -2.79019,-2.6327 -3.90029,-4.18238c-0.0487,-0.06798 -0.09737,-0.13606 -0.14603,-0.20424c-0.93165,-0.58846 -1.8444,-1.20167 -2.68395,-1.90982c-2.91048,-2.45498 -4.69617,-5.51851 -7.01693,-8.35361c-0.67063,-0.81925 -1.84167,-1.21732 -2.3333,-2.15499c-1.29199,-2.46419 -1.28535,-6.21 -2.45832,-8.92373l-0.78332,-0.17248c0,0 -2.34261,-1.87409 -0.46852,-4.21669z" fill-opacity="0.1098" fill="#f6d1ff" stroke-width="0.5"></path><path d="M211.53334,197.46666c1.93962,0 2.6252,1.25404 2.86752,2.14055c2.21149,-0.00408 2.355,3.28786 3.61778,6.1655c0.91075,2.07543 1.70061,4.2826 1.84431,6.54451c0.08584,1.35118 -0.33543,2.79337 -0.26655,4.13042c0.18296,0.11558 0.35889,0.24205 0.52585,0.38243c0.94978,0.79859 1.43698,2.03306 2.2854,2.93859c0.99536,1.06235 2.55897,1.64992 3.22608,2.94386c0.03111,0.06033 0.06098,0.1211 0.0897,0.18228c0.38826,-0.01548 0.77688,-0.02098 1.16584,-0.01457l0.53993,0.46136l0.11245,-0.2249l2.60854,1.30427c1.01474,0.48103 1.71649,1.51474 1.71649,2.71235c0,1.19761 -0.70175,2.23131 -1.71649,2.71235l-2.60854,1.30427l-0.09432,-0.18865c-0.50989,0.27722 -1.0535,0.4553 -1.64985,0.47824c-1.14685,0.04412 -2.06844,-0.67634 -2.92448,-1.57058c-0.73168,0.22286 -1.46543,0.31801 -2.20365,0.13727c-0.30363,-0.07434 -0.59385,-0.17734 -0.87288,-0.30395c-1.34508,0.27754 -2.70489,0.48943 -4.12718,0.42797c-1.61385,-0.06973 -3.54863,0.28812 -4.78802,-0.74788c-1.15642,-0.96666 -0.8747,-2.88488 -1.29089,-4.33351c-1.68459,-5.86355 -1.7237,-11.2014 -1.7237,-17.24886c0,0 0,-0.82638 0.43372,-1.61171c0.07904,-0.70363 0.12882,-1.45239 0.27978,-2.13899c-0.01279,-0.13911 -0.02684,-0.27803 -0.04225,-0.41674l-0.00459,-3.1659c0,0 0,-3 3,-3z" fill-opacity="0.1098" fill="#f6d1ff" stroke-width="0.5"></path><path d="M253.45458,226.56156c-0.1366,-0.20762 -0.26254,-0.41732 -0.37657,-0.62905c-3.14114,-4.26829 -4.53472,-9.32568 -4.54468,-14.79918v-2.66667c0,-1.65685 1.34315,-3 3,-3c1.4277,0 2.62247,0.99731 2.92565,2.33327l0.65145,2.60579l-0.1767,0.04418c0.4464,0.6446 0.88229,1.29507 1.30922,1.95132l3.1109,1.29621l-0.0133,0.03192c0.06111,0.01473 0.12216,0.02977 0.18314,0.04513c0.11406,0.02871 4.43614,2.55153 4.70935,2.68808c3.41994,1.70918 7.26665,3.82429 11.1164,4.00783c2.72211,0.12978 7.18622,-0.7157 8.5941,3.11595c0.69848,1.90096 0.03232,4.24843 -0.99528,5.99358c-0.79048,1.34246 -2.49864,1.96531 -3.97826,2.45291c-2.62773,0.86596 -6.48488,0.46587 -9.805,0.22682c-0.22121,1.43866 -1.46445,2.54034 -2.96501,2.54034c-0.14221,0 -0.28211,-0.0099 -0.41905,-0.02903l-1.57572,-0.19696c-1.18433,0.65313 -2.36589,1.00853 -3.37178,0.87019c-4.07292,-0.56017 -5.56639,-5.56648 -7.23818,-8.48911z" fill-opacity="0.1098" fill="#f6d1ff" stroke-width="0.5"></path><path d="M251.06667,73.86666c-2.4,-1.8 -0.6,-4.2 -0.6,-4.2l1.09534,-1.45389c1.01841,-1.20989 1.92187,-2.52439 2.69993,-3.9012c0,0 1.48842,-2.60473 4.09315,-1.11631c2.60473,1.48842 1.11631,4.09315 1.11631,4.09315c-0.9652,1.67384 -2.0691,3.27615 -3.30007,4.76547l-0.90466,1.21278c0,0 -1.8,2.4 -4.2,0.6z" fill-opacity="0.37255" fill="#2e1340" stroke-width="0.5"></path><path d="M188.80836,293.65828c-2.68328,-1.34164 -1.34164,-4.02492 -1.34164,-4.02492l0.93713,-1.82246c2.47205,-3.67642 3.78174,-7.63319 3.74615,-12.0859c0,0 0,-0.14255 0.03107,-0.36549c0.02393,-0.22383 0.0585,-0.36212 0.0585,-0.36212l0.53695,-2.13444c1.99803,-6.65785 2.92814,-13.58008 4.44316,-20.2808c1.08524,-4.79985 -0.17728,-10.00155 1.98537,-14.67521c0.73969,-1.59852 2.11397,-3.46769 3.45656,-5.16058c0.06261,-1.46116 0.28945,-2.95027 1.03614,-3.99951c0.80922,-1.1371 2.30122,-1.57979 3.45183,-2.36969l0.0545,-0.00481l-0.01101,-0.01982l2.20236,-1.22353c0.44229,-0.25689 0.95625,-0.40399 1.50457,-0.40399c1.65685,0 3,1.34315 3,3c0,0.76183 -0.28397,1.45734 -0.75184,1.98645l-0.00719,0.00822c-0.00537,0.43225 -0.08054,0.73294 -0.08054,0.73294c-1.55027,6.16554 -2.88162,12.36337 -4.80034,18.42786c-1.26059,3.98436 -3.12656,7.88982 -4.22105,11.9029c-0.78231,2.8684 -0.80462,5.99297 -1.46929,8.88089c-0.25904,1.12549 -0.55381,2.24256 -0.86637,3.3556c-0.19035,0.99031 -0.40249,1.97457 -0.64717,2.94942c-0.43164,1.71977 -1.06833,3.37993 -1.66202,5.0525c-0.33513,1.27248 -0.63761,2.55336 -0.88106,3.84907l-0.29697,0.27059l0.16495,0.07498l-1.22187,2.68811c-0.4582,1.07047 -1.52113,1.82048 -2.75923,1.82048c-0.03939,0 -0.0786,-0.00076 -0.11761,-0.00226c-0.28024,0.47514 -0.57566,0.94714 -0.88623,1.41636l-0.56287,1.17754c0,0 -1.34164,2.68328 -4.02492,1.34164z" fill="#5d496e" stroke-width="0.5"></path><path d="M270.35238,231.69723c2.27777,1.95237 0.3254,4.23014 0.3254,4.23014l-1.97777,2.19763c-0.11406,0.07943 -0.22395,0.16017 -0.33001,0.24219c0.03001,0.21853 0.03001,0.35781 0.03001,0.35781c0,6.76712 0.46349,13.47375 0.82602,20.18758c1.11087,5.36046 1.92231,10.74294 1.92398,16.31242c0.00083,2.77918 0.66724,8.11975 -0.25755,10.71267c-0.00424,0.01189 -0.00851,0.02377 -0.01279,0.03564l0.00998,0.00083l-0.24764,2.97172c-0.11306,1.55373 -1.40942,2.77914 -2.99199,2.77914c-1.65685,0 -3,-1.34315 -3,-3v-2.5c0,-4.17773 -0.26731,-7.86477 -0.95918,-12.0068c0,0 -0.01533,-0.092 -0.02437,-0.24627c-0.01645,-0.15365 -0.01645,-0.24693 -0.01645,-0.24693v-2c0.00444,-3.99507 -0.15828,-7.97366 -0.36766,-11.94918c-0.55231,-2.61827 -1.17711,-5.23143 -1.80208,-7.86156c-0.652,-2.74388 -0.84239,-5.04465 -2.02423,-7.61764c-0.52032,-0.63061 -0.62534,-1.32666 -0.57393,-1.91887c-0.01316,-0.59367 0.13613,-1.28069 0.69452,-1.87606c1.6723,-2.89435 2.79901,-5.04212 5.52338,-7.17668l1.02223,-1.30237c0,0 1.95237,-2.27777 4.23014,-0.3254z" fill="#5d496e" stroke-width="0.5"></path><path d="M209.57345,254.26988c1.59441,0.97126 1.2524,3.02332 1.2524,3.02332l-0.50709,2.62098c-1.46532,3.60065 -1.40672,7.21347 -2.61448,10.85944c-1.36436,4.1187 -3.55336,8.49923 -5.48767,12.36803c-0.51146,1.02296 -2.30079,4.8016 -3.13929,5.58169l-1.63914,2.62262c-0.52494,0.8713 -1.48018,1.45405 -2.57152,1.45405c-1.65685,0 -3,-1.34315 -3,-3c0,-0.27446 0.03686,-0.54031 0.10589,-0.79287l0.65035,-2.6014l0.05062,0.01266l-0.02056,-0.12381c2.22525,-6.67575 3.40588,-13.53962 5.72101,-20.16803c2.13806,-6.12143 5.2269,-11.82232 6.93173,-18.1159c0,0 0.78935,-2.89429 3.68364,-2.10494c2.89429,0.78935 2.10494,3.68364 2.10494,3.68364c-0.43672,1.59157 -0.95492,3.14661 -1.52085,4.68053z" fill-opacity="0.1098" fill="#f6d1ff" stroke-width="0.5"></path><path d="M272.27031,262.53473c2.26303,0.44593 2.26303,2.93193 2.26303,2.93193l-0.01835,0.33537c0.59293,5.40739 0.30031,10.72547 0.01527,16.1339c-0.08186,1.5532 0.6692,3.31633 -0.10577,4.66486c-0.13396,0.2331 -0.28037,0.45643 -0.43732,0.6715l0.11865,0.07119l-1.97171,3.28618c-0.51819,0.89872 -1.48883,1.50366 -2.60077,1.50366c-1.65685,0 -3,-1.34315 -3,-3v-2.66667c0,-11.34024 -0.33333,-22.65016 -0.33333,-34c0,0 0,-3 3,-3c3,0 3,3 3,3c0,3.35897 0.02919,6.71437 0.0703,10.06807z" fill-opacity="0.1098" fill="#f6d1ff" stroke-width="0.5"></path></g></g></svg>