<svg version="1.1" xmlns="http://www.w3.org/2000/svg" xmlns:xlink="http://www.w3.org/1999/xlink" width="133.21022" height="257.28834" viewBox="0,0,133.21022,257.28834"><g transform="translate(-174.90003,-47.48332)"><g stroke-miterlimit="10"><path d="M222.43336,49.9c1.25,0 1.25,1.25 1.25,1.25c-0.03756,3.01546 0.56926,6.0054 1.12407,9.01626c0.91089,-2.64362 2.07236,-5.14836 2.6169,-7.93642c0,0 0.24515,-1.22573 1.47087,-0.98058c1.22573,0.24515 0.98058,1.47087 0.98058,1.47087c-0.19375,0.9501 -0.45425,1.86947 -0.74939,2.77353c0.00405,0.02546 0.00736,0.05022 0.01002,0.0741c0.01364,0.09572 0.01364,0.15722 0.01364,0.15722l-0.02977,1.27116c-0.07753,0.32939 -0.15507,0.65878 -0.2326,0.98817c-0.09596,0.82338 -0.1901,1.6491 -0.28678,2.47548c0.3443,-0.67603 0.70692,-1.34103 1.11122,-1.98089c0,0 0.37301,-0.58616 0.99985,-0.60638c0.30171,-0.56788 0.57621,-1.12987 0.81239,-1.66615c0.03421,-0.30539 0.22111,-1.13971 1.24234,-1.13971c1.25,0 1.25,1.25 1.25,1.25l-0.10107,0.65907c-1.03347,2.40134 -2.56796,4.61512 -4.17113,6.73658c-0.65443,1.34482 -1.31595,2.68532 -2.15836,3.92585c-0.20763,1.14111 -0.44513,2.27404 -0.72449,3.39423c-0.67464,2.70519 -1.83056,5.25811 -2.70241,7.83276c-0.26158,1.37216 -0.53791,2.73874 -0.90664,4.05393c-0.20937,1.48211 -0.43428,2.95205 -1.17459,4.22411c-0.24649,1.93317 -0.25944,3.84991 -0.55985,5.77419c0.62555,0.04998 1.34847,0.04973 1.98461,0.17747c0.01826,-0.04105 0.03682,-0.08211 0.05568,-0.12319c-0.64759,-0.0469 -1.1584,-0.58714 -1.1584,-1.2467c0,-0.47891 0.26932,-0.89492 0.66477,-1.10482l2.16357,-1.20198l0.03961,0.0713c2.46214,-2.35428 5.25012,-4.64226 8.16742,-6.18016c1.79333,-1.68695 3.82114,-2.98997 6.42281,-3.0745l0.03244,-0.0059l0.816,-0.544l0.02299,0.03448c0.09787,-0.06986 0.20031,-0.13382 0.30816,-0.19078c0.06972,-0.03682 1.20743,-0.04902 2.28425,-0.05274c1.27138,-0.47898 2.53252,-1.0007 3.76897,-1.61893l1.06363,-0.29189c0.34434,-0.16925 0.65402,-0.13557 0.89944,-0.03708c0.24863,0.06866 0.50854,0.22343 0.68017,0.54962c0.90695,1.10298 2.0083,2.03608 3.16908,2.91457c0.35225,0.17111 0.69737,0.35974 1.03402,0.56735c0.91411,-0.02728 1.83994,-0.04803 2.55729,0.21391c2.47823,0.90494 3.95902,2.97765 5.25924,5.11657c0.57891,0.95233 2.16781,3.66948 2.13001,4.88476c-0.00208,0.06699 -0.00585,0.13373 -0.01117,0.20023h0.02731v1.70234c0.05145,0.11841 0.10529,0.23546 0.16219,0.35077c1.23581,-0.56835 2.9316,-1.2156 3.15195,-2.19839c0.06943,-0.30965 0.13079,-0.62412 0.18492,-0.94273c-0.00123,-2.554 -0.00284,-5.108 0.00093,-7.66198c0.0018,-1.22028 -0.24162,-2.78826 0.18284,-3.71456c-0.33981,-0.88976 -0.65877,-1.78249 -0.88785,-2.70309c-0.79204,-3.18295 -1.43912,-6.86755 -2.02885,-10.13212c-0.01103,-0.06103 -0.02139,-0.12205 -0.03115,-0.18307c-0.35393,-0.39494 -0.66893,-0.85332 -0.96267,-1.3464c-1.63489,-1.88347 -2.99186,-4.06402 -5.01987,-5.68634c0,0 -0.97609,-0.78087 -0.19522,-1.75695c0.20317,-0.25396 0.41955,-0.38898 0.62851,-0.44977c0.72635,-1.01113 1.74079,-0.28653 1.74079,-0.28653l1.24809,0.89673c0.3091,0.3134 0.65437,0.68681 1.01526,1.10433c-0.05601,-0.74778 -0.04699,-1.5434 -0.02128,-2.33664c-0.0149,-0.14387 -0.02867,-0.2875 -0.04135,-0.43061c-0.42076,-1.01816 -0.64354,-2.03185 -0.37725,-2.97498v-1.25c0,-0.69036 0.55964,-1.25 1.25,-1.25c0.62742,0 1.14687,0.46225 1.23637,1.06477l0.22523,1.35137c0.2884,0.36364 0.2884,0.83386 0.2884,0.83386c0,0.44531 -0.0179,0.91699 -0.03952,1.40053c0.69779,1.59868 1.65547,3.14742 2.1819,4.81097c0.3856,-2.58423 1.03763,-5.16709 1.61327,-7.73873l0.07218,-0.07995l-0.03846,-0.01538l0.65585,-1.63963c0.17726,-0.47474 0.63486,-0.8128 1.17141,-0.8128c0.69036,0 1.25,0.55964 1.25,1.25c0,0.11436 -0.01536,0.22513 -0.04412,0.33036l-0.32653,1.30614l-0.1706,-0.04265l-0.09787,0.24467c-0.00005,2.27221 -0.31202,4.82329 -0.86,7.063c-0.34527,2.77013 -0.8354,5.5403 -0.83612,8.32161c0.27713,0.50734 0.52025,1.02479 0.68516,1.56466c1.18876,3.89169 1.20604,8.42878 1.78029,12.44858c-0.00549,3.20575 1.47201,5.37853 1.987,8.38838c0.28442,1.6623 -0.13969,2.38066 0.49359,3.96384l0.01311,1.00951c0.57526,0.11214 1.00944,0.6188 1.00944,1.22687c0,0.41416 -0.20142,0.78127 -0.51164,1.00873l-0.98836,0.74127l-0.17522,-0.23362l-0.31227,0.12491l-0.43616,0.21808c-0.26269,0.20606 -0.53455,0.40303 -0.81364,0.59321c0.22492,0.16347 0.44396,0.29352 0.65104,0.36789c1.61033,0.57832 4.25585,0.15371 6.04174,0.44654l0.5445,-0.01701c0,0 0.04704,0 0.12287,0.00913c0.07615,0.00592 0.12227,0.01515 0.12227,0.01515c5.90431,1.1812 10.38721,1.19292 15.97361,-1.40577c2.93218,-1.364 5.23226,-3.78358 8.16884,-4.95821l0.76378,-0.58478c0.18817,-0.19107 0.46699,-0.36461 0.85115,-0.34406c0.23941,-0.01203 0.50867,0.04843 0.76479,0.26732c0.27795,0.1904 0.40633,0.43468 0.45695,0.66899c0.11961,0.36529 0.0248,0.6794 -0.11059,0.91072c-1.20838,2.90479 -3.30474,5.09151 -5.08739,7.63511c-2.04899,2.92365 -2.9754,6.28438 -5.29103,9.05566c-2.09867,2.51163 -4.37067,3.37321 -6.28148,6.0387c-0.48749,0.48893 -0.98386,0.93512 -1.48702,1.35537c0.29132,0.86817 -0.55426,1.39666 -0.55426,1.39666c-1.1339,0.6931 -2.39911,1.68541 -3.60822,2.80878c0.91255,0.4078 1.19038,2.12373 1.779,3.08179c0.83279,1.3555 1.97872,4.07473 2.3542,5.55325c0.37272,1.46767 0.70416,2.95334 1.0167,4.44823c1.1527,1.85865 2.29567,3.71959 3.32243,5.62944c0.94454,1.75692 0.90135,3.9605 1.94923,5.65782c0.61879,1.0023 1.6941,1.65094 2.39906,2.59463c1.69638,2.27081 3.35122,5.69031 4.0651,8.42982c0.44768,1.71799 0.86643,5.30721 -0.60555,7.12681l0.24318,0.54716l-0.06745,0.02998c0.05719,0.08084 0.1128,0.16291 0.16668,0.24635c0.18011,0.27889 0.32328,0.59158 0.43752,0.92996c0.43679,0.88379 0.85156,1.77696 1.35228,2.57977c0.50904,0.81617 1.45263,1.33557 1.85823,2.20779c1.2248,2.63388 0.90353,5.4923 -1.17241,7.1184c0.2041,1.30782 0.06924,2.53609 -0.98304,3.07251c-1.67862,0.85571 -3.2464,0.37691 -4.62987,-0.51544c-2.10453,-0.17823 -4.57801,-1.0176 -5.69083,-1.57163c-4.9122,-2.44561 -8.79041,-7.51235 -12.87281,-10.99376c-2.88976,-2.46434 -6.34061,-4.49723 -9.77857,-6.30163c0.22077,1.09643 -0.0497,2.26205 0.21376,3.34923c0.87571,3.61372 3.46323,7.2509 4.69276,10.81852c1.52861,4.43543 2.37398,9.05332 3.08271,13.6962c0.31483,1.49944 0.57861,3.0217 0.79301,4.57714c0.03374,0.24479 0.1148,1.14437 0.20286,2.16958c0.30291,1.9905 0.62951,3.97151 1.02322,5.93054l-0.00538,0.02327l0.0094,-0.00171l0.15014,0.82577c0.68535,0.45746 1.3592,0.92624 1.85254,1.57252c3.42879,4.49172 1.62872,12.51066 -3.2544,15.37453c-0.02438,0.0143 -0.04882,0.02848 -0.07331,0.04256l0.01161,0.01327l-1.2708,1.11195c-6.83344,12.99656 -12.9474,26.54576 -18.58709,40.01327c-2.01243,4.80567 -4.47942,9.09091 -6.03881,14.11744c1.97886,4.17318 3.05104,8.96393 3.47779,13.53311l0.48089,2.88534c0.02742,0.14831 0.04176,0.30121 0.04176,0.45746c0,1.38071 -1.11929,2.5 -2.5,2.5c-0.99801,0 -1.85943,-0.58479 -2.26029,-1.43041l-1.17661,-2.35321l-0.92317,2.7695c-0.31417,1.02156 -1.26534,1.76412 -2.38994,1.76412c-0.20417,0 -0.40262,-0.02447 -0.59258,-0.07065c-0.07265,0.43593 -0.14531,0.87185 -0.21796,1.30778v0.00001l-0.32793,1.96757c-0.1432,0.96403 -0.97432,1.70363 -1.97819,1.70363c-1.10457,0 -2,-0.89543 -2,-2v-2h0.30575c0.00172,-0.01033 0.05824,-0.34946 0.05997,-0.3598c-0.06292,-0.42647 -0.09128,-0.85374 -0.07429,-1.27949c-0.30507,-0.80554 -0.10011,-1.62539 -0.10011,-1.62539l0.07738,-0.28352c-0.25431,-0.39146 -0.40203,-0.85855 -0.40203,-1.36014c0,-0.15625 0.01433,-0.30915 0.04176,-0.45746l0.49226,-2.95354c-0.17065,-1.0692 1.02596,-4.84762 1.28286,-5.91338c0.16047,-0.66572 0.34546,-1.32449 0.5489,-1.97822c0.12616,-0.50188 0.2542,-1.00319 0.38422,-1.50391c0,-0.06521 0,-0.12971 0,-0.19349c0,-0.78646 -0.39597,-1.71628 -0.25366,-2.45122c-0.11099,-0.16184 -0.21471,-0.33555 -0.31189,-0.51905c-5.20233,-7.82804 -9.59978,-16.0731 -14.09962,-24.27992c-2.33871,-4.26535 -6.34172,-7.18537 -9.1252,-11.05521c-1.14313,-1.58927 -1.82338,-3.53809 -3.21525,-4.91477c-0.74792,-0.73976 -1.81977,-1.14372 -2.45674,-1.98092c-0.83231,-1.09394 -1.84641,-3.98326 -2.4481,-5.6689c-0.08645,-0.15252 -0.17259,-0.30535 -0.25957,-0.45745l-0.51535,-0.70846c-0.17432,-0.3183 -0.35627,-0.6172 -0.54497,-0.89995c-0.20122,-0.24453 -0.41976,-0.47339 -0.66283,-0.68003c-2.0462,-1.73953 -5.16423,-2.35305 -6.86499,-4.64509c-0.56809,-0.7656 -0.3977,-1.92347 -0.95791,-2.69486c-0.40917,-0.56342 -1.09314,-1.07931 -1.8721,-1.57354c-0.05129,-0.00666 -0.10201,-0.01307 -0.1521,-0.0192c-3.4227,-0.41854 -4.99037,-2.1921 -5.69995,-4.55803c-0.76805,-1.04289 -1.27929,-2.09643 -1.65437,-3.26372c-1.685,-0.94658 -1.0271,-2.92027 -1.0271,-2.92027l0.24961,-0.63265c-0.02053,-0.132 -0.04084,-0.26569 -0.06102,-0.40116l0.29375,-0.18872l0.27196,-0.68932l-0.10598,-0.08243l1.73418,-2.22966c0.45673,-0.59896 1.17783,-0.98549 1.9892,-0.98549c0.81791,0 1.54408,0.39278 2.00018,1c0.27358,0.00002 0.5369,0.04398 0.78328,0.12522c0.04636,-0.22165 0.09578,-0.4447 0.14759,-0.66837c0.3771,-4.40189 1.3404,-8.56168 2.86251,-12.56763c0.63022,-3.11345 1.34374,-6.22752 2.33163,-9.1704c2.00875,-5.98395 5.69004,-11.59528 9.01831,-17.05662c-2.8558,3.49377 -5.94128,6.75446 -9.73652,9.46918c-2.42208,1.73251 -3.84622,4.50445 -6.23755,6.2411c-2.13357,1.54946 -4.74965,2.39912 -7.37041,2.75237c-0.29728,0.61018 -0.89586,1.04657 -1.60213,1.11558l-2.22602,0.24734l-0.07434,-0.66903l-1.19307,0.3856c-0.14414,-0.30306 -0.31183,-0.59886 -0.48508,-0.89294c-0.34887,0.01583 -0.7211,-0.04187 -1.10196,-0.15819c-0.19416,0.06284 -0.40132,0.09679 -0.61641,0.09679c-0.98464,0 -1.80309,-0.71154 -1.96921,-1.64848c-1.00176,-0.89809 -1.78761,-2.00432 -1.98929,-2.9462c-0.74758,-3.49126 1.67248,-5.10173 3.49519,-7.2991c0.00674,-1.96514 -0.48445,-4.31711 0.02725,-6.10791c0.44214,-1.54735 2.33666,-5.40669 3.25451,-6.83109c0.71899,-1.11578 1.68472,-1.97254 2.69209,-2.76549c0.28115,-2.39913 0.59506,-4.88406 1.32963,-6.99552c0.26245,-0.75439 0.53791,-1.50681 0.8243,-2.25751c0.11598,-3.35334 0.35919,-6.65483 1.42461,-9.98896c1.1313,-3.54029 3.33015,-6.62565 5.11217,-9.89933c-0.40862,-0.42155 -0.82992,-0.8317 -1.34041,-1.18618c-0.34902,-0.24236 -0.90381,-0.00361 -1.25,-0.25c-1.23493,-0.87891 -2.29048,-2.25877 -3.18953,-3.66828c-0.68283,-0.43732 -1.33666,-0.93231 -1.89339,-1.62011c-0.85297,-1.05378 -1.34273,-2.36574 -1.88854,-3.62724c-1.32515,-1.05326 -2.36541,-1.02927 -3.24147,-2.56878c-0.33555,-0.58967 -0.26364,-1.32887 -0.37611,-2.00476c-0.60608,-0.52617 -1.16901,-1.05247 -1.54356,-1.615c-0.43915,-0.65956 -0.36613,-1.54682 -0.65059,-2.28638c-0.08826,-0.22946 -0.17664,-0.45653 -0.26498,-0.68159c-1.45037,-2.30157 -2.77798,-4.51977 -2.812,-7.62969c-0.01228,-0.04296 -0.02449,-0.08601 -0.03663,-0.12914c-0.8808,-0.97543 -1.7048,-1.98095 -2.46404,-2.99327c0,0 -0.03412,-0.0455 -0.07811,-0.12436c-0.12634,-0.20932 -0.25389,-0.52741 -0.17354,-0.88456c0.04286,-0.22691 0.16664,-0.46573 0.432,-0.68613c0.25572,-0.23152 0.50964,-0.32029 0.74033,-0.33062c0.36493,-0.02904 0.66178,0.14221 0.85113,0.29689c0.07185,0.05469 0.11206,0.09491 0.11206,0.09491l0.86612,0.88388c0.12583,0.16777 0.25165,0.33554 0.37748,0.50331c1.09387,-0.14445 1.34275,0.97553 1.34275,0.97553c0.06131,0.27624 0.12609,0.54761 0.19398,0.81477c2.0297,2.00047 4.20952,3.57021 6.61665,5.48031c0.89266,0.70834 3.80422,3.07457 5.00579,2.74443c1.42952,-0.39277 2.51054,-2.15814 3.84317,-2.85364c1.51385,-0.79009 3.14127,-1.34069 4.70025,-2.03752c1.58512,-0.70479 3.52203,-1.64083 5.29211,-1.62062c0.77138,0.00881 1.37264,0.11327 1.82214,0.29022c0.54427,-0.4148 1.10023,-0.84 1.75023,-1.16658c0.53961,-0.27112 1.06293,-0.46954 1.57786,-0.6153c0.00005,-0.00042 0.0001,-0.00085 0.00015,-0.00127c0.01304,-0.11246 0.03141,-0.2204 0.05446,-0.32447c-0.56691,-0.69956 -0.83682,-1.61414 -0.56087,-2.88938c0.35005,-1.61768 1.78825,-3.27933 2.29449,-4.93436c1.25721,-4.1101 2.51944,-8.67718 4.28452,-12.59377c0.50009,-1.10967 1.45086,-2.04832 1.67491,-3.24468c0.25768,-1.37597 0.22062,-2.85414 0.50422,-4.27211l-0.02427,-0.50485c0,0 0,-0.87813 0.73601,-1.16237c-0.06471,-0.34939 -0.08294,-0.74804 -0.10789,-1.18153c-1.38265,-3.35121 -1.64525,-7.09514 -2.08791,-11.01654l0.00209,-0.00711l-0.00279,0.00028l-0.16499,-1.64994c-0.0052,-0.04632 -0.00788,-0.0934 -0.00788,-0.14111c0,-0.22792 0.061,-0.44159 0.16756,-0.62557c-0.00031,-0.0137 -0.00061,-0.0274 -0.00089,-0.04109v-0.66667c0,0 0,-1.25 1.25,-1.25c0.5807,0 0.89163,0.26977 1.05812,0.55866c0.1833,-0.21808 0.47564,-0.392 0.94188,-0.392zM212.5152,153.5729c1.2305,-1.75078 2.97014,-3.2354 4.28192,-4.93289c-0.2813,-0.49426 -0.59805,-0.99767 -0.99414,-1.48026c-1.21752,-1.48339 -3.44935,-1.90515 -4.63645,-3.413c-1.25706,-1.59672 -1.60723,-3.74743 -2.66023,-5.48551l-0.35627,-1.78624c0,0 0,-1.05299 0.68339,-1.7922c-1.01126,-1.00293 -1.71534,-2.17869 -2.46874,-3.32012c-2.27714,3.99506 -3.13896,8.48011 -4.8494,12.834c-1.25665,3.19877 -3.08375,6.30168 -4.25518,9.51326c-0.97691,2.67828 -1.63589,5.45413 -2.1722,8.25719c0.78942,0.47303 1.49235,1.34949 1.99513,2.74453c0.04531,0.12573 0.06856,0.50867 0.07765,1.02291c1.16143,-1.06882 2.20903,-2.28904 3.45786,-3.29508c3.28221,-2.64412 7.2319,-3.79413 10.57952,-6.31301c0.08587,-0.06461 0.17141,-0.12926 0.25663,-0.19394c0.29015,-0.82279 0.56385,-1.65298 1.06051,-2.35964zM272.04769,151.79444c0.89898,0.90642 1.68896,1.93788 2.43096,3.01542c0.09434,0.06734 0.1882,0.13559 0.28156,0.20481c2.18163,1.61759 4.65938,4.53415 7.30431,5.57395c0.63583,0.24997 1.37921,0.01875 2.04089,0.18892c2.16813,0.55759 4.09669,1.82835 6.03,2.95706c0.04569,0.02667 0.0912,0.05364 0.13654,0.0809l1.83862,-0.81716c-0.69218,-1.32614 -1.45043,-2.64207 -2.1576,-4.17427c-0.1366,-0.2393 -0.21161,-0.48624 -0.2528,-0.68529c-0.06352,-0.29206 -0.10229,-0.70846 0.03612,-1.12369l0.04106,-0.33785c-0.36343,-0.9704 -0.73229,-1.92538 -1.10716,-2.86985c-1.09105,-1.25621 -2.30288,-2.42853 -3.04241,-3.90546c-0.80686,-1.61138 -1.25247,-3.59874 -1.59941,-5.55441c-1.2626,-2.96968 -2.46116,-5.98972 -4.3331,-8.41832c-0.18007,0.40243 -0.37244,0.80681 -0.58402,1.21214c-2.49694,4.78352 -5.03243,9.31866 -8.71635,13.029c0.45434,0.46546 0.97725,0.94299 1.65277,1.6241zM298.67098,174.90523c-0.00877,0.01665 -0.01776,0.03317 -0.02698,0.04954c0.01349,0.00813 0.02697,0.01626 0.04046,0.02439c-0.00454,-0.02465 -0.00904,-0.04928 -0.01348,-0.07393zM203.60242,128.24517c-0.01665,-0.01261 -0.03331,-0.0252 -0.04996,-0.03775c-0.00694,0.05041 -0.01396,0.10082 -0.02105,0.15119c0.02354,-0.03785 0.04721,-0.07567 0.07101,-0.11344zM221.4671,95.0859c0.0533,-0.01553 0.10666,-0.03114 0.1597,-0.04613c-0.12711,-0.02766 -0.26171,-0.05828 -0.40122,-0.0912l-0.00619,0.0495c0.08,0.03135 0.16315,0.06022 0.24771,0.08784zM256.17152,242.14787c1.05287,-8.01675 0.39116,-18.41141 6.68201,-24.66143c0.12253,-0.12174 0.24234,-0.23832 0.35986,-0.34987c-2.40511,-2.27342 -4.46492,-4.85326 -6.3974,-7.54749c-1.59085,-1.26304 -3.1935,-2.5582 -4.24158,-4.22061c-0.52281,-0.82925 -0.87936,-1.75287 -1.27512,-2.65371c-1.49036,-1.28279 -3.04829,-2.50766 -4.05145,-4.21774c-0.57774,-0.98487 -1.01907,-2.01049 -1.36662,-3.0634c-0.53476,-0.71512 -1.03756,-1.48816 -1.48207,-2.37073c-1.1233,-2.23031 -2.84282,-5.43387 -3.72451,-7.87959c-0.64903,1.8688 -1.37123,3.72057 -2.40959,5.37463c-1.64448,2.61959 -4.1196,4.69248 -5.77708,7.29204c-1.03443,1.62238 -2.02686,3.26784 -3.11898,4.78277c-0.39154,0.9568 -0.7904,1.91015 -1.28734,2.81315c-0.92592,1.68251 -2.09378,3.11582 -3.39312,4.44281c0.7513,1.31724 1.62828,2.57614 2.429,3.86806c8.11917,7.31999 11.52748,19.2996 15.72584,28.93898l-0.18108,0.52925h0.23775v1.24326c3.10785,5.84833 3.10486,13.79873 4.90251,20.06541c0.20603,0.71824 0.47695,1.41568 0.76534,2.10736c1.07405,-5.05491 2.23953,-10.06777 3.96044,-14.95661c0.77853,-2.21167 2.1042,-4.22313 3.19573,-6.32285c0.18997,-1.35863 0.37211,-2.63988 0.44747,-3.21371zM212.15489,177.06493c-0.066,0.12843 -0.13166,0.25701 -0.19694,0.38575c0.0205,0.01054 0.04107,0.02142 0.06172,0.03263c0.04532,-0.13879 0.09038,-0.27827 0.13522,-0.41837z" fill="#130c1f" stroke-opacity="0.28235" stroke="#b59fd8" stroke-width="4.5"></path><g stroke="none" stroke-width="0.5"><path d="M222.43336,49.9c1.25,0 1.25,1.25 1.25,1.25c-0.03756,3.01546 0.56926,6.0054 1.12407,9.01626c0.91089,-2.64362 2.07236,-5.14836 2.6169,-7.93642c0,0 0.24515,-1.22573 1.47087,-0.98058c1.22573,0.24515 0.98058,1.47087 0.98058,1.47087c-0.19375,0.9501 -0.45425,1.86947 -0.74939,2.77353c0.00405,0.02546 0.00736,0.05022 0.01002,0.0741c0.01364,0.09572 0.01364,0.15722 0.01364,0.15722l-0.02977,1.27116c-0.07753,0.32939 -0.15507,0.65878 -0.2326,0.98817c-0.09596,0.82338 -0.1901,1.6491 -0.28678,2.47548c0.3443,-0.67603 0.70692,-1.34103 1.11122,-1.98089c0,0 0.37301,-0.58616 0.99985,-0.60638c0.30171,-0.56788 0.57621,-1.12987 0.81239,-1.66615c0.03421,-0.30539 0.22111,-1.13971 1.24234,-1.13971c1.25,0 1.25,1.25 1.25,1.25l-0.10107,0.65907c-1.03347,2.40134 -2.56796,4.61512 -4.17113,6.73658c-0.65443,1.34482 -1.31595,2.68532 -2.15836,3.92585c-0.20763,1.14111 -0.44513,2.27404 -0.72449,3.39423c-0.67464,2.70519 -1.83056,5.25811 -2.70241,7.83276c-0.26158,1.37216 -0.53791,2.73874 -0.90664,4.05393c-0.20937,1.48211 -0.43428,2.95205 -1.17459,4.22411c-0.24649,1.93317 -0.25944,3.84991 -0.55985,5.77419c0.62555,0.04998 1.34847,0.04973 1.98461,0.17747c0.01826,-0.04105 0.03682,-0.08211 0.05568,-0.12319c-0.64759,-0.0469 -1.1584,-0.58714 -1.1584,-1.2467c0,-0.47891 0.26932,-0.89492 0.66477,-1.10482l2.16357,-1.20198l0.03961,0.0713c2.46214,-2.35428 5.25012,-4.64226 8.16742,-6.18016c1.79333,-1.68695 3.82114,-2.98997 6.42281,-3.0745l0.03244,-0.0059l0.816,-0.544l0.02299,0.03448c0.09787,-0.06986 0.20031,-0.13382 0.30816,-0.19078c0.06972,-0.03682 1.20743,-0.04902 2.28425,-0.05274c1.27138,-0.47898 2.53252,-1.0007 3.76897,-1.61893l1.06363,-0.29189c0.34434,-0.16925 0.65402,-0.13557 0.89944,-0.03708c0.24863,0.06866 0.50854,0.22343 0.68017,0.54962c0.90695,1.10298 2.0083,2.03608 3.16908,2.91457c0.35225,0.17111 0.69737,0.35974 1.03402,0.56735c0.91411,-0.02728 1.83994,-0.04803 2.55729,0.21391c2.47823,0.90494 3.95902,2.97765 5.25924,5.11657c0.57891,0.95233 2.16781,3.66948 2.13001,4.88476c-0.00208,0.06699 -0.00585,0.13373 -0.01117,0.20023h0.02731v1.70234c0.05145,0.11841 0.10529,0.23546 0.16219,0.35077c1.23581,-0.56835 2.9316,-1.2156 3.15195,-2.19839c0.06943,-0.30965 0.13079,-0.62412 0.18492,-0.94273c-0.00123,-2.554 -0.00284,-5.108 0.00093,-7.66198c0.0018,-1.22028 -0.24162,-2.78826 0.18284,-3.71456c-0.33981,-0.88976 -0.65877,-1.78249 -0.88785,-2.70309c-0.79204,-3.18295 -1.43912,-6.86755 -2.02885,-10.13212c-0.01103,-0.06103 -0.02139,-0.12205 -0.03115,-0.18307c-0.35393,-0.39494 -0.66893,-0.85332 -0.96267,-1.3464c-1.63489,-1.88347 -2.99186,-4.06402 -5.01987,-5.68634c0,0 -0.97609,-0.78087 -0.19522,-1.75695c0.20317,-0.25396 0.41955,-0.38898 0.62851,-0.44977c0.72635,-1.01113 1.74079,-0.28653 1.74079,-0.28653l1.24809,0.89673c0.3091,0.3134 0.65437,0.68681 1.01526,1.10433c-0.05601,-0.74778 -0.04699,-1.5434 -0.02128,-2.33664c-0.0149,-0.14387 -0.02867,-0.2875 -0.04135,-0.43061c-0.42076,-1.01816 -0.64354,-2.03185 -0.37725,-2.97498v-1.25c0,-0.69036 0.55964,-1.25 1.25,-1.25c0.62742,0 1.14687,0.46225 1.23637,1.06477l0.22523,1.35137c0.2884,0.36364 0.2884,0.83386 0.2884,0.83386c0,0.44531 -0.0179,0.91699 -0.03952,1.40053c0.69779,1.59868 1.65547,3.14742 2.1819,4.81097c0.3856,-2.58423 1.03763,-5.16709 1.61327,-7.73873l0.07218,-0.07995l-0.03846,-0.01538l0.65585,-1.63963c0.17726,-0.47474 0.63486,-0.8128 1.17141,-0.8128c0.69036,0 1.25,0.55964 1.25,1.25c0,0.11436 -0.01536,0.22513 -0.04412,0.33036l-0.32653,1.30614l-0.1706,-0.04265l-0.09787,0.24467c-0.00005,2.27221 -0.31202,4.82329 -0.86,7.063c-0.34527,2.77013 -0.8354,5.5403 -0.83612,8.32161c0.27713,0.50734 0.52025,1.02479 0.68516,1.56466c1.18876,3.89169 1.20604,8.42878 1.78029,12.44858c-0.00549,3.20575 1.47201,5.37853 1.987,8.38838c0.28442,1.6623 -0.13969,2.38066 0.49359,3.96384l0.01311,1.00951c0.57526,0.11214 1.00944,0.6188 1.00944,1.22687c0,0.41416 -0.20142,0.78127 -0.51164,1.00873l-0.98836,0.74127l-0.17522,-0.23362l-0.31227,0.12491l-0.43616,0.21808c-0.26269,0.20606 -0.53455,0.40303 -0.81364,0.59321c0.22492,0.16347 0.44396,0.29352 0.65104,0.36789c1.61033,0.57832 4.25585,0.15371 6.04174,0.44654l0.5445,-0.01701c0,0 0.04704,0 0.12287,0.00913c0.07615,0.00592 0.12227,0.01515 0.12227,0.01515c5.90431,1.1812 10.38721,1.19292 15.97361,-1.40577c2.93218,-1.364 5.23226,-3.78358 8.16884,-4.95821l0.76378,-0.58478c0.18817,-0.19107 0.46699,-0.36461 0.85115,-0.34406c0.23941,-0.01203 0.50867,0.04843 0.76479,0.26732c0.27795,0.1904 0.40633,0.43468 0.45695,0.66899c0.11961,0.36529 0.0248,0.6794 -0.11059,0.91072c-1.20838,2.90479 -3.30474,5.09151 -5.08739,7.63511c-2.04899,2.92365 -2.9754,6.28438 -5.29103,9.05566c-2.09867,2.51163 -4.37067,3.37321 -6.28148,6.0387c-0.48749,0.48893 -0.98386,0.93512 -1.48702,1.35537c0.29132,0.86817 -0.55426,1.39666 -0.55426,1.39666c-1.1339,0.6931 -2.39911,1.68541 -3.60822,2.80878c0.91255,0.4078 1.19038,2.12373 1.779,3.08179c0.83279,1.3555 1.97872,4.07473 2.3542,5.55325c0.37272,1.46767 0.70416,2.95334 1.0167,4.44823c1.1527,1.85865 2.29567,3.71959 3.32243,5.62944c0.94454,1.75692 0.90135,3.9605 1.94923,5.65782c0.61879,1.0023 1.6941,1.65094 2.39906,2.59463c1.69638,2.27081 3.35122,5.69031 4.0651,8.42982c0.44768,1.71799 0.86643,5.30721 -0.60555,7.12681l0.24318,0.54716l-0.06745,0.02998c0.05719,0.08084 0.1128,0.16291 0.16668,0.24635c0.18011,0.27889 0.32328,0.59158 0.43752,0.92996c0.43679,0.88379 0.85156,1.77696 1.35228,2.57977c0.50904,0.81617 1.45263,1.33557 1.85823,2.20779c1.2248,2.63388 0.90353,5.4923 -1.17241,7.1184c0.2041,1.30782 0.06924,2.53609 -0.98304,3.07251c-1.67862,0.85571 -3.2464,0.37691 -4.62987,-0.51544c-2.10453,-0.17823 -4.57801,-1.0176 -5.69083,-1.57163c-4.9122,-2.44561 -8.79041,-7.51235 -12.87281,-10.99376c-2.88976,-2.46434 -6.34061,-4.49723 -9.77857,-6.30163c0.22077,1.09643 -0.0497,2.26205 0.21376,3.34923c0.87571,3.61372 3.46323,7.2509 4.69276,10.81852c1.52861,4.43543 2.37398,9.05332 3.08271,13.6962c0.31483,1.49944 0.57861,3.0217 0.79301,4.57714c0.03374,0.24479 0.1148,1.14437 0.20286,2.16958c0.30291,1.9905 0.62951,3.97151 1.02322,5.93054l-0.00538,0.02327l0.0094,-0.00171l0.15014,0.82577c0.68535,0.45746 1.3592,0.92624 1.85254,1.57252c3.42879,4.49172 1.62872,12.51066 -3.2544,15.37453c-0.02438,0.0143 -0.04882,0.02848 -0.07331,0.04256l0.01161,0.01327l-1.2708,1.11195c-6.83344,12.99656 -12.9474,26.54576 -18.58709,40.01327c-2.01243,4.80567 -4.47942,9.09091 -6.03881,14.11744c1.97886,4.17318 3.05104,8.96393 3.47779,13.53311l0.48089,2.88534c0.02742,0.14831 0.04176,0.30121 0.04176,0.45746c0,1.38071 -1.11929,2.5 -2.5,2.5c-0.99801,0 -1.85943,-0.58479 -2.26029,-1.43041l-1.17661,-2.35321l-0.92317,2.7695c-0.31417,1.02156 -1.26534,1.76412 -2.38994,1.76412c-0.20417,0 -0.40262,-0.02447 -0.59258,-0.07065c-0.07265,0.43593 -0.14531,0.87185 -0.21796,1.30778v0.00001l-0.32793,1.96757c-0.1432,0.96403 -0.97432,1.70363 -1.97819,1.70363c-1.10457,0 -2,-0.89543 -2,-2v-2h0.30575c0.00172,-0.01033 0.05824,-0.34946 0.05997,-0.3598c-0.06292,-0.42647 -0.09128,-0.85374 -0.07429,-1.27949c-0.30507,-0.80554 -0.10011,-1.62539 -0.10011,-1.62539l0.07738,-0.28352c-0.25431,-0.39146 -0.40203,-0.85855 -0.40203,-1.36014c0,-0.15625 0.01433,-0.30915 0.04176,-0.45746l0.49226,-2.95354c-0.17065,-1.0692 1.02596,-4.84762 1.28286,-5.91338c0.16047,-0.66572 0.34546,-1.32449 0.5489,-1.97822c0.12616,-0.50188 0.2542,-1.00319 0.38422,-1.50391c0,-0.06521 0,-0.12971 0,-0.19349c0,-0.78646 -0.39597,-1.71628 -0.25366,-2.45122c-0.11099,-0.16184 -0.21471,-0.33555 -0.31189,-0.51905c-5.20233,-7.82804 -9.59978,-16.0731 -14.09962,-24.27992c-2.33871,-4.26535 -6.34172,-7.18537 -9.1252,-11.05521c-1.14313,-1.58927 -1.82338,-3.53809 -3.21525,-4.91477c-0.74792,-0.73976 -1.81977,-1.14372 -2.45674,-1.98092c-0.83231,-1.09394 -1.84641,-3.98326 -2.4481,-5.6689c-0.08645,-0.15252 -0.17259,-0.30535 -0.25957,-0.45745l-0.51535,-0.70846c-0.17432,-0.3183 -0.35627,-0.6172 -0.54497,-0.89995c-0.20122,-0.24453 -0.41976,-0.47339 -0.66283,-0.68003c-2.0462,-1.73953 -5.16423,-2.35305 -6.86499,-4.64509c-0.56809,-0.7656 -0.3977,-1.92347 -0.95791,-2.69486c-0.40917,-0.56342 -1.09314,-1.07931 -1.8721,-1.57354c-0.05129,-0.00666 -0.10201,-0.01307 -0.1521,-0.0192c-3.4227,-0.41854 -4.99037,-2.1921 -5.69995,-4.55803c-0.76805,-1.04289 -1.27929,-2.09643 -1.65437,-3.26372c-1.685,-0.94658 -1.0271,-2.92027 -1.0271,-2.92027l0.24961,-0.63265c-0.02053,-0.132 -0.04084,-0.26569 -0.06102,-0.40116l0.29375,-0.18872l0.27196,-0.68932l-0.10598,-0.08243l1.73418,-2.22966c0.45673,-0.59896 1.17783,-0.98549 1.9892,-0.98549c0.81791,0 1.54408,0.39278 2.00018,1c0.27358,0.00002 0.5369,0.04398 0.78328,0.12522c0.04636,-0.22165 0.09578,-0.4447 0.14759,-0.66837c0.3771,-4.40189 1.3404,-8.56168 2.86251,-12.56763c0.63022,-3.11345 1.34374,-6.22752 2.33163,-9.1704c2.00875,-5.98395 5.69004,-11.59528 9.01831,-17.05662c-2.8558,3.49377 -5.94128,6.75446 -9.73652,9.46918c-2.42208,1.73251 -3.84622,4.50445 -6.23755,6.2411c-2.13357,1.54946 -4.74965,2.39912 -7.37041,2.75237c-0.29728,0.61018 -0.89586,1.04657 -1.60213,1.11558l-2.22602,0.24734l-0.07434,-0.66903l-1.19307,0.3856c-0.14414,-0.30306 -0.31183,-0.59886 -0.48508,-0.89294c-0.34887,0.01583 -0.7211,-0.04187 -1.10196,-0.15819c-0.19416,0.06284 -0.40132,0.09679 -0.61641,0.09679c-0.98464,0 -1.80309,-0.71154 -1.96921,-1.64848c-1.00176,-0.89809 -1.78761,-2.00432 -1.98929,-2.9462c-0.74758,-3.49126 1.67248,-5.10173 3.49519,-7.2991c0.00674,-1.96514 -0.48445,-4.31711 0.02725,-6.10791c0.44214,-1.54735 2.33666,-5.40669 3.25451,-6.83109c0.71899,-1.11578 1.68472,-1.97254 2.69209,-2.76549c0.28115,-2.39913 0.59506,-4.88406 1.32963,-6.99552c0.26245,-0.75439 0.53791,-1.50681 0.8243,-2.25751c0.11598,-3.35334 0.35919,-6.65483 1.42461,-9.98896c1.1313,-3.54029 3.33015,-6.62565 5.11217,-9.89933c-0.40862,-0.42155 -0.82992,-0.8317 -1.34041,-1.18618c-0.34902,-0.24236 -0.90381,-0.00361 -1.25,-0.25c-1.23493,-0.87891 -2.29048,-2.25877 -3.18953,-3.66828c-0.68283,-0.43732 -1.33666,-0.93231 -1.89339,-1.62011c-0.85297,-1.05378 -1.34273,-2.36574 -1.88854,-3.62724c-1.32515,-1.05326 -2.36541,-1.02927 -3.24147,-2.56878c-0.33555,-0.58967 -0.26364,-1.32887 -0.37611,-2.00476c-0.60608,-0.52617 -1.16901,-1.05247 -1.54356,-1.615c-0.43915,-0.65956 -0.36613,-1.54682 -0.65059,-2.28638c-0.08826,-0.22946 -0.17664,-0.45653 -0.26498,-0.68159c-1.45037,-2.30157 -2.77798,-4.51977 -2.812,-7.62969c-0.01228,-0.04296 -0.02449,-0.08601 -0.03663,-0.12914c-0.8808,-0.97543 -1.7048,-1.98095 -2.46404,-2.99327c0,0 -0.03412,-0.0455 -0.07811,-0.12436c-0.12634,-0.20932 -0.25389,-0.52741 -0.17354,-0.88456c0.04286,-0.22691 0.16664,-0.46573 0.432,-0.68613c0.25572,-0.23152 0.50964,-0.32029 0.74033,-0.33062c0.36493,-0.02904 0.66178,0.14221 0.85113,0.29689c0.07185,0.05469 0.11206,0.09491 0.11206,0.09491l0.86612,0.88388c0.12583,0.16777 0.25165,0.33554 0.37748,0.50331c1.09387,-0.14445 1.34275,0.97553 1.34275,0.97553c0.06131,0.27624 0.12609,0.54761 0.19398,0.81477c2.0297,2.00047 4.20952,3.57021 6.61665,5.48031c0.89266,0.70834 3.80422,3.07457 5.00579,2.74443c1.42952,-0.39277 2.51054,-2.15814 3.84317,-2.85364c1.51385,-0.79009 3.14127,-1.34069 4.70025,-2.03752c1.58512,-0.70479 3.52203,-1.64083 5.29211,-1.62062c0.77138,0.00881 1.37264,0.11327 1.82214,0.29022c0.54427,-0.4148 1.10023,-0.84 1.75023,-1.16658c0.53961,-0.27112 1.06293,-0.46954 1.57786,-0.6153c0.00005,-0.00042 0.0001,-0.00085 0.00015,-0.00127c0.01304,-0.11246 0.03141,-0.2204 0.05446,-0.32447c-0.56691,-0.69956 -0.83682,-1.61414 -0.56087,-2.88938c0.35005,-1.61768 1.78825,-3.27933 2.29449,-4.93436c1.25721,-4.1101 2.51944,-8.67718 4.28452,-12.59377c0.50009,-1.10967 1.45086,-2.04832 1.67491,-3.24468c0.25768,-1.37597 0.22062,-2.85414 0.50422,-4.27211l-0.02427,-0.50485c0,0 0,-0.87813 0.73601,-1.16237c-0.06471,-0.34939 -0.08294,-0.74804 -0.10789,-1.18153c-1.38265,-3.35121 -1.64525,-7.09514 -2.08791,-11.01654l0.00209,-0.00711l-0.00279,0.00028l-0.16499,-1.64994c-0.0052,-0.04632 -0.00788,-0.0934 -0.00788,-0.14111c0,-0.22792 0.061,-0.44159 0.16756,-0.62557c-0.00031,-0.0137 -0.00061,-0.0274 -0.00089,-0.04109v-0.66667c0,0 0,-1.25 1.25,-1.25c0.5807,0 0.89163,0.26977 1.05812,0.55866c0.1833,-0.21808 0.47564,-0.392 0.94188,-0.392zM212.5152,153.5729c1.2305,-1.75078 2.97014,-3.2354 4.28192,-4.93289c-0.2813,-0.49426 -0.59805,-0.99767 -0.99414,-1.48026c-1.21752,-1.48339 -3.44935,-1.90515 -4.63645,-3.413c-1.25706,-1.59672 -1.60723,-3.74743 -2.66023,-5.48551l-0.35627,-1.78624c0,0 0,-1.05299 0.68339,-1.7922c-1.01126,-1.00293 -1.71534,-2.17869 -2.46874,-3.32012c-2.27714,3.99506 -3.13896,8.48011 -4.8494,12.834c-1.25665,3.19877 -3.08375,6.30168 -4.25518,9.51326c-0.97691,2.67828 -1.63589,5.45413 -2.1722,8.25719c0.78942,0.47303 1.49235,1.34949 1.99513,2.74453c0.04531,0.12573 0.06856,0.50867 0.07765,1.02291c1.16143,-1.06882 2.20903,-2.28904 3.45786,-3.29508c3.28221,-2.64412 7.2319,-3.79413 10.57952,-6.31301c0.08587,-0.06461 0.17141,-0.12926 0.25663,-0.19394c0.29015,-0.82279 0.56385,-1.65298 1.06051,-2.35964zM272.04769,151.79444c0.89898,0.90642 1.68896,1.93788 2.43096,3.01542c0.09434,0.06734 0.1882,0.13559 0.28156,0.20481c2.18163,1.61759 4.65938,4.53415 7.30431,5.57395c0.63583,0.24997 1.37921,0.01875 2.04089,0.18892c2.16813,0.55759 4.09669,1.82835 6.03,2.95706c0.04569,0.02667 0.0912,0.05364 0.13654,0.0809l1.83862,-0.81716c-0.69218,-1.32614 -1.45043,-2.64207 -2.1576,-4.17427c-0.1366,-0.2393 -0.21161,-0.48624 -0.2528,-0.68529c-0.06352,-0.29206 -0.10229,-0.70846 0.03612,-1.12369l0.04106,-0.33785c-0.36343,-0.9704 -0.73229,-1.92538 -1.10716,-2.86985c-1.09105,-1.25621 -2.30288,-2.42853 -3.04241,-3.90546c-0.80686,-1.61138 -1.25247,-3.59874 -1.59941,-5.55441c-1.2626,-2.96968 -2.46116,-5.98972 -4.3331,-8.41832c-0.18007,0.40243 -0.37244,0.80681 -0.58402,1.21214c-2.49694,4.78352 -5.03243,9.31866 -8.71635,13.029c0.45434,0.46546 0.97725,0.94299 1.65277,1.6241zM298.67098,174.90523c-0.00877,0.01665 -0.01776,0.03317 -0.02698,0.04954c0.01349,0.00813 0.02697,0.01626 0.04046,0.02439c-0.00454,-0.02465 -0.00904,-0.04928 -0.01348,-0.07393zM203.60242,128.24517c-0.01665,-0.01261 -0.03331,-0.0252 -0.04996,-0.03775c-0.00694,0.05041 -0.01396,0.10082 -0.02105,0.15119c0.02354,-0.03785 0.04721,-0.07567 0.07101,-0.11344zM221.4671,95.0859c0.0533,-0.01553 0.10666,-0.03114 0.1597,-0.04613c-0.12711,-0.02766 -0.26171,-0.05828 -0.40122,-0.0912l-0.00619,0.0495c0.08,0.03135 0.16315,0.06022 0.24771,0.08784zM256.17152,242.14787c1.05287,-8.01675 0.39116,-18.41141 6.68201,-24.66143c0.12253,-0.12174 0.24234,-0.23832 0.35986,-0.34987c-2.40511,-2.27342 -4.46492,-4.85326 -6.3974,-7.54749c-1.59085,-1.26304 -3.1935,-2.5582 -4.24158,-4.22061c-0.52281,-0.82925 -0.87936,-1.75287 -1.27512,-2.65371c-1.49036,-1.28279 -3.04829,-2.50766 -4.05145,-4.21774c-0.57774,-0.98487 -1.01907,-2.01049 -1.36662,-3.0634c-0.53476,-0.71512 -1.03756,-1.48816 -1.48207,-2.37073c-1.1233,-2.23031 -2.84282,-5.43387 -3.72451,-7.87959c-0.64903,1.8688 -1.37123,3.72057 -2.40959,5.37463c-1.64448,2.61959 -4.1196,4.69248 -5.77708,7.29204c-1.03443,1.62238 -2.02686,3.26784 -3.11898,4.78277c-0.39154,0.9568 -0.7904,1.91015 -1.28734,2.81315c-0.92592,1.68251 -2.09378,3.11582 -3.39312,4.44281c0.7513,1.31724 1.62828,2.57614 2.429,3.86806c8.11917,7.31999 11.52748,19.2996 15.72584,28.93898l-0.18108,0.52925h0.23775v1.24326c3.10785,5.84833 3.10486,13.79873 4.90251,20.06541c0.20603,0.71824 0.47695,1.41568 0.76534,2.10736c1.07405,-5.05491 2.23953,-10.06777 3.96044,-14.95661c0.77853,-2.21167 2.1042,-4.22313 3.19573,-6.32285c0.18997,-1.35863 0.37211,-2.63988 0.44747,-3.21371zM212.15489,177.06493c-0.066,0.12843 -0.13166,0.25701 -0.19694,0.38575c0.0205,0.01054 0.04107,0.02142 0.06172,0.03263c0.04532,-0.13879 0.09038,-0.27827 0.13522,-0.41837z" fill="#130c1f"></path><path d="M240.25052,138.3201c0.0321,-0.00452 0.06507,-0.00925 0.09888,-0.01418c0.13295,-0.06119 0.26507,-0.12037 0.39613,-0.17755c0,0 0.71133,-0.30485 1.43865,-0.09281c0.04284,-0.00552 0.08584,-0.01096 0.12896,-0.01631c0.1536,-0.03462 0.30411,-0.04893 0.44358,-0.05091c1.01251,-0.10591 2.03589,-0.13649 2.68955,0.08414c1.65233,0.55769 2.61694,2.31125 4.01112,3.35885c1.43592,1.07897 3.40208,1.41045 4.67729,2.67531c1.03845,1.03002 2.74339,1.97351 2.72896,3.43608c-0.05435,5.50874 -4.61814,3.50803 -6.90875,2.55733c-2.29578,-0.95285 -4.13611,-2.50646 -5.54002,-4.396c-0.65257,3.41114 -5.83438,4.59814 -8.73273,5.55697l-0.16154,-0.01762l0.00823,0.04938l-1.96283,0.32714c-0.11865,0.02194 -0.24097,0.03341 -0.36596,0.03341c-1.10457,0 -2,-0.89543 -2,-2c0,-0.36027 0.09526,-0.6983 0.26197,-0.99026l1.41009,-2.58517c0.07387,-0.22123 0.14272,-0.43509 0.19798,-0.63661c0.63115,-2.30147 2.40443,-4.13676 4.41126,-5.50528c0.05185,-0.06587 0.10417,-0.13211 0.15697,-0.19874l1.5846,-0.95531c0.13048,-0.09909 0.26621,-0.177 0.39462,-0.2379l0.02143,-0.01292c0,0 0.11451,-0.05726 0.30008,-0.11382c0.18477,-0.05912 0.31151,-0.07722 0.31151,-0.07722z" fill="#b49fda"></path></g><g fill-opacity="0.08235" fill="#b69edb" stroke="none" stroke-width="0.5"><path d="M266.11136,75.03228c0.55207,-1.38322 1.90399,-2.36062 3.4842,-2.36062c1.0634,0 2.02342,0.44263 2.70587,1.15369c0.20866,-0.12732 0.41333,-0.25341 0.61379,-0.3787c0.04916,0.27664 0.10118,0.55424 0.15683,0.83258c0.06679,0.33408 0.13876,0.69714 0.20409,1.0765c1.17357,2.6536 2.50338,8.03103 0.55852,10.33182c0.09202,2.33545 0.12228,4.31501 0.11089,5.37879c-0.0047,0.43877 0.02436,0.93513 0.05982,1.46157c4.80474,4.00514 -2.38159,9.89259 -6.70031,11.73179c-1.10104,0.4689 -3.69525,0.45304 -4.02022,1.94796c-0.53816,2.47567 6.00591,5.8097 0.93585,10.15546l-0.14335,1.05126c-0.79751,1.9938 -4.43143,5.1863 -7.81851,6.41465c-2.08443,2.59547 -4.3852,5.31712 -7.33066,6.13637c0.46934,0.94846 0.97008,1.79546 1.54933,2.43491c2.0229,2.23313 3.03638,3.31523 4.93358,4.79143c2.5988,2.02211 6.84988,0.94605 9.94578,0.87991c1.8716,-0.03999 3.94825,-4.10713 4.95204,-5.58043c2.86942,-4.21155 5.09655,-8.90402 7.62293,-13.32739c1.66881,-2.92189 2.70499,-6.52257 6.49282,-7.36431l0.77089,-1.02787c1.67404,-1.36016 2.42127,-3.4468 4,-4.8c4.34413,-3.72353 8.49389,-6.92352 11.97008,-11.56553c0.79615,-1.06315 4.46591,-4.67898 5.91005,-2.10466c3.19088,5.68809 -1.73276,10.14508 -4.85759,15.42676c-4.84161,8.18344 -11.70428,14.92616 -16.68649,22.86791c0.10353,0.23388 0.24522,0.44514 0.43562,0.6275c3.81723,3.65588 8.40547,17.10492 10.09668,21.72971c0.53519,1.46354 2.03125,5.13821 1.66586,6.89086c0.13738,0.70872 0.04309,1.41971 -0.38011,2.05451c-1.29011,1.93517 -7.31642,2.89805 -7.50175,-0.4379c-0.38104,-0.58697 -0.60235,-1.28722 -0.60235,-2.03916c0,-0.07549 0.00223,-0.15045 0.00663,-0.22484c-1.16501,-2.27137 -1.52041,-4.65824 -2.22671,-7.13005c-1.39384,-4.878 -4.87718,-9.1183 -5.71729,-14.15893c-0.03156,-0.17064 -0.05156,-0.34533 -0.05917,-0.52324c-0.2479,0.25455 -0.46684,0.52139 -0.60745,0.83142c-1.95189,4.30388 -5.30645,7.52878 -7.71365,11.59931c-0.46985,0.79452 -0.78669,3.41689 -1.25112,3.88132c-0.2129,0.21291 -0.43952,0.43115 -0.67832,0.64002c0.57334,0.42291 1.17857,0.88842 1.77465,1.3864c0.20245,-0.03382 0.41038,-0.05142 0.62243,-0.05142c1.47828,0 2.75677,0.85538 3.36754,2.09819c3.62263,2.42606 7.30755,5.38978 10.35814,8.0742c0.62879,0.55331 1.63358,-0.53263 2.46869,-0.46839c1.9473,0.14979 3.77346,1.98066 5.39843,2.83906c2.33468,1.23332 5.02196,0.33714 7.05885,1.95531c2.75302,2.18708 5.55544,9.36182 2.43045,11.70146c-2.64826,1.98272 -7.29375,1.44033 -10.29859,0.64917c-3.4638,-0.912 -4.97386,-4.19271 -7.2334,-6.58217c-2.02092,-2.13711 -9.62244,-5.98441 -12.43683,-7.12621c-0.77589,-0.31477 -3.41445,-0.73553 -3.78827,-1.10936c-0.89076,-0.89076 -1.7914,-2.0243 -1.875,-3.28125c-0.03778,-0.56805 0.29075,-1.05153 0.67133,-1.52317c-0.6417,-0.83134 -1.20488,-1.50884 -1.70972,-1.52683c-2.61241,-0.09309 -5.69198,0.94188 -8.35978,0.7498c-0.57463,0.24908 -1.07684,0.44537 -1.45911,0.58199c-0.20725,0.07406 -1.58933,0.40615 -3.42274,0.82634l0.18412,0.21481l0.04878,0.09756l0.39712,0.52949l0.13227,0.31415l0.22183,0.2588l0.09559,0.19118l0.2705,0.40574l0.16846,0.4717l0.26891,0.42257l0.11572,0.34717l0.68082,1.36163l0.03653,0.16438l0.06102,0.06102l0.19217,0.32028l0.27637,0.25125l0.8,1.2l0.14548,0.40734l0.24557,0.35607l0.6,1.6l0.02465,0.21567l0.10215,0.19154l0.2562,1.0248l0.68576,1.09722l0.01082,0.03335l0.02479,0.02479l0.96249,1.60414l0.47357,0.47357l0.26911,0.44852l0.35733,0.38197l1,1.8l0.04405,0.16418l0.10465,0.13396l0.72308,1.62693l0.45688,0.79954l0.8449,0.8449l0.19217,0.32028l0.27637,0.25125l0.8,1.2l0.24507,0.68619l0.31192,0.6585l0.03318,0.16592l0.05993,0.0799l0.05306,0.02211l0.3502,0.90468l0.37645,0.89408l-0.02282,0.05276l0.17686,1.41491l0.31736,1.5868l0.54879,1.50917l0.14999,0.22499l0.13193,0.36941l0.22967,0.318l0.23225,0.58062l0.51694,0.72372l0.01883,0.00628l0.02825,0.05964l0.17344,0.24281l0.2886,0.7326l0.33708,0.7116l0.05852,0.2926l0.02419,0.0614l-0.0083,0.01803l0.04902,0.24509l0.44619,1.04111l0.04835,0.29977l0.14289,0.26792l0.04246,0.16984l0.23372,0.35058l0.14899,0.14899l0.5868,0.4401l0.23211,0.28568l0.30524,0.20571l1.69705,1.88561c0.3745,-0.21104 0.78534,-0.39016 1.23856,-0.53108c3.34589,-1.04036 4.96077,0.87177 5.14991,3.30457c0.50115,0.19978 0.97222,0.42943 1.31648,0.78504c0.11176,0.11545 0.21017,0.24418 0.29189,0.38946c1.36736,2.43082 0.84809,6.35768 -0.42913,8.78571c-2.26724,4.31009 -4.72313,8.61455 -7.71998,12.4577c-0.61296,1.61079 -1.35799,3.2402 -2.22158,4.56737c-1.08989,3.74982 -2.98802,7.36907 -4.14999,10.92838c-2.56895,7.86913 -3.04734,14.43845 -9.01186,20.70991c-1.36817,1.43857 -3.98207,5.59331 -6.85062,7.35797c-0.06292,0.13865 -0.12231,0.27631 -0.17791,0.41291c-1.60675,3.94781 -1.74322,8.41933 -2.65374,12.55283l2.53358,-1.44776c0.94902,0.5423 2.2565,0.72853 2.98936,1.48554c0.11177,0.11545 0.21017,0.24417 0.29189,0.38946c1.3422,2.38609 2.85268,14.31022 -2.28125,14.025c-3.95084,-0.21949 -3.9428,-4.6762 -4.24468,-7.62291c-0.10978,0.52391 -0.27039,1.01931 -0.5093,1.46728c-0.25484,0.47782 -1.29202,1.71722 -1.87297,2.56789c0.5442,3.95995 -0.4003,9.38774 -3.97305,9.38774c-4.93106,0 -3.49883,-5.34674 -3.83803,-8.10214c-0.00558,-0.0453 -0.01236,-0.09881 -0.01998,-0.1595c-0.2705,-0.55262 -0.2883,-1.11855 -0.1514,-1.68274c-0.0423,-1.06011 0.04246,-2.20308 0.5776,-2.50887l1.33831,-0.76475c0.43066,-0.58953 0.80013,-1.13351 0.9435,-1.60657c0.48684,-1.60645 0.14073,-3.51345 0.42896,-5.19056c0.34819,-2.02602 0.70258,-4.01272 1.11216,-5.9634c-0.87488,-0.45064 -1.39603,-1.38957 -1.94868,-2.38561c-0.63912,-1.15187 -0.51485,-2.80724 -1.00312,-3.98131c-1.24062,-2.98315 -2.73096,-5.89068 -4.2829,-8.75322c-0.29779,-0.24891 -0.57793,-0.51659 -0.83767,-0.77633c-0.18668,-0.18668 -0.32343,-0.83493 -0.44354,-1.55904c-1.22475,-2.21346 -2.45573,-4.40466 -3.60391,-6.5881c-0.14322,-0.27236 -2.65942,-3.85755 -3.60537,-6.67067c-0.02263,-0.0636 -0.04359,-0.128 -0.06283,-0.19313c-0.04796,-0.16238 -0.08522,-0.32934 -0.11098,-0.50008c-2.9085,-2.8191 -6.42917,-5.15145 -8.90853,-8.04404c-4.14986,-4.8415 -7.0354,-10.34132 -10.3947,-15.75374c-1.89933,-3.06016 -7.65655,-5.42685 -10.24055,-8.11455c-2.31934,-2.41242 -4.52598,-6.71652 -5.4296,-9.77665c-0.26792,-0.90732 -1.14552,-3.69542 0.04944,-4.37825l3.23181,-1.84675c1.41533,0.80876 2.42133,1.60393 3.20483,2.49715l0.11812,-0.10125l0.4,-0.2l0.20565,-0.0457l0.07703,-0.04622l0.02326,0.00634l0.18525,-0.11789l0.94717,-0.31572l0.16163,-0.08082l0.31576,-0.07017l-0.17918,-2.50855l0.02361,-0.1346l-0.03314,-0.13258v-5.8l0.06546,-0.26185l-0.02777,-0.26848l0.6,-4.2l0.01691,-0.0415l-0.00357,-0.04467l0.2,-1.2l0.08607,-0.19796l0.00719,-0.21574l0.4,-1.4l0.05599,-0.09704l0.01026,-0.11157l1.39076,-3.97359l0.79115,-2.37345l0.23978,-0.3768l0.13779,-0.42484l1,-1.6l0.08514,-0.0821l0.04335,-0.11005l0.73746,-1.03245l0.19132,-0.4783l0.16515,-0.49546l0.22172,-0.34842l0.12024,-0.39509l0.22941,-0.38235l0.07904,-0.25971l0.22589,-0.90358l0.05945,-0.03397l0.00621,-0.02039l0.5259,-0.87651l0.13559,-0.27119l0.22183,-0.2588l0.13227,-0.31415l0.14298,-0.19064l-0.1025,0.08786l-0.01101,0.0055l-0.00718,0.00999l-2.6,2.2l-0.22369,0.11007l-0.17075,0.18165l-2.07784,1.33576v0.90983l-0.1462,0.58482l-0.04623,0.60104l-0.2,0.6l-0.22172,0.34842l-0.12025,0.39508l-0.5259,0.8765l-0.53559,1.07119l-0.15421,0.17992l-0.0797,0.22316l-0.4,0.6l-0.27637,0.25124l-0.19217,0.32028l-0.21155,0.21155l-0.36073,0.48098l-0.04134,0.16533l-0.01003,0.01881l0.01802,0.06606l-0.4792,0.79866l-0.4383,0.82181l-0.06275,0.01765l-0.10372,0.19448l0.01815,0.26314l-0.38343,0.42178l-0.26825,0.50296l-0.25391,0.07141l-0.39449,0.43394l-0.5134,0.34226l-0.71673,0.53754l-1.78125,0.75l-0.13591,-0.05877l-0.12321,0.08213l-1.88668,-0.41926l-0.8,-0.4l-0.17991,-0.15422l-0.22316,-0.0797l-0.6,-0.4l-0.49527,-0.5448l-0.54479,-0.49526l-0.07705,-0.11558l-0.47144,-0.37715l-0.58226,0.18884l-0.08066,-0.04334l-0.0684,0.0171h-0.4l-0.30961,-0.0774l-0.43156,0.0332l-0.21882,-0.19579l-0.91502,-0.22876l-0.66586,-1.16527l-0.23913,-0.12849l-0.00433,-0.1098l-0.77323,-0.69185l0.12579,-0.62896l-0.31823,-0.5569l0.43338,-0.75842l-0.07143,0.01588l-1.21195,0.69254l-3.28125,-1.875l-0.46875,-1.875v-1.6l0.11197,-0.44786v-0.46165l0.17836,-0.71343l0.10967,-0.54838v-1.42868l0.04619,-0.18473l-0.02758,-0.1884l0.2,-2l0.16478,-0.45903l0.05537,-0.48455l0.47213,-1.25901l0.14013,-0.84077l0.22335,-0.51372l0.12152,-0.54683l0.28081,-0.56163l0.31573,-0.94717l0.06054,-0.09513l0.01523,-0.11173l0.27213,-0.68033l0.13248,-0.6624l0.25806,-0.54478l0.16321,-0.5803l0.61577,-1.0776l0.28258,-0.84773l0.35432,-0.5568l0.27499,-0.59996l0.55182,-0.68978l0.06647,-0.13294l0.30425,-1.06488l0.17545,-0.30411l0.07617,-0.34274l0.14783,-0.29565l0.1073,-0.6438l0.08607,-0.19796l0.00719,-0.21574l0.8,-2.8l0.04174,-0.07236l0.00641,-0.08329l0.55446,-1.66338l0.36507,-1.46028l0.03018,-0.05659l0.00214,-0.0641l0.4,-1.4l0.08847,-0.15335l0.02223,-0.17562l1.33703,-3.43808l0.75227,-2.63295l0.01269,-0.02199l0.00117,-0.02536l0.6,-2l0.13704,-0.23048l0.04997,-0.26344l1.19545,-2.59016l0.99552,-2.19013l0.04432,-0.05576l0.01546,-0.06954l0.44673,-0.89345l0.22612,-0.90449l0.86177,-0.49244l0.32317,-0.37704l0.34271,-0.01904l0.03366,-0.05289l0.05357,-0.01071l0.09955,-0.16591l0.4383,-0.82181l0.06591,-0.01853l0.01096,-0.01828l0.3697,-0.36969l0.12786,-0.25571l0.06879,-0.08026c-0.44956,-0.64874 -0.98293,-1.30636 -1.70378,-1.92847c-8.71537,-7.52147 -13.84657,-16.80027 -18.93128,-26.96969c-0.27436,-0.52111 -0.42963,-1.11469 -0.42963,-1.74453c0,-2.07107 1.67893,-3.75 3.75,-3.75c0.33336,0 0.65655,0.0435 0.96422,0.12513c0.39987,0.08606 0.7839,0.24384 1.13209,0.4804c1.82823,1.24209 2.75364,4.14978 3.72179,5.99255c0.06464,0.12303 0.84214,0.15821 0.96775,0.19436c2.41499,0.69493 5.78222,2.49007 8.27579,2.60756c2.16696,0.1021 5.40757,-2.39704 7.46336,-3.13125c1.17541,-0.41979 6.7924,-1.4129 9.55643,-1.76108c-0.22063,-0.3662 -0.35936,-0.83145 -0.38723,-1.41651c-0.27138,-5.69895 1.99341,-11.47472 3.63212,-16.83588c0.57872,-1.89332 0.7821,-3.70762 1.21617,-5.47387c-0.06053,-0.26742 -0.09249,-0.54569 -0.09249,-0.83141c0,-1.35684 0.72061,-2.54537 1.8,-3.20376c1.67362,-2.47652 -0.1227,-7.13669 1.49846,-9.73544c1.8407,-2.95067 6.83344,-2.58509 7.2249,1.32957c0.55025,5.50252 -0.04751,10.94316 -2.53517,15.9185l-0.20016,0.80065c-0.33043,0.61956 -0.86352,2.23711 -0.93014,2.41794c-0.66593,1.80772 -1.33339,3.61554 -1.94384,5.44274c-0.15829,0.47379 -0.55876,2.39365 -1.05048,4.57802c0.02393,0.1997 0.03642,0.40523 0.03642,0.61626c0.33577,0.51855 0.54699,1.12525 0.59128,1.77777c0.44052,0.66077 -0.48803,2.17685 0.27753,3.31012c1.68757,2.49815 5.21683,2.80443 6.98139,4.08197c4.05274,-3.13984 9.95181,-6.14696 12.71454,-6.28433c2.73413,-0.13595 5.74038,-1.74119 8.56026,-0.33125c1.85366,0.92683 3.32021,3.53726 4.86947,4.98494c0.10387,0.09705 1.46972,2.90846 1.99543,2.92768c1.05984,0.03876 1.23652,-1.83833 2.1851,-2.31262c2.59364,-1.29682 4.91874,-2.90319 7.33303,-4.4311c-0.95948,-3.90131 -0.97772,-9.05076 -1.00802,-11.08765c-0.04142,-2.78423 0.05874,-3.19209 -0.18139,-5.02686c-0.06128,-0.46819 -0.37382,-1.97949 -0.56576,-3.56137c0.34864,0.17101 0.71627,0.34096 1.10429,0.51062c0.03174,-0.10597 0.06804,-0.20996 0.10867,-0.31176zM257.84556,229.02166c0.02567,-2.02934 1.62193,-6.39921 3.6497,-10.11578l-0.03514,-0.00703l-0.45266,-0.21442l-0.48895,-0.10866l-0.8,-0.4l-0.22584,-0.19358l-0.27675,-0.10902l-1.4,-1l-0.20325,-0.23859l-0.26876,-0.16126l-0.41155,-0.41155l-0.5868,-0.4401l-0.1702,-0.20948l-0.23145,-0.13887l-1,-1l-0.13887,-0.23145l-0.20948,-0.1702l-0.06885,-0.0918l-0.18936,-0.09468l-0.0418,0.00522l-0.08359,-0.06792l-0.09346,-0.04673l-0.65421,-0.56075l-0.66874,-0.54335l-0.06269,-0.08359l-0.08178,-0.07009l-0.00234,-0.04206l-1.01805,-1.35739l-1.56341,-1.95426l-0.27498,-0.59996l-0.35432,-0.55679l-0.35067,-1.05202l-0.97888,-2.28404l-0.76439,-1.07014l-0.10902,-0.27675l-0.19358,-0.22584l-0.66842,-1.33683l-0.82898,-1.16058l-0.10902,-0.27675l-0.19358,-0.22584l-1,-2l-0.05855,-0.26348l-0.14491,-0.22771l-0.75667,-2.27002l-0.9473,-2.27353l-0.06467,-0.42845l-0.17277,-0.39737l-0.36508,-2.1905l-0.34165,-1.19579l-0.01743,-0.52277l-0.12686,-0.50744c0,0 0,-1.43561 0,-3.50483l-0.07055,-0.15392l-0.15945,-0.15375l-0.8645,-1.3832l-0.83633,-1.0036l-0.01676,-0.03472l-0.03067,-0.02337l-0.67025,-0.83782l-0.86469,-0.86469l-0.5868,-0.4401l-0.33621,-0.41379l-0.41379,-0.33621l-0.4401,-0.5868l-2.66469,-2.66469l-0.66758,-0.53406l-1.41513,-0.88445l-0.15375,-0.15945l-0.20136,-0.09229l-1,-0.8l-0.35011,-0.45953l-0.42747,-0.38861l-0.04647,-0.06971l-0.58364,0.87544l-0.69559,1.39118l-0.08352,0.09744l-0.05712,0.12852l-0.01975,0.06236l-0.02869,0.04661l-0.13824,0.31104l-0.19828,0.2538l-0.10832,0.30331l-1.00902,1.51353l-0.46438,1.08354l-0.30708,0.40406l-0.21145,0.46135l-0.69834,0.87292l-0.19991,0.29987l-2.10814,4.02463l-0.01472,0.01653l-0.78836,2.13984l-0.10448,0.15338l-0.07763,0.38816l0.01332,0.03081l-0.03711,0.08815l-0.03571,0.17854l-0.3552,0.74986l-0.32198,0.76471l-0.10924,0.14566l-0.04094,0.08644l-0.03184,0.01061l-0.23449,0.31266l-0.10986,0.3479l-0.19643,0.98217l-0.14084,0.29734l-0.04132,0.3264l-1.30788,3.36312l-1.14069,4.75286l-0.23604,0.45281l-0.13232,0.4932l-0.80288,1.44518l-0.48336,1.61122l-0.09682,0.16283l-0.02749,0.18743l-0.16854,0.40933c0.79549,0.61815 1.33542,1.5496 1.43454,2.60913c0.83358,0.92051 1.4842,1.91678 1.61646,2.9537c0.2226,1.74523 -0.18911,3.86625 -1.0969,5.39372c0.1909,0.29119 0.36701,0.56214 0.52306,0.8079c0.97835,1.54073 2.11731,2.98047 3.0248,4.56398c2.55158,4.45234 5.50523,9.03691 7.92092,13.4944c0.22472,0.41466 2.51575,6.41439 3.45263,7.33196c3.10861,3.04458 6.61621,6.64844 8.18307,10.82221c0.49119,1.30842 1.93164,4.44356 2.43439,7.29958c0.76852,1.23201 1.53285,2.50974 2.24652,3.79245c0.60217,0.78526 1.34829,2.18109 1.87287,3.66904c0.13648,0.2985 0.26758,0.59506 0.39266,0.88915c0.96111,-2.47679 3.53422,-5.43305 3.946,-8.276c1.25692,-8.67791 3.45291,-16.54649 6.18938,-24.97338c0.12392,-0.3816 0.2444,-0.76729 0.36266,-1.15613c0.03031,-1.65807 0.23722,-3.21074 0.24794,-4.05888zM207.44146,140.69871c-1.31877,-2.09339 -1.41597,-4.81066 -2.64878,-6.89756c-0.06224,-0.10536 -0.14028,-0.22935 -0.23099,-0.3691c-0.14547,0.22861 -0.31501,0.4404 -0.50507,0.63181l-0.00515,0.01832l-0.58727,1.02772l-0.34152,1.1384l-0.01481,0.10369l-0.03522,0.08647l-0.15604,1.24833l-0.26579,0.68662l-0.19934,0.70877l-0.32045,0.56079l-0.00393,0.03995l-0.27164,0.76058l-0.37436,1.87181l-0.58191,3.29752l-0.12668,0.88674l0.00139,0.00247l-0.00328,0.01078l-0.06274,0.43917l-0.28035,0.68815l-0.21636,0.71087l-0.22824,0.38041l-0.00425,0.01043l-0.00264,0.00105l-0.03047,0.05078v0.02797l-0.46875,1.875l-3.28125,1.875l-0.92161,-0.52663l-0.09506,0.28518l-0.71927,2.51744l-0.16508,0.99051l-0.22336,0.51372l-0.12152,0.54683l-0.24413,0.48827l-0.00325,0.01136l0.56828,0.14207l0.51137,0.89489l0.89488,0.51136l0.20494,0.81976l0.00229,0.00171l0.00175,0.01444l0.25977,1.03909v0.4l-0.05747,0.22989l0.02851,0.23524l-0.2,1.6l-0.26579,0.68662l-0.19934,0.70877l-0.67083,1.17394l-0.7033,1.75826l-0.04248,0.05883l-0.01251,0.07147l-0.17664,0.39744c0.60095,0.21391 1.20168,0.44843 1.78697,0.52219c0.18242,0.02299 0.22275,-0.293 0.32295,-0.44716c1.43697,-2.21093 4.02985,-5.24861 6.35406,-6.44518c2.82103,-1.45234 7.73492,-7.12689 11.41953,-9.70977c1.33363,-0.93487 1.77273,-1.74656 1.68938,-2.50603c-3.1373,-2.67172 -6.80537,-6.9974 -7.97715,-8.85745zM264.64556,147.60915c-0.05311,-0.29842 -0.59158,0.16346 -0.89468,0.1625c-0.13387,-0.00043 -0.43924,0.01124 -0.87113,0.02997c0.51518,0.44689 0.96701,0.86191 1.30619,1.1438c0.17801,0.14794 0.35705,0.29892 0.53691,0.45201c0.01812,-0.65432 0.01511,-1.26914 -0.07728,-1.78829zM241.75501,148.63118l-0.4118,0.48044l-0.19355,0.38709l-0.21408,0.24975c0.40247,-0.00903 0.80886,0.00866 1.21844,0.04802c-0.14799,-0.3746 -0.27868,-0.76431 -0.39901,-1.1653zM248.91737,146.70942c0.43206,0.25456 0.88755,0.46975 1.36195,0.65348c-0.62615,-0.44284 -1.1765,-0.93527 -1.66732,-1.46715c0.10296,0.43722 0.20574,0.75497 0.30536,0.81367zM257.52382,206.27905l0.02506,0.05468l0.04668,0.03793l0.66885,0.8918l0.18936,0.09468l0.0418,-0.00522l0.08359,0.06792l0.09346,0.04673l0.65421,0.56075l0.40207,0.32668l-0.18371,-0.22611l-0.46981,-0.4271l-0.11305,-0.16957l-1.00723,-0.86334l-0.23901,-0.33679l-0.32052,-0.26042l-0.33719,-0.44958l-0.18041,-0.15034zM212.38637,167.08286l-0.33742,0.28923l0.09916,0.01239l1.24744,-0.71282l0.33908,0.19376l0.05713,-0.22856l0.03098,-0.40275zM237.57171,168.5592l-0.09377,-0.18754h-0.80689l0.11201,0.07001l0.15375,0.15945l0.20136,0.09229l0.7165,0.5732zM260.43566,209.15845l0.62311,0.62311l0.3308,0.2481l-0.14393,-0.17714l-0.37833,-0.28825l-0.5026,-0.62825l-0.21914,-0.16436zM235.03036,144.9717l-0.15467,0.17014l-0.06554,0.04369l-0.09969,0.13293l0.03921,0.02614l-0.00877,0.1577l0.01216,0.0191l0.0884,-0.17681l0.30043,-0.3505l0.05211,-0.10422zM252.60847,148.0205c0.00099,-0.00987 0.00203,-0.01971 0.00308,-0.02952c-0.07188,-0.00423 -0.14229,-0.00872 -0.21116,-0.0135c0.06914,0.01469 0.13851,0.02902 0.20808,0.04301zM261.81577,210.43114l0.02085,0.01251l-0.00493,-0.0074l-0.03012,-0.02259z"></path><path d="M270.62235,62.29864c0.66089,1.64477 1.89246,5.04231 0.65445,6.79802c-1.49113,2.11467 -5.0731,1.9125 -6.5625,0c-0.82644,-1.06122 -1.12258,-4.15032 -1.71245,-5.47752c-0.22852,-0.48464 -0.3563,-1.02614 -0.3563,-1.59748c0,-0.12532 0.00615,-0.2492 0.01815,-0.37136c0.24795,-3.93363 2.1208,-4.29411 4.00339,-3.36896c1.7127,0.12255 3.10714,1.3953 3.41505,3.04998c0.23719,0.34461 0.42259,0.67462 0.5402,0.96732z"></path></g><g fill-opacity="0.08235" fill="#b69edb" stroke="none" stroke-width="0.5"><path d="M277.14556,92.82166c0,1.5396 0.77152,8.74732 -2.275,9.68125c-3.01204,0.92336 -15.625,3.29275 -15.625,-3.28125c0,-6.21258 6.70963,-1.65985 8.59035,-5.52093c0.75007,-1.53987 1.41376,-2.62243 1.40965,-4.39382c-0.00595,-2.56656 -3.23159,-5.26526 -1.33125,-7.96026c1.49113,-2.11467 5.0731,-1.9125 6.5625,0c2.00157,2.57017 2.29015,7.86906 2.52255,10.89019z"></path><path d="M277.39556,158.77166c0.74198,0.8893 3.72107,5.82297 5.30485,5.65156c0.98134,-0.10621 1.91438,-0.49461 2.88952,-0.64757c0.76034,-0.11927 2.52207,1.81638 3.2626,2.24613c3.08776,1.7919 5.10844,3.35527 8.42008,4.64578c2.81,1.09502 6.29771,6.93559 3.4042,9.8291c-3.68893,3.68893 -6.56143,-0.62067 -9.87515,-2.48296c-2.72193,-1.52971 -6.49175,-1.96929 -8.88623,-3.87186c-4.12005,-3.27365 -7.48187,-8.41684 -10.94555,-11.24256c-0.38895,-0.31731 -2.0385,-0.81774 -3.87143,-1.41713c-3.20865,2.57586 -4.91456,0.09413 -8.39,-1.43832c-0.2141,-0.0944 -2.55886,0.88414 -2.91289,0.92782c-1.52205,0.18782 -3.04473,-0.57035 -4.36128,-1.19355c-0.32631,-0.15446 -0.25027,0.74568 -0.56372,0.9248c-0.99954,0.57117 -2.4001,-0.06195 -3.4217,0.46875c-0.59573,0.30947 1.017,0.87847 1.49117,1.35369c0.51373,0.51487 0.46658,1.38237 0.60553,2.09631c0.31939,1.64105 -0.69351,3.72909 -0.37064,5.12046c0.00899,0.03877 0.01935,0.07974 0.03095,0.12282c0.34758,0.13707 0.71703,0.31597 1.10963,0.54032c2.84313,1.62464 2.77011,8.37072 3.76926,10.80954c0.96113,2.34601 2.19917,6.25348 3.59663,8.26121c2.24457,3.2248 6.26119,5.42829 8.2427,8.73081c1.26657,2.11096 0.58411,4.43172 1.70951,6.48221c1.90156,3.46468 10.76724,-4.2624 12.31953,1.94677c0.93886,3.75543 -0.90134,10.16586 -3.40756,12.906c-1.96401,2.14731 -1.52575,6.63366 -4.63006,8.49625c-0.4149,0.24893 -0.97553,0.32939 -1.55228,0.33606c-1.55342,5.30856 -4.87429,10.76808 -6.61985,15.68043c-2.51117,7.06695 -3.01929,15.05221 -6.22762,21.84724c-0.84001,1.7791 -2.3835,4.23172 -4.1262,5.70484c0.03086,0.04492 0.05999,0.09155 0.08726,0.14003c1.33853,2.37957 -0.49844,5.70448 -1.0294,7.93709c-0.27041,1.13704 -0.58066,2.23408 -0.92158,3.30421c0.01134,0.0029 0.02266,0.00584 0.03396,0.00884c0.39987,0.08606 0.7839,0.24384 1.13209,0.4804c1.39263,0.94615 4.49299,5.92325 4.94971,7.7501c1.11561,4.46242 -3.3613,6.36885 -6.92727,3.46937c-0.5554,-0.45159 -1.48648,-2.23508 -2.25013,-3.81249c-0.61293,1.42559 -1.23999,2.86397 -1.85596,4.35106c-1.15506,2.78854 0.1699,8.53643 -4.61266,8.53643c-7.25833,0 -2.11584,-11.86221 -0.47793,-14.99351c0.71837,-1.37334 1.18151,-2.86904 1.66007,-4.34318c0.51411,-1.58364 1.14886,-2.6477 1.55819,-4.43624c0.13673,-0.59744 0.33721,-2.13594 0.62839,-3.73208c-0.64183,0.00848 -1.39258,-0.085 -2.26503,-0.30051c-1.05776,-0.26129 -1.4912,-2.40195 -1.87049,-3.15005c-1.42558,-2.81176 -3.24291,-5.1488 -4.43308,-8.13745c-4.06923,-10.21837 -12.88181,-16.54174 -19.91094,-24.51453c-0.09413,0.00501 -0.19051,0.00756 -0.28917,0.00756c-1.25973,0 -2.39049,-0.98424 -3.28125,-1.875c-1.12211,-1.12211 -0.03297,-3.13555 -0.89518,-4.44261c-3.14819,-4.77244 -7.23489,-8.36777 -9.16176,-13.92353c-1.5393,-4.43829 -7.02606,-4.87703 -8.2118,-9.90886c-0.39031,-1.65633 -0.25817,-5.7968 0.86875,-7.675c0.54539,-0.90897 2.95941,-1.87033 3.07837,-2.10449c0.95568,-1.88118 1.79763,-4.81054 2.40658,-6.69693c1.62822,-5.04389 1.76241,-11.22794 3.84221,-16.00063c1.40596,-3.22638 2.90122,-6.22179 4.5336,-9.05333c-6.54836,2.77219 -13.58427,6.60369 -18.29937,11.05057c-2.00151,1.88764 -6.75948,1.75888 -9.15512,0.56106c-2.83826,-1.41913 -2.37824,-4.49736 -2.22379,-7.2861c0.21476,-3.8777 2.94872,-9.5661 4.81754,-13.07014c0.52507,-0.98452 1.67453,-0.58206 2.30896,-1.31941c0.37381,-0.43445 0.45187,-2.05201 0.69051,-2.59831c0.52887,-1.21075 1.63593,-2.49219 1.87156,-3.65218c1.20653,-5.93992 2.12688,-11.84626 3.57219,-17.86461c0.00436,-0.01814 1.54044,-5.81161 2.3505,-8.38684c-2.95813,-2.03489 -6.11973,-4.05372 -8.39329,-6.50296c-1.93735,-2.08706 -2.6981,-5.10294 -4.55927,-7.13749c-3.19606,-3.4938 -4.50776,-9.01373 -5.41864,-13.52435c-0.14658,-0.72586 -1.14305,-4.77354 0.02692,-5.4421l3.23181,-1.84675c1.97019,1.12582 3.06546,2.34662 3.74995,3.73055c0.71747,1.4506 0.98363,3.08043 1.333,4.96797c2.92385,-0.27497 5.91193,3.30612 9.2318,3.30147c0.59705,-0.00083 1.42681,-0.49059 2.23977,-1.05469c3.17246,2.82595 6.34607,5.70915 9.66245,8.36148c0.26549,0.21233 5.18256,3.93128 5.56782,4.0182c1.37163,0.30945 3.21029,0.9981 4.56137,0.77084l0.03894,0.09086c0.4064,1.01112 1.39614,1.72498 2.55262,1.72498c1.20155,0 2.22311,-0.77058 2.59745,-1.84452l0.97745,-2.60656l-0.09776,-0.03666c0.10983,-0.2482 0.20081,-0.50502 0.26841,-0.77255c0.37946,-1.50169 -0.34666,-3.20454 -1.22019,-4.48362c-1.28377,-1.87977 -3.6183,-2.32211 -5.71567,-2.98218c-0.77736,-0.61137 -1.43347,-0.93624 -2.10143,-1.24675c-1.02115,-2.25306 -2.341,-4.42321 -4.04092,-5.89659l0.73494,-0.26247l0.03787,0.01893l0.02912,-0.01553l0.30975,-0.18585c-0.04856,-2.99526 0.70267,-6.18079 0.93327,-8.98546c0.0554,-0.67373 -0.2302,-3.43792 0.46875,-4.13686c0.89076,-0.89076 2.06778,-1.53678 3.28125,-1.875c0.41781,-0.11645 0.70454,0.73105 1.12977,0.64559c1.11072,-0.22322 0.75506,-2.13979 1.03166,-3.23844c0.27743,-1.10197 0.80367,-7.36256 1.49005,-10.95068c-0.00098,-0.03537 -0.00149,-0.07086 -0.00149,-0.10648c0,-0.70028 0.19195,-1.35573 0.52611,-1.9166c0.6541,-1.09789 1.8531,-1.8334 3.22389,-1.8334c1.44533,0 2.69969,0.81767 3.32571,2.01567c0.0892,0.12896 0.1633,0.26958 0.21914,0.42428c0.10672,0.2956 0.16544,0.6202 0.18917,0.96155c0.01057,0.11475 0.01598,0.23099 0.01598,0.3485c0,0.07192 -0.00203,0.14337 -0.00602,0.21429c-0.03884,1.36503 -0.49,2.87942 -0.61971,3.85045c-0.82697,6.19077 -2.1242,11.27689 -3.92954,17.24562c-0.32655,1.0796 -0.45729,2.2097 -0.73403,3.30313c-0.05648,0.22317 -0.76832,1.59603 -0.67509,1.68822c1.39021,1.37466 7.92007,4.44172 8.53934,7.65638c3.71934,-1.95618 5.47123,-3.56513 10.1073,-3.70809c0.6389,-0.0197 0.85514,-1.7394 1.0865,-2.125c1.67943,-2.79904 5.68307,-2.79904 7.3625,0c0.88435,1.47392 3.23357,11.58716 3.06875,13.875c-0.03198,0.44392 -2.6904,7.37811 -0.45854,7.3699c4.06792,-0.01496 5.98935,-3.85454 8.94657,1.32059c1.13779,1.99115 -1.70531,4.05613 -3.29333,4.68874c-3.31509,1.32061 -6.47729,1.90296 -9.79471,2.05064v6.7988l0.12718,0.63588l-0.01776,0.37309l0.09059,0.36235v3.4l-0.05387,0.2155l0.00967,0.12566l-0.05702,0.06373l-0.36753,1.47011l-1.93942,1.10825l-0.15597,0.17432l-0.11044,-0.02209l-1.07542,0.61452l-2.23356,-1.27632l-0.28638,-0.05727l-0.10637,-0.16715l-0.65494,-0.37426l-0.26314,-1.05255l-0.12358,-0.15447l-0.67464,-0.53971l-0.12797,-0.16797l-0.18107,-0.10864l-0.53743,-0.53744l-0.89104,-0.59403l-0.21266,-0.23392l-0.75895,-0.12649l-0.80592,0.9671l-0.54234,0.72313l-0.20948,0.17021l-0.13887,0.23145l-0.81155,0.81155l-0.4401,0.5868l-0.20948,0.1702l-0.13887,0.23145l-0.78054,0.78054l-0.81961,1.14745l-0.10863,0.09254l-0.06204,0.12851l-2,2.4l-0.03748,0.02739l-0.00998,0.01945c1.40805,0.47255 2.6484,1.22097 4.14598,1.58686c0.19919,0.04866 1.58734,-1.12231 2.10394,-1.34563c0.83732,-0.36195 1.87143,-0.70731 2.98198,-0.96156c0.39361,-1.18021 1.1018,-2.01549 2.34888,-2.08477c4.29671,-0.23871 6.0499,4.73303 10.04813,6.35881c1.09058,0.44346 2.22925,0.78914 3.38774,0.9987c0.17845,0.03228 2.92283,-2.12421 3.64048,-2.23797c5.4588,-0.86534 6.92646,1.92246 6.63585,6.06076c3.23665,-0.03749 11.01756,3.66295 13.07366,6.12727zM236.91988,176.47334c-3.22182,-3.49288 -8.47821,-6.32412 -11.72644,-10.25508c-2.7387,6.32159 -6.88397,12.07922 -9.07772,18.54833c-1.19119,3.51268 -1.56735,7.56856 -2.20306,11.15069c-0.35893,2.0225 -1.79176,5.01606 -3.19692,6.78451c-0.25597,0.32215 -1.98895,1.74748 -1.93561,1.90376c2.34196,6.86203 6.10348,6.69504 5.56542,14.8161c-0.0285,0.43023 -0.1341,0.76943 -0.2784,1.04853c0.04236,0.11787 0.08418,0.20366 0.12433,0.2441c2.49542,2.51278 4.02135,6.31994 5.65087,9.43018c1.00747,1.92295 1.31739,4.27983 3.32586,5.48537c2.7104,1.62684 4.05874,4.13227 6.22585,6.48704c3.4128,3.70835 6.9549,6.75737 9.75559,11.02774c3.03815,4.63243 5.12467,9.93126 7.92714,14.60205c0.10772,0.17954 0.21256,0.36608 0.31364,0.55826c0.17759,-0.5992 0.43419,-1.18513 0.65102,-1.56031c2.21062,-3.82508 3.73021,-6.27245 4.65512,-10.93944c0.76871,-3.87877 1.88121,-7.75467 3.16545,-11.46639c0.47401,-1.37 0.95012,-2.7364 1.43321,-4.09921c-2.22505,-1.44862 -1.90257,-4.13865 -1.81654,-6.55048c0.11989,-3.36112 0.66024,-7.04234 2.11686,-10.11742c1.05293,-2.22285 3.49615,-4.83935 3.64673,-7.26401c0.01635,-0.2632 -0.3951,-0.35056 -0.57499,-0.54338c-1.63251,-1.74992 -3.11613,-4.2214 -4.52324,-6.16296c-5.01787,-6.92375 -11.91367,-13.21661 -14.67838,-21.51075c-0.14248,-0.3963 -0.22012,-0.82353 -0.22012,-1.2689c0,-1.22387 0.5863,-2.31081 1.49336,-2.99527c-2.77195,-1.28465 -4.11863,-5.50959 -5.81903,-7.35305zM200.68051,135.9435c-1.20901,5.75304 -1.60358,12.4951 -3.57264,18.00849c-2.0145,5.64058 -4.0911,9.35789 -3.96231,15.50204c0.01601,0.76345 1.35367,-0.72419 1.95314,-1.19722c1.13984,-0.89943 2.41325,-1.36888 3.56213,-2.19695c3.17591,-2.28906 6.4462,-3.49924 10.04464,-5.4184c2.0052,-1.06944 5.2095,-1.55203 6.56462,-3.72175c0.54483,-0.87233 -0.26353,-3.52043 0.07946,-4.89241c0.20749,-0.82996 0.89493,-1.81557 1.85164,-2.81019l-0.08267,-0.04134l-0.42852,-0.3673l-0.10927,-0.05828l-0.00501,-0.01779l-0.43181,-0.25908l-0.4,-0.4l-0.31015,-0.51691l-0.3923,-0.45769l-0.4,-0.8l-0.02356,-0.10605c-2.04492,-0.22178 -7.02576,-4.9663 -7.70359,-6.096c-0.79453,-1.32423 -1.51882,-2.74538 -2.27557,-4.1642l-0.5322,-0.13305l-0.70371,-0.09596l-1,-0.4l-0.44734,-0.32308l-0.25626,-0.01424l-0.38438,-0.44845l-0.23837,-0.17215c-0.14354,0.50412 -0.27782,1.03568 -0.39598,1.59797zM214.57419,123.61177l0.36584,0.31358l0.00229,0.04113l0.4836,-0.31683l-0.85227,-0.03874z"></path><path d="M286.66884,135.78298c1.87498,4.90892 8.90008,15.49972 8.90008,20.24832c0,4.14655 -3.8713,5.84868 -7.05462,2.66536c-1.04816,-1.04816 -2.92462,-7.75128 -3.56473,-9.78355c-0.3837,-1.21819 -1.70105,-2.68376 -2.31158,-3.9056c-1.99512,-3.99273 -3.20364,-7.86017 -4.29329,-12.13398l-0.0008,-0.00021l-0.06203,-0.22744l-0.64042,-0.74716l-0.09058,-0.18115l-0.03657,-0.0209l-0.02612,-0.10449l-0.04673,-0.09346l-0.18692,-0.84113l-0.20898,-0.83593v-0.10449l-0.02337,-0.10514l0.02337,-0.03504v-3.55532l0.11196,-0.44786v-0.46165l0.52625,-2.10497l0.17474,-2.09695l0.09901,-0.29085v-0.30724l0.36368,-1.45471l0.12435,-0.74614v-0.28964l0.17943,-0.71772l-0.07545,-0.27665l0.24791,-0.41318l0.11686,-0.46746l0.24897,-0.14227l0.38063,-0.63438l0.4,-0.4l0.26407,-0.15844l0.21133,-0.42266l-0.00395,-0.05734l0.65256,-0.71782l0.09378,-0.10941l0.34551,-0.64783l0.28836,-0.68484l0.26617,-0.35489l0.0053,-0.00994l0.00273,-0.00077l0.3258,-0.4344l0.41379,-0.33621l0.33621,-0.41379l0.37702,-0.28276l0.22133,-0.36889l1,-1l0.32028,-0.19217l0.25125,-0.27637l0.6,-0.4l0.29951,-0.10697l0.25236,-0.31545l0.45952,-0.35012l0.33853,-0.37238l0.01002,-0.01503l0.02099,-0.01908l0.01908,-0.02098l0.01502,-0.01001l0.02375,-0.0216l0.04135,-0.0982l1.2,-1.6l0.07638,-0.06206l0.04279,-0.08863l1,-1.2l0.3542,-0.25884l0.27663,-0.34047l0.44958,-0.33718l0.71959,-0.86351l0.43679,-0.3192l0.36391,-0.4003l0.6,-0.4l0.22316,-0.0797l0.17991,-0.15421l0.37692,-0.18846l0.36539,-0.21923l0.45769,-0.39231l0.18116,-0.09057l0.02089,-0.03657l0.04167,-0.01042l0.10568,-0.11625l0.63133,-0.73656l0.03603,-0.002l0.1785,-0.44625l0.22967,-0.31799l0.13193,-0.36942l0.07475,-0.11212l-0.00058,-0.00212l0.05542,-0.09236l0.03304,-0.09913l0.4626,-0.72694l0.44331,-0.73886l0.07389,-0.07389l0.05782,-0.09086l0.04131,-0.00826l0.82698,-0.82699l1.65728,-0.99437l3.64602,0.99437l0.83343,3.05592c0.48874,0.58792 0.80119,1.32763 0.8562,2.13797l0.03208,0.04812l-0.02464,0.11088c0.00085,0.03281 0.00128,0.06573 0.00128,0.09875c0,0.62984 -0.15528,1.22342 -0.42964,1.74453l-0.03116,0.06234l-0.9099,2.91167l-0.15899,0.26055l-0.06621,0.29797l-1.11198,2.22396l-0.53089,1.4157l-0.11369,0.16485l-0.04344,0.19549l-1,2l-0.35911,0.41897l-0.03547,0.25419l-0.47882,0.34582l-0.38439,0.44845l-0.25625,0.01423l-0.44735,0.32308l-0.08206,0.03283l-0.04621,0.05776l-0.7314,1.17025l-0.48625,1.13458l-0.30708,0.40405l-0.21146,0.46136l-0.55183,0.68978l-0.35258,0.70515l-0.17982,0.44956l0.00198,0.00727l-0.01468,0.02447l-0.14955,0.37387l-0.44186,0.61181l-0.04933,0.08221l-0.15567,0.46701l0.01108,0.04063l-0.05541,0.09236l-0.03304,0.09913l-0.4626,0.72694l-0.44331,0.73886l-0.07388,0.07389l-0.02609,0.04098l-0.00721,0.12979l-0.56439,0.48377l-0.48377,0.5644l-0.09,0.005l-0.51,0.595l-0.05739,0.00319l-0.47219,0.3148l-0.71673,0.53754l-0.0982,0.04135l-0.07167,0.07884l-0.89104,0.59403l-0.33743,0.33743l-0.51691,0.31015l-0.38948,0.33384l-0.09361,0.15601l-2.16969,2.1697l-0.12785,0.25571l-0.22183,0.2588l-0.13227,0.31414l-0.14563,0.19418l-0.01634,0.06533l-0.19434,0.3644l-0.08958,0.40315l-0.04052,0.08103c0.57389,1.74421 0.59227,3.91762 1.1597,5.40323zM288.03925,116.29556l-0.08958,0.40315l-0.17786,0.35571l0.00396,0.05734l-0.4157,0.45726l-0.03598,0.06748l-0.03406,0.00958l-0.16682,0.1835l-0.33354,0.38913l-0.0159,0.0318l0.5718,-0.42885l0.05208,-0.02193l0.41784,-0.35815l0.25188,-0.29386l0.09327,-0.2798l-0.01109,-0.04063l0.05542,-0.09236l0.03304,-0.09913l0.4626,-0.72694l0.18363,-0.30605l0.22956,-0.57388l0.05771,-0.07991l-0.05471,0.05471l-0.12786,0.14917l-0.54335,0.66874l-0.08359,0.06269l-0.0701,0.08178l-0.04206,0.00233l-0.06019,0.04515z"></path></g><g fill-opacity="0.08235" fill="#b69edb" stroke="none" stroke-width="0.5"><path d="M266.00841,102.45223c-2.29462,0.23995 -5.06772,0.02972 -5.06772,-3.57057c0,-2.34944 6.42542,-6.56485 8.475,-7.28125c0.85789,-0.29986 3.55727,-1.0373 4.17826,0.04944c1.10528,0.65232 1.84674,1.85547 1.84674,3.23181c0,1.72489 -1.16457,3.17777 -2.75034,3.61529c-1.91598,1.99634 -4.3444,3.71085 -6.68194,3.95529z"></path><path d="M191.21348,106.18991l2.95734,1.97156l0.13707,0.15078l0.1835,0.08858l1.2,1l0.11515,0.15757l0.76121,0.16915l0.09346,0.04673l0.10449,0.02612l0.0209,0.03657l0.18115,0.09058l0.17992,0.15422l0.22315,0.0797l0.40574,0.2705l1.07957,0.53978l0.02549,-0.004l0.06393,0.0487l0.22219,0.1111l0.61105,0.52375l0.64016,0.48774l0.15519,0.19399l0.06102,0.05231l0.00143,0.02576l0.45261,0.56576l0.65314,0.65314l0.10864,0.18107l0.16796,0.12797l0.8,1l0.02506,0.05468l0.04668,0.03793l1.00591,1.34121l0.07611,0.04228l0.01798,-0.00225l0.04763,0.0387l0.27353,0.15197l0.57148,0.53461l0.60736,0.49348l0.18775,0.25033l0.04481,0.04192l0.00022,0.01812l0.10441,0.13921l0.86351,0.71959l0.01581,0.02163l0.02396,0.01198l1.30725,1.1205l1.96293,1.47219l1.41237,0.62772l0.15192,0.11868l0.18559,0.05219l1.4,0.8l0.02961,0.02837l0.03923,0.01194l0.74235,0.44541l1.72101,0.68841l0.129,0.09317l0.15533,0.03451l1.6,0.8l0.17992,0.15421l0.22315,0.0797l1.00575,0.6705l0.99118,0.49559l0.4577,0.39231l0.51691,0.31014l0.45314,0.45314l0.71074,0.5686l0.4646,0.30973l0.25125,0.27637l0.32027,0.19217l0.07357,0.07357l0.60414,0.36248l0.06465,0.06465l0.03488,0.01246l0.30654,0.06131l0.13636,0.06459l0.12258,-0.03343l0.72433,0.4346l0.12966,0.06142h3.26638l0.00821,-0.00411l0.45065,-0.10014l0.41291,-0.20646l1.8,-0.4l0.041,0.00108l0.03706,-0.01755l1,-0.2l0.37309,0.01776l0.36235,-0.09058h0.66459l0.25528,-0.17019l0.60436,-0.21585l0.56626,-0.302l0.66028,-0.16507l0.21054,-0.07019l0.16163,-0.08082l0.30586,-0.06797c-0.65423,-0.31641 -1.29472,-0.66423 -1.90586,-1.02383c-2.45234,-1.44298 -3.9282,-4.6578 -5.53202,-6.9073c-2.82106,-3.95677 -5.73793,-5.75935 -6.49411,-11.05261c-0.03081,-0.19353 -0.04681,-0.39199 -0.04681,-0.59419c0,-0.18833 0.01388,-0.37343 0.04068,-0.55431c0.02738,-0.66535 0.00126,-1.48088 -0.01466,-2.33754c-2.13565,-1.45285 -3.80125,-4.36625 -4.93777,-5.84641c-0.94814,-1.23481 -3.38006,-1.01726 -4.25819,-2.04535c-0.54677,-0.64014 -1.98547,-3.10824 -1.38585,-4.15756c0.97108,-1.6994 6.52559,-5.0867 8.0017,-2.50352l0.50849,0.25424c1.04426,0.49503 1.82336,1.4583 2.06611,2.61865c1.03967,1.69633 1.96711,3.53579 3.38288,4.43673c1.02103,0.64974 2.81224,0.6022 3.29109,2.03874c0.18167,0.545 0.31536,1.03834 0.3975,1.48722c1.01963,1.0681 2.12724,2.00499 3.70968,1.78264c2.59064,-0.36401 6.47575,-6.27718 10.29978,-2.7815l1.64857,-0.94204c3.04261,1.73864 3.60501,2.71586 3.6421,4.64677c0.0171,0.8903 -0.07748,1.98334 -0.0921,3.44725c-0.0548,5.48506 0.14022,10.97245 0,16.45598c-0.04975,1.9455 -1.28717,3.69734 -3.64293,3.74883c-0.57937,0.61169 -1.27515,0.98532 -2.04691,1.17172l0.18082,0.27123l0.68755,0.19337l0.90951,1.70533l0.16507,0.66028l0.15446,0.46338l0.02281,0.29657l0.11861,0.27278l0.2,1.2l-0.025,0.31242l0.07602,0.30407v2.8l-0.46875,1.875l-0.12857,0.07346l-0.00822,0.14785l-1.46742,1.25779l-0.4,0.2l-1.88668,0.41927l-0.58852,-0.39235l-0.70185,0.08773l-1.47059,-1.19486l-0.17776,0.17776l-0.23145,0.13887l-0.17021,0.20949l-0.58679,0.44009l-0.21156,0.21156l-0.63438,0.38063l-0.14227,0.24897l-0.46746,0.11686l-0.2728,0.16368l-0.4577,0.3923l-0.19118,0.09559l-0.31914,0.21276l-0.71673,0.53755l-0.0982,0.04135l-0.07167,0.07884l-0.61502,0.41002l-0.06771,0.06155l-0.06914,0.15085l-0.73616,0.9202l-0.9406,1.31683l-0.23859,0.20325l-0.16126,0.26876l-0.61155,0.61155l-0.4401,0.5868l-1.5,1.21875l-0.70185,-0.08773l-0.58852,0.39235l-1.88668,-0.41927l-0.4,-0.2l-1.23701,-1.0603l-0.20581,0.22639l-0.6,0.4l-0.22315,0.0797l-0.17992,0.15422l-0.58115,0.29057l-0.0209,0.03657l-0.10449,0.02612l-0.09346,0.04673l-0.84112,0.18692l-0.83593,0.20898h-0.10449l-0.10514,0.02337l-0.03504,-0.02337h-0.75532l-1.875,-0.46875l-0.49009,-0.85767l-0.28656,-0.17193l-0.03938,-0.03939l-0.59022,-0.33727l-0.08432,-0.33727l-0.88609,-0.88609l-0.31015,-0.51691l-0.3923,-0.45769l-0.12544,-0.25089l-0.32837,-0.29852l-0.73656,-0.63133l-0.00319,-0.0574l-0.21859,-0.32789c-3.14082,-1.54635 -6.17973,-6.46469 -7.53858,-8.13914c-2.7439,-3.38119 -6.35028,-5.80196 -9.11076,-9.04253c-7.31148,-8.58304 -13.0925,-18.3603 -18.10477,-28.38483c-0.27436,-0.52111 -0.42964,-1.11469 -0.42964,-1.74453c0,-2.07107 1.67893,-3.75 3.75,-3.75c0.33336,0 0.65655,0.04349 0.96422,0.12512c0.39987,0.08606 0.7839,0.24385 1.13209,0.48041c3.54296,2.40706 5.33074,7.50565 7.21706,12.0309c0.2883,0.10781 0.55977,0.25009 0.80941,0.42182zM228.54676,137.99227l0.02518,0.01439l0.05298,0.21191l0.39391,-0.26262z"></path><path d="M268.21859,154.79172c0.14534,-0.04697 0.29904,-0.07577 0.46247,-0.08343c2.23183,-0.1045 4.15542,1.92019 6.08316,2.74994c6.29834,2.71096 12.59489,6.95493 16.97029,12.29205c1.95153,2.38047 8.36574,4.97745 5.67637,9.0115c-2.26725,3.40088 -4.97815,1.10388 -7.11291,-0.19834c-5.82074,-3.55071 -9.29839,-10.22513 -15.88081,-13.05837c-0.2292,-0.09865 -1.97441,-0.86321 -3.84001,-1.78686c-2.44891,1.19968 -4.46668,-2.66661 -7.45563,-2.68656c-4.83769,-0.0323 -10.30545,1.93147 -14.50584,-0.46875c-0.63626,-0.36357 -1.15499,-1.76048 -1.59948,-2.17918c-0.67885,-0.63945 -2.26118,-0.86052 -3.10475,-1.34257c-0.03869,0.0248 -0.07787,0.0489 -0.11751,0.0723c-0.28908,0.50589 -0.9367,0.53362 -1.58331,0.50474c-0.10547,0.00891 -0.21217,0.01346 -0.31994,0.01346c-0.20236,0 -0.40097,-0.01603 -0.59465,-0.04689c-0.13674,0.00444 -0.26275,0.018 -0.37271,0.04689c-0.31059,0.08158 -1.04144,1.14153 -1.35764,1.33125c-1.17467,0.7048 -2.70157,0.41484 -3.9651,0.09896c-0.77768,-0.19442 -1.39972,-0.60528 -1.88332,-1.16501c-2.22239,0.72379 -4.55668,1.0035 -7.06691,1.71267c-0.57307,2.86421 -4.78163,2.29725 -5.83304,5.24881c-0.48601,1.36433 -0.69966,2.805 -0.93543,4.23981c0.02768,0.44501 -0.05111,0.93439 -0.26157,1.46741c-0.01949,0.09705 -0.03955,0.19395 -0.06027,0.29066c-0.04244,0.19801 -0.09123,0.44941 -0.14803,0.73689c-0.0417,0.39191 -0.12724,0.78569 -0.24641,1.1808c-0.37141,1.64873 -0.96545,3.62939 -1.95498,4.12416c-0.02957,0.01479 -0.05902,0.02945 -0.08832,0.04397c-0.83102,1.44421 -1.63368,2.88201 -1.91918,4.28841c-1.66562,8.20496 -0.5685,11.73445 -6.251,17.977c-0.60325,0.66271 1.39246,5.7908 1.55642,6.48754c0.37881,1.60971 1.352,7.34443 1.39446,11.45888c0.85208,2.0828 1.55988,4.24532 2.83149,5.79643c7.22615,8.81448 12.86909,17.62952 20.40783,26.07972c2.18436,2.44845 3.42977,5.65793 5.58845,8.18845c1.64271,1.92566 4.91903,5.86387 6.82778,8.81408c0.94966,-10.27663 3.0108,-15.07148 7.61955,-25.76225c0.94591,-2.19421 0.63901,-9.35272 1.72923,-12.89718c0.72715,-2.36404 2.05513,-5.75366 3.96544,-8.26534c-0.0118,-0.00797 -0.02263,-0.01659 -0.03211,-0.0261c-1.88292,-1.89058 -2.14977,-5.32457 -4.06162,-6.94495c-1.93354,-1.63877 -4.1319,-2.99054 -5.61664,-5.11244c-2.51167,-3.58955 -2.9992,-7.32 -6.34674,-10.26136c-1.79062,-1.57334 -2.43675,-5.36917 0,-6.5625c6.43486,-3.15131 13.45927,10.04684 16.23507,13.97897c0.49515,0.70141 1.36026,3.85449 2.31356,4.05295c0.22919,0.04772 1.84271,-1.22915 2.34051,-1.30824c2.80741,-0.44607 4.84413,-2.25879 8.06086,-0.72368c5.34695,2.55171 0.13993,15.40662 -3.23724,18.15057l-0.51354,1.41222c-0.57472,0.85143 -0.69515,2.41607 -1.37975,3.21478c-0.22992,0.26824 -0.50667,0.51129 -0.81598,0.72343c-2.20695,5.46736 -5.26252,10.67066 -7.04724,16.25526c-0.92782,2.90328 -3.51456,5.78657 -4.01731,8.78238c-0.99258,5.91467 -0.98661,11.89981 -2.12395,17.81869c-0.0819,1.12556 -0.6606,2.11328 -1.51781,2.74489c-1.04084,2.03044 -2.31411,4.04065 -2.44098,6.07744c-0.04913,0.78864 5.39405,3.45038 5.67044,3.64995c2.05617,1.48466 1.41174,4.16914 1.75215,6.26684c0.15855,0.97706 0.4639,2.87336 -0.32255,3.65981c-2.5,2.5 -4.0625,2.5 -6.5625,0c-0.37563,-0.37563 -0.59416,-2.87545 -0.66875,-3.675c-0.05516,-0.59127 -0.65372,-1.98699 -0.97768,-1.48929c-2.16009,3.31855 0.28961,7.94627 -4.11569,9.57836c-0.65079,0.24111 -1.6076,0.88844 -2.34249,0.4685c-5.02238,-2.86993 -1.68415,-14.78376 -0.13293,-19.25396c0.54514,-1.57095 1.29257,-3.66376 1.94379,-5.42002c-0.83121,-0.19098 -1.69151,-0.79385 -2.70625,-1.80859c-0.6296,-0.62961 -0.27017,-2.14273 -0.95641,-2.91574c-2.27848,-2.56658 -3.8756,-5.48921 -6.01399,-8.10761c-7.87206,-9.63908 -14.99494,-19.2607 -22.23499,-29.72121c-2.67901,-3.87066 -5.7762,-7.43169 -8.03908,-11.54194c-1.03493,-0.75415 -2.0524,-1.6288 -2.59842,-1.95794c-1.61577,-0.974 -3.6256,-1.41957 -5.13637,-2.57464c-2.32963,-1.78115 -4.61924,-9.18924 -4.28948,-12.05591c0.41886,-3.64124 3.40839,-2.50572 3.9494,-4.11831c0.44054,-1.3131 0.08066,-2.92566 0.51935,-4.35669c2.53224,-8.26028 8.19566,-16.73602 12.61254,-24.55954c-0.23619,0.16051 -0.46433,0.32406 -0.67964,0.48619c-1.70788,1.286 -3.33922,2.35702 -5.16578,3.39804c-2.44876,1.39563 -4.86711,2.22082 -7.39755,3.35893c-0.67641,0.30423 -0.88045,1.19882 -1.39201,1.73585c-1.9783,2.07682 -7.74651,3.94512 -10.74984,2.94401c-4.04014,-1.34671 -3.67792,-6.27402 -2.594,-10.3221c-2.91848,-2.40409 1.68703,-9.64044 2.55464,-11.76583c0.31187,-0.76397 1.18983,-4.99919 2.39992,-5.16804l2.29298,-0.7825c1.12562,0.96641 3.08658,1.48493 3.62105,2.77149c0.05906,0.14216 0.1007,0.29369 0.12187,0.45624c0.01851,0.14206 0.02046,0.31492 0.00707,0.51475c0,0.00251 0.00001,0.00501 0.00001,0.00752c0,0.39791 -0.06197,0.78134 -0.17679,1.14117c-0.3887,1.80893 -1.35312,4.512 -2.5554,7.03351c0.40566,0.33142 0.72636,0.70206 0.87214,1.15322c0.04697,0.14534 0.07577,0.29904 0.08343,0.46247c0.01542,0.32934 -0.02349,0.65152 -0.1002,0.96854c-0.06688,0.32539 -0.17591,0.63541 -0.32113,0.92409c-0.32131,0.73391 -0.76422,1.44965 -1.10676,2.17389c2.58978,-1.39035 5.84898,-2.47174 6.82905,-3.4345c0.5217,-0.51249 2.50498,-2.69769 4.10609,-4.36375c0.39946,-0.88483 1.13225,-1.58687 2.0383,-1.94604c0.42747,-0.16945 0.89351,-0.26259 1.38129,-0.26259c1.21262,0 2.29081,0.57557 2.97628,1.46841c0.93324,-0.61861 1.89335,-1.18069 2.90701,-1.62964c0.99075,-0.43881 3.547,-1.05335 4.10888,-2.12382c0.30725,-0.58537 0.53578,-1.09421 0.74588,-1.5534c-0.05766,-0.26132 -0.08805,-0.53289 -0.08805,-0.81155c0,-2.05673 1.65577,-3.72674 3.70705,-3.74976c1.91178,-1.05994 4.18784,-1.54152 6.90177,-2.41124c2.62922,-0.84258 4.85851,-2.15705 7.35532,-3.19656c0.21234,-0.08841 0.41646,-0.18541 0.61501,-0.28759c0.29628,-0.63096 0.65076,-1.1711 1.05091,-1.57125c4.30666,-4.30666 15.49671,-1.84761 19.41626,2.07193c0.99499,0.99499 1.34436,1.43626 1.64471,2.70854c0.1301,0.55113 -0.35585,1.64547 0.20898,1.68592c1.76329,0.12632 7.7078,0.03313 12.24829,1.40394c0.1051,-0.0583 0.21474,-0.10676 0.32961,-0.14388z"></path><path d="M288.56787,129.6171c-0.55662,1.17509 -0.38508,3.73129 -0.85596,5.31966c0.66071,1.72044 0.67829,4.00609 0.92878,5.62973c0.58861,3.81527 2.27093,8.25794 3.22023,12.05516c1.02729,4.10915 -4.89973,4.8512 -7.05148,2.53501c-1.27942,-1.37719 -1.04095,-4.55003 -1.35679,-6.16235c-0.8684,-4.43317 -2.50724,-7.84141 -3.07567,-12.38883c-0.02393,-0.17118 -0.03629,-0.34605 -0.03629,-0.52381c0,-0.387 0.05863,-0.7603 0.16747,-1.11151c-0.74756,-2.29033 -0.87894,-5.28233 -0.76747,-6.88849c0.06279,-0.90467 0.42371,-1.70198 0.91711,-2.45717c0.9176,-1.40448 2.29339,-2.66332 3.06166,-4.19633c0.70103,-1.39885 0.22242,-2.23251 0.72521,-3.74088c1.10172,-3.30515 7.34926,-12.32901 10.39437,-15.45728c1.6768,-1.72258 6.61546,-9.13175 9.5033,-4.8c1.91238,2.86858 0.31976,6.26462 -1.33917,9.0106c-4.6555,7.7061 -10.30389,14.60912 -14.33379,22.66892z"></path></g></g></g></svg>