<svg version="1.1" xmlns="http://www.w3.org/2000/svg" xmlns:xlink="http://www.w3.org/1999/xlink" width="162.4163" height="193.29755" viewBox="0,0,162.4163,193.29755"><g transform="translate(-188.30029,-105.94913)"><g stroke="none" stroke-width="0.5" stroke-miterlimit="10"><path d="M339.78565,130.91888c1.45903,-0.96618 2.71525,-1.56815 4.096,-1.98251c0.73818,-0.91413 1.45074,-1.87179 1.98901,-2.44894l1.43098,-0.99865c0.15385,-0.1096 0.32881,-0.19065 0.51672,-0.23608c0.04546,-0.0129 0.09314,-0.02452 0.14266,-0.03414c0.22988,-0.38998 0.68681,-0.82742 1.55133,-0.65668c1.47157,0.29063 1.18094,1.7622 1.18094,1.7622c-1.12596,5.65632 -2.92232,9.46856 -7.6655,13.15519c-1.69562,1.31792 -4.52474,2.75143 -6.6328,1.22931c-3.05369,-2.20492 -1.16645,-6.60371 1.34396,-8.33597c0.11137,-1.15324 1.35324,-1.27097 1.35324,-1.27097c0.04212,-0.00386 0.08453,-0.00609 0.12718,-0.00691c0.19836,-0.1044 0.40345,-0.15336 0.56629,-0.17585z" fill-opacity="0.97647" fill="#ad4eac"></path><path d="M285.70356,288.81136c-0.12233,-0.96986 -0.05281,-1.99165 0.13282,-3.49349c-0.00571,-0.56906 -0.01612,-1.14195 -0.01897,-1.72057c-2.53324,-5.08463 -3.75386,-10.7605 -4.444,-16.57033l-0.68115,-1.8164c-0.08101,-0.20157 -0.12559,-0.42169 -0.12559,-0.65223c0,-0.9665 0.7835,-1.75 1.75,-1.75c0.73886,0 1.37077,0.45789 1.62745,1.10537l0.52967,1.25195c-0.02541,-1.93624 0.12572,-4.07855 1.11791,-4.81057c0.82336,-0.60746 2.02036,-0.0787 3.05563,0.24091c0.12723,-0.02433 0.26662,-0.03766 0.41933,-0.03766c0.29751,0 0.54444,0.05058 0.7494,0.13454c0.10677,-0.11467 0.19318,-0.24233 0.2506,-0.3838c0,-0.4833 0,-1.50074 0,-1.50074c0,-0.9665 0.7835,-1.75 1.75,-1.75c0.63662,0 1.19384,0.33994 1.50005,0.84819l0.03404,0.05447c0.21853,-0.09809 0.46085,-0.15266 0.7159,-0.15266c0.9665,0 1.75,0.7835 1.75,1.75v2.19054c0.00599,0.06634 0.01176,0.1327 0.01734,0.19907c0.39172,0.71237 0.70643,1.50638 0.92796,2.42627c0.69614,2.89063 -0.18704,5.91416 0.50672,8.77713c0.63709,2.6291 1.39359,5.3726 2.00303,8.08899c0.6732,0.4148 1.25289,0.84777 1.76506,1.30211c0.14858,0.03947 0.29841,0.08886 0.44958,0.1491c2.45695,0.97906 5.24422,4.21008 4.46337,6.63809c0.3475,1.11463 0.31085,2.25699 -0.32113,3.13685c-0.62302,0.86739 -2.08276,0.53129 -3.14911,0.58967c-1.35665,0.07428 -1.99902,-0.0698 -2.66898,-0.26379c-3.72621,0.35117 -7.42776,0.48055 -11.19747,0.50936c-0.02948,0.00081 -0.06042,0.0011 -0.0926,0.00069c-0.44049,0.00317 -0.88192,0.00499 -1.32443,0.00564c-0.29151,0.06508 -0.63677,0.04667 -1.03577,-0.12566c-0.304,-0.10825 -0.6456,-0.30954 -0.86486,-0.68386c-0.23675,-0.36351 -0.26402,-0.75907 -0.22489,-1.07938c0.02411,-0.43034 0.15996,-0.74572 0.34614,-0.97683c0.13112,-0.5449 0.22307,-1.08798 0.28692,-1.63096zM289.81895,267.34977c0.00009,-0.04474 0.00017,-0.08827 0.00026,-0.13052c-0.00327,0.01622 -0.00653,0.03244 -0.00978,0.04867c0.00322,0.02728 0.00639,0.05456 0.00952,0.08185z" fill="#e5c1e4"></path><path d="M200.06668,299.05833c-0.73594,0 -1.36577,-0.45428 -1.62439,-1.09771l-0.73411,-1.71293l-0.1415,-1.68936c0,0 0,-0.54022 0.30015,-1.02037c-0.02632,-0.05593 -0.0537,-0.11126 -0.08212,-0.16597c0.00512,-1.07542 0.01523,-2.1508 0.03197,-3.22609c0.01759,-1.1298 0.24116,-2.2815 0.29977,-3.42407l1.17496,-0.55036c0.06857,-0.13468 0.15806,-0.26898 0.27485,-0.39015c1.85156,-2.73808 3.74896,-5.02619 5.98169,-7.42833c2.6632,-2.86527 4.462,-6.24072 7.28129,-9.0321c1.16666,-1.15511 2.07735,-2.47366 2.97442,-3.79912l-0.66317,-2.21058l0.01774,-0.00532c-0.49869,-1.22553 -0.64142,-2.52337 0.18192,-3.74578c0.42166,-0.62604 1.53306,0.09568 2.26224,-0.09934c0.77659,-0.20771 -0.02351,-1.68371 0.37387,-2.38252c1.5987,-2.81132 3.92948,-3.60635 6.72596,-4.65847l1.33184,-0.67667c0,0 0.32229,-0.16114 0.7475,-0.19095c0.12391,-0.37111 0.26504,-0.7272 0.54769,-0.98124c2.40731,-2.16366 7.79181,-1.7457 10.16088,0.18916c2.96025,2.41768 4.79875,8.73829 4.82655,12.29828v0.5c0,0 0,1.75 -1.75,1.75c-0.48828,0 -0.84032,-0.13624 -1.09413,-0.33269c-2.70777,3.89235 -6.17633,5.33497 -10.32404,5.18457c-0.60422,0.26961 -1.34432,0.31275 -1.92524,0.64495c-0.43976,0.25148 -0.8971,0.58989 -1.35847,0.9839c-1.55241,2.6027 -3.75865,4.67536 -5.66671,7.09358c-1.46116,1.85183 -2.47835,4.75526 -4.16694,6.66566c0.2864,0.27612 0.4789,0.64897 0.5249,1.06596l0.24569,1.96552c0.05205,0.36369 0.1297,0.77986 0.20892,1.22627c1.55943,-0.09823 1.78843,1.50479 1.78843,1.50479c0.13868,0.97346 0.84196,3.39247 1.07865,5.56909c-0.10413,0.00369 -0.20826,0.0074 -0.31239,0.01113c-0.05426,1.66727 -1.74867,1.66727 -1.74867,1.66727h-0.75c-2.16369,0 -5.80777,0.53654 -7.89591,-0.42847c-2.93165,0.41712 -5.85017,0.93908 -8.83499,1.11631c-0.02551,-0.06627 -0.05103,-0.13238 -0.07656,-0.19831c-0.06323,0.00692 -0.12748,0.01047 -0.19255,0.01047z" fill="#e5c1e4"></path><path d="M308.751,247.57468c-0.03466,-0.22558 -0.03963,-0.42937 -0.02122,-0.61342c-0.50443,-0.04755 -1.00742,-0.11486 -1.5072,-0.19813c0.47677,3.32488 1.92875,7.1283 1.37717,10.12728c-0.46086,2.50573 -2.25466,3.79126 -4.3794,4.73433c-4.3767,1.94261 -9.90036,2.07882 -14.63159,2.80582c-3.54768,0.54514 -8.87988,0.12922 -12.24178,-1.44316c-1.66351,-0.77803 -2.30949,-2.31876 -3.94173,-2.69746c-0.6816,2.39512 -0.56951,5.22563 -2.07232,7.05271c-1.8547,2.2549 -4.55253,2.12271 -7.21474,2.51934c-6.07089,0.90449 -12.29197,-2.91967 -18.19248,-4.16026c-4.28832,-1.38139 -7.97778,-3.35554 -11.6699,-5.80416c-1.18981,-0.78908 -2.69484,-1.19028 -3.63573,-2.26407c-1.0712,-1.22249 -1.8647,-3.0388 -2.62202,-4.61825c-0.38111,0.55518 -0.97873,1.10426 -2.0145,1.84527c-1.2151,0.8693 -2.52937,1.56242 -3.90709,2.12682c-3.31104,2.22842 -7.15809,3.27414 -11.05594,2.57468c-0.27561,0.04068 -0.55029,0.08104 -0.82378,0.12138c-2.33034,0.34381 -4.83844,0.39957 -6.83475,-1.1807c-2.49496,-1.97501 -3.99715,-4.91203 -5.12003,-7.91755c-0.7388,-0.91463 -1.36016,-1.97265 -2.06136,-3.49977c-0.19128,-0.41657 -0.5207,-0.99132 -0.80504,-1.58543c-0.72135,-0.00752 -1.352,-0.53599 -1.46514,-1.27232l-0.22782,-1.4826l0.22665,-0.03483l0.00317,-0.24998l0.18908,0.0024c-0.00729,-0.02395 -0.01449,-0.0479 -0.02164,-0.07188l-0.16397,-0.01529c0.01736,-0.13503 0.03295,-0.26976 0.04689,-0.40422c-0.68479,-2.62704 -0.51792,-5.41724 0.09443,-8.24521c0.52309,-5.20915 1.27301,-10.20825 3.20433,-15.03574c2.50192,-6.25377 3.38019,-13.03887 6.31376,-19.20151c0.24807,-1.34708 0.66771,-2.57967 1.47819,-3.45563c0.07342,-0.07935 0.15054,-0.15411 0.23083,-0.22489l-0.03871,-0.03559l0.85238,-0.92682c0.55989,-0.96674 1.14874,-1.96337 1.78026,-2.93861c0.3397,-0.62061 0.66615,-1.25447 0.97102,-1.90963c0,0 0.3339,-0.71755 1.03784,-0.86769c0.40063,-0.48522 0.81822,-0.94869 1.25504,-1.38195c1.09492,-1.08594 2.55884,-1.75626 3.63843,-2.85744c3.12468,-3.18719 5.08547,-7.49233 8.64139,-10.23757c5.71585,-4.41276 13.4356,-6.14052 20.34207,-7.74763c16.5186,-3.83763 33.59862,-6.56155 50.51556,-6.57664c2.63079,0.83011 5.3021,1.19002 8.0414,1.53598l1.52708,1.14155c0,0 0.13702,0.14992 0.25506,0.38984c0.04423,0.04039 0.06798,0.06639 0.06798,0.06639c3.92697,4.29668 8.67077,8.00378 11.33008,13.3017c0.40261,0.8021 0.64135,1.7018 0.80721,2.62887c-0.40682,0.43293 -0.73103,0.93998 -0.95282,1.49416c-1.9208,1.52682 -2.00931,8.64174 -1.73371,10.90344c1.31394,10.78262 4.17788,18.78738 7.42357,28.80093c1.43673,4.4326 2.16419,8.74705 3.85665,13.15055c0.53589,1.39432 2.65056,4.33956 2.33102,5.71913c-0.11009,0.47531 -0.30552,0.94868 -0.56468,1.42093c0.08145,0.74685 0.0739,1.42457 -0.08398,1.94428c-1.65048,5.433 -10.75464,5.68397 -15.30583,6.38331l-0.2471,0.03797c0,0 -1.9768,0.30376 -2.28056,-1.67304z" fill="#316a70"></path><path d="M276.11252,160.26894c-0.39928,0.06135 -0.73788,0.04 -1.02473,-0.03633c-1.71527,8.96694 -0.13529,18.6441 -1.17013,27.64066c-1.47221,6.77712 -2.72421,15.00867 -7.0066,20.71941c-1.76413,2.35253 -4.13502,3.12576 -6.46598,4.70578c-1.81618,1.23108 -3.2641,2.51154 -5.38315,3.28679c-8.43709,3.08673 -18.74159,0.6209 -27.07614,-1.31632c-5.0628,-1.62927 -9.69069,-4.19438 -13.82474,-7.55378c-2.31601,-1.88202 -1.9164,-2.56591 -3.24739,-5.07214c-0.7478,-1.40809 -2.42375,-3.63607 -2.92198,-5.23677c-1.41511,-4.54637 -1.34114,-11.78838 0.31658,-16.23171c0.58093,-1.55714 1.69337,-3.18943 2.8003,-4.7326c2.71663,-5.39899 7.15567,-9.89939 11.87704,-13.77502c2.2845,-1.87527 3.54725,-4.46562 5.76928,-6.4054c4.45333,-3.88766 9.89851,-7.50932 14.93004,-10.57539c6.26843,-3.54284 14.82748,-5.45045 22.03809,-5.01952c2.75556,0.16468 4.41805,0.11837 6.62353,1.99778c4.13054,3.51985 4.58525,8.12157 5.34442,13.06211l0.30376,1.9768c0,0 0.34173,2.2239 -1.88217,2.56562z" fill="#30152f"></path><path d="M300.59528,178.23456c0.53941,-0.53737 1.39779,-0.96133 2.68652,-0.54684c2.61792,0.842 1.77593,3.45992 1.77593,3.45992l-0.2102,0.64509c-0.5549,1.48064 -0.93965,3.0149 -1.23545,4.57573c0.95032,-1.10329 1.95069,-2.1717 2.93377,-3.25022c0.60804,-1.25308 1.36773,-2.3979 2.2118,-3.48182l-0.05945,-0.01912l0.83757,-2.60413c0.29456,-0.98636 1.13343,-1.76608 2.2185,-1.93281c1.50116,-0.23067 2.90509,0.79927 3.13576,2.30043c0.04618,0.30051 0.04184,0.59712 -0.00669,0.88121l-0.48547,3.30079l-0.31562,-0.04642l0.13894,0.69046c-0.22059,0.31233 -0.44465,0.61836 -0.67151,0.91918c0.17395,0.29375 0.29574,0.62503 0.35077,0.98313c0.06484,0.42199 0.03008,0.8363 -0.08678,1.21902l-0.80185,2.85112l-0.03388,-0.00952l0.00898,0.09296c-1.59932,4.53007 -3.73456,8.57027 -4.85941,13.27266c-0.95568,1.55337 -1.30889,3.71227 -2.86706,4.6601c-0.47114,0.28659 -0.91967,0.50651 -1.34648,0.66658l-0.39678,0.97094c-0.34438,0.88642 -1.13958,1.56965 -2.14704,1.72445c-1.3172,0.2024 -2.55953,-0.56577 -3.00007,-1.77122l-1.65221,-4.24544l0.04487,-0.01746c-0.04699,-0.08887 -0.09314,-0.17824 -0.1384,-0.26813c-0.61908,-1.22963 -0.53943,-3.26928 -0.31564,-5.07375c-0.60798,-3.34395 -1.42526,-6.88926 -1.52284,-10.21041c-0.1344,-4.575 0.51193,-8.93777 0.40763,-13.42957c1.07785,0.40348 2.29087,0.40901 3.56841,-0.12728c0.56302,-0.23635 1.20547,-0.63946 1.86678,-1.15885c0.07029,1.67401 0.03633,3.32829 -0.03337,4.97921z" fill="#30152f"></path><path d="M268.92972,128.65078c2.19013,-3.87375 5.06737,-6.52909 8.54384,-9.16501c-0.04497,-0.1228 -0.07849,-0.25185 -0.09912,-0.38609c-0.10336,-0.67266 0.1413,-1.31846 0.59971,-1.7544l1.52076,-1.48268l0.16354,0.16775l0.26648,-0.48687c1.31787,-0.34341 2.67827,-0.6863 4.05969,-0.99285c3.38514,-2.09174 7.51558,-2.93315 11.37203,-3.52574c3.28734,-0.50514 5.88179,-1.24883 9.07986,-0.11688c2.19329,0.85258 3.89701,1.60549 5.28606,3.51079l1.71949,0.2939c0.84594,0.1243 1.54867,0.78618 1.68531,1.67542c0.04606,0.29977 0.023,0.59421 -0.05729,0.86712c0.98986,0.34437 1.94498,0.77623 2.85412,1.30951c2.19463,1.28732 4.35757,3.18482 6.41408,4.69349c2.00991,1.50453 3.14581,3.26933 4.73748,5.25166l-0.05289,0.41323l0.1675,-0.02574l0.26579,1.7297c0.04116,0.26788 0.00873,0.53007 -0.08222,0.76605c1.04947,1.95252 2.03222,3.95697 3.14394,5.79799c1.96891,3.30198 3.94669,7.9988 3.79256,11.92076c-0.10704,2.72379 -2.04218,5.17172 -2.37088,7.82414c-0.42198,3.40519 0.01024,6.88001 -0.36156,10.32883c0.60258,0.11845 1.09465,0.60244 1.1933,1.24444c0.02706,0.17608 0.02231,0.34971 -0.00994,0.51504l-0.39367,2.3033l-0.04069,-0.00696c-0.00514,0.08428 -0.0128,0.16859 -0.0232,0.25296c-0.12621,1.02385 -2.13716,3.62066 -2.84797,4.58865c-1.9133,2.60555 -4.83068,7.43393 -7.98534,8.71309c-0.88257,0.35786 -1.85079,0.47865 -2.76447,0.74503c-4.47034,2.82022 -9.4229,3.84268 -14.28394,0.78095c0,0 -0.06523,-0.04147 -0.15665,-0.1204c-0.09358,-0.07637 -0.14572,-0.13344 -0.14572,-0.13344l-0.01343,-0.02033c-0.09225,-0.09977 -0.18873,-0.22524 -0.2652,-0.37395c-0.41752,-0.24064 -0.84852,-0.4852 -1.28976,-0.73418c-2.00405,-2.65968 -4.28757,-5.55268 -6.57787,-7.97754c-1.75065,-1.84991 -3.29193,-3.77039 -4.82697,-5.75068c0.20937,1.99908 0.29783,4.00903 0.29091,5.9705c0.54586,2.31863 1.13554,4.59865 1.88817,6.8967c1.10956,3.37678 2.05823,7.22783 2.78329,10.72074c0.00259,0.01209 0.00513,0.02416 0.00762,0.03621c0.02506,0.46029 0.05467,0.9213 0.08995,1.38317c-0.03641,0.5433 -0.14719,1.08063 -0.2835,1.65276l-0.06046,0.25382c0,0 -0.06265,0.263 0.17944,0.32843c0.2421,0.06543 0.30475,-0.19758 0.30475,-0.19758l0.06046,-0.25382c0.00514,-0.02156 0.01023,-0.04306 0.01529,-0.06454c0.3711,1.56605 1.2509,2.90231 1.56222,4.53415l-0.00002,-0.00001c0.90962,4.76787 1.64374,9.5632 2.79096,14.33383c0.69326,1.76579 1.89794,3.12707 2.80211,4.81148l0.00858,0.07674l0.02125,-0.0108l0.81253,1.90475c0.14526,0.33426 0.18588,0.72493 0.08982,1.11196c-0.07649,0.30822 -0.22939,0.57274 -0.43056,0.77575c-0.03357,0.33569 -0.18661,0.70097 -0.56818,1.04419c-0.08932,0.08035 -0.17742,0.14711 -0.26394,0.20191c-0.04745,0.1233 -0.10685,0.23415 -0.1688,0.33072c-0.10373,0.17599 -0.23643,0.32673 -0.38893,0.44647l-1.1862,0.94862c-1.94242,2.04962 -3.35859,2.2071 -5.87191,3.04027c-2.50178,0.82934 -4.99654,2.26296 -7.55105,2.98925c-0.10676,0.02332 -0.21678,0.04991 -0.32911,0.07912c-0.12744,0.02861 -0.25347,0.06281 -0.37782,0.10242c-0.47655,0.10864 -0.95537,0.18871 -1.4369,0.23182c0.05153,0.06528 0.10311,0.13052 0.15473,0.19572c-0.60923,0.21771 -1.14448,0.4233 -1.44301,0.51325c-0.49979,0.15061 -1.08736,0.3011 -1.71192,0.47154c-0.16549,-0.21735 -0.33044,-0.43518 -0.49495,-0.65339c-1.54429,-3.74414 -3.83769,-7.06269 -5.19767,-10.91477c-1.0527,-2.98171 -0.55002,-5.06622 -0.83536,-8.00474c-0.27461,-2.82813 -1.00544,-5.61587 -1.24932,-8.4729c-0.07265,-0.85109 -0.21211,-1.65615 -0.37772,-2.43536c-3.1773,-6.77697 -3.6995,-15.1298 -3.53482,-23.08007h-0.00002c-2.61424,-12.22608 -4.7248,-24.73058 -5.49051,-37.09982c0,0 -0.05546,-0.89624 0.50847,-1.52482c-0.06504,-0.45852 -0.13258,-0.91658 -0.20343,-1.37406v0.00001c0,0 -0.13438,-0.87455 0.47495,-1.38348c-1.47917,0.68593 -3.03848,1.16825 -3.9722,1.16006c-0.09665,-0.00085 -0.1928,-0.00549 -0.28851,-0.01347l0.00047,0.04449l-1.74562,0.01846c-0.74421,0.01975 -1.40448,-0.51677 -1.52051,-1.27186c-0.01879,-0.12228 -0.02224,-0.24339 -0.0118,-0.36135c-0.21997,-0.21827 -0.37447,-0.50638 -0.42515,-0.83618c-0.05034,-0.3276 0.00939,-0.64672 0.15162,-0.91976l0.01337,-0.02646c0.02037,-0.16356 0.0675,-0.32041 0.13747,-0.46522l0.75192,-1.61589l0.02605,0.01212c0.01358,-0.04784 0.02787,-0.09553 0.04292,-0.14305c0.27535,-0.86951 0.78017,-1.61589 1.42847,-2.25365h0.00002c0.25413,-0.50404 0.52188,-0.99946 0.84774,-1.45765c1.33567,-1.8781 1.6829,-1.52601 3.46634,-2.24223c0.79676,-0.31997 1.78795,-0.90097 2.85918,-1.51553c0.21809,-0.21784 0.42792,-0.44141 0.63205,-0.66907zM303.85207,114.98258c-0.11106,-0.04759 -0.22558,-0.09517 -0.34395,-0.14302c-0.013,0.03282 -0.02684,0.06527 -0.04152,0.09728c0.12847,0.01536 0.25696,0.0306 0.38546,0.04573zM270.89164,156.15103c-0.05118,-0.0358 -0.10217,-0.07201 -0.15298,-0.1086c0.02945,0.24629 0.05933,0.4926 0.08966,0.73892c0.00093,-0.00005 0.00186,-0.0001 0.00279,-0.00015c0.01856,-0.20936 0.03869,-0.41955 0.06053,-0.63016z" fill="#ad4eac"></path><path d="M347.99967,172.82167c-0.51842,1.79114 -1.395,2.60193 -2.55261,3.58098c-1.48729,3.74914 -4.01563,6.63524 -8.50469,6.15181c-1.01163,-0.10894 -2.17415,0.01231 -2.99513,-0.58875c-2.11908,-1.55143 -3.23105,-5.89302 -4.02796,-8.27493l-0.0697,-0.76905c-0.02163,-0.11785 -0.03294,-0.23931 -0.03294,-0.36341l0.00003,0.00001c0,-0.15579 0.01781,-0.30742 0.05151,-0.45296c-1.12551,0.09016 -2.27719,0.0142 -3.43823,-0.25892c-2.00494,-0.47164 -3.9399,-1.89754 -5.81009,-3.08173c0.1367,0.31368 0.25892,0.63411 0.36099,0.96404c1.40034,4.52627 0.91073,13.11558 -2.53731,16.53016c-2.18846,2.16721 -3.40719,1.76262 -6.29376,2.04768c-3.68534,-0.00357 -9.03779,-0.74714 -11.4419,-4.06007c-1.15698,-1.59436 -0.9666,-3.32468 -1.54067,-5.06202c-0.49884,-1.5097 -1.58805,-2.7906 -2.02175,-4.32029c-1.12558,-3.97009 -1.90565,-8.14755 -2.55459,-12.24558c-0.11956,-0.75501 -0.26187,-1.50123 -0.41483,-2.24236c-0.66124,-0.71126 -1.26537,-1.44751 -1.77554,-2.21165c-1.72331,-2.58123 -2.30139,-5.8541 -3.23571,-8.73754c-1.22492,-3.78027 -4.29758,-9.36725 0.63651,-11.96651c0.08069,-0.04251 0.33074,-0.07359 0.67785,-0.09625c-0.02093,-0.30057 -0.04125,-0.59979 -0.06146,-0.89726c-0.05711,-0.84044 -0.67024,-3.08984 -0.27411,-3.70623c0.37451,-0.58276 3.30153,-1.53371 4.12828,-1.201c0.03019,0.01214 0.06018,0.0249 0.08997,0.03824l0.99377,-1.18105c0.18829,-0.22617 0.45676,-0.38713 0.77051,-0.43534c0.34333,-0.05276 0.67546,0.03955 0.93411,0.23122c0.51499,-0.47329 1.22703,-0.81584 1.9441,-0.97423c1.53783,-2.27178 3.4438,-4.34613 5.55796,-6.11965c0.51006,-1.12001 0.98371,-2.28115 1.4623,-3.49639c0,0 0.64196,-1.628 2.26997,-0.98604c0.63735,0.25133 0.9268,0.65378 1.04305,1.05051c0.21727,-0.04847 0.42965,-0.10556 0.6273,-0.18654c0.06275,-0.02975 0.12541,-0.05881 0.18799,-0.08721c0.1006,-0.0528 0.196,-0.11397 0.28467,-0.18586c3.07102,-2.49004 5.95496,-3.7769 9.48033,-5.59685l0.0275,-0.00519l-0.00295,-0.00643l1.62753,-0.74793c0.11037,-0.0538 0.2306,-0.09212 0.35834,-0.11175c0.68235,-0.10485 1.3205,0.3633 1.42535,1.04565c0.01645,0.10707 0.0188,0.21307 0.00841,0.31607c0.41177,0.5645 0.46204,1.40863 0.65635,2.36406c0.06563,0.3227 0.20166,0.79886 0.18753,1.16019c0.42439,-0.33279 1.03392,-0.7301 1.37356,-0.86837c0.45956,-0.18709 0.97235,-0.29389 1.46706,-0.25433c-0.1628,-0.15577 -0.29489,-0.30872 -0.20531,-0.47701c0.42327,-0.79521 1.13169,-1.59035 2.00475,-1.81234c3.32939,-0.8466 3.37383,2.1723 3.60902,4.37097c5.18456,0.9726 7.21722,5.95959 8.92935,10.64632l0.21114,1.21575c0.00135,0.00736 0.00195,0.01127 0.00195,0.01127c0.27541,1.79229 0.55081,3.5846 0.82622,5.37689c0.3291,0.49579 0.40807,1.00975 0.40807,1.00975c0.70022,4.55689 1.88201,8.97702 2.58253,13.51455c0.15656,1.01407 0.18205,2.43886 0.32717,3.75461c0.82519,0.5665 0.82519,1.67494 0.82519,1.67494c0,1.65773 0.09625,3.45631 0.19316,5.31216c1.13754,3.6453 2.25729,8.18595 1.23986,11.70119zM327.36536,116.856c0.05087,0.08906 0.07447,0.14412 0.04376,0.07688c-0.01188,-0.02602 -0.02668,-0.05163 -0.04376,-0.07688z" fill="#e5c1e4"></path><path d="" fill="#e5c1e4"></path><path d="M304.67861,130.53654l-0.27669,-1.80068c-0.13098,-0.85242 0.45385,-1.64962 1.30627,-1.7806c0.23338,-0.03586 0.46262,-0.01806 0.67518,0.04419c0.11984,-0.41839 0.51349,-1.28765 1.69729,-1.1379c1.31627,0.16651 1.37271,1.3099 1.35992,1.64998c0.65035,0.10542 1.18772,0.61828 1.29319,1.30463c0.01482,0.09647 0.02048,0.19222 0.01762,0.28639l-0.01847,1.45608c0.01388,0.0885 0.02783,0.17764 0.04188,0.26735c0.07334,0.07962 0.1387,0.16717 0.19459,0.26154l1.02938,1.65155l0.02799,0.06395c1.59231,-0.66931 3.53709,-1.27762 4.44804,-0.56124c1.03541,0.81427 2.71768,6.01729 2.12234,7.63625c-0.31505,0.85673 -1.04786,1.53401 -1.77609,2.08439c-0.52582,0.3974 -1.23187,0.47214 -1.86206,0.66521c-0.36599,0.11214 -0.73356,0.17107 -1.0968,0.18286c-0.13809,0.09251 -0.28935,0.18098 -0.45514,0.26505c-3.46285,1.75586 -5.31529,-2.39706 -6.18282,-4.72944c-0.0749,-0.20138 -0.14467,-0.39911 -0.20937,-0.59342c-1.64539,-1.3623 -2.0434,-5.31045 -2.33623,-7.21615z" fill-opacity="0.97647" fill="#ad4eac"></path><path d="M321.88795,166.29491c0.89661,-0.63485 1.60151,-0.14805 1.91456,0.15793c1.25219,-0.74807 2.03087,0.50125 2.03087,0.50125c0.8181,1.52819 1.61712,1.42286 2.6688,0.92638c0.65643,-0.46989 1.24085,-0.76189 1.96157,-0.952l-0.1166,-0.27777l1.86985,-0.78494c0.11957,-0.0533 0.24816,-0.09169 0.3838,-0.11254c0.81882,-0.12582 1.5846,0.43596 1.71042,1.25478c0.0958,0.62348 -0.20706,1.21622 -0.71852,1.51909l-1.58646,0.9888l-0.03208,-0.05146l-0.08972,0.11972c-0.40463,0.1587 -0.79078,0.3161 -1.16101,0.46592c-0.48071,0.39405 -1.14134,0.71821 -1.86884,1.29514l-0.40518,1.25976c-0.16067,0.53801 -0.61823,0.96332 -1.21009,1.05427c-0.74417,0.11435 -1.44452,-0.33924 -1.66049,-1.03756l-0.46722,-1.42121l0.00868,-0.00285c-0.78093,-0.9375 -1.62282,-1.74569 -2.29522,-1.7437l-1.29452,-1.06798c0,0 -0.8668,-1.22419 0.35739,-2.091zM323.61615,166.57778c0.00419,-0.00315 0.00841,-0.00631 0.01265,-0.00945l-0.29831,-0.07154c0.08861,0.02163 0.18428,0.04877 0.28565,0.081z" fill-opacity="0.18824" fill="#ad4eac"></path><path d="M340.30062,154.95856c1.4826,-0.22782 1.71042,1.25478 1.71042,1.25478c0.07594,0.4942 0.15188,0.9884 0.22782,1.4826l-1.07202,1.77505c0,0 -0.49314,0.34918 -1.07506,0.2913l-0.33186,0.55078l-1.08748,1.16844c0,0 -0.18708,0.19108 -0.48394,0.33289c-0.88363,1.72241 -2.81772,2.6545 -4.68171,3.27308l-1.17968,0.20109c-0.01635,0.00306 -0.0328,0.00587 -0.04935,0.00841c-0.18738,0.02879 -0.37199,0.02158 -0.54679,-0.0165c-0.24911,-0.04406 -0.53942,-0.14923 -0.77127,-0.3861c-0.11894,0.02388 -0.23921,0.0449 -0.36023,0.06436c-0.30658,0.2876 -0.61228,0.56365 -0.85705,0.82054l-1.22319,-0.41573c-0.13416,0.02155 -0.31874,0.03696 -0.51925,0.01201c-1.03374,0.68259 -1.50846,0.60315 -2.54701,0.42419c-0.10045,0.62571 -0.5935,1.143 -1.25356,1.24443l-1.9768,0.30376l-0.00794,-0.05169c-0.08579,0.0255 -0.1725,0.04844 -0.26025,0.06855c-1.77314,0.40643 -3.81479,-0.27708 -5.68087,-1.40485c-0.62329,-0.17963 -1.17142,-0.41792 -1.58106,-0.74409c-0.24017,-0.19123 -0.38896,-0.45306 -0.50048,-0.7437c-0.15566,-0.12901 -0.30826,-0.25969 -0.45742,-0.39153c-0.21435,0.2042 -0.49116,0.34717 -0.80596,0.39555c-0.81882,0.12582 -1.5846,-0.43596 -1.71042,-1.25478c-0.01541,-0.10027 -0.25863,-1.68314 -0.27404,-1.78341c-0.03395,-0.07747 -0.05841,-0.15944 -0.07421,-0.24518l-0.71046,-0.40893c-0.38704,-0.21838 -0.6736,-0.60581 -0.74633,-1.07913c-0.05009,-0.32597 0.00879,-0.64354 0.14949,-0.91567c0.03845,-0.75662 0.58845,-1.09346 0.95383,-1.23441c0.11906,-0.41146 0.42784,-0.86748 1.19712,-0.98569c0.8122,-0.1248 1.24783,0.2637 1.47573,0.64057c0.10981,-0.0753 0.20701,-0.1269 0.28624,-0.1502c0.6716,-0.19743 1.12171,-0.13706 1.46986,0.04707c4.39405,-0.6638 8.84706,1.07164 11.16502,5.52042c1.14983,-0.43843 1.89993,-1.88447 2.95794,-1.62449c0.79329,0.19493 1.39527,0.4061 1.84084,0.62908c0.46286,-0.58739 0.45912,-1.5953 0.95987,-2.19603c0.87769,-1.05295 4.22681,-3.70736 5.99193,-2.83731l1.17268,-0.18019c0.00896,-0.43309 0.16857,-1.29057 1.26694,-1.45935zM322.14477,163.35765l0.22391,-0.41165c-1.77717,-1.12944 -4.0884,-0.84828 -6.08426,-1.34393c0.22201,0.26858 0.31235,0.54337 0.31235,0.54337c0.00733,1.32557 4.0679,1.41377 5.78444,1.6302c-0.16429,-0.22028 -0.23642,-0.41798 -0.23642,-0.41798zM333.88514,161.81047c0.4426,-0.15616 0.85322,-0.3209 0.96959,-0.43072c0.10019,-0.09455 0.20372,-0.39307 0.32026,-0.74632c-0.44393,0.29342 -0.85938,0.5453 -0.96624,0.67972c-0.11776,0.14815 -0.2239,0.31662 -0.32361,0.49732zM314.24579,160.36574c0.21766,0.25181 0.44992,0.5076 0.69317,0.76068c0.18358,-0.03658 0.34913,-0.04005 0.49794,-0.01941c-0.27731,-0.26901 -0.52842,-0.59187 -0.8226,-0.82831c-0.12476,0.03262 -0.2479,0.06221 -0.36852,0.08705z" fill-opacity="0.98431" fill="#316a70"></path><path d="M326.29009,167.48173c0.81882,-0.12582 1.5846,0.43596 1.71042,1.25478c0.12582,0.81882 -0.43596,1.5846 -1.25478,1.71042c-0.74278,0.11414 -1.44192,-0.33756 -1.65928,-1.03367c-0.08326,0.02854 -0.17021,0.05012 -0.26027,0.06396c-0.17329,0.02663 -0.34419,0.02246 -0.50716,-0.00842c-0.14618,0.07839 -0.30795,0.13367 -0.48124,0.1603c-0.81882,0.12582 -1.5846,-0.43596 -1.71042,-1.25478c-0.12582,-0.81882 0.43596,-1.5846 1.25478,-1.71042c0.17329,-0.02663 0.34419,-0.02246 0.50716,0.00842c0.14618,-0.07839 0.30795,-0.13367 0.48124,-0.1603c0.74278,-0.11414 1.44192,0.33756 1.65928,1.03367c0.08326,-0.02854 0.17021,-0.05012 0.26027,-0.06396z" fill-opacity="0.35294" fill="#ad4eac"></path><path d="M329.236,168.54667c-0.1028,-0.66903 0.25345,-1.30265 0.83387,-1.58071c0.09097,-0.63713 0.58841,-1.16718 1.25743,-1.26998c0.81882,-0.12582 1.5846,0.43596 1.71042,1.25478c0.1028,0.66903 -0.25345,1.30265 -0.83387,1.58071c-0.09097,0.63713 -0.58841,1.16718 -1.25743,1.26998c-0.81882,0.12582 -1.5846,-0.43596 -1.71042,-1.25478z" fill-opacity="0.35294" fill="#ad4eac"></path><path d="M313.628,129.57033c0.58559,0.59691 1.18622,1.17597 1.79876,1.73609c0,0 1.6561,1.52309 0.133,3.1792c-1.52309,1.6561 -3.1792,0.133 -3.1792,0.133c-0.99257,-0.91752 -1.95495,-1.87659 -2.87786,-2.87455c0.05549,0.10447 0.10052,0.21179 0.13164,0.32286c0.25487,0.41767 0.5053,0.84143 0.74813,1.27403l-0.10543,0.43177l0.20518,-0.03153l0.34173,2.2239c0.18873,1.22822 -0.65395,2.37689 -1.88217,2.56562c-1.11625,0.17152 -2.16679,-0.50886 -2.49074,-1.55636l-0.93828,-2.85413l0.16245,-0.0534c-1.48102,-2.10597 -2.76775,-4.25059 -4.12502,-6.74484c-0.80585,-1.48091 -2.95616,-1.85715 -3.83826,-3.29393c-0.88871,-1.44756 -2.153,-3.36315 -1.41804,-4.89452c0.74706,-1.55661 2.04626,-1.89804 3.39492,-1.74284c0.02079,-0.03006 0.04189,-0.05988 0.06332,-0.08947l-0.11139,-0.06925l1.20909,-1.94509c0.33391,-0.54444 0.89619,-0.94388 1.5769,-1.04848c1.09316,-0.16798 2.1233,0.48109 2.46971,1.49182l0.84586,2.31822c0.34766,0.82794 0.73359,1.64223 1.15379,2.44143c2.78345,1.80201 4.83004,4.14068 6.19703,7.55057l0.37679,0.89555c0,0 0.10911,0.2599 0.15809,0.63435z" fill-opacity="0.43922" fill="#ad51ad"></path><path d="M348.23873,124.54044c-0.02135,0.79679 -0.30441,2.06994 -0.61903,3.2934c0.10133,1.97099 -0.05729,4.00335 -0.43488,6.12984l-0.25019,0.27492l0.10586,0.05661l-1.1665,2.18152c-0.31987,0.61411 -0.91794,1.07281 -1.65477,1.18603c-1.04251,0.16019 -2.02771,-0.4227 -2.41722,-1.35372l-1.13909,-2.55953l0.03446,-0.01534c-0.04768,-0.08743 -0.09364,-0.17593 -0.1377,-0.26561c-0.23169,-0.47148 -0.82906,-5.98025 -1.01702,-6.64454c-1.41051,-4.98493 -4.39977,-10.88772 -7.57805,-14.96519l-1.82124,-2.19373c-0.26519,-0.30836 -0.45004,-0.69234 -0.51636,-1.12394c-0.18873,-1.22822 0.65395,-2.37689 1.88217,-2.56562c0.57054,-0.08767 1.12392,0.04722 1.57188,0.33994l2.51957,1.62984l-0.03424,0.05293c0.09538,0.04255 0.18998,0.08722 0.28372,0.13419c1.0132,0.50765 1.44731,1.74888 2.25106,2.5478c0.1761,0.17504 0.35053,0.35011 0.52332,0.52534c0.0038,-0.0006 0.00762,-0.0012 0.01142,-0.00179c0.88779,-0.13642 1.73401,0.26604 2.20618,0.96348l1.52601,2.15519c2.70035,2.94052 5.98811,5.83381 5.87063,10.21797z" fill-opacity="0.43922" fill="#ad51ad"></path><path d="M188.6849,154.22508c-0.24026,-1.19597 -0.65955,-2.51561 -0.12593,-3.58596c0.55705,-1.11735 2.03944,-1.44621 3.1169,-2.07695c2.6,-1.52202 4.832,-2.79964 7.76388,-3.56528c6.04829,-1.55132 12.41642,-2.23278 18.6207,-2.85479c3.3436,-0.33521 7.29095,-1.15792 10.66306,-1.12411c1.96541,0.0197 3.93312,0.5517 5.88688,0.33712c4.19978,-0.46127 8.33472,-0.48917 12.52925,-0.91238c2.21277,-0.22326 5.38528,-1.17549 7.58841,-0.65236l2.48413,-0.13129c1.15134,-0.07494 2.18895,0.74192 2.36748,1.90383c0.18873,1.22822 -0.65395,2.37689 -1.88217,2.56562l-2.88172,0.44281c-1.13122,0.29277 -2.26521,0.58413 -3.40196,0.86871l-0.20833,0.28397c-1.52681,2.0706 -2.53188,4.47688 -4.26892,6.39232c-1.00202,1.10493 -2.17669,2.09707 -2.92201,3.38913c-1.39476,2.4179 -2.02968,5.13062 -3.3575,7.55445c-2.15654,3.93657 -6.021,6.31082 -8.11508,10.27705c-0.71038,1.34547 -1.09838,2.84738 -1.82872,4.18213c-1.60421,2.93178 -4.39935,4.95912 -6.28813,7.65075c-0.99736,1.42131 -2.65339,5.33412 -4.03862,6.7153c-0.8404,0.83793 -1.89779,1.41824 -2.89658,2.0681c0.59203,0.61953 1.17995,1.22925 1.76086,1.8287l3.51696,2.36986c0.50568,0.33843 0.87325,0.87967 0.97295,1.52848c0.18873,1.22822 -0.65395,2.37689 -1.88217,2.56562c-0.2852,0.04382 -0.56611,0.03203 -0.8317,-0.02728l-2.81885,-0.56056l0.01399,-0.07035c-0.1841,-0.0246 -0.36734,-0.06013 -0.54956,-0.10838c-0.01204,-0.00319 -0.83017,-0.67138 -1.90923,-1.55575l0.4599,0.95718c0.10599,0.20814 0.18112,0.43645 0.21853,0.67991c0.18873,1.22822 -0.65395,2.37689 -1.88217,2.56562c-0.61411,0.09437 -1.20834,-0.06912 -1.67262,-0.40973l-1.99549,-1.46391l0.05199,-0.07087l-0.22428,-0.06911c-5.21613,-5.67552 -8.63891,-12.05976 -11.56809,-18.883c-0.97747,-1.21246 -1.99,-2.40145 -2.84394,-3.70023c-1.29066,-1.96303 -1.74131,-4.36429 -2.64746,-6.53182c-0.55839,-1.33569 -2.09935,-3.40294 -2.53987,-4.80632c-0.74746,-2.38118 -1.0579,-4.87883 -1.65882,-7.30115l-0.15307,-0.93575c-0.00059,-0.00349 -0.00087,-0.0053 -0.00087,-0.0053c-0.18613,-1.21128 -0.66629,-3.82301 -0.62203,-5.72404z" fill-opacity="0.61176" fill="#301530"></path><path d="M248.34349,219.24826c-0.20302,0.01992 -0.40692,0.03239 -0.61183,0.03607c-2.66861,0.04785 -7.91621,-2.03682 -7.15636,-5.81059c0.03104,-0.15417 0.07924,-0.29863 0.14198,-0.43489c-0.11068,-0.37423 -0.11322,-0.78466 0.01655,-1.18385c0.27814,-0.85561 1.07833,-1.39561 1.93325,-1.38198l1.18755,-0.00885c0.05761,-0.04759 0.11361,-0.09609 0.16775,-0.14564c2.92116,-0.66433 7.06055,-1.34318 10.21939,-2.7274c0.21901,-0.12795 0.43748,-0.25647 0.65511,-0.38528c0.46105,-1.23316 1.23509,-2.14627 2.37991,-2.24921l0.25765,-0.52504c0.33026,-0.70108 1.03356,-1.1378 1.7871,-1.14575c0.34839,-0.15819 0.78494,-0.22055 1.30737,-0.04517c1.357,-0.22421 3.09561,-0.13308 3.99641,0.88987c1.63789,1.85999 0.3981,6.05416 -0.47491,7.88257c-0.35941,0.75275 -0.77829,1.38981 -1.24689,1.9339l0.04604,0.44141c0.42965,0.386 0.80953,1.03337 0.48194,2.04109c-0.27482,0.8454 -0.80325,1.19289 -1.30554,1.31808c-0.47671,0.2811 -1.06715,0.36414 -1.63484,0.1796c-0.08367,-0.0272 -0.16432,-0.05939 -0.24174,-0.09614c-0.24267,0.8457 -0.54039,1.49856 -0.90123,1.76842c-3.40765,2.54846 -7.41693,1.21675 -11.00467,-0.35122z" fill="#e5c1e4"></path><g fill="#316a70"><path d="M202.47,299.24667c-1.25,0 -1.25,-1.25 -1.25,-1.25c0,-0.6 0,-2 0,-2.6c0,0 0,-1.25 1.25,-1.25c1.25,0 1.25,1.25 1.25,1.25c0,0.6 0,1.2 0,1.8v0.8c0,0 0,1.25 -1.25,1.25z"></path><path d="M208.27,298.44667c-1.25,0 -1.25,-1.25 -1.25,-1.25l0.01256,-0.77678c0.06667,-0.46667 0.13333,-0.93333 0.2,-1.4c0,0 0.17678,-1.23744 1.41421,-1.06066c1.23744,0.17678 1.06066,1.41421 1.06066,1.41421c-0.06667,0.46667 -0.13333,0.93333 -0.2,1.4l0.01256,0.42322c0,0 0,1.25 -1.25,1.25z"></path><path d="M213.67,299.24667c-1.25,0 -1.25,-1.25 -1.25,-1.25c0,-0.46667 0,-1.53333 0,-2c0,0 0,-1.25 1.25,-1.25c1.25,0 1.25,1.25 1.25,1.25c0,0.46667 0,0.93333 0,1.4v0.6c0,0 0,1.25 -1.25,1.25z"></path></g><g fill="#316a70"><path d="M302.47,293.04667c-1.25,0 -1.25,-1.25 -1.25,-1.25c0,-0.93333 0,-2.06667 0,-3c0,0 0,-1.25 1.25,-1.25c1.25,0 1.25,1.25 1.25,1.25c0,0.93333 0,1.86667 0,2.8v0.2c0,0 0,1.25 -1.25,1.25z"></path><path d="M297.27,293.24667c-1.25,0 -1.25,-1.25 -1.25,-1.25l0.06415,-0.99528c0.13333,-0.4 0.26667,-0.8 0.4,-1.2c0,0 0.39528,-1.18585 1.58114,-0.79057c1.18585,0.39528 0.79057,1.58114 0.79057,1.58114c-0.13333,0.4 -0.26667,0.8 -0.4,1.2l0.06415,0.20472c0,0 0,1.25 -1.25,1.25z"></path><path d="M291.27,293.84667c-1.25,0 -1.25,-1.25 -1.25,-1.25c0,-0.46667 0,-1.33333 0,-1.8c0,0 0,-1.25 1.25,-1.25c1.25,0 1.25,1.25 1.25,1.25c0,0.46667 0,0.93333 0,1.4v0.4c0,0 0,1.25 -1.25,1.25z"></path></g></g></g></svg>