<svg version="1.1" xmlns="http://www.w3.org/2000/svg" xmlns:xlink="http://www.w3.org/1999/xlink" width="160" height="196.5" viewBox="0,0,160,196.5"><defs><linearGradient x1="320" y1="278.25" x2="312" y2="278.25" gradientUnits="userSpaceOnUse" id="color-1"><stop offset="0" stop-color="#74e880" stop-opacity="0.08627"></stop><stop offset="1" stop-color="#74e880" stop-opacity="0"></stop></linearGradient><linearGradient x1="160" y1="278.25" x2="168" y2="278.25" gradientUnits="userSpaceOnUse" id="color-2"><stop offset="0" stop-color="#74e880" stop-opacity="0.08627"></stop><stop offset="1" stop-color="#74e880" stop-opacity="0"></stop></linearGradient><linearGradient x1="240" y1="227.5" x2="240" y2="239.6464" gradientUnits="userSpaceOnUse" id="color-3"><stop offset="0" stop-color="#0a0610" stop-opacity="0"></stop><stop offset="1" stop-color="#0a0610"></stop></linearGradient></defs><g transform="translate(-160,-163.5)"><g stroke-miterlimit="10"><path d="M160,360v-163.5h160v163.5z" fill-opacity="0.08627" fill="#78e383" stroke="none" stroke-width="0"></path><path d="M160,193.5v-30h160v30z" fill-opacity="0.17647" fill="#2be03d" stroke="none" stroke-width="0"></path><path d="M160,196.5v-30h160v30z" fill="#0a0610" stroke="none" stroke-width="0"></path><text transform="translate(189.5,185.86707) scale(0.36392,0.36392)" font-size="40" xml:space="preserve" fill="#ffffff" stroke="none" stroke-width="1" font-family="&quot;Microsoft YaHei&quot;, &quot;微软雅黑&quot;, STXihei, &quot;华文细黑&quot;" font-weight="normal" text-anchor="start"><tspan x="0" dy="0">RALSEI</tspan></text><g stroke="none" stroke-width="0"><path d="M312,360v-163.5h8v163.5z" fill="url(#color-1)"></path><path d="M160,360v-163.5h8v163.5z" fill="url(#color-2)"></path></g><g stroke="none" stroke-width="0"><path d="M160,360v-120.3536h160v120.3536z" fill="#0a0610"></path><path d="M160,239.6464v-12.1464h160v12.1464z" fill="url(#color-3)"></path></g><g><path d="M185,221.5v-20h20v20z" fill="#0a0610" stroke="#909f95" stroke-width="1"></path><path d="M215,221.5v-20h20v20z" fill="#0a0610" stroke="#909f95" stroke-width="1"></path><path d="M245,221.5v-20h20v20z" fill="#0a0610" stroke="#909f95" stroke-width="1"></path><path d="M275,221.5v-20h20v20z" fill="#0a0610" stroke="#909f95" stroke-width="1"></path><g stroke="none" stroke-width="0.5"><path d="M261.37147,212.28368c0.37566,0.60856 0.56624,1.2521 1.00565,1.8441c1.1695,0.98527 1.33998,3.06941 -0.2574,3.80815c-0.30489,0.141 -0.73184,0.18239 -1.20027,0.18329l-0.17896,0.04474l-0.0116,-0.04643c-0.05761,-0.00107 -0.11568,-0.00262 -0.17404,-0.00453c-0.8682,0.3 -1.75972,0.19844 -2.77372,0.31071c-1.96678,0.21775 -3.92126,0.55429 -5.91257,0.55429c-1.79263,0 -5.0726,-0.90845 -5.19246,-3.11327c-0.04814,-0.88549 0.52135,-2.26058 0.95205,-3.0192c0.84112,-1.4607 2.85068,-2.46261 4.4343,-2.93367c0.25464,-0.07575 0.56707,-0.21863 0.86243,-0.34102c-0.44885,-0.96628 -0.93164,-1.92013 -1.51997,-2.80247c0,0 -0.03948,-0.05922 -0.05835,-0.14333c-1.19664,-0.58894 0.60681,-2.05735 1.18449,-2.27108c1.18825,-0.43961 1.44436,0.69235 2.42368,0.88371c0.94678,0.185 1.67124,-0.78739 2.58363,-0.81049c0.87863,0.00554 1.44145,0.38608 1.81506,1.15483c0.08475,0.0728 0.11547,0.15584 0.12033,0.23189c0.01308,0.07956 -0.00028,0.17324 -0.07719,0.26868c-0.76262,1.20704 -1.72135,2.14273 -2.36241,3.39857c1.55424,0.36118 3.54928,1.5259 4.33733,2.80252z" fill="#909f95"></path><path d="M256.56067,209.32351c0.00397,0.06365 0.02376,0.12301 0.05548,0.17419c-0.05349,-0.00266 -0.1076,-0.00263 -0.16217,-0.00071c0.00117,-0.00189 0.00232,-0.0038 0.00345,-0.00571z" fill-opacity="0.58039" fill="#0a060f"></path><path d="M259.22614,205.03641c0.71683,0.22056 0.49627,0.9374 0.49627,0.9374c-0.07407,0.24074 -0.14815,0.48148 -0.22222,0.72222l-0.04478,0.18356c0,0 -0.16364,0.65457 -0.80135,0.5668c-0.08338,0.15404 -0.17678,0.29296 -0.28334,0.40774c-0.13155,0.23534 -0.27907,0.46866 -0.45018,0.70597l-0.04068,0.01824l0.01402,0.01274l-0.23378,0.25716c0.29088,0.22554 0.57759,0.45812 0.85629,0.69849c0.26267,0.01676 0.46414,0.1816 0.46414,0.1816c0.3531,0.28956 0.70208,0.59049 1.03749,0.90597c0.20242,0.02933 0.27054,0.18323 0.29347,0.28349c0.73984,0.73481 1.39561,1.54907 1.85716,2.47959c-0.03957,2.1088 -0.55804,3.03252 -1.76451,4.12321c-1.42719,0.31736 -3.18422,0.99661 -3.90413,0.99661l-0.08957,0.02239c-0.26451,0 -0.67546,0.02727 -1.07882,0.1031c-0.47776,0.02336 -0.93778,0.05006 -1.36612,0.09196c1.89412,-0.73256 3.86562,-2.04493 4.5423,-3.18213c0.52835,-0.5265 0.93743,-1.15188 1.12047,-2.01282c0.02409,-0.11328 0.04054,-0.22734 0.05099,-0.34197c-0.24669,-0.52318 -0.60936,-0.97651 -0.98701,-1.40846c-0.60783,-0.67143 -1.32491,-1.27988 -2.05824,-1.83923c-0.27781,-0.00517 -0.59436,-0.23669 -0.81853,-0.28001c-0.71784,-0.13871 -1.57723,-0.05247 -2.36197,-0.01174c-0.01027,0.06614 -0.04336,0.13737 -0.1146,0.20862c-0.26609,0.26609 -0.53219,0 -0.53219,0l-0.11852,-0.23578c-0.08858,-0.04298 -0.17841,-0.12704 -0.19092,-0.29149c-0.03283,-0.05586 -0.05165,-0.12093 -0.05165,-0.1904c0,-0.07535 0.02214,-0.14552 0.06027,-0.20437l0.2478,-0.39648l0.11511,0.07194l0.01327,-0.01106l0.03367,0.0404l0.02819,0.01762c0.01074,-0.01414 0.02167,-0.02811 0.03279,-0.04189l-0.02412,-0.06257c0.03365,-0.00885 0.0673,-0.0177 0.10096,-0.02655c0.00134,-0.00146 0.00269,-0.00291 0.00403,-0.00436c0,0 0.03259,-0.03259 0.08636,-0.06355c0.60899,-0.51914 1.56161,-0.57457 2.47737,-0.40173c0.01125,-0.09964 0.02854,-0.19015 0.04644,-0.2618c0.18359,-0.73505 0.90596,-1.11194 1.4226,-1.63266c0.02596,-0.42684 -0.1407,-0.82793 -0.49333,-1.24763c0,0 -0.24091,-0.28909 0.04818,-0.53c0.19424,-0.16187 0.36673,-0.08447 0.45901,-0.01625c0.00733,-0.01479 0.01517,-0.02973 0.02356,-0.04483c0.36423,-0.65562 1.01985,-0.29139 1.01985,-0.29139l0.79612,0.57782l0.2085,0.38722c0.0033,0.00387 0.00657,0.00777 0.00981,0.01171c0.02092,0.00503 0.04229,0.01087 0.06412,0.01759z" fill="#0a0610"></path></g><path d="M197.86672,213.67187c0.26055,0.15849 0.44098,0.33511 0.65474,0.54948l0.09005,0.07205c0.08071,-0.03503 0.16577,-0.06378 0.26561,-0.08858c0.04051,-0.04048 0.0929,-0.05357 0.0929,-0.05357c0.0331,-0.0081 0.0652,-0.01542 0.09635,-0.02196c0.03089,-0.01825 0.07719,-0.03604 0.12895,-0.02353c0.11672,-0.01778 0.21914,-0.023 0.31131,-0.0165c0.08646,-0.11423 0.22085,-0.19016 0.37324,-0.19787c0.0825,-0.12865 0.258,-0.30211 0.57268,-0.19721c0.47434,0.15811 0.31623,0.63246 0.31623,0.63246c-0.05556,0.16667 -0.11111,0.33333 -0.16667,0.5l-0.05713,0.08628c0.00143,0.00848 0.00224,0.01677 0.00259,0.02468c0.00415,0.03248 0.00182,0.07262 -0.02107,0.10986c-0.13467,0.38896 -0.43156,0.80421 -0.785,1.19699c0.00709,0.15078 -0.14995,0.17934 -0.14995,0.17934c-0.00675,0.00122 -0.0135,0.00247 -0.02023,0.00375c-0.0398,0.04152 -0.08007,0.0827 -0.12067,0.12346c0.54325,0.38106 0.94008,1.0519 1.32354,1.56317c0.14502,0.19336 0.41368,0.39517 0.25497,0.68294c-0.10042,0.18208 -0.48746,0.27807 -0.66966,0.35909c-0.08433,0.03706 -0.17109,0.06938 -0.25947,0.09596c-0.19254,0.17395 -0.43472,0.18088 -0.68856,0.08546c-0.02272,0.01022 -0.04791,0.0159 -0.07444,0.0159c-0.04551,0 -0.08712,-0.01674 -0.11899,-0.04439l-0.14052,-0.12045l0.00173,-0.00201l-0.00693,-0.00262c-0.03161,-0.03157 -0.06286,-0.06263 -0.09377,-0.09328c-0.33451,-0.2495 -0.65228,-0.61254 -0.86752,-0.94303c-0.0217,-0.02935 -0.04312,-0.05916 -0.06427,-0.08949l-0.04402,0.03424l-0.13239,-0.17021c-0.34635,0.4498 -0.82226,0.88883 -0.96833,1.0349c-0.11879,0.11803 -0.24679,0.22839 -0.38573,0.32186l-0.15706,0.1178c-0.03061,0.02348 -0.06891,0.03743 -0.11047,0.03743c-0.07271,0 -0.13545,-0.04272 -0.16448,-0.10443c-0.05083,-0.01544 -0.08509,-0.0497 -0.08509,-0.0497l-0.02169,-0.02224c-0.09216,0.03894 -0.17575,0.06026 -0.2387,0.05518c-0.21254,-0.01714 -0.38634,-0.14783 -0.5189,-0.3388l-0.12545,0.09425c0,0 -0.4,0.3 -0.7,-0.1h-0.00001c-0.3,-0.4 0.1,-0.7 0.1,-0.7l0.24626,-0.1844c0.01305,-0.23511 0.09821,-0.52284 0.23326,-0.6914c0.02672,-0.08327 0.06189,-0.15605 0.1057,-0.21423l0.00573,-0.00288l-0.00184,-0.00164l0.16088,-0.18098c0.03329,-0.0378 0.08205,-0.06165 0.13638,-0.06165c0.06236,0 0.11739,0.03142 0.1501,0.0793c0.20691,-0.15536 0.40798,-0.31773 0.60546,-0.48452l-0.16176,-0.19411l0.00008,-0.00007c-0.13718,-0.14118 -0.26978,-0.2875 -0.39935,-0.43745c-0.08555,-0.0847 -0.16917,-0.17153 -0.252,-0.25961c-0.48754,-0.44238 -0.98386,-0.87559 -1.47616,-1.31289c-0.06828,-0.06073 -0.14118,-0.12104 -0.21649,-0.18155c-0.13784,-0.10163 -0.27766,-0.20014 -0.41973,-0.29486c-0.67521,-0.59813 -1.26504,-1.28317 -1.80971,-2.00488l-0.02039,-0.01629c-0.01014,-0.01699 -0.02073,-0.03468 -0.03175,-0.05308c-0.10514,-0.1405 -0.20864,-0.28233 -0.31078,-0.42511c-0.16888,-0.32091 -0.3402,-0.6416 -0.48036,-0.93972c-0.01489,-0.02719 -0.02983,-0.05455 -0.0448,-0.08211c-0.07802,-0.01075 -0.14456,-0.0575 -0.1823,-0.12295l-0.1405,-0.23416l0.01014,-0.00609l-0.02511,-0.02303c-0.04586,-0.15756 -0.09453,-0.31463 -0.15121,-0.46865c-0.14163,-0.22561 -0.25519,-0.53831 -0.34848,-0.88583c-0.34577,-0.85652 -0.55719,-1.68632 -0.40473,-2.24581c-0.02256,-0.13351 -0.04422,-0.2435 -0.0662,-0.32168l0.01324,-0.03467h-0.01565v-0.28571v0c0,-0.10735 0.06765,-0.19889 0.16264,-0.23432c-0.01721,-0.51779 -0.01979,-1.04169 -0.01979,-1.57521c0,0 0,-0.25 0.25,-0.25c0.25,0 0.25,0.25 0.25,0.25c0,0.18356 0.00021,0.36597 0.00118,0.54737c0.32244,0.77021 0.87874,1.42539 1.55489,1.51748c0.12941,0.08448 0.27163,0.15587 0.42619,0.21164c0.30575,0.10234 0.62474,0.15725 0.9416,0.21485l0.13771,0.01696c0.05931,0.00065 0.09838,0.02434 0.12403,0.0536c0.02835,0.02659 0.05069,0.06636 0.0494,0.12553c0.0563,0.60632 0.2578,1.15715 0.49463,1.69734c0.61228,0.82834 1.23181,1.63834 1.78063,2.55273c0.25884,0.44378 0.53075,0.89265 0.84498,1.30507c0.09325,0.11013 0.18378,0.22175 0.27235,0.33445c0.04891,0.05595 0.09886,0.11092 0.14994,0.16476c0.32085,0.3382 0.72303,0.65492 1.04615,1.01232c0.10197,-0.02597 0.1978,0.03154 0.1978,0.03154z" fill="#909f95" stroke="none" stroke-width="0.5"></path><g stroke="none" stroke-width="0.5"><path d="M286.10869,205.53475l0.01329,0.00391l-0.00564,0.01035l0.04759,0.00343c0.60573,0.27322 0.99118,0.64103 1.54492,0.90199c1.34572,-0.29361 1.87298,-0.98388 2.78846,-1.84374l-0.06265,-0.01839l0.22503,-0.41281c0.08154,-0.16025 0.29204,-0.27436 0.53887,-0.27436c0.31757,0 0.57501,0.18891 0.57501,0.42194v0.42194c-0.00284,0.66063 0.03027,1.44356 -0.11528,2.14981c-0.00433,0.56817 -0.02771,1.1358 -0.06043,1.70339c0.03547,0.08949 0.06866,0.17951 0.09962,0.27001c-0.01585,2.11302 -0.1286,4.14417 -0.90797,6.02189c-0.56355,0.8741 -1.30572,1.66842 -2.19753,2.32113c-0.38399,0.22541 -0.74965,0.46314 -1.11717,0.69805c0.19877,0.2946 -0.18634,0.50654 -0.18634,0.50654l-0.5233,0.28344c-0.30769,0.09157 -0.63129,0.1709 -0.96149,0.22791c-0.0559,0.19007 -0.28632,0.3325 -0.56207,0.3325c-0.04272,0 -0.08435,-0.00342 -0.12441,-0.0099l-0.1171,-0.01719l-0.11728,0.01721c-0.04006,0.00649 -0.0817,0.0099 -0.12441,0.0099c-0.27577,0 -0.5062,-0.14246 -0.56208,-0.33255c-0.3302,-0.057 -0.65379,-0.13633 -0.96147,-0.22791l-0.5233,-0.28344c0,0 -0.3851,-0.21194 -0.18634,-0.50654c-0.36753,-0.23491 -0.73319,-0.47263 -1.11717,-0.69805c-0.9964,-0.72926 -1.80601,-1.6353 -2.38841,-2.63188c-0.00101,-0.00035 -0.00203,-0.00069 -0.00304,-0.00104c-0.14141,-0.58619 -0.23176,-1.16689 -0.37753,-1.7456c-0.11845,-1.74038 -0.03905,-3.54624 -0.03905,-4.93669c0,0 0,-0.3623 -0.25181,-0.58329c-0.00321,-0.13928 -0.00542,-0.27858 -0.00648,-0.41791c-0.14554,-0.70625 -0.11245,-1.48919 -0.11527,-2.14981v-0.42194c0,-0.23303 0.25744,-0.42194 0.57501,-0.42194c0.24682,0 0.45732,0.11411 0.53886,0.27436l0.22503,0.41282l-0.06265,0.01839c0.91548,0.85985 1.44273,1.55013 2.78846,1.84374c0.54691,-0.25775 0.92967,-0.61972 1.52262,-0.89184c0.01074,-0.2136 0.13505,-0.31071 0.24586,-0.35485c0.17669,-0.21753 0.40088,-0.19939 0.61469,-0.04204c0.24166,-0.00518 0.45119,-0.0095 0.63637,0.0113c0.29437,-0.2261 0.61108,-0.19136 0.79803,0.35777z" fill="#909f95"></path><path d="M291.1678,203.9068c0.4932,-0.0822 0.5754,0.411 0.5754,0.411c0.07054,0.42355 0.12917,0.83674 0.17436,1.24088c-0.14645,0.14814 -0.14644,0.36866 -0.14644,0.36866c0.00299,0.24071 -0.00964,0.49049 -0.036,0.74701c-0.06401,0.12599 -0.06401,0.25299 -0.06401,0.25299v0.2c0,0.00981 -0.00002,0.0196 -0.00007,0.02939c-0.33614,2.08366 -1.45472,4.49867 -2.42525,6.10774c-0.41929,0.69515 -1.0567,1.21541 -1.04902,2.10475c-0.92374,1.04695 -2.17736,2.09545 -3.28672,3.16309c0,-1.59606 0,-3.25315 0,-4.83823c0,-2.84072 0.25316,-5.66339 0.25316,-8.52316c0,0 0,-0.42194 0.42194,-0.42194c0.29559,0 0.3841,0.20707 0.41061,0.33109c0.03587,0.025 0.05652,0.04566 0.05652,0.04566c0.20887,0.20975 0.4381,0.50047 0.68939,0.76658l0.26305,0.04384l-0.01138,0.06831c0.36784,-0.04638 0.78101,-0.08958 1.16653,-0.11567l0.05338,-0.01259c0.39,-0.15077 0.96924,-0.82386 1.32277,-0.86209c0.11958,-0.01293 0.22663,-0.01632 0.32178,-0.01081c0.12036,-0.12783 0.2453,-0.24375 0.37153,-0.33305c-0.00178,-0.19853 -0.00284,-0.39731 -0.00284,-0.59637c0,0 0,-0.42194 0.42194,-0.42194c0.26241,0 0.36162,0.1632 0.39913,0.2866c0.0357,-0.0135 0.07562,-0.02431 0.12025,-0.03175z" fill="#0a0610"></path><path d="" fill="#0a0610"></path></g></g><g stroke="none" stroke-width="0.5"><path d="M218.99928,216.11152c-0.06459,-0.16262 -0.12568,-0.32474 -0.18396,-0.48659c-1.06476,-0.2514 -1.41359,-3.00258 -0.82694,-4.00024c-0.02328,-0.14952 -0.03662,-0.3032 -0.04418,-0.45097l-0.00541,0.0009l-0.12345,-0.7407c-0.00548,-0.02966 -0.00835,-0.06025 -0.00835,-0.0915c0,-0.27614 0.22386,-0.5 0.5,-0.5c0.23795,0 0.43708,0.16622 0.48761,0.38888l0.12247,0.48986l-0.02987,0.00746l0.04105,0.05271c-0.00036,0.02128 -0.00054,0.04223 -0.00054,0.06284c0.23907,0.02958 0.47238,0.08781 0.70839,0.15338c0.36861,-0.35256 0.82211,-0.69767 1.1889,-1.02212c0.04977,-0.97957 -0.1378,-2.28231 -0.28292,-2.87928c0,0 -0.00791,-0.03164 -0.02778,-0.07675c-0.04683,-0.40544 -0.07792,-0.81756 -0.07792,-1.24404v-0.54545c0,-0.27614 0.22386,-0.5 0.5,-0.5c0.25466,0 0.46484,0.19037 0.49601,0.43657l0.08625,0.60375c0.23648,0.09991 0.27421,0.35659 0.28023,0.43595c0.32981,-0.75565 0.81937,-1.41784 1.50342,-1.88227c0.06465,-0.06898 0.15945,-0.12391 0.29845,-0.13665c0.09258,-0.01611 0.20646,-0.01269 0.31438,0.05304c0.1119,0.05873 0.17341,0.1546 0.20723,0.24228c0.0611,0.12682 0.06229,0.23717 0.03571,0.32855l-0.01256,0.28531c0.55815,0.84063 1.30478,1.81735 1.6374,2.8301c0.52759,-0.84108 0.95522,-1.57415 1.38074,-2.59137v-0.4689c0,-0.27614 0.22386,-0.5 0.5,-0.5c0.18532,0 0.3471,0.10082 0.43347,0.25061l0.26801,0.44669c0.39574,0.67326 0.94771,4.71201 1.20353,5.79773c0.01752,-0.08147 0.04007,-0.16222 0.06664,-0.24218l-0.10121,-0.01686l0.08956,-0.53735c0.0358,-0.24101 0.24358,-0.42591 0.49455,-0.42591c0.25097,0 0.45875,0.1849 0.49455,0.42591l0.08956,0.53735c0.15661,0.93964 0.73816,1.66078 0.82328,2.58641c0.31016,3.37276 -2.75397,5.63215 -5.86194,5.63215c-2.75144,0 -5.21267,-0.81027 -6.48836,-2.74169z" fill="#909f95"></path><path d="M226.42943,211.58893c0.27735,-0.41602 0.69337,-0.13868 0.69337,-0.13868l0.49538,0.59785c-0.00079,0.27006 -0.00231,0.53078 -0.0026,0.78679c0.20845,0.25104 0.02225,0.56137 0.02225,0.56137c-0.00641,0.01067 -0.01299,0.02127 -0.01971,0.03181c0.00319,0.28027 0.00985,0.55917 0.02274,0.84306l0.20526,0.47895c0.02307,0.05061 0.03793,0.10575 0.04292,0.16371c0.76169,0.68706 -0.9696,2.32287 -1.44101,2.57353c-0.22421,0.11922 -0.45465,0.2036 -0.68791,0.25694c-0.35031,0.20835 -0.6614,0.34496 -0.82376,0.3493c-1.24117,0 -1.83152,-0.26327 -2.71719,-1.14644l-0.18182,-0.18182c0,0 -0.22863,-0.22863 -0.13433,-0.50204l-0.04748,0.04749l-0.36364,-0.36363c-0.09048,-0.09048 -0.14644,-0.21549 -0.14644,-0.35356c0,-0.04574 0.00614,-0.09005 0.01764,-0.13214c-0.03239,-0.0438 -0.06074,-0.09784 -0.08289,-0.16429c-0.15812,-0.47434 0.31622,-0.63246 0.31622,-0.63246c0.04969,-0.0124 0.09891,-0.02824 0.14765,-0.04734c0.05915,-0.3249 0.18175,-0.69542 0.30339,-1.06212c-0.04394,-0.29056 -0.06828,-0.66702 -0.06566,-1.14347c0.00173,-0.31442 0.05517,-0.59216 0.1037,-0.87068c-0.03582,-0.10985 -0.04089,-0.24945 0.05897,-0.39409c0.01318,-0.11979 0.02094,-0.24275 0.01915,-0.3716v-0.54545v0c0,-0.27614 0.22386,-0.5 0.5,-0.5c0.25466,0 0.46484,0.19037 0.49601,0.43657l0.08916,0.62411c0.20355,0.39431 0.34683,0.78125 0.36351,1.19118c0.35148,-0.96852 0.55335,-1.9678 0.55131,-2.57004v-0.27273c0,0 0,-0.5 0.5,-0.5c0.14148,0 0.24292,0.04003 0.31566,0.09743c0.24988,0.06347 0.3405,0.33536 0.3405,0.33536c0.26039,0.78169 0.68313,1.6675 1.08429,2.55805c0.00771,-0.01349 0.01615,-0.02713 0.02535,-0.04093zM226.61818,212.0481l-0.00918,0.04295c0.00281,0.00644 0.00562,0.01287 0.00842,0.01931c0.00056,-0.02115 0.00083,-0.04191 0.00076,-0.06225z" fill="#0a0610"></path></g></g></g></svg>