<svg version="1.1" xmlns="http://www.w3.org/2000/svg" xmlns:xlink="http://www.w3.org/1999/xlink" width="548" height="359" viewBox="0,0,548,359"><g transform="translate(34,-1)"><g stroke="none" stroke-miterlimit="10"><g stroke-width="0.5"><path d="M220.12267,141.26698c2.23607,1.11803 1.11803,3.3541 1.11803,3.3541l-0.5501,1.07443c0.30226,0.41332 0.4807,0.92292 0.4807,1.4742c0,0.55242 -0.17917,1.06299 -0.48258,1.47677l-1.56374,2.18924c-1.95976,3.95973 -4.04266,10.89603 -7.97737,13.9255c-0.39197,0.87895 -0.79891,1.75002 -1.27099,2.58752c-0.3066,0.94189 -0.68541,1.8178 -1.22409,2.56049c0.00483,0.22577 0.01904,0.45278 0.04325,0.68108l1.12435,1.96761c0.22304,0.37408 0.35117,0.81131 0.35117,1.27847c0,1.38071 -1.11929,2.5 -2.5,2.5c-0.85068,0 -1.60213,-0.42489 -2.0537,-1.07402l-1.6473,-2.30622l0.18241,-0.13029c-0.21029,-0.21728 -0.40242,-0.45216 -0.57162,-0.70927c-0.49696,-0.75517 -0.22929,-2.20095 0.25765,-3.67617c0.00733,-0.29791 0.06676,-0.58288 0.16954,-0.84616l0.13546,-0.37252c0.46555,-2.26214 1.41828,-4.2972 2.58425,-6.29359c1.65694,-4.64184 3.53403,-9.34317 6.42465,-13.29125c0.12853,-0.24369 0.31615,-0.52441 0.58013,-0.76442c0.5938,-0.7546 1.22861,-1.47816 1.91043,-2.16454l1.12537,-2.32292c0,0 1.11803,-2.23607 3.3541,-1.11803z" fill="#6390d6"></path><path d="M202.50464,177.83639l0.1903,-3.62338c0.62539,-0.68943 1.29052,-1.34171 1.98389,-1.96485c0.08367,-0.23933 0.20754,-0.49596 0.3909,-0.73126l1.07356,-1.87873c0.42441,-0.77572 1.24811,-1.30179 2.19469,-1.30179c1.38071,0 2.5,1.11929 2.5,2.5c0,0.32934 -0.06368,0.64381 -0.17941,0.93176l-0.94311,2.51497c-0.1185,0.48104 -0.06169,1.08253 -0.21081,1.54252c0,0.00358 0,0.00717 0,0.01075v3c0,1.38071 -1.11929,2.5 -2.5,2.5c-0.81791,0 -1.54408,-0.39278 -2.00018,-1c-2.49982,-0.00012 -2.49982,-2.5 -2.49982,-2.5z" fill="#baafcc"></path></g><g fill="none" stroke-width="0"><path d="M-34,360v-359h34v359z"></path><path d="M480,360v-359h34v359z"></path></g><g stroke-width="0.5"><path d="M291.77031,173.69444c-2.98245,0.87852 -5.62836,1.97272 -8.17088,3.90639l-1.42133,1.70272c-0.29192,0.35774 -0.6893,0.60656 -1.15207,0.6814c-1.11722,0.18066 -2.19243,-0.72118 -2.40155,-2.01432c-0.01209,-0.07478 -0.02102,-0.14923 -0.0269,-0.22318l-0.27762,-3.13068l0.03406,-0.00219c-0.01693,-0.12816 -0.0306,-0.25696 -0.04069,-0.38647c-0.11976,-1.53848 0.73625,-2.93167 0.90222,-4.4493c0.09157,-0.83727 -0.25377,-1.71658 -0.13689,-2.54838c0.65868,-4.68784 2.55293,-9.23361 3.01903,-14.06335c0.47745,-4.94742 0.21282,-9.97648 0.28137,-14.93991c0.13667,-9.8961 1.79425,-19.74044 4.94524,-28.75892c0.37541,-0.73066 0.75081,-1.46132 1.12622,-2.19198l1.41565,-1.21162c0,0 0.67341,-0.39324 1.425,-0.21371c0.23914,-0.41983 0.65265,-0.77948 1.35881,-0.89367c2.02291,-0.32712 2.40155,2.01432 2.40155,2.01432c1.49826,9.26527 3.60469,18.73107 4.30253,28.08511c0.35499,4.75828 0.34471,9.55787 0.7002,14.3261l0.18272,1.0662c0,0 0.02424,0.14988 0.02768,0.37911c0.0062,0.22929 -0.01176,0.37811 -0.01176,0.37811c-0.88903,7.36332 -1.38052,16.32686 -6.11384,21.44937l-2.11857,0.936c-0.06299,0.03077 -0.11736,0.05389 -0.15919,0.07033l-0.02979,0.01317c0,0 -0.01067,0.00358 -0.0307,0.00931c-0.01972,0.00684 -0.0305,0.01005 -0.0305,0.01005z" fill="#5a1751"></path><path d="M203.82963,211.026c-1.42234,-1.23592 -2.54664,-2.90142 -3.77883,-4.31556c0,0 -0.55124,-0.63299 -0.37453,-1.37216c-0.04844,-0.1757 -0.05757,-0.30024 -0.05757,-0.30024l-0.01689,-0.61294c-0.01872,-0.01747 -0.03756,-0.0348 -0.05651,-0.05208c0.01632,-0.0758 0.03261,-0.15161 0.04883,-0.22744l-0.01145,-0.41566c0.60594,-2.86534 0.33628,-5.84794 0.91173,-8.68988c0.88677,-4.37943 1.78192,-8.74415 2.23028,-13.2106c-0.17168,-0.194 -0.34555,-0.38625 -0.52201,-0.57645c0,0 -1.05051,-1.13282 0.08231,-2.18331c0.50403,-0.46741 0.99177,-0.5026 1.37795,-0.39764c0.00335,-0.02635 0.00669,-0.0527 0.01003,-0.07904c0.05266,0.04658 0.10635,0.09202 0.16095,0.1365c0.38578,0.1544 0.6344,0.42252 0.6344,0.42252c0.03353,0.03617 0.06697,0.07241 0.10033,0.10873c0.52758,0.35315 1.06946,0.6917 1.50732,1.14373c0.90403,0.93328 1.37822,1.88232 1.79625,2.87242c0.35509,0.45974 0.70883,0.9198 1.06481,1.37705c-0.03497,0.28132 -0.07001,0.56266 -0.10509,0.84399c0.03325,0.06639 0.06736,0.13303 0.10235,0.19989c2.3331,4.45578 6.23765,8.1352 9.38618,11.92711c1.89844,2.93416 4.6387,4.42545 7.11437,6.71416c4.06139,3.75468 7.83825,8.15214 11.26289,12.52998c1.85447,1.45991 3.10841,3.27539 5.13544,5.14052c2.14292,1.97181 4.99682,3.37294 6.78739,5.7031c1.91808,2.49612 4.00413,4.36765 6.15201,6.72264c1.68153,1.84367 2.87784,4.04344 4.62665,5.85092c5.79628,6.42363 10.23444,13.3776 16.24269,19.59417l0.84574,0.20823c0,0 0.48437,0.19949 0.77285,0.64818c1.40526,0.37362 1.08385,1.82127 1.08385,1.82127c-0.02512,0.11304 -0.04994,0.22596 -0.07448,0.3388c0.23848,0.97177 0.22591,2.28328 0.07019,3.44545c0.41752,0.88904 0.10976,2.17744 0.33123,3.04582c0.31469,1.23388 0.66825,2.4588 0.93609,3.70369c0.5681,2.64047 1.63959,5.69973 2.55154,8.24059c0.03056,0.08516 0.06354,0.16786 0.09857,0.24848c0.6854,0.65708 1.35044,1.28191 1.92339,1.85644c0.24578,0.21572 0.49646,0.55047 0.50561,1.02225c0.00686,0.06497 0.00926,0.13195 0.00598,0.20059l0.21894,0.05564c0.64379,0.1476 1.14428,0.70039 1.19497,1.39352c0.06222,0.85098 -0.57721,1.59125 -1.42819,1.65347l-1.54083,0.11264l-0.03147,-0.43028l-0.19283,-0.04898l-0.72633,0.23636c-0.0944,-0.18206 -0.19403,-0.36393 -0.29757,-0.54581c-0.022,-0.00173 -0.04441,-0.00517 -0.06723,-0.01039c-1.28814,-0.29511 -1.95133,-1.87875 -3.17816,-2.36996c-2.01835,-0.80812 -3.85497,-1.26775 -5.79957,-2.28892l-0.85897,-1.00064c0,0 -0.39246,-0.65976 -0.15902,-1.32579c-0.11931,-0.05319 -0.23953,-0.105 -0.3607,-0.15528c-3.99501,-1.65828 -9.09895,-1.38537 -13.32978,-1.07607c0,0 -0.0626,0.00458 -0.16351,-0.00073c-0.30477,-0.00401 -0.71972,-0.07925 -1.04051,-0.39845c-0.20041,-0.18404 -0.36401,-0.45178 -0.42751,-0.84092l-0.67771,-0.60863c-1.39792,-1.81148 -1.84519,-4.21652 -3.27667,-5.91026c-1.14524,-1.35506 -2.85376,-2.0958 -3.88667,-3.60487c-1.02538,-1.49809 -1.64059,-3.3355 -2.74397,-4.82008c-0.70061,-0.94267 -1.81872,-1.50748 -2.57066,-2.40976c-1.13981,-1.36768 -2.10463,-2.9638 -3.2423,-4.38038c-0.22662,-0.1917 -0.36083,-0.43937 -0.43986,-0.65274c-0.05179,-0.11868 -0.0984,-0.25774 -0.12337,-0.40997c-0.17878,-0.34877 -0.35753,-0.69755 -0.53629,-1.0463c-1.37193,-1.76708 -3.40625,-2.86215 -4.72621,-4.67268c-1.1487,-1.57562 -1.85032,-3.53301 -2.85956,-5.18313c-1.05678,-1.72788 -3.01593,-2.19617 -3.92559,-4.10586c-0.26254,-0.55113 -0.14047,-1.228 -0.37017,-1.79361c-0.61862,-1.52336 -2.15048,-2.60715 -3.03257,-3.91531c-1.45394,-2.15619 -2.54983,-3.52069 -4.43799,-5.42119c0,0 -0.636,-0.64084 -0.44569,-1.42892c-0.24026,-0.26561 -0.47434,-0.53968 -0.70051,-0.82483c-0.70573,-0.88972 -0.91005,-2.10026 -1.57438,-3.0213c-0.71455,-0.99067 -2.13794,-1.18423 -3.23578,-1.71974c-2.10353,-3.01624 -5.25472,-5.01607 -7.60039,-7.82849c-0.6456,-0.77405 -1.22682,-1.59772 -1.77861,-2.44414c-0.16991,-0.12614 -0.33392,-0.25604 -0.48966,-0.39138z" fill="#f0bcd4"></path><path d="M202.9639,184.0745c-0.23779,0 -0.44126,-0.03293 -0.61538,-0.08928c-0.29195,0.93868 -0.59203,1.88048 -0.8967,2.83039l-0.52719,0.92248c0.02215,0.63419 0.04429,1.26839 0.06643,1.90257l-0.65104,0.43721c0.03673,0.40187 -0.03421,0.85811 -0.3017,1.35057c-0.15762,0.3538 -0.41072,0.72689 -0.81503,0.96285c-0.48801,1.27721 -1.88854,1.32223 -1.88854,1.32223l-0.00004,0.00002l-0.31302,0.01007c-1.10268,1.1284 -2.23782,0.43851 -2.67493,0.08974c-1.51144,0.00407 -3.17865,-0.15088 -3.85622,-0.93391c-0.86311,-0.99744 -0.47131,-2.70795 -0.68329,-4.06641c-0.40299,-2.58283 -0.42058,-5.15279 -0.51167,-7.76173c0,0 -0.01033,-0.29551 0.07027,-0.68088c-0.81181,-1.34272 -1.71994,-2.84731 -1.78108,-3.09256c-0.58684,-2.35396 -0.79024,-4.94465 -0.26956,-7.3057c0.35623,-1.61535 0.83173,-2.41556 1.42577,-3.22629c-0.04753,-0.1192 -0.08975,-0.2413 -0.12572,-0.36676c-1.27893,-4.46168 0.98465,-8.63508 3.77102,-11.86327l-0.31524,-0.22875l1.55185,-2.65956c0.22165,-0.39108 0.54475,-0.70477 0.93035,-0.89473c0.60351,-1.87248 1.17625,-3.74499 1.70361,-5.56353c0.0382,-0.13175 0.07592,-0.26313 0.11316,-0.39416c0.31187,-1.54592 0.70039,-3.07441 1.19386,-4.54633c1.1149,-4.42146 2.17241,-8.51982 4.77203,-12.70347c0,0 0.79234,-1.26422 2.02301,-1.02962c0.02642,-0.06578 0.05302,-0.13144 0.07984,-0.19699l0.83425,-2.31357c0.2921,-0.86617 1.03193,-1.49203 1.91922,-1.52055c1.12847,-0.03627 2.08635,0.90678 2.20609,2.13604c0.37227,-0.55371 0.96075,-0.91942 1.63416,-0.94107c0.63261,-0.02033 1.21161,0.26709 1.6194,0.74019c0.02263,-0.00152 0.04535,-0.00265 0.06816,-0.00338c1.17872,-0.0379 2.17133,0.9927 2.21704,2.30191c0.0139,0.39815 -0.06137,0.77621 -0.20603,1.11065l-0.18972,0.4635c0.47201,1.09041 0.7061,2.3433 0.81593,3.55938c1.22176,0.42757 1.479,1.42831 1.49388,2.14363l0.42801,0.41072c0.54097,-0.20841 1.09129,-0.40368 1.6052,-0.65018l-0.09098,1.63335l0.71384,0.274l-0.54123,1.29842c1.09306,0.70315 0.51139,1.93113 0.51139,1.93113c-2.97293,6.26617 -7.06174,12.0057 -9.2424,18.53278c-0.052,0.1873 -0.111,0.37242 -0.17998,0.55445c-0.0132,0.04187 -0.0263,0.08378 -0.03934,0.12573c0.05749,0.16091 0.08871,0.33354 0.08871,0.51315c0,0.29548 -0.08446,0.57202 -0.23146,0.80863l-0.40917,0.68712c-0.05621,0.23606 -0.10959,0.47329 -0.16003,0.71175l-0.11274,0.11243l0.0632,0.02426l-0.7181,1.72274c-0.13649,0.35079 -0.39909,0.64259 -0.73487,0.82463c-0.3313,0.89929 -0.63335,1.7723 -0.95133,2.64623l0.31235,0.03746l-0.36347,2.79028c-0.04822,0.41946 -0.26741,0.7895 -0.58923,1.04453c0.13143,1.38574 0.32063,2.77575 0.22746,3.83c-0.26943,3.04844 -1.83422,5.15963 -1.82529,8.30286v0.35138c0,0 0,1.58124 -1.64781,1.58124z" fill="#6390d6"></path><path d="M208.158,184.67776c0.01794,-0.09015 0.03562,-0.18019 0.05303,-0.2701c-0.07779,0.04462 -0.15399,0.0911 -0.22865,0.13936c-0.01035,0.03687 -0.02079,0.07366 -0.0313,0.1104c0.06969,0.00376 0.13871,0.01057 0.2069,0.02032zM211.27935,180.29095c1.02669,0.15655 1.53526,0.69411 1.78262,1.249c0.25334,0.43532 0.39204,1.00935 0.16241,1.71968c-0.96675,6.01254 -3.07075,12.73121 -5.46941,18.32827c-1.30647,3.04855 -2.902,5.25737 -3.89186,8.4993l-0.17301,0.17337l0.07156,0.03871l-1.20853,2.23445c-0.35211,0.67188 -1.0197,1.16348 -1.83006,1.25702c-0.21961,0.02535 -0.43568,0.01984 -0.64386,-0.01308c-0.87177,0.66913 -2.03852,0.3912 -2.03852,0.3912l-0.17597,-0.04816l-1.9588,0.22611l-0.00403,-0.03485c-0.02671,0.01435 -0.05344,0.0287 -0.08013,0.04305l-0.08592,-0.02987l0.00153,0.03506l-2.9368,0.12818c-1.24098,0.06561 -2.33474,-0.84533 -2.47919,-2.09677c-0.10264,-0.88919 0.30054,-1.7202 0.98139,-2.20529c-0.28423,-0.34201 -0.47565,-0.76776 -0.53045,-1.24249c-0.06382,-0.55285 0.0679,-1.08321 0.34033,-1.52192l1.23752,-2.03614c0.37343,-0.61396 0.7338,-1.2316 1.08418,-1.85219c0.95611,-1.88606 2.37639,-4.60729 2.62447,-5.14663c2.32124,-5.04681 3.73579,-12.03726 7.62112,-16.16177c0.01047,-0.04946 0.02077,-0.09906 0.0309,-0.14882c0,0 0.44557,-2.12352 2.51541,-1.88233c0.61919,-0.35443 1.28697,-0.64983 2.0099,-0.87685l3.03362,0.97228c0.0032,0.00048 0.00641,0.00096 0.0096,0.00145z" fill="#731d67"></path><path d="M207.1461,178.67659l-0.3125,0.1321c1.09264,1.88303 1.76073,3.94712 1.41961,6.37433c0.22944,0.29723 0.39145,0.65342 0.45896,1.04937c0.03647,0.21392 0.04308,0.426 0.02282,0.63201l-0.14513,1.90319c0.87105,0.23026 1.57188,0.9493 1.73319,1.89539c0.05032,0.29514 0.04379,0.58684 -0.01168,0.86386l-0.53354,3.03258l-0.07375,-0.01298c-0.01418,0.17187 -0.03816,0.34369 -0.07332,0.51545c-0.48404,2.36489 -1.50082,3.27829 -2.69411,3.38177c-0.18474,0.2017 -0.37572,0.39601 -0.57431,0.58232l0.50062,0.23683l-1.08629,2.29637c-0.31536,0.68988 -0.95548,1.21677 -1.7596,1.35387c-1.12858,0.19243 -2.20673,-0.44659 -2.60752,-1.47278c-0.19332,0.03289 -0.38724,0.06004 -0.58112,0.08135c-0.2482,0.10105 -0.50405,0.1292 -0.77411,0.05379c-0.32504,0.00931 -0.64778,0.00156 -0.96529,-0.02373c-0.34412,-0.00502 -0.69259,-0.05392 -1.04391,-0.15207c-2.55648,-0.55303 -4.50874,-2.40655 -4.11024,-5.88384c0.00308,-0.0268 0.00626,-0.05357 0.00957,-0.08033l-0.01893,0.00194l-0.12967,-1.26319c-0.88146,-0.85961 -1.50752,-1.76675 -1.59529,-3.88534c-0.02348,-0.56667 0.06807,-1.12169 0.21268,-1.67132c-2.05753,-0.34046 -3.93535,-1.29756 -3.47737,-4.61568c0.36008,-2.60884 2.74759,-2.88181 5.07616,-2.93095c1.19257,-0.52978 2.48814,-0.38047 3.66825,-0.42218c0.30121,-0.32776 0.69631,-0.57327 1.15268,-0.6905c0.99258,-1.06569 1.8031,-2.8682 2.35815,-4.1604c0.08144,-0.46308 0.29919,-0.88776 0.61685,-1.2227l0.07035,-0.109c0.19034,-0.47456 0.5571,-0.9611 1.25845,-1.20501c0.41296,-0.19685 0.93381,-0.29891 1.53138,-0.10405c0.61482,0.13055 1.01458,0.47966 1.27348,0.85684c0.47098,0.54611 0.55424,1.1323 0.4919,1.6292c0.02556,0.46488 0.02608,0.92233 0.0115,1.37491z" fill="#baafcc"></path><path d="M194.33426,193.18881c-0.08537,-0.06969 -0.16887,-0.14145 -0.25036,-0.2153c-1.34838,-0.47367 -2.802,-0.49111 -3.79609,-1.46142c-0.95161,-0.92884 -1.29807,-2.58295 -1.12628,-4.15519c-0.84452,-1.12523 -1.50097,-2.45309 -0.8671,-3.66013c0.65646,-1.25004 4.22526,-1.88722 5.4915,-1.74674c0.33158,0.03678 0.63198,0.08926 0.90683,0.15577c0.01677,-0.08723 0.03273,-0.17072 0.04775,-0.25025c0,0 0.24451,-1.29481 1.53933,-1.0503c1.29481,0.24451 1.0503,1.53933 1.0503,1.53933c-0.07247,0.38377 -0.13527,0.76532 -0.18991,1.1451c0.51419,0.49239 0.99864,1.06181 1.63944,1.65426c0.47234,0.25975 0.86902,0.57248 1.18814,0.95753c2.24998,1.58755 5.25951,2.89909 4.29435,6.40266c-0.21806,0.79157 -0.8979,1.37488 -1.34687,2.06231c-1.38199,0.26698 -2.48965,0.54559 -3.71182,0.56425c-0.17412,0.66327 -0.83456,1.08811 -1.51873,0.95892c-0.5354,-0.1011 -0.93355,-0.51285 -1.04317,-1.01351c-1.14052,-0.16224 -1.86761,-0.86888 -2.3073,-1.88732z" fill-opacity="0.99216" fill="#731d67"></path><path d="M294.20003,234.35088c0.25754,0.5922 0.39242,1.19584 0.28821,1.81954c-0.15728,0.94128 -0.54631,1.8315 -0.99984,2.70856c-0.35223,2.22587 -1.24903,4.39578 -2.34859,6.36314c-0.43795,0.78359 -0.35429,1.85978 -1.14652,2.41207c-0.15789,0.11008 -0.32059,0.21395 -0.4874,0.31251l0.07731,0.07439l-2.49473,1.83805c-0.4416,0.3288 -1.02209,0.52838 -1.65793,0.52838c-1.38284,0 -2.50386,-0.94393 -2.50386,-2.10832c0,-0.1729 0.02471,-0.34094 0.07134,-0.50175l0.61424,-2.32747l0.04341,0.00813l-0.01219,-0.11354c0.69791,-1.76843 1.42255,-3.49341 2.07582,-5.2532c-0.06486,-5.49441 -0.26092,-11.01742 -0.59867,-16.47989c-0.19108,-3.09031 0.38458,-6.28742 0.01184,-9.36241c-0.01558,-0.12851 -0.03201,-0.25846 -0.04918,-0.38975c-0.90471,-0.61552 -0.90471,-1.68507 -0.90471,-1.68507l0.01243,-1.37145c-0.47803,-4.14906 -3.70057,-8.74116 -3.14092,-12.92835c0.17423,-1.3036 0.11083,-3.28354 1.5876,-3.70147c0.50889,-0.14402 1.02317,-0.16574 1.54091,-0.109v-0.33753h2.50386c0.99382,0 1.85242,0.48754 2.25684,1.19408c1.49895,0.47083 1.49895,1.9684 1.49895,1.9684c0,2.37549 -0.73216,5.70794 -0.05454,7.99561c0.24864,0.83947 1.03853,1.52554 1.25193,2.37186c0.0716,0.28395 0.05454,5.06543 0.05454,5.44493c0,1.22986 0,2.4597 0,3.68956c0,0.02874 0,0.05769 0,0.08685c0.00935,5.51376 1.79344,10.65238 2.13479,16.09509c0.1693,0.57535 0.30294,1.15865 0.37509,1.75806z" fill="#baafcc"></path><path d="M266.75621,69.72162l0.08823,-0.14389l-0.05876,-0.01469l0.5204,-2.08158c0.13316,-0.5868 0.65794,-1.02485 1.28504,-1.02485c0.72775,0 1.3177,0.58995 1.3177,1.3177v1.05416l0.10999,-0.02499c0.40596,-0.9865 0.84899,-1.94529 1.33755,-2.86753l0.48106,1.1714c0.19438,-0.21755 0.49754,-0.3872 0.97034,-0.3872c1.3177,0 1.3177,1.3177 1.3177,1.3177c0,1.63448 -0.00022,3.29253 -0.10338,4.93691c0.37816,0.2316 0.63046,0.64859 0.63046,1.12451v1.58124h-0.12958c0.46569,2.67045 0.69382,5.80312 0.08177,7.9944c-0.26451,0.94704 -1.70403,3.09778 -3.11663,3.07884c-0.04592,0.10704 -0.09342,0.21754 -0.1425,0.33179l-0.07135,0.06125l0.02803,0.01682l-0.77819,1.29699c-0.2276,0.39475 -0.65395,0.66046 -1.14234,0.66046c-0.72153,0 -1.30762,-0.57993 -1.31757,-1.2991l-0.12254,0.12254c-0.10206,0.10206 -0.22078,0.18746 -0.35174,0.25175l-0.07374,0.36867c-0.11061,0.61588 -0.64918,1.08321 -1.2969,1.08321c-0.08426,0 -0.16667,-0.00791 -0.24654,-0.02302c-0.23914,0.33311 -0.62981,0.5501 -1.07116,0.5501c-0.72775,0 -1.3177,-0.58995 -1.3177,-1.3177v-2.10832h0.46603c-0.2727,-3.1171 0.44496,-5.98019 0.7401,-9.08204c-0.00885,-0.5685 0.02084,-1.10347 0.10624,-1.58475c0.01239,-0.3489 0.01691,-0.70162 0.01173,-1.05881l0.07947,-0.11652l-0.0603,-0.01206l0.25875,-1.29376c0.11061,-0.61588 0.64918,-1.08321 1.2969,-1.08321c0.08053,0 0.15937,0.00722 0.23591,0.02106c0.02157,-0.93081 0.03337,-1.86844 0.03751,-2.81746z" fill="#6390d6"></path><path d="M271.7536,84.64086l0.30124,0.09424c0.25085,-0.09159 0.51042,-0.14443 0.77507,-0.16522c0.46302,-0.596 1.29044,-0.43052 1.29044,-0.43052l1.29376,0.25875c0.61588,0.11061 1.08321,0.64918 1.08321,1.2969c0,0.72775 -0.58995,1.3177 -1.3177,1.3177c-0.09789,0 -0.19329,-0.01068 -0.28511,-0.03093l-1.29102,-0.25821c0,0 -0.01263,-0.00253 -0.03515,-0.00833c-0.14288,0.20322 -0.32775,0.37112 -0.53474,0.46675l-0.35647,0.02625c0.36902,0.47222 0.71054,0.94951 1.00656,1.43684c1.17645,1.93666 1.42934,4.31296 1.44401,6.49364l-0.12043,0.16001l0.08103,0.02258l-0.42405,1.44782c-0.15158,0.56601 -0.67929,0.98371 -1.30701,0.98371c-0.74602,0 -1.35078,-0.58995 -1.35078,-1.3177v-1.47582h0.3782l0.02341,-0.07994c-0.16712,-0.87255 -0.33968,-1.72417 -0.7279,-2.57096c-0.64073,-1.39753 -1.27959,-2.7987 -1.89346,-4.20825c-0.27167,-0.35586 -0.55303,-0.7073 -0.83847,-1.05752c0.17398,1.53148 -0.37014,3.42722 -1.38289,4.4648c-0.93122,0.95405 -2.79603,0.75879 -3.93374,0.76377c-3.37085,0.01474 -6.56773,0.60512 -9.93647,0.63158l-1.03812,0.33656c-0.50429,0.21083 -1.00859,0.42166 -1.51288,0.6325c-7.79732,2.53784 -16.01639,2.8452 -23.86814,5.09114c-4.67522,1.33731 -8.97189,3.93326 -13.67312,5.02649c-0.15134,0.05542 -0.33107,0.08833 -0.54455,0.08833c-0.39002,0 -0.66742,-0.10985 -0.86473,-0.26612c-0.19918,-0.15399 -0.36928,-0.39433 -0.45389,-0.76573c-0.04457,-0.19565 -0.05185,-0.36814 -0.03216,-0.52002v-0.18749c0,-2.54826 -0.24079,-4.29479 0.43225,-6.11012v-0.30269l-0.36294,-0.11801l0.4224,-1.23617c0.16975,-0.53844 0.68368,-0.92983 1.29131,-0.92983c0.02923,0 0.05824,0.00091 0.08701,0.00269c0.83564,-1.96183 1.63846,-3.91668 2.9022,-5.75065c2.11159,-3.0644 4.38104,-4.62922 4.95339,-8.41788v-1.80468c0.00531,-3.26744 -0.64837,-6.3779 -0.64837,-9.69827c0.08873,-7.6334 4.75037,-13.75445 10.42163,-18.50631c2.2478,-1.88339 4.15444,-3.81902 6.69916,-4.86887c0.23832,-0.92322 1.30388,-0.92322 1.30388,-0.92322c1.17353,0.00188 2.3356,0.09557 3.49525,0.22394c-0.8233,-1.24701 -1.11517,-3.13458 -0.23504,-3.72833c0.83482,-0.56319 2.05861,-0.08708 3.02323,0.41318l0.54192,-0.52865c0.24444,-0.23846 0.58214,-0.38595 0.95514,-0.38595c0.49061,0 0.92013,0.25515 1.15673,0.63684c0.76373,-0.8848 1.6164,-1.61982 2.58063,-1.98261c2.37433,-0.89335 5.06021,0.14781 7.17658,1.03395c1.59864,0.66936 3.15172,1.58131 4.61615,2.66705c5.72869,2.95458 10.47048,8.26161 11.09721,13.89808c0.26254,0.74489 0.41095,1.57282 0.4385,2.57362c0.06373,0.32561 0.12833,0.66487 0.19833,1.01971c0.57211,2.90067 1.93868,4.84998 1.96638,7.94044c0.04736,0.43175 -0.09349,0.73482 -0.28804,0.94501c-0.01549,0.02033 -0.0318,0.04041 -0.049,0.06012c0.21743,0.23498 0.35032,0.54933 0.35032,0.89472v1.3177h-0.22089l0.15326,0.41669c-0.04503,0.06466 -0.09146,0.13161 -0.13923,0.2005c0.07108,0.21839 0.05005,0.49523 0.01436,0.83966c-1.96331,-0.8108 -6.00547,0.53022 -7.48409,0.94845c0,0 -1.0136,0.2896 -0.724,1.30321c0.08667,0.30337 0.23821,0.48999 0.408,0.60259c0.54205,3.33499 1.53961,6.68951 2.79895,9.8501c0.34658,-0.19358 0.71344,-0.19358 0.71344,-0.19358zM265.50601,83.02132c0.27919,0.64538 0.74892,0.99069 1.25392,1.28663c-0.72001,-0.97782 -1.36538,-2.00656 -1.82813,-3.14812c0.13356,0.64978 0.32089,1.27588 0.57421,1.86149z" fill="#111732"></path><path d="M302.1184,93.75388l0.01319,-0.01476l-0.05102,-0.0309c-1.80812,-2.35224 -3.37274,-4.83389 -5.3993,-6.96267c-1.80149,-1.89234 -3.67959,-3.05205 -4.93501,-5.72349c-0.67825,-1.44326 -1.35198,-3.10861 -1.27432,-4.70114l-0.7174,-0.79318l0.13269,-0.15896c-0.32284,-0.33073 -0.58821,-0.7145 -0.76445,-1.18048c-0.54595,-1.44351 0.08601,-2.81632 1.0931,-3.89596l0.19708,-2.7677c0.05419,-1.05459 0.72796,-1.93856 1.67625,-2.09191c1.11722,-0.18066 2.19243,0.72118 2.40155,2.01432l0.09409,0.58186c2.74887,-0.02685 3.65397,2.01291 5.42509,4.17676l0.89412,1.58784c0,0 0.27567,0.51305 0.3342,1.17276c0.75949,0.77197 1.53733,1.52502 2.32745,2.25935c0.63545,0.3979 1.28293,0.85893 2.004,1.61756c0.21968,0.23111 0.42771,0.47459 0.62716,0.72722c0.29493,0.25264 0.5906,0.50282 0.88673,0.75056c1.38114,1.3242 2.97588,2.32751 4.35195,3.65877c1.9405,1.87731 3.08332,4.67636 4.90187,6.68063c0.3737,0.41187 0.78431,0.7771 1.20018,1.13525c1.33422,-0.11175 2.63679,1.19967 3.93485,1.8007c1.6504,0.76417 4.80778,2.13129 5.58974,4.39321c0.44456,1.28596 0.03549,2.73608 -0.13425,4.07461c-0.10769,0.84923 -0.25564,1.62448 -0.44584,2.33445c0.08992,1.91742 -0.2161,3.87792 -1.60678,4.65717c-0.4548,0.25484 -1.00426,0.4005 -1.57533,0.43269c-0.03363,0.0267 -0.06751,0.05322 -0.10161,0.07957c-0.03384,0.112 -0.06947,0.22297 -0.10691,0.33278c-1.42304,4.17368 -7.15904,4.31465 -10.34654,4.50755c-5.83375,0.35304 -11.97649,-0.84217 -17.18444,-4.08329c-0.22637,0.16343 -0.48707,0.27588 -0.77268,0.32207c-0.40502,0.06549 -0.80452,-0.01128 -1.15924,-0.19739l-1.97895,-0.99517l0.06178,-0.17759l-0.42876,-0.05788c-0.89717,-1.0849 -2.09655,-1.93094 -2.69153,-3.2547c-1.63031,-3.62718 -0.54042,-4.56625 0.55804,-7.60112c1.26136,-3.48492 0.83221,-5.83966 5.75434,-3.4281c0.78569,0.38495 1.61631,0.93985 2.28049,1.64332c1.95872,-0.59256 4.02906,-0.47355 6.1316,-0.18149c-0.09447,-0.56214 -0.17125,-1.08711 -0.23739,-1.51337zM309.59938,110.05528c0.32713,-0.00369 0.66051,-0.01865 0.99665,-0.04157c-0.15097,-0.00429 -0.30182,-0.0032 -0.45249,0.00467c-0.18202,0.00952 -0.36338,0.02202 -0.54415,0.03691z" fill="#6390d6"></path><path d="M239.24698,217.24206c-1.13754,5.63347 -3.44456,11.45161 -4.13376,17.08358c-0.67177,5.48946 -1.22603,12.06794 -4.30031,17.11968c-1.40865,2.31474 -4.42882,7.11702 -9.069,2.3416c-0.29492,-0.30352 -0.36111,-0.64843 -0.29433,-1.01742c-0.21258,-0.30786 -0.33406,-0.66433 -0.33406,-1.04427c0,-0.05076 0.00217,-0.10108 0.00643,-0.15095l0.31647,-4.189l0.00491,0.00025c-0.00104,-0.00733 -0.0021,-0.01466 -0.00313,-0.02199c-0.11229,-0.79463 0.92934,-7.24298 0.96638,-7.47626c1.07107,-6.74613 2.05957,-14.43705 6.75044,-20.12496l1.21407,-1.76208c0,0 1.17215,-1.69696 3.2343,-0.88949l0.97239,-2.81551c0.28597,-0.90563 1.28161,-1.57393 2.46593,-1.57393c1.40749,0 2.54852,0.94393 2.54852,2.10832c0,0.09994 -0.00841,0.19826 -0.02468,0.2945l-0.31358,2.07532l-0.02402,-0.00249z" fill="#baafcc"></path><path d="M272.22972,182.31211c0,0 -1.57578,-1.77275 0.19697,-3.34853c1.77275,-1.57578 3.34853,0.19697 3.34853,0.19697c3.90468,4.40425 8.36629,9.91947 10.30956,15.56426c0.61138,1.77594 0.09191,3.77198 0.4417,5.61736c0.52736,2.78214 1.25362,5.58775 1.75759,8.43694c0.72436,4.09515 3.52377,9.92059 2.41765,14.02963c-0.41262,1.5328 -2.42797,4.14914 -3.39609,5.49669l-1.3199,2.63981c-0.38031,0.80227 -1.19758,1.35709 -2.14444,1.35709c-0.34861,0 -0.67966,-0.0752 -0.9778,-0.21028c-1.23738,2.53925 -2.82241,3.58602 -5.93712,4.59357l-0.22107,-0.07205v0.08989h-1.59382c-0.36824,0 -0.7073,-0.14454 -0.97715,-0.38728c-1.47867,0.59001 -3.06023,0.91161 -4.71505,0.91436h-0.78027l-1.15086,0.21961c-11.23009,2.83147 -18.4291,-14.29525 -19.45959,-25.03051c-0.00818,-0.08518 -0.01593,-0.17044 -0.02328,-0.25576c-0.61532,1.45113 -1.28985,2.84004 -2.03275,4.13312c-2.05506,4.53625 -4.85872,9.58968 -8.22889,13.06752c-0.00335,0.00549 -0.00673,0.01098 -0.0101,0.01647c-0.72252,1.17492 -2.10444,1.86868 -2.76209,3.08111c-1.59089,2.93289 -3.57616,5.40345 -5.62218,8.0819l-0.6131,1.56951c0,0 -0.58726,1.46815 -2.0554,0.88089c-1.46815,-0.58726 -0.88089,-2.0554 -0.88089,-2.0554l0.79244,-1.94437c0.82694,-1.11826 1.70082,-2.22959 2.58366,-3.34163c-1.26771,0.53158 -2.7232,0.60416 -3.92762,1.26861c-3.20467,1.76793 -8.55995,2.73254 -11.65629,0.5394c-0.82944,-0.1314 -1.112,-0.76636 -1.20826,-1.18374c-0.45387,-0.61745 -0.79775,-1.36741 -0.99923,-2.26719c-0.68805,-1.13697 -2.55678,-4.15054 -2.8652,-5.08849c-0.54491,-1.65714 -0.50059,-3.50519 -0.20418,-5.38136c-1.07228,-3.2477 -0.52784,-7.03697 -0.36859,-10.40644c0.33434,-7.07453 2.60278,-14.37784 6.26473,-20.01073c0.76251,-1.17291 1.51697,-3.40234 2.41544,-5.16998c0.03277,-0.06934 0.06788,-0.13701 0.10505,-0.2032c0.5048,-0.95958 1.05573,-1.75892 1.67878,-2.13872c0.07853,-0.04787 0.15801,-0.09298 0.23832,-0.13559c0.00569,-0.0076 0.01135,-0.01522 0.017,-0.02286l-0.0367,-0.05945l0.18393,-0.15206c0.03662,-0.05614 0.07194,-0.11331 0.10574,-0.17164c0.98903,-1.70603 1.51041,-3.95083 2.4728,-5.74138c0,0 0.84472,-1.56437 2.19628,-0.58664c0.10142,0.07337 0.19048,0.15004 0.26844,0.22911c4.14378,-0.78991 8.33515,-0.50952 12.5481,-0.50952h0.00001c8.93565,0 18.70327,-0.55453 27.12002,3.35462c2.96172,2.10713 6.35384,1.8499 9.76808,1.70575c-0.35617,-0.41144 -0.71124,-0.81479 -1.06295,-1.20934zM215.4889,233.99129l0.00329,0.81847c1.70958,1.29301 4.85676,1.04736 6.96693,0.33091c0.64176,-0.21789 1.22252,-0.57577 1.79702,-0.948c-3.39037,-0.36948 -6.69849,-1.74475 -9.40598,-4.02528c0.083,1.24032 0.37778,2.49488 0.63874,3.82389zM211.58078,228.12828c0.00081,0.00228 0.06429,0.11229 0.17151,0.29743c0.01268,-0.13921 0.02806,-0.27868 0.04629,-0.41853c-0.11002,-0.10402 -0.23136,-0.21888 -0.35971,-0.34067c0.04102,0.15646 0.08818,0.31046 0.14191,0.46177z" fill="#111732"></path><path d="M219.18616,192.24425c-0.29843,-0.00965 -0.58228,-0.01268 -0.85374,-0.01357c-0.12457,0.01357 -0.20042,0.01357 -0.20042,0.01357c-0.03537,-0.00511 -0.07097,-0.00972 -0.10678,-0.01388c-0.47123,0.0002 -0.90517,0.00181 -1.31452,-0.02109c-0.96296,0.02909 -1.92499,0.05619 -2.59245,-0.54506c-0.32935,-0.29668 -0.5912,-0.65111 -0.79574,-1.04972c-0.20209,-0.2188 -0.40815,-0.46721 -0.62013,-0.74923c-1.9946,-2.65365 -1.5074,-8.72517 1.67141,-10.48151c0.12652,-0.06991 0.25535,-0.13353 0.3862,-0.19156l-0.05197,-0.07797l0.22074,-0.14716c0.05933,-2.1628 0.40591,-4.57218 0.56508,-6.27835c0.60176,-6.45032 0.52896,-13.42206 -0.50534,-19.87134l0.09789,-0.24502l-0.09818,-0.01198l0.11069,-2.11026c0.01402,-0.42111 0.13904,-0.81339 0.34767,-1.1324c-0.1312,-3.20329 -0.21217,-6.40032 -0.2333,-9.47204c0,0 -0.00552,-1.22636 0.8084,-1.76613c-0.12768,-0.75554 0.16777,-1.42681 0.16777,-1.42681l-0.00001,-0.00003l0.48764,-1.10665c0.51467,-1.21349 0.86165,-2.53735 1.06464,-3.88088c1.87778,-5.41497 5.30125,-8.91893 9.14875,-12.54911c2.82956,-2.66973 5.76399,-5.60008 9.06183,-7.52545c3.405,-1.98792 7.283,-2.32369 11.09013,-2.93933c4.30327,-0.69587 8.2626,-1.2387 12.49562,-1.2186c-0.05932,-0.61409 0.07386,-1.40434 0.94514,-1.91313c1.59945,-0.93402 2.48735,0.94851 2.48735,0.94851l0.50727,1.18172c0.03065,0.12225 0.06083,0.24458 0.09053,0.36698c0.37374,0.32102 0.69448,0.85478 0.68493,1.74077c-0.00349,0.32361 -0.04997,0.59439 -0.12609,0.82091c0.74759,3.8038 1.18687,7.65548 1.91852,11.47547c1.20633,6.29833 2.48527,12.5347 2.0857,18.96515c-0.1279,2.05838 0.15868,6.57824 -0.59653,8.35954c-0.03673,0.08663 -0.07441,0.17256 -0.11301,0.25786l0.0481,0.0213l-0.57143,1.90069c0.00634,0.04007 0.01268,0.08014 0.01904,0.12021l1.15209,1.20459c1.80641,2.8449 4.95681,4.76854 6.57344,7.58437c0.14777,0.25738 0.28696,0.55215 0.41955,0.87362c0.3106,0.39697 0.44337,0.82116 0.44337,0.82116c0.58289,1.86537 1.12386,3.66422 1.6091,5.4637c0.70618,1.77824 2.7122,7.15692 2.03004,8.76981c-0.07312,0.17289 -0.15472,0.33891 -0.24345,0.49918l0.1254,0.06307l-0.42359,1.21762c0.16003,0.14426 0.30757,0.33316 0.42636,0.57998c0.20338,0.33863 0.34063,0.78152 0.2726,1.33866c-0.0158,0.56503 -0.21542,0.95703 -0.46428,1.22735c-0.35235,0.47531 -0.80906,0.60274 -1.19819,0.60241c-2.43438,0.40634 -4.99447,1.11232 -7.45564,1.19246c-2.61029,0.085 -5.2429,-0.83017 -7.85077,-0.59059c-6.47906,0.5952 -12.86403,1.55041 -19.30182,2.59144c-1.03103,0.16673 -2.04313,0.34495 -3.03994,0.54786c-2.66777,0.80462 -5.32322,1.65773 -7.96889,2.5469c-0.08407,0.02825 -0.16783,0.05714 -0.25129,0.08662c-0.4022,0.19256 -0.80351,0.39651 -1.20421,0.61288l-1.2931,0.45249c-2.38638,1.16377 -4.63493,2.58034 -7.15154,3.38932c0,0 -1.08187,0.33942 -1.81318,-0.50933z" fill="#a69cb5"></path><path d="M266.03589,291.81387c-0.79682,-1.53714 0.76002,-6.12729 1.3391,-8.04077c0.00558,-9.09807 -0.10457,-18.63477 -1.78299,-27.37387c0,0 -0.00377,-0.01962 -0.00891,-0.05546c-0.00682,-0.03546 -0.00968,-0.05529 -0.00968,-0.05529l-0.25247,-1.92785c0.03315,-4.49619 -0.52022,-9.30501 -2.22569,-13.34946c-0.32882,-0.53412 -0.36185,-1.05325 -0.28001,-1.48759c0.0468,-0.50429 0.26562,-1.05858 0.88307,-1.46615c0.10025,-0.86821 0.73203,-1.43696 0.73203,-1.43696c0.62598,-0.56189 1.18044,-1.10809 1.684,-1.66115c0.98296,-2.55774 2.28969,-5.11361 4.19349,-6.72934c0.05969,-0.08583 0.10039,-0.13294 0.10039,-0.13294c0.53127,-0.61492 1.06255,-1.22986 1.59382,-1.84478l0.06852,-0.07932c0.32005,-0.52901 0.73122,-0.73542 1.11048,-0.79212c0.37334,-0.10517 0.82362,-0.08265 1.28876,0.28309c0.62786,0.33015 1.24801,0.67295 1.86383,1.02392c0.77977,-0.00042 1.42113,0.00108 1.51016,0.00108c1.6356,0 5.21182,-0.58669 6.60645,0.54835c0.52879,0.43036 1.11261,1.13021 1.58147,1.95974c1.3781,0.5435 1.12248,2.3187 1.12248,2.3187c-1.01818,7.06503 -0.65055,14.24546 -0.6618,21.39468l-0.23822,2.23864c-0.00001,0.00013 -0.00002,0.00018 -0.00002,0.00018c-0.68847,6.37508 -0.86218,13.05521 -0.89166,19.53303c0.11239,0.07291 0.17712,0.12909 0.17712,0.12909l1.39937,1.43125c0.18763,0.38268 0.33781,0.78437 0.45774,1.1999c0.28409,0.14081 0.46478,0.30812 0.46478,0.30812l1.43009,1.39388c1.28076,1.89915 2.25278,4.07169 3.10331,6.27335c0.31333,0.53829 0.33091,1.05903 0.23901,1.49038c-0.04998,0.43838 -0.22886,0.91349 -0.68531,1.28189l-0.29398,0.34027c-0.77816,0.88367 -1.10304,2.28142 -1.93946,3.06427c-0.01503,0.07627 -0.03005,0.15254 -0.04508,0.22882c-0.06384,0.69425 -0.34615,1.12142 -0.66939,1.38425c-0.25716,0.25762 -0.60907,0.45162 -1.08321,0.43888l-0.13355,0.15458c-0.32963,0.38153 -0.785,0.61752 -1.28799,0.61752c-0.32069,0 -0.62202,-0.09592 -0.88374,-0.26433c-0.01755,0.00079 -0.02701,0.00079 -0.02701,0.00079h-1.13844c-5.08431,0 -10.15731,-0.26354 -15.25509,-0.26354c-0.6326,0 -1.04551,-0.2543 -1.31501,-0.58625c-0.11604,-0.1262 -0.22109,-0.27958 -0.30504,-0.46598c-0.63182,-0.18394 -1.22272,-0.42178 -1.53569,-1.02553z" fill="#a69cb5"></path><path d="M195.09593,139.68939l-0.41901,-1.47085c0,-1.52267 0,-3.04535 0,-4.56802c0,-2.32784 0.52097,-3.76997 1.08941,-5.92493c0.85252,-3.2319 -0.3246,-6.66658 1.37382,-9.88476c0.00962,-0.72087 0.03479,-1.41147 0.09677,-1.56113c0.23979,-0.57892 0.6836,-1.03048 1.14141,-1.47619c-0.13258,-1.27456 0.63282,-2.45495 2.42753,-3.62618c0.80898,-0.81588 1.69686,-1.84973 2.64135,-2.79936l0.04694,-0.76566c0,0 0.29851,-2.97404 2.34813,-2.2079v-0.00004c0.34575,0.12924 0.62468,0.32132 0.84951,0.55135c2.50602,-1.16366 5.53699,-1.70199 8.39369,-2.11644c0.34356,-0.07532 0.70579,-0.12801 1.09112,-0.1547c0.0663,-0.00926 0.13244,-0.01848 0.19844,-0.02767v-0.13777h2.4597c0.72775,0 1.3177,0.58995 1.3177,1.3177c0,0.72775 -0.58995,1.3177 -1.3177,1.3177h-1.33513c-1.12516,0.16215 -2.30786,0.32241 -3.49635,0.5204c-0.35661,0.28123 -0.77818,0.7066 -1.16342,1.10252c0.56801,0.1465 0.98764,0.66225 0.98764,1.27603c0,0.6271 -0.43806,1.15188 -1.02485,1.28504l-1.37881,0.3447l-0.00325,-0.01298l-0.02726,0.02022c-1.60362,0.32107 -3.01303,0.86386 -4.24055,1.58794c-0.14057,0.49427 -0.28488,0.98507 -0.43243,1.47282c2.14568,-1.9248 3.6011,-1.57779 4.55405,-0.05731c1.13261,-0.58224 2.27177,-0.67572 3.02121,0.21738c1.46315,1.74362 1.93213,4.73592 2.49876,7.38659c0.26906,0.39747 0.51862,0.80755 0.7421,1.22623c0.17529,-0.55281 0.35875,-1.09958 0.55284,-1.63828l0.12548,-0.11499l-0.04586,-0.05436l1.85988,-3.64149c0.30291,-0.59309 0.77177,-0.98941 1.33478,-1.0484c1.12602,-0.11799 2.20224,1.15803 2.4038,2.85007c0.07947,0.66718 0.0111,1.29943 -0.16993,1.82779l-0.77213,2.33571c0.34471,-0.27022 0.82453,-0.45831 1.49243,-0.45831v0.00001c2.37186,0 2.37186,2.37186 2.37186,2.37186v1.05416c-0.00099,0.60844 -0.01201,1.21225 -0.03681,1.81014c0.58009,-0.05926 1.26395,0.10665 1.90966,0.84461c1.56189,1.78501 -0.22312,3.34688 -0.22312,3.34688c-0.50299,0.4348 -0.98593,0.88928 -1.45378,1.35826l-0.84582,1.52247l-0.0037,-0.00206l-0.00328,0.01453c-1.77632,3.10833 -4.05983,7.77112 -7.59317,9.85115c0.01557,1.05016 -0.1639,2.0138 -2.29362,2.90516c-1.15815,0.48472 -2.66385,0.876 -3.97242,0.74475c-0.50897,0.54515 -1.05116,1.02847 -1.63109,1.43975l-0.87939,1.03369c-0.28186,0.34387 -0.64057,0.56397 -1.04878,0.60674c-0.06145,0.00643 -0.12275,0.00872 -0.18377,0.00702c-0.25696,0.25481 -0.56518,0.41612 -0.90837,0.45209c-0.20204,0.02117 -0.40249,-0.00254 -0.59657,-0.06548l-2.56631,-0.74638l0.00181,-0.02954c-0.05544,-0.00842 -0.11093,-0.0178 -0.16647,-0.02819c-2.97598,-0.55675 -3.49666,-2.07803 -5.42804,-4.94661c-1.086,-1.61298 -2.77162,-3.80736 -3.51696,-6.12979c-0.10758,-0.16931 -0.1537,-0.30766 -0.1537,-0.30766zM221.72353,130.32167c0.0556,-0.39572 0.09771,-0.79576 0.12947,-1.1985l-0.40836,1.11684c0.03086,0.06722 0.05405,0.13533 0.07109,0.20278c0.0685,-0.04206 0.13778,-0.0824 0.2078,-0.12112z" fill="#baafcc"></path><path d="M188.64131,293.101c0.1777,-2.10832 1.9992,-2.10832 1.9992,-2.10832l0.10739,0.03568c-0.02636,-0.48664 -0.024,-0.97472 0.04239,-1.46602c0.28576,-2.11437 1.5175,-3.02051 2.37811,-4.7645c0.96904,-1.96369 1.83531,-3.9947 2.912,-5.88947l0.21614,-0.82713c0.90915,-4.69183 3.02863,-9.06958 3.88654,-13.70018c0.15942,-0.86047 0.0111,-1.75549 0.25411,-2.59865c0.41054,-1.4245 1.35966,-2.66203 1.69212,-4.10517c1.73967,-7.55147 3.47895,-14.60295 4.12697,-22.29152c0,0 0.03553,-0.42152 0.23765,-0.8876l0.48787,-1.89774l0.14998,0.03541c0.05746,-0.30573 0.14182,-0.60677 0.2616,-0.90167c0.42429,-1.04455 1.67703,-1.18806 2.63506,-1.67001c1.4513,-1.56535 2.96639,-2.97091 4.98426,-3.58235c1.56101,-0.473 3.50601,-0.36887 5.45233,0.07801c1.85735,0.01824 3.71232,0.38943 5.54126,1.13844c0.27082,0.00492 0.50979,0.09264 0.70463,0.20271c0.29408,0.12857 0.61304,0.36184 0.80234,0.78509c0.68288,0.89497 1.26013,1.73669 1.74018,2.58334c0.82628,0.85515 1.55724,1.93786 1.40521,3.1333c-0.0095,0.07467 -0.0203,0.14905 -0.03234,0.22313c0.35444,1.36333 0.53164,2.88769 0.55643,4.74375l-0.05291,0.7599c0,0 -0.00668,0.07934 -0.03076,0.20724c-0.01946,0.12844 -0.03946,0.20624 -0.03946,0.20624c-2.01146,7.76767 -5.97533,14.16396 -8.95171,21.42998c-1.90756,4.65679 -2.68042,9.83456 -3.87267,14.63771c-0.29331,1.18164 -0.7014,2.37104 -1.15118,3.5584l0.00389,1.84108c0.38789,1.00654 1.21725,2.0165 0.87459,3.10144c-0.4036,1.27791 -1.9242,1.67071 -2.77954,2.64507c-0.11156,0.1271 -0.22728,0.27218 -0.34581,0.43146c-0.18268,0.73639 -0.34497,1.48281 -0.48129,2.24682c0,0 -0.01968,0.10921 -0.07139,0.27499c-0.11376,0.39641 -0.34835,0.93525 -0.82233,1.27548c-0.27366,0.20751 -0.62561,0.34526 -1.0756,0.32888c-0.09456,0.17384 -0.18242,0.33473 -0.2622,0.47865l-0.63315,1.22844c-0.18662,0.59579 -0.53589,0.94704 -0.88288,1.15412c-0.32812,0.24837 -0.75679,0.42218 -1.26717,0.29743c-4.23435,0 -8.46869,0 -12.70304,0h-1.59382c0,0 -1.12477,0 -1.52037,-1.02303l-1.74297,0.65129l-1.49588,0.10819c0,0 -1.8215,0 -1.6438,-2.10832z" fill="#a69cb5"></path><path d="M212.41204,288.71169l0.16478,0.0886l0.10263,-0.54214c0.53915,-0.51111 4.86007,-4.60858 4.86793,-4.60941c3.71269,-0.39376 4.58513,2.5875 4.53586,5.69143c0.48094,0.25638 1.53057,1.04309 0.93848,2.8312c-0.35111,1.06033 -0.95301,1.48682 -1.49662,1.63966c-0.1569,0.51983 -0.42288,0.87705 -0.71437,1.12253c-0.35049,0.34882 -0.84081,0.60433 -1.5149,0.53931c-2.49373,0 -5.84559,0 -8.31331,0c0,0 -2.04919,0 -1.84928,-2.37186c0.19991,-2.37186 2.2491,-2.37186 2.2491,-2.37186c0.02834,0 0.05667,0 0.08501,0z" fill="#baafcc"></path><path d="M288.08971,286.77604c0,-2.37186 2.04919,-2.37186 2.04919,-2.37186l3.05101,0.47437c0.58416,0.50748 1.11592,1.08584 1.61107,1.7094l0.1176,-0.20418l2.02274,1.56083c0.42355,0.31662 0.73977,0.8091 0.87153,1.38822l0.21266,0.15383c0.59515,0.41502 0.9932,1.17025 0.9932,2.0331c0,1.30994 -0.91746,2.37186 -2.04919,2.37186c-2.80815,0 -8.12087,0 -10.92901,0c0,0 -2.04919,0 -2.04919,-2.37186c0,-2.37186 2.04919,-2.37186 2.04919,-2.37186c0.22769,0 0.45538,0 0.68306,0c0,-1.03369 0.57129,-1.91294 1.36836,-2.23781c-0.00149,-0.04382 -0.00225,-0.0885 -0.00225,-0.13405z" fill="#baafcc"></path><path d="M257.27483,69.7263c0.00267,0.02901 0.00579,0.05753 0.00943,0.08547c0.18377,1.40969 0.0206,2.64869 -0.31806,3.86634l0.11754,0.01959l-0.36648,2.1989c-0.0827,0.55673 -0.56268,0.98386 -1.14242,0.98386c-0.40727,0 -0.76531,-0.21079 -0.97097,-0.52923l-0.72928,-1.09391l0.04438,-0.02959l-0.12092,-0.10365c-0.71596,-2.14789 -3.83134,-6.21501 -1.18092,-8.41673c0.19578,-0.16264 0.45637,-0.27852 0.75766,-0.35981l0.00452,-0.02937c0.93426,-1.01837 4.62769,-2.68207 4.7971,0.18944c0.2195,0.16674 0.40148,0.44322 0.40148,0.9017c0,0.65405 -0.37037,0.93774 -0.69166,1.06078l-0.07618,0.30474c-0.07053,0.31083 -0.26644,0.57404 -0.53173,0.73368c-0.00091,0.07448 -0.00205,0.14702 -0.00349,0.21778z" fill="#6390d6"></path><path d="M309.0106,76.81042c0.27145,0.25317 0.54086,0.51012 0.83014,0.72997l-0.10315,0.64319l0.30168,-0.03352l0.17316,1.55841c0.00805,0.06468 0.01221,0.13059 0.01221,0.19745c0,0.8733 -0.70794,1.58124 -1.58124,1.58124c-0.52391,0 -0.9883,-0.25479 -1.27603,-0.64722l-0.59503,-0.79338c-2.22749,-0.89877 -2.96529,0.18334 -5.9485,2.51746c-0.58669,0.45903 -1.0809,0.78246 -1.51398,1.08525c-0.47055,1.20369 -1.11102,1.7671 -1.82067,1.90861c-0.09136,0.162 -0.18203,0.33849 -0.27278,0.53225l-0.0259,0.02491l0.00954,0.0053l-0.86313,1.55363c-0.26553,0.50024 -0.79177,0.84094 -1.39759,0.84094c-0.76627,0 -1.40524,-0.54506 -1.55034,-1.26863l-0.34463,-1.55084l0.39828,-0.08851c-0.09453,-0.32747 -0.16953,-0.64924 -0.22882,-0.97096c-0.2339,-0.16492 -0.48267,-0.35646 -0.74738,-0.57659c-1.26406,-1.05117 -1.60627,-2.04493 -1.41382,-2.95788c-0.29005,0.34332 -0.72378,0.56135 -1.20842,0.56135c-0.67873,0 -1.25759,-0.42764 -1.48182,-1.02819l-0.37735,-0.94337c-0.21649,-0.25584 -0.42847,-0.55111 -0.63492,-0.88892c-0.12087,-0.19778 -0.13,-0.46056 -0.0985,-0.74118c-0.69205,-0.38742 -1.23164,-0.95092 -1.4694,-1.59577c-1.60969,0.26957 -3.79111,0.55969 -2.6007,-2.74043c1.05236,-2.91741 1.95734,-3.74018 2.69676,-3.57292c0.10371,-1.22818 0.26635,-2.38801 0.27637,-3.07179c0.00765,-0.52207 -0.13493,-1.0869 -0.12211,-1.60953c-0.19365,-0.57371 -0.3386,-1.12753 -0.41534,-1.70022c-0.4098,-1.27024 -0.50821,-2.87648 -0.47125,-4.43212l-0.17394,0.04348l-0.51848,-2.07392c-0.03639,-0.13312 -0.05581,-0.27325 -0.05581,-0.41791c0,-0.8733 0.70794,-1.58124 1.58124,-1.58124c0.65738,0 1.22107,0.40116 1.45961,0.97202l0.68811,1.54826l-0.02242,0.00996l0.04384,0.0406c0.47748,1.31252 0.88004,2.45459 1.20103,3.52257c0.26005,-0.18227 0.54739,-0.34666 0.86425,-0.49085c2.63892,-1.20084 3.70106,0.47498 5.45234,1.63495c0.21502,-0.12729 0.49368,-0.20978 0.85483,-0.20978c1.00284,0 1.36967,0.63602 1.50385,1.10131c1.54978,0.3449 3.66161,0.72733 3.99646,0.95969c0.94355,0.65478 1.31392,1.44866 1.4546,2.31081c0.13387,0.08389 0.24994,0.19507 0.34327,0.33965c0.13516,0.20939 0.23385,0.43221 0.30246,0.66506c1.14867,1.07371 1.95248,3.90516 1.21506,5.12304c-0.25982,0.4291 -0.60616,0.89593 -1.00981,1.26862c0.43993,0.05476 0.84921,0.12167 1.21278,0.19638c0.87212,0.17922 2.07239,-0.00892 2.5694,0.7298c0.34449,0.51203 0.68205,1.13534 0.90197,1.77949z" fill="#baafcc"></path><path d="M249.49873,193.93227c-2.0519,2.27929 -2.31644,3.75108 -5.12898,5.55672c-2.37458,1.52447 -5.22076,2.23388 -8.06061,2.24886c-0.00571,0.0056 -0.01145,0.0112 -0.01723,0.0168c-2.18674,2.12132 -4.37348,0 -4.37348,0l-0.36861,-0.64511c-0.84304,-0.2321 -1.65846,-0.52622 -2.43133,-0.87861c-0.86518,-0.19566 -1.39774,-0.72928 -1.72207,-1.2589c-0.35635,-0.46434 -0.64534,-1.09467 -0.55726,-1.87432l-0.2696,-2.09228c-1.06852,-8.43055 -0.36996,-17.21027 -0.36749,-25.70544c0.00208,-7.18521 -0.44865,-14.3612 -0.62117,-21.55674c-0.05375,-0.09429 -0.10762,-0.18852 -0.16084,-0.28292c-0.85078,-0.6086 -1.69717,-1.19904 -2.5383,-1.81339v-0.00006c-0.2251,-0.08677 -0.45021,-0.16946 -0.67522,-0.24746c-2.26691,-0.78587 -4.73631,-1.04537 -6.7851,-2.42143c-5.69297,-3.82367 -8.74272,-12.10297 -11.39872,-18.33471c0,0 -0.71963,-1.69001 0.76525,-2.41464c0.07913,-0.03861 0.15608,-0.07037 0.23086,-0.09589c-0.42451,-1.37799 -0.71471,-2.78495 -0.91548,-4.09073l0.25999,-0.40547l-0.18933,-0.07004l0.56862,-2.18352c0.01843,-0.07688 0.0408,-0.15204 0.06695,-0.22517c-0.10054,-2.73224 1.29994,-5.26417 2.55292,-7.39726c3.54414,-6.03364 10.80086,-8.6929 16.43191,-11.6928c9.27588,-5.66765 19.93831,-8.2462 30.65325,-8.96029c0.21098,-0.01405 0.42135,-0.02327 0.63119,-0.02823c0.45477,-0.64109 1.22291,-0.76159 1.22291,-0.76159l0.4634,-0.07269c2.45237,-0.38471 4.61902,-0.70803 7.15416,-0.55164c0.92121,0.05682 1.97351,-0.24885 2.75868,0.328c0.151,0.11094 0.29377,0.23231 0.42981,0.36223l0.04773,-0.07513l0.10986,0.08938c0.80666,-0.10964 1.73396,-0.08697 2.70863,0.01527c1.93702,-0.09727 3.8668,-0.23449 5.88697,-0.19705c2.92507,0.05419 5.91193,0.79905 8.83442,0.73586c3.77242,-0.08158 5.7183,-0.69244 9.58861,0.85837c1.10239,0.44172 2.44413,0.49189 3.27679,1.42639c0.11583,0.13001 0.22314,0.2667 0.32325,0.40906l0.04591,-0.04464l0.56112,0.70801l0.94932,-0.32549c0,0 1.14605,-0.37359 1.91331,0.51578c1.09076,0.01473 2.00588,0.09831 2.18757,0.33905c0.85008,1.12634 0.61435,2.94037 0.2926,4.31634c-0.61741,2.64047 -1.90927,1.4292 -3.16838,2.63293c-2.49541,2.38564 -3.40336,6.34742 -5.64114,9.0662l0.27133,1.04557c0.02714,0.08757 0.04758,0.16981 0.06296,0.24259l0.01994,0.07684c0,0 0.00699,0.04189 0.01317,0.11387c0.00966,0.07167 0.01196,0.11398 0.01196,0.11398c0.35694,6.55912 -0.16766,13.18031 0.91042,19.64766c0.11564,0.69376 0.44814,2.68832 0.56378,3.38208l-0.14685,0.54287c1.0593,6.23132 3.02527,13.37252 1.96736,19.59381c-0.40465,2.37958 -1.87084,4.89056 -2.95178,6.89267c-0.67366,1.24776 -1.56132,3.23016 -2.69706,4.08048c-1.64529,1.23181 -3.80009,1.35746 -5.74883,1.63092c-0.06637,0.67417 -0.11451,1.34328 -0.12136,1.99979c-0.04585,4.38018 1.11456,8.48042 0.32524,12.62082c-0.35522,1.8633 -0.41333,4.12608 -1.67753,5.37104c-4.61093,4.5408 -11.10614,0.3637 -16.36498,1.19938c-2.14911,-0.4303 -4.92588,-0.95412 -7.23014,-2.12265l-1.46941,0.89087c-2.81542,2.28996 -5.09964,5.24956 -8.43397,6.82159c-0.95543,0.94325 -1.90649,1.90844 -2.82991,2.9342zM236.63554,192.51201c0.00135,0.1222 0.0445,0.10378 0.11536,0.01472c-0.03884,-0.01446 -0.0772,-0.02986 -0.11506,-0.04616c-0.00032,0.01043 -0.00041,0.02091 -0.0003,0.03145z" fill="#731d67"></path></g><g fill-opacity="0.37255" fill="#2e1340" stroke-width="0.5"><path d="M277.24072,287.29615c0.69199,-0.16984 1.47692,-0.25857 2.86582,-0.32519c0.61263,-0.02938 1.25161,0.37225 1.8318,0.17339c1.42435,-0.48819 2.1833,-2.11194 3.46674,-2.89757l1.42343,-1.9928c0.54188,-0.77896 1.44362,-1.28882 2.46444,-1.28882c1.65685,0 3,1.34315 3,3c0,0.56059 -0.15376,1.08527 -0.42141,1.53416l-1.24539,2.17943c-1.06168,2.41542 -1.54539,4.20648 -4.08934,5.83837c-2.98865,1.91715 -6.58142,1.62044 -9.68378,0.33303c-0.33582,0.08382 -0.66996,0.18614 -1.00148,0.31269l-2.83099,0.71275c0,0 -1.11279,0.2782 -2.13422,-0.19753c-1.41077,-0.03459 -2.91357,-0.91751 -4.52145,-2.87378c-0.83545,-1.01647 -0.33713,-2.58493 -0.38885,-3.92575c-0.01642,-0.15352 -0.01642,-0.2467 -0.01642,-0.2467v-2.66667c0,-2.52085 0.00782,-5.0406 0.02106,-7.55958c-2.04764,0.88619 -4.1043,1.82767 -6.50244,0.66455c-3.33555,-1.61777 -4.22926,-3.93498 -5.30397,-6.44587c-0.0709,0.00501 -0.14248,0.00756 -0.21465,0.00756c-1.28773,0 -2.38595,-0.81134 -2.81138,-1.95071l-1.16701,-2.91752c-1.95372,-2.19556 -4.23896,-4.30091 -6.03601,-6.59745c-1.77785,-2.272 -2.72744,-5.06173 -4.60799,-7.26186c-0.83232,-0.97376 -1.87355,-1.98162 -2.81316,-3.07577c-0.28347,0.08879 -0.58503,0.13664 -0.89778,0.13664c-1.2413,0 -2.30652,-0.75389 -2.76277,-1.82878c-0.58964,1.67964 -1.33111,3.27738 -2.22741,4.18392c-0.03682,0.03724 -0.07393,0.07412 -0.11133,0.11066l0.03957,0.02261l-1.30444,2.28277c-0.50929,0.93086 -1.49774,1.56215 -2.63362,1.56215c-1.65685,0 -3,-1.34315 -3,-3c0,-0.39521 0.07642,-0.77257 0.21529,-1.11811l0.97572,-2.60193c1.53362,-3.97666 1.741,-8.4107 4.20669,-12.10595c1.05726,-1.58448 1.97375,-3.69727 3.78758,-4.27898c0.19069,-0.06115 0.37714,-0.11531 0.55943,-0.16272c0.18889,-0.27274 0.44594,-0.54197 0.78862,-0.79898c2.4,-1.8 4.2,0.6 4.2,0.6c1.07704,1.45291 2.29951,2.80855 3.23111,4.35873c1.37269,2.28414 2.00128,5.15182 3.75301,7.28695c3.38493,4.12579 7.1325,8.06526 10.3578,12.36582c2.55234,3.40325 4.19799,7.94298 7.07999,11.03498c0.92786,0.99547 2.13193,1.68105 3.24849,2.46955c0.07355,-8.70123 0.18515,-17.39676 0.23599,-26.09979c-0.19644,0.0327 -0.40923,0.05041 -0.63973,0.05041c-3,0 -3,-3 -3,-3l0.07144,-2.65079c1.07182,-4.61371 3.58155,-7.87068 5.86021,-11.93758c0.23848,-0.59403 0.69159,-1.24073 1.55249,-1.55379c0.51701,-0.24895 1.1673,-0.36304 1.94115,-0.11876c0.79509,0.16228 1.30814,0.57782 1.63919,1.04652c0.60137,0.69272 0.68277,1.47932 0.60219,2.11488v0.76619c-0.01102,4.71562 0.33496,9.42854 0.32874,14.16743c1.30355,11.56236 -0.36927,23.2913 0.9839,34.81419c0.29227,2.48884 1.41523,6.04711 1.38119,9.141c0.08066,0.0695 0.16542,0.13909 0.25393,0.20837z"></path><path d="M191.36977,289.62392l0.41375,0.09548c0.10838,-1.0755 0.32334,-2.12877 0.70043,-3.14094l0.14982,-0.39952c-0.00497,-0.07061 -0.0075,-0.1419 -0.0075,-0.21378c0,-0.47173 0.10888,-0.91802 0.30287,-1.31513l1.20164,-2.60355c0.35994,-3.11309 1.0662,-6.15991 1.96557,-9.16424c2.66825,-5.79746 2.82574,-12.29853 5.75768,-18.13653c0,0 0.26828,-0.53657 -0.02633,-0.98632c0.82816,-2.77139 1.6755,-5.53988 2.68879,-8.26396l0.07011,-0.06642l-0.03511,-0.0156l1.30552,-2.93742c0.03216,-0.07697 0.06744,-0.15232 0.10568,-0.22588l0.41981,-1.67923c0.07051,-0.2811 0.16536,-0.66956 0.27737,-1.12197c-0.36694,-0.74455 -0.36694,-1.48376 -0.36694,-1.48376l0.08957,-1.39427c0.96993,-3.85249 1.52729,-7.68439 6.10419,-8.88599l2.27208,-1.29833c0.44889,-0.26765 0.97357,-0.42141 1.53416,-0.42141c0.32826,0 0.64421,0.05272 0.93984,0.15016c0.6337,-0.64845 1.73527,-1.2853 3.33755,-0.53129c2.71446,1.27739 1.43706,3.99185 1.43706,3.99185c-2.43688,5.15793 -3.60616,10.2018 -5.59878,15.51113c-3.50655,9.34319 -7.8959,17.85207 -9.20278,27.92914l-0.26426,0.27558l0.16035,0.06013l-0.97541,2.60109c-0.27761,0.79644 -0.88152,1.43994 -1.6516,1.77038c-0.00341,0.07282 -0.00742,0.14566 -0.01208,0.2185c-0.13037,2.03889 -1.57865,3.77021 -2.44837,5.6189c-0.44937,0.9552 -0.88619,1.90816 -1.31345,2.86209c1.99936,0.18154 4.02809,0.31465 5.95224,0.8724c0.65874,-0.34638 1.30672,-0.69657 1.93421,-1.0779c0.45024,-0.38412 0.90375,-0.7344 1.32772,-1.04968c0.50162,-0.37302 1.01379,-0.96887 1.5756,-1.22357c0.1851,-0.19421 0.36579,-0.39763 0.54166,-0.6114l0.57597,-0.06541l-0.13724,-0.24017l2.28759,-1.30719c0.44889,-0.26765 0.97357,-0.42141 1.53416,-0.42141c1.65685,0 3,1.34315 3,3c0,0.91826 -0.41256,1.74016 -1.06243,2.29046l-2.31853,1.98731l-0.05644,-0.06585c-0.05481,0.08078 -0.11072,0.1609 -0.16779,0.24032c-0.0259,0.03605 -0.94216,0.62789 -1.92704,1.20144c-0.0056,0.00433 -0.01121,0.00866 -0.01681,0.01298h0.88238c1.65685,0 3,1.34315 3,3c0,0.36316 -0.06453,0.71126 -0.18275,1.03344c-2.19676,0.08742 -4.32344,0.29564 -6.6061,0.30739c-2.61653,0.65413 -5.51863,0.32584 -8.21115,0.32584c-4.12236,0 -8.23076,0.03916 -12.23468,-0.76915z"></path><path d="M286.53535,250.26834c-2.96985,-0.42426 -2.54558,-3.39411 -2.54558,-3.39411l0.32153,-2.24036c0.69473,-6.21999 0.98165,-12.05142 0.98165,-18.33537c0,0 0,-3 3,-3c3,0 3,3 3,3c0,6.49529 -0.3073,12.56238 -1.01835,18.99796l-0.34514,2.4263c0,0 -0.42426,2.96985 -3.39411,2.54558z"></path><path d="M236.84832,179.46463l-0.02013,0.14154c0.01236,0.37017 0.02481,0.74037 0.03733,1.1106c0.09468,2.79997 0.59112,5.5728 0.97412,8.34806c0.20851,1.51089 0.21179,3.04305 0.31774,4.56457c0.03482,0.50001 -0.12481,1.0716 -0.04712,1.55584l1.42314,0.35579c0.23481,0.05329 0.45917,0.13412 0.66948,0.23892c0.02785,-0.06469 0.05791,-0.1282 0.09009,-0.19044v-0.62427c0,-5.10323 0.44074,-10.44491 -0.2946,-15.51945c-0.56396,-3.89192 -1.54015,-7.68805 -1.70168,-11.66444c-0.02177,-0.53598 -0.04029,-1.07251 -0.05592,-1.6095c-0.47545,4.41586 -0.90213,8.82129 -1.39244,13.2928zM283.4614,106.85526c-1.14425,0.41949 -2.54181,0.80088 -3.97588,1.21629c-1.17695,1.54197 -2.74017,2.62292 -4.94519,1.76677c-0.00141,0.0007 -0.00282,0.0014 -0.00423,0.0021c-0.74464,1.35736 -1.64284,2.63731 -2.62857,3.82508l-0.40031,0.09794l0.10316,0.14443l-1.96488,1.40348c-0.02404,0.0421 -0.04813,0.08429 -0.07228,0.12657c-1.76498,3.14128 -2.08142,4.25366 -5.01117,6.81916c-5.69218,4.9845 -13.21331,4.41961 -20.22291,4.37709c-3.35533,0.5388 -6.52241,0.76093 -10.10903,0.66372c-1.44891,-0.03927 -3.19261,-0.05793 -4.94899,-0.22616c1.2815,1.85651 2.55673,3.71669 4.07282,5.3802c1.5161,1.66352 3.9831,2.13356 5.78521,3.48199c0.43734,0.32724 2.66332,2.87193 3.57838,3.23681c1.60569,0.64027 3.58827,0.55666 5.59534,0.49783c2.46868,-0.77426 5.56872,0.14399 7.74532,1.87139c0.20773,-0.08046 0.43951,-0.146 0.69807,-0.19301c2.95161,-0.53666 3.48827,2.41495 3.48827,2.41495c0.84239,4.64469 2.37651,7.39434 4.15907,11.73581c1.02344,2.49261 1.77161,6.03328 3.53338,8.22092c2.48152,3.08137 5.16628,6.20171 7.69607,9.36941c1.803,2.25765 6.3234,7.02526 4.38541,10.46409c-0.3865,0.68582 -0.82404,1.23572 -1.30315,1.66868c-0.89028,1.42821 -2.97028,2.09244 -5.06646,3.33083c-1.42789,-0.02227 -2.94367,0.42694 -4.28366,-0.0668c-2.99805,-1.10467 -5.20204,-3.56747 -7.38377,-5.91736l0.22603,1.01713c0.05586,0.22882 0.08548,0.46793 0.08548,0.71396c0,1.65685 -1.34315,3 -3,3c-0.56059,0 -1.08527,-0.15376 -1.53416,-0.42141l-0.03527,-0.02016l-0.16867,0.75902l-0.65748,-0.14611c-0.13439,0.99554 -0.49879,1.83607 -1.34807,2.3498c-0.54384,0.32896 -1.08,0.46047 -1.60254,0.43644c-0.51492,0.63896 -1.05542,1.24427 -1.53248,1.8304l-0.28352,0.08403l0.08276,0.09931l-1.98487,1.65406c-0.2689,0.22732 -0.57834,0.40817 -0.91593,0.53018c-0.29515,0.54827 -0.55749,1.12208 -1.06402,1.45022c-0.07095,0.04596 -0.14224,0.09131 -0.21386,0.13607l0.04612,0.04612l-0.75841,0.75841l-1.45806,2.33289c-0.52494,0.8713 -1.48018,1.45405 -2.57152,1.45405c-0.69597,0 -1.33658,-0.23699 -1.84555,-0.63468c-0.46937,0.78973 -1.29092,1.34565 -2.24813,1.45123l-2.62718,0.3284l-0.01042,-0.08337l-0.17527,0.10074c-2.7773,0 -8.22273,1.2923 -10.50935,-0.74888c-1.20287,-1.07376 -1.30621,-2.97112 -1.65459,-4.54544c-0.24057,-1.08714 -0.30657,-2.44036 -0.29411,-3.85886c-3.42422,2.62688 -8.5633,2.06513 -10.22655,-3.00683c-0.05109,-0.15579 -0.03567,-0.47748 0.02286,-0.90143c-0.04271,-0.28655 -0.07469,-0.58804 -0.09525,-0.90486c-0.04311,-0.6642 0.24162,-1.24244 0.6439,-1.79421c0.31141,-1.33313 0.64247,-2.64254 0.72038,-3.18613c0.63093,-4.40219 0.70225,-8.50514 1.63393,-12.87776l0.01076,-2.60732c0.08215,-0.45184 0.15671,-0.90505 0.22413,-1.35943c-1.56959,-0.7566 -1.56959,-2.70449 -1.56959,-2.70449c0,-3.88889 0,-9.11111 0,-13c0,-0.34257 0.01928,-0.68639 0.04596,-1.03061c-0.89165,-0.2391 -1.50062,-0.84807 -1.50062,-0.84807l-0.66667,-0.66667c-1.98797,-2.05467 -3.90613,-2.78766 -6.48067,-3.92138c-0.28559,0.18978 -0.63546,0.33664 -1.06409,0.41162c-0.16741,0.4312 -0.34948,0.85543 -0.55219,1.26917c1.1047,0.44255 1.88494,1.52313 1.88494,2.78594c0,0.75162 -0.27641,1.43868 -0.73312,1.96507l-1.97901,2.30885c-1.56358,1.87446 -4.19405,3.90903 -5.16006,6.15069c-0.41711,0.96792 0.15439,3.33025 0.19973,4.05564c0.30446,4.87143 -0.0811,9.72487 0.32877,14.60394c0,0 0.0068,0.08163 0.00467,0.21903l0.00569,0.0301c0,0 0,0.17409 -0.04194,0.43839c-0.0048,0.03481 -0.01018,0.0705 -0.01623,0.10695c1.47899,0.6344 1.70167,2.41589 1.70167,2.41589c0.03961,0.31691 0.07923,0.63382 0.11884,0.95072l0.00002,-0.00005c0.75766,0.51981 1.68637,1.56209 1.08371,3.37006c-0.94868,2.84605 -3.79473,1.89737 -3.79473,1.89737l-1.45242,-1.34648c-0.51865,0.89694 -1.4883,1.50043 -2.5989,1.50043c-0.18299,0 -0.36215,-0.01638 -0.5361,-0.04776c1.77124,1.80371 4.11629,3.2015 6.09211,4.77945c0.43597,0.1419 0.88589,0.42131 1.32123,0.90601c0.23926,0.24119 0.47746,0.54906 0.64027,0.92361c0.35394,-0.14689 0.74208,-0.22797 1.14916,-0.22797c1.6425,0 2.97671,1.31998 2.9997,2.95702c0.21321,0.41222 0.33363,0.88021 0.33363,1.37632c0,0.32453 -0.05153,0.63702 -0.14686,0.92975c0.12758,0.78677 0.23873,1.58496 0.47819,2.29405l-0.26636,0.45099l0.2452,0.03065l-0.01034,0.08276c0.24937,-0.07872 0.53003,-0.12611 0.84576,-0.13116c0.65852,-1.07341 1.28973,-2.0106 1.64376,-2.58036l-0.45601,0.59c0,0 0,-3 3,-3c3,0 3,3 3,3l-0.45601,2.59c-1.42335,2.26203 -1.97739,5.23168 -3.36461,7.35869l-1.31146,3.93437c-0.37701,1.22587 -1.51841,2.11694 -2.86793,2.11694c-1.65685,0 -3,-1.34315 -3,-3c0,-0.12687 0.00787,-0.25189 0.02316,-0.37462l0.32852,-2.95668l0.01469,0.00163l-0.01089,-0.03425c0.11021,-0.8268 0.22042,-1.65361 0.33063,-2.48041c-0.31826,0.11498 -0.66154,0.17766 -1.01945,0.17766c-0.22885,0 -0.45172,-0.02563 -0.66589,-0.07416c-0.14308,0.43603 -0.31053,0.89831 -0.50144,1.39542c-0.48886,1.27299 -0.68832,2.98031 -1.88756,3.62938c-1.87698,1.01589 -4.63328,2.098 -6.34897,0.82854c-0.15812,-0.11699 -0.30521,-0.23799 -0.44179,-0.36271c-0.12058,0.12356 -0.24269,0.24736 -0.36637,0.37152l0.45577,-0.06038c0,0 -0.72761,2.91043 -3.63803,2.18282c-2.91043,-0.72761 -2.18282,-3.63803 -2.18282,-3.63803l1.12244,-2.72705c1.48386,-1.47736 2.736,-2.57433 3.87074,-4.40295c0.64011,-1.03152 1.00863,-2.86225 1.68007,-4.09926c-0.47041,-0.75373 -0.75014,-1.81097 -0.75232,-3.29399c-0.0008,-0.54024 0.21293,-1.00273 0.54187,-1.42346c-3.20255,-2.26473 -7.07281,-4.81267 -7.47213,-8.63643c-0.22595,-2.16366 -0.69561,-4.896 0.79843,-6.47725c0.24624,-0.26062 0.48273,-0.50468 0.70982,-0.73295l-0.69106,-1.65855l0.03633,-0.01514c-0.81355,-1.34895 -1.31781,-2.86877 -1.24462,-4.77216c0.07504,-1.95143 -0.27526,-4.89608 1.52322,-5.65714c0.16392,-0.06937 0.33069,-0.12234 0.4997,-0.16037c0.08894,-4.57055 0.75595,-9.08664 2.55122,-13.11134c0.47057,-1.05495 0.58724,-2.29766 1.28462,-3.21854l1.30738,-3.26845c0.35286,-0.94503 1.16859,-1.66439 2.17138,-1.88229c-0.01759,-0.13141 -0.02667,-0.26552 -0.02667,-0.40175v-2.66667c-0.47485,-1.94281 0,-4 0,-6c0,-6.63449 0.97947,-12.56905 2.41359,-19.02259l0.02484,-0.03447l-0.01552,-0.00388l0.65145,-2.60579c0.276,-1.21622 1.29093,-2.15177 2.54783,-2.30971c0.02524,-0.69652 0.04448,-1.37453 0.04448,-2.02356c0,0 0,-3 3,-3c0.45347,0 0.83839,0.06854 1.16513,0.18491c1.46436,-1.76705 2.99603,-3.31516 5.01854,-4.90591c3.69768,-2.9083 8.96717,-5.37188 13.35415,-6.83827c0.80425,-0.26883 1.64017,-0.43125 2.48136,-0.57421l0.34713,-0.63641l0.08677,0.04733c0.076,-0.18172 0.15839,-0.3612 0.24795,-0.53815c0.76675,-1.51477 2.55571,-2.24595 3.94595,-3.22047c4.43392,-3.10805 11.81081,-3.50659 17.01969,-3.51883h0.33333c0,0 1.92537,0 2.69121,1.54245c0.96098,0.02667 1.90802,-0.00952 2.82824,-0.17038c1.00469,-0.17562 3.679,-1.38648 4.63212,-1.79617l2.51509,-0.24256c0,0 3,0 3,3c0,3 -3,3 -3,3l-0.15158,-0.24256c-1.78477,0.76285 -4.17741,1.87398 -6.03454,2.20383c-3.44209,0.61136 -7.54632,-0.77009 -10.98759,-0.21228c-0.30121,0.31232 -0.66955,0.55948 -1.08178,0.71824l-3.51608,1.4478c-0.74609,0.3906 -1.50876,0.80353 -2.27707,1.21072c0.03195,0.17546 0.04864,0.35625 0.04864,0.54093c0,0.39521 -0.07642,0.77257 -0.21529,1.11811l-0.97572,2.60193l-0.26518,-0.09944l-0.11665,0.23329l0.01897,0.54957c-0.18583,0.15904 -0.36262,0.3266 -0.53186,0.50127c-0.19887,0.68585 -2.34393,3.52494 -3.76475,5.47939c-0.94361,3.23461 0.63945,5.54276 2.98056,7.38249l2.32407,0.46481c4.34637,-0.18745 8.6486,-0.6552 12.7271,-1.7842c3.8217,-1.05791 7.09777,-1.4857 10.34549,-3.84226c1.83459,-1.33119 3.17286,-3.24035 4.51429,-5.14383c-0.0458,-0.0883 -0.0898,-0.18134 -0.13181,-0.27936c-1.18176,-2.75744 1.57568,-3.93919 1.57568,-3.93919c2.26345,-0.92267 3.75471,-2.97505 5.64162,-4.36606c1.51716,-2.04414 3.37785,-3.9331 5.43976,-3.68896c2.45096,0.29021 5.75032,1.02935 6.6059,3.34439c0.5591,1.51282 -1.1324,2.77855 -2.49019,4.04407l2.49417,-0.8803c0.33076,-0.12553 0.68948,-0.19425 1.06425,-0.19425c1.65685,0 3,1.34315 3,3c0,1.13589 -0.63128,2.12433 -1.56215,2.63362l-2.28277,1.30444l-0.06347,-0.11108zM213.75852,115.14764c0.06453,-0.18083 0.13324,-0.35983 0.20749,-0.5364c-0.06308,0.04491 -0.12586,0.09 -0.1883,0.13528c-0.06447,0.10917 -0.12776,0.21974 -0.18983,0.33178c-0.19942,0.35994 -0.37571,0.72487 -0.53378,1.09328c0.12231,-0.17245 0.24461,-0.34557 0.3668,-0.51951c0.11594,-0.16503 0.22811,-0.33351 0.33763,-0.50442zM209.83621,135.42189c-0.44899,-0.47039 -0.78974,-0.88471 -1.06248,-1.27597l-0.0924,1.01644c0.33379,0.12204 0.68046,0.24793 1.03638,0.37803z"></path><path d="M274.7995,75.98751c0.95918,2.57212 -1.62147,3.71908 -1.62147,3.71908l-2.92257,1.29808l-2.56689,1.28345c-0.41689,0.21949 -0.89175,0.34371 -1.39562,0.34371c-1.65685,0 -3,-1.34315 -3,-3c0,-0.39521 0.07642,-0.77257 0.21529,-1.11811l0.97572,-2.60193l0.41399,0.15525l0.11057,-1.04646c1.92725,-1.22404 3.9011,-2.38356 5.94278,-3.40537c0,0 2.68328,-1.34164 4.02492,1.34164c0.67482,1.34964 0.33137,2.35986 -0.17673,3.03066z"></path><path d="M250.57618,69.69269c0.39617,-0.33593 0.76467,-0.71883 1.13111,-1.10523c0.22816,-1.27798 0.9327,-3.06053 1.27374,-3.91315c0.08981,-0.75322 0.55623,-2.70916 2.97858,-2.70916c3,0 3,3 3,3l-0.19101,1.3867c-0.0384,0.0999 -0.07319,0.20119 -0.10488,0.30365c0.35117,0.05206 2.91962,0.52896 2.61088,3.30761c-0.33129,2.98165 -3.31295,2.65036 -3.31295,2.65036c-0.26245,-0.06427 -0.53498,-0.18386 -0.8067,-0.28452l-1.09276,2.4587c-0.45258,1.08308 -1.52203,1.84417 -2.76925,1.84417c-1.65685,0 -3,-1.34315 -3,-3v-2.66667h0.67087z"></path><path d="M288.84161,108.08337l-0.97276,-2.26978l0.18171,-0.07788c-0.82204,-1.20962 -0.7681,-2.48344 0.54986,-5.42686c1.37651,-3.0742 2.61952,-2.83885 4.98146,-4.47455c0.58724,-0.40668 0.9774,-1.1325 1.60932,-1.43491c-1.90833,-1.0825 -2.51559,-2.24624 0.66349,-4.97583c-0.01779,-0.00804 -0.03564,-0.01619 -0.05353,-0.02444c-0.68097,-0.314 -1.03445,-0.897 -1.22741,-1.61839c-0.0202,-0.00946 -0.04037,-0.01935 -0.06049,-0.02969c-1.83286,-0.9417 -2.08059,-3.5775 -2.82237,-5.49999c-0.1675,-0.43412 0.09492,-0.94817 0.09092,-1.41034c-1.35443,-0.22124 -2.99383,0.06581 -3.98143,-0.82854c-0.50518,-0.45748 -0.93963,-0.99024 -1.31575,-1.56823c-1.42681,-1.16324 -2.81379,-2.50607 -3.18146,-4.23135c-0.26786,-1.25692 0.81921,-2.33433 1.64853,-3.44589c-0.01199,-3.01433 0.11957,-6.01555 -0.22099,-9.01691l-0.86186,-1.93621c0,0 -1.18176,-2.75744 1.57568,-3.93919c2.75744,-1.18176 3.93919,1.57568 3.93919,1.57568l1.13814,2.73045c0.4796,3.62492 0.51082,7.22568 0.44832,10.87634c0.06794,0.41411 0.02664,0.81075 -0.0584,1.15522c-0.05027,0.52381 -0.1109,1.24559 -0.02542,1.87154c0.78533,0.10392 1.60396,0.10867 2.29506,0.47495c0.78354,0.41527 1.58665,0.87019 2.29454,1.4228c0.85582,0.19813 1.45918,0.72607 1.45918,0.72607c0.72535,0.63783 1.88461,1.57814 3.06367,2.6053c0.09678,-0.00942 0.1949,-0.01424 0.29415,-0.01424c1.53613,0 2.80261,1.15455 2.97901,2.64323l0.32015,0.09629c0.18147,0.30687 3.377,5.71648 3.45201,5.81783c0.7105,0.95998 1.93746,1.58972 2.50565,2.608c0.11106,0.07374 0.22037,0.14992 0.32782,0.22862c2.03835,0.10394 3.87784,0.29697 4.12416,0.47359c2.26659,1.62526 2.77756,4.71125 1.88849,7.20519c1.04089,0.19739 1.95849,0.5535 2.33836,1.43459c2.3731,5.50421 -2.75944,6.90247 -5.90242,7.47018c-3.43084,0.61971 -7.58586,-2.06328 -10.05518,0.0868c0.0377,0.46021 0.01662,1.19401 -0.35844,1.857c-0.12882,0.87116 -0.63169,1.92403 -2.22532,2.32243c-1.71406,0.42852 -2.67102,-0.40482 -3.16812,-1.16232l-1.24015,1.48818c-0.5502,0.6698 -1.38487,1.09705 -2.31933,1.09705c-1.65685,0 -3,-1.34315 -3,-3c0,-0.16339 0.01306,-0.32373 0.0382,-0.48003c-0.5166,-0.33453 -0.92382,-0.8236 -1.1562,-1.40176z"></path><path d="M286.86667,173.13333c-3,0 -3,-3 -3,-3v-2.66667c0,-0.9367 -0.03291,-1.85652 -0.09265,-2.76373c-0.27731,-0.48642 -0.5178,-1.0055 -0.69815,-1.57739c-0.64247,-2.03729 -0.70454,-4.31774 -0.45279,-6.63729c-0.55814,-2.89386 -1.20446,-5.79529 -1.7156,-8.86172c0,0 -0.37326,-2.23958 1.478,-3.14679c-1.54646,-4.08179 -3.76495,-7.67003 -4.68229,-12.17099l-0.63768,-2.55072c-0.06903,-0.25256 -0.10589,-0.51841 -0.10589,-0.79287c0,-1.19426 0.69784,-2.22553 1.70799,-2.7083c0.00328,-0.07079 0.00599,-0.14236 0.00823,-0.21461l-0.38288,-2.41042c0,0 0,-1.29987 0.85564,-2.18834h-0.00002c0.21169,-0.44785 0.5207,-0.81943 0.97192,-1.07306c4.29609,-2.41487 6.57131,2.2328 7.84468,5.6334c0.52506,0.68843 0.63311,1.52049 0.65534,1.8338c0.05011,0.14086 0.0978,0.27289 0.14326,0.39472c1.26868,3.40017 1.58639,6.94855 2.57036,10.38722c0.98956,3.45821 3.39232,8.34421 2.94961,12.11093c-0.00924,0.07863 -0.02008,0.15685 -0.03244,0.23466h0.04163v1.29093c0.49874,-0.96479 1.50569,-1.62427 2.66667,-1.62427c1.65685,0 3,1.34315 3,3v5.66667h-0.12557c0.0251,0.20046 0.04666,0.40151 0.0643,0.6032c0.02466,0.28193 -2.50539,5.90009 -2.55901,6.01049c-0.72059,1.48366 -1.61469,3.07487 -2.66055,4.32284l-1.67349,3.34698c-0.48103,1.01474 -1.51474,1.71649 -2.71235,1.71649c-1.37969,0 -2.54185,-0.93137 -2.89206,-2.19967c-0.16656,0.0225 -0.34438,0.03451 -0.53421,0.03451z"></path></g><g fill-opacity="0.37255" fill="#2e1340" stroke-width="0.5"><path d="M216.71509,281.3759c2.75744,1.18176 1.57568,3.93919 1.57568,3.93919l-1.33961,2.92756c-1.14613,1.01363 -2.33193,2.01108 -3.58952,2.89347c-0.21154,0.59663 -0.60652,1.10645 -1.11713,1.46165l-2.3008,1.64343l-0.17348,-0.24288c-0.14651,0.19348 -0.29302,0.38696 -0.43953,0.58043l-0.71919,-0.10389l0.04465,0.29024l-4.27997,0.65846c-0.16561,0.02833 -0.33584,0.04309 -0.50953,0.04309c-1.43624,0 -2.63674,-1.00927 -2.93099,-2.35726c-2.01125,-0.03211 -4.02011,-0.10483 -6.03982,-0.26763c-0.44652,0.0396 -0.96003,-0.03395 -1.54428,-0.28434c-0.05618,-0.02408 -0.11072,-0.04881 -0.16367,-0.07415c-0.45694,-0.20645 -0.95972,-0.54859 -1.29082,-1.11155c-0.33779,-0.55896 -0.3997,-1.16395 -0.36403,-1.6641c0.00288,-0.05863 0.00706,-0.11838 0.01259,-0.17924c0.05707,-0.62778 0.23406,-1.11166 0.47806,-1.48439l0.83854,-1.94309c1.78061,-2.979 3.71894,-5.9474 5.34894,-9.03512c-0.93326,0.21755 -1.97881,0.15214 -3.15595,-0.32185c-1.88478,-0.75894 -1.35617,-3.88 -1.5073,-5.90621c-0.14676,-1.96757 1.50622,-6.00409 2.28383,-7.67548c3.21115,-6.90204 6.26579,-13.90226 9.55218,-20.80371c0.15857,-0.333 4.95777,-10.70283 5.14922,-10.93256c0.02045,-0.02454 0.04104,-0.04895 0.06175,-0.07323l-0.01738,-0.00966l1.63757,-2.94762c0.24181,-0.45555 0.59758,-0.84136 1.0293,-1.11942c0.00736,-0.03501 0.01476,-0.06989 0.02219,-0.10462c0,0 0.62859,-2.93341 3.56199,-2.30482c2.93341,0.62859 2.30482,3.56199 2.30482,3.56199c-0.83744,3.90637 -1.33402,8.57806 -3.30229,12.14601c-0.49844,0.90353 -1.46546,1.51048 -1.89239,2.44991c-0.79153,1.74169 -0.65374,3.77833 -1.19169,5.61425c-1.42765,4.8723 -2.76888,9.73563 -4.17657,14.59305c-0.11384,0.73805 -0.24938,1.36732 -0.42392,1.79873c-0.01595,0.03943 -0.03206,0.07878 -0.04833,0.11805l0.02205,0.00519l-0.96638,4.10713l0.04096,0.69625l-0.09889,0.00582c0.02901,0.20033 0.05337,0.40158 0.07258,0.60385c0.14261,1.50126 -0.97674,2.85364 -1.48763,4.27248c-1.56647,4.35039 -4.0026,8.29705 -6.40834,12.23554c2.5251,0.07789 5.0475,0.05848 7.59412,0.05848h1.66388c1.76266,-0.84558 1.96375,-1.13544 3.58496,-2.44265l0.66039,-1.73911c0,0 1.18176,-2.75744 3.93919,-1.57568z"></path><path d="M265.53334,274.46666c0,1.44204 -1.01744,2.64644 -2.37362,2.93451c-0.55031,0.65164 -1.37335,1.06549 -2.29305,1.06549c-0.68629,0 -1.31876,-0.23045 -1.82424,-0.61818l-2.64242,-1.98182l0.13835,-0.18446l-0.58738,-0.23013c-4.53757,-7.64132 -10.38967,-14.24441 -15.50708,-21.54953c-2.57782,-3.67985 -5.71275,-6.13383 -7.98102,-9.97683c-0.83708,2.34512 -1.25746,4.68454 -1.61936,7.57972l-0.79745,2.57658c0,0 -0.94868,2.84605 -3.79473,1.89737c-2.84605,-0.94868 -1.89737,-3.79473 -1.89737,-3.79473l0.53588,-1.42342c0.66863,-5.34906 1.67477,-9.3914 4.3721,-14.11631c0,0 1.48842,-2.60473 4.09315,-1.11631c0.21028,0.12016 0.39388,0.24759 0.55375,0.38035c-0.06087,-0.12205 -0.12078,-0.24733 -0.17966,-0.37614l-1.04188,-3.11746c0,0 -0.94868,-2.84605 1.89737,-3.79473c2.84605,-0.94868 3.79473,1.89737 3.79473,1.89737l0.95812,2.88254c0.91541,2.4462 3.00387,3.51517 4.43262,5.85206c1.50268,2.45782 2.28095,5.41041 4.11095,7.67976c0.97184,1.20516 3.62781,3.27071 4.45853,4.50258c1.91965,2.8466 3.04649,6.40848 4.98359,9.30968c2.15948,3.23425 5.31371,6.41314 5.75807,10.55307c0.00797,0.07428 0.01496,0.14857 0.02101,0.22286c1.38479,0.26584 2.43105,1.4838 2.43105,2.94612zM235.79036,238.68755c-0.31967,-0.37881 -0.63352,-0.77036 -0.93545,-1.19855c0.05642,0.32622 0.04761,0.64304 0.00673,0.92835c0.34818,0.03054 0.65775,0.13152 0.92872,0.2702zM237.5445,240.75774c0.43993,0.80584 0.92903,1.54322 1.45065,2.23876c-0.11826,-0.218 -0.23974,-0.43449 -0.36526,-0.64909c-0.34845,-0.59574 -0.71342,-1.1132 -1.08539,-1.58968z"></path><path d="M290.32132,283.01201c2.12132,2.12132 0,4.24264 0,4.24264l-1.66667,1.66667c-0.69665,0.69665 -4.57419,4.60711 -4.94887,4.80674c-3.89118,2.07328 -7.84763,1.65464 -11.62364,-0.14411c-1.35998,-0.64784 -3.17564,-0.824 -4.01458,-2.07517c-0.87974,-1.31202 -0.42501,-3.1329 -0.53422,-4.70878c-0.32547,-4.69648 -0.32571,-9.63124 -0.33333,-14.33312c0,-0.00014 0,-0.00021 0,-0.00021c0,-7.44444 0,-17.55556 0,-25c0,-1.91715 -0.09111,-3.83723 -0.0516,-5.7532c-1.30999,-0.32187 -2.28173,-1.50419 -2.28173,-2.91347c0,-0.60065 0.17652,-1.16007 0.48052,-1.62922l1.61078,-2.57725l1.27507,-2.23138c0.50929,-0.93086 1.49774,-1.56215 2.63362,-1.56215c1.65685,0 3,1.34315 3,3c0,0.09581 -0.00449,0.19057 -0.01328,0.28409l-0.33042,3.96505l-0.01516,-0.00126c0.00317,0.02093 0.0063,0.04187 0.0094,0.06281c0.37343,2.5242 -0.3172,6.86641 -0.3172,9.35598c0,7.44444 0,14.88889 0,22.33333v2.66667c0,0 0,0.00009 0,0.00027c-0.00693,3.78411 0.33333,7.53538 0.33333,11.33306c0,1 0.12354,2.00766 0,3c-0.05754,0.46222 -0.78674,0.89981 -0.53422,1.29122c0.23869,0.36998 0.89109,-0.1799 1.31875,-0.07517c0.702,0.17192 1.2848,0.68637 1.98026,0.88307c3.93451,1.11284 5.67534,-1.78189 8.11389,-4.22044l1.66667,-1.66667c0,0 2.12132,-2.12132 4.24264,0z"></path><path d="M287.86667,250.13333c-3,0 -3,-3 -3,-3l0.01835,-2.00204c-0.75338,-6.89205 -1.91956,-11.27691 0.4956,-18.02319c0,0 1.02523,-2.81938 3.84461,-1.79415c2.81938,1.02523 1.79415,3.84461 1.79415,3.84461c-2.12321,5.73169 -0.83924,9.3821 -0.17106,15.31014l0.01835,2.66463c0,0 0,3 -3,3z"></path><path d="M208.25115,210.68491c-1.18601,1.67685 -3.33316,0.96114 -3.33316,0.96114l-0.77892,-6.08981c0.38298,0.08472 0.87964,0.53934 1.14895,0.25416c0.25683,-0.27196 -0.26545,-0.69945 -0.39817,-1.04917c0,0 0.3721,-2.97683 3.34894,-2.60473c2.97683,0.3721 2.60473,3.34894 2.60473,3.34894c-0.35495,1.42805 -0.0841,3.18713 -1.06484,4.28416c-0.40385,0.45174 -0.93986,0.71111 -1.52751,0.89531z"></path><path d="M194.00809,197.31084c-0.3245,-0.27458 -0.64883,-0.54941 -0.98325,-0.80945c0,0 -1.8401,-1.43119 -1.01458,-3.39243c-0.33856,-0.40055 -0.70623,-0.81084 -1.09211,-1.2515c-0.81516,-0.33532 -1.71815,-1.07823 -1.71815,-2.72412c0,-3 3,-3 3,-3l2.638,1.07945c1.29011,1.55208 3.17062,2.69711 4.01934,4.52823c0.25526,0.55073 0.47199,1.31928 0.6429,2.18603c1.51461,1.23105 3.0628,2.64515 3.28357,3.50606c0.22038,0.85938 -0.10172,1.7206 -0.48049,2.57629c1.11091,0.43958 1.89669,1.52333 1.89669,2.79061c0,0.56059 -0.15376,1.08527 -0.42141,1.53416l-1.30719,2.28759l-0.11166,-0.06381c-0.74239,5.04005 -2.59864,10.26546 -7.56939,6.48267c-1.29748,-0.33059 -2.25702,-1.50688 -2.25702,-2.90728c0,-0.27446 0.03686,-0.54031 0.10589,-0.79287l0.15141,-0.60562c0.0487,-0.54969 0.10309,-1.0986 0.07604,-1.6015c-0.13966,-2.59604 0.60508,-5.16613 1.02654,-7.73153c0.12936,-0.78739 0.16249,-1.47459 0.11488,-2.09096z"></path><path d="M274.69663,100.15835c0.10447,-0.28457 1.10089,-2.76591 3.78539,-1.87107c2.84605,0.94868 1.89737,3.79473 1.89737,3.79473l-1.69097,2.65605c-0.63153,0.34259 -1.34601,0.56381 -1.8946,1.02776c-0.25135,0.21257 -0.41259,0.57234 -0.57445,0.91519c-0.25673,1.32893 -1.53095,2.05705 -1.53095,2.05705l-2.28759,1.30719c-0.34593,0.20626 -0.73687,0.34488 -1.15457,0.39762c-1.76482,3.11728 -3.49601,6.38172 -5.88211,8.76807c-7.19337,7.1941 -18.32691,5.93067 -27.68389,5.91659c-3.08749,-0.38594 -6.20593,0.05821 -9.26205,-0.32975c-0.71092,-0.09025 -1.46602,-0.11022 -2.21906,-0.1457c-0.01102,0.19944 -0.02283,0.39904 -0.03544,0.59885c0.84542,2.30287 1.65401,4.66058 2.51607,7.1734c0.1371,0.39963 0.30698,0.81135 0.48549,1.23098c1.36189,-0.27782 2.72611,-0.38308 3.91423,-0.05684c4.24039,1.16436 6.11717,6.58695 7.74573,10.06828c0.48476,-0.33633 1.07342,-0.53343 1.70811,-0.53343c0.9197,0 1.74274,0.41385 2.29305,1.06549c0.49176,0.10445 0.93898,0.32939 1.3093,0.64245l1.98487,1.65406l-0.19955,0.23947l0.73379,0.34066c0.49807,1.30736 0.80853,2.7026 1.4942,3.92207c1.53976,2.73845 4.39845,4.52227 6.18186,7.09138c3.35152,4.82808 5.13658,10.50016 7.5775,15.75413c0.81668,1.75786 2.08909,3.359 3.46907,4.87628l0.00433,-0.01011l2.26978,0.97276c1.10303,0.44334 1.88179,1.52306 1.88179,2.78467c0,1.65685 -1.34315,3 -3,3h-2.87664c-1.56816,0.16417 -3.34451,-0.2036 -4.67974,0.62982c-0.8581,0.5356 -1.15839,1.77046 -2.06074,2.22759c-0.03068,0.01554 -0.06142,0.03095 -0.09221,0.04623l0.01817,0.02076l-2.65573,2.32376c-0.14536,0.12853 -0.30327,0.24319 -0.47167,0.34189c-0.0394,0.11805 -0.0831,0.23447 -0.13134,0.34909c-0.85107,2.02191 -3.09318,3.11104 -4.55834,4.74697l-1.19148,2.08508c-0.50929,0.93086 -1.49774,1.56215 -2.63362,1.56215c-1.65685,0 -3,-1.34315 -3,-3c0,-0.56059 0.15376,-1.08527 0.42141,-1.53416l1.28343,-2.246c-0.32367,-1.88066 1.90742,-3.31399 2.68643,-5.05625c0.29606,-0.66215 0.5601,-1.49296 0.84491,-2.37586c-0.48268,-1.35522 -1.02467,-2.65465 -1.09627,-2.88225c-1.79821,-5.71605 -4.86783,-10.88456 -7.23068,-16.39038c0,0 -0.91309,-2.13054 0.73871,-3.44871c-1.18034,-2.39371 -2.09555,-4.86757 -3.84678,-7.02552c-0.88275,-1.08777 -2.94141,-1.78676 -2.75352,-3.175c0.17559,-1.29732 0.6741,-2.79201 1.47582,-3.95681c-0.01793,-0.03029 -0.03581,-0.0606 -0.05364,-0.09094c-0.18198,-0.0799 -0.37508,-0.15952 -0.58099,-0.23942c-1.10106,0.54628 -2.60529,0.93638 -4.22217,1.15291v4.60172c0.45034,1.80014 -0.07874,3.71282 -0.00166,5.56683c0.09428,2.26766 0.31968,5.33286 0.64237,7.70601c1.52519,11.21677 2.68341,22.35329 2.69263,33.72715v1c0,0 0,3 -3,3c-2.46623,0 -2.90503,-2.02743 -2.9831,-2.74888c-0.12117,-0.10682 -0.23364,-0.22328 -0.33623,-0.34816l-1.652,-1.9824l0.06726,-0.05605c-0.13371,-0.12803 -0.2618,-0.26255 -0.38339,-0.40457c-1.00915,-1.1787 -1.66352,-4.68237 -2.09965,-7.43978c-0.29679,0.41189 -0.6756,0.77156 -1.15877,1.05587c-4.10999,2.4185 -8.18693,0.84407 -9.37249,-3.71434c-0.80851,-3.10863 0.89914,-6.63712 2.25171,-9.58876c0,-7.83798 0,-15.67596 0,-23.51394c-0.21441,0.04865 -0.43754,0.07434 -0.66667,0.07434c-1.65685,0 -3,-1.34315 -3,-3v-2.66667c0.01617,-0.32172 0.02439,-0.65158 0.03119,-0.98537c-0.02813,-0.24062 -0.01629,-0.49432 0.01566,-0.75512c0.01898,-0.76605 0.05593,-1.5361 0.18749,-2.26079c-1.36388,-1.43962 -2.53463,-3.22969 -4.19183,-4.4764c-0.598,-0.44988 -1.35145,-0.51069 -2.13983,-0.49316c-0.0205,0.08499 -0.03969,0.16999 -0.05736,0.25502l-0.21164,0.21968l0.10775,0.04789l-1.30552,2.93742c-0.27095,0.6484 -0.76298,1.18141 -1.38189,1.50479c0.03744,1.57769 -0.03701,2.93356 -0.37555,3.21028c-0.66794,0.54598 -1.48176,0.94634 -2.35512,1.19832c-0.01555,0.42614 -0.09573,0.72013 -0.09573,0.72013c-1.36234,4.94545 -3.09402,10.2583 -5.37696,14.84397l-0.59168,2.36673c-0.13601,0.59935 -0.45147,1.13054 -0.88691,1.5341c0.11121,1.24572 0.42845,4.33484 0.5235,5.01454c0.21533,1.53984 1.87941,3.5897 0.70673,4.61063c-0.04557,0.03967 -0.09088,0.07884 -0.13593,0.11752c0.2574,0.72627 0.69313,2.66418 -1.45806,3.73977c-2.43808,1.21904 -3.76852,-0.88485 -3.99131,-1.27954c-2.15061,-0.58062 -2.54441,-4.18989 -2.81275,-6.98329c-0.33066,-0.81325 -0.54058,-1.62196 -0.46326,-2.42349c0.00976,-0.10122 0.02163,-0.202 0.03546,-0.30235l-0.08662,0.01083l-0.32747,-2.61972c-0.01914,-0.13694 -0.02903,-0.27684 -0.02903,-0.41905c0,-1.39596 0.95345,-2.56923 2.24467,-2.90411c0.05264,-0.27751 0.11487,-0.56365 0.18778,-0.86068c0.27257,-1.1104 0.69382,-2.18028 1.17434,-3.23553l0.08042,-0.68354l0.04283,0.00504c-0.00154,-0.08596 -0.00223,-0.17199 -0.00203,-0.25811c0.00771,-3.35529 2.55858,-8.97854 4.14295,-12.16279l0.34184,-1.02553c-0.43322,-0.81982 -0.78707,-1.72918 -1.20806,-2.49121c-2.83627,-5.13382 -0.83787,-9.22915 3.46094,-12.73127c0.18016,-0.14677 0.36111,-0.29029 0.5426,-0.43009c0.04955,-4.53596 0.3388,-8.56828 1.3613,-12.92117c-0.1277,-0.32874 -0.23186,-0.66506 -0.30423,-1.01156c-0.87528,-4.19073 0.97669,-7.11988 3.68908,-9.94757l1.59291,-1.91149c0.5502,-0.6698 1.38487,-1.09705 2.31933,-1.09705c1.04128,0 1.95866,0.53051 2.49659,1.33598c1.62496,-2.14085 3.54828,-4.11387 4.47331,-5.18837c1.82296,-2.11751 3.09188,-4.87204 5.4529,-6.36624c1.26686,-0.80174 2.90158,-0.76157 4.36968,-1.06556c0.26091,-0.05402 0.90943,-0.17576 1.74703,-0.3164c4.39502,-3.30384 10.13112,-4.74578 15.60101,-5.89056c1.75249,-0.77047 3.427,-1.88668 5.32121,-2.04613c0.07682,-0.00647 0.15357,-0.01157 0.23026,-0.01538l-0.00946,-0.04259l2.93684,-0.65263c0.22882,-0.05586 0.46793,-0.08548 0.71396,-0.08548c1.65685,0 3,1.34315 3,3c0,1.19761 -0.70175,2.23131 -1.71649,2.71235l-3.2752,1.6376l-0.07058,-0.14117l-0.26732,0.28499c-0.59873,0.13621 -1.19246,0.26719 -1.78175,0.39586c-2.16203,1.02067 -4.82381,1.27246 -7.05693,2.20824c-0.52021,0.21799 -1.07747,0.41668 -1.65619,0.60611c0.10232,0.30218 0.1578,0.62595 0.1578,0.96269c0,0.73771 -0.26627,1.41322 -0.70794,1.93568l-1.55566,1.86679c-2.26472,3.64576 -2.28572,7.2315 -4.00332,11.10124c-0.7912,1.78258 -1.80676,3.33079 -2.79684,4.87625c2.80367,-0.83351 5.76444,-1.27645 8.87735,-1.44083c4.41146,-0.23294 9.23535,0.51023 13.58321,-0.27786c2.61463,-0.47393 5.78447,-3.67652 7.63761,-4.91169c2.44332,-1.62854 5.57766,-2.6862 7.9125,-4.27438c0.5948,-0.40459 0.786,-1.23116 1.33276,-1.69777l2.89592,-4.183c0.53867,-0.80086 1.45334,-1.32776 2.49108,-1.32776c0.8479,0 1.61364,0.35176 2.15926,0.9173c0.10936,-0.07476 0.22177,-0.14993 0.33737,-0.22561zM207.60418,129.13333h1.36506c-0.07339,-0.47074 -0.11403,-0.94134 -0.13443,-1.41508c-0.34197,-0.08155 -0.66123,-0.22166 -0.94659,-0.40913c-0.01924,0.60957 -0.13384,1.21724 -0.28405,1.82422z"></path><path d="M299.33334,159.4c2.4,1.8 0.6,4.2 0.6,4.2l-0.79527,1.02175c-0.66988,1.17057 -2.92876,5.25739 -3.69274,5.83452c-0.10971,0.08288 -0.22132,0.16263 -0.33464,0.23954l0.04168,0.04863l-1.28606,1.10234c-0.025,1.63528 -1.35841,2.95322 -2.99964,2.95322c-1.65685,0 -3,-1.34315 -3,-3v-2.36504c-0.03784,-0.13881 -0.07436,-0.27767 -0.10966,-0.41655c-0.19922,-0.24781 -0.24261,-0.56569 -0.2159,-0.91503c-0.71283,-3.25458 -0.88422,-6.52309 -1.87268,-9.74658c-1.43692,-4.68596 -2.37737,-9.04233 -2.7914,-13.97432c0,0 -0.1418,-1.70163 1.07233,-2.64433c-0.39068,-0.58659 -0.83249,-1.15227 -0.87141,-1.8322c-0.00507,-0.08859 -0.00909,-0.17715 -0.01213,-0.26569l-0.07264,0.02179l-0.97996,-3.26654c-0.09513,-0.29246 -0.14656,-0.60464 -0.14656,-0.92883c0,-1.65685 1.34315,-3 3,-3c1.26161,0 2.34133,0.77876 2.78467,1.88179l0.94667,2.2089c1.17852,2.35322 3.03323,5.37585 3.54072,7.97277c0.40949,2.09541 0.51002,4.27047 0.55858,6.4622c0.61964,3.61469 0.93356,7.22272 1.07348,10.91678c0.05426,-0.08707 0.10698,-0.17511 0.1578,-0.2642l1.20473,-1.64492c0,0 1.8,-2.4 4.2,-0.6z"></path><path d="M290.02062,80.08201l0.29195,0.1755c-0.01148,-0.03255 -0.02287,-0.06494 -0.03418,-0.09715c-1.08113,-0.84991 -2.38247,-1.43945 -3.69373,-1.84765c0,0 -2.84605,-0.94868 -1.89737,-3.79473c0.94868,-2.84605 3.79473,-1.89737 3.79473,-1.89737c2.1335,0.74449 4.21237,1.79022 5.97187,3.20805l0.02517,0.04711c0.89106,0.61442 1.23366,1.6422 1.23366,1.6422c0.69185,2.14397 1.81784,5.40363 3.43187,6.99759c1.33563,1.31903 4.24416,-0.22298 5.51007,1.16311c0.3969,0.43458 0.58295,0.97383 0.67286,1.56081l0.06787,0.02036l-0.04466,0.14887c0.002,0.01642 0.00394,0.03287 0.00581,0.04935c0.31106,0.05713 0.61877,0.13406 0.92235,0.23537c1.44187,0.48116 2.9732,3.34605 3.81594,6.12769c0.0465,0.00055 0.09263,0.001 0.13839,0.00134l0.32003,0.2312l0.04103,-0.1641l2.60579,0.65145c1.33596,0.30317 2.33327,1.49794 2.33327,2.92565c0,1.54443 -1.16705,2.81628 -2.66738,2.98177l-2.62718,0.3284l-0.02205,-0.17636c-0.25105,0.07366 -0.50719,0.13146 -0.76949,0.17006c-0.13117,0.0193 -0.26096,0.03099 -0.38937,0.03548c-2.12966,2.00964 -3.38756,-0.60962 -5.90919,0.17337c-1.24271,0.38588 -2.37447,1.41015 -3.36758,2.64146c-0.05396,0.11955 -0.10633,0.23984 -0.157,0.36091l-0.97276,2.26978c-0.29965,0.74551 -0.88999,1.34289 -1.63072,1.65182c-0.07418,0.13211 -0.14616,0.26067 -0.21589,0.38505l-0.42535,1.46027c0,0 -0.94868,2.84605 -3.79473,1.89737c-2.84605,-0.94868 -1.89737,-3.79473 -1.89737,-3.79473l0.90799,-2.53973c0.70959,-1.22372 1.52923,-2.54499 2.46002,-3.82571l0.67801,-1.76282l0.05267,0.02026c0.01173,-0.07663 0.0241,-0.1532 0.03716,-0.22971c0.39601,-2.3205 1.66669,-3.73387 3.36933,-4.58459c0.33322,-0.39359 1.61448,-1.70719 3.35125,-0.98556c0.02056,-0.00309 0.04113,-0.00615 0.06172,-0.00917c-0.08195,-0.11125 -0.16282,-0.2185 -0.24265,-0.32115c-0.9322,-0.33417 -1.38939,-1.0582 -1.61362,-1.68802l-0.67048,-0.67048l0.45465,-0.45465v-0.12278c-1.30938,0.57713 -2.98724,-0.58285 -4.27792,-1.59279c-2.028,-1.58689 -3.58846,-5.13772 -4.6227,-7.93891c-0.43383,-0.52868 -0.6121,-1.0635 -0.6121,-1.0635z"></path><path d="M266.74791,76.58084c-1.11417,-2.78543 1.67126,-3.8996 1.67126,-3.8996l2.78084,-0.88124c0.88889,0 1.77778,0 2.66667,0c0,0 3,0 3,3c0,3 -3,3 -3,3c-0.88889,0 -1.77778,0 -2.66667,0l-0.55249,0.4521c0,0 -2.78543,1.11417 -3.8996,-1.67126z"></path><path d="M253.13906,74.37709c-2.91043,-0.72761 -2.18282,-3.63803 -2.18282,-3.63803l0.48633,-1.78748c0.33333,-0.77778 0.66667,-1.55556 1,-2.33333c0,0 1.18176,-2.75744 3.93919,-1.57568c2.75744,1.18176 1.57568,3.93919 1.57568,3.93919c-0.33333,0.77778 -0.66667,1.55556 -1,2.33333l-0.18034,0.87918c0,0 -0.72761,2.91043 -3.63803,2.18282z"></path><path d="M287.16123,63.48983c2.97683,-0.3721 3.34894,2.60473 3.34894,2.60473l0.23015,1.84123c0.08218,0.27366 0.12635,0.56378 0.12635,0.86421c0,0.07682 -0.00289,0.15296 -0.00856,0.22832c0.00903,0.7393 -0.18971,2.77814 -2.61934,3.08184c-2.97683,0.3721 -3.34894,-2.60473 -3.34894,-2.60473l-0.33333,-2.66667c0,0 -0.3721,-2.97683 2.60473,-3.34894z"></path></g><path d="M192.36539,184.80392c-3,0 -3,-3 -3,-3v-1.33333c0.03857,-3.94647 -1.66729,-6.92536 -3.11876,-10.55249c0,0 -1.11417,-2.78543 1.67126,-3.8996c2.78543,-1.11417 3.8996,1.67126 3.8996,1.67126c1.75998,4.40189 3.51223,7.96736 3.5479,12.78084v1.33333c0,0 0,3 -3,3z" fill-opacity="0.1098" fill="#f6d1ff" stroke-width="0.5"></path><path d="M219.49455,135.99968c1.93385,1.83082 4.01103,3.40675 5.85613,4.44068l2.8372,1.26098c1.08308,0.45258 1.84417,1.52203 1.84417,2.76925c0,1.65685 -1.34315,3 -3,3h-4v-0.09798c-0.28794,0.01204 -0.57761,0.00315 -0.86935,-0.03074c-2.35761,-0.27386 -4.10861,-2.40288 -5.98933,-3.85072c-3.70829,-2.85479 -8.83722,-6.76637 -10.73428,-11.55177c-0.1456,0.23236 -0.27779,0.46622 -0.39783,0.70158c-0.08613,1.30554 -0.20982,2.60047 -0.36572,3.86841l0.02317,1.29456c0,0 0,1.31297 -0.8686,2.2017c-0.00876,0.89531 -0.01967,1.80778 -0.0813,2.73743l-1.156,0.60046l0.35978,0.43174l-1.98487,1.65406c-0.52246,0.44167 -1.19797,0.70794 -1.93568,0.70794c-1.65685,0 -3,-1.34315 -3,-3v-4h0.01127c-0.00343,-0.02936 -0.00675,-0.05873 -0.00998,-0.08812c-0.52122,-4.75032 0.53792,-11.33144 1.33204,-16.09798v-3.48057v0c0,-1.65685 1.34315,-3 3,-3c1.13589,0 2.12433,0.63128 2.63362,1.56215l1.30444,2.28277l-0.12075,0.069c0.12663,0.15154 0.24762,0.30818 0.36208,0.47073c0.66449,0.94372 0.39223,2.2782 0.48149,3.42894c0.03337,0.43024 0.06117,0.86326 0.0836,1.29842c0.20776,-0.82846 0.44562,-1.65513 0.59118,-2.49082l-0.73363,-1.71181c-0.17256,-0.37864 -0.26869,-0.79945 -0.26869,-1.24272c0,-1.65685 1.34315,-3 3,-3c1.16406,0 2.17327,0.66299 2.67063,1.63196l2.30412,4.27907l-0.14608,0.07866c2.04091,1.93805 4.09581,3.85334 6.29802,5.62657l1.41346,4.18836c0,0 0.56494,1.88312 -0.74431,3.0578z" fill-opacity="0.1098" fill="#f6d1ff" stroke-width="0.5"></path><path d="M226.28542,178.45229c1.16131,0.42158 1.84727,1.57968 1.74329,4.8266c-0.03957,1.23565 -1.53566,4.23092 -3.33018,6.20584c-0.00465,0.22205 -0.12032,2.98587 -2.99981,2.98587c-1.07119,0 -1.75989,-0.38248 -2.20269,-0.8743c-4.80298,0.28969 -4.77194,-1.55585 -5.13064,-6.1257c-0.10661,-1.35815 -0.25312,-2.769 0.09592,-4.08586c0.16054,-0.6057 0.80483,-1.78843 1.5287,-3.00982c-0.18886,-1.87473 0.2384,-3.91625 0.72332,-5.8666c0.4425,-1.77975 -0.20143,-4.56604 1.47962,-5.29912c1.96672,-0.85766 4.42989,0.66624 6.12354,1.98348c1.15874,0.90122 1.35758,2.6411 1.66744,4.07597c0.32792,1.51855 0.36597,3.33443 0.30151,5.18364z" fill-opacity="0.1098" fill="#f6d1ff" stroke-width="0.5"></path><path d="M208.3138,223.11561c-1.1951,-2.18225 -1.36429,-4.72876 -1.04147,-7.34758c-0.16929,-0.64432 -0.32843,-1.28149 -0.48404,-1.90317c0,0 -0.63681,-2.54725 1.6641,-3.47145c0.18798,-0.65058 0.38405,-1.29309 0.57966,-1.92285v-2.33331v0c0,-1.65685 1.34315,-3 3,-3c1.22722,0 2.28233,0.73689 2.74701,1.79233l2.30487,4.93901l-0.25032,0.11682c2.17216,2.97931 4.13574,6.16113 5.51462,9.50717c1.0028,0.70056 2.00198,1.41753 2.82483,2.23673l2.40493,1.50308c0.8713,0.52494 1.45405,1.48018 1.45405,2.57152c0,1.32131 -0.8542,2.4431 -2.04051,2.84328l-3.47055,1.26202c-0.06332,0.25403 -0.14258,0.44302 -0.23991,0.54677c-1.21926,1.29968 -3.47889,0.80886 -5.24903,1.01459c-1.04214,0.12112 -2.12539,0.19918 -3.14721,-0.03874c-1.5833,-0.36865 -3.33115,-0.67879 -4.55078,-1.75362c-1.8875,-1.6634 -2.07547,-4.24462 -2.02026,-6.56262z" fill-opacity="0.1098" fill="#f6d1ff" stroke-width="0.5"></path><path d="M248.29592,216.88586c-0.49555,-1.87243 -0.24982,-8.29959 1.87501,-9.56062c1.6637,-0.98736 3.97941,-0.47532 5.80122,0.17565c1.2148,0.43407 1.82974,1.82709 2.63168,2.83757c1.56716,1.97468 3.00025,4.82879 5.22033,6.27256c3.47511,2.25995 8.74748,2.12162 12.39843,3.93591c0.01206,0.006 0.02412,0.012 0.03617,0.01802l0.00218,-0.0087l3.93912,0.98478c1.33596,0.30317 2.33327,1.49794 2.33327,2.92565c0,1.4277 -0.99731,2.62247 -2.33327,2.92565l-2.60579,0.65145l-0.03865,-0.15458l-0.32241,0.22168c-2.98028,0.00312 -5.22668,-0.34772 -7.41348,-1.04631c0.49605,2.07374 0.32399,4.3953 -0.72395,5.87662c-0.86667,1.22509 -2.52308,1.74789 -3.98156,2.10113c-1.72855,0.41866 -3.72004,0.90357 -5.33333,0.15494c-1.65527,-0.76811 -2.30674,-2.82819 -3.46546,-4.2379c-0.03409,-0.04148 -0.06803,-0.08295 -0.10183,-0.12444c-0.46368,-0.50835 -0.8747,-1.04749 -1.23973,-1.61243c-1.38688,-1.91382 -2.52611,-3.88483 -3.6251,-6.0769l-0.52687,0.23084c0,0 -2.18154,-1.30893 -1.32135,-3.52499c-0.46512,-0.70879 -0.84958,-1.62398 -1.20464,-2.96556z" fill-opacity="0.1098" fill="#f6d1ff" stroke-width="0.5"></path><path d="M231.77817,234.16593c2.30466,-1.92055 4.22522,0.38411 4.22522,0.38411l1.82619,2.20948c2.52702,4.42229 6.94975,6.90863 9.7248,11.08692c1.12122,1.68818 1.51408,3.76797 2.46451,5.55788c1.74693,3.2899 5.12316,7.39705 6,11c0.00527,0.02166 0.0105,0.04334 0.01569,0.06502l0.01409,-0.00704l1.97301,3.94602c0.21949,0.41689 0.34371,0.89175 0.34371,1.39562c0,1.65685 -1.34315,3 -3,3c-0.93446,0 -1.76913,-0.42724 -2.31933,-1.09705l-1.64218,-1.97062c-5.47978,-6.40268 -10.60755,-12.80823 -14.92377,-20.02181c-1.17808,-1.9689 -2.42922,-3.96722 -3.02514,-6.18292c0,0 -0.28141,-1.12565 0.20583,-2.15187c-0.2678,-0.38385 -0.52198,-0.78217 -0.75959,-1.19799l-1.50714,-1.79052c0,0 -1.92055,-2.30466 0.38411,-4.22522z" fill-opacity="0.1098" fill="#f6d1ff" stroke-width="0.5"></path><path d="M198.48671,195.92524c-2.12132,2.12132 -4.24264,0 -4.24264,0l-0.4659,-0.48332c-1.23428,-1.04724 -2.6345,-1.90849 -4.08775,-2.62138c0,0 -2.68328,-1.34164 -1.34164,-4.02492c1.34164,-2.68328 4.02492,-1.34164 4.02492,-1.34164c1.85463,0.94129 3.63882,2.05801 5.24558,3.37862l0.86743,0.85001c0,0 2.12132,2.12132 0,4.24264z" fill-opacity="0.1098" fill="#f6d1ff" stroke-width="0.5"></path><path d="M297.70703,85.15387c-2.68328,1.34164 -4.02492,-1.34164 -4.02492,-1.34164l0.04528,-0.08775c-1.93856,-2.32627 -2.77174,-3.51918 -5.4856,-4.96475c0,0 -2.62247,-1.45693 -1.16554,-4.0794c1.45693,-2.62247 4.0794,-1.16554 4.0794,-1.16554c3.29774,1.88764 4.80442,3.5166 7.18107,6.36859l0.71195,1.24558c0,0 1.34164,2.68328 -1.34164,4.02492z" fill-opacity="0.1098" fill="#f6d1ff" stroke-width="0.5"></path><path d="M188.80836,293.65828c-2.68328,-1.34164 -1.34164,-4.02492 -1.34164,-4.02492l0.93713,-1.82246c2.47205,-3.67642 3.78174,-7.63319 3.74615,-12.0859c0,0 0,-0.14255 0.03107,-0.36549c0.02393,-0.22383 0.0585,-0.36212 0.0585,-0.36212l0.53695,-2.13444c1.99803,-6.65785 2.92814,-13.58008 4.44316,-20.2808c1.08524,-4.79985 -0.17728,-10.00155 1.98537,-14.67521c0.73969,-1.59852 2.11397,-3.46769 3.45656,-5.16058c0.06261,-1.46116 0.28945,-2.95027 1.03614,-3.99951c0.80922,-1.1371 2.30122,-1.57979 3.45183,-2.36969l0.0545,-0.00481l-0.01101,-0.01982l2.20236,-1.22353c0.44229,-0.25689 0.95625,-0.40399 1.50457,-0.40399c1.65685,0 3,1.34315 3,3c0,0.76183 -0.28397,1.45734 -0.75184,1.98645l-0.00719,0.00822c-0.00537,0.43225 -0.08054,0.73294 -0.08054,0.73294c-1.55027,6.16554 -2.88162,12.36337 -4.80034,18.42786c-1.26059,3.98436 -3.12656,7.88982 -4.22105,11.9029c-0.78231,2.8684 -0.80462,5.99297 -1.46929,8.88089c-0.25904,1.12549 -0.55381,2.24256 -0.86637,3.3556c-0.19035,0.99031 -0.40249,1.97457 -0.64717,2.94942c-0.43164,1.71977 -1.06833,3.37993 -1.66202,5.0525c-0.33513,1.27248 -0.63761,2.55336 -0.88106,3.84907l-0.29697,0.27059l0.16495,0.07498l-1.22187,2.68811c-0.4582,1.07047 -1.52113,1.82048 -2.75923,1.82048c-0.03939,0 -0.0786,-0.00076 -0.11761,-0.00226c-0.28024,0.47514 -0.57566,0.94714 -0.88623,1.41636l-0.56287,1.17754c0,0 -1.34164,2.68328 -4.02492,1.34164z" fill="#5d496e" stroke-width="0.5"></path><path d="M270.35238,231.69723c2.27777,1.95237 0.3254,4.23014 0.3254,4.23014l-1.97777,2.19763c-0.11406,0.07943 -0.22395,0.16017 -0.33001,0.24219c0.03001,0.21853 0.03001,0.35781 0.03001,0.35781c0,6.76712 0.46349,13.47375 0.82602,20.18758c1.11087,5.36046 1.92231,10.74294 1.92398,16.31242c0.00083,2.77918 0.66724,8.11975 -0.25755,10.71267c-0.00424,0.01189 -0.00851,0.02377 -0.01279,0.03564l0.00998,0.00083l-0.24764,2.97172c-0.11306,1.55373 -1.40942,2.77914 -2.99199,2.77914c-1.65685,0 -3,-1.34315 -3,-3v-2.5c0,-4.17773 -0.26731,-7.86477 -0.95918,-12.0068c0,0 -0.01533,-0.092 -0.02437,-0.24627c-0.01645,-0.15365 -0.01645,-0.24693 -0.01645,-0.24693v-2c0.00444,-3.99507 -0.15828,-7.97366 -0.36766,-11.94918c-0.55231,-2.61827 -1.17711,-5.23143 -1.80208,-7.86156c-0.652,-2.74388 -0.84239,-5.04465 -2.02423,-7.61764c-0.52032,-0.63061 -0.62534,-1.32666 -0.57393,-1.91887c-0.01316,-0.59367 0.13613,-1.28069 0.69452,-1.87606c1.6723,-2.89435 2.79901,-5.04212 5.52338,-7.17668l1.02223,-1.30237c0,0 1.95237,-2.27777 4.23014,-0.3254z" fill="#5d496e" stroke-width="0.5"></path><path d="M201.46605,286.56476l1.38775,0.3011c0.73804,0.42217 1.42896,0.91516 2.08652,1.45485l0.10004,-0.20007l2.60854,1.30427c1.01474,0.48103 1.71649,1.51474 1.71649,2.71235c0,1.58257 -1.22541,2.87894 -2.77914,2.99199l-3.97172,0.33098l-0.0001,-0.00124c-3.90642,0.23783 -6.48565,1.31624 -8.81394,-3.88034c-0.07716,-0.17221 -0.12159,-0.34728 -0.13972,-0.52461c-1.31688,-0.31699 -2.29537,-1.50262 -2.29537,-2.91679c0,-0.45707 0.10222,-0.89027 0.28504,-1.27798l1.30135,-2.92803c2.10844,-4.88174 2.4055,-10.19415 4.27612,-15.19347c1.6937,-4.52649 4.14222,-8.61986 6.12572,-12.95769c0.03521,-0.12575 0.06961,-0.25162 0.10316,-0.37762c0.40025,-1.50344 0.32521,-3.10081 0.65554,-4.62115c0.2319,-1.06729 0.57298,-2.04581 0.98718,-2.9785l0.62703,-4.0757c0.19997,-1.46282 1.45447,-2.58987 2.9722,-2.58987c1.65685,0 3,1.34315 3,3v2.66667h-0.17504l0.15577,0.33947c-0.29389,1.29738 -0.55103,2.61156 -0.78759,3.93584c0.3184,1.01024 -0.01376,2.00671 -0.01376,2.00671c-0.18772,0.55998 -0.38776,1.11291 -0.59808,1.66001c-0.91969,5.79007 -1.7317,11.65389 -3.74887,17.04656c-0.72534,1.93911 -2.05015,3.59048 -3.11414,5.37278c-0.15806,0.64719 -0.31001,1.29668 -0.45481,1.94887c-0.54179,2.44026 -0.73707,5.0982 -1.49615,7.4506z" fill-opacity="0.1098" fill="#f6d1ff" stroke-width="0.5"></path><path d="M270.32948,293.04351c-0.98905,-0.41022 -1.77045,-1.3449 -2.78491,-3.55165c-0.51407,-1.11826 -0.14622,-2.45762 -0.17919,-3.68794c-0.08614,-3.21499 0,-6.45086 0,-9.66667c0,-8.88889 0,-17.77778 0,-26.66667c0,0 0,-3 3,-3c3,0 3,3 3,3c0,10.11111 0,20.22222 0,30.33333c0,2 0.07709,4.00149 0,6c-0.02506,0.6498 -0.71109,1.94075 -0.06087,1.9499c0.47418,0.00667 0.92947,-0.18882 1.3942,-0.28323l-0.75459,4.67456l0.75459,1.32544c-0.34032,-0.02447 -0.65954,-0.04056 -0.96009,-0.0524l-0.09122,0.56512c0,0 -2.12886,0.70962 -3.31792,-0.9398z" fill-opacity="0.1098" fill="#f6d1ff" stroke-width="0.5"></path></g></g></svg>