<svg version="1.1" xmlns="http://www.w3.org/2000/svg" xmlns:xlink="http://www.w3.org/1999/xlink" width="717" height="352" viewBox="0,0,717,352"><g transform="translate(55.39999,-4)"><g stroke="none" stroke-width="0" stroke-miterlimit="10"><path d="M160.5,222.19072l56.47596,-42.19071l-56.47596,-42.19071c0,0 92.33333,28.6565 92.33333,42.82404c0,13.95644 -92.33333,41.55738 -92.33333,41.55738z" fill-opacity="0.28235" fill="#9966ff"></path><path d="M180.5,222.19072l56.47596,-42.19071l-56.47596,-42.19071c0,0 92.33333,28.6565 92.33333,42.82404c0,13.95644 -92.33333,41.55738 -92.33333,41.55738z" fill-opacity="0.46667" fill="#9966ff"></path><path d="M193.83334,222.19072l56.47596,-42.19071l-56.47596,-42.19071c0,0 92.33333,28.6565 92.33333,42.82404c0,13.95644 -92.33333,41.55738 -92.33333,41.55738z" fill="#9966ff"></path><path d="M-55.39999,356.00001v-352h717v352z" fill="none"></path></g></g></svg>