<svg version="1.1" xmlns="http://www.w3.org/2000/svg" xmlns:xlink="http://www.w3.org/1999/xlink" width="326" height="157" viewBox="0,0,326,157"><g transform="translate(-77.33334,-101.5)"><g stroke-miterlimit="10"><path d="M77.33334,258.5v-157h326v157z" fill="none" stroke="none" stroke-width="0"></path><path d="M236.8,194.62801v-29.25601h7.06667v29.25601z" fill="none" stroke="#a6e0ac" stroke-width="1"></path><g fill="none" stroke-opacity="0.2" stroke="#a6e0ac" stroke-width="1"><path d="M243.86667,165.42801h152.2v29.2h-152.2"></path><path d="M236.8,194.62801h-29.6v-29.2h29.6"></path></g><path d="M115.4,194.65601v-29.25601h85.2v29.25601z" fill-opacity="0.09412" fill="#a4e0a9" stroke="none" stroke-width="0"></path><text transform="translate(168.5,183.00211) scale(0.24784,0.24784)" font-size="40" xml:space="preserve" fill-opacity="0.70196" fill="#ffffff" stroke="none" stroke-width="1" font-family="Malgun Gothic" font-weight="normal" text-anchor="start"><tspan x="0" dy="0">PRESS</tspan></text><g stroke="none" stroke-width="0.5"><path d="M140.47203,184.47504c0.45019,-0.18008 0.63027,0.27012 0.63027,0.27012c0.07277,0.18286 0.14481,0.36084 0.21524,0.5369l0.48755,-0.0325l0.0055,0.08255c0.45734,-0.04234 0.8239,0.07333 1.53922,0.39989l0.01342,0.01312l0.00257,-0.00462l0.4764,0.26467c0.04665,0.02476 0.08878,0.05692 0.12482,0.09491c0.3907,-0.1206 0.80272,-0.15508 1.17864,-0.32643c1.32991,-0.60619 2.45485,-1.31096 3.94572,-1.43552c1.07479,-0.24155 2.16507,-0.28968 3.26482,-0.38093c0.63517,-0.0527 1.48119,-0.1742 2.10538,0.01479c0.8294,0.25112 1.43945,0.75694 2.1032,1.26434c0.16198,0.12383 0.3878,0.176 0.50799,0.34069c0.46741,0.64051 1.03415,1.91831 0.80368,2.7562c-0.12204,0.44367 -0.45723,0.89713 -0.77339,1.3232c-0.01881,0.0657 -0.03846,0.13124 -0.05901,0.19647c-0.11393,0.54277 -0.26172,1.18746 -0.6046,1.62396c-0.63226,0.80488 -1.5691,1.18955 -2.5501,1.28799c-0.0134,0.00804 -0.02678,0.01599 -0.04014,0.02385c-0.0654,0.05113 -0.13937,0.0785 -0.19981,0.09314c-0.05788,0.01598 -0.13255,0.02772 -0.21144,0.01687h-0.01758c-2.20838,0 -4.40547,-0.03703 -6.6046,0.16113c-0.61195,0.00054 -1.42907,-0.14148 -2.02242,-0.01006c-0.1641,0.03635 -0.2966,0.1651 -0.45879,0.20921c-0.89561,0.24356 -1.86032,0.10498 -2.75625,0.0149c-0.58993,-0.05932 -1.1867,-0.04234 -1.73717,-0.25238c-0.14461,0.00771 -0.28402,0.00087 -0.39767,-0.07797c-0.01999,-0.01387 -0.03931,-0.02765 -0.05798,-0.04135c-0.2022,-0.01785 -0.41312,-0.0383 -0.62289,-0.06972l-0.04997,0.22788c0,0 -0.14516,0 -0.27663,-0.07942c-0.7951,-0.22684 -1.85091,-0.31634 -2.51039,-0.74724c-1.0263,-0.67058 -0.97557,-2.26426 -0.72576,-3.44447c-0.07335,-0.42126 -0.09682,-0.85294 -0.09682,-1.27795c0,0 0,-0.46657 0.45768,-0.48435c0.00779,-0.11885 0.02458,-0.23446 0.08343,-0.33493c0.01789,-0.03054 0.03588,-0.05944 0.054,-0.0868l0.00238,-0.02448c0,0 0.06599,-0.4619 0.52161,-0.41475c0.17853,-0.07013 0.37969,-0.10298 0.61665,-0.15358c0.79333,-0.1694 1.78859,-0.35404 2.63416,-0.20136c-0.1459,-0.29424 -0.28374,-0.59436 -0.42866,-0.90358l0.05169,-0.12852l-0.05811,-0.00528l0.05343,-0.5877c0.01985,-0.24956 0.22866,-0.4459 0.48333,-0.4459c0.21355,0 0.39486,0.13806 0.45954,0.32979l0.20907,0.57494c0.04657,-0.06567 0.11891,-0.12573 0.22881,-0.16969z" fill="#24bd33"></path><path d="M154.93843,171.81425c0.17867,0.12699 0.41886,0.17413 0.56367,0.33868c0.31376,0.35653 0.40315,0.90619 0.48117,1.3992c0.85032,1.17216 0.93103,2.74665 0.98137,4.29661c0.00323,0.02567 0.00624,0.0518 0.00904,0.07843l0.00203,0.26802c0.0211,0.65239 0.04662,1.29471 0.13235,1.89475c0.07414,0.24075 0.18678,0.45109 0.35694,0.59857c0.30148,0.2613 0.8043,0.33339 0.97522,0.69388c0.10606,0.22369 0.02957,0.49423 0.04436,0.74135v0.53875c0,0 0,0.15638 -0.08881,0.29153c0.17448,0.2741 0.33543,0.55567 0.49563,0.8454c0.49634,0.66684 0.94425,1.59659 0.84181,2.47778c0.08869,0.37262 0.10137,0.7507 -0.0344,1.11796c-0.45655,1.23498 -2.24927,1.36042 -3.34724,1.40853c-0.47352,0.02075 -0.82726,0.01726 -1.27082,-0.21661c-0.41378,-0.21817 -0.74504,-0.56579 -1.12579,-0.83778c-0.34749,-0.06583 -0.68733,-0.20243 -0.86869,-0.32728c-0.99603,-0.68565 -1.46344,-1.8374 -1.2304,-2.91465c-0.90523,0.06132 -1.72307,0.32045 -2.6438,0.4155c-0.31604,0.03263 -0.63915,-0.05035 -0.95316,-0.00193c-1.36336,0.21023 -2.50305,0.66434 -3.65561,1.38568c-0.06525,0.058 -0.14208,0.08953 -0.20634,0.10667c-0.08532,0.02696 -0.20385,0.04416 -0.32172,-0.00481l-0.2645,-0.03579c-0.59884,-0.33589 -1.25924,-0.56737 -1.89254,-0.83913c-0.20483,-0.08789 -0.46267,-0.09673 -0.61713,-0.25742c-0.02263,-0.02354 -0.0443,-0.04782 -0.06513,-0.07275l-0.01081,0.01081l-0.431,-0.431c-0.01459,-0.01459 -0.02825,-0.03011 -0.0409,-0.04645c-0.11568,0.95035 -0.38664,1.87718 -0.722,2.77594c-0.17535,0.46993 -0.43592,0.97325 -0.8668,1.23001c-0.5295,0.31553 -1.39401,0.33257 -2.07644,0.18084c-0.22425,0.05716 -0.46863,0.05947 -0.77176,-0.0304c-0.25329,-0.07509 -0.44621,-0.28296 -0.66931,-0.42445l-0.01081,-0.1228c-0.01454,-0.00579 -0.029,-0.0117 -0.04338,-0.01774l-0.02402,0.0096l-0.00962,-0.02405c-0.16524,-0.07247 -0.31867,-0.16267 -0.45231,-0.27618c-0.78637,-0.66793 -0.66085,-2.35529 -0.28476,-3.20248c0.14862,-0.33479 0.41683,-0.60284 0.61042,-0.91397l0.00539,-0.12467c0.0324,-0.1369 0.0536,-0.27695 0.0972,-0.4107c0.00805,-0.02469 0.02975,-0.051 0.05242,-0.07674h-0.16116c-0.26779,0 -0.48487,-0.21708 -0.48487,-0.48487c0,-0.17097 0.08849,-0.32128 0.22217,-0.40761l0.34759,-0.23173c0.11588,-0.80461 0.42212,-0.82721 0.98194,-1.32847c0.22287,-0.19956 0.3028,-0.51615 0.46254,-0.76907c0.16127,-0.25534 0.31416,-0.51492 0.46411,-0.77549c0.00036,-0.0169 0.00158,-0.03359 0.00363,-0.05002l0.0531,-0.47787l0.01794,0.00199c-0.00211,-0.02495 -0.00349,-0.05001 -0.00405,-0.07518c-0.00723,-0.32089 0.39,-0.71904 0.51423,-0.99574c0.16744,-0.37293 0.29893,-0.76465 0.50587,-1.1172c0.01605,-0.02734 0.0317,-0.05486 0.04698,-0.08254c0.30904,-0.74533 0.6324,-1.48445 1.02879,-2.17725c0.33375,-0.58333 0.79996,-1.10633 1.2178,-1.63498c0.20473,-0.32002 0.39115,-0.65065 0.5407,-1.00257l0.17353,-0.13759l0.23324,-0.36653l0.08678,0.05522c0.25415,-0.55692 0.64357,-0.93874 1.42972,-1.26649c0.14748,-0.06148 0.30342,-0.09449 0.46236,-0.1172l0.10929,-0.12751l0.01142,0.00979l0.01387,-0.03709c0.20212,-0.17353 0.47588,-0.50922 0.77466,-0.76033c-0.00053,-0.00932 -0.00081,-0.01872 -0.00081,-0.02818c0,-0.26779 0.21708,-0.48487 0.48487,-0.48487c0.18347,0 0.34314,0.1019 0.4255,0.2522c0.10827,0.05498 0.21388,0.15176 0.3147,0.30164c0.00583,-0.00351 0.01168,-0.00702 0.01754,-0.01051c-0.0023,-0.01916 -0.00349,-0.03868 -0.00349,-0.05846c0,-0.14841 0.06668,-0.28125 0.17171,-0.37019l0.37473,-0.3212l0.03373,0.03936c0.07396,-0.0703 0.15798,-0.12521 0.25809,-0.1555c0.21705,-0.06568 0.70351,0.28043 1.11152,0.62107c-0.00199,-0.03026 -0.00449,-0.06003 -0.00795,-0.089c-0.09517,-0.79683 0.15231,-1.73815 1.19869,-1.60511c0.78745,0.10012 0.91888,0.66234 1.08461,1.23115c0.58135,-0.07338 1.35205,0.64118 1.74254,0.88475l0.09036,0.47886c0.88752,0.37134 1.55492,0.91402 2.38035,1.40214l0.1118,0.14401c0.06071,0.05498 0.10072,0.11767 0.12255,0.15785l0.00374,0.00481c0,0 0.00327,0.00654 0.0082,0.01841c0.00559,0.01157 0.00831,0.01836 0.00831,0.01836c0.02286,0.05829 0.04257,0.11759 0.06018,0.17757c0.09693,0.0894 0.19804,0.17473 0.30732,0.2524z" fill="#2be03d"></path><path d="M155.6439,178.37704l0.19301,0.48138c0.03787,0.21194 0.15212,0.42399 0.11361,0.63581c-0.00265,0.01458 -0.00554,0.0291 -0.00867,0.04355h0.01062v0.48487c0,0.26779 -0.21708,0.48487 -0.48487,0.48487c-0.22316,0 -0.4111,-0.15076 -0.46755,-0.35598l-0.13549,-0.45164c-0.07663,0.01787 -0.16559,0.01542 -0.2645,-0.02645c-0.01932,-0.00594 -0.03747,-0.01272 -0.05452,-0.02024c-0.20184,0.41402 -0.45777,0.83228 -0.82396,1.05585c-0.34851,0.21278 -0.83278,0.17455 -1.21708,0.17558c-1.36994,0.00369 -2.28381,-0.1892 -3.0472,-1.40711c-0.12683,-0.20234 -0.30613,-0.38025 -0.37997,-0.60736c-0.20832,-0.64078 -0.12674,-1.34583 0.09711,-2.00779c-0.3355,-0.05938 -0.64303,-0.42743 -0.95176,-0.6186c-0.07918,-0.00792 -0.15238,-0.01063 -0.21339,0.00031c-0.23981,0.04299 -0.35151,0.09267 -0.4589,0.17677c-0.0426,0.09469 -0.12043,0.19329 -0.26262,0.23756c-0.0055,0.00495 -0.0111,0.00996 -0.0168,0.01504c0,0 -0.1245,0.10672 -0.29076,0.12363c-0.0005,0.17253 -0.01036,0.35326 -0.02952,0.54552c-0.18582,0.9081 -0.40488,1.04476 -1.08861,1.60041c-0.89657,0.72863 -1.66363,1.00534 -2.83241,0.74583c-0.49471,-0.10984 -0.92886,-0.33495 -1.28701,-0.63611c-0.00434,0.00012 -0.0087,0.00017 -0.01307,0.00017c-0.20813,0 -0.38563,-0.13113 -0.45439,-0.31528l-0.16385,-0.40963c-0.06624,-0.10485 -0.12615,-0.21326 -0.17942,-0.32446c-0.05737,0.08025 -0.11763,0.15827 -0.18106,0.23356l0.11673,0.0077c0,0 0,0.48487 -0.48487,0.48487c-0.48487,0 -0.48487,-0.48487 -0.48487,-0.48487l0.11673,-0.6388c0.13658,-0.15577 0.25164,-0.33037 0.3517,-0.51335c-0.02659,-0.11964 -0.05317,-0.23927 -0.07976,-0.3589c0,0 -0.09262,-0.41678 0.28706,-0.55506c-0.02941,-0.30866 -0.03274,-0.61602 0.0309,-0.8669c0.06991,-0.2756 0.08104,-0.65722 0.33541,-0.78427c0.19553,-0.09766 0.44936,-0.16033 0.68539,-0.15033c0.4335,-0.52064 1.21745,-1.16077 1.72884,-1.33333c0.25643,-0.08653 0.9528,0.00139 1.22784,0.03167c0.4574,0.05036 0.88979,0.05336 1.2617,0.40871c0.12392,0.11841 0.40793,0.88064 0.51632,1.08508c0.17505,0.33017 0.31256,0.63221 0.41315,0.93111c0.21103,-0.10965 0.43658,-0.19996 0.66816,-0.25773c0.30872,-0.12694 0.63475,-0.13826 1.02338,0.00052c0.14854,0.00101 0.30081,0.01394 0.45704,0.03922c0.27871,0.0451 0.69059,-0.03663 0.81935,0.21463c0.01644,0.03209 0.03166,0.06595 0.04553,0.10122c0.07352,-0.11629 0.14887,-0.22743 0.22467,-0.33241c0,0 0.08067,-0.11092 0.21519,-0.17187c0.14647,-0.16086 0.30479,-0.29066 0.47626,-0.36803c0.10108,-0.04561 0.97429,-0.03704 1.15529,-0.03691c0.32791,0.00025 0.77983,-0.01863 1.09647,0.07073c1.19078,0.33603 1.8031,1.35217 1.96736,2.4656c0.14606,-0.02356 0.36129,-0.00278 0.49458,0.2638c0.11862,0.23724 0.04257,0.4096 -0.05066,0.51706c0.01335,0.00979 0.02678,0.02044 0.04028,0.03201c0.07885,0.06758 0.12633,0.13758 0.15227,0.20585c0.05821,0.06903 0.0856,0.13291 0.0856,0.13291zM153.60776,176.35089c-0.26047,0.08217 -0.47637,-0.13373 -0.47637,-0.13373l-0.10812,-0.1345c-0.56841,-0.33232 -1.49865,-0.40373 -2.12171,-0.1041c-0.1791,0.08613 -0.38946,0.55872 -0.45143,0.66997c-0.07031,0.12622 -0.14519,0.24974 -0.22315,0.37139l-0.10061,0.50304c-0.0228,0.12697 -0.09503,0.23677 -0.19606,0.3088c-0.02648,0.26196 -0.0077,0.51908 0.07516,0.7574c0.41411,1.19104 1.4142,1.32251 2.49903,1.32575c0.04078,0.00012 0.62187,0.02623 0.7224,-0.03992c0.31146,-0.20492 0.5138,-0.78093 0.65467,-1.09829c0.22618,-0.72992 0.18696,-1.74798 -0.27382,-2.4258zM145.26311,174.45131c-1.22871,-0.284 -2.91776,0.1424 -3.22083,1.57754c-0.13051,0.61803 0.26616,1.32125 0.16983,1.8988c-0.00267,0.01598 -0.00555,0.03191 -0.00865,0.04778h0.01101v0.19853c0.27618,0.28211 0.6254,0.49014 1.01652,0.56628c0.92656,0.18035 1.31648,0.0213 2.0163,-0.54716c0.08209,-0.06668 0.59752,-0.33525 0.67771,-0.53378c0.05699,-0.14109 0.04361,-0.30119 0.06541,-0.45178c0.08936,-0.8898 -0.0748,-1.40387 -0.48678,-2.18317c-0.08346,-0.15786 -0.11748,-0.3435 -0.17155,-0.51625c-0.02613,-0.01699 -0.04898,-0.03619 -0.06897,-0.05678z" fill="#24bd33"></path><path d="M146.84768,185.08686c-0.48487,0 -0.48487,-0.48487 -0.48487,-0.48487l0.01155,-0.15906c0.03207,-0.14431 0.06414,-0.28863 0.09621,-0.43294c0.00013,-0.45029 0.00264,-0.8862 0.04448,-1.33319c-0.09022,-0.09754 -0.16986,-0.22776 -0.2358,-0.39697c-0.00405,-0.0104 -0.00794,-0.02084 -0.01168,-0.03131l-0.00535,0.00297l-0.13126,-0.23627c-0.26387,-0.23923 -0.52813,-0.47803 -0.79287,-0.7163c0,0 -0.3604,-0.32436 -0.03604,-0.68476c0.32436,-0.3604 0.68476,-0.03604 0.68476,-0.03604c0.177,0.1593 0.35378,0.31883 0.53038,0.47858c0.11566,0.02437 0.21612,0.08997 0.28531,0.18071l0.20549,0.2642c0.0365,0.03315 0.07299,0.06632 0.10948,0.09949l0.12153,0.10802c0.14772,-0.09916 0.34003,-0.12731 0.49458,-0.21899c0.1611,-0.09556 0.26753,-0.2991 0.45144,-0.3346c0.02582,-0.00498 0.0517,-0.00918 0.07765,-0.01267l-0.00594,-0.01783l0.47413,-0.15804c0.05124,-0.01842 0.10648,-0.02846 0.16407,-0.02846c0.26779,0 0.48487,0.21708 0.48487,0.48487c0,0.14841 -0.06668,0.28125 -0.17172,0.37019l-0.37473,0.3212l-0.01004,-0.01171l-0.01844,0.03432c-0.33068,0.20762 -0.79177,0.53427 -1.24108,0.69277c-0.08604,0.24705 -0.07263,0.54641 -0.07036,0.77502l-0.0561,0.5116c0,0 -0.00106,0.00956 -0.00423,0.02583c-0.00226,0.01642 -0.00435,0.02581 -0.00435,0.02581c-0.03591,0.16162 -0.07183,0.32325 -0.10775,0.48487l0.01155,-0.05131c0,0 0,0.48487 -0.48487,0.48487z" fill="#27cf38"></path><path d="M153.64826,171.04543c0,0 0.02559,-0.01599 0.06799,-0.03362c0.04212,-0.01829 0.07139,-0.02561 0.07139,-0.02561l0.00223,0.00016c0.03392,-0.00941 0.07229,-0.01688 0.11324,-0.01936c0.27272,-0.16986 0.5658,-0.34677 0.85745,-0.53552c0.12817,-0.17426 0.26325,-0.34059 0.40708,-0.49163c0.24649,-0.25886 0.63091,-0.34644 0.90328,-0.57793c0.12812,-0.10889 0.24298,-0.2626 0.35379,-0.4288c0.13902,-0.26609 0.37645,-0.74374 0.43969,-0.81646l0.20287,-0.45646c0.02634,-0.06305 0.06563,-0.11935 0.11452,-0.16558c0.08125,-0.1232 0.19587,-0.22624 0.29511,-0.33857c0.04872,-0.08847 0.13144,-0.17381 0.27189,-0.20857c0.08776,-0.03231 0.1957,-0.04329 0.31368,0.00761c0.1227,0.03813 0.19751,0.11672 0.24312,0.19836c0.08326,0.11673 0.09114,0.23427 0.07125,0.33261v0.14544c0,0.75948 -0.08448,1.41934 -0.21887,2.16328l-0.00818,0.15076c-0.33376,1.4812 -0.92835,3.31609 -2.50365,3.95522c-1.06498,0.43208 -2.50836,-0.13702 -2.64904,-1.3711c-0.3016,-0.47411 0.0483,-1.02711 0.56284,-1.41956c0.02635,-0.02347 0.05388,-0.04298 0.08033,-0.05903c0.00266,-0.00189 0.00533,-0.00376 0.008,-0.00564zM155.25133,173.01434c-0.21222,0.00317 -0.53904,0.0054 -0.75756,0.00565c0.22886,0.08962 0.50021,0.09263 0.75756,-0.00565z" fill="#24bd33"></path><path d="M144.69269,170.91786c-0.0123,0.22347 0.06875,0.47312 -0.03691,0.67042c-0.18924,0.35339 -0.49883,0.57277 -0.86561,0.69167c-0.86328,0.5279 -2.1875,0.29847 -2.91488,-0.29358l-0.13813,-0.52007c-0.28175,-0.70719 -0.57843,-1.3542 -0.85868,-2.03891c-0.37061,-0.90547 -0.2433,-2.19384 -0.13929,-3.14241c0,0 0.03555,-0.31993 0.30939,-0.40947c0.06818,-0.04544 0.15908,-0.07573 0.28027,-0.07573c0.48487,0 0.48487,0.48487 0.48487,0.48487c-0.00677,1.13596 0.7215,1.55083 1.54574,2.21037c0.55596,0.44486 0.93689,0.70895 1.61428,1.01002l0.32788,0.43237c0.09407,0.07583 0.13773,0.18174 0.158,0.26373c0.01558,0.05485 0.02731,0.12446 0.01974,0.19852z" fill="#24bd33"></path><path d="M149.56772,181.04668c0.09658,0.14487 0.10646,0.2724 0.07945,0.37637c0.06906,0.26621 -0.16075,0.47048 -0.16075,0.47048c-0.2033,0.17053 -0.40659,0.34106 -0.60989,0.5116l-0.15128,-0.03051l0.00771,0.06941l-0.47787,0.0531c-0.01984,0.00247 -0.04004,0.00374 -0.06055,0.00374c-0.26779,0 -0.48487,-0.21708 -0.48487,-0.48487c0,-0.17639 0.09419,-0.33078 0.23501,-0.41562l0.42388,-0.26492l0.01226,0.01961c0.09653,-0.10566 0.19796,-0.20641 0.3063,-0.29983l0.20822,-0.14305c0,0 0.40344,-0.26896 0.6724,0.13448z" fill="#24bd33"></path><path d="M146.46286,181.89928c-0.36814,0.31555 -0.68369,-0.05259 -0.68369,-0.05259l-0.29796,-0.34982c-0.11661,-0.09932 -0.23321,-0.19864 -0.34982,-0.29796c0,0 -0.36814,-0.31555 -0.05259,-0.68369c0.31555,-0.36814 0.68369,-0.05259 0.68369,-0.05259c0.13481,0.11618 0.26962,0.23236 0.40443,0.34853l0.34853,0.40443c0,0 0.31555,0.36814 -0.05259,0.68369z" fill="#24bd33"></path><path d="M139.59901,188.7047c-0.14092,0.74156 -0.13474,1.45755 -0.13254,2.23984l0.06057,-0.33316c0.01323,-0.08138 0.04672,-0.15596 0.09513,-0.2184c0.19747,-0.62244 0.51187,-1.13558 0.95983,-1.76455c0.1342,-0.18843 0.17079,-0.46521 0.36568,-0.58984c0.02503,-0.016 0.05053,-0.03099 0.07646,-0.04508c0.00253,-0.00687 0.00507,-0.01372 0.00762,-0.02057l-0.00212,-0.00319l0.0044,-0.00294c0.00365,-0.00979 0.00732,-0.01957 0.011,-0.02932c-0.24333,0.08777 -0.50218,0.25761 -0.71665,0.19266c-0.00023,0.00016 -0.00047,0.00032 -0.00071,0.00048c-0.19241,0.13004 -0.39174,0.22034 -0.59621,0.28264zM148.47779,184.83299c0.08529,0.02524 0.17577,0.03974 0.26998,0.0453c0.18968,-0.02255 0.37673,-0.05949 0.55603,-0.1324c0.42093,-0.17116 0.82701,-0.58596 1.1858,-0.85505c0,0 0.06662,-0.04997 0.16535,-0.08087c-0.00632,-0.06585 -0.01265,-0.1317 -0.01897,-0.19755l0.20997,0.13465c0.0089,-0.01669 0.01766,-0.03346 0.0263,-0.05029l-0.0719,-0.05214c0,0 0.06342,-0.10148 0.17767,-0.1721c0.01835,-0.04244 0.0359,-0.08517 0.05268,-0.12812c0,0 0.18007,-0.45019 0.63027,-0.27012c0.09734,0.03894 0.16522,0.0905 0.21182,0.14742c-0.00937,-0.1666 -0.01477,-0.33485 -0.01477,-0.50534c0,0 0,-0.48487 0.48487,-0.48487c0.48487,0 0.48487,0.48487 0.48487,0.48487c0,0.47036 -0.04385,0.94258 -0.00196,1.41107c0.03534,0.39516 0.16185,0.74969 0.21828,1.12409c0.1533,0.01721 0.28497,0.1059 0.36092,0.23196l0.26492,0.42388l-0.01285,0.00803c0.16071,0.13807 0.32199,0.27515 0.48751,0.40807c0.02239,0.00146 0.04081,0.00249 0.05419,0.0031c1.10133,0.04999 2.00342,0.04104 2.94532,-0.56957c0.48932,-0.31722 0.98689,-0.43129 1.10078,-0.88434c-0.09711,-0.33496 -0.19598,-0.66824 -0.25553,-1.02914c-0.23742,-0.03143 -0.42063,-0.23464 -0.42063,-0.48065v-0.64649c-0.02535,-0.02781 -0.01789,-0.06349 -0.00046,-0.10205c-0.00148,-0.09661 -0.00534,-0.18084 -0.01385,-0.25827c-0.05776,-0.01812 -0.13257,-0.01676 -0.1888,-0.03663l-0.26729,-0.50907c0,0 -0.05231,-0.20923 0.05239,-0.38349c-0.03914,-0.14203 -0.03999,-0.35273 0.20292,-0.51467c0.40344,-0.26896 0.6724,0.13448 0.6724,0.13448c0.20175,0.31082 0.32774,0.56183 0.4043,0.82508c0.01772,0.02194 0.03363,0.04543 0.04735,0.07082c0.12937,0.2394 0.12571,0.50751 0.06078,0.7738v0.27314c0.05171,0.00902 0.09651,0.02634 0.13524,0.04883c0.12477,0.06785 0.18545,0.18695 0.2145,0.27612c0.01309,0.03666 0.01797,0.06107 0.01797,0.06107l0.00234,0.01826c0.00425,0.02275 0.0054,0.03656 0.0054,0.03656c0.00043,0.00525 0.00087,0.0105 0.00131,0.01574l0.01245,0.09697c0.08941,0.21061 0.1713,0.44256 0.22631,0.68277c0.01024,-0.00064 0.02057,-0.00097 0.03098,-0.00097c0.26779,0 0.48487,0.21708 0.48487,0.48487v0.49851c0.00116,0.15268 0.04022,0.31328 0.03373,0.46437c0.09094,0.41374 0.13035,0.84157 0.12789,1.35373c-0.00216,0.45011 0.05589,0.92588 -0.26116,1.31793c-0.17917,0.22156 -0.44279,0.37125 -0.70425,0.48452c-0.3824,0.16566 -0.92818,0.13122 -1.38361,0.13056c-0.1451,0.35298 -0.44828,0.88225 -0.51651,1.00159c-0.04613,0.08067 -0.09263,0.15842 -0.13966,0.23354c-0.33051,1.17508 -0.94357,2.25232 -2.0959,2.86032c-0.29851,0.1575 -0.90314,0.25641 -1.23821,0.3234l-0.02424,-0.0044l0.00073,0.00733l-0.53225,0.05323c-0.01797,0.00202 -0.03623,0.00306 -0.05474,0.00306c-0.00225,0 -0.0045,-0.00002 -0.00675,-0.00005c-1.02989,0.22101 -2.21938,0.04681 -3.22669,0.26652l-0.53778,0.00289c0,0 -0.0693,0 -0.15549,-0.0262c-0.07954,0.10247 -0.19926,0.17219 -0.33552,0.1855l-0.47906,0.05323l-0.00077,-0.00688c-0.00862,0.00312 -0.01727,0.00616 -0.02597,0.0091c-0.56471,0.19132 -1.53203,0.03659 -2.19983,0.0058c-0.13501,0.21044 -0.41296,0.21044 -0.41296,0.21044l-0.36446,-0.00942c-1.82497,-0.36708 -3.68991,-0.16241 -5.51937,-0.42601c-0.71951,-0.10367 -1.2875,-0.48087 -1.93774,-0.75016c-0.15127,0.01239 -0.29467,-0.00335 -0.4293,-0.04235c-0.30967,0.00123 -0.59743,-0.03841 -0.83136,-0.15898c-0.27289,-0.14064 -0.53762,-0.3494 -0.67959,-0.6216c-0.03839,-0.0736 -0.05663,-0.1532 -0.06368,-0.2359c-0.15138,-0.14918 -0.30321,-0.32125 -0.46603,-0.52356c0,0 -0.0321,-0.04013 -0.06235,-0.10472c-0.82896,-0.91294 -0.28507,-1.97417 0.22079,-3.02892c-0.04661,-0.01702 -0.08987,-0.04098 -0.12854,-0.07064l-0.42708,-0.32031l0.0635,-0.08467l-0.20626,-0.08639c-0.0158,-0.22392 -0.01873,-0.44194 -0.01086,-0.65543c-0.2039,-0.4673 -0.27882,-1.40861 -0.18898,-1.77392c0.14016,-0.56993 0.55671,-0.88038 0.84663,-1.32283c0.03827,-0.28425 0.08758,-0.56054 0.18784,-0.8285h-0.0777v-0.02759c-0.18832,-0.06656 -0.32325,-0.24616 -0.32325,-0.45728c0,-0.10189 0.03143,-0.19643 0.08511,-0.27447l0.3154,-0.4731c0.08633,-0.13368 0.23664,-0.22217 0.40761,-0.22217c0.26779,0 0.48487,0.21708 0.48487,0.48487v0.11196c0.0621,0.26921 0.11167,0.51959 0.12811,0.76663c0.06305,0.16343 0.01486,0.33211 0.01486,0.33211c-0.00721,0.02521 -0.01431,0.05045 -0.02132,0.07572c-0.02069,0.19488 -0.06885,0.39295 -0.15448,0.60173c-0.06963,0.28255 -0.13923,0.56508 -0.22471,0.84293l0.13122,0.05832l-0.05654,0.12722l0.26618,0.05165c0.01009,0.11265 0.01468,0.22609 0.02114,0.33927c0.41642,0.09756 0.83333,0.38322 1.28275,0.47293c0.52097,0.104 1.07807,0.08857 1.60561,0.09911c0.24217,0.00484 0.53194,-0.1118 0.74455,-0.02485c0.09155,-0.26669 0.19911,-0.53238 0.28296,-0.796c-0.04569,-0.29214 -0.09543,-0.58514 -0.13184,-0.87935c-0.04035,-0.07074 -0.0634,-0.15262 -0.0634,-0.23989v-0.48487c0,-0.33526 -0.00524,-0.65834 0.00348,-0.97645c-0.00348,-0.02912 -0.00348,-0.04716 -0.00348,-0.04716v-0.48487c0.00081,-0.56271 -0.06692,-2.169 1.20479,-1.6632c0.3081,0.12254 0.19344,0.63609 0.24982,0.96283c0.04288,0.24851 0.07076,0.61556 0.06023,0.98748c0.0743,0.0712 0.14721,0.14539 0.21824,0.21958c0.0752,-0.04793 0.16449,-0.0757 0.26027,-0.0757c0.18912,0 0.35295,0.10827 0.43288,0.26621c0.15459,0.02627 0.26637,0.12564 0.26637,0.12564c0.41497,0.3699 0.98118,1.23415 1.54236,1.40682c0.42855,0.13186 1.02288,-0.0988 1.47573,-0.0208c0.12882,0.02219 0.28715,0.01737 0.43652,0.02553l-0.00311,-0.03115l0.13023,-0.52482c0,0 0.15333,-0.45999 0.61332,-0.30666c0.45999,0.15333 0.30666,0.61332 0.30666,0.61332l-0.05301,0.07564c0.02402,0.08276 0.02402,0.14815 0.02402,0.14815v0.1004c0.07086,0.00565 0.13149,0.02904 0.18234,0.06037c0.30955,0.11322 0.59256,0.29981 0.90903,0.39348zM150.62547,186.16438c-0.04567,0.02625 -0.99673,0.24183 -1.10231,0.26101c-1.03831,0.18861 -2.08799,0.18743 -3.13892,0.17698c-0.17224,0.053 -0.3438,0.11049 -0.51984,0.14535c-0.80304,0.15905 -1.65145,0.11699 -2.4647,0.11699h-0.15727c-0.11064,0.05234 -0.22051,0.10945 -0.32968,0.16969c0.04958,0.20966 0.02086,0.48603 0.05595,0.69231c0.09786,0.57515 0.01012,1.21227 -0.00383,1.81411c0.1116,0.10386 0.21844,0.22615 0.32263,0.35188c0.20217,0.09856 0.40496,0.19738 0.61268,0.29191c0.37081,0.12332 0.71683,0.32803 1.0997,0.40619c0.42434,0.08662 0.90954,0.10223 1.40447,0.08186c0.2001,-0.02169 0.419,-0.05747 0.63812,-0.08475c0.12408,-0.06596 0.24819,-0.13214 0.37666,-0.18559c1.42066,-0.59108 2.87549,-1.07341 4.27027,-1.75958c0.50211,-0.24701 0.95465,-0.6873 1.38693,-1.11918c-0.1684,-0.08352 -0.33989,-0.16324 -0.51519,-0.24113l-0.03918,-0.16404l-0.06419,0.03566l-0.2651,-0.47717c-0.0116,-0.01996 -0.0218,-0.04083 -0.0305,-0.06247c-0.12613,-0.05069 -0.22602,-0.15285 -0.27368,-0.28049l-0.2113,-0.52826l0.00528,-0.00211l-0.01037,-0.01119c-0.05422,-0.16826 -0.09308,-0.32574 -0.12093,-0.47889c-0.28343,0.3229 -0.57899,0.65163 -0.9257,0.85089zM144.02422,192.42144c0.42342,0.08151 0.81406,0.29529 1.23748,0.37683c0.79116,0.15236 1.71983,0.10981 2.54699,0.10161c0.02402,-0.00144 0.04772,-0.00179 0.07097,-0.00062c0.05154,-0.00038 0.10264,-0.0006 0.15327,-0.0006h0.53875v0c0.05037,0 0.09895,0.00768 0.14464,0.02194c0.14036,-0.18356 0.39411,-0.18356 0.39411,-0.18356l0.43196,0.0029c0.93656,-0.21236 2.10117,-0.0147 3.06278,-0.22688l0.21183,-0.28244c0.08363,-0.15805 0.19469,-0.31095 0.36829,-0.48293c0.39868,-0.39497 1.03076,-0.51693 1.40074,-0.91587c0.35381,-0.38151 0.51221,-0.91746 0.86707,-1.29799c0.11554,-0.1239 0.30973,-0.15106 0.431,-0.26937c0.06894,-0.06726 0.12804,-0.14245 0.18123,-0.22236c-0.14629,0.00069 -0.29171,-0.00617 -0.43511,-0.02529c-0.44872,-0.05982 -0.69954,-0.22985 -0.95392,-0.44127c-0.11281,0.24254 -0.36159,0.41269 -0.56163,0.59543c-0.57262,0.5231 -1.3645,0.91358 -2.04076,1.25264c-0.4492,0.22522 -0.76607,0.50317 -1.24376,0.67096c-0.4614,0.16207 -0.95519,0.2188 -1.44773,0.26115c-0.30747,0.08568 -0.6197,0.14207 -0.93465,0.17915l-0.41075,0.14937l-0.0093,-0.02559l-0.0525,0.04351c-0.45409,0.04039 -0.90868,0.25452 -1.35689,0.17123c-0.01337,-0.00248 -0.0267,-0.00511 -0.03999,-0.00788v0.00953h-0.70037c-0.16282,0 -0.3069,-0.08026 -0.39484,-0.20337c-0.31674,-0.00161 -0.6331,-0.01478 -0.94792,-0.04268c-0.06998,0.04788 -0.15315,0.0779 -0.24293,0.08349l-0.75025,0.05359l-0.00059,-0.00833c-0.01357,0.00329 -0.02718,0.00647 -0.04083,0.00952c-0.19198,0.04291 -0.55597,-0.04055 -0.85689,-0.12216c-0.33319,0.0714 -0.83106,-0.12699 -1.21112,-0.35919c-0.03673,0.21442 -0.07339,0.42901 -0.1071,0.64444c0.05319,0.00443 0.17586,0.02276 0.28088,0.09856c0.81026,0.10406 1.62025,0.23898 2.41788,0.39254zM142.00759,190.39724c-0.00384,-0.01282 -0.00752,-0.02581 -0.01106,-0.03896c-0.00795,-0.00324 -0.01591,-0.00646 -0.02388,-0.00967l-0.02299,-0.00511c0.01885,0.01925 0.03817,0.03713 0.05792,0.05375zM157.69051,186.57917l0.03259,-0.03801c-0.01683,0.01192 -0.03362,0.02389 -0.05039,0.0359c0.00593,0.00069 0.01187,0.0014 0.0178,0.00211z" fill="#1c9228"></path><path d="M146.94707,177.18151c0.02203,-0.19232 0.17394,-0.32524 0.17394,-0.32524c0.04428,-0.03298 0.0864,-0.07158 0.12767,-0.11237l0.0377,-0.05249c0.02708,-0.02024 0.05322,-0.04288 0.07882,-0.06686c0.02411,-0.02472 0.04836,-0.04908 0.07303,-0.07236c0.12479,-0.12834 0.24598,-0.26586 0.41412,-0.2839c0.83231,-0.08933 1.45054,0.22159 1.25721,1.14335c-0.00529,0.02525 -0.01173,0.05006 -0.01916,0.07447l0.00847,0.00188l-0.10568,0.47555c-0.04449,0.22187 -0.24043,0.38901 -0.4754,0.38901c-0.16994,0 -0.31945,-0.08742 -0.40603,-0.21974c-0.03911,0.01586 -0.07684,0.03305 -0.11232,0.0524l-0.12193,-0.05026l-0.00589,0.05301l-0.47906,-0.05323c-0.24538,-0.02398 -0.43714,-0.23087 -0.43714,-0.48255c0,-0.00886 0.00024,-0.01767 0.00071,-0.02642c-0.10475,-0.16918 -0.0517,-0.34931 -0.00906,-0.44425z" fill="#1c9228"></path><path d="M153.3665,177.11343c0,-0.01672 0.00085,-0.03325 0.0025,-0.04954c-0.03745,-0.0483 -0.07356,-0.09314 -0.10895,-0.13469l-0.22677,0.02062l-0.00124,-0.01362c-0.02442,0.00538 -0.04898,0.01027 -0.07367,0.01462c-0.17021,0.03 -0.33474,-0.09296 -0.50677,-0.10965c-0.30388,-0.02948 -0.65625,-0.06842 -0.98281,-0.03683c-0.05459,0.04132 -0.10532,0.08674 -0.15064,0.13275c0,0 -0.08292,0.0737 -0.20468,0.11094l-0.23213,0.27082c-0.08894,0.10503 -0.22178,0.17171 -0.37019,0.17171c-0.05423,0 -0.10637,-0.0089 -0.15506,-0.02532c-0.12205,0.05261 -0.28768,0.0658 -0.47108,-0.08093c-0.15051,-0.12041 -0.19332,-0.25278 -0.19028,-0.36858c-0.1449,-0.25472 0.0514,-0.51646 0.0514,-0.51646c0.13615,-0.1797 0.27957,-0.34174 0.42941,-0.48519c0.18887,-0.30632 0.56537,-0.50426 0.93408,-0.61651c0.72814,-0.28956 1.54331,-0.21248 2.38233,0.30149l0.02047,0.03195l0.008,-0.00934l0.37473,0.3212c0.09942,0.08418 0.16447,0.20769 0.17115,0.34651c0.05711,0.06808 0.11458,0.14057 0.17297,0.21763l0.06254,0.32662c0.02221,0.0556 0.03443,0.11627 0.03443,0.1798c0,0.06128 -0.01137,0.11991 -0.03211,0.17389c-0.04726,0.13909 -0.16406,0.31098 -0.45276,0.31098c-0.2887,0 -0.4055,-0.17189 -0.45276,-0.31098c-0.02074,-0.05398 -0.03211,-0.11261 -0.03211,-0.17389z" fill="#1c9228"></path><path d="M144.2617,176.08981v-0.09263c-0.4796,0.04469 -0.93987,0.03876 -1.50849,0.03876h-0.39383c-0.0323,0.14672 -0.08424,0.65306 -0.09105,0.71989v0.51923c0,0.26779 -0.21708,0.48487 -0.48487,0.48487c-0.23075,0 -0.42385,-0.16119 -0.47285,-0.37711l-0.15916,-0.63665l0.01193,-0.00298c-0.00793,-0.01829 -0.01552,-0.03674 -0.02277,-0.05537c-0.08816,-0.22663 -0.03833,-0.48983 0.00263,-0.72953c0.15008,-0.87821 0.72306,-1.27977 1.41862,-1.40864c0.7738,-0.47263 1.75934,-0.72997 2.40901,-0.3443c0.29006,0.1722 0.71204,0.70699 0.66621,1.17297c0.02883,0.0488 0.056,0.09914 0.08345,0.14899l0.01733,0.013c0,0 0.15372,0.11529 0.19505,0.29748c0.00257,0.00305 0.00514,0.0061 0.00771,0.00915c0.1082,0.06594 0.20669,0.18598 0.20669,0.40451c0,0.0603 -0.0075,0.1131 -0.02063,0.15933l0.01766,0.00196l-0.05323,0.47906c-0.02398,0.24538 -0.23087,0.43714 -0.48255,0.43714c-0.23497,0 -0.4309,-0.16714 -0.4754,-0.38901l-0.10324,-0.46459c-0.00052,-0.00188 -0.00103,-0.00376 -0.00155,-0.00563c-0.19398,-0.12485 -0.35342,-0.24664 -0.49855,-0.37988z" fill="#1c9228"></path><path d="M157.73896,169.33249c0.454,0.17025 0.28375,0.62425 0.28375,0.62425l-0.1512,0.40007c-0.02483,0.08252 -0.05434,0.18522 -0.08751,0.29678c-0.00187,0.04459 -0.00553,0.09055 -0.01087,0.1377l0.00811,0.07302l-0.00616,0.00068c0.00286,0.00866 0.00565,0.01734 0.00838,0.02605c0.05102,0.16275 0.00262,0.34113 0.00074,0.51169c-0.01274,1.15472 -0.6332,1.78606 -1.52169,2.15107c-0.00602,0.00468 -0.01204,0.00931 -0.01805,0.01388c-0.31385,0.23831 -1.19969,0.71416 -1.608,0.27687c-0.1762,-0.07263 -0.30022,-0.24606 -0.30022,-0.44847c0,-0.17971 0.09777,-0.33659 0.24303,-0.42034l0.09397,-0.05639c0.0176,-0.04789 0.03446,-0.09454 0.04918,-0.13929c0.05982,-0.18181 0.24816,-0.29156 0.36696,-0.44162c0.45852,-0.57919 1.01764,-1.03789 1.46914,-1.61579l0.24856,-0.49712c0.03402,-0.07176 0.08513,-0.13383 0.14809,-0.18096l0.15954,-0.42834c0,0 0.17025,-0.454 0.62425,-0.28375z" fill="#1c9228"></path><path d="M142.34879,172.34164c-0.35629,-0.0346 -0.81524,-0.09248 -1.00264,-0.21681c-0.19485,-0.12927 -0.27445,-0.37878 -0.40485,-0.57288c-0.33263,-0.4951 -0.66163,-0.94814 -0.88437,-1.46795c-0.0348,-0.05449 -0.06703,-0.10988 -0.09614,-0.16637c-0.11571,-0.22454 -0.29628,-0.48156 -0.22456,-0.72377c0.0147,-0.04965 0.03363,-0.09716 0.05597,-0.14297l-0.03109,-0.01036l0.15809,-0.47426c0.06093,-0.19813 0.24541,-0.34215 0.46353,-0.34215c0.26779,0 0.48487,0.21708 0.48487,0.48487v0.45405c0.09888,0.65697 1.05446,1.2746 1.46248,1.83718c0.08423,0.11613 0.09447,0.28912 0.20805,0.37675c0.0832,0.06419 0.2642,-0.06345 0.31542,0.02575h0.43839c0.26779,0 0.48487,0.21708 0.48487,0.48487c0,0.26779 -0.21708,0.48487 -0.48487,0.48487h-0.5478c-0.12942,0.01886 -0.26505,0.00542 -0.39537,-0.03083z" fill="#1c9228"></path><path d="M140.34748,183.25929c-0.01727,-0.11422 -0.00147,-0.28997 0.21753,-0.38951c0.34332,-0.15605 0.49937,0.18727 0.49937,0.18727c0.33066,0.72771 0.59055,1.37626 1.0535,1.91206c0.16262,0.10367 0.35619,0.17715 0.62899,0.23622c0.17639,0.03819 0.37274,-0.01694 0.53875,0.05387c0.31158,0.13293 0.81274,0.20703 0.85929,0.54256c0.04988,0.35961 -0.36436,0.65855 -0.66429,0.86312c-0.20622,0.14066 -0.48365,0.07008 -0.74499,0.06031c-0.0138,0.04979 -0.03536,0.09636 -0.06327,0.13834l-0.45672,0.71045c-0.01271,0.02431 -0.02518,0.04909 -0.03741,0.07429c-0.10776,0.41946 -0.21882,0.83775 -0.3303,1.2555c-0.01169,0.17137 -0.00947,0.34239 0.00917,0.50792c0.04269,0.03278 0.08514,0.06778 0.12705,0.10355c0.05311,0.01038 0.08715,0.024 0.08715,0.024c0.3014,0.1208 0.59536,0.26242 0.88827,0.40705c0.66898,0.21645 1.27413,0.56428 1.93529,0.79689c0.10056,0.02388 0.20239,0.04424 0.30569,0.06051c1.48325,0.2336 3.11172,-0.12158 4.42026,-0.77015c0.10759,-0.06361 0.2119,-0.12654 0.31219,-0.18719c0.65187,-0.39414 1.36959,-0.69679 2.10437,-0.88482c0.00872,-0.00523 0.01744,-0.01046 0.02617,-0.01568l-0.04523,-0.09046l0.53002,-0.26501c0.06738,-0.03547 0.14413,-0.05555 0.22556,-0.05555c0.26779,0 0.48487,0.21708 0.48487,0.48487c0,0.16065 -0.07813,0.30305 -0.19846,0.39128l-0.42648,0.31986l-0.0067,-0.00893l-0.01367,0.0234c-0.19199,0.11531 -0.38398,0.23061 -0.57597,0.34592c-0.53596,0.26598 -1.15253,0.3536 -1.66588,0.64415c-0.13859,0.07844 -0.28142,0.15346 -0.42793,0.22482c-1.4665,0.79232 -3.22263,1.25358 -4.88813,0.84536c-0.19458,-0.04769 -0.3862,-0.10595 -0.57596,-0.17118c-0.18824,-0.05387 -0.3723,-0.11771 -0.55358,-0.18836c-0.04972,0.21494 -0.24235,0.37516 -0.4724,0.37516c-0.0205,0 -0.04071,-0.00127 -0.06055,-0.00374l-0.47787,-0.0531l0.00483,-0.04347l-0.09564,0.02445c-0.2658,-0.14059 -0.47713,-0.23988 -0.67085,-0.34692c-0.00361,0.00024 -0.00722,0.00044 -0.01081,0.00058c-0.14208,0.01492 -0.25607,-0.04774 -0.33232,-0.11065c-0.01246,-0.00909 -0.01921,-0.01488 -0.01921,-0.01488c-0.14663,-0.13301 -0.27391,-0.27982 -0.38291,-0.43743c-0.02216,-0.02111 -0.04628,-0.04194 -0.07164,-0.06267c-0.07551,0.25571 -0.13586,0.4985 -0.14538,0.79901c0.04981,0.06544 0.07268,0.12261 0.07268,0.12261c0.04305,0.13278 0.04267,0.28878 0.12916,0.39834c0.34403,0.43577 1.134,0.01246 1.46606,0.60611c0.85429,1.5273 -0.67279,1.38883 -1.65888,1.11098c-0.08948,0.01211 -0.16452,0.00504 -0.22739,-0.0144c-0.02526,0.02364 -0.05286,0.04507 -0.08298,0.06397c-0.42334,0.26569 -0.79362,0.07265 -1.06501,-0.23451c0.01243,0.04291 0.0191,0.08828 0.0191,0.1352c0,0.26779 -0.21708,0.48487 -0.48487,0.48487h-0.59262v-0.04743l-0.10065,0.03686c-0.43644,-0.1975 -0.80374,-0.46521 -1.10575,-0.78378c-0.96761,-0.57497 -2.27457,-0.51854 -2.70884,-1.76995c-0.20029,-0.57718 -0.11767,-1.2088 0.01184,-1.84019c-0.09062,-0.64272 -0.10172,-1.37465 0.07937,-1.86115c-0.17728,-0.17776 -0.39858,-0.32627 -0.5029,-0.55249c-0.16039,-0.34779 -0.07054,-1.32238 -0.03631,-1.71819c0.02138,-0.24722 -0.0565,-0.55015 0.10713,-0.7367c0.01626,-0.01854 0.03316,-0.03629 0.05064,-0.05334c0.01926,-0.17863 0.04056,-0.35635 0.06009,-0.53235l-0.00297,-0.0542c0,0 0,-0.48487 0.48487,-0.48487c0.48487,0 0.48487,0.48487 0.48487,0.48487l-0.00092,0.04994c0.16015,0.07917 0.27029,0.24418 0.27029,0.43493v0.23121c0.0992,0.08878 0.16162,0.21781 0.16162,0.36141v0.42434c0.03585,0.05131 0.05402,0.13059 0.09821,0.17533c0.06036,0.06111 0.7075,0.58081 0.72773,0.59153c0.75134,0.39793 1.78637,0.40096 2.6226,0.44109l0.4435,-0.2661c0.07436,-0.04639 0.1622,-0.0732 0.2563,-0.0732c0.05589,0 0.10958,0.00946 0.15954,0.02686c0.09239,-0.20581 0.17261,-0.41839 0.24775,-0.63317c0.03662,-0.25969 0.09047,-0.53875 0.11641,-0.77415c-0.15592,-0.17077 -0.2813,-0.33615 -0.35028,-0.47549c-0.15537,-0.31386 -0.12428,-0.61443 -0.12601,-0.94445v-0.3448c0,0 0,-0.18809 0.13284,-0.2986zM137.9045,191.71343v0.32325c0,0 0,0.05134 -0.01671,0.12061c0.02981,0.04873 0.06108,0.09695 0.09381,0.14461c0.09274,0.13502 0.17355,0.27025 0.25723,0.39732c0.25344,0.15395 0.50437,0.32694 0.74944,0.50119l0.44926,0.08168c0.06868,0.01117 0.13252,0.03677 0.18831,0.07358c-0.12697,-0.20393 -0.21475,-0.41495 -0.25376,-0.56111c-0.15773,-0.59101 -0.05823,-1.8448 0.11094,-2.44441c0.063,-0.22329 0.11025,-0.48206 0.28452,-0.63522c0.02235,-0.01964 0.04527,-0.03843 0.06872,-0.05646l-0.01189,-0.01189l0.431,-0.431l0.04286,0.04286c0.03798,-0.14839 0.08025,-0.29692 0.13072,-0.44535l0.29686,-0.48138c0,0 0.09691,-0.15506 0.26693,-0.21522c0.0233,-0.10218 0.05033,-0.20326 0.08093,-0.30278c-0.05888,-0.0141 -0.12098,-0.03794 -0.18671,-0.07304c-0.2384,0.36395 -0.53993,0.66634 -0.93545,0.82038c-0.22251,0.08666 -0.47428,0.05633 -0.71193,0.07969c-0.1642,0.01614 -0.35565,0.04162 -0.56357,0.06866c-0.5634,0.83636 -0.77295,2.00254 -0.7715,3.00402z" fill="#177821"></path><path d="M144.0462,175.38944c-0.16162,0 -0.53875,0 -0.70037,0c0,0 -0.48487,0 -0.48487,-0.48487c0,-0.48487 0.48487,-0.48487 0.48487,-0.48487c0.03149,0 0.06298,0 0.09446,0c0.11661,-0.26937 0.44428,-0.26937 0.44428,-0.26937c0.78353,0.01909 1.47425,0.19612 1.89777,0.95005c0.15534,0.27653 0.50086,0.62142 0.33381,0.89103c-0.84358,1.36159 -1.561,0.05563 -1.95504,-0.61734c-0.06637,0.01536 -0.11492,0.01536 -0.11492,0.01536z" fill="#177821"></path><path d="M152.88121,176.33162c-0.27652,0.18435 -0.48986,0.05281 -0.59673,-0.04819l-0.05833,0.06805l-0.01957,-0.01677c-0.02706,0.03882 -0.05662,0.07593 -0.08929,0.11095c-0.25314,0.27137 -0.71356,0.23205 -1.02592,0.43244l-0.36473,0.0737c0,0 -0.13312,0 -0.25986,-0.06975c-0.02129,0.01372 -0.04256,0.02777 -0.0638,0.04219c0,0 -0.40344,0.26896 -0.67239,-0.13448c-0.26896,-0.40344 0.13448,-0.6724 0.13448,-0.6724c0.08627,-0.05669 0.17247,-0.10887 0.25873,-0.15783c-0.01514,-0.23262 0.17955,-0.3995 0.17955,-0.3995c0.81334,-0.66456 1.48769,-0.67138 2.418,-0.22717l0.29434,0.32635c0,0 0.26896,0.40344 -0.13448,0.67239z" fill="#177821"></path><path d="M140.59822,169.78649c0.32979,0 0.43527,0.22432 0.46901,0.3678c0.20768,0.0203 0.34472,0.19651 0.34472,0.19651c0.48359,0.62179 0.58749,0.91922 1.3895,1.00046v0l0.53341,0.05334c0.24769,0.02172 0.44196,0.22967 0.44196,0.483c0,0.23497 -0.16714,0.4309 -0.38901,0.4754l-0.47555,0.10568l-0.00477,-0.02146c-0.03475,0.01297 -0.0703,0.02407 -0.10679,0.03296c-0.26615,0.06488 -0.54007,-0.10183 -0.79989,-0.18866c-1.02595,-0.34287 -1.25248,-0.87278 -1.80602,-1.69732l-0.08143,-0.32283c0,0 0,-0.48487 0.48487,-0.48487z" fill="#177821"></path><path d="M155.11773,172.80433c0.06822,-0.20694 0.33345,-0.28214 0.48213,-0.44143c0.21289,-0.2281 0.46339,-0.62579 0.63628,-0.88527l0.01772,-0.0319c0.01199,-0.04964 0.02311,-0.0991 0.03341,-0.1482c0,0 0.04958,-0.2231 0.23383,-0.32893c0.08726,-0.1282 0.23435,-0.21239 0.40112,-0.21239c0.26779,0 0.48487,0.21708 0.48487,0.48487c0,0.0205 -0.00127,0.04071 -0.00374,0.06055l-0.0531,0.47787l-0.03544,-0.00394c0.00244,0.04764 0.00209,0.09546 -0.00171,0.14351c-0.01415,0.17908 -0.21836,0.2791 -0.33791,0.41907c-0.19681,0.47786 -0.47332,0.9011 -0.87901,1.27297l-0.01826,0.00609l0.00386,0.00514l-0.42708,0.32031c-0.0817,0.06267 -0.18392,0.09991 -0.29484,0.09991c-0.25383,0 -0.46211,-0.19505 -0.48313,-0.44344c-0.03851,-0.15403 0.01645,-0.27965 0.08031,-0.36628l0.10445,-0.31334l0.02361,0.00787c0.00853,-0.04143 0.01926,-0.08247 0.03263,-0.12304z" fill="#177821"></path><path d="M149.11191,177.2547c-0.3029,0.37862 -0.68152,0.07572 -0.68152,0.07572l0.18685,-0.13413c-0.16162,0.05387 -0.32325,0.10775 -0.48487,0.16162c0,0 -0.45999,0.15333 -0.61332,-0.30666c-0.15333,-0.45999 0.30666,-0.61332 0.30666,-0.61332c0.16162,-0.05387 0.32325,-0.10775 0.48487,-0.16162l0.7256,0.29687c0,0 0.37862,0.3029 0.07572,0.68152z" fill="#177821"></path><path d="M144.42365,178.99607c-0.40082,-0.04453 -0.43122,-0.38541 -0.4301,-0.49886c-0.06812,-0.0835 -0.10897,-0.19013 -0.10897,-0.30629v-0.53875c0.005,-0.59191 0.16221,-1.08098 0.21791,-1.66448c0,0 0.04825,-0.48246 0.53071,-0.43422c0.08168,0.00817 0.14814,0.02878 0.20221,0.05739c0.39604,0.05528 0.39604,0.47895 0.39604,0.47895v0.10775c0,0.32873 0.15126,1.63339 -0.04436,1.87272c-0.0435,0.05322 -0.09291,0.09932 -0.14669,0.14019l0.02172,0.02534l-0.0731,0.06266l-0.02992,0.26924c0,0 -0.05354,0.4819 -0.53545,0.42836z" fill="#146c1d"></path><path d="M150.05116,179.39595c0.02194,-0.07122 0.04388,-0.14245 0.06582,-0.21368c-0.04158,-0.18394 0.02149,-0.41541 0.01704,-0.61145c-0.01504,-0.663 0.29919,-0.91271 0.26937,-1.51571l0.10506,-0.35123c0,0 0.21684,-0.46928 0.65052,-0.23464c0.06624,0.03584 0.11731,0.07716 0.15629,0.12144c0.43499,0.03469 0.43499,0.52273 0.43499,0.52273c-0.00091,0.89355 0.00674,4.07275 -1.47603,2.32533z" fill="#146c1d"></path><path d="M143.88458,176.08981c0,-0.14877 0.1206,-0.26937 0.26937,-0.26937c0.14877,0 0.26937,0.1206 0.26937,0.26937c0,0.14877 -0.1206,0.26937 -0.26937,0.26937c-0.14877,0 -0.26937,-0.1206 -0.26937,-0.26937z" fill="#2be23d"></path><path d="M150.34952,176.9518c0,-0.14877 0.1206,-0.26937 0.26937,-0.26937c0.14877,0 0.26937,0.1206 0.26937,0.26937c0,0.14877 -0.1206,0.26937 -0.26937,0.26937c-0.14877,0 -0.26937,-0.1206 -0.26937,-0.26937z" fill="#2be23d"></path><path d="M143.66886,170.12272c-0.0745,0.53535 -0.83559,0.66496 -1.21779,0.56955c-0.64283,-0.16048 -0.7257,-0.56159 -1.11275,-0.98036c-0.3575,-0.38681 -0.58842,-0.35571 -0.71444,-0.92007c-0.03616,-0.16196 -0.11523,-0.36508 -0.11698,-0.53541c-0.42913,-0.51691 -0.80906,-1.12432 -0.60622,-1.64074c0.00569,-0.01449 0.01167,-0.02882 0.01793,-0.04301l-0.00949,-0.00237l0.10584,-0.42334c0.03811,-0.16794 0.1883,-0.29331 0.36778,-0.29331c0.19207,0 0.35061,0.14359 0.37412,0.32928l0.05309,0.37163l-0.00239,0.00034l0.00318,0.0055c0.01934,0.20965 0.11937,0.40586 0.24875,0.582c0.25111,0.00681 0.33097,0.273 0.33097,0.273c0.01931,0.06499 0.03965,0.12901 0.06111,0.19206c0.21902,0.30804 0.32824,0.65464 0.60731,0.95165c0.12669,0.13484 0.24939,0.2262 0.34665,0.31954c0.10296,0.03932 0.21368,0.07842 0.33464,0.13022l0.36913,0.1582c0.13866,0.05573 0.23655,0.19146 0.23655,0.35005c0,0.05357 -0.01117,0.10453 -0.0313,0.15067c0.20321,0.13858 0.37589,0.30001 0.35433,0.45493z" fill="#2be23d"></path><path d="M155.97532,169.6517c0.18395,-0.38825 0.06487,-0.48897 0.48357,-0.84573l0.32061,-0.42749c0.01802,-0.02458 0.03894,-0.04689 0.06226,-0.06643c0.15507,-0.29485 0.30553,-0.5929 0.4277,-0.92072c0,0 0.13242,-0.35311 0.48553,-0.22069c0.35311,0.13241 0.22069,0.48553 0.22069,0.48553c-0.24465,0.64873 -0.58737,1.18809 -0.87281,1.80373c-0.47173,1.01745 -0.45711,1.84456 -1.69073,2.20855l-0.05231,-0.01398v0.01762h-0.37712c-0.06616,0 -0.12834,-0.01704 -0.18239,-0.04696c-0.05256,-0.00482 -0.11047,-0.02298 -0.17326,-0.06065c-0.32338,-0.19403 -0.12935,-0.51741 -0.12935,-0.51741l0.31635,-0.41265c0.10296,-0.05127 0.20494,-0.10243 0.30394,-0.15643c0.06467,-0.08065 0.14518,-0.16581 0.25096,-0.26407c0.13424,-0.1247 0.32683,-0.18463 0.44134,-0.32766c0.05996,-0.07489 0.11376,-0.15367 0.165,-0.23456z" fill="#2be23d"></path><path d="M143.35821,184.08316c-0.26667,0.26667 -0.53333,0 -0.53333,0l-0.29363,-0.29899c-0.194,-0.26842 -0.63734,-0.40045 -0.67448,-0.72955c-0.02601,-0.23045 0.23003,-0.40276 0.34505,-0.60415c0,0 0.24543,-0.28633 0.53176,-0.04091c0.28633,0.24543 0.04091,0.53176 0.04091,0.53176c-0.22229,-0.00097 0.07715,0.02283 0.36016,0.39029l0.22357,0.2182c0,0 0.26667,0.26667 0,0.53333z" fill="#177821"></path><path d="M151.72053,183.73445l0.02656,0.0783c-0.01909,0.00665 -0.03818,0.01331 -0.05727,0.01996c0.09409,0.1909 -0.21819,0.40692 -0.49419,0.56662c-0.04029,0.10477 -0.13296,0.22528 -0.34614,0.22528c-0.37712,0 -0.37712,-0.37712 -0.37712,-0.37712l0.20847,-0.42351c0.07358,-0.03034 0.13693,-0.06832 0.19291,-0.11253l-0.07542,-0.07542l0.21354,-0.21354l0.0226,-0.20341c0.01865,-0.19085 0.17957,-0.34 0.37532,-0.34c0.20828,0 0.37712,0.16884 0.37712,0.37712v0.3879h-0.0394c-0.00097,0.0059 -0.00208,0.01172 -0.00332,0.01746l-0.00269,0.02418l-0.00331,-0.00037c-0.00497,0.0173 -0.01101,0.03371 -0.01766,0.04908z" fill="#177821"></path></g></g></g></svg>