<svg version="1.1" xmlns="http://www.w3.org/2000/svg" xmlns:xlink="http://www.w3.org/1999/xlink" width="501.07377" height="501.07376" viewBox="0,0,501.07377,501.07376"><defs><linearGradient x1="239.98158" y1="-15.52529" x2="239.98158" y2="180.00002" gradientUnits="userSpaceOnUse" id="color-1"><stop offset="0" stop-color="#ffffff" stop-opacity="0"></stop><stop offset="1" stop-color="#ffffff" stop-opacity="0.28627"></stop></linearGradient><linearGradient x1="44.47473" y1="180.0184" x2="240" y2="180.0184" gradientUnits="userSpaceOnUse" id="color-2"><stop offset="0" stop-color="#ffffff" stop-opacity="0"></stop><stop offset="1" stop-color="#ffffff" stop-opacity="0.28627"></stop></linearGradient><linearGradient x1="435.52527" y1="180.0184" x2="240" y2="180.0184" gradientUnits="userSpaceOnUse" id="color-3"><stop offset="0" stop-color="#ffffff" stop-opacity="0"></stop><stop offset="1" stop-color="#ffffff" stop-opacity="0.28627"></stop></linearGradient><linearGradient x1="239.98158" y1="375.52528" x2="239.98158" y2="180.00001" gradientUnits="userSpaceOnUse" id="color-4"><stop offset="0" stop-color="#ffffff" stop-opacity="0"></stop><stop offset="1" stop-color="#ffffff" stop-opacity="0.28627"></stop></linearGradient></defs><g transform="translate(10.53688,70.53687)"><g stroke="none" stroke-miterlimit="10"><path d="M264.48395,195.01811l1.96294,-1.37407c0.87292,-0.76107 2.24387,-1.08891 2.73335,-2.13666c0.39327,-0.84181 -1.15867,-1.45556 -1.79564,-2.132c0,0 -0.75086,-0.84471 -0.55813,-1.85636l-0.65779,-0.32826c0,0 -0.83421,-0.4171 -1.13451,-1.25133c-1.69362,-1.36986 -3.43221,-2.72862 -5.22726,-4.14804c0,0 -1.69923,-1.34523 -0.35401,-3.04446c0.00204,-0.00258 0.00407,-0.00515 0.00612,-0.00771c0.04247,-0.81622 0.53653,-1.51292 1.23706,-1.84501l2.02206,-1.01103c0.19632,-0.09798 0.39219,-0.19633 0.58759,-0.29514c0.06418,-0.33918 0.17254,-0.6648 0.32466,-0.95781l0.26517,-0.10932l-0.08943,-0.08942l0.97289,-0.97289c-2.4538,-1.76525 -4.64428,-3.66276 -7.02541,-5.49497c-2.2384,-1.72239 -4.96596,-2.44249 -7.307,-4.0374c-3.94048,-2.68457 -7.50758,-5.64406 -10.73469,-9.12931c-2.26598,1.26006 -4.04945,3.40613 -6.27968,4.82891c-5.13132,3.27353 -10.21361,6.67052 -15.16591,10.24642c-0.42956,0.31017 -0.82994,0.61516 -1.21587,0.91284c0.07153,0.43919 0.01341,0.78786 0.01341,0.78786c-0.12347,0.68308 -0.22907,1.37712 -0.27431,2.07215l0.58419,0.74253l1.42745,2.24314c0.08139,0.12352 0.15048,0.25587 0.20553,0.3953l0.14911,0.07455c0.71073,0.33692 1.20891,1.04913 1.23863,1.88068c0.05128,0.05535 0.10218,0.11474 0.15258,0.1784c1.34523,1.69923 -0.35401,3.04446 -0.35401,3.04446c-1.48501,1.17427 -2.93138,2.30701 -4.34561,3.43886c0.33614,1.33321 -0.91693,2.21035 -0.91693,2.21035c-0.98848,0.69185 -2.15422,1.34168 -3.05294,2.00225c0.64755,0.50559 0.82966,1.32506 0.82966,1.32506l-0.0718,0.90066c0.7505,0.87196 1.58927,1.66906 2.46169,2.43604l2.21147,0.60312c0.79504,0.19774 1.41657,0.83446 1.59237,1.63794l0.00421,0.00094l-0.00203,0.00914c0.00611,0.02858 0.01165,0.05737 0.01662,0.08635c0.13553,0.01142 0.27099,0.02616 0.40637,0.04457c0.8603,0.11699 1.57582,0.59724 2.25689,1.1738c2.87802,1.08571 5.47191,2.37918 7.88747,4.18216l0.18165,-0.39964l2.22575,1.01171c0.32033,0.13712 0.60095,0.34919 0.81978,0.61418l0.22783,0.08285l1.20212,0.2193c0.24138,0.13322 0.49083,0.29936 0.74602,0.48853c0.45822,0.16948 0.84347,0.48942 1.0958,0.89985c1.31757,1.15708 2.69669,2.53994 3.8588,2.9579c0.65854,0.23685 1.26645,-0.11298 1.82613,-0.63625c0.64657,-0.79758 1.38024,-1.59763 2.22268,-2.43484c0.23883,-0.57247 0.71617,-1.02058 1.30789,-1.22018l2.11735,-0.76995c0.21883,-0.26499 0.49945,-0.47706 0.81978,-0.61417l2.22575,-1.0117l0.18165,0.39963c2.41556,-1.80298 5.00945,-3.09645 7.88747,-4.18216c0.68107,-0.57655 1.39658,-1.05681 2.25689,-1.1738c0.14708,-0.02 0.29426,-0.03568 0.44154,-0.04746l-0.02058,-0.0926l2.72151,-0.60478c0.16441,-0.28935 0.39351,-0.53715 0.66763,-0.72373zM237.98738,144.80036l0.16628,-1.82911c0.08872,-1.11548 1.02206,-1.99305 2.16036,-1.99305c1.19695,0 2.16726,0.97031 2.16726,2.16726v2.47687h-0.26309c0.10934,0.29439 0.22045,0.58755 0.33515,0.87931c0.98078,0.65373 1.89249,1.35332 2.79725,2.0965c0.97467,-0.15994 1.7899,0.53882 1.7899,0.53882l1.03533,0.93008c0.27186,0.02176 0.52957,0.09369 0.76387,0.20652l2.22812,1.01278l-0.03331,0.0733c0.10409,0.02359 0.20777,0.0496 0.31101,0.07827c2.202,0.6116 3.27946,3.18556 4.98116,4.71104c0.95054,0.85209 1.9025,1.69986 2.85531,2.54448c0.36806,0.25083 0.73549,0.50247 1.10019,0.75873c2.50866,0.45623 4.97448,0.32114 7.48811,0.39543l-0.04458,-0.49038l2.05439,-0.18677c0.11161,-0.02619 0.23066,-0.04309 0.35754,-0.04867c0.26901,-0.11973 0.56692,-0.18627 0.88038,-0.18627c1.19695,0 2.16726,0.97031 2.16726,2.16726c0,0.65476 -0.29036,1.2417 -0.74934,1.63911l-0.29893,0.26157c-0.31756,1.19036 -0.62483,2.3835 -0.92358,3.57871l-0.52096,1.00177c0.63626,0.39946 1.16469,0.82257 1.43391,1.2634c0.05651,0.09252 0.11068,0.18616 0.16271,0.2808l0.04993,-0.03745l1.84453,2.45936c0.28011,0.36516 0.44658,0.82207 0.44658,1.31787c0,1.11964 -0.84902,2.04098 -1.93837,2.15532c-2.07904,1.46899 -4.2542,2.72728 -6.50757,3.90507c-0.19721,0.36699 -0.44506,0.66737 -0.82783,0.79032c-0.21365,0.06863 -0.42977,0.12111 -0.64796,0.16023l-0.00717,0.31431c1.73634,1.34393 3.44447,2.65216 5.10281,4.01425c3.39645,1.61591 5.63113,3.59305 7.40333,6.27893l0.31697,-0.28526l1.85209,2.05787c0.34915,0.38474 0.5619,0.89552 0.5619,1.456c0,0.01707 -0.0002,0.03409 -0.00058,0.05106c0.08197,0.18865 0.14514,0.40695 0.18302,0.65948c0.32149,2.14329 -1.8218,2.46477 -1.8218,2.46477c-3.54822,0.52816 -7.36409,1.11748 -10.88541,2.2264l0.1388,0.0694c0.73307,0.34752 1.24003,1.09428 1.24003,1.95945c0,0.01899 -0.00025,0.03791 -0.00073,0.05677c0.07886,0.08462 0.15732,0.1696 0.23536,0.25496c0.58298,0.24655 1.2191,0.78457 1.2191,1.95873c0,2.16726 -2.16726,2.16726 -2.16726,2.16726l-1.83744,-0.74011c-0.13296,-0.15267 -0.26754,-0.30405 -0.40369,-0.45405l-1.47512,0.61464l-0.01266,-0.03039l-0.08459,0.0682c-5.15152,1.58838 -9.73585,2.25114 -14.65881,2.04269l0.05713,0.32371l-1.94199,0.3427l-0.92032,0.80528l-0.17781,-0.20321l-0.10698,0.07132c-0.63317,0.95156 -1.36159,1.83596 -2.20303,2.53795c-1.32708,1.82439 -2.06476,3.64618 -2.80005,6.31599c-0.07439,0.45615 -0.2901,0.99284 -0.84858,1.35111c-0.32504,0.25511 -0.76537,0.43427 -1.3516,0.38436c-0.58828,0.00945 -1.01523,-0.19959 -1.32196,-0.47644c-0.53592,-0.39838 -0.71304,-0.95319 -0.75442,-1.41515l-0.14581,-0.75126c-1.28833,-4.75355 -5.06754,-7.33699 -9.43013,-8.84395c-3.61404,-0.07104 -7.12645,-0.63455 -10.91604,-1.71329c-2.05697,0.05743 -3.43667,0.12392 -4.10365,-1.01863l-0.4965,0.44133c-0.38367,0.34421 -0.89077,0.55359 -1.44679,0.55359c-1.19695,0 -2.16726,-0.97031 -2.16726,-2.16726c0,-0.50853 0.17514,-0.97613 0.46839,-1.34582l1.43298,-1.84241l0.31492,0.24494l0.29216,-0.2597c0.2988,-0.34291 0.59758,-0.68581 0.89638,-1.02872c-3.39456,-1.02024 -7.03722,-1.58199 -10.43452,-2.08768l0.00001,0.00002c0,0 -2.14329,-0.3215 -1.82179,-2.46477c0.03788,-0.25252 0.10104,-0.47083 0.18302,-0.65948c-0.0004,-0.01697 -0.00059,-0.034 -0.00059,-0.05106c0,-0.56048 0.21275,-1.07126 0.56192,-1.456l1.85209,-2.05788l0.31697,0.28526c1.7722,-2.68588 4.00687,-4.66302 7.40333,-6.27893c1.48851,-1.22262 3.01715,-2.40183 4.57028,-3.60241c-0.25746,-0.32745 -0.4226,-0.73091 -0.45621,-1.17118c-0.28078,-0.14959 -0.4789,-0.40789 -0.64225,-0.71189c-2.25337,-1.17779 -4.42853,-2.43606 -6.50758,-3.90507c-1.08935,-0.11434 -1.93837,-1.03568 -1.93837,-2.15532c0,-0.4958 0.16648,-0.9527 0.44659,-1.31787l1.84451,-2.45936l0.04993,0.03745c0.05203,-0.09464 0.10618,-0.18828 0.16269,-0.2808c0.32903,-0.53878 1.04524,-1.0511 1.87229,-1.52607c-0.58611,-1.46865 -1.21007,-2.63637 -2.39497,-3.96569c0,0 -0.79905,-0.9132 -0.51805,-1.97087c-0.01199,-0.09226 -0.01817,-0.18636 -0.01817,-0.28189c0,-1.19695 0.97031,-2.16726 2.16726,-2.16726c0.33263,0 0.64776,0.07494 0.92943,0.20885c0.0401,0.00189 0.07992,0.00487 0.11942,0.00892l2.24345,0.20395l-0.04458,0.49038c2.51364,-0.07429 4.97945,0.06079 7.48811,-0.39543c0.36469,-0.25626 0.73213,-0.50788 1.10019,-0.75873c0.95281,-0.84463 1.90479,-1.69238 2.85531,-2.54448c1.7017,-1.52548 2.77916,-4.09943 4.98116,-4.71103c0.10324,-0.02867 0.20691,-0.05469 0.311,-0.07828l-0.03331,-0.0733l2.22811,-1.01278c0.18006,-0.0867 0.37392,-0.14926 0.57742,-0.18345c1.48913,-1.58351 3.05638,-2.97425 4.70125,-4.43638c0,0 0.08314,-0.0739 0.22849,-0.16938c0.14263,-0.0995 0.24213,-0.14924 0.24213,-0.14924l0.02074,-0.00405c0.25466,-0.13077 0.59114,-0.25419 0.96779,-0.26615c0.11186,-0.15742 0.22428,-0.31443 0.33732,-0.47098z" fill-opacity="0.25098" fill="#ffffff" stroke-width="0.5"></path><g stroke-width="0"><path d="M239.98158,180.00002l-13.31491,-249.8456l26.66667,-0.69129z" fill="url(#color-1)"></path><path d="M240,180.0184l-249.8456,13.31491l-0.69128,-26.66667z" fill="url(#color-2)"></path><path d="M490.53689,166.66668l-0.69128,26.66667l-249.8456,-13.31492z" fill="url(#color-3)"></path><path d="M253.33334,430.53689l-26.66667,-0.69128l13.31491,-249.8456z" fill="url(#color-4)"></path></g><path d="M242.49287,187.48416l-0.3286,1.97162c-0.1253,0.84352 -0.85253,1.49068 -1.73092,1.49068c-0.91915,0 -1.67279,-0.70861 -1.74443,-1.60933l-0.10922,-1.20147c-1.89878,-2.85529 -3.8871,-5.70067 -4.83468,-8.97874l-0.01018,-0.21354c-0.43536,-0.31834 -0.71815,-0.83294 -0.71815,-1.41358c0,-0.33963 0.09675,-0.65666 0.26419,-0.92503l0.97168,-1.61946c1.20297,-2.18834 3.0702,-3.88998 3.8695,-6.22022c0,0 0.59805,-1.64464 2.24269,-1.04659c0.78816,0.28661 1.06126,0.81357 1.13196,1.2847c0.12578,0.20917 0.18553,0.42259 0.20358,0.62636c0.78354,2.24388 2.21807,4.29134 3.29832,6.45095l0.1659,0.3318c0.21617,0.27928 0.30241,0.6021 0.33233,0.87033c0.04695,0.26917 0.05416,0.60822 -0.08022,0.94077c-0.60009,3.11606 -1.49304,6.22185 -2.90718,9.06723c-0.00425,0.11968 -0.01656,0.19351 -0.01656,0.19351z" fill="#ff0000" stroke-width="0.5"></path><g fill="#ff0000" stroke-width="0.5"><path d="M240.43334,162.36312c-1.5,0 -1.5,-1.5 -1.5,-1.5c0,-4 0,-8.33333 0,-12.33333c0,0 0,-1.5 1.5,-1.5c1.5,0 1.5,1.5 1.5,1.5c0,4 0,8 0,12v0.33333c0,0 0,1.5 -1.5,1.5z"></path><path d="M240.10001,211.36312c-1.5,0 -1.5,-1.5 -1.5,-1.5c0,-2.16666 0,-5.33334 0,-7.5c0,0 0,-1.5 1.5,-1.5c1.5,0 1.5,1.5 1.5,1.5c0,2.16666 0,4.33334 0,6.5v1c0,0 0,1.5 -1.5,1.5z"></path><g><path d="M245.76668,163.86312c-1.5,0 -1.5,-1.5 -1.5,-1.5c0,-2.11111 0,-5.05556 0,-7.16667c0,0 0,-1.5 1.5,-1.5c1.5,0 1.5,1.5 1.5,1.5c0,2.11111 0,4.22223 0,6.33334v0.83333c0,0 0,1.5 -1.5,1.5z"></path><path d="M251.60001,167.69642c-1.5,0 -1.5,-1.5 -1.5,-1.5v-1c0,-2.17442 0.16862,-4.32975 0.16667,-6.5c0,0 0,-1.5 1.5,-1.5c1.5,0 1.5,1.5 1.5,1.5c-0.0018,2.17142 -0.16667,4.32519 -0.16667,6.5v1c0,0 0,1.5 -1.5,1.5z"></path><path d="M257.76668,172.36312c-1.5,0 -1.5,-1.5 -1.5,-1.5c0,-2.27778 0,-5.88889 0,-8.16667c0,0 0,-1.5 1.5,-1.5c1.5,0 1.5,1.5 1.5,1.5c0,2.27778 0,4.55555 0,6.83334v1.33333c0,0 0,1.5 -1.5,1.5z"></path><path d="M263.76668,176.69646c-1.5,0 -1.5,-1.5 -1.5,-1.5v-1.5c0.00399,-3.71516 -0.16667,-7.44155 -0.16667,-11.16666c0,0 0,-1.5 1.5,-1.5c1.5,0 1.5,1.5 1.5,1.5c0,3.72621 0.16302,7.4499 0.16667,11.16666v1.5c0,0 0,1.5 -1.5,1.5z"></path><path d="M258.84661,181.84271c-1.47959,0.2466 -1.72619,-1.23299 -1.72619,-1.23299l-0.18707,-1.2466c0,-1.05555 0,-2.11111 0,-3.16667c0,0 0,-1.5 1.5,-1.5c1.5,0 1.5,1.5 1.5,1.5c0,1.05555 0,2.11111 0,3.16667l0.14625,0.7534c0,0 0.2466,1.47959 -1.23299,1.72619z"></path><path d="M264.10001,188.69646c-1.5,0 -1.5,-1.5 -1.5,-1.5c0,-1.11111 0,-3.55555 0,-4.66666c0,0 0,-1.5 1.5,-1.5c1.5,0 1.5,1.5 1.5,1.5c0,1.11111 0,2.22222 0,3.33333v1.33333c0,0 0,1.5 -1.5,1.5z"></path><path d="M269.10001,193.52977c-1.5,0 -1.5,-1.5 -1.5,-1.5c0,-1.16666 0,-3.66667 0,-4.83334c0,0 0,-1.5 1.5,-1.5c1.5,0 1.5,1.5 1.5,1.5c0,1.16666 0,2.33334 0,3.5v1.33334c0,0 0,1.5 -1.5,1.5z"></path><path d="M261.60001,199.52977c-1.5,0 -1.5,-1.5 -1.5,-1.5c0,-2.11111 0,-4.88889 0,-7c0,0 0,-1.5 1.5,-1.5c1.5,0 1.5,1.5 1.5,1.5c0,2.11111 0,4.22222 0,6.33333v0.66667c0,0 0,1.5 -1.5,1.5z"></path><path d="M255.26668,201.86312c-1.5,0 -1.5,-1.5 -1.5,-1.5c0,-2.11111 0,-4.55556 0,-6.66667c0,0 0,-1.5 1.5,-1.5c1.5,0 1.5,1.5 1.5,1.5c0,2.11111 0,4.22223 0,6.33334v0.33333c0,0 0,1.5 -1.5,1.5z"></path><path d="M249.43334,203.69646c-1.5,0 -1.5,-1.5 -1.5,-1.5c0,-1.77778 0,-5.05555 0,-6.83333c0,0 0,-1.5 1.5,-1.5c1.5,0 1.5,1.5 1.5,1.5c0,1.77778 0,3.55555 0,5.33333v1.5c0,0 0,1.5 -1.5,1.5z"></path><path d="M244.95273,203.68485c-1.48842,0.18605 -1.67447,-1.30236 -1.67447,-1.30236l-0.17825,-1.51938c0,-1 0,-2 0,-3c0,0 0,-1.5 1.5,-1.5c1.5,0 1.5,1.5 1.5,1.5c0,1 0,2 0,3l0.15508,1.14728c0,0 0.18605,1.48842 -1.30237,1.67446z"></path></g><g><path d="M231.43334,162.69642v-0.83333c0,-2.11111 0,-4.22223 0,-6.33334c0,0 0,-1.5 1.5,-1.5c1.5,0 1.5,1.5 1.5,1.5c0,2.11111 0,5.05555 0,7.16666c0,0 0,1.5 -1.5,1.5c-1.5,0 -1.5,-1.5 -1.5,-1.5z"></path><path d="M225.60001,166.52977v-1c0,-2.17481 -0.16487,-4.32858 -0.16667,-6.5c0,0 0,-1.5 1.5,-1.5c1.5,0 1.5,1.5 1.5,1.5c-0.00196,2.17025 0.16667,4.32558 0.16667,6.5v1c0,0 0,1.5 -1.5,1.5c-1.5,0 -1.5,-1.5 -1.5,-1.5z"></path><path d="M219.43334,171.19646v-1.33333c0,-2.27778 0,-4.55555 0,-6.83334c0,0 0,-1.5 1.5,-1.5c1.5,0 1.5,1.5 1.5,1.5c0,2.27778 0,5.88888 0,8.16666c0,0 0,1.5 -1.5,1.5c-1.5,0 -1.5,-1.5 -1.5,-1.5z"></path><path d="M213.43334,175.52977v-1.5c0.00365,-3.71677 0.16667,-7.44045 0.16667,-11.16666c0,0 0,-1.5 1.5,-1.5c1.5,0 1.5,1.5 1.5,1.5c0,3.72511 -0.17067,7.4515 -0.16667,11.16666v1.5c0,0 0,1.5 -1.5,1.5c-1.5,0 -1.5,-1.5 -1.5,-1.5z"></path><path d="M218.62042,180.44986l0.14625,-0.75341c0,-1.05555 0,-2.11111 0,-3.16666c0,0 0,-1.5 1.5,-1.5c1.5,0 1.5,1.5 1.5,1.5c0,1.05555 0,2.11111 0,3.16666l-0.18707,1.2466c0,0 -0.2466,1.47959 -1.72619,1.23299c-1.47959,-0.2466 -1.23299,-1.72618 -1.23299,-1.72618z"></path><path d="M213.10001,187.52977v-1.33334c0,-1.11111 0,-2.22222 0,-3.33333c0,0 0,-1.5 1.5,-1.5c1.5,0 1.5,1.5 1.5,1.5c0,1.11111 0,3.55555 0,4.66666c0,0 0,1.5 -1.5,1.5c-1.5,0 -1.5,-1.5 -1.5,-1.5z"></path><path d="M208.10001,192.36312v-1.33334c0,-1.16666 0,-2.33334 0,-3.5c0,0 0,-1.5 1.5,-1.5c1.5,0 1.5,1.5 1.5,1.5c0,1.16666 0,3.66667 0,4.83334c0,0 0,1.5 -1.5,1.5c-1.5,0 -1.5,-1.5 -1.5,-1.5z"></path><path d="M215.60001,198.36312v-0.66667c0,-2.11111 0,-4.22222 0,-6.33333c0,0 0,-1.5 1.5,-1.5c1.5,0 1.5,1.5 1.5,1.5c0,2.11111 0,4.88889 0,7c0,0 0,1.5 -1.5,1.5c-1.5,0 -1.5,-1.5 -1.5,-1.5z"></path><path d="M221.93334,200.69646v-0.33333c0,-2.11111 0,-4.22223 0,-6.33334c0,0 0,-1.5 1.5,-1.5c1.5,0 1.5,1.5 1.5,1.5c0,2.11111 0,4.55555 0,6.66666c0,0 0,1.5 -1.5,1.5c-1.5,0 -1.5,-1.5 -1.5,-1.5z"></path><path d="M227.76667,202.52977v-1.5c0,-1.77778 0,-3.55555 0,-5.33334c0,0 0,-1.5 1.5,-1.5c1.5,0 1.5,1.5 1.5,1.5c0,1.77778 0,5.05555 0,6.83334c0,0 0,1.5 -1.5,1.5c-1.5,0 -1.5,-1.5 -1.5,-1.5z"></path><path d="M232.44492,202.34371l0.15509,-1.14729c0,-1 0,-2 0,-3c0,0 0,-1.5 1.5,-1.5c1.5,0 1.5,1.5 1.5,1.5c0,1 0,2 0,3l-0.17825,1.51938c0,0 -0.18605,1.48842 -1.67447,1.30237c-1.48842,-0.18605 -1.30237,-1.67446 -1.30237,-1.67446z"></path></g></g></g></g></svg>