<svg version="1.1" xmlns="http://www.w3.org/2000/svg" xmlns:xlink="http://www.w3.org/1999/xlink" width="501.07377" height="501.07377" viewBox="0,0,501.07377,501.07377"><defs><linearGradient x1="239.98158" y1="-15.52527" x2="239.98158" y2="180.00001" gradientUnits="userSpaceOnUse" id="color-1"><stop offset="0" stop-color="#ffffff" stop-opacity="0"></stop><stop offset="1" stop-color="#ffffff" stop-opacity="0.15686"></stop></linearGradient><linearGradient x1="44.47473" y1="180.01842" x2="240" y2="180.01842" gradientUnits="userSpaceOnUse" id="color-2"><stop offset="0" stop-color="#ffffff" stop-opacity="0"></stop><stop offset="1" stop-color="#ffffff" stop-opacity="0.15686"></stop></linearGradient><linearGradient x1="435.52527" y1="180.01842" x2="240" y2="180.01842" gradientUnits="userSpaceOnUse" id="color-3"><stop offset="0" stop-color="#ffffff" stop-opacity="0"></stop><stop offset="1" stop-color="#ffffff" stop-opacity="0.15686"></stop></linearGradient><linearGradient x1="239.98158" y1="375.52528" x2="239.98158" y2="180.00001" gradientUnits="userSpaceOnUse" id="color-4"><stop offset="0" stop-color="#ffffff" stop-opacity="0"></stop><stop offset="1" stop-color="#ffffff" stop-opacity="0.15686"></stop></linearGradient></defs><g transform="translate(10.53688,70.53688)"><g stroke="none" stroke-miterlimit="10"><g stroke-width="0"><path d="M239.98158,180.00001l-13.31491,-249.8456l26.66667,-0.69128z" fill="url(#color-1)"></path><path d="M240,180.01842l-249.8456,13.31492l-0.69128,-26.66667z" fill="url(#color-2)"></path><path d="M490.53689,166.66667l-0.69128,26.66667l-249.8456,-13.31492z" fill="url(#color-3)"></path><path d="M253.33333,430.53689l-26.66667,-0.69129l13.31492,-249.8456z" fill="url(#color-4)"></path></g><path d="M259.61651,190.91542l1.58502,-1.10952c0.70486,-0.61454 1.81186,-0.87926 2.2071,-1.72529c0.31755,-0.67974 -0.93559,-1.17532 -1.44993,-1.72153c0,0 -0.6063,-0.68208 -0.45067,-1.49896l-0.53115,-0.26506c0,0 -0.6736,-0.3368 -0.91608,-1.01041c-1.36755,-1.10612 -2.77141,-2.20328 -4.22086,-3.34942c0,0 -1.37208,-1.08623 -0.28585,-2.45831c0.00165,-0.00208 0.00329,-0.00415 0.00494,-0.00623c0.03429,-0.65907 0.43323,-1.22164 0.99889,-1.48979l1.63275,-0.81638c0.15852,-0.07912 0.31668,-0.15853 0.47446,-0.23832c0.05182,-0.27388 0.13932,-0.53681 0.26215,-0.7734l0.21412,-0.08827l-0.07221,-0.0722l0.78558,-0.78558c-1.98137,-1.42539 -3.75012,-2.95757 -5.67281,-4.43703c-1.80744,-1.39078 -4.00987,-1.97224 -5.90019,-3.26008c-3.18182,-2.16771 -6.06215,-4.55741 -8.66795,-7.37165c-1.82971,1.01746 -3.26981,2.75035 -5.07066,3.8992c-4.14339,2.64328 -8.24719,5.38625 -12.24603,8.27369c-0.34686,0.25045 -0.67015,0.49672 -0.98178,0.73709c0.05776,0.35463 0.01083,0.63617 0.01083,0.63617c-0.0997,0.55157 -0.18497,1.11198 -0.2215,1.6732l0.47172,0.59957l1.15262,1.81127c0.06572,0.09974 0.12151,0.20661 0.16596,0.31919l0.1204,0.0602c0.57389,0.27205 0.97616,0.84714 1.00016,1.51859c0.04141,0.04469 0.08251,0.09265 0.1232,0.14405c1.08623,1.37208 -0.28585,2.45831 -0.28585,2.45831c-1.1991,0.94819 -2.367,1.86284 -3.50895,2.77678c0.27142,1.07653 -0.74039,1.78479 -0.74039,1.78479c-0.79817,0.55865 -1.73947,1.08337 -2.46516,1.61676c0.52288,0.40825 0.66993,1.06994 0.66993,1.06994l-0.05798,0.72725c0.60601,0.70408 1.28329,1.34772 1.98774,1.96703l1.7857,0.487c0.64197,0.15967 1.14384,0.6738 1.28579,1.32259l0.0034,0.00076l-0.00164,0.00738c0.00493,0.02308 0.00941,0.04632 0.01342,0.06973c0.10944,0.00922 0.21882,0.02112 0.32813,0.03599c0.69467,0.09447 1.27243,0.48225 1.82237,0.94781c2.32392,0.87668 4.41841,1.92112 6.3689,3.37697l0.14668,-0.32269l1.79723,0.81692c0.25866,0.11072 0.48525,0.28196 0.66195,0.49593l0.18397,0.0669l0.97068,0.17708c0.19491,0.10757 0.39633,0.24173 0.60239,0.39447c0.37,0.13685 0.68108,0.3952 0.88483,0.72661c1.0639,0.93431 2.1775,2.05093 3.11587,2.38842c0.53175,0.19125 1.02262,-0.09123 1.47455,-0.51375c0.52209,-0.64402 1.1145,-1.29004 1.79475,-1.96606c0.19285,-0.46225 0.57829,-0.82409 1.05608,-0.98526l1.7097,-0.62171c0.1767,-0.21397 0.40329,-0.38521 0.66195,-0.49592l1.79723,-0.81692l0.14668,0.32269c1.95049,-1.45585 4.04498,-2.50029 6.3689,-3.37697c0.54994,-0.46555 1.1277,-0.85334 1.82237,-0.94781c0.11876,-0.01615 0.23761,-0.02881 0.35653,-0.03832l-0.01662,-0.07477l2.19754,-0.48834c0.13276,-0.23364 0.31775,-0.43373 0.53909,-0.58439zM238.22131,150.36608l0.13427,-1.47695c0.07164,-0.90072 0.82528,-1.60933 1.74443,-1.60933c0.9665,0 1.75,0.7835 1.75,1.75v2h-0.21244c0.08829,0.23771 0.17801,0.47443 0.27062,0.71002c0.79195,0.52787 1.52813,1.09277 2.2587,1.69286c0.78702,-0.12915 1.44529,0.43508 1.44529,0.43508l0.836,0.75101c0.21952,0.01757 0.42761,0.07565 0.6168,0.16676l1.79914,0.81779l-0.0269,0.05919c0.08405,0.01905 0.16777,0.04005 0.25113,0.0632c1.77805,0.49385 2.64807,2.57225 4.02214,3.80403c0.76753,0.68804 1.53621,1.37259 2.30558,2.05459c0.2972,0.20254 0.59389,0.40573 0.88837,0.61265c2.02567,0.36839 4.01675,0.25931 6.04643,0.3193l-0.036,-0.39597l1.65886,-0.15081c0.09012,-0.02115 0.18625,-0.03479 0.2887,-0.0393c0.21722,-0.09668 0.45777,-0.15041 0.71088,-0.15041c0.9665,0 1.75,0.7835 1.75,1.75c0,0.5287 -0.23446,1.00264 -0.60507,1.32353l-0.24138,0.21121c-0.25642,0.96118 -0.50453,1.92461 -0.74576,2.8897l-0.42066,0.8089c0.51376,0.32255 0.94045,0.6642 1.15784,1.02016c0.04563,0.07471 0.08937,0.15032 0.13138,0.22674l0.04032,-0.03024l1.4894,1.98586c0.22618,0.29486 0.3606,0.6638 0.3606,1.06414c0,0.90408 -0.68556,1.64803 -1.56518,1.74036c-1.67876,1.18617 -3.43514,2.2022 -5.25467,3.15323c-0.15924,0.29633 -0.35937,0.53888 -0.66845,0.63816c-0.17252,0.05542 -0.34703,0.09779 -0.52321,0.12938l-0.00579,0.2538c1.40204,1.08518 2.78131,2.14154 4.12037,3.24139c2.74253,1.3048 4.54697,2.90128 5.97797,5.07005l0.25594,-0.23034l1.49551,1.66167c0.28193,0.31067 0.45372,0.72311 0.45372,1.17568c0,0.01378 -0.00016,0.02753 -0.00047,0.04123c0.06619,0.15233 0.1172,0.3286 0.14778,0.53251c0.25959,1.73064 -1.47105,1.99023 -1.47105,1.99023c-2.86508,0.42647 -5.94629,0.90233 -8.78965,1.79775l0.11208,0.05604c0.59193,0.28061 1.00129,0.8836 1.00129,1.5822c0,0.01533 -0.0002,0.03061 -0.00059,0.04584c0.06368,0.06833 0.12703,0.13695 0.19005,0.20587c0.47074,0.19908 0.98439,0.63352 0.98439,1.58162c0,1.75 -1.75,1.75 -1.75,1.75l-1.48368,-0.59762c-0.10736,-0.12328 -0.21603,-0.24551 -0.32597,-0.36663l-1.19112,0.4963l-0.01022,-0.02454l-0.0683,0.05507c-4.1597,1.28257 -7.86141,1.81773 -11.83656,1.64941l0.04613,0.26139l-1.5681,0.27672l-0.74313,0.65024l-0.14358,-0.16409l-0.08638,0.05759c-0.51127,0.76836 -1.09944,1.48248 -1.77888,2.04932c-1.07158,1.47314 -1.66723,2.94418 -2.26096,5.09998c-0.06007,0.36833 -0.23425,0.80169 -0.6852,1.09098c-0.26246,0.20599 -0.61801,0.35066 -1.09138,0.31036c-0.47502,0.00763 -0.81977,-0.16116 -1.06744,-0.38471c-0.43274,-0.32168 -0.57576,-0.76967 -0.60917,-1.14269l-0.11774,-0.60662c-1.04029,-3.83835 -4.09189,-5.9244 -7.61455,-7.14123c-2.91823,-0.05736 -5.7544,-0.51238 -8.81438,-1.38343c-1.66094,0.04637 -2.77501,0.10006 -3.31358,-0.82251l-0.40091,0.35636c-0.3098,0.27794 -0.71927,0.44701 -1.16824,0.44701c-0.9665,0 -1.75,-0.7835 -1.75,-1.75c0,-0.41062 0.14142,-0.7882 0.37821,-1.08671l1.15709,-1.48769l0.25429,0.19778l0.23591,-0.2097c0.24127,-0.27689 0.48253,-0.55377 0.7238,-0.83066c-2.74101,-0.82381 -5.68235,-1.27741 -8.42557,-1.68574l0.00001,0.00002c0,0 -1.73064,-0.2596 -1.47104,-1.99023c0.03059,-0.2039 0.08159,-0.38018 0.14778,-0.53251c-0.00032,-0.0137 -0.00048,-0.02745 -0.00048,-0.04123c0,-0.45257 0.17179,-0.86501 0.45373,-1.17568l1.49551,-1.66168l0.25594,0.23034c1.431,-2.16877 3.23543,-3.76525 5.97797,-5.07005c1.20193,-0.98723 2.43626,-1.93941 3.69037,-2.90884c-0.20789,-0.26441 -0.34124,-0.59019 -0.36838,-0.94569c-0.22672,-0.12079 -0.3867,-0.32936 -0.5186,-0.57483c-1.81953,-0.95103 -3.57591,-1.96705 -5.25468,-3.15323c-0.87962,-0.09233 -1.56518,-0.83628 -1.56518,-1.74036c0,-0.40034 0.13443,-0.76928 0.36061,-1.06414l1.48939,-1.98586l0.04032,0.03024c0.04201,-0.07642 0.08574,-0.15203 0.13137,-0.22674c0.26568,-0.43505 0.844,-0.84873 1.51182,-1.23226c-0.47327,-1.18589 -0.9771,-2.12879 -1.93387,-3.20218c0,0 -0.64521,-0.73738 -0.41831,-1.59142c-0.00968,-0.0745 -0.01467,-0.15048 -0.01467,-0.22762c0,-0.9665 0.7835,-1.75 1.75,-1.75c0.26859,0 0.52305,0.06051 0.75049,0.16864c0.03238,0.00153 0.06453,0.00393 0.09643,0.0072l1.81152,0.16468l-0.036,0.39597c2.02969,-0.05999 4.02076,0.04909 6.04643,-0.3193c0.29448,-0.20692 0.59117,-0.4101 0.88837,-0.61265c0.76937,-0.68201 1.53806,-1.36655 2.30558,-2.05459c1.37407,-1.23178 2.24409,-3.31017 4.02214,-3.80402c0.08336,-0.02315 0.16707,-0.04416 0.25112,-0.06321l-0.0269,-0.05919l1.79913,-0.81779c0.14539,-0.07001 0.30193,-0.12052 0.46625,-0.14813c1.20243,-1.27864 2.46794,-2.40162 3.79612,-3.58225c0,0 0.06713,-0.05967 0.1845,-0.13677c0.11517,-0.08034 0.19551,-0.12051 0.19551,-0.12051l0.01675,-0.00327c0.20563,-0.10559 0.47733,-0.20525 0.78146,-0.21491c0.09032,-0.12711 0.1811,-0.25389 0.27238,-0.3803z" fill="#ff0000" stroke-width="0.5"></path><path d="M242.49286,187.48416l-0.3286,1.97162c-0.1253,0.84352 -0.85253,1.49068 -1.73092,1.49068c-0.91915,0 -1.67279,-0.70861 -1.74443,-1.60933l-0.10922,-1.20147c-1.89878,-2.85529 -3.8871,-5.70067 -4.83468,-8.97874l-0.01018,-0.21354c-0.43536,-0.31834 -0.71815,-0.83294 -0.71815,-1.41358c0,-0.33963 0.09675,-0.65666 0.26419,-0.92503l0.97168,-1.61946c1.20297,-2.18834 3.0702,-3.88998 3.8695,-6.22022c0,0 0.59805,-1.64464 2.24269,-1.04659c0.78816,0.28661 1.06126,0.81357 1.13196,1.2847c0.12578,0.20917 0.18553,0.42259 0.20358,0.62636c0.78354,2.24388 2.21807,4.29134 3.29832,6.45095l0.1659,0.3318c0.21617,0.27928 0.30241,0.6021 0.33233,0.87033c0.04695,0.26917 0.05416,0.60822 -0.08022,0.94077c-0.60009,3.11606 -1.49304,6.22185 -2.90718,9.06723c-0.00425,0.11968 -0.01656,0.19351 -0.01656,0.19351z" fill="#ff0000" stroke-width="0.5"></path></g></g></svg>