<svg version="1.1" xmlns="http://www.w3.org/2000/svg" xmlns:xlink="http://www.w3.org/1999/xlink" width="135.5" height="135.5" viewBox="0,0,135.5,135.5"><g transform="translate(-172.25,-112.25)"><g stroke="none" stroke-miterlimit="10"><path d="M172.25,247.75v-135.5h135.5v135.5z" fill="#0a0610" stroke-width="0"></path><g stroke-width="0.5"><g><path d="M245.93759,119.52668c5.84284,0.60544 8.58606,4.43366 13.55574,6.91373c2.21825,1.10699 4.84988,1.62922 7.50685,1.62793c0.12518,-0.03604 0.25018,-0.07326 0.37503,-0.11148l1.10476,-0.02978c3.80053,-0.85209 7.81371,-1.42025 10.83325,-3.91389c0,0 0.72572,-0.62205 0.69807,-1.49638c0.40471,-0.39081 0.7926,-0.81218 1.16281,-1.2728c0.08663,-0.16392 0.1992,-0.3199 0.34549,-0.44849c1.01575,-1.37602 1.88789,-3.08838 2.59721,-5.33427c0.1049,-0.39166 0.31846,-0.85009 0.75317,-1.09352c0.2595,-0.17905 0.59271,-0.27173 1.00838,-0.14659c0.42305,0.07712 0.70495,0.31811 0.89278,0.60504c0.34018,0.43948 0.39684,0.98094 0.37331,1.39801l-0.02861,1.09953c-0.25495,1.59055 -0.43229,3.19997 -0.59337,4.8098c0.01926,2.02253 0.15149,4.01631 0.23716,6.0173c0.73612,0.92007 0.22135,2.20914 0.22135,2.20914l-0.15104,0.20514c0.00182,0.16196 0.00293,0.32407 0.00323,0.48632c0,0 0,0.52686 -0.21815,1.03426c-0.71786,5.62318 -1.14523,10.88302 -1.66267,16.71423c0.01094,8.45502 -0.75605,17.52703 -2.20932,25.68572c-0.72703,4.08161 -0.44063,8.50681 -1.27823,12.70258c-0.19537,0.97866 -0.46332,1.93483 -0.70973,2.89703c-0.22521,2.28638 -0.39303,4.58059 -0.46197,6.89318c0.03347,1.32172 0.04684,2.46988 -0.03443,2.6734v1.96001c0,0.25977 -0.04036,0.50774 -0.11366,0.7346c0.40262,1.00432 -0.19941,2.00941 -0.19941,2.00941c-2.86962,4.7896 -5.71342,9.78268 -8.85585,14.24877c-1.73886,2.47131 -4.18444,3.33706 -6.14744,5.32823c-3.05352,3.09735 -5.97137,7.35376 -9.65989,9.22703c-0.56648,0.40233 -1.17263,0.73317 -1.80517,1.01253c-0.10573,0.77849 -0.88423,1.16773 -0.88423,1.16773c-0.86168,0.41666 -2.07654,0.72203 -3.31506,1.04306c-0.16753,0.83009 -1.06425,1.129 -1.06425,1.129l-0.63727,0.03908c-0.00387,0.00288 -0.00775,0.00576 -0.01163,0.00864c-0.88478,0.88211 -1.93746,2.09166 -3.1185,3.19282c-0.46609,1.06902 -1.07738,1.96972 -1.95396,2.31284c-0.45592,0.81045 -1.21575,1.51291 -2.74255,1.99391l-1.21452,0.04674c0,0 -1.56535,0 -1.56535,-1.56535c0,-0.16801 0.01803,-0.31798 0.05023,-0.45186c-0.18588,-0.0875 -0.3726,-0.18847 -0.56011,-0.30372c-0.69529,-0.42733 -0.7789,-1.44323 -1.28179,-2.086c-1.35311,-1.72948 -3.31341,-3.57441 -5.27416,-4.52431c0,0 -0.8709,-0.43546 -0.89553,-1.30636c-1.09379,-0.3648 -2.13915,-0.83465 -3.07602,-1.50004c-3.68851,-1.87327 -6.60636,-6.12969 -9.65988,-9.22703c-1.96299,-1.99117 -4.40858,-2.85691 -6.14744,-5.32823c-3.14243,-4.4661 -5.98623,-9.45918 -8.85584,-14.24877c0,0 -0.60205,-1.00511 -0.19941,-2.00941c-0.0733,-0.22686 -0.11366,-0.47483 -0.11366,-0.7346v-1.96001c-0.08127,-0.20353 -0.06791,-1.35167 -0.03444,-2.6734c-0.06893,-2.31259 -0.23674,-4.6068 -0.46196,-6.89318c-0.2464,-0.96222 -0.51436,-1.91837 -0.70973,-2.89703c-0.83759,-4.19576 -0.55119,-8.62097 -1.27823,-12.70258c-1.45326,-8.15869 -2.22025,-17.2307 -2.20932,-25.68572c-0.51746,-5.83121 -0.94481,-11.09105 -1.66267,-16.71423c-0.21815,-0.5074 -0.21815,-1.03426 -0.21815,-1.03426c0.0003,-0.16226 0.0014,-0.32437 0.00323,-0.48632l-0.15104,-0.20514c0,0 -0.51475,-1.28906 0.22135,-2.20913c0.08566,-2.00099 0.21788,-3.99477 0.23716,-6.0173c-0.16108,-1.60981 -0.33842,-3.21926 -0.59337,-4.8098l-0.0286,-1.09953c-0.02353,-0.41707 0.03311,-0.95852 0.37331,-1.39801c0.18783,-0.28692 0.46972,-0.52793 0.89278,-0.60503c0.41567,-0.12514 0.74888,-0.03246 1.00838,0.14659c0.43472,0.24342 0.64827,0.70186 0.75317,1.09352c0.70932,2.24588 1.58146,3.95824 2.59721,5.33427c0.14628,0.12858 0.25886,0.28457 0.34549,0.44849c0.82929,1.03179 1.74722,1.8666 2.74431,2.60226c0.10591,-0.03397 0.20889,-0.05307 0.30821,-0.06027c1.28463,1.57318 2.77032,3.40023 4.51988,4.27442c5.05364,2.52514 12.78773,1.6868 16.4072,-2.55617c0.2033,-0.09502 0.40846,-0.18477 0.61513,-0.27018c1.49966,-1.13428 2.80007,-2.63015 4.37139,-3.48082c1.8379,-0.995 3.62996,-1.11942 5.64553,-1.39938c0.07714,-0.02501 0.15448,-0.04943 0.232,-0.07326c-0.00116,-0.0293 -0.00175,-0.0592 -0.00175,-0.08966c0,-1.56535 1.56535,-1.56535 1.56535,-1.56535c0.31258,0.00248 0.62355,-0.00386 0.93345,-0.01659c0.25112,-0.12775 0.56422,-0.20207 0.90253,-0.08499c0.07583,-0.01087 0.15598,-0.01662 0.24074,-0.01662c0.07297,0 0.14253,0.00426 0.20886,0.01237c1.45028,-0.12383 2.89522,-0.31161 4.39328,-0.31161h0.41742c0,0 1.23878,0 1.51232,1.10201h0.72508c0,0 0.02853,0 0.07788,0.00386c0.04949,0.00108 0.07788,0.00392 0.07788,0.00392z" fill="#e02bbc"></path><path d="M238.91066,246.04358c-0.43226,0 -0.8236,-0.17521 -1.10687,-0.45849l-1.50274,-1.50274l0.05643,-0.05643c-0.40794,-0.2557 -0.80324,-0.52974 -1.1797,-0.82994l-0.82549,-1.1054c0,0 -0.42399,-0.63598 -0.235,-1.3154c-4.60562,-2.55853 -8.94814,-6.53642 -12.9582,-9.84609c-2.26219,-1.74899 -3.25635,-3.95658 -5.34645,-5.8345c-6.20026,-5.57082 -15.03401,-13.86245 -15.03401,-22.6931c0,0 0,-0.27841 0.11741,-0.60041l-0.11741,-0.65188c0.00809,-4.42619 -1.33726,-9.2447 -1.96178,-13.66594c-3.59459,-11.08588 -2.54644,-23.54033 -2.54644,-35.17314c0,0 0,-0.19819 0.07052,-0.45351c-0.10945,-0.60195 -0.21593,-1.20952 -0.30524,-1.82967c-1.63647,-11.45527 -2.26984,-22.38033 -2.26984,-34.03304c0,0 0,-0.09988 0.02523,-0.24918c-0.08294,-0.4683 -0.05698,-1.27032 0.9235,-1.69052c1.43879,-0.61662 2.05541,0.82216 2.05541,0.82216c1.74963,4.14198 4.64847,6.00846 7.67158,9.01609c1.06308,1.05763 2.15923,2.71119 3.45494,3.52561c1.55415,0.97684 4.82723,0.19196 6.54739,0.28664c1.9885,0.10944 4.91223,1.04658 6.45785,-0.4103c3.92183,-3.09466 8.05123,-5.72986 12.75524,-7.27548c2.88421,-0.94768 3.82336,-2.65276 7.01109,-1.81962c0.07745,-0.00909 0.15944,-0.01391 0.24626,-0.01391c1.56535,0 1.56535,1.56535 1.56535,1.56535c0,0.08077 0,0.16154 0,0.2423c0.03994,0.18047 0.04906,0.38078 0,0.59184c0,11.07599 0,22.15198 0,33.22798c0,14.01154 0.74015,27.82164 0.75137,41.82628v1.62144c0.25046,0.42178 0.25046,0.88312 0.25046,0.88312c0,4.2479 -0.49568,8.15926 -1.02204,12.27267c-1.04008,8.12804 0.02021,17.087 0.02021,25.29585c0,2.75502 0,5.51005 0,8.26507v0.25046c0,0 0,1.56535 -1.56535,1.56535c-0.37558,0 -0.66106,-0.09011 -0.87803,-0.2271c-0.28463,0.29446 -0.68375,0.47756 -1.12563,0.47756z" fill="#691458"></path><path d="M197.00966,148.8411l-0.4373,-0.952c-0.95353,-2.97881 -1.13573,-5.48247 -1.17043,-8.3481c-2.16218,-5.99169 -3.58346,-12.41498 -1.63608,-17.45832v-0.43263l-0.42058,-0.14019l0.48951,-1.4685c0.01485,-0.04828 0.03197,-0.09555 0.05123,-0.14171c-0.23329,-1.43503 -0.3681,-2.9002 -0.3706,-4.40666c0,0 0,-1.21822 1.07469,-1.50528c0.19384,-0.14523 0.45256,-0.25533 0.79742,-0.29843c1.55327,-0.19415 1.74742,1.3591 1.74742,1.3591c0.00199,0.01653 0.00402,0.03299 0.00607,0.04937c0.15819,0.14956 0.24402,0.27832 0.24402,0.27832c0.81301,1.25133 1.95867,2.83919 3.26112,4.41896c0.8279,0.50533 1.73588,1.13081 2.654,2.21448c0.81474,0.96163 1.31291,1.70726 1.76126,2.33426c0.76975,0.63352 1.53154,1.16106 2.25836,1.52974c2.51388,1.27521 6.17469,0.74068 8.89661,1.08092l1.65593,-0.00303c0,0 0.75067,0 1.21234,0.51984c1.76894,-0.54677 2.2062,-1.59338 3.56408,-2.67637c1.98646,-1.58433 4.33501,-2.29636 6.63778,-3.23072c1.9397,-0.78704 2.53932,-2.68882 4.38407,-3.69801c1.59728,-0.87381 3.99198,-1.16065 5.7701,-1.41819l0.72229,-0.01573c0,0 0.8762,0 1.31752,0.65553c0.29826,0.30617 0.41796,0.66526 0.41796,0.66526c2.61077,7.92914 0.58125,18.29508 0.58125,26.54251c0,6.62235 0,13.84156 0,20.59371c0.59772,0.51905 0.48883,1.3902 0.48883,1.3902c-1.19673,9.45297 -0.23837,19.57744 -0.23837,29.10929v0.50091c0,12.28382 -0.25046,24.53103 -0.25046,36.81715c0,1.83669 0,3.67336 0,5.51005v1.00183c0,0 0,0.03602 -0.00546,0.09711c-0.00215,0.06131 -0.00662,0.09704 -0.00662,0.09704c-0.14949,1.18079 -0.24054,2.37248 -0.23837,3.5627v1.00183c0,0 0,1.07509 -0.89095,1.44333c-0.07576,0.13684 -0.17987,0.27588 -0.31889,0.41491c-1.10687,1.10687 -2.21375,0 -2.21375,0l-0.87907,-1.11278c-1.11169,-3.55373 -3.88908,-5.76986 -4.07851,-9.72391c-1.83674,-2.52493 -2.53283,-5.37788 -4.08167,-8.06536c-0.62684,-1.31834 -1.13755,-2.77829 -1.57798,-4.2992c-3.54525,-3.41755 -5.30129,-6.98136 -8.1465,-11.02108c-3.31209,-4.70261 -6.24097,-9.67383 -7.52882,-15.45003c-1.3622,-6.10974 -1.84411,-12.50302 -3.02741,-18.63585c-0.53968,-2.79709 -0.94847,-5.13569 -1.15924,-7.69912c-3.12154,-5.96772 -6.06698,-11.82533 -8.21885,-18.27538c0,0 -0.03168,-0.09506 -0.05498,-0.2451c-0.02536,-0.1497 -0.02536,-0.24991 -0.02536,-0.24991l0.00198,-0.00212c-0.00228,-0.07665 -0.00021,-0.15886 0.00868,-0.24416c-2.01884,0.04836 -3.02826,-1.97048 -3.02826,-1.97048z" fill="#4a0e3e"></path><path d="M231.61864,238.28304c-2.82126,1.97488 -4.79613,-0.84638 -4.79613,-0.84638l-0.33993,-0.50833c-0.72184,0.11118 -1.32664,-0.03468 -1.81839,-0.29054c-0.98004,-0.40087 -1.47267,-1.18947 -1.72031,-1.88098c-0.05985,-0.13039 -0.13883,-0.30372 -0.23389,-0.51237c-1.01002,-1.5542 -2.0648,-3.07993 -3.15532,-4.5785c-4.67628,-7.08788 -12.77821,-11.24874 -16.361,-19.37812c-3.8521,-8.74043 -3.83911,-19.72806 -5.01905,-29.00485c-0.10533,-0.82815 -0.15813,-1.58449 -0.19109,-2.29827c-1.39184,-4.73201 -2.75541,-9.28005 -3.08349,-14.43071c-0.08722,-1.36936 -0.64749,-2.79363 -0.25518,-4.10848c0.03468,-0.1162 0.07134,-0.2316 0.10986,-0.34624l-0.07769,-0.0111l0.49375,-3.45628c0.21468,-1.69567 1.66238,-3.00688 3.41633,-3.00688c1.46069,0 2.70898,0.9094 3.20957,2.19291l1.22159,2.93182l-0.06102,0.02542l0.12108,0.1291c0.30557,1.01429 0.61115,2.02856 0.91672,3.04285c5.32743,9.34945 1.29457,20.21764 4.16095,30.22818c3.33791,11.65731 10.69295,21.38244 16.74175,31.65637c0.40119,0.51215 0.81246,1.02616 1.23518,1.54333c1.25424,1.82311 2.62045,3.58992 4.19273,5.14707l2.13933,2.96481c0,0 1.97488,2.82126 -0.84638,4.79613z" fill="#771764"></path><path d="M196.665,173.45855c0,0 -0.36051,-3.42486 3.06435,-3.78537c3.42486,-0.36051 3.78537,3.06435 3.78537,3.06435c0.44298,4.2699 1.30311,8.10772 2.40722,12.24647l0.57034,3.32667c0,0 0.22738,1.36428 -0.47065,2.50775c0.59577,2.70299 1.34231,5.36743 1.94466,8.1105c0.56137,2.55645 -0.16763,6.01368 1.49685,8.31865c3.66167,5.07065 8.36423,9.45474 11.57824,14.92694c1.59556,0.08324 2.62152,1.49394 2.62152,1.49394c3.36509,4.63158 7.30537,8.61713 10.20783,13.56453l0.60646,1.19695c0,0 1.54011,3.08021 -1.54011,4.62031c-3.08021,1.54011 -4.62031,-1.54011 -4.62031,-1.54011l-0.39537,-0.80671c-1.99394,-3.44081 -4.58462,-6.40543 -7.09077,-9.47281c-0.68162,-0.24889 -1.13174,-0.61718 -1.13174,-0.61718l-3.22545,-2.7215c-2.26238,-4.01585 -5.19502,-7.94523 -7.89477,-11.68884c-1.37391,-1.90514 -3.54691,-3.161 -4.83831,-5.12301c-2.33233,-3.54348 -1.65251,-6.90596 -2.51045,-10.71607c-1.19147,-5.29134 -2.70652,-10.29777 -3.07436,-15.78059c0,0 -0.04146,-0.66332 0.20346,-1.42537c-0.75188,-3.19074 -1.33508,-6.33432 -1.69398,-9.69949z" fill="#8e1b77"></path></g><path d="M218.15559,166.95134c-1.07218,-0.59227 -0.15252,-1.80816 -0.22877,-2.71223l-0.17597,-2.08633c0,0 -0.10309,-1.22213 1.07425,-2.11399c0.00909,-0.00689 0.01827,-0.01376 0.02753,-0.02061c0.57705,-0.78348 1.8156,-1.69299 4.43404,-1.52717c1.01387,0.0642 1.77533,0.26055 2.34668,0.52587c10.5666,-0.29432 21.1169,-0.32048 31.68074,-0.68397l1.30661,-0.04496c1.55987,-0.05367 2.60719,0.25731 3.30984,0.68611c0.74299,0.4001 1.33958,1.03176 1.42361,2.02805c0.07625,0.90407 0.15252,1.80816 0.22877,2.71223l-0.21187,1.51806c-0.01386,0.98116 -0.61326,1.61565 -1.35819,2.02549c-0.67209,0.44392 -1.67557,0.78563 -3.16788,0.75167c-9.24744,0.30489 -18.48478,0.15381 -27.76608,0.35482c-0.41508,-0.16738 -0.91261,-0.25704 -1.4401,-0.2389l-0.4158,0.0143c-3.66726,0.12393 -7.30734,-0.03111 -10.96762,-0.00571z" fill="#0a0610"></path><path d="M244.23568,185.77509c-0.59227,1.07218 -1.80815,0.15252 -2.71222,0.22878l-2.08633,0.17597c0,0 -1.22213,0.10308 -2.11399,-1.07425c-0.00689,-0.00909 -0.01376,-0.01827 -0.02061,-0.02751c-0.78348,-0.57704 -1.69299,-1.81561 -1.52717,-4.43404c0.0642,-1.01387 0.26056,-1.77533 0.52588,-2.34668c-0.29432,-10.5666 -0.32048,-21.1169 -0.68397,-31.68074l-0.04497,-1.30661c-0.05367,-1.55987 0.25731,-2.60719 0.68611,-3.30984c0.4001,-0.74299 1.03174,-1.33958 2.02805,-1.42361c0.90409,-0.07626 1.80815,-0.1525 2.71223,-0.22877l1.51806,0.21187c0.98116,0.01386 1.61565,0.61327 2.02549,1.3582c0.44393,0.67208 0.78565,1.67557 0.75168,3.16788c0.30489,9.24744 0.15381,18.48478 0.35482,27.76608c-0.16738,0.41508 -0.25704,0.91261 -0.2389,1.4401l0.01431,0.4158c0.12391,3.66726 -0.03111,7.30734 -0.00571,10.96762z" fill="#0a0610"></path></g></g></g></svg>