<svg version="1.1" xmlns="http://www.w3.org/2000/svg" xmlns:xlink="http://www.w3.org/1999/xlink" width="508" height="360" viewBox="0,0,508,360"><g transform="translate(14,0)"><g stroke="none" stroke-miterlimit="10"><g fill-opacity="0.19216" fill="#742ddf" stroke-width="0"><path d="M170.72597,193.63248v-27.26496h138.54807v27.26496z"></path><path d="M157.08982,180c0,-7.52901 6.10347,-13.63248 13.63248,-13.63248c0.00747,0 0.00143,27.26496 0,27.26496c-7.52901,0 -13.63248,-6.10346 -13.63248,-13.63248z"></path><path d="M309.2777,193.63248c-0.00144,0 -0.00747,-27.26496 0,-27.26496c7.52902,0 13.63248,6.10347 13.63248,13.63248c0,7.52901 -6.10347,13.63248 -13.63248,13.63248z"></path></g><g fill="none" stroke-width="0"><path d="M-14,360v-360h14v360z"></path><path d="M480,360v-360h14v360z"></path></g><text transform="translate(218.91113,186) scale(0.5,0.5)" font-size="40" xml:space="preserve" fill="#e8dff5" stroke-width="1" font-family="Malgun Gothic" font-weight="normal" text-anchor="start"><tspan x="0" dy="0">retry</tspan></text></g></g></svg>