<svg version="1.1" xmlns="http://www.w3.org/2000/svg" xmlns:xlink="http://www.w3.org/1999/xlink" width="167.32609" height="268.99168" viewBox="0,0,167.32609,268.99168"><g transform="translate(-166.15582,-34.73332)"><g stroke="none" stroke-width="0.5" stroke-miterlimit="10"><g><path d="M193.38104,173.13932c0.72216,0.49231 1.19631,1.32151 1.19631,2.26144c0,0.40411 -0.08764,0.78775 -0.24496,1.13294l-0.97073,2.26503l-0.03072,-0.01316l-0.31538,0.70961l-0.0527,-0.02342l0.04801,0.03391c-0.10992,0.24092 -0.21593,0.48382 -0.32026,0.72759c-0.36334,1.63988 -0.98974,3.289 -1.94888,5.45135l-0.14703,0.40434c0.06799,0.09117 0.12532,0.1857 0.16184,0.28603c0.18152,0.4987 -0.14797,1.22575 0.25452,1.57166c0.43181,0.37111 1.15616,-0.04162 1.70443,0.11193c0.86525,0.24233 1.65535,0.69886 2.48108,1.05386c0.87337,0.34711 1.31997,0.88569 1.53244,1.43685c0.25616,0.54525 0.33445,1.25735 -0.0435,2.15266l-0.82598,2.08316c0.03555,2.28987 0.76267,8.78348 -0.75718,10.39686c-0.94543,1.00361 -2.62439,0.6454 -4.05928,0.74033c-0.3107,0.06074 -0.52678,0.06074 -0.52678,0.06074h-0.33152c-3.44767,-0.00465 -7.09466,0.00711 -10.45385,0.79318c-0.31594,0.12589 -0.69482,0.20137 -1.14918,0.20137c-0.77091,0 -1.32452,-0.21729 -1.72209,-0.52939c-0.3992,-0.31 -0.74428,-0.79439 -0.93125,-1.54228c-0.11155,-0.44619 -0.12931,-0.83611 -0.08166,-1.17607v-0.48181c0.00616,-0.69718 -0.06973,-1.38929 -0.17487,-2.07968c-0.69673,-0.49573 -1.15119,-1.3098 -1.15119,-2.23002v-2.17219c-1.74046,-3.58186 -3.045,-9.92434 0.28675,-13.30211c0.03794,-0.03846 0.0762,-0.07655 0.11477,-0.11427l-0.04117,-0.02353l1.20325,-2.1057c1.04773,-2.9154 1.81924,-2.70813 3.74644,-4.95965c0.19537,-0.22824 0.3898,-0.4541 0.58353,-0.67762c1.89328,-2.65226 4.24297,-5.01427 6.38165,-7.50611l0.85017,-1.98373c0.40418,-1.0056 1.38853,-1.71557 2.53869,-1.71557c0.27,0 0.53087,0.03913 0.77723,0.11202l0.11827,-0.13798c0.50169,-0.59247 1.25099,-0.96858 2.08814,-0.96858c1.5105,0 2.735,1.2245 2.735,2.735c0,0.40411 -0.08764,0.78775 -0.24496,1.13294l-0.97073,2.26503c-0.51763,1.2078 -0.93659,2.41584 -1.30669,3.62301z" fill="#79698a"></path><path d="M189.27311,203.57955c0,1.32539 -0.94277,2.43058 -2.19428,2.68156l-2.93105,0.65134l-0.00065,-0.00291c-1.78197,0.45769 -3.66009,1.89685 -5.32593,1.16899c-1.42612,-0.62312 -2.21419,-1.26594 -2.60729,-1.92537c-1.69323,-0.58692 -1.69323,-2.5736 -1.69323,-2.5736v-0.66303c0.01862,-1.06735 -0.35706,-2.21762 0.05585,-3.20204c0.21012,-0.50093 0.41942,-1.05748 0.65639,-1.60445c-1.10898,-1.08331 -1.97617,-2.12712 -2.59535,-4.05347c-1.52214,-4.73556 1.3804,-11.32664 3.46846,-15.50848c1.13256,-2.26823 3.42472,-6.41325 7.11317,-5.13865c8.54432,2.95261 0.51421,9.11972 -1.16721,12.76763c-0.65883,1.42936 -3.3184,5.08564 -2.33821,6.14748c-0.169,0.81487 -0.254,1.6494 -0.26379,2.47545v2c0,0 0,1.5 1.5,1.5c1.5,0 1.5,-1.5 1.5,-1.5v-2c-0.01073,-0.68055 0.05539,-1.37482 0.21381,-2.04284c0.48341,-0.46043 0.98824,-0.876 1.61717,-1.03167c1.60498,-0.39728 3.50029,-0.57799 4.95596,0.20611c3.82173,2.05859 4.57999,9.76153 0.02235,11.37133c0.00914,0.09097 0.01382,0.18325 0.01382,0.27662zM183.50089,198.00158l-1.26043,-0.04639c0.42077,0.25206 0.83265,0.51926 1.23605,0.79972c-0.0209,-0.23026 -0.0202,-0.48766 0.02437,-0.75333z" fill="#5d496f"></path><path d="M194.83614,191.97543c2.32177,1.16089 1.16089,3.48266 1.16089,3.48266l-0.35524,0.09769c0,0.19249 0.00502,0.3957 0.01306,0.60758c1.98453,1.11232 1.02179,3.27849 1.02179,3.27849c-0.96343,2.16649 -2.07984,4.26594 -3.26497,6.31955l-1.12699,-0.0357l0.13229,0.52916l-2.46069,0.61517c-0.21854,0.05973 -0.44857,0.09162 -0.68605,0.09162c-1.43363,0 -2.59582,-1.16219 -2.59582,-2.59582c0,-0.79455 0.35698,-1.50572 0.91929,-1.98188l2.04867,-1.756c0.25101,-0.36525 0.82761,-0.49866 0.96282,-0.92154c0.42164,-1.31875 -0.15504,-2.76613 -0.15504,-4.15064l0.90334,-2.41947c0,0 1.16089,-2.32177 3.48266,-1.16089z" fill="#a69cb5"></path></g><path d="" fill="#111732"></path><g><path d="M277.83155,178.89223c1.3011,3.46961 4.69364,4.6818 6.37433,7.97323c0.67276,1.31752 0.61613,2.92234 1.25348,4.25735c1.34346,2.81403 3.30132,6.08016 4.1267,9.10051c0.65347,2.3913 -0.33774,4.89034 -1.02649,7.0963c-0.56627,1.81367 -1.12477,3.70552 -1.81579,5.53181c-0.06001,2.58739 -0.40256,5.1625 -1.04586,7.6227c0.18636,0.03814 0.3852,0.10636 0.59652,0.21202c1.78885,0.89443 0.89443,2.68328 0.89443,2.68328l-0.73727,1.12409c-0.44924,0.37022 -0.88333,0.66273 -1.30924,0.90784l-0.00006,0.00065c-0.08959,1.02166 -0.94735,1.823 -1.99227,1.823c-0.44289,0 -0.85216,-0.14396 -1.18357,-0.38764c-0.4847,0.22484 -0.98137,0.4868 -1.50009,0.82966c-4.08344,2.69906 -8.02554,5.85276 -12.68389,7.45535c0,0 -0.12146,0.04049 -0.31316,0.07024c-0.19127,0.03239 -0.3193,0.03239 -0.3193,0.03239l-0.04687,-0.00161c-0.07049,0.00084 -0.14427,-0.00132 -0.22024,-0.00758l-1.46796,-0.05052c-4.19047,-1.24911 -5.66864,-4.83857 -8.45023,-8.05471c-0.93486,-1.08091 -2.20338,-1.87585 -3.00164,-3.06122c-0.94363,-1.40124 -1.29802,-3.98118 -1.9222,-5.58706c-2.56793,-6.60675 -4.96697,-13.39621 -7.73468,-19.96159c-1.11493,1.63611 -2.27185,3.2813 -3.32091,4.95551c-0.85082,1.64502 -1.78318,3.27251 -2.4595,4.96268c-1.41399,3.53368 -2.65271,7.18464 -4.31507,10.65544c-2.36369,4.93511 -6.18221,8.05519 -9.1647,12.53675l-0.0297,0.01842l0.01117,0.00798l-1.23451,1.72831c-0.32147,0.46211 -0.83291,0.78217 -1.42121,0.84706l-1.94238,0.2428c-0.09129,0.01276 -0.18456,0.01936 -0.27937,0.01936c-0.37795,0 -0.73141,-0.10484 -1.03289,-0.28701c-4.41425,1.35041 -9.20818,0.53661 -13.20938,-1.7265l-1.14018,-0.33912c0,0 -0.50929,-0.16976 -0.91219,-0.59724c-2.68476,-0.28372 -5.15289,-0.96884 -7.88801,-2.62109c-0.40655,-0.14496 -0.69544,-0.42892 -0.8892,-0.69425c0.72304,-6.70037 1.36303,-13.36593 2.34161,-20.04234c0.33688,-2.29836 1.27528,-5.33287 2.1712,-7.45724c1.15092,-2.72902 3.37716,-4.6343 4.42333,-7.5727c0.65989,-1.85344 0.47266,-3.96038 1.24701,-5.769c1.29354,-3.02128 3.21943,-6.26224 4.88217,-9.1015c0,0 0.04716,-0.08083 0.10574,-0.21914c0.1092,-0.10282 0.87125,-0.77985 1.80191,-0.57841c6.47452,-2.44095 12.93654,-5.22781 19.47269,-7.39392l-0.00001,-0.00002c10.30812,-3.41615 21.96854,-3.29536 32.59948,-2.04374c3.22226,1.22575 6.2259,2.96481 8.74105,5.20959c0.95528,0.18139 1.33596,1.07109 1.44693,1.40603c0.93387,0.98944 1.77902,2.06133 2.51761,3.21519c0.33422,0.3432 0.66844,0.6864 1.00266,1.0296z" fill="#111732"></path><path d="M221.35787,234.51832l0.1859,-0.08839l1.13678,2.39073c0.11797,0.23398 0.19162,0.49515 0.20925,0.77319c0.01868,0.29454 -0.02738,0.57822 -0.12595,0.83716c0.24313,0.38414 0.28503,0.79081 0.24867,1.13897c0.0006,0.39793 -0.10711,0.8607 -0.4907,1.25143c-1.32458,2.12109 -3.14013,3.91302 -4.84966,5.74223c-2.16524,2.31682 -3.13326,5.58547 -4.88745,8.18115c-3.26117,4.82552 -7.59397,8.61372 -9.31751,14.34395l-0.80604,1.63103c0,0 -0.23949,0.46333 -0.71048,0.79447c-0.80675,2.38079 -1.33306,4.74589 -1.80452,7.33712l-0.45227,0.87378c2.69182,3.05553 6.53,8.56211 -0.74881,8.14945c-1.0326,-0.05854 -3.4539,-2.1053 -4.59688,-2.64629c-2.61739,-1.23884 -5.36954,-2.15207 -8.13322,-2.99937c-0.03315,0.00756 -0.06663,0.01432 -0.10042,0.02023l-1.53799,0.29211c-2.13283,1.44483 -4.24155,2.83371 -6.61155,4.07229l-1.82776,0.44346c-0.35812,0.18172 -0.81643,0.26556 -1.37262,0.08061c-0.37403,-0.08379 -0.78355,-0.27915 -1.07819,-0.70494c-0.33105,-0.39814 -0.40929,-0.84508 -0.38957,-1.22787c-0.0275,-0.55845 0.15671,-0.96543 0.40916,-1.25885c1.51608,-2.9157 3.21399,-5.97282 4.75886,-9.08015c-0.34333,-0.87164 0.1701,-1.75877 0.1701,-1.75877l0.73379,-1.1822c0.8199,-2.48732 1.5315,-4.04739 2.58296,-5.51595l-0.30795,-0.1544l1.53958,-3.07085c0.11762,-0.24558 0.28413,-0.46428 0.48772,-0.6427c0.43346,-1.99376 1.01807,-3.92736 1.40072,-5.99363l-0.00002,0.00002c1.07438,-5.80154 1.41417,-11.73742 3.21774,-17.45414c0.90057,-2.85452 1.60894,-4.73611 1.91486,-7.77171c0,0 0.07077,-0.69276 0.53758,-1.21896c-0.84264,-1.72599 0.8823,-2.62745 0.8823,-2.62745c0.85343,-0.44484 1.72982,-1.03935 2.61908,-1.6663c-0.56767,-0.32177 -0.96687,-0.91462 -1.01125,-1.61443c-0.06518,-1.02756 0.65763,-1.92301 1.64885,-2.09643l1.9541,-0.37115l0.01819,0.09575c0.18453,-0.05431 0.37328,-0.0952 0.56722,-0.1196c0.14226,-0.0179 0.43181,0.05957 0.81053,0.19865c0.5469,-1.82625 2.41902,-1.33142 2.41902,-1.33142c1.49162,0.39613 2.99202,0.85124 4.47015,1.38115c0.28155,-0.18616 0.61409,-0.30347 0.9751,-0.32637c0.39963,-0.02535 0.77928,0.06849 1.10425,0.25095l2.04798,1.10624c3.48466,1.88226 10.2658,3.72333 10.92661,8.48748c0.01685,0.12149 0.02818,0.24289 0.03461,0.36422c0.55238,0.97331 0.90202,1.80355 1.14916,2.6845z" fill="#a69cb5"></path><path d="M192.33742,284.5139l2.37904,0.29299c2.74318,1.35217 4.15558,2.54765 6.00808,4.93488c0.54697,0.70485 1.53934,1.1882 1.70241,2.06535c0.02834,0.15242 0.04833,0.30522 0.0612,0.45835l0.10215,-0.02554l0.48912,1.95649c0.04602,0.16838 0.07059,0.34561 0.07059,0.52858c0,1.10457 -0.89543,2 -2,2c-0.19665,0 -0.38668,-0.02838 -0.5662,-0.08127c-0.28418,0.19788 -0.66729,0.33127 -1.1838,0.33127h-1.25c-6.72888,-0.01386 -13.10919,3.23894 -19.06741,5.91203c-0.40254,0.30943 -0.85117,0.372 -1.22817,0.34466c-0.37743,0.01018 -0.82216,-0.0725 -1.20993,-0.39896l-1.54393,-0.77445c-1.96525,-0.74073 -3.73815,-1.72094 -5.64008,-2.58803c-0.47352,-0.09098 -0.81313,-0.36738 -1.04475,-0.64768c-0.26009,-0.26095 -0.5055,-0.63187 -0.54572,-1.1214l-0.1603,-0.4911c-0.94697,-4.82873 1.9378,-7.55069 4.92177,-11.03665c0,0 0.13536,-0.15792 0.36971,-0.32826c0.13738,-0.41439 0.40663,-0.76868 0.75802,-1.01312l1.72831,-1.23451l0.07495,0.10493l0.27753,-0.17346l0.08431,0.13489c0.10097,-0.1021 0.20402,-0.20108 0.3101,-0.29804l-0.00417,-0.02538c0.01272,-0.00183 0.02543,-0.00367 0.03815,-0.00551c0.79964,-0.72323 1.77483,-1.33923 3.32161,-2.30596l1.79723,-0.57804c0.42921,-0.26135 0.88503,-0.2759 1.25342,-0.21468c0.35891,0.02739 0.7799,0.14252 1.12729,0.46976c1.40139,0.81946 2.76998,1.70752 4.12512,2.61957c1.48752,0.34266 2.96734,0.71061 4.44434,1.18829z" fill="#baafcc"></path><path d="M189.06424,261.88921c-0.91849,0.91849 -1.83698,0.64392 -2.36804,0.33857c-0.7325,0.0023 -1.86877,0.00192 -2.79215,-0.02268c-0.29508,0.17161 -0.63808,0.2699 -1.00403,0.2699c-0.68055,0 -1.2817,-0.33991 -1.64296,-0.85921l-1.22098,-1.70937c-0.24272,-0.33102 -0.38606,-0.73948 -0.38606,-1.18141c0,-0.89988 0.59432,-1.66096 1.41186,-1.91212c0.04861,-0.59354 0.08405,-1.18921 0.10926,-1.78633c-0.06348,-0.08568 -0.13537,-0.16863 -0.21679,-0.24661c0.04865,-0.72124 0.13573,-1.38782 0.26935,-2.02384c0.00983,-1.44563 -0.01806,-2.89476 -0.0423,-4.33801c-0.242,-0.82761 -0.43815,-1.6271 -0.61749,-2.29625l-0.25115,-0.8902c-0.10398,-0.26377 -0.1414,-0.5277 -0.15102,-0.73879c-0.01299,-0.21071 -0.00402,-0.47684 0.07099,-0.74995c0.0972,-0.57437 0.19441,-1.14874 0.29161,-1.7231l0.09731,-0.81978c-0.00114,-0.31098 0.076,-0.59489 0.16049,-0.81206c0.08137,-0.2254 0.215,-0.49886 0.43064,-0.73717c1.89958,-2.67955 4.31957,-4.8836 6.32425,-7.45379c0.27,-1.24205 0.46916,-2.50462 0.6445,-3.77776c2.63551,-7.59616 6.17841,-14.87667 9.29907,-22.27578c0.70238,-1.66536 1.03884,-3.40238 1.36219,-5.15378c4.39285,-1.55316 10.2707,-2.65441 13.72748,-0.10728c0.05493,0.18318 0.08181,0.35759 0.0942,0.50191l0.00814,0.01556c0,0 0.00526,0.06791 0.00131,0.17964c0.00114,0.11179 -0.00584,0.17955 -0.00584,0.17955c-0.74488,6.57553 -4.41265,12.67049 -6.42438,18.96058c-1.26176,3.94515 -2.06894,7.6252 -2.76045,11.71798l0.0244,0.125c0.06259,0.22475 0.07492,0.38378 0.07492,0.38378c0.22714,2.97698 0.31615,6.02954 0.18124,9.011l0.04991,0.53659c0.14118,0.43372 0.07794,0.85293 -0.0321,1.17995c-0.08361,0.33104 -0.25462,0.71318 -0.60071,1.00046c-0.78659,1.00344 -1.61638,1.94188 -2.45968,2.85564c0.16756,0.26592 0.27472,0.57534 0.30068,0.91049c0.03414,0.44061 -0.07721,0.85892 -0.29364,1.20771l-1.03835,1.72083c-1.87868,4.6023 -4.83494,8.74418 -9.44352,10.3108c-0.31358,-0.01827 -0.62467,-0.04332 -0.93254,-0.07741c-0.07113,0.0953 -0.1539,0.19103 -0.24964,0.28677z" fill="#baafcc"></path><path d="M293.86849,242.87123c0.7372,4.16855 1.20265,8.45467 2.43319,12.48432c0.80205,2.62649 2.22277,5.35507 3.58406,7.95672c1.45213,2.50266 2.72796,5.08456 3.45457,7.92766l0.38206,0.90987c0.63139,0.74024 1.35165,1.42117 1.86178,2.24644c1.13196,1.83124 1.76033,3.41049 1.18529,4.77767l1.27137,0.90812c0.51931,0.36126 0.85921,0.96241 0.85921,1.64296c0,1.10457 -0.89543,2 -2,2c-0.09481,0 -0.18807,-0.0066 -0.27937,-0.01936l-1.9687,-0.24609l0.04445,-0.35562c-0.45057,-0.011 -0.88571,-0.0971 -1.29574,-0.30533c-0.67574,-0.34317 -0.70941,-1.32288 -0.6124,-2.36307c-0.4696,-0.60566 -0.95184,-0.78669 -1.89597,0.02595c0,0 -0.97745,0.55854 -1.88472,0.10418c-1.8923,0.88477 -3.72937,1.20228 -5.70467,2.19392c-2.43959,1.22473 -3.18429,3.03612 -5.20364,4.56597c-1.94654,1.47468 -4.01681,1.24134 -5.89767,2.91795c0,0 -1.20252,1.03073 -2.38457,0.18761c-0.33678,-0.18813 -0.66091,-0.49671 -0.81821,-1.00282c-0.20995,-0.48663 -0.16466,-0.93187 -0.0314,-1.29388c0.06822,-0.27569 0.1837,-0.49745 0.32533,-0.67583c0.0409,-0.32722 0.0818,-0.65444 0.12271,-0.98166c0,0 0.01891,-0.1513 0.08807,-0.36513c-0.06714,-0.20002 -0.10351,-0.41416 -0.10351,-0.6368v-0.25c0,-4.31227 -0.37711,-8.59971 -0.47637,-12.90105c-2.2705,-4.30501 -3.43943,-9.23891 -5.76403,-13.36355c-1.04405,-1.8525 -3.45808,-3.29059 -4.67577,-5.1291c-1.08804,-1.64276 -1.90863,-3.65167 -2.61251,-5.64591c-1.27058,-1.24265 -2.57541,-2.48605 -3.88553,-3.79617c0,0 -0.44476,-0.44476 -0.58602,-1.08486l-0.24977,-0.07936c0,-1.5 0,-3 0,-4.5c0,0 0,-0.13711 0.0359,-0.33953l0.22761,-2.15275c1.27448,-2.21715 1.98779,-4.24862 3.6561,-6.23344c1.8955,-2.69824 4.70151,-4.74296 6.36697,-7.55589c0.96683,-1.63296 1.33994,-3.52851 3.28341,-4.49008c0.0789,-0.26483 0.63364,-1.86395 2.41507,-1.41859c0.89806,0.22452 1.27654,0.76079 1.42402,1.27212c0.39445,0.07027 0.78471,0.16093 1.15436,0.27137c2.80905,0.31487 5.39101,0.76042 7.88655,2.5468l0.96421,0.93579c0,0 0.07357,0.07357 0.17036,0.20392c0.10029,0.12768 0.15191,0.21802 0.15191,0.21802c1.4129,2.48961 2.42576,4.99035 2.89191,7.78182c0.09712,0.14616 0.16886,0.2986 0.22184,0.44406c0.1484,0.31847 0.25395,0.73067 0.15214,1.18177c0.05458,4.04538 1.01431,7.51266 1.71608,11.48086z" fill="#a69cb5"></path><path d="M296.29177,236.07593c1.49561,4.34685 3.9197,7.75279 3.34327,12.64344c-0.39868,3.38251 -3.16129,6.6088 -6.6106,6.55486c-0.26415,0.12861 -0.56085,0.20077 -0.87441,0.20077c-0.33591,0 -0.65249,-0.08281 -0.93041,-0.22914l-1.96401,-0.98201l0.00472,-0.00944c-0.01802,-0.0053 -0.03602,-0.01065 -0.05401,-0.01607c-3.00097,-0.90331 -5.27438,-4.49125 -7.25374,-6.63318c-2.36793,-2.56241 -4.05172,-2.33656 -4.78134,-6.33974c-0.42709,-2.34325 -0.0212,-5.40673 -0.0212,-7.79043c0,-3.74305 0,-7.4861 0,-11.22915c-0.46226,-3.34458 -0.661,-6.66017 -0.98806,-10.05262c-0.40475,-4.19835 -3.68885,-8.54069 -2.25888,-13.07883c0.01132,-0.03593 0.02296,-0.07173 0.0349,-0.1074l-0.02573,-0.00286l0.24734,-2.22602c0.0989,-1.01216 0.9523,-1.80312 1.99043,-1.80312c0.80156,0 1.49299,0.47154 1.81202,1.15237c1.00684,-0.67766 2.12297,-1.20949 3.25893,-1.6058l2.15997,-0.24984c0.56358,-0.18287 1.0368,-0.06655 1.39926,0.13474c0.38605,0.16077 0.77422,0.46355 0.9791,1.02832c2.96825,5.00458 3.07801,10.8055 4.10672,16.42298c1.1045,6.03135 3.97195,11.50383 5.47429,17.38217l0.03215,0.39575c0.43577,2.10328 0.22452,4.4209 0.91931,6.44024z" fill="#baafcc"></path><path d="M282.40492,286.90984c0.82099,-0.50852 1.64198,-1.01705 2.46297,-1.52557c5.79228,-1.46501 10.08032,-8.17385 16.38898,-6.87718c3.3667,0.69199 3.43954,2.99383 6.10399,4.46383c3.19708,1.76385 6.20018,0.59367 8.47551,4.17881c0.25716,0.4052 0.55817,0.93733 0.83701,1.53856c1.75809,0.77988 3.65312,1.73225 3.92793,2.48524c2.15267,5.89854 -1.09201,4.59911 -4.16954,4.53952c-0.59392,0.00398 -1.18784,0.00796 -1.78177,0.01194h-0.75c0,0 -0.79268,0 -1.37996,-0.49903c-11.14841,0.02434 -22.23862,0.49903 -33.37004,0.49903c0,0 -2,0 -2,-2c0,-0.9567 0.45763,-1.45576 0.93508,-1.7161l0.30333,-1.73091c0.73667,-0.6905 1.47334,-1.38101 2.21,-2.07151c0,0 0.64065,-0.54913 1.44639,-0.51791z" fill="#baafcc"></path><path d="M211.23592,148.3344c-1.1094,-1.6641 0.5547,-2.7735 0.5547,-2.7735l0.3594,-0.20192v-0.13398c0,-1.10457 0.89543,-2 2,-2c0.03993,0 0.07958,0.00117 0.11894,0.00348c2.44329,-2.52739 4.82822,-4.94042 8.09081,-6.59073c7.44323,-2.70091 13.89726,-7.26796 21.14179,-10.34382c4.65267,-1.97542 9.54369,-3.05693 14.22514,-5.02094c3.32237,-1.39384 9.52113,-6.97994 12.99974,-3.27882c0.62921,0.66945 0.68632,2.84718 0.61488,4.90314c0.17108,0.12217 0.3244,0.2654 0.45256,0.4385c0.59108,0.79832 0.20213,1.97703 0.34807,2.95958c0.38982,2.62442 0.62914,5.17376 0.7556,7.82998c0.47494,9.97588 1.25248,19.79797 1.25248,29.84963c0,0.22078 0.00013,0.43454 -0.00021,0.64226c1.68343,0.6216 1.17326,2.40718 1.17326,2.40718l-0.91789,2.51757c-0.52823,0.59878 -0.79712,1.70229 -1.56484,1.83501c-0.0508,0.07672 -0.10625,0.14649 -0.16508,0.20995l-0.76948,1.3466c-0.33953,0.62058 -0.99849,1.04143 -1.75575,1.04143c-0.26053,0 -0.50942,-0.04981 -0.73767,-0.14044c-0.16513,0.05784 -0.32505,0.0918 -0.4638,0.11147c-0.17972,0.02896 -0.29853,0.02896 -0.29853,0.02896l-0.04299,-0.0032c-0.0699,0.00043 -0.11041,-0.00269 -0.11041,-0.00269c-0.2894,-0.02227 -0.57836,-0.0457 -0.86691,-0.07017l-1.29197,-0.09631c-0.01921,-0.00861 -0.03842,-0.0172 -0.05763,-0.02577c-3.48991,-0.33448 -6.92527,-0.80258 -10.3577,-1.2345c-3.81565,0.14921 -7.60622,0.50804 -11.44564,0.68117c-4.30172,0.19398 -9.06456,-0.11644 -13.24357,1.16456c-5.35168,1.64046 -9.84801,4.74755 -15.16887,5.89609c-1.04211,0.41342 -2.10174,0.67139 -3.19792,0.66506c-0.39814,0.23225 -0.80655,0.42762 -1.25688,0.47226c-3.32384,0.32948 -4.29296,-0.87004 -4.52026,-2.72141c-0.27246,-0.1965 -0.50707,-0.42706 -0.66906,-0.72124c-0.22876,-0.41542 -0.35162,-0.84856 -0.40145,-1.29015c-0.92221,-0.178 -1.61873,-0.98951 -1.61873,-1.9637c0,-0.14858 0.0162,-0.29338 0.04694,-0.43273l0.4919,-2.4595l0.03293,0.00659c0.00632,-0.07347 0.0137,-0.1469 0.02223,-0.2203c0.29892,-2.57233 2.43747,-5.05505 3.63367,-7.32274c0.91648,-3.61293 1.89451,-7.20611 2.83383,-10.81349c0.25078,-0.9631 0.2929,-3.09527 0.44718,-4.47631c-0.23408,-0.14259 -0.46332,-0.35791 -0.67279,-0.67211z" fill="#a69cb5"></path><path d="M171.45821,159.97895c-2.59561,-0.90846 -1.68715,-3.50407 -1.68715,-3.50407c0.39382,-1.12479 0.80762,-2.22661 1.23647,-3.31363c0.30556,-1.55491 0.85345,-2.73541 1.55024,-3.74729c1.06656,-2.48175 2.18358,-4.93482 3.28815,-7.46318c1.08759,-2.48949 1.16097,-4.09274 3.09911,-6.3567c1.51481,-1.76947 3.82511,-2.76206 5.26956,-4.58943c0.25387,-0.32117 0.49389,-0.65267 0.72556,-0.99038c3.06457,-7.81428 6.27768,-15.57552 9.95046,-23.16077c0.58493,-1.20803 1.46538,-2.23331 2.34348,-3.26283c0.23471,-0.81137 0.47021,-1.6227 0.70696,-2.43376c1.17076,1.66545 2.38412,3.29619 3.63508,4.9293c1.99663,2.60658 5.7591,4.4537 8.51099,6.21414c2.98841,1.91176 5.57006,4.07201 8.24582,6.39802c2.73781,2.37995 5.56766,4.06481 8.72455,5.84175c3.10768,1.74925 6.2677,2.9853 9.51364,4.43466c1.65906,0.74079 3.30421,1.43778 4.97538,2.08387c-1.26863,3.63044 -1.45753,7.89628 -1.77387,11.56697c-0.69136,8.02205 0.93714,16.6304 -0.35815,24.53154c-0.60607,3.69696 -1.90548,7.58516 -3.55154,11.1281c-0.04615,0.24915 -0.09782,0.49591 -0.15557,0.73994c-1.01835,4.30289 -3.58979,9.21377 -7.5802,11.47073c-1.50863,0.85328 -3.33767,3.12909 -4.74746,2.12085c-0.53661,-0.38377 -0.93816,-0.88499 -1.2438,-1.46105c-1.18657,0.26947 -2.44083,0.38376 -3.76925,0.31093c-1.37556,-0.07542 -2.97438,0.36564 -4.11243,-0.41071c-1.84458,-1.25833 -2.73766,-3.39524 -3.14625,-5.7906c-0.23137,0.64453 -0.45569,1.29127 -0.65231,1.94638c-0.67959,2.2643 -1.00925,6.47803 -3.08498,8.22161c-2.04416,1.71706 -6.58124,1.04166 -9.054,1.04166c0,0 -0.07773,0 -0.20577,-0.01371c-0.12856,-0.00753 -0.20523,-0.02031 -0.20523,-0.02031l-1.33776,-0.22839c-5.18465,-0.53515 -8.96304,-2.59931 -12.70474,-5.3753c-2.64057,0.42898 -4.35737,-2.75956 -5.15948,-5.10085c-0.92453,-2.69863 -0.42312,-6.51542 -0.42038,-9.3531c0.00235,-2.4333 0.23658,-4.76678 0.65334,-7.05265c-1.10015,-0.70109 -2.0419,-1.64328 -2.77734,-3.2283c-0.29697,-0.64003 -0.43103,-1.61507 -0.47431,-2.72688c-1.31367,-0.76813 -2.65439,-1.47745 -3.54271,-2.70849c-0.12084,-0.16747 -0.23328,-0.3643 -0.33724,-0.58452c-0.11212,-0.02752 -0.22771,-0.06184 -0.34686,-0.10355zM217.01408,186.13321c-0.01465,-0.00069 -0.02931,-0.0014 -0.04397,-0.00212c0.02682,0.10313 0.07938,0.18909 0.17567,0.24629c0.02887,0.01715 0.05808,0.0294 0.08761,0.03737c-0.07537,-0.09166 -0.1484,-0.18559 -0.21931,-0.28154z" fill="#731d67"></path><path d="M192.05968,110.94779c1.62552,-5.52473 2.61583,-10.87661 7.23437,-14.69457c1.85285,-1.53168 5.50076,-4.70618 8.02025,-5.07723c0.06556,-0.00965 0.13114,-0.01838 0.19675,-0.02622l-0.014,-0.04199l2.9391,-0.9797c0.29062,-0.10449 0.60392,-0.16142 0.93052,-0.16142c0.39223,0 0.76529,0.08212 1.10291,0.2301c2.61084,-1.84453 5.26887,-3.58067 7.81184,-5.27465c0,0 0.69204,-0.46136 0.9541,-1.24382c6.41882,-0.74999 12.96851,-0.58928 19.51625,-0.18004c3.05355,0.19085 6.31666,0.03343 9.41562,0.23504c3.01789,0.4294 6.02346,1.04887 9.0247,1.94122c2.64633,0.78682 5.38346,1.18559 8.09454,1.68049c1.19576,0.88221 2.33681,1.85937 3.4092,2.95643c1.34238,1.37325 1.93433,3.31839 2.86694,4.99709c1.26042,2.26875 4.55192,6.25544 3.78831,9.12527c-1.64583,6.18543 -4.4968,3.70848 -8.35617,2.43635c-0.90717,-0.29902 -1.74231,-0.65441 -2.51106,-1.06172c0.00141,1.52776 0.00337,5.95265 -0.03277,6.15037c-0.10667,0.5836 -0.2761,1.15133 -0.46981,1.71293c0.00729,0.5267 -0.1262,0.92719 -0.1262,0.92719c-2.57128,7.71196 -5.0752,15.21922 -6.67026,23.19972l-0.25,1.25c0,0 -0.33034,1.65169 -1.80446,1.97241c-0.73979,0.7873 -1.89699,0.7873 -1.89699,0.7873h-2.25c-4.79699,0 -10.07551,0.50492 -14.79488,-0.5601c-0.36708,-0.08284 -0.74151,-0.17218 -1.12197,-0.26759c-0.50636,0.17762 -1.0202,0.3705 -1.53745,0.57708c-0.04944,0.12068 -0.0975,0.24223 -0.14424,0.36458c-1.6602,-0.64205 -3.29452,-1.3346 -4.94316,-2.07075c-3.23292,-1.44355 -6.37745,-2.67182 -9.47224,-4.41382c-3.129,-1.76125 -5.92885,-3.42507 -8.64177,-5.78339c-2.69365,-2.34156 -5.29572,-4.51713 -8.30441,-6.44186c-2.69844,-1.72626 -6.42674,-3.54247 -8.3835,-6.097c-1.32876,-1.73469 -2.61481,-3.46634 -3.85226,-5.24018c0.09053,-0.30923 0.18126,-0.61841 0.27221,-0.92753zM263.35733,92.21805c0.42004,0.43215 0.80051,0.88156 1.1323,1.3487c1.38775,1.95386 1.84864,4.11861 1.98434,6.34865c0.49642,0.5602 1.06686,1.06368 1.7237,1.4913c1.41072,0.91842 3.27246,1.10382 4.54007,2.21143c0.5277,0.4611 -0.91869,-1.08389 -1.20186,-1.72491c-0.30865,-0.69868 -0.45675,-1.46977 -0.83195,-2.13508c-1.022,-1.81223 -2.12857,-4.54323 -3.63306,-6.00291c-1.17788,-1.1428 -2.4322,-2.13772 -3.74588,-3.02215c-0.01301,0.50939 -0.03387,1.02353 0.03234,1.48497zM257.42663,87.72363c0.09523,-0.02192 0.19179,-0.04305 0.28947,-0.06322c-1.96159,-0.88929 -3.99022,-1.66781 -6.04296,-2.42954l0.19764,0.29234c1.59184,0.64718 3.40329,1.42071 5.18416,2.33382c0.11673,-0.0577 0.2401,-0.10311 0.37169,-0.13341z" fill="#731d67"></path><path d="M240.42388,42.36472h2.8239c3.10179,0.00209 6.57749,-0.29387 9.34998,1.46863c3.68106,2.34011 6.90299,7.45136 8.71373,11.22019c1.23576,2.57207 3.34982,5.77222 2.40956,8.87055v2.60667c0,0.39555 -0.09398,0.76914 -0.26083,1.09969c0.05709,0.36059 0.03516,0.62382 0.03516,0.62382c-0.27109,2.9562 -1.24711,5.33925 -1.9674,8.18594l-0.02383,0.28595l0.72557,0.30233l-1.06433,2.55441c-0.15387,0.39452 -0.4073,0.73924 -0.72939,1.00327c0.3962,2.85574 -2.10386,6.9851 -4.09094,8.65851c-0.4953,0.41711 -1.04709,0.75709 -1.60916,1.08304l-0.49923,0.59l-0.21345,-0.18062c-0.01351,0.00781 -0.02701,0.01564 -0.0405,0.02347c-0.99048,1.42844 -2.37521,2.25639 -5.31304,3.10851l-1.82521,0.61237c0,0 -0.1484,0.04947 -0.38264,0.08582c-0.23371,0.03959 -0.39014,0.03957 -0.39014,0.03957c-0.02135,-0.00064 -0.04272,-0.00126 -0.06408,-0.0019c-0.07361,0.0007 -0.15013,-0.00127 -0.22871,-0.00678c-0.99904,-0.0296 -1.99808,-0.05919 -2.99713,-0.08878l-0.19558,-0.25528l-1.52491,0.12707l-0.97338,0.00545c-0.56108,0.13424 -1.07425,0.00411 -1.46934,-0.17999c-0.40295,-0.14679 -0.84975,-0.41132 -1.15152,-0.88807c-1.86585,-1.81422 -3.91366,-3.39732 -5.88107,-5.05379l-0.05842,-0.02149c-0.00845,-0.00844 -0.07341,-0.07338 -0.18022,-0.18017c-1.29947,-1.10224 -2.55895,-2.24214 -3.70203,-3.50839l-0.02887,-0.15258l-0.05567,0.03897l-1.5034,-2.14771c-0.28881,-0.4013 -0.45891,-0.89375 -0.45891,-1.42593c0,-0.12854 0.00993,-0.25477 0.02904,-0.37795c-0.12938,-0.17553 -0.26248,-0.35315 -0.39996,-0.53302c-1.40153,-1.83374 -3.07788,-3.63732 -3.67924,-5.86562c-0.37656,-1.39536 -0.29356,-5.17745 -0.29432,-6.69124l0.6497,-2.47436c-0.03518,-2.78117 -0.51633,-6.66457 0.32023,-9.29939c2.01583,-6.34907 9.72461,-11.93248 16.23714,-12.36611c0.71186,-0.89508 1.96287,-0.89508 1.96287,-0.89508z" fill="#6390d6"></path><path d="M234.37254,97.49385c-0.91603,0.67176 -2.25571,0.28124 -3.38919,0.35615c-2.8853,0.19067 -5.85901,0 -8.75,0c-2.47493,0 -5.03349,0.15746 -7.5,0c-1.07057,-0.06834 -2.3926,0.31786 -3.19386,-0.39541c-1.28343,-1.14252 -1.51966,-2.76554 -1.55552,-4.34106c-0.83019,0.14808 -1.70174,0.2177 -2.56276,0.23792l0.04721,0.18884l-2.95649,0.73912c-0.16837,0.04602 -0.3456,0.07059 -0.52858,0.07059c-1.10457,0 -2,-0.89543 -2,-2c0,-0.79841 0.46783,-1.48754 1.14432,-1.80823l1.96125,-0.98062l0.0087,0.01741l0.03215,-0.03726c0.95589,-0.40728 2.42001,-0.47339 2.75581,-1.45667c0.37575,-1.10026 -0.15224,-2.32198 -0.15224,-3.48463c0,-0.18591 -0.00018,-0.37041 -0.0003,-0.55366c-0.19101,-0.34879 -0.29897,-0.76478 -0.2991,-1.25942c-0.00015,-0.51771 0.13393,-0.99744 0.3298,-1.45494c0.04852,-1.40475 0.17211,-2.79269 0.48447,-4.26196c-0.74681,-0.2047 -1.35607,-0.46586 -1.59519,-0.72303c-0.69877,-0.75151 -0.19174,-2.44673 0.17258,-3.39952c-0.23438,-1.33091 0.18235,-2.82108 0.84895,-3.95676c1.96458,-5.26465 4.18558,-10.37725 6.48772,-15.47321c0.74782,-1.65536 0.93367,-3.21821 2.18806,-4.58775l0.04232,-0.19578c1.34185,-2.00036 3.24632,-3.64837 4.80892,-5.4921c3.11911,-1.8146 6.67786,-3.18363 10.15943,-3.99221c0.07278,-0.0169 0.14379,-0.03127 0.21314,-0.04326c1.32804,-0.40873 2.70073,-0.63974 4.10922,-0.63974c0,0 0.1607,0 0.33333,0.07439c0.0882,-0.03801 0.17328,-0.05659 0.23541,-0.06569c0.00308,-0.18037 0.00888,-0.35362 0.0122,-0.51355c-0.37385,-0.04253 -0.66428,-0.35993 -0.66428,-0.74516c0,-0.24849 0.12085,-0.46876 0.30698,-0.60524l0.35968,-0.26976v-0.95833c0,-0.41421 0.33579,-0.75 0.75,-0.75c0.40583,0 0.73637,0.32233 0.74959,0.72494l0.02702,0.7102c0.96962,0.01552 2.35626,1.95079 3.24245,2.94609c1.2058,-1.01772 3.53745,-1.21277 4.98094,-1.21456c4.03589,-0.005 5.40875,1.51489 8.17843,4.03506c0.01832,0.01667 0.0366,0.03325 0.05486,0.04973c0.10419,0.06264 0.21053,0.12559 0.31925,0.18875l0.82155,0.49293c0.20774,0.11978 0.35269,0.33625 0.37337,0.58794c1.13797,0.91514 2.16479,1.7435 3.16589,3.25343c1.36427,1.35286 2.79954,2.6677 3.56929,4.43344l0.38668,0.50795c0.06382,0.07166 0.10871,0.14898 0.13892,0.21287c0.02947,0.0615 0.06002,0.1415 0.07594,0.23213c0.93537,3.68011 3.46185,6.89613 4.47143,10.55367c0.66277,2.4011 0.68719,5.68188 0.69076,8.12819c0.35305,1.72479 1.1408,3.19963 1.48909,4.92682l0.00619,0.1333c0.0257,0.13144 0.00939,0.25758 -0.01402,0.35222c-0.01939,0.08621 -0.05556,0.19295 -0.12304,0.29117c-1.16564,2.2015 -3.00493,3.52021 -5.20389,4.53081c2.03238,3.31526 2.8822,7.31463 -1.66868,9.63735c-0.0338,0.01726 -0.09758,0.03261 -0.18613,0.04629c-0.15278,0.8439 -0.29891,1.45482 -0.41502,1.52016c-1.44573,0.81369 -3.75532,0.96255 -4.9743,-0.16276c-0.01826,-0.01686 -0.03593,-0.03402 -0.05302,-0.05146c-0.23545,0 -0.47089,0 -0.70633,0c-0.17837,0.47055 -0.79557,1.66613 -2.36564,1.27362c-1.94028,-0.48507 -1.45521,-2.42536 -1.45521,-2.42536l2.27362,-2.84826c0.2019,0 0.40378,0 0.60568,0c0.03815,-0.03288 0.06098,-0.05 0.06098,-0.05l2.2,-1.15c0.04579,0 0.10039,0.00262 0.16262,0.00726c0.07178,-0.09767 0.1464,-0.1942 0.22144,-0.29066c0.06766,-0.20217 0.15636,-0.3944 0.26753,-0.57081c0.03255,-0.05165 0.06561,-0.10197 0.09915,-0.15112c-0.02312,-0.78243 0.17562,-1.51993 0.68673,-1.94983c0.06322,-0.86211 0.00105,-1.75531 0.08782,-2.61183l0.05494,-0.09651c-2.38653,0.05921 -4.7373,0.2141 -7.16488,0.61852c-0.25405,0.04716 -0.43669,-0.01198 -0.56674,-0.10849c-0.13636,-0.08737 -0.25644,-0.23718 -0.30243,-0.49146l-0.16721,-0.83653c-0.21587,-1.53075 -1.09566,-1.92683 -2.01136,-2.99599c-0.9299,-1.08574 -1.4407,-2.45158 -1.54681,-3.82451c-0.91378,1.25148 -1.94158,2.40085 -2.91771,3.77434c-0.13979,0.19669 -0.25508,0.40598 -0.36149,0.61409c-0.81767,2.19342 -1.76611,4.65174 -3.44314,6.03832c-0.32799,0.27119 -0.68355,0.5243 -1.06079,0.76192c-0.11813,1.57405 -0.20254,3.14844 -0.22915,4.72283c0.53014,1.01488 0.23541,2.35026 0.78034,3.36271l0.6468,1.2936c0.21149,0.36518 0.38098,0.87851 0.19949,1.45937c-0.0821,0.36984 -0.29245,0.75212 -0.73944,1.06557c-0.41613,0.35339 -0.83913,0.46044 -1.21772,0.44653c-0.61093,0.02913 -1.06636,-0.26757 -1.36629,-0.56591c-0.72984,-0.64976 -1.37077,-1.27562 -1.93253,-1.89312c-0.31581,1.34404 -0.90618,2.65078 -1.53997,3.11557zM207.80945,74.85565c-0.07246,0.24769 -0.11531,0.42176 -0.09577,0.43069c0.13591,0.06213 0.42428,0.11191 0.78306,0.16688c0.00576,-0.0348 0.01173,-0.0695 0.01797,-0.10406c-0.19758,-0.09967 -0.36386,-0.19608 -0.46953,-0.28257c-0.08307,-0.06799 -0.1616,-0.13836 -0.23573,-0.21094zM235.77612,40.07032c0.11404,-0.01183 0.22589,-0.02646 0.33588,-0.04342c-0.03068,-0.00923 -0.06279,-0.02061 -0.09531,-0.03462c-0.17263,0.07439 -0.33333,0.07439 -0.33333,0.07439c-0.14963,0 -0.2988,0.00285 -0.44748,0.00847c0.16904,0.01514 0.34804,0.01511 0.54024,-0.00482z" fill="#111732"></path><path d="M223.43335,73.73333l0.14862,-0.13569c-0.31232,-1.03575 -0.42879,-2.12607 0.16394,-3.0291c0.55824,-0.85048 1.87355,-0.79347 2.81032,-1.19021c0,0 1.68834,-0.46046 2.14879,1.22788c0.19356,0.70973 0.00741,1.20248 -0.27343,1.53525c0.10722,1.35486 0.01112,2.63277 -0.07292,3.93346c0.01212,0.04514 0.02228,0.08858 0.03078,0.12968c0.03639,0.1673 0.06349,0.38122 0.04389,0.61096v1.58443c0,0.24814 -0.05164,0.48421 -0.14477,0.69806c0.01184,0.31761 -0.06459,0.67298 -0.33328,1.00669c-0.18186,0.28296 -0.46995,0.54233 -0.92629,0.65404c-0.44166,0.16019 -0.82524,0.10418 -1.13352,-0.03038c-0.52075,-0.1639 -0.80127,-0.53023 -0.95237,-0.87734c-1.28353,-2.0712 -1.5023,-3.64042 -1.50977,-6.11773z" fill="#6390d6"></path><path d="M309.81206,195.70288c-2.91655,3.72676 -6.30628,6.6767 -9.08917,10.52853c0.00688,0.07771 0.01047,0.15885 0.01047,0.24359c0,1.53095 -1.1719,1.88999 -1.72158,1.9742c-0.46585,0.31052 -1.16446,0.52514 -2.01735,0.01602c-5.55244,-0.08282 -10.68306,-0.79056 -14.28711,-5.69747c-3.21397,-3.19756 -6.03117,-6.56844 -8.98487,-9.98235c-0.30445,-0.35189 -3.07725,-3.00268 -3.33579,-3.35601c-1.00759,-1.37704 -1.37034,-3.14257 -2.30193,-4.57212c-0.79125,-1.21421 -2.34621,-1.77039 -3.20533,-2.93757c-3.36525,-4.57191 -4.43386,-10.37047 -7.14436,-15.22342c0,0 -0.46247,-0.83244 -0.17476,-1.66762l-0.49716,-1.49449c-0.85537,-3.46662 -2.63716,-6.7105 -3.06477,-10.31481c-0.4414,-3.72052 0.24173,-7.26339 -0.69347,-10.96434c-1.04296,-3.57021 -0.56872,-6.83641 -1.05053,-10.49107c-1.41335,-10.72079 -2.44762,-23.41581 1.35636,-33.74121c0,0 0.12827,-0.34205 0.42135,-0.67896c0.47874,-0.6793 1.34354,-0.83654 1.34354,-0.83654c10.35783,-1.88294 17.52449,-6.51805 25.23782,-13.48939c2.19249,-1.98158 2.31514,-5.4895 4.09701,-7.58926c0.58174,-0.68553 1.52045,-0.96007 2.28067,-1.4401l0.95125,-0.14387c0.27343,-0.10341 0.55058,-0.12862 0.79065,-0.11958l0.00038,-0.00006c0,0 0.14442,0 0.35563,0.03881c0.21139,0.03783 0.34661,0.08854 0.34661,0.08854c0.00048,0.00018 0.00096,0.00037 0.00144,0.00055c0.07642,0.02546 0.15537,0.05599 0.23485,0.0926c4.19584,1.69498 6.99483,5.01677 9.65566,8.57182c3.38232,4.519 7.32457,9.0347 12.17324,11.98582c2.79063,1.6985 6.12967,1.22186 9.23256,1.22186c1.18076,0.01008 2.37179,-0.14446 3.51493,-0.44029l0.90934,-0.38184c0.2399,-0.10889 0.50511,-0.17179 0.78436,-0.17746c0.02102,-0.00123 0.04232,-0.00221 0.06389,-0.0029c1.5179,-0.25239 2.10014,1.30023 2.10014,1.30023c2.78596,7.42922 2.12734,14.85361 2.12734,22.70225c0,5.21364 0.36416,10.45347 -0.77528,15.567c-0.59078,5.90777 -1.19336,11.90213 -3.07735,17.56546l-0.47432,1.66699c0,0 -0.31684,1.10895 -1.31143,1.40201c-2.1245,4.59885 -1.94923,9.97274 -3.16512,14.75806c-0.70949,2.79231 -2.33796,5.69982 -3.31116,8.45796c-1.68164,4.76593 -2.86587,9.31528 -5.93403,13.384c-0.63486,1.28229 -1.27255,2.56318 -1.91245,3.84296l-0.3702,0.20074c-0.05293,0.08511 -0.08995,0.13271 -0.08995,0.13271z" fill="#f0bcd4"></path><path d="M279.12341,194.78703c2.82409,2.64413 6.02939,4.47032 9.07394,6.84856c3.17033,2.4765 3.54692,4.77622 7.68599,5.31428c1.62555,-2.38249 4.71511,-4.25319 6.56785,-6.51033c1.48283,-1.80649 3.06575,-3.67971 4.63322,-5.61445c2.7959,-5.04167 5.24025,-10.43289 9.10339,-14.65981l-0.40042,-0.25027l1.23165,-1.97064c0.07101,-0.11786 0.15382,-0.2278 0.24681,-0.32818c0.25283,-1.34325 -0.29431,-2.77066 0.02104,-4.10069c0.50253,-2.11949 1.17997,-3.5328 1.46194,-5.78856c0.31169,-2.45947 0.79832,-4.32369 1.90128,-6.55137l0.45855,-1.22785c0.13323,-0.7047 0.27056,-1.40855 0.41285,-2.11136c0.5024,-2.48138 1.84321,-4.52716 2.53502,-6.89731c0.58652,-2.00941 1.10426,-4.09638 1.57733,-6.19568c-0.15047,-0.41193 -0.15047,-0.76837 -0.15047,-0.76837l0.01498,-2.74437c0.95374,-3.8687 1.73346,-7.38511 1.73674,-11.33875c0.46683,-5.63555 1.35021,-11.06749 2.01021,-16.63512c0.49862,-4.20625 -0.29985,-8.43552 -0.75,-12.56353c-0.15751,-1.4444 -0.2668,-2.93749 -0.34255,-4.44712c-0.72399,0.61132 -1.41746,1.27779 -2.28694,1.62625c-0.31938,0.128 -4.01605,0.10309 -4.63246,0.10263c-2.14964,-0.0016 -4.43468,-0.20248 -6.68218,-0.66741l-0.85256,-0.07751c-0.84996,-0.03625 -1.64558,-0.13812 -2.32562,-0.3505c-1.13521,-0.35453 -2.1644,-0.97173 -3.10544,-1.73307c-1.54035,-0.79556 -2.9602,-1.78286 -4.18188,-2.99096c-1.45749,-1.4413 -1.92108,-2.83529 -3.14901,-4.41258c-0.78125,-1.00353 -2.15409,-1.38917 -3.05131,-2.29051c-2.00998,-2.0192 -2.99656,-4.57822 -4.29713,-6.95863c-0.70577,-0.85556 -1.35129,-1.69901 -1.98635,-2.57827c-0.31603,-0.34577 -0.63312,-0.70751 -0.89516,-1.05219c-0.49907,1.03808 -1.09969,1.8759 -1.74676,2.66739c-0.35732,0.56757 -0.73175,1.11949 -1.12991,1.64862c-0.80103,1.0645 -1.46936,1.73285 -2.07459,2.37688c-1.09206,1.76021 -0.57399,2.27862 -2.38607,4.11056c-0.9663,0.97689 -2.5108,1.2403 -3.47183,2.22238c-1.54444,1.57827 -2.62838,3.62786 -4.49479,4.95827c-1.74058,1.24072 -4.32896,2.39714 -6.22903,3.39264c-0.55716,0.29191 -1.1371,0.54063 -1.73312,0.75703c-1.61844,1.03989 -3.272,2.08228 -5.10042,2.44575c-1.91065,0.37981 -3.7676,0.2384 -5.48468,-0.29857c-1.12827,14.73831 -0.6143,29.67962 -0.6239,44.49755c0.14088,1.69059 0.25032,3.38667 0.25173,5.08312v0.5c0,0 0,0.78379 -0.49067,1.37004c0.01352,0.17011 0.02608,0.34044 0.03761,0.51102c0.04332,0.64128 0.11745,1.33301 0.2016,2.05458c0.00864,0.02458 0.01749,0.04912 0.02654,0.07361c0.9781,2.64746 2.02701,5.26336 2.99359,7.98161c0.84207,2.36811 0.89359,3.81059 2.30786,5.93199l0.27117,1.46242c1.04898,1.91297 2.22111,3.7802 3.19116,5.7203c1.17133,2.36002 2.44266,3.34141 4.03756,5.4136c1.64938,2.14299 2.28915,4.66428 3.637,6.94921c0.08075,0.13689 0.16819,0.26867 0.26115,0.39625c0.215,0.17032 0.37089,0.37945 0.48325,0.58317c0.70945,0.76768 1.57745,1.41545 2.26862,2.20306c1.08917,1.24115 1.80447,2.75639 2.60045,4.2131c0.2789,0.22266 0.55204,0.45357 0.81318,0.69806zM311.8995,200.08129c-2.42141,3.6541 -5.83619,9.18005 -9.80662,11.19958c-1.36525,0.69443 -2.94443,0.85491 -4.3811,1.38606l-0.2408,-0.04077l0.01042,0.0834l-1.9687,0.24609c-0.09129,0.01276 -0.18456,0.01936 -0.27937,0.01936c-0.37467,0 -0.72528,-0.10303 -1.02504,-0.2823c-0.6203,0.11379 -1.1772,-0.09505 -1.1772,-0.09505l-2.14775,-0.81227c-0.00433,-0.00246 -0.00865,-0.00491 -0.01298,-0.00737c-0.00113,-0.00014 -0.00227,-0.00027 -0.0034,-0.00041c-0.33232,-0.04036 -0.5941,-0.22884 -0.82843,-0.47736c-1.03392,-0.60034 -2.05746,-1.21879 -3.07117,-1.85252c-1.37158,-0.76825 -2.615,-1.6188 -3.77504,-2.53061c-1.17721,-0.65584 -2.29871,-1.36925 -3.26939,-2.18121c-1.72956,-1.44675 -3.04043,-3.56971 -4.85902,-4.88842c-1.28471,-0.93158 -2.71037,-1.69903 -3.84149,-2.81208c-2.25702,-2.99971 -6.19474,-5.65057 -7.80484,-8.97191c-0.91368,-1.88476 -1.17597,-3.98565 -2.1976,-5.89478c-1.83108,-3.42174 -4.22424,-6.62411 -6.00821,-10.0155c-0.03153,-0.05994 -0.06262,-0.1201 -0.0933,-0.18047c-1.88514,-0.07507 -1.88514,-1.99774 -1.88514,-1.99774l0.01194,-2.53177c-0.14912,-0.65336 -0.28705,-1.30766 -0.41586,-1.9627c-0.33173,-0.25044 -0.58297,-0.60183 -0.70804,-1.00849l-0.65208,-1.95625l0.12828,-0.04276l-0.20509,-0.26933c-0.02627,-5.23839 -2.66774,-9.62765 -2.68863,-14.86276c-0.22131,-1.77044 -0.32807,-3.55424 -0.3737,-5.3436c-0.47461,-1.5435 -0.84341,-3.13883 -0.84683,-5.02234c0,-7.49893 0.37508,-14.9465 0.75012,-22.3899c-0.74737,-1.88795 0.0933,-4.15078 0.13186,-6.22426c-0.0002,-1.71473 0.00003,-3.42945 0.00136,-5.14417c0.00001,-0.00869 0.00001,-0.01743 0,-0.02621v-7.97379c0,-0.66667 -0.4714,-1.5286 0,-2v-1.5113c-0.14068,-0.31576 -0.23523,-0.71785 -0.13332,-1.15617c-0.18194,-0.61697 -0.34505,-1.27012 -0.4728,-1.99539c0,0 -0.01932,-0.11589 -0.02049,-0.29618c-0.00998,-0.38075 0.05822,-0.93187 0.44626,-1.37142c0.23748,-0.27995 0.59734,-0.51409 1.13965,-0.61979c0.53949,-0.11931 0.96285,-0.04806 1.29227,0.11398c0.53112,0.24838 0.81341,0.7266 0.95608,1.07976c0.07081,0.16581 0.0993,0.27979 0.0993,0.27979l0.46928,1.89045c0.1101,0.29515 0.23488,0.58438 0.37338,0.86648c0.63196,0.65425 1.45576,1.4232 1.9804,1.54514c5.38835,1.25235 8.31353,-1.94504 12.41849,-4.50786c2.74088,-1.7112 5.47734,-3.02834 8.15649,-4.93717c2.77289,-1.97562 6.23943,-4.09345 7.91546,-7.097c1.39623,-2.55975 2.29766,-4.43015 4.47336,-6.33388l1.12991,-1.58187c0.36126,-0.51931 0.96241,-0.85921 1.64296,-0.85921c0.50596,0 0.96803,0.18788 1.32027,0.49767c0.20957,0.04494 0.43379,0.12972 0.67201,0.26584c0.86284,0.49305 1.05195,1.16985 1.02384,1.72605c3.4796,3.86693 5.99777,8.83542 8.67474,13.19226c1.16015,1.88817 3.22591,3.12267 4.65223,4.80113c0.99951,1.0127 1.98947,2.02479 3.14014,2.94252c1.64142,1.30913 3.36199,1.67856 5.27436,2.47357c0.54055,0.22472 1.26308,0.26702 1.71959,0.59561c1.23741,-0.10094 2.45935,-0.24272 3.39854,-0.24078c0.25382,-0.02415 0.50173,-0.06206 0.74385,-0.11275c0.18683,-0.0592 0.36798,-0.12769 0.54194,-0.20686c1.9543,-0.88948 2.59137,-3.25211 4.53691,-4.20277l1.74153,-1.49274c0.14359,-0.12458 0.30511,-0.22903 0.48017,-0.30898c0.2167,-0.55209 0.70945,-1.17977 1.82988,-1.17977c2,0 2,2 2,2c-0.00506,8.66553 2.24813,17.57904 1.23806,26.21823c-0.64067,5.47971 -1.52472,10.81965 -1.98979,16.36488c0.00001,0.01126 0.00001,0.02252 0.00001,0.03377c0.50172,0.5876 0.50172,1.38311 0.50172,1.38311v0.75c0,4.3726 -0.40584,8.69461 -0.77273,13.05067c-0.68301,3.02622 -0.21515,6.19288 -1.04065,9.19885c-1.2719,4.63147 -4.08922,8.95495 -5.25871,13.53262c-0.68307,2.67369 -1.34689,5.21469 -2.11051,7.73054c-0.4351,2.44819 -0.91612,4.88597 -1.49078,7.30186c-0.81983,1.17932 -1.45165,2.40845 -2.03046,3.66239c-0.45392,1.81515 -1.02643,3.62436 -1.98666,4.37603c-0.00687,0.01382 -0.01375,0.02765 -0.02064,0.04147l-0.98062,1.96125c-0.28807,0.60768 -0.87345,1.047 -1.56827,1.13008c-0.92,1.87728 -1.35193,4.02665 -2.57379,5.87054z" fill="#711c65"></path></g><g fill-opacity="0.37255" fill="#2e1340"><path d="M189.68932,259.5284c0.49667,0.09933 0.88357,0.27185 1.18428,0.48722c0.19874,0.0345 0.39015,0.09033 0.57181,0.16505l0.27399,-0.49318c0.46179,-0.86999 1.37701,-1.4625 2.43061,-1.4625c1.51878,0 2.75,1.23122 2.75,2.75c0,0.40632 -0.08812,0.79207 -0.2463,1.13916l-1.47605,3.44412l-0.23108,-0.09903c-0.29616,2.14394 -0.80823,4.22086 -1.71214,6.70555c-0.86876,2.38809 -1.13402,3.43113 -2.42377,5.63353c-0.13947,0.23816 -0.45033,0.52137 -0.75597,0.79505c0.53412,0.38732 1.06841,0.76493 1.60005,1.13914c0.77102,-0.05869 1.54373,-0.1263 2.28457,0.04588c1.37436,0.31942 2.60934,1.07467 3.914,1.612l0.22308,0.41871l0.13448,-0.15369l1.9883,1.73976c0.58239,0.50425 0.95082,1.24901 0.95082,2.07983c0,0.79453 -0.33695,1.51037 -0.87575,2.0124c0.13385,0.31805 0.20801,0.68763 0.16973,1.10875c0.00229,0.52429 -0.16128,1.10489 -0.66795,1.65318c-0.44881,0.59658 -0.99078,0.86137 -1.50703,0.9529c-0.81817,0.22689 -1.51301,-0.0294 -2.00813,-0.34876l-0.49651,-0.25309c-1.12163,-0.66817 -2.34064,-1.19491 -3.36488,-2.0045c-1.15453,-0.91258 -1.63971,-2.56482 -2.81199,-3.42223c-0.59235,-0.07823 -1.1728,-0.18285 -1.72345,-0.34413c-1.5811,0.59213 -2.62671,3.60937 -4.5091,3.88142c-1.19071,2.33242 -2.23352,4.85292 -2.79707,6.96989c-0.14484,0.54409 -0.30451,1.51099 -0.49811,2.52853c0.05306,0.96826 0.09024,1.89785 0.09024,2.76564c0,0 0,2.75 -2.75,2.75c-0.67161,0 -1.1792,-0.16402 -1.56282,-0.41195c-2.93496,0.3623 -5.47423,-2.14865 -7.25677,-4.52716c-0.87281,-1.16463 -2.4179,-2.17575 -2.42453,-3.63113c-0.01889,-4.14432 4.68386,-5.33756 6.64031,-8.10734l1.41285,-2.59022c0.18862,-0.36242 0.45559,-0.67755 0.77845,-0.92294c0.00239,-0.0082 0.00478,-0.0164 0.00718,-0.02459c1.00798,-3.43905 3.06721,-4.70245 5.03582,-7.14197c-0.05604,-0.19584 -0.09496,-0.39428 -0.11433,-0.59508c-0.14377,-1.48985 0.92451,-2.85077 1.50183,-4.23172c0.79486,-1.90128 1.85463,-3.62382 2.89253,-5.3665c-0.58662,-0.31596 -1.07841,-0.69159 -1.41295,-1.12173c-0.34501,-0.4436 -0.48391,-0.97498 -0.52983,-1.54376c-0.20344,-0.13675 -0.3876,-0.29997 -0.54756,-0.48472l-1.73976,-1.9883l0.09764,-0.08544c-0.1825,-0.1706 -0.35455,-0.35279 -0.51379,-0.54917c-1.66029,-2.04752 -0.76578,-7.67346 -0.76427,-10.17628c0.00229,-3.78757 0.12678,-8.19892 1.77963,-11.70822c0.84454,-1.7931 2.3305,-3.20731 3.44971,-4.84311c0.87345,-1.27661 1.73463,-2.59577 2.58149,-3.9329c0.58788,-2.87392 1.23337,-5.72978 2.04884,-8.53464c0.90159,-3.10108 2.34684,-5.85997 3.61125,-8.81106c1.38845,-3.24059 2.42506,-6.86103 4.52361,-9.7434c0.74205,-1.0192 1.36461,-2.4094 2.57166,-2.77331c0.26434,-0.07969 0.53159,-0.1397 0.80123,-0.18368l-0.03439,-0.13758l2.94017,-0.73504c0.00095,-0.00026 0.00189,-0.00052 0.00284,-0.00077c0.60789,-0.53715 1.59249,-0.98662 2.9538,-0.30597c2.45967,1.22984 1.22984,3.68951 1.22984,3.68951c-1.6114,3.20892 -2.65223,6.67399 -4.00889,9.99863c-3.14752,7.7133 -7.98117,14.61878 -10.30246,22.76241c-0.92063,3.22979 -1.31063,6.69598 -2.17583,9.974c0.67534,0.02008 1.43556,0.31456 2.06565,1.25969c1.52543,2.28814 -0.76271,3.81356 -0.76271,3.81356c-3.85411,2.4343 -3.80027,5.69185 -4.16489,9.63981c0.43547,-0.18806 0.98592,-0.26311 1.67878,-0.12454z"></path><path d="M216.49077,185.40805c-0.04924,-0.32016 -0.04291,-0.66461 -0.01444,-1.01727c-0.04382,0.02734 -0.08788,0.05422 -0.13218,0.08067l0.04293,0.06678l-0.17614,0.11324c0.00752,0.04984 0.0171,0.09952 0.029,0.14901c0.03715,0.15449 0.13555,0.37602 0.25083,0.60757zM208.65,183.975l0.01365,-0.77364c0.36206,-3.5253 1.2672,-7.02836 2.42903,-10.44923c0.42851,-1.80704 0.89195,-3.59658 1.42771,-5.3319c0.83446,-2.70283 1.99144,-5.30484 3.23345,-7.86858c0.19457,-0.55018 0.43492,-1.07189 0.75796,-1.54312c1.06267,-2.14015 2.15157,-4.26223 3.12644,-6.40317c0.62155,-1.36499 0.62773,-3.02095 1.49698,-4.24321c0.04146,-0.05829 0.08352,-0.11606 0.12617,-0.17333l-0.0327,-0.01761l1.72322,-3.20026c0.45591,-0.88822 1.38102,-1.49596 2.44808,-1.49596c1.51878,0 2.75,1.23122 2.75,2.75v2.5h-0.07166l0.06635,0.17088c-1.21692,9.82424 -4.45908,19.16717 -6.01345,28.89979c-0.49164,3.07841 0.78158,6.63813 -0.02295,9.65647c-0.43951,1.64892 -0.77643,3.73157 -2.24479,4.6011c-3.67733,2.17763 -7.01779,-1.00703 -8.52016,-3.8288c-1.49263,-0.03017 -2.69334,-1.24958 -2.69334,-2.74943c0,-0.09506 0.00482,-0.18899 0.01424,-0.28157c-0.01424,-0.13613 -0.01424,-0.21843 -0.01424,-0.21843z"></path><path d="M230.12236,69.58609c0.2161,1.51267 -0.52839,2.3049 -1.23268,2.71029c0.01032,0.1122 0.01032,0.17862 0.01032,0.17862c-0.00074,3.05753 0.06927,6.11697 0.24881,9.16922l-0.03441,0.08078h0.03559v3c0,1.51878 -1.23122,2.75 -2.75,2.75c-1.35177,0 -2.47573,-0.97532 -2.70659,-2.26064l-0.74001,-3.70004l0.03916,-0.00783c-0.02392,-0.0598 -0.04727,-0.11988 -0.07004,-0.18024c-1.13881,-3.0188 -0.29885,-8.1517 -0.01123,-11.35022l4.0998,-2.72339c0,0 2.72236,-0.38891 3.11127,2.33345z"></path><path d="M306.95,290.63333c1.15265,0.00044 2.36307,-0.35752 3.45795,0.00282c0.04057,0.01335 0.08104,0.02692 0.12143,0.04071l0.00293,-0.03224l3.63874,0.33079c1.41542,0.11258 2.52895,1.29687 2.52895,2.74125c0,1.51878 -1.23122,2.75 -2.75,2.75h-2.58078c-7.01311,0.5857 -13.84448,0.40722 -20.82247,0.34864c-1.26964,0.64842 -2.73079,0.78618 -4.41221,-0.11555c-0.1284,-0.06886 -0.24467,-0.1487 -0.35008,-0.23825c-0.00178,-0.00005 -0.00356,-0.00011 -0.00535,-0.00016c-1.60904,-0.04636 -3.236,0.23578 -4.82912,0.00531c-1.86255,-0.26945 -4.68436,0.22963 -5.44521,-1.49165c-0.82151,-1.85852 1.0168,-4.06519 2.28836,-5.65015c0.37649,-0.46928 0.86778,-0.80242 1.40685,-1.07948v-2.86205c-0.12346,-0.55494 0.07419,-5.33529 0.00531,-6.49579c-0.15153,-2.5531 -0.59986,-6.29566 -1.21489,-8.68853c-0.6176,-2.40286 -2.4435,-5.2837 -3.34326,-7.69936l0.03842,-0.20572l-0.08676,0.01928l-0.41769,-1.8796c-0.68105,-1.04568 -1.36316,-2.08602 -2.0978,-3.06696c-2.819,-3.76415 -6.78751,-7.59402 -8.32035,-12.27502c-0.15576,0.0274 -0.31604,0.04169 -0.47965,0.04169c-1.41573,0 -2.58159,-1.0698 -2.73329,-2.4451l-0.32881,-2.63047l0.11977,-0.01497c-0.05244,-0.21262 -0.09385,-0.42833 -0.12214,-0.64771c-0.30197,-2.34169 2.34169,-4.77826 3.39184,-6.45751c1.02737,-1.64282 1.63388,-3.53684 2.74712,-5.12273c0.98324,-1.40069 2.12162,-2.57508 3.38601,-3.55701c0.42079,-1.61814 0.65545,-2.95911 2.11547,-4.66098c0.67767,-0.78992 2.1439,-1.85733 3.73782,-2.61269c-1.15302,-5.04594 -2.38102,-10.07456 -2.39713,-15.2675c0,0 0,-1.61635 1.23919,-2.37068c-0.567,-0.37595 -1.1347,-0.74745 -1.68721,-1.14154c-1.00664,-0.1077 -1.58244,-0.6232 -1.9118,-1.17769c-2.95299,-1.9404 -5.24984,-4.55508 -6.39435,-7.73676c-3.32059,-4.45897 -5.51711,-10.42104 -8.19976,-15.22948l-0.1955,-0.89569c-0.06859,-0.11428 -0.12917,-0.23304 -0.17883,-0.35798c-0.18772,-0.47229 -0.35978,-0.95642 -0.5201,-1.44952c-0.70612,-0.21388 -1.29215,-0.7041 -1.63225,-1.34482l-1.22332,-2.20198l0.01201,-0.00667c-0.01353,-0.01524 -0.02702,-0.03053 -0.04046,-0.04586c-1.78055,-2.03223 -1.48104,-3.76607 -1.7973,-6.19925c-0.2578,-1.98344 -0.38144,-4.01917 -0.49285,-6.06673c-0.74928,-1.78203 -1.40957,-3.59791 -1.74055,-5.56785c-0.04802,-0.28582 -0.09254,-0.57295 -0.13373,-0.86128c-0.09422,0.16889 -0.20573,0.32682 -0.33214,0.47139c-0.05359,0.52197 -0.10408,0.91602 -0.14564,1.07683c-0.48789,1.88816 -1.38475,3.67118 -1.71743,5.59276c-0.20126,1.1625 0.04673,2.48084 -0.55512,3.49558c-0.05411,0.09124 -0.11012,0.18105 -0.16788,0.26956l0.06832,0.02733l-0.11501,0.28752c-0.01881,0.10461 -0.0352,0.16473 -0.0352,0.16473c-0.49479,1.80254 -0.74577,3.66363 -1.16111,5.48612c-0.0693,0.30409 -0.62738,0.62824 -0.4027,0.84455c0.61495,0.59205 1.95065,0.27005 2.34615,1.02653c0.80709,1.54372 1.58199,3.55493 0.88345,5.15071c-3.28888,7.5133 -9.86723,0.9023 -10.31519,-3.58883c-0.11785,-1.18153 0.62369,-2.29993 0.7669,-3.47865c0.7811,-6.42909 -0.02317,-13.54497 -0.01858,-20.01953l0.04028,-0.10275l-0.0342,-0.00263l0.24814,-3.22582c0.05573,-0.83102 0.48062,-1.56093 1.11209,-2.02712c0.3594,-0.90141 0.82644,-1.66944 1.37305,-2.15033c1.25542,-1.10449 5.72803,-1.39152 7.37363,-1.11148c0.17092,0.02909 0.33804,0.06146 0.50146,0.09705c0.1036,-1.85301 0.24863,-3.69794 0.39541,-5.50975c-0.35258,-0.54281 -0.45848,-1.07231 -0.45848,-1.07231l-0.35786,-1.78932h-1.19554c-1.9047,-0.00112 -5.7548,0.07559 -7.22854,-0.42999c-1.15344,-0.3957 -2.22839,-1.17173 -3.23526,-2.10991c-1.51352,-0.31324 -3.03426,-1.08563 -4.06902,-1.67691c-1.68418,-0.96238 -2.93378,-2.77675 -4.22535,-4.15443c-0.26783,-0.28569 -1.72622,-1.71933 -2.85705,-2.8524c1.11259,1.94246 2.09433,3.97929 2.9059,5.92127c0.18652,0.44631 0.3468,0.91005 0.50721,1.37439c1.35476,1.03104 2.72784,2.03489 3.97952,3.13066l2.0101,1.11672c0.86999,0.46179 1.4625,1.37701 1.4625,2.43061c0,1.44437 -1.11353,2.62867 -2.52895,2.74125l-2.72207,0.24746l-0.01602,-0.17622c-0.33589,0.06005 -0.67693,0.08712 -1.0247,0.07107c-2.89868,-0.13379 -4.60832,-3.48295 -5.74758,-6.28286c-1.70644,-1.3844 -3.35595,-2.84361 -4.83737,-4.60723c-1.12413,-1.33828 -2.04731,-2.86121 -2.8091,-4.47445c-0.04363,0.08739 -0.08726,0.17478 -0.13089,0.26217c-2.06782,3.73501 -4.37687,7.6497 -5.8499,11.66139c-0.57972,1.57881 -0.69281,3.30675 -1.29929,4.87546c-1.9442,5.02879 -6.02805,9.71509 -8.60952,14.47957c-2.1996,4.05969 -3.10316,8.45799 -5.26153,12.52131c-4.21328,7.93189 -8.49131,15.75391 -11.02308,24.45108c0,0 -0.77,2.64 -3.41,1.87c-0.36104,-0.1053 -0.65831,-0.24558 -0.90249,-0.4093c-0.10739,0.01274 -0.21669,0.0193 -0.32751,0.0193c-1.44437,0 -2.62867,-1.11353 -2.74125,-2.52895l-0.24746,-2.72207l0.00375,-0.00034l-0.00466,-0.00996c-0.08676,-1.08713 -0.17352,-2.17427 -0.26028,-3.2614c0.18513,-1.24565 0.01236,-2.60071 0.55538,-3.73695c0.45136,-0.94445 1.63155,-1.34085 2.26836,-2.17162c0.4924,-0.64238 0.94215,-1.35097 1.36274,-2.10212c0.02399,-0.29583 0.04681,-0.59168 0.06874,-0.88746c0.0265,-0.35747 -0.0232,-0.72812 -0.07276,-1.09725c-1.36925,-0.15739 -2.43255,-1.32046 -2.43255,-2.73188c0,-0.46419 0.11501,-0.90152 0.31809,-1.28504l-0.79793,-0.50528c-2.5778,-1.3192 -4.65285,-1.91706 -6.19477,-4.66207c-2.71049,-4.82535 -0.03008,-11.89734 1.89552,-16.37754c0.84385,-1.96334 1.1815,-4.12032 2.03536,-6.07932c2.05758,-4.72066 6.03029,-8.82845 9.49381,-12.4783c1.22704,-1.29305 1.61449,-3.30106 2.99207,-4.43237c0.04871,-0.04001 0.09775,-0.07956 0.14708,-0.11868l-0.03664,-0.02931l1.13175,-1.41469c-0.18022,-2.36196 -0.27441,-4.74505 0.04478,-7.01673c0.87703,-6.24171 4.59846,-10.48452 9.16401,-13.96059c-0.03118,-0.36272 0.00187,-0.71815 0.14028,-1.06236c0.73816,-1.83571 2.61539,-2.9696 3.92309,-4.4544l0.28352,-0.06324l-0.06547,-0.09821l2.96872,-1.97914c0.44263,-0.30449 0.97885,-0.48272 1.55671,-0.48272c1.27182,0 2.34199,0.86337 2.65639,2.03598c0.1395,0.0262 0.28285,0.05757 0.43029,0.09439c1.86605,0.46601 2.74453,2.91602 4.56952,3.52323c0.3196,0.10634 0.63273,0.19114 0.94103,0.25778c0.47009,-0.842 1.36994,-1.41138 2.40277,-1.41138c0.96969,0 1.82215,0.50189 2.3118,1.26006l0.11385,0.17078c0.71062,-0.07381 1.44323,-0.14774 2.21881,-0.17882c1.02329,-0.041 2.23632,-0.5909 3.07837,-0.0209c0.09519,0.00725 0.19011,0.01375 0.28456,0.01887h3.24261c1.51878,0 2.75,1.23122 2.75,2.75c0,1.51878 -1.23122,2.75 -2.75,2.75h-2.51883c1.36384,1.38218 2.49147,4.28693 3.51901,5.36273c1.55607,1.62916 3.06658,3.30235 4.65288,4.9021c0.83872,0.84583 3.50708,2.24838 4.09729,3.11413c0.01543,0.02264 0.03076,0.04533 0.046,0.06808l0.01455,-0.01663l1.9883,1.73976c0.47138,0.40813 0.80259,0.97384 0.91173,1.6152c1.35271,0.45371 3.36851,1.04249 4.32929,1.3306l-0.04021,-0.11598c0,0 0.3813,0 0.85994,0.14198c-0.03929,-5.80344 0.77443,-11.70868 0.87905,-17.46069c-1.03152,0.33125 -2.12448,0.50027 -3.0131,0.5686c-2.94496,0.22647 -7.29113,-2.43555 -8.64344,-5.05751c-0.88766,-1.72106 -2.63004,-3.83506 -1.72548,-5.54731c0.48879,-0.92525 1.5685,-1.10302 2.73961,-1.16518c-0.00807,-0.03255 -0.01574,-0.06524 -0.023,-0.09807c-0.46772,-2.11783 -0.16455,-4.18049 0.60811,-6.14679c-0.11736,-0.30581 -0.18168,-0.63791 -0.18168,-0.98503c0,-0.69835 0.26031,-1.3359 0.68919,-1.82091l1.74123,-1.98997l0.0175,0.01531c0.01447,-0.0278 0.02911,-0.05552 0.04391,-0.08318c0.57792,-1.0797 1.72706,-1.73436 2.6043,-2.59134l2.12039,-3.06279c0.47555,-0.70702 1.27078,-1.1811 2.17858,-1.21515c0.62673,-0.49789 1.60596,-0.87472 2.90868,-0.17326c2.4213,1.30377 1.11752,3.72507 1.11752,3.72507c-0.0749,0.13774 -0.14846,0.27549 -0.22079,0.41326c0.89535,-0.06858 1.74585,-0.05308 2.50928,0.07168c1.26236,0.2063 2.34277,0.72777 3.32323,1.41076l2.59652,0.94419c1.08744,0.36683 1.87046,1.39515 1.87046,2.60634c0,1.51878 -1.23122,2.75 -2.75,2.75h-2.5c-2.23677,0 -4.4822,-0.21222 -6.71029,-0.0153c-0.71092,0.06283 -1.42767,0.54746 -2.11697,0.65504c-0.02212,0.04646 -0.04435,0.09294 -0.06668,0.13943l-0.90536,-0.02888l-0.30132,0.16435l0.14081,0.46938l-2.43878,0.73163c-0.09042,0.02941 -0.1829,0.05427 -0.27717,0.0743c-0.50436,1.36697 -0.56191,2.83638 0.38541,4.58021l0.32846,0.45441c0,0 0.7437,1.11556 0.41362,2.3081l0.33936,-0.43974c0.84347,0.23682 1.85496,0.24314 2.79913,0.34182c-0.02504,-1.41579 0.06652,-2.7314 0.42313,-3.70573c0.03161,-0.08635 0.06504,-0.17177 0.10019,-0.25631l-0.06017,-0.01203l0.49001,-2.45004c0.23085,-1.28532 1.35482,-2.26064 2.70659,-2.26064c1.43677,0 2.61619,1.10183 2.73938,2.50662l0.17551,1.75507c0.8699,-0.35887 1.89092,-0.00808 2.83512,-0.01169c1.53308,-0.00585 3.06319,-0.14692 4.59608,-0.17112c0.29537,-0.00466 0.77954,0.40836 0.87673,0.12939c0.25401,-0.72905 -0.57393,-1.69173 -0.11586,-2.31319c1.38789,-1.88298 4.7014,-3.25042 6.99371,-3.61593c0.93895,-0.14972 3.42885,0.22551 4.56816,-0.3077c3.37654,-1.58026 4.76483,-4.9149 6.90419,-7.6517c1.22746,-1.57025 3.92119,-4.75251 5.91073,-6.33062c0.26001,-0.53542 0.51413,-1.07787 0.76275,-1.62709c0,0 0.56216,-1.23676 1.76551,-1.57662c0.44759,-0.49988 1.15693,-0.8881 2.27588,-0.77031c0.61874,0.06513 1.08276,0.25551 1.4304,0.51113c-0.00161,0.03143 -0.00161,0.04876 -0.00161,0.04876c0,0.31886 -0.00179,0.63936 -0.005,0.96132c1.8667,0.35177 2.07469,2.43171 2.07469,2.43171c1.62188,16.2188 0.85706,32.87902 0.70009,49.23334c0.05368,2.03688 0.12696,4.06921 0.21664,6.104l0.07568,0.5952c0,0 0.03891,0.31127 -0.01469,0.73669c0.08478,1.78558 0.18164,3.57424 0.2884,5.3707c0.28166,4.73927 -0.31349,9.46427 0.35095,14.18322l0.05723,0.18574c-0.07733,0.30272 -0.07733,0.53142 -0.07733,0.53142c0,13.22222 0,26.44444 0,39.66667c0.01702,8.37465 0.36033,16.75026 0.54746,25.14048c-0.34708,0.07083 -0.75095,0.07495 -1.22012,-0.01888c-0.46434,-0.09287 -0.83273,-0.2497 -1.12445,-0.44572c-0.58446,-0.00588 -1.02602,-0.16645 -1.02602,-0.16645c-3.91256,-1.43377 -8.59926,-3.36992 -11.95772,-5.88257c-0.61493,-0.46006 -1.75104,-1.67407 -2.78315,-2.75491c0.17178,4.88518 1.4454,9.66999 2.55761,14.47009c0.16185,0.37731 0.24516,0.81006 0.28912,1.26816c0.19337,0.8649 0.37791,1.73062 0.54623,2.59784c0.2542,0.32583 0.45376,0.76071 0.55029,1.33985c0.0615,0.36898 0.06444,0.69614 0.02361,0.98602c0.56518,0.46065 0.94379,1.14148 1.00505,1.9117l0.3226,3.5486c0.65591,3.69044 1.70236,7.74901 3.39704,11.1117c1.98514,3.93903 5.31691,7.37247 6.37862,11.75724l1.26209,2.52418c0.2012,0.38215 0.31507,0.81744 0.31507,1.27932c0,1.51878 -1.23122,2.75 -2.75,2.75c-0.29353,0 -0.57631,-0.04599 -0.84155,-0.13115c0.07455,0.28364 0.14414,0.57062 0.2086,0.86111c0.38236,1.72331 -0.06917,3.56481 0.32373,5.28575c0.80998,3.54779 1.5198,7.38126 2.87861,10.78443c3.56811,-0.16425 8.72502,-0.80349 11.38095,1.2255c1.22015,0.93213 1.72044,2.54373 2.58066,3.8156l-0.04329,0.4535l0.18018,-0.04505l0.65171,2.60684c0.06328,0.23152 0.09707,0.47521 0.09707,0.7268c0,1.51878 -1.23122,2.75 -2.75,2.75c-0.83082,0 -1.57558,-0.36843 -2.07983,-0.95082l-2.09305,-2.39205c-0.79201,-0.4405 -3.85523,-2.11889 -4.43253,-1.70365c-1.98542,1.42807 1.08348,6.17356 0.60158,7.31669c-0.25203,0.59785 -0.64155,1.10573 -1.10398,1.56311c2.92482,-0.00022 5.84965,-0.00106 8.77447,0.00005zM221.39608,112.7754c-0.13271,-0.26292 -0.26394,-0.52598 -0.39495,-0.78889c-0.44228,-0.38126 -0.88203,-0.7617 -1.31797,-1.14155c0.5173,0.67204 1.14854,1.2862 1.71292,1.93044zM268.87705,239.51529c0.06836,-0.43929 0.14076,-0.87196 0.2148,-1.29563c-0.10554,0.43558 -0.17613,0.86749 -0.2148,1.29563z"></path></g><g fill-opacity="0.37255" fill="#2e1340"><path d="M220.55835,155.99987c0.94362,-2.99688 1.67881,-6.05154 1.98863,-9.22351c0,0 0.27364,-2.73635 3.00999,-2.46272c2.73635,0.27364 2.46272,3.00999 2.46272,3.00999c-1.34752,13.20256 -10.37826,24.65641 -10.31969,38.0597v2.66667c0,1.51878 -1.23122,2.75 -2.75,2.75c-0.67623,0 -1.29545,-0.24408 -1.77437,-0.64895l-1.98613,-1.65511l0.11691,-0.14029c-0.31378,-0.23065 -0.59965,-0.49493 -0.84677,-0.80589c-1.01873,-1.2819 0.08895,-7.01395 0.54226,-8.3515c2.17979,-6.43167 4.84211,-12.60814 6.62834,-19.20517l1.19343,-2.50626c0,0 0.57823,-1.15646 1.73469,-1.48695z"></path><path d="M224.90039,69.62942c0.35118,-0.67198 1.03834,-1.32942 2.38295,-1.32942c2.75,0 2.75,2.75 2.75,2.75v2.66667c-0.00446,1.20144 0.38947,2.47242 -0.01338,3.60431c-0.03071,0.08628 -0.06264,0.17201 -0.09572,0.2572l0.0557,0.01114l-0.65668,3.28338c-0.23085,1.28532 -1.35482,2.26064 -2.70659,2.26064c-1.30873,0 -2.40393,-0.9142 -2.68184,-2.13883l-0.62472,-2.49888c-0.68394,-1.85958 -1.16414,-3.80687 -1.4222,-5.77119c0,0 -0.3411,-2.72876 2.38767,-3.06986c0.22398,-0.028 0.43188,-0.03531 0.62481,-0.02515z"></path><path d="M257.61667,78.3v0c1.51878,0 2.75,1.23122 2.75,2.75c0,1.30873 -0.9142,2.40393 -2.13883,2.68184l-2.61086,0.65271l-0.02252,-0.09009c-0.10161,0.05257 -0.20439,0.10316 -0.30845,0.15159c-0.90744,0.42235 -2.00176,0.01717 -3.00267,0.0206c-2.8377,0.00974 -5.08082,-0.08467 -7.82838,0.61991l-0.1718,-0.03799l0.00794,0.06351l-2.62363,0.32795c-0.12553,0.01754 -0.25377,0.02662 -0.38413,0.02662c-1.51878,0 -2.75,-1.23122 -2.75,-2.75c0,-0.84174 0.37818,-1.59515 0.9739,-2.09959l2.31976,-1.98837l0.0312,0.0364c1.43482,-2.05054 3.17981,-3.91011 5.11005,-4.28757c1.53892,-0.30094 3.09338,0.51609 4.64007,0.77414l0.29422,0.31472l0.07852,-0.13741l2.28698,1.30685c0.64022,0.35027 1.12584,0.9478 1.32845,1.66415z"></path><path d="M167.53334,294.71666l0.36233,-1.69772c0.78023,-1.11582 1.14677,-2.69297 2.3407,-3.34745c0.44105,-0.24177 0.9241,-0.34455 1.42914,-0.37509c0.30617,-0.79884 0.67717,-1.57084 1.09599,-2.29314c0.69194,-2.00725 1.38692,-4.16574 3.09064,-5.30148c0.69645,-0.46427 1.63886,-0.32369 2.46593,-0.49469c1.5016,-5.39905 3.17512,-10.81366 4.64551,-16.21399c0,0 0.10817,-0.39663 0.39423,-0.84136c-0.7433,-0.37425 -1.8689,-1.2625 -1.40902,-3.10204c0.03847,-0.15388 0.08359,-0.29666 0.13448,-0.42911l-0.19535,-1.56282l0.07954,-0.00994l-0.09547,-0.16027c-0.00203,-1.08134 -0.00385,-2.16269 -0.00511,-3.24404c-0.14367,-0.13277 -0.27983,-0.27463 -0.40724,-0.42707c-0.82123,-0.98264 -0.21532,-2.55324 -0.25963,-3.83309c-0.07304,-2.10985 0,-4.22222 0,-6.33333v-2.66667c0,-1.51878 1.23122,-2.75 2.75,-2.75c0.0567,0 0.11299,0.00172 0.16884,0.0051c0.0472,-2.5056 -0.35679,-4.94202 0.58531,-7.54253c1.86967,-5.16089 5.19858,-9.52347 7.80883,-14.32005c1.428,-2.62407 1.44874,-5.71673 2.57648,-8.47683c0.25112,-0.61461 0.51445,-1.19001 0.79189,-1.73615c0.04522,-0.14512 0.09303,-0.28948 0.1438,-0.43297c0.07248,-0.20484 2.61669,-5.27944 2.7985,-5.64308c0,0 1.22984,-2.45967 3.68951,-1.22984c1.38119,0.6906 1.599,1.76899 1.52447,2.58189c0.72383,0.57153 1.33348,1.21706 1.62131,2.07111c0.56408,1.67369 -0.92413,3.4106 -1.46259,5.09271c-0.62045,1.93825 -1.48538,4.07953 -2.72759,5.71653c-0.49579,0.65336 -1.38169,0.97575 -1.79239,1.68569c-1.14679,1.98236 -1.83122,5.36318 -2.39182,7.64538l0.08211,0.33303c0,0 0,2.48942 -2.36855,2.73118c-0.09468,0.18999 -0.19058,0.37735 -0.28774,0.56185c-0.4214,0.80019 -1.21247,1.37471 -1.59707,2.19323c-1.50778,3.20896 -2.16461,7.22963 -3.19381,10.63007c-1.15093,3.80263 0.1107,7.98081 -0.89149,11.72122c-0.17357,0.64782 -0.40646,1.27565 -0.66587,1.89454c0.01098,0.99391 -0.0665,1.93288 -0.33164,2.72586c-0.01355,0.04053 -0.02729,0.081 -0.04121,0.12138l0.03274,0.00298l-0.15762,1.73379c1.86068,0.47282 4.00288,1.02843 4.05397,1.09684c2.94293,3.94061 0.27575,8.45707 -2.48122,12.27717c0.78064,1.63041 1.97275,3.03207 2.75868,5.02245c0.29556,0.74852 0.25311,1.60551 0.53839,2.35526c1.49765,0.54033 2.90608,1.31082 4.1603,2.32096l0.08875,0.25013l0.07932,-0.0661l1.65511,1.98613c0.40487,0.47892 0.64895,1.09814 0.64895,1.77437c0,1.51878 -1.23122,2.75 -2.75,2.75c-0.36227,0 -0.70819,-0.07005 -1.02493,-0.19735l-2.60732,-0.97775l0.03462,-0.09231c-0.15122,-0.03036 -0.30176,-0.0653 -0.45154,-0.10537c-1.65244,-0.44214 -2.75536,-1.70226 -3.56911,-3.19058c-0.82899,-0.11523 -1.69262,-0.1237 -2.56209,-0.0369c-0.33373,0.6497 -0.58509,1.12461 -0.64345,1.19823c-0.8602,1.08505 -2.11654,2.33476 -3.4762,3.59445c-0.03399,0.12191 -0.07548,0.24191 -0.12621,0.35956c-0.32002,0.74223 -0.71526,1.48617 -1.20365,2.14948c-0.2009,1.62286 -0.62454,3.25076 -0.6201,4.88187v3.33333c0,1.51878 -1.23122,2.75 -2.75,2.75c-0.75939,0 -1.44689,-0.3078 -1.94454,-0.80546l-2.25178,-2.25178c-0.47366,0.15399 -1.04893,0.17084 -1.72581,-0.0955c-0.72097,-0.22892 -1.16354,-0.62623 -1.43127,-1.06446c-0.33662,-0.48561 -0.42713,-1.01206 -0.41219,-1.47386c-2.31774,-0.27191 -2.31774,-2.72561 -2.31774,-2.72561z"></path><path d="M272.38924,195.71038c-1.23233,-1.14074 -1.9055,-2.82354 -3.20579,-3.88616c-1.67912,-1.37221 -3.72447,-2.46424 -4.88553,-4.29574c-1.26325,-1.99269 -1.82576,-4.36875 -3.0372,-6.39336c-1.55004,-2.5905 -3.80456,-4.47292 -5.13192,-7.2467c-1.34004,-2.80028 -2.38251,-5.76576 -3.77032,-8.58501c-0.94919,-4.17353 -2.09548,-8.63042 -2.78965,-12.81292c-0.30514,-1.83854 -0.41557,-3.70433 -0.44833,-5.5796c-0.94802,3.51181 -2.85432,7.22786 -4.60401,10.18074c-0.2629,2.32398 -0.54771,4.64593 -0.83774,6.96613l0.02124,1.32557c0,0 0,2.75 -2.75,2.75l-0.00001,-0.00001c-2.75,0 -2.75,-2.75 -2.75,-2.75l0.02124,-2.00776c0.1288,-1.03044 0.25147,-2.06118 0.37057,-3.09213c-0.03832,-0.1829 -0.05847,-0.37249 -0.05847,-0.56678v-3.33333c-0.66549,-2.41113 0.02033,-6.30943 0.33333,-8.79519v-2.53814c0,-0.82984 0.36756,-1.57383 0.94877,-2.07805c-0.14259,-1.38179 1.04072,-2.36789 1.04072,-2.36789c2.23567,-1.69382 4.85763,-4.68065 8.26207,-1.58791c-0.02967,-1.23043 -0.09689,-2.45415 -0.23514,-3.66608c-0.96428,-8.45271 -0.71326,-17.04177 -0.68542,-25.60003c-0.01325,-1.70522 -0.08067,-3.40352 -0.15128,-5.10199c-0.08028,-0.02792 -0.15886,-0.05945 -0.23556,-0.0944l-2.27746,-0.97605l0.0322,-0.07513l-0.22307,-0.0155c-1.61673,-1.00601 -2.97257,-2.46666 -4.72619,-3.20875c-0.14778,-0.06254 -0.29498,-0.11828 -0.4416,-0.16762c-0.18742,0.01397 -0.37364,0.02244 -0.55805,0.02269h-2c0,0 -0.4239,0 -0.93884,-0.16643l0.00001,0.00005c-2.08939,0.43398 -4.07838,1.5829 -6.02199,2.0743c-1.09028,0.27565 -2.24802,0.07667 -3.3725,0.09213c-0.63758,0.00876 -1.29696,-0.02026 -1.97038,-0.06958c-0.72773,0.42585 -1.53789,0.78484 -2.19038,1.27173c-0.18871,0.00512 -0.37742,0.01044 -0.56613,0.01591c2.22453,2.61818 4.01663,5.69958 5.40027,8.78782c1.67692,1.95406 3.39225,3.93032 5.49849,5.27597c0.59159,0.37796 3.6795,1.78041 4.43304,2.04983c1.22656,0.43855 2.79904,0.26318 3.7259,1.17845c0.13958,0.13784 0.27285,0.28065 0.40056,0.42782l0.07951,-0.09087l2.65496,2.32309c0.58239,0.50425 0.95082,1.24901 0.95082,2.07983c0,1.51878 -1.23122,2.75 -2.75,2.75c-0.36227,0 -0.70819,-0.07005 -1.02493,-0.19735l-2.38541,-0.89453c-6.39627,-0.91649 -12.31988,-6.18946 -15.98625,-11.30947c-0.09757,-0.225 -0.19578,-0.45375 -0.29496,-0.68551c-0.62512,-0.7008 -1.25531,-1.38793 -1.90611,-2.03847c-2.94148,-2.9403 -5.18519,-5.94656 -7.27689,-9.46291c-0.01685,-0.00773 -0.03369,-0.01544 -0.05049,-0.02313c-0.04131,0.08631 -0.08256,0.18246 -0.12354,0.28645c0.00826,1.24171 0.58194,2.73203 -0.46924,3.50599c1.17705,1.2046 2.30871,2.3736 2.56318,2.5835c2.22121,1.83213 5.40077,4.0016 6.53588,6.90129c0.032,0.08174 0.06339,0.16367 0.09422,0.24578l0.04555,-0.02603l2.64271,4.62473c0.24534,0.41148 0.38629,0.89244 0.38629,1.40631c0,1.51878 -1.23122,2.75 -2.75,2.75c-0.67623,0 -1.29545,-0.24408 -1.77437,-0.64895l-1.94545,-1.62121c-2.337,-1.75138 -5.30302,-3.88552 -7.77515,-6.3436c-0.02202,0.04846 -0.0454,0.09617 -0.07009,0.14307l-1.30859,2.61718c-1.4873,2.94426 -3.50965,5.31592 -4.96494,8.26055c-2.20539,5.10476 -6.0905,8.80728 -8.76482,13.52493c-3.3905,5.98102 -7.25495,13.10744 -9.07825,19.71347c-0.96116,3.48239 -1.03009,8.72192 -6.05819,9.34221c-4.64144,0.57259 -6.24479,-5.22443 -7.71982,-8.1745c0,0 -0.50328,-1.00655 -0.22204,-2.05382c-0.64988,-0.50299 -1.06829,-1.29064 -1.06829,-2.17602c0,-1.0004 0.53418,-1.87604 1.33288,-2.35723l2.35691,-1.47307c1.00481,-1.21125 1.54372,-2.75542 2.44969,-4.04476c0.16885,-0.2403 0.34524,-0.47563 0.52808,-0.70669c1.15595,-2.47064 2.74137,-4.84179 4.68417,-7.23443c2.17877,-2.68325 5.56781,-4.74795 7.44062,-7.70497c1.35984,-2.14708 2.26745,-4.56425 3.67556,-6.67998c0.82706,-1.24268 1.7115,-2.4487 2.61937,-3.63954c0.78648,-1.6858 1.58298,-3.38336 2.7111,-5.02287c0.49965,-0.72613 0.9261,-1.55289 1.4643,-2.25747c-0.23944,-0.04986 -0.46444,-0.10901 -0.67611,-0.17717c-0.18627,0.19706 -0.37474,0.39191 -0.56632,0.58364c-0.82452,0.82522 -1.81052,1.4777 -2.63577,2.30219c-1.22049,1.21935 -2.27684,2.59607 -3.49607,3.81651l-1.54601,2.16442c-0.49673,0.71405 -1.32332,1.18142 -2.25907,1.18142c-1.51878,0 -2.75,-1.23122 -2.75,-2.75c0,-0.11629 0.00722,-0.2309 0.02123,-0.3434l0.32892,-2.96029l0.10638,0.01182c-0.00474,-0.18085 -0.00275,-0.36219 0.00695,-0.5441c0.0683,-1.28205 1.25299,-2.24236 1.82564,-3.39144c1.01661,-2.03994 1.86988,-4.09685 2.74145,-6.14921c-0.45524,-1.36914 -0.23319,-2.99242 0.00978,-4.42607c1.029,-6.07169 3.67616,-7.29798 8.36447,-9.92919c1.85656,-1.04195 3.21825,-3.39606 5.34484,-3.4964c0.22816,-0.01077 0.45505,-0.00808 0.68088,0.00594l-0.02164,-0.1731l2.62363,-0.32795c0.12553,-0.01754 0.25377,-0.02662 0.38413,-0.02662c0.636,0 1.22158,0.2159 1.68743,0.57842c0.0531,-0.07222 0.10889,-0.14417 0.16745,-0.21584c3.17773,-3.88902 7.96023,-0.75829 11.1977,0.39981c1.35531,0.48481 3.41192,0.04501 4.11813,1.29927c0.39013,0.69288 0.57128,1.50053 0.59243,2.3329c0.5203,-0.06135 1.03146,-0.159 1.53102,-0.30243c0.77622,-0.22287 1.31043,-0.99041 2.07487,-1.25085c2.51546,-0.857 6.23724,-1.33951 9.25482,-0.85282c2.45117,-0.05224 5.17194,-0.21362 7.17386,1.00986c0.02367,-0.19906 0.06729,-0.39436 0.13957,-0.58427c0.04029,-0.10586 0.08266,-0.2107 0.12695,-0.31461l-0.06544,-0.01636l0.65271,-2.61086c0.05885,-0.25934 0.15436,-0.50475 0.28078,-0.73051c-0.34148,-0.64513 -0.96157,-2.30264 0.80262,-3.56277c1.60164,-1.14403 2.87575,-0.3229 3.4707,0.23639c1.80687,-0.64573 3.03213,1.06964 3.03213,1.06964c0.30491,0.4275 0.64827,0.96972 1.02547,1.54445c0.13167,-0.01936 0.26638,-0.02938 0.40343,-0.02938c0.5386,0 1.04104,0.15484 1.46523,0.42243c0.02261,-0.0286 0.04549,-0.05703 0.06864,-0.0853c1.00582,-1.22756 2.76143,-1.56497 4.14928,-2.33468c3.69975,-2.05189 7.3781,-4.20371 11.35981,-5.68092c0.69938,-0.25947 1.43865,-0.76176 2.17283,-1.19447c0.01222,-0.31027 0.0779,-0.59742 0.15767,-0.83898c0.10582,-0.38383 0.30234,-0.84144 0.66728,-1.21737l1.17997,-1.74789c1.12833,-1.34172 1.85877,-2.98782 2.99283,-4.3247c1.63237,-1.9243 3.72512,-3.40748 5.50856,-5.19267c0,0 0.3615,-0.3615 0.92864,-0.6169c0.16467,-0.8043 0.73149,-2.18855 2.68257,-2.18855c2.75,0 2.75,2.75 2.75,2.75c0,3.46294 -0.43048,7.26402 -0.01642,10.69993c0.23463,1.94704 0.88507,3.83878 1.01111,5.79586c0.74074,11.50259 0.00531,23.30766 0.00531,34.83754c0,1.93231 0,3.86463 0,5.79694c1,0.80204 1,2.20306 1,2.20306c0,5.89901 0.33105,11.7819 0.33333,17.66667c0.00141,3.62928 -0.67834,8.09482 0.24247,11.63228c0.82955,3.18685 1.35831,6.10699 1.74111,9.40098c0.54021,4.64859 2.45689,9.57154 1.25763,14.33924c-0.23401,0.93033 -1.12176,1.59894 -1.39006,2.51997c-0.38486,1.32116 -0.35759,2.72882 -0.53639,4.09324c-0.56703,6.19947 -0.31476,12.45759 -0.31476,18.68095v1.33333c0,0.95506 -0.33169,1.57844 -0.76468,1.98532c-0.40688,0.43299 -1.03025,0.76468 -1.98532,0.76468c-0.00333,0 -0.00665,0 -0.00996,-0.00001c-1.904,-0.00207 -5.21527,0.12938 -6.97281,-0.51493c-1.78148,-0.65308 -3.45621,-1.81552 -5.03341,-3.15178c-0.82818,-0.00477 -1.56962,-0.37564 -2.0707,-0.95896c0.01745,2.48182 -0.00075,4.97334 0.4568,7.37072c0.53074,2.78085 1.22716,3.67979 1.69282,6.83562c0.26126,1.77058 -0.2111,3.59251 0.00418,5.36927c0.26737,2.20669 0.67867,4.41058 0.68309,6.6334c0.00208,1.04565 -0.09388,3.88753 0.2347,4.93675c0.38656,1.23439 1.19758,2.30321 1.6234,3.52461c0.58563,1.67979 0.85476,3.23863 1.28272,4.79855c1.07167,0.64974 2.17623,1.27142 2.50895,2.39711c0.0998,0.33765 0.15111,0.67869 0.16556,1.02231l0.16343,-0.02043l0.11515,0.92119c0.57275,0.78699 0.57275,1.75324 0.57275,1.75324c0,3.02764 0.163,5.5927 0.6319,8.56413c0.30186,1.9129 -0.17255,3.97785 0.51982,5.78643c0.72417,1.89164 2.37732,3.30674 3.24853,5.13532c0.88258,1.85245 1.54156,3.80358 2.3462,5.69122c2.13679,-0.22876 4.19183,-0.25571 6.50621,-0.23983l0.29243,0.21568l0.03854,-0.15418l2.61086,0.65271c1.22463,0.27791 2.13883,1.37312 2.13883,2.68184c0,1.51878 -1.23122,2.75 -2.75,2.75h-2.43575c-0.87054,0.28893 -1.85426,0.49339 -3.29327,0.65328c-0.76577,0.08509 -3.16369,-0.21136 -4.14234,0.25924c-0.90262,0.43404 -0.70083,1.85012 -0.71728,2.50835c-0.03935,1.57453 -0.02918,3.15414 -0.01499,4.7329c1.7846,0.0907 3.55696,0.20321 5.26711,0.27487l0.00008,0.00005c2.24286,-0.03792 4.49414,0.01154 6.73798,0.04509c1.02543,-0.12265 2.18338,-0.60709 2.93188,0.02625h2.66667c1.51878,0 2.75,1.23122 2.75,2.75c0,1.51878 -1.23122,2.75 -2.75,2.75h-2.66667c-2.11999,0.66628 -4.44444,0 -6.66667,0c-1.90394,0 -3.80787,0 -5.71181,0c-1.45037,0.09584 -2.88938,0.25943 -4.30802,0.5267c-0.28007,0.08864 -0.60445,0.13997 -0.98017,0.13997c-0.80936,0 -1.38051,-0.2382 -1.78357,-0.5744c-0.03634,-0.02928 -0.07218,-0.06001 -0.10744,-0.09227c-0.703,0 -1.406,0 -2.109,0c-3.2013,0 -9.11894,1.10209 -10.61323,-3.22686c-0.62049,-1.79754 1.59149,-5.92542 2.86279,-8.83674c-0.3329,-0.68011 -0.3329,-1.35307 -0.3329,-1.35307v-1c0.03785,-1.42452 -0.47326,-2.81746 -0.87624,-4.18432c-0.12351,-0.41894 -0.93825,-4.9455 -1.28627,-5.86158c-2.10448,-5.53952 -5.3386,-10.95655 -8.42216,-15.83423c-1.40417,-2.22117 -1.52288,-5.34623 -3.15442,-7.41248c-1.0274,-1.30114 -2.15057,-2.41974 -3.23624,-3.60335c-0.38103,0.19968 -0.81466,0.31262 -1.27467,0.31262c-1.51878,0 -2.75,-1.23122 -2.75,-2.75c0,-0.46188 0.11387,-0.89717 0.31507,-1.27932l0.65518,-1.31036c0.02231,-0.5544 0.22774,-1.16493 0.82514,-1.70395c0.31441,-0.71444 0.62882,-1.42888 0.94323,-2.14332c0.07162,-0.08699 0.14455,-0.17279 0.21865,-0.25756c0.31793,-0.57492 0.68309,-1.14074 0.93349,-1.72618c1.57019,-3.67105 2.98085,-7.24623 5.28813,-10.51104l2.15707,-1.0741c0.41382,-0.82998 0.84422,-1.65187 1.25262,-2.48455c0.48948,-0.99799 0.52236,-2.38277 1.44234,-3.00662c0.79901,-0.54182 1.72826,-1.18204 2.68242,-1.61393c-0.17194,-0.68113 -0.30057,-1.20709 -0.33327,-1.38411c-0.74244,-4.01935 -0.28908,-8.16796 -0.69978,-12.23132c0,0 -0.22418,-2.2418 1.76241,-2.87006c-1.38839,-0.94723 -2.72365,-1.96898 -3.9201,-3.07651zM180.68986,165.31233c0.20043,-0.13534 0.32138,-0.32533 0.39515,-0.54767c-0.13623,0.07552 -0.28682,0.14224 -0.45324,0.19794c0.00034,0.18225 -0.04705,0.42073 0.05809,0.34973z"></path></g><g fill-opacity="0.1098" fill="#f6d1ff"><path d="M260.3918,93.36633c0.89434,0.79953 2.07834,1.38698 2.63795,2.44808c0.4202,0.79677 0.65716,1.74284 0.78068,2.75997c1.01043,2.11119 0.26802,3.94838 0.53563,6.22294c0.35127,2.98559 0.68727,5.60173 0.68727,8.66934c0,1.57155 0.02365,3.12258 0.09369,4.65291c0.35923,0.46471 0.57298,1.0476 0.57298,1.68042v2.81365c0.28345,1.55275 0.47474,3.09939 0.63625,4.64658c0.78094,3.17519 2.01071,6.24882 3.93055,9.21914c0.34947,0.37103 0.53961,0.8168 0.64307,1.19205c0.13142,0.39793 0.22458,0.91961 0.10351,1.46448c0.64429,5.2194 3.00284,9.75199 3.97321,14.82582c0.24172,1.26388 0.31891,2.17407 0.37212,3.03845c1.00997,1.71421 2.13927,3.36813 2.97801,5.17011c1.25381,2.69373 1.95847,5.61076 2.89058,8.432c2.18302,6.60741 6.22145,12.79503 9.60777,18.8391c0.27511,1.09347 0.38474,2.2183 0.49604,3.34348c1.67203,1.7938 3.30504,3.64445 3.5727,6.18109c0.01497,0.14192 0.02631,0.2838 0.03431,0.42563l0.06325,-0.00973l0.65914,4.28442c0.02597,0.15181 0.0395,0.30786 0.0395,0.46707c0,0.41864 -0.09355,0.81543 -0.26088,1.17061c0.94135,0.43662 1.59421,1.3901 1.59421,2.49605c0,1.20154 -0.77059,2.22311 -1.84452,2.59745l-2.60655,0.97746l-0.05178,-0.13809c-0.33477,0.1482 -0.68564,0.25583 -1.05795,0.30941c-1.8864,0.27146 -3.52724,-1.45994 -5.21078,-2.35317c-2.41054,-1.27894 -4.39436,-3.24586 -6.709,-4.69113c-1.82374,-1.13876 -3.90773,-1.92659 -5.49684,-3.37487c-2.77117,-2.52558 -4.61572,-6.07961 -7.13445,-8.80364c-1.43913,-1.55643 -3.06059,-3.02451 -4.06273,-4.89247c-1.1197,-2.08708 -1.47751,-4.50076 -2.18427,-6.76132c-1.03952,-3.32488 -2.95812,-6.90354 -4.26512,-10.15058c-1.36289,-3.38588 -3.30069,-5.37138 -4.50716,-8.94521c-0.02173,-2.46178 -0.10778,-4.66993 -0.50037,-6.96611c-0.40594,-0.63679 -0.84074,-1.25949 -1.07166,-1.97175c-0.61654,-1.9017 -0.95446,-3.99161 -1.12032,-6.17133c-0.21866,-0.39446 -0.34316,-0.84835 -0.34316,-1.33131v-3.08212c-0.00016,-0.30705 -0.00069,-0.61413 -0.00155,-0.92122c-0.56613,-1.22228 -0.14956,-2.66178 -0.02862,-4.03593c-0.08316,-7.64769 -0.30884,-15.30512 -0.30316,-22.96073c0.00189,-2.54996 -0.28379,-6.71923 0.14206,-10.10704c-0.04917,-4.29401 -0.09545,-8.58653 -0.12129,-12.87558c-0.07735,-0.30925 -0.09539,-0.66004 -0.02076,-1.05435c0,-1.0649 0,-2.54781 0,-3.93176c0.28853,0.06398 0.57779,0.12376 0.86755,0.17758c2.17438,1.60652 4.00589,3.74333 5.88194,5.61474l1.75112,1.40481c0,0 1.56174,1.24939 2.81113,-0.31235c0.02669,-0.03337 0.0521,-0.06659 0.07627,-0.09966c0.15644,0.13714 0.31319,0.276 0.47046,0.4166z"></path><path d="M175.36956,280.34902c0.64306,-1.10263 1.24128,-2.21123 1.73661,-3.33816c0.18899,-0.42997 1.87686,-5.92231 2.01208,-6.02664c0.01648,-0.01271 0.03313,-0.02486 0.04996,-0.03646c0.10262,-0.35642 0.21247,-0.71071 0.33122,-1.06232l0.38182,-0.22978l-0.16902,-0.12073l1.64536,-2.30351c0.36786,-0.52881 0.91664,-0.92232 1.55669,-1.09091c-0.12454,-0.66345 -0.25299,-1.30858 -0.3484,-1.91861c-0.05041,-0.32228 -0.09243,-0.64301 -0.12745,-0.9625l-0.28145,-0.5629l0.04929,-0.02465c-0.07064,-0.1113 -0.13768,-0.22532 -0.20074,-0.34233c-2.2566,-4.18684 -1.13888,-11.89206 -1.13888,-16.52953v-2.66667c0,-1.37714 1.01227,-2.51785 2.33333,-2.71864c0,-0.53823 0,-1.07646 0,-1.61469c0,0 0,-2.75 2.75,-2.75c2.75,0 2.75,2.75 2.75,2.75c0,7.55556 0,15.11111 0,22.66667v2.66667c0,0.48838 -0.12731,0.94703 -0.35055,1.34457c0.43812,2.68166 0.76979,5.44613 -0.09538,8.10096c-1.0439,3.20328 -3.30357,6.43115 -4.98839,9.37109l-0.12173,0.08381l0.04383,0.0313l-1.64536,2.30351c-0.49673,0.71405 -1.32332,1.18142 -2.25907,1.18142c-0.24156,0 -0.47584,-0.03115 -0.69906,-0.08964c-0.16167,0.25872 -0.32746,0.51506 -0.49573,0.76995c0.06969,2.13555 0.1904,4.25338 0.27281,6.39881c0.19398,5.05003 -3.24739,13.60153 -8.90172,5.67064c-0.80779,-1.13303 -0.22131,-2.77545 -0.25963,-4.16643c-0.10069,-3.65517 1.46426,-6.92679 3.33474,-10.10423c-0.00098,-0.2977 -0.00141,-0.59624 -0.00141,-0.89577l0.47445,-1.86963c0,0 0.6149,-1.84471 2.36177,-1.91469z"></path><path d="M282.64851,250.63854c-1.49875,-2.99399 -3.19926,-5.25493 -5.79235,-7.3926c0,0 -2.11261,-1.76051 -0.3521,-3.87312c1.76051,-2.11261 3.87312,-0.3521 3.87312,-0.3521c0.42295,0.35558 0.83018,0.71474 1.22259,1.07931c1.81278,-0.56385 2.97171,1.17454 2.97171,1.17454l0.69766,1.04755c0.55965,0.8837 0.98202,1.83314 1.31123,2.82376l0.35123,-0.15367l2.18037,4.98369c0.16346,0.3518 0.25471,0.74396 0.25471,1.15742c0,1.51878 -1.23122,2.75 -2.75,2.75c-0.85659,0 -1.6217,-0.39164 -2.12605,-1.00563l-1.65322,-1.98387l0.11529,-0.09607z"></path><path d="M293.80876,277.17853c2.28814,1.52543 0.76271,3.81356 0.76271,3.81356l-1.1943,1.58718c-1.83866,1.53221 -5.26619,3.53682 -5.39128,6.35614l0.69655,1.11448c0.31141,0.00007 0.62281,0.00011 0.93422,0.00011h2.66667c1.51878,0 2.75,1.23122 2.75,2.75c0,1.35177 -0.97532,2.47573 -2.26064,2.70659l-3.28338,0.65668l-0.00687,-0.03436c-0.87405,0.27546 -1.8929,0.3233 -3.36999,0.08245c-1.04377,-0.1702 -2.43542,-0.03701 -3.44172,-0.36145c-0.80034,-0.03119 -1.55651,-0.12065 -2.22494,-0.30522c-0.05559,-0.01535 -0.11101,-0.03116 -0.16628,-0.0474l-0.00394,0.03148l-2.63047,-0.32881c-1.3753,-0.1517 -2.4451,-1.31756 -2.4451,-2.73329c0,-0.75939 0.3078,-1.44689 0.80546,-1.94454l1.80183,-1.80183c0.89188,-1.62557 1.71725,-4.08453 3.05938,-5.85728v-1.06302c0.00123,-0.73221 -0.03156,-1.46631 -0.09535,-2.20061c-0.64289,-2.10284 -2.14615,-7.42334 -2.18244,-7.5828c-0.17695,-0.77762 -0.37086,-1.54983 -0.57982,-2.31722c-0.21723,-0.52412 -0.42802,-1.05316 -0.62954,-1.58873c-0.21026,-0.55881 -0.4108,-1.12407 -0.60441,-1.69403c-0.48458,-0.9842 -0.99577,-1.94633 -1.52409,-2.88105c-0.88989,-1.57444 -2.59668,-2.5317 -3.723,-3.94668c-3.52434,-4.42756 -5.25962,-9.98279 -8.74874,-14.43386c0,0 -1.68834,-2.17072 0.48238,-3.85906c2.17072,-1.68834 3.85906,0.48238 3.85906,0.48238c0.29883,0.38683 0.58463,0.78224 0.85973,1.18468c0.49104,-0.75051 1.33906,-1.24635 2.30288,-1.24635c1.0004,0 1.87604,0.53418 2.35723,1.33288l1.64143,2.62629l-0.0481,0.03006l0.04005,0.06675l0.10452,0.07032c0.0606,0.13578 0.12128,0.27153 0.18202,0.40726l0.08095,0.13491l-0.00988,0.00593c0.00831,0.00624 0.01658,0.01265 0.0248,0.01923c2.82358,2.26074 2.6219,5.00689 3.57692,7.87694c0.14214,0.42715 0.30223,0.84749 0.47346,1.26361c0.09844,0.22937 0.19642,0.45889 0.29389,0.68858c0.63446,1.44103 1.359,2.84807 1.8829,4.33195c0.24076,0.68192 0.44457,1.36924 0.6374,2.05727c0.36296,1.01226 0.70803,2.03042 1.0313,3.05581c0.61194,1.35624 1.16758,2.74854 1.65374,4.16347c1.56219,3.22264 2.94889,6.49928 3.87359,9.93603c0.59202,-0.47427 1.19243,-0.94309 1.77661,-1.4299l0.13904,-0.41282c0,0 1.52543,-2.28814 3.81356,-0.76271z"></path><path d="M224.28334,79.55c0,0 -2.75,0 -2.75,-2.75c0,-2.75 2.75,-2.75 2.75,-2.75c0.19603,0.018 0.39207,0.03599 0.5881,0.05399c0.05831,-0.0331 0.11897,-0.06545 0.18206,-0.09699c1.43482,-0.71741 2.45115,-0.17934 3.04899,0.39359c0.07594,0.00697 0.15188,0.01394 0.22781,0.02091l0.06501,0.29783c0.2318,0.2857 0.3477,0.5175 0.3477,0.5175l-0.01373,0.136c-0.05485,0.04089 -0.1097,0.08178 -0.16455,0.12267l0.00267,0.01223l0.16188,-0.1349l0.2317,0.27804l0.37669,-0.21525l1.30937,2.2914c0.24534,0.41148 0.38629,0.89244 0.38629,1.40631c0,1.51878 -1.23122,2.75 -2.75,2.75c-0.85659,0 -1.6217,-0.39164 -2.12605,-1.00563l-1.25531,-1.50637c-0.20621,0.05955 -0.41243,0.11911 -0.61864,0.17866z"></path></g></g></g></svg>