<svg version="1.1" xmlns="http://www.w3.org/2000/svg" xmlns:xlink="http://www.w3.org/1999/xlink" width="253.32971" height="253.38312" viewBox="0,0,253.32971,253.38312"><g transform="translate(-166.94997,-51.39889)"><g stroke="none" stroke-width="0.5" stroke-miterlimit="10"><path d="" fill="#a69cb5"></path><g><path d="M300.65725,100.92829c2.37171,0.79057 1.58114,3.16228 1.58114,3.16228l-0.2614,0.65024c2.71417,2.20121 5.18692,4.54936 7.47691,7.29206l0.22496,0.88017c0.28205,0.46006 0.34912,0.9696 0.34717,1.35834l0.00731,0.02862c0,0 0,0.11879 -0.02589,0.30458c-0.01994,0.18652 -0.04875,0.30176 -0.04875,0.30176c-1.68435,6.69756 -2.45176,14.46658 -6.79053,19.9352c-0.72255,0.91071 -1.14184,2.13533 -2.1126,2.77493c-1.29188,0.85117 -2.8421,1.51974 -4.38914,1.50883c-1.18565,-0.00836 -2.10912,-1.08748 -3.19557,-1.56231c-3.46989,-1.51651 -8.39853,-2.19505 -9.09407,-7.03847c-0.37767,-2.62994 2.53123,-4.81284 3.63064,-6.7589c1.53038,-2.70894 2.69648,-6.14498 3.98984,-8.98127c1.06832,-1.7006 1.9891,-2.78693 2.43796,-4.73242c0.25829,-1.11949 0.00068,-2.36634 0.47163,-3.41429c0.19786,-0.44027 0.47586,-0.8313 0.78834,-1.20115c-0.12656,-0.55355 -0.05213,-1.22721 0.50482,-1.96981c0.41143,-0.54857 0.86047,-0.83382 1.29554,-0.95895c0.02446,-0.07149 0.82697,-2.35767 3.1617,-1.57943z" fill="#baafcc"></path><path d="M215.15001,162.725l0.06414,0.14529c-1.12483,-3.39094 -3.02658,-6.82088 -2.298,-10.59552c1.56757,-8.12134 9.34142,-13.50314 15.14342,-18.72506c3.51385,-3.22108 7.26403,-4.76339 11.57751,-6.71463c10.67161,-4.82738 23.37034,-7.0135 34.93654,-3.72201c5.63777,1.58688 6.58326,5.32787 8.25493,10.52155c2.78046,8.63854 3.06704,17.96264 4.55446,26.88487c0,0 0.20549,1.23299 -1.02749,1.43849c-0.22334,0.03723 -0.41296,0.02725 -0.57376,-0.01404l0.19013,0.38793c0.86632,1.44778 1.65121,2.59247 2.33298,4.16476c1.23125,3.09536 1.83511,6.71466 3.63982,9.54194c1.12873,1.76828 3.32413,2.97563 3.90998,5.10274c1.2153,4.41251 2.83179,9.08424 4.00804,13.7805c0,0 0.0144,0.05762 0.02437,0.15088c0.01295,0.09289 0.01295,0.15229 0.01295,0.15229v1c-0.02499,2.22683 1.25086,3.65931 1.72448,5.74867c0.54167,2.38958 0.02552,5.53306 0.02552,8.00133c0,9.50093 -6.10496,18.02662 -15.91138,18.74686c-0.6333,0.04651 -1.3425,0.29534 -2.06537,0.59068c0.77148,0.19252 1.39537,0.40861 1.63886,0.66246h1.0879c0.69036,0 1.25,0.55964 1.25,1.25c0,0.69036 -0.55964,1.25 -1.25,1.25c-0.41667,0 -2.33333,0 -2.75,0c-7.73084,-0.11731 -14.30854,-7.02866 -16.89921,-13.75825c-0.83823,-2.1774 -0.04782,-4.61119 -0.78665,-6.84646c-0.81502,-2.46579 -2.24026,-4.70343 -2.76232,-7.28911c-3.66542,-9.06609 -6.1792,-18.81773 -6.70108,-28.60859c-3.08747,4.49761 -4.89184,9.43358 -6.93484,14.45316c-0.94374,2.31874 -2.47543,4.47662 -3.87235,6.48736c-0.79385,1.14267 -0.84855,2.93233 -1.36982,4.24184c-1.71571,5.07586 -3.58379,11.14737 -7.58826,14.74983c-1.29669,1.16652 -1.95591,2.89116 -3.15407,4.15388c-2.06872,2.18019 -5.36704,2.91635 -8.43141,2.91635c0,0 -0.06882,0 -0.17417,-0.01615l-0.79006,-0.07326c-0.46606,-0.19029 -0.93211,-0.38059 -1.39817,-0.57089c-5.35417,-3.95214 -11.63143,-11.35541 -12.38151,-18.21653c-0.51828,-4.74078 -0.00608,-9.84496 -0.00608,-14.62317c0,-3.9969 -0.20959,-8.29746 1.06127,-12.13655c0.59975,-1.81178 1.52462,-3.49254 1.9697,-5.38996c0.66001,-2.81367 1.26273,-5.67228 1.91918,-8.51802c-0.20015,-0.33687 -0.20015,-0.70547 -0.20015,-0.70547z" fill="#111732"></path><path d="M322.53389,293.76745c-0.85928,0.71671 -4.7815,0.30537 -5.88388,0.30537c-2.71623,0 -5.65607,0.22828 -8.42167,0.00013c-2.82861,0.61704 -5.82166,0.71221 -8.56121,-0.05579c-1.74686,0.10947 -3.60434,0.17902 -4.87935,-0.1976c-0.29054,-0.08582 -0.74821,-0.29146 -1.27765,-0.57817c-1.54229,0.36853 -3.06743,0.70085 -4.38728,0.62266c-3.15008,-0.18662 -4.05598,-3.0863 -2.71994,-5.09099c-0.05044,-0.43829 0.44662,-0.85832 0.79063,-1.28345c-0.14058,-1.44519 -0.04201,-2.98192 -0.03745,-4.15401c2.13717,-6.25565 12.73685,-0.48785 16.24392,-4.48468c0,-0.57581 0.55964,-1.0426 1.25,-1.0426c0.28595,0 0.54948,0.08009 0.7601,0.21484l0.9899,0.61924l-0.02331,0.02593l0.09231,0.02052c0.75874,0.63122 1.58145,1.31712 2.44947,1.99267c0.53409,0.37406 1.08594,0.74736 1.72905,0.9663c4.00841,1.36459 8.36772,3.42852 11.38636,5.84924l0.59219,0.89135c0.13297,0.1461 0.2014,0.31059 0.23661,0.44117c0.03169,0.10688 0.05558,0.24266 0.04046,0.38782c0.04022,1.07757 0.44074,3.87444 -0.36925,4.55004zM320.76613,292.293c0,0 -0.01036,-0.08177 -0.02759,-0.2194c-0.08935,0.03984 -0.18518,0.0709 -0.28583,0.09178l-0.3682,0.08376c0.41512,0.02648 0.68161,0.04387 0.68161,0.04387z" fill="#baafcc"></path><path d="M286.65464,167.66657c-1.9136,1.28479 -4.27499,1.65276 -6.62635,2.01826c-0.82939,0.57372 -1.96982,0.47974 -2.9849,0.65949c-0.72015,0.36472 -1.45543,0.63893 -2.24515,0.60897c-0.02086,-0.00079 -0.0417,-0.00166 -0.06254,-0.00259l0.0088,0.02345l-2.61272,0.97977c-0.28795,0.11572 -0.60242,0.17941 -0.93176,0.17941c-0.46005,0 -0.89108,-0.12427 -1.26135,-0.34106c-0.37737,0.08375 -0.75479,0.172 -1.13231,0.26642c-3.5436,0.88626 -6.95343,2.02486 -10.43701,2.69025c-5.46617,1.04409 -13.26637,-0.5169 -18.40416,-2.45047c-1.59344,-0.59968 -2.7422,-2.22496 -4.40684,-2.58222c-1.08637,-0.23316 -2.259,0.2835 -3.33333,0c-0.66316,-0.175 -1.25609,-0.52666 -1.83957,-0.9021c-1.23256,0.68312 -2.44611,1.40776 -3.60272,1.98645l-2.55836,1.59897c-0.39096,0.25333 -0.85714,0.40043 -1.35768,0.40043c-1.38071,0 -2.5,-1.11929 -2.5,-2.5c0,-0.46716 0.12813,-0.90439 0.35117,-1.27847l1.31155,-2.29521l0.09892,0.05652c0.10862,-0.23055 0.23631,-0.45249 0.38756,-0.6638c0.71352,-0.99684 1.99019,-1.34446 3.22092,-1.72268c-0.02418,-0.13961 -0.03679,-0.28318 -0.03679,-0.4297c0,-0.45787 0.12309,-0.88699 0.33798,-1.25608c-1.09017,-0.22594 -2.18464,-0.41218 -3.36291,-0.47294c-0.1081,0.01146 -0.21169,0.00505 -0.30865,-0.01293c-0.16479,-0.00529 -0.3313,-0.00805 -0.49976,-0.00805c0,0 -1.25,0 -1.25,-1.25c0,-0.08562 0.00587,-0.16538 0.01679,-0.23968l-0.25497,-0.28197c-0.26136,-4.97637 1.99085,-8.57983 4.01455,-12.99042c0.7325,-1.59647 0.78491,-2.71814 2.44979,-3.85881c0.6902,-0.47288 1.7,-0.28362 2.39588,-0.74811c0.67992,-0.45383 0.91703,-1.38741 1.55993,-1.89231c1.07603,-0.84505 2.55467,-1.08326 3.60888,-1.95538c2.36354,-1.95532 4.40425,-4.06143 7.3606,-5.20634c1.77484,-0.68735 3.5975,-0.45723 5.35685,-1.34173c1.93092,-0.40021 3.6089,-1.45146 5.5538,-1.72105c3.47179,-0.48124 7.15559,-0.67733 10.56738,-1.3141c0.97694,-0.18233 1.69697,-1.11574 2.66667,-1.33333c2.79196,-0.62651 6.40966,-0.03345 9.28719,-0.03344c2.63986,0.00001 7.25349,-0.70314 9.47621,0.96423c0.98974,0.74245 1.19961,3.13228 1.37918,4.23255c2.78779,5.55779 0.64039,12.07431 1.70507,18.02078c1.01963,0.41161 2.18388,0.66305 2.78068,1.5429c0.06734,0.09928 0.13307,0.24154 0.19627,0.41898c0.46412,0.03825 0.9027,0.31174 1.24221,1.16816c0.38841,0.97975 0.07223,2.01296 -0.60573,2.9535c0.02722,0.49851 0.03933,0.99194 0.03334,1.45461l0.6261,0.49429c-0.03975,1.25431 0.34684,2.59777 -0.11926,3.76294c-1.12763,2.81887 -2.78485,4.01977 -4.71449,4.1395c-0.16488,0.17262 -0.34447,0.32953 -0.54496,0.46413z" fill="#a69cb5"></path><path d="M215.20001,290.05c-1.25,0 -1.25,-1.25 -1.25,-1.25l0.13197,-0.44098c-0.08291,-0.16735 -0.16448,-0.33519 -0.24494,-0.50344c-0.08129,0.0735 -0.16575,0.13849 -0.25361,0.19352c-0.94434,0.59141 -1.83718,-0.13785 -2.70141,-0.31614c-2.59912,-0.53622 -4.28633,-2.04473 -6.52495,-3.50428c-2.76441,-0.21249 -6.03898,-0.46418 -8.80242,-0.67659c-0.18458,0.04104 -0.39697,0.0105 -0.6191,-0.1731c-0.16407,-0.1078 -0.33127,-0.28804 -0.412,-0.58857c-0.10019,-0.29013 -0.07488,-0.57319 -0.0137,-0.8013c0.00796,-0.04244 0.0171,-0.08299 0.0273,-0.12171c-0.14446,0.05456 -0.30097,0.07891 -0.46249,0.0665c-0.39162,-0.0301 -0.72113,-0.2693 -0.90354,-0.60989c-0.02088,0.02037 -0.04197,0.04069 -0.06327,0.06097l-0.00005,0.00002l0.07849,0.07945l0.06274,0.04807l-0.0061,0.00927l0.13726,0.13897l-1.00746,1.1672c-0.23263,0.27413 -0.57355,0.43548 -0.94028,0.40729c-0.63443,-0.04877 -1.10584,-0.64629 -1.05293,-1.33462c0.01859,-0.24187 0.09945,-0.46278 0.22406,-0.64547l0.63408,-0.96388c0.22316,-3.14208 1.61357,-6.10984 2.06078,-9.27665c0.78657,-5.57009 1.62935,-11.47438 3.15231,-17.00718c0.15954,-2.06838 0.31913,-4.13677 0.47811,-6.2052c0.31483,-4.09586 1.36092,-7.96167 2.31341,-11.84127c0.18517,-2.79396 0.42345,-5.57584 0.81085,-8.29942c0.39991,-2.81159 0.39301,-6.6667 1.13127,-9.34966c0.31825,-1.15658 0.91351,-1.48471 0.97385,-2.70356l0.07664,-0.99706c0.03568,-0.46419 0.31461,-0.83517 0.66019,-0.92032c0.03331,-0.42594 0.06635,-0.85192 0.0991,-1.27795c0,0 0.00243,-0.03169 0.01086,-0.08344c0.00394,-0.31048 0.08877,-0.5561 0.08877,-0.5561c1.04513,-2.82602 2.6214,-3.36872 4.749,-4.60004c4.47485,-2.5898 9.83931,-2.56832 14.36174,-0.24807c1.38646,0.71133 2.66984,1.56838 4.13152,2.0583c2.30859,1.20699 4.96523,3.29711 5.31798,6.64007l-0.02634,0.45714c0.46898,0.67496 0.96709,1.31752 1.47448,1.94577l0.27339,0.93024c0.1704,0.2916 0.17534,0.62083 0.1377,0.87715c-0.0179,0.21412 -0.07541,0.46868 -0.22591,0.68376c-1.29801,2.90195 -2.90228,5.44627 -3.86892,8.56883c-1.64224,5.30498 -2.20638,10.93422 -3.7881,16.17728c-1.21228,4.01842 -2.96033,8.05134 -3.6892,12.2337c-1.98555,6.50057 -3.85517,12.7476 -5.42483,19.38645l-0.26449,0.9579c-0.27193,1.66136 -0.42901,3.29713 -0.56314,4.95737c0.28447,0.52579 0.05284,1.19642 0.05284,1.19642l0.00001,0.00001l-0.18781,0.54015c-0.00132,0.0172 -0.00265,0.0344 -0.00396,0.0516l-0.06938,0.90265c0.26982,0.58752 0.54609,1.17221 0.83767,1.75082l0.13197,1.55902c0,0 0,1.25 -1.25,1.25z" fill="#a69cb5"></path><path d="M240.84534,136.57949c1.59444,-1.58553 3.48127,-3.76601 5.66773,-4.58328c0.30682,-0.11469 5.57704,-0.55672 6.34882,-0.6363c4.90406,-0.50562 9.944,-0.94953 14.8634,-0.23628c5.60829,0.81313 11.09599,2.70643 16.6389,3.91705c0.57478,-0.00876 1.05106,0.22397 1.40207,0.48408c0.48592,0.29964 1.00785,0.81521 1.10013,1.66869l0.49672,1.15381c0,5.41264 -0.30234,10.55773 -0.75629,15.92722c-0.61273,7.24764 0.15049,14.16162 -1.20706,21.37411c0.02177,0.69781 -0.27227,1.21515 -0.61858,1.57974c-0.3034,0.39933 -0.76511,0.77175 -1.45431,0.86364l-1.42925,0.5312c-1.94662,0.86824 -3.45806,2.59324 -5.45699,3.33315c-5.97799,2.21279 -13.04737,-2.54095 -17.24879,-6.24981c-2.94789,-2.60229 -3.32021,-5.6728 -5.0273,-8.91918c-1.56197,-2.97041 -4.05327,-5.66627 -5.78405,-8.54058c-3.37408,-5.60335 -5.7182,-11.79463 -9.14653,-17.33926c0,0 -1.31024,-2.12915 0.8189,-3.43939c0.19616,-0.12071 0.38537,-0.21223 0.56724,-0.27891z" fill="#6390d6"></path><path d="M287.89779,285.33388c0.46229,-0.46169 0.90756,-0.89961 1.35095,-1.31599c-0.21067,0.04686 -0.42203,0.09275 -0.63425,0.13732c-0.1226,0.04107 -0.26433,0.06621 -0.42819,0.06944c-0.08006,0.38068 -0.1735,0.753 -0.28851,1.10923zM296.82635,284.2676c-1.1756,1.37264 -2.79687,2.43509 -4.44661,3.44334c-0.67234,1.35837 -1.55452,2.52049 -3.33434,2.89602c-0.01722,0.00363 -0.03445,0.00719 -0.05169,0.01066l0.00385,0.00964l-1.64035,0.65614c-0.15061,0.06433 -0.31643,0.09993 -0.49056,0.09993c-0.69036,0 -1.25,-0.55964 -1.25,-1.25c0,-0.18167 0.03875,-0.35428 0.10845,-0.51003c-0.45485,-0.18695 -0.77511,-0.63439 -0.77511,-1.15663v-2h0.01946c-0.00265,-0.06659 -0.0038,-0.13333 -0.00332,-0.20023c0.00101,-0.13924 1.28252,-3.83972 1.35907,-4.12061c0.29848,-1.09519 0.38956,-2.05836 0.5748,-2.9623c0,-1.00616 0,-2.00648 0,-2.95852v-1c0.0022,-1.10754 -0.00727,-2.22304 -0.17302,-3.31811c-1.64208,-2.83242 -0.62326,-6.63605 -0.82384,-9.84328c-0.19455,-3.11081 -1.9265,-6.26535 -2.71599,-9.28611c-0.37805,-1.4465 0.07142,-2.96852 -0.28722,-4.35211c-0.15677,-0.60481 -0.35684,-1.26742 -0.58309,-1.94653c-0.38911,-0.72887 -0.79802,-1.42627 -1.21976,-2.08016c-1.26663,-1.96384 -2.0846,-2.89586 -2.68772,-5.27096l0.05892,-0.15273h-0.06829c0,0 0,-0.61921 0,-1.06195c-0.28312,-0.752 -0.52822,-1.52375 -0.82649,-2.26794c-0.47625,-0.68312 0.07649,-1.42011 0.07649,-1.42011l0.80568,-1.069c1.33955,-1.33955 2.45752,-3.14418 3.88552,-4.35848l0.44077,-0.88153l0.31065,0.15533c1.62641,-4.24473 5.15849,-6.31895 9.43529,-8.68052c2.31254,-1.27694 4.14006,-2.71947 6.82078,-3.37893c0.36518,-0.08983 0.71162,-0.16536 1.04423,-0.23158c1.64924,-1.00009 3.34832,-1.77734 5.61905,-2.04764c0,0 0.80921,-0.08991 1.19403,0.52848l0.056,-0.00456c0.22234,-0.07302 0.49711,-0.07907 0.82989,0.04906c0.21124,0.07072 0.45309,0.20347 0.61673,0.45265c0.17058,0.24449 0.20402,0.51834 0.19123,0.74073c-0.00395,0.30452 -0.08305,0.5334 -0.19972,0.70543c-0.37581,0.86866 -0.88486,1.73773 -1.40674,2.60864c0.00484,0.00503 0.00962,0.01009 0.01433,0.01518c0.26726,0.25362 0.33524,0.58184 0.33939,0.8369c0.00289,0.03796 0.00289,0.05983 0.00289,0.05983c0,0.41667 0,2.08333 0,2.5v0.5c-0.00002,3.26646 -0.95861,6.16863 -1.25426,9.3531c-0.40516,4.36402 -0.11617,8.89787 -0.80764,13.21735c0.19266,2.55928 0.34658,5.12116 0.28935,7.69316c0.91646,2.29114 0.03601,4.48681 0.50931,6.80487c1.22577,6.00353 1.69228,12.45273 1.75561,18.66773l0.18441,0.02635l-0.05761,0.40324c0.35355,0.15481 0.70676,0.31105 1.06668,0.43891l-0.60157,0.97957l0.2996,0.2996l-0.66198,0.66198c-0.06556,0.35215 -0.28546,0.75849 -0.91873,0.91681c-0.33046,0.08261 -0.59338,0.05267 -0.80103,-0.03463c-2.75257,0.69631 -5.6915,0.19258 -8.55969,0.27495c-0.39443,0.62647 -0.76778,1.25777 -1.26609,1.8396z" fill="#a69cb5"></path><path d="M200.75427,244.1531c-0.66227,-0.07896 -1.37685,-0.53057 -2.02917,-1.10377c-0.55435,-0.19185 -1.04177,-0.45741 -1.36017,-0.87353c-0.19598,-0.25613 -0.33811,-0.66942 -0.4412,-1.1643c-0.02097,-0.03021 -0.04132,-0.05989 -0.06103,-0.089c-1.92197,-2.83946 -1.84489,-6.26883 -1.09766,-9.65168c-0.05367,-0.51717 0.01801,-1.05219 0.26694,-1.60483c0.06259,-0.13895 0.14569,-0.27087 0.2457,-0.39514c0.24172,-0.84034 0.50921,-1.66975 0.78129,-2.47809c0.03317,-0.13472 0.07304,-0.26398 0.12085,-0.38644c0.95868,-7.50714 3.01263,-14.84752 4.4245,-22.39636c0.16688,-3.52861 0.4872,-7.03369 1.0627,-10.49045c0,0 0.2055,-1.23299 1.43849,-1.02749c0.0036,0.0006 0.00718,0.00121 0.01075,0.00182c0.57138,-2.92341 1.35333,-5.77422 3.03581,-8.27158c1.10805,-1.64471 2.45439,-3.23164 4.6478,-2.06504c1.1991,0.63776 1.79665,2.63566 2.4075,3.6511c1.71013,2.84281 2.93373,5.77007 5.00663,8.43053c0.19745,0.1661 0.30548,0.38401 0.36459,0.57273c0.07253,0.18633 0.12465,0.4272 0.07138,0.68338c-0.00926,4.83842 -0.24739,9.69447 -0.25188,14.54917c-0.26231,2.36076 0.01113,4.74357 -0.25745,7.0836c-0.13243,1.15383 -0.82078,2.1883 -1.01319,3.33366c-0.15395,0.91644 0.20832,2.06805 0.0025,2.98665c-1.33066,5.93885 -2.72225,11.7442 -2.72995,17.92039c0.05063,0.39967 -0.07466,0.68627 -0.24922,0.88796c-0.15683,0.22325 -0.41235,0.41805 -0.82867,0.46019l-1.1721,0.25842c-0.94444,0 -1.88889,0 -2.83333,0l-0.66667,0.5l-0.17961,-0.23948c-0.81893,0.79024 -1.70228,1.09979 -3.42511,1.67533l-1.14528,0.06415c0,0 -0.49491,0 -0.86191,-0.31142c-0.12217,0.03986 -0.25261,0.06142 -0.38809,0.06142c-0.09286,0 -0.18336,-0.01013 -0.27046,-0.02934l-2.42614,-0.48523l0.00727,-0.03635c-0.06884,-0.00583 -0.13765,-0.01279 -0.20641,-0.02099z" fill="#baafcc"></path><path d="M191.14333,299.97761c0,-0.12425 0.00966,-0.2375 0.02727,-0.34072c-3.44719,-0.16881 -7.55156,-0.84417 -8.80964,-3.61389c-0.75351,-1.65889 0.26824,-4.28653 1.25349,-5.46002c1.0193,-1.21406 2.49736,-1.62295 3.5649,-2.64046c2.07981,-1.98233 3.49599,-4.73509 5.60742,-6.6772c0.31906,-0.32793 0.69145,-0.61027 1.10688,-0.85219c-0.0249,-0.11121 -0.03813,-0.22774 -0.03813,-0.34778c0,-0.77523 0.55195,-1.40368 1.23281,-1.40368c0.27753,0 0.53364,0.10442 0.73968,0.28063c0.20604,-0.17621 0.46215,-0.28063 0.73968,-0.28063c0.4037,0 0.76208,0.22094 0.98695,0.56241c0.053,0.00962 0.10666,0.02401 0.16045,0.04411c3.32631,-0.41189 7.23475,0.11386 9.65222,0.53455c1.65766,0.28846 2.83148,0.14555 4.25963,1.40211c2.6302,2.31418 2.50034,4.98212 2.90389,8.29914c0.02303,0.11544 0.03584,0.24398 0.03584,0.38712c0,0.43373 -0.1177,0.73343 -0.28037,0.94054c-0.15706,0.21264 -0.40099,0.3877 -0.77809,0.44904c-0.02816,0.00458 -0.05577,0.00832 -0.08283,0.01124c-0.81392,0.53014 -1.66507,0.99026 -2.53504,1.38723c-2.46342,3.87003 -6.31438,4.31416 -9.97759,5.83879c-1.76246,0.73354 -3.2739,2.04807 -5.14285,2.06722l-0.22765,0.31105l-0.06575,-0.06239c-0.10905,0.15463 -0.22763,0.30044 -0.35842,0.43493c-0.43528,0.4476 -1.17047,0.08835 -1.75571,0.13252h-0.98625c0,0 -1.23281,0 -1.23281,-1.40368z" fill="#baafcc"></path><path d="M292.22193,230.80991c0.19583,-2.41227 0.69821,-4.81822 0.93415,-7.20807c0.06554,-0.66382 -0.03025,-2.75435 0.15663,-3.81361c-0.21634,-3.99758 0.33729,-8.49592 0.33729,-11.81322c0,-4.83333 0,-9.66667 0,-14.5c0,-1.83699 -0.61896,-5.43687 0.13197,-7.05902c0.20112,-0.43445 0.62839,-0.82142 1.18382,-1.14329c0.06233,-0.19294 0.16378,-0.33922 0.28179,-0.45012c0.18494,-0.19681 0.4683,-0.34758 0.90242,-0.34758c0.00217,0 0.00434,0 0.0065,0.00001c0.36828,0.00058 0.72744,-0.00854 1.08131,-0.02681c0.63513,-0.13138 1.2824,-0.19643 1.87471,-0.18307c0.51774,-0.07334 1.03899,-0.1647 1.57643,-0.27219l0.03611,0.00751l-0.00184,-0.01289l0.14706,-0.02101c0.13747,-0.18833 0.35663,-0.35364 0.70082,-0.44751c0.51617,-0.14077 0.87167,-0.00036 1.10947,0.20632c0.67623,0.01623 1.21943,0.5695 1.21943,1.24963c0,0.35527 -0.14821,0.67592 -0.38617,0.9035c1.84269,6.64531 3.85121,13.28317 5.08945,20.04738c0.30731,1.67875 -0.08991,3.50087 0.04247,5.19602c0.17502,2.24129 0.77892,4.18608 1.15668,6.42295c0.33654,4.82044 0.2217,8.46832 1.54989,13.0882l0.03488,0.43301c0.0026,0.02511 0.00451,0.04944 0.00586,0.07281l0.00694,0.08613c0,0 0,0.03886 -0.00685,0.10289c-0.00377,0.06428 -0.01015,0.10261 -0.01015,0.10261c-0.26465,1.44815 -0.85854,2.46928 -1.60613,3.31867c-0.16893,0.48143 -0.38166,1.00294 -0.62686,1.60351v0.37232c-0.04337,1.50567 -0.76962,3.72348 -2.01562,4.90479l-0.31297,0.78241c-0.17726,0.47474 -0.63486,0.8128 -1.17141,0.8128c-0.5623,0 -1.03788,-0.37128 -1.19497,-0.88206l-0.01935,-0.05805c-0.18161,-0.06439 -0.36754,-0.14979 -0.55762,-0.25798c-2.16078,-0.19421 -4.48385,-1.07429 -6.47806,-1.05191h-0.59058c-0.37446,0.06778 -0.66034,-0.04384 -0.86867,-0.20241c-0.22885,-0.13709 -0.44235,-0.36703 -0.51473,-0.7527c-0.03144,-0.0861 -0.06183,-0.17259 -0.09119,-0.25944c-1.95785,-0.00413 -2.50929,-1.47284 -2.91434,-3.3101c-0.16377,-0.99797 -0.22844,-1.95003 -0.25394,-2.91735c-0.00782,-0.09311 -0.0133,-0.189 -0.01638,-0.28785c-0.01206,-0.38772 -0.01126,-0.77537 0.00004,-1.1629c-0.00017,-0.11841 -0.0002,-0.23746 -0.0002,-0.35726v-0.5c0,0 0,-0.18632 0.07194,-0.4151z" fill="#baafcc"></path><path d="M292.53335,155.13333c-1.3127,0 -1.93613,-0.68927 -2.23221,-1.34397c-0.99022,-0.0912 -1.81319,-0.75987 -2.12911,-1.6662l-0.97951,-2.61202l0.10872,-0.04077l-0.19532,-0.23899c-0.34513,-2.63759 -0.86253,-5.25196 -1.16409,-7.88161c-0.546,0.1932 -1.16409,0.32302 -2.0132,0.63607c-0.00729,0.00269 -0.01457,0.00541 -0.02183,0.00816c-0.44156,0.30965 -0.90207,0.58854 -1.35927,0.8662c-0.37859,0.29421 -0.75991,0.58312 -1.19717,0.75926c-0.33904,0.23365 -0.66395,0.4826 -0.96408,0.76098c-1.26185,1.17037 -1.85738,3.09526 -3.37458,3.90773c-1.77721,0.95171 -4.53865,0.28871 -6.78279,-0.56262c-0.58262,-0.1895 -1.20272,-0.44648 -1.81812,-0.7319c-2.01883,0.06109 -4.00925,-0.05018 -5.46727,-0.75824c-0.61908,-0.30064 -1.10459,-0.80238 -1.59852,-1.29516c-3.04777,-1.11491 -5.87788,-2.49937 -8.27707,-4.54279l-0.09361,0.18723l-0.2859,-0.14295l0.01727,0.12527c-0.29029,0.57376 -0.6055,1.12642 -0.94052,1.66264c-0.65494,1.86171 -2.72943,4.09909 -3.52542,5.26419c-2.82338,4.13262 -5.17778,8.99593 -8.42877,12.79183c-0.34499,0.40281 -0.73374,0.77613 -1.14334,1.13487c-0.06203,0.09124 -0.12487,0.18192 -0.18857,0.27201c-0.96717,1.36789 -2.4943,2.26911 -3.49042,3.61608c-1.24722,1.6865 -2.13752,3.56424 -3.45261,5.27592c-0.45559,0.49747 -1.06549,1.06652 -1.70963,1.67832c-1.33599,2.23679 -2.25308,4.51316 -3.5631,6.86097c-0.32622,0.58464 -0.73545,1.11478 -1.18634,1.61651c-0.31739,0.95 -0.6721,1.86424 -1.09017,2.61444c-1.04301,1.8716 -2.85565,3.41344 -4.72026,4.77635c-1.51463,2.59682 -3.02671,4.77167 -6.34215,5.40159c-0.665,0.76466 -1.3502,1.51559 -2.14843,2.14456c-0.24324,0.28106 -0.53604,0.37101 -0.79596,0.37979c-0.25589,0.03766 -0.55813,0.00213 -0.84629,-0.22745l-0.39797,-0.20234c-5.73401,-2.30477 -8.50646,-5.49983 -11.60371,-10.84432c-1.2146,-2.09587 -2.49897,-1.92327 -0.98272,-4.64c-5.01639,0.88006 -11.26648,0.70067 -16.18797,-0.23148c-1.76789,-1.69503 -4.05391,-2.27302 -5.22771,-4.58349c-1.02241,-2.01246 -0.45031,-5.34771 -0.45031,-7.52797c0,-3.37699 -0.68197,-9.21521 1.16225,-12.28254c1.02124,-1.69854 2.27674,-3.29143 3.41514,-4.97998c-1.88663,0.16538 -3.73137,0.17919 -5.66073,0.17919c-0.63398,0 -3.01016,0.0467 -3.36745,-0.21492c-0.60579,-0.44357 -0.5803,-1.39753 -1.00943,-2.01364c-1.68484,-2.41895 -1.86705,-3.22108 -1.87312,-6.35466c0,-0.00008 0,-0.00012 0,-0.00012v-1.33333c0.0111,-3.26679 1.38328,-5.66643 2.38986,-8.70497c1.06331,-3.20978 1.62124,-5.88846 3.408,-8.85249c0.88921,-2.21221 1.70086,-4.59246 3.12543,-6.53461c1.89865,-2.58849 4.51451,-4.60386 6.31266,-7.30548c1.20648,-1.81267 1.66223,-3.31057 3.76725,-4.37634c2.38011,-1.20504 5.55814,-2.40046 8.38031,-3.24454c0.11081,-0.37859 0.39595,-0.68273 0.76262,-0.81965l1.60387,-0.64155c1.17892,-0.58485 2.40361,-1.10998 3.6806,-1.42767c1.51898,0 3.13214,0.02545 4.77206,0.03296c2.40041,-0.95121 4.9106,-1.84097 7.30966,-2.64178c2.62108,-0.87493 5.32504,-1.26464 8.01593,-1.67524l0.05805,-0.01451c0.10351,-0.02829 0.21238,-0.04361 0.32475,-0.04411c0.20042,-0.03083 0.40074,-0.06191 0.60093,-0.09345c1.40615,-0.67149 2.64495,-1.48107 3.94609,-2.20153c0.13957,-0.28765 0.38618,-0.51372 0.68806,-0.62644l1.63963,-0.65585c0.12308,-0.04914 0.24726,-0.09527 0.3724,-0.13859c1.0641,-1.58289 3.78135,-3.21754 5.06102,-4.07145c1.29368,-0.86327 2.8952,-2.86239 4.21913,-3.45087c1.29833,-0.57711 3.89066,-0.1807 5.27813,-0.41234c5.57557,-0.93087 11.30997,-0.68281 17.03356,-0.68281c4.96104,0 9.87286,-0.01012 14.80127,0.65302c2.58361,0.34763 4.76349,1.35025 7.36539,1.34698h0.0958c0.20787,-0.02989 0.40484,0.00191 0.55747,0.04527c0.16599,0.04103 0.37001,0.11926 0.54464,0.26841c1.14234,0.73394 2.05176,1.83316 3.26664,2.44252l0.00002,-0.00007c0.97035,0.48671 2.18881,0.51922 3.02113,1.21616c2.90681,2.43397 4.68601,5.66142 6.86172,8.54676c1.19479,1.58448 2.74707,2.32751 3.49164,4.29721c0.89437,2.36599 0.57737,5.46332 1.07156,7.97718c0.00787,2.31548 0.3276,5.19081 0.1842,7.80292c0.05197,0.08028 0.08975,0.16207 0.11619,0.24356c0.12184,0.34535 0.0324,0.67895 -0.06481,0.89905c-0.03974,0.0965 -0.0743,0.1541 -0.0743,0.1541c-0.04038,0.06723 -0.08054,0.13451 -0.12048,0.20184c-0.09498,0.66361 -0.23408,1.29677 -0.4322,1.88365c-0.77815,2.3051 -2.21332,4.41304 -3.76074,6.45153c-0.41741,0.88843 -0.84031,1.77569 -1.28197,2.65887c-0.57947,1.15879 -1.66697,2.78847 -2.72654,4.1332c0.75006,0.7407 0.75006,1.86111 0.75006,1.86111c0,2.12696 -0.262,4.75762 -0.23833,7.16569c0.38186,1.4196 0.63797,2.90583 0.57801,4.31181c0.40416,1.32967 0.96337,2.62388 1.26746,3.98017l0.05953,1.87566c0,0 0,2.5 -2.5,2.5z" fill="#721c67"></path><path d="M286.1905,105.52998c-1.27453,0.6423 -2.99068,2.00203 -4.26188,2.45587c-2.23354,0.79743 -5.72435,-0.35633 -7.66347,-1.42343c-0.19509,-0.10735 -0.38846,-0.21701 -0.58022,-0.32882c-1.33787,-0.42954 -2.56522,-1.01806 -3.54915,-1.75288c-2.78399,-2.07915 -4.80796,-4.36684 -8,-6c-4.59902,-4.57126 -6.6757,-11.95127 -5.15234,-18.63457c0.41163,-1.80591 2.00125,-3.25147 2.74759,-4.9018c1.68083,-3.71672 2.85823,-6.10813 6.26509,-8.60635c8.05534,-2.14486 17.36468,-1.37279 24.22464,3.41799c2.91654,2.03682 5.25082,5.50836 7.73366,8.0948c0.98917,3.56208 2.27909,8.71143 0.33333,12.23175c-0.72052,1.30357 -1.68706,2.3159 -2.24873,3.81781c-0.48611,1.29988 -0.12986,1.8959 -1.2552,3.0823c-0.8987,0.94746 -2.18565,1.77098 -3.28512,2.68988c0.17784,0.21593 0.28463,0.49256 0.28463,0.79414c0,0.34518 -0.13991,0.65768 -0.36612,0.88388l-0.95616,0.95615c-1.30621,1.65067 -2.6267,1.98122 -4.27056,3.22328z" fill="#6390d6"></path><path d="M292.84608,98.77047c0.02979,-0.12399 0.08034,-0.27043 0.16614,-0.41038c0.03476,-0.11595 0.0736,-0.23429 0.11635,-0.35431c-0.98819,-0.20784 -1.87253,-0.43716 -2.19609,-0.5177c-3.68829,-0.9181 -7.13414,-2.55179 -10.6979,-3.83035c-1.45987,-0.52375 -3.51536,-0.49858 -4.66514,-1.69389c-0.31982,-0.33248 -0.55017,-0.73601 -0.72111,-1.1845c-0.03208,-0.02096 -0.06401,-0.04238 -0.09579,-0.0643c-1.18573,-0.81766 -1.68353,-1.64946 -1.93307,-3.03486c-0.09456,-0.52499 -0.03938,-1.0673 -0.01614,-1.60022c0.0141,-0.3234 0.38455,-1.21416 0.19581,-0.95117c-1.47462,2.05463 -2.76248,3.79174 -4.03509,6.12486c-2.06655,4.07798 -2.01238,8.6199 -1.67003,13.06756l-0.01326,0.04462l0.0143,-0.00008l0.00826,1.5062c0.00002,0.00267 0.00002,0.00534 0.00002,0.00801c0,0.69035 -0.55964,1.25 -1.25,1.25c-0.38936,0 -0.73714,-0.17802 -0.96639,-0.4571l-0.9085,-1.0902c-1.48529,-0.93325 -3.08316,-1.85823 -4.5204,-2.31683l-0.37551,-0.1784c-0.36455,-0.09073 -0.57794,-0.31382 -0.70286,-0.5439c-0.14657,-0.20982 -0.24935,-0.49228 -0.17737,-0.84739c-0.00758,-0.70297 -0.05605,-1.55052 -0.10523,-2.47743c-0.04284,0.06171 -0.09055,0.11597 -0.14133,0.16368c-0.18495,0.19682 -0.4683,0.34759 -0.90242,0.34759c-1.51542,0 -3.63436,0.33222 -5.06489,-0.28967c-1.83276,-0.79676 -2.69712,-2.18765 -3.19314,-3.80363l-0.56519,0.08074l-0.00534,-0.03737l-0.08283,0.04679c-1.0962,0.00182 -2.19241,0.00315 -3.28861,0.00315c-0.43412,0 -0.71748,-0.15077 -0.90242,-0.34759c-0.19681,-0.18494 -0.34758,-0.46829 -0.34758,-0.90241v-0.58119c-1.22548,-0.80405 -2.24344,-1.88069 -2.37833,-2.78705c-0.37448,-2.5163 0.60604,-4.84506 1.7784,-7.07244c0.00687,-3.37438 0.09744,-6.56702 1.04805,-9.90271c0.54303,-1.75 1.57477,-2.26625 2.28653,-3.82091c0.74989,-1.63792 1.1274,-3.50505 2.04312,-5.07816c2.23253,-3.83528 5.575,-5.76694 9.39188,-6.67827c2.01756,-0.71576 4.169,-1.05472 6.32445,-1.20911c-0.44806,-0.90601 -1.06695,-2.17247 -1.04294,-2.22419l0.00004,0.00001c0.88121,-1.89818 4.4346,-1.47563 4.61425,0.15297c0.44034,-0.38547 0.9625,-0.69345 1.51382,-0.91546c0.37054,-0.70978 0.86748,-1.34684 1.69738,-1.79423c1.52752,-0.82347 3.50394,-0.93418 5.17336,-0.93925c3.99265,-0.01214 9.21632,-0.89916 12.85316,0.88503c1.66734,0.49135 2.61149,1.5067 4.11672,2.25243c3.02269,1.49751 5.71933,2.59522 7.83012,5.36254l0.21893,0.40682c0.04949,0.07652 0.08838,0.1545 0.11888,0.22836c0.01578,0.03767 0.03875,0.09779 0.06037,0.17396c0.0217,0.07614 0.03382,0.13935 0.04023,0.17969c0.00912,0.05558 0.01578,0.1151 0.01828,0.1773c0.87561,9.44575 4.25837,19.81305 1.52107,29.40261c-0.22195,0.51922 -0.4357,1.04249 -0.63479,1.5711c-0.05017,1.26516 -0.78304,2.83816 -1.32229,3.93153c-0.12159,0.86423 -0.32449,1.64772 -0.80662,2.20952c-0.22343,0.26034 -0.5389,0.46518 -0.90883,0.6128c-0.04424,0.01957 -0.08983,0.03665 -0.1366,0.05107c-0.69832,0.24415 -1.56295,0.29694 -2.36525,0.14794l-0.01753,0.05259l-0.03803,-0.01268l0.00703,0.09575c-0.09737,0.18752 -0.21079,0.36525 -0.33757,0.53386c0.60963,1.91692 -1.62929,5.00371 -4.10116,2.87167c-0.7352,-0.63413 -0.45461,-1.93985 -0.29565,-2.89764c0.07348,-0.44277 0.452,-0.757 0.77227,-1.09577zM258.86665,90.64101c0.3353,-0.94613 0.82325,-1.74627 1.52337,-2.30384c0.24695,-0.19667 -0.53442,0.33886 -0.77973,0.53758c-0.48294,0.39121 -0.65261,1.03958 -0.7255,1.61973c-0.00614,0.04886 -0.01218,0.0977 -0.01815,0.14653z" fill="#111732"></path><path d="M269.61681,197.99044l-2.94634,-1.25744c-4.3215,-4.32905 -7.38761,-9.70368 -8.89773,-15.66405c-1.24778,-5.12449 -1.79498,-12.80687 4.40423,-14.86689c1.03599,-0.34426 2.18245,-0.06758 3.27405,-0.08288c2.51942,-0.03532 7.54525,-0.65333 9.66206,0.77454c1.12616,0.75963 1.40013,2.32835 2.08575,3.50104c0.13103,0.22411 0.29702,0.50072 0.4625,0.79854c0.23544,-0.42675 0.49392,-0.84683 0.6966,-1.28061c1.53458,-3.28439 1.45308,-4.39335 5.9796,-5.10072c0.59382,-0.0928 1.19141,-0.02612 1.78548,0.1099c0.24238,-0.07932 0.50124,-0.12221 0.77013,-0.12221h2.63903v0.04252l0.12325,-0.03945c3.2334,0.4064 5.53631,-0.0924 7.39532,3.40089c0.57875,1.08753 0.19386,2.45713 0.23358,3.68843c0.1149,3.56214 0.33463,7.67574 -2.47678,10.42332c-1.86795,1.82553 -4.65456,1.54986 -6.13482,4.06461c-2.28729,3.88578 -1.33786,11.03158 -5.59567,13.44248c-1.67509,0.94849 -6.05666,-0.04262 -7.70493,-0.46843c-0.72663,-0.18771 -1.56887,-0.22959 -2.25444,-0.51742c-0.3965,-0.0494 -0.79259,-0.09653 -1.18065,-0.09915l-0.35283,-0.31634l-0.07444,0.19851l-1.41063,-0.52899c-0.29125,-0.03652 -0.4823,-0.10021 -0.4823,-0.10021z" fill="#baafcc"></path><g><path d="M296.70133,196.68944c-1.75621,1.12074 -3.51239,2.24147 -5.26859,3.36221l-0.84297,0.53795c0,0 -1.17932,0.75259 -2.10198,-0.14245c-0.01502,0.01024 -0.03024,0.0203 -0.04567,0.03015c-0.77481,0.49445 -1.79133,0.30255 -2.33626,-0.4182l-1.67919,-2.16959l0.01335,-0.01034c-0.02022,-0.01772 -0.0404,-0.03554 -0.06046,-0.05347c-2.25603,-2.01513 -2.87318,-5.79112 -4.14675,-8.3779c-1.04798,-2.12859 -2.46013,-4.43951 -3.04383,-6.77882c-0.47122,-1.88846 0.07596,-4.41181 -0.43572,-6.27526c-0.59083,-2.15169 -1.78481,-4.0576 -2.62114,-6.10654c-0.37914,-0.6827 -0.77962,-1.35705 -1.20469,-2.02178c0,0 -0.85835,-1.34504 0.34849,-2.28606c0.0048,-0.00952 0.00969,-0.01895 0.01466,-0.02831c0.14351,-0.34646 0.42749,-0.68309 0.96865,-0.8741c2.31054,-1.09696 4.63291,-2.16766 6.94326,-3.26548c0.1088,-0.08933 0.23665,-0.17376 0.38641,-0.2512c0.5016,-0.25945 0.92506,-0.27331 1.26857,-0.17307c0.34746,0.08558 0.70684,0.30998 1.01064,0.78603c0.0657,0.10296 0.11964,0.20333 0.16312,0.30096c3.69555,7.22029 6.23865,15.10223 8.79342,22.66086l0.62265,0.87856c0,0 0.01419,0.02224 0.03635,0.06299c0.02443,0.03944 0.03673,0.06279 0.03673,0.06279c1.44988,2.75256 3.10828,5.44938 4.1098,8.38486l-0.13598,0.31701c0.31022,1.14428 -0.79283,1.8482 -0.79283,1.8482z" fill="#721c67"></path><path d="M297.59245,198.33011c-2.08278,-0.46653 -4.09964,-1.52161 -6.08879,-2.26809c0,0 -0.89007,-0.33431 -1.11168,-1.16615c-0.14283,-0.14905 -0.21894,-0.26829 -0.21894,-0.26829l-0.34667,-0.60187c-0.02805,-0.00733 -0.05617,-0.01448 -0.08436,-0.0215c-0.02453,-0.08434 -0.04909,-0.16866 -0.07372,-0.25297l-0.23508,-0.40814c-0.93791,-3.18208 -2.81167,-6.00986 -3.76737,-9.15221c-1.47275,-4.84237 -2.92922,-9.67457 -4.88577,-14.36774c-0.27552,-0.10099 -0.55228,-0.19905 -0.8305,-0.29367c0,0 -1.65668,-0.56384 -1.09284,-2.22051c0.25087,-0.73711 0.71809,-1.03464 1.15948,-1.13783c-0.01084,-0.02807 -0.02169,-0.05613 -0.03255,-0.08419c0.07754,0.0181 0.15553,0.03448 0.23389,0.04944c0.46761,-0.05369 0.8597,0.07976 0.8597,0.07976c0.05288,0.01801 0.10572,0.03614 0.15851,0.05438c0.7159,0.06811 1.43819,0.11395 2.11787,0.32889c1.4033,0.44377 2.38663,1.13456 3.33609,1.89649c0.60133,0.26716 1.20148,0.53537 1.80235,0.79958c0.11652,0.29923 0.233,0.5985 0.34942,0.8978c0.06887,0.04828 0.13872,0.09635 0.20958,0.14416c4.72323,3.18581 10.595,4.75215 15.77375,6.83747c3.47117,1.90305 7.00501,1.9149 10.70418,2.86397c6.0686,1.55697 12.1995,3.90774 17.96877,6.42849c2.63404,0.45724 4.86084,1.59205 7.8849,2.36035c3.19699,0.81225 6.79559,0.6731 9.83421,2.03215c3.25504,1.45585 6.34138,2.19876 9.74953,3.39028c2.66817,0.93281 5.0443,2.48167 7.76004,3.34221c9.23406,3.28367 17.39978,7.82676 26.7337,10.79l0.95504,-0.24756c0,0 0.59014,-0.06181 1.11913,0.23018c1.60173,-0.38378 2.06036,1.23212 2.06036,1.23212c0.03579,0.12618 0.07182,0.2521 0.10808,0.37778c0.76062,0.84028 1.45383,2.15429 1.92399,3.39646c0.89455,0.66147 1.28112,2.1113 1.96914,2.85767c0.97763,1.06053 1.98919,2.09119 2.92605,3.1879c1.98712,2.32618 4.70135,4.79889 6.9776,6.84076c0.07629,0.06843 0.15367,0.13311 0.23196,0.19462c1.03676,0.28611 2.03586,0.55105 2.91611,0.8154c0.36105,0.08277 0.79106,0.28154 1.05405,0.74684c0.04181,0.06106 0.08022,0.12655 0.1139,0.19673l0.24817,-0.06237c0.72112,-0.19931 1.51745,0.08235 1.94094,0.74595c0.51993,0.81473 0.28095,1.89669 -0.53378,2.41662l-1.4752,0.94142l-0.26289,-0.41194l-0.21855,0.05494l-0.59677,0.62644c-0.19206,-0.13067 -0.38923,-0.25834 -0.59031,-0.38391c-0.02286,0.01012 -0.04704,0.01876 -0.07261,0.02583c-1.44275,0.39902 -2.95596,-0.8226 -4.44313,-0.65204c-2.44664,0.28061 -4.52461,0.81079 -7.01239,0.83935l-1.39463,-0.53516c0,0 -0.7462,-0.44642 -0.87192,-1.2359c-0.14755,0.01119 -0.29525,0.02423 -0.44309,0.03932c-4.87435,0.49689 -9.81482,3.5154 -13.86544,6.10036c0,0 -0.05994,0.03824 -0.16337,0.08725c-0.30593,0.16001 -0.76001,0.3083 -1.25154,0.16276c-0.29878,-0.0756 -0.60594,-0.25443 -0.87864,-0.60814l-1.00302,-0.24197c-2.36816,-1.05334 -4.10815,-3.20987 -6.44639,-4.1278c-1.87069,-0.73438 -3.97226,-0.55333 -5.81386,-1.50167c-1.82819,-0.94144 -3.43013,-2.44182 -5.32879,-3.32783c-1.20558,-0.5626 -2.624,-0.5239 -3.85901,-1.0186c-1.87206,-0.74988 -3.69265,-1.82162 -5.58889,-2.6214c-0.32903,-0.06913 -0.59609,-0.24377 -0.78967,-0.41392c-0.11549,-0.09042 -0.23677,-0.20395 -0.34358,-0.34225c-0.36587,-0.25142 -0.73172,-0.50287 -1.09758,-0.7543c-2.31835,-1.02308 -4.93533,-1.01989 -7.22526,-2.11424c-1.99281,-0.95236 -3.74547,-2.52582 -5.63935,-3.62749c-1.98313,-1.15359 -4.1879,-0.56611 -6.12221,-1.98008c-0.55825,-0.40807 -0.80081,-1.14842 -1.33412,-1.58858c-1.43635,-1.18552 -3.54642,-1.44146 -5.12958,-2.2707c-2.60948,-1.36679 -4.43605,-2.13714 -7.34076,-3.01541c0,0 -0.97878,-0.29652 -1.21317,-1.18444c-0.38241,-0.13545 -0.7632,-0.28269 -1.14207,-0.4452c-1.18221,-0.50706 -2.03725,-1.60372 -3.19505,-2.16428c-1.24531,-0.60293 -2.76824,-0.02992 -4.15065,0.02707c-3.71975,-1.87449 -7.93683,-2.17211 -11.78827,-3.71314c-1.06001,-0.42413 -2.08258,-0.93235 -3.08805,-1.4791c-0.23723,-0.0343 -0.4706,-0.07553 -0.69867,-0.12662z" fill="#f0bcd4"></path></g><path d="M259.67849,82.37276c0,0 0.4144,0.91837 -0.6216,1.28571c-1.03599,0.36735 -1.45038,-0.55102 -1.45038,-0.55102c-1.01554,-2.27423 -1.84066,-5.79339 -0.06664,-7.89985c0.85339,-1.01331 2.97133,-2.73029 4.56953,-1.47546c1.45047,1.13886 0.07278,2.88136 -0.97478,4.41475c-0.18579,0.60274 -0.4519,1.2444 -0.78665,1.99321l0.0798,0.22612c0,0 0,0.33827 -0.22316,0.61917v0.36994c0,0.37802 -0.23923,0.70652 -0.5908,0.87301c0.02158,0.04913 0.04315,0.09728 0.06467,0.1444z" fill="#638fd6"></path></g><g fill-opacity="0.37255" fill="#2e1340"><path d="M203.11668,192.96666c0,-1.51878 1.23122,-2.75 2.75,-2.75c0.15733,0 0.31157,0.01321 0.46167,0.03859c0.16658,-0.02509 0.34571,-0.03859 0.53833,-0.03859c1.80199,0 2.42319,1.18078 2.63734,1.99489c0.30344,0.16373 0.5726,0.38283 0.79396,0.64375c0.25166,0.02254 0.52373,0.08119 0.81729,0.1848c2.59322,0.91526 1.67797,3.50848 1.67797,3.50848c-1.10245,3.12281 -2.15419,6.23831 -3.15007,9.36166c-0.05154,2.83757 0.05845,5.69507 -0.02849,8.49471c-0.08705,2.80346 -0.90762,5.5357 -1.36183,8.30349c-0.53662,3.26993 -0.30283,6.62855 -0.30283,9.92489c0,2.63418 0.77453,6.83142 -0.07357,9.29849c-0.227,0.66033 -0.49129,1.31957 -0.80009,1.93919c1.04295,0.91249 0.85242,2.43675 0.85242,2.43675c-0.92295,7.37035 -1.24115,14.73093 -2.34492,22.08254c-0.12005,0.79961 -0.2687,1.5953 -0.42354,2.39005c0.02424,0.22742 0.04961,0.45456 0.07628,0.68136c0.05946,0.50579 -0.48242,1.11385 -0.1726,1.51804c0.32507,0.42408 1.10606,0.04905 1.57298,0.30887c2.82531,1.57217 5.20053,3.77812 7.09638,6.36137c0.82937,1.13009 2.41308,2.04527 2.40888,3.44704c-0.00088,0.29477 -0.02953,0.58431 -0.08049,0.86963h0.22161v2.66667c0,1.51878 -1.23122,2.75 -2.75,2.75c-1.41573,0 -2.58159,-1.0698 -2.73329,-2.4451l-0.22666,-1.81331c-1.68225,-1.17951 -2.95254,-1.94734 -4.91762,-2.08617c-0.00302,0.37784 -0.03999,0.7885 -0.11505,1.23645c-0.24383,1.45526 -1.91287,2.26285 -3.02873,3.2283c-2.04034,1.7653 -5.13644,2.81619 -6.90634,4.9376c-0.79963,0.95843 -1.3953,2.11217 -2.2741,2.98776l0.63619,0.76343c0.40487,0.47892 0.64895,1.09814 0.64895,1.77437c0,1.51878 -1.23122,2.75 -2.75,2.75c-0.27252,0 -0.53579,-0.03964 -0.78434,-0.11347l-3.6059,-0.98343l0.02234,-0.08191c-0.15983,-0.02476 -0.31924,-0.05359 -0.47818,-0.08695c-3.33102,-0.6992 -7.05863,-6.38529 -6.10734,-9.65281c0.30714,-1.05498 4.33404,-4.1703 5.41827,-5.1825c1.03603,-0.9672 3.03074,-3.48284 5.08651,-5.31965c0.27965,-1.7673 0.80633,-3.53297 1.06511,-5.08819c1.17015,-7.03247 2.62554,-13.97039 2.63885,-21.07863l0.09908,-0.15982l-0.08316,-0.0104l0.32881,-2.63047c0.07206,-0.65329 0.37295,-1.23764 0.82076,-1.67114c0.09556,-2.91244 0.14439,-5.82456 0.15831,-8.7183c-0.06899,-0.12765 -0.12818,-0.26138 -0.17656,-0.40018l-0.97746,-2.60655l0.10072,-0.03777c-0.10246,-0.22037 -0.19167,-0.44729 -0.26482,-0.68213c-0.4369,-1.40266 0.47105,-2.90031 0.69118,-4.35285c0.59205,-3.90661 1.86848,-7.0517 2.69518,-10.8161c1.04302,-4.74945 2.13209,-9.46601 3.29218,-14.1828c0.09622,-0.8791 0.20735,-1.75734 0.34075,-2.63422c0.39456,-2.59356 -0.5031,-7.32768 1.67798,-9.41745c-0.44022,-0.48758 -0.70826,-1.13362 -0.70826,-1.84226z"></path><path d="M305.60758,117.88116c1.33355,1.82983 2.68955,4.01868 2.62613,5.56546c-0.00715,0.17431 -0.02041,0.34762 -0.03912,0.52005h0.08874v3.66667c0,1.51878 -1.23122,2.75 -2.75,2.75c-0.01655,0 -0.03307,-0.00015 -0.04955,-0.00044c-0.62059,1.10986 -1.24684,2.21663 -1.77329,3.3729c-0.09075,0.19931 -0.16636,0.40686 -0.23347,0.61891c-0.19259,1.41087 -0.3069,3.03283 -1.46736,3.66262c-0.34926,0.18954 -0.68291,0.35946 -1.00155,0.5107c-2.31309,1.59064 -5.77729,2.14253 -8.12858,0.7463c-0.05816,0.12187 -0.11499,0.24304 -0.17047,0.36361c-0.1019,3.52699 0.24095,7.20826 0.24095,10.64206l0.46998,0.64534c0,0 1.02132,2.55331 -1.53199,3.57464c-2.32419,0.92968 -3.379,-1.10253 -3.54959,-1.47474c-2.55506,-0.12679 -2.55506,-2.74524 -2.55506,-2.74524l0.02124,-0.32557c-0.55493,-4.50754 -0.01057,-7.92966 1.45695,-11.522c0.04049,-0.8399 0.10707,-1.67089 0.20909,-2.48843c0.2131,-1.70765 0.5359,-3.38135 0.95794,-5.02044c-0.71175,0.64183 -1.4507,1.26705 -2.22598,1.87522c-2.96508,2.32597 -5.44773,4.84835 -9.63306,4.89765c-0.26629,0.00314 -6.55055,-1.33941 -6.95627,-1.49158c-3.44553,-1.29237 -3.65202,-1.73741 -6.11905,-3.76783c-2.73873,-2.07523 -4.70181,-4.60549 -7.53078,-6.56584c-2.11151,-1.46318 -4.38905,-2.74119 -6.24096,-4.52158c-0.10553,-0.10146 -0.24587,-0.23368 -0.40276,-0.38218c0.65752,1.44979 1.08957,3.43059 1.43227,4.28788c0.97614,2.44191 1.84972,4.76219 2.89478,6.95038c0.87391,0.71653 1.90579,1.27888 2.74103,2.04367c1.61781,1.48135 3.49948,3.9687 5.59889,4.85239c1.61961,0.68174 3.41911,0.87048 5.03902,1.55005l2.45216,0.61304c1.22463,0.27791 2.13883,1.37312 2.13883,2.68184c0,1.18967 -0.75543,2.20289 -1.81276,2.58616c0.05527,0.02275 0.11073,0.0458 0.16639,0.06914l0.20959,0.36885l0.11396,-0.13675l1.98387,1.65322c0.03397,0.02791 0.06727,0.05661 0.09985,0.08609c0.15873,-0.02849 0.32218,-0.04337 0.48911,-0.04337c0.40632,0 0.79207,0.08812 1.13916,0.2463l0.82405,0.35316c0.11578,-0.55694 0.69534,-2.53855 3.04456,-2.24489c0.04033,0.00504 0.08,0.01061 0.119,0.01667c0.38955,-0.55849 1.05835,-1.03791 2.20657,-1.03791c2.75,0 2.75,2.75 2.75,2.75v2.33333c-0.00427,2.8581 -0.12151,9.00571 -2.39572,11.99633l0.03578,0.28621c0.01754,0.12553 0.02662,0.25377 0.02662,0.38413c0,1.15737 -0.71497,2.14776 -1.72734,2.55356c0.0566,0.10415 0.10505,0.20797 0.14651,0.30868l1.18201,2.5412c0.86994,3.91617 1.56962,7.82113 2.3464,11.72885c0.83126,4.18179 3.00017,8.24576 3.68358,12.42721c0.4473,2.73681 -0.09811,7.08499 -3.35192,8.32396c-2.55811,0.97407 -4.1184,0.39588 -5.20712,-0.80013c-0.94491,0 -2.16051,0 -2.82212,0c0,0 -2.02397,0 -2.59919,-1.73636c-2.15946,-0.03768 -3.62134,-0.9571 -5.87012,-2.35574c-2.64599,-1.64569 -5.10319,-4.58584 -6.21818,-7.6555c-0.07691,-0.1826 -0.1364,-0.3622 -0.18219,-0.54151c-0.04348,-0.14048 -0.08402,-0.28109 -0.12153,-0.42172c-0.14107,-0.52896 -0.07231,-1.08483 -0.01206,-1.64031c0.00987,-0.41559 0.02104,-0.86736 0.00584,-1.37549c-0.00386,-0.01944 -0.00797,-0.03884 -0.01234,-0.05822c-0.71862,-3.18365 -3.36541,-6.13614 -4.02395,-9.44511c-0.04767,-0.23951 -0.06151,-1.68594 -0.05317,-3.31041l-1.13819,-1.59347c-0.59068,-0.79598 -1.14687,-1.62048 -1.66557,-2.46839c-0.13365,0.84122 -0.34863,1.65803 -0.65918,2.43421c-1.84482,4.61089 -10.27632,6.62746 -13.45613,2.1971c-0.20387,-0.28404 -0.33483,-0.596 -0.41577,-0.92679c-0.62058,0.0533 -1.23372,0.06705 -1.79787,-0.15846c-1.66061,-0.66382 -4.10726,-1.25047 -4.44325,-3.007c-0.38145,-1.9942 1.74989,-3.67525 2.83708,-5.39c0.79243,-1.24985 1.75811,-2.39061 2.77667,-3.4642c0.86318,-0.90982 1.64116,-2.06547 2.75408,-2.60465c0.49443,-0.62555 1.02428,-1.23438 1.44202,-1.89688c0.14838,-0.51412 0.35363,-1.00244 0.64796,-1.44709c0.70675,-2.87055 -2.01862,-5.90049 4.78735,-5.95607c0.18873,-0.00154 0.3779,0.02996 0.56655,0.08979c0.51627,-3.22359 1.79407,-4.67718 4.54382,-6.96906c-1.41116,-1.78738 -2.54149,-3.71137 -3.53435,-5.72855c-0.32401,-0.28159 -0.56202,-0.50221 -0.64742,-0.61275c-0.50561,-0.65452 -0.46543,-2.95707 -2.06329,-2.62644c-0.6913,0.14305 -1.20326,0.80382 -1.89469,0.94621c-1.9075,0.39282 -3.98823,0.07179 -5.78397,0.82558c-2.83793,1.19126 -5.13696,5.50251 -8.38924,5.88204c-0.17766,0.32203 -0.35677,0.64307 -0.54548,0.9576l-0.02601,0.01021l-0.62857,1.41428l-0.05469,-0.02431c-0.03347,0.1128 -0.06966,0.22501 -0.10881,0.33656c-1.75262,4.9941 -8.60982,8.1499 -11.94159,12.04272c-2.46027,2.87457 -3.27616,6.59392 -5.55578,9.53071c-2.2378,2.88291 -3.90048,5.10533 -5.89446,8.18525c-1.31835,2.03633 -2.23073,1.71185 -2.58511,3.96951c-0.40317,2.56853 0.04413,5.56514 0.04413,8.176v2.66667c0,1.51878 -1.23122,2.75 -2.75,2.75c-1.04123,0 -1.9473,-0.57868 -2.41415,-1.43197l-1.30685,-2.28698l0.10352,-0.05916c-0.1136,-0.14048 -0.22211,-0.28545 -0.32473,-0.4356c-0.63912,-0.93511 -0.45583,-2.23284 -0.46914,-3.36542c-0.00822,-0.69928 0.7922,-1.47583 0.4054,-2.05845c-0.571,-0.86006 -2.35934,-0.49038 -2.73578,-1.45166c-0.10864,-0.27742 -0.19366,-0.56038 -0.25745,-0.8477c-1.18075,1.02764 -2.45848,1.99719 -3.91928,2.87837c0,0 -2.35811,1.41486 -3.77297,-0.94324c-1.41486,-2.35811 0.94324,-3.77297 0.94324,-3.77297c4.05448,-2.41805 6.5696,-5.67784 9.70343,-8.87396c2.99054,-6.11426 8.42427,-10.20476 12.47673,-15.70395c1.35061,-1.83278 2.34859,-3.93955 3.89455,-5.61085c1.51465,-1.63745 3.47514,-2.81048 5.05238,-4.38773c2.22012,-2.22012 3.80952,-5.16591 6.0099,-7.34328c0.89035,-0.88104 2.57633,-1.9188 3.96246,-2.74578c1.78262,-2.80241 3.58446,-5.61908 4.88695,-8.60004l0.14909,-0.23962c-2.3685,-0.10589 -4.96569,0.00196 -7.05128,0.25938c-0.07259,0.00896 -0.46797,0.10953 -1.00576,0.2511c-1.02299,0.68264 -2.23514,1.11845 -3.30292,1.74263l-4.60207,0.65486c-2.46205,1.23706 -4.94389,2.4351 -7.25338,3.9235c-1.68594,1.08655 -3.32194,2.24239 -4.92169,3.44753l-0.29538,0.44307l-0.10679,-0.07119l-0.12313,0.36957c-2.16306,1.88002 -4.39382,3.5836 -6.70173,5.14194c-2.5889,2.23059 -5.13423,4.51423 -7.70362,6.75213c-0.04685,0.77844 -0.16851,1.53986 -0.45209,2.26443c-0.46003,1.1754 -2.04901,1.48522 -2.97334,2.34475c-2.53501,2.3573 -4.1356,5.64709 -5.94146,8.53496l-5.24567,3.23171c-0.09041,-2.02908 -0.53174,-4.07292 -0.27123,-6.08723c0.37499,-2.89941 2.07258,-4.41443 3.80964,-6.46283c0.02527,-0.0298 0.05052,-0.05956 0.07576,-0.08929c-0.15334,-0.43823 -0.16285,-0.84629 -0.09274,-1.21043c-1.02236,0.56022 -1.95542,1.39516 -3.09744,1.46659c-5.84026,0.36529 -6.00801,-2.41715 -5.92107,-6.21439c-0.22147,-0.69694 -0.23339,-1.55987 -0.25465,-2.72959c-0.08284,-0.18971 -0.16329,-0.38821 -0.24132,-0.59585c-0.49603,-1.31992 -0.46138,-2.79459 -0.46371,-4.20464c-0.0019,-1.15306 0.30075,-2.28642 0.45112,-3.42963l0.36666,-0.33576l-0.19433,-0.09717l1.30669,-2.61338c0.07611,-0.16056 0.16732,-0.31258 0.2718,-0.45421c0.00003,-0.00012 0.00007,-0.00024 0.0001,-0.00036c-0.78978,-1.90952 0.48884,-2.98402 1.13112,-3.3826c0.00196,-0.40128 0.08987,-0.78225 0.24627,-1.12542l0.97605,-2.27746c0,0 0.50006,-1.16682 1.61345,-1.57516c0.25088,-1.00656 1.02462,-1.88751 1.57491,-2.78732c1.93957,-3.17151 4.34102,-6.12884 6.30996,-9.29481c0.62986,-1.01278 0.87742,-2.28402 1.69825,-3.14928c3.43003,-3.61568 10.64524,-4.93486 15.32841,-5.50622c2.53081,-0.30877 4.93064,0.43892 7.3819,-0.51645c2.86893,-1.11815 5.00979,-3.03484 7.63294,-4.49934c2.53865,-1.41732 5.91455,-2.41007 8.58423,-3.5709c2.86041,-0.20101 6.01892,-3.01004 8.21352,-5.04579c1.49347,-1.38537 2.82364,-4.06688 4.80437,-4.84546c3.24624,-1.27602 5.84748,0.49708 8.66871,1.64915l1.79702,2.04743c0.32956,0.29367 0.55308,0.64595 0.69732,0.9364c0.15327,0.29528 0.30986,0.69633 0.34771,1.14975c0.3033,1.60247 0.29916,3.26021 0.56881,4.87168c0.37325,2.23063 3.89086,6.16823 4.91015,7.66827c0.36507,0.53726 0.72371,1.07949 1.09055,1.61579c0.06159,-0.15206 0.14185,-0.30634 0.24384,-0.46181c0.05145,-0.10069 0.11035,-0.20122 0.17779,-0.29943c-0.81091,-1.44572 -1.30442,-3.1307 -1.51641,-5.00316c-0.21778,-1.92361 -0.08874,-4.01141 0.26745,-6.10343c-0.3982,-0.63312 -0.70592,-1.32091 -0.90227,-2.017c-0.37361,-1.3245 0.3939,-2.73161 0.7623,-4.05757c0.89269,-3.21294 2.68931,-9.21891 5.80429,-10.86623c0.0583,-0.03083 0.11687,-0.06104 0.17569,-0.09065l-0.02389,-0.03185l2.64444,-1.98333c0.46336,-0.35542 1.04312,-0.56667 1.67222,-0.56667c1.51878,0 2.75,1.23122 2.75,2.75c0,0.46188 -0.11387,0.89717 -0.31507,1.27932l-1.10076,2.20152c-0.03061,1.04949 0.26859,2.19414 -0.2223,3.11084c-0.55789,1.04183 -1.92647,1.39322 -2.73823,2.25212c-0.9928,1.05046 -1.02668,2.72549 -1.41467,3.9738c-0.11071,0.35619 -0.22856,0.71768 -0.34965,1.08363c0.79554,-0.03451 1.59396,0.01214 2.39067,0.01543c3.61375,0.0149 7.82423,-1.6949 11.42479,-0.5601c4.91658,1.54957 7.65259,7.29889 12.28662,8.96914c0.86641,-0.00544 1.75489,-0.22664 2.58708,-0.00214c0.00572,0.00154 0.21291,0.09923 0.55063,0.25977h0.15089c0.91753,0 1.7301,0.44935 2.22967,1.13998c1.5593,0.75156 3.22957,1.5671 3.59405,1.78195c1.02713,0.60544 2.60389,0.87048 3.34135,1.71038c0.50561,0.39981 0.91826,1.05243 0.91826,2.1177c0,0.5004 -0.09106,0.90975 -0.24003,1.24461c-0.03917,1.30365 -0.46161,2.12331 -1.12537,2.66742c0.02112,0.13735 0.03207,0.27805 0.03207,0.4213c0,0.85659 -0.39164,1.6217 -1.00563,2.12605l-1.98387,1.65322l-0.02891,-0.03469l-0.05097,0.09878c-5.24924,3.73325 -9.42881,3.90664 -15.68062,3.90664c-1.56257,0 -3.13179,0.07683 -4.68984,0.04932c-0.59281,0.11164 -1.18404,0.21978 -1.77576,0.31854c-0.34713,0.11274 -0.69785,0.16423 -1.04945,0.16397c-2.24594,0.32427 -4.51667,0.46405 -6.92545,0.09933c-0.55475,-0.084 -2.0353,-0.59458 -3.52705,-1.14146c0.03107,1.65831 -0.14585,3.40762 0.21996,4.4908c0.50126,1.48425 2.04039,2.38173 2.96662,3.64519c1.37007,1.8689 2.78748,3.75017 4.5291,5.07988c0.50118,0.09592 1.05917,-0.18917 1.5852,-0.20557c2.90153,-0.09046 6.1092,0.51803 8.94742,-0.23761c2.88336,-0.76766 7.03686,-2.87659 9.27505,-4.77736c1.00815,-0.85617 1.61232,-2.4148 2.90265,-2.7054c0.05572,-0.01255 0.1115,-0.02408 0.16734,-0.03462c0.24243,-0.40094 0.57495,-0.67277 0.91439,-0.85705c0.39454,-0.27561 0.90585,-0.48083 1.53393,-0.43576c0.54436,-0.84154 1.11237,-1.67036 1.70187,-2.48634c0,0 1.61747,-2.22402 3.8415,-0.60655c0.06399,0.04654 0.1248,0.09358 0.18256,0.14105c0.28876,-0.76954 0.96228,-1.66703 2.5333,-1.66703c2.75,0 2.75,2.75 2.75,2.75c0,0.96732 -0.01333,1.80663 -0.00908,2.58116zM188.28531,132.84782c1.89453,-0.91776 3.83696,-1.75147 5.70373,-2.68351c1.86635,-0.93183 3.40364,-2.70754 5.46,-3.05819c0.10372,-0.01769 0.20758,-0.03385 0.31157,-0.04861l-0.01746,-0.05821l3.27211,-0.98163c0.26809,-0.08721 0.55425,-0.13434 0.85143,-0.13434c0.19652,0 0.38822,0.02061 0.57307,0.0598c0.63369,-0.43599 1.27399,-0.86241 1.92173,-1.27795c4.31261,-2.76665 9.18878,-4.55317 13.45824,-7.41035c0.59572,-0.29086 1.19144,-0.58172 1.78716,-0.87258c0.1688,-0.47694 0.46545,-0.89344 0.84876,-1.20831l1.85068,-1.54223c1.09014,-1.28912 1.85749,-3.44744 2.78268,-5.13109c-1.74239,0.1952 -3.41179,0.58556 -5.23113,0.80287c-2.4505,0.91894 -5.12811,0.93701 -7.44024,2.12893c-3.69739,1.90603 -7.10858,4.16157 -11.22643,5.20441c-4.09514,1.03708 -8.92752,1.52604 -12.77357,3.46226c-2.67143,1.34488 -4.56028,3.59294 -7.0298,5.15857c-2.20887,1.40038 -4.77611,2.85625 -7.2609,4.05568c-0.88933,2.52153 -1.18379,5.18374 -1.17692,7.98667c0.00063,0.25621 0.04852,0.75479 0.10022,1.37612c0.10279,-0.05417 0.20667,-0.10066 0.31224,-0.1208c3.8152,-0.72772 5.57801,-1.39307 8.78379,-3.42025c0.03695,-0.03921 0.07336,-0.0769 0.10921,-0.11294l2.41912,-1.67693c0,0 0.71427,-0.47618 1.61072,-0.49737zM275.18478,164.24429c-0.3232,-0.12017 -0.65984,-0.26738 -1.01049,-0.44339c-1.37471,-0.69007 -0.67999,-3.00034 -1.03681,-4.49657c-0.14776,-0.61959 -0.29372,-1.23961 -0.43815,-1.85998l-1.90102,-4.07361c-0.0872,0.00834 -0.17559,0.0126 -0.26497,0.0126c-0.27252,0 -0.53579,-0.03964 -0.78434,-0.11347l-3.6059,-0.98343l0.09109,-0.33399c-2.09942,0.053 -4.1591,0.21496 -5.45347,0.66703c2.08654,3.40671 4.88062,6.96274 4.35708,10.79542c0.03035,0.08934 0.05624,0.18074 0.07739,0.27394l0.65271,2.61086l-0.01276,0.00319l0.02131,0.03196c0.01707,0.07858 0.03376,0.15725 0.05006,0.23598c1.33533,-0.05715 2.65203,-0.01966 3.27351,-0.02083h2.33333c0,0 1.39079,0 2.19423,0.98906c0.01345,0.01097 0.02682,0.02213 0.04012,0.03347c-0.01626,-0.51225 0.09737,-1.10381 0.53265,-1.63087c0.25602,-0.36932 0.63842,-0.70078 1.20867,-0.89193c-0.14812,-0.24603 -0.25883,-0.51714 -0.32423,-0.80545zM288.71026,100.57807l-2.35165,0.42757l-0.01058,-0.05818c-0.0777,0.03137 -0.15582,0.06186 -0.23439,0.09142c-0.03779,0.01422 -6.19309,0.01111 -6.5803,0.01111c-3.57748,0 -7.15496,0 -10.73245,0c1.15425,0.71319 2.03939,1.83214 3.08217,2.71339c0.69404,0.93162 2.1861,2.62486 3.08546,4.41537c1.05276,-0.21698 2.11399,-0.43466 3.1998,-0.60443c1.69257,-0.26464 3.45963,0.07874 5.13072,-0.29845c1.28751,-0.29061 2.61616,-0.87263 3.9517,-1.44168c-0.29514,-0.43825 -0.4674,-0.96611 -0.4674,-1.53421c0,-0.75939 0.3078,-1.44689 0.80546,-1.94454l1.5177,-1.5177c-0.13651,-0.09058 -0.26894,-0.17774 -0.39624,-0.25968zM270.02943,90.82335c-1.56654,0.18759 -3.22556,0.71901 -4.49343,0.87271c-0.09814,0.0119 -5.37059,0.03375 -5.66934,0.0206c-0.4114,-0.01811 -0.84001,0.01155 -1.27073,0.04468c-0.26614,1.72455 -0.22346,3.45727 0.46673,5.12598c0.30558,0.73881 0.68564,1.28726 1.12301,1.69848c0.51052,-0.00221 1.01417,0.02988 1.49101,0.08619c0.43816,0.05175 1.11845,0.51961 1.88613,1.18381c0.01299,0.00148 0.02598,0.00294 0.03899,0.0044c-0.30596,-0.4433 -0.48513,-0.98083 -0.48513,-1.56021c0,-0.6291 0.21124,-1.20886 0.56667,-1.67222l1.98333,-2.64444l0.03665,0.02748c0.07013,-0.10893 0.14297,-0.21633 0.21881,-0.32203c0.95472,-1.33068 2.434,-2.28003 4.10731,-2.86543zM274.17904,95.55c0.32232,0 0.64463,0 0.96695,0c-0.33262,-0.04576 -0.65416,-0.0411 -0.96695,0zM279.59587,131.22154c-0.1113,0.02041 -0.22293,0.04019 -0.33492,0.05934c0.00616,0.04814 0.01107,0.09668 0.01471,0.14557c0.10828,-0.06545 0.21496,-0.13389 0.3202,-0.2049z"></path><path d="M288.53304,180.63211c2.66789,-0.66697 3.33486,2.00092 3.33486,2.00092c0.04624,0.18632 0.09375,0.37236 0.14251,0.5581c2.63816,0.81918 5.20319,1.74651 7.89544,2.451c4.05573,1.06128 8.60004,1.83534 12.30948,3.92795c3.65362,2.06112 7.00205,4.7764 10.82312,6.57539c0.15041,0.07081 0.30145,0.13981 0.45309,0.2071c1.81289,0.49344 3.61068,1.03848 5.36678,1.71578c0.21088,0.08133 0.42194,0.16438 0.63312,0.24904c2.10479,0.54471 4.22746,1.0355 6.28084,1.71933c3.21307,1.07003 6.39897,2.50361 9.48666,3.89176c0.35655,0.26506 4.14977,3.1829 4.99345,3.49752c0.46768,0.1744 0.93888,0.33699 1.41311,0.48948c0.78495,0.08119 1.56271,0.1951 2.31751,0.41502c0.85475,0.24904 1.70394,0.53793 2.55017,0.84564c4.92319,1.04624 9.98478,1.6525 14.68061,3.56755c3.38114,1.37889 7.25873,3.11993 10.54155,4.7594c1.86242,0.93011 3.36881,2.7106 5.40982,3.12048c1.05286,0.21144 2.16877,-0.23573 3.22156,-0.02395c2.33886,0.47051 4.51748,1.63359 6.878,1.97934c5.66879,0.83033 10.85425,1.11895 15.96633,4.00004l1.71715,1.02956c0,0 2.35811,1.41486 0.94324,3.77297c-1.41486,2.35811 -3.77297,0.94324 -3.77297,0.94324l-1.08754,-0.65301c-0.02987,0.00546 -0.0599,0.01043 -0.09009,0.01492l-5.38058,0.89676l-0.01244,-0.07465c-0.13647,0.03971 -0.27379,0.07708 -0.41201,0.11193c-1.24708,0.31449 -2.52488,0.17843 -3.80969,-0.1767c-0.70349,0.08407 -1.40987,0.16859 -2.12345,0.25204c-1.02721,0.12012 -3.94624,-0.16397 -5.20576,0.23594c-4.44414,1.41104 -4.85454,4.057 -10.30093,2.65408c-1.13853,-0.29327 -4.37234,-2.61965 -5.45301,-3.19095c-4.65214,-2.45938 -8.9834,-5.05877 -14.09987,-6.44203c0,0 -0.0044,-0.0012 -0.01278,-0.00368l-1.06827,-0.14591c-7.76546,-3.53388 -15.40319,-7.2154 -23.1626,-10.74715c-2.89739,-1.84318 -5.53443,-1.97374 -8.65354,-3.17717c-4.49978,-1.73613 -9.12686,-3.01083 -13.66667,-4.66667c-5.58883,-2.03845 -10.73821,-6.02445 -16.4869,-7.60712c-0.31859,-0.08771 -0.64064,-0.15687 -0.96515,-0.2119c0.15615,0.50023 0.15615,0.9065 0.15615,0.9065c0,10.18087 0.90857,20.22012 2.9446,30.11748c0.26552,1.29073 0.60167,5.16213 0.38873,6.54919c-0.25936,1.6894 0.34968,4.37452 -1.25149,4.97252c-0.37761,0.14103 -0.76976,0.21609 -1.1697,0.23643c0.57157,3.63699 1.41686,7.08524 2.06127,10.74295c0.1037,0.58861 -0.02846,4.72692 0.02127,5.54388c0.12116,1.99055 0.77579,3.91741 0.99193,5.8999c0.51778,4.74916 0.01338,9.82571 0.01338,14.60431v0.99072c0.52812,-0.0438 1.05688,-0.06804 1.58333,-0.07405h2.66667v0c1.51878,0 2.75,1.23122 2.75,2.75c0,1.35177 -0.97532,2.47573 -2.26064,2.70659l-3.28338,0.65668l-0.01486,-0.07431c-0.08398,0.03909 -0.16846,0.07722 -0.25348,0.11433c-0.79479,0.34694 -1.73774,-0.08293 -2.60164,-0.00722c-0.12668,0.0111 -0.26483,0.01736 -0.40913,0.02255c-0.70742,0.27541 -1.38625,0.59428 -2.12346,0.87198c-0.02079,0.29648 0.14298,0.59918 0.23404,0.90116c1.00637,0.12719 2.01068,0.28037 3.0137,0.41859c1.23426,0.17009 2.66975,-0.35354 3.72577,0.30617c0.4077,0.00008 0.8154,0.00016 1.22309,0.00016h2.66667c1.51878,0 2.75,1.23122 2.75,2.75c0,1.51878 -1.23122,2.75 -2.75,2.75h-2.66667c-0.17071,0 -0.72233,0.00006 -1.45914,0.00008c-0.71351,0.15092 -1.52932,0.11908 -2.38027,-0.00015c-1.97216,-0.00034 -3.95849,-0.00136 -3.97933,-0.00413c-1.56504,-0.20839 -3.46628,-0.0601 -4.66632,-1.03445c-0.61649,0.0241 -1.233,0.04589 -1.84827,0.03866c-2.17874,-0.0256 -4.70394,1.759 -6.51385,0.54581c-0.69268,-0.46431 -0.81802,-1.32034 -0.88067,-2.23095c-0.35548,-0.69515 -0.35548,-1.3982 -0.35548,-1.3982c0,-0.26903 0,-0.5686 0,-0.88947c-0.36232,-0.85244 -1.04709,-1.57696 -1.25977,-2.47871c-0.73615,-3.12124 0.25853,-6.51808 0.60648,-9.56947c0.02984,-0.26168 0.05611,-0.52474 0.07913,-0.78902c-0.39881,-1.14513 -0.85045,-2.27762 -1.05178,-3.46846c-0.04667,-0.27606 -0.48971,-5.1572 -0.65512,-5.93787c-0.24485,-1.15566 -1.89188,-6.54392 -2.02795,-7.50199c-0.67299,-4.73871 0.44571,-9.86417 -0.90634,-14.56811c-0.82532,-2.8714 -5.09274,-4.2782 -5.118,-7.46357c-0.00752,-0.94787 1.17364,-2.46704 2.3624,-3.82823c-0.07853,-1.37805 1.10754,-2.54956 2.03983,-3.64734c0.00033,-0.16233 0.00187,-0.32551 0.00467,-0.48958l0.47869,-0.46705l-0.26193,-0.13096l1.30669,-2.61338c0.44095,-0.93018 1.38851,-1.57345 2.48632,-1.57345c0.63836,0 1.22593,0.21751 1.69261,0.58246c0.01986,-0.02769 0.03969,-0.05544 0.05949,-0.08326c1.66718,-2.34272 1.22775,-3.32521 3.79352,-5.49954c0.02044,-0.01732 0.04094,-0.03458 0.06149,-0.05176l-0.01003,-0.00878l1.29158,-1.47609c0.11988,-1.05514 0.25162,-2.10452 0.39565,-3.1461c0.55782,-4.03397 -0.91772,-9.44357 0.64958,-13.20764c0.00452,-0.01085 0.00905,-0.02168 0.01361,-0.03251l-0.00961,-0.0012l0.32881,-2.63047c0.01161,-0.10522 0.02915,-0.20866 0.05229,-0.30996c-1.06556,-0.31491 -2.07086,-0.85885 -2.97387,-1.81859c-2.21257,-2.35158 -2.21975,-5.26418 -2.1391,-8.15509l-0.15288,-0.26705c0.05414,-0.01924 0.10822,-0.0388 0.16223,-0.05866c0.00277,-0.0949 0.00555,-0.18976 0.00826,-0.28455c-0.05086,-0.14921 -0.10108,-0.29865 -0.15065,-0.44831c-0.02442,-0.00613 -0.04885,-0.01224 -0.0733,-0.01833c0,0 -2.66789,-0.66697 -2.00092,-3.33486c0.19268,-0.77071 0.55233,-1.26311 0.96642,-1.57368c0.12634,-0.79156 0.59495,-1.73402 2.0345,-2.0939z"></path></g><g fill-opacity="0.37255" fill="#2e1340"><path d="M237.75491,161.56213c1.08622,-3.42433 3.93979,-5.3282 6.91124,-7.73954c0.18236,-0.14798 0.44441,-0.38662 0.76106,-0.67794c0.15159,-0.32469 0.30202,-0.65029 0.45056,-0.97707c0,0 0.26107,-0.57436 0.80823,-1.04782c0.2564,-0.66583 0.58664,-1.32447 0.9623,-1.97424c0.53273,-2.71451 1.47609,-5.6674 3.7981,-6.44224c0.07436,-0.26061 0.1331,-0.51923 0.17246,-0.77555l-0.55718,-2.22873c-0.06328,-0.23152 -0.09707,-0.47521 -0.09707,-0.7268c0,-0.11769 0.00739,-0.23366 0.02174,-0.34746c-0.39019,-0.10688 -0.74575,-0.29756 -1.04611,-0.55148l-1.98613,-1.65511l0.01047,-0.01256l-0.03579,-0.0088c-1.67359,-1.49232 -3.04933,-3.29853 -4.39962,-5.08868c-0.6777,-0.89847 -1.82581,-1.45418 -2.29314,-2.47796c-0.26553,-0.5817 -0.42278,-1.1942 -0.52208,-1.82369c-0.26985,0.19362 -0.53018,0.39708 -0.76827,0.62267c-1.59944,1.51553 -2.91971,2.74487 -4.31142,3.89996l-0.07508,0.13764l0.15409,0.09631l-1.64143,2.62629c-0.48119,0.79869 -1.35683,1.33288 -2.35723,1.33288c-0.10254,0 -0.20376,-0.00561 -0.30338,-0.01654c-3.51791,5.68402 -8.28447,9.97544 -12.10444,15.5017c-3.6097,5.22206 -7.0958,10.52597 -10.56655,15.84496c-1.47436,2.25948 -2.19036,5.08746 -3.70291,7.39214c-1.33584,2.03543 -3.20531,3.67251 -4.94906,5.37156c-0.26454,0.25775 -0.50877,0.53211 -0.73771,0.81903l0.09282,0.0116l-0.32881,2.63047c-0.1517,1.3753 -1.31756,2.4451 -2.73329,2.4451c-1.51878,0 -2.75,-1.23122 -2.75,-2.75v-1.88319c-0.37503,0.19172 -0.79989,0.29985 -1.25,0.29985c-1.51878,0 -2.75,-1.23122 -2.75,-2.75c0,-0.51388 0.14095,-0.99483 0.38629,-1.40631l1.30937,-2.2914l0.10148,0.05799l0.02735,-0.26209c1.37118,-1.65756 2.77277,-3.29005 4.18925,-4.90907c0,0 1.39594,-1.59536 3.13729,-0.75906c0.35989,-0.29506 0.7008,-0.60984 1.01366,-0.95532c1.91603,-3.56307 3.1023,-7.88888 5.27317,-11.29688c0.52089,-0.81773 1.50662,-1.26192 2.04527,-2.06806c1.20331,-1.80087 1.77891,-4.03282 3.23831,-5.63321c1.48662,-1.63023 3.59015,-2.60788 5.2999,-3.99607c0.71277,-1.20145 1.41231,-2.41356 2.13289,-3.60138c0.1453,-0.45635 0.34576,-0.86813 0.71296,-1.15326c0.46786,-0.74067 0.94866,-1.46699 1.45116,-2.17006l0.22752,-0.09325l-0.07376,-0.07376l2.33333,-2.33333c0.49765,-0.49765 1.18515,-0.80546 1.94454,-0.80546c0.42677,0 0.83083,0.09721 1.19125,0.2707c0.80335,-1.37142 1.48999,-2.81533 2.28997,-4.18994c0.92405,-0.93575 1.8061,-1.91381 2.65434,-2.92044c-0.14092,-0.33076 -0.2189,-0.69477 -0.2189,-1.077c0,-0.2043 0.02228,-0.4034 0.06454,-0.595l0.58951,-2.94755c-0.03973,-0.15245 -0.02423,-0.31293 0.02327,-0.47874c-0.0251,-1.07662 -0.16917,-2.16626 0.04925,-3.21625c0.10531,-0.50624 0.35305,-0.966 0.61144,-1.42257c-0.00262,-0.11334 -0.00432,-0.22665 -0.00468,-0.33989c-0.00247,-0.75928 -0.04055,-1.59929 -0.05651,-2.45233c-0.48293,0.18304 -0.97884,0.34885 -1.42483,0.59443c-0.75802,1.00767 -1.55729,1.99631 -2.545,2.85665l-1.94579,1.94579c-0.4044,0.4044 -0.93417,0.68344 -1.526,0.77381c-1.38108,1.21376 -7.30024,4.13915 -8.82213,5.1875c-1.01574,0.6997 -1.76934,1.74079 -2.79798,2.42137c-3.29613,2.18081 -7.34268,3.46156 -11.03052,4.92497c-0.50412,0.60209 -0.91228,1.11463 -1.00135,1.1887c-2.36751,1.9685 -5.43841,2.96816 -7.94441,4.5379c-1.46884,0.92007 -2.35664,2.54746 -3.63438,3.71853c-2.69867,2.47337 -4.92724,5.04931 -7.42644,7.49962l0.29301,0.16743l-1.30685,2.28698c-0.46685,0.85329 -1.37292,1.43197 -2.41415,1.43197c-1.51878,0 -2.75,-1.23122 -2.75,-2.75c0,-0.13036 0.00907,-0.2586 0.02662,-0.38413l0.32795,-2.62363l0.37199,0.0465l-0.1658,-0.80044c0.08224,-0.09868 0.16336,-0.19959 0.24299,-0.30254l-1.96379,-0.19638c-0.8077,-0.07083 -1.51526,-0.49084 -1.97081,-1.10817c-0.17318,-0.06686 -0.34017,-0.15004 -0.49944,-0.25271c-4.42915,-2.85508 -2.38789,-8.54151 -1.59739,-12.46675c1.13905,-2.91585 0.10454,-5.12944 1.00092,-8.00322c0.38553,-1.23602 3.55074,-5.76997 4.49014,-6.63682c0.22246,-0.20528 0.4535,-0.40327 0.6922,-0.59461c-0.20278,-1.30896 0.03419,-2.84169 0.38916,-4.01022c0.43916,-1.44572 2.38629,-1.85957 3.6502,-2.68752c0.8539,-0.55937 2.99931,-1.8098 4.90768,-2.82748l1.09276,-1.27489l0.05883,0.05042c0.15067,-0.19143 0.31465,-0.37304 0.49466,-0.54283c1.36763,-1.28997 3.64111,-1.02146 5.32625,-1.85495c3.30618,-1.63527 6.18223,-4.08184 9.54371,-5.6002c5.99369,-2.70731 12.13214,-4.18961 18.45639,-5.12417l1.34145,-1.7886l0.09838,0.07379c0.11546,-0.19494 0.24118,-0.38437 0.37894,-0.56736c0.64867,-0.86161 1.76544,-1.1429 2.84474,-1.47836c-0.13239,-0.32211 -0.2054,-0.6749 -0.2054,-1.04474c0,-0.75939 0.3078,-1.44689 0.80546,-1.94454l1.83426,-1.83426c1.62373,-2.58987 5.109,-7.67389 8.4105,-7.971c1.48438,-0.13358 2.60848,1.45575 3.81895,2.32522c0.40824,0.29323 5.19454,4.54189 5.37121,4.92482c0.07479,0.1621 0.13176,0.32805 0.17399,0.49722c1.19782,0.29716 2.08564,1.3795 2.08564,2.66921c0,1.12204 -0.67199,2.08714 -1.63547,2.51478c1.76003,1.78701 3.2552,4.016 5.32892,5.17614c0.32935,0.08788 0.63324,0.25723 0.93576,0.43065c3.19305,1.15712 7.31775,-0.62757 10.58595,0.202c0.75256,0.19102 1.20004,1.09497 1.95855,1.26083c0.69161,0.15123 1.03972,-0.6264 1.41495,-1.40019c-0.10714,-0.40354 -0.10483,-0.7994 -0.06796,-1.11804c-0.5852,-0.01909 -1.25065,-0.14356 -2.0676,-0.43415c-4.62233,-1.64419 -5.77979,-4.96207 -6.1485,-9.00056c-0.69364,-0.60982 -1.45415,-1.47405 -2.28624,-2.63981c-0.79455,-1.11316 0.02824,-2.74005 0.18383,-4.09881c0.31708,-2.76905 0.95439,-5.49348 1.32195,-8.25628c0,0 0.36345,-2.72588 3.08933,-2.36243c2.72588,0.36345 2.36243,3.08933 2.36243,3.08933c-0.04691,0.35105 -0.0918,0.69936 -0.13575,1.04544c1.06455,0.37943 1.82654,1.39628 1.82654,2.59111v2.66667c-0.01537,1.91534 -0.31088,4.34816 -0.99426,6.22513c-0.15956,1.6284 -0.199,3.23749 0.73176,4.39881c0.61292,0.76474 1.30188,1.05842 2.02897,1.10779c0.16501,-0.66939 0.32522,-1.33754 0.36348,-1.9741l0.56736,-0.40789l-0.18358,-0.16063l2.32309,-2.65496c0.50425,-0.58239 1.24901,-0.95082 2.07983,-0.95082c1.43677,0 2.61619,1.10183 2.73938,2.50662l0.28263,2.82631c0.95905,-0.00031 1.76764,0.0004 1.97799,0.0004h0.33333c0,0 0.85335,0 1.60932,0.47536c0.53638,0.07903 1.02647,0.15598 1.4423,0.21838c3.30256,0.49565 8.11397,1.11724 10.7646,3.40699c0.10892,0.09409 0.21455,0.19112 0.3172,0.29083l0.02691,-0.03028l2.98972,2.65753c0.57224,0.50395 0.93328,1.24207 0.93328,2.06451c0,1.51878 -1.23122,2.75 -2.75,2.75h-3.33333c-5.15992,0 -11.2213,0.68802 -15.5059,-2.46452c-3.43339,-0.09271 -3.90861,4.80904 -8.08446,5.13013c-0.59568,0.0458 -1.13401,-0.22115 -1.66749,-0.53955c-0.00527,0.06995 -0.01315,0.13917 -0.02355,0.20755c0.34771,0.20459 0.63687,0.40442 0.84726,0.59419c0.39436,0.35571 0.66897,0.75318 0.87765,1.16654c4.54183,1.63708 8.51966,2.72132 13.43587,2.73878c3.32957,-1.0944 6.59098,-2.53488 9.55867,-3.51664c1.14442,-0.37859 2.11906,-1.43647 3.32441,-1.42324c0.19087,0.0021 0.38114,0.00977 0.57088,0.02238v-0.08228h4.33333c1.51878,0 2.75,1.23122 2.75,2.75c0,0.68898 -0.25337,1.31879 -0.67202,1.80132l-1.99002,2.32169l-0.14582,-0.12499l-0.24975,0.50288c-0.57729,0.29987 -5.77855,3.04901 -6.3939,3.17554c-3.20936,0.6599 -7.64047,0.07357 -10.96515,0.07357c-0.06395,0 -0.1278,-0.00016 -0.19153,-0.00047c-3.70578,1.33515 -7.54116,2.27366 -11.37935,1.2739c-1.5196,-0.39582 -3.06144,-0.98442 -4.27311,-1.98328c-0.89006,-0.73373 -1.08436,-2.0145 -1.47469,-3.14787c-1.38616,-0.72682 -4.37323,-2.21544 -5.35912,-0.99309c-0.49006,0.6076 -0.53893,1.36111 -0.38397,2.11499c0.23201,-0.06357 0.47626,-0.09751 0.72844,-0.09751c1.15647,0 2.14622,0.71386 2.55261,1.72497l0.97503,2.27508l-0.01567,0.00671l0.02869,0.02418c0.18742,0.46856 0.38681,0.93272 0.59031,1.39536c0.61531,0.58544 0.81803,1.61489 1.36992,2.29797c0.95916,1.18717 2.12854,2.19436 3.08173,3.38634c1.12289,1.4042 3.66593,2.67074 3.13572,4.38875c-0.01277,0.04137 -0.0264,0.08248 -0.04087,0.12335c2.03068,0.25981 4.18705,0.15193 5.98919,0.37729c2.21575,0.27708 5.13907,-0.51066 6.59363,1.18361c1.71794,2.00105 -1.88835,8.10574 -3.66861,9.0116c-3.95634,2.01312 -8.11076,-1.21357 -10.84248,-3.53065c-3.6297,-2.05128 -8.08796,-4.57917 -10.82174,-7.77372c-0.7514,-0.87805 -2.88467,-5.00501 -3.25327,-6.43978c-0.22381,-0.87118 0.08547,-1.84653 -0.23099,-2.68849c-0.85773,-2.28198 -3.65382,-3.66673 -5.48773,-5.46044c-0.23822,1.93251 -0.86676,3.83351 -0.87214,5.78121c-0.00133,0.47992 0.00685,0.94483 0.01331,1.39839c0.17492,0.42205 0.32199,0.81313 0.4366,1.15951c0.73486,1.2111 1.44655,2.42592 1.98069,3.66067c1.20317,2.78136 2.47566,5.48676 3.72022,8.21396l0.04374,-0.04374l2.66667,2.66667c0.49765,0.49765 0.80546,1.18515 0.80546,1.94454c0,0.11769 -0.00739,0.23366 -0.02174,0.34746c0.7058,0.19334 1.29826,0.66084 1.65578,1.28089l1.83452,3.05753c0.82543,0.72871 1.54258,1.42596 1.96689,1.97822c0.84474,1.09945 0.85329,3.00987 2.11692,3.58051c1.42711,0.64447 3.13176,0.00658 4.69764,0.00539c2.63164,-0.00201 5.04617,-0.23461 7.46937,0.45576c1.14462,-1.36176 3.08735,-1.41392 6.36486,1.26852c1.1662,0.95446 0.54014,2.97719 0.57961,4.48366c0.0639,2.43893 -0.37094,4.68172 -1.03763,6.87539h0.04045v3.33333c0,1.51878 -1.23122,2.75 -2.75,2.75c-1.20154,0 -2.22311,-0.77059 -2.59745,-1.84452l-0.97024,-2.58731c-0.37244,-0.38256 -0.55865,-0.755 -0.55865,-0.755l-0.62366,-1.8965c0,-1.44219 -0.13235,-3.94709 0.04491,-6.34118c-0.25296,-0.12742 -0.51048,-0.23876 -0.78558,-0.28628c-2.64065,-0.4562 -5.65063,0.28238 -8.32807,0.03992c-4.86182,-0.44027 -5.192,-1.87683 -7.509,-5.04414c-0.05674,0.08521 -0.11377,0.17001 -0.17107,0.25444c0.02738,0.35843 0.0726,0.69997 0.15669,1.00474c2.07804,3.33707 2.6003,7.02817 4.18412,10.57928c0.82939,1.85958 2.43843,3.41985 2.81588,5.42072c0.11868,0.6291 0.19767,1.47664 0.17757,2.39341c2.64673,0.51557 6.07274,1.38437 6.13708,1.48058c0.86462,1.29286 -0.87874,3.02496 -0.8904,4.58025c-0.01344,1.79266 1.85058,4.47574 2.89198,6.37936l0.31338,-0.1741c0.40543,-0.23548 0.87656,-0.37033 1.37919,-0.37033c1.51878,0 2.75,1.23122 2.75,2.75c0,0.75939 -0.3078,1.44689 -0.80546,1.94454v0l-1.69461,1.69461c-0.94528,2.53866 1.81804,8.48659 4.42327,9.79536c0.30327,0.03976 0.60777,0.07102 0.91253,0.09451c0.57445,-0.09395 1.17916,-0.31445 1.54786,0.05431h3.19974c1.51878,0 2.75,1.23122 2.75,2.75c0,1.51878 -1.23122,2.75 -2.75,2.75h-3.33333v-0.00506c-0.03885,-0.00082 -0.07772,-0.00171 -0.11659,-0.00269c-1.23592,0.26461 -2.52864,0.21745 -3.9757,-0.40014c-1.3839,-0.25345 -2.74106,-0.63361 -4.03017,-1.16495c-0.11776,-0.04854 -0.23459,-0.09781 -0.35049,-0.14781c-1.1426,0.75293 -2.54837,0.19063 -2.54837,0.19063l-1.98086,-0.81605c-2.41954,-1.35732 -5.3904,-2.66653 -6.83539,-5.26759c-0.55209,-0.9938 -0.01622,-2.28462 -0.21661,-3.40368c-0.23345,-1.30363 -0.54743,-2.60394 -0.88006,-3.90497c-0.24718,-0.15433 -0.47582,-0.33355 -0.67697,-0.54982c-2.64567,-2.8446 -2.09077,-5.21435 -2.13879,-8.61121v-2.66667c0,-0.48535 0.12573,-0.94133 0.34641,-1.33715c-3.37785,-1.57007 -3.31291,-6.84726 -4.87267,-9.60383c-0.53995,1.10136 -1.11999,2.1638 -1.56233,3.09803c-0.44293,0.93549 -0.95943,2.34747 -1.58637,3.56584c0.23664,0.68399 0.60284,2.42942 -1.3452,3.40344c-0.68504,0.34252 -1.27469,0.39886 -1.76894,0.30185l-0.51635,0.51635l-0.57471,-0.57471c-0.81165,0.38401 -1.63883,0.74507 -2.42221,1.17084l-0.82827,-2.54067h-0.86935v-0.66527c-0.65382,-0.24887 -1.26758,-0.5333 -1.78437,-0.86206l-0.39265,0.22437c-0.41148,0.24534 -0.89244,0.38629 -1.40631,0.38629c-1.51878,0 -2.75,-1.23122 -2.75,-2.75c0,-0.5506 0.16181,-1.0634 0.44048,-1.49345l1.6442,-2.63071l0.0502,0.03138c0.05365,-0.1135 0.11056,-0.22574 0.17104,-0.33661c0.3585,-0.65721 0.89346,-1.1738 1.48438,-1.64734zM253.6239,156.61162c-0.17778,-0.51786 -0.35282,-1.03499 -0.5304,-1.55105l-0.18437,0.50702c0.12552,0.22838 0.22043,0.46787 0.28817,0.71675c0.1392,0.11334 0.2818,0.22124 0.4266,0.32727zM233.86954,86.95279c1.46117,-0.17639 3.05255,-0.22501 4.50788,-0.26169c-0.85356,-0.49622 -1.82924,-0.90088 -2.44863,-1.62765c-0.22145,-0.25985 0.11398,-1.17993 -0.18105,-1.00812c-0.51589,0.30044 -0.4559,1.11939 -0.82104,1.59171c-0.34207,0.44249 -0.69883,0.87468 -1.05717,1.30575zM239.46943,100.78394c0.15424,0.0708 0.31312,0.13533 0.47617,0.19405c0.03287,-0.03143 0.06623,-0.05547 0.09968,-0.06852c0.4529,-0.17668 0.91965,-0.32421 1.39402,-0.43936c-0.56818,-0.21705 -1.14626,-0.45051 -1.70751,-0.6915c-0.05888,0.33369 -0.19021,0.67097 -0.26236,1.00532zM226.56736,111.8616c1.01547,-1.38679 1.9768,-2.79911 3.30547,-3.93153c0.78042,-0.66515 2.04575,-0.59912 2.78207,-1.31278c0.19274,-0.18681 -1.14536,-3.47166 -1.5277,-4.12959c0.00271,0.05005 0.00408,0.10045 0.00408,0.15117c0,1.20154 -0.77059,2.22311 -1.84452,2.59745l-2.60655,0.97746l-0.02698,-0.07193l-0.12101,0.12268c-0.66395,0.16672 -1.32362,0.34822 -1.98022,0.53991c-0.72804,0.45902 -1.60353,0.62849 -2.49293,0.77138c-3.01057,0.97228 -5.98879,2.03765 -9.05539,2.74172c-3.47061,0.79682 -7.08132,1.21145 -10.495,2.28755c-3.91325,1.23359 -7.58818,3.33909 -11.2349,5.16215c-3.70062,1.85 -8.99504,3.09105 -12.07254,5.93327c-3.76677,3.4788 -2.24788,7.62442 -3.84227,12.02663c-0.0205,0.10337 -1.34931,6.12705 -0.93072,6.19992c4.33231,0.75423 8.36278,-4.20275 11.60574,-6.01885c4.00435,-2.24249 8.29693,-4.68138 12.57549,-6.4548c0.76306,-0.89074 1.5293,-1.76988 2.55907,-2.28267c2.35261,-1.1715 5.36522,-1.56794 7.62067,-3.10747c1.52218,-1.03901 2.44733,-2.78388 3.89636,-3.92268c2.66254,-2.09252 5.4361,-3.29581 8.57937,-4.4712l0.20327,0.02743l-0.01684,-0.07577l1.60693,-0.3571l0.45629,-0.60839l0.05279,0.03959c0.04198,-0.08715 0.08556,-0.17367 0.13083,-0.25953c0.4629,-0.8779 1.60776,-1.7858 2.86914,-2.574zM249.24649,106.73003c0.20793,0.238 0.41008,0.48487 0.61351,0.73016c0.0952,-0.2474 0.20728,-0.49349 0.33754,-0.73798h-0.14959c-0.264,0 -0.53131,0.00287 -0.80146,0.00782zM223.60397,101.23158l0.78023,-0.24007c-0.00601,-0.02342 -0.01173,-0.04696 -0.01713,-0.07061c-0.25425,0.10361 -0.50861,0.2072 -0.7631,0.31068z"></path><path d="M205.04826,284.30676l-1.69662,0.39862c-1.74517,0.17387 -3.81053,0.55314 -5.80527,1.16169c-0.63346,0.38949 -1.21354,0.76744 -1.66036,1.15063c-2.08982,1.79218 -4.35891,3.88163 -5.30666,6.45535c0.57498,0.36329 1.02539,0.82629 1.18045,1.45218c0.11368,0.45886 0.13821,0.9191 0.10156,1.3803h0.26993v2.66667v0c0,1.51878 -1.23122,2.75 -2.75,2.75c-0.84174,0 -1.59515,-0.37818 -2.09959,-0.9739l-1.60108,-1.86792c-0.36172,-0.27398 -0.59875,-0.62542 -0.75408,-0.96837c-1.32631,0.08514 -2.59661,-0.49702 -3.08593,-2.5541c-0.48877,-2.0548 1.30787,-4.03412 2.25859,-5.92018c1.26543,-2.5104 3.27007,-4.46469 5.64162,-5.9684c-0.28013,-0.4308 -0.44287,-0.94496 -0.44287,-1.49713c0,-0.1867 0.01861,-0.36906 0.05406,-0.54531l0.65425,-3.59839c1.18378,-7.10005 2.19799,-14.01039 4.05408,-20.90888c0.82624,-3.07088 1.34788,-6.64323 1.95017,-9.78109c0.2274,-1.18473 -0.22195,-2.56117 0.3958,-3.59735c0.08553,-0.14346 0.1743,-0.28454 0.266,-0.42346l-0.08404,-0.04202l0.50996,-1.01993c-0.27562,-0.40128 -0.49271,-0.79227 -0.63604,-1.1474c-0.44993,-1.11482 -0.13737,-2.40094 -0.16425,-3.60284c-0.10099,-4.51604 1.23727,-7.87832 2.05048,-12.19118c0.8349,-4.42787 1.37801,-8.70323 1.88765,-13.05404c-0.00613,-2.28179 -0.06143,-4.56796 0.48374,-6.7803c0.16833,-0.68313 0.38011,-1.36971 0.62491,-2.05703c0.35226,-2.28243 0.86628,-5.40141 1.08844,-5.76919c0.05604,-0.09277 0.1132,-0.18475 0.17141,-0.27597l-0.05353,-0.0247l1.97403,-4.27707c0.42347,-0.97331 1.39369,-1.65386 2.52286,-1.65386c0.45098,0 0.8766,0.10856 1.25216,0.30096c0.46785,-0.06488 1.01596,0.00851 1.64434,0.3227c2.45967,1.22984 1.22984,3.68951 1.22984,3.68951c-0.44982,0.89963 -0.94859,1.83055 -1.45722,2.78198c-0.29932,1.78599 -0.92577,3.51053 -1.32438,5.2797c-1.12236,4.98137 -0.39504,10.35607 -1.33899,15.35709c-0.15893,0.84203 -0.81037,1.53105 -1.00785,2.36488c-0.44618,1.88389 -0.18169,7.61094 -0.26432,8.61992c-0.05324,0.65017 -0.19367,1.28615 -0.36595,1.91711c0.38237,0.71141 0.38237,1.44948 0.38237,1.44948l-0.01682,0.36298c0.32442,2.92014 2.2041,9.9202 -1.51118,11.76727c-0.03735,0.01857 -0.07485,0.03631 -0.11249,0.05324c-0.23992,1.871 -0.57213,3.71795 -0.81466,5.6116c0.02727,1.84961 0.05027,3.69897 -0.23585,5.56993c-0.06443,0.42131 -0.12626,0.84528 -0.18659,1.27133c-0.05783,2.68396 -0.09316,5.36246 -0.48185,8.07502c-0.30693,2.14203 -0.47698,4.30221 -0.64587,6.45951c-0.02842,0.36298 -0.3249,1.14973 -0.36339,1.87423c1.15934,0.2905 2.24157,1.01961 3.31664,1.56735c0.26964,0.13738 0.56971,0.29258 0.89263,0.4628c0.6032,0.04029 1.21134,0.13043 1.8205,0.39473c1.2447,0.54004 2.27304,1.51478 3.24485,2.56698c1.4284,0.94836 2.69119,1.93135 3.36733,2.79355c0.01911,0.02437 0.03804,0.04885 0.0568,0.07345l0.0138,-0.01656l1.98387,1.65322c0.61399,0.50435 1.00563,1.26947 1.00563,2.12605c0,1.51878 -1.23122,2.75 -2.75,2.75c-0.51388,0 -0.99483,-0.14095 -1.40631,-0.38629l-2.2914,-1.30937l0.05799,-0.10148l-0.26209,-0.02735c-0.22447,-0.18715 -0.48772,-0.45578 -0.77738,-0.7733c-0.88237,-0.5479 -1.57595,-1.58989 -2.4667,-2.16727c-0.22301,-0.14455 -0.47147,-0.31514 -0.73947,-0.50362c-0.61829,0.6459 -1.44766,0.85324 -1.44766,0.85324z"></path><path d="M334.01689,211.69321l-0.2006,-0.11559c-3.57786,-0.97008 -7.08804,-1.55287 -10.5913,-3.11031c-3.65583,-1.62527 -7.56555,-3.52497 -11.1622,-5.38597l-1.95928,0.2799l-0.01731,-0.12118c-0.19057,0.05243 -0.38285,0.09968 -0.57705,0.14113c-1.25252,0.26734 -2.44456,-0.77693 -3.69551,-1.05153c-2.35544,-0.51706 -5.37077,-0.4506 -8.03255,-0.89293c0.02313,0.32308 -0.00439,0.54325 -0.00439,0.54325c-0.53207,4.24887 -1.08778,8.76868 -0.65881,13.05459c0.22569,2.25496 1.08529,4.41405 1.33333,6.66667c0.11237,1.02045 0.18644,2.0543 0.23207,3.09711l0.41542,1.26244c-0.08281,0.41507 -0.15884,0.83184 -0.23076,1.24962c0.00324,0.76469 -0.0373,1.54142 -0.10916,2.31472c0.48247,0.10115 0.85079,0.3045 1.13196,0.55601c0.61638,0.51843 0.81784,1.24768 0.87717,1.77853c0.03001,0.21058 0.03001,0.34589 0.03001,0.34589l-0.01338,2.39569c0.65482,3.27412 0.35187,6.09116 0.66894,9.35735c0.82105,8.45788 0.77185,16.85559 0.34162,25.37158c-0.11244,2.22555 0.28176,5.21557 0.13584,7.87119c0.29594,0.27815 0.53026,0.62111 0.6803,1.00621c0.79895,-0.05689 1.61172,-0.08421 2.43668,-0.08536c0,0 2.75,0 2.75,2.75c0,2.75 -2.75,2.75 -2.75,2.75c-1.41286,-0.00215 -2.70069,0.01557 -3.92023,0.15321l-0.99894,1.74815c-0.46685,0.85329 -1.37292,1.43197 -2.41415,1.43197c-0.18149,0 -0.35887,-0.01758 -0.53054,-0.05113c-0.07781,0.72477 0.0304,1.22302 0.27536,1.56021c0.02816,-0.00093 0.05626,-0.00218 0.0843,-0.00376c2.65756,-0.15028 5.35518,-0.33606 8,-0.66667l0.17088,0.06864v-0.07396h2.66667v0v0c1.51878,0 2.75,1.23122 2.75,2.75c0,1.18042 -0.74373,2.18712 -1.78815,2.5771l-3.27386,1.30954l-0.00615,-0.01538c-0.50217,0.54054 -1.21918,0.87873 -2.01517,0.87873h-2.66667c-4.59462,0 -15.36733,2.00055 -16.41384,-4.95872c-0.17343,-1.15331 0.79675,-2.10372 1.63511,-3.05298c-0.09331,-0.0806 -0.1876,-0.16447 -0.28288,-0.25168c-1.62758,-1.48964 -0.35327,-8.53403 -0.35505,-10.81996c-0.00357,-4.5839 0.35761,-9.08081 0.70162,-13.60961c-1.33811,-0.18581 -2.36828,-1.33446 -2.36828,-2.72372v-2.55362c-0.02013,-0.18489 -0.04297,-0.36903 -0.06836,-0.55248c-0.23294,-0.39539 -0.26985,-0.85273 -0.22979,-1.33439c-1.01377,-4.95057 -3.65757,-9.44685 -4.64195,-14.32197c-0.11031,-0.54631 -0.15002,-2.40135 -0.04766,-4.20116c-0.79647,-0.34109 -1.57503,-0.66204 -1.60735,-1.41309c-0.08043,-1.86897 1.62359,-3.39559 2.73389,-4.90117c0.28237,-0.38289 0.58828,-0.752 0.91237,-1.11054c-0.01821,-0.09334 -0.03526,-0.18613 -0.05116,-0.27825c-0.26412,-1.53029 1.02331,-2.96156 1.85242,-4.27462c1.44273,-2.28486 5.52095,-5.67934 9.13934,-6.16548c-0.26967,-1.08813 -0.53392,-2.17692 -0.64504,-3.28892c-0.46919,-4.69535 0.09359,-9.62324 0.67452,-14.27874c0,0 0.12585,-1.00679 0.8362,-1.72085c-0.67408,-0.51778 -1.27816,-1.13062 -1.76997,-1.80942c-0.51063,-0.70478 -0.05878,-1.85156 -0.58537,-2.5445c-0.55796,-0.73423 -1.59828,-0.92042 -2.39742,-1.38062l-0.07237,-0.14229l-0.04282,0.05139l-1.98387,-1.65322c-0.61399,-0.50435 -1.00563,-1.26947 -1.00563,-2.12605c0,-0.47649 0.12119,-0.92468 0.33442,-1.31543c-0.73268,-0.41593 -1.68085,-1.30406 -1.25231,-3.01821c0.66697,-2.66789 3.33486,-2.00092 3.33486,-2.00092c4.68421,1.17105 9.88639,1.98812 14.35832,3.78284c5.31287,2.13221 10.20143,5.69385 15.45248,8.05117c4.60695,2.06816 8.52987,4.0491 12.35573,6.64985c1.49728,0.66798 3.04572,1.23188 4.62186,1.73648c1.77319,-0.00758 3.4997,0.68095 5.22425,1.1162c1.67396,0.42248 3.27552,1.00163 4.82878,1.68514c1.12609,0.32061 2.24143,0.65851 3.33768,1.02962c5.24489,1.77555 9.89204,5.19415 14.99424,7.46297c6.18268,3.12622 13.42959,3.77293 20.0376,5.88087c3.73569,1.19168 7.16248,3.30673 10.89056,4.52702c0.22025,0.0144 0.76463,0.07756 1.30293,0.35459c3.7361,0.78072 8.62735,-0.02551 12.26192,-0.02551h3c1.51878,0 2.75,1.23122 2.75,2.75c0,1.41573 -1.0698,2.58159 -2.4451,2.73329l-5.27372,0.65921c-5.25021,1.77665 -12.18783,0.69083 -17.69785,0.69083c-3.2652,0 -7.46868,0.65506 -10.63182,-0.07357c-2.36324,-0.54437 -6.2292,-3.63526 -7.97582,-4.59996c-7.55167,-4.17098 -15.1761,-7.95842 -22.64622,-12.15003c-1.06063,0.40687 -2.16275,-0.06547 -2.16275,-0.06547l-2.27476,-0.97569c-2.14011,-0.8019 -4.40635,-1.98202 -6.61782,-2.77932c-0.77905,-0.0367 -1.38852,-0.38497 -1.38852,-0.38497zM379.67906,227.45902c-1.06579,-0.2974 -2.13103,-0.59548 -3.19532,-0.89427c0.58522,0.33143 1.19898,0.5921 1.86269,0.73102c0.44061,0.09222 0.88524,0.14202 1.33263,0.16325zM292.84187,228.01622c0.00543,0.00569 0.01085,0.0114 0.01627,0.01711c0.10398,-0.43917 0.23271,-0.86903 0.39185,-1.28706c-0.00086,-0.04871 -0.00177,-0.0974 -0.00274,-0.14608c-0.13756,0.47212 -0.27368,0.94478 -0.40537,1.41602z"></path><path d="M305.4636,129.61972c-2.07218,2.63473 -5.92444,11.0691 -11.10804,7.52005c-0.32964,-0.22569 -0.5648,-0.52302 -0.73065,-0.86895c-0.29942,-0.31733 -0.59588,-0.69561 -0.88776,-1.14106c-1.11365,-1.69965 -0.07542,-4.10521 0.38809,-6.08365c0.52248,-2.23012 2.16484,-4.03788 3.19083,-6.08575l0.09465,-0.08043c0.00124,-0.00394 0.0025,-0.00793 0.00378,-0.01195l-0.03188,-0.01993l0.08649,-0.13839c0.11805,-0.31771 0.33851,-0.77407 0.7204,-1.15265l0.83453,-1.33525c0.48119,-0.79869 1.35683,-1.33288 2.35723,-1.33288c1.44437,0 2.62867,1.11353 2.74125,2.52895l0.03842,0.42263c0.36771,-0.18238 0.78205,-0.28492 1.22033,-0.28492c1.51878,0 2.75,1.23122 2.75,2.75c0,0.3266 -0.05693,0.6399 -0.16142,0.93052l-1.31303,3.9391l-0.18059,-0.0602z"></path></g><path d="M188.63219,304.76235c-3.98618,0.33218 -4.31836,-3.654 -4.31836,-3.654l-0.51036,-6.16595c-0.00629,-4.85644 -0.25901,-9.72539 3.59659,-13.42128c1.37999,-1.32282 2.77821,-2.76006 4.53825,-3.50604c0.00655,-0.00278 0.01314,-0.00544 0.01976,-0.00798c-0.07852,-1.19503 0.34194,-2.51607 0.34194,-3.73093c0,-4.33333 0,-8.66667 0,-13c0,0 0,-4 4,-4c4,0 4,4 4,4c0,5.78391 0.85604,12.27997 0,18c-0.26916,1.79854 0.04538,3.97705 -1.17157,5.32843c-1.01784,1.13027 -3.05906,0.35648 -4.46673,0.93266c-3.4675,1.4193 -2.86102,6.27768 -2.86516,9.07268l0.48964,5.83405c0,0 0.33218,3.98618 -3.654,4.31836z" fill-opacity="0.1098" fill="#f6d1ff"></path><path d="M199.80001,246.77617c-4,0 -4,-4 -4,-4v-0.5c0.03146,-6.53167 0.29507,-13.36478 1.57768,-19.78446c0,0 0.78446,-3.92232 4.70679,-3.13786c3.92232,0.78446 3.13786,4.70679 3.13786,4.70679c-1.17739,5.88054 -1.45987,12.23751 -1.42232,18.21554v0.5c0,0 0,4 -4,4z" fill-opacity="0.1098" fill="#f6d1ff"></path><path d="M356.30001,215.27617c0,4 -4,4 -4,4l-1.1576,-0.05442c-4.36448,-0.74961 -4.75041,-0.60661 -9.74653,-2.92786c-2.91069,-1.35234 -5.64554,-4.81342 -8.62661,-5.8222c-1.11633,-0.37776 -2.39309,-0.09547 -3.5,-0.5c-0.82956,-0.30317 -1.31946,-1.2364 -2.14069,-1.56147c-1.02474,-0.40562 -5.6077,-0.95625 -6.79278,-1.252c-2.27862,-0.56866 -4.49255,-1.37782 -6.77027,-1.95006c-6.5627,-0.83977 -10.51893,-3.38735 -16.15296,-6.40529c-1.76816,-0.94714 -3.76177,-1.77507 -5.6019,-2.74402c-0.66948,1.68599 -1.7981,3.24131 -3.22182,4.29503c-1.28807,0.95332 -3.18845,0.34076 -4.78885,0.42229c-2.14652,0.10936 -4.90681,0.24894 -7.53822,0.02813l-2.86289,0.81797l-0.14285,-0.49996c-0.6806,0.27248 -1.38735,0.44811 -2.13384,0.47653c-0.3664,0.01395 -2.71024,-2.42755 -4.84697,-4.74127c-1.41794,-1.11162 -2.62121,-2.471 -3.62074,-3.99482c-0.02698,-0.03021 -0.04392,-0.04914 -0.05001,-0.05584l0.00413,-0.01445c-2.53644,-3.90406 -3.74537,-8.87202 -3.80861,-13.51628c0,0 0,-4 4,-4c4,0 4,4 4,4c-0.03236,1.65675 0.17213,3.45605 0.64992,5.16775c0.79932,0.23951 1.49352,0.72227 1.99664,1.36232l1.97692,2.47115l-0.08643,0.06914c0.11211,0.08942 0.22292,0.18064 0.33229,0.27382c0.74048,0.63083 0.70705,1.8282 1.24132,2.6411c0.08372,0.12737 0.16599,0.23755 0.24773,0.33302c0.40549,0.14941 0.83243,0.26646 1.28139,0.34751l0.28618,0.26926l0.0596,-0.149l0.67656,0.27062c0.01952,0.00282 0.03918,0.00576 0.059,0.00882c2.38895,0.36887 4.5542,0.245 6.87754,0.34395c0.54851,-2.13167 1.8326,-4.22318 3.61248,-5.4872c1.37447,-0.9761 3.3704,-0.54172 5.04528,-0.35012c2.08615,0.23866 5.4488,2.49644 7.131,3.40113c5.84441,3.14312 10.17846,6.28242 16.84704,7.09471c4.8742,1.21359 10.77232,2.04509 15.43695,3.79794c0.73353,0.27564 1.12242,1.17199 1.85931,1.43853c1.10824,0.40087 2.39951,0.07832 3.5,0.5c3.34514,1.28176 6.14471,4.66189 9.37339,6.1778c3.47796,1.63296 4.0781,1.56344 7.25347,2.07214l-0.1576,-0.05442c0,0 4,0 4,4z" fill-opacity="0.1098" fill="#f6d1ff"></path><path d="M285.03508,241.98144c3.79473,-1.26491 5.05964,2.52982 5.05964,2.52982l0.38185,1.18923c1.24355,2.9175 2.24818,4.82176 2.78476,8.02087c0.3261,1.94421 -0.32796,3.96804 -0.01299,5.91408c0.64197,3.96635 1.3927,7.3443 1.03218,11.53488c-0.0454,0.52777 -0.14612,1.04443 -0.28106,1.55438c0.06412,1.90347 0.1288,3.80221 0.2869,5.72155c0.22466,2.7275 -0.35633,5.21315 -0.58449,7.70844c0.5695,0.836 1.26534,1.65439 2.05181,2.92413c1.2632,2.0394 4.26546,4.12908 3.37468,6.35649c-0.97884,2.44759 -4.57812,3.16999 -7.2132,3.24177c-3.64183,0.09921 -5.93449,-5.82289 -6.53348,-8.09664c-0.29495,-1.11962 -0.30247,-2.24123 -0.1759,-3.36418c-0.41607,-1.50009 -0.69143,-2.96098 -0.89216,-4.11016c-0.00431,-0.89498 -0.04999,-6.05125 0.05056,-6.54362c0.31574,-1.54621 1.11493,-2.91883 1.59188,-4.39174c-0.0355,-1.20656 -0.07535,-2.41853 -0.14833,-3.64601c-0.31132,-5.236 -1.82226,-10.51573 -2.47684,-15.75241c0,0 -0.16026,-1.28206 0.43004,-2.47998c-0.22541,-0.50841 -0.44504,-0.99417 -0.63751,-1.44048l-0.61815,-1.81077c0,0 -1.26491,-3.79473 2.52982,-5.05964z" fill-opacity="0.1098" fill="#f6d1ff"></path><path d="M291.30001,228.77617l-1.28446,-0.07768c-0.77824,-0.16225 -1.54637,-0.3674 -2.30602,-0.6038c0.56233,1.07761 0.81118,2.17111 0.30355,3.16914c-3.70375,7.28179 -9.99963,1.77556 -12.68834,-0.81414c-0.78298,-0.75415 -0.94812,-2.01991 -1.75412,-2.74942c-1.02926,-0.93158 -2.65466,-1.07815 -3.59903,-2.09568c-1.29818,-1.39875 -2.1593,-3.17459 -2.91759,-4.92581c-0.96482,-2.22818 -1.40442,-8.29965 0.90718,-9.64759c2.15656,-1.25754 5.09278,-0.00288 7.44177,0.84237c2.3117,0.83183 3.37514,3.64414 5.44546,4.96689c1.35812,0.86772 3.01073,1.15155 4.50695,1.75048c2.01406,0.90768 4.05803,1.85471 6.22913,2.26291l-0.28446,-0.07768c0,0 2.12383,0 3.27636,1.54757c0.22536,-0.031 0.46622,-0.04757 0.72364,-0.04757c4,0 4,4 4,4c0,2.83085 -0.15678,5.45012 0.42232,8.21554l0.07768,2.28446c0,0 0,4 -4,4c-4,0 -4,-4 -4,-4l0.07768,-0.71554c-0.47909,-2.48064 -0.56463,-4.84045 -0.57735,-7.28447c-0.00022,0 -0.00033,0 -0.00033,0z" fill-opacity="0.1098" fill="#f6d1ff"></path><path d="M239.80001,172.77617c-4,0 -4,-4 -4,-4v-2.5c0.14076,-1.42962 -0.22015,-3.00398 0.42229,-4.28885c0.64244,-1.28487 2.11847,-1.94076 3.17771,-2.91115c0,0 3.2,-2.4 5.6,0.8c2.4,3.2 -0.8,5.6 -0.8,5.6c-0.2741,0.02962 -0.699,-0.15773 -0.82229,0.08885c-0.12329,0.24659 0.28153,0.4741 0.42229,0.71115v2.5c0,0 0,4 -4,4z" fill-opacity="0.1098" fill="#f6d1ff"></path><path d="M245.40492,117.86241c0.25253,2.09109 0.91157,4.02542 1.60676,6.01914c0.61517,0.59658 1.09519,1.23216 1.04942,2.03292c-0.01584,0.2772 -0.04616,0.55117 -0.08917,0.82231c0.05521,0.17859 0.10943,0.35834 0.16243,0.53939h0.16565v4c0,2.20914 -1.79086,4 -4,4c-2.20914,0 -4,-1.79086 -4,-4v-2.57432c-0.01328,-0.0442 -0.02658,-0.08829 -0.03989,-0.13225c-1.34123,-0.4991 -2.21997,-3.3072 -2.9305,-4.11447c-0.60888,-0.69178 -1.67397,-0.93354 -2.17458,-1.70728c-1.02222,-1.57994 -1.86045,-3.33148 -2.27334,-5.16741c-0.32897,-1.46275 -0.02075,-10.57249 0.60604,-11.54678c0.60322,-0.93764 1.67174,-1.63896 2.91757,-2.113c0.35518,-0.32685 0.8158,-0.62106 1.40914,-0.85839c1.46355,-0.58542 2.58106,-0.36339 3.39797,0.1206c0.6848,0.0353 1.31802,0.13532 1.8525,0.29857c3.06005,0.93466 5.63357,4.51815 7.80776,6.72424l1.79009,1.34256c0.99271,0.72787 1.63724,1.90263 1.63724,3.22793c0,2.20914 -1.79086,4 -4,4c-0.25,0 -0.49464,-0.02293 -0.73193,-0.06681l-2.92567,-0.48761l0.04172,-0.25033c-0.35835,0.00271 -0.71718,-0.019 -1.07661,-0.07095c-0.06878,-0.00994 -0.13629,-0.02268 -0.20261,-0.03805z" fill-opacity="0.1098" fill="#f6d1ff"></path></g></g></svg>