<svg version="1.1" xmlns="http://www.w3.org/2000/svg" xmlns:xlink="http://www.w3.org/1999/xlink" width="166.3" height="22.9" viewBox="0,0,166.3,22.9"><g transform="translate(-143.67,-169.33)"><g fill="#ff0000" stroke="none" stroke-width="0.5" stroke-miterlimit="10"><path d="M281.02,177.38c0,0.5 -0.5,0.5 -0.5,0.5h-0.2c-2.98461,0 -5.78093,0.31643 -8.68757,0.9872c0,0 -0.4872,0.11243 -0.59963,-0.37477c-0.11243,-0.4872 0.37477,-0.59963 0.37477,-0.59963c2.98027,-0.68775 5.85229,-1.0128 8.91243,-1.0128h0.2c0,0 0.5,0 0.5,0.5z"></path><path d="M264.62,172.18c0,0.5 -0.5,0.5 -0.5,0.5l-0.04189,-0.02566c-1.2364,0.41213 -2.39773,0.40486 -3.67591,0.61886c0,0 -0.4932,0.0822 -0.5754,-0.411c-0.0822,-0.4932 0.411,-0.5754 0.411,-0.5754c1.22987,-0.20409 2.34306,-0.18747 3.52409,-0.58114l0.35811,-0.02566c0,0 0.5,0 0.5,0.5z"></path><path d="M269.02,187.78c0,0.5 -0.5,0.5 -0.5,0.5l-0.67735,-0.08397c-0.65296,-0.47132 -1.706,-0.52335 -2.52265,-0.51603c0,0 -0.5,0 -0.5,-0.5c0,-0.5 0.5,-0.5 0.5,-0.5c1.07772,0.00791 2.16888,0.11031 3.07735,0.68397l0.12265,-0.08397c0,0 0.5,0 0.5,0.5z"></path><path d="M299.22,179.58c0,-0.27614 0.22386,-0.5 0.5,-0.5c0.27614,0 0.5,0.22386 0.5,0.5c0,0.27614 -0.22386,0.5 -0.5,0.5c-0.27614,0 -0.5,-0.22386 -0.5,-0.5z"></path><path d="M180.82,172.58c0,0.5 -0.5,0.5 -0.5,0.5c-0.6,0 -1.4,0 -2,0c0,0 -0.5,0 -0.5,-0.5c0,-0.5 0.5,-0.5 0.5,-0.5c0.6,0 1.2,0 1.8,0h0.2c0,0 0.5,0 0.5,0.5z"></path><path d="M190.64566,182.13811c-0.15811,-0.47434 0.31623,-0.63246 0.31623,-0.63246l0.6,-0.2c0.80843,-0.26136 1.51299,-0.22566 2.35811,-0.22566c0,0 0.5,0 0.5,0.5c0,0.5 -0.5,0.5 -0.5,0.5c-0.72951,0 -1.35115,-0.06491 -2.04189,0.17434l-0.6,0.2c0,0 -0.47434,0.15811 -0.63246,-0.31623z"></path><path d="M170.02,188.58c0,-0.5 0.5,-0.5 0.5,-0.5l0.51991,0.00646c1.7951,-0.61969 3.7812,-0.77784 5.52198,-1.3808c0,0 0.47434,-0.15811 0.63246,0.31623c0.15811,0.47434 -0.31623,0.63246 -0.31623,0.63246c-1.8165,0.58727 -3.81379,0.81593 -5.67802,1.4192l-0.68009,0.00646c0,0 -0.5,0 -0.5,-0.5z"></path><path d="M157.62,179.98c0,-0.27614 0.22386,-0.5 0.5,-0.5c0.27614,0 0.5,0.22386 0.5,0.5c0,0.27614 -0.22386,0.5 -0.5,0.5c-0.27614,0 -0.5,-0.22386 -0.5,-0.5z"></path><path d="M185.27,182.78c0,-0.25 0.25,-0.25 0.25,-0.25h0.1c0.66008,0.00094 1.24478,-0.19704 1.9,-0.2c0,0 0.25,0 0.25,0.25c0,0.25 -0.25,0.25 -0.25,0.25c-0.64949,-0.00337 -1.2404,0.19913 -1.9,0.2h-0.1c0,0 -0.25,0 -0.25,-0.25z"></path><path d="M170.07,173.78c0,-0.25 0.25,-0.25 0.25,-0.25c0.5,0 1.1,0 1.6,0c0,0 0.25,0 0.25,0.25c0,0.25 -0.25,0.25 -0.25,0.25c-0.5,0 -1,0 -1.5,0h-0.1c0,0 -0.25,0 -0.25,-0.25z"></path><path d="M153.67,191.98c0,-0.25 0.25,-0.25 0.25,-0.25l0.34338,0.0065c1.4515,-0.73941 3.60117,-1.59991 5.25662,-1.6065c0,0 0.25,0 0.25,0.25c0,0.25 -0.25,0.25 -0.25,0.25c-1.63571,-0.00741 -3.69455,0.90207 -5.14338,1.5935l-0.45662,0.0065c0,0 -0.25,0 -0.25,-0.25z"></path><path d="M209.47,179.98c0,-0.25 0.25,-0.25 0.25,-0.25h0.3c1.31126,0 2.60613,-0.1975 3.9,-0.2c0,0 0.25,0 0.25,0.25c0,0.25 -0.25,0.25 -0.25,0.25c-1.29091,-0.00273 -2.59064,0.2 -3.9,0.2h-0.3c0,0 -0.25,0 -0.25,-0.25z"></path><path d="M145.97,174.58c0,0.25 -0.25,0.25 -0.25,0.25c-0.46667,0 -1.33333,0 -1.8,0c0,0 -0.25,0 -0.25,-0.25c0,-0.25 0.25,-0.25 0.25,-0.25c0.46667,0 0.93333,0 1.4,0h0.4c0,0 0.25,0 0.25,0.25z"></path><path d="M292.77,169.57952c0.00048,0.25 -0.24952,0.25048 -0.24952,0.25048l-0.07187,0.00014c-1.5842,0.00304 -2.74779,0.3582 -4.25993,0.79024c0,0 -0.24038,0.06868 -0.30906,-0.1717c-0.06868,-0.24038 0.1717,-0.30906 0.1717,-0.30906c1.54798,-0.44228 2.77112,-0.80635 4.39633,-0.80948l0.07187,-0.00014c0,0 0.25,-0.00048 0.25048,0.24952z"></path><path d="M288.97,180.18c0,0.25 -0.25,0.25 -0.25,0.25c-0.13333,0 -0.46667,0 -0.6,0c0,0 -0.25,0 -0.25,-0.25c0,-0.25 0.25,-0.25 0.25,-0.25c0.13333,0 0.26667,0 0.4,0h0.2c0,0 0.25,0 0.25,0.25z"></path><path d="M285.97,186.78c0,0.25 -0.25,0.25 -0.25,0.25h-0.2c-0.83852,0 -1.64288,-0.00435 -2.46063,-0.20746c0,0 -0.24254,-0.06063 -0.1819,-0.30317c0.06063,-0.24254 0.30317,-0.1819 0.30317,-0.1819c0.77585,0.19532 1.54327,0.19254 2.33937,0.19254h0.2c0,0 0.25,0 0.25,0.25z"></path><path d="M258.87,179.98c0,-0.25 0.25,-0.25 0.25,-0.25c0.83333,0 1.96667,0 2.8,0c0,0 0.25,0 0.25,0.25c0,0.25 -0.25,0.25 -0.25,0.25c-0.83333,0 -1.66667,0 -2.5,0h-0.3c0,0 -0.25,0 -0.25,-0.25z"></path><path d="M309.47,178.38c0,-0.13807 0.11193,-0.25 0.25,-0.25c0.13807,0 0.25,0.11193 0.25,0.25c0,0.13807 -0.11193,0.25 -0.25,0.25c-0.13807,0 -0.25,-0.11193 -0.25,-0.25z"></path></g></g></svg>