<svg version="1.1" xmlns="http://www.w3.org/2000/svg" xmlns:xlink="http://www.w3.org/1999/xlink" width="143.43184" height="268.93154" viewBox="0,0,143.43184,268.93154"><g transform="translate(-176.86667,-30.71671)"><g stroke="none" stroke-width="0.5" stroke-miterlimit="10"><path d="M192.95,135.55001c1.07852,0.7263 2.87107,1.62042 4.68513,2.61763c2.28494,1.25607 4.60398,2.6757 5.57323,4.12958c0.74292,1.11439 -0.01083,3.53131 -0.3114,4.73643c-1.33093,5.33625 -3.42346,9.95744 -5.03505,15.04577c-1.53147,4.8354 -2.42882,10.85503 -0.05839,15.37928c1.04982,2.0037 6.91578,1.41028 6.64647,6.25798c-0.52218,9.39915 -15.17421,5.66219 -20.05575,2.55575c-1.47907,-0.94123 -2.85863,-2.65991 -4.14016,-3.75836c-1.70354,-1.46018 -2.78223,-5.29316 -2.80409,-7.46406c-0.10211,-10.14338 -0.52551,-17.42604 4.17456,-25.98083c0.26897,-0.48956 6.24039,-12.51937 8.33468,-12.63572z" fill="#30152f"></path><path d="M190.836,187.77064c-0.19627,0.01573 -0.39349,0.02307 -0.59184,0.02057c-1.08516,-0.01369 -1.89522,-1.06012 -2.86971,-1.53776c-2.95558,-1.44866 -4.9444,-2.70874 -7.14292,-4.70804c-0.18252,-0.1377 -0.34855,-0.28858 -0.4912,-0.45561c-0.31813,-0.30072 -0.64225,-0.6178 -0.97577,-0.95389l-0.03973,-0.39771l-0.1625,0.09285l-1.30937,-2.2914c-0.24534,-0.41148 -0.38629,-0.89244 -0.38629,-1.40632c0,-0.814 0.35366,-1.5454 0.91572,-2.04891l-0.19499,-1.07244c-0.03546,-0.17625 -0.05407,-0.35861 -0.05407,-0.54531c0,-1.51879 1.23121,-2.75 2.75,-2.75c1.0004,0 1.87604,0.53419 2.35723,1.33288l1.64143,2.62629l-0.04391,0.02745l0.11046,0.08487c0.12824,0.25968 0.25777,0.51298 0.38909,0.76033c1.96721,0.24832 4.21678,-0.78287 5.92601,0.20635c1.1159,0.64583 1.85083,1.99916 2.39524,3.40956c0.75109,0.03178 1.4945,0.09485 2.22446,0.21894c1.69997,0.28897 4.29065,-0.26475 5.00596,1.30424c0.86168,1.89004 -0.53789,4.26388 -1.67487,6.00227c-1.34503,2.0565 -5.00705,2.61039 -7.28156,2.19349h-0.38286v-0.08269c-0.03083,-0.00776 -0.06132,-0.01571 -0.09146,-0.02387c-0.00752,-0.00204 -0.01503,-0.00408 -0.02254,-0.00614z" fill="#422341"></path><path d="M198.11667,165.92501c0.18964,0.36442 3.19372,0.58726 3.90592,0.90724c2.08775,0.93799 4.6987,2.78785 5.27491,5.09268c1.83246,7.32982 -7.4057,13.56053 -13.42209,8.40363c-5.28887,-4.53332 -8.80244,-9.98597 -8.09207,-17.27856c0.18706,-1.92035 5.61519,-9.00924 8.12127,-8.32576c0.4406,-0.11373 0.9026,-0.17424 1.37873,-0.17424c3.03757,0 5.5,2.46243 5.5,5.5c0,0.82519 -0.18173,1.60794 -0.50735,2.3104c-0.42232,0.91107 -1.08668,1.6871 -1.91053,2.24553c-0.31142,0.47657 -0.45452,0.92372 -0.24879,1.31906z" fill="#997a99"></path><path d="" fill="#e5c1e4"></path><g><g><path d="M205.47641,262.67251c0,0 0,-0.76963 0.53496,-1.23898h-1.06595c-0.87978,0 -1.59297,-0.71319 -1.59297,-1.59297c0,-0.87978 0.71319,-1.59297 1.59297,-1.59297h2.12396v0.0074c0.49097,-0.26638 0.98717,-0.4987 1.47775,-0.74784c-0.04488,-0.07884 -0.0867,-0.16558 -0.12484,-0.26092c-0.59162,-1.47904 0.88742,-2.07065 0.88742,-2.07065l2.06034,-0.79318c0.10041,0.02972 0.20083,0.05945 0.30124,0.08917v-0.11792h1.08554c0.26025,-1.12097 0.5205,-2.24195 0.78075,-3.36292c0.02556,-0.11007 0.04834,-0.22105 0.06874,-0.3328c0.01775,-2.3605 0.27976,-4.78392 0.65,-7.19104l0.65781,-0.56767l-0.29161,-0.13879l1.59639,-2.41609c0.68087,-1.07378 1.90796,-1.83188 3.13611,-1.83188c0.44459,0 0.84291,0.09935 1.17885,0.27705c0.69578,-0.9997 1.8693,-1.69302 3.04381,-1.69302c1.5159,0 2.49392,1.15498 2.29519,2.63296l-0.07891,0.65179c0.69684,-0.70514 1.64835,-1.1608 2.60049,-1.1608h0.00004c0.23415,0 0.45546,0.02756 0.66158,0.0796c0.23237,-0.31955 0.48255,-0.61055 0.75355,-0.86585c0.02447,-0.02304 0.04918,-0.04575 0.07415,-0.06812l-0.01721,-0.01291l1.05086,-1.40114c0.28987,-0.39534 0.75771,-0.65202 1.2855,-0.65202c0.87978,0 1.59297,0.71319 1.59297,1.59297c0,0.23491 -0.05085,0.45795 -0.14215,0.6587c0.17949,-0.02552 0.36899,-0.03922 0.56901,-0.03922c2.92045,0 2.24242,2.92045 2.24242,2.92045c-1.32435,5.7044 -1.75073,14.07691 -5.90795,19.16787c-1.42346,1.74319 -3.04829,2.95819 -4.7035,3.66479c-1.7215,7.33983 -3.7292,14.35548 -6.09369,21.63921c-0.17913,0.55182 -0.37078,1.50024 -0.59055,2.54389l1.79311,2.88909c-0.61869,1.79332 -0.25382,4.14439 -1.85609,5.37997c-1.27017,0.97949 -2.80892,0.31778 -4.27979,0.08014c-0.998,0.65453 -2.07553,0.65453 -2.07553,0.65453c-3.30394,0 -8.37785,0 -11.68178,0c-1.01427,0 -1.5945,-0.35225 -1.91984,-0.81208c-0.35951,-0.4321 -0.55806,-1.09412 -0.32259,-2.10837l0.16437,-0.70799c0.93142,-4.01192 1.86284,-8.02385 2.79427,-12.03577c0,0 0.03034,-0.13067 0.10582,-0.33672l0.22801,-0.72558c1.59567,-3.24814 2.54197,-6.76968 3.35695,-10.27294c0,-2.01054 0,-5.28299 0,-7.42644c0,-0.12179 0,-0.23993 0,-0.35399z" fill="#e5c1e4"></path><path d="M215.26078,298.41727c-1.32748,0 -1.01929,-1.32748 -1.01929,-1.32748l0.16437,-0.70799c0.21916,-0.94398 0.43831,-1.88797 0.65747,-2.83195c0,0 0.3082,-1.32748 1.63567,-1.32748c1.32748,0 1.01928,1.32748 1.01928,1.32748c-0.21916,0.94398 -0.60268,2.59595 -0.82185,3.53993c0,0 -0.30819,1.32748 -1.63566,1.32748z" fill="#316a70"></path><path d="M208.85558,296.49611l-0.0188,0.23967c0.21916,-0.94398 0.43832,-1.88797 0.65748,-2.83195c0,0 0.30819,-1.32748 1.63566,-1.32748c1.32748,0 1.01929,1.32748 1.01929,1.32748c-0.21916,0.94398 -0.43832,1.88797 -0.65748,2.83195l-0.53715,0.94766c0,0 -0.86933,1.18734 -1.91883,0.59367c-1.04951,-0.59367 -0.18019,-1.78099 -0.18019,-1.78099z" fill="#316a70"></path><path d="M204.51931,297.79778l0.20546,-0.88498c0.12327,-0.53099 0.24655,-1.06198 0.36982,-1.59297c0,0 0.3082,-1.32748 1.63567,-1.32748c1.32748,0 1.01928,1.32748 1.01928,1.32748c-0.12327,0.53099 -0.45201,1.94696 -0.57529,2.47795c0,0 -0.30819,1.32748 -1.63566,1.32748c-1.32748,0 -1.01929,-1.32748 -1.01929,-1.32748z" fill="#316a70"></path></g><g><path d="M260.48608,284.80001v-0.55805c-0.70654,-0.86723 -1.19986,-1.99085 -1.84576,-3.17377c-0.94783,-1.73591 -1.38234,-4.06866 -2.32533,-5.6523c-0.09257,-0.15545 -0.18637,-0.31088 -0.2811,-0.46641c-0.22115,-0.2263 -0.42981,-0.46213 -0.61712,-0.71446c-2.53032,-3.40857 -4.79272,-7.53187 -6.09656,-11.80791c-0.49769,-0.24816 -1.07003,-0.4661 -1.73947,-0.6854c-1.40146,-3.20844 -0.86676,-4.87379 0.64059,-7.06923c0.06254,-0.18872 0.16273,-0.33231 0.279,-0.44156c0.0296,-0.0315 0.06172,-0.06182 0.09658,-0.09053c0.24937,-0.34534 0.51908,-0.70644 0.80584,-1.09039l0.15238,-0.1584c-0.30366,-0.57817 -1.20337,-0.9975 -1.0529,-1.62516c0.2983,-1.24438 3.43753,-2.34205 4.22951,-3.2106c0.68044,-0.74623 0.40896,-2.01672 0.92434,-2.88519c0.04029,-0.06789 1.04128,-1.32323 1.83001,-2.30972v-0.06093c0,-2.40762 0.0717,-4.47847 0.67603,-6.8194c0,-4.80195 4.17309,-11.00344 7.73679,-14.10885c2.53858,-2.21212 5.98956,-3.02666 8.90331,-4.50138c1.53557,-0.77719 3.10751,-3.19097 4.99826,-3.15204c3.27019,0.06733 4.14855,4.94587 4.51468,7.14524c0.00851,3.5346 0.52573,7.51631 -0.33897,10.96567c0.67656,0.30725 0.67656,1.13743 0.67656,1.13743l-0.16341,0.66169c0.36591,0.56173 0.03144,1.23066 0.03144,1.23066c-1.02686,2.05371 -2.29978,3.76846 -3.76098,5.40803c-0.51182,0.96357 -1.0433,1.89132 -1.64904,2.72439c-0.24549,0.33763 -0.60188,0.63485 -0.9948,0.92223c-1.20707,1.76489 -2.15184,3.63974 -3.14064,5.46271c-0.07115,0.53953 -0.20521,1.06025 -0.48483,1.53949c-0.72662,1.24534 -1.7623,2.48475 -2.88853,3.57651c-0.20794,0.23553 -0.42382,0.46621 -0.64867,0.6915l-0.08808,0.08808c-0.50517,2.04197 -1.09233,4.71839 -0.57924,6.74085c0.3404,1.34175 1.52301,2.55689 1.96578,3.88152c0.72314,2.1634 0.7574,4.40304 1.90736,6.45993c0.83636,1.49595 1.96598,2.69942 2.905,4.07335c1.24308,0.34937 1.76145,0.74461 2.15813,1.28905h0.18049c0.46169,-0.2078 0.99044,-0.22472 1.81169,0.09515c0.41313,0.16092 0.55176,0.73642 0.92604,0.96166c0.05174,0.02345 0.10254,0.04748 0.15232,0.07218c0.67271,0.28636 1.20043,0.40443 1.65633,0.53768c0.36817,0 0.78696,0 0.78696,0c0.69036,0 1.25,0.55964 1.25,1.25c0,0.11879 -0.01657,0.23371 -0.04752,0.34257c0.08097,0.13156 0.16375,0.27503 0.24889,0.43175l0.08117,0.54885c0.019,0.06074 0.02652,0.09835 0.02652,0.09835c0.33659,1.71266 0.35761,3.1729 0.35761,4.91181v1.33333c0,0.15799 -0.02931,0.30913 -0.08279,0.44828c-0.04935,0.14526 -0.12813,0.3044 -0.25387,0.44233c0.00219,0.03536 0.00332,0.07181 0.00332,0.10939c0,1.25 -1.25,1.25 -1.25,1.25c-5.04018,0 -9.99644,0.33333 -15,0.33333c-0.98685,0 -3.66513,0.32114 -4.62114,-0.17084c-3.33359,0.44879 -2.9622,-4.22554 -2.9622,-6.41249z" fill="#e5c1e4"></path><path d="M280.34079,291.98589c-1.18585,-0.39528 -0.79057,-1.58114 -0.79057,-1.58114l0.26919,-0.60472c0,-0.44444 0,-0.88889 0,-1.33333c0,0 0,-1.25 1.25,-1.25c1.25,0 1.25,1.25 1.25,1.25c0,0.44444 0,0.88889 0,1.33333l-0.39748,1.39528c0,0 -0.39528,1.18585 -1.58114,0.79057z" fill="#316a70"></path><path d="M275.40274,292.38336c-1.25,0 -1.25,-1.25 -1.25,-1.25c0,-0.44444 0,-2.22222 0,-2.66667c0,0 0,-1.25 1.25,-1.25c1.25,0 1.25,1.25 1.25,1.25c0,0.44444 0,0.88889 0,1.33333v1.33333c0,0 0,1.25 -1.25,1.25z" fill="#316a70"></path><path d="M270.73608,293.05001c-1.25,0 -1.25,-1.25 -1.25,-1.25c0,-0.88889 0,-2.11111 0,-3c0,0 0,-1.25 1.25,-1.25c1.25,0 1.25,1.25 1.25,1.25c0,0.88889 0,1.77778 0,2.66667v0.33333c0,0 0,1.25 -1.25,1.25z" fill="#316a70"></path></g><path d="M213.43696,216.7248c7.87294,-2.39475 15.78674,-5.53497 23.97665,-6.69214c16.56553,-2.31756 33.25684,-6.80726 50.0587,-6.81571c4.81959,-0.00041 10.40845,-0.77541 15.1142,0.37042l0.672,1.09726c0.0661,0.08231 0.12199,0.17317 0.16576,0.27065l0.10908,0.1781c0,0 0,0.0595 -0.01298,0.15253c0.00855,0.05903 0.01298,0.1194 0.01298,0.1808v1.81791c0.02904,6.37137 3.69463,14.83013 1.71163,21.45199c0.06238,2.15679 -0.05391,4.50441 -0.44245,5.45871c-0.89848,2.20682 -2.75337,2.45093 -4.62684,3.38942c-3.47948,1.73974 -7.08096,1.85849 -10.72266,1.38994c-4.19002,0.38961 -9.10799,0.12033 -13.25869,-1.21575c-1.58938,-0.01979 -3.17338,-0.10132 -4.73707,-0.33323l-0.09059,0.041c-1.51371,1.10501 -2.86601,1.33807 -4.24968,2.59808c-2.89912,2.64002 -5.88775,5.92649 -9.87979,6.95182c-3.49716,0.89822 -7.66808,0.36677 -11.28719,0.36677c-4.5493,0 -8.17905,-0.78735 -12.53356,-1.68281c-0.52678,-0.10833 -1.12662,0.1537 -1.61146,-0.07901c-0.61031,-0.29294 -0.89578,-1.04325 -1.47085,-1.40043c-1.18768,-0.73768 -2.37459,-1.50566 -3.56778,-2.28063c-0.68444,0.00654 -1.36247,0.03546 -2.02651,0.10347c-1.80791,0.18514 -3.11791,1.32486 -4.92294,1.65661c-5.65555,1.03944 -12.53173,0.01999 -18.28884,0.013c-3.29574,-0.46721 -8.75942,-0.34511 -10.39957,-4.10183c-0.11846,-0.27133 -0.09515,-2.66524 -0.09515,-3.14502c0,-2.87359 0.06024,-5.66146 0.3427,-8.48606c0.13955,-1.39552 -0.31824,-2.5784 0.53261,-3.87204c0.40312,-0.6129 0.94532,-1.11921 1.47382,-1.63599c0.1233,-0.52162 0.60142,-0.76302 0.80173,-0.84283c0.14051,-0.16694 0.27266,-0.34028 0.39241,-0.52312c0,0 0.69338,-1.04006 1.73344,-0.34669c0.10135,0.06757 0.18625,0.13843 0.25692,0.2113c5.60775,-1.46995 11.33351,-2.56243 16.86998,-4.24648zM302.12086,233.90696c0.13989,-0.14436 0.24557,-0.3042 0.30386,-0.48285c-0.03453,0.03245 -0.06966,0.06414 -0.10535,0.09513z" fill="#316a70"></path><g><path d="M270.60001,51.48337c0,-1.51811 1.31695,-1.71927 1.66596,-1.74593c1.43693,-0.39958 2.85242,-0.89541 4.2641,-1.40369l1.48504,-1.32003c0.11117,-0.09974 0.23518,-0.18546 0.36924,-0.25438c1.41401,-1.95392 2.35117,-4.10549 3.7129,-6.49421c0,0 0.09246,-0.16181 0.26984,-0.34964c0.16651,-0.50457 0.61778,-1.28313 1.80802,-1.17492c1.74281,0.15844 1.58438,1.90125 1.58438,1.90125c-0.49294,5.42237 -1.36104,10.77452 -4.46102,15.36633l-0.27053,0.10876l0.06314,0.08118l-1.48769,1.15709c-0.29851,0.23679 -0.67609,0.37821 -1.08671,0.37821c-0.9665,0 -1.75,-0.7835 -1.75,-1.75c0,-0.10937 0.01003,-0.2164 0.02923,-0.32022l0.17698,-1.06187l-0.21194,0.03729l0.03836,0.07671l-1.63518,0.81759c-0.24319,0.12803 -0.52019,0.2005 -0.81411,0.2005c-0.9665,0 -1.75,-0.7835 -1.75,-1.75c0,-0.24378 0.04985,-0.47592 0.13991,-0.68678l0.04229,-0.10571l-0.43219,0.0425c0,0 -1.75,0 -1.75,-1.75z" fill-opacity="0.97647" fill="#ad4eac"></path><path d="M282.40137,67.57434c0,0 0,-0.00001 -0.00001,-0.00003h0.00002zM282.19106,67.61705c-0.00282,0.02354 -0.0063,0.04687 -0.01041,0.06999c0.73585,0.33362 1.70201,0.40987 2.13778,1.07886c1.91229,2.93573 -1.68008,5.97617 -3.76691,7.12988c-4.48779,2.48108 -11.96277,2.6456 -16.97876,3.20385c-14.49204,1.60919 -29.01549,3.77329 -43.43732,5.93656c0,0 -0.14365,0.02155 -0.34037,0.00098c-2.56996,2.22986 -4.53028,-2.62385 -5.0725,-4.00077c-0.01387,-1.84029 -0.77042,-3.72199 0.12535,-5.49287c0.24497,-0.48428 0.75095,-0.77723 1.14514,-1.15777c0.11253,-0.15199 0.23334,-0.29722 0.36019,-0.43748c1.6141,-2.34727 2.43168,-4.89557 4.49859,-6.88403c-0.0968,-0.17753 -0.15181,-0.38112 -0.15181,-0.59756c0,-0.11436 0.01536,-0.22513 0.04412,-0.33036l0.32653,-1.30614l0.04781,0.01195l-0.00749,-0.14247c1.44625,-2.85849 2.98078,-3.14804 5.40901,-3.15872l0.20429,-0.31941c0.74285,-2.86313 2.07785,-3.27583 4.28625,-3.33122c1.61534,-1.43469 3.53879,-2.42805 5.05559,-3.97418l0.4753,-0.14296c1.9068,-1.93826 3.98953,-4.76037 6.57846,-6.151c0.12368,-0.32278 0.36136,-0.50454 0.58982,-0.60689c0.73001,-0.48429 1.40168,-1.08117 2.2114,-1.41162c0.37588,-0.1534 0.85504,0.22495 1.21721,0.04152c0.56072,-0.284 0.76542,-1.064 1.33333,-1.33333c1.03485,-0.49079 2.19205,-0.63278 3.3986,-0.62204c1.72001,-1.03641 3.97675,-1.71324 6.09525,-2.3397l0.56343,-0.56343c0.37656,-0.86781 0.9597,-1.54201 2.73974,-1.19534c0.95219,0.18544 1.46819,1.54461 1.60418,2.88042c0.6969,-0.36972 1.39787,-0.70867 2.1233,-0.88828c2.7201,-0.67346 3.779,-0.02305 4.20386,2.54989c-0.04994,0.39661 -0.10581,0.7445 -0.17536,1.04813c0.57185,-0.03967 1.06534,-0.01174 1.34358,0.10724c0.54219,0.23184 0.86291,0.77288 1.21042,1.27653c0.09023,0.02648 0.17341,0.06289 0.24832,0.10367c0.21777,0.09145 0.44895,0.25325 0.58534,0.53948c2.57777,3.15502 6.63633,6.38372 8.32392,10.03567c1.31837,2.85296 1.45534,5.52855 1.46335,8.55594h0.00041v1.48788c0.13317,0.15099 0.2003,0.2843 0.20136,0.28641zM277.80343,57.0802c0.00581,0.00396 0.01161,0.00793 0.01741,0.0119c-0.00896,-0.01445 -0.01796,-0.02889 -0.02699,-0.04333c0.00335,0.01057 0.00654,0.02105 0.00958,0.03143z" fill="#e5c1e4"></path><path d="M241.80464,57.6605c-1.25447,0.55492 -2.74724,0.74558 -4.08923,0.46148c-0.86759,-0.18367 -1.35153,-1.14931 -2.00283,-1.75117c-1.56716,-1.44821 -3.99027,-2.94867 -4.29199,-5.26648c-0.19779,-0.19085 -0.37968,-0.38902 -0.5427,-0.59494c-3.50893,-4.43235 -2.0112,-12.8237 -2.0112,-18.04268c0,0 0,-1.75 1.75,-1.75c1.75,0 1.75,1.75 1.75,1.75v0.05145c1,0.41014 1,1.61521 1,1.61521c-0.21439,2.14097 0.97162,1.89641 2.29603,3.5897c1.33785,1.71048 2.92155,4.71473 4.66332,6.00484c2.70519,2.00372 4.94101,2.70666 5.36803,6.59445c0.10027,0.91289 -0.06744,5.13822 -0.32436,5.50092c-0.5934,0.83771 -1.79031,0.99935 -2.79938,1.28334c-0.22303,0.2308 -0.47329,0.42454 -0.76567,0.55387z" fill-opacity="0.97647" fill="#ad4eac"></path></g><path d="M199.23568,176.33182c-1.89917,-1.35536 -0.69389,-4.51571 0.50516,-6.60551c-2.01386,-0.10827 -4.64167,1.05873 -6.24987,-0.66087c-1.6861,-1.8029 -0.74947,-3.77474 0.6161,-5.3298l-0.32089,-0.25671l1.32468,-1.65585c0.27463,-0.34938 0.70109,-0.57378 1.17996,-0.57378c0.02687,0 0.05358,0.00071 0.0801,0.0021c0.12622,-0.09991 0.2617,-0.19668 0.40452,-0.28912c-0.91804,-0.34362 -1.77574,-0.79674 -2.45718,-1.40433c-1.68169,-1.49942 -2.44634,-4.1268 -2.8362,-6.2049c-0.90903,-4.84551 -1.02458,-9.33788 -1.02458,-14.27042c0,-14.54165 -1.0416,-29.47761 1.01508,-43.8788c0,0 0.16314,-1.14198 1.20475,-1.27994c0.1912,-0.14936 0.35596,-0.21997 0.35596,-0.21997c4.05675,-1.73382 7.33329,-4.51742 11.20245,-6.60288c5.70323,-3.07403 12.10767,-5.09659 17.66625,-8.3331c2.52126,-1.46802 4.71843,-3.52857 7.22548,-5.03984c2.32153,-1.39944 4.88112,-2.24915 7.32623,-3.39165c4.29887,-1.08102 8.21933,-2.95686 12.37327,-4.34694c3.12112,-1.04445 6.48197,-1.94877 9.43221,-3.56773c1.40263,-0.7697 2.66158,-1.82854 4.15454,-2.40376c3.51446,-1.35409 7.93778,-1.75981 11.59346,-2.40831c2.57706,-0.45716 3.23321,0.41739 5.54993,-0.97264c5.90622,-0.15552 11.8254,-0.05443 17.73373,-0.05443l1.37115,0.6875c0.1761,0.05336 0.32933,0.13883 0.45452,0.2279l0.00638,0.0032c0,0 0.08472,0.05648 0.19529,0.16208c0.11157,0.10455 0.17266,0.186 0.17266,0.186c0.00456,0.00632 0.00911,0.01264 0.01366,0.01897c0.03344,0.04265 0.06651,0.08872 0.09798,0.13808c2.61782,3.73678 2.94693,8.10353 3.82796,12.45929c0.42519,2.10214 1.36938,4.24655 1.67923,6.40894c0.72429,5.05462 0.34783,10.42109 0.34783,15.54139c-0.00386,1.35117 0.10251,3.11284 -0.49958,4.35304c-0.43484,0.89569 -1.27443,1.63103 -2.07503,2.39618c-0.78277,1.6051 -1.60584,3.17703 -2.42419,4.74781c0.00613,2.64423 0.04007,5.41088 0.19788,8.1471c0.84925,1.97493 1.79709,3.92823 2.40058,5.91256c0.40064,1.31732 0.72871,2.67927 1.01182,4.06534c-0.40358,2.95701 -0.63719,5.88991 -1.17341,8.82614l-0.88577,1.47628c-0.04561,0.0731 -0.0851,0.15042 -0.11775,0.23123c-0.23522,0.54353 -1.22989,2.72444 -1.60688,4.01863l-0.88785,0.66589c-0.37227,0.27295 -0.61397,0.71349 -0.61397,1.21047c0,0.82843 0.67157,1.5 1.5,1.5c0.11144,0 0.22004,-0.01215 0.32455,-0.0352l1.31153,-0.26231c1.11683,2.05922 1.20803,4.88982 1.19726,7.13084v1.66667c0,0.04442 0.00193,0.08839 0.00571,0.13182c-0.00431,0.28808 -0.00571,0.57753 -0.00571,0.86818c0,0.16487 -0.03958,4.36074 0.11418,4.57403c0.05328,0.07391 0.10594,0.14584 0.15799,0.21582c-0.23924,0.50693 -0.4906,1.00866 -0.75911,1.50299c2.37489,2.85142 4.99548,5.20693 7.44165,7.98522c2.03604,2.31248 3.20303,4.90298 4.55498,7.65506c0.92035,1.87351 2.64181,2.82191 3.40541,4.83128c1.19818,3.15295 2.08274,7.14143 2.09238,10.51827c0,3.06149 0.40491,6.54491 -0.01937,9.57361c-0.30258,2.15994 -1.01111,2.38516 -1.74934,4.30351c-2.90752,7.55546 -8.55932,13.42599 -15.18756,18.00641c-2.69796,1.86441 -6.34144,2.69842 -9.30348,4.16914c-2.30212,0.67513 -2.38121,2.10883 -4.72198,3.02162c-5.80689,2.26441 -12.2377,4.18462 -18.32604,5.74668l-1.53387,0.01021c-3.43998,1.54854 -7.01392,3.50191 -10.54837,4.60182c-6.65305,2.07042 -13.72016,2.77599 -20.55215,3.68413c-2.5693,0.34152 -4.57769,1.03619 -7.22449,1.04954c-4.66403,0 -9.51457,0.49564 -14.09306,1.31396c-1.38353,0.24728 -2.61106,1.11849 -4,1.33333c-1.88429,0.29146 -3.88464,-0.15181 -5.78322,0.01426c-3.60604,0.31543 -7.3736,1.4808 -11.01739,2.00134l-1.77979,0.00319c-0.30839,0.06482 -0.59843,0.00218 -0.82265,-0.08511c-0.23202,-0.07267 -0.5008,-0.20696 -0.70182,-0.45512c-7.81989,-6.4483 -9.4448,-16.02407 -7.94937,-25.86613c0.75576,-4.974 2.6473,-9.10586 2.6473,-14.09306v-0.33333c0,0 0,-1.5 1.5,-1.5c0.06789,0 0.13271,0.00307 0.19459,0.00894c1.33183,-3.15505 2.03016,-6.32842 3.43705,-9.45676c0.60246,-1.33963 1.00391,-2.77184 1.69835,-4.06618c1.02694,-1.91406 1.78996,-1.89025 2.22089,-3.7067c0.65669,-2.76806 1.82183,-5.97653 3.25688,-9.00993c-0.28304,-0.18131 -0.44129,-0.44281 -0.52957,-0.68685z" fill="#ad4eac"></path></g><g fill-opacity="0.23529" fill="#2f152f"><path d="M261.48161,149.80721c3.1132,-1.65006 6.70823,-2.38009 10.37267,-2.91648c0.10016,-0.02831 0.20025,-0.05675 0.30027,-0.08533c0,0 0.36931,-0.10552 0.84636,-0.07677c3.70999,-0.50881 7.44697,-0.89734 10.78641,-1.91326c1.40421,-0.42719 3.83997,-2.28953 4.98912,-2.86397c1.80567,-0.90263 3.74035,-1.52936 5.54894,-2.42614l0.25793,0.01946l-0.02301,-0.09204l2.61772,-0.65443c0.18942,-0.05177 0.38881,-0.07942 0.59466,-0.07942c1.24264,0 2.25,1.00736 2.25,2.25c0,0.6887 -0.30942,1.30512 -0.79682,1.71785l-2.26204,1.93889c-0.71039,0.96928 -1.56951,1.86656 -2.87553,2.83522c-3.02555,2.24401 -7.07544,3.06453 -10.54794,4.2897c-6.75808,2.3844 -13.82887,4.85052 -20.89893,6.12591l-0.20206,-0.07136v0.08045h-2.33333v0c-1.24264,0 -2.25,-1.00736 -2.25,-2.25c0,-0.20028 0.02617,-0.39444 0.07527,-0.57927c-0.82582,-0.33319 -1.4086,-1.14224 -1.4086,-2.0874c0,-1.03554 0.69957,-1.90769 1.65188,-2.16963l3.28492,-0.98547l0.00136,0.00453c0.00692,-0.00369 0.01385,-0.00737 0.02078,-0.01104z"></path><path d="M290.76022,171.64174c-1.00623,-2.01246 1.00623,-3.01869 1.00623,-3.01869l-0.158,0.37134c0.81587,-1.13618 1.79518,-2.15347 2.75381,-3.18033c0.62172,-0.96869 2.20656,-3.14253 2.40786,-3.53766c0.94466,-1.85425 0.87367,-2.54862 1.16946,-4.58172l0.21809,-0.2275l-0.11973,-0.05131l0.97957,-2.28567c0.33251,-0.82727 1.1423,-1.41134 2.0885,-1.41134c1.24264,0 2.25,1.00736 2.25,2.25c0,0.09515 -0.00591,0.18892 -0.01737,0.28096l-0.04716,0.42444c0.41121,0.03274 0.86374,0.20764 1.32805,0.62973c1.66487,1.51351 0.15135,3.17838 0.15135,3.17838c-2.78006,3.044 -4.568,5.906 -6.77958,9.38125l-0.02188,0.01417l0.00871,0.00581l-1.31398,1.97096c-0.40062,0.62033 -1.09809,1.03096 -1.89147,1.03096c-0.35947,0 -0.69924,-0.0843 -1.00064,-0.2342c-0.12895,0.06166 -2.03983,0.93439 -3.01182,-1.00957z"></path><path d="M227.48563,80.94306c-0.80528,0.47545 -1.65163,0.88403 -2.56785,1.18434c-1.13445,0.69835 -2.19411,1.47271 -2.96362,2.62259c-1.73716,2.59581 -2.52092,5.7999 -5.29669,7.60844c-1.13236,0.73778 -2.31062,1.03497 -3.3093,1.57398c-0.16486,1.34851 -0.1944,2.75235 -0.3352,3.9198c0.00118,0.03179 0.00181,0.06267 0.00199,0.09251l0.00772,0.02412c0,0 0,0.08467 -0.01643,0.22117c-0.01066,0.13707 -0.02727,0.22009 -0.02727,0.22009c-0.44792,2.19667 -1.2139,4.30096 -1.97574,6.39579c-0.07064,3.39099 -0.27969,6.96359 0.31342,10.24183c0.23643,1.30679 0.61977,2.78685 1.0616,4.24981c1.60741,0.00936 3.21785,-0.08219 4.81557,-0.23193c3.62535,-0.33976 7.2219,-1.22839 10.90073,-1.47928c5.36934,-0.36619 10.78708,-0.27371 16.16705,-0.52712c2.07874,-0.22938 4.18502,-0.11447 6.26556,-0.32693c1.15469,-0.11792 5.64234,-1.43862 6.38025,-1.61632c5.54981,-1.3365 11.33398,-2.69113 16.71206,-4.57576c0.88114,-0.30878 1.55523,-1.0794 2.44169,-1.37256c2.32693,-0.76955 5.19361,-1.0572 7.61002,-1.73971l1.98947,-0.22601c1.25451,-0.96212 2.50486,-1.92557 3.76202,-2.86855c0,0 1.8,-1.35 3.15,0.45c1.35,1.8 -0.45,3.15 -0.45,3.15c-0.95751,0.71806 -1.91122,1.44647 -2.86564,2.17667c-0.00835,0.02039 -0.01701,0.04053 -0.02596,0.0604c-0.22996,0.6246 -0.72322,0.96895 -1.14633,1.15591c-0.04121,0.02137 -0.06493,0.03191 -0.06493,0.03191c-0.34604,0.15081 -0.68567,0.30925 -1.0194,0.47472c-2.43194,1.84671 -4.89133,3.66153 -7.45195,5.30444c-2.65614,2.38068 -5.1524,4.96575 -7.96927,7.19875c-4.09655,3.24742 -9.33429,4.65613 -13.46895,7.77527c-2.9276,2.20855 -5.65532,4.9924 -8.68865,7.01604c-2.95048,1.96837 -6.52216,3.00122 -9.5161,4.78539c-0.88921,0.52991 -4.95861,4.13635 -5.79146,4.86243c-3.90915,2.43043 -7.26349,5.65892 -11.03358,8.35779l-0.7168,0.76009c0,0 -0.05987,0.05987 -0.168,0.14477c-0.10446,0.08938 -0.17491,0.13635 -0.17491,0.13635c-1.3005,0.86437 -2.47257,1.80314 -3.59319,2.79856c0.555,-0.04007 1.08204,-0.09453 1.53478,-0.20286c3.30059,-0.78981 6.28141,-2.39577 9.52601,-3.29804c3.15649,-0.87776 6.48598,-1.29054 9.67608,-2.06958l0.27491,0.08949v-0.10635h2.33333c0.38342,0 0.74443,0.0959 1.06037,0.26503l2.40416,-0.53426c0.17162,-0.0419 0.35095,-0.06411 0.53547,-0.06411c1.24264,0 2.25,1.00736 2.25,2.25c0,1.0456 -0.71322,1.92462 -1.6797,2.17709l-1.89582,0.54166c-1.85403,1.64026 -3.80173,3.03838 -6.23166,3.66796c-0.38585,0.30869 -1.47254,1.00681 -2.63158,0.20889c-2.57142,1.44696 -5.09478,2.80894 -7.83292,4.09724c-1.67323,0.78726 -3.19551,1.73066 -4.85984,2.40911c-0.51946,0.38651 -1.14071,0.46268 -1.3654,0.4777c-0.43687,0.12591 -0.88728,0.2286 -1.35572,0.30165c-2.94078,0.45859 -5.70877,0.84136 -8.56087,1.43675c-1.62205,1.4448 0.25907,3.30223 2.46294,4.31658c0.96291,0.44319 1.93,0.89722 2.94828,1.19168c8.33521,2.4104 16.45263,3.92368 25.41896,3.92368c4.11927,0.00167 8.21162,0.33338 12.33333,0.33333c2.80262,-0.00003 5.87044,-0.36195 8.64541,0.02175c1.46283,0.20227 3.13951,0.46976 4.88778,0.67619c1.06351,-0.10012 2.12631,-0.21452 3.18773,-0.34723l1.50448,-0.30701c0,0 1.16263,-0.23253 1.96873,0.48398c1.89946,-0.56681 3.78393,-1.24046 5.67969,-1.89646l-0.22787,-0.39064l3.85377,-2.24804c0.34024,-0.20679 0.73968,-0.32588 1.16694,-0.32588c1.24264,0 2.25,1.00736 2.25,2.25c0,0.70084 -0.32043,1.32685 -0.82279,1.7395l-1.9868,1.65567l-0.03392,-0.0407l-0.06033,0.11508c-0.44148,0.29513 -4.21887,2.84105 -4.54313,2.96561c-1.8736,0.71977 -4.02195,1.03196 -6.24635,1.10097c-0.49609,0.13238 -0.97879,0.24594 -1.43762,0.3346c-0.89328,0.17261 -4.15851,-0.03348 -5.31259,0.0416c-1.87888,0.12224 -3.68932,0.78578 -5.56096,0.99091c-3.43172,0.37611 -6.97578,-0.22665 -10.41935,0.00777c-3.68299,0.25072 -6.79054,2.06054 -10.25258,2.93132c-2.46111,0.61902 -4.96131,1.06023 -7.44982,1.66845c-1.80472,0.90251 -4.73347,1.44928 -7.0967,1.90096c-1.30157,1.0423 -2.56918,2.15842 -3.91311,2.69851c-0.10805,0.04342 -0.21879,0.08434 -0.33197,0.12276c0.50192,0.2639 1.00283,0.53127 1.50353,0.7995c4.38081,1.42841 8.66142,3.32347 12.38343,4.48591c0.99321,0.3102 1.83769,0.69686 2.71324,1.01711c0.3302,-0.00067 0.64696,0.05089 0.93689,0.20673c0.1467,0.00424 0.2939,0.00685 0.44163,0.00776h2.90596c0.5474,0 1.04914,0.19548 1.43923,0.52044c1.76314,-0.02438 3.55612,-0.19818 5.16279,-0.48496c2.40909,-0.43001 4.38757,-1.29173 6.46229,-1.48956c0.8659,-0.46336 1.72573,-0.99273 2.60166,-1.64447l0.43633,0.03992l-0.05375,-0.18814l2.28336,-0.65239c0.21107,-0.06554 0.43546,-0.10085 0.66809,-0.10085c1.24264,0 2.25,1.00736 2.25,2.25c0,0.86853 -0.49211,1.62212 -1.21271,1.99715l-3.62654,1.97811l-0.0292,-0.05354c-0.08485,0.06286 -0.17072,0.1245 -0.25769,0.18482c-0.68395,0.47438 -1.47202,0.71424 -2.29953,0.86619c-1.66167,0.78788 -3.38306,1.42227 -5.21683,2.19369c-1.69408,0.25048 -3.4355,0.38735 -5.20182,0.42172c-0.38511,0.30851 -0.87385,0.49303 -1.40568,0.49303h-2.33333c-1.76639,0.50203 -3.75406,0.40203 -5.69204,0.06113c-4.43438,0.06313 -8.94817,0.09202 -13.22014,-0.40789c-2.0349,-0.23813 -3.96203,-1.12309 -6,-1.33333c-2.09041,-0.21565 -4.25115,0.11302 -6.29273,-0.38523c-2.2694,-0.55384 -4.5417,-1.22144 -6.81882,-1.86819c-0.47263,0.75815 -0.83846,1.36228 -0.88213,1.41759c-0.36761,0.46563 -0.89441,0.79427 -1.33476,1.19347c-0.27207,0.38283 -0.53784,0.76953 -0.79685,1.16018c-0.56901,1.4293 -0.59978,3.60702 -0.72495,4.81513c-0.33376,3.22121 -0.78989,5.81742 0.84503,8.66444l1.50839,1.50839c0.40717,0.40717 0.65901,0.96967 0.65901,1.59099c0,1.24264 -1.00736,2.25 -2.25,2.25h-2.66667v-0.10211c-0.16666,0.01549 -0.33408,0.02465 -0.50238,0.02643l-0.28391,1.5615l-0.00609,-0.00111c-0.00069,0.01466 -0.00141,0.02933 -0.00214,0.04399c-0.0529,1.05999 -0.33839,2.10705 -0.69125,3.10798c-0.00296,0.00839 -0.00625,0.01672 -0.00985,0.02498c0.03398,0.02413 0.06883,0.04759 0.10459,0.07038c0.57865,0.36868 1.37702,0.19501 2.0021,0.4779c4.44785,2.01297 8.6832,2.80006 13.72227,2.79221c1.86622,0 3.76257,0.37072 5.59854,0.0361c4.49496,-0.81922 8.75678,-2.80676 13.32165,-3.66452c5.37182,-1.00938 10.794,-1.69092 16.22295,-2.36336c0.74943,-0.29056 1.49788,-0.50743 2.24861,-0.3247c0.03574,0.0087 0.06913,0.01989 0.10034,0.03341c0.05819,-0.00725 0.11638,-0.0145 0.17457,-0.02176v-0.0285h2.66667c0.21837,0 0.42947,0.03111 0.62912,0.08913c1.21922,-0.45425 2.43825,-0.90453 3.66643,-1.30934c1.81934,-0.59967 3.84499,-0.38384 5.65961,-0.99766c2.5005,-0.84583 4.93109,-2.49123 7.59245,-3.06951c2.55378,-0.55491 4.02721,-0.77594 6.56608,-1.86403l2.17481,-0.73313c0,0 0.63486,-0.21162 1.32753,-0.05781c0.42906,-0.27208 0.88461,-0.43772 1.38399,-0.39099c0.10975,0.01027 0.21705,0.02255 0.32193,0.03678c1.88618,-0.96863 3.83055,-1.70989 5.14777,-1.22193c1.47269,0.54555 2.1324,2.39523 2.70493,3.85765c0.39433,1.00724 0.0701,2.1625 0.07538,3.24417c0.01577,3.23247 -1.1523,10.08417 -4.98273,11.16836c-2.853,0.80753 -5.12351,-1.52108 -7.53921,-2.57368c0.12129,0.27644 0.18861,0.58195 0.18861,0.90317c0,0.03375 -0.00074,0.06732 -0.00221,0.10071c0.48628,1.59494 -0.66796,3.08366 -2.38091,4.30964c0.24191,0.35877 0.38313,0.79105 0.38313,1.25631c0,0.79338 -0.41063,1.49085 -1.03096,1.89147l-1.97096,1.31398l-0.03541,-0.05312c-0.08227,0.07486 -0.16713,0.14727 -0.25485,0.21696c-0.12882,0.10234 -0.25524,0.19542 -0.37953,0.28009c-0.95413,1.04404 -2.08454,1.89842 -3.44192,2.45244c-0.3035,0.12387 -4.8217,0.74052 -5.3102,0.80919l-0.1595,-0.06481v0.07048h-0.9131c-0.07152,0.08165 -0.14648,0.15797 -0.22585,0.22724c5.0002,3.06666 -1.30816,6.65715 -5.40515,8.52832c1.00334,1.5805 1.91977,3.1834 2.68562,4.97092c0.95108,4.44353 3.78364,8.42798 5.77901,12.61943l0.03462,-0.06378c0,0 2.13454,-0.71151 2.84605,1.42302c0.23013,0.69038 0.16253,1.2319 -0.03428,1.64864c0.35594,0.29191 0.70865,0.58881 1.0591,0.88911c0.67384,0.00198 1.29503,0.141 1.76497,0.58277c0.3953,0.37162 0.51765,0.873 0.52371,1.42967c0.00047,0.00042 0.00094,0.00083 0.0014,0.00125l1.72255,0.73824c0.75339,0.30281 1.30508,1.00147 1.39761,1.8385h0.4304c1.24264,0 2.25,1.00736 2.25,2.25c0,1.24264 -1.00736,2.25 -2.25,2.25h-3c-2.44785,-0.00382 -6.88268,1.23393 -9.06168,0.0671c-0.00521,-0.00279 -0.01042,-0.00559 -0.01561,-0.0084c-0.9366,0.05614 -1.84152,0.03593 -2.39691,-0.60893c-1.70213,-1.97633 -1.71525,-3.6026 -0.88583,-4.87399c-0.40599,-0.5299 -0.77345,-1.03345 -1.08757,-1.45072c-2.15392,-2.8613 -2.21044,-5.56336 -3.85693,-8.62354c-1.19451,-2.22013 -3.13124,-3.76678 -4.52077,-5.76925c-1.54615,-2.22818 -2.60928,-4.43319 -4.3152,-6.56359c-0.34377,-0.26315 -0.63932,-0.66536 -0.73967,-1.28011c-0.11251,-0.41673 -0.13137,-0.92643 0.13969,-1.44321c0.03102,-0.07482 0.06551,-0.14527 0.10295,-0.21159c-0.39907,-0.9101 -0.09048,-2.41894 1.34567,-4.70648c0.37883,-0.60341 1.05893,-0.84163 1.79866,-1.01186c-1.0526,-1.49407 -0.64715,-3.20641 0.37764,-4.57948c-1.14883,0.42606 -2.68375,0.02714 -3.95258,0.19678c-1.14989,-0.41666 -2.31858,-0.88057 -3.50037,-1.31558c-1.47808,0.01708 -3.01154,-0.65284 -4.31273,-1.31213c-0.07843,-0.01661 -0.1569,-0.03272 -0.23538,-0.04829c-0.19929,-0.03954 -0.55815,-0.08591 -0.99956,-0.13739c-0.43846,1.83448 -1.61791,3.56856 -2.43051,5.18441c-0.6295,1.25176 -0.66725,3.29255 -2.0104,3.69145c-0.84768,0.25175 -1.65869,0.1386 -2.42382,-0.21866c-1.715,0.60902 -3.66579,0.18357 -5.41086,0.33996c-2.59263,0.23234 -4.73139,2.45554 -6.77143,3.85546l-0.08119,-0.01173c-0.38762,0.31658 -0.88278,0.50647 -1.42229,0.50647c-0.06303,0 -0.12545,-0.00259 -0.18717,-0.00767c-0.28619,0.20636 -0.57535,0.40965 -0.86806,0.60942c-0.19989,0.13642 -0.39411,0.28626 -0.59055,0.43229c0.60528,0.03989 1.23544,0.14876 1.80529,0.13829l0.14941,0.08198l0.00929,-0.06502l2.30059,0.32866c1.10787,0.14026 1.96455,1.08612 1.96455,2.23206c0,1.0456 -0.71322,1.92462 -1.6797,2.17709l-1.68269,0.48077c-0.07014,0.20365 -0.13919,0.40763 -0.20722,0.61192c-0.32792,0.25054 -0.49188,0.57847 -0.49188,0.57847l-0.27415,0.55274c-0.18973,-0.17484 -0.45864,-0.31254 -0.83874,-0.36684c-1.48492,-0.21213 -1.69706,1.27279 -1.69706,1.27279c-0.1755,1.24206 -0.3568,2.49283 -0.53249,3.74928c-0.89239,1.25711 -1.74505,2.53462 -2.37314,3.90039c-1.73859,3.78057 -1.10945,8.86446 -1.10945,12.89579c0,0 0,1.5 1.5,1.5c0.06926,0 0.13533,-0.0032 0.19835,-0.0093c0.19436,0.44781 0.45982,0.91502 0.8103,1.40882l0.1025,0.42895c0.12307,0.23688 0.2144,0.52446 0.25801,0.87338c0.10653,0.85221 -0.15291,1.41979 -0.51444,1.79586c-0.30453,0.37601 -0.78344,0.68529 -1.53658,0.72815c-1.15199,0.14832 -3.57848,0.55269 -5.62905,0.58233c-0.18441,0.65324 -0.62823,1.09706 -0.62823,1.09706l-1.64525,0.97497c-1.47827,-0.07084 -3.35804,0.80281 -4.4348,-0.21252c-1.15152,-1.08582 -0.5073,-3.12452 -0.76094,-4.68678c0,0 0,-2.13878 2.08524,-2.24584c0.11569,-0.45178 0.30252,-0.91574 0.51772,-1.41149c-0.03251,-1.99321 0.84482,-4.20746 1.66288,-6.29196c0.10102,-1.0157 0.21159,-2.02928 0.48856,-3.00623c0.53087,-1.87247 1.12857,-3.71015 1.7515,-5.53483c0.31288,-1.93012 0.51297,-3.87861 0.49976,-5.66915c0.47121,-3.35235 0.91557,-5.97489 0.06152,-9.29479l-0.15674,0.80009c0,0 -2.01246,-1.00623 -1.00623,-3.01869c0.71593,-1.43185 1.94123,-1.33557 2.58865,-1.16084c0.13772,-0.345 0.35836,-0.64791 0.6373,-0.88411l2.32223,-1.99048l0.11484,0.13398c0.17764,-0.18956 0.36638,-0.36898 0.56881,-0.53589c0.57292,-0.47242 1.41607,-0.21023 2.20645,-0.0915c-1.17625,-2.336 -0.60624,-5.64041 0.15464,-7.64103c0.06365,-0.16736 0.14186,-0.34172 0.23236,-0.52151c-0.62274,-0.1067 -1.19958,-0.19691 -1.63899,-0.22256c-4.46474,-0.26068 -9.03281,0.00566 -13.50717,0.00566h-2c0,0 -1.94955,0 -2.2192,-1.81473c-0.57618,-0.04465 -1.14004,-0.13251 -1.66257,-0.36526c-3.15933,-1.40726 -3.06119,-2.78495 -4.20618,-5.56495c-0.9739,-2.36459 -2.33005,-5.26136 -2.7926,-7.77027c-0.44019,-2.38764 -0.03599,-5.45187 -0.03044,-7.89429c0.83038,-5.87724 2.15983,-10.91122 3.93028,-16.34722c-0.56689,-0.40854 -0.93594,-1.07448 -0.93594,-1.82661c0,-1.18234 0.91196,-2.15168 2.07084,-2.24297c0.09206,-1.01426 0.0706,-2.05568 0.34606,-3.0312c0.65095,-2.3053 1.84574,-4.42897 2.29218,-6.82732c0.39309,-2.11171 0.58938,-4.33064 1.53835,-6.25763c1.20089,-2.43852 2.97908,-4.20011 4.29864,-6.36211c-1.24305,-1.30576 -1.90283,-3.45608 -1.87759,-4.70261c0.02078,-1.02618 0.38489,-2.03347 0.87977,-2.9607c-0.00162,-0.2989 0.00919,-0.60019 0.02318,-0.9023c-2.03088,-0.62714 -4.22942,-3.20765 -4.52284,-4.24804c-0.14854,-0.5267 -0.15161,-1.05924 -0.05412,-1.58692c-0.76774,-1.96276 0.27318,-3.15472 1.37874,-4.9077c-0.0615,-0.058 -0.11974,-0.11944 -0.1744,-0.18399l-1.99048,-2.32223l0.26451,-0.22673l-0.66643,-0.45693c-0.08258,-1.83988 -0.12346,-3.68093 -0.14209,-5.52253c-0.6468,-2.64337 -1.62538,-5.64711 -1.98081,-8.31652c-0.62737,-4.71177 0.25299,-9.70295 -0.0112,-14.44875c-0.14623,-2.62683 -1.20471,-5.03591 -1.33465,-7.68636c-0.36177,-7.37952 0.0777,-14.35451 2.38918,-21.32342c0.09859,-0.71153 0.19717,-1.42306 0.29576,-2.13459l-0.02261,-0.6818c0,0 0,-1 0.66667,-1.66667c0,-0.33333 0,-0.66667 0,-1c0,0 0,-2.25 2.25,-2.25c0.48006,0 0.85769,0.10243 1.15475,0.26357c0.71397,-1.46769 2.52521,-2.12848 3.8214,-3.1415c2.25016,-1.75857 5.17405,-2.87013 7.88425,-3.95601c0.73122,-0.55902 1.51321,-1.08595 2.41125,-1.5665c0.44174,-0.23638 3.25745,-1.1668 4.86708,-2.00517c0.3509,-0.36816 0.64703,-0.81979 0.98587,-1.20633c-0.24426,-0.38225 -0.52336,-0.77562 -0.61139,-1.15271c-0.27826,-1.19196 -0.36769,-2.50798 0.01079,-3.672c0.77882,-2.39522 2.09655,-3.22445 3.79605,-4.34105c0.28262,-0.83338 0.62754,-1.63844 1.04768,-2.40059c0.31715,-0.57532 0.7114,-1.10739 1.15939,-1.60752l0.84826,-3.07277c0.67788,-0.71636 1.35575,-1.43272 2.03363,-2.14908c0,0 1.0035,-1.0035 2.21353,-0.61959c0.81684,-1.66685 1.31489,-3.06268 3.14972,-4.3416c1.54179,-1.07466 3.54349,-1.28062 5.22151,-2.12695l1.1004,-0.5502c-1.43838,-0.79245 -2.72183,-1.61049 -3.2225,-2.06011c-3.13195,-2.81256 -3.29365,-5.89202 -2.26672,-8.95748l-0.49899,-0.07128l0.25555,-1.78883c-0.65065,-1.10243 -1.27468,-2.20846 -1.7629,-3.33999c0,0 -0.88632,-2.06808 1.18176,-2.95439c2.06808,-0.88632 2.95439,1.18176 2.95439,1.18176c1.42329,3.34692 3.90459,6.39916 5.06646,9.84147c0.09987,0.29588 0.13626,0.60568 0.15312,0.91992c0.75755,1.12699 1.42799,2.30151 1.77653,3.46824c0.67192,0.4299 1.38943,0.76301 1.83658,1.04248l0.0624,0.23427c0.16865,0.0628 0.33214,0.12158 0.48924,0.17589c1.26961,0.43892 3.46548,-0.14027 3.8647,1.14237c0.52201,1.67712 -0.81825,3.57097 -1.99053,4.87902c-1.17317,1.30903 -3.64216,0.11159 -5.18714,0.94998c-1.06126,0.57589 -1.73147,1.6834 -2.59081,2.53162c-4.69109,4.63036 -7.51339,10.69636 -11.89121,15.49805c0.47947,-0.15053 0.96301,-0.2894 1.44966,-0.41832l-0.1133,-0.22661l3.29285,-1.64642c0.31267,-0.16462 0.66881,-0.25778 1.04672,-0.25778c0.27488,0 0.53825,0.04929 0.78175,0.13952c0.03534,-0.0312 0.07064,-0.06247 0.1059,-0.09378c0.28076,-0.79203 0.93577,-1.12918 1.44254,-1.2727c0.32035,-0.26963 0.64761,-0.52952 0.98806,-0.77081c2.36135,-2.68176 4.11372,-5.67552 5.74724,-8.91489c-0.09697,-0.50905 -0.00556,-1.12172 0.53935,-1.77561c1.44041,-1.7285 3.16891,-0.28808 3.16891,-0.28808c0.48517,0.44375 0.85724,1.05853 1.45552,1.33124c0.98035,0.44686 2.46205,0.02574 3.2365,0.66638c0.62549,0.08912 1.24571,0.27455 1.85291,0.57742c0.72381,0.36103 1.60673,0.82959 2.31704,1.40152c0.0103,-0.00014 0.02061,-0.00021 0.03095,-0.00021c1.24264,0 2.25,1.00736 2.25,2.25c0,0.98308 -0.63048,1.81891 -1.50916,2.12518l-2.61748,0.98156l-0.03551,-0.09471c-0.11561,0.07035 -0.23322,0.13775 -0.35306,0.20186c-0.54957,0.294 -1.22361,0.01085 -1.86626,-0.06333c-0.20645,0.01064 -0.41285,0.01792 -0.61798,0.02248c-0.00213,0.00052 -0.00425,0.00105 -0.00638,0.00158c-1.58504,0.39689 -2.75808,1.76406 -4.21939,2.49512c-2.06377,1.03246 -4.4669,1.43712 -6.3349,2.792c-0.67251,0.48778 -0.93631,1.40144 -1.57785,1.92929c-1.68823,1.38905 -3.52287,2.13325 -5.39908,2.75201zM251.79801,247.77209c1.12836,-0.63859 2.56683,-0.36797 3.85025,-0.55196c0.70751,0.12931 1.56563,0.02344 2.34297,0.04372c0.86989,-0.62725 1.70436,-1.29271 2.52035,-1.9776c0.41166,-0.92192 0.79717,-1.86379 1.12657,-2.86441c0,0 0.71151,-2.13454 2.84605,-1.42302c0.23803,0.07934 0.44066,0.17638 0.61284,0.28618c1.41255,-1.20887 2.86738,-2.36751 4.45523,-3.37523c0.1602,-0.10167 0.32911,-0.21433 0.50562,-0.33355c-0.35977,-0.10462 -0.68812,-0.25862 -0.97348,-0.47775c-0.29592,-0.22725 -0.50284,-0.52311 -0.66,-0.85734c-2.3879,0.38818 -4.87173,0.62954 -7.37681,0.96086c-2.36354,0.31261 -6.18509,-0.56606 -8.04311,1.38329c-1.91211,2.0061 -1.74097,3.87426 -1.9818,6.38357c-0.10434,1.08723 0.18086,2.42176 -0.14203,3.42571c0.29285,-0.23431 0.6015,-0.4437 0.91736,-0.62246z"></path><path d="M283.68743,42.76339c1.87211,1.24808 0.62404,3.12019 0.62404,3.12019l-1.16324,1.69632c-0.18205,0.6699 -1.23802,4.65326 -1.43633,4.8633c-0.12994,0.13763 -0.26687,0.26667 -0.40961,0.38857l0.06139,0.06139l-1.66667,1.66667l-0.44667,-0.44667c-0.62701,0.31975 -1.26491,0.62612 -1.85583,0.99022l-0.65751,-1.93896l-0.85836,0.12262l-0.33333,-2.33333l0.42161,-0.06023l-0.32876,-0.96948c1.30663,-1.50867 2.51056,-3.11658 3.55987,-4.81432c0,0 0.25701,-0.41122 0.7233,-0.73252l0.64591,-0.98972c0,0 1.24808,-1.87211 3.12019,-0.62404z"></path></g><g fill-opacity="0.23529" fill="#2f152f"><path d="M228.78295,57.80773c1.93825,-0.76482 3.40288,-1.71315 4.94319,-2.75218c-0.81722,-1.10012 -1.50117,-2.30489 -2.27664,-3.43705c-1.76233,-2.57292 -2.7063,-5.44139 -3.68337,-8.36553c0,0 -0.86963,-2.60888 1.73925,-3.47851c2.60888,-0.86963 3.47851,1.73925 3.47851,1.73925c1.45567,4.37838 3.65489,7.41094 5.98329,11.30114c0.70352,1.17541 2.27783,2.13353 2.15693,3.49804c-0.53148,5.99845 -6.15786,6.67269 -10.76004,7.92164c-0.42631,0.32958 -1.12116,0.71483 -1.95652,0.61153c-0.4764,0.17711 -0.92754,0.37316 -1.34428,0.59698c-1.99811,1.07316 -3.01088,4.40777 -3.90147,6.1825c-1.27852,2.54775 -1.94491,4.88917 -3.2865,7.34611c1.44104,0.0863 2.58305,1.28229 2.58305,2.74502c0,0.82245 -0.36104,1.56057 -0.93328,2.06451l-2.98972,2.65753l-0.00623,-0.00701c-0.00891,0.01197 -0.01784,0.02394 -0.02679,0.03589c-1.68611,2.25368 -5.39009,4.32165 -8.61766,5.71228l-0.04998,0.09997l-0.05314,-0.02657c-0.04019,0.11365 -0.08321,0.2265 -0.12935,0.33846c-0.55554,1.34819 -1.92254,2.19292 -2.88848,3.28527c-1.74378,1.97198 -3.83046,4.2597 -5.56763,6.70729c-0.24977,2.6135 -0.22116,5.31328 -0.41134,7.66065c-0.21054,2.59875 -0.82731,5.15124 -1.38403,7.69837c-0.34786,1.59152 0.09959,3.55724 -0.96393,4.79128c-0.20738,0.24063 -0.43554,0.45535 -0.68002,0.64969l0.07458,0.087l-0.70381,0.60327c0.00001,1.74709 -0.00017,3.49419 -0.00043,5.24128c0.48504,-0.03022 0.84446,0.04965 0.84446,0.04965c8.37578,1.87837 16.53104,2.26785 25.07011,2.26785c5.64912,0 11.42459,0.13102 17.02334,-0.80054c1.19459,-0.59461 2.40745,-1.16615 3.63357,-1.74449c0.22004,-0.18996 0.44454,-0.37577 0.67385,-0.55707c0.67544,-0.53402 1.59311,-0.7118 2.25069,-1.26766c1.90814,-1.613 3.44508,-3.66454 5.48056,-5.11353c2.84781,-2.02724 6.1486,-3.35563 9.02081,-5.34814c2.85743,-1.98225 5.67801,-5.06452 8.13963,-7.51686l0.2321,-0.0653l-0.05298,-0.07417l2.30729,-1.64807c0.45516,-0.33374 1.01678,-0.53083 1.62444,-0.53083c1.51878,0 2.75,1.23122 2.75,2.75c0,0.46188 -0.11387,0.89717 -0.31507,1.27932l-0.12914,0.25829c2.73822,-1.7681 5.53367,-3.16294 9.08775,-4.45537c0,0 2.58443,-0.93979 3.52423,1.64464c0.93979,2.58443 -1.64464,3.52423 -1.64464,3.52423c-2.01987,0.73448 -4.13223,1.25533 -6.05551,2.21465c-3.57312,1.78225 -6.08672,4.84564 -9.47307,6.89454c-3.90343,2.36176 -8.12202,4.33763 -11.88101,6.92465c-0.6073,0.41796 -1.20335,0.85721 -1.79246,1.30965c-0.07264,0.77081 -0.46344,1.44905 -1.03968,1.902l-3.3135,2.6508l-0.11499,-0.14374c-0.17077,0.18266 -0.34814,0.35956 -0.53317,0.52975c-0.44579,0.41005 -1.07664,0.41574 -1.72484,0.39945c-0.52438,0.37979 -1.05613,0.74586 -1.59814,1.09277c-0.64484,0.41273 -5.94328,2.47523 -6.23402,2.59098l-0.19954,-0.03042l0.02043,0.08171l-2.60684,0.65171c-0.23152,0.06328 -0.47521,0.09707 -0.7268,0.09707c-0.05831,0 -0.11619,-0.00181 -0.1736,-0.00539c-0.43776,0.25054 -0.87561,0.50095 -1.31358,0.75114c-1.3582,1.1833 -2.69215,2.57675 -3.95767,3.43896c-3.94624,2.68862 -8.63748,3.71655 -12.67577,6.33955c-3.79978,2.46808 -7.73145,4.82346 -11.8107,6.92425c-1.51499,1.45751 -3.14655,2.96784 -4.86316,4.18173c1.71332,0.05301 3.41314,0.18186 5.10259,0.39875c0.55305,-0.19566 1.02523,-0.19566 1.02523,-0.19566c1.55961,0 3.17706,0.04353 4.81856,0.07731l0.50471,-0.05608c0.1125,-0.01401 0.2271,-0.02123 0.3434,-0.02123c0.26228,0 0.51598,0.03672 0.75624,0.10529c2.85019,0.03764 5.73924,-0.00509 8.49401,-0.40108c0.03036,-2.70421 2.74974,-2.70421 2.74974,-2.70421h0.33333c2.7002,0.02387 4.76804,-0.70046 7.39668,-1.26634c1.27265,-0.27397 2.56241,-1.00025 3.83624,-0.73183c0.14523,0.0306 0.2887,0.06627 0.43062,0.10647l0.01088,-0.08706l2.63047,0.32881c1.3753,0.1517 2.4451,1.31756 2.4451,2.73329c0,1.15647 -0.71386,2.14622 -1.72497,2.55261l-2.27508,0.97503l-0.09698,-0.22628l-0.43337,0.39247c-3.90127,0 -7.1411,1.67225 -10.88435,2.64032c-4.43797,1.14774 -9.27779,1.20221 -13.98895,1.14396l-1.93053,0.24132c-0.27114,0.05414 -0.54284,0.10789 -0.81504,0.16105c-0.3101,0.15804 -0.65792,0.20587 -1.02441,0.19631c-1.18048,0.22146 -2.36901,0.42634 -3.56112,0.59643c-0.15961,3.51049 -6.10264,4.06452 -4.20328,7.80218c0.72331,1.42336 2.47926,2.01545 3.77641,2.94634c3.52214,2.52763 7.10999,2.38191 11.28936,3.21601c2.99428,0.59759 5.72092,1.29301 8.78898,1.27892h0.66667c0,0 2.75,0 2.75,2.75c0,2.75 -2.75,2.75 -2.75,2.75h-0.66667c-3.4369,-0.01311 -6.52409,-0.71556 -9.87768,-1.38775c-5.72016,-1.14654 -10.2586,-1.60128 -14.8118,-5.07702c-0.52959,0.29422 -1.10117,0.5666 -1.56291,0.91687c0.35438,0.40981 0.58974,0.92538 0.65235,1.493l0.32881,2.63047l-0.08113,0.01014c0.03628,0.10948 0.07047,0.21977 0.10236,0.33095c0.09998,0.34851 0.08204,0.70499 0.01871,1.06534c0.98388,0.88433 2.09901,1.63032 2.77816,2.26117c0.29127,0.27055 0.55033,0.57183 0.80006,0.88213c0.15056,-0.05051 0.30021,-0.10064 0.44886,-0.15044l1.53754,-0.14154c0,0 2.75,0 2.75,2.75c0,0.68259 -0.16943,1.19575 -0.42417,1.58153c3.12322,2.1314 6.51146,3.28309 10.14146,4.91314c1.74641,0.78422 3.02243,1.72329 4.3962,2.53463c4.31078,0.1739 9.91436,-1.0448 13.52223,1.43002c0.1258,0.08629 0.24762,0.17693 0.36588,0.27146l0.03924,-0.06279l2.62629,1.64143c0.79869,0.48119 1.33288,1.35683 1.33288,2.35723c0,1.51878 -1.23122,2.75 -2.75,2.75c-0.11629,0 -0.2309,-0.00722 -0.3434,-0.02123l-2.96029,-0.32892l0.00643,-0.05785l-0.15352,0.03747c-4.35382,-0.98694 -8.73753,-0.41865 -12.98484,-2.19339c-0.55179,-0.23056 -1.06697,-0.5315 -1.56597,-0.86369c-1.46254,-0.23263 -2.91723,-0.49017 -4.48381,-0.5766c-2.69969,-0.14894 -3.26915,0.29734 -6.14076,-0.40136c-4.24489,-1.03285 -7.4715,-2.0034 -11.87804,-2.26641c-1.53998,-0.09191 -3.1821,-0.67863 -4.62616,-0.13581c-0.09164,0.03445 -0.23326,0.13032 -0.40793,0.26848c0.02606,0.51726 0.30407,1.08142 0.28409,1.60805c-0.108,2.84736 -0.4698,4.19388 -1.51941,6.8531c-0.45229,1.14589 -1.09429,2.42125 -1.75688,3.76303c0.12728,0.18118 0.24965,0.36301 0.36716,0.54312c0.00495,0.00611 0.00984,0.01225 0.01468,0.01843c1.36185,1.74128 2.61179,3.59043 4.17932,5.14914l0.04247,0.12682l0.03948,-0.0329l1.65511,1.98613c0.40487,0.47892 0.64895,1.09814 0.64895,1.77437c0,1.51878 -1.23122,2.75 -2.75,2.75c-0.40632,0 -0.79207,-0.08812 -1.13916,-0.2463l-2.27746,-0.97605l0.08183,-0.19093c-0.28189,-0.07309 -0.55864,-0.16612 -0.82889,-0.28432c-1.0885,-0.47606 -1.27773,-2.00361 -1.89066,-3.02135c-0.1874,-0.31116 -0.39777,-0.61468 -0.61536,-0.91601c-0.02222,1.25042 -0.13145,2.55308 -0.19697,3.73191c0.45969,1.31931 1.94966,2.72075 2.37827,3.69974c1.19122,2.72086 0.15234,3.24558 1.75526,5.56311c0.75494,1.09151 2.58387,1.64053 2.65641,2.9657c0.02177,0.39762 -0.00249,0.78961 -0.06132,1.17738l0.20773,0.02077l-0.33031,3.30308c-0.12319,1.40478 -1.30261,2.50662 -2.73938,2.50662c-0.85659,0 -1.6217,-0.39164 -2.12605,-1.00563l-1.65322,-1.98387l0.08854,-0.07378l-0.27741,-0.18152c-1.19337,-2.36768 -4.02373,-5.09363 -4.90108,-7.4414c-1.04635,-2.80001 -0.80744,-6.5929 -0.64097,-9.9362c-0.02338,-0.54379 -0.00077,-1.14558 0.07715,-1.82724c0.00968,-0.33101 0.01568,-0.65393 0.01638,-0.96703c0.00487,-2.1607 -0.29879,-6.57484 1.58845,-8.35789c-0.08682,-1.72805 0.0691,-3.62483 0.3738,-5.40051c-0.18905,-0.37297 -0.29558,-0.79485 -0.29558,-1.2416v-2.66667h0.14638c-0.02977,-0.25044 -0.04418,-0.503 -0.03981,-0.75813c0.00234,-0.13683 3.7613,-6.30315 3.87,-6.51011c2.05886,-3.9197 4.32813,-7.51334 6.35657,-11.40317c-0.43544,-1.44668 -0.45764,-3.06491 0.16445,-4.93143c0.57015,-1.71067 2.10008,-2.93112 3.57733,-3.9773c-0.68963,-1.08252 -0.86923,-2.29746 -0.73538,-4.60442c0.07526,-1.2971 0.38772,-2.6221 0.99023,-3.77517c-0.29454,-0.01017 -0.594,-0.02946 -0.89633,-0.05588c-0.74948,0.02599 -1.44564,-0.0306 -2.08658,-0.26841c-1.42273,-0.22742 -2.80541,-0.51241 -3.93795,-0.65389c0,0 -2.72876,-0.3411 -2.38767,-3.06986c0.31191,-2.49524 2.6203,-2.42357 3.01311,-2.39303c0.0303,-0.52212 0.13681,-1.00122 0.29084,-1.45534c-0.47861,-0.29368 -0.95602,-0.59082 -1.45044,-0.83872c-0.60198,-3.10238 -0.84231,-6.23836 -0.92326,-9.38866c-0.28482,-0.64334 -0.28482,-1.24984 -0.28482,-1.24984l0.08211,-1.66636c-2.17481,-8.70948 -1.76099,-17.48741 -0.41544,-26.21123v-1.97556c-0.37874,-2.61201 -1.23653,-5.13862 -1.63752,-7.74751c-0.48948,-3.18463 -0.03964,-6.83899 -0.02915,-10.066c0.01334,-4.10069 0.26623,-7.82664 3.89551,-10.62431c0.85583,-0.65972 2.12519,-0.46725 3.11239,-0.90668c0.9685,-0.43111 1.71734,-1.28293 2.70005,-1.68059c0.24079,-0.09744 0.49151,-0.18257 0.74971,-0.25835c1.92733,-1.18281 3.98894,-1.86075 6.18871,-3.2081c1.45729,-0.89258 2.49499,-2.36485 3.93175,-3.29011c0.24364,-0.15691 2.4369,-1.24394 4.08854,-2.05749c0,-0.44513 0,-0.8563 0,-1.17902c-0.04638,-0.40869 0.00822,-0.79305 0.08211,-1.09181c0.07033,-0.31276 0.20091,-0.69922 0.44335,-1.05617l0.22588,-0.43819c3.28502,-5.08709 3.79852,-12.81447 9.64374,-16.26889c0.83967,-0.49623 1.83459,-0.82534 2.88059,-1.09169zM207.99533,200.32501c-0.0452,-0.03672 -0.0902,-0.07356 -0.135,-0.11051c-0.04078,0.01884 -0.0821,0.03671 -0.12393,0.05358c0.08645,0.01869 0.17274,0.03767 0.25892,0.05693zM203.03983,142.0965c-0.05602,-0.01419 -0.11195,-0.02859 -0.1678,-0.04321c-0.04911,0.01969 -0.09822,0.03962 -0.14726,0.05985c0.00659,0.04172 0.01795,0.0827 0.03481,0.12282c0.06832,0.16252 0.16316,0.05258 0.28024,-0.13947zM200.84914,147.23411c0.02969,0.08825 0.06093,0.17471 0.09371,0.25887c0.02535,-0.05853 0.05039,-0.11696 0.075,-0.17527c-0.05598,-0.02523 -0.11224,-0.05305 -0.16871,-0.0836z"></path><path d="M294.84958,168.33816c-2.28814,-1.52543 -0.76271,-3.81356 -0.76271,-3.81356l1.2338,-1.83896c1.18512,-2.0726 2.45283,-4.09755 3.73427,-6.11203c0,0 1.47641,-2.32007 3.79648,-0.84366c2.32007,1.47641 0.84366,3.79648 0.84366,3.79648c-1.23532,1.94043 -2.4584,3.89043 -3.59907,5.88797l-1.43286,2.16104c0,0 -1.52543,2.28814 -3.81356,0.76271z"></path><path d="M276.32376,53.86407c-2.14739,-1.71791 -0.42948,-3.8653 -0.42948,-3.8653l0.95307,-1.03203c0.33333,-0.77778 0.66667,-1.55556 1,-2.33333c0,0 1.08328,-2.52765 3.61093,-1.44437c2.52765,1.08328 1.44437,3.61093 1.44437,3.61093c-0.33333,0.77778 -0.66667,1.55556 -1,2.33333l-1.71359,2.3013c0,0 -1.71791,2.14739 -3.8653,0.42948z"></path><path d="M207.10819,287.02038c-0.15121,1.27885 -1.16367,2.76896 -0.44504,3.83755c0.73648,1.09513 3.12666,1.52722 2.79466,2.80451c-0.91139,3.50638 -6.24071,5.95521 -9.4631,4.09941c-1.38123,-0.79546 -2.12106,-2.48923 -2.61091,-4.006c-0.95788,-2.96594 0.01979,-4.71584 1.41867,-6.3599c0.37321,-1.47474 1.74028,-2.67766 2.38143,-4.10335c1.34513,-2.99108 2.1886,-6.23218 3.14931,-9.39005c0.01449,-0.06877 0.02965,-0.13732 0.04551,-0.20565c0.03803,-0.16385 0.09549,-0.3213 0.16407,-0.47507c0.18445,-0.59128 0.37462,-1.17878 0.57463,-1.76026c0.10675,-0.31035 0.22173,-0.61702 0.34331,-0.92077c0.07387,-1.78494 -0.46036,-3.9221 -0.29803,-5.79493c-1.2574,-0.25311 -2.20436,-1.3639 -2.20436,-2.69587c0,-1.0004 0.53418,-1.87604 1.33288,-2.35723l2.04651,-1.27907c-0.00738,-0.01891 -0.01487,-0.03772 -0.02247,-0.05642l0.74199,-0.74308l-0.4195,-0.23306l1.63999,-2.95198c0.4495,-0.84683 1.32859,-1.43075 2.34675,-1.46124l0.54539,-1.30895l0.42504,0.1771c0.21044,-0.6818 0.45481,-1.3488 0.74307,-1.99391c0.07988,-1.4879 0.98658,-3.05165 1.3868,-4.52623c0.83361,-3.07134 1.7484,-7.65651 6.45987,-5.14108c0.88963,-0.44254 2.14572,0.13122 3.19035,0.12514c2.37139,-0.01379 4.7431,-0.01473 7.11481,-0.01172c3.72899,-1.00509 7.60183,-1.31683 11.70287,-1.9395c1.54369,-0.23438 3.26206,-1.3206 4.64589,-0.59745c1.89345,0.98947 4.16204,2.95014 3.91758,5.0725c-0.54214,4.70695 -5.93127,3.54871 -8.38892,3.28826c-2.33762,-0.24773 -4.67826,-0.36634 -7.02077,-0.4243c1.60968,1.33339 2.37992,3.34096 1.0533,6.1104c-0.90675,1.89292 -5.38167,1.98793 -7.25094,2.29963c-4.49739,0.74994 -8.3865,0.69053 -12.26945,2.85979c-0.41984,1.09579 -0.82319,2.54966 -1.43333,3.67572h0.59562c1.51878,0 2.75,1.23122 2.75,2.75c0,1.15647 -0.71386,2.14622 -1.72497,2.55261l-2.27508,0.97503l-0.14727,-0.34363c-0.29744,0.17996 -0.60916,0.33077 -0.93999,0.44258c-0.31834,0.90248 -0.77054,1.80365 -0.99479,2.70704l0.08211,0.66636c0,0 0,2.18964 -1.95386,2.66121c-0.47645,1.18787 -0.94846,2.37729 -1.4141,3.57477c-0.33177,2.49561 -0.19054,4.99092 -1.16366,7.45599c-0.3189,0.80783 -0.72412,1.57472 -1.16219,2.32604c0.03871,0.36348 0.01032,0.61902 0.01032,0.61902z"></path><path d="M270.00683,291.39313c-2.20851,0.04111 -6.68198,0.36857 -8.59149,-0.79222c-1.01304,-0.61582 -1.06401,-2.12535 -1.71837,-3.11393c-0.98051,-1.4813 -1.99081,-2.95478 -2.78363,-4.54446c-0.86161,-1.7276 -2.39035,-3.09675 -3.09993,-4.89215c-0.41773,-1.05696 -0.54203,-2.19026 -0.62953,-3.33521c-1.94296,-1.76279 -4.3015,-3.72893 -5.0162,-5.61275c-0.51915,-1.3684 -0.16591,-2.92279 -0.20933,-4.38571c-0.03738,-1.2595 -0.09846,-2.71294 -0.10535,-4.23346c-0.74526,-1.86581 -0.73022,-4.2612 -0.0968,-6.27244c0.25735,-0.81714 0.69092,-1.55163 1.18203,-2.26011c0.26534,-0.72606 0.59221,-1.39912 0.99368,-1.9979c0.2492,-0.37167 0.60012,-0.63205 1.00001,-0.83781c0.01867,-0.0319 0.03714,-0.0639 0.05542,-0.09599c0,0 1.16814,-2.04425 3.23421,-1.26881c2.14458,-0.98858 4.28667,-1.83753 6.30374,-3.01153c0.25089,-0.20398 0.54653,-0.37933 0.87334,-0.5353c0.34972,-0.22606 0.69498,-0.46439 1.03509,-0.71757c0.50388,-0.37509 4.40128,-4.71231 4.95129,-4.84642c0.25077,-0.06114 0.50323,-0.106 0.75708,-0.13743l-0.03032,-0.13642l1.91544,-0.42565c0.51474,-0.96179 0.98361,-1.95191 1.46749,-2.92689c0.83301,-1.67845 0.60225,-4.43362 2.35124,-5.10605c6.38997,-2.45675 6.89233,4.56071 6.01943,7.64286c-0.50525,1.78401 -2.88763,2.47482 -3.72999,4.1266c-0.43129,0.84571 -0.53272,1.8403 -1,2.66667c-0.39352,0.69591 -0.80665,1.29683 -1.24196,1.8213l-1.65175,2.20234l-0.07894,-0.0592c-0.09483,0.15993 -0.19494,0.317 -0.30111,0.47082c-0.65617,0.95065 -1.9897,1.174 -2.98455,1.761l-0.23278,0.00662l0.02962,0.079l-2.60732,0.97775c-0.31675,0.1273 -0.66266,0.19735 -1.02493,0.19735c-0.59,0 -1.13661,-0.1858 -1.58449,-0.50208l-2.76376,0.98706c-0.1057,0.04057 -0.21454,0.0748 -0.32606,0.10222c-1.12315,1.95138 -1.76669,4.45681 -2.81256,6.52035c1.93465,5.56323 4.23774,10.89624 5.95238,16.48372c0.42082,1.37133 0.79826,2.76803 1.35553,4.08828c1.1492,1.20233 2.35841,2.37743 3.67987,3.54474l0.06749,0.57485l0.22462,-0.11231l0.86414,1.72828l1.49142,-0.44743c0.26809,-0.08721 0.55425,-0.13434 0.85143,-0.13434c1.51878,0 2.75,1.23122 2.75,2.75c0,1.09781 -0.64327,2.04537 -1.57345,2.48632l-2.61338,1.30669l-0.14142,-0.28284z"></path></g><g fill-opacity="0.09804" fill="#e3a3e3"><path d="M205.59694,296.31107c-1.65,2.2 -3.85,0.55 -3.85,0.55l-2.80967,-2.47017c-0.09678,-1.32661 -0.19355,-2.65323 -0.29032,-3.97984c0,0 0,-2.08815 1.81961,-2.62525l0.01213,-0.04025c0.72102,-3.62856 1.77007,-6.92586 2.74019,-10.45935c0.58856,-2.14373 0.23138,-4.46936 0.78177,-6.6232c0.23543,-0.92133 0.97941,-1.66123 1.20863,-2.58412c0.42872,-1.72607 -0.16907,-3.60489 0.26828,-5.32879c0.54301,-2.14041 1.61347,-4.11335 2.31051,-6.20866c0,0 0.86962,-2.60888 3.4785,-1.73925c2.60888,0.86963 1.73926,3.47851 1.73926,3.47851c-0.65373,1.95752 -1.65062,3.79913 -2.1895,5.79134c-0.64071,2.36867 0.36497,2.57692 -0.23171,5.17121c-0.23827,1.03596 -1.0207,1.8879 -1.29137,2.91588c-0.54464,2.06854 -0.17112,4.30891 -0.71823,6.3768c-0.94546,3.57351 -2.02455,6.88541 -2.75981,10.54065l-0.78424,2.62471c0,0 -0.08327,0.27756 -0.28584,0.62545l0.30182,0.13434c0,0 2.2,1.65 0.55,3.85z"></path><path d="M250.95092,265.22261c-0.37184,0.62 -1.05368,1.18846 -2.30398,1.18846c-2.75,0 -2.75,-2.75 -2.75,-2.75l0.01364,0.02364c-0.32684,-3.57002 -0.03321,-11.47704 4.00364,-13.4091c0.24849,-0.11893 0.5037,-0.21249 0.76432,-0.28552l-0.05293,-0.13233l2.44209,-0.97684c0.33135,-0.14152 0.69615,-0.21985 1.07923,-0.21985c1.51879,0 2.75,1.23121 2.75,2.75c0,0.69835 -0.26031,1.3359 -0.68919,1.82091l-1.56912,1.79328c-0.10761,0.20857 -0.24597,0.46047 -0.39141,0.7371c-0.51853,3.68334 1.40806,5.73631 3.29278,9.04379c0.61739,1.08346 1.10704,2.23443 1.57628,3.39312c0.01157,0.02464 0.02295,0.04926 0.03418,0.07385c1.5231,3.33708 3.38112,6.20763 4.74732,9.58589c0.6961,1.37597 1.35182,2.78013 1.91696,4.20871c0.72481,1.42881 1.37274,2.87165 1.42911,4.43856c0.00047,0.0129 0.00091,0.02582 0.00133,0.03872l0.01066,-0.00355l0.9797,2.9391c0.10449,0.29062 0.16142,0.60393 0.16142,0.93052c0,1.51878 -1.23122,2.75 -2.75,2.75c-1.21119,0 -2.23951,-0.78302 -2.60634,-1.87046l-0.97809,-2.68974l0.07338,-0.02668l-0.0165,-0.0495l-0.12055,-0.12193c-0.00903,-0.04612 -0.01822,-0.09222 -0.02757,-0.13828c-0.72521,-0.51941 -0.56261,-1.76788 -0.89353,-2.62272c-0.5287,-1.36577 -1.01295,-2.74831 -1.50385,-4.12833c-1.03966,-2.17196 -2.23826,-4.27186 -3.34606,-6.29451c-1.19948,-2.19002 -1.90464,-4.64998 -3.04023,-6.89615c-0.04358,-0.07482 -0.08825,-0.14907 -0.13412,-0.22269c-0.62626,-1.00514 -1.3734,-1.93743 -2.10255,-2.87745z"></path><path d="M208.20149,197.07473c2.43029,1.06367 4.99141,1.8549 7.30689,2.40518c1.7116,0.40677 3.98469,-0.07816 5.56464,0.84179c1.57465,0.91687 4.02316,1.83037 4.06751,3.65196c0.12565,5.16049 -6.50392,4.60622 -8.99809,4.42561c-5.61414,-0.40654 -9.66187,-3.29471 -14.69962,-5.15902c-1.12711,-0.4171 -2.46595,-0.3173 -3.47052,-0.97697c-3.33945,-2.19288 -3.24552,-4.15007 -4.31926,-7.669c0.17965,-1.22633 0.3593,-2.45267 0.53895,-3.679l0.02786,-0.03964l-0.01952,-0.00391l0.49001,-2.45004c0.23085,-1.28532 1.35483,-2.26064 2.70659,-2.26064c1.43677,0 2.61619,1.10183 2.73937,2.50662l0.17038,1.70377c1.58478,1.6993 4.04081,2.89723 5.65983,4.72872l1.27882,0.82313c0,0 0.59937,0.42812 0.95615,1.15142z"></path><path d="M189.89694,139.41107c0,-1.75 0,-3.5 0,-5.25v-2.5v0c0,-1.51879 1.23121,-2.75 2.75,-2.75c1.30873,0 2.40393,0.9142 2.68184,2.13884l0.72113,2.8845c1.2654,2.07489 1.49657,4.43596 3.19067,6.44364c1.06505,1.26218 2.2874,2.395 3.567,3.48278c3.64855,0.35644 7.08297,0.29645 10.83936,0.30024c0.92256,0.00093 1.86354,0.04461 2.80294,0.03798c2.65393,-1.24788 5.31711,-2.6653 7.76853,-4.13783c2.18282,-1.31118 4.11166,-3.14418 6.51235,-3.99305c1.60291,-0.56678 3.3068,-0.80604 4.95874,-1.2117c0.40754,-0.15349 0.81047,-0.31749 1.20559,-0.49909c2.50098,-2.20694 5.36482,-3.62758 8.2097,-5.37383l0.18459,-0.00909l-0.03041,-0.06689l2.69626,-1.22557c0.36053,-0.17363 0.76476,-0.27092 1.1917,-0.27092c0.57089,0 1.10114,0.17396 1.54065,0.47176c0.84877,-0.44271 1.68983,-0.90145 2.51696,-1.38932l1.74784,-1.77698c0,0 1.94454,-1.94455 3.88909,0c1.94455,1.94455 0,3.88909 0,3.88909l-2.25216,2.22302c-3.24764,1.97311 -6.67366,3.50441 -10.01454,5.28163c-1.0879,1.17153 -2.50633,1.97484 -4.07161,2.57507c-2.10969,1.54896 -4.15705,3.22035 -6.52688,4.25507c-3.14863,1.37475 -6.21856,2.81293 -9.34684,4.00447c-0.40459,0.17995 -0.81327,0.35091 -1.21873,0.52251c-2.19583,0.92935 -4.84591,1.33024 -7.30259,2.045c-1.28733,0.59481 -2.58831,1.15899 -3.90086,1.68974c-0.35462,0.23623 -0.69196,0.49687 -1.00852,0.78644c-0.75062,0.68662 -1.63332,1.53316 -2.61072,2.41357c-0.13566,0.15566 -0.30035,0.30521 -0.49915,0.44485c-2.55094,2.24765 -5.6681,4.57702 -8.74567,4.94604c0.22908,0.39558 0.40153,0.8144 0.4856,1.25971c0.30063,1.59242 0.2004,2.67729 -0.17785,3.52771c0.64739,0.09815 1.29151,0.16581 1.90998,0.10121c3.68662,-0.38501 6.68947,-3.27898 10.31596,-3.97098c0.33955,-0.06479 5.7853,-0.04962 6.27005,-0.04962h1.25c0,0 2.75,0 2.75,2.75c0,2.75 -2.75,2.75 -2.75,2.75h-1.25c-1.74339,0 -3.51719,-0.37499 -5.22996,-0.04962c-3.77896,0.71788 -6.73397,3.54106 -10.68404,4.02901c-0.63707,0.0787 -1.24682,0.12978 -1.8361,0.15556c0.00492,0.36786 0.02421,0.73795 0.05821,1.10769c2.14056,2.90912 6.02644,4.01468 7.81857,7.26389c0.0439,0.0796 0.08647,0.15977 0.12779,0.24048l0.03365,-0.02244l1.97915,2.96872c0.30448,0.44262 0.48272,0.97886 0.48272,1.55671c0,1.51879 -1.23121,2.75 -2.75,2.75c-0.35267,0 -0.68983,-0.06639 -0.99968,-0.18734l-2.69012,-0.97823l0.00011,-0.00032c-1.22547,-0.4458 -2.59107,-0.61956 -3.66827,-1.3532c-3.19931,-2.17892 -4.96479,-6.53695 -5.60831,-10.51492c-0.51626,-0.94875 -0.91732,-1.93947 -1.22625,-2.96599h-1.55748c-1.51879,0 -2.75,-1.23121 -2.75,-2.75c0,-0.91115 0.44311,-1.7188 1.1256,-2.21921l1.9744,-1.4808l0.00114,0.00152c0.14243,-0.09129 0.27353,-0.1776 0.39387,-0.25932c0.02505,-0.63003 0.03702,-1.23576 -0.06453,-1.92745c-0.86167,-0.35242 -1.9889,-0.86716 -2.68249,-2.03646c-1.94733,-3.28293 -1.43921,-4.54207 -0.11209,-6.22194c-0.34458,-1.57816 -0.6432,-3.16817 -0.92719,-4.76359c-0.44049,-0.48764 -0.70871,-1.13388 -0.70871,-1.84276c0,-0.3693 0.07279,-0.7216 0.20481,-1.04333c-0.28475,-1.63987 -0.57397,-3.28131 -0.90142,-4.91735l-0.04924,-1.189c-0.00415,-0.06411 -0.00415,-0.10032 -0.00415,-0.10032zM201.39252,154.44178c-0.37033,-0.04068 -0.73917,-0.10434 -1.10552,-0.19439c0.06699,0.05304 0.13833,0.10163 0.21445,0.14523c0.29686,0.17007 0.59426,0.16407 0.89108,0.04916z"></path><path d="M230.1655,46.56649c-0.25928,-0.28388 -1.74615,-2.06692 0.0369,-3.84996c1.94455,-1.94454 3.88909,0 3.88909,0l0.47618,0.50621c1.89597,2.45937 3.35685,5.12741 4.6696,7.88956l2.35422,2.35422c0.49765,0.49765 0.80546,1.18515 0.80546,1.94454c0,1.51879 -1.23121,2.75 -2.75,2.75c-0.46188,0 -0.89717,-0.11387 -1.27932,-0.31506l-2.45052,-1.22526l0.13578,-0.27155l-0.66799,-0.07681c-1.99062,-2.53934 -3.50448,-5.00022 -4.94762,-7.88148c0,0 -0.43216,-0.86432 -0.27177,-1.82442z"></path><path d="M217.14694,83.41106c-2.75,0 -2.75,-2.75 -2.75,-2.75l0.19669,-1.77133c0.80326,-2.00549 1.51189,-4.04858 2.19443,-6.0983c0,0 0.86962,-2.60888 3.4785,-1.73925c2.60888,0.86962 1.73926,3.4785 1.73926,3.4785c-0.71786,2.15147 -1.46413,4.29548 -2.30557,6.4017l0.19669,-0.27132c0,0 0,2.75 -2.75,2.75z"></path><path d="M185.43525,211.51806c0.24057,-0.8062 0.88423,-1.88472 2.60643,-1.88472c2.75,0 2.75,2.75 2.75,2.75l-0.66205,2.12301c-1.12142,1.17403 -1.69062,2.88934 -1.94727,4.81771c1.27599,0.74442 1.27599,2.39261 1.27599,2.39261c0,2.23122 -0.55055,5.71679 0.39974,7.81813c1.26121,2.78885 4.64383,4.60659 5.9645,7.59481c0.6293,1.42388 1.83506,3.06401 1.24009,4.50257c-3.78168,9.14356 -9.86162,0.6772 -12.3814,-3.50446c-2.85154,-4.73222 -1.72636,-11.79574 -1.72294,-17.07771c0.00118,-1.82145 -0.1366,-5.46985 0.56086,-7.09528c0.40802,-0.95089 1.20016,-1.67087 1.91605,-2.43668z"></path></g><path d="M300.28334,115.38333c1.57962,0 2.2519,0.90735 2.53801,1.67967c3.50807,3.38188 4.39601,7.00749 2.73475,11.94826c-0.49408,1.46945 -1.76721,4.43384 -3.2421,5.30983c-0.03694,0.02194 -0.07402,0.04361 -0.11122,0.06501l0.0251,0.0251l-2,2c-0.49765,0.49765 -1.18515,0.80546 -1.94454,0.80546c-1.51878,0 -2.75,-1.23122 -2.75,-2.75c0,-0.6291 0.21124,-1.20886 0.56667,-1.67222l1.98333,-2.64444l0.03083,0.02312l0.02406,-0.09387c0.68572,-0.80075 1.37144,-1.60151 2.05716,-2.40226c0,0 0.07778,-0.09074 0.21982,-0.21817c1.05266,-2.60416 0.5165,-4.98599 -1.89237,-6.87954l-0.98949,-2.44594c0,0 0,-2.75 2.75,-2.75z" fill="#ad4eac"></path><path d="M298.54789,145.82551c-0.73446,-0.41266 -1.69694,-1.30114 -1.26578,-3.02581c0.52113,-2.08453 2.26381,-2.13315 3.001,-2.05475c0.20352,-0.02828 0.33356,-0.02828 0.33356,-0.02828l0.22482,0.1595c1.31723,0.42081 2.93712,0.40425 3.83339,1.43337c1.22996,1.41227 1.02162,5.2874 1.02512,7.15713v2.66667c0,1.51878 -1.23122,2.75 -2.75,2.75c-1.18042,0 -2.18712,-0.74373 -2.5771,-1.78815l-1.30954,-3.27386l0.1149,-0.04596c-0.09121,-0.14916 -0.17869,-0.30083 -0.26197,-0.45532c-0.56162,-1.04183 -0.45476,-2.26704 -0.3684,-3.49454z" fill="#ad4eac"></path></g></g></svg>