<svg version="1.1" xmlns="http://www.w3.org/2000/svg" xmlns:xlink="http://www.w3.org/1999/xlink" width="48.80917" height="42.47263" viewBox="0,0,48.80917,42.47263"><g transform="translate(-213.11626,-158.2388)"><g stroke="none" stroke-miterlimit="10"><path d="M229.47533,159.28861c4.62485,0 8.6054,2.91486 10.44975,7.10867c1.84426,-4.19382 5.8248,-7.10867 10.44969,-7.10867c6.37597,0 11.55066,5.52356 11.55066,12.32935c0,7.43588 -3.774,11.92527 -8.64944,16.60869c-0.14249,-0.10555 -0.28497,-0.21109 -0.42746,-0.31664c-2.81846,-2.08775 -5.5673,-4.20142 -8.24826,-6.46345c-2.67504,-2.25703 -5.35007,-4.51406 -8.02511,-6.77109c-2.67504,-2.25703 -5.35007,-4.51406 -8.02511,-6.77109c-2.21307,-1.86726 -4.42615,-3.73451 -6.63922,-5.60177c2.02702,-1.87737 4.67216,-3.01401 7.5645,-3.01401z" fill-opacity="0.87059" fill="#ffffff" stroke-width="0"></path><path d="M213.11626,167.20492c0,-3.53147 1.39327,-6.71769 3.62469,-8.96612c2.22608,1.87824 4.45217,3.75647 6.67825,5.6347c2.67504,2.25703 5.35007,4.51406 8.02511,6.77109c2.67504,2.25703 5.35007,4.51406 8.02511,6.77109c2.68897,2.2688 5.44621,4.3891 8.27308,6.48308c0.11948,0.08851 0.23897,0.17701 0.35845,0.26552c-2.39178,2.27841 -5.02726,4.62094 -7.601,7.3865c-0.46603,-0.21166 -0.93127,-0.43171 -1.39624,-0.66164c-3.13736,-1.55144 -6.27472,-3.10289 -9.41208,-4.65433c-3.10587,-1.53587 -6.19938,-3.09722 -9.29845,-4.64676c-0.41557,-0.20672 -0.8159,-0.44533 -1.20714,-0.70341c-3.54641,-3.83974 -6.06978,-7.9 -6.06978,-13.6797z" fill-opacity="0.87059" fill="#ffffff" stroke-width="0"></path><path d="M240.37502,200.71142c-4.39451,-7.0919 -10.1863,-11.61621 -14.72419,-16.22164c3.02518,1.51325 6.04546,3.03689 9.07752,4.53627c3.13736,1.55144 6.27472,3.10288 9.41208,4.65433c0.41995,0.20766 0.84016,0.40736 1.26098,0.60016c-1.74221,1.9038 -3.44949,4.01004 -5.02639,6.43089z" fill-opacity="0.87059" fill="#ffffff" stroke-width="0"></path><path d="M253.42609,160.11785c5.63548,0.35176 2.58329,8.36755 -0.89326,5c-0.00492,-0.00476 -0.01011,-0.00931 -0.01556,-0.01365c-0.08638,0.00903 -0.17407,0.01365 -0.26284,0.01365c-0.25022,0 -0.49186,-0.03676 -0.7198,-0.10518c-1.02984,-0.3091 -1.7802,-1.26433 -1.7802,-2.39482c0,-0.70691 0.2934,-1.34528 0.76506,-1.8c0.44958,-0.43343 1.06113,-0.7 1.73494,-0.7c0.10419,0 0.20689,0.00637 0.30774,0.01875c0.28782,-0.02782 0.57642,-0.0367 0.86392,-0.01875z" fill-opacity="0.63922" fill="#ffffff" stroke-width="0.5"></path><path d="M225.0236,167.59741c-0.79217,3.78686 -4.25198,2.8185 -5.44586,0.43073l-0.28642,-1.16302c0,-0.03555 0.00074,-0.07093 0.00221,-0.10612c0.00012,-0.0043 0.00025,-0.00859 0.00039,-0.01287c-0.18745,0.05179 -0.38892,0.09948 -0.60509,0.14271c-1.93614,0.38723 -4.58296,-3.88571 -2.71348,-4.95398c0.43488,-0.73685 1.23698,-1.23117 2.15454,-1.23117c1.24584,0 2.27883,0.9113 2.46876,2.10367c0.3582,0.44847 0.63883,0.92003 0.77391,1.38068c0.35599,0.02052 0.72963,0.11739 1.0967,0.2701c0.39846,0.112 0.75662,0.32028 1.04778,0.59814c0.96931,0.71373 1.67552,1.7335 1.50657,2.54113z" fill-opacity="0.63922" fill="#ffffff" stroke-width="0.5"></path></g></g></svg>