<svg version="1.1" xmlns="http://www.w3.org/2000/svg" xmlns:xlink="http://www.w3.org/1999/xlink" width="469.39836" height="352.40938" viewBox="0,0,469.39836,352.40938"><g transform="translate(-51.18475,13.46627)"><g stroke="none" stroke-miterlimit="10"><g stroke-width="0.5"><path d="M292.59391,254.68737c0,0 -1.29987,-3.24967 1.9498,-4.54954c3.24967,-1.29987 4.54954,1.9498 4.54954,1.9498c0.05593,0.14123 0.11364,0.28167 0.17293,0.4214c0.02185,-0.01058 0.04365,-0.02087 0.0654,-0.03088c2.21392,-1.39355 4.65583,-2.34062 6.72583,-3.99662l-0.00001,-0.00003c1.68785,-1.35028 2.37267,-3.87973 3.83195,-5.54174c4.79338,-5.4593 11.1828,-10.08521 18.25555,-8.50687c1.60945,0.35916 3.53393,0.41741 4.66957,1.76903c2.0336,2.42035 1.60312,8.15985 1.94035,11.28156c0.20636,1.91023 2.10189,3.06047 2.77877,4.82299c0.30082,0.78331 0.10407,1.69293 0.08965,2.56469c0.12556,0.45098 0.17852,0.92898 0.23459,1.40662c0.31906,0.89299 0.85734,1.68679 1.25274,2.54524c0.00584,0.03621 0.01175,0.07219 0.01775,0.10794c0.6919,0.69451 1.42381,1.36156 1.95699,2.19591c0.71671,1.12154 0.76361,2.67668 1.41035,3.8458c0.26135,0.23399 0.53647,0.47211 0.82533,0.72127c0.564,3.71806 2.45151,6.11433 5.68643,8.6836c2.04537,0.0019 4.75572,0.0566 5.40142,0.37945c1.33511,0.66755 2.93872,2.57555 4.05712,4.62034c0.03142,-0.00648 0.06275,-0.01296 0.09398,-0.01946c0.01103,0.08623 0.02174,0.17112 0.03213,0.25452c0.45303,0.8613 0.81565,1.73923 1.03224,2.55239c0.14704,0.33724 0.28869,0.68236 0.4254,1.0357l0.25033,2.05644c0,0 0,1.60225 -0.88767,2.77835c-0.13061,0.49833 -0.32072,0.94736 -0.60567,1.30544c-0.37944,2.70146 -1.43323,5.13408 -3.9905,6.94703c-1.07278,0.76053 -2.49338,0.32416 -3.77158,0.37781c-0.15321,0.01687 -0.24458,0.01687 -0.24458,0.01687c-8.33333,0 -18.66667,0 -27,0c-3.05019,0 -6.08444,0.14197 -9.09394,0.0478c-0.62721,0.67857 -1.4741,1.09475 -2.40606,1.09475c-1.132,0 -2.13848,-0.61401 -2.77824,-1.56644c-1.11137,-0.18386 -2.21859,-0.431 -3.3212,-0.76107c-1.12601,-0.16628 -1.8149,-0.79971 -2.23636,-1.51254c-0.50537,-0.68778 -0.85787,-1.67198 -0.63319,-3.04347c-0.17915,-1.21283 -0.44963,-2.4138 -0.51909,-3.64086c-0.046,-0.81264 0.44545,-1.67562 0.18538,-2.43381c-0.38941,-1.13524 -1.61705,-1.71827 -2,-2.85638c-0.62074,-1.84477 -0.02429,-4.10876 -0.8414,-5.85076c-0.98924,-2.10897 -2.08919,-4.15188 -3.00773,-6.30219c-0.68544,-1.60463 -2.20488,-2.92601 -2.23092,-4.7113c-0.00503,-0.34518 0.0115,-0.68712 0.04565,-1.0264h-0.1629v-3.42765c0,-0.41609 0.05562,-0.81734 0.15883,-1.19457c-0.83691,-1.58137 -1.69653,-3.15294 -2.36494,-4.81019z" fill="#170619"></path><path d="M357.99087,294.7847c0.87781,2.34082 -1.46301,3.21863 -1.46301,3.21863l-2.87781,0.90918c-6.30126,0 -12.71885,0.22155 -19.14353,0.34997c-0.55017,0.05042 -1.10025,0.09793 -1.65026,0.14151c-8.69371,0.68876 -17.51413,-0.49148 -26.2062,-0.49148c0,0 -2.5,0 -2.5,-2.5c0,-2.5 2.5,-2.5 2.5,-2.5c0.84205,0 1.68561,0.01165 2.53039,0.03198c0.3058,-0.14682 0.61754,-0.21747 0.87466,-0.2502c0.20878,-0.03178 0.34495,-0.03178 0.34495,-0.03178c8,0 17.75,0 25.75,0c1.04679,0 2.12898,0.03771 3.22912,0.08202c4.07917,-0.42532 8.1665,-0.82834 12.27088,-0.83202h0.25c0,0 0.03707,0 0.10218,0.00451c0.51189,0.00411 1.16814,0.13609 1.67894,0.6687c0.06886,0.06276 0.13507,0.13138 0.19756,0.20639l0.89351,-0.47043c0,0 2.34082,-0.87781 3.21863,1.46301z" fill="#99712b"></path><path d="M293.80001,247.2c5.5,0 5.5,5.5 5.5,5.5v1c0,0.45063 0.0039,0.90392 0.0109,1.35948c1.01773,0.10775 1.99532,0.33945 2.87164,0.68335c1.87248,0.73484 2.93096,2.77801 4.16628,4.36552c4.90543,6.30399 7.84235,16.28595 6.44511,24.15827l0.43741,3.06189c0.04519,0.28384 0.06866,0.57492 0.06866,0.87148c0,2.35703 -1.48266,4.36776 -3.56622,5.15043c0.10059,0.53532 0.19526,1.07207 0.28397,1.61032c0.31855,1.93272 2.60142,4.1398 1.42002,5.70222c-1.92039,2.53975 -5.80342,2.62165 -8.70513,3.93248c-0.26396,-0.14882 -7.05835,-3.87796 -8.01038,-4.71814c-1.04617,-0.92326 -1.72256,-2.2045 -2.71045,-3.18986c-1.94075,-1.93578 -4.13972,-3.92075 -5.01224,-6.5193c-1.6759,-4.99114 0.66353,-12.28366 1.32403,-16.97711c0.37592,-2.67121 0.42589,-5.46998 0.35999,-8.29198c-0.10127,-0.73182 -0.13466,-1.47352 -0.07213,-2.22726c-0.12068,-3.03857 -0.31146,-6.07234 -0.31146,-8.97178v-1c0,0 0,-5.5 5.5,-5.5z" fill-opacity="0.3451" fill="#18061a"></path><path d="M291.36842,263.70311c-0.0897,-2.12349 -0.06841,-8.65275 -0.06841,-10.00312c0,0 0,-5.5 5.5,-5.5c5.5,0 5.5,5.5 5.5,5.5c0,2.7983 -0.62219,5.64268 -0.11232,8.39414c0.21084,1.13778 1.12136,2.04964 1.42087,3.16736c0.35354,1.31932 0.15398,2.74813 0.51714,4.06483c0.50722,1.83901 1.6648,3.47054 2.07507,5.33358c0.32554,1.47831 0.3013,3.03991 0.09924,4.54009c-0.03473,0.25788 -0.98497,0.14371 -0.74299,0.2394c0.54891,0.21707 1.26274,-0.14892 1.76321,0.16405c4.03133,2.52096 4.47766,3.84909 4.96104,8.64291c0.15719,1.55886 0.60663,3.38997 -0.2635,4.6929c-1.63826,2.4531 -3.81557,5.23264 -6.71776,5.76075c-2.1068,0.38337 -3.5761,-2.35704 -5.34361,-3.56596c-3.02728,-2.07056 -6.97786,-5.20138 -8.25599,-8.87393c-1.15526,-3.31949 -0.89357,-7.62755 -0.9004,-11.06011c0,-2.83333 0,-5.66667 0,-8.5v-0.5c0,0 0,-1.21123 0.56841,-2.49688z" fill-opacity="0.57255" fill="#18061a"></path></g><path d="M237.14441,193.29538v0.00001c0.48409,0.42295 0.36337,1.15774 0.81934,1.60091c0.20938,0.2035 0.83364,0.23704 1.54431,0.2518c0,-1.19504 0,-2.39009 0,-3.58513c0,-3.5 0,-7 0,-10.5c0,-0.39496 0,-0.78991 0,-1.18487c1.10271,0.08896 2.20006,0.18991 3.29057,0.302c5.3771,0.64881 9.20001,0.80999 14.02654,2.24951c3.02917,0.90345 5.6077,2.39708 8.5688,3.39883c7.04127,2.38208 14.53149,3.76588 21.42573,6.43271l1.3108,1.35852c2.44963,1.09449 7.76077,3.42475 9.11349,4.58164c1.80788,1.54616 2.98509,3.62693 3.67791,5.73203c0.85664,0.16525 1.62248,0.47661 2.23512,0.89179l2.95118,2l-0.15762,0.10682l0.44638,0.10575c3.79432,3.70731 9.87029,5.18716 13.37728,9.2475c1.64272,1.90191 4.13391,4.70704 5.75673,6.99926c1.31993,1.04426 2.50231,2.14141 3.0602,3.43347c1.60505,3.71719 0.81984,8.39781 0.67164,12.24874c-0.04794,1.24575 0.39356,2.56651 -0.24637,3.73479c-0.80202,1.46419 -2.26043,2.77465 -3.9148,3.86198c-3.67638,2.41628 -9.43556,2.77686 -14.14706,3.48655c-4.27695,0.64424 -8.45447,1.23172 -12.65675,1.66611h0.00005c-12.3224,3.71778 -26.40161,5.75135 -38.88575,1.41085c-2.96181,-1.02977 -4.97275,-3.01419 -7.68627,-4.32093c-0.12231,-0.0589 -0.24506,-0.11768 -0.36815,-0.17639c-1.35863,0.08621 -2.97188,-0.01839 -4.87608,-0.34891c-1.06914,-0.18558 -2.04639,-0.51759 -2.94924,-0.96796c-2.30804,1.95691 -4.50853,3.56312 -6.22495,4.0977c-0.67734,0.21096 -1.39595,-0.00783 -2.0922,-0.30242c-0.62818,0.53604 -1.21973,1.01949 -1.71041,1.41898v-0.00001c-2.37815,1.93613 -7.5753,4.25044 -11.85894,4.18696c-0.09045,0.02848 -0.18063,0.05705 -0.27051,0.08572c-1.38021,0.44036 -2.65582,0.90671 -3.87899,1.37068c-1.33126,0.61294 -2.69316,1.20237 -3.95995,1.86865c-1.30879,0.68838 -2.15796,1.78091 -3.62181,2.30667c-5.63217,2.0229 -13.51545,1.31416 -19.63492,0.53432c-1.12715,0.01829 -2.09272,-0.27144 -2.80885,-0.59136c-0.75376,-0.28616 -1.58364,-0.73873 -2.07625,-1.43413l-0.85911,-0.74633c-5.08386,-3.44886 -11.58276,-10.15882 -19.40342,-11.03104c-5.46217,-0.60918 -11.50672,-0.15564 -17.33936,0.26809c-2.50003,2.98131 -7.8729,2.23566 -12.8647,2.48396c-0.74533,-0.63071 -1.39528,-1.18348 -1.96083,-1.68263c-2.3534,-0.03758 -4.61178,-0.38526 -6.19951,-1.53029c-1.70415,-1.22898 -1.07207,-3.30315 -1.2928,-4.98298c-0.16602,-1.26343 -0.73481,-2.68212 0.13816,-3.80414c0.18584,-0.23887 0.38936,-0.46946 0.60754,-0.69319l-0.20046,-0.06792l1.91742,-2.59885c0.18518,-0.26473 0.41794,-0.51121 0.69079,-0.73435c-0.35857,-2.35748 -0.20226,-4.7862 -0.20226,-7.10156c0,-5.27548 -1.41814,-12.09612 1.27019,-17.14946c1.17232,-2.20364 3.16048,-3.93813 5.51874,-5.44126c0.1257,-1.9154 2.95204,-2.8731 2.95204,-2.8731c6.61301,-2.2084 11.17604,-5.94471 17.62384,-8.30449c7.77706,-2.84628 16.07521,-3.57742 24.27871,-5.53101c4.20959,-1.00248 8.72451,-2.15645 12.70894,-3.50279c1.85109,-0.62548 3.40582,-1.65286 5.35125,-2.12906c10.84651,-2.65505 22.80039,-3.07853 34.21319,-2.20563c0,0.41104 0,0.82209 0,1.23313c0,3.05861 0,6.11721 0,9.17582c2.28566,0.30492 4.08225,0.76158 4.80145,1.38994z" fill="#54115f" stroke-width="0.5"></path><path d="M310.2,197.46667c-0.10908,0 -0.21475,-0.0034 -0.31714,-0.00999c-3.08932,3.00374 -6.65497,6.19026 -10.03764,7.20374c-3.41099,1.02196 -8.88903,0.27045 -12.1136,-1.18334c-1.74001,-0.78448 -3.11477,-1.95589 -4.93859,-2.51249c-10.02757,-3.06022 -20.70865,-4.44963 -31.10071,-5.50227c-3.71412,0.00422 -8.14136,-0.59554 -11.80262,0.26905c-6.05328,1.42946 -11.9143,3.67707 -17.9975,4.9995c-3.73315,0.81155 -7.05762,1.17596 -10.6254,2.77688l-0.02487,0.0012l0.00346,0.00807l-2.26222,0.96952c-0.44175,0.20131 -0.9327,0.31347 -1.44983,0.31347c-1.933,0 -3.5,-1.567 -3.5,-3.5c0,-0.48756 0.09969,-0.95184 0.27981,-1.37356l1.30385,-3.25964l0.05853,0.02341c0.02912,-0.11804 0.06026,-0.2357 0.09356,-0.35297c1.2531,-4.41223 5.30276,-5.57749 8.71617,-7.42176c1.41391,-0.76394 3.14186,-2.60516 4.19758,-3.71401c2.5128,-2.63926 4.80317,-5.51446 7.75251,-7.70299c1.85707,-1.37802 4.11853,-2.22513 5.78663,-3.82672c5.92632,-5.69008 11.4756,-12.01144 19.31444,-15.27578c4.19003,-1.74486 8.94817,-2.02531 13.35084,-2.86917c3.94133,-0.75543 7.76954,-2.07774 11.50804,-3.53663c4.08797,-1.22738 8.17812,-3.46326 12.45982,-3.83982c0.43588,-0.03833 10.96877,-0.00976 11.13298,0.01264c5.22666,0.71282 5.23884,1.32051 9.17812,3.37458c7.57706,3.95092 14.10864,8.71102 13.865,18.21737c-0.09036,3.5257 -1.40242,8.77849 -2.987,12.01241c-0.91545,1.86831 -2.90429,3.00343 -4.10053,4.70569c-0.72585,1.03289 -1.15391,1.8324 -1.44645,2.60342c1.66766,2.37809 -0.58993,4.46202 -0.58993,4.46202c-0.07338,0.06773 -0.14746,0.13659 -0.2222,0.20653l0.01489,0.22165c0,0 0,3.5 -3.5,3.5z" fill="#170619" stroke-width="0.5"></path><g stroke-width="0.5"><path d="M368.84651,253.4863l0.25103,-0.01129c0,0 1.3144,0 2.12578,0.90871l2.45676,-0.30709c0.12553,-0.01754 0.25377,-0.02662 0.38413,-0.02662c1.51878,0 2.75,1.23122 2.75,2.75c0,1.23706 -0.81681,2.28334 -1.94053,2.62893l-1.78136,0.59379c-0.03581,0.16152 -0.09079,0.32171 -0.14282,0.46865c-1.81756,5.13356 -4.50541,5.35748 -9.55196,5.39196c-0.16857,0.00115 -7.52697,0.0135 -7.81047,-0.04171c-5.85463,-1.14005 -11.73956,-5.22914 -14.83854,-10.225c-0.62084,-1.00085 -1.39905,-1.96592 -1.67553,-3.11078c-0.80394,-3.32891 -0.02103,-11.39678 3.65011,-13.03852c0.84843,-0.37942 1.67853,0.20331 2.51057,0.86306c1.19054,0.03611 1.91691,0.9724 2.17912,1.38307c1.63792,0.70528 5.15124,2.14445 5.61389,2.90604c0.78524,1.29261 0.28906,3.01101 0.43358,4.51652c-0.04163,0.16652 -0.09002,0.3662 -0.14224,0.59263c4.07159,3.75408 10.13167,3.2671 15.52848,3.75766z" fill="#0e040f"></path><path d="M333.32009,240.17721c-0.26687,-0.04658 -0.52993,-0.11388 -0.78812,-0.20824c-2.80256,-1.02419 -2.47823,-3.23066 -4.31271,-5.03106c-0.90832,-0.89144 -2.04255,-1.93769 -3.24589,-2.90459c-0.00224,0.00001 -0.00448,0.00001 -0.00672,0.00001c-0.49699,0 -0.93752,-0.2417 -1.21047,-0.61397l-0.49947,-0.66596c-0.7691,-0.52464 -1.53656,-0.9759 -2.2644,-1.29705c-0.60812,-0.26832 -1.54795,0.24496 -1.97664,-0.26301c-0.06697,-0.07936 -1.10641,-3.88444 -1.52625,-4.73332c-0.69375,-1.40273 -1.35344,-2.74527 -1.91041,-4.09892c-1.71261,-1.40224 -3.50114,-2.74697 -4.45983,-4.66874c-0.60454,-1.21184 -0.49623,-2.66518 -0.64523,-4.01122c-0.47248,-4.26831 -2.73689,-8.95006 1.11563,-12.36467c2.37872,-2.10832 6.20806,-1.796 9.13679,-1.76377c3.00145,-1.00048 6.57836,-0.51937 9.74027,-0.51937c0.23858,0 4.66096,-0.02202 4.93468,0.06436c1.28663,0.40606 1.92566,1.89654 2.97581,2.74358c0.48031,0.38741 1.37525,0.1836 1.71403,0.69936c0.60549,0.92179 0.56424,2.13235 0.84635,3.19853l0.01305,0.35587c1.07056,-0.45227 1.76415,0.58813 1.76415,0.58813c1.74128,2.61464 3.26951,5.05407 5.46817,7.25909c2.45811,2.46523 5.7874,4.24505 7.96607,7.14984c2.58273,3.44353 4.00955,7.48574 6.11506,11.17023c0.24951,0.43662 0.52618,0.84713 0.81903,1.24096c0.74485,0.04999 1.16984,0.75831 1.16984,0.75831c0.96017,1.61531 2.42248,2.88326 3.46602,4.44601c0.05482,0.08209 0.10888,0.16477 0.1623,0.24795c1.50959,0.63083 3.12891,0.27671 4.73707,2.11666c0.10792,0.12347 0.30387,0.44462 0.52859,0.87137c1.48863,0.1623 2.98707,0.32197 4.50306,0.60099c0.72469,0.13338 1.62778,-0.1999 2.19379,0.2719c0.96784,0.80674 0.35399,2.56635 1.00875,3.64284c0.45039,0.74048 1.43782,1.04614 1.89016,1.78543c0.54257,0.88677 0.54467,2.02076 1.00804,2.95136c1.08071,2.17039 4.5759,5.30982 2.43284,8.2143c-0.48971,0.66371 -1.49501,0.69731 -2.24252,1.04596l-0.02746,0.04233c-0.09588,0.25049 -0.25186,0.44777 -0.37275,0.57455l-0.01347,0.02076c0,0 -0.02806,0.02806 -0.07962,0.07049c-0.04929,0.04504 -0.08104,0.06885 -0.08104,0.06885c-1.4091,1.03365 -2.9858,2.04817 -4.71673,2.28876c-0.72084,0.10019 -1.45551,0.01296 -2.18327,0.01124c-0.59579,-0.00141 -1.59044,-0.6867 -1.78314,-0.12293c-0.06264,0.18325 -0.12091,0.38029 -0.17622,0.58843c-3.64668,-0.14932 -7.25335,-0.15427 -10.01562,-0.73289c-5.57355,-1.16751 -9.73143,-6.06422 -13.93671,-9.48101c-4.50143,-3.65741 -11.30183,-7.26905 -17.52587,-9.1716c0.03465,-0.83079 0.1206,-1.64986 0.291,-2.43613z" fill="#661b71"></path><path d="M342.31488,202.83311c-2.35811,1.41486 -3.77297,-0.94324 -3.77297,-0.94324l-0.04189,-0.46486c-3.79632,-3.06679 -10.9947,-1.90054 -15.25391,-0.58339c-0.54521,0.1686 -1.13898,0.17959 -1.70118,0.28226c-0.92033,0.59429 -1.81543,1.32244 -2.68453,2.20298c-1.01045,1.47322 -1.95155,3.31347 -2.81694,4.1425c-0.10478,0.10038 -0.20661,0.19679 -0.30577,0.28948c0.20711,0.65556 0.14869,1.23981 0.14869,1.23981c-0.04777,0.47177 -0.09947,1.1781 -0.18635,1.96704v0.41766c0,0.35915 -0.06885,0.70221 -0.19406,1.01672c-0.28416,1.71011 -0.79298,3.39501 -1.7961,3.74296c-6.581,2.28277 -5.85518,-2.03187 -6.66645,-5.03582c-3.48127,-1.83132 -5.46716,-7.205 -4.78723,-10.61014c1.11571,-5.58754 7.31893,-8.57487 11.78739,-11.04338c5.83132,-0.94174 13.4492,-2.01488 19.39515,-0.16271c0.46815,0.04294 0.94484,0.09837 1.43222,0.16781l0.42601,0.43613l0.11057,-0.17691l1.66965,1.04353c0.73757,0.2854 1.458,0.59513 1.96649,1.17211c0.71453,0.81076 0.43889,2.15139 0.96607,3.09476c0.34094,0.61011 1.03433,0.94025 1.55149,1.41038l1.03879,0.74454c0,0 1.62214,1.2166 1.03593,2.95336c0.13812,0.80529 0.00594,1.9002 -1.32107,2.69641z" fill="#0e040f"></path><path d="M321.65004,194.16251c0,0.53588 -0.19145,0.88032 -0.43755,1.1017c0.0126,0.15216 0.02369,0.29739 0.02927,0.43592c0.19542,0.46076 0.4031,0.91643 0.61815,1.36775l-0.11631,0.34463h0.15644v1.5c0,0.82843 -0.67157,1.5 -1.5,1.5c-0.5988,0 -1.11566,-0.35088 -1.35617,-0.85825l-0.73547,-1.47093l0.06325,-0.03163c-0.06481,-0.09498 -0.12553,-0.193 -0.18148,-0.29457c-0.02517,-0.04569 -0.03514,-0.86302 -0.03885,-1.71137c-0.15265,-0.38233 -0.29349,-0.76936 -0.42431,-1.15892c0,0 -0.47434,-1.42302 0.94868,-1.89737c0.4292,-0.14307 0.77209,-0.11353 1.04171,-0.0025l0.43263,-0.32448c0,0 1.5,0 1.5,1.5z" fill="#99712b"></path><path d="M307.26283,205.2986c-0.07044,-0.17444 -0.11278,-0.3841 -0.11278,-0.63609c0,-1.5 1.5,-1.5 1.5,-1.5l1.33205,0.25192c0.6791,0.54527 1.80795,0.79564 2.03731,1.63582c0.77048,2.82245 -1.01983,5.24562 -4.08892,3.50678c-0.72955,-0.41333 -0.50669,-1.59862 -0.76003,-2.39793c0,0 -0.07117,-0.42703 0.09237,-0.8605z" fill="#99712b"></path><path d="M366.07308,262.63685c-0.06604,0.19811 -0.15046,0.35944 -0.24686,0.4904c-0.1513,0.73109 -0.09105,1.58963 -0.6155,2.09592c-3.59984,3.47515 -11.8039,-3.4274 -4.69537,-5.0546c1.10264,-0.2524 2.25355,0.247 3.38471,0.24394l1.22434,0.32698c0,0 1.42302,0.47434 0.94868,1.89737z" fill="#99712b"></path><path d="M345.19536,254.74145c0.2505,-1.07894 1.45469,-1.07894 1.45469,-1.07894l0.39823,0.04232c0.38679,-0.1084 0.94175,-0.12687 1.4128,0.3857c0.46603,0.13808 0.90231,0.31062 1.15584,0.69492c0.75711,1.14765 0.26942,4.8792 -1.45093,5.28554c-3.36289,0.79431 -4.52068,-2.27439 -3.58845,-4.61626c0.12031,-0.30225 0.34685,-0.52449 0.61782,-0.71327z" fill="#99712b"></path><path d="M339.38022,246.98921c0.00025,-0.16539 0.02933,-0.34862 0.0968,-0.55104c0.47434,-1.42302 1.89737,-0.94868 1.89737,-0.94868l0.39552,0.43256c0.24281,0.15146 0.39661,0.34053 0.49129,0.5373l0.86843,0.94976c-0.12444,0.67109 -0.42958,1.28441 -0.83494,1.84983l0.35343,0.23562l-0.98709,1.48064c-0.26708,0.41355 -0.73206,0.68731 -1.26098,0.68731c-0.82843,0 -1.5,-0.67157 -1.5,-1.5v-1.5h0.0985l-0.07913,-0.24027c0.1536,-0.47768 0.3072,-0.95535 0.4608,-1.43303z" fill="#99712b"></path></g><path d="M269.43514,200.81178l-2.20656,-3.9905l-0.15141,-0.10922c0.02302,-0.01324 0.04603,-0.02648 0.06905,-0.03972l-0.10858,-0.19637c0,0 0.07791,-0.10028 0.22087,-0.23631c-0.23768,-0.24289 -0.44832,-0.50334 -0.62592,-0.77816c-1.90456,-2.94706 0.02267,-11.31058 3.57493,-12.47401c1.66624,-0.54572 3.92964,-1.24059 5.25909,-0.09746c1.38368,1.18975 0.92581,3.57421 0.90655,5.39895c-0.00445,0.42197 -0.16794,0.81019 -0.36653,1.19249c0.26929,-0.17247 0.54059,-0.342 0.81335,-0.50883l-0.04059,-0.03393l1.86944,-2.23655c0.53469,-0.66561 1.41257,-1.01789 2.30775,-0.83934c1.28077,0.25547 2.11194,1.50084 1.85647,2.78161c-0.04584,0.22982 -0.12355,0.44516 -0.22762,0.64234l-1.18034,2.36372l-0.05209,-0.02601l-0.01168,0.14508c-2.29254,3.50928 -4.87526,5.87605 -8.18658,8.34977c-0.32262,0.36406 -0.80027,0.67343 -1.49662,0.69514c-0.4516,0.06408 -0.97904,0.00778 -1.48804,-0.35401c-0.0209,-0.01179 -0.04141,-0.0238 -0.06152,-0.03602c-0.22447,0.12911 -0.44895,0.25821 -0.67342,0.38732z" fill="#99712b" stroke-width="0.5"></path><path d="M75.67172,224.4788l-0.72348,-0.54261c-4.03531,-1.86659 -8.12595,-3.35043 -10.98758,-7.18969c-0.49707,-0.66689 -0.87275,-1.40879 -1.20499,-2.17745c-0.68798,-0.5346 -1.36334,-1.09247 -2.01271,-1.67522c-2.2345,-1.4425 -4.41476,-2.7239 -6.24294,-5.09383c0,0 -1.82846,-2.43794 0.2018,-4.47024c-0.25657,-0.48674 -0.4018,-1.04129 -0.4018,-1.62976c0,-0.30724 0.03959,-0.60523 0.11394,-0.88916c-1.13276,-13.0237 7.59239,-26.25433 14.35887,-36.36758c1.11816,-2.22103 2.80258,-4.12581 3.9171,-6.34867c0.47402,-0.94542 0.45318,-2.07229 0.81231,-3.06705c0.77641,-2.15056 2.11188,-4.0573 3.24659,-6.04227c1.09743,-1.91975 1.00675,-4.38778 2.16805,-6.26959c0.59034,-0.9566 1.76409,-1.39715 2.58992,-2.15976c1.91053,-1.76428 3.86232,-3.48396 5.75575,-5.26658c1.24517,-1.17229 1.24929,-3.21298 2.19811,-4.63582c0.50677,-0.75994 1.59146,-0.9751 2.15221,-1.69613c0.68637,-0.88255 0.80994,-2.12033 1.5,-3c3.2801,-4.18135 8.52173,-5.93985 12.38393,-9.39276c1.33156,-1.19045 2.27139,-2.76578 3.54449,-4.01856c2.38909,-3.98182 4.62713,-5.28085 8.59165,-7.42354c2.31575,-1.25159 4.34994,-3.01133 6.73847,-4.11769c1.59427,-0.73847 3.34191,-1.10773 5.00659,-1.67222c1.20639,-1.03784 3.66929,-3.14791 4.03611,-3.36769c2.68415,-1.60824 5.70125,-2.00534 8.34013,-3.67088c4.87001,-3.07373 9.68235,-6.25326 15.13095,-8.2296c2.4846,-0.90123 5.19565,-0.97314 7.7926,-1.4644c7.08347,-1.33999 13.88156,-4.00959 21.18889,-4.05004c13.77578,0 27.71447,-1.1311 41.47032,-0.32992c2.78242,0.16205 5.45166,0.78336 8.09929,1.51149c4.87751,0.20373 9.89349,1.3759 14.35249,3.42453c1.94502,0.4833 3.83311,1.09681 5.82786,1.94958l0.26957,0.46272c1.44329,0.7195 2.91707,1.41736 4.38914,2.129c1.1742,0.36698 2.33119,0.79986 3.44766,1.40502c0.64716,0.35079 1.20824,0.84813 1.80299,1.28556c0.44488,0.24918 0.88581,0.5039 1.32178,0.76521c3.35493,1.51201 6.89019,2.51915 10.08586,4.56953c3.52565,2.2621 7.68817,5.11675 10.92226,7.80671c1.06727,0.8877 2.29807,1.74065 3.66628,1.9754c2.7285,1.93799 5.73416,3.87175 7.83013,6.54123c0.82271,1.04783 1.48696,2.21087 2.13295,3.3886l3.276,-1.48261c-0.38889,1.28239 -0.78555,2.5391 -1.20225,3.76761c1.46781,1.41773 2.97404,2.91394 3.81718,4.76604c0.35012,0.76909 0.5257,1.56264 0.56467,2.36411c0.05563,0.17149 0.10704,0.34352 0.15454,0.51606c1.30577,0.49643 2.65217,0.92286 3.4136,2.0212c1.22445,1.76621 3.02481,3.80003 2.58934,5.90458c-0.32658,1.57829 -2.84705,1.5117 -4.27755,2.25421c-0.40693,0.21123 -0.81598,0.4084 -1.22567,0.59751c-0.00296,1.83105 -0.02543,4.21164 -0.13715,4.52152c-1.69301,4.69585 -3.62848,5.67506 -7.07308,8.68086c-4.12593,3.60034 -6.22717,5.69055 -11.22414,7.98585c-0.58025,2.3816 -0.88104,4.83443 -0.87739,7.30175c0,0 0,2.08814 -1.81959,2.62525c-0.05942,0.05857 -0.1215,0.11446 -0.18603,0.16747l-1.98387,1.65322l-0.10433,-0.12519l-0.15097,0.31407c-0.3871,0.19318 -0.7652,0.39961 -1.13603,0.6167c-0.94531,1.24255 -2.68182,1.77861 -3.88807,2.81495c-3.2104,2.75819 -5.80849,4.84373 -9.59682,6.73261c-4.84175,2.41411 -9.17208,5.91007 -13.97614,8.3214c-3.49171,1.75262 -7.31954,2.52018 -10.95404,3.79203c-2.78756,0.97547 -5.21498,2.46017 -7.87867,3.61848c-3.59702,1.56417 -7.24738,2.40654 -10.74004,4.36327c-4.64708,1.09965 -9.18769,3.06642 -13.89952,3.82097c-4.62052,0.73993 -9.40523,1.14539 -13.9452,1.99063c-2.72134,0.50665 -5.43642,1.90937 -8.10475,2.61507c-1.93496,0.51174 -3.93616,0.77312 -5.93948,1.03311c-0.9335,0.34887 -1.67931,0.62187 -1.78859,0.64943c-1.8808,0.47448 -3.87322,0.6636 -5.8238,0.94964c-0.10136,0.02968 -0.41028,0.11064 -0.80966,0.12577c-0.49047,0.08115 -0.97689,0.17193 -1.45677,0.27855c-4.35937,0.96857 -8.14426,2.77697 -12.32763,4.23879c-4.04864,1.41474 -7.706,2.22803 -11.60818,4.0802c-1.63337,0.03343 -4.38295,-0.05889 -5.9727,0.5549c-1.00684,0.38873 -1.73266,1.35645 -2.75598,1.69946c-1.92639,0.64571 -4.08258,0.0654 -6.07915,0.44174c-1.881,0.35456 -3.59008,1.44163 -5.488,1.69019c-1.96253,0.25702 -3.97149,0.03111 -5.92904,0.32366c-2.43857,0.36443 -4.73954,1.36573 -7.13197,1.96215c-5.32973,1.32867 -10.85055,1.85436 -16.20899,2.70564c-1.12176,0.17821 -2.23561,0.44781 -3.35374,0.66643c-0.73583,0.50468 -1.48247,0.97502 -2.33878,1.16646c-1.8026,0.403 -3.72423,0.38563 -5.54107,0.05261c-1.02535,-0.18794 -1.71148,-1.25791 -2.70779,-1.56457c-1.20992,-0.3724 -2.5546,-0.08786 -3.77335,-0.43026c-2.29982,-0.64612 -4.24045,-2.20199 -6.3364,-3.34813c-0.02812,-0.01538 -0.05625,-0.03071 -0.08441,-0.04599c-0.67052,-0.06391 -1.28587,-0.31699 -1.79207,-0.70527z" fill="#290b2d" stroke-width="0.25"></path><path d="M214.8146,194.92134c0.98169,-0.1367 2.02396,0.40811 2.97121,0.11635c0.97423,-0.30007 1.56759,-1.33273 2.47651,-1.79428c0.83914,-0.42612 1.88573,-0.35726 2.69767,-0.83317c1.7571,-1.02991 2.82472,-3.01012 4.57787,-4.04674c1.65526,-0.97874 3.70441,-1.0525 5.5001,-1.74051c2.83823,-1.08745 4.20299,-2.90103 7.36375,-3.61822c3.83113,-1.28683 8.27745,-2.13682 11.92927,-3.79402c3.78003,-1.71538 7.07916,-5.30575 10.75092,-7.37249c3.33334,-1.87626 7.09684,-3.22594 10.26519,-5.35521c4.50122,-3.02502 8.56374,-6.5506 12.79902,-9.85425c0.76627,-0.59772 1.72815,-0.90949 2.5,-1.5c0.9047,-0.69214 1.36644,-2.24331 2.50244,-2.32714c0.34626,-0.02555 0.69074,-0.02465 1.0338,-0.00268l-0.0687,-0.34349l2.42913,-0.48583c0.24385,-0.05379 0.49725,-0.08214 0.75727,-0.08214c1.933,0 3.5,1.567 3.5,3.5c0,1.50235 -0.94656,2.78361 -2.27583,3.27995l-1.72048,0.68819c-2.65117,3.96751 -6.63869,6.53246 -10.16946,9.63981c-0.83558,0.73537 -1.47767,1.70214 -2.40751,2.314c-1.67585,1.10274 -5.76477,1.40316 -7.15742,2.74269c-0.70041,0.6737 -0.76182,1.86791 -1.5,2.5c-0.83556,0.71548 -2.06491,0.79164 -3.00711,1.35938c-2.02976,1.22308 -3.45151,3.31462 -5.50263,4.50153c-1.25808,0.72801 -2.76719,0.91612 -4.07808,1.54408c-1.10882,0.53116 -2.80961,2.64557 -3.52753,3.18909c-2.96937,2.24801 -6.73331,3.14982 -10.1158,4.58377c-2.95482,0.54789 -4.84657,2.09159 -7.60435,3.35035c-4.03691,1.8426 -8.17499,3.44993 -12.2065,5.08493c-2.05225,0.8323 -3.49915,2.90673 -5.6205,3.54263c-3.9095,1.17191 -9.03172,-0.11416 -13.04616,0.63441c-5.03588,0.93904 -9.94646,1.88071 -14.96715,2.89489c-1.80077,0.5312 -3.68017,0.83923 -5.45403,1.45964c-2.80274,0.98025 -5.18685,2.9403 -7.96516,3.9878c-2.21032,0.83335 -4.07607,0.44975 -6.26788,1.08347c-4.68292,1.35398 -9.2312,3.20206 -14.1583,3.6106c-3.83069,0.31763 -7.63101,1.21935 -11.45943,1.49688c-0.66134,0.04794 -1.35476,-0.28371 -1.99742,-0.20241c-0.18285,0.06129 -0.36586,0.12168 -0.54903,0.18112c-0.80887,0.41398 -1.37007,1.29023 -2.2045,1.67731c-1.64058,0.76105 -3.42626,1.1591 -5.13939,1.73865c-1.56496,0.31697 -3.24611,0.25475 -4.70355,0.90701c-1.9231,0.86065 -3.59241,2.24789 -5.5532,3.01884c-1.97471,0.77642 -4.30276,-0.00414 -6.33745,0.59778c-1.42947,0.42288 -2.57364,1.56672 -4,2c-0.87516,0.26584 -1.84361,-0.11518 -2.7435,0.04843c-5.55729,1.01042 -10.62542,2.0684 -16.40552,1.52816c-1.54553,-0.14445 -2.97252,-0.79635 -4.38513,-1.50017c-3.86817,-0.31069 -7.36076,-1.58189 -10.92683,-3.03386c-0.78832,-0.16523 -1.56672,-0.35591 -2.32728,-0.59014c-1.68181,-0.51794 -3.29303,-1.12424 -4.84207,-1.81602c-2.16041,-0.10203 -4.43135,-0.20227 -5.83233,-0.74008c-1.62097,-0.62226 -2.69386,-1.66502 -3.74691,-2.76929c-0.34431,-0.05692 -0.6601,-0.16703 -0.93576,-0.29548c-0.59026,-0.21502 -1.24625,-0.60647 -1.67847,-1.31909c-1.05078,-1.09042 -2.02951,-2.20258 -3.04964,-3.27695l-2.23057,-0.89223c-2.03213,-0.82173 -5.34905,-1.92686 -6.59322,-3.77989c-0.89328,-1.33042 -0.88671,-3.0922 -1.09499,-4.6811c-0.00998,-0.07615 -0.01934,-0.15229 -0.02808,-0.22842c-0.04484,-0.2159 -0.06853,-0.44407 -0.06232,-0.68223c-0.34541,-5.05174 1.83213,-10.07306 2.6261,-14.95343c0,0 0.00831,-0.04987 0.02893,-0.13664c0.01568,-0.08779 0.02795,-0.13684 0.02795,-0.13684l0.765,-2.71637c1.63828,-3.25348 1.98008,-6.58131 3.4297,-9.85069c1.47179,-3.3194 4.36836,-5.37969 6.22352,-8.42412c4.0702,-6.67944 7.45992,-13.73913 11.83317,-20.19767c1.02359,-3.10456 2.33233,-6.04624 4.66923,-8.43714c1.14323,-1.16965 2.68922,-2.00658 3.5267,-3.41146c1.9439,-3.2609 3.78644,-6.90734 6.53288,-9.64671c0.76849,-0.76651 1.90603,-1.05744 2.76136,-1.72567c2.86032,-2.23464 5.59396,-4.93137 8.31972,-7.34923c4.56874,-4.05266 8.2119,-7.71601 13.76898,-10.52255c0,0 0.94766,-0.47383 2.06088,-0.37869c4.25443,-3.23369 8.27604,-7.12861 11.73318,-11.00958c0.11292,-0.02524 5.22087,-1.05375 6.09859,-1.55572c0.96455,-0.55163 1.60176,-1.61536 2.61922,-2.06192c1.28679,-0.56478 2.66743,-0.90158 4.05649,-1.15569c1.79526,-1.20963 3.57518,-2.83208 5.48265,-3.55773c0.67854,-0.25814 1.52273,0.4353 2.17485,0.11624c0.76448,-0.37403 0.96469,-1.43059 1.62043,-1.97312c1.15323,-0.95414 2.39699,-1.82977 3.7499,-2.47007c10.52241,-4.98006 22.65741,-5.52008 33.98793,-6.79001c2.15761,-0.36039 4.32066,-0.68855 6.48616,-0.99805l1.4494,-0.0341c0.02967,-0.00107 0.04558,-0.00107 0.04558,-0.00107c5.24272,0 10.81054,-0.31956 15.98545,0.53383c1.19718,0.19743 2.29739,0.83894 3.5,1c2.00641,0.26871 4.08073,0.07403 6.08029,0.33183c2.57271,0.07593 5.12847,0.1358 7.65173,0.14111c2.21779,0.28226 3.93459,0.68726 5.59818,1.24096c1.30855,0.00459 2.5992,0.07844 3.84621,0.31543c2.37215,0.45082 4.97973,1.10506 7.45971,1.88785c0.35596,0.01176 0.70393,0.0454 1.04029,0.11215c2.54302,0.50471 5.30789,1.72918 7.83047,3.06504c0.10259,0.04052 0.20509,0.08123 0.30752,0.12214l2.26538,1.11917c0,0 0.44689,0.22345 0.91856,0.67034l0.62299,0.13976c0,0 3.32039,1.1068 2.21359,4.42719c-1.1068,3.32039 -4.42719,2.21359 -4.42719,2.21359l-2.19394,-0.81917c-0.75717,-0.45868 -1.59503,-0.95486 -2.47587,-1.4407c-1.62472,-0.63832 -3.27127,-1.22208 -4.92724,-1.77408c-0.91377,-0.37115 -1.87343,-0.71086 -2.85519,-1.02316c-2.38958,-0.13413 -4.71121,0.43937 -7.20305,-0.49876c-1.70869,-0.64329 -2.8719,-1.22107 -4.08631,-1.69592c-3.11565,0.00142 -6.35575,0.38672 -9.31348,-0.13176c-0.97796,-0.17143 -1.82576,-0.7963 -2.78122,-1.0663c-0.00439,-0.00124 -0.00879,-0.00248 -0.01318,-0.00371c-9.81786,-0.27972 -19.94618,-0.78642 -29.35731,1.0652c-2.27208,0.44703 -5.34366,0.01515 -7.47712,0.85242c-4.3081,1.69071 -8.59301,3.92029 -12.65402,6.35101c-3.34726,1.28369 -5.31342,1.00728 -8.71039,1.3475c-1.49793,0.15003 -2.90569,0.52842 -4.2808,0.99724c-2.19199,1.55087 -4.74023,2.48124 -7.50345,2.9746c-0.55138,0.09845 -1.11778,0.14196 -1.69386,0.15173c-1.28449,0.9667 -2.3412,2.28018 -3.77339,3.00973c-2.297,1.17008 -4.97306,1.52545 -7.19853,2.82644c-0.72393,0.42321 -1.07491,1.30646 -1.74091,1.81601c-1.90332,1.45622 -4.29702,2.12602 -6.40213,3.27132c-0.82624,0.44952 -1.41255,1.30912 -2.28931,1.64975c-2.52982,0.98287 -5.28228,1.27833 -7.8557,2.1406c0,0 -0.15329,0.0511 -0.40497,0.09839c-2.4894,1.94545 -5.018,3.81561 -7.48287,5.78791c-2.38389,1.9075 -5.50826,3.61162 -7.29702,6.22002c-0.5076,0.7402 -0.49771,1.75619 -1,2.5c-2.75952,4.08641 -6.34936,6.91099 -7.34807,11.93754c0.05212,0.83333 -0.26227,1.52645 -0.62867,2.04006c-0.31965,0.5477 -0.82625,1.12189 -1.61444,1.41498l-0.8893,0.59287c-2.35081,1.56085 -6.15894,3.55429 -7.75432,5.83044c-2.86556,4.08833 -3.7932,7.57388 -7.85291,10.86533c-3.72026,3.66736 -4.83666,7.52726 -7.23257,12.0137c-1.56791,2.93596 -3.98815,5.24081 -5.55048,8.09309c-0.9336,1.70443 -2.05516,3.33953 -2.66843,5.1836c-0.24255,0.72934 0.23584,1.56065 0.04577,2.30539c-0.67697,2.65263 -2.35664,4.98003 -3.03014,7.63354c-0.64755,2.55124 -0.55906,5.68919 -0.41541,8.31785c0.01497,0.27387 0.05038,1.152 0.32508,1.69371c0.07167,0.05974 0.14336,0.11945 0.21508,0.17913c0.70919,0.07864 1.24943,0.31687 1.66097,0.63419c0.04944,0.01201 0.09829,0.02461 0.14637,0.03802c0.36572,-0.12962 0.75939,-0.20017 1.16954,-0.20017c0.26002,0 0.51342,0.02835 0.75727,0.08214l2.42913,0.48583l-0.04547,0.22734c0.33803,0.01478 0.67499,0.05231 1.01056,0.11883c1.30126,0.25794 2.00129,1.7475 2.91652,2.70779c0.85488,0.89697 1.85273,2.30828 2.95608,3.5989c1.05996,0.21858 2.27215,0.66671 4.4191,1.59058c1.22092,0.52538 2.19996,1.50447 3.34754,2.17201c0.1613,0.03397 0.32246,0.06842 0.48347,0.10329c2.7275,0.59075 5.25246,2.19592 8.07065,2.43033c4.96597,0.41305 10.16791,-0.01703 15.15512,-0.01703h1.71435c4.02413,-0.69622 8.3566,-0.67006 12.0818,-2.28645c7.64817,-2.52728 15.93172,-2.22222 23.70654,-4.56845c0.25632,-0.07735 0.51224,-0.15651 0.7678,-0.23739c0.23556,-0.09309 0.47378,-0.17944 0.71527,-0.25753c0.16166,-0.05227 0.32468,-0.09752 0.48889,-0.13673c12.32312,-4.16594 23.87006,-11.97918 37.23668,-12.00152c6.87335,-1.17514 13.60637,-2.6689 20.4438,-3.99489l0.34488,0.17769v-0.19472h2.5c0.60906,0 1.18178,0.15557 1.6806,0.42914c2.61243,-0.53564 5.22827,-1.03247 7.83394,-1.39531zM169.74478,86.25204c0.40236,-0.24202 0.80555,-0.47642 1.20962,-0.70399c-0.49844,0.08734 -0.99596,0.17926 -1.49247,0.2763c-1.17429,0.22951 -2.52134,0.58873 -3.91001,1.01831c1.41338,0.02612 2.62364,0.09174 4.19286,-0.59062z" fill="#51165a" stroke-width="0.5"></path><path d="M312.30888,194.76319l-1.04253,-1.30317c-0.36151,-0.44405 -0.58719,-1.0031 -0.61367,-1.61381c-2.86972,-2.80749 -5.56424,-6.69158 -6.83377,-10.17243c-1.23257,-3.37951 -0.4581,-6.52437 -0.15948,-9.92559c0.12027,-1.3699 -0.31184,-2.8198 0.12543,-4.1236c0.64586,-1.92573 3.93758,-5.97968 6.23658,-8.04719c1.01678,-1.51755 2.43622,-2.91631 4.3965,-4.16881c0.99025,-0.63271 2.0362,-1.22217 3.16216,-1.55849c4.68803,-1.4003 10.43204,-0.69547 15.22834,-0.3446c3.13466,0.73293 6.04691,0.15142 9.11167,0.76913c3.40568,0.68642 6.01711,3.03205 8.63138,5.26908c0.63312,0.18721 1.06649,0.53391 1.06649,0.53391l1.60167,1.3365c0.17081,0.19549 0.39637,0.44805 0.65283,0.73745c0.01766,0.0118 0.03533,0.02356 0.05301,0.03529l1.01831,0.32754c0.89704,0.1367 1.42936,0.61035 1.74524,1.12433c0.35435,0.45566 0.60454,1.08387 0.46173,1.91504c0.00194,0.4616 0.00765,0.92389 0.01451,1.38656c0.52079,2.41379 -0.05852,5.99771 -0.27766,8.29597c-0.17652,1.85125 0.13434,3.76263 -0.29989,5.57087c-0.78337,3.26216 -2.99677,6.32318 -5.03277,8.8763c-1.02616,1.28679 -1.63272,3.08203 -3.08618,3.85423c-0.14823,0.07875 -0.29904,0.15012 -0.45213,0.21496l0.04827,0.08044l-1.66486,0.99892v1.89298c-0.00834,4.39743 0.04494,10.2518 -2.81728,13.92279c-2.34546,3.00821 -2.78926,2.39718 -5.75194,3.81081c-5.8869,2.8089 -10.82879,5.14735 -16.38304,2.02217c-1.35899,-0.3959 -2.57222,-1.04932 -3.44025,-2.03177c-0.13907,-0.1574 -0.25507,-0.3286 -0.35391,-0.51005c-0.53563,-0.37172 -1.02718,-0.78371 -1.37649,-1.32404c-1.12217,-1.73585 -0.82073,-4.06327 -1.48598,-6.02028c0,0 -0.21393,-0.64179 -0.11126,-1.39483c-0.27918,-0.43444 -0.55515,-0.87092 -0.8281,-1.30918c-0.32275,-0.37217 -0.49706,-0.8072 -0.59121,-1.16854c-0.0935,-0.30573 -0.16525,-0.68826 -0.13386,-1.09707c-0.25286,-2.58421 -0.40527,-4.6742 -0.81787,-6.86182z" fill="#671b72" stroke-width="0.5"></path><path d="M295.07,161.38001c0,-10.07728 -0.77478,-19.90326 -0.00007,-30.04694c-2.14316,-3.0395 -3.57906,-6.48918 -3.59993,-10.35212c-0.00001,-0.00063 -0.00001,-0.00094 -0.00001,-0.00094v-0.8c0.00417,-2.55142 0.19902,-5.09371 0.20128,-7.65664c1.02647,-11.29119 5.80213,-23.16955 11.5713,-32.97713c0,0 0.01532,-0.02604 0.04523,-0.06764c-0.01032,-0.23299 -0.01636,-0.46587 -0.01782,-0.69859c0,0 0,-1.15667 1.11265,-1.24471c0.17735,-0.12271 0.41606,-0.20529 0.73735,-0.20529c1.25,0 1.25,1.25 1.25,1.25v1c-0.10172,1.42374 0.86052,2.39867 1.17621,3.95726c0.26395,1.30318 0.00608,3.43819 0.30677,5.02461c0.11667,0.3576 0.23285,0.71276 0.34693,1.06502c0.0386,0.0731 0.08014,0.14303 0.12486,0.20949c1.43724,2.13597 4.91266,4.07215 7.63541,4.6998c-0.04667,-0.22224 -0.07389,-0.36769 -0.07809,-0.38281c-0.02307,-3.76778 0.13425,-6.7493 1.70481,-9.15352c0.02014,-0.29237 0.04327,-0.58471 0.06979,-0.87702l1.56719,-0.97553c0.36775,-0.31716 0.77533,-0.6225 1.22696,-0.91673c0.33148,-0.24974 0.69071,-0.46417 1.07984,-0.63691c0.02412,-0.01292 0.04835,-0.02582 0.07267,-0.03869l1.55654,-1.16741c0.21062,-0.16156 0.47415,-0.25758 0.7601,-0.25758c0.69036,0 1.25,0.55964 1.25,1.25c0,0.38936 -0.17802,0.73714 -0.4571,0.96639l-1.19267,0.99389l-0.04309,-0.05171l-0.07295,0.13757c-0.31534,0.1593 -0.61083,0.31968 -0.88774,0.48172c-0.54411,0.89943 -1.47795,1.62829 -2.0775,2.82935c-0.15908,0.31868 -0.29836,0.6268 -0.42028,0.92786c-0.00386,2.95537 -0.9037,6.37115 -0.02016,8.9664c1.92791,1.10504 3.75536,2.34466 5.88538,3.33348c2.84072,1.31875 6.04698,2.2603 8.79744,3.69819c2.93952,1.53673 5.2149,4.14974 7.92787,6.01074c1.9119,1.3115 3.61583,2.42198 5.17559,3.7534c0.33459,-1.42278 0.8761,-2.80765 1.69165,-4.13538c1.29721,-2.11189 4.39164,-3.79111 6.26268,-5.28797c0,0 0.97609,-0.78087 1.75695,0.19522c0.1051,0.13137 0.17837,0.2592 0.22647,0.38207c0.11166,0.04434 0.22776,0.10904 0.34744,0.1988c1,0.75 0.25,1.75 0.25,1.75c-3.53899,4.71401 -5.60594,13.12769 -2.13422,18.59684c1.50371,2.36887 3.4065,4.42916 5.32093,6.4679c0.11521,-2.0854 0.34133,-4.11522 0.57295,-5.96978c0,0 0.00763,-0.06103 0.03304,-0.15432c0.05669,-0.23609 0.18867,-0.55365 0.49591,-0.75273c0.18953,-0.13118 0.44517,-0.21422 0.78912,-0.18626c0.34476,0.01491 0.58813,0.12902 0.75992,0.2827c0.28017,0.23565 0.37174,0.56713 0.39871,0.80842c0.01364,0.09572 0.01364,0.15722 0.01364,0.15722l-0.00965,0.44496c0.33732,2.83309 1.34005,6.21981 2.94408,8.5555c0.03931,0.66512 0.09505,1.33569 0.16577,2.00855c1.95054,3.67543 2.93716,8.04173 3.43126,12.50817c0.39599,0.75974 0.76504,1.52597 1.01203,2.31119c1.04834,3.33286 1.55192,7.47194 0.94156,11.23325c0.1215,0.2951 0.11457,0.56989 0.11457,0.56989l-0.04428,1.47159c-0.70618,2.92327 -1.44981,5.83231 -2.18094,8.74872c-0.59914,3.6316 -2.78341,8.86347 -5.02711,11.90183c-1.47663,1.99961 -4.40822,2.55957 -6.53646,3.40833c-5.3914,2.15014 -11.08555,3.43391 -16.83605,2.32294c-0.00825,0.00895 -0.0165,0.0179 -0.02475,0.02683v0.13827h-0.12904c-0.41871,0.44377 -0.85912,0.85961 -1.37844,1.19063c-1.03439,0.65933 -2.33359,0.75713 -3.49723,1.14522c0,0 -0.07591,0.0253 -0.19572,0.0439c-0.11954,0.02025 -0.19956,0.02025 -0.19956,0.02025h-0.4c-0.57046,-0.00105 -1.14093,-0.0021 -1.71139,-0.00314c-4.9574,0.7082 -13.23895,0.73625 -16.66069,-3.66101c-0.75245,-0.96697 -1.10154,-2.22697 -1.93463,-3.12539c-0.70654,-0.76196 -1.35914,-1.40034 -1.95288,-2.01185c-0.47353,-0.02222 -0.87815,-0.30793 -1.07056,-0.71381l-0.49669,-0.99339c-0.29577,-0.2435 -0.56167,-0.51898 -0.80005,-0.81962c-0.94953,3.65366 -3.80216,6.04951 -7.77312,6.12821h-0.05125c-2.44686,0.58446 -6.74072,1.27863 -8.52083,-0.86415c-1.50394,-1.81035 -0.87378,-5.28156 -1.17656,-7.49775c-0.78106,-5.7169 -2.70653,-12.73864 0.49864,-17.96054z" fill="#400d48" stroke-width="0.5"></path><g stroke-width="0.5"><path d="M381.64244,305.47663c-0.58115,-1.03539 -1.5546,-1.99619 -1.59952,-3.18266c-0.03855,-1.0187 -0.10815,-2.24055 0.09919,-3.301c-0.15853,0.02202 -0.31717,0.04346 -0.47587,0.0643c0,0 -2.47893,0.32385 -2.80277,-2.15508c-0.32385,-2.47893 2.15508,-2.80279 2.15508,-2.80279c6.44217,-0.83735 12.64725,-2.78084 18.30914,-6.00314c4.81358,-2.73949 8.26226,-7.55454 12.25099,-11.27902l0.52659,-0.75501c0.24356,-2.20225 0.69641,-3.75666 -0.5962,-5.8845l-0.80044,-1.9044c0,0 -0.95516,-2.31032 1.35517,-3.26549c1.16652,-0.48226 1.98754,-0.13205 2.51458,0.33292c0.84052,-0.0075 1.52345,0.43869 1.52345,0.43869c4.42473,2.97427 10.94051,3.77665 16.10087,5.18415c3.64628,0.99453 7.42699,2.00536 11.0159,3.04966c3.47368,1.01078 6.28318,3.42129 9.86371,4.14731c1.27242,0.25801 2.62629,-0.02978 3.88394,0.29266c1.04392,0.26765 1.88344,1.06578 2.89232,1.44468c2.97038,1.11561 6.17669,1.91728 9.19946,2.97327c1.68977,0.30662 3.36872,0.67964 5.02999,1.11496l2.25553,2.04024c0,0 0.86144,1.0866 0.49195,2.28288c0.09884,0.09005 0.19176,0.18925 0.27753,0.29744c0.62001,0.78205 0.6969,1.82036 0.28329,2.65983l-1.31153,2.80898c-1.62608,7.26491 -0.80165,14.84769 -1.44099,22.25011c-0.28438,3.29266 -1.40251,6.19055 -1.74183,9.37097c0.03933,0.1078 0.07456,0.22289 0.10513,0.34577c0.21457,0.86297 0.04586,1.4953 -0.26062,1.95191c-0.03292,0.16494 -0.08476,0.35913 -0.16633,0.56068l0.05602,2.50514c0,0 -1.05766,2.26525 -3.3229,1.20758c-1.21051,-0.5652 -1.47213,-1.47525 -1.4533,-2.20018c-0.03841,-0.0476 -0.07685,-0.09531 -0.11531,-0.14317c-2.26878,0.54361 -4.66864,1.04203 -6.67492,1.12685c-4.08857,0.17284 -8.83026,-0.80674 -12.90707,-1.27697c-4.61807,-0.53265 -9.61266,-0.64805 -14.0974,-2.02431c-2.38939,-0.73325 -4.61715,-1.97031 -7.04269,-2.57338c-3.62432,-0.90113 -7.33188,-0.91966 -10.89454,-2.20307c-3.11075,-1.12062 -5.33856,-2.11336 -8.64012,-2.72352c-6.65627,-1.9798 -13.32975,-5.32607 -19.64773,-8.25425l-1.67795,-1.69167c0,0 -0.65236,-0.82285 -0.57819,-1.82478c-0.72094,-0.92783 -1.35176,-1.95166 -1.94166,-3.00261z" fill="#c392ca"></path><path d="M407.92778,336.84401c-8.80563,-5.58398 -17.19151,-12.65396 -24.41637,-20.12245c-1.70604,-2.15116 -2.87463,-3.78435 -3.68727,-6.00144c-1.3372,-1.93516 -2.46305,-3.97798 -3.20553,-6.44207l-1.06205,-2.07569c-0.53546,-0.99759 -0.33297,-2.25313 0.52229,-3.02947c-0.07857,-0.2731 -0.16471,-0.54313 -0.26149,-0.80876l-0.54006,-1.48605c0,0 -0.8539,-2.34965 1.49575,-3.20356c2.34965,-0.8539 3.20356,1.49575 3.20356,1.49575l0.54006,1.48605c0.27204,0.75043 0.99945,2.66134 1.54773,4.36374c0.11839,0.0743 0.23442,0.15315 0.34785,0.23701c0.98084,0.72523 0.79268,2.30728 1.18902,3.46091l-0.02146,0.11064l0.04489,-0.00941l0.02765,0.13185c1.42584,-0.33298 2.44257,0.94949 2.44257,0.94949l1.30681,1.69103c3.81351,2.59344 7.65769,4.31473 11.77571,6.34753c4.70283,2.32149 9.19952,5.21413 14.29575,6.70491c0.91289,0.26704 1.91648,0.19437 2.80118,0.54363c1.63933,0.6472 2.99415,1.94929 4.68199,2.45673c2.74128,0.82416 5.73876,0.10355 8.59502,0.42224c0,0 0.09347,0.0108 0.24201,0.04635c0.14993,0.02925 0.23946,0.05817 0.23946,0.05817l0.05534,0.02729c0.21482,0.07328 0.46909,0.18479 0.71405,0.35224l0.11052,0.05451c2.18433,-0.05773 4.37711,-0.59383 6.54673,-0.33427c1.92188,0.22992 3.60602,1.44607 5.48881,1.89516c3.49674,0.834 7.9077,1.08919 11.46226,1.31517c1.66096,0.10559 3.24088,-0.7609 4.87081,-1.0974c2.77533,-0.57299 5.24525,-0.464 7.95924,-1.17997c0.24279,-0.09697 0.52643,-0.16473 0.85777,-0.19206c0.73603,-0.06074 1.27256,0.11392 1.66323,0.39016c0.3956,0.26917 0.74711,0.71053 0.94803,1.42121c0.09348,0.33061 0.12867,0.62864 0.11984,0.89679l0.12181,1.51299c0.00269,0.24018 -0.00065,0.48068 -0.0097,0.72123l0.77431,0.70041l-0.01883,0.0208c0.03742,0.02227 0.07469,0.04483 0.11181,0.06775c1.04861,0.64673 1.80534,1.65142 2.59,2.62662c1.64451,1.08688 3.35384,2.06226 5.07022,3.10231c0.54089,0.1395 1.07414,0.29711 1.56949,0.53325c0.78308,0.37328 1.81266,0.65908 2.63664,1.09234c-19.92256,0.61041 -40.7013,-0.83047 -59.90912,0.75921c-3.04888,0.25233 -7.39561,-0.13751 -11.74115,-0.05655c-1.42796,-0.60353 -2.88491,-1.18758 -4.09718,-1.95632z" fill="#9e63a7"></path><path d="M468.19148,294.94433l-0.00075,0.00183c-0.00372,-0.00086 -0.00745,-0.00173 -0.01116,-0.0026c-0.98419,-0.0629 -1.9658,-0.25507 -3.01031,-0.70018c-0.16269,-0.03783 -0.32538,-0.07567 -0.48806,-0.11352c-10.17453,-4.70013 -21.15267,-7.35604 -31.39442,-11.68288c-5.81896,-2.45834 -14.34073,-2.7063 -19.17071,-7.10518l-2.79435,-1.54722c-0.30009,-0.15729 -0.5729,-0.37849 -0.79694,-0.66109c-0.4986,-0.62891 -0.64596,-1.42356 -0.46945,-2.14724c-0.34956,-0.48129 -0.55321,-1.16559 -0.27085,-2.11271c0.71427,-2.39579 3.11006,-1.68153 3.11006,-1.68153c6.17608,1.84839 11.92128,3.69168 17.96676,6.1449l0.18417,0.28168l0.08161,-0.11094l0.78544,0.57776c1.00779,-0.41102 2.0665,0.08329 2.0665,0.08329l2.53262,1.1825c1.84038,0.86266 3.85002,1.34439 5.65836,2.27231c3.15051,1.61666 5.41827,3.88087 8.86173,5.0213c3.19847,1.05928 6.50994,1.82759 9.63834,3.12407c2.22953,0.92397 4.03661,2.66642 6.19144,3.75328c0.0057,0.00288 0.01144,0.00574 0.01716,0.0086c0.70835,0.15999 1.41667,0.31995 2.125,0.47994l2.70774,0.31297c0.63557,0.07347 1.24311,0.38939 1.672,0.93036c0.85775,1.08195 0.67601,2.6544 -0.40593,3.51215c-0.54097,0.42888 -1.20459,0.59788 -1.84015,0.52441l-2.80971,-0.32475l0.00158,-0.01368c-0.04592,-0.00234 -0.09182,-0.00494 -0.13772,-0.00784z" fill="#4b1353"></path><path d="M352.29607,244.59472c1.05766,-2.26524 3.3229,-1.2076 3.3229,-1.2076l1.84924,0.87154c1.7144,0.6466 3.29304,1.66455 5.0615,2.14395c2.90541,0.78761 6.15014,0.56634 9.08419,1.40475c1.93342,0.55248 3.8341,1.31873 5.83284,1.5389c4.9131,1.2871 9.46707,3.36677 14.22271,5.08515c6.88576,2.48806 13.97156,4.35333 20.90655,6.6801c4.76149,1.59753 9.50883,3.93128 14.11487,6.26523c3.28048,0.80956 6.59533,1.54051 9.86652,2.44165c0.27116,0.05696 0.54503,0.11901 0.82206,0.18758c0.83066,0.20556 1.62811,0.47099 2.40652,0.77143c0.11023,0.03548 0.22037,0.07126 0.33043,0.10734c1.0914,0.35778 2.09568,0.85879 3.08047,1.39224c0.96559,0.44842 1.93478,0.89352 2.93747,1.28306c2.65249,1.03049 5.63139,0.65983 8.39287,1.47055c0.43946,0.12901 4.44706,1.75014 5.16352,1.80341c1.10143,0.0819 2.20012,-0.4622 3.29682,-0.33137c2.68267,0.32002 5.28167,1.95955 8.085,2.0122c2.36593,0.04444 5.12135,-0.78784 7.43734,-1.28508c0.50817,-0.16454 1.17494,-0.22676 1.83857,0.15982c0.43276,0.19975 0.8481,0.55779 1.10487,1.18602c0.21244,0.39924 0.2876,0.77589 0.27769,1.11902c0.08965,0.08389 0.17422,0.17547 0.25279,0.27457l0.00001,0.00005c0.81144,1.02353 0.6926,2.48601 -0.23855,3.36713l-1.04865,1.01683c-0.85872,3.42523 -2.10955,7.12896 -4.921,8.42828c-3.76205,1.73865 -9.41152,-2.30561 -13.06112,-3.29719c-3.04847,-0.82825 -5.97286,-1.05527 -8.81562,-2.60019c-2.70241,-1.46865 -5.08033,-3.6602 -8.02522,-4.73537c-4.17534,-1.52443 -8.25161,-3.01943 -12.27725,-4.73646c-1.08668,-0.20123 -2.15234,-0.43503 -3.164,-0.75825c-0.87547,-0.2797 -1.52891,-1.06284 -2.39889,-1.35914c-3.01956,-1.02842 -6.54357,-0.86142 -9.61906,-1.79537c-2.76027,-0.83823 -5.19264,-2.63698 -7.67809,-4.23125l-1.17282,-0.13556l0.00623,-0.05382c-0.0917,0.00374 -0.18354,0.00632 -0.2755,0.00766c-1.68059,0.02465 -3.2317,-0.80167 -4.71832,-1.80324c-0.6229,-0.18538 -1.23978,-0.3847 -1.84801,-0.59967c-0.31993,-0.11307 -0.62996,-0.25105 -0.9339,-0.40418c-3.77444,-0.88662 -7.49885,-1.94844 -11.20409,-3.09009c-1.05719,-0.16417 -2.10662,-0.39906 -3.13415,-0.78803c-0.41634,-0.15761 -0.81282,-0.3567 -1.19787,-0.5797c-3.67068,-1.18162 -7.3343,-2.40526 -11.02106,-3.57745c-0.59461,-0.074 -1.03271,-0.13746 -1.21658,-0.18329c-1.12929,-0.28152 -2.20318,-0.75183 -3.27972,-1.21042c-0.13464,-0.04046 -0.26932,-0.08081 -0.40405,-0.12103c-1.88087,-0.56151 -3.77033,-0.93223 -5.65826,-1.29193c-1.91229,-0.0683 -3.8404,-0.04835 -5.52326,-0.86975c-0.09226,-0.04503 -0.18349,-0.09166 -0.27377,-0.13979l-0.0187,0.04971l-4.05435,-1.52631c-0.37273,-0.13297 -0.71792,-0.35583 -1.00037,-0.66454c-0.75363,-0.22287 -1.52918,-0.42327 -2.35492,-0.56982l-0.13657,-0.10882l-0.02058,0.06368l-2.54069,-0.82077c-0.46689,-0.14335 -0.89671,-0.4247 -1.22306,-0.83635c-0.03876,-0.04888 -0.07538,-0.09878 -0.10993,-0.14957c-2.27353,-0.56127 -4.52041,-1.23213 -6.72239,-2.13491c-3.03328,-1.24359 -5.90961,-3.11444 -8.99606,-4.21035c-3.26262,-1.15845 -6.70934,-0.8474 -9.94536,-2.04851c-2.52348,-0.93662 -5.04412,-3.13681 -7.71827,-3.67451c-2.07769,-0.41777 -4.28239,-0.03419 -6.33191,-0.57348c-2.94736,-0.77553 -5.51892,-2.53668 -8.20059,-3.91159c-1.72091,-0.82285 -3.6679,-1.04976 -5.49362,-1.60236c-5.35411,-1.62053 -10.03574,-5.29512 -15.28902,-7.12607c-4.18575,-1.45889 -7.54255,-2.32706 -11.27038,-4.92032l-0.06786,-0.07189c-0.35354,-0.1148 -0.7133,-0.22592 -1.08141,-0.33126c-4.42401,-1.26612 -8.32867,-2.6043 -12.47931,-4.562c-3.68388,-1.73756 -7.69567,-1.41038 -11.39975,-3.10167c-3.39215,-1.54886 -6.73642,-3.38431 -10.16367,-5.00303l-2.22885,-0.5857c-0.51489,-0.12937 -0.9928,-0.42307 -1.3481,-0.87122c-0.85775,-1.08195 -0.676,-2.6544 0.40595,-3.51216c0.54097,-0.42888 1.20458,-0.59789 1.84014,-0.52443l4.91702,0.56832l-0.00183,0.0158c0.02488,-0.00215 0.04977,-0.00427 0.07466,-0.00631c3.12392,-0.25779 6.95147,1.69534 9.69959,2.81159c5.65834,2.29832 11.64873,4.63272 17.02218,7.57933c1.37835,0.75584 2.76811,1.58738 4.30165,1.93292l1.03339,0.32683c0,0 0.30672,0.09907 0.6643,0.33622c0.64773,0.02453 1.17445,0.35109 1.50583,0.62507c1.92142,0.72021 3.72305,1.46892 5.92579,1.70513c0,0 2.06578,0.23877 2.21144,2.16484c0.67723,0.22208 1.37856,0.45372 2.11401,0.71277c5.17678,1.82345 9.81988,5.51561 15.10253,7.06388c2.07416,0.60789 4.23934,0.98444 6.20413,1.88514c2.34739,1.20398 4.72561,2.8984 7.30581,3.5752c1.94156,0.5093 4.0386,0.07532 6.00123,0.49609c3.04764,0.65339 5.63282,2.79835 8.49055,3.89346c3.14551,1.20539 6.6376,0.89112 9.87094,2.02143c3.17529,1.11004 6.12676,3.02086 9.23884,4.30361c3.00182,1.23731 6.10833,1.99418 9.24828,2.64642l0.11856,-0.00978l0.00288,0.03495c0.01056,0.00218 0.02112,0.00437 0.03168,0.00654c-0.00604,-0.35249 0.07358,-0.7503 0.28101,-1.19456z" fill="#641a70"></path></g><path d="M151.55632,183.63532c-0.07269,-0.02835 -0.14501,-0.05751 -0.21694,-0.08753c-0.78663,-0.3284 -1.27952,-1.16603 -2.05244,-1.5255c-2.11916,-0.98557 -4.52482,-1.17272 -6.79223,-1.73928c0,0 -3.3955,-0.84887 -2.54662,-4.24437c0.84887,-3.3955 4.24437,-2.54662 4.24437,-2.54662c1.51703,0.37944 6.8066,1.63568 8.20777,2.26072c0.74363,0.33172 1.19569,1.16191 1.94756,1.4745c1.44766,0.60187 3.00923,0.95653 4.50605,1.44183c3.29208,0.78134 6.22641,1.78461 9.36137,3.76092c0.04102,0.02586 0.09248,0.05736 0.15309,0.09389c3.36341,1.3168 6.62462,2.52556 9.90388,4.16847c1.65798,0.83065 5.7424,0.61363 7.5,1c3.28325,2.68963 9.2017,1.35092 13.37554,2.2888c2.14886,0.48286 4.33298,0.8757 6.40516,1.62192c0.90183,0.32476 1.55235,1.18321 2.46173,1.48616c1.07633,0.35857 2.29323,0.10805 3.37256,0.45749c1.97775,0.64031 3.47935,2.31499 5.38501,3.14563c0.77905,0.33957 1.72674,0.14746 2.5,0.5c1.57004,0.71581 2.65319,2.33745 4.2807,2.91072c3.2985,1.16187 7.36643,0.78445 10.79071,0.78445c0,0 3.5,0 3.5,3.5c0,1.28256 -0.46999,2.09513 -1.06552,2.60994c1.11939,0.15122 2.27836,-0.18302 3.4104,-0.09291c2.10173,0.16731 4.05293,1.22181 6.14057,1.5168c2.3048,0.32568 4.70652,0.00347 6.95764,0.59562c2.89151,0.76061 5.12004,1.94526 7.68128,3.27032c2.28837,1.18389 5.25283,1.39514 7.67549,2.35056l1.54901,0.35417c0,0 3.3955,0.84887 2.54662,4.24437c-0.84887,3.3955 -4.24437,2.54662 -4.24437,2.54662l-2.45099,-0.64583c-2.72941,-1.11137 -5.65171,-1.35052 -8.32451,-2.64944c-2.20362,-1.07091 -3.82124,-2.01723 -6.31872,-2.72968c-1.94118,-0.55376 -4.0444,-0.11629 -6.04236,-0.40438c-0.88186,-0.12715 -4.41337,-1.37599 -5.85943,-1.4832c-1.44909,-0.10743 -2.93406,0.23083 -4.35885,-0.05444c-1.35624,-0.27155 -2.52683,-1.13506 -3.83441,-1.58603c-1.70684,-0.58867 -3.65167,-0.00394 -5.39612,-0.46949c-2.05344,-0.54802 -3.90209,-1.79471 -5.99272,-2.17711c-3.3987,-2.69545 -5.12905,-2.21313 -9.41241,-3.96231c-1.33879,-0.54672 -2.52734,-1.4263 -3.87492,-1.95098c-3.92525,-1.52829 -8.85121,-1.06732 -12.96208,-1.84858c-2.2697,-0.43135 -4.37686,-1.50696 -6.62774,-2.02765c-3.25645,-0.7533 -3.64943,-0.12208 -7.09971,-1.02509c-3.66671,-0.95966 -6.58552,-3.35344 -9.54062,-5.74041l-1.13094,-0.18849l0.01959,-0.11755l-0.28788,0.06196c-4.66027,-1.59821 -7.04148,-4.34138 -11.04266,-6.94862c-0.32609,-0.21248 -0.66755,-0.39272 -1.02017,-0.54972c-0.9661,-0.15506 -1.91596,-0.29364 -2.7799,-0.46643l0.18641,0.06797c0,0 -1.76388,0 -2.78726,-1.25218z" fill="#641a70" stroke-width="0.5"></path><path d="M324.97228,205.36799c0.94868,-0.31623 1.26491,0.63246 1.26491,0.63246l0.16667,0.5c0.06952,0.20857 0.17725,0.45257 0.29107,0.71105c0.55903,0.3591 1.08486,0.77425 1.5862,1.20811l0.02641,0.27962l0.09632,-0.03211l0.32595,0.97786c0.03799,0.10568 0.0587,0.21961 0.0587,0.33837c0,0.55228 -0.44772,1 -1,1c-0.11876,0 -0.23269,-0.0207 -0.33837,-0.0587l-0.97786,-0.32595l0.09517,-0.28551c-0.82924,-0.32008 -1.20693,-0.84921 -1.57136,-1.77504c-0.10277,-0.05619 -0.82919,-0.48865 -0.45366,-1.29736c-0.01185,-0.03559 -0.02383,-0.07155 -0.03594,-0.10788l-0.16667,-0.5c0,0 -0.31623,-0.94868 0.63246,-1.26491z" fill="#331240" stroke-width="0.5"></path><path d="M341.60473,206.53466c0.77,0.25667 0.70671,0.92998 0.65555,1.17451c0.06415,0.28849 -0.01025,0.5489 -0.01025,0.5489c-0.30541,0.98685 -0.91051,1.8938 -1.62794,2.63707l-0.0565,0.0179l0.01427,0.01784l-0.82711,0.66169c-0.1721,0.14011 -0.3917,0.22411 -0.63092,0.22411c-0.55228,0 -1,-0.44772 -1,-1c0,-0.18686 0.05125,-0.36176 0.14047,-0.51139l0.65795,-1.15142l0.14893,0.08511c0.24529,-0.57151 0.59712,-1.03702 1.27177,-1.88033l-0.00115,-0.19153c0,0 0.31623,-0.94868 1.26491,-0.63246z" fill="#331240" stroke-width="0.5"></path><g stroke-width="0.5"><path d="M181.4667,138.40577l0.00815,0.01178c1.08731,-1.06624 2.42588,-1.94236 4.44691,-2.68178c1.50456,-0.55046 3.01967,-0.89716 4.54237,-1.09365c1.71701,-0.65005 3.50636,-1.13495 5.42918,-1.34154c5.08288,-0.54612 10.41184,1.24812 15.27783,2.22108c1.34657,0.26925 2.71458,0.45682 4.08018,0.65327c3.74652,-0.31046 7.07561,-0.83217 10.89595,-0.11263c3.24156,0.61053 6.79999,1.73716 9.34567,3.9114c3.35126,2.86226 3.24498,6.14669 4.33234,10.1509c-0.26058,3.70733 0.30888,8.02449 -1.51094,10.76321c-0.06023,0.93004 -0.1334,1.81856 -0.19827,2.63322l-0.79356,1.92196c-0.1149,0.77446 -0.56724,1.28822 -1.02186,1.61712c-0.37911,0.3353 -0.90455,0.63593 -1.5769,0.64973c-1.89171,0.52077 -3.73568,1.30325 -5.68658,1.46951c-4.43955,0.37837 -8.27084,-1.45093 -12.52403,-1.97722c-5.2605,-0.65093 -10.61824,-0.88799 -15.91332,-1.28765c0.03192,0.50448 0.04399,1.00804 0.04093,1.51208c0.33059,2.34776 0.56373,4.82331 -0.01387,6.34061c1.46649,1.16613 2.90388,2.51319 4.49902,3.96118c1.52068,1.38039 3.70963,2.22322 4.63916,4.05459c0.63635,1.25373 0.307,2.79547 0.42372,4.1966c0.27017,3.24294 0.73537,5.72579 -0.4896,8.8544c-3.13179,7.99868 -15.59156,8.37424 -22.6542,7.77647c-0.17197,-0.01456 -0.34027,-0.02754 -0.50533,-0.03962c-2.33257,0.98873 -5.67809,0.91647 -7.2996,0.30406c-2.80447,-1.05919 -4.48273,-3.46714 -5.76185,-5.98023c-0.87695,-1.72295 -1.80984,-3.46143 -2.25905,-5.3418c-0.1018,-0.42616 -0.1064,-0.86135 -0.06988,-1.30016c-1.04345,-1.33859 -1.77827,-2.92554 -2.7188,-4.34695l-0.01124,-0.10021l-0.03534,0.01964l-1.73311,-3.11875c-0.26778,-0.46576 -0.40215,-1.01461 -0.35552,-1.59059c0.12105,-1.49509 1.41645,-2.61368 2.9068,-2.52309c0.00756,-0.0245 0.01525,-0.04881 0.02304,-0.07295c0.15823,-0.48953 0.32516,-0.99179 0.5208,-1.48141c-1.90987,-4.33917 -2.60223,-9.28658 -3.12247,-13.96418c-2.87631,-0.54135 -3.53316,-6.66623 -3.55376,-8.00355c-0.02634,-1.70905 0.106,-4.14534 0.61586,-6.36346c-0.05413,-0.12925 -0.1033,-0.26129 -0.14716,-0.39623c-1.26204,-3.88328 -0.02525,-7.64778 4.54984,-8.52834c1.1776,-0.22666 2.4267,0.14352 3.54291,0.72851c2.08898,-0.5708 4.42497,-0.75991 6.63038,-0.77534l0.50355,-0.08343l0.00479,0.02886l0.05989,-0.03879c0.34815,-0.0403 0.69543,-0.0851 1.04193,-0.13377z" fill="#661b71"></path><path d="M164.76873,171.46946c0.01507,-0.18609 0.04833,-0.36635 0.09789,-0.53917l0.70631,-2.64826l0.18032,0.04809c0.00747,-0.21315 0.02477,-0.42635 0.05358,-0.63961c0.15892,-1.17627 2.26276,-2.6485 3.61129,-3.62657c0.16258,-0.40005 0.40591,-0.74473 0.77698,-1.00394c0.25775,-0.18005 0.53712,-0.30083 0.83185,-0.37866c1.06971,-1.14785 1.95088,-2.50979 3.25969,-3.36008c3.35658,-2.18068 8.34555,-1.62936 12.12536,-0.88429c3.43105,0.67632 5.77775,2.84005 8.39095,4.81113c0.29686,0.07655 0.59393,0.16181 0.89122,0.25632c4.35269,1.38376 11.13672,6.57923 4.53671,11.12151c-0.9364,0.64445 -8.05462,-0.61135 -9.68949,-0.74372c-3.30967,-0.26797 -8.00319,-1.46667 -11.2507,-0.46452c-1.9167,0.59148 -3.29137,2.29478 -4.90196,3.49046c0,0 -0.60645,0.44969 -1.41945,0.56006c-0.02687,0.51702 -0.2001,1.09167 -0.69708,1.58381c-0.33474,0.40631 -0.83204,0.75224 -1.5692,0.84576c-0.72327,0.1704 -1.31018,0.0204 -1.76597,-0.24305c-0.76847,-0.34588 -1.1386,-0.96851 -1.31522,-1.52958c-0.10123,-0.21741 -0.23433,-0.50263 -0.38721,-0.83171c-2.09026,-0.55033 -1.90321,-2.86055 -1.90321,-2.86055l0.10189,-0.93847c-0.46767,-0.53866 -0.72669,-1.25775 -0.66457,-2.02494z" fill="#0e040f"></path><path d="M226.06427,171.58307c-0.77858,-1.76168 1.3837,-3.61273 2.48904,-5.2151c0.42569,-3.61291 1.20785,-7.07604 1.50943,-10.77271c0.18657,-2.28683 0.87377,-5.90484 -0.07286,-8.18403c-1.12781,-2.71541 -3.86679,-4.0034 -5.23166,-6.2756c-0.94047,-1.56566 -2.82561,-3.48706 -1.98335,-5.10768c0.92736,-1.78436 3.72847,-1.55558 5.68589,-2.01647c4.46949,-1.0524 10.54294,0.78234 14.65869,2.77879c0.45348,0.00847 0.86047,0.1493 1.18575,0.3154c0.41971,0.17652 0.89128,0.47542 1.21207,0.9783c1.78991,1.78701 2.99297,2.81685 4.10258,5.44057c1.59259,3.7658 0.94333,8.72055 0.62447,12.70145c-0.07721,0.9639 -0.47562,6.37753 -0.72346,6.90029c-0.31531,0.66504 -0.71629,1.25033 -1.18392,1.76315c0.82717,6.58744 -8.29512,7.16813 -12.7677,6.94094c-3.02637,1.55553 -7.75639,3.70919 -9.50497,-0.24729z" fill="#0e040f"></path><path d="M237.27044,138.82761c-0.17748,0.08357 -0.36577,0.16807 -0.55711,0.24821c0.14577,0.05382 0.27127,0.07441 0.36399,0.03494c0.07346,-0.03128 0.14803,-0.16463 0.19312,-0.28315zM234.78932,136.35595c0.29365,-0.21561 0.59237,-0.28901 0.59237,-0.28901l1.26933,-0.28145c0.24584,-0.10541 0.88197,-0.31248 1.43891,0.06511c0.72367,0.13565 1.47492,0.23495 1.87914,0.79188c1.01645,1.40043 -0.2676,4.41202 -1.52564,5.13918c-0.83578,0.48309 -2.95313,-0.06533 -3.89705,-0.34671c-2.38787,-0.71182 -4.44905,-0.60098 -1.57829,-4.21947c0.42752,-0.53887 1.10946,-0.71402 1.82122,-0.85953z" fill="#99712b"></path><path d="M235.18354,151.34899c0.14894,-0.9497 1.71807,-0.86296 2.57711,-1.29444l0.76773,-0.18866c0,0 1.38152,-0.33949 1.78435,0.98819c1.00619,0.06973 2.27647,0.44649 2.82488,0.58234c0,0 1.45486,0.3652 1.08966,1.82006c-0.17318,0.68991 -0.5914,0.97054 -0.98332,1.07491l-0.14458,0.64545c-1.65451,0.7111 -4.89527,0.83707 -5.71763,-0.37366c-1.41244,0.24484 -2.68779,-0.13236 -2.19821,-3.25418z" fill="#99712b"></path><path d="M240.99208,164.1381c0.20448,0.11965 0.40114,0.31265 0.56745,0.61193c0.72862,1.31116 -0.58254,2.03977 -0.58254,2.03977l-1.03883,0.5486c-1.55519,0.49854 -7.00849,1.79363 -6.68713,-2.17547c0.25445,-3.14272 4.76875,-2.12208 6.43137,-1.98747c0,0 1.02688,0.08314 1.30969,0.96264z" fill="#99712b"></path><path d="M197.50366,166.78339c-0.22158,0.92202 0.09622,2.2002 -0.66473,2.76604c-2.0295,1.50914 -4.91805,-0.57976 -5.11127,-2.64883c-0.08149,-0.87257 1.00351,-1.43703 1.50526,-2.15555l1.08811,-1.15514c0.30193,-0.32608 0.74511,-0.51533 1.22242,-0.47669c0.75044,0.06076 1.32699,0.66395 1.37569,1.39328l0.08343,0.98672c0.56705,0.47528 0.50108,1.29016 0.50108,1.29016z" fill="#99712b"></path><path d="M183.3134,166.8922c-2.63482,3.12429 -8.59893,-0.54178 -6.0881,-4.26171c0.2099,-0.31098 0.51491,-0.51867 0.85717,-0.6859c0.67113,-1.03461 1.58994,-1.26283 2.50627,-0.95508c3.2073,-0.57207 5.06751,3.12461 2.72466,5.90269z" fill="#99712b"></path><path d="M165.86175,173.56891c-0.36169,-0.2159 -0.71112,-0.6204 -0.65012,-1.37385c0.12105,-1.49511 1.61616,-1.37406 1.61616,-1.37406l0.24918,0.02018c0.31251,0.04481 0.70154,0.07173 1.11438,0.11635c0.27357,-0.06227 0.59499,-0.04904 0.93343,0.14234c1.22932,0.26455 2.32803,0.90734 1.96641,2.82531c-0.226,1.19872 -1.41365,2.6229 -2.63091,2.54368c-3.24389,-0.21109 -3.26407,-1.5949 -2.59853,-2.89996z" fill="#99712b"></path></g><path d="M398.51446,265.1388c0.13091,-0.08928 0.07277,0.18994 0.06441,0.43568c-0.09038,-0.03711 -0.18067,-0.0743 -0.27087,-0.11152c0.03899,-0.13397 0.09843,-0.25048 0.20646,-0.32415z" fill-opacity="0.34902" fill="#651b70" stroke-width="0.5"></path><g stroke-width="0.5"><path d="M187.40995,255.36666h3c3.03757,0 6.14353,2.46243 6.93737,5.5c0.34384,1.3157 0.1975,2.52351 -0.32573,3.47003l-1.32822,2.46579l-0.28796,-0.19053c-0.09172,0.35202 -0.20022,0.69654 -0.32922,1.03187c-0.6893,1.79178 -2.93263,2.29097 -4.6316,3.27072c0.07441,0.31983 0.14581,0.6372 0.21368,0.95246c0.02126,-0.00013 0.04252,-0.00025 0.06379,-0.00035h3c3.03757,0 6.14353,2.46243 6.93737,5.5c0.17654,0.6755 0.22386,1.32255 0.15731,1.92041c0.80799,0.81748 1.51758,1.84974 2.0891,3.151c1.19138,2.71261 -0.38065,5.29219 -1.32465,7.57619c-0.05856,0.14168 -0.12353,0.27896 -0.19417,0.4123c2.75418,0.39359 5.3857,2.67929 6.1072,5.4401c0.79384,3.03757 -1.02506,5.5 -4.06263,5.5h-2.5c-1.21509,0.60411 -2.99736,0.01027 -4.5,0c-1.83333,0 -3.66667,0 -5.5,0c-1.83333,0 -3.61034,0.59414 -5.5,0h-3.5c-3.03757,0 -6.14353,-2.46243 -6.93737,-5.5c-0.70654,-2.70353 0.65662,-4.95147 3.10659,-5.41318l0.19119,-0.04035c-0.18879,-1.02164 -0.26708,-2.04775 -0.3012,-3.05349c-2.04504,-0.10129 -4.08771,-1.29085 -5.40295,-2.99386c-0.03287,0.00058 -0.06587,0.00088 -0.09903,0.00088c-3.03757,0 -6.14353,-2.46243 -6.93737,-5.5c-0.45888,-1.75586 -0.04474,-3.31954 0.97316,-4.32652l1.94594,-1.96826l0.09353,0.08812l0.05803,-0.23305c2.94666,-2.38408 5.88838,-4.76461 8.83624,-7.14455c-0.38545,-1.70924 -0.81328,-3.36725 -1.21084,-4.86939l0.21918,-0.4057l-0.28083,-0.04485l-0.27557,-2.91082c-0.29903,-2.65108 1.45502,-4.68499 4.21566,-4.68499c2.13734,0 4.30855,1.21916 5.68431,3c0.53324,0 1.06647,0 1.59971,0z" fill-opacity="0.3451" fill="#18061a"></path><path d="M189.13862,274.94255l2.91281,3.92411c0.86924,3.4117 2.18759,5.54523 4.07357,8.87451c0.81683,1.44193 2.36467,2.9122 2.33266,4.36264c-0.00569,0.25801 -0.02175,0.51214 -0.0469,0.76286h0.29943l0.65335,2.5v0c0.79384,3.03757 -1.02506,5.5 -4.06263,5.5c-2.70353,0 -5.46125,-1.95064 -6.59477,-4.52127l-0.7662,-1.66081c-1.56078,-1.73559 -3.50335,-3.53879 -5.51753,-4.72629c-2.39541,-1.41226 -5.59285,-1.40937 -7.44349,-3.50817c-1.62925,-1.84772 -2.12985,-4.29408 -2.56403,-6.46446c-0.5526,-2.76238 0.55558,-6.22384 2.02866,-8.11449c1.03105,-1.32332 5.99938,-3.9417 5.93019,-6.24376c-0.01213,-0.40356 -0.50378,-0.80132 -0.58087,-1.21439c-0.6671,-3.5742 -0.27329,-5.26454 -0.03253,-8.78561c0,0 0.37564,-5.21776 6.04794,-3.47851c5.6723,1.73925 5.29665,6.95701 5.29665,6.95701c-0.21823,2.85858 -0.51784,3.62362 -0.11243,6.21439c0.19686,1.25803 0.83765,2.59363 0.72583,3.78561c-0.09255,0.98649 -1.63076,4.18665 -2.57969,5.83664z" fill-opacity="0.57255" fill="#18061a"></path><g><path d="M129.09687,299.92789c-0.64456,0.51196 -1.68486,0.79413 -3.32401,0.06928c-3.53956,-1.56525 -2.79243,-4.69574 -2.79243,-4.69574l0.89522,-2.90963c1.80818,-1.53955 -0.27871,-3.91438 0.95787,-6.65413c0.38285,-0.84822 3.06189,-2.98252 4.23187,-3.89732c0.0388,-0.77909 0.08958,-1.55421 0.18954,-2.31307c0.1144,-0.86844 0.69707,-1.55861 0.68308,-2.46474c-0.01678,-1.0863 -0.89046,-2.30642 -0.77297,-3.35439c0.27974,-2.49499 1.85575,-4.42172 2.35115,-6.83523c0.79162,-3.85665 1.12067,-7.92304 2.90231,-11.28722l-0.11053,-1.80192c-2.23321,-2.27564 -0.66994,-4.39199 -0.66994,-4.39199c1.66193,-2.24993 3.17668,-4.89497 5.50114,-6.54915c4.22966,-3.01001 11.04574,-3.97598 16.72311,-3.97598c2.33539,0 7.56979,-0.67189 9.84318,0.4543c2.12,1.05021 3.37471,3.52249 5.34975,4.90161c2.25084,1.5717 6.71937,3.41656 8.29526,5.57884c0.97143,1.33289 0.97141,2.93558 1.45713,4.40337c2.18275,3.21185 3.17584,6.20668 4.08818,9.66188l0.06393,0.24461c0.33642,0.71714 0.36672,1.39138 0.29999,1.91299c-0.02803,0.54054 -0.17705,1.16657 -0.63186,1.63538c-1.35822,2.41737 -2.83279,4.43834 -4.49151,6.64294c-1.36177,1.80994 -1.58155,4.50081 -2.73943,6.40817c-0.15739,0.25926 -0.34137,0.50775 -0.52707,0.75641c2.66123,0.96841 5.15426,2.08361 7.33787,3.88646c2.84768,0.02604 4.05705,3.01808 4.05705,3.01808c0.94899,2.36171 4.18157,9.6208 2.50758,11.46985c-1.69171,1.86861 -8.74538,1.02513 -11.70696,1.02513c-8.44329,0 -16.88826,0.35083 -25.48,-0.51703c-1.65004,-0.16667 -3.19092,0.03616 -4.79905,-0.01074l-0.01119,0.01074c-0.87514,-0.01839 -1.70275,0.11088 -2.49593,0.32634c-0.35069,0.47476 -0.70137,0.94951 -1.05205,1.42427l-3.4602,0.24454c-0.74146,0.08794 -1.83153,0.01116 -2.90218,-0.8168c-0.54562,-0.36833 -1.07042,-0.89842 -1.4509,-1.66132c-1.70328,0 -3.40656,0 -5.10983,0h-2.26184c-0.27662,0.0693 -0.59049,0.09639 -0.94529,0.06122z" fill="#170619"></path><path d="M187.59381,300.32917c0.47441,1.8153 -0.71379,2.31248 -1.40021,2.44864c0.0935,1.16661 -0.6962,2.05136 -1.92376,2.05136h-4c-0.87126,0.24338 -5.6962,-0.19112 -6.52667,-0.25876c-2.62145,-0.2135 -5.21725,-0.57098 -7.80957,-0.94089c-4.94152,0.03863 -9.78699,0.45169 -14.85976,0.44965c-7.44071,-0.003 -15.37681,-1.28452 -21.91628,1.12171c0,0 -2.1651,0.79057 -3.57549,-1.58114c-0.49339,-0.82967 -0.54922,-1.46585 -0.41325,-1.94238l-0.44791,-0.31195c0,0 -1.84648,-2.14373 -0.0389,-3.42997c1.80758,-1.28624 3.65407,0.85749 3.65407,0.85749l-1.38426,0.03624c6.03001,0 11.55064,-1.03877 17.41926,-1.49272c5.69421,-0.44046 12.8632,-0.46762 18.9003,0.74272c6.45394,0.00066 13.17385,0.4128 19.42357,-0.23759l1.74552,-0.01241c0,0 2.5,0 3.15335,2.5z" fill="#99712b"></path></g></g><g stroke-width="0.5"><path d="M475.29929,60.37027l1.52983,2.55033c0.79853,1.4064 1.16918,3.19166 2.43752,4.19512c2.74442,2.17127 5.18055,3.02734 7.07793,6.33143c2.09479,3.64785 2.7793,7.78735 4.30707,11.61752c0.72706,1.82274 2.66184,2.94152 3.57052,4.68087c1.72305,3.29818 2.31875,7.07892 3.21378,10.69082c0.04053,0.16357 0.08272,0.32679 0.12644,0.48969c0.67596,1.08367 1.31646,2.1895 1.93365,3.30154c1.21708,2.19289 1.48213,4.80835 2.54046,7.0821c2.76999,5.9511 5.09773,12.14536 6.87838,18.54052c0.55867,2.00645 0.71448,4.12047 1.38039,6.09392c1.83454,5.43673 3.18177,10.56361 4.26104,16.21391c-0.01969,2.97828 1.00995,5.87061 1.47811,8.81193c0.05825,0.36598 0.04866,5.59591 0.04866,6.73003c0,4.24762 0.36411,8.80429 -0.02677,13.04196c-0.37388,4.05343 -1.82232,7.98792 -2.56674,11.96795c-2.14459,11.46597 -4.94443,22.85513 -9.59852,33.49488l-0.39479,1.97395c-0.22944,1.27748 -0.90002,2.40184 -1.84842,3.20979c-0.85637,3.58433 -1.90823,7.12071 -3.31919,10.50061c-1.92859,4.61984 -5.95319,8.95245 -7.24984,13.79589c-1.62837,6.08252 -2.3527,12.12619 -4.69524,18.0729c-1.16211,2.95011 -2.6054,7.06937 -4.18714,9.91373c-1.39385,2.50649 -3.61144,4.76829 -4.02015,7.607c0,0 -1.07864,5.39319 -6.47183,4.31455c-5.39319,-1.07864 -4.31455,-6.47183 -4.31455,-6.47183c0.66427,-2.94496 2.20871,-5.6055 3.74446,-8.24009c-3.19882,-0.6426 -6.62077,-1.87796 -7.52456,-2.10346c-1.78321,-0.44491 -3.57839,-0.8742 -5.36766,-1.32745c-4.99226,0.01518 -11.48989,0.49393 -16.19549,-1.34959c-2.73176,-1.07022 -4.27889,-2.53958 -6.71805,-3.82944c-2.91749,-1.5428 -5.94486,-2.89578 -8.74487,-4.64275c-1.49201,-0.9309 -3.03795,-1.98705 -4.62961,-3.02155c-0.83561,-0.03736 -1.66792,-0.0996 -2.48877,-0.25054c-4.79861,-0.88243 -9.55726,-3.07576 -14.44374,-3.42523c-2.28174,-0.16318 -5.23134,0.30978 -7.42736,-0.05228c-2.39123,-0.39424 -4.4453,-1.95764 -6.75892,-2.67916c-1.75203,-0.54639 -3.63882,-0.49811 -5.43872,-0.85663c0,0 -5.39319,-1.07863 -4.31455,-6.47183c0.02954,-0.14772 0.06232,-0.29059 0.09814,-0.42875c-0.03171,-0.11272 -0.05992,-0.2269 -0.0845,-0.34243c-0.80462,-2.57129 0.97955,-4.95018 0.97955,-4.95018c3.34517,-4.21437 8.02217,-6.76114 12.63941,-9.457c1.5174,-0.88596 3.40566,-1.21356 4.68286,-2.42029c3.45261,-3.26213 6.41406,-7.30841 9.95842,-10.46402c0.70483,-0.62752 1.72295,-0.82452 2.43575,-1.44297c0.77702,-0.67416 1.11481,-1.80229 1.96766,-2.37755c1.864,-1.25729 3.38185,-0.65605 4.66186,-2.25499c1.48826,-1.85909 2.28663,-4.1927 3.68316,-6.12165c2.30865,-3.18882 4.33621,-6.24547 6.61751,-9.64847c5.95328,-5.91162 8.31157,-13.96363 10.44056,-21.93572c0.83501,-3.12676 2.57271,-6.39433 2.83959,-9.6193c0.23252,-2.80979 0.75766,-5.60341 0.99197,-8.41169c0.19333,-2.31706 -0.44835,-4.71965 0.18083,-7.01449c0.28314,-1.03269 0.89638,-1.93306 1.47724,-2.84641c0.23566,-1.011 0.78543,-2.38165 2.06798,-3.27462c0.12185,-1.22603 0.25522,-2.45386 0.25522,-3.66083c0,-8.30609 1.41765,-16.46792 2.3039,-24.70217c-0.07875,-0.24933 -0.14797,-0.50159 -0.20466,-0.75774c-0.1211,-0.54716 -0.09924,-6.32465 -0.09924,-7.54009c0.01827,-4.56897 -1.34107,-6.39145 -2.40076,-10.95991c-0.48508,-2.09124 0.22991,-4.31373 -0.0664,-6.43995c-0.71437,-5.12593 -2.45342,-8.73418 -4.52966,-13.30193c-1.06554,-2.34422 -2.05906,-4.72085 -3.04469,-7.09977c-0.386,-0.93165 -0.31505,-2.05201 -0.86003,-2.90051c-0.40034,-0.62331 -1.38645,-0.67394 -1.82109,-1.27383c-0.87464,-1.20716 -1.1232,-2.7944 -2,-4c-0.49014,-0.67395 -1.5151,-0.82227 -2,-1.5c-2.5249,-3.52896 -3.88151,-8.00545 -6.03437,-11.76352c-1.06113,-1.85234 -2.29131,-3.61527 -3.20483,-5.54469c-1.76959,-1.81813 -3.1162,-3.85229 -4.52711,-5.89468c-1.62561,-0.007 -3.24262,-0.08939 -4.83349,-0.40065c-1.57857,-0.30884 -2.73701,-1.69074 -4.09257,-2.55659c-1.62621,-1.03872 -3.42221,-1.86146 -4.85238,-3.15689c-1.08224,-0.98028 -1.46623,-2.58673 -2.55851,-3.55581c-1.589,-1.40979 -3.60648,-2.24901 -5.35076,-3.46142c-2.23763,-1.55533 -3.90054,-3.87257 -6.21488,-5.31128c-0.89522,-0.55651 -2.13869,-0.39234 -3,-1c-2.87117,-2.0256 -4.78519,-5.18374 -7.53251,-7.3744c-0.65605,-0.52312 -1.34379,-1.0122 -2.05151,-1.47941c-0.88191,-0.02619 -1.73508,-0.02994 -2.52446,-0.02477c0,0 -5.03664,0 -5.4703,-4.81981c-0.13743,-0.09267 -0.27398,-0.18621 -0.40954,-0.28073c-0.53364,-0.26229 -1.06156,-0.52193 -1.57984,-0.78011c0,0 -2.13905,-1.06953 -2.89086,-3.20857c-2.02362,-1.98883 -4.14761,-3.98838 -6.5256,-4.84561c-0.37077,-0.00998 -0.71769,-0.08891 -1.02189,-0.29134c-0.18364,-0.03834 -0.36882,-0.06936 -0.55561,-0.09258l-0.42835,-0.92205c-0.6893,-0.97159 -1.08233,-2.19378 -1.55544,-3.34823l-0.56257,-1.21098c1,-1.83334 1.35791,-4.20978 3,-5.5c1.04843,-0.82376 2.66667,-0.00069 4,0c6.5528,0.00338 12.52464,0.57478 18.82578,2.16218c2.7523,0.69337 5.66625,0.7169 8.36257,1.60337c6.17281,2.02944 12.28023,4.74802 18.36106,7.13054c5.50444,2.15669 11.57444,3.51177 16.87254,6.16588c6.62081,3.31673 13.27846,8.06854 19.05664,12.67782c6.73464,5.68226 12.34877,11.99356 17.83543,18.84858c2.84407,3.55338 6.43883,6.68292 8.52202,10.79196c1.32986,2.62311 3.53268,7.78959 4.47971,11.208c0.13382,0.48303 0.20882,0.97926 0.29039,1.47261c0.79369,0.70231 1.21792,1.40934 1.21792,1.40934z" fill-opacity="0.75686" fill="#c491c9"></path><path d="M469.65158,176.76477c1.32006,-2.84617 3.6345,-5.53534 5.37203,-8.14068c2.84684,-4.26874 5.18924,-9.11192 8.18858,-13.26256c0.07537,-0.1043 0.15826,-0.2022 0.24645,-0.29561c2.12482,-6.0052 3.62444,-11.88464 3.62444,-18.86593c0,-9.12421 -0.35807,-18.08139 -0.98937,-27.15824c-0.33885,-4.87192 -0.13911,-9.1724 -1.32407,-13.92143c-0.97431,-3.90481 -1.20418,-8.84113 -3.11264,-12.47417c-1.19248,-2.27007 -3.35774,-4.05458 -5.37391,-5.54615c0,0 -4.4,-3.3 -1.1,-7.7c3.3,-4.4 7.7,-1.1 7.7,-1.1c3.45569,2.61771 6.52168,5.54238 8.62608,9.45385c1.82024,3.38328 2.46954,7.60953 3.2321,11.51017c0.27444,-0.04215 0.55558,-0.06402 0.84181,-0.06402c2.47411,0 4.56667,1.63363 5.25786,3.88106l0.9599,2.87969l-0.25817,0.08606l0.39328,0.38956c0.2006,1.38542 0.18599,3.15531 0.26215,4.88741c1.01929,3.49738 2.13907,6.94793 3.4916,10.33358c1.81658,4.54727 3.08137,9.43951 4.97472,13.93789c0.69149,1.64293 1.78919,3.1251 2.27153,4.84111c0.81046,2.88334 -0.08952,6.84585 0.12839,9.81c0.56289,7.65673 0.55404,15.35377 0.53052,23.05701c1.98821,1.60561 1.98822,4.39664 1.98822,4.39664v3c-0.02003,4.18309 -1.03057,7.33091 -2,11.07754v0.92246c0,1.12954 -0.34051,2.17956 -0.92446,3.053c-1.73137,8.15598 -2.87124,15.5996 -5.94772,23.43582c-1.29271,3.2927 -1.57395,6.30978 -3.42886,9.30584c-0.51414,5.652 -2.02751,11.04053 -3.94648,16.33671c-0.6045,1.66837 -0.01012,2.59804 -0.29369,4.54064c-0.23089,1.58166 -0.74165,3.10967 -1.12301,4.66194c-1.139,4.63614 -2.42309,9.35333 -4.25444,13.77081c-0.09588,0.23127 -2.06929,3.96412 -2.29581,4.91615c-0.82494,3.46708 -1.31275,7.08107 -2.80696,10.31658c-2.47376,5.35658 -5.98702,8.27767 -9.88757,12.33862c-1.21164,1.26146 -1.36036,3.25673 -2.38657,4.67316c-1.36455,1.88342 -3.09033,3.47661 -4.6355,5.21491c-2.02298,0.64528 -3.94829,1.82773 -6.06894,1.93583c-1.72246,0.0878 -3.36799,-0.7827 -4.98882,-1.37218c-0.03314,-0.01205 -0.06622,-0.02416 -0.09923,-0.03632c-5.2208,1.20688 -10.98039,1.12967 -15.10654,-1.29679c-5.28324,-3.10692 -5.36686,-4.18147 -9.08934,-8.84537c-0.58145,-0.7285 -1.31647,-1.5519 -2.0396,-2.45069c-3.13495,-0.82574 -6.227,-1.86444 -9.29233,-2.89035c-2.77564,-0.92895 -5.72288,-1.41926 -8.35694,-2.69554c-1.68734,-0.81757 -3.04087,-2.18564 -4.54402,-3.31649c-0.02165,0.12935 -0.04545,0.25774 -0.07143,0.38507c-1.18034,5.78469 -4.50117,8.8157 -8.20756,13.06477c-0.92918,1.06522 -1.64089,2.35027 -2.74646,3.23106c-0.6839,0.54486 -6.2869,3.27605 -7.35297,3.80417l-0.43501,-0.0721l0.0695,0.20852l-2.8782,0.9594c-0.58124,0.20897 -1.20784,0.32284 -1.86104,0.32284c-3.03756,0 -5.5,-2.46244 -5.5,-5.5c0,-1.93937 1.00377,-3.6443 2.52013,-4.6236l2.90626,-1.9375c0.5962,-1.09584 1.20711,-2.18326 1.84828,-3.25336c1.77912,-2.96934 3.95808,-5.79057 5.84912,-8.72586c-6.22384,0.28905 -8.81551,-6.29409 -10.20512,-10.85492c-0.56913,-1.86793 -1.7958,-3.82025 -1.30634,-5.71062c0.00095,-0.00364 0.00189,-0.00728 0.00284,-0.01092c-1.22547,-1.15263 -2.5725,-3.26693 -1.03451,-6.34289c2.45968,-4.91935 7.37903,-2.45968 7.37903,-2.45968c0.69207,0.3467 1.37311,0.71541 2.04799,1.09631c1.17512,-0.36381 2.37656,-0.61169 3.88758,-1.25829c3.13306,-1.3407 6.13414,-2.97251 9.23656,-4.3827c2.24757,-1.04197 3.93935,-3.01592 5.76459,-4.69097c2.83067,-2.59773 7.19655,-5.92953 10.48544,-7.68186c4.12483,-2.19772 4.88353,-1.01213 7.63123,-3.41652c5.47727,-4.79292 9.08825,-11.44567 14.6658,-16.13068c2.03778,-1.71169 4.98501,-2.4168 6.54397,-4.57366c4.28271,-5.92521 7.12565,-13.62573 12.32781,-18.87014c1.03155,-1.03993 2.13533,-1.94612 3.26473,-2.79631c0.91677,-2.43848 1.65746,-4.94867 2.75314,-7.31105z" fill-opacity="0.78039" fill="#c491c9"></path><path d="M404.08502,280.70721c-1.51187,-0.00974 -3.15462,-0.02626 -3.79068,-0.03238c0.05397,1.05539 0.0999,2.10658 0.13451,3.15704c0.01835,0.10413 0.03628,0.20834 0.05377,0.31264c0.79393,-0.36996 1.58651,-0.74223 2.21136,-1.33359c0.67054,-0.63459 1.04751,-1.36278 1.39103,-2.1037zM457.06707,247.10068c6.36565,-4.06419 13.17479,-7.5335 18.9124,-12.55568c5.63666,-4.93382 9.49413,-10.63217 13.48298,-16.82825c0.58817,-0.91362 1.32096,-1.8942 1.94817,-2.91352c0.19791,-3.0068 0.40161,-6.01857 0.85902,-9.02356l0.55027,-0.48494l-0.34346,-0.13738l0.95242,-2.38105c0.77995,-2.08885 2.79337,-3.5763 5.1542,-3.5763c3.03756,0 5.5,2.46243 5.5,5.5v6h-0.17471c0.04834,0.22296 0.09296,0.44693 0.13351,0.67201c0.26398,1.46528 -0.82892,4.29901 -1.89088,6.54738c-0.20702,3.38471 -0.45882,6.76385 -1.13303,10.12441c-0.65199,5.60109 -2.2988,11.27442 -4.27652,16.56441c-0.52702,1.40966 -1.52054,2.61885 -2.01506,4.04024c-0.85021,2.44368 -1.15041,5.0561 -2,7.5c-2.68566,7.72544 -6.40309,15.13647 -10.19043,22.44301c-1.60165,3.08992 -1.26829,5.68637 -3.49104,8.82446c-2.19983,3.10573 -6.52359,6.4298 -9.90132,8.15171c-2.06319,1.05178 -3.53859,1.63423 -4.91525,1.97904l-2.53185,1.6879c-0.88525,0.60897 -1.95771,0.96544 -3.11342,0.96544c-2.36368,0 -4.37912,-1.49105 -5.15703,-3.58389c-1.27094,-0.09603 -2.59938,-0.41611 -3.84297,-0.41611c-5.16584,0 -9.88542,-1.19956 -14.95364,-1.51874c-7.62159,-0.47998 -16.61124,-0.82418 -24.23243,0.45818c-3.19081,0.53689 -6.35836,1.20877 -9.51806,1.90572c-1.01434,0.22373 -1.95892,0.83101 -2.99622,0.85866l-2.14119,0.85647c-0.66271,0.28304 -1.39229,0.4397 -2.15846,0.4397c-3.03756,0 -5.5,-2.46244 -5.5,-5.5c0,-1.06739 0.30406,-2.06377 0.83029,-2.90724l0.71227,-1.1871c-0.02925,-0.2833 -0.02995,-0.57555 -0.01763,-0.87234c-0.25807,-1.64369 -0.37635,-3.29014 -0.42625,-4.93416c-1.74256,-7.72926 -4.83748,-16.48452 -3.04919,-24.35924c0.02531,-0.13909 0.05694,-0.27908 0.09566,-0.41939c0.66938,-2.9438 1.38542,-6.19348 3.57173,-8.23315c1.64306,-1.53285 4.41714,-1.03512 6.66412,-1.01637c1.2179,0.01017 2.29808,0.82357 3.484,1.10106c5.02776,1.17641 9.8929,2.96639 14.87185,4.33491c6.01694,0.03252 9.70902,0.22263 15.67971,1.49302c0.71116,0 2.08344,0 2.08344,0c1.14616,0 2.21042,0.35059 3.09142,0.95038c7.54503,-2.55562 14.72561,-6.29313 21.39258,-10.54969z" fill-opacity="0.91765" fill="#c591c9"></path><path d="M466.58307,334.7l-0.65202,-0.00574c-0.73808,0.04651 -1.46875,0.06052 -2.15681,-0.01898l-0.23314,-0.00205c-2.5388,-0.48489 -4.87461,-0.99689 -7.45804,-0.97323c-13.80989,0 -27.7466,1.10172 -40.90821,-3.84163c-4.67357,-1.75534 -10.72683,-4.28753 -14.62489,-7.44325c-1.06018,-0.85827 -1.61144,-2.23165 -2.643,-3.12412c-4.00836,-3.46783 -9.11151,-6.15297 -13.65363,-8.87479c0,0 -2.5633,-1.53798 -2.77657,-4.236c-1.63385,-0.02742 -4.6014,-0.62678 -5.30496,-4.49635c-0.98387,-5.41129 4.42741,-6.39516 4.42741,-6.39516c4.53461,-0.82275 11.14175,-1.92788 15.10467,-3.25772c2.11019,-0.70812 3.88632,-2.2093 5.971,-2.98936c1.82518,-0.68295 3.89198,-0.60378 5.68316,-1.37146c1.5931,-0.68279 2.72445,-2.20764 4.30861,-2.9109c3.03192,-1.34598 6.31878,-2.02982 9.42762,-3.18709c5.71232,-2.12644 11.0392,-5.28453 16.85361,-7.12347c4.22066,-1.33488 4.81872,-0.76297 9.21878,-2.68943c6.40618,-2.8048 10.35829,-9.74309 15.86137,-13.75588c2.567,-2.53646 5.28484,-3.86912 8.06813,-6.05677c4.07612,-3.20381 5.98641,-8.25742 9.15181,-12.13138c2.50081,-3.0606 7.16444,-5.2864 9.21087,-8.59286c0.57439,-0.92807 1.02599,-1.88382 1.39311,-2.86002c0.67934,-2.73369 1.28648,-5.48118 1.83373,-8.21965c1.26366,-6.32342 1.59708,-12.70262 3.00423,-19.02135c0.84598,-3.79887 2.50432,-6.75472 3.62919,-10.51517c0.60868,-2.03483 0.84763,-4.20119 1.73418,-6.13124c0.75541,-1.64456 1.83199,-3.10503 2.93743,-4.55122c1.18694,-3.10917 2.55736,-6.14889 4.12871,-9.09762l1.88673,-4.24514c0.82974,-1.98564 2.7904,-3.38098 5.07696,-3.38098c3.03756,0 5.5,2.46243 5.5,5.5c0,0.54504 -0.07929,1.07157 -0.22695,1.56868l-1.46685,5.37847l-0.11495,-0.03135c-0.00171,0.14324 -0.00508,0.28655 -0.01022,0.42998c-0.11206,3.12529 -2.61665,5.97718 -4.8277,8.7109c-1.17327,3.2308 -2.12671,6.53973 -2.94158,9.92466c-0.4706,1.95486 -0.09277,4.05901 -0.61518,6.00066c-0.57452,2.13536 -1.92652,3.98863 -2.69111,6.06354c-0.94591,2.56698 -2.51292,8.51313 -3.27805,11.32374l-0.10965,0.86997c-0.15771,0.46726 -0.2802,0.9138 -0.37719,1.34579c-0.08284,0.51226 -0.16952,1.02483 -0.25993,1.53754c-0.22125,1.83252 -0.16526,3.52296 -0.72777,5.64105c-0.21454,0.80783 -0.56753,1.56446 -0.95677,2.30822c-1.39308,5.66238 -3.16478,11.25028 -5.14481,16.56334c-1.18709,4.76448 -2.26503,10.81303 -4.32266,15.30582c-0.50963,1.11277 -1.61995,1.85601 -2.22967,2.91724c-1.39286,2.42433 -2.56978,4.99631 -3.41325,7.66201c-0.66404,2.09863 -0.37036,4.41928 -1.00761,6.52619c-1.3922,4.60303 -3.62622,9.02994 -5.04489,13.64571c-0.90749,2.95259 -1.47911,6.19786 -2.53091,9.09276c-0.35921,0.98867 -1.15015,1.7972 -1.43829,2.80887c-0.89749,3.15105 -0.97212,6.67454 -2.10273,9.8065c-0.31338,0.86811 -1.19484,1.47177 -1.45015,2.35869c-0.20662,0.7178 -0.23653,1.46778 -0.24915,2.22092l3.62617,9.42803c0.26545,0.64492 0.41186,1.35138 0.41186,2.09204c0,3.03756 -2.46244,5.5 -5.5,5.5c-1.28812,0 -2.4728,-0.44281 -3.41014,-1.18452c-0.11903,0.0082 -0.23885,0.01722 -0.35928,0.02678c-0.71524,0.15777 -1.23064,0.15777 -1.23064,0.15777z" fill-opacity="0.83137" fill="#9d62a6"></path><path d="M198.13152,196.1484c-2.0671,-0.26559 -4.1446,-0.61876 -6.1911,-1.09425c-2.81708,-0.11938 -5.60385,-0.38914 -8.32094,-1.00128c-5.40065,-1.21673 -11.62387,-3.44362 -16.48921,-6.09137c-2.41271,-1.31302 -4.35128,-3.40906 -6.79775,-4.65806c-3.0769,-1.57085 -8.19263,-1.14062 -10.99882,-3.49953c-0.03386,-0.02846 -0.0676,-0.05704 -0.10123,-0.08574l-0.01591,0.03713l-3.38349,-1.45007c-2.02223,-0.8128 -3.44995,-2.79228 -3.44995,-5.10523c0,-3.03757 2.46243,-5.5 5.5,-5.5h2.5c10.25137,0 21.79629,1.28377 31.65982,-2.18302c4.20086,-1.4765 7.90959,-4.74991 11.8363,-6.71397c1.45759,-0.72906 3.01765,-1.2404 4.53216,-1.84616c0.38539,-0.70443 0.82928,-1.3662 1.38718,-1.94596c1.7014,-1.76807 4.39749,-2.34851 6.10941,-4.1064c2.09269,-2.14889 3.193,-5.7278 6.32001,-6.92386c2.24414,-0.85836 4.68011,-1.34795 7.2056,-1.6116c-1.09846,-1.27774 -2.27871,-3.58514 -0.3222,-6.5199c3.05085,-4.57628 7.62713,-1.52543 7.62713,-1.52543c3.67879,2.45253 7.42565,4.32789 10.84067,6.8977c1.36146,1.0245 3.40463,0.1851 5.10848,0.17858c2.87476,-0.011 5.77054,0.4402 8.53773,1.21934c3.04141,0.85636 4.80979,0.42014 8.00422,0.80742c3.16528,0.38375 7.71317,1.78422 10.91168,1.99197c9.07247,0.58928 18.43976,-0.01874 27.54636,-0.01874c4.29615,0 8.75304,0.24829 13.14744,0.25111c0.50254,-0.22495 0.99932,-0.46289 1.48881,-0.71727c3.12309,-1.623 5.8434,-3.93458 8.88856,-5.69945c3.07939,-1.78472 6.43825,-3.06898 9.46679,-4.93869c1.77134,-1.09356 3.16034,-2.7216 4.86854,-3.91137c3.40195,-2.36948 7.39887,-3.76405 10.92395,-5.94616c3.70435,-2.29309 6.37498,-6.26283 9.83114,-8.87329c1.11449,-0.84179 2.30061,-1.57846 3.50483,-2.28908c2.34753,-2.13674 4.64591,-4.31084 6.54481,-6.76056c4.15161,-5.35589 7.08771,-11.95208 10.73858,-17.63545c0.87281,-1.35871 2.10005,-2.46498 3.20819,-3.65216c0.05372,-0.54511 0.14772,-1.07787 0.36738,-1.57255c0.53652,-1.20826 1.52588,-2.14804 2.36224,-3.18429c0.28383,-0.90273 0.56975,-1.80337 1.06712,-2.59848c0.29046,-0.46433 0.67018,-0.85597 1.08248,-1.22108c1.15967,-2.55083 2.16125,-5.32553 3.38446,-7.76968l0.86683,-2.60048c0.69119,-2.24743 2.78375,-3.88106 5.25786,-3.88106c1.86158,0 3.50714,0.92486 4.50227,2.34016c0.08458,-2.96364 2.51362,-5.34016 5.49773,-5.34016c3.03756,0 5.5,2.46244 5.5,5.5v0.93447c0.63045,-1.03084 1.59083,-1.83796 2.73428,-2.2745c-0.7707,-2.11488 -1.61853,-4.14813 -2.51865,-6.02513c-0.77553,-1.6172 -1.8381,-3.08309 -2.74945,-4.62841c-0.31255,-0.24759 -0.63081,-0.48867 -0.95557,-0.72235c-2.82848,-2.03528 -6.656,-3.68057 -9.14665,-6.03821c-4.18698,-3.96339 -5.41853,-10.22471 -8.39114,-14.92173c-0.94125,-1.48726 -2.68577,-2.27675 -3.98623,-3.46279c-2.8884,-2.63425 -5.63437,-4.67549 -8.38277,-7.53362l-0.03715,-1.17619l-0.47784,0.19114l-0.88921,-2.22302c-0.33223,-0.24082 -0.66592,-0.47697 -1.0012,-0.70792c-1.76558,-1.21622 -4.24344,-1.34286 -5.76357,-2.8547c-0.08268,-0.08222 -0.16406,-0.16551 -0.24421,-0.24979l-0.04604,0.06907l-2.92902,-1.95268c-1.51636,-0.9793 -2.52013,-2.68422 -2.52013,-4.6236c0,-3.03757 2.46243,-5.5 5.5,-5.5h3v0.52481l1.04009,-0.42557c3.75025,1.40987 7.41362,3.14362 10.85143,5.22218c3.26232,1.97245 5.72138,4.70197 8.55829,7.11042c0.86502,0.51448 1.73987,1.00728 2.68156,1.31567c2.33765,0.76556 4.32949,1.75301 6.15168,2.8991c0.06552,0.01826 0.13182,0.03718 0.19896,0.05682c2.93217,0.85778 6.22443,2.62132 8.28893,4.83116c0.76367,0.81743 0.9259,2.03068 1.40894,3.04548c0.24687,0.20628 0.49685,0.41323 0.75038,0.62071c1.29007,1.05572 2.84128,1.79562 4.02103,2.97335c2.15406,2.15037 3.78048,4.78969 5.9378,6.93679c3.7764,3.75851 7.13963,7.5012 9.86792,12.12849c1.38823,2.35451 2.07487,5.07792 3.46091,7.43372c0.25976,0.4415 0.61411,0.81881 0.96847,1.19568c0.39977,-0.50586 1.05248,-0.91882 2.11814,-0.91882c2.29402,0 2.67439,1.91364 2.73746,2.54825c1.76254,1.62614 1.76254,4.20175 1.76254,4.20175c0,0.20739 0,0.41477 0,0.62216c0.72551,0.98142 0.94573,2.11173 0.97923,3.01924c0.02077,0.22522 0.02077,0.3586 0.02077,0.3586v1c-0.06051,0.88236 -0.01026,1.78913 0.00667,2.68856c1.22609,1.1172 1.71108,2.57219 1.71108,2.57219v0.00002c1.13379,3.61159 0.96776,7.51181 1.26351,11.28561c0.15841,2.02139 0.8469,3.9782 1,6c0.4074,5.38017 0.03259,11.03972 0.01874,16.45365c-0.00981,3.83309 0.60165,7.64299 0.97323,11.45804c0.4961,5.09347 0.02677,10.42269 0.02677,15.54196c0,0.97825 0.01253,14.06957 -0.04121,14.67201c-0.05904,0.66178 -0.2657,1.29865 -0.47747,1.93468c-0.04697,1.31344 -0.16662,2.62191 -0.37606,3.92334c-0.05316,0.33035 -0.10912,0.65871 -0.1678,0.98518c0.05753,1.31445 0.15119,2.63055 0.04381,3.93844c-0.46985,5.72299 -2.05299,9.45187 -2.21726,15.14017c-1.34024,2.20518 -2.11403,4.71706 -3.39222,6.95878c-0.87521,1.53497 -2.01278,2.92876 -3.02129,4.38722l-2.54676,6.79136l-0.15441,-0.0579c-0.0314,0.21161 -0.06477,0.42302 -0.10024,0.63419c-0.04277,0.25469 -0.18579,0.57719 -0.3967,0.94246c-0.44517,1.89561 -0.93299,3.7701 -1.86628,5.45992c-0.74224,1.3439 -2.3741,2.02018 -3.19448,3.31786c-1.86194,2.94521 -2.15717,6.80402 -4.36899,9.49641c-1.05796,1.28783 -2.8974,1.75018 -4,3c-0.75474,0.85552 -0.85645,2.1202 -1.4013,3.12254c-1.99405,3.6684 -3.84995,8.62652 -6.56795,11.84029c-5.08976,6.01813 -5.86834,5.20686 -13.14308,10.04914c-1.56722,1.04318 -2.92482,2.39867 -4.55772,3.33571c-0.80393,0.46133 -1.86703,0.32864 -2.66107,0.80679c-0.7269,0.43772 -1.11053,1.31462 -1.76933,1.83924c-0.3362,0.0711 -0.65393,0.1518 -0.94902,0.24338c-0.33685,0.10453 -0.64611,0.26244 -0.93711,0.4552c-0.47047,0.10507 -0.93573,0.22179 -1.34453,0.46218c-0.82887,0.48739 -1.49995,1.19507 -2.1988,1.86399c-2.44938,0.47491 -5.09071,0.66515 -6.76379,2.38636c-1.61276,1.65916 -1.87794,4.12903 -2.30459,6.50176c-0.7544,-0.45303 -1.48893,-0.95084 -2.32519,-1.20028c-1.94299,-0.57957 -4.09638,-0.30189 -6,-1c-3.24771,-1.19103 -5.74311,-2.37534 -8.03912,-3.80185c-1.33958,0.74286 -2.86577,1.10306 -4.36398,1.52063c-0.71377,0.42361 -1.45247,0.73698 -2.26424,0.72724c-0.21337,-0.00256 -0.42384,-0.01953 -0.63182,-0.04891v0.12247h-3c-1.51878,0 -2.75,-1.23121 -2.75,-2.75c0,-1.46265 1.14188,-2.65858 2.58281,-2.745l1.04477,-0.07203c-1.46481,-0.13619 -2.91902,-0.32771 -4.34442,-0.59623c-2.34053,0.18745 -4.6864,0.38173 -7.03774,0.52011c-0.82637,0.19749 -1.63075,0.29382 -2.35149,0.11736c-1.16199,0.04647 -2.32532,0.07425 -3.49001,0.0758h-2.5v0c-3.03757,0 -5.5,-2.46243 -5.5,-5.5c0,-1.57273 0.66012,-2.99128 1.71839,-3.99369c-0.68562,-0.29495 -1.30971,-0.70807 -1.92512,-1.1391c-1.18602,-0.2655 -2.22737,-0.91406 -2.98739,-1.80902c-2.55921,-1.24124 -5.18359,-2.34811 -7.72785,-3.62015c-0.42175,-0.21086 -0.84312,-0.42315 -1.26483,-0.63503c-2.0679,-0.41271 -4.15621,-0.76481 -6.16797,-1.37259c-0.69625,-0.21035 -1.34524,-0.53838 -1.98477,-0.8915c-2.07993,0.3512 -6.53734,-1.58035 -8.70312,-2.43229l-2.38105,-0.95242c-0.28566,-0.10666 -0.56007,-0.23639 -0.82096,-0.38692c-0.40084,-0.11293 -0.7992,-0.2337 -1.19421,-0.36498c-0.55476,-0.18438 -1.06279,-0.48605 -1.56458,-0.80141c-0.14464,0.05332 -0.29121,0.10277 -0.43985,0.14807c-1.87312,0.57086 -3.75375,-1.10644 -5.57103,-1.86363c-1.33736,-0.12204 -2.68296,-0.19919 -4.01325,-0.35964c-1.55548,-0.64165 -3.01777,-1.58857 -4.66643,-1.92493c-1.42094,-0.28991 -2.90489,0.20927 -4.3498,0.0854c-2.64194,-0.22648 -5.27293,-0.61666 -7.87375,-1.13329c-3.37444,-0.67031 -6.51829,-2.25824 -9.88342,-2.97382c-7.47128,-1.58871 -15.53878,-2.47876 -22.76114,-5.22069c-4.56296,-1.7323 -7.86007,-5.02261 -12.19655,-7.07703c-2.13008,-1.00913 -4.90901,0.08781 -7,-1c-1.97026,-1.025 -3.07176,-3.26265 -4.92294,-4.48971c-1.25281,-0.83043 -2.84688,-0.97528 -4.22541,-1.57431c-0.03959,-0.0172 -0.07919,-0.03445 -0.11876,-0.05171c-0.61362,-0.18487 -1.23918,-0.4549 -1.88626,-0.84445c-0.36646,-0.16728 -0.73246,-0.33567 -1.09833,-0.50432c-0.73711,-0.13436 -1.47244,-0.27499 -2.19968,-0.36843zM194.63389,182.69435c-1.79794,-0.09608 -3.58347,-0.0109 -5.36444,0.11318c0.61669,0.23945 1.23958,0.46102 1.8576,0.67627c0.09815,0.03418 0.56056,0.13811 1.22315,0.2796c0.76296,-0.01554 1.50723,-0.03952 2.20595,-0.05544c0.37377,-0.13873 0.7497,-0.22416 1.11464,-0.27108c0.00397,-0.14604 -0.01408,-0.2903 -0.06448,-0.43215c-0.03321,-0.09347 -0.07821,-0.17954 -0.1325,-0.25976c-0.27954,-0.01873 -0.55951,-0.03564 -0.83993,-0.05063z" fill-opacity="0.57647" fill="#651b70"></path></g></g></g></svg>