<svg version="1.1" xmlns="http://www.w3.org/2000/svg" xmlns:xlink="http://www.w3.org/1999/xlink" width="225.51952" height="1471.99992" viewBox="0,0,225.51952,1471.99992"><g transform="translate(-127.24024,555.99996)"><g stroke="none" stroke-width="0" stroke-miterlimit="10"><g fill="#0a0610"><g><g><path d="M127.24024,425.33332v-122.66666h46.04226c0,0 -5.25482,41.38986 -5.25482,61.93332c0,20.34346 5.25482,60.73334 5.25482,60.73334z"></path><path d="M127.24024,302.66666v-122.66666h46.04226c0,0 6.50598,41.38988 6.50598,61.93334c0,20.34346 -6.50598,60.73332 -6.50598,60.73332z"></path></g><g><path d="M306.7175,425.33332c0,0 5.25482,-40.38986 5.25482,-60.73332c0,-20.54346 -5.25482,-61.93334 -5.25482,-61.93334h46.04226v122.66666z"></path><path d="M306.7175,302.66666c0,0 -6.50598,-40.38986 -6.50598,-60.73334c0,-20.54346 6.50598,-61.93332 6.50598,-61.93332h46.04226v122.66666z"></path></g></g><g><g><path d="M127.24024,670.66664v-122.66666h46.04226c0,0 -5.25482,41.38986 -5.25482,61.93332c0,20.34346 5.25482,60.73334 5.25482,60.73334z"></path><path d="M127.24024,547.99998v-122.66666h46.04226c0,0 6.50598,41.38988 6.50598,61.93334c0,20.34346 -6.50598,60.73332 -6.50598,60.73332z"></path></g><g><path d="M306.7175,670.66664c0,0 5.25482,-40.38986 5.25482,-60.73332c0,-20.54346 -5.25482,-61.93334 -5.25482,-61.93334h46.04226v122.66666z"></path><path d="M306.7175,547.99998c0,0 -6.50598,-40.38986 -6.50598,-60.73334c0,-20.54346 6.50598,-61.93332 6.50598,-61.93332h46.04226v122.66666z"></path></g></g><g><g><path d="M127.24024,915.99996v-122.66666h46.04226c0,0 -5.25482,41.38986 -5.25482,61.93332c0,20.34346 5.25482,60.73334 5.25482,60.73334z"></path><path d="M127.24024,793.3333v-122.66666h46.04226c0,0 6.50598,41.38988 6.50598,61.93334c0,20.34346 -6.50598,60.73332 -6.50598,60.73332z"></path></g><g><path d="M306.7175,915.99996c0,0 5.25482,-40.38986 5.25482,-60.73332c0,-20.54346 -5.25482,-61.93334 -5.25482,-61.93334h46.04226v122.66666z"></path><path d="M306.7175,793.3333c0,0 -6.50598,-40.38986 -6.50598,-60.73334c0,-20.54346 6.50598,-61.93332 6.50598,-61.93332h46.04226v122.66666z"></path></g></g></g><g fill="#0a0610"><g><g><path d="M127.24024,-310.66664v-122.66666h46.04226c0,0 -5.25483,41.38986 -5.25483,61.93332c0,20.34346 5.25483,60.73334 5.25483,60.73334z"></path><path d="M127.24024,-433.3333v-122.66666h46.04226c0,0 6.50597,41.38988 6.50597,61.93334c0,20.34346 -6.50597,60.73332 -6.50597,60.73332z"></path></g><g><path d="M306.7175,-310.66664c0,0 5.25483,-40.38986 5.25483,-60.73332c0,-20.54346 -5.25483,-61.93334 -5.25483,-61.93334h46.04226v122.66666z"></path><path d="M306.7175,-433.3333c0,0 -6.50597,-40.38986 -6.50597,-60.73334c0,-20.54346 6.50597,-61.93332 6.50597,-61.93332h46.04226v122.66666z"></path></g></g><g><g><path d="M127.24024,-65.33332v-122.66666h46.04226c0,0 -5.25483,41.38986 -5.25483,61.93332c0,20.34346 5.25483,60.73334 5.25483,60.73334z"></path><path d="M127.24024,-187.99998v-122.66666h46.04226c0,0 6.50597,41.38988 6.50597,61.93334c0,20.34346 -6.50597,60.73332 -6.50597,60.73332z"></path></g><g><path d="M306.7175,-65.33332c0,0 5.25483,-40.38986 5.25483,-60.73332c0,-20.54346 -5.25483,-61.93334 -5.25483,-61.93334h46.04226v122.66666z"></path><path d="M306.7175,-187.99998c0,0 -6.50597,-40.38986 -6.50597,-60.73334c0,-20.54346 6.50597,-61.93332 6.50597,-61.93332h46.04226v122.66666z"></path></g></g><g><g><path d="M127.24024,180v-122.66666h46.04226c0,0 -5.25483,41.38986 -5.25483,61.93332c0,20.34346 5.25483,60.73334 5.25483,60.73334z"></path><path d="M127.24024,57.33334v-122.66666h46.04226c0,0 6.50597,41.38988 6.50597,61.93334c0,20.34346 -6.50597,60.73332 -6.50597,60.73332z"></path></g><g><path d="M306.7175,180c0,0 5.25483,-40.38986 5.25483,-60.73332c0,-20.54346 -5.25483,-61.93334 -5.25483,-61.93334h46.04226v122.66666z"></path><path d="M306.7175,57.33334c0,0 -6.50597,-40.38986 -6.50597,-60.73334c0,-20.54346 6.50597,-61.93332 6.50597,-61.93332h46.04226v122.66666z"></path></g></g></g></g></g></svg>