<svg version="1.1" xmlns="http://www.w3.org/2000/svg" xmlns:xlink="http://www.w3.org/1999/xlink" width="86.5" height="86.5" viewBox="0,0,86.5,86.5"><defs><linearGradient x1="227.44734" y1="180.00001" x2="252.55267" y2="180.00001" gradientUnits="userSpaceOnUse" id="color-1"><stop offset="0" stop-color="#ddd3eb" stop-opacity="0"></stop><stop offset="1" stop-color="#ddd3eb" stop-opacity="0.40392"></stop></linearGradient></defs><g transform="translate(-196.75,-136.75)"><g stroke="none" stroke-width="0" stroke-miterlimit="10"><path d="M196.75,223.25v-86.5h86.5v86.5z" fill="none"></path><path d="M218.83333,180.00001c0,-11.69003 9.47664,-21.16667 21.16667,-21.16667c11.69003,0 21.16667,9.47664 21.16667,21.16667c0,11.69003 -9.47664,21.16667 -21.16667,21.16667c-11.69003,0 -21.16667,-9.47664 -21.16667,-21.16667z" fill-opacity="0.20784" fill="#e7e4eb"></path><path d="M244.87702,182.27901c0,0 -10.43963,0.00442 -15.18096,0.00442c-1.24198,0 -2.24872,-1.00696 -2.24872,-2.24872c0,-1.24198 1.00674,-2.24854 2.24872,-2.24854c3.97508,0 15.16876,-0.00464 15.16876,-0.00464c0,0 -0.7515,-0.76052 -4.21838,-4.22717c-0.87823,-0.87828 -0.87823,-2.3019 0,-3.17995c0.87869,-0.87805 2.30213,-0.87828 3.18018,0c2.81115,2.81074 8.06751,8.06769 8.06751,8.06769c0.87805,0.87828 0.87805,2.30209 0,3.17995c0,0 -4.5361,4.53628 -8.00293,8.00316c-0.87869,0.87869 -2.30231,0.87869 -3.18018,0c-0.87828,-0.87809 -0.87828,-2.30213 0,-3.17954c2.81119,-2.81201 4.16602,-4.16665 4.16602,-4.16665z" fill="url(#color-1)"></path></g></g></svg>