<svg version="1.1" xmlns="http://www.w3.org/2000/svg" xmlns:xlink="http://www.w3.org/1999/xlink" width="24.33752" height="96.73191" viewBox="0,-0.16051,24.33752,96.73191"><g transform="translate(-228.18067,-111.83766)"><g stroke-miterlimit="10"><g><path d="M228.94003,159.30835c0,-0.06018 0.00767,-0.11291 0.02112,-0.15911c-0.16993,-0.10319 -0.2961,-0.25201 -0.34651,-0.46721c-0.28761,-1.2278 2.14343,-1.85722 4.02619,-2.14659c0.10903,-0.02575 0.21871,-0.05111 0.32881,-0.07645c0.03716,-0.01582 0.07428,-0.03168 0.11137,-0.0476l-0.01444,-0.0421l0.43407,-0.14059c0.89225,-0.39387 1.78321,-0.8206 2.78245,-1.30631c0,0 0.04582,-0.02226 0.11545,-0.03827c0.00495,-0.68129 0.00813,-1.36286 0.00816,-2.04493c-0.10629,-0.06764 -0.2,-0.18691 -0.2,-0.39723c0,-0.34447 0.25137,-0.44471 0.39765,-0.47386c0.04071,-0.18566 0.20235,-0.30347 0.20235,-0.30347l0.36971,-0.25221c0.3116,-0.12621 0.64353,-0.20635 0.97874,-0.25743c-0.06578,-2.44866 -0.20684,-5.04971 0.03489,-7.36442c0.14751,-1.41242 0.70794,-2.12276 0.24014,-3.28197c-0.02858,0.00585 -0.05774,0.00886 -0.08737,0.00886h-0.00001c-0.3558,-0.00001 -0.64423,-0.43504 -0.64423,-0.97166c0,-0.11539 0.01334,-0.2261 0.03782,-0.32879l0.31835,-1.44043l0.00421,0.00212c0.0592,-0.44701 0.17551,-0.88475 0.39903,-1.34141c0.69717,-1.42437 2.74289,-1.9062 3.51156,-0.18127c0.20654,0.46348 0.18923,2.6349 0.24361,3.2911l0.12045,0.3688c0,0 0.23925,0.90209 -0.35883,1.26299c-0.00752,2.9114 -0.05406,5.82718 -0.07242,8.7357c-0.1423,0.14387 -0.1423,0.35407 -0.1423,0.35407c0,0.38527 0.00508,0.77388 0.01706,1.16425c0.1474,0.11005 0.28803,0.22827 0.42376,0.35203l0.01532,-0.0268l0.59127,0.31917c0.14297,0.07374 0.24473,0.21292 0.26297,0.37644c0.2696,0.11978 0.2696,0.44162 0.2696,0.44162c0,0.68466 0,1.36932 0,2.05397c2.42826,0.40922 7.07431,1.82238 8.41744,3.33541l0.05719,0.05399c0.02563,0.02131 0.05109,0.04634 0.07615,0.07556c0.10329,0.12044 0.13326,0.23441 0.12646,0.33352c-0.00247,0.09931 -0.04292,0.21017 -0.15701,0.32102c-0.02747,0.02669 -0.05493,0.04923 -0.08223,0.0681c-1.91333,1.47631 -5.88123,0.99907 -8.43799,0.92437c0,0.0081 0,0.01622 0,0.02432l-0.07638,0.41916c0,0 -0.00495,0.02405 -0.01818,0.06025c0.02495,0.13263 0.05065,0.26204 0.07636,0.38718c0,0 0.06401,0.32179 -0.00871,0.64371c0.31746,0.25928 0.61574,0.55339 0.83894,0.93329c0.76642,1.30456 0.51698,2.93821 0.56948,4.50599c0.06548,1.95551 0.16889,3.90538 0.2169,5.86015c0.3492,0.23855 0.3492,0.8845 0.3492,0.8845c0,5.97352 -0.89451,11.40743 -1.37818,17.29849l-0.08228,0.8697c0,0 -0.02078,0.21943 -0.11199,0.43371c-0.4487,1.97042 -0.21702,4.19644 -0.54499,6.23091c-0.33464,2.27205 -0.7686,4.5271 -1.18009,6.7918c-0.29886,0.39818 -0.53728,0.89757 -0.81698,1.34226c-0.32655,0.51916 -0.65315,1.03181 -0.97924,1.5416c-0.00744,0.00677 -0.01484,0.01341 -0.0222,0.01991c0.53849,-3.40205 1.24562,-6.75739 1.7445,-10.14208c0.36116,-2.10701 0.13535,-4.3353 0.58126,-6.41917l-0.03306,0.06361c0,0 0,-0.33885 0.13267,-0.61634l0.03385,-0.35699c0.41848,-5.00652 1.1323,-9.68342 1.32122,-14.64954c-0.2761,-0.27181 -0.2761,-0.82412 -0.2761,-0.82412v-0.48732c0,-2.59102 -0.15676,-5.16657 -0.24167,-7.75306c-0.02896,-0.88198 0.23486,-2.56407 -0.23829,-3.2911c-0.40626,-0.62425 -1.12152,-0.96347 -1.61873,-1.39162c0,0 -0.55935,-0.48208 -0.23972,-1.32571c0.17072,-0.4506 0.40983,-0.52299 0.59557,-0.49265c-0.03439,-0.22568 -0.06484,-0.45192 -0.0904,-0.67765c-0.04815,-0.06064 -0.08478,-0.1423 -0.09891,-0.25207l0.00001,0.00001c-0.01619,-0.12582 0.00565,-0.22291 0.04676,-0.29768c-0.10018,-1.32653 -0.00134,-2.60641 0.49677,-3.62661c0.01702,0.07376 0.03456,0.14738 0.05261,0.22084c0,-0.12268 0,-0.24535 0,-0.36802c-0.0512,-0.07793 -0.08099,-0.183 -0.06281,-0.32434c0.01033,-0.08027 0.0327,-0.14553 0.06281,-0.19851c0,-0.71005 0,-1.42011 0,-2.13016l-0.33874,-0.04114c-0.04712,0.00009 -0.09423,0.00018 -0.14135,0.00025c0.00699,0.08458 0.01442,0.16917 0.02228,0.25371l-0.02023,0.02615c0,0 -0.11859,0.08942 -0.27506,0.10601c-0.08588,0.07222 -0.19571,0.11841 -0.33616,0.11841c-0.32971,0 -0.49068,-0.2545 -0.56927,-0.503c-0.40327,0.00022 -0.80654,0.00025 -1.20981,0.00018c0,0.00616 0,0.01233 0,0.01849c0,0.33746 -0.0777,0.55771 -0.17914,0.70147c-0.09532,0.15299 -0.24136,0.27019 -0.4651,0.27019c-0.02551,0 -0.05002,-0.00153 -0.07355,-0.00445l-0.40581,-0.02456c-0.09354,-0.04203 -0.18027,-0.09304 -0.26132,-0.15138c0.00057,-0.26739 -0.00157,-0.53732 -0.00487,-0.8102c-0.22508,-0.00009 -0.45016,-0.00018 -0.67523,-0.00024c-0.00081,1.85913 -0.02458,3.71472 -0.04351,5.57074h0.03035c0.18886,-0.50388 0.32777,-1.00794 0.42938,-1.51542c0.12696,0.48405 0.22249,0.99779 0.27167,1.58253l0.00394,0.59462c0,0 0,0.01976 -0.00187,0.05366c-0.00062,0.034 -0.00207,0.05365 -0.00207,0.05365c-0.07255,0.9723 -0.07669,1.90047 -0.07683,2.87567c0.0154,0.16157 -0.00099,0.31466 -0.02333,0.43329c-0.02007,0.12245 -0.05741,0.27152 -0.12686,0.40242c-0.50572,1.2892 -1.11135,2.3836 -1.81559,3.44719l0.0399,-0.00887c0,0 -0.0104,0.03138 -0.03121,0.07924c0.01845,0.12625 0.01845,0.2172 0.01845,0.2172c0,4.83529 0.34412,9.54787 0.4936,14.32839c0.01087,0.08675 0.02188,0.17349 0.03303,0.26023l0.00097,0.74273c0,0 0,0.02065 -0.00438,0.05342c0.0276,1.12138 0.04236,2.24727 0.03739,3.38007c0.38093,2.22043 0.56545,4.46868 0.8706,6.71882c0.18432,0.28779 0.18432,0.70968 0.18432,0.70968c0,0.28686 -0.00568,0.5833 -0.01254,0.88544l0.00756,0.0905c0,0 0.01462,0.17636 -0.01866,0.38767c-0.02856,1.27492 -0.03715,2.61341 0.29544,3.73873c0.34075,1.15291 0.86076,2.08814 1.01231,3.3919c0.25289,2.17563 0.32468,4.38323 0.49215,6.58497c-0.24275,-0.49756 -0.58238,-1.18692 -0.65203,-1.27731c-0.44483,-0.57727 -0.66711,-0.70731 -0.83261,-1.26019c-0.07462,-1.25163 -0.15111,-2.50026 -0.27934,-3.73614c-0.1158,-1.11596 -0.64351,-1.95352 -0.92633,-2.94323c-0.42913,-1.5017 -0.40566,-3.19322 -0.38379,-4.82005l-0.06195,-0.7546c-0.3684,-2.50382 -0.57394,-4.99728 -0.97395,-7.47872c-0.00852,-2.35919 -0.08818,-4.69093 -0.18539,-7.01525c-0.27983,-1.6948 -0.53798,-3.5861 -0.35216,-4.99149c-0.00244,-0.01764 -0.00482,-0.03546 -0.00717,-0.05346l-0.01671,-0.06496l-0.18969,-0.02048l0.066,-0.57717c0.01578,-0.15694 0.10842,-0.29199 0.24087,-0.36915c-0.00069,-0.01843 -0.00138,-0.03688 -0.00207,-0.05532c-0.27381,-1.26346 -0.6412,-2.54053 -0.6412,-3.86779c0,0 0,-0.13642 0.0744,-0.26469c0.07899,-2.62756 0.76183,-4.5113 1.99286,-6.73618c0.00154,-0.6876 0.00593,-1.37484 0.01177,-2.0619c-2.01534,0.49658 -4.90332,0.1559 -6.6457,0.1559h-0.26667c0,0 -0.5,-0.00001 -0.5,-0.48583zM240.85511,137.23144c-0.00029,-0.0019 -0.21074,-0.02827 -0.45093,-0.05193c-0.02639,0.11414 -0.05497,0.18597 -0.05497,0.18597c-0.27047,0.67265 -0.57059,1.3281 -0.92281,1.90879c0.79582,1.8874 0.2532,2.75379 0.03847,4.79851c-0.25918,2.46806 -0.05426,5.30243 -0.0037,7.88271c0.38197,-0.00005 0.76393,-0.00003 1.1459,0.00014c0.00749,-3.84493 0.08025,-7.70421 0.08025,-11.557c0,0 0,-0.4973 0.23588,-0.78035c-0.03988,-0.74613 0.02493,-1.76903 -0.06807,-2.38684zM247.05641,157.42826c-1.31519,-0.48413 -2.37443,-1.17706 -3.71638,-1.48052c0,1.0491 0,2.09821 0,3.14731c2.1433,0.08057 5.59332,0.49471 7.39605,-0.44902c-0.94724,-0.82276 -2.55027,-0.80203 -3.67967,-1.21777zM234.56772,156.82163c-0.04192,0.05218 -0.09456,0.09582 -0.15472,0.1278l-0.45824,0.25442l-0.01603,-0.02725l-0.04562,0.05624c-0.39174,0.09715 -1.01552,0.35571 -1.66523,0.5867c-0.53662,0.20817 -1.09284,0.40855 -1.68561,0.60371c0.42698,0.02663 0.85243,0.07293 0.92541,0.07613c1.58302,0.06965 3.18742,-0.00075 4.77235,-0.00075c0.04105,0 0.08209,0 0.12314,0c0.00864,-0.84724 0.01829,-1.6944 0.0263,-2.54184c-0.63185,0.30603 -1.2306,0.59303 -1.82175,0.86483z" fill="#cbadff" stroke="none" stroke-width="0.5"></path><path d="M229.43853,158.63683c-0.17556,-0.45489 0.2926,-0.62548 0.2926,-0.62548c0.39319,-0.14214 0.79993,-0.26626 1.21482,-0.38029l0.00341,-0.0053l0.00495,0.00301c0.15503,-0.04255 0.31119,-0.08369 0.46819,-0.12385c0.60805,-0.52587 1.42613,-0.62362 2.28149,-0.72259c1.02664,-0.38418 2.16432,-0.76259 3.0066,-0.88357c0.15193,-0.07801 0.30102,-0.16048 0.44692,-0.24791c-0.01062,-0.74524 -0.01749,-1.4909 -0.01749,-2.23722c0,0 0,-0.10581 0.05082,-0.21867c-0.03131,-0.06179 -0.05082,-0.13882 -0.05082,-0.23477c0,-0.48582 0.5,-0.48582 0.5,-0.48582c0.14521,0 0.29043,0 0.43564,0c-0.00013,-0.00908 -0.00027,-0.01818 -0.0004,-0.02727c0.0096,0.00904 0.01924,0.01813 0.02893,0.02727c0.25179,0 0.50358,0 0.75537,0c0.00886,-0.63125 0.05068,-1.27137 0.05068,-1.72024c0,-2.5521 -0.52723,-6.91496 0.37732,-9.35938c-0.18213,-0.57101 -0.34864,-1.15395 -0.49668,-1.74672c-0.18252,-0.24183 -0.22452,-0.50967 -0.21202,-0.73867c-0.00363,-0.20512 0.03728,-0.43754 0.1822,-0.64601c0.25444,-0.50839 0.51669,-1.00824 0.78781,-1.49667c0.00882,-0.08935 0.02749,-0.18452 0.05874,-0.28529c0.04251,-0.17012 0.12035,-0.35764 0.26288,-0.474c0.1377,-0.12891 0.28427,-0.13781 0.40329,-0.10908c0.16491,0.02038 0.2822,0.10962 0.36563,0.22627c0.14879,0.12823 0.29757,0.25645 0.44635,0.38469l0.47748,0.91656c0.01977,0.03238 0.0381,0.06679 0.05484,0.103c0.50949,0.51619 0.17901,1.31369 0.17901,1.31369l-0.00003,-0.00001c-0.12137,0.28989 -0.24273,0.57979 -0.3641,0.86969l-0.21992,0.88453c-0.00981,0.04242 -0.0215,0.08351 -0.03495,0.12302c0.03706,0.06934 0.06505,0.14386 0.08619,0.2169c0.06134,0.16326 0.10432,0.37732 0.06517,0.62473c-0.00384,3.64447 -0.11774,7.26916 -0.15188,10.91301c0.08748,0 0.17497,0 0.26245,0h0.26667c0.01216,0 0.02422,0.00042 0.03616,0.00126c0.02665,-0.02518 0.05298,-0.04993 0.07895,-0.07425c0.00182,0.02908 0.00369,0.05817 0.00561,0.08725c0.00119,0.00029 0.00239,0.00058 0.00358,0.00087c0.04226,-0.00971 0.08952,-0.01513 0.14236,-0.01513c0.5,0 0.5,0.48582 0.5,0.48582c0,0.90824 -0.03799,1.83336 -0.04187,2.75543c2.86933,0.63773 5.52832,1.38144 8.2602,2.558c0.10022,0.03417 0.21541,0.10262 0.27485,0.2397c0.0445,0.08152 0.06677,0.18549 0.03212,0.31348c-0.02183,0.13063 -0.08564,0.21687 -0.16038,0.2738c-0.11155,0.10176 -0.24534,0.11887 -0.35117,0.11058h-0.38041c-2.5318,0 -5.06586,0.04843 -7.59965,0.06122c0.01497,0.86997 0.02983,1.74046 0.03254,2.60989c0.6424,0.94598 1.21864,2.31128 1.53522,3.52916c0.17541,0.28725 0.17541,0.69541 0.17541,0.69541c0,0.35324 -0.00118,0.70627 -0.00325,1.05909c0.13234,0.34653 0.06455,0.75551 0.06455,0.75551l-0.06129,0.25017c0,1.26803 0.26637,4.28899 -0.07822,5.79505c-0.00148,0.29491 -0.00231,0.58993 -0.00231,0.88511v0.97166c0,0.14644 -0.02148,0.28533 -0.05995,0.40986c0.25478,2.04038 -0.11268,4.18129 -0.35458,6.24652c-0.47874,4.08734 -0.37441,8.14859 -0.9764,12.23433c-0.29136,1.75772 -0.50628,3.42903 -0.87315,5.14149c0.00058,0.07149 -0.00313,0.11628 -0.00313,0.11628c-0.02395,0.26288 -0.05042,0.52506 -0.07896,0.78668l0.00316,0.3111c0,0 0,0.28877 -0.10437,0.55146c-0.22622,1.8116 -0.52822,3.60726 -0.75278,5.44849c-0.25868,0.40924 -0.51732,0.81487 -0.77564,1.21872c-0.05156,0.04693 -0.10119,0.08744 -0.14852,0.12067c-0.12624,-0.14123 -0.31745,-0.22558 -0.51707,-0.30488c-0.22708,-0.46632 -0.58407,-1.19519 -0.69098,-1.3676c-0.21927,-1.72508 -0.49872,-3.41322 -0.71128,-5.11541c-0.10437,-0.26269 -0.10437,-0.55145 -0.10437,-0.55145l0.00316,-0.3111c-0.02855,-0.26164 -0.05502,-0.5238 -0.07896,-0.78668c0,0 -0.00371,-0.0448 -0.00314,-0.11628c-0.36687,-1.71246 -0.58179,-3.38378 -0.87315,-5.1415c-0.60199,-4.08574 -0.49765,-8.14698 -0.9764,-12.23432c-0.2419,-2.06523 -0.60937,-4.20615 -0.35459,-6.24652c-0.03847,-0.12454 -0.05995,-0.2634 -0.05995,-0.40985v-0.97166c0,-0.29517 -0.00082,-0.59021 -0.00231,-0.88511c-0.34459,-1.50606 -0.07822,-4.52701 -0.07822,-5.79503l-0.06129,-0.25017c0,0 -0.06779,-0.40898 0.06455,-0.75551c-0.00207,-0.35284 -0.00325,-0.70585 -0.00325,-1.05909c0,0 0,-0.40816 0.1754,-0.69542c0.30968,-1.19133 0.86783,-2.52374 1.49332,-3.46671c-0.00889,-0.94525 -0.02589,-1.89006 -0.04462,-2.83493c-2.39537,-0.00471 -4.797,0.1014 -7.18221,0.1014c0,0 -0.43658,0 -0.49383,-0.39639c-0.0416,-0.04462 -0.07863,-0.10274 -0.10767,-0.17797z" fill="#160831" stroke="none" stroke-width="0.5"></path><path d="M239.95588,162.44975c0,0.35718 -0.10223,0.67835 -0.26496,0.90059c0.06511,0.2478 0.10104,0.5178 0.10143,0.80041c0.19793,0.94588 0.07726,2.14595 0.08078,4.14682c0.00816,4.64463 0.0139,9.28933 0.00092,13.93393c0.21491,1.26441 0.34322,3.87453 0.36794,4.25109c0.21443,3.26612 0.41532,10.42062 0.27734,14.22165c-0.02192,0.60396 -0.14978,1.17592 -0.40803,1.58323c0.00612,0.07544 0.00612,0.12238 0.00612,0.12238c0,1.92153 0.0981,3.8135 0.18618,5.70693c-0.03657,0.05724 -0.07315,0.11444 -0.10971,0.1716c-0.05156,0.04693 -0.10119,0.08743 -0.14852,0.12066c-0.12624,-0.14123 -0.31745,-0.22557 -0.51707,-0.30488c-0.24281,-0.4986 -0.63411,-1.29734 -0.70946,-1.39513c-0.0735,-0.09537 -0.14091,-0.17854 -0.203,-0.25343c-0.05596,-1.25264 -0.10249,-2.50866 -0.10838,-3.77656c-0.92571,-0.76013 -1.16235,-3.38327 -1.27136,-4.78297c-0.11898,-1.52769 -0.20293,-3.07286 -0.27126,-4.62344c-0.17306,-2.28675 -0.18392,-4.58008 -0.46334,-6.83996c-0.44537,-3.60209 -1.06214,-6.71744 -1.06418,-10.45985c0,0 0,-0.06039 0.00893,-0.15426c-0.8542,-6.12658 -1.27291,-13.29437 1.83133,-13.62744c-0.04068,-0.1452 -0.06317,-0.30482 -0.06317,-0.47236v-0.61824c0.92371,0.20483 1.84014,0.43856 2.74147,0.69379z" fill-opacity="0.54118" fill="#514566" stroke="none" stroke-width="0.5"></path><path d="M239.63523,153.91798c-0.8053,0 -0.8053,-1.21457 -0.8053,-1.21457c0,-2.76148 0,-6.37574 0,-9.13722c0,0 0,-1.21458 0.8053,-1.21458c0.8053,0 0.8053,1.21458 0.8053,1.21458c0,2.76148 0,5.52294 0,8.28441v0.8528c0,0 0,1.21457 -0.8053,1.21457z" fill-opacity="0.54118" fill="#514566" stroke="none" stroke-width="0.5"></path><path d="M239.93803,166.65598c-0.21725,0.56757 -0.70219,0.56757 -0.70219,0.56757h-1.3732c-0.22676,0 -0.43162,-0.14136 -0.57798,-0.36882c-0.57963,0.11331 -1.09582,-0.01124 -1.38129,-0.65214c-0.81684,-1.83385 1.60391,-4.52229 2.24176,-5.62294c0,0 0.53029,-0.91406 1.13634,-0.11426c0.12937,0.17073 0.20696,0.34666 0.24898,0.5178c0.00545,-0.0083 0.01084,-0.01662 0.01616,-0.02501l0.25465,0.1181v-0.18042h0.88854v0c0.44476,0 0.8053,0.54377 0.8053,1.21457c0,0.42745 -0.1464,0.80331 -0.36769,1.01977c0.17544,0.2228 0.28692,0.55651 0.28692,0.92951c0,0.29768 -0.07101,0.57037 -0.18888,0.7816c0.01782,0.10042 0.02732,0.20597 0.02732,0.31487c0,0.3942 -0.12451,0.74453 -0.31744,0.96641l-0.72044,0.84512l-0.19983,-0.3875c-0.02552,0.02586 -0.0512,0.05113 -0.07705,0.07577z" fill-opacity="0.53333" fill="#150830" stroke="none" stroke-width="0.5"></path><path d="M240.85087,146.73976c-0.56943,0.85882 -1.13887,0 -1.13887,0l-0.82078,-1.36866c0.006,-1.22852 0.28035,-2.58668 0.85992,-3.44996c0,0 0.60605,-0.7998 1.13634,0.11426c0.53029,0.91406 -0.07576,1.71386 -0.07576,1.71386c-0.17551,0.1745 -0.44592,0.37584 -0.43251,0.69225l0.47165,0.58061c0,0 0.56943,0.85882 0,1.71767z" fill-opacity="0.53333" fill="#150830" stroke="none" stroke-width="0.5"></path><g><path d="M239.11262,130.64842c0.00905,-0.45236 0.04236,-0.92723 0.07142,-1.36925l-0.2303,-0.0972c-0.13057,-0.05085 -0.24415,-0.15085 -0.32725,-0.28295c-0.02641,-0.02664 -0.0512,-0.05576 -0.07415,-0.08707c-0.16053,0 -0.31869,0 -0.47374,0c-0.23278,0 -0.38472,-0.10237 -0.48389,-0.236c-0.10553,-0.12558 -0.18638,-0.31796 -0.18638,-0.61272c0,-3.95333 1.41011,-7.7363 1.8268,-11.69908l0.05193,-0.85909c0,0 0.02543,-0.41858 0.27301,-0.64431c-0.00456,-0.19137 -0.00689,-0.38483 -0.00689,-0.58064v-0.20669l-0.00789,-0.0649h-0.09936v-0.88266c0,-0.46873 0.30009,-0.84871 0.67027,-0.84871c0.3391,0 0.61938,0.31884 0.66406,0.73268l0.10566,0.86963c0,0 0.00291,0.02398 0.00455,0.06446c0.00324,0.04032 0.00324,0.06459 0.00324,0.06459v0.27159c0,0.12122 0.00096,0.24141 0.00285,0.36066c0.13948,0.50368 0.11747,1.22021 0.11092,1.89272c0.16048,1.58219 0.47852,3.06681 0.8754,4.69412c0,0 0.00841,0.03459 0.01611,0.0917c0.00937,0.0567 0.01156,0.0928 0.01156,0.0928l0.05398,0.88874c0.08208,1.7044 0.0397,3.86587 0.92718,5.23219c0,0 0.41871,0.66273 -0.10468,1.19292c-0.20576,0.20842 -0.39533,0.23249 -0.54965,0.18495c-0.08109,0.11156 -0.18164,0.17747 -0.27215,0.21641c-0.02789,0.01357 -0.05668,0.02485 -0.08622,0.03366c-0.08784,0.19569 -0.23534,0.34283 -0.41118,0.40175c0.00164,0.43253 -0.00863,0.87868 -0.03224,1.29316c0.26574,-0.18922 0.53798,-0.38495 0.81522,-0.58267c1.44535,-1.42692 3.06694,-3.04624 4.64584,-3.70834l0.60166,-0.41555c0.01894,-0.01369 0.03847,-0.02626 0.05851,-0.03761c-0.32257,-0.68601 -0.61174,-1.38401 -0.70612,-2.15257c-0.00081,-0.00659 -0.0016,-0.01317 -0.00239,-0.01976l-0.0032,0.00152l-0.35205,-1.18874c-0.02748,-0.08658 -0.04401,-0.18021 -0.04743,-0.27815c-0.26123,-0.75089 -0.48302,-1.74049 -0.6503,-2.16229l-0.00001,-0.01725l-0.00523,0.00301l-0.29194,-0.81327c-0.04232,-0.11127 -0.06603,-0.23602 -0.06603,-0.36779c0,-0.46873 0.30009,-0.84871 0.67027,-0.84871c0.25154,0 0.47072,0.17545 0.58537,0.43498l0.11253,0.24426c0.00567,-0.00018 0.01136,-0.00027 0.01706,-0.00027c0.26757,0 0.49852,0.19852 0.606,0.4856l0.27479,0.6959c0.75751,0.42836 1.22076,0.89475 1.75015,1.72329c4.3482,4.86352 2.58182,11.75277 -0.88569,16.54787c0,0 -0.01302,0.01799 -0.03707,0.04508c-0.09594,0.11976 -0.24536,0.24943 -0.44209,0.24827c-0.12473,0.00763 -0.26527,-0.03647 -0.41084,-0.18006c-0.15238,-0.13179 -0.22838,-0.28784 -0.26065,-0.44059c-0.00237,-0.00923 -0.00457,-0.01843 -0.00661,-0.02761c-0.36986,-0.33621 -0.21102,-0.93961 -0.21102,-0.93961c0.30155,-1.1273 1.02752,-2.24361 1.16736,-3.42461c0.03569,-0.30142 0.06504,-0.59792 0.08818,-0.89006c-1.47758,0 -2.95517,0 -4.43275,0c0,0 -0.08223,0 -0.18909,-0.03647c-1.05713,1.02499 -2.04541,2.12444 -2.78283,3.36964c-0.02616,0.17187 -0.10594,0.35294 -0.28515,0.51179c-0.15079,0.13366 -0.28917,0.17818 -0.41057,0.17243c-0.10643,0.00506 -0.2259,-0.02851 -0.35535,-0.1269c-0.33503,-0.12712 -0.41549,-0.5283 -0.43481,-0.71365c-0.72631,-1.18121 -1.67581,-2.23143 -2.68848,-3.21332l-0.00001,0.00001c-0.10686,0.03647 -0.18909,0.03647 -0.18909,0.03647c-1.47758,0 -2.95517,0 -4.43275,0c0.02314,0.29215 0.0525,0.58865 0.08819,0.89006c0.13983,1.18099 0.86581,2.29731 1.16736,3.4246c0,0 0.15884,0.6034 -0.21102,0.93961c-0.00204,0.00918 -0.00424,0.01838 -0.00661,0.02761c-0.03227,0.15275 -0.10828,0.3088 -0.26065,0.44059c-0.14557,0.1436 -0.28611,0.1877 -0.41084,0.18006c-0.19673,0.00117 -0.34615,-0.1285 -0.44209,-0.24827c-0.02404,-0.02708 -0.03707,-0.04508 -0.03707,-0.04508c-3.46751,-4.7951 -5.23389,-11.68435 -0.88569,-16.54788c0.52939,-0.82854 0.99264,-1.29493 1.75015,-1.72329l0.27479,-0.69591c0.10747,-0.28707 0.33842,-0.4856 0.606,-0.4856c0.00571,0 0.01139,0.00009 0.01706,0.00027l0.11253,-0.24427c0.11465,-0.25952 0.33383,-0.43498 0.58537,-0.43498c0.37018,0 0.67027,0.37998 0.67027,0.84871c0,0.13176 -0.02371,0.25652 -0.06603,0.36779l-0.29194,0.81327l-0.00523,-0.00301l-0.00001,0.01725c-0.16728,0.42179 -0.38907,1.41139 -0.6503,2.16229c-0.00342,0.09795 -0.01996,0.19158 -0.04743,0.27815l-0.35205,1.18874l-0.0032,-0.00151c-0.00079,0.00659 -0.00158,0.01318 -0.00239,0.01976c-0.09438,0.76856 -0.38355,1.46656 -0.70612,2.15257c0.02004,0.01135 0.03957,0.02391 0.05851,0.03761l0.60166,0.41555c1.57891,0.6621 3.20049,2.28142 4.64584,3.70834c0.22509,0.16054 0.44689,0.31975 0.6646,0.47525zM235.06596,130.99268c-0.67945,-0.60807 -1.34583,-1.20236 -1.95344,-1.80076l-0.28969,-0.24207c-0.12214,-0.08362 -0.25524,-0.22701 -0.30704,-0.46771l-0.12742,-0.14755c-0.131,0.86373 -0.20047,1.74313 -0.20445,2.65809c0.93743,0 1.93093,0 2.88204,0zM247.58632,129.19191c-0.60761,0.5984 -1.27399,1.19269 -1.95345,1.80077c0.95112,0 1.94462,0 2.88205,0c-0.00397,-0.91496 -0.07345,-1.79437 -0.20445,-2.65809l-0.12742,0.14755c-0.0518,0.2407 -0.1849,0.38409 -0.30705,0.46771l-0.28969,0.24207z" fill="#160831" stroke="#cbadff" stroke-width="1"></path><path d="M240.76513,136.1101c0.03896,0.61128 0.10474,1.21262 0.18941,1.8534c0,0 0.11019,0.83716 -0.55096,0.97669c-0.66115,0.13953 -0.77134,-0.69764 -0.77134,-0.69764c-0.12308,-0.93849 -0.20895,-1.81255 -0.23727,-2.73317c-0.9798,-0.96998 -1.94284,-1.93103 -2.91823,-2.89184c-0.19773,0.22345 -0.47307,0.22345 -0.47307,0.22345h-0.17874c-1.23131,0 -2.46262,0 -3.69393,0c0,0 -0.03375,0 -0.08612,-0.00959c0.29696,1.54805 0.74622,3.05116 1.34888,4.68639c0,0 0.28345,0.76909 -0.32394,1.128c-0.60739,0.35891 -0.89084,-0.41018 -0.89084,-0.41018c-0.09622,-0.26108 -0.18881,-0.51941 -0.27776,-0.77554l-0.47593,-0.21914l0.00835,-0.02909c-0.05583,-0.01981 -0.11075,-0.04419 -0.1646,-0.07406c-0.55204,-0.30621 -0.88023,-1.43101 -1.11638,-2.07235c-0.79311,-2.15395 -1.4229,-4.75849 -1.31078,-7.23943c-0.01667,-0.04371 -0.03369,-0.08755 -0.05107,-0.13153l-0.14071,-0.76955c-0.05588,-0.14165 -0.08079,-0.32219 -0.03499,-0.54774c0.0214,-0.1572 0.07705,-0.33727 0.2087,-0.47227c0.09766,-0.11392 0.21018,-0.16533 0.31491,-0.18416c0.06509,-0.26094 0.14127,-0.51835 0.22933,-0.77145c-0.01603,-0.1813 0.01361,-0.39266 0.15762,-0.59248c0.0765,-0.13113 0.19208,-0.25567 0.36336,-0.2964c0.16758,-0.06056 0.31494,-0.01461 0.42967,0.05935c0.1748,0.08519 0.2741,0.22811 0.32942,0.37744c0.64389,0.99343 1.33115,1.07009 2.23311,1.59405c0.13819,0.01414 0.63498,0.11576 0.63498,0.84643c0,0.05042 -0.00236,0.09785 -0.00682,0.14245l0.44881,0.33151l-0.0063,0.01367l0.03501,0.00879c1.66687,1.54572 3.6676,3.18512 5.18199,5.1205c-0.03663,-1.12982 0.00239,-2.28477 0.02432,-3.42215c-0.05877,-0.03694 -0.10752,-0.08342 -0.14795,-0.13511c-0.33962,-0.08457 -0.84854,0.08996 -1.01802,-0.27148c-0.07601,-0.1621 -0.11289,-0.39307 -0.12108,-0.66982c-0.6358,-0.22373 -0.46489,-1.03528 -0.46489,-1.03528c0.5046,-2.38549 1.02003,-4.86555 1.3477,-7.303v-0.85231c0,-0.37039 0.18738,-0.68537 0.44865,-0.80123c0.05828,-1.44985 0.09655,-2.89482 0.08756,-4.32878v-0.30176c0,0 0,-0.84871 0.67027,-0.84871c0.67027,0 0.67027,0.84871 0.67027,0.84871v0.30176c-0.02085,4.18997 -0.36321,8.45505 -0.45444,12.67319c0.33528,0.22054 0.33528,0.75536 0.33528,0.75536v0.82985c0,0.17746 -0.00003,0.35455 0.00001,0.53132c0.43349,1.1633 0.22204,3.50078 0.12174,4.9315c0.09615,-0.04027 0.16943,-0.04741 0.16943,-0.04741l0.76721,-0.07473c0.01936,-0.00213 0.03895,-0.00321 0.05874,-0.00321c0.37018,0 0.67027,0.37998 0.67027,0.84871c0,0.30613 -0.12801,0.57441 -0.31994,0.7237l-0.59888,0.48257c-0.1365,0.17516 -0.273,0.35032 -0.40951,0.52548c0,0 -0.09417,0.11924 -0.24053,0.19827zM232.35806,128.10644c-0.02108,-0.0377 -0.03979,-0.07769 -0.05585,-0.11959c-0.10001,0.09787 -0.22247,0.16074 -0.35593,0.17411c0.11175,0.81691 0.01684,2.11423 -0.02666,3.0271c0.1175,-0.04449 0.21139,-0.04449 0.21139,-0.04449c0.89516,0 1.88479,0 2.83153,0c-0.42639,-0.37873 -1.75747,-1.47953 -1.88524,-1.73218c-0.01958,-0.0387 -0.03833,-0.07791 -0.05633,-0.11759l-0.01238,0.01078l-0.65052,-1.19812z" fill-opacity="0.54118" fill="#514566" stroke="none" stroke-width="0.5"></path><path d="M247.50085,138.08678c-0.52339,-0.53018 -0.10468,-1.19292 -0.10468,-1.19292l0.09924,0.02393c0.31177,-2.56605 0.33771,-5.45069 0.86917,-7.98913l-0.16031,-0.0145l0.05919,-1.04919c0.02179,-0.44382 0.31297,-0.79524 0.66896,-0.79524c0.32302,0 0.59267,0.28934 0.65613,0.6745l0.17571,0.96411l-0.01122,0.00328l0.01703,0.03199c0.3437,3.04465 0.30603,6.09859 -0.56954,8.98511c0,0 -0.24062,0.79214 -0.86621,0.48747c-0.03162,-0.01539 -0.06102,-0.03203 -0.08835,-0.04976c-0.17181,0.13358 -0.44077,0.22866 -0.74513,-0.07965z" fill-opacity="0.54118" fill="#514566" stroke="none" stroke-width="0.5"></path></g><path d="M241.16298,135.02118c0,0.9053 0,1.81059 0,2.71589v0.15088c0,0 0,0.43086 -0.33994,0.6786c-0.02578,0.20751 -0.16646,0.77364 -0.93403,0.77364c-0.93982,0 -0.93982,-0.84871 -0.93982,-0.84871c0,-1.08132 0,-3.06795 0,-4.14927c0,0 0,-0.84871 0.93982,-0.84871c0.93982,0 0.93982,0.84871 0.93982,0.84871c0,0.00154 0,0.00309 0,0.00463c0.33416,0.24839 0.33416,0.67434 0.33416,0.67434z" fill="#160831" stroke="none" stroke-width="0.5"></path></g></g></g></svg>