<svg version="1.1" xmlns="http://www.w3.org/2000/svg" xmlns:xlink="http://www.w3.org/1999/xlink" width="358" height="301" viewBox="0,0,358,301"><g transform="translate(-59.53411,91.10001)"><g stroke="none" stroke-miterlimit="10"><path d="M184.64044,169.58735c0.25956,0.58539 0.25956,1.13764 0.25956,1.13764v0.25c0,3.37392 1.28883,14.9456 -6.76494,11.40637c-1.66741,-0.73274 -1.29447,-3.44731 -1.48296,-5.25885c-0.34821,-3.34665 1.63539,-6.85572 3.4979,-9.39752c0,0 1.5,-2 3.5,-0.5c1.02434,0.76825 1.13057,1.66766 0.99044,2.36236z" fill="#0a060f" stroke-width="0.5"></path><path d="M198.19126,167.72662c0.95919,0.37305 1.97193,1.18881 2.90026,2.54536c0.69951,1.02218 0.25145,2.46572 0.30849,3.70302c0.27653,5.99911 -1.44675,13.99367 -9.14204,13.99767c-5.75407,0.00299 -6.56248,-3.7674 -6.60796,-8.49767c-0.04652,-4.83794 0.80312,-8.29127 2.70214,-12.7348c0,0 0.96619,-2.25445 3.21759,-1.34022c0.16543,-0.22937 0.36376,-0.43193 0.59853,-0.60048c3.36516,-2.41597 5.09538,0.28494 6.023,2.92712z" fill="#0a060f" stroke-width="0.5"></path><path d="M219.73013,190.11175l-2.73396,0.58301c-0.32292,0.10057 -0.67031,0.17639 -1.04765,0.22341l-0.03881,0.00828c0,0 -0.00368,-0.00074 -0.01072,-0.00229c-0.17624,0.02064 -0.35897,0.03504 -0.54874,0.04281c-8.78775,0.35945 -7.17291,-12.863 -5.30172,-18.09084c0.36182,-1.01087 0.8837,-1.95709 1.32555,-2.93563c0,0 1.03451,-2.27592 3.31042,-1.24141c0.04366,0.01985 0.08611,0.04015 0.12737,0.06089c0.21973,-0.14101 0.44872,-0.26607 0.69089,-0.36842c1.88196,-0.7954 9.34067,-0.92177 10.74329,0.6476c1.05094,1.17589 0.52609,3.11395 0.65394,4.68585c0.42325,5.2035 -1.73632,9.32674 -5.18107,12.96508c-0.0245,0.02587 -0.04887,0.05176 -0.07313,0.07767c-0.03573,0.20894 -0.09318,0.39916 -0.15411,0.56026c-0.09576,0.27326 -0.252,0.60322 -0.50324,0.89626c-0.41944,0.62916 -0.83888,1.25832 -1.25832,1.88748z" fill="#0a060f" stroke-width="0.5"></path><path d="M246.60419,191.15464c-0.60773,1.14734 -2.04496,1.60032 -3.06744,2.40048l-1.63675,0.41987c0,0 -1.18486,0 -1.92318,-0.8157c-1.05523,0.95818 -2.27315,1.61173 -3.55253,1.7601c-9.30274,1.07883 -6.20832,-6.85635 -4.91483,-12.4592c-0.35838,-1.42389 -0.5078,-2.89227 -0.85771,-4.89147l0.12313,-0.33124l-0.11248,-0.01125l0.49477,-4.94768c0.0819,-0.93392 0.6773,-1.72055 1.50219,-2.07586c-0.25337,-2.36108 2.13708,-2.70257 2.13708,-2.70257c2.13476,-0.30128 6.37868,-1.10681 8.39412,-0.39683c1.3867,0.48849 2.70579,1.48308 3.4455,2.75367c0.60838,1.04502 0.21181,2.40994 0.26393,3.61803c0.15874,3.67969 0.33883,7.7029 -0.0031,11.37453c-0.04332,0.46521 -0.038,0.95592 -0.05318,1.44119c0.33071,1.777 0.44313,3.57514 -0.23953,4.86392zM238.78129,173.63844c0.03413,-0.01428 0.06821,-0.02823 0.10224,-0.04181c-0.00617,-0.08433 -0.01645,-0.16849 -0.03164,-0.25246c-0.02335,-0.12901 -0.0369,0.08158 -0.0706,0.29427z" fill="#0a060f" stroke-width="0.5"></path><path d="M254.51472,184.31203c-0.25792,-0.96345 -0.43583,-1.80426 -0.54946,-2.26953c-0.64658,-2.64763 -2.16998,-6.58734 -1.20799,-9.29197c0.03299,-0.09275 0.06817,-0.18428 0.10549,-0.27458c-0.07594,-0.55537 0.05504,-1.21064 0.6558,-1.89722c0.53192,-0.60791 1.0884,-0.84753 1.59802,-0.89339c0.42798,-0.3162 0.89426,-0.59708 1.3895,-0.84231c0.45845,-0.53156 1.13689,-0.86804 1.89391,-0.86804h0.52428c3.65671,-0.88843 7.94258,-0.24444 10.28378,2.02347c0.90918,0.88071 1.04712,2.30491 1.57067,3.45736c1.49119,5.97109 4.23904,19.24559 -5.20677,20.01325c-1.52354,0.12382 -3.0583,-0.3756 -4.49948,-0.88501c-1.53055,-0.541 -3.10938,-1.16124 -4.32699,-2.23488c-1.91323,-1.68701 -2.46396,-3.83429 -2.23077,-6.03716zM259.90019,173.21622c-0.02425,-0.08043 -0.04965,-0.16084 -0.07626,-0.24122h-0.13133c0.0699,0.08007 0.1391,0.16048 0.20759,0.24122z" fill="#0a060f" stroke-width="0.5"></path><path d="M290.34134,185.55019c-2.74708,3.30654 -9.3816,4.18464 -12.09601,0.19263c-0.70916,-1.04294 -0.27594,-2.50853 -0.34532,-3.76782c-0.13516,-2.45332 -0.00281,-4.96395 -0.00004,-7.42251c-0.23222,-0.37379 -0.48212,-0.73398 -0.74996,-1.07749c0,0 -1.30179,-1.73572 0.13708,-3.18594c1.06106,-4.07504 8.04772,-4.2989 10.99002,-3.48413c6.64093,1.83898 6.95594,9.90911 3.60266,15.01768c-0.2744,1.46747 -0.78081,2.81567 -1.53843,3.72758z" fill="#0a060f" stroke-width="0.5"></path><path d="M300.01804,166.73893c1.45577,0.72788 1.48989,1.92965 1.33644,2.67975c0.03,0.03562 0.04553,0.05632 0.04553,0.05632c1.88605,2.67257 3.49548,6.37194 1.6776,9.72803c-0.43623,0.80535 -1.28271,1.27773 -2.05793,1.80795c-0.00078,0.0026 -0.00156,0.00521 -0.00234,0.00782l0.00438,-0.00324c0,0 -0.0068,0.0204 -0.02103,0.05678c-0.1576,0.49115 -0.48153,1.07514 -1.14735,1.40089c-0.40647,0.23704 -0.93402,0.36598 -1.60526,0.22852c-0.68026,-0.08185 -1.13997,-0.371 -1.45062,-0.72442c-0.52864,-0.51958 -0.65127,-1.17604 -0.64547,-1.69182c-0.00199,-0.03902 -0.00199,-0.06052 -0.00199,-0.06052c0,-3.58333 0,-7.16667 0,-10.75l0.51393,-1.61803c0,0 1.11803,-2.23607 3.3541,-1.11803z" fill="#0a060f" stroke-width="0.5"></path><g fill-opacity="0.54902" fill="#0a060f" stroke-width="0.5"><path d="M179.88969,176.47669c0.00681,-0.07596 0.01367,-0.15197 0.02058,-0.22803c0,0 0.22634,-2.48973 2.71607,-2.26339c2.48973,0.22634 2.26339,2.71607 2.26339,2.71607c-0.24261,2.66742 -0.45779,5.32824 -0.56151,8.00459l1.24432,2.28125c0.20838,0.36495 0.32746,0.78748 0.32746,1.23782c0,1.38071 -1.11929,2.5 -2.5,2.5c-0.63486,0 -1.21445,-0.23664 -1.65538,-0.62653l-1.99089,-1.74202l0.12073,-0.13798c-0.22848,-0.1515 -0.44578,-0.32012 -0.64908,-0.51014c-1.50203,-1.40396 -1.07347,-7.27743 -1.07539,-9.23332z"></path><path d="M191.78507,173.22924c1.09796,-0.29486 2.53899,0.19127 3.72376,0.27164c3.04617,0.20665 5.90891,1.61655 7.63402,4.36974c0.6837,1.09115 0.20706,2.5677 0.25716,3.85438c0.08978,2.30572 0.59008,7.20216 -0.55629,9.19902c-0.69964,1.21871 -2.00909,2.00519 -3.21431,2.72781c-1.16697,0.69968 -2.48765,1.13627 -3.80411,1.48024c-11.58706,3.0275 -9.24348,-13.62202 -7.60065,-20.26341c0,0 0.60634,-2.42536 3.0317,-1.81902c0.19526,0.04881 0.37087,0.10942 0.52873,0.1796zM194.82781,186.23608c-0.01222,0.05231 -0.02541,0.10602 -0.03904,0.15983c0.01042,0.00697 0.02078,0.01402 0.03109,0.02115c0.00666,-0.06237 0.00923,-0.12266 0.00794,-0.18098z"></path><path d="M216.80207,176.09379c0.87794,-0.36547 1.77551,-0.70067 2.61935,-1.1187c3.34733,1.52509 7.77394,2.82753 8.45713,7.1732c0.19841,1.26204 -0.55937,2.4946 -0.76559,3.75539c-0.6967,4.25951 -2.38733,11.55529 -6.9111,13.58926c-1.30127,0.58508 -2.83174,0.58763 -4.25395,0.47388c-7.7343,-0.61863 -8.1276,-8.11135 -6.73105,-14.0662c0.76044,-3.24249 1.85008,-6.31889 3.12543,-9.38716c0,0 0.96154,-2.30769 3.26923,-1.34615c0.5824,0.24267 0.95658,0.57107 1.19053,0.92649z"></path><path d="M236.80463,176.56788c2.03518,-1.19587 4.05732,-0.864 7.74053,-0.31518c1.50836,1.57399 3.66483,3.47321 4.45851,5.62954c1.74105,4.73023 0.7356,14.89661 -2.96259,18.47872c-3.53637,3.42535 -11.06963,1.68827 -13.70356,-1.97311c-2.22955,-3.09926 -1.41796,-7.63987 -1.02021,-11.21886c-0.2701,-0.62947 -0.42649,-1.51286 -0.4152,-2.79659c0.00694,-0.78872 0.32619,-1.52349 0.76082,-2.21589c0.12515,-1.45015 0.39303,-2.8371 1.21116,-4.71603c0,0 1.03451,-2.27592 3.31042,-1.24141c0.24255,0.11025 0.44751,0.2346 0.62012,0.3688z"></path><path d="M302.10622,179.4653c-0.00192,1.95588 0.42664,7.82935 -1.07539,9.23332c-0.2033,0.19003 -0.4206,0.35864 -0.64908,0.51014l0.12073,0.13798l-1.99089,1.74203c-0.44092,0.38989 -1.02051,0.62653 -1.65537,0.62653c-1.38071,0 -2.5,-1.11929 -2.5,-2.5c0,-0.45034 0.11907,-0.87287 0.32745,-1.23782l1.24432,-2.28125c-0.10372,-2.67635 -0.3189,-5.33718 -0.56151,-8.00459c0,0 -0.22634,-2.48973 2.26339,-2.71607c2.48973,-0.22634 2.71607,2.2634 2.71607,2.2634c0.00691,0.07606 0.01378,0.15207 0.02058,0.22803z"></path><path d="M288.99987,174.03994c2.42535,-0.60634 3.03169,1.81902 3.03169,1.81902c1.64283,6.64139 3.98642,23.2909 -7.60064,20.26341c-1.31645,-0.34396 -2.63714,-0.78056 -3.80411,-1.48024c-1.20523,-0.72262 -2.51467,-1.5091 -3.21431,-2.72781c-1.14637,-1.99686 -0.64607,-6.89329 -0.55629,-9.19902c0.0501,-1.28668 -0.42654,-2.76323 0.25716,-3.85438c1.72511,-2.75319 4.58785,-4.16308 7.63402,-4.36973c1.18477,-0.08038 2.62579,-0.56651 3.72376,-0.27165c0.15786,-0.07018 0.33347,-0.13079 0.52873,-0.1796zM285.43635,187.40736c0.01031,-0.00713 0.02067,-0.01417 0.03109,-0.02115c-0.01363,-0.05381 -0.02681,-0.10753 -0.03903,-0.15983c-0.00128,0.05831 0.00128,0.11862 0.00795,0.18098z"></path><path d="M264.64468,176.1576c2.30769,-0.96154 3.26923,1.34616 3.26923,1.34616c1.27535,3.06826 2.36499,6.14467 3.12543,9.38715c1.39655,5.95485 1.00326,13.44758 -6.73105,14.06621c-1.42221,0.11375 -2.95267,0.11119 -4.25394,-0.47388c-4.52377,-2.03397 -6.2144,-9.32975 -6.9111,-13.58926c-0.20622,-1.26079 -0.964,-2.49335 -0.76558,-3.7554c0.68319,-4.34567 5.1098,-5.6481 8.45713,-7.17319c0.84384,0.41804 1.74141,0.75324 2.61935,1.11871c0.23396,-0.35541 0.60814,-0.68383 1.19054,-0.92649z"></path></g><path d="M59.53411,209.89999v-301h358v301z" fill="none" stroke-width="0"></path></g></g></svg>