<svg version="1.1" xmlns="http://www.w3.org/2000/svg" xmlns:xlink="http://www.w3.org/1999/xlink" width="46.8668" height="47.47669" viewBox="0,0,46.8668,47.47669"><g transform="translate(-216.5666,-156.26166)"><g stroke="none" stroke-width="0.5" stroke-miterlimit="10"><path d="M240.83289,156.90768c4.39967,-2.93311 14.96084,4.9118 17.75325,7.72217c8.25048,8.30357 6.1137,33.9294 -7.52507,37.33909c-7.08236,1.77058 -17.00218,3.14956 -23.60396,-0.67121c-17.93628,-10.38061 -12.37624,-39.57182 6.89678,-44.39007z" fill-opacity="0.28235" fill="#b59fd8"></path><path d="M240.59753,191.81368c2.57882,0.77697 6.8281,-0.36905 8.65674,0.85004c2.00429,1.3362 2.03134,3.75759 1.37403,5.82051c-1.30654,4.10058 -9.23171,4.53996 -14.67663,3.05944c-3.27609,-0.02328 -7.15497,-1.556 -8.60225,-3.61345c-4.32265,-2.86005 -7.82285,-7.70759 -7.92796,-11.8622c-0.34173,-13.50808 4.03409,-23.2353 17.16343,-26.90422c13.31351,-3.72039 29.60843,13.03072 21.1704,26.28409c-2.81708,4.42469 -9.0469,4.43186 -13.65313,3.28031c-1.47558,-0.36889 -4.06941,-0.90443 -5.23466,-1.89496c-0.69448,-0.59034 -1.78906,-2.7608 -1.99285,-1.87238c-0.25274,1.10187 0.24245,2.69138 0.87967,4.40991c0.85227,0.99024 1.60177,2.06889 2.8432,2.44291z" fill="#160831"></path><path d="M222.47152,171.90381c2.32119,-0.92848 3.24967,1.39272 3.24967,1.39272l0.67881,2.17848c0,0.57551 -0.0493,1.22723 -0.09258,1.90615l0.25349,0.22533l-0.10043,0.11298c0.21152,0.15857 0.41487,0.32824 0.6081,0.51166c0.66975,0.63573 0.26848,1.84342 0.60464,2.70348c0.10583,0.27077 0.2749,0.51797 0.49258,0.74158c0.30205,-0.12948 0.63475,-0.20118 0.98419,-0.20118c0.57191,0 1.09897,0.19204 1.5202,0.51515l1.66447,1.24835c0.80354,0.06011 1.55059,0.00813 2.09086,-0.15624c2.98898,-0.90932 5.1068,-4.80472 8.06673,-5.93665c1.92466,-0.73603 6.91396,-0.85614 8.93698,-0.36395c5.7134,1.39003 10.06242,6.56142 6.62474,12.46232c-0.63072,1.08265 -1.49686,1.93273 -2.49966,2.62223c-0.30421,0.36878 -0.62698,0.72764 -0.90433,1.10878c-1.69597,2.33064 -4.25651,5.44571 -6.89436,6.74222c-4.32477,2.12564 -11.63155,1.5054 -15.63436,-0.59399c-2.16677,-1.37798 -5.62696,-3.15327 -7.97191,-5.21074c-2.27252,-1.85626 -4.22735,-4.13624 -4.91273,-6.78504c-0.35758,-1.38195 -0.70592,-3.08562 0.0731,-4.28177c0.16245,-0.24943 0.34903,-0.47548 0.55441,-0.6833l-0.09559,-0.08364l0.45511,-0.52013c-0.04446,-0.52367 -0.06875,-1.0519 -0.07367,-1.58361v-2.5c0,-0.8823 0.45705,-1.65785 1.14731,-2.10279l-0.2185,-0.21873c0,0 -0.92848,-2.32119 1.39272,-3.24967z" fill="#b49fda"></path></g></g></svg>