<svg version="1.1" xmlns="http://www.w3.org/2000/svg" xmlns:xlink="http://www.w3.org/1999/xlink" width="164" height="360" viewBox="0,0,164,360"><g transform="translate(-158,0)"><g stroke-miterlimit="10"><path d="M158,360v-360h164v360z" fill="none" stroke="none" stroke-width="NaN"></path><g><path d="M228.63528,160.92387c0,-0.06331 0.00767,-0.11878 0.02112,-0.16738c-0.16993,-0.10855 -0.2961,-0.26511 -0.34651,-0.49148c-0.28761,-1.29159 2.14343,-1.95372 4.02619,-2.25812c0.10903,-0.02709 0.21871,-0.05376 0.32881,-0.08042c0.03716,-0.01664 0.07428,-0.03333 0.11137,-0.05008l-0.01444,-0.04428l0.43407,-0.1479c0.89225,-0.41434 1.78321,-0.86324 2.78245,-1.37418c0,0 0.04582,-0.02342 0.11545,-0.04026c0.00495,-0.71668 0.00813,-1.43367 0.00816,-2.15118c-0.10629,-0.07115 -0.2,-0.19662 -0.2,-0.41787c0,-0.36237 0.25137,-0.46781 0.39765,-0.49848c0.04071,-0.19531 0.20235,-0.31923 0.20235,-0.31923l0.36971,-0.26532c0.3116,-0.13276 0.64353,-0.21707 0.97874,-0.27081c-0.06578,-2.57589 -0.20684,-5.31209 0.03489,-7.74705c0.14751,-1.48581 0.70794,-2.23306 0.24014,-3.4525c-0.02858,0.00615 -0.05774,0.00932 -0.08737,0.00932h-0.00001c-0.3558,-0.00001 -0.64423,-0.45765 -0.64423,-1.02214c0,-0.12139 0.01334,-0.23784 0.03782,-0.34587l0.31835,-1.51527l0.00421,0.00223c0.0592,-0.47023 0.17551,-0.93072 0.39903,-1.41111c0.69717,-1.49837 2.74289,-2.00524 3.51156,-0.19069c0.20654,0.48756 0.18923,2.7718 0.24361,3.46209l0.12045,0.38797c0,0 0.23925,0.94897 -0.35883,1.32861c-0.00752,3.06267 -0.05406,6.12994 -0.07242,9.18959c-0.1423,0.15135 -0.1423,0.37247 -0.1423,0.37247c0,0.40529 0.00508,0.81409 0.01706,1.22474c0.1474,0.11577 0.28803,0.24013 0.42376,0.37032l0.01532,-0.02819l0.59127,0.33575c0.14297,0.07757 0.24473,0.22398 0.26297,0.396c0.2696,0.126 0.2696,0.46457 0.2696,0.46457c0,0.72023 0,1.44046 0,2.16069c2.42826,0.43049 7.07431,1.91707 8.41744,3.50871l0.05719,0.0568c0.02563,0.02241 0.05109,0.04875 0.07615,0.07948c0.10329,0.12669 0.13326,0.24659 0.12646,0.35085c-0.00247,0.10447 -0.04292,0.22109 -0.15701,0.3377c-0.02747,0.02808 -0.05493,0.05178 -0.08223,0.07164c-1.91333,1.55302 -5.88123,1.05097 -8.43799,0.97239c0,0.00852 0,0.01706 0,0.02558l-0.07638,0.44094c0,0 -0.00495,0.0253 -0.01818,0.06338c0.02495,0.13952 0.05065,0.27566 0.07636,0.40729c0,0 0.06401,0.33851 -0.00871,0.67715c0.31746,0.27275 0.61574,0.58214 0.83894,0.98179c0.76642,1.37234 0.51698,3.09088 0.56948,4.74011c0.06548,2.05712 0.16889,4.10829 0.2169,6.16463c0.3492,0.25094 0.3492,0.93046 0.3492,0.93046c0,6.28389 -0.89451,12.00013 -1.37818,18.19728l-0.08228,0.91489c0,0 -0.02078,0.23083 -0.11199,0.45625c-0.4487,2.07279 -0.21702,4.41447 -0.54499,6.55466c-0.33464,2.3901 -0.7686,4.76231 -1.18009,7.14469c-0.29886,0.41886 -0.53728,0.94421 -0.81698,1.412c-0.32655,0.54613 -0.65315,1.08542 -0.97924,1.6217c-0.00744,0.00712 -0.01484,0.01411 -0.0222,0.02095c0.53849,-3.57882 1.24562,-7.10849 1.7445,-10.66904c0.36116,-2.21649 0.13535,-4.56055 0.58126,-6.75269l-0.03306,0.06691c0,0 0,-0.35645 0.13267,-0.64837l0.03385,-0.37554c0.41848,-5.26665 1.1323,-10.18654 1.32122,-15.4107c-0.2761,-0.28593 -0.2761,-0.86694 -0.2761,-0.86694v-0.51264c0,-2.72565 -0.15676,-5.43502 -0.24167,-8.15589c-0.02896,-0.92781 0.23486,-2.6973 -0.23829,-3.4621c-0.40626,-0.65668 -1.12152,-1.01353 -1.61873,-1.46393c0,0 -0.55935,-0.50712 -0.23972,-1.39459c0.17072,-0.47401 0.40983,-0.55016 0.59557,-0.51825c-0.03439,-0.23741 -0.06484,-0.4754 -0.0904,-0.71286c-0.04815,-0.06379 -0.08478,-0.14969 -0.09891,-0.26517l0.00001,0.00001c-0.01619,-0.13236 0.00565,-0.23449 0.04676,-0.31315c-0.10018,-1.39545 -0.00134,-2.74183 0.49677,-3.81504c0.01702,0.0776 0.03456,0.15503 0.05261,0.23231c0,-0.12905 0,-0.25809 0,-0.38714c-0.0512,-0.08198 -0.08099,-0.19251 -0.06281,-0.3412c0.01033,-0.08445 0.0327,-0.15309 0.06281,-0.20883c0,-0.74695 0,-1.4939 0,-2.24084l-0.33874,-0.04328c-0.04712,0.00009 -0.09423,0.00019 -0.14135,0.00026c0.00699,0.08897 0.01442,0.17796 0.02228,0.26689l-0.02023,0.02751c0,0 -0.11859,0.09407 -0.27506,0.11152c-0.08588,0.07597 -0.19571,0.12456 -0.33616,0.12456c-0.32971,0 -0.49068,-0.26772 -0.56927,-0.52914c-0.40327,0.00024 -0.80654,0.00026 -1.20981,0.00019c0,0.00648 0,0.01297 0,0.01945c0,0.35499 -0.0777,0.58668 -0.17914,0.73791c-0.09532,0.16093 -0.24136,0.28423 -0.4651,0.28423c-0.02551,0 -0.05002,-0.00161 -0.07355,-0.00468l-0.40581,-0.02583c-0.09354,-0.04421 -0.18027,-0.09787 -0.26132,-0.15925c0.00057,-0.28128 -0.00157,-0.56524 -0.00487,-0.85229c-0.22508,-0.00009 -0.45016,-0.00019 -0.67523,-0.00025c-0.00081,1.95572 -0.02458,3.90773 -0.04351,5.86019h0.03035c0.18886,-0.53006 0.32777,-1.06031 0.42938,-1.59415c0.12696,0.5092 0.22249,1.04963 0.27167,1.66476l0.00394,0.62551c0,0 0,0.02079 -0.00187,0.05645c-0.00062,0.03576 -0.00207,0.05643 -0.00207,0.05643c-0.07255,1.02282 -0.07669,1.99921 -0.07683,3.02508c0.0154,0.16996 -0.00099,0.331 -0.02333,0.45581c-0.02007,0.12881 -0.05741,0.28563 -0.12686,0.42333c-0.50572,1.35619 -1.11135,2.50745 -1.81559,3.62629l0.0399,-0.00934c0,0 -0.0104,0.03301 -0.03121,0.08335c0.01845,0.13281 0.01845,0.22848 0.01845,0.22848c0,5.08652 0.34412,10.04396 0.4936,15.07287c0.01087,0.09126 0.02188,0.1825 0.03303,0.27375l0.00097,0.78132c0,0 0,0.02172 -0.00438,0.0562c0.0276,1.17965 0.04236,2.36403 0.03739,3.55569c0.38093,2.3358 0.56545,4.70086 0.8706,7.06791c0.18432,0.30274 0.18432,0.74655 0.18432,0.74655c0,0.30176 -0.00568,0.6136 -0.01254,0.93145l0.00756,0.0952c0,0 0.01462,0.18553 -0.01866,0.40781c-0.02856,1.34117 -0.03715,2.7492 0.29544,3.93298c0.34075,1.21282 0.86076,2.19664 1.01231,3.56814c0.25289,2.28868 0.32468,4.61097 0.49215,6.92711c-0.24275,-0.52342 -0.58238,-1.24859 -0.65203,-1.34368c-0.44483,-0.60726 -0.66711,-0.74406 -0.83261,-1.32567c-0.07462,-1.31666 -0.15111,-2.63017 -0.27934,-3.93026c-0.1158,-1.17394 -0.64351,-2.05502 -0.92633,-3.09616c-0.42913,-1.57973 -0.40566,-3.35914 -0.38379,-5.07049l-0.06195,-0.7938c-0.3684,-2.63392 -0.57394,-5.25692 -0.97395,-7.8673c-0.00852,-2.48177 -0.08818,-4.93466 -0.18539,-7.37974c-0.27983,-1.78286 -0.53798,-3.77242 -0.35216,-5.25083c-0.00244,-0.01856 -0.00482,-0.0373 -0.00717,-0.05624l-0.01671,-0.06833l-0.18969,-0.02155l0.066,-0.60715c0.01578,-0.16509 0.10842,-0.30716 0.24087,-0.38833c-0.00069,-0.01938 -0.00138,-0.0388 -0.00207,-0.0582c-0.27381,-1.3291 -0.6412,-2.67253 -0.6412,-4.06875c0,0 0,-0.14351 0.0744,-0.27844c0.07899,-2.76408 0.76183,-4.7457 1.99286,-7.08617c0.00154,-0.72333 0.00593,-1.44628 0.01177,-2.16903c-2.01534,0.52238 -4.90332,0.164 -6.6457,0.164h-0.26667c0,0 -0.5,-0.00001 -0.5,-0.51107zM240.55036,137.69989c-0.00029,-0.002 -0.21074,-0.02973 -0.45093,-0.05463c-0.02639,0.12007 -0.05497,0.19563 -0.05497,0.19563c-0.27047,0.7076 -0.57059,1.39711 -0.92281,2.00796c0.79582,1.98546 0.2532,2.89687 0.03847,5.04784c-0.25918,2.5963 -0.05426,5.57793 -0.0037,8.29228c0.38197,-0.00005 0.76393,-0.00004 1.1459,0.00014c0.00749,-4.04471 0.08025,-8.10451 0.08025,-12.15747c0,0 0,-0.52314 0.23588,-0.82089c-0.03988,-0.7849 0.02493,-1.86095 -0.06807,-2.51086zM246.75166,158.94609c-1.31519,-0.50928 -2.37443,-1.23822 -3.71638,-1.55744c0,1.10361 0,2.20723 0,3.31084c2.1433,0.08475 5.59332,0.52042 7.39605,-0.47235c-0.94724,-0.86551 -2.55027,-0.8437 -3.67967,-1.28104zM234.26297,158.30793c-0.04192,0.05489 -0.09456,0.10079 -0.15472,0.13444l-0.45824,0.26764l-0.01603,-0.02867l-0.04562,0.05916c-0.39174,0.10219 -1.01552,0.37419 -1.66523,0.61718c-0.53662,0.21898 -1.09284,0.42978 -1.68561,0.63507c0.42698,0.02801 0.85243,0.07672 0.92541,0.08009c1.58302,0.07327 3.18742,-0.00079 4.77235,-0.00079c0.04105,0 0.08209,0 0.12314,0c0.00864,-0.89126 0.01829,-1.78244 0.0263,-2.67391c-0.63185,0.32193 -1.2306,0.62384 -1.82175,0.90977z" fill="#ff0000" stroke="none" stroke-width="0.5"></path><path d="M229.13378,160.21745c-0.17556,-0.47853 0.2926,-0.65798 0.2926,-0.65798c0.39319,-0.14953 0.79993,-0.28009 1.21482,-0.40004l0.00341,-0.00558l0.00495,0.00317c0.15503,-0.04476 0.31119,-0.08804 0.46819,-0.13029c0.60805,-0.55319 1.42613,-0.65602 2.28149,-0.76013c1.02664,-0.40414 2.16432,-0.80221 3.0066,-0.92947c0.15193,-0.08207 0.30102,-0.16882 0.44692,-0.26079c-0.01062,-0.78396 -0.01749,-1.56836 -0.01749,-2.35347c0,0 0,-0.11131 0.05082,-0.23003c-0.03131,-0.065 -0.05082,-0.14603 -0.05082,-0.24697c0,-0.51107 0.5,-0.51107 0.5,-0.51107c0.14521,0 0.29043,0 0.43564,0c-0.00013,-0.00956 -0.00027,-0.01912 -0.0004,-0.02869c0.0096,0.00951 0.01924,0.01907 0.02893,0.02869c0.25179,0 0.50358,0 0.75537,0c0.00886,-0.66404 0.05068,-1.33742 0.05068,-1.80961c0,-2.6847 -0.52723,-7.27425 0.37732,-9.84568c-0.18213,-0.60068 -0.34864,-1.21391 -0.49668,-1.83748c-0.18252,-0.25439 -0.22452,-0.53615 -0.21202,-0.77705c-0.00363,-0.21578 0.03728,-0.46028 0.1822,-0.67958c0.25444,-0.5348 0.51669,-1.06062 0.78781,-1.57443c0.00882,-0.09399 0.02749,-0.1941 0.05874,-0.30011c0.04251,-0.17896 0.12035,-0.37622 0.26288,-0.49862c0.1377,-0.13561 0.28427,-0.14497 0.40329,-0.11474c0.16491,0.02143 0.2822,0.11532 0.36563,0.23802c0.14879,0.13489 0.29757,0.26978 0.44635,0.40468l0.47748,0.96419c0.01977,0.03406 0.0381,0.07026 0.05484,0.10835c0.50949,0.54302 0.17901,1.38194 0.17901,1.38194l-0.00003,-0.00001c-0.12137,0.30496 -0.24273,0.60992 -0.3641,0.91487l-0.21992,0.93049c-0.00981,0.04463 -0.0215,0.08785 -0.03495,0.12941c0.03706,0.07294 0.06505,0.15134 0.08619,0.22817c0.06134,0.17174 0.10432,0.39692 0.06517,0.65719c-0.00384,3.83383 -0.11774,7.64685 -0.15188,11.48002c0.08748,0 0.17497,0 0.26245,0h0.26667c0.01216,0 0.02422,0.00044 0.03616,0.00132c0.02665,-0.02648 0.05298,-0.05253 0.07895,-0.07811c0.00182,0.03059 0.00369,0.0612 0.00561,0.09179c0.00119,0.00031 0.00239,0.00061 0.00358,0.00091c0.04226,-0.01021 0.08952,-0.01591 0.14236,-0.01591c0.5,0 0.5,0.51107 0.5,0.51107c0,0.95543 -0.03799,1.92862 -0.04187,2.89859c2.86933,0.67087 5.52832,1.45321 8.2602,2.69091c0.10022,0.03595 0.21541,0.10795 0.27485,0.25215c0.0445,0.08575 0.06677,0.19513 0.03212,0.32977c-0.02183,0.13741 -0.08564,0.22814 -0.16038,0.28802c-0.11155,0.10704 -0.24534,0.12504 -0.35117,0.11633h-0.38041c-2.5318,0 -5.06586,0.05095 -7.59965,0.0644c0.01497,0.91517 0.02983,1.83089 0.03254,2.7455c0.6424,0.99513 1.21864,2.43137 1.53522,3.71253c0.17541,0.30217 0.17541,0.73154 0.17541,0.73154c0,0.3716 -0.00118,0.74296 -0.00325,1.11412c0.13234,0.36454 0.06455,0.79477 0.06455,0.79477l-0.06129,0.26317c0,1.33391 0.26637,4.51183 -0.07822,6.09615c-0.00148,0.31023 -0.00231,0.62058 -0.00231,0.9311v1.02214c0,0.15405 -0.02148,0.30016 -0.05995,0.43116c0.25478,2.1464 -0.11268,4.39854 -0.35458,6.57107c-0.47874,4.29971 -0.37441,8.57198 -0.9764,12.87c-0.29136,1.84905 -0.50628,3.60719 -0.87315,5.40863c0.00058,0.0752 -0.00313,0.12232 -0.00313,0.12232c-0.02395,0.27654 -0.05042,0.55234 -0.07896,0.82756l0.00316,0.32726c0,0 0,0.30378 -0.10437,0.58011c-0.22622,1.90572 -0.52822,3.79468 -0.75278,5.73159c-0.25868,0.43051 -0.51732,0.85721 -0.77564,1.28204c-0.05156,0.04937 -0.10119,0.09198 -0.14852,0.12694c-0.12624,-0.14856 -0.31745,-0.2373 -0.51707,-0.32072c-0.22708,-0.49055 -0.58407,-1.25729 -0.69098,-1.43866c-0.21927,-1.81471 -0.49872,-3.59056 -0.71128,-5.3812c-0.10437,-0.27634 -0.10437,-0.58011 -0.10437,-0.58011l0.00316,-0.32726c-0.02855,-0.27524 -0.05502,-0.55101 -0.07896,-0.82756c0,0 -0.00371,-0.04713 -0.00314,-0.12232c-0.36687,-1.80144 -0.58179,-3.5596 -0.87315,-5.40864c-0.60199,-4.29802 -0.49765,-8.57028 -0.9764,-12.86999c-0.2419,-2.17254 -0.60937,-4.42469 -0.35459,-6.57108c-0.03847,-0.13101 -0.05995,-0.27709 -0.05995,-0.43115v-1.02214c0,-0.31051 -0.00082,-0.62088 -0.00231,-0.9311c-0.34459,-1.58431 -0.07822,-4.76222 -0.07822,-6.09613l-0.06129,-0.26317c0,0 -0.06779,-0.43023 0.06455,-0.79477c-0.00207,-0.37117 -0.00325,-0.74253 -0.00325,-1.11412c0,0 0,-0.42937 0.1754,-0.73155c0.30968,-1.25323 0.86783,-2.65486 1.49332,-3.64684c-0.00889,-0.99436 -0.02589,-1.98826 -0.04462,-2.98223c-2.39537,-0.00496 -4.797,0.10667 -7.18221,0.10667c0,0 -0.43658,0 -0.49383,-0.41699c-0.0416,-0.04694 -0.07863,-0.10807 -0.10767,-0.18722z" fill="#160831" stroke="none" stroke-width="0.5"></path><path d="M239.65113,164.22849c0,0.37574 -0.10223,0.7136 -0.26496,0.94738c0.06511,0.26067 0.10104,0.54471 0.10143,0.842c0.19793,0.99503 0.07726,2.25745 0.08078,4.36228c0.00816,4.88595 0.0139,9.77198 0.00092,14.65791c0.21491,1.33011 0.34322,4.07584 0.36794,4.47196c0.21443,3.43582 0.41532,10.96205 0.27734,14.96058c-0.02192,0.63534 -0.14978,1.23702 -0.40803,1.66549c0.00612,0.07936 0.00612,0.12874 0.00612,0.12874c0,2.02137 0.0981,4.01164 0.18618,6.00345c-0.03657,0.06022 -0.07315,0.12039 -0.10971,0.18052c-0.05156,0.04937 -0.10119,0.09197 -0.14852,0.12693c-0.12624,-0.14857 -0.31745,-0.2373 -0.51707,-0.32072c-0.24281,-0.5245 -0.63411,-1.36475 -0.70946,-1.46762c-0.0735,-0.10032 -0.14091,-0.18782 -0.203,-0.2666c-0.05596,-1.31773 -0.10249,-2.639 -0.10838,-3.97278c-0.92571,-0.79962 -1.16235,-3.55905 -1.27136,-5.03148c-0.11898,-1.60707 -0.20293,-3.23252 -0.27126,-4.86366c-0.17306,-2.40556 -0.18392,-4.81805 -0.46334,-7.19535c-0.44537,-3.78924 -1.06214,-7.06647 -1.06418,-11.00332c0,0 0,-0.06353 0.00893,-0.16227c-0.8542,-6.4449 -1.27291,-13.98512 1.83133,-14.3355c-0.04068,-0.15275 -0.06317,-0.32066 -0.06317,-0.4969v-0.65037c0.92371,0.21547 1.84014,0.46135 2.74147,0.72983z" fill-opacity="0.54118" fill="#514566" stroke="none" stroke-width="0.5"></path><path d="M239.33048,155.25341c-0.8053,0 -0.8053,-1.27768 -0.8053,-1.27768c0,-2.90496 0,-6.70701 0,-9.61197c0,0 0,-1.27768 0.8053,-1.27768c0.8053,0 0.8053,1.27768 0.8053,1.27768c0,2.90496 0,5.8099 0,8.71485v0.89711c0,0 0,1.27768 -0.8053,1.27768z" fill-opacity="0.54118" fill="#514566" stroke="none" stroke-width="0.5"></path><path d="M239.63328,168.65327c-0.21725,0.59706 -0.70219,0.59706 -0.70219,0.59706h-1.3732c-0.22676,0 -0.43162,-0.1487 -0.57798,-0.38799c-0.57963,0.1192 -1.09582,-0.01182 -1.38129,-0.68602c-0.81684,-1.92914 1.60391,-4.75726 2.24176,-5.91509c0,0 0.53029,-0.96155 1.13634,-0.12019c0.12937,0.1796 0.20696,0.36467 0.24898,0.5447c0.00545,-0.00873 0.01084,-0.01748 0.01616,-0.02631l0.25465,0.12424v-0.1898h0.88854v0c0.44476,0 0.8053,0.57203 0.8053,1.27768c0,0.44966 -0.1464,0.84505 -0.36769,1.07275c0.17544,0.23438 0.28692,0.58543 0.28692,0.9778c0,0.31315 -0.07101,0.60001 -0.18888,0.82221c0.01782,0.10564 0.02732,0.21667 0.02732,0.33123c0,0.41468 -0.12451,0.78321 -0.31744,1.01663l-0.72044,0.88903l-0.19983,-0.40763c-0.02552,0.0272 -0.0512,0.05378 -0.07705,0.07971z" fill-opacity="0.53333" fill="#150830" stroke="none" stroke-width="0.5"></path><path d="M240.54612,147.70224c-0.56943,0.90345 -1.13887,0 -1.13887,0l-0.82078,-1.43978c0.006,-1.29236 0.28035,-2.72108 0.85992,-3.62921c0,0 0.60605,-0.84136 1.13634,0.12019c0.53029,0.96155 -0.07576,1.80291 -0.07576,1.80291c-0.17551,0.18356 -0.44592,0.39537 -0.43251,0.72821l0.47165,0.61078c0,0 0.56943,0.90345 0,1.80691z" fill-opacity="0.53333" fill="#150830" stroke="none" stroke-width="0.5"></path><g><path d="M238.80787,130.77483c0.00905,-0.47586 0.04236,-0.97541 0.07142,-1.4404l-0.2303,-0.10225c-0.13057,-0.05349 -0.24415,-0.15868 -0.32725,-0.29765c-0.02641,-0.02803 -0.0512,-0.05865 -0.07415,-0.0916c-0.16053,0 -0.31869,0 -0.47374,0c-0.23278,0 -0.38472,-0.10769 -0.48389,-0.24826c-0.10553,-0.1321 -0.18638,-0.33448 -0.18638,-0.64455c0,-4.15874 1.41011,-8.13826 1.8268,-12.30694l0.05193,-0.90373c0,0 0.02543,-0.44033 0.27301,-0.67779c-0.00456,-0.20132 -0.00689,-0.40482 -0.00689,-0.61081v-0.21742l-0.00789,-0.06828h-0.09936v-0.92852c0,-0.49309 0.30009,-0.89281 0.67027,-0.89281c0.3391,0 0.61938,0.33541 0.66406,0.77075l0.10566,0.91482c0,0 0.00291,0.02523 0.00455,0.06781c0.00324,0.04242 0.00324,0.06795 0.00324,0.06795v0.2857c0,0.12751 0.00096,0.25395 0.00285,0.37939c0.13948,0.52985 0.11747,1.28361 0.11092,1.99106c0.16048,1.66439 0.47852,3.22615 0.8754,4.93802c0,0 0.00841,0.03639 0.01611,0.09647c0.00937,0.05965 0.01156,0.09762 0.01156,0.09762l0.05398,0.93492c0.08208,1.79296 0.0397,4.06673 0.92718,5.50405c0,0 0.41871,0.69716 -0.10468,1.2549c-0.20576,0.21925 -0.39533,0.24457 -0.54965,0.19455c-0.08109,0.11736 -0.18164,0.18669 -0.27215,0.22765c-0.02789,0.01428 -0.05668,0.02614 -0.08622,0.03541c-0.08784,0.20585 -0.23534,0.36065 -0.41118,0.42263c0.00164,0.455 -0.00863,0.92434 -0.03224,1.36034c0.26574,-0.19905 0.53798,-0.40495 0.81522,-0.61295c1.44535,-1.50106 3.06694,-3.20451 4.64584,-3.90102l0.60166,-0.43714c0.01894,-0.01441 0.03847,-0.02762 0.05851,-0.03956c-0.32257,-0.72166 -0.61174,-1.45592 -0.70612,-2.26441c-0.00081,-0.00693 -0.0016,-0.01386 -0.00239,-0.02079l-0.0032,0.0016l-0.35205,-1.25051c-0.02748,-0.09107 -0.04401,-0.18957 -0.04743,-0.29261c-0.26123,-0.78991 -0.48302,-1.83092 -0.6503,-2.27463l-0.00001,-0.01815l-0.00523,0.00316l-0.29194,-0.85552c-0.04232,-0.11705 -0.06603,-0.24828 -0.06603,-0.38689c0,-0.49309 0.30009,-0.89281 0.67027,-0.89281c0.25154,0 0.47072,0.18456 0.58537,0.45758l0.11253,0.25695c0.00567,-0.00019 0.01136,-0.00029 0.01706,-0.00029c0.26757,0 0.49852,0.20884 0.606,0.51083l0.27479,0.73206c0.75751,0.45062 1.22076,0.94124 1.75015,1.81283c4.3482,5.11622 2.58182,12.36342 -0.88569,17.40766c0,0 -0.01302,0.01893 -0.03707,0.04742c-0.09594,0.12599 -0.24536,0.26239 -0.44209,0.26117c-0.12473,0.00803 -0.26527,-0.03836 -0.41084,-0.18942c-0.15238,-0.13864 -0.22838,-0.30279 -0.26065,-0.46348c-0.00237,-0.00971 -0.00457,-0.01939 -0.00661,-0.02905c-0.36986,-0.35367 -0.21102,-0.98843 -0.21102,-0.98843c0.30155,-1.18587 1.02752,-2.36019 1.16736,-3.60254c0.03569,-0.31708 0.06504,-0.62898 0.08818,-0.93631c-1.47758,0 -2.95517,0 -4.43275,0c0,0 -0.08223,0 -0.18909,-0.03837c-1.05713,1.07824 -2.04541,2.23482 -2.78283,3.54472c-0.02616,0.1808 -0.10594,0.37127 -0.28515,0.53838c-0.15079,0.14061 -0.28917,0.18743 -0.41057,0.18139c-0.10643,0.00532 -0.2259,-0.02999 -0.35535,-0.13349c-0.33503,-0.13372 -0.41549,-0.55575 -0.43481,-0.75073c-0.72631,-1.24259 -1.67581,-2.34737 -2.68848,-3.38028l-0.00001,0.00001c-0.10686,0.03837 -0.18909,0.03837 -0.18909,0.03837c-1.47758,0 -2.95517,0 -4.43275,0c0.02314,0.30733 0.0525,0.61923 0.08819,0.93631c0.13983,1.24235 0.86581,2.41667 1.16736,3.60254c0,0 0.15884,0.63475 -0.21102,0.98843c-0.00204,0.00966 -0.00424,0.01933 -0.00661,0.02905c-0.03227,0.16069 -0.10828,0.32484 -0.26065,0.46348c-0.14557,0.15106 -0.28611,0.19745 -0.41084,0.18942c-0.19673,0.00123 -0.34615,-0.13518 -0.44209,-0.26117c-0.02404,-0.02849 -0.03707,-0.04742 -0.03707,-0.04742c-3.46751,-5.04424 -5.23389,-12.29144 -0.88569,-17.40767c0.52939,-0.87159 0.99264,-1.36221 1.75015,-1.81283l0.27479,-0.73207c0.10747,-0.30198 0.33842,-0.51083 0.606,-0.51083c0.00571,0 0.01139,0.00009 0.01706,0.00029l0.11253,-0.25696c0.11465,-0.27301 0.33383,-0.45758 0.58537,-0.45758c0.37018,0 0.67027,0.39972 0.67027,0.89281c0,0.13861 -0.02371,0.26984 -0.06603,0.38689l-0.29194,0.85552l-0.00523,-0.00316l-0.00001,0.01814c-0.16728,0.44371 -0.38907,1.48472 -0.6503,2.27463c-0.00342,0.10304 -0.01996,0.20153 -0.04743,0.29261l-0.35205,1.25051l-0.0032,-0.00159c-0.00079,0.00693 -0.00158,0.01386 -0.00239,0.02079c-0.09438,0.80849 -0.38355,1.54276 -0.70612,2.26441c0.02004,0.01194 0.03957,0.02516 0.05851,0.03956l0.60166,0.43714c1.57891,0.6965 3.20049,2.39996 4.64584,3.90102c0.22509,0.16888 0.44689,0.33637 0.6646,0.49994zM234.76121,131.13698c-0.67945,-0.63967 -1.34583,-1.26483 -1.95344,-1.89432l-0.28969,-0.25464c-0.12214,-0.08797 -0.25524,-0.23881 -0.30704,-0.49201l-0.12742,-0.15522c-0.131,0.9086 -0.20047,1.8337 -0.20445,2.7962c0.93743,0 1.93093,0 2.88204,0zM247.28157,129.24264c-0.60761,0.6295 -1.27399,1.25466 -1.95345,1.89433c0.95112,0 1.94462,0 2.88205,0c-0.00397,-0.9625 -0.07345,-1.8876 -0.20445,-2.7962l-0.12742,0.15522c-0.0518,0.25321 -0.1849,0.40404 -0.30705,0.49201l-0.28969,0.25464z" fill="#160831" stroke="#ff0000" stroke-width="1"></path><path d="M240.46038,136.52029c0.03896,0.64304 0.10474,1.27562 0.18941,1.9497c0,0 0.11019,0.88066 -0.55096,1.02744c-0.66115,0.14678 -0.77134,-0.73388 -0.77134,-0.73388c-0.12308,-0.98725 -0.20895,-1.90672 -0.23727,-2.87518c-0.9798,-1.02038 -1.94284,-2.03136 -2.91823,-3.04209c-0.19773,0.23506 -0.47307,0.23506 -0.47307,0.23506h-0.17874c-1.23131,0 -2.46262,0 -3.69393,0c0,0 -0.03375,0 -0.08612,-0.01009c0.29696,1.62848 0.74622,3.20969 1.34888,4.92988c0,0 0.28345,0.80905 -0.32394,1.18661c-0.60739,0.37756 -0.89084,-0.43149 -0.89084,-0.43149c-0.09622,-0.27465 -0.18881,-0.54639 -0.27776,-0.81584l-0.47593,-0.23052l0.00835,-0.0306c-0.05583,-0.02084 -0.11075,-0.04648 -0.1646,-0.0779c-0.55204,-0.32212 -0.88023,-1.50537 -1.11638,-2.18002c-0.79311,-2.26586 -1.4229,-5.00573 -1.31078,-7.61558c-0.01667,-0.04598 -0.03369,-0.0921 -0.05107,-0.13836l-0.14071,-0.80953c-0.05588,-0.14901 -0.08079,-0.33893 -0.03499,-0.5762c0.0214,-0.16536 0.07705,-0.35479 0.2087,-0.4968c0.09766,-0.11984 0.21018,-0.17392 0.31491,-0.19373c0.06509,-0.2745 0.14127,-0.54528 0.22933,-0.81153c-0.01603,-0.19072 0.01361,-0.41306 0.15762,-0.62326c0.0765,-0.13794 0.19208,-0.26896 0.36336,-0.3118c0.16758,-0.06371 0.31494,-0.01537 0.42967,0.06243c0.1748,0.08962 0.2741,0.23996 0.32942,0.39705c0.64389,1.04505 1.33115,1.12569 2.23311,1.67687c0.13819,0.01487 0.63498,0.12178 0.63498,0.89041c0,0.05304 -0.00236,0.10293 -0.00682,0.14986l0.44881,0.34873l-0.0063,0.01438l0.03501,0.00925c1.66687,1.62603 3.6676,3.35061 5.18199,5.38655c-0.03663,-1.18852 0.00239,-2.40348 0.02432,-3.59996c-0.05877,-0.03886 -0.10752,-0.08775 -0.14795,-0.14213c-0.33962,-0.08896 -0.84854,0.09463 -1.01802,-0.28559c-0.07601,-0.17052 -0.11289,-0.41349 -0.12108,-0.70462c-0.6358,-0.23535 -0.46489,-1.08907 -0.46489,-1.08907c0.5046,-2.50944 1.02003,-5.11835 1.3477,-7.68244v-0.89659c0,-0.38964 0.18738,-0.72098 0.44865,-0.84286c0.05828,-1.52518 0.09655,-3.04523 0.08756,-4.5537v-0.31744c0,0 0,-0.89281 0.67027,-0.89281c0.67027,0 0.67027,0.89281 0.67027,0.89281v0.31744c-0.02085,4.40767 -0.36321,8.89435 -0.45444,13.33166c0.33528,0.232 0.33528,0.7946 0.33528,0.7946v0.87297c0,0.18668 -0.00003,0.37297 0.00001,0.55893c0.43349,1.22374 0.22204,3.68268 0.12174,5.18773c0.09615,-0.04236 0.16943,-0.04987 0.16943,-0.04987l0.76721,-0.07861c0.01936,-0.00224 0.03895,-0.00338 0.05874,-0.00338c0.37018,0 0.67027,0.39972 0.67027,0.89281c0,0.32203 -0.12801,0.60425 -0.31994,0.7613l-0.59888,0.50764c-0.1365,0.18426 -0.273,0.36852 -0.40951,0.55279c0,0 -0.09417,0.12544 -0.24053,0.20857zM232.05331,128.10078c-0.02108,-0.03966 -0.03979,-0.08172 -0.05585,-0.12581c-0.10001,0.10296 -0.22247,0.16909 -0.35593,0.18315c0.11175,0.85936 0.01684,2.22408 -0.02666,3.18438c0.1175,-0.0468 0.21139,-0.0468 0.21139,-0.0468c0.89516,0 1.88479,0 2.83153,0c-0.42639,-0.39841 -1.75747,-1.5564 -1.88524,-1.82218c-0.01958,-0.04071 -0.03833,-0.08196 -0.05633,-0.1237l-0.01238,0.01134l-0.65052,-1.26037z" fill-opacity="0.54118" fill="#514566" stroke="none" stroke-width="0.5"></path><path d="M247.1961,138.59966c-0.52339,-0.55773 -0.10468,-1.2549 -0.10468,-1.2549l0.09924,0.02517c0.31177,-2.69938 0.33771,-5.7339 0.86917,-8.40423l-0.16031,-0.01525l0.05919,-1.1037c0.02179,-0.46688 0.31297,-0.83656 0.66896,-0.83656c0.32302,0 0.59267,0.30437 0.65613,0.70954l0.17571,1.01421l-0.01122,0.00345l0.01703,0.03365c0.3437,3.20284 0.30603,6.41546 -0.56954,9.45195c0,0 -0.24062,0.8333 -0.86621,0.5128c-0.03162,-0.01619 -0.06102,-0.0337 -0.08835,-0.05234c-0.17181,0.14052 -0.44077,0.24054 -0.74513,-0.08379z" fill-opacity="0.54118" fill="#514566" stroke="none" stroke-width="0.5"></path></g><path d="M240.85823,135.37479c0,0.95234 0,1.90466 0,2.857v0.15872c0,0 0,0.45325 -0.33994,0.71386c-0.02578,0.21829 -0.16646,0.81384 -0.93403,0.81384c-0.93982,0 -0.93982,-0.89281 -0.93982,-0.89281c0,-1.13751 0,-3.22735 0,-4.36486c0,0 0,-0.89281 0.93982,-0.89281c0.93982,0 0.93982,0.89281 0.93982,0.89281c0,0.00162 0,0.00325 0,0.00487c0.33416,0.26129 0.33416,0.70938 0.33416,0.70938z" fill="#160831" stroke="none" stroke-width="0.5"></path></g></g></g></svg>