<svg version="1.1" xmlns="http://www.w3.org/2000/svg" xmlns:xlink="http://www.w3.org/1999/xlink" width="169.13933" height="316.83368" viewBox="0,0,169.13933,316.83368"><g transform="translate(-142.07032,12.45589)"><g stroke="none" stroke-width="0.5" stroke-miterlimit="10"><path d="" fill="#111732"></path><path d="" fill-opacity="0.37255" fill="#2e1340"></path><g><g><g><g><path d="M264.76748,118.93228c0.19048,-0.03024 0.37053,-0.04659 0.54073,-0.05075c0.63063,-0.70791 1.27323,-1.4062 1.92458,-2.09648c0,0 1.96856,-2.08383 4.15585,-0.20839c2.18729,1.87545 0.21873,3.95929 0.21873,3.95929c-1.31206,1.38723 -2.58581,2.80985 -3.78806,4.28463l-5.47071,-2.66205c0,0 -0.48378,-2.76537 2.41888,-3.22626z" fill="#4f619e"></path><g><path d="M288.89487,204.31629c0.95098,1.17915 -0.39213,4.58949 -0.47703,5.98443c-0.43099,7.08174 -3.17067,13.99027 -4.73872,20.96217c0,0 -0.06856,0.30483 -0.29192,0.59618c-0.54115,2.76972 -0.9764,5.54068 -1.46283,8.32172c-0.28337,1.62009 -0.21898,3.7802 -0.86372,5.31586c-0.572,1.36238 -1.7645,2.53639 -2.45094,3.90601c-0.05351,0.21438 -0.17757,0.44098 -0.40968,0.66793c-0.17446,0.18649 -0.43022,0.37713 -0.77569,0.43573c-0.34361,0.06783 -0.6554,-0.01868 -0.89008,-0.13011c-0.3281,-0.13879 -0.53918,-0.32175 -0.67117,-0.51832l-0.70533,-0.69218c-0.99403,-1.32882 -1.75105,-2.77897 -2.741,-4.10451c-0.68191,-0.91307 -1.87213,-1.49445 -2.32555,-2.52844c-0.83409,-1.90206 0.31523,-4.64646 0.69892,-6.40679c0.76424,-3.50627 1.80465,-6.72433 2.55271,-10.29111c0,0 0.07296,-0.34753 0.32892,-0.65814c0.06202,-0.39854 0.12531,-0.79698 0.18985,-1.19531c-0.06094,-1.05498 -0.13552,-2.10976 0.06019,-3.14248c0.16972,-0.89556 0.5771,-1.7306 0.94981,-2.57523c0.2881,-1.51023 0.59217,-3.01881 0.91062,-4.52557c-0.30999,-0.40199 -0.30999,-0.8983 -0.30999,-0.8983l0.01136,-1.10837c0.08649,-0.65915 0.16721,-1.3183 0.2439,-1.9775c-0.08962,-1.83679 -0.15136,-3.67972 0.1751,-5.49085c-1.20315,-2.49695 2.29291,-3.93027 3.71191,-4.89589c1.27024,-0.86441 1.73487,-2.58343 3.9615,-2.09227c1.68183,0.37098 3.26739,4.75506 4.26264,6.0931l0.0067,0.16116l0.06342,-0.0259l0.14912,0.33149c0.33455,0.08469 0.62989,0.22472 0.83699,0.4815z" fill="#baafcc"></path><path d="M183.22244,275.61264c3.23053,-0.32021 6.2174,-0.09813 8.92925,0.68753c3.04708,0.43479 5.77781,1.3086 8.22069,3.32133c0.183,-0.04757 0.37856,-0.07599 0.58219,-0.08182c0.93169,-0.02661 1.72446,0.42883 1.92752,1.05946l0.59735,1.69175l-0.09057,0.01783l0.13258,0.13762c0.05307,1.42644 -0.05653,3.2098 -0.00305,5.01238c0.23808,0.93797 0.53788,1.94858 0.92225,2.91098c0.07666,0.06453 0.13604,0.12376 0.17786,0.16897c1.33681,0.53297 2.87143,0.88276 3.90438,1.68494c1.5158,1.17715 2.98149,3.89491 1.64242,5.28535c0.11223,0.11767 0.20267,0.26022 0.25804,0.43289c0.12283,0.25365 0.1643,0.56742 -0.04279,0.90598c-0.15951,0.35135 -0.48238,0.56709 -0.81031,0.69945c-0.46103,0.23591 -0.9131,0.2683 -1.29602,0.21808l-0.96944,0.02769c-6.72869,0.1922 -14.62575,1.19266 -21.19208,0.01268c-2.87308,-0.5163 -5.53579,-1.04434 -8.26536,-1.49329c-0.00628,-0.53725 -0.00991,-1.07503 -0.01041,-1.61341c-0.00171,-1.86287 0.12469,-7.20044 -0.59213,-8.63628c-0.05899,-0.11817 -0.12083,-0.23446 -0.18529,-0.34904l0.03987,-0.01994l-0.26246,-0.52492l0,-1.14148c1.32379,-3.20716 2.60629,-7.04763 3.36455,-10.46305c0.93362,-0.0636 2.00554,-0.02087 3.02094,0.04833z" fill="#baafcc"></path><path d="M254.58591,279.74562c3.97842,0 7.77295,-0.0714 11.69581,0.44682c0.27603,0.01197 0.52404,0.07583 0.71196,0.14164c0.29742,0.09829 0.6907,0.28429 0.9148,0.61822c5.2205,0.76192 5.82961,3.38842 8.78974,6.35299c1.97437,1.97734 5.12287,2.81626 7.3363,4.53218c1.01408,0.78615 1.75663,1.76616 2.72619,2.58403l1.32214,0.34971c0.40272,0.2511 0.80544,0.50219 1.20814,0.75329c0.29688,0.10923 0.58,0.3051 0.7781,0.6431c0.16756,0.2307 0.29157,0.53513 0.19544,0.8838c-0.06445,0.35307 -0.31586,0.60532 -0.5754,0.77665c-0.33731,0.26496 -0.69148,0.37224 -1.01973,0.39409l-1.57629,0.40583c-0.57089,0.07402 -1.12785,0.1282 -1.67936,0.16783c-0.27753,0.29535 -0.69983,0.50288 -1.18546,0.55909l-1.76936,0.22984l-0.01033,-0.04829l-0.137,0.06258c-1.10861,0.00208 -2.1954,0.01351 -3.26692,0.01898c-0.74033,0.09355 -1.54206,0.12887 -2.35366,0.2086c-3.31125,0.3253 -6.78097,0.70462 -10.11496,0.7117h-0.59951c-0.22731,0 -0.44478,-0.03287 -0.645,-0.09284c-0.51593,-0.13662 -1.15353,-0.4743 -1.15353,-1.30891c0,-0.33615 0.10343,-0.59168 0.26067,-0.78595c-5.66494,-0.46878 -12.15137,-2.8116 -16.59837,-5.81271l-0.24716,0.28895l-1.77531,-0.92244c-0.3121,-0.1571 -0.55781,-0.38746 -0.69705,-0.65988c-1.11122,-0.45337 -2.34327,-0.8094 -2.85598,-1.65057c-1.74036,-2.85528 1.41222,-4.30593 4.63027,-5.08898c0.00056,-0.00091 0.00113,-0.00181 0.00169,-0.00272l-0.09756,-0.13307l0.25495,-0.11354c0.94599,-1.44341 2.22704,-2.764 2.80485,-4.42788c0,0 0.49409,-1.34783 2.22341,-0.96273c0.76819,0.17106 1.09764,0.5321 1.22655,0.88057zM245.32469,288.12008c0.08726,0.01954 0.17365,0.04098 0.25921,0.06419l0.11052,-0.25841c-0.34368,0.07612 -0.59662,0.14342 -0.36973,0.19422z" fill="#baafcc"></path><path d="M218.90055,217.32123c0.63627,0.22732 0.86849,0.62961 0.93415,0.99677c0.47789,0.23154 0.8053,0.70447 0.8053,1.25024c0,0.07227 -0.00574,0.14327 -0.01681,0.21259l-0.39427,2.75461l-0.17491,-0.02273c0.45555,5.45089 0.19014,11.36678 -0.92614,16.84468c-0.14306,2.35425 -0.24677,4.7131 -0.25316,7.08084c0.0891,0.38696 -0.0252,0.703 -0.1887,0.93994c-0.13681,0.25652 -0.37296,0.51153 -0.78062,0.62756l-0.94855,0.49924c-1.82459,1.99196 -3.41056,4.08688 -6.36009,4.54407c-1.20006,0.18601 -2.66744,0.92413 -3.63961,0.22852c-0.79365,-0.56788 -0.00385,-1.89124 -0.00579,-2.83686c0,0 0.02565,-0.09776 0.09072,-0.23431c0.01862,-0.36869 0.08517,-0.75222 0.06153,-1.10782c0,-5.07002 -1.02316,-11.34584 0.02655,-16.33855c1.17675,-5.59701 6.06145,-8.95336 9.36669,-13.29017l0.50943,-1.32829c0,0 0.51663,-1.3125 1.89429,-0.82032z" fill="#baafcc"></path><path d="M298.33657,88.10539c-0.46528,-1.32982 0.93056,-1.7731 0.93056,-1.7731l1.34417,-0.42053c0.23584,-0.12603 0.47167,-0.25205 0.7075,-0.37807c-0.47527,-5.29276 -4.4117,-12.9455 -10.20923,-13.59093l-0.59262,0.10028c-2.05322,1.13349 -4.21236,1.60188 -6.43156,2.43903c-0.2837,0.10702 -0.54848,0.27652 -0.80679,0.46276c-0.04899,0.0491 -0.08135,0.07553 -0.08135,0.07553c-0.50375,0.32763 -0.79921,0.98612 -0.80135,1.5672l0.0073,0.17202c0,0 0,1.40176 -1.47135,1.40176c-0.48664,0 -0.81232,-0.15334 -1.0303,-0.35859l-1.48257,-0.12932c-1.07992,-0.6201 -2.02509,-1.54387 -2.62942,-2.60414c-0.05372,-0.08263 -0.10325,-0.17593 -0.14742,-0.28113c-0.18415,-0.43862 -0.1511,-0.78854 -0.02631,-1.05975c0.10917,-0.27724 0.34173,-0.54993 0.79485,-0.74179c0.18428,-0.07803 0.35454,-0.1213 0.51114,-0.13788c1.36089,-1.08066 3.01392,-1.65731 4.3421,-2.74533c2.10608,-1.72524 2.88186,-4.61531 4.84522,-6.48862c0.93073,-0.88805 1.70025,-1.78415 2.56583,-1.6993l0.06378,-0.02383l-0.20909,-0.25612l0.90021,-0.66704c-0.08429,-0.35693 0.01624,-0.66278 0.15915,-0.89611c0.118,-0.25018 0.32525,-0.50993 0.68923,-0.65068l0.82853,-0.56008c1.86638,-1.48119 5.63754,-5.41553 8.41803,-4.97127c0.66651,0.1065 1.11986,0.70045 1.64941,1.12014l0.68222,0.33514c3.35716,2.13266 5.60801,4.8687 8.59468,7.40025c0.31873,0.16155 0.49736,0.42107 0.59748,0.66122c0.12456,0.23137 0.21226,0.53268 0.1273,0.87016c-0.01673,4.22471 -0.58267,8.32043 -2.46982,12.06301c-0.05983,0.25435 -0.21333,0.51717 -0.53466,0.74136c-0.20951,0.17535 -0.50189,0.33152 -0.87713,0.32841c-0.37449,0.02293 -0.67551,-0.11754 -0.89489,-0.28155c-0.39654,-0.24568 -0.55989,-0.55827 -0.6095,-0.85244l-0.14871,-0.32123c-0.05475,-0.04498 -0.10981,-0.08965 -0.16517,-0.13399c-0.38255,3.90473 -0.46463,7.7585 -1.18978,11.62475c0,0 -0.00989,0.05183 -0.03638,0.13356c-0.07413,0.26884 -0.23965,0.61634 -0.60929,0.82777c-0.22765,0.14338 -0.53133,0.23051 -0.93425,0.18573c-0.30286,-0.01841 -0.53723,-0.1 -0.71858,-0.21525c-0.06383,0.03351 -0.12766,0.06701 -0.19149,0.10052l-1.59852,0.51398c0,0 -1.39584,0.44327 -1.86113,-0.88655z" fill="#a69cb5"></path><path d="M276.8023,111.80462c-2.07256,3.16241 -3.50956,7.55687 -6.7263,9.71733l-1.42315,1.12986c-0.25624,0.20638 -0.58755,0.33079 -0.94935,0.33079c-0.79656,0 -1.44528,-0.60305 -1.47058,-1.35609c-0.21659,0.11953 -0.46812,0.18796 -0.73644,0.18796c-0.81261,0 -1.47135,-0.62758 -1.47135,-1.40176c0,-0.12824 0.01808,-0.25247 0.05193,-0.37047l0.44099,-1.68055c-0.50472,0.76477 -0.98946,1.5349 -1.44371,2.31351l-0.05424,0.03368l0.02224,0.01412l-0.96824,1.38366c-0.26198,0.38646 -0.71808,0.64229 -1.23689,0.64229c-0.63123,0 -1.16961,-0.3787 -1.37851,-0.91063c-0.26845,0.27288 -0.6502,0.44338 -1.07374,0.44338c-0.81261,0 -1.47135,-0.62758 -1.47135,-1.40176c0,-0.2525 0.07008,-0.48942 0.19272,-0.69405l1.39605,-2.43837l0.24778,0.12876c0.16888,-0.2334 0.33629,-0.46864 0.50261,-0.70526c1.12234,-2.44753 2.6173,-4.73279 4.23946,-6.96519c-0.27627,-0.25483 -0.44801,-0.61189 -0.44801,-1.00718c0,-0.31562 0.10949,-0.60688 0.29426,-0.84117l1.7308,-2.24854l0.24914,0.17406c0.04085,-0.03455 0.08264,-0.06987 0.12526,-0.10592c-0.41051,-0.24871 -0.68287,-0.6859 -0.68287,-1.1837v-1.63538h0.08085c-0.00919,-0.17819 -0.00056,-0.35694 0.03115,-0.53643c0.03136,-0.17749 0.08592,-0.3457 0.16125,-0.50523c-0.22318,-0.0826 -0.46391,-0.22342 -0.63601,-0.46352c-1.84205,-1.63153 -3.82812,-3.40036 -5.10038,-5.4863c-1.30239,-2.13534 -1.6776,-4.52247 -3.21964,-6.61704l-0.01633,-0.00485l-1.39204,0.84395c-0.23201,0.14564 -0.50986,0.23039 -0.80849,0.23039c-0.81261,0 -1.47135,-0.62758 -1.47135,-1.40176c0,-0.04874 0.00261,-0.09692 0.00771,-0.14438l0.13846,-1.45104l0.07603,0.00659c0.0117,-0.19305 0.04563,-0.38388 0.10973,-0.57171c0.50799,-1.48845 3.86215,-2.31131 5.15086,-3.0488c3.20995,-1.83696 6.72679,-2.623 10.30721,-3.35721c3.80827,-1.6175 7.74701,-2.85602 11.95577,-3.07888c0.00541,-0.23846 0.07332,-0.46224 0.18874,-0.65709l0.12084,-0.43963c0.81915,-1.00333 1.46236,-1.81223 2.30936,-2.50919c-0.00737,-0.01909 -0.01453,-0.03858 -0.02148,-0.05846c-0.46528,-1.32982 0.93056,-1.7731 0.93056,-1.7731c3.97723,-1.24285 9.89841,-1.72339 13.69697,0.3967c1.96886,1.09888 3.39465,3.62759 4.45503,5.46842l0.05749,0.2575c0.06941,0.15708 0.0936,0.27232 0.0936,0.27232c0.57392,2.73516 1.76707,6.65596 -0.33973,9.07913c-1.40529,1.61632 -3.71484,2.0905 -5.13886,3.8195l-0.22393,0.09139c-0.26797,0.26781 -0.6461,0.4347 -1.06514,0.4347c-0.18596,0 -0.36386,-0.03287 -0.52766,-0.09284c-0.03218,-0.01042 -0.06495,-0.022 -0.098,-0.03489c-2.28688,2.35439 -5.81203,4.72116 -8.76044,6.23183c-0.01681,0.00862 -0.03365,0.01716 -0.05053,0.02564c-3.26616,4.35691 -6.01142,9.02165 -8.9601,13.5209z" fill="#6390d6"></path><path d="M266.74646,176.80077c0.65458,1.08769 1.47855,2.08864 2.02263,3.23026c0.16267,0.34133 0.26364,0.70919 0.34729,1.08369c0.10272,0.14324 0.1994,0.28916 0.28928,0.4381c0.1728,0.28636 0.09246,0.63657 0.03771,0.98359c0.10947,0.35246 0.25672,0.6869 0.48371,0.98452c2.47519,3.24533 4.24521,6.3866 5.21558,10.29616c1.40262,2.3349 2.48771,5.8044 2.90433,8.16342c-0.00924,6.60257 4.35984,12.80651 1.09313,19.23114l-0.10932,0.07925l0.03479,0.02487l-0.38765,0.49242c-0.06066,1.25574 -0.20701,2.4916 -0.36415,3.59897c0.26791,0.25388 0.43376,0.60542 0.43376,0.99386c0,0.07558 -0.00628,0.14977 -0.01836,0.22211l-0.24164,1.61151l-0.00582,-0.00079l0.00331,0.01691c-0.33688,1.85459 -1.01318,3.20441 -1.94002,4.107c0.16406,2.49832 -0.31416,5.01687 -1.7041,6.95969l-1.01519,1.16212c0,0 -0.94194,1.07687 -2.07226,0.17948c-1.13033,-0.89739 -0.18839,-1.97424 -0.18839,-1.97424l0.94661,-1.08069c0.24645,-0.30437 0.41494,-0.66517 0.52773,-1.06481c-0.91086,1.22303 -2.18216,2.15716 -3.96218,2.54509c-0.16961,0.03697 -3.32537,0.03097 -3.83668,0.03054c-2.17739,-0.00183 -3.77973,-0.3728 -5.49867,-1.11906c0,0.07813 0,0.15626 0,0.23439v0.62301c0,0 0,1.40176 -1.47135,1.40176c-0.96396,0 -1.29638,-0.60167 -1.41101,-1.01665c-0.23806,0.15783 -0.5274,0.25035 -0.83941,0.25035c-0.32512,0 -0.62561,-0.10047 -0.86914,-0.27059l-1.35933,-0.92502l0.03001,-0.04002l-0.12585,-0.03106c-2.28677,-2.17191 -4.27819,-3.85839 -5.55398,-6.23006c-0.52711,-0.33513 -1.00867,-0.71736 -1.4107,-1.17543c-1.27522,-1.45298 -1.81065,-3.33567 -3.06395,-4.8282c-1.57811,-2.97305 -2.52839,-6.13915 -3.21402,-9.37536c-0.24933,-0.27956 -0.4958,-0.5803 -0.7218,-0.92271c-2.17017,-3.2879 -3.6252,-6.99429 -4.94592,-10.72739c0.0293,-0.32741 -0.01221,-0.56468 -0.01221,-0.56468c-0.41764,-2.38423 -0.90706,-4.7452 -1.45019,-7.08968c-0.40387,1.83208 -0.77271,3.67508 -1.09802,5.53217c0,0 -0.04151,0.23727 -0.01221,0.56468c-1.32072,3.7331 -2.77575,7.43949 -4.94592,10.72739c-0.22601,0.34241 -0.47247,0.64315 -0.7218,0.92271c-0.68563,3.23621 -1.63591,6.40231 -3.21402,9.37536c-1.2533,1.49252 -1.78874,3.37522 -3.06395,4.8282c-0.40203,0.45807 -0.88359,0.8403 -1.4107,1.17543c-1.27579,2.37167 -3.26721,4.05815 -5.55398,6.23006l-0.12585,0.03106l0.03001,0.04002l-1.35933,0.92502c-0.24353,0.17012 -0.54402,0.27059 -0.86914,0.27059c-0.81261,0 -1.47135,-0.62758 -1.47135,-1.40176c0,-0.32891 0.1189,-0.63135 0.31799,-0.87045l0.61887,-0.75805c-0.42806,0.20993 -0.87643,0.38333 -1.29612,0.6083c-2.55212,1.36802 -4.44507,2.04569 -7.38984,2.04816c-0.5113,0.00043 -3.66707,0.00643 -3.83668,-0.03054c-1.78003,-0.38793 -3.05132,-1.32206 -3.96218,-2.54509c0.11279,0.39964 0.28128,0.76044 0.52773,1.06481l0.94661,1.08069c0,0 0.94194,1.07686 -0.18839,1.97424c-1.13032,0.89739 -2.07226,-0.17948 -2.07226,-0.17948l-1.01519,-1.16212c-0.60597,-0.84702 -1.03866,-1.80347 -1.32037,-2.81997l0,-2.23997c0,-0.48268 -0.15199,-0.92986 -0.41072,-1.29629c0.00474,-0.20108 0.01379,-0.40233 0.02699,-0.60346c-0.92684,-0.90258 -1.60314,-2.25241 -1.94002,-4.107l0.00331,-0.01691l-0.00582,0.00079l-0.24164,-1.61151c-0.01208,-0.07234 -0.01836,-0.14653 -0.01836,-0.22211c0,-0.38845 0.16585,-0.73999 0.43376,-0.99386c-0.23054,-1.62463 -0.43785,-3.52583 -0.38542,-5.3606c-0.04279,-0.81349 -0.05339,-1.65439 -0.04833,-2.52332c0.00924,-1.58712 0.18238,-3.90229 1.31708,-5.24861c0.19396,-1.49347 0.49536,-2.94531 0.96208,-4.29633c0.66554,-1.92658 1.70978,-4.42596 2.85731,-6.1626c0.91057,-1.37802 2.37169,-2.54041 3.09182,-4.03815c1.05415,-2.19243 1.43135,-4.73148 2.43533,-6.9726c0,0 0.13828,-0.3074 0.43736,-0.55754l0.18835,-1.61496l0.03575,0.00378c-0.00257,-0.05821 -0.00406,-0.11654 -0.00441,-0.17499c-0.01005,-1.69018 1.45216,-3.00264 2.39978,-4.32598l0.37051,-0.79423c0.07445,-0.16975 0.18295,-0.32257 0.31735,-0.45072c0.56305,-1.47432 0.18653,-2.59653 1.73338,-3.98741c2.01756,-1.81413 3.37784,-1.39099 5.42758,-2.53784c1.92449,-1.07676 3.39014,-3.01486 5.49466,-4.02273c2.98406,-1.42908 6.55192,-2.01703 9.35501,-3.69863c-0.02209,-0.07692 -0.04415,-0.15385 -0.06619,-0.23079c-0.24755,-0.86444 -0.48393,-1.7333 -0.71459,-2.60464c1.82859,0.31654 3.65981,0.71226 5.49051,1.04833c1.96057,-0.53209 3.98579,-0.8957 5.97468,-1.18184c2.58444,-0.37181 5.17252,-0.9769 7.75537,-1.424c-0.23067,0.87134 -0.46705,1.7402 -0.71459,2.60464c-0.27998,0.9777 -0.56444,1.95309 -0.85204,2.92664c0.14214,0.06291 0.28347,0.12722 0.42393,0.19298c0.47577,0.30986 0.97647,0.58406 1.49502,0.83277c0.47417,-0.08404 0.98359,-0.1292 1.50814,-0.14438c0.16222,-0.46118 0.39195,-0.92203 0.56589,-1.32441c1.31768,-3.04816 3.77112,-3.79408 6.84939,-3.84427c1.04615,0 2.28474,-0.0984 3.51688,-0.08602c0.2115,-2.01087 0.6624,-4.68793 4.1852,-3.09238c0.83342,0.37747 0.46565,1.71207 0.85942,2.50717c0.46643,0.94181 1.00837,1.87307 1.3783,2.85174h0.19615c0.81261,0 1.47135,0.62758 1.47135,1.40176c0,0.64129 -0.45202,1.18201 -1.06908,1.34872c0.19945,1.49374 0.28568,3.0293 0.30912,4.58074c1.11131,1.14795 2.72113,2.03438 3.51398,3.35182zM197.78727,232.07064l-1.44749,0.22984l-0.05656,-0.32331c-0.23315,0.05515 -0.46357,0.10158 -0.69092,0.13906c1.80893,3.10716 6.21853,3.52293 9.66535,2.25276c-2.45564,-0.33715 -4.90236,-1.20098 -7.15199,-2.37915c-0.10116,0.03775 -0.20776,0.06513 -0.31839,0.0808zM261.74058,235.9265c3.44682,1.27017 7.85642,0.8544 9.66535,-2.25276c-0.22734,-0.03748 -0.45777,-0.08391 -0.69092,-0.13906l-0.05656,0.32331l-1.44749,-0.22984c-0.11064,-0.01566 -0.21724,-0.04304 -0.3184,-0.0808c-2.24962,1.17818 -4.69635,2.042 -7.15199,2.37915zM251.1596,167.28899c0.25375,-0.21985 0.53875,-0.40657 0.84936,-0.56372c-0.99235,-0.05495 -1.73099,-0.17492 -2.59158,0.61389c-0.11018,0.10099 -0.2245,0.23433 -0.34128,0.38384c0.45381,-0.12349 0.90028,-0.21877 1.22566,-0.28235c0.28508,-0.05572 0.57107,-0.10595 0.85784,-0.15166zM256.5546,236.45849l0.24459,0.29959c0,-0.06122 0,-0.1225 0,-0.18387c-0.08203,-0.03767 -0.16367,-0.07604 -0.24459,-0.11572z" fill="#111732"></path><path d="M204.27207,223.98646c1.41468,1.79703 1.87521,3.93766 3.25231,5.58542c1.33493,1.59731 3.7541,2.26046 4.99306,3.85864c0.74898,0.96613 0.72109,2.37604 1.53548,3.29288l0.32242,1.18718c0,0 0,1.00412 -0.89204,1.31266l0.07207,0.09003c0.22713,0.19031 0.34961,0.43647 0.41568,0.64663c0.07905,0.2047 0.13588,0.46977 0.07575,0.75004c-0.06903,8.42563 -2.25539,16.92484 -3.60928,25.11868c-0.42297,2.55985 -1.95682,4.79431 -2.62689,7.24132c-0.12464,1.26552 -0.31746,2.52017 -0.62598,3.75492c-0.1311,0.81289 -0.31828,1.62704 -0.68306,2.46897c0.00885,0.43081 0.0177,0.86161 0.02655,1.29243l-0.33329,1.14095c-0.01624,0.07583 -0.03795,0.14729 -0.06221,0.21295l-0.00697,0.02387c0,0 -0.02978,0.08512 -0.09689,0.20512c-0.06537,0.12087 -0.12188,0.19266 -0.12188,0.19266c-1.02549,1.2969 -2.12626,2.37856 -3.3816,3.46595l-0.26376,1.50774c-0.10535,0.67566 -0.71678,1.19403 -1.4553,1.19403c-0.81261,0 -1.47135,-0.62758 -1.47135,-1.40176c0,-0.08761 0.00844,-0.17334 0.02457,-0.25649l0.0249,-0.14232c-0.62874,0.4869 -1.32692,0.89042 -2.09698,1.19427c-0.18179,0.11817 -0.41568,0.18788 -0.71606,0.16248c-0.21591,-0.0071 -0.47576,-0.0707 -0.69049,-0.28443c-0.22011,-0.20646 -0.31844,-0.48895 -0.36073,-0.73133c-0.00362,-0.01679 -0.00701,-0.03345 -0.01017,-0.04995c-0.91644,-1.46102 -1.4828,-3.01867 -2.67571,-4.28471l-0.00004,0.00001c-0.77822,-0.82593 -1.84027,-1.21726 -2.77804,-1.7904c-2.39646,-1.46466 -4.4707,-3.32094 -6.83747,-4.8294c-1.2269,0.79086 -2.47854,1.50269 -3.72132,2.23349c0.30155,-1.07313 0.56722,-2.13317 0.78386,-3.15127c0.56114,-2.63718 0.11384,-5.40604 0.51514,-8.07223c0.12005,-0.79758 0.69352,-1.46256 0.93146,-2.23324c0.95466,-3.09211 1.56898,-6.33932 2.32481,-9.49917c0.16591,-0.62042 0.35639,-1.23164 0.60784,-1.81954c0.91924,-2.14921 2.64759,-3.89563 3.52512,-6.0622c1.15935,-2.86238 1.98184,-5.47656 2.3799,-8.33811c0.30745,-1.24436 0.43186,-2.48728 0.26992,-3.71555c0.00086,-0.08556 0.00138,-0.17145 0.00156,-0.25769l0,-2.5c0,-0.35179 -0.08073,-0.68472 -0.22468,-0.98128c0.5331,-0.65875 1.00377,-1.29388 1.31219,-1.89011c2.13873,-2.37667 4.6086,-2.85782 6.57798,-5.54807l0.1727,-0.05351l-0.04035,-0.06869l1.24126,-0.99869c0.2347,-0.19116 0.52472,-0.29212 0.82655,-0.26203c0.43113,0.04298 0.7806,0.34276 0.95021,0.75797l0.06025,-0.05653c0.33345,-0.31287 0.64079,-0.38795 0.89994,-0.35265c0.14073,0.00892 0.28819,0.05196 0.43467,0.14791c0.73542,-0.02906 1.22446,0.59215 1.22446,0.59215zM209.61076,240.83884c0.03236,0.21273 0.06669,0.42476 0.10363,0.63584c0.15311,-0.1131 0.33029,-0.19805 0.52298,-0.24669c-0.21655,-0.13487 -0.42511,-0.26375 -0.6266,-0.38915zM208.32035,233.56553c0.05978,0.02423 0.11955,0.04851 0.17926,0.0729c-0.064,-0.04016 -0.12868,-0.08009 -0.19391,-0.11983c0.00489,0.01563 0.00978,0.03128 0.01465,0.04693z" fill="#a69cb5"></path><path d="M234.95166,79.96687c-2.31192,-3.51344 0.15791,-8.46847 2.12943,-11.38416c1.15353,-1.70596 1.17468,-3.24493 4.27628,-2.21857c0.71521,0.23667 0.86381,1.18579 1.32941,1.7546c0.01148,0.01402 0.02291,0.02798 0.03433,0.04188c0.21518,-0.24907 0.56108,-0.44926 1.11712,-0.44926c1.47135,0 1.47135,1.40176 1.47135,1.40176c-0.03701,0.85262 0.16725,1.3598 0.46309,1.85253c0.10967,0.06817 0.22311,0.13638 0.34074,0.2049c0.06131,0.16195 0.09039,0.34547 0.12726,0.52377c0.13136,0.20844 0.26562,0.43712 0.39477,0.7037c0.49911,0.29857 1.36493,0.05693 1.69756,0.52496c0.77686,1.09307 0.31162,4.20037 0.31162,5.53518v0.1869c0,0 0,1.15962 -1.10707,1.36941l-0.27896,1.09146c-0.05503,0.45208 -0.28078,0.7315 -0.53883,0.90421c-0.2369,0.19534 -0.57334,0.33566 -1.04223,0.27984c-3.17458,0.01771 -8.74399,0.6888 -10.72588,-2.3231z" fill="#6390d6"></path><path d="M261.38487,234.30304c2.26078,-1.48794 3.57624,-0.86204 5.77966,-1.40795c0.21611,-0.19228 0.42945,-0.38801 0.63972,-0.58754c3.34185,-3.17117 6.94154,-7.82046 11.30299,-9.69473c0,0 0.91582,-0.37393 1.56316,0.21163c0.21835,0.16566 0.4037,0.41577 0.46569,0.79338c0.09916,0.37034 0.0322,0.6698 -0.09998,0.904c-0.12812,0.28358 -0.34103,0.46421 -0.5603,0.57928c-0.0032,0.07877 -0.00664,0.15757 -0.01034,0.23638c0.10532,0.02973 0.20029,0.0713 0.28571,0.12069c0.38449,0.19113 0.56758,0.5241 0.65475,0.79784c0.01555,0.04004 0.02262,0.06362 0.02262,0.06362c1.61477,5.43235 0.71677,9.99571 -1.00934,14.57888c-0.35765,3.11551 -0.6528,6.24061 -1.17272,9.361c-1.4177,8.50841 -4.16109,16.53207 -5.62852,24.95837c-0.17368,0.78891 -0.34736,1.57782 -0.52103,2.36672l-0.38662,0.16475c0.96933,1.05023 0.37366,2.43579 -0.72234,3.46465c-0.00197,0.07588 -0.00325,0.15188 -0.0038,0.22799l-0.14696,0.19001l0.09045,0.02873l-0.6432,1.83835c-0.1849,0.57279 -0.7447,0.98914 -1.40657,0.98914c-0.81261,0 -1.47135,-0.62758 -1.47135,-1.40176v-0.39228c-0.51824,0.01765 -1.04279,0.00503 -1.55592,0.04716l0.03785,-0.14163c-0.87366,-0.17621 -1.06914,-1.1074 -1.06914,-1.1074l-0.00738,-0.03516c-0.14296,0.07003 -0.291,0.13002 -0.44586,0.17664c-0.55608,0.16741 -1.17761,-0.084 -1.74934,0.02557c-2.3952,0.45904 -4.53343,0.4149 -6.99955,0.64147c-0.63052,0.05793 -1.25247,0.44475 -1.87124,0.31561c-0.34791,-0.07261 -0.72858,-0.13811 -1.10523,-0.22208l-0.26165,0.3116c-0.26938,0.3265 -0.6877,0.5362 -1.15742,0.5362c-0.72325,0 -1.32461,-0.49715 -1.44812,-1.15231l-0.32162,-1.53204l0.02268,-0.00432c-0.01534,-0.04391 -0.03005,-0.08806 -0.04409,-0.13246c-1.05651,-3.34194 1.40368,-8.06276 1.63218,-11.46176c0.21702,-3.22825 0.22875,-6.49331 0.18036,-9.76251c-0.52356,-3.51769 -1.12909,-7.11305 -0.54823,-10.59925c-0.14301,0.04416 -0.29559,0.06801 -0.45404,0.06801c-0.81261,0 -1.47135,-0.62758 -1.47135,-1.40176c0,-0.27204 0.08135,-0.52599 0.22211,-0.74095l0.96846,-1.53775l0.30808,0.17611c1.26802,-3.01042 3.34755,-5.86863 5.95617,-7.74084l0.18443,0.35962c1.23276,-1.3148 2.66626,-2.61484 3.97619,-3.47697z" fill="#a69cb5"></path><path d="M266.53689,157.9698c1.55016,1.50923 1.64759,3.35959 1.11943,5.0778c0.31142,0.83532 0.38721,1.87642 0.29242,3.1558c-0.05511,0.74385 0.16601,1.60709 -0.27773,2.22138c-0.23273,0.32217 -0.65546,0.55332 -1.08406,0.77102c-0.62804,1.09016 -0.79991,2.19469 -0.83681,3.45078c0.3389,0.28244 0.75918,0.83568 0.3267,1.65973c-0.65801,1.25377 -1.97402,0.62688 -1.97402,0.62688l-1.30379,-1.48739c0.00044,-0.13427 0.00181,-0.26684 0.00424,-0.39783c-0.90229,-0.4254 -0.71989,-1.468 -0.71989,-1.468l0.18726,-1.04679c-1.00956,-0.74131 -2.03384,-1.3192 -3.18664,-1.88002c-10.18772,-0.01028 -21.1278,0.5979 -30.69303,4.01369c-8.39537,3.33313 -15.91437,7.70249 -23.44612,12.37441c-1.71908,1.06634 -2.60078,3.41749 -3.77568,4.91879c0,0 -0.78832,1.00138 -1.86833,0.40188c-0.98263,0.23212 -2.09451,0.42225 -2.9485,0.07509c-2.59834,-1.05624 -2.86609,-5.077 -1.82558,-7.30524c0.6685,-1.43159 2.05927,-2.57108 2.7397,-4.09691l0.66083,-0.59531c-0.04391,-2.73769 -0.35823,-5.73628 0.02051,-8.40111h-0.00002c1.15852,-8.1511 8.42831,-16.32105 16.26748,-19.54889c0.02256,-0.20033 0.04485,-0.40086 0.06684,-0.60161c0.44474,-4.0594 1.56765,-8.80353 -1.77618,-11.04407c0.46457,-0.8551 0.86965,-1.74205 1.21921,-2.64622c1.23592,0.64564 2.32053,1.56079 3.15381,2.84606c1.66547,2.56888 0.86304,7.08816 0.44726,10.18748c4.33673,-1.87761 8.61388,-4.07601 13.22588,-5.37257c4.14861,-1.1663 8.46433,-2.0267 12.59764,-3.18913c3.55162,-0.99884 7.6407,-2.42025 11.3609,-1.78866c0.15258,-2.62614 0.33604,-5.25387 0.55125,-7.88663c0.42707,-5.22464 0.75639,-10.86322 3.38923,-15.54146l0.70706,-0.8786c0,0 0.03258,-0.03879 0.09313,-0.09594l-0.61009,-1.62745l0.02882,-0.0098c-0.03309,-0.07314 -0.06414,-0.14724 -0.09295,-0.22241c-0.43921,-1.14587 0.2153,-2.50681 -0.22138,-3.65355c-1.32095,-3.46891 -3.57117,-6.82354 -4.39712,-10.46787c-0.69013,-3.04504 0.24009,-5.70223 0.54023,-8.68287l0.76057,-0.50851c-0.36739,-0.16975 -0.73044,-0.32065 -1.0856,-0.44922c0,0 -1.37328,-0.5032 -0.84509,-1.81153c0.52818,-1.30832 1.90146,-0.80512 1.90146,-0.80512c3.10558,1.14982 7.0344,3.82186 9.26529,6.25734c4.8013,5.24162 1.89067,15.73053 -1.64151,20.83378l-0.79618,1.51703c-0.06789,0.13645 -0.15823,0.26077 -0.26647,0.36867c0.09136,0.60075 -0.33525,1.10878 -0.33525,1.10878l-0.41397,0.4564c-0.49665,0.87458 -0.90116,1.79277 -1.23377,2.74105c0.02566,-0.0009 0.0518,-0.00136 0.07842,-0.00136c1.47135,0 1.47135,1.40176 1.47135,1.40176l-0.09807,0.7702c-2.41473,5.97143 -3.2884,12.03562 -3.84468,18.19097c0.19633,0.1088 0.39066,0.22637 0.58287,0.35318c0.41043,0.16463 0.82085,0.32926 1.23127,0.49389l1.08793,0.72772c0,0 0.2695,0.19256 0.45388,0.51628c-0.96933,0.80094 -0.59191,2.11934 -0.59191,2.11934c1.23335,4.28759 2.57903,8.51981 3.88606,12.76943c0.89,0.28229 1.83246,0.48327 2.47152,1.10546z" fill="#a69cb5"></path><path d="M211.71675,145.01667c-2.64475,0.36427 -6.00208,0.86044 -9.17361,0.78822c-0.35453,0.26148 -1.02454,0.56637 -1.79895,-0.02385c-0.01037,-0.00791 -0.02057,-0.01582 -0.0306,-0.02376l-0.39385,-0.02047c-0.16517,-0.05754 -0.33384,-0.11093 -0.5052,-0.16116c-0.77771,-0.12179 -1.52485,-0.29617 -2.22551,-0.53555c-0.93873,-0.2146 -1.86405,-0.45622 -2.66777,-0.86486c-2.41874,-1.22984 -4.51955,-3.81262 -6.05519,-6.08682l-0.89268,-0.42523l0.16262,-0.30986c-1.80772,-0.54448 -3.4884,-1.48837 -4.4331,-3.19838c-0.35416,-0.64107 -0.5146,-1.46041 -0.583,-2.31464c-0.2709,-0.1878 -0.51318,-0.43835 -0.70491,-0.80376c-0.70242,-1.33866 -0.00073,-2.85904 0.69277,-4.16944c0.06175,-3.24563 0.44938,-5.99535 2.83888,-8.82857c1.48168,-1.75682 3.96107,-4.62233 6.57335,-4.78152c3.09015,-0.18831 4.51163,2.03201 6.90318,3.44671c7.4797,5.53891 17.36499,15.78752 10.30006,24.93081c-0.28673,0.37107 -0.60015,0.68721 -0.93455,0.96173c0.97418,-0.12914 1.89483,-0.26509 2.71945,-0.37606c1.13206,-0.00053 2.28218,0.0517 3.40333,0.20397c-0.35783,0.89994 -0.78811,1.77681 -1.27481,2.62219c-0.58376,-0.04758 -1.06634,-0.02918 -1.91991,-0.0297z" fill="#a69cb5"></path><path d="M224.66057,88.30243c4.30514,-2.04155 9.04904,-3.57971 13.11662,-5.77803c0.96106,-0.5194 2.05687,-2.53917 2.78357,-3.40467l1.8846,-0.52609c0,0 0.44591,0 0.84676,0.23386c2.11496,0.00438 5.2309,0.01109 7.03828,1.14362c1.0346,0.64828 1.3411,1.98842 2.11233,2.91144c0.76046,0.91013 2.20518,1.33087 2.64231,2.41707c0.43786,1.08801 0.49804,2.03117 0.3779,2.94131c5.23103,1.07228 1.11886,6.99384 0.95521,9.85929c-0.0279,0.48848 -0.14025,1.3659 -0.17794,2.23136c0.57461,0.86544 1.21511,1.70055 1.9279,2.52758l0.02255,0.21104l0.07533,-0.03075l0.72286,1.6069c0.08463,0.17692 0.13177,0.37355 0.13177,0.58066c0,0.1944 -0.04154,0.37956 -0.11662,0.54785c0.09227,0.20598 0.18456,0.41197 0.27683,0.61795c0.34069,1.17541 0.77354,2.08338 1.31047,2.85015c-0.17828,0.89286 0.42281,1.68026 0.42281,1.68026c3.03933,3.89576 3.93318,8.72862 4.57494,13.4826c0.84415,6.25323 0.89492,12.90142 0.55516,19.40779c-0.40001,0.14418 -0.79624,0.30879 -1.18744,0.50067c-7.59684,4.02209 -14.17439,7.98222 -17.18861,16.0147c-0.20804,0.55439 -1.28848,2.20449 -1.41822,3.06182c-0.25303,1.67196 0.01071,3.41023 -0.24102,5.11347c0,0 -0.00947,0.06314 -0.0385,0.16055c-0.06907,0.26617 -0.22766,0.61954 -0.59181,0.83903c-0.22453,0.14594 -0.52633,0.23716 -0.93065,0.20152c-0.40554,-0.01919 -0.69077,-0.15016 -0.89137,-0.32488c-0.3279,-0.26634 -0.43245,-0.63753 -0.46131,-0.91033c-0.01428,-0.10035 -0.01428,-0.16412 -0.01428,-0.16412l0.00466,0.00135c-0.00156,-0.12162 0.01013,-0.19959 0.01013,-0.19959c0.00348,-0.02283 0.00686,-0.04566 0.01014,-0.0685c-1.28125,-1.10189 -1.98639,-2.2109 -3.05724,-3.44413c-0.76353,-0.87932 -2.23961,-0.8252 -3.29825,-1.35917c-1.84767,-0.93193 -3.54973,-1.99945 -5.49638,-2.62973c-1.63886,2.10017 -3.95165,3.67064 -6.23921,5.12808c-2.39208,1.48239 -3.85539,3.75629 -6.77828,4.61777c-4.30418,1.26858 -7.54648,-1.1526 -11.50996,-1.58004c-0.89284,-0.09629 -1.65504,0.68722 -2.52687,0.89438c-2.89761,0.68851 -5.44549,1.238 -8.26542,2.23312c-0.39551,0.21613 -0.7585,0.20683 -1.05347,0.11591c-0.30511,-0.06024 -0.62714,-0.22452 -0.85897,-0.60276l-1.21719,-1.40492c-2.01776,-3.82525 -1.92293,-6.75686 -2.1989,-10.95936c0,0 -0.00103,-0.01564 -0.00113,-0.04373c-0.00174,-0.02804 -0.00174,-0.04371 -0.00174,-0.04371v-0.23363c0.0001,-3.02465 -0.16769,-6.26618 0.25401,-9.26437c0.70883,-5.03958 3.29259,-9.72014 4.44111,-14.63939c0.48074,-2.05909 0.83593,-4.00807 0.70484,-6.11838c-0.00207,-0.03333 -0.0047,-0.06592 -0.00786,-0.0978c-0.06768,-0.06207 -0.13462,-0.12538 -0.2011,-0.18947c-1.49043,-1.07357 -2.77041,-2.51911 -2.24762,-3.60904c0.01168,-0.37208 0.17556,-0.70774 0.43435,-0.95238c-2.43562,-1.89164 -4.52145,-4.30732 -6.93872,-6.26037c-4.44834,-6.79532 -2.82076,-17.07103 1.86199,-23.4482c1.8759,-2.55467 5.12678,-4.36648 7.62337,-6.35163c0,0 1.13032,-0.89739 2.07226,0.17948c0.6155,0.70367 0.34617,1.33071 0.08557,1.6808c0.22007,1.7658 5.37242,1.08559 6.87651,1.08559h0.00001c6.86716,0 12.61111,0.16587 18.9989,-2.43977z" fill="#721c67"></path><path d="M205.91019,97.20694l-1.53958,0.36669l-0.01981,-0.0755l-0.15727,0.10685c-0.47781,0 -1.1687,0.03659 -1.88442,0.01104c-1.80458,0.29451 -4.4187,-0.44061 -5.23616,-1.59985c-0.73456,-1.04166 -0.4062,-2.5185 0.14618,-3.8632c-0.43612,-0.59762 -0.68439,-1.44273 -0.74623,-2.69778c-0.09718,-0.33665 -0.01708,-0.64531 0.09812,-0.88084c0.05064,-0.13244 0.12455,-0.27314 0.23244,-0.40171c0.1664,-0.73355 0.25199,-1.48758 0.24594,-2.23625c-0.00002,-0.00146 -0.00002,-0.00221 -0.00002,-0.00221v-0.5607c0,-7.72332 -3.00594,-15.23568 0.25423,-22.65635l0.37016,-1.76139c1.01558,-3.83078 3.34918,-6.14869 7.04749,-7.85784c0.64434,-0.29778 1.30149,-0.42679 1.93102,-0.54372l-0.15622,-0.16719c-0.00423,-0.27605 -0.00845,-0.5521 -0.01267,-0.82815c-0.15418,-0.04411 -0.3289,-0.08623 -0.53727,-0.1238l-1.50695,-0.17946c-0.73583,-0.07732 -1.30821,-0.6716 -1.30821,-1.39323c0,-0.55958 0.34418,-1.04259 0.84186,-1.26735l1.54092,-0.73402l0.2068,0.39405c0.6398,-0.31882 1.31561,-0.52818 2.02064,-0.54204l1.30328,1.29761c0.13968,0.0741 0.26537,0.16924 0.37236,0.28092c1.11495,-2.59192 4.0153,-4.02551 6.92584,-4.88363c0,0 0.42005,-0.12006 0.87029,-0.0106l0.40913,-0.14617l0.0385,0.09782l0.3913,-0.11184c0.62174,-0.2411 1.26689,-0.43157 1.9279,-0.57487c2.90188,-1.06211 6.20561,-1.30195 9.28685,-0.58428c2.09089,0.487 1.82056,1.07919 3.50769,2.00388c1.98103,1.08575 4.37485,1.25111 6.37622,2.48597c0.99562,0.6143 1.85702,1.34838 2.71745,2.08472c1.86528,0.70691 3.99665,1.57356 5.33223,2.73967c1.33609,1.16655 2.27363,3.09884 3.32832,4.50523c0,0 0.0397,0.05294 0.09001,0.14417c0.05346,0.08958 0.07883,0.14999 0.07883,0.14999l0.47386,1.20435c0.70585,3.75309 -0.05188,7.58965 -2.35031,10.55681l0.33437,0.22753l-0.9695,1.2931c-0.26576,0.36397 -0.70802,0.6022 -1.20868,0.6022c-0.67717,0 -1.24751,-0.43583 -1.41879,-1.02913l-0.49686,-1.57788l-0.14423,-0.10306l0.07985,-0.10142l-0.00567,-0.01801l-0.0288,-0.07546c-2.01595,1.8528 -4.25938,3.90203 -6.9982,3.9725c-0.0402,0.00104 -0.08037,0.00169 -0.12052,0.00198l0.00517,0.02464l-0.02886,0.00549c-0.37059,1.62283 -0.76649,3.1302 -0.87232,4.60016c0.236,0.76816 0.52651,1.47515 0.92602,1.87116c1.66778,1.65317 3.50712,1.30774 3.68598,4.42779c0.28479,4.96779 -3.0143,2.6683 -5.15309,0.9337c0,0 -0.0155,-0.01265 -0.04127,-0.03672c-0.02716,-0.02263 -0.04159,-0.03639 -0.04159,-0.03639l-0.01617,-0.01676c-0.98451,2.62127 -2.77479,4.72878 -2.76894,7.62301v0.21174c0.0067,0.09777 0.00426,0.20319 -0.00899,0.31686c-0.05157,0.4421 -0.23402,0.72832 -0.45911,0.91308c-0.21759,0.19272 -0.53634,0.33388 -1.00324,0.33388c-0.12562,0 -0.24053,-0.01022 -0.34562,-0.02891c-3.485,-0.39712 -6.83118,-1.34648 -10.35225,-1.45596c-0.41303,0.69638 -0.81441,1.39915 -1.202,2.10863l-0.17223,1.47668c-0.07275,0.7094 -0.70058,1.26377 -1.46431,1.26377c-0.56462,0 -1.05495,-0.30298 -1.30164,-0.7476c-3.39269,0 -6.7854,0 -10.17809,0c-0.0432,0.62529 -0.51676,1.13857 -1.14114,1.27356z" fill="#111732"></path><path d="M295.4066,50.03405c-0.42514,4.03756 -0.25807,8.2367 -3.03757,11.27783l-1.30968,1.4888c0,0 -0.54464,0.51888 -1.23986,0.43037c-0.22643,0.13548 -0.49433,0.21382 -0.78144,0.21382c-0.21927,0 -0.42735,-0.0457 -0.61429,-0.12764c-0.67028,1.36375 -1.41482,2.68501 -2.30052,3.88375c-0.78163,1.3727 -1.70237,2.65442 -3.05835,3.62887h-0.00002c-1.1593,0.83311 -5.76529,3.47378 -7.19656,2.55851c-1.07664,-0.68849 -0.01331,-3.83443 0.21678,-4.71335c0,0 0.00495,-0.01886 0.01602,-0.05158c0.0091,-0.03327 0.01556,-0.05172 0.01556,-0.05172l0.52695,-1.49491c0.53865,-1.0318 1.14747,-1.97394 1.76678,-2.90909c0.67486,-4.40231 2.14869,-8.57404 4.12447,-12.67631c0.46297,-1.36239 0.96106,-2.71132 1.44207,-3.98179c0,0 0.26989,-0.7071 0.95798,-0.89682l0.1829,-0.24044c1.43877,-0.22408 3.65632,-0.61527 5.0823,-0.19255c0.92507,0.27422 1.71582,0.95184 2.66486,1.11298c0.4911,0.03379 0.79986,0.235 0.99401,0.47466c0.17221,0.17668 0.3072,0.41767 0.33192,0.7444c1.35519,0.1931 1.21569,1.5222 1.21569,1.5222z" fill="#721c67"></path><path d="M277.84761,75.86414c0.01359,0.02589 0.02633,0.05151 0.03826,0.07685c0.04181,0.02119 0.08099,0.04841 0.11707,0.08278h1.47135c0.81261,0 1.47135,0.62758 1.47135,1.40176c0,0.77417 -0.65874,1.40176 -1.47135,1.40176h-1.47135c-0.24542,-0.00074 -0.48918,-0.01967 -0.73107,-0.05377c-0.24479,0.03473 -0.49157,0.05377 -0.74027,0.05377h-0.24522c0,0 -0.27378,0 -0.58515,-0.11251l-0.85901,-0.1364c-0.70921,-0.10037 -1.25331,-0.68288 -1.25331,-1.38647c0,-0.55958 0.34418,-1.04259 0.84186,-1.26735l1.44283,-0.6873c0,0 1.31601,-0.62688 1.97402,0.62688z" fill="#721c67"></path><path d="M182.36532,-4.77391c0,0.05717 -0.00245,0.11202 -0.00714,0.16462c0.16586,0 0.33173,0 0.49759,0c0,0 1.47135,0 1.47135,1.40176c0,0.07428 -0.00413,0.14464 -0.01196,0.21126c8.2504,3.92353 16.64962,7.66819 24.36968,12.55526l0.30325,0.13341c0.01892,0.00795 0.02904,0.01277 0.02904,0.01277c5.34988,2.55004 10.29245,6.15124 14.78851,9.78539c1.84414,1.49061 4.45735,1.86846 6.44814,3.14467c1.88863,1.21073 3.3247,2.7418 5.05239,4.04795c0.7887,0.47202 1.5653,0.95661 2.33341,1.44966c3.10782,1.53017 5.85921,3.42011 8.74704,5.21615c3.76185,2.33962 8.6519,2.97712 12.7789,4.70962c0.31742,0.02214 0.55267,0.12175 0.55267,0.12175c0.15223,0.06482 0.30052,0.13044 0.44517,0.19685l0.18338,-0.08405c0,0 1.11523,0 1.40382,0.92501c1.98945,1.21053 3.29786,2.65158 5.24418,4.36163c0.661,0.58076 1.36992,1.13586 2.11424,1.66815c0.89984,-0.91858 1.96589,-0.10608 1.96589,-0.10608c3.66624,2.79426 8.4541,5.60452 13.30389,5.53348l1.45153,0.24997c0.02577,0.00378 0.05132,0.00819 0.07663,0.01321c0.22872,-0.06092 0.50538,-0.06613 0.83784,0.02437c1.41474,0.38509 1.01052,1.73292 1.01052,1.73292c-0.35726,1.16724 -1.04033,2.22173 -1.50002,3.35597c-1.35869,3.35248 -1.64194,7.18184 -4.04571,10.06807l-0.66936,1.27539c-0.15043,0.30232 -0.41107,0.54519 -0.73248,0.68151c-0.16668,0.32542 -0.33616,0.6523 -0.5079,0.98103l0.15534,-0.15963c0,0 0,1.40176 -1.47135,1.40176c-0.09715,0 -0.18788,-0.00611 -0.27263,-0.01752l-0.00724,0.01747c-0.08886,0.42066 -0.3366,0.67301 -0.60186,0.82439c-0.24868,0.18032 -0.59123,0.30651 -1.04118,0.22365c-4.2251,-0.10231 -7.66776,-2.27588 -11.4169,-3.85154c-1.73377,-0.72866 -3.18778,-0.61831 -4.95886,-1.10334c-2.50141,-0.68505 -4.81808,-2.26755 -7.12703,-3.36669l-1.44283,-0.6873c-0.49768,-0.22477 -0.84186,-0.70777 -0.84186,-1.26735c0,-0.22667 0.05647,-0.44079 0.15675,-0.63026l-0.07956,-0.12946c-0.62624,-0.76518 -0.77962,-1.83509 -1.46027,-2.55686c-0.79003,-0.83774 -2.19613,-1.00825 -2.94906,-1.87646c-1.41428,-1.63079 -1.68007,-3.86171 -3.83861,-4.37294c-0.45179,0.00055 -0.76288,-0.19208 -0.97141,-0.41437c-0.25948,-0.22093 -0.48045,-0.56269 -0.42687,-1.07528c-3.92251,-2.91615 -8.19883,-4.6246 -12.89394,-5.81632c-2.07776,-0.52739 -3.17493,-1.1867 -5.27259,-0.48832c0,0 -1.11151,0.35298 -1.68142,-0.51598l-1.16809,-0.38242c-2.55278,-1.77716 -6.12592,-2.63111 -9.14376,-3.66638c-2.53123,-0.86833 -4.3877,-2.46894 -6.65022,-3.72765c-0.31356,-0.09396 -0.52355,-0.27109 -0.66419,-0.46619c-4.59615,-1.45459 -9.41631,-2.64031 -13.53008,-5.25957c-2.44698,-1.19205 -4.28293,-3.04531 -7.03195,-3.83883c-1.97764,-0.57086 -4.34973,-0.92205 -6.25798,-1.67705c-4.26176,-1.68618 -7.60465,-5.05753 -12.15382,-6.00665c-0.08151,0.04568 -0.17281,0.08478 -0.27507,0.11506c-0.35801,0.14715 -0.68555,0.11541 -0.95187,0.02201c-0.37594,-0.08863 -0.61557,-0.29105 -0.76832,-0.5131c-0.28385,-0.13434 -0.59498,-0.37398 -0.71328,-0.79618c-0.8092,-0.85704 -1.23036,-1.33228 -1.49807,-2.85784c-0.01703,-0.09706 -0.03127,-0.19542 -0.04315,-0.29492c-0.15655,-0.19624 -0.29205,-0.40345 -0.38336,-0.63375c-0.49902,-1.25868 -0.16838,-2.77317 -0.11747,-4.22493c-0.48404,-0.89406 -1.37721,-1.04203 -2.09978,-1.91028c-0.84091,-1.01046 -1.03622,-2.09927 -1.29329,-3.20439c-3.21906,-3.64698 -5.4912,-7.91855 -9.39159,-10.84023c-0.90403,-0.38737 -1.75466,-0.91046 -2.48607,-1.54031c-0.10277,-0.05146 -0.20658,-0.10208 -0.31146,-0.15181c0,0 -0.94882,-0.45197 -0.83234,-1.35591c-0.03034,-0.20624 -0.00949,-0.43667 0.10983,-0.67626c0.1297,-0.34664 0.38036,-0.55307 0.6329,-0.676c0.36968,-0.23106 0.72678,-0.24329 1.02336,-0.17371c3.91044,0.14297 6.21638,1.94035 9.47084,3.65248c1.45829,0.76718 4.21798,1.48213 5.835,1.99423c1.16011,0.3674 2.44755,-0.12058 3.66731,-0.04218c3.11415,0.20014 5.98459,0.6961 9.19718,0.6961c2.19579,0.0048 3.99935,-0.57063 6.13395,-0.91543l0.73234,-0.01907c0,0 1.47135,0 1.47135,1.40176z" fill="#f0bcd4"></path></g><path d="M275.26084,115.3127c0.04174,3.46108 -5.19946,9.59858 -9.41192,8.07195c-1.45138,-0.52599 -1.13313,-2.75507 -1.73064,-4.12055c-1.38184,-3.15794 -2.90236,-6.25055 -4.03228,-9.4858c-0.35183,-0.4615 -1.10046,-1.79147 -1.21332,-1.8345c-1.42798,-0.54442 -2.5803,0.18567 -2.5803,-2.7172c0,-5.1469 6.28802,-1.08013 7.52023,-2.67213c0.92665,-1.19723 0.27863,-2.9628 1.78813,-4.19546c3.65852,-2.98755 12.12263,-5.62244 16.92449,-5.74822c1.07219,-0.02808 3.58339,-1.91474 4.55056,-2.12152c1.42334,-0.30431 3.09334,-2.36033 4.71608,-3.40321c-0.22367,-0.39534 -0.35061,-0.8477 -0.35061,-1.32829c0,-1.08539 0.64742,-2.02671 1.59442,-2.49259c0.40168,-0.27938 0.95358,-0.39893 1.83872,-0.31092c0.7831,0.07786 1.61899,0.26295 2.29895,0.60845c0.36482,0.18537 0.75502,1.28797 0.80723,0.89723c0.31179,-2.3334 1.1094,-10.00941 -3.76011,-10.07195c-3.13555,-0.04028 -6.27326,-0.09532 -9.4075,0c-1.67213,0.05086 -4.92406,6.32011 -9.17924,4.84015c-3.14976,-1.09549 -1.92213,-4.48489 -0.15216,-7.08328c-0.33877,-0.22947 -0.678,-0.42355 -1.01481,-0.55189l-0.99966,-0.27211c-6.93472,-3.81157 -15.24514,-3.78026 -21.05383,-8.96804c-1.97422,-1.76318 -4.05477,-0.05908 -4.78549,-3.53989c-0.15615,-0.74383 0.05633,-1.30812 0.48161,-1.72535c-2.96938,-1.89345 -5.24694,-4.4795 -7.93359,-6.70493c-3.30183,-2.735 -8.35155,-4.01983 -12.1765,-6.01449c-0.07345,-0.03831 -2.48517,1.76787 -3.38552,1.43972c-1.1337,-0.41319 -1.53935,-1.12566 -1.97406,-1.83848c-2.22074,2.32967 -8.09463,-2.21917 -9.80114,-3.31701c-11.42304,-7.34875 -25.62577,-9.91983 -36.8051,-17.38082c-2.32023,-1.54849 -4.81112,-2.94732 -7.30329,-4.37853c-2.84002,-0.69198 -5.75378,-1.00421 -7.87105,-3.22305c-1.89019,-1.98087 -1.51879,-8.35763 -4.34216,-11.54178c-1.41219,-1.59264 -3.2255,-2.29354 -4.77508,-3.55112c-1.13552,-0.92154 -1.26894,-3.16893 -2.4917,-3.89093c-2.14873,-1.26875 -5.29776,-2.36303 -6.75731,-4.68057c-1.19928,-1.90426 0.33848,-3.87774 2.30302,-4.38819c2.62246,-0.68139 6.53161,3.58207 8.54479,4.77801c0.47104,0.27982 2.1538,1.19281 2.1166,1.80194c0.0516,0.06612 0.10014,0.13439 0.14535,0.2047c2.08891,3.24832 7.19695,5.57104 11.59195,8.34063c0.54193,0.00008 1.04962,0.13973 1.48565,0.38327c1.87791,0.13065 3.59531,1.90824 6.32836,4.0712c9.17053,7.25767 21.41958,11.68532 31.90054,17.097c2.90084,1.4978 5.86112,2.77246 8.75369,4.13609c0.02788,-0.00283 0.05612,-0.0049 0.08474,-0.00617c0.155,-0.00692 0.32912,0.00692 0.5175,0.03743c0.24793,0.02824 0.4864,0.08584 0.71145,0.16907c1.47442,0.43904 3.35117,1.44069 4.0604,1.70214c2.43748,0.89853 4.81273,1.95265 7.14453,3.07732c1.79018,0.86344 3.18967,2.45594 4.97207,3.26252c5.51958,2.49774 10.87523,4.78701 16.40337,7.28175c1.94062,0.87576 3.24693,2.82872 5.22704,3.7223c1.71481,0.77385 6.54862,2.33434 9.19827,4.38294c1.63095,0.53268 3.85799,1.93582 4.4741,2.16414c4.84531,1.7956 11.32379,2.97808 15.15304,6.60429c0.82049,0.77698 0.97504,1.91314 0.70751,3.02424c0.68319,0.05215 1.44835,0.31807 2.37961,0.88163c0.00265,0.0016 0.00528,0.00321 0.00791,0.00481c0.28266,-0.29689 0.51573,-0.51669 0.6683,-0.6348c0.07722,-0.65564 0.39179,-1.24288 0.85993,-1.68193c0.47788,-1.61878 3.12431,-3.03468 4.05984,-4.49095c1.27597,-1.9862 1.84948,-7.25421 6.34206,-4.68615c1.24752,0.71311 3.84877,11.04092 2.41137,11.95387c-0.78589,0.49915 -1.59029,0.97278 -2.41035,1.41922c-0.92414,0.50311 -2.24128,-1.194 -2.99405,-1.0436c-1.01391,0.20258 -2.42301,1.52823 -3.88899,3.07483c0.99382,0.06209 1.90038,0.11435 2.63044,0.11435c7.9605,0 12.50971,12.10571 10.51419,17.76447c-0.77186,2.18878 -5.55676,5.23031 -9.05656,5.37054c-1.9977,3.12392 -6.52361,6.60705 -8.2039,7.99021c-1.11413,0.91713 -2.71821,1.81326 -4.16801,2.56955c-0.83645,3.15021 -5.0596,10.32522 -6.89584,11.27211c-0.31402,0.16193 -0.78905,0.65539 -1.31076,1.10683c-0.0022,0.16351 -0.00306,0.32254 -0.00122,0.47553z" fill-opacity="0.37255" fill="#2e1340"></path><path d="M203.95137,203.51357c-10.30008,2.53904 -21.24467,-2.28894 -22.78614,-12.85399c-0.04218,-0.28912 -0.03095,-5.71646 0.01196,-5.96097c0.38497,-2.19346 1.09392,-4.6866 1.9141,-6.87716c-0.0856,-2.64003 -0.68086,-6.55315 0.5127,-9.14634c0.63229,-3.55404 1.65654,-7.03038 2.51425,-10.5542c1.16879,-4.80183 1.18336,-9.79603 2.18009,-14.59367c1.57066,-7.56021 3.38733,-14.97982 4.64766,-22.59668c0,0 0.45895,-2.76921 3.36564,-2.33196c2.90669,0.43725 2.44773,3.20645 2.44773,3.20645c-1.27184,7.66124 -3.05671,15.12862 -4.67087,22.72676c-0.91139,4.29007 -1.03726,8.75504 -1.8598,13.09572c1.45706,-0.71405 2.93801,-1.34659 4.07396,-1.98567c9.23382,-5.19494 20.26959,-7.40216 30.93879,-7.40706c5.43312,-0.0025 9.40189,-0.42434 13.89785,2.75082c1.50546,1.29144 4.28045,2.36971 6.1684,3.66204l1.71422,-2.52394c0.51999,-0.79214 1.4438,-1.31904 2.49678,-1.31904c0.18767,0 0.37123,0.01674 0.54913,0.04873l2.23032,-1.73849c0.43499,-0.34446 0.97584,-0.57176 1.5692,-0.63106c0.45049,-1.14472 0.83664,-2.32097 1.49081,-3.36605c1.70913,-2.73044 2.86307,-3.88474 4.18,-7.03563c0,0 1.09289,-2.603 3.82511,-1.5618c2.73222,1.0412 1.63934,3.64419 1.63934,3.64419c-1.35154,3.20582 -2.86734,5.11003 -4.64809,7.91643c-1.05405,1.66116 -1.38184,3.67915 -2.43228,5.34239c-2.44982,3.879 -5.78154,7.08674 -8.60333,10.57748c-0.64222,1.62392 -1.33187,3.23522 -1.96927,4.89199c-0.58337,1.51635 -0.55801,3.27321 -1.45863,4.64143c-0.03898,0.05922 -0.07851,0.11806 -0.11855,0.17652l0.03301,0.01479l-1.93378,3.91494c-0.21429,0.45957 -0.5545,0.85404 -0.97891,1.14366c0.00231,0.48825 0.00487,0.97438 0.00487,1.45733v0.30318c0.08636,0.92549 -0.22764,1.56713 -0.6576,2.00828c-0.38579,0.47625 -0.9979,0.87657 -1.96911,0.94798c-3.82398,0.61529 -7.45981,1.47519 -11.20018,2.28019c-3.38354,0.7282 -5.91766,0.59322 -8.86417,2.72905c-2.27571,1.6496 -3.598,5.01533 -5.21653,7.47412c-0.05083,0.38521 -0.1991,0.72366 -0.38001,1.00764c-0.2483,0.50602 -0.68233,1.02436 -1.44098,1.29033c-3.23418,2.00271 -7.53586,4.32367 -11.21767,5.23126z" fill="#721c67"></path><path d="M199.50985,205.32423c-1.39287,-0.12544 -2.70698,-0.32867 -3.98739,-0.60602c-0.05238,0.01932 -0.10578,0.03736 -0.16023,0.05407c-0.67799,0.20808 -1.28329,-0.06323 -1.8361,-0.55192c-1.39197,-0.39207 -2.77167,-0.87258 -4.20021,-1.43654l-0.82332,-0.05612c0,0 -2.58298,-0.41014 -2.46965,-2.77797c-1.27777,-0.77063 -2.41045,-1.68565 -3.25528,-2.75608c-2.2407,-2.83905 -1.77166,-6.75651 -1.63633,-10.05093c0.12203,-2.97059 0.55613,-6.02477 1.17643,-9.0753c-0.21152,-1.06282 -0.33778,-2.12767 -0.1597,-3.1811c0.70482,-4.1693 2.4614,-7.91226 3.66474,-11.87383c0.21518,-2.68062 0.22781,-4.24628 1.09862,-6.99414c0.0456,-0.1439 0.09643,-0.28662 0.15114,-0.42843c0.17301,-3.19487 0.52621,-6.22398 1.05992,-9.34843c0.03881,-2.02685 0.23555,-4.05237 0.84809,-6.09887c0.00427,-0.57646 0.00613,-1.15018 0.00581,-1.72011c-0.00002,-0.03963 -0.00012,-0.08454 -0.00026,-0.13426c-0.09167,-0.1192 -0.18285,-0.23717 -0.27345,-0.35402h-0.42926l-1.16118,-0.27657l-0.00159,0.0001l-0.00077,-0.00066l-0.30781,-0.07331l-0.05765,-0.09611l-0.11602,-0.00614l-0.98701,-1.09705l-0.06029,-0.11487l-0.39971,-0.3264l-0.13316,-0.07612l-0.31626,-0.3013l-0.55378,-0.26379l-0.35916,-0.29328l-0.40563,-0.23187l-0.32696,-0.3115l-0.29868,-0.47427l-0.19538,-0.10637l-0.0917,-0.34947l-0.19453,-0.30889l0.03466,-0.12106l-0.13255,-0.14732l-0.08155,-0.15539l-0.22534,-0.32203l-0.19231,-0.513l-0.24477,-0.4923l-0.16349,-0.77875l0.01394,-0.27892l-0.07109,-0.27089v-1.86901l0.08786,-0.33482v-0.34513l0.16349,-0.62301l0.20479,-0.36581l0.1267,-0.39663l0.3877,-0.6156l0.41178,-0.91537l0.02901,-0.03637l0.00913,-0.04484l1.14439,-2.33626l0.06678,-0.07841l0.02747,-0.09752l0.17168,-0.29441c0.26343,-1.05594 0.63327,-2.29489 1.09283,-3.26527v-0.21859l0.05137,-0.19576l-0.0218,-0.20071l0.1478,-0.98568l0.02285,-0.32667l-0.0087,-0.02073l-0.04176,-0.05304l-0.00214,-0.00057l-0.00416,-0.00743l-0.20887,-0.26532l-0.22627,-0.51199l-0.2744,-0.49017l-0.08444,-0.32175l-0.00343,-0.00777l0.00088,-0.00194l-0.04909,-0.18709l-0.06161,-0.1761l-0.23344,-0.4448l-0.05977,-0.25623l-0.13768,-0.22736l-0.28562,-0.95238l-0.27107,-0.64561l-0.0753,-0.52609l-0.13517,-0.51511v-3.89377l0.07109,-0.27089l-0.01394,-0.27892l0.32696,-1.55751l0.05203,-0.10465l0.00405,-0.11573l0.65394,-2.18051l0.03276,-0.0541l0.00503,-0.06227l0.32696,-0.9345l0.0475,-0.07113l0.01196,-0.08353l0.59803,-1.42437l0.28562,-0.95238l0.1044,-0.17239l0.03601,-0.19604l0.65394,-1.40176l0.07503,-0.09149l0.03066,-0.11236l0.9809,-1.71325l0.17679,-0.18286l0.10873,-0.22601l1.29528,-1.54251l0.95312,-1.16748l0.6871,-1.30921l0.12101,-0.1345l0.06254,-0.16684l0.5165,-0.73812l-0.00053,-0.02358l0.05108,-0.04866l0.08688,-0.12416l0.47783,-0.41385l0.45663,-0.43503l0.1343,-0.07677l0.05345,-0.04629l0.0247,0.00163l0.60497,-0.34581l0.016,-0.00464l0.02666,-0.04445l0.70905,-0.16888l0.69921,-0.20274l0.04686,0.02504l0.01622,-0.00387h0.49045l1.25601,0.29915l0.06,-0.00318l0.01466,0.02096l0.14067,0.0335l0.70333,1.17262l0.78635,1.12373l-0.03146,0.13485l0.01311,0.02188l-0.02982,0.04971l-0.22539,0.96631c0.05988,0.22292 0.09172,0.45654 0.09172,0.69724c0,0.2427 -0.03237,0.47819 -0.09322,0.70277l0.01162,0.04061l-0.04426,0.07027c-0.07052,0.22186 -0.16912,0.4321 -0.29186,0.62694l0.57742,0.27505l0.02185,0.30189l0.28674,0.21247l0.0961,0.885h2.70527l0.28434,0.06772l0.29277,-0.01328l0.53169,0.10131h0.52603l0.20548,0.04894l0.21068,-0.02076l0.93736,0.12758h0.8025l0.0196,-0.01189l0.40841,-0.1297l0.73713,-0.2809l0.20057,-0.02605l0.17861,-0.09075l0.65394,-0.15575h0.11994l0.10999,-0.04556l0.9809,-0.15575l0.24517,0.01869l0.2386,-0.05683h3.51163l0.04444,-0.01512l0.03174,0.01512h1.15319l1.47135,0.35044l1.47135,2.45307l-1.47135,2.45307l-1.47135,0.35044h-0.13633l-0.01901,0.01552l-0.4822,0.22969l-0.0164,0.02734l-0.08199,0.01953l-0.07334,0.03493l-0.66005,0.13974l-0.65597,0.15623h-0.01292l-0.03742,0.01189l-0.11504,0.00843l-0.10181,0.05173l-0.65394,0.15575h-0.36227l-0.35145,0.0837h-3.50442l-0.21572,0.16442l-0.4708,0.20557l-0.43693,0.26489l-0.02272,0.00721l-0.4083,0.48624l-0.29688,0.2155l-0.21431,0.25129l-0.37645,0.67246l-0.01755,0.08358l-0.04427,0.02684l-0.02469,0.04411l-0.08612,0.02307l-0.37687,0.22849l-0.25127,0.39897l-0.05798,0.05524l-0.04538,0.06793l-0.03241,0.00618l-0.14865,0.14161l-0.09515,0.13596l-0.06131,0.52568l0.33784,0.13794l0.63128,0.10023l0.32526,0.13473l0.35015,0.05381l1.14439,0.46725l0.44372,0.32127l0.22722,0.12988l1.78659,0.10638l0.17523,0.053l0.18352,-0.01044l2.55289,0.45603l2.22546,0.30288l0.01509,0.00585l0.01621,-0.00143l2.07359,0.30393l2.55595,0.28648h1.45331l2.60789,-0.2923l0.17382,0.02129l0.17001,-0.04049h7.63806l0.93736,-0.12758l0.21068,0.02076l0.20548,-0.04894h0.83033l0.9022,-0.28651c5.80191,-2.36892 3.96225,-4.94424 6.80946,-7.65677c0.699,-0.66594 1.58633,-1.40176 2.57486,-1.40176c3.95019,0 3.08583,4.1735 2.28498,6.22763c-0.65962,1.69189 -1.57817,3.53245 -2.70268,5.30241l0.09072,0.15126l-1.47135,2.45307l-0.59193,0.14098c-1.68,2.0617 -3.64359,3.82349 -5.78391,4.84304c-2.33391,1.11176 -4.92286,0.50746 -6.84673,-0.81278l-0.39686,0.24061l-0.29205,0.09275l-0.94908,0.45209l-0.0164,0.02734l-0.08199,0.01953l-0.07334,0.03493l-0.66005,0.13974l-0.65597,0.15623h-0.08199l-0.0825,0.01747l-0.0275,-0.01747h-2.42372l-0.54068,-0.12877l-0.55221,-0.07174l-1.30731,-0.49819l-0.79518,-0.10822l-0.24771,-0.09614l-0.26669,-0.01954l-1.14886,-0.36484l-0.47653,0.1135h-0.36227l-0.35145,0.0837h-1.79831l-0.54068,-0.12877l-0.55221,-0.07174l-0.81741,-0.3115l-0.31482,-0.21662l-0.35791,-0.14357l-0.10463,-0.07476l-0.03811,-0.01529l-0.1401,-0.0267l-0.58843,-0.26555l-0.60008,-0.24072l-0.1143,-0.08168l-0.06783,-0.03061l-0.00833,-0.02381l-0.34203,-0.24439l-0.68725,-0.39285l-0.07477,-0.07124l-0.09875,-0.03603l-0.04182,-0.02789l-1.15281,-0.09984l-0.1264,-0.04201l-0.13359,0.0083l-1.74336,-0.30198l-0.13739,-0.0187l0.04614,0.03997l0.57798,0.47199l0.0025,0.04291l0.06867,0.09813l0.63043,0.50051l0.38461,0.29314l0.48299,0.15338l0.3316,0.20104l0.37015,0.12594l1.04724,0.66513l0.15944,0.03798l0.10181,0.05173l0.11504,0.00843l0.03742,0.01189h0.14788l0.0275,-0.01747l0.0825,0.01747h0.08199l0.65597,0.15623l0.66005,0.13974l0.07334,0.03493l0.08199,0.01953l0.0164,0.02734l0.4822,0.22969l0.14118,0.11529l0.17512,0.05958l0.43218,0.27449l0.75737,0.43293l0.16268,0.15499l0.20719,0.09529l0.9809,0.77875l0.25048,0.32654l0.31412,0.27206l0.32696,0.46725l0.03982,0.10623l0.08656,0.04713l0.16077,0.61265l0.22294,0.59472l-0.04459,0.08496l0.02871,0.10943v2.02476l-0.00007,0.00024c0.24863,0.32873 0.43815,0.66287 0.54904,0.99688c2.79849,0.0245 5.59828,0.02485 8.38326,-0.13287l5.75647,-0.39143c-0.49404,1.08535 -0.86524,2.23526 -1.33321,3.33431l0.91657,0.41914c-0.5128,0.26741 -1.01756,0.55089 -1.52121,0.83659c-0.16622,0.30023 -0.3476,0.59249 -0.54937,0.87404c-0.68752,0.95931 -1.98219,1.35572 -2.92676,2.09023c-2.3718,1.84436 -4.29038,4.37148 -6.84026,5.99666c-1.05672,0.67351 -4.75385,2.22944 -6.07223,2.80061l-0.88258,0.42256c0,0 -0.63304,0.30156 -1.43344,0.31311c-0.20922,0.28726 -0.41727,0.58116 -0.62458,0.88341l-3.8174,4.21442c-0.67447,-1.44574 -1.58509,-2.81602 -2.16961,-4.2905c-0.83622,0.95704 -1.82285,1.81473 -2.58777,2.82535l-5.3414,3.24665c0.02863,-0.31577 0.05427,-0.63188 0.07809,-0.9482l-0.8368,0.54613c-0.05948,1.45539 -0.1447,2.89957 -0.29181,4.29503c-0.05762,0.54657 -0.18357,1.07954 -0.34821,1.60482c0.02288,1.18061 -0.00322,2.35602 -0.14055,3.51814c-0.90156,7.62923 -3.42361,15.66827 -2.69224,23.37167c0.4394,4.62823 1.72679,8.88136 3.48247,13.19234c0.4558,1.11921 1.36041,2.22494 1.74037,3.36021h0.42473c0.50351,0 0.97748,0.12048 1.39189,0.33282c0.68182,-1.66288 1.79238,-3.24871 2.29624,-4.27786c1.78511,-3.64605 1.46158,-7.79879 1.46158,-11.70789c0,-5.31511 0.02977,-10.70729 0.49299,-16.00308c0.00041,-2.62726 0.24627,-5.20383 0.24268,-7.82677c0,-1.01238 0,-4.1274 0,-5.13977v-2.33626v0v0c0,-1.54833 1.31749,-2.80351 2.9427,-2.80351c1.41399,0 2.59506,0.95013 2.87815,2.21681l0.96722,3.91623l-0.08901,0.01995c0.05033,0.09908 0.09955,0.19871 0.14761,0.29895c0.35469,0.73988 -0.07723,1.63109 0.0106,2.44018c0.36246,3.33891 0.92115,6.65817 1.22235,10.0026c0.08164,0.90648 0.1801,1.80507 0.29568,2.69669c1.25005,0.32353 2.16936,1.41233 2.16936,2.7057c0,0.30296 -0.05044,0.59469 -0.14376,0.868l-0.68667,2.18064c-0.05764,0.26962 -0.10786,0.53465 -0.15104,0.79604c0.54777,2.32978 1.22594,4.62545 2.04041,6.90514c0.48692,1.36285 0.83371,2.77243 1.10449,4.18877c0.10135,0.5301 -0.26297,1.14211 0.00534,1.61644c0.4172,0.73754 1.51903,0.99024 1.89707,1.7467c0.51721,1.03494 0.86201,2.61384 0.84179,4.17023c0.7716,1.55859 -0.09282,2.64989 -0.72167,3.1869c-0.21287,0.38813 -0.47768,0.73109 -0.80072,1.01034c-1.73762,1.50208 -3.33807,2.08264 -4.77478,1.96625c-1.19345,0.56354 -2.42955,1.09293 -3.64085,1.50854c-0.36893,0.69879 -1.10459,1.39552 -2.57157,1.39552c-0.78926,0 -1.36683,-0.20168 -1.78949,-0.49684c-0.38744,0.0433 -0.79114,0.10673 -1.19838,0.16825c-0.41577,2.52031 -3.16393,2.28229 -3.16393,2.28229zM212.33708,193.41742c-0.00332,0.14734 -0.00659,0.29467 -0.00982,0.44198c0.01437,-0.00702 0.02874,-0.01405 0.04311,-0.0211c-0.00545,-0.14247 -0.01593,-0.28567 -0.03329,-0.42089zM198.25588,101.17707v0.31929l0.00378,-0.00539l0.21688,-0.18784l0.07939,-0.12606z" fill-opacity="0.37255" fill="#2e1340"></path><path d="M248.51067,173.82019l-0.13817,-0.0282c-0.01909,0.0462 -0.03943,0.0918 -0.06098,0.13676l0.04472,0.36706c-0.71531,1.09871 -1.52624,2.30489 -2.43725,3.49876c-0.40565,1.6132 -0.96844,4.04011 -1.53636,4.73223c-2.74694,3.34771 -7.86634,3.64497 -11.92834,2.8248c-0.72091,-0.14556 -1.51053,-0.26119 -2.24144,-0.47185c-0.62754,-0.09422 -1.18917,-0.3774 -1.6187,-0.78647c-0.10401,-0.08608 -0.20209,-0.17931 -0.29338,-0.28058c-1.18662,-1.3163 -1.15586,-3.29122 -1.69486,-4.94863c-1.18361,-3.6396 -1.47688,-7.5761 -2.83723,-11.14329c-0.75444,-1.97834 -1.7551,-3.8759 -2.36471,-5.89906l0.08909,-0.28115l-0.12684,0.01007l-0.24237,-2.77085c-0.00861,-0.08739 -0.01303,-0.17595 -0.01303,-0.26548c0,-1.54833 1.31749,-2.80351 2.9427,-2.80351c1.21445,0 2.25708,0.70089 2.70653,1.70125l1.09339,2.29168c0.42569,0.37916 0.84812,0.7621 1.2636,1.14802c0.02863,-0.00078 0.05736,-0.00118 0.0862,-0.00118c0.49425,0 0.96003,0.11608 1.36896,0.3212l2.3993,1.14291l-0.02846,0.05423c0.08676,0.02161 0.17328,0.04441 0.25952,0.0685c2.67532,0.74738 3.19221,3.67868 5.59101,4.75415c1.61606,0.72454 3.80705,0.58185 5.67394,0.63071c0.51286,-0.41407 1.17655,-0.66379 1.90145,-0.66379c0.2261,0 0.44624,0.0243 0.6577,0.07028l0.47883,-0.78202l0.17013,0.09454c0.24892,-0.82393 0.54772,-1.63118 0.91891,-2.41193l0.70984,-1.57964c0,0 0.85211,-1.89421 2.79985,-1.73851c0.02182,-0.03159 0.04371,-0.06327 0.06564,-0.09505c0.74095,-3.58648 2.79815,-10.91957 8.74308,-8.32468c1.64853,0.71957 1.39636,6.05242 1.39563,7.7582c-0.00126,2.94735 1.26803,8.46402 -1.30456,10.81356c-2.63014,2.40213 -5.93361,1.92469 -8.27911,-0.00386c-0.0824,0.0425 -0.16388,0.08601 -0.24423,0.1308l-2.29331,1.74788c-0.44291,0.34354 -0.99277,0.56675 -1.59465,0.61733z" fill-opacity="0.37255" fill="#2e1340"></path><path d="M243.97034,79.24089c-0.51636,0.59033 -1.06103,0.88401 -1.5797,0.99931c-0.53354,0.71278 -1.40856,1.17757 -2.39752,1.17757c-1.37948,0 -2.53725,-0.9043 -2.85583,-2.12461l-0.71885,-2.51113l0.36766,-0.09552l-0.47135,-0.64213c0.05958,-0.21886 0.11864,-0.4304 0.17758,-0.63519l-0.08566,-0.16323c-0.2153,-0.38959 -0.33714,-0.83334 -0.33714,-1.30421c0,-1.30679 0.93848,-2.40475 2.20838,-2.71552c0.8048,-1.18067 1.89643,-2.19516 3.58695,-3.46908c0,0 2.32283,-1.72119 4.12947,0.49176c1.80664,2.21296 -0.51618,3.93415 -0.51618,3.93415c-1.31234,0.9509 -2.09626,1.48753 -2.67955,2.47899l0.01214,0.02083l-0.03508,0.01857c-0.01301,0.02259 -0.02593,0.04542 -0.03874,0.06848l0.13347,0.25431l-0.21544,0.10263l0.0143,0.01046c0.06704,-0.03769 0.13409,-0.07539 0.20113,-0.11307l0.72319,0.26818c0,0 2.26064,1.79476 0.37677,3.94848z" fill-opacity="0.37255" fill="#2e1340"></path><path d="M194.08555,277.74304c1.86655,0.8603 3.63755,2.11119 4.71607,3.75673c0.52422,0.3958 1.04669,0.7961 1.56793,1.202l0.07229,0.70538l0.29679,-0.12852l0.1762,0.3693c0.66326,-0.27901 1.53609,-0.34231 2.58247,0.25582c2.52334,1.4424 1.00933,3.84639 1.00933,3.84639l-3.83613,2.4748c-1.14803,-0.28151 -2.43957,-0.24484 -3.4441,-0.84453c-0.71754,-0.42837 -1.34702,-1.08288 -1.93813,-1.82539c-0.91727,0.80604 -1.75227,1.60244 -2.52629,2.44148c1.39853,0.59375 2.95756,0.85289 4.34338,1.4841c0.21703,0.09885 3.01003,1.87289 4.24729,2.66c0.52469,0.1363 1.18136,0.42338 1.61978,1.02808c0.31527,0.41766 0.52179,0.98631 0.48074,1.75986c-0.01302,0.4723 -0.11175,0.86186 -0.26576,1.18317c0.01453,0.11293 0.02201,0.22793 0.02201,0.3446c0,1.54833 -1.31749,2.80351 -2.9427,2.80351h-2.45225c-2.14194,-0.01869 -4.32078,-0.28646 -6.46874,-0.70631c-0.40898,-0.00071 -0.68738,-0.00042 -0.74141,0.00194c-4.27659,0.18754 -8.51771,0.35103 -12.71769,-0.04017c-0.0297,-1.26945 -0.04851,-2.54114 -0.04968,-3.81625c-0.00171,-1.86287 0.12469,-7.20044 -0.59213,-8.63628c-0.05899,-0.11817 -0.12083,-0.23446 -0.18529,-0.34904l0.03987,-0.01994l-0.26246,-0.52492l0,-1.14148c1.37138,-3.32243 2.69844,-7.32453 3.44426,-10.82965c0.56114,-2.63718 0.11384,-5.40604 0.51514,-8.07223c0.12005,-0.79758 0.69352,-1.46256 0.93146,-2.23324c0.95466,-3.09211 1.56898,-6.33932 2.32481,-9.49917c0.16591,-0.62042 0.35639,-1.23164 0.60784,-1.81954c0.91924,-2.14921 2.64759,-3.89563 3.52512,-6.0622c1.15935,-2.86238 1.98184,-5.47656 2.3799,-8.33811c0.30745,-1.24436 0.43186,-2.48728 0.26992,-3.71555c0.00086,-0.08556 0.00138,-0.17145 0.00156,-0.25769l0,-2.5c0,-0.8388 -0.459,-1.57039 -1.13952,-1.95732c0.93659,-0.49918 1.92524,-0.94331 2.69526,-1.63716c2.17277,-1.95781 3.64671,-4.42714 5.93624,-6.35129c0,0 0.01919,-0.016 0.05557,-0.04331c-0.05204,-0.20871 -0.07958,-0.42646 -0.07958,-0.65034c0,-1.54833 1.31749,-2.80351 2.9427,-2.80351c1.6252,0 2.9427,1.25518 2.9427,2.80351c0,0.05927 -0.00193,0.1181 -0.00574,0.17646c0.3702,0.85328 0.2035,1.7268 0.2035,1.7268c-0.92791,4.70017 -2.77385,9.28736 -3.96963,13.98351c-3.14791,12.36273 -5.43086,25.0224 -7.81983,37.50373c-0.08987,0.34322 -0.17975,0.68644 -0.26962,1.02966l1.40396,1.07004c0.11645,0.05888 0.2337,0.12272 0.35258,0.19223z" fill-opacity="0.37255" fill="#2e1340"></path><path d="M173.3618,299.41687c0.00254,0.1454 0.00526,0.29077 0.00813,0.43611c-0.09654,-0.01989 -0.19306,-0.04018 -0.28956,-0.06087z" fill-opacity="0.37255" fill="#2e1340"></path><path d="M213.66742,251.91029c-2.88555,-0.54982 -2.30844,-3.29888 -2.30844,-3.29888l0.22812,-1.07921c0.75783,-4.32856 1.1879,-8.19454 1.18608,-12.62216c0,0 0,-2.80351 2.9427,-2.80351c2.9427,0 2.9427,2.80351 2.9427,2.80351c-0.00184,4.71439 -0.4595,8.9292 -1.26616,13.54395l-0.26233,1.25705c0,0 -0.57711,2.74907 -3.46266,2.19925z" fill-opacity="0.37255" fill="#2e1340"></path><path d="M262.88933,298.8845c-0.90426,-0.30213 -1.67069,-0.58152 -2.05363,-0.70843l-0.28667,-0.54122l-0.19548,0.20952l-0.78035,-0.66084c-0.07061,0.06399 -0.14372,0.12563 -0.21941,0.18477c-1.70055,1.32887 -4.64789,-1.9368 -6.37384,-2.48393c-2.05583,-0.6517 -7.47488,-0.5421 -8.94309,-1.68642c-3.90298,-3.04201 -2.86204,-5.40013 -0.47779,-8.5193c0.80961,-1.05918 1.66667,-2.44962 3.0211,-2.67714c0.32904,-0.05528 0.65801,-0.07587 0.98689,-0.06985l-0.01956,-0.18629l1.62997,-0.15529c0.3359,-1.13824 0.65963,-2.27868 0.97664,-3.41049c0.37889,-1.35277 0.26212,-2.86522 0.95284,-4.10103c0.00626,-0.0112 0.01254,-0.02236 0.01883,-0.03353l-0.00969,-0.00231l0.64234,-2.44784c0.01252,-1.10006 0.0369,-2.09476 0.00912,-2.80683c-0.06534,-1.67487 -0.03512,-3.42056 0.07555,-5.20569c-0.70482,-2.82189 -1.67746,-6.20452 -0.80748,-8.68301c0.02248,-0.06405 0.04565,-0.12781 0.06947,-0.1913l-0.0473,-0.00644l0.251,-1.67392c-0.13431,-0.08112 -0.27124,-0.16461 -0.41099,-0.25031c-1.2898,-0.79091 -2.90441,-1.48162 -3.52506,-2.81798c-1.76325,-3.7966 2.11153,-7.55352 4.37726,-10.01724c1.02093,-1.11014 1.86485,-2.4357 3.15761,-3.24907c0.06198,-0.039 0.12442,-0.07721 0.18728,-0.11466l-0.01959,-0.02333l2.43394,-1.85506c0.50643,-0.3928 1.15264,-0.62829 1.8566,-0.62829c0.0051,0 0.01019,0.00001 0.01529,0.00004c0.51876,-0.43623 1.20019,-0.70092 1.94651,-0.70092c0.4429,0 0.86294,0.09322 1.23969,0.26018c0.06793,-0.64837 0.47615,-2.59643 2.92913,-2.59643c2.9427,0 2.9427,2.80351 2.9427,2.80351c0,5.24328 0.38298,10.77912 -0.24909,15.99785c-0.73103,6.03583 -3.13792,11.80404 -3.68307,17.85806c-0.2823,3.13505 -0.89797,6.31318 -1.14467,9.44318c0.93517,0.16361 1.84855,0.54891 2.77963,0.75411l0.09759,0.08271l0.01734,-0.04544l2.633,0.91217c1.16364,0.37397 2.00153,1.4223 2.00153,2.65706c0,1.49302 -1.22503,2.71345 -2.76974,2.79875l-3.65558,0.23218l-0.00164,-0.02336c-0.03203,0.00943 -0.06408,0.01877 -0.09619,0.02802c-0.72705,0.20942 -1.50767,0.01547 -2.28253,-0.13974c-0.61293,1.07271 -1.30486,1.78346 -2.17518,2.02967c0.28469,0.96721 0.78172,1.96115 0.9776,2.24475c2.35774,3.41352 3.98899,4.13674 7.98526,5.28585l1.06652,0.20322c2.82582,-0.08592 5.78197,-0.51079 8.55344,-0.51079h2.45225c1.6252,0 2.9427,1.25518 2.9427,2.80351c0,1.0741 -0.63402,2.00713 -1.56497,2.4779l-2.15564,1.14094l-0.09447,-0.16201c-0.19041,0.15099 -0.38868,0.29331 -0.59647,0.42518c-0.8448,0.5361 -2.03065,0.0272 -3.04381,0.08615c-2.94518,0.17136 -8.04507,1.14213 -10.83299,0.10959c-1.00729,-0.37306 -1.88529,-0.96524 -2.71064,-1.64312z" fill-opacity="0.37255" fill="#2e1340"></path><path d="M280.70042,228.93197c-2.9427,0 -2.9427,-2.80351 -2.9427,-2.80351v-0.46725c0.04734,-3.11551 -1.34107,-5.5164 -0.962,-8.72777c0.24037,-2.03633 1.20235,-3.93513 1.8323,-5.89443c0.10084,-0.31362 0.17988,-0.6691 0.24647,-1.05065c-1.28377,-2.06636 -3.15726,-4.36138 -2.32809,-6.8024c0.6297,-1.85382 1.41885,-4.728 3.46144,-4.82639c2.37168,-0.11424 4.15764,2.48554 5.42579,4.39831c0.75206,1.13435 0.23428,2.68261 0.15695,4.02226c-0.06571,1.13849 -0.31128,2.23266 -0.63665,3.30623c0.72288,2.05323 0.89346,3.99823 0.8962,6.69707c0.00098,0.97029 0.06332,4.77866 -0.2717,5.515c-0.02047,0.04499 -0.0412,0.08985 -0.06217,0.1346l0.03825,0.00683l-0.72602,3.689c-0.20043,1.13718 -1.11945,2.04214 -2.29697,2.27657c-0.42613,0.31126 -1.01562,0.52656 -1.83109,0.52656z" fill-opacity="0.37255" fill="#2e1340"></path></g><path d="M198.93228,224.02063c0,0 0.71371,-2.71981 3.56854,-2.03985c2.85484,0.67995 2.14113,3.39975 2.14113,3.39975c-2.29498,8.74216 -5.92539,17.0462 -9.23155,25.47549c-1.07789,2.74815 -0.6699,5.53126 -1.19072,8.29842c-1.13662,6.03891 -4.07208,11.59873 -2.4019,17.89067c2.14501,1.46694 3.90849,3.02373 5.60296,4.9502l0.50683,1.04006c1.27817,0.30532 2.22471,1.40708 2.22471,2.71947c0,1.54833 -1.31749,2.80351 -2.9427,2.80351c-0.13949,0 -0.27672,-0.00925 -0.41105,-0.02713l-1.15669,-0.13775c-0.86714,0.24184 -1.73723,0.43021 -2.47699,0.47553c0.01536,0.00924 0.02978,0.01847 0.0432,0.02764c0.69138,0.47309 1.31214,1.0335 1.9618,1.55751c2.98213,2.40537 9.99576,3.19111 5.62331,9.22664c-1.04682,1.44498 -3.44391,1.3128 -5.25541,1.63548c-2.52159,0.44916 -4.68743,-0.37422 -6.81302,-1.39742c-0.3114,0.10683 -0.64715,0.16506 -0.99717,0.16506h-4.25056v-0.04622c-0.06084,0.01396 -0.12179,0.02757 -0.18285,0.0408c-1.34794,0.29229 -3.8318,-0.61609 -5.43741,-1.0818c-0.012,-0.76482 -0.01909,-1.53062 -0.01979,-2.29766c-0.00171,-1.86287 0.12469,-7.20044 -0.59213,-8.63628c-0.05899,-0.11817 -0.12083,-0.23446 -0.18529,-0.34904l0.03987,-0.01994l-0.26246,-0.52492l0,-1.14148c1.37138,-3.32243 2.69844,-7.32453 3.44426,-10.82965c0.56114,-2.63718 0.11384,-5.40604 0.51514,-8.07223c0.12005,-0.79758 0.69352,-1.46256 0.93146,-2.23324c0.95466,-3.09211 1.56898,-6.33932 2.32481,-9.49917c0.16591,-0.62042 0.35639,-1.23164 0.60784,-1.81954c0.91924,-2.14921 2.64759,-3.89563 3.52512,-6.0622c1.15935,-2.86238 1.98184,-5.47656 2.3799,-8.33811c0.30745,-1.24436 0.43186,-2.48728 0.26992,-3.71555c0.00086,-0.08556 0.00138,-0.17145 0.00156,-0.25769l0,-2.5c0,-1.24264 -1.00736,-2.25 -2.25,-2.25c-0.09041,0 -0.17958,0.00533 -0.26721,0.0157c0.85471,-0.72711 1.79051,-1.40925 2.81639,-2.05956c1.02928,-1.13562 2.30165,-1.99751 3.55493,-2.98087l0.46112,-0.00276l-0.08266,-0.18374l2.22897,-0.91009c0.37141,-0.16126 0.78418,-0.25109 1.21898,-0.25109c0.13337,0 0.26467,0.00846 0.39333,0.02483c0.00718,-0.02725 0.01434,-0.05451 0.0215,-0.08178z" fill-opacity="0.37255" fill="#2e1340"></path><path d="M186.33727,232.6615c-0.00012,-0.08866 -0.00021,-0.17731 -0.00026,-0.26593c0.00805,-0.00901 0.01611,-0.01801 0.02418,-0.02701c-0.01414,0.09581 -0.02225,0.19359 -0.02392,0.29294z" fill-opacity="0.37255" fill="#2e1340"></path><path d="M201.79622,95.54521c0.1043,0.1242 0.19529,0.24701 0.27413,0.36816c2.31947,-0.58961 4.61532,-0.7404 6.37839,-0.1719c0.03983,0.01284 0.0796,0.02584 0.11931,0.03897l0.00278,-0.03171l3.89585,0.3093c1.52405,0.10566 2.72605,1.31711 2.72605,2.79603c0,1.44328 -1.14476,2.63182 -2.61643,2.78648l-2.577,0.30689l-0.00119,-0.00906l-0.01881,0.01138c-0.94541,0.09922 -1.89082,0.19843 -2.83622,0.29765c-3.38873,0.6306 -4.99252,0.94801 -6.68505,3.84806c-0.20807,0.35651 -0.43917,0.70138 -0.65455,1.05405c0.84728,-0.01405 1.65332,0.05644 2.33277,0.1901c3.26154,0.6416 6.11233,3.12015 9.37259,4.05514c3.36286,0.15085 7.00205,0.2928 10.2291,-0.06388c3.66428,-0.405 6.95221,-2.14133 10.2617,-3.52105c0.90967,-0.37924 1.68837,-1.10002 2.66586,-1.26631c0.06927,-0.01178 0.13859,-0.02313 0.20797,-0.03405l-0.01242,-0.03548l3.85843,-1.22531c0.31098,-0.10651 0.64625,-0.16456 0.99573,-0.16456c1.6252,0 2.9427,1.25518 2.9427,2.80351c0,0.52387 -0.15082,1.01419 -0.41336,1.43368l-1.28222,2.13776l-0.2615,-0.14235l-0.17204,0.69432c-1.9892,1.24541 -5.46185,4.61511 -7.65899,5.36569c-1.13641,0.38821 -2.41167,0.11164 -3.6175,0.16745c-5.19506,0 -10.91465,0.47714 -16.2033,-0.29357c-3.82326,-0.16341 -7.58077,-0.83914 -11.0034,-2.07126c-1.03846,-0.37384 -2.04942,-0.81487 -3.08873,-1.18656c-0.01807,-0.00646 -0.03622,-0.0128 -0.05448,-0.01903c0.63295,2.82663 2.28829,3.83068 4.72846,6.35005c1.3539,1.39784 2.60312,2.87177 3.78941,4.39383l0.05608,-0.07124l2.58834,1.84943c0.15941,0.11136 0.30661,0.23763 0.43934,0.37666c0.67826,-0.39768 1.39871,-0.74782 2.20461,-0.99558c1.61826,-0.49752 3.54692,-1.74298 5.00968,-0.91692c4.37599,2.47125 2.90882,6.88214 0.36278,9.35954c-0.81688,0.79486 -2.14682,0.87562 -3.22023,1.31343c-4.40887,2.52652 -7.51957,2.15943 -12.74675,2.15879c-0.75644,-0.00009 -1.88568,0.02985 -3.04514,-0.00304c-0.09959,0.47404 -0.21114,0.93272 -0.32822,1.36369l-0.76072,1.86106c0,0 -0.84847,2.02085 -2.91921,1.78913c-0.52176,1.40443 -1.01316,2.82487 -1.45179,4.25496c-0.23716,1.96201 -0.47149,3.92718 -0.65739,5.885c-0.19784,2.08343 -0.09454,4.3024 -1.00952,6.20284l-0.3023,2.88008c-0.11311,1.2288 -1.0583,2.23021 -2.29559,2.4898c-0.02521,0.28596 -0.05175,0.57226 -0.07962,0.85905c-0.05317,0.94415 -0.126,1.88444 -0.23272,2.81813c0.00923,6.16814 0.02796,12.33696 0.00356,18.50501c-0.0041,1.03689 -0.00889,3.37234 0.34995,5.3219c1.24035,0.69807 5.53157,2.3953 6.00176,2.72098c0.86877,0.60176 1.4142,1.54061 2.1213,2.31092l0.68206,2.10627c0,0 0,1.72734 -1.42318,2.4703c0.07979,0.03285 0.1631,0.05295 0.24789,0.05612c0.57401,0.02143 1.22266,-0.17097 1.87802,-0.49213c-0.29421,-0.35007 -0.51801,-0.74674 -0.64965,-1.19261c-0.02469,-0.08362 3.32622,-5.19783 3.66402,-6.3082c1.43196,-4.70689 1.43277,-10.18954 1.21825,-15.55409c-0.19234,-3.16535 -0.35527,-6.33165 -0.35784,-9.5065c-0.00092,-1.13609 -0.01485,-7.93816 0.07872,-8.12015c0.10015,-0.19477 0.21262,-0.38112 0.33557,-0.5603l-0.10361,-0.04936l1.27936,-2.43769c0.47184,-0.94828 1.48581,-1.60407 2.66054,-1.60407c1.6252,0 2.9427,1.25518 2.9427,2.80351v2.49201c0,1.67514 -0.46714,3.3945 -0.0641,5.02504c0.47534,1.92308 1.54393,3.73274 1.69325,5.70331c0.20552,2.71227 -0.38094,5.55224 -0.01636,8.24219c0.25812,1.90447 0.78466,3.77284 0.98963,5.68318c0.02082,0.8346 -0.31558,1.75064 0.06246,2.50378c0.46149,0.91938 1.87286,1.21128 2.27615,2.15518c1.44322,3.37787 0.54611,6.53532 -1.99125,9.21654c-0.75015,0.79268 -2.12727,0.71498 -3.08759,1.26457c-1.00752,0.5766 -1.64884,1.73341 -2.76482,2.08475c-0.4004,0.12606 -0.87389,0.21374 -1.39072,0.25948c-1.66106,1.49723 -3.63327,2.65324 -5.55709,3.19446c-1.30696,0.36768 -2.68474,1.01825 -4.01473,0.73531c-1.67547,-0.35644 -3.2311,-1.34287 -4.41377,-2.52838c-0.66763,-0.66924 -0.8941,-1.67036 -1.19927,-2.59707l-0.42001,-0.18759c-2.40594,-1.97221 -6.25962,-3.60366 -8.02473,-6.13999c-0.57337,-0.8239 -2.18269,-5.57278 -2.66086,-6.93909c0,0 -0.81877,-2.34011 1.38374,-3.36193c-0.61062,-4.25425 -0.17744,-8.68716 0.84969,-12.87428c0.39584,-1.61366 1.33081,-3.11151 1.54067,-4.75261c0.00171,-0.20461 0.00273,-0.40857 0.00298,-0.61185c0.07006,-0.60871 0.1353,-1.21277 0.19528,-1.8139c0.20375,-3.35578 0.17334,-6.74904 0.46432,-10.10093c0,0 0.01418,-0.16213 0.07671,-0.405c0.1225,-0.52185 0.41777,-1.24709 1.12946,-1.71146c0.32424,-0.22102 0.73456,-0.38531 1.25347,-0.43925c0.35307,-2.17955 0.87256,-4.34842 1.5023,-6.49695c0.27975,-2.19913 0.60224,-4.39642 0.97775,-6.54769c-0.69,-0.17511 -1.28329,-0.52647 -1.79708,-0.98333c-1.46529,-0.52952 -2.7159,-1.30775 -3.40917,-2.33541c-0.73855,-1.09475 -0.77537,-4.01683 -0.53912,-6.52413c-0.76474,-4.68582 0.32661,-9.23242 3.23982,-13.41065c-0.01069,-0.04897 -0.02114,-0.098 -0.03137,-0.14709c-1.46451,-1.54689 -3.32863,-5.93885 -3.67615,-7.62798c-0.13822,-0.6718 0.0063,-7.58477 0.09575,-7.88351c0.86116,-2.87608 4.17081,-5.49526 6.05785,-7.74279c0.79712,-0.9494 3.51571,-5.91377 3.79849,-5.9913c10.00205,-2.74211 6.43172,4.48062 3.99654,9.09101l1.17069,-1.05154c0,0 2.29786,-1.75134 4.13615,0.43783z" fill-opacity="0.37255" fill="#2e1340"></path><path d="M243.20259,181.50783c-2.81699,2.88392 -7.44532,6.76928 -11.46449,2.73694c-0.32586,-0.32694 -0.48513,-0.70495 -0.53508,-1.11813c-3.04501,-2.25774 -3.19044,-6.2198 -3.56352,-9.48123c-0.43293,-3.78471 -2.46746,-7.48887 -3.51499,-11.13044c0,0 -0.77427,-2.70473 2.06473,-3.44238c2.83901,-0.73765 3.61328,1.96707 3.61328,1.96707c0.25246,0.88662 0.55279,1.77011 0.87221,2.65365c0.17485,-0.03086 0.35512,-0.04699 0.53935,-0.04699c1.40043,0 2.57238,0.93199 2.86977,2.18045l0.54344,2.07095c1.70511,2.55126 4.17497,-0.09852 6.95671,2.91569c0.76615,0.83018 1.26837,1.80392 1.54083,2.84356c0.1669,-0.02801 0.33865,-0.04261 0.51397,-0.04261c1.6252,0 2.9427,1.25518 2.9427,2.80351c0,0.56131 -0.17315,1.08409 -0.47134,1.52251l-1.61078,2.45535c0,0 -0.46625,0.71072 -1.29678,1.11209z" fill-opacity="0.37255" fill="#2e1340"></path><path d="M248.27083,172.32385c-1.91508,-2.12858 0.31918,-3.95308 0.31918,-3.95308l1.46314,-1.15385c-0.36922,-1.42801 -0.28451,-3.02162 0.39419,-4.43056c0.44206,-0.91768 1.31946,-1.70505 2.32161,-2.38942c0.47284,-1.32682 1.07862,-2.54282 2.04746,-3.43706l1.27952,-2.13326c0.49956,-0.86989 1.46913,-1.45984 2.58331,-1.45984c1.6252,0 2.9427,1.25518 2.9427,2.80351c0,0.22992 -0.02905,0.45336 -0.08385,0.6672l-0.64016,2.74449l-0.01611,-0.00341l0.00745,0.03936c-0.08606,0.31562 -0.14844,0.68041 -0.19584,1.08053c0.02893,0.30217 -0.00378,0.57991 -0.07661,0.83205c-0.19767,2.76967 -0.02982,6.57548 -1.65766,7.98149c-1.82024,1.5722 -3.52371,2.0386 -4.95436,1.78942l-1.58465,1.32653c0,0 -2.23426,1.8245 -4.14934,-0.30409z" fill-opacity="0.37255" fill="#2e1340"></path><path d="M236.7562,74.56472c-1.31601,-2.50754 1.31601,-3.7613 1.31601,-3.7613l1.1639,-0.54959c1.57997,-0.85673 3.20866,-1.63808 4.87833,-2.32321c0,0 2.70477,-1.10436 3.86395,1.47248c1.15919,2.57684 -1.54558,3.68119 -1.54558,3.68119c-1.46635,0.5953 -2.89435,1.28183 -4.27673,2.03781l-1.45184,0.69641c0,0 -2.63203,1.25377 -3.94804,-1.25377z" fill-opacity="0.37255" fill="#2e1340"></path><path d="M272.06347,101.64839c1.11687,-0.46912 2.13991,-1.25957 3.35062,-1.40737c0.27,-0.03296 0.55138,-0.07738 0.83968,-0.12633l0.44103,-0.7353c0.49956,-0.86989 1.46913,-1.45984 2.58331,-1.45984c1.6252,0 2.9427,1.25518 2.9427,2.80351v4.67252h-0.12125c0.0211,0.21379 0.03557,0.42845 0.04252,0.64412c0.04105,1.27318 -1.2582,2.25496 -1.7389,3.44356c-2.06187,5.09833 -2.59332,9.42221 -7.18367,13.13232l-1.83065,2.03474c-0.53979,0.60731 -1.34599,0.99284 -2.24671,0.99284c-0.85514,0 -1.62508,-0.3475 -2.16273,-0.90238c-0.41913,0.06258 -0.89664,0.02599 -1.42862,-0.177c-0.53924,-0.15031 -1.12532,-0.45774 -1.51914,-1.07413c-0.44576,-0.58341 -0.51821,-1.21706 -0.45645,-1.74908c0.00985,-0.6781 0.23614,-1.18356 0.55116,-1.5593c-1.16058,-2.21284 -1.22215,-4.83245 -2.67842,-7.02116c-0.57465,-0.86366 -1.91818,-1.42675 -1.93901,-2.44912c-0.00655,-0.32139 0.01638,-0.63925 0.06204,-0.95439h-0.2378v-2.49201c0,-1.54833 1.31749,-2.80351 2.9427,-2.80351c0.91661,0 1.73534,0.39926 2.27503,1.0252l0.84426,0.96519c0.26221,-1.15809 0.55,-2.32076 0.95532,-3.49994c0,0 0.93056,-2.65964 3.72225,-1.7731c0.62325,0.19793 1.06098,0.48422 1.36496,0.80957z" fill-opacity="0.37255" fill="#2e1340"></path><path d="M155.55409,2.03945c0,0 -1.11735,-0.79837 -1.23516,-2.02844c-3.23284,-2.36753 -6.57536,-4.64117 -9.67298,-7.09419c0,0 -2.26064,-1.79476 -0.37677,-3.94848c1.88386,-2.15371 4.14451,-0.35895 4.14451,-0.35895c5.25299,4.17999 11.13976,7.81912 16.13845,12.24665c2.17293,1.92464 3.64533,4.44702 6.32554,5.85165c2.38503,1.24993 5.02829,2.14393 7.42343,3.37608c2.88458,1.48394 4.88423,3.83069 7.67466,5.37817c1.89029,1.0483 3.87134,1.96498 5.65406,3.17228c4.26697,2.43881 8.83515,5.54727 13.49183,7.20004c2.84038,1.00812 5.78203,1.26155 8.65078,2.12237c1.52102,0.45641 2.98221,1.00315 4.40799,1.61399c3.34688,1.14951 6.54462,2.85088 9.63373,4.58948c1.99843,0.88328 3.92795,1.93116 5.84498,3.01965c3.32018,1.3486 7.97846,2.98969 8.88168,4.33523c0.14315,0.21325 0.26798,0.43311 0.37696,0.65868c0.39618,0.17757 0.79532,0.34912 1.19786,0.51373c2.9611,0.32603 6.82365,2.88275 8.31772,4.52553c0.50358,0.55371 0.50959,1.4481 1.0749,1.94481c0.59134,0.51959 1.52297,0.52864 2.20415,0.93635c2.81373,1.68414 4.28166,2.41934 7.49062,3.61094c0.47703,0.05265 1.47103,0.25383 2.10234,1.0226c3.92946,1.74973 7.81812,3.62662 11.69215,5.48474c1.92638,0.92396 3.68556,2.15062 5.39194,3.40724c1.18445,0.87226 2.92832,1.25151 3.64007,2.50626c0.00614,0.01083 0.01224,0.02168 0.0183,0.03254c0.15536,0.12143 0.29744,0.25772 0.42384,0.40658c1.0579,-1.52699 2.2662,-2.97297 3.94734,-4.39743c0,0 0.82579,-0.68839 1.91007,-0.74404c0.53952,-1.10243 1.05112,-2.22713 1.52293,-3.426c0,0 1.03325,-2.62501 3.78858,-1.64063c2.75533,0.98438 1.72209,3.60939 1.72209,3.60939c-1.18504,3.01007 -2.36173,5.734 -4.11232,8.48601c-0.10196,0.1603 -0.19525,0.32793 -0.2835,0.49977c1.60321,0.06799 3.23135,0.32307 4.35171,1.15675c3.85081,2.86547 2.09111,5.39463 3.35013,8.85712c0.63952,1.75875 1.61387,3.41154 2.09076,5.21652l0.02205,3.14605c0,0 0,2.80351 -2.9427,2.80351c-2.9427,0 -2.9427,-2.80351 -2.9427,-2.80351l0.02205,-2.46097c-0.68668,-2.6491 -1.92558,-4.34408 -2.28808,-7.15934c-0.07326,-0.569 0.01206,-2.52148 -0.77214,-3.06411c-1.56681,-1.08416 -5.45711,0.42116 -7.24436,-0.09062c-0.04775,-0.01367 -0.09539,-0.02761 -0.14293,-0.04182l-0.0033,0.03139l-0.16062,-0.0153c-0.66778,1.23688 -1.47319,2.48686 -2.57435,3.12309c-1.73639,1.00326 -3.7568,2.67152 -5.6891,2.0764c-4.22918,-1.30251 -4.09826,-4.45155 -2.84184,-7.29898c-0.72551,-0.72171 -1.4573,-1.46637 -2.34374,-1.83258c-1.52498,-0.63001 -3.33856,-0.11975 -4.96412,-0.45033c-4.88167,-0.99273 -10.63211,-3.26021 -14.85197,-5.94002c-0.46573,-0.12703 -0.92588,-0.27199 -1.37881,-0.43995c0,0 -0.12798,-0.04877 -0.31745,-0.15159c-0.50797,-0.25497 -1.15331,-0.71785 -1.4269,-1.49642c-0.17023,-0.43591 -0.22056,-0.96613 -0.03622,-1.59977c-0.06787,-0.06302 -0.13541,-0.12641 -0.20262,-0.19017c-1.37688,-1.30594 -4.74447,-3.37475 -5.16735,-5.18235c-0.01695,-0.07244 -0.03198,-0.14499 -0.04519,-0.21761c-1.97656,-1.29747 -3.564,-2.98351 -5.36754,-4.49107c-0.20073,-0.06171 -0.39203,-0.1434 -0.57132,-0.24261l-2.77318,-1.46779c-5.72918,-2.17053 -11.71505,-3.68878 -17.39443,-5.81329c-4.52059,-1.69103 -8.49635,-4.61184 -13.03864,-6.35088c-2.98743,-1.8057 -5.55356,-1.8774 -8.80809,-2.97316c-7.02562,-2.36546 -13.07835,-6.64097 -19.65669,-9.80752c-2.07674,-0.99966 -4.49304,-1.20258 -6.63111,-2.07703c-2.0634,-0.8439 -3.65712,-2.4924 -5.36455,-3.88183c-0.13964,-0.11364 -0.28471,-0.22068 -0.43401,-0.32255c-0.53976,0.6039 -1.34364,0.98693 -2.24143,0.98693c-1.52747,0 -2.7831,-1.10873 -2.92862,-2.52753l-0.30745,-2.6362c-0.80809,-1.39305 -1.27727,-3.01267 -1.83508,-4.51461c-0.36357,-0.97893 -1.28523,-1.81079 -1.32369,-2.84855c-0.00365,-0.09832 -0.00617,-0.1966 -0.00763,-0.29485l-0.07153,0.01461l-0.5865,-2.60753c-0.53303,-0.33371 -1.06394,-0.67 -1.57141,-1.0326zM167.34312,11.35405l0.23217,0.00486c-0.07475,-0.04411 -0.14869,-0.08875 -0.22187,-0.13391c-0.00334,0.04302 -0.00677,0.08604 -0.0103,0.12905z" fill-opacity="0.37255" fill="#2e1340"></path><path d="M272.73879,297.28038c0,2.80351 -2.9427,2.80351 -2.9427,2.80351l-1.01893,-0.02165c-3.42264,-0.40759 -8.31401,0.0675 -11.47652,-1.098c-1.30202,-0.47984 -2.27201,-1.47634 -3.24209,-2.48021c-1.88941,-0.60551 -4.09331,-1.82661 -5.76318,-3.29983c-0.51139,-0.16807 -1.01139,-0.35688 -1.47851,-0.60218c-1.16698,-0.61285 -2.20119,-1.42974 -3.28652,-2.16805c-0.56088,-0.25418 -1.13244,-0.70721 -1.38804,-1.5147c-0.2209,-0.49667 -0.31001,-1.11302 -0.03275,-1.81597c0.19598,-0.72734 0.64,-1.1836 1.11992,-1.4698c0.69749,-0.5234 1.44071,-0.58109 2.05423,-0.48169h0.04499c0.58242,-0.9701 1.47875,-1.86001 2.55022,-2.63949c0.38017,-1.97609 1.69756,-4.02524 2.28292,-5.15581c1.74863,-3.37728 2.09688,-7.01255 2.31075,-10.75749c0.25608,-4.48397 0.17453,-9.01578 0.27474,-13.5322c-1.60375,-0.02369 -2.89616,-1.26964 -2.89616,-2.80317v-2.80351h0.0918c-0.02402,-0.13488 -0.04436,-0.27055 -0.06062,-0.40711c-0.14026,-1.17824 0.73138,-2.2677 1.04491,-3.41525c0.38363,-1.40412 1.23194,-5.92745 1.87284,-6.81851c2.37971,-3.30862 4.58369,-4.51154 7.01369,-2.22862c1.77347,-1.85232 4.12945,-2.17982 7.08876,1.71233c1.60354,2.10902 -0.56672,7.07117 -0.70758,9.44319c-0.39207,6.60252 -0.52114,13.05769 -1.67014,19.6176c-0.68609,3.91707 -2.24341,7.55515 -3.08974,11.42606c-0.39685,0.68091 -0.81691,1.53602 -1.27659,2.44345h4.07917c1.6252,0 2.9427,1.25518 2.9427,2.80351c0,1.17898 -0.76388,2.18798 -1.84585,2.60228l-2.22642,0.90905l-0.00072,-0.00158c-1.25418,0.51616 -2.42014,1.59285 -3.7742,1.47426c-1.73253,-0.15173 -3.00386,-0.65287 -3.93743,-1.39435c-0.40832,0.07757 -0.81384,0.16149 -1.20983,0.26848c-0.30996,0.15533 -0.62642,0.30747 -0.94515,0.44518c0.17713,0.04279 0.35413,0.08526 0.531,0.12714c2.11565,0.5009 4.43774,0.51565 6.33953,1.53091c1.08777,0.5807 2.36445,1.20623 2.86105,2.29589c0.08544,0.18746 0.1655,0.37661 0.24076,0.56725l0.09457,-0.04204l1.54115,3.14626c1.44787,0.16963 4.48109,0.53185 4.65835,0.55296l0.28893,-0.02165c0,0 2.9427,0 2.9427,2.80351z" fill-opacity="0.37255" fill="#2e1340"></path><path d="M280.87492,228.10545c-2.91997,-0.34773 -2.55498,-3.1296 -2.55498,-3.1296l0.30992,-2.31848c-0.01004,-4.09528 -0.00569,-8.19056 -0.00569,-12.28585c0,0 0,-2.80351 2.9427,-2.80351c2.9427,0 2.9427,2.80351 2.9427,2.80351c0,4.21142 0.0033,8.42284 -0.00569,12.63426l-0.344,2.66554c0,0 -0.36499,2.78186 -3.28497,2.43413z" fill-opacity="0.37255" fill="#2e1340"></path></g><path d="M242.93329,145.70882c-0.76719,-3.50042 -1.29412,-6.75273 -1.91569,-10.30998c-0.22936,-1.31264 -1.20759,-2.55992 -1.00244,-3.8762c0.01792,-0.11495 0.03889,-0.22911 0.06268,-0.34254h-0.08472v-2.80351c0,-0.83014 0.37872,-1.576 0.98053,-2.08934c-0.0292,-0.81664 0.01499,-1.60191 0.54482,-2.17953c0.24079,-0.26251 0.50314,-0.50027 0.78236,-0.71866l-0.11837,-0.12405l1.56807,-1.3581l0.42401,-3.83756c0.13834,-1.42582 1.39736,-2.54221 2.93008,-2.54221c1.03763,0 1.94983,0.51165 2.47379,1.28458l1.44603,2.06645l-0.03671,0.02331l0.10071,0.07229c2.19324,3.76103 3.57966,6.92439 3.61813,11.27179c0,4.7372 0.77638,8.36198 2.86457,12.73991c1.12929,2.36758 3.60069,2.11735 3.02648,5.40967c-0.03013,2.35492 -2.12709,5.67962 -3.28006,7.70347c-0.40936,1.22081 -0.93773,2.38855 -1.44483,3.39486c-0.13503,0.71148 -0.33916,1.35882 -0.63133,1.90776c-1.74533,3.27919 -5.35041,7.44627 -10.17745,3.78473c-1.2345,-0.93643 0.09343,-3.00561 0.11004,-4.5089c0.00335,-0.3041 0.00122,-0.60818 -0.00322,-0.91226c-0.88249,-1.84228 -1.04424,-4.23584 -1.43478,-6.03997c-0.58077,-2.68287 -0.75711,-5.33734 -0.80274,-8.01606z" fill-opacity="0.37255" fill="#2e1340"></path><path d="M255.82737,158.32776c-0.34071,1.42363 -0.75263,2.80597 -1.17477,3.28731c-0.08432,0.09614 -0.17059,0.19041 -0.25865,0.28295l0.06366,0.04043l-1.93648,2.76733c-0.52396,0.77293 -1.43615,1.28458 -2.47379,1.28458c-1.6252,0 -2.9427,-1.25518 -2.9427,-2.80351v-2.56989c0,-5.12626 -0.20598,-10.10603 -0.72446,-15.17477c-0.37705,-3.68611 -0.95207,-3.7503 -1.67776,-7.43942c-0.76298,-3.87872 -1.26172,-7.66296 -1.52885,-11.49559c-0.21646,-1.20487 -0.37978,-2.41558 -0.48081,-3.63002l0.04415,-0.10759h-0.04632v-2.56989v0c0,-0.4548 0.11368,-0.88432 0.31544,-1.26416c0.17368,-0.81856 0.77695,-2.24023 2.87248,-2.24023c2.9427,0 2.9427,2.80351 2.9427,2.80351c0,0.13878 0.00027,0.27737 0.00081,0.41574l0.86599,1.51255l-0.09992,0.05193c0.10542,0.1276 0.207,0.25836 0.30426,0.39271c1.15638,1.59725 0.62066,3.87388 1.40233,5.66563c1.26009,2.88838 2.43007,5.79275 3.10117,8.89506c0.39213,1.81273 0.33923,3.69365 0.52166,5.53711c0.57726,1.07317 1.18842,2.19428 1.69175,3.30516c0.69664,0.36318 1.47745,0.68641 1.90727,1.25838c1.51667,2.01828 1.85755,4.63831 2.80897,6.94907l-1.88853,3.67107c0,0 -1.34388,2.13386 -3.6096,1.17454z" fill-opacity="0.36471" fill="#2e1340"></path></g><path d="M196.55048,81.35675c0.68171,1.6867 1.41962,3.36028 1.84682,5.12126c1.82802,2.09765 3.52381,6.0945 -2.33726,4.38442c-0.53447,-0.15594 -2.25705,-3.99158 -2.34789,-4.28016c-0.76227,-2.42136 -1.3112,-5.58116 -1.35119,-8.61805c-0.06721,-0.31413 -0.12521,-0.63042 -0.17243,-0.94919c-1.01498,-6.85105 1.34489,-12.16912 5.12266,-17.77157c1.40953,-2.09034 2.03524,-3.57322 4.82452,-4.3462c1.4546,-0.40311 4.07907,0.08448 5.58607,0.33448c1.85022,-2.71143 5.89682,-3.97737 8.64815,-5.74284c1.35185,-0.86746 2.28798,-2.22671 3.53842,-3.21902c0.46346,0.83046 0.99154,1.63485 1.59271,2.37996c-1.21106,1.00728 -2.16735,2.30749 -3.49652,3.17026c-3.03598,1.97067 -6.50215,3.3046 -9.00802,5.93845c-1.73103,0.11357 -4.58211,-0.55419 -6.18471,-0.13277c-2.1757,0.57211 -3.09861,3.24373 -4.29048,4.82389c-1.58049,2.0954 -2.64527,4.52265 -3.19669,7.0624c0.39383,0.20259 0.67966,0.57128 0.75413,1.00754l0.48586,2.54584l-0.35492,0.06148c0.57584,1.75313 0.78089,3.40351 1.10297,5.85606l0.01136,1.10837c0,0 0,0.9131 -0.77355,1.26539z" fill="#111732"></path><path d="M222.33604,38.39019c0.69717,-1.2344 1.99286,-0.57022 1.99286,-0.57022l1.4554,0.7541c0.90488,0.71481 1.79791,1.44789 2.68364,2.19246c3.82248,1.5066 6.36951,4.31482 9.73594,6.71973c3.7294,2.66421 7.33128,5.49135 11.05164,8.19176c1.17281,0.85128 3.45338,2.06336 4.92579,3.23282c1.92463,0.9197 3.82168,1.87262 5.60939,2.98492l0.09218,-0.21956l1.92998,0.73547c0.55881,0.19878 0.95673,0.71193 0.95673,1.31362c0,0.77417 -0.65874,1.40176 -1.47135,1.40176h-1.46986c-1.34957,0.23586 -2.729,0.60371 -4.12283,0.34518c-5.35561,-0.99337 -7.9019,-6.21137 -13.08054,-7.58002c-2.09096,-1.38522 -3.01872,-2.93467 -4.89467,-4.39061c-0.39162,-0.15519 -0.76835,-0.32612 -1.1136,-0.53062c-0.16977,-0.10055 -0.33919,-0.20126 -0.50828,-0.30212c-1.45192,-0.61375 -2.95135,-1.14813 -4.27085,-1.98313c-0.1331,-0.08423 -0.26498,-0.17037 -0.3958,-0.25822c-0.0634,-0.03693 -0.12614,-0.07449 -0.18821,-0.1127c-1.28313,-0.79024 -2.45657,-1.82579 -3.62706,-2.86736c-0.1105,-0.08887 -0.22131,-0.17732 -0.33252,-0.26517c-1.24607,-0.7948 -2.49323,-1.59237 -3.75016,-2.3902c-1.88594,-0.82887 -3.93626,-0.79123 -5.67692,-1.98391c-3.00908,-2.0618 -4.56965,-4.21748 -8.25453,-5.50068l-0.12185,-0.15341l-0.04281,0.05826l-1.94493,-1.29705c-0.38899,-0.25225 -0.64445,-0.67751 -0.64445,-1.15961c0,-0.77417 0.65874,-1.40176 1.47135,-1.40176c0.2174,0 0.42379,0.04492 0.60949,0.12554l1.34336,0.5485l-0.11038,0.24538l0.11705,0.07806c3.02099,0.62272 4.92229,2.21743 8.04864,4.07974c1.56009,0.92932 3.33601,1.64416 4.99961,2.48699c0.00053,-0.13711 0.02173,-0.26959 0.06077,-0.39473l-0.46368,-0.23459c0,0 -1.29569,-0.6642 -0.59852,-1.8986z" fill="#7b567a"></path></g><path d="M211.5564,259.72418c-0.51674,3.35311 -0.79739,6.76706 -1.39308,10.10789c-0.7496,4.20399 -2.59998,7.95485 -3.45539,12.11662c-1.51704,2.01581 -3.55126,6.50363 -6.47674,3.7888c-0.4578,0.51217 -1.12351,0.83456 -1.86452,0.83456c-1.38071,0 -2.5,-1.11929 -2.5,-2.5c0,-0.18573 0.02025,-0.36673 0.05867,-0.54091l0.06952,-0.34759c-0.18393,0.03891 -0.37512,0.05943 -0.57134,0.05943c-1.32428,0 -2.41944,-0.93456 -2.59848,-2.14917l-0.1293,-0.78014c-0.41953,0.27099 -0.92576,0.42931 -1.47081,0.42931c-1.44926,0 -2.62412,-1.11929 -2.62412,-2.5v-5c-0.77573,-3.34724 1.18954,-8.21542 1.83721,-11.38525c1.46552,-7.17267 4.00847,-14.07771 6.14252,-21.07258c1.26235,-4.13766 2.2266,-8.27333 3.63891,-12.37587c0.47984,-1.39387 0.15816,-3.43937 1.49746,-4.16309c5.28234,-2.85443 6.68136,1.28045 7.97985,4.38876c0.25342,0.60664 0.52531,1.32807 0.78581,2.12052c0.14838,0.02619 0.30357,0.06428 0.46581,0.11581c1.92682,0.6119 1.86518,2.171 1.7389,2.84448c0.27982,0.03498 0.58314,0.1185 0.91033,0.26519c2.37435,1.06449 1.25701,3.32654 1.25701,3.32654c-0.49256,0.98483 -0.89788,1.95573 -1.26892,2.91844c0.1126,3.02963 0.358,6.20743 0.23553,9.24009l0.78151,0.39076l-0.95749,1.91497c-0.04083,0.34796 -0.08861,0.69283 -0.1442,1.03412c-0.37658,2.3123 -1.21272,4.62877 -1.94465,6.91834z" fill="#5d496e"></path><path d="M191.45965,290.63727c0,0 -2.17061,-1.24035 -0.93026,-3.41096c1.24035,-2.17061 3.41096,-0.93026 3.41096,-0.93026c2.93775,1.68277 6.0384,2.95508 8.97376,4.65188c1.22439,0.70777 2.86198,0.997 3.64165,2.1769c0.63131,0.95538 1.057,1.78414 1.30967,2.50024c0.45159,-0.09124 0.99135,-0.04177 1.61927,0.27219c2.23607,1.11803 1.11803,3.3541 1.11803,3.3541l-2.5694,2.04863c-2.11665,-0.0341 -5.9082,-0.4337 -7.69816,-2.02499c-0.81208,-0.18383 -1.57615,-0.40914 -2.22533,-0.64724l-0.2276,-0.37979l-0.11603,0.13924l-1.98533,-1.65444c-0.55817,-0.4585 -0.91421,-1.15406 -0.91421,-1.93278c0,-0.79325 0.36945,-1.50021 0.94567,-1.9582c-1.46802,-0.70281 -2.93967,-1.39888 -4.35268,-2.20453z" fill="#655077"></path><path d="M185.56547,289.02497c1.94616,0.29808 3.85668,0.47382 4.60697,0.62295c0.54252,2.51325 2.41066,5.09077 1.62756,7.53975c-0.75723,2.36807 -3.57821,3.48232 -5.61014,4.91494c-2.08811,1.47223 -5.22458,2.41797 -8.18674,2.2575c-0.09013,-2.54629 -0.16384,-5.09676 -0.16619,-7.66108c-0.00171,-1.86287 0.12469,-7.20044 -0.59213,-8.63628c-0.05899,-0.11817 -0.12083,-0.23446 -0.18529,-0.34904l0.03987,-0.01994l-0.26246,-0.52492l0,-1.14148c1.37138,-3.32243 2.69844,-7.32453 3.44426,-10.82965c0.56114,-2.63718 0.11384,-5.40604 0.51514,-8.07223c0.12005,-0.79758 0.69352,-1.46256 0.93146,-2.23324c0.95466,-3.09211 1.56898,-6.33932 2.32481,-9.49917c0.16591,-0.62042 0.35639,-1.23164 0.60784,-1.81954c0.91924,-2.14921 2.64759,-3.89563 3.52512,-6.0622c1.15935,-2.86238 1.98184,-5.47656 2.3799,-8.33811c0.30745,-1.24436 0.43186,-2.48728 0.26992,-3.71555c0.00086,-0.08556 0.00138,-0.17145 0.00156,-0.25769l0,-2.5c0,-0.59656 -0.23217,-1.1389 -0.61109,-1.54159c0.55592,-0.29273 1.18915,-0.45841 1.86109,-0.45841c1.44812,0 2.7165,0.76953 3.41854,1.92196c0.55691,0.00995 1.18035,0.15534 1.87031,0.50033c3.57771,1.78885 1.78885,5.36656 1.78885,5.36656c-4.51801,8.96246 -4.51913,18.43969 -5.60472,28.17521c-0.44053,3.95067 -1.1755,6.69262 -2.83894,10.20736c-0.58745,1.24125 -0.46248,2.94812 -1.51388,3.83148c-1.56262,1.31287 -3.02669,2.23002 -4.37338,2.65702c0.71416,1.27246 0.35859,3.33239 0.75321,4.84007v0.5c0,0 0,0.12264 -0.02147,0.32497zM180.81004,296.0498c-0.55025,-0.19127 -1.07383,-0.39714 -1.5137,-0.56244c-0.06201,0.34302 -0.12943,0.66335 -0.20294,0.93212c0.38051,-0.02853 0.80984,-0.03492 1.07453,-0.11248c0.22325,-0.06542 0.43697,-0.15388 0.6421,-0.2572z" fill-opacity="0.1098" fill="#f6d1ff"></path><path d="M171.84198,301.53884c-0.15781,-0.19217 -0.28482,-0.39952 -0.38674,-0.61884c0.59243,-0.09755 1.10688,-0.4265 1.44742,-0.89095l0.45914,-0.61218c0.02079,1.18941 0.05315,2.37663 0.09145,3.56257c-0.59608,-0.38882 -1.13946,-0.86604 -1.61127,-1.4406z" fill-opacity="0.1098" fill="#f6d1ff"></path><path d="M246.46347,286.19878c-2.49878,-3.12348 0.6247,-5.62226 0.6247,-5.62226l1.7863,-1.25979c0.7712,-2.20746 2.73804,-3.84739 3.31949,-6.03575c0.97549,-3.67139 -0.5199,-9.15055 -1.46606,-12.52852c0,0 -1.05247,-3.85906 2.80659,-4.91152c3.85906,-1.05247 4.91152,2.80659 4.91152,2.80659c1.24375,4.66461 2.91041,11.48186 1.53394,16.47148c-0.88668,3.21415 -3.35504,5.92394 -4.68051,8.96425l-3.2137,2.74021c0,0 -3.12348,2.49878 -5.62226,-0.6247z" fill-opacity="0.1098" fill="#f6d1ff"></path><path d="M196.80575,202.0282c-3.3282,2.2188 -5.547,-1.1094 -5.547,-1.1094l-1.57761,-2.46994c-6.01218,-4.73764 -5.90379,-10.92096 -5.0633,-17.745c0,0 0.49614,-3.96911 4.46525,-3.47297c3.96911,0.49614 3.47297,4.46525 3.47297,4.46525c-0.57667,4.53797 -1.31219,8.26813 2.9367,11.255l2.42239,3.53006c0,0 2.2188,3.3282 -1.1094,5.547z" fill-opacity="0.1098" fill="#f6d1ff"></path></g></g></svg>