<svg version="1.1" xmlns="http://www.w3.org/2000/svg" xmlns:xlink="http://www.w3.org/1999/xlink" width="64.53244" height="84.00646" viewBox="0,0,64.53244,84.00646"><g transform="translate(-224.56671,-137.83483)"><g stroke-miterlimit="10"><path d="M240,142.60388h48.09915v74.79224h-48.09915" fill="none" stroke="#834fea" stroke-width="2" stroke-linecap="butt"></path><path d="M240.96721,217.55639c0.22361,0.44721 -0.22361,0.67082 -0.22361,0.67082l-0.46549,0.22713c-3.6495,1.2165 -8.52216,0.6307 -12.35811,-0.38981v0.01547h-0.8c-0.27614,0 -0.5,-0.22386 -0.5,-0.5c0,-0.1996 0.11696,-0.37189 0.28608,-0.45206l0.7115,-0.35575c0.76886,-1.01203 2.20639,-1.68269 3.20253,-2.60507c0.00611,-0.34811 0.25636,-0.7035 0.14633,-1.03357c-0.2591,-0.77729 -1.63438,0.15739 -2.45364,0.14639c-1.44092,-0.01933 -2.53449,-0.42139 -3.65393,-1.31244c-1.4214,-2.79431 2.70343,-3.30442 4.64144,-4.23667c0.49031,-0.23586 1.37055,0.24336 1.61405,-0.2432c0.18394,-0.36755 0.45748,-2.12847 0.29356,-2.88591c-1.8467,-0.6413 -4.33501,-1.88187 -4.38794,-4.02174c0,-2.84002 -0.14701,-7.87049 2.63713,-9.62533c0.86601,-0.54585 1.88614,-0.9004 2.76287,-1.44567v-0.32901c0.15034,-1.61425 -3.71029,-0.85523 -4.70408,-1.34355c-2.45128,-1.20447 -0.55437,-3.93309 0.45053,-5.41001c0.53833,-0.36628 1.22255,-1.23983 1.76221,-1.50839c1.28552,-0.63972 4.12281,0.13902 4.7294,-1.7294c0.47489,-1.46277 -0.4729,-2.31413 -0.81661,-3.46377c-0.27072,-0.9055 -0.02145,-2.41068 -0.02145,-3.34489c0,-3.95185 -4.22554,-2.11683 -5.89735,-4.4965c-0.98601,-1.4035 0.91878,-3.86438 1.55014,-5.1271c0,0 0,0 0.00001,-0.00001l0.41475,-0.82734c1.12681,-1.68353 3.77487,-1.7885 4.57052,-3.34038c0.33589,-0.65514 0.00143,-2.9893 -0.17316,-3.76231c-0.28888,-0.27599 -0.34478,-0.739 -0.62777,-1.02102c-0.05106,-0.05088 -1.39426,0.07467 -1.53713,0.07467c-1.1204,0 -3.83219,0.26231 -4.70771,-0.5059c-0.9765,-0.8568 -0.63682,-5.27956 0.41535,-5.99972c0.41104,-0.28134 1.99134,-0.1064 2.46381,-0.11287c0.59596,-0.23767 1.47456,0.06624 1.87499,-0.43506c1.04994,-1.31442 1.32464,-3.41972 3.11762,-4.28728c1.21103,-0.58598 3.87149,-0.05916 5.23593,-0.05916c0,0 0.5,0 0.5,0.5c0,0.5 -0.5,0.5 -0.5,0.5c-1.10417,0 -3.86075,-0.53805 -4.76407,-0.05916c-1.71269,0.90797 -1.59924,2.95793 -2.88238,4.11272c-0.44793,0.40312 -1.82781,0.4854 -2.38196,0.70772c-2.2608,0.06739 -2.47159,0.02203 -2.47159,2.33873c0,0.66864 -0.56092,1.65414 0.00771,2.0059c1.52294,0.9421 4.7445,-0.64248 6.15516,0.36878c0.4571,0.32768 0.58212,0.97385 0.97223,1.37898c0.2728,1.02921 0.71483,3.64883 0.22684,4.63769c-0.9145,1.85313 -3.46341,1.70181 -4.62948,3.45962l-0.38523,0.77263c0,0.00001 -0.00001,0.00002 -0.00001,0.00002v0c-0.29981,0.59961 -2.23258,3.47517 -1.64986,4.0729c2.02771,2.07993 6.10265,0.65855 6.10265,5.1035c0,0.85834 -0.24352,2.21618 -0.02145,3.05511c0.34731,1.31208 1.34069,2.48932 0.78339,4.13623c-0.82685,2.44351 -3.62683,1.44232 -5.2706,2.2706c-0.46879,0.23622 -0.95667,0.97833 -1.43779,1.29161c-0.37321,0.57316 -0.84099,0.96528 -1.08461,1.61992c-1.55563,4.18018 5.45338,0.73226 5.63106,4.42653v0.50919c0.03072,0.13219 -0.00513,0.24372 -0.05641,0.32822c-0.04248,0.09087 -0.11695,0.18396 -0.24751,0.2311c-0.93289,0.59522 -1.979,1.02137 -2.93322,1.55682c-1.32336,0.74259 -0.97688,2.21313 -1.38852,3.33279c-0.69899,1.90122 -0.77434,3.30316 -0.77434,5.44189c-0.05098,1.31096 1.63404,2.25791 2.97799,2.80306c0.20136,-0.17033 0.48012,-0.0774 0.48012,-0.0774c0.17587,0.07927 0.32942,0.21547 0.46045,0.39359l0.18144,-0.01925c0,0 0.5,0 0.5,0.5c0,0.26378 -0.13916,0.3884 -0.27064,0.44727c0.30225,1.15943 0.16683,2.72868 -0.42374,3.44508c-0.70343,0.85331 -7.62038,1.68997 -6.31551,3.23512c2.18628,1.71575 6.20989,-0.3733 6.20989,2.87253v0.09356c0.02645,0.11379 -0.00005,0.21781 -0.03744,0.29804c-0.03073,0.08437 -0.08669,0.17813 -0.18859,0.23987c-0.88022,0.8442 -2.11771,1.47346 -2.96207,2.30848c0.90003,0.04873 2.01192,0.63951 2.76819,0.76651c2.36465,0.39709 6.28608,0.37777 8.56179,-0.3808l0.33451,-0.17287c0,0 0.44721,-0.22361 0.67082,0.22361z" fill-opacity="0.33333" fill="#cbadff" stroke="none" stroke-width="0.5" stroke-linecap="butt"></path><path d="M232.92,191.48c0.5,0 0.5,0.5 0.5,0.5v0.2c0,0.46187 -0.00854,0.92179 -0.02312,1.38036c0.02547,0.01859 0.05107,0.04048 0.07667,0.06608c0.35355,0.35355 0,0.70711 0,0.70711c-0.03825,0.03813 -0.0755,0.07596 -0.1118,0.1135c-0.11097,2.37637 -0.34175,4.72639 -0.34175,7.13294c0,0.17365 -0.06031,0.28699 -0.13903,0.36097c-0.07398,0.07873 -0.18732,0.13903 -0.36097,0.13903c-0.02265,0 -0.04426,-0.00103 -0.0649,-0.00298l-0.49321,-0.02267c-2.2855,-1.03011 -0.94899,-5.97585 0.41493,-7.94874c0.02653,-0.63918 0.04319,-1.28051 0.04319,-1.9256v-0.2c0,0 0,-0.5 0.5,-0.5zM232.02,199.38c0,0.44836 -0.19981,1.25271 0.00489,1.58086c0.02538,-1.64227 0.14488,-3.26112 0.24588,-4.88319c-0.33986,0.92808 -0.25077,1.8875 -0.25077,3.30234z" fill-opacity="0.33333" fill="#cbadff" stroke="none" stroke-width="0.5" stroke-linecap="butt"></path><g fill="none" stroke="#834fea" stroke-width="2" stroke-linecap="round"><path d="M236.78551,138.83483l3.44517,3.44517"></path><path d="M240,217.39613l-3.44517,3.44516"></path></g></g></g></svg>