<svg version="1.1" xmlns="http://www.w3.org/2000/svg" xmlns:xlink="http://www.w3.org/1999/xlink" width="296.37074" height="282.85708" viewBox="0,0,296.37074,282.85708"><g transform="translate(-159.66261,-11.12986)"><g stroke="none" stroke-width="0.5" stroke-miterlimit="10"><path d="M217.22513,292.67298c-0.0426,-0.04469 -0.08454,-0.0892 -0.12584,-0.13354c-0.84168,-0.21224 -1.69728,-0.39514 -2.59037,-0.49288c-8.18074,0.00878 -16.3615,0.00344 -24.54224,0.00344h-2.33333c-1.24264,0 -2.25,-1.00736 -2.25,-2.25c0,-1.11477 0.8107,-2.04018 1.87469,-2.21884l4.38358,-0.82192l0.08134,0.43381c3.37111,-1.24892 6.77843,-2.14874 10.22911,-2.85583c-4.69872,-0.07858 -9.3886,0.23025 -14.07872,-0.28722h-2.24c-1.24264,0 -2.25,-1.00736 -2.25,-2.25c0,-1.09594 0.78356,-2.00888 1.82102,-2.20915l4.35765,-0.93378c0.20155,-0.0821 0.4049,-0.16093 0.60995,-0.23662c-2.02065,-0.5968 -4.03179,-1.3772 -6.08722,-2.41756l-2.67289,-0.29699c-1.13868,-0.11126 -2.02851,-1.07133 -2.02851,-2.23924c0,-0.99098 0.64065,-1.83233 1.53038,-2.13246l3.61737,-1.31541l0.00742,0.02042c0.03434,-0.01929 0.06878,-0.03845 0.1033,-0.05746c5.42015,-2.9846 13.56569,-1.49665 19.46136,-2.0898c3.26213,-0.32819 6.5239,-0.69291 9.78632,-1.06419c-0.03989,-0.05232 -0.07987,-0.10478 -0.11992,-0.15731c-8.71338,-1.49638 -17.54245,-2.60568 -26.02971,-4.9538h-2.43986c-1.24264,0 -2.25,-1.00736 -2.25,-2.25c0,-0.79338 0.41063,-1.49085 1.03096,-1.89147l1.97096,-1.31398l0.02856,0.04284c0.08475,-0.07147 0.1719,-0.14045 0.2617,-0.20668c0.60227,-0.44416 1.655,-0.75916 2.80123,-0.98704c-0.06078,-0.20393 -0.09342,-0.41999 -0.09342,-0.64368c0,-0.62132 0.25184,-1.18382 0.65901,-1.59099l2,-2l0.02543,0.02543c0.09979,-0.10532 0.2041,-0.20681 0.31358,-0.30393c1.20498,-1.06907 2.94346,-1.31286 4.44456,-1.8973c4.38366,-1.70674 8.74875,-2.09208 13.22595,-3.33439c6.58513,-1.82721 13.0559,-1.48214 19.91481,-1.48214c3.36746,0 7.50581,-0.64639 10.78573,0.04595c3.50101,0.73901 7.08508,2.43451 10.62741,3.32564c1.56379,0.21652 3.12699,0.65846 4.55317,1.34871c0.29811,-0.01435 0.59608,-0.03067 0.89388,-0.04928c4.446,-0.27793 8.65736,-1.00435 13.13981,-1.00435l2.33333,0c0,0 0,0 0,0c1.24264,0 2.25,1.00736 2.25,2.25c0,0.16828 -0.01847,0.33225 -0.0535,0.48998c1.82044,-0.04382 3.64258,-0.07331 5.47017,-0.07331h0.66667c0,0 2.25,0 2.25,2.25c0,2.25 -2.25,2.25 -2.25,2.25h-0.66667c-2.91251,0 -5.81473,0.07481 -8.71112,0.15138c-0.22781,0.133 -0.45231,0.27223 -0.67485,0.41508c0.58574,0.40621 0.96931,1.08341 0.96931,1.8502c0,0.96579 -0.6085,1.78947 -1.46303,2.10854l-3.28467,1.31387l-0.00692,-0.0173c-0.02887,0.0176 -0.05784,0.03508 -0.08689,0.05243c-0.04263,0.02546 -2.35913,0.71299 -4.24732,1.27425c1.29208,0.44053 2.59526,0.95257 2.70451,2.12523c0.05018,0.53869 -0.10043,1.02196 -0.37001,1.47241c1.3423,0.3173 2.60016,0.69797 3.50844,0.92965l4.3277,0.84652c0.51596,0.09055 0.97139,0.35688 1.30226,0.73498c0.93393,0.27378 1.61594,1.13695 1.61594,2.15942c0,0.92858 -0.56251,1.72577 -1.36536,2.06942l-0.35659,0.16209c3.00396,0.37782 5.98173,0.85213 9.04946,0.9272l0.43438,0.40382l0.10443,-0.18275l2.29541,1.31166c0.69815,0.38197 1.17161,1.1233 1.17161,1.97522c0,1.002 -0.65498,1.85102 -1.56016,2.14228l-4.2009,1.46118c-1.05077,0.50065 -2.19113,0.91664 -3.62445,1.24961c-0.14141,0.03285 -0.28306,0.06513 -0.42494,0.09685c3.21479,0.22057 6.41799,0.54223 9.62717,1.49735l2.82145,0.31349c1.13868,0.11126 2.02851,1.07133 2.02851,2.23924c0,0.81851 -0.43706,1.53494 -1.09053,1.92864l-2.63363,1.64602l-0.05394,-0.0863c-0.16651,0.12171 -0.3389,0.23587 -0.51827,0.34111c-1.33634,0.78407 -6.63474,0.08719 -8.28695,0.08719c-0.38656,0 -0.77313,0 -1.15969,0c-0.21056,0.78659 -0.83674,1.40325 -1.62879,1.60025l-3.61951,0.98714l-0.01568,-0.05748c-0.09185,0.04035 -0.18439,0.07934 -0.27769,0.11685c-2.34297,0.94214 -5.05477,0.07892 -7.5696,0.30855c-4.14208,0.37822 -8.23207,0.37802 -12.39572,0.37802c-3.82322,0 -7.72628,-0.22703 -11.54224,-0.00344c-6.04129,0.35397 -12.36693,1.46213 -18.4365,0.64836c-0.72954,-0.09781 -1.43717,-0.25006 -2.13651,-0.42448c-1.00505,0.06415 -1.99112,0.06894 -2.6263,-0.59746z" fill-opacity="0.63922" fill="#e6c1e4"></path><path d="M227.04704,241.4978c1.61171,0.92084 0.95177,3.59915 1.19015,5.44c0.54229,4.18784 0.56735,10.38826 -0.0125,14.53181c-0.4472,3.19557 -1.21481,10.60895 -7.86949,7.72748c-0.09654,-0.04181 -0.18932,-0.08869 -0.27847,-0.14036c-0.16104,0.09369 -0.33938,0.18075 -0.53668,0.25966c-2.3862,0.95449 -3.58339,-0.86544 -3.9207,-1.50986c-0.91373,-0.06606 -1.72416,-0.27306 -2.30809,-0.65541c-2.82393,-1.84916 -2.77164,-6.5869 -2.49788,-9.29791c0.24132,-2.38974 1.59257,-4.53256 2.44033,-6.77987c1.17506,-3.11491 1.80167,-6.55383 2.98966,-9.72336c0,0 1.03691,-2.76512 3.78605,-1.88004c0.56384,-0.76042 1.46808,-1.25328 2.48743,-1.25328c1.53187,0 2.80378,1.11305 3.05109,2.57455c0.46126,0.17309 0.95332,0.4062 1.47908,0.70659z" fill="#e5c1e4"></path><path d="M240.51471,231.25693c2.20067,0.08129 2.57397,1.85975 2.63536,2.56512c0.51506,-0.47538 1.21085,-0.75518 1.96662,-0.72727c1.51775,0.05607 2.70268,1.33189 2.64661,2.84964c-0.00387,0.10488 -0.01358,0.20818 -0.02877,0.30959l-0.45112,3.28212l-0.07552,-0.01039c0.00351,0.11957 0.00501,0.23931 0.00431,0.35921c-0.0024,0.41527 -0.15118,0.79862 -0.34448,1.17364c0.46914,0.5775 0.84476,1.19869 1.09614,1.8456c2.09896,5.4015 -2.50388,11.33735 -7.69777,14.33869c0.47554,2.06163 1.17019,3.99512 1.43548,6.38947c0.2166,1.95487 0.2592,4.25829 0.2069,6.53133c0.53164,4.92624 2.19375,9.74664 2.85797,14.60935c0.65555,0.32366 1.24319,0.68932 1.70169,1.06627c1.37348,1.12919 3.84516,2.12842 3.64441,3.89513c-0.22293,1.962 -2.74208,2.97156 -4.52184,3.82689c-1.0136,0.48713 -2.24933,-0.00635 -3.37361,-0.03243c-0.00681,-0.00016 -0.01361,-0.00032 -0.0204,-0.00048c-0.39772,0.19783 -0.84917,0.30192 -1.32432,0.28437c-0.48656,-0.01798 -0.9389,-0.1613 -1.32713,-0.39777c-1.29886,-0.08809 -2.46453,-0.22683 -3.64515,-0.44514l-0.01201,0.32523l-2.99795,-0.11075c-0.78437,-0.02898 -1.47986,-0.38373 -1.96109,-0.9293c-4.64519,-1.88721 -3.35742,-3.77213 -3.14366,-7.5003c0.13787,-2.40447 0.62723,-5.12873 0.82577,-7.81868c-0.21282,-2.05841 -0.34227,-4.1127 -0.40445,-6.18657c-0.34931,-1.25134 -0.91495,-2.4174 -1.78676,-3.44862c-1.61394,-2.06514 -2.63859,-3.8131 -3.2646,-5.89033c-1.50422,-1.56862 -1.00767,-4.07956 -0.56304,-6.81731c0.28172,-1.73469 0.27102,-3.75982 1.44042,-5.0717c0.14322,-0.16067 0.29622,-0.30872 0.4575,-0.44607l-0.08728,-0.07837l1.72532,-1.92149c0.05412,-0.06113 0.11089,-0.11981 0.17014,-0.17586c0.48445,-3.35771 1.43791,-6.69586 1.91393,-9.08916c0.22865,-1.14958 0.29498,-2.32556 0.44246,-3.48835c0,0 0.3499,-2.72765 3.07755,-2.37775c1.69627,0.21761 2.20235,1.35476 2.34253,2.18361c1.07009,-1.061 2.68681,-0.59276 2.68681,-0.59276c0.37297,0.25405 0.67959,0.86532 1.11892,0.76215c0.39478,-0.0927 0.29966,-0.75363 0.4495,-1.13046l-0.66503,0.73646c0,0 0.10152,-2.74813 2.84964,-2.64661zM235.23166,238.81829c0,0 -0.09616,-0.02785 -0.24647,-0.09127l-0.02071,0.56061c0.15733,-0.14282 0.3142,-0.28654 0.47268,-0.42714c-0.06856,-0.01545 -0.13706,-0.0296 -0.2055,-0.04221z" fill="#e5c1e4"></path><path d="M384.7697,25.35909c2.55383,0.55878 8.44047,5.52359 11.19625,7.1747c2.16001,1.29415 4.80713,1.91079 7.02707,3.1802c2.75324,1.57436 6.15736,4.62568 8.36236,6.84784c2.23184,2.24922 5.67824,3.30138 8.14464,5.33817c2.91459,2.40692 5.97695,7.21974 9.19745,9.45261c1.12612,0.78077 2.97567,1.14825 3.98136,1.98976c3.5215,2.94656 5.17033,6.70266 7.6122,10.27048c3.33315,4.87008 8.37609,7.72028 10.33647,13.57709c0.14411,0.43055 0.41061,0.84197 0.67722,1.25041c1.36411,0.76261 3.22026,1.80158 3.37605,2.58054l1.35258,3.61245c-3.76871,4.65972 -2.79899,6.20236 -7.36105,5.17716c-3.26234,-0.73312 -5.79001,-3.41524 -8.18943,-6.16159c-1.85303,-0.53708 -3.36023,-2.43324 -4.20256,-4.51013c-0.05233,-0.04634 -0.10475,-0.09221 -0.15729,-0.13759c-1.93744,-1.67353 -5.84939,-2.50166 -8.22301,-3.96786c-0.39427,-0.24354 -0.79894,-0.49546 -1.21122,-0.75458c0.34462,0.97212 0.65845,2.0577 0.67789,3.02124c0.1793,8.8899 2.40533,20.22415 1.26938,28.83631c-1.42661,10.81573 -6.05334,20.48014 -10.55566,30.21565c-0.36239,1.23763 -0.78107,2.45943 -1.278,3.65914c-0.64533,1.55797 -1.37012,2.9884 -2.15909,4.34504c-1.57431,4.69053 -3.43257,11.80178 -6.76984,14.36724c-0.25907,0.19916 -0.56993,0.37207 -0.91791,0.5159c-0.73082,0.35907 -1.55296,0.56071 -2.4222,0.56071c-0.14583,0 -0.29034,-0.00568 -0.43331,-0.01682c-1.60617,2.87961 -3.14253,5.84754 -5.05745,8.4295c-6.56358,8.84996 -13.15922,16.10846 -21.33859,23.02816c-3.01732,2.55264 -5.12491,6.87477 -8.48364,9.14037c-0.97545,0.88179 -2.26853,1.41878 -3.68702,1.41878c-3.03757,0 -5.5,-2.46243 -5.5,-5.5c0,-0.081 0.00175,-0.16159 0.00522,-0.24174c-0.01319,-0.03891 -0.02635,-0.07806 -0.03949,-0.11747c-0.3185,-0.95551 0.69274,-1.932 0.70093,-2.93917c0.02165,-2.6615 0.50069,-5.42364 0.34796,-8.07218c-0.75589,-1.4085 -0.84916,-3.52582 -1.37064,-4.70978c-1.00001,-2.27036 -2.16845,-4.46382 -3.32839,-6.65678c-3.49291,-6.60361 -6.23439,-13.71043 -9.60717,-20.46471c-0.32398,-0.34934 -0.46851,-0.70049 -0.53452,-1.05665c-1.62514,-3.16998 -3.40708,-6.25143 -5.49129,-9.1543c-1.13538,-1.58136 -2.32081,-3.13022 -3.54786,-4.6503c-2.39021,-1.62664 -5.11089,-2.91682 -7.04268,-4.9917c-1.92446,-2.06701 -3.20915,-5.07045 -5.51672,-6.75836c-3.23328,-2.36504 -6.3061,-4.21561 -9.29778,-6.96445c-1.65321,-1.51902 -2.49437,-4.0464 -4.15374,-5.38833c-2.46699,-1.99504 -6.18822,-2.90061 -8.76932,-4.54313c-2.72145,-1.73183 -4.95433,-4.85321 -8.36059,-5.71218c-3.68145,-0.92837 -7.14022,-1.45347 -10.93628,-0.26252c-1.32893,0.41693 -4.78675,2.51811 -6.03987,1.3969l-4.35112,-5.37982c0.8921,-2.38259 2.45001,-4.14426 4.4155,-5.3931c2.68418,-1.70548 6.1285,-2.45453 9.67529,-2.52246c-0.90837,-0.70191 -1.64573,-1.18283 -2.04432,-1.2511c-1.14848,-0.19672 -7.93087,2.69894 -9.13249,-1.70699c-0.32202,-1.18074 -0.39697,-2.19769 -0.28298,-3.09394c-1.79792,0.44603 -3.59696,0.88007 -5.39398,1.30952c-11.09349,2.65111 -22.10398,6.95744 -33.73702,6.49142c-2.83866,-0.11372 -5.92988,-1.87613 -8.55919,-2.66667c-2.07225,-0.62305 -4.08089,-0.44697 -6.15012,-1.39338c-0.15209,-0.06956 -0.25219,-0.30214 -0.41767,-0.27798c-1.24815,0.18216 -2.29131,1.15734 -3.53968,1.33803c-5.317,0.76957 -8.27655,-2.78849 -9.72653,-7.42136c-0.47445,-1.51594 -1.11292,-3.07866 -1.33333,-4.66667c-1.72315,-12.41485 3.91053,-23.00125 10.05802,-33.24707c1.32838,-2.21397 3.49304,-2.78016 5.18789,-4.51278c3.39502,-3.47067 7.03922,-8.61893 11.39728,-10.79796c3.02396,-1.51198 6.96216,-1.81881 9.98406,-3.62038c4.58779,-2.73512 8.17639,-6.40888 13.15669,-8.57413c4.73519,-2.05869 7.91902,-2.51996 12.20338,-2.67801c5.97232,-2.04942 10.19687,-3.87405 16.52792,-4.14831c3.08213,-0.13352 5.28335,-2.08825 8.13264,-2.89319c4.22311,-1.19306 9.81613,-2.71255 14.07864,-2.77347c7.50594,-0.10728 11.87454,2.3138 18.33333,2.66667c1.45831,0.07967 2.96448,-0.38389 4.38136,-0.02967c3.68034,0.92008 7.71578,2.4899 11.49658,2.69633c7.37615,0.40274 14.33935,1.56832 21.31296,3.59904c1.40538,0.40925 3.9172,0.96864 5.81083,1.97237c5.51561,0.52209 13.1288,2.64146 16.23463,3.32102z" fill-opacity="0.17255" fill="#ad4eac"></path><path d="M417.38548,61.38041c-5.55931,-1.51603 -11.16245,-3.24201 -16.67613,-4.6067c-2.63621,-0.65249 -10.32432,-3.85617 -15.72554,-3.61444c-0.11378,-0.01026 -0.22855,-0.01702 -0.34422,-0.02025c-0.053,-0.00051 -0.1051,-0.00117 -0.15613,-0.00216c-10.22028,-0.19917 -20.44418,-0.03339 -30.66633,0.00324c-21.35386,0.07652 -29.46924,3.5373 -47.48456,10.16867c-5.18359,1.90806 -9.142,2.80085 -13.67773,6.11844c-3.51933,2.57416 -10.43222,4.85875 -12.69328,8.52682c-0.12534,0.20334 -0.46108,0.65657 -0.7457,1.1375c-11.71418,3.60322 -23.53379,6.92492 -35.6023,9.1201c-6.03651,1.098 -9.41925,-1.45432 -15.12805,-2.39704c-0.6485,-0.10709 -4.0149,-0.25728 -4.02879,-1.27565c-0.08171,-5.9896 1.12196,-13.42424 3.40479,-18.73608c2.99122,-6.96018 7.89166,-11.95612 13.33669,-17.04125c2.56878,-2.39899 6.51731,-3.02417 9.41241,-4.88519c19.19289,-12.33756 34.20614,-17.07821 57.57033,-17.12264c5.99457,-0.0114 13.4514,0.04506 19.39848,1.66414c3.70125,1.00766 9.98843,3.74215 13.98487,3.00947c2.6153,-0.47947 4.30173,-1.81032 4.94509,-3.52038c2.6778,0.17236 5.35816,0.40333 7.9221,1.07406c2.04658,0.53539 6.05871,2.33199 8.87734,3.24829c0.85579,0.67932 3.52687,0.53059 4.58071,0.73079c2.38232,0.45258 10.13324,1.47624 12.19449,2.65819c3.36434,1.92916 7.02168,4.53115 10.70514,6.59022c2.08151,1.16357 4.51864,1.60959 6.53555,2.9369c2.90759,1.91345 5.31489,4.67837 8.13217,6.73716c2.20174,1.60897 5.18791,2.66931 7.18042,4.58222c1.70648,1.6383 3.23424,3.28136 4.74818,4.91557z" fill="none"></path><path d="M257.19516,33.61863l-0.42195,-0.21098l0.65456,-1.30911c0.096,-0.20251 0.24483,-0.37511 0.42869,-0.49999c0.22485,-0.33106 0.60442,-0.54855 1.03478,-0.54855c0.00801,0 0.016,0.00008 0.02397,0.00023l0.09034,-0.36136c0.12632,-0.55665 0.62414,-0.9722 1.21902,-0.9722c0.69036,0 1.25,0.55964 1.25,1.25v1.33333c0,0.74069 0.09888,1.72592 0.19008,2.77048c0.07348,-0.01346 0.14921,-0.02048 0.22658,-0.02048c0.58089,0 1.06923,0.39623 1.2095,0.93317l0.4305,1.50673c1.4619,1.82578 3.06102,4.12904 2.49565,5.33242c-0.90598,1.92836 -3.79359,2.13871 -4.75831,0.50614c-0.20178,0.13969 -0.44667,0.22154 -0.71066,0.22154c-0.61212,0 -1.12147,-0.43998 -1.22906,-1.02094c-0.39935,-0.07396 -0.73208,-0.33775 -0.90109,-0.69426l-0.5911,-1.18219c-1.15505,-1.29458 -1.52338,-2.85952 -1.37015,-4.41604c-0.19245,-0.33079 -0.37066,-0.90895 0.20751,-1.48711c0.04294,-0.04294 0.08588,-0.08171 0.12872,-0.11661c0.10968,-0.34458 0.24152,-0.68374 0.39241,-1.01421z" fill-opacity="0.97647" fill="#ad4eac"></path><path d="M215.00541,110.12417c2.4824,-0.72885 5.15389,-0.75143 7.63515,-1.4805c7.98454,-2.3461 15.85708,-5.24432 24.00574,-6.76841c1.48625,0.05125 2.96632,0.46259 4.45296,0.55139c1.67827,0.10024 3.32711,-0.96031 5.00504,-0.90006c0.7152,0.02567 2.6297,0.71001 3.4258,0.82516c3.96367,0.57333 6.90071,-0.16115 9.53984,4.17905l-0.03296,-0.17809c0,0 0.26788,0.21079 0.46609,0.57187c1.01297,0.08738 1.2515,1.33081 1.2515,1.33081c0.86521,4.51009 2.20502,8.82188 3.74838,13.10276c1.11292,3.08691 3.15412,5.86692 4.22086,8.93943c0.69332,1.99695 0.57078,4.10309 1.44771,6.06494c1.10753,2.47775 2.67385,4.01603 3.79275,6.5987c1.1642,3.5929 3.17439,5.81165 4.5675,9.17304c1.05837,2.55373 1.63367,4.71576 3.53995,6.66306l0.86187,0.99151c0,0 0.06164,0.07116 0.13972,0.19474c0.07981,0.12217 0.12048,0.21027 0.12048,0.21027c3.00706,6.55653 8.92437,10.14341 13.15117,15.48432c0.85934,1.08585 1.24389,2.5597 2.02932,3.71479c2.13763,3.14372 4.49727,5.58357 7.5725,7.35751l0.71836,0.35907c0.22954,0.07351 0.42259,0.21396 0.56436,0.34458c0.14232,0.12255 0.30508,0.29763 0.42456,0.52819c1.44496,2.064 2.82894,3.30299 3.36768,5.955c0.06448,0.31743 0.12166,0.67409 0.17057,1.0608c0.0417,0.10497 0.07439,0.21609 0.09668,0.33225l0.33406,1.74132c0.92833,5.08522 0.95788,15.06062 -3.57439,17.77805c-0.17769,0.10653 -3.15238,0.66727 -3.83824,0.79589c-0.57326,0.2337 -1.17146,0.43009 -1.78004,0.60059c-1.82491,1.54346 -3.87847,2.65079 -6.71988,3.19588l-1.51062,0.28979c-0.22025,0.04226 -0.43988,0.02179 -0.64444,-0.05009c-2.18761,0.14851 -4.84774,-0.24359 -6.86824,-0.84118l-0.06297,0.1503c-0.50985,5.52883 -1.04948,9.59388 -5.04265,13.07139c-1.83055,1.84955 -4.92573,4.81712 -7.30278,5.56543c-5.54672,1.74611 -10.85552,-0.15892 -16.492,-0.47313c-1.75721,-0.09795 -3.50988,0.65077 -5.26554,0.1805c-0.8641,-0.23146 -1.74205,-0.52786 -2.61778,-0.62526c-1.15924,1.52228 -0.77577,2.32436 -1.57402,4.1639c-1.50664,3.47201 -4.93022,6.4302 -8.0299,7.60929c-6.41848,1.24765 -16.23505,5.01835 -22.38517,0.18407c-1.68949,-1.328 -1.29905,-1.92749 -2.44015,-3.46791c-0.92098,-1.24328 -1.75244,-2.08067 -2.46158,-3.23326c-1.64128,2.26485 -2.90735,5.05646 -5.05766,6.7988c-3.64386,2.95251 -7.45268,4.1166 -11.85798,4.95243c-1.25834,0.23876 -4.17499,0.92607 -5.44394,0.5596c-1.17414,-0.33909 -2.09032,-1.46515 -3.18195,-2.09187c-3.33489,-1.70138 -6.85328,-4.85583 -8.51105,-8.75507c-1.70866,-4.01896 -1.93363,-9.92942 -2.76062,-14.24031c-0.00262,-0.01365 -0.00523,-0.0273 -0.00786,-0.04097c-1.66976,0.54672 -3.32516,0.4854 -5.82377,0.1969c-1.58648,-0.18317 -2.45401,0.37907 -4.03534,-0.58419c-2.62959,-1.60179 -4.06146,-7.65285 -4.18104,-10.8232c-0.11409,-3.02474 0.89412,-5.71802 2.1053,-8.32278c0.28996,-2.27663 0.38327,-4.63675 1.20563,-6.75812c1.14733,-2.95967 2.01135,-5.58871 2.93745,-8.70018c0.81418,-3.53095 3.21749,-5.77716 4.32825,-8.94226c0.49861,-1.42077 0.24237,-3.10193 0.57343,-4.5937c0.32102,-1.44654 0.72123,-2.92995 1.06484,-4.42784c-0.16044,-0.20858 -0.27838,-0.46399 -0.33326,-0.75007c-0.01879,-0.09795 -0.02938,-0.19529 -0.03231,-0.29112l-0.09736,-2.11761l0.03427,0.00001c-0.01189,-0.07828 -0.02184,-0.15701 -0.02967,-0.23624c-0.24445,-2.47561 0.81798,-4.63919 1.84055,-6.71926c0.09814,-0.39142 0.21359,-0.75457 0.35065,-1.07585c0.08516,-0.19963 0.21324,-0.36115 0.36059,-0.50593c0.23499,-0.6582 0.48618,-1.30732 0.75395,-1.94064c1.92251,-6.58373 3.92987,-13.21465 6.1461,-19.75878c0.10809,-1.5901 0.16594,-3.18046 0.61286,-4.7602c0.17613,-0.62258 0.481,-1.24856 0.81588,-1.87785c0.02486,-0.13433 0.04956,-0.2687 0.0741,-0.40312c0.76487,-4.19145 0.53017,-7.98273 2.01172,-12.14666c0.44076,-1.23876 0.99003,-2.51039 1.59486,-3.77327c0.17675,-1.15568 0.27881,-2.32146 0.25181,-3.49726c0,0 -0.02818,-1.5879 1.36393,-1.5363c0.38089,0.01412 0.65968,0.14324 0.86371,0.32339c0.295,-0.52384 0.58758,-1.03533 0.87303,-1.53074c0,0 1.37272,-2.36975 3.52494,-0.67622c0.29994,0.23601 0.5314,0.48515 0.70768,0.73918c2.93383,-1.35699 5.94217,-2.65106 8.95103,-3.53448z" fill="#316a70"></path><path d="M234.89224,169.3723c-0.54464,-0.47734 -1.02934,-0.98723 -1.45911,-1.5245c-0.02344,0.05003 -0.04714,0.09949 -0.07111,0.14836c-1.05148,2.14354 -3.04457,4.10602 -3.95931,6.24943c-1.59432,3.73578 -2.83529,6.05999 -6.59609,8.00457c-3.42035,2.53529 -9.93746,3.8757 -14.05219,2.08587c-1.64862,-0.71712 -2.88997,-1.94085 -4.00565,-3.30164c-0.98479,-0.26815 -1.96957,-0.53629 -2.95436,-0.80444c-4.20107,-1.78844 -8.76818,-3.80445 -12.59961,-6.29512c-2.8886,-1.87777 -5.00542,-4.95575 -7.03283,-7.65778c-1.97551,-2.63286 -4.78011,-5.19988 -6.01783,-8.29546c-0.61015,-1.52601 -1.10172,-3.09329 -1.4821,-4.68696l-0.93823,-1.50117c-0.27866,-0.43005 -0.44048,-0.94285 -0.44048,-1.49345c0,-0.63713 0.21667,-1.22365 0.58035,-1.68991c-0.19307,-1.82792 -0.25548,-3.67096 -0.19764,-5.50818c-0.63221,-3.16391 -0.15127,-6.87147 -0.09258,-9.8132c1.08312,-2.25324 2.42793,-4.56285 3.38845,-6.84802c0.25498,-0.60662 0.06004,-1.39552 0.45674,-1.92052c0.74019,-0.97956 2.64588,-2.25649 3.99742,-3.15567c0.22757,-0.24215 0.47844,-0.40891 0.75906,-0.46412l-0.00182,-0.00486l2.6343,-0.98786c0.17277,-0.06943 0.36145,-0.10764 0.55905,-0.10764c0.27895,0 0.54012,0.07615 0.76385,0.20878c1.27824,-1.45772 2.70031,-2.78198 4.40643,-3.95841c3.17448,-2.18892 7.16506,-3.22007 10.33732,-5.33597c1.72175,-1.14841 3.20867,-2.90184 5.01731,-4.01124c4.50705,-2.76459 10.03101,-4.17441 14.91801,-6.12921c0,0 0.52531,-0.21012 1.05974,-0.04965c0.51831,-0.15177 1.02403,0.03788 1.02403,0.03788c4.75209,1.78203 9.87735,3.3479 14.35559,5.85572c-0.17224,1.22429 -0.3326,2.45044 -0.47978,3.67716c1.52755,-1.03965 3.09616,-2.01871 4.77023,-2.84811c5.8785,-2.91243 12.52393,-4.48345 18.73884,-6.38643c4.443,-1.36043 8.62542,-2.66965 13.2475,-0.81278c3.49694,3.4299 7.76433,5.97828 10.72446,10.04186c2.10291,2.88682 3.64596,6.07972 5.32207,9.24034c1.00054,1.88671 3.02996,3.43607 3.84012,5.37996c0.46499,1.1157 0.67811,2.39704 1.45892,3.31972l0.2684,1.85392c0.01071,0.03344 0.01551,0.05265 0.01551,0.05265c0.92864,3.7352 3.10812,5.98679 4.58322,9.42364c1.18388,2.75833 1.62975,5.68084 2.41131,8.55516c0.82928,3.0498 1.63495,7.87733 -0.16136,10.81981c-1.47374,2.4141 -3.83692,4.89845 -5.83737,6.89891c-3.10573,3.88216 -8.85684,7.42687 -13.83403,8.47255c-1.07514,0.22588 -2.28144,0.01176 -3.25417,0.5224c-3.62781,1.90445 -6.26256,5.33367 -10.17574,6.74483c-0.60492,0.21814 -1.20373,0.40305 -1.79873,0.55977c-0.34775,0.86674 -1.38836,0.86674 -1.38836,0.86674h-0.33333c-4.99991,0 -10.00013,0.01738 -15,0c-2.1183,-0.00736 -3.6482,0.28555 -5.54373,-0.9498c-1.45693,-0.94951 -2.57677,-3.6122 -3.61628,-4.93255c-1.2584,-1.59837 -3.31092,-2.62615 -4.84829,-3.94683c-0.05606,-0.82755 -0.10745,-1.68518 -0.13991,-2.55884c-0.52302,-0.37257 -0.97478,-0.73167 -1.32623,-1.03968zM243.31431,145.75932c0.89944,-0.37703 1.83541,-0.72854 2.70361,-1.1819c-4.05571,-3.61355 -8.67288,-7.24703 -11.42054,-11.9028c-1.26572,-0.77491 -2.52588,-1.55911 -3.78511,-2.34465c-2.2327,2.45719 -4.06175,5.60905 -6.84324,7.43644l-0.10715,0.94629c-0.00183,0.06708 -0.00678,0.10667 -0.00678,0.10667c-0.1556,1.23361 -0.35543,2.61662 -0.39724,4.00006c0.07883,-0.01279 0.15971,-0.01944 0.24215,-0.01944c0.45913,0 0.87008,0.20628 1.14523,0.53122l1.36728,1.59516c2.41591,1.35047 4.99686,2.86811 6.37102,4.82989c0.26185,0.37383 0.50085,0.791 0.71737,1.244c3.18708,-1.99319 6.57411,-3.79924 10.01339,-5.24094zM236.16559,155.32422c-0.17179,0.05737 -0.34209,0.11333 -0.51076,0.16787c0.08272,0.8809 0.14283,1.75003 0.22622,2.60849c0.02406,-0.23845 0.04999,-0.4649 0.07698,-0.67694c0.08764,-0.68851 0.13693,-1.39634 0.20756,-2.09942zM241.99192,159.55009c0.04724,-0.15046 0.09516,-0.29943 0.14334,-0.4483c-0.10862,0.12599 -0.22143,0.2492 -0.33569,0.37136z" fill="#30152f"></path><path d="M394.84885,126.38117c-0.18561,-0.87679 -0.37122,-1.75357 -0.55683,-2.63036c-1.06888,-1.94376 -2.57375,-3.61689 -3.75026,-5.49747c-1.41094,-2.25529 -2.05657,-4.60715 -4.17978,-6.42323c-2.37727,-2.03339 -5.41471,-3.26649 -7.8827,-5.23372c-0.40825,-0.32542 -4.31865,-3.76034 -4.78356,-3.99021c-5.45719,-2.69831 -12.64385,-2.12204 -18.33945,-4.20421c-2.12003,-0.77503 -4.36355,-2.65585 -6.63306,-3.32274c-2.71924,-0.79904 -5.86936,-1.54049 -8.69406,-1.88327c-5.49052,0.00576 -10.49916,1.37933 -15.86238,1.98889c-4.03975,0.45914 -7.77748,0.84417 -11.7657,1.63067c-0.98523,0.19429 -2.05589,-0.08897 -3.00254,0.24611c-2.71246,0.96012 -5.40195,2.82351 -8.11419,3.91685c-2.12534,0.85675 -4.48989,0.9241 -6.71659,1.46527c-1.26082,0.30642 -2.52211,0.91389 -3.72406,1.61555c-0.26826,3.50382 -1.06429,6.53564 -2.61469,9.23097c0.05435,0.29334 0.05435,0.49435 0.05435,0.49435l-0.96032,2.42129c-2.35713,1.99061 -3.05893,4.41703 -5.14049,6.48452c-2.58011,2.56267 -6.33787,3.54515 -9.52672,4.93802c-6.92093,3.02301 -13.7824,8.56577 -21.45313,9.55224c-4.65751,0.59896 -9.79011,0.02267 -14.48808,0.0164c-4.47515,-0.5329 -7.60338,-2.21904 -10.2186,-4.68723c-0.48547,-0.06541 -0.93078,-0.2575 -1.30155,-0.5419l-2.64444,-1.98333l0.02338,-0.03117l-0.10505,-0.03252c-2.4745,-2.16469 -4.67697,-4.97194 -7.27089,-6.95086c-1.57518,-1.20172 -3.59379,-1.92175 -4.81986,-3.47805c-2.65049,-3.36436 -3.81978,-7.21519 -4.04423,-11.2088c-0.52389,-2.13959 0.11553,-7.41891 0.11666,-9.16526c0.00393,-6.0566 1.74238,-13.25179 4.68093,-18.67161c0.86452,-1.59451 2.83299,-3.21166 4.05133,-4.53021c1.32218,-1.43094 3.20249,-4.19787 5.21153,-4.76068c1.41838,-0.39735 2.94211,0.15077 4.41317,0.22615l0.67248,0.92412c1.393,-0.04428 2.29165,1.21382 2.29165,1.21382c1.4881,2.10568 3.7795,5.35734 4.42011,7.89257c0.35567,1.40756 0.02639,5.01074 -0.28156,6.50852c-0.14569,0.70858 -0.72809,1.34477 -0.66594,2.06549c0.20891,2.42273 4.42314,3.04066 6.02369,3.48161c8.69345,2.39501 16.55578,-0.23197 24.36943,-4.14279c2.39352,-1.19567 5.18353,-3.37313 7.71143,-4.1551c1.91192,-0.59142 4.84935,-0.46589 6.85174,-0.46856h0.87622c1.42945,-0.47017 2.92461,-0.77847 4.42813,-0.91668l0.93514,-0.77929l0.07957,0.09548l0.11245,-0.24171c0.31037,-0.17866 0.6194,-0.36019 0.92749,-0.54381c0.09465,-0.07212 0.19863,-0.13308 0.30985,-0.18552c3.96265,-2.38305 7.78993,-5.06698 12.31097,-6.34134c0.83416,-0.23513 1.6751,-0.44806 2.52132,-0.64365c0.68282,-0.24473 1.37306,-0.46908 2.07173,-0.66961c0.93587,-0.26861 1.87293,-0.50829 2.81063,-0.72643c4.82433,-1.33045 9.67763,-2.48008 14.51429,-3.9378c2.72084,-0.82003 5.13569,-1.88474 7.94738,-2.39933c4.1273,-0.75537 8.59506,-0.26868 12.66415,-0.99955c2.24375,-0.40301 4.43021,-1.15637 6.69939,-1.37464c2.33917,-0.0016 4.70866,0.40849 7.01745,0.03268c2.00392,-0.32618 3.90915,-1.25049 5.93629,-1.36353c8.38638,-0.46766 16.88908,-1.07612 25.30787,-0.66857c7.91718,0.38328 15.36702,3.51146 23.069,5.04999l1.39553,0.34582c5.03416,1.01005 10.23661,1.94493 15.24197,3.39277c0.25991,-0.08143 0.53641,-0.12532 0.82317,-0.12532c0.08783,0 0.17469,0.00412 0.26041,0.01217l3.96796,0.33066l-0.00494,0.0593c0.07509,-0.0113 0.15033,-0.02194 0.22571,-0.03187c1.21165,-0.15965 5.73699,1.83267 6.55514,2.15301c6.53525,2.55883 13.21575,5.26783 18.2736,10.28219l0.66667,0.66667c0.23634,0.23634 0.42986,0.5155 0.56793,0.82485c0.01296,0.02628 0.02575,0.05307 0.0383,0.08034c1.56247,1.29539 0.57557,3.26919 0.57557,3.26919c-0.83876,1.65445 -2.31255,2.96218 -3.00769,4.68192c-0.61756,1.52782 -0.70858,3.21982 -1.13231,4.81233c-1.03458,3.88833 -2.19777,7.63985 -3.5834,11.34948c-0.16689,1.43431 -0.55768,2.79226 -1.53869,3.87906c-0.08361,0.19881 -0.16796,0.3976 -0.25306,0.59638c-0.0995,0.33377 -0.18547,0.6713 -0.25279,1.01404c-0.40519,2.06291 -0.80348,4.13187 -1.3708,6.1562c-0.29669,1.05867 -0.01469,2.29797 -0.56543,3.24955c-0.30981,0.53529 -1.35802,1.41815 -2.42049,2.31884c-0.6451,2.02442 -1.26544,4.05985 -1.80402,6.12112c-5.38144,8.78258 -11.26273,17.49644 -18.40954,24.98957c-0.50452,0.80346 -1.05226,1.596 -1.68137,2.36919c-1.29205,1.58795 -3.11893,2.65274 -4.66255,3.99745c-2.59081,2.25697 -4.13508,4.99754 -6.4286,7.43915c-2.24106,2.38577 -2.58309,1.98142 -5.33709,3.52775c-3.63985,2.04373 -6.73261,4.70825 -10.50664,6.56962c-0.5738,0.48605 -1.1476,0.97211 -1.7214,1.45816l-2.31583,1.98499c-0.4521,0.39225 -1.03349,0.63941 -1.67171,0.66902c-0.5037,0.51031 -1.00919,1.02096 -1.5184,1.53088l-0.33333,0.33333c0,0 -1.94454,1.94454 -3.88909,0c-1.94454,-1.94454 0,-3.88909 0,-3.88909l0.33333,-0.33333c0.49443,-0.4937 0.98357,-0.99064 1.47012,-1.4887c0.07089,-1.1467 0.98075,-1.95547 0.98075,-1.95547c0.75627,-0.67183 1.46083,-1.35331 2.1268,-2.04493c0.02114,-0.05142 0.04294,-0.10266 0.06542,-0.15372c0.1457,-0.33086 0.41065,-0.54458 0.73487,-0.7018c2.8376,-3.12053 5.01526,-6.44653 7.69521,-10.02123c0.62842,-0.83823 1.25156,-1.68904 1.87357,-2.54553c0.62893,-1.23447 1.25194,-2.46987 1.86946,-3.70326c1.25803,-2.51269 1.97781,-5.40323 3.41426,-7.81726c2.1263,-3.57337 4.18338,-7.13016 5.43264,-11.14198c0.813,-2.61081 0.74651,-5.40731 1.06388,-8.0805c-0.55227,1.02659 -1.14518,2.0378 -1.77107,3.03586c-1.65939,2.6461 -1.5929,6.06277 -2.87655,8.77577c-0.26099,0.5516 -0.57934,1.08419 -0.93016,1.60721c-0.19929,0.59631 -0.40536,1.19139 -0.61967,1.78498c-0.99656,2.76025 -2.85755,4.6954 -3.99973,7.34273l-0.05762,0.13563c0,0 -0.55561,1.29642 -1.79946,1.63444l-0.19485,0.26561c0,0 -1.65,2.2 -3.85,0.55c-2.2,-1.65 -0.55,-3.85 -0.55,-3.85l0.81233,-1.04772c0.38125,-0.66718 0.76249,-1.33436 1.14374,-2.00154l0.45092,-1.86391c0.22003,-0.43717 0.47638,-0.86656 0.75514,-1.29044c0.66543,-2.34399 1.32099,-4.65722 1.6418,-7.14906c0.3785,-2.93986 0.26384,-6.09526 0.13239,-9.19825c-0.24351,-1.4178 -0.64583,-2.81454 -1.17144,-4.15014c-0.13485,-0.28569 -0.21195,-0.56796 -0.25603,-0.79734c-0.05567,-0.28849 -0.09392,-0.67407 -0.03248,-1.08362z" fill-opacity="0.97647" fill="#ad4eac"></path><path d="M208.66418,169.61243c-1.24808,-0.54701 -2.45174,-1.23464 -3.16764,-2.33449c-2.48076,-3.81121 1.30622,-9.03488 3.84905,-11.42527c0.47418,-0.44574 0.87595,-1.20291 1.44279,-1.43693l1.97872,-2.30851c0.50444,-0.59572 1.25785,-0.9739 2.09959,-0.9739c0.84817,0 1.60667,0.38398 2.11112,0.9876c1.15252,-0.58537 2.62915,-0.63891 4.45527,0.16878c0.38227,0.16908 0.66063,0.94735 0.85464,1.96248c3.53609,-1.77985 8.04395,-1.88815 10.76289,0.9303c1.47269,1.52659 3.00269,4.92909 3.14011,8.0633c0.50027,0.5925 0.93443,1.1776 1.27617,1.74733c0.97183,1.6202 2.26379,3.61658 1.6797,5.41335c-1.88862,5.80971 -9.75688,2.81541 -13.63743,1.01677c-1.36159,1.1063 -3.49786,1.1607 -5.47158,1.53811c-3.32479,0.00504 -6.54369,0.05722 -9.8453,-0.34925z" fill="#e5c1e4"></path><path d="M225.56668,90.55833c-1.3446,-0.00285 -3.09025,-0.03516 -4.28341,-0.83971c-0.3726,-0.15096 -0.75256,-0.37136 -1.11188,-0.47443c-2.88554,-0.82771 -3.61497,-2.12919 -3.35046,-5.03895c0.39934,-4.39287 2.97757,-7.3586 5.57603,-10.58395c0.34063,-0.59437 0.76257,-1.221 1.19858,-1.80935c0.02497,-0.1254 0.07152,-0.28344 0.15834,-0.43676c-0.66018,0.02393 -1.25174,-0.09403 -1.5711,-0.43295c-1.6909,-1.7945 0.36976,-4.58652 2.54433,-5.58778c0.00598,-0.44855 0.06865,-0.8514 0.2427,-1.14561c0.01265,-0.02139 0.02534,-0.04254 0.03807,-0.06347c-0.14998,-0.40489 -0.21532,-0.92869 -0.16569,-1.58835c0.05428,-0.72143 0.43324,-1.2683 1.00038,-1.71524c-0.1726,-0.21433 -0.27591,-0.48681 -0.27591,-0.78342c0,-0.61444 0.44333,-1.12533 1.02756,-1.23027l1.01446,-0.20289c0.69452,-0.5617 1.31437,-1.18053 1.88171,-1.83903c0.65919,-1.01893 1.37944,-1.99869 2.13632,-2.95361c2.46689,-3.91298 4.32598,-8.2577 8.91401,-10.40817c1.56465,-0.73338 4.26681,-1.70272 6.0345,-1.366c0.04822,0.00919 0.09619,0.01918 0.14394,0.02993l0.00254,-0.02031l0.46795,0.05849c1.17483,-0.27984 2.32767,-0.68802 3.4525,-1.49442c0.06027,-0.18669 0.16866,-0.39979 0.36359,-0.56247c1.19098,-1.56773 3.527,-5.96192 5.92679,-5.09901c0.23031,0.08281 0.41933,0.61234 0.56009,1.25652c1.00144,-0.43875 2.33902,-0.68817 3.56486,-0.82588l-0.08423,-0.2948l1.72224,-0.49207c0.11726,-0.03641 0.24192,-0.05603 0.37116,-0.05603c0.23072,0 0.44684,0.06251 0.63235,0.17151c0.23217,-0.09959 0.38993,-0.14914 0.44045,-0.12911c0.868,0.34416 1.80456,3.01589 2.23554,4.21193c0.07369,0.00184 0.11843,0.00824 0.11843,0.00824c2.05458,0.29357 7.25185,0.22781 8.77354,1.9254c0.54641,0.60957 0.80866,2.09453 0.93444,3.52365c1.02797,0.87847 1.82076,3.15023 2.24827,4.01041c0.64697,1.30174 1.96785,2.39699 2.68029,3.62081c0.77826,1.33688 0.47571,2.84074 1.07782,4.14695c1.39499,3.02627 2.46478,5.8954 2.59549,9.34754c1.46775,-0.25279 2.55664,0.28833 4.57239,1.29463l0.27098,0.22822c0.26179,0.1345 0.42362,0.36018 0.5198,0.55122c0.08936,0.15739 0.17328,0.36765 0.17681,0.60579c0.61185,3.17773 0.97213,5.91121 0.97339,9.21536c0.0489,0.24748 0.00087,0.48128 -0.06569,0.66221c-0.06201,0.20707 -0.18255,0.45335 -0.41688,0.62832c-1.73328,1.90433 -4.28238,1.97525 -6.35096,3.28442c-1.52532,0.96535 -2.90407,2.50207 -4.93008,2.91994c-3.43666,0.70882 -6.32539,-0.03401 -9.60926,1.37647c-0.04146,0.07571 -0.09057,0.14274 -0.14407,0.202c-0.16,0.21536 -0.41591,0.39936 -0.82519,0.43704c-1.78507,0.34799 -4.42694,0.61089 -5.8975,1.74919c-1.03738,0.80299 -1.88321,2.1725 -2.98217,2.98608c-2.22161,1.6447 -4.5551,1.72347 -6.91596,3.21814l-1.58144,0.05261c-0.01984,0.00102 -0.03079,0.00102 -0.03079,0.00102c0,0 -0.0001,0 -0.00031,0c-3.47935,-0.01059 -6.9928,0.25 -10.49969,0.25c-1.60931,0 -4.0611,0.35376 -5.57198,-0.38854c-1.45083,-0.7128 -2.97224,-2.81232 -4.16004,-4.0729c-1.91221,0.07441 -3.86223,-0.03453 -5.76798,-0.03856zM232.97545,56.34614c-0.38655,0.52865 -0.76502,1.06499 -1.13754,1.61277c0.35898,-0.27106 0.65274,-0.57884 0.85108,-0.93985c0.11169,-0.20331 0.20585,-0.42955 0.28646,-0.67291zM227.44707,65.16686c-0.05681,0.01617 -0.11354,0.03074 -0.1701,0.04367c-0.00818,0.01098 -0.01616,0.02219 -0.02393,0.03363c0.09652,0.05852 0.18811,0.12739 0.27401,0.2072c0.02778,-0.01457 0.05532,-0.02964 0.08262,-0.04525c-0.06859,-0.07548 -0.12172,-0.15647 -0.16259,-0.23925z" fill="#e5c1e4"></path><path d="M251.68636,52.53516c-0.74369,-0.59993 -2.58803,-1.57568 -2.95774,-2.40013c-0.54547,-1.2164 -0.40464,-2.61273 -0.19126,-3.98142c-0.39096,-0.44581 -0.7137,-0.92215 -0.82553,-1.49084c-0.24539,-1.24794 0.22628,-2.92447 0.50354,-4.34651c-0.18544,-0.74298 -0.37137,-1.4606 -0.48861,-2.10379c0,0 -0.10688,-0.58645 0.19722,-1.06945c-0.08229,-1.8403 0.16552,-3.67841 0.8118,-5.41657l0.18465,-0.49034c0.03457,-0.24118 0.1376,-0.49713 0.37122,-0.71744c0.00048,-0.16971 0.03401,-0.35868 0.11292,-0.56821c0.50159,-1.332 1.83358,-0.8304 1.83358,-0.8304l1.26929,1.3187c0.30705,2.95602 1.88318,5.28696 2.21253,8.1599c0.21655,1.88894 0.11985,3.49384 0.57262,5.3624c1.53854,1.86641 5.07286,2.74868 5.86564,4.7516c0.51419,1.29907 -0.16998,3.4644 -1.35544,4.43107c-2.03136,3.41503 -5.14198,1.79087 -8.11641,-0.60858z" fill-opacity="0.97647" fill="#ad4eac"></path><path d="M277.36976,65.11365c-0.01777,0.00696 -0.03533,0.01424 -0.05267,0.02182l0.00357,0.19469c0.01868,-0.07471 0.03701,-0.1476 0.05505,-0.21878c-0.00195,0.00072 -0.00393,0.00148 -0.00595,0.00227zM275.1905,67.36331c-3.05729,1.89736 -5.67488,4.47416 -8.50483,6.881c-1.0042,0.85406 -3.19176,2.62243 -4.72366,1.25162c-0.85877,-0.76847 -0.35065,-2.02415 0.32657,-3.09176c0.09365,-0.38751 0.36087,-0.65473 0.36087,-0.65473l0.31952,-0.31351c0.27744,-0.3667 0.51503,-0.66067 0.62333,-0.8315c1.86699,-2.94495 3.4924,-4.68058 6.65384,-6.18767c0.85946,0.04644 1.71063,-0.54972 2.29669,-1.18009l0.29022,-0.0375l-0.02835,-0.08504l1.97232,-0.65744c0.1321,-0.04749 0.27451,-0.07337 0.42297,-0.07337c0.60972,0 1.11749,0.43655 1.22778,1.01414c0.56132,-0.39718 1.13287,-0.72518 1.71679,-0.63269c0.00879,-0.01845 0.01766,-0.03689 0.02663,-0.05532l-0.18388,-0.04597l0.32699,-1.30797c0.10814,-0.47654 0.48854,-0.84966 0.96902,-0.94719c0,-1.03611 0,-2.07223 0,-3.10834c0,0 0,-1.11653 1.05523,-1.23911c0.1601,-0.15231 0.36053,-0.26261 0.58363,-0.31324l1.30797,-0.32699l0.01713,0.0685c1.32329,-0.63635 2.8284,-1.02151 3.83659,-0.07304c0.90381,0.85027 0.36612,4.99095 0.36612,6.21722c0,3.23719 0.30393,5.72865 -1.12133,8.53721c-0.43649,0.86013 -0.05709,2.18531 -0.82029,2.91161c-1.87629,1.78558 -3.00239,1.40823 -4.35194,-0.42738c-1.13641,-1.54572 -0.87312,-3.26876 -0.87312,-5.02145c0,-0.33272 0,-0.66544 0,-0.99816c-0.11989,0.21455 -0.3246,0.41246 -0.6702,0.51663c-0.22048,0.08962 -0.50081,0.13806 -0.802,0.02831c-0.30887,-0.08576 -0.50883,-0.28812 -0.63616,-0.48919c-0.51002,-0.66012 -0.11661,-1.29031 0.06349,-1.51833c-0.87173,0.44269 -1.20206,1.66575 -2.04797,2.19072zM281.78335,67.63333c0,0.99776 -0.34522,3.36798 0.61689,4.09947c0.29162,0.22172 0.17784,-0.71093 0.25376,-1.06931c0.11205,-0.52892 0.17826,-1.08245 0.41734,-1.56738c1.13341,-2.29888 0.90272,-4.3947 0.88029,-7.08812c-0.00162,-0.02648 -0.00162,-0.04133 -0.00162,-0.04133v-0.33333c0,-0.6079 -0.09129,-1.38408 -0.10986,-2.14662c-0.6086,-0.31302 -1.37492,-0.37368 -1.93825,-0.77156l-0.11856,-0.05928c0,2.99249 0,5.98497 0,8.97746zM284.29486,57.12511c0.01668,0.00618 0.03337,0.01233 0.05007,0.01846c0.04523,-0.06768 0.0208,-0.06386 -0.05007,-0.01846z" fill="#316a70"></path><path d="M302.61821,91.60495c7.38057,-1.2597 14.54662,-2.15828 21.99872,-2.46595c3.17776,-0.1312 6.44074,0.7023 9.54141,-0.00567c0.87229,-0.19917 0.2231,-2.0602 0.76311,-2.57459c2.5244,-2.40466 4.77643,-3.18844 8.14522,-2.34624c2.95562,0.7389 5.6626,6.34089 7.51425,8.41999c2.38249,2.67514 7.48342,5.05275 10.94101,5.57227c2.93006,0.44025 5.89272,0.63018 8.84474,0.88447c0.98093,0.0845 -0.07129,-2.24519 0.6875,-2.87257c1.42393,-1.17731 2.9649,-2.75 4.8125,-2.75c1.8476,0 3.50605,1.44355 4.8125,2.75c1.20001,1.20001 0.04227,5.17468 1.40821,6.11303c3.4343,2.35926 8.7071,2.88622 11.07026,6.82482c1.0089,1.6815 1.85339,3.57359 2.48232,5.43617c0.22679,0.67162 0.31139,4.25232 0.39338,4.33432c0.832,0.832 2.32524,-0.52453 3.5,-0.45833c1.47283,0.083 3.43258,0.5102 4.65054,0.75538c6.30532,1.26928 12.25706,6.14065 13.35191,12.74401c0.93419,5.63433 -2.55342,9.66658 -5.49041,14.03451c-0.63147,0.93913 -1.94972,3.42559 -2.89408,4.57323c-0.3593,4.91035 -2.78147,10.56818 -4.56267,14.55943c-4.18469,9.37693 -9.30683,13.43794 -15.69272,21.2975c-0.9287,1.14302 -2.80237,1.45976 -3.95112,2.26901c-2.64433,1.86283 -4.5527,4.3485 -6.72621,6.69319c-3.61186,3.89632 -7.8416,12.37167 -13.01858,13.40707c-2.81007,0.56201 -5.86181,-3.67791 -5.5,-6.5c0.50986,-3.97683 4.35473,-5.99516 5.57066,-9.48866c1.14184,-3.28064 1.44431,-7.10487 2.42934,-10.47638c0.07266,-0.24868 0.14123,-0.51007 0.2059,-0.78306c-0.07401,-5.37534 0.18386,-10.9574 -0.7879,-16.18525c-0.77561,-4.1726 -4.08288,-10.5749 -5.87323,-14.43508c-1.36106,-2.93459 -3.97117,-5.07882 -5.63079,-7.83855c-3.31949,-5.51988 -6.50902,-10.73229 -10.6764,-15.47269c-1.45486,-0.92459 -2.98742,-1.7909 -4.1734,-2.6922c-0.98656,-0.74974 -1.94045,-1.54402 -2.87518,-2.3645c-2.72748,-0.92195 -5.8832,-2.00399 -5.97221,-3.60618c-0.51654,-0.7957 -0.83295,-1.73334 -0.87791,-2.74158c-0.76503,-0.69373 -1.54002,-1.37404 -2.33267,-2.03049c-0.43343,-0.35895 -2.74412,-1.86344 -4.47892,-3.25715c-0.40361,-0.25978 -0.77104,-0.57091 -1.09305,-0.92417c-6.47293,-3.16383 -13.61716,-3.74203 -20.74554,-3.87071c-3.95114,-0.07133 -7.90755,0.1771 -11.85536,0c-0.10644,-0.00478 -0.2176,-0.00755 -0.33178,-0.00984c-2.88309,-0.17154 -5.16822,-2.56399 -5.16822,-5.49016c0,-1.78986 0.85497,-3.38003 2.17879,-4.38439c0.16933,-0.16392 0.35812,-0.30824 0.57121,-0.42811c1.58751,-0.89299 3.57778,-1.29901 5.75605,-1.42468c2.45461,-1.69969 5.88904,-2.24678 9.07882,-2.7912z" fill-opacity="0.36471" fill="#ad4eac"></path><path d="M246.43044,293.4524c-1.09664,-0.59991 -0.49673,-1.69654 -0.49673,-1.69654l0.38406,-0.42709c0.00123,-0.03331 0.00246,-0.06662 0.00369,-0.09993l-0.50335,0.08147c0.02461,-0.66621 0.04923,-1.33242 0.07383,-1.99864c0,0 0.04615,-1.24915 1.29529,-1.20301c0.62199,0.02298 0.92283,0.34422 1.06813,0.66099c0.64617,0.33787 0.61608,1.15242 0.61608,1.15242c-0.01846,0.49966 -0.03691,0.99932 -0.05537,1.49897l-0.68909,1.53462c0,0 -0.59991,1.09664 -1.69654,0.49673z" fill="#316a70"></path><path d="M221.80001,271.45c-1.25,0 -1.25,-1.25 -1.25,-1.25v-1.5c0,0 0,-1.25 1.25,-1.25c1.25,0 1.25,1.25 1.25,1.25v1.5c0,0 0,1.25 -1.25,1.25z" fill="#316a70"></path><path d="M215.30001,269.45c-1.25,0 -1.25,-1.25 -1.25,-1.25v-1.5c0,0 0,-1.25 1.25,-1.25c1.25,0 1.25,1.25 1.25,1.25v1.5c0,0 0,1.25 -1.25,1.25z" fill="#316a70"></path><path d="M199.86668,119.55c-2.75,0 -2.75,-2.75 -2.75,-2.75l0.02124,-1.67443c0.07587,-0.59115 0.13452,-1.10198 0.19045,-1.56606c-0.17756,0.25275 -0.33157,0.48369 -0.45573,0.68625c-3.09325,5.04636 -5.36294,11.34119 -9.25003,15.85824l-1.60294,3.20589c-0.42642,0.89952 -1.32661,1.53074 -2.37829,1.57137c-0.00255,0.13683 -0.00483,0.27362 -0.00688,0.41034c0.06329,0.7346 0.17586,1.47188 -0.01686,2.17164c-0.00076,0.33528 -0.00095,0.66982 -0.00095,1.00344v3c0,1.19036 -0.75632,2.20408 -1.81462,2.58683c0.30891,2.3546 0.96815,4.45157 1.70495,6.97764c0.54098,1.85472 0.31557,2.62504 1.54511,4.09963c1.3707,1.64389 2.99804,3.06017 4.39152,4.68466l2.19914,1.88498c0.59572,0.50444 0.9739,1.25785 0.9739,2.09959c0,0.52883 -0.14927,1.02279 -0.40797,1.44205l1.45834,1.82293c0.3853,0.47326 0.6163,1.07717 0.6163,1.73502c0,1.51878 -1.23122,2.75 -2.75,2.75c-0.51388,0 -0.99483,-0.14095 -1.40631,-0.38629l-2.2914,-1.30937c-2.04454,-1.17936 -4.68252,-1.38065 -6.42839,-2.96904c-1.1615,-1.05672 -1.80282,-2.17023 -2.26731,-3.33594c-1.21075,-0.02595 -2.22886,-0.83441 -2.56885,-1.93989l-1.7192,-5.1576l0.20725,-0.06908c-1.14562,-2.02333 -2.0748,-4.14996 -2.57877,-6.48955c-0.41946,-0.58474 -0.81854,-1.19532 -1.19264,-1.84016c-0.80105,-1.01425 -1.54576,-2.05526 -1.98424,-3.25684c-1.991,-5.45607 -2.05931,-12.00842 -0.29161,-17.42713l0.18243,-0.17829l-0.07516,-0.041l1.97325,-3.61762c0.42261,-0.81202 1.23853,-1.38665 2.19522,-1.47137c0.33622,-1.87654 0.76303,-3.77793 1.27816,-5.71697l0.06033,-0.0685l-0.03496,-0.01165l0.97995,-2.93984c0.34559,-1.12372 1.39187,-1.94053 2.62893,-1.94053c1.03944,0 1.94418,0.57669 2.41174,1.42756c0.18983,-0.57678 0.45535,-1.2189 0.83253,-1.9793c1.27266,-2.56568 4.13013,-4.9718 5.99781,-7.15076c0.76852,-0.8966 1.34872,-2.01351 2.33275,-2.66628l1.63244,-1.95893c0.50435,-0.61399 1.26947,-1.00563 2.12605,-1.00563c1.51878,0 2.75,1.23122 2.75,2.75c0,0.5506 -0.16181,1.0634 -0.44048,1.49345l-0.69821,1.11714c0.12698,-0.01796 0.25675,-0.02726 0.38869,-0.02726c0.19129,0 0.37802,0.01953 0.5583,0.05671c0.2567,-0.29659 0.51898,-0.58847 0.7881,-0.87458c0.97732,-1.03902 1.88012,-2.37007 3.24256,-2.79252c0.15828,-0.04908 0.31772,-0.09123 0.47817,-0.12726l-0.03272,-0.08725l2.60732,-0.97775c0.31675,-0.1273 0.66266,-0.19735 1.02493,-0.19735c1.33985,0 2.4559,0.9582 2.70027,2.22672c1.71794,1.19523 0.82737,3.27323 0.82737,3.27323c-1.93304,4.39084 -4.5268,6.92261 -5.13222,11.92448l0.02124,0.99224c0,0 0,2.75 -2.75,2.75z" fill-opacity="0.46667" fill="#301530"></path><path d="M188.18532,175.60932c2.00697,1.93962 3.54281,4.15448 3.07743,7.52668c-0.45342,3.28552 -2.98403,5.49965 -4.97847,7.79131c-0.667,0.7664 -1.09659,1.81951 -1.98437,2.31358c-0.49705,0.27662 -1.03353,0.62959 -1.58543,0.95978c-0.07749,0.33317 -0.15369,0.66233 -0.22782,0.98697c0.05285,0.83789 0.09628,1.67803 0.12851,2.52084c0.09031,2.36211 0.02083,4.72775 0.00152,7.09151c-0.00873,1.06877 0.40211,2.2391 -0.0534,3.20599c-0.07694,0.16331 -0.15775,0.32438 -0.24201,0.48342l0.08388,0.03495l-1.64216,3.94118c-0.32202,0.82565 -1.03148,1.45743 -1.90495,1.67191l-0.08362,0.40512l0.16195,-0.0162l0.32965,3.29652c0.01145,0.1019 0.01733,0.20549 0.01733,0.31044c0,0.83525 -0.37237,1.58353 -0.96016,2.08788c-0.02055,0.07658 -0.04329,0.15216 -0.06834,0.22667c0.1339,0.05851 0.26584,0.11595 0.39538,0.17246c0,0 2.51298,1.11688 1.3961,3.62986c-1.11688,2.51298 -3.62986,1.3961 -3.62986,1.3961c-3.53336,-1.59413 -7.31086,-3.56921 -9.27617,-7.15806c-0.72068,-1.31603 -0.8642,-2.88105 -1.46176,-4.25736c-1.89916,-4.37416 -4.53004,-6.94966 -5.51128,-11.9059c-0.76758,-3.87706 -0.38391,-8.23604 -0.38391,-12.19166c0,-5.58865 -0.79384,-11.46019 1.6894,-16.58127l-0.01144,-0.00104l0.33079,-3.63874c0.09538,-1.19918 0.96003,-2.18167 2.10036,-2.45388l0.28221,-1.22291c0.26037,-1.248 1.36671,-2.1855 2.69201,-2.1855c1.51878,0 2.75,1.23122 2.75,2.75v2.66667h-0.16228l0.14168,0.336c-0.21207,0.86137 -0.5127,1.69759 -0.81735,2.53264c0.04176,0.80343 -0.16369,1.65424 -0.16205,2.46469c0.00192,0.94212 -0.03927,1.88683 -0.0855,2.83174c0.14521,-0.83407 0.30486,-1.67568 0.47566,-2.51785c-0.0367,-1.33593 0.05698,-2.65252 0.45656,-3.91821c0.02742,-0.08685 0.05585,-0.17328 0.08524,-0.2593l-0.04522,-0.00904l0.99001,-4.95004c0.23085,-1.28532 1.35482,-2.26064 2.70659,-2.26064c0.32144,0 0.62999,0.05515 0.91672,0.1565c-0.00004,-0.13545 -0.00005,-0.27094 -0.00005,-0.4065v-2.66667v0c0,-1.51878 1.23122,-2.75 2.75,-2.75c1.30873,0 2.40393,0.9142 2.68184,2.13883l0.44178,1.76711c0.6481,0.29049 1.16325,0.82455 1.42899,1.4857l0.93738,2.18722c0.08092,0.15412 0.15963,0.30932 0.23617,0.46554c2.52464,0.43199 4.92213,2.24261 6.71978,4.27842l0.16294,3.63013c0,0 -0.3546,1.06381 -1.29024,1.60637zM184.87794,180.14694c-0.03875,0.71637 -0.09364,1.43103 -0.16208,2.14136c-0.02374,0.82567 -0.08627,1.6603 -0.17816,2.49767c0.95721,-1.17064 1.58901,-2.4877 0.81207,-3.87796c-0.14707,-0.26317 -0.30487,-0.51639 -0.47184,-0.76107z" fill-opacity="0.54902" fill="#316a70"></path><path d="M221.56501,166.60274c0.34724,1.86572 -0.86168,3.90666 -2.20195,5.25022c-3.28113,3.28917 -11.2438,2.51707 -15.00148,0.76823c-3.83704,-1.78578 -5.98142,-4.94208 -8.60364,-8.05606c-3.11575,-3.70006 -7.22069,-6.98339 -8.66787,-11.83638c-0.0035,-0.01174 -0.00698,-0.02347 -0.01046,-0.03522l-0.00594,0.00297l-2.30859,-4.61718c-0.2012,-0.38215 -0.31507,-0.81744 -0.31507,-1.27932c0,-1.51878 1.23122,-2.75 2.75,-2.75c0.5413,0 1.04608,0.15639 1.4716,0.42646c0.63128,-0.89345 1.5036,-1.62374 2.54929,-2.20138c0.13048,-0.54687 0.41199,-1.13531 0.88784,-1.77269c1.33211,-1.78432 4.14017,-3.48722 6.16757,-2.56635c0.58757,0.26688 1.01049,0.69919 1.33282,1.23263c0.49596,-0.48581 1.17511,-0.78533 1.92421,-0.78533c0.75939,0 1.44689,0.3078 1.94454,0.80546l2,2l-0.29937,0.29937c2.407,1.69263 4.6408,3.55473 7.06155,5.48888c1.72541,1.37858 4.18578,4.29475 6.50693,4.88434c1.49732,0.38033 3.06676,0.37617 4.60014,0.56425l0.10495,0.07341l0.01116,-0.05022l2.94712,0.65492c1.25838,0.25235 2.20632,1.36361 2.20632,2.69626c0,1.51878 -1.23122,2.75 -2.75,2.75h-5.5v-0.02595c-0.04347,0.00776 -0.08697,0.01538 -0.13051,0.02285c-0.31842,0.05462 -0.80343,0.04361 -1.38564,-0.0113c-0.32168,1.16161 -1.38651,2.0144 -2.65051,2.0144c-0.09427,0 -0.18744,-0.00474 -0.27927,-0.01401c-0.05585,0.38067 -0.1897,0.736 -0.3848,1.04922c2.70408,0.92128 5.46874,2.00698 6.02906,5.01753zM215.58045,167.32244c-0.02373,0.16311 -0.05854,0.31427 -0.10268,0.45436c0.42017,-0.06632 0.69346,-0.11104 0.69058,-0.11289c-0.19224,-0.1233 -0.38841,-0.23655 -0.58791,-0.34148z" fill-opacity="0.51765" fill="#e6c1e4"></path><path d="M257.6533,176.0555c0.52933,0.03815 2.63004,0.34097 2.63004,2.7445c0,2.75 -2.75,2.75 -2.75,2.75l-0.02965,-0.01682c-1.91311,0.1973 -3.69946,1.15583 -5.61508,1.32711c-3.90427,0.34908 -7.46451,-1.70309 -11.09339,-2.74453c-0.98146,-0.28167 -2.16354,-0.13626 -2.96523,-0.76864c-0.10286,-0.08114 -0.20439,-0.1637 -0.30471,-0.2476l-0.04426,0.07588l-3.95494,-2.30705c-0.84092,-0.4704 -1.40942,-1.36965 -1.40942,-2.40168c0,-1.51878 1.23122,-2.75 2.75,-2.75c0.25159,0 0.49528,0.03378 0.7268,0.09707l2.60684,0.65171l-0.01697,0.06787l0.1676,-0.02563c4.65094,1.7441 8.8728,1.88767 13.77803,1.09278c1.42335,-1.07738 3.7647,-2.96318 5.3129,-3.4439c3.02531,-0.93938 6.93392,0.94445 9.88459,-0.3095c1.40279,-0.59614 2.52055,-1.71604 3.81452,-2.52155c0.53475,-0.33288 1.26726,-0.40348 1.66669,-0.89054c0.16479,-0.20093 -0.53515,-0.07982 -0.74313,-0.23561c-0.93069,-0.69711 -1.73313,-1.55171 -2.63044,-2.29128c-2.51276,-2.07104 -4.91523,-4.28231 -7.52854,-6.22494c-5.32273,-3.95669 -11.35202,-6.39342 -17.57117,-8.42019c-0.6795,-0.09367 -1.36781,-0.23692 -2.05123,-0.37589c-1.18019,-0.07169 -2.35004,-0.20446 -3.51002,-0.43705c1.22747,0.65305 2.44454,1.30859 3.58063,2.03674c0,0 2.31324,1.48708 0.82616,3.80032c-1.48708,2.31324 -3.80032,0.82616 -3.80032,0.82616c-4.69847,-3.03027 -9.38848,-4.78484 -13.08705,-9.05242l-0.07018,-0.24608l-0.06442,0.03758l-1.51509,-2.59729c-1.01228,-0.63371 -1.9947,-1.32414 -2.94355,-2.07258l-0.0772,-0.13787l-0.03331,0.03331l-2,-2c-0.49765,-0.49765 -0.80546,-1.18515 -0.80546,-1.94454c0,-1.41573 1.0698,-2.58159 2.4451,-2.73329l2.63047,-0.32881l0.00301,0.02411c0.05554,-0.01394 0.11127,-0.02729 0.1672,-0.04003c2.89323,-0.65907 7.64396,0.59379 10.20742,1.20677c5.74362,1.37342 11.19827,2.98811 17.06114,3.89628l0.29178,0.26534l0.06075,-0.13668l2.94263,1.30784c0.99282,0.41487 1.69049,1.3952 1.69049,2.53848c0,0.55339 -0.16346,1.06861 -0.44473,1.5c0.28127,0.43139 0.44473,0.94661 0.44473,1.5c0,0.49832 -0.13254,0.96568 -0.3643,1.36876c0.00586,0.00264 0.01171,0.00528 0.01756,0.00792c4.9356,2.22759 9.39811,6.01048 13.5195,9.4121c2.43399,2.00891 9.62205,6.07278 8.8029,10.24291c-0.37011,1.88414 -2.21391,3.18719 -3.66665,4.44279c-3.94558,3.41019 -5.04504,3.65629 -9.57991,3.93832c-2.0145,0.12529 -4.12978,-0.71104 -6.05431,-0.1027c-0.46311,0.14639 -0.8939,0.3589 -1.30484,0.61207z" fill-opacity="0.46667" fill="#301530"></path><path d="M216.9555,114.77752c-1.4185,0.40529 -2.29345,-0.16781 -2.79981,-0.78621c-0.49304,0.73875 -1.3342,1.22535 -2.28901,1.22535c-0.68898,0 -1.31879,-0.25337 -1.80132,-0.67202l-2.32169,-1.99002l0.19172,-0.22367l-0.60748,-0.22156c-0.39425,-0.85494 -0.72864,-1.69758 -1.01213,-2.53246c-0.30841,-0.66397 -0.51783,-1.44604 -0.6582,-2.28001c-0.71323,-2.97476 -0.87054,-5.90276 -0.89205,-8.99752c-0.79674,-1.44424 -1.51753,-2.9318 -2.12255,-4.48746c-1.21413,-3.12185 -2.38674,-6.67483 -0.99275,-10.04199c0.51514,-1.24432 1.56653,-2.19107 2.3498,-3.28661c0,0 0.42184,-0.56245 1.12333,-0.90528c0.09004,-1.14774 0.20391,-2.29784 0.34791,-3.45248c0,0 0.3411,-2.72876 3.06986,-2.38767c0.47099,0.05887 0.85053,0.18888 1.15614,0.36371c0.98039,-2.15223 2.019,-4.28245 2.99328,-6.42638l1.30433,-2.93475c0.41487,-0.99282 1.3952,-1.69049 2.53848,-1.69049c0.70432,0 1.34681,0.26478 1.83333,0.70024c0.48653,-0.43545 1.12901,-0.70024 1.83333,-0.70024c1.51878,0 2.75,1.23122 2.75,2.75c0,0.22552 -0.02715,0.44471 -0.07835,0.65446l-0.6386,2.8737c0.23275,4.30274 -1.48988,9.47767 -1.96653,13.77552l0.01682,1.36298c0,0 0,2.75 -2.75,2.75c-0.91514,0 -1.52575,-0.30454 -1.93315,-0.71093c-0.40163,2.22494 -0.73038,4.45812 -1.00612,6.64616c-0.17056,1.35342 0.10945,2.78324 -0.31073,4.08074v2.56737c0,0.78079 -0.32539,1.48557 -0.84797,1.98615c1.49438,2.17174 3.03443,4.3235 4.42996,6.55635l0.97886,3.03535c0,0 0.75548,2.64419 -1.88871,3.39967z" fill-opacity="0.31373" fill="#ad4eac"></path><path d="M237.53335,51.55c-2.75,0 -2.75,-2.75 -2.75,-2.75l0.1593,-2.44701l-2.56533,-0.51307c-1.28532,-0.23085 -2.26064,-1.35482 -2.26064,-2.70659c0,-1.06154 0.60147,-1.98259 1.4822,-2.44096l3.56416,-1.94409c2.27935,-1.42545 4.59728,-3.97311 7.09602,-5.53031c0.02103,-0.03186 0.04253,-0.06351 0.0645,-0.09496c0.98505,-1.40984 3.12084,-1.43758 4.6948,-2.1401l2.56901,-1.2845c0.38215,-0.2012 0.81744,-0.31507 1.27932,-0.31507c1.51878,0 2.75,1.23122 2.75,2.75c0,1.09781 -0.64327,2.04537 -1.57345,2.48632l-1.20128,0.60064c0.42053,0.26503 0.76134,0.61532 0.98298,1.09308c0.845,1.82147 -1.88619,3.56379 -3.08976,5.17103c-0.17748,0.23701 -0.43057,0.51115 -0.7216,0.77828c1.31446,0.39985 2.54634,1.00228 3.06045,2.15161c0.74257,1.66008 -0.82397,3.56686 -1.57251,5.22425c-0.03597,0.07965 -0.10118,0.16516 -0.18567,0.25214c1.972,-0.46735 4.93942,0.15932 6.55085,0.15932c0,0 2.75,0 2.75,2.75c0,2.75 -2.75,2.75 -2.75,2.75c-2.33333,0 -4.67231,0.16219 -7,0c-1.46238,-0.10189 -3.32384,0.45549 -4.35905,-0.58244c-1.34017,-1.34369 -1.7439,-3.55176 -1.65504,-5.44745c0.03126,-0.66687 0.40827,-1.2433 0.88435,-1.76583l-0.8625,0.10781l-0.08549,-0.6839c-0.86392,0.22402 -1.67027,0.20716 -2.35686,-0.31077c-0.15317,0.42247 -0.27211,0.76731 -0.34544,0.9539l0.19669,0.97868c0,0 0,2.75 -2.75,2.75z" fill-opacity="0.31373" fill="#ad4eac"></path><path d="M250.95001,40.8c0,2.75 -2.75,2.75 -2.75,2.75l-0.13037,-0.14112c-3.01762,0.99038 -5.53553,2.66195 -7.92125,4.57893l0.00643,0.00429l-2.64301,3.96451c-0.48965,0.75818 -1.34211,1.26006 -2.3118,1.26006c-0.15138,0 -0.2999,-0.01223 -0.44463,-0.03576c-0.96335,3.37007 -1.73739,6.76901 -2.61482,10.27398c-0.08503,0.33967 -0.20823,0.92954 -0.3664,1.65514c1.24318,0.26405 2.17585,1.36809 2.17585,2.68997c0,1.3253 -0.9375,2.43163 -2.1855,2.69201l-1.58991,0.3669c-0.30119,0.74548 -0.62992,1.36457 -0.98299,1.74316c-0.06174,0.0662 -0.12456,0.13114 -0.18841,0.19491c-0.07773,1.59893 -0.37381,3.4082 -1.08389,4.68195c2.12008,3.77639 3.02137,7.80596 -2.25572,9.61974c-7.62708,2.62149 -8.72658,-5.81954 -9.70087,-10.50496c-1.24212,-2.17185 -2.16666,-4.46989 -2.49906,-7.18675c0,0 -0.12612,-1.26117 0.64909,-2.15673l-0.30817,-2.77351c-0.01401,-0.1125 -0.02123,-0.2271 -0.02123,-0.3434c0,-0.49938 0.13311,-0.96767 0.36578,-1.37133c-0.03013,-0.75752 0.0931,-1.39214 0.46313,-1.85229c0.53442,-3.07257 2.28874,-5.27289 3.59386,-8.24147l0.36951,-0.24791l-0.11186,-0.09788l2.32309,-2.65496c0.50425,-0.58239 1.24901,-0.95082 2.07983,-0.95082c0.08217,0 0.1635,0.0036 0.24384,0.01066l4.25388,-4.29858c0.82366,1.95771 2.16779,3.77411 2.53909,5.85463c0.70231,-2.3217 1.49778,-4.63415 2.46265,-6.96116l0.0755,-0.06808l-0.03462,-0.01731l1.30669,-2.61338c0.44095,-0.93018 1.38851,-1.57345 2.48632,-1.57345c1.51878,0 2.75,1.23122 2.75,2.75c0,0.07145 -0.00272,0.14226 -0.00808,0.21233c2.31583,-1.79711 4.4527,-2.8299 7.38845,-3.82121l1.86963,-0.14112c0,0 2.75,0 2.75,2.75z" fill-opacity="0.38824" fill="#e6c1e4"></path><path d="M216.95001,265.8c0,2.75 -2.75,2.75 -2.75,2.75l-1.74994,-0.22235c-2.36018,-1.02724 -4.73164,-2.20738 -7.09411,-3.44432h-2.15594c-1.2933,0 -2.37808,-0.89277 -2.67167,-2.09565l-3.42661,-0.6047c-1.31374,-0.20709 -2.31838,-1.34439 -2.31838,-2.71632c0,-1.51878 1.23122,-2.75 2.75,-2.75h1.07082c1.14336,-3.96014 7.04295,-6.09965 10.3692,-6.27572c2.21522,-0.11726 5.17281,-1.41513 6.65067,0.23923c1.41233,1.58101 0.07426,4.37835 -0.80081,6.30929c-0.21069,0.46492 -0.46408,0.88846 -0.75411,1.27431c0.71416,1.38427 -0.298,2.80129 -0.298,2.80129c-0.01414,0.01748 -0.02819,0.03507 -0.04215,0.05277c0.33295,0.56421 0.67215,1.1226 1.04533,1.64941l-0.73412,0.24972c0.18942,0.08815 0.38142,0.17343 0.57645,0.25538l-0.41661,-0.22235c0,0 2.75,0 2.75,2.75z" fill-opacity="0.38824" fill="#e6c1e4"></path></g></g></svg>