<svg version="1.1" xmlns="http://www.w3.org/2000/svg" xmlns:xlink="http://www.w3.org/1999/xlink" width="239.65051" height="301.69256" viewBox="0,0,239.65051,301.69256"><g transform="translate(-108.11667,-4.94076)"><g stroke="none" stroke-width="0.5" stroke-miterlimit="10"><g><g><g><path d="M157.12878,190.33932c1.18505,-0.51267 2.33336,-1.45803 3.62178,-1.37374c1.10623,0.07239 2.43568,0.13394 3.55954,0.47698c-0.00606,-0.17394 -0.01149,-0.34795 -0.01626,-0.52194c0,0 -0.07268,-2.71769 2.64501,-2.79035c2.71769,-0.07268 2.79038,2.64501 2.79038,2.64501c0.18426,7.06218 1.59158,13.99178 4.44299,20.47705c2.42417,5.51359 7.24632,9.78323 10.82831,14.51491l0.75771,0.65416c2.35486,0.51009 3.98554,1.17402 6.43195,0.01413l2.14961,-0.65254c0,0 2.60601,-0.77444 3.38046,1.83159c0.39101,1.31582 -0.07976,2.16469 -0.64174,2.6827c-0.08602,0.91002 -0.64514,1.59876 -0.64514,1.59876c-3.71277,4.45306 -5.31042,11.41123 -7.41082,16.83548c-1.48413,3.83275 -3.00094,7.80908 -4.53248,11.5742c-1.48238,3.64423 -4.40444,6.41326 -5.59077,10.20496c-0.42159,1.34746 -0.26192,2.84416 -0.75155,4.16843c-0.40643,1.09922 -1.36377,1.91793 -1.88661,2.96679c-1.53941,3.08807 -2.76564,6.46651 -4.24643,9.61794c-0.52091,1.79346 -1.11243,3.56778 -1.76937,5.316l-2.45951,2.21128c0,0 -1.27184,0.81012 -2.52445,0.27647c-0.10848,0.09683 -0.22619,0.18623 -0.35282,0.26689c-0.91537,0.58308 -2.04711,0.54995 -2.90882,0.00855l-2.89155,-1.73326c-7.67624,-2.57254 -15.97076,-2.52999 -23.90624,-4.05058c-3.52978,-0.67636 -6.53916,-2.21038 -9.94137,-2.93361c-0.12101,0.03047 -0.24945,0.05569 -0.38579,0.075c-0.95749,0.13545 -1.62259,-0.11785 -2.08216,-0.50051c-0.17472,-0.05408 -0.37897,-0.1319 -0.58785,-0.24271l-2.71605,-0.21996c0,0 -2.33183,-1.39775 -0.93407,-3.72957c0.74694,-1.24609 1.76062,-1.42717 2.54266,-1.3256c0.05579,-0.03622 0.1117,-0.07246 0.16778,-0.1087c-0.33393,-2.51498 -0.60429,-5.1667 -0.47135,-7.34637c0.27094,-4.44191 1.86157,-9.46121 2.8268,-13.81838c1.09335,-4.93565 1.77755,-10.3253 3.76849,-15.02224c1.06075,-2.50245 2.64835,-4.77364 3.57233,-7.32978c1.38064,-3.81945 1.81591,-7.8278 3.60315,-11.53774c1.56055,-3.23935 2.88388,-5.53796 3.91364,-9.04088c2.88698,-6.97827 7.25399,-13.82211 11.12894,-20.32824l2.01777,-1.62556c0,0 0.96313,-0.61349 2.03859,-0.42105c1.08436,-0.67592 2.26248,-1.24361 3.46533,-1.76399z" fill="#c392ca"></path><path d="M120.25531,215.25882c7.02629,-8.89955 15.61296,-17.17864 24.50066,-24.15724c2.51794,-1.60448 4.41542,-2.68562 6.90462,-3.31635c2.24299,-1.22971 4.57878,-2.21873 7.3273,-2.7459l2.36419,-0.91633c1.13904,-0.46747 2.47447,-0.10784 3.21844,0.90423c0.30421,-0.0544 0.60594,-0.11733 0.90411,-0.19228l1.66793,-0.41775c0,0 2.63722,-0.6605 3.29773,1.97671c0.6605,2.63722 -1.97671,3.29773 -1.97671,3.29773l-1.66793,0.41775c-0.84219,0.21022 -2.99066,0.78303 -4.89353,1.18544c-0.09363,0.11974 -0.19191,0.23642 -0.29533,0.34972c-0.89432,0.97974 -2.58453,0.59903 -3.87678,0.89854l-0.11728,-0.0356l0.00515,0.04961l-0.14572,0.01514c0.2005,1.57961 -1.3006,2.53576 -1.3006,2.53576l-1.97551,1.22418c-3.23238,3.83457 -5.52479,7.79999 -8.18484,12.02673c-3.03781,4.82699 -6.67034,9.36704 -8.85365,14.7126c-0.39109,0.95756 -0.42488,2.05126 -0.90175,2.96912c-0.88367,1.70076 -2.44384,3.02042 -3.18176,4.78931c-1.19849,2.8729 -0.75472,6.19594 -1.41933,9.24982c0,0 -0.02215,0.0999 -0.07724,0.25659c-0.04843,0.1589 -0.08974,0.25251 -0.08974,0.25251l-0.03572,0.05681c-0.10332,0.22417 -0.25241,0.48672 -0.46098,0.73292l-0.07135,0.11345c-0.18219,2.36923 0.15213,4.80117 -0.37162,7.11894c-0.46394,2.05313 -1.96805,3.73862 -2.66468,5.72492c-1.29374,3.68898 -2.06378,8.43167 -2.7063,12.25127c-0.30024,1.78482 0.4601,3.59083 0.64154,5.39159c0.30897,3.0662 -0.08554,5.72568 0.38497,8.74155c0.0777,0.27348 0.11923,0.58788 0.11169,0.94935c-0.01673,0.80295 -0.26575,1.36375 -0.6083,1.75539c-0.33546,0.39777 -0.85225,0.72857 -1.64347,0.8663c-0.36809,0.06409 -0.6944,0.06877 -0.98347,0.02919l-1.65022,-0.03769c-0.2601,-0.02399 -0.51987,-0.05454 -0.77906,-0.09126l-0.84435,0.75912l-0.02039,-0.0227c-0.02828,0.03798 -0.05686,0.07578 -0.08581,0.11336c-0.817,1.06184 -1.98851,1.76786 -3.13124,2.5074c-1.35984,1.65712 -2.60633,3.39684 -3.92356,5.13694c-0.21147,0.56945 -0.44168,1.12861 -0.75258,1.63797c-0.49147,0.80524 -0.91593,1.88692 -1.47686,2.72968c1.57094,-21.61831 5.45661,-43.93301 5.88824,-64.88787c0.06851,-3.32619 0.97701,-7.98433 1.3761,-12.6939c0.81276,-1.47701 1.60768,-2.98756 2.57499,-4.21276z" fill="#9e63a7"></path><path d="M158.82841,285.13773l-0.0019,-0.00102c0.00135,-0.00393 0.0027,-0.00786 0.00407,-0.01178c0.17826,-1.05753 0.49606,-2.09781 1.09452,-3.1778c0.05915,-0.17174 0.11829,-0.34349 0.17745,-0.51521c6.22355,-10.47925 10.3259,-22.05671 16.15319,-32.65048c3.31084,-6.01897 4.53345,-15.20907 9.83258,-19.94095l1.98656,-2.84933c0.20375,-0.30699 0.47357,-0.5773 0.80434,-0.788c0.73613,-0.46889 1.61219,-0.5393 2.37521,-0.26732c0.55976,-0.32422 1.32276,-0.46786 2.31562,-0.05636c2.51149,1.04093 1.47058,3.55243 1.47058,3.55243c-2.69106,6.47357 -5.32835,12.48163 -8.65902,18.7462l-0.32531,0.16766l0.11087,0.1007l-0.71291,0.7849c0.33173,1.13614 -0.32153,2.22598 -0.32153,2.22598l-1.56273,2.60707c-1.13923,1.89409 -1.88539,4.01395 -3.09163,5.86609c-2.10156,3.22681 -4.8047,5.42623 -6.42393,9.02326c-1.50402,3.3411 -2.70595,6.83703 -4.4587,10.07578c-1.24914,2.30817 -3.3363,4.06772 -4.75328,6.27685c-0.00375,0.00585 -0.00749,0.01173 -0.01122,0.0176c-0.25239,0.74829 -0.50474,1.49656 -0.75713,2.24483l-0.64179,2.89387c-0.15065,0.67926 -0.56042,1.30105 -1.19362,1.70438c-1.26639,0.80664 -2.94693,0.43395 -3.75358,-0.83243c-0.40333,-0.63319 -0.51181,-1.36995 -0.36117,-2.0492l0.66595,-3.00286l0.01462,0.00324c0.00767,-0.04941 0.01563,-0.09877 0.02391,-0.14809z" fill="#4b1353"></path><path d="M226.27047,165.41419c2.33182,1.39775 0.9341,3.72958 0.9341,3.72958l-1.14983,1.90269c-0.89142,1.78202 -2.16932,3.37562 -2.88594,5.23484c-1.17734,3.05453 -1.30138,6.58909 -2.53687,9.66891c-0.81414,2.02947 -1.85584,3.9996 -2.31785,6.13695c-1.94247,5.17029 -4.70204,9.86334 -7.09339,14.81499c-3.46247,7.16958 -6.27367,14.62529 -9.56718,21.86618c-2.26129,4.97152 -5.31734,9.84529 -8.35779,14.56618c-1.24309,3.45778 -2.40499,6.96154 -3.74609,10.39902c-0.09198,0.28693 -0.18977,0.57622 -0.29497,0.86821c-0.31538,0.87549 -0.6918,1.70835 -1.10396,2.5167c-0.05072,0.11526 -0.10176,0.23039 -0.15312,0.3454c-0.50924,1.14049 -1.16364,2.17069 -1.85096,3.17618c-0.59319,0.99424 -1.1832,1.99275 -1.71685,3.03372c-1.41173,2.75375 -1.34441,6.0175 -2.53063,8.91375c-0.18877,0.46091 -2.39114,4.61432 -2.529,5.38333c-0.21195,1.18223 0.25355,2.43161 -0.01079,3.60324c-0.64661,2.86597 -2.71113,5.49364 -3.08204,8.52008c-0.31304,2.55421 0.27863,5.62793 0.55711,8.18878c0.12107,0.56811 0.11369,1.29631 -0.37879,1.97085c-0.26453,0.44574 -0.69833,0.8549 -1.40663,1.0623c-0.45564,0.18508 -0.87148,0.2242 -1.24153,0.17505c-0.10078,0.08758 -0.20932,0.1688 -0.32531,0.24269h-0.00005c-1.19802,0.7631 -2.76665,0.47075 -3.61546,-0.63513l-0.98244,-1.24819c-3.60885,-1.31247 -7.47503,-3.08027 -8.56563,-6.26689c-1.45934,-4.26407 3.54798,-9.92209 5.02929,-13.75876c1.23731,-3.20473 1.81039,-6.34257 3.79988,-9.24452c1.89127,-2.75867 4.52815,-5.0854 6.02096,-8.15044c2.11657,-4.34567 4.19021,-8.58749 6.49834,-12.74967c0.33937,-1.15291 0.71162,-2.27944 1.17453,-3.33753c0.4006,-0.91566 1.32088,-1.53477 1.73882,-2.44263c1.4506,-3.15104 1.66462,-6.98162 3.01931,-10.20373c1.21583,-2.89186 3.43393,-5.32148 5.43679,-7.83141l0.27798,-1.25344l0.05752,0.01276c0.00623,-0.09961 0.01372,-0.19924 0.02257,-0.29886c0.16156,-1.82063 1.22909,-3.40591 2.47896,-4.90179c0.27028,-0.65302 0.55498,-1.29797 0.85562,-1.93181c0.15813,-0.3334 0.34211,-0.65331 0.54178,-0.96492c1.38176,-3.98346 2.94743,-7.89318 4.59729,-11.77323c0.29598,-1.12516 0.66759,-2.23401 1.2034,-3.30191c0.21711,-0.4327 0.47687,-0.83926 0.7612,-1.2308c1.68923,-3.83819 3.42313,-7.66403 5.10398,-11.52067c0.14664,-0.63489 0.26435,-1.10168 0.33452,-1.29543c0.43099,-1.19 1.05999,-2.29894 1.6766,-3.41207c0.05884,-0.1411 0.11758,-0.28227 0.17616,-0.4235c0.81802,-1.97163 1.43063,-3.9739 2.03115,-5.97577c0.28805,-2.06084 0.4824,-4.14869 1.55937,-5.87702c0.05904,-0.09475 0.1197,-0.18821 0.18187,-0.28048l-0.05167,-0.02579l2.10505,-4.21459c0.18558,-0.38829 0.4653,-0.73671 0.83086,-1.00766c0.32548,-0.79023 0.6291,-1.60669 0.8801,-2.48346l0.133,-0.13554l-0.06658,-0.02939l1.17236,-2.65631c0.20735,-0.48897 0.55982,-0.92239 1.04164,-1.2293c0.05721,-0.03645 0.11529,-0.07047 0.1741,-0.10216c0.86174,-2.39639 1.83904,-4.75168 3.06217,-7.03241c1.68489,-3.14178 4.03069,-6.04355 5.56178,-9.25938c1.61847,-3.39939 1.66803,-7.1625 3.32966,-10.52833c1.29574,-2.62472 3.95796,-5.10484 4.83907,-7.93722c0.68458,-2.20062 0.51658,-4.62837 1.32947,-6.78491c1.16896,-3.10127 3.36198,-5.68565 5.14952,-8.43239c1.08279,-1.76933 1.54629,-3.84995 2.3485,-5.76292c2.35253,-5.60998 6.85159,-10.2625 9.42045,-15.73984c2.04684,-4.36428 3.36187,-7.89806 6.58446,-11.63997l0.08537,-0.06535c0.16378,-0.36956 0.32426,-0.74626 0.47943,-1.13265c1.86501,-4.64359 3.74979,-8.71734 6.33226,-12.98778c2.29207,-3.79021 2.38746,-8.16634 4.63174,-11.98358c2.05528,-3.49577 4.4152,-6.90766 6.54998,-10.43358l0.88316,-2.34532c0.1976,-0.54246 0.56882,-1.02652 1.09337,-1.36065c1.26639,-0.80664 2.94694,-0.43394 3.75359,0.83245c0.40333,0.63319 0.51182,1.36994 0.36119,2.04918l-1.16542,5.25502l-0.01689,-0.00375c-0.00046,0.02715 -0.00096,0.05432 -0.00153,0.08146c-0.07101,3.40797 -2.61235,7.32944 -4.12756,10.17703c-3.11976,5.86314 -6.31574,12.08142 -10.10484,17.5638c-0.97195,1.40629 -2.02706,2.81645 -2.57257,4.43655l-0.46926,1.0812c0,0 -0.14151,0.32068 -0.43809,0.6809c-0.09908,0.6979 -0.5113,1.23106 -0.84477,1.55883c-0.99423,1.99771 -2.00586,3.86266 -2.50807,6.21888c0,0 -0.48963,2.20779 -2.58934,2.14963c-0.31606,0.70767 -0.64517,1.44035 -1.00775,2.20687c-2.55217,5.39543 -7.06592,10.00431 -9.33229,15.54508c-0.88984,2.17551 -1.53964,4.47538 -2.73396,6.49979c-1.56522,2.4043 -3.6644,4.78702 -4.68545,7.50219c-0.76835,2.04312 -0.53377,4.36006 -1.20872,6.43588c-1.04808,3.22341 -3.65778,5.77954 -5.16239,8.74806c-1.65613,3.26746 -1.70729,7.08 -3.29203,10.45086c-1.55633,3.31035 -3.95379,6.28891 -5.68985,9.51154c-1.67456,3.10846 -2.84118,6.38396 -3.89835,9.70735l-0.0027,0.12934l-0.03813,-0.0008c-0.00354,0.01118 -0.00709,0.02235 -0.01062,0.03353c0.38196,0.03294 0.80335,0.16362 1.26067,0.43775z" fill="#641a70"></path></g><path d="M186.04979,264.95772c-0.25251,1.09771 -1.03208,2.00574 -1.45676,3.04899c-0.93601,2.29937 -1.39403,4.77708 -2.36077,7.06372c-0.85969,2.03341 -1.98818,3.98068 -3.08695,5.94264c-0.49652,1.95929 -0.97636,3.92903 -1.42289,5.91874c-0.32901,1.46605 -0.81756,2.78129 -1.23235,4.12338c0.07711,0.75727 0.21616,1.52636 -0.05018,2.21933c-0.0274,0.07128 -0.05549,0.14224 -0.08425,0.21288l0.05403,0.00982l-0.63385,3.4862c0.42016,0.76219 0.75094,1.53647 0.67404,2.37275c-0.50304,5.47006 -4.21034,6.32417 -7.80978,2.55789c-0.45322,-0.47422 -0.79031,-1.38379 -1.04769,-2.43778c-1.85333,-0.97631 -3.69924,-2.02812 -5.57448,-2.77319c-1.7094,-0.67917 -3.59847,-0.91437 -5.22623,-1.77094c-3.84127,-2.02138 -7.73822,-4.52806 -11.91829,-5.82852c-0.23991,-0.07464 -0.47986,-0.14691 -0.71983,-0.21686c-0.09106,-0.0104 -0.17643,-0.02141 -0.25534,-0.03327c-5.51922,-0.82917 -11.1692,-0.75212 -16.682,-1.66911c-0.59488,-0.09895 -1.16983,-0.22048 -1.73279,-0.35228c-2.08361,-0.08623 -4.59073,-0.20617 -6.17755,0.28767c-1.16329,0.36203 -2.58809,1.30761 -3.95994,2.35957l-1.20125,2.10219c-0.01525,0.02787 -0.03101,0.05542 -0.04728,0.08263c-0.05036,0.10086 -0.10074,0.20173 -0.1511,0.30259l-0.93971,2.8191c-0.31418,1.02156 -1.26533,1.76413 -2.38993,1.76413c-1.38071,0 -2.5,-1.11929 -2.5,-2.5c0,-0.29691 0.05176,-0.58173 0.14674,-0.84593l0.98155,-2.94464l0.10265,0.03422l-0.04064,-0.20036c0.02143,-0.04282 0.04286,-0.08564 0.06429,-0.12846c-1.11038,-2.88448 1.83717,-7.06183 2.09091,-10.16118c0.80761,-9.86482 -0.40815,-19.89236 0.16012,-29.76435c5.15024,0 10.30048,0 15.45072,0c2.14124,0 5.13195,-0.52663 7.20185,0.28349c5.42541,2.12341 10.29185,5.01305 15.14233,8.08585c4.85931,3.07839 8.16737,7.29887 13.57799,9.48271c1.11223,0.19298 2.22446,0.38596 3.33668,0.57894l2.37568,0.47514c0.27869,0.06147 0.56829,0.09388 0.86546,0.09388c0.56551,0 1.1036,-0.11735 1.59127,-0.32903c-0.11239,0.36385 -0.2277,0.7264 -0.34651,1.08738c-0.92996,2.82547 -1.27416,5.25581 -2.0165,7.63062c-0.50984,1.09985 -0.97486,2.25239 -1.44411,3.40312c-0.28872,0.5141 -0.6173,1.0331 -0.99543,1.56034l0.09318,-0.17014c0,0 -1.68809,1.68809 -1.15188,3.76014c-0.16822,1.20144 0.05279,2.91 2.19145,3.97933c3.57771,1.78886 5.36656,-1.78886 5.36656,-1.78886c0.56776,-1.13552 1.06295,-2.35163 1.55223,-3.57022c0.9015,-1.61049 1.63237,-3.28717 2.25133,-5.00797c1.08712,-1.9562 2.36243,-3.83677 3.0822,-5.95197c0.6593,-1.93752 0.69197,-4.04958 1.33127,-5.99379c1.03315,-3.142 2.7878,-6.19509 4.71432,-9.16037c0.41923,2.19005 0.45512,5.61035 0.2574,6.46984z" fill-opacity="0.65098" fill="#160a1f"></path></g><path d="M118.2415,287.65285l-0.03096,0.03262l0.03733,0.016l-0.97731,2.28037c-0.36946,0.9192 -1.26922,1.56816 -2.32056,1.56816c-1.30616,0 -2.37835,-1.00167 -2.49034,-2.27875l-0.33058,-3.30583l0.02416,-0.00242c-0.01139,-0.04053 -0.02254,-0.08112 -0.03347,-0.1218c-0.29887,-1.1132 -0.00267,-2.30525 -0.0031,-3.45787c-0.00217,-5.92939 0.15879,-11.46207 1.07006,-17.33346c0.39884,-2.56974 0.7599,-5.14821 1.28947,-7.69422c0.27646,-1.32911 0.0022,-2.97828 0.93603,-3.96364c1.83245,-1.93359 6.33852,-1.51501 8.53777,-1.50867c10.33679,0.0298 18.86854,5.79687 26.52784,12.18785c5.44357,3.90701 10.93825,10.13378 11.30067,17.15681c0.1272,2.46497 0.36442,6.15056 -2.11894,7.90911c-1.8985,1.3444 -8.40163,0.41882 -10.70956,0.4129c-9.26956,-0.02377 -18.40419,-2.96788 -27.69454,-3.01873c-1.03879,0.25722 -2.05082,0.6438 -3.01396,1.12158z" fill-opacity="0.14902" fill="#843cbb"></path></g><g><path d="M207.03304,104.46544c1.11121,-0.24959 2.20278,-0.88384 3.33364,-0.74877c1.69877,0.20289 3.69652,0.44655 4.83423,1.72428c0.73224,0.82236 0.63626,8.07528 0.57552,8.88733c-0.85946,11.4889 -5.45904,23.00609 -11.33242,32.79505c-2.06435,4.11919 -3.30881,8.51778 -4.40334,12.98541c-0.33692,1.37523 -0.06082,2.98064 -0.83792,4.16423c-1.30494,1.98753 -2.79834,4.54262 -5.14192,4.94356c-3.57082,0.61089 -4.14679,-4.29202 -5.12121,-6.1235c-1.9687,-3.70029 -4.60708,-6.98181 -5.85359,-11.10549c-1.98686,-6.57288 -2.44383,-13.12281 -2.4683,-19.92098c-0.12461,-0.5771 -0.00405,-1.11776 0.16436,-1.53564c0.10422,-0.32353 0.2741,-0.68332 0.55101,-0.99664c-0.24338,-0.4103 -0.38311,-0.88931 -0.38311,-1.40095c0,-0.75939 0.3078,-1.44689 0.80546,-1.94454l2.66667,-2.66667l0.08169,0.08169c0.1925,-0.14278 0.38474,-0.28483 0.57635,-0.42675c0.70734,-1.24508 1.45788,-2.46515 2.24249,-3.6584c1.72446,-2.62259 2.6763,-5.7099 4.45704,-8.2946c2.06532,-2.99776 5.34092,-5.0189 8.48775,-6.61148l0.15425,0.00081l-0.02061,-0.05496l2.60732,-0.97775c0.31675,-0.1273 0.66266,-0.19735 1.02493,-0.19735c1.07295,0 2.00239,0.61447 2.45559,1.51071z" fill="#671b72"></path><path d="M273.03335,27.46667c0.06842,0 0.1345,0.00234 0.19832,0.00686c0.44213,-0.26915 0.88695,-0.32475 0.88695,-0.32475c4.08549,-0.50498 11.15071,-1.55009 14.87051,0.56104c4.44647,2.52355 4.7109,9.24764 4.7109,13.75684c0,0.45896 0.0145,4.23771 -0.0535,4.45951c-1.10502,3.60421 -4.90462,4.4767 -7.27269,7.30186c-1.37645,2.7529 -2.86398,4.09067 -4.86628,6.25687c-1.00368,1.08583 -1.16587,2.7484 -2.04897,3.93437c-0.85177,1.1439 -1.58682,2.89623 -3.00518,3.04551c-1.27209,0.13388 -2.06561,-1.52278 -2.98178,-2.4154c-2.02541,-1.97333 -2.17536,-4.24868 -2.72969,-6.84213c-1.85404,-8.67421 -2.45346,-18.41947 0.39406,-27.03971l-0.10263,-0.70088c0,0 0,-2 2,-2z" fill="#671b72"></path><path d="M201.27369,254.8794c1.28036,0.80283 2.94569,0.68149 4.40132,1.08769c2.92815,0.81711 5.53635,3.29624 8.34407,4.45212c3.82981,1.57665 8.67394,2.79961 12.75591,3.49769c2.19161,0.3748 5.16298,-0.03195 6.99445,1.59009c0.31025,-0.03695 0.6535,-0.0064 1.02368,0.1327c0.6486,0.1665 1.05546,0.54371 1.31068,0.95144c0.57028,0.72401 0.52057,1.50605 0.35286,2.0742l-0.18725,1.5027c-1.38996,2.74204 -1.75863,5.78345 -3.5413,8.34374c-2.18334,3.13574 -4.55473,6.25877 -6.86597,9.39682l-0.01066,0.08526c-0.04953,0.44908 -0.21802,0.86233 -0.47325,1.20756c0.99286,0.92231 2.36684,1.57427 2.92639,2.80395c1.69785,3.7312 -0.72245,10.38974 -3.73493,12.56949c-1.45767,1.05474 -7.29247,0.30849 -9.20302,0.30849c-2.9416,0 -5.43766,-0.31583 -8.30546,-0.6854c-5.41493,-0.69782 -11.41062,0.00589 -16.87963,0.01856c-0.82634,0.07396 -1.3991,-0.19293 -1.79279,-0.5585c-0.46901,-0.36196 -0.85545,-0.95842 -0.85545,-1.94132c0,-0.23606 0.02229,-0.44984 0.06266,-0.64343c-2.21439,-3.07447 -2.79637,-5.23839 -3.60344,-8.84978l-0.59042,-1.18866c-1.70575,-4.17216 -2.31966,-11.47123 -0.29281,-15.72589c1.40888,-2.95746 4.01817,-6.24382 5.83926,-8.97203c0.59168,-0.88641 1.1318,-1.80654 1.64216,-2.74356c0.41849,-0.83246 0.8519,-1.64533 1.27205,-2.46712c0.36358,-0.81678 0.48065,-1.84491 1.14369,-2.4054c0.14029,-0.32873 0.27478,-0.66269 0.40191,-1.00343l0.10977,-0.09162l-0.05425,-0.02712l1.30911,-2.61822c0.40086,-0.84561 1.26228,-1.43041 2.26029,-1.43041c0.85428,0 1.60849,0.42849 2.05942,1.08227z" fill="#170619"></path><path d="M277.2,302.05001h-1c-4.56285,-0.00556 -9.0886,-0.33333 -13.66667,-0.33333c0,0 -1.80705,0 -2.34848,-1.53633c-0.13541,-0.10932 -0.27933,-0.22442 -0.43022,-0.34455c-2.92894,-0.78162 -4.51178,-0.79386 -5.94871,-4.5658c-0.14746,-0.38709 -0.1775,-0.79176 -0.14919,-1.20517c-0.01961,-0.04094 -0.03764,-0.08132 -0.05404,-0.1211c-1.34113,-3.2552 -0.0747,-4.14967 0.85623,-6.44618c0.98312,-5.86505 2.59662,-11.59151 3.25636,-17.55696c0,0 0.27608,-2.48471 2.76079,-2.20863c0.6616,0.07351 1.12746,0.30361 1.45492,0.6017c0.37372,-0.22748 0.85732,-0.36175 1.47714,-0.28428c5.51422,-0.03296 10.29087,-1.36744 15.70762,-2.29759c2.32032,-0.39844 4.72691,0.01118 7.05455,-0.34196c3.12294,-0.4738 6.19377,-1.27456 9.38628,-1.67386l0.9384,-0.3444c0.37076,-0.24055 0.86226,-0.38947 1.5124,-0.33942c0.45834,0.00698 1.01149,0.12085 1.47934,0.5217c0.48483,0.38015 0.70497,0.90022 0.80169,1.3483c0.16974,0.60338 0.13045,1.09909 -0.01778,1.50141c-0.82834,5.64006 -3.3679,10.71016 -4.99399,16.02915c1.56087,1.10437 2.46744,3.81157 2.95088,6.33772c1.80581,0.41362 1.80581,2.42623 1.80581,2.42623l-0.12829,-0.1239c0.17307,0.52044 0.51785,1.03646 0.75721,1.5552c0.06408,0.00928 0.12817,0.01856 0.19225,0.02784l-0.0352,0.36686c0.10149,0.31413 0.13904,0.6299 0.05175,0.94888l0.1422,0.3318l0.66744,-0.08343l0.32844,2.62754c0.01595,0.11412 0.0242,0.2307 0.0242,0.34921c0,0.86787 -0.44222,1.63244 -1.11362,2.08069c-0.22094,0.70619 -0.74669,1.27766 -1.42318,1.56035l-2.94785,1.31015l-0.03084,-0.06938c-0.15238,0.08158 -0.30743,0.15859 -0.46553,0.23039c-0.16175,0.07345 -6.44952,0.05446 -6.51898,0.05446c-4.01111,0 -7.93544,-0.1288 -11.85107,-0.389c-0.2844,0.05567 -0.48227,0.05567 -0.48227,0.05567z" fill="#170619"></path><path d="M222.85396,77.6975c0.47349,-0.56084 0.94697,-1.12168 1.42046,-1.68253c0.71568,-1.45255 2.31157,-4.81566 3.16666,-5.89268c3.91622,-4.93267 10.09096,-5.90295 15.9256,-5.90562c3.98438,-0.00182 8.26693,-0.51937 12.18383,0.38741c6.3404,1.46784 12.53343,3.88859 18.83843,5.48661c4.60676,1.1676 9.63049,1.21446 14.36848,1.78119c0.79476,-0.01791 1.33525,0.29351 1.69919,0.6817c0.40305,0.34811 0.73649,0.87605 0.75047,1.67202l0.25163,1.5514c1.55781,6.23331 2.64735,12.5627 4.03796,18.84632c0.36416,3.05513 1.49007,4.72004 2.54806,7.55932c0.57509,1.54334 0.82867,3.81224 1.3578,5.40258c1.54332,4.63861 4.43324,8.79994 5.4131,13.62879c0.17202,0.84772 -0.22018,1.75444 -0.01582,2.59495c0.54585,2.24502 1.63393,4.08107 2.28311,6.2581c1.45043,0.57723 1.45043,2.31628 1.45043,2.31628v1.33333c-0.00222,0.93918 -0.00444,1.87836 -0.00667,2.81754c0.63762,4.30448 0.41967,8.97901 1.58087,13.17549c2.21761,8.01427 4.90163,15.96022 7.00235,24.00847c1.15453,4.42322 3.51068,9.15721 5.76072,13.09149c0.48637,0.85044 1.42668,2.3124 2.29435,3.8109c0.77855,0.53209 0.97148,1.44967 1.01929,1.87177c0.4727,0.94636 0.81584,1.80217 0.87585,2.39976c0.01425,0.14193 0.02506,0.28385 0.03272,0.42577l0.07316,-0.01219l0.33038,1.9823c0.1808,0.34004 0.37132,0.7118 0.56527,1.1416c1.51832,1.6056 3.07659,3.05249 3.97017,5.3856c0.33876,0.88448 0.1686,1.92602 0.57093,2.78346c0.5279,1.12506 2.75655,2.55914 3.51938,3.33803c1.43437,1.46456 2.30421,3.39294 3.3761,5.14034c1.50194,2.44846 2.95369,4.89391 4.36289,7.38283c0.98438,1.7386 2.97197,2.91563 3.55296,4.82722c0.9197,3.026 -0.12735,4.40343 -1.19621,6.9786c-0.58988,0.84549 -1.16939,1.70136 -1.72163,2.57384l-0.03754,0.15017l-0.04938,-0.01234c-0.07323,0.11654 -0.14596,0.23339 -0.21814,0.35055l0.01767,0.2872c-0.17193,0.18109 -0.34201,0.35866 -0.51058,0.53303c-0.28314,0.48384 -0.55577,0.9735 -0.81516,1.46998c0.17471,1.92972 -1.82962,2.50238 -1.82962,2.50238l-1.34517,0.37058l-0.81361,1.42382c-0.42441,0.77572 -1.24811,1.30179 -2.19469,1.30179c-0.21073,0 -0.41536,-0.02607 -0.61086,-0.07517c-0.13166,0.10301 -0.26451,0.20476 -0.39864,0.30515c-3.83107,1.92585 -7.9941,2.85868 -11.78662,4.73203c-0.10414,0.05144 -0.20797,0.10379 -0.31153,0.15699c-0.17423,0.96434 -1.22568,0.96434 -1.22568,0.96434l-0.47832,-0.00724c-3.30511,1.99693 -6.43167,4.59283 -10.07657,5.92531c-0.94209,0.3444 -1.92327,0.59043 -2.91394,0.81067c-1.16784,0.69448 -2.37413,1.19177 -3.66427,1.25512c-6.61616,2.26775 -13.86934,3.34032 -20.63051,4.66025c-2.87601,0.56146 -5.45842,2.41935 -8.31518,2.99636c-2.95992,0.59786 -5.71274,0.491 -8.66051,1.33204c-8.63812,1.23725 -17.37406,1.69415 -26.09403,1.69415c-3.81603,0 -7.85539,0.38097 -11.65273,-0.00937c-2.52495,-0.25954 -5.04962,-1.00809 -7.61132,-1.32777c-5.2336,-0.1807 -10.76139,-2.38429 -15.64163,-4.06386c-0.9878,-0.33996 -1.6799,-1.29166 -2.65628,-1.66315c-1.98599,-0.75562 -4.77564,-0.31243 -6.87081,-1.1076c-1.54367,-0.58587 -3.43794,-1.54143 -4.95959,-2.29355c0,0 -0.07157,-0.03578 -0.16944,-0.10735c-0.09885,-0.07022 -0.15543,-0.1268 -0.15543,-0.1268l0.00234,-0.00004c-0.03895,-0.03654 -0.07845,-0.07736 -0.11665,-0.12246c-0.84894,-0.3256 -1.5888,-0.93562 -2.44421,-1.25896c-1.30535,-0.49341 -2.76291,-0.5077 -4.0592,-1.02446c-5.6542,-2.25402 -11.25719,-5.82923 -15.8565,-9.76995c-4.0774,-2.00315 -8.96527,-3.90195 -12.20615,-7.17138c-0.95429,-0.9627 -1.34412,-2.35844 -2.11647,-3.47242c-1.51806,-2.18952 -4.18571,-3.28332 -5.89401,-5.2052c-1.85004,-2.08134 -2.34428,-4.60131 -3.5433,-6.96667c0,0 -0.55902,-1.11803 0.55902,-1.67705c0.40334,-0.20167 0.73392,-0.18508 0.99175,-0.08146c0.01064,-0.01165 0.01672,-0.01772 0.01672,-0.01772l0.21722,-0.19945c0.69896,-0.92566 0.98102,-2.21273 1.90792,-2.91005c0.7028,-0.52872 1.93942,-0.32871 2.41136,-1.07084c1.65861,-2.60822 3.02419,-5.42916 5.08581,-7.77295c1.09863,-1.249 2.91805,-2.07677 3.99922,-3.33246c1.28496,-1.49239 1.75196,-3.66423 2.91498,-5.22792c1.4271,-1.91876 3.05663,-3.40834 4.7364,-5.08811c3.00648,-3.9638 6.25217,-7.94589 9.29239,-11.95026c1.50868,-1.98713 1.51096,-4.65285 2.9712,-6.62829c0.65384,-0.88452 1.71757,-1.4219 2.33333,-2.33333c1.4813,-2.1926 2.12335,-4.74323 3.05937,-7.13977c0.83896,-2.14802 2.32499,-3.53923 3.14771,-5.64142c3.46612,-6.93965 6.55786,-13.86263 10.01163,-20.69181c1.78164,-3.52286 1.90202,-7.77647 3.6773,-11.35514c0,0 0.27693,-0.55386 0.83079,-0.68701c0.05493,-0.276 0.11373,-0.5626 0.177,-0.85242c0.62378,-3.97496 1.94678,-7.76048 2.89085,-11.84311c0.13425,-0.58055 0.57327,-3.79982 0.73686,-4.21686c0.6233,-1.589 1.75501,-3.24032 2.44095,-4.87765c0.76681,-1.83036 0.84088,-3.88593 1.5359,-5.73095c0.15868,-0.42124 0.34829,-0.81122 0.54927,-1.18469c0.23652,-0.91513 0.48489,-1.82673 0.75627,-2.73111c0.72905,-2.42956 1.52429,-4.92128 2.41389,-7.35496c0.32962,-1.1404 0.64707,-2.30535 0.89387,-3.5407l-0.02427,-0.08819c0,0 0,-1.17941 1.14563,-1.24698c0.6473,-1.16351 1.48789,-2.23649 1.92203,-3.49202c0.5119,-1.48044 0.7064,-3.081 1.39764,-4.48668c0,0 0.55902,-1.11803 1.67705,-0.55902c0.00584,0.00292 0.01163,0.00585 0.01738,0.0088zM299.74473,121.44009c-0.09299,-0.377 -0.1983,-0.75045 -0.31399,-1.12091c0.10396,0.37383 0.20861,0.74748 0.31399,1.12091z" fill="#290b2d"></path><path d="M152.36215,236.54395c-0.72617,-0.96092 -1.05867,-1.8448 -1.29552,-2.75316c-0.72794,-0.70169 -1.40748,-1.42542 -1.99306,-2.1886c-0.14293,-0.18628 -1.24167,-2.36381 -2.06097,-4.00051c-0.60457,-0.48509 -0.79431,-1.10119 -0.81767,-1.63808c-0.02749,-0.05514 -0.04917,-0.0986 -0.06431,-0.12889c0,0 -1.11803,-2.23607 1.11803,-3.3541c0.05177,-0.02589 0.10295,-0.04998 0.15352,-0.07233l0.05996,-0.13932c1.05435,-1.83519 2.30113,-3.56763 3.67308,-5.17925c0,0 1.62698,-1.89814 3.52512,-0.27116c1.89814,1.62698 0.27116,3.52512 0.27116,3.52512c-0.77663,0.89885 -1.51432,1.83964 -2.17502,2.82907c0.79045,2.03622 1.63618,4.05244 2.32735,6.12398c0.08742,0.26201 0.25089,1.04391 0.45819,1.88025c1.7856,1.62542 3.78007,3.15696 5.3237,4.83899c0.33977,0.37023 0.65727,0.76527 0.97057,1.16487c1.24411,0.61602 2.43914,1.20934 3.31683,1.83485l0.98134,0.93323c0,0 0.60016,0.60016 0.7514,1.45079c0.57078,0.27796 1.15228,0.53648 1.73586,0.7903c1.01192,-1.01958 2.53554,-0.5117 2.53554,-0.5117l0.51952,0.22435c2.28084,0.33891 4.65,1.13595 6.39063,2.64833c1.07474,0.93381 1.7227,2.63676 3.20869,3.1703c3.26122,1.17095 6.79417,1.30874 10.0754,2.69753c5.69767,2.41157 11.61314,6.40902 17.61325,7.87045c3.93911,0.95943 7.47066,1.04874 11.18665,2.85801c1.0879,0.54395 2.16766,1.07721 3.25473,1.58102c4.79144,0.52773 9.67567,0.57522 14.44924,0.82654c8.39967,0.44223 17.03174,1.52059 25.27027,-0.60462c5.22145,-1.1453 10.14789,-3.36433 15.44867,-4.3577c6.71254,-1.25794 13.86412,-1.25607 20.40125,-3.26857c4.64427,-1.42977 8.94825,-5.0431 13.15078,-7.44454l1.57368,-0.32939c0,0 1.82402,0 2.35601,1.55802c3.43067,-0.70294 6.88183,-1.54131 9.68221,-3.1964c1.57046,-0.92818 2.67936,-2.49087 4.16233,-3.55325c0.22361,-0.16019 0.45689,-0.31875 0.69706,-0.47682l0.72822,-2.60881c2.67074,-3.98127 4.98723,-8.36878 7.13811,-12.6741c0,0 0.11394,-0.22787 0.34181,-0.50176c-1.71773,-6.58764 -6.19385,-11.89943 -9.31578,-17.87823c-1.21045,-2.31813 -4.12682,-6.87814 -4.87288,-9.52698c-0.24707,-0.87721 0.19365,-1.84727 -0.01687,-2.73395c-0.45013,-1.8959 -1.62445,-3.55481 -2.65914,-5.20601c-3.47084,-5.5389 -6.91072,-11.0546 -7.72091,-17.71862c-0.00059,-0.00417 -0.00086,-0.00633 -0.00086,-0.00633l-0.31013,-2.51771c-0.53706,-2.13964 -0.73828,-4.35542 -1.29376,-6.49036c-0.60135,-2.31125 -1.83554,-4.43519 -2.35721,-6.76571c-0.41912,-1.87236 -0.73075,-3.78349 -0.99874,-5.70466c-2.10938,0.27644 -2.65149,-1.89198 -2.65149,-1.89198l-0.36765,-1.49246c-0.29227,-1.62382 -0.61819,-3.03674 -1.04668,-4.40646c-0.04443,-0.05763 -0.089,-0.11515 -0.1337,-0.17257l-0.59602,-1.08348c0,0 -0.33153,-0.66305 -0.27246,-1.44756c-0.25063,-0.58481 -0.52763,-1.18165 -0.83619,-1.8031c-0.23319,-0.93276 -0.57516,-1.83148 -0.94097,-2.72286c-0.66118,-0.39725 -1.12353,-1.09161 -1.20236,-1.89841l-0.22297,-2.00677c-0.09628,-0.4515 -0.16752,-0.90972 -0.22929,-1.37064c-1.72076,-6.65742 -4.15276,-13.19813 -6.50487,-19.7669c-0.33508,-0.62364 -0.64238,-1.25338 -0.89792,-1.89672c-0.06177,-0.15551 -0.11565,-0.34793 -0.16317,-0.56837c-1.39692,-3.13541 -2.85909,-6.24816 -3.87321,-9.53649c-0.68799,-2.23083 -0.61126,-4.6322 -1.06756,-6.92168c-0.6311,-3.16649 -1.72204,-5.96536 -2.03915,-9.24944c-0.10196,-1.05595 -0.55365,-2.16447 -0.47705,-3.19988c-0.06471,-0.48105 -0.12538,-0.95523 -0.18412,-1.41912c0,0 -0.24874,-1.98995 1.48162,-2.62807l0.29634,-0.81493c0.01101,-0.03264 0.02267,-0.06497 0.03498,-0.09699c0.24366,-0.71716 0.84591,-1.60343 2.33442,-1.60343c1.48852,0 2.09076,0.88627 2.33442,1.60343c0.04232,0.11011 0.07707,0.22398 0.10362,0.34096l0.65398,2.61593l-0.01112,0.00278l0.01888,0.02918c0.93924,4.2282 2.56175,8.38492 3.05121,12.62827c0.09001,0.78036 0.17527,1.53855 0.26018,2.28243c0.53482,1.76732 0.54754,3.68783 1.24211,5.3988c1.05036,2.5874 2.81303,5.26633 3.43702,7.9851c1.05302,4.5881 1.30037,10.17582 3.4721,14.48122c0.94649,1.8764 2.39266,3.47139 3.34032,5.3472l0.26393,1.7847c0,0 0,0.08636 -0.01605,0.22697c0.98615,2.13855 1.81458,4.36936 2.82575,6.81632c0.52184,1.26282 1.93223,4.32738 2.15019,5.51065c0.48859,2.65255 0.79179,5.39437 1.13062,8.13646c2.20815,4.89104 3.43255,9.99863 4.83778,15.71513c0.77063,3.13492 2.80191,6.04246 3.91596,9.0592c1.18062,3.19702 1.3287,4.67483 3.48352,7.27844c3.62095,9.34825 8.52247,17.72306 12.4596,26.91458c2.22151,5.18627 4.77325,10.09542 6.70388,15.42231c0.39289,1.08403 1.15908,2.10036 1.17541,3.25327c0.00781,0.55117 -0.21684,1.05918 -0.47053,1.56445c0.07861,0.05473 0.15786,0.11516 0.23766,0.18166c1.92055,1.60046 0.32009,3.52101 0.32009,3.52101c-0.73346,0.87958 -1.40991,1.81287 -2.06266,2.7661c0.51864,1.07575 0.76127,2.42641 0.97359,3.5375c0.2506,1.31139 -0.36494,2.68756 -0.93574,3.89451c-1.52539,3.22536 -4.82503,4.05245 -7.28979,6.1174c-0.6968,0.58377 -1.02238,1.55482 -1.76535,2.07856c-2.35741,1.66182 -5.20714,2.48505 -7.85221,3.63512c-7.67173,3.33565 -15.35318,5.43362 -23.43992,7.47611c-8.19298,1.60471 -15.58236,5.19428 -23.96638,6.0485l-1.88236,0.01219c-0.011,0.00014 -0.02203,0.00021 -0.03306,0.00021c-0.31597,0 -0.61826,-0.05862 -0.89657,-0.16558c-0.14136,-0.04803 -0.28929,-0.10999 -0.43572,-0.18993c-0.02927,0.00391 -0.0587,0.00732 -0.08828,0.01021l-2.95788,0.32865c-3.18595,0.39262 -6.38921,0.9169 -9.57691,1.49985c-1.389,0.48722 -2.7998,0.91093 -4.31506,1.15185c-3.39035,0.53906 -6.87769,0.69507 -10.36528,0.72705c-5.22425,0.38035 -10.4591,0.63788 -15.69763,0.63788c-4.19984,0 -8.84545,0.3788 -12.95773,-0.7459c-7.06529,-1.93233 -13.52983,-5.56079 -20.64861,-7.32875c0,0 -0.13026,-0.03257 -0.32286,-0.11279c-0.19456,-0.07534 -0.31114,-0.14196 -0.31114,-0.14196l-2.27263,-1.29975c-1.634,-0.82705 -2.98896,-2.14012 -4.61892,-2.97511c-1.52488,-0.78116 -3.33851,-0.77319 -4.99955,-1.19324c-2.55856,-1.0877 -4.6975,-1.49502 -7.25968,-2.30978c-4.41859,-1.40509 -6.88311,-4.82175 -10.78193,-6.8517c-2.72403,-1.41828 -5.74721,-2.3446 -8.26706,-4.16416c-1.211,-0.87445 -2.16862,-2.03922 -3.12812,-3.19961c-2.30885,-1.2086 -4.67162,-2.45595 -6.10295,-4.34999z" fill="#51165a"></path><path d="M218.70001,301.94762c1.38071,0 2.5,0.89434 2.5,1.99756c0,1.10322 -1.11929,1.99756 -2.5,1.99756h-2.62232c-0.29001,0.04795 -0.55589,0.04935 -0.79764,0.01836c-2.81337,0.57983 -6.87433,-0.16816 -9.70458,-0.28719c-3.83611,-0.16132 -7.70232,-0.53611 -11.54213,-0.5302h-2.66667c-0.86203,0 -1.62216,-0.34861 -2.07161,-0.87902c-0.40024,0.67697 -1.26252,1.14536 -2.26173,1.14536c-1.05134,0 -1.9511,-0.51854 -2.32056,-1.253l-0.87191,-1.62559c-2.80577,-2.80252 -2.96747,-5.72944 -2.97419,-9.23997c0,0 0,-1.28356 1.28769,-1.79288c0.06289,-0.40436 0.2258,-0.76881 0.58919,-1.04876c1.46495,-1.12854 3.83258,-1.10854 5.80298,-1.51477c5.99736,-1.23644 11.8152,-0.5018 17.6958,0.54202l2.29024,0.51943c0.82584,0.08248 1.65168,0.16497 2.47752,0.24745l2.25147,0.2567c0.83314,0.04317 1.36074,0.32256 1.69485,0.6591c0.36979,0.31195 0.64137,0.76892 0.57686,1.43428c-0.00392,3.17062 -0.17962,6.51987 1.67151,9.35353z" fill="#99712b"></path><path d="M259.2,294.71666c1.00275,0 1.60329,0.4022 1.96296,0.88396c0.5465,-0.21729 1.03704,-0.21729 1.03704,-0.21729c9.03229,0 17.85575,-0.12016 26.78357,1h2.54977c1.38071,0 2.5,1.11929 2.5,2.5c0,0.90946 -0.48562,1.70549 -1.21171,2.14294l-2.62996,1.64373l-0.0217,-0.03472c-0.06813,0.05508 -0.13731,0.10905 -0.20759,0.16182c-2.77317,2.08215 -7.18248,1.91727 -10.42904,1.91957c-2.25984,0.0016 -4.55562,0.36201 -6.7794,-0.04012c-5.1921,-0.9389 -9.8189,-2.55424 -15.20844,-2.91902l-0.84549,-4.54086c0,0 0,-2.5 2.5,-2.5z" fill="#99712b"></path><path d="M237.39715,117.58856c0,0 -0.43648,0.10912 -0.89111,-0.03121c-0.14861,0.04931 -0.30753,0.076 -0.47269,0.076c-0.82843,0 -1.5,-0.67157 -1.5,-1.5v-0.42568c-0.75596,0.81848 -1.41423,1.75027 -2.34564,2.3477c-2.8027,1.79773 -4.9629,1.90765 -8.15436,1.91131c-0.52818,0.00061 -3.90435,0.01172 -4.06707,-0.05443c-1.04265,-0.42386 -2.29186,-0.974 -2.70492,-2.02098c-0.11683,-0.29612 -0.0918,-0.59875 0.00504,-0.90354c-0.27085,0.39016 -0.72212,0.64561 -1.23306,0.64561c-0.75768,0 -1.38415,-0.56177 -1.48563,-1.29151c-1.09954,2.77629 -1.83849,5.78499 -3.1706,8.45806c-1.49108,2.99205 -3.12586,5.92358 -4.62841,8.92356c-0.11232,0.29967 -0.33158,0.63506 -0.75959,0.80254c-0.25523,0.12901 -0.57838,0.19084 -0.96947,0.0774c-0.40053,-0.07343 -0.66192,-0.27325 -0.83251,-0.50279c-0.308,-0.3413 -0.35406,-0.73945 -0.32046,-1.05776v-1.9095c0.01868,-2.73822 -0.93949,-4.03126 -1.61445,-6.60768c-1.2942,-4.94014 -1.15565,-11.6021 -0.36805,-16.62078c0.17026,-1.08489 0.38828,-2.52833 0.81279,-3.76921c-2.29131,0.71054 -4.49573,1.56316 -6.75853,2.33648l0.11353,0.20814l-2.60927,1.42324c-0.21897,0.12503 -0.47249,0.19647 -0.74269,0.19647c-0.82843,0 -1.5,-0.67157 -1.5,-1.5c0,-0.34315 0.11522,-0.65938 0.30909,-0.91212l0.98862,-1.31816c1.96163,-2.6448 5.10105,-4.29808 6.95003,-6.92879c1.89315,-2.69355 2.78296,-7.19491 3.82924,-10.31527c0.43412,-1.2947 1.04543,-3.73777 2.35064,-4.49762c0.12834,-0.07472 0.53932,-0.12157 1.06634,-0.15074c2.28415,-2.91706 4.70984,-5.6771 7.34501,-8.33622l0.16103,-0.54107c0,-1.74117 -0.53508,-3.82601 0.04814,-5.20774c-0.02058,-0.26167 -0.03487,-0.52565 -0.04236,-0.79226h-0.00578v-2c0,-0.82843 0.67157,-1.5 1.5,-1.5c0.21861,0 0.4263,0.04677 0.61361,0.13084c-0.67186,-2.16516 -2.16149,-4.62755 -2.96439,-6.64529c-3.28058,-5.7591 -2.68541,-12.04981 -2.14411,-18.4426c0.06827,-0.80625 -0.12434,-3.75165 0.07186,-4.35062c0.66784,-2.03876 1.46816,-1.69197 2.71239,-2.93609c2.49684,-2.4966 5.03462,-3.79961 7.74796,-5.68919l0.0754,-0.10556l0.03742,0.02673c0.13299,-0.09326 0.2664,-0.18798 0.40025,-0.28437c0.46814,-1.34515 1.10088,-3.07388 1.60357,-3.79738c1.7944,-2.58257 4.32759,-2.78806 5.55002,-5.82834c2.12276,-2.66867 4.86892,-5.25405 8.01709,-6.61414c2.99442,-1.29366 6.73123,-1.01893 9.81506,-2.05711c5.92228,-1.99376 11.96786,-2.86223 18.13053,-2.122v-0.28486h1.5628c0.50755,-0.12752 1.02547,-0.23663 1.55841,-0.31826l0.86878,-0.01081c0.24567,-0.055 0.53806,-0.04128 0.88033,0.09475c0.2563,0.08692 0.54878,0.25014 0.74351,0.55663c0.20501,0.29972 0.23981,0.63285 0.21874,0.90266c-0.0097,0.36459 -0.11038,0.63698 -0.2554,0.84048c-0.60003,1.34882 -1.25239,2.53958 -2.0094,3.70891c0.73098,0.29881 1.4942,0.818 2.09928,1.2746c2.59624,1.95917 3.39654,5.01353 4.0046,8.05873c0.72439,3.62783 2.09948,9.12735 1.12156,12.73692c-0.35542,1.3119 -0.97071,1.98451 -1.62757,2.5476c-0.07099,10.50312 -3.33258,25.20881 8.86602,30.11357c5.95341,3.96651 10.89213,10.19138 18.63501,10.16087h0.37724c0.38151,-0.09074 0.71163,0.00925 0.96345,0.15197c0.27082,0.11825 0.55499,0.32852 0.70931,0.70241c0.92101,1.24603 2.56217,3.1616 0.56765,4.80564c-0.85648,0.70598 -2.2689,0.1693 -3.32544,-0.17083c-0.59098,-0.19026 -0.76644,-1.02561 -1.31192,-1.32209c-1.36058,-0.73951 -4.61326,-0.59893 -6.22057,-0.85312c-3.21377,-0.50824 -9.24266,-0.66709 -12.4151,-0.02076c-2.98935,0.60903 -5.26916,4.25264 -7.28397,6.26745c-4.13983,4.0435 -4.72353,11.81958 -3.27954,17.21369c0.38932,1.45432 1.02878,2.88697 1.05221,4.39232v0.49788c0.00987,0.17039 -0.00816,0.3274 -0.03211,0.45148c-0.02371,0.12336 -0.06492,0.27476 -0.13657,0.42835c-0.48128,1.21181 -0.92268,2.43956 -1.34702,3.67246l-0.21739,0.16337l0.07106,0.05685l-1.32468,1.65585c-0.27463,0.34938 -0.70109,0.57378 -1.17996,0.57378c-0.82843,0 -1.5,-0.67157 -1.5,-1.5v-2.33333h0.42019c-0.10277,-1.52909 -0.0842,-3.05673 -0.10623,-4.57866c-0.15088,0.051 -0.31253,0.07866 -0.48063,0.07866c-0.23778,0 -0.46263,-0.05532 -0.66239,-0.1538c-0.24786,0.48693 -0.75378,0.82047 -1.33761,0.82047c-0.7529,0 -1.37624,-0.5547 -1.48364,-1.27772l-0.32928,-1.97568c-0.49353,-2.96394 -0.64277,-5.9108 -0.68284,-8.8718c-0.32627,0.75007 -0.74593,1.46951 -1.27269,2.14819c-1.02794,1.32442 -2.41635,3.4099 -4.33682,2.31345c-0.31678,0.21608 -0.64095,0.39997 -0.9713,0.54261c-1.721,0.74306 -3.79064,1.49019 -5.61595,2.44431c-1.9319,1.85324 -3.75808,3.74463 -5.14099,6.45299c-0.20244,0.16535 -0.40713,0.32744 -0.61376,0.48671c-0.03482,0.09674 -0.06915,0.19295 -0.10298,0.28861c-0.5899,1.66779 -0.08654,3.88412 -0.69339,5.75601l-0.65573,1.96719c-0.1885,0.61294 -0.7592,1.05847 -1.43396,1.05847c-0.76396,0 -1.39453,-0.57112 -1.48804,-1.3097l-0.00712,-0.04987zM235.62154,14.3463c-0.274,0.2085 -0.54307,0.425 -0.80656,0.64836c0.14946,-0.01695 0.29181,-0.05275 0.41861,-0.13033c0.18707,-0.11445 0.29229,-0.31054 0.38795,-0.51803z" fill="#400d48"></path><path d="M291.86668,34.80001c0,1.5 -1.5,1.5 -1.5,1.5h-1c-0.09898,-0.00194 -0.20029,-0.01186 -0.30216,-0.02924c-0.29672,0.20631 -0.59344,0.41262 -0.89016,0.61893l-0.47434,-0.14955v0.22652h-1.66667c-0.82843,0 -1.5,-0.67157 -1.5,-1.5c0,-0.64386 0.40567,-1.19298 0.97536,-1.40569l1.63423,-0.65369l0.16876,0.42191c0.1137,-0.05469 0.22835,-0.10603 0.34393,-0.15359c0.15924,-0.13631 0.31848,-0.27262 0.47772,-0.40893c0,0 1.00098,-0.75074 1.86018,0.03333h0.37315c0,0 1.5,0 1.5,1.5z" fill="#331240"></path><path d="M287.86668,53.24076c0,1.5 -1.5,1.5 -1.5,1.5l-1.28734,-0.00071c-0.64666,0.01961 -1.29195,-0.01444 -1.93532,-0.08465l0.01281,0.14092l-2.96899,0.26991c-0.05079,0.0052 -0.10233,0.00786 -0.1545,0.00786c-0.82843,0 -1.5,-0.67157 -1.5,-1.5c0,-0.7529 0.5547,-1.37624 1.27772,-1.48364l1.93128,-0.32188c0.86462,-0.21656 1.72924,-0.43313 2.59385,-0.64969c0,0 1.11035,-0.27759 1.63373,0.62208l0.39674,-0.0002c0,0 1.5,0 1.5,1.5z" fill="#331240"></path><g><path d="M290.42615,171.74141c-0.30428,0.30811 -0.62002,0.61451 -0.94826,0.91981c-0.98761,0.91859 -1.75612,2.28284 -3.05207,2.65661c-1.50651,0.4345 -3.12299,-0.28352 -4.68448,-0.42528c-4.70264,-3.91188 -10.95186,-9.27424 -10.61846,-16.02709c0.22088,-4.47383 3.67838,-9.48471 5.1377,-13.69338c0.61015,-1.75966 1.99139,-3.15169 2.87036,-4.79367c1.61694,-3.02054 2.4529,-5.93709 4.46507,-8.87972c1.10793,-1.62024 4.0311,-3.69313 2.15805,-4.68817c0,0 -1.49173,-1.79007 -0.08113,-3.44782c-2.24704,-2.3494 -4.38171,-4.79873 -6.10271,-7.48708c-0.46843,0.37013 -1.06019,0.59106 -1.70356,0.59106c-0.67623,0 -1.29545,-0.24408 -1.77437,-0.64895l-1.98613,-1.65511l0.04467,-0.0536c-0.12135,-0.07936 -0.24028,-0.16293 -0.35646,-0.25123c-3.37602,-2.56577 -3.00694,-8.20777 -3.01103,-11.80778c-0.00812,-7.15341 3.05124,-16.15813 10.31626,-19.18691c3.53702,-1.47457 9.90018,-1.38415 13.73381,-0.88001c1.32927,0.17481 2.71562,0.32825 3.91266,0.93209c3.1986,1.61352 3.21897,2.80556 4.16353,5.60074c0.1417,0.17302 0.2549,0.35141 0.34388,0.51603c0.15878,0.26799 0.31573,0.61321 0.38505,1.00703c1.37852,0.80519 2.83757,1.70419 3.26279,2.16095c1.69394,1.81959 2.45187,4.32549 3.68536,6.48393c2.59231,4.53618 5.40873,8.9156 7.50862,13.70062c0.68284,1.55599 1.65397,3.04357 1.95606,4.71168c0.41445,0.42505 0.84384,0.8344 1.2878,1.22566l0.07074,0.50047l0.19406,-0.10781l0.63314,1.13966c0.76272,0.52835 1.00292,1.25304 1.04236,1.8753c0.21498,0.39195 0.33723,0.84198 0.33723,1.32056c0,1.00059 -0.53439,1.87637 -1.33333,2.3575v1.6425h-0.10032c0.018,0.22851 0.02304,0.45836 0.01239,0.68981c-0.06339,1.37827 -1.2673,2.45159 -1.9329,3.66016c-0.92465,1.67895 -2.07577,3.04188 -3.24305,4.42391c-0.6598,1.77372 -1.16105,3.61948 -2.09858,5.25739c-0.97449,1.70247 -2.74107,2.82016 -3.92927,4.381c-1.60294,2.10564 -1.83817,4.18036 -3.00591,6.49874c-1.93302,3.83777 -4.76334,7.36316 -6.93359,11.09156l-0.35218,0.16403l0.11128,0.11128l-0.50368,0.50368c-1.10215,3.41437 -4.76859,6.53399 -7.57124,7.49399c-0.66894,0.22913 -1.47159,0.35164 -2.31016,0.41586z" fill="#671b72"></path><path d="M294.82902,173.79977c-0.35558,0.1408 -0.72426,0.266 -1.10162,0.37608c-2.80794,4.18453 -10.49683,3.32694 -14.43914,1.32615c-2.46351,-1.25028 -3.24602,-3.00966 -4.89122,-5.05365c-0.84093,-1.04477 -1.96465,-1.88833 -2.60356,-3.06752c-2.20228,-4.06459 -1.67679,-9.23716 -1.67679,-13.66415c0,0 0,-1.82201 1.48307,-2.4999l0.19676,-1.7708c0.04948,-0.50639 0.23631,-0.97252 0.52275,-1.36064c0.07304,-0.39399 0.158,-0.78942 0.25511,-1.18626l0.11273,-0.12474l-0.06199,-0.02324l0.97746,-2.60655c0.37434,-1.07393 1.3959,-1.84452 2.59745,-1.84452c1.51878,0 2.75,1.23122 2.75,2.75v1.63435c1.74022,3.0126 3.59784,5.72403 5.34904,9.08267c0.54585,1.04689 1.31094,3.5087 2.68005,4.27702c2.52893,1.4192 5.52926,0.93503 8.22091,1.25596c1.7231,0.20545 4.17003,-0.46989 5.11132,0.98794c2.52832,3.91579 -0.70605,7.15056 -2.57798,9.74539l-1.67457,1.3048c0,0 -0.52013,0.34676 -1.22975,0.46163z" fill="#170619"></path><path d="M280.29384,118.49595c-2.11261,1.76051 -3.87312,-0.3521 -3.87312,-0.3521l-1.45082,-1.7864c-0.2443,0.07111 -0.50265,0.10923 -0.76991,0.10923c-1.09781,0 -2.04537,-0.64327 -2.48632,-1.57345l-1.30669,-2.61338l0.17148,-0.08574l-0.3492,-0.36524c-0.21979,-1.8622 -0.59767,-3.72982 -1.27084,-5.47994c0,0 -0.27971,-0.74589 -0.13659,-1.58532c-0.82023,-0.47594 -1.37184,-1.36369 -1.37184,-2.38027c0,-0.11629 0.00722,-0.2309 0.02123,-0.3434l0.31644,-2.84792c0.01392,-4.00773 0.36194,-9.72955 2.86266,-13.10334c1.25286,-1.69027 3.11491,-2.83133 4.60513,-4.31656c1.97529,-1.96867 4.04064,-4.41447 6.8143,-5.35413c0.43201,-0.14635 5.97739,-0.12013 6.79691,-0.118c1.47991,0.00386 3.28824,0.10347 5.09136,0.44008c2.17914,-0.19526 4.31902,0.27403 6.17351,2.01912c0.51742,0.4869 0.76295,1.16985 0.98994,1.86618c0.22274,0.33013 0.41725,0.68474 0.57942,1.06557c0.01805,0.04239 0.0358,0.08487 0.05327,0.12745l1.43053,0.81745c0.85329,0.46685 1.43197,1.37292 1.43197,2.41415c0,0.48925 -0.12776,0.94867 -0.35175,1.34669c0.01216,0.10497 0.01842,0.21174 0.01842,0.31997c0,1.51878 -1.23122,2.75 -2.75,2.75c-0.67623,0 -1.29545,-0.24408 -1.77437,-0.64895l-0.22588,-0.18824c-0.13016,0.05573 -0.26191,0.10823 -0.39543,0.15713c-0.97828,0.3583 -2.06828,-0.26769 -3.10852,-0.32526c-2.69193,-0.149 -6.10046,-0.29866 -8.55283,1.02454c-2.77532,1.49745 -3.4707,3.22039 -4.8362,5.83235c-2.79772,5.35154 -5.72409,11.52841 -3.39621,17.68259l1.40206,1.622c0,0 1.76051,2.11261 -0.3521,3.87312z" fill="#170619"></path><path d="M296.65148,82.60716l-0.84546,-0.38907c-0.01734,-0.2052 -0.03467,-0.4104 -0.05201,-0.61559l-0.28005,0.11202l-0.65403,-1.63508c-0.07719,-0.18074 -0.11992,-0.37971 -0.11992,-0.58867c0,-0.82843 0.67157,-1.5 1.5,-1.5c0.49699,0 0.93752,0.2417 1.21047,0.61397l0.64146,0.85528c0.41143,-0.06809 0.83809,-0.23378 1.21513,-0.08149c0.95389,0.38528 2.06487,0.81119 2.57157,1.70652c1.00359,1.77335 -0.22303,5.28416 -2.74497,5.23527c-1.10101,-0.02134 -1.7992,-1.38317 -2.31669,-2.35522c-0.21605,-0.40582 -0.17519,-0.8807 -0.12551,-1.35794z" fill="#99712b"></path><path d="M287.53335,82.32409c-0.01146,0 -0.02289,-0.00013 -0.03429,-0.00038c0.07096,0.35599 0.35412,0.67882 0.65841,0.99185c0.13393,-0.22608 0.1683,-0.50846 0.03424,-0.82065c-0.03084,-0.07183 -0.09077,-0.16394 -0.16303,-0.25453c-0.15507,0.05423 -0.32175,0.08371 -0.49533,0.08371zM285.84695,79.45531c1.58379,-1.03775 4.33571,0.34909 5.02803,1.69796c2.1352,4.16012 -3.92152,7.71486 -6.82817,4.29673c-1.17836,-1.38572 -0.55743,-3.38864 -0.3264,-4.87251c0,0 0.2466,-1.47959 1.72619,-1.23299c0.15065,0.02511 0.28341,0.063 0.40035,0.11081z" fill="#99712b"></path><path d="M277.66643,92.22175c5.65588,4.16646 -3.01696,9.97484 -5.80807,4.6065c-0.39204,-0.75404 -0.23792,-1.70089 -0.14386,-2.54554c0.09579,-0.86023 0.46242,-1.66786 0.69952,-2.50064c0.04912,-0.19066 0.13479,-0.36664 0.24909,-0.52003c0.252,-0.36726 0.73073,-0.77579 1.56061,-0.56185c0.03862,0.00943 0.07666,0.02036 0.11405,0.03272c0.31049,0.09825 0.53018,0.24609 0.68427,0.41606l0.87713,0.65785c0.59814,0.1187 1.27998,0.05599 1.76725,0.41494z" fill="#99712b"></path><path d="M292.75106,165.67153c0.11675,-0.36233 0.24913,-0.71973 0.38957,-1.07119c0,0 0.55709,-1.39272 1.9498,-0.83563c1.39272,0.55709 0.83563,1.9498 0.83563,1.9498c-0.07208,0.18001 -0.14488,0.35972 -0.21832,0.53918c0.15152,0.74059 -0.39048,1.25898 -0.59804,1.42666c-0.33794,0.78958 -0.6844,1.57558 -1.03262,2.3606l-0.87707,-0.14348v0.42662h-1.66667v-0.69927l-1.38582,-0.22671c0.24583,-0.40745 0.49166,-0.8149 0.73749,-1.22235l-0.41233,-0.41233l1.66667,-1.66667z" fill="#99712b"></path><path d="M281.24941,158.77869c0.16091,-0.33802 0.39166,-0.59481 0.74858,-0.68915c3.3851,-0.89473 4.59958,5.13065 3.0287,6.68553c-1.68487,1.6677 -4.47927,0.99452 -5.50165,-0.94683c-1.10049,-2.08967 0.14375,-3.13562 1.14164,-4.57082c0,0 0.2181,-0.29081 0.58273,-0.47873z" fill="#99712b"></path><path d="M278.44304,151.2799c0.0989,0.08296 0.19624,0.18544 0.2903,0.31086c0.9,1.2 -0.3,2.1 -0.3,2.1c-0.24444,0.12907 -0.48889,0.25814 -0.73333,0.38721v1.07946c0,0.82843 -0.67157,1.5 -1.5,1.5c-0.41421,0 -0.78921,-0.16789 -1.06066,-0.43934l-1.33333,-1.33333l0.14225,-0.14225c-0.24289,-0.23173 -0.44343,-0.49627 -0.57781,-0.81208c-0.34909,-0.8204 0.86415,-1.55978 1.29623,-2.33967l2.16953,-0.88855c0,0 1.07332,-0.26833 1.60683,0.57769z" fill="#99712b"></path></g><path d="M268.04111,140.73791c2.72876,0.3411 2.38767,3.06986 2.38767,3.06986l-0.35885,2.83052c-0.08621,0.3362 -0.17519,0.71265 -0.26316,1.12029c0.17267,-0.02723 0.35895,-0.04191 0.55992,-0.04191c2.75,0 2.75,2.75 2.75,2.75c0,2.18148 -0.58011,5.62856 0.6285,7.6197c1.20413,1.98376 3.40596,3.15911 4.98549,4.8592c3.84697,4.1406 7.68674,6.41037 13.01851,8.47721l0.27041,0.39372l0.10759,-0.12911l1.98387,1.65322c0.61399,0.50435 1.00563,1.26947 1.00563,2.12605c0,1.38032 -1.01696,2.52312 -2.34249,2.72002l-3.95541,0.65923l-0.01322,-0.07933c-0.22781,0.0455 -0.45802,0.0811 -0.691,0.10516c-1.55123,0.16024 -2.96505,-0.97043 -4.42647,-1.5147c-4.0977,-1.52609 -6.24144,-3.06657 -9.66183,-6.1252c-2.84808,-2.54684 -7.43038,-6.424 -9.11156,-9.85342c-2.05765,-4.19738 -1.31748,-11.38614 -0.25125,-15.75004l0.30781,-2.50281c0,0 0.3411,-2.72876 3.06986,-2.38767z" fill="#51165a"></path><path d="M190.03334,166.21666c-2.75,0 -2.75,-2.75 -2.75,-2.75v-1.33333c0.1016,-1.30834 -0.33197,-2.77758 0.30479,-3.92502c1.00653,-1.81378 2.2805,-2.57062 3.72214,-2.87327l-0.02687,-0.0627l2.27746,-0.97605c0.34709,-0.15818 0.73283,-0.2463 1.13916,-0.2463c1.51878,0 2.75,1.23122 2.75,2.75c0,0.68898 -0.25337,1.31879 -0.67202,1.80132l-1.99002,2.32169l-0.00396,-0.00339l-0.0052,0.01402c-0.66515,0.76019 -1.33031,1.52038 -1.99546,2.28058v0.25245c0,0 0,2.75 -2.75,2.75z" fill="#170619"></path><path d="M196.2566,105.67939l0.78127,-1.07809c1.92745,-0.30537 4.13767,-2.11016 5.76311,-1.03023c1.13909,0.7568 0.74897,2.6437 0.89902,4.00302c0.1199,1.08621 0.48006,2.34801 -0.09541,3.27702c-0.10795,0.17427 -0.22632,0.33966 -0.35337,0.49766l0.07625,0.05446l-1.65117,2.31164c-0.36126,0.51931 -0.96241,0.85921 -1.64296,0.85921c-1.10457,0 -2,-0.89543 -2,-2v-1.7848c-1.19432,-1.29964 -1.81022,-1.24375 -3.66667,-1.2152c0,0 -2,0 -2,-2c0,-2 2,-2 2,-2c0.71862,0.008 1.3397,0.03999 1.88993,0.10531z" fill="#170619"></path><path d="M194.7,106.90742c0,-1.10457 0.89543,-2 2,-2c1.10457,0 2,0.89543 2,2c0,1.10457 -0.89543,2 -2,2c-1.10457,0 -2,-0.89543 -2,-2z" fill="#99712b"></path></g><g fill-opacity="0.37647" fill="#160a1f"><path d="M190.12937,287.88157c0.43995,-0.14828 0.89056,-0.27932 1.34938,-0.39302c3.94463,-0.97753 7.74928,-0.39345 10.97178,1.38197c2.35916,-0.37158 4.66992,-0.91898 7.3384,-0.65119l0.20605,0.14617l0.02651,-0.08839l2.44621,0.73386c1.05813,0.29104 1.83542,1.2601 1.83542,2.41071c0,1.1506 -0.77729,2.11966 -1.83542,2.41071l-2.18126,0.65438c-0.01707,0.10683 -0.02268,0.21844 -0.01559,0.33537c0.12267,2.02237 1.58884,3.67663 1.70286,5.85248l1.30615,0.97961c0.62044,0.45492 1.02327,1.18914 1.02327,2.01745c0,1.38071 -1.11929,2.5 -2.5,2.5c-0.22871,0 -0.45025,-0.03071 -0.66072,-0.08824l-2.94562,-0.73641l0.07091,-0.28363c-5.23649,0 -10.31805,-0.64443 -15.71457,-0.64173c-3.76517,0.00188 -7.10325,0.85568 -9.4723,-3.10483c-0.22439,-0.37513 -0.34433,-0.79099 -0.41014,-1.22585c-0.81598,-0.21272 -1.46965,-0.82731 -1.73696,-1.61973l-0.98008,-2.69522l0.51165,-0.18606l-0.63507,-1.03538c0.85439,-1.18146 1.6896,-2.77552 2.79402,-3.85111c0.1961,-1.93565 1.45068,-3.39654 4.88723,-4.03147c0.94635,-0.17485 1.72458,0.78335 2.6179,1.20955z"></path><path d="M259.55313,293.17167c1.99991,0 2.39997,1.59985 2.47999,2.23991c4.68878,-0.09226 9.99946,-0.76844 14.52001,0.01009c1.58171,0.2724 4.08809,-0.26949 4.65468,1.23218c2.42032,6.41472 -4.34607,6.04437 -7.07148,6.26644c-3.63617,0.29627 -7.57862,0.12357 -11.19648,-0.25118c-1.264,-0.13093 -2.75353,0.31038 -3.78829,-0.42726c-1.11737,-0.79654 -1.27974,-2.4278 -1.91962,-3.6417l-0.17881,-2.92847c0,0 0,-2.5 2.5,-2.5z"></path><path d="M273.30977,70.40114c-0.64797,-0.13904 -1.32994,-0.49063 -2.07681,-1.20883c-0.81281,-0.7816 0.7752,-2.13963 0.90391,-3.2599c0.02329,-0.20269 -0.35655,0.2201 -0.55821,0.25106c-0.58606,0.08998 -1.1837,0.07152 -1.77554,0.10727c0,0 -2.5,0 -2.5,-2.5c0,-2.5 2.5,-2.5 2.5,-2.5c0.02664,0.00088 0.05336,0.00151 0.08012,0.00191c-0.14346,-0.31179 -0.33478,-0.58058 -0.60858,-0.77357c-2.63957,-1.86055 -6.63939,-0.97834 -9.72154,-0.97834c0,0 -1.43016,0 -2.12708,-1.0817c-0.68305,0.05157 -1.38976,0.07474 -2.12292,0.0817h-2.75v0c-1.38071,0 -2.5,-1.11929 -2.5,-2.5c0,-0.82832 0.40283,-1.56253 1.02328,-2.01745l2.97672,-2.23255l0.03706,0.04941c0.10685,-0.09506 0.21626,-0.18755 0.3285,-0.27719c2.20245,-1.75908 3.98777,-0.91991 6.28998,-1.45051c0.74507,-0.17172 1.45748,-0.46349 2.13482,-0.84138c0.39637,-0.83909 0.80311,-1.72646 1.3639,-2.59334c2.33204,-3.60495 3.95557,-6.04423 5.4999,-10.25125c0,0 0.78629,-2.13421 2.89456,-1.58133c0.1323,-0.71876 0.62398,-2.0544 2.4513,-2.0544c2.5,0 2.5,2.5 2.5,2.5c0,2.80288 0.08559,5.50447 0.24483,8.20866c0.02236,0.02966 0.04461,0.0594 0.06677,0.08923c0.61363,0.8263 0.96622,2.56433 1.68098,3.83872l2.465,-0.75846c1.41167,-0.87902 3.64245,-0.60063 5.17703,-1.21294l0.33258,-0.15349c0.39472,-0.21025 0.72703,-0.50098 0.96449,-0.91602c0.38314,-0.66965 0.47923,-1.4667 0.71884,-2.20006l-0.15052,0.35436c0,0 0,-2.5 2.5,-2.5c2.5,0 2.5,2.5 2.5,2.5l-0.15052,1.35436c-0.28484,0.73367 -0.49847,1.36742 -0.70333,1.9303c0.06756,0.22664 0.10384,0.46675 0.10384,0.71534c0,0.45693 -0.12259,0.88523 -0.33666,1.2538l-1.22795,2.2103l-0.14999,-0.08332l-0.09073,0.44029c-3.26846,2.82848 -5.01144,3.4794 -9.30795,3.17636c-0.14481,-0.01022 -0.29138,-0.0135 -0.43903,-0.01246c0.80667,0.64644 1.66625,1.24846 1.78281,2.20336c0.2162,1.77107 -3.00756,5.82438 -5.27858,6.96424c-0.16969,0.87351 -0.49169,1.61514 -0.98354,2.16083c0.86982,-0.06886 1.76751,0.04431 2.60601,0.25346c1.41279,0.35241 2.48205,0.9441 3.50734,1.6503c0.08085,0.03146 0.16009,0.06428 0.2376,0.09852c0.05617,0.02481 0.11206,0.05012 0.16767,0.07594l0.0087,-0.02783l3.94576,1.23305c1.04439,0.29995 1.80855,1.26231 1.80855,2.40315c0,1.38071 -1.11929,2.5 -2.5,2.5h-2.5v-0.36363l-0.72446,0.25636c-0.18498,-0.11513 -0.95277,-0.60832 -1.84655,-1.1609c-2.13467,0.12144 -4.27623,-0.73828 -6.42899,-0.73183h-0.5c0,0 -1.00752,0 -1.74336,-0.63961z"></path><path d="M295.19936,162.89869c-0.38183,0.89206 -1.26761,1.51707 -2.29936,1.51707c-1.38071,0 -2.5,-1.11929 -2.5,-2.5c0,-0.14474 0.0123,-0.2866 0.03591,-0.42461l0.1482,-0.96329c-2.1638,1.93096 -5.67148,-0.8347 -7.9184,-3.84138c-2.04434,-2.7356 -2.76948,-6.28934 -4.62486,-9.17853c0,0 -0.77348,-1.21547 -0.22339,-2.38817c-0.06009,-0.08705 -0.12906,-0.16682 -0.21005,-0.23668c-0.48162,-0.41544 -4.69574,-0.89441 -5.23919,-0.53422c-0.56957,0.3775 -0.76962,1.11919 -1.11123,1.72136l-0.19942,0.86414c0.82723,0.21273 1.377,0.84105 1.377,0.84105c2.82522,3.33222 2.95613,6.2304 3.64561,9.91144c1.1902,0.13122 2.12875,1.09793 2.21627,2.30077l0.24472,2.93667c0.24043,0.51216 0.46689,1.03047 0.67455,1.55683l1.56412,1.17309c0.62045,0.45492 1.02328,1.18914 1.02328,2.01746c0,1.38071 -1.11929,2.5 -2.5,2.5c-0.16973,0 -0.33551,-0.01692 -0.49574,-0.04915l-1.09024,-0.19823c-0.43264,0.7458 -1.23976,1.24738 -2.16402,1.24738c-1.38071,0 -2.5,-1.11929 -2.5,-2.5v-0.11113c-0.03472,-0.01351 -0.0695,-0.02666 -0.10435,-0.03939c-2.02291,-0.73883 -4.56065,-1.41231 -6.01984,-3.19498c-4.61693,-5.6404 -4.5266,-15.04887 -3.79503,-21.78484l0.23595,-0.30535l-0.11458,-0.04911l1.47731,-3.44704c0.36946,-0.9192 1.26922,-1.56816 2.32056,-1.56816c0.75197,0 1.4264,0.332 1.88471,0.85742c0.68384,-0.51976 1.33567,-1.0594 1.65246,-1.82004c0.24971,-0.59958 -0.13558,-1.29202 -0.18814,-1.93939c-0.33487,-4.12479 -2.64138,-7.72965 -3.84192,-11.71686l-1.43633,-3.35144c-0.1438,-0.31554 -0.22391,-0.66621 -0.22391,-1.0356c0,-0.47472 0.13231,-0.91853 0.36208,-1.29657c-0.18111,-0.57053 -0.36546,-1.1407 -0.55471,-1.70989c-0.25759,0.08316 -0.55678,0.13146 -0.90425,0.13146c-2.5,0 -2.5,-2.5 -2.5,-2.5l0.02334,-0.40919c-0.02634,-0.19935 -0.05769,-0.39765 -0.0934,-0.59503c-0.15364,-0.09225 -0.24167,-0.16268 -0.24167,-0.16268c-2.1159,-1.71764 -6.35256,-5.26032 -6.45627,-8.56469c-3.99898,3.31664 -5.62627,6.29196 -7.29705,11.29822c-0.2105,1.57026 -0.42099,3.14051 -0.63148,4.71076l-0.31926,2.50524c-0.14039,1.24765 -1.19905,2.21737 -2.4842,2.21737c-0.07935,0 -0.15785,-0.0037 -0.23531,-0.01093c-0.18446,0.14068 -0.38906,0.25629 -0.60873,0.34173c-3.10291,14.66931 -4.44593,29.46011 -6.92294,44.34188c0.02458,0.32223 -0.00594,0.54603 -0.00594,0.54603c-2.65493,19.41088 -4.30185,38.81617 -2.95373,58.35472c0.60533,0.83448 0.45153,1.91106 0.45153,1.91106c-0.07628,0.53261 -0.15379,1.06966 -0.23115,1.61034l0.00627,1.7861c0,0 0.00001,0.80706 -0.45855,1.50409c-0.51501,3.99691 -0.87545,8.10053 -0.55275,12.00834c0.219,2.65194 1.34388,5.23581 1.73104,7.84971c0.4784,3.22992 0.60565,6.59103 0.82573,9.89419c0.10135,0.00406 0.22979,0.01419 0.37458,0.03686c1.7406,0.08328 3.47781,0.2739 5.21114,0.45681c0.32269,0 0.64536,0 0.96805,0c0.56542,-0.04937 1.14263,-0.13498 1.63338,0c0.17246,0 0.34493,0 0.5174,0h2.75c1.38071,0 2.5,1.11929 2.5,2.5c0,1.31306 -1.0123,2.3897 -2.29905,2.49204l-2.72461,0.2477l-0.00489,-0.05378c-0.06763,0.02229 -0.13565,0.04364 -0.20409,0.06399c-1.62106,0.4819 -3.83782,0.11946 -5.9811,-0.24994c-1.34542,0 -2.69084,0 -4.03626,0c0,0 -0.11879,0 -0.30457,-0.02589c-0.18652,-0.01994 -0.30176,-0.04875 -0.30176,-0.04875l-0.01274,-0.01082c-0.21098,-0.05069 -0.45446,-0.13144 -0.69479,-0.26008c-0.53725,0.02202 -1.0727,0.03839 -1.60645,0.04917c-0.12732,0.13668 -0.26977,0.25907 -0.42468,0.36452l-2.47134,1.72994l-0.09167,-0.13096c-0.187,0.16631 -0.38314,0.32276 -0.59038,0.46722c-0.88971,0.62021 -2.16773,0.07711 -3.2516,0.11566h-2c0,0 -2.5,0 -2.5,-2.5c0,-0.23623 0.02232,-0.45014 0.06275,-0.64384c-6.33836,-0.79728 -12.55039,-2.34526 -18.85718,-4.48575c-3.02943,-1.02817 -5.13527,-3.01242 -7.98617,-4.34273c-3.04335,-1.42011 -7.28505,-1.77076 -10.58883,-2.18374c-5.0491,-3.37031 -10.68248,-5.75558 -15.73538,-8.99288c-2.51927,-1.61406 -2.2846,-2.30242 -4.35403,-4.27627c-1.26084,-1.20262 -3.01765,-1.77192 -4.36222,-2.88013c-2.10034,-1.73112 -3.19115,-4.29601 -5.01201,-6.24471c-2.03939,-2.18257 -5.23076,-3.62687 -6.28862,-6.65938c-0.36155,-1.03644 -0.08553,-2.19371 -0.1283,-3.29057v-0.25c0,0 0,-2.5 2.5,-2.5c0.21785,0 0.41672,0.01898 0.59826,0.05364c0.01957,-0.06761 0.04192,-0.13404 0.06691,-0.19916l1.23047,-3.44532l0.04121,0.01471c0.01853,-0.08528 0.03822,-0.17038 0.05915,-0.25529c0.69061,-2.80179 3.55315,-6.00993 4.68281,-8.84706l2.30343,-2.58929c0,0 1.76777,-1.76776 3.53554,0c0.56984,0.56984 0.7723,1.13969 0.78502,1.65032c0.4976,-0.86058 0.95899,-1.7467 1.0627,-1.93405c3.14416,-4.70268 7.0496,-8.86628 10.37219,-13.43193c1.34538,-1.84872 1.79932,-4.20422 2.73217,-6.29171c1.06673,-2.38708 2.54332,-3.61395 3.89392,-5.77352c2.45056,-3.91836 3.94493,-8.90204 5.54661,-13.08235c1.10602,-2.88665 2.94211,-5.36493 4.51522,-7.98987c-0.92853,-0.46649 -1.79578,-1.29406 -2.54239,-1.96627c-2.03983,-1.83656 -3.71884,-6.95731 -4.32311,-9.61798c-0.3856,-1.69786 -0.05713,-3.51357 -0.48839,-5.20041c-1.0429,-4.07921 -3.41274,-8.65308 -2.53379,-13.02823c0.91718,-4.56544 4.68828,-6.12171 6.80988,-9.83826c0.89121,-1.5612 1.63327,-3.20344 2.40642,-4.82636c0.98755,-2.07296 1.09793,-5.3381 3.14686,-6.83433c0.16425,-0.11995 0.33462,-0.2278 0.51017,-0.32542l-0.048,-0.072l0.13675,-0.09116v-1.70964h0.10566c-0.02041,-0.20443 -0.03043,-0.41025 -0.02814,-0.61772c0.01388,-1.25349 1.14149,-2.23236 1.7324,-3.33791c1.27197,-2.37974 2.90621,-4.38936 4.33725,-6.64644c0.27654,-0.43618 0.53487,-0.87792 0.77827,-1.32412c0.30335,-1.45337 0.63456,-2.9102 1.39515,-4.29862c0.43422,-0.79265 0.91752,-1.55037 1.43227,-2.28528c1.21822,-3.20846 2.47588,-6.37648 4.8657,-9.13616l2.13144,-0.85374c0,0 0.17167,0 0.42504,0.04498c0.0374,-0.06848 0.07441,-0.13723 0.11102,-0.20623c1.27981,-2.41165 3.03845,-5.46052 3.48811,-8.18551c0.16902,-1.02428 -0.26565,-2.16588 0.16613,-3.10995c0.19534,-0.42709 1.93126,-2.20311 3.23139,-3.50581l-0.47938,-0.82594c-0.75361,-1.81641 -1.00318,-3.83882 -1.92066,-5.57822c-1.74662,-3.3113 -3.94243,-5.02607 -4.50292,-9.07786c-0.60627,-4.38283 -0.39582,-10.51808 1.76737,-14.46677c2.62638,-4.7942 7.17276,-8.34938 12.02592,-10.93644l-0.23443,-0.26048l2.49287,-2.24358c0.33508,-0.30409 0.75305,-0.51849 1.21599,-0.60529c0.38664,-0.60687 0.77688,-1.21469 1.18474,-1.80822c0.23863,-0.43163 0.49478,-0.84098 0.77064,-1.22372c0.11712,-0.1625 0.33103,-0.36964 0.607,-0.60281c0.47058,-0.55706 0.97499,-1.08234 1.5281,-1.55963c1.19574,-1.03185 2.19709,-1.58614 3.22853,-1.92762l1.87434,-1.40575c0.42123,-0.32311 0.94829,-0.51515 1.5202,-0.51515c1.38071,0 2.5,1.11929 2.5,2.5c0,0.79811 -0.37399,1.50888 -0.95629,1.9666l-2.25649,1.80519c-0.22154,0.34953 -0.62337,0.5349 -1.06743,0.68876c-0.68519,0.36191 -1.41446,0.67903 -2.02902,1.11207c-0.55213,0.60745 -0.97585,1.33949 -1.48648,1.98647c-0.01477,0.01872 -0.02953,0.03743 -0.04428,0.05612c-0.29672,0.69968 -0.53065,1.49302 -0.72913,2.29669c0.35559,0.43184 0.56912,0.98504 0.56912,1.58811c0,0.4199 -0.10352,0.81561 -0.28643,1.16302l-1.20295,2.40591c-0.19619,0.45659 -0.40787,0.91642 -0.62882,1.37924c-0.67963,2.51754 -1.40541,5.02954 -1.93644,7.57164c-0.23504,1.12514 0.0328,2.40855 -0.53843,3.40599c-0.05062,0.08839 -0.10281,0.17567 -0.15644,0.26192l0.0572,0.02383l-1.14314,2.74352c0.03543,0.3403 0.06524,0.72306 0.08234,1.17041c0.07926,2.0732 -0.38944,4.18089 -0.02917,6.22408c0.31003,1.75829 1.11598,2.92726 1.90921,4.34983c0.60083,-2.99755 1.50055,-5.89959 3.26054,-8.53625c0.01709,-0.0256 0.03397,-0.05152 0.05066,-0.07775c0.04841,-0.68571 0.07403,-1.37888 0.07403,-2.08172l0.14195,-0.22283l-0.10557,-0.02112l0.49092,-2.45459c0.20987,-1.16847 1.23165,-2.05512 2.46053,-2.05512c1.07719,0 1.99527,0.68127 2.34685,1.63646c0.12753,0.05205 0.25872,0.11591 0.3935,0.19293c0.68038,0.38878 1.02562,0.86898 1.17899,1.34507c0.9258,0.3663 1.58066,1.26944 1.58066,2.32554c0,0.57191 -0.19204,1.09896 -0.51515,1.5202l-1.48485,1.9798l-0.00588,-0.00441l-0.00735,0.0219c-0.81099,1.0286 -1.63331,2.15893 -2.287,3.37122c-0.2059,0.98927 -0.4446,1.97335 -0.70684,2.95715c-0.05588,0.29153 -0.10864,0.5829 -0.15738,0.87345c0.00351,0.25006 0.00587,0.49912 0.00515,0.7462c0.61264,-0.06963 1.33813,0.09767 2.02783,0.87358c0.78877,0.88737 0.78154,1.72792 0.55645,2.36598c1.01855,1.53685 1.12711,3.4044 0.7857,5.34835c0.2569,0.27729 0.46173,0.57179 0.48636,0.93471c0.17698,2.6071 -1.44353,6.57697 -2.34269,9.10271l-1.40218,1.9709c0,0 -0.6028,0.7535 -1.52752,0.94974c-0.21574,2.31296 -0.56376,4.6155 -1.11346,6.91642c-0.41043,1.71795 -0.49518,3.5959 -1.40693,5.10868c-0.03363,0.0558 -0.06771,0.11126 -0.10224,0.1664l0.02961,0.01333l-1.62373,3.60828c-0.20054,2.46635 -0.18109,3.80723 -1.11318,6.29278c-0.2055,0.54798 -0.43858,1.0845 -0.69296,1.61222c-0.82609,3.36365 -2.38084,6.75761 -3.35761,9.01385c-0.96384,2.22639 -1.51189,4.64831 -2.64672,6.78582c2.174,-1.02934 4.41542,-1.32869 6.53513,-2.65396c2.75685,-1.72361 3.94674,-2.8945 4.45315,-4.76574c0.00298,-1.1751 0.09052,-2.2074 0.34137,-2.807c0.01684,-0.50508 0.0225,-1.05376 0.02291,-1.65449v-3.39807c0,-0.96033 0.54147,-1.7942 1.33577,-2.21294c-0.08955,-1.29538 -0.04592,-2.60603 0.19651,-3.93752c0.58641,-3.22064 2.17972,-6.23806 3.84464,-9.07342c0.48213,-1.23075 0.92154,-2.47342 1.17163,-3.76641l-0.04855,-0.50971c0,0 0,-2.5 2.5,-2.5c2.5,0 2.5,2.5 2.5,2.5l-0.04854,1.49029c-0.08183,0.39812 -0.17623,0.79305 -0.2809,1.18532c0.34903,1.06753 -0.27682,2.11063 -0.27682,2.11063c-0.35511,0.59002 -0.69939,1.17032 -1.02876,1.74518c-0.3288,0.84614 -0.67065,1.68755 -1.00029,2.52993c-0.6046,1.54501 -0.29728,2.90656 -0.36628,4.52777c-0.13397,3.14815 -1.0214,5.85804 -1.01714,8.96635c-0.03723,0.14941 -0.07723,0.29978 -0.11965,0.45104c0.47672,1.6106 1.05548,3.21509 1.52207,4.83007c0.31441,-0.35251 0.7272,-0.61538 1.19527,-0.74549c2.12616,-4.94437 4.92792,-8.43857 9.19688,-12.21699c0.07996,-0.16471 0.14404,-0.26084 0.14404,-0.26084c1.71055,-2.54836 3.72186,-4.08347 4.35473,-6.98397l0.23506,-2.35053c0.1042,-1.18821 1.03961,-2.13801 2.22131,-2.26444c0.16104,-0.81686 0.35403,-1.63243 0.57533,-2.444c-0.03397,-0.0453 -0.06876,-0.09085 -0.10438,-0.13665l-1.23625,-1.73056c0,0 -1.4531,-2.03433 0.58124,-3.48743l-0.00006,-0.00006c2.03433,-1.4531 3.48743,0.58124 3.48743,0.58124l1.26374,1.76944c0.69552,1.06101 1.71089,1.97128 2.08657,3.18304c1.10294,3.55747 -0.65751,7.6985 -0.38894,11.35432c0.11215,1.52665 0.49854,2.8042 0.61307,3.92561c0.10086,0.03872 0.19669,0.08567 0.28469,0.14506c0.95549,0.64481 1.89569,1.37317 2.58487,2.29717c1.092,1.46407 1.90773,3.79521 1.89608,5.98409c0.9319,-0.15523 1.91222,-0.13007 2.83911,-0.03136c0.96285,0.10254 1.66294,1.07587 2.61084,1.27353c0.37487,0.07817 0.75286,0.12352 1.13305,0.14584c-0.23279,-2.1982 -0.35881,-4.43044 -0.36054,-6.71863c0,0 0,-1.71534 1.42088,-2.30427c0.36096,-4.36357 3.38105,-8.46239 5.18605,-12.42898l1.21621,-2.9189c0.3634,-0.93176 1.2696,-1.59194 2.32998,-1.59194c0.48173,0 0.93163,0.13625 1.31328,0.37232c-0.19842,0.25761 -0.34228,0.5594 -0.41428,0.8881c-0.08739,0.07946 -0.17434,0.16894 -0.26044,0.26939c-1.46428,1.70833 0.24405,3.17261 0.24405,3.17261c1.69666,1.44046 3.04777,3.14 4.38439,4.86796c1.60675,3.68711 2.4757,7.50211 4.30761,11.41007c2.61141,5.57084 7.62965,9.55387 11.9731,13.64538c0.6275,0.5911 3.86718,4.54713 4.31258,4.80721c0.07548,0.04408 0.15147,0.0871 0.22793,0.12913l-0.02205,0.03185l0.32207,0.22297c0.16801,3.24643 -2.96329,5.48202 -4.12523,8.3286c-0.74503,1.82521 -0.92407,3.91736 -2.01174,5.56157c-1.19678,1.80913 -2.89992,3.25308 -4.05789,5.08729c-1.74186,2.75907 -2.98176,5.71127 -4.53897,8.56418c-1.23908,1.98063 -2.47729,3.9618 -3.71551,5.94296l-0.09008,-0.17962c0,0 -1.87211,1.24808 -0.62404,3.12019c0.33998,0.50997 0.72626,0.78841 1.1084,0.92362zM195.76546,130.45424l-0.27057,0.81498c-0.85059,2.85428 -3.49024,7.7339 -1.43682,10.725c0.98265,1.43137 2.21787,3.47034 3.95233,3.39248c1.48139,-0.0665 1.77756,-2.38515 2.49673,-3.68197c1.72619,-3.11271 1.88512,-6.33399 1.89286,-9.78897c0,0 0,-2.25 -2.25,-2.25c-0.17124,0 -0.32946,0.01303 -0.47563,0.03712c-0.23307,-0.27016 -0.57303,-0.50838 -1.06286,-0.67165c-2.13454,-0.71151 -2.84605,1.42302 -2.84605,1.42302z"></path></g><g fill-opacity="0.37647" fill="#160a1f"><path d="M283.99717,59.13933l-1.73079,2.28785c0,0 -0.68856,0.86069 -1.77587,1.22968c-0.24621,0.48714 -0.49308,0.9739 -0.76133,1.44661c0.07067,0.03151 0.13735,0.06561 0.19705,0.10421l0.74865,0.55821c0,0 2.47487,2.47488 0,4.94975c-2.47487,2.47487 -4.94975,0 -4.94975,0l-1.91801,-2.10846c-0.6911,-1.7284 -2.23872,-3.33112 -2.07329,-5.1852c0.12378,-1.3873 1.45321,-2.32197 2.44753,-3.3732c-1.0263,-0.01534 -2.05268,-0.03659 -3.07925,-0.06083c-3.21047,1.32424 -7.58727,2.31349 -8.6954,-0.09952c-0.01722,-0.03749 -0.03394,-0.07488 -0.05017,-0.11213c-1.27355,-0.02184 -2.54787,-0.03553 -3.8232,-0.03553c0,0 -3.5,0 -3.5,-3.5c0,-3.5 3.5,-3.5 3.5,-3.5c2.40132,0 4.81524,-0.06481 7.22656,-0.08427c0.00579,-0.0037 0.01158,-0.0074 0.01738,-0.01109c0.12953,-1.32982 -0.01038,-2.741 0.56236,-3.93699c0.50889,-1.06269 2.7271,-2.98459 4.98665,-4.32712c0.02357,-0.61191 0.04039,-1.21613 0.04039,-1.80719c0,0 0,-1.62187 1.30633,-2.25294c0.01495,-0.91907 0.02699,-1.83544 0.02699,-2.74706l0.40798,-1.93968c0,0 0.60634,-2.42536 3.0317,-1.81902c2.42536,0.60634 1.81901,3.03169 1.81901,3.03169l-0.25869,0.727c0,4.62916 -0.3345,9.39124 0.30896,13.98506c0.02208,0.15765 0.04776,0.31117 0.07629,0.46089c0.96078,-1.10207 2.10846,-1.60719 3.52962,-2.28238c1.17676,-1.05574 2.51536,-1.62987 4.1279,-2.53528l0.51117,0.13649l-0.03069,-0.24547l0.68216,-0.08528c0.55946,-0.37919 1.23449,-0.6007 1.96125,-0.6007c1.933,0 3.5,1.56701 3.5,3.5c0,0.87689 -0.32247,1.67846 -0.8553,2.29259l-1.86163,2.1719c-1.43705,2.26115 -2.41552,4.47104 -5.25825,5.49313c-0.06306,0.02267 -0.16305,0.04295 -0.29377,0.06109c-0.03395,0.07019 -0.06748,0.14125 -0.10055,0.21319z"></path><path d="M147.03334,223.90743h0.04719c-0.01026,-0.1421 -0.01734,-0.28463 -0.02096,-0.42764c-0.13673,-5.39354 2.95812,-8.75451 6.23908,-12.28376c3.43101,-3.69066 6.3143,-7.78558 9.7487,-11.41896c2.99311,-3.16652 4.72172,-7.11261 7.47135,-10.45254c1.80981,-2.19835 4.13463,-3.92508 6.03723,-6.04364c5.15114,-5.73583 9.62634,-13.36094 12.73825,-20.36592c0.69287,-1.84823 1.43237,-3.68162 2.19755,-5.50622c-0.51424,0.00236 -1.0792,-0.02371 -1.69933,-0.08065c-5.21246,-0.47858 -5.79027,-7.35442 -6.36955,-10.79619c-0.1477,-0.87756 -1.90502,-4.11223 -2.09773,-4.55881c-1.40899,-3.26504 -2.80139,-7.71293 -1.84118,-11.29735c0.59888,-2.23558 2.78434,-3.69852 4.22861,-5.50698c1.34674,-1.68634 2.03834,-4.75174 2.97901,-6.73397c1.14838,-2.41993 2.68347,-4.32852 4.14579,-6.43987c-0.2993,-0.51574 -0.47066,-1.11495 -0.47066,-1.75418c0,-0.46107 0.08916,-0.90133 0.25117,-1.30446l0.97168,-2.59114l0.36189,0.1357l-0.02744,-0.80162c2.49642,-2.60115 3.77676,-4.59868 5.53674,-7.78113c0.77569,-1.40262 1.14055,-3.14497 2.3528,-4.19353c1.87118,-1.6185 3.39743,-2.85599 4.56347,-3.26076c0.34814,-0.64267 0.66829,-1.28826 0.94813,-1.93541c0.85727,-1.98253 1.1209,-4.19941 2.06564,-6.14179c1.76772,-3.63443 5.53932,-6.60223 8.1205,-9.69984l0.07652,-0.11725c-2.75601,-3.14745 -0.54552,-7.23521 0.46491,-10.66786c-1.00675,-2.21366 -2.31805,-4.36025 -2.90368,-6.74867c-0.03502,-0.14285 -0.06843,-0.28583 -0.10026,-0.42893c-0.14634,-0.12219 -0.28227,-0.25688 -0.40546,-0.40646c-2.59275,-3.14803 -2.79456,-7.5395 -1.94761,-11.77415c-0.02669,-1.29378 0.10059,-2.64968 0.43366,-4.09668c0.18443,-0.80123 2.7314,-7.17046 2.82844,-7.22258c0.42861,-0.23019 0.87815,-0.39274 1.34267,-0.50694l-0.14579,-0.34018l2.26221,-0.96952c0.44175,-0.20132 0.93269,-0.31347 1.44984,-0.31347c1.933,0 3.5,1.56701 3.5,3.5c0,0.77338 -0.25084,1.48819 -0.6756,2.06748l-1.07874,1.51024c0.11844,0.62262 0.0703,1.10388 0.0703,1.10388c-0.40464,3.94436 -1.41867,8.24017 -1.27523,12.36192c0.02927,0.06142 0.05859,0.1228 0.08794,0.18413c1.32802,0.5588 2.89006,0.97583 3.62661,2.17897c0.88841,1.45121 0.53859,3.371 0.57503,5.07217c0.02054,0.95893 -0.05,2.01201 -0.18327,3.08965c0.29683,0.83172 0.60353,1.664 0.93182,2.49838c0.11517,-0.08471 0.22779,-0.17146 0.33599,-0.26173l2.1007,-3.30112c0.61565,-1.00223 1.72199,-1.67064 2.98445,-1.67064c1.81674,0 3.31019,1.38419 3.48326,3.15546l0.32867,2.95802l-0.22332,0.02481c0.08493,0.35059 0.14454,0.70723 0.17198,1.07159c0.11217,1.48974 -1.17792,2.79405 -2.13671,3.93975c-1.90312,2.27412 -5.32867,4.44542 -8.51887,5.02945c-0.18094,0.74452 -0.52616,1.26236 -0.52616,1.26236l-1.55674,2.29919c-0.7397,0.88759 -1.68147,1.80433 -2.65052,2.74925c1.42605,0.44235 2.46174,1.77194 2.46174,3.34343c0,0.26002 -0.02835,0.51342 -0.08214,0.75728l-0.60489,3.02448c-0.21764,6.00045 -4.59,10.73469 -5.33919,16.64588c-0.4015,3.16789 1.72471,4.68054 1.99149,7.74716c0.17503,2.01188 -0.04162,3.92658 -0.54479,5.75387c1.13062,0.05398 2.27141,0.21609 3.25654,0.3412c1.3496,0.1714 2.82465,0.91008 4.3701,1.83254c2.76815,-1.47458 4.78323,-2.47268 8.45288,-2.26908c0.08557,0.00474 0.17208,0.00777 0.25938,0.00941c0.10378,-0.50953 0.20664,-1.01925 0.30859,-1.52915c0,0 0.31362,-1.56809 1.57683,-2.37241c0.52394,-2.05828 1.01869,-4.1258 1.41515,-6.25286c0,0 0.645,-3.44006 4.08506,-2.79505c3.44006,0.64501 2.79504,4.08507 2.79504,4.08507c-0.67801,3.59626 -1.59292,7.03948 -2.52226,10.5226c0.02733,-0.00063 0.05473,-0.00095 0.08221,-0.00095c1.933,0 3.5,1.567 3.5,3.5c0,0.37823 -0.05999,0.74244 -0.17098,1.08364l-0.97663,3.25541l-0.62548,-0.18764l0.05551,1.30516c-0.43723,0.28352 -0.85877,0.59882 -1.2784,0.91799c-0.27164,0.3098 -0.57793,0.61668 -0.75149,0.94361c-0.53863,1.01463 -1.07753,2.03121 -1.5443,3.08084c-1.16434,2.61828 -2.24882,5.74462 -2.76381,8.55561c-0.96074,5.24406 0.67815,10.82 -0.33391,16.0032c-0.57999,2.97038 -2.73998,4.99309 -3.37314,7.85616c-1.11275,5.03178 -1.93819,10.45721 -2.49012,15.73339c0.05032,0.00919 0.10124,0.01928 0.15277,0.03033c3.42231,0.73335 2.68895,4.15566 2.68895,4.15566c-1.7382,8.10752 -2.92757,16.26789 -2.9223,24.59999c0.00179,2.83464 -0.4769,6.6849 -0.02623,9.57235c0.21194,1.35793 0.8119,2.63857 1,4c0.66592,4.81979 -0.66921,9.85391 0.27689,14.67146c0.98118,4.99617 2.20502,10.10762 3.36219,15.14482c0.25859,2.08065 0.38486,4.18139 0.38715,6.27804c0.0032,2.93512 -1.16488,4.78056 1.75323,5.5412l3.05652,0.30565c1.78791,0.15679 3.19025,1.65787 3.19025,3.48649c0,1.933 -1.567,3.5 -3.5,3.5h-0.81024c-0.79317,0.33333 -1.5231,0.33333 -1.5231,0.33333l-3.09431,-0.02622c-0.24915,-0.0601 -0.49863,-0.11861 -0.74842,-0.1756c-0.77094,-0.05115 -1.54965,-0.25455 -2.32805,-0.48832c-10.84983,-2.0901 -22.17553,-1.86511 -32.56268,-6.26878c-2.47377,-1.12106 -5.24635,-1.4173 -7.82716,-2.26332c-3.36674,-1.10366 -7.37562,-3.77323 -10.48918,-5.56089c-3.00541,-1.72557 -4.77342,-3.8905 -7.09174,-6.242c-2.15157,-2.18236 -5.34348,-3.22334 -7.67907,-5.04949c-1.54672,-1.20935 -2.82137,-2.76519 -4.45831,-3.8493c-2.90359,-1.92299 -5.11205,-3.99766 -7.38267,-6.63654c-0.19615,-0.22796 -0.38713,-0.46031 -0.57702,-0.69359c-0.78009,-0.58023 -1.54216,-1.19175 -2.28103,-1.84401l-2.54778,-1.91083c-0.86862,-0.63689 -1.43259,-1.6648 -1.43259,-2.82444c0,-0.95365 0.38141,-1.81823 1,-2.4495zM159.15023,214.80337c-1.06577,1.16827 -2.13442,2.33862 -3.16875,3.56187c-0.64869,0.76717 -0.87664,1.76044 -1.05919,2.78336c0.45909,-0.25971 0.90058,-0.54569 1.31059,-0.87895c1.67642,-1.36261 1.14685,-2.61368 2.25746,-4.42477c0.21418,-0.34926 0.43455,-0.69627 0.65989,-1.04151zM195.70639,145.40323c0.15939,-0.17244 0.32604,-0.33597 0.49899,-0.49176l-0.13871,-0.10404l1.97556,-2.63408c0.58582,-0.79898 1.5025,-1.3402 2.54821,-1.42185c1.21002,-2.69071 2.34364,-5.37974 3.43058,-8.10492c-0.80503,-0.64125 -1.32102,-1.62995 -1.32102,-2.73916c0,-0.28703 0.03456,-0.56598 0.09973,-0.83294l0.05922,-0.2665c-0.46,-0.19098 -0.87048,-0.47724 -1.20678,-0.83417c-0.71484,0.5389 -1.60937,1.01478 -2.71277,1.40999c-1.33024,0.47645 -2.53645,-1.24786 -3.77772,-1.92301c-0.13004,-0.07073 -0.22349,-0.41764 -0.32135,-0.30655c-1.03449,1.17431 -1.54509,2.81168 -2.76029,3.7978c-0.07629,0.0619 -3.04987,0.95114 -3.16395,2.18706c-0.12721,1.37807 -0.54068,5.29321 0.42359,6.34348c2.31925,2.5261 3.89327,4.18038 5.70594,7.1187c0.13842,-0.44443 0.34189,-0.85307 0.66076,-1.19805zM199.50323,108.56836c-0.00549,0.0041 -0.01098,0.00821 -0.01648,0.0123l-1.47416,1.96556c0.62616,1.08013 0.38138,2.22611 0.12181,2.91471c0.10298,0.05307 0.20298,0.1111 0.2997,0.17377l0.00753,0.00471c0.31542,-0.15095 0.63372,-0.27937 0.95388,-0.38129c-0.00014,-1.5556 0.04696,-3.12638 0.10772,-4.68976zM208.75023,98.80718c-0.27859,0.12383 -0.56081,0.24141 -0.84582,0.34947l0.42516,0.85032c0.127,-0.4023 0.26839,-0.80208 0.42066,-1.19979z"></path><path d="M291.86667,157.74076c-2.12665,0 -2.96112,-1.29218 -3.28855,-2.30625c-1.09315,-1.2902 -2.34855,-2.77857 -2.91329,-4.39101c-0.15208,0.02018 -0.30723,0.0306 -0.46483,0.0306c-1.41866,0 -2.64018,-0.84405 -3.18979,-2.05735l-2.31021,-2.10932c0,-3.25172 -0.00991,-6.45736 0.45151,-9.61384c-1.50684,0.50639 -3.26768,0.42845 -5.33132,-0.54681c-2.13788,-1.01034 -2.0415,-8.07827 -2.65884,-10.23478c-1.04041,-3.63442 -3.71247,-8.47698 -6.00137,-11.38562c-1.6314,-2.07311 -4.0179,-3.55679 -5.34425,-5.83715c-2.21959,-3.81607 -1.96619,-8.50054 -1.01121,-12.56402c0,0 0.84887,-3.3955 4.24437,-2.54662c3.3955,0.84888 2.54663,4.24438 2.54663,4.24438c-0.60647,2.22098 -1.01271,5.32223 0.32212,7.43598c0.65097,1.03083 2.1488,2.29944 3.36034,3.45454c0.62628,-0.94762 1.70116,-1.57273 2.92204,-1.57273c1.3252,0 2.47839,0.7365 3.07256,1.82251l1.29962,2.27434l-0.04087,0.02336l0.08788,0.06163c0.32731,0.81278 0.42295,1.76358 0.98192,2.43833c0.28686,0.34628 0.67119,0.55091 1.10049,0.69194c-0.02138,-1.85191 -0.0016,-3.70224 -0.0016,-4.14543c0,-2.03862 0.11547,-4.08013 0.00677,-6.11585c-0.04777,-0.89453 -0.53874,-1.79473 -0.33334,-2.66667c0.01711,-0.07265 0.03478,-0.14514 0.05297,-0.21748h-0.05973v-3.33333c0,-1.933 1.567,-3.5 3.5,-3.5c0.7247,0 1.39796,0.22025 1.95649,0.59748c0.62417,-0.57772 1.45927,-0.93081 2.37684,-0.93081c1.47188,0 2.73155,0.90855 3.24878,2.19542l0.91037,2.12421c2.12586,3.78951 3.29175,8.07228 5.03318,12.0788c0.64797,1.4908 1.84994,2.85898 1.91924,4.48303c0.03651,0.85565 0.08749,1.76825 0.08088,2.67884c0.49477,0.76351 1.01891,1.5252 1.20856,2.37915c1.1636,-0.32247 2.3323,-0.6264 3.50468,-0.91322l0.42764,0.16611v-0.19234h2.66666v0c1.933,0 3.5,1.567 3.5,3.5c0,1.27324 -0.67987,2.38769 -1.69638,3.00011l-2.61529,1.63455l-0.17156,-0.27451c-1.01855,1.31307 -1.92353,2.65984 -2.44985,3.97924c-2.62997,6.59284 -2.51672,13.89931 -5.6378,20.2746l-0.91653,2.74958c-0.27898,0.90714 -0.91674,1.65714 -1.74768,2.08438c-0.5154,0.58913 -1.32536,1.05205 -2.59823,1.05205zM280.97623,122.81779c0.14928,0.29649 0.29746,0.59347 0.4436,0.89139c0.38637,-0.39229 1.27151,-0.36548 1.39743,-0.90341c0.09852,-0.42087 -0.86084,0.2658 -1.28432,0.17914c-0.19073,-0.03903 -0.37552,-0.09726 -0.55671,-0.16712z"></path><path d="M265.17445,162.66699c-0.81491,-2.18437 -1.20018,-4.1985 -1.25584,-6.15245c-1.14725,-3.3931 -1.53915,-6.43765 0.77294,-9.7464c1.10131,-1.57605 1.87642,-4.31564 3.79897,-4.34044c0.44036,-0.00568 0.85434,0.08849 1.24588,0.25668c0.42726,0.00474 0.90305,0.09589 1.43013,0.30672c1.93489,0.77396 2.25691,2.23915 2.20074,3.29806c0.09584,0.12402 0.19078,0.2455 0.28496,0.36338c2.85258,3.57041 1.71443,10.71113 1.71443,14.92156v0.66666c0,0 0,3.46281 -3.44437,3.49971c-0.57718,0.41952 -1.28751,0.66696 -2.05563,0.66696c-1.09021,0 -2.06399,-0.49845 -2.70589,-1.27988l-1.64955,-1.97947l0.23079,-0.19232z"></path><path d="M202.60138,294.23762c0.58954,2.13401 0.35081,4.36117 -1.07143,5.81541c1.09379,0.59186 1.83672,1.74931 1.83672,3.08029c0,1.933 -1.567,3.5 -3.5,3.5h-2.66667v-0.09348l-0.19355,0.08812c-3.51367,-0.38461 -8.65733,0.0468 -11.48154,-2.56012c-0.87202,-0.80493 -1.4748,-1.77401 -1.899,-2.83388l-1.57117,-1.71414c-0.20058,-1.83312 -0.854,-6.17304 -0.08832,-7.7259c2.49663,-5.06333 8.93526,-4.61172 13.7259,-4.82293c1.5011,-0.06619 3.00512,-0.00351 4.50768,-0.00435c1.11111,-0.00061 2.6938,-0.90861 3.33334,0h3.33334c1.933,0 3.5,1.567 3.5,3.5c0,1.933 -1.567,3.5 -3.5,3.5h-3.33334c-0.28174,0.18638 -0.59757,0.2595 -0.93195,0.27097z"></path><path d="M257.7,297.8c0,-3.5 3.5,-3.5 3.5,-3.5c2.33333,0 4.66667,0 7,0h2.66667c1.933,0 3.5,1.567 3.5,3.5c0,1.0713 -0.48132,2.03019 -1.23951,2.6722l-2.31606,1.98519l-0.04156,-0.04847c-0.79242,0.83029 -1.88811,1.39371 -3.86581,1.8196c-1.16935,0.25181 -2.39192,0.04314 -3.58788,0.06471l-0.20443,-0.11791l-0.0122,0.09764l-2.6206,-0.32757c-1.75038,-0.19307 -3.11194,-1.6769 -3.11194,-3.47873c0,-0.61466 0.15844,-1.1923 0.43671,-1.69433c-0.06639,-0.28965 -0.10338,-0.61249 -0.10338,-0.97233z"></path></g><g fill-opacity="0.14902" fill="#843cbb"><path d="M188.89799,156.26349c-3.36533,0.96152 -4.32686,-2.40381 -4.32686,-2.40381l-0.34018,-1.55837c-2.96508,-5.31612 -3.1137,-11.71509 -3.12781,-17.73649c0,0 0,-3.5 3.5,-3.5c3.5,0 3.5,3.5 3.5,3.5c-0.01271,4.60082 -0.184,10.22247 2.20552,14.26351l0.99315,3.10829c0,0 0.96152,3.36534 -2.40381,4.32686z"></path><path d="M293.74467,126.70636c-2.47487,2.47487 -4.94974,0 -4.94974,0l-0.76578,-0.7861c-3.21378,-2.68524 -5.83616,-5.58282 -8.27409,-8.98777c0,0 -1.85959,-2.60343 0.46618,-4.61c-0.28571,-1.21748 -0.41399,-2.6351 -0.45146,-4.42433c0,0 0,-0.89191 0.45024,-1.77524c-0.11496,-0.4874 -0.65624,-3.37739 2.42157,-4.25676c3.36534,-0.96152 4.32686,2.40381 4.32686,2.40381l-0.0099,1.05421c1.88901,2.30292 4.62233,5.75329 5.15301,8.76802c0.00611,0.03472 0.01206,0.06945 0.01785,0.1042l0.02404,-0.0103l0.96952,2.26221c0.20132,0.44175 0.31347,0.93269 0.31347,1.44983c0,0.99062 -0.41155,1.88513 -1.073,2.52185c0.04882,0.04095 0.09781,0.08186 0.14698,0.12271l1.23423,1.2139c0,0 2.47487,2.47487 0,4.94975z"></path><path d="M207.2698,133.39815c3.5,0 3.5,3.5 3.5,3.5l-0.28299,3.37871c-1.40723,3.2563 -1.91966,6.79012 -3.34662,10.03061c-1.9006,4.31607 -3.9681,8.50074 -6.2045,12.601c-0.08176,0.18278 -0.16366,0.3655 -0.24572,0.54815c0.55691,0.8725 0.53027,1.77644 0.34909,2.48467c-0.03905,0.28591 -0.07933,0.5692 -0.12079,0.85015c1.62318,0.30408 2.85153,1.72861 2.85153,3.44004c0,0.23762 -0.02368,0.46971 -0.06881,0.69404l-0.65431,3.59873l-0.31956,-0.0581l0.07119,0.8606c-4.53814,6.09935 -9.6467,12.28105 -13.05695,19.1211c-2.00789,4.0273 -3.79739,8.24948 -5.82761,12.29037c-2.66108,3.56397 -5.81078,6.90706 -8.19646,10.66732c-1.32461,2.08783 -2.267,4.42253 -3.7559,6.39656c-1.45294,1.92637 -3.95707,3.57411 -6.64039,4.83164c-0.35372,1.03118 -0.74782,2.04975 -1.20011,3.05015c-0.8793,1.9449 -1.58288,4.16972 -3.22722,5.53058c-0.1834,0.15178 -0.37389,0.29173 -0.57046,0.42156l0.04659,0.06213l-2.63838,1.97878c-0.58973,0.45236 -1.32761,0.72122 -2.12829,0.72122c-1.933,0 -3.5,-1.567 -3.5,-3.5v-1.63527l-0.97297,-0.93061c-0.10503,-0.85645 -0.19186,-1.71247 -0.25848,-2.56897c-5.02867,-0.07635 -9.90423,-1.71085 -9.28504,-7.87939c0.00244,-0.02429 6.37906,-5.53058 6.78003,-5.82764c6.37739,-4.7248 12.28955,-9.4455 18.23601,-14.76646c0,0 0.11168,-0.09992 0.30949,-0.23531c0.34695,-0.58168 0.70559,-1.15205 1.07611,-1.70935c1.48963,-2.24054 2.26859,-2.82567 3.15211,-3.95625c0.57436,-0.99466 1.07126,-1.77355 1.53552,-2.4368c1.42416,-2.6894 2.34508,-5.67221 4.11918,-8.14319c1.22006,-1.69931 2.91446,-2.92842 4.47532,-4.27891c0.84893,-1.68693 1.73679,-3.34822 2.92702,-4.81077c0.67562,-0.83021 1.33539,-1.63888 1.98039,-2.43965c1.06883,-2.32808 2.08338,-4.69896 3.45731,-6.90309c1.79602,-2.86519 3.48005,-5.75478 5.07314,-8.68758c1.73262,-3.88375 3.39649,-7.80008 4.97852,-11.75729c0,0 0.49114,-1.22785 1.62437,-1.87217c1.02341,-2.79701 1.56633,-5.77831 2.74162,-8.54002l-0.28299,-0.62128c0,0 0,-3.5 3.5,-3.5z"></path><path d="M197.58979,290.14778c-0.77181,-0.08078 -1.50333,-0.19584 -2.2073,-0.34777c-0.06837,1.26646 -0.15726,2.51137 -0.30026,3.71524c-0.1144,0.96305 0.41888,2.05233 -0.03527,2.90924c-0.099,0.1868 -0.20394,0.36969 -0.31401,0.5492l0.14732,0.05525l-0.97131,2.59016c-0.0105,0.03015 -0.02142,0.0601 -0.03272,0.08986c0.15818,1.24136 0.34819,2.50737 -0.3859,3.40274c-1.25251,1.52769 -3.53463,2.0931 -5.50786,2.188c-8.63449,0.41528 -8.17662,-8.90385 -5.62701,-14.13795c0.09886,-0.20294 0.17942,-0.42413 0.24931,-0.65575c-0.15196,-0.35352 -0.2818,-0.73133 -0.38441,-1.14099c-1.13268,-4.52211 0.42612,-9.67432 2.15509,-13.97828c0.8675,-4.11547 3.34642,-8.20144 6.08611,-10.72826c2.3424,-2.1604 7.43445,-5.46102 10.53612,-0.88849c0.39828,0.58715 -0.50342,3.29271 -1.50976,5.88551c1.28185,1.01956 1.28184,2.81117 1.28184,2.81117v0.33334c0,3.52602 0.33741,7.04205 -0.09068,10.43298l2.15363,-0.23929c0.14318,-0.01783 0.28904,-0.02702 0.43705,-0.02702c1.933,0 3.5,1.567 3.5,3.5c0,1.72043 -1.24131,3.15094 -2.87717,3.44475l-3.26976,0.65395l-0.08176,-0.40881c-0.03263,0.01204 -0.06534,0.02379 -0.09813,0.03525l0.02038,0.10284c-0.11219,-0.00059 -0.22349,-0.00169 -0.33392,-0.0033c-0.38889,0.11097 -0.79021,0.17869 -1.20721,0.19181c-0.47902,0.01508 -0.92172,-0.11102 -1.33243,-0.33538z"></path><path d="M263.83023,302.27243c-0.10502,0.04843 -0.21544,0.09453 -0.3315,0.13805c-3.27715,1.22893 -4.50608,-2.04822 -4.50608,-2.04822c-0.29709,-1.1343 -0.90894,-2.24403 -1.11842,-3.38518c-0.10591,-0.02535 -0.20871,-0.05262 -0.30815,-0.0819c-1.72163,-0.50689 -3.72861,-1.15642 -4.66562,-2.68709c-0.87909,-1.43605 -0.26751,-3.37851 -0.07114,-5.05077c0.37295,-3.17599 2.63961,-9.17325 5.40046,-11.24296c0.52569,-0.39409 1.0849,-0.73388 1.66409,-1.04127c0.1388,-0.50667 0.3886,-0.96746 0.72165,-1.35458c0.01834,-0.04699 0.03732,-0.09359 0.05693,-0.13988l-0.05635,-0.01879l1.30781,-3.92343c0.43984,-1.43018 1.77148,-2.46977 3.34591,-2.46977c1.933,0 3.5,1.567 3.5,3.5v2.66667c-0.09177,4.27616 2.01562,5.31247 4.36281,8.65314c1.02464,1.45833 1.19847,3.42913 2.0838,4.95313c2.23088,-0.23942 4.46455,-0.46678 6.70994,-0.71145l2.41843,-0.60461c0.29465,-0.08054 0.60482,-0.12354 0.92502,-0.12354c1.933,0 3.5,1.567 3.5,3.5c0,1.34094 -0.7541,2.50576 -1.86136,3.0935l-2.93889,1.63271l-0.12661,-0.2279c-0.22237,0.19561 -0.45353,0.3817 -0.69519,0.55645c-0.14851,0.10739 -6.08089,0.14241 -6.54462,0.1119c-0.98636,-0.06489 -2.08417,0.11955 -3.06713,0.0013c-1.71227,0.195 -3.42453,0.40234 -5.14008,0.63508c-0.09814,0.01331 -0.19901,0.02699 -0.30241,0.04095c-0.00088,0.05819 -0.00338,0.11523 -0.00775,0.17093l-0.35114,2.48005c0,0 -0.48969,3.42781 -3.90439,2.97746z"></path><path d="M278.60312,64.07407c-3.5,0 -3.5,-3.5 -3.5,-3.5c0,-1.77778 0,-4.88889 0,-6.66667c0,0 0,-3.5 3.5,-3.5c3.5,0 3.5,3.5 3.5,3.5c0,1.77778 0,3.55555 0,5.33333v1.33333c0,0 0,3.5 -3.5,3.5z"></path></g><path d="M286.15,298.69538c1.5333,-1.11662 2.85796,-1.48394 4.75,-1.5h1.25c0.69036,0 1.25,0.55964 1.25,1.25c0,0.28596 -0.09602,0.54948 -0.25757,0.7601l-0.74243,0.9899l-0.24912,-0.18685c-0.75281,1.00585 -1.63977,1.16681 -3.75088,1.18685h-1.5c-0.69036,0 -1.25,-0.55964 -1.25,-1.25c0,-0.0029 0.00001,-0.0058 0.00003,-0.00869c-0.17494,-0.73514 0.49997,-1.24131 0.49997,-1.24131z" fill-opacity="0.78431" fill="#efd9ff"></path><path d="M214.59338,293.40531c0.57536,0.38358 0.62024,0.87324 0.54548,1.23424c0.52742,1.1213 0.98436,2.32477 1.01114,3.55582v1.75c0,0.69036 -0.55964,1.25 -1.25,1.25c-0.29903,0 -0.57352,-0.105 -0.78865,-0.28014l-1.24222,-0.99378l0.25242,-0.31554c-1.05888,-0.98338 -0.97156,-2.00862 -0.97156,-4.41055l0.70994,-1.44338c0,0 0.69337,-1.04007 1.73344,-0.34669z" fill-opacity="0.78431" fill="#efd9ff"></path><path d="M221.15,304.19538c0,1.25 -1.25,1.25 -1.25,1.25c-0.41666,0 -1.58334,0 -2,0c0,0 -1.25,0 -1.25,-1.25c0,-1.25 1.25,-1.25 1.25,-1.25c0.41666,0 0.83334,0 1.25,0h0.75c0,0 1.25,0 1.25,1.25z" fill-opacity="0.78431" fill="#efd9ff"></path><path d="M298.87119,81.93264c-0.11836,-0.1178 -0.23671,-0.23559 -0.35507,-0.35339c0,0 -0.88388,-0.88388 0,-1.76777c0.88388,-0.88388 1.76777,0 1.76777,0c0.35348,0.35496 0.70696,0.70992 1.06043,1.06488l0.02372,0.09297l0.03196,-0.02397l0.74242,0.9899c0.16156,0.21062 0.25758,0.47415 0.25758,0.7601c0,0.69036 -0.55964,1.25 -1.25,1.25c-0.28595,0 -0.54948,-0.09602 -0.7601,-0.25758l-0.9899,-0.74242c0,0 -0.53773,-0.4033 -0.52882,-1.01273z" fill-opacity="0.78431" fill="#efd9ff"></path><path d="M286.37111,81.20592c-0.00184,-0.22745 0.07183,-0.48447 0.27889,-0.76055c0.75,-1 1.75,-0.25 1.75,-0.25c0.72408,0.55309 2.87943,1.91205 2.16768,3.19613c-1.71289,3.09025 -3.3017,0.49543 -4.16768,-0.44613l-0.25,-1c0,0 0,-0.39389 0.22111,-0.73945z" fill-opacity="0.78431" fill="#efd9ff"></path><path d="M274.91143,93.70391c-0.00381,-0.00285 -0.00762,-0.00569 -0.01143,-0.00853c0,0 -1,-0.75 -0.25,-1.75c0.75,-1 1.75,-0.25 1.75,-0.25c0.01025,0.00772 0.02069,0.01557 0.03131,0.02354c0.45369,0.08049 0.69489,0.35462 0.82313,0.62335c1.25831,0.99517 2.90973,2.59937 1.68562,4.04649c-2.75635,3.25853 -3.90245,-0.87064 -4.02863,-2.68484z" fill-opacity="0.78431" fill="#efd9ff"></path><path d="M294.4,168.69537c-1.25,0 -1.25,-1.25 -1.25,-1.25l0.36612,-1.88388c0.33333,-0.33333 0.66667,-0.66667 1,-1c0,0 0.88388,-0.88388 1.76777,0c0.88388,0.88388 0,1.76777 0,1.76777c-0.33333,0.33333 -0.66667,0.66667 -1,1l0.36612,0.11612c0,0 0,1.25 -1.25,1.25z" fill-opacity="0.78431" fill="#efd9ff"></path><path d="M283.65,158.69537c1.25,0 1.25,1.25 1.25,1.25v0.25c-0.00058,0.15704 -0.01731,0.32466 -0.0518,0.49068c0.172,0.03366 0.35717,0.11335 0.5518,0.25932c1,0.75 0.25,1.75 0.25,1.75l-0.74127,0.98836c-0.22746,0.31022 -0.59457,0.51164 -1.00873,0.51164c-0.62742,0 -1.14687,-0.46225 -1.23637,-1.06477l-0.24662,-1.47973l0.18502,-0.03084c-0.12377,-0.4679 -0.20051,-0.94308 -0.20203,-1.42466v-0.25c0,0 0,-1.25 1.25,-1.25z" fill-opacity="0.78431" fill="#efd9ff"></path><path d="M278.38102,154.38734c-0.05766,0.35043 -0.29054,1.05803 -1.23102,1.05803c-1.25,0 -1.25,-1.25 -1.25,-1.25l0.25,-1c0.25,-0.33333 0.5,-0.66667 0.75,-1c0,0 0.75,-1 1.75,-0.25c1,0.75 0.25,1.75 0.25,1.75c-0.17299,0.23066 -0.34599,0.46131 -0.51898,0.69197z" fill-opacity="0.78431" fill="#efd9ff"></path></g></g></svg>