<svg version="1.1" xmlns="http://www.w3.org/2000/svg" xmlns:xlink="http://www.w3.org/1999/xlink" width="548" height="359" viewBox="0,0,548,359"><g transform="translate(34,-1)"><g stroke="none" stroke-miterlimit="10"><g stroke-width="0.5"><g><path d="M271.63257,51.51744c-1.23744,-1.23743 0,-2.47487 0,-2.47487l-0.01865,0.06671c0.20881,-0.3121 0.4208,-0.65892 0.64012,-1.01747c-0.07725,-0.02291 -0.15675,-0.05167 -0.23852,-0.08689c-0.42913,-0.13295 -0.8956,-0.21086 -1.35377,-0.301c-0.45495,0.13063 -1.04207,0.10065 -1.62918,-0.48647c-0.06045,-0.06045 -0.11498,-0.12089 -0.16405,-0.18118c-0.09719,-0.07594 -0.18831,-0.16083 -0.27229,-0.25626c-0.8211,-0.93304 -1.10839,-2.46234 -0.75004,-3.65245c0.13416,-0.44555 1.08254,-1.11887 2.05712,-1.74991c0.40494,-0.01414 1.23443,-0.15151 1.5721,-1.00505c0.19774,-0.13133 0.36449,-0.24837 0.48512,-0.34593c0.46474,-0.37586 0.88781,-0.78017 1.27378,-1.21123c0.16127,-1.04181 0.33696,-2.09967 0.65176,-3.18416c0.02753,-0.29433 0.14923,-0.61727 0.42552,-0.9546c0.18643,-0.24829 0.46805,-0.50995 0.86868,-0.61824c0.16208,-0.04842 0.32076,-0.06477 0.47147,-0.05949c0.02636,-0.23642 0.05249,-0.47373 0.07898,-0.71218c0,0 0.19325,-1.7393 1.93255,-1.54605c0.35217,0.03913 0.62512,0.14165 0.83648,0.28028c0.27618,0.08855 0.48428,0.23427 0.64107,0.40358c0.37417,0.35507 0.46934,0.81457 0.47515,1.17166c0.00405,0.05315 0.00405,0.08377 0.00405,0.08377c-0.00171,1.34873 0.27869,2.84911 0.30082,4.27253c0.2855,0.66636 0.34101,1.46734 0.06373,2.77796c-0.16156,0.76361 -0.53384,1.44406 -0.98318,2.09324c0.01227,0.08365 0.01863,0.16922 0.01863,0.25628c0,0.13001 -0.01417,0.25671 -0.04107,0.37864l-0.39292,1.96457l-0.08186,-0.01637c-0.00657,0.12919 -0.01848,0.25834 -0.03656,0.38746c-0.19549,1.39569 -3.11925,4.01817 -3.94149,5.25643l-0.41865,0.46671c0,0 -1.23744,1.23743 -2.47487,0z" fill="#ad4eab"></path><path d="M283.49338,60.2727c0.19431,-0.03711 0.42637,-0.00904 0.69112,0.14981c0.85749,0.5145 0.343,1.37199 0.343,1.37199c-0.35978,0.58139 -1.01859,0.94213 -1.36307,1.53272c-0.33432,0.57319 -0.14105,2.60551 -0.00058,4.10889c0.02735,0.06096 0.05174,0.12329 0.07265,0.18723c0.06356,0.19438 0.09784,0.38005 0.10837,0.55898c0.30313,0.28672 0.55707,0.66971 0.74301,1.19573c0.71278,1.46774 0.85023,2.98216 0.85409,4.5411c0.0999,0.23583 0.19598,0.47893 0.28409,0.72579c0.17234,0.31043 0.28786,0.63733 0.29758,0.98861c0.15257,0.63904 0.21766,1.27229 0.12636,1.84144c-0.04098,0.25546 -0.09255,0.5056 -0.15802,0.73968c0.23451,2.8507 -0.16628,5.82456 -1.63731,7.67745c0.1288,0.31372 0.05621,0.58426 -0.05598,0.78222c-0.07556,0.17306 -0.20749,0.35429 -0.43781,0.45963c-0.42344,0.39069 -0.53832,1.08502 -0.95752,1.49863c-0.90958,0.89748 -2.59378,1.87253 -4.09159,2.68439c0.36653,0.1312 0.72836,0.42132 0.96306,1.00807c0.64994,1.62484 -0.9749,2.27477 -0.9749,2.27477l-1.41917,0.55783c-0.23266,0.0658 -0.46387,0.12564 -0.6939,0.18011c0.30329,0.40227 0.48379,0.84659 0.45026,1.34917c-0.18559,2.78189 -5.0903,2.7586 -8.14407,2.61971c-1.98077,0.35969 -3.4833,1.1765 -5.47976,1.63022c-1.85529,0.42163 -4.78574,0.11841 -6.68592,0.01973c-2.68457,-0.13941 -4.43416,0.17906 -6.44679,-1.77701c-0.01379,-0.0134 -0.02749,-0.02689 -0.04111,-0.04046c-1.75975,0.02774 -3.54624,-0.04 -4.07693,-0.40586c-0.20123,-0.13873 -0.52928,-0.58868 -0.90995,-1.2001c-0.56556,-0.29001 -0.95258,-0.8789 -0.95258,-1.55818c0,-0.03133 0.00082,-0.06248 0.00245,-0.09341c-0.05499,-0.10166 -0.1099,-0.20411 -0.16454,-0.30698c-0.18995,1.00615 -0.40151,2.0243 -0.60733,3.09651l0.0017,0.02657c0.08037,0.25262 0.02462,0.48503 -0.05715,0.66051c-0.06055,0.16621 -0.17007,0.35068 -0.36814,0.47419c-4.61739,4.64055 -7.92754,9.64261 -15.05698,9.64261c-2.66377,0 -5.15636,0.38676 -6.64443,-2.30279l-0.02865,-0.022c-0.28482,-0.11464 -0.42902,-0.34159 -0.50204,-0.54202c-0.07404,-0.15889 -0.12675,-0.36444 -0.0764,-0.58941c-0.03313,-2.3125 -0.59059,-5.60404 0.02828,-7.77354c0.78455,-2.7503 2.06881,-5.38172 3.00953,-8.03718c0.2744,-0.77458 0.07934,-2.48884 0.21713,-3.31554l-0.00341,-0.91716c0,-0.00024 0,-0.00037 0,-0.00037c0,0 0,-0.00019 0,-0.00056c0.00445,-0.9556 0.09656,-1.90431 0.22897,-2.85039c-0.18175,0.17963 -0.37936,0.35874 -0.59875,0.53996c0.03492,-6.68464 0.32592,-13.37663 0.33641,-20.03066c0,0 0,-0.08286 -0.01803,-0.21253c0.24526,-1.59687 0.29713,-3.10812 0.3194,-4.8849l0.47668,-1.23354c0.03743,-0.17847 0.12771,-0.32665 0.21358,-0.43409c0.07691,-0.10471 0.18789,-0.22268 0.33701,-0.30499c3.1754,-2.51317 3.08085,-7.2405 6.27304,-8.669c1.57954,-2.08736 4.00448,-3.15597 6.09694,-4.73051c1.58725,-1.19438 1.89929,-2.53927 3.64089,-3.58487c2.24625,-1.34858 4.68861,-1.72234 7.16633,-2.08948c-0.00386,0.04746 -0.00583,0.09546 -0.00583,0.14391c0,0.9665 0.7835,1.75 1.75,1.75h2c1.25824,-0.01653 2.47515,0.45814 3.71968,0.64407c2.22124,0.33185 4.58359,-0.14502 6.82293,0.01819c2.47936,0.1807 4.76517,1.04168 7.26413,1.32704c0,0 1.7393,0.19325 1.93255,-1.54604c0.01192,-0.10726 0.01648,-0.20864 0.01456,-0.30446c0.57525,1.29476 0.44145,3.45904 0.34115,4.97798c0.6558,0.77976 1.83367,1.07462 2.6284,1.75115c0.55757,0.47463 0.71268,1.28132 1.12116,1.88902c0.89576,1.33264 0.60242,2.59782 0.52983,3.9098c0.51418,0.46149 0.95193,0.94713 1.31963,1.46663c0.59123,0.38402 1.19191,0.72099 1.65054,1.37358c1.56203,2.22261 0.9829,5.29585 -0.06125,8.18952c0,0.54839 0,1.09679 0,1.64519c0,0.55473 -0.61347,1.3634 -0.3683,1.74203c0.02838,0.02966 0.05671,0.05933 0.08497,0.08899c0.01711,0.01255 0.03596,0.02422 0.05667,0.03499c0.48976,0.25449 1.00843,0.40007 1.52393,0.51647c-0.50291,-1.20253 -0.71794,-2.74605 -0.5724,-3.72601c0.07093,-0.47759 0.27942,-1.51351 0.77147,-1.93422c-0.11121,-0.16118 -0.17634,-0.35661 -0.17634,-0.56724c0,-0.55228 0.44772,-1 1,-1h1.2c0,0 0.53626,0 0.82337,0.3927z" fill="#e5c1e4"></path><path d="" fill="#e5c1e4"></path><path d="M250.97711,76.17289l0.11506,0.35635c2.17257,0.08933 4.14421,0.65634 4.1774,2.78013c0.05608,3.58801 -6.01226,2.84862 -7.96208,1.52881c-0.32349,-0.0731 -0.61825,-0.19721 -0.87148,-0.38484c-0.49096,-0.36379 -0.634,-0.78332 -0.6303,-1.22441c-0.1139,-0.29355 -0.10321,-0.55088 0.00771,-0.77144c-0.18817,-0.14469 -0.34343,-0.38346 -0.34343,-0.77749c0,-0.57761 0.33364,-0.82159 0.61549,-0.92464l-0.01233,-0.37861c-0.04299,-0.34063 0.06284,-0.57805 0.21041,-0.74148c0.09995,-0.13453 0.24668,-0.25377 0.46209,-0.31392c0.84863,-1.10665 3.84149,0.49891 4.23146,0.85154z" fill-opacity="0.35294" fill="#ad4eac"></path><path d="M284.08584,75.80809c-0.7176,1.06993 -1.91438,1.33595 -2.5978,-0.93898c-0.35473,-1.18082 0.27774,-3.03124 2.05196,-2.75197c0.52601,0.0828 0.66568,0.76832 0.90335,1.30095c0.22664,0.29018 0.22664,0.66191 0.22664,0.66191c-0.00682,0.09355 -0.01751,0.18692 -0.03177,0.27965l0.03177,0.52035c0,0 0,0.6988 -0.58416,0.92809z" fill-opacity="0.35294" fill="#ad4eac"></path><path d="M233.89077,33.75827c1.80336,2.57979 2.90237,4.78315 5.32583,6.89968c2.35082,2.05309 5.71208,4.15098 4.4947,7.9292c-0.04985,0.15471 -0.11971,0.29879 -0.20363,0.43542l-0.07242,0.34005c-3.23781,6.10285 -10.32,6.35182 -13.71404,0.03209c-1.59589,-2.97156 -1.30184,-5.26301 -1.78266,-8.36059c-0.51769,-3.33511 -0.7998,-6.15779 -0.19032,-9.56717c0,0 0.10006,-0.55033 0.49818,-0.97216c-0.03859,-0.19553 -0.07126,-0.39028 -0.0977,-0.58407c-0.08815,-0.36982 -0.09403,-0.84933 0.22859,-1.29781c0.16773,-0.28915 0.44428,-0.5564 0.89829,-0.69302c0.43755,-0.18261 0.82086,-0.15163 1.13402,-0.03466c0.53207,0.14127 0.83165,0.51337 0.99863,0.85412l0.46094,0.7299c0.45289,1.03268 0.81656,2.09382 1.15216,3.16597c0.25625,0.30551 0.54617,0.66058 0.86944,1.12304z" fill="#ad4eab"></path><path d="M282.07,62.88c0,1.68562 -0.31594,2.9825 -0.61804,4.58911c-0.09707,0.51624 0.20552,1.984 -0.05808,2.39358c-1.11373,1.73053 -2.25419,2.35842 -3.61831,0.46453c-1.05316,-1.46217 0.69443,-5.02394 0.69443,-6.84721v-1c0,-0.55228 0.44772,-1 1,-1c0.05837,0 0.11556,0.005 0.17119,0.0146l0.5217,-0.5217v0c0.18096,-0.18096 0.43096,-0.29289 0.70711,-0.29289c0.55228,0 1,0.44772 1,1v0.57401c0.2,0.28399 0.2,0.62599 0.2,0.62599z" fill="#30152f"></path><g><path d="M253.23273,66.98505c0,0 0.01523,0.58093 -0.42039,0.86869c0.06169,1.95674 0.70118,3.8467 1.78475,5.42991c0.21977,0.11569 0.43827,0.23372 0.65506,0.35491l0.93634,0.34295c0,0 0.93789,0.34694 0.59096,1.28482c-0.03294,0.08907 -0.07121,0.16653 -0.11351,0.23382c1.65987,1.30595 3.76785,2.09183 6.14821,2.04229c6.38871,-1.38197 5.58209,-12.38052 0.77528,-15.17975c-1.07118,-0.6238 -3.12841,-0.16872 -4.27937,-0.13855c-1.17822,0.03088 -2.70333,-0.18286 -4.05025,-0.02916c-1.35199,1.15272 -2.1955,2.79468 -2.02707,4.79006zM264.94176,59.41159c1.37315,0.80669 1.70074,1.89866 2.62853,3.07045c0.70659,1.31832 1.18458,2.19664 1.24659,3.69433l0.01049,0.39986c0,0 0.01211,0.46215 -0.29435,0.76622c1.24748,4.81458 0.76232,10.3085 -4.8,12.0046c-0.07607,0.36044 -0.3469,0.65113 -0.69977,0.75326l-1.36794,0.42992l-0.07066,-0.22482c-1.28324,0.5709 -2.18367,0.40155 -3.40665,-0.24339c-1.14968,-0.12883 -2.26914,-0.37386 -3.64111,-0.7943c-4.45228,-2.4567 -4.17378,-6.88868 -4.29216,-11.40435c-0.05176,-1.97455 -0.22466,-4.25217 1.10315,-5.90067c0.84941,-1.05456 2.01922,-1.494 3.29124,-1.66676c2.79368,-2.21592 6.83326,-2.91666 10.29265,-0.88437z" fill="#316a70"></path><path d="M278.05349,60.73264c0.48892,-0.91951 1.09991,-2.25942 1.51655,-2.60963c2.40661,-2.02287 4.91879,0.56276 6.27189,2.17119c2.24529,2.66897 3.24255,9.58037 1.88101,12.99687c-0.3223,0.80876 -0.9153,1.5053 -1.15652,2.34182c-0.70441,0.20566 -1.423,0.40542 -2.15096,0.50061c-0.13534,0.37677 -0.49097,0.65059 -0.91525,0.66172l-1.19958,0.03145c-4.83296,0.05334 -5.90254,-6.38598 -5.47102,-11.34249c0.00752,-0.48895 0.05839,-0.93809 0.15618,-1.329c0.03934,-0.26329 0.08289,-0.51935 0.13022,-0.76671c0.00244,-0.57076 0.00137,-1.11816 -0.01207,-1.63079c0,0 -0.02578,-0.98365 0.94955,-1.02504zM284.66134,61.78805c-0.06672,0.04738 -0.15325,0.09952 -0.25452,0.13981c-0.2871,-0.78422 -1.04994,-1.33443 -1.93094,-1.31134c-0.86262,0.02262 -1.58331,0.58817 -1.84357,1.36102c-0.08591,0.14023 -0.15499,0.29174 -0.2045,0.45166c-0.61701,0.68227 -1.1039,1.53721 -1.31418,2.27666c-0.00137,0.29885 -0.00223,0.59851 -0.00153,0.89836c-0.06282,0.22459 -0.08211,0.44275 -0.08247,0.62449c-0.00441,0.17001 0.00938,0.2789 0.00938,0.2789c0.16823,1.32938 0.33646,2.65877 0.50468,3.98815l1.18089,2.08016c0,0 0.21191,0.30049 0.58285,0.55293l0.11274,0.21413c0,0 0.941,1.76481 2.7058,0.82381c0.0007,-0.00038 0.0014,-0.00074 0.0021,-0.00112c0.33116,0.01296 0.66685,0.03077 1.00994,0.06735c-0.04627,-1.11279 0.78942,-1.44395 0.83152,-2.58674c0.10057,-2.73038 0.21051,-5.99723 -0.58805,-8.62012c-0.07065,-0.23206 -0.33956,-0.70477 -0.72015,-1.2381z" fill="#316a70"></path><path d="M246.89108,73.40753c-0.42331,0.44695 -0.86318,0.87481 -1.33042,1.27081l-0.71774,0.94702c-0.17692,0.23764 -0.45721,0.39464 -0.77635,0.40301c-0.5521,0.01448 -1.01139,-0.42136 -1.02586,-0.97346c-0.00271,-0.10335 0.01037,-0.20346 0.03702,-0.298l0.35742,-1.38764l0.06351,0.01636c0.01428,-0.10023 0.03336,-0.19991 0.05814,-0.29894c0.10056,-0.40175 0.73551,-0.44187 0.95787,-0.79126c0.72042,-1.13199 1.32526,-3.56623 2.87229,-4.23851c0.61627,-0.26781 1.10109,-0.39079 1.47668,-0.401c0.03612,-0.08213 0.07568,-0.16377 0.11894,-0.24597l-0.08959,-0.02728l0.3617,-1.18801c0.11492,-0.41178 0.48747,-0.71867 0.93715,-0.73046c0.5521,-0.01448 1.01138,0.42136 1.02586,0.97345l0.02621,0.99966l-0.1314,0.00344l0.10213,0.26435c-0.10002,0.18801 -0.20858,0.41875 -0.32577,0.6748c0.00116,0.01533 0.00187,0.03055 0.00218,0.04563c0.21061,-0.00674 0.45009,0.06497 0.69375,0.29618c0.72539,0.68833 0.03706,1.41373 0.03706,1.41373l0.0178,-0.13623c-0.18269,0.4586 -0.49595,0.8452 -0.8768,1.17836l0.2102,0.24907l-0.9726,0.8208c-0.16836,0.14457 -0.38569,0.2343 -0.62483,0.24057c-0.18767,0.00492 -0.3646,-0.04219 -0.517,-0.12821c-0.03697,0.06319 -0.07324,0.12288 -0.10855,0.17861l-0.09591,0.04484l0.03161,0.02999l-0.77876,0.82069l-0.35397,-0.33588z" fill-opacity="0.97647" fill="#316a70"></path><path d="M266.27128,66.32691c0.22018,-0.72319 0.82061,-0.73322 1.10055,-0.69505c1.0235,-1.04516 2.11491,-1.78152 3.28014,-2.236c0.69525,-0.86317 1.54854,-1.59361 2.31338,-1.87342c1.1445,-0.41871 3.98892,0.70467 4.29068,2.00772c0.03278,0.14156 0.04105,0.28269 0.03119,0.42348l0.0743,-0.00195l0.02621,0.99966c0.01448,0.55209 -0.42135,1.01139 -0.97345,1.02586c-0.4291,0.01125 -0.80213,-0.24951 -0.95385,-0.62546l-0.24451,-0.56765c-1.33364,0.1077 -2.4197,0.1366 -3.41998,0.39308c-0.36558,0.45718 -0.67133,0.92186 -0.84022,1.31098c-0.23199,0.5345 -0.04029,1.33624 -0.51831,1.66942c-0.75416,0.52566 -2.21222,-0.14691 -2.95139,-0.41732l-0.54936,-0.16546c0,0 -0.95665,-0.29126 -0.66539,-1.2479zM269.25892,66.57828c-0.02452,0.02238 -0.04906,0.04508 -0.07364,0.06809c0.04352,0.01175 0.07016,-0.00659 0.07364,-0.06809z" fill-opacity="0.97647" fill="#316a70"></path><path d="M286.42835,65.1598c0.02267,0.03214 0.04318,0.06391 0.06167,0.09529c0.2231,-0.13447 0.82084,-0.4008 1.3151,0.22344c0.62076,0.784 -0.16324,1.40476 -0.16324,1.40476c-0.8718,0.68645 -1.58435,1.47617 -2.35651,2.27378l-0.15855,0.04311l0.02328,0.04365l-1.16611,0.62177c-0.137,0.07678 -0.29415,0.12232 -0.46204,0.12672c-0.5521,0.01448 -1.01139,-0.42136 -1.02587,-0.97345c-0.00194,-0.07426 0.00426,-0.14686 0.01779,-0.21691l0.17021,-0.98455l0.18204,0.03147c0.10665,-0.83084 0.4886,-1.38117 1.4303,-2.38553l0.73839,-0.54448c0,0 0.81723,-0.57631 1.39354,0.24092z" fill-opacity="0.97647" fill="#316a70"></path></g><path d="M264.07,64.48c0,1.68562 -0.31594,2.9825 -0.61804,4.58911c-0.09707,0.51624 0.20552,1.984 -0.05808,2.39358c-1.11373,1.73053 -2.25419,2.35842 -3.61831,0.46453c-1.05316,-1.46217 0.69443,-5.02394 0.69443,-6.84721v-1c0,-0.55228 0.44772,-1 1,-1c0.05837,0 0.11556,0.005 0.17119,0.0146l0.5217,-0.5217v0c0.18096,-0.18096 0.43096,-0.29289 0.70711,-0.29289c0.55228,0 1,0.44772 1,1v0.57401c0.2,0.28399 0.2,0.62599 0.2,0.62599z" fill="#30152f"></path></g><path d="M277.7575,81.4412c-0.18281,-0.25103 -0.3075,-0.59346 -0.3075,-1.06059c0,-0.87964 0.44215,-1.31713 0.88196,-1.53471c0.0358,-0.07236 0.07755,-0.14478 0.12624,-0.21529c0.68172,0 2.11872,-0.01146 2.81393,-0.00434c0.34454,0.49542 0.34454,1.08767 0.34454,1.08767l-0.06733,0.8141c-0.13625,0.46325 -0.26506,0.97485 -0.3794,1.51855c-0.19309,-0.05859 -0.36931,-0.11122 -0.52408,-0.1577l-1.69513,-3.23483c0.15055,-0.02345 0.24927,-0.02345 0.24927,-0.02345c0.08158,-0.11813 -0.55915,-0.23088 -0.43393,-0.32894l-0.07434,-0.14186c0.09697,-0.00002 0.19451,0.00019 0.29254,0.00072c0.22861,-0.12047 0.51745,-0.19658 0.8824,-0.19658c0.4319,0 0.7572,0.10659 1.00222,0.26716c0.93502,0.07572 1.86448,0.22839 2.71814,0.53092c1.87895,0.23903 3.6423,0.8784 5.00371,2.55634c0.17421,0.21472 0.33521,0.45473 0.48634,0.714c0.51684,0.43738 0.9564,0.91372 1.27823,1.42821c0.88361,1.41261 1.37723,2.75389 1.04572,3.9087c0.13051,0.23856 0.26838,0.46486 0.41576,0.67497l-0.5889,2.86835c-0.01634,0.74181 -0.13942,1.46498 -0.4111,2.13771c-2.51729,6.23326 -10.26243,4.0384 -12.53851,-0.93516c-1.06484,-2.32684 -0.81976,-3.26126 -0.82828,-5.73453c-0.0063,-1.82785 0.02541,-3.31898 0.3075,-4.93941z" fill-opacity="0.94902" fill="#e6c1e4"></path><g><path d="M240.15,233.975v0.75c-0.01694,1.1165 -0.30961,2.17221 -0.7493,3.18596c-0.00102,0.10437 -0.00125,0.20905 -0.0007,0.31404v0.832c0.01686,0.14862 -0.00298,0.28839 -0.02985,0.39703c-0.02492,0.11085 -0.07067,0.24715 -0.15459,0.37416c-1.08276,2.11767 -2.59387,4.14051 -3.65485,6.26818c-0.86897,2.91359 -2.2638,5.5602 -5.09447,6.57731c-0.72872,0.26184 -1.76886,0.28036 -2.81978,0.23067c-0.94115,2.88379 -1.77001,5.82919 -2.80057,8.64518c-0.06492,0.17739 -0.13196,0.35442 -0.20085,0.53116c-0.07674,0.95679 -0.14244,1.93662 -0.25027,2.99657c-0.13246,1.30203 -0.86095,2.47187 -1.29377,3.70698c-0.82998,2.36848 -1.14878,5.10475 -1.7607,7.55272c-0.69451,2.77835 -1.26512,5.40508 -2.2958,7.87226c0.62876,0.55701 1.13662,1.4079 1.47728,2.02585c1.89531,3.43813 4.83896,8.53907 2.17824,12.33992l-0.07939,0.17721c-0.06938,0.30352 -0.25164,0.47959 -0.43976,0.58172c-0.16816,0.11747 -0.39464,0.19977 -0.67946,0.14158c-3.95872,0.02679 -8.3198,1.10573 -12.03169,0.51659c-0.13232,0.00408 -0.26531,0.00859 -0.3988,0.01312c-0.71018,0.0577 -1.42821,0.05735 -2.15254,0.01874c-0.19565,-0.0084 -0.39044,-0.02098 -0.58383,-0.03892c-0.76304,-0.06052 -1.53254,-0.1573 -2.30671,-0.26754c-1.10598,-0.15749 -2.32321,0.80256 -3.40355,0.10814c-1.0454,-0.67196 -1.85966,-4.04314 -1.41789,-5.18166c0.00437,-0.01126 0.00884,-0.02249 0.01342,-0.03371c0.00022,-0.00808 0.00045,-0.01617 0.00069,-0.02427c-0.42031,-0.39641 -0.79275,-0.80618 -0.99437,-1.22832c-0.19789,-0.41436 -0.27341,-1.35102 -0.23614,-2.38142c-0.20844,-0.18327 -0.33998,-0.4519 -0.33998,-0.75126v-1.5h0.02323c0.01329,-0.15368 0.03206,-0.30462 0.05577,-0.45312c-0.54188,-1.25816 0.18034,-3.15624 0.74712,-4.42957c2.15303,-4.83699 2.56063,-10.27904 5.31639,-14.88181l1.09825,-0.48146c0.14785,-1.5088 0.41216,-2.97674 1.06337,-4.32858c0.6784,-3.53416 1.84074,-6.87024 3.05605,-10.17463c-0.60694,0.09623 -1.302,0.35481 -1.61354,-0.09323c-0.41492,-0.59671 0.44773,-2.83694 0.94212,-3.49232c0.91035,-1.20679 1.37547,-2.60543 1.60473,-4.10518c-0.00045,-0.02148 -0.00087,-0.04293 -0.00125,-0.06439c-0.0366,-0.01388 -0.07277,-0.02951 -0.10846,-0.04704c-3.16684,-1.55538 -1.37651,-2.51398 0.31554,-2.95752c0.00047,-0.08029 0.00069,-0.16068 0.00069,-0.24116c0,0 0,-0.95127 0.92781,-0.9982c0.71464,-0.83507 1.79727,-1.72491 2.89041,-2.48321c0.08561,-0.08602 0.19708,-0.17227 0.3344,-0.2277c0.21319,-0.14248 0.42539,-0.27921 0.63393,-0.40883l-0.13655,-0.18206l0.99192,-0.74394c0.1685,-0.12924 0.37931,-0.20606 0.60808,-0.20606c0.04964,0 0.09845,0.00362 0.14616,0.0106c0.55546,-0.6894 1.03664,-1.45989 1.43746,-2.27653c0.01114,-2.20492 -0.04002,-4.03265 0.9743,-5.84363c-0.0433,-0.1167 -0.05832,-0.23457 -0.05873,-0.34094l-0.10668,-0.064l0.14231,-0.2372c0.01492,-0.06228 0.02885,-0.09943 0.02885,-0.09943c1.05803,-2.80726 2.58063,-5.35122 3.20166,-8.32333c0.23634,-1.13107 -0.23432,-2.41356 0.01142,-3.5553c0.84105,-3.90761 2.06145,-7.92032 3.561,-11.67991c0.90492,-1.76486 0.61234,-4.42387 1.51781,-6.03755c0.39436,-0.70281 1.38771,-0.91664 1.80958,-1.60328c0.42937,-0.69882 0.25261,-1.71877 0.8048,-2.32524c1.11671,-1.22649 1.43641,-0.71073 2.65786,-0.86678c4.36884,-0.55815 8.17383,2.03629 11.64792,4.64186l0.78349,0.38791c0.28398,0.07454 0.45121,0.2505 0.5497,0.4319c0.11778,0.16861 0.20021,0.39585 0.14111,0.68174c0.00172,3.7288 0.0608,7.69017 -0.77944,11.33201c-0.97853,4.24125 -2.18614,9.05436 -2.24102,13.46815c-1.09647,2.62609 -2.10664,5.19689 -2.69553,7.901c0.21595,0.28799 0.21595,0.64793 0.21595,0.64793z" fill="#e5c1e4"></path><path d="M255.95293,291.1178c-0.06443,-0.14585 -0.12886,-0.2917 -0.19329,-0.43755c-0.31137,-0.54394 -1.37552,-3.13512 -0.55193,-4.12255c-0.32731,-0.94617 -0.55914,-1.91402 -0.55021,-2.96053c-0.4271,-1.70841 -0.51041,-3.65094 -0.6959,-5.55426c-0.19546,-0.5523 -0.42058,-1.084 -0.68594,-1.58722c0.04513,-0.24388 0.09631,-0.4851 0.15421,-0.72323c0,0 0.03628,-0.14509 0.13688,-0.30902c-0.15854,-0.67197 -0.36847,-1.34837 -0.59196,-2.02524c-0.06665,-0.15785 -0.13783,-0.31314 -0.21394,-0.46563c-1.64905,-3.30406 -3.11083,-5.29433 -3.11083,-9.20758v-0.75c0,-0.86113 -0.11703,-2.05411 -0.11649,-3.2257c-1.21627,-0.5383 -0.37333,-2.89518 0.25691,-4.02702c-2.59831,0.00778 -2.44229,-2.74897 -0.63312,-4.11748c0.63083,-0.47718 1.53903,-0.26455 2.346,-0.3337c0.00669,-0.01512 0.0138,-0.03029 0.02138,-0.04547l0.54047,-1.30113c1.24866,-1.28974 2.45242,-2.47007 3.5854,-3.66586c-0.00037,-0.01117 -0.00055,-0.02238 -0.00055,-0.03364c0,-0.27614 0.11193,-0.52615 0.29289,-0.70711l1,-1c0.52753,-0.52643 0.9962,-1.01776 1.44042,-1.50724c0.48095,-0.88602 1.10672,-1.77829 1.74349,-2.55905c0.21653,-0.37815 0.42626,-0.76878 0.62878,-1.17382c0,0 0.33368,-0.66736 1.00104,-0.56094c0.02263,-0.02013 0.04508,-0.03988 0.06734,-0.05926c0.69406,-0.60446 2.12919,-0.9337 2.86894,-1.6397c0.02887,-0.02756 0.05666,-0.0564 0.08342,-0.08646c0.15323,-0.37775 0.32311,-0.75366 0.52089,-1.12933c0.00041,-2.17745 -0.25556,-4.39495 0.1157,-6.48729c0.409,-2.30502 0.86471,-4.82042 1.47954,-7.23219c0.00499,-0.2839 0.00754,-0.56968 0.00754,-0.85763c0.02404,-2.16007 0.2864,-4.89089 0.89863,-7.05839c-0.77767,-0.25015 -0.63502,-1.10601 -0.63502,-1.10601c0.35946,-2.12565 0.87046,-4.23859 1.21373,-6.36025c0.29247,-1.80767 -0.58506,-4.00868 0.73606,-5.59282c1.16054,-1.39158 2.53042,-1.33819 3.73345,-2.21561c2.58677,-1.88663 4.4181,-2.78446 7.93583,-2.5908c0.76163,0.70499 1.89724,1.03133 2.46796,1.89814c0.54638,0.82983 0.41278,2.83962 0.6226,3.79598c0.77654,3.53952 2.03926,5.79052 1.99388,8.82366c0.53287,0.24881 0.53287,0.90609 0.53287,0.90609c-0.00495,2.10595 -0.58911,4.11144 -1.25,6.08552v1.41448h-0.0026c-0.02338,2.30038 -0.20925,4.45594 -0.77176,6.71939c-0.97983,4.79981 -0.5876,9.00746 -2.55176,13.66329c-0.64038,1.51796 -3.30478,6.24786 -4.85556,6.94807c-1.28365,1.23156 -2.83466,2.62559 -3.78827,3.79498c-0.22505,0.27598 -0.02255,0.78242 -0.27668,1.03188c-1.10068,1.08046 -3.11899,1.75765 -4.33445,2.83573c-1.423,1.26218 -2.60691,2.85515 -3.96181,4.21376l-0.96056,0.96056c0.00313,0.03397 0.00622,0.06795 0.0093,0.10193c0.12813,0.86554 0.23604,1.73636 0.32639,2.60932c0.14163,0.70313 0.2834,1.41185 0.4157,2.13153c0.1592,5.03379 2.2691,9.35186 3.99543,13.93526c0.98633,-0.14387 1.92297,0.12991 2.82196,0.63575c1.05391,0.2729 2.04086,0.63517 2.71784,1.07253c0.93391,0.60334 1.60842,1.87932 2.18322,3.14155c0.3755,0.33259 0.74784,0.63676 1.11832,0.89322c1.23969,0.85816 2.86263,1.40731 3.58917,2.92856c0.40058,0.83873 0.07612,2.68988 0.07612,3.63269v0.5c0,0 0,0.44723 -0.29908,0.74352c0.14376,1.19811 0.16114,2.40274 -0.03913,3.2577c-4.60041,0.01407 -9.20082,0.02562 -13.80111,-0.00122c-0.34319,-0.002 -0.69179,-0.06709 -1.0417,-0.17314c-1.75385,0.10859 -3.63892,0.25952 -5.22989,-0.06801c-0.52307,-0.00438 -1.05219,-0.00885 -1.58909,-0.00885c-1.1241,0 -3.04,0.33015 -3.78004,-0.87428c-0.38312,-0.62354 -0.71695,-1.56831 -0.30624,-2.17403c0.24479,-0.36102 0.67388,-0.48993 1.13921,-0.5589zM259.99138,292.46495c0.1818,0.10327 0.37988,0.18914 0.5913,0.26002c0.02245,0.00002 0.04488,0.00003 0.06733,0.00003c0.07007,0 0.14087,-0.00063 0.21232,-0.0018c-0.2865,-0.10108 -0.55699,-0.2144 -0.81256,-0.33916c-0.0188,0.02747 -0.03827,0.05445 -0.05839,0.08091zM271.36789,250.09645c-0.05221,0.04793 -0.10411,0.09598 -0.15567,0.14416c0.05485,-0.04755 0.10685,-0.09558 0.15567,-0.14416z" fill="#e5c1e4"></path><g fill="#316a70"><path d="M218.09115,295.15402l0.17778,-0.25359c0.66021,0.52617 1.65924,0.79785 1.98064,1.57851c0.33214,0.80676 -0.55197,1.81471 -1.42884,2.61682l-0.21361,0.53401c-0.14181,0.37979 -0.50789,0.65024 -0.93713,0.65024c-0.55228,0 -1,-0.44772 -1,-1c0,-0.73333 0,-2.46667 0,-3.2c0,0 0,-1 1,-1c0.1666,0 0.30544,0.02775 0.42115,0.07402z"></path><path d="M207.16289,296.57289c0.70711,-0.70711 1.41421,0 1.41421,0l0.10141,0.12206c0.01409,-0.04379 0.02836,-0.08752 0.0428,-0.13118c0,0 0.31623,-0.94868 1.26491,-0.63246c0.94868,0.31623 0.63246,1.26491 0.63246,1.26491c-0.19191,0.5708 -0.35404,1.15377 -0.47397,1.74438c-0.0073,0.04652 -0.01662,0.09358 -0.02785,0.14128c-0.01656,0.08662 -0.03219,0.17339 -0.04686,0.2603v0.93781c0,0.55228 -0.44772,1 -1,1c-0.55228,0 -1,-0.44772 -1,-1v-1h0.04288l-0.03947,-0.08248c0.02553,-0.15339 0.05304,-0.30653 0.08254,-0.45934c-0.12498,-0.08977 -0.25551,-0.16516 -0.40044,-0.20068l-0.59261,-0.55039c0,0 -0.70711,-0.70711 0,-1.41421z"></path><path d="M277.87,290.28c1,0 1,1 1,1v0.16438c0.25303,0.33545 0.18995,0.77704 0.18995,0.77704c-0.07462,0.50561 -0.14925,1.01121 -0.22387,1.51682l-0.27944,-0.05282c-0.0082,0.01978 -0.01652,0.03953 -0.02498,0.05925l0.26681,0.10672l-0.39135,0.97837c-0.14181,0.37979 -0.50789,0.65024 -0.93713,0.65024c-0.55228,0 -1,-0.44772 -1,-1c0,-0.1393 0.02848,-0.27195 0.07995,-0.39245l0.35797,-0.89493c0.01623,-0.11825 0.03246,-0.2365 0.04869,-0.35475c-0.05659,-0.18613 -0.08352,-0.38458 -0.08661,-0.55787v-1c0,0 0,-1 1,-1z"></path><path d="M267.67,295.08c-0.28714,0 -0.49183,-0.08245 -0.63775,-0.2h-0.16225v-0.17401c-0.07034,-0.09988 -0.11594,-0.20694 -0.14551,-0.30377c-0.25946,-0.04651 -0.51892,-0.09302 -0.77837,-0.13953l0.44073,-0.86583l-0.22396,-0.22396l0.63528,-0.63528c0.03042,-0.21791 0.06083,-0.43582 0.09125,-0.65373c0,0 0.19612,-0.98058 1.1767,-0.78446c0.7006,0.14012 0.80053,0.68069 0.80047,0.97796c0.24483,0.18228 0.40341,0.47393 0.40341,0.80262c0,0.1393 -0.02848,0.27195 -0.07995,0.39245l-0.39158,0.97894l-0.13806,-0.05522c-0.03553,0.2635 -0.20281,0.88383 -0.99042,0.88383z"></path></g></g><path d="M288.98558,120.19409c-0.07887,-0.32567 -0.22364,-0.59508 -0.51863,-0.73858c-1.19448,-0.58104 -3.42821,-0.75186 -4.81695,-0.73051c0,0 -0.06586,0 -0.17202,-0.01277c-0.10661,-0.0083 -0.17118,-0.02121 -0.17118,-0.02121l-1.59616,-0.35751c-1.94423,-0.88676 -3.15058,-0.59296 -5.30167,-0.37777c-4.28994,0.85962 -8.51408,0.7686 -12.81095,1.25803c-4.30225,0.49004 -8.42966,2.25173 -12.75707,2.75079c-5.12706,0.59128 -10.56302,0.31415 -15.87824,0.12936c0.90703,0.84623 1.89216,1.62889 2.99095,2.3199c0.51361,0.23901 0.76056,0.60168 0.86936,0.95952c0.14425,0.34571 0.18473,0.78343 -0.06028,1.29583l-0.23791,0.70577c-1.91968,4.69988 -5.71388,7.22393 -8.42571,11.33117c-0.70559,1.06867 -1.32477,2.22685 -1.93341,3.40153c-0.55479,1.93048 -1.45502,3.36825 -2.50176,4.73904c0.15009,0.25815 0.23605,0.55821 0.23605,0.87834c0,0.35038 -0.10297,0.6767 -0.2803,0.95038l-1.8407,2.94511l-0.2844,-0.17775c-0.63591,1.41255 -1.30497,2.80746 -2.07525,4.15064c-0.19253,0.33572 -0.40738,0.64249 -0.63689,0.92972c-1.87895,3.36983 -3.91822,6.68804 -5.62895,10.09741l-0.10641,0.08246l0.03655,0.02559l-0.23479,0.33543c-1.28606,3.31844 -2.5736,6.6082 -4.12252,9.67106c-1.85611,3.67027 -1.10429,6.78768 -4.83031,9.26939c-0.25198,0.22936 -0.55435,0.34692 -0.79812,0.40719c-0.22438,0.06374 -0.51718,0.10964 -0.82424,0.05644l-1.46687,-0.02705c-1.0172,-0.23737 -2.14267,-0.19744 -3.05162,-0.71209c-1.46248,-0.82805 -2.18375,-2.37302 -2.85776,-3.94728c-0.34314,-0.22873 -0.66205,-0.49626 -0.95005,-0.78535c-1.24931,-1.2541 -1.90944,-2.66861 -2.39718,-4.17645c-0.84814,-0.86329 -1.59044,-1.81771 -1.60339,-3.19277c-0.00127,-0.13502 0.00444,-0.26899 0.01625,-0.40206h-0.06306v-0.53374c-0.0505,-0.12217 -0.09675,-0.23969 -0.13858,-0.35179c-3.3442,-8.96357 1.47107,-17.1746 3.17256,-25.70767c0,0 0.01192,-0.05958 0.04241,-0.15431c0.02621,-0.096 0.04877,-0.15242 0.04877,-0.15242l0.51634,-1.28942c0.53591,-1.16198 1.30227,-2.15088 2.18001,-3.05917l0.01829,-0.05487l0.0264,0.0088c0.01328,-0.01364 0.02658,-0.02726 0.03991,-0.04087c0.01012,-0.06965 0.02157,-0.13919 0.03444,-0.20864c0.1821,-0.98274 0.67199,-1.72397 1.31484,-2.33923c0.03463,-0.05963 0.06924,-0.11927 0.10387,-0.1789c1.25491,-1.27449 2.95505,-2.56259 3.89865,-4.10219c0.71018,-1.15876 0.80271,-2.62908 1.52073,-3.78299c1.35801,-2.18243 3.99123,-3.68223 5.61801,-5.66206c4.22767,-5.14519 7.19063,-11.09848 10.60274,-16.79089c0,0 0.59016,-0.98359 1.6112,-0.88034c0.98247,-0.10956 1.5955,0.80999 1.5955,0.80999l0.2864,0.4345c0.25595,0.00728 0.54224,0.08137 0.85738,0.25645c0.95938,0.53299 0.98284,1.33338 0.86695,1.85616c2.03086,2.28301 3.72087,4.82348 5.60234,7.20115c6.18908,0.13671 12.71533,0.70763 18.73988,-0.01708c4.31832,-0.51946 8.43815,-2.24673 12.74293,-2.74921c4.2579,-0.49702 8.4372,-0.39319 12.68905,-1.24197c2.80985,-0.2809 4.57607,-0.45275 7.19833,0.62223l0.7011,0.11052c1.76623,0.03101 5.14498,0.29572 6.5426,1.26747c1.86424,1.29618 1.62108,2.60251 2.22537,4.42183c0.99373,2.99177 1.43109,7.20883 0.80584,10.41055c-0.50522,2.58706 -2.64049,4.92902 -3.81531,7.24689l-0.45566,1.59481c-0.19637,0.75171 -0.88005,1.30644 -1.6933,1.30644c-0.9665,0 -1.75,-0.7835 -1.75,-1.75v-2h0.105c-0.02227,-0.15912 -0.03528,-0.31982 -0.03719,-0.48244c-0.01725,-1.46906 1.64101,-2.50739 1.983,-3.93619c1.0218,-4.26899 1.20295,-7.97768 1.19919,-12.33137v-0.25c0,0 0,-0.23402 0.08558,-0.53091z" fill="#30152f"></path><path d="M236.2,125.96395l2.63739,0.29391c2.36817,1.60329 5.02267,2.09258 7.47358,3.55502c1.7104,0.68829 3.33425,2.44759 5.02283,2.88123c2.64158,0.67838 6.12898,0.26806 8.8662,0.26983c3.3198,0.00215 7.78702,0.40196 10.98147,-0.29759c5.92996,-1.29861 11.7076,-5.85603 16.23154,-9.63013c0,0 0.72194,-0.60161 1.5486,-0.39408c0.07562,-0.00757 0.15502,-0.01154 0.23839,-0.01154c1.75,0 1.75,1.75 1.75,1.75c0,6.1201 -0.56951,12.55435 0.94064,18.54808c0.66554,2.6415 1.94692,5.47139 2.3701,8.1716c0.51764,3.30303 0.20682,5.9479 1.507,9.16935c2.51264,4.31886 1.96345,9.36103 5.08362,13.53171l0.09653,2.52385c0.00212,0.03553 0.00212,0.05541 0.00212,0.05541c0,5.44004 2.16833,9.79376 2.98308,15.09061c0.47431,3.08353 1.04157,5.3929 1.94631,8.41733c0.62716,2.09652 -0.03835,4.28633 0.66335,6.32215c0.54019,1.56725 1.12749,3.12739 1.58797,4.71965c0.30844,0.79889 0.58301,1.59425 0.77247,2.38153c0.93433,3.88255 0.04681,9.05211 0.04681,13.06873c0,0 0,0.06833 -0.0135,0.17799l-0.11166,1.47194c-0.94903,2.3634 -1.38738,4.13259 -2.98753,6.18385c-2.96209,2.9701 -6.94484,7.15406 -11.30637,7.88464c-6.60268,1.10598 -12.60082,-2.33331 -18.53878,-4.38754c-1.62149,-0.56095 -3.58018,-0.50959 -5.37761,-0.75122c0.00141,0.02882 0.00212,0.05782 0.00212,0.087c0,0.36773 -0.11342,0.70896 -0.30718,0.99063l-1.32006,1.98009c0,0 -0.33508,0.50263 -0.90681,0.72039l-0.26157,0.3684c-0.26819,0.04392 -0.53467,0.09375 -0.79969,0.14876c-1.86651,2.26612 -6.29686,4.13016 -8.25526,4.78096c-2.17827,0.72387 -3.76145,0.57913 -5.99593,0.74766c-5.52912,2.43917 -11.37315,3.36415 -16.99285,1.01314c-1.43172,0.00287 -3.91986,0.09966 -5.09672,-0.55521c-0.8992,-0.50036 -1.37328,-1.53291 -2.05992,-2.29936c-1.85101,-1.58665 -3.74878,-2.76726 -5.46669,-4.48518l-0.04256,-0.22382l-0.07869,0.04722l-0.9852,-1.642c-0.03866,-0.06196 -0.07354,-0.12651 -0.10434,-0.19333l-0.50574,0.50574l-0.03488,-0.03488c-0.07084,0.08442 -0.14454,0.1667 -0.22146,0.24656c-0.67292,0.69865 -1.76312,0.81111 -2.66235,1.17485c-3.53618,1.43042 -10.10608,3.00796 -13.89801,1.69404c-1.47261,-0.51026 -2.58487,-1.79772 -4.04265,-2.34892c-3.56455,-1.34779 -6.75354,-2.46552 -9.48864,-4.33924c-1.91004,-0.75308 -3.59968,-1.84649 -4.53492,-4.03412c-0.09584,-0.22418 -0.14454,-0.45925 -0.16546,-0.70065c-0.45778,-0.20757 -0.93906,-0.64402 -0.93906,-1.56177c0,-0.96039 0.52706,-1.39372 1.00268,-1.58925c0.07829,-3.28094 0.67052,-6.45523 0.66399,-9.7439c0,-0.00012 0,-0.00018 0,-0.00018c0,0 0,-0.00223 0.00008,-0.00652l0.02373,-1.94784c0.63482,-3.52471 2.84888,-6.2334 4.44753,-9.40178l0.79002,-2.23055c1.70224,-1.70224 1.38724,-3.12337 2.69433,-5.04333c0.44607,-0.65522 1.23231,-1.02928 1.67852,-1.68441c2.01141,-2.95315 2.04875,-7.23063 3.96048,-10.27226c0.427,-0.67937 1.23085,-1.05498 1.69433,-1.71c2.16815,-3.06412 3.82188,-6.95815 5.76008,-10.26578l0.13564,-1.55348c1.46473,-2.92946 2.41967,-5.51695 3.21837,-8.70665c1.87245,-5.59209 6.27187,-9.0907 9.15141,-14.02902c1.84372,-3.16191 3.00133,-7.00181 5.06422,-10.10623c1.09556,-1.6487 2.57113,-3.02242 3.66871,-4.66979c1.76095,-2.64303 2.69824,-5.58124 4.29526,-8.27272c0,0 0.30259,-0.50432 0.8493,-0.75281c0.36966,-1.09682 1.65131,-1.09682 1.65131,-1.09682z" fill="#316a70"></path><path d="M235.31951,126.1175c-0.92232,-0.12385 -1.93722,0.25424 -2.78921,-0.1201c-2.47549,-1.08765 -3.12132,-3.74503 -4.45794,-5.65343c-1.34795,-1.92457 -3.30918,-3.35523 -4.18125,-5.69205c-0.78799,-2.11149 -1.32593,-4.2563 -2.21861,-6.39063c-0.4129,-0.17652 -0.81265,-0.31653 -1.2009,-0.42321c0.17204,-0.58752 0.32401,-1.17832 0.44306,-1.77418c1.43287,-7.17208 2.54427,-14.47388 3.32284,-21.7657c0.09789,-0.00076 0.1965,-0.00107 0.29585,-0.00094c2.26218,0.00301 3.60129,-0.02221 4.71191,0.89638c1.02708,0.05184 2.02576,0.10362 2.95475,0.10362h0.66667c0,0 0.11202,0 0.27939,0.02834c0.16774,0.02604 0.27401,0.06146 0.27401,0.06146c4.47406,1.49135 8.17213,4.69929 12.67295,6.00211c1.62923,0.4716 2.9626,0.11248 4.58466,0.24738c6.68345,0.55583 13.46179,0.32737 20.18899,0.32737c2.0384,0.02244 5.01209,-0.31314 6.77919,-1.42494c2.52049,-1.58581 4.71611,-5.89788 8.42153,-4.82491c0.48588,0.1407 0.86918,0.46787 1.22369,0.84736c0.63412,0.12715 1.24481,0.31011 1.79451,0.64311c0.29083,0.17618 3.22214,3.75538 3.38721,4.14785c0.56404,1.3411 0.03248,3.00138 0.65848,4.31471c0.30612,0.64223 1.05341,1.01259 1.33333,1.66667c1.17988,2.75699 0.57127,4.90101 -0.95709,7.09242c0.70664,1.43822 1.45963,2.9637 2.40517,4.21077c0.47218,0.62276 1.2891,1.0116 1.57076,1.74061c0.13578,0.35144 0.15614,4.01144 0.13321,4.6697c-0.03188,0.91519 0.25614,1.92922 -0.16522,2.74227c-0.67593,1.30429 -2.05184,2.07576 -3.18495,3.04026c-0.05241,0.19827 -0.14316,0.36957 -0.24963,0.51491c-0.18195,0.31757 -0.48815,0.61932 -1.00341,0.73558c-1.43572,0.61421 -2.95292,1.06003 -4.3072,1.83577c-3.21999,1.84441 -5.49994,5.22623 -8.42927,7.51057c-2.49654,1.94684 -5.23294,2.96174 -8.19024,3.9475l-0.86543,0.0637c-4.48149,1.4118 -11.45827,1.9863 -16.09004,0.97929c-0.27875,-0.0606 -4.87542,-2.39279 -4.9815,-2.4401c-3.0915,-1.37866 -6.41901,-3.02361 -9.50468,-4.90746c-0.22847,-0.08801 -0.41889,-0.22133 -0.56492,-0.34932c-1.20198,-0.75288 -2.36197,-1.54251 -3.45083,-2.3672c-0.35136,-0.08797 -0.76986,-0.16305 -1.30982,-0.23555z" fill="#ad4eab"></path><path d="M202.51009,115.96094c1.49564,-0.75815 2.95665,-1.62058 4.38558,-2.53762c1.61771,-2.6738 2.45654,-5.6851 4.73356,-7.94681c2.05604,-2.04222 5.11569,-3.49614 7.37548,-5.37548l1.95785,-1.95785c0.31669,-0.31669 0.75419,-0.51256 1.23744,-0.51256c0.39107,0 0.75218,0.12828 1.04355,0.34505l0.54209,-0.91312c0.32785,-0.5814 0.67608,-0.95029 0.98777,-1.1843c0.30992,-0.25508 0.66762,-0.44201 1.02962,-0.40483c3.56178,0.09862 7.4364,0.50997 7.90246,4.65107c1.45067,0.60385 0.93998,2.14728 0.93998,2.14728l-0.31413,0.94938c-0.43204,1.30574 -0.93909,2.55719 -1.51223,3.76126c-0.55429,4.27989 -3.09692,6.71495 -6.01823,8.97389c-0.32336,0.37089 -0.65251,0.73784 -0.98698,1.10121c0.33264,-0.0207 0.66522,-0.03714 0.99723,-0.05009c0.24022,-0.06461 0.53329,-0.09804 0.83658,-0.02573c0.5206,-0.01199 1.03871,-0.01691 1.5523,-0.01773h0.33333c0,0 1.75,0 1.75,1.75c0,1.75 -1.75,1.75 -1.75,1.75h-0.33333c-0.47092,-0.00084 -0.95491,-0.00164 -1.44584,0.00089c-1.66149,1.24224 -3.32247,3.22644 -5.02527,4.10529c-1.53395,0.79171 -3.49074,1.41384 -5.42325,2.12394c-0.70169,1.03592 -1.45298,1.93795 -2.34953,2.3626c-0.11253,0.05329 -0.22674,0.10093 -0.34247,0.1436l0.02929,0.05825l-2.10586,1.05875c-0.12644,0.06357 -0.26055,0.11189 -0.39933,0.14348c-0.3873,0.29006 -0.76462,0.57396 -1.12107,0.85265c-2.33344,1.69819 -4.85358,2.85612 -7.12465,4.62833c-1.0012,0.78127 -1.63432,1.99529 -2.69636,2.69161c-1.50863,0.98913 -3.17663,1.66202 -4.89591,2.19793c-2.78075,3.26464 -6.18183,9.19686 -10.2933,9.6271v-0.00001c-0.79038,0.08271 -1.51881,-0.43537 -2.27118,-0.7212l-1.85186,-0.39837c-0.42428,-0.18042 -0.84413,-0.30839 -1.26315,-0.39809c-1.08086,0.52098 -2.17497,1.00151 -3.26685,1.44223c-0.71065,-0.49736 -1.40739,-1.02893 -2.09005,-1.58564c-3.24334,0 -6.48668,0 -9.73002,0c-0.60777,0 -1.00446,-0.21108 -1.26338,-0.48662c-0.48662,-0.51785 -0.48662,-1.26338 -0.48662,-1.26338v-0.33333c0,-2.8833 0.09862,-6.23228 1.52729,-8.80077c0.17583,-0.31611 3.79108,-3.92742 4.04262,-4.15814c3.03268,-2.78163 5.84071,-4.86291 9.47199,-6.35794c-0.00479,-0.01196 -0.0097,-0.02385 -0.01474,-0.03567c0.22873,-0.07213 0.45394,-0.14801 0.6764,-0.22671c0.06783,-0.02589 0.13596,-0.0516 0.20439,-0.07711c0.11264,-0.07717 0.2195,-0.13687 0.31769,-0.18306c0.29493,-0.16652 0.51144,-0.21412 0.67032,-0.19219c0.18544,-0.07411 0.36988,-0.14906 0.55381,-0.22426c1.33519,-0.79451 2.68264,-1.5606 4.0823,-2.19883c1.68268,-0.76729 3.44661,-1.40208 5.22834,-2.01338c0.85153,-0.44998 1.72848,-0.85351 2.66915,-1.13773c0.87034,-0.26297 1.72046,-0.48038 2.55911,-0.6938c1.55599,-0.59368 3.07714,-1.25277 4.51927,-2.05316c0.70209,-0.79196 1.41824,-1.60654 2.21881,-2.40027zM222.00565,120.86889c-0.05248,0.04894 -0.10503,0.09783 -0.15766,0.14667c0.07321,-0.05207 0.1466,-0.10604 0.22013,-0.16169c-0.02086,0.00489 -0.04168,0.0099 -0.06246,0.01502zM214.10411,107.95139c-0.32871,0.33165 -0.62662,0.68352 -0.90125,1.05109c0.44609,-0.40298 0.83689,-0.90286 1.23801,-1.37597c-0.11554,0.10681 -0.22791,0.21505 -0.33676,0.32488zM187.83448,145.27387c0.04218,-0.04329 0.08486,-0.08689 0.12809,-0.13069c0.05846,-0.05923 0.11658,-0.11866 0.17438,-0.1783c-0.0832,0.06183 -0.16417,0.12271 -0.24269,0.18259z" fill-opacity="0.97647" fill="#ad4eac"></path><path d="M228.91416,75.8444c4.2637,-1.97872 9.58763,0.40372 13.31878,3.12359c5.46731,3.98545 10.583,13.68249 6.0947,20.04266c-1.29837,1.83986 -2.65084,2.46905 -4.4841,3.66402c-5.22324,0.94047 -14.87514,-0.30913 -17.90011,-5.56279c-0.50783,-0.88198 0.03245,-3.38276 -0.14319,-4.48852c-1.05304,-6.62958 -0.95568,-13.46001 0.00067,-20.15688c0,0 0.24749,-1.73241 1.9799,-1.48492c1.73241,0.24749 1.48492,1.9799 1.48492,1.9799c-0.1372,0.96004 -0.2545,1.92122 -0.35158,2.88296z" fill-opacity="0.94902" fill="#e6c1e4"></path><path d="M225.55687,84.46311c0.66955,0.35427 1.24637,0.82675 1.64615,1.40257c1.13817,1.63937 0.08281,6.95639 -2.61078,7.06214c-1.57495,0.06184 -3.16232,-1.14452 -4.05897,-2.5296c-0.78399,-0.43169 -1.60831,-0.83675 -1.83511,-1.6365c-0.66136,-2.33206 0.09313,-3.78178 1.40459,-4.50073c-0.04896,-0.10004 -0.0937,-0.2093 -0.13345,-0.32854c-0.077,-0.23101 -0.11651,-0.44328 -0.1265,-0.63793l-0.17698,-1.03873c-0.04016,-0.00975 -0.08016,-0.01999 -0.12001,-0.03071l-0.00795,0.0477l-1.96757,-0.32793c-0.96403,-0.1432 -1.70363,-0.97432 -1.70363,-1.97819c0,-0.62297 0.28483,-1.17942 0.73136,-1.54622l1.72202,-1.43501c0.2412,-0.52499 0.84429,-1.99252 1.69313,-3.13497l-0.98677,-0.28194c-0.8591,-0.22442 -1.49307,-1.00577 -1.49307,-1.93519c0,-0.79841 0.46784,-1.48754 1.14433,-1.80823l1.96125,-0.98062l0.14707,0.29414l0.60558,-0.50025c0.59687,0.2309 1.16696,0.54908 1.79062,0.6927c0.55151,0.12701 0.0933,-1.13685 0.01783,-1.69774c0,0 0,-2 2,-2c2,0 2,2 2,2c-0.12923,2.09483 -0.5274,3.77064 -1.56395,4.64548c0.39418,0.72882 0.15367,1.57063 0.15367,1.57063c-0.19657,0.66529 -0.39314,1.33058 -0.58971,1.99587v2.12136c0,0.93111 -0.63628,1.71361 -1.49776,1.93641c-0.00337,0.29355 -0.03892,0.60068 -0.07929,0.90984c0.59328,-0.11562 1.13763,-0.09765 1.54297,0.29991c0.3333,0.3269 0.56352,1.9285 0.39094,3.35028z" fill="#e5c1e4"></path><path d="M255.2,43.96666c-1.56713,0 -1.90631,-1.22795 -1.97972,-1.75949c-1.46063,-0.05436 -2.90715,-0.22236 -4.3194,-0.67648l-0.03421,0.10263c0,0 -2,0 -2,-2c0,-2 2,-2 2,-2l1.29912,0.10263c0.37651,0.13158 0.75116,0.23381 1.12488,0.3129c0.27079,-0.09671 0.93709,-0.33573 1.65233,-0.60775c-0.02073,-0.19577 -0.04217,-0.39141 -0.06411,-0.58692c0,0 -0.22086,-1.98777 1.7669,-2.20863c0.93149,-0.1035 1.47498,0.27801 1.78955,0.7127c2.57188,-2.46992 5.47964,-5.67958 8.56725,-0.92464c0.18785,0.28929 0.25746,0.61807 0.2727,0.96501c0.03837,-0.02051 0.07351,-0.04253 0.10505,-0.06617c0.98571,-0.73891 1.31703,-2.578 2.54471,-2.68013c2.65731,-0.22107 5.56055,4.50463 5.05718,7.32478c0.17314,0.31029 0.26826,0.63636 0.21775,0.98957c-0.20818,1.45561 -1.25999,3.01177 -2.63234,3.53979c-2.68303,1.03233 -4.75697,-0.73168 -6.98378,-1.52635c-2.23994,-0.09069 -4.53095,-0.34677 -6.38388,-0.34677h-0.11589c-0.18359,0.5817 -0.65804,1.33333 -1.88411,1.33333zM260.37666,36.71457c-0.06976,0.06874 -0.13834,0.13898 -0.20595,0.21042c0.03837,-0.00445 0.07668,-0.00907 0.11493,-0.01387c0.02661,-0.06897 0.05722,-0.13445 0.09102,-0.19654z" fill="#e5c1e4"></path><path d="M209.2,241.63333c2,0 2,2 2,2l-0.00681,1.83504c-0.14349,0.89139 1.71407,0.93874 2.04145,1.78017c1.19284,3.0658 -0.26952,4.33939 -1.80623,6.30085c-0.4953,0.63221 -0.75052,1.63915 -1.51991,1.86949c-0.0013,0.00039 -0.00261,0.00078 -0.00391,0.00116c-0.02737,0.12757 -0.05473,0.25514 -0.0821,0.38271l-0.54116,0.08744l-0.33371,0.23836l0.14681,0.29363l-1.96401,0.98201c-0.27793,0.14633 -0.5945,0.22914 -0.93041,0.22914c-1.10457,0 -2,-0.89543 -2,-2c0,-0.68055 0.33991,-1.2817 0.85921,-1.64296l1.50912,-1.07794c-0.00497,-0.29842 -0.00993,-0.59685 -0.0149,-0.89527c0,0 0.28284,-1.9799 2.26274,-1.69706c0.03498,0.005 0.06925,0.01052 0.10282,0.01656c0.14773,-0.16649 0.29666,-0.33194 0.44542,-0.49746c0.15055,-0.16751 0.65466,-0.36227 0.46761,-0.48774c-0.51678,-0.34664 -1.44942,0.08161 -1.8192,-0.41887c-0.64104,-0.86763 -0.53734,-2.08953 -0.80602,-3.1343l-0.00681,-2.16496c0,0 0,-2 2,-2z" fill="#e5c1e4"></path><path d="M256.8641,254.4094c-1.1094,1.6641 -2.7735,0.5547 -2.7735,0.5547l-1.05068,-0.77337c0.35677,1.69051 -0.66316,3.57022 -1.27588,5.40839l-4.22813,-0.52306c0,0 -1.1094,-1.6641 0.5547,-2.7735c0.03041,-0.02027 0.06063,-0.03962 0.09066,-0.05806c-2.31912,-0.64125 -5.86277,-2.02835 -1.36606,-5.6458c1.04444,-0.84022 2.6881,0.12139 3.92212,0.90076c-0.27174,-0.54405 -0.52851,-1.53244 0.51564,-2.40257c1.53644,-1.28037 2.81681,0.25607 2.81681,0.25607c0.55556,0.66667 1.11111,1.33333 1.66667,2l0.57296,0.28293c0,0 1.6641,1.1094 0.5547,2.7735z" fill="#e5c1e4"></path><path d="M278.05937,135.67391c0.85262,0.87117 0.39114,2.40992 0.47396,3.62608c0.16338,2.39901 0.00293,4.92027 0,7.33333c-0.00445,3.66639 -0.33333,7.31014 -0.33333,11c0,2.10706 0.49091,5.11915 -0.0535,7.12617c-0.79753,2.94015 -3.17301,6.08797 -5.52439,8.75155l0.03341,0.01671l-0.98062,1.96125c-0.32069,0.67649 -1.00983,1.14433 -1.80823,1.14433c-0.89968,0 -1.66061,-0.59405 -1.91195,-1.4113l-0.65208,-1.95625l0.02366,-0.00789l-0.04654,-0.06539c-0.39164,-1.56925 -0.28908,-3.27382 -0.91534,-4.76504c-0.58709,-1.39794 -1.66474,-2.53832 -2.41639,-3.85493c-0.19733,-0.27213 -0.30077,-0.57342 -0.35498,-0.8145c-0.05586,-0.22588 -0.09656,-0.51903 -0.05537,-0.8294c-0.68884,-2.40913 -1.39858,-4.81635 -2.47206,-7.09236c-1.4901,-3.15933 -3.6565,-6.02325 -4.17962,-9.59222c-0.54046,-3.68725 -0.009,-8.6214 3.88197,-10.45849c2.64469,-1.24868 7.49406,-0.26665 10.48781,0.88652c1.26628,-2.26327 4.95754,-2.8844 6.8036,-0.99818zM274.68107,138.56536c0.04245,0.00731 0.08589,0.01318 0.13014,0.01791c0.05875,-0.11109 0.12391,-0.21916 0.19609,-0.32386c0.0786,-0.11401 -0.17815,0.26135 -0.32622,0.30595z" fill="#30152f"></path></g><path d="" fill="#316a70" stroke-width="0.5"></path><g fill="none" stroke-width="0"><path d="M-34,360v-359h34v359z"></path><path d="M480,360v-359h34v359z"></path></g><g fill-opacity="0.23529" fill="#2f152f" stroke-width="0.5"><path d="M263.47912,264.95512c-1.61913,0.92126 -3.28806,1.76161 -4.99888,2.49876l-0.04484,0.01796c0.003,0.04205 0.00579,0.08413 0.00836,0.12623c0.11762,1.92613 -0.5853,3.92602 -0.08066,5.78858c0.23491,0.86704 0.98665,1.52788 1.25349,2.38562c0.05058,0.16258 0.09437,0.32684 0.13255,0.49249c0.78849,-0.23806 1.78795,-0.19219 2.86483,0.7052c2.49672,2.0806 0.41612,4.57732 0.41612,4.57732l-1.1075,1.02578c0.03432,0.24822 0.06753,0.89899 0.12494,1.66999c0.08428,0.15005 0.15762,0.3054 0.21486,0.4686c0.3301,0.94123 0.45777,2.09034 0.50426,3.24822c0.06336,0.07085 0.132,0.11197 0.20644,0.11758c2.10679,0.159 5.21261,-0.98347 7.21387,-0.1783c0.10097,0.04062 0.20153,0.08211 0.30171,0.12442l0.01542,-0.07712l4.63554,0.92711c0.90752,0.00381 1.81636,0.00978 2.72708,0.00978h0.66667c0,0 3.25,0 3.25,3.25l-0.00004,-0.00002c0,3.25 -3.25,3.25 -3.25,3.25h-0.66667c-0.8505,0 -1.70688,-0.01348 -2.56554,-0.02879c-0.03797,0.00507 -0.07616,0.00949 -0.11453,0.01324l-2.96103,0.329l-0.00905,-0.08148l-0.17012,0.09639c-1.92797,0.00337 -3.85595,0.00469 -5.78392,0.00513c-1.97802,0.31603 -3.98216,0.67687 -5.93109,0.3269c-1.6747,-0.30073 -3.75239,-0.17107 -4.90117,-1.42619c-1.09956,-1.20135 -0.54236,-3.21168 -0.81355,-4.81752c0,0 0,-1.65264 1.17849,-2.60094c-0.04345,-0.35909 -0.07539,-0.72352 -0.098,-1.08994c-0.43164,-0.61886 -0.97074,-1.18303 -1.22617,-1.88742c-0.73579,-2.02902 -0.36145,-4.33884 -1.02087,-6.39395c-0.33292,-1.03755 -1.16306,-1.88715 -1.41317,-2.94771c-0.17714,-0.75114 -0.28508,-1.47806 -0.35249,-2.18918c-0.15288,0.0169 -0.3142,0.02582 -0.48445,0.02582c-3.25,0 -3.25,-3.25 -3.25,-3.25l0.01335,-1.29424c0.18199,-1.94874 0.51244,-3.8005 0.9778,-5.58944c-1.34405,-0.39856 -2.32448,-1.64294 -2.32448,-3.11632c0,-0.30037 0.04075,-0.59122 0.11702,-0.86734l-0.43238,-1.75399l-1.14437,0.42914l-0.9737,-2.59653c-0.15044,-0.37434 -0.23323,-0.78314 -0.23323,-1.21128c0,-1.79493 1.45507,-3.25 3.25,-3.25c0.42814,0 0.83695,0.08279 1.21128,0.23323l1.43474,0.53803c0.75755,-0.90972 2.10363,-1.74478 3.22425,-2.30823c0.42868,-0.57478 0.87601,-1.13491 1.34366,-1.67688l0.50334,-0.12185l-0.10643,-0.17029l2.62418,-1.64011c0.50824,-0.32933 1.11428,-0.52056 1.76499,-0.52056c0.1772,0 0.35109,0.01418 0.52059,0.04147c0.72537,-0.69162 1.52146,-1.34104 2.43058,-1.99658c-0.1301,-0.35145 -0.20117,-0.73154 -0.20117,-1.12822c0,-0.24145 0.02633,-0.47675 0.07627,-0.70318l0.65351,-3.26753l0.03582,0.00716l-0.01975,-0.0828c0.22818,-0.91397 0.45635,-1.82793 0.68453,-2.7419c0,0 0.31874,-1.27495 1.36158,-2.00069c1.06537,-3.32825 1.36818,-6.41883 1.9105,-10.02536c0.8995,-5.9818 0.40893,-11.95597 0.63268,-17.96053c0.38026,-10.20487 0.66487,-20.32421 0.66487,-30.55851c0.00659,-3.00943 0.31807,-5.63296 1.04332,-8.54888l0.30977,-2.47813c0.17928,-1.62535 1.55712,-2.88966 3.23025,-2.88966c1.68697,0 3.07374,1.28531 3.23445,2.93007l0.31726,2.85533c0.48587,1.08947 0.41402,2.35042 0.64064,3.52186c1.07291,5.54587 1.99192,11.05176 2.66716,16.66545c0.37684,3.1329 -0.22754,6.94351 0.33833,10.03074c0.56547,3.08502 1.76769,6.03377 2.28917,9.12653c0.91759,5.44195 1.84393,11.16153 3.29172,16.51662c1.22429,4.52843 4.51797,8.18019 5.70755,12.81516l0.49724,1.98894c0.25461,0.50266 0.37904,1.14211 0.23496,1.94907c-0.06355,0.60042 -0.28171,1.30607 -0.87078,1.86461c-0.55854,0.58907 -1.26419,0.80723 -1.86461,0.87078c-0.81845,0.14612 -1.46459,0.01605 -1.97046,-0.24592c-0.0701,-0.01862 -0.13982,-0.0373 -0.20918,-0.05607c-0.62721,-0.00564 -1.21199,-0.18895 -1.70645,-0.50204c-0.84409,-0.27112 -1.63715,-0.56406 -2.39886,-0.892c-0.06382,0.12802 -0.10883,0.20003 -0.10883,0.20003c-4.46744,7.12747 -9.93638,12.37642 -16.58026,17.36463l-0.96774,0.96774c0.02735,0.18993 0.04201,0.39354 0.04201,0.6118c0,0.73096 -0.1644,1.29752 -0.41925,1.73666c1.59293,2.81201 -1.21833,4.41844 -1.21833,4.41844z"></path><path d="M230.11039,238.93138c0.07074,1.65448 0.48679,3.0259 0.83714,4.46519c0.31823,0.50239 0.50247,1.09806 0.50247,1.73676c0,0.22042 -0.02194,0.43572 -0.06376,0.64382c0.03426,0.32935 0.0567,0.66929 0.06376,1.02285v0.33242c1.17446,0.48979 1.99997,1.64894 1.99997,3.00091c0,1.01233 -0.46285,1.91656 -1.18847,2.51261l-1.98093,1.65078l-0.05003,-0.06004c-0.08177,0.09605 -0.1656,0.19052 -0.25169,0.28326c-0.76111,0.81992 -1.99281,1.01733 -2.99211,1.52028c-0.36711,0.18477 -0.71952,0.41745 -1.07483,0.64112c-0.5466,0.5868 -1.30775,0.9711 -2.15853,1.02799c0.48204,0.73144 1.06553,1.43503 0.51407,1.84763c-1.77472,1.32783 -4.36539,0.77091 -6.54809,1.15636l-1.40039,0.00187c-0.91605,3.3215 -2.21772,6.40592 -3.60936,9.44301c-0.03883,0.17921 -0.09245,0.35291 -0.15951,0.51976l-0.86263,2.30035c-0.25254,2.38249 -1.14359,4.65823 -1.61277,7.00896c-0.48894,2.44974 0.04197,5.63562 0.04197,8.14607c0,0.4785 0.04743,7.36967 -0.15504,7.65849c-0.1919,0.27373 -0.4039,0.52825 -0.63185,0.76754l0.18152,0.12966l-0.39649,0.55508c-0.0584,1.74364 -1.49029,3.13923 -3.24815,3.13923h-3.66667v-0.13311c-1.74265,0.1241 -3.29832,-0.52236 -5.0436,-2.98998c-1.78396,-2.52231 -1.29507,-7.18524 -1.2064,-10.12692c0.03794,-1.25877 -0.4703,-2.70323 0.19412,-3.77305c0.20975,-0.33773 0.43459,-0.69534 0.67556,-1.05336l0.15542,-1.24337l0.35257,0.04407l-0.18557,-0.74176c1.23774,-2.01408 3.28954,-6.20436 5.38378,-9.05505c1.01894,-2.6822 1.9171,-5.5454 2.4941,-8.18166c0.53384,-2.43908 -0.00135,-4.46208 2.10501,-6.51648c-2.11664,-2.54604 -1.44503,-6.00225 0.24439,-8.3993c-0.46996,-0.56362 -0.7527,-1.28881 -0.7527,-2.08003c0,-0.76257 0.26264,-1.4638 0.70239,-2.01817l0.72238,-0.92877c-0.31475,-0.46795 -0.44279,-0.95146 -0.46426,-1.40472c-0.14724,-1.02119 0.28338,-1.81177 0.74749,-2.3452l0.30178,-0.42324c0.38212,-0.76424 3.07732,-6.17032 3.22131,-6.3769c1.33911,-1.92116 3.37777,-3.30446 4.63231,-5.28188c1.08664,-1.71277 2.07849,-3.47537 3.01277,-5.26668c0.53448,-2.08489 1.11859,-4.16117 1.51038,-6.2068c0.97719,-5.10219 1.27477,-10.02586 3.17483,-14.94356c3.1104,-8.0503 7.63847,-15.4862 11.03474,-23.41765c0,0 1.28024,-2.98722 4.26746,-1.70698c2.98722,1.28024 1.70698,4.26746 1.70698,4.26746c-0.30143,0.70276 -0.61864,1.40467 -0.94831,2.10615c1.10911,0.51734 1.87776,1.64238 1.87776,2.94695c0,0.29733 -0.03993,0.58534 -0.11471,0.85895l-0.64899,2.59596l-0.05595,-0.01399l0.02338,0.13441c-2.3603,7.0899 -2.77345,14.06977 -4.61757,21.1436c-1.81454,6.96037 -4.43806,13.41507 -6.61906,20.22262c-0.043,2.95451 -0.099,5.91835 0.02663,8.8565z"></path><path d="M278.99298,71.81755c-0.16996,-0.06798 -0.32651,-0.14171 -0.47063,-0.22031c-0.4849,0.28763 -1.05101,0.45276 -1.65568,0.45276h-2.13692l-1.53441,0.87681c-0.4863,0.28995 -1.0547,0.45653 -1.66201,0.45653c-0.98255,0 -1.86326,-0.43601 -2.4592,-1.12511c-0.29612,0.32642 -0.70437,0.62396 -1.26056,0.86233c-2.98722,1.28024 -4.26746,-1.70698 -4.26746,-1.70698l-0.54454,-1.57576c-1.61673,-1.05878 -3.00143,-2.46407 -4.26915,-3.92274c0,0 -2.11507,-2.46758 0.35251,-4.58266c2.46758,-2.11507 4.58266,0.35251 4.58266,0.35251c1.28741,1.52918 2.80501,2.86907 4.39751,4.07726l0.9798,2.08078l0.19006,-0.38011c0.01915,-0.36403 0.10533,-0.76449 0.28082,-1.20321c0.62197,-1.55493 1.7247,-1.98811 2.64756,-2.04273c0.59744,-0.13309 1.31636,-0.07734 2.15677,0.34286c0.26143,0.13071 0.48759,0.27318 0.68271,0.42424l2.58613,0.64653c0.15624,0.03546 0.30821,0.08217 0.45501,0.13924l0.35512,-0.75153c0.66667,-0.77778 1.33333,-1.55556 2,-2.33333c0,0 2.11507,-2.46758 4.58266,-0.35251c2.46758,2.11507 0.35251,4.58266 0.35251,4.58266c-0.66667,0.77778 -1.33333,1.55556 -2,2.33333l-0.1167,0.75861c0,0 -1.20702,3.01755 -4.22457,1.81053z"></path><path d="M270.65942,89.28651c1.61084,-0.98962 3.25164,-1.95784 5.11808,-2.6474c2.07585,-0.24233 7.1537,-1.01804 8.86222,-0.22833c1.7625,0.81467 3.5643,2.27705 4.092,4.14564c0.42995,1.52242 -1.03917,2.99141 -1.66628,4.44378c-1.36012,3.15003 -4.09051,6.76393 -7.54028,7.89476c-0.57822,0.18954 -5.53181,0.15504 -6.65849,0.15504c-3.67597,0 -7.89968,0.53664 -11.52059,-0.04197c-1.04089,-0.16633 -1.96371,-0.80708 -3,-1c-3.94997,-0.73536 -7.14644,0.37429 -11.09298,-1.22081c0,0 -2.98722,-1.28024 -1.70698,-4.26746c0.38268,-0.89291 0.91787,-1.40454 1.48021,-1.68304c-0.04997,-0.2265 -0.07632,-0.46187 -0.07632,-0.70339c0,-1.02795 0.47724,-1.94443 1.22224,-2.53997c-1.06195,-1.52599 -1.97899,-3.12673 -2.78003,-4.62586l0.2633,-0.83417h-0.37218v-3.33333c0,-1.79493 1.45507,-3.25 3.25,-3.25c1.23054,0 2.30136,0.68389 2.85309,1.69233l1.27128,2.22474c0.50824,0.4867 0.45986,1.40266 0.9905,1.86517c0.54861,0.47818 1.44231,0.36206 2.04051,0.77654c1.20273,0.83335 2.1946,1.90125 3.26362,2.88028c3.15636,-0.24608 6.52505,-0.1217 8.99166,-0.10481c0.76721,0.00525 1.69793,0.17076 2.71543,0.40225z"></path><path d="M304.56888,193.99783c0.33144,0.53671 0.45075,1.01393 0.45075,1.01393c2.51737,10.07378 5.41926,19.98559 5.43037,30.45491v3c0,1.79493 -1.45507,3.25 -3.25,3.25c-1.23054,0 -2.30136,-0.68389 -2.85309,-1.69233l-1.30203,-2.27856l0.05856,-0.03346c-0.0696,-0.08248 -0.13755,-0.16659 -0.20371,-0.25244c-2.0495,-2.65944 -2.10281,-8.0563 -2.8599,-11.23441c-0.77193,-3.2404 -1.38803,-6.08912 -1.73854,-9.41766c-0.26761,-2.54131 -0.08279,-5.9487 -0.8785,-8.39935c-0.30691,-0.94523 -1.04488,-1.71564 -1.33333,-2.66667c-0.53207,-1.75423 -1.46999,-6.485 -1.41753,-8.34504c0.05573,-1.9759 -0.83116,-4.91927 0.90718,-5.86025c7.6005,-4.11424 7.7465,5.06595 8.17914,8.52704l0.64625,0.03952c0,0 1.61449,2.01811 0.16439,3.89476z"></path><path d="M229.955,106.64101c0,0 -2.84101,-1.57834 -1.26267,-4.41935c0.31979,-0.57561 0.6914,-0.96981 1.08072,-1.23248c-0.08877,0.02184 -0.18081,0.03987 -0.27621,0.05365c-0.04677,0.06432 -0.09585,0.12685 -0.14711,0.18748l-0.17341,0.2081c-0.11031,0.16534 -0.24067,0.32566 -0.39473,0.47367l-1.08487,1.30185l-0.10515,-0.08762c-0.1165,0.18959 -0.24061,0.37478 -0.37374,0.55474c-0.64873,0.87697 -1.98467,0.92093 -2.90561,1.50556c-0.93621,0.59432 -3.18271,2.92378 -3.75559,3.49011l-0.36502,0.09135c0.00009,0.00628 0.00016,0.01256 0.0002,0.01883l0.06402,0.10244l-0.0669,0.04182c-0.07024,1.49234 -1.37226,2.46886 -1.37226,2.46886c-4.24783,3.16842 -6.44736,8.24681 -10.85716,11.13252c-0.89599,0.58632 -2.03021,0.70112 -2.98717,1.18155c-4.98445,2.50239 -10.05444,5.34622 -14.74078,8.19029c-4.10743,2.49273 -7.6186,2.56406 -10.27556,6.95148l-0.31806,0.35135c-0.17661,1.60202 -0.25538,3.11166 -0.08483,4.76374l0.88555,0.49072c0.01386,0.00593 0.02772,0.01187 0.04158,0.01781c0,0 0.21662,0.09284 0.5082,0.28685l0.10059,0.05574c0,0 0.08008,0.0572 0.20241,0.16563c0.5087,0.40752 1.08815,1.06902 1.19672,2.01638c0.09966,0.59677 0.01156,1.29302 -0.45089,2.05927c-0.41498,0.79296 -0.96439,1.22961 -1.52623,1.45413c-0.86613,0.39886 -1.7323,0.24685 -2.34465,0.02352c-0.15617,-0.0483 -0.24662,-0.08706 -0.24662,-0.08706c-2.16123,-0.92649 -4.32684,-1.80738 -6.5291,-2.61715c-1.6139,1.71125 -3.58615,3.38245 -5.76463,3.16218c-2.37525,-0.24016 -4.2465,-3.07772 -4.67431,-5.42644c-0.337,-1.85015 1.71854,-3.35849 2.79305,-4.90188c1.41698,-2.0353 3.64127,-3.88393 5.2161,-5.85678c0.18229,-0.22837 0.34219,-0.48451 0.49499,-0.7492c0.14861,-0.28916 0.31113,-0.57515 0.48584,-0.85708c0.09489,-0.15954 0.19325,-0.31456 0.2986,-0.46067c1.81763,-2.68583 4.69299,-4.94464 7.08131,-5.96252c1.77939,-0.75836 3.86586,-0.77507 5.52806,-1.76423c1.87688,-1.11691 3.05166,-3.27877 5.03552,-4.19228c2.45037,-1.12832 5.56934,-0.3604 8.10309,-1.37683c3.5034,-1.40542 5.75612,-4.74755 8.78554,-6.71685c0.75597,-0.49143 1.78968,-0.4245 2.54465,-0.91746c1.46722,-0.95802 2.8495,-3.74209 3.68274,-5.21689c1.00613,-1.92015 2.14116,-3.57141 3.44646,-4.99467c1.23537,-3.56689 5.29179,-5.23911 6.84542,-8.59191l0.21081,-0.42163l-0.46731,-0.37766c-0.77937,-1.11863 -2.06641,-2.01987 -2.33812,-3.35588c-0.29846,-1.46756 0.37957,-2.97913 0.7549,-4.42894c0.08308,-0.3209 0.16942,-0.65823 0.29021,-0.97642c-0.21131,-0.17888 -0.41346,-0.3669 -0.60811,-0.56239l-0.15786,0.221l-2.29809,-1.64149c-0.84387,-0.58704 -1.39622,-1.56392 -1.39622,-2.66981c0,-1.67313 1.26431,-3.05097 2.88966,-3.23025c0.1189,-0.01486 0.28474,-0.03559 0.48496,-0.06062c-0.36103,-0.28331 -0.70911,-0.5748 -1.04458,-0.85714c-0.93612,-0.17398 -2.66337,-0.81603 -2.66337,-3.18533c0,-3.25 3.25,-3.25 3.25,-3.25l2.74727,0.75328c0.0402,0.03504 0.08206,0.06894 0.12518,0.10195c0.10918,-0.27993 0.21048,-0.56128 0.26213,-0.84677c0.3919,-2.16624 -0.15783,-4.46073 0.39096,-6.59264c0.6571,-2.55263 2.68624,-4.14565 4.05827,-6.23197c1.1005,-1.67343 1.98802,-4.73008 4.1853,-5.57969c-1.95287,-3.2347 -1.46691,-7.46458 -2.27506,-10.98248c0,0 -0.70502,-3.17261 2.46758,-3.87763c3.17261,-0.70502 3.87763,2.46758 3.87763,2.46758c0.33008,1.52609 0.44833,3.08835 0.58885,4.64608c0.5977,0.2388 0.9858,0.56222 0.9858,0.56222l1.61762,1.39237c1.11612,0.66064 2.88884,0.76907 3.34835,1.98192c0.0051,0.01347 0.01018,0.02693 0.01522,0.04039c0.0142,0.0077 0.02837,0.01556 0.04251,0.0236c2.82614,1.60655 1.3336,10.65567 0.68563,12.95715c-1.18297,4.20173 -3.65708,8.00104 -5.04334,12.13884c-0.92004,2.74621 -1.59491,5.88348 -2.2476,8.698c-0.95914,4.13603 0.01768,8.17082 -0.60174,12.28574c-0.32257,2.14287 -0.92755,4.2336 -1.39132,6.35039c0,0 -0.02087,0.09392 -0.07159,0.24585c-0.17023,0.61085 -0.53498,1.37617 -1.3165,1.85143c1.26865,-0.30544 2.46052,0.35671 2.46052,0.35671c0.56127,0.31185 1.1212,0.62611 1.67994,0.94248c0.13008,-0.01191 0.26612,-0.01814 0.40838,-0.01814c1.86181,0 2.65706,1.06657 2.99673,1.9777c0.51729,0.30203 1.03381,0.60537 1.54967,0.90978l2.98421,0.89526c1.37557,0.37836 2.38606,1.63813 2.38606,3.13392c0,1.14721 -0.5944,2.15559 -1.49203,2.73397c0.19489,0.45633 0.37977,0.90173 0.56257,1.31913l0.07412,0.92523c0.98083,0.50897 2.27075,0.64215 3.23659,1.21071c1.90405,1.12086 4.28827,2.47318 6.86753,3.6668c3.44472,0.15667 7.00186,0.38458 10.25466,-0.05369c2.61283,-0.35205 6.06371,-1.45435 8.43364,-2.69583c1.33939,-0.70164 2.43365,-2.20746 3.94537,-2.2384c0.29075,-0.00595 0.57984,0.00336 0.86753,0.02557v-0.1435h0.66963c0.57076,-1.10663 1.16465,-2.20139 1.77025,-3.28978h0.00002c-0.01521,-0.14567 -0.02321,-0.29894 -0.02321,-0.46022c0,-1.91443 1.12771,-2.70116 2.05456,-3.02446c0.58385,-0.71732 2.02124,-2.00875 4.14122,-0.79733c0.50121,0.28641 0.86252,0.61097 1.11782,0.95109l1.57893,0.35087c1.48717,0.29823 2.60746,1.61154 2.60746,3.18649c0,1.01233 -0.46285,1.91656 -1.18847,2.51261l-1.96809,1.64007c-1.29329,1.10812 -2.31562,2.57988 -3.56708,3.72619c-0.18797,0.34707 -0.43728,0.65606 -0.73339,0.91244l-2.65284,2.32123l-0.0752,-0.08595l-0.17925,0.28709c-3.30405,1.90919 -7.68921,4.91252 -11.38485,5.82744c-5.37598,1.33092 -11.48665,-0.18286 -17.01776,-2.51359c-0.71995,0.00096 -1.43309,-0.00643 -2.1423,-0.03005c0.36962,0.41845 0.73588,0.83992 1.09998,1.26346l1.96268,0.73601c1.26919,0.4424 2.17989,1.6497 2.17989,3.06971c0,0.79472 -0.28525,1.52282 -0.75894,2.08749c0.48466,0.05454 0.97079,0.09155 1.45814,0.1071c0.34438,0.01099 0.69233,0.02581 1.04327,0.04321c2.77562,0.0872 5.55295,0.17886 8.34087,0.17886c0.3772,0 0.77377,0.01559 1.18322,0.0389c1.1124,-0.10129 2.20421,-0.28249 3.25794,-0.58071c0.4041,-0.11436 3.06084,-1.15537 4.25014,-1.67666c0.85004,-1.06127 1.69328,-2.12591 2.80595,-2.87986c0.46616,-0.31587 0.987,-0.52407 1.52564,-0.69869l2.25996,-1.80797c0.55931,-0.45536 1.27301,-0.72835 2.05048,-0.72835c0.21137,0 0.41802,0.02018 0.61814,0.05871l2.25303,-1.93117c0.57026,-0.49477 1.31458,-0.79421 2.12883,-0.79421c1.79493,0 3.25,1.45507 3.25,3.25c0,0.15406 -0.01072,0.30562 -0.03145,0.45397l-0.32698,2.61581l-0.18112,-0.02264l0.09309,0.46955c-0.29252,0.70318 -0.58505,1.40635 -0.87757,2.10953c-0.13456,0.60364 -0.45815,1.09469 -0.76622,1.44756c-0.28512,0.35992 -0.69807,0.75865 -1.25023,1.00243l-0.35382,0.23509c-3.137,2.1114 -4.82729,5.82025 -7.67809,8.40411c-2.97169,2.69343 -6.82805,3.81173 -10.07987,5.99211c-2.95172,1.97916 -5.24511,3.46044 -8.55098,4.82495c-0.34623,0.16685 -0.68973,0.26124 -0.96758,0.31464c-0.36374,0.07019 -0.85808,0.11694 -1.37809,0.02221c-7.22073,1.60023 -11.86258,5.81052 -16.02711,11.6937c-0.29455,0.61984 -0.81981,1.25173 -1.75651,1.53421c-0.57577,0.24396 -1.29029,0.34238 -2.10517,0.03618c-0.84318,-0.21645 -1.3721,-0.70683 -1.70388,-1.23687c-0.16221,-0.20595 -0.28584,-0.4155 -0.37772,-0.62497c-2.07818,-1.94989 -5.11125,-4.9738 -7.85065,-4.1085c-0.94926,0.29984 -1.81817,0.79148 -2.67943,1.30296l-0.49371,0.98742l-0.06806,-0.03403l-0.01068,0.18186c-1.30708,2.04276 -2.22252,4.31218 -3.40706,6.42835c-2.22182,3.96925 -5.38547,8.00987 -7.12081,12.29693c-1.5116,3.73431 -1.19882,4.99551 -3.25942,8.13784c-2.53095,3.8596 -5.53736,7.3361 -8.45806,10.84167c-1.26006,1.51238 -2.24374,3.32985 -3.13105,5.21876c-0.43937,1.40496 -0.5807,2.9054 -1.07919,4.2932c-0.47161,1.31297 -1.08786,2.46324 -1.74317,3.56791c-0.11344,0.34945 -0.23669,0.69535 -0.37374,1.03624c-0.19956,0.49638 -0.61846,0.85988 -1.01358,1.24001c-0.33683,0.56148 -0.66468,1.13232 -0.96943,1.72818c-0.11751,0.68522 -0.12543,1.4141 -0.52108,1.96568c-0.01881,0.02622 -0.0377,0.05239 -0.05667,0.07848l0.0261,0.00949l-1.30744,3.59545c-0.43353,1.28516 -1.64881,2.21055 -3.08022,2.21055c-0.72864,0 -1.40128,-0.23978 -1.94331,-0.64475c-0.42143,0.1997 -0.89268,0.31141 -1.39003,0.31141c-1.79493,0 -3.25,-1.45507 -3.25,-3.25v-3h0.29993l-0.22913,-0.67467c2.15557,-5.06938 4.89023,-8.64009 8.33818,-11.93741l-0.22614,-0.14538l2.66759,-4.14958c-0.3272,-0.50714 -0.51709,-1.1112 -0.51709,-1.75962c0,-0.43405 0.08509,-0.84822 0.23949,-1.22675l2.28739,-6.00441l0.02268,0.00864c0.00747,-0.04049 0.01505,-0.08096 0.02273,-0.12143c0.9416,-4.96301 5.675,-9.21702 8.23395,-13.34431c1.35459,-2.1848 2.48153,-4.50264 3.6206,-6.79744c-0.1366,-0.17021 -0.24865,-0.34967 -0.34057,-0.52956c-0.55923,-0.85242 -0.56558,-1.67457 -0.38041,-2.34598l0.0382,-0.67711c1.81608,-8.08017 6.5612,-13.82571 11.82826,-19.52661c1.02012,-1.29989 2.21144,-2.51991 3.45773,-3.70657c0.48592,-0.52276 0.97186,-1.04919 1.45604,-1.58098c1.68058,-4.48357 2.17932,-9.90112 4.55046,-13.98663c0.08889,-0.15317 0.17487,-0.31061 0.25942,-0.47055c-0.19001,-0.41296 -0.29598,-0.87259 -0.29598,-1.35697c0,-0.41445 0.07758,-0.81078 0.219,-1.17526c-0.31145,-0.77411 -0.58804,-1.46601 -0.84343,-1.97477c-1.01417,-2.02027 -2.84546,-3.71655 -3.02169,-6.15171c-0.26076,-3.60327 1.5045,-9.02298 4.18071,-11.57585c0.10924,-0.1042 0.21875,-0.21221 0.32888,-0.32239c-0.17496,-0.0976 -0.35,-0.19505 -0.52514,-0.29233zM234.61268,135.21761c0.00979,0.00023 0.01956,0.00051 0.02932,0.00083c0.12325,-0.0947 0.24774,-0.18798 0.37252,-0.27996c-0.08014,-0.08647 -0.15936,-0.17394 -0.23769,-0.26237c-0.057,0.1797 -0.11161,0.36026 -0.16415,0.5415zM259.49798,146.24332c0.40473,-0.16851 0.78411,-0.3354 1.14446,-0.50259c-0.61234,0.05544 -1.21586,0.13481 -1.79056,0.29936c-0.11407,0.08813 -0.23417,0.16884 -0.35957,0.24142z"></path></g><g fill-opacity="0.23529" fill="#2f152f" stroke-width="0.5"><path d="M203.61668,258.13335c0,-1.01233 0.46285,-1.91656 1.18847,-2.51261l1.93944,-1.6162c0.10739,-0.09504 0.32528,-0.28765 0.59117,-0.53784c-0.01336,-0.24499 -0.02961,-0.48621 -0.05195,-0.72144c-0.1114,-1.17286 0.02332,-2.28468 0.33823,-3.33539c-0.29287,-0.17775 -0.55697,-0.3826 -0.74073,-0.66589c-0.04037,-0.06223 -0.08003,-0.12485 -0.11901,-0.18783l-0.02987,0.0256l-1.98821,-2.31957c-0.49477,-0.57026 -0.79421,-1.31458 -0.79421,-2.12883c0,-1.79493 1.45507,-3.25 3.25,-3.25h3.54637c0.28207,-0.02939 0.57092,-0.09999 0.85994,-0.17164c0.41283,-0.8999 0.81198,-1.73455 1.08788,-2.45847l2.19957,1.14571l0.2999,-0.74975c-0.36382,-0.52491 -0.577,-1.16215 -0.577,-1.84918c0,-0.4802 0.10414,-0.93608 0.29108,-1.34627l0.9717,-2.2673c1.97779,-4.59492 4.73187,-8.82518 6.70122,-13.41113c2.69116,-6.26678 3.7097,-12.97212 5.48385,-19.4971c0,0 0.15454,-0.56666 0.57312,-1.15248c0.89855,-2.67509 1.92008,-5.30463 2.85262,-7.80021c0,0 0.05871,-0.15656 0.18501,-0.38534c0.28835,-0.55845 0.81822,-1.28101 1.7168,-1.59534c0.55932,-0.21338 1.256,-0.26453 2.10802,0.01721c0.86135,0.25179 1.40583,0.68943 1.74512,1.18263c0.56126,0.76892 0.58724,1.66456 0.50756,2.28799c-0.02592,0.26004 -0.06647,0.42225 -0.06647,0.42225l-0.33333,1.33333c-0.72257,2.76815 -0.39784,5.33725 -0.9605,8.15395c-0.42761,2.14062 -1.52552,4.10065 -2.04984,6.21966c-0.58534,2.36563 -1.24018,4.73104 -1.97566,7.07948c-0.13127,3.8372 -0.2243,7.69141 -0.98933,11.4407c-0.28878,1.41526 -1.02151,2.71668 -1.29709,4.13457c-0.46075,2.37051 0.04127,5.11544 -0.2972,7.51674c-0.20713,1.46951 0.24309,3.49565 -0.5599,4.60703c0.41017,0.79916 0.89035,1.558 1.59651,2.12757l2.23383,1.59559c0.84387,0.58704 1.39622,1.56392 1.39622,2.66981c0,1.79493 -1.45507,3.25 -3.25,3.25h-3v-0.07042c-0.18015,0.01661 -0.3616,0.02513 -0.54452,0.02448c-0.07911,-0.00028 -0.15889,-0.00304 -0.23933,-0.00815c0.0223,0.1537 0.03384,0.31088 0.03384,0.47075c0,1.01233 -0.46285,1.91656 -1.18847,2.51261l-1.98093,1.65078l-0.07055,-0.08466c-0.11995,0.1368 -0.2451,0.26946 -0.37617,0.39739c-1.56104,1.52351 -4.21484,1.45825 -6.27719,1.44178c-0.76476,-0.52642 -1.6914,-0.83459 -2.69002,-0.83459h-3c-2.72101,0 -5.44202,0 -8.16303,0c-0.05687,-0.24075 -0.08696,-0.49185 -0.08696,-0.74998zM220.72863,250.80252c0.02345,0.01224 0.04779,0.0211 0.0729,0.02701c-0.0243,-0.00907 -0.0486,-0.01808 -0.0729,-0.02701z"></path><path d="M195.15188,291.26091c-0.1135,-0.28553 -0.20758,-0.57059 -0.28395,-0.85501c1.20035,-0.06271 2.12301,-0.52404 2.12301,-0.52404l1.74685,-0.88259c2.17651,-0.94263 6.91889,-2.78327 9.17403,-4.98854c-0.36159,1.78415 -0.72929,3.56996 -1.16834,5.34662c2.43739,2.15858 4.81227,4.98107 3.51478,8.20917c-1.8129,4.51041 -8.46737,4.93352 -11.57161,1.96064c-0.49326,-0.47239 -0.67036,-2.60118 -0.72799,-4.70484c-1.18718,-1.21684 -2.4254,-2.60198 -2.80678,-3.56138z"></path><path d="M249.64102,262.66878c-1.52857,-0.26497 -2.69102,-1.59779 -2.69102,-3.20211c0,-0.38598 0.06729,-0.75625 0.19077,-1.09971l0.717,-2.151c-0.05471,-0.24106 -0.10721,-0.47025 -0.15787,-0.68517c0,0 -0.73079,-3.16677 2.43598,-3.89756c0.52273,-0.12063 0.97908,-0.13506 1.37673,-0.07507c0.01882,-0.01865 0.03748,-0.0374 0.05596,-0.05625c4.87849,-4.97516 9.66127,-8.53096 15.97815,-11.33846l0.35519,-0.66154c0,0 0.21341,-0.21341 0.57519,-0.44512c-0.40172,-0.96351 -0.66029,-2.01004 -0.85047,-3.00256c-0.55851,-2.91481 0.76389,-5.88874 1.00043,-8.84713c0.51521,-6.44387 0.9194,-12.90008 0.98137,-19.36753c-0.12157,-7.44997 0.12979,-15.02685 0.68449,-22.28881c0,0 0.00214,-0.02787 0.00862,-0.07825c0.0439,-0.66912 0.26831,-1.50778 1.00532,-2.12854c0.43789,-0.42711 1.06257,-0.75606 1.95247,-0.79433c0.88375,-0.11125 1.55468,0.10848 2.0579,0.45625c0.83053,0.48861 1.19218,1.27787 1.34748,1.93019c0.01482,0.04858 0.0216,0.0757 0.0216,0.0757l0.43037,2.12157c0,5.83379 -0.66667,11.46588 -0.66667,17.33333c0,0 0,0.10438 -0.01871,0.27573c0.01037,1.35316 0.01871,2.70585 0.01871,4.0576c0,3.18004 -0.44313,7.41546 0.26145,10.65358c0.43398,1.99452 1.14007,3.93869 1.3828,5.9654c0.17785,1.48498 -0.21504,3.19278 0.60056,4.44641c2.01475,3.09681 6.25078,4.39362 5.34819,9.2893c-0.30688,1.66453 -3.90924,4.50324 -5.30146,5.69657c-4.4613,4.46447 -9.14079,9.91966 -14.59576,13.10386l-0.29037,0.14715c-0.34036,0.38207 -0.63952,0.73595 -0.92214,1.05694c-0.05172,0.16225 -0.10337,0.32527 -0.15503,0.48904c0.28158,0.46715 0.51072,0.96921 0.67766,1.47604c-0.22631,0.0725 -0.36387,0.14127 -0.36387,0.14127c-3.4823,1.74155 -7.03631,3.11577 -10.2871,5.07914l-1.14942,-0.28736l-0.00271,0.01084l-0.03244,-0.01938c-0.21554,-0.04683 -0.43242,-0.08868 -0.6497,-0.12904c-0.00302,-0.06495 -0.00572,-0.13 -0.00811,-0.19516c-0.0449,-0.187 -0.07423,-0.38474 -0.08068,-0.59078c-0.47571,-0.70122 -0.88501,-1.55008 -1.24085,-2.46508zM274.29101,234.93416c0.11736,-0.02098 0.2369,-0.03565 0.35826,-0.04367c-0.0948,-0.08621 -0.18929,-0.17263 -0.28279,-0.25977c-0.02373,0.10154 -0.04882,0.20271 -0.07546,0.30343z"></path><path d="M260.72806,288.88333c1.93509,0 3.87018,0 5.80527,0h2.33333c0,0 3.25,0 3.25,3.25c0,3.25 -3.25,3.25 -3.25,3.25c-2.05306,0 -6.09771,0 -8.45399,0c-0.48299,0.05481 -0.93724,-0.00972 -1.29032,-0.09704c-0.64226,-0.14443 -1.5475,-0.50384 -2.07582,-1.39817l-2.33283,-1.96655c-0.10611,-0.4281 -0.19097,-0.85777 -0.26074,-1.28816c2.39209,-0.60532 5.46419,-1.41785 5.81003,-1.72146c0.14284,-0.1254 0.28058,-0.25522 0.4137,-0.38901c0.01598,0.11993 0.03305,0.24005 0.05137,0.36039z"></path><path d="M300.07989,198.89311c0.9694,-0.4847 1.77716,-0.48448 2.42328,-0.26887c3.00608,-0.70892 3.83231,2.32062 3.83231,2.32062c0.86228,3.18716 1.24107,6.37499 2.28275,9.49911c0.69407,2.08159 2.0394,3.91499 2.67196,6.01609c0.6034,2.00427 0.48949,4.58006 0.49315,6.67327v2.66667c0,1.79493 -1.45507,3.25 -3.25,3.25c-1.0237,0 -1.93686,-0.4733 -2.53257,-1.21301l-2.98279,-3.64563l0.11299,-0.09245c-0.17144,-0.16449 -0.33897,-0.33335 -0.50203,-0.50717c-0.72985,-0.77802 -0.50074,-2.07687 -0.84219,-3.08752c-0.38457,-1.13825 -1.94845,-4.08825 -2.1037,-5.05076c-0.61159,-3.79189 -0.32868,-8.11573 -0.71691,-11.99674l-0.33968,-0.20328c0,0 -1.45344,-2.90689 1.45344,-4.36033z"></path><path d="M248.07843,82.64703c3.15296,-0.78824 3.9412,2.36472 3.9412,2.36472l0.59364,2.41735c0.03679,1.20958 4.00087,2.01559 5.09911,2.9596c0.70266,0.60398 0.94531,1.61706 1.59893,2.2738c0.98792,0.99266 1.99591,0.57216 3.22204,0.55415c4.27793,-0.06283 7.6662,0.08781 11.65366,-1.70802c1.17653,-0.52987 1.96194,-2.03924 3.25076,-2.10175c0.26432,-0.01282 0.52751,-0.01158 0.78975,0.00153l-0.01756,-0.17563l3.28983,-0.32898c0.12043,-0.01353 0.24285,-0.02048 0.36689,-0.02048c1.79493,0 3.25,1.45507 3.25,3.25c0,1.10589 -0.55235,2.08277 -1.39622,2.66981l-2.29809,1.64149l-0.03967,-0.05554l-0.09637,0.14762c-1.92722,1.05557 -4.12379,1.5487 -6.25779,2.07258c-1.82472,0.44795 -3.40228,1.70707 -5.24864,2.05523c-6.10706,1.15159 -13.92055,-0.18812 -19.52679,-2.54396c0,0 -2.98722,-1.28024 -1.70698,-4.26746c0.05382,-0.12559 0.11067,-0.24364 0.17018,-0.35456c-0.1014,-0.06733 -0.19837,-0.14168 -0.29016,-0.22423c-1.05456,-0.94847 -1.31515,-2.51339 -1.97273,-3.77009l-0.7397,-2.91598c0,0 -0.78824,-3.15296 2.36472,-3.9412z"></path><path d="M273.45672,64.31413c0.91962,-0.21312 2.78781,-0.3273 3.7305,1.8723c1.28024,2.98722 -1.70698,4.26746 -1.70698,4.26746c-0.77778,0.33333 -1.55556,0.66667 -2.33333,1l-3.31773,-5.79c0,0 1.41901,-2.12851 3.62755,-1.34976z"></path><path d="M235.13822,53.76592c-3.82309,-1.98749 -5.41087,-4.38024 -7.25877,-8.68568c0,0 -1.28024,-2.98722 1.70698,-4.26746c2.98722,-1.28024 4.26746,1.70698 4.26746,1.70698c1.44177,3.36947 1.86749,4.52633 5.29302,5.95968l-1.61357,6.23722c0,0 -1.4322,0 -2.39512,-0.95075z"></path><path d="M221.83893,91.05011c3.08322,-1.02774 4.11096,2.05548 4.11096,2.05548l-0.45179,-0.27036c1.28324,1.29245 2.32027,2.80922 3.52771,4.17271c1.38327,0.72012 2.6924,1.59434 3.8896,2.58112l0.09277,0.44318l0.16979,-0.12128l1.19711,1.67596c0.16032,-0.02432 0.32448,-0.03694 0.49159,-0.03694c0.89746,0 1.70996,0.36377 2.2981,0.9519l2,2l-0.43557,0.43557l1.14008,0.61881c0.00415,0.0639 0.10469,1.8524 0.2253,3.49964c0.72573,0.88858 1.51385,1.41924 2.51936,2.24736l1.20374,1.91621c1.54333,-0.34711 2.8558,0.80131 2.8558,0.80131c1.94171,1.70991 4.04245,3.18281 6.25622,4.34181c4.62233,0.84889 9.39277,1.05908 14.06836,0.86034c1.70027,-0.07227 3.25821,-1.2247 4.95995,-1.21c0.04303,0.00037 0.08604,0.00099 0.12903,0.00186l-0.00861,-0.03443l2.59596,-0.64899c0.27361,-0.07479 0.56162,-0.11471 0.85895,-0.11471c1.79493,0 3.25,1.45507 3.25,3.25c0,1.05479 -0.50248,1.99221 -1.28113,2.58596l-2.97356,2.31277l-0.12497,-0.16067l-0.28403,0.43184c-4.6504,1.79194 -10.54709,3.17487 -15.59432,2.0093c-3.16071,-0.72992 -6.44336,-2.17594 -9.47942,-3.96198c-0.04045,-0.00838 -0.08093,-0.01664 -0.12144,-0.02476c-1.87396,-0.37576 -3.81794,-0.72832 -5.62049,-1.38027c-0.01052,0.03436 -0.02217,0.06831 -0.03499,0.10184c0.75841,1.5917 1.44921,3.39705 1.88411,4.15303l0.59329,0.71194c4.47737,2.63736 8.88116,5.40827 14.03349,6.68982c2.01935,0.50228 5.51554,-1.80937 7.2131,-2.48637c1.93751,-0.77269 3.71859,-1.90698 5.66197,-2.66478c2.66696,-1.03996 5.66084,-1.1065 8.42347,-1.80396l0.7828,-0.63389c0,0 1.30845,-0.78507 2.67017,-0.38278c0.795,-0.56013 1.57906,-1.1317 2.33997,-1.72909c0,0 2.56539,-1.99531 4.5607,0.57009c1.99531,2.56539 -0.57009,4.5607 -0.57009,4.5607c-3.90543,3.01357 -8.62878,5.30739 -11.83789,9.18901c-2.88531,3.48998 -4.9653,10.28434 -9.24703,12.2482c-2.63657,1.20929 -6.17791,-0.40876 -8.90238,0.17659c-1.09003,0.23419 -4.93922,2.71517 -5.39347,2.97473c-2.58779,1.47869 -4.80546,2.76815 -7.12378,4.60047c-1.02423,1.79855 -2.48872,3.34567 -4.04235,4.71318l-0.47636,0.85461c-0.46461,1.11114 -1.20865,1.61128 -1.93396,1.81153c-0.6477,0.25151 -1.46087,0.30742 -2.39743,-0.16896c-2.24002,-0.81272 -4.43287,-1.7533 -6.6782,-2.55149c-1.13604,-0.40385 -2.46935,-0.37033 -3.4582,-1.06016c-1.36498,-0.95222 -1.79546,-2.81657 -2.88276,-4.07661c-0.25158,-0.29155 -0.82228,0.26243 -0.97828,0.61451c-0.46992,1.06059 -0.35007,2.37247 -1,3.33333c-0.61411,0.9079 -1.84654,1.21411 -2.60871,2.00183c-1.54638,1.59822 -1.57676,4.46148 -2.60322,6.14912c-0.55249,0.90837 -1.2836,1.67924 -2.06032,2.41558c-0.32525,0.84659 -0.64518,1.70252 -0.95533,2.57296c-1.07885,3.02778 -0.6222,5.90767 -2.23193,8.8642c-1.10058,2.0214 -2.9244,3.59613 -3.98493,5.63883c-1.35776,2.6152 -2.24818,5.48338 -3.84435,7.96028c-1.25835,1.95268 -3.00559,3.56238 -4.24399,5.52777c-2.48682,3.94671 -4.27948,8.32085 -6.78633,12.2835l-0.88385,2.65155c-0.40843,1.32803 -1.64494,2.29336 -3.10692,2.29336c-1.79493,0 -3.25,-1.45507 -3.25,-3.25v-3h0.13664c-0.03695,-0.17208 -0.06872,-0.34555 -0.09467,-0.52059c-0.0992,-0.66902 2.29267,-6.45708 2.53252,-7.04128c2.53657,-6.17841 7.08963,-10.85202 9.65681,-16.97557c0.38756,-0.92445 0.26824,-2.00787 0.64258,-2.93776c2.14884,-5.33795 5.30322,-10.32414 7.35927,-15.73352c1.00834,-2.65291 1.5989,-5.45883 2.698,-8.07544c1.58891,-3.78268 3.94107,-7.06398 5.5685,-10.78064c1.64592,-1.91906 4.65445,-4.63744 5.81581,-6.99861c3.33224,-6.77476 3.63138,-14.19368 9.06601,-19.25534c-0.20667,-0.20474 -0.41177,-0.39855 -0.61566,-0.57812c-1.10349,-0.9719 -2.51733,-1.62475 -3.42194,-2.78404c-0.82106,-1.05221 -1.37946,-2.35118 -1.61083,-3.66562c-0.50933,-2.89363 0.02305,-10.63749 4.04561,-12.50187l-2.66631,-2.37005c-0.69328,-0.34235 -1.31563,-0.82747 -1.89384,-1.39216l-1.30183,0.19394c-2.70068,-0.16046 -3.12545,0.77398 -5.23545,2.56554c-2.64626,2.24688 -4.79965,3.59495 -6.53169,6.65252c-1.88016,4.0242 -3.89872,5.19715 -7.26013,7.78139c-2.23505,1.7183 -4.15736,4.02965 -6.60784,5.52156c-5.85827,3.56662 -12.82512,4.91614 -18.64747,8.65481c-2.0605,1.3231 -4.9494,3.68213 -6.48909,5.57426c-0.43325,0.53243 -0.56982,1.24927 -0.8739,1.86468c-0.17833,0.3609 -0.70607,0.85403 -0.94505,1.2335l1.15049,-0.25567c0.24789,-0.06052 0.50692,-0.0926 0.77345,-0.0926c1.79493,0 3.25,1.45507 3.25,3.25c0,1.54668 -1.08042,2.84101 -2.52771,3.16945l-2.60071,0.65018l-0.01727,-0.06908l-0.39928,0.08873l-0.01386,-0.06239l-0.16193,0.13387c-0.39786,-0.10711 -0.82139,-0.17109 -1.25324,-0.22107c-0.10087,0.08287 -0.2317,0.09941 -0.40357,0.02511c-0.06449,-0.02788 -0.12843,-0.05711 -0.1918,-0.08764c-1.30001,-0.12914 -2.60359,-0.25229 -3.45042,-1.14296c-3.26358,-3.43255 0.24058,-9.67898 2.3022,-12.26593c0,0 0.29784,-0.34748 0.80039,-0.66989c1.41266,-1.58317 3.15623,-2.86755 4.87289,-4.33847c3.28762,-2.81699 7.89074,-5.3317 11.81283,-7.18208c3.00303,-1.41678 6.73517,-1.99851 9.61658,-3.79885c2.23682,-1.39759 3.99829,-3.55927 6.05882,-5.14511c2.77861,-2.13849 3.99309,-2.13309 5.40653,-5.55194c2.92114,-5.08043 8.35102,-10.53981 14.26668,-12.24669l-0.7837,-1.59083c0,0 -1.02774,-3.08322 2.05548,-4.11096z"></path></g><path d="M210.93545,159.40469l0.0531,-0.26278c0,0 1.36141,0 2.32197,0.88114c0.12857,-0.06115 0.26526,-0.11383 0.41035,-0.15558c1.04799,-1.90848 2.05511,-3.84792 2.98925,-5.84993c0,0 1.37438,-2.9451 4.31947,-1.57072c2.9451,1.37438 1.57072,4.31947 1.57072,4.31947c-2.16169,4.63155 -4.69954,8.93966 -7.23978,13.2927c-1.09395,2.54127 -2.25519,5.02829 -3.44419,7.53538c0.04859,2.52298 -1.04891,4.48447 -2.73209,5.83309c-1.3986,3.23574 -2.57831,6.62887 -4.40346,9.62755c-0.67138,1.10307 -1.65903,2.00783 -2.23817,3.16201c-1.15775,2.3073 -1.49247,4.96817 -2.64001,7.28057c-1.03832,2.0923 -2.18732,4.14352 -3.30351,6.21216c-0.22776,0.55862 -0.46015,1.11471 -0.69811,1.66774c-0.90358,2.09995 -1.20056,4.60235 -2.75096,6.28238c-0.07832,0.08487 -0.15883,0.16694 -0.24138,0.24642l0.05787,0.04133l-1.64149,2.29809c-0.58704,0.84387 -1.56392,1.39622 -2.66981,1.39622c-1.79493,0 -3.25,-1.45507 -3.25,-3.25c0,-0.60731 0.16657,-1.17571 0.45653,-1.66201l1.20806,-2.11411c0.17763,-0.4712 0.36447,-0.93869 0.55919,-1.40297c0.15134,-0.54774 0.40876,-1.07739 0.70593,-1.60036c0.77469,-1.67822 1.6347,-3.3209 2.51435,-4.95249c0.49443,-1.15772 0.98501,-2.31705 1.45843,-3.48347c2.44375,-6.02103 4.0923,-12.28504 6.94138,-18.07854c-1.68389,-0.52295 -3.19635,-1.46873 -4.26993,-2.86184c-0.51778,-0.67189 -0.7647,-2.48263 -0.86924,-4.3035c-0.13474,-0.26818 -0.26843,-0.54831 -0.40344,-0.84087c-2.09567,-4.54108 -1.63458,-8.8669 -1.63458,-13.69985c0,-4.77365 -0.18033,-9.47267 0.4522,-14.20425l0.33283,-0.37278l-0.17158,-0.07626l1.3032,-2.9322c0.35558,-0.85095 1.06266,-1.51843 1.93978,-1.82098c0.3483,-0.70309 0.68106,-1.41106 0.86149,-2.1684l0.30197,-2.78403c0,0 0.3589,-3.23012 3.58902,-2.87122c3.23012,0.3589 2.87122,3.58902 2.87122,3.58902l-0.26086,2.30025c1.08392,0.83974 1.25758,2.28696 1.25758,2.28696c0.56428,4.70576 1.58145,8.8761 2.55651,13.28298c1.15022,0.66766 2.33472,1.14276 3.83021,1.78369z" fill-opacity="0.09804" fill="#e3a3e3" stroke-width="0.5"></path><path d="M218.25736,250.15693c-0.09248,0.16953 -0.20357,0.34244 -0.33548,0.51832c-1.95,2.6 -4.55,0.65 -4.55,0.65l-2.29022,-5.05344c1.40205,-2.80125 2.63398,-5.92939 5.27546,-7.84465c0.33824,-0.24525 0.6794,-0.5553 1.02471,-0.8826c-0.29366,-0.92145 -0.49285,-1.87506 -0.6315,-2.7625c-0.49958,-3.19761 4.46991,-5.88792 5.64485,-8.46994c0.27634,-0.60727 0.53866,-1.21768 0.78644,-1.83134c0.1389,-2.8216 0.2265,-5.65125 0.2236,-8.4222c0,0 0,-2.77409 2.56294,-3.19638c0.07053,-0.92656 0.10561,-1.86099 0.10373,-2.80362v-2.66667c0,0 0,-3.25 3.25,-3.25c3.25,0 3.25,3.25 3.25,3.25v2.66667c-0.01018,5.82623 -1.12918,11.58599 -3.36843,16.95504c-0.06314,3.09444 0.48229,6.226 -0.97468,9.16507c-0.3625,0.73125 -1.5569,2.21604 -2.95525,3.5058c0.02035,0.65119 -0.13798,1.31231 -0.41411,1.95884c1.45406,0.54252 2.90878,1.08305 4.16069,1.97756c2.7168,1.9412 5.99251,4.92025 2.90923,9.04438c-1.25812,1.68284 -3.77397,2.10588 -5.86527,2.3091c-1.60176,0.15565 -3.29141,-0.42945 -4.6532,-1.287c-0.94559,-0.59546 -0.9677,-2.10402 -1.84028,-2.8021c-0.42005,-0.33604 -0.86396,-0.56253 -1.31323,-0.72834z" fill-opacity="0.09804" fill="#e3a3e3" stroke-width="0.5"></path><path d="M258.48166,256.47165c-0.02326,0.00959 -0.04656,0.01908 -0.06988,0.02848l-0.03225,0.02764l0.02295,0.02754l-1.98361,1.65301c-0.566,0.47848 -1.29781,0.76694 -2.09699,0.76694c-1.79493,0 -3.25,-1.45507 -3.25,-3.25c0,-0.07748 0.00271,-0.15432 0.00804,-0.23044c-0.39514,-0.47606 -0.67471,-1.1497 -0.67471,-2.1029c0,-3.25 3.25,-3.25 3.25,-3.25h1.66667c0.0141,0.00004 0.02816,0.00008 0.0422,0.00013c0.09064,-0.0569 0.18168,-0.11365 0.27136,-0.17088c1.11646,-1.19874 2.30755,-2.3117 3.54668,-3.3703c1.79258,-1.79264 3.58597,-3.58448 5.3808,-5.37487l1.57969,-1.89562c0.59605,-0.72562 1.50028,-1.18847 2.51261,-1.18847c0.47016,0 0.917,0.09983 1.32048,0.27946c0.65926,-0.5053 1.31203,-1.01888 1.95483,-1.54482c0,0 2.51536,-2.05802 4.57338,0.45734c2.05802,2.51536 -0.45734,4.57338 -0.45734,4.57338c-1.15578,0.94562 -2.34346,1.84988 -3.54244,2.73768c0.02196,0.11323 0.04109,0.22729 0.05718,0.34224c0.44613,3.18809 -2.9374,5.6561 -4.85957,7.26278c-3.126,2.61292 -5.76875,3.81346 -9.22008,4.22167z" fill-opacity="0.09804" fill="#e3a3e3" stroke-width="0.5"></path><path d="M206.51358,293.67681c0.7277,0.44116 1.39163,1.24616 1.39163,2.71511c0,3.25 -3.25,3.25 -3.25,3.25l-3.15512,-1.63755c-0.88889,-1.55556 -1.77778,-3.11111 -2.66667,-4.66667c0,0 -1.61245,-2.82179 1.20934,-4.43424c2.82179,-1.61245 4.43424,1.20934 4.43424,1.20934c0.67886,1.188 1.35772,2.37601 2.03658,3.56401z" fill-opacity="0.09804" fill="#e3a3e3" stroke-width="0.5"></path><path d="M237.06914,54.22197c-2.49672,2.0806 -4.57732,-0.41612 -4.57732,-0.41612l-1.65216,-1.98271c-0.66179,-0.77205 -1.32358,-1.5441 -1.98537,-2.31615c0,0 -2.11507,-2.46758 0.35251,-4.58266c2.46758,-2.11507 4.58266,0.35251 4.58266,0.35251c0.67154,0.78351 1.34308,1.56701 2.01463,2.35052l1.68117,2.01729c0,0 2.0806,2.49672 -0.41612,4.57732z" fill-opacity="0.09804" fill="#e3a3e3" stroke-width="0.5"></path><path d="M245.69271,129.52802c-0.85089,1.27634 -1.90259,1.54864 -2.77597,1.48037c-0.53939,0.39816 -1.20631,0.63352 -1.92819,0.63352c-0.54586,0 -1.06029,-0.13457 -1.51192,-0.37235l-2.55849,-1.27925c-1.00788,-0.44713 -6.37687,-2.78767 -6.78999,-3.20049c-3.47279,-3.47021 -3.22277,-8.29395 -2.20619,-12.65224c-0.11879,-0.33762 -0.18341,-0.70077 -0.18341,-1.07901c0,-1.33233 0.80171,-2.47741 1.94902,-2.97914c0.63169,-0.52362 1.56609,-0.86775 2.90152,-0.46712c2.36646,0.70994 2.39424,2.67917 2.27148,3.58278l0.82713,1.37855c0.28978,0.31308 0.5669,0.6313 0.83461,0.95367c2.92309,2.57505 5.38224,5.49286 7.37312,9.41116l0.89589,0.08261c0,0 2.70416,1.80278 0.90139,4.50694z" fill-opacity="0.09804" fill="#e3a3e3" stroke-width="0.5"></path><g stroke-width="0.5"><path d="M281.93541,77.36668c0.67082,0.33541 0.33541,1.00623 0.33541,1.00623l-0.04582,-0.08541c-0.02682,1.56745 -0.93082,2.8589 -2.19349,3.66229c-0.08191,0.15532 -0.16051,0.31756 -0.23406,0.48852c-0.2018,0.46908 -0.09407,1.40348 -0.32605,2.04538c-0.07,0.61974 -0.27037,1.27929 -0.64252,1.39303c-0.37241,0.11383 -1.93309,-1.2484 -2.23847,-1.53893c-0.65382,-0.62203 -1.00734,-1.22505 -1.3024,-1.77782c-0.18103,-0.0653 -0.35872,-0.14216 -0.53203,-0.23103c-0.87561,-0.44898 -1.52697,-1.46401 -2.26908,-2.09701c0,0 -0.54385,-0.46616 -0.113,-1.01884c0.039,-0.16992 0.11793,-0.28766 0.21164,-0.36908c0.11098,-0.10459 0.27426,-0.18152 0.51447,-0.18152c0.07425,0 0.14117,0.00735 0.20144,0.0206c1.70942,0.27696 6.33902,2.79484 6.58267,0.00577l0.08322,-0.09271l-0.03816,-0.01908l0.33704,-0.67408c-0.00666,-0.07882 -0.01691,-0.15949 -0.03101,-0.24221c0,0 -0.1233,-0.7398 0.61649,-0.8631c0.53742,-0.08957 0.74951,0.27632 0.82532,0.48322c0.07975,0.01238 0.16588,0.0395 0.25839,0.08576zM278.15011,81.48652c0.01896,-0.01062 0.03751,-0.02175 0.05567,-0.03337c-0.05939,-0.00638 -0.11918,-0.01369 -0.17931,-0.02187c0.03336,0.02244 0.06634,0.04536 0.09893,0.0688c0.00824,-0.00444 0.01648,-0.00895 0.0247,-0.01355z" fill-opacity="0.18824" fill="#ad4eac"></path><path d="M279.51896,81.00864c-0.72114,-0.20604 -0.5151,-0.92718 -0.5151,-0.92718l0.22297,-0.74126c-0.00121,-0.01741 -0.00182,-0.03499 -0.00182,-0.0527c0,-0.17942 0.063,-0.34412 0.16808,-0.47319l0.40274,-0.50343c0.02146,-0.1739 0.04292,-0.34779 0.06438,-0.52169c0,0 0.1233,-0.7398 0.86309,-0.6165c0.13259,0.02209 0.23744,0.064 0.32027,0.11789c0.38208,0.03463 0.68144,0.35581 0.68144,0.74691c0,0.12597 -0.03106,0.24468 -0.08593,0.34891l-0.36825,0.73651l-0.07209,-0.03605l-0.01548,0.17214c-0.05464,0.01756 -0.10926,0.03512 -0.1639,0.05268l0.04917,0.06146l-0.36539,0.29232c-0.01788,0.03262 -0.03841,0.06315 -0.06168,0.09105l-0.19531,0.73703c0,0 -0.20604,0.72114 -0.92719,0.5151z" fill-opacity="0.35294" fill="#ad4eac"></path><path d="M273.26459,78.74168c0.67082,-0.33541 1.00623,0.33541 1.00623,0.33541l-0.1298,-0.03863c0.11657,0.07912 0.23314,0.15945 0.34914,0.24128c0.22616,0.01725 0.40086,0.13372 0.40086,0.13372c0.23051,0.15423 0.46102,0.30848 0.69153,0.46272l0.05847,-0.08772l0.74032,0.49355c0.20677,0.13354 0.34366,0.36603 0.34366,0.63049c0,0.41421 -0.33578,0.75 -0.75,0.75c-0.12597,0 -0.24468,-0.03106 -0.34891,-0.08593l-0.73651,-0.36825l0.00961,-0.0192l-0.05064,-0.00294c-0.08986,-0.05971 -0.17972,-0.11942 -0.26958,-0.17912c-0.37194,-0.01524 -0.74198,-0.37354 -1.27,-0.72052l-0.3798,-0.53862c0,0 -0.33541,-0.67082 0.33541,-1.00623z" fill-opacity="0.35294" fill="#ad4eac"></path></g><path d="M282.5267,83.9314c1.11803,-0.55902 1.67705,0.55902 1.67705,0.55902l0.15974,0.3211c0.05501,-0.13267 0.11865,-0.27085 0.18828,-0.40262l-0.11486,-0.51688l0.03012,-0.00669c-0.0183,-0.04226 -0.0358,-0.08494 -0.05242,-0.12807c-0.3601,-0.93444 0.46342,-1.97407 0.42125,-2.97461c-0.02327,-0.55205 -0.53045,-1.29949 -0.80861,-2.04171c-0.27969,-0.22419 -0.77283,-0.76909 -0.31995,-1.58427c0.31696,-0.57052 0.76631,-0.67767 1.12339,-0.64979c1.57757,-1.10232 2.3616,0.07177 2.97494,1.14573l0.01212,0.00322c0.10037,0.01834 0.20703,0.04976 0.32016,0.0969c0.36064,0.15027 0.56159,0.36628 0.66745,0.59227c0.11339,0.2223 0.16053,0.51355 0.05774,0.89047c-0.02675,0.09809 -0.0593,0.18602 -0.09654,0.2648c0.63753,1.7103 0.48853,3.46665 0.11631,5.36574l-1.60555,1.41159c0,0 -0.60351,0.34486 -1.16762,0.07021c-1.44851,1.78823 -1.71413,2.2477 -3.83096,-0.11989l-0.31105,-0.61947c0,0 -0.55902,-1.11803 0.55902,-1.67705z" fill="#e5c1e4" stroke-width="0.5"></path></g></g></svg>