<svg version="1.1" xmlns="http://www.w3.org/2000/svg" xmlns:xlink="http://www.w3.org/1999/xlink" width="358" height="301" viewBox="0,0,358,301"><g transform="translate(-59.5341,91.10001)"><g stroke="none" stroke-miterlimit="10"><g fill-opacity="0.41961" fill="#0a060f" stroke-width="0.5"><path d="M184.39743,176.33735c0.25956,0.58539 0.25956,1.13764 0.25956,1.13764v0.25c0,3.37392 1.28883,14.9456 -6.76494,11.40637c-1.66741,-0.73274 -1.29447,-3.44731 -1.48296,-5.25885c-0.34821,-3.34665 1.63539,-6.85572 3.4979,-9.39752c0,0 1.5,-2 3.5,-0.5c1.02434,0.76825 1.13057,1.66766 0.99044,2.36236z"></path><path d="M197.94825,174.47662c0.95919,0.37305 1.97193,1.18881 2.90026,2.54536c0.69951,1.02218 0.25145,2.46572 0.30849,3.70302c0.27653,5.99911 -1.44675,13.99367 -9.14204,13.99767c-5.75407,0.00299 -6.56248,-3.7674 -6.60796,-8.49767c-0.04652,-4.83794 0.80312,-8.29127 2.70214,-12.7348c0,0 0.96619,-2.25445 3.21759,-1.34022c0.16543,-0.22937 0.36376,-0.43193 0.59853,-0.60048c3.36516,-2.41597 5.09538,0.28494 6.023,2.92712z"></path><path d="M219.48712,196.86175l-2.73396,0.58301c-0.32292,0.10057 -0.67031,0.17639 -1.04765,0.22341l-0.03881,0.00828c0,0 -0.00368,-0.00074 -0.01072,-0.00229c-0.17624,0.02064 -0.35897,0.03504 -0.54874,0.04281c-8.78775,0.35945 -7.17291,-12.863 -5.30172,-18.09084c0.36182,-1.01087 0.8837,-1.95709 1.32555,-2.93563c0,0 1.03451,-2.27592 3.31042,-1.24141c0.04366,0.01985 0.08611,0.04015 0.12737,0.06089c0.21973,-0.14101 0.44872,-0.26607 0.69089,-0.36842c1.88196,-0.7954 9.34067,-0.92177 10.74329,0.6476c1.05094,1.17589 0.52609,3.11395 0.65394,4.68585c0.42325,5.2035 -1.73632,9.32674 -5.18107,12.96508c-0.0245,0.02587 -0.04887,0.05176 -0.07313,0.07767c-0.03573,0.20894 -0.09318,0.39916 -0.15411,0.56026c-0.09576,0.27326 -0.252,0.60322 -0.50324,0.89626c-0.41944,0.62916 -0.83888,1.25832 -1.25832,1.88748z"></path><path d="M246.36118,197.90464c-0.60773,1.14734 -2.04496,1.60032 -3.06744,2.40048l-1.63675,0.41987c0,0 -1.18486,0 -1.92318,-0.8157c-1.05523,0.95818 -2.27315,1.61173 -3.55253,1.7601c-9.30274,1.07883 -6.20832,-6.85635 -4.91483,-12.4592c-0.35838,-1.42389 -0.5078,-2.89227 -0.85771,-4.89147l0.12313,-0.33124l-0.11248,-0.01125l0.49477,-4.94768c0.0819,-0.93392 0.6773,-1.72055 1.50219,-2.07586c-0.25337,-2.36108 2.13708,-2.70257 2.13708,-2.70257c2.13476,-0.30128 6.37868,-1.10681 8.39412,-0.39683c1.3867,0.48849 2.70579,1.48308 3.4455,2.75367c0.60838,1.04502 0.21181,2.40994 0.26393,3.61803c0.15874,3.67969 0.33883,7.7029 -0.0031,11.37453c-0.04332,0.46521 -0.038,0.95592 -0.05318,1.44119c0.33071,1.777 0.44313,3.57514 -0.23953,4.86392zM238.53828,180.38844c0.03413,-0.01428 0.06821,-0.02823 0.10224,-0.04181c-0.00617,-0.08433 -0.01645,-0.16849 -0.03164,-0.25246c-0.02335,-0.12901 -0.0369,0.08158 -0.0706,0.29427z"></path><path d="M254.27171,191.06203c-0.25792,-0.96345 -0.43583,-1.80426 -0.54946,-2.26953c-0.64658,-2.64763 -2.16998,-6.58734 -1.20799,-9.29197c0.03299,-0.09275 0.06817,-0.18428 0.10549,-0.27458c-0.07594,-0.55537 0.05504,-1.21064 0.6558,-1.89722c0.53192,-0.60791 1.0884,-0.84753 1.59802,-0.89339c0.42798,-0.3162 0.89426,-0.59708 1.3895,-0.84231c0.45845,-0.53156 1.13689,-0.86804 1.89391,-0.86804h0.52428c3.65671,-0.88843 7.94258,-0.24444 10.28378,2.02347c0.90918,0.88071 1.04712,2.30491 1.57067,3.45736c1.49119,5.97109 4.23904,19.24559 -5.20677,20.01325c-1.52354,0.12382 -3.0583,-0.3756 -4.49948,-0.88501c-1.53055,-0.541 -3.10938,-1.16124 -4.32699,-2.23488c-1.91323,-1.68701 -2.46396,-3.83429 -2.23077,-6.03716zM259.65718,179.96622c-0.02425,-0.08043 -0.04965,-0.16084 -0.07626,-0.24122h-0.13133c0.0699,0.08007 0.1391,0.16048 0.20759,0.24122z"></path><path d="M290.09833,192.30019c-2.74708,3.30654 -9.3816,4.18464 -12.09601,0.19263c-0.70916,-1.04294 -0.27594,-2.50853 -0.34532,-3.76782c-0.13516,-2.45332 -0.00281,-4.96395 -0.00004,-7.42251c-0.23222,-0.37379 -0.48212,-0.73398 -0.74996,-1.07749c0,0 -1.30179,-1.73572 0.13708,-3.18594c1.06106,-4.07504 8.04772,-4.2989 10.99002,-3.48413c6.64093,1.83898 6.95594,9.90911 3.60266,15.01768c-0.2744,1.46747 -0.78081,2.81567 -1.53843,3.72758z"></path><path d="M299.77503,173.48893c1.45577,0.72788 1.48989,1.92965 1.33644,2.67975c0.03,0.03562 0.04553,0.05632 0.04553,0.05632c1.88605,2.67257 3.49548,6.37194 1.6776,9.72803c-0.43623,0.80535 -1.28271,1.27773 -2.05793,1.80795c-0.00078,0.0026 -0.00156,0.00521 -0.00234,0.00782l0.00438,-0.00324c0,0 -0.0068,0.0204 -0.02103,0.05678c-0.1576,0.49115 -0.48153,1.07514 -1.14735,1.40089c-0.40647,0.23704 -0.93402,0.36598 -1.60526,0.22852c-0.68026,-0.08185 -1.13997,-0.371 -1.45062,-0.72442c-0.52864,-0.51958 -0.65127,-1.17604 -0.64547,-1.69182c-0.00199,-0.03902 -0.00199,-0.06052 -0.00199,-0.06052c0,-3.58333 0,-7.16667 0,-10.75l0.51393,-1.61803c0,0 1.11803,-2.23607 3.3541,-1.11803z"></path></g><path d="M199.6378,165.16388c1.38681,0.92454 1.23265,2.15727 0.97583,2.87631c0.28036,0.5866 0.52027,1.22526 0.74635,1.80884c0.19484,0.27589 0.31907,0.61331 0.39873,0.98794c0.50625,1.32984 0.53857,3.00673 0.34449,4.6967c0.46459,4.65436 -1.51222,8.98656 -3.78782,12.83695c-0.25381,-0.01022 -0.51404,-0.00188 -0.77812,0.01756c-0.37578,0.2259 -0.81582,0.35581 -1.28621,0.35581c-0.26221,0 -0.51499,-0.04037 -0.75246,-0.11523c-1.0529,0.11023 -2.06406,0.09996 -2.87536,-0.48736c-0.61759,-0.44709 -0.89456,-1.1466 -1.03961,-1.9324c-0.59165,-0.70971 -0.96274,-1.66834 -1.53619,-2.40509c-0.6815,-0.87557 -1.69657,-1.54977 -2.09807,-2.58411c-0.75425,-1.94308 -0.96772,-6.00826 -0.27156,-9.34921c-0.31499,-1.3828 -0.22457,-2.78729 0.5757,-4.12986c1.49302,-2.50475 2.52896,-2.65702 3.28598,-2.02699l0.07482,-0.04988l0.17467,0.262c0.16254,-0.19153 0.32508,-0.38307 0.48762,-0.5746l0.72446,0.24957v-0.35684h2.5c0.36057,0 0.70332,0.07634 1.01296,0.21373c0.53381,-0.52496 1.65624,-1.27222 3.12379,-0.29385z" fill="#0a060f" stroke-width="0.5"></path><path d="M215.25105,191.99401c-2.5,0 -2.5,-2.5 -2.5,-2.5v-0.47284c-1.01953,-0.34045 -1.95245,-0.8945 -2.6055,-1.67925c-0.97183,-1.16782 -0.16215,-3.03679 -0.13583,-4.55585c0.07648,-4.41487 0.56544,-8.8998 1.00374,-13.29081c0,0 0.24876,-2.48759 2.73635,-2.23883c0.06922,0.00692 0.13632,0.01558 0.20136,0.02586c0.31554,-0.24963 0.69273,-0.42476 1.105,-0.49881l2.45459,-0.49092l0.16949,0.84744l1.48468,-0.60854c0.01737,0.03108 0.25509,0.44257 0.61064,1.06802c3.13705,-1.15752 8.41583,3.08708 8.71653,6.43316c0.12297,1.36836 -1.42921,5.25372 -3.07702,8.10303c0.36568,0.43473 0.58597,0.99581 0.58597,1.60835c0,1.38071 -1.11929,2.5 -2.5,2.5h-2.02818c-1.22646,0.73271 -2.00793,0.94032 -2.68067,0.65685c-0.16997,0.06704 -0.33606,0.14333 -0.49694,0.23208c-0.18246,0.10065 -0.3486,0.23517 -0.5049,0.38885c-0.02095,0.325 -0.04176,0.64998 -0.03931,0.97222v1c0,0 0,2.5 -2.5,2.5zM222.77144,173.12203c0.36778,0.7444 0.62766,1.33575 0.68063,1.61327c0.02989,-0.10398 0.04974,-0.19793 0.05793,-0.27992c0.06512,-0.65167 -0.23969,-1.06909 -0.73856,-1.33336z" fill="#0a060f" stroke-width="0.5"></path><path d="M244.93453,171.45965c0.18092,0.40708 0.25707,0.77386 0.26004,1.10178c0.5914,0.40036 0.90017,0.96644 0.90017,0.96644c2.2335,4.10497 4.57916,8.5829 3.19443,13.43325c-0.04648,0.1628 -0.48558,0.98227 -1.02825,1.96244c0.15397,0.32449 0.24012,0.68741 0.24012,1.07045c0,1.22888 -0.88665,2.25067 -2.05512,2.46053l-0.17814,0.03563c-0.45177,1.31308 -1.286,2.37908 -2.80484,2.65034c-2.20463,0.39373 -3.67513,0.08546 -4.65158,-0.64761c-2.70889,-0.05708 -5.33222,-0.68649 -6.4171,-2.02558c-0.15809,-0.19513 -0.26792,-0.68476 -0.34375,-1.32278c-1.03974,-0.30291 -1.79948,-1.26299 -1.79948,-2.40052v-2.75c-0.62967,-0.88154 0,-2.16667 0,-3.25c0,-4.45226 -0.92595,-8.89998 2.98223,-12.01777c1.31207,-1.04671 2.71959,-3.34765 4.26086,-2.68312c1.20172,0.51813 1.85689,1.67975 2.39242,2.96846l1.74811,-0.82113c0,0 2.28453,-1.01535 3.29988,1.26918z" fill="#0a060f" stroke-width="0.5"></path><path d="M180.25105,168.99401c0.20566,0 0.3944,0.01692 0.56761,0.04797c0.35712,-0.65461 1.21975,-1.70983 2.9176,-1.18742c2.38945,0.73521 1.65423,3.12466 1.65423,3.12466c-0.56799,1.83957 -1.08004,3.70104 -1.45633,5.58917l-0.05335,0.07465l0.03214,0.00877l-0.73571,2.69761c-0.27065,1.0882 -1.25425,1.8946 -2.4262,1.8946c-1.27327,0 -2.32422,-0.95187 -2.48007,-2.18283l-0.4948,-3.46361l0.42368,-0.06053c-0.27625,-0.99771 -0.44659,-2.01242 -0.44881,-3.04303v-1c0,0 0,-2.5 2.5,-2.5z" fill="#0a060f" stroke-width="0.5"></path><path d="M283.48599,166.26042c0.30963,-0.13739 0.65238,-0.21373 1.01296,-0.21373h2.5v0.35684l0.72446,-0.24957c0.16254,0.19153 0.32509,0.38307 0.48763,0.5746l0.17467,-0.26199l0.07482,0.04988c0.75702,-0.63003 1.79297,-0.47776 3.28599,2.02699c0.80027,1.34257 0.89069,2.74705 0.57569,4.12985c0.69616,3.34096 0.48269,7.40613 -0.27156,9.34922c-0.4015,1.03434 -1.41657,1.70854 -2.09807,2.58411c-0.57345,0.73675 -0.94455,1.69538 -1.53619,2.40509c-0.14504,0.7858 -0.42201,1.48531 -1.0396,1.9324c-0.8113,0.58732 -1.82247,0.5976 -2.87536,0.48737c-0.23747,0.07486 -0.49025,0.11522 -0.75246,0.11522c-0.47039,0 -0.91043,-0.12991 -1.28621,-0.35581c-0.26408,-0.01945 -0.52432,-0.02778 -0.77812,-0.01756c-2.2756,-3.85039 -4.2524,-8.18259 -3.78782,-12.83696c-0.19408,-1.68997 -0.16176,-3.36687 0.34449,-4.69671c0.07966,-0.37464 0.2039,-0.71204 0.39874,-0.98794c0.22608,-0.58358 0.46598,-1.22224 0.74635,-1.80884c-0.25682,-0.71904 -0.41098,-1.95177 0.97583,-2.87631c1.46755,-0.97837 2.58997,-0.23112 3.12379,0.29385z" fill="#0a060f" stroke-width="0.5"></path><path d="M262.24895,190.29669v-1c0.00244,-0.32224 -0.01837,-0.64722 -0.03931,-0.97222c-0.1563,-0.15368 -0.32244,-0.28819 -0.5049,-0.38885c-0.16088,-0.08874 -0.32696,-0.16505 -0.49694,-0.23209c-0.67274,0.28348 -1.45421,0.07587 -2.68068,-0.65685h-2.02818c-1.38071,0 -2.5,-1.11929 -2.5,-2.5c0,-0.61254 0.22029,-1.17362 0.58597,-1.60835c-1.64781,-2.8493 -3.2,-6.73467 -3.07702,-8.10303c0.3007,-3.34608 5.57949,-7.59068 8.71653,-6.43316c0.35556,-0.62545 0.59328,-1.03693 0.61064,-1.06801l1.48467,0.60853l0.16949,-0.84743l2.45459,0.49092c0.41227,0.07405 0.78947,0.24917 1.10501,0.49881c0.06504,-0.01029 0.13214,-0.01895 0.20136,-0.02587c2.4876,-0.24876 2.73635,2.23883 2.73635,2.23883c0.43831,4.39101 0.92727,8.87594 1.00374,13.29081c0.02632,1.51907 0.836,3.38803 -0.13583,4.55585c-0.65305,0.78475 -1.58598,1.33881 -2.6055,1.67926v0.47284c0,0 0,2.5 -2.5,2.5c-2.5,0 -2.5,-2.5 -2.5,-2.5zM256.48999,175.25807c0.0082,0.08199 0.02805,0.17594 0.05793,0.27992c0.05297,-0.27753 0.31286,-0.86888 0.68063,-1.61328c-0.49887,0.26426 -0.80368,0.68169 -0.73856,1.33336z" fill="#0a060f" stroke-width="0.5"></path><path d="M302.24895,172.29669v1c-0.00222,1.03061 -0.17256,2.04531 -0.44881,3.04303l0.42368,0.06053l-0.4948,3.46362c-0.15585,1.23096 -1.2068,2.18283 -2.48007,2.18283c-1.17194,0 -2.15555,-0.8064 -2.4262,-1.8946l-0.73571,-2.69761l0.03214,-0.00877l-0.05335,-0.07464c-0.37629,-1.88813 -0.88834,-3.74959 -1.45632,-5.58917c0,0 -0.73522,-2.38945 1.65423,-3.12466c1.69786,-0.52241 2.56048,0.53281 2.9176,1.18742c0.17322,-0.03106 0.36195,-0.04797 0.56761,-0.04797c2.5,0 2.5,2.5 2.5,2.5z" fill="#0a060f" stroke-width="0.5"></path><path d="M59.53411,209.9v-301h358v301z" fill="none" stroke-width="0"></path></g></g></svg>