<svg version="1.1" xmlns="http://www.w3.org/2000/svg" xmlns:xlink="http://www.w3.org/1999/xlink" width="548" height="359" viewBox="0,0,548,359"><g transform="translate(34,-1)"><g stroke="none" stroke-miterlimit="10"><g fill="none" stroke-width="0"><path d="M-34,360v-359h34v359z"></path><path d="M480,360v-359h34v359z"></path></g><g stroke-width="0.5"><g><path d="M240.15,233.975v0.75c-0.01694,1.1165 -0.30961,2.17221 -0.7493,3.18596c-0.00102,0.10437 -0.00125,0.20905 -0.0007,0.31404v0.832c0.01686,0.14862 -0.00298,0.28839 -0.02985,0.39703c-0.02492,0.11085 -0.07067,0.24715 -0.15459,0.37416c-1.08276,2.11767 -2.59387,4.14051 -3.65485,6.26818c-0.86897,2.91359 -2.2638,5.5602 -5.09447,6.57731c-0.72872,0.26184 -1.76886,0.28036 -2.81978,0.23067c-0.94115,2.88379 -1.77001,5.82919 -2.80057,8.64518c-0.06492,0.17739 -0.13196,0.35442 -0.20085,0.53116c-0.07674,0.95679 -0.14244,1.93662 -0.25027,2.99657c-0.13246,1.30203 -0.86095,2.47187 -1.29377,3.70698c-0.82998,2.36848 -1.14878,5.10475 -1.7607,7.55272c-0.69451,2.77835 -1.26512,5.40508 -2.2958,7.87226c0.62876,0.55701 1.13662,1.4079 1.47728,2.02585c1.89531,3.43813 4.83896,8.53907 2.17824,12.33992l-0.07939,0.17721c-0.06938,0.30352 -0.25164,0.47959 -0.43976,0.58172c-0.16816,0.11747 -0.39464,0.19977 -0.67946,0.14158c-3.95872,0.02679 -8.3198,1.10573 -12.03169,0.51659c-0.13232,0.00408 -0.26531,0.00859 -0.3988,0.01312c-0.71018,0.0577 -1.42821,0.05735 -2.15254,0.01874c-0.19565,-0.0084 -0.39044,-0.02098 -0.58383,-0.03892c-0.76304,-0.06052 -1.53254,-0.1573 -2.30671,-0.26754c-1.10598,-0.15749 -2.32321,0.80256 -3.40355,0.10814c-1.0454,-0.67196 -1.85966,-4.04314 -1.41789,-5.18166c0.00437,-0.01126 0.00884,-0.02249 0.01342,-0.03371c0.00022,-0.00808 0.00045,-0.01617 0.00069,-0.02427c-0.42031,-0.39641 -0.79275,-0.80618 -0.99437,-1.22832c-0.19789,-0.41436 -0.27341,-1.35102 -0.23614,-2.38142c-0.20844,-0.18327 -0.33998,-0.4519 -0.33998,-0.75126v-1.5h0.02323c0.01329,-0.15368 0.03206,-0.30462 0.05577,-0.45312c-0.54188,-1.25816 0.18034,-3.15624 0.74712,-4.42957c2.15303,-4.83699 2.56063,-10.27904 5.31639,-14.88181l1.09825,-0.48146c0.14785,-1.5088 0.41216,-2.97674 1.06337,-4.32858c0.6784,-3.53416 1.84074,-6.87024 3.05605,-10.17463c-0.60694,0.09623 -1.302,0.35481 -1.61354,-0.09323c-0.41492,-0.59671 0.44773,-2.83694 0.94212,-3.49232c0.91035,-1.20679 1.37547,-2.60543 1.60473,-4.10518c-0.00045,-0.02148 -0.00087,-0.04293 -0.00125,-0.06439c-0.0366,-0.01388 -0.07277,-0.02951 -0.10846,-0.04704c-3.16684,-1.55538 -1.37651,-2.51398 0.31554,-2.95752c0.00047,-0.08029 0.00069,-0.16068 0.00069,-0.24116c0,0 0,-0.95127 0.92781,-0.9982c0.71464,-0.83507 1.79727,-1.72491 2.89041,-2.48321c0.08561,-0.08602 0.19708,-0.17227 0.3344,-0.2277c0.21319,-0.14248 0.42539,-0.27921 0.63393,-0.40883l-0.13655,-0.18206l0.99192,-0.74394c0.1685,-0.12924 0.37931,-0.20606 0.60808,-0.20606c0.04964,0 0.09845,0.00362 0.14616,0.0106c0.55546,-0.6894 1.03664,-1.45989 1.43746,-2.27653c0.01114,-2.20492 -0.04002,-4.03265 0.9743,-5.84363c-0.0433,-0.1167 -0.05832,-0.23457 -0.05873,-0.34094l-0.10668,-0.064l0.14231,-0.2372c0.01492,-0.06228 0.02885,-0.09943 0.02885,-0.09943c1.05803,-2.80726 2.58063,-5.35122 3.20166,-8.32333c0.23634,-1.13107 -0.23432,-2.41356 0.01142,-3.5553c0.84105,-3.90761 2.06145,-7.92032 3.561,-11.67991c0.90492,-1.76486 0.61234,-4.42387 1.51781,-6.03755c0.39436,-0.70281 1.38771,-0.91664 1.80958,-1.60328c0.42937,-0.69882 0.25261,-1.71877 0.8048,-2.32524c1.11671,-1.22649 1.43641,-0.71073 2.65786,-0.86678c4.36884,-0.55815 8.17383,2.03629 11.64792,4.64186l0.78349,0.38791c0.28398,0.07454 0.45121,0.2505 0.5497,0.4319c0.11778,0.16861 0.20021,0.39585 0.14111,0.68174c0.00172,3.7288 0.0608,7.69017 -0.77944,11.33201c-0.97853,4.24125 -2.18614,9.05436 -2.24102,13.46815c-1.09647,2.62609 -2.10664,5.19689 -2.69553,7.901c0.21595,0.28799 0.21595,0.64793 0.21595,0.64793z" fill="#e5c1e4"></path><path d="M255.95293,291.1178c-0.06443,-0.14585 -0.12886,-0.2917 -0.19329,-0.43755c-0.31137,-0.54394 -1.37552,-3.13512 -0.55193,-4.12255c-0.32731,-0.94617 -0.55914,-1.91402 -0.55021,-2.96053c-0.4271,-1.70841 -0.51041,-3.65094 -0.6959,-5.55426c-0.19546,-0.5523 -0.42058,-1.084 -0.68594,-1.58722c0.04513,-0.24388 0.09631,-0.4851 0.15421,-0.72323c0,0 0.03628,-0.14509 0.13688,-0.30902c-0.15854,-0.67197 -0.36847,-1.34837 -0.59196,-2.02524c-0.06665,-0.15785 -0.13783,-0.31314 -0.21394,-0.46563c-1.64905,-3.30406 -3.11083,-5.29433 -3.11083,-9.20758v-0.75c0,-0.86113 -0.11703,-2.05411 -0.11649,-3.2257c-1.21627,-0.5383 -0.37333,-2.89518 0.25691,-4.02702c-2.59831,0.00778 -2.44229,-2.74897 -0.63312,-4.11748c0.63083,-0.47718 1.53903,-0.26455 2.346,-0.3337c0.00669,-0.01512 0.0138,-0.03029 0.02138,-0.04547l0.54047,-1.30113c1.24866,-1.28974 2.45242,-2.47007 3.5854,-3.66586c-0.00037,-0.01117 -0.00055,-0.02238 -0.00055,-0.03364c0,-0.27614 0.11193,-0.52615 0.29289,-0.70711l1,-1c0.52753,-0.52643 0.9962,-1.01776 1.44042,-1.50724c0.48095,-0.88602 1.10672,-1.77829 1.74349,-2.55905c0.21653,-0.37815 0.42626,-0.76878 0.62878,-1.17382c0,0 0.33368,-0.66736 1.00104,-0.56094c0.02263,-0.02013 0.04508,-0.03988 0.06734,-0.05926c0.69406,-0.60446 2.12919,-0.9337 2.86894,-1.6397c0.02887,-0.02756 0.05666,-0.0564 0.08342,-0.08646c0.15323,-0.37775 0.32311,-0.75366 0.52089,-1.12933c0.00041,-2.17745 -0.25556,-4.39495 0.1157,-6.48729c0.409,-2.30502 0.86471,-4.82042 1.47954,-7.23219c0.00499,-0.2839 0.00754,-0.56968 0.00754,-0.85763c0.02404,-2.16007 0.2864,-4.89089 0.89863,-7.05839c-0.77767,-0.25015 -0.63502,-1.10601 -0.63502,-1.10601c0.35946,-2.12565 0.87046,-4.23859 1.21373,-6.36025c0.29247,-1.80767 -0.58506,-4.00868 0.73606,-5.59282c1.16054,-1.39158 2.53042,-1.33819 3.73345,-2.21561c2.58677,-1.88663 4.4181,-2.78446 7.93583,-2.5908c0.76163,0.70499 1.89724,1.03133 2.46796,1.89814c0.54638,0.82983 0.41278,2.83962 0.6226,3.79598c0.77654,3.53952 2.03926,5.79052 1.99388,8.82366c0.53287,0.24881 0.53287,0.90609 0.53287,0.90609c-0.00495,2.10595 -0.58911,4.11144 -1.25,6.08552v1.41448h-0.0026c-0.02338,2.30038 -0.20925,4.45594 -0.77176,6.71939c-0.97983,4.79981 -0.5876,9.00746 -2.55176,13.66329c-0.64038,1.51796 -3.30478,6.24786 -4.85556,6.94807c-1.28365,1.23156 -2.83466,2.62559 -3.78827,3.79498c-0.22505,0.27598 -0.02255,0.78242 -0.27668,1.03188c-1.10068,1.08046 -3.11899,1.75765 -4.33445,2.83573c-1.423,1.26218 -2.60691,2.85515 -3.96181,4.21376l-0.96056,0.96056c0.00313,0.03397 0.00622,0.06795 0.0093,0.10193c0.12813,0.86554 0.23604,1.73636 0.32639,2.60932c0.14163,0.70313 0.2834,1.41185 0.4157,2.13153c0.1592,5.03379 2.2691,9.35186 3.99543,13.93526c0.98633,-0.14387 1.92297,0.12991 2.82196,0.63575c1.05391,0.2729 2.04086,0.63517 2.71784,1.07253c0.93391,0.60334 1.60842,1.87932 2.18322,3.14155c0.3755,0.33259 0.74784,0.63676 1.11832,0.89322c1.23969,0.85816 2.86263,1.40731 3.58917,2.92856c0.40058,0.83873 0.07612,2.68988 0.07612,3.63269v0.5c0,0 0,0.44723 -0.29908,0.74352c0.14376,1.19811 0.16114,2.40274 -0.03913,3.2577c-4.60041,0.01407 -9.20082,0.02562 -13.80111,-0.00122c-0.34319,-0.002 -0.69179,-0.06709 -1.0417,-0.17314c-1.75385,0.10859 -3.63892,0.25952 -5.22989,-0.06801c-0.52307,-0.00438 -1.05219,-0.00885 -1.58909,-0.00885c-1.1241,0 -3.04,0.33015 -3.78004,-0.87428c-0.38312,-0.62354 -0.71695,-1.56831 -0.30624,-2.17403c0.24479,-0.36102 0.67388,-0.48993 1.13921,-0.5589zM259.99138,292.46495c0.1818,0.10327 0.37988,0.18914 0.5913,0.26002c0.02245,0.00002 0.04488,0.00003 0.06733,0.00003c0.07007,0 0.14087,-0.00063 0.21232,-0.0018c-0.2865,-0.10108 -0.55699,-0.2144 -0.81256,-0.33916c-0.0188,0.02747 -0.03827,0.05445 -0.05839,0.08091zM271.36789,250.09645c-0.05221,0.04793 -0.10411,0.09598 -0.15567,0.14416c0.05485,-0.04755 0.10685,-0.09558 0.15567,-0.14416z" fill="#e5c1e4"></path><g fill="#316a70"><path d="M218.09115,295.15402l0.17778,-0.25359c0.66021,0.52617 1.65924,0.79785 1.98064,1.57851c0.33214,0.80676 -0.55197,1.81471 -1.42884,2.61682l-0.21361,0.53401c-0.14181,0.37979 -0.50789,0.65024 -0.93713,0.65024c-0.55228,0 -1,-0.44772 -1,-1c0,-0.73333 0,-2.46667 0,-3.2c0,0 0,-1 1,-1c0.1666,0 0.30544,0.02775 0.42115,0.07402z"></path><path d="M207.16289,296.57289c0.70711,-0.70711 1.41421,0 1.41421,0l0.10141,0.12206c0.01409,-0.04379 0.02836,-0.08752 0.0428,-0.13118c0,0 0.31623,-0.94868 1.26491,-0.63246c0.94868,0.31623 0.63246,1.26491 0.63246,1.26491c-0.19191,0.5708 -0.35404,1.15377 -0.47397,1.74438c-0.0073,0.04652 -0.01662,0.09358 -0.02785,0.14128c-0.01656,0.08662 -0.03219,0.17339 -0.04686,0.2603v0.93781c0,0.55228 -0.44772,1 -1,1c-0.55228,0 -1,-0.44772 -1,-1v-1h0.04288l-0.03947,-0.08248c0.02553,-0.15339 0.05304,-0.30653 0.08254,-0.45934c-0.12498,-0.08977 -0.25551,-0.16516 -0.40044,-0.20068l-0.59261,-0.55039c0,0 -0.70711,-0.70711 0,-1.41421z"></path><path d="M277.87,290.28c1,0 1,1 1,1v0.16438c0.25303,0.33545 0.18995,0.77704 0.18995,0.77704c-0.07462,0.50561 -0.14925,1.01121 -0.22387,1.51682l-0.27944,-0.05282c-0.0082,0.01978 -0.01652,0.03953 -0.02498,0.05925l0.26681,0.10672l-0.39135,0.97837c-0.14181,0.37979 -0.50789,0.65024 -0.93713,0.65024c-0.55228,0 -1,-0.44772 -1,-1c0,-0.1393 0.02848,-0.27195 0.07995,-0.39245l0.35797,-0.89493c0.01623,-0.11825 0.03246,-0.2365 0.04869,-0.35475c-0.05659,-0.18613 -0.08352,-0.38458 -0.08661,-0.55787v-1c0,0 0,-1 1,-1z"></path><path d="M267.67,295.08c-0.28714,0 -0.49183,-0.08245 -0.63775,-0.2h-0.16225v-0.17401c-0.07034,-0.09988 -0.11594,-0.20694 -0.14551,-0.30377c-0.25946,-0.04651 -0.51892,-0.09302 -0.77837,-0.13953l0.44073,-0.86583l-0.22396,-0.22396l0.63528,-0.63528c0.03042,-0.21791 0.06083,-0.43582 0.09125,-0.65373c0,0 0.19612,-0.98058 1.1767,-0.78446c0.7006,0.14012 0.80053,0.68069 0.80047,0.97796c0.24483,0.18228 0.40341,0.47393 0.40341,0.80262c0,0.1393 -0.02848,0.27195 -0.07995,0.39245l-0.39158,0.97894l-0.13806,-0.05522c-0.03553,0.2635 -0.20281,0.88383 -0.99042,0.88383z"></path></g></g><path d="M288.98558,120.19409c-0.07887,-0.32567 -0.22364,-0.59508 -0.51863,-0.73858c-1.19448,-0.58104 -3.42821,-0.75186 -4.81695,-0.73051c0,0 -0.06586,0 -0.17202,-0.01277c-0.10661,-0.0083 -0.17118,-0.02121 -0.17118,-0.02121l-1.59616,-0.35751c-1.94423,-0.88676 -3.15058,-0.59296 -5.30167,-0.37777c-4.28994,0.85962 -8.51408,0.7686 -12.81095,1.25803c-4.30225,0.49004 -8.42966,2.25173 -12.75707,2.75079c-5.12706,0.59128 -10.56302,0.31415 -15.87824,0.12936c0.90703,0.84623 1.89216,1.62889 2.99095,2.3199c0.51361,0.23901 0.76056,0.60168 0.86936,0.95952c0.14425,0.34571 0.18473,0.78343 -0.06028,1.29583l-0.23791,0.70577c-1.91968,4.69988 -5.71388,7.22393 -8.42571,11.33117c-0.70559,1.06867 -1.32477,2.22685 -1.93341,3.40153c-0.55479,1.93048 -1.45502,3.36825 -2.50176,4.73904c0.15009,0.25815 0.23605,0.55821 0.23605,0.87834c0,0.35038 -0.10297,0.6767 -0.2803,0.95038l-1.8407,2.94511l-0.2844,-0.17775c-0.63591,1.41255 -1.30497,2.80746 -2.07525,4.15064c-0.19253,0.33572 -0.40738,0.64249 -0.63689,0.92972c-1.87895,3.36983 -3.91822,6.68804 -5.62895,10.09741l-0.10641,0.08246l0.03655,0.02559l-0.23479,0.33543c-1.28606,3.31844 -2.5736,6.6082 -4.12252,9.67106c-1.85611,3.67027 -1.10429,6.78768 -4.83031,9.26939c-0.25198,0.22936 -0.55435,0.34692 -0.79812,0.40719c-0.22438,0.06374 -0.51718,0.10964 -0.82424,0.05644l-1.46687,-0.02705c-1.0172,-0.23737 -2.14267,-0.19744 -3.05162,-0.71209c-1.46248,-0.82805 -2.18375,-2.37302 -2.85776,-3.94728c-0.34314,-0.22873 -0.66205,-0.49626 -0.95005,-0.78535c-1.24931,-1.2541 -1.90944,-2.66861 -2.39718,-4.17645c-0.84814,-0.86329 -1.59044,-1.81771 -1.60339,-3.19277c-0.00127,-0.13502 0.00444,-0.26899 0.01625,-0.40206h-0.06306v-0.53374c-0.0505,-0.12217 -0.09675,-0.23969 -0.13858,-0.35179c-3.3442,-8.96357 1.47107,-17.1746 3.17256,-25.70767c0,0 0.01192,-0.05958 0.04241,-0.15431c0.02621,-0.096 0.04877,-0.15242 0.04877,-0.15242l0.51634,-1.28942c0.53591,-1.16198 1.30227,-2.15088 2.18001,-3.05917l0.01829,-0.05487l0.0264,0.0088c0.01328,-0.01364 0.02658,-0.02726 0.03991,-0.04087c0.01012,-0.06965 0.02157,-0.13919 0.03444,-0.20864c0.1821,-0.98274 0.67199,-1.72397 1.31484,-2.33923c0.03463,-0.05963 0.06924,-0.11927 0.10387,-0.1789c1.25491,-1.27449 2.95505,-2.56259 3.89865,-4.10219c0.71018,-1.15876 0.80271,-2.62908 1.52073,-3.78299c1.35801,-2.18243 3.99123,-3.68223 5.61801,-5.66206c4.22767,-5.14519 7.19063,-11.09848 10.60274,-16.79089c0,0 0.59016,-0.98359 1.6112,-0.88034c0.98247,-0.10956 1.5955,0.80999 1.5955,0.80999l0.2864,0.4345c0.25595,0.00728 0.54224,0.08137 0.85738,0.25645c0.95938,0.53299 0.98284,1.33338 0.86695,1.85616c2.03086,2.28301 3.72087,4.82348 5.60234,7.20115c6.18908,0.13671 12.71533,0.70763 18.73988,-0.01708c4.31832,-0.51946 8.43815,-2.24673 12.74293,-2.74921c4.2579,-0.49702 8.4372,-0.39319 12.68905,-1.24197c2.80985,-0.2809 4.57607,-0.45275 7.19833,0.62223l0.7011,0.11052c1.76623,0.03101 5.14498,0.29572 6.5426,1.26747c1.86424,1.29618 1.62108,2.60251 2.22537,4.42183c0.99373,2.99177 1.43109,7.20883 0.80584,10.41055c-0.50522,2.58706 -2.64049,4.92902 -3.81531,7.24689l-0.45566,1.59481c-0.19637,0.75171 -0.88005,1.30644 -1.6933,1.30644c-0.9665,0 -1.75,-0.7835 -1.75,-1.75v-2h0.105c-0.02227,-0.15912 -0.03528,-0.31982 -0.03719,-0.48244c-0.01725,-1.46906 1.64101,-2.50739 1.983,-3.93619c1.0218,-4.26899 1.20295,-7.97768 1.19919,-12.33137v-0.25c0,0 0,-0.23402 0.08558,-0.53091z" fill="#30152f"></path><g><path d="M271.63257,51.51744c-1.23744,-1.23743 0,-2.47487 0,-2.47487l-0.01865,0.06671c0.20881,-0.3121 0.4208,-0.65892 0.64012,-1.01747c-0.07725,-0.02291 -0.15675,-0.05167 -0.23852,-0.08689c-0.42913,-0.13295 -0.8956,-0.21086 -1.35377,-0.301c-0.45495,0.13063 -1.04207,0.10065 -1.62918,-0.48647c-0.06045,-0.06045 -0.11498,-0.12089 -0.16405,-0.18118c-0.09719,-0.07594 -0.18831,-0.16083 -0.27229,-0.25626c-0.8211,-0.93304 -1.10839,-2.46234 -0.75004,-3.65245c0.13416,-0.44554 1.08254,-1.11887 2.05712,-1.7499c0.40494,-0.01413 1.23443,-0.1515 1.5721,-1.00505c0.19774,-0.13134 0.36449,-0.24838 0.48512,-0.34594c0.46474,-0.37586 0.88781,-0.78017 1.27378,-1.21123c0.16127,-1.04181 0.33696,-2.09967 0.65176,-3.18416c0.02753,-0.29433 0.14923,-0.61727 0.42552,-0.9546c0.18643,-0.24829 0.46805,-0.50995 0.86868,-0.61824c0.16208,-0.04842 0.32076,-0.06477 0.47147,-0.05949c0.02636,-0.23642 0.05249,-0.47373 0.07898,-0.71218c0,0 0.19325,-1.7393 1.93255,-1.54605c0.35217,0.03913 0.62512,0.14165 0.83648,0.28028c0.27618,0.08855 0.48428,0.23427 0.64107,0.40358c0.37417,0.35507 0.46934,0.81457 0.47515,1.17166c0.00405,0.05315 0.00405,0.08377 0.00405,0.08377c-0.00171,1.34873 0.27869,2.84911 0.30082,4.27253c0.2855,0.66636 0.34101,1.46734 0.06373,2.77796c-0.16156,0.76361 -0.53384,1.44406 -0.98318,2.09324c0.01227,0.08365 0.01863,0.16922 0.01863,0.25628c0,0.13001 -0.01417,0.25671 -0.04107,0.37864l-0.39292,1.96457l-0.08186,-0.01637c-0.00657,0.12919 -0.01848,0.25834 -0.03656,0.38746c-0.19549,1.39569 -3.11925,4.01817 -3.94149,5.25643l-0.41865,0.46671c0,0 -1.23744,1.23743 -2.47487,0z" fill="#ad4eab"></path><path d="M283.49338,60.2727c0.19431,-0.03711 0.42637,-0.00904 0.69112,0.14981c0.85749,0.5145 0.343,1.37199 0.343,1.37199c-0.35978,0.58139 -1.01859,0.94213 -1.36307,1.53272c-0.33432,0.57319 -0.14105,2.60551 -0.00058,4.10889c0.02735,0.06096 0.05174,0.12329 0.07265,0.18723c0.06356,0.19438 0.09784,0.38005 0.10837,0.55898c0.30313,0.28672 0.55707,0.66971 0.74301,1.19573c0.71278,1.46774 0.85023,2.98216 0.85409,4.5411c0.0999,0.23583 0.19598,0.47893 0.28409,0.72579c0.17234,0.31043 0.28786,0.63733 0.29758,0.98861c0.15257,0.63904 0.21766,1.27229 0.12636,1.84144c-0.04098,0.25546 -0.09255,0.5056 -0.15802,0.73968c0.23451,2.8507 -0.16628,5.82456 -1.63731,7.67745c0.1288,0.31372 0.05621,0.58426 -0.05598,0.78222c-0.07556,0.17306 -0.20749,0.35429 -0.43781,0.45963c-0.42344,0.39069 -0.53832,1.08502 -0.95752,1.49863c-0.90958,0.89748 -2.59378,1.87253 -4.09159,2.68439c0.36653,0.1312 0.72836,0.42132 0.96306,1.00807c0.64994,1.62484 -0.9749,2.27477 -0.9749,2.27477l-1.41917,0.55783c-0.23266,0.0658 -0.46387,0.12564 -0.6939,0.18011c0.30329,0.40227 0.48379,0.84659 0.45026,1.34917c-0.18559,2.78189 -5.0903,2.7586 -8.14407,2.61971c-1.98077,0.35969 -3.4833,1.1765 -5.47976,1.63022c-1.85529,0.42163 -4.78574,0.11841 -6.68592,0.01973c-2.68457,-0.13941 -4.43416,0.17906 -6.44679,-1.77701c-0.01379,-0.0134 -0.02749,-0.02689 -0.04111,-0.04046c-1.75975,0.02774 -3.54624,-0.04 -4.07693,-0.40586c-0.20123,-0.13873 -0.52928,-0.58868 -0.90995,-1.2001c-0.56556,-0.29001 -0.95258,-0.8789 -0.95258,-1.55818c0,-0.03133 0.00082,-0.06248 0.00245,-0.09341c-0.05499,-0.10166 -0.1099,-0.20411 -0.16454,-0.30698c-0.18995,1.00615 -0.40151,2.0243 -0.60733,3.09651l0.0017,0.02657c0.08037,0.25262 0.02462,0.48503 -0.05715,0.66051c-0.06055,0.16621 -0.17007,0.35068 -0.36814,0.47419c-4.61739,4.64055 -7.92754,9.64261 -15.05698,9.64261c-2.66377,0 -5.15636,0.38676 -6.64443,-2.30279l-0.02865,-0.022c-0.28482,-0.11464 -0.42902,-0.34159 -0.50204,-0.54202c-0.07404,-0.15889 -0.12675,-0.36444 -0.0764,-0.58941c-0.03313,-2.3125 -0.59059,-5.60404 0.02828,-7.77354c0.78455,-2.7503 2.06881,-5.38172 3.00953,-8.03718c0.2744,-0.77458 0.07934,-2.48884 0.21713,-3.31554l-0.00341,-0.91716c0,-0.00024 0,-0.00037 0,-0.00037c0,0 0,-0.00019 0,-0.00056c0.00445,-0.9556 0.09656,-1.90431 0.22897,-2.85039c-0.18175,0.17963 -0.37936,0.35874 -0.59875,0.53996c0.03492,-6.68464 0.32592,-13.37663 0.33641,-20.03066c0,0 0,-0.08286 -0.01803,-0.21253c0.24526,-1.59687 0.29713,-3.10812 0.3194,-4.8849l0.47668,-1.23354c0.03743,-0.17847 0.12771,-0.32665 0.21358,-0.43409c0.07691,-0.10471 0.18789,-0.22268 0.33701,-0.30499c3.1754,-2.51317 3.08085,-7.2405 6.27304,-8.669c1.57954,-2.08736 4.00448,-3.15597 6.09694,-4.73051c1.58725,-1.19438 1.89929,-2.53927 3.64089,-3.58487c2.24625,-1.34858 4.68861,-1.72235 7.16633,-2.08948c-0.00386,0.04746 -0.00583,0.09546 -0.00583,0.14391c0,0.9665 0.7835,1.75 1.75,1.75h2c1.25823,-0.01653 2.47515,0.45814 3.71968,0.64407c2.22123,0.33184 4.58359,-0.14501 6.82293,0.01819c2.47937,0.1807 4.76517,1.04168 7.26413,1.32703c0,0 1.7393,0.19326 1.93255,-1.54604c0.01192,-0.10726 0.01649,-0.20864 0.01457,-0.30446c0.57525,1.29476 0.44144,3.45903 0.34115,4.97799c0.6558,0.77976 1.83367,1.07462 2.6284,1.75115c0.55757,0.47463 0.71268,1.28132 1.12116,1.88902c0.89576,1.33264 0.60242,2.59782 0.52983,3.9098c0.51418,0.46149 0.95193,0.94713 1.31963,1.46663c0.59123,0.38402 1.19191,0.72099 1.65054,1.37358c1.56203,2.22261 0.9829,5.29585 -0.06125,8.18952c0,0.54839 0,1.09679 0,1.64519c0,0.55473 -0.61347,1.3634 -0.3683,1.74203c0.02838,0.02966 0.05671,0.05933 0.08497,0.08899c0.01711,0.01255 0.03596,0.02422 0.05667,0.03499c0.48976,0.25449 1.00843,0.40007 1.52393,0.51647c-0.50291,-1.20253 -0.71794,-2.74605 -0.5724,-3.72601c0.07093,-0.47759 0.27942,-1.51351 0.77147,-1.93422c-0.11121,-0.16118 -0.17634,-0.35661 -0.17634,-0.56724c0,-0.55228 0.44772,-1 1,-1h1.2c0,0 0.53626,0 0.82337,0.3927z" fill="#e5c1e4"></path><path d="" fill="#e5c1e4"></path><path d="M250.97711,76.17289l0.11506,0.35635c2.17257,0.08933 4.14421,0.65634 4.1774,2.78013c0.05608,3.58801 -6.01226,2.84862 -7.96208,1.52881c-0.32349,-0.0731 -0.61825,-0.19721 -0.87148,-0.38484c-0.49096,-0.36379 -0.634,-0.78332 -0.6303,-1.22441c-0.1139,-0.29355 -0.10321,-0.55088 0.00771,-0.77144c-0.18817,-0.14469 -0.34343,-0.38346 -0.34343,-0.77749c0,-0.57761 0.33364,-0.82159 0.61549,-0.92464l-0.01233,-0.37861c-0.04299,-0.34063 0.06284,-0.57805 0.21041,-0.74148c0.09995,-0.13453 0.24668,-0.25377 0.46209,-0.31392c0.84863,-1.10665 3.84149,0.49891 4.23146,0.85154z" fill-opacity="0.35294" fill="#ad4eac"></path><path d="M284.08584,75.80809c-0.7176,1.06993 -1.91438,1.33595 -2.5978,-0.93898c-0.35473,-1.18082 0.27774,-3.03124 2.05196,-2.75197c0.52601,0.0828 0.66568,0.76832 0.90335,1.30095c0.22664,0.29018 0.22664,0.66191 0.22664,0.66191c-0.00682,0.09355 -0.01751,0.18692 -0.03177,0.27965l0.03177,0.52035c0,0 0,0.6988 -0.58416,0.92809z" fill-opacity="0.35294" fill="#ad4eac"></path><path d="M233.89077,33.75827c1.80336,2.57979 2.90237,4.78315 5.32583,6.89968c2.35082,2.05309 5.71208,4.15098 4.4947,7.9292c-0.04985,0.15471 -0.11971,0.29879 -0.20363,0.43542l-0.07242,0.34005c-3.23781,6.10285 -10.32,6.35182 -13.71404,0.03209c-1.59589,-2.97156 -1.30184,-5.26301 -1.78266,-8.36059c-0.51769,-3.33511 -0.7998,-6.15779 -0.19032,-9.56717c0,0 0.10006,-0.55033 0.49818,-0.97216c-0.03859,-0.19553 -0.07126,-0.39028 -0.0977,-0.58407c-0.08815,-0.36982 -0.09403,-0.84933 0.22859,-1.29781c0.16773,-0.28915 0.44428,-0.5564 0.89829,-0.69302c0.43755,-0.18261 0.82086,-0.15163 1.13402,-0.03466c0.53207,0.14127 0.83165,0.51337 0.99863,0.85412l0.46094,0.7299c0.45289,1.03268 0.81656,2.09382 1.15216,3.16597c0.25625,0.30551 0.54617,0.66058 0.86944,1.12304z" fill="#ad4eab"></path><path d="M282.07,62.88c0,1.68562 -0.31594,2.9825 -0.61804,4.58911c-0.09707,0.51624 0.20552,1.984 -0.05808,2.39358c-1.11373,1.73053 -2.25419,2.35842 -3.61831,0.46453c-1.05316,-1.46217 0.69443,-5.02394 0.69443,-6.84721v-1c0,-0.55228 0.44772,-1 1,-1c0.05837,0 0.11556,0.005 0.17119,0.0146l0.5217,-0.5217v0c0.18096,-0.18096 0.43096,-0.29289 0.70711,-0.29289c0.55228,0 1,0.44772 1,1v0.57401c0.2,0.28399 0.2,0.62599 0.2,0.62599z" fill="#30152f"></path><g><path d="M253.23273,66.98505c0,0 0.01523,0.58093 -0.42039,0.86869c0.06169,1.95674 0.70118,3.8467 1.78475,5.42991c0.21977,0.11569 0.43827,0.23372 0.65506,0.35491l0.93634,0.34295c0,0 0.93789,0.34694 0.59096,1.28482c-0.03294,0.08907 -0.07121,0.16653 -0.11351,0.23382c1.65987,1.30595 3.76785,2.09183 6.14821,2.04229c6.38871,-1.38197 5.58209,-12.38052 0.77528,-15.17975c-1.07118,-0.6238 -3.12841,-0.16872 -4.27937,-0.13855c-1.17822,0.03088 -2.70333,-0.18286 -4.05025,-0.02916c-1.35199,1.15272 -2.1955,2.79468 -2.02707,4.79006zM264.94176,59.41159c1.37315,0.80669 1.70074,1.89866 2.62853,3.07045c0.70659,1.31832 1.18458,2.19664 1.24659,3.69433l0.01049,0.39986c0,0 0.01211,0.46215 -0.29435,0.76622c1.24748,4.81458 0.76232,10.3085 -4.8,12.0046c-0.07607,0.36044 -0.3469,0.65113 -0.69977,0.75326l-1.36794,0.42992l-0.07066,-0.22482c-1.28324,0.5709 -2.18367,0.40155 -3.40665,-0.24339c-1.14968,-0.12883 -2.26914,-0.37386 -3.64111,-0.7943c-4.45228,-2.4567 -4.17378,-6.88868 -4.29216,-11.40435c-0.05176,-1.97455 -0.22466,-4.25217 1.10315,-5.90067c0.84941,-1.05456 2.01922,-1.494 3.29124,-1.66676c2.79368,-2.21592 6.83326,-2.91666 10.29265,-0.88437z" fill="#316a70"></path><path d="M278.05349,60.73264c0.48892,-0.91951 1.09991,-2.25942 1.51655,-2.60963c2.40661,-2.02287 4.91879,0.56276 6.27189,2.17119c2.24529,2.66897 3.24255,9.58037 1.88101,12.99687c-0.3223,0.80876 -0.9153,1.5053 -1.15652,2.34182c-0.70441,0.20566 -1.423,0.40542 -2.15096,0.50061c-0.13534,0.37677 -0.49097,0.65059 -0.91525,0.66172l-1.19958,0.03145c-4.83296,0.05334 -5.90254,-6.38598 -5.47102,-11.34249c0.00752,-0.48895 0.05839,-0.93809 0.15618,-1.329c0.03934,-0.26329 0.08289,-0.51935 0.13022,-0.76671c0.00244,-0.57076 0.00137,-1.11816 -0.01207,-1.63079c0,0 -0.02578,-0.98365 0.94955,-1.02504zM284.66134,61.78805c-0.06672,0.04738 -0.15325,0.09952 -0.25452,0.13981c-0.2871,-0.78422 -1.04994,-1.33443 -1.93094,-1.31134c-0.86262,0.02262 -1.58331,0.58817 -1.84357,1.36102c-0.08591,0.14023 -0.15499,0.29174 -0.2045,0.45166c-0.61701,0.68227 -1.1039,1.53721 -1.31418,2.27666c-0.00137,0.29885 -0.00223,0.59851 -0.00153,0.89836c-0.06282,0.22459 -0.08211,0.44275 -0.08247,0.62449c-0.00441,0.17001 0.00938,0.2789 0.00938,0.2789c0.16823,1.32938 0.33646,2.65877 0.50468,3.98815l1.18089,2.08016c0,0 0.21191,0.30049 0.58285,0.55293l0.11274,0.21413c0,0 0.941,1.76481 2.7058,0.82381c0.0007,-0.00038 0.0014,-0.00074 0.0021,-0.00112c0.33116,0.01296 0.66685,0.03077 1.00994,0.06735c-0.04627,-1.11279 0.78942,-1.44395 0.83152,-2.58674c0.10057,-2.73038 0.21051,-5.99723 -0.58805,-8.62012c-0.07065,-0.23206 -0.33956,-0.70477 -0.72015,-1.2381z" fill="#316a70"></path><path d="M246.89108,73.40753c-0.42331,0.44695 -0.86318,0.87481 -1.33042,1.27081l-0.71774,0.94702c-0.17692,0.23764 -0.45721,0.39464 -0.77635,0.40301c-0.5521,0.01448 -1.01139,-0.42136 -1.02586,-0.97346c-0.00271,-0.10335 0.01037,-0.20346 0.03702,-0.298l0.35742,-1.38764l0.06351,0.01636c0.01428,-0.10023 0.03336,-0.19991 0.05814,-0.29894c0.10056,-0.40175 0.73551,-0.44187 0.95787,-0.79126c0.72042,-1.13199 1.32526,-3.56623 2.87229,-4.23851c0.61627,-0.26781 1.10109,-0.39079 1.47668,-0.401c0.03612,-0.08213 0.07568,-0.16377 0.11894,-0.24597l-0.08959,-0.02728l0.3617,-1.18801c0.11492,-0.41178 0.48747,-0.71867 0.93715,-0.73046c0.5521,-0.01448 1.01138,0.42136 1.02586,0.97345l0.02621,0.99966l-0.1314,0.00344l0.10213,0.26435c-0.10002,0.18801 -0.20858,0.41875 -0.32577,0.6748c0.00116,0.01533 0.00187,0.03055 0.00218,0.04563c0.21061,-0.00674 0.45009,0.06497 0.69375,0.29618c0.72539,0.68833 0.03706,1.41373 0.03706,1.41373l0.0178,-0.13623c-0.18269,0.4586 -0.49595,0.8452 -0.8768,1.17836l0.2102,0.24907l-0.9726,0.8208c-0.16836,0.14457 -0.38569,0.2343 -0.62483,0.24057c-0.18767,0.00492 -0.3646,-0.04219 -0.517,-0.12821c-0.03697,0.06319 -0.07324,0.12288 -0.10855,0.17861l-0.09591,0.04484l0.03161,0.02999l-0.77876,0.82069l-0.35397,-0.33588z" fill-opacity="0.97647" fill="#316a70"></path><path d="M266.27128,66.32691c0.22018,-0.72319 0.82061,-0.73322 1.10055,-0.69505c1.0235,-1.04516 2.11491,-1.78152 3.28014,-2.236c0.69525,-0.86317 1.54854,-1.59361 2.31338,-1.87342c1.1445,-0.41871 3.98892,0.70467 4.29068,2.00772c0.03278,0.14156 0.04105,0.28269 0.03119,0.42348l0.0743,-0.00195l0.02621,0.99966c0.01448,0.55209 -0.42135,1.01139 -0.97345,1.02586c-0.4291,0.01125 -0.80213,-0.24951 -0.95385,-0.62546l-0.24451,-0.56765c-1.33364,0.1077 -2.4197,0.1366 -3.41998,0.39308c-0.36558,0.45718 -0.67133,0.92186 -0.84022,1.31098c-0.23199,0.5345 -0.04029,1.33624 -0.51831,1.66942c-0.75416,0.52566 -2.21222,-0.14691 -2.95139,-0.41732l-0.54936,-0.16546c0,0 -0.95665,-0.29126 -0.66539,-1.2479zM269.25892,66.57828c-0.02452,0.02238 -0.04906,0.04508 -0.07364,0.06809c0.04352,0.01175 0.07016,-0.00659 0.07364,-0.06809z" fill-opacity="0.97647" fill="#316a70"></path><path d="M286.42835,65.1598c0.02267,0.03214 0.04318,0.06391 0.06167,0.09529c0.2231,-0.13447 0.82084,-0.4008 1.3151,0.22344c0.62076,0.784 -0.16324,1.40476 -0.16324,1.40476c-0.8718,0.68645 -1.58435,1.47617 -2.35651,2.27378l-0.15855,0.04311l0.02328,0.04365l-1.16611,0.62177c-0.137,0.07678 -0.29415,0.12232 -0.46204,0.12672c-0.5521,0.01448 -1.01139,-0.42136 -1.02587,-0.97345c-0.00194,-0.07426 0.00426,-0.14686 0.01779,-0.21691l0.17021,-0.98455l0.18204,0.03147c0.10665,-0.83084 0.4886,-1.38117 1.4303,-2.38553l0.73839,-0.54448c0,0 0.81723,-0.57631 1.39354,0.24092z" fill-opacity="0.97647" fill="#316a70"></path></g><path d="M264.07,64.48c0,1.68562 -0.31594,2.9825 -0.61804,4.58911c-0.09707,0.51624 0.20552,1.984 -0.05808,2.39358c-1.11373,1.73053 -2.25419,2.35842 -3.61831,0.46453c-1.05316,-1.46217 0.69443,-5.02394 0.69443,-6.84721v-1c0,-0.55228 0.44772,-1 1,-1c0.05837,0 0.11556,0.005 0.17119,0.0146l0.5217,-0.5217v0c0.18096,-0.18096 0.43096,-0.29289 0.70711,-0.29289c0.55228,0 1,0.44772 1,1v0.57401c0.2,0.28399 0.2,0.62599 0.2,0.62599z" fill="#30152f"></path></g><path d="M285.13288,79.73134c-0.55055,-0.53342 -1.09654,-1.07079 -1.63665,-1.6109c0,0 -0.70711,-0.70711 0,-1.41421c0.70711,-0.7071 1.41422,0 1.41422,0c2.13202,2.13202 4.3627,4.19055 6.58011,6.18066c2.67919,2.40456 6.80099,4.32767 4.60442,8.77921c-0.5874,1.19043 -2.063,2.32822 -3.01978,3.22892c-3.24671,0.74106 -6.94154,0.32583 -10.27186,0.31833c-1.12998,-0.00255 -2.35464,0.09687 -3.37605,-0.58258c-1.19583,-0.79548 -1.88806,-2.99999 -2.02054,-4.33494c-0.45839,-4.61897 2.67867,-7.74277 6.3068,-10.03957c0.49926,0.03624 1.22256,-0.07105 1.41933,-0.5249z" fill-opacity="0.94902" fill="#e6c1e4"></path><path d="M259.58444,119.72349c2.46066,-0.62422 4.86893,-0.47192 7.33348,-0.99211c5.23916,-1.10582 10.11344,-2.03649 15.47739,-2.16587c2.78672,0.68357 4.61224,1.01675 6.75814,2.94987l0.60423,2.88642c0,0 0.02918,0.9215 -0.62367,1.44797c0.1495,5.2294 0.25049,10.49995 1.14774,15.63461c1.27387,7.28991 4.64193,14.31234 4.65945,21.70405c0.78725,1.37133 1.87686,2.59661 2.41284,4.08424c1.52077,4.22099 1.11121,8.01163 3.29547,12.02925l0.51915,1.67593c0,0 0.02271,0.07999 0.0408,0.21004c0.02224,0.12941 0.02487,0.21252 0.02487,0.21252c0.06389,2.01728 -0.24922,5.03402 0.20554,7.07625c0.99895,4.48606 3.38913,8.06425 5.25309,12.05258c2.39987,5.13501 2.98082,10.75901 4.58908,16.07512c0.44117,1.45829 1.22986,2.81236 1.53606,4.30483l0.07383,2.14308c0,0 0.00302,0.09549 -0.01465,0.24256c-0.0141,0.14745 -0.03743,0.2401 -0.03743,0.2401c-1.27301,5.03698 -4.55632,12.2085 -11.19466,10.55379c-0.94178,-0.23476 -1.67433,-0.98226 -2.5115,-1.4734l-0.38891,-0.16738c-0.42369,-0.15411 -0.84739,-0.30821 -1.27108,-0.46232c-2.00874,2.33235 -3.62246,5.34031 -6.10469,7.14932c0.01678,0.08857 0.02692,0.17959 0.02986,0.27253c0.01768,0.5584 -0.22824,1.06398 -0.6255,1.39712l-1.61133,1.37492l-0.03107,-0.03641l-0.06083,0.10964c-1.39717,0.89836 -2.4532,2.34136 -3.97692,3.00273c-0.3266,0.14176 -3.98093,0.23065 -4.59013,0.24994c-4.7177,0.14941 -9.35879,-0.03001 -13.90346,-1.30683c-0.29017,-0.08153 -0.67947,-0.21002 -1.13157,-0.37418c-0.22749,-0.02277 -0.45277,-0.04846 -0.67555,-0.07727c-1.459,0.06365 -2.94168,0.02214 -4.15239,-0.46551c-1.48956,-0.59996 -2.50112,-2.02148 -3.83447,-2.91645l0.13686,-0.86699l-0.39118,0.01239l-0.006,-0.18949c-1.7288,0.22516 -4.12044,0.34066 -5.52716,0.97116c-2.60761,1.16877 -4.46726,4.37181 -7.21147,5.58565c-2.14394,0.94832 -5.01455,0.615 -7.29211,0.68713l-0.95872,0.03036c-3.43632,1.6039 -10.07825,2.74839 -13.66564,1.63351c-0.67411,-0.2095 -0.96521,-1.07507 -1.59597,-1.39203c-0.72278,-0.36319 -1.64327,-0.20489 -2.35326,-0.59248c-0.99697,-0.54423 -2.04278,-1.29118 -3.02246,-2.14293c-1.68646,-0.72217 -3.83605,-1.79253 -4.36294,-3.13327c-0.06091,-0.15498 -0.11125,-0.31243 -0.15281,-0.47191l-0.08595,0.03171l-0.4147,-1.12417l-1.29358,0.04097c-3.43913,0.10892 -9.04837,1.30176 -12.33439,0.25735c-0.71503,-0.22726 -1.0767,-1.06209 -1.71192,-1.46134c-1.73227,-1.08876 -3.74402,-1.99444 -4.92207,-3.66727c-2.88699,-4.09954 -0.51578,-8.52539 2.29309,-11.93356c-0.5457,-0.31616 -1.03951,-0.73669 -1.42609,-1.18565c-0.62449,-0.72526 -0.24801,-1.89906 -0.31764,-2.8536c-0.2412,-3.30649 1.18594,-5.93388 2.1445,-8.9718c0.84993,-2.69365 2.8548,-3.5197 4.43314,-5.65404c1.77284,-2.39738 2.13078,-5.96012 3.59728,-8.58896c1.83971,-3.29786 3.96124,-6.07605 5.45081,-9.6003l1.16034,-2.2517c0,0 0.00154,-0.00298 0.00461,-0.00862c0.00288,-0.00573 0.00445,-0.00871 0.00445,-0.00871c1.15968,-2.18157 1.68792,-4.56794 2.77068,-6.72579c3.43872,-6.85315 6.4456,-13.61223 9.64826,-20.57366c0.82265,-1.78816 1.57543,-3.62339 2.61846,-5.29263c1.33258,-2.13261 3.22698,-3.19817 4.02128,-5.54563c1.83896,-3.90485 4.07521,-7.58695 5.99052,-11.57277c0.51033,-1.06202 0.09666,-2.38803 0.48062,-3.50198c0.23294,-0.67579 0.74172,-1.2117 1.19958,-1.77342c0.04544,-0.43661 0.21774,-0.74544 0.43589,-0.96384c0.25007,-0.2836 0.63989,-0.50713 1.24734,-0.52637c8.54629,-0.27066 16.02576,-3.24664 24.18715,-5.31701z" fill="#316a70"></path><path d="M254.34692,131.1454c1.44549,-0.6693 3.24244,-0.33292 4.84741,-0.15291c3.13208,0.35128 8.19714,2.24403 9.81359,4.95992c0.27526,0.46246 -0.34453,1.08789 -0.13417,1.57859c0.12037,0.28076 0.18501,-0.64744 0.47009,-0.79503c1.86495,-0.96552 2.99533,-0.74855 5.01222,-0.7693h0.40431c0.95657,-0.30949 1.92162,-0.90219 2.8609,-0.6356c5.43844,1.54357 2.86599,6.83587 2.86599,10.6356c0,0.50205 0.01569,4.1847 -0.05789,4.45951c-0.64909,2.42434 -2.86272,4.43388 -3.64713,6.8035c-0.64739,1.95568 -0.1047,4.30011 -0.68078,6.1965c-0.70641,2.32548 -2.12449,4.6077 -2.8804,6.99326c0.21656,0.59049 0.05924,1.09397 -0.17648,1.46732c-0.17544,0.36083 -0.48501,0.73563 -1.03122,0.93486c-0.86715,0.54865 -1.7695,1.06173 -2.70723,1.50424c-1.02935,-0.6921 -2.20458,-1.29744 -2.76612,-1.71254c-2.48373,-1.83594 -5.65127,-3.45396 -7.59188,-5.88901c-0.01198,-0.1191 -0.03037,-0.23764 -0.05624,-0.3555c-0.12716,-0.57948 -1.9232,-3.62725 -2.07373,-4.04157c-1.65156,-4.54535 -3.00325,-9.86639 -3.01969,-14.69389v-1.12236c-2.80604,-4.47277 -6.47409,-12.11392 0.54846,-15.36557z" fill="#30152f"></path><path d="M231.95319,82.67543c1.57571,1.30825 4.18132,2.21659 6.02943,3.13993c2.18217,1.10208 3.72931,2.27363 5.45481,3.99448l0.48744,0.48744h1.60846v0.19809l0.44917,-0.13947c0.62439,0.35679 1.24878,0.71359 1.87317,1.07038c0.72712,0.00341 1.5222,0.12654 2.32505,0.30456c2.58808,0.18572 5.09451,0.86688 7.59854,1.54304c1.41111,0.04326 2.81734,0.04664 4.22562,0.42145c1.53726,0.40914 3.17925,0.84345 4.84061,1.12785c1.16894,-0.02011 2.35632,-0.16065 3.56925,-0.46656c1.36474,-0.34419 2.55251,-1.20619 3.89324,-1.63445c0.72592,-0.23187 1.61661,-0.01714 2.24046,-0.45479c0.67887,-0.47625 0.80769,-1.46679 1.3689,-2.07729c1.08104,-1.17597 3.26438,-2.78672 4.88059,-3.17935c0.14676,-0.03565 1.88124,-0.0461 3.40496,-0.04836c1.93045,-1.26094 4.06663,-2.69719 6.23454,-0.81922c0.90887,0.78731 0.41682,2.37213 0.51256,3.57077c0.11685,1.46277 0.0118,4.09557 -0.41293,5.52179c-0.35175,1.18116 -1.25373,2.24579 -1.25373,3.47821c0,1.97232 0.86914,1.97674 1.58707,4.14487c1.02531,3.09645 1.51109,5.87566 2.83409,8.92868c0.1072,0.19822 0.16759,0.39998 0.20161,0.56438c0.03942,0.18125 0.06795,0.41724 0.03799,0.66877l-0.01169,0.60744c-0.22828,1.57578 0.14947,3.28005 -0.44896,4.75554c-1.20892,2.98076 -5.47933,5.84781 -7.87315,7.70966c-4.0622,3.15949 -7.49135,6.927 -11.79622,9.86744c-0.23923,0.23223 -0.53043,0.35728 -0.77468,0.42462c-0.23764,0.07848 -0.54463,0.13552 -0.86809,0.07857h-0.30464c-5.7015,0 -11.38639,-0.57311 -17.12406,-1.0044c-3.50398,-0.26339 -6.81291,-0.11001 -10.20688,-0.69384c-0.84274,-0.14497 -1.76053,0.22977 -2.56462,-0.0612c-1.94943,-0.70542 -3.33821,-2.49911 -5.19832,-3.41447c-1.28349,-0.6316 -2.67345,-1.01743 -4.00806,-1.53353c-0.52645,-0.10531 -0.8421,-0.40034 -1.03135,-0.71627c-0.18358,-0.2412 -0.32222,-0.55665 -0.31103,-0.95509c-1.52294,-1.48176 -3.33267,-3.10085 -4.6017,-4.62756c-1.82701,-2.19799 -2.81699,-5.08948 -4.64283,-7.30348c-0.12347,-0.14972 -0.25478,-0.30236 -0.39116,-0.45758c-0.18339,0.06524 -0.38087,0.10075 -0.58665,0.10075c-0.75117,0 -1.39181,-0.47328 -1.63997,-1.13791l-0.65153,-1.62882l0.01477,-0.00591c-0.00726,-0.0038 -0.0145,-0.00773 -0.02173,-0.01179c-0.77607,-0.43624 -0.6337,-1.6578 -0.93149,-2.503l-0.75548,-1.25913c-0.32224,0.25023 -0.64549,0.49931 -0.97138,0.74414c-0.1732,-1.3479 -0.21165,-2.67767 0.00857,-3.94992c0.34329,-1.98327 0.35402,-4.04276 0.67565,-6.05062c0.37835,-2.36198 2.14284,-4.38985 2.82447,-6.68734c1.4401,-4.85396 2.99297,-9.73095 4.82369,-14.48973c2.45903,0.56089 3.318,2.1482 5.37763,3.85824z" fill="#ad4eab"></path><path d="M215.81424,102.78474c0.05476,-0.47886 0.29892,-1.29045 1.30836,-1.49861l0.25867,-0.20137c0.447,-1.63279 0.51452,-3.03251 2.17108,-4.70713c1.66989,-1.68808 4.16706,-3.07047 6.25154,-4.18726c2.34619,-1.25701 4.56453,-3.02587 7.43223,-2.19756c2.14199,0.61869 2.43781,2.35712 3.42655,3.92439c1.0508,1.66566 2.02695,3.20115 2.94318,4.87626c0.0882,0.01406 0.17987,0.03417 0.27513,0.06096c1.71997,0.48385 1.16653,2.1827 1.16653,2.1827c-0.19239,0.59058 -0.43012,1.17985 -0.68507,1.76601c0.03851,0.50614 0.09712,1.00975 0.17877,1.5085l-0.21501,1.26846c0,0 -0.42518,1.30515 -1.68838,1.30171c-0.52997,1.65629 -0.77034,3.43778 -1.66665,4.94568c-1.63857,2.7566 -4.02191,5.25553 -6.39214,7.4067c-0.43164,0.39176 -1.11251,0.52164 -1.43857,1.00026c-0.91082,1.33697 -1.48439,4.04727 -1.99331,5.61744l-1.71359,1.71669c-0.0535,0.06721 -0.08937,0.10418 -0.08937,0.10418c-1.50205,1.53205 -2.18508,3.38906 -3.60363,4.92919c-2.69898,2.93027 -6.7941,5.46316 -10.05563,7.74334l-1.65028,1.25368c0,0 -0.04509,0.03423 -0.12526,0.08307c-0.07782,0.05246 -0.1278,0.07918 -0.1278,0.07918c-3.938,2.10464 -8.66491,3.91514 -12.26505,6.51917c-1.34617,0.97371 -2.21846,2.52063 -3.41833,3.77367c-0.03345,0.22573 -0.11773,0.46242 -0.2857,0.68761c-0.24824,0.38756 -0.6129,0.58615 -0.94274,0.68709c-0.4647,0.18687 -0.85634,0.1699 -1.17376,0.06107c-1.57611,-0.16751 -3.13959,-0.52274 -4.59855,-1.0904c-1.21516,-0.47281 -2.35492,-1.43445 -3.67772,-1.34227c-3.46465,0.24143 -6.74852,1.64352 -10.31518,1.49076l-1.66359,0.60634c0,0 -0.10146,0.035 -0.26298,0.06418c-0.16101,0.03224 -0.26752,0.03685 -0.26752,0.03685c-0.43887,0.01515 -0.8797,0.01616 -1.31992,0.0011l-0.69968,0.50714c-0.07619,0.05703 -0.15774,0.10908 -0.24442,0.15541c-0.88782,0.47449 -1.97684,0.16814 -2.4324,-0.68427c-0.03714,-0.0695 -0.06893,-0.14047 -0.0955,-0.21249c-0.05193,-0.00806 -0.10457,-0.019 -0.15785,-0.0331c-0.3343,-0.05943 -0.68051,-0.23172 -0.96668,-0.61506c-0.32167,-0.35499 -0.42125,-0.72414 -0.41114,-1.05851c-0.02949,-0.53645 0.23514,-0.94855 0.50165,-1.22367c0.96612,-1.09436 2.11974,-1.87805 3.31238,-2.58054c0.81487,-1.99147 1.89477,-3.86521 3.34174,-5.18876c1.61921,-1.48111 4.2498,-2.15186 6.10507,-3.32983c2.95536,-1.87645 6.04246,-3.84818 9.2579,-5.44029c0.36164,-0.57135 0.68442,-1.17368 1.17494,-1.63138c2.71985,-2.53782 7.03022,-3.19687 9.67258,-6.06895c1.17939,-1.28192 1.80687,-3.00565 2.98232,-4.29118c1.20212,-1.31469 2.8358,-2.17205 4.1048,-3.42231c2.79749,-2.7562 3.39575,-6.829 6.14378,-9.53868c1.6014,-1.9166 3.18818,-3.786 4.6342,-5.81518z" fill-opacity="0.97647" fill="#ad4eac"></path><path d="M224.5398,81.49388c0.45624,-1.34826 1.02979,-2.6686 1.75913,-3.8909l0.60956,-1.53897c0,0 0.3269,-0.81725 1.09662,-1.06071c0.07686,-0.18868 0.15128,-0.37879 0.22298,-0.57049c0,0 0.61447,-1.63858 2.25304,-1.02411c0.53961,0.20235 0.83488,0.51577 0.98822,0.84515c3.63723,-1.32724 8.09712,-0.92882 10.46945,2.08408c1.62757,2.06704 0.8248,4.57034 1.0068,6.91862c0.30707,3.96201 1.33774,7.46026 1.33774,11.45739v0.66667c-0.00516,4.23857 -0.42867,7.79446 -4.49664,10.15531c-3.43816,1.99534 -10.38124,1.76606 -14.57432,-0.73864c-0.33746,0 -0.67492,0 -1.01237,0c-0.60777,0 -1.00446,-0.21108 -1.26338,-0.48662c-0.27554,-0.25892 -0.48662,-0.65562 -0.48662,-1.26338c0,-0.04059 0.00094,-0.08024 0.00278,-0.11896l0.01481,-0.63355c-0.00929,-0.0659 -0.01855,-0.13221 -0.02778,-0.19893c-0.05778,-0.10406 -0.11217,-0.20982 -0.16304,-0.3173c-0.36186,-0.76446 -0.42767,-1.88715 -0.21692,-3.00303c-0.42985,-4.77047 -0.42399,-10.45975 1.17944,-14.37176c0.36329,-0.88634 0.78473,-1.74528 1.23287,-2.59342c0.02618,-0.19204 0.06764,-0.31643 0.06764,-0.31643z" fill-opacity="0.94902" fill="#e6c1e4"></path><path d="M217.86667,79.3c0,-0.17265 0.02188,-0.34019 0.06301,-0.5c-0.04113,-0.15981 -0.06301,-0.32735 -0.06301,-0.5c0,-0.05613 0.00231,-0.11171 0.00685,-0.16667c-0.00453,-0.05496 -0.00685,-0.11054 -0.00685,-0.16667c0,-0.05613 0.00231,-0.11171 0.00685,-0.16667c-0.00453,-0.05496 -0.00685,-0.11054 -0.00685,-0.16667c0,-0.65733 0.31711,-1.2406 0.80671,-1.60516c-0.16919,0.0564 -0.33839,0.1128 -0.50758,0.16919l-1.48072,0.37625c0,0 -1.94029,0.48507 -2.42536,-1.45521c-0.48507,-1.94029 1.45521,-2.42536 1.45521,-2.42536l1.18595,-0.29041c0.62111,-0.20704 1.24223,-0.41408 1.86334,-0.62111c-0.09563,-0.16233 -0.16733,-0.32643 -0.19869,-0.49451l-0.93382,-0.74706c-0.46584,-0.36617 -0.76504,-0.93479 -0.76504,-1.57328c0,-1.10457 0.89543,-2 2,-2h1.76331c1.12364,-0.3651 1.97307,-1.38027 2.71818,-2.30158c0,0 1.30158,-1.51851 2.8201,-0.21693c1.51851,1.30158 0.21693,2.8201 0.21693,2.8201c-0.58225,0.65227 -1.22747,1.27136 -1.92498,1.823c0.25507,0.33575 0.40646,0.75457 0.40646,1.20875c0,0.84061 -0.51861,1.5601 -1.25332,1.85596c0.06704,0.03558 0.11693,0.0834 0.14058,0.14869c0.25295,0.6984 0.20106,1.45563 0.15028,2.21266c0.06394,0.10739 0.11423,0.21785 0.15363,0.32738c0.25669,0.52503 0.21873,0.99954 0.07764,1.38248l-0.07994,0.55955c1.14446,0.4681 1.14446,1.84662 1.14446,1.84662v0.66667c-0.07649,1.26609 1.10868,2.32475 1.2888,3.58029c0.60274,4.20158 -1.23274,3.329 -3.65612,5.90819c-0.6381,0.67913 -0.10815,3.02578 -0.38516,3.42442c-0.11111,0.15989 -0.23043,0.31242 -0.35654,0.45886l0.10646,0.07097l-1.31613,1.97419c-0.35611,0.5514 -0.97608,0.91641 -1.68131,0.91641c-1.10457,0 -2,-0.89543 -2,-2c0,-0.67044 0,-2.82696 0,-3.90757c-0.10581,-0.45515 0.00022,-0.87125 0.14976,-1.19216c0.14184,-0.38936 0.41802,-0.82877 0.95577,-1.06375c0.07943,-0.64135 0.07908,-1.18279 0.2186,-1.611l-0.0636,0.01817c-0.18762,0.05826 -0.38708,0.08964 -0.59386,0.08964c-1.10457,0 -2,-0.89543 -2,-2c0,-0.70523 0.36501,-1.3252 0.91641,-1.68131l1.86947,-1.24631c0.03101,-0.02644 0.06375,-0.05285 0.09794,-0.07924c-0.53315,-0.35924 -0.88382,-0.96857 -0.88382,-1.65981z" fill="#e5c1e4"></path><path d="M252.97224,41.08885c-0.508,-0.254 -0.79961,-0.58013 -0.95676,-0.91694c-0.78424,-0.01812 -1.5834,0.04306 -2.58772,0.58361c0,0 -1.78885,0.89443 -2.68328,-0.89443c-0.89443,-1.78885 0.89443,-2.68328 0.89443,-2.68328c0.81164,-0.38588 1.56253,-0.94177 2.43492,-1.15764c0.84627,-0.20941 1.78467,0.15874 2.66041,0.22809c0.09935,-0.64518 0.14074,-1.3004 0.13243,-1.94826c0,0 0,-2 2,-2c2,0 2,2 2,2c-0.00032,0.03324 -0.00074,0.06648 -0.00124,0.09974c0.15048,-0.05209 0.30387,-0.09484 0.46093,-0.12592l0.96703,-1.20878c0.36617,-0.46584 0.93479,-0.76504 1.57328,-0.76504c1.10457,0 2,0.89543 2,2c0,0.10784 -0.00854,0.21369 -0.02497,0.3169l-0.32847,2.29927l-0.11145,-0.01592c-0.00086,0.01641 -0.00182,0.03281 -0.00286,0.04921l0.11435,-0.03308c0.62075,-1.12103 1.33062,-2.19642 2.125,-3.19911c0,0 1.24939,-1.56174 2.81113,-0.31235c0.14059,0.11247 0.2584,0.22748 0.35639,0.34364c1.07386,-0.60157 2.29168,-0.70266 3.68697,0.35872c0.69193,0.52634 0.98086,1.71231 0.92933,3.0537c0.14502,0.08061 0.28014,0.17347 0.404,0.27964c0.85467,0.73258 0.67804,2.1468 1.01706,3.2202l0.33676,2.35633c0,0 0.28284,1.9799 -1.69706,2.26274c-1.9799,0.28284 -2.26274,-1.69706 -2.26274,-1.69706l-0.05321,-0.37262c-0.32086,0.14736 -0.67975,0.28494 -1.07936,0.41087c-1.08873,0.34311 -1.9996,-1.06572 -2.99285,-1.66312l-0.00408,0.00612l-0.91746,-0.61164c-0.17012,0.06493 -0.34144,0.12076 -0.51337,0.16776c-0.32688,0.65962 -1.00703,1.11311 -1.7931,1.11311c-0.81473,0 -1.51567,-0.48716 -1.82743,-1.18608c-0.28324,0.12162 -1.59238,0.59787 -2.4238,-0.57607l-0.61661,0.41107c-0.32191,0.22145 -0.71189,0.35107 -1.13215,0.35107c-0.47292,0 -0.90751,-0.16415 -1.24989,-0.43857c-0.42051,0.18693 -0.96868,0.23202 -1.64453,-0.10591z" fill-opacity="0.94902" fill="#e6c1e4"></path><path d="M205.87776,251.80943c-0.0001,-0.00552 -0.00021,-0.01104 -0.00031,-0.01656c-0.46413,-0.3968 -1.06366,-1.19257 -0.4663,-2.3873c0.40417,-0.80833 0.99096,-1.06877 1.51281,-1.11142c-0.73364,-0.37164 -1.44452,-0.75257 -1.37949,-1.45012c0.37854,-4.06105 3.63048,-3.45527 5.98887,-3.54403c0,0 2,0 2,2c0,2 -2,2 -2,2c-0.03565,-0.0024 -0.07172,-0.0052 -0.10814,-0.00836l0.47133,1.19853c0.24025,0.36566 0.30063,0.77517 0.29915,1.0998c0.01473,0.30662 -0.0225,0.69147 -0.21611,1.05014c-0.17323,0.62896 -0.28026,1.29667 -0.51769,1.88804c0.63699,0.3345 1.07146,1.00244 1.07146,1.77185c0,0.47844 -0.168,0.91764 -0.44821,1.26183l-1.32338,1.65423l-0.37396,-0.29917l-0.47303,0.9177c-0.35007,-0.04474 -0.71646,-0.0463 -1.08537,-0.04119c-0.36263,0.50842 -0.95729,0.83993 -1.62938,0.83993c-1.10457,0 -2,-0.89543 -2,-2c0,-0.00222 0,-0.00444 0.00001,-0.00665c-2.82346,-2.32266 -1.12094,-3.53682 0.67774,-4.81725z" fill="#e5c1e4"></path><path d="M256.4307,246.00088c0.63246,1.89737 -1.26491,2.52982 -1.26491,2.52982l-0.07072,-0.31464c-0.58371,0.68594 -0.99431,1.56951 -1.75114,2.05783c-0.38528,0.24859 -1.18368,-0.45753 -1.37493,-0.04081c-0.19821,0.43188 0.77967,0.65802 0.87833,1.12285c0.38355,1.80707 -0.25223,6.00881 -2.6002,6.47902c-0.44802,0.08972 -0.87726,0.02838 -1.29514,-0.12427l-0.05112,0.15335l-1.95625,-0.65208c-0.81725,-0.25134 -1.4113,-1.01227 -1.4113,-1.91195c0,-0.68055 0.33991,-1.2817 0.85921,-1.64296l2.25985,-1.61418c-0.26732,-1.60327 -0.38798,-3.29843 -0.2214,-3.67594c0.59509,-1.34863 2.68103,-1.45211 3.5406,-2.64965l1.92928,-0.98131c0,0 1.89737,-0.63246 2.52982,1.26491z" fill="#e5c1e4"></path></g><g fill-opacity="0.23529" fill="#2f152f" stroke-width="0.5"><path d="M244.8863,243.01878l0.10272,0.10272l-2.33333,2.33333c-0.58813,0.58813 -1.40063,0.9519 -2.2981,0.9519c-1.79493,0 -3.25,-1.45507 -3.25,-3.25c0,-0.4802 0.10414,-0.93608 0.29108,-1.34627l0.96162,-2.24379c0.93677,-2.29264 2.12208,-4.5115 3.59695,-6.50097c2.44644,-4.50698 4.98459,-9.45934 6.65046,-14.27004c0.59766,-1.72594 0.26431,-3.647 0.53567,-5.45322c0.65832,-4.38197 1.31136,-9.35564 2.39077,-13.62519c0.98365,-3.89078 3.01701,-7.25055 3.97497,-11.22276c1.11727,-4.6328 1.18675,-9.80302 1.97603,-14.53872c0,0 0.17862,-1.07173 0.94898,-1.87257c0.00607,-0.42008 0.00844,-0.84003 0.00681,-1.2598c0,0 0,-3.25 3.25,-3.25c3.25,0 3.25,3.25 3.25,3.25c-0.01293,3.89677 -0.31689,7.79546 -0.73159,11.6838c0.04257,0.20988 0.06492,0.4271 0.06492,0.64954v6.5c0.601,1.12762 0.00115,2.55556 0,3.83333c-0.00298,3.30668 -0.41065,6.60095 -0.67484,9.89706c-0.11619,1.44967 -0.22513,2.89811 -0.32516,4.34643c0,3.4744 0,6.94879 0,10.42319c0,3.01435 0.472,6.77806 -0.50011,9.69441c-0.06667,0.2 -0.14017,0.40058 -0.22009,0.60134c-0.06275,2.37644 -0.12108,4.79564 0.20112,7.09788l1.70144,1.45838c0.70403,0.59616 1.15097,1.48655 1.15097,2.48133c0,0.72811 -0.23943,1.40029 -0.64385,1.94211c2.09372,-0.08824 4.21051,-0.57632 6.19559,0.144c0.04392,0.01594 0.08775,0.03207 0.1315,0.0484l0.00333,-0.03999l3.96937,0.33078c1.68321,0.12248 3.01074,1.52687 3.01074,3.24133c0,1.52603 -1.05176,2.8064 -2.46993,3.15578c-1.25594,1.69323 -3.54047,3.01949 -4.65066,3.96611c-2.78355,2.37343 -4.73084,5.95336 -7.80713,7.84639c0.95619,3.92727 -2.98083,7.37215 -7.09926,8.40435c0.84301,2.56137 0.96232,5.26845 1.59929,7.84989c0.63112,2.55775 1.96181,5.16799 2.88743,7.63632l0.15412,1.59475c0.03078,0.15668 0.03946,0.25216 0.03946,0.25216c0.02749,0.30895 0.06615,0.61767 0.10701,0.92633c0.96061,-0.88209 2.32301,-0.88209 2.32301,-0.88209h2c2.88217,0 5.78659,-0.09836 8.66667,0c1.41615,0.04837 3.09764,-0.58587 4.24372,0.24739c1.97634,1.43691 4.43219,3.51174 4.28097,5.95054c-0.30153,4.86309 -9.15389,3.6354 -11.85802,3.6354c-2.72351,0 -5.77962,0.4494 -8.46472,0.32705c-1.86932,-0.08518 -4.08961,0.43743 -5.56889,-0.70858c-1.84339,-1.42809 -2.00358,-6.75438 -2.20304,-8.90756c0,0 -0.00486,-0.05341 -0.00646,-0.14713c-0.00689,-0.09348 -0.00689,-0.14711 -0.00689,-0.14711l0.00727,0.00496c0.002,-0.09375 0.00774,-0.2067 0.02055,-0.33347c-0.99606,-2.5719 -2.26479,-5.24741 -2.93346,-7.89402c-0.63104,-2.49769 -0.6285,-5.19748 -1.55916,-7.64989c-0.86948,-2.2912 -1.72556,-2.78172 -2.05775,-4.64481c-0.36105,-0.50173 -0.66671,-1.03876 -0.903,-1.59447c-0.75581,-0.59509 -1.24113,-1.51835 -1.24113,-2.55496c0,-0.71837 0.23307,-1.3823 0.62772,-1.9203l0.23289,-0.32591c0.04797,-0.20891 0.0985,-0.41866 0.14797,-0.63235c-1.35299,-0.39293 -2.34192,-1.6417 -2.34192,-3.12144c0,-1.51005 1.02986,-2.77957 2.42552,-3.1445c0.0996,-1.2548 0.24879,-2.52843 0.94008,-3.53575c0.68541,-0.99875 2.32329,-0.83034 3.26895,-1.58732c0.72891,-0.58348 1.06171,-1.53615 1.59257,-2.30423l0.3887,-0.12253l-0.11309,-0.13571l1.89359,-1.57799c0.14743,-0.81775 0.53739,-1.36894 0.9961,-1.74045c0.13448,-0.12928 0.28591,-0.24952 0.45634,-0.35495c-0.49729,-0.58328 -0.94101,-1.27719 -1.47364,-1.77861c-0.44056,-0.41474 -0.97082,-0.77181 -1.47178,-1.1489v-0.00002c-0.30195,0.25424 -0.5807,0.53183 -0.82329,0.8449l-1.65078,1.98093c-0.59605,0.72562 -1.50028,1.18847 -2.51261,1.18847c-0.47357,0 -0.92349,-0.10129 -1.32926,-0.28339c-0.69468,0.4386 -1.41201,0.84606 -2.14202,1.22877z"></path><path d="M209.93832,287.92907c-0.05227,0.07621 -0.10696,0.1512 -0.16327,0.22538c-0.26496,2.0457 -0.57283,4.12107 -0.17146,6.06229l1.85618,2.12134c0.50686,0.5732 0.81449,1.32667 0.81449,2.15199c0,1.79493 -1.45507,3.25 -3.25,3.25c-0.42814,0 -0.83695,-0.08279 -1.21128,-0.23323l-1.10037,-0.41264c-5.06241,6.07844 -6.95926,0.35954 -9.00075,-4.30505c-0.60174,-1.37492 -2.54278,-4.62328 -2.59388,-6.0395c-0.08555,-2.37127 1.57311,-4.50752 2.76351,-6.56012c0.22788,-0.39293 0.39951,-0.84524 0.5447,-1.32894c-0.03858,-0.05465 -0.07488,-0.10997 -0.10903,-0.16569c-0.59895,-0.77402 -0.66225,-1.59003 -0.54244,-2.26523c0.0268,-3.39881 0.26401,-6.80157 2.22499,-9.76164c0.4964,-0.74931 1.45606,-1.12077 1.9266,-1.88658c1.1308,-1.84038 1.23238,-4.16397 2.19969,-6.09529c0.16196,-0.32337 0.33114,-0.64638 0.5076,-0.96775c0.10612,-0.29357 0.25333,-0.56749 0.43467,-0.8148l0.1975,-0.2765c0.0683,-0.11177 0.13752,-0.22315 0.20766,-0.33409c-4.63241,-0.98913 -5.34346,-4.11522 -4.59029,-8.30378c0.61345,-3.41154 6.15536,-8.31918 9.35417,-9.61462c-0.05447,-0.21141 -0.11964,-0.53766 -0.13074,-0.91861c-0.85984,-0.98278 -1.57811,-2.21741 -2.38143,-3.3933c-0.28383,-0.41546 -0.65087,-0.80274 -1.00575,-1.19483c-0.46653,0.43835 -0.93884,0.84757 -1.4118,1.2222c0,0 -2.6,1.95 -4.55,-0.65c-1.95,-2.6 0.65,-4.55 0.65,-4.55c2.33942,-1.59818 4.99614,-5.30387 5.86678,-8.09441c0.25801,-0.82695 0.04502,-1.75471 0.306,-2.58072c2.18956,-6.93003 5.77618,-13.55386 8.34084,-20.35779l0.61674,-2.48865c0,0 0.01093,-0.04373 0.03537,-0.1196c0.02012,-0.07713 0.03437,-0.1199 0.03437,-0.1199c3.28125,-9.83309 6.21278,-20.5244 11.92592,-29.24951l0.26039,-2.08309c0.17928,-1.62535 1.55712,-2.88966 3.23025,-2.88966c1.79493,0 3.25,1.45507 3.25,3.25c0,0.06966 -0.00219,0.1388 -0.00651,0.20737l-0.33183,5.97291l-0.1567,-0.00871c0.02793,0.18951 0.05333,0.37948 0.07598,0.56997c0.10777,0.90652 -0.80804,1.64887 -1.05219,2.52852c-1.081,3.89469 -1.62328,8.04627 -3.06395,11.85751c-1.33539,3.53273 -4.21267,6.71971 -5.31984,10.29617c-2.10646,6.8044 -3.36835,14.31203 -4.88681,21.2713c-0.99216,4.54717 -0.43384,9.09343 -1.26737,13.6573c0.00009,0.00827 0.00016,0.01642 0.0002,0.02447l0.00903,-0.04348c0,0 0,0.07477 -0.01134,0.20163c-0.00448,0.12729 -0.01376,0.20148 -0.01376,0.20148h0.00001c-0.14643,1.14793 -0.51669,4.47268 -1.0091,6.29693c0.01614,0.00625 0.03226,0.01259 0.04836,0.01902c0.77552,0.31002 0.80095,1.32204 0.75499,2.3893c0.8553,0.28254 1.7329,0.62425 2.6264,0.98022c0.24748,0.58123 0.62529,1.15926 1.02411,1.73677c1.31253,0.1486 2.63588,0.38214 3.77966,-0.17209c0.83772,-0.40592 1.27377,-1.51955 2.17538,-1.75121c0.0968,-0.02487 0.19383,-0.04832 0.29109,-0.07045l-0.03591,-0.07182l2.60819,-1.30409c0.45163,-0.23778 0.96606,-0.37235 1.51192,-0.37235c1.79493,0 3.25,1.45507 3.25,3.25c0,0.79918 -0.28846,1.53099 -0.76694,2.09699l-1.65301,1.98361l-0.15181,-0.12651l-0.13398,0.42798c-1.78224,1.2857 -4.14675,3.24859 -6.39749,3.76698c-0.29919,1.15748 -1.22014,2.06485 -2.38532,2.34458c-0.34875,0.3917 -0.79085,0.69846 -1.2914,0.88536l-2.89713,1.15885c-1.85645,1.62974 -3.66455,3.88785 -5.86532,5.28331c-0.76559,2.83141 -1.78742,6.0138 -3.30843,8.27168c-0.22169,0.32909 -0.49095,0.61907 -0.78018,0.89272c-0.26812,5.0734 1.06655,10.13091 -0.70494,15.12011z"></path><path d="M259.37079,91.63977c0.83118,-0.15869 1.5018,-0.84315 2.33333,-1c4.54906,-0.85806 9.87444,-0.17543 14.61485,-0.07762c1.89208,-1.1998 4.45931,-2.80988 6.15188,-2.64796c2.54204,0.24318 4.75438,1.86557 7.13157,2.79836c-0.38016,1.82524 -0.40738,3.7615 -1.14048,5.47573c-1.23412,2.88577 -3.74735,3.4912 -6.23748,4.83389c-7.03094,3.79111 -14.89498,6.36817 -23.09742,4.6686c-1.65998,-0.34395 -3.31478,-0.88826 -4.77593,-1.74781c-0.47902,-0.28179 -2.3115,-3.35029 -4.00099,-2.93711c-1.00813,0.24654 -2.12341,2.55925 -2.36109,2.78232c-0.98436,0.92386 -2.08189,1.77149 -3.30781,2.33682c-0.70772,0.32637 -1.667,-0.15986 -2.32353,0.26008c-0.27278,0.17448 -0.46221,0.41241 -0.60029,0.69056c0.34218,0.16199 0.68792,0.36054 1.03892,0.60525c0.86247,0.6013 0.56067,2.0999 1.24508,2.89802c0.36155,0.42162 1.12699,0.15589 1.60954,0.43088c3.04657,1.7362 5.7048,4.57131 9.43708,4.92129c4.071,0.38175 8.84803,0.49422 13.12201,0.18805c0.03924,-0.02122 0.07793,-0.04342 0.11601,-0.06675c0.81269,-0.49786 1.36687,-1.38245 2.22675,-1.79345c3.15065,-1.50595 5.11161,-0.76801 8.03247,-2.68293l0.35247,0.01664l-0.05462,-0.14564l2.59653,-0.9737c0.37434,-0.15044 0.78314,-0.23323 1.21128,-0.23323c1.24052,0 2.31871,0.69503 2.86641,1.71692c1.02189,0.5477 1.71692,1.62589 1.71692,2.86641c0,0.54586 -0.13457,1.06029 -0.37235,1.51192l-1.30409,2.60819l-0.03489,-0.01745l-0.00655,0.09754c-2.72246,4.74569 -5.2814,6.75146 -10.03127,9.27425c-8.99668,0.2798 -19.77231,-0.45661 -27.77996,-4.986c-0.85301,-0.48249 -1.74674,-0.90259 -2.54776,-1.46719c-1.44593,-1.01916 -3.45798,-3.42302 -5.59518,-4.64268c-0.03547,1.54907 -0.0238,3.0955 0.12456,4.55483c0.16137,0.25889 0.32145,0.51953 0.4803,0.78204c1.99425,0.76526 4.1913,1.33751 5.62531,2.05508c3.91614,1.95962 7.67001,4.26482 11.31588,6.7366l3.40163,0.61848c0.88433,0.1438 1.64888,0.64448 2.14105,1.34943v-0.05838h3.33333c1.79493,0 3.25,1.45507 3.25,3.25c0,1.26107 -0.71824,2.35438 -1.76796,2.89318l-4.27455,2.30168l-0.04192,-0.07786c-0.16237,0.1073 -0.32805,0.21019 -0.49742,0.30818c-0.31709,0.18346 -1.816,0.39982 -3.58168,0.59556c-0.05613,0.16983 -0.12589,0.33346 -0.20799,0.48959c2.54831,-0.30037 5.07156,-0.65703 7.40694,-1.78555h0.00001c7.07354,-3.41815 12.36239,-8.9449 18.22206,-14.15386c0,0 2.42908,-2.15918 4.58826,0.2699c2.15918,2.42908 -0.2699,4.58826 -0.2699,4.58826c-6.80369,6.04729 -13.82452,14.16043 -23.07001,16.39847c-3.66236,0.88654 -7.79578,0.4204 -11.39476,1.589c-3.52707,1.14525 -7.984,4.41251 -11.02765,6.47845c-1.3216,0.89706 -2.15193,2.75277 -3.72833,3.01028c-1.26696,0.20696 -2.25209,-1.23293 -3.37814,-1.8494c-3.32166,0.31062 -5.59533,0.64818 -7.73023,3.35805l-1.65078,1.98093c-0.52725,0.64186 -1.29563,1.07811 -2.16668,1.17027c-0.35967,1.10522 -0.82069,2.17823 -1.33069,3.23246c-0.76111,2.26236 -1.42119,4.5674 -2.4683,6.7079c-0.46399,0.94848 -1.23015,1.69737 -1.99559,2.4491c-0.70581,1.85662 -1.39321,3.76455 -2.43015,5.3825c-0.40483,0.63166 -0.89711,1.20045 -1.39116,1.76817c-1.12379,1.99663 -2.48789,3.87506 -3.45481,5.94264c-1.88892,4.0391 -2.84915,8.30662 -5.11373,12.22003c-3.31907,5.73566 -8.05662,10.76814 -10.47727,16.93908c0,0 -1.20702,3.01755 -4.22457,1.81053c-3.01755,-1.20702 -1.81053,-4.22457 -1.81053,-4.22457c0.49034,-1.20681 1.05341,-2.36978 1.6677,-3.50236c-1.12115,-0.51258 -1.90015,-1.64396 -1.90015,-2.95729c0,-0.54586 0.13457,-1.06029 0.37235,-1.51192l1.27236,-2.54472c3.0807,-7.14694 9.03049,-11.55181 12.77714,-18.21129c0.888,-1.57838 1.74061,-3.15559 2.57816,-4.72604c0,-0.00201 -0.00001,-0.00402 -0.00001,-0.00602c0,-0.15406 0.01072,-0.30562 0.03145,-0.45397l0.32337,-2.58696c0.29704,-2.9063 0.40591,-5.84553 1.73369,-8.56034c0.48332,-0.9882 1.60963,-1.51639 2.26648,-2.39882c0.50445,-0.67769 1.03542,-1.35851 1.58251,-2.04252c1.4228,-2.44401 2.79517,-4.92084 4.38971,-7.25471c0.30899,-0.45225 0.66816,-0.87007 1.04417,-1.27581c0.02995,-0.15979 0.07235,-0.31641 0.13334,-0.46836c0.64288,-1.6016 1.72909,-2.98777 2.55303,-4.50419c0.48483,-2.14974 1.116,-4.32701 1.79874,-6.21546c0.31684,-0.87638 0.73492,-1.70612 1.21145,-2.5077c0.22958,-0.85367 0.48997,-1.70257 0.8072,-2.54313c0.47863,-1.26823 1.51189,-2.26524 2.06861,-3.50118c1.60549,-3.56427 1.92531,-5.72307 4.55182,-8.84426l0.59858,-0.11529l-0.12329,-0.21575l1.28833,-0.73619l-1.04971,-0.90975l0.09973,-0.11508l-0.57967,-0.41405c-0.40067,-0.27873 -0.73562,-0.64533 -0.97693,-1.0719c-1.37802,-1.42713 -2.43977,-3.14585 -2.95289,-5.3441c-0.37918,-1.62442 -0.82342,-3.41806 -0.2832,-4.99625c0.1645,-0.48058 0.40797,-0.9425 0.71524,-1.38151c-3.38111,-3.8034 -0.52977,-8.09324 3.47484,-9.41364c1.30524,-0.43037 2.64191,0.76896 3.98752,1.04862c0.00909,0.00189 0.01818,0.00377 0.02726,0.00563c0.73533,-1.65136 1.25767,-3.41649 2.86185,-4.74499c0.98325,-0.81427 2.49569,-0.5879 3.67647,-1.07325c1.27029,-0.52215 1.9494,-1.3467 2.55207,-2.20831c-0.05809,-0.05288 -0.11419,-0.10852 -0.16811,-0.16717c-1.78087,-1.93742 -2.33461,-5.44643 -2.89962,-7.95125l0.26203,-1.23572c-0.00609,-0.08659 -0.00609,-0.13597 -0.00609,-0.13597c0,-0.88889 0,-1.77778 0,-2.66667l0.97079,-2.49613c0.07522,-0.64511 0.38538,-1.33755 1.14714,-1.9626c0.43823,-0.41462 1.06234,-0.80923 1.87235,-0.85141c0.80667,-0.08466 1.48469,0.20777 1.98222,0.54898c0.68787,0.40352 1.09043,0.89678 1.31167,1.40179c1.35786,1.74282 3.18331,3.11275 4.94739,4.45l1.25866,1.78925c0,0 0.72191,1.44382 0.13063,2.80513c1.22892,0.34538 2.58245,0.39734 3.97568,0.13135zM239.28561,152.24998c-0.2253,-0.04805 -0.45195,-0.09649 -0.67876,-0.14369c0.06534,0.44674 0.1393,0.87738 0.47898,0.81182c0.26091,-0.05036 0.24535,-0.33795 0.19978,-0.66813z"></path><path d="M297.60561,190.95912l0.30093,2.70838c1.59449,7.24509 1.03436,14.77681 1.03436,22.1559c-0.00365,0.65925 -0.05724,1.32501 -0.1396,1.99435c0.17729,1.60071 0.47212,3.1596 0.97282,4.64458c0.23817,0.70638 0.86982,1.22545 1.15936,1.91237c0.17124,0.40626 -0.16394,1.05592 0.19795,1.30773c2.01931,1.40508 8.16504,-3.13002 5.76096,5.36704c-0.92232,3.25988 -7.96384,5.06429 -10.91333,3.7171c-1.35217,-0.61761 -2.22734,-2.01293 -3.05918,-3.24494c-3.25381,-4.81912 -0.4438,-10.49309 -0.47898,-15.69822c0,-0.03015 0.00001,-0.06031 0.00003,-0.09047v-0.00001c-0.13093,-2.36834 -0.16195,-4.76417 -0.32866,-7.13271c-0.27003,-0.60126 -0.32191,-1.1201 -0.32191,-1.1201l-0.27758,-2.97697c-0.87874,-2.68096 -1.41439,-5.52514 -1.40521,-8.34642c0.00159,-0.49026 -0.09349,-1.00932 -0.15197,-1.51886c-0.65514,-1.22013 -1.04188,-2.77764 -1.35919,-4.22726c0.00072,-4.72647 0.05726,-9.45102 0.34919,-14.15322c0.06807,-1.09645 0.54967,-3.14477 0.59147,-4.26893c0.01068,-0.28729 -0.44888,-0.87976 -0.16328,-0.84688c1.03466,0.1191 1.14876,1.75003 1.56196,2.70605c1.50565,3.48365 2.54222,7.07081 4.18101,10.53127c0.74022,1.56165 1.66745,3.14778 2.58221,4.7657c-0.01061,0.60207 -0.04545,1.2092 -0.09336,1.81452z"></path><path d="M267.22874,68.85366c-2.03026,2.53782 -4.56808,0.50756 -4.56808,0.50756l-1.52543,-1.22652c-0.77778,-0.55556 -1.55556,-1.11111 -2.33333,-1.66667c0,0 -2.64463,-1.88902 -0.75561,-4.53366c1.88902,-2.64463 4.53366,-0.75561 4.53366,-0.75561c0.77778,0.55556 1.55556,1.11111 2.33333,1.66667l1.8079,1.44014c0,0 2.53782,2.03026 0.50756,4.56808z"></path><path d="M278.58711,63.45675c-0.09501,-0.30537 -0.14619,-0.63005 -0.14619,-0.96669c0,-1.79493 1.45507,-3.25 3.25,-3.25c1.79493,0 3.25,1.45507 3.25,3.25c0,0.62318 -0.1754,1.2054 -0.47952,1.69998c0.09501,0.30537 0.14619,0.63005 0.14619,0.96669c0,1.79493 -1.45507,3.25 -3.25,3.25c-0.96356,0 -1.82919,-0.41933 -2.42434,-1.08545c-0.02656,0.26761 -0.08245,0.50945 -0.1608,0.72792c0.96855,2.3135 -1.27875,3.81169 -1.27875,3.81169l-5.41523,1.45096c-1.30642,-1.19274 -3.79916,-1.8133 -3.91927,-3.57822c-0.38978,-5.72766 3.89521,-5.53756 7.12861,-6.13514c0,0 1.78885,-0.22361 2.86849,0.99456c0.07176,-0.41039 0.22051,-0.7943 0.43081,-1.1363z"></path><path d="M223.56934,107.64303c-0.30271,-0.07568 -0.56908,-0.17315 -0.80332,-0.28754c-1.41008,4.61562 -3.36442,8.87268 -6.44367,13.09934c-1.74349,1.27019 -3.69199,2.23346 -5.50037,3.40943c-2.01609,1.31104 -2.0667,2.19593 -3.84898,3.93981c-1.49486,1.46265 -3.46673,2.34199 -5.24012,3.45062c-0.42535,0.2659 -0.78448,0.51355 -1.09946,0.74572c-0.48688,0.74766 -0.99646,1.47565 -1.62434,2.10085c-3.13415,3.12079 -7.55081,5.70683 -11.10772,8.37525c-1.53019,1.01596 -3.00163,2.12562 -4.41009,3.30737c0.87391,0.58255 1.44964,1.57713 1.44964,2.70619c0,1.79493 -1.45507,3.25 -3.25,3.25h-3.33333v-0.45278c-0.98992,0.33357 -1.99458,0.64458 -3.15007,1.01576c-0.86158,0.58392 -1.71597,1.18578 -2.55581,1.83492l-0.93605,-0.1166l0.04503,0.36027l-2.61581,0.32698c-0.14835,0.02073 -0.29991,0.03145 -0.45397,0.03145c-1.79493,0 -3.25,-1.45507 -3.25,-3.25c0,-0.59401 0.15936,-1.1508 0.43766,-1.62995l1.638,-2.94839l0.06676,0.03709c0.05686,-0.1397 0.11663,-0.27837 0.17961,-0.41589c1.09372,-2.38786 5.52,-4.79207 7.45449,-6.48874l0.1997,-0.05114c0.55703,-0.53639 1.11374,-1.02255 1.66499,-1.44221c0.58926,-0.4486 1.27377,-0.75167 1.97027,-1.03485c0.29085,-0.73018 0.52491,-1.32602 0.62097,-1.56628c0,0 1.19336,-2.98341 4.17339,-1.83066c1.2309,-1.29478 2.4404,-2.61942 3.99049,-3.63185c1.06267,-0.69408 2.13681,-1.44116 3.35283,-1.80492c0.87956,-0.26312 1.8565,0.17069 2.75414,-0.02194c0.5287,-0.11345 1.10299,-0.35401 1.69657,-0.6699c0.90469,-1.29364 1.67085,-2.70723 2.7789,-3.82503c5.74107,-5.7916 11.95021,-11.80422 15.30428,-19.33523c1.32574,-2.97673 3.35897,-5.06167 4.57398,-8.10709c-4.67565,-2.46341 -4.41912,-11.00285 -0.47639,-14.26553c0.14064,-0.11638 0.28424,-0.22829 0.43051,-0.3362l-0.05367,-0.06038l0.43599,-0.38754c-0.64105,-0.52446 -1.07805,-1.28901 -1.17372,-2.15637l-0.32799,-2.62389l0.15323,-0.01915l-0.17786,-0.32921c0.40908,-1.94389 0.50052,-4.0738 1.0989,-5.61805c-0.67419,-0.5955 -1.09937,-1.46645 -1.09937,-2.4367c0,-1.54668 1.08042,-2.84101 2.52771,-3.16945l2.21113,-0.55278c0.17417,-0.22944 0.33041,-0.4729 0.46459,-0.73353c1.37182,-2.66458 2.07057,-5.72409 3.49979,-8.38338c1.17381,-2.18406 2.72451,-4.0502 4.12995,-6.05389c-0.83403,-0.58837 -1.58484,-1.27092 -2.10166,-2.21491c-1.1978,-2.18783 -0.92598,-5.51365 -0.59315,-8.22621l-0.40858,-1.3618c0,0 -0.63738,-3.18689 2.54951,-3.82426c1.6511,-0.33022 2.61786,0.36606 3.1662,1.11384c1.40775,0.87714 1.40005,2.58584 1.37204,3.03339c3.03814,3.65357 8.58916,8.79794 7.00952,13.24161c-0.02319,0.06524 -0.04721,0.13007 -0.07203,0.19451l0.05322,0.00665l-0.32799,2.62389c-0.17928,1.62535 -1.55712,2.88966 -3.23025,2.88966c-0.22759,0 -0.44972,-0.02339 -0.66412,-0.06791c-0.75713,9.23185 -1.7016,18.55649 -3.48807,27.48334c-0.99633,4.97857 -0.32511,10.78637 -2.61668,15.47271c-0.36001,0.73624 -0.83118,1.40983 -1.31469,2.07645c-0.05848,0.5125 -0.25142,1.05726 -0.69411,1.5478c-0.20998,0.28254 -0.48345,0.54429 -0.83963,0.74687c-0.04915,0.09157 -0.09671,0.18404 -0.14248,0.27752l-0.08726,0.66813c0,0 -0.78824,3.15296 -3.9412,2.36472zM226.10048,69.79325c0.03018,0.16121 0.05913,0.32254 0.08651,0.48322c0.06046,0.06608 0.11678,0.13646 0.16939,0.21066c0.04924,-0.37917 0.09965,-0.759 0.15142,-1.13927c-0.13035,0.15672 -0.26574,0.30644 -0.40732,0.44539z"></path></g><g fill-opacity="0.23529" fill="#2f152f" stroke-width="0.5"><path d="M223.54443,256.89412c-3.68805,2.25837 -8.32804,3.56959 -12.02561,3.32823c-2.05723,-0.13428 -4.3526,-0.53073 -5.88119,-1.91408c-4.01861,-3.63678 0.1157,-12.61059 3.07942,-15.4881c0.14016,-0.13609 0.28142,-0.27955 0.42416,-0.42714c-0.65145,-0.32477 -1.21611,-0.736 -1.63932,-1.22451c-3.40638,-3.93194 -1.07045,-6.38435 0.86548,-9.87265c0.45803,-0.82531 0.85564,-1.51848 1.20972,-2.14978c0.10328,-1.47569 0.32637,-2.97348 0.61172,-4.40485c-0.01133,-0.45757 0.0486,-0.89262 0.27399,-1.27625c0.41992,-1.82816 0.91826,-3.49359 1.36216,-4.79192c1.33768,-3.91246 3.23271,-10.08423 6.26769,-13.51421c1.16977,-4.17674 2.2573,-8.38039 3.43039,-12.56962c1.33646,-4.77266 2.91287,-9.44379 3.94911,-14.29522c0,0 0.68097,-3.17786 3.85883,-2.49689c3.17786,0.68097 2.49689,3.85883 2.49689,3.85883c-1.07239,4.98945 -2.67636,9.79529 -4.05089,14.70478c-0.54895,1.96071 -1.08065,3.92376 -1.61104,5.88543c0.89318,0.5792 1.48407,1.58501 1.48407,2.72883c0,0.38598 -0.06729,0.75625 -0.19077,1.09971l-1.22601,3.67803l-0.04304,-0.01435l0.00346,0.12624c-2.18678,5.2388 -4.89073,10.2329 -7.00551,15.51592c-0.14684,0.43601 -0.39544,0.92135 -0.81634,1.31496c-0.36741,1.50804 -0.68195,3.03259 -1.2063,4.49165c-0.09618,0.26764 -0.21218,0.52666 -0.34073,0.78009c-0.07086,0.59238 -0.14089,1.23493 -0.17976,1.93802l0.005,1.31972c0,0 0,0.21128 -0.05387,0.5261c0.41447,0.71337 0.97549,1.36806 1.12796,2.16916c0.33544,1.76249 1.21332,3.96317 0.11416,5.38117c-0.03392,0.04376 -0.06872,0.08673 -0.10437,0.12893c0.53261,0.57111 0.85427,1.25385 1.01454,2.0031c2.32045,-0.10819 4.65531,0.0364 6.81659,0.86031c1.29581,0.49398 3.02308,0.75675 4.26035,1.42965c0.13534,-0.10948 2.54977,-2.00491 4.57136,0.42099c2.0806,2.49672 -0.41612,4.57732 -0.41612,4.57732c-3.32983,2.75965 -6.7461,4.83097 -10.43617,6.1724z"></path><path d="M263.51067,260.02933c-3.21122,1.16648 -6.23886,2.36397 -9.70823,2.42066c-1.79274,0.02929 -4.13118,1.14584 -5.37702,-0.14361c-1.44196,-1.49244 -2.10164,-2.78772 -2.20236,-3.91817c-0.65892,-0.59479 -1.07305,-1.45564 -1.07305,-2.41321c0,-0.59401 0.15936,-1.1508 0.43766,-1.62995l1.22133,-2.19839l0.21732,0.12073l0.09562,-0.58479c0.92286,-0.83215 1.52493,-1.52255 2.02047,-1.99665c0.16097,-0.57125 0.36008,-1.13044 0.60539,-1.67374l0.11351,-0.08649l-0.05232,-0.02907l1.21847,-2.19325c0.54576,-1.02817 1.62737,-1.72841 2.87254,-1.72841c0.55849,0 1.08408,0.14087 1.54317,0.38902c0.914,-0.88204 1.43412,-2.15682 2.439,-2.93674c0.30785,-0.23893 0.62264,-0.4506 0.94363,-0.63765c0.13005,-0.2906 0.31706,-0.58948 0.57481,-0.89292c-2.04128,0.52129 -4.6252,-0.25135 -6.79365,0.43421c-0.95315,0.30134 -1.78504,0.90045 -2.67756,1.35067l-1.03018,-0.45231l-0.0806,0.4433l-2.69425,-0.48986c-1.54498,-0.25123 -2.72438,-1.59174 -2.72438,-3.20771c0,-0.95783 0.41435,-1.81888 1.07358,-2.41368l2.74023,-2.49112l0.02097,0.02307c0.03145,-0.04126 0.06305,-0.08241 0.09482,-0.12345c0.81907,-1.05807 2.38877,-1.56818 2.85406,-2.82273c1.95879,-5.28138 1.02257,-11.23865 2.60107,-16.59816c0.34222,-1.16196 0.77376,-2.30451 1.21006,-3.44821c0.43424,-2.117 0.86703,-4.24453 1.20011,-6.41406c0.70439,-4.58813 1.04872,-9.37583 1.46845,-14.0059c0,0 0.14885,-1.63733 1.39935,-2.47703c0.05837,-1.25626 0.08854,-2.50162 0.0873,-3.72873v-0.17819c-0.14563,-0.72815 -0.29126,-1.45629 -0.43689,-2.18444l-0.21608,-0.84914c0,0 -0.78824,-3.15296 2.36472,-3.9412c3.15296,-0.78824 3.9412,2.36472 3.9412,2.36472l0.28392,1.15086c0.16667,0.83333 0.33333,1.66667 0.5,2.5c0,0 0.02399,0.11993 0.03939,0.31791c0.02373,0.19716 0.02373,0.31946 0.02373,0.31946v0.5c-0.00814,8.92076 -1.60909,17.53092 -3.91947,26.02146c-0.96933,4.70957 -2.077,9.33604 -2.08053,14.22854c-0.00112,1.5516 -0.57016,3.23645 0.05977,4.65442c1.03666,2.33352 4.50452,4.26691 3.90723,7.30752c-0.27321,1.39081 -0.70887,2.34977 -1.26135,3.008c1.30391,-0.20733 2.40718,0.6098 2.65264,0.80841c3.09765,-0.05497 6.37835,0.72166 9.39171,0.72166l3.7225,1.74401c0,0 0.36332,0.22707 0.74368,0.64824c0.46298,0.31259 0.91941,0.77831 1.14905,1.4614c0.30301,0.75664 0.20489,1.48959 0.00849,2.06309c-0.20264,0.77576 -0.57409,1.29733 -1.00616,1.64585c-2.46298,3.24899 -4.44087,8.09171 -8.33901,9.67536l0.00002,0.00001c-1.47843,0.60062 -2.8285,0.71322 -4.15643,0.65377c-0.51903,1.36991 -2.01145,1.91261 -2.01145,1.91261zM269.76301,248.17676c0.04894,-0.07557 0.09804,-0.15104 0.14729,-0.22643c-0.06839,-0.00164 -0.13651,-0.00344 -0.20434,-0.00539c0.02022,0.07688 0.03923,0.15418 0.05705,0.23182z"></path><path d="M302.65,227.725c0,3.25 -3.25,3.25 -3.25,3.25l-1.43388,-0.13706c-1.3579,-0.59848 -3.13529,-0.64589 -4.07369,-1.79543c-2.42534,-2.97104 -0.58104,-9.88371 -0.96367,-13.38612c-0.26325,-2.40972 -1.40761,-4.65797 -1.75709,-7.0567c-0.24864,-1.70662 0.2916,-3.47246 0.00974,-5.17391c-0.45362,-2.73829 -1.41784,-5.56108 -1.9683,-8.3134c0,0 -0.63738,-3.18689 2.54951,-3.82426c3.18689,-0.63738 3.82426,2.54951 3.82426,2.54951c0.57072,2.85362 1.59024,5.84909 2.0317,8.6866c0.27293,1.75426 -0.25578,3.57069 0.00974,5.32609c0.35689,2.3594 1.47596,4.57205 1.74291,6.9433c0.03252,0.28886 0.02968,5.76133 0.02876,6.93138c-0.00068,0.8627 0.12788,1.73555 -0.00403,2.58811c-0.03921,0.25342 -0.70018,0.44981 -0.48839,0.59439c0.26767,0.18273 0.61754,-0.19696 0.92631,-0.29543l-0.43388,-0.13706c0,0 3.25,0 3.25,3.25z"></path><path d="M256.22819,119.20703c1.16274,-0.9982 2.80919,-0.66892 2.80919,-0.66892l2.69679,0.54576c3.87487,1.34588 7.48736,1.0427 11.14261,0.17992l2.42623,-2.02186c0.566,-0.47848 1.29781,-0.76694 2.09699,-0.76694c1.79493,0 3.25,1.45507 3.25,3.25c0,0.70775 -0.22623,1.36266 -0.61033,1.89637l-1.72717,2.46739l-0.00204,-0.00143c-0.72406,1.09617 -1.12785,2.54685 -2.2623,3.18876c-1.38754,0.78511 -5.37632,0.42967 -7.10975,0.16597c-4.29564,-0.65346 -8.53603,-1.19382 -12.86469,-1.73347c-1.32807,-0.13716 -2.7207,0.01997 -3.9842,-0.41147c-2.9618,-1.01135 -3.32264,-2.48771 -5.49999,-4.30875c-2.014,-1.68442 -4.4317,-2.83264 -6.62071,-4.23197c-1.07141,-0.6849 -2.26661,-1.26679 -3.09256,-2.23365c-1.58846,-1.85946 -0.73459,-5.12176 -3.53226,-2.90007c-0.80568,0.63981 -0.95604,4.33585 -0.65167,5.20921c0.05745,0.16483 0.1614,0.29801 0.28933,0.41538c2.90283,-0.45963 3.58511,2.49694 3.58511,2.49694c0.4635,2.08163 1.10061,3.4806 1.96401,4.65968c0.93211,0.79047 1.86432,1.62947 2.48126,2.59779c0.67506,0.60367 1.42798,1.24919 2.26703,2.00916l0.08118,0.30064l0.10514,-0.08178l0.15899,0.20442c2.63824,0.09362 5.25954,0.20487 7.94017,0.56744c2.75579,0.37273 6.55292,0.76588 7.60282,4.26599c0.63156,2.10547 0.56341,3.69368 0.02193,4.88179c0.83989,0.65004 1.51098,1.39356 1.8993,2.24341c0.09088,-0.02424 0.18192,-0.04783 0.27316,-0.07071l0.50027,-0.03156c4.0171,-2.49675 8.11357,-4.72874 12.3925,-6.75064c0.58436,-0.27613 1.21599,-0.45636 1.84754,-0.63368c1.40206,-1.03256 2.8249,-2.02893 4.30258,-2.92652l-0.05274,-0.05274l3.75,-3.75c0.58813,-0.58813 1.40063,-0.9519 2.2981,-0.9519c1.79493,0 3.25,1.45507 3.25,3.25c0,0.89746 -0.36377,1.70996 -0.9519,2.2981l-2.01182,2.01182c-1.4162,1.41807 -2.51699,3.19189 -4.15788,4.34228c-0.41172,0.28864 -1.44611,0.70647 -2.5333,1.12282c-1.3258,0.84419 -2.65607,1.65248 -3.76171,2.40849c-6.22105,4.2538 -12.06428,8.45921 -19.74712,9.76318c-1.97608,0.33539 -3.96199,0.5434 -5.94665,0.75573c-2.2868,2.52391 -5.90939,4.79861 -9.27501,5.48894c-4.21507,0.86456 -8.28409,-0.35936 -12.203,0.98946c-0.35034,0.14628 -0.70177,0.28993 -1.05457,0.43015c-0.54775,0.26034 -1.09252,0.57995 -1.6343,0.97182c-1.52056,1.09985 -2.38401,2.89487 -3.48169,4.42403c0.00594,0.08028 0.00896,0.16137 0.00896,0.24317c0,0.11302 -0.00577,0.22469 -0.01703,0.33474l-0.24632,2.7095l-0.28445,-0.02586c0.0493,0.23576 0.09859,0.47151 0.14789,0.70727l-0.50603,0.50667l0.22773,0.13013l-1.9687,3.44522c-0.54744,1.00058 -1.6059,1.68165 -2.82437,1.6922c-0.96485,3.01526 -1.73678,6.13284 -3.10202,8.91325c-1.52051,3.09664 -3.28365,6.53416 -5.22969,9.40033c-1.18826,1.75009 -2.83848,3.20517 -3.7721,5.10337c-1.13836,2.31446 -1.87974,5.02501 -2.96013,7.41455c-1.64809,3.64513 -4.05825,6.7526 -5.41045,10.52928c0,0 -1.11066,3.05433 -4.16499,1.94366c-3.05433,-1.11066 -1.94366,-4.16499 -1.94366,-4.16499c1.44943,-3.93615 3.88868,-7.17124 5.58955,-10.97072c1.08778,-2.42993 1.85529,-5.24497 3.03987,-7.58545c0.74638,-1.47469 3.3063,-4.55132 4.2279,-5.89663c1.80074,-2.62865 3.32594,-5.7737 4.77031,-8.59967c1.75356,-3.43091 2.45252,-7.65231 3.90915,-11.29389l1,-2.5c0,0 0.3176,-0.794 1.03426,-1.4045c0.43269,-0.49635 0.97493,-0.96635 1.31037,-1.48726c0.60327,-0.93681 1.13579,-1.92191 1.79824,-2.81786c0.05315,-0.07189 0.10645,-0.14353 0.1599,-0.21494c-0.4894,-0.5689 -0.78521,-1.30911 -0.78521,-2.11842c0,-0.4802 0.10414,-0.93608 0.29108,-1.34627l2.2217,-5.18396l0.02597,0.01113c0.01428,-0.05405 0.02872,-0.10807 0.04333,-0.16205c0.55337,-2.04539 2.5942,-3.76643 3.72197,-5.38386c1.97412,-2.83127 1.98117,-6.33693 3.51672,-9.34284c0.77423,-1.5156 1.96584,-2.78913 2.76929,-4.28944c0.9897,-1.84813 1.05876,-4.24004 2.46475,-5.79023c-0.0088,-0.01668 -0.01753,-0.03335 -0.0262,-0.05001c-0.38578,-0.25003 -0.75491,-0.51504 -1.02379,-0.88002c-0.9501,-1.28971 -1.35977,-2.909 -2.20312,-4.27091c-0.59526,-0.96127 -1.74363,-1.59342 -2.09402,-2.66841c-1.80961,-5.55184 0.18253,-13.05674 6.4893,-14.54234c4.29281,-1.0112 5.64343,0.41365 8.06765,3.6906c0.45404,0.61376 0.30493,1.54723 0.75912,2.16088c0.95684,1.29278 2.87468,1.45432 4.23396,2.31407c3.53559,2.23625 5.95428,6.04012 10.07049,6.46571z"></path><path d="M257.97025,93.29688c5.14363,-1.13074 9.88671,0.72039 14.92975,0.67812c0,0 3.25,0 3.25,3.25c0,2.93762 -2.65526,3.21997 -3.1657,3.24711c-5.71228,1.13632 -13.53614,2.7358 -19.31713,0.19149c-0.41081,0.03659 -0.83206,0.0587 -1.26718,0.0614c-1.5291,0.00948 -6.8225,0.15864 -7.65967,-0.82135c-1.4461,-1.69282 -1.05651,-4.32563 -1.58476,-6.48845l-0.00557,-2.94019c0,0 0,-0.72893 0.34521,-1.49636c-0.05155,-0.13563 -0.0949,-0.2494 -0.12858,-0.33696c0,0 -1.16668,-3.03337 1.86669,-4.20006c2.23256,-0.85868 3.45394,0.55779 3.94323,1.36554c0.23826,0.23568 0.4182,0.50084 0.5541,0.76692c1.68934,0.93201 3.46473,1.98183 4.56532,3.51378c0.62747,0.8734 0.27906,2.22384 0.90872,3.09566c0.29152,0.40364 0.9964,0.08715 1.47886,0.21021c0.13271,0.03385 0.26536,0.06929 0.39799,0.10585c0.29659,-0.06912 0.59279,-0.13763 0.88871,-0.20269z"></path><path d="M276.6981,65.1769c1.04406,1.04406 1.13946,2.08813 0.93267,2.91669c0.42144,2.96532 -2.59339,3.56829 -2.59339,3.56829l-2.43419,0.48684c-0.22644,0.04994 -0.46173,0.07627 -0.70318,0.07627c-1.79493,0 -3.25,-1.45507 -3.25,-3.25c0,-1.24516 0.70024,-2.32678 1.72841,-2.87254l1.81105,-1.00614c0.44061,-0.38689 2.47463,-1.95344 4.50864,0.08058z"></path><path d="M238.82908,51.88418c-2.15918,2.42908 -4.58826,0.2699 -4.58826,0.2699l-2.62684,-2.39658c-1.04284,-1.8138 -2.06526,-3.63949 -3.06714,-5.47624c0,0 -1.55627,-2.85316 1.29689,-4.40943c2.85316,-1.55627 4.40943,1.29689 4.40943,1.29689c0.81986,1.5031 1.63574,3.00849 2.43286,4.52376l1.87316,1.60342c0,0 2.42908,2.15918 0.2699,4.58826z"></path><path d="M201.04487,299.33961c-0.88206,-0.45482 -1.16576,-1.43988 -1.35148,-2.51175c-1.44185,-1.98973 -2.32409,-4.04825 -3.15632,-6.79398c0,0 -0.93388,-3.11294 2.17905,-4.04682c0.28044,-0.08413 0.5432,-0.13542 0.78918,-0.1591c0.55228,-0.51146 1.37797,-0.87049 2.60432,-0.6953c3.21734,0.45962 2.75772,3.67696 2.75772,3.67696l-0.15846,0.25311c0.32097,0.32398 0.57422,0.71515 0.73679,1.15054l0.97188,2.42971l-0.28071,0.11229c0.15151,0.16004 0.30302,0.32009 0.45452,0.48013l-0.25305,0.6146h0.31169v0.80991l1.02159,0.56755c1.02817,0.54576 1.72841,1.62737 1.72841,2.87254c0,1.79493 -1.45507,3.25 -3.25,3.25c-0.41679,0 -0.81525,-0.07846 -1.18143,-0.2214l-2.67923,-0.97427l0.1292,-0.35529c-0.47439,-0.0871 -0.93413,-0.23279 -1.37366,-0.45943z"></path><path d="M278.65,292.85c0,3.25 -3.25,3.25 -3.25,3.25l-0.60716,-0.12505c-5.10825,1.41716 -9.03319,1.24874 -13.96281,-0.31114c-1.46897,-0.15324 -2.94869,-0.35577 -4.46433,-0.60804c0,0 -3.20578,-0.5343 -2.67148,-3.74008c0.03699,-0.22196 0.08679,-0.42598 0.14745,-0.6135c-0.12405,-0.34416 -0.19167,-0.71529 -0.19167,-1.1022c0,-1.79493 1.45507,-3.25 3.25,-3.25c0.63073,0 1.2195,0.17967 1.71792,0.49063l1.85895,1.11537c1.00958,-0.05729 4.27303,-0.24152 4.52981,-0.29169c1.25256,-0.24472 2.45617,-1.43318 3.67789,-1.06412c0.34071,0.10292 0.67086,0.22909 0.99259,0.37378l0.06594,-0.18463l3.42874,1.22455c0.81402,0.26939 1.48547,0.85185 1.87169,1.60474l0.35647,-0.01863c0,0 3.25,0 3.25,3.25z"></path><path d="M177.45,150.13333c0,3.25 -3.25,3.25 -3.25,3.25l-1.00183,-0.22105c-0.18905,0.22054 -0.40874,0.40667 -0.6749,0.54062c-3.7733,1.89896 -11.38737,3.4597 -9.73815,-4.93566c0.57062,-2.90473 4.632,-3.78631 7.44699,-3.63168l0.32087,-0.55458c2.59521,-2.97742 4.67141,-5.06529 8.20146,-6.83425c3.01773,-2.54177 5.28352,-5.60515 8.73692,-7.71134c1.89316,-1.15462 4.14002,-1.62797 6.07475,-2.71149c1.70125,-0.95276 2.84289,-2.68391 4.41485,-3.83757c3.64951,-2.67837 7.48761,-5.29283 10.30289,-8.99238c2.87248,-3.77471 3.92328,-8.16838 5.53973,-12.50176c0,0 1.14115,-3.04307 4.18422,-1.90192c3.04307,1.14115 1.90192,4.18422 1.90192,4.18422c-1.85264,4.91086 -3.15819,9.90492 -6.46027,14.16491c-3.23405,4.17222 -7.53509,7.29152 -11.69711,10.34095c-1.33109,0.97526 -3.46182,3.31837 -4.91848,4.16243c-1.86874,1.08284 -4.08361,1.49353 -5.92525,2.62184c-3.32899,2.03956 -5.6282,5.16437 -8.59641,7.62199c-2.6189,1.30649 -4.04625,2.49368 -5.87413,4.50396c0.56361,0.47695 1.01191,1.2357 1.01191,2.44276z"></path></g><path d="M230.64977,43.27173c1.58683,-0.9521 2.81224,-0.45853 3.57335,0.14306c1.32282,0.13349 2.23301,1.19539 2.23301,1.19539c0.67154,0.78351 1.34308,1.56701 2.01463,2.35052l0.00604,0.02434l0.00846,-0.00705l1.65301,1.98361c0.47848,0.566 0.76694,1.29781 0.76694,2.09699c0,1.79493 -1.45507,3.25 -3.25,3.25c-0.71814,0 -1.38189,-0.23292 -1.9198,-0.62735l-2.30256,-1.64469l0.25851,-0.36191c-0.88453,-0.37207 -1.71394,-0.84024 -2.45009,-1.45267l-1.70625,-2.49127c0,0 -1.67211,-2.78685 1.11474,-4.45896z" fill-opacity="0.09804" fill="#e3a3e3" stroke-width="0.5"></path><path d="M219.7754,165.7198c1.67211,2.78685 -1.11474,4.45896 -1.11474,4.45896l-0.35156,-0.50661c-1.77236,4.13552 -3.5624,8.14983 -5.36221,12.20674c0.40239,1.82164 0.17271,3.73091 -1.11576,5.75518c-1.06188,1.66829 -2.05336,2.6994 -2.9791,3.24649c-0.69043,1.384 -1.4118,2.73771 -2.10385,3.89466c-0.39821,0.66571 -1.21703,1.04437 -1.5285,1.75481c-0.52281,1.19248 -0.42206,2.59096 -0.90663,3.79949c-0.68261,1.70247 -1.68593,3.43949 -2.68464,5.14453c-0.64182,1.35369 -1.3868,2.67134 -2.15655,3.96825c-0.34692,0.87297 -0.6342,1.78438 -1.26951,2.45468c-0.01377,0.01453 -0.02757,0.02903 -0.04139,0.0435l0.01407,0.00767l-1.96839,3.60871c-0.54171,1.04087 -1.63023,1.75169 -2.88478,1.75169c-1.79493,0 -3.25,-1.45507 -3.25,-3.25c0,-0.4802 0.10414,-0.93608 0.29108,-1.34627l0.9717,-2.2673l0.10061,0.04312l-0.01614,-0.22456c0.32417,-0.55728 0.66628,-1.12014 1.01566,-1.68868c0.07369,-1.10533 1.1517,-2.03642 1.68832,-3.04985c0.53118,-1.00315 1.14807,-2.03149 1.76303,-3.07073c0.26442,-0.59274 0.50068,-1.19111 0.69892,-1.7952c1.61092,-4.90878 2.92876,-9.29294 5.32454,-13.80448c-1.88699,-0.90124 -3.70493,-2.31351 -4.53224,-3.14455c-7.45675,-7.49042 -5.62645,-18.82319 -5.63881,-28.31817c0,0 0,-2.28971 1.92189,-3.02535c-0.0524,-0.73639 -0.06505,-1.46394 0.18698,-2.14216c0.6203,-1.66923 1.42826,-3.60967 3.02101,-4.40605c1.59276,-0.79638 3.5583,0.15121 5.33745,0.22682c1.55913,1.54545 4.13364,2.50946 4.67738,4.63635c0.74923,2.93066 -3.15941,4.39333 -4.15397,6.4318c-0.36037,0.73863 -0.05664,2.42468 0.3697,4.14334c0.37502,0.32565 1.95354,1.70613 3.30203,2.8859c3.17085,0.05233 3.17085,3.24935 3.17085,3.24935c0,1.85456 -0.005,3.7154 -0.19412,5.56028l0.29054,0.26911c0.89217,-2.01726 1.78167,-4.04538 2.66635,-6.10963l2.98178,-2.50661c0,0 2.78685,-1.67211 4.45896,1.11474z" fill-opacity="0.09804" fill="#e3a3e3" stroke-width="0.5"></path><path d="M224.09943,245.33099c2.42393,-0.68778 4.90059,-0.98483 7.20925,-0.12271c1.73657,0.64849 4.21842,1.18586 4.69742,2.97661c1.7764,6.64105 -3.60562,7.00119 -7.38531,6.76948c-2.51399,-0.15412 -5.21086,-1.02505 -7.85593,-2.04012c-3.5299,1.2801 -6.73834,2.77676 -10.57403,-0.48148c-1.50971,-1.28243 -3.76222,-2.60204 -3.78321,-4.5828c-0.05078,-4.79034 8.32748,-8.32162 12.10723,-7.14786c1.14663,0.35607 1.70763,1.68826 2.56145,2.53238l1.85804,1.00229c0,0 0.6652,0.38011 1.1651,1.0942z" fill-opacity="0.09804" fill="#e3a3e3" stroke-width="0.5"></path><path d="M251.65521,260.64191c-3.25,0 -3.25,-3.25 -3.25,-3.25l0.26278,0.61357c-1.34991,-3.61515 -1.99057,-9.67754 3.45909,-10.81524c0.14119,-0.02948 0.28271,-0.0542 0.42453,-0.0746l-0.03755,-0.10014l2.59653,-0.9737c0.25294,-0.10165 0.52161,-0.17242 0.80135,-0.20762c0.51012,-1.13653 0.94846,-2.07918 1.11791,-2.4538c0,0 0.70023,-1.54051 2.20175,-1.89307c0.87311,-0.8573 1.84216,-1.55913 2.95214,-1.99321c3.50886,-1.37224 8.83858,-2.01661 9.36873,4.20984c0.53302,6.2601 -8.69225,14.65479 -14.93561,11.42779c-0.17501,0.17388 -0.35283,0.34499 -0.53376,0.51303l-1.08165,-0.14958l0.05687,0.45495l-0.34194,0.04274l0.18883,1.39902c0,0 0,3.25 -3.25,3.25zM262.49374,247.90828c-0.15276,0.17128 -0.3029,0.34472 -0.44924,0.52121c-0.00504,0.01217 -0.0101,0.02432 -0.01518,0.03646c0.01698,-0.01209 0.03333,-0.02433 0.04901,-0.03674c0.10153,-0.08037 0.24489,-0.2679 0.4154,-0.52093z" fill-opacity="0.09804" fill="#e3a3e3" stroke-width="0.5"></path><path d="M234.34363,128.95383c-1.8521,-1.64999 -3.82321,-3.17319 -5.45821,-5.07772c-0.95919,-1.11731 -1.90769,-2.25585 -2.69611,-3.49956c-0.61116,-0.96408 -0.33105,-2.73988 -1.40659,-3.1222c-0.57165,-0.20321 -1.21317,0.02291 -1.81975,0.03436c0,0 -3.23012,-0.3589 -2.87122,-3.58902c0.3589,-3.23012 3.58902,-2.87122 3.58902,-2.87122c1.39342,0.23368 2.9402,0.02392 4.18025,0.70103c2.87952,1.57231 3.82942,5.68866 5.8973,8.04491c2.5858,2.94639 5.86262,5.06137 8.3936,8.07026l-4.65393,3.11882l-0.33951,1.04238c-0.1448,-0.17582 -0.29262,-0.34833 -0.4431,-0.51792l-0.51363,0.34421c0,0 -1.78554,-0.89277 -1.85813,-2.67831z" fill-opacity="0.09804" fill="#e3a3e3" stroke-width="0.5"></path><path d="M223.52892,105.94258c-3.21734,-0.45962 -2.75772,-3.67696 -2.75772,-3.67696l0.15834,-1.10668c-0.12363,-0.34365 -0.19101,-0.71414 -0.19101,-1.10037c0,-0.10424 0,-3.20848 0,-3.31271c-0.33579,-0.54324 -0.22578,-1.17423 0,-1.82894c0,-3.28612 0,-6.57223 0,-9.85835c0,0 0,-2.49462 2.18558,-3.11272c0.46849,-2.3064 0.83242,-4.47974 0.88522,-7.22862l0.51598,-0.50898l-0.30667,-0.1363l1.3032,-2.9322c0.4903,-1.17333 1.64887,-1.99785 3.00002,-1.99785c1.79493,0 3.25,1.45507 3.25,3.25c0,0.24145 -0.02633,0.47675 -0.07627,0.70318l-0.6247,3.12352c0.19291,1.6576 -0.82378,5.2516 -0.97882,6.79849c-0.59961,5.98272 -1.61492,11.82014 -2.3453,17.77791l-0.3409,2.38984c0,0 -0.45962,3.21734 -3.67696,2.75772z" fill-opacity="0.09804" fill="#e3a3e3" stroke-width="0.5"></path><path d="M204.10865,300.96547c-2.90689,1.45344 -4.36033,-1.45344 -4.36033,-1.45344l-0.93239,-2.08175c-0.41459,-1.86648 -0.84977,-3.72861 -1.31369,-5.58345c0,0 -0.78824,-3.15296 2.36472,-3.9412c3.15296,-0.78824 3.9412,2.36472 3.9412,2.36472c0.47735,1.91023 0.92567,3.82784 1.35298,5.74988l0.40095,0.58491c0,0 1.45344,2.90689 -1.45344,4.36033z" fill-opacity="0.09804" fill="#e3a3e3" stroke-width="0.5"></path><path d="M259.43424,289.65557c0.45799,-0.30793 1.06995,-0.51366 1.88764,-0.51366c3.25,0 3.25,3.25 3.25,3.25l-1.96976,3.32055c-1.36097,0.40957 -2.69902,1.55246 -4.08292,1.22871c-4.62944,-1.08301 -4.44659,-3.71854 -5.36992,-7.17757c0,0 -0.70502,-3.17261 2.46758,-3.87763c3.17261,-0.70502 3.87763,2.46758 3.87763,2.46758c0.03937,0.29442 -0.00967,0.826 -0.06025,1.30202zM259.43946,290.54935l-0.06352,0.08558c0.01356,0.00172 0.03413,-0.02479 0.06352,-0.08558z" fill-opacity="0.09804" fill="#e3a3e3" stroke-width="0.5"></path><g stroke-width="0.5"><path d="M281.93541,77.36668c0.67082,0.33541 0.33541,1.00623 0.33541,1.00623l-0.04582,-0.08541c-0.02682,1.56745 -0.93082,2.8589 -2.19349,3.66229c-0.08191,0.15532 -0.16051,0.31756 -0.23406,0.48852c-0.2018,0.46908 -0.09407,1.40348 -0.32605,2.04538c-0.07,0.61974 -0.27037,1.27929 -0.64252,1.39303c-0.37241,0.11383 -1.93309,-1.2484 -2.23847,-1.53893c-0.65382,-0.62203 -1.00734,-1.22505 -1.3024,-1.77782c-0.18103,-0.0653 -0.35872,-0.14216 -0.53203,-0.23103c-0.87561,-0.44898 -1.52697,-1.46401 -2.26908,-2.09701c0,0 -0.54385,-0.46616 -0.113,-1.01884c0.039,-0.16992 0.11793,-0.28766 0.21164,-0.36908c0.11098,-0.10459 0.27426,-0.18152 0.51447,-0.18152c0.07425,0 0.14117,0.00735 0.20144,0.0206c1.70942,0.27696 6.33902,2.79484 6.58267,0.00577l0.08322,-0.09271l-0.03816,-0.01908l0.33704,-0.67408c-0.00666,-0.07882 -0.01691,-0.15949 -0.03101,-0.24221c0,0 -0.1233,-0.7398 0.61649,-0.8631c0.53742,-0.08957 0.74951,0.27632 0.82532,0.48322c0.07975,0.01238 0.16588,0.0395 0.25839,0.08576zM278.15011,81.48652c0.01896,-0.01062 0.03751,-0.02175 0.05567,-0.03337c-0.05939,-0.00638 -0.11918,-0.01369 -0.17931,-0.02187c0.03336,0.02244 0.06634,0.04536 0.09893,0.0688c0.00824,-0.00444 0.01648,-0.00895 0.0247,-0.01355z" fill-opacity="0.18824" fill="#ad4eac"></path><path d="M279.51896,81.00864c-0.72114,-0.20604 -0.5151,-0.92718 -0.5151,-0.92718l0.22297,-0.74126c-0.00121,-0.01741 -0.00182,-0.03499 -0.00182,-0.0527c0,-0.17942 0.063,-0.34412 0.16808,-0.47319l0.40274,-0.50343c0.02146,-0.1739 0.04292,-0.34779 0.06438,-0.52169c0,0 0.1233,-0.7398 0.86309,-0.6165c0.13259,0.02209 0.23744,0.064 0.32027,0.11789c0.38208,0.03463 0.68144,0.35581 0.68144,0.74691c0,0.12597 -0.03106,0.24468 -0.08593,0.34891l-0.36825,0.73651l-0.07209,-0.03605l-0.01548,0.17214c-0.05464,0.01756 -0.10926,0.03512 -0.1639,0.05268l0.04917,0.06146l-0.36539,0.29232c-0.01788,0.03262 -0.03841,0.06315 -0.06168,0.09105l-0.19531,0.73703c0,0 -0.20604,0.72114 -0.92719,0.5151z" fill-opacity="0.35294" fill="#ad4eac"></path><path d="M273.26459,78.74168c0.67082,-0.33541 1.00623,0.33541 1.00623,0.33541l-0.1298,-0.03863c0.11657,0.07912 0.23314,0.15945 0.34914,0.24128c0.22616,0.01725 0.40086,0.13372 0.40086,0.13372c0.23051,0.15423 0.46102,0.30848 0.69153,0.46272l0.05847,-0.08772l0.74032,0.49355c0.20677,0.13354 0.34366,0.36603 0.34366,0.63049c0,0.41421 -0.33578,0.75 -0.75,0.75c-0.12597,0 -0.24468,-0.03106 -0.34891,-0.08593l-0.73651,-0.36825l0.00961,-0.0192l-0.05064,-0.00294c-0.08986,-0.05971 -0.17972,-0.11942 -0.26958,-0.17912c-0.37194,-0.01524 -0.74198,-0.37354 -1.27,-0.72052l-0.3798,-0.53862c0,0 -0.33541,-0.67082 0.33541,-1.00623z" fill-opacity="0.35294" fill="#ad4eac"></path></g><path d="M282.5267,83.93141c1.11804,-0.55902 1.67705,0.55902 1.67705,0.55902l0.15974,0.32111c0.055,-0.13267 0.11864,-0.27085 0.18828,-0.40261l-0.11486,-0.51688l0.03012,-0.0067c-0.0183,-0.04226 -0.0358,-0.08493 -0.05242,-0.12807c-0.3601,-0.93444 0.46342,-1.97407 0.42125,-2.97461c-0.02326,-0.55205 -0.53046,-1.29949 -0.8086,-2.04171c-0.2797,-0.22419 -0.77283,-0.76909 -0.31995,-1.58427c0.31696,-0.57052 0.7663,-0.67767 1.12339,-0.64979c1.57757,-1.10232 2.3616,0.07176 2.97494,1.14573l0.01211,0.00323c0.10037,0.01834 0.20703,0.04977 0.32016,0.0969c0.36064,0.15027 0.56158,0.36628 0.66744,0.59227c0.1134,0.22231 0.16053,0.51355 0.05774,0.89047c-0.02675,0.09808 -0.0593,0.18602 -0.09654,0.2648c0.63752,1.71031 0.48853,3.46665 0.11631,5.36574l-1.60556,1.41159c0,0 -0.60352,0.34486 -1.16762,0.07021c-1.44851,1.78824 -1.71413,2.24769 -3.83096,-0.11989l-0.31106,-0.61946c0,0 -0.55901,-1.11804 0.55902,-1.67705z" fill="#e5c1e4" stroke-width="0.5"></path></g></g></svg>