<svg version="1.1" xmlns="http://www.w3.org/2000/svg" xmlns:xlink="http://www.w3.org/1999/xlink" width="286.71237" height="346.82074" viewBox="0,0,286.71237,346.82074"><g transform="translate(-119.2177,11.84766)"><g stroke="none" stroke-width="0.5" stroke-miterlimit="10"><g><path d="M295.49294,160.50103c-2.27526,0.01818 -3.56501,0.16203 -5.35969,-1.91331c-1.55467,-1.7978 -2.66658,-4.09487 -3.84822,-6.35759l-1.57563,-2.03184c-0.39153,-0.49479 -0.61894,-1.2535 -0.57088,-2.08974c0.03304,-0.57492 0.19123,-1.09852 0.43169,-1.51477c-0.64852,-2.86891 -0.96075,-5.8286 -0.68094,-7.92646c0.83646,-6.27123 4.36847,-13.33849 6.4436,-19.02434l0.14592,-1.37538c0,0 0.04894,-0.31535 0.18721,-0.70334c0.0198,-0.38849 0.11264,-0.82319 0.31689,-1.3004c0.95283,-2.22623 2.42472,-0.92511 2.42472,-0.92511c4.90361,4.34088 8.55759,8.76415 11.16914,16.40216l0.72437,2.3175c0.15289,0.34847 0.22493,0.73113 0.25808,1.0443c0.04003,0.3119 0.05952,0.71266 -0.00441,1.13109c-0.54699,9.25599 -1.91091,24.20212 -10.06184,24.26722z" fill="#baafcc"></path><path d="M218.33838,183.56698c4.2662,-2.33432 8.41796,-5.00337 12.62266,-7.47092c8.27131,-4.6027 17.70321,-3.57009 26.7251,-2.14194c3.83099,0.60644 8.02495,0.2978 11.23577,2.94412c2.41073,1.9869 3.97538,4.76841 6.00677,7.11616c0.63162,0.29068 0.91757,0.95544 0.91757,0.95544c3.63596,8.47558 11.4001,14.63089 14.34089,23.39409l0.36704,1.59286c0,0 0.02673,0.11902 0.03465,0.30128c0.38545,0.53401 0.34696,1.20386 0.34696,1.20386c-0.10519,1.83032 -0.21039,3.66062 -0.31558,5.49094c-0.10137,1.76376 -0.20005,3.52767 -0.30411,5.29127c-0.38732,6.56397 -3.74545,19.44824 -12.86252,17.21379c-2.60409,-0.63823 -5.07227,-2.55487 -7.43896,-3.7739c-4.30921,-2.50698 -9.16684,-7.03783 -10.6374,-11.81439l-0.46148,-1.04363c0,0 -0.01042,-0.02423 -0.02573,-0.06802c-0.01776,-0.04286 -0.02614,-0.06787 -0.02614,-0.06787c-2.08505,-6.29971 -7.06115,-11.18972 -9.91518,-17.19643c-2.86428,0.296 -5.6955,0.80292 -7.90482,2.58864l-1.27899,2.51898c-1.36471,4.76602 -5.74242,8.5875 -8.95562,12.11987c-2.93642,3.2281 -5.40052,6.80102 -9.37319,8.87477c-2.60728,1.36101 -5.65142,2.19228 -8.40867,3.23338l-1.11756,0.08685c0,0 -1.74712,-0.10041 -1.6467,-1.84753c0.10041,-1.74712 1.84753,-1.6467 1.84753,-1.6467l-0.31888,0.13275c0.39288,-0.14814 0.79431,-0.29189 1.20161,-0.43382c-3.66465,-0.61849 -7.86444,-1.32407 -10.88542,-3.70464c-3.56743,-2.81118 -4.34401,-6.8747 -4.10503,-11.07861c0.33695,-5.92725 1.56867,-11.32028 3.96762,-16.60781c0.43708,-4.12817 2.90467,-6.31012 5.72445,-9.16257c0.2231,-0.36911 0.55987,-0.56351 0.86697,-0.6655c0.00584,-0.00259 0.01171,-0.00515 0.01762,-0.0077c2.92508,-2.81816 6.12647,-4.33956 9.75879,-6.32705z" fill="#111732"></path><path d="M255.73048,169.93558c1.69775,0.42443 1.27331,2.12219 1.27331,2.12219l-0.53047,1.80926c-1.09981,1.83015 -2.00252,3.7359 -2.89536,5.64648c0.20165,0.02974 0.39072,0.09819 0.56195,0.19823c0.40458,-0.4411 0.82497,-0.87853 1.26202,-1.31584c0.98476,-0.98535 3.46714,-3.65343 4.6395,-3.46575c1.18047,0.18898 1.95799,3.79103 2.65047,4.77447c0.44437,0.63108 0.797,-1.33312 1.31244,-1.90761c0.64997,-0.72443 1.46348,-1.28524 2.23219,-1.88217c0.7876,-0.61161 1.64868,-1.12059 2.54877,-1.56257l-0.11668,-0.17501l1.98009,-1.32006c0.28167,-0.19377 0.62291,-0.30718 0.99063,-0.30718c0.9665,0 1.75,0.7835 1.75,1.75c0,0.10938 -0.01003,0.2164 -0.02923,0.32021l-0.32792,1.96748l-0.02096,-0.00349l0.00811,0.07215c-0.92805,3.71278 -2.03114,7.46197 -3.43756,11.03797c0.01344,0.62907 -0.24432,1.15227 -0.24432,1.15227c-4.28274,8.69246 -9.21111,16.7111 -13.17402,25.54787l-1.62646,1.36558c-0.2347,0.27699 -0.5237,0.43557 -0.76329,0.52579c-0.22517,0.09679 -0.51828,0.17696 -0.83127,0.14165c-2.43988,0.1683 -5.81115,0.29416 -8.03215,-0.49862c-0.98914,-0.35307 -1.57904,-0.84802 -2.09541,-1.3155c-3.17934,4.51818 -9.21295,6.02436 -11.93544,0.06328c-1.52169,-3.33184 -2.04198,-7.00331 -2.97828,-10.56572c-2.03075,-7.72658 -2.86059,-14.88388 -2.15817,-23.00057c0,0 0.16468,-1.90294 1.80304,-1.84536c0.31184,-0.95542 0.62781,-1.85438 0.78818,-2.09635c2.69103,-4.06035 9.41484,-5.70868 12.98163,-2.55222c0.17408,-0.33132 0.45063,-0.65892 0.88749,-0.81202c-0.09718,3.1934 -0.50557,6.79278 0.05094,9.82655c0.40323,2.19821 1.3364,2.93407 1.31867,5.24513l0.14569,0.21081l-0.09527,0.02722l0.65604,2.29614c0.08747,0.33483 0.27161,0.63057 0.52084,0.85562c0.5447,-0.83782 0.81778,-1.84637 1.27139,-2.74349c1.26117,-2.49422 1.40824,-5.46376 2.65121,-7.96804c1.56751,-3.15814 2.91673,-6.42942 4.74924,-9.48803l0.1362,-0.8574c0,0 0.42444,-1.69775 2.12219,-1.27332zM268.94654,178.41759c-0.76221,0.50143 -1.63956,0.95904 -2.33882,1.71874c-0.30676,0.33327 -0.51193,0.77244 -0.73415,1.18798c0.64611,0.38548 1.24068,0.86256 1.76732,1.45159c0.47479,-1.44128 0.90694,-2.89936 1.30564,-4.35831zM265.97377,186.87288l0.044,0.23031c-0.01244,-0.07849 -0.02713,-0.15524 -0.044,-0.23031z" fill="#6390d6"></path><path d="M333.47319,296.17525c1.05408,0.41879 4.37599,1.2768 4.49356,2.40848c0.14216,1.36833 -1.52951,2.28707 -2.29426,3.43061l-0.74818,0.07251c-0.08664,0.053 -0.17545,0.0961 -0.26322,0.13114c-0.43707,0.22917 -0.83255,0.22791 -1.16088,0.13095l-0.17897,-0.01029c-5.83787,-0.33552 -11.77817,-1.0499 -17.62399,-1.01559c-1.52405,0.00894 -3.05854,-0.21079 -4.57214,-0.03231c-1.16032,0.13682 -2.23845,0.8673 -3.40611,0.82701c-0.34426,-0.01188 -3.47572,-1.60438 -4.01574,-1.87349c0,0 -1.5663,-0.78051 -0.78579,-2.34681c0.35717,-0.71675 0.87889,-0.94206 1.33977,-0.97562c-0.09755,-0.23577 -0.14481,-0.49664 -0.12919,-0.76843c0.0211,-0.36712 0.15391,-0.70128 0.36352,-0.97137l0.91708,-1.21792c1.10676,-3.17623 2.24442,-2.38977 5.29573,-3.12233c5.00093,-1.20063 8.72545,-1.28098 13.77451,-0.26227c0,0 0.09066,0.01831 0.22607,0.06735l0.45756,0.09605c1.60098,0.80287 2.69149,1.23072 4.07272,2.52762c0.81761,0.76768 1.0518,1.30314 1.36829,1.84171c0.96103,0.32741 1.91638,0.68427 2.86967,1.06301z" fill="#baafcc"></path><path d="M177.60415,258.08092c0.00476,-0.08282 0.01521,-0.16396 0.03093,-0.24307l0.35935,-1.95522l0.06835,0.01256c-0.00012,-0.09931 0.00301,-0.19885 0.00977,-0.29861c0.11775,-1.73771 2.06581,-3.53561 3.38771,-5.13105c1.06331,-1.77795 2.11006,-3.56079 3.17162,-5.33174c2.4252,-4.42006 4.75406,-8.88447 7.17862,-13.29797c1.36363,-2.48227 1.87178,-7.90769 4.7868,-9.26655c0.48931,-0.22809 4.01498,0.02334 4.82968,0.07017l0.74876,0.04304c0,0 0.00514,0.00029 0.01486,0.00114c2.95499,-0.6273 6.1375,-1.36176 8.97429,0.17656c1.24064,0.67277 2.0062,1.99331 2.89463,3.0899c1.51298,1.86747 3.92545,3.90659 4.91277,6.16939c1.00459,2.30237 1.33203,5.905 1.21106,8.37562l-0.05738,0.99835c0,0 -0.00548,0.09538 -0.03617,0.24029c-0.02716,0.14561 -0.05864,0.23582 -0.05864,0.23582c-1.78119,4.94506 -6.65662,8.6038 -9.68004,12.87418c-1.78392,2.51967 -2.73811,5.17908 -4.47999,7.79722c-0.94228,1.41631 -1.58309,1.33317 -2.33103,2.73019c-0.9882,1.84577 -1.39438,3.9588 -2.31938,5.83704c-1.0937,2.2208 -2.17595,3.39157 -2.95184,5.89936c-0.10638,0.6341 -0.21278,1.26819 -0.31916,1.90229c0.0166,0.2919 -0.05254,0.56124 -0.13604,0.77252c-0.07957,0.23503 -0.21698,0.51184 -0.45329,0.735c-2.74558,3.75369 -3.60364,7.98805 -4.48817,12.41985c-0.00063,0.02405 -0.00168,0.04954 -0.00326,0.07631l0.00591,0.00119c0,0 -0.00377,0.06565 -0.02258,0.17078c-0.04651,0.34388 -0.18893,0.79852 -0.59303,1.11419c-0.24687,0.21073 -0.59209,0.36282 -1.07455,0.36586c-0.48164,0.02832 -0.836,-0.10102 -1.09604,-0.29525c-0.42376,-0.28875 -0.59542,-0.73316 -0.66418,-1.07329c-0.02561,-0.10368 -0.03364,-0.16895 -0.03364,-0.16895c-0.21316,-1.73215 -0.23182,-3.49556 -0.60341,-5.20075c-0.23116,-1.06075 -2.72496,-2.29763 -3.51038,-2.95955c-1.06404,-0.89673 -1.79689,-2.1451 -2.86794,-3.03345c-0.68401,-0.56733 -1.77186,-0.1414 -2.65913,-0.19123c-4.00002,-0.22466 -7.48674,1.0543 -11.39672,0.83609l-0.24181,0.44397l-0.30525,1.51124c-0.15836,0.85399 -0.93105,1.47699 -1.82086,1.42585c-0.9649,-0.05545 -1.70216,-0.88263 -1.6467,-1.84753c0.00424,-0.07389 0.01302,-0.14643 0.02603,-0.21739l0.37444,-2.20688l0.06832,0.01159c-0.0042,-0.08691 -0.00651,-0.17401 -0.00677,-0.26135c-0.00013,-0.04424 1.74055,-3.54551 1.81945,-3.69187c1.83917,-3.41149 5.08919,-6.59618 6.57263,-10.10004c1.37483,-3.24732 2.84851,-6.33629 4.40895,-9.42331c-0.00108,-0.04711 -0.00028,-0.09463 0.00247,-0.1425z" fill="#a69cb5"></path><path d="M138.80235,172.69338c-0.97251,-0.55509 -1.85395,-1.26241 -2.83533,-1.80166c-0.74652,-0.4102 -1.81833,-0.36159 -2.33459,-1.03912c-3.08731,-4.05179 -0.39164,-4.9436 2.60981,-5.2935c-0.38536,-0.68173 -0.77462,-1.347 -1.18153,-1.97836c-0.37329,-0.57919 -0.72538,-1.12328 -1.06086,-1.65656c-1.31984,-1.04377 -2.93765,-2.00404 -3.46188,-3.51876c-0.54124,-1.56383 -0.7289,-3.54788 -0.89346,-5.48938c-0.02947,-0.06301 -0.05871,-0.12608 -0.08765,-0.18926c-1.552,-3.38766 -1.1087,-7.65478 -0.90265,-11.23994c0.03038,-0.5286 0.22258,-4.22058 0.33358,-4.49539c0.52819,-1.30766 2.77836,-3.71971 4.0154,-4.42507c1.19574,-0.68182 2.65913,-0.72849 3.94611,-1.2167c2.1539,-0.81708 3.69387,-1.03939 5.48241,-0.68882l-0.36665,-1.75859c0,0 0.08374,-1.45689 1.42867,-1.63343c0.07703,-1.29543 0.17936,-2.84508 0.24284,-3.03818c0.4674,-1.42179 0.94059,-2.96149 1.99754,-4.02111c2.02697,-2.03208 4.22032,-2.17045 6.31811,-1.31809c-1.3215,-5.41731 -1.44455,-10.81949 -1.11669,-16.52393c0.35188,-6.12247 0.40877,-11.37195 3.84812,-16.65515c1.46684,-2.25323 3.73219,-3.71832 6.06489,-5.1125c1.13269,-3.41253 3.25277,-7.28865 6.79826,-7.04836c1.3209,0.08952 2.03089,1.76089 3.24342,2.29245c1.81455,0.88675 2.87283,2.10804 3.62833,3.50807c2.13147,1.84373 2.33064,3.7072 3.39845,6.05082c0.81169,1.78149 2.54362,2.99085 3.60985,4.63271c0.37572,0.57856 0.78123,1.40585 1.22609,2.32575c1.49227,2.18008 3.42336,5.10423 5.43722,6.302c0.12741,0.07578 0.25818,0.15053 0.39205,0.22424c0.39428,-0.03072 0.79386,-0.08723 1.18038,-0.04202c3.49279,0.4085 7.91335,1.49724 11.03282,2.99693c0.23541,0.00907 0.47081,0.01868 0.70618,0.02879c-0.12367,-0.24094 -0.21801,-0.43907 -0.27072,-0.57518c-1.76337,-4.55231 0.05238,-11.02786 3.1362,-14.82515c0.85862,-2.69358 1.74316,-5.40876 4.78407,-6.45123c0.70926,-0.24314 1.50482,0.15765 2.24847,0.06204c2.1159,-0.27202 3.80534,-0.48069 6.02779,-0.35296c6.5121,0.37427 13.84266,0.36689 19.82217,3.26537c2.12357,1.02937 3.8459,2.43904 6.11013,3.34025c4.82711,2.26537 9.97103,3.91034 14.76936,6.23237c4.10161,1.98487 6.74501,5.67624 10.19339,8.45475c2.7218,2.19308 5.19119,3.66769 7.52299,6.28387l0.20434,1.2064c1.15677,0.96821 2.40789,1.73972 3.56817,2.60993c7.41046,-3.10504 17.28135,-3.91761 24.56587,-0.54391c0.73745,0.42328 5.90092,2.50111 6.13324,2.82183c0.89495,1.23547 0.0753,5.94397 -0.01427,7.47598c-0.34899,5.96918 -3.33719,13.08885 -8.73745,16.31986c-1.04235,0.62364 -2.00345,1.16474 -2.91844,1.77729c0.17024,0.34473 0.20387,0.65562 0.20387,0.65562l0.20461,1.91775c0.41634,1.85992 1.03844,3.67149 1.69416,5.4611c-0.18899,4.21289 0.00078,8.23018 -3.96739,10.89238c-0.67257,0.45122 -1.49963,0.63276 -2.28842,0.81652c-0.54643,0.1273 -1.11877,0.11881 -1.67973,0.1079c-0.0987,-0.00192 -0.30785,-0.12761 -0.3755,-0.16077l-0.00087,0.01516c3.19982,2.8926 2.15006,7.74375 0.95413,11.42381c-0.40085,1.23347 -0.40586,2.62984 -1.07941,3.7382c-0.37298,0.61377 -2.05145,1.62091 -3.16474,2.26292c-0.7953,1.5504 -1.77128,2.98145 -3.22213,4.12234c-1.33955,1.05337 -2.91629,1.7036 -4.57668,2.15609c-0.62204,0.75137 -1.32914,1.42347 -2.19101,1.93894c-2.27141,1.35851 -5.21559,0.65752 -7.67229,0.51632c-3.44806,-0.19817 -6.89614,-0.39634 -10.3442,-0.59452c-0.73606,1.07529 -2.04986,0.55183 -2.04986,0.55183l-0.498,-0.21736c-3.43511,-0.86029 -5.12609,-2.46357 -8.00563,-4.12757c-1.84126,-1.06401 -3.9706,-1.33639 -5.78093,-2.68859c-0.17478,-0.13055 -0.3485,-0.26244 -0.52119,-0.39567c-3.29819,4.73908 -7.12693,7.70282 -12.50564,10.30799c-1.85733,0.89959 -3.92798,1.32835 -5.74636,2.30428c-2.41979,1.29872 -4.56146,3.57042 -7.06144,4.66768c-5.08528,2.23197 -11.28593,1.39151 -16.64935,1.53052c-8.80054,-0.32992 -17.43663,-0.7426 -26.01883,-2.46031c-0.04384,-0.00015 -0.08615,-0.00162 -0.12655,-0.00406l-0.02514,0.00366c0,0 -0.08301,-0.00477 -0.21182,-0.03033c-0.12955,-0.02142 -0.20893,-0.04619 -0.20893,-0.04619c-2.31848,-0.74875 -4.37781,-1.99828 -6.3561,-3.40153c-1.61538,-0.41941 -3.23623,-1.39098 -4.49853,-2.00662c-3.40774,-1.662 -6.10393,-3.70152 -8.772,-5.89289c-1.58062,-0.90827 -3.13171,-1.83273 -4.71186,-2.73972c-0.50702,-0.29103 -1.02153,-0.5678 -1.53936,-0.83727c-3.78349,-1.56413 -7.613,-3.10442 -11.05143,-5.067zM137.9235,167.97032c0.1299,0.07111 0.25235,0.13974 0.36818,0.20612c-0.04782,-0.07935 -0.09538,-0.1589 -0.1427,-0.23861c-0.07166,0.01089 -0.14711,0.02188 -0.22548,0.03249z" fill="#721c67"></path><path d="M284.09931,118.60333c1.12167,1.34327 -0.2216,2.46493 -0.2216,2.46493l-0.46414,0.22992c-2.20807,4.03051 -5.13937,7.76658 -7.59821,11.6828c0.58662,0.50594 1.111,1.017 1.52887,1.53211c0.62862,0.77491 1.55215,1.646 1.98401,2.56196l0.08786,-0.00226c0.05476,-0.00198 0.11009,-0.00143 0.16589,0.00178c0.9649,0.05545 1.70216,0.88263 1.6467,1.84753c-0.04517,0.78592 -0.60231,1.42082 -1.32885,1.59934l-1.996,0.54027l-0.01457,-0.05382c-0.08589,0.03778 -0.17315,0.07295 -0.26192,0.10524c-2.49025,0.90579 -5.72876,-1.43878 -7.73516,-2.52008l-0.10976,-0.1943l-0.05613,0.06245l-1.57539,-1.41596c-0.1033,-0.09125 -0.19559,-0.19442 -0.27482,-0.30718c-1.77889,-1.52874 -3.15592,-3.52533 -3.93102,-6.05653h0.00001c0,0 -0.5027,-1.67624 1.17354,-2.17894c0.07802,-0.0234 0.1535,-0.04208 0.22651,-0.05642c0.21844,-0.77221 0.94984,-1.31704 1.78424,-1.26909c0.24338,0.01399 0.47228,0.07707 0.67762,0.17908l1.58972,0.74437l-0.04073,0.08701l0.26504,0.0389c0.96103,0.85064 2.20179,1.73037 3.44477,2.63256c2.40017,-3.74842 5.14758,-7.34981 7.27792,-11.24187l1.29067,-1.2354c0,0 1.34326,-1.12167 2.46493,0.2216z" fill="#6390d6"></path><path d="M264.74267,78.29717c1.3064,-1.16439 2.4708,0.14201 2.4708,0.14201l0.27047,0.43843c1.33132,0.78011 3.64997,1.76764 3.96593,3.6328c0.19237,-0.16005 0.38626,-0.31855 0.61552,-0.39975c2.98599,-1.05757 6.90215,-1.48574 10.57228,-1.07908c1.43344,0.66553 2.69709,1.13552 3.58706,1.3046c0.68701,0.13052 1.36197,0.17556 2.01958,0.14451c0.43926,0.1989 0.86008,0.41746 1.25894,0.65628c3.12405,1.87057 3.83825,5.68232 6.42296,8.12957l0.30242,0.93788c1.13261,1.28619 2.29151,2.57012 3.36181,3.97027c0,0 0.03363,0.04412 0.08106,0.12266c0.05111,0.07619 0.07689,0.12533 0.07689,0.12533l0.69398,1.32412c0.75178,1.51963 1.75648,4.09085 3.14857,5.09079c1.87772,1.34877 3.31755,2.19459 5.02125,3.98412c0.26666,0.2801 1.84929,1.54297 2.97971,2.45407l0.50615,-0.67219c0.33877,-0.4638 0.89867,-0.75153 1.51473,-0.71613c0.9649,0.05545 1.70216,0.88262 1.6467,1.84753c-0.01876,0.32648 -0.12587,0.62689 -0.29676,0.87935l-1.08201,1.66397l-0.04077,-0.02651c-0.35586,1.93035 -0.70524,3.85411 -0.8263,5.8319l-0.13599,0.18156l0.08483,0.02647l-0.60303,1.93307c-0.22127,0.76788 -0.95046,1.3087 -1.78191,1.26091c-0.62647,-0.03601 -1.15698,-0.39731 -1.43688,-0.91042c-0.1649,0.04032 -0.3385,0.05714 -0.5168,0.04689c-0.36712,-0.0211 -0.70128,-0.15391 -0.97137,-0.36352l-1.29955,-0.97855c-2.87994,-1.25498 -5.10025,-2.28024 -6.93697,-4.01315l-0.06128,1.0663c-0.01173,0.204 -0.05794,0.39783 -0.13267,0.57614c2.03927,2.75257 4.56094,5.01843 7.98739,6.20305l1.74912,0.96938c0,0 1.15981,0.66569 0.86979,1.84709c0.34533,0.21325 0.6851,0.42554 1.01735,0.63719c0.21574,0.09561 0.43577,0.25265 0.65096,0.49408c0.21563,0.24192 0.34653,0.47898 0.41668,0.70467c0.03157,0.10151 0.05362,0.20974 0.0623,0.32429c0.00869,0.11454 0.00322,0.22486 -0.01267,0.32997c-0.0353,0.23369 -0.12894,0.48778 -0.30561,0.75947c-0.17255,0.26536 -0.36189,0.45151 -0.5563,0.57843l-0.5382,0.4797c-0.42532,0.37909 -3.7817,3.39448 -4.08603,3.55683c-1.88348,1.00474 -4.04909,1.32995 -5.99241,2.55499c-3.64785,2.29956 -7.05141,5.15234 -10.60665,7.63267c-0.25067,0.26228 -0.56654,0.39424 -0.8355,0.46023c-0.26281,0.08292 -0.59926,0.13415 -0.94788,0.04211l-0.62243,-0.03578c-5.49817,-0.34868 -8.88934,-3.55003 -12.72085,-7.13831c-3.22649,-3.02167 -5.97684,-5.94212 -8.0763,-9.34518c0.33454,3.79527 1.08397,7.5206 2.19033,11.25478c0.62041,2.09402 3.27504,3.70174 4.45853,5.61369c1.46573,2.36791 1.37763,2.94219 1.92574,5.52528c0.19729,0.5117 0.11943,0.93902 -0.04828,1.26954c-0.13104,0.34622 -0.39382,0.69128 -0.90359,0.89044l-1.44113,0.84445c-0.52429,0.26122 -1.04857,0.52244 -1.57286,0.78366c-0.36644,0.30277 -0.77206,0.36443 -1.11696,0.33547c-0.34708,0.00848 -0.74975,-0.07767 -1.09834,-0.40412l-1.51571,-0.87728c-3.63698,-1.36401 -6.26598,-5.09678 -7.91764,-8.49323c-1.60052,-3.29129 -2.83832,-7.17503 -3.63922,-11.16551c-0.34491,5.57303 -0.06585,11.27692 -1.43977,16.62025c0,0 -0.00215,0.00824 -0.00672,0.02343c-0.08337,0.35302 -0.2786,0.77766 -0.72815,1.04054c-0.27133,0.18773 -0.63283,0.30667 -1.10808,0.24563c-0.47871,-0.02039 -0.81484,-0.19888 -1.05042,-0.42989c-0.39849,-0.33526 -0.5189,-0.78685 -0.54124,-1.1489c-0.00193,-0.01574 -0.00265,-0.02423 -0.00265,-0.02423l-0.00047,-0.04355c-0.00091,-0.02994 -0.00118,-0.05914 -0.00093,-0.08746l-0.01159,-1.08661c-1.76323,-1.77751 -2.98267,-3.98566 -3.79975,-6.37103l-0.09351,0.27876c-0.23285,0.74962 -0.95263,1.27366 -1.77164,1.22659c-0.9649,-0.05545 -1.70216,-0.88262 -1.6467,-1.84753l0.11112,-1.93336c-0.04895,-1.40199 -0.33907,-2.81477 -0.8475,-4.122c-0.79847,-1.86189 -1.60448,-4.1945 -2.55122,-5.95565c-0.64712,-1.20379 -1.8058,-2.14576 -2.21664,-3.44925c-0.29405,-0.93295 -0.42849,-1.92284 -0.46884,-2.93641c-0.55969,0.0122 -1.189,-0.21347 -1.78342,-0.31995c-0.55508,0.05564 -0.95663,-0.16626 -1.23198,-0.43142c-0.0811,-0.06244 -0.16047,-0.13428 -0.23374,-0.21672c-0.13992,0.02707 -0.28543,0.03737 -0.43421,0.02882c-0.9649,-0.05545 -1.70216,-0.88262 -1.6467,-1.84753l0.14345,-2.49588c-0.32447,-0.60283 -0.04004,-1.38942 0.14433,-2.04873c0.11684,-0.41781 0.29072,-0.95747 0.51053,-1.56687c0.06832,-0.30253 0.13819,-0.60468 0.20804,-0.90715c0.08033,-2.00361 0.27052,-4.03298 0.59321,-5.96864c1.37619,-3.92247 3.19227,-7.70867 5.42726,-11.15589c1.24884,-1.9262 10.32201,-8.23761 12.80713,-9.96117c0.93347,-0.64741 2.03561,-0.85717 3.05257,-1.29792c0.18363,-0.07442 0.36109,-0.16136 0.53126,-0.25982c0.24873,-0.13814 0.48905,-0.29885 0.7168,-0.49309c0.54307,-0.09693 1.14174,-0.12664 1.72743,-0.17714c0.41907,0.00127 0.82553,-0.05881 1.21029,-0.17216c0.25198,-0.05925 0.49007,-0.13727 0.707,-0.24339c0.1697,-0.08302 0.32175,-0.18599 0.45964,-0.30494c0.17393,-0.11687 0.33892,-0.24632 0.4936,-0.38715c1.55012,0.10765 3.23997,0.33513 3.87574,0.90036c0.12636,0.11235 0.24491,0.23136 0.35694,0.35593l0.05767,-0.05995l0.37116,0.35706c0.12261,-1.14816 0.21614,-1.90908 -0.56061,-3.07297c0,0 -0.1165,-0.19855 -0.19297,-0.49388l-0.53067,-0.53262c0,0 -1.1644,-1.3064 0.142,-2.4708z" fill="#111732"></path><path d="M183.90009,249.67003c-0.91892,-0.1261 -1.74096,-0.4351 -2.17333,-1.11016c-0.62102,-0.96961 0.27575,-2.2865 0.38851,-3.4324c0.40993,-4.16599 2.25341,-8.23968 4.74387,-11.71179c1.07719,-6.33668 2.6968,-12.5477 4.72297,-18.75632c1.26147,-3.86542 2.09332,-6.23457 4.55174,-9.57026c0.76213,-1.0341 1.27298,-2.41314 2.28876,-3.15189c0.74707,-2.32539 2.70766,-5.14937 3.9357,-5.82207c0.97155,-0.53221 3.53384,-0.26137 4.61129,-0.20168l1.9967,0.11476c0.9649,0.05545 1.70216,0.88263 1.6467,1.84753c-0.01767,0.30742 -0.11368,0.59175 -0.26751,0.83468c0.22562,0.20475 0.415,0.50745 0.51475,0.9517c0.043,0.19148 0.0597,0.3663 0.05546,0.52581c0.43714,6.94128 -0.28229,13.45147 -1.95848,20.19368c-0.55657,2.23869 -0.70143,4.18013 -1.72671,6.28686l0.00796,0.06865c0.08791,0.25707 0.10024,0.5152 0.08454,0.72934l0.00225,0.01943c0,0 -0.00576,0.10033 -0.03858,0.25152c-0.02961,0.15185 -0.06396,0.24629 -0.06396,0.24629c-0.27426,0.73589 -0.54852,1.47179 -0.82278,2.20769l-0.06731,1.49448c0,0 -0.00205,0.03554 -0.01062,0.09619c-0.0052,0.06104 -0.01116,0.09613 -0.01116,0.09613c-0.24155,1.36166 -0.61919,2.71649 -1.18116,3.98176c-0.00926,0.33995 -0.1359,0.62334 -0.29305,0.84622c-0.1741,0.31516 -0.46635,0.62851 -0.9558,0.75628c-0.98567,0.47996 -2.35233,0.89862 -3.62778,1.3751l-0.15175,0.75128l-0.03601,-0.00727l0.01588,0.09518c-0.73517,2.28 -2.91786,8.20944 -5.36173,9.00304c-0.17588,0.05712 -0.43848,0.0701 -0.76281,0.04967c-0.02272,0.91527 -0.90188,1.43108 -0.90188,1.43108l-1.92538,1.07537c-0.62591,0.05054 -5.45292,0.44132 -5.45875,0.43635c-0.21554,-0.18416 -0.33363,-0.41909 -0.39082,-0.68519c-0.41133,-0.08749 -1.21752,-0.37753 -1.37974,-1.31699zM185.52026,244.8005c-0.09045,0.22185 -0.18227,0.44381 -0.27584,0.6658c0.07435,-0.03574 0.15155,-0.06635 0.23109,-0.09141c0.01286,-0.19155 0.02774,-0.38307 0.04475,-0.57439z" fill="#baafcc"></path><path d="M291.79609,222.90252c1.69939,-0.41783 2.11722,1.28156 2.11722,1.28156c0.1063,0.44346 0.22437,0.85532 0.35289,1.2426c0.01385,0.03647 0.02659,0.07422 0.03812,0.11327c0.8977,2.6301 2.28357,4.12934 3.73153,6.76452c1.09258,1.98841 1.78877,3.923 2.81216,5.70915c1.25122,-0.96572 2.33737,0.25289 2.33737,0.25289l0.8095,1.09634c1.40409,3.94995 1.10069,7.9306 2.7822,11.83587c0,0 0.00005,0.0001 0.00013,0.0003l0.40083,0.93864c0.32993,0.67531 0.65985,1.35061 0.98978,2.02591c0.42133,2.13651 0.61139,5.47678 1.71409,7.37549c0.79635,1.37122 2.09708,2.5314 2.45091,4.07712c1.89207,8.26559 3.98447,16.08646 8.7684,23.28915c0.2541,0.27044 0.46995,0.66029 0.42574,1.18834c0.00811,0.33654 -0.08433,0.71358 -0.39918,1.06118c-0.27549,0.37955 -0.6255,0.54747 -0.95652,0.60868c-0.57481,0.17181 -1.04473,-0.019 -1.37032,-0.2518l-0.61563,-0.30988c-6.63443,-0.42418 -9.27713,5.13994 -13.51864,9.39243c-0.22782,0.36509 -0.56802,0.55522 -0.87522,0.65381c-0.29382,0.12543 -0.67086,0.20421 -1.07751,0.08272l-0.13509,-0.00776c-4.42102,-0.25409 -8.47737,-1.10306 -12.82938,-1.7462c0,0 -1.73085,-0.25818 -1.47267,-1.98903c0.08006,-0.5367 0.30171,-0.88217 0.56945,-1.10338c-0.12817,-2.20293 -0.8805,-3.90875 -0.90702,-6.17277c-0.03276,-2.79699 0.31773,-4.97483 -0.42753,-7.71432c-3.49746,-8.3039 -3.67675,-17.6751 -5.80926,-26.28921c-1.17651,-4.75242 -6.04444,-8.69331 -6.28791,-13.43551c-0.44955,-0.3404 -0.72668,-0.89146 -0.69189,-1.49671c0.01193,-0.20749 0.05953,-0.40446 0.13653,-0.58528l0.85541,-2.14692c0.18948,-1.14718 0.60433,-2.20123 1.16008,-3.19008c0.11809,-0.33111 0.25663,-0.65362 0.42664,-0.96285c0.6003,-1.09187 1.5948,-2.17484 2.76272,-3.16522c0.95008,-1.03059 1.91961,-2.02766 2.76095,-3.03997c1.48478,-1.78651 1.75038,-2.54819 4.12141,-3.56588c1.32283,-0.56778 2.34453,-0.54664 3.5469,-0.47113c0.07797,-0.50717 0.3745,-1.11783 1.30281,-1.34608z" fill="#a69cb5"></path><path d="M295.67476,251.02089c-0.75854,-0.28995 -1.24696,-1.21512 -1.85827,-1.79904c-0.17703,-0.1691 -0.34519,-0.34284 -0.50583,-0.52049l-1.74981,-0.09775c-0.52984,0.06536 -0.92108,-0.11378 -1.19988,-0.35244c-0.30218,-0.20546 -0.57668,-0.53396 -0.65413,-1.05838c-1.49811,-4.33632 -4.25164,-7.40418 -5.29379,-12.04035l-0.0253,-0.73342c0,0 0.03535,-0.61507 0.42904,-1.09434c-0.30217,-1.72764 -0.45703,-3.45812 -0.56877,-4.95983c-0.22035,-2.96122 -0.25248,-6.81352 -0.91525,-9.63013c-0.50878,-2.16219 -2.04651,-4.19623 -2.39503,-6.44825c-0.35545,-2.29678 -0.03729,-4.25186 -0.47778,-6.48257c-0.67559,-0.27368 -1.13387,-0.95457 -1.08972,-1.72276c0.02219,-0.38605 0.16791,-0.73567 0.39656,-1.01265l1.33558,-1.65953l0.0383,0.03082c0.07042,-0.10244 0.1462,-0.20166 0.22814,-0.29719c0.88173,-1.02803 4.24604,-2.33687 6.1529,-3.32631c0.0628,-0.21148 0.17656,-0.42425 0.36754,-0.61731c0.21069,-0.25957 0.52544,-0.48063 0.99512,-0.54488c0.46056,-0.1123 0.83442,-0.02195 1.12557,0.14237c0.48975,0.21618 0.72835,0.61359 0.84404,0.96879c2.18681,4.71484 4.83682,9.06141 6.70593,13.90203c1.75852,4.55421 2.80617,9.46642 4.66906,13.96313c0.70868,1.71062 1.19511,1.33017 2.58753,3.04742c1.23733,1.52599 1.99507,3.64742 2.9707,5.34864l-0.04537,0.28682l0.12494,-0.02805l0.38991,1.73637c0.04147,0.16682 0.05887,0.34264 0.04849,0.52327c-0.02118,0.36854 -0.15494,0.70388 -0.36595,0.97451c-0.06792,0.36585 -0.18953,0.73616 -0.28414,1.0725c-0.27573,0.98021 -0.70446,1.83221 -1.20334,2.62631c0.00943,0.02031 0.01876,0.04067 0.02796,0.06111c1.34622,2.98873 -0.52056,9.44029 -3.5834,10.81563c-0.41393,0.18587 -3.86871,-0.05686 -4.49435,-0.09282l-1.24795,-0.07172c0,0 -1.05667,-0.06073 -1.47924,-0.90949z" fill="#baafcc"></path><path d="M156.80217,301.95962c-0.78257,-0.04498 -1.41538,-0.59755 -1.59703,-1.31954c-0.00565,-0.00937 -0.01121,-0.01885 -0.01665,-0.02848c-0.56892,-1.00538 0.44359,-2.26756 0.68894,-3.39638c0.54861,-2.52405 2.26227,-3.90324 3.89538,-5.69399c0.41581,-0.56538 0.83639,-1.08449 1.26595,-1.57372c0.62163,-0.94921 0.6568,-1.46026 1.80065,-2.57611c0.15839,-0.15451 3.37964,-2.68221 3.90232,-2.75473l0.8286,-0.6135c-0.32635,-0.23862 -0.60043,-0.63684 -0.63581,-1.30063c-0.09314,-1.74752 1.65438,-1.84066 1.65438,-1.84066c4.62778,-0.24138 9.30839,0.27385 13.93524,0.53977l0.77553,0.04458c0.52883,-0.06466 0.91942,0.11432 1.19787,0.35269c0.30495,0.20734 0.58171,0.54 0.65621,1.07285c1.0355,3.03099 3.48619,4.63245 4.7023,7.75504l0.27343,1.63592c0,0 0.00919,0.06522 0.01135,0.17212c0.00666,0.10672 0.00288,0.17247 0.00288,0.17247c-0.00334,0.01761 -0.00653,0.0353 -0.00954,0.05307c-0.00569,0.07241 -0.01535,0.15155 -0.03089,0.23464c-0.08639,0.87755 0.0973,1.89364 -0.4918,2.51333c-0.77387,0.81405 -4.04332,1.03434 -5.21447,1.30355c-3.38334,0.77772 -6.12098,2.42596 -8.98907,4.23767l-0.37188,0.0732c-0.45826,0.20558 -0.9119,0.17952 -0.9119,0.17952c-0.61443,-0.03532 -1.22981,-0.07689 -1.84576,-0.11958c-3.02694,0.65231 -5.85999,1.12799 -8.67388,1.1019l-0.49851,0.5182c-0.34223,0.36005 -0.83469,0.5728 -1.36946,0.54206c-0.50726,-0.02916 -0.95161,-0.27158 -1.25093,-0.63518c-0.15007,0.0321 -0.30687,0.04483 -0.46749,0.0356c-0.47604,-0.02736 -0.89667,-0.24255 -1.19404,-0.56945z" fill="#baafcc"></path><path d="M251.22078,116.4132c-0.00528,-0.0003 -0.01055,-0.00062 -0.0158,-0.00096c-0.18225,0.26632 -0.49719,0.60641 -0.96938,0.73017c-0.30855,0.08308 -0.68339,0.07347 -1.12942,-0.11358c-0.44767,-0.1831 -0.71954,-0.44134 -0.87897,-0.71826c-0.25971,-0.44415 -0.22596,-0.93473 -0.15926,-1.25186c0.03663,-0.18014 0.0822,-0.29449 0.0822,-0.29449l0.00266,-0.00427c0.00949,-0.0256 0.01543,-0.03942 0.01543,-0.03942c0.09014,-0.20954 0.17807,-0.41626 0.26381,-0.62091c0.16023,-2.85573 0.51913,-9.13753 5.46711,-7.43739c1.0376,0.35652 1.10091,1.89813 1.65136,2.84719c0,0 0.61999,1.6022 -0.95607,2.24595c-0.34086,1.10619 -1.30706,2.01405 -1.56271,3.15563l0.03659,-0.14452c0,0 -0.10041,1.74711 -1.84753,1.6467z" fill="#6390d6"></path><path d="M240.25604,206.475c2.70551,0.00914 7.48724,-0.16819 9.93178,-1.54694c1.1452,-0.6459 2.08182,-1.62828 3.24247,-2.24599c1.30286,-0.69339 4.31438,-2.405 5.82479,-1.39388c0.07227,0.04838 1.55301,5.48045 1.68929,5.97635c0,0 0.02395,0.08782 0.0409,0.22887c0.02076,0.14054 0.02076,0.23158 0.02076,0.23158v1c0,4.62163 0.48741,9.53964 -0.30229,14.10985c-0.05439,0.31478 -0.94516,5.06124 -1.4812,5.84506c-1.2905,1.88702 -4.39861,2.9112 -6.2807,4.02386c-1.00499,0.59413 -1.87649,1.55884 -3.02581,1.7639c-0.81896,0.14613 -1.54907,-0.63131 -2.36319,-0.80237c-2.10154,-0.44156 -4.24838,-0.66558 -6.33937,-1.15077c-0.36362,-0.01279 -0.67324,-0.16164 -0.90143,-0.31844c-0.27822,-0.16638 -0.59305,-0.43881 -0.73919,-0.86289l-0.24432,-0.3742c-4.49861,-2.81213 -10.77537,-3.46065 -14.20511,-7.59753c-0.29707,-0.24669 -0.45119,-0.57698 -0.53116,-0.85329c-0.09005,-0.25574 -0.15434,-0.58879 -0.07908,-0.93889l0.01044,-0.59178c0.85142,-5.95471 1.49782,-11.96619 4.74841,-17.18001c0.68198,-1.09387 2.35638,-4.18743 3.82556,-4.31532c2.61405,-0.22753 5.15725,4.6804 6.15905,6.34245c0,0 0.1622,0.27034 0.23417,0.65037z" fill="#baafcc"></path><path d="M245.75604,239.475c-2.08334,0 -4.16666,0 -6.25,0h-1c0,0 -1.39899,0 -1.69528,-1.25084c-0.01817,0.00056 -0.03642,0.00084 -0.05472,0.00084c-0.91914,0 -1.67279,-0.70861 -1.74443,-1.60933l-0.24838,-2.73223l0.01681,-0.00153c-0.00752,-0.02582 -0.01493,-0.05169 -0.0222,-0.0776c-0.81773,-2.91234 0.69332,-6.4274 1.01131,-9.29312c0.26166,-2.35811 0.31443,-5.06584 1.08082,-7.35182c0.61869,-1.84542 2.43738,-3.67818 3.0085,-5.52428c0.65946,-2.13166 0.67824,-4.3806 1.07547,-6.5577c0.04766,-0.77946 0.07284,-1.56335 0.0721,-2.35237c0,0 0,-1.59558 1.52356,-1.73962c0.00917,-0.00544 0.01836,-0.01076 0.02758,-0.01597c0.30736,-0.21485 0.72783,-0.34586 1.28677,-0.21576c2.53785,0.31825 5.07152,0.66501 7.60966,0.98243c0.13977,-0.01677 0.29297,-0.01916 0.46087,-0.00389c0.56241,0.05113 0.92683,0.26724 1.16247,0.53654c0.24686,0.25906 0.42909,0.64155 0.42909,1.20628c0,0.12214 -0.00853,0.23576 -0.02439,0.34145c-0.76892,8.07456 -2.86527,16.08689 -4.77786,23.83298l0.05225,1.07556c0,0 0,0.02638 -0.00324,0.07265c-0.00062,0.04638 -0.00281,0.07268 -0.00281,0.07268c-0.25853,3.1003 -0.31131,6.26581 -1.04621,9.27911l-0.28517,0.19408c-0.35406,1.13148 -1.66258,1.13148 -1.66258,1.13148z" fill="#721c67"></path><path d="M245.62464,241.33744c-1.50475,-1.51371 -2.63734,-3.4881 -3.91257,-5.18743c0,0 -0.57047,-0.76063 -0.30978,-1.58106c-0.04022,-0.20248 -0.04022,-0.34394 -0.04022,-0.34394l0.03155,-0.69384c-0.0197,-0.02127 -0.03956,-0.04243 -0.05955,-0.0635c0.0247,-0.08429 0.04935,-0.16859 0.07394,-0.25291l0.0214,-0.47051c0.92117,-3.18696 0.86286,-6.5787 1.74766,-9.74174c1.36348,-4.87427 2.73522,-9.7312 3.6106,-14.73996c-0.17792,-0.23335 -0.35849,-0.46489 -0.54212,-0.69432c0,0 -1.09322,-1.36652 0.2733,-2.45974c0.60801,-0.48641 1.16192,-0.48587 1.58951,-0.33541c0.00596,-0.02949 0.0119,-0.05899 0.01785,-0.08848c0.05563,0.05696 0.11256,0.11273 0.17057,0.1675c0.42307,0.20629 0.6818,0.5297 0.6818,0.5297c0.03489,0.04363 0.06968,0.08734 0.10437,0.13111c0.56684,0.44254 1.15105,0.86973 1.60838,1.41656c0.94422,1.129 1.40153,2.24031 1.79202,3.39336c0.36318,0.5487 0.72481,1.09764 1.08919,1.6436c-0.06275,0.31492 -0.12555,0.62986 -0.18842,0.94479c0.03208,0.07775 0.06509,0.15584 0.09912,0.23428c2.26775,5.22644 6.37487,9.70556 9.61863,14.24935c1.90235,3.47156 4.87492,5.38258 7.48267,8.1726c4.27809,4.5771 8.18169,9.85689 11.68898,15.08542c1.97446,1.80244 3.24112,3.95696 5.37701,6.23143c2.25803,2.40454 5.36642,4.22311 7.19678,7.00339c1.96073,2.9783 4.16279,5.26487 6.39479,8.10272c1.74739,2.22169 2.91719,4.80559 4.74356,6.99195c6.01761,7.73555 10.45714,15.95803 16.73131,23.47719l0.93824,0.30508c0,0 0.53072,0.26536 0.81957,0.79608c1.55667,0.53814 1.074,2.14703 1.074,2.14703c-0.03771,0.12562 -0.07508,0.25115 -0.11212,0.3766c0.18915,1.11751 0.06663,2.59811 -0.20527,3.89815c0.39824,1.03883 -0.05584,2.46896 0.12264,3.46826c0.25361,1.41992 0.55187,2.8329 0.75164,4.26139c0.42371,3.02989 1.38153,6.57446 2.20192,9.52022c0.02749,0.09872 0.05793,0.19488 0.09084,0.28884c0.72004,0.79892 1.41974,1.55971 2.01956,2.25608c0.25983,0.26401 0.51539,0.66288 0.48678,1.1966c0.0024,0.07396 -0.00046,0.14984 -0.00982,0.22712l0.24275,0.08092c0.7151,0.21992 1.23488,0.88574 1.23488,1.67296c0,0.9665 -0.7835,1.75 -1.75,1.75h-1.75v-0.48867l-0.21379,-0.07126l-0.84005,0.20704c-0.0916,-0.21347 -0.18914,-0.42717 -0.29109,-0.64119c-0.02472,-0.00377 -0.04974,-0.00949 -0.0751,-0.01728c-1.43085,-0.43977 -2.04929,-2.28361 -3.39468,-2.93985c-2.21342,-1.07963 -4.25029,-1.75056 -6.36279,-3.06479l-0.88775,-1.20137c0,0 -0.38887,-0.77774 -0.07015,-1.51088c-0.1304,-0.06995 -0.26193,-0.1384 -0.39467,-0.20522c-4.37626,-2.20331 -10.16476,-2.31652 -14.96992,-2.31652c0,0 -0.0711,0 -0.18465,-0.01433c-0.34397,-0.02969 -0.80653,-0.14896 -1.14258,-0.53607c-0.21119,-0.22446 -0.37392,-0.54045 -0.41352,-0.98531l-0.71535,-0.74355c-1.42964,-2.1619 -1.7363,-4.91583 -3.21358,-6.94749c-1.18188,-1.62541 -3.05084,-2.60334 -4.0931,-4.39346c-1.03467,-1.77709 -1.57793,-3.90364 -2.70181,-5.67192c-0.71362,-1.1228 -1.93014,-1.85323 -2.70509,-2.93462c-1.1747,-1.63921 -2.13286,-3.52205 -3.30109,-5.21634c-0.24018,-0.23528 -0.37136,-0.52616 -0.44301,-0.77373c-0.04871,-0.13834 -0.08988,-0.2993 -0.10551,-0.47334c-0.17316,-0.40877 -0.34631,-0.81753 -0.51946,-1.2263c-1.40395,-2.1096 -3.6117,-3.51472 -4.95335,-5.66911c-1.16757,-1.87485 -1.79856,-4.14409 -2.8024,-6.09159c-1.05115,-2.03928 -3.22575,-2.73012 -4.09567,-4.96262c-0.25106,-0.6443 -0.05727,-1.39888 -0.27004,-2.05682c-0.57306,-1.77206 -2.2141,-3.12293 -3.10258,-4.67362c-1.46445,-2.55595 -2.58979,-4.18794 -4.56592,-6.4909c0,0 -0.66557,-0.77649 -0.3855,-1.65108c-0.24949,-0.3199 -0.49128,-0.64887 -0.72324,-0.98967c-0.72379,-1.06341 -0.85463,-2.44784 -1.52907,-3.54322c-0.72541,-1.17817 -2.31746,-1.51441 -3.51345,-2.21004c-2.12726,-3.5812 -5.52205,-6.10069 -7.93972,-9.47163c-0.6654,-0.92777 -1.25399,-1.90628 -1.80745,-2.90807c-0.18153,-0.15654 -0.35608,-0.31683 -0.52085,-0.48259z" fill="#f0bcd4"></path><path d="M304.80001,-11.69062c12.0971,0 24.56754,-1.3093 35.6697,3.63321c2.70155,1.20269 5.34717,1.13692 7.84106,2.6882c2.47377,1.89296 5.20279,2.16412 7.8816,3.67769c1.122,-0.00295 3.89208,-0.00706 4.16104,0.09071c1.66966,0.60692 4.59844,3.08102 5.75816,4.50072c1.2861,0.12139 2.57342,0.22146 3.89641,0.55908l0.19511,0.24578l0.06764,-0.10147l0.57226,0.38151c1.11209,-0.35939 1.8723,0.6859 1.8723,0.6859c4.58122,6.29918 8.95789,12.51579 11.25976,20.02264c0.58949,1.92243 1.70452,3.6937 2.04337,5.67572c0.19261,1.12662 -0.20432,2.30165 -0.01524,3.42887c0.24661,1.47017 1.62618,2.55692 2,4c0.64529,2.49108 1.28843,5.62809 1.53723,8.24068c0.23054,2.42078 -0.09757,4.2866 1.33483,6.3991c1.857,5.49322 3.44996,10.79378 4.16494,16.57721c0.36645,2.96421 0.16409,6.00488 0.4967,8.97126c0.1517,1.35287 1.22313,2.4723 1.4663,3.81175c0.48477,2.67032 -0.30708,5.50831 0.0337,8.18825c0.59392,4.67058 1.87497,9.28822 2.49791,13.98366l0.01073,0.51553c0.18842,0.88828 0.21225,1.80409 0.25268,2.71772c0.0466,0.12979 0.09426,0.25971 0.14309,0.38976c0.75878,2.02116 1.66692,2.38774 2.07712,4.77622c0.14944,0.87012 0.16606,1.75838 0.13524,2.65288c0.80109,1.75357 1.57128,3.52233 1.87374,5.39773c1.50101,9.30706 3.46169,21.34193 -0.12988,30.49476c-1.593,3.13362 -1.56535,6.01043 -1.85348,9.4299c-0.09602,1.13952 -0.31511,2.26578 -0.56264,3.38703c0.0686,0.26668 0.0686,0.46862 0.0686,0.46862c0,0.66667 0,1.83333 0,2.5c0,6.01219 -0.50468,12.91976 -2.6087,18.60716c-1.77767,4.80524 -3.70465,9.47766 -5.20553,14.47798c-0.8592,2.86251 -0.79139,6.23227 -1.79355,9.01951c-0.33734,0.93823 -1.12638,1.65878 -1.52805,2.57132c-1.58297,3.5963 -2.01269,7.75796 -3.46764,11.43919c-3.29596,8.30492 -5.30065,17.39265 -9.63152,25.26075c-3.46096,6.2877 -6.96236,12.68285 -10.49129,18.98477c-0.8621,1.53952 -2.15039,2.82287 -2.9465,4.39753c-1.71699,3.39611 -2.66061,7.84282 -3.98253,11.46254c-4.30727,7.91493 -9.33986,15.05267 -14.08269,22.66038c-0.94814,1.52085 -1.41764,3.29417 -2.21701,4.89821c-2.60944,5.23613 -5.78775,10.15785 -8.49673,15.33187c-1.09042,2.08265 -2.00948,4.1117 -3.2865,5.96228c0.22982,0.17272 1.31643,1.08912 0.44434,2.39726c-0.97073,1.45609 -2.42681,0.48536 -2.42681,0.48536c-0.14827,-0.09933 -0.29492,-0.1998 -0.44003,-0.30136c-0.47428,0.19609 -1.15048,0.25891 -1.82669,-0.41729c-0.50296,-0.50296 -0.59706,-1.00591 -0.53158,-1.42578c-3.30012,-2.84766 -5.90938,-6.2015 -9.15993,-9.21573c-4.17355,-3.87013 -9.76738,-4.83509 -13.82767,-8.87797c-1.68204,-1.67482 -3.92228,-4.35868 -4.84879,-6.52142c-0.43521,-1.01591 -0.39138,-2.20487 -0.87766,-3.19735c-1.3761,-2.80856 -4.6519,-5.79859 -7.16353,-7.67714c-3.0763,-3.0828 -4.73814,-6.8131 -7.54543,-10.01007c-2.27735,-2.59347 -4.03801,-5.28865 -6.21074,-8.06922c-1.068,-1.36678 -1.97585,-1.90598 -2.69763,-3.53478c-1.08984,-2.45939 -1.64818,-4.92896 -3.31223,-7.17503c-1.75709,-2.37165 -3.94773,-3.20387 -5.87961,-5.35285c-3.32613,-3.6999 -5.98556,-7.69931 -7.21189,-12.50757c-1.29059,-3.10605 -3.74961,-4.26535 -6.11718,-6.32895c-1.70561,-1.48663 -2.87745,-3.84762 -4.28955,-5.6864c-0.19557,0.47555 -0.62892,1.00242 -1.58914,1.00242c-1.75,0 -1.75,-1.75 -1.75,-1.75c0,-2.21053 0,-4.42107 0,-6.6316c-0.53919,-0.8454 -1.29183,-1.7996 -1.42491,-2.27086c-0.22722,-0.80462 -0.05006,-1.67141 -0.07509,-2.50712v-1.5c0,0 0,-1.57909 1.5,-1.73727c0,-1.11771 0,-2.23543 0,-3.35314c0,-1.89958 -0.51909,-5.33699 0.0898,-7.0534c1.2394,-3.49371 3.66934,-3.52402 6.4905,-4.56339c2.97333,-1.09544 6.89753,-3.05397 9.14645,-5.30288c2.86761,-1.43381 3.93929,-4.00809 6.64487,-5.59392c2.56102,-1.50109 5.20432,-2.88941 7.9624,-3.99664c0.23429,-0.09406 3.70954,-1.27459 3.81334,-1.3487c2.09678,-1.49706 4.02835,-4.78361 5.75139,-6.75311c1.19556,-1.36657 2.87144,-2.22351 4.328,-3.30763c3.94591,-2.93693 7.70238,-6.99101 9.56227,-11.54369c2.51699,-2.55568 4.19962,-5.75017 6.72354,-8.27408c2.38434,-2.38434 4.94762,-3.87761 6.63328,-6.99547c2.73858,-5.0654 4.29783,-10.04481 8.58131,-14.12932l0.23605,-1.1343c0.00987,-0.34331 0.13794,-0.64404 0.26793,-0.86345c0.11013,-0.20376 0.2786,-0.44067 0.52533,-0.6211c2.46181,-2.55666 3.31404,-6.47183 4.85861,-9.61526c1.74414,-3.5496 4.21489,-6.85624 6.11991,-10.27957c1.40608,-2.52673 1.96723,-5.43349 2.84831,-8.15754c1.80815,-5.59031 3.41217,-10.83349 3.43931,-16.74687c1.31364,-3.99338 1.46258,-7.83048 1.47681,-11.8976c-0.00837,-15.85886 -0.10133,-31.72133 0.0175,-47.57936c-0.8844,-3.09262 -2.62181,-5.14299 -3.86731,-8.03474c-0.82373,-1.9125 -1.66367,-3.84487 -2.11803,-5.87704c-0.12935,-0.57855 0.26744,-1.22285 0.05823,-1.77754c-0.25833,-0.68493 -1.0372,-1.06303 -1.37462,-1.71266c-1.06361,-2.04776 -1.33124,-4.46168 -2.47932,-6.46331c-1.23458,-2.15244 -3.43319,-3.881 -4.566,-6.12533c-0.31682,-0.62768 -0.26444,-1.38922 -0.52026,-2.04413c-0.69653,-1.78318 -2.84269,-2.18159 -4.08222,-3.41805c-0.71369,-0.71191 -1.08891,-1.73524 -1.86005,-2.38446c-1.00029,-0.84214 -2.60695,-0.32654 -3.85939,-0.70228c-2.16479,-0.64944 -4.12351,-1.87169 -6.26763,-2.5864c-2.03635,-1.07391 -3.05053,-0.86679 -5.3303,-0.86679h-0.5c0,0 -1.75,0 -1.75,-1.75c0,-1.75 1.75,-1.75 1.75,-1.75h0.5c0.20973,0 0.41248,-0.00027 0.60926,-0.00019c0.22715,-0.05002 0.39074,-0.05002 0.39074,-0.05002zM401.93767,135.21301c-0.07933,-2.04865 -0.30171,-4.13292 -0.63688,-6.01997c-0.01648,0.42807 -0.03328,0.85578 -0.04999,1.28291c0.225,1.53718 0.47061,3.12677 0.68687,4.73706z" fill-opacity="0.96863" fill="#f0bbd4"></path><path d="M246.28494,203.91162c0.30214,-1.10467 1.76696,-1.45842 2.62012,-2.22242c0.84792,-0.75931 1.48789,-1.79018 2.48124,-2.34586c1.05893,-0.59236 2.43354,-0.4213 3.5,-1c0.77,-0.41783 1.08592,-1.42154 1.82612,-1.89014c4.16501,-2.63675 9.14071,-3.8326 13.49549,-5.77573c0.85542,-0.38169 1.40285,-1.34299 2.29881,-1.61628c0.95649,-0.29176 2.01321,0.16202 3,0c1.15704,-0.18997 1.22718,-2.00644 1.96607,-2.91687c1.88169,-2.31853 2.80549,-2.86006 4.93226,-4.45514c2.07219,-2.04993 4.91895,-4.6441 7.30736,-6.23599c0.99398,-0.66249 2.32274,-0.69723 3.31381,-1.36407c0.52376,-0.35241 0.63806,-1.09837 1.05301,-1.57412c2.6621,-3.05217 4.85273,-6.3904 7.47541,-9.47131c1.91449,-2.24898 4.228,-3.79019 6.28923,-5.75294c0.10974,-0.23772 0.22288,-0.47376 0.34021,-0.70772c1.11808,-2.22943 2.53068,-4.36896 3.98873,-6.4617c0.4087,-1.13365 0.85467,-2.32009 1.54803,-3.60361c1.58126,-2.92717 4.21453,-5.65788 6.21361,-8.32332l1.3019,-1.3481c0,0 0.49122,-0.49122 1.24656,-0.79234c0.12877,-0.57733 0.26041,-1.14462 0.39858,-1.6978c0,0 0.78824,-3.15296 3.9412,-2.36472c3.15296,0.78824 2.36472,3.9412 2.36472,3.9412c-1.40776,5.62606 -2.37246,11.96956 -5.41537,16.96336c-2.63742,4.32834 -7.25314,7.03328 -10.06924,11.10377c-2.58038,3.72977 -3.69874,7.25764 -7.00086,10.5663l-0.18711,0.05381l0.04988,0.06235l-2.47978,1.98383c-0.55931,0.45536 -1.27301,0.72835 -2.05048,0.72835c-0.28998,0 -0.57109,-0.03798 -0.83863,-0.10923c-0.51685,0.8471 -0.89374,1.8174 -1.44346,2.64122c-2.38803,3.57877 -5.26498,7.53005 -8.92881,9.93125c-2.67719,1.75458 -5.82889,1.94192 -8.41199,3.93987c-2.22219,1.43559 -3.78716,3.69864 -5.57901,5.64499c-1.9132,2.07817 -5.18669,3.86698 -7.49532,5.40607c-5.48385,3.6559 -10.44929,7.2385 -16.77504,9.37906l-2.2395,0.56974c0,0 -0.09334,0.02333 -0.25191,0.04591c-0.64048,0.12441 -1.51931,0.13778 -2.3117,-0.39297c-0.51972,-0.31018 -0.99375,-0.82785 -1.27822,-1.67631c-0.33619,-0.82933 -0.31317,-1.53087 -0.12043,-2.10461c0.00698,-0.02501 0.01426,-0.04976 0.02185,-0.07424c-1.11657,-0.76521 -1.16778,-2.76989 -0.09735,-6.68355z" fill-opacity="0.95294" fill="#731d67"></path><path d="M345.03447,89.89443c3.25,0 3.25,3.25 3.25,3.25l-0.71218,4.03026c-2.8657,3.44451 -1.61692,4.90281 -2.32979,8.99033c-0.37501,2.15027 -0.99696,4.25124 -1.57824,6.35514c-1.24823,4.51787 -3.52422,9.61425 -5.77213,13.67226c-0.71902,1.298 -1.50601,2.58077 -2.49669,3.68546c-0.3611,0.40266 -1.2585,0.21574 -1.45409,0.71999c-0.31103,0.8019 0.43773,1.75487 0.17633,2.5743c-0.34082,1.06837 -1.2814,1.84139 -1.88621,2.78572c-1.59778,2.49472 -3.2649,7.08914 -6.48838,7.95115c-0.09622,0.02573 -0.19264,0.05043 -0.28924,0.07416l0.03406,0.06812l-3.94152,1.97076c-0.45163,0.23778 -0.96606,0.37235 -1.51192,0.37235c-1.79493,0 -3.25,-1.45507 -3.25,-3.25c0,-1.07681 0.52368,-2.0313 1.33026,-2.62269l1.68629,-1.26472c2.4233,-3.35412 4.61262,-7.07533 6.23839,-10.87437c0.49191,-1.14947 0.52087,-2.4673 1.04521,-3.60235c1.4196,-3.07307 3.21902,-5.451 4.38764,-8.72459c1.03328,-2.89448 1.36523,-6.45611 2.59527,-9.23783c0.39468,-0.89258 1.19846,-1.54626 1.70233,-2.38207c1.67513,-2.77867 2.22753,-5.58243 4.16462,-8.24137c0,0 0.43923,-0.58565 1.17873,-0.99258c0.3896,-0.7009 0.84558,-1.39659 1.38345,-2.08768l-0.71218,0.03026c0,0 0,-3.25 3.25,-3.25z" fill-opacity="0.63922" fill="#731d67"></path><path d="M345.03447,50.60233c3.25,0 3.25,3.25 3.25,3.25c0,5.66667 0,14.33333 0,20c0,1.25618 0.00949,6.74255 -0.05215,7.07988c-0.27503,1.50512 -1.11344,2.8528 -1.5727,4.31229c-0.52432,1.66626 0.48891,3.73921 -0.43379,5.22243c-0.11125,0.17883 -0.22945,0.35207 -0.35369,0.52047l0.17988,0.07195l-0.97188,2.42971c-0.46088,1.23432 -1.65063,2.11327 -3.04567,2.11327c-1.79493,0 -3.25,-1.45507 -3.25,-3.25c0,-0.24145 0.02633,-0.47675 0.07627,-0.70318l0.47947,-2.39734c0.06398,-0.37561 0.12323,-0.75304 0.17804,-1.13214c0.01084,-0.11165 0.02774,-0.22588 0.04808,-0.34123c1.12877,-8.22383 0.21814,-17.20663 0.21814,-25.42611c0,0 0,-2.35133 2,-3.054c0,-0.81533 0,-1.63066 0,-2.446v-3c0,0 0,-3.25 3.25,-3.25z" fill-opacity="0.38039" fill="#731d67"></path><path d="M297.46718,164.74212c-0.79379,1.34519 -1.67162,2.64835 -2.49053,3.37131c-0.72358,0.6388 -1.5602,1.21832 -2.47171,1.74913l-0.12172,0.36517l-0.03056,-0.01019c-0.02465,0.09727 -0.05056,0.19431 -0.07778,0.2911c-0.55628,1.9778 -1.7344,3.77816 -3.05051,5.35582c-0.56937,0.68252 -1.38282,1.09678 -2.16355,1.55112c-0.32873,0.52789 -0.80464,0.95461 -1.37035,1.22279l-0.31977,0.15988c-0.4329,0.65443 -0.63427,1.48693 -1.15726,2.07839c-1.41639,1.60183 -4.66813,2.96897 -5.7769,4.72366c-0.56308,0.8911 -0.39912,2.13394 -1,3c-0.61596,0.8878 -1.71342,1.32169 -2.50713,2.05492c-3.35039,3.09507 -5.67038,5.34856 -9.92239,7.06232c-3.37613,1.36074 -6.15144,3.51065 -9.93896,3.22138c-1.08344,-0.08275 -2.52944,0.25327 -3.73036,0.26111c-2.26081,0.91666 -4.73796,1.40174 -7.5377,1.24996c-1.93513,-0.10491 -4.20299,0.57679 -5.7891,-0.53677c-1.80506,-1.26728 -2.55866,-3.15964 -2.84053,-5.13084c-2.30566,0.80885 -4.67919,1.09232 -6.00691,-1.18208c-3.45258,-5.91433 3.1749,-8.37701 6.30515,-9.86509c3.403,-1.61773 6.99767,-2.59993 10.55257,-3.74728c-1.77715,0.36924 -3.55722,0.7388 -5.36228,0.94219c0,0 -3.23012,0.3589 -3.58902,-2.87122c-0.3589,-3.23012 2.87122,-3.58902 2.87122,-3.58902c4.10649,-0.44921 8.01824,-1.70516 12.12851,-2.0117c5.22973,-0.39003 9.22755,-0.60891 14.14167,-2.3204c0.2324,-0.08094 0.47334,-0.1376 0.7177,-0.184c1.9951,-1.22133 3.95913,-2.48947 5.89325,-3.79087c1.68419,-0.50229 3.21025,-1.18489 4.72174,-1.86092c0.45928,-0.38709 0.886,-0.82766 1.42948,-1.06894c0.47555,-0.21113 1.03931,-0.14936 1.56383,-0.19909c0.30892,-0.11672 0.62099,-0.22833 0.93732,-0.33338c0.77171,-0.56812 1.17792,-1.67571 2.08168,-2.00319c1.2414,-0.44983 2.63156,-0.15306 3.95663,-0.18291l2.01164,-0.80465c0.30344,-0.1296 0.6306,-0.21436 0.97316,-0.24595c0.95123,-0.8664 1.71855,-2.04281 2.84224,-2.5923c0.20425,-0.44251 0.41441,-0.87924 0.64573,-1.29702l0.05119,-0.03243l-0.02372,-0.01423l1.46935,-2.44892c0.56137,-0.97361 1.6129,-1.62897 2.8175,-1.62897c1.79493,0 3.25,1.45507 3.25,3.25c0,0.54586 -0.13457,1.06029 -0.37235,1.51192l-1.97076,3.94152l-0.11059,-0.0553c-0.06696,0.19836 -0.14147,0.39472 -0.22446,0.58885c-0.32044,0.74964 -0.80641,1.42749 -1.40466,2.05513zM251.27525,191.65106c-3.27969,1.07006 -6.57707,2.06977 -9.91505,2.89634c-0.20913,0.85156 -0.4261,1.68388 0.22892,1.93936c0.70654,0.27557 1.45604,-0.46382 2.2109,-0.53677c1.47423,-0.14247 3.36554,0.2953 4.86609,-0.29577c0.2376,-0.09359 0.50751,-0.23117 0.79929,-0.40146c0.46744,-1.27432 1.14548,-2.51082 1.8037,-3.59162c0.00205,-0.00336 0.0041,-0.00672 0.00615,-0.01007zM269.67337,186.71591c-0.43816,0.22576 -0.8762,0.45176 -1.31412,0.678c-0.36488,0.2436 -0.73338,0.49621 -1.10497,0.75585c-0.97655,0.90672 -1.93269,1.8492 -2.88345,2.79838c1.00123,-0.44624 1.96695,-0.98307 2.86872,-1.7615c0.87497,-0.7553 1.63232,-1.63641 2.43382,-2.47073zM276.3273,173.81508c-0.62824,0.34339 -1.16461,0.83612 -1.68963,1.3495l3.50262,-1.40105l0.36163,-0.36163c0.03476,-0.03393 0.06916,-0.06816 0.10322,-0.10268c-0.0222,-0.11909 -0.0379,-0.24047 -0.04673,-0.36374c-0.72021,0.31851 -1.45702,0.62136 -2.23112,0.8796zM274.55548,175.24516c0.01878,-0.00524 0.03756,-0.01044 0.05636,-0.01558l-0.01142,-0.02854c-0.01499,0.01469 -0.02997,0.0294 -0.04494,0.04412z" fill-opacity="0.46667" fill="#638fd6"></path></g><g><path d="M119.21771,283.28164c0.11043,-0.18581 0.2305,-0.37798 0.35817,-0.57403c-0.11673,0.20144 -0.23559,0.39417 -0.35817,0.57403z" fill="#9966ff"></path><path d="M276.05636,283.04162c-2.63662,-3.95422 -4.72652,-8.80016 -7.78799,-12.38076c-1.42962,-1.67203 -3.2271,-3.00319 -4.66667,-4.66667c-1.89564,-2.19047 -3.12251,-5.12138 -5.17957,-7.16632c-2.60489,-2.58953 -6.17487,-4.22178 -8.31122,-7.37163c-0.91248,-1.34538 -1.26455,-3.00261 -2.0587,-4.42106c-0.73264,-1.30858 -2.48167,-1.68861 -3.66221,-2.61354c-1.1963,-0.93728 -2.51357,-2.50745 -3.6502,-4.32152c-1.14708,0.71709 -2.78045,0.7368 -5.06147,-0.37941c-1.64802,-0.80645 -2.06292,-9.07155 -1.71722,-10.75102c0.12634,-0.61376 0.77397,-1.04414 1.0117,-1.60918c-0.16551,0.01325 -0.33158,0.02538 -0.49766,0.03472c-0.13344,0.10319 -0.26829,0.18106 -0.37847,0.1711c-0.09135,-0.00826 -0.18301,-0.01672 -0.27487,-0.0255c-2.44084,1.42527 -4.98151,-0.06542 -6.94424,-2.28344c-2.76967,-3.12992 -1.93018,-7.28447 -1.90697,-11.0434l0.20165,-0.29593l-0.14015,-0.03504l0.65271,-2.61086c0.10672,-0.47027 0.33396,-0.89477 0.64754,-1.2393c-0.16758,-0.82545 -0.12686,-2.14355 1.47113,-2.94255c2.45967,-1.22984 3.68951,1.22984 3.68951,1.22984c1.68894,3.38437 3.99127,7.76325 4.53661,11.5434c0.09405,0.65196 0.26304,1.34882 0.38933,2.04354c1.59248,-0.04756 3.14071,-0.16691 3.889,0.41197c0.78155,0.60462 1.19605,1.52827 1.50011,2.51615c0.7513,0.12121 1.4007,0.54679 1.81767,1.14618l1.50537,2.10751c2.88317,2.49581 6.12811,3.75418 8.51275,6.91934c2.11692,2.8098 3.43875,6.30102 5.8135,9.08858c1.63555,1.91986 3.53415,3.62646 5.06552,5.62563c0.48577,0.24708 0.78833,0.54964 0.78833,0.54964l1.95989,2.01281c1.23153,1.7405 2.10678,3.70752 3.14978,5.56714c1.71659,3.0606 4.25912,5.76868 5.79512,8.94902c1.60715,3.32767 2.69602,6.88891 4.29426,10.22086c1.39685,2.91211 2.43416,5.04541 3.26745,7.33396c0.12468,0.14975 0.2505,0.2985 0.37742,0.44622l0.16634,-0.11089l1.97914,2.96872c0.30449,0.44263 0.48272,0.97885 0.48272,1.55671c0,1.51878 -1.23122,2.75 -2.75,2.75c-0.91114,0 -1.71879,-0.44312 -2.2192,-1.1256l-1.94097,-2.58796c-1.39719,-1.63839 -2.67151,-3.38813 -3.81681,-5.21148z" fill-opacity="0.37255" fill="#2e1340"></path><path d="M246.61668,115.46666c0,-1.34722 0.66,-2.03444 1.33333,-2.38499v-2.28168h0.26671c-0.06438,-0.21061 -0.12876,-0.42121 -0.19314,-0.63182l0.44252,-0.48514l-0.22576,-0.11288l1.30669,-2.61338c0.44095,-0.93018 1.38851,-1.57345 2.48632,-1.57345c1.33266,0 2.44391,0.94794 2.69626,2.20632l0.65492,2.94712l-0.09936,0.02208c0.51125,1.47455 0.39343,3.01218 -1.03813,5.20607c-0.69351,1.06282 -2.12176,1.39294 -3.18264,2.08941l-1.69772,0.36233c0,0 -2.75,0 -2.75,-2.75z" fill-opacity="0.37255" fill="#2e1340"></path><path d="M214.44489,165.45141c-0.93448,-1.49006 -1.53713,-3.18489 -2.56731,-4.61069c-0.6763,-0.93602 -2.87478,-1.83984 -3.68457,-2.22042c-3.20463,-1.50613 -6.57851,-2.14371 -9.98211,-2.66271c-1.17568,-0.13139 -2.33141,-0.30777 -3.47499,-0.5175c-1.68566,-0.25971 -3.36698,-0.55276 -5.02709,-0.96995c-0.37923,-0.0953 -0.75564,-0.20166 -1.12928,-0.31829c-0.91969,-0.11573 -1.83061,-0.24845 -2.73295,-0.40207c-0.4768,-0.25437 -0.94745,-0.53811 -1.41421,-0.84044c-0.06683,-0.07838 -0.13392,-0.15679 -0.20128,-0.23522c-3.16684,-0.62928 -5.37453,-2.00791 -8.1295,-3.9697c0,0 -0.8943,-0.63878 -1.14838,-1.67406l-0.79942,-0.2907c-1.08744,-0.36683 -1.87046,-1.39515 -1.87046,-2.60634c0,-1.51878 1.23122,-2.75 2.75,-2.75h3v0.07122l0.17088,-0.06591c3.10766,0.46557 5.38639,1.5603 7.26799,3.15773c1.64126,0.35637 3.2307,0.98067 4.89714,1.19089c0.87218,0.11003 1.76226,0.19976 2.66612,0.26996c0.24997,-0.39845 0.59927,-0.72826 1.01318,-0.95472l2.28698,-1.30685c0.03385,-0.02944 0.07145,-0.05989 0.11234,-0.09106c-3.88024,-0.93511 -7.64872,-1.90179 -11.30712,-3.72626c-3.18038,-1.58607 -6.45139,-3.29311 -9.51015,-5.09874c-2.25484,-1.33106 -4.23452,-3.181 -6.66262,-4.16097c-2.85089,-1.15061 -5.78233,-2.26124 -8.29379,-4.0344c-3.18867,-2.25128 -5.81943,-5.79029 -8.58549,-8.55635c0,0 -1.94454,-1.94454 0,-3.88909c0.26589,-0.26589 0.53178,-0.45907 0.7927,-0.59444c-0.97827,-1.88984 -1.72607,-3.85661 -2.18882,-5.81894c-0.27819,-1.17969 -1.37207,-6.48781 -0.68651,-7.86167c0.08321,-0.16676 0.17419,-0.3282 0.27186,-0.48506l-0.10567,-0.04529l0.97503,-2.27508c0.4064,-1.01111 1.39614,-1.72497 2.55261,-1.72497c1.42744,0 2.60086,1.08757 2.73684,2.47929l0.28173,2.53557c2.09063,3.47791 3.46815,7.41802 5.57052,10.82889c1.01114,1.64047 2.86481,2.57839 4.27866,3.88783c3.04397,2.81918 6.26074,5.06833 9.68357,7.41443c3.86264,2.64755 8.02779,4.42495 11.96524,6.97664c1.70345,1.10393 3.4138,2.25683 5.10495,3.45555c0.50339,-0.55962 1.23318,-0.91153 2.04515,-0.91153h2.66667c5.11111,0 10.22222,-0.00158 15.33333,0c1.3058,0.0004 5.91882,0.07428 7.19268,-0.21216c1.03481,-0.23269 3.44492,-2.66908 3.88985,-2.9524c0.45209,-0.28788 1.10877,-0.14607 1.53896,-0.46574c0.94387,-0.70137 -1.39206,-1.89949 -2,-2.90607c-0.22225,-0.36798 -0.42244,-0.74817 -0.61069,-1.13496c-0.47326,-0.18329 -0.92486,-0.40516 -1.32644,-0.71123c-1.74092,-1.32691 -2.49155,-3.72537 -4.29232,-4.96986c-1.10646,-0.76466 -2.30999,-1.4196 -3.54305,-2.04718c-1.42755,-0.44431 -2.79975,-1.05845 -4.07254,-1.91688c-0.30174,-0.20351 -0.5915,-0.42244 -0.87299,-0.65203c-0.30151,-0.17762 -0.59912,-0.36054 -0.89174,-0.5501c-0.34239,-0.03988 -0.66558,-0.14265 -0.95771,-0.29646l-2.61718,-1.30859l0.01907,-0.03815c-0.06942,-0.02111 -0.13866,-0.04295 -0.2077,-0.06559c-0.66123,-0.21674 -5.01578,-3.79277 -5.38109,-4.02942c-1.65401,-1.0715 -3.49924,-1.81728 -5.20301,-2.80774l-0.18851,-0.3277l-0.0868,0.0868l-2.33333,-2.33333c-0.49765,-0.49765 -0.80546,-1.18515 -0.80546,-1.94454c0,-1.51878 1.23122,-2.75 2.75,-2.75h3.33333v0.41046c2.16752,-0.28079 4.33303,-0.27068 6.57696,0.25842l1.35428,-1.20381c0.12151,-1.18041 0.98965,-2.13943 2.12425,-2.39691l2.61086,-0.65271c5.93169,-1.4409 12.85505,-0.66191 18.44432,1.81883c1.69279,0.75133 5.11332,2.05354 6.73376,3.7776c0.83783,-0.06315 2.18595,0.13304 2.76444,1.8685c0.86963,2.60888 -1.73925,3.47851 -1.73925,3.47851l-0.07011,0.01779l0.26259,2.36327c0.01401,0.1125 0.02123,0.2271 0.02123,0.3434c0,0.78728 -0.33082,1.49729 -0.86104,1.99859c2.43517,1.6333 4.59618,3.67447 4.52326,6.84503c-0.05252,2.28353 -0.64704,4.11193 -1.8559,5.10865c0.14443,-0.02343 0.29263,-0.03561 0.44368,-0.03561c1.04123,0 1.9473,0.57868 2.41415,1.43197l1.30685,2.28698l-0.19525,0.11157l0.38297,0.28851c0.06592,0.31454 0.1378,0.62802 0.21336,0.94082c1.2796,0.85374 1.45097,2.9577 2.53831,4.12939c1.33161,1.43491 2.92606,1.89608 4.16204,3.52003c0.11897,0.15632 0.23736,0.32882 0.35478,0.51508c0.25278,0.13463 0.51005,0.32383 0.76733,0.58111c0.94604,0.94604 0.97156,1.89208 0.74833,2.6142c0.36912,0.9625 0.7009,1.96123 0.97591,2.87568c0.29549,0.11312 0.59493,0.21741 0.8975,0.31284c-0.16278,-2.6408 -0.45441,-6.09421 0.8225,-7.13606c1.48386,-1.21071 3.80406,-0.94979 5.70267,-0.69889c1.22038,0.16127 2.09092,1.30443 3.18269,1.87309c2.31049,1.20344 4.57474,2.44656 6.99932,3.39525c0.01443,-0.00054 0.02883,-0.00106 0.0432,-0.00155c-0.189,-0.24383 -0.38275,-0.47855 -0.59454,-0.6788l-1.01026,-1.41912c0,0 -0.8126,-1.2189 -0.36199,-2.47052c-0.56262,-0.921 -1.07525,-1.89422 -1.54419,-2.97163c0,0 -1.08328,-2.52765 1.44437,-3.61093c2.52765,-1.08328 3.61093,1.44437 3.61093,1.44437c0.87627,2.08539 1.97703,3.62931 3.36098,5.34052c0.36804,-0.20755 0.83986,-0.34058 1.4447,-0.34058c2.75,0 2.75,2.75 2.75,2.75v0.66667c-0.00896,0.44189 -0.04935,0.88497 -0.06373,1.32707c0.85936,-1.35035 2.2372,-2.7429 2.60792,-3.38437c4.43271,-7.67004 9.1284,-14.39598 15.12392,-20.89512c0.4572,-0.70929 1.06827,-1.00203 1.63837,-1.09742c0.55561,-0.15744 1.23242,-0.1543 1.94829,0.29007l1.41184,0.56546c2.81421,1.22485 5.10843,2.90608 7.70755,4.52899c0,0 2.332,1.4575 0.8745,3.78949c-1.4575,2.332 -3.78949,0.8745 -3.78949,0.8745c-2.29449,-1.43535 -4.32463,-2.99938 -6.79583,-4.06806c-5.23273,5.85783 -9.37026,11.9212 -13.3742,18.79337c-0.66758,1.1458 -1.485,2.19434 -2.28963,3.25157c0.79921,0.48107 1.33382,1.357 1.33382,2.3578c0,0.70552 -0.26568,1.34898 -0.70245,1.8358l-0.36135,0.40652c0.25203,0.41544 0.39714,0.90294 0.39714,1.42434c0,1.30873 -0.9142,2.40393 -2.13883,2.68184l-2.61086,0.65271l-0.01611,-0.06445c-1.32853,0.56828 -2.76201,0.72436 -4.36991,-0.06277c-0.20165,-0.09872 -0.39688,-0.2084 -0.58629,-0.32755c-1.35749,-0.26381 -2.68494,-0.64589 -3.83288,-0.83718c-3.69099,-0.61507 -7.52003,-1.40523 -11.23644,-1.83088c-0.56055,-0.0642 -1.1722,-0.09276 -1.8074,-0.10941c-0.46001,1.86859 -1.27223,3.53791 -2.70552,4.23698c-1.32042,0.64401 -3.02345,0.80999 -4.4867,0.41042c0.84669,1.36976 1.87523,2.68734 3.05868,4.04847l1.92681,1.92394c0,0 0.04532,0.04532 0.11521,0.12904c1.51442,0.48679 2.99481,1.00243 4.37281,1.62808c1.47597,0.67013 2.64542,1.54365 3.78847,2.39444c3.2091,0.42617 6.39804,0.82961 9.5528,1.41183c2.02857,0.37437 5.89323,-1.17555 7.27527,0.88046c1.19165,1.77278 0.75737,4.4624 -0.12668,6.40695c-0.61418,1.35095 -2.49318,1.62289 -3.8232,2.28118c-2.87086,1.42091 -6.61954,2.00479 -9.79757,1.53825c-5.3198,-0.78096 -9.24561,-3.34797 -13.67644,-6.01064c-2.89891,-1.74208 -6.37536,-2.67396 -9.30584,-4.31767c-1.20965,-0.6785 -3.16722,-2.34498 -4.57366,-3.55283c0.00824,0.11258 0.01789,0.22706 0.02889,0.34323c1.3517,2.43481 2.56201,5.24748 4.65861,7.03803c1.99648,1.70505 5.41122,1.94115 7.83677,2.42455l0.05744,0.03997l0.00622,-0.02486l2.61086,0.65271c1.22463,0.27791 2.13883,1.37312 2.13883,2.68184c0,1.09317 -0.63785,2.03736 -1.56167,2.4807c0.71296,0.17633 1.40195,0.41628 2.05676,0.73398c0.36062,0.17496 0.69,0.36103 0.99651,0.55464c2.93606,-0.11788 6.53105,-0.00251 8.06073,2.03347l0.29136,-0.16649c0.41148,-0.24534 0.89244,-0.38629 1.40631,-0.38629c1.51878,0 2.75,1.23122 2.75,2.75c0,0.51388 -0.14095,0.99483 -0.38629,1.40631l-1.30937,2.2914l-0.22718,-0.12981c-0.16783,0.38012 -0.37911,0.7377 -0.65077,1.06396c-0.94424,1.13402 -2.88931,0.63367 -4.35764,0.78059c-0.32896,0.03292 -0.66128,0.05828 -0.99622,0.07741c-0.0071,0.00041 -0.0142,0.00081 -0.0213,0.00121c-1.9402,0.10922 -3.96786,0.01001 -5.93871,-0.04433c-0.85043,3.85057 -3.51405,6.50945 -5.29753,9.87823c-0.80675,1.52385 -0.659,4.24513 -2.34393,4.61114c-5.5931,1.21495 -5.48683,-4.01778 -5.96574,-6.76523l-0.00531,-2.83754c0,0 0,-2.75 2.75,-2.75c0.04492,0 0.0891,0.00073 0.13256,0.00218c0.47195,-2.59977 0.82713,-5.20633 1.36472,-7.80585c-1.46763,0.14056 -3.13579,0.26573 -4.6817,0.63147c0.97272,1.68966 -0.53771,3.20008 -0.53771,3.20008c-1.42666,1.40509 -5.61816,5.28671 -8.74975,5.24439c0.08136,0.34645 0.20355,0.72934 0.38439,1.1903c0.79509,2.02669 2.49429,3.99594 2.48721,6.31603c-0.0059,1.93563 0.30089,4.48118 -1.22113,5.67706c-1.66421,1.3076 -4.44254,1.19676 -6.34378,0.26686c-2.88263,-1.40989 -3.0044,-7.30161 -3.17047,-10.61609c-0.5139,0.28728 -0.98276,0.53341 -1.36675,0.73484c-4.48347,2.35196 -10.80593,2.70539 -16.0618,2.1639c0.24196,0.52483 0.16327,1.07565 0.16327,1.07565c-0.83249,5.82745 -2.18061,11.35959 -3.35129,17.10344c-0.66,3.23823 -1.02552,6.74601 -2.06235,9.89284c-1.09056,3.3099 -3.1554,6.90155 -3.96561,10.22337c-0.19318,0.79202 0.23369,1.67583 -0.03515,2.44546c-0.94695,2.71094 -3.56035,5.2229 -4.67479,8.02266c-0.42107,1.24869 -0.9746,2.45292 -1.59296,3.62029c0.37666,0.06666 0.78388,0.23221 1.21481,0.54002c2.23777,1.59841 0.63936,3.83617 0.63936,3.83617c-1.86448,2.60532 -3.68659,4.78557 -6.14393,6.84754l-0.1493,0.16527c0,0 -0.13037,0.13037 -0.35734,0.28983c-1.20862,3.09783 -2.78238,6.09903 -4.33694,9.07834c-0.15663,0.35845 -0.3223,0.71443 -0.50028,1.06747c0.00032,2.26702 0.17593,4.5108 0.27211,6.76574c1.50977,0.90728 2.93441,2.00019 3.99569,3.30632c0.89191,0.49934 1.71146,1.20855 2.43134,2.23331c0.28926,0.41177 0.46165,0.88786 0.63158,1.36636c0.47413,0.4091 0.93282,0.81569 1.37564,1.19345l1.4303,2.7333c0,0 0.43129,1.07823 0.03266,2.11362c0.27399,0.77191 0.50841,2.2581 -1.17111,3.26581c-0.89229,0.53537 -1.64952,0.53053 -2.24615,0.31765l-0.31827,0.53045c-0.30228,0.52425 -0.86849,0.87714 -1.51711,0.87714c-0.87838,0 -1.60562,-0.64715 -1.73092,-1.49068l-0.30244,-1.81461c-1.16896,-2.67965 -2.36051,-4.67689 -4.26435,-6.0029c-2.03021,-0.15951 -4.09667,0.27176 -6.09729,0.98005c-0.1898,0.17817 -0.35847,0.3711 -0.50285,0.57908c-1.34976,1.94423 -1.47002,5.08355 -3.01967,7.02763c-1.80752,2.26759 -4.2007,3.05981 -5.52292,5.76533l-1.2278,0.73419c-0.21059,0.22587 -0.47023,0.35986 -0.70416,0.43934c-0.19482,0.07487 -0.40642,0.1159 -0.6276,0.1159c-0.87083,0 -5.01364,0.10686 -5.49149,-0.43806c-0.0453,-0.05165 -0.08901,-0.10317 -0.13118,-0.15454c-1.95333,-0.12041 -3.16116,-1.59592 -2.34267,-5.9543c0.3476,-1.85093 1.99419,-3.19594 3.03542,-4.76521c1.77262,-2.67155 3.64247,-5.00343 6.24224,-6.84077c-0.01667,-0.04856 -0.03042,-0.09707 -0.04155,-0.14535c-0.14432,-0.49369 0.00477,-0.94085 0.17557,-1.2509c0.0312,-0.06485 0.05304,-0.10124 0.05304,-0.10124l0.93288,-1.54393c1.26087,-3.15218 3.13474,-6.53892 5.14806,-9.24561c0.13601,-0.18284 0.32472,-0.32362 0.52354,-0.45491c0.24261,-0.79392 0.53543,-1.58627 0.86364,-2.36967c-0.0293,-0.21072 -0.03697,-0.41894 0.01265,-0.61932c0.16705,-0.67449 0.80608,-1.15141 1.04428,-1.80418c1.488,-4.07783 2.10188,-9.36417 4.55885,-13.08936c0.4202,-0.6371 1.2581,-0.88766 1.76569,-1.45759c0.40467,-0.45439 0.69532,-1.01166 0.99148,-1.56028c-0.63959,-0.26042 -1.09045,-0.88829 -1.09045,-1.62145c0,-0.43033 0.15532,-0.82438 0.41297,-1.12915l1.51607,-1.81928c1.10484,-3.0021 2.88961,-5.93695 3.83236,-8.95285c0.95378,-3.05121 1.42563,-6.69062 1.95688,-9.8539c2.17507,-6.49225 2.49955,-14.0928 6.57076,-19.87485c0.89451,-1.27041 2.37105,-2.16413 3.69604,-3.11372c0.05604,-0.47397 0.08713,-0.95059 0.09002,-1.43004c0.82766,-1.30342 1.99266,-5.45845 3.10414,-6.39698c0.26399,-0.22291 0.57147,-0.42568 0.90637,-0.59768c-1.45003,-0.48001 -2.89906,-0.96587 -4.4016,-1.19404c-2.90608,-0.44129 -6.31987,0.02915 -9.26733,0.02915c-3.84825,-0.04955 -7.90871,-0.97151 -11.58932,-2.1594c-2.52517,-0.81498 -4.85243,-2.73596 -7.38798,-3.68678c-4.15138,-1.55675 -7.09714,-1.88544 -10.9774,-4.68263c-4.75587,-3.4284 -8.35873,-8.68235 -14.34379,-9.87809l-0.03125,-0.02414l-0.0039,0.01559l-2.61086,-0.65271c-1.22463,-0.27791 -2.13883,-1.37312 -2.13883,-2.68184c0,-0.08501 0.00386,-0.16913 0.01141,-0.25217c-1.05057,-0.549 -2.08325,-1.12899 -3.08182,-1.76792c0,0 -2.31324,-1.48708 -0.82616,-3.80032c0.0084,-0.01306 0.01682,-0.02601 0.02527,-0.03883c0.02923,-0.07875 0.0623,-0.1589 0.09944,-0.24046c0.29223,-0.70097 0.71007,-1.11876 1.15556,-1.35886c0.6991,-0.4004 1.45616,-0.33891 1.97132,-0.21536c0.22319,0.0475 0.36056,0.09902 0.36056,0.09902c0.69884,0.26263 1.39369,0.53095 2.08583,0.80283c2.74787,0.49575 5.44015,0.24728 8.20801,1.1827c1.06003,0.35824 1.87564,1.26122 2.9278,1.64197c2.47855,0.89692 6.43169,1.26273 9.05974,1.54185c3.09749,0.32898 6.24836,0.06504 9.37788,0.39415c8.93435,3.28833 18.15847,3.60804 27.61046,3.26315c3.62443,-0.13225 9.77367,0.14637 12.9944,-1.92979c1.29923,-0.83751 2.32745,-2.03429 3.50746,-3.03473zM203.59911,145.18997c-0.12673,0.32214 -0.26412,0.59993 -0.41543,0.84823c0.01307,-0.00084 0.02614,-0.00169 0.03921,-0.00254c0.10503,-0.04869 0.19925,-0.12081 0.27982,-0.22258c0.13373,-0.16891 0.13425,-0.38886 0.0964,-0.62312zM258.10968,142.16984c1.47774,0.12422 2.95002,0.29353 4.41775,0.49588c0.12007,-0.26484 0.28089,-0.50728 0.47446,-0.7193c-1.09494,-0.54736 -2.17488,-1.12352 -3.24269,-1.7094c-0.56113,-0.30788 -1.11212,-0.64491 -1.6237,-1.03104c0.08537,0.7224 -0.01655,1.63754 -0.01882,2.26069c-0.00079,0.21619 -0.0027,0.45178 -0.007,0.70317zM174.74467,177.81025c1.74328,0.47135 3.51387,0.84454 5.30465,1.13835c-1.13146,-0.43605 -2.28125,-0.86642 -3.45465,-1.14734c-0.81053,-0.12092 -1.62195,-0.23994 -2.4347,-0.35528c-0.37782,-0.03411 -0.75488,-0.0656 -1.13132,-0.09514c0.57751,0.1541 1.15043,0.30648 1.71603,0.45941zM215.51866,105.43003c0.29651,0.14011 0.59758,0.27253 0.90037,0.40205c0.00541,-0.04022 0.01146,-0.08074 0.01814,-0.12158c-0.24836,-0.11049 -0.50592,-0.1977 -0.77633,-0.25263c-0.04697,-0.00954 -0.09437,-0.01882 -0.14218,-0.02785zM219.57403,190.52808c0.38007,-0.12973 0.77235,-0.29066 1.1873,-0.49013c-0.18445,0.05684 -0.36942,0.11396 -0.55489,0.17151c-0.21189,0.10237 -0.42236,0.20965 -0.63241,0.31862zM181.18718,187.41721c0.7035,0.25004 1.41502,0.47469 2.13905,0.66418c-0.69314,-0.22122 -1.38659,-0.43786 -2.08081,-0.64669c-0.01941,-0.00584 -0.03882,-0.01167 -0.05823,-0.01749zM210.34004,187.24648c-0.31872,0.00449 -0.63753,0.0081 -0.95645,0.01093c-0.03599,0.01743 -0.07197,0.03485 -0.10797,0.05226c0.35523,-0.01693 0.71008,-0.03771 1.06442,-0.06319z" fill-opacity="0.37255" fill="#2e1340"></path></g><g fill-opacity="0.37255" fill="#2e1340"><path d="M238.91186,229.93408c1.52543,-2.28814 3.81356,-0.76271 3.81356,-0.76271l1.07298,0.71704c0.21287,0.15207 0.42738,0.30364 0.64301,0.45512c0.31922,0.17389 0.54812,0.36393 0.64769,0.45312c2.5328,1.76763 5.14644,3.57605 7.00848,6.05491c2.02192,2.6917 1.14657,3.16284 2.79497,5.86161c2.61357,4.27896 6.47585,7.99389 9.54603,11.93956c2.6023,3.34437 4.0028,6.24256 5.89588,9.71249c0.35391,0.48837 0.71141,0.97359 1.07341,1.45484c2.49633,3.31868 5.46051,6.08079 7.55007,9.67517l0.0043,0.08315l0.03076,-0.01538l1.30859,2.61718c0.2012,0.38215 0.31507,0.81744 0.31507,1.27932c0,1.51878 -1.23122,2.75 -2.75,2.75c-0.93575,0 -1.76234,-0.46737 -2.25907,-1.18142l-1.52881,-2.14033c-3.73456,-2.6055 -5.79485,-6.6586 -7.75709,-10.69538c-3.29691,-4.50722 -6.27856,-9.28234 -9.60838,-13.73133c-1.78002,-2.3783 -4.11365,-4.29622 -5.98384,-6.60428c-3.36967,-4.15861 -5.48158,-9.04209 -9.20872,-12.8527c-0.31257,-0.21365 -0.62006,-0.4265 -0.91916,-0.64011l-0.92702,-0.6163c0,0 -2.28814,-1.52543 -0.76271,-3.81356z"></path><path d="M224.21567,214.58763c-0.40021,-1.02689 -0.74225,-2.07198 -1.0169,-3.12782c0,0 -0.66697,-2.66789 2.00092,-3.33486c2.66789,-0.66697 3.33486,2.00092 3.33486,2.00092c0.65983,2.79038 2.43891,7.31905 4.76532,9.22608c0.85517,0.70101 2.37155,0.78192 2.78047,1.8093c0.79843,2.00599 1.91458,4.8176 0.50971,6.45706c-1.38841,1.62027 -4.30962,0.88406 -6.38857,0.40352c-4.75898,-1.10003 -6.48257,-7.22667 -7.16023,-11.70844c-0.25793,-0.61952 -0.25793,-1.18722 -0.25793,-1.18722l0.0936,-0.02173c-0.02952,-0.24326 -0.05603,-0.4786 -0.07995,-0.70464z"></path><path d="M161.92214,301.40405c-0.14875,-0.14875 -0.27474,-0.2975 -0.38058,-0.44537c-1.31573,0.93502 -2.72847,2.06882 -3.99223,1.40208c-5.23824,-2.76363 -1.81602,-7.12491 -0.44836,-9.8509c2.86961,-5.71963 6.80331,-9.85302 10.79422,-14.91112c0.37654,-0.47723 0.82062,-1.19705 1.32354,-1.95124c0.27272,-1.6273 1.26479,-5.3191 1.75831,-6.53511c1.35565,-3.34028 2.83419,-6.38262 4.43548,-9.56034c1.8704,-3.71176 3.38777,-8.56673 6.60283,-11.42945c0.02909,-0.0259 0.05826,-0.0517 0.08751,-0.0774l-0.01544,-0.01287l1.52738,-1.83286c0.27546,-1.68436 0.86009,-2.88893 1.52005,-4.37463c0.02631,-0.17428 0.05076,-0.31074 0.0727,-0.39973c0.514,-2.08469 1.54013,-4.03075 1.9559,-6.13723c1.58956,-8.05347 1.23615,-16.99825 5.30665,-24.17703c1.33471,-2.3539 1.04488,-4.26149 4.04862,-5.82752c0.15764,-0.08219 0.31805,-0.15677 0.48085,-0.22473l-0.02939,-0.05878l2.13649,-1.06825c0.67479,-2.98135 1.13378,-6.02941 1.73008,-9.0114c0,0 0.00751,-0.03753 0.02517,-0.10285c-6.45667,-0.1464 -12.86912,-0.57732 -19.30263,-1.29173c-3.90528,-0.43366 -8.26016,-0.54327 -11.86438,-2.2449c-3.44843,-1.62808 -5.96416,-4.72504 -9.06667,-6.89798c-2.05358,-1.43828 -4.4941,-2.24844 -6.59421,-3.61789c-2.16985,-1.41493 -3.7806,-3.58944 -5.96691,-4.97881c-0.90116,-0.57268 -1.78065,-1.17941 -2.64117,-1.81335l-0.20309,0.40618l-4.86606,-2.43303c-0.93018,-0.44095 -1.57345,-1.38851 -1.57345,-2.48632c0,-1.51878 1.23122,-2.75 2.75,-2.75c0.25159,0 0.49528,0.03378 0.7268,0.09707l2.60684,0.65171l-0.02494,0.09975l0.2359,-0.03796c1.87349,0.80242 3.68367,1.76484 5.41244,2.8443c2.38084,1.06429 4.88059,3.31727 7.48347,3.71398c2.43809,0.37159 4.94932,0.84439 7.44215,1.46553c0.45499,-0.89099 1.38159,-1.50104 2.45068,-1.50104c0.11629,0 0.2309,0.00722 0.3434,0.02123l2.96029,0.32892l-0.00463,0.04167c0.08075,-0.00306 0.16169,-0.00461 0.24285,-0.00457c1.9754,0.00105 3.83009,0.99308 5.68661,1.66803c0.09187,0.0334 0.18368,0.06728 0.27546,0.10162c4.24578,0.62857 8.52185,1.60438 12.52178,2.88435c2.4686,-0.75472 5.89151,0.32308 8.65166,1.15002c3.55073,0.24296 7.09703,0.47815 10.65593,0.47538c2.3954,-0.00186 6.26927,0.70991 8.55414,-0.43158c3.69086,-1.84389 8.16939,-4.59521 10.28644,-8.33997c0.35749,-2.58698 0.48015,-5.14568 0.83847,-7.86436l0.28798,-0.29488l-0.16135,-0.06915l0.97503,-2.27508c0.05752,-0.14312 0.12673,-0.28028 0.20645,-0.4103l-1.31274,0.16409l-0.02643,-0.21142c-0.32367,0.0774 -0.65295,0.1295 -0.98956,0.14856c-1.16462,0.06595 -1.89229,-1.38489 -2.93932,-1.89908c-2.70861,-1.33017 -6.05055,-2.53333 -8.93038,-3.49405c-5.00758,-1.67055 -10.40214,-1.51829 -15.62628,-1.52808l-0.16177,-0.08349l-0.00845,0.06757l-2.63047,-0.32881c-1.3753,-0.1517 -2.4451,-1.31756 -2.4451,-2.73329c0,-1.15647 0.71386,-2.14622 1.72497,-2.55261l2.27508,-0.97503l0.03111,0.07259c0.12599,-0.07589 0.25511,-0.14724 0.38776,-0.21348c0.25689,-0.12828 0.52457,-0.22065 0.80003,-0.28649c-5.7641,-1.51781 -11.05073,-4.57311 -16.67192,-6.4361c0,0 -2.60888,-0.86963 -1.73925,-3.47851c0.16673,-0.50019 0.3974,-0.87252 0.66135,-1.14762c-2.45225,-1.57702 -4.16228,-3.3184 -7.38581,-3.23275h-0.66667c0,0 -2.75,0 -2.75,-2.75c0,-2.75 2.75,-2.75 2.75,-2.75h0.66667c5.82429,0.1016 8.82127,3.84953 13.99441,5.85275c6.3478,2.45809 12.91275,2.8251 19.56574,3.48995c2.42505,0.24234 4.80877,0.88602 7.2435,0.99404c1.28136,0.05685 2.57506,0.18351 3.86132,0.21139c2.30839,-0.83203 4.61706,-1.74121 6.97699,-2.68343c1.11854,-0.44658 5.01882,-1.51299 5.48404,-2.83376c0.14561,-0.41339 0.22135,-0.83859 0.2376,-1.2727c-0.34349,-0.6242 -0.64379,-1.29361 -1.02071,-1.87103c-0.52009,-0.79676 -3.5735,-5.91454 -3.92404,-6.85512c-0.19198,-0.51512 -0.35711,-1.02639 -0.50689,-1.5349c-0.5862,-0.82054 -1.08648,-1.58393 -1.41037,-2.26477c-0.45368,-0.95366 -0.78324,-1.99298 -1.03546,-3.06765l-0.33767,-0.67533c-1.10958,-1.1824 -2.30929,-2.28378 -3.67942,-2.94037c-2.86465,-1.3728 -7.74488,-2.77375 -9.8081,-5.29818c-0.07146,-0.08744 -0.14136,-0.17592 -0.20979,-0.26539l-0.04237,0.04237l-1.28252,-1.28252c-1.37164,-0.73959 -2.84235,-1.41671 -4.69786,-2.07224c0,0 -2.58979,-0.92493 -1.66487,-3.51472c0.92493,-2.58979 3.51472,-1.66487 3.51472,-1.66487c0.33304,0.12009 0.66412,0.24416 0.99339,0.37191c-0.00109,-0.03794 -0.00165,-0.07642 -0.00165,-0.11545c0,-2.75 2.75,-2.75 2.75,-2.75c7.14016,0 12.90954,0.58308 19.4558,3.57284c1.77126,0.80896 6.92224,3.68223 5.51089,6.63625c-0.13707,0.28689 -0.28314,0.54988 -0.43747,0.79041c1.36296,1.10356 0.74633,2.95346 0.74633,2.95346l-1.64862,2.94865c0.26459,1.5563 0.15342,3.15986 -0.92625,4.00947c0.16278,0.16427 0.32757,0.3251 0.49471,0.4819c0.11127,0.10438 0.22289,0.20872 0.33471,0.31312c0.04216,-0.00667 0.08509,-0.01275 0.12881,-0.01821c2.72876,-0.3411 3.06986,2.38767 3.06986,2.38767c0.03994,0.32446 0.07415,0.64573 0.10466,0.96448c0.42179,0.50406 0.81476,1.02978 1.16524,1.58579c0.75474,1.19734 2.5815,4.25864 3.35182,7.10532c0.5874,0.17382 1.15632,0.39679 1.6711,0.62579c1.62116,0.72118 2.83559,1.99453 3.93251,3.43231c0.95435,-0.78175 2.38412,-1.27713 3.49297,-1.73309c1.19821,-0.49271 2.59072,-0.05006 3.88626,-0.05616c4.17487,-0.01965 7.90514,0.9139 11.84178,2.14753l-1.11966,-1.11966c-0.49765,-0.49765 -0.80546,-1.18515 -0.80546,-1.94454c0,-1.51878 1.23122,-2.75 2.75,-2.75c0.50262,0 0.97375,0.13484 1.37919,0.37033l2.95633,1.64241l-0.03699,0.06658c0.12008,0.04419 0.23927,0.09139 0.35751,0.14189c1.37932,0.58907 2.09998,2.14352 3.19839,3.1648c1.85308,1.72294 4.26186,3.12373 5.79821,5.12845c0.88599,1.15609 2.41475,2.50018 2.46856,3.85627c1.30249,0.21663 2.29547,1.34866 2.29547,2.71261c0,1.41573 -1.0698,2.58159 -2.4451,2.73329l-2.39383,0.29923c-1.98643,0.71353 -4.13429,1.02414 -6.24441,1.05082c-8.05579,0 -15.74022,0.01072 -23.20822,-3.61297c-3.5262,-1.71101 -5.71436,-5.13807 -8.17422,-7.96967c-0.14396,-0.16571 -0.32899,-0.35731 -0.53423,-0.5644v2.39703h-0.3718c0.2026,0.91268 0.40748,1.82477 0.63805,2.72959c1.01436,3.98077 2.98964,7.92904 4.29076,11.83488l-0.01186,0.11175l0.03942,-0.00986l0.65171,2.60684c0.06328,0.23152 0.09707,0.47521 0.09707,0.7268c0,0.03947 -0.00083,0.07874 -0.00248,0.1178c1.83041,1.74307 3.99877,3.2133 6.66515,4.35287c5.50185,2.35141 12.41663,1.83077 17.56361,4.95844l2.59586,0.97345c1.07393,0.37434 1.84452,1.3959 1.84452,2.59745c0,1.30873 -0.9142,2.40393 -2.13883,2.68184l-2.61086,0.65271c-4.74481,1.15259 -8.66339,0.76589 -13.27952,-0.75235c-2.22607,-0.91291 -4.22633,-2.31075 -6.24194,-3.62456c-0.87834,-0.57252 -6.75922,-3.15824 -7.13082,-3.4258c-2.27371,-1.6371 -2.21525,-2.69953 -3.47979,-4.34151c-1.77143,-0.46396 -3.53163,-1.5306 -4.92189,-2.74327c0.00659,0.34318 0.02215,0.68515 0.08457,1.01855c0.07867,0.42024 0.14962,0.77437 0.21953,1.08034c0.48557,1.08376 1.21446,2.10124 1.8192,3.11681c0.08097,0.13597 0.16104,0.27288 0.24034,0.41058c0.05448,0.0663 0.11061,0.13487 0.16846,0.20589c2.09673,2.57439 3.61452,5.63654 5.97103,7.97316c1.15489,0.04798 2.12582,0.80822 2.48506,1.85297c1.01309,0.40763 2.25879,0.54424 3.02644,1.15226c0.12252,-0.00056 0.24662,-0.0031 0.37236,-0.00764h2.66667c1.45777,0 2.65062,1.13428 2.7441,2.56842c1.21932,0.81158 1.6541,2.87552 3.09514,3.22943c0.80849,0.19856 1.66273,-0.08746 2.4941,-0.13119h2.66667c1.51878,0 2.75,1.23122 2.75,2.75c0,1.3253 -0.9375,2.43163 -2.1855,2.69201l-4.27947,0.98757l-0.06875,-0.29791c-2.35622,0.86927 -4.7878,0.871 -7.33912,-1.29357c-0.14853,-0.12602 -0.28526,-0.26258 -0.41278,-0.40736c-0.95415,3.19978 -2.06593,6.33921 -2.78795,9.61774l-0.02414,0.03125l0.01559,0.0039l-0.65271,2.61086c-0.27791,1.22463 -1.37312,2.13883 -2.68184,2.13883c-1.51878,0 -2.75,-1.23122 -2.75,-2.75v-3.33333c-0.85671,-3.16563 0.84685,-7.02237 1.80637,-9.86536c0.33656,-0.99719 0.62511,-2.31391 1.10072,-3.54949c-0.64371,-0.1564 -1.27599,-0.34928 -1.89325,-0.5786c-0.54971,0.79052 -1.48392,1.23758 -2.32734,1.76626c0.88125,2.39244 -1.51988,3.4215 -1.51988,3.4215l-0.64169,0.27358c-0.24242,1.04861 -0.72566,2.1231 -1.12946,3.02092c-0.70225,1.56141 -2.40008,2.44219 -3.60011,3.66328l-0.30983,0.0914l0.05532,0.0885l-2.63071,1.6442c-0.22644,0.14673 -0.47581,0.26106 -0.74157,0.33643c0.00053,2.10937 -0.00889,5.8587 -0.07545,5.98587c-0.09855,0.18832 -0.20687,0.36952 -0.32353,0.54463l0.10677,0.05339l-1.30669,2.61338c-0.44095,0.93018 -1.38851,1.57345 -2.48632,1.57345c-1.51878,0 -2.75,-1.23122 -2.75,-2.75v-2.66667c0.02444,-2.76485 -0.67117,-5.27025 -0.98318,-8.02965c0,0 -0.08525,-0.76727 0.24111,-1.53393c-0.73948,0.19082 -1.4485,0.368 -2.09643,0.54413c-1.2851,0.34933 -2.45276,1.29468 -3.66433,1.89351c0.00188,0.04175 0.00283,0.08374 0.00283,0.12595c0,1.51878 -1.23122,2.75 -2.75,2.75h-3.33333c-2.22962,-0.00154 -4.46007,-0.10443 -6.68366,-0.27462c-0.09264,0.00468 -0.18543,0.00873 -0.27837,0.01218c0.08542,0.58445 -0.00804,1.05175 -0.00804,1.05175c-0.83836,4.19113 -1.41706,8.50784 -2.65568,12.60487c-0.77711,2.57046 -1.87784,4.65343 -2.95832,6.79757c-0.72327,1.77535 -1.44728,3.56064 -2.14948,5.35596c1.15357,1.02737 0.73477,2.70258 0.73477,2.70258l-0.47358,1.74964c-1.18493,2.76436 -3.05091,5.63267 -3.47346,8.64939c-0.15603,1.11396 0.20064,2.26888 -0.00636,3.3745c-0.63964,3.41636 -1.98823,5.236 -3.10399,8.42426c-0.30265,0.86482 -0.16993,1.89676 -0.66667,2.66667c-0.03785,0.05866 -0.07606,0.11705 -0.11462,0.17519l0.04259,0.01775l-1.64216,3.94118c-0.31514,0.80802 -1.00137,1.43037 -1.84925,1.65761c-2.1362,5.96473 -5.49197,11.44462 -8.23514,17.20146c-0.66795,1.40176 -1.33146,2.80619 -1.95263,4.2293c-0.10014,0.22942 -0.18166,0.47078 -0.25472,0.71742c0.11129,0.44752 0.18511,0.90944 0.22878,1.37184c0.66269,0.19101 1.3144,0.44482 1.95053,0.74584c1.61468,0.38702 3.21903,0.85121 4.70238,1.58101c3.37252,1.65927 4.87619,4.51151 6.64208,7.60415l0.01092,0.16615l0.05506,-0.0236l0.97605,2.27746c0.15818,0.34709 0.2463,0.73283 0.2463,1.13916c0,1.51878 -1.23122,2.75 -2.75,2.75c-0.51388,0 -0.99483,-0.14095 -1.40631,-0.38629l-2.2914,-1.30937l0.08247,-0.14432c-0.24499,-0.10198 -0.48407,-0.21866 -0.71583,-0.35351c-0.99218,-0.57728 -0.99363,-2.07772 -1.62657,-3.03535c-0.94238,-1.42584 -2.91477,-3.5911 -5.07232,-4.86599c-0.22268,-0.06132 -0.45228,-0.12058 -0.68928,-0.17807c0.08821,0.26948 0.13592,0.55729 0.13592,0.85625c0,0.6291 -0.21124,1.20886 -0.56667,1.67222l-1.98333,2.64444l-0.16206,-0.12155l-0.17767,0.49686c-1.11467,0.71429 -2.36026,1.4872 -3.57298,2.31502c-1.66469,2.68754 -2.95624,5.4801 -4.49428,8.55617l-1.1818,1.38137c0,0 -1.94454,1.94454 -3.88909,0zM218.84524,101.44041c0.17659,-0.13955 0.35203,-0.28334 0.52773,-0.42619c-1.46947,-0.30262 -3.04874,-0.33506 -4.62736,-0.29289c1.14999,0.61675 2.30572,1.21279 3.46973,1.78896c-0.11658,-0.12706 -0.2328,-0.25507 -0.34866,-0.38412zM201.44144,141.50777c-0.53002,-0.06041 -1.05921,-0.12389 -1.58776,-0.19153c0.46319,0.14759 0.92879,0.2861 1.39718,0.41387zM267.27347,140.53726l-0.07824,-0.87046c-2.00349,-0.66005 -4.0049,-1.33042 -6.03989,-1.88422c-1.36643,-0.37186 -2.77111,-0.63166 -4.18548,-0.77514c2.48582,1.23018 4.88731,1.9739 7.68702,2.81804c0.88343,0.26636 1.75082,0.50515 2.6166,0.71178zM275.23092,140.70381c-0.20215,-0.20068 -0.40035,-0.4068 -0.59834,-0.61332c-0.20294,0.31707 -0.46366,0.62681 -0.79057,0.92654c0.42034,-0.09582 0.90471,-0.21865 1.38891,-0.31322zM229.40997,153.86151c0.11331,0.04494 0.22696,0.08905 0.34099,0.13224l0.1887,0.21564l0.05118,-0.08189l0.1641,0.10256c-0.00711,-0.25523 -0.01318,-0.50926 -0.01829,-0.76173c-0.23148,0.13939 -0.47621,0.26832 -0.72668,0.39318z"></path><path d="M249.53304,118.12739c-2.66789,-0.66697 -2.00092,-3.33486 -2.00092,-3.33486c0.22222,-0.88889 0.77778,-3.11111 1,-4c0,0 0.66697,-2.66789 3.33486,-2.00092c2.66789,0.66697 2.00092,3.33486 2.00092,3.33486c-0.22222,0.88889 -0.44444,1.77778 -0.66667,2.66667l-0.33333,1.33333c0,0 -0.66697,2.66789 -3.33486,2.00092z"></path></g><path d="M159.08793,303.0098c-3.9598,-0.56569 -3.39411,-4.52548 -3.39411,-4.52548l1.22025,-4.32839c3.55228,-4.26273 4.9017,-8.66362 7.58694,-13.40094c5.46906,-9.64855 9.0795,-20.88955 16.2116,-29.62369l0.52903,-1.81913c1.12728,-2.98364 1.23798,-5.55213 1.79697,-8.56957c0.41683,-2.25011 1.86969,-4.21245 2.35386,-6.44903c0.20717,-0.95702 -0.19868,-1.99301 0.06183,-2.93691c0.51768,-1.8757 1.78712,-3.47124 2.42866,-5.30826c2.01225,-5.76194 3.86852,-11.3306 5.60603,-17.14779c0,0 1.14939,-3.83131 4.9807,-2.68191c3.83131,1.14939 2.68191,4.9807 2.68191,4.9807c-1.78825,5.93187 -3.6408,11.65912 -5.7273,17.51887c-0.58123,1.63233 -1.81301,3.01194 -2.23801,4.69174c-0.19599,0.77467 0.23897,1.61723 0.06183,2.39643c-0.4902,2.15627 -1.95402,4.03565 -2.31281,6.21763c-0.57232,3.48061 -0.93231,6.68669 -2.20303,10.0971l-0.3939,1.41146c-0.09812,0.55436 -0.30708,1.03977 -0.50704,1.40577c-0.18591,0.35116 -0.45774,0.76888 -0.83622,1.14265c-2.93252,3.53651 -4.74551,7.50856 -6.71278,11.65195c-0.82862,1.74521 -2.29152,3.14041 -3.11192,4.8895c-0.56428,1.20306 -0.65254,2.58078 -1.10424,3.83047c-1.135,3.14018 -2.9696,5.41304 -4.59328,8.22538c-1.33689,2.31559 -2.04082,5.12381 -3.25063,7.51184c-1.36707,2.69846 -3.24548,4.78688 -5.16243,7.08722l0.55358,0.33828c0,0 -0.56569,3.9598 -4.52548,3.39411z" fill-opacity="0.1098" fill="#f6d1ff"></path><path d="M269.38695,266.58333c-3.2,2.4 -5.6,-0.8 -5.6,-0.8l-2.09897,-2.80463c-5.55615,-8.86837 -10.8365,-17.22092 -18.71022,-24.28886c0,0 -2.97318,-2.67586 -0.29732,-5.64904c2.67586,-2.97318 5.64904,-0.29732 5.64904,-0.29732c8.32715,7.5122 14.08663,16.29407 19.95644,25.71114l1.90103,2.5287c0,0 2.4,3.2 -0.8,5.6z" fill-opacity="0.1098" fill="#f6d1ff"></path><path d="M238.81537,230.54509c-2.82843,2.82843 -5.65685,0 -5.65685,0l-1.06564,-1.08888c-2.49058,-2.0777 -4.95999,-3.94969 -7.26769,-6.24446c0,0 -2.82843,-2.82843 0,-5.65685c2.82843,-2.82843 5.65685,0 5.65685,0c2.11723,2.1314 4.42826,3.83739 6.73231,5.75554l1.60102,1.57779c0,0 2.82843,2.82843 0,5.65685z" fill-opacity="0.1098" fill="#f6d1ff"></path><path d="M195.94637,193.39297c-1.67275,0.04644 -3.2715,-0.01112 -3.95943,-0.00964c-6.41209,0.01378 -13.64275,0.84243 -19.93745,-0.77807c-2.25801,-0.5813 -4.41233,-1.52656 -6.67287,-2.09791l-0.24338,-0.24316l-0.05531,0.12905l-2.2486,-0.96369c-1.47071,-0.59113 -2.50905,-2.03075 -2.50905,-3.71289c0,-1.15611 0.49047,-2.19767 1.27469,-2.92794c-6.85348,-2.65 -13.85518,-4.69987 -20.59657,-7.76393c0,0 -3.64147,-1.65521 -1.98625,-5.29668c1.65521,-3.64147 5.29668,-1.98625 5.29668,-1.98625c7.70237,3.50131 15.75371,5.65333 23.52665,8.93955c3.0992,1.31027 6.22561,2.57728 9.22928,4.09221c1.77956,0.35653 3.50074,0.7618 4.95436,1.00456c7.4096,1.23744 14.97951,2.24276 22.4791,1.30178c2.59631,-0.32576 8.58043,-2.70644 10.76711,-0.31767c9.13499,9.97924 -6.70856,12.94091 -12.94505,12.95437h-2.66667c0,0 -2.78488,0 -3.70724,-2.32369z" fill-opacity="0.1098" fill="#f6d1ff"></path><path d="M237.7116,134.28669c3.42997,2.05798 1.37199,5.48795 1.37199,5.48795l-0.73766,1.14715c-0.07863,0.17766 -0.15576,0.35292 -0.23101,0.52621c0.13321,0.39863 0.20537,0.82522 0.20537,1.26866l0,3c0,0.18916 -0.03174,0.59311 -0.07214,1.11592c1.61022,2.20304 3.44143,4.2109 5.97076,5.89802c1.80891,1.20659 10.50004,4.96322 10.08957,7.34561c-1.71522,9.95527 -9.42544,5.06567 -13.53215,3.17255c-0.65026,-0.29976 -1.33069,-0.62387 -2.01945,-0.9764c-0.31982,0.85072 -0.82205,1.55902 -1.60627,2.00096c-5.39277,3.03905 -8.42089,-4.20869 -9.09947,-7.1763c-0.78433,-3.43009 -0.3091,-6.38618 0.83836,-9.11536c-0.00187,-0.27047 0.00139,-0.54097 0.00959,-0.81138c-0.62203,-0.95167 -1.25131,-1.92039 -1.907,-2.90149c0,0 -2.2188,-3.3282 1.1094,-5.547c1.0561,-0.70407 2.0005,-0.8496 2.79774,-0.72017c0.02057,-0.05232 0.04127,-0.10457 0.06209,-0.15676l1.26234,-2.18619c0,0 2.05798,-3.42997 5.48795,-1.37199z" fill-opacity="0.1098" fill="#f6d1ff"></path><path d="M229.32028,208.13333c-4,0 -4,-4 -4,-4l0.03089,-1.17053c-0.35511,-2.84087 -0.68998,-5.26156 -1.52886,-8.01341c0,0 -1.14939,-3.83131 2.68191,-4.9807c3.83131,-1.14939 4.9807,2.68191 4.9807,2.68191c0.94048,3.17713 1.39591,6.05144 1.80447,9.31992l0.03089,2.16281c0,0 0,4 -4,4z" fill-opacity="0.1098" fill="#f6d1ff"></path></g></g></svg>