<svg version="1.1" xmlns="http://www.w3.org/2000/svg" xmlns:xlink="http://www.w3.org/1999/xlink" width="14.19" height="320.10229" viewBox="0,0,14.19,320.10229"><defs><linearGradient x1="240" y1="189.40028" x2="240" y2="312.73361" gradientUnits="userSpaceOnUse" id="color-1"><stop offset="0" stop-color="#13072c" stop-opacity="0"></stop><stop offset="1" stop-color="#13072c"></stop></linearGradient></defs><g transform="translate(-232.95254,-84.08133)"><g stroke-miterlimit="10"><path d="M241.10431,180c0,52.97442 -0.49442,95.91867 -1.10431,95.91867c-0.60989,0 -1.10431,-42.94426 -1.10431,-95.91867c0,-52.97442 0.49442,-95.91867 1.10431,-95.91867c0.60989,0 1.10431,42.94426 1.10431,95.91867z" fill="#ffffff" stroke="none" stroke-width="0"></path><g><path d="M238.88611,297.35739c0.02151,0.0094 0.03912,0.02638 0.05355,0.04837c0.01391,-0.0635 0.03442,-0.11466 0.05879,-0.14714l0.21521,-0.29913l0.0249,0.13115c0.37309,-0.60276 0.74579,-0.61631 1.07122,-0.24549c0.49344,0.05139 0.93677,0.41884 0.92387,1.5555c-0.01158,0.40571 -0.01762,0.81058 -0.01954,1.21485c0.09296,0.69245 0.13631,1.44591 0.11494,2.1944c-0.01688,0.59134 -0.03376,1.18269 -0.05064,1.77403c0.04428,1.80417 0.0779,3.61021 -0.02684,5.43753c-0.00316,0.10987 -0.00799,0.21679 -0.0144,0.32075c-0.04616,1.69429 -0.24915,3.03149 -1.00417,2.87372c-0.09564,-0.01999 -0.18113,-0.05654 -0.25998,-0.11281c-0.70319,0.07997 -1.42053,-1.07599 -1.35336,-3.42895c0.10179,-3.56575 -0.00117,-7.17004 0.01802,-10.74879c0,0 0.00163,-0.30057 0.10091,-0.36248c0.01811,-0.10528 0.05914,-0.24413 0.14753,-0.20548zM240.82374,297.85179c0.0468,0.1384 0.09106,0.28578 0.13249,0.44086c0.00354,-0.1963 -0.0468,-0.33925 -0.13249,-0.44086z" fill="#13072c" stroke="#6c5b89" stroke-width="1.5"></path><path d="M242.3744,313.01009c0.00033,0.00045 0.00066,0.00092 0.00099,0.00138c0.64245,0.89782 1.7861,4.77619 1.39935,6.74427v0.67172c0,0.41872 -0.12546,0.75816 -0.28022,0.75816c-0.12233,0 -0.22635,-0.21207 -0.26458,-0.50774c-0.05019,0.20448 -0.13608,0.33925 -0.2336,0.33925c-0.07738,0 -0.14744,-0.08485 -0.19815,-0.22205v0l-0.23854,-0.64538c-0.13008,-0.2643 -0.24461,-0.5135 -0.35103,-0.74362c-0.39803,-0.34354 -0.8638,-0.9385 -1.19862,-1.2999c-0.02549,1.4151 -0.09895,2.94981 -0.03885,3.76291c0.00085,0.57034 0.00817,1.1566 0.01921,1.75447c0.0353,0.06446 0.06351,0.14164 0.08605,0.22381c0.5644,-0.19279 1.28331,0.43344 1.50022,1.42546c0.15735,0.7196 0.05463,3.21632 0.09938,4.17015l0.02585,0.48905c0.14086,0.66655 0.29123,1.31208 0.46013,1.90504c0.4258,1.65289 0.70442,3.81601 0.79872,5.90777c0.20385,0.74476 0.40946,1.4467 0.59604,2.07024v-0.10769c0.04825,0.19256 0.09847,0.39288 0.15019,0.60697c0.05321,0.17615 0.10413,0.34409 0.15214,0.5028l0.10854,0.66844c0.03215,0.15918 0.06456,0.32627 0.09714,0.50244c0.29728,1.60769 0.28388,3.79099 0.62456,5.33922c0.21448,0.97471 0.68139,0.72894 0.70329,2.33084c0.01821,1.33217 -0.57075,2.17345 -0.85897,3.25463l-0.47977,-0.52109c-0.05391,0.13971 -0.09986,0.27415 -0.14214,0.39879c-0.07328,0.29759 -0.146,0.59639 -0.21614,0.89902l-0.06896,1.1194c-0.0301,0.54817 -0.20477,0.96872 -0.41575,0.96872c-0.23215,0 -0.42033,-0.50915 -0.42033,-1.13725v-1.29972h0.07426l0.01152,-0.18696l0.03396,0.01531c-0.00112,-0.06825 -0.00122,-0.13468 -0.00027,-0.19962l-0.01352,-0.02167c0.00518,-0.02408 0.01041,-0.04817 0.01567,-0.07227c0.02107,-0.67428 0.16267,-1.19622 0.46664,-1.92736c0.01923,-0.07788 0.03836,-0.15585 0.05731,-0.23391c0.01026,-0.10123 0.02657,-0.20815 0.05031,-0.32055v-0.00002c0.03303,-0.15638 0.06997,-0.27383 0.10878,-0.36078c0.06975,-0.3142 0.13401,-0.63035 0.1889,-0.94895l-0.08188,-0.03692l0.0053,-0.08613c-0.06325,-0.01853 -0.12536,-0.05648 -0.18593,-0.12085c-0.06965,-0.07404 -0.15862,-0.47555 -0.24491,-0.96065c-0.22945,-0.50307 -0.34993,-1.07 -0.38375,-1.80546c-0.03879,-0.10496 -0.07758,-0.20991 -0.11638,-0.31485h-0.06608v-0.17879c-0.03903,-0.1056 -0.07805,-0.21116 -0.11708,-0.31676c0,0 -0.14116,-0.38192 -0.13164,-0.88255l-0.15398,-0.33327l0.01107,-0.03744l-0.04572,-0.04645c-0.45872,-1.54259 -0.7166,-3.33269 -1.15872,-4.88303c-0.14187,-0.49746 -0.2994,-0.96088 -0.45374,-1.43035c-0.02714,-0.08255 -0.0671,-0.20884 -0.10814,-0.34583c0.00208,0.34788 -0.03052,0.75099 -0.04925,1.055c-0.11406,1.85163 -0.14405,3.65191 -0.15191,5.51093c0.39339,0.80187 0.66516,2.12092 0.81188,3.61047c0.20753,-0.48103 0.50626,-0.40051 0.9339,0.81428c0.42485,1.20685 0.09952,4.42942 -0.56736,4.73292c-0.03498,0.33529 -0.13192,0.79992 -0.4006,0.79992c-0.03528,0 -0.0676,-0.00802 -0.0972,-0.0227c-0.03371,0.20495 -0.07071,0.40184 -0.11104,0.58928c-0.17693,0.82227 -0.528,1.39593 -0.95071,1.72337c0.03587,0.14702 0.0719,0.30775 0.10808,0.48281l-0.0105,0.15175c0.03697,0.23706 0.05979,0.45869 0.07017,0.6652c0.09274,0.11659 0.18491,0.25471 0.27621,0.41578c0.52332,0.9232 0.41566,3.6994 1.01131,4.49639l0.10619,0.25564c0.11893,0.20399 0.1641,0.47607 0.17604,0.72597c0.02087,0.23197 0.01652,0.51149 -0.05538,0.80039c-0.19329,1.17781 -0.38271,2.35308 -0.56575,3.53145c0.09692,0.41259 0.05006,0.91977 0.05006,0.91977c-0.4191,4.53455 -1.231,8.6542 -1.51624,13.15297c-0.26491,4.17809 -0.15254,8.71484 -0.15254,12.99865c0,2.3106 0,4.62119 0,6.93179v0.43325c0,0 0,1.13725 -0.42033,1.13725c-0.04459,0 -0.08446,-0.0128 -0.1201,-0.03569c-0.00055,0.00036 -0.00112,0.00071 -0.00168,0.00106c-0.0619,0.14622 -0.15081,0.25124 -0.27855,0.25124c-0.42033,0 -0.42033,-1.13725 -0.42033,-1.13725v-0.21661c0,-5.07139 -0.08006,-10.10753 -0.08006,-15.16329c0,-8.14601 -0.06166,-15.51444 -1.98955,-22.0345c0,0 -0.22919,-0.77512 0.00832,-1.45634c-0.01469,-0.13069 -0.02913,-0.32301 -0.02028,-0.53032c-0.00006,-0.00781 -0.00009,-0.01563 -0.00009,-0.02349c0,-0.23896 0.02724,-0.46072 0.07378,-0.64376l0.31707,-1.28677l0.04946,0.08922l0.05595,-0.18166c0.3743,-1.24215 0.8134,-1.98271 1.22812,-3.11355c0,0 0.06636,-0.17955 0.16773,-0.28413c0.01732,-0.43591 0.06258,-0.89573 0.08917,-1.34133c-0.49763,-0.38181 -0.90674,-1.08886 -1.06859,-2.1174c-0.02524,-0.16043 -0.04527,-0.33194 -0.06064,-0.51225c-0.64995,-0.31424 -1.11809,-2.03155 -0.57534,-4.06914c0.0208,-0.07809 0.04318,-0.15197 0.0669,-0.22228l-0.01132,-0.02449l0.31783,-1.07488c0.01751,-0.06027 0.03722,-0.11564 0.05881,-0.1652c0.13659,-0.9383 0.31027,-1.71345 0.526,-2.34242c-0.1642,-2.39941 -0.39028,-4.59329 -0.67744,-6.84395c-0.10851,2.65057 -0.41361,6.32326 -0.64411,7.10829c-0.19816,0.67489 -0.48431,1.69015 -0.79058,1.45292c-0.07937,-0.06149 -0.14459,-0.18319 -0.19885,-0.34519c-0.12437,0.04766 -0.24851,0.10326 -0.37151,0.17177c-0.04366,0.15298 -0.0886,0.30518 -0.13482,0.45657c0,0 -0.14222,0.44889 -0.3412,0.42193c0.03119,0.52638 0.08445,1.11996 0.11963,1.71297c0.28093,0.50924 0.57831,1.23764 0.77609,1.59422l0.18717,1.16287c0,0 0,1.13725 -0.42033,1.13725c-0.02514,0 -0.04878,-0.00408 -0.071,-0.01172c-0.04333,0.50327 -0.21018,0.87818 -0.40938,0.87818c-0.08158,0 -0.15772,-0.06287 -0.22218,-0.17168l-0.39439,-0.64024l0.07477,-0.33719l-0.09597,-0.32459c-0.00671,-0.01838 -0.01338,-0.03674 -0.02003,-0.05509c-0.10573,-0.21788 -0.19371,-0.46562 -0.25467,-0.74781c-0.15356,-0.48298 -0.28053,-0.95212 -0.37804,-1.40621c-0.22776,-0.01366 -0.41083,-0.51746 -0.41083,-1.13696c0,-0.13507 0.0087,-0.26463 0.02467,-0.38481l0.15703,-1.27452l0.03135,0.02826l-0.00181,-0.2121c0.11156,-0.37719 0.20643,-0.73243 0.29725,-1.03377c0.00982,-0.11084 0.02153,-0.21831 0.03467,-0.32035l0.05135,0.03542c0.0136,-0.03911 0.02821,-0.07562 0.04372,-0.10921c0.00239,-0.00641 0.00477,-0.01281 0.00716,-0.01914l-0.04189,-0.11335l0.40032,-1.08308c0.07606,-0.20581 0.18115,-0.33309 0.29722,-0.33309c0.06685,0 0.13005,0.04221 0.18616,0.11733l0.04222,-0.04896l-0.01058,-0.0358l0.14144,-0.30616c0.95358,-3.93516 0.98188,-8.8155 0.98325,-13.62966l0.01739,-0.08726l-0.0131,-0.0059l0.07893,-1.28127c0.0125,-0.22778 0.04997,-0.43353 0.10464,-0.59622c0.12259,-1.60509 0.25578,-2.86005 0.81452,-4.37177l0.32026,-0.86648c0.07606,-0.20581 0.18115,-0.33309 0.29722,-0.33309c0.09551,0 0.18357,0.08619 0.25415,0.23136c0.15703,-0.12234 0.31373,-0.18169 0.46037,-0.15931c-0.05379,-1.75744 -0.1262,-4.01284 -0.08545,-5.82842c-0.88116,0.31673 -1.73401,1.05076 -2.18291,2.09789c-0.16431,0.15724 -0.31743,0.49763 -0.39897,0.91439l-0.05264,0.15856c-0.02446,0.1178 -0.06617,0.22868 -0.1346,0.31088c-0.0447,0.06027 -0.10407,0.10707 -0.16951,0.07037c-0.0658,-0.03169 -0.11451,-0.13482 -0.14773,-0.23568c-0.04767,-0.13236 -0.07141,-0.26449 -0.08018,-0.38836c-0.65107,-4.46309 1.28986,-7.15255 3.08283,-8.31117c0.0965,-3.06552 0.4895,-5.38891 2.05647,-5.38891h0.18681c0,0 0.11939,-0.00002 0.2023,0.21082c0.04412,0.11218 0.07792,0.28404 0.07792,0.54735c0,1.3993 0,2.7986 0,4.1979c0.34105,0.24455 0.63564,0.61293 1.02017,0.78701l0.31487,0.39652c0.00299,0.00362 0.00458,0.00576 0.00458,0.00576zM241.41488,328.13618c-0.02693,-0.07739 -0.05334,-0.15511 -0.07911,-0.23311c0,0.07441 -0.00089,0.14868 -0.00261,0.22278c0.02649,-0.00237 0.05372,0.00097 0.08171,0.01034zM235.1911,347.99622c-0.04097,-0.01551 -0.08404,-0.05201 -0.12853,-0.11691c-0.02657,0.05463 -0.05319,0.11385 -0.07964,0.17856z" fill="#160831" stroke="#6c5b89" stroke-width="1.5"></path><path d="M242.3744,313.01009c0.00033,0.00045 0.00066,0.00092 0.00099,0.00138c0.64245,0.89782 1.7861,4.77619 1.39935,6.74427v0.67172c0,0.41872 -0.12546,0.75816 -0.28022,0.75816c-0.12233,0 -0.22635,-0.21207 -0.26458,-0.50774c-0.05019,0.20448 -0.13608,0.33925 -0.2336,0.33925c-0.07738,0 -0.14744,-0.08485 -0.19815,-0.22205v0l-0.23854,-0.64538c-0.13008,-0.2643 -0.24461,-0.5135 -0.35103,-0.74362c-0.39803,-0.34354 -0.8638,-0.9385 -1.19862,-1.2999c-0.02549,1.4151 -0.09895,2.94981 -0.03885,3.76291c0.00085,0.57034 0.00817,1.1566 0.01921,1.75447c0.0353,0.06446 0.06351,0.14164 0.08605,0.22381c0.5644,-0.19279 1.28331,0.43344 1.50022,1.42546c0.15735,0.7196 0.05463,3.21632 0.09938,4.17015l0.02585,0.48905c0.14086,0.66655 0.29123,1.31208 0.46013,1.90504c0.4258,1.65289 0.70442,3.81601 0.79872,5.90777c0.20385,0.74476 0.40946,1.4467 0.59604,2.07024v-0.10769c0.04825,0.19256 0.09847,0.39288 0.15019,0.60697c0.05321,0.17615 0.10413,0.34409 0.15214,0.5028l0.10854,0.66844c0.03215,0.15918 0.06456,0.32627 0.09714,0.50244c0.29728,1.60769 0.28388,3.79099 0.62456,5.33922c0.21448,0.97471 0.68139,0.72894 0.70329,2.33084c0.01821,1.33217 -0.57075,2.17345 -0.85897,3.25463l-0.47977,-0.52109c-0.05391,0.13971 -0.09986,0.27415 -0.14214,0.39879c-0.07328,0.29759 -0.146,0.59639 -0.21614,0.89902l-0.06896,1.1194c-0.0301,0.54817 -0.20477,0.96872 -0.41575,0.96872c-0.23215,0 -0.42033,-0.50915 -0.42033,-1.13725v-1.29972h0.07426l0.01152,-0.18696l0.03396,0.01531c-0.00112,-0.06825 -0.00122,-0.13468 -0.00027,-0.19962l-0.01352,-0.02167c0.00518,-0.02408 0.01041,-0.04817 0.01567,-0.07227c0.02107,-0.67428 0.16267,-1.19622 0.46664,-1.92736c0.01923,-0.07788 0.03836,-0.15585 0.05731,-0.23391c0.01026,-0.10123 0.02657,-0.20815 0.05031,-0.32055v-0.00002c0.03303,-0.15638 0.06997,-0.27383 0.10878,-0.36078c0.06975,-0.3142 0.13401,-0.63035 0.1889,-0.94895l-0.08188,-0.03692l0.0053,-0.08613c-0.06325,-0.01853 -0.12536,-0.05648 -0.18593,-0.12085c-0.06965,-0.07404 -0.15862,-0.47555 -0.24491,-0.96065c-0.22945,-0.50307 -0.34993,-1.07 -0.38375,-1.80546c-0.03879,-0.10496 -0.07758,-0.20991 -0.11638,-0.31485h-0.06608v-0.17879c-0.03903,-0.1056 -0.07805,-0.21116 -0.11708,-0.31676c0,0 -0.14116,-0.38192 -0.13164,-0.88255l-0.15398,-0.33327l0.01107,-0.03744l-0.04572,-0.04645c-0.45872,-1.54259 -0.7166,-3.33269 -1.15872,-4.88303c-0.14187,-0.49746 -0.2994,-0.96088 -0.45374,-1.43035c-0.02714,-0.08255 -0.0671,-0.20884 -0.10814,-0.34583c0.00208,0.34788 -0.03052,0.75099 -0.04925,1.055c-0.11406,1.85163 -0.14405,3.65191 -0.15191,5.51093c0.39339,0.80187 0.66516,2.12092 0.81188,3.61047c0.20753,-0.48103 0.50626,-0.40051 0.9339,0.81428c0.42485,1.20685 0.09952,4.42942 -0.56736,4.73292c-0.03498,0.33529 -0.13192,0.79992 -0.4006,0.79992c-0.03528,0 -0.0676,-0.00802 -0.0972,-0.0227c-0.03371,0.20495 -0.07071,0.40184 -0.11104,0.58928c-0.17693,0.82227 -0.528,1.39593 -0.95071,1.72337c0.03587,0.14702 0.0719,0.30775 0.10808,0.48281l-0.0105,0.15175c0.03697,0.23706 0.05979,0.45869 0.07017,0.6652c0.09274,0.11659 0.18491,0.25471 0.27621,0.41578c0.52332,0.9232 0.41566,3.6994 1.01131,4.49639l0.10619,0.25564c0.11893,0.20399 0.1641,0.47607 0.17604,0.72597c0.02087,0.23197 0.01652,0.51149 -0.05538,0.80039c-0.19329,1.17781 -0.38271,2.35308 -0.56575,3.53145c0.09692,0.41259 0.05006,0.91977 0.05006,0.91977c-0.4191,4.53455 -1.231,8.6542 -1.51624,13.15297c-0.26491,4.17809 -0.15254,8.71484 -0.15254,12.99865c0,2.3106 0,4.62119 0,6.93179v0.43325c0,0 0,1.13725 -0.42033,1.13725c-0.04459,0 -0.08446,-0.0128 -0.1201,-0.03569c-0.00055,0.00036 -0.00112,0.00071 -0.00168,0.00106c-0.0619,0.14622 -0.15081,0.25124 -0.27855,0.25124c-0.42033,0 -0.42033,-1.13725 -0.42033,-1.13725v-0.21661c0,-5.07139 -0.08006,-10.10753 -0.08006,-15.16329c0,-8.14601 -0.06166,-15.51444 -1.98955,-22.0345c0,0 -0.22919,-0.77512 0.00832,-1.45634c-0.01469,-0.13069 -0.02913,-0.32301 -0.02028,-0.53032c-0.00006,-0.00781 -0.00009,-0.01563 -0.00009,-0.02349c0,-0.23896 0.02724,-0.46072 0.07378,-0.64376l0.31707,-1.28677l0.04946,0.08922l0.05595,-0.18166c0.3743,-1.24215 0.8134,-1.98271 1.22812,-3.11355c0,0 0.06636,-0.17955 0.16773,-0.28413c0.01732,-0.43591 0.06258,-0.89573 0.08917,-1.34133c-0.49763,-0.38181 -0.90674,-1.08886 -1.06859,-2.1174c-0.02524,-0.16043 -0.04527,-0.33194 -0.06064,-0.51225c-0.64995,-0.31424 -1.11809,-2.03155 -0.57534,-4.06914c0.0208,-0.07809 0.04318,-0.15197 0.0669,-0.22228l-0.01132,-0.02449l0.31783,-1.07488c0.01751,-0.06027 0.03722,-0.11564 0.05881,-0.1652c0.13659,-0.9383 0.31027,-1.71345 0.526,-2.34242c-0.1642,-2.39941 -0.39028,-4.59329 -0.67744,-6.84395c-0.10851,2.65057 -0.41361,6.32326 -0.64411,7.10829c-0.19816,0.67489 -0.48431,1.69015 -0.79058,1.45292c-0.07937,-0.06149 -0.14459,-0.18319 -0.19885,-0.34519c-0.12437,0.04766 -0.24851,0.10326 -0.37151,0.17177c-0.04366,0.15298 -0.0886,0.30518 -0.13482,0.45657c0,0 -0.14222,0.44889 -0.3412,0.42193c0.03119,0.52638 0.08445,1.11996 0.11963,1.71297c0.28093,0.50924 0.57831,1.23764 0.77609,1.59422l0.18717,1.16287c0,0 0,1.13725 -0.42033,1.13725c-0.02514,0 -0.04878,-0.00408 -0.071,-0.01172c-0.04333,0.50327 -0.21018,0.87818 -0.40938,0.87818c-0.08158,0 -0.15772,-0.06287 -0.22218,-0.17168l-0.39439,-0.64024l0.07477,-0.33719l-0.09597,-0.32459c-0.00671,-0.01838 -0.01338,-0.03674 -0.02003,-0.05509c-0.10573,-0.21788 -0.19371,-0.46562 -0.25467,-0.74781c-0.15356,-0.48298 -0.28053,-0.95212 -0.37804,-1.40621c-0.22776,-0.01366 -0.41083,-0.51746 -0.41083,-1.13696c0,-0.13507 0.0087,-0.26463 0.02467,-0.38481l0.15703,-1.27452l0.03135,0.02826l-0.00181,-0.2121c0.11156,-0.37719 0.20643,-0.73243 0.29725,-1.03377c0.00982,-0.11084 0.02153,-0.21831 0.03467,-0.32035l0.05135,0.03542c0.0136,-0.03911 0.02821,-0.07562 0.04372,-0.10921c0.00239,-0.00641 0.00477,-0.01281 0.00716,-0.01914l-0.04189,-0.11335l0.40032,-1.08308c0.07606,-0.20581 0.18115,-0.33309 0.29722,-0.33309c0.06685,0 0.13005,0.04221 0.18616,0.11733l0.04222,-0.04896l-0.01058,-0.0358l0.14144,-0.30616c0.95358,-3.93516 0.98188,-8.8155 0.98325,-13.62966l0.01739,-0.08726l-0.0131,-0.0059l0.07893,-1.28127c0.0125,-0.22778 0.04997,-0.43353 0.10464,-0.59622c0.12259,-1.60509 0.25578,-2.86005 0.81452,-4.37177l0.32026,-0.86648c0.07606,-0.20581 0.18115,-0.33309 0.29722,-0.33309c0.09551,0 0.18357,0.08619 0.25415,0.23136c0.15703,-0.12234 0.31373,-0.18169 0.46037,-0.15931c-0.05379,-1.75744 -0.1262,-4.01284 -0.08545,-5.82842c-0.88116,0.31673 -1.73401,1.05076 -2.18291,2.09789c-0.16431,0.15724 -0.31743,0.49763 -0.39897,0.91439l-0.05264,0.15856c-0.02446,0.1178 -0.06617,0.22868 -0.1346,0.31088c-0.0447,0.06027 -0.10407,0.10707 -0.16951,0.07037c-0.0658,-0.03169 -0.11451,-0.13482 -0.14773,-0.23568c-0.04767,-0.13236 -0.07141,-0.26449 -0.08018,-0.38836c-0.65107,-4.46309 1.28986,-7.15255 3.08283,-8.31117c0.0965,-3.06552 0.4895,-5.38891 2.05647,-5.38891h0.18681c0,0 0.11939,-0.00002 0.2023,0.21082c0.04412,0.11218 0.07792,0.28404 0.07792,0.54735c0,1.3993 0,2.7986 0,4.1979c0.34105,0.24455 0.63564,0.61293 1.02017,0.78701l0.31487,0.39652c0.00299,0.00362 0.00458,0.00576 0.00458,0.00576zM241.41488,328.13618c-0.02693,-0.07739 -0.05334,-0.15511 -0.07911,-0.23311c0,0.07441 -0.00089,0.14868 -0.00261,0.22278c0.02649,-0.00237 0.05372,0.00097 0.08171,0.01034zM235.1911,347.99622c-0.04097,-0.01551 -0.08404,-0.05201 -0.12853,-0.11691c-0.02657,0.05463 -0.05319,0.11385 -0.07964,0.17856z" fill="#160831" stroke="none" stroke-width="0.5"></path><path d="" fill="#9966ff" stroke="none" stroke-width="0.5"></path><path d="M238.05424,364.43195c0.0676,0.12285 0.16746,0.25483 0.28337,0.39643l0.02162,0.00899l-0.00092,0.01618c0.0595,0.07212 0.12284,0.14669 0.18795,0.22379c0.40525,0.01243 0.83416,0.11454 1.15582,0.40965c-0.02711,-2.39072 -0.05587,-4.7531 -0.05924,-7.03789c-0.10147,-0.04955 -0.19028,-0.19765 -0.2524,-0.40635l-0.38577,-1.27569l0.00206,-0.00458l-0.00762,-0.01416c-0.00331,-0.01193 -0.00661,-0.02385 -0.00992,-0.03576c-0.01512,0.00331 -0.03085,0.00503 -0.04721,0.00503c-0.24212,0 -0.34477,-0.37732 -0.3883,-0.6973c-0.34911,-0.95366 -0.65462,-1.84578 -0.93645,-2.81085c-0.04117,-0.12123 -0.08035,-0.23896 -0.11724,-0.35162l-0.0313,0.10347l-0.4715,-1.04373c-0.09567,-0.20845 -0.15688,-0.52799 -0.15688,-0.8862c0,-0.36724 0.06434,-0.69383 0.16418,-0.90175c-0.00594,-0.25304 0.02373,-0.54429 0.13137,-0.83553c0.22389,-0.60576 0.44778,-0.2989 0.54463,-0.11062c0.13224,0.04684 0.23073,0.26002 0.23073,0.26002c0.19837,0.43188 0.40423,0.89451 0.61859,1.31999c0.31206,0.19703 0.55523,0.4858 0.76862,0.95215c0.00466,-0.05162 0.00964,-0.10319 0.01487,-0.1547c0.12109,0.16264 0.26853,0.27421 0.42112,0.32859c0.24426,0.27383 0.5094,0.44209 0.71347,0.4065c0.03839,5.34006 0.20567,10.63242 0.20777,15.99818v0.5832c0,0 0,0.37866 -0.08075,0.69897c0.02956,4.36748 0.00721,8.73794 -0.22394,12.84848c-0.04742,1.54888 -0.10831,2.99278 -0.2208,4.52162l0.00817,0.36016c0,0 0,0.3454 -0.07036,0.65551c0.00131,0.09192 0.00257,0.18384 0.00378,0.27576c0.06999,3.4735 0.02953,7.05749 0.02352,10.23901c-0.00001,0.01507 -0.00001,0.03013 -0.00002,0.0452c0.00421,0.80197 0.37163,4.11676 0.26512,4.49761c-0.13307,0.47585 -0.40231,0.33716 -0.64365,0.32439c-0.06108,0.04546 -0.12135,0.04337 -0.17261,0.02329c-0.00842,-0.00285 -0.03565,-0.0135 -0.07188,-0.04205c-0.03627,-0.02822 -0.06139,-0.05855 -0.06907,-0.0683c-0.09703,-0.11709 -0.21115,-0.35293 -0.23224,-0.82097l-0.08881,-0.31606c0,-1.53233 -0.00809,-3.06978 -0.01421,-4.60834c-0.08134,-2.10254 -0.01104,-4.33245 0.00917,-6.51698c-0.12124,-0.20825 -0.17653,-0.55733 -0.17653,-0.55733l-0.16332,-1.26447c0,-0.39208 0.01592,-0.78083 0.04246,-1.16641h-0.04246v-1.63296c0,-0.56139 0.15035,-1.02778 0.34804,-1.12049c-0.1347,-3.80166 -0.57269,-7.39991 -0.73395,-11.13025c0,0 -0.00521,-0.14103 0.00645,-0.3285c-0.16555,-1.2364 -0.34154,-2.46999 -0.53891,-3.79464c0,0 -0.05606,-0.37919 -0.01701,-0.77398c-0.27614,-1.07527 -0.60743,-2.13487 -0.80256,-3.19492l-0.00084,-0.10141l-0.01104,0.00896l-0.12653,-1.14108c-0.01333,-0.11087 -0.02053,-0.22919 -0.02053,-0.35209c0,-0.62809 0.18819,-1.13725 0.42033,-1.13725c0.06063,0 0.11827,0.03472 0.17034,0.09726l0.50866,0.57341l-0.02974,0.1931z" fill-opacity="0.54118" fill="#514566" stroke="none" stroke-width="0.5"></path><path d="M239.43299,345.90634c-0.01421,-0.04599 -0.02164,-0.07615 -0.02164,-0.07615l0.00134,-0.00147c-0.02857,-0.11697 -0.04187,-0.20701 -0.04187,-0.20701c-0.0024,-0.01724 -0.00476,-0.0345 -0.00709,-0.05174c-0.07579,-0.03962 -0.14848,-0.09589 -0.21818,-0.16749c-0.01633,0.58768 -0.19774,1.05077 -0.41913,1.05077c-0.18042,0 -0.33431,-0.30757 -0.39391,-0.73948l-0.16881,-1.14181l0.09297,-0.10062c-0.23851,-1.011 -0.44421,-2.12923 -0.59847,-3.28549c-0.05505,2.55201 -0.23327,5.95308 -0.77178,7.21233c-0.47614,1.11339 -0.70516,0.39934 -1.18938,0.53461c-0.11166,0.03119 -0.12167,0.79031 -0.1125,1.467c0.45791,0.49118 0.90138,0.9604 0.94266,1.14589c0.23155,1.04044 -0.20673,3.81956 -0.68862,3.99939c-0.61329,0.22889 -1.6844,-3.95653 -2.01375,-5.0985c0,0 -0.11498,-0.39995 -0.09276,-0.87357l-0.0837,-0.49821c-0.02654,-0.14909 -0.04141,-0.31626 -0.04141,-0.49282c0,-0.62809 0.18819,-1.13725 0.42033,-1.13725c0.0962,0 0.18486,0.08745 0.2557,0.23456c0.06984,-0.17282 0.16025,-0.33101 0.26257,-0.47473c0.01293,-0.03585 0.02673,-0.06939 0.0413,-0.10038l0.42808,-0.92655l0.00874,0.02954c0.0171,-0.04813 0.03474,-0.095 0.05297,-0.14049c0.23247,-0.5798 0.98516,-0.28011 1.10785,-1.31525c0.14725,-1.2423 0.18087,-2.77825 0.32949,-4.08554l0.20924,-1.04627c0,0 0.04051,-0.19183 0.11708,-0.35807c0.00003,-0.04461 0.00002,-0.08713 -0.00001,-0.12748c0,0 0,-0.92147 0.30657,-1.10549c0.00346,-0.06167 0.00876,-0.12173 0.01574,-0.17973l0.12084,-1.08983l0.08082,-1.09326c0.01621,-0.24416 0.06122,-0.46127 0.12519,-0.62467c0.01283,-0.35094 0.04272,-0.70987 0.08432,-1.07273c-0.00029,-0.06775 -0.00048,-0.13435 -0.00058,-0.19976c0,0 0,-0.59728 0.15998,-0.92614c0.1964,-1.20004 0.45928,-2.39669 0.60063,-3.44581l0.00469,-0.01366l-0.00235,-0.00255l0.16881,-1.14181c0.05961,-0.43191 0.21348,-0.73947 0.3939,-0.73947c0.18297,0 0.33864,0.31631 0.39637,0.75785c0.10905,0.1861 0.18427,0.50409 0.19506,0.87119l0.04272,1.27149l-0.00355,0.00088l0.00383,0.12428l-0.06301,0.01421l0.0641,0.03296c-0.00077,0.15538 0.00056,0.30977 0.00375,0.46328c0.17398,1.32527 0.29574,2.70994 0.37991,4.11984c0.08894,0.74564 0.1704,1.49838 0.21445,2.27422c0.05872,1.0342 0.00618,2.149 -0.04482,3.2531c0.00493,0.61436 0.00635,1.22515 0.00546,1.8296l-0.02141,0.10269l0.01529,0.00828l-0.05737,0.77619c0.01506,0.48201 0.05167,0.94448 0.1217,1.3778c0,0 0.00498,0.03368 0.01093,0.09139c0.0265,0.21594 0.04306,0.5208 -0.01156,0.81982c-0.00609,0.03797 -0.01322,0.07566 -0.02154,0.1128c0.03511,0.04413 0.06474,0.09964 0.08973,0.1619c-0.27423,0.02634 -0.58307,0.09723 -0.69985,0.09723c0,0 -0.0129,-0.00002 -0.03317,0.00748c-0.02052,-0.05301 -0.03812,-0.10836 -0.05293,-0.16128zM235.75113,353.2829c-0.03108,0.14129 0.13683,-0.52855 0.08737,-0.43296c-0.01919,0.03709 -0.03886,0.07004 -0.05897,0.09902c-0.00419,0.07656 -0.0112,0.15065 -0.02073,0.22143c0.0013,0.04494 -0.00112,0.08273 -0.00767,0.11251z" fill-opacity="0.54118" fill="#514566" stroke="none" stroke-width="0.5"></path><path d="M239.38695,324.48101c-0.10499,-0.08117 -0.17491,-0.21503 -0.22091,-0.36874c-0.04318,0.04055 -0.08956,0.06256 -0.13785,0.06256c-0.12705,0 -0.24092,-0.1525 -0.318,-0.39352c-0.06835,-0.15999 -0.11743,-0.37858 -0.13658,-0.62691l-0.12743,-1.49407l0.07891,-0.04927c-0.05455,-0.48721 -0.08871,-0.98434 -0.08968,-1.48949v-1.04977c0,0 0,-0.35584 0.07357,-0.66943c-0.00066,-0.05873 -0.00087,-0.11694 -0.00063,-0.17453c-0.15581,0.01136 -0.317,0.07949 -0.48044,0.18049c-0.62109,0.87695 -1.26209,1.6551 -1.89192,2.56526l-0.08736,-0.05119l0.0036,0.09748l-0.18858,0.05102c-0.08667,0.21144 -0.30123,0.59931 -0.55052,0.04748c-0.15856,-0.35098 -0.17661,-0.74 -0.15345,-1.04659c-0.00047,-0.02212 -0.00071,-0.04443 -0.00071,-0.06687c0,-0.37679 0.06772,-0.71079 0.17205,-0.91773l0.20369,-0.41332c0.77013,-2.12213 1.70626,-3.18581 2.84683,-3.18876h0.43111c0.06935,0 0.13477,0.04544 0.19243,0.1259c0.38401,0.01679 0.76258,0.06123 1.1531,0.1708l0.06793,0.23638l0.02681,-0.10881l0.38258,0.69005c0.11588,0.20249 0.1926,0.55502 0.1926,0.95603c0,0.62809 -0.18819,1.13725 -0.42033,1.13725c-0.03332,0 -0.06573,-0.01048 -0.09682,-0.03031l-0.14047,-0.08144c-0.02971,1.37081 -0.11277,2.72838 -0.16358,4.10322l-0.10031,1.01574c0,0 -0.11547,1.0935 -0.51963,0.78108z" fill-opacity="0.54118" fill="#514566" stroke="none" stroke-width="0.5"></path><path d="M238.63648,319.18849c0.17061,-0.78211 0.48528,-1.3068 0.84525,-1.3068c0.54167,0 0.98078,1.18804 0.98078,2.65358c0,0.32524 -0.02163,0.6368 -0.0612,0.92475c0.3839,2.96659 0.40177,6.82682 -0.17272,8.61893c0.78884,2.89128 0.99769,7.34883 -0.05115,8.72864c-0.90249,1.18727 -1.33646,-1.44937 -1.71445,-3.19859c-0.36491,0.89906 -0.55312,1.35627 -1.08961,1.19764c-1.08709,-0.3214 -0.98227,-2.55083 -0.39501,-4.52727c0.09933,-1.88513 0.65344,-3.80721 1.26683,-4.63701l0.00546,-0.02587c0.03005,-0.02033 0.06001,-0.03806 0.08987,-0.0533c-0.30367,-3.23976 -0.16941,-7.65523 0.29594,-8.3747z" fill-opacity="0.53333" fill="#150830" stroke="none" stroke-width="0.5"></path><path d="M240.71354,373.21506c-0.85954,4.65111 -2.91951,-2.65147 -2.85472,-6.01367c-0.44219,-0.75789 -0.71051,-1.62021 -0.62871,-2.43171c-0.02028,-0.21257 -0.03107,-0.43547 -0.03107,-0.66518c0,-1.46553 0.43911,-2.65358 0.98078,-2.65358c0.07591,-0.15902 0.20496,-0.08455 0.3562,0.10871c0.07971,-0.88296 0.1503,-1.7753 0.34463,-2.49382c1.21727,-4.50077 2.34922,1.11242 2.04832,5.14075c0.76352,0.47605 1.3793,1.35479 0.79369,4.12754c-0.15523,0.73496 -0.54242,1.05183 -1.02833,1.06797c0.15073,1.52465 0.16519,3.02318 0.01923,3.81298z" fill-opacity="0.53333" fill="#150830" stroke="none" stroke-width="0.5"></path><path d="M239.41197,359.84239c0.1205,-0.0605 0.19032,-0.36275 0.19032,-0.36275c0.18926,-0.84312 0.24608,-0.85959 0.57663,-0.94963l0.04351,0.1009c0.00099,0.05899 0.00008,0.12546 -0.0046,0.19433c1.2369,2.31809 1.24553,8.46968 0.22878,11.24543c0,0 -0.00679,0.01835 -0.01909,0.04487c0.00249,0.07654 0.00086,0.1619 -0.00617,0.25696c-0.05496,0.74344 -0.32974,0.59475 -0.32974,0.59475l-0.34397,-0.23116c-0.79141,-1.30325 -0.79839,-2.76029 -0.79839,-5.06126c0.00056,-1.04927 0.10392,-4.27379 0.46273,-5.83242z" fill="#cbadff" stroke="none" stroke-width="0.5"></path><path d="" fill="#cbadff" stroke="none" stroke-width="0.5"></path><path d="M241.39658,348.73898c0.28624,4.61963 -3.23708,4.20073 -2.82676,-0.23996c-0.02057,-0.21397 -0.03151,-0.43843 -0.03151,-0.66982c0,-0.04858 0.00049,-0.09686 0.00144,-0.14479c0.02231,-1.46781 0.2754,-2.14929 0.62265,-2.32784c0.11055,-0.11682 0.23085,-0.18094 0.35669,-0.18094c0.23996,0 0.45979,0.23315 0.63024,0.6203c0.61715,0.69915 1.18907,2.00412 1.24725,2.94307z" fill-opacity="0.53333" fill="#150830" stroke="none" stroke-width="0.5"></path><g stroke="none" stroke-width="0.5"><path d="M240.82678,367.72685c0,0 0,0.54353 -0.11268,0.61968c-0.00469,0.03851 -0.00952,0.07723 -0.0145,0.11612c-0.15752,2.06579 -0.71251,2.593 -1.08259,1.05039c-0.05247,-0.06528 -0.08364,-0.27499 -0.08364,-0.27499c-0.04496,-0.30251 -0.08355,-0.59563 -0.11624,-0.87897l-0.01336,-0.08986c0,0 -0.01368,-0.09207 -0.02096,-0.22472c-0.4097,-3.98986 0.37556,-5.90604 0.9132,-4.56965c0.38336,0.19705 0.49082,1.27061 0.52013,2.76857c0.00812,0.18348 0.01072,0.37705 0.00771,0.57986c0.00234,0.28997 0.00292,0.59205 0.00292,0.90357z" fill="#491ca3"></path><path d="M239.59578,363.23771c0.40243,-0.97991 0.66784,-0.36982 0.69019,0.48938c0.01598,-0.00173 0.03184,-0.00249 0.04753,-0.00227l0.05969,0.18816l0.01824,-0.05551l0.06159,0.14813l0.06437,0.0563c0,0 0.14643,0.19809 0.15949,0.59426c0.01213,0.08482 0.01877,0.177 0.01877,0.27339c0,0.41872 -0.12546,0.75816 -0.28022,0.75816c-0.00184,0 -0.00367,-0.00005 -0.0055,-0.00014c0.02674,0.43073 -0.03441,0.90498 -0.15576,1.3603l0.09048,0.21761l-0.18588,0.56579c-0.05135,0.15777 -0.12657,0.25731 -0.21037,0.25731c-0.14176,0 -0.25895,-0.28483 -0.27763,-0.65452l-0.04604,-0.80972l0.01489,-0.00619l-0.01815,-0.11383c0.01259,-0.21879 0.02518,-0.4376 0.03776,-0.65639c-0.00679,-0.006 -0.0137,-0.01274 -0.02073,-0.02018c-0.04768,-0.04347 -0.10219,-0.12517 -0.13872,-0.2786c-0.0383,-0.15024 -0.0452,-0.31776 -0.0417,-0.45358c0.00002,-0.00282 0.00004,-0.00563 0.00008,-0.00842c-0.23474,-0.24766 -0.31478,-0.7966 0.11763,-1.84948z" fill="#14072e"></path><path d="M240.38114,365.16088c0.06252,-0.11702 0.15352,-0.18654 0.273,-0.0249c0.25064,0.33905 0.12532,1.01718 0.12532,1.01718l-0.29395,0.54354c-0.37257,-0.072 -0.66203,-0.09927 -1.00672,-0.50829c0,0 -0.2551,-0.31373 -0.13915,-1.00393c0.11596,-0.69022 0.37107,-0.37647 0.37107,-0.37647c0.22817,0.29487 0.43319,0.31893 0.67043,0.35288z" fill-opacity="0.72549" fill="#14072e"></path><path d="M240.45789,368.33635c-0.20636,0.19881 -0.4788,0.00376 -0.70259,0.05676c-0.05057,0.19774 -0.13499,0.3273 -0.2306,0.3273c-0.15476,0 -0.28022,-0.33945 -0.28022,-0.75816v-0.75816c0,-0.10901 0.00995,-0.2293 0.02746,-0.34518c-0.09501,-0.26367 -0.07035,-0.66397 -0.07035,-0.66397l0.04595,-0.74587c0.02006,-0.36545 0.13651,-0.64582 0.27716,-0.64582c0.15476,0 0.28022,0.33945 0.28022,0.75816v0.75816h-0.04284l-0.00031,0.00505c0.00141,0.01527 0.0028,0.03055 0.00416,0.04585c0.28023,0.19389 0.63406,0.67737 0.45596,0.20182h-0.01999v-1.07408v0c0,-0.41872 0.12546,-0.75816 0.28022,-0.75816c0.12606,0 0.23267,0.22521 0.26789,0.53501l0.09136,0.74158l-0.06086,0.05488c0.05135,0.27978 0.08743,0.57275 0.09762,0.88008l-0.11659,0.9395c0,0 -0.09409,0.57278 -0.30366,0.44527z" fill-opacity="0.35294" fill="#14072e"></path><path d="M240.47473,368.57088c0.12532,0.16954 0.06266,0.50859 0.06266,0.50859l-0.0687,0.37174c-0.02247,0.12822 -0.07075,0.2169 -0.12668,0.2169c-0.07738,0 -0.14011,-0.16972 -0.14011,-0.37908v-0.11733l-0.01203,0.01394l-0.06883,-0.43456c-0.00806,-0.04784 -0.01255,-0.10102 -0.01255,-0.15703c0,-0.20936 0.06273,-0.37908 0.14011,-0.37908c0.04473,0 0.08457,0.05671 0.11022,0.14501l0.04833,0.16345c0.02002,0.00005 0.04255,0.01362 0.06758,0.04748z" fill="#6928eb"></path><path d="M239.88792,368.46277c0.01964,-0.03501 0.04575,-0.05826 0.08046,-0.05826c0.14011,0 0.14011,0.37908 0.14011,0.37908v0.69498c0,0.20936 -0.06273,0.37908 -0.14011,0.37908c-0.03352,0 -0.06429,-0.03184 -0.0884,-0.08494l-0.11589,-0.25083l0.02336,-0.079l-0.07021,-0.10966c0.01605,-0.20211 0.03211,-0.40421 0.04816,-0.60632c0,0 0.03184,-0.25846 0.12251,-0.26413z" fill="#6928eb"></path><path d="M240.2019,364.04506c0,-0.20936 0.06273,-0.37908 0.14011,-0.37908c0.07738,0 0.14011,0.16972 0.14011,0.37908c0,0.20936 -0.06273,0.37908 -0.14011,0.37908c-0.07738,0 -0.14011,-0.16972 -0.14011,-0.37908z" fill="#6928eb"></path></g><path d="M238.88611,297.35739c0.0215,0.0094 0.03913,0.0264 0.05356,0.04839c0.01391,-0.0635 0.03443,-0.11468 0.05879,-0.14716l0.21521,-0.29913l0.0249,0.13115c0.37309,-0.60276 0.74579,-0.61631 1.07122,-0.24549c0.49344,0.05139 0.93677,0.41884 0.92387,1.5555c-0.01158,0.40571 -0.01762,0.81058 -0.01953,1.21485c0.09296,0.69245 0.13631,1.44591 0.11494,2.1944c-0.01688,0.59134 -0.03376,1.18268 -0.05064,1.77403c0.04428,1.80417 0.0779,3.61021 -0.02684,5.43753c-0.00317,0.10987 -0.00799,0.21679 -0.0144,0.32075c-0.04616,1.69429 -0.24915,3.03149 -1.00418,2.87372c-0.09564,-0.01999 -0.18113,-0.05654 -0.25998,-0.11281c-0.70319,0.07997 -1.42053,-1.07599 -1.35336,-3.42894c0.10179,-3.56577 -0.00117,-7.17005 0.01802,-10.74879c0,0 0.00163,-0.30058 0.10091,-0.36248c0.01811,-0.10529 0.05914,-0.24413 0.14753,-0.20549zM240.82374,297.85179c0.0468,0.1384 0.09106,0.28578 0.13249,0.44084c0.00354,-0.1963 -0.0468,-0.33923 -0.13249,-0.44084z" fill="#13072c" stroke="none" stroke-width="0.5"></path></g><path d="M238.89569,312.73361v-123.33333h2.20862v123.33333z" fill="url(#color-1)" stroke="none" stroke-width="0"></path></g></g></svg>