<svg version="1.1" xmlns="http://www.w3.org/2000/svg" xmlns:xlink="http://www.w3.org/1999/xlink" width="234" height="981.33328" viewBox="0,0,234,981.33328"><g transform="translate(-123,310.66664)"><g fill="#0a0610" stroke="none" stroke-width="0" stroke-miterlimit="10"><g><g><g><path d="M123,57.33334v-61.33333h42.05714c0,0 -4.8,20.69493 -4.8,30.96666c0,10.17173 4.8,30.36667 4.8,30.36667z"></path><path d="M123,-3.99999v-61.33333h42.05714c0,0 5.94286,20.69494 5.94286,30.96667c0,10.17173 -5.94286,30.36666 -5.94286,30.36666z"></path></g><g><path d="M314.94286,57.33334c0,0 4.8,-20.19493 4.8,-30.36666c0,-10.27173 -4.8,-30.96667 -4.8,-30.96667h42.05714v61.33333z"></path><path d="M314.94286,-3.99999c0,0 -5.94286,-20.19493 -5.94286,-30.36667c0,-10.27173 5.94286,-30.96666 5.94286,-30.96666h42.05714v61.33333z"></path></g></g><g><g><path d="M123,180v-61.33333h42.05714c0,0 -4.8,20.69493 -4.8,30.96666c0,10.17173 4.8,30.36667 4.8,30.36667z"></path><path d="M123,118.66667v-61.33333h42.05714c0,0 5.94286,20.69494 5.94286,30.96667c0,10.17173 -5.94286,30.36666 -5.94286,30.36666z"></path></g><g><path d="M314.94286,180c0,0 4.8,-20.19493 4.8,-30.36666c0,-10.27173 -4.8,-30.96667 -4.8,-30.96667h42.05714v61.33333z"></path><path d="M314.94286,118.66667c0,0 -5.94286,-20.19493 -5.94286,-30.36667c0,-10.27173 5.94286,-30.96666 5.94286,-30.96666h42.05714v61.33333z"></path></g></g></g><g><g><g><path d="M123,-187.99998v-61.33333h42.05714c0,0 -4.8,20.69493 -4.8,30.96666c0,10.17173 4.8,30.36667 4.8,30.36667z"></path><path d="M123,-249.33331v-61.33333h42.05714c0,0 5.94286,20.69494 5.94286,30.96667c0,10.17173 -5.94286,30.36666 -5.94286,30.36666z"></path></g><g><path d="M314.94286,-187.99998c0,0 4.8,-20.19493 4.8,-30.36666c0,-10.27173 -4.8,-30.96667 -4.8,-30.96667h42.05714v61.33333z"></path><path d="M314.94286,-249.33331c0,0 -5.94286,-20.19493 -5.94286,-30.36667c0,-10.27173 5.94286,-30.96666 5.94286,-30.96666h42.05714v61.33333z"></path></g></g><g><g><path d="M123,-65.33332v-61.33333h42.05714c0,0 -4.8,20.69493 -4.8,30.96666c0,10.17173 4.8,30.36667 4.8,30.36667z"></path><path d="M123,-126.66665v-61.33333h42.05714c0,0 5.94286,20.69494 5.94286,30.96667c0,10.17173 -5.94286,30.36666 -5.94286,30.36666z"></path></g><g><path d="M314.94286,-65.33332c0,0 4.8,-20.19493 4.8,-30.36666c0,-10.27173 -4.8,-30.96667 -4.8,-30.96667h42.05714v61.33333z"></path><path d="M314.94286,-126.66665c0,0 -5.94286,-20.19493 -5.94286,-30.36667c0,-10.27173 5.94286,-30.96666 5.94286,-30.96666h42.05714v61.33333z"></path></g></g></g><g><g><g><path d="M123,547.99998v-61.33333h42.05714c0,0 -4.8,20.69493 -4.8,30.96666c0,10.17173 4.8,30.36667 4.8,30.36667z"></path><path d="M123,486.66665v-61.33333h42.05714c0,0 5.94286,20.69494 5.94286,30.96667c0,10.17173 -5.94286,30.36666 -5.94286,30.36666z"></path></g><g><path d="M314.94286,547.99998c0,0 4.8,-20.19493 4.8,-30.36666c0,-10.27173 -4.8,-30.96667 -4.8,-30.96667h42.05714v61.33333z"></path><path d="M314.94286,486.66665c0,0 -5.94286,-20.19493 -5.94286,-30.36667c0,-10.27173 5.94286,-30.96666 5.94286,-30.96666h42.05714v61.33333z"></path></g></g><g><g><path d="M123,670.66664v-61.33333h42.05714c0,0 -4.8,20.69493 -4.8,30.96666c0,10.17173 4.8,30.36667 4.8,30.36667z"></path><path d="M123,609.33331v-61.33333h42.05714c0,0 5.94286,20.69494 5.94286,30.96667c0,10.17173 -5.94286,30.36666 -5.94286,30.36666z"></path></g><g><path d="M314.94286,670.66664c0,0 4.8,-20.19493 4.8,-30.36666c0,-10.27173 -4.8,-30.96667 -4.8,-30.96667h42.05714v61.33333z"></path><path d="M314.94286,609.33331c0,0 -5.94286,-20.19493 -5.94286,-30.36667c0,-10.27173 5.94286,-30.96666 5.94286,-30.96666h42.05714v61.33333z"></path></g></g></g><g><g><g><path d="M123,302.66666v-61.33333h42.05714c0,0 -4.8,20.69493 -4.8,30.96666c0,10.17173 4.8,30.36667 4.8,30.36667z"></path><path d="M123,241.33333v-61.33333h42.05714c0,0 5.94286,20.69494 5.94286,30.96667c0,10.17173 -5.94286,30.36666 -5.94286,30.36666z"></path></g><g><path d="M314.94286,302.66666c0,0 4.8,-20.19493 4.8,-30.36666c0,-10.27173 -4.8,-30.96667 -4.8,-30.96667h42.05714v61.33333z"></path><path d="M314.94286,241.33333c0,0 -5.94286,-20.19493 -5.94286,-30.36667c0,-10.27173 5.94286,-30.96666 5.94286,-30.96666h42.05714v61.33333z"></path></g></g><g><g><path d="M123,425.33332v-61.33333h42.05714c0,0 -4.8,20.69493 -4.8,30.96666c0,10.17173 4.8,30.36667 4.8,30.36667z"></path><path d="M123,363.99999v-61.33333h42.05714c0,0 5.94286,20.69494 5.94286,30.96667c0,10.17173 -5.94286,30.36666 -5.94286,30.36666z"></path></g><g><path d="M314.94286,425.33332c0,0 4.8,-20.19493 4.8,-30.36666c0,-10.27173 -4.8,-30.96667 -4.8,-30.96667h42.05714v61.33333z"></path><path d="M314.94286,363.99999c0,0 -5.94286,-20.19493 -5.94286,-30.36667c0,-10.27173 5.94286,-30.96666 5.94286,-30.96666h42.05714v61.33333z"></path></g></g></g></g></g></svg>