<svg version="1.1" xmlns="http://www.w3.org/2000/svg" xmlns:xlink="http://www.w3.org/1999/xlink" width="226.32662" height="42.41414" viewBox="0,0,226.32662,42.41414"><defs><radialGradient cx="240" cy="180" r="185.33333" gradientUnits="userSpaceOnUse" id="color-1"><stop offset="0" stop-color="#f3edff" stop-opacity="0.47059"></stop><stop offset="1" stop-color="#f3edff" stop-opacity="0"></stop></radialGradient></defs><g transform="translate(-199.00671,-158.79293)"><g stroke-miterlimit="10"><path d="M199.75,183.47106v-6.94213h89.375v6.94213z" fill="#f2ecff" stroke="#f2ecff" stroke-width="0.5"></path><g fill="#f2ecff" stroke="#f2ecff" stroke-width="0.5"><path d="M199.75,176.52894c0,0 7.32252,-0.04107 14.22831,-1.1717c5.6731,-0.92881 10.9024,-2.83677 12.95168,-3.97356c5.51635,-3.06007 13.07001,-11.91261 13.07001,-11.91261v17.05787z"></path><path d="M240,176.52894v-17.05787c0,0 7.55366,8.85254 13.07001,11.91261c2.04928,1.1368 7.27858,3.04476 12.95169,3.97357c6.9058,1.13063 14.22831,1.17169 14.22831,1.17169z"></path></g><g fill="#f2ecff" stroke="#f2ecff" stroke-width="0.5"><path d="M240,183.47106v17.05787c0,0 -7.55366,-8.85254 -13.07001,-11.91261c-2.04928,-1.1368 -7.27858,-3.04476 -12.95168,-3.97357c-6.9058,-1.13063 -14.22831,-1.17169 -14.22831,-1.17169z"></path><path d="M280.25,183.47106c0,0 -7.32251,0.04107 -14.22831,1.17169c-5.6731,0.92881 -10.9024,2.83677 -12.95168,3.97357c-5.51635,3.06008 -13.07001,11.91261 -13.07001,11.91261v-17.05787z"></path></g><path d="M289.125,183.47106v-6.94213l80.5,3.47106z" fill="#f2ecff" stroke="#f2ecff" stroke-width="0.5"></path><path d="M425.33333,180c0,5.06261 -82.97656,9.16667 -185.33333,9.16667c-18.41417,0 -31.48665,-0.13283 -40.54344,-0.38016c-1.29637,-0.0354 0.57679,-17.58863 1.02041,-17.59996c9.00968,-0.23003 21.78923,-0.35322 39.52303,-0.35322c102.35677,0 185.33333,4.10406 185.33333,9.16667z" fill="url(#color-1)" stroke="none" stroke-width="0"></path></g></g></svg>