<svg version="1.1" xmlns="http://www.w3.org/2000/svg" xmlns:xlink="http://www.w3.org/1999/xlink" width="225.51952" height="2449.33321" viewBox="0,0,225.51952,2449.33321"><g transform="translate(-127.24024,617.33329)"><g stroke="none" stroke-width="0" stroke-miterlimit="10"><g fill="#0a0610"><g><g><g><path d="M127.24024,363.99999v-122.66666h46.04226c0,0 -5.25482,41.38986 -5.25482,61.93332c0,20.34346 5.25482,60.73334 5.25482,60.73334z"></path><path d="M127.24024,241.33333v-122.66666h46.04226c0,0 6.50598,41.38988 6.50598,61.93334c0,20.34346 -6.50598,60.73332 -6.50598,60.73332z"></path></g><g><path d="M306.7175,363.99999c0,0 5.25482,-40.38986 5.25482,-60.73332c0,-20.54346 -5.25482,-61.93334 -5.25482,-61.93334h46.04226v122.66666z"></path><path d="M306.7175,241.33333c0,0 -6.50598,-40.38986 -6.50598,-60.73334c0,-20.54346 6.50598,-61.93332 6.50598,-61.93332h46.04226v122.66666z"></path></g></g><g><g><path d="M127.24024,609.33331v-122.66666h46.04226c0,0 -5.25482,41.38986 -5.25482,61.93332c0,20.34346 5.25482,60.73334 5.25482,60.73334z"></path><path d="M127.24024,486.66665v-122.66666h46.04226c0,0 6.50598,41.38988 6.50598,61.93334c0,20.34346 -6.50598,60.73332 -6.50598,60.73332z"></path></g><g><path d="M306.7175,609.33331c0,0 5.25482,-40.38986 5.25482,-60.73332c0,-20.54346 -5.25482,-61.93334 -5.25482,-61.93334h46.04226v122.66666z"></path><path d="M306.7175,486.66665c0,0 -6.50598,-40.38986 -6.50598,-60.73334c0,-20.54346 6.50598,-61.93332 6.50598,-61.93332h46.04226v122.66666z"></path></g></g><g><g><path d="M127.24024,854.66663v-122.66666h46.04226c0,0 -5.25482,41.38986 -5.25482,61.93332c0,20.34346 5.25482,60.73334 5.25482,60.73334z"></path><path d="M127.24024,731.99997v-122.66666h46.04226c0,0 6.50598,41.38988 6.50598,61.93334c0,20.34346 -6.50598,60.73332 -6.50598,60.73332z"></path></g><g><path d="M306.7175,854.66663c0,0 5.25482,-40.38986 5.25482,-60.73332c0,-20.54346 -5.25482,-61.93334 -5.25482,-61.93334h46.04226v122.66666z"></path><path d="M306.7175,731.99997c0,0 -6.50598,-40.38986 -6.50598,-60.73334c0,-20.54346 6.50598,-61.93332 6.50598,-61.93332h46.04226v122.66666z"></path></g></g></g><g><g><g><path d="M127.24024,-371.99997v-122.66666h46.04226c0,0 -5.25483,41.38986 -5.25483,61.93332c0,20.34346 5.25483,60.73334 5.25483,60.73334z"></path><path d="M127.24024,-494.66663v-122.66666h46.04226c0,0 6.50597,41.38988 6.50597,61.93334c0,20.34346 -6.50597,60.73332 -6.50597,60.73332z"></path></g><g><path d="M306.7175,-371.99997c0,0 5.25483,-40.38986 5.25483,-60.73332c0,-20.54346 -5.25483,-61.93334 -5.25483,-61.93334h46.04226v122.66666z"></path><path d="M306.7175,-494.66663c0,0 -6.50597,-40.38986 -6.50597,-60.73334c0,-20.54346 6.50597,-61.93332 6.50597,-61.93332h46.04226v122.66666z"></path></g></g><g><g><path d="M127.24024,-126.66665v-122.66666h46.04226c0,0 -5.25483,41.38986 -5.25483,61.93332c0,20.34346 5.25483,60.73334 5.25483,60.73334z"></path><path d="M127.24024,-249.33331v-122.66666h46.04226c0,0 6.50597,41.38988 6.50597,61.93334c0,20.34346 -6.50597,60.73332 -6.50597,60.73332z"></path></g><g><path d="M306.7175,-126.66665c0,0 5.25483,-40.38986 5.25483,-60.73332c0,-20.54346 -5.25483,-61.93334 -5.25483,-61.93334h46.04226v122.66666z"></path><path d="M306.7175,-249.33331c0,0 -6.50597,-40.38986 -6.50597,-60.73334c0,-20.54346 6.50597,-61.93332 6.50597,-61.93332h46.04226v122.66666z"></path></g></g><g><g><path d="M127.24024,118.66667v-122.66666h46.04226c0,0 -5.25483,41.38986 -5.25483,61.93332c0,20.34346 5.25483,60.73334 5.25483,60.73334z"></path><path d="M127.24024,-3.99999v-122.66666h46.04226c0,0 6.50597,41.38988 6.50597,61.93334c0,20.34346 -6.50597,60.73332 -6.50597,60.73332z"></path></g><g><path d="M306.7175,118.66667c0,0 5.25483,-40.38986 5.25483,-60.73332c0,-20.54346 -5.25483,-61.93334 -5.25483,-61.93334h46.04226v122.66666z"></path><path d="M306.7175,-3.99999c0,0 -6.50597,-40.38986 -6.50597,-60.73334c0,-20.54346 6.50597,-61.93332 6.50597,-61.93332h46.04226v122.66666z"></path></g></g></g></g><g fill="#0a0610"><g><g><g><path d="M127.24024,1341.33328v-122.66666h46.04226c0,0 -5.25482,41.38986 -5.25482,61.93332c0,20.34346 5.25482,60.73334 5.25482,60.73334z"></path><path d="M127.24024,1218.66662v-122.66666h46.04226c0,0 6.50598,41.38988 6.50598,61.93334c0,20.34346 -6.50598,60.73332 -6.50598,60.73332z"></path></g><g><path d="M306.7175,1341.33328c0,0 5.25482,-40.38986 5.25482,-60.73332c0,-20.54346 -5.25482,-61.93334 -5.25482,-61.93334h46.04226v122.66666z"></path><path d="M306.7175,1218.66662c0,0 -6.50598,-40.38986 -6.50598,-60.73334c0,-20.54346 6.50598,-61.93332 6.50598,-61.93332h46.04226v122.66666z"></path></g></g><g><g><path d="M127.24024,1586.6666v-122.66666h46.04226c0,0 -5.25482,41.38986 -5.25482,61.93332c0,20.34346 5.25482,60.73334 5.25482,60.73334z"></path><path d="M127.24024,1463.99994v-122.66666h46.04226c0,0 6.50598,41.38988 6.50598,61.93334c0,20.34346 -6.50598,60.73332 -6.50598,60.73332z"></path></g><g><path d="M306.7175,1586.6666c0,0 5.25482,-40.38986 5.25482,-60.73332c0,-20.54346 -5.25482,-61.93334 -5.25482,-61.93334h46.04226v122.66666z"></path><path d="M306.7175,1463.99994c0,0 -6.50598,-40.38986 -6.50598,-60.73334c0,-20.54346 6.50598,-61.93332 6.50598,-61.93332h46.04226v122.66666z"></path></g></g><g><g><path d="M127.24024,1831.99992v-122.66666h46.04226c0,0 -5.25482,41.38986 -5.25482,61.93332c0,20.34346 5.25482,60.73334 5.25482,60.73334z"></path><path d="M127.24024,1709.33326v-122.66666h46.04226c0,0 6.50598,41.38988 6.50598,61.93334c0,20.34346 -6.50598,60.73332 -6.50598,60.73332z"></path></g><g><path d="M306.7175,1831.99992c0,0 5.25482,-40.38986 5.25482,-60.73332c0,-20.54346 -5.25482,-61.93334 -5.25482,-61.93334h46.04226v122.66666z"></path><path d="M306.7175,1709.33326c0,0 -6.50598,-40.38986 -6.50598,-60.73334c0,-20.54346 6.50598,-61.93332 6.50598,-61.93332h46.04226v122.66666z"></path></g></g></g><g><g><g><path d="M127.24024,605.33332v-122.66666h46.04226c0,0 -5.25483,41.38986 -5.25483,61.93332c0,20.34346 5.25483,60.73334 5.25483,60.73334z"></path><path d="M127.24024,482.66666v-122.66666h46.04226c0,0 6.50597,41.38988 6.50597,61.93334c0,20.34346 -6.50597,60.73332 -6.50597,60.73332z"></path></g><g><path d="M306.7175,605.33332c0,0 5.25483,-40.38986 5.25483,-60.73332c0,-20.54346 -5.25483,-61.93334 -5.25483,-61.93334h46.04226v122.66666z"></path><path d="M306.7175,482.66666c0,0 -6.50597,-40.38986 -6.50597,-60.73334c0,-20.54346 6.50597,-61.93332 6.50597,-61.93332h46.04226v122.66666z"></path></g></g><g><g><path d="M127.24024,850.66664v-122.66666h46.04226c0,0 -5.25483,41.38986 -5.25483,61.93332c0,20.34346 5.25483,60.73334 5.25483,60.73334z"></path><path d="M127.24024,727.99998v-122.66666h46.04226c0,0 6.50597,41.38988 6.50597,61.93334c0,20.34346 -6.50597,60.73332 -6.50597,60.73332z"></path></g><g><path d="M306.7175,850.66664c0,0 5.25483,-40.38986 5.25483,-60.73332c0,-20.54346 -5.25483,-61.93334 -5.25483,-61.93334h46.04226v122.66666z"></path><path d="M306.7175,727.99998c0,0 -6.50597,-40.38986 -6.50597,-60.73334c0,-20.54346 6.50597,-61.93332 6.50597,-61.93332h46.04226v122.66666z"></path></g></g><g><g><path d="M127.24024,1095.99996v-122.66666h46.04226c0,0 -5.25483,41.38986 -5.25483,61.93332c0,20.34346 5.25483,60.73334 5.25483,60.73334z"></path><path d="M127.24024,973.3333v-122.66666h46.04226c0,0 6.50597,41.38988 6.50597,61.93334c0,20.34346 -6.50597,60.73332 -6.50597,60.73332z"></path></g><g><path d="M306.7175,1095.99996c0,0 5.25483,-40.38986 5.25483,-60.73332c0,-20.54346 -5.25483,-61.93334 -5.25483,-61.93334h46.04226v122.66666z"></path><path d="M306.7175,973.3333c0,0 -6.50597,-40.38986 -6.50597,-60.73334c0,-20.54346 6.50597,-61.93332 6.50597,-61.93332h46.04226v122.66666z"></path></g></g></g></g></g></g></svg>