<svg version="1.1" xmlns="http://www.w3.org/2000/svg" xmlns:xlink="http://www.w3.org/1999/xlink" width="135.5" height="135.5" viewBox="0,0,135.5,135.5"><g transform="translate(-172.25,-112.25)"><g stroke="none" stroke-miterlimit="10"><path d="M172.25,247.75v-135.5h135.5v135.5z" fill="#0a0610" stroke-width="0"></path><path d="M212.12,235.83v-0.12861c-0.53047,0.08035 -1.06383,0.12861 -1.6,0.12861l-0.8599,-0.15489c-0.91529,0.40294 -1.82919,0.82787 -2.74634,1.25458l0.01711,0.02139l-1.24222,0.99378c-0.21512,0.17514 -0.48962,0.28014 -0.78865,0.28014c-0.69036,0 -1.25,-0.55964 -1.25,-1.25v-1.75h0.07465l-0.05209,-0.23638c0.02589,-0.06472 0.72344,-1.43615 0.54159,-1.86833c-0.18257,-0.43389 -0.75069,-0.6995 -0.79336,-1.1683c-0.09858,-1.08298 0.49142,-2.1396 0.47922,-3.22699c0,0 0,-0.68228 0.50408,-1.03871l0.01293,-0.91679c0.79404,-4.67752 0.71078,-9.8625 0.59332,-14.88545c0.88979,0.22833 1.72477,0.42664 2.48431,0.59737c1.93869,0.4358 4.74656,0.44089 6.44903,0.59324c0.26434,0.02365 0.46171,0.27315 0.64903,0.46115c1.95386,1.96102 3.18855,4.03754 5.5273,5.59418c3.21671,2.14098 9.50353,3.26126 13.35601,3.51394c11.99119,0.78647 21.14794,0.69451 30.7544,-6.3441c1.63641,-1.19899 2.14414,-3.40231 3.60505,-4.80114c1.7093,-1.63667 5.68963,-0.95439 8.43761,-1.50411c-0.17136,1.56582 -0.40532,3.07583 -0.64562,4.4668c-0.51126,2.95931 0.02255,6.49631 0.02255,9.51361c0,3.34157 -0.23522,6.66509 -0.25,10c-0.00565,1.27545 0.14163,2.77218 -1.01911,3.76405c-0.50553,0.43199 -1.31696,0.19893 -1.98089,0.23595c-2.4538,0.13684 -4.98981,0.03888 -7.44952,-0.00034c-1.12986,-0.01801 -2.44513,0.54811 -3.38923,-0.07284c-0.14076,-0.09258 -0.24839,-0.28348 -0.32968,-0.5448c-1.01557,0.20819 -1.6906,0.51619 -2.26156,1.1066v0.71639c0,0.69036 -0.55964,1.25 -1.25,1.25c-0.16307,0 -0.31886,-0.03123 -0.4617,-0.08804c-0.21612,0.42067 -0.57114,0.80497 -1.14848,1.14013c-1.78474,1.03608 -6.65385,0.25202 -8.98685,0.15703c-0.07605,0.76852 -0.23247,1.41916 -0.51909,1.82476c-0.44496,0.62966 -1.51628,0.29376 -2.28388,0.36612c-2.01645,0.19008 -4.17896,0 -6.2,0c-0.43412,0 -0.71747,-0.15077 -0.90241,-0.34759c-0.19681,-0.18494 -0.34759,-0.46829 -0.34759,-0.90241v-0.00821c-1.11596,-0.01938 -2.38206,-0.19087 -3.06139,-0.14494c-4.0782,0.27575 -8.15163,0.24409 -12.22665,-0.2045c0,0 -0.66157,-0.07351 -0.96553,-0.59602c-0.03182,0.00243 -0.06399,0.00366 -0.09643,0.00366c-0.69036,0 -1.25,-0.55964 -1.25,-1.25v-1.6c0,-0.04013 -0.00025,-0.08078 -0.00074,-0.12192c-0.49049,0.42624 -1.20235,0.65049 -2.22693,0.5695c-0.84285,-0.06662 -1.86963,-0.01454 -2.45942,-0.62034c-0.52298,-0.53717 -0.25181,-1.48003 -0.31291,-2.22725c-0.01494,-0.18266 -0.02719,-0.36604 -0.03712,-0.55z" fill="#273d8c" stroke-width="0.5"></path><path d="M250.4,164.725c3.52248,0.00197 8.08752,0.12333 11.11792,2.21375c2.2183,1.53021 4.3899,3.56766 6.70297,5.21521c1.97014,1.40329 3.92474,1.67714 5.50896,3.76305c3.74289,6.23276 6.17015,12.73842 6.17015,20.05799c0,2.23376 0.36109,4.66399 -0.60557,6.69721c-0.11642,0.23238 -0.22736,0.46178 -0.33246,0.69065l0.33246,0.66492l-0.10664,0.05332c0.10464,0.19356 0.17363,0.39904 0.18546,0.62364c0.04341,0.82446 -3.63938,3.17496 -4.162,3.85496c-0.72523,0.94363 -1.08048,2.23224 -1.69105,3.15798c-0.23021,0.34904 -0.50452,0.67387 -0.80902,0.98236c-1.62281,2.01119 -3.85744,3.7355 -5.59594,5.47384c-0.29363,0.30735 -0.56516,0.64869 -0.82589,1.00664c-0.3645,0.60209 -0.71503,1.15767 -1.13233,1.65556c-0.4925,0.71641 -1.00772,1.39769 -1.62833,1.91657c-1.25337,1.0479 -3.13677,0.90959 -4.60295,1.82298c-0.96821,0.60317 -1.86814,1.19357 -2.73129,1.75678c-0.00606,0.00792 -0.01225,0.01575 -0.01854,0.02349l-0.99503,1.24378l-0.30876,-0.24701c-0.06288,0.0317 -0.12558,0.06332 -0.18809,0.09483c-1.99183,2.30454 -5.1326,3.21019 -8.37953,3.45452c-0.16018,0.33868 -0.50498,0.57296 -0.90449,0.57296h-1c-0.63839,0 -1.29592,0.01222 -1.9656,0.02691c-1.20834,0.13278 -2.48737,0.15216 -3.69577,0.04635c-2.74855,-0.03217 -5.49042,-0.30356 -7.78584,-1.42883c-0.2002,-0.09814 -0.46959,-0.21124 -0.77802,-0.33812c-1.63404,-0.35476 -3.147,-1.2378 -4.27135,-2.67033c-2.72737,-0.92142 -5.1101,-2.72247 -7.0814,-4.95091c-3.88886,-2.90019 -6.72005,-6.04283 -9.26435,-10.14612c-1.13232,-1.82614 -3.05128,-2.64152 -4.05443,-4.60009c-0.62556,-1.22135 -1.08343,-2.70338 -1.43556,-4.19121c-0.91767,-0.05333 -0.91767,-0.99765 -0.91767,-0.99765c0,-10.52104 -0.13654,-21.97335 5.93366,-31.07757c1.36625,-1.81685 2.15992,-4.18866 3.92559,-5.69018c5.08191,-4.32163 14.93448,-2.73225 21.14075,-2.73225c2.34966,0.00618 4.38729,0.63318 6.65924,1.01276c3.23739,0.54088 6.3289,-0.01636 9.51378,0.99217c0.04804,-0.00492 0.07698,-0.00493 0.07698,-0.00493z" fill="#4063e3" stroke-width="0.5"></path><path d="M223.31395,124.7813c-0.08004,-0.37849 -0.0367,-0.83292 0.25026,-1.359c0.95771,-1.75579 2.71349,-0.79809 2.71349,-0.79809c0.91267,0.54269 2.0387,0.82902 2.738,1.62805c0.41236,0.47117 0.63161,1.06409 0.82723,1.67191c0.15515,-0.1101 0.31172,-0.23396 0.4699,-0.37742c5.32953,-4.8333 17.13863,-4.42346 23.65998,-1.77936c0.53466,0.07339 1.06932,0.14677 1.60398,0.22016l0.49401,0.31153c0.02801,0.00914 0.04345,0.01531 0.04345,0.01531c2.63338,1.07171 4.3452,3.30612 6.84121,4.54078c1.507,0.74545 2.95053,1.54412 4.32804,2.41003c3.92284,1.99167 7.35863,4.79916 10.09697,8.43441c1.68534,2.06352 1.59899,3.65922 2.44907,5.86161c0.4552,1.17932 1.93569,2.16199 2.46718,3.41623c0.50273,1.18637 1.09853,2.5539 1.565,3.93537c0.46335,0.31859 0.53064,0.92412 0.53064,0.92412c0.45518,4.12748 0.70521,8.31019 0.84235,12.5058c0.66529,0.3113 0.66529,1.13224 0.66529,1.13224c0,9.60769 2.05741,18.74213 1.99063,28.34727c0.36217,1.44866 0.32067,2.96926 0.49323,4.4525c0.24698,2.12299 1.56356,4.39155 2,6.5c0.51674,2.49636 0.49797,6.18385 0.51614,8.70023v1.10934c0.00823,0.14199 -0.0068,0.27284 -0.02675,0.37624c-0.02094,0.10897 -0.05828,0.24421 -0.12484,0.38003c-1.11851,2.70486 -2.5086,5.12954 -4.8484,6.88439l-0.98989,0.74242c-0.14617,0.11212 -0.31782,0.19268 -0.50477,0.23148c-0.00486,0.67342 -0.00533,1.34856 -0.00533,2.0261v1c0,2.27179 0.95901,7.22082 -1.44098,8.61803c-0.27875,0.16228 -2.54539,0.13197 -3.05902,0.13197c-1.96976,0 -6.78705,0.77554 -8.36951,-0.60198c-0.50211,-0.43708 -0.40414,-1.26859 -0.60621,-1.90287l-0.00123,-0.02506c-0.08789,0.01958 -0.17926,0.02991 -0.27305,0.02991c-0.69036,0 -1.25,-0.55964 -1.25,-1.25c0,-0.41666 0,-2.08334 0,-2.5c0,-7.75857 1.86268,-15.09373 2.83645,-22.60249c-0.45758,-2.69436 -0.8395,-5.21599 -0.83218,-8.04441c-0.15821,-0.94927 -0.21869,-1.8399 -0.24129,-2.75548l-0.08109,0.07539c-0.02879,0.00512 -0.05757,0.01023 -0.08636,0.01532c-0.00385,0.00546 -0.0078,0.0109 -0.01186,0.01631c-0.00667,0.00889 -0.0826,0.01612 -0.2067,0.02196c-5.5834,0.96898 -11.14874,1.26626 -16.87236,1.27339c-0.00153,0 -0.00307,0 -0.00462,0c-0.43412,0 -0.71747,-0.15077 -0.90242,-0.34758c-0.19681,-0.18494 -0.34758,-0.4683 -0.34758,-0.90242c0,-2.18297 0,-4.57537 0,-7.00574c-0.2726,1.11364 -0.62087,2.20682 -1.10689,3.2615c-0.42058,0.91269 -1.06147,1.69958 -1.67541,2.50271c-0.16037,0.79291 -0.31612,1.58653 -0.47116,2.38007c0.00227,0.036 0.00345,0.07314 0.00345,0.11146c0,0.43412 -0.15077,0.71747 -0.34758,0.90242c-0.18494,0.19681 -0.4683,0.34758 -0.90242,0.34758c-1.25,0 -2.5,0 -3.75,0h-0.25c0,0 -0.35985,0 -0.6934,-0.19308c-5.54628,1.4406 -11.85537,0.72683 -17.21229,-0.31377c-0.41055,-0.03723 -0.66708,-0.2215 -0.82736,-0.43724c-0.17948,-0.19878 -0.30958,-0.48514 -0.26695,-0.89273v-0.59551c-0.38681,-0.19461 -0.73028,-0.4747 -1.01048,-0.8168c-1.28418,-0.01727 -2.56449,-0.07675 -3.85104,-0.25433c-0.41807,-0.02645 -0.68261,-0.20158 -0.85001,-0.41261c-0.18483,-0.19514 -0.32059,-0.48097 -0.28847,-0.8971c0,-0.41841 0,-1.04064 0,-1.43683c0,-6.12472 -0.62551,-12.05925 -1.08195,-18.0943c-1.42738,3.15944 -2.16343,7.25644 -2.1906,10.33069c-0.42059,1.08572 -0.72286,2.19588 -0.97147,3.31809c-0.17598,1.51754 -0.34258,3.04253 -0.51276,4.57557c-0.22671,2.04222 -0.50697,4.0139 -0.71192,5.99968c-0.04231,2.65804 -0.0313,5.29837 -0.0313,7.87026c0,5.41248 -0.27374,10.87607 -0.25,16.25v1.17685c0.03669,0.41264 -0.09669,0.69873 -0.27934,0.89542c-0.16812,0.21784 -0.43741,0.40005 -0.86876,0.42486c-0.81992,0.10799 -1.77741,0.14336 -2.69698,0.05772c-0.38545,0.2347 -1.3955,0.85015 -2.18644,1.32434c-0.05086,3.67087 -0.15803,7.33468 -0.28262,11.0161l-0.77433,1.1209c-0.12639,0.32527 -0.36894,0.50636 -0.59984,0.60718c-0.20771,0.11772 -0.47934,0.20055 -0.79316,0.1289c-1.66717,0.03027 -4.3416,0.33558 -5.63299,-0.84939c-1.37324,-1.26008 -0.88553,-4.30667 -0.88553,-5.90287c0,-0.66062 0.00973,-1.3208 0.02645,-1.98057c-0.01236,-0.00878 -0.02454,-0.01779 -0.03655,-0.027l-0.9899,-0.74242l0.02155,-0.02872c-0.06814,-0.04197 -0.13481,-0.08653 -0.19979,-0.13411c-0.28598,-0.20935 -0.5302,-0.5002 -0.74864,-0.83928c-0.02419,0.0014 -0.04857,0.00211 -0.07312,0.00211c-0.52567,0 -0.97556,-0.32448 -1.16028,-0.78408l-0.52782,-1.23157c-0.47887,-0.61789 -0.84531,-1.00828 -1.28371,-1.35396l-0.75063,-0.15013c-0.58424,-0.10494 -1.02756,-0.61583 -1.02756,-1.23027c0,-0.41415 0.20142,-0.78127 0.51164,-1.00873l0.49505,-0.37129c-0.15159,-0.82545 -0.23241,-1.70243 -0.26732,-2.60523c-1.40477,1.01716 -3.5384,0.88955 -4.97387,-0.06663c-0.13653,-2.61795 0.48107,-5.5687 0.48107,-8.06111c0.54879,-5.48787 1.03329,-10.864 1.73575,-16.32581c0.5028,-3.9094 -0.42113,-8.18748 0.21804,-12.04113c0.14686,-0.88543 0.82877,-1.61896 1,-2.5c1.36957,-7.04684 1.05641,-15.1376 1.04973,-22.29398c0.2949,-0.75597 0.56932,-1.50943 0.78335,-2.26328c0.83286,-2.93349 0.58188,-6.4502 1.24633,-9.48397c0,0 0.00996,-0.04483 0.03466,-0.1154l0.18557,-1.11344c2.3419,-3.05874 3.43091,-7.07496 6.55009,-9.56251c1.49047,-2.64309 5.28333,-5.64407 8.20816,-6.83669c1.31876,-0.53773 2.87308,-0.56157 4.19255,-1.22369c1.79574,-0.90111 2.48728,-1.37584 4.54919,-1.37711c0.1083,-0.00007 0.21635,-0.00014 0.32412,-0.00009c0.24555,-0.61209 0.97038,-0.7329 0.97038,-0.7329c1.82844,-0.30454 3.48077,-0.69224 5.18294,-0.6781l-0.22165,-0.2197c0,0 -0.80782,-0.80782 -0.59184,-1.81292zM272.51682,221.009c0.0525,-0.17933 0.10238,-0.35882 0.14889,-0.53853c0.00509,-0.25829 0.01118,-0.51828 0.01789,-0.77969c-0.05832,0.43906 -0.11399,0.87843 -0.16678,1.31822zM228.18441,197.29382c-0.00113,0.00073 -0.00226,0.00147 -0.00339,0.00221c0.00164,0.0003 0.0033,0.0006 0.00494,0.0009z" fill="#324db2" stroke-width="0.5"></path><path d="M254.92,190.98c0,1.33334 0,2.66666 0,4c0,0.24642 0.03475,0.49973 0.06571,0.75229c0.72708,-0.39369 1.7036,-0.44112 2.47521,-0.53543c1.41869,-0.1734 2.82311,-0.24498 4.22121,-0.23398l1.36533,-0.68267c0.38378,-0.64162 0.50877,-1.39463 0.47538,-2.77832l-0.19235,-2.11588c-0.00693,-0.06772 -0.01048,-0.13645 -0.01048,-0.206c0,-1.10457 0.89543,-2 2,-2c0.9831,0 1.80054,0.70932 1.96843,1.6441l0.01389,0.06947l0.24996,-0.44994c0.30605,-0.57657 0.88593,-0.98557 1.56627,-1.05362c0.00207,-1.26904 0.00556,-2.53807 0.01118,-3.8071l0.10059,-0.18086l-0.07149,-0.0143l0.59274,-2.96366c0.16789,-0.93478 0.98533,-1.6441 1.96843,-1.6441c1.03413,0 1.88495,0.78487 1.98925,1.79142l0.39704,3.3749l-0.02266,0.00267c0.01119,0.03791 0.02217,0.07591 0.03294,0.11397c0.53835,1.90263 -0.19248,3.96353 -0.00516,5.93196c0.17372,1.82556 0.47462,3.63889 0.60515,5.46804c0.21422,3.00195 0.77167,5.99288 0.99956,8.99277c0.4962,6.53184 -0.20147,13.19208 -0.19614,19.72428v2c0,0.75269 -0.4158,1.40828 -1.03024,1.74958c-0.05963,1.24246 -0.05644,2.46211 0.15767,3.31655c0.26578,1.06065 1.7427,2.09937 1.20451,3.0512c-2.92415,5.1715 -5.74617,1.88944 -6.86992,-1.22315c-0.72008,-1.9945 -0.06888,-6.09919 0.14791,-8.29318l-0.00993,-0.20099c0,0 0,-1.05612 0.76746,-1.63345c0.22409,-2.43309 0.39409,-4.85563 0.42682,-7.30155c-0.00002,-0.36419 0.00013,-0.72839 0.0004,-1.09259c-0.07905,-1.74989 -0.99713,-3.76895 0.00531,-5.17239c0.00001,-0.06668 0.00002,-0.13334 0.00002,-0.20002v-1.77815l-0.27345,0.19532l-0.15397,-0.21555c-0.2058,0.09323 -0.41948,0.19908 -0.63804,0.30868c-0.3924,0.30887 -0.80024,0.58862 -1.22514,0.84607c-1.65298,2.011 -2.99504,3.84306 -6.50324,3.89354c-0.00405,0.00009 -0.00616,0.00009 -0.00616,0.00009c0,0 -0.00276,0 -0.00802,-0.00013l-0.76875,-0.01243c-1.25322,-0.19183 -3.51572,-0.77862 -5.4869,-1.52796c-0.90552,-0.06517 -1.7795,-0.28884 -2.59812,-0.73758c-0.15312,-0.05074 -0.3111,-0.13441 -0.44559,-0.27064c-0.08818,-0.05901 -0.17562,-0.12092 -0.2623,-0.18583c-0.6576,-0.31984 -1.32381,-0.62235 -1.99534,-0.91178c-0.13293,-0.0483 -0.24659,-0.11332 -0.33336,-0.17211c-0.11932,-0.08071 -0.26842,-0.20425 -0.38464,-0.37429c-1.71672,-0.82399 -3.68612,-1.05824 -5.47928,-1.57521c-0.63375,-0.11773 -1.28117,-0.26146 -1.95359,-0.43204h-0.14185c-2.68704,0.3725 -5.34322,1.2926 -7.87802,2.3106c0,0 -0.44511,0.17804 -0.89429,0.03796l-0.32988,0.49482l-0.33044,-0.22029l-0.12098,0.09678c-0.01118,0.0091 -0.02251,0.01801 -0.034,0.02672c-0.7027,1.02125 -1.70188,1.36352 -3.72073,1.88075l-0.53237,0.57249c-0.14246,0.24081 -0.36145,0.38587 -0.55292,0.47191c-0.1755,0.09303 -0.40783,0.17306 -0.66744,0.15141c-2.51199,0.2874 -4.03724,0.07849 -5.87982,-0.62315h-0.60136v-0.05907c-0.08294,0.01471 -0.16669,0.02606 -0.25133,0.03354c-0.70705,0.06252 -1.57419,-0.27806 -2.48848,-0.79036c-0.91691,-0.3059 -1.77358,-0.69385 -2.61019,-1.14913c0,0.77167 0,1.54335 0,2.31502c-0.00498,3.9387 -0.06663,8.39598 -1.01938,12.22453l-0.19058,1.33406c-0.07792,0.61548 -0.6034,1.09142 -1.24004,1.09142c-0.18535,0 -0.36127,-0.04035 -0.51948,-0.11273c-0.44251,0.26916 -0.93702,0.28351 -1.28052,0.24608c0,1.2303 0,2.4606 0,3.6909c-0.51496,1.20525 -0.8,2.53221 -0.8,3.92574c0,0.86569 0.11001,1.70569 0.3168,2.50678c-0.04733,0.17353 -0.06922,0.35121 -0.06825,0.53209c-0.22635,0.24283 -0.54559,0.44258 -0.99587,0.523c-0.36939,0.10677 -0.82122,0.12927 -1.28594,-0.10632c-0.48483,-0.19082 -0.76819,-0.54346 -0.9338,-0.89049c-0.29674,-0.4841 -0.32188,-0.93945 -0.23293,-1.32365c0,-3.05367 0,-7.05954 0,-10.39733c-0.33781,-0.38894 -0.56931,-0.97323 -0.31565,-1.81877c0.09912,-0.33038 0.23811,-0.58668 0.40028,-0.78464c0.12741,-0.47642 0.44661,-1.11963 1.24635,-1.35218c-0.04968,-1.09839 0.01901,-2.28351 0.01901,-3.68849c0,-3.5592 0.27582,-6.79082 0.82406,-10.24408c0.68469,-4.31274 0.24921,-8.67581 1.1961,-12.97952l0.1924,-1.35318c0,0 0.08164,-0.57147 0.52232,-0.88223c0.13902,-1.32469 0.36132,-2.62938 0.61526,-3.92785c-0.15899,-3.97546 -0.22202,-8.55179 1.8496,-11.74304c0.68559,-1.05612 1.83761,-1.73566 2.6214,-2.72035l0.09746,-0.30863c0.10478,-1.9802 0.25923,-3.95839 0.55352,-5.9378c0,0 0.29667,-1.97788 2.27455,-1.6812c1.97788,0.29668 1.6812,2.27455 1.6812,2.27455c-0.06454,0.42618 -0.12217,0.85249 -0.1739,1.27894c0.26022,0.25652 0.45049,0.5838 0.53959,0.95065l0.77838,2.91893c0.47806,0.5845 0.47805,1.3548 0.47805,1.3548c0,0.0247 0,0.0494 0,0.07409c1.02251,3.86085 0.20001,9.02969 0.20001,12.72591c0,1.00299 -0.1143,2.12219 -0.19057,3.2497c0.18553,1.32377 0.26772,2.62994 0.1325,3.81931c0.08009,0.36161 0.18851,0.70777 0.33247,1.03337c0.3529,-0.3126 0.81709,-0.50238 1.3256,-0.50238c0.09626,0 0.19093,0.0068 0.28356,0.01995c0.01398,-0.0423 0.02935,-0.08523 0.04614,-0.12877c-0.06524,-3.44171 0.46835,-7.26947 0.47838,-10.47079l0.10479,-0.1635l-0.08062,-0.01466l0.39377,-2.16569c0.15461,-0.95076 0.97953,-1.67654 1.97397,-1.67654c1.10457,0 2,0.89543 2,2v3.4h-0.36549c0.40091,2.12118 0.57498,4.18427 0.74205,6.87849c0.04496,0.72513 0.10281,1.45687 0.05383,2.1811c1.42219,0.56913 2.66947,0.93675 4.51653,0.94192c-0.24722,-2.27364 -0.30715,-4.75252 0.49985,-6.43149c0.02193,-0.04561 0.04446,-0.09085 0.06757,-0.13573l-0.02999,-0.00899l0.58709,-1.95696c0.23283,-0.84651 1.00808,-1.46834 1.92856,-1.46834c1.05045,0 1.91176,0.80984 1.99364,1.83924l0.19816,2.17969l-0.03631,0.0033l0.04246,0.08714c0.00229,2.55086 0.50287,5.20477 0.70608,7.74613c2.77105,-0.28977 5.52479,-0.41869 8.34855,-0.44853c0.4168,-0.66367 0.7538,-1.44737 1.02335,-2.35319l0.58312,-2.1381c0.10745,-0.43204 0.35539,-0.80856 0.6925,-1.07825c0.08644,-1.67669 0.12868,-3.35709 0.25435,-4.99082c0,0 0.15339,-1.99411 2.1475,-1.84071c1.99411,0.15339 1.84072,2.1475 1.84072,2.1475c-0.07684,0.99896 -0.12996,2.0051 -0.1814,3.01292c0.38729,0.56427 0.38728,1.23369 0.38728,1.23369z" fill="#273d8c" stroke-width="0.5"></path><path d="M200.72,194.18c2,0 2,2 2,2v0.2c0,9.5314 -0.2,19.06007 -0.2,28.6c0,3.35886 1.05637,9.6 -0.4281,12.73407c-0.0225,0.0475 -0.04548,0.09472 -0.06892,0.14168l0.0373,0.00932l-0.58985,2.35941c-0.20211,0.89064 -0.99863,1.55552 -1.95043,1.55552c-1.10457,0 -2,-0.89543 -2,-2v-2c0,-1.98195 0.00258,-3.95699 0.01031,-5.92793c-1.21031,-0.44117 -1.21031,-1.87207 -1.21031,-1.87207c0.00466,-10.36865 1.25989,-20.60896 2.2,-30.8682v-1.93179c0,-0.31293 0.07187,-0.60907 0.2,-0.87283v-0.12717c0,0 0,-2 2,-2z" fill="#273d8c" stroke-width="0.5"></path><path d="M191.38456,183.47308l-0.24821,1.89184c0.74018,0.29326 1.26366,1.01554 1.26366,1.86009c0,0.14858 -0.0162,0.29338 -0.04694,0.43273l-0.4919,2.45951l-0.13941,-0.02788c-0.01737,0.05202 -0.03504,0.10392 -0.053,0.15572c0.73862,6.69842 0.00601,13.33404 -1.24531,19.94646c0.05131,0.92039 0.17335,2.09827 0.22883,3.27962c0.0022,-0.99684 0.00605,-1.99367 0.01271,-2.99052l0.15544,-0.21302l-0.11071,-0.02768l0.48986,-1.95941c0.20211,-0.89064 0.99863,-1.55552 1.95043,-1.55552c1.10457,0 2,0.89543 2,2v3h-0.23799c0.24971,1.27876 0.33709,2.5768 0.25085,4.26665c0.35713,0.55415 0.35713,1.18836 0.35713,1.18836c-0.00142,2.85175 -0.08563,5.40428 -0.63884,8.19223l0.03883,0.60777c0,0 0,2 -2,2c-2,0 -2,-2 -2,-2l0.03884,-1.39223c0.2193,-1.08694 0.35397,-2.12631 0.43616,-3.16421c-1.26947,0.33799 -2.67799,0.42398 -3.96588,0.22326c-0.18595,-2.67257 0.46748,-5.72118 0.46748,-8.28486c0.54879,-5.48787 1.03329,-10.864 1.73575,-16.32581c0.5028,-3.9094 -0.42113,-8.18748 0.21804,-12.04113c0.14686,-0.88543 0.82877,-1.61896 1,-2.5c0.03808,-0.19592 0.07486,-0.39266 0.11038,-0.59015c0.53682,0.66403 0.4238,1.56819 0.4238,1.56819zM190.6497,217.50014c-0.00015,-0.64708 -0.00024,-1.29415 0.00004,-1.94123c-0.05394,0.78629 -0.18525,1.495 -0.44506,2.03153c0.15771,-0.02774 0.30747,-0.0581 0.44502,-0.0903z" fill="#273d8c" stroke-width="0.5"></path><path d="M287.4,205.225c2,0 2,2 2,2c0,3 0,6 0,9v2c0,0 0,1.47623 -1.26828,1.89212c0.04026,0.96964 -0.088,1.84382 -0.51435,2.49533c-0.11659,0.17817 -0.24697,0.34375 -0.38829,0.49935l0.09092,0.06819l-1.18604,1.58138c-0.36394,0.49635 -0.95132,0.81862 -1.61397,0.81862c-1.05045,0 -1.91175,-0.80984 -1.99363,-1.83924l-0.1909,-2.09995c-1.31761,-6.60637 -0.81396,-13.9434 -0.81547,-20.66081c0,0 0.00001,-1.12384 0.84246,-1.68663c-0.12109,-1.40364 -0.21898,-2.80948 -0.23881,-4.23468c-0.08265,-0.17803 -0.7887,-1.82223 0.90193,-2.66754c1.78886,-0.89443 2.68328,0.89443 2.68328,0.89443l0.41114,1.29443c-0.00372,2.85206 0.37089,5.61276 0.59319,8.43504c0.05955,0.75605 0.06985,1.51999 0.05515,2.28798c0.18455,-0.04978 0.39398,-0.07802 0.63166,-0.07802z" fill="#273d8c" stroke-width="0.5"></path><path d="M216.60691,173.81609c0,0 -0.16609,-1.9931 1.827,-2.15919c1.99309,-0.16609 2.15919,1.82701 2.15919,1.82701c0.17783,2.15544 0.17564,4.23987 0.48681,6.38324l0.0201,1.11617c0,0 0,0.13609 -0.0355,0.33727c-0.04133,4.58213 -0.27227,10.12905 0.78538,14.55975c0.59117,0.08506 1.1842,0.15017 1.77869,0.19937l0.33086,-0.9926c0.19368,-0.71112 0.38736,-1.42224 0.58103,-2.13335c0,0 0.14177,-0.51981 0.54794,-0.94625c0.13291,-0.97567 0.96944,-1.72752 1.98159,-1.72752c1.10457,0 2,0.89543 2,2v2h-0.17065c0.12751,0.48019 0.21107,0.96828 0.23104,1.46587l0.38319,0.44759c2.8599,-0.05501 5.72479,-0.16925 8.55349,0.09627c2.04107,0.19159 4.0243,0.68997 6.09356,0.79233c1.7655,0.08733 4.18852,0.16907 5.5771,-0.90949c-0.06772,-0.28322 -0.06773,-0.49256 -0.06773,-0.49256l0.21115,-1.69443l0.98063,-1.96124c0.32069,-0.67649 1.00982,-1.14433 1.80823,-1.14433c1.10457,0 2,0.89543 2,2v2.2h-0.14695l0.11662,0.347c-0.05064,0.12785 -0.10091,0.25263 -0.15096,0.37444c2.80873,-0.59965 5.58992,-0.76829 8.4878,-1.04349c0.03692,-0.18341 0.07384,-0.36683 0.11075,-0.55024l0.19047,-1.90472c0.08959,-1.02166 0.94736,-1.823 1.99228,-1.823c0.9518,0 1.74832,0.66488 1.95044,1.55552l0.23017,0.92072c0.09204,-0.11558 0.17629,-0.23526 0.23054,-0.37066c0.66959,-1.67142 0.7984,-3.53875 0.78886,-5.30557v-1c0,0 0,-2 2,-2c2,0 2,2 2,2c0,6.22581 0.4023,12.60312 -0.20993,18.799l-0.16104,0.98557c0.03328,0.55901 -0.18999,0.97943 -0.45947,1.27876c-0.23498,0.32742 -0.59827,0.63556 -1.15206,0.72228c-0.48908,0.19172 -0.97184,0.37279 -1.45394,0.54171l-0.36356,0.27267l-0.08842,-0.1179c-0.08495,0.02839 -0.16994,0.0564 -0.255,0.084c-1.53037,1.85811 -3.35866,3.01771 -6.40686,3.78268l-2.24972,0.05122c0,0 -1.04904,0 -1.62761,-0.75977c-4.80013,-1.07581 -8.90291,-3.11527 -13.64337,-4.44024h-1.72902c-1.77475,0 -3.97736,-0.30465 -5.72442,0.14264c-2.06662,0.5291 -3.76817,1.83979 -5.66747,2.68684c-3.43311,1.53108 -10.63725,2.63909 -13.98727,0.18594c-0.01236,-0.00905 -0.02459,-0.01822 -0.03669,-0.02751c-0.25735,0.13039 -0.57989,0.2121 -0.98414,0.2121c-2,0 -2,-2 -2,-2v-1.6c0,-3.83301 1.23151,-7.1685 1.40248,-10.89963c0.16747,-3.65471 0.04202,-7.24486 0.40744,-10.89938c0,0 0.04326,-0.43262 0.29116,-0.87427c0.06103,-1.70282 0.09892,-3.41078 0.09892,-5.12672c0,0 0,-0.68926 0.40464,-1.25852c-0.09986,-1.39575 -0.14805,-2.78467 -0.26773,-4.20539z" fill="#1d2d67" stroke-width="0.5"></path><path d="M192.76667,228.15c-2,0 -2,-2 -2,-2v-0.16667c0,-1.38783 0.01026,-2.75962 0.04626,-4.13367c-0.32602,0.53946 -0.89968,0.91246 -1.56345,0.9615c-0.44448,0.2839 -0.97667,0.38867 -1.62848,0.24187c-0.00713,-0.03261 -0.014,-0.06531 -0.02062,-0.09808c-0.59463,-2.94509 0.29621,-6.59959 0.29621,-9.59297c0.54879,-5.48787 1.03329,-10.864 1.73575,-16.32581c0.00131,-0.01021 0.00262,-0.02042 0.00391,-0.03063c0.22906,-0.04176 0.49169,-0.04514 0.79256,0.005c1.97279,0.3288 1.64399,2.30158 1.64399,2.30158c-0.48869,2.93129 -1.23305,5.97481 -1.77945,9.0317c0.67416,0.32157 1.14,1.00947 1.14,1.80617c0,0.05906 -0.00256,0.11751 -0.00758,0.17526l-0.16499,2.1448l-0.21026,-0.01617c0.39336,1.67022 0.63419,3.42329 0.4933,5.03529c0.3139,-0.31342 0.7889,-0.54463 1.50697,-0.50239c1.99655,0.11745 1.87911,2.11399 1.87911,2.11399c-0.13656,2.3093 -0.16322,4.57138 -0.16322,6.88255v0.16667c0,0 0,2 -2,2z" fill="#1d2d67" stroke-width="0.5"></path><path d="M198.93334,241.48333c-2,0 -2,-2 -2,-2v-0.66666c0.00446,-1.41592 0.19879,-2.684 0.4265,-3.9731c-1.1377,-4.93057 -1.70621,-10.57212 -1.07818,-15.6046c0.2887,-2.31339 1.15363,-4.57224 1.50827,-6.89308c0,0 0.09727,-0.6323 0.5394,-1.12667c0.33489,-0.63577 1.00216,-1.06922 1.77067,-1.06922c1.10457,0 2,0.89543 2,2v2c0.43133,1.72534 0.13623,3.54013 0.03227,5.33134c0.00605,1.17432 0.00569,2.35847 -0.01235,3.54483c0.03993,3.30436 0.08971,6.73596 -0.37543,9.92083c-0.0913,0.62513 -0.20165,1.21298 -0.31116,1.78703v2.58264v0c0,0.50692 -0.18859,0.96979 -0.49944,1.32228c-0.00059,0.0589 -0.00078,0.11813 -0.00056,0.17772v0.66666c0,0 0,2 -2,2z" fill="#1d2d67" stroke-width="0.5"></path><path d="M215.11402,239.80781c-1.92394,-1.06734 -2.36372,-2.44404 -2.54875,-3.99542c-0.04361,0.00284 -0.0876,0.00428 -0.13193,0.00428c-1.10457,0 -2,-0.89543 -2,-2v-3.66666h0.06759c-0.01657,-0.09881 -0.03172,-0.19794 -0.04535,-0.29739c-0.10897,-0.79521 0.51856,-1.52261 0.69272,-2.30612c0.11657,-0.52439 0.19613,-1.08151 0.26359,-1.64959c0.12721,-1.73126 0.18812,-3.46819 0.18812,-5.24689c0,0 0,-2 2,-2c0.68765,0 1.13887,0.23643 1.43494,0.54671c0.45492,-0.06426 0.97312,-0.0734 1.56437,-0.01886c2.99677,0.27644 3.64955,3.19418 5.60109,4.75805c1.49306,1.19647 3.60177,1.73998 5.288,2.58891c1.39855,0.7041 2.5858,1.77174 3.94035,2.55716c2.66484,1.5452 6.63687,2.15811 9.67067,2.40826l0.67055,-0.00555c10.51067,-1.65991 19.40626,-8.51062 27.15877,-15.48794l0.38903,-0.27278c0.04066,-0.03146 0.08362,-0.06168 0.12898,-0.09045l0.21052,-0.14762c0,0 1.66411,-1.1094 2.77351,0.5547c0.48677,0.73015 0.43959,1.35351 0.23332,1.82323c0.52474,5.5745 0.43592,11.18724 0.43592,16.78617v1.38295c0.0587,0.66024 -0.15471,1.11798 -0.44694,1.43268c-0.26538,0.34386 -0.68832,0.63225 -1.36239,0.67803c-3.39694,0.49844 -6.99118,-0.07661 -10.47672,-0.15231c-3.85534,4.18545 -7.55498,6.63262 -13.00638,4.57463c-0.02051,0.08202 -0.041,0.16403 -0.06151,0.24605c0.01346,0.10578 0.02062,0.21829 0.02062,0.33796c0,0.69459 -0.24123,1.14795 -0.55614,1.44386c-0.29591,0.31491 -0.74927,0.55614 -1.44386,0.55614c-2.38889,0 -4.77778,0 -7.16667,0h-0.44721c-0.6173,0.09823 -1.07564,-0.0899 -1.4049,-0.35527c-0.35588,-0.22844 -0.67929,-0.60378 -0.78131,-1.22046c-0.06263,-0.18789 -0.12526,-0.37579 -0.18789,-0.56368c-5.94547,0.21077 -11.4568,1.48618 -16.89353,-1.82393l-0.29803,-0.7421c-1.12712,-0.30811 -2.44706,-0.06753 -3.47308,-0.63674z" fill="#1d2d67" stroke-width="0.5"></path><path d="M284.76667,203.65c2,0 2,2 2,2c0,2.05867 0,4.61734 0,6.67601c0.58303,3.64576 1.51191,6.88127 1.4465,10.61683l-0.32069,0.3534l0.16305,0.08152l-0.98062,1.96124c-0.32069,0.67649 -1.00983,1.14433 -1.80823,1.14433c-0.97417,0 -1.78567,-0.69649 -1.96369,-1.61868l-0.49191,-2.2956l0.03786,-0.00811c-0.02468,-0.06632 -0.04841,-0.13306 -0.07112,-0.20024c-0.57399,-1.69807 -0.01113,-3.58491 -0.01113,-5.37737c0,-3.61111 0,-7.22222 0,-10.83333v-0.5c0,0 0,-2 2,-2z" fill="#1d2d67" stroke-width="0.5"></path><path d="M254.01007,174.01737c-1.44389,-1.69147 -0.19535,-4.00321 1.27652,-5.83876c-0.06965,-0.16867 -0.71402,-1.85505 1.02114,-2.62623c0.64575,-0.287 1.16474,-0.24443 1.56593,-0.06936c0.02666,-0.01684 0.05459,-0.03381 0.0837,-0.0507c0.10345,-0.57284 0.49331,-1.65231 1.96264,-1.65231c0.39688,0 0.71499,0.07875 0.96999,0.205c1.83002,0.10998 1.83002,1.99499 1.83002,1.99499c0,1.66666 0,3.33334 0,5v2.2c0,1.10457 -0.89543,2 -2,2c-0.51078,0 -0.97683,-0.19147 -1.33031,-0.50656c-1.11352,1.67858 -2.92082,2.22434 -5.37963,-0.65607z" fill="#3f62e0" stroke-width="0.5"></path><path d="M246.45145,169.50348c0.00738,-0.02439 0.01488,-0.04877 0.02247,-0.07313l-0.3457,-0.03143l0.19815,-2.17968c0.08187,-1.0294 0.94317,-1.83924 1.99363,-1.83924c0.01662,0 0.03319,0.0002 0.0497,0.00061c0.2499,-0.5002 0.7499,-1.00061 1.7503,-1.00061c2,0 2,2 2,2c0,2 0,4 0,6v2c0,1.10457 -0.89543,2 -2,2c-0.66611,0 -1.25616,-0.32564 -1.61964,-0.82641c-0.11798,0.01719 -0.24456,0.02641 -0.38036,0.02641c-2,0 -2,-2 -2,-2v-2c0.00059,-0.59448 0.08962,-1.17942 0.24041,-1.75447c-0.00905,-0.10548 -0.02075,-0.20995 -0.03602,-0.31307z" fill="#3f62e0" stroke-width="0.5"></path><path d="M265.32,173.98c-2,0 -2,-2 -2,-2c0,-0.86667 0,-3.53333 0,-4.4c0,0 0,-2 2,-2c2,0 2,2 2,2c0,0.86667 0,1.73333 0,2.6v1.8c0,0 0,2 -2,2z" fill="#3f62e0" stroke-width="0.5"></path><path d="M270.92,161.18c2,0 2,2 2,2c0,0.4 0,1.2 0,1.6c0,1.11219 -0.18514,2.2115 -0.47267,3.29453l-1.52733,0.30546c-0.66667,-0.33334 -1.63803,-0.34844 -2,-1c0,-0.86667 0,-1.73333 0,-2.6v-1.2c0,0 0,-2 2,-2c2,0 2,2 2,2c0,1.06667 0,3.33333 0,4.4l-0.47267,0.09454c-0.3897,1.46789 -0.96749,2.90588 -1.52733,4.30546l-2,-4.4c0,-0.2 0,-0.4 0,-0.6c-0.42089,-0.75761 0,-1.73333 0,-2.6c0,-0.4 0,-0.8 0,-1.2v-0.4c0,0 0,-2 2,-2z" fill="#3f62e0" stroke-width="0.5"></path><path d="M251.32264,170.59043c0.80008,2.26505 1.33539,4.6232 0.5542,6.54534c-1.20534,2.96579 -7.65574,3.301 -9.41298,0.96549c-0.70905,-0.94239 -0.27056,-2.3442 -0.34386,-3.52125c-0.15525,-2.49265 0,-5.11344 0,-7.6c0,0 0,-2 2,-2c0.23992,0 0.45106,0.02878 0.63687,0.07944l0.43826,-1.42435c0.23725,-0.83973 1.0092,-1.45509 1.92487,-1.45509c0.9831,0 1.80053,0.70932 1.96843,1.6441l0.37672,1.8836c0.09437,0.29622 0.20385,0.60621 0.32372,0.92757c0.87836,0.21101 1.53113,1.00164 1.53113,1.94474v2c0.00088,0.00348 0.00177,0.00695 0.00264,0.01043z" fill-opacity="0.45882" fill="#3f62e0" stroke-width="0.5"></path><path d="M255.74149,165.71276c0.24606,-0.16246 0.56538,-0.28143 0.97951,-0.32284c1.99007,-0.199 2.18908,1.79107 2.18908,1.79107l0.17181,1.81037c0.65996,2.24457 1.34021,5.76133 0.08174,7.96393c-2.06779,3.6191 -4.01918,3.95097 -6.49138,-0.00992c-0.55931,-0.89612 -0.12102,-2.10949 -0.15224,-3.16537c-0.0653,-2.20887 -0.19797,-4.38585 -0.2,-6.6c0,0 0,-2 2,-2c0.67731,0 1.12525,0.22937 1.42149,0.53276z" fill-opacity="0.45882" fill="#3f62e0" stroke-width="0.5"></path><path d="M268.12,173.58c-1.04953,0 -1.54829,-0.55075 -1.78533,-1.07423c-0.01488,0.5688 -0.01467,1.17973 -0.01467,1.87422v0.4c0,0 0,2 -2,2c-2,0 -2,-2 -2,-2v-0.4c0,-3.0958 0.12138,-5.01426 1.10264,-8.03245c0,0 0.63245,-1.89737 2.52982,-1.26492c0.0582,0.0194 0.11401,0.03999 0.16755,0.06168c0,-0.36446 0,-0.69161 0,-0.96431c0,0 0,-2 2,-2c2,0 2,2 2,2c0,1.73334 0,3.46666 0,5.2v2.2c0,0 0,2 -2,2z" fill-opacity="0.45882" fill="#3f62e0" stroke-width="0.5"></path><path d="M234.12,183.93c-2.75,0 -2.75,-2.75 -2.75,-2.75l0.12161,-1.20874c1.39191,-4.19513 -0.10694,-9.29793 -0.3185,-13.66046c0,0 -0.1308,-2.74689 2.61608,-2.87769c2.74688,-0.13081 2.87769,2.61608 2.87769,2.61608c0.05554,1.18977 0.16612,2.36936 0.28712,3.54176l0.97624,-2.53823c0.30874,-0.86215 1.03577,-1.52523 1.93654,-1.74468c0.46848,-0.57568 1.25041,-1.0622 2.53112,-0.8362c2.70816,0.47791 2.23024,3.18606 2.23024,3.18606c-0.55758,2.94845 -0.16663,5.14677 -0.15815,8.12209v2.6c0,1.51879 -1.23121,2.75 -2.75,2.75c-0.81583,0 -1.54868,-0.35526 -2.0523,-0.91951l-1.01956,-1.13285c-0.67702,-0.31131 -1.04395,-0.86141 -1.24281,-1.36625c-0.08132,1.2913 -0.27953,2.58236 -0.65693,3.87735l0.12161,-0.40874c0,0 0,2.75 -2.75,2.75zM237.19152,169.68443l-0.23728,-0.09126c0.01056,0.10227 0.0212,0.20449 0.03188,0.30665z" fill-opacity="0.31373" fill="#3f62e0" stroke-width="0.5"></path></g></g></svg>