<svg version="1.1" xmlns="http://www.w3.org/2000/svg" xmlns:xlink="http://www.w3.org/1999/xlink" width="68.40679" height="44.62598" viewBox="0,0,68.40679,44.62598"><g transform="translate(-207.99881,-157.68701)"><g stroke-miterlimit="10"><path d="M215.06988,180l16.26346,-16.26346l33.59679,16.26346l-33.59679,16.26346z" fill="#000000" stroke-opacity="0.36863" stroke="#cbadff" stroke-width="10"></path><path d="M215.06988,180l16.26346,-16.26346l33.59679,16.26346l-33.59679,16.26346z" fill="#0a0610" stroke="#cbadff" stroke-width="2.5"></path><path d="M220.80571,185.4002l-2.15987,-1.96352c-0.42345,-0.38207 -0.71555,-0.90694 -0.8004,-1.49871c-0.15765,-0.33513 -0.24751,-0.75384 -0.22261,-1.27688c0.11891,-2.49717 2.61608,-2.37826 2.61608,-2.37826c11.34414,0.54214 23.17189,0.81954 34.50297,0.00352l2.3705,-0.19772c0,0 0.14518,-0.0121 0.36838,0.00459c0.47589,0.02594 1.15531,0.16665 1.66356,0.69462c0.32496,0.32416 0.58044,0.79614 0.6571,1.48251c0.09435,0.68416 -0.0373,1.20445 -0.27263,1.59852c-0.36292,0.63668 -0.98693,0.94004 -1.44185,1.08213c-0.21225,0.07103 -0.35595,0.09498 -0.35595,0.09498c-9.17162,1.4825 -16.0173,8.85664 -25.04885,10.96999l-1.76187,0.19163c-0.55488,0.19419 -1.08991,0.11634 -1.51004,-0.02759c-0.43773,-0.10945 -0.9379,-0.34066 -1.29936,-0.82068c-2.78387,-2.3907 -4.70409,-5.36525 -7.30517,-7.95914zM243.60825,183.75692c-0.2589,0.00423 -0.51788,0.00807 -0.77694,0.01151c0.08112,0.09611 0.15513,0.19843 0.2212,0.30613c0.18528,-0.10579 0.3705,-0.21171 0.55574,-0.31764z" fill-opacity="0.54118" fill="#514566" stroke="none" stroke-width="0.5"></path></g></g></svg>