<svg version="1.1" xmlns="http://www.w3.org/2000/svg" xmlns:xlink="http://www.w3.org/1999/xlink" width="762.52252" height="648.04806" viewBox="0,0,762.52252,648.04806"><g transform="translate(-240,144.02403)"><g stroke="none" stroke-width="0" stroke-miterlimit="10"><g fill-opacity="0.16863" fill="#9966ff"><path d="M251.67632,180c0,0 0.79302,-9.70894 7.44046,-19.96075c4.12202,-6.35706 13.79291,-13.32673 21.08059,-17.60431c3.08868,-1.81293 49.18358,-26.45642 57.94972,-28.52408c1.93996,-0.45758 24.24437,-1.2711 34.41152,-1.26362c10.82757,0.00796 21.43946,0.85276 21.43946,0.85276c0,0 -18.6679,0.78612 -34.70042,5.43459c-13.69268,3.97006 -24.99131,9.97841 -32.47232,14.84649c-11.24023,7.31431 -18.11454,16.18148 -19.9258,17.82047c-9.99642,9.04574 -15.4167,28.39845 -15.4167,28.39845z"></path><path d="M247.5403,180c0,0 0.69121,-9.70894 6.48521,-19.96075c3.59281,-6.35706 12.0221,-13.32673 18.37415,-17.60431c2.69214,-1.81293 16.24334,-9.97023 32.69868,-16.16483c13.6429,-5.13586 23.39479,-10.29159 31.03549,-12.35925c1.6909,-0.45758 7.90741,-1.2711 16.76924,-1.26363c9.43747,0.00796 18.68694,0.85277 18.68694,0.85277c0,0 -16.27121,0.16703 -30.24539,4.81551c-11.93475,3.97006 -20.41776,11.21657 -26.93831,16.08466c-9.79715,7.31431 -17.15394,15.56239 -18.73266,17.20138c-8.71303,9.04574 -13.43742,28.39845 -13.43742,28.39845z"></path><path d="M243.42632,180c0,0 0.79302,-9.70894 7.44045,-19.96075c4.12201,-6.35706 13.79291,-13.32673 21.08059,-17.60431c2.03509,-1.19452 33.57145,-18.24996 60.14564,-26.67449c13.75776,-4.36148 28.74745,-3.11576 32.2156,-3.11321c10.82757,0.00796 21.43946,0.85277 21.43946,0.85277c0,0 -18.66791,0.78611 -34.70042,5.43459c-13.69268,3.97006 -24.99131,9.97841 -32.47232,14.84649c-11.24023,7.31431 -18.11454,16.18148 -19.9258,17.82047c-9.99642,9.04574 -15.4167,28.39845 -15.4167,28.39845z"></path></g><path d="M240,180c0,0 0.69121,-9.70894 6.48521,-19.96075c3.59281,-6.35706 12.0221,-13.32673 18.37415,-17.60431c2.69214,-1.81293 16.24334,-9.97023 32.69868,-16.16483c19.87742,-7.48284 41.19195,-12.77011 41.19195,-12.77011c0,0 -18.55407,11.15757 -32.70942,21.72561c-9.79715,7.31431 -16.3285,14.73695 -17.90722,16.37594c-8.71303,9.04574 -13.43742,28.39845 -13.43742,28.39845z" fill="#9966ff"></path><path d="M240,504.02403v-648.04806h762.52252v648.04806z" fill="none"></path></g></g></svg>