<svg version="1.1" xmlns="http://www.w3.org/2000/svg" xmlns:xlink="http://www.w3.org/1999/xlink" width="109.23999" height="49.5" viewBox="0,0,109.23999,49.5"><g transform="translate(-201.16,-156.59)"><g stroke="none" stroke-width="0.5" stroke-miterlimit="10"><path d="M244.33434,168.14811c-0.15811,0.47434 -0.63246,0.31623 -0.63246,0.31623l-0.14189,-0.07434c-0.67564,-0.00299 -1.35441,-0.018 -2.03471,-0.03552c0.01898,0.97661 0.03471,1.95396 0.03471,2.93552v0.6c0,0 0,0.5 -0.5,0.5c-0.5,0 -0.5,-0.5 -0.5,-0.5v-0.6c0,-0.99033 -0.01602,-1.97648 -0.03523,-2.96195c-0.78807,-0.02046 -1.57715,-0.03805 -2.36477,-0.03805c0,0 -0.5,0 -0.5,-0.5c0,-0.5 0.5,-0.5 0.5,-0.5c0.77941,0 1.56248,0.02059 2.34477,0.04313c-0.02314,-1.1452 -0.04477,-2.29108 -0.04477,-3.44313c0,0 0,-0.5 0.5,-0.5c0.5,0 0.5,0.5 0.5,0.5c0,1.16165 0.02199,2.31694 0.04535,3.47162c0.68795,0.01835 1.37384,0.03206 2.05465,0.02838l0.45811,0.12566c0,0 0.47434,0.15811 0.31623,0.63246z" fill="#ffffff"></path><path d="M251.06,179.49c0,0.5 -0.5,0.5 -0.5,0.5l-0.45073,-0.00243c-0.12958,0.02592 -0.25552,0.04572 -0.37934,0.06262c0.01684,0.44576 0.03007,0.8921 0.03007,1.33982v0.3c0,0 0,0.5 -0.5,0.5c-0.5,0 -0.5,-0.5 -0.5,-0.5v-0.3c0,-0.40174 -0.0104,-0.80219 -0.02449,-1.20205c-0.11073,0.02218 -0.22308,0.04902 -0.33815,0.08281c0,0 -0.48076,0.13736 -0.61812,-0.3434c-0.13736,-0.48076 0.3434,-0.61812 0.3434,-0.61812c0.1975,-0.05514 0.38716,-0.09386 0.57366,-0.1246c-0.01941,-0.49775 -0.03584,-0.99551 -0.0363,-1.49463c0,0 0,-0.5 0.5,-0.5c0.5,0 0.5,0.5 0.5,0.5c-0.00045,0.4534 0.01293,0.90597 0.03004,1.35853c0.10505,-0.01607 0.21168,-0.0343 0.32069,-0.0561l0.54927,-0.00243c0,0 0.5,0 0.5,0.5z" fill="#ffffff"></path><path d="M226.46,174.29c0,0.5 -0.5,0.5 -0.5,0.5h-0.1c-1.18216,0 -2.3521,-0.07852 -3.52568,-0.16599c0.16659,1.888 0.32568,3.7795 0.32568,5.66599v0.6c0,0 0,0.5 -0.5,0.5c-0.5,0 -0.5,-0.5 -0.5,-0.5v-0.6c0,-1.91492 -0.15165,-3.82935 -0.31385,-5.74012c-1.14941,-0.08498 -2.30654,-0.15988 -3.48615,-0.15988c0,0 -0.5,0 -0.5,-0.5c0,-0.5 0.5,-0.5 0.5,-0.5c1.14876,0 2.2784,0.0712 3.40049,0.15353c-0.15136,-1.78908 -0.29022,-3.57446 -0.30049,-5.35353c0,0 0,-0.5 0.5,-0.5c0.5,0 0.5,0.5 0.5,0.5c-0.01303,1.7994 0.12726,3.61102 0.2856,5.42728c1.20483,0.09013 2.40482,0.17272 3.6144,0.17272h0.1c0,0 0.5,0 0.5,0.5z" fill="#ffffff"></path><path d="M241.76,190.09c0,0.5 -0.5,0.5 -0.5,0.5h-0.3c-0.56441,0 -1.12292,-0.02314 -1.68178,-0.04715c-0.08055,0.72101 -0.1876,1.43115 -0.32065,2.09642l0.00243,0.45073c0,0 0,0.5 -0.5,0.5c-0.5,0 -0.5,-0.5 -0.5,-0.5l0.00243,-0.54927c0.12921,-0.64606 0.23522,-1.33606 0.3157,-2.03702c-0.27152,-0.0083 -0.54399,-0.01371 -0.81813,-0.01371c0,0 -0.5,0 -0.5,-0.5c0,-0.5 0.5,-0.5 0.5,-0.5c0.30657,0 0.6112,0.00677 0.91481,0.01679c0.05729,-0.72237 0.08653,-1.43986 0.08519,-2.11679c0,0 0,-0.5 0.5,-0.5c0.5,0 0.5,0.5 0.5,0.5c-0.00125,0.69026 -0.03066,1.42112 -0.0877,2.15686c0.52781,0.02251 1.05546,0.04314 1.5877,0.04314h0.3c0,0 0.5,0 0.5,0.5z" fill="#ffffff"></path><path d="M257.66,177.99c0,-0.27614 0.22386,-0.5 0.5,-0.5c0.27614,0 0.5,0.22386 0.5,0.5c0,0.27614 -0.22386,0.5 -0.5,0.5c-0.27614,0 -0.5,-0.22386 -0.5,-0.5z" fill="#ffffff"></path><path d="M228.66,165.19c0,-0.27614 0.22386,-0.5 0.5,-0.5c0.27614,0 0.5,0.22386 0.5,0.5c0,0.27614 -0.22386,0.5 -0.5,0.5c-0.27614,0 -0.5,-0.22386 -0.5,-0.5z" fill="#ffffff"></path><path d="M207.96,190.39c0,-0.27614 0.22386,-0.5 0.5,-0.5c0.27614,0 0.5,0.22386 0.5,0.5c0,0.27614 -0.22386,0.5 -0.5,0.5c-0.27614,0 -0.5,-0.22386 -0.5,-0.5z" fill="#ffffff"></path><path d="M239.76,177.99c0,0.5 -0.5,0.5 -0.5,0.5c-0.20134,0 -0.44543,0 -0.7,0v0.4c0,0 0,0.5 -0.5,0.5c-0.5,0 -0.5,-0.5 -0.5,-0.5c0,-0.11832 0,-0.25408 0,-0.4c-0.07018,0 -0.13717,0 -0.2,0c0,0 -0.5,0 -0.5,-0.5c0,-0.5 0.5,-0.5 0.5,-0.5c0.06667,0 0.13333,0 0.2,0c0,-0.25918 0,-0.50361 0,-0.7c0,0 0,-0.5 0.5,-0.5c0.5,0 0.5,0.5 0.5,0.5c0,0.23333 0,0.46667 0,0.7c0.13333,0 0.26667,0 0.4,0h0.3c0,0 0.5,0 0.5,0.5z" fill="#ffffff"></path><path d="M213.46,158.09c0,0.5 -0.5,0.5 -0.5,0.5c-0.10494,0 -0.24429,0 -0.4,0v0.2c0,0 0,0.5 -0.5,0.5c-0.5,0 -0.5,-0.5 -0.5,-0.5c0,-0.06186 0,-0.12899 0,-0.2c-0.11524,0 -0.2181,0 -0.3,0c0,0 -0.5,0 -0.5,-0.5c0,-0.5 0.5,-0.5 0.5,-0.5c0.1,0 0.2,0 0.3,0c0,-0.18348 0,-0.35602 0,-0.5c0,0 0,-0.5 0.5,-0.5c0.5,0 0.5,0.5 0.5,0.5c0,0.16667 0,0.33333 0,0.5h0.4c0,0 0.5,0 0.5,0.5z" fill="#ffffff"></path><path d="M215.66,205.59c0,-0.27614 0.22386,-0.5 0.5,-0.5c0.27614,0 0.5,0.22386 0.5,0.5c0,0.27614 -0.22386,0.5 -0.5,0.5c-0.27614,0 -0.5,-0.22386 -0.5,-0.5z" fill="#ffffff"></path><path d="M201.16,171.29c0,-0.27614 0.22386,-0.5 0.5,-0.5c0.27614,0 0.5,0.22386 0.5,0.5c0,0.27614 -0.22386,0.5 -0.5,0.5c-0.27614,0 -0.5,-0.22386 -0.5,-0.5z" fill="#ffffff"></path><path d="M253.06,169.89c0,-0.27614 0.22386,-0.5 0.5,-0.5c0.27614,0 0.5,0.22386 0.5,0.5c0,0.27614 -0.22386,0.5 -0.5,0.5c-0.27614,0 -0.5,-0.22386 -0.5,-0.5z" fill="#ffffff"></path><path d="M308.9,179.725c0,1.75 -1.75,1.75 -1.75,1.75c-7.95284,0 -16.12261,0 -24.10517,0l-2.83036,0.47173c-2.33877,0.9173 -5.38362,0.52875 -7.81447,0.52827c-3.19127,-0.00063 -6.46579,0.05781 -9.65322,0.24732c-9.07687,0.53968 -18.24356,0.25268 -27.34678,0.25268c-3.20291,0 -6.40583,0.00245 -9.60874,-0.00338l-0.10303,-0.05245l-0.00529,0.04232l-1.97697,-0.24712c-0.87519,-0.09654 -1.55597,-0.83845 -1.55597,-1.73937c0,-0.80542 0.54411,-1.48376 1.2848,-1.68749l2.46234,-0.7387l0.01475,0.04916c0.07725,-0.0362 0.15523,-0.07104 0.23399,-0.10442c0.0551,-0.02335 3.66273,-0.01855 4.00412,-0.01855c1.90604,0 3.83248,0.05802 5.74709,0.04017c0.00057,-0.0638 0.00386,-0.12998 0.0101,-0.19861c0.15844,-1.74281 1.90125,-1.58438 1.90125,-1.58438c4.15401,0.38045 8.27943,0.06576 12.43834,0.24549c10.23143,0.44217 20.51506,0.73206 30.76196,0.7507l0.10267,0.0553l0.00565,-0.04517l1.89189,0.23649c7.96368,0 15.92737,0 23.89105,0h0.25c0,0 1.75,0 1.75,1.75z" fill="#895b61"></path><path d="M240.72556,177.77725c1.23736,-0.30934 1.79836,0.50859 2.01162,0.97495c2.02801,0.07927 4.03634,0.31593 6.03783,0.49719c0.40039,-1.02439 1.62498,-1.02439 1.62498,-1.02439c13.83333,0 27.66667,0 41.5,0c5.3492,0 10.65519,-0.25 16,-0.25h0.75c0,0 1.75,0 1.75,1.75c0,1.75 -1.75,1.75 -1.75,1.75h-0.75c-5.34423,0 -10.65086,0.25 -16,0.25c-12.35164,0 -24.70328,0 -37.05492,0c-0.29672,1.25 -1.69508,1.25 -1.69508,1.25c-3.9283,-0.02091 -7.76054,-0.75 -11.75,-0.75l-1.94775,-2.32556c0,0 -0.42444,-1.69775 1.27331,-2.12219z" fill="#13072c"></path></g></g></svg>