<svg version="1.1" xmlns="http://www.w3.org/2000/svg" xmlns:xlink="http://www.w3.org/1999/xlink" width="548" height="359" viewBox="0,0,548,359"><g transform="translate(34,-1)"><g stroke="none" stroke-miterlimit="10"><g stroke-width="0.5"><g><path d="M268.79658,128.39303c-0.42003,0.0086 -0.85989,-0.06257 -1.2925,-0.22301c-1.18684,-0.44016 -1.97691,-1.42533 -2.07435,-2.44184l-0.30003,-2.4627c-1.0095,-4.60749 -0.62317,-6.72214 -0.42282,-10.973c0.15503,-3.28933 -0.91199,-4.79994 0.3293,-7.983c0.01567,-0.04019 0.03155,-0.08029 0.04763,-0.1203l-0.01796,-0.00538l1.12337,-4.17597c0.01803,-0.07031 0.03982,-0.14016 0.06549,-0.20937c0.03636,-0.09806 0.07946,-0.19202 0.12873,-0.28169c-0.5741,-0.44051 -2.03762,-1.80109 -0.78784,-3.45359c1.52783,-2.02016 4.05494,-0.43624 4.05494,-0.43624c2.46247,1.54949 5.85829,3.55141 8.57237,5.72469c0.35683,0.25144 0.72292,0.55863 1.0983,0.92468c0.72217,0.64245 1.36798,1.29598 1.89805,1.95376c1.17621,1.45958 1.48207,2.56009 1.82379,3.51857c0.30004,0.4481 0.5381,0.94446 0.72602,1.46051c0.38036,0.51307 0.94376,1.01742 1.87707,1.55781c0.95297,0.11627 1.58253,0.57026 1.99007,1.0477c0.42692,0.40824 0.78895,0.96904 0.78114,1.69415c0.84911,3.55899 1.97631,6.63965 1.55034,10.15475l0.87843,1.37604c0.34934,0.36433 0.62217,0.85879 0.72057,1.52983c0.00012,0.0008 0.00024,0.0016 0.00036,0.00241c0.08516,0.45068 0.07767,1.00348 -0.24752,1.49591c-0.31117,0.50018 -0.83105,0.76997 -1.29843,0.91547c-0.00082,0.00029 -0.00164,0.00057 -0.00245,0.00087c-0.6087,0.21392 -1.15055,0.24758 -1.62363,0.17342c-3.78367,0.03781 -6.02827,0.33173 -9.4949,1.54868l-0.26725,-0.01901l0.02555,0.07108l-2.42492,0.41995l-1.96193,1.75871c-0.73838,0.69654 -1.97144,0.92253 -3.15065,0.4852c-1.18684,-0.44016 -1.97691,-1.42532 -2.07436,-2.44183l-0.31032,-2.54724l0.07923,0.00105z" fill="#baafcc"></path><path d="M280.04398,104.57932c0.52123,0.42581 0.87828,0.97862 1.01406,1.5593l1.52163,2.03474c3.24654,1.90855 6.04956,4.32751 6.9645,7.35001c0.03109,0.10273 0.05962,0.20555 0.08576,0.30845l0.04729,-0.00862l1.05926,2.85622c0.19862,0.51498 0.22336,1.06871 0.03127,1.58665c-0.4801,1.29455 -2.13286,1.87539 -3.69151,1.29734c-0.11935,-0.04426 -0.23468,-0.09404 -0.3457,-0.1488l-3.23138,-1.54964l0.01896,-0.0357l-0.16347,-0.03766c-1.97481,-1.17804 -4.0088,-2.19642 -6.08319,-3.11941c-0.02407,-3.40313 0.01594,-6.79507 -0.08616,-10.21667c-0.08499,-2.84804 -0.89028,-5.74356 -1.44656,-8.62425c1.87003,1.7021 3.23797,4.19483 4.30525,6.74802z" fill-opacity="0.38824" fill="#2d1440"></path><path d="M273.58138,130.05205c-1.26541,-0.34086 -1.87375,-0.9983 -2.15748,-1.63128c-0.30966,-0.02635 -0.62574,-0.09565 -0.93804,-0.21147c-0.85263,-0.31621 -1.50048,-0.9137 -1.83387,-1.60202l-1.69999,-3.46327l0.1553,-0.04353l-0.3104,-0.34927c-0.78696,-5.88116 -1.59249,-11.85156 0.35327,-17.28787c0,0 0.8693,-2.34399 3.69151,-1.29734c0.25689,0.09528 0.4832,0.2013 0.68236,0.31532c0.71641,-0.80232 2.03053,-1.08679 3.28382,-0.62199c1.26954,0.47083 2.0851,1.56527 2.08454,2.65462l0.11273,4.2497l-0.06691,-0.0057c0.02064,0.08529 0.04039,0.17069 0.05922,0.25621c0.37423,1.70026 -1.36164,3.16545 -1.10415,4.86989c0.15459,1.02332 0.98498,1.96203 1.2665,2.97801c0.34756,1.2543 0.51583,5.11322 0.58778,6.26523l-0.71292,3.26093c0,0 -0.55232,2.44525 -3.45327,1.66384z" fill-opacity="0.1098" fill="#f2d6ff"></path></g><path d="M267.03484,132.5478c-0.16584,-0.28795 -0.27413,-0.55454 -0.33627,-0.80076c-0.15659,-0.03508 -0.31349,-0.08132 -0.46946,-0.13917c-1.18684,-0.44016 -1.97691,-1.42532 -2.07436,-2.44183l-0.30167,-2.47616c-1.58983,-3.84583 -1.51386,-7.73483 -0.74512,-11.57093c-0.36813,-2.70535 -0.55571,-5.37518 -0.3955,-7.85012c0.23296,-3.59885 2.11695,-7.08973 3.34064,-10.38929c0,0 0.02108,-0.05685 0.06734,-0.14888c0.19678,-0.466 0.5902,-1.02119 1.37281,-1.26283c0.48265,-0.17948 1.10673,-0.231 1.90118,-0.00139c0.80406,0.18409 1.34287,0.53657 1.7037,0.93435c0.36603,0.36355 0.55833,0.76006 0.65088,1.13049c0.05764,0.03955 0.08866,0.06348 0.08866,0.06348c0.62426,0.48385 1.19791,1.01532 1.76109,1.55635c0.78277,0.36138 1.20568,0.8723 1.42885,1.36851c0.49275,0.45491 1.00276,0.89317 1.55538,1.2907c0.23678,0.17033 0.47897,0.33425 0.72503,0.49357c0.06433,0.01989 0.12858,0.0417 0.19268,0.06547c0.51317,0.19032 0.95217,0.48253 1.29307,0.83512c1.17595,0.68217 2.37034,1.34172 3.43405,2.15433l1.58655,2.26615c0,0 0.8922,1.54906 -0.11332,2.63331c0.45718,0.42642 0.84973,0.92773 1.16743,1.47165c2.37812,1.6075 4.35378,3.45604 4.56941,6.36432c0.00641,0.08647 0.01129,0.17275 0.01474,0.25884l0.03569,0.00005l0.45436,3.31524c0.05964,0.36671 0.03028,0.74085 -0.10217,1.09797c-0.4801,1.29455 -2.13286,1.87539 -3.69151,1.29734c-0.2582,-0.09575 -0.49761,-0.2173 -0.7152,-0.35936l-2.72187,-1.70598l0.02615,-0.03457l-0.16738,-0.05877c-1.4408,-1.13993 -3.117,-2.09304 -4.87322,-2.75329c-0.21112,-0.07937 -0.42298,-0.15736 -0.63495,-0.23522c0.56842,1.94377 0.9509,3.87586 0.71661,5.81333c0.05627,0.3122 0.09577,0.62817 0.1219,0.94581l1.09168,2.36829c0.2641,0.56231 0.31885,1.183 0.10509,1.75939c-0.14794,0.39891 -0.40722,0.73004 -0.74079,0.98039c-0.43986,0.82251 -1.42453,1.16855 -1.42453,1.16855c-0.5414,0.19027 -1.08281,0.38054 -1.62421,0.57081c0.06403,0.08852 0.12867,0.17652 0.19393,0.264l0.68923,1.16333c0,0 1.38091,2.39756 -1.22938,3.31491c-1.6602,0.58346 -2.82308,-0.17404 -3.44968,-0.80276c-1.56059,-0.4402 -2.1223,-1.95482 -2.1223,-1.95482c-0.04411,-0.11934 -0.08803,-0.23852 -0.13173,-0.35757c-0.76002,-0.1293 -1.61221,-0.54104 -2.2235,-1.60236z" fill-opacity="0.37255" fill="#2d1440"></path></g><g stroke-width="0.5"><g><path d="M205.91372,254.93874c0,0 0.11857,-0.59285 0.54011,-1.10246c0.08956,-0.40124 0.18354,-0.80177 0.28322,-1.20136c0.51847,-2.07843 1.05628,-4.13013 1.54536,-6.19273c0.21494,-6.03784 2.97192,-11.19136 7.65294,-14.83564c2.71909,-2.11687 3.83839,-4.03812 7.79753,-3.66645c0.31835,0.02989 0.61966,0.07414 0.90514,0.1318c0.21078,-1.09152 0.44297,-2.17718 0.70194,-3.25521c0.77346,0.00038 1.53945,-0.00225 2.28627,-0.01323c0.78383,-0.01153 1.57056,-0.01906 2.35923,-0.02523c-0.52503,2.00183 -0.94503,4.03556 -1.2976,6.08823c0.59035,0.93222 1.01215,2.0148 1.3946,3.14365c0.67591,0.0066 1.2805,0.31123 1.68867,0.78878l1.65096,1.90954l-0.05328,0.04606c0.1065,0.09911 0.20896,0.20313 0.3068,0.31275c1.11496,1.24916 1.76941,4.06042 2.19122,6.55185c0.10417,0.16808 0.20977,0.3352 0.31737,0.50098c0.53909,0.83059 1.52269,1.46445 2.02375,2.28994c0.69293,0.38349 1.16208,1.12194 1.16208,1.96998c0,0.48998 -0.15663,0.94339 -0.42254,1.31287l-1.36613,1.95163c-0.28533,0.41918 -0.70855,0.73696 -1.20443,0.88809c-0.66024,0.95878 -1.22757,1.99402 -2.04512,2.81734c-1.06034,1.06782 -2.74933,1.53918 -3.51238,2.83622c-1.17684,2.0004 -1.96512,4.87839 -2.81264,7.03525c-0.4123,1.04926 -0.19407,2.45074 -1.01125,3.22738c-0.02946,0.028 -0.05997,0.0536 -0.09145,0.07698c-0.0097,0.03227 -0.01952,0.0645 -0.02946,0.0967l0.0307,0.01637l-0.08819,0.16537c-0.08648,0.26657 -0.18173,0.53021 -0.28864,0.79l-0.14892,0.10155l0.06981,0.04188l-1.01039,1.68397c-0.18455,0.65089 -0.57497,1.28025 -0.74517,1.93899c-0.58397,2.26026 -1.14381,4.57212 -2.17583,6.6632c-0.13058,0.65559 -0.58897,1.80622 -2.19798,1.80622c-0.18651,0 -0.35756,-0.01546 -0.51443,-0.04382c-0.35244,0.72804 -0.70901,1.45847 -1.06991,2.19363c-1.40879,2.86982 -1.53828,6.42795 -5.7313,7.0486c-0.67615,0.10008 -1.26065,-0.30017 -1.84017,-0.75406l-0.18249,0.05615l-0.01553,-0.05046c-0.0784,0.03899 -0.15762,0.07655 -0.23774,0.11258c-1.01596,0.45688 -2.22051,0.19065 -3.33355,0.23613c-3.47824,0.14215 -6.99295,0.00124 -10.47488,0.00124h-2.4c-1.24264,0 -2.25,-1.00736 -2.25,-2.25c0,-0.58188 0.22088,-1.11216 0.58336,-1.51158l1.39908,-1.55453c-0.07644,-0.48841 -0.12988,-0.97538 -0.18026,-1.43305c-0.18108,-1.64507 1.74685,-4.18904 2.52659,-5.4719c0.72877,-1.199 1.45172,-2.39228 2.17352,-3.58173c0.44931,-1.25687 1.11126,-2.53826 1.5068,-3.3944c0.01049,-0.02272 0.02099,-0.04544 0.03147,-0.06816c0.20338,-0.84803 0.42781,-1.69394 0.68781,-2.53594c0.48524,-1.57144 0.49777,-3.40933 1.52785,-4.69146c0.38219,-0.47571 0.83477,-0.87599 1.32646,-1.23433c0.82044,-2.62704 1.52731,-5.27997 2.06101,-7.96418z" fill="#a69cb5"></path><path d="M281.98501,232.32956l2.09177,-0.06848c3.13382,1.11947 6.15809,2.22816 9.32013,3.10726c0.29492,-0.53217 0.85593,-1.03833 1.92311,-1.03833c2.25,0 2.25,2.25 2.25,2.25c0,0.39897 0.00036,0.79868 0.00079,1.19903c0.0221,0.173 0.02404,0.36166 0.00062,0.56721c0.00627,5.99575 -0.00492,12.12281 -1.03565,18.02483c-0.63149,3.61595 -2.23269,6.93468 -3.23539,10.43198c0.5292,0.41168 0.86964,1.05456 0.86964,1.77695v2.4h-0.05928l0.05434,0.14901c-0.52729,3.99444 -0.59178,7.20662 -1.75852,10.5921c-0.06221,0.52567 -0.18485,1.03592 -0.4078,1.51993c-0.26979,0.58571 -0.59953,1.11634 -0.98074,1.59706c-0.03434,0.06239 -0.06918,0.12492 -0.10449,0.1876c-0.19737,0.41604 -0.54843,0.88152 -1.16478,1.09344c-4.53722,3.70393 -13.01762,3.30696 -18.02872,3.31086h-1.8c0,0 -2.19469,0 -2.24898,-2.16755c-0.25283,-0.36383 -0.40103,-0.80583 -0.40103,-1.28245c0,-0.17835 0.02075,-0.35185 0.05997,-0.51823l0.58997,-2.75322l0.01814,0.00389c-0.00046,-0.02583 -0.00081,-0.05168 -0.00106,-0.07754c-0.02198,-2.36316 1.75239,-5.10495 2.17123,-7.46805c0.77171,-4.35395 1.02236,-8.82954 1.50276,-13.25551c0.01866,-0.6665 0.03832,-1.3351 0.06023,-2.00622c0.04433,-1.35809 -0.09434,-3.75524 0.15082,-5.63333c-1.39508,-2.32311 -2.61843,-4.73598 -3.45257,-7.4301c0,0 -0.10665,-0.34659 -0.09517,-0.80431c-0.00127,-0.04511 -0.00164,-0.09041 -0.00106,-0.13593c0.04221,-3.32559 3.35957,-6.15957 5.36505,-8.41627l2.08167,-0.75518c0,0 2.25,0 2.25,2.25c0,0.30498 -0.04134,0.56861 -0.11281,0.79651c0.56045,-0.13941 1.12223,-0.27353 1.68507,-0.40313c-0.18509,-0.50673 -0.37458,-1.01183 -0.56769,-1.51541c-0.89053,-3.65532 -2.34947,-7.20794 -3.71119,-10.79531c1.37124,0.2569 2.74996,0.51669 4.14043,0.77597c0.32441,0.06049 0.64933,0.11895 0.97472,0.17547c0.55289,1.43726 1.10293,2.87282 1.60645,4.31546z" fill="#a69cb5"></path><path d="M229.10736,175.2463l2.30622,-1.6473c4.89356,-3.49457 10.74771,-7.19409 16.90957,-5.99982c1.32444,-0.09745 2.71117,-0.13251 4.21019,-0.13251h2.66667c1.38071,0 2.5,1.11929 2.5,2.5c0,0.72435 -0.30806,1.37675 -0.80031,1.83333c0.03251,0.03016 0.06422,0.06117 0.09509,0.09299c0.23176,0.01179 0.46405,0.02598 0.6968,0.04356c3.67946,0.27787 7.023,1.28344 10.35949,2.79512l0.41465,0.06551c0,0 0.94242,0.2356 1.43397,1.01644c0.17496,-1.06838 1.10244,-1.88361 2.22032,-1.88361c0.74548,0 1.40628,0.36254 1.81571,0.92094l2.36395,3.15194c3.17284,2.72746 4.79116,7.19864 6.34377,11.57131c1.18558,1.54271 2.23851,3.19863 3.09778,5.01727c0.69991,1.48133 0.92298,3.13394 1.16499,4.77048c1.32563,2.84123 2.13401,5.86871 3.30375,8.78463c0.48872,1.2183 1.69121,2.23714 1.70508,3.54973c0.00148,0.14001 -0.00054,0.27966 -0.00576,0.41899l0.07925,-0.00661l0.12406,1.48873c3.75902,6.8176 6.18946,14.52566 6.25607,22.32071c0.0101,0.15034 0.00756,0.31197 -0.00982,0.48575c-0.07171,0.71705 -0.3501,1.18149 -0.69543,1.48156c-0.33294,0.31376 -0.82277,0.54457 -1.5434,0.54457v-0.00001c-0.17647,0 -0.33909,-0.01384 -0.48896,-0.03935l-1.51104,-0.16065c-5.54874,-0.00292 -8.74012,1.54575 -13.33371,4.48262c-0.22566,0.17025 -0.4631,0.2846 -0.65909,0.35941c-0.24823,0.09679 -0.58882,0.19126 -0.96354,0.18532l-1.36186,0.15003c-3.02847,-0.53391 -6.22012,-1.82295 -8.13355,-4.54929c-1.42656,-2.03263 -0.61911,-3.30032 -1.29227,-5.39568c-0.86974,-2.70726 -2.4078,-5.30895 -3.22277,-8.07613c-0.12424,-0.42185 -0.23377,-0.84313 -0.33385,-1.26397c-4.69484,-4.38684 -7.79663,-10.05466 -9.97293,-16.21817c-0.09032,0.18414 -0.17636,0.37031 -0.25698,0.55896c-0.76332,1.78605 -0.99529,3.78242 -1.85699,5.52313c-2.06686,4.17524 -4.6859,8.15002 -6.8561,12.32827c-1.8201,5.08846 -3.80211,9.58137 -7.85076,12.84921c-0.4504,0.89534 -0.85269,1.81611 -1.18668,2.77304l-0.50646,1.04948c0,0 -1.00623,2.01246 -3.01869,1.00623c-1.27062,-0.63531 -1.33788,-1.67175 -1.21481,-2.34952c-0.03433,-0.01665 -0.06853,-0.03455 -0.10255,-0.05378c-0.41219,-0.22808 -0.67493,-0.57967 -0.84053,-0.90646c-0.02896,-0.05474 -0.05706,-0.11192 -0.0842,-0.17164c-0.24662,-0.54257 -0.28419,-1.00675 -0.20617,-1.396l-0.00686,-0.23322c-1.56006,-3.6533 -3.18548,-5.15322 -6.85702,-6.84781c-1.21039,-0.55865 -3.01913,-0.86381 -4.6805,-1.30036c-0.45295,0.18363 -0.89399,0.159 -1.26239,0.06153c-0.61988,-0.09853 -1.02493,-0.39479 -1.28963,-0.73992c-0.07094,-0.05459 -0.14297,-0.10828 -0.2157,-0.1614c-0.19354,1.60752 0.0364,3.28454 -0.41676,4.83867c-0.00153,0.00524 -0.00306,0.01048 -0.00459,0.01571l0.00304,0.0003l-0.07802,0.78024c0.05793,-0.01241 0.11571,-0.02321 0.17332,-0.03188l1.66959,-0.02193c0,0 2.5,0 2.5,2.5c0,2.5 -2.5,2.5 -2.5,2.5l-2.33041,-0.02193c-0.0356,-0.00894 -0.07138,-0.01756 -0.10732,-0.02588c-0.37449,0.90841 -1.26871,1.54781 -2.31227,1.54781c-1.38071,0 -2.5,-1.11929 -2.5,-2.5v-0.05594c-0.13332,-0.08738 -0.26062,-0.18589 -0.38096,-0.29725c-1.26646,-1.172 -0.61904,-7.33904 -0.61904,-9.14681c0,-4.23931 0.71201,-8.48933 2.06446,-12.54575c0.15708,-1.89426 0.4275,-3.7714 1.09083,-5.57161c1.27258,-3.45364 2.65813,-6.85403 4.05067,-10.25003c0.65017,-1.94724 1.34278,-3.86418 2.06266,-5.77031c1.2282,-4.62893 3.08827,-8.9959 4.89959,-13.51379c0.34331,-0.8563 -0.06307,-2.0521 0.58958,-2.70415c0.1538,-0.15366 0.31478,-0.29808 0.48177,-0.43476l-0.12099,-0.10587l1.74069,-1.98936c0.43279,-0.49986 1.06047,-0.82634 1.76488,-0.86126c0.188,-0.39553 0.47681,-0.73388 0.83322,-0.98181zM270.50468,177.83251l-0.26484,-0.41617c-0.03,-0.04553 -0.05839,-0.09221 -0.08509,-0.13996c-0.01084,0.0657 -0.02426,0.13303 -0.04044,0.20202c0.12973,0.1183 0.25988,0.23633 0.39037,0.35411z" fill="#111732"></path><path d="M226.90196,252.32924c-0.37682,1.23865 -0.79874,2.62954 -1.81194,3.43559c-0.9614,0.76484 -2.36525,0.70617 -3.58442,0.8575c-2.70219,0.33542 -5.84743,0.0747 -8.58558,0.00767c-1.2005,-0.02939 -2.50051,0.33692 -3.5996,-0.14688c-1.25999,-0.55462 -2.40581,-1.56632 -3.05293,-2.7814c-0.25662,-0.48184 -0.19763,-5.6728 -0.19746,-6.32173c0.00132,-5.24074 1.38307,-9.08935 3.37308,-13.86539c0.63014,-1.49292 1.64382,-2.80143 2.78964,-3.98672c-0.1356,-4.38962 2.99749,-10.17395 3.88915,-14.22825c0.44754,-2.03493 0.35159,-4.47304 1.31122,-6.37607c0.0283,-0.13581 0.05668,-0.2715 0.08518,-0.4071c0,0 0.38613,-1.83413 2.12757,-1.80191c1.214,-0.39953 5.65508,-0.08445 6.67377,-0.03769l2.05875,1.66787c0.54326,0.25641 0.83886,0.70203 0.99969,1.11106c0.1886,0.37175 0.32129,0.85596 0.19004,1.39665c-0.05438,7.08672 -1.24902,14.11914 -1.53636,21.17468l0.1305,1.56601l-0.17884,0.0149c-0.0077,0.38678 -0.01221,0.77364 -0.0132,1.16061c0.21009,1.39804 0.16703,2.8784 -0.00796,4.9982l-0.39153,1.33004c0.0162,3.37324 0.29447,8.06603 -0.66877,11.23235z" fill="#baafcc"></path><path d="M278.87002,255.98c0,-0.15473 -0.00745,-6.10393 0.02175,-6.31208c0.2413,-1.71991 1.04998,-3.34207 1.18592,-5.0735c0.48824,-6.21881 1.11493,-12.46518 2.22658,-18.60549c0.16879,-0.93234 0.4653,-1.80023 0.81217,-2.64347c0.14394,-2.4143 0.6082,-4.71654 1.2206,-7.11055c0.27352,-1.06926 0.25507,-2.30492 0.93084,-3.17754c0.06664,-0.08605 0.13542,-0.17003 0.20614,-0.25211l-0.05223,-0.03324l1.37966,-2.16805c0.22543,-0.36698 0.5532,-0.66434 0.94357,-0.85233c0.46193,-0.40026 0.98299,-0.54237 0.98299,-0.54237c1.68741,-0.44624 3.44664,-0.6664 5.19202,-0.67928l0.18871,0.20548c2.06129,0.12215 2.06129,2.24452 2.06129,2.24452c-0.00004,0.00269 -0.00007,0.00539 -0.00009,0.00808c-0.05908,5.01062 1.3724,10.10559 1.40009,15.19192v1.8c-0.00229,5.28201 0.0089,10.64729 0.19891,15.92979c0.183,5.08754 1.34526,9.63848 -1.31955,14.22782l-0.08625,0.10147c-0.23958,0.44788 -0.62839,0.73222 -0.95502,0.90409c-0.26693,0.15562 -0.62381,0.30642 -1.03028,0.33133c-4.47415,1.00633 -8.41471,1.47984 -13.0277,0.72488l-1.565,-2.34425c-0.47265,-0.33058 -0.70118,-0.81992 -0.81167,-1.21582l-0.00854,-0.01279c0,0 -0.03713,-0.12375 -0.06393,-0.32085c-0.03096,-0.19648 -0.03096,-0.32568 -0.03096,-0.32568z" fill="#baafcc"></path><path d="M271.76565,148.54019c0.50867,7.98021 3.45707,16.80069 1.53717,24.68552l-0.39011,0.27903c0.42554,0.49981 0.76368,1.29363 0.21975,2.3815c-1.00623,2.01246 -3.01869,1.00623 -3.01869,1.00623l-1.88406,-0.96919c-1.65071,-1.15949 -3.68093,-3.7123 -5.61539,-4.3068c-0.69236,-0.21278 -1.51734,0.22329 -2.17152,-0.08647h-2.7228c-0.81736,0 -1.53292,-0.43583 -1.92698,-1.08778c-4.76529,-0.1969 -9.43018,0.60107 -14.24395,1.99805c-2.2199,0.64423 -5.18166,0.53961 -7.26477,1.47261c-2.63814,1.18159 -4.50938,6.32637 -7.54172,6.57708c-3.13556,0.25924 -6.16523,-2.0634 -5.27079,-5.49974c0.03886,-0.14932 0.08589,-0.29492 0.14003,-0.43726l-0.07464,-0.01866l0.3553,-1.4212c-2.71862,-0.87311 -1.71463,-2.70285 -2.10951,-4.64632c-1.35603,-1.13173 -2.58444,-2.42089 -3.1616,-3.77543c-0.36103,-0.84729 -0.4503,-1.98273 -0.48592,-3.1809c-0.12169,-1.0067 -0.14299,-2.08013 -0.11881,-3.16379c-0.05067,-0.51856 -0.1304,-1.0086 -0.26008,-1.44852c0,0 -0.36099,-1.26346 0.43431,-2.13516c0.04428,-0.80126 0.07912,-1.57096 0.07912,-2.28296v-2c0,-4.43791 0.06259,-8.83937 0.20109,-13.27021c0.11378,-3.63977 -0.15593,-7.99129 1.64338,-11.34978c0.97212,-1.8145 2.93075,-2.89148 4.38868,-4.34471c1.30803,-1.30382 2.06522,-3.22511 3.65628,-4.16288c2.38578,-1.40618 3.76462,-0.97959 6.28454,-1.30542c4.63895,-0.59982 8.59907,-0.31195 13.26209,0.01637c3.67167,1.03529 7.20078,2.22861 10.66572,3.8276l0.00734,0.00439c0.45035,-1.46536 2.14088,-1.46535 2.14088,-1.46535c3.66667,0 7.33333,0 11,0h0.4c0.78141,0 1.29145,0.27138 1.62435,0.62565c0.62565,0.6658 0.62565,1.62435 0.62565,1.62435c0,2.06667 0,4.13333 0,6.2v0.4c0,0 0,0.20975 -0.06404,0.50117c-0.42219,6.85235 -0.77641,13.91727 -0.34031,20.75902z" fill="#a69cb5"></path><path d="M276.8206,165.25654c-0.7552,0.65755 -1.30443,1.64405 -2.23954,2.0022c-1.60772,0.61576 -4.82695,-0.03329 -6.45609,-0.26369c-5.04352,-1.07834 -11.07512,-2.20347 -15.56915,-4.88966c-4.60978,-2.75537 -7.14775,-7.6782 -10.83765,-11.34534c-1.88871,-1.87706 -3.25171,-3.73056 -4.9346,-5.74923c-1.5828,-1.89862 -3.3274,-2.96597 -4.82528,-4.81206c-0.13568,0.02032 -0.28152,0.03124 -0.43828,0.03124c-2.25,0 -2.25,-2.25 -2.25,-2.25v-1.6c0.22326,-4.8636 3.40473,-7.63055 7.04089,-10.69751c1.13328,-0.50499 2.17987,-1.2891 3.39984,-1.51496c3.37231,-0.62434 6.25225,0.98812 9.21797,2.11282c3.69731,1.40214 7.69361,2.38955 11.29309,4.03827c2.22784,1.02044 5.0911,2.98885 7.26775,4.03098c3.80009,1.8194 7.42669,2.96532 10.78764,5.6358c0.91782,0.72926 2.06977,1.30592 2.62849,2.33649c0.74655,1.377 0.82929,3.55325 0.74369,5.72154c0.3974,2.56223 -0.07936,6.03571 -0.07936,8.33657v2.4c0,1.07439 -0.75303,1.97289 -1.76009,2.19651c-0.65065,1.61219 -1.60192,3.07201 -2.98933,4.28003z" fill="#6390d6"></path><path d="M277.89905,199.62451c-0.47563,0.01834 -0.84074,-0.09401 -0.84074,-0.09401l-2.88161,-0.90778c-1.14997,-1.03333 -3.98836,-2.79427 -4.04724,-4.50626c-0.38631,0.19858 -0.77085,0.40422 -1.15261,0.62072c-0.46082,0.42432 -0.98232,0.53029 -1.43307,0.51001c-0.46685,0.03082 -1.01261,-0.07247 -1.49525,-0.52709l-1.91952,-1.14911c-0.36429,-0.36684 -0.70011,-0.7523 -1.0161,-1.1504c-0.68766,-0.06276 -1.28587,-0.43492 -1.65423,-0.9761l-1.38195,-1.9742l0.02002,-0.01402c-0.02588,-0.02369 -0.0516,-0.04759 -0.07715,-0.07171c-1.2518,-1.18179 -2.12341,-2.86733 -2.70343,-4.68997c-1.89931,-2.05738 -3.0798,-3.9003 -1.5968,-7.34416c0.22626,-0.52541 0.91785,-1.20208 1.7522,-1.88039l0.52927,-0.97033c-1.03275,-0.94348 -2.1625,-1.6923 -3.38157,-2.36612c-0.41676,0.30852 -0.87803,0.49933 -1.39866,0.4942c-4.01982,-0.03956 -3.92687,-8.04638 -3.26088,-10.27688c1.53158,-5.12946 7.88162,-9.93372 12.59135,-11.68546l1.36947,-0.26109c0.71225,-0.22567 1.2708,-0.088 1.68829,0.16639c0.4354,0.20817 0.85055,0.59359 1.05335,1.29597c0.84122,1.97556 1.53943,4.03883 1.87946,6.15725l0.08332,0.49982c0.69019,-0.45317 1.39547,-0.78518 2.0187,-0.9428c3.82864,-0.9683 7.74033,-0.41315 11.34941,0.88407c1.1427,-0.30029 2.43009,-0.26567 3.4347,0.08403c0.69549,0.2421 1.04156,1.31403 1.20988,2.56658l0.67333,0.67333l-0.56086,0.56086c0.00946,0.17033 0.01682,0.34021 0.02245,0.50817l0.81691,1.77396c-0.26456,-0.01833 -0.53398,-0.0205 -0.80616,-0.01349c-0.00579,0.40442 -0.01391,0.73883 -0.01334,0.9615v1.4c0,0 0,0.12284 -0.0287,0.3111c-0.02413,0.18891 -0.05787,0.30702 -0.05787,0.30702c-0.90441,3.16527 -1.59687,6.06161 -1.88419,9.31837c1.02487,2.22026 2.57074,3.71208 3.66681,5.73418c1.43718,2.65139 0.90395,6.06287 0.90395,8.92934l-0.35435,1.94966c0.03168,0.56954 -0.19693,1.02818 -0.45954,1.36132c-0.22819,0.35403 -0.58429,0.7165 -1.1267,0.87331c-2.20493,1.22624 -4.43695,2.09094 -6.70318,3.22817l-1.43127,0.44101c-0.50938,0.27644 -0.98892,0.28951 -1.39591,0.19103z" fill="#baafcc"></path><path d="M278.15961,198.20095l-2.7511,-0.88641c0,0 -1.5714,-0.5238 -1.56823,-2.02082c-1.015,-0.48281 -1.78083,-1.34104 -2.60068,-3.25679c-1.27835,-2.9871 0.02743,-5.84399 0.03042,-8.85692c0.00462,-4.65099 -1.07781,-9.53605 -1.58693,-14.15781c-0.20603,-1.87032 -0.93553,-6.93734 0.06457,-8.52491c1.95237,-3.09922 5.65245,-2.54682 8.62284,-3.29913c0.25977,-0.13593 0.58068,-0.23104 0.97696,-0.26152c0.63234,-0.04864 1.10014,0.09466 1.44594,0.32557c0.347,0.22909 0.66061,0.60464 0.86116,1.20629c0.12248,0.36742 0.16062,0.69268 0.13984,0.97941c0.1657,2.559 0.09112,5.12508 0.36107,7.67665c0.24692,2.33389 1.30433,4.45618 1.59465,6.75681c0.09803,0.77687 -0.2512,1.59229 -0.04836,2.34859c0.52675,1.96407 1.88291,3.64156 2.40193,5.60769c0.86696,3.28421 1.47118,6.40197 2.03573,9.77247l0.35106,1.92963c0.2318,0.66642 0.11446,1.21197 -0.11476,1.62949c-0.18531,0.44459 -0.54435,0.88146 -1.22438,1.11425c-3.19992,1.64472 -5.33721,1.94373 -8.99173,1.91747z" fill="#721c67"></path><path d="M276.83474,186.00809c-1.25155,-1.51318 -0.8898,-4.1754 -0.96306,-5.94174c-0.17829,-4.29851 -0.20166,-8.57911 -0.20166,-12.88635c0,0 0,-1.69324 1.46888,-2.14196c0.85758,-1.75759 1.92998,-3.11414 3.13457,-4.78359c0.02281,-0.41458 0.15784,-0.79926 0.37525,-1.12415l1.66008,-2.56558c0.33135,-0.66891 0.60642,-1.2214 0.70772,-1.38435c1.88358,-3.03013 4.058,-5.90569 6.28627,-8.73638c2.4068,-4.11284 5.06538,-8.10923 7.49987,-12.04135c1.00279,-1.61968 2.44557,-2.95974 3.31742,-4.65349c1.74014,-3.38062 2.04474,-7.81822 4.10215,-10.97779c0.95558,-1.46747 2.4992,-2.52379 3.32279,-4.06921c1.44211,-2.70603 2.54195,-5.21779 4.30059,-7.76673c0.89549,-1.39292 2.0767,-2.58062 3.07291,-3.90339c1.48518,-1.97201 1.90568,-4.68514 2.99306,-6.86622c0.92026,-1.84588 1.91584,-3.66181 2.97794,-5.43766c-0.18869,-0.88933 0.30116,-1.70576 0.30116,-1.70576c2.52904,-4.19183 4.14397,-8.81646 5.81483,-13.41131l0.63392,-1.74327c0.06459,-0.49587 0.32015,-0.88517 0.58096,-1.16297c0.2418,-0.30163 0.59796,-0.61404 1.09071,-0.74453c4.39423,-2.24498 9.42628,-3.55448 13.62605,-6.09426c4.53544,-2.74278 7.26349,-6.83944 10.011,-11.14986c0.14831,-0.43643 0.30073,-0.87148 0.45736,-1.3051c0,0 0.03346,-0.09199 0.10559,-0.23063c0.18947,-0.39896 0.54067,-0.90476 1.15721,-1.13742c0.3836,-0.16114 0.86526,-0.21245 1.4591,-0.03157c0.6014,0.15389 0.98634,0.44791 1.23044,0.78486c0.406,0.51906 0.44339,1.13368 0.39807,1.57302c-0.01036,0.15594 -0.02956,0.25193 -0.02956,0.25193l-0.02687,0.09343c-0.03296,0.14639 -0.0649,0.23423 -0.0649,0.23423c-0.00382,0.01043 -0.00764,0.02085 -0.01146,0.03128l-0.40484,1.40777c-0.06539,0.10274 -0.13079,0.20538 -0.19622,0.30791c-3.84976,11.48452 -4.65846,24.06327 -4.65202,36.08412l-0.18148,2.08484c-0.0016,0.29287 -0.05926,0.56015 -0.12302,0.76711c-0.06392,0.21333 -0.16871,0.47608 -0.33847,0.72662c-2.91156,5.12338 -7.59027,8.91988 -11.26177,13.4415c-1.04649,1.28881 -1.8233,2.63937 -2.73348,3.94405c0.26696,0.97402 -0.33965,1.88394 -0.33965,1.88394c-2.27585,3.41342 -5.19339,6.88652 -7.11297,10.45838c-2.00183,3.72491 -4.24623,8.57234 -7.08206,11.79351c-1.68207,1.91063 -4.17305,2.92741 -5.55169,5.26424c-2.11651,3.58755 -4.71015,7.18387 -7.70022,10.19185c-1.42829,1.55444 -2.66025,3.21514 -3.99692,4.80541c-2.81885,5.44774 -6.36298,10.29622 -10.58718,14.77781c-3.63878,3.86049 -8.31633,6.37062 -10.95601,10.95453c-1.1228,3.6781 -3.77578,6.72214 -7.57036,2.1343z" fill="#f0bcd4"></path><path d="M197.09318,281.86127c1.28697,-0.86017 4.67597,-1.17503 6.06856,-1.85654c1.6759,-0.82016 2.0326,-2.10108 4.33155,-2.10108c2.24201,0 2.52454,1.21338 3.67879,2.11516c1.21862,0.95207 3.3876,1.11008 4.58678,2.04515c1.0007,0.7803 1.81866,1.69304 2.52663,2.63765c1.4371,0.43058 2.69396,1.54937 3.63956,2.15354c0.88538,0.56569 2.05398,0.28525 3.04456,1.11313c1.4281,1.19354 0.62301,5.99137 -0.70303,7.65553c-0.49928,1.19384 -2.62786,1.04217 -4.04999,1.47917c-4.49337,1.38077 -8.76096,1.28843 -13.54597,3.18397c-0.89287,0.3537 -5.05418,2.48791 -6.22149,1.6738l-0.35725,-0.31957c-2.45933,-0.53515 -5.6074,-2.38879 -7.76661,-3.98425c-0.51977,0.07548 -1.0765,0.04919 -1.65058,-0.11293c-2.37351,-0.67026 -3.86198,-4.6173 -2.23206,-5.70668c0.01776,-0.01187 0.03577,-0.02368 0.05402,-0.03544c0.6294,-1.76938 2.04754,-2.41662 3.15614,-4.01971c0.42073,-0.60839 1.42689,-2.77967 2.62725,-2.83278c0.51164,-0.02264 1.17046,-0.97805 1.92923,-1.46888c0.20334,-0.74736 0.50716,-1.36743 0.88393,-1.61925z" fill="#baafcc"></path><path d="M290.36368,279.65c3.95949,0 6.50084,4.83245 9.28974,7.08654c0.52872,0.42733 1.20792,1.92148 1.70186,2.00051c1.74656,0.27945 4.90561,1.10313 6.32805,2.05878c1.06691,0.71678 1.4855,2.46647 0.84631,3.58504c-0.37277,0.65234 -1.03402,1.01317 -1.79219,1.18626c-0.23415,0.74265 -0.60191,1.34529 -1.05412,1.6037c-1.53793,0.87882 -3.9921,-0.1855 -5.57979,-0.1875c-5.25842,-0.00663 -12.88995,0.78772 -18.77372,-0.78555c-2.08395,0.07344 -4.16572,0.12524 -6.2435,0.11888c-3.36479,-0.01029 -8.41909,2.57601 -10.08849,-0.34546c-0.36372,-0.21466 -0.66834,-0.51879 -0.88359,-0.88212c-4.71196,-4.01886 1.27186,-7.93288 1.58992,-9.02242c0.17615,-0.60343 0.72319,-2.13659 1.5364,-2.18176c0.39131,-0.25403 0.85814,-0.40157 1.35944,-0.40157c0.02735,0 0.0546,0.00044 0.08174,0.00131c1.20033,-3.70984 5.14385,0.33059 5.26476,0.33417c0.92139,0.0273 7.26137,-3.57803 9.0296,-4.20719c1.31177,-0.46674 6.5389,-1.44371 7.38555,0.03792z" fill="#baafcc"></path></g><path d="M281.91583,100.8759c0.36231,1.22884 0.81615,3.05521 0.76666,4.80073c0.13243,0.11001 0.26628,0.21969 0.40158,0.32911c1.04095,0.84186 2.37728,1.4017 3.14403,2.49914c4.16691,5.964 0.27221,10.6481 -3.732,14.70092c1.30727,1.98696 2.72953,3.89764 3.16378,6.3148c0.22112,1.23082 0.17513,2.51048 0.02139,3.75152c-0.14802,1.19485 -0.32528,2.44562 -0.91885,3.49311c-2.6178,4.61971 -5.67699,3.22914 -10.02028,3.03166c-2.41114,-0.10963 -5.26401,0.2637 -7.64977,-0.45316c-0.90358,-0.2715 -1.58095,-1.06639 -2.46999,-1.38228c-1.88807,-0.67087 -3.92919,-0.88475 -5.91286,-1.12177c-0.65321,0.07387 -1.18108,-0.16044 -1.56954,-0.44964c-0.41647,-0.24741 -0.83591,-0.64471 -1.01888,-1.27639l-0.97459,-1.72108c-0.26686,-0.46034 -0.61707,-0.75439 -1.02463,-0.93148c-0.00148,0.00118 -0.00295,0.00235 -0.00443,0.00353c-3.53753,2.81355 -10.98161,3.0335 -15.26188,3.9203c-1.95148,0.40431 -3.9669,0.77274 -6.01278,1.1447c-0.34202,0.1404 -0.6856,0.28002 -1.03109,0.41822c-5.49305,2.28827 -11.16848,4.27231 -16.49862,6.92404c-0.03615,0.01799 -0.07226,0.03615 -0.10833,0.0545c-1.14847,1.01123 -2.24531,2.06846 -3.19228,3.09553c-2.42079,2.62554 -4.77086,5.68527 -8.50413,6.69434c-2.12681,0.57486 -4.8618,0.61561 -7.54069,0.38339c-0.2588,0.27836 -0.53657,0.53046 -0.86923,0.70919c-3.12789,1.68055 -7.03688,0.98667 -10.35628,0.65473c-8.4709,-0.04649 -19.02703,-2.55949 -20.98767,-12.31125c-0.71908,-3.57655 0.35107,-5.4806 1.37437,-8.87061l0.81639,-2.99343c-0.4866,-0.50829 -0.982,-1.02295 -1.50067,-1.5416c-2.05054,-2.05046 -2.9572,-1.71751 -4.23995,-4.8706c-0.93939,-2.3091 -1.06816,-8.09851 0.08294,-10.34111c0.13573,-0.26444 4.32307,-4.60083 4.96318,-5.1425c5.67373,-4.80122 13.17714,-6.9902 20.56516,-7.48294c0.07253,-0.24318 0.14804,-0.39421 0.14804,-0.39421c1.53511,-3.03638 1.79459,-7.13409 3.96572,-9.79579c2.16077,-2.64901 6.3091,-3.49745 9.75206,-4.34122c1.42344,-2.01024 3.04564,-3.87032 5.00081,-5.39839c1.68601,-1.3177 3.98479,-1.56127 5.97245,-2.35385c2.32888,-0.92864 4.3673,-2.52085 6.73114,-3.35652c2.02116,-0.71453 9.47711,-3.02305 11.02142,-0.62403c0.53197,0.82639 0.72635,1.88809 0.65249,2.95109c1.57388,-0.49656 3.11524,-1.16461 4.73953,-1.43097c2.56247,-0.4202 7.33243,-0.35291 10.03925,-0.01355c6.3241,0.79286 10.84835,3.91612 15.52788,7.25511v-2.10717c0,-1.38071 1.11929,-2.5 2.5,-2.5c0.69036,0 1.31536,0.27982 1.76777,0.73223l3,3c5.14988,5.15949 13.08747,8.90252 15.2814,16.34367zM220.20136,85.71749c-0.6558,0.13311 -1.29759,0.27991 -1.92915,0.43627c2.18346,-0.25113 4.38397,-0.57735 6.55928,-0.96955c-1.52725,0.10309 -3.06246,0.21508 -4.63013,0.53328zM241.16061,82.94916c-2.55717,-0.09332 -5.03934,0.2194 -7.50524,0.74737c2.3889,-0.26929 4.94326,-0.56923 7.50524,-0.74737z" fill="#721c67"></path><path d="M248.67386,44.36472h2.8239c3.10179,0.00209 6.57749,-0.29387 9.34998,1.46863c3.68106,2.34011 6.90299,7.45136 8.71373,11.22019c1.23576,2.57207 3.34982,5.77222 2.40956,8.87055v2.60667c0,0.39555 -0.09398,0.76914 -0.26083,1.09969c0.05709,0.36059 0.03516,0.62382 0.03516,0.62382c-0.27109,2.9562 -1.24711,5.33925 -1.9674,8.18594l-0.02383,0.28595l0.72557,0.30233l-1.06433,2.55441c-0.15387,0.39452 -0.4073,0.73924 -0.72939,1.00327c0.3962,2.85574 -2.10386,6.9851 -4.09094,8.65851c-0.4953,0.41711 -1.04709,0.75709 -1.60916,1.08304l-0.49923,0.59l-0.21345,-0.18062c-0.01351,0.00781 -0.02701,0.01564 -0.0405,0.02347c-0.99048,1.42844 -2.37521,2.25639 -5.31304,3.10851l-1.82521,0.61237c0,0 -0.1484,0.04947 -0.38264,0.08582c-0.23371,0.03959 -0.39014,0.03957 -0.39014,0.03957c-0.02135,-0.00064 -0.04272,-0.00126 -0.06408,-0.0019c-0.07361,0.0007 -0.15013,-0.00127 -0.22871,-0.00678c-0.99904,-0.0296 -1.99808,-0.05919 -2.99713,-0.08878l-0.19558,-0.25528l-1.52491,0.12707l-0.97338,0.00545c-0.56108,0.13424 -1.07425,0.00411 -1.46934,-0.17999c-0.40295,-0.14679 -0.84975,-0.41132 -1.15152,-0.88807c-1.86585,-1.81422 -3.91366,-3.39732 -5.88107,-5.05379l-0.05842,-0.02149c-0.00845,-0.00844 -0.07341,-0.07338 -0.18022,-0.18017c-1.29947,-1.10224 -2.55895,-2.24214 -3.70203,-3.50839l-0.02887,-0.15258l-0.05567,0.03897l-1.5034,-2.14771c-0.28881,-0.4013 -0.45891,-0.89375 -0.45891,-1.42593c0,-0.12854 0.00993,-0.25477 0.02904,-0.37795c-0.12938,-0.17553 -0.26248,-0.35315 -0.39996,-0.53302c-1.40153,-1.83374 -3.07788,-3.63732 -3.67924,-5.86562c-0.37656,-1.39536 -0.29356,-5.17745 -0.29432,-6.69124l0.6497,-2.47436c-0.03518,-2.78117 -0.51633,-6.66457 0.32023,-9.29939c2.01583,-6.34907 9.72461,-11.93248 16.23714,-12.36611c0.71186,-0.89508 1.96287,-0.89508 1.96287,-0.89508z" fill="#6390d6"></path><path d="M247.97965,77.67133c-2.96776,1.64748 -6.00465,3.15814 -9.24178,4.38255c-0.27574,-0.00071 -0.83007,0.13453 -1.48131,0.28472c-1.02278,0.37458 -2.0519,0.73688 -3.01709,1.16274c-1.19271,0.52625 -1.99741,1.23389 -2.70472,2.06269c-1.03705,1.6896 -2.01357,3.70864 -3.48106,4.44554c-3.09758,1.55544 -8.24597,1.0827 -11.25355,-0.66576c-0.08247,-0.04122 -0.15044,-0.09332 -0.20072,-0.13877c-0.04898,-0.04407 -0.10593,-0.10412 -0.15453,-0.1789l-0.41147,-0.55141c-2.28548,-2.2758 -5.96202,-6.10696 -9.43341,-6.07473c-0.75317,0.00699 -2.88237,-0.38509 -3.55314,0.18567c-1.04827,0.89199 -1.32168,1.66993 -2.01612,2.39442l0.20444,0.25556l-0.82867,0.66293c-0.12907,0.10508 -0.29377,0.16808 -0.47319,0.16808c-0.41421,0 -0.75,-0.33579 -0.75,-0.75v-0.83333c0,-3.42801 0.87451,-5.10173 2.40317,-8.15011c-0.82055,0.58436 -1.63583,1.12224 -2.38272,1.34966c-2.8195,0.85848 -2.46951,-2.76582 -2.02045,-4.46608v-0.23346c0,-4.33771 2.44004,-8.24902 5.48917,-11.33952l-0.05702,-0.03258l0.65944,-1.15403c0.12732,-0.23272 0.37443,-0.39054 0.65841,-0.39054c0.41421,0 0.75,0.33579 0.75,0.75c0,0.0765 -0.01145,0.15033 -0.03274,0.21986c1.72481,-1.22323 3.61933,-2.10645 5.30232,-2.4553c2.00301,-0.39223 3.9704,-0.7151 5.93094,-0.97503c3.92015,-3.01264 8.4834,-5.50154 12.21595,-8.84838c1.13827,-1.02064 1.63402,-2.28587 2.69137,-3.35449c4.65412,-3.12078 8.95496,-6.0415 14.399,-5.96782c0.067,-1.80011 0.63244,-2.79692 1.96406,-3.41734l-0.10677,-0.17795l0.82276,-0.49366c0.11502,-0.07176 0.25089,-0.11322 0.39644,-0.11322c0.41421,0 0.75,0.33579 0.75,0.75c0,0.17941 -0.063,0.34411 -0.16808,0.47319l-0.61212,0.76515c-0.28721,0.66315 -1.30033,1.71429 -1.30315,2.33788c0.37655,0.04817 0.75877,0.11068 1.1471,0.18835l0.38303,0.40686c0.18106,0.08688 0.36571,0.25946 0.38491,0.60226c0.013,0.1064 0.0089,0.23218 -0.04084,0.35591c0.7319,0.3231 1.45254,0.48712 1.95707,0.19958c3.11219,-1.77368 5.03083,-2.57918 8.83541,-2.57918h0.5c0,0 0.02822,0 0.07372,0.00548c0.04569,0.00355 0.07336,0.00909 0.07336,0.00909c2.36378,0.48117 3.3044,1.79888 4.88324,3.37177c1.91185,1.90464 3.72144,3.55618 4.95382,5.65055l0.55523,0.15864l-0.09083,0.31789c1.72992,0.69283 2.0654,2.26986 2.91766,4.46614c0.33067,0.85212 1.15497,1.43043 1.60511,2.20948c2.05609,3.55842 3.44519,7.89476 3.44535,12.06097c0,1.05556 0,2.11111 0,3.16667v0.5c0,0 0,0.00106 -0.00004,0.0031c-0.02482,1.98415 1.26805,4.73665 0.45776,6.74515c-1.44196,3.57423 -5.98392,4.38776 -8.06973,7.14604c-0.23532,0.47065 -0.53037,0.83555 -0.71501,1.23562c1.17204,2.16919 2.01693,4.35514 1.6605,6.82955v0.00001c0.32041,0.53617 0.59094,1.10795 0.72224,1.80379l0.0734,0.25689l0.10728,-0.01789l0.16357,0.98142c0.01097,0.05933 0.01671,0.12048 0.01671,0.18298c0,0.55228 -0.44772,1 -1,1c-0.46471,0 -0.85539,-0.31698 -0.9676,-0.74653l-0.20074,-0.7026l-0.28301,0.37734c-0.18196,0.24818 -0.47566,0.40931 -0.80698,0.40931c-0.35103,0 -0.65982,-0.18087 -0.83825,-0.45449c-0.53197,0.30076 -1.19423,0.28432 -1.95367,-0.30038c-0.27993,-0.21552 -0.35649,-0.55826 -0.36577,-0.93745c-0.16431,0.1184 -0.366,0.18815 -0.58398,0.18815c-0.50194,0 -0.9175,-0.3698 -0.9891,-0.85182l-0.15384,-0.92303c-0.13457,-0.39214 -0.25717,-0.75395 -0.36756,-1.09753c-0.53861,-0.1728 -0.64256,-0.79657 -0.64256,-0.79657l-0.18025,-1.17175c0.02148,-0.04727 0.04295,-0.09454 0.06442,-0.14182l-0.00078,0.00029l-0.0086,-0.02293l-0.03895,-0.00708l0.01185,-0.06517l-0.45621,-1.21657c-0.04629,-0.11518 -0.07176,-0.24097 -0.07176,-0.37271c0,-0.55228 0.44772,-1 1,-1c0.1487,0 0.28982,0.03246 0.41667,0.09068c0.12685,-0.05822 0.26797,-0.09068 0.41667,-0.09068c0.46414,0 0.85443,0.31622 0.96718,0.74497l0.08937,0.31082l0.27432,0.14963c-0.32831,-0.99038 -0.70463,-2.04465 -0.58893,-2.76078v-0.00001c0.01175,-0.07276 0.02749,-0.14417 0.04669,-0.21439l-0.02755,-0.00551l0.21089,-1.05443c0.31896,-0.07634 0.63747,-0.15945 0.95583,-0.24535c-0.60995,-0.58762 -1.21848,-1.21279 -1.90219,-1.60147c-3.29999,-1.87599 -6.88235,-1.23678 -8.79858,-4.86307c-0.06638,-0.09752 -0.1021,-0.20317 -0.12132,-0.28864c-0.02015,-0.08148 -0.03504,-0.18631 -0.02239,-0.29777v-0.874c0,-0.30369 0.00122,-0.6274 0.00597,-0.96586c-2.6605,1.00864 -5.41256,1.68418 -8.04298,2.65386z" fill="#111732"></path></g><g fill-opacity="0.37255" fill="#2e1340" stroke-width="0.5"><path d="M191.1891,94.71463c0.92553,-1.63759 6.60106,-1.94654 8.19497,-1.51485c5.48796,1.48636 10.93462,7.59964 14.69279,11.43814c0.62568,0.63906 1.19757,1.36307 1.95691,1.83559c0.60033,0.37357 1.74389,0.0082 2.04105,0.62649h2.07518c0.24522,0 0.48294,0.0321 0.70919,0.09232c-0.08307,-0.41499 -0.18598,-0.82509 -0.31969,-1.22756c-2.06606,-6.21864 -6.41647,-12.42146 -10.70909,-17.30387l-0.89577,-0.36285c-0.48924,0.16745 -0.9764,0.28674 -1.42034,0.17462c-0.03817,-0.00964 -0.07627,-0.01951 -0.11429,-0.02959v0.03197h-2.75c-1.35288,0 -2.47758,-0.97692 -2.70716,-2.26381c-0.18734,-0.37164 -0.29284,-0.79159 -0.29284,-1.23619c0,-1.43677 1.10183,-2.61619 2.50662,-2.73938l2.46975,-0.24697l0.02147,0.21471l0.38648,-0.22508c0.06645,0.01334 0.13261,0.02695 0.19847,0.04081c0.05929,-0.02587 0.12019,-0.04765 0.18252,-0.06573c0.53224,-0.24396 1.06448,-0.48792 1.59673,-0.73187c0,0 2.50351,-1.13796 3.64147,1.36555c0.03422,0.07529 0.06515,0.14934 0.09295,0.22216c1.54804,0.43599 3.24843,1.04186 4.0993,1.57651c2.63842,1.65787 4.21863,3.94084 5.55512,6.44067c1.23111,-2.78072 4.22133,-4.44772 6.41706,-6.35073l0.29999,-0.05837l-0.05345,-0.09621l2.20633,-1.22574c0.40543,-0.23548 0.87656,-0.37033 1.37919,-0.37033c0.04544,0 0.09062,0.0011 0.13551,0.00328c1.10425,-0.76359 2.33018,-1.3219 3.5846,-1.57582c1.42536,-3.59514 4.29196,-2.59867 6.45265,-0.59461c1.71043,-1.75141 4.75275,-2.98293 6.581,-4.14019c0.85978,-0.54423 1.52841,-1.44545 2.49773,-1.75499c2.65883,-0.84906 3.9713,-0.6584 5.57526,0.28251c2.17238,-0.29501 4.41984,0.02239 6.76152,1.37741c1.40631,0.81377 3.04144,1.65157 3.75038,3.11353c0.06775,0.13972 0.1291,0.28141 0.18472,0.42484l0.08473,-0.05084l1.47675,2.46124c0.26312,0.42173 0.41515,0.91992 0.41515,1.45362c0,1.51878 -1.23122,2.75 -2.75,2.75c-0.91114,0 -1.71879,-0.44312 -2.2192,-1.1256l-0.98747,-1.31663c-1.5733,-0.12096 -3.78752,-0.26708 -4.9793,-0.82665c-0.44237,-0.2077 -1.54903,-1.49454 -2.70828,-2.4594c-0.54518,0.15104 -1.08365,0.33943 -1.6088,0.54121c-2.41376,0.92743 -4.19767,2.61293 -6.39964,3.83442c-0.6534,0.36246 -1.33541,0.66725 -2.02556,0.95588c-0.03553,1.48521 0.24546,3.081 -0.7251,4.08057c-0.12493,0.12867 -0.25589,0.24919 -0.39209,0.36265l-0.04842,0.11218l0.0619,0.00952l-0.49351,3.20779c-0.04998,0.36562 -0.17183,0.70837 -0.35085,1.01352c3.19974,0.51782 6.39591,1.30275 9.72699,0.88968c1.77274,-0.21983 3.15733,-1.87666 4.92933,-2.10239c0.09462,-0.01205 0.1893,-0.02319 0.28403,-0.03346l-0.01388,-0.05274l4.68956,-1.2341c0.24146,-0.06932 0.49654,-0.10645 0.7603,-0.10645c1.51878,0 2.75,1.23122 2.75,2.75c0,0.87793 -0.4114,1.65977 -1.05193,2.16326l-2.48016,1.98413l-0.05983,-0.07479l-0.13485,0.217c-5.33826,2.92298 -12.06447,5.42346 -18.19933,3.29977c-1.52245,-0.52702 -2.66208,-1.42892 -3.88393,-2.29896c-0.9681,-0.20429 -1.9938,-0.3803 -2.96641,-0.41508c-0.05769,2.96605 -0.27201,6.75017 -1.44954,9.64461c0.96304,2.23946 1.4607,4.91376 2.26005,6.91188c1.49281,3.73158 6.51924,7.4901 10.86056,7.881c0.51,0.00854 1.03862,-0.04476 1.53732,-0.01192c0.06801,-0.00782 0.13569,-0.01668 0.20303,-0.02658c3.00184,-0.44143 5.00765,-2.73921 7.81547,-3.65554c0.81417,-0.26571 1.74874,0.0811 2.56259,-0.18559c1.43627,-0.47064 2.28113,-1.98353 3.40995,-2.98858l0.13246,-0.13917c0,0 1.77258,-1.77258 3.62536,-0.24057c1.23898,-2.22636 1.73878,-5.31244 3.79217,-6.67329c0.11824,-0.07836 0.23817,-0.15353 0.35964,-0.22582l-0.05053,-0.06316l2.48289,-1.98632c0.47326,-0.3853 1.07717,-0.6163 1.73502,-0.6163c1.51878,0 2.75,1.23122 2.75,2.75c0,0.2336 -0.02913,0.46039 -0.08394,0.67695l-0.73648,3.19141l-0.21032,-0.04854l0.02446,0.58942c-1.23327,1.71184 -2.37507,3.44851 -3.56938,5.1262c0.01421,0.01392 0.02827,0.028 0.04218,0.04223c0.68133,-0.35098 2.27151,-0.89465 3.50751,0.80485c1.61747,2.22402 -0.60655,3.8415 -0.60655,3.8415c-0.59827,0.43335 -1.2014,0.85322 -1.80975,1.25968l-0.11112,0.55561l-0.09537,-0.01907c-0.00427,0.15167 -0.01409,0.30351 -0.03017,0.45554c-0.18675,1.76633 -2.42409,3.80644 -3.40263,5.3333c-0.35192,0.54912 -1.25398,1.66657 -0.62892,1.85281c0.61063,0.18194 1.27256,0.07039 1.9074,0.12466c0.84273,0.07203 1.6831,0.16945 2.52465,0.25417l0.17952,0.105l0.01591,-0.06362l2.94419,0.73605c1.22463,0.27791 2.13883,1.37312 2.13883,2.68184c0,1.03203 -0.5685,1.93128 -1.40942,2.40168l-2.95494,1.72371l-0.0595,-0.102c-0.19606,0.13624 -0.39848,0.26387 -0.60845,0.38131c-1.28005,0.71594 -5.18742,-0.17897 -6.60079,-0.43151l-1.50783,-0.14938c1.18312,3.25807 2.62395,6.33391 2.64092,9.9262c0.00558,1.1799 0.42249,2.44402 -0.0153,3.53971c-0.0365,0.09134 -0.07435,0.18198 -0.11348,0.27197l0.06774,0.01452l-0.73888,3.44811c-0.09124,0.47263 -0.30349,0.90215 -0.60323,1.25503c0.13159,-0.01933 0.2662,-0.02934 0.40316,-0.02934c1.43677,0 2.61619,1.10183 2.73938,2.50662l0.24697,2.46975l-0.01556,0.00156c0.00707,0.0196 0.01405,0.03925 0.02094,0.05894c0.32401,0.92538 0.44655,2.15736 0.47129,3.48541c0.01164,0.10171 0.02267,0.20343 0.03312,0.30514c0.11994,-0.09266 0.23706,-0.1874 0.34722,-0.28681c2.09548,-3.58189 4.02636,-7.26086 6.57536,-10.5251l0.97318,-1.93036c2.00218,-3.33596 3.99805,-6.59478 6.04694,-9.82544c1.37754,-2.1721 3.45542,-3.93338 4.62736,-6.28996c2.01,-4.0418 3.06835,-8.58735 4.94957,-12.64916c0.71472,-1.54317 2.5069,-3.58139 3.52174,-4.95378c2.36985,-3.20478 3.80454,-6.24188 6.59661,-9.13568c0.45866,-1.49146 0.92036,-2.97155 1.66019,-4.46886c3.06403,-6.20118 7.01415,-12.11257 10.59738,-17.92675c2.92149,-4.74044 4.23427,-10.69952 6.62583,-15.75265c0.14232,-0.55282 0.47453,-0.97777 0.7905,-1.27486c0.29053,-0.309 0.70336,-0.63354 1.23847,-0.78081c9.044,-4.51725 18.24376,-11.053 23.62154,-19.73469c0,0 0.03775,-0.0604 0.11082,-0.15569c0.31361,-0.4579 0.83551,-0.98476 1.62968,-1.13271c0.49838,-0.12206 1.0921,-0.09187 1.76571,0.25285c0.69478,0.29977 1.09618,0.73828 1.31948,1.20025c0.39173,0.70649 0.31792,1.44441 0.16464,1.97782c-0.02692,0.11702 -0.04945,0.1846 -0.04945,0.1846l-0.41228,1.16969c-0.45012,2.22796 -0.69457,4.01594 -1.71352,6.14255c-2.29571,4.79131 -6.59435,8.21237 -9.27177,12.70294c-3.75314,4.18366 -6.64046,8.57238 -9.29329,13.42502c-1.60745,2.94041 -4.19156,4.61815 -5.8415,7.40638c-2.64034,4.46189 -4.45323,9.50199 -7.31369,13.8465c-1.07987,1.64013 -2.87684,2.70716 -4.03191,4.29523c-1.60819,2.21104 -2.7171,5.44928 -3.29821,8.4585c0.08716,0.07218 0.1745,0.15167 0.26184,0.23901c1.94454,1.94454 0,3.88909 0,3.88909l0.00546,-0.04454c-3.41753,4.54867 -5.42708,9.84099 -8.70936,14.44438c-5.34557,7.49715 -11.44805,14.12224 -17.73246,20.78438c-2.33173,2.47188 -3.97763,5.42956 -6.22413,7.97196c-0.52031,0.58885 -0.99673,1.37977 -1.60374,1.88207c-0.96685,2.85519 -1.79686,5.76313 -2.8392,8.68844c-1.03362,2.90084 -2.57972,5.19725 -2.85048,8.3056c-0.01117,0.12825 -0.12099,3.99589 0.21666,4.34147c0.73251,0.7497 2.78749,0.20155 2.88752,1.24492c0.05973,0.62305 -0.00884,1.23295 -0.15523,1.83489l0.51606,0.09383l-0.49142,2.70282c-0.21258,1.30729 -1.34686,2.30524 -2.71422,2.30524c-0.83082,0 -1.57558,-0.36843 -2.07983,-0.95082l-1.73976,-1.9883l0.04387,-0.03839l-0.15782,-0.10077c-0.46516,-0.7187 -0.86385,-1.45003 -1.19828,-2.19059c-1.36108,-0.13907 -1.9399,-1.02044 -2.18605,-1.74492c-0.11765,-0.30614 -0.18213,-0.63865 -0.18213,-0.98622v-1.87858c-0.0075,-0.0062 -0.01497,-0.01243 -0.02241,-0.01871c-0.17313,1.3522 -1.32831,2.39729 -2.72759,2.39729c-0.6291,0 -1.20886,-0.21124 -1.67222,-0.56667l-1.86467,-1.3985c-3.02882,-1.66932 -6.51095,-2.04492 -8.17955,-5.56862c-0.68544,-1.4475 -0.82554,-3.1055 -1.02017,-4.69523c-0.13411,-1.09533 -0.4128,-2.30397 0.04002,-3.3103c0.07412,-0.16472 0.15367,-0.3263 0.23795,-0.48512l-0.07981,-0.03326l1.22549,-2.94118c0.15041,-0.38566 0.38536,-0.72902 0.68207,-1.00732c-0.50368,0.00635 -0.87459,-0.09962 -0.87459,-0.09962l-1.93431,-0.55976c-1.35421,-0.66892 -3.16892,-0.78914 -4.06264,-2.00676c-1.43489,-1.95492 -0.37252,-6.78054 0.14391,-9.4774c-6.4722,-1.1984 -7.28198,-8.61141 -10.7638,-13.10148c-0.35379,-0.45623 -0.89513,-0.76954 -1.39912,-1.10275c-0.16268,0.92302 -0.84729,1.81839 -1.05743,2.75789c-0.11144,0.49821 -0.19706,1.00967 -0.26165,1.53113c2.60856,5.30725 5.31966,11.45901 5.09053,17.31496c-0.07327,1.87273 0.08024,4.72805 -1.58506,6.06659c-0.46662,0.85408 -1.37313,1.43341 -2.41494,1.43341c-0.61555,0 -1.18386,-0.20224 -1.64211,-0.54389l-1.68629,-1.22639c-0.81915,1.92393 -2.49953,3.7927 -4.46219,4.00489c-0.00216,0.00023 -0.00433,0.00046 -0.00649,0.00069c-2.59704,4.01068 -8.33598,3.61265 -10.39021,-0.90134c-0.61779,-1.35755 1.20025,-2.73237 1.87016,-4.06498c0.16461,-0.32745 0.86462,-1.22035 1.27691,-2.13989c-0.13736,-0.28135 -0.29145,-0.55364 -0.47008,-0.8127c-1.08898,-1.57931 -2.96082,-2.56074 -3.89624,-4.23557c-3.96553,-7.1001 -4.02422,-16.40148 -1.13748,-23.76038c-0.14572,0.025 -0.29103,0.05068 -0.43573,0.07725c-2.34058,2.74211 -3.15871,6.24384 -6.81665,8.07492c-1.02981,0.5155 -2.24722,0.52102 -3.33885,0.88788c-1.64587,0.55313 -6.51637,2.96653 -7.55233,3.17599c-0.00171,0.00035 -0.00342,0.00069 -0.00513,0.00104l0.00039,0.00094l-2.94323,1.22635c-0.34066,0.15119 -0.71775,0.23519 -1.11446,0.23519c-0.58111,0 -1.12012,-0.18024 -1.56418,-0.48787c-0.61071,0.15855 -1.24119,0.30299 -1.8965,0.43447l-2.28932,0.0534c0,0 -2.75,0 -2.75,-2.75c0,-2.75 2.75,-2.75 2.75,-2.75l1.21068,0.0534c7.95918,-1.58634 12.74939,-7.74893 19.35078,-11.48495c-2.59224,-0.01915 -5.14137,-0.17211 -7.5386,-0.61016c-5.2101,-0.95206 -8.62027,-3.83606 -13.96413,-2.0799c0,0 -2.03608,0.62649 -3.07556,-1.01538c-0.6687,-0.03555 -1.33689,-0.08748 -2.00838,-0.15429c-0.00516,0.00086 -0.01031,0.00174 -0.01546,0.00264c-2.96549,0.51532 -5.93088,1.16602 -8.78268,2.13658c-0.12395,0.19747 -0.28255,0.39703 -0.48212,0.5966c-0.60989,0.60989 -1.21978,0.83721 -1.76968,0.86194c-0.82995,0.78942 -1.49978,1.77279 -1.97253,2.80734l-0.21296,2.12956c-0.12319,1.40478 -1.30261,2.50662 -2.73938,2.50662c-1.46702,0 -2.66574,-1.14872 -2.74575,-2.59575c-0.50425,-0.76666 -0.50425,-1.65425 -0.50425,-1.65425v-0.25c0.00069,-0.75888 -0.04967,-3.95896 0.15012,-5.49943c-0.01683,-0.31186 -0.03295,-0.64071 -0.04908,-0.98916l0.52364,-0.33103l-0.02861,-0.0159l0.20782,-0.37407l-0.25388,-0.19041l0.21839,-0.29118c-0.71818,-0.43918 -1.67008,-1.37345 -1.15241,-3.09902c0.79021,-2.63402 3.42423,-1.84382 3.42423,-1.84382c1.5392,0.46176 3.02344,1.15254 4.60913,1.41317c1.92221,0.31595 4.07489,0.03966 6.24114,-0.38627c0.94524,-1.12485 2.56162,-0.85546 2.56162,-0.85546c0.27105,0.04536 0.53998,0.0887 0.80715,0.12991c1.30663,-0.28434 2.5755,-0.53791 3.75594,-0.65729l0.03997,0.01232l-0.0011,-0.01538l3.47169,-0.24798c0.07396,-0.00597 0.14875,-0.00901 0.22424,-0.00901c0.88884,0 1.6792,0.42169 2.18191,1.07592l0.44846,-0.1848c0,0 1.51309,-0.50436 2.61875,0.40743c0.97688,-0.75781 2.2902,-0.49515 2.2902,-0.49515l1.43425,0.2935c5.33661,1.45587 10.5527,3.08232 15.98748,3.68443c4.95797,-0.4682 9.70532,-1.65246 14.37951,-3.20925c0.00312,-0.29348 -0.04359,-0.57944 -0.1646,-0.854c-0.97202,-2.20541 -2.77103,-2.3236 -4.53194,-3.93875c-1.62019,-1.48607 -2.68738,-2.82348 -3.83857,-4.00085c-1.51345,-0.9607 -3.01301,-1.94507 -4.51036,-2.91476l-2.87057,-0.38274c-1.01021,-0.1191 -1.8528,-0.78577 -2.22281,-1.69508c-0.80329,-0.286 -1.51087,-0.55458 -1.93245,-0.71667c-1.61687,-0.62164 -3.44955,-0.57991 -5.04026,-1.26573c-3.93603,-1.69699 -6.48608,-5.00733 -10.74793,-6.41313c-1.61154,-0.41491 -3.27859,-0.66261 -4.94256,-0.71002l-2.05873,1.02937l-0.47637,-0.95274l-2.98438,0.10102c0.34245,-0.71154 0.6849,-1.42308 1.02735,-2.13463c-0.91559,-0.44638 -1.54643,-1.38618 -1.54643,-2.47333c0,-1.01085 0.5454,-1.89431 1.35798,-2.37217l4.45804,-2.72435l0.09136,0.14949c0.70408,-0.56141 1.44066,-1.07705 2.22332,-1.52565c0.5846,-0.33508 1.13978,-0.86836 1.70613,-1.33528c0.09426,-0.42569 0.24266,-0.83156 0.45226,-1.20243zM245.01349,131.35417c0.07883,-0.0134 0.1577,-0.02688 0.23658,-0.04043c-0.05167,-0.00963 -0.10333,-0.01929 -0.15501,-0.029c-0.02712,0.02366 -0.05431,0.0468 -0.08157,0.06943zM227.80395,120.65119c-0.03376,-0.2494 -0.06341,-0.50403 -0.08881,-0.76215c-0.24403,-0.06255 -0.47498,-0.15774 -0.68791,-0.28065c-0.10138,0.17384 -0.22129,0.33555 -0.35701,0.48243c0.3762,0.19046 0.75413,0.37727 1.13373,0.56037zM232.97304,128.98295c0.01525,0.05231 0.03,0.10484 0.04422,0.15757c0.07929,-0.03059 0.15857,-0.06124 0.23785,-0.09197c-0.09417,-0.02138 -0.1882,-0.04323 -0.28207,-0.0656zM275.18461,177.98543c0.08177,-0.23648 0.1626,-0.47272 0.24265,-0.70872c-0.09076,0.03657 -0.18392,0.06844 -0.27918,0.09531c0.00703,0.17311 0.01978,0.38003 0.03653,0.61341zM268.11153,136.16117c-0.06907,-0.13795 -0.13048,-0.27616 -0.18464,-0.41458c-0.04122,0.06846 -0.08275,0.13665 -0.12458,0.20456l0.11404,0.28509c0.06525,-0.02789 0.13047,-0.05282 0.19519,-0.07507zM228.06594,139.39382l-0.14483,0.0395c0.26384,-0.06642 0.52728,-0.12004 0.78926,-0.15777l0.38575,-0.38575c-0.29958,0.23505 -0.64918,0.40926 -1.03018,0.50402zM227.22155,139.63723c0.11401,-0.03745 0.22811,-0.07302 0.34224,-0.10646l-0.29679,0.08094c-0.01506,0.00864 -0.03021,0.01715 -0.04544,0.02551zM268.9,160.975c-1.51878,0 -2.75,-1.23122 -2.75,-2.75v-2.5c0.00236,-1.98461 0.38429,-4.87512 -0.94682,-6.59577c-1.99678,-2.58111 -5.63943,-3.18081 -7.5638,-5.67065c-0.00556,0.00081 -0.01112,0.00161 -0.01669,0.0024c-1.66115,0.23667 -4.18085,-1.41547 -6.32101,-2.38931c-0.26968,-0.00117 -0.53412,0.00465 -0.79059,0.01866c-0.36264,1.09482 -1.39463,1.88467 -2.61109,1.88467c-0.2267,0 -0.44699,-0.02743 -0.65773,-0.07915c-0.07582,0.62201 0.15837,1.43696 0.81166,2.49363c0,0 0.92678,1.6682 -0.15341,2.99731c1.65965,1.88923 2.79464,3.89474 3.68179,6.04237l0.21508,-0.17207l1.44069,1.80087l1.28273,-0.71263c0.40543,-0.23548 0.87656,-0.37033 1.37919,-0.37033c1.51878,0 2.75,1.23122 2.75,2.75c0,0.50262 -0.13484,0.97375 -0.37033,1.37919l-1.17581,2.11647c-0.60245,2.57302 -1.66349,3.22038 -0.4704,6.07327c0.91601,2.19033 4.37094,2.87708 5.85486,4.64182c1.61594,1.92174 2.0405,4.22376 2.21931,6.59918c0.21613,0.07575 0.42682,0.14704 0.62996,0.20973c1.4836,0.45783 2.87145,1.30616 4.13992,2.3465c-0.17073,-2.94796 -0.32808,-5.90152 -0.32751,-8.86615c0.00041,-2.12436 -1.175,-4.4925 -0.41678,-6.41456c-0.01773,-0.06212 -0.03575,-0.12416 -0.05407,-0.18611l0.18276,-0.39934h-0.21191v-2.5c0,-0.67857 0.24577,-1.29974 0.65316,-1.77934c-0.13159,0.01933 -0.2662,0.02934 -0.40316,0.02934zM241.49745,141.67908c0.04791,0.00485 0.09563,0.01011 0.14315,0.01586c0.00364,-0.01799 0.00735,-0.03597 0.01114,-0.05392c-0.05144,0.01256 -0.10287,0.02525 -0.15429,0.03806z"></path><path d="M202.76585,296.46827c0.39601,0.47644 0.63415,1.08877 0.63415,1.75672c0,1.51878 -1.23122,2.75 -2.75,2.75c-0.10496,0 -0.20854,-0.00588 -0.31044,-0.01733l-2.46319,-0.24632l0.05157,-0.51568l-1.16784,0.15223c-1.52476,-1.94079 -3.05537,-3.73029 -3.91805,-5.83079c-0.63687,0.34448 -1.35314,0.67231 -2.17072,1.0112c0,0 -0.06463,0.02585 -0.17745,0.05905c-0.52358,0.18543 -1.25543,0.3033 -1.98424,-0.04551c-0.47477,-0.19502 -0.93685,-0.5692 -1.27763,-1.24471c-0.38479,-0.65145 -0.45044,-1.24239 -0.3584,-1.74734c0.09967,-0.80181 0.59384,-1.35433 1.03251,-1.69505c0.08883,-0.07706 0.14547,-0.11752 0.14547,-0.11752l1.82298,-1.30037c0.17891,-0.11926 1.19432,-0.79203 2.21119,-1.47386c0.18647,-0.37961 0.37072,-0.84154 0.58064,-1.41879l0.1524,-0.11433l-0.07273,-0.04041l1.22332,-2.20198c0.41441,-0.78072 1.19395,-1.33798 2.11098,-1.44412c0.09545,-0.24972 0.22626,-0.48196 0.3863,-0.6906l0.66322,-0.8843c0.49749,-0.87637 1.0302,-1.74195 1.56858,-2.59691c0.12293,-1.33405 0.25092,-2.67128 0.32032,-2.89611c0.29619,-0.95951 1.01964,-1.73771 1.44251,-2.64709c0.22046,-0.88354 0.44011,-1.76731 0.68659,-2.64378c1.07821,-3.8341 2.51882,-7.56315 3.91178,-11.29979c0.36408,-1.4334 0.70455,-2.8972 1.08542,-4.33586c-0.22206,-0.62807 -0.37053,-1.28813 -0.47256,-1.92268c-0.24725,-1.53773 0.33591,-3.09682 0.49335,-4.64632c0.45809,-4.50839 1.25863,-9.76227 3.43716,-13.74198c0.06713,-0.25376 0.13426,-0.50751 0.20139,-0.76127c0.15797,-2.91865 0.62289,-5.84623 0.8842,-8.66101l0.13341,-0.18515l-0.08994,-0.02248l0.73605,-2.94419c0.27791,-1.22463 1.37312,-2.13883 2.68184,-2.13883c0.25534,0 0.50255,0.0348 0.73716,0.09992c0.2349,-1.0575 0.42666,-2.13899 0.51888,-3.28204c0.16875,-2.09157 -0.4392,-4.60475 1.32553,-6.37696c0.09681,-0.09722 0.1966,-0.19057 0.29906,-0.28044l-0.08063,-0.06047l1.4432,-1.92426c0.00482,-0.2254 0.00713,-0.45065 0.0068,-0.67574c0,0 0,-2.75 2.75,-2.75c2.75,0 2.75,2.75 2.75,2.75c-0.00914,7.05761 -2.39913,14.16326 -3.5,21.15867v3.09133c0,1.11328 -0.66153,2.07205 -1.61294,2.50466c0.05945,1.03686 0.11294,2.049 0.11294,2.99534v2.25c0,0 0,0.00004 0,0.00011c-0.00165,1.36117 -0.63216,2.87301 -0.00963,4.08347c0.3191,0.62046 1.11931,0.84699 1.58713,1.36462c1.63517,1.80931 1.77112,2.45409 2.92185,4.46974c0.56184,0.98413 1.72838,1.8575 2.12778,2.86563c0.01505,0.01056 0.02287,0.01643 0.02287,0.01643c0.99929,0.98583 2.72962,1.57964 2.99786,2.9575c0.85449,4.38907 -2.40759,5.45132 -4.84606,7.57c-1.5421,1.33987 -2.63651,3.12126 -3.94506,4.69002c-2.73897,3.28363 -5.47896,5.65586 -7.04294,9.66337c-0.00768,0.81203 0.12184,1.4022 0.21586,1.94147c0.04227,0.01041 0.08445,0.02082 0.12654,0.03123l0.18755,0.19016l0.04421,-0.09726l2.69327,1.22421c0.98126,0.42002 1.66878,1.39437 1.66878,2.5293c0,1.51878 -1.23122,2.75 -2.75,2.75c-0.10496,0 -0.20854,-0.00588 -0.31044,-0.01733l-2.46319,-0.24632l0.01516,-0.15156c-0.28104,0.00615 -0.56286,-0.01373 -0.84565,-0.06618c-1.28744,-0.23878 -2.14378,-0.73511 -2.71482,-1.38887c-1.65265,-0.1554 -3.19059,-0.04472 -4.72603,0.22844l-0.09868,0.27136c-0.06444,0.19103 -0.14929,0.37266 -0.25196,0.5423c-0.44953,3.09699 -0.85814,6.16501 -0.85438,9.32816l-0.28702,0.91887c-0.03177,0.25148 -0.09561,0.5357 -0.21646,0.81745zM220.38223,258.16064c0.73381,-0.59497 1.52928,-1.11536 2.33505,-1.60843c0.15397,-0.09422 0.70903,-0.03729 0.53486,-0.08471c-0.20097,-0.05471 -0.41082,-0.05225 -0.62126,-0.04605c-0.22227,0.15581 -0.44121,0.30867 -0.65063,0.4604c-0.44741,0.32416 -1.01991,0.61182 -1.67959,0.85806c0.03771,0.13629 0.0652,0.27683 0.08157,0.42074zM218.66969,252.24524c0.03951,-0.01581 0.07917,-0.03101 0.119,-0.04545c-0.06997,-0.07235 -0.13694,-0.15164 -0.20092,-0.23587c0.02828,0.0944 0.05582,0.1883 0.08192,0.28132z"></path><path d="M287.82257,209.75534c0.41266,-0.71853 1.23782,-1.52354 2.81937,-1.23599c2.70564,0.49193 2.21371,3.19758 2.21371,3.19758c-1.02018,5.59549 -2.1719,11.13768 -4.3521,16.39987l-0.34393,1.14644c-0.32331,4.15773 0.1257,8.27983 -0.273,12.48274c-0.08638,0.91058 -0.23322,1.79486 -0.42384,2.66033c0.42771,0.48474 0.68722,1.12141 0.68722,1.81869c0,0.07054 -0.00266,0.14047 -0.00787,0.20968l-0.23213,3.48196c0.27927,1.60582 0.61449,2.94859 1.02281,4.25629l1.9956,2.19516c0.44814,0.48926 0.72159,1.14115 0.72159,1.85692c0,1.51878 -1.23122,2.75 -2.75,2.75c-0.49537,0 -0.96016,-0.13098 -1.3616,-0.3602l-0.96347,-0.52553c-0.10451,0.37614 -0.24255,0.70308 -0.42249,0.9634c-0.00524,0.00758 -0.96906,0.38007 -2.01908,0.89845c-0.61286,4.19171 -0.08778,8.55377 -0.43896,12.79525c1.15499,-1.28407 2.59653,-2.16963 4.62683,-0.86248c2.58902,1.66686 3.81167,2.94881 4.16549,3.93727c0.84305,0.4698 1.41329,1.37023 1.41329,2.40384c0,1.18042 -0.74373,2.18712 -1.78815,2.5771l-2.44052,0.97621l-0.17375,-0.43437l-0.72517,0.62833c-0.32845,-0.08308 -0.6569,-0.16617 -0.98535,-0.24925c-0.84944,0.31328 -1.88872,0.31499 -2.7568,0.60729c-0.8741,0.29433 -1.63702,0.53945 -2.33567,0.80805c0.44617,2.10028 0.57217,4.22381 -0.22021,5.6456l0.03679,0.0092c1.22463,0.27791 2.13883,1.37312 2.13883,2.68184c0,1.51878 -1.23122,2.75 -2.75,2.75c-0.2043,0 -0.4034,-0.02228 -0.595,-0.06454l-2.44432,-0.48886l0.0232,-0.11599l-0.08571,-0.02143c-3.23536,1.17383 -6.64305,2.63989 -10.1512,2.67971c-1.43194,0.01625 -3.17046,0.46384 -4.27239,-0.45075c-4.70877,-3.90823 -1.82941,-7.43958 0.107,-11.09722c1.30463,-2.46429 2.79796,-5.3975 3.9504,-7.90389c0.6077,-1.32168 1.04451,-2.69824 1.55762,-4.03505c0.17386,-4.78729 0.68396,-9.49559 2.00326,-14.21055c0.38672,-1.38206 0.28776,-3.04595 1.0898,-4.20006l-0.64173,-1.15511c-0.87488,-0.69958 -1.94866,-1.22016 -2.57025,-2.14769c-2.20869,-3.29577 -1.39732,-7.0222 -0.32956,-10.40819c0,0 0.86963,-2.60888 3.47851,-1.73925c0.66185,0.22062 1.09983,0.55318 1.38493,0.92668c0.75588,-0.15375 1.76272,-0.1777 3.09811,-0.04309c0.21875,-3.38757 0.78926,-6.45211 1.7347,-10.03176c0.50796,-1.92325 0.6352,-4.06254 1.76275,-5.7013c0.06705,-0.09745 0.13557,-0.19365 0.20546,-0.28868l-0.03876,-0.02399l0.916,-1.4797c0.04492,-0.16446 0.08374,-0.32834 0.11153,-0.49122c0.74528,-4.36718 1.59791,-8.05842 3.45213,-12.14602l0.80896,-1.05659c0,0 0.55437,-0.55437 1.36711,-0.77511z"></path><path d="M222.24104,107.93682c-1.29685,-3.09881 -2.55406,-6.24249 -3.70263,-9.35037c-0.3608,-0.97628 -0.01087,-2.50956 -1.11109,-3.21788c-1.51829,-0.97748 -3.38346,-1.35388 -4.85938,-2.39422c-2.96254,-2.08821 -3.04954,-3.4356 -6.67342,-4.35516c0,0 -2.64419,-0.75548 -1.88871,-3.39967c0.31844,-1.11455 0.97246,-1.62508 1.62257,-1.84277c1.0414,-2.45568 3.54295,-1.45506 3.54295,-1.45506l1.36663,0.5498c2.77966,1.26487 6.57524,2.02937 9.08927,3.68396c1.3302,0.87546 2.37694,1.9201 3.21869,3.08319c1.3407,-0.18356 2.1072,0.46573 2.52936,1.10517l0.10039,0.0251l-0.01252,-0.66846c3.1012,-3.707 6.55532,-7.71398 11.07568,-9.74099c3.13939,-1.40776 6.44066,-1.09062 9.71009,-1.66159c-0.57884,-3.35428 2.8398,-6.61796 5.76922,-6.99932c1.72525,-0.2246 4.06844,-0.54401 5.1555,0.81438c1.13645,1.42012 1.27197,2.97934 0.86407,4.44603l2.11225,-0.08398c0,0 2.75,0 2.75,2.75c0,2.75 -2.75,2.75 -2.75,2.75l-1.44126,-0.12161c-0.77176,0.23746 -1.54352,0.47493 -2.31527,0.71239c-0.49833,0.70152 -1.31744,1.15922 -2.24346,1.15922h-2.75c-0.91412,-0.01405 -4.57835,-0.4173 -4.92572,1.21725c-0.55486,2.61096 1.33734,7.07994 -1.01538,9.47863c0.3088,0.0639 0.5502,0.11799 0.68278,0.15603c4.39017,1.25947 9.04841,1.47219 13.44015,-0.38597c1.84398,-0.78019 3.61314,-1.76479 5.52796,-2.34995l1.29021,-0.11598c0,0 2.75,0 2.75,2.75c0,2.75 -2.75,2.75 -2.75,2.75l0.29021,-0.11598c-3.04799,0.89322 -5.50496,2.50447 -8.63873,3.28769c-5.65538,1.41344 -10.26919,0.10635 -15.6908,-0.97512c-1.65654,-0.33044 -5.18144,-0.92255 -6.44032,-1.87326c-1.9309,1.84253 -3.34689,3.69432 -4.68898,5.74411c-0.72736,5.86352 0.91133,12.64415 2.49327,17.96627l0.82624,1.8071c2.62848,1.51461 5.465,2.20861 8.06534,3.83267c1.82715,1.14115 3.69254,2.3297 5.7629,2.92494c1.70544,0.49032 3.39913,0.55881 5.08496,0.57924c0.25833,-0.0554 0.51722,-0.10558 0.777,-0.14709c0.00361,-0.00058 0.00723,-0.00116 0.01084,-0.00173l0.0785,-0.08972l0.03475,0.0304c0.0479,-0.07383 0.09696,-0.14698 0.14728,-0.21942c2.57471,-3.70655 8.62007,-4.75962 12.00198,-7.50923c0.4255,-0.80273 0.84737,-1.56276 1.1759,-2.22069c0,0 0.78617,-1.57233 2.3585,-1.57419c0.17874,-0.23127 0.35531,-0.46534 0.52911,-0.70104l0.83574,-1.67148c0.23785,-0.50174 0.62311,-0.92001 1.09983,-1.19887c0.36195,-0.58984 0.68946,-1.16005 0.97227,-1.69142l0.30533,-1.05278c0,0 0.86963,-2.60888 3.47851,-1.73925c2.60888,0.86963 1.73925,3.47851 1.73925,3.47851l-0.69467,1.94722c-0.45038,0.81028 -0.97675,1.68795 -1.55832,2.58943l0.13461,1.61535l-0.15055,0.01255c0.05047,0.24208 0.08814,0.48717 0.11042,0.73588c0.09092,1.01472 -1.62636,3.45016 -2.60394,4.89673c-0.11201,0.4585 -0.24102,0.90945 -0.39384,1.33806c0.19017,0.37384 0.29738,0.79698 0.29738,1.24515c0,1.18042 -0.74373,2.18712 -1.78815,2.5771l-1.91617,0.76647c-0.0277,0.02789 -0.05574,0.05584 -0.08413,0.08385c-0.78686,0.77634 -1.64141,1.41281 -2.54613,1.94113c1.03175,0.51615 2.05372,1.05859 3.11898,1.49786l2.59296,0.13647c1.45966,0.06654 2.62264,1.27101 2.62264,2.7471c0,1.51878 -1.23122,2.75 -2.75,2.75h-2.5v-0.12777l-0.2604,-0.01371l-0.21673,0.09977c-0.12009,-0.04259 -0.24319,-0.0861 -0.36894,-0.13059l-1.54847,-0.0815l0.00112,-0.02134c-0.01424,0.00643 -0.02859,0.0127 -0.04306,0.01881c-0.88985,0.37549 -1.91644,-0.00353 -2.88685,-0.21045c-0.08158,0.07016 -0.16669,0.13684 -0.25515,0.20016c1.45843,1.9596 2.50302,4.29211 2.97825,6.93287c0.30525,0.37463 0.5737,0.75873 0.61576,1.22262c0.01056,0.11647 0.01843,0.23291 0.02383,0.34933l0.09466,-0.0284l0.73163,2.43878c0.08721,0.26809 0.13434,0.55425 0.13434,0.85143c0,1.51878 -1.23122,2.75 -2.75,2.75c-1.0536,0 -1.96881,-0.59251 -2.43061,-1.4625l-1.22332,-2.20198l0.25443,-0.14135l-0.47858,-0.38443c-0.01683,-0.16593 -0.03614,-0.33106 -0.05789,-0.49533c-0.95234,-1.26766 -1.2237,-4.11441 -1.57894,-4.95188c-0.08761,-0.20653 -0.18353,-0.40885 -0.28582,-0.60795c-0.87902,-1.5074 -2.02463,-2.79855 -3.39241,-3.77656c-1.89739,-0.5505 -4.18271,-1.41072 -5.5021,-1.89557c-0.09568,-0.03516 -0.19077,-0.06988 -0.28528,-0.10417c-0.95539,-0.04686 -1.95657,0.02249 -2.99726,0.22169c-0.39602,0.0758 -1.64097,0.34594 -2.85856,0.68447c-0.86804,0.35936 -1.73643,0.69761 -2.5969,1.00019c-0.06831,0.0556 -0.11679,0.11008 -0.14216,0.16299c-0.17954,0.37439 0.30062,0.78792 0.32539,1.20239c0.03751,0.62743 -0.3298,1.28081 -0.14112,1.88037c0.09311,0.2959 0.24767,0.56418 0.43844,0.81568c0.58818,0.27227 1.01035,0.4755 1.0822,0.56394c0.25049,0.30831 0.40594,0.66523 0.51237,1.04721c0.44761,0.46451 0.80626,0.96223 0.87302,1.58027c0.01709,0.1582 0.0292,0.3164 0.03687,0.47458l0.11611,-0.02903l0.73504,2.94017c0.06328,0.23152 0.09707,0.47521 0.09707,0.7268c0,1.51878 -1.23122,2.75 -2.75,2.75c-1.0536,0 -1.96881,-0.59251 -2.43061,-1.4625l-1.22332,-2.20198l0.19246,-0.10692l-0.3779,-0.3025c-0.00592,-0.2855 0.0627,-0.59728 0.10693,-0.90046c-0.2775,-0.34571 -0.42907,-0.86218 -0.65941,-1.27103c-0.39042,-0.03398 -0.86865,0.07244 -1.20544,-0.10726c-1.38225,-0.73748 -3.24049,-2.34126 -4.37835,-4.0362c-1.31068,5.23022 -1.72327,10.10948 -1.52566,15.80305c0.03035,0.87438 0.02177,1.81631 0.03847,2.77177c0.12821,0.84329 0.26848,1.6849 0.40972,2.52597c0.15086,0.89842 0.81957,1.83791 0.68495,2.69808l1.43492,1.27548c0.57224,0.50395 0.93328,1.24207 0.93328,2.06451c0,1.3716 -1.00416,2.50868 -2.31743,2.71617c-0.84201,2.38721 -2.83445,3.5371 -4.99901,3.69154c-0.13544,0.18325 -0.23902,0.28683 -0.23902,0.28683l-5.94454,-0.69454c0,-0.7155 -0.02586,-1.41005 -0.04252,-2.08488c-0.05551,-0.06314 -0.1098,-0.12737 -0.1628,-0.19265c-0.91465,-0.44672 -1.54468,-1.38602 -1.54468,-2.47248v-2.40679c-0.00463,-0.05119 -0.00939,-0.10237 -0.01427,-0.15353c-0.36163,-0.33314 -0.43788,-0.82296 -0.44095,-1.35334c-0.79887,-1.76809 -1.86768,-3.43426 -2.42715,-5.29065c-0.72477,-2.40487 -0.88691,-5.1605 -1.11481,-7.67108c-0.00444,-4.52176 -0.29035,-8.96129 0.12708,-13.45985l0.19576,-0.14413c0.01308,-0.02653 0.02664,-0.04736 0.04068,-0.0621c0.08075,-0.0847 0.16913,-0.13653 0.26365,-0.16197l0.05131,-0.03778l-0.28942,-0.17365l0.51016,-0.85027l-0.14143,-0.02829c-0.45336,-0.08143 -0.86815,-0.27397 -1.21518,-0.54843c-4.93578,0.06462 -9.94457,-0.07454 -14.47794,-1.24419c-3.04982,-0.78688 -5.44237,-2.88879 -8.2231,-3.81735c-1.15576,-0.38594 -2.7214,-0.52852 -4.24682,-0.57812c-0.57738,1.73151 -2.59758,1.73151 -2.59758,1.73151l-0.72636,-0.01365c-5.18333,0.51111 -10.35322,0.416 -15.41447,1.27372l-1.15148,0.8956c-0.46908,0.3721 -1.06243,0.59433 -1.70768,0.59433c-1.51878,0 -2.75,-1.23122 -2.75,-2.75c0,-0.27252 0.03964,-0.53579 0.11347,-0.78434l0.73343,-2.68923c0,0 0.72357,-2.6531 3.37667,-1.92953c0.54171,0.14774 0.94264,0.37592 1.23771,0.64553c0.70964,-0.03895 1.47183,0.05928 2.1641,0.0104c3.70177,-0.26137 7.30095,-0.29589 10.96949,-0.57371c0.484,-1.92912 2.65512,-1.92912 2.65512,-1.92912c2.71008,0.01096 6.59624,0.05131 9.1556,0.90339c2.71242,0.90303 4.86188,2.91134 7.7769,3.68265c6.83097,1.80747 15.07541,0.91396 22.0675,0.91396l1.36109,-0.22236c0,0 0.12618,-0.01803 0.3281,-0.01915c0.41327,-0.63897 1.08435,-1.09561 1.86603,-1.22272l0.96808,-0.17601c-0.01538,-0.11774 -0.02332,-0.23783 -0.02332,-0.35977c0,-0.02389 0.0003,-0.0477 0.00091,-0.07144c-1.23955,-0.18081 -2.30041,-1.42061 -3.11223,-2.4165c-1.74319,-2.13844 -2.4571,-4.372 -3.15912,-6.77312c-0.83899,0.09894 -1.56284,-0.21128 -1.56284,-0.21128l-2.08159,-0.91954c-2.54229,-1.5323 -4.69315,-3.35737 -7.35209,-4.66734c-1.21308,-0.65557 -2.34809,-1.37984 -3.43455,-2.14664l-1.13034,0.1739l-0.01522,-0.09892c-0.1533,0.0476 -0.30806,0.09116 -0.46446,0.1302c-1.41443,0.35308 -5.52306,-1.51226 -6.58292,-1.99876c-0.68571,-0.31476 -1.36394,-0.63945 -2.03718,-0.97082c-0.54936,-0.09116 -0.99229,-0.37315 -1.31427,-0.65732c-2.8724,-1.45686 -5.68286,-2.99784 -8.63066,-4.36375c-0.99772,-0.46231 -2.27806,-0.50623 -3.02703,-1.31135c-1.29157,-1.38843 -3.16114,-3.09075 -2.79966,-4.95226c0.60524,-3.11682 3.98082,-3.81971 6.6708,-3.82597c0.04347,-0.23031 0.09328,-0.46 0.14779,-0.69025c-0.32828,-0.42958 -1.48191,-2.19346 0.30768,-3.78421c0.6805,-0.60489 1.33596,-0.78421 1.90837,-0.75345c0.48018,-0.22538 1.10021,-0.31027 1.89217,-0.09428c2.23543,0.60966 2.07366,2.58914 1.96733,3.19729c0.03817,0.04294 0.07634,0.08588 0.11451,0.12882l0.38917,0.38246c0,0 1.75155,1.75155 0.26757,3.59229c1.10689,0.63877 2.17446,1.35587 3.24404,2.01942c3.47737,2.1573 6.3242,4.85445 9.41938,7.3212l2.33628,0.93451c0.85995,0.3211 1.51605,1.0603 1.72099,1.97032c0.5135,0.31836 1.04058,0.62454 1.58412,0.91602c2.11752,1.07183 3.92489,2.41015 5.84652,3.68893c0.18061,-2.16303 0.54758,-4.2731 0.88713,-6.46303c-0.36455,-0.78657 -0.41101,-1.67173 -0.40954,-2.5733zM227.24869,97.14686c0.00723,-0.01416 0.01449,-0.02831 0.02176,-0.04246c-0.02293,-0.03947 -0.04491,-0.07957 -0.0659,-0.12026c0.0147,0.05424 0.02942,0.10848 0.04414,0.16272zM237.3408,130.29524c-0.02001,0.09487 -0.0449,0.18793 -0.07441,0.27892c0.26224,0.0204 0.52447,0.04091 0.7867,0.06155c-0.23588,-0.11747 -0.47344,-0.23056 -0.71229,-0.34047z"></path><path d="M295.65,135.225c0,-0.49537 0.13098,-0.96016 0.3602,-1.3616l1.44056,-2.64102c1.19975,-2.60056 2.70822,-4.60007 3.65334,-7.28704c0.80764,-1.77011 1.22206,-3.70873 2.09095,-5.44959c1.83723,-3.68094 4.643,-7.01992 6.49137,-10.73275c0.98828,-1.98516 1.10143,-3.61885 2.41979,-5.54492c0.77572,-1.13329 1.98205,-1.92335 2.77847,-3.0422c1.92479,-2.70404 4.0382,-6.89924 5.22465,-9.99327c0.50347,-1.31294 0.47884,-2.79868 1.03856,-4.08864c1.51477,-3.49105 4.51596,-5.99679 5.9488,-9.6303c0,0 0.0224,-0.056 0.06885,-0.14809c0.04136,-0.09449 0.07024,-0.14743 0.07024,-0.14743l2.39438,-3.72502c1.93679,-0.3585 3.96766,-0.23599 5.85447,-0.80133c1.82994,-0.54831 5.24782,-5.36267 6.35232,-6.16942c0.9288,-0.67842 2.10541,-0.94446 3.08092,-1.55381c3.31655,-2.07168 6.10161,-5.92696 8.69729,-8.78343c0,0 0.02531,-0.02784 0.07325,-0.07404l0.01704,-0.02066c0,0 0.12793,-0.12793 0.35098,-0.28535c0.41737,-0.302 1.09824,-0.65956 1.90032,-0.56679c0.50046,0.05191 1.0452,0.27761 1.59115,0.80625c0.55401,0.5202 0.80537,1.05358 0.88102,1.551c0.13081,0.79676 -0.19395,1.49386 -0.47576,1.92512c-0.14663,0.23029 -0.26834,0.36416 -0.26834,0.36416c-0.38831,0.42697 -0.77855,0.86686 -1.17193,1.31442c-3.0068,9.38832 -8.79048,17.92548 -15.42437,25.28627c-2.80629,2.44483 -3.92771,5.088 -5.42987,8.42602c-2.34264,5.20566 -5.16484,10.49675 -8.18214,15.33967c-1.61498,2.59213 -4.10706,4.10723 -5.9652,6.29583c-1.18091,1.39093 -1.09453,3.50705 -1.97521,5.10506c-1.32706,2.40799 -3.19136,4.57034 -5.00605,6.75491l-0.68346,3.4173l-0.05988,-0.01198c0.00065,0.08536 0.00042,0.17078 -0.00073,0.25626c-0.01986,1.48055 -0.57696,2.83471 -1.40147,4.09609c-0.20312,1.59435 -0.41936,3.18418 -0.95166,4.69133c-0.3989,1.12944 -3.20118,4.14271 -3.98773,5.01742c-3.1636,3.51822 -5.96398,7.62345 -9.38186,10.88686c-1.46881,1.40243 -3.53399,2.26954 -4.59373,4.00192c-1.31192,2.1446 -1.61594,4.84317 -3.08863,6.88072c-0.9869,1.36544 -2.48507,2.28994 -3.56335,3.58443c-3.45033,4.14214 -6.87967,8.30655 -9.17931,13.22856c0,0 -0.55988,1.18976 -1.72805,1.53672c0.19809,2.27035 0.34059,4.52127 -0.00368,6.59627c-0.00111,0.16503 -0.00342,0.33009 -0.00653,0.49517v3.4509c0,0.14288 -0.0109,0.28321 -0.0319,0.42022c0.00525,0.10296 0.01139,0.2059 0.01852,0.3088c0.01347,0.19447 0.0529,0.38627 0.0991,0.57723c0.49341,-0.67779 1.43841,-1.44697 3.03391,-0.91513c2.60888,0.86963 1.73925,3.47851 1.73925,3.47851l-1.87904,3.09005c-1.47856,0.48273 -2.94997,1.90847 -4.43567,1.4482c-2.89014,-0.89536 -3.75624,-4.69758 -4.03078,-7.1369c-0.00947,-0.08417 -0.01829,-0.1684 -0.02649,-0.25268l-0.57638,-0.65871c-3.04046,-0.27569 -5.7024,0.25689 -8.55423,-1.65488c-0.17426,-0.11682 -0.60294,-0.68611 -1.1093,-1.4093c-0.63345,-0.69381 -1.18636,-1.53065 -1.65036,-2.44588c-0.36938,-0.55813 -0.67308,-1.01903 -0.82755,-1.24156c-0.69292,-0.99823 -2.0502,-1.75234 -2.12024,-2.96548c-0.01727,-0.29908 -0.01364,-0.59647 0.00692,-0.89248h-0.15577v-3.5c0,-1.49151 1.1874,-2.70569 2.66847,-2.74881c0.41285,-1.11934 0.69001,-2.25767 0.27935,-2.74704c-2.13432,-2.54335 -5.69206,-1.12989 -7.82072,-4.61424c-1.59679,-2.61375 -0.17516,-5.74478 0.43932,-8.24065c0.29427,-1.19525 0.2078,-2.54141 0.84429,-3.59502c0.60483,-1.00119 1.79286,-1.50283 2.68929,-2.25424c0,0 2.2,-1.65 3.85,0.55c1.65,2.2 -0.55,3.85 -0.55,3.85c-0.87766,0.49936 -1.26062,1.66216 -1.46642,2.65074c-0.2982,1.43243 -1.97761,3.11916 -1.06068,4.25935c1.91902,2.38628 5.57329,1.24159 7.67928,4.38576c0.7633,1.13959 0.88506,2.63399 0.94782,4.00415c0.07868,1.7177 -0.8948,3.3046 -1.40019,4.96271c1.41072,1.44575 2.60086,3.11815 4.14897,4.41496c0.77592,0.64997 2.01957,0.74611 2.593,1.58019c0.10051,0.1462 0.19458,0.29585 0.28312,0.44847l0.0751,-0.05633l0.4112,0.54826c-0.08184,-1.01558 0.00548,-2.11276 0.07388,-3.21521c-0.25054,-2.417 -0.43377,-4.69382 -0.54747,-7.00735c-0.20463,0.04858 -0.41812,0.0743 -0.63761,0.0743c-1.51878,0 -2.75,-1.23122 -2.75,-2.75c0,-0.69835 0.26031,-1.3359 0.68919,-1.82091l1.74123,-1.98997l0.02741,0.02398l0.034,-0.09185c0.23751,-0.23759 0.47479,-0.47554 0.71189,-0.7138c-0.12653,-1.64128 -0.43524,-3.3139 0.0818,-4.84795c0.04716,-0.13993 0.09952,-0.27723 0.15654,-0.41215l-0.05093,-0.01698l0.97995,-2.93984c0.34559,-1.12372 1.39187,-1.94053 2.62893,-1.94053c1.26566,0 2.33162,0.85503 2.65178,2.01897l0.36879,1.22928c2.15822,-2.18063 4.33042,-4.34485 6.54484,-6.45269c0.88781,-0.84508 1.79544,-1.6649 2.71357,-2.47104c1.0583,-2.01699 2.21067,-3.98694 3.46003,-5.88989c1.04767,-1.59575 2.93288,-2.47584 4.14969,-3.94669c1.71246,-2.07 2.28105,-5.28656 3.51047,-7.70399c-0.55243,-0.50299 -0.89915,-1.22798 -0.89915,-2.03395zM306.95924,132.12791c-0.54303,0.66511 -1.0882,1.33032 -1.62274,1.99883c0.47548,-0.47664 0.92936,-0.9716 1.33259,-1.50969c0.11352,-0.15149 0.20851,-0.3158 0.29015,-0.48914zM276.1606,196.54191c0.0199,0.12603 0.03173,0.25276 0.03007,0.38071c-0.00012,0.00949 -0.00094,0.01955 -0.00237,0.03012c0.07708,-0.14592 0.15385,-0.29201 0.23187,-0.43741z"></path><path d="M194.46189,285.53421c-0.31188,-0.66489 -0.31188,-1.30921 -0.31188,-1.30921l0.11598,-1.04021c0.70532,-2.29092 2.3275,-5.98757 4.43277,-6.9887l0.23162,-0.43428c0.09362,-0.38023 0.4846,-1.27612 0.98074,-2.34519c0.36886,-1.15155 0.69323,-2.32226 1.09477,-3.4608c0.50805,-3.69667 0.92672,-7.41474 1.70128,-11.03859c0.46174,-2.16027 1.46949,-4.18039 2.47177,-6.14899c0.1766,-0.34687 0.28354,-0.74557 0.38733,-1.14466c-0.33697,-2.29227 0.22692,-5.00015 0.61008,-7.52824c0.46857,-3.74983 0.59545,-7.73412 2.20646,-11.22766c0.51533,-1.1175 0.82902,-2.5621 1.90246,-3.16386c0.73755,-0.41347 1.59737,-0.91509 2.47548,-1.29486c0.50628,-3.80863 1.17605,-7.58174 2.33248,-11.11735c0.00363,-0.17817 0.0068,-0.35542 0.00992,-0.53199c-0.17908,-2.42154 -0.48888,-5.52379 0.45368,-6.69997c0.14355,-0.17913 0.29661,-0.34803 0.45769,-0.50831l-0.15264,-0.10176l1.47634,-2.21451c0.48965,-0.75818 1.34211,-1.26006 2.3118,-1.26006c0.2753,0 0.54116,0.04045 0.79195,0.11574c0.55526,-0.37843 1.33835,-0.58545 2.39785,-0.20018c2.58443,0.93979 1.64464,3.52423 1.64464,3.52423c-0.9947,2.73542 -2.48662,5.23993 -3.53463,7.84026c-0.1158,0.28734 -0.22727,0.57712 -0.33463,0.8692c-0.17362,5.08466 -0.96683,10.27192 -1.74808,15.27488c-0.35466,2.27117 -0.67522,4.54866 -1.07694,6.81181l0.83387,1.14658l-0.04027,0.02929c0.07922,0.08976 0.15669,0.18125 0.23225,0.27463c1.61594,1.99703 1.71094,4.83653 1.88972,7.39637c2.22564,1.53189 4.42104,3.06233 3.33698,6.67784c-0.41563,1.38619 -1.52128,2.43099 -2.9152,3.14256c-0.09045,0.09878 -0.15051,0.15216 -0.15051,0.15216c-1.37864,1.22445 -4.12384,3.59217 -5.14903,4.8736c-2.95443,3.69285 -4.7018,8.59136 -7.81631,11.95979c-0.20096,0.21734 0.51383,-0.44552 0.80254,-0.38018c1.19272,0.26993 2.3339,0.76754 3.41708,1.33513c1.7291,0.90606 3.29368,2.11701 5.05945,2.94936l0.24733,0.55486l0.18152,-0.15883l1.74123,1.98997c0.42888,0.48502 0.68919,1.12257 0.68919,1.82091c0,1.51878 -1.23122,2.75 -2.75,2.75c-0.2043,0 -0.4034,-0.02228 -0.595,-0.06454l-2.44432,-0.48886l0.02789,-0.13943c-0.20374,-0.00714 -0.40742,-0.02222 -0.61103,-0.04667c-0.91596,-0.10998 -1.43342,-1.1785 -2.24192,-1.62282c-1.5352,-0.8437 -3.06014,-1.81904 -4.76744,-2.21123c-0.67751,-0.15564 -1.65361,-0.01341 -2.67564,0.11157c-0.75952,2.42081 -1.69261,4.82881 -2.25336,7.28717c-0.39016,1.71046 -0.33628,7.93612 -1.49463,8.86937c-4.90445,3.95137 -9.03095,-2.11494 -11.178,-5.14336c0.69189,-1.58534 1.11938,-3.31465 2.07567,-4.75601c0.69193,-1.04291 1.85802,-1.67775 2.76504,-2.54016c0.15388,-0.14631 0.30527,-0.29506 0.45464,-0.4458zM195.65891,292.97897c0.05652,-0.50268 0.20982,-1.02499 0.33567,-1.39649c-0.47599,0.38337 -0.93468,0.7481 -1.36112,1.09134c0.35717,0.10059 0.70452,0.17658 1.02545,0.30515z"></path><path d="M267.49467,276.75966c1.27673,-4.67085 2.89296,-9.11146 3.6924,-13.98466c0.29955,-1.82597 0.49286,-5.7067 1.78334,-7.89254l-0.45892,-1.37675c-0.59493,-0.69274 -1.18383,-1.42222 -1.7244,-2.17412c-0.33852,-0.20775 -0.65249,-0.44002 -0.90104,-0.73403c-2.78148,-3.2904 -2.10432,-7.27675 -1.72241,-11.14621c0,0 0.27364,-2.73635 3.00999,-2.46272c2.07091,0.20709 2.4178,1.82474 2.46404,2.59928c1.4127,0.65699 2.57108,2.61148 3.56966,3.89084c0.05188,0.06647 0.10267,0.13265 0.15237,0.19856c0.5361,-4.97126 1.39984,-9.89708 2.67092,-14.82227c0.97668,-3.78445 1.58991,-10.26719 4.52235,-13.31322c0.0543,-0.05641 0.10916,-0.11217 0.16454,-0.16733l-0.03512,-0.02576l2.72978,-3.72243c0.49885,-0.69705 1.31529,-1.15132 2.23783,-1.15132c1.51878,0 2.75,1.23122 2.75,2.75c0,0.46188 -0.11387,0.89717 -0.31507,1.27932l-1.10045,2.2009c-0.71311,3.72317 -2.10855,7.10845 -2.88345,10.7864c-0.90212,4.28181 -0.1175,8.68323 -1.0082,13.04116c-0.10048,0.49164 -0.19748,0.984 -0.29353,1.47655c0.37593,0.47033 0.60069,1.06675 0.60069,1.71568c0,0.57786 -0.17823,1.11408 -0.48272,1.55671l-0.43387,0.6508c-0.08375,1.25272 -0.22281,2.51567 -0.44049,3.80239l-0.22835,0.24618l0.12388,0.05162l-0.53813,1.29151c-0.009,0.84743 0.04901,1.68673 0.25121,2.50852c0.27152,1.10353 2.80015,0.93104 3.06965,1.01775c4.08235,1.31348 11.9226,6.02738 4.09732,10.61392c-3.80929,2.2327 -6.76125,-1.5505 -8.96474,-3.40708c-0.57166,-0.48166 -1.21663,-1.00011 -1.89515,-1.55386c-0.58381,4.91868 -1.17229,9.88225 -1.32642,14.83018c1.19803,-0.36608 2.51284,-0.06691 3.76781,-0.10863h2.5c1.51878,0 2.75,1.23122 2.75,2.75c0,1.2112 -0.78302,2.23951 -1.87046,2.60634l-2.68974,0.97809l-0.05688,-0.15642c-0.1762,0.10671 -0.35641,0.20727 -0.54128,0.30069c-0.8215,0.41508 -1.83125,-0.23975 -2.75161,-0.23017c-0.1462,0.00152 -0.28848,0.00864 -0.42716,0.02102c-0.31956,0.17144 -0.63468,0.36568 -0.94672,0.57698c0.14831,0.82854 0.06139,2.08931 -1.4863,2.86315c-0.44336,0.22168 -0.84676,0.32349 -1.21021,0.34143c0.01518,1.03956 0.0707,2.09316 0.18075,3.17885c0.19933,1.96646 1.79225,4.18002 0.78054,5.878c-0.86769,1.45626 -3.26695,1.01097 -4.95774,1.13268c-0.7035,0.05064 -2.39531,-0.29589 -4.08107,-0.74114c-0.38251,0.3086 -0.80892,0.49702 -1.3032,0.47287c-5.32041,-0.25992 -5.62677,-2.30273 -4.84684,-4.56195c-0.65012,-1.40671 -0.0342,-1.95607 0.93703,-2.14919c0.20429,-0.42588 0.40315,-0.84176 0.56959,-1.23688l-0.00836,-0.00418l1.22336,-2.44671c0.21042,-0.44387 0.5362,-0.82242 0.93862,-1.0969c-0.19881,-2.63589 0.11392,-5.92319 0.39237,-6.94188z"></path></g><g fill="none" stroke-width="0"><path d="M-34,360v-359h34v359z"></path><path d="M480,360v-359h34v359z"></path></g><g fill-opacity="0.1098" fill="#f6d1ff" stroke-width="0.5"><path d="M213.24206,260.01898c-2.77049,4.74294 -5.77883,9.80395 -7.10263,15.15895l-0.17526,0.16386l0.09681,0.04149l-0.97503,2.27508c-0.4064,1.01111 -1.39614,1.72497 -2.55261,1.72497c-0.17075,0 -0.33786,-0.01556 -0.5,-0.04534c-0.16214,0.02978 -0.32925,0.04534 -0.5,0.04534c-1.51878,0 -2.75,-1.23122 -2.75,-2.75c0,-0.40632 0.08812,-0.79207 0.2463,-1.13916l0.92976,-2.16944c0.19173,-0.64248 0.38034,-1.29396 0.5689,-1.95093c0.15762,-3.13377 1.17573,-5.90973 2.65599,-8.45195c0.14209,-0.37194 0.28861,-0.74063 0.44016,-1.10539c0.67777,-2.17199 1.44734,-4.2897 2.374,-6.3755c-0.91668,-0.44598 -1.54844,-1.38637 -1.54844,-2.47431c0,-1.0536 0.59251,-1.96881 1.4625,-2.43061l2.58957,-1.43865c-1.51657,-3.87399 -0.71873,-9.29935 -0.71873,-12.79741c0,0 0,-2.75 2.75,-2.75c0.53217,0 0.96135,0.10298 1.30748,0.26909c0.95164,-7.85267 3.45086,-15.5487 5.35796,-23.18606l-0.08211,-0.66636c0,0 0,-2.75 2.75,-2.75c2.75,0 2.75,2.75 2.75,2.75l-0.08211,2.00031c-2.04431,8.16809 -5.16593,16.68183 -5.58797,25.13668c-0.20577,4.12232 0.08048,8.00538 0.53754,11.94875l1.1508,2.30161c0.2012,0.38215 0.31507,0.81744 0.31507,1.27932c0,0.7811 -0.32565,1.48614 -0.84859,1.98675c-0.03348,0.07998 -0.06959,0.161 -0.1084,0.24309c-0.54853,1.16011 -2.24407,1.62251 -4.06083,1.78872c0.01177,0.10329 0.01782,0.20833 0.01782,0.31477c0,0.46276 -0.1143,0.89882 -0.31621,1.28149c0.08439,0.95461 -0.39173,1.77082 -0.39173,1.77082z"></path><path d="M287.42984,264.75967c-2.45967,1.22984 -3.68951,-1.22984 -3.68951,-1.22984l-0.86859,-1.74245c-0.53248,-0.25859 -1.05434,-0.59597 -1.56071,-0.95921c0.02827,1.8231 0.11246,3.66651 -0.03807,5.37716c-0.23107,2.62606 -0.87883,5.19876 -1.34729,7.79301c-0.12986,0.71914 -0.03136,1.46102 -0.06417,2.19138c0.45097,-0.0917 0.90893,-0.18419 1.37177,-0.28998l0.30007,0.1227v-0.13912h3.33333c1.51878,0 2.75,1.23122 2.75,2.75c0,1.44437 -1.11353,2.62867 -2.52895,2.74125l-3.59419,0.32674c-1.0981,0.37699 -2.18607,0.57912 -3.12997,0.4264c-0.03453,0.05284 -0.06518,0.11007 -0.09162,0.17205c-0.25946,0.60831 0.43468,1.32457 0.27117,1.96537c-0.51644,2.02395 -2.54413,6.07122 -5.02758,7.42004c0.02091,0.02479 0.04172,0.04965 0.06243,0.07459l-0.55431,0.15375c-0.21347,0.08211 -0.42968,0.14296 -0.648,0.17973l-0.4939,0.13699l-0.46346,0.5407l0.41398,1.10394l-2.60732,0.97775c-0.31675,0.1273 -0.66266,0.19735 -1.02493,0.19735c-1.51878,0 -2.75,-1.23122 -2.75,-2.75c0,-0.68898 0.25337,-1.31879 0.67202,-1.80132l0.1786,-0.20836c-0.125,-0.0985 -0.19331,-0.22853 -0.17266,-0.40801c0.11344,-0.98603 0.4415,-1.82035 0.91564,-2.54221c-0.37166,-0.46894 -0.5936,-1.06193 -0.5936,-1.70676c0,-0.3266 0.05693,-0.6399 0.16142,-0.93052l0.9797,-2.9391l0.05853,0.01951l-0.01356,-0.14429c0.07688,-0.17299 0.15286,-0.34652 0.22794,-0.52057c-0.08401,-1.13227 0.73506,-2.25711 0.98111,-3.39812c0.26635,-1.23515 0.38813,-2.49981 0.68086,-3.72898c0.97027,-4.07411 2.51124,-8.07489 2.93561,-12.27713c0.20938,-2.07335 -0.12908,-4.1714 -0.00631,-6.25168c0.16208,-2.74623 1.14875,-4.63119 0.21663,-6.50886c-0.57452,-0.53317 -1.26805,-0.9646 -1.67044,-1.63034l-2.24428,-1.92367c-0.59572,-0.50444 -0.9739,-1.25785 -0.9739,-2.09959c0,-1.51878 1.23122,-2.75 2.75,-2.75c0.6291,0 1.20886,0.21124 1.67222,0.56667l2.64444,1.98333l-0.0536,0.07147l0.2054,0.05104c0.07261,0.07747 0.14699,0.1537 0.22275,0.22896c0.40154,0.20679 0.73234,0.55462 1.03468,0.94863c0.43177,0.38578 0.85522,0.77741 1.21106,1.21655c0.47183,-0.83573 1.36821,-1.39998 2.39637,-1.39998c0.42903,0 0.83511,0.09824 1.19697,0.27346c-0.15674,-2.73856 -0.2759,-5.96038 0.07364,-8.52613c0.7407,-5.43701 3.61851,-10.25795 4.7073,-15.57443c0.54419,-2.65723 0.68514,-5.39384 1.33909,-8.02621c0.23791,-1.18159 0.56909,-2.32208 0.89026,-3.45447c1.02162,0.56771 2.1531,0.96163 3.35451,1.14183c0.48796,0.07319 0.98745,0.11112 1.49581,0.11112c0.14134,0.02028 0.28327,0.03865 0.42569,0.05509c-0.28503,1.0907 -0.5707,2.19699 -0.80026,3.35306c-0.65768,2.61302 -0.77673,5.33618 -1.32757,7.97379c-1.07274,5.13655 -3.91121,9.85627 -4.62604,15.09224c-0.27042,1.98075 0.02213,3.99821 0.0206,5.99733c-0.00369,4.83276 2.43005,9.9135 1.31273,14.66934c-0.11625,0.4948 -0.21742,1.06169 -0.34144,1.63117l1.07172,2.13633c0,0 1.22984,2.45967 -1.22984,3.68951z"></path><path d="M227.99203,131.84019c-0.53842,-0.46344 -0.91951,-0.79598 -0.94779,-0.8328c-2.603,-3.3889 -4.41549,-9.82542 -3.24449,-14.00747c0.53508,-1.91095 0.73716,-4.74866 2.63138,-5.34026c1.83807,-0.57407 3.5147,1.6922 4.95431,2.9711c1.96631,1.74681 1.6207,3.96565 2.61708,6.12527c1.4453,3.13265 4.43355,5.35069 6.66455,7.79858c1.38695,1.52178 3.71264,2.74197 4.19621,4.6621c0.00113,-0.00002 0.00225,-0.00004 0.00338,-0.00006h2.66667c1.51878,0 2.75,1.23122 2.75,2.75c0,0.84174 -0.37818,1.59515 -0.9739,2.09959l-2.31976,1.98837l-0.02736,-0.03192c-1.34202,1.84239 -2.93592,3.50477 -4.82614,4.19638c-0.02433,0.0089 -0.04892,0.01768 -0.07378,0.02635c1.03727,0.94198 2.01428,1.96125 2.3388,2.73949c0.02727,0.06539 0.05392,0.13097 0.08,0.19675l0.03888,-0.02474l2.31127,3.63199c0.28572,0.43364 0.452,0.95294 0.452,1.51109c0,1.51878 -1.23122,2.75 -2.75,2.75c-0.84174,0 -1.59515,-0.37818 -2.09959,-0.9739l-1.98837,-2.31976l0.07206,-0.06176l-0.20031,-0.09975c-0.87836,-1.40403 -1.80364,-2.69746 -2.71034,-3.97962c-0.86079,-0.77342 -2.00028,-1.55699 -3.04764,-2.43788c-0.15883,0.17471 -0.33143,0.33608 -0.52298,0.47924c-0.02494,0.01864 -0.04999,0.0371 -0.07514,0.05538l0.01826,0.01521l-1.65322,1.98387c-0.48572,0.59131 -1.21331,0.9764 -2.03154,1.00403c-0.30083,0.45856 -0.63903,0.88003 -1.01118,1.25184c0,3.7777 0,7.55539 0,11.33309c0,1.8814 -0.58134,3.82797 -0.08792,5.64352c0.66008,2.42881 5.90261,6.06681 5.75176,8.23187c-0.34864,5.00391 -3.84599,4.93612 -7.08051,4.87461c-1.37738,-0.02619 -2.99267,0.39179 -4.11243,-0.41071c-4.6981,-3.36702 -1.79978,-10.8958 -3.39806,-15.55016c-0.76213,-1.31856 -1.40786,-2.65926 -1.92384,-4.01945c-1.60382,-0.18786 -2.17455,-1.90005 -2.17455,-1.90005l-0.45322,-2.21072c0.55569,-4.40669 1.07846,-9.27948 3.06522,-13.3457c0.11103,-0.43185 0.32431,-0.82267 0.61251,-1.14512c0.13316,-0.22768 0.2718,-0.4522 0.41621,-0.67329c1.50142,-2.29867 4.21682,-5.00744 7.4968,-4.1935c0.64762,0.16071 1.21936,0.40321 1.71933,0.71241c0.05752,-0.07814 0.11724,-0.15584 0.17855,-0.23323c-0.07935,-1.0784 -0.21968,-2.14786 -0.44583,-3.19053c-0.1515,-0.69849 -0.57876,-1.37213 -0.85533,-2.04975zM227.55203,174.64672c-0.346,-0.32265 -0.68655,-0.72268 -1.01267,-1.16491c0.00084,0.17183 0.00204,0.34503 0.00374,0.51971c0.00312,0.32154 -0.1944,0.83609 0.10266,0.9592c0.29789,0.12344 0.59513,-0.15672 0.90627,-0.31399z"></path><path d="M270.45,186.63333c0,0 0,-2.75 2.75,-2.75c2.75,0 2.75,2.75 2.75,2.75c0,1.77778 0,3.55556 0,5.33333v0.66667c0,0 0,0.7158 -0.36519,1.41702c0.19451,0.71024 0.13505,1.61888 -0.7736,2.52753c-1.94454,1.94454 -3.88909,0 -3.88909,0l0.38137,0.1818c-3.01129,-1.5291 -5.94633,-3.58839 -8.58205,-5.95874c-0.53963,-0.24751 -0.98533,-0.66453 -1.26894,-1.1829l-0.00621,-0.01087c-0.72231,-0.7039 -1.41725,-1.4302 -2.07966,-2.1738l-0.26049,0.31258l-1.98387,-1.65322c-0.61399,-0.50435 -1.00563,-1.26947 -1.00563,-2.12605c0,-1.1339 0.68626,-2.10751 1.66611,-2.52815c-0.12242,-1.58789 0.65576,-3.94367 -0.91001,-5.27982c-1.57303,-1.34235 -4.64503,0.89413 -6.18469,-0.48637c-1.23698,-1.10911 -0.655,-3.25898 -0.90132,-4.90201c-0.49149,-3.27831 -0.33422,-4.58025 -0.33675,-8.13699c0,0 0,-2.75 2.75,-2.75c2.75,0 2.75,2.75 2.75,2.75c-0.00198,2.62331 0.66344,5.26099 0.32992,7.86301c-0.0602,0.46968 -1.37342,1.06143 -0.90132,1.09799c0.65832,0.05099 1.02772,-1.05755 1.68769,-1.03708c1.43378,0.04445 2.96422,0.37821 4.12761,1.21738c0.98503,0.71052 3.18759,5.16391 3.39575,6.47422c0.14055,0.88471 -0.43091,1.77619 -0.33333,2.66667c0.02328,0.21248 0.06716,0.41918 0.12675,0.62151c0.96923,0.73594 2.01326,1.43075 2.28508,2.55024c0.05154,0.21226 0.08821,0.42542 0.11214,0.63933l0.10421,-0.02316l0.33974,1.52882c0.37225,0.31224 0.65063,0.54933 0.75088,0.63407c1.22701,1.03726 2.31452,2.01204 3.47487,2.89688c0,-1.09856 0,-2.20453 0,-3.12988z"></path><path d="M318.40599,98.27007c2.6966,0.53932 2.15728,3.23592 2.15728,3.23592l-0.30117,1.46844c-0.55878,4.40749 -1.7797,8.50131 -3.1881,12.71128c-1.05326,2.11706 -1.95518,4.34848 -2.86436,6.58418c-0.43628,2.22374 -1.12667,4.51357 -1.44466,6.02175c-2.58787,4.383 -4.04573,9.75613 -7.53432,13.52946c-2.49462,2.69823 -4.88369,5.20213 -7.2865,7.94737c-1.38263,1.57967 -3.34562,2.7103 -4.35112,4.55312c-2.20618,4.04337 -3.79821,8.53806 -6.41707,12.47158c-2.68788,4.0372 -5.51115,7.65266 -7.92165,11.87121c0,0 -1.36438,2.38767 -3.75205,1.02329c-2.12691,-1.21538 -1.27654,-3.24274 -1.06544,-3.67106c-1.31462,-0.20634 -2.32018,-1.34404 -2.32018,-2.71661c0,-0.13036 0.00907,-0.2586 0.02662,-0.38413l0.32795,-2.62363l0.06391,0.00799c-0.00424,-0.10799 -0.00607,-0.21623 -0.0053,-0.32475c0.02076,-2.91189 2.64773,-4.85028 4.39228,-6.62002c2.12818,-2.15891 2.99506,-2.73849 4.66646,-5.26252c1.17,-1.76686 2.75288,-5.24843 4.43429,-6.83326c0.32843,-0.30956 0.74635,-0.49877 1.16704,-0.68441c4.22782,-7.46997 8.96797,-14.74817 13.52031,-22.02497c1.46916,-2.34841 2.6719,-4.85425 4.07911,-7.24029c0.83817,-1.42119 1.24179,-3.3644 2.68992,-4.15512c1.42397,-0.77754 2.58347,-1.24344 3.52104,-1.45528c0.31458,-0.7158 0.64291,-1.4235 0.99238,-2.11865c1.23819,-3.73009 2.33168,-7.384 2.8119,-11.28872l0.3655,-1.86489c0,0 0.53932,-2.6966 3.23592,-2.15728z"></path><path d="M240.81958,81.68399c0.80379,0.34411 1.28485,1.0176 1.28485,1.0176c0.6085,0.86103 1.21699,1.72206 1.82549,2.58309l0.02674,0.31008l0.10432,-0.04471l0.97605,2.27746c0.15818,0.34709 0.2463,0.73283 0.2463,1.13916c0,1.51878 -1.23122,2.75 -2.75,2.75c-0.46188,0 -0.89717,-0.11387 -1.27932,-0.31507l-2.61718,-1.30859l0.02542,-0.05084c-1.23702,-0.42999 -2.29514,-1.26078 -3.72355,-3.17724c-0.70125,-0.94084 -0.87573,-2.17734 -1.3136,-3.26601l4.57491,-3.71559c0,0 2.07363,0 2.61958,1.80066z"></path></g><path d="M231.83196,75.59764c-0.31232,-1.03575 -0.4288,-2.12607 0.16394,-3.0291c0.55824,-0.85048 1.87354,-0.79347 2.81032,-1.19021c0,0 1.68834,-0.46045 2.1488,1.22788c0.19357,0.70973 0.00741,1.20248 -0.27343,1.53525c0.10453,1.32096 0.0158,2.56875 -0.06659,3.83585c-1.32008,1.0879 -2.71889,1.86429 -4.1879,2.41682c-0.61228,-1.44036 -0.73813,-2.79227 -0.74376,-4.6608z" fill="#43447b" stroke-width="0.5"></path><path d="M231.68334,75.73333v0c0,-0.00001 0,-0.00001 0,-0.00002z" fill="#43447b" stroke-width="0.5"></path><path d="M237.65,250.80117c-1.25,0 -1.25,-1.25 -1.25,-1.25v-1c0.01087,-0.48846 0.51163,-1.30715 0.04922,-1.46492c-2.33184,-0.79559 -4.2756,0.12421 -6.13639,-2.35684c-2.67331,-1.78554 -2.16283,-4.99008 -2.16283,-7.92824c0,-6.25262 0.5,-12.63787 0.5,-19c0,-0.43412 0.15077,-0.71747 0.34758,-0.90242c0.18494,-0.19681 0.4683,-0.34758 0.90242,-0.34758c0.03025,0 0.05976,0.00073 0.08856,0.00216l0.90658,0.02212c3.81615,0.7782 5.63123,4.1829 9.07392,5.61277c2.40763,1.44982 6.43037,2.53028 7.1531,5.85063c0.43689,2.00716 -1.65311,4.12813 -2.29383,5.92949c-1.79826,5.05575 -3.33522,10.36887 -5.26774,15.29708c0,0 -0.2233,0.55826 -0.74734,0.74554c-0.12435,0.35648 -0.42693,0.79022 -1.16325,0.79022z" fill="#a69cb5" stroke-width="0.5"></path><path d="M276.29845,248.96177c-1.69013,-0.63119 -2.82151,-1.62734 -4.05803,-2.62455c-0.21819,0.49373 -0.54433,0.91128 -1.03503,1.1483c-1.21222,0.58552 -3.87462,-2.21617 -4.20684,-3.02059c-0.56034,-1.35676 0.2088,-3.11197 -0.28959,-4.54105c-1.04318,-2.99119 -1.78127,-5.28142 -2.06052,-7.97832l-0.23497,0.03889l-0.48645,-2.43541c-0.0177,-0.08012 -0.027,-0.163 -0.027,-0.24787c0,-0.69036 0.61482,-1.25 1.37324,-1.25c0.08092,0 0.16022,0.00637 0.2373,0.01859c0.02856,-0.04135 0.06056,-0.08207 0.0964,-0.12138c0.10951,-0.36966 0.42206,-0.89721 1.31419,-0.89721c0.2054,0 0.38008,0.02796 0.52863,0.07553c1.28396,-0.36803 2.36151,-0.33731 3.78791,-0.78366c3.56865,-1.1167 6.60936,-2.25813 10.51444,-2.29187h0.27465c0.47692,0 0.78821,0.15077 0.99139,0.34758c0.21622,0.18494 0.38185,0.4683 0.38185,0.90242c0,0.06724 -0.00397,0.13085 -0.01149,0.19104c-0.15026,1.94182 -1.28987,3.54587 -1.90573,5.36752c-0.03206,0.59229 0.07202,1.20648 -0.012,2.06461c-0.30291,3.09357 -0.34488,6.46078 -0.82688,9.5245c-0.14959,0.95081 -0.20278,2.23604 -0.56094,3.24819c-0.07578,0.61133 -0.16625,1.22133 -0.27589,1.8295l-0.01398,0.01801l0.00981,0.00178l-0.26966,1.22729c-0.11528,0.58424 -0.67654,1.02756 -1.35156,1.02756c-0.57922,0 -1.07468,-0.32642 -1.27648,-0.7882z" fill="#6d587e" stroke-width="0.5"></path><g stroke-width="0.5"><path d="M226.15,214.55117c-1.25,0 -1.25,-1.25 -1.25,-1.25c0,-2.33334 0,-5.41666 0,-7.75c0,-3.77357 -0.9601,-8.48043 1.57175,-11.33718c0.78879,-0.89002 1.37025,-3.19784 3.3764,-1.87394l0.04175,-0.03132c0.21062,-0.16155 0.47414,-0.25757 0.7601,-0.25757c0.69036,0 1.25,0.55964 1.25,1.25c0,3.16666 0,7.58334 0,10.75c0,8.74324 -0.61964,17.48533 -1.50608,26.12317c-0.16654,1.62282 -0.30023,3.161 -0.50329,4.77956c-0.11683,0.9312 0.24649,3.21371 -0.3303,4.06216c-0.05572,0.08197 -0.11438,0.16135 -0.17563,0.23846l0.03247,0.02319l-1.24032,1.73644c-0.22579,0.32457 -0.60151,0.53701 -1.02685,0.53701c-0.69036,0 -1.25,-0.55964 -1.25,-1.25v-1.44713c-0.17389,-1.52853 -0.42333,-3.04936 -0.72573,-4.55773c0,0 -0.00923,-0.04613 -0.01515,-0.12228c-0.00913,-0.07583 -0.00912,-0.12287 -0.00912,-0.12287v-0.25c0.02517,-3.48602 0.96336,-7.35977 1.50364,-10.84531c-0.00754,-2.90996 0.11795,-5.7875 0.29192,-8.65337c-0.18229,0.14624 -0.4377,0.24869 -0.79556,0.24869zM227.75413,231.61495c0.16315,-1.00409 0.31979,-1.98543 0.39956,-2.90899c-0.16529,0.97817 -0.30843,1.95447 -0.39956,2.90899z" fill="#baafcc"></path><path d="M224.08613,191.75671c1.21814,-0.75347 2.65444,-0.87107 3.47255,-0.1356c0.36463,0.11291 0.84133,0.40814 0.84133,1.18007c0,0.30298 -0.07343,0.53252 -0.18471,0.70642c-0.00919,0.26779 -0.04496,0.55991 -0.11065,0.87724c-0.2877,1.38977 -1.3449,3.32863 -2.09302,4.84925c-0.12231,0.29685 -0.25366,0.59437 -0.38531,0.89181c0.04728,1.92051 0.02382,3.84288 0.02054,5.76388l-0.03648,0.0843l0.02707,0.00387l-0.2474,1.73181c-0.07792,0.61548 -0.6034,1.09142 -1.24004,1.09142c-0.4633,0 -0.86774,-0.25206 -1.08365,-0.62653l-0.73821,-1.23036l0.41173,-0.24704c-0.02857,-0.05184 -0.05616,-0.10366 -0.08278,-0.15548c-0.22758,0.30895 -0.59393,0.50941 -1.00709,0.50941c-0.24074,0 -0.46557,-0.06805 -0.65633,-0.18597c-0.04557,0.17723 -0.09274,0.35372 -0.14177,0.52936c0,0 -0.3434,1.20191 -1.5453,0.85851c-1.20191,-0.3434 -0.85851,-1.5453 -0.85851,-1.5453c0.42884,-1.46032 0.7396,-3.12547 1.07953,-4.82743c0.01543,-2.1843 0.4288,-4.75433 0.62846,-6.20234c0.09508,-0.6895 -0.16396,-1.48984 0.20883,-2.07762c0.64006,-1.00916 2.24354,-1.57311 3.72121,-1.84368z" fill="#655077"></path><path d="M293.38281,217.57357c-4.29793,3.98482 -3.48281,-3.36336 -3.48281,-5.2724c0,-3.24986 -0.0152,-6.50018 0,-9.75c0.00576,-1.23144 -0.14181,-2.84871 1.01911,-3.76406c2.09107,-1.64873 4.59501,0.14576 4.97481,2.14088c0.56026,2.94314 0.59357,7.09591 0.00608,10.66428c0,0.4863 0,0.9726 0,1.4589v1.75c0,0.69036 -0.55964,1.25 -1.25,1.25c-0.29555,0 -0.56714,-0.10257 -0.78112,-0.27406c-0.05228,0.77614 -0.18035,1.51301 -0.48607,1.79645z" fill="#baafcc"></path><path d="M291.65,199.30117c0,0.68556 -0.37599,0.99513 -0.71555,1.13491c0.07087,0.23048 0.13492,0.45745 0.19942,0.66486c0.72068,2.31759 0.01614,6.22496 0.01614,8.70023c0,1.62448 0.03821,3.14661 -0.27427,4.74514l-0.24545,1.22729c-0.10494,0.58424 -0.61583,1.02756 -1.23027,1.02756c-0.4633,0 -0.86773,-0.25206 -1.08365,-0.62653l-0.73822,-1.23036l0.05253,-0.03152c-0.06616,-0.08922 -0.1282,-0.18165 -0.18531,-0.27793c-0.03202,-0.05399 -0.04242,-0.84664 -0.04536,-1.58357c-0.08201,0.0616 -0.17184,0.11334 -0.26773,0.15348c0.00291,0.79646 0.01773,1.58629 0.01773,2.34643c0,0 0,1.25 -1.25,1.25c-1.25,0 -1.25,-1.25 -1.25,-1.25c0,-2.36732 0.144,-4.72259 0.49991,-7.03217c0.00005,-0.12262 0.00009,-0.20233 0.00009,-0.21783c0,-2.5564 -1.13404,-8.61893 1.44099,-10.11804c0.27875,-0.16228 2.54538,-0.13196 3.05901,-0.13196h0.75c0,0 1.25,0 1.25,1.25z" fill="#655077"></path></g></g></g></svg>