<svg version="1.1" xmlns="http://www.w3.org/2000/svg" xmlns:xlink="http://www.w3.org/1999/xlink" width="621" height="453.26356" viewBox="0,0,621,453.26356"><defs><linearGradient x1="242.5" y1="128.13956" x2="242.5" y2="203.56978" gradientUnits="userSpaceOnUse" id="color-1"><stop offset="0" stop-color="#0a0610"></stop><stop offset="1" stop-color="#0a0610" stop-opacity="0"></stop></linearGradient><linearGradient x1="242.5" y1="203.56978" x2="242.5" y2="128.13956" gradientUnits="userSpaceOnUse" id="color-2"><stop offset="0" stop-color="#0a0610"></stop><stop offset="1" stop-color="#0a0610" stop-opacity="0"></stop></linearGradient><linearGradient x1="183.96007" y1="126.42134" x2="161.49896" y2="271.75467" gradientUnits="userSpaceOnUse" id="color-3"><stop offset="0" stop-color="#0a060f" stop-opacity="0.25098"></stop><stop offset="1" stop-color="#0a060f" stop-opacity="0"></stop></linearGradient><linearGradient x1="209.01824" y1="126.42134" x2="186.55713" y2="271.75467" gradientUnits="userSpaceOnUse" id="color-4"><stop offset="0" stop-color="#0a060f" stop-opacity="0.25098"></stop><stop offset="1" stop-color="#0a060f" stop-opacity="0"></stop></linearGradient><linearGradient x1="190.13686" y1="126.42134" x2="167.67575" y2="271.75467" gradientUnits="userSpaceOnUse" id="color-5"><stop offset="0" stop-color="#0a060f" stop-opacity="0.25098"></stop><stop offset="1" stop-color="#0a060f" stop-opacity="0"></stop></linearGradient><linearGradient x1="235.97157" y1="126.42134" x2="213.51046" y2="271.75467" gradientUnits="userSpaceOnUse" id="color-6"><stop offset="0" stop-color="#0a060f" stop-opacity="0.25098"></stop><stop offset="1" stop-color="#0a060f" stop-opacity="0"></stop></linearGradient><linearGradient x1="296.03993" y1="126.42134" x2="318.50104" y2="271.75467" gradientUnits="userSpaceOnUse" id="color-7"><stop offset="0" stop-color="#0a060f" stop-opacity="0.25098"></stop><stop offset="1" stop-color="#0a060f" stop-opacity="0"></stop></linearGradient><linearGradient x1="270.98176" y1="126.42134" x2="293.44287" y2="271.75467" gradientUnits="userSpaceOnUse" id="color-8"><stop offset="0" stop-color="#0a060f" stop-opacity="0.25098"></stop><stop offset="1" stop-color="#0a060f" stop-opacity="0"></stop></linearGradient><linearGradient x1="289.86314" y1="126.42134" x2="312.32425" y2="271.75467" gradientUnits="userSpaceOnUse" id="color-9"><stop offset="0" stop-color="#0a060f" stop-opacity="0.25098"></stop><stop offset="1" stop-color="#0a060f" stop-opacity="0"></stop></linearGradient><linearGradient x1="244.02843" y1="126.42134" x2="266.48954" y2="271.75467" gradientUnits="userSpaceOnUse" id="color-10"><stop offset="0" stop-color="#0a060f" stop-opacity="0.25098"></stop><stop offset="1" stop-color="#0a060f" stop-opacity="0"></stop></linearGradient><linearGradient x1="323.23993" y1="126.42134" x2="345.70104" y2="271.75467" gradientUnits="userSpaceOnUse" id="color-11"><stop offset="0" stop-color="#0a060f" stop-opacity="0.25098"></stop><stop offset="1" stop-color="#0a060f" stop-opacity="0"></stop></linearGradient><linearGradient x1="298.18176" y1="126.42134" x2="320.64287" y2="271.75467" gradientUnits="userSpaceOnUse" id="color-12"><stop offset="0" stop-color="#0a060f" stop-opacity="0.25098"></stop><stop offset="1" stop-color="#0a060f" stop-opacity="0"></stop></linearGradient><linearGradient x1="317.06314" y1="126.42134" x2="339.52425" y2="271.75467" gradientUnits="userSpaceOnUse" id="color-13"><stop offset="0" stop-color="#0a060f" stop-opacity="0.25098"></stop><stop offset="1" stop-color="#0a060f" stop-opacity="0"></stop></linearGradient><linearGradient x1="271.22843" y1="126.42134" x2="293.68954" y2="271.75467" gradientUnits="userSpaceOnUse" id="color-14"><stop offset="0" stop-color="#0a060f" stop-opacity="0.25098"></stop><stop offset="1" stop-color="#0a060f" stop-opacity="0"></stop></linearGradient><linearGradient x1="163.16007" y1="126.42134" x2="140.69896" y2="271.75467" gradientUnits="userSpaceOnUse" id="color-15"><stop offset="0" stop-color="#0a060f" stop-opacity="0.25098"></stop><stop offset="1" stop-color="#0a060f" stop-opacity="0"></stop></linearGradient><linearGradient x1="188.21824" y1="126.42134" x2="165.75713" y2="271.75467" gradientUnits="userSpaceOnUse" id="color-16"><stop offset="0" stop-color="#0a060f" stop-opacity="0.25098"></stop><stop offset="1" stop-color="#0a060f" stop-opacity="0"></stop></linearGradient><linearGradient x1="169.33686" y1="126.42134" x2="146.87575" y2="271.75467" gradientUnits="userSpaceOnUse" id="color-17"><stop offset="0" stop-color="#0a060f" stop-opacity="0.25098"></stop><stop offset="1" stop-color="#0a060f" stop-opacity="0"></stop></linearGradient><linearGradient x1="215.17157" y1="126.42134" x2="192.71046" y2="271.75467" gradientUnits="userSpaceOnUse" id="color-18"><stop offset="0" stop-color="#0a060f" stop-opacity="0.25098"></stop><stop offset="1" stop-color="#0a060f" stop-opacity="0"></stop></linearGradient><linearGradient x1="242.5" y1="203.56978" x2="242.5" y2="142.20156" gradientUnits="userSpaceOnUse" id="color-19"><stop offset="0" stop-color="#0a060f" stop-opacity="0.24314"></stop><stop offset="1" stop-color="#0a060f" stop-opacity="0"></stop></linearGradient><linearGradient x1="242.5" y1="142.20156" x2="242.5" y2="203.56978" gradientUnits="userSpaceOnUse" id="color-20"><stop offset="0" stop-color="#0a060f" stop-opacity="0.24314"></stop><stop offset="1" stop-color="#0a060f" stop-opacity="0"></stop></linearGradient></defs><g transform="translate(70.5,22.76356)"><g stroke="none" stroke-width="0" stroke-miterlimit="10"><path d="M90.5,122.56978v-145.33334h299v145.33334z" fill-opacity="0.19216" fill="#0a060f"></path><path d="M125,284.56978v-162h235v162z" fill-opacity="0.40392" fill="#0a060f"></path><path d="M339,360v-382.76356h141v382.76356z" fill="#0a0610"></path><path d="M0,360v-382.76356h141v382.76356z" fill="#0a0610"></path><path d="M125,360v-156.43022h235v156.43022z" fill="#0a0610"></path><g fill="#0a0610"><path d="M141,122.56978v-39.5c0,0 3.32057,10.58676 12.16049,19.21811c3.89102,3.79921 10.69337,7.21958 15.63566,9.1915c5.95854,2.3774 15.1203,5.67855 26.43072,7.38062c20.58857,3.0983 44.77313,3.70977 44.77313,3.70977z"></path><path d="M240,122.56978c0,0 24.18457,-0.61147 44.77313,-3.70977c11.31042,-1.70206 20.47217,-5.00322 26.43072,-7.38062c4.94229,-1.97193 11.74464,-5.39229 15.63566,-9.1915c8.83992,-8.63135 12.16049,-19.21811 12.16049,-19.21811v39.5z"></path></g><g><path d="M125,203.56978v-75.43022h235v75.43022z" fill="url(#color-1)"></path><path d="M360,128.13956v75.43022h-235v-75.43022z" fill="url(#color-2)"></path></g><path d="M141,128.13956v-5.56978h198v5.56978z" fill="#0a0610"></path><g fill-opacity="0.44314" fill="#0a060f"><path d="M141,122.56978v-79.16667c0,0 3.32057,21.21819 12.16049,38.51731c3.89102,7.61445 10.69337,14.46962 15.63566,18.42178c5.95854,4.76483 15.1203,11.38106 26.43072,14.79238c20.58857,6.20967 44.77313,7.43519 44.77313,7.43519z"></path><path d="M240,122.56978c0,0 24.18457,-1.22552 44.77313,-7.43519c11.31042,-3.4113 20.47217,-10.02755 26.43072,-14.79238c4.94229,-3.95218 11.74464,-10.80733 15.63566,-18.42178c8.83992,-17.29912 12.16049,-38.51731 12.16049,-38.51731v79.16667z"></path></g><g fill-opacity="0.44314" fill="#0a060f"><path d="M141,122.65311v-61.36822c0,0 3.32057,16.44786 12.16049,29.85775c3.89102,5.90255 10.69337,11.21653 15.63566,14.28015c5.95854,3.69359 15.1203,8.82234 26.43072,11.46672c20.58857,4.8136 44.77313,5.7636 44.77313,5.7636z"></path><path d="M240,122.65311c0,0 24.18457,-0.95 44.77313,-5.7636c11.31042,-2.64436 20.47217,-7.77313 26.43072,-11.46672c4.94229,-3.06364 11.74464,-8.3776 15.63566,-14.28015c8.83992,-13.40989 12.16049,-29.85775 12.16049,-29.85775v61.36822z"></path></g><g fill-opacity="0.06275" fill="#0a060f"><path d="M141,122.65312v-98.70156c0,0 3.32057,26.45391 12.16049,48.0217c3.89102,9.49336 10.69337,18.0401 15.63566,22.96748c5.95854,5.94058 15.1203,14.18941 26.43072,18.44249c20.58857,7.74195 44.77313,9.26988 44.77313,9.26988z"></path><path d="M240,122.65312c0,0 24.18457,-1.52793 44.77313,-9.26988c11.31042,-4.25306 20.47217,-12.50191 26.43072,-18.44249c4.94229,-4.9274 11.74464,-13.47412 15.63566,-22.96748c8.83992,-21.56779 12.16049,-48.0217 12.16049,-48.0217v98.70156z"></path></g><g fill-opacity="0.49412" fill="#0a060f"><path d="M141,122.56978v-49.26744c0,0 3.32057,13.20462 12.16049,23.9703c3.89102,4.73867 10.69337,9.00482 15.63566,11.46435c5.95854,2.96528 15.1203,7.08272 26.43072,9.20568c20.58857,3.86444 44.77313,4.62712 44.77313,4.62712z"></path><path d="M240,122.56978c0,0 24.18457,-0.76268 44.77313,-4.62712c11.31042,-2.12294 20.47217,-6.2404 26.43072,-9.20568c4.94229,-2.45954 11.74464,-6.72568 15.63566,-11.46435c8.83992,-10.76568 12.16049,-23.9703 12.16049,-23.9703v49.26744z"></path></g><g><g><path d="M140.44166,271.75467l22.46111,-145.33333h42.11458l-22.46111,145.33334z" fill="url(#color-3)"></path><path d="M165.49983,271.75467l22.46111,-145.33333h8.84407l-22.46111,145.33334z" fill="url(#color-4)"></path><path d="M146.61845,271.75467l22.46111,-145.33333h3.57975l-22.46111,145.33334z" fill="url(#color-5)"></path><path d="M192.45316,271.75467l22.46111,-145.33333h8.84407l-22.46111,145.33334z" fill="url(#color-6)"></path></g><g><path d="M297.44375,271.75468l-22.46111,-145.33334h42.11459l22.46111,145.33333z" fill="url(#color-7)"></path><path d="M305.6561,271.75468l-22.46111,-145.33334h8.84407l22.46111,145.33333z" fill="url(#color-8)"></path><path d="M329.8018,271.75468l-22.46111,-145.33334h3.57975l22.46111,145.33333z" fill="url(#color-9)"></path><path d="M278.70277,271.75468l-22.46111,-145.33334h8.84407l22.46111,145.33333z" fill="url(#color-10)"></path></g><g><path d="M324.64375,271.75468l-22.46111,-145.33334h42.11459l22.46111,145.33333z" fill="url(#color-11)"></path><path d="M332.8561,271.75468l-22.46111,-145.33334h8.84407l22.46111,145.33333z" fill="url(#color-12)"></path><path d="M357.0018,271.75468l-22.46111,-145.33334h3.57975l22.46111,145.33333z" fill="url(#color-13)"></path><path d="M305.90277,271.75468l-22.46111,-145.33334h8.84407l22.46111,145.33333z" fill="url(#color-14)"></path></g><g><path d="M119.64166,271.75467l22.46111,-145.33333h42.11459l-22.46111,145.33334z" fill="url(#color-15)"></path><path d="M144.69983,271.75467l22.46111,-145.33333h8.84407l-22.46111,145.33334z" fill="url(#color-16)"></path><path d="M125.81846,271.75467l22.46111,-145.33333h3.57975l-22.46111,145.33334z" fill="url(#color-17)"></path><path d="M171.65316,271.75467l22.46111,-145.33333h8.84407l-22.46111,145.33334z" fill="url(#color-18)"></path></g></g><g><path d="M360,142.20156v61.36822h-235v-61.36822z" fill="url(#color-19)"></path><path d="M125,203.56978v-61.36822h235v61.36822z" fill="url(#color-20)"></path></g><path d="M-70.5,360v-382.76356h141v382.76356z" fill="#0a0610"></path><path d="M409.5,360v-382.76356h141v382.76356z" fill="#0a0610"></path><path d="M550.5,430.5h-621l0,-141h621z" fill="#0a0610"></path></g></g></svg>