<svg version="1.1" xmlns="http://www.w3.org/2000/svg" xmlns:xlink="http://www.w3.org/1999/xlink" width="9.73559" height="9.62321" viewBox="0,0,9.73559,9.62321"><g transform="translate(-235.13219,-175.1884)"><g stroke="none" stroke-miterlimit="10"><path d="M239.99998,176.76126c0.40808,-0.92792 1.28882,-1.57286 2.31211,-1.57286c1.41075,0 2.55569,1.22214 2.55569,2.72799c0,2.96566 -3.00268,3.88526 -4.8678,6.89522c-1.97277,-3.02859 -4.86779,-3.83178 -4.86779,-6.89522c0,-1.50585 1.14495,-2.72799 2.55569,-2.72799c1.0233,0 1.90404,0.64494 2.3121,1.57286z" fill-opacity="0.83137" fill="#ffffff" stroke-width="0" stroke-linejoin="round"></path><path d="M243.3819,176.05911c0.33448,0.37165 -0.03716,0.70613 -0.03716,0.70613l-0.31466,0.2832c-0.07574,0.10924 -0.18109,0.15772 -0.27662,0.17749c-0.09797,0.03139 -0.22116,0.04035 -0.34777,-0.02859l-0.1262,-0.03452c-0.26822,-0.06874 -0.50818,-0.31922 -0.63584,-0.60597c-0.03868,-0.03772 -0.07256,-0.08528 -0.0965,-0.14527c-0.10241,-0.07062 -0.19074,-0.19245 -0.19074,-0.4026c0,-0.5 0.5,-0.5 0.5,-0.5c0.5945,0.00036 0.98161,0.16492 1.18616,0.37499c0.1066,0.00368 0.22513,0.04825 0.33934,0.17514z" fill="#ffffff" stroke-width="0.5" stroke-linejoin="miter"></path><path d="M243.79681,178.34542c-0.49029,-0.09806 -0.39223,-0.58835 -0.39223,-0.58835l0.03457,-0.17028c0.00515,-0.03346 0.01029,-0.06691 0.01544,-0.10037l-0.00958,-0.00295c0.00388,-0.00349 0.00777,-0.00699 0.01165,-0.01048c0.01981,-0.12873 0.03961,-0.25747 0.05942,-0.3862c0,0 0.07603,-0.49419 0.57021,-0.41816c0.35818,0.0551 0.41682,0.32988 0.42196,0.47694c0.00919,0.00912 0.01836,0.01876 0.0275,0.02891c0.33448,0.37165 -0.03716,0.70613 -0.03716,0.70613c-0.0413,0.03717 -0.08261,0.07435 -0.12391,0.11152c-0.0356,0.11405 -0.17301,0.43425 -0.57786,0.35328z" fill="#ffffff" stroke-width="0.5" stroke-linejoin="miter"></path></g></g></svg>