<svg version="1.1" xmlns="http://www.w3.org/2000/svg" xmlns:xlink="http://www.w3.org/1999/xlink" width="548" height="359" viewBox="0,0,548,359"><g transform="translate(34,-1)"><g stroke="none" stroke-miterlimit="10"><g stroke-width="0.5"><g><path d="M268.79658,128.39303c-0.42003,0.0086 -0.85989,-0.06257 -1.2925,-0.22301c-1.18684,-0.44016 -1.97691,-1.42533 -2.07435,-2.44184l-0.30003,-2.4627c-1.0095,-4.60749 -0.62317,-6.72214 -0.42282,-10.973c0.15503,-3.28933 -0.91199,-4.79994 0.3293,-7.983c0.01567,-0.04019 0.03155,-0.08029 0.04763,-0.1203l-0.01796,-0.00538l1.12337,-4.17597c0.01803,-0.07031 0.03982,-0.14016 0.06549,-0.20937c0.03636,-0.09806 0.07946,-0.19202 0.12873,-0.28169c-0.5741,-0.44051 -2.03762,-1.80109 -0.78784,-3.45359c1.52783,-2.02016 4.05494,-0.43624 4.05494,-0.43624c2.46247,1.54949 5.85829,3.55141 8.57237,5.72469c0.35683,0.25144 0.72292,0.55863 1.0983,0.92468c0.72217,0.64245 1.36798,1.29598 1.89805,1.95376c1.17621,1.45958 1.48207,2.56009 1.82379,3.51857c0.30004,0.4481 0.5381,0.94446 0.72602,1.46051c0.38036,0.51307 0.94376,1.01742 1.87707,1.55781c0.95297,0.11627 1.58253,0.57026 1.99007,1.0477c0.42692,0.40824 0.78895,0.96904 0.78114,1.69415c0.84911,3.55899 1.97631,6.63965 1.55034,10.15475l0.87843,1.37604c0.34934,0.36433 0.62217,0.85879 0.72057,1.52983c0.00012,0.0008 0.00024,0.0016 0.00036,0.00241c0.08516,0.45068 0.07767,1.00348 -0.24752,1.49591c-0.31117,0.50018 -0.83105,0.76997 -1.29843,0.91547c-0.00082,0.00029 -0.00164,0.00057 -0.00245,0.00087c-0.6087,0.21392 -1.15055,0.24758 -1.62363,0.17342c-3.78367,0.03781 -6.02827,0.33173 -9.4949,1.54868l-0.26725,-0.01901l0.02555,0.07108l-2.42492,0.41995l-1.96193,1.75871c-0.73838,0.69654 -1.97144,0.92253 -3.15065,0.4852c-1.18684,-0.44016 -1.97691,-1.42532 -2.07436,-2.44183l-0.31032,-2.54724l0.07923,0.00105z" fill="#baafcc"></path><path d="M280.04398,104.57932c0.52123,0.42581 0.87828,0.97862 1.01406,1.5593l1.52163,2.03474c3.24654,1.90855 6.04956,4.32751 6.9645,7.35001c0.03109,0.10273 0.05962,0.20555 0.08576,0.30845l0.04729,-0.00862l1.05926,2.85622c0.19862,0.51498 0.22336,1.06871 0.03127,1.58665c-0.4801,1.29455 -2.13286,1.87539 -3.69151,1.29734c-0.11935,-0.04426 -0.23468,-0.09404 -0.3457,-0.1488l-3.23138,-1.54964l0.01896,-0.0357l-0.16347,-0.03766c-1.97481,-1.17804 -4.0088,-2.19642 -6.08319,-3.11941c-0.02407,-3.40313 0.01594,-6.79507 -0.08616,-10.21667c-0.08499,-2.84804 -0.89028,-5.74356 -1.44656,-8.62425c1.87003,1.7021 3.23797,4.19483 4.30525,6.74802z" fill-opacity="0.38824" fill="#2d1440"></path><path d="M273.58138,130.05205c-1.26541,-0.34086 -1.87375,-0.9983 -2.15748,-1.63128c-0.30966,-0.02635 -0.62574,-0.09565 -0.93804,-0.21147c-0.85263,-0.31621 -1.50048,-0.9137 -1.83387,-1.60202l-1.69999,-3.46327l0.1553,-0.04353l-0.3104,-0.34927c-0.78696,-5.88116 -1.59249,-11.85156 0.35327,-17.28787c0,0 0.8693,-2.34399 3.69151,-1.29734c0.25689,0.09528 0.4832,0.2013 0.68236,0.31532c0.71641,-0.80232 2.03053,-1.08679 3.28382,-0.62199c1.26954,0.47083 2.0851,1.56527 2.08454,2.65462l0.11273,4.2497l-0.06691,-0.0057c0.02064,0.08529 0.04039,0.17069 0.05922,0.25621c0.37423,1.70026 -1.36164,3.16545 -1.10415,4.86989c0.15459,1.02332 0.98498,1.96203 1.2665,2.97801c0.34756,1.2543 0.51583,5.11322 0.58778,6.26523l-0.71292,3.26093c0,0 -0.55232,2.44525 -3.45327,1.66384z" fill-opacity="0.1098" fill="#f2d6ff"></path></g><path d="M267.03484,132.5478c-0.16584,-0.28795 -0.27413,-0.55454 -0.33627,-0.80076c-0.15659,-0.03508 -0.31349,-0.08132 -0.46946,-0.13917c-1.18684,-0.44016 -1.97691,-1.42532 -2.07436,-2.44183l-0.30167,-2.47616c-1.58983,-3.84583 -1.51386,-7.73483 -0.74512,-11.57093c-0.36813,-2.70535 -0.55571,-5.37518 -0.3955,-7.85012c0.23296,-3.59885 2.11695,-7.08973 3.34064,-10.38929c0,0 0.02108,-0.05685 0.06734,-0.14888c0.19678,-0.466 0.5902,-1.02119 1.37281,-1.26283c0.48265,-0.17948 1.10673,-0.231 1.90118,-0.00139c0.80406,0.18409 1.34287,0.53657 1.7037,0.93435c0.36603,0.36355 0.55833,0.76006 0.65088,1.13049c0.05764,0.03955 0.08866,0.06348 0.08866,0.06348c0.62426,0.48385 1.19791,1.01532 1.76109,1.55635c0.78277,0.36138 1.20568,0.8723 1.42885,1.36851c0.49275,0.45491 1.00276,0.89317 1.55538,1.2907c0.23678,0.17033 0.47897,0.33425 0.72503,0.49357c0.06433,0.01989 0.12858,0.0417 0.19268,0.06547c0.51317,0.19032 0.95217,0.48253 1.29307,0.83512c1.17595,0.68217 2.37034,1.34172 3.43405,2.15433l1.58655,2.26615c0,0 0.8922,1.54906 -0.11332,2.63331c0.45718,0.42642 0.84973,0.92773 1.16743,1.47165c2.37812,1.6075 4.35378,3.45604 4.56941,6.36432c0.00641,0.08647 0.01129,0.17275 0.01474,0.25884l0.03569,0.00005l0.45436,3.31524c0.05964,0.36671 0.03028,0.74085 -0.10217,1.09797c-0.4801,1.29455 -2.13286,1.87539 -3.69151,1.29734c-0.2582,-0.09575 -0.49761,-0.2173 -0.7152,-0.35936l-2.72187,-1.70598l0.02615,-0.03457l-0.16738,-0.05877c-1.4408,-1.13993 -3.117,-2.09304 -4.87322,-2.75329c-0.21112,-0.07937 -0.42298,-0.15736 -0.63495,-0.23522c0.56842,1.94377 0.9509,3.87586 0.71661,5.81333c0.05627,0.3122 0.09577,0.62817 0.1219,0.94581l1.09168,2.36829c0.2641,0.56231 0.31885,1.183 0.10509,1.75939c-0.14794,0.39891 -0.40722,0.73004 -0.74079,0.98039c-0.43986,0.82251 -1.42453,1.16855 -1.42453,1.16855c-0.5414,0.19027 -1.08281,0.38054 -1.62421,0.57081c0.06403,0.08852 0.12867,0.17652 0.19393,0.264l0.68923,1.16333c0,0 1.38091,2.39756 -1.22938,3.31491c-1.6602,0.58346 -2.82308,-0.17404 -3.44968,-0.80276c-1.56059,-0.4402 -2.1223,-1.95482 -2.1223,-1.95482c-0.04411,-0.11934 -0.08803,-0.23852 -0.13173,-0.35757c-0.76002,-0.1293 -1.61221,-0.54104 -2.2235,-1.60236z" fill-opacity="0.37255" fill="#2d1440"></path></g><g stroke-width="0.5"><g><path d="M205.91372,254.93874c0,0 0.11857,-0.59285 0.54011,-1.10246c0.08956,-0.40124 0.18354,-0.80177 0.28322,-1.20136c0.51847,-2.07843 1.05628,-4.13013 1.54536,-6.19273c0.21494,-6.03784 2.97192,-11.19136 7.65294,-14.83564c2.71909,-2.11687 3.83839,-4.03812 7.79753,-3.66645c0.31835,0.02989 0.61966,0.07414 0.90514,0.1318c0.21078,-1.09152 0.44297,-2.17718 0.70194,-3.25521c0.77346,0.00038 1.53945,-0.00225 2.28627,-0.01323c0.78383,-0.01153 1.57056,-0.01906 2.35923,-0.02523c-0.52503,2.00183 -0.94503,4.03556 -1.2976,6.08823c0.59035,0.93222 1.01215,2.0148 1.3946,3.14365c0.67591,0.0066 1.2805,0.31123 1.68867,0.78878l1.65096,1.90954l-0.05328,0.04606c0.1065,0.09911 0.20896,0.20313 0.3068,0.31275c1.11496,1.24916 1.76941,4.06042 2.19122,6.55185c0.10417,0.16808 0.20977,0.3352 0.31737,0.50098c0.53909,0.83059 1.52269,1.46445 2.02375,2.28994c0.69293,0.38349 1.16208,1.12194 1.16208,1.96998c0,0.48998 -0.15663,0.94339 -0.42254,1.31287l-1.36613,1.95163c-0.28533,0.41918 -0.70855,0.73696 -1.20443,0.88809c-0.66024,0.95878 -1.22757,1.99402 -2.04512,2.81734c-1.06034,1.06782 -2.74933,1.53918 -3.51238,2.83622c-1.17684,2.0004 -1.96512,4.87839 -2.81264,7.03525c-0.4123,1.04926 -0.19407,2.45074 -1.01125,3.22738c-0.02946,0.028 -0.05997,0.0536 -0.09145,0.07698c-0.0097,0.03227 -0.01952,0.0645 -0.02946,0.0967l0.0307,0.01637l-0.08819,0.16537c-0.08648,0.26657 -0.18173,0.53021 -0.28864,0.79l-0.14892,0.10155l0.06981,0.04188l-1.01039,1.68397c-0.18455,0.65089 -0.57497,1.28025 -0.74517,1.93899c-0.58397,2.26026 -1.14381,4.57212 -2.17583,6.6632c-0.13058,0.65559 -0.58897,1.80622 -2.19798,1.80622c-0.18651,0 -0.35756,-0.01546 -0.51443,-0.04382c-0.35244,0.72804 -0.70901,1.45847 -1.06991,2.19363c-1.40879,2.86982 -1.53828,6.42795 -5.7313,7.0486c-0.67615,0.10008 -1.26065,-0.30017 -1.84017,-0.75406l-0.18249,0.05615l-0.01553,-0.05046c-0.0784,0.03899 -0.15762,0.07655 -0.23774,0.11258c-1.01596,0.45688 -2.22051,0.19065 -3.33355,0.23613c-3.47824,0.14215 -6.99295,0.00124 -10.47488,0.00124h-2.4c-1.24264,0 -2.25,-1.00736 -2.25,-2.25c0,-0.58188 0.22088,-1.11216 0.58336,-1.51158l1.39908,-1.55453c-0.07644,-0.48841 -0.12988,-0.97538 -0.18026,-1.43305c-0.18108,-1.64507 1.74685,-4.18904 2.52659,-5.4719c0.72877,-1.199 1.45172,-2.39228 2.17352,-3.58173c0.44931,-1.25687 1.11126,-2.53826 1.5068,-3.3944c0.01049,-0.02272 0.02099,-0.04544 0.03147,-0.06816c0.20338,-0.84803 0.42781,-1.69394 0.68781,-2.53594c0.48524,-1.57144 0.49777,-3.40933 1.52785,-4.69146c0.38219,-0.47571 0.83477,-0.87599 1.32646,-1.23433c0.82044,-2.62704 1.52731,-5.27997 2.06101,-7.96418z" fill="#a69cb5"></path><path d="M281.98501,232.32956l2.09177,-0.06848c3.13382,1.11947 6.15809,2.22816 9.32013,3.10726c0.29492,-0.53217 0.85593,-1.03833 1.92311,-1.03833c2.25,0 2.25,2.25 2.25,2.25c0,0.39897 0.00036,0.79868 0.00079,1.19903c0.0221,0.173 0.02404,0.36166 0.00062,0.56721c0.00627,5.99575 -0.00492,12.12281 -1.03565,18.02483c-0.63149,3.61595 -2.23269,6.93468 -3.23539,10.43198c0.5292,0.41168 0.86964,1.05456 0.86964,1.77695v2.4h-0.05928l0.05434,0.14901c-0.52729,3.99444 -0.59178,7.20662 -1.75852,10.5921c-0.06221,0.52567 -0.18485,1.03592 -0.4078,1.51993c-0.26979,0.58571 -0.59953,1.11634 -0.98074,1.59706c-0.03434,0.06239 -0.06918,0.12492 -0.10449,0.1876c-0.19737,0.41604 -0.54843,0.88152 -1.16478,1.09344c-4.53722,3.70393 -13.01762,3.30696 -18.02872,3.31086h-1.8c0,0 -2.19469,0 -2.24898,-2.16755c-0.25283,-0.36383 -0.40103,-0.80583 -0.40103,-1.28245c0,-0.17835 0.02075,-0.35185 0.05997,-0.51823l0.58997,-2.75322l0.01814,0.00389c-0.00046,-0.02583 -0.00081,-0.05168 -0.00106,-0.07754c-0.02198,-2.36316 1.75239,-5.10495 2.17123,-7.46805c0.77171,-4.35395 1.02236,-8.82954 1.50276,-13.25551c0.01866,-0.6665 0.03832,-1.3351 0.06023,-2.00622c0.04433,-1.35809 -0.09434,-3.75524 0.15082,-5.63333c-1.39508,-2.32311 -2.61843,-4.73598 -3.45257,-7.4301c0,0 -0.10665,-0.34659 -0.09517,-0.80431c-0.00127,-0.04511 -0.00164,-0.09041 -0.00106,-0.13593c0.04221,-3.32559 3.35957,-6.15957 5.36505,-8.41627l2.08167,-0.75518c0,0 2.25,0 2.25,2.25c0,0.30498 -0.04134,0.56861 -0.11281,0.79651c0.56045,-0.13941 1.12223,-0.27353 1.68507,-0.40313c-0.18509,-0.50673 -0.37458,-1.01183 -0.56769,-1.51541c-0.89053,-3.65532 -2.34947,-7.20794 -3.71119,-10.79531c1.37124,0.2569 2.74996,0.51669 4.14043,0.77597c0.32441,0.06049 0.64933,0.11895 0.97472,0.17547c0.55289,1.43726 1.10293,2.87282 1.60645,4.31546z" fill="#a69cb5"></path><path d="M229.10736,175.2463l2.30622,-1.6473c4.89356,-3.49457 10.74771,-7.19409 16.90957,-5.99982c1.32444,-0.09745 2.71117,-0.13251 4.21019,-0.13251h2.66667c1.38071,0 2.5,1.11929 2.5,2.5c0,0.72435 -0.30806,1.37675 -0.80031,1.83333c0.03251,0.03016 0.06422,0.06117 0.09509,0.09299c0.23176,0.01179 0.46405,0.02598 0.6968,0.04356c3.67946,0.27787 7.023,1.28344 10.35949,2.79512l0.41465,0.06551c0,0 0.94242,0.2356 1.43397,1.01644c0.17496,-1.06838 1.10244,-1.88361 2.22032,-1.88361c0.74548,0 1.40628,0.36254 1.81571,0.92094l2.36395,3.15194c3.17284,2.72746 4.79116,7.19864 6.34377,11.57131c1.18558,1.54271 2.23851,3.19863 3.09778,5.01727c0.69991,1.48133 0.92298,3.13394 1.16499,4.77048c1.32563,2.84123 2.13401,5.86871 3.30375,8.78463c0.48872,1.2183 1.69121,2.23714 1.70508,3.54973c0.00148,0.14001 -0.00054,0.27966 -0.00576,0.41899l0.07925,-0.00661l0.12406,1.48873c3.75902,6.8176 6.18946,14.52566 6.25607,22.32071c0.0101,0.15034 0.00756,0.31197 -0.00982,0.48575c-0.07171,0.71705 -0.3501,1.18149 -0.69543,1.48156c-0.33294,0.31376 -0.82277,0.54457 -1.5434,0.54457v-0.00001c-0.17647,0 -0.33909,-0.01384 -0.48896,-0.03935l-1.51104,-0.16065c-5.54874,-0.00292 -8.74012,1.54575 -13.33371,4.48262c-0.22566,0.17025 -0.4631,0.2846 -0.65909,0.35941c-0.24823,0.09679 -0.58882,0.19126 -0.96354,0.18532l-1.36186,0.15003c-3.02847,-0.53391 -6.22012,-1.82295 -8.13355,-4.54929c-1.42656,-2.03263 -0.61911,-3.30032 -1.29227,-5.39568c-0.86974,-2.70726 -2.4078,-5.30895 -3.22277,-8.07613c-0.12424,-0.42185 -0.23377,-0.84313 -0.33385,-1.26397c-4.69484,-4.38684 -7.79663,-10.05466 -9.97293,-16.21817c-0.09032,0.18414 -0.17636,0.37031 -0.25698,0.55896c-0.76332,1.78605 -0.99529,3.78242 -1.85699,5.52313c-2.06686,4.17524 -4.6859,8.15002 -6.8561,12.32827c-1.8201,5.08846 -3.80211,9.58137 -7.85076,12.84921c-0.4504,0.89534 -0.85269,1.81611 -1.18668,2.77304l-0.50646,1.04948c0,0 -1.00623,2.01246 -3.01869,1.00623c-1.27062,-0.63531 -1.33788,-1.67175 -1.21481,-2.34952c-0.03433,-0.01665 -0.06853,-0.03455 -0.10255,-0.05378c-0.41219,-0.22808 -0.67493,-0.57967 -0.84053,-0.90646c-0.02896,-0.05474 -0.05706,-0.11192 -0.0842,-0.17164c-0.24662,-0.54257 -0.28419,-1.00675 -0.20617,-1.396l-0.00686,-0.23322c-1.56006,-3.6533 -3.18548,-5.15322 -6.85702,-6.84781c-1.21039,-0.55865 -3.01913,-0.86381 -4.6805,-1.30036c-0.45295,0.18363 -0.89399,0.159 -1.26239,0.06153c-0.61988,-0.09853 -1.02493,-0.39479 -1.28963,-0.73992c-0.07094,-0.05459 -0.14297,-0.10828 -0.2157,-0.1614c-0.19354,1.60752 0.0364,3.28454 -0.41676,4.83867c-0.00153,0.00524 -0.00306,0.01048 -0.00459,0.01571l0.00304,0.0003l-0.07802,0.78024c0.05793,-0.01241 0.11571,-0.02321 0.17332,-0.03188l1.66959,-0.02193c0,0 2.5,0 2.5,2.5c0,2.5 -2.5,2.5 -2.5,2.5l-2.33041,-0.02193c-0.0356,-0.00894 -0.07138,-0.01756 -0.10732,-0.02588c-0.37449,0.90841 -1.26871,1.54781 -2.31227,1.54781c-1.38071,0 -2.5,-1.11929 -2.5,-2.5v-0.05594c-0.13332,-0.08738 -0.26062,-0.18589 -0.38096,-0.29725c-1.26646,-1.172 -0.61904,-7.33904 -0.61904,-9.14681c0,-4.23931 0.71201,-8.48933 2.06446,-12.54575c0.15708,-1.89426 0.4275,-3.7714 1.09083,-5.57161c1.27258,-3.45364 2.65813,-6.85403 4.05067,-10.25003c0.65017,-1.94724 1.34278,-3.86418 2.06266,-5.77031c1.2282,-4.62893 3.08827,-8.9959 4.89959,-13.51379c0.34331,-0.8563 -0.06307,-2.0521 0.58958,-2.70415c0.1538,-0.15366 0.31478,-0.29808 0.48177,-0.43476l-0.12099,-0.10587l1.74069,-1.98936c0.43279,-0.49986 1.06047,-0.82634 1.76488,-0.86126c0.188,-0.39553 0.47681,-0.73388 0.83322,-0.98181zM270.50468,177.83251l-0.26484,-0.41617c-0.03,-0.04553 -0.05839,-0.09221 -0.08509,-0.13996c-0.01084,0.0657 -0.02426,0.13303 -0.04044,0.20202c0.12973,0.1183 0.25988,0.23633 0.39037,0.35411z" fill="#111732"></path><path d="M226.90196,252.32924c-0.37682,1.23865 -0.79874,2.62954 -1.81194,3.43559c-0.9614,0.76484 -2.36525,0.70617 -3.58442,0.8575c-2.70219,0.33542 -5.84743,0.0747 -8.58558,0.00767c-1.2005,-0.02939 -2.50051,0.33692 -3.5996,-0.14688c-1.25999,-0.55462 -2.40581,-1.56632 -3.05293,-2.7814c-0.25662,-0.48184 -0.19763,-5.6728 -0.19746,-6.32173c0.00132,-5.24074 1.38307,-9.08935 3.37308,-13.86539c0.63014,-1.49292 1.64382,-2.80143 2.78964,-3.98672c-0.1356,-4.38962 2.99749,-10.17395 3.88915,-14.22825c0.44754,-2.03493 0.35159,-4.47304 1.31122,-6.37607c0.0283,-0.13581 0.05668,-0.2715 0.08518,-0.4071c0,0 0.38613,-1.83413 2.12757,-1.80191c1.214,-0.39953 5.65508,-0.08445 6.67377,-0.03769l2.05875,1.66787c0.54326,0.25641 0.83886,0.70203 0.99969,1.11106c0.1886,0.37175 0.32129,0.85596 0.19004,1.39665c-0.05438,7.08672 -1.24902,14.11914 -1.53636,21.17468l0.1305,1.56601l-0.17884,0.0149c-0.0077,0.38678 -0.01221,0.77364 -0.0132,1.16061c0.21009,1.39804 0.16703,2.8784 -0.00796,4.9982l-0.39153,1.33004c0.0162,3.37324 0.29447,8.06603 -0.66877,11.23235z" fill="#baafcc"></path><path d="M278.87002,255.98c0,-0.15473 -0.00745,-6.10393 0.02175,-6.31208c0.2413,-1.71991 1.04998,-3.34207 1.18592,-5.0735c0.48824,-6.21881 1.11493,-12.46518 2.22658,-18.60549c0.16879,-0.93234 0.4653,-1.80023 0.81217,-2.64347c0.14394,-2.4143 0.6082,-4.71654 1.2206,-7.11055c0.27352,-1.06926 0.25507,-2.30492 0.93084,-3.17754c0.06664,-0.08605 0.13542,-0.17003 0.20614,-0.25211l-0.05223,-0.03324l1.37966,-2.16805c0.22543,-0.36698 0.5532,-0.66434 0.94357,-0.85233c0.46193,-0.40026 0.98299,-0.54237 0.98299,-0.54237c1.68741,-0.44624 3.44664,-0.6664 5.19202,-0.67928l0.18871,0.20548c2.06129,0.12215 2.06129,2.24452 2.06129,2.24452c-0.00004,0.00269 -0.00007,0.00539 -0.00009,0.00808c-0.05908,5.01062 1.3724,10.10559 1.40009,15.19192v1.8c-0.00229,5.28201 0.0089,10.64729 0.19891,15.92979c0.183,5.08754 1.34526,9.63848 -1.31955,14.22782l-0.08625,0.10147c-0.23958,0.44788 -0.62839,0.73222 -0.95502,0.90409c-0.26693,0.15562 -0.62381,0.30642 -1.03028,0.33133c-4.47415,1.00633 -8.41471,1.47984 -13.0277,0.72488l-1.565,-2.34425c-0.47265,-0.33058 -0.70118,-0.81992 -0.81167,-1.21582l-0.00854,-0.01279c0,0 -0.03713,-0.12375 -0.06393,-0.32085c-0.03096,-0.19648 -0.03096,-0.32568 -0.03096,-0.32568z" fill="#baafcc"></path><path d="M271.76565,148.54019c0.50867,7.98021 3.45707,16.80069 1.53717,24.68552l-0.39011,0.27903c0.42554,0.49981 0.76368,1.29363 0.21975,2.3815c-1.00623,2.01246 -3.01869,1.00623 -3.01869,1.00623l-1.88406,-0.96919c-1.65071,-1.15949 -3.68093,-3.7123 -5.61539,-4.3068c-0.69236,-0.21278 -1.51734,0.22329 -2.17152,-0.08647h-2.7228c-0.81736,0 -1.53292,-0.43583 -1.92698,-1.08778c-4.76529,-0.1969 -9.43018,0.60107 -14.24395,1.99805c-2.2199,0.64423 -5.18166,0.53961 -7.26477,1.47261c-2.63814,1.18159 -4.50938,6.32637 -7.54172,6.57708c-3.13556,0.25924 -6.16523,-2.0634 -5.27079,-5.49974c0.03886,-0.14932 0.08589,-0.29492 0.14003,-0.43726l-0.07464,-0.01866l0.3553,-1.4212c-2.71862,-0.87311 -1.71463,-2.70285 -2.10951,-4.64632c-1.35603,-1.13173 -2.58444,-2.42089 -3.1616,-3.77543c-0.36103,-0.84729 -0.4503,-1.98273 -0.48592,-3.1809c-0.12169,-1.0067 -0.14299,-2.08013 -0.11881,-3.16379c-0.05067,-0.51856 -0.1304,-1.0086 -0.26008,-1.44852c0,0 -0.36099,-1.26346 0.43431,-2.13516c0.04428,-0.80126 0.07912,-1.57096 0.07912,-2.28296v-2c0,-4.43791 0.06259,-8.83937 0.20109,-13.27021c0.11378,-3.63977 -0.15593,-7.99129 1.64338,-11.34978c0.97212,-1.8145 2.93075,-2.89148 4.38868,-4.34471c1.30803,-1.30382 2.06522,-3.22511 3.65628,-4.16288c2.38578,-1.40618 3.76462,-0.97959 6.28454,-1.30542c4.63895,-0.59982 8.59907,-0.31195 13.26209,0.01637c3.67167,1.03529 7.20078,2.22861 10.66572,3.8276l0.00734,0.00439c0.45035,-1.46536 2.14088,-1.46535 2.14088,-1.46535c3.66667,0 7.33333,0 11,0h0.4c0.78141,0 1.29145,0.27138 1.62435,0.62565c0.62565,0.6658 0.62565,1.62435 0.62565,1.62435c0,2.06667 0,4.13333 0,6.2v0.4c0,0 0,0.20975 -0.06404,0.50117c-0.42219,6.85235 -0.77641,13.91727 -0.34031,20.75902z" fill="#a69cb5"></path><path d="M276.8206,165.25654c-0.7552,0.65755 -1.30443,1.64405 -2.23954,2.0022c-1.60772,0.61576 -4.82695,-0.03329 -6.45609,-0.26369c-5.04352,-1.07834 -11.07512,-2.20347 -15.56915,-4.88966c-4.60978,-2.75537 -7.14775,-7.6782 -10.83765,-11.34534c-1.88871,-1.87706 -3.25171,-3.73056 -4.9346,-5.74923c-1.5828,-1.89862 -3.3274,-2.96597 -4.82528,-4.81206c-0.13568,0.02032 -0.28152,0.03124 -0.43828,0.03124c-2.25,0 -2.25,-2.25 -2.25,-2.25v-1.6c0.22326,-4.8636 3.40473,-7.63055 7.04089,-10.69751c1.13328,-0.50499 2.17987,-1.2891 3.39984,-1.51496c3.37231,-0.62434 6.25225,0.98812 9.21797,2.11282c3.69731,1.40214 7.69361,2.38955 11.29309,4.03827c2.22784,1.02044 5.0911,2.98885 7.26775,4.03098c3.80009,1.8194 7.42669,2.96532 10.78764,5.6358c0.91782,0.72926 2.06977,1.30592 2.62849,2.33649c0.74655,1.377 0.82929,3.55325 0.74369,5.72154c0.3974,2.56223 -0.07936,6.03571 -0.07936,8.33657v2.4c0,1.07439 -0.75303,1.97289 -1.76009,2.19651c-0.65065,1.61219 -1.60192,3.07201 -2.98933,4.28003z" fill="#6390d6"></path><path d="M277.89905,199.62451c-0.47563,0.01834 -0.84074,-0.09401 -0.84074,-0.09401l-2.88161,-0.90778c-1.14997,-1.03333 -3.98836,-2.79427 -4.04724,-4.50626c-0.38631,0.19858 -0.77085,0.40422 -1.15261,0.62072c-0.46082,0.42432 -0.98232,0.53029 -1.43307,0.51001c-0.46685,0.03082 -1.01261,-0.07247 -1.49525,-0.52709l-1.91952,-1.14911c-0.36429,-0.36684 -0.70011,-0.7523 -1.0161,-1.1504c-0.68766,-0.06276 -1.28587,-0.43492 -1.65423,-0.9761l-1.38195,-1.9742l0.02002,-0.01402c-0.02588,-0.02369 -0.0516,-0.04759 -0.07715,-0.07171c-1.2518,-1.18179 -2.12341,-2.86733 -2.70343,-4.68997c-1.89931,-2.05738 -3.0798,-3.9003 -1.5968,-7.34416c0.22626,-0.52541 0.91785,-1.20208 1.7522,-1.88039l0.52927,-0.97033c-1.03275,-0.94348 -2.1625,-1.6923 -3.38157,-2.36612c-0.41676,0.30852 -0.87803,0.49933 -1.39866,0.4942c-4.01982,-0.03956 -3.92687,-8.04638 -3.26088,-10.27688c1.53158,-5.12946 7.88162,-9.93372 12.59135,-11.68546l1.36947,-0.26109c0.71225,-0.22567 1.2708,-0.088 1.68829,0.16639c0.4354,0.20817 0.85055,0.59359 1.05335,1.29597c0.84122,1.97556 1.53943,4.03883 1.87946,6.15725l0.08332,0.49982c0.69019,-0.45317 1.39547,-0.78518 2.0187,-0.9428c3.82864,-0.9683 7.74033,-0.41315 11.34941,0.88407c1.1427,-0.30029 2.43009,-0.26567 3.4347,0.08403c0.69549,0.2421 1.04156,1.31403 1.20988,2.56658l0.67333,0.67333l-0.56086,0.56086c0.00946,0.17033 0.01682,0.34021 0.02245,0.50817l0.81691,1.77396c-0.26456,-0.01833 -0.53398,-0.0205 -0.80616,-0.01349c-0.00579,0.40442 -0.01391,0.73883 -0.01334,0.9615v1.4c0,0 0,0.12284 -0.0287,0.3111c-0.02413,0.18891 -0.05787,0.30702 -0.05787,0.30702c-0.90441,3.16527 -1.59687,6.06161 -1.88419,9.31837c1.02487,2.22026 2.57074,3.71208 3.66681,5.73418c1.43718,2.65139 0.90395,6.06287 0.90395,8.92934l-0.35435,1.94966c0.03168,0.56954 -0.19693,1.02818 -0.45954,1.36132c-0.22819,0.35403 -0.58429,0.7165 -1.1267,0.87331c-2.20493,1.22624 -4.43695,2.09094 -6.70318,3.22817l-1.43127,0.44101c-0.50938,0.27644 -0.98892,0.28951 -1.39591,0.19103z" fill="#baafcc"></path><path d="M278.15961,198.20095l-2.7511,-0.88641c0,0 -1.5714,-0.5238 -1.56823,-2.02082c-1.015,-0.48281 -1.78083,-1.34104 -2.60068,-3.25679c-1.27835,-2.9871 0.02743,-5.84399 0.03042,-8.85692c0.00462,-4.65099 -1.07781,-9.53605 -1.58693,-14.15781c-0.20603,-1.87032 -0.93553,-6.93734 0.06457,-8.52491c1.95237,-3.09922 5.65245,-2.54682 8.62284,-3.29913c0.25977,-0.13593 0.58068,-0.23104 0.97696,-0.26152c0.63234,-0.04864 1.10014,0.09466 1.44594,0.32557c0.347,0.22909 0.66061,0.60464 0.86116,1.20629c0.12248,0.36742 0.16062,0.69268 0.13984,0.97941c0.1657,2.559 0.09112,5.12508 0.36107,7.67665c0.24692,2.33389 1.30433,4.45618 1.59465,6.75681c0.09803,0.77687 -0.2512,1.59229 -0.04836,2.34859c0.52675,1.96407 1.88291,3.64156 2.40193,5.60769c0.86696,3.28421 1.47118,6.40197 2.03573,9.77247l0.35106,1.92963c0.2318,0.66642 0.11446,1.21197 -0.11476,1.62949c-0.18531,0.44459 -0.54435,0.88146 -1.22438,1.11425c-3.19992,1.64472 -5.33721,1.94373 -8.99173,1.91747z" fill="#721c67"></path><path d="M276.83474,186.00809c-1.25155,-1.51318 -0.8898,-4.1754 -0.96306,-5.94174c-0.17829,-4.29851 -0.20166,-8.57911 -0.20166,-12.88635c0,0 0,-1.69324 1.46888,-2.14196c0.85758,-1.75759 1.92998,-3.11414 3.13457,-4.78359c0.02281,-0.41458 0.15784,-0.79926 0.37525,-1.12415l1.66008,-2.56558c0.33135,-0.66891 0.60642,-1.2214 0.70772,-1.38435c1.88358,-3.03013 4.058,-5.90569 6.28627,-8.73638c2.4068,-4.11284 5.06538,-8.10923 7.49987,-12.04135c1.00279,-1.61968 2.44557,-2.95974 3.31742,-4.65349c1.74014,-3.38062 2.04474,-7.81822 4.10215,-10.97779c0.95558,-1.46747 2.4992,-2.52379 3.32279,-4.06921c1.44211,-2.70603 2.54195,-5.21779 4.30059,-7.76673c0.89549,-1.39292 2.0767,-2.58062 3.07291,-3.90339c1.48518,-1.97201 1.90568,-4.68514 2.99306,-6.86622c0.92026,-1.84588 1.91584,-3.66181 2.97794,-5.43766c-0.18869,-0.88933 0.30116,-1.70576 0.30116,-1.70576c2.52904,-4.19183 4.14397,-8.81646 5.81483,-13.41131l0.63392,-1.74327c0.06459,-0.49587 0.32015,-0.88517 0.58096,-1.16297c0.2418,-0.30163 0.59796,-0.61404 1.09071,-0.74453c4.39423,-2.24498 9.42628,-3.55448 13.62605,-6.09426c4.53544,-2.74278 7.26349,-6.83944 10.011,-11.14986c0.14831,-0.43643 0.30073,-0.87148 0.45736,-1.3051c0,0 0.03346,-0.09199 0.10559,-0.23063c0.18947,-0.39896 0.54067,-0.90476 1.15721,-1.13742c0.3836,-0.16114 0.86526,-0.21245 1.4591,-0.03157c0.6014,0.15389 0.98634,0.44791 1.23044,0.78486c0.406,0.51906 0.44339,1.13368 0.39807,1.57302c-0.01036,0.15594 -0.02956,0.25193 -0.02956,0.25193l-0.02687,0.09343c-0.03296,0.14639 -0.0649,0.23423 -0.0649,0.23423c-0.00382,0.01043 -0.00764,0.02085 -0.01146,0.03128l-0.40484,1.40777c-0.06539,0.10274 -0.13079,0.20538 -0.19622,0.30791c-3.84976,11.48452 -4.65846,24.06327 -4.65202,36.08412l-0.18148,2.08484c-0.0016,0.29287 -0.05926,0.56015 -0.12302,0.76711c-0.06392,0.21333 -0.16871,0.47608 -0.33847,0.72662c-2.91156,5.12338 -7.59027,8.91988 -11.26177,13.4415c-1.04649,1.28881 -1.8233,2.63937 -2.73348,3.94405c0.26696,0.97402 -0.33965,1.88394 -0.33965,1.88394c-2.27585,3.41342 -5.19339,6.88652 -7.11297,10.45838c-2.00183,3.72491 -4.24623,8.57234 -7.08206,11.79351c-1.68207,1.91063 -4.17305,2.92741 -5.55169,5.26424c-2.11651,3.58755 -4.71015,7.18387 -7.70022,10.19185c-1.42829,1.55444 -2.66025,3.21514 -3.99692,4.80541c-2.81885,5.44774 -6.36298,10.29622 -10.58718,14.77781c-3.63878,3.86049 -8.31633,6.37062 -10.95601,10.95453c-1.1228,3.6781 -3.77578,6.72214 -7.57036,2.1343z" fill="#f0bcd4"></path><path d="M197.09318,281.86127c1.28697,-0.86017 4.67597,-1.17503 6.06856,-1.85654c1.6759,-0.82016 2.0326,-2.10108 4.33155,-2.10108c2.24201,0 2.52454,1.21338 3.67879,2.11516c1.21862,0.95207 3.3876,1.11008 4.58678,2.04515c1.0007,0.7803 1.81866,1.69304 2.52663,2.63765c1.4371,0.43058 2.69396,1.54937 3.63956,2.15354c0.88538,0.56569 2.05398,0.28525 3.04456,1.11313c1.4281,1.19354 0.62301,5.99137 -0.70303,7.65553c-0.49928,1.19384 -2.62786,1.04217 -4.04999,1.47917c-4.49337,1.38077 -8.76096,1.28843 -13.54597,3.18397c-0.89287,0.3537 -5.05418,2.48791 -6.22149,1.6738l-0.35725,-0.31957c-2.45933,-0.53515 -5.6074,-2.38879 -7.76661,-3.98425c-0.51977,0.07548 -1.0765,0.04919 -1.65058,-0.11293c-2.37351,-0.67026 -3.86198,-4.6173 -2.23206,-5.70668c0.01776,-0.01187 0.03577,-0.02368 0.05402,-0.03544c0.6294,-1.76938 2.04754,-2.41662 3.15614,-4.01971c0.42073,-0.60839 1.42689,-2.77967 2.62725,-2.83278c0.51164,-0.02264 1.17046,-0.97805 1.92923,-1.46888c0.20334,-0.74736 0.50716,-1.36743 0.88393,-1.61925z" fill="#baafcc"></path><path d="M290.36368,279.65c3.95949,0 6.50084,4.83245 9.28974,7.08654c0.52872,0.42733 1.20792,1.92148 1.70186,2.00051c1.74656,0.27945 4.90561,1.10313 6.32805,2.05878c1.06691,0.71678 1.4855,2.46647 0.84631,3.58504c-0.37277,0.65234 -1.03402,1.01317 -1.79219,1.18626c-0.23415,0.74265 -0.60191,1.34529 -1.05412,1.6037c-1.53793,0.87882 -3.9921,-0.1855 -5.57979,-0.1875c-5.25842,-0.00663 -12.88995,0.78772 -18.77372,-0.78555c-2.08395,0.07344 -4.16572,0.12524 -6.2435,0.11888c-3.36479,-0.01029 -8.41909,2.57601 -10.08849,-0.34546c-0.36372,-0.21466 -0.66834,-0.51879 -0.88359,-0.88212c-4.71196,-4.01886 1.27186,-7.93288 1.58992,-9.02242c0.17615,-0.60343 0.72319,-2.13659 1.5364,-2.18176c0.39131,-0.25403 0.85814,-0.40157 1.35944,-0.40157c0.02735,0 0.0546,0.00044 0.08174,0.00131c1.20033,-3.70984 5.14385,0.33059 5.26476,0.33417c0.92139,0.0273 7.26137,-3.57803 9.0296,-4.20719c1.31177,-0.46674 6.5389,-1.44371 7.38555,0.03792z" fill="#baafcc"></path></g><path d="M268.4714,142.45508c-0.5256,0.91981 -1.19041,1.3292 -1.83057,1.47396c-0.62191,0.1848 -1.39136,0.15586 -2.28644,-0.37134c-2.09602,-1.2044 -4.8449,-3.10727 -7.17698,-3.67128c-3.36986,-0.81501 -7.48563,-0.58641 -10.97741,-0.58641c-2.47063,0 -4.9862,-0.52858 -7.41165,-0.05826c-2.82689,0.54816 -3.62466,1.9377 -5.87019,3.51751c-3.16794,2.22876 -6.75146,3.59752 -10.02308,5.68335l-2.2563,1.61164c-0.4797,0.35174 -1.0678,0.56434 -1.70486,0.57835c-0.09996,0.143 -0.20124,0.28528 -0.30397,0.42676c-1.57821,2.17347 -3.64789,3.71616 -5.79474,5.2172c-0.1231,1.09096 -0.00115,2.15198 0.10705,3.19071c0.5697,0.54605 0.9244,1.31464 0.9244,2.16608c0,1.12415 -0.61831,2.10389 -1.5334,2.61769c-0.43049,0.7324 -1.09334,1.45919 -2.09415,2.1835c-1.32022,0.95547 -3.12837,0.9668 -4.7435,1.18421c-3.59495,0.48391 -11.10675,-0.34902 -10.23838,-5.74532c-4.91877,-0.31251 -9.45067,-1.54421 -12.99823,-5.61704c-1.37245,-1.57567 -1.96068,-3.73032 -3.31969,-5.31759c-0.58091,-0.67848 -1.50296,-1.01948 -2.05003,-1.72553c-3.42121,-4.41543 -4.66891,-9.46454 -4.68927,-14.91216c0,-0.00037 0,-0.00073 0,-0.0011c0,0 0,-0.19167 0.04845,-0.47811l0.21012,-2.07364c1.42254,-3.20072 2.66731,-6.74439 4.53675,-9.71443c1.47115,-2.33727 3.50117,-4.28967 4.97454,-6.62554c1.17081,-1.8562 2.24568,-3.85198 3.8738,-5.32355c3.00839,-2.71913 7.50004,-3.97446 11.47216,-4.73372c1.29433,-0.24741 2.91777,0.49774 3.93908,-0.33498c0.3044,-0.2482 0.04847,-0.79097 0.16116,-1.16722c0.51814,-1.73 1.13483,-3.43567 1.52206,-5.1996c0,0 0.64442,-2.89991 3.53643,-2.28709c1.2722,-0.49465 4.09612,-1.57551 5.06602,-2.22804c2.45981,-1.65492 4.25807,-4.1414 6.96477,-5.50743c6.38677,-3.22329 13.91707,-4.02013 20.90332,-4.32406c7.91505,-0.34434 15.94769,-1.28741 23.51138,1.52175l2.02796,1.16265c7.67743,3.89531 12.94835,10.00074 16.8997,17.56909c0.97929,1.87571 1.1462,4.07665 1.84608,6.07351c0.36435,1.03954 1.21106,1.90077 1.42598,2.98114c0.72486,3.64386 -0.18404,5.02258 -2.11196,8.05213c-0.69842,1.09751 -2.02603,1.55109 -1.81514,3.09382c0.23448,1.71527 1.50842,3.14412 1.92025,4.82565c0.786,3.20929 0.28977,4.27591 -0.11379,7.75978c-1.59387,0.75688 -3.05353,1.91427 -4.78162,2.27063c-3.97698,0.82012 -6.79101,-4.21253 -8.59338,0.86901l-1.14941,1.96755c-0.0011,0.00193 -0.0022,0.00385 -0.0033,0.00578z" fill="#721c67"></path><path d="M248.67386,44.36472h2.8239c3.10179,0.00209 6.57749,-0.29387 9.34998,1.46863c3.68106,2.34011 6.90299,7.45136 8.71373,11.22019c1.23576,2.57207 3.34982,5.77222 2.40956,8.87055v2.60667c0,0.39555 -0.09398,0.76914 -0.26083,1.09969c0.05709,0.36059 0.03516,0.62382 0.03516,0.62382c-0.27109,2.9562 -1.24711,5.33925 -1.9674,8.18594l-0.02383,0.28595l0.72557,0.30233l-1.06433,2.55441c-0.15387,0.39452 -0.4073,0.73924 -0.72939,1.00327c0.3962,2.85574 -2.10386,6.9851 -4.09094,8.65851c-0.4953,0.41711 -1.04709,0.75709 -1.60916,1.08304l-0.49923,0.59l-0.21345,-0.18062c-0.01351,0.00781 -0.02701,0.01564 -0.0405,0.02347c-0.99048,1.42844 -2.37521,2.25639 -5.31304,3.10851l-1.82521,0.61237c0,0 -0.1484,0.04947 -0.38264,0.08582c-0.23371,0.03959 -0.39014,0.03957 -0.39014,0.03957c-0.02135,-0.00064 -0.04272,-0.00126 -0.06408,-0.0019c-0.07361,0.0007 -0.15013,-0.00127 -0.22871,-0.00678c-0.99904,-0.0296 -1.99808,-0.05919 -2.99713,-0.08878l-0.19558,-0.25528l-1.52491,0.12707l-0.97338,0.00545c-0.56108,0.13424 -1.07425,0.00411 -1.46934,-0.17999c-0.40295,-0.14679 -0.84975,-0.41132 -1.15152,-0.88807c-1.86585,-1.81422 -3.91366,-3.39732 -5.88107,-5.05379l-0.05842,-0.02149c-0.00845,-0.00844 -0.07341,-0.07338 -0.18022,-0.18017c-1.29947,-1.10224 -2.55895,-2.24214 -3.70203,-3.50839l-0.02887,-0.15258l-0.05567,0.03897l-1.5034,-2.14771c-0.28881,-0.4013 -0.45891,-0.89375 -0.45891,-1.42593c0,-0.12854 0.00993,-0.25477 0.02904,-0.37795c-0.12938,-0.17553 -0.26248,-0.35315 -0.39996,-0.53302c-1.40153,-1.83374 -3.07788,-3.63732 -3.67924,-5.86562c-0.37656,-1.39536 -0.29356,-5.17745 -0.29432,-6.69124l0.6497,-2.47436c-0.03518,-2.78117 -0.51633,-6.66457 0.32023,-9.29939c2.01583,-6.34907 9.72461,-11.93248 16.23714,-12.36611c0.71186,-0.89508 1.96287,-0.89508 1.96287,-0.89508z" fill="#6390d6"></path><path d="M275.59978,56.13931c0.96311,1.8937 0.92683,4.49847 1.39853,6.51242c0.76901,3.28336 1.35169,6.24647 1.35169,9.66493c0,6.46656 -3.36552,10.53258 -7.16675,15.30484c-0.55846,0.70112 -1.29525,1.16473 -1.95601,1.69304c-0.06496,0.59662 -0.01941,1.23665 -0.01622,1.85269c0.28463,0.38634 0.41593,0.90364 0.26716,1.55326c-0.25752,1.1245 -1.62887,1.52319 -2.65953,1.18341c-0.53845,0.01971 -1.14006,0.00363 -1.69995,-0.02513l-0.93159,0.31053c-0.07926,0.0285 -0.16471,0.04402 -0.25378,0.04402c-0.41421,0 -0.75,-0.33579 -0.75,-0.75c0,-0.32193 0.20283,-0.59649 0.48768,-0.70285l0.80088,-0.32035c0.29413,-0.14017 0.59866,-0.35213 0.90253,-0.52373l-0.24121,-0.04824c-0.35054,-0.06296 -0.61654,-0.3695 -0.61654,-0.73816c0,-0.23943 0.1122,-0.45266 0.28689,-0.58998l0.77947,-0.62357c0.6892,-0.85465 1.06745,-1.34607 0.28231,-2.13352c-0.15896,-0.09248 -0.24546,-0.23635 -0.29251,-0.36552c-0.05608,-0.12034 -0.09584,-0.27638 -0.05616,-0.44706v-0.007c0,-2.00408 -0.44922,-4.0469 -2.11197,-5.3851c-2.30523,-1.85528 -5.25967,-1.90982 -5.67263,-4.87188c-4.49549,1.99834 -9.11628,3.78847 -13.84089,5.11482c-2.37268,1.35582 -5.16206,1.96635 -7.27577,3.85367c-1.91879,1.71328 -2.69881,4.30077 -4.5,6c-0.83676,0.7894 -2.0913,0.78471 -3.19946,0.83272l0.01738,0.03911c-1.84063,-0.01083 -3.53136,0.65715 -5.30266,1.14024c0,0 -0.03764,0.01027 -0.09809,0.01753c-0.06023,0.0089 -0.09925,0.0089 -0.09925,0.0089l-0.00886,-0.00189c-0.1041,0.001 -0.23414,-0.01458 -0.35726,-0.07617l-0.66421,-0.14161c-0.55561,-0.56055 -1.06234,-1.1802 -1.47078,-1.85556c-0.34237,-0.7965 -0.76853,-1.58982 -1.14598,-2.39785c-1.27703,0.34566 -1.53601,-1.31733 -1.58908,-2.34863l-0.12438,0.08972c-2.67811,0.54296 -5.50619,2.10771 -8.17793,3.05853c-0.1339,0.2048 -0.36524,0.34012 -0.6282,0.34012c-0.41421,0 -0.75,-0.33579 -0.75,-0.75v-0.08437c-0.01391,-0.08745 -0.01251,-0.16639 0,-0.23743v-0.59944c-0.02736,0.00302 -0.05517,0.00458 -0.08333,0.00458c-0.41421,0 -0.75,-0.33579 -0.75,-0.75v-0.83333c0,-3.69878 1.35184,-7.20768 2.78331,-10.58333c-0.95555,0 -1.91109,0 -2.86664,0c-0.11111,0 -0.22222,0 -0.33333,0c0,0 -0.46286,0 -0.66135,-0.36362c-0.05747,0.01867 -0.1152,0.03695 -0.1732,0.05482l0.09789,0.26105l-1.31715,0.49393c-0.08639,0.03472 -0.18072,0.05382 -0.27953,0.05382c-0.41421,0 -0.75,-0.33579 -0.75,-0.75c0,-0.24849 0.12085,-0.46876 0.30698,-0.60524l0.57282,-0.42961c0.47614,-0.78689 0.30107,-1.61526 0.28765,-2.52768c-0.00779,-0.09456 0.00245,-0.18228 0.01629,-0.25072c0.01305,-0.06598 0.03607,-0.1472 0.07668,-0.22841l0.22035,-0.52885c1.05293,-2.52497 2.26087,-4.64957 3.64671,-7.01714c2.23845,-2.1888 3.72319,-4.47101 5.73035,-6.74587c1.19683,-1.35645 2.76999,-2.0946 4.01961,-3.35441c0.86241,-0.86944 1.38474,-2.2325 2.21018,-3.04154c0.40382,-0.39579 1.2939,-0.61836 2.10969,-0.80484c1.46708,-1.5185 3.38054,-2.16919 5.70354,-3.46278c1.35088,-0.75225 2.49894,-1.89504 3.81751,-2.6581c0.62433,-0.3613 1.35085,-0.60003 2.08461,-0.82083c0.94828,-0.61423 1.96427,-1.15463 3.14092,-1.54198c3.00909,-1.72687 5.63464,-2.01155 8.94796,-1.38512c1.0507,0.19865 2.60921,-0.44835 3.21955,0.74772c0.7,-0.52295 0.42681,-2.74032 0.77904,-3.79827l0.03818,-0.04035l-0.01609,-0.00805l0.49273,-0.98547c0.12026,-0.25368 0.37868,-0.42912 0.67809,-0.42912c0.41421,0 0.75,0.33579 0.75,0.75v1.5c0.05292,0.32269 0.08318,0.62365 0.09252,0.90446c3.0133,-0.07814 6.93054,-0.46212 9.51138,0.93428c1.3467,0.72865 2.31701,2.20381 3.20837,3.33157c1.06988,1.35363 2.85709,2.06186 3.90906,3.43539c1.10095,2.19427 2.91851,3.63274 3.27289,6.13461l0.0014,0.10283c0.86487,0.80224 2.07388,1.63626 2.58751,2.64618zM209.68377,75.03834c-0.03173,-0.02892 -0.0648,-0.05833 -0.0989,-0.08821c-0.07479,0.03424 -0.14933,0.06851 -0.22366,0.10276c0.10758,-0.00384 0.21519,-0.00862 0.32256,-0.01454zM207.6,76.56667c0.33801,0 -0.65184,0.01472 0,0zM241.3451,42.54897c0.0132,-0.00003 0.0264,-0.00006 0.03961,-0.00009l-0.00564,-0.01065c-0.01133,0.00357 -0.02265,0.00715 -0.03397,0.01074zM211.34536,74.50862c-0.09151,-0.05676 -0.19848,-0.12 -0.31332,-0.18412c-0.16658,0.06591 -0.3306,0.13345 -0.49254,0.20212c0.2081,0.07824 0.44335,0.16128 0.69348,0.24617c0.03757,-0.08814 0.07504,-0.1762 0.11238,-0.26417z" fill="#111732"></path></g><g fill-opacity="0.37255" fill="#2e1340" stroke-width="0.5"><path d="M215.59088,273.79921c0.01052,1.31632 -0.00483,2.63051 -0.25565,3.90164c1.01774,0.80533 1.93091,1.77312 2.81513,2.56852l0.01012,0.67644l0.29283,-0.11713l0.97684,2.4421c0.14152,0.33135 0.21985,0.69614 0.21985,1.07923c0,1.51878 -1.23122,2.75 -2.75,2.75c-0.91114,0 -1.71879,-0.44312 -2.2192,-1.1256l-1.33415,-1.77887c-0.80759,-0.34207 -1.63712,-0.61041 -2.5123,-0.74876c-0.4176,0.25579 -0.90876,0.40323 -1.43434,0.40323c-0.38384,0 -0.7493,-0.07864 -1.08117,-0.22068c-1.05918,0.21578 -2.11516,0.27572 -3.06082,0.13652c-0.00509,0.00847 -0.01023,0.0169 -0.01541,0.02531c0.01714,0.59673 -0.09259,1.20991 -0.09259,1.80886c0,1 0,2 0,3c0,2.94151 0.20888,5.8237 -0.53792,8.70509c-0.43473,1.67732 -0.18528,3.87306 -1.52767,4.96867c-2.26692,1.85019 -6.19632,-0.30243 -8.22395,-1.12781c-3.91971,-1.59557 -8.85096,-3.80623 -5.844,-8.49762c-0.11437,-1.10284 0.03234,-2.19938 0.51339,-3.19293c0.54568,-1.12703 2.07968,-1.39668 3.08805,-2.13908c0.3873,-0.28514 0.74899,-0.57417 1.09062,-0.86855c-0.38446,-0.91258 -0.59882,-1.88918 -0.54749,-2.84398c0.20796,-3.86801 4.19248,-5.44337 5.86045,-8.38409c2.40505,-4.24022 4.41144,-8.95958 6.10363,-13.6867c0.26033,-1.71202 0.21363,-3.53027 1.13598,-4.95679c0.05338,-0.08256 0.10757,-0.16451 0.16253,-0.24589l-0.0665,-0.02738l0.27042,-0.65674c-0.02311,-0.03243 -0.0454,-0.0659 -0.06685,-0.10044c-0.04969,-0.08002 0.26187,-1.55797 0.62944,-3.21601c-1.21063,-1.82759 -1.28332,-4.7689 -1.29015,-7.22975c-0.00568,-2.04558 -0.20928,-5.90373 0.91071,-7.69576c0.76333,-1.22136 2.22864,-1.81797 3.37274,-2.70045c0.48493,-3.32283 1.08519,-6.63706 2.09773,-9.94303l0.02196,-0.02638l-0.01203,-0.00401l0.97995,-2.93984c0.19785,-0.64333 0.62536,-1.18608 1.18685,-1.53254c0.08363,-2.87649 0.24232,-5.74865 0.53355,-8.61135l0.30199,-0.36779l-0.14697,-0.06681l1.22421,-2.69327c0.42002,-0.98126 1.39437,-1.66878 2.5293,-1.66878c0.22482,0 0.44333,0.02698 0.65249,0.07787c0.41749,-0.73177 1.30543,-1.67303 3.01448,-1.24576c2.66789,0.66697 2.00092,3.33486 2.00092,3.33486c-0.36411,1.44741 -0.81955,2.76409 -1.31164,4.04011c0.20591,1.00729 -0.15425,2.13736 -0.10828,3.18738c0.096,2.19295 0.52035,4.55269 0.22288,6.75487c-0.48401,3.58306 -2.62486,6.72184 -3.47108,10.16909c0.00091,0.64393 0.00117,1.28779 0.00023,1.93157c-0.00355,2.41939 0.23248,6.73738 -1.21675,8.98639c-0.00534,0.21985 -0.00993,0.43971 -0.01385,0.65956c0.0419,0.09548 0.07853,0.1938 0.10953,0.29459l0.78843,2.36528c1.03943,0.7824 2.06427,1.58005 3.04344,2.44419h1.7892v0c1.51878,0 2.75,1.23122 2.75,2.75c0,0.78476 -0.32872,1.49275 -0.85597,1.99378c0.58508,8.03121 -6.26196,13.00776 -10.70316,19.20543z"></path><path d="M264.20437,289.33703c0.55268,-1.4073 1.22643,-2.76995 2.02685,-4.04546c0.78169,-1.24566 1.02071,-3.3628 2.46057,-3.66195c0.12405,-0.02577 0.25091,-0.04842 0.38006,-0.06785l-0.78072,-2.34216l0.05605,-0.01868c-0.05848,-0.13444 -0.11253,-0.27117 -0.16166,-0.41044c-0.60325,-1.71027 -0.0274,-3.62698 -0.03551,-5.4405c-0.02761,-6.1741 -0.146,-12.10915 1,-18.19208c0,-0.6978 0,-3.05792 0,-3.05792c0,-0.01703 0.00015,-0.03402 0.00046,-0.05098c-0.50734,-0.20006 -1.00436,-0.51269 -1.45184,-1.01134c-3.84582,-4.28545 -0.01738,-7.7559 2.646,-10.76469c0,0 1.827,-2.05538 3.88238,-0.22838c1.25331,1.11405 1.06307,2.31302 0.72374,3.07912c1.48688,-0.97583 3.27899,-1.31848 4.99635,-0.19768c0.09103,-0.53176 0.16646,-1.05839 0.21439,-1.57707c0.29302,-3.17135 1.16711,-6.10128 1.50331,-9.28378c0.78226,-7.40508 0.92997,-15.70506 5.48618,-21.86301l1.21974,-2.68342c0.42002,-0.98126 1.39437,-1.66878 2.5293,-1.66878c1.51878,0 2.75,1.23122 2.75,2.75c0,0.38309 -0.07833,0.74788 -0.21985,1.07923l-0.97684,2.4421l-0.11267,-0.04507l-0.07578,0.16672l0.00596,0.12907c0.28492,0.83558 -0.47281,1.76695 -0.76967,2.62043c-0.70974,2.04049 -1.61648,4.01612 -2.20206,6.09564c-0.77235,2.74278 -0.7611,5.09555 -0.9025,7.89887c-0.33996,6.73976 -1.29596,13.66441 0.23575,20.30183l0.01766,3.06118c0,0 0,0.05012 -0.00677,0.13682c-0.0019,0.08695 -0.00688,0.13681 -0.00688,0.13681c-0.00332,0.00958 -0.0068,0.01916 -0.01044,0.02875c-0.0387,0.29805 -0.13956,0.77335 -0.40245,1.22615c0.21689,0.51493 0.70375,0.97326 1.18574,1.41884l1.73016,0.34603c1.28532,0.23085 2.26064,1.35482 2.26064,2.70659c0,1.44437 -1.11353,2.62867 -2.52895,2.74125l-2.72207,0.24746l-0.00968,-0.10645c-0.14864,0.0417 -0.29899,0.07842 -0.45127,0.10956c-0.97331,0.19903 -2.01852,-0.06614 -2.9541,-0.49822c-0.3535,1.66596 -1.30601,3.83152 -1.78062,5.02773l-0.30522,0.92596c-0.01421,1.84913 -0.1063,3.69864 -0.25847,5.54139l-0.00535,0.00989l0.00443,0.0004l-0.24746,2.72207c-0.08052,1.01239 -0.70933,1.87034 -1.58943,2.27685c-0.18417,0.70483 -0.37655,1.40279 -0.57944,2.10042c0.06184,-0.02365 0.12356,-0.0468 0.18517,-0.06947c0.72804,-1.00073 1.81319,-1.77869 3.39796,-2.21381c1.43611,-0.3943 3.07875,-0.33995 4.46284,0.20976c0.0548,0.02176 0.10919,0.04427 0.16319,0.06749l0.00777,-0.03887l2.45004,0.49001c1.28532,0.23085 2.26064,1.35482 2.26064,2.70659c0,1.51878 -1.23122,2.75 -2.75,2.75h-2.3141c-1.19115,0.2131 -2.41989,0.22187 -3.61783,0.38378c-0.00768,2.54461 0.49414,5.67672 0.66703,8.15214l-0.30112,0.44428l0.20005,0.06001l-0.73225,2.44082c-0.32015,1.16394 -1.38611,2.01897 -2.65178,2.01897c-1.18042,0 -2.18712,-0.74373 -2.5771,-1.78815l-0.19255,-0.48137l-1.23841,0.22517l-0.00425,-0.02338l-0.22977,0.04323c-0.00364,0.00447 -0.00729,0.00894 -0.01095,0.0134c-0.05935,0.07226 -5.60838,-0.03236 -5.97599,-0.00227c-1.63822,0.13407 -6.15187,1.77312 -6.92423,0.96094c-3.16241,-3.32546 -1.924,-5.11544 -0.04238,-6.46052zM282.89255,254.12507c0.00219,-0.01845 0.00445,-0.03691 0.00678,-0.05539c-0.01735,0.01412 -0.03474,0.02817 -0.05218,0.04217c0.01512,0.00432 0.03025,0.00873 0.0454,0.01322zM271.75959,247.19647c0.07976,-0.23749 0.1793,-0.48104 0.2968,-0.72663c-0.39368,0.30857 -0.77631,0.61993 -0.45501,0.69248c0.05248,0.01185 0.10522,0.02322 0.15821,0.03416z"></path><path d="M255.09485,107.41588c-1.91461,1.73144 -5.54982,6.29358 -8.84716,5.78187c-1.27079,-0.19721 -1.06726,-2.39454 -1.95224,-3.32762c-0.45572,-0.48049 -1.29265,-0.35485 -1.86167,-0.69361c-1.53344,-0.91291 -3.05824,-1.92922 -4.7719,-2.42743l-0.24171,-0.13919c-1.6105,0.01044 -4.65729,0.00718 -6.54251,-0.12107c0.19401,1.9057 0.66056,3.63351 1.5561,4.82919c1.32828,1.77346 3.4199,2.88931 4.70941,4.69116c1.1589,1.61934 1.52122,3.68336 2.39295,5.47372c0.20255,0.41599 0.9204,0.61752 1.03565,1.01109l2.11575,1.17541c0.70718,0.37538 1.23102,1.05035 1.40231,1.85571c0.78207,0.2774 2.02584,1.02089 1.78895,2.916c-0.04335,0.34681 -0.12527,0.64403 -0.23525,0.89866c1.80348,0.81558 3.59489,1.6476 5.342,2.60631l1.03411,0.29505c0,0 1.61991,0.53997 1.88131,2.0454c0.54169,-0.18653 0.99906,-0.18653 0.99906,-0.18653c0.35124,0 0.70361,0.01522 1.05635,0.03602c0.00105,-0.00017 0.0021,-0.00034 0.00315,-0.00051c3.35712,-0.54517 5.99608,-3.83854 8.70838,-5.60193c2.6756,-1.73953 5.2107,-3.15285 7.90462,-4.35108l-0.23782,-0.34352l3.22156,-2.23031c0.44961,-0.32028 0.99969,-0.50866 1.59377,-0.50866c1.51878,0 2.75,1.23122 2.75,2.75c0,0.50262 -0.13484,0.97375 -0.37033,1.37919l-1.22574,2.20633l-0.0164,-0.00911l-0.00618,0.04897c-0.04749,0.07589 -0.09519,0.1508 -0.14311,0.22476c0.47191,0.49373 0.76177,1.16294 0.76177,1.89985c0,0.61555 -0.20224,1.18386 -0.54389,1.64211l-1.98208,2.72536l-0.10096,-0.07343c-0.08837,0.17145 -0.18403,0.33964 -0.288,0.50413c-0.47059,0.74453 -1.18131,1.24096 -1.97437,1.65733c-0.5496,0.73311 -1.11122,1.50659 -1.67986,2.24954l1.51576,2.58427c-0.33947,1.54575 -0.70817,2.90274 -1.30702,4.05717c2.12375,2.37418 3.08188,6.12763 3.5853,8.78269l-0.02823,0.12567l0.04205,-0.00382l0.24688,2.71573c0.00953,0.09312 0.01441,0.18761 0.01441,0.28324c0,1.51878 -1.23122,2.75 -2.75,2.75c-0.40036,0 -0.78074,-0.08555 -1.12385,-0.23938c-0.49134,0.45868 -1.15097,0.73938 -1.87615,0.73938c-1.01927,0 -1.90903,-0.55453 -2.38404,-1.37836l-1.38402,-2.3067c-1.40696,-1.69227 -2.15332,-3.18695 -2.54772,-4.83131c-0.36094,-0.63864 -0.64362,-1.20262 -0.78771,-1.56111c-0.01693,-0.04212 -0.03477,-0.08449 -0.05345,-0.12709c-1.56178,-0.77973 -2.95438,-2.03739 -4.22004,-3.29527l-2.62403,0.23855l-0.00326,-0.03582c-0.04023,0.01505 -0.0806,0.02982 -0.1211,0.04429c-0.9599,0.34289 -2.02768,0.08664 -3.05641,0.01743c-0.9677,0.0763 -1.93444,0.14074 -2.90483,0.18281c-0.05165,0.93541 0.23366,1.86831 0.33662,2.80258v1.71677c0.87676,1.11607 1.81589,2.16125 2.88227,3.06632l0.98666,0.65778c0.45503,-0.01394 0.97259,0.10703 1.54592,0.45102c1.71286,1.02771 1.43505,2.5531 1.15476,3.31093l0.17428,2.61425l-0.01357,0.0009c0.00615,0.03014 0.01219,0.06031 0.01814,0.09051c0.52865,2.68499 -0.6695,5.77624 -0.2888,8.36168c0.19424,1.31918 2.97438,-0.02899 3.88757,0.94264c1.02426,1.08981 1.11772,2.79552 1.38937,4.26622c0.28544,1.54531 0.35895,3.67919 -0.24126,5.33627c0.00849,0.02337 0.01691,0.0468 0.02526,0.07027c2.26603,0.79111 4.56326,1.51026 6.50072,3.01964l0.2563,-1.79411l0.18808,0.02687c-0.00991,-0.23666 -0.00951,-0.47414 0.00294,-0.71258c0.0103,-0.19727 0.05625,-0.38186 0.12894,-0.55692c-0.40743,-2.96608 -1.13194,-5.93578 -1.34068,-8.92351c-0.15546,-2.22507 -0.0312,-6.98225 1.39645,-8.62875c0.18211,-0.21003 0.38183,-0.39764 0.59559,-0.56739l-0.05984,-0.06839l1.98997,-1.74123c0.48502,-0.42888 1.12257,-0.68919 1.82091,-0.68919c1.51878,0 2.75,1.23122 2.75,2.75v2.64675c0.01522,0.15032 0.03057,0.30087 0.046,0.45162l0.39221,-0.58831c0.2334,-0.3614 0.54924,-0.66457 0.92092,-0.88291c0.31758,-0.64944 0.6367,-1.28589 0.95498,-1.90345c1.49673,-2.9041 2.20801,-2.34683 4.24043,-4.87974c1.7191,-2.14243 2.29624,-5.09518 4.02789,-7.28635c0.73072,-0.92463 1.7613,-1.58173 2.5,-2.5c1.71191,-2.12806 3.08091,-4.51292 4.40059,-6.93415c0.00788,-0.75446 0.3073,-1.3533 0.3073,-1.3533l1.15336,-2.28394c0.8876,-2.99113 2.00486,-5.4987 3.50634,-8.24374c4.25724,-5.4964 6.31546,-11.69627 9.36409,-17.76878c1.71161,-3.40933 3.62214,-7.3259 5.56959,-10.62481c2.20058,-3.7277 5.16135,-7.03647 7.18156,-10.87737c1.52785,-2.90481 2.4583,-6.39967 3.61087,-9.43984c0.20514,-0.54111 1.93967,-5.49814 2.27807,-5.79553c0.13939,-0.1225 0.28202,-0.24047 0.42752,-0.35444l-0.07625,-0.07625l2.75,-2.75c0.49765,-0.49765 1.18515,-0.80546 1.94454,-0.80546c0.51136,0 0.99013,0.13957 1.40027,0.3827c0.98421,-0.6144 1.96969,-1.25388 3.08331,-1.92682c0.87206,-0.52697 1.76853,-1.05758 2.68008,-1.4241l0.11714,-0.15618c0.50041,-0.68249 1.30806,-1.1256 2.2192,-1.1256c0.63592,0 1.22142,0.21585 1.68724,0.57827c0.08035,-0.12411 0.16077,-0.24817 0.24124,-0.37217c2.51556,-3.87651 4.68865,-8.93986 8.39952,-11.90002l2.13851,-3.08896c0.49378,-0.73412 1.33223,-1.21711 2.28349,-1.21711c1.51878,0 2.75,1.23122 2.75,2.75c0,0.46188 -0.11387,0.89717 -0.31507,1.27932l-1.47526,2.95052l-0.09232,-0.04616l-0.02033,0.24948c-6.12146,8.37794 -9.50997,17.94778 -14.44018,26.89708c-2.07009,3.75763 -4.00243,7.61588 -6.2881,11.31672c-0.9609,1.55585 -1.44125,3.62043 -2.98266,4.60432c-0.19785,0.12629 -0.40222,0.23692 -0.6121,0.33436l0.04285,0.07857l-0.15765,0.08599c-0.3659,0.92416 -0.73472,1.85029 -1.10871,2.77816c-1.3789,3.42108 -3.52482,6.20304 -5.50897,9.24199c-2.99855,4.59261 -5.22223,9.92364 -7.85418,14.75319c-1.27326,2.51439 -2.77187,4.9587 -4.64327,7.06611l-0.96206,1.61784c0,0 -1.11221,1.77954 -2.94801,1.25799c-1.73195,1.6469 -3.52588,3.20594 -4.92268,5.16933c-2.04378,2.87281 -3.7772,6.20243 -6.10101,8.87847c-0.65512,0.75442 -1.36407,1.46374 -2.07952,2.16707c-0.9941,2.21768 -2.17966,4.75199 -3.0505,5.92849c-1.12909,1.52539 -2.69563,2.67978 -3.91231,4.13627c-0.70068,0.83879 -1.38539,1.69911 -2.05803,2.57472c-1.06327,1.73378 -2.17544,3.42302 -3.4274,4.97615c-0.53878,0.66838 -1.07232,1.33275 -1.6025,1.99534c-1.2743,1.8279 -2.54082,3.65275 -3.83105,5.42459l-0.12091,0.05864l0.04152,0.03633l-1.73976,1.9883c-0.0586,0.06768 -0.12045,0.13247 -0.1853,0.19413c-0.0663,0.40052 -0.11801,0.80568 -0.15253,1.21637c-0.21439,2.55012 0.51043,6.19119 0.17313,8.98771c0.64426,0.99075 1.72266,1.86258 1.56565,2.97801c-0.05174,0.36755 -0.14963,0.71928 -0.28166,1.05933l0.1849,0.05547l-0.73225,2.44082c-0.32015,1.16394 -1.38611,2.01897 -2.65178,2.01897c-1.0536,0 -1.96881,-0.59251 -2.43061,-1.4625l-0.02107,-0.03792c-0.01608,0.00028 -0.03218,0.00042 -0.04833,0.00042c-1.51878,0 -2.75,-1.23122 -2.75,-2.75v-0.1159c-0.33462,-0.07157 -0.67439,-0.12264 -0.98815,-0.17778c-2.79419,-0.491 -4.06423,-1.05099 -6.25532,-2.82964c-0.8199,-0.66556 -1.49123,-1.48127 -2.13368,-2.32721c-1.46637,-1.43231 -2.76634,-3.0071 -3.51487,-4.26306c-0.90384,-1.03485 -1.58203,-1.86521 -2.18356,-2.78324c-0.00285,-0.00176 -0.0057,-0.00352 -0.00855,-0.00529l0.00252,-0.00392c-0.02139,-0.0327 -0.04269,-0.06551 -0.0639,-0.09845l-0.29903,0.29903l-2.25,-2.25c-0.49765,-0.49765 -0.80546,-1.18515 -0.80546,-1.94454c0,-1.51878 1.23122,-2.75 2.75,-2.75c0.64525,0 1.2386,0.22223 1.70768,0.59433l0.77124,0.59985c0.21219,-0.25363 0.42896,-0.45986 0.64852,-0.62235c0.04241,-0.33184 0.08703,-0.68041 0.13594,-1.05084c0.03625,-0.27451 0.64961,-0.63919 0.38937,-0.73378c-0.52444,-0.19062 -1.15221,0.52476 -1.65126,0.27512c-0.69495,-0.34763 -1.41038,-0.74761 -2.03799,-1.23584c-0.29985,0.11218 -0.62452,0.17352 -0.96351,0.17352c-1.51878,0 -2.75,-1.23122 -2.75,-2.75v-2.40764c-0.01857,-0.21293 -0.03539,-0.42402 -0.05036,-0.63339c-1.97555,-1.08177 -2.7838,-3.82358 -2.08564,-6.74257c0.16333,-0.6829 0.58008,-1.25105 1.05132,-1.79452c-1.92879,-0.42126 -3.31456,-3.99875 -4.5486,-5.16793c-0.72153,-0.68361 -1.74964,-0.96053 -2.53596,-1.5685c-1.67511,-1.29517 -4.82157,-3.87152 -6.63238,-6.71171l-0.37213,0.41347l0.51353,1.43787l-0.07463,0.02665c0.06947,0.14024 0.13446,0.28312 0.19449,0.42892c0.16838,0.409 0.25701,0.83416 0.29478,1.26959c1.5156,2.52982 3.16228,4.66111 4.11393,7.85911c0.53174,1.48773 2.73569,7.38796 2.62806,8.48084c-0.1936,1.96581 -1.1457,3.89811 -2.41524,5.41145c-1.08595,1.29449 -3.28213,1.13596 -4.52938,2.27585c-0.08385,0.07664 -0.16827,0.15517 -0.25325,0.23538c-0.64486,1.08426 -1.59874,2.02995 -2.70267,2.68823c-2.9694,2.87275 -6.44807,5.3342 -10.34832,1.07655c-0.91128,-0.99478 -0.33013,-4.78146 -0.48418,-6.30669c-0.16545,-1.6381 -0.36249,-3.29432 -0.85949,-4.86395c-0.78759,-2.48734 -3.25511,-4.14883 -4.21174,-6.64713c-0.74138,-1.93615 -0.90637,-3.25579 -1.03674,-4.90518c-0.48575,0.35693 -0.97353,0.71022 -1.45878,1.06161c0.37411,0.71436 0.71584,1.84734 1.00177,3.5531c0.31051,1.85239 -0.88915,3.85799 -2.22758,5.1757c-1.08868,1.07183 -2.87697,1.08799 -4.38475,1.33428c-1.45937,0.23838 -2.66707,0.13988 -3.77307,-0.16546c-2.22213,2.42159 -8.59555,-0.21224 -9.38849,-2.85007c-0.28799,-0.95806 -0.33625,-1.8743 -0.2102,-2.74916c-0.17734,-0.18946 -0.34417,-0.3861 -0.49841,-0.59052c-0.11334,0.7521 -0.60273,2.37581 -2.71584,2.37581c-2.75,0 -2.75,-2.75 -2.75,-2.75c0.00354,-0.17484 0.00934,-0.34835 0.01735,-0.52054c-1.61788,0.04991 -3.19688,-0.00554 -4.2346,-0.40518c-1.12886,-0.43474 -1.89576,-1.50313 -2.84364,-2.2547c0,0 -2.06959,-1.81089 -0.2587,-3.88047c1.81089,-2.06959 3.88047,-0.2587 3.88047,-0.2587c1.1175,1.20346 2.82163,1.35702 4.59426,1.28191c4.27435,-11.04219 19.45807,-15.0581 30.16925,-17.62805c3.87328,-0.92932 8.18302,-3.86165 12.28861,-3.33086c0.02977,0.00385 0.05977,0.0075 0.08999,0.01097c0.05496,-0.0307 0.111,-0.06197 0.16799,-0.09372c0.27744,-0.23098 0.58665,-0.38241 0.87285,-0.48168c0.78911,-0.43058 1.64015,-0.87965 2.32964,-1.20043c-0.03675,-0.01933 -0.07347,-0.0387 -0.11017,-0.05813c0,0 -1.74359,-0.92307 -1.4953,-2.68235l-1.50733,-0.30147l0.04026,-0.20132l-0.55332,0.0454c-3.10322,-1.99824 -6.13919,-3.50924 -8.8686,-6.07284c-1.77607,-1.66818 -3.30899,-4.42558 -5.59042,-5.52419c-1.00707,-0.48495 -2.19332,-0.4768 -3.23554,-0.88071c-3.22895,-1.25137 -5.15881,-2.99864 -8.50854,-3.91874c0,0 -0.89955,-0.25701 -1.49939,-0.9959l-2.60374,-0.13704c-0.09664,0.00488 -0.18977,0.00216 -0.27796,-0.01125h-3.11343c-0.40653,0 -0.79246,-0.08821 -1.13969,-0.24654c-0.28679,-0.00249 -0.57357,-0.00363 -0.86031,-0.00346c0,0 -2.75,0 -2.75,-2.75c0,-2.75 2.75,-2.75 2.75,-2.75c1.2209,0.00069 2.44234,0.02316 3.66278,0.07001l0.56359,-0.05636l0.00445,0.0445c0.0439,-0.01857 0.08796,-0.03682 0.1322,-0.05473c0.06717,-0.0272 0.13514,-0.05278 0.20388,-0.07681c-1.62189,-3.51096 3.06938,-7.0308 5.2716,-9.65363c2.72975,-2.07887 5.87762,-4.03729 9.48809,-3.39003c0.7355,-0.37226 1.53946,-0.70259 2.36161,-0.94679l-1.29237,-0.95225c-0.69396,-0.49921 -1.14585,-1.31378 -1.14585,-2.23391c0,-1.51878 1.23122,-2.75 2.75,-2.75c0.42694,0 0.83117,0.09729 1.1917,0.27092l2.66635,1.21198c2.20402,0.91836 4.41396,1.93736 6.63715,2.97328c1.4208,-0.65621 2.90217,-1.20752 4.43569,-1.10954c0.42435,-1.31764 0.64062,-2.77112 1.69775,-3.56782c0.14118,-0.1064 0.29075,-0.19567 0.44693,-0.27148c0.62297,-0.96694 2.05817,-1.80889 4.73418,-2.50668c0.76779,-0.20021 1.23247,1.32234 2.02303,1.25444c0.69318,-0.05953 0.84554,-1.12758 1.39958,-1.54839c1.41785,-1.0769 3.32208,-1.31791 4.87677,-2.18286c0.22065,-0.27331 0.49256,-0.50351 0.80113,-0.67598c0.36162,-0.46133 0.65109,-1.01233 1.16077,-1.27582c1.82646,-0.94424 4.02566,-3.10685 5.807,-2.08003c0.91333,0.52647 1.62248,1.02758 2.15839,1.50374c0.5215,0.00123 0.95132,0.00442 1.21359,0.00426l3.10811,2.58514c0,0 0.11825,0.19708 0.2294,0.51146c0.59677,0.33281 1.05674,0.88145 1.27434,1.54034l0.15948,0.05975c0,0 2.55331,1.02132 1.53199,3.57464c-1.02132,2.55331 -3.57464,1.53199 -3.57464,1.53199l-1.56419,-0.64938c-0.01299,-0.00744 -0.02611,-0.01477 -0.03936,-0.022l-0.03961,0.022l-0.03353,-0.06035c-0.15305,-0.07712 -0.3205,-0.14296 -0.49418,-0.20392c-0.21129,0.20161 -0.42257,0.40323 -0.63386,0.60484l-0.9818,-0.72485l-0.21347,0.53367l-2.44052,-0.97621c-0.42998,-0.16055 -0.809,-0.42563 -1.10614,-0.76433c-1.1964,-0.05635 -2.3989,-0.06277 -3.68201,-0.06277c0,0 -0.25901,0 -0.61804,-0.07949c-0.98284,0.49615 -2.01847,0.93592 -2.87551,1.35001c-0.1852,0.70569 -0.35152,1.3999 -0.49974,2.09202c0.4933,0.76277 0.4933,1.63746 0.4933,1.63746c-0.03509,0.82213 0.0794,1.67866 0.34792,2.47232c0.76617,0.29186 1.65206,0.9668 1.65206,2.52764c0,0.75622 -0.20795,1.30449 -0.50949,1.70199c0.41308,0.03601 0.83261,0.05288 1.25949,0.04802c2.05717,0 4.11434,0 6.1715,0c0.41399,-0.03232 0.8285,-0.06867 1.24416,-0.10951c0.37683,-0.37191 0.7211,-0.70274 1.01439,-0.9521c1.03323,-0.87848 1.68842,-2.45959 3.01758,-2.72905c1.98482,-0.40239 4.65569,-0.60781 6.00868,0.89911c2.26546,2.52318 -1.87803,7.40777 -2.95098,9.00848c-1.24509,0.52782 -2.42079,1.26569 -3.73528,1.58346c-0.09779,0.02364 -0.83933,0.03663 -1.7613,0.0436c-1.71261,1.24339 -3.49796,2.40573 -5.06392,3.82189zM211.39121,104.75674c-0.08979,0.10915 -0.17887,0.21881 -0.26751,0.3284c0.25006,0.00956 0.49478,0.01044 0.73309,0.0006c-0.15667,-0.10783 -0.31254,-0.21669 -0.46557,-0.32899zM264.49149,143.70711c0.56644,-0.10156 1.16667,-0.13644 1.76579,-0.13257c-0.02284,-0.23252 -0.04253,-0.46684 -0.0586,-0.70343c-0.89103,0.16128 -1.79166,0.16507 -2.69361,0.06631c0.29112,0.2567 0.6084,0.50934 0.98642,0.76969zM205.62069,160.38908l-0.35001,0.46668c0.45306,0.21037 0.7804,0.29791 1.16594,0.32298c-0.32367,-0.20383 -0.60188,-0.47326 -0.81593,-0.78966z"></path><path d="M197.4,302.975c-2.75,0 -2.75,-2.75 -2.75,-2.75v-0.27668c-3.01106,-0.64439 -5.9646,-2.75142 -6.48617,-5.19788c-0.2976,-1.3959 1.26802,-2.55834 1.95409,-3.8099c1.62237,-2.95962 3.9927,-5.21498 5.95839,-7.79331c0.82389,-4.34546 2.05574,-8.585 3.82296,-12.56626c0.98029,-2.20842 1.89047,-6.64795 3.74609,-9.05707c0.45986,-3.77483 0.97368,-7.546 1.81661,-11.21741c-0.32719,-1.20226 -0.52735,-2.43853 -0.75481,-3.52371c-1.41441,-6.74791 1.73757,-12.00547 5.06434,-17.68807c0.18315,-0.31285 0.37323,-0.62473 0.55375,-0.94134c0.27652,-0.71038 0.55771,-1.39956 0.81342,-2.03813c0.0951,-0.85805 -0.10758,-1.81587 0.39612,-2.49065c0.0835,-0.11185 0.16988,-0.22101 0.25887,-0.32774l-0.10335,-0.05167l1.22336,-2.44671c0.26826,-0.5659 0.72404,-1.02561 1.28707,-1.29888c0.04602,-0.3234 0.09245,-0.64607 0.13923,-0.96796c0.21522,-1.48072 0.76811,-7.81232 2.45168,-9.47109c0.0957,-0.09429 0.1935,-0.18594 0.29321,-0.27516l-0.06326,-0.05176l2.23544,-2.7322c0.32429,-0.40268 0.75975,-0.71205 1.25977,-0.88151c0.38409,-0.65588 1.44159,-1.98337 3.4045,-1.1982c2.55331,1.02132 1.53199,3.57464 1.53199,3.57464c-1.65713,4.14267 -3.85219,8.44016 -4.86413,12.80385c-1.0621,4.57995 0.1751,9.74185 -0.19855,14.40165c-0.25689,3.20363 -1.08052,6.51937 -1.64452,9.68021l-0.37721,0.32569l0.18503,0.1028l-1.22332,2.20198c-0.1355,0.25527 -0.31004,0.48666 -0.51566,0.6862c2.66125,1.35972 6.99488,1.15201 6.57257,5.96215c0.28228,0.52445 0.31214,1.07712 0.25646,1.53286c-0.03795,0.67751 -0.25217,1.17369 -0.54557,1.53706c-1.12485,2.29246 -1.63994,3.67755 -3.42474,5.60629c-0.61799,0.66783 -1.54703,1.03549 -2.06855,1.7811c-1.78355,2.54988 -2.90744,6.37691 -4.03427,9.29015l-0.45663,2.51146c-0.19604,1.20557 -1.17593,2.14807 -2.3996,2.28744c1.66115,0.29956 3.28105,0.67367 5.03268,1.37045l0.19267,0.34407l0.11004,-0.14672l1.9744,1.4808c0.68249,0.50041 1.1256,1.30806 1.1256,2.2192c0,1.51878 -1.23122,2.75 -2.75,2.75c-0.46188,0 -0.89717,-0.11387 -1.27932,-0.31507l-2.08151,-1.04076c-1.09755,-0.03513 -2.0729,-0.09261 -2.61714,-0.18603c-1.62181,-0.27839 -3.24164,-0.79538 -4.88504,-0.71156c-0.70315,0.03587 -1.39937,0.16698 -2.10261,0.20099c-0.34836,0.01685 -0.887,-0.35959 -1.04517,-0.04875c-0.41145,0.80859 -0.16795,1.80783 -0.3062,2.70448c-0.40276,2.61214 -0.84546,5.13085 -1.18503,7.75222c-0.18408,1.42099 0.31618,3.23865 -0.70898,4.23973c-0.01182,0.01154 -0.0237,0.02301 -0.03564,0.03439c-0.00225,0.29056 -0.00335,0.58069 -0.00335,0.87035v0.5c0,0 0,2.75 -2.75,2.75zM194.79415,294.11581c0.01311,-0.24778 0.02718,-0.49563 0.04222,-0.74352c-0.34267,0.36929 -0.73124,0.67035 -1.2002,0.82728c-0.27288,0.09131 0.56856,-0.162 0.85403,-0.12589c0.10048,0.01271 0.20219,0.02628 0.30395,0.04213zM208.775,277.69376c-0.07335,0.05381 -0.14947,0.10408 -0.22811,0.15054c0.2198,0.03577 0.43773,0.07102 0.65416,0.10627c-0.15015,-0.07285 -0.29267,-0.15897 -0.42605,-0.25681z"></path><path d="M284.16365,212.95136c0,0 0.25444,-2.54439 2.72613,-2.48078c0.33229,-0.74499 0.68225,-1.4868 1.05055,-2.22542c0,0 1.22984,-2.45967 3.68951,-1.22984c2.45967,1.22984 1.22984,3.68951 1.22984,3.68951c-0.36861,0.73501 -0.73005,1.49456 -1.0813,2.27343c0.54464,1.34937 -0.42837,2.64673 -0.42837,2.64673l-1.41027,1.87743c-0.27851,0.76628 -0.54361,1.5407 -0.79292,2.31917l0.00319,0.40341c0,0 0,1.09539 -0.69133,1.90351c-0.59722,2.16406 -1.05598,4.32859 -1.32633,6.40768c-0.71463,5.4957 -0.23234,11.40371 -0.23234,16.93882c0,1.96181 0.42665,5.24973 -0.47546,7.62773c0.19918,0.31911 0.37916,0.63874 0.53776,0.95383l1.86424,0.93212c0.93018,0.44095 1.57345,1.38851 1.57345,2.48632c0,1.23706 -0.81681,2.28334 -1.94053,2.62893l-2.93984,0.97995l-0.03601,-0.10804c-0.3453,0.12273 -0.70313,0.20636 -1.07749,0.23832c-0.5906,0.05043 -1.12091,0.04343 -1.59656,-0.01445c-0.48117,4.61764 -1.97528,8.85327 -2.97387,13.3665c-0.20809,0.94049 -0.19349,1.92444 -0.43619,2.8566c-0.00454,0.01743 -0.01146,0.03484 -0.02037,0.05219h0.27087c0.5057,0 0.97951,0.1365 1.38662,0.37466c2.64295,-0.83759 5.49029,-0.87147 7.69745,0.50488c0.12186,0.07599 0.24066,0.15575 0.35673,0.23889l0.03905,-0.0781l2.44671,1.22336c0.93018,0.44095 1.57345,1.38851 1.57345,2.48632c0,1.51878 -1.23122,2.75 -2.75,2.75h-2.3998c-1.1932,0.10754 -4.06794,0.07272 -4.84518,1.32398c-0.90856,1.46267 -0.96012,4.334 -1.48817,6.28669c-0.06374,0.81681 -0.49421,1.36542 -0.94895,1.72193c-0.38508,0.37367 -0.93146,0.70423 -1.66248,0.71172l-0.61609,0.15227c-3.25301,0.59839 -5.63587,3.09012 -9.30819,1.94373c-8.18934,-2.55647 -2.1764,-13.1412 0.05919,-17.62017c0,0 0.01791,-0.03581 0.05372,-0.09663l0.41406,-0.88445c0.27525,-3.57575 0.15081,-7.26194 0.50528,-10.81006c0.44641,-4.4684 1.43466,-8.62328 1,-13.20804c-0.13146,-1.38658 -0.13409,-2.86321 -0.75604,-4.10944c-0.57101,-1.14416 -2.00029,-1.87584 -2.207,-3.13775c-0.47527,-2.90145 1.29108,-4.67017 2.74966,-6.6738c0,0 1.65,-2.2 3.85,-0.55c0.0552,0.0414 0.10799,0.08315 0.15843,0.12521c1.44918,-0.34871 3.12015,-0.36754 4.10228,-2.12097c2.60847,-4.65698 0.04322,-10.3448 1.14269,-15.34356c0.57703,-2.62348 2.00948,-4.61444 3.63995,-6.53141c0.10676,-1.06763 0.21353,-2.13527 0.32029,-3.2029zM276.53562,248.86267c-0.31011,-0.21476 -0.68128,-0.39464 -1.07395,-0.56224c0.06554,0.25884 0.16647,0.70241 0.28226,1.23134c0.28301,-0.24446 0.56906,-0.45361 0.85705,-0.62996c-0.02145,-0.0133 -0.04324,-0.02635 -0.06536,-0.03914zM279.65042,244.37969c0.15244,0.10874 0.30874,0.214 0.46616,0.31825l0.06341,-0.38045c0.00234,-0.01576 0.00482,-0.03148 0.00742,-0.04716c-0.17715,0.04122 -0.35709,0.07612 -0.53699,0.10935zM272.69937,284.80804c0.41965,-0.91398 0.88226,-1.80412 1.40049,-2.65919c-0.02313,-0.01243 -0.04607,-0.02519 -0.0688,-0.03826c-0.40484,0.79632 -0.90595,1.69936 -1.40651,2.65842z"></path><path d="M233.35979,103.85902l0.02233,-0.07444c-0.11449,-0.01139 -0.22891,-0.02597 -0.34326,-0.04405c-0.60002,-0.09488 -1.61042,-0.94036 -2.72087,-1.70409c-1.15233,-0.44189 -2.28097,-0.8346 -3.4703,-1.17149c-0.19654,0.06552 -0.38396,0.16961 -0.55975,0.31904c-1.1968,1.01733 -3.34678,5.93383 -2.75594,7.4941c0.5194,1.37162 1.83751,2.29143 2.65008,3.51244c0.03747,0.05631 0.07421,0.11311 0.11028,0.17036c0.17206,0.14566 0.35071,0.29145 0.53789,0.43712c7.67709,5.9748 14.16957,12.54377 21.18969,19.1606c1.50695,1.42038 3.19762,1.9966 4.91072,2.68703c0.37436,0.02402 0.74369,0.06745 1.10116,0.15292c0.96171,0.22995 1.78725,0.84349 2.67448,1.28323l2.18306,0.43661c0.61924,0.11122 1.16652,0.42974 1.56745,0.88117c1.10472,-0.4702 2.18604,-0.96381 3.01293,-1.60156c2.14494,-1.65432 3.09357,-3.75407 4.90657,-5.68507c1.18233,-1.25928 5.73361,-5.26023 7.3933,-4.49683c1.89561,0.87191 2.36284,3.61747 2.61046,5.68924c0.14071,1.17728 -1.02457,2.1386 -1.54771,3.20262c-0.74715,1.51964 -2.19261,4.56141 -3.26481,5.9094c-0.40927,0.51454 -0.84974,1.00119 -1.31751,1.45792c-1.20469,2.63844 -0.58698,5.47437 -0.13204,8.43154c0.1773,1.15242 0.79814,2.32518 0.52397,3.45847c-0.01699,0.07024 -0.03496,0.14013 -0.05386,0.20969h0.06187v2.75c0,1.51878 -1.23122,2.75 -2.75,2.75c-1.51878,0 -2.75,-1.23122 -2.75,-2.75v-2.41295c-0.0243,-0.0696 -0.04932,-0.13889 -0.07502,-0.20791c-0.21854,-0.23395 -0.31813,-0.53333 -0.35947,-0.86468c-0.64868,-1.42468 -1.50748,-2.76318 -2.10618,-4.21208c-0.26805,-0.64868 0.03143,-1.46008 -0.28585,-2.08616c-0.0351,-0.06926 -0.07429,-0.13453 -0.11721,-0.19615c-1.89023,0.31932 -4.77618,0.22775 -6.16181,0.2279l-0.10278,-0.03991l-0.0026,0.03384l-3.22582,-0.24814c-0.95293,-0.0639 -1.77289,-0.61322 -2.21473,-1.4028c-1.00207,0.06371 -2.00792,0.16897 -3.0309,0.34982c-0.62343,0.11022 -1.20014,0.43583 -1.82838,0.51417c-0.20785,0.02592 -0.72218,-0.37605 -0.59139,-0.21244c1.27028,1.58895 1.27781,3.88265 1.58381,5.8938l-0.03222,-0.01266c0.97156,1.14285 1.88528,2.33292 2.71319,3.59262l2.31096,1.89079c0.45245,0.36438 0.78711,0.86911 0.93785,1.44807c2.05397,1.47859 0.65862,3.67128 0.65862,3.67128c-0.2421,0.35757 -0.67306,0.72957 -1.06429,1.10194c0.13338,0.70543 0.34275,2.06463 0.71133,2.97308c0.74223,0.57131 1.51398,1.11437 2.03836,1.87525c0.0637,0.09244 0.12165,0.18857 0.17539,0.28737c1.34859,0.91075 2.75513,1.76617 3.05422,3.24984c0.05245,0.26018 0.02253,0.50694 -0.06057,0.74566c1.05823,0.97497 2.03723,1.99613 2.28877,3.3425c0.35414,1.89555 -1.21999,3.72797 -1.21359,5.6563c0.01244,3.74369 4.42056,4.31946 6.90962,5.58693c-0.2766,-1.73135 0.32972,-4.76895 0.36582,-5.1661c0.75533,-4.1543 0.74625,-8.24092 0.73009,-12.41957c-0.15787,-0.42358 -0.23396,-0.82809 -0.00409,-1.17081c-0.00025,-0.09621 -0.00047,-0.19247 -0.00064,-0.2888h-0.00047v-3c0,-0.86697 0.40119,-1.64024 1.02805,-2.14428c0.19124,-1.33199 1.33704,-2.35572 2.72195,-2.35572c1.51878,0 2.75,1.23122 2.75,2.75c0,0.85397 -0.38925,1.61702 -1,2.12142v1.69119c2.79565,-4.27693 5.97273,-8.22076 9.02598,-12.43008c0,0 0.8288,-1.1396 2.11561,-1.19402l0.33077,-0.77179l0.00668,0.00286c0.00174,-0.01009 0.00349,-0.02018 0.00524,-0.03027c0.94124,-5.39797 6.96175,-9.88033 9.26769,-14.78924c3.00186,-6.39039 6.35837,-12.99015 10.17736,-19.11447c1.14434,-2.41618 2.66686,-4.52338 4.55294,-6.60409c0.63399,-0.69941 1.1472,-1.52804 1.73735,-2.27051c0.09617,-0.17504 0.19126,-0.35102 0.2854,-0.52781c1.08852,-2.28003 1.94558,-4.66962 2.99148,-6.97116c0,0 0.58974,-1.29743 1.85413,-1.59972l0.06654,-0.03547c1.65343,-3.5528 3.54313,-7.10285 4.7025,-10.77927c1.16008,-3.67865 1.38683,-7.86532 3.23298,-11.29488c0.77096,-1.43221 1.77327,-2.74158 2.48521,-4.20155c0.12393,-0.34205 0.30548,-0.63075 0.47092,-0.84765c0.17174,-0.23202 0.41568,-0.50374 0.73515,-0.72517l1.26153,-1.07288c0.84479,-0.80546 1.53027,-1.82123 2.53438,-2.41638c1.58957,-0.94216 3.67871,-0.56011 5.41166,-1.2014c1.8221,-0.67428 4.06988,-3.38285 5.5085,-4.56721c3.81925,-3.14423 6.67843,-6.32689 8.10598,-11.16068c0,0 0.79021,-2.63402 3.42423,-1.84382c2.63402,0.79021 1.84382,3.42423 1.84382,3.42423c-0.61995,2.03994 -1.43189,3.86025 -2.42258,5.52859c1.29893,1.52995 0.01258,3.29868 0.01258,3.29868c-1.95296,2.65114 -2.84982,5.44256 -5.05797,7.84152c0.96007,1.10891 0.44283,2.66064 0.44283,2.66064l-0.25,0.75c-1.45109,4.22272 -3.66194,6.41214 -6.61603,9.52539c-2.19297,2.31112 -4.15981,5.56611 -5.99791,8.19331c-1.13725,1.62547 -2.35249,3.25549 -3.53551,4.91251c-1.96561,4.05111 -4.26288,7.79639 -6.69799,11.61531c-0.73288,1.40472 -1.51257,2.75864 -2.51266,4.15743c-1.44843,2.68036 -2.58308,5.29627 -4.09484,8.06195l-0.0945,0.19183c-0.64037,1.69409 -1.38048,3.29619 -2.56429,4.47914c-0.37231,0.68851 -0.73532,1.38201 -1.08927,2.07984c0.53374,1.41808 -0.56791,2.70335 -0.56791,2.70335l-1.03464,0.98165c-0.43031,1.01401 -0.86062,2.02803 -1.29093,3.04204c-1.82043,1.71259 -4.02412,3.00446 -5.7507,4.81163c-1.92462,2.01446 -2.46797,5.158 -4.62184,7.12275c-0.88302,0.80549 -2.11238,1.1697 -2.98536,1.98605c-1.47972,1.38373 -2.24117,3.38114 -3.49672,4.97107c-2.31728,2.93443 -5.02468,5.51232 -7.14966,8.61469c-2.15654,3.14844 -3.27367,6.55434 -5.5811,9.61069c-1.96115,2.59767 -4.06982,4.86225 -5.88885,7.59518c0,0 -0.5794,0.8691 -1.55965,1.17896c1.0289,3.30618 2.18941,6.659 2.01878,10.16822c-0.09716,1.99833 -1.25599,6.97796 -3.08433,7.8694c-1.62353,0.79158 -5.48461,-1.27429 -7.28681,-1.88454c-1.84819,-0.62583 -4.05439,-0.20713 -5.72696,-1.2121c-2.6997,-1.62212 -2.30547,-3.54139 -3.88008,-5.78741c-0.54122,-0.77199 -1.46457,-1.22398 -2,-2c-1.15857,-1.67917 -2.42321,-5.06814 -3.18847,-6.94699c-0.20153,-2.07917 -0.70072,-4.87724 0.03482,-6.96637c-0.31499,-0.49334 -0.60302,-1.00766 -0.90138,-1.51356c-0.49357,-0.32177 -0.94754,-0.69508 -1.30899,-1.14954c-0.44479,-0.55924 -0.78525,-1.11049 -1.05429,-1.66387c-0.68968,-0.53621 -1.3895,-1.0637 -1.6585,-1.85743c-0.64443,-1.9015 -0.34532,-3.30964 0.31441,-4.6279l-0.00668,-1.38229c0,0 0,-0.31969 0.109,-0.74108l-1.07691,-0.86153l0.02187,-0.02734l-0.251,-0.20536c-0.70704,0.00577 -4.23869,-3.70211 -4.38046,-3.86288c-1.18598,-1.34488 -2.69653,-2.39434 -3.79919,-3.80834c-0.14045,-0.1801 -0.91519,-1.69241 -1.68338,-3.21651c-0.8806,-0.85358 -1.76243,-1.71037 -2.63447,-2.58241c0,0 -1.34437,-1.34437 -0.67967,-2.9153c-0.23455,0.02603 -0.46688,0.06935 -0.6963,0.13549c-0.50331,0.14511 -2.829,1.73878 -3.899,2.4486c1.56833,1.16923 0.77282,3.158 0.77282,3.158c-0.36849,0.8635 -0.62898,1.80786 -0.79334,2.79988c0.01064,1.01457 0.03244,2.02636 0.0769,3.04164c0.6582,2.09616 1.44759,4.23768 2.2141,6.10998c1.23989,3.02858 2.43073,2.97856 3.14288,6.72425c0.11519,0.60584 0.18078,1.31763 0.16791,2.06311c0.83078,2.10716 1.12775,4.3261 0.16116,6.5841c-1.7727,4.14109 -7.58571,7.1461 -11.62121,3.68325c-1.35615,-1.16371 0.24836,-3.81476 -0.72821,-5.31131c-0.86801,-1.33018 -2.9333,-1.36784 -4.07121,-2.47597c-4.30023,-4.18769 -3.60227,-10.57935 -3.60227,-15.99025c0,0 0,-0.02025 0.00174,-0.05728c-0.09461,-0.45363 -0.1734,-0.91761 -0.23532,-1.39265c-0.00209,-0.01604 -0.00417,-0.03209 -0.00624,-0.04815c-0.08023,0.08266 -0.16175,0.16133 -0.24014,0.19846c-0.5387,0.25514 -1.14216,0.37588 -1.65178,0.68506c-0.63284,0.38394 -1.14789,0.91813 -1.64621,1.47549c0.93818,0.50466 1.5175,1.73174 1.95437,4.00724c1.26501,6.58893 -1.13514,5.35533 -5.95397,6.37281c-3.34519,0.25572 -10.10025,0.08593 -11.38034,-4.28515c-0.26477,-0.90409 0.56942,-2.7784 1.44858,-4.4381c0.03756,-0.20312 0.12939,-0.36267 0.26211,-0.48675c0.47056,-0.86071 0.92398,-1.62592 1.19783,-2.11305l0.2776,-0.14322l-0.09783,-0.0856l1.73976,-1.9883c0.50425,-0.58239 1.24901,-0.95082 2.07983,-0.95082c0.73369,0 1.40028,0.28732 1.89337,0.75559c0.3309,-0.36582 0.68413,-0.72271 1.04335,-1.07308c2.97944,-2.90611 7.86904,-5.95228 11.51567,-7.85711c2.80045,-1.46283 6.18714,-2.09612 9.0336,-3.51769c1.92274,-0.96025 3.51721,-2.63486 5.58452,-3.22244c0.38646,-0.10984 5.32642,-0.08527 5.92949,-0.08527c0,0 0.52139,0 1.11012,0.22703c0.29475,-1.00832 1.15151,-1.77677 2.20826,-1.94335l1.56229,-0.2757c-0.27149,-0.41833 -0.551,-0.87059 -0.87842,-1.36814c-2.88853,-2.07919 -5.91752,-3.96524 -8.58629,-6.34074c-1.41612,-1.26051 -2.4202,-2.95058 -3.88578,-4.15323c-1.61817,-1.32787 -3.73764,-2.05856 -5.13071,-3.62095c-1.13148,-1.26901 -1.71319,-2.93112 -2.56878,-4.40592c-1.07683,-0.97163 -2.37651,-2.14222 -2.98221,-2.50292c-3.13538,-1.86717 -7.58401,-2.95297 -11.03899,-4.15158c-3.89437,-0.60334 -7.61004,0.26175 -5.27765,-6.67722c0.13674,-0.40679 0.43569,-0.7849 0.83663,-1.13806c0.28924,-1.38317 1.12381,-2.70597 2.07972,-3.72672c0.89687,-0.95771 2.48132,-0.86845 3.66814,-1.42796c1.51844,-0.71584 4.30216,-2.59621 5.44433,-3.69428c1.74758,-1.68011 2.42442,-4.4873 5.61118,-4.53061c2.43297,-0.03307 6.3671,1.97262 8.95788,3.22897c0.43184,-0.52221 1.0529,-0.88221 1.75814,-0.97499c0.40988,-1.8416 1.60725,-3.57795 2.87765,-4.65766c1.14132,-0.97 5.71074,-2.38195 7.32028,-3.10738c0.74034,-0.33368 1.45587,-0.71613 2.16048,-1.12122c0.25186,-0.16694 0.50578,-0.31711 0.7606,-0.44701c1.47923,-0.88526 2.93209,-1.82974 4.49066,-2.58542c5.17195,-0.53915 9.23218,-0.61175 13.98229,1.68538l2.35216,3.00218c0,0 1.4575,2.332 -0.8745,3.78949c-2.332,1.4575 -3.78949,-0.8745 -3.78949,-0.8745l-0.14784,-0.99782c-3.34839,-1.75087 -6.29316,-1.57416 -10.01771,-1.31462c-0.35653,0.18728 -0.70808,0.37654 -1.05595,0.56692c0.02604,0.75431 -0.00204,1.52195 0.02293,2.19694c0.04191,1.13268 -0.81794,2.13126 -1,3.25c-0.22443,1.37914 -0.64524,5.19377 -0.14984,6.61145c0.01117,0.03197 0.02445,0.06317 0.03954,0.09369c0.08348,0.11642 0.16786,0.23114 0.25333,0.34384c0.24226,0.25763 0.54446,0.48843 0.64351,0.77961c0.00186,0.00204 0.00371,0.00408 0.00557,0.00612l2.1544,0.58756c0.17202,0.04278 0.33763,0.10176 0.49513,0.17522c1.74808,-0.71426 3.45234,-1.79794 4.68847,-2.00419c0.00468,-0.00078 0.00936,-0.00156 0.01404,-0.00233l-0.00154,-0.00339l2.69626,-1.22557c0.01297,-0.00625 0.026,-0.01239 0.03908,-0.01844c1.4351,-1.63046 2.89715,-3.17521 5.0671,-4.40641c0,0 2.40393,-1.33552 3.73945,1.06841c1.33552,2.40393 -1.06841,3.73945 -1.06841,3.73945c-1.67059,0.90178 -2.97624,2.14498 -4.20222,3.46899c-0.19707,0.34135 -0.46536,0.63642 -0.78457,0.86487c-1.47792,1.65193 -2.92849,3.34091 -4.87816,4.58598c-6.8191,4.3547 -15.55127,4.63614 -21.34469,0.21007zM217.0868,103.07919c0.21119,-0.38212 0.44801,-0.79288 0.63127,-1.14382c-0.17025,0.12129 -0.32349,0.26018 -0.44619,0.43128c-0.12583,0.17547 -0.16704,0.43679 -0.18509,0.71255zM237.0581,98.12497c0.51893,0.69281 1.11001,1.29983 1.75798,1.82181c-0.36527,-0.50353 -0.76027,-0.97891 -1.21788,-1.39428c-0.18109,-0.16438 -0.36154,-0.30523 -0.5401,-0.42753zM330.90732,79.74001c0.11637,-0.1495 0.23212,-0.29954 0.34701,-0.45085c0.20409,-0.33499 0.39909,-0.6803 0.63621,-0.97228c-0.00612,-0.06474 -0.01177,-0.1297 -0.01708,-0.19484c-0.30894,0.5461 -0.63635,1.08266 -0.96614,1.61797zM229.10339,175.12426c-0.23569,-0.10159 -0.46734,-0.22243 -0.69387,-0.3583c-0.16192,1.15179 -0.57465,1.53758 0.69387,0.3583zM272.52572,192.39905c-0.06843,0.09439 -0.14064,0.18376 -0.21684,0.2677c0.22483,0.17757 0.45012,0.36609 0.67819,0.56625c0.24241,0.21275 -0.32172,-0.43071 -0.46134,-0.83395z"></path></g><g fill="none" stroke-width="0"><path d="M-34,360v-359h34v359z"></path><path d="M480,360v-359h34v359z"></path></g><g fill-opacity="0.1098" fill="#f6d1ff" stroke-width="0.5"><path d="M196.20031,303.63456c-2.66789,0.66697 -3.33486,-2.00092 -3.33486,-2.00092l0.09679,-0.4019c-0.66317,-0.97665 -2.06195,-1.75177 -1.99061,-2.92964c-0.08613,-0.22001 -0.14473,-0.45382 -0.17158,-0.69719l-0.32343,-2.58744c-0.01754,-0.12553 -0.02662,-0.25377 -0.02662,-0.38413c0,-0.47243 0.11913,-0.91704 0.32899,-1.30543c-0.04203,-3.30387 -0.33915,-6.34608 1.37712,-9.41041c1.87698,-3.35127 5.3238,-4.68252 6.83713,-8.33724l0.78547,-2.7366c2.59136,-2.92612 2.28011,-4.48403 3.46377,-8.36593c0.65077,-2.13425 1.68963,-4.13873 2.31719,-6.27993c0.2538,-0.86594 0.19573,-1.85003 0.65532,-2.62659c0.01118,-0.0189 0.02241,-0.03777 0.03368,-0.05661l-0.01603,-0.00481l0.87217,-2.90723c-0.47252,-2.08348 -0.32003,-5.10535 -0.32148,-6.96923c-0.0046,-5.92208 0.37294,-10.66383 2.51491,-16.31228c0.66309,-1.7486 1.6217,-3.37139 2.36664,-5.08673c0.38049,-0.87614 0.32313,-2.01625 1.00746,-2.68266c0.02746,-0.02674 0.05536,-0.05284 0.08368,-0.07833l-0.04056,-0.01893l0.3347,-0.71722c0.09353,-0.72255 0.18707,-1.44511 0.2806,-2.16766l0.74574,-0.42799l-0.32245,-0.26871l1.65322,-1.98387c0.50435,-0.61399 1.26947,-1.00563 2.12605,-1.00563c1.51878,0 2.75,1.23122 2.75,2.75c0,0.4364 -0.10165,0.84907 -0.28257,1.2156l-1.69095,3.62347c-0.01337,0.25597 -0.02675,0.51194 -0.04012,0.7679c-0.05177,0.51759 -0.26934,2.84335 -0.4833,4.69494c1.33058,1.14008 0.66471,2.97122 0.66471,2.97122c-1.46113,4.01293 -3.58544,7.88822 -3.83975,12.23108c-0.07835,1.33801 -0.81747,2.80086 -0.24628,4.01335c0.60672,1.2879 3.22545,2.14412 2.57259,3.40925c-1.03995,2.01525 -1.98001,3.25626 -2.82429,3.92784c0.38235,0.66303 0.6982,1.39429 0.80692,2.40889c0.40812,3.8089 -0.44533,4.07708 -1.93351,6.97866c-1.99221,3.88431 1.04666,11.22248 -2.84224,14.03566c-4.02895,2.9145 -5.41912,2.31356 -6.30431,0.28824c-0.93523,1.97958 -2.1908,3.8419 -3.71926,5.40171c-1.25907,1.2849 -2.30531,1.55513 -3.21043,3.08135c-1.23046,2.0748 -0.62722,5.00956 -0.62722,7.28416v2.51124c0.37525,0.52608 0.75895,1.04595 1.15443,1.55702l0.76346,2.26477c0,0 0.66697,2.66789 -2.00092,3.33486z"></path><path d="M286.09651,218.17366c2.45967,1.22984 1.22984,3.68951 1.22984,3.68951l-0.04301,-0.56317c-0.00751,5.02903 -0.42826,10.22746 -1.01393,15.2431c0.4416,0.84006 0.32603,1.76466 0.32603,1.76466c-0.23466,1.875 -0.61938,3.80972 -0.94999,5.75858c-0.01137,2.07016 0.09837,4.17342 0.29118,5.96268c0.1214,1.12659 0.83823,2.21328 0.66667,3.33333c-0.01387,0.09057 -0.02881,0.18089 -0.04476,0.27098h0.05814v4c0,1.51878 -1.23122,2.75 -2.75,2.75c-1.16354,0 -2.15831,-0.72262 -2.56,-1.74355c-0.06061,3.04828 -0.90163,5.44941 -1.81435,8.47782c-0.75392,2.50151 -0.91259,5.15706 -1.66436,7.65922c-0.33709,1.12196 -0.96145,2.13701 -1.41104,3.2188c-0.32515,0.78237 -0.5505,1.60912 -0.88407,2.38638c2.26922,-1.3027 5.1144,-1.78084 7.44624,-1.82579l2.50346,-0.31293c0.12553,-0.01754 0.25377,-0.02662 0.38413,-0.02662c1.51878,0 2.75,1.23122 2.75,2.75c0,0.75939 -0.3078,1.44689 -0.80546,1.94454l-2,2l-0.06632,-0.06632c-0.22139,0.23825 -0.46934,0.4509 -0.75167,0.63044c-0.22885,0.14553 -3.76469,0.44912 -6.5495,0.56372c0.01153,0.01584 0.02129,0.03238 0.02904,0.04968c0.45022,1.00525 0.78933,2.10712 0.78997,3.20859c0.0011,1.88949 0.43096,4.16751 -0.78485,5.61388c-1.00402,1.19441 -3.0575,0.66169 -4.61121,0.80546c-1.09509,0.10133 -2.25845,0.28396 -3.29849,-0.07357c-1.59827,-0.54943 -3.449,-1.14963 -4.37414,-2.56401c-2.43251,-3.71891 1.13243,-8.05085 3.25133,-10.56877c0,0 0.13955,-0.16281 0.38619,-0.35854c-0.05058,-0.61818 -0.04765,-1.24266 -0.03094,-1.82637c0.01663,-0.58105 0.12282,-1.13364 0.2863,-1.66768c0.02425,-0.19292 0.05262,-0.38539 0.0859,-0.57733c0.26739,-1.54227 0.98393,-3.03428 0.94805,-4.59914c0.66114,-5.95025 0.24391,-12.17966 2.03614,-17.98394c1.0883,-3.52455 1.62167,-7.95692 6.50386,-3.7918c-0.15918,-3.22619 0.31793,-6.42029 0.82506,-9.65235c0.21382,-6.92131 1.30905,-13.79213 1.2974,-20.75317l0.62366,-1.8965c0,0 1.22984,-2.45967 3.68951,-1.22984zM273.33104,288.29416c-0.23618,0.05714 -0.50093,0.08917 -0.79771,0.08917c-0.23255,0 -0.44544,-0.01967 -0.64032,-0.05567c-0.2463,0.3841 -0.471,0.78067 -0.66584,1.19194c-0.10793,0.22781 -0.51015,0.46965 -0.35455,0.66797c0.61609,0.78521 2.02939,-0.22699 2.99404,0.02909c0.34852,0.09252 0.81077,1.15498 0.72212,0.80546c-0.17571,-0.69278 -0.71976,-1.67782 -1.25775,-2.72796z"></path><path d="M199.31336,164.98799c-1.02132,-2.55331 1.53199,-3.57464 1.53199,-3.57464l0.92748,-0.22596c0.94145,-0.71327 1.65802,-1.9533 2.82434,-2.1398c0.14276,-0.02283 0.291,-0.0444 0.44382,-0.06434c1.35164,-4.66434 4.24682,-6.4264 7.44716,-9.85498c1.42277,-1.52424 2.76384,-3.16839 4.44678,-4.39937c0,0 1.86746,-1.3339 3.409,0.14135c0.42354,-0.97316 1.39368,-1.65358 2.52274,-1.65358c1.41573,0 2.58159,1.0698 2.73329,2.4451l0.32881,2.63047l-0.07711,0.00964l0.09304,0.16058c0.00098,1.12998 0.00196,2.25995 0.00294,3.38993c0.17337,2.20869 0.8133,4.35611 1.27154,6.52369c0.23681,1.12016 0.60755,6.85973 1.08681,7.82216c0.23426,0.47044 1.08112,0.08928 1.5372,0.35042c3.09894,1.77436 6.1856,3.65036 5.33522,8.17047c-0.27238,1.44783 -1.85675,2.34695 -3.07657,3.17305c-0.22973,0.15558 -0.45269,0.30247 -0.66945,0.44011c-0.07344,0.16004 -0.16514,0.32452 -0.27756,0.49315c-1.32844,1.99267 -3.23534,1.09308 -3.70567,0.82753c-1.15038,-0.19639 -2.19631,-1.10321 -3.3651,-2.93653c-1.94314,-2.30864 -3.07206,-4.92328 -3.72769,-7.71432c-0.28652,-0.24958 -0.54703,-0.51585 -0.75708,-0.81268c-1.23981,-1.75203 -1.15593,-4.13411 -1.72878,-6.20258c-0.84058,-3.0352 -1.87949,-5.2982 -2.26643,-8.17395c-2.07063,2.07688 -3.80689,3.49087 -4.69225,5.74859c1.63971,0.83211 2.43623,2.51501 0.87394,5.6747c-0.14252,0.28824 -0.32168,0.54508 -0.52913,0.77768l0.05599,0.04666l-1.65322,1.98387c-0.50435,0.61399 -1.26947,1.00563 -2.12605,1.00563c-1.51878,0 -2.75,-1.23122 -2.75,-2.75v-0.65241l-1.89534,0.87239c0,0 -2.55331,1.02132 -3.57464,-1.53199zM228.95741,172.07639c-0.0281,0.51701 -0.12558,1.04158 -0.18732,1.55807c0.04658,-0.10138 0.10695,-0.19183 0.19476,-0.25996c0.24682,-0.19152 0.7796,0.11705 0.92343,-0.16028c0.26637,-0.51362 -0.24976,-0.85301 -0.93087,-1.13783z"></path><path d="M201.78334,104.3c0,-1.61153 0.94437,-2.27868 1.72629,-2.55488c0.77461,-0.52845 1.69038,-0.52845 1.69038,-0.52845c3.34202,0 5.63381,-0.04669 8.76677,1.22963l0.01378,0.01412l0.00299,-0.00673l2.94263,1.30784c0.99282,0.41487 1.69049,1.3952 1.69049,2.53848c0,1.51878 -1.23122,2.75 -2.75,2.75c-0.17187,0 -0.34006,-0.01577 -0.5032,-0.04593l-3.9489,-0.65815l0.00651,-0.03907c-0.0589,0.00211 -0.11783,0.00382 -0.17681,0.00513c-1.95316,0.04325 -3.77922,-1.04846 -5.7187,-1.28321l-0.99224,0.02124c0,0 -2.75,0 -2.75,-2.75z"></path><path d="M236.50856,84.5518c0.82871,-1.38119 1.98102,-1.46799 2.79355,-1.30287c0.57307,-0.48332 1.27156,-0.88521 1.80405,-1.39488c0,0 2.11261,-1.76051 3.87312,0.3521c1.76051,2.11261 -0.3521,3.87312 -0.3521,3.87312c-0.27244,0.15454 -0.6463,0.29648 -0.91782,0.49159l1.31299,1.68812c0.3721,0.46908 0.59433,1.06243 0.59433,1.70768c0,1.51878 -1.23122,2.75 -2.75,2.75c-0.67623,0 -1.29545,-0.24408 -1.77437,-0.64895l-1.98613,-1.65511l0.32249,-0.38699l-0.16909,-0.21741l-0.88326,-0.34179c0,-0.27117 -0.0149,-0.54494 -0.03741,-0.82003l-0.88708,-0.32163c0,0 -2.35811,-1.41486 -0.94324,-3.77297z"></path><path d="M269.11667,178.63333l0.03387,-0.49298c-0.23241,-1.58409 -0.40903,-3.15444 0.29947,-4.50702v-3.66667c0,-1.51878 1.23122,-2.75 2.75,-2.75c0.53832,0 1.04052,0.15468 1.46457,0.42202c0.57642,-0.76562 1.19439,-1.5064 1.8615,-2.21841c0.87728,-0.93634 2.0676,-1.55766 2.89035,-2.54226c1.53707,-1.83945 2.466,-4.13223 3.98739,-5.98468c2.60336,-3.16986 5.94662,-5.89821 8.13634,-9.39289c2.4604,-3.92665 5.64741,-7.74928 7.89334,-11.81524c1.29729,-2.34857 2.33864,-4.90059 4.09226,-6.93126c1.36999,-1.58643 3.2273,-2.70086 4.61264,-4.27391c0.78685,-0.89346 1.24708,-2.09415 2.18868,-2.82254l1.61387,-2.25941c0.49673,-0.71405 1.32332,-1.18142 2.25907,-1.18142c1.51878,0 2.75,1.23122 2.75,2.75c0,0.51388 -0.14095,0.99483 -0.38629,1.40631l-1.26195,2.20842c-3.1768,6.98944 -7.57214,12.62449 -11.81077,18.90642c-2.44749,3.62734 -3.15825,8.51735 -6.34644,11.75672c-1.35882,1.38064 -3.27014,2.14988 -4.58055,3.57655c-1.99625,2.17336 -2.84075,4.74931 -4.34139,7.2307c-1.96687,3.25233 -4.78098,5.56301 -6.61867,8.91705c0,0 -1.33552,2.40393 -3.73945,1.06841c-0.59692,-0.33162 -0.96328,-0.72912 -1.17676,-1.13933c-0.16093,0.26622 -0.3184,0.5394 -0.47222,0.82064c0.04083,1.73309 -0.2655,3.50987 -0.2655,5.2481c0,5.33333 0,10.66667 0,16v1c0,0 0,2.75 -2.75,2.75c-2.75,0 -2.75,-2.75 -2.75,-2.75c0,-0.08391 0,-1.16782 0,-1.25173c-1.2877,-0.27437 -2.58388,-1.0157 -3.86631,-1.64923c-5.49188,-2.71298 -8.25971,-7.33711 -9.71824,-13.09874c0,0 -0.66697,-2.66789 2.00092,-3.33486c2.66789,-0.66697 3.33486,2.00092 3.33486,2.00092c0.73446,2.98182 1.86961,6.19457 4.40451,8.20335c0.75417,0.59764 1.71664,0.87308 2.54391,1.36458c0.38611,0.2294 1.02235,1.07525 1.30035,1.32433c0,-0.19477 0,-0.38953 0,-0.5843c-0.56355,-2.64431 -0.13627,-5.01007 0,-7.7077c0,-0.75554 0,-1.51108 0,-2.26662c0,-0.36908 -0.02586,-0.74453 -0.06586,-1.12345c-0.26747,-0.62827 -0.26747,-1.20988 -0.26747,-1.20988z"></path><path d="M246.54092,146.97895c0.78011,0.73212 1.56053,1.55945 2.40446,2.52064c0.64074,0.72977 1.52403,1.33299 1.8562,2.24556c0.02982,0.08193 0.05867,0.16414 0.08661,0.2466l0.04908,-0.02727l1.64241,2.95633c0.23548,0.40543 0.37033,0.87656 0.37033,1.37919c0,1.51878 -1.23122,2.75 -2.75,2.75c-0.51388,0 -0.99483,-0.14095 -1.40631,-0.38629l-2.2914,-1.30937l0.16144,-0.28252l-0.7416,-0.1606c-1.34337,-2.2078 -2.42264,-5.07048 -4.1221,-7.08661c-0.99682,-0.77134 -2.35684,-1.31098 -3.52901,-1.79373c-0.68728,-0.08106 -2.48769,-0.50577 -2.48769,-2.73088c0,-0.0595 0.00129,-0.11772 0.00381,-0.17467c-0.47551,-0.34295 -0.93822,-0.69655 -1.37682,-1.0707c0,0 -2.08796,-1.78968 -0.29828,-3.87763c1.78968,-2.08796 3.87763,-0.29828 3.87763,-0.29828c2.42918,2.09354 5.38625,3.52546 7.5722,5.89788c0.35358,0.38374 0.67769,0.78596 0.97904,1.20237z"></path></g><path d="M231.83196,75.59764c-0.31232,-1.03575 -0.4288,-2.12607 0.16394,-3.0291c0.55824,-0.85048 1.87354,-0.79347 2.81032,-1.19021c0,0 1.68834,-0.46045 2.1488,1.22788c0.19357,0.70973 0.00741,1.20248 -0.27343,1.53525c0.10721,1.35486 0.01112,2.63276 -0.07292,3.93346c0.01212,0.04514 0.02228,0.08858 0.03078,0.12968c0.03639,0.1673 0.06349,0.38122 0.04389,0.61096v0.37879c-0.84704,1.37485 -1.94299,2.36657 -3.20363,3.11c-0.12735,-0.14203 -0.21967,-0.29956 -0.2866,-0.45331c-1.28353,-2.0712 -1.5023,-3.64041 -1.50977,-6.11771z" fill="#43447b" stroke-width="0.5"></path><path d="M231.68334,75.73333v0c0,-0.00001 0,-0.00001 0,-0.00002z" fill="#43447b" stroke-width="0.5"></path><path d="M237.65,250.80117c-1.25,0 -1.25,-1.25 -1.25,-1.25v-1c0.01087,-0.48846 0.51163,-1.30715 0.04922,-1.46492c-2.33184,-0.79559 -4.2756,0.12421 -6.13639,-2.35684c-2.67331,-1.78554 -2.16283,-4.99008 -2.16283,-7.92824c0,-6.25262 0.5,-12.63787 0.5,-19c0,-0.43412 0.15077,-0.71747 0.34758,-0.90242c0.18494,-0.19681 0.4683,-0.34758 0.90242,-0.34758c0.03025,0 0.05976,0.00073 0.08856,0.00216l0.90658,0.02212c3.81615,0.7782 5.63123,4.1829 9.07392,5.61277c2.40763,1.44982 6.43037,2.53028 7.1531,5.85063c0.43689,2.00716 -1.65311,4.12813 -2.29383,5.92949c-1.79826,5.05575 -3.33522,10.36887 -5.26774,15.29708c0,0 -0.2233,0.55826 -0.74734,0.74554c-0.12435,0.35648 -0.42693,0.79022 -1.16325,0.79022z" fill="#a69cb5" stroke-width="0.5"></path><path d="M276.29845,248.96177c-1.69013,-0.63119 -2.82151,-1.62734 -4.05803,-2.62455c-0.21819,0.49373 -0.54433,0.91128 -1.03503,1.1483c-1.21222,0.58552 -3.87462,-2.21617 -4.20684,-3.02059c-0.56034,-1.35676 0.2088,-3.11197 -0.28959,-4.54105c-1.04318,-2.99119 -1.78127,-5.28142 -2.06052,-7.97832l-0.23497,0.03889l-0.48645,-2.43541c-0.0177,-0.08012 -0.027,-0.163 -0.027,-0.24787c0,-0.69036 0.61482,-1.25 1.37324,-1.25c0.08092,0 0.16022,0.00637 0.2373,0.01859c0.02856,-0.04135 0.06056,-0.08207 0.0964,-0.12138c0.10951,-0.36966 0.42206,-0.89721 1.31419,-0.89721c0.2054,0 0.38008,0.02796 0.52863,0.07553c1.28396,-0.36803 2.36151,-0.33731 3.78791,-0.78366c3.56865,-1.1167 6.60936,-2.25813 10.51444,-2.29187h0.27465c0.47692,0 0.78821,0.15077 0.99139,0.34758c0.21622,0.18494 0.38185,0.4683 0.38185,0.90242c0,0.06724 -0.00397,0.13085 -0.01149,0.19104c-0.15026,1.94182 -1.28987,3.54587 -1.90573,5.36752c-0.03206,0.59229 0.07202,1.20648 -0.012,2.06461c-0.30291,3.09357 -0.34488,6.46078 -0.82688,9.5245c-0.14959,0.95081 -0.20278,2.23604 -0.56094,3.24819c-0.07578,0.61133 -0.16625,1.22133 -0.27589,1.8295l-0.01398,0.01801l0.00981,0.00178l-0.26966,1.22729c-0.11528,0.58424 -0.67654,1.02756 -1.35156,1.02756c-0.57922,0 -1.07468,-0.32642 -1.27648,-0.7882z" fill="#6d587e" stroke-width="0.5"></path><g stroke-width="0.5"><path d="M226.15,214.55117c-1.25,0 -1.25,-1.25 -1.25,-1.25c0,-2.33334 0,-5.41666 0,-7.75c0,-3.77357 -0.9601,-8.48043 1.57175,-11.33718c0.78879,-0.89002 1.37025,-3.19784 3.3764,-1.87394l0.04175,-0.03132c0.21062,-0.16155 0.47414,-0.25757 0.7601,-0.25757c0.69036,0 1.25,0.55964 1.25,1.25c0,3.16666 0,7.58334 0,10.75c0,8.74324 -0.61964,17.48533 -1.50608,26.12317c-0.16654,1.62282 -0.30023,3.161 -0.50329,4.77956c-0.11683,0.9312 0.24649,3.21371 -0.3303,4.06216c-0.05572,0.08197 -0.11438,0.16135 -0.17563,0.23846l0.03247,0.02319l-1.24032,1.73644c-0.22579,0.32457 -0.60151,0.53701 -1.02685,0.53701c-0.69036,0 -1.25,-0.55964 -1.25,-1.25v-1.44713c-0.17389,-1.52853 -0.42333,-3.04936 -0.72573,-4.55773c0,0 -0.00923,-0.04613 -0.01515,-0.12228c-0.00913,-0.07583 -0.00912,-0.12287 -0.00912,-0.12287v-0.25c0.02517,-3.48602 0.96336,-7.35977 1.50364,-10.84531c-0.00754,-2.90996 0.11795,-5.7875 0.29192,-8.65337c-0.18229,0.14624 -0.4377,0.24869 -0.79556,0.24869zM227.75413,231.61495c0.16315,-1.00409 0.31979,-1.98543 0.39956,-2.90899c-0.16529,0.97817 -0.30843,1.95447 -0.39956,2.90899z" fill="#baafcc"></path><path d="M224.08613,191.75671c1.21814,-0.75347 2.65444,-0.87107 3.47255,-0.1356c0.36463,0.11291 0.84133,0.40814 0.84133,1.18007c0,0.30298 -0.07343,0.53252 -0.18471,0.70642c-0.00919,0.26779 -0.04496,0.55991 -0.11065,0.87724c-0.2877,1.38977 -1.3449,3.32863 -2.09302,4.84925c-0.12231,0.29685 -0.25366,0.59437 -0.38531,0.89181c0.04728,1.92051 0.02382,3.84288 0.02054,5.76388l-0.03648,0.0843l0.02707,0.00387l-0.2474,1.73181c-0.07792,0.61548 -0.6034,1.09142 -1.24004,1.09142c-0.4633,0 -0.86774,-0.25206 -1.08365,-0.62653l-0.73821,-1.23036l0.41173,-0.24704c-0.02857,-0.05184 -0.05616,-0.10366 -0.08278,-0.15548c-0.22758,0.30895 -0.59393,0.50941 -1.00709,0.50941c-0.24074,0 -0.46557,-0.06805 -0.65633,-0.18597c-0.04557,0.17723 -0.09274,0.35372 -0.14177,0.52936c0,0 -0.3434,1.20191 -1.5453,0.85851c-1.20191,-0.3434 -0.85851,-1.5453 -0.85851,-1.5453c0.42884,-1.46032 0.7396,-3.12547 1.07953,-4.82743c0.01543,-2.1843 0.4288,-4.75433 0.62846,-6.20234c0.09508,-0.6895 -0.16396,-1.48984 0.20883,-2.07762c0.64006,-1.00916 2.24354,-1.57311 3.72121,-1.84368z" fill="#655077"></path><path d="M293.38281,217.57357c-4.29793,3.98482 -3.48281,-3.36336 -3.48281,-5.2724c0,-3.24986 -0.0152,-6.50018 0,-9.75c0.00576,-1.23144 -0.14181,-2.84871 1.01911,-3.76406c2.09107,-1.64873 4.59501,0.14576 4.97481,2.14088c0.56026,2.94314 0.59357,7.09591 0.00608,10.66428c0,0.4863 0,0.9726 0,1.4589v1.75c0,0.69036 -0.55964,1.25 -1.25,1.25c-0.29555,0 -0.56714,-0.10257 -0.78112,-0.27406c-0.05228,0.77614 -0.18035,1.51301 -0.48607,1.79645z" fill="#baafcc"></path><path d="M291.65,199.30117c0,0.68556 -0.37599,0.99513 -0.71555,1.13491c0.07087,0.23048 0.13492,0.45745 0.19942,0.66486c0.72068,2.31759 0.01614,6.22496 0.01614,8.70023c0,1.62448 0.03821,3.14661 -0.27427,4.74514l-0.24545,1.22729c-0.10494,0.58424 -0.61583,1.02756 -1.23027,1.02756c-0.4633,0 -0.86773,-0.25206 -1.08365,-0.62653l-0.73822,-1.23036l0.05253,-0.03152c-0.06616,-0.08922 -0.1282,-0.18165 -0.18531,-0.27793c-0.03202,-0.05399 -0.04242,-0.84664 -0.04536,-1.58357c-0.08201,0.0616 -0.17184,0.11334 -0.26773,0.15348c0.00291,0.79646 0.01773,1.58629 0.01773,2.34643c0,0 0,1.25 -1.25,1.25c-1.25,0 -1.25,-1.25 -1.25,-1.25c0,-2.36732 0.144,-4.72259 0.49991,-7.03217c0.00005,-0.12262 0.00009,-0.20233 0.00009,-0.21783c0,-2.5564 -1.13404,-8.61893 1.44099,-10.11804c0.27875,-0.16228 2.54538,-0.13196 3.05901,-0.13196h0.75c0,0 1.25,0 1.25,1.25z" fill="#655077"></path></g></g></g></svg>