<svg version="1.1" xmlns="http://www.w3.org/2000/svg" xmlns:xlink="http://www.w3.org/1999/xlink" width="137.61415" height="154.58812" viewBox="0,0,137.61415,154.58812"><g transform="translate(-212.9469,-115.94392)"><g stroke-miterlimit="10"><g fill="#130c1f"><path d="M326.98335,180.64167l-0.1415,-0.18936c0.75778,1.87101 2.15753,2.79823 3.15509,4.56099c1.12971,1.99627 1.8063,4.59459 2.21381,6.84805c0.95121,5.26003 -2.30795,7.95382 -5.04693,11.7884c-1.11804,1.56527 -1.89362,4.54853 -3.84101,5.36143c-0.06198,0.02587 -0.12428,0.05072 -0.18689,0.07461l0.02492,0.03987l-1.84833,1.15521c-3.69253,3.56761 -8.80765,5.6031 -14.82917,5.61079h-1.5c0,0 -0.90857,0 -1.41639,-0.65467c0.04816,0.07242 0.09727,0.14651 0.14735,0.22234c0.7782,1.17829 1.21377,2.6252 1.7719,3.98295c0.395,0.37057 0.80357,0.70898 1.22824,1.00027c1.78884,1.227 4.02099,1.95408 5.81219,3.29411c1.10312,0.82527 2.16955,1.74261 3.24106,2.66039c0.13103,0.00048 0.21314,0.01221 0.21314,0.01221l1.95444,0.29177c3.34252,1.33716 5.17977,3.2719 8.04215,5.25039c1.93177,1.33525 3.78316,1.97467 5.35927,3.83077c0.90325,1.06371 1.39484,2.43 2.26616,3.52002c1.52398,1.90648 3.58265,3.30941 5.0408,5.30336c0.93292,1.27571 1.22549,2.95797 2.20837,4.1956c2.16857,2.73064 6.96956,4.365 6.6144,8.84778c-0.00642,0.08109 -0.01402,0.16199 -0.02269,0.24273h0.03961v3c0,0.03072 -0.00079,0.06126 -0.00236,0.09159c0.17584,0.9434 0.29909,1.90145 0.64093,2.79395l0.42667,0.83184c0,0 0.78262,1.56525 -0.78262,2.34787c-1.56525,0.78262 -2.34787,-0.78262 -2.34787,-0.78262l-0.57333,-1.16816c-0.34638,-0.93999 -0.50026,-1.93678 -0.69421,-2.92279c-0.86851,-0.28143 -1.11496,-1.26724 -1.11496,-1.26724c-0.06155,-0.26236 -0.13305,-0.51458 -0.21348,-0.7581c-4.38735,-6.41973 -10.80316,-10.16235 -16.19825,-15.56299c-4.75519,-3.14014 -10.19223,-7.20425 -15.50543,-9.21494c-3.82857,-1.44886 -8.06766,-2.17276 -11.69728,-4.0883c-2.4386,-1.28698 -4.88232,-2.56536 -7.39017,-3.73408c-2.4789,-0.75804 -4.95404,-1.19574 -7.53673,-1.40701c2.23317,1.90621 4.97801,3.87185 6.43163,6.10024c0.96716,1.48265 1.32609,3.35925 2.10624,4.92603c1.8658,3.74709 4.83468,7.01007 6.7457,10.74187c1.24555,2.43229 1.38161,5.66497 1.91465,8.57053c0.57744,1.28525 1.0737,2.62216 1.47353,4.02155l0.09996,-0.58449c0,0 1.56525,0.78262 0.78262,2.34787c-0.78262,1.56525 -2.34787,0.78262 -2.34787,0.78262l-1.90004,-1.58449c-0.09651,-0.33777 -0.19923,-0.67126 -0.30791,-1.00069c-0.27593,-0.20347 -0.45484,-0.47571 -0.56149,-0.68466c-0.0872,-0.16947 -0.12413,-0.29256 -0.12413,-0.29256c-0.19184,-0.63988 -0.39419,-1.28262 -0.58798,-1.9294c-0.8008,-1.76172 -1.68307,-2.41083 -3.00455,-3.86813c-1.88725,-2.08123 -3.07604,-4.65455 -4.85544,-6.86416c-3.04938,-1.7169 -4.87586,-4.37029 -7.15849,-6.90067c-1.30163,-1.44291 -3.30176,-2.16207 -4.80681,-3.32099c-1.167,-0.89861 -2.10023,-2.07258 -3.24663,-2.99733c-2.23018,-1.79898 -4.82308,-2.15284 -7.34827,-3.26155c-3.23524,-1.42046 -6.30867,-3.25837 -9.59153,-4.68168c-1.11397,-0.05183 -2.22522,-0.11214 -3.33285,-0.18234c-2.07118,-0.13127 -5.25331,0.62467 -7.11198,-0.54053c-0.72625,-0.45529 -0.88482,-1.4743 -1.42001,-2.14385c-1.24818,-1.56154 -2.22192,-3.06709 -2.87921,-4.69896c-2.5516,-0.7897 -5.15447,-1.38133 -7.75035,-2.19241c-2.24977,-0.70294 -4.26322,-1.57567 -6.17626,-2.61048l-1.61019,0.17891l-0.00963,-0.08665c-0.16135,0.03297 -0.32484,0.05694 -0.49089,0.07017c-0.9441,0.07523 -1.74858,-0.73972 -2.57111,-1.20922c-5.38427,-3.0734 -7.56715,-7.93249 -5.24122,-13.67649c0.36164,-0.89309 1.36838,-4.00814 2.07691,-4.49257c0.89436,-0.61147 2.11926,-0.47092 3.1959,-0.59186c1.95682,-0.21981 4.00305,-0.17134 6.03487,-0.10078c-1.21092,-2.90474 -1.76327,-6.39176 -1.84883,-9.91091c-0.1683,-0.45466 -0.29076,-0.80749 -0.31118,-0.92875c-0.62022,-3.68237 -0.08308,-7.96566 -0.03191,-11.76182c-1.57944,-1.21382 -2.32946,-2.71361 -3.72426,-4.86354c-0.47173,-0.72712 -0.92099,-1.4618 -1.34958,-2.20372c-2.45305,-2.9618 -5.10539,-6.06535 -6.52761,-9.53632c-0.90701,-2.2136 -0.3967,-5.46688 -0.39032,-7.82278l-0.1446,-0.99316c-0.10401,-0.40103 -0.20646,-0.8032 -0.30756,-1.20646c0,0 -0.42444,-1.69775 1.27331,-2.12219c1.50894,-0.37723 2.01203,0.92193 2.10527,1.21557c0.06955,0.04377 0.13581,0.09231 0.19831,0.14515l1.49118,1.24265l-0.0228,0.02737l0.08257,0.02478c1.10806,1.10591 2.30059,2.74005 3.59315,3.62257c1.27122,0.86795 3.37007,2.10868 4.89539,2.47048c0.26036,0.06176 0.53614,0.06299 0.81101,0.06335c0.28604,-3.27459 0.84697,-6.54617 1.69837,-9.73649c-1.20495,-1.99888 -0.12401,-7.06028 0.07795,-8.27201l1.07434,-3.72245c0.93993,0.54731 2.03917,0.89415 2.90625,1.53314c0.56882,-1.0777 1.1801,-2.13194 1.83461,-3.15872c0.01221,-0.18547 0.0624,-0.35792 0.17884,-0.50763c0,-0.00002 0.00001,-0.91766 0.66451,-1.42395l1.08549,-2.32605c0.1476,0.31629 0.28484,0.63106 0.41222,0.94467c0.16871,-0.21571 0.33965,-0.42982 0.51282,-0.64227l1.0466,3.76139c-0.08421,0.37842 -0.16424,0.75798 -0.24068,1.13849c-0.00257,0.10132 -0.00539,0.20282 -0.00848,0.30449c0.03685,-0.02109 0.07365,-0.04135 0.11041,-0.06074c1.55763,-0.82192 3.28356,-1.27488 4.92534,-1.91232l-1.42952,4.10518c-1.51722,1.75986 -2.12888,4.14831 -3.47458,5.81062c-0.13201,0.16307 -0.26926,0.32127 -0.41076,0.47553c-0.00142,0.01088 -0.00284,0.02177 -0.00427,0.03267l-0.02225,-0.00386c-0.20757,0.22475 -0.42407,0.44122 -0.64637,0.65231c-0.45214,2.48587 -1.06556,4.91657 -1.85007,7.16563c-0.5013,1.43716 -1.09915,2.79724 -1.6598,4.16257c-0.14617,0.59113 -0.29499,1.18196 -0.45537,1.76928c1.64975,-0.55389 3.22603,-1.36982 4.69665,-2.39108c1.34023,-0.93072 1.75817,-1.80671 3.37355,-2.44731c2.81507,-1.11634 6.07363,-0.70983 8.92192,-1.55569c2.95342,-0.72086 6.14846,-1.1579 9.3898,-1.27928c0.54716,-2.22102 1.36652,-4.3806 2.19207,-6.44022c0.49262,-1.229 0.69433,-2.56414 1.07429,-3.83179c-0.6022,-1.65407 -0.48771,-3.88942 -0.62887,-5.50322c-0.29047,-0.41576 -0.72542,-1.32912 0.18794,-2.24248c1.23744,-1.23744 2.47487,0 2.47487,0l0.74497,1.23995c0.0114,0.07983 0.02989,0.20765 0.05323,0.36933c0.33986,-0.90166 0.59759,-1.88125 0.72506,-3.0651c0,0 0.05867,-0.52804 0.40231,-0.9699c0.07311,-0.78904 0.19173,-1.56759 0.40432,-2.3176l0.23492,-0.94368c0,0 0.42444,-1.69775 2.12219,-1.27331c1.69775,0.42444 1.27331,2.12219 1.27331,2.12219l-0.26508,1.05632c-0.64781,2.24697 -0.45351,4.57483 -0.67101,6.81182c0.82417,-0.48017 1.63938,-0.90921 2.33309,-1.29026c1.18885,-0.65301 2.33304,-1.96542 3.67257,-1.75224c0.29468,0.0469 0.56355,0.15075 0.81426,0.29465l0.03666,-0.06416l1.7205,0.98315c0.543,0.29709 0.91125,0.87368 0.91125,1.53628c0,0.76462 -0.49037,1.41471 -1.17379,1.65292l-1.799,0.67462c-2.76588,2.00272 -5.49071,3.71322 -8.56662,4.9038c-1.11441,2.6754 -2.43188,5.30081 -3.55744,8.09808c3.41924,0.20215 6.78479,0.77292 9.86714,1.74971c3.37708,1.07019 6.2352,2.99614 9.71047,3.9882l0.78817,-0.05207c0.00467,-0.00058 0.00934,-0.00117 0.01401,-0.00175c0,0 0.05101,-0.00638 0.13663,-0.0082l0.08043,-0.00531c0,0 0.0861,0 0.22011,0.0191c0.33781,0.03776 0.80188,0.16596 1.13179,0.5582c0.07406,0.08279 0.14155,0.17746 0.19908,0.2857c1.11025,0.05377 2.24116,0.0953 3.33154,0.039c3.69859,-2.31712 7.53351,-5.09263 9.58266,-8.74273c1.56514,-2.78795 2.49463,-6.10765 3.624,-8.96079c0.60544,-1.52953 1.0207,-3.6729 2.45191,-4.36625c0.00041,-0.00094 0.00082,-0.00187 0.00122,-0.00281l0.22163,-1.55143c0.10909,-0.86167 0.84476,-1.52798 1.73605,-1.52798c0.9665,0 1.75,0.7835 1.75,1.75v1.75h-0.1365c0.03119,0.1754 0.04983,0.35323 0.05302,0.53406c0.00934,0.52998 -0.17909,1.00054 -0.4643,1.44425c0.33732,0.31901 0.54779,0.77077 0.54779,1.27169v2.5h-0.02428c-0.03128,0.52295 -0.09203,1.0028 -0.18027,1.44946c0.20942,1.51446 0.26792,3.02103 0.2095,4.52826c0.49505,0.51816 0.49505,1.27228 0.49505,1.27228c-0.00769,3.71158 0.84721,7.41741 0.49404,11.14434c-0.58817,6.20676 -1.90517,12.62319 -4.04575,18.5607c-0.01412,1.12957 -0.10975,2.26299 -0.28188,3.38974c0.85553,-1.23431 1.79226,-2.3772 2.94611,-3.10305c1.36576,-0.85916 2.90887,-0.76538 4.41424,-0.74465c1.67434,-0.96266 3.30957,-1.5713 4.51001,-2.77025c0.1306,-0.42519 0.23181,-0.77778 0.28056,-0.95758l0.88906,-0.7414c0.13816,-0.30671 0.25913,-0.64133 0.36094,-1.0086l0.21665,-1.11244c0,0 0.01166,-0.05828 0.04141,-0.1512c0.09094,-0.33696 0.29159,-0.76745 0.73428,-1.02681c0.27247,-0.17748 0.6347,-0.28393 1.11302,-0.22284c0.48101,0.0339 0.81534,0.20932 1.04771,0.4368c0.38322,0.34114 0.49555,0.80262 0.51865,1.15087c0.01095,0.09696 0.01095,0.15639 0.01095,0.15639c-0.0037,2.57915 -0.2183,5.26191 -0.38205,7.9532c0.10464,2.58878 0.26676,5.15493 0.43593,7.71869c0.19612,0.42133 0.19612,0.82811 0.19612,0.82811z" stroke-opacity="0.28235" stroke="#b59fd8" stroke-width="4.5"></path><path d="M326.98335,180.64167l-0.1415,-0.18936c0.75778,1.87101 2.15753,2.79823 3.15509,4.56099c1.12971,1.99627 1.8063,4.59459 2.21381,6.84805c0.95121,5.26003 -2.30795,7.95382 -5.04693,11.7884c-1.11804,1.56527 -1.89362,4.54853 -3.84101,5.36143c-0.06198,0.02587 -0.12428,0.05072 -0.18689,0.07461l0.02492,0.03987l-1.84833,1.15521c-3.69253,3.56761 -8.80765,5.6031 -14.82917,5.61079h-1.5c0,0 -0.90857,0 -1.41639,-0.65467c0.04816,0.07242 0.09727,0.14651 0.14735,0.22234c0.7782,1.17829 1.21377,2.6252 1.7719,3.98295c0.395,0.37057 0.80357,0.70898 1.22824,1.00027c1.78884,1.227 4.02099,1.95408 5.81219,3.29411c1.10312,0.82527 2.16955,1.74261 3.24106,2.66039c0.13103,0.00048 0.21314,0.01221 0.21314,0.01221l1.95444,0.29177c3.34252,1.33716 5.17977,3.2719 8.04215,5.25039c1.93177,1.33525 3.78316,1.97467 5.35927,3.83077c0.90325,1.06371 1.39484,2.43 2.26616,3.52002c1.52398,1.90648 3.58265,3.30941 5.0408,5.30336c0.93292,1.27571 1.22549,2.95797 2.20837,4.1956c2.16857,2.73064 6.96956,4.365 6.6144,8.84778c-0.00642,0.08109 -0.01402,0.16199 -0.02269,0.24273h0.03961v3c0,0.03072 -0.00079,0.06126 -0.00236,0.09159c0.17584,0.9434 0.29909,1.90145 0.64093,2.79395l0.42667,0.83184c0,0 0.78262,1.56525 -0.78262,2.34787c-1.56525,0.78262 -2.34787,-0.78262 -2.34787,-0.78262l-0.57333,-1.16816c-0.34638,-0.93999 -0.50026,-1.93678 -0.69421,-2.92279c-0.86851,-0.28143 -1.11496,-1.26724 -1.11496,-1.26724c-0.06155,-0.26236 -0.13305,-0.51458 -0.21348,-0.7581c-4.38735,-6.41973 -10.80316,-10.16235 -16.19825,-15.56299c-4.75519,-3.14014 -10.19223,-7.20425 -15.50543,-9.21494c-3.82857,-1.44886 -8.06766,-2.17276 -11.69728,-4.0883c-2.4386,-1.28698 -4.88232,-2.56536 -7.39017,-3.73408c-2.4789,-0.75804 -4.95404,-1.19574 -7.53673,-1.40701c2.23317,1.90621 4.97801,3.87185 6.43163,6.10024c0.96716,1.48265 1.32609,3.35925 2.10624,4.92603c1.8658,3.74709 4.83468,7.01007 6.7457,10.74187c1.24555,2.43229 1.38161,5.66497 1.91465,8.57053c0.57744,1.28525 1.0737,2.62216 1.47353,4.02155l0.09996,-0.58449c0,0 1.56525,0.78262 0.78262,2.34787c-0.78262,1.56525 -2.34787,0.78262 -2.34787,0.78262l-1.90004,-1.58449c-0.09651,-0.33777 -0.19923,-0.67126 -0.30791,-1.00069c-0.27593,-0.20347 -0.45484,-0.47571 -0.56149,-0.68466c-0.0872,-0.16947 -0.12413,-0.29256 -0.12413,-0.29256c-0.19184,-0.63988 -0.39419,-1.28262 -0.58798,-1.9294c-0.8008,-1.76172 -1.68307,-2.41083 -3.00455,-3.86813c-1.88725,-2.08123 -3.07604,-4.65455 -4.85544,-6.86416c-3.04938,-1.7169 -4.87586,-4.37029 -7.15849,-6.90067c-1.30163,-1.44291 -3.30176,-2.16207 -4.80681,-3.32099c-1.167,-0.89861 -2.10023,-2.07258 -3.24663,-2.99733c-2.23018,-1.79898 -4.82308,-2.15284 -7.34827,-3.26155c-3.23524,-1.42046 -6.30867,-3.25837 -9.59153,-4.68168c-1.11397,-0.05183 -2.22522,-0.11214 -3.33285,-0.18234c-2.07118,-0.13127 -5.25331,0.62467 -7.11198,-0.54053c-0.72625,-0.45529 -0.88482,-1.4743 -1.42001,-2.14385c-1.24818,-1.56154 -2.22192,-3.06709 -2.87921,-4.69896c-2.5516,-0.7897 -5.15447,-1.38133 -7.75035,-2.19241c-2.24977,-0.70294 -4.26322,-1.57567 -6.17626,-2.61048l-1.61019,0.17891l-0.00963,-0.08665c-0.16135,0.03297 -0.32484,0.05694 -0.49089,0.07017c-0.9441,0.07523 -1.74858,-0.73972 -2.57111,-1.20922c-5.38427,-3.0734 -7.56715,-7.93249 -5.24122,-13.67649c0.36164,-0.89309 1.36838,-4.00814 2.07691,-4.49257c0.89436,-0.61147 2.11926,-0.47092 3.1959,-0.59186c1.95682,-0.21981 4.00305,-0.17134 6.03487,-0.10078c-1.21092,-2.90474 -1.76327,-6.39176 -1.84883,-9.91091c-0.1683,-0.45466 -0.29076,-0.80749 -0.31118,-0.92875c-0.62022,-3.68237 -0.08308,-7.96566 -0.03191,-11.76182c-1.57944,-1.21382 -2.32946,-2.71361 -3.72426,-4.86354c-0.47173,-0.72712 -0.92099,-1.4618 -1.34958,-2.20372c-2.45305,-2.9618 -5.10539,-6.06535 -6.52761,-9.53632c-0.90701,-2.2136 -0.3967,-5.46688 -0.39032,-7.82278l-0.1446,-0.99316c-0.10401,-0.40103 -0.20646,-0.8032 -0.30756,-1.20646c0,0 -0.42444,-1.69775 1.27331,-2.12219c1.50894,-0.37723 2.01203,0.92193 2.10527,1.21557c0.06955,0.04377 0.13581,0.09231 0.19831,0.14515l1.49118,1.24265l-0.0228,0.02737l0.08257,0.02478c1.10806,1.10591 2.30059,2.74005 3.59315,3.62257c1.27122,0.86795 3.37007,2.10868 4.89539,2.47048c0.26036,0.06176 0.53614,0.06299 0.81101,0.06335c0.28604,-3.27459 0.84697,-6.54617 1.69837,-9.73649c-1.20495,-1.99888 -0.12401,-7.06028 0.07795,-8.27201l1.07434,-3.72245c0.93993,0.54731 2.03917,0.89415 2.90625,1.53314c0.56882,-1.0777 1.1801,-2.13194 1.83461,-3.15872c0.01221,-0.18547 0.0624,-0.35792 0.17884,-0.50763c0,-0.00002 0.00001,-0.91766 0.66451,-1.42395l1.08549,-2.32605c0.1476,0.31629 0.28484,0.63106 0.41222,0.94467c0.16871,-0.21571 0.33965,-0.42982 0.51282,-0.64227l1.0466,3.76139c-0.08421,0.37842 -0.16424,0.75798 -0.24068,1.13849c-0.00257,0.10132 -0.00539,0.20282 -0.00848,0.30449c0.03685,-0.02109 0.07365,-0.04135 0.11041,-0.06074c1.55763,-0.82192 3.28356,-1.27488 4.92534,-1.91232l-1.42952,4.10518c-1.51722,1.75986 -2.12888,4.14831 -3.47458,5.81062c-0.13201,0.16307 -0.26926,0.32127 -0.41076,0.47553c-0.00142,0.01088 -0.00284,0.02177 -0.00427,0.03267l-0.02225,-0.00386c-0.20757,0.22475 -0.42407,0.44122 -0.64637,0.65231c-0.45214,2.48587 -1.06556,4.91657 -1.85007,7.16563c-0.5013,1.43716 -1.09915,2.79724 -1.6598,4.16257c-0.14617,0.59113 -0.29499,1.18196 -0.45537,1.76928c1.64975,-0.55389 3.22603,-1.36982 4.69665,-2.39108c1.34023,-0.93072 1.75817,-1.80671 3.37355,-2.44731c2.81507,-1.11634 6.07363,-0.70983 8.92192,-1.55569c2.95342,-0.72086 6.14846,-1.1579 9.3898,-1.27928c0.54716,-2.22102 1.36652,-4.3806 2.19207,-6.44022c0.49262,-1.229 0.69433,-2.56414 1.07429,-3.83179c-0.6022,-1.65407 -0.48771,-3.88942 -0.62887,-5.50322c-0.29047,-0.41576 -0.72542,-1.32912 0.18794,-2.24248c1.23744,-1.23744 2.47487,0 2.47487,0l0.74497,1.23995c0.0114,0.07983 0.02989,0.20765 0.05323,0.36933c0.33986,-0.90166 0.59759,-1.88125 0.72506,-3.0651c0,0 0.05867,-0.52804 0.40231,-0.9699c0.07311,-0.78904 0.19173,-1.56759 0.40432,-2.3176l0.23492,-0.94368c0,0 0.42444,-1.69775 2.12219,-1.27331c1.69775,0.42444 1.27331,2.12219 1.27331,2.12219l-0.26508,1.05632c-0.64781,2.24697 -0.45351,4.57483 -0.67101,6.81182c0.82417,-0.48017 1.63938,-0.90921 2.33309,-1.29026c1.18885,-0.65301 2.33304,-1.96542 3.67257,-1.75224c0.29468,0.0469 0.56355,0.15075 0.81426,0.29465l0.03666,-0.06416l1.7205,0.98315c0.543,0.29709 0.91125,0.87368 0.91125,1.53628c0,0.76462 -0.49037,1.41471 -1.17379,1.65292l-1.799,0.67462c-2.76588,2.00272 -5.49071,3.71322 -8.56662,4.9038c-1.11441,2.6754 -2.43188,5.30081 -3.55744,8.09808c3.41924,0.20215 6.78479,0.77292 9.86714,1.74971c3.37708,1.07019 6.2352,2.99614 9.71047,3.9882l0.78817,-0.05207c0.00467,-0.00058 0.00934,-0.00117 0.01401,-0.00175c0,0 0.05101,-0.00638 0.13663,-0.0082l0.08043,-0.00531c0,0 0.0861,0 0.22011,0.0191c0.33781,0.03776 0.80188,0.16596 1.13179,0.5582c0.07406,0.08279 0.14155,0.17746 0.19908,0.2857c1.11025,0.05377 2.24116,0.0953 3.33154,0.039c3.69859,-2.31712 7.53351,-5.09263 9.58266,-8.74273c1.56514,-2.78795 2.49463,-6.10765 3.624,-8.96079c0.60544,-1.52953 1.0207,-3.6729 2.45191,-4.36625c0.00041,-0.00094 0.00082,-0.00187 0.00122,-0.00281l0.22163,-1.55143c0.10909,-0.86167 0.84476,-1.52798 1.73605,-1.52798c0.9665,0 1.75,0.7835 1.75,1.75v1.75h-0.1365c0.03119,0.1754 0.04983,0.35323 0.05302,0.53406c0.00934,0.52998 -0.17909,1.00054 -0.4643,1.44425c0.33732,0.31901 0.54779,0.77077 0.54779,1.27169v2.5h-0.02428c-0.03128,0.52295 -0.09203,1.0028 -0.18027,1.44946c0.20942,1.51446 0.26792,3.02103 0.2095,4.52826c0.49505,0.51816 0.49505,1.27228 0.49505,1.27228c-0.00769,3.71158 0.84721,7.41741 0.49404,11.14434c-0.58817,6.20676 -1.90517,12.62319 -4.04575,18.5607c-0.01412,1.12957 -0.10975,2.26299 -0.28188,3.38974c0.85553,-1.23431 1.79226,-2.3772 2.94611,-3.10305c1.36576,-0.85916 2.90887,-0.76538 4.41424,-0.74465c1.67434,-0.96266 3.30957,-1.5713 4.51001,-2.77025c0.1306,-0.42519 0.23181,-0.77778 0.28056,-0.95758l0.88906,-0.7414c0.13816,-0.30671 0.25913,-0.64133 0.36094,-1.0086l0.21665,-1.11244c0,0 0.01166,-0.05828 0.04141,-0.1512c0.09094,-0.33696 0.29159,-0.76745 0.73428,-1.02681c0.27247,-0.17748 0.6347,-0.28393 1.11302,-0.22284c0.48101,0.0339 0.81534,0.20932 1.04771,0.4368c0.38322,0.34114 0.49555,0.80262 0.51865,1.15087c0.01095,0.09696 0.01095,0.15639 0.01095,0.15639c-0.0037,2.57915 -0.2183,5.26191 -0.38205,7.9532c0.10464,2.58878 0.26676,5.15493 0.43593,7.71869c0.19612,0.42133 0.19612,0.82811 0.19612,0.82811z" stroke="none" stroke-width="0.5"></path></g><g fill-opacity="0.08235" fill="#b69edb" stroke="none" stroke-width="0.5"><path d="M302.91996,184.9973c0.49265,-0.21689 1.03735,-0.3373 1.61018,-0.3373c0.09809,0 0.19536,0.00353 0.29168,0.01047c0.58178,-0.70026 1.39797,-1.19882 2.32818,-1.37527c0.49931,-0.72801 -0.15564,-2.54275 0.6459,-3.30627c4.22623,-4.02575 10.53111,-5.84639 13.87902,0.01246c0.24252,0.42441 -0.69592,2.43893 -1.65051,4.49977c0.03992,0.37908 0.1223,0.73667 0.27209,1.05982c3.42972,7.39921 12.61357,9.27713 6.64824,19.42893c-2.25531,3.83809 -6.65611,8.86025 -11.27982,9.77982c-1.28549,0.25566 -3.19904,0.07097 -4.58502,-0.66248c-1.76713,1.98289 -4.28161,3.02354 -6.58582,1.70685c-0.52982,-0.30275 -1.59928,-2.7335 -2.27765,-3.84073c-0.45823,-0.25012 -0.86213,-0.58728 -1.18949,-0.98926c-0.67079,-0.57537 -1.48098,-1.54631 -1.5968,-1.92411c-0.14397,-0.46962 -0.2365,-0.93416 -0.30041,-1.39433l-1.08742,0.27185l-0.17351,0.11567l-0.50315,0.17969l-0.45074,0.28684l-0.48032,0.16011l-0.24574,0.12287l-0.16569,0.03682l-0.1376,0.09938l-1.25,0.5l-0.75062,0.10236l-0.73495,0.18374h-7.5l-0.47772,-0.11943h-0.49242l-1,-0.25l-0.24482,-0.13057h-6.20399l-1.17345,0.19558l-0.33326,-0.02666l-0.32434,0.08108h-7.75097l-1.75289,0.21911l-0.25092,-0.03042l-0.24521,0.0613h-4.5l-1.12522,-0.2813c0.37964,0.39232 0.6797,0.86213 0.87416,1.3834c0.81128,0.47092 8.83625,2.06962 10.77566,2.6479c9.62744,2.87065 19.75852,5.06934 29.30107,8.57342c4.61289,1.69388 8.59238,4.62198 13.07044,6.6525c5.62381,2.55005 7.89746,2.90343 12.96667,6.54617c5.44863,3.91539 9.89882,8.28883 14.86744,13.05128c1.8972,1.81847 4.82664,3.62513 5.76977,6.17662c0.99063,2.68002 5.3323,9.75 -2,9.75c-4.00459,0 -4.22329,-4.89154 -5.98191,-7.13677c-2.80954,-3.58692 -7.51412,-7.26891 -10.43986,-10.12815c-6.47199,-6.3249 -10.86929,-7.41959 -18.36708,-10.90737c-4.2236,-1.96471 -8.1589,-5.07104 -12.59398,-6.46134c-3.38265,-1.06038 -6.72829,-1.47461 -10.02166,-2.62105c-2.52149,-0.87774 -5.56618,-3.09555 -8.11584,-3.49532c-6.74219,-1.05714 -13.93015,-2.80846 -20.68915,-4.64597c6.92089,2.97643 13.50019,5.89924 20.03791,10.56754c6.31881,4.51199 10.58144,11.41228 16.15764,16.22433c3.5503,3.06377 10.82534,9.33385 11.32254,14.08853c0.15672,1.49875 1.27909,3.92787 -0.05861,5.26557c-2.66667,2.66667 -4.33333,2.66667 -7,0c-0.6347,-0.6347 -0.47315,-1.88562 -0.5,-2.73646c-0.0328,-1.03934 -1.93769,-2.91081 -2.5416,-3.65248c-6.16816,-7.5751 -14.47477,-16.49843 -22.1952,-22.82766c-9.4428,-7.74125 -22.01096,-10.29938 -32.34763,-16.62988c-0.34999,-0.21435 -3.8309,-1.74343 -6.54,-3.17895c-3.84413,0.73101 -4.02947,-1.51967 -7.63717,-3.50824c-6.96584,-3.83959 -9.82363,-5.99342 -9.23841,-14.46634c0.43524,-6.30144 5.61788,-3.09573 8.375,-4.75c0.44194,-0.26517 -0.30509,-0.98938 -0.375,-1.5c-0.20046,-1.46419 0.32002,-3.12976 0.67229,-4.53885c1.15305,-4.61218 6.04136,-8.28303 10.5628,-9.25588c5.76503,-1.24043 14.99012,-0.77205 20.09334,3.46631c1.27417,1.05823 1.71308,3.77616 2.75726,4.52414c3.05772,2.19033 5.21336,4.88616 5.53845,7.90812c0.38123,-0.05914 0.76423,-0.10264 1.12586,-0.10383c1.97075,-0.00647 3.94165,-0.02135 5.91256,-0.03601c-1.37765,-2.6412 -1.66721,-7.99705 -0.35982,-8.74413l3.44726,-1.96986c0.62709,0 1.22047,0.1443 1.74876,0.40151c3.38398,0.22074 5.60663,-3.04968 8.42282,-5.72994c6.888,-6.55552 14.73122,-15.59649 17.03369,-24.93648c0.25614,-1.03902 2.04167,-2.93535 2.04473,-3.64172c0.01353,-3.11888 -1.7054,-7.13796 0.5,-9.34337c2.66667,-2.66667 4.33333,-2.66667 7,0c2.79714,2.79714 0.52274,11.45241 0.25,16.14608c-0.33654,5.79166 -2.48515,10.95468 -4.69581,16.25884c-1.17541,2.82024 -1.17061,5.84316 -2.72648,8.63393c-0.90645,1.62591 -2.31999,2.82879 -3.38253,4.37501c0.10593,-0.05463 0.2143,-0.10181 0.32478,-0.14157zM312.63014,205.46c0.18449,0.30748 0.33332,0.62883 0.449,0.96035c0.72482,-0.57225 1.43683,-1.158 2.01452,-1.84712c-0.36159,-0.11124 -0.71194,-0.24759 -1.04349,-0.40623l-0.0754,0.02693l-0.3392,0.24498l-1.25,0.5l-0.08764,0.01195c0.12406,0.17752 0.23534,0.3477 0.33221,0.50914zM292.75996,201.57288l0.35119,-0.17559l0.28105,-0.06246l0.24192,-0.15395l-1.75404,0.52621l-0.03579,0.0179h0.5354zM258.20129,208.44144c0.11019,0.03789 0.21819,0.08045 0.32379,0.12746l-0.08777,-0.15361c-0.07857,0.00835 -0.15722,0.01705 -0.23602,0.02614zM240.56559,209.66169c0.71121,0.29582 1.40643,0.61639 2.09045,0.95405c-1.07184,-2.13445 -1.34897,-4.44821 -0.01056,-6.39074c0.24791,-0.35981 -0.88224,-0.00494 -1.30615,-0.11091c-0.16692,-0.04173 -0.36591,-0.09449 -0.58113,-0.15491c-0.11649,0.01034 -0.23442,0.01568 -0.35357,0.01582c-0.00155,0 -0.00309,0 -0.00464,0c-0.41054,0 -0.80663,-0.06185 -1.17946,-0.17673c-2.6176,-0.46195 -7.93212,-1.62369 -9.06558,-1.50778c-0.01301,0.00133 1.08464,1.2185 1.23111,1.33041c0.99711,0.7618 2.06507,1.79978 3.0181,2.66617c0.42629,0.38754 0.84714,0.77216 1.24346,1.15892c1.96274,0.01966 3.2719,1.53105 4.91796,2.2157z"></path><path d="M236.37677,164.95757c7.84203,3.13681 3.44475,10.55521 -4.51123,9.43975c-5.05292,-0.70844 -11.71932,-9.67844 -13.89212,-14.34665c-0.74785,-1.60675 -0.87495,-3.87292 -1.78976,-5.31408c-1.55436,-2.44869 -4.86476,-8.4305 -2.28366,-11.01159c5.25843,-5.25843 10.37972,4.87256 11.43548,9.53446c0.22162,0.97858 0.15824,4.84488 2.06452,5.21554c1.30209,0.25318 0.39214,-3.60356 0.5,-4.5c0.3141,-2.61041 3.41859,-13.44574 7.47014,-11.13057c3.35705,1.91831 3.89395,5.04122 2.91894,8.94123c-0.2992,1.19681 -1.951,2.04246 -2.13909,3.22923c-0.50001,3.15499 0.6216,6.22371 -0.22368,9.60484z"></path><path d="M266.18742,167.10556c0.48988,0.86581 2.65594,3.0819 2.60167,4.05878c-0.37029,6.66521 -6.17633,6.18715 -9.71197,2.1214c-1.1188,-1.28655 -2.99747,-1.85871 -3.92711,-3.06074c-3.82209,-4.94197 2.2385,-13.79475 3.48286,-18.3104c0.54978,-1.99508 0.82414,-4.04667 1.36239,-6.05732c0.48452,-1.80998 2.52024,-6.12632 5.15475,-5.63228c3.43864,0.64484 3.51061,1.56381 4,4c0.34562,1.72049 -0.9278,3.56995 -1.11943,5.22772c-0.49412,4.27458 -1.21812,9.88315 -3.06551,13.78318c0.04614,0.06818 0.09024,0.13787 0.1322,0.20896c0.05262,0.03007 0.1101,0.14716 0.17104,0.32267c0.20629,0.43638 0.33596,0.91607 0.37165,1.42172c0.1856,0.7911 0.37718,1.61534 0.54747,1.91631z"></path></g><g fill-opacity="0.08235" fill="#b69edb" stroke="none" stroke-width="0.5"><path d="M235.9,196.475c-2.76669,-0.69167 -4.97548,-1.02303 -7,-3.25c-3.44501,-3.78951 3.43316,-8.58327 6,-9.5c7.50181,-2.67922 12.6269,0.22768 18.37375,3.34533c2.15572,1.16947 5.86036,2.7241 6.51534,5.34401c2.38844,9.55377 -19.86604,5.56026 -20.1281,5.56066c-1.20284,0.00184 -3.1055,-0.47789 -3.68956,-1.5z"></path><path d="M221.65,147.475c1.01229,0.57845 2.40694,0.7771 3.18865,1.58458c0.11922,0.12315 0.22418,0.26045 0.31135,0.41542c1.14798,2.04082 0.43703,4.68034 1.90925,6.72294c0.02211,0.03068 0.04545,0.06155 0.06997,0.09261c0.41747,-3.53246 1.31901,-8.84549 5.49439,-7.34047c1.2641,0.45564 2.75318,1.03422 3.3541,2.23607c0.59711,1.19423 -0.99189,7.10497 -1.30192,8.96517c0.14524,0.41431 0.22421,0.85977 0.22421,1.32368c0,5.84805 7.66501,8.43797 5.5,14.5c-1.28672,3.60283 -6.10816,0.66108 -7.86944,-0.46258c-2.28634,-1.45865 -6.03332,-2.78882 -6.6753,-5.77251c-0.22829,-1.06101 -0.29965,-2.29856 -0.30552,-3.50968c-3.30856,-2.30409 -6.91753,-8.48734 -7.57207,-10.97077c-0.32938,-1.24971 -0.95456,-5.14053 0.22506,-5.8146z"></path><path d="M259.35527,145.21009c0.38999,-1.07477 1.13685,-3.75428 2.1068,-4.23925c3.3731,-1.68655 4.95424,-1.1595 6.64078,2.21359c0.70043,1.40086 -0.74389,3.49975 -1.24801,4.82516c-0.61617,1.62001 -3.90227,9.92312 -3.95484,11.40968c-0.14632,4.1378 4.167,8.73969 3.20285,12.5963c-0.76877,3.07507 -5.45102,4.99819 -7.45285,1.70943c-1.6964,-2.78697 -2.75894,-6.3236 -4.29172,-9.38917c-0.29265,-0.55585 -0.45828,-1.189 -0.45828,-1.86083c0,-0.06756 0.00168,-0.13474 0.00499,-0.20148c0.16445,-4.54202 3.8688,-12.70503 5.45028,-17.06343z"></path><path d="M254.68703,208.37183c0.73908,0.83572 0.989,2.55737 2.10371,2.60317c9.01485,0.37037 12.30555,0.33077 20.37418,1.95527c6.576,1.32398 13.13454,5.15011 19.12513,7.89262c5.83284,2.67029 12.09456,4.36552 17.78621,7.39311c5.3095,2.8243 8.07992,3.12863 12.65217,7.43058c2.01366,1.89462 5.81239,4.3283 3.49977,7.79723c-1.73355,2.60032 -4.43002,2.06704 -6.297,0.6094c-1.72329,-1.34545 -3.30598,-3.82465 -5.11533,-5.00547c-0.91634,-0.59802 -2.72045,-0.96763 -3.71865,-1.21718c-4.34863,-1.08716 -13.47809,-6.82358 -18.68073,-8.54082c-9.089,-3.00001 -18.887,-10.28294 -28.78004,-10.31473c-2.6879,-0.00864 -5.38539,-0.22366 -8.06458,-0.0197c9.31603,3.52988 17.045,7.04253 24.70554,14.24026c2.9934,2.81255 6.13518,3.44222 7.99724,7.52806c1.82635,4.00749 6.6557,6.57003 8.88435,10.57513c0.78138,1.40422 2.29806,4.36918 0.74099,5.92626c-2.83633,2.83633 -4.16367,2.497 -7,0c-0.9871,-0.86901 -1.42217,-3.72532 -2.55625,-4.85469c-6.0091,-5.98412 -10.79261,-13.01348 -17.9962,-17.66032c-7.84815,-5.06263 -17.06003,-7.62318 -25.48641,-11.65729c-1.89329,-0.90641 -7.45957,-4.03283 -6.83443,-6.325c-0.01766,-0.06841 -0.03355,-0.13752 -0.04763,-0.2073c-1.57779,0.86895 -4.49136,0.3416 -6.11004,0.00935c-3.87161,-0.79468 -9.17115,-4.33725 -12.1208,-6.82033c-1.06839,-0.89939 -2.70456,-0.69607 -3.4718,-1.87406c-1.09342,-1.67879 -2.7693,-2.65693 -2.65137,-4.88677c0.23226,-4.39179 6.49409,-11.20266 8.74637,-2.94428l1.97581,1.69053c0.42179,0.24103 0.33513,1.20467 0.8298,1.62089c1.8806,1.58237 6.80812,4.63761 9.34415,5.15925c1.40296,0.28858 4.00562,0.02672 4.88295,1.56206c0.38784,0.67873 0.63191,1.34043 0.73279,1.9815c-0.07804,-1.43975 -0.05493,-2.77397 0.01304,-3.79356c0.15295,-2.29427 2.48458,-4.50386 4.87975,-3.90506c0.28016,-0.06216 0.57138,-0.09494 0.87025,-0.09494c1.95048,0 3.5749,1.39604 3.92855,3.24343c0.29619,0.29152 0.58312,0.59204 0.85848,0.9034z"></path><path d="M305.13203,194.98971c2.08984,2.9361 4.43006,5.20296 5.96276,8.48928c0.43089,0.92389 1.21203,1.8001 1.78302,2.70257c0.39965,-0.13397 0.82744,-0.20656 1.2722,-0.20656c0.01999,0 0.03994,0.00015 0.05986,0.00044c1.28185,-0.03457 0.94033,-2.93554 1.19014,-3.75044c0.94898,-3.09562 7.51753,-2.45232 9.25,-1.75c3.8666,1.56748 1.91718,6.11678 0.68164,8.3764c-2.12927,3.8941 -3.66978,5.03498 -7.91402,5.00259c-1.86446,-0.01423 -3.81625,2.43218 -5.99123,2.39593c-1.2672,-0.02112 -2.16301,-0.55388 -2.73154,-1.35912c-1.75735,-0.20377 -3.78146,-1.62324 -5.86063,-3.31563c-1.27952,-1.04149 -2.55231,-4.44153 -3.4272,-5.93413c-1.79163,-3.05662 -4.2078,-5.4687 -6.15397,-8.33386c-3.76897,-0.08239 -7.55419,-1.22385 -11.2845,-1.33218c-0.04082,-0.00119 -6.07034,0.40034 -7.31856,-0.5c-4.26554,-3.07675 -0.10981,-6.79604 3.01314,-8.08961c0.29553,-0.12241 0.87849,-0.42062 1.47555,-0.71031c0.40464,-0.27782 0.86295,-0.48314 1.35618,-0.59724c0.22118,-0.07629 0.3871,-0.11064 0.4614,-0.07851c0.1457,-0.01608 0.29375,-0.02433 0.44373,-0.02433c0.57213,0 1.1162,0.12012 1.60837,0.3365c1.88156,0.09595 2.69293,-1.16671 4.98642,-2.22797c2.96797,-1.37337 5.43037,-2.91443 7.87837,-4.8384c1.72871,-1.35866 2.41272,-6.85351 2.81704,-8.83581c0.82319,-4.03594 2.97819,-7.66678 4.2098,-11.68431c1.00303,-3.27192 5.65996,-2.28956 7.41043,-0.78916c2.47188,2.11875 1.34326,12.29644 1.33957,12.53916c-0.06903,4.5423 -2.8823,8.58437 -5.96407,12.00232c3.48814,-1.09895 7.21407,0.51014 7.21407,6.24768l-0.45828,1.86083c-1.18439,2.36879 -5.04544,3.46599 -8.18983,3.04788c0.27196,0.45763 0.56276,0.91012 0.88013,1.356z"></path></g><g fill-opacity="0.08235" fill="#b69edb" stroke="none" stroke-width="0.5"><path d="M227.14174,157.94828c0.07184,0.49381 0.08972,0.95782 0.05899,1.38889c0.62015,-0.39508 1.35648,-0.62398 2.14628,-0.62398c0.3646,0 0.71781,0.04878 1.05345,0.14017c0.533,0.11612 1.05124,0.36114 1.52146,0.75824c3.43877,2.90409 6.80315,8.31641 7.77119,12.75271c0.69709,3.19459 -3.48956,7.67715 -6.33216,4.95299c-3.41473,-3.27245 -6.12094,-8.83077 -7.72688,-13.11329c-0.18516,-0.46072 -0.28705,-0.96387 -0.28705,-1.49081c0,-0.07103 0.00185,-0.14164 0.00551,-0.21176c-1.20176,0.65477 -2.87617,0.62456 -4.69345,-0.28408c-0.73878,-0.36939 -1.6337,-3.03794 -1.99228,-3.93438c-0.20585,-0.48197 -0.31978,-1.01257 -0.31978,-1.56979c0,-0.24599 0.02221,-0.4868 0.06472,-0.72053c0.37831,-2.93683 2.01104,-3.69658 3.76693,-3.27599c0.05583,-0.00231 0.11195,-0.00348 0.16835,-0.00348c1.87028,0 3.44077,1.2836 3.87855,3.01791c0.47516,0.70546 0.8072,1.468 0.91618,2.21718z"></path><path d="M261.347,171.71319c-4.98787,0.66505 -9.67548,-8.79258 -5.26321,-11.31388c0.72484,-1.02038 1.91628,-1.68612 3.26321,-1.68612c1.81841,0 3.35341,1.21338 3.83952,2.87465c2.94319,3.63041 4.16359,9.32493 -1.83952,10.12535z"></path><path d="M246.347,186.21319c1.68111,0.84056 2.9562,2.67666 4.53776,3.38444c1.06085,0.47475 2.15357,-0.44311 3.21224,0.61556c2.90772,2.90772 2.2077,7.35452 -2.25,8.25c-5.07493,1.01947 -10.12425,-2.31313 -15.15413,-1.90198c-0.34826,0.09899 -0.71588,0.15198 -1.09587,0.15198c-2.20914,0 -4,-1.79086 -4,-4c0,-0.48042 0.08469,-0.94105 0.23997,-1.36779c1.57844,-5.20888 10.26016,-7.25715 14.51003,-5.13221z"></path><path d="M279.86191,217.41846c8.6505,2.62414 15.99648,8.41549 24.66754,10.97251c3.1897,0.94062 12.58485,3.63364 12.81754,7.82222c0.19977,3.59582 -4.42615,4.53743 -7.01491,3.29473c-9.69945,-4.65609 -19.83602,-7.82935 -29.24668,-13.07839c-2.83374,-1.58059 -4.89468,-1.18243 -7.98841,-1.46634c-0.13591,-0.01247 -0.28262,-0.01796 -0.43335,-0.0232c-1.1174,-0.12038 -2.09694,-0.70091 -2.74532,-1.54828c-1.64459,-0.42633 -3.36952,-0.85608 -5.11635,-1.24361c6.58167,3.4785 12.89522,7.60686 18.44502,12.61509c3.67905,3.32004 10.61806,6.57077 13.16415,10.56199c1.45034,2.27354 4.9228,4.87078 0.65465,7.71621c-3.61263,2.40842 -8.31596,-3.98739 -10.99586,-5.91895c-9.56723,-6.89567 -19.11184,-15.69195 -30.00754,-20.70441c-4.69507,-2.15992 -9.12322,-3.39084 -13.00499,-6.70484c-0.33348,-0.2847 -0.72437,0.53274 -1.14976,0.63909c-1.05155,0.26289 -2.56268,0.06836 -3.57557,-0.34435c-3.47792,-1.41713 -6.45644,-3.42848 -10.01533,-4.96272c-1.77414,-0.76483 -3.9044,0.07136 -5.6899,-0.70145c-3.51305,-1.52054 -5.15541,-10.13026 -2.47712,-11.66071c0.69581,-1.17896 1.97917,-1.96986 3.44726,-1.96986c1.30172,0 2.4582,0.6218 3.18865,1.58458c0.11922,0.12315 0.22418,0.26045 0.31135,0.41542c0.39566,0.70338 0.48885,1.17423 0.47895,1.5871c0.01392,0.13574 0.02105,0.27349 0.02105,0.4129c0,0.38766 -0.05515,0.76245 -0.15803,1.11693c0.01371,0.25272 0.05892,0.54054 0.15803,0.88307c0.11642,0.40235 3.38236,0.69118 4,1c1.45735,0.72867 6.80609,4.1283 8.64159,4.38956c1.90955,0.27181 3.8969,-0.42491 5.99737,-0.08848c0.89393,-2.24338 2.32202,-3.9535 4.13896,-3.04503c0.07351,-0.00402 0.14756,-0.00606 0.22208,-0.00606c2.12518,0 3.86327,1.65732 3.99231,3.75c1.0496,0.7872 4.51437,0.86134 6.00769,1c5.14131,0.47739 10.08728,1.65828 15,2.75c0.11959,0.02657 0.24096,0.05787 0.36348,0.0937c1.1207,0.1021 2.39891,0.40577 3.90143,0.86157z"></path><path d="M287.92539,189.39966c1.68499,-1.36035 3.82255,-3.02631 5.80218,-4.47388c3.28188,-2.39981 7.69942,-14.26972 12.65829,-11.79029c6.44618,3.22309 -2.84467,11.3118 -4.28885,14.57771c-0.10576,0.23917 -1.91033,2.1564 -1.90728,2.16226c0.59167,1.13664 1.92466,2.05644 1.90728,3.33774c-0.00472,0.34829 -0.07755,0.68736 -0.19939,1.01513c3.90094,3.72744 8.04908,10.73568 8.82996,15.51473c0.82219,5.0318 -6.61557,7.1815 -9.56851,3.72431c-2.68264,-3.14074 -4.8807,-11.40542 -6.49228,-15.43438c-0.08486,-0.19869 -0.1541,-0.40564 -0.20618,-0.61932c-5.0243,0.52473 -8.87896,-0.24126 -13.64807,-1.27815c-0.98685,-0.21456 -3.96419,-2.04324 -3.58882,-3.41961c-0.08272,-0.32044 -0.12672,-0.65644 -0.12672,-1.00271c0,-2.20914 1.79086,-4 4,-4c1.29457,-1.00231 5.35953,2.87232 6.82838,1.68646z"></path></g><path d="M286.44489,207.97198c-1.38475,2.80988 -2.93932,11.50405 -6.15913,13.03229c-3.31195,1.57198 -9.42113,3.4113 -9.79506,-2.25432c-0.18353,-2.78077 2.00005,-4.40606 2.36289,-6.91491c0.78503,-5.42812 3.70946,-13.9923 6.6521,-18.62438c3.25437,-5.12281 6.49145,-6.74689 9.80579,-0.84948c2.07024,0.29345 3.58419,2.14904 3.42318,4.26369c-0.04632,0.60832 -0.2264,1.17446 -0.50922,1.67179c-1.31395,3.31452 -4.26081,6.59153 -5.78055,9.67531z" fill="#372d49" stroke="none" stroke-width="0.5"></path><path d="M293.9,205.475c0.15371,-0.5026 0.32344,-1.18128 0.51229,-1.95998c0.81101,-3.34409 1.97472,-8.5326 3.73771,-9.54002c2.11969,-1.21125 7.69072,-0.2651 9.75,1.5c0.4688,0.40183 1.04776,0.72784 1.3541,1.26393c0.20479,0.35838 -0.33829,1.23383 0.07447,1.23607c2.00893,0.01087 4.48225,0.09394 5.57143,2c0.69579,1.21763 0.71716,3.49836 0.38909,4.81066c-1.30269,5.21075 -10.35383,4.12106 -13.64708,4.19134c-1.36204,0.02907 -4.76702,1.70423 -5.77214,-0.05474z" fill="#20182e" stroke="none" stroke-width="0.5"></path><path d="M310.83934,206.58591c8.23092,-0.63315 4.13223,10.15779 -1.93934,10.38909c-1.17489,0.04476 -1.98533,-1.27874 -3.0625,-1.75c-0.0671,-0.02936 -0.13941,-0.0504 -0.21594,-0.06491c-0.23405,0.04264 -0.47521,0.06491 -0.72156,0.06491c-0.15866,0 -0.31516,-0.00924 -0.46899,-0.0272c-1.98814,-0.23219 -3.53101,-1.92232 -3.53101,-3.9728c0,-1.45587 0.77778,-2.73007 1.94049,-3.42976c0.22164,-0.16834 0.4968,-0.29469 0.86678,-0.3894c0.3767,-0.11752 0.77732,-0.18084 1.19273,-0.18084c1.91998,-0.16306 4.05427,-0.49408 5.93934,-0.63909z" fill="#2c233c" stroke="none" stroke-width="0.5"></path><path d="M321.3768,205.36757c0.01502,-0.01401 0.03004,-0.02805 0.04507,-0.04213c0,0 0.77023,-0.71452 1.48475,0.05571c0.71452,0.77023 -0.05571,1.48475 -0.05571,1.48475c-1.91017,1.75669 -3.78289,3.05557 -5.97919,4.43033c-0.45042,0.28194 -2.56894,1.84178 -2.57805,1.83983c-0.48509,-0.10411 -0.8526,-0.51767 -1.10555,-1.00228c-0.20815,0.24514 -0.60115,0.52639 -1.20575,0.25784c-0.96016,-0.42649 -0.53367,-1.38665 -0.53367,-1.38665l0.56212,-0.69838c0.32982,-0.17085 0.65987,-0.33623 0.99055,-0.49691c0.73538,-1.61972 3.2358,-2.77732 4.40569,-3.47878c0.58278,-0.34943 1.09983,-0.88851 1.76726,-1.0161c1.08366,-0.20717 1.80563,-0.18857 2.20248,0.05277z" fill="#b49fda" stroke="none" stroke-width="0.5"></path></g></g></svg>