<svg version="1.1" xmlns="http://www.w3.org/2000/svg" xmlns:xlink="http://www.w3.org/1999/xlink" width="501.07377" height="501.07376" viewBox="0,0,501.07377,501.07376"><defs><linearGradient x1="239.98158" y1="-15.52529" x2="239.98158" y2="180.00002" gradientUnits="userSpaceOnUse" id="color-1"><stop offset="0" stop-color="#e10000" stop-opacity="0"></stop><stop offset="1" stop-color="#e10000" stop-opacity="0.36471"></stop></linearGradient><linearGradient x1="44.47473" y1="180.0184" x2="240" y2="180.0184" gradientUnits="userSpaceOnUse" id="color-2"><stop offset="0" stop-color="#e10000" stop-opacity="0"></stop><stop offset="1" stop-color="#e10000" stop-opacity="0.36471"></stop></linearGradient><linearGradient x1="435.52527" y1="180.0184" x2="240" y2="180.0184" gradientUnits="userSpaceOnUse" id="color-3"><stop offset="0" stop-color="#e10000" stop-opacity="0"></stop><stop offset="1" stop-color="#e10000" stop-opacity="0.36471"></stop></linearGradient><linearGradient x1="239.98158" y1="375.52528" x2="239.98158" y2="180.00001" gradientUnits="userSpaceOnUse" id="color-4"><stop offset="0" stop-color="#e10000" stop-opacity="0"></stop><stop offset="1" stop-color="#e10000" stop-opacity="0.36471"></stop></linearGradient></defs><g transform="translate(10.53688,70.53687)"><g stroke="none" stroke-miterlimit="10"><g stroke-width="0"><path d="M239.98158,180.00002l-13.31491,-249.8456l26.66667,-0.69129z" fill="url(#color-1)"></path><path d="M240,180.0184l-249.8456,13.31491l-0.69128,-26.66667z" fill="url(#color-2)"></path><path d="M490.53689,166.66668l-0.69128,26.66667l-249.8456,-13.31492z" fill="url(#color-3)"></path><path d="M253.33334,430.53689l-26.66667,-0.69128l13.31491,-249.8456z" fill="url(#color-4)"></path></g><g fill-opacity="0.68627" fill="#e00000" stroke-width="0.5"><path d="M240.43334,162.36312c-1.5,0 -1.5,-1.5 -1.5,-1.5c0,-4 0,-8.33333 0,-12.33333c0,0 0,-1.5 1.5,-1.5c1.5,0 1.5,1.5 1.5,1.5c0,4 0,8 0,12v0.33333c0,0 0,1.5 -1.5,1.5z"></path><path d="M240.10001,211.36312c-1.5,0 -1.5,-1.5 -1.5,-1.5c0,-2.16666 0,-5.33334 0,-7.5c0,0 0,-1.5 1.5,-1.5c1.5,0 1.5,1.5 1.5,1.5c0,2.16666 0,4.33334 0,6.5v1c0,0 0,1.5 -1.5,1.5z"></path><g><path d="M245.76668,163.86312c-1.5,0 -1.5,-1.5 -1.5,-1.5c0,-2.11111 0,-5.05556 0,-7.16667c0,0 0,-1.5 1.5,-1.5c1.5,0 1.5,1.5 1.5,1.5c0,2.11111 0,4.22223 0,6.33334v0.83333c0,0 0,1.5 -1.5,1.5z"></path><path d="M251.60001,167.6964c-1.5,0 -1.5,-1.5 -1.5,-1.5v-1c0,-2.17442 0.16862,-4.32975 0.16667,-6.5c0,0 0,-1.5 1.5,-1.5c1.5,0 1.5,1.5 1.5,1.5c-0.0018,2.17142 -0.16667,4.32519 -0.16667,6.5v1c0,0 0,1.5 -1.5,1.5z"></path><path d="M257.76668,172.36312c-1.5,0 -1.5,-1.5 -1.5,-1.5c0,-2.27778 0,-5.88889 0,-8.16667c0,0 0,-1.5 1.5,-1.5c1.5,0 1.5,1.5 1.5,1.5c0,2.27778 0,4.55555 0,6.83334v1.33333c0,0 0,1.5 -1.5,1.5z"></path><path d="M263.76668,176.69646c-1.5,0 -1.5,-1.5 -1.5,-1.5v-1.5c0.00399,-3.71516 -0.16667,-7.44155 -0.16667,-11.16666c0,0 0,-1.5 1.5,-1.5c1.5,0 1.5,1.5 1.5,1.5c0,3.72621 0.16302,7.4499 0.16667,11.16666v1.5c0,0 0,1.5 -1.5,1.5z"></path><path d="M258.84661,181.84271c-1.47959,0.2466 -1.72619,-1.23299 -1.72619,-1.23299l-0.18707,-1.2466c0,-1.05555 0,-2.11111 0,-3.16667c0,0 0,-1.5 1.5,-1.5c1.5,0 1.5,1.5 1.5,1.5c0,1.05555 0,2.11111 0,3.16667l0.14625,0.7534c0,0 0.2466,1.47959 -1.23299,1.72619z"></path><path d="M264.10001,188.69646c-1.5,0 -1.5,-1.5 -1.5,-1.5c0,-1.11111 0,-3.55555 0,-4.66666c0,0 0,-1.5 1.5,-1.5c1.5,0 1.5,1.5 1.5,1.5c0,1.11111 0,2.22222 0,3.33333v1.33333c0,0 0,1.5 -1.5,1.5z"></path><path d="M269.10001,193.52977c-1.5,0 -1.5,-1.5 -1.5,-1.5c0,-1.16666 0,-3.66667 0,-4.83334c0,0 0,-1.5 1.5,-1.5c1.5,0 1.5,1.5 1.5,1.5c0,1.16666 0,2.33334 0,3.5v1.33334c0,0 0,1.5 -1.5,1.5z"></path><path d="M261.60001,199.52977c-1.5,0 -1.5,-1.5 -1.5,-1.5c0,-2.11111 0,-4.88889 0,-7c0,0 0,-1.5 1.5,-1.5c1.5,0 1.5,1.5 1.5,1.5c0,2.11111 0,4.22222 0,6.33333v0.66667c0,0 0,1.5 -1.5,1.5z"></path><path d="M255.26668,201.86312c-1.5,0 -1.5,-1.5 -1.5,-1.5c0,-2.11111 0,-4.55556 0,-6.66667c0,0 0,-1.5 1.5,-1.5c1.5,0 1.5,1.5 1.5,1.5c0,2.11111 0,4.22223 0,6.33334v0.33333c0,0 0,1.5 -1.5,1.5z"></path><path d="M249.43334,203.69646c-1.5,0 -1.5,-1.5 -1.5,-1.5c0,-1.77778 0,-5.05555 0,-6.83333c0,0 0,-1.5 1.5,-1.5c1.5,0 1.5,1.5 1.5,1.5c0,1.77778 0,3.55555 0,5.33333v1.5c0,0 0,1.5 -1.5,1.5z"></path><path d="M244.95273,203.68485c-1.48842,0.18605 -1.67447,-1.30236 -1.67447,-1.30236l-0.17825,-1.51938c0,-1 0,-2 0,-3c0,0 0,-1.5 1.5,-1.5c1.5,0 1.5,1.5 1.5,1.5c0,1 0,2 0,3l0.15508,1.14728c0,0 0.18605,1.48842 -1.30237,1.67446z"></path></g><g><path d="M231.43334,162.6964v-0.83333c0,-2.11111 0,-4.22223 0,-6.33334c0,0 0,-1.5 1.5,-1.5c1.5,0 1.5,1.5 1.5,1.5c0,2.11111 0,5.05555 0,7.16666c0,0 0,1.5 -1.5,1.5c-1.5,0 -1.5,-1.5 -1.5,-1.5z"></path><path d="M225.60001,166.52977v-1c0,-2.17481 -0.16487,-4.32858 -0.16667,-6.5c0,0 0,-1.5 1.5,-1.5c1.5,0 1.5,1.5 1.5,1.5c-0.00196,2.17025 0.16667,4.32558 0.16667,6.5v1c0,0 0,1.5 -1.5,1.5c-1.5,0 -1.5,-1.5 -1.5,-1.5z"></path><path d="M219.43334,171.19646v-1.33333c0,-2.27778 0,-4.55555 0,-6.83334c0,0 0,-1.5 1.5,-1.5c1.5,0 1.5,1.5 1.5,1.5c0,2.27778 0,5.88888 0,8.16666c0,0 0,1.5 -1.5,1.5c-1.5,0 -1.5,-1.5 -1.5,-1.5z"></path><path d="M213.43334,175.52977v-1.5c0.00365,-3.71677 0.16667,-7.44045 0.16667,-11.16666c0,0 0,-1.5 1.5,-1.5c1.5,0 1.5,1.5 1.5,1.5c0,3.72511 -0.17067,7.4515 -0.16667,11.16666v1.5c0,0 0,1.5 -1.5,1.5c-1.5,0 -1.5,-1.5 -1.5,-1.5z"></path><path d="M218.62042,180.44986l0.14625,-0.75341c0,-1.05555 0,-2.11111 0,-3.16666c0,0 0,-1.5 1.5,-1.5c1.5,0 1.5,1.5 1.5,1.5c0,1.05555 0,2.11111 0,3.16666l-0.18707,1.2466c0,0 -0.2466,1.47959 -1.72619,1.23299c-1.47959,-0.2466 -1.23299,-1.72618 -1.23299,-1.72618z"></path><path d="M213.10001,187.52977v-1.33334c0,-1.11111 0,-2.22222 0,-3.33333c0,0 0,-1.5 1.5,-1.5c1.5,0 1.5,1.5 1.5,1.5c0,1.11111 0,3.55555 0,4.66666c0,0 0,1.5 -1.5,1.5c-1.5,0 -1.5,-1.5 -1.5,-1.5z"></path><path d="M208.10001,192.36312v-1.33334c0,-1.16666 0,-2.33334 0,-3.5c0,0 0,-1.5 1.5,-1.5c1.5,0 1.5,1.5 1.5,1.5c0,1.16666 0,3.66667 0,4.83334c0,0 0,1.5 -1.5,1.5c-1.5,0 -1.5,-1.5 -1.5,-1.5z"></path><path d="M215.60001,198.36312v-0.66667c0,-2.11111 0,-4.22222 0,-6.33333c0,0 0,-1.5 1.5,-1.5c1.5,0 1.5,1.5 1.5,1.5c0,2.11111 0,4.88889 0,7c0,0 0,1.5 -1.5,1.5c-1.5,0 -1.5,-1.5 -1.5,-1.5z"></path><path d="M221.93334,200.69646v-0.33333c0,-2.11111 0,-4.22223 0,-6.33334c0,0 0,-1.5 1.5,-1.5c1.5,0 1.5,1.5 1.5,1.5c0,2.11111 0,4.55555 0,6.66666c0,0 0,1.5 -1.5,1.5c-1.5,0 -1.5,-1.5 -1.5,-1.5z"></path><path d="M227.76667,202.52977v-1.5c0,-1.77778 0,-3.55555 0,-5.33334c0,0 0,-1.5 1.5,-1.5c1.5,0 1.5,1.5 1.5,1.5c0,1.77778 0,5.05555 0,6.83334c0,0 0,1.5 -1.5,1.5c-1.5,0 -1.5,-1.5 -1.5,-1.5z"></path><path d="M232.44492,202.34371l0.15509,-1.14729c0,-1 0,-2 0,-3c0,0 0,-1.5 1.5,-1.5c1.5,0 1.5,1.5 1.5,1.5c0,1 0,2 0,3l-0.17825,1.51938c0,0 -0.18605,1.48842 -1.67447,1.30237c-1.48842,-0.18605 -1.30237,-1.67446 -1.30237,-1.67446z"></path></g></g><path d="M234.60001,182.69645c-1.5,0 -1.5,-1.5 -1.5,-1.5c0,-1.66667 0,-5 0,-6.66667c0,0 0,-1.5 1.5,-1.5c1.5,0 1.5,1.5 1.5,1.5c0,1.66667 0,3.33333 0,5v1.66667c0,0 0,1.5 -1.5,1.5z" fill-opacity="0.68627" fill="#e00000" stroke-width="0.5"></path><path d="M239.60001,189.36312c-1.5,0 -1.5,-1.5 -1.5,-1.5c0,-6.27778 0,-13.55556 0,-19.83333c0,0 0,-1.5 1.5,-1.5c1.5,0 1.5,1.5 1.5,1.5c0,6.27778 0,12.55556 0,18.83333v1c0,0 0,1.5 -1.5,1.5z" fill-opacity="0.68627" fill="#e00000" stroke-width="0.5"></path><path d="M243.76667,182.69645c-1.5,0 -1.5,-1.5 -1.5,-1.5c0,-1.72222 0,-4.94444 0,-6.66667c0,0 0,-1.5 1.5,-1.5c1.5,0 1.5,1.5 1.5,1.5c0,1.72222 0,3.44444 0,5.16667v1.5c0,0 0,1.5 -1.5,1.5z" fill-opacity="0.68627" fill="#e00000" stroke-width="0.5"></path></g></g></svg>