<svg version="1.1" xmlns="http://www.w3.org/2000/svg" xmlns:xlink="http://www.w3.org/1999/xlink" width="542.83848" height="506.7453" viewBox="0,0,542.83848,506.7453"><defs><linearGradient x1="250.89809" y1="-136.29537" x2="250.89809" y2="324.5" gradientUnits="userSpaceOnUse" id="color-1"><stop offset="0" stop-color="#b39eda" stop-opacity="0.38039"></stop><stop offset="1" stop-color="#b39eda" stop-opacity="0"></stop></linearGradient></defs><g transform="translate(-35.60765,138.54536)"><g stroke-miterlimit="10"><path d="M38.89809,324.5c0,0 10.66498,-151.27421 70.56035,-281.89419c41.38981,-90.26302 121.14247,-158.7529 160.90494,-166.0951c42.38001,-7.82553 96.59302,-20.34941 130.8402,-6.80008c39.94634,15.80411 61.69451,44.78937 61.69451,44.78937l-125,124c0,0 8.24856,-55.7344 -42.02364,-36.59258c-8.31407,3.16569 -48.46825,21.73924 -81.40093,49.02983c-37.52228,31.09389 -68.3533,72.01305 -79.34163,88.07074c-55.88574,81.66809 -96.2338,185.49201 -96.2338,185.49201z" fill="#130c1f" stroke="url(#color-1)" stroke-width="4.5"></path><g><g fill="#130c1f" stroke-opacity="0.34118" stroke="#b39ed9" stroke-width="4.5"><path d="M538.11281,99.57188c8.90494,0 17.86539,-0.30557 26.76427,0.02445c1.72442,0.06395 4.674,-0.00046 6.77377,0.64222c0.26509,0 0.53019,0 0.79529,0h2.5c0.69035,0 1.25,0.55965 1.25,1.25c0,0.69035 -0.55965,1.25 -1.25,1.25c-2.77778,0 -8.05555,0 -10.83333,0c-5.29947,0 -10.59893,0 -15.89841,0c1.23036,0.29806 2.46353,0.59162 3.70165,0.87122c2.71407,0.02414 5.44422,-0.03936 8.02258,-0.03474c1.05226,0.15032 8.46584,0.11829 4.79527,3.7974c-0.55993,0.56123 -1.42959,0.51839 -2.29413,0.43979c-0.01442,0.32074 -0.13839,0.56867 -0.13839,0.56867l-1.45137,1.35765c-1.77778,0 -3.55555,0 -5.33333,0c-8.34209,0 -16.94313,-0.43515 -25.18061,0.6573c-4.35681,0.5778 -7.78282,2.5842 -11.84956,3.63871c-5.54673,1.3512 -11.49247,1.48494 -17.22437,0.34446c-2.31777,-0.46116 -4.48792,-1.41911 -6.86864,-1.64656c-1.93043,-0.18443 -3.49517,-0.02644 -5.03332,-0.10742c-0.61532,0.04795 -1.23002,0.0814 -1.84351,0.09901v0.01448h-2.22035l-0.44421,0.07403l-0.0112,-0.06719l-0.13813,0.08789c-1.57549,0.08855 -3.15098,0.1771 -4.72647,0.26566c-7.23631,-0.00235 -14.29782,1.0334 -21.50401,1.25011c-10.59463,0.31861 -21.24667,0.09037 -31.86123,0.01982c-1.88621,2.5118 -7.5111,2.99789 -10.32104,0.78032c-0.22865,-0.11464 -0.46307,-0.2715 -0.70091,-0.47961c-0.18124,-0.15859 -0.33274,-0.31916 -0.45828,-0.48016l-0.28247,0.07062c-5.70553,2.85446 -13.33987,2.3551 -19.53432,3.30861c-6.22967,0.95893 -12.48381,2.288 -18.68,3.23841c-0.36841,0.05651 -0.73875,0.09694 -1.11031,0.12688c-3.46886,0.51955 -6.94472,0.96713 -10.42535,1.37369c-7.80287,1.82191 -15.50495,4.4597 -23.21787,6.50006l-0.24054,-0.06804l0.00901,0.09905l-2.71573,0.24688c-0.09312,0.00953 -0.18761,0.01441 -0.28325,0.01441c-0.28677,0 -0.56327,-0.04389 -0.82318,-0.12533c-2.12302,2.37136 -4.25845,4.704 -6.21014,7.04281c-2.31808,2.77788 -6.07572,5.27821 -7.59864,8.51653c0,0 -0.54526,1.09053 -1.63579,0.57901c-0.76625,1.25591 -1.38277,2.60028 -2.18869,3.80008c-2.34512,3.49123 -5.97813,5.33336 -9.22455,7.75621c-5.52817,5.52817 -13.72129,4.49836 -20.75034,6.26438c-0.17432,0.04379 -0.34845,0.08727 -0.52243,0.13041c-0.10408,3.92024 -3.20308,7.13197 -5.23997,10.57932l-0.02629,0.01821l0.01009,0.00672l-0.98924,1.48387c-0.01465,0.02268 -0.03002,0.04486 -0.04606,0.06651c-1.59616,2.85159 -3.17592,5.58491 -5.60058,7.53365c2.36455,1.8933 4.74328,3.67631 6.78511,5.84882c0.28967,-0.12622 0.56071,-0.12622 0.56071,-0.12622h0.5c1.45389,0 2.46679,0.04488 3.85471,-0.43586c0,0 0.07592,-0.0253 0.19573,-0.0439c0.11955,-0.02024 0.19956,-0.02025 0.19956,-0.02025l0.00033,0.00163c0.03724,-0.00114 0.07612,-0.001 0.11621,0.00087c2.75441,-0.52443 5.72175,-0.16565 8.39708,-0.72994c5.1351,-1.0831 10.18983,-1.77256 15.48638,-1.77256c0,0 1.25,0 1.25,1.25c0,1.25 -1.25,1.25 -1.25,1.25c-0.08341,0 -0.16674,0.0002 -0.24998,0.0006c-1.52932,1.32389 -3.29244,1.10644 -5.29035,1.91181c-1.29573,0.52232 -2.35294,1.85889 -3.51218,2.6249c-3.08472,2.03834 -6.12517,3.96778 -9.43727,5.85382c-2.57022,0.83768 -4.21538,2.58796 -6.18764,4.30007c-1.87291,1.62587 -5.54538,3.28057 -7.8629,4.2212c-4.15273,1.68551 -9.34955,1.45105 -13.6565,2.55027c0,0 -0.05762,0.0144 -0.15088,0.02437c-0.09289,0.01295 -0.15229,0.01295 -0.15229,0.01295h-1c-0.0195,-0.00009 -0.039,-0.00015 -0.05851,-0.00018c-0.07972,0.22615 -0.19149,0.37518 -0.19149,0.37518c-0.06038,0.0805 -0.12074,0.161 -0.18112,0.2415c0.40184,2.08706 -1.72255,2.93681 -1.72255,2.93681c-3.47179,1.34788 -4.96849,3.84766 -7.91337,5.92761c-0.91322,0.645 -2.07939,0.86559 -3,1.5c-1.85414,1.27772 -3.09108,3.28097 -4.75352,4.79975c-1.80283,1.64703 -3.95991,2.86045 -5.88368,4.36445c-1.54616,1.20879 -2.35635,3.14226 -3.62711,4.6379c-1.22521,1.44203 -2.78372,2.50801 -4.30335,3.60111c-0.57804,0.92818 -1.17344,1.84228 -1.80938,2.72383c-1.79518,2.48849 -4.40978,4.73452 -5.81249,7.45113c-0.95873,1.85678 -1.47276,3.98004 -2.75087,5.6333c-1.28279,1.65933 -3.22259,2.69761 -4.67887,4.20698c-1.45262,1.50557 -2.04877,3.65315 -3.21151,5.39237c-1.20335,1.79996 -2.77672,3.32685 -4.05316,5.07574c-0.72464,0.99285 -1.1414,2.31759 -2.18102,2.97336c-0.0825,0.05204 -0.16573,0.1026 -0.24966,0.15177l0.04631,0.05146l-0.74074,0.66667c0.36686,3.48404 -2.48051,5.54379 -5.67755,5.93403c-0.07843,0.39395 -0.16448,0.78629 -0.26095,1.17645c-0.21185,0.85676 -0.47288,1.70629 -0.77108,2.55005c-1.19606,5.81838 -3.62142,11.14473 -5.53045,16.87338c-1.3664,4.09619 -2.81124,8.25196 -4.98037,12.01067c-1.71603,2.97357 -3.94345,5.77641 -5.61278,8.75335c-0.71502,2.06088 -1.03365,4.24976 -1.78306,6.29911c-5.04957,8.49093 -9.34513,17.25573 -15.40607,25.04197l-1.14598,2.06277c-0.14537,0.27387 -0.33567,0.52024 -0.56108,0.72929c-1.69414,3.55385 -3.95478,6.49357 -6.12927,9.98094l-0.62537,0.14959l0.16054,0.24081l-2.21872,1.47915c-0.44262,0.30448 -0.97886,0.48271 -1.55671,0.48271c-1.51879,0 -2.75,-1.23122 -2.75,-2.75c0,-0.6291 0.21125,-1.20886 0.56667,-1.67222l1.48333,-1.97778l0.04415,0.03311c0.02542,-0.06188 0.05152,-0.12352 0.07835,-0.18492c0.35029,-0.80151 1.35995,-1.13 1.87119,-1.83975c1.82822,-2.53807 2.45502,-5.787 4.17312,-8.39127c0.52863,-0.80127 1.13929,-1.5537 1.69903,-2.33558c0.23582,-0.61494 0.64535,-1.17016 1.05884,-1.72068l0.94089,-2.60071c0,0 0.58772,-1.61624 2.11175,-1.82768c1.74235,-2.46123 3.5583,-4.98813 4.75232,-7.54075c0.81671,-1.746 1.12384,-3.72147 2.07732,-5.3967c1.00722,-1.76965 2.49265,-3.22555 3.60986,-4.9279c1.30627,-1.99043 1.42495,-3.51095 2.5136,-5.58617c1.7892,-4.93935 3.97479,-9.78646 6.06563,-14.66283c-1.79603,-0.54809 -1.79604,-2.61818 -1.79604,-2.61818l0.0113,-0.75103c-0.15697,-1.74561 -0.25629,-3.49937 -0.25018,-5.25201c-1.11082,-6.00885 -2.56667,-12.05038 -3.48363,-18.10348c-1.27748,-0.744 -1.27749,-2.39348 -1.27749,-2.39348l0.0113,-0.00103c-0.41788,-4.64711 -1.00815,-8.70872 -1.91917,-13.29313c-0.68055,-2.038 -1.62399,-3.97958 -2.32023,-6.00378c-0.01735,-0.04129 -0.03463,-0.08264 -0.05181,-0.12407c-1.60188,-3.86227 -3.11643,-8.11505 -4.13798,-12.16101c0,0 -0.18091,-0.72366 0.02259,-1.51142c-1.14719,-1.59382 -2.37385,-3.1423 -3.27931,-4.85795c-2.79963,-5.3047 -5.82108,-10.04393 -9.10858,-15.01478c-1.28752,-1.9468 -1.90698,-3.81482 -3.15698,-5.6069c-0.24764,-0.10014 -0.47977,-0.18591 -0.69165,-0.24949c-1.44278,-0.43293 -3.49275,0.14419 -4.39185,-1.06438c-1.45459,-1.95526 -1.33963,-3.99003 -0.47852,-5.72937c-0.64807,-0.48039 -1.28037,-1.34092 -0.91569,-2.79966c0.66698,-2.66789 3.33487,-2.00092 3.33487,-2.00092l1.76463,0.98557c0.35541,-0.09465 0.72094,-0.16976 1.08046,-0.25647c2.89765,-1.69801 6.48766,-0.91601 9.62365,-1.05883c4.12899,-0.18805 7.70551,-1.29894 11.70538,-1.9718c2.90519,-0.48872 6.00431,-0.04344 8.96841,-0.49507c4.01549,-0.61183 7.82391,-2.46602 11.76561,-3.45141c3.93275,-0.98315 7.70132,-1.86656 11.64265,-2.42269c0.08099,-0.07297 0.13224,-0.11141 0.13224,-0.11141l1.8598,-1.18402c1.56498,-0.46936 3.29921,-0.49583 4.73037,-1.284c1.25038,-0.68861 2.67625,-3.19877 4.02702,-3.61517c0.11364,-0.03503 0.22781,-0.06747 0.34246,-0.09754l-0.03948,-0.07895l1.60583,-0.80291c-0.00526,-2.92486 0.299,-5.96808 0.299,-8.71241c0,0 0,-0.11276 0.03386,-0.27053l0.05554,-0.44371c0.72422,-1.79616 1.86397,-3.23127 2.72825,-4.94143c0.98418,-4.51226 4.50327,-8.8285 6.86903,-12.7515c1.96068,-3.25127 2.38742,-7.42844 3.29923,-11.17941c0.00905,-0.8037 0.01408,-1.60811 0.01408,-2.41343c0,0 0,-1.25 1.25,-1.25c0.85773,0 1.1269,0.58856 1.21137,0.95797c0.79312,0.48142 0.47449,1.43732 0.47449,1.43732c-0.16524,0.48792 -0.31449,0.98635 -0.45257,1.49252c-0.07757,6.36468 -0.40161,12.68508 -0.47041,19.05645c6.58152,0.56683 13.28956,-0.05856 19.74166,1.33194c1.85706,0.40022 3.09148,0.13436 4.80091,1.104c1.65375,0.6743 2.77096,1.83337 3.98122,2.9006c2.61811,-1.77004 5.08998,-3.55904 7.16164,-6.04926l-0.00006,0.00005c1.69061,-2.03217 3.12614,-4.20344 4.62596,-6.34254c-0.16904,-0.32347 -0.32876,-0.70374 -0.48505,-1.1705l-0.33922,-0.71849c-0.79904,-1.07142 -2.09682,-2.006 -2.64113,-3.23979c-0.11466,-0.25991 -0.20373,-0.53175 -0.27154,-0.81241c-0.48681,0.55603 -0.98355,1.11843 -1.48757,1.69367c-0.08902,0.13869 -0.21982,0.27421 -0.40638,0.3986c-0.28803,0.19203 -0.54948,0.2511 -0.77697,0.23614c-0.2275,-0.01485 -0.47901,-0.10752 -0.73953,-0.33548c-0.21042,-0.18411 -0.33258,-0.37411 -0.39546,-0.55815c-2.22897,-0.42454 -4.50686,-0.68767 -6.4789,-1.84526c-7.171,-5.36411 -6.50425,-12.93664 -5.88672,-20.64361c-0.16579,-0.31861 -0.1658,-0.64371 -0.1658,-0.64371c0,-2.6135 0.87684,-7.09886 -0.14921,-9.50825c-2.04296,-4.79734 -3.10079,-9.90651 -3.10079,-15.24175c0,-2.10658 0,-4.21315 0,-6.31973c-0.21356,-0.87027 -0.27918,-1.69162 0,-2.29035c0,-0.21331 0,-0.42661 0,-0.63992v-1.5c0,-0.69035 0.55964,-1.25 1.25,-1.25c0.69036,0 1.25,0.55965 1.25,1.25v0.01312c0.08004,-0.00648 0.16332,-0.01089 0.25,-0.01312c0.53825,-0.01385 0.94462,0.09683 1.25632,0.29055c0.67838,-1.05421 1.39251,-2.13804 2.13898,-3.13318c0.97573,-2.11688 1.7069,-4.47137 3.51753,-6.08562c0.94774,-0.84495 2.33213,-1.5259 3.00983,-2.70567c0.87236,-1.51863 1.15994,-2.88984 2.54608,-4.12958l-0.35262,-0.35263c-2.3481,-2.35796 -2.87068,-4.96309 -2.36316,-7.77433l-0.01565,-0.10955h-0.23731v-1.75c0,-0.37426 0.16448,-0.7101 0.42509,-0.93918c0.02115,-0.03108 0.0445,-0.0618 0.07021,-0.09204c1.59769,-3.07749 3.62522,-4.70763 5.79117,-7.26508c1.97956,-2.33737 2.971,-5.74145 5.46876,-7.7076c1.32876,-1.04595 3.34037,-1.63965 4.60063,-2.8696c1.2233,-1.19389 2.03195,-3.13204 3.31689,-4.31359c0.83258,-0.76559 1.95152,-1.15324 2.85529,-1.83333c3.64269,-2.42773 6.97926,-4.99578 10.08808,-8.11346l1.12162,-0.62153c0.63975,-0.64631 1.22878,-1.35568 1.69039,-2.13771l1.34419,-0.62286c0.7296,-0.51985 1.39119,-0.7682 2.04636,-1.08129c0.65783,-0.8959 1.32213,-1.78373 1.99423,-2.60499c0.9173,-1.12089 2.27495,-1.57237 3.4992,-2.20711c0.43609,-0.35798 0.9195,-0.66833 1.42476,-0.95555c0.10917,-0.1011 0.21399,-0.20848 0.31375,-0.32322c2.28091,-2.62334 4.39894,-6.35848 7.82034,-7.52759l0.86894,-0.65171c0.21062,-0.16155 0.47414,-0.25757 0.7601,-0.25757c0.69036,0 1.25,0.55964 1.25,1.25c0,0.34518 -0.13991,0.65767 -0.36611,0.88388l-1.23592,1.23592c-0.93973,1.93621 -2.08045,3.72159 -3.88922,5.12358c-1.17373,0.90977 -2.78289,1.48877 -4.14204,2.28304c-0.17925,0.1243 -0.36501,0.2394 -0.55498,0.34825c-0.33078,0.22441 -0.63829,0.46843 -0.91057,0.74161c-0.94977,0.95289 -1.55865,2.81557 -2.41589,3.90299c-0.76993,0.97666 -1.722,1.4458 -2.63801,2.07491c-0.55304,0.74766 -1.06927,1.51778 -1.47436,2.33001c-0.74629,1.49635 -1.02944,3.20418 -2.18169,4.52338c-3.61999,4.14452 -6.42248,9.17811 -7.79562,14.67757c-0.03803,0.05781 -0.07672,0.11512 -0.11601,0.17197c3.33814,-0.25308 7.16196,0.82391 9.93466,1.9173l0.80077,0.18891c1.16334,0.22485 2.41926,0.68519 3.66784,1.319c0.14722,-0.21987 0.31715,-0.34732 0.31715,-0.34732c1.98348,-1.47924 3.1934,-3.74789 5.32631,-5.05292c3.94516,-2.41387 7.56369,-4.45131 11.18838,-7.3548c2.39832,-1.92113 6.12702,-5.04724 9.03457,-5.75819c3.16668,-1.96435 6.00882,-6.33632 10.04138,-6.2702c0.19908,-0.17672 0.40193,-0.35151 0.60913,-0.52417c0,0 0.01326,-0.01104 0.03795,-0.02898l0.01228,-0.01074c0,0 0.06499,-0.04874 0.17426,-0.1048c0.20738,-0.10975 0.53628,-0.22729 0.89129,-0.13449c0.22206,0.05504 0.45299,0.19114 0.66502,0.46384c0.21649,0.26917 0.29571,0.52524 0.29809,0.75402c0.00848,0.36684 -0.18169,0.65981 -0.33628,0.83631c-0.07974,0.0934 -0.14215,0.1454 -0.14215,0.1454c-2.70913,2.2576 -4.65768,4.91977 -7.16634,7.42361c-3.90235,3.89485 -8.05964,7.66123 -11.36346,12.08809c-1.97301,2.96126 -4.33344,4.82152 -6.63007,7.4054c-1.68327,1.89381 -2.85058,4.02398 -4.27789,5.97964c0.53599,1.54915 0.97304,3.14163 1.54238,4.66465c0.98509,2.6352 2.09879,3.84351 2.09201,6.88974c0.49557,3.46902 0.59551,7.41762 0.14233,10.9699c3.16748,1.83957 6.47501,3.68513 10.11082,3.61871l1.53007,1.29815c2.79239,-0.07847 5.59055,0.19163 8.38132,-0.045c5.20963,-0.44172 10.27429,-1.16662 15.37257,-2.41302c1.71791,-0.97307 3.20507,-0.91539 4.9101,-1.70969c3.58877,-1.67184 7.44289,-3.16445 11.10981,-4.54811c0.92745,-0.34996 2.03716,-0.05527 2.93592,-0.47346c1.2097,-0.56286 2.80073,-0.9073 3.93824,-1.47033c1.52461,-0.75463 2.57316,-2.31485 4.29657,-3.02339l1.44389,-0.72194c0.1737,-0.09145 0.37156,-0.14321 0.5815,-0.14321c0.69036,0 1.25,0.55965 1.25,1.25c0,0.27621 -0.08958,0.53149 -0.24129,0.73838l-1.24154,1.73816l-0.02475,-0.01768c-0.04562,0.07126 -0.0937,0.14118 -0.14451,0.20959c-1.48541,1.99999 -5.15177,2.88459 -7.19074,4.14486c-0.58604,0.36222 -1.15698,0.73638 -1.71693,1.11979c-0.22154,0.72711 -0.99167,0.80703 -1.15829,0.81582c-2.21965,1.60426 -4.30527,3.33066 -6.53195,5.00108l-1,0.25c0,0 -0.8574,0 -1.152,-0.71011c-0.29398,0.03233 -0.63281,0.07858 -1.06081,0.17667c-2.40609,0.55145 -4.81118,1.91992 -6.82807,3.31284c-4.59708,3.17486 -8.21975,7.84743 -12.04851,11.98727c1.75232,-0.20408 3.50097,-0.25435 5.39816,-0.38501c1.36788,-0.09421 2.76162,-0.52765 4.10542,-0.25532c0.02862,0.0058 0.05723,0.01168 0.08581,0.01765v-0.01899h3.63044c4.41616,-0.94782 8.87641,-1.50709 13.26646,-1.49574c1.62524,-0.27548 3.27086,-0.41737 4.92523,-0.49308c1.71819,-0.62944 3.39537,-1.36509 5.14857,-1.89845c4.75347,-1.44609 9.66261,-2.05086 14.55249,-2.85336c4.90893,-0.01323 9.81787,-0.00937 14.72682,-0.00937h2.5c0.2301,0 0.45362,0.02826 0.66724,0.0815c0.07456,-0.03355 0.14897,-0.06655 0.22305,-0.09905c0.19705,-0.09483 0.40704,-0.18499 0.62768,-0.26976c0.09933,-0.04226 0.19692,-0.0838 0.29223,-0.12476c0.22168,-0.09528 0.45056,-0.15753 0.68462,-0.19586c2.36419,-0.6573 5.41564,-0.72118 7.10082,0.45909c0.29147,0.16385 0.55007,0.37929 0.76339,0.63394c13.7189,-0.17064 27.40924,-1.7351 41.14097,-1.7351c4.16667,0 8.33333,0 12.5,0c1,0 2.03719,-0.27021 3,0h2.27671l0.11386,-0.14232l0.06445,0.05156c0.07367,-0.11081 0.15222,-0.21857 0.23655,-0.32272c0.13121,-0.16204 0.68306,-0.40895 1.36292,-0.66915c0.50898,-1.00695 0.7942,-1.92218 2.50047,-2.10034c0.3466,-0.39841 0.75659,-0.74125 1.21285,-1.03588c7.07083,-1.13116 14.53452,-1.38171 21.80087,-2.50987c0.0785,0.11579 0.13809,0.24544 0.17433,0.38452c4.42676,-0.77612 8.86224,-1.40129 13.31077,-2.12011c0.20718,-0.1169 0.42988,-0.14824 0.61595,-0.14614c0.01951,-0.001 0.03026,-0.001 0.03026,-0.001h1.66667c0.5326,0 0.9874,0.3331 1.16745,0.80232c0.35031,0.09668 0.70132,0.19018 1.05287,0.28125c0.58685,0.07062 1.1722,0.14957 1.7563,0.23587c1.50357,-0.11514 3.04869,0.01389 4.61951,0.01389zM224.97502,202.2c-4.88948,0 -9.5682,0.9952 -14.41399,0.9794c-8.06116,2.07076 -15.94106,3.77649 -24.11445,5.22987c-6.79083,1.20754 -13.89996,1.13433 -20.88611,1.36899c0.20248,0.33831 0.32837,0.70388 0.35409,1.09822c0.03268,0.50101 -0.02137,1.01721 -0.14738,1.52653c1.0218,0.90347 2.08599,1.69528 3.184,2.88457c1.46715,1.58915 2.06004,3.81292 3.28415,5.59603c0.54536,0.7944 1.51003,1.24487 2.03552,2.05254c0.8863,1.36223 1.52274,4.10732 2.20621,5.62262c1.25959,2.7926 2.25078,4.85432 2.64335,7.8307c0.34656,0.9889 0.70309,1.98062 1.13084,2.97393c2.04567,4.75034 4.56275,9.49978 5.43921,14.65193c0.4144,2.43596 0.30916,4.9397 0.47401,7.40006c0.4026,1.24822 0.7492,2.51268 1.01643,3.79395c0.16971,0.8137 0.20084,1.6513 0.17399,2.49852c0.90501,3.78424 1.71097,7.5467 2.10649,11.46851l0.25,2.5c0,0 0.12508,1.2509 -0.63965,2.14576c0.6469,3.21193 1.31747,6.42052 1.89218,9.63092c0.00063,0.19969 0.00228,0.3994 0.00495,0.59911c1.43881,-3.70349 3.1627,-7.43202 4.74005,-11.06195c0.32235,-0.74181 1.17386,-2.28897 1.76984,-3.57428c0.10778,-0.68012 0.19472,-1.36794 0.25757,-2.06489l0.1228,-0.5756c-0.6013,-0.44374 -1.11628,-0.99452 -1.50425,-1.65582c-0.74672,-1.27278 -0.51421,-2.9505 -0.33023,-4.41465c0.29926,-2.38166 1.67826,-3.8363 3.00038,-5.62995l2.45,-1.1c0,0 0.05605,-0.00001 0.15215,0.008c7.71109,-9.84619 15.68325,-19.22851 24.9742,-27.5485l1.08551,-1.73493c2.8372,-4.24977 6.13735,-7.91524 9.44745,-11.76106c1.3615,-1.58185 2.12656,-3.64675 3.60689,-5.118c0.86055,-0.85527 1.89888,-1.49044 2.95693,-2.10307c0.99004,-1.82521 2.23848,-4.53724 3.68989,-6.6067c-1.65444,-0.077 -3.31583,-0.13575 -4.98802,-0.13575c-1.69674,0 -4.74563,0.56721 -6.30902,-0.13197c-0.41499,-0.18559 -0.47167,-0.82004 -0.85745,-1.06053c-1.2945,-0.80695 -2.99547,-1.78176 -4.54777,-2.39691c0,0 -0.04609,-0.01844 -0.11622,-0.05714c-0.07163,-0.03587 -0.11292,-0.06339 -0.11292,-0.06339l-0.83749,-0.56397c-0.47011,-0.3845 -0.94022,-0.76901 -1.41034,-1.15351c-0.2705,-0.43906 -0.53899,-0.8888 -0.80325,-1.34758zM278.61922,186.48097c0.38506,0.39495 0.77748,0.78055 1.18152,1.14005c-0.36291,-0.37089 -0.69615,-0.70879 -0.98437,-0.96461c-0.06586,-0.05846 -0.13157,-0.11694 -0.19714,-0.17544zM259.39185,107.78973l0.03259,0.00543c-0.02405,-0.08285 -0.04864,-0.16544 -0.07379,-0.24778c0.0138,0.08078 0.02753,0.16157 0.0412,0.24236z"></path><g><path d="M349.19807,35.16781c-3.26337,2.0263 -5.07508,5.91095 -8.46918,7.94892c-3.88409,2.33217 -7.05206,4.70818 -10.12477,8.06888l-1.18302,0.47482c0,0 -0.00093,0.00017 -0.00275,0.00049c-1.80701,1.42804 -3.70423,2.7867 -5.51057,3.9158c-1.31657,1.45542 -1.926,3.5908 -3.34313,4.90695c-1.42948,1.32762 -3.40257,2.43414 -4.91994,3.72699c-1.63987,1.39722 -2.55273,3.66571 -4.01109,5.26076l-1.05757,0.82581c0,0 -0.99667,0.75442 -1.75109,-0.24225c-0.01872,-0.02473 -0.03636,-0.04931 -0.05297,-0.07374c-0.00518,0.00229 -0.01039,0.00456 -0.01565,0.00679c-0.20937,0.11068 -0.47659,0.16537 -0.80673,0.07938c-0.33669,-0.05504 -0.55889,-0.21322 -0.70552,-0.3992c-0.26424,-0.28228 -0.30538,-0.62357 -0.283,-0.88856l0.02057,-0.62177c-0.4286,-0.13315 -0.77096,-0.49334 -0.85892,-0.96522c-0.01702,-0.09129 -0.02365,-0.18212 -0.02072,-0.27125l0.01638,-1.24884l0.06148,0.00081l-0.04825,-0.16656c1.24329,-4.4027 2.20735,-10.12986 4.93723,-13.99602l-0.01155,-0.06197l-0.26437,-0.13072l0.2655,-0.53693c0.02449,-0.06908 0.05707,-0.1348 0.09682,-0.19581l0.18529,-0.37472c0.16676,-0.34665 0.49075,-0.61193 0.8979,-0.68782c0.50686,-0.09448 0.99926,0.13128 1.26877,0.53436c0.03213,-0.00877 0.06463,-0.01747 0.0975,-0.02611l0.24238,0.57192c0.20266,0.08078 0.4252,0.19985 0.66973,0.36277c0.17857,0.11897 0.3884,1.04501 0.53869,1.81535l0.44966,1.23403l-0.20605,0.07508c0.15389,0.79088 0.32344,1.5644 0.45712,2.33142c0.30978,-0.29512 0.64435,-0.56615 1.01175,-0.80518c0.12118,-0.07884 0.24483,-0.15964 0.37069,-0.24234c0.05444,-0.11358 0.1387,-0.22352 0.26769,-0.31012c-0.04962,-1.19638 0.3654,-1.87047 0.62783,-3.20794c0.46441,-1.09497 1.06999,-2.09987 1.68839,-3.08533c0.9487,-0.16185 2.14464,-0.41392 3.32258,-0.70011c2.15536,-2.02458 5.43736,-3.42208 7.02827,-5.82297c0.33109,-0.49966 0.68206,-0.96044 1.04681,-1.3968c0.63328,-1.14462 1.34262,-2.13324 2.29091,-2.6449c0.16006,-0.08636 0.31953,-0.17409 0.47831,-0.26322c0.59396,-0.60334 1.18623,-1.22947 1.75631,-1.9272c1.57849,-1.63478 2.34078,-3.73658 3.87294,-5.32448c1.38008,-1.43029 3.09692,-2.42456 4.71694,-3.51643c1.31916,-1.59291 2.87936,-2.81925 4.20169,-4.45957c0.85263,-1.05767 1.12891,-2.49308 1.88845,-3.61999c0.99464,-1.08039 2.29985,-1.74075 3.29679,-2.77504c0.18563,-0.19257 0.35469,-0.39826 0.51138,-0.61376c0.93124,-3.59333 2.10421,-7.19213 3.84566,-10.40208c0.85595,-1.57774 2.34782,-2.88202 3.18721,-4.36407c0.33836,-0.59742 0.21929,-1.38842 0.56796,-1.97987c1.35102,-2.29169 3.90157,-3.66384 5.85516,-5.51368c0.115,-0.14767 0.22681,-0.29912 0.33494,-0.45494c0.87781,-1.26506 0.88021,-2.69299 2.03625,-3.8621c0.82403,-0.83334 2.05994,-1.41817 2.94871,-2.20336c-0.09198,-0.05625 -0.18466,-0.11136 -0.2781,-0.16521c0.57749,-0.64489 1.18598,-1.19121 1.83886,-1.5048c1.64888,-1.97617 3.11089,-4.31306 4.77065,-6.23095c1.21245,-1.06354 2.71669,-1.57074 3.80282,-2.73597c2.69017,-2.8861 4.56976,-6.75025 7.50921,-9.34513c0.82183,-0.72549 1.89297,-1.12008 2.75005,-1.80356c1.60181,-1.27737 2.70923,-3.18121 4.0323,-4.7047c1.37317,-1.58119 3.29462,-2.76183 4.86629,-4.13125c0.23438,-0.10856 0.46385,-0.2226 0.68896,-0.34152c0.29908,-0.37071 0.61279,-0.72834 0.94692,-1.06748c1.08181,-1.09809 2.19236,-1.56069 3.17432,-2.80208c1.29063,-1.40553 2.44028,-3.15169 3.71981,-4.48438c1.23595,-1.2873 3.30086,-2.17697 4.69088,-3.35323c3.16899,-2.68168 6.20851,-5.53378 9.30328,-8.28c0,0 0.63723,-0.56422 1.22898,0.00459c1.65579,-1.55863 3.10735,-3.40432 4.92638,-4.76885c1.40242,-1.05201 3.27507,-1.85639 4.76433,-2.77624c1.8945,-1.17014 3.50528,-2.8463 5.47651,-4.03511c6.93813,-3.45686 13.57335,-7.16206 20.14575,-11.54847c0.0911,-0.0714 0.18741,-0.12 0.26701,-0.1521c0.08556,-0.03518 0.19843,-0.07022 0.32443,-0.08027l0.28532,-0.0484c4.13623,-1.31814 7.96893,-3.06789 11.73737,-5.01254c0.65773,-0.2257 1.29321,-0.48645 1.89584,-0.77642c7.38881,-3.55545 16.25719,-5.51757 20.83728,-12.92168c0.50458,-0.29983 1.03902,-0.55674 1.6135,-0.75633l0.30747,-0.06673c0,0 0.03075,-0.00573 0.08198,-0.00941c0.18243,-0.02164 0.43205,-0.00803 0.64555,0.15737c0.14011,0.0983 0.26314,0.25437 0.32708,0.5c0.07775,0.24161 0.0576,0.43932 -0.00796,0.59742c-0.0915,0.25408 -0.29491,0.39943 -0.46051,0.47899c-0.04521,0.02436 -0.07425,0.03601 -0.07425,0.03601c-3.14887,1.26078 -5.10428,4.24858 -7.72982,6.40794c-0.2523,0.2075 -0.52584,0.40704 -0.81676,0.5992c-0.23562,0.10796 -0.57678,0.3141 -0.99838,0.59747c-0.07074,0.03864 -0.1421,0.07694 -0.21405,0.11494c-0.20479,0.13248 -0.40802,0.26592 -0.60665,0.40364l-0.03474,0.08133c-2.92086,2.11636 -7.97532,6.34487 -10.46167,8.76654c0.18051,-0.35017 0.36229,-0.69827 0.54489,-1.04487c-3.27267,2.52723 -6.53881,5.05073 -9.86535,7.5791c-0.13283,0.52886 -0.73184,0.64052 -0.73184,0.64052l0.03115,-0.10857c-0.03878,0.0294 -0.07757,0.05881 -0.11636,0.08821c-1.58267,2.81933 -4.58398,4.51586 -5.99761,7.29123c-3.6737,3.18092 -7.20156,6.45495 -10.89951,9.62896c-1.11888,0.96035 -1.84708,2.28657 -3.02918,3.2262c-2.28301,1.81471 -5.78681,3.53679 -7.21754,6.23624c-0.60836,0.66485 -0.9547,1.53598 -1.53461,2.22577c-1.31971,1.56976 -3.44987,2.55109 -4.85383,4.08527c-3.59296,3.9262 -6.65833,7.58103 -11.2139,10.47256c0,0 -0.08676,0.05497 -0.22067,0.09923c-2.66811,3.38136 -5.88859,6.1723 -8.29729,9.68817c-1.34737,2.31507 -2.91785,3.88418 -5.04724,5.44432c-1.19144,0.87294 -1.37167,2.43324 -2.0693,3.54904c-0.68385,1.09377 -1.88771,1.52009 -2.74507,2.36042c-0.17321,0.16976 -0.34065,0.34448 -0.50322,0.52347c-0.44861,0.44623 -0.85342,0.93342 -1.2093,1.45407c-2.96684,2.77722 -5.64825,6.32574 -7.434,9.17323c-0.96903,1.54518 -1.99337,3.79233 -3.34796,4.88201c-2.81438,2.26397 -6.933,5.1061 -9.17688,7.96391c-1.26078,1.60574 -1.86744,3.31037 -3.27111,4.77998c-0.88103,0.92242 -2.36893,1.09812 -3.13988,1.85968c-1.76433,1.74283 -3.07436,3.60873 -4.57749,5.63297c-1.71047,2.30343 -6.07179,4.03589 -8.39309,5.76263c-2.29348,1.70606 -5.96411,2.50311 -8.2385,4.39337c-1.39567,1.15994 -2.81252,2.93219 -4.4016,3.9708c-0.42493,0.27774 -0.91853,0.43864 -1.42739,0.60404c-0.0558,0.5895 -0.60436,0.93708 -0.60436,0.93708z"></path><path d="M439.28018,-58.30302c0.1265,0.67867 -0.32112,1.33139 -0.99978,1.45789c-0.67867,0.1265 -1.33139,-0.32112 -1.45789,-0.99978c-0.1265,-0.67867 0.32112,-1.33139 0.99978,-1.45789c0.67867,-0.1265 1.33139,0.32112 1.45789,0.99978z"></path></g></g><g fill="#130c1f" stroke="none" stroke-width="0.5"><path d="M538.11281,99.57188c8.90494,0 17.86539,-0.30557 26.76427,0.02445c1.72442,0.06395 4.674,-0.00046 6.77377,0.64222c0.26509,0 0.53019,0 0.79529,0h2.5c0.69035,0 1.25,0.55965 1.25,1.25c0,0.69035 -0.55965,1.25 -1.25,1.25c-2.77778,0 -8.05555,0 -10.83333,0c-5.29947,0 -10.59893,0 -15.89841,0c1.23036,0.29806 2.46353,0.59162 3.70165,0.87122c2.71407,0.02414 5.44422,-0.03936 8.02258,-0.03474c1.05226,0.15032 8.46584,0.11829 4.79527,3.7974c-0.55993,0.56123 -1.42959,0.51839 -2.29413,0.43979c-0.01442,0.32074 -0.13839,0.56867 -0.13839,0.56867l-1.45137,1.35765c-1.77778,0 -3.55555,0 -5.33333,0c-8.34209,0 -16.94313,-0.43515 -25.18061,0.6573c-4.35681,0.5778 -7.78282,2.5842 -11.84956,3.63871c-5.54673,1.3512 -11.49247,1.48494 -17.22437,0.34446c-2.31777,-0.46116 -4.48792,-1.41911 -6.86864,-1.64656c-1.93043,-0.18443 -3.49517,-0.02644 -5.03332,-0.10742c-0.61532,0.04795 -1.23002,0.0814 -1.84351,0.09901v0.01448h-2.22035l-0.44421,0.07403l-0.0112,-0.06719l-0.13813,0.08789c-1.57549,0.08855 -3.15098,0.1771 -4.72647,0.26566c-7.23631,-0.00235 -14.29782,1.0334 -21.50401,1.25011c-10.59463,0.31861 -21.24667,0.09037 -31.86123,0.01982c-1.88621,2.5118 -7.5111,2.99789 -10.32104,0.78032c-0.22865,-0.11464 -0.46307,-0.2715 -0.70091,-0.47961c-0.18124,-0.15859 -0.33274,-0.31916 -0.45828,-0.48016l-0.28247,0.07062c-5.70553,2.85446 -13.33987,2.3551 -19.53432,3.30861c-6.22967,0.95893 -12.48381,2.288 -18.68,3.23841c-0.36841,0.05651 -0.73875,0.09694 -1.11031,0.12688c-3.46886,0.51955 -6.94472,0.96713 -10.42535,1.37369c-7.80287,1.82191 -15.50495,4.4597 -23.21787,6.50006l-0.24054,-0.06804l0.00901,0.09905l-2.71573,0.24688c-0.09312,0.00953 -0.18761,0.01441 -0.28325,0.01441c-0.28677,0 -0.56327,-0.04389 -0.82318,-0.12533c-2.12302,2.37136 -4.25845,4.704 -6.21014,7.04281c-2.31808,2.77788 -6.07572,5.27821 -7.59864,8.51653c0,0 -0.54526,1.09053 -1.63579,0.57901c-0.76625,1.25591 -1.38277,2.60028 -2.18869,3.80008c-2.34512,3.49123 -5.97813,5.33336 -9.22455,7.75621c-5.52817,5.52817 -13.72129,4.49836 -20.75034,6.26438c-0.17432,0.04379 -0.34845,0.08727 -0.52243,0.13041c-0.10408,3.92024 -3.20308,7.13197 -5.23997,10.57932l-0.02629,0.01821l0.01009,0.00672l-0.98924,1.48387c-0.01465,0.02268 -0.03002,0.04486 -0.04606,0.06651c-1.59616,2.85159 -3.17592,5.58491 -5.60058,7.53365c2.36455,1.8933 4.74328,3.67631 6.78511,5.84882c0.28967,-0.12622 0.56071,-0.12622 0.56071,-0.12622h0.5c1.45389,0 2.46679,0.04488 3.85471,-0.43586c0,0 0.07592,-0.0253 0.19573,-0.0439c0.11955,-0.02024 0.19956,-0.02025 0.19956,-0.02025l0.00033,0.00163c0.03724,-0.00114 0.07612,-0.001 0.11621,0.00087c2.75441,-0.52443 5.72175,-0.16565 8.39708,-0.72994c5.1351,-1.0831 10.18983,-1.77256 15.48638,-1.77256c0,0 1.25,0 1.25,1.25c0,1.25 -1.25,1.25 -1.25,1.25c-0.08341,0 -0.16674,0.0002 -0.24998,0.0006c-1.52932,1.32389 -3.29244,1.10644 -5.29035,1.91181c-1.29573,0.52232 -2.35294,1.85889 -3.51218,2.6249c-3.08472,2.03834 -6.12517,3.96778 -9.43727,5.85382c-2.57022,0.83768 -4.21538,2.58796 -6.18764,4.30007c-1.87291,1.62587 -5.54538,3.28057 -7.8629,4.2212c-4.15273,1.68551 -9.34955,1.45105 -13.6565,2.55027c0,0 -0.05762,0.0144 -0.15088,0.02437c-0.09289,0.01295 -0.15229,0.01295 -0.15229,0.01295h-1c-0.0195,-0.00009 -0.039,-0.00015 -0.05851,-0.00018c-0.07972,0.22615 -0.19149,0.37518 -0.19149,0.37518c-0.06038,0.0805 -0.12074,0.161 -0.18112,0.2415c0.40184,2.08706 -1.72255,2.93681 -1.72255,2.93681c-3.47179,1.34788 -4.96849,3.84766 -7.91337,5.92761c-0.91322,0.645 -2.07939,0.86559 -3,1.5c-1.85414,1.27772 -3.09108,3.28097 -4.75352,4.79975c-1.80283,1.64703 -3.95991,2.86045 -5.88368,4.36445c-1.54616,1.20879 -2.35635,3.14226 -3.62711,4.6379c-1.22521,1.44203 -2.78372,2.50801 -4.30335,3.60111c-0.57804,0.92818 -1.17344,1.84228 -1.80938,2.72383c-1.79518,2.48849 -4.40978,4.73452 -5.81249,7.45113c-0.95873,1.85678 -1.47276,3.98004 -2.75087,5.6333c-1.28279,1.65933 -3.22259,2.69761 -4.67887,4.20698c-1.45262,1.50557 -2.04877,3.65315 -3.21151,5.39237c-1.20335,1.79996 -2.77672,3.32685 -4.05316,5.07574c-0.72464,0.99285 -1.1414,2.31759 -2.18102,2.97336c-0.0825,0.05204 -0.16573,0.1026 -0.24966,0.15177l0.04631,0.05146l-0.74074,0.66667c0.36686,3.48404 -2.48051,5.54379 -5.67755,5.93403c-0.07843,0.39395 -0.16448,0.78629 -0.26095,1.17645c-0.21185,0.85676 -0.47288,1.70629 -0.77108,2.55005c-1.19606,5.81838 -3.62142,11.14473 -5.53045,16.87338c-1.3664,4.09619 -2.81124,8.25196 -4.98037,12.01067c-1.71603,2.97357 -3.94345,5.77641 -5.61278,8.75335c-0.71502,2.06088 -1.03365,4.24976 -1.78306,6.29911c-5.04957,8.49093 -9.34513,17.25573 -15.40607,25.04197l-1.14598,2.06277c-0.14537,0.27387 -0.33567,0.52024 -0.56108,0.72929c-1.69414,3.55385 -3.95478,6.49357 -6.12927,9.98094l-0.62537,0.14959l0.16054,0.24081l-2.21872,1.47915c-0.44262,0.30448 -0.97886,0.48271 -1.55671,0.48271c-1.51879,0 -2.75,-1.23122 -2.75,-2.75c0,-0.6291 0.21125,-1.20886 0.56667,-1.67222l1.48333,-1.97778l0.04415,0.03311c0.02542,-0.06188 0.05152,-0.12352 0.07835,-0.18492c0.35029,-0.80151 1.35995,-1.13 1.87119,-1.83975c1.82822,-2.53807 2.45502,-5.787 4.17312,-8.39127c0.52863,-0.80127 1.13929,-1.5537 1.69903,-2.33558c0.23582,-0.61494 0.64535,-1.17016 1.05884,-1.72068l0.94089,-2.60071c0,0 0.58772,-1.61624 2.11175,-1.82768c1.74235,-2.46123 3.5583,-4.98813 4.75232,-7.54075c0.81671,-1.746 1.12384,-3.72147 2.07732,-5.3967c1.00722,-1.76965 2.49265,-3.22555 3.60986,-4.9279c1.30627,-1.99043 1.42495,-3.51095 2.5136,-5.58617c1.7892,-4.93935 3.97479,-9.78646 6.06563,-14.66283c-1.79603,-0.54809 -1.79604,-2.61818 -1.79604,-2.61818l0.0113,-0.75103c-0.15697,-1.74561 -0.25629,-3.49937 -0.25018,-5.25201c-1.11082,-6.00885 -2.56667,-12.05038 -3.48363,-18.10348c-1.27748,-0.744 -1.27749,-2.39348 -1.27749,-2.39348l0.0113,-0.00103c-0.41788,-4.64711 -1.00815,-8.70872 -1.91917,-13.29313c-0.68055,-2.038 -1.62399,-3.97958 -2.32023,-6.00378c-0.01735,-0.04129 -0.03463,-0.08264 -0.05181,-0.12407c-1.60188,-3.86227 -3.11643,-8.11505 -4.13798,-12.16101c0,0 -0.18091,-0.72366 0.02259,-1.51142c-1.14719,-1.59382 -2.37385,-3.1423 -3.27931,-4.85795c-2.79963,-5.3047 -5.82108,-10.04393 -9.10858,-15.01478c-1.28752,-1.9468 -1.90698,-3.81482 -3.15698,-5.6069c-0.24764,-0.10014 -0.47977,-0.18591 -0.69165,-0.24949c-1.44278,-0.43293 -3.49275,0.14419 -4.39185,-1.06438c-1.45459,-1.95526 -1.33963,-3.99003 -0.47852,-5.72937c-0.64807,-0.48039 -1.28037,-1.34092 -0.91569,-2.79966c0.66698,-2.66789 3.33487,-2.00092 3.33487,-2.00092l1.76463,0.98557c0.35541,-0.09465 0.72094,-0.16976 1.08046,-0.25647c2.89765,-1.69801 6.48766,-0.91601 9.62365,-1.05883c4.12899,-0.18805 7.70551,-1.29894 11.70538,-1.9718c2.90519,-0.48872 6.00431,-0.04344 8.96841,-0.49507c4.01549,-0.61183 7.82391,-2.46602 11.76561,-3.45141c3.93275,-0.98315 7.70132,-1.86656 11.64265,-2.42269c0.08099,-0.07297 0.13224,-0.11141 0.13224,-0.11141l1.8598,-1.18402c1.56498,-0.46936 3.29921,-0.49583 4.73037,-1.284c1.25038,-0.68861 2.67625,-3.19877 4.02702,-3.61517c0.11364,-0.03503 0.22781,-0.06747 0.34246,-0.09754l-0.03948,-0.07895l1.60583,-0.80291c-0.00526,-2.92486 0.299,-5.96808 0.299,-8.71241c0,0 0,-0.11276 0.03386,-0.27053l0.05554,-0.44371c0.72422,-1.79616 1.86397,-3.23127 2.72825,-4.94143c0.98418,-4.51226 4.50327,-8.8285 6.86903,-12.7515c1.96068,-3.25127 2.38742,-7.42844 3.29923,-11.17941c0.00905,-0.8037 0.01408,-1.60811 0.01408,-2.41343c0,0 0,-1.25 1.25,-1.25c0.85773,0 1.1269,0.58856 1.21137,0.95797c0.79312,0.48142 0.47449,1.43732 0.47449,1.43732c-0.16524,0.48792 -0.31449,0.98635 -0.45257,1.49252c-0.07757,6.36468 -0.40161,12.68508 -0.47041,19.05645c6.58152,0.56683 13.28956,-0.05856 19.74166,1.33194c1.85706,0.40022 3.09148,0.13436 4.80091,1.104c1.65375,0.6743 2.77096,1.83337 3.98122,2.9006c2.61811,-1.77004 5.08998,-3.55904 7.16164,-6.04926l-0.00006,0.00005c1.69061,-2.03217 3.12614,-4.20344 4.62596,-6.34254c-0.16904,-0.32347 -0.32876,-0.70374 -0.48505,-1.1705l-0.33922,-0.71849c-0.79904,-1.07142 -2.09682,-2.006 -2.64113,-3.23979c-0.11466,-0.25991 -0.20373,-0.53175 -0.27154,-0.81241c-0.48681,0.55603 -0.98355,1.11843 -1.48757,1.69367c-0.08902,0.13869 -0.21982,0.27421 -0.40638,0.3986c-0.28803,0.19203 -0.54948,0.2511 -0.77697,0.23614c-0.2275,-0.01485 -0.47901,-0.10752 -0.73953,-0.33548c-0.21042,-0.18411 -0.33258,-0.37411 -0.39546,-0.55815c-2.22897,-0.42454 -4.50686,-0.68767 -6.4789,-1.84526c-7.171,-5.36411 -6.50425,-12.93664 -5.88672,-20.64361c-0.16579,-0.31861 -0.1658,-0.64371 -0.1658,-0.64371c0,-2.6135 0.87684,-7.09886 -0.14921,-9.50825c-2.04296,-4.79734 -3.10079,-9.90651 -3.10079,-15.24175c0,-2.10658 0,-4.21315 0,-6.31973c-0.21356,-0.87027 -0.27918,-1.69162 0,-2.29035c0,-0.21331 0,-0.42661 0,-0.63992v-1.5c0,-0.69035 0.55964,-1.25 1.25,-1.25c0.69036,0 1.25,0.55965 1.25,1.25v0.01312c0.08004,-0.00648 0.16332,-0.01089 0.25,-0.01312c0.53825,-0.01385 0.94462,0.09683 1.25632,0.29055c0.67838,-1.05421 1.39251,-2.13804 2.13898,-3.13318c0.97573,-2.11688 1.7069,-4.47137 3.51753,-6.08562c0.94774,-0.84495 2.33213,-1.5259 3.00983,-2.70567c0.87236,-1.51863 1.15994,-2.88984 2.54608,-4.12958l-0.35262,-0.35263c-2.3481,-2.35796 -2.87068,-4.96309 -2.36316,-7.77433l-0.01565,-0.10955h-0.23731v-1.75c0,-0.37426 0.16448,-0.7101 0.42509,-0.93918c0.02115,-0.03108 0.0445,-0.0618 0.07021,-0.09204c1.59769,-3.07749 3.62522,-4.70763 5.79117,-7.26508c1.97956,-2.33737 2.971,-5.74145 5.46876,-7.7076c1.32876,-1.04595 3.34037,-1.63965 4.60063,-2.8696c1.2233,-1.19389 2.03195,-3.13204 3.31689,-4.31359c0.83258,-0.76559 1.95152,-1.15324 2.85529,-1.83333c3.64269,-2.42773 6.97926,-4.99578 10.08808,-8.11346l1.12162,-0.62153c0.63975,-0.64631 1.22878,-1.35568 1.69039,-2.13771l1.34419,-0.62286c0.7296,-0.51985 1.39119,-0.7682 2.04636,-1.08129c0.65783,-0.8959 1.32213,-1.78373 1.99423,-2.60499c0.9173,-1.12089 2.27495,-1.57237 3.4992,-2.20711c0.43609,-0.35798 0.9195,-0.66833 1.42476,-0.95555c0.10917,-0.1011 0.21399,-0.20848 0.31375,-0.32322c2.28091,-2.62334 4.39894,-6.35848 7.82034,-7.52759l0.86894,-0.65171c0.21062,-0.16155 0.47414,-0.25757 0.7601,-0.25757c0.69036,0 1.25,0.55964 1.25,1.25c0,0.34518 -0.13991,0.65767 -0.36611,0.88388l-1.23592,1.23592c-0.93973,1.93621 -2.08045,3.72159 -3.88922,5.12358c-1.17373,0.90977 -2.78289,1.48877 -4.14204,2.28304c-0.17925,0.1243 -0.36501,0.2394 -0.55498,0.34825c-0.33078,0.22441 -0.63829,0.46843 -0.91057,0.74161c-0.94977,0.95289 -1.55865,2.81557 -2.41589,3.90299c-0.76993,0.97666 -1.722,1.4458 -2.63801,2.07491c-0.55304,0.74766 -1.06927,1.51778 -1.47436,2.33001c-0.74629,1.49635 -1.02944,3.20418 -2.18169,4.52338c-3.61999,4.14452 -6.42248,9.17811 -7.79562,14.67757c-0.03803,0.05781 -0.07672,0.11512 -0.11601,0.17197c3.33814,-0.25308 7.16196,0.82391 9.93466,1.9173l0.80077,0.18891c1.16334,0.22485 2.41926,0.68519 3.66784,1.319c0.14722,-0.21987 0.31715,-0.34732 0.31715,-0.34732c1.98348,-1.47924 3.1934,-3.74789 5.32631,-5.05292c3.94516,-2.41387 7.56369,-4.45131 11.18838,-7.3548c2.39832,-1.92113 6.12702,-5.04724 9.03457,-5.75819c3.16668,-1.96435 6.00882,-6.33632 10.04138,-6.2702c0.19908,-0.17672 0.40193,-0.35151 0.60913,-0.52417c0,0 0.01326,-0.01104 0.03795,-0.02898l0.01228,-0.01074c0,0 0.06499,-0.04874 0.17426,-0.1048c0.20738,-0.10975 0.53628,-0.22729 0.89129,-0.13449c0.22206,0.05504 0.45299,0.19114 0.66502,0.46384c0.21649,0.26917 0.29571,0.52524 0.29809,0.75402c0.00848,0.36684 -0.18169,0.65981 -0.33628,0.83631c-0.07974,0.0934 -0.14215,0.1454 -0.14215,0.1454c-2.70913,2.2576 -4.65768,4.91977 -7.16634,7.42361c-3.90235,3.89485 -8.05964,7.66123 -11.36346,12.08809c-1.97301,2.96126 -4.33344,4.82152 -6.63007,7.4054c-1.68327,1.89381 -2.85058,4.02398 -4.27789,5.97964c0.53599,1.54915 0.97304,3.14163 1.54238,4.66465c0.98509,2.6352 2.09879,3.84351 2.09201,6.88974c0.49557,3.46902 0.59551,7.41762 0.14233,10.9699c3.16748,1.83957 6.47501,3.68513 10.11082,3.61871l1.53007,1.29815c2.79239,-0.07847 5.59055,0.19163 8.38132,-0.045c5.20963,-0.44172 10.27429,-1.16662 15.37257,-2.41302c1.71791,-0.97307 3.20507,-0.91539 4.9101,-1.70969c3.58877,-1.67184 7.44289,-3.16445 11.10981,-4.54811c0.92745,-0.34996 2.03716,-0.05527 2.93592,-0.47346c1.2097,-0.56286 2.80073,-0.9073 3.93824,-1.47033c1.52461,-0.75463 2.57316,-2.31485 4.29657,-3.02339l1.44389,-0.72194c0.1737,-0.09145 0.37156,-0.14321 0.5815,-0.14321c0.69036,0 1.25,0.55965 1.25,1.25c0,0.27621 -0.08958,0.53149 -0.24129,0.73838l-1.24154,1.73816l-0.02475,-0.01768c-0.04562,0.07126 -0.0937,0.14118 -0.14451,0.20959c-1.48541,1.99999 -5.15177,2.88459 -7.19074,4.14486c-0.58604,0.36222 -1.15698,0.73638 -1.71693,1.11979c-0.22154,0.72711 -0.99167,0.80703 -1.15829,0.81582c-2.21965,1.60426 -4.30527,3.33066 -6.53195,5.00108l-1,0.25c0,0 -0.8574,0 -1.152,-0.71011c-0.29398,0.03233 -0.63281,0.07858 -1.06081,0.17667c-2.40609,0.55145 -4.81118,1.91992 -6.82807,3.31284c-4.59708,3.17486 -8.21975,7.84743 -12.04851,11.98727c1.75232,-0.20408 3.50097,-0.25435 5.39816,-0.38501c1.36788,-0.09421 2.76162,-0.52765 4.10542,-0.25532c0.02862,0.0058 0.05723,0.01168 0.08581,0.01765v-0.01899h3.63044c4.41616,-0.94782 8.87641,-1.50709 13.26646,-1.49574c1.62524,-0.27548 3.27086,-0.41737 4.92523,-0.49308c1.71819,-0.62944 3.39537,-1.36509 5.14857,-1.89845c4.75347,-1.44609 9.66261,-2.05086 14.55249,-2.85336c4.90893,-0.01323 9.81787,-0.00937 14.72682,-0.00937h2.5c0.2301,0 0.45362,0.02826 0.66724,0.0815c0.07456,-0.03355 0.14897,-0.06655 0.22305,-0.09905c0.19705,-0.09483 0.40704,-0.18499 0.62768,-0.26976c0.09933,-0.04226 0.19692,-0.0838 0.29223,-0.12476c0.22168,-0.09528 0.45056,-0.15753 0.68462,-0.19586c2.36419,-0.6573 5.41564,-0.72118 7.10082,0.45909c0.29147,0.16385 0.55007,0.37929 0.76339,0.63394c13.7189,-0.17064 27.40924,-1.7351 41.14097,-1.7351c4.16667,0 8.33333,0 12.5,0c1,0 2.03719,-0.27021 3,0h2.27671l0.11386,-0.14232l0.06445,0.05156c0.07367,-0.11081 0.15222,-0.21857 0.23655,-0.32272c0.13121,-0.16204 0.68306,-0.40895 1.36292,-0.66915c0.50898,-1.00695 0.7942,-1.92218 2.50047,-2.10034c0.3466,-0.39841 0.75659,-0.74125 1.21285,-1.03588c7.07083,-1.13116 14.53452,-1.38171 21.80087,-2.50987c0.0785,0.11579 0.13809,0.24544 0.17433,0.38452c4.42676,-0.77612 8.86224,-1.40129 13.31077,-2.12011c0.20718,-0.1169 0.42988,-0.14824 0.61595,-0.14614c0.01951,-0.001 0.03026,-0.001 0.03026,-0.001h1.66667c0.5326,0 0.9874,0.3331 1.16745,0.80232c0.35031,0.09668 0.70132,0.19018 1.05287,0.28125c0.58685,0.07062 1.1722,0.14957 1.7563,0.23587c1.50357,-0.11514 3.04869,0.01389 4.61951,0.01389zM224.97502,202.2c-4.88948,0 -9.5682,0.9952 -14.41399,0.9794c-8.06116,2.07076 -15.94106,3.77649 -24.11445,5.22987c-6.79083,1.20754 -13.89996,1.13433 -20.88611,1.36899c0.20248,0.33831 0.32837,0.70388 0.35409,1.09822c0.03268,0.50101 -0.02137,1.01721 -0.14738,1.52653c1.0218,0.90347 2.08599,1.69528 3.184,2.88457c1.46715,1.58915 2.06004,3.81292 3.28415,5.59603c0.54536,0.7944 1.51003,1.24487 2.03552,2.05254c0.8863,1.36223 1.52274,4.10732 2.20621,5.62262c1.25959,2.7926 2.25078,4.85432 2.64335,7.8307c0.34656,0.9889 0.70309,1.98062 1.13084,2.97393c2.04567,4.75034 4.56275,9.49978 5.43921,14.65193c0.4144,2.43596 0.30916,4.9397 0.47401,7.40006c0.4026,1.24822 0.7492,2.51268 1.01643,3.79395c0.16971,0.8137 0.20084,1.6513 0.17399,2.49852c0.90501,3.78424 1.71097,7.5467 2.10649,11.46851l0.25,2.5c0,0 0.12508,1.2509 -0.63965,2.14576c0.6469,3.21193 1.31747,6.42052 1.89218,9.63092c0.00063,0.19969 0.00228,0.3994 0.00495,0.59911c1.43881,-3.70349 3.1627,-7.43202 4.74005,-11.06195c0.32235,-0.74181 1.17386,-2.28897 1.76984,-3.57428c0.10778,-0.68012 0.19472,-1.36794 0.25757,-2.06489l0.1228,-0.5756c-0.6013,-0.44374 -1.11628,-0.99452 -1.50425,-1.65582c-0.74672,-1.27278 -0.51421,-2.9505 -0.33023,-4.41465c0.29926,-2.38166 1.67826,-3.8363 3.00038,-5.62995l2.45,-1.1c0,0 0.05605,-0.00001 0.15215,0.008c7.71109,-9.84619 15.68325,-19.22851 24.9742,-27.5485l1.08551,-1.73493c2.8372,-4.24977 6.13735,-7.91524 9.44745,-11.76106c1.3615,-1.58185 2.12656,-3.64675 3.60689,-5.118c0.86055,-0.85527 1.89888,-1.49044 2.95693,-2.10307c0.99004,-1.82521 2.23848,-4.53724 3.68989,-6.6067c-1.65444,-0.077 -3.31583,-0.13575 -4.98802,-0.13575c-1.69674,0 -4.74563,0.56721 -6.30902,-0.13197c-0.41499,-0.18559 -0.47167,-0.82004 -0.85745,-1.06053c-1.2945,-0.80695 -2.99547,-1.78176 -4.54777,-2.39691c0,0 -0.04609,-0.01844 -0.11622,-0.05714c-0.07163,-0.03587 -0.11292,-0.06339 -0.11292,-0.06339l-0.83749,-0.56397c-0.47011,-0.3845 -0.94022,-0.76901 -1.41034,-1.15351c-0.2705,-0.43906 -0.53899,-0.8888 -0.80325,-1.34758zM278.61922,186.48097c0.38506,0.39495 0.77748,0.78055 1.18152,1.14005c-0.36291,-0.37089 -0.69615,-0.70879 -0.98437,-0.96461c-0.06586,-0.05846 -0.13157,-0.11694 -0.19714,-0.17544zM259.39185,107.78973l0.03259,0.00543c-0.02405,-0.08285 -0.04864,-0.16544 -0.07379,-0.24778c0.0138,0.08078 0.02753,0.16157 0.0412,0.24236z"></path><g><path d="M349.19807,35.16781c-3.26337,2.0263 -5.07508,5.91095 -8.46918,7.94892c-3.88409,2.33217 -7.05206,4.70818 -10.12477,8.06888l-1.18302,0.47482c0,0 -0.00093,0.00017 -0.00275,0.00049c-1.80701,1.42804 -3.70423,2.7867 -5.51057,3.9158c-1.31657,1.45542 -1.926,3.5908 -3.34313,4.90695c-1.42948,1.32762 -3.40257,2.43414 -4.91994,3.72699c-1.63987,1.39722 -2.55273,3.66571 -4.01109,5.26076l-1.05757,0.82581c0,0 -0.99667,0.75442 -1.75109,-0.24225c-0.01872,-0.02473 -0.03636,-0.04931 -0.05297,-0.07374c-0.00518,0.00229 -0.01039,0.00456 -0.01565,0.00679c-0.20937,0.11068 -0.47659,0.16537 -0.80673,0.07938c-0.33669,-0.05504 -0.55889,-0.21322 -0.70552,-0.3992c-0.26424,-0.28228 -0.30538,-0.62357 -0.283,-0.88856l0.02057,-0.62177c-0.4286,-0.13315 -0.77096,-0.49334 -0.85892,-0.96522c-0.01702,-0.09129 -0.02365,-0.18212 -0.02072,-0.27125l0.01638,-1.24884l0.06148,0.00081l-0.04825,-0.16656c1.24329,-4.4027 2.20735,-10.12986 4.93723,-13.99602l-0.01155,-0.06197l-0.26437,-0.13072l0.2655,-0.53693c0.02449,-0.06908 0.05707,-0.1348 0.09682,-0.19581l0.18529,-0.37472c0.16676,-0.34665 0.49075,-0.61193 0.8979,-0.68782c0.50686,-0.09448 0.99926,0.13128 1.26877,0.53436c0.03213,-0.00877 0.06463,-0.01747 0.0975,-0.02611l0.24238,0.57192c0.20266,0.08078 0.4252,0.19985 0.66973,0.36277c0.17857,0.11897 0.3884,1.04501 0.53869,1.81535l0.44966,1.23403l-0.20605,0.07508c0.15389,0.79088 0.32344,1.5644 0.45712,2.33142c0.30978,-0.29512 0.64435,-0.56615 1.01175,-0.80518c0.12118,-0.07884 0.24483,-0.15964 0.37069,-0.24234c0.05444,-0.11358 0.1387,-0.22352 0.26769,-0.31012c-0.04962,-1.19638 0.3654,-1.87047 0.62783,-3.20794c0.46441,-1.09497 1.06999,-2.09987 1.68839,-3.08533c0.9487,-0.16185 2.14464,-0.41392 3.32258,-0.70011c2.15536,-2.02458 5.43736,-3.42208 7.02827,-5.82297c0.33109,-0.49966 0.68206,-0.96044 1.04681,-1.3968c0.63328,-1.14462 1.34262,-2.13324 2.29091,-2.6449c0.16006,-0.08636 0.31953,-0.17409 0.47831,-0.26322c0.59396,-0.60334 1.18623,-1.22947 1.75631,-1.9272c1.57849,-1.63478 2.34078,-3.73658 3.87294,-5.32448c1.38008,-1.43029 3.09692,-2.42456 4.71694,-3.51643c1.31916,-1.59291 2.87936,-2.81925 4.20169,-4.45957c0.85263,-1.05767 1.12891,-2.49308 1.88845,-3.61999c0.99464,-1.08039 2.29985,-1.74075 3.29679,-2.77504c0.18563,-0.19257 0.35469,-0.39826 0.51138,-0.61376c0.93124,-3.59333 2.10421,-7.19213 3.84566,-10.40208c0.85595,-1.57774 2.34782,-2.88202 3.18721,-4.36407c0.33836,-0.59742 0.21929,-1.38842 0.56796,-1.97987c1.35102,-2.29169 3.90157,-3.66384 5.85516,-5.51368c0.115,-0.14767 0.22681,-0.29912 0.33494,-0.45494c0.87781,-1.26506 0.88021,-2.69299 2.03625,-3.8621c0.82403,-0.83334 2.05994,-1.41817 2.94871,-2.20336c-0.09198,-0.05625 -0.18466,-0.11136 -0.2781,-0.16521c0.57749,-0.64489 1.18598,-1.19121 1.83886,-1.5048c1.64888,-1.97617 3.11089,-4.31306 4.77065,-6.23095c1.21245,-1.06354 2.71669,-1.57074 3.80282,-2.73597c2.69017,-2.8861 4.56976,-6.75025 7.50921,-9.34513c0.82183,-0.72549 1.89297,-1.12008 2.75005,-1.80356c1.60181,-1.27737 2.70923,-3.18121 4.0323,-4.7047c1.37317,-1.58119 3.29462,-2.76183 4.86629,-4.13125c0.23438,-0.10856 0.46385,-0.2226 0.68896,-0.34152c0.29908,-0.37071 0.61279,-0.72834 0.94692,-1.06748c1.08181,-1.09809 2.19236,-1.56069 3.17432,-2.80208c1.29063,-1.40553 2.44028,-3.15169 3.71981,-4.48438c1.23595,-1.2873 3.30086,-2.17697 4.69088,-3.35323c3.16899,-2.68168 6.20851,-5.53378 9.30328,-8.28c0,0 0.63723,-0.56422 1.22898,0.00459c1.65579,-1.55863 3.10735,-3.40432 4.92638,-4.76885c1.40242,-1.05201 3.27507,-1.85639 4.76433,-2.77624c1.8945,-1.17014 3.50528,-2.8463 5.47651,-4.03511c6.93813,-3.45686 13.57335,-7.16206 20.14575,-11.54847c0.0911,-0.0714 0.18741,-0.12 0.26701,-0.1521c0.08556,-0.03518 0.19843,-0.07022 0.32443,-0.08027l0.28532,-0.0484c4.13623,-1.31814 7.96893,-3.06789 11.73737,-5.01254c0.65773,-0.2257 1.29321,-0.48645 1.89584,-0.77642c7.38881,-3.55545 16.25719,-5.51757 20.83728,-12.92168c0.50458,-0.29983 1.03902,-0.55674 1.6135,-0.75633l0.30747,-0.06673c0,0 0.03075,-0.00573 0.08198,-0.00941c0.18243,-0.02164 0.43205,-0.00803 0.64555,0.15737c0.14011,0.0983 0.26314,0.25437 0.32708,0.5c0.07775,0.24161 0.0576,0.43932 -0.00796,0.59742c-0.0915,0.25408 -0.29491,0.39943 -0.46051,0.47899c-0.04521,0.02436 -0.07425,0.03601 -0.07425,0.03601c-3.14887,1.26078 -5.10428,4.24858 -7.72982,6.40794c-0.2523,0.2075 -0.52584,0.40704 -0.81676,0.5992c-0.23562,0.10796 -0.57678,0.3141 -0.99838,0.59747c-0.07074,0.03864 -0.1421,0.07694 -0.21405,0.11494c-0.20479,0.13248 -0.40802,0.26592 -0.60665,0.40364l-0.03474,0.08133c-2.92086,2.11636 -7.97532,6.34487 -10.46167,8.76654c0.18051,-0.35017 0.36229,-0.69827 0.54489,-1.04487c-3.27267,2.52723 -6.53881,5.05073 -9.86535,7.5791c-0.13283,0.52886 -0.73184,0.64052 -0.73184,0.64052l0.03115,-0.10857c-0.03878,0.0294 -0.07757,0.05881 -0.11636,0.08821c-1.58267,2.81933 -4.58398,4.51586 -5.99761,7.29123c-3.6737,3.18092 -7.20156,6.45495 -10.89951,9.62896c-1.11888,0.96035 -1.84708,2.28657 -3.02918,3.2262c-2.28301,1.81471 -5.78681,3.53679 -7.21754,6.23624c-0.60836,0.66485 -0.9547,1.53598 -1.53461,2.22577c-1.31971,1.56976 -3.44987,2.55109 -4.85383,4.08527c-3.59296,3.9262 -6.65833,7.58103 -11.2139,10.47256c0,0 -0.08676,0.05497 -0.22067,0.09923c-2.66811,3.38136 -5.88859,6.1723 -8.29729,9.68817c-1.34737,2.31507 -2.91785,3.88418 -5.04724,5.44432c-1.19144,0.87294 -1.37167,2.43324 -2.0693,3.54904c-0.68385,1.09377 -1.88771,1.52009 -2.74507,2.36042c-0.17321,0.16976 -0.34065,0.34448 -0.50322,0.52347c-0.44861,0.44623 -0.85342,0.93342 -1.2093,1.45407c-2.96684,2.77722 -5.64825,6.32574 -7.434,9.17323c-0.96903,1.54518 -1.99337,3.79233 -3.34796,4.88201c-2.81438,2.26397 -6.933,5.1061 -9.17688,7.96391c-1.26078,1.60574 -1.86744,3.31037 -3.27111,4.77998c-0.88103,0.92242 -2.36893,1.09812 -3.13988,1.85968c-1.76433,1.74283 -3.07436,3.60873 -4.57749,5.63297c-1.71047,2.30343 -6.07179,4.03589 -8.39309,5.76263c-2.29348,1.70606 -5.96411,2.50311 -8.2385,4.39337c-1.39567,1.15994 -2.81252,2.93219 -4.4016,3.9708c-0.42493,0.27774 -0.91853,0.43864 -1.42739,0.60404c-0.0558,0.5895 -0.60436,0.93708 -0.60436,0.93708z"></path><path d="M439.28018,-58.30302c0.1265,0.67867 -0.32112,1.33139 -0.99978,1.45789c-0.67867,0.1265 -1.33139,-0.32112 -1.45789,-0.99978c-0.1265,-0.67867 0.32112,-1.33139 0.99978,-1.45789c0.67867,-0.1265 1.33139,0.32112 1.45789,0.99978z"></path></g></g><path d="M278.00624,94.73869c-0.44394,0.38989 -0.42507,0.85187 -0.9324,1.83832c-0.78825,1.53265 -2.51226,3.14252 -3.85722,4.16987c0,0 -1,0.75 -1.75,-0.25c-0.75,-1 0.25,-1.75 0.25,-1.75c2.09971,-1.53671 2.92023,-3.7935 4.51034,-5.43997c0.11975,-1.06003 1.23966,-1.06003 1.23966,-1.06003l0.06174,0.00137c0.29071,-0.17904 0.60612,-0.33987 0.95188,-0.47882l0.23638,0.08633v-0.10888h1.25c0.69036,0 1.25,0.55964 1.25,1.25c0,0.53655 -0.33806,0.99415 -0.8128,1.17141l-1.22297,0.48919l-0.03934,-0.09835c-0.06284,0.05507 -0.12568,0.11013 -0.18852,0.1652z" fill="#b49fda" stroke="none" stroke-width="0.5"></path><path d="M502.59615,111.49688c0,-1.25 1.25,-1.25 1.25,-1.25h1.25c0.99678,0 2.2079,0.09973 3.41035,0.07189l1.47354,-1.47354l0.01853,0.01853c0.06181,-0.06408 0.12548,-0.12657 0.19121,-0.18727c1.47394,-1.36127 3.86922,-1.78602 6.36125,-1.86807c0.60873,-0.29416 1.23009,-0.55091 1.85746,-0.74647c0.29102,-0.25737 0.58181,-0.51353 0.87417,-0.76413c0,0 0.94907,-0.81349 1.76256,0.13558c0.04504,0.05254 0.08467,0.10467 0.11936,0.15626c1.58,-0.09788 3.14775,0.05517 4.68157,0.37365v-0.21642h2c0.69036,0 1.25,0.55964 1.25,1.25c0,0.61444 -0.44333,1.12533 -1.02756,1.23027l-1.22729,0.24546c-0.09216,0.01802 -0.18426,0.0356 -0.27628,0.05277c-0.09152,0.40223 -0.37704,0.7307 -0.75294,0.88179l-1.72352,0.73865l-0.15755,-0.36762c-1.892,0.95646 -3.74331,1.25444 -6.25118,1.92334c-2.1304,0.56822 -4.12747,1.51188 -6.33367,1.54536h-1.5c-0.40475,0 -0.76457,-0.19237 -0.99301,-0.49067c-1.27727,0.05513 -2.56479,-0.00933 -3.75699,-0.00933h-1.25c0,0 -1.25,0 -1.25,-1.25z" fill="#b49fda" stroke="none" stroke-width="0.5"></path></g><g fill-opacity="0.08235" fill="#b69edb" stroke="none" stroke-width="0.5"><path d="M294.13462,42.98818l0.97903,-1.38102c2.71329,-2.71329 4.87648,-5.04043 8.3164,-6.80163c0,0 2.23607,-1.11803 3.3541,1.11803c1.11803,2.23607 -1.11803,3.3541 -1.11803,3.3541c-2.01715,0.97723 -3.47503,2.27839 -4.93243,3.74092c0.00021,0.01323 0.00031,0.02648 0.00031,0.03975c0,0.57191 -0.19204,1.09897 -0.51515,1.5202l-1.48485,1.9798l-0.03396,-0.02547l-0.02395,0.09971c-1.42679,1.62175 -3.0326,3.09087 -4.71647,4.4438c-2.34479,1.55937 -3.74743,3.18092 -5.77568,5.06503c-4.75995,4.42167 -9.43759,7.28558 -12.51646,13.13445c-0.5684,1.07979 -1.16399,2.58039 -1.59034,4.07995c0.47346,1.29306 0.22155,2.78973 0.32088,4.20398c0.02854,-0.00096 0.05719,-0.00145 0.08597,-0.00145c1.38071,0 2.5,1.11929 2.5,2.5c0,0.38813 -0.08845,0.7556 -0.24629,1.08336l-0.72272,1.58997c0.35832,1.52583 0.22638,2.89519 -1.5062,3.09991c-1.36092,2.66009 -2.57081,6.19475 -4.67474,8.41362c-0.02444,0.10229 -0.04643,0.20349 -0.06583,0.30348c-0.09709,2.02514 -0.18272,3.36868 2.07542,5.59148c0.9172,0.21597 1.77266,0.54359 2.46479,1.16083c0.12479,0.11129 0.2436,0.22768 0.3572,0.34851l0.06837,-0.09116l0.09874,0.07405l1.43349,-1.43349l0.01039,0.01039c0.014,-0.02058 0.0281,-0.04109 0.0423,-0.06155c2.46348,-3.5488 6.68024,-4.05029 9.9664,-6.24185c2.66281,-1.77584 4.43829,-4.73287 7.77367,-5.6888c0.93193,-0.26709 1.95732,0.13896 2.90788,-0.05147c1.31113,-0.26266 2.50025,-0.96887 3.79783,-1.2919c4.10575,-1.0221 13.79655,-2.85935 9.76524,4.28259c0.00269,0.04755 0.00406,0.09546 0.00406,0.14369c0,0.61475 -0.22189,1.17768 -0.58995,1.61307l-1.65616,1.98739l-0.03053,-0.02545l-0.04396,0.11083c-1.86356,1.85745 -3.80684,3.37092 -5.63708,5.05477c0.03092,0.38269 -0.04031,0.82094 -0.27563,1.31476c-1.45922,3.2641 -3.4357,6.36351 -4.57278,9.7679c-1.88176,5.634 -2.60904,11.62226 -3.92249,17.39641c-1.03137,4.53411 -3.07098,8.81264 -3.62404,13.42373l-0.38867,1.62959c0,0 -0.00841,0.03364 -0.02721,0.092c-0.01547,0.05933 -0.02644,0.09223 -0.02644,0.09223c-1.53243,4.58718 -3.66566,8.89109 -5.36422,13.42057l-0.32196,0.96864c0.25206,0.95879 0.49933,1.91883 0.73982,2.88056l0.07464,2.60634c0,0 0,2.5 -2.5,2.5c-0.02782,0 -0.05533,-0.00031 -0.08253,-0.00092c-1.06734,1.69626 -2.53507,3.07634 -4.00318,4.46981l-1.16747,1.75121l-0.02637,-0.01758c-0.02249,0.05035 -0.04539,0.10055 -0.06872,0.15059c-1.41669,3.03785 -5.86171,5.81209 -8.31979,7.92924l-2.53386,1.11755c-1.61665,0.94352 -2.93181,2.36096 -4.5663,3.27562c-2.62801,1.47065 -5.68432,2.42515 -8.74335,2.91902l-0.66588,1.24852l-0.04583,-0.02444c-0.02767,0.08152 -0.05631,0.16277 -0.08597,0.24375c-0.68792,1.87784 -2.64741,3.17664 -3.2821,5.04551c-0.94166,4.96198 1.95073,13.13781 -4.1893,15.91115c-0.39332,0.17765 -0.76493,0.32777 -1.11594,0.45194c-0.93455,0.58164 -2.07828,0.92442 -3.48674,0.94562c-1.48533,0.02236 -2.96894,-0.64863 -4.20749,-1.46882c-0.72921,-0.48289 -1.23296,-1.21849 -1.74006,-1.95034c-1.26747,-0.00617 -2.37672,-0.01982 -2.5051,-0.0485c-4.50408,-1.00602 -5.65236,-4.00531 -7.42182,-7.70884c-0.82029,-1.7169 -2.47729,-3.95398 -2.8578,-5.90411c-0.77591,-3.97659 0.41378,-7.31535 1.34421,-11.05568c1.73031,-6.95588 4.26799,-13.67919 7.49513,-20.14883l0.95571,-2.22999c0.36945,-0.91919 1.26922,-1.56816 2.32056,-1.56816c0.15949,0 0.31549,0.01493 0.46668,0.04348c0.02738,-1.18018 0.13927,-2.36365 0.3276,-3.53324c-0.95054,-0.35398 -1.62761,-1.26971 -1.62761,-2.34357c0,-0.18573 0.02025,-0.36673 0.05867,-0.54091l0.65654,-3.28271l0.18178,0.03636c-0.02386,-0.1409 -0.04773,-0.2818 -0.07159,-0.4227l0.30873,-0.28481l-0.13808,-0.0789l1.30926,-2.2912c0.36324,-0.66391 1.01895,-1.14495 1.79386,-1.26983l1.29973,-1.29973c0.45241,-0.45241 1.07741,-0.73223 1.76777,-0.73223c1.38071,0 2.5,1.11929 2.5,2.5c0,0.20502 -0.02468,0.40428 -0.07123,0.59496l-0.65497,2.94736l-0.11025,-0.0245l0.0257,0.31862c-0.52998,1.06264 -0.98519,2.15314 -1.35707,3.26641c0.42933,2.75886 -0.03708,5.7253 0.02516,8.61581c0.87011,0.39116 1.47599,1.26549 1.47599,2.28134v3c-0.00076,0.40505 -0.00378,0.81129 -0.00897,1.21857c0.24787,0.37937 0.49334,0.75536 0.72455,1.1245c1.32092,0.01294 2.53197,0.11286 3.69379,0.27214c0.0309,-0.00791 0.06189,-0.01558 0.09298,-0.02301c1.25054,-0.29868 2.50339,-0.03772 3.72493,0.37116c3.70496,0.03941 7.68578,-0.12935 11.04709,0.69517c0.6644,0.16297 1.44593,0.53254 2.25822,1.0028c0.91044,-0.03836 1.80442,-0.06968 2.6674,-0.06968h0.5c0,0 1.05747,0 1.79691,0.68775c0.24978,-0.15871 0.49014,-0.32705 0.71238,-0.51336c1.53802,-1.28941 2.88813,-2.79288 4.42957,-4.07819l0.09619,-0.02549l-0.02145,-0.03003l2.30966,-1.64976c0.21162,-0.15517 0.44856,-0.27785 0.70347,-0.36068c0.98158,-0.92521 1.99135,-1.95367 2.35323,-3.249c0.14041,-0.50258 0.17858,-1.01789 0.16699,-1.53958c-0.02676,0 -0.05351,0 -0.08027,0l-2.4768,-2.89725c-6.13242,2.3815 -11.99037,0.33053 -15.69869,-5.70433c-1.31483,-2.13973 -1.94822,-7.10035 -2.29862,-9.53959c-0.60701,-4.22562 -0.69255,-8.43608 -0.69255,-12.69216c0,-1.5688 -0.36004,-3.18523 -0.12697,-4.72319c-0.32841,-2.00581 -0.17451,-3.71997 -0.69091,-5.65126c-0.52841,-0.24203 -1.92326,-1.06561 -1.45326,-2.86094c-1.06065,-1.46497 -1.88291,-3.08208 -2.32865,-4.8569c-0.36405,-1.44955 0.18263,-6.32724 0.2799,-7.49995l0.02646,-0.04861l-0.0206,-0.00257l0.32922,-2.63376c0.09522,-0.86324 0.62994,-1.59408 1.37549,-1.96384c-0.10485,-0.3352 -0.1337,-0.72987 -0.03206,-1.18976c0.05736,-0.47421 0.2469,-1.00987 0.7354,-1.42974c0.45178,-0.45916 0.99897,-0.61224 1.47597,-0.63757c0.72175,-0.10922 1.26612,0.08374 1.66806,0.37798c0.35713,0.16181 0.70733,0.34485 1.05217,0.54381c0.07959,-0.28776 0.20934,-0.55468 0.37925,-0.79077l1.26268,-1.80382c0.31026,-0.82751 0.70474,-1.63951 1.14352,-2.41326c0.60542,-1.26737 1.38474,-2.48442 2.24956,-3.66481l0.61448,-1.22895c0.27092,-0.5715 0.75221,-1.02388 1.34385,-1.2571c0.68409,-0.82415 1.37987,-1.63413 2.05349,-2.43515c-0.09852,-0.28818 -0.15864,-0.61211 -0.19778,-0.95296c-0.11551,-0.15368 -0.2235,-0.31271 -0.32102,-0.47919c-5.02644,-8.58068 1.34148,-16.32384 7.3897,-22.24302c0.24116,-0.31733 0.50269,-0.61808 0.79209,-0.89607c0.59192,-0.56858 1.21517,-1.10703 1.85545,-1.62884c0.12305,-0.11572 0.24513,-0.23052 0.36613,-0.34438c2.20126,-2.07151 4.28666,-4.09315 6.59543,-6.08671c2.24397,-1.9376 4.74554,-5.41302 7.33362,-6.81555c0.03619,-0.01961 0.07243,-0.03911 0.10872,-0.05851l-0.01646,-0.02025l1.18603,-0.96365c0.09228,-0.20013 0.17165,-0.31918 0.17165,-0.31918zM278.70067,160.79999v0l0.00001,0.00001z"></path><path d="M239.75176,224.78216c1.76777,1.76777 0,3.53553 0,3.53553l-1.43764,1.36898c-1.79013,2.66135 -3.96328,5.03133 -6.10789,7.42983c-2.93555,4.85158 -6.46106,9.01541 -9.68139,13.62736c-0.02273,0.03255 -0.49166,0.74073 -1.09222,1.64238c-1.24286,1.97536 -2.5377,3.90932 -3.99009,5.71743c-1.30516,1.62483 -4.86288,5.28898 -6.12476,6.64545c-1.80238,1.93748 -2.79468,4.71857 -5.02079,6.14926c-0.10888,0.06998 -0.21886,0.13784 -0.32985,0.20374l0.03398,0.04705l-1.23768,0.89388c-0.03016,1.20777 -0.17182,2.30021 -0.33611,3.04452c-0.63839,2.89222 -2.75413,5.22297 -3.52709,8.11242c-2.58134,9.64944 -7.22842,19.27262 -11.17169,28.45922l-0.10496,0.08778l0.04579,0.02544l-1.22575,2.20635c-0.1998,0.3764 -0.49296,0.69567 -0.84861,0.92694c-0.44776,0.99372 -0.91124,1.97893 -1.46044,2.91895c-0.9335,1.59778 -2.59687,2.68808 -3.52396,4.28959c-2.14709,3.70898 -3.5154,8.12372 -5.36881,12.00911c-0.82478,1.72903 -2.13141,3.18917 -3.05862,4.86549c-0.96161,1.7385 -1.31136,3.76928 -2.25855,5.51568c-1.02878,1.89683 -2.43356,3.64614 -3.03311,5.71903c-0.30541,1.05592 -0.18055,2.22272 -0.58271,3.24571c-0.92404,2.35054 -3.18138,4.63729 -4.51883,6.81837l-0.91605,2.74816c-0.31417,1.02156 -1.26534,1.76412 -2.38994,1.76412c-0.31551,0 -0.61738,-0.05845 -0.89535,-0.16511c-0.22985,0.72691 -0.82315,1.66511 -2.35465,1.66511c-2.5,0 -2.5,-2.5 -2.5,-2.5l0.26393,-1.61803c2.29052,-4.57186 3.85788,-10.56207 8.02847,-13.94003l2.67321,-3.64528c0.07318,-0.10226 0.15388,-0.19877 0.24129,-0.28872c2.14112,-4.12929 4.80403,-8.11447 6.78528,-12.33137c1.9011,-4.04629 3.37453,-8.64696 5.63119,-12.49089c0.9214,-1.56949 2.57195,-2.63089 3.47604,-4.21041c0.79158,-1.38295 1.39822,-2.86196 2.0582,-4.31403l0.10265,-1.12917l0.05734,0.00521c-0.00242,-0.12764 -0.00031,-0.25572 0.0068,-0.38427c0.09746,-1.76127 1.39474,-3.2415 2.02783,-4.88795c0.68038,-1.76945 1.36115,-3.53082 2.06209,-5.28141c-0.12985,0.01617 -0.26779,0.02476 -0.41432,0.02476c-2.5,0 -2.5,-2.5 -2.5,-2.5l0.05549,-0.72618c-1.02395,-4.78475 -2.09361,-9.59373 -2.77899,-14.41079c-0.38354,-2.69557 0.35273,-3.01203 -0.21843,-5.57733c-0.42406,-1.9046 -1.39898,-3.66451 -1.76634,-5.58085c-0.33334,-1.73883 -0.20585,-3.54251 -0.5066,-5.28727c-0.00992,-0.05753 -0.02012,-0.11492 -0.03059,-0.17216c-0.568,-1.07078 -0.77526,-2.15149 -0.89689,-3.23547c-1.45075,-3.98553 -3.85302,-7.47124 -4.80215,-11.73613c0,0 -0.06788,-0.31678 -0.04074,-0.7467c-1.16686,-1.53288 -2.55704,-2.79134 -3.50083,-4.65908c-1.04069,-2.05953 -1.1622,-4.48243 -2.0523,-6.61138c-0.93159,-2.22817 -2.36458,-4.24693 -3.10811,-6.5447c-0.28085,-0.86794 -0.04132,-1.8667 -0.39323,-2.70834c-0.80708,-1.93025 -2.70665,-3.23402 -3.67285,-5.08975c-1.11787,-2.14702 -2.25157,-4.14848 -3.36322,-6.19972c-0.13788,0.02357 -0.27962,0.03585 -0.42422,0.03585c-0.48518,0 -0.93808,-0.13821 -1.32147,-0.37741l-2.46477,-1.47886l0.12473,-0.20789l-0.56371,-0.12652c-0.75101,-1.46277 -2.6784,-2.79998 -2.25304,-4.38832c0.0018,-0.00673 0.0036,-0.01344 0.00541,-0.02015c-0.57507,-0.62032 -1.06069,-1.26852 -1.02538,-2.05672c0.03104,-0.69283 0.19449,-1.30873 0.46113,-1.85434c-0.01878,-0.34192 0.04072,-0.73031 0.21591,-1.16828c0.67409,-1.68521 2.08226,-1.65755 2.80331,-1.51588c1.87136,-0.84775 4.13177,-1.12337 5.81169,-1.04713c1.38146,0.0627 3.10552,-0.20265 4.21234,0.53263c4.92613,0.11314 9.98568,0.41016 14.91317,0.25003c2.20548,-0.4501 4.42507,-0.86746 6.66311,-1.25606c1.96609,-0.34138 3.95291,-0.55413 5.93623,-0.77439c1.25155,-0.139 2.51137,-1.04467 3.71715,-0.78884c0.33937,-0.07324 0.67866,-0.14341 1.01786,-0.20972l0.24634,0.11235v-0.12452h2.5c1.38071,0 2.5,1.11929 2.5,2.5c0,1.32366 -1.0287,2.40705 -2.33024,2.49433l-3.1054,0.23888c-1.3128,0.49281 -2.73264,0.74666 -4.19154,0.90471c-2.69238,0.67132 -5.39615,1.32895 -8.12648,1.59992c-1.6184,0.16062 -3.25792,0.2525 -4.90985,0.29782c-4.34169,0.98299 -8.61704,2.02852 -12.89309,3.27076c0.62146,1.46983 1.09956,2.99987 0.58294,4.1431c0.12723,0.1428 0.25294,0.28601 0.37703,0.42963c1.61348,1.86749 2.3459,4.34678 3.37432,6.59026c2.23063,4.86608 5.23439,9.60876 7.27223,14.55062c1.21006,2.93445 2.0287,6.06524 3.25574,9.01358c2.21474,5.32157 5.37593,9.74913 5.94177,15.60312c0.00086,0.8711 0.00171,1.74219 0.00257,2.61329v2.5c0,0.66083 -0.2564,1.26177 -0.67514,1.70878c1.35572,8.38811 2.50936,16.74785 4.2809,25.10139c0.75765,-1.74035 1.55365,-3.46734 2.40816,-5.1782l0.84234,-1.41821c0,0 0.4369,-0.72817 1.22584,-1.0811c0.39035,-0.85601 0.74646,-1.72257 1.02669,-2.61212c0.60046,-1.90613 0.82196,-3.93759 1.60284,-5.77719c0.10847,-0.25554 0.48567,-0.9131 0.90751,-1.65897c-0.43608,-0.28947 -0.77608,-0.71214 -0.96196,-1.20996l-0.97837,-2.44593l0.13641,-0.05457c-0.11349,-0.20024 -0.21518,-0.4076 -0.30265,-0.62352c-0.6808,-1.6805 2.12324,-7.94884 3.36505,-8.17169c1.13645,-0.20394 2.04814,-0.05792 2.77497,0.33357c4.03333,-6.12576 8.19413,-11.92937 12.89234,-17.72878c3.38552,-4.17905 6.21181,-8.26069 10.31125,-11.82547c1.09894,-0.95562 2.02257,-2.19182 3.33573,-2.82151c0.02254,-0.01081 0.04513,-0.02149 0.06776,-0.03204l-0.00966,-0.01288l1.9798,-1.48485c0.23889,-0.18324 0.51181,-0.32433 0.80765,-0.41214c0.93849,-1.12173 1.83093,-2.27453 2.63243,-3.48976l2.06236,-2.13102c0,0 1.76777,-1.76777 3.53553,0z"></path><path d="M337.71474,127.37493c0,-1.90432 1.45058,-2.35807 2.14184,-2.46618c0.51676,-0.27829 1.03352,-0.55658 1.55028,-0.83487c0.30234,-1.31291 1.73933,-1.75506 1.73933,-1.75506c3.58924,-1.10037 6.90683,-2.68741 10.59172,-3.39799c4.99997,-0.96417 10.0373,-1.29368 15.06002,-1.89811c2.99755,-0.84382 6.00569,-1.60911 8.98814,-2.11075c1.28809,-0.21666 2.59484,-0.33161 3.90444,-0.43206c2.76569,-0.70837 5.53012,-1.40099 8.38371,-1.80512c0.04693,-0.016 0.09449,-0.03065 0.14263,-0.04389l3.27954,-0.98386l0.07411,0.24704c0.07036,-0.00873 0.14163,-0.01453 0.21368,-0.01729c2.97944,-1.67401 5.88947,-2.33019 10.43057,-2.33519h2.66667c1.38071,0 2.5,1.11929 2.5,2.5c0,0.75529 -0.33493,1.43235 -0.86438,1.89075l-2.65603,2.32402l-0.051,-0.05828c-0.16593,0.15483 -0.3407,0.30089 -0.52592,0.4366c-1.29635,0.94982 -3.1501,0.64594 -4.73929,0.88503c-3.31673,0.49898 -6.73592,0.25542 -10.0246,0.66982c-2.82606,0.3561 -5.61878,0.80866 -8.39128,1.33177c-1.79809,0.46043 -3.59936,0.92054 -5.42901,1.3061c-1.3013,0.27422 -2.60529,0.50242 -3.91104,0.70005c-4.30718,1.0196 -8.60108,2.14093 -12.93245,3.26373c-2.9686,0.76953 -5.40371,2.60475 -8.37695,3.3445c-2.58802,0.6439 -5.32591,0.43096 -7.95638,0.32217c-0.57822,0.36256 -1.15644,0.72513 -1.73466,1.08769l-1.57368,0.32939c0,0 -2.5,0 -2.5,-2.5z"></path><path d="M309.04807,58.70826c0.01297,-2.05749 -0.22037,-4.6385 0.96339,-6.52956c0.0156,-0.20294 0.02924,-0.40597 0.04046,-0.60912c0,0 0.13868,-2.49615 2.63483,-2.35748c0.78155,0.04342 1.3048,0.31795 1.65488,0.67461c0.75976,-0.08671 1.88864,0.06685 2.50431,1.50341c0.17483,0.40795 0.24621,0.77451 0.24534,1.10152l1.02236,-1.21783c2.2335,-1.86035 4.70763,-3.26473 7.16839,-4.72223l0.42877,-0.75035l0.12051,0.06886c0.07199,-0.19057 0.154,-0.37779 0.24781,-0.56107c0.93388,-1.82463 3.5932,-2.04527 5.10158,-3.43315c2.04913,-1.88543 3.30707,-4.63557 5.24585,-6.5814c3.23981,-3.25158 6.10958,-5.11358 8.2188,-9.37094l1.09234,-1.83487c0,0 0.58128,-0.9688 1.61358,-1.21308c1.19211,-2.11553 2.87043,-3.74236 3.95893,-5.94841c1.89752,-3.84564 4.18535,-6.9541 6.45869,-10.55582c1.82021,-2.88381 3.59627,-6.28959 6.66187,-8.11811c0.73275,-1.45135 1.16205,-3.07517 1.97,-4.49192c0.48576,-0.85178 3.20666,-3.72354 3.79925,-4.53325c2.57099,-3.51297 5.88841,-9.17874 10.52308,-10.40199c0.06274,-0.01656 0.12563,-0.03224 0.18865,-0.04708l-0.01514,-0.03532l0.42517,-0.18222c0.58952,-0.96796 1.15394,-1.95653 1.79711,-2.88279c0.98373,-1.41672 2.07977,-2.69962 3.2368,-3.9163c0.61165,-0.99097 1.27558,-1.9312 2.03764,-2.76661c0.66764,-0.7319 1.70295,-1.04613 2.40765,-1.74242c0.63133,-0.6238 3.56178,-5.08792 3.81374,-5.46344l0.23115,-0.11723l-0.06556,-0.06556l2.33333,-2.33333c0.45241,-0.45241 1.07741,-0.73223 1.76777,-0.73223c0.36494,0 0.71162,0.0782 1.0242,0.21875c0.79377,-0.90543 1.60185,-1.79921 2.41577,-2.68304c1.40166,-1.96686 2.80058,-3.92457 4.21068,-5.84745c0,0 0.90353,-1.23208 2.26109,-1.06352c2.92817,-3.26407 5.76545,-6.92574 9.28282,-9.47869c1.91814,-1.39221 3.96135,-2.48534 6.07159,-3.44773l2.29942,-2.29942l0.82987,0.82987c0.35784,-0.36143 0.75115,-0.67103 1.21721,-0.87574c0.00735,-0.00323 0.0147,-0.00639 0.02206,-0.00948c0.01005,-0.01024 0.02011,-0.02048 0.03017,-0.03073l-0.00396,-0.0044l0.07159,-0.06444c0.29688,-0.30203 0.59728,-0.60596 0.90219,-0.91164l0.10003,-0.03073l-0.02838,-0.03311l2.32275,-1.99093c0.43866,-0.38059 1.01121,-0.61093 1.63756,-0.61093c1.38071,0 2.5,1.11929 2.5,2.5c0,0.74166 -0.32296,1.4079 -0.83592,1.86573l-3.21974,2.89777c-0.02554,0.02604 -0.05105,0.05207 -0.07654,0.07809c-0.96179,1.37218 -1.89531,2.18961 -2.86549,2.95779c-1.4198,1.45661 -2.841,2.86308 -4.38329,4.17068c-1.53812,1.81444 -3.52088,4.23894 -3.80325,4.55253c-1.90388,2.11435 -4.07531,3.99582 -6.098,6.0057c-1.00892,1.61622 -2.04248,3.21352 -3.27567,4.71261c-1.62727,1.97815 -3.37592,3.19281 -5.15787,4.56718c-2.60727,2.87845 -5.1999,5.77449 -7.62892,8.75591c-0.7491,1.67461 -1.37175,3.41832 -2.41847,4.83757c-0.94356,1.27936 -2.13162,2.3835 -3.38089,3.43683c-0.1537,0.43188 -0.42278,0.80903 -0.77015,1.09438l-1.97817,1.64847c-0.04624,0.03914 -0.09222,0.07847 -0.13796,0.11797c-0.09582,0.10671 -0.19223,0.213 -0.28927,0.31885c-0.32856,0.35841 -0.69001,0.67951 -1.07186,0.97762c-0.20368,0.21248 -0.40267,0.42846 -0.59763,0.6475c-1.24456,3.77959 -4.28831,7.01082 -6.98086,10.02347c-0.48437,0.54196 -0.97928,1.07501 -1.47731,1.6054c-0.94865,1.49329 -1.97034,2.94534 -3.1295,4.32516c-1.06499,1.26772 -2.25317,2.42688 -3.43055,3.59509c-2.29278,3.43868 -4.29469,7.11182 -6.83624,10.3212c-1.68851,2.1322 -3.59009,4.10826 -5.12751,6.34942c-0.10914,0.83472 -0.64751,1.45 -0.64751,1.45c-4.70224,5.36841 -8.08066,11.1015 -14.39009,14.70146l-2.18713,1.87468c-0.43866,0.38059 -1.01121,0.61093 -1.63756,0.61093c-0.76218,0 -1.4447,-0.34108 -1.90325,-0.87892c-0.23607,0.20398 -0.47199,0.40982 -0.70739,0.61818c0.03898,0.05934 0.0772,0.12165 0.11458,0.18706c1.24035,2.17061 -0.93026,3.41096 -0.93026,3.41096c-0.77778,0.44444 -1.55556,0.88889 -2.33333,1.33333l-0.6783,0.4548c-0.12458,1.22219 -1.30246,1.89526 -1.30246,1.89526l-0.26036,0.14875l-1.55291,1.77475c-4.4359,5.86103 -10.37558,10.59831 -16.13072,15.12027l-1.08671,1.95607c-0.41981,0.7909 -1.25182,1.32954 -2.20964,1.32954c-1.38071,0 -2.5,-1.11929 -2.5,-2.5c0,-0.29691 0.05176,-0.58173 0.14675,-0.84593l0.00768,-0.02304c-0.31196,-0.1634 -0.6401,-0.36188 -0.98549,-0.59868c-1.41347,-0.9691 -0.50074,-3.38561 -0.50311,-5.1166zM315.53287,54.67279c-0.18808,0.04295 -0.35533,0.09109 -0.50389,0.14454c0.00275,0.23953 0.00456,0.47893 0.00405,0.71784c0.28937,0.06499 0.54503,0.18639 0.7622,0.32605c-0.17019,-0.46445 -0.14817,-0.91406 -0.05212,-1.29714c-0.12743,0.07322 -0.21024,0.10871 -0.21024,0.10871z"></path></g><g fill-opacity="0.08235" fill="#b69edb" stroke="none" stroke-width="0.5"><path d="M291.19622,47.54899c1.62698,1.89814 -0.27116,3.52512 -0.27116,3.52512l-2.34655,2.01125c-2.13942,1.78285 -4.2105,3.55356 -6.17933,5.52504c0,0 -0.00004,0.00004 -0.00013,0.00013l-0.7333,1.6852c-1.84381,2.54667 -4.16112,3.86915 -6.13906,6.17722c-1.43344,1.67269 -2.2849,3.76695 -3.41821,5.65593c0,0 -0.02119,0.03531 -0.06266,0.09416c0.08559,0.35601 0.08559,0.6196 0.08559,0.6196c0,3.04741 0.15539,5.93232 0.47925,8.91758c1.06764,0.28474 1.85408,1.2584 1.85408,2.41576c0,0.46716 -0.12813,0.90439 -0.35117,1.27847l-1.31155,2.29521l-0.05102,-0.02915l-0.03025,0.16163c-2.01711,2.69581 -5.83042,5.82724 -5.92503,9.40223c-0.0283,1.06961 -0.20775,2.23602 -0.0164,3.28137c1.77653,1.20942 4.31659,2.07202 5.62253,2.56459l0.27403,0.6197l0.20941,-0.17451l0.0343,0.04116c2.43628,-1.55837 4.40997,-4.18565 7.05739,-5.89646c1.54696,-0.99967 3.44803,-1.35633 5.00677,-2.33753c5.056,-3.18265 10.28494,-6.44254 16.04132,-7.9654l1.2847,-0.6998c0.45082,-0.30752 1.09597,-0.56551 1.86601,-0.35732c0.47052,0.07943 0.96604,0.31572 1.37719,0.85468c0.46403,0.49416 0.61564,1.02178 0.61664,1.49896c0.07571,0.76302 -0.25449,1.3414 -0.61544,1.73515c-4.38992,6.00383 -9.74504,11.21683 -13.41071,17.61975c-0.08133,0.14207 -2.98843,4.14206 -3.15072,4.595c-0.06598,0.18414 -0.11182,0.5316 -0.14332,0.96372c0.45372,0.0388 0.95227,0.2338 1.46367,0.69871c1.84985,1.68168 0.16817,3.53153 0.16817,3.53153c-0.59535,0.64249 -1.15578,1.3178 -1.68318,2.0222v0.62945c0,0 0,2.16316 -2.01216,2.46516c-4.85917,8.60624 -5.99931,20.1366 -5.98784,29.53484v0.86231c0.15259,0.64643 -0.01939,1.20001 -0.26512,1.62113c-0.20044,0.44605 -0.55243,0.90918 -1.17054,1.16023c-0.85023,0.63652 -1.63531,1.40682 -2.63473,1.73706c-3.47633,1.1487 -10.56644,0.25673 -13.42689,-2.18159c-0.74775,-0.6374 -0.85936,-1.79953 -1.52422,-2.52297c-1.46508,-1.59416 -3.42936,-3.06646 -3.92744,-5.17352c-1.04349,-4.41431 0.07206,-10.11155 0.63434,-14.47479c0.55349,-4.29502 -0.04217,-8.99047 0.00777,-13.33151c-0.865,-2.82831 -1.26287,-5.57845 -1.88464,-8.44637c-0.38987,-0.35623 -0.59175,-0.81456 -0.69628,-1.19371c-0.11081,-0.33553 -0.1917,-0.76784 -0.11503,-1.22398c-0.03179,-2.54257 -0.32772,-4.98774 -0.64458,-7.52221l-0.33333,-2.66667l0.89133,-0.11142l0.49099,-2.44446c0.83907,0.44952 1.56197,0.8125 2.20793,1.13624l0.65822,-0.65822l0.42298,0.42298c0.10453,-0.75431 0.24809,-1.46395 0.42798,-2.13844c-0.05271,-0.61561 -0.09014,-1.08916 -0.10846,-1.29043c0,0 -0.19175,-2.10929 1.71919,-2.62145c1.01284,-1.78828 2.32816,-3.42882 3.86115,-5.21865c0.66025,-0.77088 1.05819,-1.89069 1.98168,-2.31184c0.14019,-0.06393 0.28176,-0.12381 0.42456,-0.18008l-0.04429,-0.07972l0.04363,-0.02424c-0.44775,-3.63985 -0.66286,-7.11659 -0.66286,-10.79037c0,0 0,-0.69246 0.36444,-1.3485c-0.2348,-1.00445 0.32517,-1.93773 0.32517,-1.93773c0.29431,-0.49048 3.42085,-5.76752 3.91512,-6.34407c1.94198,-2.26529 4.12712,-3.35384 5.86094,-5.82278l0.37981,-1.14205c0,0 0.25255,-0.63138 0.82352,-1.10384c0.03939,-0.04493 0.06324,-0.06878 0.06324,-0.06878c2.06999,-2.06739 4.241,-3.93634 6.48734,-5.80829l2.32011,-1.98875c0,0 1.89814,-1.62698 3.52512,0.27116z"></path><path d="M328.82078,50.42192c0.21348,1.22006 -0.75493,2.18848 -0.75493,2.18848l-0.47412,0.46371c-3.25191,2.77487 -6.10851,6.00825 -9.25235,8.92747c-0.69824,0.64835 -1.16403,1.60621 -2.02211,2.02044c-0.03513,0.01696 -0.07036,0.03367 -0.10568,0.05014l0.0203,0.02436l-1.98739,1.65616c-0.43538,0.36806 -0.99831,0.58995 -1.61307,0.58995c-1.38071,0 -2.5,-1.11929 -2.5,-2.5c0,-0.61475 0.22189,-1.17768 0.58995,-1.61307l1.65616,-1.98739l0.11768,0.09807l0.10215,-0.32997c4.05518,-2.92109 5.76804,-7.02668 9.33333,-10.33333c1.47946,-1.37213 3.17675,-2.50467 4.59962,-3.9354c0,0 1.76777,-1.76777 3.53553,0c1.76777,1.76777 0,3.53553 0,3.53553c-0.39995,0.39801 -0.81774,0.7766 -1.24507,1.14485z"></path><path d="M272.82335,166.80156c0.66799,-0.99632 1.39144,-1.90113 2.22757,-2.56261c1.03038,-0.81516 2.37676,-1.12056 3.56515,-1.68084c0,0 2.28453,-1.01535 3.29988,1.26918c1.01535,2.28453 -1.26918,3.29988 -1.26918,3.29988c-3.90683,1.5818 -4.83321,5.08153 -7.41532,8.30044c-0.5951,0.74186 -4.68775,4.58225 -5.06367,4.93988l-0.71567,0.00159l0.05497,0.24737l-2.94736,0.65497c-0.19068,0.04655 -0.38994,0.07123 -0.59496,0.07123c-1.38071,0 -2.5,-1.11929 -2.5,-2.5c0,-0.41989 0.10352,-0.81561 0.28642,-1.16302l1.64417,-3.28835l0.0604,0.0302c0.06405,-0.15184 0.13226,-0.30214 0.20515,-0.4507c0.50987,-1.03913 1.76058,-1.50436 2.60522,-2.29577c1.46731,-1.37485 2.84236,-2.84496 4.26419,-4.26679z"></path><path d="M240.30556,208.05378c-0.00028,0.00073 -0.00055,0.00147 -0.00083,0.0022c-0.13893,0.41679 -0.39849,0.89389 -0.88343,1.22181c-0.47732,0.33892 -1.01518,0.41444 -1.45421,0.39818c-0.00078,0 -0.00157,0 -0.00235,0c-0.63403,0 -1.10727,-0.1608 -1.46048,-0.40084c-4.31526,-1.88112 -6.3563,-4.86989 -9.39906,-8.42821c-1.29378,-1.513 -3.30726,-2.51621 -4.10037,-4.34214c-1.4616,-3.36494 -0.57491,-8.72482 -0.54008,-12.32882c0.0103,-1.06542 -0.21123,-2.16467 0.05666,-3.19592c1.22944,-4.73274 4.76134,-7.70182 6.85845,-11.89059c1.18336,-2.36365 1.48543,-4.94373 1.76685,-7.52291c0.39743,-3.53962 0.90078,-6.17462 2.64743,-9.2976l0.62999,-0.53202c0.01863,-0.16796 0.03728,-0.33586 0.05591,-0.50371c0,0 0.27608,-2.48471 2.76079,-2.20863c2.48471,0.27608 2.20863,2.76079 2.20863,2.76079c-0.01458,0.1311 -0.02919,0.26224 -0.0438,0.39343c0.24264,0.73329 0.06979,1.35109 -0.20081,1.81369c-0.39391,3.60516 -0.74225,7.23357 -0.7401,10.85014c0.00093,1.56414 -0.46043,3.17356 -0.08375,4.69166c0.21848,0.88052 2.26228,3.0239 2.60871,3.50888c1.16841,1.63567 2.5438,3.14394 3.49237,4.91618c0.46281,0.86468 0.35297,1.98073 0.88088,2.80727c0.9697,1.51822 2.52552,2.61634 3.43906,4.169l0.76948,0.99613c0.55552,0.66742 0.67265,1.30287 0.59515,1.84277c-0.03553,0.53836 -0.27673,1.12879 -0.94168,1.66222c-3.1804,2.7801 -6.65734,6.54308 -7.47795,10.90856c-0.37451,1.99231 -0.6408,4.04371 -1.39215,5.92386c0.18495,0.46375 0.22518,1.05266 -0.04931,1.78462z"></path><path d="M156.96474,366.43326c-2.5,0 -2.5,-2.5 -2.5,-2.5l0.32939,-2.24035c1.33477,-2.33489 3.48554,-4.618 4.6351,-6.94304c1.38005,-2.79123 2.44191,-6.30683 3.61754,-9.23696c3.41066,-5.97849 6.17716,-12.40417 8.97374,-18.61051c2.13286,-4.73339 6.38087,-8.09169 8.70265,-12.74272c1.82117,-3.64822 3.04031,-7.93927 5.06187,-11.45068c0.41915,-0.72806 1.97076,-2.59046 3.29262,-4.14077l-0.26027,-2.08216l0.11861,-0.01483c-0.04901,-0.21205 -0.0875,-0.4268 -0.11336,-0.64478c-0.12696,-1.07026 0.76023,-2.01811 1.1935,-3.00495c0.65988,-1.50298 1.4341,-2.95433 2.08458,-4.46141c0.77259,-1.79 0.79477,-3.85371 1.62026,-5.61994c1.23524,-2.64295 2.97989,-3.99969 3.75869,-6.93434c-0.55943,-1.10849 -1.03612,-2.22815 -1.01089,-3.43823c0.05615,-2.69373 1.79592,-3.7751 3.13768,-5.65774c3.03742,-4.26181 5.92814,-8.43883 9.54898,-12.25909c0.91401,-0.96436 1.63972,-2.20833 2.82148,-2.81565c0.04697,-0.02414 0.0941,-0.04788 0.14139,-0.07124l-0.02173,-0.02794l2.98241,-2.31966c0.36305,-0.28799 0.80798,-0.47723 1.2942,-0.52712c2.86594,-3.74831 5.53592,-7.66437 8.13824,-11.83817c0,0 1.325,-2.12 3.44499,-0.795c2.12,1.325 0.795,3.44499 0.795,3.44499c-5.80275,9.26374 -11.94401,17.36051 -19.68556,25.10944l-2,2v0c-0.45241,0.45241 -1.07741,0.73223 -1.76777,0.73223c-0.07515,0 -0.14952,-0.00332 -0.22298,-0.00981c-0.9969,1.38866 -1.98147,2.78272 -2.9788,4.14947c-0.27112,0.37155 -0.42348,0.72629 -0.4865,1.0692c0.85495,0.73524 0.85495,1.95781 0.85495,1.95781l-0.02013,0.61302c0.4996,0.77179 1.06711,1.55146 1.26971,2.41198c0.28335,1.20348 0.23249,2.48573 0.05147,3.70879c-0.90986,6.14728 -4.83762,11.91623 -8.44588,16.7368l-0.1414,0.19795c-0.0041,0.96338 -0.64897,1.71573 -0.64897,1.71573c-0.63201,0.73717 -4.0701,4.70785 -4.38509,5.26396c-1.95863,3.45789 -3.14494,7.6348 -4.93813,11.21598c-2.29197,4.57733 -6.60305,7.95462 -8.63069,12.59061c-2.73761,6.25928 -5.59614,12.73019 -9.02626,18.72282c-1.18208,2.9646 -2.29876,6.62114 -3.7158,9.4297c-1.19732,2.37307 -3.34065,4.68017 -4.69824,7.05696l0.32939,-0.24035c0,0 0,2.5 -2.5,2.5z"></path><path d="M163.3901,206.66026c0.47241,1.88963 -0.89548,2.67508 -1.52283,2.92988c0.2863,0.30527 0.56941,0.61411 0.86524,0.9087l0.73223,2.1011c0,0 0,0.93178 -0.56885,1.65763c1.97489,4.94929 4.41007,9.35462 6.66517,14.27987c0.78286,1.70981 2.41299,2.91912 3.29151,4.58181c0.87145,1.64929 0.80475,3.68867 1.67057,5.34093c1.69021,3.22543 4.69274,4.73151 6.34615,8.02537c2.32381,4.62942 0.68823,9.44565 2.49197,14.06924c0.55187,2.51304 0.86251,5.00167 1.24434,7.50516c0.93779,1.3782 1.77687,2.80877 1.78951,4.62074c0.00066,0.09451 -0.00099,0.18874 -0.00478,0.28271l0.0551,-0.00689l0.32844,2.62754c0.01595,0.11412 0.0242,0.2307 0.0242,0.34921c0,1.38071 -1.11929,2.5 -2.5,2.5c-1.03935,0 -1.93056,-0.63424 -2.30771,-1.53681l-1.31015,-2.94785l0.09176,-0.04078l-0.18154,-0.19183c-0.19194,-0.84872 -0.35434,-1.69627 -0.49978,-2.54261c-0.27625,-0.91336 -0.51099,-1.8621 -0.96318,-2.66643c-2.36638,-4.20914 -3.40344,-9.48658 -5.27834,-14.07102l-0.05106,-3.16933c0,0 0,-2.5 2.5,-2.5c0.06981,0 0.13768,0.00195 0.20364,0.00574c-1.60848,-3.02817 -4.73637,-4.85944 -6.42872,-8.03265c-0.87517,-1.64097 -0.77923,-3.68926 -1.66276,-5.32574c-0.92296,-1.70952 -2.54236,-2.99632 -3.37515,-4.75153c-2.21223,-4.66252 -4.45914,-8.98965 -6.40212,-13.6528c-0.2127,0.05886 -0.43679,0.0903 -0.66823,0.0903c-0.63486,0 -1.21445,-0.23664 -1.65538,-0.62653l-2.4646,-2.15653c-1.52086,-0.64591 -2.83163,-1.31641 -3.16346,-1.81929c-2.94611,-4.46476 1.10275,-11.40086 6.79035,-9.03199c0.68705,-0.17667 1.59248,-0.11818 2.41364,0.86721c0.1516,0.18192 0.27161,0.36097 0.36465,0.53606l0.10846,-0.02762c0,0 2.42536,-0.60634 3.0317,1.81902z"></path><path d="M352.30638,123.78279c-1.43311,0.6826 -2.84701,1.41177 -4.28442,2.08259c0,0 -2.26546,1.05721 -3.32267,-1.20824c-1.05721,-2.26546 1.20824,-3.32267 1.20824,-3.32267c0.62035,-0.28949 7.16362,-3.37658 8.24036,-3.76399c2.87356,-1.03391 6.08889,-0.63912 8.84185,-1.3868c0.78707,-0.21376 1.3266,-0.99461 2.09836,-1.25835c5.04612,-1.72443 11.27328,-1.23836 16.66747,-1.16361c0.12661,-0.00138 0.25208,0.00008 0.37631,0.00453c0.22172,0.00224 0.44194,0.00367 0.6605,0.00411l2.86018,-0.3178c0.10227,-0.01274 0.20646,-0.0193 0.31218,-0.0193c1.38071,0 2.5,1.11929 2.5,2.5c0,1.29767 -0.9887,2.36442 -2.2539,2.48804l-2.86606,0.31845c-1.23337,0.96637 -3.09945,0.50865 -4.61318,0.91604c-1.20393,0.32401 -2.35541,0.81991 -3.51792,1.27044c-7.53337,2.91954 -14.31697,6.46019 -22.58227,6.50703zM359.45448,121.59032c-1.17914,0.099 -2.35852,0.25398 -3.5064,0.64696c1.18398,-0.14547 2.35185,-0.36673 3.5064,-0.64696z"></path><path d="M343.29305,38.27462l-1.89497,1.42538c0,0 -1.10317,0.82738 -2.28538,0.43385c-0.59438,0.209 -1.35872,0.20807 -2.21462,-0.43385c-2,-1.5 -0.5,-3.5 -0.5,-3.5c2.29744,-3.02494 5.66015,-4.84745 7.9129,-7.87623c0.50857,-0.68377 0.48823,-1.652 0.92709,-2.38248c3.26477,-5.43422 7.65028,-10.29843 11.06775,-15.60967c2.07672,-3.22751 3.32442,-7.01315 5.60549,-10.14911c2.79804,-3.84668 5.92312,-7.22911 8.41215,-11.37749c3.1354,-4.13183 7.92663,-6.52793 11.10411,-10.64356c2.60353,-3.37222 4.61167,-7.47388 7.80321,-10.32429c1.77576,-1.58595 4.20682,-2.25576 6.1534,-3.62667c1.45304,-1.02333 1.96047,-2.99536 3.21875,-4.25045c0.67963,-0.67791 1.69906,-0.99108 2.28736,-1.7496c0.52259,-0.6738 0.44558,-1.67862 0.9207,-2.38669c0.57685,-0.85968 1.43874,-1.48833 2.16466,-2.22719l1.40498,-1.87331c0.45492,-0.62044 1.18914,-1.02328 2.01746,-1.02328c1.38071,0 2.5,1.11929 2.5,2.5c0,0.48518 -0.13821,0.93808 -0.37741,1.32147l-1.47886,2.46477l-0.03821,-0.02293c-0.01708,0.05476 -0.03472,0.1094 -0.05294,0.1639c-0.33838,1.01212 -1.38753,1.62606 -2,2.5c-2.16193,3.0849 -4.60196,6.15771 -7.28481,8.84056c-1.65811,1.65811 -3.86216,2.79634 -5.23966,4.69401c-1.99802,2.75251 -2.93319,6.33192 -5.05759,9.07675c-2.03916,2.63469 -4.92202,5.67227 -7.33251,7.8501c-0.49568,0.44784 -1.2574,0.59431 -1.65371,1.13208c-0.46402,0.62964 -0.39603,1.53731 -0.80488,2.20409c-2.7989,4.5646 -5.99107,9.1237 -9.79078,12.91319c-2.14491,2.87076 -3.72265,6.14695 -5.95528,8.94697c-1.58975,1.99376 -3.99074,3.76521 -5.40525,5.8768c-1.45514,2.17226 -3.19216,5.96338 -4.1963,8.43972c-0.37336,0.92075 -0.13798,2.07633 -0.69623,2.89824c-0.76039,1.11953 -2.04923,1.76829 -3.07384,2.65244l-0.40511,0.41615c-0.27102,0.40331 -0.65085,0.66585 -0.97944,0.83128c-0.30612,0.1738 -0.71225,0.33732 -1.17242,0.35267c-1.27253,0.29657 -2.5018,0.83607 -3.6098,1.52235z"></path></g><g fill-opacity="0.08235" fill="#b69edb" stroke="none" stroke-width="0.5"><path d="M232.0068,160.24178c0.46427,-2.89848 1.1849,-5.75059 1.70982,-8.6387c0,0 0.44721,-2.45967 2.90689,-2.01246c2.45967,0.44721 2.01246,2.90689 2.01246,2.90689c-0.75677,4.16075 -1.01528,8.94827 -2.16005,13.13361c1.07423,0.28028 1.86704,1.25714 1.86704,2.41918v4.33333c0,4.27897 0.3229,8.39064 0.56172,12.60777c1.02542,0.31182 1.77161,1.26488 1.77161,2.39223c0,0.6595 -0.25537,1.25936 -0.67262,1.70608l-0.99418,1.07066c-0.00202,1.57132 -0.00667,3.13241 -0.01378,3.1533c-0.02851,0.08383 -0.05778,0.16734 -0.08777,0.25055l0.04619,0.0099l-0.98989,4.61949c-0.22253,1.15273 -1.2369,2.02335 -2.45461,2.02335c-0.50185,0 -0.96916,-0.14787 -1.36074,-0.40241c-0.28066,0.6847 -0.56125,1.37008 -0.84223,2.05673l-0.30669,3.06694c-0.11199,1.27708 -1.18419,2.27874 -2.49034,2.27874c-0.85068,0 -1.60213,-0.42489 -2.0537,-1.07402l-1.59921,-2.2389c-1.82004,-2.12486 -4.06636,-4.53571 -5.07315,-7.12929c-0.13889,-0.35778 -0.10727,-5.8261 -0.10727,-6.39113c0,-0.3313 -0.01289,-5.84604 0.04012,-6.11273c0.6682,-3.36211 2.90576,-5.49369 4.68806,-8.23572c0.80705,-1.24163 1.56507,-2.68454 2.26577,-4.18403c0.07003,-1.62573 0.17464,-3.25558 0.33939,-4.89458v-2.57294v0c0,-1.38071 1.11929,-2.5 2.5,-2.5c0.106,0 0.21047,0.0066 0.313,0.0194c0.03166,-0.48204 0.08137,-1.01945 0.18417,-1.66125z"></path><path d="M182.961,269.95303c-2.23607,1.11803 -3.3541,-1.11803 -3.3541,-1.11803l-1.04846,-2.10269c-1.56037,-3.52038 -3.49257,-6.81949 -5.01333,-10.36388c0,0 -0.78241,-1.82562 0.6748,-2.91975c-0.04108,-0.35928 -0.08217,-0.71856 -0.12325,-1.07785c-1.05452,-2.46708 -0.72152,-5.27642 -1.8567,-7.60575c-0.42344,-0.86888 -1.29314,-1.47762 -1.68026,-2.36328c-0.39816,-0.91091 -0.21784,-2.00974 -0.62717,-2.91569c-0.75845,-1.6786 -2.57037,-2.72318 -3.35924,-4.3877c-1.87532,-3.95697 -2.82434,-8.60127 -4.65997,-12.65229c-1.57374,-3.47306 -5.44848,-4.60821 -7.24585,-7.83075c-0.19948,-0.35765 -0.35979,-0.71212 -0.48849,-1.06508c-0.00089,0 -0.00178,0 -0.00268,0c-2.5,0 -2.5,-2.5 -2.5,-2.5v-3c0,0 0,-2.5 2.5,-2.5c0.39142,0 0.72155,0.06128 1,0.16466c0.27845,-0.10338 0.60858,-0.16466 1,-0.16466c2.5,0 2.5,2.5 2.5,2.5c-0.00636,0.80187 -0.1914,3.21022 0.34217,4.10159c0.223,0.37254 3.43278,2.98031 3.51035,3.05236c2.15623,2.00298 2.63954,2.4545 3.91047,5.1169c1.93301,4.04934 2.84161,8.67022 4.67336,12.68105c0.74891,1.63981 2.52897,2.65297 3.30743,4.27897c0.45544,0.9513 0.2831,2.11818 0.70616,3.08431c0.37908,0.8657 1.26507,1.44165 1.65308,2.30339c1.23567,2.74434 0.95114,5.62002 2.1433,8.39425c0.13368,1.00348 0.26737,2.00696 0.40105,3.01044l0.27799,1.03708c0,0 0.26106,1.04425 -0.24462,1.93365c1.24397,2.55893 2.60741,5.04706 3.77046,7.65734l0.95154,1.89731c0,0 1.11803,2.23607 -1.11803,3.3541z"></path><path d="M172.72493,331.95303c-2.23607,-1.11803 -1.11803,-3.3541 -1.11803,-3.3541l1.06546,-2.12231c1.327,-2.32027 2.28016,-5.47484 3.83274,-7.58693c0.52815,-0.71847 1.49045,-1.02641 2.04475,-1.7249c1.62725,-2.05055 1.71143,-5.06712 2.64004,-7.37991c1.58495,-3.94746 4.03187,-7.79419 5.9617,-11.61006l0.59159,-2.36557c0.53385,-2.36605 0.68403,-3.95751 1.96824,-6.06527c1.83194,-3.00676 4.78066,-5.25569 6.63711,-8.28384c1.6429,-2.67981 0.0825,-6.17473 0.74486,-9.05151c0.68868,-2.9911 3.67659,-5.16368 5.33358,-7.5897c4.02702,-5.89603 8.85013,-11.02407 12.62934,-17.09363c0,0 1.325,-2.12 3.44499,-0.795c2.12,1.325 0.795,3.44499 0.795,3.44499c-3.84735,6.13487 -8.69418,11.35939 -12.77823,17.31816c-1.14115,1.66498 -4.2254,3.95176 -4.59218,5.99851c-0.68737,3.83571 0.78634,6.53077 -1.25514,10.28182c-1.72593,3.17125 -4.82001,5.37986 -6.69622,8.38283c-0.8268,1.32334 -1.05051,3.16064 -1.3651,4.60139l-0.67443,2.69862c0,0 -0.02548,0.10191 -0.08688,0.25872c-0.05544,0.15902 -0.10241,0.25297 -0.10241,0.25297c-1.88588,3.77175 -4.36262,7.5789 -5.91632,11.48072c-0.698,1.75288 -0.92138,3.67961 -1.69482,5.40054c-0.8246,1.83476 -2.39401,3.23353 -3.6204,4.82798c-1.43834,1.87 -2.29386,4.96626 -3.50059,7.07974l-0.93454,1.87769c0,0 -1.11803,2.23607 -3.3541,1.11803z"></path><path d="M271.15873,149.50977c-0.26445,0.164 -0.56176,0.28004 -0.87978,0.33597c0.30248,0.09744 0.59779,0.18966 0.87925,0.27621c-0.00095,-0.20383 -0.00072,-0.4079 0.00053,-0.61219zM256.73076,109.90261c-0.22744,-1.03117 -0.20659,-2.25219 -0.05446,-3.51898c0,0 0,-0.77005 0,-1.70574c-0.54016,-1.19785 -1.44374,-2.24957 -3.07368,-3.12365c0,0 -2.17061,-1.24035 -0.93026,-3.41096c1.24035,-2.17061 3.41096,-0.93026 3.41096,-0.93026c0.92306,0.5497 1.98588,0.91381 2.76917,1.64911c0.01329,0.01248 0.02653,0.02497 0.03972,0.03747c0.09324,-0.01055 0.18804,-0.01597 0.2841,-0.01597c0.76522,0 1.45014,0.3438 1.90872,0.88536l1.98942,2.32099l-0.10131,0.08684l0.3256,0.21905c0.14158,0.32311 0.279,0.63082 0.41201,0.92805c1.45094,0.45549 1.61982,2.14428 1.61982,2.14428l0.34264,3.45756c0.00002,0.10466 0.00028,0.20868 0.00079,0.31208c0.01833,0.22541 0.0164,0.45424 0.00741,0.684c0.01181,0.69285 0.03706,1.35942 0.07998,2.00833c0.01529,0.0495 0.03233,0.09864 0.05126,0.1474c0.3249,0.83668 1.33637,1.22849 1.81943,1.98496c1.70384,2.66822 1.78738,6.07259 3.39543,8.7721c1.73995,2.92093 3.07872,4.96055 4.00814,7.67365c0.26564,0.15902 0.50895,0.34342 0.70561,0.58186c0.80367,0.97445 1.27974,2.22379 1.55067,3.45749c0.77698,3.53801 0.053,7.8718 0.05106,11.50266c-0.00211,3.94579 0.58677,9.05806 -3.84067,11.29447c-1.43513,0.72492 -8.42362,-0.81948 -9.25936,-1.7095c-0.34916,-0.37184 -0.49002,-1.83471 -0.54397,-3.35573c-1.08149,-0.6445 -2.01124,-1.37738 -2.62673,-2.2124c-0.76587,-1.03906 -0.36488,-2.55989 -0.67108,-3.81386c-1.16258,-4.76112 -1.20389,-9.68354 -1.13283,-14.62277c-0.21435,-4.48936 -0.07126,-9.05109 0.01813,-13.53152c-0.05789,-0.55634 -0.14634,-1.11895 -0.19668,-1.67374c-0.13472,-0.58607 -0.26948,-1.17213 -0.40344,-1.75834c-0.79424,-1.54269 -1.5849,-3.08368 -1.95558,-4.76429zM270.77989,133.74058c-0.10213,-0.04386 -0.2077,-0.09217 -0.31632,-0.1477c0.30045,1.14498 0.57349,2.29802 0.81687,3.46243c-0.05896,-0.67676 -0.14027,-1.34835 -0.24961,-2.01351c-0.0762,-0.46354 -0.15984,-0.89539 -0.25094,-1.30122z"></path><path d="M264.1763,101.21696c-2.5,0 -2.5,-2.5 -2.5,-2.5l0.01931,-0.35658c-0.2306,-1.87065 -0.34941,-3.75861 -0.35264,-5.64342c0,0 0,-2.5 2.5,-2.5c2.5,0 2.5,2.5 2.5,2.5c-0.00323,1.67768 0.10276,3.35892 0.31403,5.02325l0.01931,0.97675c0,0 0,2.5 -2.5,2.5z"></path><path d="M271.82303,69.09394c0.85327,0.7354 0.85327,1.95636 0.85327,1.95636l-0.07464,0.93967c-0.16376,0.63435 -0.36447,1.25739 -0.59202,1.8716v2.85539c0,1.38071 -1.11929,2.5 -2.5,2.5c-1.38071,0 -2.5,-1.11929 -2.5,-2.5c0,-0.00349 0,-3.00699 0,-3.01048c-0.16221,-0.34833 -0.12284,-0.72034 0,-1.10215c0,-0.85135 0,-1.70269 0,-2.55404c0,0 0,-2.5 2.5,-2.5c1.4474,0 2.05681,0.83799 2.3134,1.54364z"></path><path d="M373.94406,115.28253c1.76777,1.76777 0,3.53553 0,3.53553l-0.64777,0.55723c-0.85825,1.17609 -1.30286,2.81968 -2.57474,3.52828c-1.25487,0.69913 -2.87366,0.12193 -4.29891,0.30123c-0.99583,0.12527 -2.39966,0.56278 -3.88548,1.00393c-0.66599,0.36299 -1.43561,0.50537 -2.21903,0.61834c-0.84324,0.20959 -1.66115,0.37144 -2.39434,0.42933l-4.17168,0.89393c-0.18486,0.04358 -0.37764,0.06663 -0.5758,0.06663c-1.38071,0 -2.5,-1.11929 -2.5,-2.5c0,-1.05134 0.64897,-1.9511 1.56816,-2.32056l0.29963,-0.12841c0.48762,-0.95106 1.5805,-1.27893 1.5805,-1.27893c2.33601,-0.69893 4.6387,-1.51256 6.91227,-2.39366l0.47277,0.1449v-0.19001h2.66667v0c0.66425,0 1.268,0.25906 1.71572,0.68166c0.01294,-0.00104 0.02559,-0.00199 0.03794,-0.00283c0.79377,-0.05413 1.65078,0.64611 2.36776,0.30123c0.58815,-0.28291 0.50573,-1.20337 0.75859,-1.80506l1.35223,-1.44277c0,0 1.76777,-1.76777 3.53553,0z"></path><path d="M350.23722,30.04835c-0.44347,0.99351 -1.04916,1.84446 -2.69563,2.75262c-0.02865,0.0158 -0.05737,0.03143 -0.08618,0.04688l0.01453,0.01695l-2.32275,1.99093c-0.43866,0.38059 -1.01121,0.61093 -1.63756,0.61093c-1.38071,0 -2.5,-1.11929 -2.5,-2.5c0,-0.62635 0.23034,-1.1989 0.61093,-1.63756l0.43393,-0.50626c-0.52249,-2.02438 1.52666,-2.84404 1.52666,-2.84404l0.99468,-0.26603c0.07293,-0.05969 0.14683,-0.11801 0.2216,-0.17509c3.91836,-5.02295 7.06671,-10.77552 9.88067,-16.35439c1.88428,-3.73572 4.56739,-6.6162 6.6878,-10.16953c0,0 0.69625,-1.16042 1.91801,-1.26148c2.15443,-2.80619 4.34501,-5.57125 6.49419,-8.37765c0.44406,-0.65482 0.91335,-1.28421 1.40259,-1.8471c0.72496,-0.96385 1.44314,-1.93459 2.15147,-2.91549l0.29969,-0.1139l-0.08253,-0.09629l2.32275,-1.99093c0.43866,-0.38059 1.01121,-0.61093 1.63756,-0.61093c1.38071,0 2.5,1.11929 2.5,2.5c0,0.50054 -0.1471,0.96673 -0.40043,1.35768l-1.64624,2.63398l-0.04848,-0.0303c-0.03664,0.0878 -0.07495,0.17505 -0.11507,0.26168c-1.00205,2.16404 -3.56455,3.23555 -4.90602,5.20725c-1.77153,2.60379 -3.19678,5.4032 -4.99694,7.9956c-4.40454,6.34296 -7.08182,13.55605 -11.7274,19.75038c-1.21675,1.62239 -2.48921,4.19733 -4.16548,5.49492c-0.5448,0.42173 -1.1522,0.75458 -1.76635,1.07716z"></path></g><path d="M152.05,95.45c0,0.75 -0.75,0.75 -0.75,0.75c-0.7692,0 -1.7514,0 -2.75,0c0,0.25 0,0.5 0,0.75v0.5c0,0 0,0.75 -0.75,0.75c-0.75,0 -0.75,-0.75 -0.75,-0.75c0,-0.38887 0,-0.81134 0,-1.25c-0.63863,0 -1.24096,0 -1.75,0c0,0 -0.75,0 -0.75,-0.75c0,-0.75 0.75,-0.75 0.75,-0.75c0.58333,0 1.16667,0 1.75,0c0,-0.7906 0,-1.57146 0,-2.25c0,0 0,-0.75 0.75,-0.75c0.75,0 0.75,0.75 0.75,0.75c0,0.75 0,1.5 0,2.25c0.58333,0 1.16667,0 1.75,0h1c0,0 0.75,0 0.75,0.75z" fill="#ffffff" stroke="none" stroke-width="0.5"></path><path d="M97.05,162.95c0,-0.41421 0.33579,-0.75 0.75,-0.75c0.41421,0 0.75,0.33579 0.75,0.75c0,0.41421 -0.33579,0.75 -0.75,0.75c-0.41421,0 -0.75,-0.33579 -0.75,-0.75z" fill="#ffffff" stroke="none" stroke-width="0.5"></path><path d="M165.55,40.95c0,-0.41421 0.33579,-0.75 0.75,-0.75c0.41421,0 0.75,0.33579 0.75,0.75c0,0.41421 -0.33579,0.75 -0.75,0.75c-0.41421,0 -0.75,-0.33579 -0.75,-0.75z" fill="#ffffff" stroke="none" stroke-width="0.5"></path><path d="M118.05,64.95c0,0.75 -0.75,0.75 -0.75,0.75c-0.91667,0 -2.08333,0 -3.25,0c0,1.08333 0,2.16667 0,3.25v0.5c0,0 0,0.75 -0.75,0.75c-0.75,0 -0.75,-0.75 -0.75,-0.75c0,-1.19659 0,-2.46458 0,-3.75c-0.63315,0 -1.23156,0 -1.75,0c0,0 -0.75,0 -0.75,-0.75c0,-0.75 0.75,-0.75 0.75,-0.75c0.58333,0 1.16667,0 1.75,0c0,-1.62471 0,-3.24391 0,-4.75c0,0 0,-0.75 0.75,-0.75c0.75,0 0.75,0.75 0.75,0.75c0,1.58333 0,3.16667 0,4.75c0.75,0 1.5,0 2.25,0h1c0,0 0.75,0 0.75,0.75z" fill="#ffffff" stroke="none" stroke-width="0.5"></path><path d="M56.55,256.45c0,-0.41421 0.33579,-0.75 0.75,-0.75c0.41421,0 0.75,0.33579 0.75,0.75c0,0.41421 -0.33579,0.75 -0.75,0.75c-0.41421,0 -0.75,-0.33579 -0.75,-0.75z" fill="#ffffff" stroke="none" stroke-width="0.5"></path><path d="M103.55,235.45c0,-0.41421 0.33579,-0.75 0.75,-0.75c0.41421,0 0.75,0.33579 0.75,0.75c0,0.41421 -0.33579,0.75 -0.75,0.75c-0.41421,0 -0.75,-0.33579 -0.75,-0.75z" fill="#ffffff" stroke="none" stroke-width="0.5"></path><path d="M48.55,162.95c0,-0.41421 0.33579,-0.75 0.75,-0.75c0.41421,0 0.75,0.33579 0.75,0.75c0,0.41421 -0.33579,0.75 -0.75,0.75c-0.41421,0 -0.75,-0.33579 -0.75,-0.75z" fill="#ffffff" stroke="none" stroke-width="0.5"></path><path d="M274.05,-17.3c0,-0.41421 0.33579,-0.75 0.75,-0.75c0.41421,0 0.75,0.33579 0.75,0.75c0,0.41421 -0.33579,0.75 -0.75,0.75c-0.41421,0 -0.75,-0.33579 -0.75,-0.75z" fill="#ffffff" stroke="none" stroke-width="0.5"></path><path d="M254.05,-32.8c0,0.75 -0.75,0.75 -0.75,0.75c-0.92147,0 -2.05521,0 -3.20563,0c-0.02634,0.45993 -0.07462,0.91357 -0.15638,1.3557l0.69742,0.22348c0,0 0.67082,0.33541 0.33541,1.00623c-0.33541,0.67082 -1.00623,0.33541 -1.00623,0.33541l-1.30258,-0.77652c-0.05736,-0.71403 -0.08883,-1.42891 -0.10533,-2.1443c-0.81388,0 -1.59072,0 -2.25668,0c0,0 -0.75,0 -0.75,-0.75c0,-0.75 0.75,-0.75 0.75,-0.75c0.74677,0 1.49353,0 2.2403,0c-0.00116,-0.91642 0.0097,-1.83332 0.0097,-2.75c0,0 0,-0.75 0.75,-0.75c0.75,0 0.75,0.75 0.75,0.75c0,0.89213 0.05255,1.8224 0.06752,2.75c0.72749,0 1.45499,0 2.18248,0h1c0,0 0.75,0 0.75,0.75z" fill="#ffffff" stroke="none" stroke-width="0.5"></path><path d="M185.8,-13.55c-0.75,0 -0.75,-0.75 -0.75,-0.75c0,-0.83333 0,-3.16667 0,-4c0,0 0,-0.75 0.75,-0.75c0.75,0 0.75,0.75 0.75,0.75c0,0.83333 0,1.66667 0,2.5v1.5c0,0 0,0.75 -0.75,0.75z" fill="#ffffff" stroke="none" stroke-width="0.5"></path><path d="M242.05,35.2c0,-0.41421 0.33579,-0.75 0.75,-0.75c0.41421,0 0.75,0.33579 0.75,0.75c0,0.41421 -0.33579,0.75 -0.75,0.75c-0.41421,0 -0.75,-0.33579 -0.75,-0.75z" fill="#ffffff" stroke="none" stroke-width="0.5"></path></g></g></svg>