<svg version="1.1" xmlns="http://www.w3.org/2000/svg" xmlns:xlink="http://www.w3.org/1999/xlink" width="60" height="60" viewBox="0,0,60,60"><g transform="translate(-210,-150)"><g stroke="none" stroke-width="0" stroke-miterlimit="10"><path d="M210,210v-60h60v60z" fill="none"></path><g fill="#c6a5cc"><g><path d="M247.53044,180.00001c0,0 -5.82523,14.84451 -6.07515,15.09443c-0.38567,0.38567 -1.04245,0.82556 -1.68407,0.82266c-0.58802,-0.00266 -1.2332,-0.48626 -1.57533,-0.82839c-0.30845,-0.30845 -5.7263,-15.0887 -5.7263,-15.0887z"></path><path d="M232.46956,180c0,0 5.41785,-14.78025 5.72631,-15.08871c0.34213,-0.34213 0.98731,-0.82574 1.57533,-0.82839c0.64162,-0.0029 1.29841,0.43699 1.68408,0.82266c0.24992,0.24992 6.07516,15.09443 6.07516,15.09443z"></path></g><g><path d="M240.00001,172.46957c0,0 14.84451,5.82523 15.09443,6.07515c0.38567,0.38567 0.82556,1.04245 0.82266,1.68408c-0.00266,0.58802 -0.48626,1.2332 -0.82839,1.57533c-0.30846,0.30846 -15.0887,5.7263 -15.0887,5.7263z"></path><path d="M240,187.53044c0,0 -14.78025,-5.41785 -15.08871,-5.72631c-0.34213,-0.34213 -0.82574,-0.98731 -0.82839,-1.57533c-0.0029,-0.64162 0.43699,-1.29841 0.82266,-1.68408c0.24992,-0.24992 15.09443,-6.07516 15.09443,-6.07516z"></path></g></g></g></g></svg>